0
SECTION
2
HEADER
9
$ACADVER
1
AC1009
0
ENDSEC
0
SECTION
2
TABLES
0
TABLE
2
LAYER
70
1
0
LAYER
2
38_114000
70
0
62
7
6
CONTINUOUS
0
ENDTAB
0
ENDSEC
0
SECTION
2
BLOCKS
0
ENDSEC
0
SECTION
2
ENTITIES
0
POLYLINE
8
38_114000
62
5
0
VERTEX
8
38_114000
10
-43.08400
20
91.84100
30
114.00000
0
VERTEX
8
38_114000
10
-0.17000
20
91.84100
30
114.00000
0
VERTEX
8
38_114000
10
-0.63100
20
91.91801
30
114.00000
0
VERTEX
8
38_114000
10
-56.17000
20
91.91801
30
114.00000
0
VERTEX
8
38_114000
10
-56.17000
20
91.84100
30
114.00000
0
VERTEX
8
38_114000
10
-43.08400
20
91.84100
30
114.00000
0
SEQEND
8
38_114000
0
POLYLINE
8
38_114000
62
5
0
VERTEX
8
38_114000
10
-43.46900
20
91.79700
30
114.00000
0
VERTEX
8
38_114000
10
0.08900
20
91.79700
30
114.00000
0
VERTEX
8
38_114000
10
-0.13600
20
91.83501
30
114.00000
0
VERTEX
8
38_114000
10
-56.17000
20
91.83501
30
114.00000
0
VERTEX
8
38_114000
10
-56.17000
20
91.79700
30
114.00000
0
VERTEX
8
38_114000
10
-43.46900
20
91.79700
30
114.00000
0
SEQEND
8
38_114000
0
POLYLINE
8
38_114000
62
5
0
VERTEX
8
38_114000
10
-56.17000
20
91.78201
30
114.00000
0
VERTEX
8
38_114000
10
-56.17000
20
91.73601
30
114.00000
0
VERTEX
8
38_114000
10
0.46300
20
91.73601
30
114.00000
0
VERTEX
8
38_114000
10
0.09600
20
91.79700
30
114.00000
0
VERTEX
8
38_114000
10
-56.17000
20
91.79700
30
114.00000
0
VERTEX
8
38_114000
10
-56.17000
20
91.78201
30
114.00000
0
SEQEND
8
38_114000
0
POLYLINE
8
38_114000
62
5
0
VERTEX
8
38_114000
10
-56.17000
20
91.54101
30
114.00000
0
VERTEX
8
38_114000
10
-56.17000
20
91.43001
30
114.00000
0
VERTEX
8
38_114000
10
2.28600
20
91.43001
30
114.00000
0
VERTEX
8
38_114000
10
0.49100
20
91.73000
30
114.00000
0
VERTEX
8
38_114000
10
-56.17000
20
91.73000
30
114.00000
0
VERTEX
8
38_114000
10
-56.17000
20
91.54101
30
114.00000
0
SEQEND
8
38_114000
0
POLYLINE
8
38_114000
62
5
0
VERTEX
8
38_114000
10
-53.39700
20
88.06001
30
114.00000
0
VERTEX
8
38_114000
10
-56.17000
20
88.06001
30
114.00000
0
VERTEX
8
38_114000
10
-56.17000
20
-92.11401
30
114.00000
0
VERTEX
8
38_114000
10
29.74300
20
-92.11401
30
114.00000
0
VERTEX
8
38_114000
10
29.48500
20
-91.70000
30
114.00000
0
VERTEX
8
38_114000
10
28.11100
20
-89.26000
30
114.00000
0
VERTEX
8
38_114000
10
27.31200
20
-87.72900
30
114.00000
0
VERTEX
8
38_114000
10
26.68100
20
-86.31001
30
114.00000
0
VERTEX
8
38_114000
10
26.42600
20
-85.77000
30
114.00000
0
VERTEX
8
38_114000
10
25.71900
20
-84.08900
30
114.00000
0
VERTEX
8
38_114000
10
25.23300
20
-83.01601
30
114.00000
0
VERTEX
8
38_114000
10
25.11000
20
-82.55601
30
114.00000
0
VERTEX
8
38_114000
10
25.10700
20
-82.43201
30
114.00000
0
VERTEX
8
38_114000
10
25.43500
20
-80.66300
30
114.00000
0
VERTEX
8
38_114000
10
25.61800
20
-78.90000
30
114.00000
0
VERTEX
8
38_114000
10
25.90400
20
-77.13500
30
114.00000
0
VERTEX
8
38_114000
10
26.11200
20
-75.92300
30
114.00000
0
VERTEX
8
38_114000
10
26.15300
20
-75.53900
30
114.00000
0
VERTEX
8
38_114000
10
26.11100
20
-75.22200
30
114.00000
0
VERTEX
8
38_114000
10
26.07500
20
-74.65000
30
114.00000
0
VERTEX
8
38_114000
10
25.74600
20
-73.69000
30
114.00000
0
VERTEX
8
38_114000
10
25.54500
20
-72.88600
30
114.00000
0
VERTEX
8
38_114000
10
25.47700
20
-72.70901
30
114.00000
0
VERTEX
8
38_114000
10
25.31000
20
-71.84500
30
114.00000
0
VERTEX
8
38_114000
10
24.98800
20
-70.28201
30
114.00000
0
VERTEX
8
38_114000
10
24.96600
20
-69.99400
30
114.00000
0
VERTEX
8
38_114000
10
24.86300
20
-69.61900
30
114.00000
0
VERTEX
8
38_114000
10
24.84000
20
-69.47000
30
114.00000
0
VERTEX
8
38_114000
10
24.60500
20
-68.47300
30
114.00000
0
VERTEX
8
38_114000
10
24.58200
20
-67.76000
30
114.00000
0
VERTEX
8
38_114000
10
24.44400
20
-67.24500
30
114.00000
0
VERTEX
8
38_114000
10
24.38300
20
-67.07500
30
114.00000
0
VERTEX
8
38_114000
10
24.22600
20
-66.41400
30
114.00000
0
VERTEX
8
38_114000
10
24.20600
20
-66.35800
30
114.00000
0
VERTEX
8
38_114000
10
24.02300
20
-65.07500
30
114.00000
0
VERTEX
8
38_114000
10
24.01700
20
-64.98600
30
114.00000
0
VERTEX
8
38_114000
10
23.87500
20
-64.61800
30
114.00000
0
VERTEX
8
38_114000
10
23.60000
20
-64.21900
30
114.00000
0
VERTEX
8
38_114000
10
23.45600
20
-63.78000
30
114.00000
0
VERTEX
8
38_114000
10
23.37600
20
-63.23200
30
114.00000
0
VERTEX
8
38_114000
10
23.31500
20
-63.00200
30
114.00000
0
VERTEX
8
38_114000
10
22.97100
20
-61.97600
30
114.00000
0
VERTEX
8
38_114000
10
22.94100
20
-61.80200
30
114.00000
0
VERTEX
8
38_114000
10
22.78100
20
-60.42200
30
114.00000
0
VERTEX
8
38_114000
10
22.77100
20
-60.38300
30
114.00000
0
VERTEX
8
38_114000
10
22.80700
20
-60.17000
30
114.00000
0
VERTEX
8
38_114000
10
22.78600
20
-59.93100
30
114.00000
0
VERTEX
8
38_114000
10
22.62700
20
-59.29800
30
114.00000
0
VERTEX
8
38_114000
10
22.54200
20
-58.89900
30
114.00000
0
VERTEX
8
38_114000
10
22.40100
20
-58.13200
30
114.00000
0
VERTEX
8
38_114000
10
22.25800
20
-57.72900
30
114.00000
0
VERTEX
8
38_114000
10
22.11600
20
-57.42900
30
114.00000
0
VERTEX
8
38_114000
10
22.07700
20
-57.26500
30
114.00000
0
VERTEX
8
38_114000
10
22.00300
20
-56.75700
30
114.00000
0
VERTEX
8
38_114000
10
21.97400
20
-56.23900
30
114.00000
0
VERTEX
8
38_114000
10
21.92500
20
-55.84800
30
114.00000
0
VERTEX
8
38_114000
10
21.85600
20
-55.44900
30
114.00000
0
VERTEX
8
38_114000
10
21.76200
20
-54.76900
30
114.00000
0
VERTEX
8
38_114000
10
21.64400
20
-54.34000
30
114.00000
0
VERTEX
8
38_114000
10
21.59400
20
-54.05300
30
114.00000
0
VERTEX
8
38_114000
10
21.54400
20
-53.11000
30
114.00000
0
VERTEX
8
38_114000
10
21.58100
20
-52.38300
30
114.00000
0
VERTEX
8
38_114000
10
21.61800
20
-51.97600
30
114.00000
0
VERTEX
8
38_114000
10
21.58600
20
-51.78900
30
114.00000
0
VERTEX
8
38_114000
10
21.47300
20
-50.89700
30
114.00000
0
VERTEX
8
38_114000
10
21.38400
20
-49.51600
30
114.00000
0
VERTEX
8
38_114000
10
21.41400
20
-49.27100
30
114.00000
0
VERTEX
8
38_114000
10
21.45500
20
-48.54300
30
114.00000
0
VERTEX
8
38_114000
10
21.42900
20
-48.15300
30
114.00000
0
VERTEX
8
38_114000
10
21.38500
20
-47.80700
30
114.00000
0
VERTEX
8
38_114000
10
21.34800
20
-46.99100
30
114.00000
0
VERTEX
8
38_114000
10
21.36400
20
-46.37300
30
114.00000
0
VERTEX
8
38_114000
10
21.31500
20
-45.91000
30
114.00000
0
VERTEX
8
38_114000
10
21.26400
20
-45.51900
30
114.00000
0
VERTEX
8
38_114000
10
21.28900
20
-45.00900
30
114.00000
0
VERTEX
8
38_114000
10
21.33700
20
-43.50700
30
114.00000
0
VERTEX
8
38_114000
10
21.31100
20
-42.56600
30
114.00000
0
VERTEX
8
38_114000
10
21.27700
20
-42.21100
30
114.00000
0
VERTEX
8
38_114000
10
21.21600
20
-41.74200
30
114.00000
0
VERTEX
8
38_114000
10
21.19400
20
-41.01200
30
114.00000
0
VERTEX
8
38_114000
10
21.19600
20
-40.66300
30
114.00000
0
VERTEX
8
38_114000
10
21.20400
20
-40.59700
30
114.00000
0
VERTEX
8
38_114000
10
21.36300
20
-39.92500
30
114.00000
0
VERTEX
8
38_114000
10
21.36100
20
-39.28700
30
114.00000
0
VERTEX
8
38_114000
10
21.24000
20
-37.98200
30
114.00000
0
VERTEX
8
38_114000
10
21.32700
20
-35.87500
30
114.00000
0
VERTEX
8
38_114000
10
21.38100
20
-35.16400
30
114.00000
0
VERTEX
8
38_114000
10
21.57000
20
-34.25700
30
114.00000
0
VERTEX
8
38_114000
10
21.67000
20
-33.86300
30
114.00000
0
VERTEX
8
38_114000
10
21.78800
20
-33.57500
30
114.00000
0
VERTEX
8
38_114000
10
21.83000
20
-33.21000
30
114.00000
0
VERTEX
8
38_114000
10
21.95600
20
-32.68800
30
114.00000
0
VERTEX
8
38_114000
10
21.98500
20
-32.40300
30
114.00000
0
VERTEX
8
38_114000
10
22.03300
20
-31.51700
30
114.00000
0
VERTEX
8
38_114000
10
22.06800
20
-31.38600
30
114.00000
0
VERTEX
8
38_114000
10
22.10100
20
-30.84900
30
114.00000
0
VERTEX
8
38_114000
10
22.13400
20
-30.47100
30
114.00000
0
VERTEX
8
38_114000
10
22.10700
20
-30.35100
30
114.00000
0
VERTEX
8
38_114000
10
22.07100
20
-30.05500
30
114.00000
0
VERTEX
8
38_114000
10
21.92600
20
-28.43400
30
114.00000
0
VERTEX
8
38_114000
10
21.84900
20
-27.68500
30
114.00000
0
VERTEX
8
38_114000
10
21.90400
20
-27.36800
30
114.00000
0
VERTEX
8
38_114000
10
22.04000
20
-26.68700
30
114.00000
0
VERTEX
8
38_114000
10
22.13300
20
-25.24600
30
114.00000
0
VERTEX
8
38_114000
10
21.99400
20
-24.74500
30
114.00000
0
VERTEX
8
38_114000
10
22.01400
20
-23.50000
30
114.00000
0
VERTEX
8
38_114000
10
22.00700
20
-23.40000
30
114.00000
0
VERTEX
8
38_114000
10
21.96300
20
-23.09400
30
114.00000
0
VERTEX
8
38_114000
10
21.83900
20
-22.47900
30
114.00000
0
VERTEX
8
38_114000
10
21.85500
20
-22.27700
30
114.00000
0
VERTEX
8
38_114000
10
21.93800
20
-21.64900
30
114.00000
0
VERTEX
8
38_114000
10
21.87300
20
-21.34600
30
114.00000
0
VERTEX
8
38_114000
10
21.92000
20
-21.08000
30
114.00000
0
VERTEX
8
38_114000
10
21.98700
20
-20.88300
30
114.00000
0
VERTEX
8
38_114000
10
22.07600
20
-20.35700
30
114.00000
0
VERTEX
8
38_114000
10
22.24000
20
-19.96300
30
114.00000
0
VERTEX
8
38_114000
10
22.44700
20
-19.59300
30
114.00000
0
VERTEX
8
38_114000
10
22.90700
20
-18.23200
30
114.00000
0
VERTEX
8
38_114000
10
23.02500
20
-17.51500
30
114.00000
0
VERTEX
8
38_114000
10
23.13100
20
-17.02300
30
114.00000
0
VERTEX
8
38_114000
10
23.31400
20
-16.26100
30
114.00000
0
VERTEX
8
38_114000
10
23.38700
20
-15.85400
30
114.00000
0
VERTEX
8
38_114000
10
23.63400
20
-15.23900
30
114.00000
0
VERTEX
8
38_114000
10
23.85300
20
-14.35100
30
114.00000
0
VERTEX
8
38_114000
10
23.91300
20
-13.77700
30
114.00000
0
VERTEX
8
38_114000
10
24.08400
20
-12.57400
30
114.00000
0
VERTEX
8
38_114000
10
24.10600
20
-11.83300
30
114.00000
0
VERTEX
8
38_114000
10
24.36800
20
-10.36700
30
114.00000
0
VERTEX
8
38_114000
10
24.93600
20
-8.21200
30
114.00000
0
VERTEX
8
38_114000
10
25.74700
20
-4.81400
30
114.00000
0
VERTEX
8
38_114000
10
26.08000
20
-3.04300
30
114.00000
0
VERTEX
8
38_114000
10
26.72700
20
0.19500
30
114.00000
0
VERTEX
8
38_114000
10
26.77100
20
0.48900
30
114.00000
0
VERTEX
8
38_114000
10
26.80300
20
0.91300
30
114.00000
0
VERTEX
8
38_114000
10
27.34900
20
4.93200
30
114.00000
0
VERTEX
8
38_114000
10
27.45200
20
5.85100
30
114.00000
0
VERTEX
8
38_114000
10
27.51400
20
6.62800
30
114.00000
0
VERTEX
8
38_114000
10
27.56900
20
7.92200
30
114.00000
0
VERTEX
8
38_114000
10
27.64100
20
8.66100
30
114.00000
0
VERTEX
8
38_114000
10
27.67500
20
9.44500
30
114.00000
0
VERTEX
8
38_114000
10
27.66000
20
10.01500
30
114.00000
0
VERTEX
8
38_114000
10
27.67400
20
11.40500
30
114.00000
0
VERTEX
8
38_114000
10
27.64900
20
12.04600
30
114.00000
0
VERTEX
8
38_114000
10
27.56200
20
13.17800
30
114.00000
0
VERTEX
8
38_114000
10
27.32700
20
15.24700
30
114.00000
0
VERTEX
8
38_114000
10
27.20500
20
16.12700
30
114.00000
0
VERTEX
8
38_114000
10
26.80300
20
18.34100
30
114.00000
0
VERTEX
8
38_114000
10
26.11100
20
21.51300
30
114.00000
0
VERTEX
8
38_114000
10
25.99000
20
22.04200
30
114.00000
0
VERTEX
8
38_114000
10
25.65200
20
23.33800
30
114.00000
0
VERTEX
8
38_114000
10
25.29400
20
24.82000
30
114.00000
0
VERTEX
8
38_114000
10
25.12300
20
25.56200
30
114.00000
0
VERTEX
8
38_114000
10
24.32600
20
29.66700
30
114.00000
0
VERTEX
8
38_114000
10
23.69800
20
32.73000
30
114.00000
0
VERTEX
8
38_114000
10
23.47000
20
34.04600
30
114.00000
0
VERTEX
8
38_114000
10
23.41400
20
34.71000
30
114.00000
0
VERTEX
8
38_114000
10
23.41000
20
35.93400
30
114.00000
0
VERTEX
8
38_114000
10
23.43600
20
36.85000
30
114.00000
0
VERTEX
8
38_114000
10
23.64400
20
38.69900
30
114.00000
0
VERTEX
8
38_114000
10
23.68100
20
38.94300
30
114.00000
0
VERTEX
8
38_114000
10
24.11500
20
40.59900
30
114.00000
0
VERTEX
8
38_114000
10
24.34900
20
41.15900
30
114.00000
0
VERTEX
8
38_114000
10
25.36200
20
43.79500
30
114.00000
0
VERTEX
8
38_114000
10
26.15200
20
47.20000
30
114.00000
0
VERTEX
8
38_114000
10
26.15800
20
47.30900
30
114.00000
0
VERTEX
8
38_114000
10
26.25800
20
47.63500
30
114.00000
0
VERTEX
8
38_114000
10
26.44400
20
48.50900
30
114.00000
0
VERTEX
8
38_114000
10
26.60900
20
50.09500
30
114.00000
0
VERTEX
8
38_114000
10
26.61200
20
51.16500
30
114.00000
0
VERTEX
8
38_114000
10
26.60200
20
51.39900
30
114.00000
0
VERTEX
8
38_114000
10
26.52500
20
51.97900
30
114.00000
0
VERTEX
8
38_114000
10
26.46200
20
52.34300
30
114.00000
0
VERTEX
8
38_114000
10
26.45000
20
52.52200
30
114.00000
0
VERTEX
8
38_114000
10
26.47700
20
52.91400
30
114.00000
0
VERTEX
8
38_114000
10
27.08500
20
54.78900
30
114.00000
0
VERTEX
8
38_114000
10
27.36300
20
55.51800
30
114.00000
0
VERTEX
8
38_114000
10
27.55200
20
55.75000
30
114.00000
0
VERTEX
8
38_114000
10
27.73000
20
56.18500
30
114.00000
0
VERTEX
8
38_114000
10
28.15100
20
56.62500
30
114.00000
0
VERTEX
8
38_114000
10
29.69300
20
57.92200
30
114.00000
0
VERTEX
8
38_114000
10
30.02900
20
58.46200
30
114.00000
0
VERTEX
8
38_114000
10
30.22200
20
59.27100
30
114.00000
0
VERTEX
8
38_114000
10
30.32000
20
59.47000
30
114.00000
0
VERTEX
8
38_114000
10
30.67800
20
60.52600
30
114.00000
0
VERTEX
8
38_114000
10
30.87900
20
60.81100
30
114.00000
0
VERTEX
8
38_114000
10
31.08700
20
61.05700
30
114.00000
0
VERTEX
8
38_114000
10
31.15200
20
61.14900
30
114.00000
0
VERTEX
8
38_114000
10
31.46500
20
61.80000
30
114.00000
0
VERTEX
8
38_114000
10
31.61000
20
62.90500
30
114.00000
0
VERTEX
8
38_114000
10
31.70600
20
63.55400
30
114.00000
0
VERTEX
8
38_114000
10
31.67900
20
64.07201
30
114.00000
0
VERTEX
8
38_114000
10
31.75900
20
65.15100
30
114.00000
0
VERTEX
8
38_114000
10
31.85900
20
67.66700
30
114.00000
0
VERTEX
8
38_114000
10
31.86700
20
68.22800
30
114.00000
0
VERTEX
8
38_114000
10
31.89200
20
68.37200
30
114.00000
0
VERTEX
8
38_114000
10
31.95400
20
69.01501
30
114.00000
0
VERTEX
8
38_114000
10
32.03100
20
70.33801
30
114.00000
0
VERTEX
8
38_114000
10
32.14400
20
71.20300
30
114.00000
0
VERTEX
8
38_114000
10
32.14000
20
72.08200
30
114.00000
0
VERTEX
8
38_114000
10
32.18200
20
73.82900
30
114.00000
0
VERTEX
8
38_114000
10
32.18200
20
74.67300
30
114.00000
0
VERTEX
8
38_114000
10
32.17600
20
74.73300
30
114.00000
0
VERTEX
8
38_114000
10
31.76300
20
76.59100
30
114.00000
0
VERTEX
8
38_114000
10
31.58100
20
77.30801
30
114.00000
0
VERTEX
8
38_114000
10
31.45700
20
77.74700
30
114.00000
0
VERTEX
8
38_114000
10
30.99900
20
78.89500
30
114.00000
0
VERTEX
8
38_114000
10
29.35100
20
82.30000
30
114.00000
0
VERTEX
8
38_114000
10
29.05700
20
83.04201
30
114.00000
0
VERTEX
8
38_114000
10
27.16600
20
87.21001
30
114.00000
0
VERTEX
8
38_114000
10
27.12800
20
87.28600
30
114.00000
0
VERTEX
8
38_114000
10
22.48500
20
88.06001
30
114.00000
0
VERTEX
8
38_114000
10
-53.39700
20
88.06001
30
114.00000
0
SEQEND
8
38_114000
0
POLYLINE
8
38_114000
62
5
0
VERTEX
8
38_114000
10
-56.17000
20
90.45801
30
114.00000
0
VERTEX
8
38_114000
10
-56.17000
20
89.88901
30
114.00000
0
VERTEX
8
38_114000
10
11.52500
20
89.88901
30
114.00000
0
VERTEX
8
38_114000
10
2.31400
20
91.42600
30
114.00000
0
VERTEX
8
38_114000
10
-56.17000
20
91.42600
30
114.00000
0
VERTEX
8
38_114000
10
-56.17000
20
90.45801
30
114.00000
0
SEQEND
8
38_114000
0
POLYLINE
8
38_114000
62
5
0
VERTEX
8
38_114000
10
18.58000
20
88.71101
30
114.00000
0
VERTEX
8
38_114000
10
11.57500
20
89.88100
30
114.00000
0
VERTEX
8
38_114000
10
-56.17000
20
89.88100
30
114.00000
0
VERTEX
8
38_114000
10
-56.17000
20
88.06300
30
114.00000
0
VERTEX
8
38_114000
10
22.46900
20
88.06300
30
114.00000
0
VERTEX
8
38_114000
10
18.58000
20
88.71101
30
114.00000
0
SEQEND
8
38_114000
0
ENDSEC
0
EOF
