<?xml version="1.0" encoding="UTF-8" standalone="no"?>
<svg
   xmlns:dc="http://purl.org/dc/elements/1.1/"
   xmlns:cc="http://creativecommons.org/ns#"
   xmlns:rdf="http://www.w3.org/1999/02/22-rdf-syntax-ns#"
   xmlns:svg="http://www.w3.org/2000/svg"
   xmlns="http://www.w3.org/2000/svg"
   xmlns:sodipodi="http://sodipodi.sourceforge.net/DTD/sodipodi-0.dtd"
   xmlns:inkscape="http://www.inkscape.org/namespaces/inkscape"
   width="62"
   height="62"
   viewBox="1 -63 62 62"
   version="1.1"
   id="svg2"
   inkscape:version="0.91 r13725"
   sodipodi:docname="l8x8a2-b.svg">
  <metadata
     id="metadata12">
    <rdf:RDF>
      <cc:Work
         rdf:about="">
        <dc:format>image/svg+xml</dc:format>
        <dc:type
           rdf:resource="http://purl.org/dc/dcmitype/StillImage" />
        <dc:title>OpenSCAD Model</dc:title>
      </cc:Work>
    </rdf:RDF>
  </metadata>
  <defs
     id="defs10" />
  <sodipodi:namedview
     pagecolor="#ffffff"
     bordercolor="#666666"
     borderopacity="1"
     objecttolerance="10"
     gridtolerance="10"
     guidetolerance="10"
     inkscape:pageopacity="0"
     inkscape:pageshadow="2"
     inkscape:window-width="1366"
     inkscape:window-height="705"
     id="namedview8"
     showgrid="false"
     inkscape:zoom="3.8064516"
     inkscape:cx="31"
     inkscape:cy="60.692972"
     inkscape:window-x="-8"
     inkscape:window-y="-8"
     inkscape:window-maximized="1"
     inkscape:current-layer="svg2" />
  <title
     id="title4">OpenSCAD Model</title>
  <path
     d="m 5.0043514,-57.454788 0.45836,-0.204 0.40591,-0.2949 0.33573,-0.3729 0.25086,-0.4345 0.15505,-0.4772 0.05244,-0.499 -0.05244,-0.499 -0.15505,-0.4772 -0.25086,-0.4345 -0.33573,-0.3728 -0.40591,-0.295 -0.45836,-0.204 -0.49079,-0.1043 -0.50172,0 -0.49078,0.1043 -0.45836,0.204 -0.40592,0.295 -0.33572,0.3728 -0.25087,0.4345 -0.15504,0.4772 -0.05245,0.499 0.05245,0.499 0.15504,0.4772 0.25087,0.4345 0.33572,0.3729 0.40592,0.2949 0.45836,0.204 0.49078,0.1044 0.50172,0 z m 7.9999596,0 0.4584,-0.204 0.4059,-0.2949 0.3357,-0.3729 0.2509,-0.4345 0.155,-0.4772 0.0525,-0.499 -0.0525,-0.499 -0.155,-0.4772 -0.2509,-0.4345 -0.3357,-0.3728 -0.4059,-0.295 -0.4584,-0.204 -0.4907,-0.1043 -0.5018,0 -0.4908,0.1043 -0.4583,0.204 -0.4059,0.295 -0.3358,0.3728 -0.25082,0.4345 -0.1550396,0.4772 -0.05245,0.499 0.05245,0.499 0.1550396,0.4772 0.25082,0.4345 0.3358,0.3729 0.4059,0.2949 0.4583,0.204 0.4908,0.1044 0.5018,0 z m 32,0 0.4584,-0.204 0.4059,-0.2949 0.3357,-0.3729 0.2509,-0.4345 0.155,-0.4772 0.0525,-0.499 -0.0525,-0.499 -0.155,-0.4772 -0.2509,-0.4345 -0.3357,-0.3728 -0.4059,-0.295 -0.4584,-0.204 -0.4907,-0.1043 -0.5018,0 -0.4908,0.1043 -0.4583,0.204 -0.4059,0.295 -0.3358,0.3728 -0.2508,0.4345 -0.1551,0.4772 -0.0524,0.499 0.0524,0.499 0.1551,0.4772 0.2508,0.4345 0.3358,0.3729 0.4059,0.2949 0.4583,0.204 0.4908,0.1044 0.5018,0 z m -8,0 0.4584,-0.204 0.4059,-0.2949 0.3357,-0.3729 0.2509,-0.4345 0.155,-0.4772 0.0525,-0.499 -0.0525,-0.499 -0.155,-0.4772 -0.2509,-0.4345 -0.3357,-0.3728 -0.4059,-0.295 -0.4584,-0.204 -0.4907,-0.1043 -0.5018,0 -0.4908,0.1043 -0.4583,0.204 -0.4059,0.295 -0.3358,0.3728 -0.2508,0.4345 -0.1551,0.4772 -0.0524,0.499 0.0524,0.499 0.1551,0.4772 0.2508,0.4345 0.3358,0.3729 0.4059,0.2949 0.4583,0.204 0.4908,0.1044 0.5018,0 z m -16,0 0.4584,-0.204 0.4059,-0.2949 0.3357,-0.3729 0.2509,-0.4345 0.155,-0.4772 0.0525,-0.499 -0.0525,-0.499 -0.155,-0.4772 -0.2509,-0.4345 -0.3357,-0.3728 -0.4059,-0.295 -0.4584,-0.204 -0.4907,-0.1043 -0.5018,0 -0.4908,0.1043 -0.4583,0.204 -0.4059,0.295 -0.3358,0.3728 -0.2508,0.4345 -0.1551,0.4772 -0.0524,0.499 0.0524,0.499 0.1551,0.4772 0.2508,0.4345 0.3358,0.3729 0.4059,0.2949 0.4583,0.204 0.4908,0.1044 0.5018,0 z m 8,0 0.4584,-0.204 0.4059,-0.2949 0.3357,-0.3729 0.2509,-0.4345 0.155,-0.4772 0.0525,-0.499 -0.0525,-0.499 -0.155,-0.4772 -0.2509,-0.4345 -0.3357,-0.3728 -0.4059,-0.295 -0.4584,-0.204 -0.4907,-0.1043 -0.5018,0 -0.4908,0.1043 -0.4583,0.204 -0.4059,0.295 -0.3358,0.3728 -0.2508,0.4345 -0.1551,0.4772 -0.0524,0.499 0.0524,0.499 0.1551,0.4772 0.2508,0.4345 0.3358,0.3729 0.4059,0.2949 0.4583,0.204 0.4908,0.1044 0.5018,0 z m 24,0 0.4584,-0.204 0.4059,-0.2949 0.3357,-0.3729 0.2509,-0.4345 0.155,-0.4772 0.0525,-0.499 -0.0525,-0.499 -0.155,-0.4772 -0.2509,-0.4345 -0.3357,-0.3728 -0.4059,-0.295 -0.4584,-0.204 -0.4907,-0.1043 -0.5018,0 -0.4908,0.1043 -0.4583,0.204 -0.4059,0.295 -0.3358,0.3728 -0.2508,0.4345 -0.1551,0.4772 -0.0524,0.499 0.0524,0.499 0.1551,0.4772 0.2508,0.4345 0.3358,0.3729 0.4059,0.2949 0.4583,0.204 0.4908,0.1044 0.5018,0 z m 8,0 0.4584,-0.204 0.4059,-0.2949 0.3357,-0.3729 0.2509,-0.4345 0.155,-0.4772 0.0525,-0.499 -0.0525,-0.499 -0.155,-0.4772 -0.2509,-0.4345 -0.3357,-0.3728 -0.4059,-0.295 -0.4584,-0.204 -0.4907,-0.1043 -0.5018,0 -0.4908,0.1043 -0.4583,0.204 -0.4059,0.295 -0.3358,0.3728 -0.2508,0.4345 -0.1551,0.4772 -0.0524,0.499 0.0524,0.499 0.1551,0.4772 0.2508,0.4345 0.3358,0.3729 0.4059,0.2949 0.4583,0.204 0.4908,0.1044 0.5018,0 z m -48,8 0.4584,-0.204 0.4059,-0.2949 0.3357,-0.3729 0.2509,-0.4345 0.155,-0.4772 0.0525,-0.499 -0.0525,-0.499 -0.155,-0.4772 -0.2509,-0.4345 -0.3357,-0.3728 -0.4059,-0.295 -0.4584,-0.204 -0.4907,-0.1043 -0.5018,0 -0.4908,0.1043 -0.4583,0.204 -0.4059,0.295 -0.3358,0.3728 -0.25082,0.4345 -0.1550396,0.4772 -0.05245,0.499 0.05245,0.499 0.1550396,0.4772 0.25082,0.4345 0.3358,0.3729 0.4059,0.2949 0.4583,0.204 0.4908,0.1044 0.5018,0 z m 32,0 0.4584,-0.204 0.4059,-0.2949 0.3357,-0.3729 0.2509,-0.4345 0.155,-0.4772 0.0525,-0.499 -0.0525,-0.499 -0.155,-0.4772 -0.2509,-0.4345 -0.3357,-0.3728 -0.4059,-0.295 -0.4584,-0.204 -0.4907,-0.1043 -0.5018,0 -0.4908,0.1043 -0.4583,0.204 -0.4059,0.295 -0.3358,0.3728 -0.2508,0.4345 -0.1551,0.4772 -0.0524,0.499 0.0524,0.499 0.1551,0.4772 0.2508,0.4345 0.3358,0.3729 0.4059,0.2949 0.4583,0.204 0.4908,0.1044 0.5018,0 z m 16,0 0.4584,-0.204 0.4059,-0.2949 0.3357,-0.3729 0.2509,-0.4345 0.155,-0.4772 0.0525,-0.499 -0.0525,-0.499 -0.155,-0.4772 -0.2509,-0.4345 -0.3357,-0.3728 -0.4059,-0.295 -0.4584,-0.204 -0.4907,-0.1043 -0.5018,0 -0.4908,0.1043 -0.4583,0.204 -0.4059,0.295 -0.3358,0.3728 -0.2508,0.4345 -0.1551,0.4772 -0.0524,0.499 0.0524,0.499 0.1551,0.4772 0.2508,0.4345 0.3358,0.3729 0.4059,0.2949 0.4583,0.204 0.4908,0.1044 0.5018,0 z m -55.9999596,0 0.45836,-0.204 0.40591,-0.2949 0.33573,-0.3729 0.25086,-0.4345 0.15505,-0.4772 0.05244,-0.499 -0.05244,-0.499 -0.15505,-0.4772 -0.25086,-0.4345 -0.33573,-0.3728 -0.40591,-0.295 -0.45836,-0.204 -0.49079,-0.1043 -0.50172,0 -0.49078,0.1043 -0.45836,0.204 -0.40592,0.295 -0.33572,0.3728 -0.25087,0.4345 -0.15504,0.4772 -0.05245,0.499 0.05245,0.499 0.15504,0.4772 0.25087,0.4345 0.33572,0.3729 0.40592,0.2949 0.45836,0.204 0.49078,0.1044 0.50172,0 z m 15.9999596,0 0.4584,-0.204 0.4059,-0.2949 0.3357,-0.3729 0.2509,-0.4345 0.155,-0.4772 0.0525,-0.499 -0.0525,-0.499 -0.155,-0.4772 -0.2509,-0.4345 -0.3357,-0.3728 -0.4059,-0.295 -0.4584,-0.204 -0.4907,-0.1043 -0.5018,0 -0.4908,0.1043 -0.4583,0.204 -0.4059,0.295 -0.3358,0.3728 -0.2508,0.4345 -0.1551,0.4772 -0.0524,0.499 0.0524,0.499 0.1551,0.4772 0.2508,0.4345 0.3358,0.3729 0.4059,0.2949 0.4583,0.204 0.4908,0.1044 0.5018,0 z m 8,0 0.4584,-0.204 0.4059,-0.2949 0.3357,-0.3729 0.2509,-0.4345 0.155,-0.4772 0.0525,-0.499 -0.0525,-0.499 -0.155,-0.4772 -0.2509,-0.4345 -0.3357,-0.3728 -0.4059,-0.295 -0.4584,-0.204 -0.4907,-0.1043 -0.5018,0 -0.4908,0.1043 -0.4583,0.204 -0.4059,0.295 -0.3358,0.3728 -0.2508,0.4345 -0.1551,0.4772 -0.0524,0.499 0.0524,0.499 0.1551,0.4772 0.2508,0.4345 0.3358,0.3729 0.4059,0.2949 0.4583,0.204 0.4908,0.1044 0.5018,0 z m 24,0 0.4584,-0.204 0.4059,-0.2949 0.3357,-0.3729 0.2509,-0.4345 0.155,-0.4772 0.0525,-0.499 -0.0525,-0.499 -0.155,-0.4772 -0.2509,-0.4345 -0.3357,-0.3728 -0.4059,-0.295 -0.4584,-0.204 -0.4907,-0.1043 -0.5018,0 -0.4908,0.1043 -0.4583,0.204 -0.4059,0.295 -0.3358,0.3728 -0.2508,0.4345 -0.1551,0.4772 -0.0524,0.499 0.0524,0.499 0.1551,0.4772 0.2508,0.4345 0.3358,0.3729 0.4059,0.2949 0.4583,0.204 0.4908,0.1044 0.5018,0 z m -16,0 0.4584,-0.204 0.4059,-0.2949 0.3357,-0.3729 0.2509,-0.4345 0.155,-0.4772 0.0525,-0.499 -0.0525,-0.499 -0.155,-0.4772 -0.2509,-0.4345 -0.3357,-0.3728 -0.4059,-0.295 -0.4584,-0.204 -0.4907,-0.1043 -0.5018,0 -0.4908,0.1043 -0.4583,0.204 -0.4059,0.295 -0.3358,0.3728 -0.2508,0.4345 -0.1551,0.4772 -0.0524,0.499 0.0524,0.499 0.1551,0.4772 0.2508,0.4345 0.3358,0.3729 0.4059,0.2949 0.4583,0.204 0.4908,0.1044 0.5018,0 z m 0,8 0.4584,-0.204 0.4059,-0.2949 0.3357,-0.3729 0.2509,-0.4345 0.155,-0.4772 0.0525,-0.499 -0.0525,-0.499 -0.155,-0.4772 -0.2509,-0.4345 -0.3357,-0.3728 -0.4059,-0.295 -0.4584,-0.204 -0.4907,-0.1043 -0.5018,0 -0.4908,0.1043 -0.4583,0.204 -0.4059,0.295 -0.3358,0.3728 -0.2508,0.4345 -0.1551,0.4772 -0.0524,0.499 0.0524,0.499 0.1551,0.4772 0.2508,0.4345 0.3358,0.3729 0.4059,0.2949 0.4583,0.204 0.4908,0.1044 0.5018,0 z m 24,0 0.4584,-0.204 0.4059,-0.2949 0.3357,-0.3729 0.2509,-0.4345 0.155,-0.4772 0.0525,-0.499 -0.0525,-0.499 -0.155,-0.4772 -0.2509,-0.4345 -0.3357,-0.3728 -0.4059,-0.295 -0.4584,-0.204 -0.4907,-0.1043 -0.5018,0 -0.4908,0.1043 -0.4583,0.204 -0.4059,0.295 -0.3358,0.3728 -0.2508,0.4345 -0.1551,0.4772 -0.0524,0.499 0.0524,0.499 0.1551,0.4772 0.2508,0.4345 0.3358,0.3729 0.4059,0.2949 0.4583,0.204 0.4908,0.1044 0.5018,0 z m -48,0 0.4584,-0.204 0.4059,-0.2949 0.3357,-0.3729 0.2509,-0.4345 0.155,-0.4772 0.0525,-0.499 -0.0525,-0.499 -0.155,-0.4772 -0.2509,-0.4345 -0.3357,-0.3728 -0.4059,-0.295 -0.4584,-0.204 -0.4907,-0.1043 -0.5018,0 -0.4908,0.1043 -0.4583,0.204 -0.4059,0.295 -0.3358,0.3728 -0.25082,0.4345 -0.1550396,0.4772 -0.05245,0.499 0.05245,0.499 0.1550396,0.4772 0.25082,0.4345 0.3358,0.3729 0.4059,0.2949 0.4583,0.204 0.4908,0.1044 0.5018,0 z m -7.9999596,0 0.45836,-0.204 0.40591,-0.2949 0.33573,-0.3729 0.25086,-0.4345 0.15505,-0.4772 0.05244,-0.499 -0.05244,-0.499 -0.15505,-0.4772 -0.25086,-0.4345 -0.33573,-0.3728 -0.40591,-0.295 -0.45836,-0.204 -0.49079,-0.1043 -0.50172,0 -0.49078,0.1043 -0.45836,0.204 -0.40592,0.295 -0.33572,0.3728 -0.25087,0.4345 -0.15504,0.4772 -0.05245,0.499 0.05245,0.499 0.15504,0.4772 0.25087,0.4345 0.33572,0.3729 0.40592,0.2949 0.45836,0.204 0.49078,0.1044 0.50172,0 z m 15.9999596,0 0.4584,-0.204 0.4059,-0.2949 0.3357,-0.3729 0.2509,-0.4345 0.155,-0.4772 0.0525,-0.499 -0.0525,-0.499 -0.155,-0.4772 -0.2509,-0.4345 -0.3357,-0.3728 -0.4059,-0.295 -0.4584,-0.204 -0.4907,-0.1043 -0.5018,0 -0.4908,0.1043 -0.4583,0.204 -0.4059,0.295 -0.3358,0.3728 -0.2508,0.4345 -0.1551,0.4772 -0.0524,0.499 0.0524,0.499 0.1551,0.4772 0.2508,0.4345 0.3358,0.3729 0.4059,0.2949 0.4583,0.204 0.4908,0.1044 0.5018,0 z m 32,0 0.4584,-0.204 0.4059,-0.2949 0.3357,-0.3729 0.2509,-0.4345 0.155,-0.4772 0.0525,-0.499 -0.0525,-0.499 -0.155,-0.4772 -0.2509,-0.4345 -0.3357,-0.3728 -0.4059,-0.295 -0.4584,-0.204 -0.4907,-0.1043 -0.5018,0 -0.4908,0.1043 -0.4583,0.204 -0.4059,0.295 -0.3358,0.3728 -0.2508,0.4345 -0.1551,0.4772 -0.0524,0.499 0.0524,0.499 0.1551,0.4772 0.2508,0.4345 0.3358,0.3729 0.4059,0.2949 0.4583,0.204 0.4908,0.1044 0.5018,0 z m -24,0 0.4584,-0.204 0.4059,-0.2949 0.3357,-0.3729 0.2509,-0.4345 0.155,-0.4772 0.0525,-0.499 -0.0525,-0.499 -0.155,-0.4772 -0.2509,-0.4345 -0.3357,-0.3728 -0.4059,-0.295 -0.4584,-0.204 -0.4907,-0.1043 -0.5018,0 -0.4908,0.1043 -0.4583,0.204 -0.4059,0.295 -0.3358,0.3728 -0.2508,0.4345 -0.1551,0.4772 -0.0524,0.499 0.0524,0.499 0.1551,0.4772 0.2508,0.4345 0.3358,0.3729 0.4059,0.2949 0.4583,0.204 0.4908,0.1044 0.5018,0 z m 16,0 0.4584,-0.204 0.4059,-0.2949 0.3357,-0.3729 0.2509,-0.4345 0.155,-0.4772 0.0525,-0.499 -0.0525,-0.499 -0.155,-0.4772 -0.2509,-0.4345 -0.3357,-0.3728 -0.4059,-0.295 -0.4584,-0.204 -0.4907,-0.1043 -0.5018,0 -0.4908,0.1043 -0.4583,0.204 -0.4059,0.295 -0.3358,0.3728 -0.2508,0.4345 -0.1551,0.4772 -0.0524,0.499 0.0524,0.499 0.1551,0.4772 0.2508,0.4345 0.3358,0.3729 0.4059,0.2949 0.4583,0.204 0.4908,0.1044 0.5018,0 z m -16,8 0.4584,-0.204 0.4059,-0.2949 0.3357,-0.3729 0.2509,-0.4345 0.155,-0.4772 0.0525,-0.499 -0.0525,-0.499 -0.155,-0.4772 -0.2509,-0.4345 -0.3357,-0.3728 -0.4059,-0.295 -0.4584,-0.204 -0.4907,-0.1043 -0.5018,0 -0.4908,0.1043 -0.4583,0.204 -0.4059,0.295 -0.3358,0.3728 -0.2508,0.4345 -0.1551,0.4772 -0.0524,0.499 0.0524,0.499 0.1551,0.4772 0.2508,0.4345 0.3358,0.3729 0.4059,0.2949 0.4583,0.204 0.4908,0.1044 0.5018,0 z m 16,0 0.4584,-0.204 0.4059,-0.2949 0.3357,-0.3729 0.2509,-0.4345 0.155,-0.4772 0.0525,-0.499 -0.0525,-0.499 -0.155,-0.4772 -0.2509,-0.4345 -0.3357,-0.3728 -0.4059,-0.295 -0.4584,-0.204 -0.4907,-0.1043 -0.5018,0 -0.4908,0.1043 -0.4583,0.204 -0.4059,0.295 -0.3358,0.3728 -0.2508,0.4345 -0.1551,0.4772 -0.0524,0.499 0.0524,0.499 0.1551,0.4772 0.2508,0.4345 0.3358,0.3729 0.4059,0.2949 0.4583,0.204 0.4908,0.1044 0.5018,0 z m -39.9999596,0 0.45836,-0.204 0.40591,-0.2949 0.33573,-0.3729 0.25086,-0.4345 0.15505,-0.4772 0.05244,-0.499 -0.05244,-0.499 -0.15505,-0.4772 -0.25086,-0.4345 -0.33573,-0.3728 -0.40591,-0.295 -0.45836,-0.204 -0.49079,-0.1043 -0.50172,0 -0.49078,0.1043 -0.45836,0.204 -0.40592,0.295 -0.33572,0.3728 -0.25087,0.4345 -0.15504,0.4772 -0.05245,0.499 0.05245,0.499 0.15504,0.4772 0.25087,0.4345 0.33572,0.3729 0.40592,0.2949 0.45836,0.204 0.49078,0.1044 0.50172,0 z m 55.9999596,0 0.4584,-0.204 0.4059,-0.2949 0.3357,-0.3729 0.2509,-0.4345 0.155,-0.4772 0.0525,-0.499 -0.0525,-0.499 -0.155,-0.4772 -0.2509,-0.4345 -0.3357,-0.3728 -0.4059,-0.295 -0.4584,-0.204 -0.4907,-0.1043 -0.5018,0 -0.4908,0.1043 -0.4583,0.204 -0.4059,0.295 -0.3358,0.3728 -0.2508,0.4345 -0.1551,0.4772 -0.0524,0.499 0.0524,0.499 0.1551,0.4772 0.2508,0.4345 0.3358,0.3729 0.4059,0.2949 0.4583,0.204 0.4908,0.1044 0.5018,0 z m -24,0 0.4584,-0.204 0.4059,-0.2949 0.3357,-0.3729 0.2509,-0.4345 0.155,-0.4772 0.0525,-0.499 -0.0525,-0.499 -0.155,-0.4772 -0.2509,-0.4345 -0.3357,-0.3728 -0.4059,-0.295 -0.4584,-0.204 -0.4907,-0.1043 -0.5018,0 -0.4908,0.1043 -0.4583,0.204 -0.4059,0.295 -0.3358,0.3728 -0.2508,0.4345 -0.1551,0.4772 -0.0524,0.499 0.0524,0.499 0.1551,0.4772 0.2508,0.4345 0.3358,0.3729 0.4059,0.2949 0.4583,0.204 0.4908,0.1044 0.5018,0 z m -24,0 0.4584,-0.204 0.4059,-0.2949 0.3357,-0.3729 0.2509,-0.4345 0.155,-0.4772 0.0525,-0.499 -0.0525,-0.499 -0.155,-0.4772 -0.2509,-0.4345 -0.3357,-0.3728 -0.4059,-0.295 -0.4584,-0.204 -0.4907,-0.1043 -0.5018,0 -0.4908,0.1043 -0.4583,0.204 -0.4059,0.295 -0.3358,0.3728 -0.25082,0.4345 -0.1550396,0.4772 -0.05245,0.499 0.05245,0.499 0.1550396,0.4772 0.25082,0.4345 0.3358,0.3729 0.4059,0.2949 0.4583,0.204 0.4908,0.1044 0.5018,0 z m 8,0 0.4584,-0.204 0.4059,-0.2949 0.3357,-0.3729 0.2509,-0.4345 0.155,-0.4772 0.0525,-0.499 -0.0525,-0.499 -0.155,-0.4772 -0.2509,-0.4345 -0.3357,-0.3728 -0.4059,-0.295 -0.4584,-0.204 -0.4907,-0.1043 -0.5018,0 -0.4908,0.1043 -0.4583,0.204 -0.4059,0.295 -0.3358,0.3728 -0.2508,0.4345 -0.1551,0.4772 -0.0524,0.499 0.0524,0.499 0.1551,0.4772 0.2508,0.4345 0.3358,0.3729 0.4059,0.2949 0.4583,0.204 0.4908,0.1044 0.5018,0 z m 32,0 0.4584,-0.204 0.4059,-0.2949 0.3357,-0.3729 0.2509,-0.4345 0.155,-0.4772 0.0525,-0.499 -0.0525,-0.499 -0.155,-0.4772 -0.2509,-0.4345 -0.3357,-0.3728 -0.4059,-0.295 -0.4584,-0.204 -0.4907,-0.1043 -0.5018,0 -0.4908,0.1043 -0.4583,0.204 -0.4059,0.295 -0.3358,0.3728 -0.2508,0.4345 -0.1551,0.4772 -0.0524,0.499 0.0524,0.499 0.1551,0.4772 0.2508,0.4345 0.3358,0.3729 0.4059,0.2949 0.4583,0.204 0.4908,0.1044 0.5018,0 z m -16,8 0.4584,-0.204 0.4059,-0.2949 0.3357,-0.3729 0.2509,-0.4345 0.155,-0.4772 0.0525,-0.499 -0.0525,-0.499 -0.155,-0.4772 -0.2509,-0.4345 -0.3357,-0.3728 -0.4059,-0.295 -0.4584,-0.204 -0.4907,-0.1043 -0.5018,0 -0.4908,0.1043 -0.4583,0.204 -0.4059,0.295 -0.3358,0.3728 -0.2508,0.4345 -0.1551,0.4772 -0.0524,0.499 0.0524,0.499 0.1551,0.4772 0.2508,0.4345 0.3358,0.3729 0.4059,0.2949 0.4583,0.204 0.4908,0.1044 0.5018,0 z m 16,0 0.4584,-0.204 0.4059,-0.2949 0.3357,-0.3729 0.2509,-0.4345 0.155,-0.4772 0.0525,-0.499 -0.0525,-0.499 -0.155,-0.4772 -0.2509,-0.4345 -0.3357,-0.3728 -0.4059,-0.295 -0.4584,-0.204 -0.4907,-0.1043 -0.5018,0 -0.4908,0.1043 -0.4583,0.204 -0.4059,0.295 -0.3358,0.3728 -0.2508,0.4345 -0.1551,0.4772 -0.0524,0.499 0.0524,0.499 0.1551,0.4772 0.2508,0.4345 0.3358,0.3729 0.4059,0.2949 0.4583,0.204 0.4908,0.1044 0.5018,0 z m 8,0 0.4584,-0.204 0.4059,-0.2949 0.3357,-0.3729 0.2509,-0.4345 0.155,-0.4772 0.0525,-0.499 -0.0525,-0.499 -0.155,-0.4772 -0.2509,-0.4345 -0.3357,-0.3728 -0.4059,-0.295 -0.4584,-0.204 -0.4907,-0.1043 -0.5018,0 -0.4908,0.1043 -0.4583,0.204 -0.4059,0.295 -0.3358,0.3728 -0.2508,0.4345 -0.1551,0.4772 -0.0524,0.499 0.0524,0.499 0.1551,0.4772 0.2508,0.4345 0.3358,0.3729 0.4059,0.2949 0.4583,0.204 0.4908,0.1044 0.5018,0 z m -32,0 0.4584,-0.204 0.4059,-0.2949 0.3357,-0.3729 0.2509,-0.4345 0.155,-0.4772 0.0525,-0.499 -0.0525,-0.499 -0.155,-0.4772 -0.2509,-0.4345 -0.3357,-0.3728 -0.4059,-0.295 -0.4584,-0.204 -0.4907,-0.1043 -0.5018,0 -0.4908,0.1043 -0.4583,0.204 -0.4059,0.295 -0.3358,0.3728 -0.2508,0.4345 -0.1551,0.4772 -0.0524,0.499 0.0524,0.499 0.1551,0.4772 0.2508,0.4345 0.3358,0.3729 0.4059,0.2949 0.4583,0.204 0.4908,0.1044 0.5018,0 z m -16,0 0.4584,-0.204 0.4059,-0.2949 0.3357,-0.3729 0.2509,-0.4345 0.155,-0.4772 0.0525,-0.499 -0.0525,-0.499 -0.155,-0.4772 -0.2509,-0.4345 -0.3357,-0.3728 -0.4059,-0.295 -0.4584,-0.204 -0.4907,-0.1043 -0.5018,0 -0.4908,0.1043 -0.4583,0.204 -0.4059,0.295 -0.3358,0.3728 -0.25082,0.4345 -0.1550396,0.4772 -0.05245,0.499 0.05245,0.499 0.1550396,0.4772 0.25082,0.4345 0.3358,0.3729 0.4059,0.2949 0.4583,0.204 0.4908,0.1044 0.5018,0 z m 8,0 0.4584,-0.204 0.4059,-0.2949 0.3357,-0.3729 0.2509,-0.4345 0.155,-0.4772 0.0525,-0.499 -0.0525,-0.499 -0.155,-0.4772 -0.2509,-0.4345 -0.3357,-0.3728 -0.4059,-0.295 -0.4584,-0.204 -0.4907,-0.1043 -0.5018,0 -0.4908,0.1043 -0.4583,0.204 -0.4059,0.295 -0.3358,0.3728 -0.2508,0.4345 -0.1551,0.4772 -0.0524,0.499 0.0524,0.499 0.1551,0.4772 0.2508,0.4345 0.3358,0.3729 0.4059,0.2949 0.4583,0.204 0.4908,0.1044 0.5018,0 z m -15.9999596,0 0.45836,-0.204 0.40591,-0.2949 0.33573,-0.3729 0.25086,-0.4345 0.15505,-0.4772 0.05244,-0.499 -0.05244,-0.499 -0.15505,-0.4772 -0.25086,-0.4345 -0.33573,-0.3728 -0.40591,-0.295 -0.45836,-0.204 -0.49079,-0.1043 -0.50172,0 -0.49078,0.1043 -0.45836,0.204 -0.40592,0.295 -0.33572,0.3728 -0.25087,0.4345 -0.15504,0.4772 -0.05245,0.499 0.05245,0.499 0.15504,0.4772 0.25087,0.4345 0.33572,0.3729 0.40592,0.2949 0.45836,0.204 0.49078,0.1044 0.50172,0 z m 39.9999596,0 0.4584,-0.204 0.4059,-0.2949 0.3357,-0.3729 0.2509,-0.4345 0.155,-0.4772 0.0525,-0.499 -0.0525,-0.499 -0.155,-0.4772 -0.2509,-0.4345 -0.3357,-0.3728 -0.4059,-0.295 -0.4584,-0.204 -0.4907,-0.1043 -0.5018,0 -0.4908,0.1043 -0.4583,0.204 -0.4059,0.295 -0.3358,0.3728 -0.2508,0.4345 -0.1551,0.4772 -0.0524,0.499 0.0524,0.499 0.1551,0.4772 0.2508,0.4345 0.3358,0.3729 0.4059,0.2949 0.4583,0.204 0.4908,0.1044 0.5018,0 z m -16,8 0.4584,-0.204 0.4059,-0.2949 0.3357,-0.3729 0.2509,-0.4345 0.155,-0.4772 0.0525,-0.499 -0.0525,-0.499 -0.155,-0.4772 -0.2509,-0.4345 -0.3357,-0.3728 -0.4059,-0.295 -0.4584,-0.204 -0.4907,-0.1043 -0.5018,0 -0.4908,0.1043 -0.4583,0.204 -0.4059,0.295 -0.3358,0.3728 -0.2508,0.4345 -0.1551,0.4772 -0.0524,0.499 0.0524,0.499 0.1551,0.4772 0.2508,0.4345 0.3358,0.3729 0.4059,0.2949 0.4583,0.204 0.4908,0.1044 0.5018,0 z m 8,0 0.4584,-0.204 0.4059,-0.2949 0.3357,-0.3729 0.2509,-0.4345 0.155,-0.4772 0.0525,-0.499 -0.0525,-0.499 -0.155,-0.4772 -0.2509,-0.4345 -0.3357,-0.3728 -0.4059,-0.295 -0.4584,-0.204 -0.4907,-0.1043 -0.5018,0 -0.4908,0.1043 -0.4583,0.204 -0.4059,0.295 -0.3358,0.3728 -0.2508,0.4345 -0.1551,0.4772 -0.0524,0.499 0.0524,0.499 0.1551,0.4772 0.2508,0.4345 0.3358,0.3729 0.4059,0.2949 0.4583,0.204 0.4908,0.1044 0.5018,0 z m 24,0 0.4584,-0.204 0.4059,-0.2949 0.3357,-0.3729 0.2509,-0.4345 0.155,-0.4772 0.0525,-0.499 -0.0525,-0.499 -0.155,-0.4772 -0.2509,-0.4345 -0.3357,-0.3728 -0.4059,-0.295 -0.4584,-0.204 -0.4907,-0.1043 -0.5018,0 -0.4908,0.1043 -0.4583,0.204 -0.4059,0.295 -0.3358,0.3728 -0.2508,0.4345 -0.1551,0.4772 -0.0524,0.499 0.0524,0.499 0.1551,0.4772 0.2508,0.4345 0.3358,0.3729 0.4059,0.2949 0.4583,0.204 0.4908,0.1044 0.5018,0 z m -40,0 0.4584,-0.204 0.4059,-0.2949 0.3357,-0.3729 0.2509,-0.4345 0.155,-0.4772 0.0525,-0.499 -0.0525,-0.499 -0.155,-0.4772 -0.2509,-0.4345 -0.3357,-0.3728 -0.4059,-0.295 -0.4584,-0.204 -0.4907,-0.1043 -0.5018,0 -0.4908,0.1043 -0.4583,0.204 -0.4059,0.295 -0.3358,0.3728 -0.2508,0.4345 -0.1551,0.4772 -0.0524,0.499 0.0524,0.499 0.1551,0.4772 0.2508,0.4345 0.3358,0.3729 0.4059,0.2949 0.4583,0.204 0.4908,0.1044 0.5018,0 z m -8,0 0.4584,-0.204 0.4059,-0.2949 0.3357,-0.3729 0.2509,-0.4345 0.155,-0.4772 0.0525,-0.499 -0.0525,-0.499 -0.155,-0.4772 -0.2509,-0.4345 -0.3357,-0.3728 -0.4059,-0.295 -0.4584,-0.204 -0.4907,-0.1043 -0.5018,0 -0.4908,0.1043 -0.4583,0.204 -0.4059,0.295 -0.3358,0.3728 -0.25082,0.4345 -0.1550396,0.4772 -0.05245,0.499 0.05245,0.499 0.1550396,0.4772 0.25082,0.4345 0.3358,0.3729 0.4059,0.2949 0.4583,0.204 0.4908,0.1044 0.5018,0 z m 40,0 0.4584,-0.204 0.4059,-0.2949 0.3357,-0.3729 0.2509,-0.4345 0.155,-0.4772 0.0525,-0.499 -0.0525,-0.499 -0.155,-0.4772 -0.2509,-0.4345 -0.3357,-0.3728 -0.4059,-0.295 -0.4584,-0.204 -0.4907,-0.1043 -0.5018,0 -0.4908,0.1043 -0.4583,0.204 -0.4059,0.295 -0.3358,0.3728 -0.2508,0.4345 -0.1551,0.4772 -0.0524,0.499 0.0524,0.499 0.1551,0.4772 0.2508,0.4345 0.3358,0.3729 0.4059,0.2949 0.4583,0.204 0.4908,0.1044 0.5018,0 z m -47.9999596,0 0.45836,-0.204 0.40591,-0.2949 0.33573,-0.3729 0.25086,-0.4345 0.15505,-0.4772 0.05244,-0.499 -0.05244,-0.499 -0.15505,-0.4772 -0.25086,-0.4345 -0.33573,-0.3728 -0.40591,-0.295 -0.45836,-0.204 -0.49079,-0.1043 -0.50172,0 -0.49078,0.1043 -0.45836,0.204 -0.40592,0.295 -0.33572,0.3728 -0.25087,0.4345 -0.15504,0.4772 -0.05245,0.499 0.05245,0.499 0.15504,0.4772 0.25087,0.4345 0.33572,0.3729 0.40592,0.2949 0.45836,0.204 0.49078,0.1044 0.50172,0 z m 39.9999596,0 0.4584,-0.204 0.4059,-0.2949 0.3357,-0.3729 0.2509,-0.4345 0.155,-0.4772 0.0525,-0.499 -0.0525,-0.499 -0.155,-0.4772 -0.2509,-0.4345 -0.3357,-0.3728 -0.4059,-0.295 -0.4584,-0.204 -0.4907,-0.1043 -0.5018,0 -0.4908,0.1043 -0.4583,0.204 -0.4059,0.295 -0.3358,0.3728 -0.2508,0.4345 -0.1551,0.4772 -0.0524,0.499 0.0524,0.499 0.1551,0.4772 0.2508,0.4345 0.3358,0.3729 0.4059,0.2949 0.4583,0.204 0.4908,0.1044 0.5018,0 z m -24,8.00005 0.4584,-0.20409 0.4059,-0.29486 0.3357,-0.3729 0.2509,-0.4345 0.155,-0.4772 0.0525,-0.499 -0.0525,-0.499 -0.155,-0.4772 -0.2509,-0.4345 -0.3357,-0.3728 -0.4059,-0.295 -0.4584,-0.204 -0.4907,-0.1043 -0.5018,0 -0.4908,0.1043 -0.4583,0.204 -0.4059,0.295 -0.3358,0.3728 -0.2508,0.4345 -0.1551,0.4772 -0.0524,0.499 0.0524,0.499 0.1551,0.4772 0.2508,0.4345 0.3358,0.3729 0.4059,0.29486 0.4583,0.20409 0.4908,0.10431 0.5018,0 z m -8,0 0.4584,-0.20409 0.4059,-0.29486 0.3357,-0.3729 0.2509,-0.4345 0.155,-0.4772 0.0525,-0.499 -0.0525,-0.499 -0.155,-0.4772 -0.2509,-0.4345 -0.3357,-0.3728 -0.4059,-0.295 -0.4584,-0.204 -0.4907,-0.1043 -0.5018,0 -0.4908,0.1043 -0.4583,0.204 -0.4059,0.295 -0.3358,0.3728 -0.25082,0.4345 -0.1550396,0.4772 -0.05245,0.499 0.05245,0.499 0.1550396,0.4772 0.25082,0.4345 0.3358,0.3729 0.4059,0.29486 0.4583,0.20409 0.4908,0.10431 0.5018,0 z m 24,0 0.4584,-0.20409 0.4059,-0.29486 0.3357,-0.3729 0.2509,-0.4345 0.155,-0.4772 0.0525,-0.499 -0.0525,-0.499 -0.155,-0.4772 -0.2509,-0.4345 -0.3357,-0.3728 -0.4059,-0.295 -0.4584,-0.204 -0.4907,-0.1043 -0.5018,0 -0.4908,0.1043 -0.4583,0.204 -0.4059,0.295 -0.3358,0.3728 -0.2508,0.4345 -0.1551,0.4772 -0.0524,0.499 0.0524,0.499 0.1551,0.4772 0.2508,0.4345 0.3358,0.3729 0.4059,0.29486 0.4583,0.20409 0.4908,0.10431 0.5018,0 z m -8,0 0.4584,-0.20409 0.4059,-0.29486 0.3357,-0.3729 0.2509,-0.4345 0.155,-0.4772 0.0525,-0.499 -0.0525,-0.499 -0.155,-0.4772 -0.2509,-0.4345 -0.3357,-0.3728 -0.4059,-0.295 -0.4584,-0.204 -0.4907,-0.1043 -0.5018,0 -0.4908,0.1043 -0.4583,0.204 -0.4059,0.295 -0.3358,0.3728 -0.2508,0.4345 -0.1551,0.4772 -0.0524,0.499 0.0524,0.499 0.1551,0.4772 0.2508,0.4345 0.3358,0.3729 0.4059,0.29486 0.4583,0.20409 0.4908,0.10431 0.5018,0 z m -23.9999596,0 0.45836,-0.20409 0.40591,-0.29486 0.33573,-0.3729 0.25086,-0.4345 0.15505,-0.4772 0.05244,-0.499 -0.05244,-0.499 -0.15505,-0.4772 -0.25086,-0.4345 -0.33573,-0.3728 -0.40591,-0.295 -0.45836,-0.204 -0.49079,-0.1043 -0.50172,0 -0.49078,0.1043 -0.45836,0.204 -0.40592,0.295 -0.33572,0.3728 -0.25087,0.4345 -0.15504,0.4772 -0.05245,0.499 0.05245,0.499 0.15504,0.4772 0.25087,0.4345 0.33572,0.3729 0.40592,0.29486 0.45836,0.20409 0.49078,0.10431 0.50172,0 z m 47.9999596,0 0.4584,-0.20409 0.4059,-0.29486 0.3357,-0.3729 0.2509,-0.4345 0.155,-0.4772 0.0525,-0.499 -0.0525,-0.499 -0.155,-0.4772 -0.2509,-0.4345 -0.3357,-0.3728 -0.4059,-0.295 -0.4584,-0.204 -0.4907,-0.1043 -0.5018,0 -0.4908,0.1043 -0.4583,0.204 -0.4059,0.295 -0.3358,0.3728 -0.2508,0.4345 -0.1551,0.4772 -0.0524,0.499 0.0524,0.499 0.1551,0.4772 0.2508,0.4345 0.3358,0.3729 0.4059,0.29486 0.4583,0.20409 0.4908,0.10431 0.5018,0 z m 8,0 0.4584,-0.20409 0.4059,-0.29486 0.3357,-0.3729 0.2509,-0.4345 0.155,-0.4772 0.0525,-0.499 -0.0525,-0.499 -0.155,-0.4772 -0.2509,-0.4345 -0.3357,-0.3728 -0.4059,-0.295 -0.4584,-0.204 -0.4907,-0.1043 -0.5018,0 -0.4908,0.1043 -0.4583,0.204 -0.4059,0.295 -0.3358,0.3728 -0.2508,0.4345 -0.1551,0.4772 -0.0524,0.499 0.0524,0.499 0.1551,0.4772 0.2508,0.4345 0.3358,0.3729 0.4059,0.29486 0.4583,0.20409 0.4908,0.10431 0.5018,0 z m -16,0 0.4584,-0.20409 0.4059,-0.29486 0.3357,-0.3729 0.2509,-0.4345 0.155,-0.4772 0.0525,-0.499 -0.0525,-0.499 -0.155,-0.4772 -0.2509,-0.4345 -0.3357,-0.3728 -0.4059,-0.295 -0.4584,-0.204 -0.4907,-0.1043 -0.5018,0 -0.4908,0.1043 -0.4583,0.204 -0.4059,0.295 -0.3358,0.3728 -0.2508,0.4345 -0.1551,0.4772 -0.0524,0.499 0.0524,0.499 0.1551,0.4772 0.2508,0.4345 0.3358,0.3729 0.4059,0.29486 0.4583,0.20409 0.4908,0.10431 0.5018,0 z m 8,8 0.4584,-0.20407 0.4059,-0.29493 0.3357,-0.37286 0.2509,-0.43451 0.155,-0.47719 0.0525,-0.49899 -0.0525,-0.49898 -0.155,-0.47719 -0.2509,-0.43451 -0.3357,-0.37286 -0.4059,-0.29492 -0.4584,-0.20407 -0.4907,-0.10431 -0.5018,0 -0.4908,0.10431 -0.4583,0.20407 -0.4059,0.29492 -0.3358,0.37286 -0.2508,0.43451 -0.1551,0.47719 -0.0524,0.49898 0.0524,0.49899 0.1551,0.47719 0.2508,0.43451 0.3358,0.37286 0.4059,0.29493 0.4583,0.20407 0.4908,0.10431 0.5018,0 z m -32,0 0.4584,-0.20407 0.4059,-0.29493 0.3357,-0.37286 0.2509,-0.43451 0.155,-0.47719 0.0525,-0.49899 -0.0525,-0.49898 -0.155,-0.47719 -0.2509,-0.43451 -0.3357,-0.37286 -0.4059,-0.29492 -0.4584,-0.20407 -0.4907,-0.10431 -0.5018,0 -0.4908,0.10431 -0.4583,0.20407 -0.4059,0.29492 -0.3358,0.37286 -0.2508,0.43451 -0.1551,0.47719 -0.0524,0.49898 0.0524,0.49899 0.1551,0.47719 0.2508,0.43451 0.3358,0.37286 0.4059,0.29493 0.4583,0.20407 0.4908,0.10431 0.5018,0 z m 40,0 0.4584,-0.20407 0.4059,-0.29493 0.3357,-0.37286 0.2509,-0.43451 0.155,-0.47719 0.0525,-0.49899 -0.0525,-0.49898 -0.155,-0.47719 -0.2509,-0.43451 -0.3357,-0.37286 -0.4059,-0.29492 -0.4584,-0.20407 -0.4907,-0.10431 -0.5018,0 -0.4908,0.10431 -0.4583,0.20407 -0.4059,0.29492 -0.3358,0.37286 -0.2508,0.43451 -0.1551,0.47719 -0.0524,0.49898 0.0524,0.49899 0.1551,0.47719 0.2508,0.43451 0.3358,0.37286 0.4059,0.29493 0.4583,0.20407 0.4908,0.10431 0.5018,0 z m -48,0 0.4584,-0.20407 0.4059,-0.29493 0.3357,-0.37286 0.2509,-0.43451 0.155,-0.47719 0.0525,-0.49899 -0.0525,-0.49898 -0.155,-0.47719 -0.2509,-0.43451 -0.3357,-0.37286 -0.4059,-0.29492 -0.4584,-0.20407 -0.4907,-0.10431 -0.5018,0 -0.4908,0.10431 -0.4583,0.20407 -0.4059,0.29492 -0.3358,0.37286 -0.25082,0.43451 -0.1550396,0.47719 -0.05245,0.49898 0.05245,0.49899 0.1550396,0.47719 0.25082,0.43451 0.3358,0.37286 0.4059,0.29493 0.4583,0.20407 0.4908,0.10431 0.5018,0 z m 24,0 0.4584,-0.20407 0.4059,-0.29493 0.3357,-0.37286 0.2509,-0.43451 0.155,-0.47719 0.0525,-0.49899 -0.0525,-0.49898 -0.155,-0.47719 -0.2509,-0.43451 -0.3357,-0.37286 -0.4059,-0.29492 -0.4584,-0.20407 -0.4907,-0.10431 -0.5018,0 -0.4908,0.10431 -0.4583,0.20407 -0.4059,0.29492 -0.3358,0.37286 -0.2508,0.43451 -0.1551,0.47719 -0.0524,0.49898 0.0524,0.49899 0.1551,0.47719 0.2508,0.43451 0.3358,0.37286 0.4059,0.29493 0.4583,0.20407 0.4908,0.10431 0.5018,0 z m -31.9999596,0 0.45836,-0.20407 0.40591,-0.29493 0.33573,-0.37286 0.25086,-0.43451 0.15505,-0.47719 0.05244,-0.49899 -0.05244,-0.49898 -0.15505,-0.47719 -0.25086,-0.43451 -0.33573,-0.37286 -0.40591,-0.29492 -0.45836,-0.20407 -0.49079,-0.10431 -0.50172,0 -0.49078,0.10431 -0.45836,0.20407 -0.40592,0.29492 -0.33572,0.37286 -0.25087,0.43451 -0.15504,0.47719 -0.05245,0.49898 0.05245,0.49899 0.15504,0.47719 0.25087,0.43451 0.33572,0.37286 0.40592,0.29493 0.45836,0.20407 0.49078,0.10431 0.50172,0 z m 23.9999596,0 0.4584,-0.20407 0.4059,-0.29493 0.3357,-0.37286 0.2509,-0.43451 0.155,-0.47719 0.0525,-0.49899 -0.0525,-0.49898 -0.155,-0.47719 -0.2509,-0.43451 -0.3357,-0.37286 -0.4059,-0.29492 -0.4584,-0.20407 -0.4907,-0.10431 -0.5018,0 -0.4908,0.10431 -0.4583,0.20407 -0.4059,0.29492 -0.3358,0.37286 -0.2508,0.43451 -0.1551,0.47719 -0.0524,0.49898 0.0524,0.49899 0.1551,0.47719 0.2508,0.43451 0.3358,0.37286 0.4059,0.29493 0.4583,0.20407 0.4908,0.10431 0.5018,0 z m 16,0 0.4584,-0.20407 0.4059,-0.29493 0.3357,-0.37286 0.2509,-0.43451 0.155,-0.47719 0.0525,-0.49899 -0.0525,-0.49898 -0.155,-0.47719 -0.2509,-0.43451 -0.3357,-0.37286 -0.4059,-0.29492 -0.4584,-0.20407 -0.4907,-0.10431 -0.5018,0 -0.4908,0.10431 -0.4583,0.20407 -0.4059,0.29492 -0.3358,0.37286 -0.2508,0.43451 -0.1551,0.47719 -0.0524,0.49898 0.0524,0.49899 0.1551,0.47719 0.2508,0.43451 0.3358,0.37286 0.4059,0.29493 0.4583,0.20407 0.4908,0.10431 0.5018,0 z"
     id="path6"
     inkscape:connector-curvature="0"
     style="fill:#000000;fill-opacity:1;stroke:#898589;stroke-width:0.5;stroke-linejoin:round;stroke-opacity:1" />
</svg>
