<?xml version="1.0" standalone="no"?>
<!DOCTYPE svg PUBLIC "-//W3C//DTD SVG 1.1//EN" "http://www.w3.org/Graphics/SVG/1.1/DTD/svg11.dtd">
<svg width="62" height="62" viewBox="1 -63 62 62" xmlns="http://www.w3.org/2000/svg" version="1.1">
<title>OpenSCAD Model</title>
<path d="
M 4.74164,-57.7175 L 5.2,-57.9215 L 5.60591,-58.2164 L 5.94164,-58.5893 L 6.1925,-59.0238 L 6.34755,-59.501
 L 6.39999,-60 L 6.34755,-60.499 L 6.1925,-60.9762 L 5.94164,-61.4107 L 5.60591,-61.7835 L 5.2,-62.0785
 L 4.74164,-62.2825 L 4.25085,-62.3868 L 3.74913,-62.3868 L 3.25835,-62.2825 L 2.79999,-62.0785 L 2.39407,-61.7835
 L 2.05835,-61.4107 L 1.80748,-60.9762 L 1.65244,-60.499 L 1.59999,-60 L 1.65244,-59.501 L 1.80748,-59.0238
 L 2.05835,-58.5893 L 2.39407,-58.2164 L 2.79999,-57.9215 L 3.25835,-57.7175 L 3.74913,-57.6131 L 4.25085,-57.6131
 z
M 12.7416,-57.7175 L 13.2,-57.9215 L 13.6059,-58.2164 L 13.9416,-58.5893 L 14.1925,-59.0238 L 14.3475,-59.501
 L 14.4,-60 L 14.3475,-60.499 L 14.1925,-60.9762 L 13.9416,-61.4107 L 13.6059,-61.7835 L 13.2,-62.0785
 L 12.7416,-62.2825 L 12.2509,-62.3868 L 11.7491,-62.3868 L 11.2583,-62.2825 L 10.8,-62.0785 L 10.3941,-61.7835
 L 10.0583,-61.4107 L 9.80748,-60.9762 L 9.65244,-60.499 L 9.59999,-60 L 9.65244,-59.501 L 9.80748,-59.0238
 L 10.0583,-58.5893 L 10.3941,-58.2164 L 10.8,-57.9215 L 11.2583,-57.7175 L 11.7491,-57.6131 L 12.2509,-57.6131
 z
M 44.7416,-57.7175 L 45.2,-57.9215 L 45.6059,-58.2164 L 45.9416,-58.5893 L 46.1925,-59.0238 L 46.3475,-59.501
 L 46.4,-60 L 46.3475,-60.499 L 46.1925,-60.9762 L 45.9416,-61.4107 L 45.6059,-61.7835 L 45.2,-62.0785
 L 44.7416,-62.2825 L 44.2509,-62.3868 L 43.7491,-62.3868 L 43.2583,-62.2825 L 42.8,-62.0785 L 42.3941,-61.7835
 L 42.0583,-61.4107 L 41.8075,-60.9762 L 41.6524,-60.499 L 41.6,-60 L 41.6524,-59.501 L 41.8075,-59.0238
 L 42.0583,-58.5893 L 42.3941,-58.2164 L 42.8,-57.9215 L 43.2583,-57.7175 L 43.7491,-57.6131 L 44.2509,-57.6131
 z
M 36.7416,-57.7175 L 37.2,-57.9215 L 37.6059,-58.2164 L 37.9416,-58.5893 L 38.1925,-59.0238 L 38.3475,-59.501
 L 38.4,-60 L 38.3475,-60.499 L 38.1925,-60.9762 L 37.9416,-61.4107 L 37.6059,-61.7835 L 37.2,-62.0785
 L 36.7416,-62.2825 L 36.2509,-62.3868 L 35.7491,-62.3868 L 35.2583,-62.2825 L 34.8,-62.0785 L 34.3941,-61.7835
 L 34.0583,-61.4107 L 33.8075,-60.9762 L 33.6524,-60.499 L 33.6,-60 L 33.6524,-59.501 L 33.8075,-59.0238
 L 34.0583,-58.5893 L 34.3941,-58.2164 L 34.8,-57.9215 L 35.2583,-57.7175 L 35.7491,-57.6131 L 36.2509,-57.6131
 z
M 20.7416,-57.7175 L 21.2,-57.9215 L 21.6059,-58.2164 L 21.9416,-58.5893 L 22.1925,-59.0238 L 22.3475,-59.501
 L 22.4,-60 L 22.3475,-60.499 L 22.1925,-60.9762 L 21.9416,-61.4107 L 21.6059,-61.7835 L 21.2,-62.0785
 L 20.7416,-62.2825 L 20.2509,-62.3868 L 19.7491,-62.3868 L 19.2583,-62.2825 L 18.8,-62.0785 L 18.3941,-61.7835
 L 18.0583,-61.4107 L 17.8075,-60.9762 L 17.6524,-60.499 L 17.6,-60 L 17.6524,-59.501 L 17.8075,-59.0238
 L 18.0583,-58.5893 L 18.3941,-58.2164 L 18.8,-57.9215 L 19.2583,-57.7175 L 19.7491,-57.6131 L 20.2509,-57.6131
 z
M 28.7416,-57.7175 L 29.2,-57.9215 L 29.6059,-58.2164 L 29.9416,-58.5893 L 30.1925,-59.0238 L 30.3475,-59.501
 L 30.4,-60 L 30.3475,-60.499 L 30.1925,-60.9762 L 29.9416,-61.4107 L 29.6059,-61.7835 L 29.2,-62.0785
 L 28.7416,-62.2825 L 28.2509,-62.3868 L 27.7491,-62.3868 L 27.2583,-62.2825 L 26.8,-62.0785 L 26.3941,-61.7835
 L 26.0583,-61.4107 L 25.8075,-60.9762 L 25.6524,-60.499 L 25.6,-60 L 25.6524,-59.501 L 25.8075,-59.0238
 L 26.0583,-58.5893 L 26.3941,-58.2164 L 26.8,-57.9215 L 27.2583,-57.7175 L 27.7491,-57.6131 L 28.2509,-57.6131
 z
M 52.7416,-57.7175 L 53.2,-57.9215 L 53.6059,-58.2164 L 53.9416,-58.5893 L 54.1925,-59.0238 L 54.3475,-59.501
 L 54.4,-60 L 54.3475,-60.499 L 54.1925,-60.9762 L 53.9416,-61.4107 L 53.6059,-61.7835 L 53.2,-62.0785
 L 52.7416,-62.2825 L 52.2509,-62.3868 L 51.7491,-62.3868 L 51.2583,-62.2825 L 50.8,-62.0785 L 50.3941,-61.7835
 L 50.0583,-61.4107 L 49.8075,-60.9762 L 49.6524,-60.499 L 49.6,-60 L 49.6524,-59.501 L 49.8075,-59.0238
 L 50.0583,-58.5893 L 50.3941,-58.2164 L 50.8,-57.9215 L 51.2583,-57.7175 L 51.7491,-57.6131 L 52.2509,-57.6131
 z
M 60.7416,-57.7175 L 61.2,-57.9215 L 61.6059,-58.2164 L 61.9416,-58.5893 L 62.1925,-59.0238 L 62.3475,-59.501
 L 62.4,-60 L 62.3475,-60.499 L 62.1925,-60.9762 L 61.9416,-61.4107 L 61.6059,-61.7835 L 61.2,-62.0785
 L 60.7416,-62.2825 L 60.2509,-62.3868 L 59.7491,-62.3868 L 59.2583,-62.2825 L 58.8,-62.0785 L 58.3941,-61.7835
 L 58.0583,-61.4107 L 57.8075,-60.9762 L 57.6524,-60.499 L 57.6,-60 L 57.6524,-59.501 L 57.8075,-59.0238
 L 58.0583,-58.5893 L 58.3941,-58.2164 L 58.8,-57.9215 L 59.2583,-57.7175 L 59.7491,-57.6131 L 60.2509,-57.6131
 z
M 12.7416,-49.7175 L 13.2,-49.9215 L 13.6059,-50.2164 L 13.9416,-50.5893 L 14.1925,-51.0238 L 14.3475,-51.501
 L 14.4,-52 L 14.3475,-52.499 L 14.1925,-52.9762 L 13.9416,-53.4107 L 13.6059,-53.7835 L 13.2,-54.0785
 L 12.7416,-54.2825 L 12.2509,-54.3868 L 11.7491,-54.3868 L 11.2583,-54.2825 L 10.8,-54.0785 L 10.3941,-53.7835
 L 10.0583,-53.4107 L 9.80748,-52.9762 L 9.65244,-52.499 L 9.59999,-52 L 9.65244,-51.501 L 9.80748,-51.0238
 L 10.0583,-50.5893 L 10.3941,-50.2164 L 10.8,-49.9215 L 11.2583,-49.7175 L 11.7491,-49.6131 L 12.2509,-49.6131
 z
M 44.7416,-49.7175 L 45.2,-49.9215 L 45.6059,-50.2164 L 45.9416,-50.5893 L 46.1925,-51.0238 L 46.3475,-51.501
 L 46.4,-52 L 46.3475,-52.499 L 46.1925,-52.9762 L 45.9416,-53.4107 L 45.6059,-53.7835 L 45.2,-54.0785
 L 44.7416,-54.2825 L 44.2509,-54.3868 L 43.7491,-54.3868 L 43.2583,-54.2825 L 42.8,-54.0785 L 42.3941,-53.7835
 L 42.0583,-53.4107 L 41.8075,-52.9762 L 41.6524,-52.499 L 41.6,-52 L 41.6524,-51.501 L 41.8075,-51.0238
 L 42.0583,-50.5893 L 42.3941,-50.2164 L 42.8,-49.9215 L 43.2583,-49.7175 L 43.7491,-49.6131 L 44.2509,-49.6131
 z
M 60.7416,-49.7175 L 61.2,-49.9215 L 61.6059,-50.2164 L 61.9416,-50.5893 L 62.1925,-51.0238 L 62.3475,-51.501
 L 62.4,-52 L 62.3475,-52.499 L 62.1925,-52.9762 L 61.9416,-53.4107 L 61.6059,-53.7835 L 61.2,-54.0785
 L 60.7416,-54.2825 L 60.2509,-54.3868 L 59.7491,-54.3868 L 59.2583,-54.2825 L 58.8,-54.0785 L 58.3941,-53.7835
 L 58.0583,-53.4107 L 57.8075,-52.9762 L 57.6524,-52.499 L 57.6,-52 L 57.6524,-51.501 L 57.8075,-51.0238
 L 58.0583,-50.5893 L 58.3941,-50.2164 L 58.8,-49.9215 L 59.2583,-49.7175 L 59.7491,-49.6131 L 60.2509,-49.6131
 z
M 4.74164,-49.7175 L 5.2,-49.9215 L 5.60591,-50.2164 L 5.94164,-50.5893 L 6.1925,-51.0238 L 6.34755,-51.501
 L 6.39999,-52 L 6.34755,-52.499 L 6.1925,-52.9762 L 5.94164,-53.4107 L 5.60591,-53.7835 L 5.2,-54.0785
 L 4.74164,-54.2825 L 4.25085,-54.3868 L 3.74913,-54.3868 L 3.25835,-54.2825 L 2.79999,-54.0785 L 2.39407,-53.7835
 L 2.05835,-53.4107 L 1.80748,-52.9762 L 1.65244,-52.499 L 1.59999,-52 L 1.65244,-51.501 L 1.80748,-51.0238
 L 2.05835,-50.5893 L 2.39407,-50.2164 L 2.79999,-49.9215 L 3.25835,-49.7175 L 3.74913,-49.6131 L 4.25085,-49.6131
 z
M 20.7416,-49.7175 L 21.2,-49.9215 L 21.6059,-50.2164 L 21.9416,-50.5893 L 22.1925,-51.0238 L 22.3475,-51.501
 L 22.4,-52 L 22.3475,-52.499 L 22.1925,-52.9762 L 21.9416,-53.4107 L 21.6059,-53.7835 L 21.2,-54.0785
 L 20.7416,-54.2825 L 20.2509,-54.3868 L 19.7491,-54.3868 L 19.2583,-54.2825 L 18.8,-54.0785 L 18.3941,-53.7835
 L 18.0583,-53.4107 L 17.8075,-52.9762 L 17.6524,-52.499 L 17.6,-52 L 17.6524,-51.501 L 17.8075,-51.0238
 L 18.0583,-50.5893 L 18.3941,-50.2164 L 18.8,-49.9215 L 19.2583,-49.7175 L 19.7491,-49.6131 L 20.2509,-49.6131
 z
M 28.7416,-49.7175 L 29.2,-49.9215 L 29.6059,-50.2164 L 29.9416,-50.5893 L 30.1925,-51.0238 L 30.3475,-51.501
 L 30.4,-52 L 30.3475,-52.499 L 30.1925,-52.9762 L 29.9416,-53.4107 L 29.6059,-53.7835 L 29.2,-54.0785
 L 28.7416,-54.2825 L 28.2509,-54.3868 L 27.7491,-54.3868 L 27.2583,-54.2825 L 26.8,-54.0785 L 26.3941,-53.7835
 L 26.0583,-53.4107 L 25.8075,-52.9762 L 25.6524,-52.499 L 25.6,-52 L 25.6524,-51.501 L 25.8075,-51.0238
 L 26.0583,-50.5893 L 26.3941,-50.2164 L 26.8,-49.9215 L 27.2583,-49.7175 L 27.7491,-49.6131 L 28.2509,-49.6131
 z
M 52.7416,-49.7175 L 53.2,-49.9215 L 53.6059,-50.2164 L 53.9416,-50.5893 L 54.1925,-51.0238 L 54.3475,-51.501
 L 54.4,-52 L 54.3475,-52.499 L 54.1925,-52.9762 L 53.9416,-53.4107 L 53.6059,-53.7835 L 53.2,-54.0785
 L 52.7416,-54.2825 L 52.2509,-54.3868 L 51.7491,-54.3868 L 51.2583,-54.2825 L 50.8,-54.0785 L 50.3941,-53.7835
 L 50.0583,-53.4107 L 49.8075,-52.9762 L 49.6524,-52.499 L 49.6,-52 L 49.6524,-51.501 L 49.8075,-51.0238
 L 50.0583,-50.5893 L 50.3941,-50.2164 L 50.8,-49.9215 L 51.2583,-49.7175 L 51.7491,-49.6131 L 52.2509,-49.6131
 z
M 36.7416,-49.7175 L 37.2,-49.9215 L 37.6059,-50.2164 L 37.9416,-50.5893 L 38.1925,-51.0238 L 38.3475,-51.501
 L 38.4,-52 L 38.3475,-52.499 L 38.1925,-52.9762 L 37.9416,-53.4107 L 37.6059,-53.7835 L 37.2,-54.0785
 L 36.7416,-54.2825 L 36.2509,-54.3868 L 35.7491,-54.3868 L 35.2583,-54.2825 L 34.8,-54.0785 L 34.3941,-53.7835
 L 34.0583,-53.4107 L 33.8075,-52.9762 L 33.6524,-52.499 L 33.6,-52 L 33.6524,-51.501 L 33.8075,-51.0238
 L 34.0583,-50.5893 L 34.3941,-50.2164 L 34.8,-49.9215 L 35.2583,-49.7175 L 35.7491,-49.6131 L 36.2509,-49.6131
 z
M 36.7416,-41.7175 L 37.2,-41.9215 L 37.6059,-42.2164 L 37.9416,-42.5893 L 38.1925,-43.0238 L 38.3475,-43.501
 L 38.4,-44 L 38.3475,-44.499 L 38.1925,-44.9762 L 37.9416,-45.4107 L 37.6059,-45.7835 L 37.2,-46.0785
 L 36.7416,-46.2825 L 36.2509,-46.3868 L 35.7491,-46.3868 L 35.2583,-46.2825 L 34.8,-46.0785 L 34.3941,-45.7835
 L 34.0583,-45.4107 L 33.8075,-44.9762 L 33.6524,-44.499 L 33.6,-44 L 33.6524,-43.501 L 33.8075,-43.0238
 L 34.0583,-42.5893 L 34.3941,-42.2164 L 34.8,-41.9215 L 35.2583,-41.7175 L 35.7491,-41.6131 L 36.2509,-41.6131
 z
M 60.7416,-41.7175 L 61.2,-41.9215 L 61.6059,-42.2164 L 61.9416,-42.5893 L 62.1925,-43.0238 L 62.3475,-43.501
 L 62.4,-44 L 62.3475,-44.499 L 62.1925,-44.9762 L 61.9416,-45.4107 L 61.6059,-45.7835 L 61.2,-46.0785
 L 60.7416,-46.2825 L 60.2509,-46.3868 L 59.7491,-46.3868 L 59.2583,-46.2825 L 58.8,-46.0785 L 58.3941,-45.7835
 L 58.0583,-45.4107 L 57.8075,-44.9762 L 57.6524,-44.499 L 57.6,-44 L 57.6524,-43.501 L 57.8075,-43.0238
 L 58.0583,-42.5893 L 58.3941,-42.2164 L 58.8,-41.9215 L 59.2583,-41.7175 L 59.7491,-41.6131 L 60.2509,-41.6131
 z
M 12.7416,-41.7175 L 13.2,-41.9215 L 13.6059,-42.2164 L 13.9416,-42.5893 L 14.1925,-43.0238 L 14.3475,-43.501
 L 14.4,-44 L 14.3475,-44.499 L 14.1925,-44.9762 L 13.9416,-45.4107 L 13.6059,-45.7835 L 13.2,-46.0785
 L 12.7416,-46.2825 L 12.2509,-46.3868 L 11.7491,-46.3868 L 11.2583,-46.2825 L 10.8,-46.0785 L 10.3941,-45.7835
 L 10.0583,-45.4107 L 9.80748,-44.9762 L 9.65244,-44.499 L 9.59999,-44 L 9.65244,-43.501 L 9.80748,-43.0238
 L 10.0583,-42.5893 L 10.3941,-42.2164 L 10.8,-41.9215 L 11.2583,-41.7175 L 11.7491,-41.6131 L 12.2509,-41.6131
 z
M 4.74164,-41.7175 L 5.2,-41.9215 L 5.60591,-42.2164 L 5.94164,-42.5893 L 6.1925,-43.0238 L 6.34755,-43.501
 L 6.39999,-44 L 6.34755,-44.499 L 6.1925,-44.9762 L 5.94164,-45.4107 L 5.60591,-45.7835 L 5.2,-46.0785
 L 4.74164,-46.2825 L 4.25085,-46.3868 L 3.74913,-46.3868 L 3.25835,-46.2825 L 2.79999,-46.0785 L 2.39407,-45.7835
 L 2.05835,-45.4107 L 1.80748,-44.9762 L 1.65244,-44.499 L 1.59999,-44 L 1.65244,-43.501 L 1.80748,-43.0238
 L 2.05835,-42.5893 L 2.39407,-42.2164 L 2.79999,-41.9215 L 3.25835,-41.7175 L 3.74913,-41.6131 L 4.25085,-41.6131
 z
M 20.7416,-41.7175 L 21.2,-41.9215 L 21.6059,-42.2164 L 21.9416,-42.5893 L 22.1925,-43.0238 L 22.3475,-43.501
 L 22.4,-44 L 22.3475,-44.499 L 22.1925,-44.9762 L 21.9416,-45.4107 L 21.6059,-45.7835 L 21.2,-46.0785
 L 20.7416,-46.2825 L 20.2509,-46.3868 L 19.7491,-46.3868 L 19.2583,-46.2825 L 18.8,-46.0785 L 18.3941,-45.7835
 L 18.0583,-45.4107 L 17.8075,-44.9762 L 17.6524,-44.499 L 17.6,-44 L 17.6524,-43.501 L 17.8075,-43.0238
 L 18.0583,-42.5893 L 18.3941,-42.2164 L 18.8,-41.9215 L 19.2583,-41.7175 L 19.7491,-41.6131 L 20.2509,-41.6131
 z
M 52.7416,-41.7175 L 53.2,-41.9215 L 53.6059,-42.2164 L 53.9416,-42.5893 L 54.1925,-43.0238 L 54.3475,-43.501
 L 54.4,-44 L 54.3475,-44.499 L 54.1925,-44.9762 L 53.9416,-45.4107 L 53.6059,-45.7835 L 53.2,-46.0785
 L 52.7416,-46.2825 L 52.2509,-46.3868 L 51.7491,-46.3868 L 51.2583,-46.2825 L 50.8,-46.0785 L 50.3941,-45.7835
 L 50.0583,-45.4107 L 49.8075,-44.9762 L 49.6524,-44.499 L 49.6,-44 L 49.6524,-43.501 L 49.8075,-43.0238
 L 50.0583,-42.5893 L 50.3941,-42.2164 L 50.8,-41.9215 L 51.2583,-41.7175 L 51.7491,-41.6131 L 52.2509,-41.6131
 z
M 28.7416,-41.7175 L 29.2,-41.9215 L 29.6059,-42.2164 L 29.9416,-42.5893 L 30.1925,-43.0238 L 30.3475,-43.501
 L 30.4,-44 L 30.3475,-44.499 L 30.1925,-44.9762 L 29.9416,-45.4107 L 29.6059,-45.7835 L 29.2,-46.0785
 L 28.7416,-46.2825 L 28.2509,-46.3868 L 27.7491,-46.3868 L 27.2583,-46.2825 L 26.8,-46.0785 L 26.3941,-45.7835
 L 26.0583,-45.4107 L 25.8075,-44.9762 L 25.6524,-44.499 L 25.6,-44 L 25.6524,-43.501 L 25.8075,-43.0238
 L 26.0583,-42.5893 L 26.3941,-42.2164 L 26.8,-41.9215 L 27.2583,-41.7175 L 27.7491,-41.6131 L 28.2509,-41.6131
 z
M 44.7416,-41.7175 L 45.2,-41.9215 L 45.6059,-42.2164 L 45.9416,-42.5893 L 46.1925,-43.0238 L 46.3475,-43.501
 L 46.4,-44 L 46.3475,-44.499 L 46.1925,-44.9762 L 45.9416,-45.4107 L 45.6059,-45.7835 L 45.2,-46.0785
 L 44.7416,-46.2825 L 44.2509,-46.3868 L 43.7491,-46.3868 L 43.2583,-46.2825 L 42.8,-46.0785 L 42.3941,-45.7835
 L 42.0583,-45.4107 L 41.8075,-44.9762 L 41.6524,-44.499 L 41.6,-44 L 41.6524,-43.501 L 41.8075,-43.0238
 L 42.0583,-42.5893 L 42.3941,-42.2164 L 42.8,-41.9215 L 43.2583,-41.7175 L 43.7491,-41.6131 L 44.2509,-41.6131
 z
M 28.7416,-33.7175 L 29.2,-33.9215 L 29.6059,-34.2164 L 29.9416,-34.5893 L 30.1925,-35.0238 L 30.3475,-35.501
 L 30.4,-36 L 30.3475,-36.499 L 30.1925,-36.9762 L 29.9416,-37.4107 L 29.6059,-37.7835 L 29.2,-38.0785
 L 28.7416,-38.2825 L 28.2509,-38.3868 L 27.7491,-38.3868 L 27.2583,-38.2825 L 26.8,-38.0785 L 26.3941,-37.7835
 L 26.0583,-37.4107 L 25.8075,-36.9762 L 25.6524,-36.499 L 25.6,-36 L 25.6524,-35.501 L 25.8075,-35.0238
 L 26.0583,-34.5893 L 26.3941,-34.2164 L 26.8,-33.9215 L 27.2583,-33.7175 L 27.7491,-33.6131 L 28.2509,-33.6131
 z
M 44.7416,-33.7175 L 45.2,-33.9215 L 45.6059,-34.2164 L 45.9416,-34.5893 L 46.1925,-35.0238 L 46.3475,-35.501
 L 46.4,-36 L 46.3475,-36.499 L 46.1925,-36.9762 L 45.9416,-37.4107 L 45.6059,-37.7835 L 45.2,-38.0785
 L 44.7416,-38.2825 L 44.2509,-38.3868 L 43.7491,-38.3868 L 43.2583,-38.2825 L 42.8,-38.0785 L 42.3941,-37.7835
 L 42.0583,-37.4107 L 41.8075,-36.9762 L 41.6524,-36.499 L 41.6,-36 L 41.6524,-35.501 L 41.8075,-35.0238
 L 42.0583,-34.5893 L 42.3941,-34.2164 L 42.8,-33.9215 L 43.2583,-33.7175 L 43.7491,-33.6131 L 44.2509,-33.6131
 z
M 4.74164,-33.7175 L 5.2,-33.9215 L 5.60591,-34.2164 L 5.94164,-34.5893 L 6.1925,-35.0238 L 6.34755,-35.501
 L 6.39999,-36 L 6.34755,-36.499 L 6.1925,-36.9762 L 5.94164,-37.4107 L 5.60591,-37.7835 L 5.2,-38.0785
 L 4.74164,-38.2825 L 4.25085,-38.3868 L 3.74913,-38.3868 L 3.25835,-38.2825 L 2.79999,-38.0785 L 2.39407,-37.7835
 L 2.05835,-37.4107 L 1.80748,-36.9762 L 1.65244,-36.499 L 1.59999,-36 L 1.65244,-35.501 L 1.80748,-35.0238
 L 2.05835,-34.5893 L 2.39407,-34.2164 L 2.79999,-33.9215 L 3.25835,-33.7175 L 3.74913,-33.6131 L 4.25085,-33.6131
 z
M 60.7416,-33.7175 L 61.2,-33.9215 L 61.6059,-34.2164 L 61.9416,-34.5893 L 62.1925,-35.0238 L 62.3475,-35.501
 L 62.4,-36 L 62.3475,-36.499 L 62.1925,-36.9762 L 61.9416,-37.4107 L 61.6059,-37.7835 L 61.2,-38.0785
 L 60.7416,-38.2825 L 60.2509,-38.3868 L 59.7491,-38.3868 L 59.2583,-38.2825 L 58.8,-38.0785 L 58.3941,-37.7835
 L 58.0583,-37.4107 L 57.8075,-36.9762 L 57.6524,-36.499 L 57.6,-36 L 57.6524,-35.501 L 57.8075,-35.0238
 L 58.0583,-34.5893 L 58.3941,-34.2164 L 58.8,-33.9215 L 59.2583,-33.7175 L 59.7491,-33.6131 L 60.2509,-33.6131
 z
M 36.7416,-33.7175 L 37.2,-33.9215 L 37.6059,-34.2164 L 37.9416,-34.5893 L 38.1925,-35.0238 L 38.3475,-35.501
 L 38.4,-36 L 38.3475,-36.499 L 38.1925,-36.9762 L 37.9416,-37.4107 L 37.6059,-37.7835 L 37.2,-38.0785
 L 36.7416,-38.2825 L 36.2509,-38.3868 L 35.7491,-38.3868 L 35.2583,-38.2825 L 34.8,-38.0785 L 34.3941,-37.7835
 L 34.0583,-37.4107 L 33.8075,-36.9762 L 33.6524,-36.499 L 33.6,-36 L 33.6524,-35.501 L 33.8075,-35.0238
 L 34.0583,-34.5893 L 34.3941,-34.2164 L 34.8,-33.9215 L 35.2583,-33.7175 L 35.7491,-33.6131 L 36.2509,-33.6131
 z
M 12.7416,-33.7175 L 13.2,-33.9215 L 13.6059,-34.2164 L 13.9416,-34.5893 L 14.1925,-35.0238 L 14.3475,-35.501
 L 14.4,-36 L 14.3475,-36.499 L 14.1925,-36.9762 L 13.9416,-37.4107 L 13.6059,-37.7835 L 13.2,-38.0785
 L 12.7416,-38.2825 L 12.2509,-38.3868 L 11.7491,-38.3868 L 11.2583,-38.2825 L 10.8,-38.0785 L 10.3941,-37.7835
 L 10.0583,-37.4107 L 9.80748,-36.9762 L 9.65244,-36.499 L 9.59999,-36 L 9.65244,-35.501 L 9.80748,-35.0238
 L 10.0583,-34.5893 L 10.3941,-34.2164 L 10.8,-33.9215 L 11.2583,-33.7175 L 11.7491,-33.6131 L 12.2509,-33.6131
 z
M 20.7416,-33.7175 L 21.2,-33.9215 L 21.6059,-34.2164 L 21.9416,-34.5893 L 22.1925,-35.0238 L 22.3475,-35.501
 L 22.4,-36 L 22.3475,-36.499 L 22.1925,-36.9762 L 21.9416,-37.4107 L 21.6059,-37.7835 L 21.2,-38.0785
 L 20.7416,-38.2825 L 20.2509,-38.3868 L 19.7491,-38.3868 L 19.2583,-38.2825 L 18.8,-38.0785 L 18.3941,-37.7835
 L 18.0583,-37.4107 L 17.8075,-36.9762 L 17.6524,-36.499 L 17.6,-36 L 17.6524,-35.501 L 17.8075,-35.0238
 L 18.0583,-34.5893 L 18.3941,-34.2164 L 18.8,-33.9215 L 19.2583,-33.7175 L 19.7491,-33.6131 L 20.2509,-33.6131
 z
M 52.7416,-33.7175 L 53.2,-33.9215 L 53.6059,-34.2164 L 53.9416,-34.5893 L 54.1925,-35.0238 L 54.3475,-35.501
 L 54.4,-36 L 54.3475,-36.499 L 54.1925,-36.9762 L 53.9416,-37.4107 L 53.6059,-37.7835 L 53.2,-38.0785
 L 52.7416,-38.2825 L 52.2509,-38.3868 L 51.7491,-38.3868 L 51.2583,-38.2825 L 50.8,-38.0785 L 50.3941,-37.7835
 L 50.0583,-37.4107 L 49.8075,-36.9762 L 49.6524,-36.499 L 49.6,-36 L 49.6524,-35.501 L 49.8075,-35.0238
 L 50.0583,-34.5893 L 50.3941,-34.2164 L 50.8,-33.9215 L 51.2583,-33.7175 L 51.7491,-33.6131 L 52.2509,-33.6131
 z
M 36.7416,-25.7175 L 37.2,-25.9215 L 37.6059,-26.2164 L 37.9416,-26.5893 L 38.1925,-27.0238 L 38.3475,-27.501
 L 38.4,-28 L 38.3475,-28.499 L 38.1925,-28.9762 L 37.9416,-29.4107 L 37.6059,-29.7835 L 37.2,-30.0785
 L 36.7416,-30.2825 L 36.2509,-30.3868 L 35.7491,-30.3868 L 35.2583,-30.2825 L 34.8,-30.0785 L 34.3941,-29.7835
 L 34.0583,-29.4107 L 33.8075,-28.9762 L 33.6524,-28.499 L 33.6,-28 L 33.6524,-27.501 L 33.8075,-27.0238
 L 34.0583,-26.5893 L 34.3941,-26.2164 L 34.8,-25.9215 L 35.2583,-25.7175 L 35.7491,-25.6131 L 36.2509,-25.6131
 z
M 52.7416,-25.7175 L 53.2,-25.9215 L 53.6059,-26.2164 L 53.9416,-26.5893 L 54.1925,-27.0238 L 54.3475,-27.501
 L 54.4,-28 L 54.3475,-28.499 L 54.1925,-28.9762 L 53.9416,-29.4107 L 53.6059,-29.7835 L 53.2,-30.0785
 L 52.7416,-30.2825 L 52.2509,-30.3868 L 51.7491,-30.3868 L 51.2583,-30.2825 L 50.8,-30.0785 L 50.3941,-29.7835
 L 50.0583,-29.4107 L 49.8075,-28.9762 L 49.6524,-28.499 L 49.6,-28 L 49.6524,-27.501 L 49.8075,-27.0238
 L 50.0583,-26.5893 L 50.3941,-26.2164 L 50.8,-25.9215 L 51.2583,-25.7175 L 51.7491,-25.6131 L 52.2509,-25.6131
 z
M 60.7416,-25.7175 L 61.2,-25.9215 L 61.6059,-26.2164 L 61.9416,-26.5893 L 62.1925,-27.0238 L 62.3475,-27.501
 L 62.4,-28 L 62.3475,-28.499 L 62.1925,-28.9762 L 61.9416,-29.4107 L 61.6059,-29.7835 L 61.2,-30.0785
 L 60.7416,-30.2825 L 60.2509,-30.3868 L 59.7491,-30.3868 L 59.2583,-30.2825 L 58.8,-30.0785 L 58.3941,-29.7835
 L 58.0583,-29.4107 L 57.8075,-28.9762 L 57.6524,-28.499 L 57.6,-28 L 57.6524,-27.501 L 57.8075,-27.0238
 L 58.0583,-26.5893 L 58.3941,-26.2164 L 58.8,-25.9215 L 59.2583,-25.7175 L 59.7491,-25.6131 L 60.2509,-25.6131
 z
M 28.7416,-25.7175 L 29.2,-25.9215 L 29.6059,-26.2164 L 29.9416,-26.5893 L 30.1925,-27.0238 L 30.3475,-27.501
 L 30.4,-28 L 30.3475,-28.499 L 30.1925,-28.9762 L 29.9416,-29.4107 L 29.6059,-29.7835 L 29.2,-30.0785
 L 28.7416,-30.2825 L 28.2509,-30.3868 L 27.7491,-30.3868 L 27.2583,-30.2825 L 26.8,-30.0785 L 26.3941,-29.7835
 L 26.0583,-29.4107 L 25.8075,-28.9762 L 25.6524,-28.499 L 25.6,-28 L 25.6524,-27.501 L 25.8075,-27.0238
 L 26.0583,-26.5893 L 26.3941,-26.2164 L 26.8,-25.9215 L 27.2583,-25.7175 L 27.7491,-25.6131 L 28.2509,-25.6131
 z
M 12.7416,-25.7175 L 13.2,-25.9215 L 13.6059,-26.2164 L 13.9416,-26.5893 L 14.1925,-27.0238 L 14.3475,-27.501
 L 14.4,-28 L 14.3475,-28.499 L 14.1925,-28.9762 L 13.9416,-29.4107 L 13.6059,-29.7835 L 13.2,-30.0785
 L 12.7416,-30.2825 L 12.2509,-30.3868 L 11.7491,-30.3868 L 11.2583,-30.2825 L 10.8,-30.0785 L 10.3941,-29.7835
 L 10.0583,-29.4107 L 9.80748,-28.9762 L 9.65244,-28.499 L 9.59999,-28 L 9.65244,-27.501 L 9.80748,-27.0238
 L 10.0583,-26.5893 L 10.3941,-26.2164 L 10.8,-25.9215 L 11.2583,-25.7175 L 11.7491,-25.6131 L 12.2509,-25.6131
 z
M 20.7416,-25.7175 L 21.2,-25.9215 L 21.6059,-26.2164 L 21.9416,-26.5893 L 22.1925,-27.0238 L 22.3475,-27.501
 L 22.4,-28 L 22.3475,-28.499 L 22.1925,-28.9762 L 21.9416,-29.4107 L 21.6059,-29.7835 L 21.2,-30.0785
 L 20.7416,-30.2825 L 20.2509,-30.3868 L 19.7491,-30.3868 L 19.2583,-30.2825 L 18.8,-30.0785 L 18.3941,-29.7835
 L 18.0583,-29.4107 L 17.8075,-28.9762 L 17.6524,-28.499 L 17.6,-28 L 17.6524,-27.501 L 17.8075,-27.0238
 L 18.0583,-26.5893 L 18.3941,-26.2164 L 18.8,-25.9215 L 19.2583,-25.7175 L 19.7491,-25.6131 L 20.2509,-25.6131
 z
M 4.74164,-25.7175 L 5.2,-25.9215 L 5.60591,-26.2164 L 5.94164,-26.5893 L 6.1925,-27.0238 L 6.34755,-27.501
 L 6.39999,-28 L 6.34755,-28.499 L 6.1925,-28.9762 L 5.94164,-29.4107 L 5.60591,-29.7835 L 5.2,-30.0785
 L 4.74164,-30.2825 L 4.25085,-30.3868 L 3.74913,-30.3868 L 3.25835,-30.2825 L 2.79999,-30.0785 L 2.39407,-29.7835
 L 2.05835,-29.4107 L 1.80748,-28.9762 L 1.65244,-28.499 L 1.59999,-28 L 1.65244,-27.501 L 1.80748,-27.0238
 L 2.05835,-26.5893 L 2.39407,-26.2164 L 2.79999,-25.9215 L 3.25835,-25.7175 L 3.74913,-25.6131 L 4.25085,-25.6131
 z
M 44.7416,-25.7175 L 45.2,-25.9215 L 45.6059,-26.2164 L 45.9416,-26.5893 L 46.1925,-27.0238 L 46.3475,-27.501
 L 46.4,-28 L 46.3475,-28.499 L 46.1925,-28.9762 L 45.9416,-29.4107 L 45.6059,-29.7835 L 45.2,-30.0785
 L 44.7416,-30.2825 L 44.2509,-30.3868 L 43.7491,-30.3868 L 43.2583,-30.2825 L 42.8,-30.0785 L 42.3941,-29.7835
 L 42.0583,-29.4107 L 41.8075,-28.9762 L 41.6524,-28.499 L 41.6,-28 L 41.6524,-27.501 L 41.8075,-27.0238
 L 42.0583,-26.5893 L 42.3941,-26.2164 L 42.8,-25.9215 L 43.2583,-25.7175 L 43.7491,-25.6131 L 44.2509,-25.6131
 z
M 28.7416,-17.7175 L 29.2,-17.9215 L 29.6059,-18.2164 L 29.9416,-18.5893 L 30.1925,-19.0238 L 30.3475,-19.501
 L 30.4,-20 L 30.3475,-20.499 L 30.1925,-20.9762 L 29.9416,-21.4107 L 29.6059,-21.7835 L 29.2,-22.0785
 L 28.7416,-22.2825 L 28.2509,-22.3868 L 27.7491,-22.3868 L 27.2583,-22.2825 L 26.8,-22.0785 L 26.3941,-21.7835
 L 26.0583,-21.4107 L 25.8075,-20.9762 L 25.6524,-20.499 L 25.6,-20 L 25.6524,-19.501 L 25.8075,-19.0238
 L 26.0583,-18.5893 L 26.3941,-18.2164 L 26.8,-17.9215 L 27.2583,-17.7175 L 27.7491,-17.6131 L 28.2509,-17.6131
 z
M 36.7416,-17.7175 L 37.2,-17.9215 L 37.6059,-18.2164 L 37.9416,-18.5893 L 38.1925,-19.0238 L 38.3475,-19.501
 L 38.4,-20 L 38.3475,-20.499 L 38.1925,-20.9762 L 37.9416,-21.4107 L 37.6059,-21.7835 L 37.2,-22.0785
 L 36.7416,-22.2825 L 36.2509,-22.3868 L 35.7491,-22.3868 L 35.2583,-22.2825 L 34.8,-22.0785 L 34.3941,-21.7835
 L 34.0583,-21.4107 L 33.8075,-20.9762 L 33.6524,-20.499 L 33.6,-20 L 33.6524,-19.501 L 33.8075,-19.0238
 L 34.0583,-18.5893 L 34.3941,-18.2164 L 34.8,-17.9215 L 35.2583,-17.7175 L 35.7491,-17.6131 L 36.2509,-17.6131
 z
M 60.7416,-17.7175 L 61.2,-17.9215 L 61.6059,-18.2164 L 61.9416,-18.5893 L 62.1925,-19.0238 L 62.3475,-19.501
 L 62.4,-20 L 62.3475,-20.499 L 62.1925,-20.9762 L 61.9416,-21.4107 L 61.6059,-21.7835 L 61.2,-22.0785
 L 60.7416,-22.2825 L 60.2509,-22.3868 L 59.7491,-22.3868 L 59.2583,-22.2825 L 58.8,-22.0785 L 58.3941,-21.7835
 L 58.0583,-21.4107 L 57.8075,-20.9762 L 57.6524,-20.499 L 57.6,-20 L 57.6524,-19.501 L 57.8075,-19.0238
 L 58.0583,-18.5893 L 58.3941,-18.2164 L 58.8,-17.9215 L 59.2583,-17.7175 L 59.7491,-17.6131 L 60.2509,-17.6131
 z
M 20.7416,-17.7175 L 21.2,-17.9215 L 21.6059,-18.2164 L 21.9416,-18.5893 L 22.1925,-19.0238 L 22.3475,-19.501
 L 22.4,-20 L 22.3475,-20.499 L 22.1925,-20.9762 L 21.9416,-21.4107 L 21.6059,-21.7835 L 21.2,-22.0785
 L 20.7416,-22.2825 L 20.2509,-22.3868 L 19.7491,-22.3868 L 19.2583,-22.2825 L 18.8,-22.0785 L 18.3941,-21.7835
 L 18.0583,-21.4107 L 17.8075,-20.9762 L 17.6524,-20.499 L 17.6,-20 L 17.6524,-19.501 L 17.8075,-19.0238
 L 18.0583,-18.5893 L 18.3941,-18.2164 L 18.8,-17.9215 L 19.2583,-17.7175 L 19.7491,-17.6131 L 20.2509,-17.6131
 z
M 12.7416,-17.7175 L 13.2,-17.9215 L 13.6059,-18.2164 L 13.9416,-18.5893 L 14.1925,-19.0238 L 14.3475,-19.501
 L 14.4,-20 L 14.3475,-20.499 L 14.1925,-20.9762 L 13.9416,-21.4107 L 13.6059,-21.7835 L 13.2,-22.0785
 L 12.7416,-22.2825 L 12.2509,-22.3868 L 11.7491,-22.3868 L 11.2583,-22.2825 L 10.8,-22.0785 L 10.3941,-21.7835
 L 10.0583,-21.4107 L 9.80748,-20.9762 L 9.65244,-20.499 L 9.59999,-20 L 9.65244,-19.501 L 9.80748,-19.0238
 L 10.0583,-18.5893 L 10.3941,-18.2164 L 10.8,-17.9215 L 11.2583,-17.7175 L 11.7491,-17.6131 L 12.2509,-17.6131
 z
M 52.7416,-17.7175 L 53.2,-17.9215 L 53.6059,-18.2164 L 53.9416,-18.5893 L 54.1925,-19.0238 L 54.3475,-19.501
 L 54.4,-20 L 54.3475,-20.499 L 54.1925,-20.9762 L 53.9416,-21.4107 L 53.6059,-21.7835 L 53.2,-22.0785
 L 52.7416,-22.2825 L 52.2509,-22.3868 L 51.7491,-22.3868 L 51.2583,-22.2825 L 50.8,-22.0785 L 50.3941,-21.7835
 L 50.0583,-21.4107 L 49.8075,-20.9762 L 49.6524,-20.499 L 49.6,-20 L 49.6524,-19.501 L 49.8075,-19.0238
 L 50.0583,-18.5893 L 50.3941,-18.2164 L 50.8,-17.9215 L 51.2583,-17.7175 L 51.7491,-17.6131 L 52.2509,-17.6131
 z
M 4.74164,-17.7175 L 5.2,-17.9215 L 5.60591,-18.2164 L 5.94164,-18.5893 L 6.1925,-19.0238 L 6.34755,-19.501
 L 6.39999,-20 L 6.34755,-20.499 L 6.1925,-20.9762 L 5.94164,-21.4107 L 5.60591,-21.7835 L 5.2,-22.0785
 L 4.74164,-22.2825 L 4.25085,-22.3868 L 3.74913,-22.3868 L 3.25835,-22.2825 L 2.79999,-22.0785 L 2.39407,-21.7835
 L 2.05835,-21.4107 L 1.80748,-20.9762 L 1.65244,-20.499 L 1.59999,-20 L 1.65244,-19.501 L 1.80748,-19.0238
 L 2.05835,-18.5893 L 2.39407,-18.2164 L 2.79999,-17.9215 L 3.25835,-17.7175 L 3.74913,-17.6131 L 4.25085,-17.6131
 z
M 44.7416,-17.7175 L 45.2,-17.9215 L 45.6059,-18.2164 L 45.9416,-18.5893 L 46.1925,-19.0238 L 46.3475,-19.501
 L 46.4,-20 L 46.3475,-20.499 L 46.1925,-20.9762 L 45.9416,-21.4107 L 45.6059,-21.7835 L 45.2,-22.0785
 L 44.7416,-22.2825 L 44.2509,-22.3868 L 43.7491,-22.3868 L 43.2583,-22.2825 L 42.8,-22.0785 L 42.3941,-21.7835
 L 42.0583,-21.4107 L 41.8075,-20.9762 L 41.6524,-20.499 L 41.6,-20 L 41.6524,-19.501 L 41.8075,-19.0238
 L 42.0583,-18.5893 L 42.3941,-18.2164 L 42.8,-17.9215 L 43.2583,-17.7175 L 43.7491,-17.6131 L 44.2509,-17.6131
 z
M 20.7416,-9.71745 L 21.2,-9.92154 L 21.6059,-10.2164 L 21.9416,-10.5893 L 22.1925,-11.0238 L 22.3475,-11.501
 L 22.4,-12 L 22.3475,-12.499 L 22.1925,-12.9762 L 21.9416,-13.4107 L 21.6059,-13.7835 L 21.2,-14.0785
 L 20.7416,-14.2825 L 20.2509,-14.3868 L 19.7491,-14.3868 L 19.2583,-14.2825 L 18.8,-14.0785 L 18.3941,-13.7835
 L 18.0583,-13.4107 L 17.8075,-12.9762 L 17.6524,-12.499 L 17.6,-12 L 17.6524,-11.501 L 17.8075,-11.0238
 L 18.0583,-10.5893 L 18.3941,-10.2164 L 18.8,-9.92154 L 19.2583,-9.71745 L 19.7491,-9.61314 L 20.2509,-9.61314
 z
M 12.7416,-9.71745 L 13.2,-9.92154 L 13.6059,-10.2164 L 13.9416,-10.5893 L 14.1925,-11.0238 L 14.3475,-11.501
 L 14.4,-12 L 14.3475,-12.499 L 14.1925,-12.9762 L 13.9416,-13.4107 L 13.6059,-13.7835 L 13.2,-14.0785
 L 12.7416,-14.2825 L 12.2509,-14.3868 L 11.7491,-14.3868 L 11.2583,-14.2825 L 10.8,-14.0785 L 10.3941,-13.7835
 L 10.0583,-13.4107 L 9.80748,-12.9762 L 9.65244,-12.499 L 9.59999,-12 L 9.65244,-11.501 L 9.80748,-11.0238
 L 10.0583,-10.5893 L 10.3941,-10.2164 L 10.8,-9.92154 L 11.2583,-9.71745 L 11.7491,-9.61314 L 12.2509,-9.61314
 z
M 36.7416,-9.71745 L 37.2,-9.92154 L 37.6059,-10.2164 L 37.9416,-10.5893 L 38.1925,-11.0238 L 38.3475,-11.501
 L 38.4,-12 L 38.3475,-12.499 L 38.1925,-12.9762 L 37.9416,-13.4107 L 37.6059,-13.7835 L 37.2,-14.0785
 L 36.7416,-14.2825 L 36.2509,-14.3868 L 35.7491,-14.3868 L 35.2583,-14.2825 L 34.8,-14.0785 L 34.3941,-13.7835
 L 34.0583,-13.4107 L 33.8075,-12.9762 L 33.6524,-12.499 L 33.6,-12 L 33.6524,-11.501 L 33.8075,-11.0238
 L 34.0583,-10.5893 L 34.3941,-10.2164 L 34.8,-9.92154 L 35.2583,-9.71745 L 35.7491,-9.61314 L 36.2509,-9.61314
 z
M 28.7416,-9.71745 L 29.2,-9.92154 L 29.6059,-10.2164 L 29.9416,-10.5893 L 30.1925,-11.0238 L 30.3475,-11.501
 L 30.4,-12 L 30.3475,-12.499 L 30.1925,-12.9762 L 29.9416,-13.4107 L 29.6059,-13.7835 L 29.2,-14.0785
 L 28.7416,-14.2825 L 28.2509,-14.3868 L 27.7491,-14.3868 L 27.2583,-14.2825 L 26.8,-14.0785 L 26.3941,-13.7835
 L 26.0583,-13.4107 L 25.8075,-12.9762 L 25.6524,-12.499 L 25.6,-12 L 25.6524,-11.501 L 25.8075,-11.0238
 L 26.0583,-10.5893 L 26.3941,-10.2164 L 26.8,-9.92154 L 27.2583,-9.71745 L 27.7491,-9.61314 L 28.2509,-9.61314
 z
M 4.74164,-9.71745 L 5.2,-9.92154 L 5.60591,-10.2164 L 5.94164,-10.5893 L 6.1925,-11.0238 L 6.34755,-11.501
 L 6.39999,-12 L 6.34755,-12.499 L 6.1925,-12.9762 L 5.94164,-13.4107 L 5.60591,-13.7835 L 5.2,-14.0785
 L 4.74164,-14.2825 L 4.25085,-14.3868 L 3.74913,-14.3868 L 3.25835,-14.2825 L 2.79999,-14.0785 L 2.39407,-13.7835
 L 2.05835,-13.4107 L 1.80748,-12.9762 L 1.65244,-12.499 L 1.59999,-12 L 1.65244,-11.501 L 1.80748,-11.0238
 L 2.05835,-10.5893 L 2.39407,-10.2164 L 2.79999,-9.92154 L 3.25835,-9.71745 L 3.74913,-9.61314 L 4.25085,-9.61314
 z
M 52.7416,-9.71745 L 53.2,-9.92154 L 53.6059,-10.2164 L 53.9416,-10.5893 L 54.1925,-11.0238 L 54.3475,-11.501
 L 54.4,-12 L 54.3475,-12.499 L 54.1925,-12.9762 L 53.9416,-13.4107 L 53.6059,-13.7835 L 53.2,-14.0785
 L 52.7416,-14.2825 L 52.2509,-14.3868 L 51.7491,-14.3868 L 51.2583,-14.2825 L 50.8,-14.0785 L 50.3941,-13.7835
 L 50.0583,-13.4107 L 49.8075,-12.9762 L 49.6524,-12.499 L 49.6,-12 L 49.6524,-11.501 L 49.8075,-11.0238
 L 50.0583,-10.5893 L 50.3941,-10.2164 L 50.8,-9.92154 L 51.2583,-9.71745 L 51.7491,-9.61314 L 52.2509,-9.61314
 z
M 60.7416,-9.71745 L 61.2,-9.92154 L 61.6059,-10.2164 L 61.9416,-10.5893 L 62.1925,-11.0238 L 62.3475,-11.501
 L 62.4,-12 L 62.3475,-12.499 L 62.1925,-12.9762 L 61.9416,-13.4107 L 61.6059,-13.7835 L 61.2,-14.0785
 L 60.7416,-14.2825 L 60.2509,-14.3868 L 59.7491,-14.3868 L 59.2583,-14.2825 L 58.8,-14.0785 L 58.3941,-13.7835
 L 58.0583,-13.4107 L 57.8075,-12.9762 L 57.6524,-12.499 L 57.6,-12 L 57.6524,-11.501 L 57.8075,-11.0238
 L 58.0583,-10.5893 L 58.3941,-10.2164 L 58.8,-9.92154 L 59.2583,-9.71745 L 59.7491,-9.61314 L 60.2509,-9.61314
 z
M 44.7416,-9.71745 L 45.2,-9.92154 L 45.6059,-10.2164 L 45.9416,-10.5893 L 46.1925,-11.0238 L 46.3475,-11.501
 L 46.4,-12 L 46.3475,-12.499 L 46.1925,-12.9762 L 45.9416,-13.4107 L 45.6059,-13.7835 L 45.2,-14.0785
 L 44.7416,-14.2825 L 44.2509,-14.3868 L 43.7491,-14.3868 L 43.2583,-14.2825 L 42.8,-14.0785 L 42.3941,-13.7835
 L 42.0583,-13.4107 L 41.8075,-12.9762 L 41.6524,-12.499 L 41.6,-12 L 41.6524,-11.501 L 41.8075,-11.0238
 L 42.0583,-10.5893 L 42.3941,-10.2164 L 42.8,-9.92154 L 43.2583,-9.71745 L 43.7491,-9.61314 L 44.2509,-9.61314
 z
M 52.7416,-1.71745 L 53.2,-1.92152 L 53.6059,-2.21645 L 53.9416,-2.58931 L 54.1925,-3.02382 L 54.3475,-3.50101
 L 54.4,-4 L 54.3475,-4.49898 L 54.1925,-4.97617 L 53.9416,-5.41068 L 53.6059,-5.78354 L 53.2,-6.07846
 L 52.7416,-6.28253 L 52.2509,-6.38684 L 51.7491,-6.38684 L 51.2583,-6.28253 L 50.8,-6.07846 L 50.3941,-5.78354
 L 50.0583,-5.41068 L 49.8075,-4.97617 L 49.6524,-4.49898 L 49.6,-4 L 49.6524,-3.50101 L 49.8075,-3.02382
 L 50.0583,-2.58931 L 50.3941,-2.21645 L 50.8,-1.92152 L 51.2583,-1.71745 L 51.7491,-1.61314 L 52.2509,-1.61314
 z
M 20.7416,-1.71745 L 21.2,-1.92152 L 21.6059,-2.21645 L 21.9416,-2.58931 L 22.1925,-3.02382 L 22.3475,-3.50101
 L 22.4,-4 L 22.3475,-4.49898 L 22.1925,-4.97617 L 21.9416,-5.41068 L 21.6059,-5.78354 L 21.2,-6.07846
 L 20.7416,-6.28253 L 20.2509,-6.38684 L 19.7491,-6.38684 L 19.2583,-6.28253 L 18.8,-6.07846 L 18.3941,-5.78354
 L 18.0583,-5.41068 L 17.8075,-4.97617 L 17.6524,-4.49898 L 17.6,-4 L 17.6524,-3.50101 L 17.8075,-3.02382
 L 18.0583,-2.58931 L 18.3941,-2.21645 L 18.8,-1.92152 L 19.2583,-1.71745 L 19.7491,-1.61314 L 20.2509,-1.61314
 z
M 60.7416,-1.71745 L 61.2,-1.92152 L 61.6059,-2.21645 L 61.9416,-2.58931 L 62.1925,-3.02382 L 62.3475,-3.50101
 L 62.4,-4 L 62.3475,-4.49898 L 62.1925,-4.97617 L 61.9416,-5.41068 L 61.6059,-5.78354 L 61.2,-6.07846
 L 60.7416,-6.28253 L 60.2509,-6.38684 L 59.7491,-6.38684 L 59.2583,-6.28253 L 58.8,-6.07846 L 58.3941,-5.78354
 L 58.0583,-5.41068 L 57.8075,-4.97617 L 57.6524,-4.49898 L 57.6,-4 L 57.6524,-3.50101 L 57.8075,-3.02382
 L 58.0583,-2.58931 L 58.3941,-2.21645 L 58.8,-1.92152 L 59.2583,-1.71745 L 59.7491,-1.61314 L 60.2509,-1.61314
 z
M 12.7416,-1.71745 L 13.2,-1.92152 L 13.6059,-2.21645 L 13.9416,-2.58931 L 14.1925,-3.02382 L 14.3475,-3.50101
 L 14.4,-4 L 14.3475,-4.49898 L 14.1925,-4.97617 L 13.9416,-5.41068 L 13.6059,-5.78354 L 13.2,-6.07846
 L 12.7416,-6.28253 L 12.2509,-6.38684 L 11.7491,-6.38684 L 11.2583,-6.28253 L 10.8,-6.07846 L 10.3941,-5.78354
 L 10.0583,-5.41068 L 9.80748,-4.97617 L 9.65244,-4.49898 L 9.59999,-4 L 9.65244,-3.50101 L 9.80748,-3.02382
 L 10.0583,-2.58931 L 10.3941,-2.21645 L 10.8,-1.92152 L 11.2583,-1.71745 L 11.7491,-1.61314 L 12.2509,-1.61314
 z
M 36.7416,-1.71745 L 37.2,-1.92152 L 37.6059,-2.21645 L 37.9416,-2.58931 L 38.1925,-3.02382 L 38.3475,-3.50101
 L 38.4,-4 L 38.3475,-4.49898 L 38.1925,-4.97617 L 37.9416,-5.41068 L 37.6059,-5.78354 L 37.2,-6.07846
 L 36.7416,-6.28253 L 36.2509,-6.38684 L 35.7491,-6.38684 L 35.2583,-6.28253 L 34.8,-6.07846 L 34.3941,-5.78354
 L 34.0583,-5.41068 L 33.8075,-4.97617 L 33.6524,-4.49898 L 33.6,-4 L 33.6524,-3.50101 L 33.8075,-3.02382
 L 34.0583,-2.58931 L 34.3941,-2.21645 L 34.8,-1.92152 L 35.2583,-1.71745 L 35.7491,-1.61314 L 36.2509,-1.61314
 z
M 4.74164,-1.71745 L 5.2,-1.92152 L 5.60591,-2.21645 L 5.94164,-2.58931 L 6.1925,-3.02382 L 6.34755,-3.50101
 L 6.39999,-4 L 6.34755,-4.49898 L 6.1925,-4.97617 L 5.94164,-5.41068 L 5.60591,-5.78354 L 5.2,-6.07846
 L 4.74164,-6.28253 L 4.25085,-6.38684 L 3.74913,-6.38684 L 3.25835,-6.28253 L 2.79999,-6.07846 L 2.39407,-5.78354
 L 2.05835,-5.41068 L 1.80748,-4.97617 L 1.65244,-4.49898 L 1.59999,-4 L 1.65244,-3.50101 L 1.80748,-3.02382
 L 2.05835,-2.58931 L 2.39407,-2.21645 L 2.79999,-1.92152 L 3.25835,-1.71745 L 3.74913,-1.61314 L 4.25085,-1.61314
 z
M 28.7416,-1.71745 L 29.2,-1.92152 L 29.6059,-2.21645 L 29.9416,-2.58931 L 30.1925,-3.02382 L 30.3475,-3.50101
 L 30.4,-4 L 30.3475,-4.49898 L 30.1925,-4.97617 L 29.9416,-5.41068 L 29.6059,-5.78354 L 29.2,-6.07846
 L 28.7416,-6.28253 L 28.2509,-6.38684 L 27.7491,-6.38684 L 27.2583,-6.28253 L 26.8,-6.07846 L 26.3941,-5.78354
 L 26.0583,-5.41068 L 25.8075,-4.97617 L 25.6524,-4.49898 L 25.6,-4 L 25.6524,-3.50101 L 25.8075,-3.02382
 L 26.0583,-2.58931 L 26.3941,-2.21645 L 26.8,-1.92152 L 27.2583,-1.71745 L 27.7491,-1.61314 L 28.2509,-1.61314
 z
M 44.7416,-1.71745 L 45.2,-1.92152 L 45.6059,-2.21645 L 45.9416,-2.58931 L 46.1925,-3.02382 L 46.3475,-3.50101
 L 46.4,-4 L 46.3475,-4.49898 L 46.1925,-4.97617 L 45.9416,-5.41068 L 45.6059,-5.78354 L 45.2,-6.07846
 L 44.7416,-6.28253 L 44.2509,-6.38684 L 43.7491,-6.38684 L 43.2583,-6.28253 L 42.8,-6.07846 L 42.3941,-5.78354
 L 42.0583,-5.41068 L 41.8075,-4.97617 L 41.6524,-4.49898 L 41.6,-4 L 41.6524,-3.50101 L 41.8075,-3.02382
 L 42.0583,-2.58931 L 42.3941,-2.21645 L 42.8,-1.92152 L 43.2583,-1.71745 L 43.7491,-1.61314 L 44.2509,-1.61314
 z
" stroke="black" fill="lightgray" stroke-width="0.5"/></svg>
