<?xml version="1.0" encoding="UTF-8" standalone="no"?>
<svg
   xmlns:dc="http://purl.org/dc/elements/1.1/"
   xmlns:cc="http://creativecommons.org/ns#"
   xmlns:rdf="http://www.w3.org/1999/02/22-rdf-syntax-ns#"
   xmlns:svg="http://www.w3.org/2000/svg"
   xmlns="http://www.w3.org/2000/svg"
   xmlns:sodipodi="http://sodipodi.sourceforge.net/DTD/sodipodi-0.dtd"
   xmlns:inkscape="http://www.inkscape.org/namespaces/inkscape"
   width="70mm"
   height="70mm"
   viewBox="1 -63 248.0315 248.0315"
   version="1.1"
   id="svg2"
   inkscape:version="0.91 r13725"
   sodipodi:docname="l8x8c.svg"
   inkscape:export-filename="C:\Users\johns\Desktop\js\lego\l8x8a300a.png"
   inkscape:export-xdpi="300"
   inkscape:export-ydpi="300">
  <metadata
     id="metadata12">
    <rdf:RDF>
      <cc:Work
         rdf:about="">
        <dc:format>image/svg+xml</dc:format>
        <dc:type
           rdf:resource="http://purl.org/dc/dcmitype/StillImage" />
        <dc:title>OpenSCAD Model</dc:title>
      </cc:Work>
    </rdf:RDF>
  </metadata>
  <defs
     id="defs10" />
  <sodipodi:namedview
     pagecolor="#963933"
     bordercolor="#66f166"
     borderopacity="1"
     objecttolerance="10"
     gridtolerance="10"
     guidetolerance="10"
     inkscape:pageopacity="0"
     inkscape:pageshadow="2"
     inkscape:window-width="1366"
     inkscape:window-height="705"
     id="namedview8"
     showgrid="false"
     inkscape:document-units="mm"
     units="mm"
     inkscape:showpageshadow="false"
     borderlayer="false"
     showborder="true"
     fit-margin-top="0"
     fit-margin-left="0"
     fit-margin-right="0"
     fit-margin-bottom="0"
     inkscape:zoom="1"
     inkscape:cx="-150.24268"
     inkscape:cy="104.19618"
     inkscape:window-x="-8"
     inkscape:window-y="-8"
     inkscape:window-maximized="1"
     inkscape:current-layer="svg2" />
  <title
     id="title4">OpenSCAD Model</title>
  <path
     d="m 28.06685,-32.730262 1.624107,-0.722833 1.438261,-1.044934 1.189592,-1.321296 0.888872,-1.539564 0.549389,-1.690863 0.185811,-1.768106 -0.185811,-1.768107 -0.549389,-1.690863 -0.888872,-1.539564 -1.189592,-1.320942 -1.438261,-1.045274 -1.624107,-0.722833 -1.739016,-0.369566 -1.777745,0 -1.73898,0.369566 -1.624107,0.722833 -1.438297,1.045274 -1.189556,1.320942 -0.888908,1.539564 -0.549353,1.690863 -0.185846,1.768107 0.185846,1.768106 0.549353,1.690863 0.888908,1.539564 1.189556,1.321296 1.438297,1.044934 1.624107,0.722833 1.73898,0.36992 1.777745,0 z m 28.346257,0 1.624249,-0.722833 1.438225,-1.044934 1.189486,-1.321296 0.889014,-1.539564 0.549212,-1.690863 0.186023,-1.768106 -0.186023,-1.768107 -0.549212,-1.690863 -0.889014,-1.539564 -1.189486,-1.320942 -1.438225,-1.045274 -1.624249,-0.722833 -1.738697,-0.369566 -1.778028,0 -1.739052,0.369566 -1.623894,0.722833 -1.438225,1.045274 -1.18984,1.320942 -0.88873,1.539564 -0.549353,1.690863 -0.185846,1.768107 0.185846,1.768106 0.549353,1.690863 0.88873,1.539564 1.18984,1.321296 1.438225,1.044934 1.623894,0.722833 1.739052,0.36992 1.778028,0 z m 113.385603,0 1.62425,-0.722833 1.43822,-1.044934 1.18949,-1.321296 0.88901,-1.539564 0.54921,-1.690863 0.18603,-1.768106 -0.18603,-1.768107 -0.54921,-1.690863 -0.88901,-1.539564 -1.18949,-1.320942 -1.43822,-1.045274 -1.62425,-0.722833 -1.7387,-0.369566 -1.77803,0 -1.73905,0.369566 -1.62389,0.722833 -1.43823,1.045274 -1.18984,1.320942 -0.88866,1.539564 -0.54957,1.690863 -0.18566,1.768107 0.18566,1.768106 0.54957,1.690863 0.88866,1.539564 1.18984,1.321296 1.43823,1.044934 1.62389,0.722833 1.73905,0.36992 1.77803,0 z m -28.3464,0 1.62425,-0.722833 1.43822,-1.044934 1.18949,-1.321296 0.88901,-1.539564 0.54921,-1.690863 0.18603,-1.768106 -0.18603,-1.768107 -0.54921,-1.690863 -0.88901,-1.539564 -1.18949,-1.320942 -1.43822,-1.045274 -1.62425,-0.722833 -1.7387,-0.369566 -1.77803,0 -1.73905,0.369566 -1.62389,0.722833 -1.43823,1.045274 -1.18984,1.320942 -0.88866,1.539564 -0.54956,1.690863 -0.18567,1.768107 0.18567,1.768106 0.54956,1.690863 0.88866,1.539564 1.18984,1.321296 1.43823,1.044934 1.62389,0.722833 1.73905,0.36992 1.77803,0 z m -56.692803,0 1.624249,-0.722833 1.438226,-1.044934 1.189485,-1.321296 0.889014,-1.539564 0.549212,-1.690863 0.186023,-1.768106 -0.186023,-1.768107 -0.549212,-1.690863 -0.889014,-1.539564 -1.189485,-1.320942 -1.438226,-1.045274 -1.624249,-0.722833 -1.738697,-0.369566 -1.778028,0 -1.739052,0.369566 -1.623894,0.722833 -1.438225,1.045274 -1.189841,1.320942 -0.888659,1.539564 -0.549566,1.690863 -0.185669,1.768107 0.185669,1.768106 0.549566,1.690863 0.888659,1.539564 1.189841,1.321296 1.438225,1.044934 1.623894,0.722833 1.739052,0.36992 1.778028,0 z m 28.346403,0 1.62425,-0.722833 1.43822,-1.044934 1.18949,-1.321296 0.88901,-1.539564 0.54921,-1.690863 0.18603,-1.768106 -0.18603,-1.768107 -0.54921,-1.690863 -0.88901,-1.539564 -1.18949,-1.320942 -1.43822,-1.045274 -1.62425,-0.722833 -1.7387,-0.369566 -1.77803,0 -1.73905,0.369566 -1.62389,0.722833 -1.43823,1.045274 -1.18984,1.320942 -0.88866,1.539564 -0.54957,1.690863 -0.18566,1.768107 0.18566,1.768106 0.54957,1.690863 0.88866,1.539564 1.18984,1.321296 1.43823,1.044934 1.62389,0.722833 1.73905,0.36992 1.77803,0 z m 85.0392,0 1.62425,-0.722833 1.43822,-1.044934 1.18949,-1.321296 0.88901,-1.539564 0.54921,-1.690863 0.18603,-1.768106 -0.18603,-1.768107 -0.54921,-1.690863 -0.88901,-1.539564 -1.18949,-1.320942 -1.43822,-1.045274 -1.62425,-0.722833 -1.7387,-0.369566 -1.77803,0 -1.73905,0.369566 -1.62389,0.722833 -1.43823,1.045274 -1.18984,1.320942 -0.88866,1.539564 -0.54957,1.690863 -0.18566,1.768107 0.18566,1.768106 0.54957,1.690863 0.88866,1.539564 1.18984,1.321296 1.43823,1.044934 1.62389,0.722833 1.73905,0.36992 1.77803,0 z m 28.3464,0 1.62425,-0.722833 1.43822,-1.044934 1.18949,-1.321296 0.88901,-1.539564 0.54921,-1.690863 0.18603,-1.768106 -0.18603,-1.768107 -0.54921,-1.690863 -0.88901,-1.539564 -1.18949,-1.320942 -1.43822,-1.045274 -1.62425,-0.722833 -1.7387,-0.369566 -1.77803,0 -1.73905,0.369566 -1.62389,0.722833 -1.43823,1.045274 -1.18984,1.320942 -0.88866,1.539564 -0.54957,1.690863 -0.18566,1.768107 0.18566,1.768106 0.54957,1.690863 0.88866,1.539564 1.18984,1.321296 1.43823,1.044934 1.62389,0.722833 1.73905,0.36992 1.77803,0 z m -170.078403,28.3464 1.624249,-0.722833 1.438225,-1.044919 1.189486,-1.3212973 0.889014,-1.539564 0.549212,-1.6908627 0.186023,-1.768106 -0.186023,-1.768107 -0.549212,-1.690863 -0.889014,-1.539564 -1.189486,-1.320942 -1.438225,-1.045273 -1.624249,-0.722834 -1.738697,-0.369566 -1.778028,0 -1.739052,0.369566 -1.623894,0.722834 -1.438225,1.045273 -1.18984,1.320942 -0.88873,1.539564 -0.549353,1.690863 -0.185846,1.768107 0.185846,1.768106 0.549353,1.6908627 0.88873,1.539564 1.18984,1.3212973 1.438225,1.044919 1.623894,0.722833 1.739052,0.36992 1.778028,0 z m 113.385603,0 1.62425,-0.722833 1.43822,-1.044919 1.18949,-1.3212973 0.88901,-1.539564 0.54921,-1.6908627 0.18603,-1.768106 -0.18603,-1.768107 -0.54921,-1.690863 -0.88901,-1.539564 -1.18949,-1.320942 -1.43822,-1.045273 -1.62425,-0.722834 -1.7387,-0.369566 -1.77803,0 -1.73905,0.369566 -1.62389,0.722834 -1.43823,1.045273 -1.18984,1.320942 -0.88866,1.539564 -0.54957,1.690863 -0.18566,1.768107 0.18566,1.768106 0.54957,1.6908627 0.88866,1.539564 1.18984,1.3212973 1.43823,1.044919 1.62389,0.722833 1.73905,0.36992 1.77803,0 z m 56.6928,0 1.62425,-0.722833 1.43822,-1.044919 1.18949,-1.3212973 0.88901,-1.539564 0.54921,-1.6908627 0.18603,-1.768106 -0.18603,-1.768107 -0.54921,-1.690863 -0.88901,-1.539564 -1.18949,-1.320942 -1.43822,-1.045273 -1.62425,-0.722834 -1.7387,-0.369566 -1.77803,0 -1.73905,0.369566 -1.62389,0.722834 -1.43823,1.045273 -1.18984,1.320942 -0.88866,1.539564 -0.54957,1.690863 -0.18566,1.768107 0.18566,1.768106 0.54957,1.6908627 0.88866,1.539564 1.18984,1.3212973 1.43823,1.044919 1.62389,0.722833 1.73905,0.36992 1.77803,0 z m -198.42466,0 1.624107,-0.722833 1.438261,-1.044919 1.189592,-1.3212973 0.888872,-1.539564 0.549389,-1.6908627 0.185811,-1.768106 -0.185811,-1.768107 -0.549389,-1.690863 -0.888872,-1.539564 -1.189592,-1.320942 -1.438261,-1.045273 -1.624107,-0.722834 -1.739016,-0.369566 -1.777745,0 -1.73898,0.369566 -1.624107,0.722834 -1.438297,1.045273 -1.189556,1.320942 -0.888908,1.539564 -0.549353,1.690863 -0.185846,1.768107 0.185846,1.768106 0.549353,1.6908627 0.888908,1.539564 1.189556,1.3212973 1.438297,1.044919 1.624107,0.722833 1.73898,0.36992 1.777745,0 z m 56.692657,0 1.624249,-0.722833 1.438226,-1.044919 1.189485,-1.3212973 0.889014,-1.539564 0.549212,-1.6908627 0.186023,-1.768106 -0.186023,-1.768107 -0.549212,-1.690863 -0.889014,-1.539564 -1.189486,-1.320942 -1.438225,-1.045273 -1.624249,-0.722834 -1.738697,-0.369566 -1.778028,0 -1.739052,0.369566 -1.623894,0.722834 -1.438225,1.045273 -1.189841,1.320942 -0.888659,1.539564 -0.549566,1.690863 -0.185669,1.768107 0.185669,1.768106 0.549566,1.6908627 0.888659,1.539564 1.189841,1.3212973 1.438225,1.044919 1.623894,0.722833 1.739052,0.36992 1.778028,0 z m 28.346403,0 1.62425,-0.722833 1.43822,-1.044919 1.18949,-1.3212973 0.88901,-1.539564 0.54921,-1.6908627 0.18603,-1.768106 -0.18603,-1.768107 -0.54921,-1.690863 -0.88901,-1.539564 -1.18949,-1.320942 -1.43822,-1.045273 -1.62425,-0.722834 -1.7387,-0.369566 -1.77803,0 -1.73905,0.369566 -1.62389,0.722834 -1.43823,1.045273 -1.18984,1.320942 -0.88866,1.539564 -0.54957,1.690863 -0.18566,1.768107 0.18566,1.768106 0.54957,1.6908627 0.88866,1.539564 1.18984,1.3212973 1.43823,1.044919 1.62389,0.722833 1.73905,0.36992 1.77803,0 z m 85.0392,0 1.62425,-0.722833 1.43822,-1.044919 1.18949,-1.3212973 0.88901,-1.539564 0.54921,-1.6908627 0.18603,-1.768106 -0.18603,-1.768107 -0.54921,-1.690863 -0.88901,-1.539564 -1.18949,-1.320942 -1.43822,-1.045273 -1.62425,-0.722834 -1.7387,-0.369566 -1.77803,0 -1.73905,0.369566 -1.62389,0.722834 -1.43823,1.045273 -1.18984,1.320942 -0.88866,1.539564 -0.54956,1.690863 -0.18567,1.768107 0.18567,1.768106 0.54956,1.6908627 0.88866,1.539564 1.18984,1.3212973 1.43823,1.044919 1.62389,0.722833 1.73905,0.36992 1.77803,0 z m -56.6928,0 1.62425,-0.722833 1.43822,-1.044919 1.18949,-1.3212973 0.88901,-1.539564 0.54921,-1.6908627 0.18603,-1.768106 -0.18603,-1.768107 -0.54921,-1.690863 -0.88901,-1.539564 -1.18949,-1.320942 -1.43822,-1.045273 -1.62425,-0.722834 -1.7387,-0.369566 -1.77803,0 -1.73905,0.369566 -1.62389,0.722834 -1.43823,1.045273 -1.18984,1.320942 -0.88866,1.539564 -0.54956,1.690863 -0.18567,1.768107 0.18567,1.768106 0.54956,1.6908627 0.88866,1.539564 1.18984,1.3212973 1.43823,1.044919 1.62389,0.722833 1.73905,0.36992 1.77803,0 z m 0,28.3464 1.62425,-0.722833 1.43822,-1.044919 1.18949,-1.321297 0.88901,-1.539564 0.54921,-1.690863 0.18603,-1.768106 -0.18603,-1.768107 -0.54921,-1.690863 -0.88901,-1.539564 -1.18949,-1.320942 -1.43822,-1.045273 -1.62425,-0.722834 -1.7387,-0.369566 -1.77803,0 -1.73905,0.369566 -1.62389,0.722834 -1.43823,1.045273 -1.18984,1.320942 -0.88866,1.539564 -0.54956,1.690863 -0.18567,1.768107 0.18567,1.768106 0.54956,1.690863 0.88866,1.539564 1.18984,1.321297 1.43823,1.044919 1.62389,0.722833 1.73905,0.36992 1.77803,0 z m 85.0392,0 1.62425,-0.722833 1.43822,-1.044919 1.18949,-1.321297 0.88901,-1.539564 0.54921,-1.690863 0.18603,-1.768106 -0.18603,-1.768107 -0.54921,-1.690863 -0.88901,-1.539564 -1.18949,-1.320942 -1.43822,-1.045273 -1.62425,-0.722834 -1.7387,-0.369566 -1.77803,0 -1.73905,0.369566 -1.62389,0.722834 -1.43823,1.045273 -1.18984,1.320942 -0.88866,1.539564 -0.54957,1.690863 -0.18566,1.768107 0.18566,1.768106 0.54957,1.690863 0.88866,1.539564 1.18984,1.321297 1.43823,1.044919 1.62389,0.722833 1.73905,0.36992 1.77803,0 z m -170.078403,0 1.624249,-0.722833 1.438225,-1.044919 1.189486,-1.321297 0.889014,-1.539564 0.549212,-1.690863 0.186023,-1.768106 L 62.103293,14.106849 61.554081,12.415986 60.665067,10.876422 59.475581,9.55548 58.037356,8.510207 56.413107,7.787373 54.67441,7.417807 l -1.778028,0 -1.739052,0.369566 -1.623894,0.722834 -1.438225,1.045273 -1.18984,1.320942 -0.88873,1.539564 -0.549353,1.690863 -0.185846,1.768107 0.185846,1.768106 0.549353,1.690863 0.88873,1.539564 1.18984,1.321297 1.438225,1.044919 1.623894,0.722833 1.739052,0.36992 1.778028,0 z m -28.346257,0 1.624107,-0.722833 1.438261,-1.044919 1.189592,-1.321297 0.888872,-1.539564 0.549389,-1.690863 0.185811,-1.768106 L 33.757071,14.106849 33.207682,12.415986 32.31881,10.876422 31.129218,9.55548 29.690957,8.510207 28.06685,7.787373 26.327834,7.417807 l -1.777745,0 -1.73898,0.369566 -1.624107,0.722834 -1.438297,1.045273 -1.189556,1.320942 -0.888908,1.539564 -0.549353,1.690863 -0.185846,1.768107 0.185846,1.768106 0.549353,1.690863 0.888908,1.539564 1.189556,1.321297 1.438297,1.044919 1.624107,0.722833 1.73898,0.36992 1.777745,0 z m 56.692657,0 1.624249,-0.722833 1.438225,-1.044919 1.189486,-1.321297 0.889014,-1.539564 0.549212,-1.690863 0.186023,-1.768106 L 90.449693,14.106849 89.900481,12.415986 89.011467,10.876422 87.821981,9.55548 86.383756,8.510207 84.759507,7.787373 83.02081,7.417807 l -1.778028,0 -1.739052,0.369566 -1.623894,0.722834 -1.438225,1.045273 -1.189841,1.320942 -0.888659,1.539564 -0.549566,1.690863 -0.185669,1.768107 0.185669,1.768106 0.549566,1.690863 0.888659,1.539564 1.189841,1.321297 1.438225,1.044919 1.623894,0.722833 1.739052,0.36992 1.778028,0 z m 113.385603,0 1.62425,-0.722833 1.43822,-1.044919 1.18949,-1.321297 0.88901,-1.539564 0.54921,-1.690863 0.18603,-1.768106 -0.18603,-1.768107 -0.54921,-1.690863 -0.88901,-1.539564 -1.18949,-1.320942 -1.43822,-1.045273 -1.62425,-0.722834 -1.7387,-0.369566 -1.77803,0 -1.73905,0.369566 -1.62389,0.722834 -1.43823,1.045273 -1.18984,1.320942 -0.88866,1.539564 -0.54957,1.690863 -0.18566,1.768107 0.18566,1.768106 0.54957,1.690863 0.88866,1.539564 1.18984,1.321297 1.43823,1.044919 1.62389,0.722833 1.73905,0.36992 1.77803,0 z m -85.0392,0 1.62425,-0.722833 1.43822,-1.044919 1.18949,-1.321297 0.88901,-1.539564 0.54921,-1.690863 0.18603,-1.768106 -0.18603,-1.768107 -0.54921,-1.690863 -0.88901,-1.539564 -1.18949,-1.320942 -1.43822,-1.045273 -1.62425,-0.722834 -1.7387,-0.369566 -1.77803,0 -1.73905,0.369566 -1.62389,0.722834 -1.43823,1.045273 -1.18984,1.320942 -0.88866,1.539564 -0.54957,1.690863 -0.18566,1.768107 0.18566,1.768106 0.54957,1.690863 0.88866,1.539564 1.18984,1.321297 1.43823,1.044919 1.62389,0.722833 1.73905,0.36992 1.77803,0 z m 56.6928,0 1.62425,-0.722833 1.43822,-1.044919 1.18949,-1.321297 0.88901,-1.539564 0.54921,-1.690863 0.18603,-1.768106 -0.18603,-1.768107 -0.54921,-1.690863 -0.88901,-1.539564 -1.18949,-1.320942 -1.43822,-1.045273 -1.62425,-0.722834 -1.7387,-0.369566 -1.77803,0 -1.73905,0.369566 -1.62389,0.722834 -1.43823,1.045273 -1.18984,1.320942 -0.88866,1.539564 -0.54957,1.690863 -0.18566,1.768107 0.18566,1.768106 0.54957,1.690863 0.88866,1.539564 1.18984,1.321297 1.43823,1.044919 1.62389,0.722833 1.73905,0.36992 1.77803,0 z m -56.6928,28.346399 1.62425,-0.72283 1.43822,-1.04492 1.18949,-1.3213 0.88901,-1.53956 0.54921,-1.69086 0.18603,-1.76811 -0.18603,-1.76811 -0.54921,-1.69086 -0.88901,-1.53956 -1.18949,-1.32095 -1.43822,-1.04527 -1.62425,-0.72283 -1.7387,-0.36957 -1.77803,0 -1.73905,0.36957 -1.62389,0.72283 -1.43823,1.04527 -1.18984,1.32095 -0.88866,1.53956 -0.54957,1.69086 -0.18566,1.76811 0.18566,1.76811 0.54957,1.69086 0.88866,1.53956 1.18984,1.3213 1.43823,1.04492 1.62389,0.72283 1.73905,0.36992 1.77803,0 z m 56.6928,0 1.62425,-0.72283 1.43822,-1.04492 1.18949,-1.3213 0.88901,-1.53956 0.54921,-1.69086 0.18603,-1.76811 -0.18603,-1.76811 -0.54921,-1.69086 -0.88901,-1.53956 -1.18949,-1.32095 -1.43822,-1.04527 -1.62425,-0.72283 -1.7387,-0.36957 -1.77803,0 -1.73905,0.36957 -1.62389,0.72283 -1.43823,1.04527 -1.18984,1.32095 -0.88866,1.53956 -0.54957,1.69086 -0.18566,1.76811 0.18566,1.76811 0.54957,1.69086 0.88866,1.53956 1.18984,1.3213 1.43823,1.04492 1.62389,0.72283 1.73905,0.36992 1.77803,0 z m -141.73186,0 1.624107,-0.72283 1.438261,-1.04492 1.189592,-1.3213 0.888872,-1.53956 0.549389,-1.69086 0.185811,-1.76811 -0.185811,-1.76811 -0.549389,-1.69086 -0.888872,-1.53956 -1.189592,-1.32095 -1.438261,-1.04527 -1.624107,-0.72283 -1.739016,-0.36957 -1.777745,0 -1.73898,0.36957 -1.624107,0.72283 -1.438297,1.04527 -1.189556,1.32095 -0.888908,1.53956 -0.549353,1.69086 -0.185846,1.76811 0.185846,1.76811 0.549353,1.69086 0.888908,1.53956 1.189556,1.3213 1.438297,1.04492 1.624107,0.72283 1.73898,0.36992 1.777745,0 z m 198.42466,0 1.62425,-0.72283 1.43822,-1.04492 1.18949,-1.3213 0.88901,-1.53956 0.54921,-1.69086 0.18603,-1.76811 -0.18603,-1.76811 -0.54921,-1.69086 -0.88901,-1.53956 -1.18949,-1.32095 -1.43822,-1.04527 -1.62425,-0.72283 -1.7387,-0.36957 -1.77803,0 -1.73905,0.36957 -1.62389,0.72283 -1.43823,1.04527 -1.18984,1.32095 -0.88866,1.53956 -0.54957,1.69086 -0.18566,1.76811 0.18566,1.76811 0.54957,1.69086 0.88866,1.53956 1.18984,1.3213 1.43823,1.04492 1.62389,0.72283 1.73905,0.36992 1.77803,0 z m -85.0392,0 1.62425,-0.72283 1.43822,-1.04492 1.18949,-1.3213 0.88901,-1.53956 0.54921,-1.69086 0.18603,-1.76811 -0.18603,-1.76811 -0.54921,-1.69086 -0.88901,-1.53956 -1.18949,-1.32095 -1.43822,-1.04527 -1.62425,-0.72283 -1.7387,-0.36957 -1.77803,0 -1.73905,0.36957 -1.62389,0.72283 -1.43823,1.04527 -1.18984,1.32095 -0.88866,1.53956 -0.54957,1.69086 -0.18566,1.76811 0.18566,1.76811 0.54957,1.69086 0.88866,1.53956 1.18984,1.3213 1.43823,1.04492 1.62389,0.72283 1.73905,0.36992 1.77803,0 z m -85.039203,0 1.624249,-0.72283 1.438225,-1.04492 1.189486,-1.3213 0.889014,-1.53956 0.549212,-1.69086 0.186023,-1.76811 -0.186023,-1.76811 -0.549212,-1.69086 -0.889014,-1.53956 -1.189486,-1.32095 -1.438225,-1.04527 -1.624249,-0.72283 -1.738697,-0.36957 -1.778028,0 -1.739052,0.36957 -1.623894,0.72283 -1.438225,1.04527 -1.18984,1.32095 -0.88873,1.53956 -0.549353,1.69086 -0.185846,1.76811 0.185846,1.76811 0.549353,1.69086 0.88873,1.53956 1.18984,1.3213 1.438225,1.04492 1.623894,0.72283 1.739052,0.36992 1.778028,0 z m 28.3464,0 1.624249,-0.72283 1.438225,-1.04492 1.189486,-1.3213 0.889014,-1.53956 0.549212,-1.69086 0.186023,-1.76811 -0.186023,-1.76811 -0.549212,-1.69086 -0.889014,-1.53956 -1.189486,-1.32095 -1.438225,-1.04527 -1.624249,-0.72283 -1.738697,-0.36957 -1.778028,0 -1.739052,0.36957 -1.623894,0.72283 -1.438225,1.04527 -1.189841,1.32095 -0.888659,1.53956 -0.549566,1.69086 -0.185669,1.76811 0.185669,1.76811 0.549566,1.69086 0.888659,1.53956 1.189841,1.3213 1.438225,1.04492 1.623894,0.72283 1.739052,0.36992 1.778028,0 z m 113.385603,0 1.62425,-0.72283 1.43822,-1.04492 1.18949,-1.3213 0.88901,-1.53956 0.54921,-1.69086 0.18603,-1.76811 -0.18603,-1.76811 -0.54921,-1.69086 -0.88901,-1.53956 -1.18949,-1.32095 -1.43822,-1.04527 -1.62425,-0.72283 -1.7387,-0.36957 -1.77803,0 -1.73905,0.36957 -1.62389,0.72283 -1.43823,1.04527 -1.18984,1.32095 -0.88866,1.53956 -0.54957,1.69086 -0.18566,1.76811 0.18566,1.76811 0.54957,1.69086 0.88866,1.53956 1.18984,1.3213 1.43823,1.04492 1.62389,0.72283 1.73905,0.36992 1.77803,0 z m -56.6928,28.3464 1.62425,-0.72283 1.43822,-1.04492 1.18949,-1.3213 0.88901,-1.53956 0.54921,-1.69086 0.18603,-1.76811 -0.18603,-1.76811 -0.54921,-1.69086 -0.88901,-1.53956 -1.18949,-1.32095 -1.43822,-1.04527 -1.62425,-0.72283 -1.7387,-0.36957 -1.77803,0 -1.73905,0.36957 -1.62389,0.72283 -1.43823,1.04527 -1.18984,1.32095 -0.88866,1.53956 -0.54957,1.69086 -0.18566,1.76811 0.18566,1.76811 0.54957,1.69086 0.88866,1.53956 1.18984,1.3213 1.43823,1.04492 1.62389,0.72283 1.73905,0.36992 1.77803,0 z m 56.6928,0 1.62425,-0.72283 1.43822,-1.04492 1.18949,-1.3213 0.88901,-1.53956 0.54921,-1.69086 0.18603,-1.76811 -0.18603,-1.76811 -0.54921,-1.69086 -0.88901,-1.53956 -1.18949,-1.32095 -1.43822,-1.04527 -1.62425,-0.72283 -1.7387,-0.36957 -1.77803,0 -1.73905,0.36957 -1.62389,0.72283 -1.43823,1.04527 -1.18984,1.32095 -0.88866,1.53956 -0.54957,1.69086 -0.18566,1.76811 0.18566,1.76811 0.54957,1.69086 0.88866,1.53956 1.18984,1.3213 1.43823,1.04492 1.62389,0.72283 1.73905,0.36992 1.77803,0 z m 28.3464,0 1.62425,-0.72283 1.43822,-1.04492 1.18949,-1.3213 0.88901,-1.53956 0.54921,-1.69086 0.18603,-1.76811 -0.18603,-1.76811 -0.54921,-1.69086 -0.88901,-1.53956 -1.18949,-1.32095 -1.43822,-1.04527 -1.62425,-0.72283 -1.7387,-0.36957 -1.77803,0 -1.73905,0.36957 -1.62389,0.72283 -1.43823,1.04527 -1.18984,1.32095 -0.88866,1.53956 -0.54957,1.69086 -0.18566,1.76811 0.18566,1.76811 0.54957,1.69086 0.88866,1.53956 1.18984,1.3213 1.43823,1.04492 1.62389,0.72283 1.73905,0.36992 1.77803,0 z m -113.3856,0 1.62425,-0.72283 1.43822,-1.04492 1.18949,-1.3213 0.88901,-1.53956 0.54921,-1.69086 0.18603,-1.76811 -0.18603,-1.76811 -0.54921,-1.69086 -0.88901,-1.53956 -1.18949,-1.32095 -1.43822,-1.04527 -1.62425,-0.72283 -1.7387,-0.36957 -1.77803,0 -1.73905,0.36957 -1.62389,0.72283 -1.43823,1.04527 -1.18984,1.32095 -0.88866,1.53956 -0.54957,1.69086 -0.18566,1.76811 0.18566,1.76811 0.54957,1.69086 0.88866,1.53956 1.18984,1.3213 1.43823,1.04492 1.62389,0.72283 1.73905,0.36992 1.77803,0 z m -56.692803,0 1.624249,-0.72283 1.438225,-1.04492 1.189486,-1.3213 0.889014,-1.53956 0.549212,-1.69086 0.186023,-1.76811 -0.186023,-1.76811 -0.549212,-1.69086 -0.889014,-1.53956 -1.189486,-1.32095 -1.438225,-1.04527 -1.624249,-0.72283 -1.738697,-0.36957 -1.778028,0 -1.739052,0.36957 -1.623894,0.72283 -1.438225,1.04527 -1.18984,1.32095 -0.88873,1.53956 -0.549353,1.69086 -0.185846,1.76811 0.185846,1.76811 0.549353,1.69086 0.88873,1.53956 1.18984,1.3213 1.438225,1.04492 1.623894,0.72283 1.739052,0.36992 1.778028,0 z m 28.3464,0 1.624249,-0.72283 1.438225,-1.04492 1.189486,-1.3213 0.889014,-1.53956 0.549212,-1.69086 0.186023,-1.76811 -0.186023,-1.76811 -0.549212,-1.69086 -0.889014,-1.53956 -1.189486,-1.32095 -1.438225,-1.04527 -1.624249,-0.72283 -1.738697,-0.36957 -1.778028,0 -1.739052,0.36957 -1.623894,0.72283 -1.438225,1.04527 -1.189841,1.32095 -0.888659,1.53956 -0.549566,1.69086 -0.185669,1.76811 0.185669,1.76811 0.549566,1.69086 0.888659,1.53956 1.189841,1.3213 1.438225,1.04492 1.623894,0.72283 1.739052,0.36992 1.778028,0 z m -56.692657,0 1.624107,-0.72283 1.438261,-1.04492 1.189592,-1.3213 0.888872,-1.53956 0.549389,-1.69086 0.185811,-1.76811 -0.185811,-1.76811 -0.549389,-1.69086 -0.888872,-1.53956 -1.189592,-1.32095 -1.438261,-1.04527 -1.624107,-0.72283 -1.739016,-0.36957 -1.777745,0 -1.73898,0.36957 -1.624107,0.72283 -1.438297,1.04527 -1.189556,1.32095 -0.888908,1.53956 -0.549353,1.69086 -0.185846,1.76811 0.185846,1.76811 0.549353,1.69086 0.888908,1.53956 1.189556,1.3213 1.438297,1.04492 1.624107,0.72283 1.73898,0.36992 1.777745,0 z m 141.73186,0 1.62425,-0.72283 1.43822,-1.04492 1.18949,-1.3213 0.88901,-1.53956 0.54921,-1.69086 0.18603,-1.76811 -0.18603,-1.76811 -0.54921,-1.69086 -0.88901,-1.53956 -1.18949,-1.32095 -1.43822,-1.04527 -1.62425,-0.72283 -1.7387,-0.36957 -1.77803,0 -1.73905,0.36957 -1.62389,0.72283 -1.43823,1.04527 -1.18984,1.32095 -0.88866,1.53956 -0.54957,1.69086 -0.18566,1.76811 0.18566,1.76811 0.54957,1.69086 0.88866,1.53956 1.18984,1.3213 1.43823,1.04492 1.62389,0.72283 1.73905,0.36992 1.77803,0 z m -56.6928,28.346403 1.62425,-0.72283 1.43822,-1.04492 1.18949,-1.3213 0.88901,-1.53956 0.54921,-1.69086 0.18603,-1.76811 -0.18603,-1.76811 -0.54921,-1.69086 -0.88901,-1.53956 -1.18949,-1.32095 -1.43822,-1.04527 -1.62425,-0.72283 -1.7387,-0.36957 -1.77803,0 -1.73905,0.36957 -1.62389,0.72283 -1.43823,1.04527 -1.18984,1.32095 -0.88866,1.53956 -0.54957,1.69086 -0.18566,1.76811 0.18566,1.76811 0.54957,1.69086 0.88866,1.53956 1.18984,1.3213 1.43823,1.04492 1.62389,0.72283 1.73905,0.36992 1.77803,0 z m 28.3464,0 1.62425,-0.72283 1.43822,-1.04492 1.18949,-1.3213 0.88901,-1.53956 0.54921,-1.69086 0.18603,-1.76811 -0.18603,-1.76811 -0.54921,-1.69086 -0.88901,-1.53956 -1.18949,-1.32095 -1.43822,-1.04527 -1.62425,-0.72283 -1.7387,-0.36957 -1.77803,0 -1.73905,0.36957 -1.62389,0.72283 -1.43823,1.04527 -1.18984,1.32095 -0.88866,1.53956 -0.54957,1.69086 -0.18566,1.76811 0.18566,1.76811 0.54957,1.69086 0.88866,1.53956 1.18984,1.3213 1.43823,1.04492 1.62389,0.72283 1.73905,0.36992 1.77803,0 z m 85.0392,0 1.62425,-0.72283 1.43822,-1.04492 1.18949,-1.3213 0.88901,-1.53956 0.54921,-1.69086 0.18603,-1.76811 -0.18603,-1.76811 -0.54921,-1.69086 -0.88901,-1.53956 -1.18949,-1.32095 -1.43822,-1.04527 -1.62425,-0.72283 -1.7387,-0.36957 -1.77803,0 -1.73905,0.36957 -1.62389,0.72283 -1.43823,1.04527 -1.18984,1.32095 -0.88866,1.53956 -0.54957,1.69086 -0.18566,1.76811 0.18566,1.76811 0.54957,1.69086 0.88866,1.53956 1.18984,1.3213 1.43823,1.04492 1.62389,0.72283 1.73905,0.36992 1.77803,0 z m -141.732003,0 1.624249,-0.72283 1.438225,-1.04492 1.189486,-1.3213 0.889014,-1.53956 0.549212,-1.69086 0.186023,-1.76811 -0.186023,-1.76811 -0.549212,-1.69086 -0.889014,-1.53956 -1.189486,-1.32095 -1.438225,-1.04527 -1.624249,-0.72283 -1.738697,-0.36957 -1.778028,0 -1.739052,0.36957 -1.623894,0.72283 -1.438225,1.04527 -1.189841,1.32095 -0.888659,1.53956 -0.549566,1.69086 -0.185669,1.76811 0.185669,1.76811 0.549566,1.69086 0.888659,1.53956 1.189841,1.3213 1.438225,1.04492 1.623894,0.72283 1.739052,0.36992 1.778028,0 z m -28.3464,0 1.624249,-0.72283 1.438225,-1.04492 1.189486,-1.3213 0.889014,-1.53956 0.549212,-1.69086 0.186023,-1.76811 -0.186023,-1.76811 -0.549212,-1.69086 -0.889014,-1.53956 -1.189486,-1.32095 -1.438225,-1.04527 -1.624249,-0.72283 -1.738697,-0.36957 -1.778028,0 -1.739052,0.36957 -1.623894,0.72283 -1.438225,1.04527 -1.18984,1.32095 -0.88873,1.53956 -0.549353,1.69086 -0.185846,1.76811 0.185846,1.76811 0.549353,1.69086 0.88873,1.53956 1.18984,1.3213 1.438225,1.04492 1.623894,0.72283 1.739052,0.36992 1.778028,0 z m 141.732003,0 1.62425,-0.72283 1.43822,-1.04492 1.18949,-1.3213 0.88901,-1.53956 0.54921,-1.69086 0.18603,-1.76811 -0.18603,-1.76811 -0.54921,-1.69086 -0.88901,-1.53956 -1.18949,-1.32095 -1.43822,-1.04527 -1.62425,-0.72283 -1.7387,-0.36957 -1.77803,0 -1.73905,0.36957 -1.62389,0.72283 -1.43823,1.04527 -1.18984,1.32095 -0.88866,1.53956 -0.54957,1.69086 -0.18566,1.76811 0.18566,1.76811 0.54957,1.69086 0.88866,1.53956 1.18984,1.3213 1.43823,1.04492 1.62389,0.72283 1.73905,0.36992 1.77803,0 z m -170.07826,0 1.624107,-0.72283 1.438261,-1.04492 1.189592,-1.3213 0.888872,-1.53956 0.549389,-1.69086 0.185811,-1.76811 -0.185811,-1.76811 -0.549389,-1.69086 -0.888872,-1.53956 -1.189592,-1.32095 -1.438261,-1.04527 -1.624107,-0.72283 -1.739016,-0.36957 -1.777745,0 -1.73898,0.36957 -1.624107,0.72283 -1.438297,1.04527 -1.189556,1.32095 -0.888908,1.53956 -0.549353,1.69086 -0.185846,1.76811 0.185846,1.76811 0.549353,1.69086 0.888908,1.53956 1.189556,1.3213 1.438297,1.04492 1.624107,0.72283 1.73898,0.36992 1.777745,0 z m 141.73186,0 1.62425,-0.72283 1.43822,-1.04492 1.18949,-1.3213 0.88901,-1.53956 0.54921,-1.69086 0.18603,-1.76811 -0.18603,-1.76811 -0.54921,-1.69086 -0.88901,-1.53956 -1.18949,-1.32095 -1.43822,-1.04527 -1.62425,-0.72283 -1.7387,-0.36957 -1.77803,0 -1.73905,0.36957 -1.62389,0.72283 -1.43823,1.04527 -1.18984,1.32095 -0.88866,1.53956 -0.54957,1.69086 -0.18566,1.76811 0.18566,1.76811 0.54957,1.69086 0.88866,1.53956 1.18984,1.3213 1.43823,1.04492 1.62389,0.72283 1.73905,0.36992 1.77803,0 z m -85.039203,28.34658 1.624249,-0.72315 1.438225,-1.04478 1.189486,-1.3213 0.889014,-1.53956 0.549212,-1.69086 0.186023,-1.76811 -0.186023,-1.76811 -0.549212,-1.69086 -0.889014,-1.53956 -1.189486,-1.32095 -1.438225,-1.04527 -1.624249,-0.72283 -1.738697,-0.36957 -1.778028,0 -1.739052,0.36957 -1.623894,0.72283 -1.438225,1.04527 -1.189841,1.32095 -0.888659,1.53956 -0.549566,1.69086 -0.185669,1.76811 0.185669,1.76811 0.549566,1.69086 0.888659,1.53956 1.189841,1.3213 1.438225,1.04478 1.623894,0.72315 1.739052,0.3696 1.778028,0 z m -28.3464,0 1.624249,-0.72315 1.438225,-1.04478 1.189486,-1.3213 0.889014,-1.53956 0.549212,-1.69086 0.186023,-1.76811 -0.186023,-1.76811 -0.549212,-1.69086 -0.889014,-1.53956 -1.189486,-1.32095 -1.438225,-1.04527 -1.624249,-0.72283 -1.738697,-0.36957 -1.778028,0 -1.739052,0.36957 -1.623894,0.72283 -1.438225,1.04527 -1.18984,1.32095 -0.88873,1.53956 -0.549353,1.69086 -0.185846,1.76811 0.185846,1.76811 0.549353,1.69086 0.88873,1.53956 1.18984,1.3213 1.438225,1.04478 1.623894,0.72315 1.739052,0.3696 1.778028,0 z m 85.039203,0 1.62425,-0.72315 1.43822,-1.04478 1.18949,-1.3213 0.88901,-1.53956 0.54921,-1.69086 0.18603,-1.76811 -0.18603,-1.76811 -0.54921,-1.69086 -0.88901,-1.53956 -1.18949,-1.32095 -1.43822,-1.04527 -1.62425,-0.72283 -1.7387,-0.36957 -1.77803,0 -1.73905,0.36957 -1.62389,0.72283 -1.43823,1.04527 -1.18984,1.32095 -0.88866,1.53956 -0.54957,1.69086 -0.18566,1.76811 0.18566,1.76811 0.54957,1.69086 0.88866,1.53956 1.18984,1.3213 1.43823,1.04478 1.62389,0.72315 1.73905,0.3696 1.77803,0 z m -28.3464,0 1.62425,-0.72315 1.43822,-1.04478 1.18949,-1.3213 0.88901,-1.53956 0.54921,-1.69086 0.18603,-1.76811 -0.18603,-1.76811 -0.54921,-1.69086 -0.88901,-1.53956 -1.18949,-1.32095 -1.43822,-1.04527 -1.62425,-0.72283 -1.7387,-0.36957 -1.77803,0 -1.73905,0.36957 -1.62389,0.72283 -1.43823,1.04527 -1.18984,1.32095 -0.88866,1.53956 -0.54957,1.69086 -0.18566,1.76811 0.18566,1.76811 0.54957,1.69086 0.88866,1.53956 1.18984,1.3213 1.43823,1.04478 1.62389,0.72315 1.73905,0.3696 1.77803,0 z m -85.03906,0 1.624107,-0.72315 1.438261,-1.04478 1.189592,-1.3213 0.888872,-1.53956 0.549389,-1.69086 0.185811,-1.76811 -0.185811,-1.76811 -0.549389,-1.69086 -0.888872,-1.53956 -1.189592,-1.32095 -1.438261,-1.04527 -1.624107,-0.72283 -1.739016,-0.36957 -1.777745,0 -1.73898,0.36957 -1.624107,0.72283 -1.438297,1.04527 -1.189556,1.32095 -0.888908,1.53956 -0.549353,1.69086 -0.185846,1.76811 0.185846,1.76811 0.549353,1.69086 0.888908,1.53956 1.189556,1.3213 1.438297,1.04478 1.624107,0.72315 1.73898,0.3696 1.777745,0 z m 170.07826,0 1.62425,-0.72315 1.43822,-1.04478 1.18949,-1.3213 0.88901,-1.53956 0.54921,-1.69086 0.18603,-1.76811 -0.18603,-1.76811 -0.54921,-1.69086 -0.88901,-1.53956 -1.18949,-1.32095 -1.43822,-1.04527 -1.62425,-0.72283 -1.7387,-0.36957 -1.77803,0 -1.73905,0.36957 -1.62389,0.72283 -1.43823,1.04527 -1.18984,1.32095 -0.88866,1.53956 -0.54957,1.69086 -0.18566,1.76811 0.18566,1.76811 0.54957,1.69086 0.88866,1.53956 1.18984,1.3213 1.43823,1.04478 1.62389,0.72315 1.73905,0.3696 1.77803,0 z m 28.3464,0 1.62425,-0.72315 1.43822,-1.04478 1.18949,-1.3213 0.88901,-1.53956 0.54921,-1.69086 0.18603,-1.76811 -0.18603,-1.76811 -0.54921,-1.69086 -0.88901,-1.53956 -1.18949,-1.32095 -1.43822,-1.04527 -1.62425,-0.72283 -1.7387,-0.36957 -1.77803,0 -1.73905,0.36957 -1.62389,0.72283 -1.43823,1.04527 -1.18984,1.32095 -0.88866,1.53956 -0.54957,1.69086 -0.18566,1.76811 0.18566,1.76811 0.54957,1.69086 0.88866,1.53956 1.18984,1.3213 1.43823,1.04478 1.62389,0.72315 1.73905,0.3696 1.77803,0 z m -56.6928,0 1.62425,-0.72315 1.43822,-1.04478 1.18949,-1.3213 0.88901,-1.53956 0.54921,-1.69086 0.18603,-1.76811 -0.18603,-1.76811 -0.54921,-1.69086 -0.88901,-1.53956 -1.18949,-1.32095 -1.43822,-1.04527 -1.62425,-0.72283 -1.7387,-0.36957 -1.77803,0 -1.73905,0.36957 -1.62389,0.72283 -1.43823,1.04527 -1.18984,1.32095 -0.88866,1.53956 -0.54957,1.69086 -0.18566,1.76811 0.18566,1.76811 0.54957,1.69086 0.88866,1.53956 1.18984,1.3213 1.43823,1.04478 1.62389,0.72315 1.73905,0.3696 1.77803,0 z m 28.3464,28.3464 1.62425,-0.72308 1.43822,-1.04503 1.18949,-1.32115 0.88901,-1.5396 0.54921,-1.69083 0.18603,-1.76807 -0.18603,-1.76804 -0.54921,-1.69082 -0.88901,-1.5396 -1.18949,-1.32116 -1.43822,-1.04499 -1.62425,-0.72308 -1.7387,-0.3696 -1.77803,0 -1.73905,0.3696 -1.62389,0.72308 -1.43823,1.04499 -1.18984,1.32116 -0.88866,1.5396 -0.54957,1.69082 -0.18566,1.76804 0.18566,1.76807 0.54957,1.69083 0.88866,1.5396 1.18984,1.32115 1.43823,1.04503 1.62389,0.72308 1.73905,0.3696 1.77803,0 z m -113.385603,0 1.624249,-0.72308 1.438225,-1.04503 1.189486,-1.32115 0.889014,-1.5396 0.549212,-1.69083 0.186023,-1.76807 -0.186023,-1.76804 -0.549212,-1.69082 -0.889014,-1.5396 -1.189486,-1.32116 -1.438225,-1.04499 -1.624249,-0.72308 -1.738697,-0.3696 -1.778028,0 -1.739052,0.3696 -1.623894,0.72308 -1.438225,1.04499 -1.189841,1.32116 -0.888659,1.5396 -0.549566,1.69082 -0.185669,1.76804 0.185669,1.76807 0.549566,1.69083 0.888659,1.5396 1.189841,1.32115 1.438225,1.04503 1.623894,0.72308 1.739052,0.3696 1.778028,0 z m 141.732003,0 1.62425,-0.72308 1.43822,-1.04503 1.18949,-1.32115 0.88901,-1.5396 0.54921,-1.69083 0.18603,-1.76807 -0.18603,-1.76804 -0.54921,-1.69082 -0.88901,-1.5396 -1.18949,-1.32116 -1.43822,-1.04499 -1.62425,-0.72308 -1.7387,-0.3696 -1.77803,0 -1.73905,0.3696 -1.62389,0.72308 -1.43823,1.04499 -1.18984,1.32116 -0.88866,1.5396 -0.54957,1.69082 -0.18566,1.76804 0.18566,1.76807 0.54957,1.69083 0.88866,1.5396 1.18984,1.32115 1.43823,1.04503 1.62389,0.72308 1.73905,0.3696 1.77803,0 z m -170.078403,0 1.624249,-0.72308 1.438225,-1.04503 1.189486,-1.32115 0.889014,-1.5396 0.549212,-1.69083 0.186023,-1.76807 -0.186023,-1.76804 -0.549212,-1.69082 -0.889014,-1.5396 -1.189486,-1.32116 -1.438225,-1.04499 -1.624249,-0.72308 -1.738697,-0.3696 -1.778028,0 -1.739052,0.3696 -1.623894,0.72308 -1.438225,1.04499 -1.18984,1.32116 -0.88873,1.5396 -0.549353,1.69082 -0.185846,1.76804 0.185846,1.76807 0.549353,1.69083 0.88873,1.5396 1.18984,1.32115 1.438225,1.04503 1.623894,0.72308 1.739052,0.3696 1.778028,0 z m 85.039203,0 1.62425,-0.72308 1.43822,-1.04503 1.18949,-1.32115 0.88901,-1.5396 0.54921,-1.69083 0.18603,-1.76807 -0.18603,-1.76804 -0.54921,-1.69082 -0.88901,-1.5396 -1.18949,-1.32116 -1.43822,-1.04499 -1.62425,-0.72308 -1.7387,-0.3696 -1.77803,0 -1.73905,0.3696 -1.62389,0.72308 -1.43823,1.04499 -1.18984,1.32116 -0.88866,1.5396 -0.54957,1.69082 -0.18566,1.76804 0.18566,1.76807 0.54957,1.69083 0.88866,1.5396 1.18984,1.32115 1.43823,1.04503 1.62389,0.72308 1.73905,0.3696 1.77803,0 z m -113.38546,0 1.624107,-0.72308 1.438261,-1.04503 1.189592,-1.32115 0.888872,-1.5396 0.549389,-1.69083 0.185811,-1.76807 -0.185811,-1.76804 -0.549389,-1.69082 -0.888872,-1.5396 -1.189592,-1.32116 -1.438261,-1.04499 -1.624107,-0.72308 -1.739016,-0.3696 -1.777745,0 -1.73898,0.3696 -1.624107,0.72308 -1.438297,1.04499 -1.189556,1.32116 -0.888908,1.5396 -0.549353,1.69082 -0.185846,1.76804 0.185846,1.76807 0.549353,1.69083 0.888908,1.5396 1.189556,1.32115 1.438297,1.04503 1.624107,0.72308 1.73898,0.3696 1.777745,0 z m 85.03906,0 1.62425,-0.72308 1.43822,-1.04503 1.18949,-1.32115 0.88901,-1.5396 0.54921,-1.69083 0.18603,-1.76807 -0.18603,-1.76804 -0.54921,-1.69082 -0.88901,-1.5396 -1.18949,-1.32116 -1.43822,-1.04499 -1.62425,-0.72308 -1.7387,-0.3696 -1.77803,0 -1.73905,0.3696 -1.62389,0.72308 -1.43823,1.04499 -1.18984,1.32116 -0.88866,1.5396 -0.54957,1.69082 -0.18566,1.76804 0.18566,1.76807 0.54957,1.69083 0.88866,1.5396 1.18984,1.32115 1.43823,1.04503 1.62389,0.72308 1.73905,0.3696 1.77803,0 z m 56.6928,0 1.62425,-0.72308 1.43822,-1.04503 1.18949,-1.32115 0.88901,-1.5396 0.54921,-1.69083 0.18603,-1.76807 -0.18603,-1.76804 -0.54921,-1.69082 -0.88901,-1.5396 -1.18949,-1.32116 -1.43822,-1.04499 -1.62425,-0.72308 -1.7387,-0.3696 -1.77803,0 -1.73905,0.3696 -1.62389,0.72308 -1.43823,1.04499 -1.18984,1.32116 -0.88866,1.5396 -0.54957,1.69082 -0.18566,1.76804 0.18566,1.76807 0.54957,1.69083 0.88866,1.5396 1.18984,1.32115 1.43823,1.04503 1.62389,0.72308 1.73905,0.3696 1.77803,0 z"
     id="path6"
     inkscape:connector-curvature="0"
     style="fill:#ffffff;stroke:#808080;stroke-width:0.03543307;fill-opacity:1;stroke-opacity:1;stroke-miterlimit:4;stroke-dasharray:none;stroke-linejoin:round" />
</svg>
