  0
SECTION
  2
BLOCKS
  0
ENDSEC
  0
SECTION
  2
ENTITIES
  0
LINE
  8
0
 10
4.74164
 20
57.7175
 11
5.2
 21
57.9215
  0
LINE
  8
0
 10
5.2
 20
57.9215
 11
5.60591
 21
58.2164
  0
LINE
  8
0
 10
5.60591
 20
58.2164
 11
5.94164
 21
58.5893
  0
LINE
  8
0
 10
5.94164
 20
58.5893
 11
6.1925
 21
59.0238
  0
LINE
  8
0
 10
6.1925
 20
59.0238
 11
6.34755
 21
59.501
  0
LINE
  8
0
 10
6.34755
 20
59.501
 11
6.39999
 21
60
  0
LINE
  8
0
 10
6.39999
 20
60
 11
6.34755
 21
60.499
  0
LINE
  8
0
 10
6.34755
 20
60.499
 11
6.1925
 21
60.9762
  0
LINE
  8
0
 10
6.1925
 20
60.9762
 11
5.94164
 21
61.4107
  0
LINE
  8
0
 10
5.94164
 20
61.4107
 11
5.60591
 21
61.7835
  0
LINE
  8
0
 10
5.60591
 20
61.7835
 11
5.2
 21
62.0785
  0
LINE
  8
0
 10
5.2
 20
62.0785
 11
4.74164
 21
62.2825
  0
LINE
  8
0
 10
4.74164
 20
62.2825
 11
4.25085
 21
62.3868
  0
LINE
  8
0
 10
4.25085
 20
62.3868
 11
3.74913
 21
62.3868
  0
LINE
  8
0
 10
3.74913
 20
62.3868
 11
3.25835
 21
62.2825
  0
LINE
  8
0
 10
3.25835
 20
62.2825
 11
2.79999
 21
62.0785
  0
LINE
  8
0
 10
2.79999
 20
62.0785
 11
2.39407
 21
61.7835
  0
LINE
  8
0
 10
2.39407
 20
61.7835
 11
2.05835
 21
61.4107
  0
LINE
  8
0
 10
2.05835
 20
61.4107
 11
1.80748
 21
60.9762
  0
LINE
  8
0
 10
1.80748
 20
60.9762
 11
1.65244
 21
60.499
  0
LINE
  8
0
 10
1.65244
 20
60.499
 11
1.59999
 21
60
  0
LINE
  8
0
 10
1.59999
 20
60
 11
1.65244
 21
59.501
  0
LINE
  8
0
 10
1.65244
 20
59.501
 11
1.80748
 21
59.0238
  0
LINE
  8
0
 10
1.80748
 20
59.0238
 11
2.05835
 21
58.5893
  0
LINE
  8
0
 10
2.05835
 20
58.5893
 11
2.39407
 21
58.2164
  0
LINE
  8
0
 10
2.39407
 20
58.2164
 11
2.79999
 21
57.9215
  0
LINE
  8
0
 10
2.79999
 20
57.9215
 11
3.25835
 21
57.7175
  0
LINE
  8
0
 10
3.25835
 20
57.7175
 11
3.74913
 21
57.6131
  0
LINE
  8
0
 10
3.74913
 20
57.6131
 11
4.25085
 21
57.6131
  0
LINE
  8
0
 10
4.25085
 20
57.6131
 11
4.74164
 21
57.7175
  0
LINE
  8
0
 10
12.7416
 20
57.7175
 11
13.2
 21
57.9215
  0
LINE
  8
0
 10
13.2
 20
57.9215
 11
13.6059
 21
58.2164
  0
LINE
  8
0
 10
13.6059
 20
58.2164
 11
13.9416
 21
58.5893
  0
LINE
  8
0
 10
13.9416
 20
58.5893
 11
14.1925
 21
59.0238
  0
LINE
  8
0
 10
14.1925
 20
59.0238
 11
14.3475
 21
59.501
  0
LINE
  8
0
 10
14.3475
 20
59.501
 11
14.4
 21
60
  0
LINE
  8
0
 10
14.4
 20
60
 11
14.3475
 21
60.499
  0
LINE
  8
0
 10
14.3475
 20
60.499
 11
14.1925
 21
60.9762
  0
LINE
  8
0
 10
14.1925
 20
60.9762
 11
13.9416
 21
61.4107
  0
LINE
  8
0
 10
13.9416
 20
61.4107
 11
13.6059
 21
61.7835
  0
LINE
  8
0
 10
13.6059
 20
61.7835
 11
13.2
 21
62.0785
  0
LINE
  8
0
 10
13.2
 20
62.0785
 11
12.7416
 21
62.2825
  0
LINE
  8
0
 10
12.7416
 20
62.2825
 11
12.2509
 21
62.3868
  0
LINE
  8
0
 10
12.2509
 20
62.3868
 11
11.7491
 21
62.3868
  0
LINE
  8
0
 10
11.7491
 20
62.3868
 11
11.2583
 21
62.2825
  0
LINE
  8
0
 10
11.2583
 20
62.2825
 11
10.8
 21
62.0785
  0
LINE
  8
0
 10
10.8
 20
62.0785
 11
10.3941
 21
61.7835
  0
LINE
  8
0
 10
10.3941
 20
61.7835
 11
10.0583
 21
61.4107
  0
LINE
  8
0
 10
10.0583
 20
61.4107
 11
9.80748
 21
60.9762
  0
LINE
  8
0
 10
9.80748
 20
60.9762
 11
9.65244
 21
60.499
  0
LINE
  8
0
 10
9.65244
 20
60.499
 11
9.59999
 21
60
  0
LINE
  8
0
 10
9.59999
 20
60
 11
9.65244
 21
59.501
  0
LINE
  8
0
 10
9.65244
 20
59.501
 11
9.80748
 21
59.0238
  0
LINE
  8
0
 10
9.80748
 20
59.0238
 11
10.0583
 21
58.5893
  0
LINE
  8
0
 10
10.0583
 20
58.5893
 11
10.3941
 21
58.2164
  0
LINE
  8
0
 10
10.3941
 20
58.2164
 11
10.8
 21
57.9215
  0
LINE
  8
0
 10
10.8
 20
57.9215
 11
11.2583
 21
57.7175
  0
LINE
  8
0
 10
11.2583
 20
57.7175
 11
11.7491
 21
57.6131
  0
LINE
  8
0
 10
11.7491
 20
57.6131
 11
12.2509
 21
57.6131
  0
LINE
  8
0
 10
12.2509
 20
57.6131
 11
12.7416
 21
57.7175
  0
LINE
  8
0
 10
44.7416
 20
57.7175
 11
45.2
 21
57.9215
  0
LINE
  8
0
 10
45.2
 20
57.9215
 11
45.6059
 21
58.2164
  0
LINE
  8
0
 10
45.6059
 20
58.2164
 11
45.9416
 21
58.5893
  0
LINE
  8
0
 10
45.9416
 20
58.5893
 11
46.1925
 21
59.0238
  0
LINE
  8
0
 10
46.1925
 20
59.0238
 11
46.3475
 21
59.501
  0
LINE
  8
0
 10
46.3475
 20
59.501
 11
46.4
 21
60
  0
LINE
  8
0
 10
46.4
 20
60
 11
46.3475
 21
60.499
  0
LINE
  8
0
 10
46.3475
 20
60.499
 11
46.1925
 21
60.9762
  0
LINE
  8
0
 10
46.1925
 20
60.9762
 11
45.9416
 21
61.4107
  0
LINE
  8
0
 10
45.9416
 20
61.4107
 11
45.6059
 21
61.7835
  0
LINE
  8
0
 10
45.6059
 20
61.7835
 11
45.2
 21
62.0785
  0
LINE
  8
0
 10
45.2
 20
62.0785
 11
44.7416
 21
62.2825
  0
LINE
  8
0
 10
44.7416
 20
62.2825
 11
44.2509
 21
62.3868
  0
LINE
  8
0
 10
44.2509
 20
62.3868
 11
43.7491
 21
62.3868
  0
LINE
  8
0
 10
43.7491
 20
62.3868
 11
43.2583
 21
62.2825
  0
LINE
  8
0
 10
43.2583
 20
62.2825
 11
42.8
 21
62.0785
  0
LINE
  8
0
 10
42.8
 20
62.0785
 11
42.3941
 21
61.7835
  0
LINE
  8
0
 10
42.3941
 20
61.7835
 11
42.0583
 21
61.4107
  0
LINE
  8
0
 10
42.0583
 20
61.4107
 11
41.8075
 21
60.9762
  0
LINE
  8
0
 10
41.8075
 20
60.9762
 11
41.6524
 21
60.499
  0
LINE
  8
0
 10
41.6524
 20
60.499
 11
41.6
 21
60
  0
LINE
  8
0
 10
41.6
 20
60
 11
41.6524
 21
59.501
  0
LINE
  8
0
 10
41.6524
 20
59.501
 11
41.8075
 21
59.0238
  0
LINE
  8
0
 10
41.8075
 20
59.0238
 11
42.0583
 21
58.5893
  0
LINE
  8
0
 10
42.0583
 20
58.5893
 11
42.3941
 21
58.2164
  0
LINE
  8
0
 10
42.3941
 20
58.2164
 11
42.8
 21
57.9215
  0
LINE
  8
0
 10
42.8
 20
57.9215
 11
43.2583
 21
57.7175
  0
LINE
  8
0
 10
43.2583
 20
57.7175
 11
43.7491
 21
57.6131
  0
LINE
  8
0
 10
43.7491
 20
57.6131
 11
44.2509
 21
57.6131
  0
LINE
  8
0
 10
44.2509
 20
57.6131
 11
44.7416
 21
57.7175
  0
LINE
  8
0
 10
36.7416
 20
57.7175
 11
37.2
 21
57.9215
  0
LINE
  8
0
 10
37.2
 20
57.9215
 11
37.6059
 21
58.2164
  0
LINE
  8
0
 10
37.6059
 20
58.2164
 11
37.9416
 21
58.5893
  0
LINE
  8
0
 10
37.9416
 20
58.5893
 11
38.1925
 21
59.0238
  0
LINE
  8
0
 10
38.1925
 20
59.0238
 11
38.3475
 21
59.501
  0
LINE
  8
0
 10
38.3475
 20
59.501
 11
38.4
 21
60
  0
LINE
  8
0
 10
38.4
 20
60
 11
38.3475
 21
60.499
  0
LINE
  8
0
 10
38.3475
 20
60.499
 11
38.1925
 21
60.9762
  0
LINE
  8
0
 10
38.1925
 20
60.9762
 11
37.9416
 21
61.4107
  0
LINE
  8
0
 10
37.9416
 20
61.4107
 11
37.6059
 21
61.7835
  0
LINE
  8
0
 10
37.6059
 20
61.7835
 11
37.2
 21
62.0785
  0
LINE
  8
0
 10
37.2
 20
62.0785
 11
36.7416
 21
62.2825
  0
LINE
  8
0
 10
36.7416
 20
62.2825
 11
36.2509
 21
62.3868
  0
LINE
  8
0
 10
36.2509
 20
62.3868
 11
35.7491
 21
62.3868
  0
LINE
  8
0
 10
35.7491
 20
62.3868
 11
35.2583
 21
62.2825
  0
LINE
  8
0
 10
35.2583
 20
62.2825
 11
34.8
 21
62.0785
  0
LINE
  8
0
 10
34.8
 20
62.0785
 11
34.3941
 21
61.7835
  0
LINE
  8
0
 10
34.3941
 20
61.7835
 11
34.0583
 21
61.4107
  0
LINE
  8
0
 10
34.0583
 20
61.4107
 11
33.8075
 21
60.9762
  0
LINE
  8
0
 10
33.8075
 20
60.9762
 11
33.6524
 21
60.499
  0
LINE
  8
0
 10
33.6524
 20
60.499
 11
33.6
 21
60
  0
LINE
  8
0
 10
33.6
 20
60
 11
33.6524
 21
59.501
  0
LINE
  8
0
 10
33.6524
 20
59.501
 11
33.8075
 21
59.0238
  0
LINE
  8
0
 10
33.8075
 20
59.0238
 11
34.0583
 21
58.5893
  0
LINE
  8
0
 10
34.0583
 20
58.5893
 11
34.3941
 21
58.2164
  0
LINE
  8
0
 10
34.3941
 20
58.2164
 11
34.8
 21
57.9215
  0
LINE
  8
0
 10
34.8
 20
57.9215
 11
35.2583
 21
57.7175
  0
LINE
  8
0
 10
35.2583
 20
57.7175
 11
35.7491
 21
57.6131
  0
LINE
  8
0
 10
35.7491
 20
57.6131
 11
36.2509
 21
57.6131
  0
LINE
  8
0
 10
36.2509
 20
57.6131
 11
36.7416
 21
57.7175
  0
LINE
  8
0
 10
20.7416
 20
57.7175
 11
21.2
 21
57.9215
  0
LINE
  8
0
 10
21.2
 20
57.9215
 11
21.6059
 21
58.2164
  0
LINE
  8
0
 10
21.6059
 20
58.2164
 11
21.9416
 21
58.5893
  0
LINE
  8
0
 10
21.9416
 20
58.5893
 11
22.1925
 21
59.0238
  0
LINE
  8
0
 10
22.1925
 20
59.0238
 11
22.3475
 21
59.501
  0
LINE
  8
0
 10
22.3475
 20
59.501
 11
22.4
 21
60
  0
LINE
  8
0
 10
22.4
 20
60
 11
22.3475
 21
60.499
  0
LINE
  8
0
 10
22.3475
 20
60.499
 11
22.1925
 21
60.9762
  0
LINE
  8
0
 10
22.1925
 20
60.9762
 11
21.9416
 21
61.4107
  0
LINE
  8
0
 10
21.9416
 20
61.4107
 11
21.6059
 21
61.7835
  0
LINE
  8
0
 10
21.6059
 20
61.7835
 11
21.2
 21
62.0785
  0
LINE
  8
0
 10
21.2
 20
62.0785
 11
20.7416
 21
62.2825
  0
LINE
  8
0
 10
20.7416
 20
62.2825
 11
20.2509
 21
62.3868
  0
LINE
  8
0
 10
20.2509
 20
62.3868
 11
19.7491
 21
62.3868
  0
LINE
  8
0
 10
19.7491
 20
62.3868
 11
19.2583
 21
62.2825
  0
LINE
  8
0
 10
19.2583
 20
62.2825
 11
18.8
 21
62.0785
  0
LINE
  8
0
 10
18.8
 20
62.0785
 11
18.3941
 21
61.7835
  0
LINE
  8
0
 10
18.3941
 20
61.7835
 11
18.0583
 21
61.4107
  0
LINE
  8
0
 10
18.0583
 20
61.4107
 11
17.8075
 21
60.9762
  0
LINE
  8
0
 10
17.8075
 20
60.9762
 11
17.6524
 21
60.499
  0
LINE
  8
0
 10
17.6524
 20
60.499
 11
17.6
 21
60
  0
LINE
  8
0
 10
17.6
 20
60
 11
17.6524
 21
59.501
  0
LINE
  8
0
 10
17.6524
 20
59.501
 11
17.8075
 21
59.0238
  0
LINE
  8
0
 10
17.8075
 20
59.0238
 11
18.0583
 21
58.5893
  0
LINE
  8
0
 10
18.0583
 20
58.5893
 11
18.3941
 21
58.2164
  0
LINE
  8
0
 10
18.3941
 20
58.2164
 11
18.8
 21
57.9215
  0
LINE
  8
0
 10
18.8
 20
57.9215
 11
19.2583
 21
57.7175
  0
LINE
  8
0
 10
19.2583
 20
57.7175
 11
19.7491
 21
57.6131
  0
LINE
  8
0
 10
19.7491
 20
57.6131
 11
20.2509
 21
57.6131
  0
LINE
  8
0
 10
20.2509
 20
57.6131
 11
20.7416
 21
57.7175
  0
LINE
  8
0
 10
28.7416
 20
57.7175
 11
29.2
 21
57.9215
  0
LINE
  8
0
 10
29.2
 20
57.9215
 11
29.6059
 21
58.2164
  0
LINE
  8
0
 10
29.6059
 20
58.2164
 11
29.9416
 21
58.5893
  0
LINE
  8
0
 10
29.9416
 20
58.5893
 11
30.1925
 21
59.0238
  0
LINE
  8
0
 10
30.1925
 20
59.0238
 11
30.3475
 21
59.501
  0
LINE
  8
0
 10
30.3475
 20
59.501
 11
30.4
 21
60
  0
LINE
  8
0
 10
30.4
 20
60
 11
30.3475
 21
60.499
  0
LINE
  8
0
 10
30.3475
 20
60.499
 11
30.1925
 21
60.9762
  0
LINE
  8
0
 10
30.1925
 20
60.9762
 11
29.9416
 21
61.4107
  0
LINE
  8
0
 10
29.9416
 20
61.4107
 11
29.6059
 21
61.7835
  0
LINE
  8
0
 10
29.6059
 20
61.7835
 11
29.2
 21
62.0785
  0
LINE
  8
0
 10
29.2
 20
62.0785
 11
28.7416
 21
62.2825
  0
LINE
  8
0
 10
28.7416
 20
62.2825
 11
28.2509
 21
62.3868
  0
LINE
  8
0
 10
28.2509
 20
62.3868
 11
27.7491
 21
62.3868
  0
LINE
  8
0
 10
27.7491
 20
62.3868
 11
27.2583
 21
62.2825
  0
LINE
  8
0
 10
27.2583
 20
62.2825
 11
26.8
 21
62.0785
  0
LINE
  8
0
 10
26.8
 20
62.0785
 11
26.3941
 21
61.7835
  0
LINE
  8
0
 10
26.3941
 20
61.7835
 11
26.0583
 21
61.4107
  0
LINE
  8
0
 10
26.0583
 20
61.4107
 11
25.8075
 21
60.9762
  0
LINE
  8
0
 10
25.8075
 20
60.9762
 11
25.6524
 21
60.499
  0
LINE
  8
0
 10
25.6524
 20
60.499
 11
25.6
 21
60
  0
LINE
  8
0
 10
25.6
 20
60
 11
25.6524
 21
59.501
  0
LINE
  8
0
 10
25.6524
 20
59.501
 11
25.8075
 21
59.0238
  0
LINE
  8
0
 10
25.8075
 20
59.0238
 11
26.0583
 21
58.5893
  0
LINE
  8
0
 10
26.0583
 20
58.5893
 11
26.3941
 21
58.2164
  0
LINE
  8
0
 10
26.3941
 20
58.2164
 11
26.8
 21
57.9215
  0
LINE
  8
0
 10
26.8
 20
57.9215
 11
27.2583
 21
57.7175
  0
LINE
  8
0
 10
27.2583
 20
57.7175
 11
27.7491
 21
57.6131
  0
LINE
  8
0
 10
27.7491
 20
57.6131
 11
28.2509
 21
57.6131
  0
LINE
  8
0
 10
28.2509
 20
57.6131
 11
28.7416
 21
57.7175
  0
LINE
  8
0
 10
52.7416
 20
57.7175
 11
53.2
 21
57.9215
  0
LINE
  8
0
 10
53.2
 20
57.9215
 11
53.6059
 21
58.2164
  0
LINE
  8
0
 10
53.6059
 20
58.2164
 11
53.9416
 21
58.5893
  0
LINE
  8
0
 10
53.9416
 20
58.5893
 11
54.1925
 21
59.0238
  0
LINE
  8
0
 10
54.1925
 20
59.0238
 11
54.3475
 21
59.501
  0
LINE
  8
0
 10
54.3475
 20
59.501
 11
54.4
 21
60
  0
LINE
  8
0
 10
54.4
 20
60
 11
54.3475
 21
60.499
  0
LINE
  8
0
 10
54.3475
 20
60.499
 11
54.1925
 21
60.9762
  0
LINE
  8
0
 10
54.1925
 20
60.9762
 11
53.9416
 21
61.4107
  0
LINE
  8
0
 10
53.9416
 20
61.4107
 11
53.6059
 21
61.7835
  0
LINE
  8
0
 10
53.6059
 20
61.7835
 11
53.2
 21
62.0785
  0
LINE
  8
0
 10
53.2
 20
62.0785
 11
52.7416
 21
62.2825
  0
LINE
  8
0
 10
52.7416
 20
62.2825
 11
52.2509
 21
62.3868
  0
LINE
  8
0
 10
52.2509
 20
62.3868
 11
51.7491
 21
62.3868
  0
LINE
  8
0
 10
51.7491
 20
62.3868
 11
51.2583
 21
62.2825
  0
LINE
  8
0
 10
51.2583
 20
62.2825
 11
50.8
 21
62.0785
  0
LINE
  8
0
 10
50.8
 20
62.0785
 11
50.3941
 21
61.7835
  0
LINE
  8
0
 10
50.3941
 20
61.7835
 11
50.0583
 21
61.4107
  0
LINE
  8
0
 10
50.0583
 20
61.4107
 11
49.8075
 21
60.9762
  0
LINE
  8
0
 10
49.8075
 20
60.9762
 11
49.6524
 21
60.499
  0
LINE
  8
0
 10
49.6524
 20
60.499
 11
49.6
 21
60
  0
LINE
  8
0
 10
49.6
 20
60
 11
49.6524
 21
59.501
  0
LINE
  8
0
 10
49.6524
 20
59.501
 11
49.8075
 21
59.0238
  0
LINE
  8
0
 10
49.8075
 20
59.0238
 11
50.0583
 21
58.5893
  0
LINE
  8
0
 10
50.0583
 20
58.5893
 11
50.3941
 21
58.2164
  0
LINE
  8
0
 10
50.3941
 20
58.2164
 11
50.8
 21
57.9215
  0
LINE
  8
0
 10
50.8
 20
57.9215
 11
51.2583
 21
57.7175
  0
LINE
  8
0
 10
51.2583
 20
57.7175
 11
51.7491
 21
57.6131
  0
LINE
  8
0
 10
51.7491
 20
57.6131
 11
52.2509
 21
57.6131
  0
LINE
  8
0
 10
52.2509
 20
57.6131
 11
52.7416
 21
57.7175
  0
LINE
  8
0
 10
60.7416
 20
57.7175
 11
61.2
 21
57.9215
  0
LINE
  8
0
 10
61.2
 20
57.9215
 11
61.6059
 21
58.2164
  0
LINE
  8
0
 10
61.6059
 20
58.2164
 11
61.9416
 21
58.5893
  0
LINE
  8
0
 10
61.9416
 20
58.5893
 11
62.1925
 21
59.0238
  0
LINE
  8
0
 10
62.1925
 20
59.0238
 11
62.3475
 21
59.501
  0
LINE
  8
0
 10
62.3475
 20
59.501
 11
62.4
 21
60
  0
LINE
  8
0
 10
62.4
 20
60
 11
62.3475
 21
60.499
  0
LINE
  8
0
 10
62.3475
 20
60.499
 11
62.1925
 21
60.9762
  0
LINE
  8
0
 10
62.1925
 20
60.9762
 11
61.9416
 21
61.4107
  0
LINE
  8
0
 10
61.9416
 20
61.4107
 11
61.6059
 21
61.7835
  0
LINE
  8
0
 10
61.6059
 20
61.7835
 11
61.2
 21
62.0785
  0
LINE
  8
0
 10
61.2
 20
62.0785
 11
60.7416
 21
62.2825
  0
LINE
  8
0
 10
60.7416
 20
62.2825
 11
60.2509
 21
62.3868
  0
LINE
  8
0
 10
60.2509
 20
62.3868
 11
59.7491
 21
62.3868
  0
LINE
  8
0
 10
59.7491
 20
62.3868
 11
59.2583
 21
62.2825
  0
LINE
  8
0
 10
59.2583
 20
62.2825
 11
58.8
 21
62.0785
  0
LINE
  8
0
 10
58.8
 20
62.0785
 11
58.3941
 21
61.7835
  0
LINE
  8
0
 10
58.3941
 20
61.7835
 11
58.0583
 21
61.4107
  0
LINE
  8
0
 10
58.0583
 20
61.4107
 11
57.8075
 21
60.9762
  0
LINE
  8
0
 10
57.8075
 20
60.9762
 11
57.6524
 21
60.499
  0
LINE
  8
0
 10
57.6524
 20
60.499
 11
57.6
 21
60
  0
LINE
  8
0
 10
57.6
 20
60
 11
57.6524
 21
59.501
  0
LINE
  8
0
 10
57.6524
 20
59.501
 11
57.8075
 21
59.0238
  0
LINE
  8
0
 10
57.8075
 20
59.0238
 11
58.0583
 21
58.5893
  0
LINE
  8
0
 10
58.0583
 20
58.5893
 11
58.3941
 21
58.2164
  0
LINE
  8
0
 10
58.3941
 20
58.2164
 11
58.8
 21
57.9215
  0
LINE
  8
0
 10
58.8
 20
57.9215
 11
59.2583
 21
57.7175
  0
LINE
  8
0
 10
59.2583
 20
57.7175
 11
59.7491
 21
57.6131
  0
LINE
  8
0
 10
59.7491
 20
57.6131
 11
60.2509
 21
57.6131
  0
LINE
  8
0
 10
60.2509
 20
57.6131
 11
60.7416
 21
57.7175
  0
LINE
  8
0
 10
12.7416
 20
49.7175
 11
13.2
 21
49.9215
  0
LINE
  8
0
 10
13.2
 20
49.9215
 11
13.6059
 21
50.2164
  0
LINE
  8
0
 10
13.6059
 20
50.2164
 11
13.9416
 21
50.5893
  0
LINE
  8
0
 10
13.9416
 20
50.5893
 11
14.1925
 21
51.0238
  0
LINE
  8
0
 10
14.1925
 20
51.0238
 11
14.3475
 21
51.501
  0
LINE
  8
0
 10
14.3475
 20
51.501
 11
14.4
 21
52
  0
LINE
  8
0
 10
14.4
 20
52
 11
14.3475
 21
52.499
  0
LINE
  8
0
 10
14.3475
 20
52.499
 11
14.1925
 21
52.9762
  0
LINE
  8
0
 10
14.1925
 20
52.9762
 11
13.9416
 21
53.4107
  0
LINE
  8
0
 10
13.9416
 20
53.4107
 11
13.6059
 21
53.7835
  0
LINE
  8
0
 10
13.6059
 20
53.7835
 11
13.2
 21
54.0785
  0
LINE
  8
0
 10
13.2
 20
54.0785
 11
12.7416
 21
54.2825
  0
LINE
  8
0
 10
12.7416
 20
54.2825
 11
12.2509
 21
54.3868
  0
LINE
  8
0
 10
12.2509
 20
54.3868
 11
11.7491
 21
54.3868
  0
LINE
  8
0
 10
11.7491
 20
54.3868
 11
11.2583
 21
54.2825
  0
LINE
  8
0
 10
11.2583
 20
54.2825
 11
10.8
 21
54.0785
  0
LINE
  8
0
 10
10.8
 20
54.0785
 11
10.3941
 21
53.7835
  0
LINE
  8
0
 10
10.3941
 20
53.7835
 11
10.0583
 21
53.4107
  0
LINE
  8
0
 10
10.0583
 20
53.4107
 11
9.80748
 21
52.9762
  0
LINE
  8
0
 10
9.80748
 20
52.9762
 11
9.65244
 21
52.499
  0
LINE
  8
0
 10
9.65244
 20
52.499
 11
9.59999
 21
52
  0
LINE
  8
0
 10
9.59999
 20
52
 11
9.65244
 21
51.501
  0
LINE
  8
0
 10
9.65244
 20
51.501
 11
9.80748
 21
51.0238
  0
LINE
  8
0
 10
9.80748
 20
51.0238
 11
10.0583
 21
50.5893
  0
LINE
  8
0
 10
10.0583
 20
50.5893
 11
10.3941
 21
50.2164
  0
LINE
  8
0
 10
10.3941
 20
50.2164
 11
10.8
 21
49.9215
  0
LINE
  8
0
 10
10.8
 20
49.9215
 11
11.2583
 21
49.7175
  0
LINE
  8
0
 10
11.2583
 20
49.7175
 11
11.7491
 21
49.6131
  0
LINE
  8
0
 10
11.7491
 20
49.6131
 11
12.2509
 21
49.6131
  0
LINE
  8
0
 10
12.2509
 20
49.6131
 11
12.7416
 21
49.7175
  0
LINE
  8
0
 10
44.7416
 20
49.7175
 11
45.2
 21
49.9215
  0
LINE
  8
0
 10
45.2
 20
49.9215
 11
45.6059
 21
50.2164
  0
LINE
  8
0
 10
45.6059
 20
50.2164
 11
45.9416
 21
50.5893
  0
LINE
  8
0
 10
45.9416
 20
50.5893
 11
46.1925
 21
51.0238
  0
LINE
  8
0
 10
46.1925
 20
51.0238
 11
46.3475
 21
51.501
  0
LINE
  8
0
 10
46.3475
 20
51.501
 11
46.4
 21
52
  0
LINE
  8
0
 10
46.4
 20
52
 11
46.3475
 21
52.499
  0
LINE
  8
0
 10
46.3475
 20
52.499
 11
46.1925
 21
52.9762
  0
LINE
  8
0
 10
46.1925
 20
52.9762
 11
45.9416
 21
53.4107
  0
LINE
  8
0
 10
45.9416
 20
53.4107
 11
45.6059
 21
53.7835
  0
LINE
  8
0
 10
45.6059
 20
53.7835
 11
45.2
 21
54.0785
  0
LINE
  8
0
 10
45.2
 20
54.0785
 11
44.7416
 21
54.2825
  0
LINE
  8
0
 10
44.7416
 20
54.2825
 11
44.2509
 21
54.3868
  0
LINE
  8
0
 10
44.2509
 20
54.3868
 11
43.7491
 21
54.3868
  0
LINE
  8
0
 10
43.7491
 20
54.3868
 11
43.2583
 21
54.2825
  0
LINE
  8
0
 10
43.2583
 20
54.2825
 11
42.8
 21
54.0785
  0
LINE
  8
0
 10
42.8
 20
54.0785
 11
42.3941
 21
53.7835
  0
LINE
  8
0
 10
42.3941
 20
53.7835
 11
42.0583
 21
53.4107
  0
LINE
  8
0
 10
42.0583
 20
53.4107
 11
41.8075
 21
52.9762
  0
LINE
  8
0
 10
41.8075
 20
52.9762
 11
41.6524
 21
52.499
  0
LINE
  8
0
 10
41.6524
 20
52.499
 11
41.6
 21
52
  0
LINE
  8
0
 10
41.6
 20
52
 11
41.6524
 21
51.501
  0
LINE
  8
0
 10
41.6524
 20
51.501
 11
41.8075
 21
51.0238
  0
LINE
  8
0
 10
41.8075
 20
51.0238
 11
42.0583
 21
50.5893
  0
LINE
  8
0
 10
42.0583
 20
50.5893
 11
42.3941
 21
50.2164
  0
LINE
  8
0
 10
42.3941
 20
50.2164
 11
42.8
 21
49.9215
  0
LINE
  8
0
 10
42.8
 20
49.9215
 11
43.2583
 21
49.7175
  0
LINE
  8
0
 10
43.2583
 20
49.7175
 11
43.7491
 21
49.6131
  0
LINE
  8
0
 10
43.7491
 20
49.6131
 11
44.2509
 21
49.6131
  0
LINE
  8
0
 10
44.2509
 20
49.6131
 11
44.7416
 21
49.7175
  0
LINE
  8
0
 10
60.7416
 20
49.7175
 11
61.2
 21
49.9215
  0
LINE
  8
0
 10
61.2
 20
49.9215
 11
61.6059
 21
50.2164
  0
LINE
  8
0
 10
61.6059
 20
50.2164
 11
61.9416
 21
50.5893
  0
LINE
  8
0
 10
61.9416
 20
50.5893
 11
62.1925
 21
51.0238
  0
LINE
  8
0
 10
62.1925
 20
51.0238
 11
62.3475
 21
51.501
  0
LINE
  8
0
 10
62.3475
 20
51.501
 11
62.4
 21
52
  0
LINE
  8
0
 10
62.4
 20
52
 11
62.3475
 21
52.499
  0
LINE
  8
0
 10
62.3475
 20
52.499
 11
62.1925
 21
52.9762
  0
LINE
  8
0
 10
62.1925
 20
52.9762
 11
61.9416
 21
53.4107
  0
LINE
  8
0
 10
61.9416
 20
53.4107
 11
61.6059
 21
53.7835
  0
LINE
  8
0
 10
61.6059
 20
53.7835
 11
61.2
 21
54.0785
  0
LINE
  8
0
 10
61.2
 20
54.0785
 11
60.7416
 21
54.2825
  0
LINE
  8
0
 10
60.7416
 20
54.2825
 11
60.2509
 21
54.3868
  0
LINE
  8
0
 10
60.2509
 20
54.3868
 11
59.7491
 21
54.3868
  0
LINE
  8
0
 10
59.7491
 20
54.3868
 11
59.2583
 21
54.2825
  0
LINE
  8
0
 10
59.2583
 20
54.2825
 11
58.8
 21
54.0785
  0
LINE
  8
0
 10
58.8
 20
54.0785
 11
58.3941
 21
53.7835
  0
LINE
  8
0
 10
58.3941
 20
53.7835
 11
58.0583
 21
53.4107
  0
LINE
  8
0
 10
58.0583
 20
53.4107
 11
57.8075
 21
52.9762
  0
LINE
  8
0
 10
57.8075
 20
52.9762
 11
57.6524
 21
52.499
  0
LINE
  8
0
 10
57.6524
 20
52.499
 11
57.6
 21
52
  0
LINE
  8
0
 10
57.6
 20
52
 11
57.6524
 21
51.501
  0
LINE
  8
0
 10
57.6524
 20
51.501
 11
57.8075
 21
51.0238
  0
LINE
  8
0
 10
57.8075
 20
51.0238
 11
58.0583
 21
50.5893
  0
LINE
  8
0
 10
58.0583
 20
50.5893
 11
58.3941
 21
50.2164
  0
LINE
  8
0
 10
58.3941
 20
50.2164
 11
58.8
 21
49.9215
  0
LINE
  8
0
 10
58.8
 20
49.9215
 11
59.2583
 21
49.7175
  0
LINE
  8
0
 10
59.2583
 20
49.7175
 11
59.7491
 21
49.6131
  0
LINE
  8
0
 10
59.7491
 20
49.6131
 11
60.2509
 21
49.6131
  0
LINE
  8
0
 10
60.2509
 20
49.6131
 11
60.7416
 21
49.7175
  0
LINE
  8
0
 10
4.74164
 20
49.7175
 11
5.2
 21
49.9215
  0
LINE
  8
0
 10
5.2
 20
49.9215
 11
5.60591
 21
50.2164
  0
LINE
  8
0
 10
5.60591
 20
50.2164
 11
5.94164
 21
50.5893
  0
LINE
  8
0
 10
5.94164
 20
50.5893
 11
6.1925
 21
51.0238
  0
LINE
  8
0
 10
6.1925
 20
51.0238
 11
6.34755
 21
51.501
  0
LINE
  8
0
 10
6.34755
 20
51.501
 11
6.39999
 21
52
  0
LINE
  8
0
 10
6.39999
 20
52
 11
6.34755
 21
52.499
  0
LINE
  8
0
 10
6.34755
 20
52.499
 11
6.1925
 21
52.9762
  0
LINE
  8
0
 10
6.1925
 20
52.9762
 11
5.94164
 21
53.4107
  0
LINE
  8
0
 10
5.94164
 20
53.4107
 11
5.60591
 21
53.7835
  0
LINE
  8
0
 10
5.60591
 20
53.7835
 11
5.2
 21
54.0785
  0
LINE
  8
0
 10
5.2
 20
54.0785
 11
4.74164
 21
54.2825
  0
LINE
  8
0
 10
4.74164
 20
54.2825
 11
4.25085
 21
54.3868
  0
LINE
  8
0
 10
4.25085
 20
54.3868
 11
3.74913
 21
54.3868
  0
LINE
  8
0
 10
3.74913
 20
54.3868
 11
3.25835
 21
54.2825
  0
LINE
  8
0
 10
3.25835
 20
54.2825
 11
2.79999
 21
54.0785
  0
LINE
  8
0
 10
2.79999
 20
54.0785
 11
2.39407
 21
53.7835
  0
LINE
  8
0
 10
2.39407
 20
53.7835
 11
2.05835
 21
53.4107
  0
LINE
  8
0
 10
2.05835
 20
53.4107
 11
1.80748
 21
52.9762
  0
LINE
  8
0
 10
1.80748
 20
52.9762
 11
1.65244
 21
52.499
  0
LINE
  8
0
 10
1.65244
 20
52.499
 11
1.59999
 21
52
  0
LINE
  8
0
 10
1.59999
 20
52
 11
1.65244
 21
51.501
  0
LINE
  8
0
 10
1.65244
 20
51.501
 11
1.80748
 21
51.0238
  0
LINE
  8
0
 10
1.80748
 20
51.0238
 11
2.05835
 21
50.5893
  0
LINE
  8
0
 10
2.05835
 20
50.5893
 11
2.39407
 21
50.2164
  0
LINE
  8
0
 10
2.39407
 20
50.2164
 11
2.79999
 21
49.9215
  0
LINE
  8
0
 10
2.79999
 20
49.9215
 11
3.25835
 21
49.7175
  0
LINE
  8
0
 10
3.25835
 20
49.7175
 11
3.74913
 21
49.6131
  0
LINE
  8
0
 10
3.74913
 20
49.6131
 11
4.25085
 21
49.6131
  0
LINE
  8
0
 10
4.25085
 20
49.6131
 11
4.74164
 21
49.7175
  0
LINE
  8
0
 10
20.7416
 20
49.7175
 11
21.2
 21
49.9215
  0
LINE
  8
0
 10
21.2
 20
49.9215
 11
21.6059
 21
50.2164
  0
LINE
  8
0
 10
21.6059
 20
50.2164
 11
21.9416
 21
50.5893
  0
LINE
  8
0
 10
21.9416
 20
50.5893
 11
22.1925
 21
51.0238
  0
LINE
  8
0
 10
22.1925
 20
51.0238
 11
22.3475
 21
51.501
  0
LINE
  8
0
 10
22.3475
 20
51.501
 11
22.4
 21
52
  0
LINE
  8
0
 10
22.4
 20
52
 11
22.3475
 21
52.499
  0
LINE
  8
0
 10
22.3475
 20
52.499
 11
22.1925
 21
52.9762
  0
LINE
  8
0
 10
22.1925
 20
52.9762
 11
21.9416
 21
53.4107
  0
LINE
  8
0
 10
21.9416
 20
53.4107
 11
21.6059
 21
53.7835
  0
LINE
  8
0
 10
21.6059
 20
53.7835
 11
21.2
 21
54.0785
  0
LINE
  8
0
 10
21.2
 20
54.0785
 11
20.7416
 21
54.2825
  0
LINE
  8
0
 10
20.7416
 20
54.2825
 11
20.2509
 21
54.3868
  0
LINE
  8
0
 10
20.2509
 20
54.3868
 11
19.7491
 21
54.3868
  0
LINE
  8
0
 10
19.7491
 20
54.3868
 11
19.2583
 21
54.2825
  0
LINE
  8
0
 10
19.2583
 20
54.2825
 11
18.8
 21
54.0785
  0
LINE
  8
0
 10
18.8
 20
54.0785
 11
18.3941
 21
53.7835
  0
LINE
  8
0
 10
18.3941
 20
53.7835
 11
18.0583
 21
53.4107
  0
LINE
  8
0
 10
18.0583
 20
53.4107
 11
17.8075
 21
52.9762
  0
LINE
  8
0
 10
17.8075
 20
52.9762
 11
17.6524
 21
52.499
  0
LINE
  8
0
 10
17.6524
 20
52.499
 11
17.6
 21
52
  0
LINE
  8
0
 10
17.6
 20
52
 11
17.6524
 21
51.501
  0
LINE
  8
0
 10
17.6524
 20
51.501
 11
17.8075
 21
51.0238
  0
LINE
  8
0
 10
17.8075
 20
51.0238
 11
18.0583
 21
50.5893
  0
LINE
  8
0
 10
18.0583
 20
50.5893
 11
18.3941
 21
50.2164
  0
LINE
  8
0
 10
18.3941
 20
50.2164
 11
18.8
 21
49.9215
  0
LINE
  8
0
 10
18.8
 20
49.9215
 11
19.2583
 21
49.7175
  0
LINE
  8
0
 10
19.2583
 20
49.7175
 11
19.7491
 21
49.6131
  0
LINE
  8
0
 10
19.7491
 20
49.6131
 11
20.2509
 21
49.6131
  0
LINE
  8
0
 10
20.2509
 20
49.6131
 11
20.7416
 21
49.7175
  0
LINE
  8
0
 10
28.7416
 20
49.7175
 11
29.2
 21
49.9215
  0
LINE
  8
0
 10
29.2
 20
49.9215
 11
29.6059
 21
50.2164
  0
LINE
  8
0
 10
29.6059
 20
50.2164
 11
29.9416
 21
50.5893
  0
LINE
  8
0
 10
29.9416
 20
50.5893
 11
30.1925
 21
51.0238
  0
LINE
  8
0
 10
30.1925
 20
51.0238
 11
30.3475
 21
51.501
  0
LINE
  8
0
 10
30.3475
 20
51.501
 11
30.4
 21
52
  0
LINE
  8
0
 10
30.4
 20
52
 11
30.3475
 21
52.499
  0
LINE
  8
0
 10
30.3475
 20
52.499
 11
30.1925
 21
52.9762
  0
LINE
  8
0
 10
30.1925
 20
52.9762
 11
29.9416
 21
53.4107
  0
LINE
  8
0
 10
29.9416
 20
53.4107
 11
29.6059
 21
53.7835
  0
LINE
  8
0
 10
29.6059
 20
53.7835
 11
29.2
 21
54.0785
  0
LINE
  8
0
 10
29.2
 20
54.0785
 11
28.7416
 21
54.2825
  0
LINE
  8
0
 10
28.7416
 20
54.2825
 11
28.2509
 21
54.3868
  0
LINE
  8
0
 10
28.2509
 20
54.3868
 11
27.7491
 21
54.3868
  0
LINE
  8
0
 10
27.7491
 20
54.3868
 11
27.2583
 21
54.2825
  0
LINE
  8
0
 10
27.2583
 20
54.2825
 11
26.8
 21
54.0785
  0
LINE
  8
0
 10
26.8
 20
54.0785
 11
26.3941
 21
53.7835
  0
LINE
  8
0
 10
26.3941
 20
53.7835
 11
26.0583
 21
53.4107
  0
LINE
  8
0
 10
26.0583
 20
53.4107
 11
25.8075
 21
52.9762
  0
LINE
  8
0
 10
25.8075
 20
52.9762
 11
25.6524
 21
52.499
  0
LINE
  8
0
 10
25.6524
 20
52.499
 11
25.6
 21
52
  0
LINE
  8
0
 10
25.6
 20
52
 11
25.6524
 21
51.501
  0
LINE
  8
0
 10
25.6524
 20
51.501
 11
25.8075
 21
51.0238
  0
LINE
  8
0
 10
25.8075
 20
51.0238
 11
26.0583
 21
50.5893
  0
LINE
  8
0
 10
26.0583
 20
50.5893
 11
26.3941
 21
50.2164
  0
LINE
  8
0
 10
26.3941
 20
50.2164
 11
26.8
 21
49.9215
  0
LINE
  8
0
 10
26.8
 20
49.9215
 11
27.2583
 21
49.7175
  0
LINE
  8
0
 10
27.2583
 20
49.7175
 11
27.7491
 21
49.6131
  0
LINE
  8
0
 10
27.7491
 20
49.6131
 11
28.2509
 21
49.6131
  0
LINE
  8
0
 10
28.2509
 20
49.6131
 11
28.7416
 21
49.7175
  0
LINE
  8
0
 10
52.7416
 20
49.7175
 11
53.2
 21
49.9215
  0
LINE
  8
0
 10
53.2
 20
49.9215
 11
53.6059
 21
50.2164
  0
LINE
  8
0
 10
53.6059
 20
50.2164
 11
53.9416
 21
50.5893
  0
LINE
  8
0
 10
53.9416
 20
50.5893
 11
54.1925
 21
51.0238
  0
LINE
  8
0
 10
54.1925
 20
51.0238
 11
54.3475
 21
51.501
  0
LINE
  8
0
 10
54.3475
 20
51.501
 11
54.4
 21
52
  0
LINE
  8
0
 10
54.4
 20
52
 11
54.3475
 21
52.499
  0
LINE
  8
0
 10
54.3475
 20
52.499
 11
54.1925
 21
52.9762
  0
LINE
  8
0
 10
54.1925
 20
52.9762
 11
53.9416
 21
53.4107
  0
LINE
  8
0
 10
53.9416
 20
53.4107
 11
53.6059
 21
53.7835
  0
LINE
  8
0
 10
53.6059
 20
53.7835
 11
53.2
 21
54.0785
  0
LINE
  8
0
 10
53.2
 20
54.0785
 11
52.7416
 21
54.2825
  0
LINE
  8
0
 10
52.7416
 20
54.2825
 11
52.2509
 21
54.3868
  0
LINE
  8
0
 10
52.2509
 20
54.3868
 11
51.7491
 21
54.3868
  0
LINE
  8
0
 10
51.7491
 20
54.3868
 11
51.2583
 21
54.2825
  0
LINE
  8
0
 10
51.2583
 20
54.2825
 11
50.8
 21
54.0785
  0
LINE
  8
0
 10
50.8
 20
54.0785
 11
50.3941
 21
53.7835
  0
LINE
  8
0
 10
50.3941
 20
53.7835
 11
50.0583
 21
53.4107
  0
LINE
  8
0
 10
50.0583
 20
53.4107
 11
49.8075
 21
52.9762
  0
LINE
  8
0
 10
49.8075
 20
52.9762
 11
49.6524
 21
52.499
  0
LINE
  8
0
 10
49.6524
 20
52.499
 11
49.6
 21
52
  0
LINE
  8
0
 10
49.6
 20
52
 11
49.6524
 21
51.501
  0
LINE
  8
0
 10
49.6524
 20
51.501
 11
49.8075
 21
51.0238
  0
LINE
  8
0
 10
49.8075
 20
51.0238
 11
50.0583
 21
50.5893
  0
LINE
  8
0
 10
50.0583
 20
50.5893
 11
50.3941
 21
50.2164
  0
LINE
  8
0
 10
50.3941
 20
50.2164
 11
50.8
 21
49.9215
  0
LINE
  8
0
 10
50.8
 20
49.9215
 11
51.2583
 21
49.7175
  0
LINE
  8
0
 10
51.2583
 20
49.7175
 11
51.7491
 21
49.6131
  0
LINE
  8
0
 10
51.7491
 20
49.6131
 11
52.2509
 21
49.6131
  0
LINE
  8
0
 10
52.2509
 20
49.6131
 11
52.7416
 21
49.7175
  0
LINE
  8
0
 10
36.7416
 20
49.7175
 11
37.2
 21
49.9215
  0
LINE
  8
0
 10
37.2
 20
49.9215
 11
37.6059
 21
50.2164
  0
LINE
  8
0
 10
37.6059
 20
50.2164
 11
37.9416
 21
50.5893
  0
LINE
  8
0
 10
37.9416
 20
50.5893
 11
38.1925
 21
51.0238
  0
LINE
  8
0
 10
38.1925
 20
51.0238
 11
38.3475
 21
51.501
  0
LINE
  8
0
 10
38.3475
 20
51.501
 11
38.4
 21
52
  0
LINE
  8
0
 10
38.4
 20
52
 11
38.3475
 21
52.499
  0
LINE
  8
0
 10
38.3475
 20
52.499
 11
38.1925
 21
52.9762
  0
LINE
  8
0
 10
38.1925
 20
52.9762
 11
37.9416
 21
53.4107
  0
LINE
  8
0
 10
37.9416
 20
53.4107
 11
37.6059
 21
53.7835
  0
LINE
  8
0
 10
37.6059
 20
53.7835
 11
37.2
 21
54.0785
  0
LINE
  8
0
 10
37.2
 20
54.0785
 11
36.7416
 21
54.2825
  0
LINE
  8
0
 10
36.7416
 20
54.2825
 11
36.2509
 21
54.3868
  0
LINE
  8
0
 10
36.2509
 20
54.3868
 11
35.7491
 21
54.3868
  0
LINE
  8
0
 10
35.7491
 20
54.3868
 11
35.2583
 21
54.2825
  0
LINE
  8
0
 10
35.2583
 20
54.2825
 11
34.8
 21
54.0785
  0
LINE
  8
0
 10
34.8
 20
54.0785
 11
34.3941
 21
53.7835
  0
LINE
  8
0
 10
34.3941
 20
53.7835
 11
34.0583
 21
53.4107
  0
LINE
  8
0
 10
34.0583
 20
53.4107
 11
33.8075
 21
52.9762
  0
LINE
  8
0
 10
33.8075
 20
52.9762
 11
33.6524
 21
52.499
  0
LINE
  8
0
 10
33.6524
 20
52.499
 11
33.6
 21
52
  0
LINE
  8
0
 10
33.6
 20
52
 11
33.6524
 21
51.501
  0
LINE
  8
0
 10
33.6524
 20
51.501
 11
33.8075
 21
51.0238
  0
LINE
  8
0
 10
33.8075
 20
51.0238
 11
34.0583
 21
50.5893
  0
LINE
  8
0
 10
34.0583
 20
50.5893
 11
34.3941
 21
50.2164
  0
LINE
  8
0
 10
34.3941
 20
50.2164
 11
34.8
 21
49.9215
  0
LINE
  8
0
 10
34.8
 20
49.9215
 11
35.2583
 21
49.7175
  0
LINE
  8
0
 10
35.2583
 20
49.7175
 11
35.7491
 21
49.6131
  0
LINE
  8
0
 10
35.7491
 20
49.6131
 11
36.2509
 21
49.6131
  0
LINE
  8
0
 10
36.2509
 20
49.6131
 11
36.7416
 21
49.7175
  0
LINE
  8
0
 10
36.7416
 20
41.7175
 11
37.2
 21
41.9215
  0
LINE
  8
0
 10
37.2
 20
41.9215
 11
37.6059
 21
42.2164
  0
LINE
  8
0
 10
37.6059
 20
42.2164
 11
37.9416
 21
42.5893
  0
LINE
  8
0
 10
37.9416
 20
42.5893
 11
38.1925
 21
43.0238
  0
LINE
  8
0
 10
38.1925
 20
43.0238
 11
38.3475
 21
43.501
  0
LINE
  8
0
 10
38.3475
 20
43.501
 11
38.4
 21
44
  0
LINE
  8
0
 10
38.4
 20
44
 11
38.3475
 21
44.499
  0
LINE
  8
0
 10
38.3475
 20
44.499
 11
38.1925
 21
44.9762
  0
LINE
  8
0
 10
38.1925
 20
44.9762
 11
37.9416
 21
45.4107
  0
LINE
  8
0
 10
37.9416
 20
45.4107
 11
37.6059
 21
45.7835
  0
LINE
  8
0
 10
37.6059
 20
45.7835
 11
37.2
 21
46.0785
  0
LINE
  8
0
 10
37.2
 20
46.0785
 11
36.7416
 21
46.2825
  0
LINE
  8
0
 10
36.7416
 20
46.2825
 11
36.2509
 21
46.3868
  0
LINE
  8
0
 10
36.2509
 20
46.3868
 11
35.7491
 21
46.3868
  0
LINE
  8
0
 10
35.7491
 20
46.3868
 11
35.2583
 21
46.2825
  0
LINE
  8
0
 10
35.2583
 20
46.2825
 11
34.8
 21
46.0785
  0
LINE
  8
0
 10
34.8
 20
46.0785
 11
34.3941
 21
45.7835
  0
LINE
  8
0
 10
34.3941
 20
45.7835
 11
34.0583
 21
45.4107
  0
LINE
  8
0
 10
34.0583
 20
45.4107
 11
33.8075
 21
44.9762
  0
LINE
  8
0
 10
33.8075
 20
44.9762
 11
33.6524
 21
44.499
  0
LINE
  8
0
 10
33.6524
 20
44.499
 11
33.6
 21
44
  0
LINE
  8
0
 10
33.6
 20
44
 11
33.6524
 21
43.501
  0
LINE
  8
0
 10
33.6524
 20
43.501
 11
33.8075
 21
43.0238
  0
LINE
  8
0
 10
33.8075
 20
43.0238
 11
34.0583
 21
42.5893
  0
LINE
  8
0
 10
34.0583
 20
42.5893
 11
34.3941
 21
42.2164
  0
LINE
  8
0
 10
34.3941
 20
42.2164
 11
34.8
 21
41.9215
  0
LINE
  8
0
 10
34.8
 20
41.9215
 11
35.2583
 21
41.7175
  0
LINE
  8
0
 10
35.2583
 20
41.7175
 11
35.7491
 21
41.6131
  0
LINE
  8
0
 10
35.7491
 20
41.6131
 11
36.2509
 21
41.6131
  0
LINE
  8
0
 10
36.2509
 20
41.6131
 11
36.7416
 21
41.7175
  0
LINE
  8
0
 10
60.7416
 20
41.7175
 11
61.2
 21
41.9215
  0
LINE
  8
0
 10
61.2
 20
41.9215
 11
61.6059
 21
42.2164
  0
LINE
  8
0
 10
61.6059
 20
42.2164
 11
61.9416
 21
42.5893
  0
LINE
  8
0
 10
61.9416
 20
42.5893
 11
62.1925
 21
43.0238
  0
LINE
  8
0
 10
62.1925
 20
43.0238
 11
62.3475
 21
43.501
  0
LINE
  8
0
 10
62.3475
 20
43.501
 11
62.4
 21
44
  0
LINE
  8
0
 10
62.4
 20
44
 11
62.3475
 21
44.499
  0
LINE
  8
0
 10
62.3475
 20
44.499
 11
62.1925
 21
44.9762
  0
LINE
  8
0
 10
62.1925
 20
44.9762
 11
61.9416
 21
45.4107
  0
LINE
  8
0
 10
61.9416
 20
45.4107
 11
61.6059
 21
45.7835
  0
LINE
  8
0
 10
61.6059
 20
45.7835
 11
61.2
 21
46.0785
  0
LINE
  8
0
 10
61.2
 20
46.0785
 11
60.7416
 21
46.2825
  0
LINE
  8
0
 10
60.7416
 20
46.2825
 11
60.2509
 21
46.3868
  0
LINE
  8
0
 10
60.2509
 20
46.3868
 11
59.7491
 21
46.3868
  0
LINE
  8
0
 10
59.7491
 20
46.3868
 11
59.2583
 21
46.2825
  0
LINE
  8
0
 10
59.2583
 20
46.2825
 11
58.8
 21
46.0785
  0
LINE
  8
0
 10
58.8
 20
46.0785
 11
58.3941
 21
45.7835
  0
LINE
  8
0
 10
58.3941
 20
45.7835
 11
58.0583
 21
45.4107
  0
LINE
  8
0
 10
58.0583
 20
45.4107
 11
57.8075
 21
44.9762
  0
LINE
  8
0
 10
57.8075
 20
44.9762
 11
57.6524
 21
44.499
  0
LINE
  8
0
 10
57.6524
 20
44.499
 11
57.6
 21
44
  0
LINE
  8
0
 10
57.6
 20
44
 11
57.6524
 21
43.501
  0
LINE
  8
0
 10
57.6524
 20
43.501
 11
57.8075
 21
43.0238
  0
LINE
  8
0
 10
57.8075
 20
43.0238
 11
58.0583
 21
42.5893
  0
LINE
  8
0
 10
58.0583
 20
42.5893
 11
58.3941
 21
42.2164
  0
LINE
  8
0
 10
58.3941
 20
42.2164
 11
58.8
 21
41.9215
  0
LINE
  8
0
 10
58.8
 20
41.9215
 11
59.2583
 21
41.7175
  0
LINE
  8
0
 10
59.2583
 20
41.7175
 11
59.7491
 21
41.6131
  0
LINE
  8
0
 10
59.7491
 20
41.6131
 11
60.2509
 21
41.6131
  0
LINE
  8
0
 10
60.2509
 20
41.6131
 11
60.7416
 21
41.7175
  0
LINE
  8
0
 10
12.7416
 20
41.7175
 11
13.2
 21
41.9215
  0
LINE
  8
0
 10
13.2
 20
41.9215
 11
13.6059
 21
42.2164
  0
LINE
  8
0
 10
13.6059
 20
42.2164
 11
13.9416
 21
42.5893
  0
LINE
  8
0
 10
13.9416
 20
42.5893
 11
14.1925
 21
43.0238
  0
LINE
  8
0
 10
14.1925
 20
43.0238
 11
14.3475
 21
43.501
  0
LINE
  8
0
 10
14.3475
 20
43.501
 11
14.4
 21
44
  0
LINE
  8
0
 10
14.4
 20
44
 11
14.3475
 21
44.499
  0
LINE
  8
0
 10
14.3475
 20
44.499
 11
14.1925
 21
44.9762
  0
LINE
  8
0
 10
14.1925
 20
44.9762
 11
13.9416
 21
45.4107
  0
LINE
  8
0
 10
13.9416
 20
45.4107
 11
13.6059
 21
45.7835
  0
LINE
  8
0
 10
13.6059
 20
45.7835
 11
13.2
 21
46.0785
  0
LINE
  8
0
 10
13.2
 20
46.0785
 11
12.7416
 21
46.2825
  0
LINE
  8
0
 10
12.7416
 20
46.2825
 11
12.2509
 21
46.3868
  0
LINE
  8
0
 10
12.2509
 20
46.3868
 11
11.7491
 21
46.3868
  0
LINE
  8
0
 10
11.7491
 20
46.3868
 11
11.2583
 21
46.2825
  0
LINE
  8
0
 10
11.2583
 20
46.2825
 11
10.8
 21
46.0785
  0
LINE
  8
0
 10
10.8
 20
46.0785
 11
10.3941
 21
45.7835
  0
LINE
  8
0
 10
10.3941
 20
45.7835
 11
10.0583
 21
45.4107
  0
LINE
  8
0
 10
10.0583
 20
45.4107
 11
9.80748
 21
44.9762
  0
LINE
  8
0
 10
9.80748
 20
44.9762
 11
9.65244
 21
44.499
  0
LINE
  8
0
 10
9.65244
 20
44.499
 11
9.59999
 21
44
  0
LINE
  8
0
 10
9.59999
 20
44
 11
9.65244
 21
43.501
  0
LINE
  8
0
 10
9.65244
 20
43.501
 11
9.80748
 21
43.0238
  0
LINE
  8
0
 10
9.80748
 20
43.0238
 11
10.0583
 21
42.5893
  0
LINE
  8
0
 10
10.0583
 20
42.5893
 11
10.3941
 21
42.2164
  0
LINE
  8
0
 10
10.3941
 20
42.2164
 11
10.8
 21
41.9215
  0
LINE
  8
0
 10
10.8
 20
41.9215
 11
11.2583
 21
41.7175
  0
LINE
  8
0
 10
11.2583
 20
41.7175
 11
11.7491
 21
41.6131
  0
LINE
  8
0
 10
11.7491
 20
41.6131
 11
12.2509
 21
41.6131
  0
LINE
  8
0
 10
12.2509
 20
41.6131
 11
12.7416
 21
41.7175
  0
LINE
  8
0
 10
4.74164
 20
41.7175
 11
5.2
 21
41.9215
  0
LINE
  8
0
 10
5.2
 20
41.9215
 11
5.60591
 21
42.2164
  0
LINE
  8
0
 10
5.60591
 20
42.2164
 11
5.94164
 21
42.5893
  0
LINE
  8
0
 10
5.94164
 20
42.5893
 11
6.1925
 21
43.0238
  0
LINE
  8
0
 10
6.1925
 20
43.0238
 11
6.34755
 21
43.501
  0
LINE
  8
0
 10
6.34755
 20
43.501
 11
6.39999
 21
44
  0
LINE
  8
0
 10
6.39999
 20
44
 11
6.34755
 21
44.499
  0
LINE
  8
0
 10
6.34755
 20
44.499
 11
6.1925
 21
44.9762
  0
LINE
  8
0
 10
6.1925
 20
44.9762
 11
5.94164
 21
45.4107
  0
LINE
  8
0
 10
5.94164
 20
45.4107
 11
5.60591
 21
45.7835
  0
LINE
  8
0
 10
5.60591
 20
45.7835
 11
5.2
 21
46.0785
  0
LINE
  8
0
 10
5.2
 20
46.0785
 11
4.74164
 21
46.2825
  0
LINE
  8
0
 10
4.74164
 20
46.2825
 11
4.25085
 21
46.3868
  0
LINE
  8
0
 10
4.25085
 20
46.3868
 11
3.74913
 21
46.3868
  0
LINE
  8
0
 10
3.74913
 20
46.3868
 11
3.25835
 21
46.2825
  0
LINE
  8
0
 10
3.25835
 20
46.2825
 11
2.79999
 21
46.0785
  0
LINE
  8
0
 10
2.79999
 20
46.0785
 11
2.39407
 21
45.7835
  0
LINE
  8
0
 10
2.39407
 20
45.7835
 11
2.05835
 21
45.4107
  0
LINE
  8
0
 10
2.05835
 20
45.4107
 11
1.80748
 21
44.9762
  0
LINE
  8
0
 10
1.80748
 20
44.9762
 11
1.65244
 21
44.499
  0
LINE
  8
0
 10
1.65244
 20
44.499
 11
1.59999
 21
44
  0
LINE
  8
0
 10
1.59999
 20
44
 11
1.65244
 21
43.501
  0
LINE
  8
0
 10
1.65244
 20
43.501
 11
1.80748
 21
43.0238
  0
LINE
  8
0
 10
1.80748
 20
43.0238
 11
2.05835
 21
42.5893
  0
LINE
  8
0
 10
2.05835
 20
42.5893
 11
2.39407
 21
42.2164
  0
LINE
  8
0
 10
2.39407
 20
42.2164
 11
2.79999
 21
41.9215
  0
LINE
  8
0
 10
2.79999
 20
41.9215
 11
3.25835
 21
41.7175
  0
LINE
  8
0
 10
3.25835
 20
41.7175
 11
3.74913
 21
41.6131
  0
LINE
  8
0
 10
3.74913
 20
41.6131
 11
4.25085
 21
41.6131
  0
LINE
  8
0
 10
4.25085
 20
41.6131
 11
4.74164
 21
41.7175
  0
LINE
  8
0
 10
20.7416
 20
41.7175
 11
21.2
 21
41.9215
  0
LINE
  8
0
 10
21.2
 20
41.9215
 11
21.6059
 21
42.2164
  0
LINE
  8
0
 10
21.6059
 20
42.2164
 11
21.9416
 21
42.5893
  0
LINE
  8
0
 10
21.9416
 20
42.5893
 11
22.1925
 21
43.0238
  0
LINE
  8
0
 10
22.1925
 20
43.0238
 11
22.3475
 21
43.501
  0
LINE
  8
0
 10
22.3475
 20
43.501
 11
22.4
 21
44
  0
LINE
  8
0
 10
22.4
 20
44
 11
22.3475
 21
44.499
  0
LINE
  8
0
 10
22.3475
 20
44.499
 11
22.1925
 21
44.9762
  0
LINE
  8
0
 10
22.1925
 20
44.9762
 11
21.9416
 21
45.4107
  0
LINE
  8
0
 10
21.9416
 20
45.4107
 11
21.6059
 21
45.7835
  0
LINE
  8
0
 10
21.6059
 20
45.7835
 11
21.2
 21
46.0785
  0
LINE
  8
0
 10
21.2
 20
46.0785
 11
20.7416
 21
46.2825
  0
LINE
  8
0
 10
20.7416
 20
46.2825
 11
20.2509
 21
46.3868
  0
LINE
  8
0
 10
20.2509
 20
46.3868
 11
19.7491
 21
46.3868
  0
LINE
  8
0
 10
19.7491
 20
46.3868
 11
19.2583
 21
46.2825
  0
LINE
  8
0
 10
19.2583
 20
46.2825
 11
18.8
 21
46.0785
  0
LINE
  8
0
 10
18.8
 20
46.0785
 11
18.3941
 21
45.7835
  0
LINE
  8
0
 10
18.3941
 20
45.7835
 11
18.0583
 21
45.4107
  0
LINE
  8
0
 10
18.0583
 20
45.4107
 11
17.8075
 21
44.9762
  0
LINE
  8
0
 10
17.8075
 20
44.9762
 11
17.6524
 21
44.499
  0
LINE
  8
0
 10
17.6524
 20
44.499
 11
17.6
 21
44
  0
LINE
  8
0
 10
17.6
 20
44
 11
17.6524
 21
43.501
  0
LINE
  8
0
 10
17.6524
 20
43.501
 11
17.8075
 21
43.0238
  0
LINE
  8
0
 10
17.8075
 20
43.0238
 11
18.0583
 21
42.5893
  0
LINE
  8
0
 10
18.0583
 20
42.5893
 11
18.3941
 21
42.2164
  0
LINE
  8
0
 10
18.3941
 20
42.2164
 11
18.8
 21
41.9215
  0
LINE
  8
0
 10
18.8
 20
41.9215
 11
19.2583
 21
41.7175
  0
LINE
  8
0
 10
19.2583
 20
41.7175
 11
19.7491
 21
41.6131
  0
LINE
  8
0
 10
19.7491
 20
41.6131
 11
20.2509
 21
41.6131
  0
LINE
  8
0
 10
20.2509
 20
41.6131
 11
20.7416
 21
41.7175
  0
LINE
  8
0
 10
52.7416
 20
41.7175
 11
53.2
 21
41.9215
  0
LINE
  8
0
 10
53.2
 20
41.9215
 11
53.6059
 21
42.2164
  0
LINE
  8
0
 10
53.6059
 20
42.2164
 11
53.9416
 21
42.5893
  0
LINE
  8
0
 10
53.9416
 20
42.5893
 11
54.1925
 21
43.0238
  0
LINE
  8
0
 10
54.1925
 20
43.0238
 11
54.3475
 21
43.501
  0
LINE
  8
0
 10
54.3475
 20
43.501
 11
54.4
 21
44
  0
LINE
  8
0
 10
54.4
 20
44
 11
54.3475
 21
44.499
  0
LINE
  8
0
 10
54.3475
 20
44.499
 11
54.1925
 21
44.9762
  0
LINE
  8
0
 10
54.1925
 20
44.9762
 11
53.9416
 21
45.4107
  0
LINE
  8
0
 10
53.9416
 20
45.4107
 11
53.6059
 21
45.7835
  0
LINE
  8
0
 10
53.6059
 20
45.7835
 11
53.2
 21
46.0785
  0
LINE
  8
0
 10
53.2
 20
46.0785
 11
52.7416
 21
46.2825
  0
LINE
  8
0
 10
52.7416
 20
46.2825
 11
52.2509
 21
46.3868
  0
LINE
  8
0
 10
52.2509
 20
46.3868
 11
51.7491
 21
46.3868
  0
LINE
  8
0
 10
51.7491
 20
46.3868
 11
51.2583
 21
46.2825
  0
LINE
  8
0
 10
51.2583
 20
46.2825
 11
50.8
 21
46.0785
  0
LINE
  8
0
 10
50.8
 20
46.0785
 11
50.3941
 21
45.7835
  0
LINE
  8
0
 10
50.3941
 20
45.7835
 11
50.0583
 21
45.4107
  0
LINE
  8
0
 10
50.0583
 20
45.4107
 11
49.8075
 21
44.9762
  0
LINE
  8
0
 10
49.8075
 20
44.9762
 11
49.6524
 21
44.499
  0
LINE
  8
0
 10
49.6524
 20
44.499
 11
49.6
 21
44
  0
LINE
  8
0
 10
49.6
 20
44
 11
49.6524
 21
43.501
  0
LINE
  8
0
 10
49.6524
 20
43.501
 11
49.8075
 21
43.0238
  0
LINE
  8
0
 10
49.8075
 20
43.0238
 11
50.0583
 21
42.5893
  0
LINE
  8
0
 10
50.0583
 20
42.5893
 11
50.3941
 21
42.2164
  0
LINE
  8
0
 10
50.3941
 20
42.2164
 11
50.8
 21
41.9215
  0
LINE
  8
0
 10
50.8
 20
41.9215
 11
51.2583
 21
41.7175
  0
LINE
  8
0
 10
51.2583
 20
41.7175
 11
51.7491
 21
41.6131
  0
LINE
  8
0
 10
51.7491
 20
41.6131
 11
52.2509
 21
41.6131
  0
LINE
  8
0
 10
52.2509
 20
41.6131
 11
52.7416
 21
41.7175
  0
LINE
  8
0
 10
28.7416
 20
41.7175
 11
29.2
 21
41.9215
  0
LINE
  8
0
 10
29.2
 20
41.9215
 11
29.6059
 21
42.2164
  0
LINE
  8
0
 10
29.6059
 20
42.2164
 11
29.9416
 21
42.5893
  0
LINE
  8
0
 10
29.9416
 20
42.5893
 11
30.1925
 21
43.0238
  0
LINE
  8
0
 10
30.1925
 20
43.0238
 11
30.3475
 21
43.501
  0
LINE
  8
0
 10
30.3475
 20
43.501
 11
30.4
 21
44
  0
LINE
  8
0
 10
30.4
 20
44
 11
30.3475
 21
44.499
  0
LINE
  8
0
 10
30.3475
 20
44.499
 11
30.1925
 21
44.9762
  0
LINE
  8
0
 10
30.1925
 20
44.9762
 11
29.9416
 21
45.4107
  0
LINE
  8
0
 10
29.9416
 20
45.4107
 11
29.6059
 21
45.7835
  0
LINE
  8
0
 10
29.6059
 20
45.7835
 11
29.2
 21
46.0785
  0
LINE
  8
0
 10
29.2
 20
46.0785
 11
28.7416
 21
46.2825
  0
LINE
  8
0
 10
28.7416
 20
46.2825
 11
28.2509
 21
46.3868
  0
LINE
  8
0
 10
28.2509
 20
46.3868
 11
27.7491
 21
46.3868
  0
LINE
  8
0
 10
27.7491
 20
46.3868
 11
27.2583
 21
46.2825
  0
LINE
  8
0
 10
27.2583
 20
46.2825
 11
26.8
 21
46.0785
  0
LINE
  8
0
 10
26.8
 20
46.0785
 11
26.3941
 21
45.7835
  0
LINE
  8
0
 10
26.3941
 20
45.7835
 11
26.0583
 21
45.4107
  0
LINE
  8
0
 10
26.0583
 20
45.4107
 11
25.8075
 21
44.9762
  0
LINE
  8
0
 10
25.8075
 20
44.9762
 11
25.6524
 21
44.499
  0
LINE
  8
0
 10
25.6524
 20
44.499
 11
25.6
 21
44
  0
LINE
  8
0
 10
25.6
 20
44
 11
25.6524
 21
43.501
  0
LINE
  8
0
 10
25.6524
 20
43.501
 11
25.8075
 21
43.0238
  0
LINE
  8
0
 10
25.8075
 20
43.0238
 11
26.0583
 21
42.5893
  0
LINE
  8
0
 10
26.0583
 20
42.5893
 11
26.3941
 21
42.2164
  0
LINE
  8
0
 10
26.3941
 20
42.2164
 11
26.8
 21
41.9215
  0
LINE
  8
0
 10
26.8
 20
41.9215
 11
27.2583
 21
41.7175
  0
LINE
  8
0
 10
27.2583
 20
41.7175
 11
27.7491
 21
41.6131
  0
LINE
  8
0
 10
27.7491
 20
41.6131
 11
28.2509
 21
41.6131
  0
LINE
  8
0
 10
28.2509
 20
41.6131
 11
28.7416
 21
41.7175
  0
LINE
  8
0
 10
44.7416
 20
41.7175
 11
45.2
 21
41.9215
  0
LINE
  8
0
 10
45.2
 20
41.9215
 11
45.6059
 21
42.2164
  0
LINE
  8
0
 10
45.6059
 20
42.2164
 11
45.9416
 21
42.5893
  0
LINE
  8
0
 10
45.9416
 20
42.5893
 11
46.1925
 21
43.0238
  0
LINE
  8
0
 10
46.1925
 20
43.0238
 11
46.3475
 21
43.501
  0
LINE
  8
0
 10
46.3475
 20
43.501
 11
46.4
 21
44
  0
LINE
  8
0
 10
46.4
 20
44
 11
46.3475
 21
44.499
  0
LINE
  8
0
 10
46.3475
 20
44.499
 11
46.1925
 21
44.9762
  0
LINE
  8
0
 10
46.1925
 20
44.9762
 11
45.9416
 21
45.4107
  0
LINE
  8
0
 10
45.9416
 20
45.4107
 11
45.6059
 21
45.7835
  0
LINE
  8
0
 10
45.6059
 20
45.7835
 11
45.2
 21
46.0785
  0
LINE
  8
0
 10
45.2
 20
46.0785
 11
44.7416
 21
46.2825
  0
LINE
  8
0
 10
44.7416
 20
46.2825
 11
44.2509
 21
46.3868
  0
LINE
  8
0
 10
44.2509
 20
46.3868
 11
43.7491
 21
46.3868
  0
LINE
  8
0
 10
43.7491
 20
46.3868
 11
43.2583
 21
46.2825
  0
LINE
  8
0
 10
43.2583
 20
46.2825
 11
42.8
 21
46.0785
  0
LINE
  8
0
 10
42.8
 20
46.0785
 11
42.3941
 21
45.7835
  0
LINE
  8
0
 10
42.3941
 20
45.7835
 11
42.0583
 21
45.4107
  0
LINE
  8
0
 10
42.0583
 20
45.4107
 11
41.8075
 21
44.9762
  0
LINE
  8
0
 10
41.8075
 20
44.9762
 11
41.6524
 21
44.499
  0
LINE
  8
0
 10
41.6524
 20
44.499
 11
41.6
 21
44
  0
LINE
  8
0
 10
41.6
 20
44
 11
41.6524
 21
43.501
  0
LINE
  8
0
 10
41.6524
 20
43.501
 11
41.8075
 21
43.0238
  0
LINE
  8
0
 10
41.8075
 20
43.0238
 11
42.0583
 21
42.5893
  0
LINE
  8
0
 10
42.0583
 20
42.5893
 11
42.3941
 21
42.2164
  0
LINE
  8
0
 10
42.3941
 20
42.2164
 11
42.8
 21
41.9215
  0
LINE
  8
0
 10
42.8
 20
41.9215
 11
43.2583
 21
41.7175
  0
LINE
  8
0
 10
43.2583
 20
41.7175
 11
43.7491
 21
41.6131
  0
LINE
  8
0
 10
43.7491
 20
41.6131
 11
44.2509
 21
41.6131
  0
LINE
  8
0
 10
44.2509
 20
41.6131
 11
44.7416
 21
41.7175
  0
LINE
  8
0
 10
28.7416
 20
33.7175
 11
29.2
 21
33.9215
  0
LINE
  8
0
 10
29.2
 20
33.9215
 11
29.6059
 21
34.2164
  0
LINE
  8
0
 10
29.6059
 20
34.2164
 11
29.9416
 21
34.5893
  0
LINE
  8
0
 10
29.9416
 20
34.5893
 11
30.1925
 21
35.0238
  0
LINE
  8
0
 10
30.1925
 20
35.0238
 11
30.3475
 21
35.501
  0
LINE
  8
0
 10
30.3475
 20
35.501
 11
30.4
 21
36
  0
LINE
  8
0
 10
30.4
 20
36
 11
30.3475
 21
36.499
  0
LINE
  8
0
 10
30.3475
 20
36.499
 11
30.1925
 21
36.9762
  0
LINE
  8
0
 10
30.1925
 20
36.9762
 11
29.9416
 21
37.4107
  0
LINE
  8
0
 10
29.9416
 20
37.4107
 11
29.6059
 21
37.7835
  0
LINE
  8
0
 10
29.6059
 20
37.7835
 11
29.2
 21
38.0785
  0
LINE
  8
0
 10
29.2
 20
38.0785
 11
28.7416
 21
38.2825
  0
LINE
  8
0
 10
28.7416
 20
38.2825
 11
28.2509
 21
38.3868
  0
LINE
  8
0
 10
28.2509
 20
38.3868
 11
27.7491
 21
38.3868
  0
LINE
  8
0
 10
27.7491
 20
38.3868
 11
27.2583
 21
38.2825
  0
LINE
  8
0
 10
27.2583
 20
38.2825
 11
26.8
 21
38.0785
  0
LINE
  8
0
 10
26.8
 20
38.0785
 11
26.3941
 21
37.7835
  0
LINE
  8
0
 10
26.3941
 20
37.7835
 11
26.0583
 21
37.4107
  0
LINE
  8
0
 10
26.0583
 20
37.4107
 11
25.8075
 21
36.9762
  0
LINE
  8
0
 10
25.8075
 20
36.9762
 11
25.6524
 21
36.499
  0
LINE
  8
0
 10
25.6524
 20
36.499
 11
25.6
 21
36
  0
LINE
  8
0
 10
25.6
 20
36
 11
25.6524
 21
35.501
  0
LINE
  8
0
 10
25.6524
 20
35.501
 11
25.8075
 21
35.0238
  0
LINE
  8
0
 10
25.8075
 20
35.0238
 11
26.0583
 21
34.5893
  0
LINE
  8
0
 10
26.0583
 20
34.5893
 11
26.3941
 21
34.2164
  0
LINE
  8
0
 10
26.3941
 20
34.2164
 11
26.8
 21
33.9215
  0
LINE
  8
0
 10
26.8
 20
33.9215
 11
27.2583
 21
33.7175
  0
LINE
  8
0
 10
27.2583
 20
33.7175
 11
27.7491
 21
33.6131
  0
LINE
  8
0
 10
27.7491
 20
33.6131
 11
28.2509
 21
33.6131
  0
LINE
  8
0
 10
28.2509
 20
33.6131
 11
28.7416
 21
33.7175
  0
LINE
  8
0
 10
44.7416
 20
33.7175
 11
45.2
 21
33.9215
  0
LINE
  8
0
 10
45.2
 20
33.9215
 11
45.6059
 21
34.2164
  0
LINE
  8
0
 10
45.6059
 20
34.2164
 11
45.9416
 21
34.5893
  0
LINE
  8
0
 10
45.9416
 20
34.5893
 11
46.1925
 21
35.0238
  0
LINE
  8
0
 10
46.1925
 20
35.0238
 11
46.3475
 21
35.501
  0
LINE
  8
0
 10
46.3475
 20
35.501
 11
46.4
 21
36
  0
LINE
  8
0
 10
46.4
 20
36
 11
46.3475
 21
36.499
  0
LINE
  8
0
 10
46.3475
 20
36.499
 11
46.1925
 21
36.9762
  0
LINE
  8
0
 10
46.1925
 20
36.9762
 11
45.9416
 21
37.4107
  0
LINE
  8
0
 10
45.9416
 20
37.4107
 11
45.6059
 21
37.7835
  0
LINE
  8
0
 10
45.6059
 20
37.7835
 11
45.2
 21
38.0785
  0
LINE
  8
0
 10
45.2
 20
38.0785
 11
44.7416
 21
38.2825
  0
LINE
  8
0
 10
44.7416
 20
38.2825
 11
44.2509
 21
38.3868
  0
LINE
  8
0
 10
44.2509
 20
38.3868
 11
43.7491
 21
38.3868
  0
LINE
  8
0
 10
43.7491
 20
38.3868
 11
43.2583
 21
38.2825
  0
LINE
  8
0
 10
43.2583
 20
38.2825
 11
42.8
 21
38.0785
  0
LINE
  8
0
 10
42.8
 20
38.0785
 11
42.3941
 21
37.7835
  0
LINE
  8
0
 10
42.3941
 20
37.7835
 11
42.0583
 21
37.4107
  0
LINE
  8
0
 10
42.0583
 20
37.4107
 11
41.8075
 21
36.9762
  0
LINE
  8
0
 10
41.8075
 20
36.9762
 11
41.6524
 21
36.499
  0
LINE
  8
0
 10
41.6524
 20
36.499
 11
41.6
 21
36
  0
LINE
  8
0
 10
41.6
 20
36
 11
41.6524
 21
35.501
  0
LINE
  8
0
 10
41.6524
 20
35.501
 11
41.8075
 21
35.0238
  0
LINE
  8
0
 10
41.8075
 20
35.0238
 11
42.0583
 21
34.5893
  0
LINE
  8
0
 10
42.0583
 20
34.5893
 11
42.3941
 21
34.2164
  0
LINE
  8
0
 10
42.3941
 20
34.2164
 11
42.8
 21
33.9215
  0
LINE
  8
0
 10
42.8
 20
33.9215
 11
43.2583
 21
33.7175
  0
LINE
  8
0
 10
43.2583
 20
33.7175
 11
43.7491
 21
33.6131
  0
LINE
  8
0
 10
43.7491
 20
33.6131
 11
44.2509
 21
33.6131
  0
LINE
  8
0
 10
44.2509
 20
33.6131
 11
44.7416
 21
33.7175
  0
LINE
  8
0
 10
4.74164
 20
33.7175
 11
5.2
 21
33.9215
  0
LINE
  8
0
 10
5.2
 20
33.9215
 11
5.60591
 21
34.2164
  0
LINE
  8
0
 10
5.60591
 20
34.2164
 11
5.94164
 21
34.5893
  0
LINE
  8
0
 10
5.94164
 20
34.5893
 11
6.1925
 21
35.0238
  0
LINE
  8
0
 10
6.1925
 20
35.0238
 11
6.34755
 21
35.501
  0
LINE
  8
0
 10
6.34755
 20
35.501
 11
6.39999
 21
36
  0
LINE
  8
0
 10
6.39999
 20
36
 11
6.34755
 21
36.499
  0
LINE
  8
0
 10
6.34755
 20
36.499
 11
6.1925
 21
36.9762
  0
LINE
  8
0
 10
6.1925
 20
36.9762
 11
5.94164
 21
37.4107
  0
LINE
  8
0
 10
5.94164
 20
37.4107
 11
5.60591
 21
37.7835
  0
LINE
  8
0
 10
5.60591
 20
37.7835
 11
5.2
 21
38.0785
  0
LINE
  8
0
 10
5.2
 20
38.0785
 11
4.74164
 21
38.2825
  0
LINE
  8
0
 10
4.74164
 20
38.2825
 11
4.25085
 21
38.3868
  0
LINE
  8
0
 10
4.25085
 20
38.3868
 11
3.74913
 21
38.3868
  0
LINE
  8
0
 10
3.74913
 20
38.3868
 11
3.25835
 21
38.2825
  0
LINE
  8
0
 10
3.25835
 20
38.2825
 11
2.79999
 21
38.0785
  0
LINE
  8
0
 10
2.79999
 20
38.0785
 11
2.39407
 21
37.7835
  0
LINE
  8
0
 10
2.39407
 20
37.7835
 11
2.05835
 21
37.4107
  0
LINE
  8
0
 10
2.05835
 20
37.4107
 11
1.80748
 21
36.9762
  0
LINE
  8
0
 10
1.80748
 20
36.9762
 11
1.65244
 21
36.499
  0
LINE
  8
0
 10
1.65244
 20
36.499
 11
1.59999
 21
36
  0
LINE
  8
0
 10
1.59999
 20
36
 11
1.65244
 21
35.501
  0
LINE
  8
0
 10
1.65244
 20
35.501
 11
1.80748
 21
35.0238
  0
LINE
  8
0
 10
1.80748
 20
35.0238
 11
2.05835
 21
34.5893
  0
LINE
  8
0
 10
2.05835
 20
34.5893
 11
2.39407
 21
34.2164
  0
LINE
  8
0
 10
2.39407
 20
34.2164
 11
2.79999
 21
33.9215
  0
LINE
  8
0
 10
2.79999
 20
33.9215
 11
3.25835
 21
33.7175
  0
LINE
  8
0
 10
3.25835
 20
33.7175
 11
3.74913
 21
33.6131
  0
LINE
  8
0
 10
3.74913
 20
33.6131
 11
4.25085
 21
33.6131
  0
LINE
  8
0
 10
4.25085
 20
33.6131
 11
4.74164
 21
33.7175
  0
LINE
  8
0
 10
60.7416
 20
33.7175
 11
61.2
 21
33.9215
  0
LINE
  8
0
 10
61.2
 20
33.9215
 11
61.6059
 21
34.2164
  0
LINE
  8
0
 10
61.6059
 20
34.2164
 11
61.9416
 21
34.5893
  0
LINE
  8
0
 10
61.9416
 20
34.5893
 11
62.1925
 21
35.0238
  0
LINE
  8
0
 10
62.1925
 20
35.0238
 11
62.3475
 21
35.501
  0
LINE
  8
0
 10
62.3475
 20
35.501
 11
62.4
 21
36
  0
LINE
  8
0
 10
62.4
 20
36
 11
62.3475
 21
36.499
  0
LINE
  8
0
 10
62.3475
 20
36.499
 11
62.1925
 21
36.9762
  0
LINE
  8
0
 10
62.1925
 20
36.9762
 11
61.9416
 21
37.4107
  0
LINE
  8
0
 10
61.9416
 20
37.4107
 11
61.6059
 21
37.7835
  0
LINE
  8
0
 10
61.6059
 20
37.7835
 11
61.2
 21
38.0785
  0
LINE
  8
0
 10
61.2
 20
38.0785
 11
60.7416
 21
38.2825
  0
LINE
  8
0
 10
60.7416
 20
38.2825
 11
60.2509
 21
38.3868
  0
LINE
  8
0
 10
60.2509
 20
38.3868
 11
59.7491
 21
38.3868
  0
LINE
  8
0
 10
59.7491
 20
38.3868
 11
59.2583
 21
38.2825
  0
LINE
  8
0
 10
59.2583
 20
38.2825
 11
58.8
 21
38.0785
  0
LINE
  8
0
 10
58.8
 20
38.0785
 11
58.3941
 21
37.7835
  0
LINE
  8
0
 10
58.3941
 20
37.7835
 11
58.0583
 21
37.4107
  0
LINE
  8
0
 10
58.0583
 20
37.4107
 11
57.8075
 21
36.9762
  0
LINE
  8
0
 10
57.8075
 20
36.9762
 11
57.6524
 21
36.499
  0
LINE
  8
0
 10
57.6524
 20
36.499
 11
57.6
 21
36
  0
LINE
  8
0
 10
57.6
 20
36
 11
57.6524
 21
35.501
  0
LINE
  8
0
 10
57.6524
 20
35.501
 11
57.8075
 21
35.0238
  0
LINE
  8
0
 10
57.8075
 20
35.0238
 11
58.0583
 21
34.5893
  0
LINE
  8
0
 10
58.0583
 20
34.5893
 11
58.3941
 21
34.2164
  0
LINE
  8
0
 10
58.3941
 20
34.2164
 11
58.8
 21
33.9215
  0
LINE
  8
0
 10
58.8
 20
33.9215
 11
59.2583
 21
33.7175
  0
LINE
  8
0
 10
59.2583
 20
33.7175
 11
59.7491
 21
33.6131
  0
LINE
  8
0
 10
59.7491
 20
33.6131
 11
60.2509
 21
33.6131
  0
LINE
  8
0
 10
60.2509
 20
33.6131
 11
60.7416
 21
33.7175
  0
LINE
  8
0
 10
36.7416
 20
33.7175
 11
37.2
 21
33.9215
  0
LINE
  8
0
 10
37.2
 20
33.9215
 11
37.6059
 21
34.2164
  0
LINE
  8
0
 10
37.6059
 20
34.2164
 11
37.9416
 21
34.5893
  0
LINE
  8
0
 10
37.9416
 20
34.5893
 11
38.1925
 21
35.0238
  0
LINE
  8
0
 10
38.1925
 20
35.0238
 11
38.3475
 21
35.501
  0
LINE
  8
0
 10
38.3475
 20
35.501
 11
38.4
 21
36
  0
LINE
  8
0
 10
38.4
 20
36
 11
38.3475
 21
36.499
  0
LINE
  8
0
 10
38.3475
 20
36.499
 11
38.1925
 21
36.9762
  0
LINE
  8
0
 10
38.1925
 20
36.9762
 11
37.9416
 21
37.4107
  0
LINE
  8
0
 10
37.9416
 20
37.4107
 11
37.6059
 21
37.7835
  0
LINE
  8
0
 10
37.6059
 20
37.7835
 11
37.2
 21
38.0785
  0
LINE
  8
0
 10
37.2
 20
38.0785
 11
36.7416
 21
38.2825
  0
LINE
  8
0
 10
36.7416
 20
38.2825
 11
36.2509
 21
38.3868
  0
LINE
  8
0
 10
36.2509
 20
38.3868
 11
35.7491
 21
38.3868
  0
LINE
  8
0
 10
35.7491
 20
38.3868
 11
35.2583
 21
38.2825
  0
LINE
  8
0
 10
35.2583
 20
38.2825
 11
34.8
 21
38.0785
  0
LINE
  8
0
 10
34.8
 20
38.0785
 11
34.3941
 21
37.7835
  0
LINE
  8
0
 10
34.3941
 20
37.7835
 11
34.0583
 21
37.4107
  0
LINE
  8
0
 10
34.0583
 20
37.4107
 11
33.8075
 21
36.9762
  0
LINE
  8
0
 10
33.8075
 20
36.9762
 11
33.6524
 21
36.499
  0
LINE
  8
0
 10
33.6524
 20
36.499
 11
33.6
 21
36
  0
LINE
  8
0
 10
33.6
 20
36
 11
33.6524
 21
35.501
  0
LINE
  8
0
 10
33.6524
 20
35.501
 11
33.8075
 21
35.0238
  0
LINE
  8
0
 10
33.8075
 20
35.0238
 11
34.0583
 21
34.5893
  0
LINE
  8
0
 10
34.0583
 20
34.5893
 11
34.3941
 21
34.2164
  0
LINE
  8
0
 10
34.3941
 20
34.2164
 11
34.8
 21
33.9215
  0
LINE
  8
0
 10
34.8
 20
33.9215
 11
35.2583
 21
33.7175
  0
LINE
  8
0
 10
35.2583
 20
33.7175
 11
35.7491
 21
33.6131
  0
LINE
  8
0
 10
35.7491
 20
33.6131
 11
36.2509
 21
33.6131
  0
LINE
  8
0
 10
36.2509
 20
33.6131
 11
36.7416
 21
33.7175
  0
LINE
  8
0
 10
12.7416
 20
33.7175
 11
13.2
 21
33.9215
  0
LINE
  8
0
 10
13.2
 20
33.9215
 11
13.6059
 21
34.2164
  0
LINE
  8
0
 10
13.6059
 20
34.2164
 11
13.9416
 21
34.5893
  0
LINE
  8
0
 10
13.9416
 20
34.5893
 11
14.1925
 21
35.0238
  0
LINE
  8
0
 10
14.1925
 20
35.0238
 11
14.3475
 21
35.501
  0
LINE
  8
0
 10
14.3475
 20
35.501
 11
14.4
 21
36
  0
LINE
  8
0
 10
14.4
 20
36
 11
14.3475
 21
36.499
  0
LINE
  8
0
 10
14.3475
 20
36.499
 11
14.1925
 21
36.9762
  0
LINE
  8
0
 10
14.1925
 20
36.9762
 11
13.9416
 21
37.4107
  0
LINE
  8
0
 10
13.9416
 20
37.4107
 11
13.6059
 21
37.7835
  0
LINE
  8
0
 10
13.6059
 20
37.7835
 11
13.2
 21
38.0785
  0
LINE
  8
0
 10
13.2
 20
38.0785
 11
12.7416
 21
38.2825
  0
LINE
  8
0
 10
12.7416
 20
38.2825
 11
12.2509
 21
38.3868
  0
LINE
  8
0
 10
12.2509
 20
38.3868
 11
11.7491
 21
38.3868
  0
LINE
  8
0
 10
11.7491
 20
38.3868
 11
11.2583
 21
38.2825
  0
LINE
  8
0
 10
11.2583
 20
38.2825
 11
10.8
 21
38.0785
  0
LINE
  8
0
 10
10.8
 20
38.0785
 11
10.3941
 21
37.7835
  0
LINE
  8
0
 10
10.3941
 20
37.7835
 11
10.0583
 21
37.4107
  0
LINE
  8
0
 10
10.0583
 20
37.4107
 11
9.80748
 21
36.9762
  0
LINE
  8
0
 10
9.80748
 20
36.9762
 11
9.65244
 21
36.499
  0
LINE
  8
0
 10
9.65244
 20
36.499
 11
9.59999
 21
36
  0
LINE
  8
0
 10
9.59999
 20
36
 11
9.65244
 21
35.501
  0
LINE
  8
0
 10
9.65244
 20
35.501
 11
9.80748
 21
35.0238
  0
LINE
  8
0
 10
9.80748
 20
35.0238
 11
10.0583
 21
34.5893
  0
LINE
  8
0
 10
10.0583
 20
34.5893
 11
10.3941
 21
34.2164
  0
LINE
  8
0
 10
10.3941
 20
34.2164
 11
10.8
 21
33.9215
  0
LINE
  8
0
 10
10.8
 20
33.9215
 11
11.2583
 21
33.7175
  0
LINE
  8
0
 10
11.2583
 20
33.7175
 11
11.7491
 21
33.6131
  0
LINE
  8
0
 10
11.7491
 20
33.6131
 11
12.2509
 21
33.6131
  0
LINE
  8
0
 10
12.2509
 20
33.6131
 11
12.7416
 21
33.7175
  0
LINE
  8
0
 10
20.7416
 20
33.7175
 11
21.2
 21
33.9215
  0
LINE
  8
0
 10
21.2
 20
33.9215
 11
21.6059
 21
34.2164
  0
LINE
  8
0
 10
21.6059
 20
34.2164
 11
21.9416
 21
34.5893
  0
LINE
  8
0
 10
21.9416
 20
34.5893
 11
22.1925
 21
35.0238
  0
LINE
  8
0
 10
22.1925
 20
35.0238
 11
22.3475
 21
35.501
  0
LINE
  8
0
 10
22.3475
 20
35.501
 11
22.4
 21
36
  0
LINE
  8
0
 10
22.4
 20
36
 11
22.3475
 21
36.499
  0
LINE
  8
0
 10
22.3475
 20
36.499
 11
22.1925
 21
36.9762
  0
LINE
  8
0
 10
22.1925
 20
36.9762
 11
21.9416
 21
37.4107
  0
LINE
  8
0
 10
21.9416
 20
37.4107
 11
21.6059
 21
37.7835
  0
LINE
  8
0
 10
21.6059
 20
37.7835
 11
21.2
 21
38.0785
  0
LINE
  8
0
 10
21.2
 20
38.0785
 11
20.7416
 21
38.2825
  0
LINE
  8
0
 10
20.7416
 20
38.2825
 11
20.2509
 21
38.3868
  0
LINE
  8
0
 10
20.2509
 20
38.3868
 11
19.7491
 21
38.3868
  0
LINE
  8
0
 10
19.7491
 20
38.3868
 11
19.2583
 21
38.2825
  0
LINE
  8
0
 10
19.2583
 20
38.2825
 11
18.8
 21
38.0785
  0
LINE
  8
0
 10
18.8
 20
38.0785
 11
18.3941
 21
37.7835
  0
LINE
  8
0
 10
18.3941
 20
37.7835
 11
18.0583
 21
37.4107
  0
LINE
  8
0
 10
18.0583
 20
37.4107
 11
17.8075
 21
36.9762
  0
LINE
  8
0
 10
17.8075
 20
36.9762
 11
17.6524
 21
36.499
  0
LINE
  8
0
 10
17.6524
 20
36.499
 11
17.6
 21
36
  0
LINE
  8
0
 10
17.6
 20
36
 11
17.6524
 21
35.501
  0
LINE
  8
0
 10
17.6524
 20
35.501
 11
17.8075
 21
35.0238
  0
LINE
  8
0
 10
17.8075
 20
35.0238
 11
18.0583
 21
34.5893
  0
LINE
  8
0
 10
18.0583
 20
34.5893
 11
18.3941
 21
34.2164
  0
LINE
  8
0
 10
18.3941
 20
34.2164
 11
18.8
 21
33.9215
  0
LINE
  8
0
 10
18.8
 20
33.9215
 11
19.2583
 21
33.7175
  0
LINE
  8
0
 10
19.2583
 20
33.7175
 11
19.7491
 21
33.6131
  0
LINE
  8
0
 10
19.7491
 20
33.6131
 11
20.2509
 21
33.6131
  0
LINE
  8
0
 10
20.2509
 20
33.6131
 11
20.7416
 21
33.7175
  0
LINE
  8
0
 10
52.7416
 20
33.7175
 11
53.2
 21
33.9215
  0
LINE
  8
0
 10
53.2
 20
33.9215
 11
53.6059
 21
34.2164
  0
LINE
  8
0
 10
53.6059
 20
34.2164
 11
53.9416
 21
34.5893
  0
LINE
  8
0
 10
53.9416
 20
34.5893
 11
54.1925
 21
35.0238
  0
LINE
  8
0
 10
54.1925
 20
35.0238
 11
54.3475
 21
35.501
  0
LINE
  8
0
 10
54.3475
 20
35.501
 11
54.4
 21
36
  0
LINE
  8
0
 10
54.4
 20
36
 11
54.3475
 21
36.499
  0
LINE
  8
0
 10
54.3475
 20
36.499
 11
54.1925
 21
36.9762
  0
LINE
  8
0
 10
54.1925
 20
36.9762
 11
53.9416
 21
37.4107
  0
LINE
  8
0
 10
53.9416
 20
37.4107
 11
53.6059
 21
37.7835
  0
LINE
  8
0
 10
53.6059
 20
37.7835
 11
53.2
 21
38.0785
  0
LINE
  8
0
 10
53.2
 20
38.0785
 11
52.7416
 21
38.2825
  0
LINE
  8
0
 10
52.7416
 20
38.2825
 11
52.2509
 21
38.3868
  0
LINE
  8
0
 10
52.2509
 20
38.3868
 11
51.7491
 21
38.3868
  0
LINE
  8
0
 10
51.7491
 20
38.3868
 11
51.2583
 21
38.2825
  0
LINE
  8
0
 10
51.2583
 20
38.2825
 11
50.8
 21
38.0785
  0
LINE
  8
0
 10
50.8
 20
38.0785
 11
50.3941
 21
37.7835
  0
LINE
  8
0
 10
50.3941
 20
37.7835
 11
50.0583
 21
37.4107
  0
LINE
  8
0
 10
50.0583
 20
37.4107
 11
49.8075
 21
36.9762
  0
LINE
  8
0
 10
49.8075
 20
36.9762
 11
49.6524
 21
36.499
  0
LINE
  8
0
 10
49.6524
 20
36.499
 11
49.6
 21
36
  0
LINE
  8
0
 10
49.6
 20
36
 11
49.6524
 21
35.501
  0
LINE
  8
0
 10
49.6524
 20
35.501
 11
49.8075
 21
35.0238
  0
LINE
  8
0
 10
49.8075
 20
35.0238
 11
50.0583
 21
34.5893
  0
LINE
  8
0
 10
50.0583
 20
34.5893
 11
50.3941
 21
34.2164
  0
LINE
  8
0
 10
50.3941
 20
34.2164
 11
50.8
 21
33.9215
  0
LINE
  8
0
 10
50.8
 20
33.9215
 11
51.2583
 21
33.7175
  0
LINE
  8
0
 10
51.2583
 20
33.7175
 11
51.7491
 21
33.6131
  0
LINE
  8
0
 10
51.7491
 20
33.6131
 11
52.2509
 21
33.6131
  0
LINE
  8
0
 10
52.2509
 20
33.6131
 11
52.7416
 21
33.7175
  0
LINE
  8
0
 10
36.7416
 20
25.7175
 11
37.2
 21
25.9215
  0
LINE
  8
0
 10
37.2
 20
25.9215
 11
37.6059
 21
26.2164
  0
LINE
  8
0
 10
37.6059
 20
26.2164
 11
37.9416
 21
26.5893
  0
LINE
  8
0
 10
37.9416
 20
26.5893
 11
38.1925
 21
27.0238
  0
LINE
  8
0
 10
38.1925
 20
27.0238
 11
38.3475
 21
27.501
  0
LINE
  8
0
 10
38.3475
 20
27.501
 11
38.4
 21
28
  0
LINE
  8
0
 10
38.4
 20
28
 11
38.3475
 21
28.499
  0
LINE
  8
0
 10
38.3475
 20
28.499
 11
38.1925
 21
28.9762
  0
LINE
  8
0
 10
38.1925
 20
28.9762
 11
37.9416
 21
29.4107
  0
LINE
  8
0
 10
37.9416
 20
29.4107
 11
37.6059
 21
29.7835
  0
LINE
  8
0
 10
37.6059
 20
29.7835
 11
37.2
 21
30.0785
  0
LINE
  8
0
 10
37.2
 20
30.0785
 11
36.7416
 21
30.2825
  0
LINE
  8
0
 10
36.7416
 20
30.2825
 11
36.2509
 21
30.3868
  0
LINE
  8
0
 10
36.2509
 20
30.3868
 11
35.7491
 21
30.3868
  0
LINE
  8
0
 10
35.7491
 20
30.3868
 11
35.2583
 21
30.2825
  0
LINE
  8
0
 10
35.2583
 20
30.2825
 11
34.8
 21
30.0785
  0
LINE
  8
0
 10
34.8
 20
30.0785
 11
34.3941
 21
29.7835
  0
LINE
  8
0
 10
34.3941
 20
29.7835
 11
34.0583
 21
29.4107
  0
LINE
  8
0
 10
34.0583
 20
29.4107
 11
33.8075
 21
28.9762
  0
LINE
  8
0
 10
33.8075
 20
28.9762
 11
33.6524
 21
28.499
  0
LINE
  8
0
 10
33.6524
 20
28.499
 11
33.6
 21
28
  0
LINE
  8
0
 10
33.6
 20
28
 11
33.6524
 21
27.501
  0
LINE
  8
0
 10
33.6524
 20
27.501
 11
33.8075
 21
27.0238
  0
LINE
  8
0
 10
33.8075
 20
27.0238
 11
34.0583
 21
26.5893
  0
LINE
  8
0
 10
34.0583
 20
26.5893
 11
34.3941
 21
26.2164
  0
LINE
  8
0
 10
34.3941
 20
26.2164
 11
34.8
 21
25.9215
  0
LINE
  8
0
 10
34.8
 20
25.9215
 11
35.2583
 21
25.7175
  0
LINE
  8
0
 10
35.2583
 20
25.7175
 11
35.7491
 21
25.6131
  0
LINE
  8
0
 10
35.7491
 20
25.6131
 11
36.2509
 21
25.6131
  0
LINE
  8
0
 10
36.2509
 20
25.6131
 11
36.7416
 21
25.7175
  0
LINE
  8
0
 10
52.7416
 20
25.7175
 11
53.2
 21
25.9215
  0
LINE
  8
0
 10
53.2
 20
25.9215
 11
53.6059
 21
26.2164
  0
LINE
  8
0
 10
53.6059
 20
26.2164
 11
53.9416
 21
26.5893
  0
LINE
  8
0
 10
53.9416
 20
26.5893
 11
54.1925
 21
27.0238
  0
LINE
  8
0
 10
54.1925
 20
27.0238
 11
54.3475
 21
27.501
  0
LINE
  8
0
 10
54.3475
 20
27.501
 11
54.4
 21
28
  0
LINE
  8
0
 10
54.4
 20
28
 11
54.3475
 21
28.499
  0
LINE
  8
0
 10
54.3475
 20
28.499
 11
54.1925
 21
28.9762
  0
LINE
  8
0
 10
54.1925
 20
28.9762
 11
53.9416
 21
29.4107
  0
LINE
  8
0
 10
53.9416
 20
29.4107
 11
53.6059
 21
29.7835
  0
LINE
  8
0
 10
53.6059
 20
29.7835
 11
53.2
 21
30.0785
  0
LINE
  8
0
 10
53.2
 20
30.0785
 11
52.7416
 21
30.2825
  0
LINE
  8
0
 10
52.7416
 20
30.2825
 11
52.2509
 21
30.3868
  0
LINE
  8
0
 10
52.2509
 20
30.3868
 11
51.7491
 21
30.3868
  0
LINE
  8
0
 10
51.7491
 20
30.3868
 11
51.2583
 21
30.2825
  0
LINE
  8
0
 10
51.2583
 20
30.2825
 11
50.8
 21
30.0785
  0
LINE
  8
0
 10
50.8
 20
30.0785
 11
50.3941
 21
29.7835
  0
LINE
  8
0
 10
50.3941
 20
29.7835
 11
50.0583
 21
29.4107
  0
LINE
  8
0
 10
50.0583
 20
29.4107
 11
49.8075
 21
28.9762
  0
LINE
  8
0
 10
49.8075
 20
28.9762
 11
49.6524
 21
28.499
  0
LINE
  8
0
 10
49.6524
 20
28.499
 11
49.6
 21
28
  0
LINE
  8
0
 10
49.6
 20
28
 11
49.6524
 21
27.501
  0
LINE
  8
0
 10
49.6524
 20
27.501
 11
49.8075
 21
27.0238
  0
LINE
  8
0
 10
49.8075
 20
27.0238
 11
50.0583
 21
26.5893
  0
LINE
  8
0
 10
50.0583
 20
26.5893
 11
50.3941
 21
26.2164
  0
LINE
  8
0
 10
50.3941
 20
26.2164
 11
50.8
 21
25.9215
  0
LINE
  8
0
 10
50.8
 20
25.9215
 11
51.2583
 21
25.7175
  0
LINE
  8
0
 10
51.2583
 20
25.7175
 11
51.7491
 21
25.6131
  0
LINE
  8
0
 10
51.7491
 20
25.6131
 11
52.2509
 21
25.6131
  0
LINE
  8
0
 10
52.2509
 20
25.6131
 11
52.7416
 21
25.7175
  0
LINE
  8
0
 10
60.7416
 20
25.7175
 11
61.2
 21
25.9215
  0
LINE
  8
0
 10
61.2
 20
25.9215
 11
61.6059
 21
26.2164
  0
LINE
  8
0
 10
61.6059
 20
26.2164
 11
61.9416
 21
26.5893
  0
LINE
  8
0
 10
61.9416
 20
26.5893
 11
62.1925
 21
27.0238
  0
LINE
  8
0
 10
62.1925
 20
27.0238
 11
62.3475
 21
27.501
  0
LINE
  8
0
 10
62.3475
 20
27.501
 11
62.4
 21
28
  0
LINE
  8
0
 10
62.4
 20
28
 11
62.3475
 21
28.499
  0
LINE
  8
0
 10
62.3475
 20
28.499
 11
62.1925
 21
28.9762
  0
LINE
  8
0
 10
62.1925
 20
28.9762
 11
61.9416
 21
29.4107
  0
LINE
  8
0
 10
61.9416
 20
29.4107
 11
61.6059
 21
29.7835
  0
LINE
  8
0
 10
61.6059
 20
29.7835
 11
61.2
 21
30.0785
  0
LINE
  8
0
 10
61.2
 20
30.0785
 11
60.7416
 21
30.2825
  0
LINE
  8
0
 10
60.7416
 20
30.2825
 11
60.2509
 21
30.3868
  0
LINE
  8
0
 10
60.2509
 20
30.3868
 11
59.7491
 21
30.3868
  0
LINE
  8
0
 10
59.7491
 20
30.3868
 11
59.2583
 21
30.2825
  0
LINE
  8
0
 10
59.2583
 20
30.2825
 11
58.8
 21
30.0785
  0
LINE
  8
0
 10
58.8
 20
30.0785
 11
58.3941
 21
29.7835
  0
LINE
  8
0
 10
58.3941
 20
29.7835
 11
58.0583
 21
29.4107
  0
LINE
  8
0
 10
58.0583
 20
29.4107
 11
57.8075
 21
28.9762
  0
LINE
  8
0
 10
57.8075
 20
28.9762
 11
57.6524
 21
28.499
  0
LINE
  8
0
 10
57.6524
 20
28.499
 11
57.6
 21
28
  0
LINE
  8
0
 10
57.6
 20
28
 11
57.6524
 21
27.501
  0
LINE
  8
0
 10
57.6524
 20
27.501
 11
57.8075
 21
27.0238
  0
LINE
  8
0
 10
57.8075
 20
27.0238
 11
58.0583
 21
26.5893
  0
LINE
  8
0
 10
58.0583
 20
26.5893
 11
58.3941
 21
26.2164
  0
LINE
  8
0
 10
58.3941
 20
26.2164
 11
58.8
 21
25.9215
  0
LINE
  8
0
 10
58.8
 20
25.9215
 11
59.2583
 21
25.7175
  0
LINE
  8
0
 10
59.2583
 20
25.7175
 11
59.7491
 21
25.6131
  0
LINE
  8
0
 10
59.7491
 20
25.6131
 11
60.2509
 21
25.6131
  0
LINE
  8
0
 10
60.2509
 20
25.6131
 11
60.7416
 21
25.7175
  0
LINE
  8
0
 10
28.7416
 20
25.7175
 11
29.2
 21
25.9215
  0
LINE
  8
0
 10
29.2
 20
25.9215
 11
29.6059
 21
26.2164
  0
LINE
  8
0
 10
29.6059
 20
26.2164
 11
29.9416
 21
26.5893
  0
LINE
  8
0
 10
29.9416
 20
26.5893
 11
30.1925
 21
27.0238
  0
LINE
  8
0
 10
30.1925
 20
27.0238
 11
30.3475
 21
27.501
  0
LINE
  8
0
 10
30.3475
 20
27.501
 11
30.4
 21
28
  0
LINE
  8
0
 10
30.4
 20
28
 11
30.3475
 21
28.499
  0
LINE
  8
0
 10
30.3475
 20
28.499
 11
30.1925
 21
28.9762
  0
LINE
  8
0
 10
30.1925
 20
28.9762
 11
29.9416
 21
29.4107
  0
LINE
  8
0
 10
29.9416
 20
29.4107
 11
29.6059
 21
29.7835
  0
LINE
  8
0
 10
29.6059
 20
29.7835
 11
29.2
 21
30.0785
  0
LINE
  8
0
 10
29.2
 20
30.0785
 11
28.7416
 21
30.2825
  0
LINE
  8
0
 10
28.7416
 20
30.2825
 11
28.2509
 21
30.3868
  0
LINE
  8
0
 10
28.2509
 20
30.3868
 11
27.7491
 21
30.3868
  0
LINE
  8
0
 10
27.7491
 20
30.3868
 11
27.2583
 21
30.2825
  0
LINE
  8
0
 10
27.2583
 20
30.2825
 11
26.8
 21
30.0785
  0
LINE
  8
0
 10
26.8
 20
30.0785
 11
26.3941
 21
29.7835
  0
LINE
  8
0
 10
26.3941
 20
29.7835
 11
26.0583
 21
29.4107
  0
LINE
  8
0
 10
26.0583
 20
29.4107
 11
25.8075
 21
28.9762
  0
LINE
  8
0
 10
25.8075
 20
28.9762
 11
25.6524
 21
28.499
  0
LINE
  8
0
 10
25.6524
 20
28.499
 11
25.6
 21
28
  0
LINE
  8
0
 10
25.6
 20
28
 11
25.6524
 21
27.501
  0
LINE
  8
0
 10
25.6524
 20
27.501
 11
25.8075
 21
27.0238
  0
LINE
  8
0
 10
25.8075
 20
27.0238
 11
26.0583
 21
26.5893
  0
LINE
  8
0
 10
26.0583
 20
26.5893
 11
26.3941
 21
26.2164
  0
LINE
  8
0
 10
26.3941
 20
26.2164
 11
26.8
 21
25.9215
  0
LINE
  8
0
 10
26.8
 20
25.9215
 11
27.2583
 21
25.7175
  0
LINE
  8
0
 10
27.2583
 20
25.7175
 11
27.7491
 21
25.6131
  0
LINE
  8
0
 10
27.7491
 20
25.6131
 11
28.2509
 21
25.6131
  0
LINE
  8
0
 10
28.2509
 20
25.6131
 11
28.7416
 21
25.7175
  0
LINE
  8
0
 10
12.7416
 20
25.7175
 11
13.2
 21
25.9215
  0
LINE
  8
0
 10
13.2
 20
25.9215
 11
13.6059
 21
26.2164
  0
LINE
  8
0
 10
13.6059
 20
26.2164
 11
13.9416
 21
26.5893
  0
LINE
  8
0
 10
13.9416
 20
26.5893
 11
14.1925
 21
27.0238
  0
LINE
  8
0
 10
14.1925
 20
27.0238
 11
14.3475
 21
27.501
  0
LINE
  8
0
 10
14.3475
 20
27.501
 11
14.4
 21
28
  0
LINE
  8
0
 10
14.4
 20
28
 11
14.3475
 21
28.499
  0
LINE
  8
0
 10
14.3475
 20
28.499
 11
14.1925
 21
28.9762
  0
LINE
  8
0
 10
14.1925
 20
28.9762
 11
13.9416
 21
29.4107
  0
LINE
  8
0
 10
13.9416
 20
29.4107
 11
13.6059
 21
29.7835
  0
LINE
  8
0
 10
13.6059
 20
29.7835
 11
13.2
 21
30.0785
  0
LINE
  8
0
 10
13.2
 20
30.0785
 11
12.7416
 21
30.2825
  0
LINE
  8
0
 10
12.7416
 20
30.2825
 11
12.2509
 21
30.3868
  0
LINE
  8
0
 10
12.2509
 20
30.3868
 11
11.7491
 21
30.3868
  0
LINE
  8
0
 10
11.7491
 20
30.3868
 11
11.2583
 21
30.2825
  0
LINE
  8
0
 10
11.2583
 20
30.2825
 11
10.8
 21
30.0785
  0
LINE
  8
0
 10
10.8
 20
30.0785
 11
10.3941
 21
29.7835
  0
LINE
  8
0
 10
10.3941
 20
29.7835
 11
10.0583
 21
29.4107
  0
LINE
  8
0
 10
10.0583
 20
29.4107
 11
9.80748
 21
28.9762
  0
LINE
  8
0
 10
9.80748
 20
28.9762
 11
9.65244
 21
28.499
  0
LINE
  8
0
 10
9.65244
 20
28.499
 11
9.59999
 21
28
  0
LINE
  8
0
 10
9.59999
 20
28
 11
9.65244
 21
27.501
  0
LINE
  8
0
 10
9.65244
 20
27.501
 11
9.80748
 21
27.0238
  0
LINE
  8
0
 10
9.80748
 20
27.0238
 11
10.0583
 21
26.5893
  0
LINE
  8
0
 10
10.0583
 20
26.5893
 11
10.3941
 21
26.2164
  0
LINE
  8
0
 10
10.3941
 20
26.2164
 11
10.8
 21
25.9215
  0
LINE
  8
0
 10
10.8
 20
25.9215
 11
11.2583
 21
25.7175
  0
LINE
  8
0
 10
11.2583
 20
25.7175
 11
11.7491
 21
25.6131
  0
LINE
  8
0
 10
11.7491
 20
25.6131
 11
12.2509
 21
25.6131
  0
LINE
  8
0
 10
12.2509
 20
25.6131
 11
12.7416
 21
25.7175
  0
LINE
  8
0
 10
20.7416
 20
25.7175
 11
21.2
 21
25.9215
  0
LINE
  8
0
 10
21.2
 20
25.9215
 11
21.6059
 21
26.2164
  0
LINE
  8
0
 10
21.6059
 20
26.2164
 11
21.9416
 21
26.5893
  0
LINE
  8
0
 10
21.9416
 20
26.5893
 11
22.1925
 21
27.0238
  0
LINE
  8
0
 10
22.1925
 20
27.0238
 11
22.3475
 21
27.501
  0
LINE
  8
0
 10
22.3475
 20
27.501
 11
22.4
 21
28
  0
LINE
  8
0
 10
22.4
 20
28
 11
22.3475
 21
28.499
  0
LINE
  8
0
 10
22.3475
 20
28.499
 11
22.1925
 21
28.9762
  0
LINE
  8
0
 10
22.1925
 20
28.9762
 11
21.9416
 21
29.4107
  0
LINE
  8
0
 10
21.9416
 20
29.4107
 11
21.6059
 21
29.7835
  0
LINE
  8
0
 10
21.6059
 20
29.7835
 11
21.2
 21
30.0785
  0
LINE
  8
0
 10
21.2
 20
30.0785
 11
20.7416
 21
30.2825
  0
LINE
  8
0
 10
20.7416
 20
30.2825
 11
20.2509
 21
30.3868
  0
LINE
  8
0
 10
20.2509
 20
30.3868
 11
19.7491
 21
30.3868
  0
LINE
  8
0
 10
19.7491
 20
30.3868
 11
19.2583
 21
30.2825
  0
LINE
  8
0
 10
19.2583
 20
30.2825
 11
18.8
 21
30.0785
  0
LINE
  8
0
 10
18.8
 20
30.0785
 11
18.3941
 21
29.7835
  0
LINE
  8
0
 10
18.3941
 20
29.7835
 11
18.0583
 21
29.4107
  0
LINE
  8
0
 10
18.0583
 20
29.4107
 11
17.8075
 21
28.9762
  0
LINE
  8
0
 10
17.8075
 20
28.9762
 11
17.6524
 21
28.499
  0
LINE
  8
0
 10
17.6524
 20
28.499
 11
17.6
 21
28
  0
LINE
  8
0
 10
17.6
 20
28
 11
17.6524
 21
27.501
  0
LINE
  8
0
 10
17.6524
 20
27.501
 11
17.8075
 21
27.0238
  0
LINE
  8
0
 10
17.8075
 20
27.0238
 11
18.0583
 21
26.5893
  0
LINE
  8
0
 10
18.0583
 20
26.5893
 11
18.3941
 21
26.2164
  0
LINE
  8
0
 10
18.3941
 20
26.2164
 11
18.8
 21
25.9215
  0
LINE
  8
0
 10
18.8
 20
25.9215
 11
19.2583
 21
25.7175
  0
LINE
  8
0
 10
19.2583
 20
25.7175
 11
19.7491
 21
25.6131
  0
LINE
  8
0
 10
19.7491
 20
25.6131
 11
20.2509
 21
25.6131
  0
LINE
  8
0
 10
20.2509
 20
25.6131
 11
20.7416
 21
25.7175
  0
LINE
  8
0
 10
4.74164
 20
25.7175
 11
5.2
 21
25.9215
  0
LINE
  8
0
 10
5.2
 20
25.9215
 11
5.60591
 21
26.2164
  0
LINE
  8
0
 10
5.60591
 20
26.2164
 11
5.94164
 21
26.5893
  0
LINE
  8
0
 10
5.94164
 20
26.5893
 11
6.1925
 21
27.0238
  0
LINE
  8
0
 10
6.1925
 20
27.0238
 11
6.34755
 21
27.501
  0
LINE
  8
0
 10
6.34755
 20
27.501
 11
6.39999
 21
28
  0
LINE
  8
0
 10
6.39999
 20
28
 11
6.34755
 21
28.499
  0
LINE
  8
0
 10
6.34755
 20
28.499
 11
6.1925
 21
28.9762
  0
LINE
  8
0
 10
6.1925
 20
28.9762
 11
5.94164
 21
29.4107
  0
LINE
  8
0
 10
5.94164
 20
29.4107
 11
5.60591
 21
29.7835
  0
LINE
  8
0
 10
5.60591
 20
29.7835
 11
5.2
 21
30.0785
  0
LINE
  8
0
 10
5.2
 20
30.0785
 11
4.74164
 21
30.2825
  0
LINE
  8
0
 10
4.74164
 20
30.2825
 11
4.25085
 21
30.3868
  0
LINE
  8
0
 10
4.25085
 20
30.3868
 11
3.74913
 21
30.3868
  0
LINE
  8
0
 10
3.74913
 20
30.3868
 11
3.25835
 21
30.2825
  0
LINE
  8
0
 10
3.25835
 20
30.2825
 11
2.79999
 21
30.0785
  0
LINE
  8
0
 10
2.79999
 20
30.0785
 11
2.39407
 21
29.7835
  0
LINE
  8
0
 10
2.39407
 20
29.7835
 11
2.05835
 21
29.4107
  0
LINE
  8
0
 10
2.05835
 20
29.4107
 11
1.80748
 21
28.9762
  0
LINE
  8
0
 10
1.80748
 20
28.9762
 11
1.65244
 21
28.499
  0
LINE
  8
0
 10
1.65244
 20
28.499
 11
1.59999
 21
28
  0
LINE
  8
0
 10
1.59999
 20
28
 11
1.65244
 21
27.501
  0
LINE
  8
0
 10
1.65244
 20
27.501
 11
1.80748
 21
27.0238
  0
LINE
  8
0
 10
1.80748
 20
27.0238
 11
2.05835
 21
26.5893
  0
LINE
  8
0
 10
2.05835
 20
26.5893
 11
2.39407
 21
26.2164
  0
LINE
  8
0
 10
2.39407
 20
26.2164
 11
2.79999
 21
25.9215
  0
LINE
  8
0
 10
2.79999
 20
25.9215
 11
3.25835
 21
25.7175
  0
LINE
  8
0
 10
3.25835
 20
25.7175
 11
3.74913
 21
25.6131
  0
LINE
  8
0
 10
3.74913
 20
25.6131
 11
4.25085
 21
25.6131
  0
LINE
  8
0
 10
4.25085
 20
25.6131
 11
4.74164
 21
25.7175
  0
LINE
  8
0
 10
44.7416
 20
25.7175
 11
45.2
 21
25.9215
  0
LINE
  8
0
 10
45.2
 20
25.9215
 11
45.6059
 21
26.2164
  0
LINE
  8
0
 10
45.6059
 20
26.2164
 11
45.9416
 21
26.5893
  0
LINE
  8
0
 10
45.9416
 20
26.5893
 11
46.1925
 21
27.0238
  0
LINE
  8
0
 10
46.1925
 20
27.0238
 11
46.3475
 21
27.501
  0
LINE
  8
0
 10
46.3475
 20
27.501
 11
46.4
 21
28
  0
LINE
  8
0
 10
46.4
 20
28
 11
46.3475
 21
28.499
  0
LINE
  8
0
 10
46.3475
 20
28.499
 11
46.1925
 21
28.9762
  0
LINE
  8
0
 10
46.1925
 20
28.9762
 11
45.9416
 21
29.4107
  0
LINE
  8
0
 10
45.9416
 20
29.4107
 11
45.6059
 21
29.7835
  0
LINE
  8
0
 10
45.6059
 20
29.7835
 11
45.2
 21
30.0785
  0
LINE
  8
0
 10
45.2
 20
30.0785
 11
44.7416
 21
30.2825
  0
LINE
  8
0
 10
44.7416
 20
30.2825
 11
44.2509
 21
30.3868
  0
LINE
  8
0
 10
44.2509
 20
30.3868
 11
43.7491
 21
30.3868
  0
LINE
  8
0
 10
43.7491
 20
30.3868
 11
43.2583
 21
30.2825
  0
LINE
  8
0
 10
43.2583
 20
30.2825
 11
42.8
 21
30.0785
  0
LINE
  8
0
 10
42.8
 20
30.0785
 11
42.3941
 21
29.7835
  0
LINE
  8
0
 10
42.3941
 20
29.7835
 11
42.0583
 21
29.4107
  0
LINE
  8
0
 10
42.0583
 20
29.4107
 11
41.8075
 21
28.9762
  0
LINE
  8
0
 10
41.8075
 20
28.9762
 11
41.6524
 21
28.499
  0
LINE
  8
0
 10
41.6524
 20
28.499
 11
41.6
 21
28
  0
LINE
  8
0
 10
41.6
 20
28
 11
41.6524
 21
27.501
  0
LINE
  8
0
 10
41.6524
 20
27.501
 11
41.8075
 21
27.0238
  0
LINE
  8
0
 10
41.8075
 20
27.0238
 11
42.0583
 21
26.5893
  0
LINE
  8
0
 10
42.0583
 20
26.5893
 11
42.3941
 21
26.2164
  0
LINE
  8
0
 10
42.3941
 20
26.2164
 11
42.8
 21
25.9215
  0
LINE
  8
0
 10
42.8
 20
25.9215
 11
43.2583
 21
25.7175
  0
LINE
  8
0
 10
43.2583
 20
25.7175
 11
43.7491
 21
25.6131
  0
LINE
  8
0
 10
43.7491
 20
25.6131
 11
44.2509
 21
25.6131
  0
LINE
  8
0
 10
44.2509
 20
25.6131
 11
44.7416
 21
25.7175
  0
LINE
  8
0
 10
28.7416
 20
17.7175
 11
29.2
 21
17.9215
  0
LINE
  8
0
 10
29.2
 20
17.9215
 11
29.6059
 21
18.2164
  0
LINE
  8
0
 10
29.6059
 20
18.2164
 11
29.9416
 21
18.5893
  0
LINE
  8
0
 10
29.9416
 20
18.5893
 11
30.1925
 21
19.0238
  0
LINE
  8
0
 10
30.1925
 20
19.0238
 11
30.3475
 21
19.501
  0
LINE
  8
0
 10
30.3475
 20
19.501
 11
30.4
 21
20
  0
LINE
  8
0
 10
30.4
 20
20
 11
30.3475
 21
20.499
  0
LINE
  8
0
 10
30.3475
 20
20.499
 11
30.1925
 21
20.9762
  0
LINE
  8
0
 10
30.1925
 20
20.9762
 11
29.9416
 21
21.4107
  0
LINE
  8
0
 10
29.9416
 20
21.4107
 11
29.6059
 21
21.7835
  0
LINE
  8
0
 10
29.6059
 20
21.7835
 11
29.2
 21
22.0785
  0
LINE
  8
0
 10
29.2
 20
22.0785
 11
28.7416
 21
22.2825
  0
LINE
  8
0
 10
28.7416
 20
22.2825
 11
28.2509
 21
22.3868
  0
LINE
  8
0
 10
28.2509
 20
22.3868
 11
27.7491
 21
22.3868
  0
LINE
  8
0
 10
27.7491
 20
22.3868
 11
27.2583
 21
22.2825
  0
LINE
  8
0
 10
27.2583
 20
22.2825
 11
26.8
 21
22.0785
  0
LINE
  8
0
 10
26.8
 20
22.0785
 11
26.3941
 21
21.7835
  0
LINE
  8
0
 10
26.3941
 20
21.7835
 11
26.0583
 21
21.4107
  0
LINE
  8
0
 10
26.0583
 20
21.4107
 11
25.8075
 21
20.9762
  0
LINE
  8
0
 10
25.8075
 20
20.9762
 11
25.6524
 21
20.499
  0
LINE
  8
0
 10
25.6524
 20
20.499
 11
25.6
 21
20
  0
LINE
  8
0
 10
25.6
 20
20
 11
25.6524
 21
19.501
  0
LINE
  8
0
 10
25.6524
 20
19.501
 11
25.8075
 21
19.0238
  0
LINE
  8
0
 10
25.8075
 20
19.0238
 11
26.0583
 21
18.5893
  0
LINE
  8
0
 10
26.0583
 20
18.5893
 11
26.3941
 21
18.2164
  0
LINE
  8
0
 10
26.3941
 20
18.2164
 11
26.8
 21
17.9215
  0
LINE
  8
0
 10
26.8
 20
17.9215
 11
27.2583
 21
17.7175
  0
LINE
  8
0
 10
27.2583
 20
17.7175
 11
27.7491
 21
17.6131
  0
LINE
  8
0
 10
27.7491
 20
17.6131
 11
28.2509
 21
17.6131
  0
LINE
  8
0
 10
28.2509
 20
17.6131
 11
28.7416
 21
17.7175
  0
LINE
  8
0
 10
36.7416
 20
17.7175
 11
37.2
 21
17.9215
  0
LINE
  8
0
 10
37.2
 20
17.9215
 11
37.6059
 21
18.2164
  0
LINE
  8
0
 10
37.6059
 20
18.2164
 11
37.9416
 21
18.5893
  0
LINE
  8
0
 10
37.9416
 20
18.5893
 11
38.1925
 21
19.0238
  0
LINE
  8
0
 10
38.1925
 20
19.0238
 11
38.3475
 21
19.501
  0
LINE
  8
0
 10
38.3475
 20
19.501
 11
38.4
 21
20
  0
LINE
  8
0
 10
38.4
 20
20
 11
38.3475
 21
20.499
  0
LINE
  8
0
 10
38.3475
 20
20.499
 11
38.1925
 21
20.9762
  0
LINE
  8
0
 10
38.1925
 20
20.9762
 11
37.9416
 21
21.4107
  0
LINE
  8
0
 10
37.9416
 20
21.4107
 11
37.6059
 21
21.7835
  0
LINE
  8
0
 10
37.6059
 20
21.7835
 11
37.2
 21
22.0785
  0
LINE
  8
0
 10
37.2
 20
22.0785
 11
36.7416
 21
22.2825
  0
LINE
  8
0
 10
36.7416
 20
22.2825
 11
36.2509
 21
22.3868
  0
LINE
  8
0
 10
36.2509
 20
22.3868
 11
35.7491
 21
22.3868
  0
LINE
  8
0
 10
35.7491
 20
22.3868
 11
35.2583
 21
22.2825
  0
LINE
  8
0
 10
35.2583
 20
22.2825
 11
34.8
 21
22.0785
  0
LINE
  8
0
 10
34.8
 20
22.0785
 11
34.3941
 21
21.7835
  0
LINE
  8
0
 10
34.3941
 20
21.7835
 11
34.0583
 21
21.4107
  0
LINE
  8
0
 10
34.0583
 20
21.4107
 11
33.8075
 21
20.9762
  0
LINE
  8
0
 10
33.8075
 20
20.9762
 11
33.6524
 21
20.499
  0
LINE
  8
0
 10
33.6524
 20
20.499
 11
33.6
 21
20
  0
LINE
  8
0
 10
33.6
 20
20
 11
33.6524
 21
19.501
  0
LINE
  8
0
 10
33.6524
 20
19.501
 11
33.8075
 21
19.0238
  0
LINE
  8
0
 10
33.8075
 20
19.0238
 11
34.0583
 21
18.5893
  0
LINE
  8
0
 10
34.0583
 20
18.5893
 11
34.3941
 21
18.2164
  0
LINE
  8
0
 10
34.3941
 20
18.2164
 11
34.8
 21
17.9215
  0
LINE
  8
0
 10
34.8
 20
17.9215
 11
35.2583
 21
17.7175
  0
LINE
  8
0
 10
35.2583
 20
17.7175
 11
35.7491
 21
17.6131
  0
LINE
  8
0
 10
35.7491
 20
17.6131
 11
36.2509
 21
17.6131
  0
LINE
  8
0
 10
36.2509
 20
17.6131
 11
36.7416
 21
17.7175
  0
LINE
  8
0
 10
60.7416
 20
17.7175
 11
61.2
 21
17.9215
  0
LINE
  8
0
 10
61.2
 20
17.9215
 11
61.6059
 21
18.2164
  0
LINE
  8
0
 10
61.6059
 20
18.2164
 11
61.9416
 21
18.5893
  0
LINE
  8
0
 10
61.9416
 20
18.5893
 11
62.1925
 21
19.0238
  0
LINE
  8
0
 10
62.1925
 20
19.0238
 11
62.3475
 21
19.501
  0
LINE
  8
0
 10
62.3475
 20
19.501
 11
62.4
 21
20
  0
LINE
  8
0
 10
62.4
 20
20
 11
62.3475
 21
20.499
  0
LINE
  8
0
 10
62.3475
 20
20.499
 11
62.1925
 21
20.9762
  0
LINE
  8
0
 10
62.1925
 20
20.9762
 11
61.9416
 21
21.4107
  0
LINE
  8
0
 10
61.9416
 20
21.4107
 11
61.6059
 21
21.7835
  0
LINE
  8
0
 10
61.6059
 20
21.7835
 11
61.2
 21
22.0785
  0
LINE
  8
0
 10
61.2
 20
22.0785
 11
60.7416
 21
22.2825
  0
LINE
  8
0
 10
60.7416
 20
22.2825
 11
60.2509
 21
22.3868
  0
LINE
  8
0
 10
60.2509
 20
22.3868
 11
59.7491
 21
22.3868
  0
LINE
  8
0
 10
59.7491
 20
22.3868
 11
59.2583
 21
22.2825
  0
LINE
  8
0
 10
59.2583
 20
22.2825
 11
58.8
 21
22.0785
  0
LINE
  8
0
 10
58.8
 20
22.0785
 11
58.3941
 21
21.7835
  0
LINE
  8
0
 10
58.3941
 20
21.7835
 11
58.0583
 21
21.4107
  0
LINE
  8
0
 10
58.0583
 20
21.4107
 11
57.8075
 21
20.9762
  0
LINE
  8
0
 10
57.8075
 20
20.9762
 11
57.6524
 21
20.499
  0
LINE
  8
0
 10
57.6524
 20
20.499
 11
57.6
 21
20
  0
LINE
  8
0
 10
57.6
 20
20
 11
57.6524
 21
19.501
  0
LINE
  8
0
 10
57.6524
 20
19.501
 11
57.8075
 21
19.0238
  0
LINE
  8
0
 10
57.8075
 20
19.0238
 11
58.0583
 21
18.5893
  0
LINE
  8
0
 10
58.0583
 20
18.5893
 11
58.3941
 21
18.2164
  0
LINE
  8
0
 10
58.3941
 20
18.2164
 11
58.8
 21
17.9215
  0
LINE
  8
0
 10
58.8
 20
17.9215
 11
59.2583
 21
17.7175
  0
LINE
  8
0
 10
59.2583
 20
17.7175
 11
59.7491
 21
17.6131
  0
LINE
  8
0
 10
59.7491
 20
17.6131
 11
60.2509
 21
17.6131
  0
LINE
  8
0
 10
60.2509
 20
17.6131
 11
60.7416
 21
17.7175
  0
LINE
  8
0
 10
20.7416
 20
17.7175
 11
21.2
 21
17.9215
  0
LINE
  8
0
 10
21.2
 20
17.9215
 11
21.6059
 21
18.2164
  0
LINE
  8
0
 10
21.6059
 20
18.2164
 11
21.9416
 21
18.5893
  0
LINE
  8
0
 10
21.9416
 20
18.5893
 11
22.1925
 21
19.0238
  0
LINE
  8
0
 10
22.1925
 20
19.0238
 11
22.3475
 21
19.501
  0
LINE
  8
0
 10
22.3475
 20
19.501
 11
22.4
 21
20
  0
LINE
  8
0
 10
22.4
 20
20
 11
22.3475
 21
20.499
  0
LINE
  8
0
 10
22.3475
 20
20.499
 11
22.1925
 21
20.9762
  0
LINE
  8
0
 10
22.1925
 20
20.9762
 11
21.9416
 21
21.4107
  0
LINE
  8
0
 10
21.9416
 20
21.4107
 11
21.6059
 21
21.7835
  0
LINE
  8
0
 10
21.6059
 20
21.7835
 11
21.2
 21
22.0785
  0
LINE
  8
0
 10
21.2
 20
22.0785
 11
20.7416
 21
22.2825
  0
LINE
  8
0
 10
20.7416
 20
22.2825
 11
20.2509
 21
22.3868
  0
LINE
  8
0
 10
20.2509
 20
22.3868
 11
19.7491
 21
22.3868
  0
LINE
  8
0
 10
19.7491
 20
22.3868
 11
19.2583
 21
22.2825
  0
LINE
  8
0
 10
19.2583
 20
22.2825
 11
18.8
 21
22.0785
  0
LINE
  8
0
 10
18.8
 20
22.0785
 11
18.3941
 21
21.7835
  0
LINE
  8
0
 10
18.3941
 20
21.7835
 11
18.0583
 21
21.4107
  0
LINE
  8
0
 10
18.0583
 20
21.4107
 11
17.8075
 21
20.9762
  0
LINE
  8
0
 10
17.8075
 20
20.9762
 11
17.6524
 21
20.499
  0
LINE
  8
0
 10
17.6524
 20
20.499
 11
17.6
 21
20
  0
LINE
  8
0
 10
17.6
 20
20
 11
17.6524
 21
19.501
  0
LINE
  8
0
 10
17.6524
 20
19.501
 11
17.8075
 21
19.0238
  0
LINE
  8
0
 10
17.8075
 20
19.0238
 11
18.0583
 21
18.5893
  0
LINE
  8
0
 10
18.0583
 20
18.5893
 11
18.3941
 21
18.2164
  0
LINE
  8
0
 10
18.3941
 20
18.2164
 11
18.8
 21
17.9215
  0
LINE
  8
0
 10
18.8
 20
17.9215
 11
19.2583
 21
17.7175
  0
LINE
  8
0
 10
19.2583
 20
17.7175
 11
19.7491
 21
17.6131
  0
LINE
  8
0
 10
19.7491
 20
17.6131
 11
20.2509
 21
17.6131
  0
LINE
  8
0
 10
20.2509
 20
17.6131
 11
20.7416
 21
17.7175
  0
LINE
  8
0
 10
12.7416
 20
17.7175
 11
13.2
 21
17.9215
  0
LINE
  8
0
 10
13.2
 20
17.9215
 11
13.6059
 21
18.2164
  0
LINE
  8
0
 10
13.6059
 20
18.2164
 11
13.9416
 21
18.5893
  0
LINE
  8
0
 10
13.9416
 20
18.5893
 11
14.1925
 21
19.0238
  0
LINE
  8
0
 10
14.1925
 20
19.0238
 11
14.3475
 21
19.501
  0
LINE
  8
0
 10
14.3475
 20
19.501
 11
14.4
 21
20
  0
LINE
  8
0
 10
14.4
 20
20
 11
14.3475
 21
20.499
  0
LINE
  8
0
 10
14.3475
 20
20.499
 11
14.1925
 21
20.9762
  0
LINE
  8
0
 10
14.1925
 20
20.9762
 11
13.9416
 21
21.4107
  0
LINE
  8
0
 10
13.9416
 20
21.4107
 11
13.6059
 21
21.7835
  0
LINE
  8
0
 10
13.6059
 20
21.7835
 11
13.2
 21
22.0785
  0
LINE
  8
0
 10
13.2
 20
22.0785
 11
12.7416
 21
22.2825
  0
LINE
  8
0
 10
12.7416
 20
22.2825
 11
12.2509
 21
22.3868
  0
LINE
  8
0
 10
12.2509
 20
22.3868
 11
11.7491
 21
22.3868
  0
LINE
  8
0
 10
11.7491
 20
22.3868
 11
11.2583
 21
22.2825
  0
LINE
  8
0
 10
11.2583
 20
22.2825
 11
10.8
 21
22.0785
  0
LINE
  8
0
 10
10.8
 20
22.0785
 11
10.3941
 21
21.7835
  0
LINE
  8
0
 10
10.3941
 20
21.7835
 11
10.0583
 21
21.4107
  0
LINE
  8
0
 10
10.0583
 20
21.4107
 11
9.80748
 21
20.9762
  0
LINE
  8
0
 10
9.80748
 20
20.9762
 11
9.65244
 21
20.499
  0
LINE
  8
0
 10
9.65244
 20
20.499
 11
9.59999
 21
20
  0
LINE
  8
0
 10
9.59999
 20
20
 11
9.65244
 21
19.501
  0
LINE
  8
0
 10
9.65244
 20
19.501
 11
9.80748
 21
19.0238
  0
LINE
  8
0
 10
9.80748
 20
19.0238
 11
10.0583
 21
18.5893
  0
LINE
  8
0
 10
10.0583
 20
18.5893
 11
10.3941
 21
18.2164
  0
LINE
  8
0
 10
10.3941
 20
18.2164
 11
10.8
 21
17.9215
  0
LINE
  8
0
 10
10.8
 20
17.9215
 11
11.2583
 21
17.7175
  0
LINE
  8
0
 10
11.2583
 20
17.7175
 11
11.7491
 21
17.6131
  0
LINE
  8
0
 10
11.7491
 20
17.6131
 11
12.2509
 21
17.6131
  0
LINE
  8
0
 10
12.2509
 20
17.6131
 11
12.7416
 21
17.7175
  0
LINE
  8
0
 10
52.7416
 20
17.7175
 11
53.2
 21
17.9215
  0
LINE
  8
0
 10
53.2
 20
17.9215
 11
53.6059
 21
18.2164
  0
LINE
  8
0
 10
53.6059
 20
18.2164
 11
53.9416
 21
18.5893
  0
LINE
  8
0
 10
53.9416
 20
18.5893
 11
54.1925
 21
19.0238
  0
LINE
  8
0
 10
54.1925
 20
19.0238
 11
54.3475
 21
19.501
  0
LINE
  8
0
 10
54.3475
 20
19.501
 11
54.4
 21
20
  0
LINE
  8
0
 10
54.4
 20
20
 11
54.3475
 21
20.499
  0
LINE
  8
0
 10
54.3475
 20
20.499
 11
54.1925
 21
20.9762
  0
LINE
  8
0
 10
54.1925
 20
20.9762
 11
53.9416
 21
21.4107
  0
LINE
  8
0
 10
53.9416
 20
21.4107
 11
53.6059
 21
21.7835
  0
LINE
  8
0
 10
53.6059
 20
21.7835
 11
53.2
 21
22.0785
  0
LINE
  8
0
 10
53.2
 20
22.0785
 11
52.7416
 21
22.2825
  0
LINE
  8
0
 10
52.7416
 20
22.2825
 11
52.2509
 21
22.3868
  0
LINE
  8
0
 10
52.2509
 20
22.3868
 11
51.7491
 21
22.3868
  0
LINE
  8
0
 10
51.7491
 20
22.3868
 11
51.2583
 21
22.2825
  0
LINE
  8
0
 10
51.2583
 20
22.2825
 11
50.8
 21
22.0785
  0
LINE
  8
0
 10
50.8
 20
22.0785
 11
50.3941
 21
21.7835
  0
LINE
  8
0
 10
50.3941
 20
21.7835
 11
50.0583
 21
21.4107
  0
LINE
  8
0
 10
50.0583
 20
21.4107
 11
49.8075
 21
20.9762
  0
LINE
  8
0
 10
49.8075
 20
20.9762
 11
49.6524
 21
20.499
  0
LINE
  8
0
 10
49.6524
 20
20.499
 11
49.6
 21
20
  0
LINE
  8
0
 10
49.6
 20
20
 11
49.6524
 21
19.501
  0
LINE
  8
0
 10
49.6524
 20
19.501
 11
49.8075
 21
19.0238
  0
LINE
  8
0
 10
49.8075
 20
19.0238
 11
50.0583
 21
18.5893
  0
LINE
  8
0
 10
50.0583
 20
18.5893
 11
50.3941
 21
18.2164
  0
LINE
  8
0
 10
50.3941
 20
18.2164
 11
50.8
 21
17.9215
  0
LINE
  8
0
 10
50.8
 20
17.9215
 11
51.2583
 21
17.7175
  0
LINE
  8
0
 10
51.2583
 20
17.7175
 11
51.7491
 21
17.6131
  0
LINE
  8
0
 10
51.7491
 20
17.6131
 11
52.2509
 21
17.6131
  0
LINE
  8
0
 10
52.2509
 20
17.6131
 11
52.7416
 21
17.7175
  0
LINE
  8
0
 10
4.74164
 20
17.7175
 11
5.2
 21
17.9215
  0
LINE
  8
0
 10
5.2
 20
17.9215
 11
5.60591
 21
18.2164
  0
LINE
  8
0
 10
5.60591
 20
18.2164
 11
5.94164
 21
18.5893
  0
LINE
  8
0
 10
5.94164
 20
18.5893
 11
6.1925
 21
19.0238
  0
LINE
  8
0
 10
6.1925
 20
19.0238
 11
6.34755
 21
19.501
  0
LINE
  8
0
 10
6.34755
 20
19.501
 11
6.39999
 21
20
  0
LINE
  8
0
 10
6.39999
 20
20
 11
6.34755
 21
20.499
  0
LINE
  8
0
 10
6.34755
 20
20.499
 11
6.1925
 21
20.9762
  0
LINE
  8
0
 10
6.1925
 20
20.9762
 11
5.94164
 21
21.4107
  0
LINE
  8
0
 10
5.94164
 20
21.4107
 11
5.60591
 21
21.7835
  0
LINE
  8
0
 10
5.60591
 20
21.7835
 11
5.2
 21
22.0785
  0
LINE
  8
0
 10
5.2
 20
22.0785
 11
4.74164
 21
22.2825
  0
LINE
  8
0
 10
4.74164
 20
22.2825
 11
4.25085
 21
22.3868
  0
LINE
  8
0
 10
4.25085
 20
22.3868
 11
3.74913
 21
22.3868
  0
LINE
  8
0
 10
3.74913
 20
22.3868
 11
3.25835
 21
22.2825
  0
LINE
  8
0
 10
3.25835
 20
22.2825
 11
2.79999
 21
22.0785
  0
LINE
  8
0
 10
2.79999
 20
22.0785
 11
2.39407
 21
21.7835
  0
LINE
  8
0
 10
2.39407
 20
21.7835
 11
2.05835
 21
21.4107
  0
LINE
  8
0
 10
2.05835
 20
21.4107
 11
1.80748
 21
20.9762
  0
LINE
  8
0
 10
1.80748
 20
20.9762
 11
1.65244
 21
20.499
  0
LINE
  8
0
 10
1.65244
 20
20.499
 11
1.59999
 21
20
  0
LINE
  8
0
 10
1.59999
 20
20
 11
1.65244
 21
19.501
  0
LINE
  8
0
 10
1.65244
 20
19.501
 11
1.80748
 21
19.0238
  0
LINE
  8
0
 10
1.80748
 20
19.0238
 11
2.05835
 21
18.5893
  0
LINE
  8
0
 10
2.05835
 20
18.5893
 11
2.39407
 21
18.2164
  0
LINE
  8
0
 10
2.39407
 20
18.2164
 11
2.79999
 21
17.9215
  0
LINE
  8
0
 10
2.79999
 20
17.9215
 11
3.25835
 21
17.7175
  0
LINE
  8
0
 10
3.25835
 20
17.7175
 11
3.74913
 21
17.6131
  0
LINE
  8
0
 10
3.74913
 20
17.6131
 11
4.25085
 21
17.6131
  0
LINE
  8
0
 10
4.25085
 20
17.6131
 11
4.74164
 21
17.7175
  0
LINE
  8
0
 10
44.7416
 20
17.7175
 11
45.2
 21
17.9215
  0
LINE
  8
0
 10
45.2
 20
17.9215
 11
45.6059
 21
18.2164
  0
LINE
  8
0
 10
45.6059
 20
18.2164
 11
45.9416
 21
18.5893
  0
LINE
  8
0
 10
45.9416
 20
18.5893
 11
46.1925
 21
19.0238
  0
LINE
  8
0
 10
46.1925
 20
19.0238
 11
46.3475
 21
19.501
  0
LINE
  8
0
 10
46.3475
 20
19.501
 11
46.4
 21
20
  0
LINE
  8
0
 10
46.4
 20
20
 11
46.3475
 21
20.499
  0
LINE
  8
0
 10
46.3475
 20
20.499
 11
46.1925
 21
20.9762
  0
LINE
  8
0
 10
46.1925
 20
20.9762
 11
45.9416
 21
21.4107
  0
LINE
  8
0
 10
45.9416
 20
21.4107
 11
45.6059
 21
21.7835
  0
LINE
  8
0
 10
45.6059
 20
21.7835
 11
45.2
 21
22.0785
  0
LINE
  8
0
 10
45.2
 20
22.0785
 11
44.7416
 21
22.2825
  0
LINE
  8
0
 10
44.7416
 20
22.2825
 11
44.2509
 21
22.3868
  0
LINE
  8
0
 10
44.2509
 20
22.3868
 11
43.7491
 21
22.3868
  0
LINE
  8
0
 10
43.7491
 20
22.3868
 11
43.2583
 21
22.2825
  0
LINE
  8
0
 10
43.2583
 20
22.2825
 11
42.8
 21
22.0785
  0
LINE
  8
0
 10
42.8
 20
22.0785
 11
42.3941
 21
21.7835
  0
LINE
  8
0
 10
42.3941
 20
21.7835
 11
42.0583
 21
21.4107
  0
LINE
  8
0
 10
42.0583
 20
21.4107
 11
41.8075
 21
20.9762
  0
LINE
  8
0
 10
41.8075
 20
20.9762
 11
41.6524
 21
20.499
  0
LINE
  8
0
 10
41.6524
 20
20.499
 11
41.6
 21
20
  0
LINE
  8
0
 10
41.6
 20
20
 11
41.6524
 21
19.501
  0
LINE
  8
0
 10
41.6524
 20
19.501
 11
41.8075
 21
19.0238
  0
LINE
  8
0
 10
41.8075
 20
19.0238
 11
42.0583
 21
18.5893
  0
LINE
  8
0
 10
42.0583
 20
18.5893
 11
42.3941
 21
18.2164
  0
LINE
  8
0
 10
42.3941
 20
18.2164
 11
42.8
 21
17.9215
  0
LINE
  8
0
 10
42.8
 20
17.9215
 11
43.2583
 21
17.7175
  0
LINE
  8
0
 10
43.2583
 20
17.7175
 11
43.7491
 21
17.6131
  0
LINE
  8
0
 10
43.7491
 20
17.6131
 11
44.2509
 21
17.6131
  0
LINE
  8
0
 10
44.2509
 20
17.6131
 11
44.7416
 21
17.7175
  0
LINE
  8
0
 10
20.7416
 20
9.71745
 11
21.2
 21
9.92154
  0
LINE
  8
0
 10
21.2
 20
9.92154
 11
21.6059
 21
10.2164
  0
LINE
  8
0
 10
21.6059
 20
10.2164
 11
21.9416
 21
10.5893
  0
LINE
  8
0
 10
21.9416
 20
10.5893
 11
22.1925
 21
11.0238
  0
LINE
  8
0
 10
22.1925
 20
11.0238
 11
22.3475
 21
11.501
  0
LINE
  8
0
 10
22.3475
 20
11.501
 11
22.4
 21
12
  0
LINE
  8
0
 10
22.4
 20
12
 11
22.3475
 21
12.499
  0
LINE
  8
0
 10
22.3475
 20
12.499
 11
22.1925
 21
12.9762
  0
LINE
  8
0
 10
22.1925
 20
12.9762
 11
21.9416
 21
13.4107
  0
LINE
  8
0
 10
21.9416
 20
13.4107
 11
21.6059
 21
13.7835
  0
LINE
  8
0
 10
21.6059
 20
13.7835
 11
21.2
 21
14.0785
  0
LINE
  8
0
 10
21.2
 20
14.0785
 11
20.7416
 21
14.2825
  0
LINE
  8
0
 10
20.7416
 20
14.2825
 11
20.2509
 21
14.3868
  0
LINE
  8
0
 10
20.2509
 20
14.3868
 11
19.7491
 21
14.3868
  0
LINE
  8
0
 10
19.7491
 20
14.3868
 11
19.2583
 21
14.2825
  0
LINE
  8
0
 10
19.2583
 20
14.2825
 11
18.8
 21
14.0785
  0
LINE
  8
0
 10
18.8
 20
14.0785
 11
18.3941
 21
13.7835
  0
LINE
  8
0
 10
18.3941
 20
13.7835
 11
18.0583
 21
13.4107
  0
LINE
  8
0
 10
18.0583
 20
13.4107
 11
17.8075
 21
12.9762
  0
LINE
  8
0
 10
17.8075
 20
12.9762
 11
17.6524
 21
12.499
  0
LINE
  8
0
 10
17.6524
 20
12.499
 11
17.6
 21
12
  0
LINE
  8
0
 10
17.6
 20
12
 11
17.6524
 21
11.501
  0
LINE
  8
0
 10
17.6524
 20
11.501
 11
17.8075
 21
11.0238
  0
LINE
  8
0
 10
17.8075
 20
11.0238
 11
18.0583
 21
10.5893
  0
LINE
  8
0
 10
18.0583
 20
10.5893
 11
18.3941
 21
10.2164
  0
LINE
  8
0
 10
18.3941
 20
10.2164
 11
18.8
 21
9.92154
  0
LINE
  8
0
 10
18.8
 20
9.92154
 11
19.2583
 21
9.71745
  0
LINE
  8
0
 10
19.2583
 20
9.71745
 11
19.7491
 21
9.61314
  0
LINE
  8
0
 10
19.7491
 20
9.61314
 11
20.2509
 21
9.61314
  0
LINE
  8
0
 10
20.2509
 20
9.61314
 11
20.7416
 21
9.71745
  0
LINE
  8
0
 10
12.7416
 20
9.71745
 11
13.2
 21
9.92154
  0
LINE
  8
0
 10
13.2
 20
9.92154
 11
13.6059
 21
10.2164
  0
LINE
  8
0
 10
13.6059
 20
10.2164
 11
13.9416
 21
10.5893
  0
LINE
  8
0
 10
13.9416
 20
10.5893
 11
14.1925
 21
11.0238
  0
LINE
  8
0
 10
14.1925
 20
11.0238
 11
14.3475
 21
11.501
  0
LINE
  8
0
 10
14.3475
 20
11.501
 11
14.4
 21
12
  0
LINE
  8
0
 10
14.4
 20
12
 11
14.3475
 21
12.499
  0
LINE
  8
0
 10
14.3475
 20
12.499
 11
14.1925
 21
12.9762
  0
LINE
  8
0
 10
14.1925
 20
12.9762
 11
13.9416
 21
13.4107
  0
LINE
  8
0
 10
13.9416
 20
13.4107
 11
13.6059
 21
13.7835
  0
LINE
  8
0
 10
13.6059
 20
13.7835
 11
13.2
 21
14.0785
  0
LINE
  8
0
 10
13.2
 20
14.0785
 11
12.7416
 21
14.2825
  0
LINE
  8
0
 10
12.7416
 20
14.2825
 11
12.2509
 21
14.3868
  0
LINE
  8
0
 10
12.2509
 20
14.3868
 11
11.7491
 21
14.3868
  0
LINE
  8
0
 10
11.7491
 20
14.3868
 11
11.2583
 21
14.2825
  0
LINE
  8
0
 10
11.2583
 20
14.2825
 11
10.8
 21
14.0785
  0
LINE
  8
0
 10
10.8
 20
14.0785
 11
10.3941
 21
13.7835
  0
LINE
  8
0
 10
10.3941
 20
13.7835
 11
10.0583
 21
13.4107
  0
LINE
  8
0
 10
10.0583
 20
13.4107
 11
9.80748
 21
12.9762
  0
LINE
  8
0
 10
9.80748
 20
12.9762
 11
9.65244
 21
12.499
  0
LINE
  8
0
 10
9.65244
 20
12.499
 11
9.59999
 21
12
  0
LINE
  8
0
 10
9.59999
 20
12
 11
9.65244
 21
11.501
  0
LINE
  8
0
 10
9.65244
 20
11.501
 11
9.80748
 21
11.0238
  0
LINE
  8
0
 10
9.80748
 20
11.0238
 11
10.0583
 21
10.5893
  0
LINE
  8
0
 10
10.0583
 20
10.5893
 11
10.3941
 21
10.2164
  0
LINE
  8
0
 10
10.3941
 20
10.2164
 11
10.8
 21
9.92154
  0
LINE
  8
0
 10
10.8
 20
9.92154
 11
11.2583
 21
9.71745
  0
LINE
  8
0
 10
11.2583
 20
9.71745
 11
11.7491
 21
9.61314
  0
LINE
  8
0
 10
11.7491
 20
9.61314
 11
12.2509
 21
9.61314
  0
LINE
  8
0
 10
12.2509
 20
9.61314
 11
12.7416
 21
9.71745
  0
LINE
  8
0
 10
36.7416
 20
9.71745
 11
37.2
 21
9.92154
  0
LINE
  8
0
 10
37.2
 20
9.92154
 11
37.6059
 21
10.2164
  0
LINE
  8
0
 10
37.6059
 20
10.2164
 11
37.9416
 21
10.5893
  0
LINE
  8
0
 10
37.9416
 20
10.5893
 11
38.1925
 21
11.0238
  0
LINE
  8
0
 10
38.1925
 20
11.0238
 11
38.3475
 21
11.501
  0
LINE
  8
0
 10
38.3475
 20
11.501
 11
38.4
 21
12
  0
LINE
  8
0
 10
38.4
 20
12
 11
38.3475
 21
12.499
  0
LINE
  8
0
 10
38.3475
 20
12.499
 11
38.1925
 21
12.9762
  0
LINE
  8
0
 10
38.1925
 20
12.9762
 11
37.9416
 21
13.4107
  0
LINE
  8
0
 10
37.9416
 20
13.4107
 11
37.6059
 21
13.7835
  0
LINE
  8
0
 10
37.6059
 20
13.7835
 11
37.2
 21
14.0785
  0
LINE
  8
0
 10
37.2
 20
14.0785
 11
36.7416
 21
14.2825
  0
LINE
  8
0
 10
36.7416
 20
14.2825
 11
36.2509
 21
14.3868
  0
LINE
  8
0
 10
36.2509
 20
14.3868
 11
35.7491
 21
14.3868
  0
LINE
  8
0
 10
35.7491
 20
14.3868
 11
35.2583
 21
14.2825
  0
LINE
  8
0
 10
35.2583
 20
14.2825
 11
34.8
 21
14.0785
  0
LINE
  8
0
 10
34.8
 20
14.0785
 11
34.3941
 21
13.7835
  0
LINE
  8
0
 10
34.3941
 20
13.7835
 11
34.0583
 21
13.4107
  0
LINE
  8
0
 10
34.0583
 20
13.4107
 11
33.8075
 21
12.9762
  0
LINE
  8
0
 10
33.8075
 20
12.9762
 11
33.6524
 21
12.499
  0
LINE
  8
0
 10
33.6524
 20
12.499
 11
33.6
 21
12
  0
LINE
  8
0
 10
33.6
 20
12
 11
33.6524
 21
11.501
  0
LINE
  8
0
 10
33.6524
 20
11.501
 11
33.8075
 21
11.0238
  0
LINE
  8
0
 10
33.8075
 20
11.0238
 11
34.0583
 21
10.5893
  0
LINE
  8
0
 10
34.0583
 20
10.5893
 11
34.3941
 21
10.2164
  0
LINE
  8
0
 10
34.3941
 20
10.2164
 11
34.8
 21
9.92154
  0
LINE
  8
0
 10
34.8
 20
9.92154
 11
35.2583
 21
9.71745
  0
LINE
  8
0
 10
35.2583
 20
9.71745
 11
35.7491
 21
9.61314
  0
LINE
  8
0
 10
35.7491
 20
9.61314
 11
36.2509
 21
9.61314
  0
LINE
  8
0
 10
36.2509
 20
9.61314
 11
36.7416
 21
9.71745
  0
LINE
  8
0
 10
28.7416
 20
9.71745
 11
29.2
 21
9.92154
  0
LINE
  8
0
 10
29.2
 20
9.92154
 11
29.6059
 21
10.2164
  0
LINE
  8
0
 10
29.6059
 20
10.2164
 11
29.9416
 21
10.5893
  0
LINE
  8
0
 10
29.9416
 20
10.5893
 11
30.1925
 21
11.0238
  0
LINE
  8
0
 10
30.1925
 20
11.0238
 11
30.3475
 21
11.501
  0
LINE
  8
0
 10
30.3475
 20
11.501
 11
30.4
 21
12
  0
LINE
  8
0
 10
30.4
 20
12
 11
30.3475
 21
12.499
  0
LINE
  8
0
 10
30.3475
 20
12.499
 11
30.1925
 21
12.9762
  0
LINE
  8
0
 10
30.1925
 20
12.9762
 11
29.9416
 21
13.4107
  0
LINE
  8
0
 10
29.9416
 20
13.4107
 11
29.6059
 21
13.7835
  0
LINE
  8
0
 10
29.6059
 20
13.7835
 11
29.2
 21
14.0785
  0
LINE
  8
0
 10
29.2
 20
14.0785
 11
28.7416
 21
14.2825
  0
LINE
  8
0
 10
28.7416
 20
14.2825
 11
28.2509
 21
14.3868
  0
LINE
  8
0
 10
28.2509
 20
14.3868
 11
27.7491
 21
14.3868
  0
LINE
  8
0
 10
27.7491
 20
14.3868
 11
27.2583
 21
14.2825
  0
LINE
  8
0
 10
27.2583
 20
14.2825
 11
26.8
 21
14.0785
  0
LINE
  8
0
 10
26.8
 20
14.0785
 11
26.3941
 21
13.7835
  0
LINE
  8
0
 10
26.3941
 20
13.7835
 11
26.0583
 21
13.4107
  0
LINE
  8
0
 10
26.0583
 20
13.4107
 11
25.8075
 21
12.9762
  0
LINE
  8
0
 10
25.8075
 20
12.9762
 11
25.6524
 21
12.499
  0
LINE
  8
0
 10
25.6524
 20
12.499
 11
25.6
 21
12
  0
LINE
  8
0
 10
25.6
 20
12
 11
25.6524
 21
11.501
  0
LINE
  8
0
 10
25.6524
 20
11.501
 11
25.8075
 21
11.0238
  0
LINE
  8
0
 10
25.8075
 20
11.0238
 11
26.0583
 21
10.5893
  0
LINE
  8
0
 10
26.0583
 20
10.5893
 11
26.3941
 21
10.2164
  0
LINE
  8
0
 10
26.3941
 20
10.2164
 11
26.8
 21
9.92154
  0
LINE
  8
0
 10
26.8
 20
9.92154
 11
27.2583
 21
9.71745
  0
LINE
  8
0
 10
27.2583
 20
9.71745
 11
27.7491
 21
9.61314
  0
LINE
  8
0
 10
27.7491
 20
9.61314
 11
28.2509
 21
9.61314
  0
LINE
  8
0
 10
28.2509
 20
9.61314
 11
28.7416
 21
9.71745
  0
LINE
  8
0
 10
4.74164
 20
9.71745
 11
5.2
 21
9.92154
  0
LINE
  8
0
 10
5.2
 20
9.92154
 11
5.60591
 21
10.2164
  0
LINE
  8
0
 10
5.60591
 20
10.2164
 11
5.94164
 21
10.5893
  0
LINE
  8
0
 10
5.94164
 20
10.5893
 11
6.1925
 21
11.0238
  0
LINE
  8
0
 10
6.1925
 20
11.0238
 11
6.34755
 21
11.501
  0
LINE
  8
0
 10
6.34755
 20
11.501
 11
6.39999
 21
12
  0
LINE
  8
0
 10
6.39999
 20
12
 11
6.34755
 21
12.499
  0
LINE
  8
0
 10
6.34755
 20
12.499
 11
6.1925
 21
12.9762
  0
LINE
  8
0
 10
6.1925
 20
12.9762
 11
5.94164
 21
13.4107
  0
LINE
  8
0
 10
5.94164
 20
13.4107
 11
5.60591
 21
13.7835
  0
LINE
  8
0
 10
5.60591
 20
13.7835
 11
5.2
 21
14.0785
  0
LINE
  8
0
 10
5.2
 20
14.0785
 11
4.74164
 21
14.2825
  0
LINE
  8
0
 10
4.74164
 20
14.2825
 11
4.25085
 21
14.3868
  0
LINE
  8
0
 10
4.25085
 20
14.3868
 11
3.74913
 21
14.3868
  0
LINE
  8
0
 10
3.74913
 20
14.3868
 11
3.25835
 21
14.2825
  0
LINE
  8
0
 10
3.25835
 20
14.2825
 11
2.79999
 21
14.0785
  0
LINE
  8
0
 10
2.79999
 20
14.0785
 11
2.39407
 21
13.7835
  0
LINE
  8
0
 10
2.39407
 20
13.7835
 11
2.05835
 21
13.4107
  0
LINE
  8
0
 10
2.05835
 20
13.4107
 11
1.80748
 21
12.9762
  0
LINE
  8
0
 10
1.80748
 20
12.9762
 11
1.65244
 21
12.499
  0
LINE
  8
0
 10
1.65244
 20
12.499
 11
1.59999
 21
12
  0
LINE
  8
0
 10
1.59999
 20
12
 11
1.65244
 21
11.501
  0
LINE
  8
0
 10
1.65244
 20
11.501
 11
1.80748
 21
11.0238
  0
LINE
  8
0
 10
1.80748
 20
11.0238
 11
2.05835
 21
10.5893
  0
LINE
  8
0
 10
2.05835
 20
10.5893
 11
2.39407
 21
10.2164
  0
LINE
  8
0
 10
2.39407
 20
10.2164
 11
2.79999
 21
9.92154
  0
LINE
  8
0
 10
2.79999
 20
9.92154
 11
3.25835
 21
9.71745
  0
LINE
  8
0
 10
3.25835
 20
9.71745
 11
3.74913
 21
9.61314
  0
LINE
  8
0
 10
3.74913
 20
9.61314
 11
4.25085
 21
9.61314
  0
LINE
  8
0
 10
4.25085
 20
9.61314
 11
4.74164
 21
9.71745
  0
LINE
  8
0
 10
52.7416
 20
9.71745
 11
53.2
 21
9.92154
  0
LINE
  8
0
 10
53.2
 20
9.92154
 11
53.6059
 21
10.2164
  0
LINE
  8
0
 10
53.6059
 20
10.2164
 11
53.9416
 21
10.5893
  0
LINE
  8
0
 10
53.9416
 20
10.5893
 11
54.1925
 21
11.0238
  0
LINE
  8
0
 10
54.1925
 20
11.0238
 11
54.3475
 21
11.501
  0
LINE
  8
0
 10
54.3475
 20
11.501
 11
54.4
 21
12
  0
LINE
  8
0
 10
54.4
 20
12
 11
54.3475
 21
12.499
  0
LINE
  8
0
 10
54.3475
 20
12.499
 11
54.1925
 21
12.9762
  0
LINE
  8
0
 10
54.1925
 20
12.9762
 11
53.9416
 21
13.4107
  0
LINE
  8
0
 10
53.9416
 20
13.4107
 11
53.6059
 21
13.7835
  0
LINE
  8
0
 10
53.6059
 20
13.7835
 11
53.2
 21
14.0785
  0
LINE
  8
0
 10
53.2
 20
14.0785
 11
52.7416
 21
14.2825
  0
LINE
  8
0
 10
52.7416
 20
14.2825
 11
52.2509
 21
14.3868
  0
LINE
  8
0
 10
52.2509
 20
14.3868
 11
51.7491
 21
14.3868
  0
LINE
  8
0
 10
51.7491
 20
14.3868
 11
51.2583
 21
14.2825
  0
LINE
  8
0
 10
51.2583
 20
14.2825
 11
50.8
 21
14.0785
  0
LINE
  8
0
 10
50.8
 20
14.0785
 11
50.3941
 21
13.7835
  0
LINE
  8
0
 10
50.3941
 20
13.7835
 11
50.0583
 21
13.4107
  0
LINE
  8
0
 10
50.0583
 20
13.4107
 11
49.8075
 21
12.9762
  0
LINE
  8
0
 10
49.8075
 20
12.9762
 11
49.6524
 21
12.499
  0
LINE
  8
0
 10
49.6524
 20
12.499
 11
49.6
 21
12
  0
LINE
  8
0
 10
49.6
 20
12
 11
49.6524
 21
11.501
  0
LINE
  8
0
 10
49.6524
 20
11.501
 11
49.8075
 21
11.0238
  0
LINE
  8
0
 10
49.8075
 20
11.0238
 11
50.0583
 21
10.5893
  0
LINE
  8
0
 10
50.0583
 20
10.5893
 11
50.3941
 21
10.2164
  0
LINE
  8
0
 10
50.3941
 20
10.2164
 11
50.8
 21
9.92154
  0
LINE
  8
0
 10
50.8
 20
9.92154
 11
51.2583
 21
9.71745
  0
LINE
  8
0
 10
51.2583
 20
9.71745
 11
51.7491
 21
9.61314
  0
LINE
  8
0
 10
51.7491
 20
9.61314
 11
52.2509
 21
9.61314
  0
LINE
  8
0
 10
52.2509
 20
9.61314
 11
52.7416
 21
9.71745
  0
LINE
  8
0
 10
60.7416
 20
9.71745
 11
61.2
 21
9.92154
  0
LINE
  8
0
 10
61.2
 20
9.92154
 11
61.6059
 21
10.2164
  0
LINE
  8
0
 10
61.6059
 20
10.2164
 11
61.9416
 21
10.5893
  0
LINE
  8
0
 10
61.9416
 20
10.5893
 11
62.1925
 21
11.0238
  0
LINE
  8
0
 10
62.1925
 20
11.0238
 11
62.3475
 21
11.501
  0
LINE
  8
0
 10
62.3475
 20
11.501
 11
62.4
 21
12
  0
LINE
  8
0
 10
62.4
 20
12
 11
62.3475
 21
12.499
  0
LINE
  8
0
 10
62.3475
 20
12.499
 11
62.1925
 21
12.9762
  0
LINE
  8
0
 10
62.1925
 20
12.9762
 11
61.9416
 21
13.4107
  0
LINE
  8
0
 10
61.9416
 20
13.4107
 11
61.6059
 21
13.7835
  0
LINE
  8
0
 10
61.6059
 20
13.7835
 11
61.2
 21
14.0785
  0
LINE
  8
0
 10
61.2
 20
14.0785
 11
60.7416
 21
14.2825
  0
LINE
  8
0
 10
60.7416
 20
14.2825
 11
60.2509
 21
14.3868
  0
LINE
  8
0
 10
60.2509
 20
14.3868
 11
59.7491
 21
14.3868
  0
LINE
  8
0
 10
59.7491
 20
14.3868
 11
59.2583
 21
14.2825
  0
LINE
  8
0
 10
59.2583
 20
14.2825
 11
58.8
 21
14.0785
  0
LINE
  8
0
 10
58.8
 20
14.0785
 11
58.3941
 21
13.7835
  0
LINE
  8
0
 10
58.3941
 20
13.7835
 11
58.0583
 21
13.4107
  0
LINE
  8
0
 10
58.0583
 20
13.4107
 11
57.8075
 21
12.9762
  0
LINE
  8
0
 10
57.8075
 20
12.9762
 11
57.6524
 21
12.499
  0
LINE
  8
0
 10
57.6524
 20
12.499
 11
57.6
 21
12
  0
LINE
  8
0
 10
57.6
 20
12
 11
57.6524
 21
11.501
  0
LINE
  8
0
 10
57.6524
 20
11.501
 11
57.8075
 21
11.0238
  0
LINE
  8
0
 10
57.8075
 20
11.0238
 11
58.0583
 21
10.5893
  0
LINE
  8
0
 10
58.0583
 20
10.5893
 11
58.3941
 21
10.2164
  0
LINE
  8
0
 10
58.3941
 20
10.2164
 11
58.8
 21
9.92154
  0
LINE
  8
0
 10
58.8
 20
9.92154
 11
59.2583
 21
9.71745
  0
LINE
  8
0
 10
59.2583
 20
9.71745
 11
59.7491
 21
9.61314
  0
LINE
  8
0
 10
59.7491
 20
9.61314
 11
60.2509
 21
9.61314
  0
LINE
  8
0
 10
60.2509
 20
9.61314
 11
60.7416
 21
9.71745
  0
LINE
  8
0
 10
44.7416
 20
9.71745
 11
45.2
 21
9.92154
  0
LINE
  8
0
 10
45.2
 20
9.92154
 11
45.6059
 21
10.2164
  0
LINE
  8
0
 10
45.6059
 20
10.2164
 11
45.9416
 21
10.5893
  0
LINE
  8
0
 10
45.9416
 20
10.5893
 11
46.1925
 21
11.0238
  0
LINE
  8
0
 10
46.1925
 20
11.0238
 11
46.3475
 21
11.501
  0
LINE
  8
0
 10
46.3475
 20
11.501
 11
46.4
 21
12
  0
LINE
  8
0
 10
46.4
 20
12
 11
46.3475
 21
12.499
  0
LINE
  8
0
 10
46.3475
 20
12.499
 11
46.1925
 21
12.9762
  0
LINE
  8
0
 10
46.1925
 20
12.9762
 11
45.9416
 21
13.4107
  0
LINE
  8
0
 10
45.9416
 20
13.4107
 11
45.6059
 21
13.7835
  0
LINE
  8
0
 10
45.6059
 20
13.7835
 11
45.2
 21
14.0785
  0
LINE
  8
0
 10
45.2
 20
14.0785
 11
44.7416
 21
14.2825
  0
LINE
  8
0
 10
44.7416
 20
14.2825
 11
44.2509
 21
14.3868
  0
LINE
  8
0
 10
44.2509
 20
14.3868
 11
43.7491
 21
14.3868
  0
LINE
  8
0
 10
43.7491
 20
14.3868
 11
43.2583
 21
14.2825
  0
LINE
  8
0
 10
43.2583
 20
14.2825
 11
42.8
 21
14.0785
  0
LINE
  8
0
 10
42.8
 20
14.0785
 11
42.3941
 21
13.7835
  0
LINE
  8
0
 10
42.3941
 20
13.7835
 11
42.0583
 21
13.4107
  0
LINE
  8
0
 10
42.0583
 20
13.4107
 11
41.8075
 21
12.9762
  0
LINE
  8
0
 10
41.8075
 20
12.9762
 11
41.6524
 21
12.499
  0
LINE
  8
0
 10
41.6524
 20
12.499
 11
41.6
 21
12
  0
LINE
  8
0
 10
41.6
 20
12
 11
41.6524
 21
11.501
  0
LINE
  8
0
 10
41.6524
 20
11.501
 11
41.8075
 21
11.0238
  0
LINE
  8
0
 10
41.8075
 20
11.0238
 11
42.0583
 21
10.5893
  0
LINE
  8
0
 10
42.0583
 20
10.5893
 11
42.3941
 21
10.2164
  0
LINE
  8
0
 10
42.3941
 20
10.2164
 11
42.8
 21
9.92154
  0
LINE
  8
0
 10
42.8
 20
9.92154
 11
43.2583
 21
9.71745
  0
LINE
  8
0
 10
43.2583
 20
9.71745
 11
43.7491
 21
9.61314
  0
LINE
  8
0
 10
43.7491
 20
9.61314
 11
44.2509
 21
9.61314
  0
LINE
  8
0
 10
44.2509
 20
9.61314
 11
44.7416
 21
9.71745
  0
LINE
  8
0
 10
52.7416
 20
1.71745
 11
53.2
 21
1.92152
  0
LINE
  8
0
 10
53.2
 20
1.92152
 11
53.6059
 21
2.21645
  0
LINE
  8
0
 10
53.6059
 20
2.21645
 11
53.9416
 21
2.58931
  0
LINE
  8
0
 10
53.9416
 20
2.58931
 11
54.1925
 21
3.02382
  0
LINE
  8
0
 10
54.1925
 20
3.02382
 11
54.3475
 21
3.50101
  0
LINE
  8
0
 10
54.3475
 20
3.50101
 11
54.4
 21
4
  0
LINE
  8
0
 10
54.4
 20
4
 11
54.3475
 21
4.49898
  0
LINE
  8
0
 10
54.3475
 20
4.49898
 11
54.1925
 21
4.97617
  0
LINE
  8
0
 10
54.1925
 20
4.97617
 11
53.9416
 21
5.41068
  0
LINE
  8
0
 10
53.9416
 20
5.41068
 11
53.6059
 21
5.78354
  0
LINE
  8
0
 10
53.6059
 20
5.78354
 11
53.2
 21
6.07846
  0
LINE
  8
0
 10
53.2
 20
6.07846
 11
52.7416
 21
6.28253
  0
LINE
  8
0
 10
52.7416
 20
6.28253
 11
52.2509
 21
6.38684
  0
LINE
  8
0
 10
52.2509
 20
6.38684
 11
51.7491
 21
6.38684
  0
LINE
  8
0
 10
51.7491
 20
6.38684
 11
51.2583
 21
6.28253
  0
LINE
  8
0
 10
51.2583
 20
6.28253
 11
50.8
 21
6.07846
  0
LINE
  8
0
 10
50.8
 20
6.07846
 11
50.3941
 21
5.78354
  0
LINE
  8
0
 10
50.3941
 20
5.78354
 11
50.0583
 21
5.41068
  0
LINE
  8
0
 10
50.0583
 20
5.41068
 11
49.8075
 21
4.97617
  0
LINE
  8
0
 10
49.8075
 20
4.97617
 11
49.6524
 21
4.49898
  0
LINE
  8
0
 10
49.6524
 20
4.49898
 11
49.6
 21
4
  0
LINE
  8
0
 10
49.6
 20
4
 11
49.6524
 21
3.50101
  0
LINE
  8
0
 10
49.6524
 20
3.50101
 11
49.8075
 21
3.02382
  0
LINE
  8
0
 10
49.8075
 20
3.02382
 11
50.0583
 21
2.58931
  0
LINE
  8
0
 10
50.0583
 20
2.58931
 11
50.3941
 21
2.21645
  0
LINE
  8
0
 10
50.3941
 20
2.21645
 11
50.8
 21
1.92152
  0
LINE
  8
0
 10
50.8
 20
1.92152
 11
51.2583
 21
1.71745
  0
LINE
  8
0
 10
51.2583
 20
1.71745
 11
51.7491
 21
1.61314
  0
LINE
  8
0
 10
51.7491
 20
1.61314
 11
52.2509
 21
1.61314
  0
LINE
  8
0
 10
52.2509
 20
1.61314
 11
52.7416
 21
1.71745
  0
LINE
  8
0
 10
20.7416
 20
1.71745
 11
21.2
 21
1.92152
  0
LINE
  8
0
 10
21.2
 20
1.92152
 11
21.6059
 21
2.21645
  0
LINE
  8
0
 10
21.6059
 20
2.21645
 11
21.9416
 21
2.58931
  0
LINE
  8
0
 10
21.9416
 20
2.58931
 11
22.1925
 21
3.02382
  0
LINE
  8
0
 10
22.1925
 20
3.02382
 11
22.3475
 21
3.50101
  0
LINE
  8
0
 10
22.3475
 20
3.50101
 11
22.4
 21
4
  0
LINE
  8
0
 10
22.4
 20
4
 11
22.3475
 21
4.49898
  0
LINE
  8
0
 10
22.3475
 20
4.49898
 11
22.1925
 21
4.97617
  0
LINE
  8
0
 10
22.1925
 20
4.97617
 11
21.9416
 21
5.41068
  0
LINE
  8
0
 10
21.9416
 20
5.41068
 11
21.6059
 21
5.78354
  0
LINE
  8
0
 10
21.6059
 20
5.78354
 11
21.2
 21
6.07846
  0
LINE
  8
0
 10
21.2
 20
6.07846
 11
20.7416
 21
6.28253
  0
LINE
  8
0
 10
20.7416
 20
6.28253
 11
20.2509
 21
6.38684
  0
LINE
  8
0
 10
20.2509
 20
6.38684
 11
19.7491
 21
6.38684
  0
LINE
  8
0
 10
19.7491
 20
6.38684
 11
19.2583
 21
6.28253
  0
LINE
  8
0
 10
19.2583
 20
6.28253
 11
18.8
 21
6.07846
  0
LINE
  8
0
 10
18.8
 20
6.07846
 11
18.3941
 21
5.78354
  0
LINE
  8
0
 10
18.3941
 20
5.78354
 11
18.0583
 21
5.41068
  0
LINE
  8
0
 10
18.0583
 20
5.41068
 11
17.8075
 21
4.97617
  0
LINE
  8
0
 10
17.8075
 20
4.97617
 11
17.6524
 21
4.49898
  0
LINE
  8
0
 10
17.6524
 20
4.49898
 11
17.6
 21
4
  0
LINE
  8
0
 10
17.6
 20
4
 11
17.6524
 21
3.50101
  0
LINE
  8
0
 10
17.6524
 20
3.50101
 11
17.8075
 21
3.02382
  0
LINE
  8
0
 10
17.8075
 20
3.02382
 11
18.0583
 21
2.58931
  0
LINE
  8
0
 10
18.0583
 20
2.58931
 11
18.3941
 21
2.21645
  0
LINE
  8
0
 10
18.3941
 20
2.21645
 11
18.8
 21
1.92152
  0
LINE
  8
0
 10
18.8
 20
1.92152
 11
19.2583
 21
1.71745
  0
LINE
  8
0
 10
19.2583
 20
1.71745
 11
19.7491
 21
1.61314
  0
LINE
  8
0
 10
19.7491
 20
1.61314
 11
20.2509
 21
1.61314
  0
LINE
  8
0
 10
20.2509
 20
1.61314
 11
20.7416
 21
1.71745
  0
LINE
  8
0
 10
60.7416
 20
1.71745
 11
61.2
 21
1.92152
  0
LINE
  8
0
 10
61.2
 20
1.92152
 11
61.6059
 21
2.21645
  0
LINE
  8
0
 10
61.6059
 20
2.21645
 11
61.9416
 21
2.58931
  0
LINE
  8
0
 10
61.9416
 20
2.58931
 11
62.1925
 21
3.02382
  0
LINE
  8
0
 10
62.1925
 20
3.02382
 11
62.3475
 21
3.50101
  0
LINE
  8
0
 10
62.3475
 20
3.50101
 11
62.4
 21
4
  0
LINE
  8
0
 10
62.4
 20
4
 11
62.3475
 21
4.49898
  0
LINE
  8
0
 10
62.3475
 20
4.49898
 11
62.1925
 21
4.97617
  0
LINE
  8
0
 10
62.1925
 20
4.97617
 11
61.9416
 21
5.41068
  0
LINE
  8
0
 10
61.9416
 20
5.41068
 11
61.6059
 21
5.78354
  0
LINE
  8
0
 10
61.6059
 20
5.78354
 11
61.2
 21
6.07846
  0
LINE
  8
0
 10
61.2
 20
6.07846
 11
60.7416
 21
6.28253
  0
LINE
  8
0
 10
60.7416
 20
6.28253
 11
60.2509
 21
6.38684
  0
LINE
  8
0
 10
60.2509
 20
6.38684
 11
59.7491
 21
6.38684
  0
LINE
  8
0
 10
59.7491
 20
6.38684
 11
59.2583
 21
6.28253
  0
LINE
  8
0
 10
59.2583
 20
6.28253
 11
58.8
 21
6.07846
  0
LINE
  8
0
 10
58.8
 20
6.07846
 11
58.3941
 21
5.78354
  0
LINE
  8
0
 10
58.3941
 20
5.78354
 11
58.0583
 21
5.41068
  0
LINE
  8
0
 10
58.0583
 20
5.41068
 11
57.8075
 21
4.97617
  0
LINE
  8
0
 10
57.8075
 20
4.97617
 11
57.6524
 21
4.49898
  0
LINE
  8
0
 10
57.6524
 20
4.49898
 11
57.6
 21
4
  0
LINE
  8
0
 10
57.6
 20
4
 11
57.6524
 21
3.50101
  0
LINE
  8
0
 10
57.6524
 20
3.50101
 11
57.8075
 21
3.02382
  0
LINE
  8
0
 10
57.8075
 20
3.02382
 11
58.0583
 21
2.58931
  0
LINE
  8
0
 10
58.0583
 20
2.58931
 11
58.3941
 21
2.21645
  0
LINE
  8
0
 10
58.3941
 20
2.21645
 11
58.8
 21
1.92152
  0
LINE
  8
0
 10
58.8
 20
1.92152
 11
59.2583
 21
1.71745
  0
LINE
  8
0
 10
59.2583
 20
1.71745
 11
59.7491
 21
1.61314
  0
LINE
  8
0
 10
59.7491
 20
1.61314
 11
60.2509
 21
1.61314
  0
LINE
  8
0
 10
60.2509
 20
1.61314
 11
60.7416
 21
1.71745
  0
LINE
  8
0
 10
12.7416
 20
1.71745
 11
13.2
 21
1.92152
  0
LINE
  8
0
 10
13.2
 20
1.92152
 11
13.6059
 21
2.21645
  0
LINE
  8
0
 10
13.6059
 20
2.21645
 11
13.9416
 21
2.58931
  0
LINE
  8
0
 10
13.9416
 20
2.58931
 11
14.1925
 21
3.02382
  0
LINE
  8
0
 10
14.1925
 20
3.02382
 11
14.3475
 21
3.50101
  0
LINE
  8
0
 10
14.3475
 20
3.50101
 11
14.4
 21
4
  0
LINE
  8
0
 10
14.4
 20
4
 11
14.3475
 21
4.49898
  0
LINE
  8
0
 10
14.3475
 20
4.49898
 11
14.1925
 21
4.97617
  0
LINE
  8
0
 10
14.1925
 20
4.97617
 11
13.9416
 21
5.41068
  0
LINE
  8
0
 10
13.9416
 20
5.41068
 11
13.6059
 21
5.78354
  0
LINE
  8
0
 10
13.6059
 20
5.78354
 11
13.2
 21
6.07846
  0
LINE
  8
0
 10
13.2
 20
6.07846
 11
12.7416
 21
6.28253
  0
LINE
  8
0
 10
12.7416
 20
6.28253
 11
12.2509
 21
6.38684
  0
LINE
  8
0
 10
12.2509
 20
6.38684
 11
11.7491
 21
6.38684
  0
LINE
  8
0
 10
11.7491
 20
6.38684
 11
11.2583
 21
6.28253
  0
LINE
  8
0
 10
11.2583
 20
6.28253
 11
10.8
 21
6.07846
  0
LINE
  8
0
 10
10.8
 20
6.07846
 11
10.3941
 21
5.78354
  0
LINE
  8
0
 10
10.3941
 20
5.78354
 11
10.0583
 21
5.41068
  0
LINE
  8
0
 10
10.0583
 20
5.41068
 11
9.80748
 21
4.97617
  0
LINE
  8
0
 10
9.80748
 20
4.97617
 11
9.65244
 21
4.49898
  0
LINE
  8
0
 10
9.65244
 20
4.49898
 11
9.59999
 21
4
  0
LINE
  8
0
 10
9.59999
 20
4
 11
9.65244
 21
3.50101
  0
LINE
  8
0
 10
9.65244
 20
3.50101
 11
9.80748
 21
3.02382
  0
LINE
  8
0
 10
9.80748
 20
3.02382
 11
10.0583
 21
2.58931
  0
LINE
  8
0
 10
10.0583
 20
2.58931
 11
10.3941
 21
2.21645
  0
LINE
  8
0
 10
10.3941
 20
2.21645
 11
10.8
 21
1.92152
  0
LINE
  8
0
 10
10.8
 20
1.92152
 11
11.2583
 21
1.71745
  0
LINE
  8
0
 10
11.2583
 20
1.71745
 11
11.7491
 21
1.61314
  0
LINE
  8
0
 10
11.7491
 20
1.61314
 11
12.2509
 21
1.61314
  0
LINE
  8
0
 10
12.2509
 20
1.61314
 11
12.7416
 21
1.71745
  0
LINE
  8
0
 10
36.7416
 20
1.71745
 11
37.2
 21
1.92152
  0
LINE
  8
0
 10
37.2
 20
1.92152
 11
37.6059
 21
2.21645
  0
LINE
  8
0
 10
37.6059
 20
2.21645
 11
37.9416
 21
2.58931
  0
LINE
  8
0
 10
37.9416
 20
2.58931
 11
38.1925
 21
3.02382
  0
LINE
  8
0
 10
38.1925
 20
3.02382
 11
38.3475
 21
3.50101
  0
LINE
  8
0
 10
38.3475
 20
3.50101
 11
38.4
 21
4
  0
LINE
  8
0
 10
38.4
 20
4
 11
38.3475
 21
4.49898
  0
LINE
  8
0
 10
38.3475
 20
4.49898
 11
38.1925
 21
4.97617
  0
LINE
  8
0
 10
38.1925
 20
4.97617
 11
37.9416
 21
5.41068
  0
LINE
  8
0
 10
37.9416
 20
5.41068
 11
37.6059
 21
5.78354
  0
LINE
  8
0
 10
37.6059
 20
5.78354
 11
37.2
 21
6.07846
  0
LINE
  8
0
 10
37.2
 20
6.07846
 11
36.7416
 21
6.28253
  0
LINE
  8
0
 10
36.7416
 20
6.28253
 11
36.2509
 21
6.38684
  0
LINE
  8
0
 10
36.2509
 20
6.38684
 11
35.7491
 21
6.38684
  0
LINE
  8
0
 10
35.7491
 20
6.38684
 11
35.2583
 21
6.28253
  0
LINE
  8
0
 10
35.2583
 20
6.28253
 11
34.8
 21
6.07846
  0
LINE
  8
0
 10
34.8
 20
6.07846
 11
34.3941
 21
5.78354
  0
LINE
  8
0
 10
34.3941
 20
5.78354
 11
34.0583
 21
5.41068
  0
LINE
  8
0
 10
34.0583
 20
5.41068
 11
33.8075
 21
4.97617
  0
LINE
  8
0
 10
33.8075
 20
4.97617
 11
33.6524
 21
4.49898
  0
LINE
  8
0
 10
33.6524
 20
4.49898
 11
33.6
 21
4
  0
LINE
  8
0
 10
33.6
 20
4
 11
33.6524
 21
3.50101
  0
LINE
  8
0
 10
33.6524
 20
3.50101
 11
33.8075
 21
3.02382
  0
LINE
  8
0
 10
33.8075
 20
3.02382
 11
34.0583
 21
2.58931
  0
LINE
  8
0
 10
34.0583
 20
2.58931
 11
34.3941
 21
2.21645
  0
LINE
  8
0
 10
34.3941
 20
2.21645
 11
34.8
 21
1.92152
  0
LINE
  8
0
 10
34.8
 20
1.92152
 11
35.2583
 21
1.71745
  0
LINE
  8
0
 10
35.2583
 20
1.71745
 11
35.7491
 21
1.61314
  0
LINE
  8
0
 10
35.7491
 20
1.61314
 11
36.2509
 21
1.61314
  0
LINE
  8
0
 10
36.2509
 20
1.61314
 11
36.7416
 21
1.71745
  0
LINE
  8
0
 10
4.74164
 20
1.71745
 11
5.2
 21
1.92152
  0
LINE
  8
0
 10
5.2
 20
1.92152
 11
5.60591
 21
2.21645
  0
LINE
  8
0
 10
5.60591
 20
2.21645
 11
5.94164
 21
2.58931
  0
LINE
  8
0
 10
5.94164
 20
2.58931
 11
6.1925
 21
3.02382
  0
LINE
  8
0
 10
6.1925
 20
3.02382
 11
6.34755
 21
3.50101
  0
LINE
  8
0
 10
6.34755
 20
3.50101
 11
6.39999
 21
4
  0
LINE
  8
0
 10
6.39999
 20
4
 11
6.34755
 21
4.49898
  0
LINE
  8
0
 10
6.34755
 20
4.49898
 11
6.1925
 21
4.97617
  0
LINE
  8
0
 10
6.1925
 20
4.97617
 11
5.94164
 21
5.41068
  0
LINE
  8
0
 10
5.94164
 20
5.41068
 11
5.60591
 21
5.78354
  0
LINE
  8
0
 10
5.60591
 20
5.78354
 11
5.2
 21
6.07846
  0
LINE
  8
0
 10
5.2
 20
6.07846
 11
4.74164
 21
6.28253
  0
LINE
  8
0
 10
4.74164
 20
6.28253
 11
4.25085
 21
6.38684
  0
LINE
  8
0
 10
4.25085
 20
6.38684
 11
3.74913
 21
6.38684
  0
LINE
  8
0
 10
3.74913
 20
6.38684
 11
3.25835
 21
6.28253
  0
LINE
  8
0
 10
3.25835
 20
6.28253
 11
2.79999
 21
6.07846
  0
LINE
  8
0
 10
2.79999
 20
6.07846
 11
2.39407
 21
5.78354
  0
LINE
  8
0
 10
2.39407
 20
5.78354
 11
2.05835
 21
5.41068
  0
LINE
  8
0
 10
2.05835
 20
5.41068
 11
1.80748
 21
4.97617
  0
LINE
  8
0
 10
1.80748
 20
4.97617
 11
1.65244
 21
4.49898
  0
LINE
  8
0
 10
1.65244
 20
4.49898
 11
1.59999
 21
4
  0
LINE
  8
0
 10
1.59999
 20
4
 11
1.65244
 21
3.50101
  0
LINE
  8
0
 10
1.65244
 20
3.50101
 11
1.80748
 21
3.02382
  0
LINE
  8
0
 10
1.80748
 20
3.02382
 11
2.05835
 21
2.58931
  0
LINE
  8
0
 10
2.05835
 20
2.58931
 11
2.39407
 21
2.21645
  0
LINE
  8
0
 10
2.39407
 20
2.21645
 11
2.79999
 21
1.92152
  0
LINE
  8
0
 10
2.79999
 20
1.92152
 11
3.25835
 21
1.71745
  0
LINE
  8
0
 10
3.25835
 20
1.71745
 11
3.74913
 21
1.61314
  0
LINE
  8
0
 10
3.74913
 20
1.61314
 11
4.25085
 21
1.61314
  0
LINE
  8
0
 10
4.25085
 20
1.61314
 11
4.74164
 21
1.71745
  0
LINE
  8
0
 10
28.7416
 20
1.71745
 11
29.2
 21
1.92152
  0
LINE
  8
0
 10
29.2
 20
1.92152
 11
29.6059
 21
2.21645
  0
LINE
  8
0
 10
29.6059
 20
2.21645
 11
29.9416
 21
2.58931
  0
LINE
  8
0
 10
29.9416
 20
2.58931
 11
30.1925
 21
3.02382
  0
LINE
  8
0
 10
30.1925
 20
3.02382
 11
30.3475
 21
3.50101
  0
LINE
  8
0
 10
30.3475
 20
3.50101
 11
30.4
 21
4
  0
LINE
  8
0
 10
30.4
 20
4
 11
30.3475
 21
4.49898
  0
LINE
  8
0
 10
30.3475
 20
4.49898
 11
30.1925
 21
4.97617
  0
LINE
  8
0
 10
30.1925
 20
4.97617
 11
29.9416
 21
5.41068
  0
LINE
  8
0
 10
29.9416
 20
5.41068
 11
29.6059
 21
5.78354
  0
LINE
  8
0
 10
29.6059
 20
5.78354
 11
29.2
 21
6.07846
  0
LINE
  8
0
 10
29.2
 20
6.07846
 11
28.7416
 21
6.28253
  0
LINE
  8
0
 10
28.7416
 20
6.28253
 11
28.2509
 21
6.38684
  0
LINE
  8
0
 10
28.2509
 20
6.38684
 11
27.7491
 21
6.38684
  0
LINE
  8
0
 10
27.7491
 20
6.38684
 11
27.2583
 21
6.28253
  0
LINE
  8
0
 10
27.2583
 20
6.28253
 11
26.8
 21
6.07846
  0
LINE
  8
0
 10
26.8
 20
6.07846
 11
26.3941
 21
5.78354
  0
LINE
  8
0
 10
26.3941
 20
5.78354
 11
26.0583
 21
5.41068
  0
LINE
  8
0
 10
26.0583
 20
5.41068
 11
25.8075
 21
4.97617
  0
LINE
  8
0
 10
25.8075
 20
4.97617
 11
25.6524
 21
4.49898
  0
LINE
  8
0
 10
25.6524
 20
4.49898
 11
25.6
 21
4
  0
LINE
  8
0
 10
25.6
 20
4
 11
25.6524
 21
3.50101
  0
LINE
  8
0
 10
25.6524
 20
3.50101
 11
25.8075
 21
3.02382
  0
LINE
  8
0
 10
25.8075
 20
3.02382
 11
26.0583
 21
2.58931
  0
LINE
  8
0
 10
26.0583
 20
2.58931
 11
26.3941
 21
2.21645
  0
LINE
  8
0
 10
26.3941
 20
2.21645
 11
26.8
 21
1.92152
  0
LINE
  8
0
 10
26.8
 20
1.92152
 11
27.2583
 21
1.71745
  0
LINE
  8
0
 10
27.2583
 20
1.71745
 11
27.7491
 21
1.61314
  0
LINE
  8
0
 10
27.7491
 20
1.61314
 11
28.2509
 21
1.61314
  0
LINE
  8
0
 10
28.2509
 20
1.61314
 11
28.7416
 21
1.71745
  0
LINE
  8
0
 10
44.7416
 20
1.71745
 11
45.2
 21
1.92152
  0
LINE
  8
0
 10
45.2
 20
1.92152
 11
45.6059
 21
2.21645
  0
LINE
  8
0
 10
45.6059
 20
2.21645
 11
45.9416
 21
2.58931
  0
LINE
  8
0
 10
45.9416
 20
2.58931
 11
46.1925
 21
3.02382
  0
LINE
  8
0
 10
46.1925
 20
3.02382
 11
46.3475
 21
3.50101
  0
LINE
  8
0
 10
46.3475
 20
3.50101
 11
46.4
 21
4
  0
LINE
  8
0
 10
46.4
 20
4
 11
46.3475
 21
4.49898
  0
LINE
  8
0
 10
46.3475
 20
4.49898
 11
46.1925
 21
4.97617
  0
LINE
  8
0
 10
46.1925
 20
4.97617
 11
45.9416
 21
5.41068
  0
LINE
  8
0
 10
45.9416
 20
5.41068
 11
45.6059
 21
5.78354
  0
LINE
  8
0
 10
45.6059
 20
5.78354
 11
45.2
 21
6.07846
  0
LINE
  8
0
 10
45.2
 20
6.07846
 11
44.7416
 21
6.28253
  0
LINE
  8
0
 10
44.7416
 20
6.28253
 11
44.2509
 21
6.38684
  0
LINE
  8
0
 10
44.2509
 20
6.38684
 11
43.7491
 21
6.38684
  0
LINE
  8
0
 10
43.7491
 20
6.38684
 11
43.2583
 21
6.28253
  0
LINE
  8
0
 10
43.2583
 20
6.28253
 11
42.8
 21
6.07846
  0
LINE
  8
0
 10
42.8
 20
6.07846
 11
42.3941
 21
5.78354
  0
LINE
  8
0
 10
42.3941
 20
5.78354
 11
42.0583
 21
5.41068
  0
LINE
  8
0
 10
42.0583
 20
5.41068
 11
41.8075
 21
4.97617
  0
LINE
  8
0
 10
41.8075
 20
4.97617
 11
41.6524
 21
4.49898
  0
LINE
  8
0
 10
41.6524
 20
4.49898
 11
41.6
 21
4
  0
LINE
  8
0
 10
41.6
 20
4
 11
41.6524
 21
3.50101
  0
LINE
  8
0
 10
41.6524
 20
3.50101
 11
41.8075
 21
3.02382
  0
LINE
  8
0
 10
41.8075
 20
3.02382
 11
42.0583
 21
2.58931
  0
LINE
  8
0
 10
42.0583
 20
2.58931
 11
42.3941
 21
2.21645
  0
LINE
  8
0
 10
42.3941
 20
2.21645
 11
42.8
 21
1.92152
  0
LINE
  8
0
 10
42.8
 20
1.92152
 11
43.2583
 21
1.71745
  0
LINE
  8
0
 10
43.2583
 20
1.71745
 11
43.7491
 21
1.61314
  0
LINE
  8
0
 10
43.7491
 20
1.61314
 11
44.2509
 21
1.61314
  0
LINE
  8
0
 10
44.2509
 20
1.61314
 11
44.7416
 21
1.71745
  0
ENDSEC
  0
SECTION
  2
OBJECTS
  0
DICTIONARY
  0
ENDSEC
  0
EOF
