  0
SECTION
  2
ENTITIES
  0
LINE
 10
-57.999000
 11
-57.780000
 20
0.000000
 21
2.079000
  0
LINE
 10
-57.780000
 11
-57.135000
 20
2.079000
 21
4.067000
  0
LINE
 10
-57.135000
 11
-56.089000
 20
4.067000
 21
5.877000
  0
LINE
 10
-56.089000
 11
-54.691000
 20
5.877000
 21
7.431000
  0
LINE
 10
-54.691000
 11
-53.000000
 20
7.431000
 21
8.659000
  0
LINE
 10
-53.000000
 11
-51.090000
 20
8.659000
 21
9.510000
  0
LINE
 10
-51.090000
 11
-49.045000
 20
9.510000
 21
9.944000
  0
LINE
 10
-49.045000
 11
-48.934000
 20
9.944000
 21
9.944000
  0
LINE
 10
-48.934000
 11
-48.701000
 20
9.944000
 21
10.045000
  0
LINE
 10
-48.701000
 11
-47.528000
 20
10.045000
 21
10.774000
  0
LINE
 10
-47.528000
 11
-46.016000
 20
10.774000
 21
12.075000
  0
LINE
 10
-46.016000
 11
-44.427000
 20
12.075000
 21
13.943000
  0
LINE
 10
-44.427000
 11
-42.999000
 20
13.943000
 21
16.278000
  0
LINE
 10
-42.999000
 11
-41.915000
 20
16.278000
 21
18.895000
  0
LINE
 10
-41.915000
 11
-41.275000
 20
18.895000
 21
21.555000
  0
LINE
 10
-41.275000
 11
-41.077000
 20
21.555000
 21
24.000000
  0
LINE
 10
-41.077000
 11
-41.226000
 20
24.000000
 21
25.989000
  0
LINE
 10
-41.226000
 11
-41.540000
 20
25.989000
 21
27.334000
  0
LINE
 10
-41.540000
 11
-41.633000
 20
27.334000
 21
27.570000
  0
LINE
 10
-41.633000
 11
-41.712000
 20
27.570000
 21
27.649000
  0
LINE
 10
-41.712000
 11
-42.850000
 20
27.649000
 21
29.402000
  0
LINE
 10
-42.850000
 11
-43.599000
 20
29.402000
 21
31.353000
  0
LINE
 10
-43.599000
 11
-43.926000
 20
31.353000
 21
33.418000
  0
LINE
 10
-43.926000
 11
-43.817000
 20
33.418000
 21
35.505000
  0
LINE
 10
-43.817000
 11
-43.276000
 20
35.505000
 21
37.524000
  0
LINE
 10
-43.276000
 11
-42.327000
 20
37.524000
 21
39.387000
  0
LINE
 10
-42.327000
 11
-41.011000
 20
39.387000
 21
41.011000
  0
LINE
 10
-41.011000
 11
-39.387000
 20
41.011000
 21
42.327000
  0
LINE
 10
-39.387000
 11
-37.524000
 20
42.327000
 21
43.276000
  0
LINE
 10
-37.524000
 11
-35.505000
 20
43.276000
 21
43.817000
  0
LINE
 10
-35.505000
 11
-33.418000
 20
43.817000
 21
43.926000
  0
LINE
 10
-33.418000
 11
-31.353000
 20
43.926000
 21
43.599000
  0
LINE
 10
-31.353000
 11
-29.402000
 20
43.599000
 21
42.850000
  0
LINE
 10
-29.402000
 11
-27.649000
 20
42.850000
 21
41.712000
  0
LINE
 10
-27.649000
 11
-27.570000
 20
41.712000
 21
41.633000
  0
LINE
 10
-27.570000
 11
-27.334000
 20
41.633000
 21
41.540000
  0
LINE
 10
-27.334000
 11
-25.989000
 20
41.540000
 21
41.226000
  0
LINE
 10
-25.989000
 11
-24.000000
 20
41.226000
 21
41.077000
  0
LINE
 10
-24.000000
 11
-21.555000
 20
41.077000
 21
41.274000
  0
LINE
 10
-21.555000
 11
-18.895000
 20
41.274000
 21
41.915000
  0
LINE
 10
-18.895000
 11
-16.278000
 20
41.915000
 21
42.999000
  0
LINE
 10
-16.278000
 11
-13.944000
 20
42.999000
 21
44.427000
  0
LINE
 10
-13.944000
 11
-12.075000
 20
44.427000
 21
46.016000
  0
LINE
 10
-12.075000
 11
-10.774000
 20
46.016000
 21
47.528000
  0
LINE
 10
-10.774000
 11
-10.045000
 20
47.528000
 21
48.701000
  0
LINE
 10
-10.045000
 11
-9.944000
 20
48.701000
 21
48.934000
  0
LINE
 10
-9.944000
 11
-9.944000
 20
48.934000
 21
49.045000
  0
LINE
 10
-9.944000
 11
-9.510000
 20
49.045000
 21
51.090000
  0
LINE
 10
-9.510000
 11
-8.659000
 20
51.090000
 21
53.000000
  0
LINE
 10
-8.659000
 11
-7.431000
 20
53.000000
 21
54.691000
  0
LINE
 10
-7.431000
 11
-5.877000
 20
54.691000
 21
56.089000
  0
LINE
 10
-5.877000
 11
-4.067000
 20
56.089000
 21
57.135000
  0
LINE
 10
-4.067000
 11
-2.079000
 20
57.135000
 21
57.780000
  0
LINE
 10
-2.079000
 11
0.000000
 20
57.780000
 21
57.999000
  0
LINE
 10
0.000000
 11
2.079000
 20
57.999000
 21
57.780000
  0
LINE
 10
2.079000
 11
4.067000
 20
57.780000
 21
57.135000
  0
LINE
 10
4.067000
 11
5.877000
 20
57.135000
 21
56.089000
  0
LINE
 10
5.877000
 11
7.431000
 20
56.089000
 21
54.691000
  0
LINE
 10
7.431000
 11
8.659000
 20
54.691000
 21
53.000000
  0
LINE
 10
8.659000
 11
9.510000
 20
53.000000
 21
51.090000
  0
LINE
 10
9.510000
 11
9.944000
 20
51.090000
 21
49.045000
  0
LINE
 10
9.944000
 11
9.944000
 20
49.045000
 21
48.934000
  0
LINE
 10
9.944000
 11
10.045000
 20
48.934000
 21
48.701000
  0
LINE
 10
10.045000
 11
10.774000
 20
48.701000
 21
47.528000
  0
LINE
 10
10.774000
 11
12.075000
 20
47.528000
 21
46.016000
  0
LINE
 10
12.075000
 11
13.943000
 20
46.016000
 21
44.427000
  0
LINE
 10
13.943000
 11
16.278000
 20
44.427000
 21
42.999000
  0
LINE
 10
16.278000
 11
18.895000
 20
42.999000
 21
41.915000
  0
LINE
 10
18.895000
 11
21.555000
 20
41.915000
 21
41.275000
  0
LINE
 10
21.555000
 11
24.000000
 20
41.275000
 21
41.077000
  0
LINE
 10
24.000000
 11
25.989000
 20
41.077000
 21
41.226000
  0
LINE
 10
25.989000
 11
27.334000
 20
41.226000
 21
41.540000
  0
LINE
 10
27.334000
 11
27.570000
 20
41.540000
 21
41.633000
  0
LINE
 10
27.570000
 11
27.649000
 20
41.633000
 21
41.712000
  0
LINE
 10
27.649000
 11
29.402000
 20
41.712000
 21
42.850000
  0
LINE
 10
29.402000
 11
31.353000
 20
42.850000
 21
43.599000
  0
LINE
 10
31.353000
 11
33.418000
 20
43.599000
 21
43.926000
  0
LINE
 10
33.418000
 11
35.505000
 20
43.926000
 21
43.817000
  0
LINE
 10
35.505000
 11
37.524000
 20
43.817000
 21
43.276000
  0
LINE
 10
37.524000
 11
39.387000
 20
43.276000
 21
42.327000
  0
LINE
 10
39.387000
 11
41.011000
 20
42.327000
 21
41.011000
  0
LINE
 10
41.011000
 11
42.327000
 20
41.011000
 21
39.387000
  0
LINE
 10
42.327000
 11
43.276000
 20
39.387000
 21
37.524000
  0
LINE
 10
43.276000
 11
43.817000
 20
37.524000
 21
35.505000
  0
LINE
 10
43.817000
 11
43.926000
 20
35.505000
 21
33.418000
  0
LINE
 10
43.926000
 11
43.599000
 20
33.418000
 21
31.353000
  0
LINE
 10
43.599000
 11
42.850000
 20
31.353000
 21
29.402000
  0
LINE
 10
42.850000
 11
41.712000
 20
29.402000
 21
27.649000
  0
LINE
 10
41.712000
 11
41.633000
 20
27.649000
 21
27.570000
  0
LINE
 10
41.633000
 11
41.540000
 20
27.570000
 21
27.334000
  0
LINE
 10
41.540000
 11
41.226000
 20
27.334000
 21
25.989000
  0
LINE
 10
41.226000
 11
41.077000
 20
25.989000
 21
24.000000
  0
LINE
 10
41.077000
 11
41.274000
 20
24.000000
 21
21.555000
  0
LINE
 10
41.274000
 11
41.915000
 20
21.555000
 21
18.895000
  0
LINE
 10
41.915000
 11
42.999000
 20
18.895000
 21
16.278000
  0
LINE
 10
42.999000
 11
44.427000
 20
16.278000
 21
13.944000
  0
LINE
 10
44.427000
 11
46.016000
 20
13.944000
 21
12.075000
  0
LINE
 10
46.016000
 11
47.528000
 20
12.075000
 21
10.774000
  0
LINE
 10
47.528000
 11
48.701000
 20
10.774000
 21
10.045000
  0
LINE
 10
48.701000
 11
48.934000
 20
10.045000
 21
9.944000
  0
LINE
 10
48.934000
 11
49.045000
 20
9.944000
 21
9.944000
  0
LINE
 10
49.045000
 11
51.090000
 20
9.944000
 21
9.510000
  0
LINE
 10
51.090000
 11
53.000000
 20
9.510000
 21
8.659000
  0
LINE
 10
53.000000
 11
54.691000
 20
8.659000
 21
7.431000
  0
LINE
 10
54.691000
 11
56.089000
 20
7.431000
 21
5.877000
  0
LINE
 10
56.089000
 11
57.135000
 20
5.877000
 21
4.067000
  0
LINE
 10
57.135000
 11
57.780000
 20
4.067000
 21
2.079000
  0
LINE
 10
57.780000
 11
57.999000
 20
2.079000
 21
0.000000
  0
LINE
 10
57.999000
 11
57.780000
 20
0.000000
 21
-2.079000
  0
LINE
 10
57.780000
 11
57.135000
 20
-2.079000
 21
-4.067000
  0
LINE
 10
57.135000
 11
56.089000
 20
-4.067000
 21
-5.877000
  0
LINE
 10
56.089000
 11
54.691000
 20
-5.877000
 21
-7.431000
  0
LINE
 10
54.691000
 11
53.000000
 20
-7.431000
 21
-8.659000
  0
LINE
 10
53.000000
 11
51.090000
 20
-8.659000
 21
-9.510000
  0
LINE
 10
51.090000
 11
49.045000
 20
-9.510000
 21
-9.944000
  0
LINE
 10
49.045000
 11
48.934000
 20
-9.944000
 21
-9.944000
  0
LINE
 10
48.934000
 11
48.701000
 20
-9.944000
 21
-10.045000
  0
LINE
 10
48.701000
 11
47.528000
 20
-10.045000
 21
-10.774000
  0
LINE
 10
47.528000
 11
46.016000
 20
-10.774000
 21
-12.075000
  0
LINE
 10
46.016000
 11
44.427000
 20
-12.075000
 21
-13.943000
  0
LINE
 10
44.427000
 11
42.999000
 20
-13.943000
 21
-16.278000
  0
LINE
 10
42.999000
 11
41.915000
 20
-16.278000
 21
-18.895000
  0
LINE
 10
41.915000
 11
41.275000
 20
-18.895000
 21
-21.555000
  0
LINE
 10
41.275000
 11
41.077000
 20
-21.555000
 21
-24.000000
  0
LINE
 10
41.077000
 11
41.226000
 20
-24.000000
 21
-25.989000
  0
LINE
 10
41.226000
 11
41.540000
 20
-25.989000
 21
-27.334000
  0
LINE
 10
41.540000
 11
41.633000
 20
-27.334000
 21
-27.570000
  0
LINE
 10
41.633000
 11
41.712000
 20
-27.570000
 21
-27.649000
  0
LINE
 10
41.712000
 11
42.850000
 20
-27.649000
 21
-29.402000
  0
LINE
 10
42.850000
 11
43.599000
 20
-29.402000
 21
-31.353000
  0
LINE
 10
43.599000
 11
43.926000
 20
-31.353000
 21
-33.418000
  0
LINE
 10
43.926000
 11
43.817000
 20
-33.418000
 21
-35.505000
  0
LINE
 10
43.817000
 11
43.276000
 20
-35.505000
 21
-37.524000
  0
LINE
 10
43.276000
 11
42.327000
 20
-37.524000
 21
-39.387000
  0
LINE
 10
42.327000
 11
41.011000
 20
-39.387000
 21
-41.011000
  0
LINE
 10
41.011000
 11
39.387000
 20
-41.011000
 21
-42.327000
  0
LINE
 10
39.387000
 11
37.524000
 20
-42.327000
 21
-43.276000
  0
LINE
 10
37.524000
 11
35.505000
 20
-43.276000
 21
-43.817000
  0
LINE
 10
35.505000
 11
33.418000
 20
-43.817000
 21
-43.926000
  0
LINE
 10
33.418000
 11
31.353000
 20
-43.926000
 21
-43.599000
  0
LINE
 10
31.353000
 11
29.402000
 20
-43.599000
 21
-42.850000
  0
LINE
 10
29.402000
 11
27.649000
 20
-42.850000
 21
-41.712000
  0
LINE
 10
27.649000
 11
27.570000
 20
-41.712000
 21
-41.633000
  0
LINE
 10
27.570000
 11
27.334000
 20
-41.633000
 21
-41.540000
  0
LINE
 10
27.334000
 11
25.989000
 20
-41.540000
 21
-41.226000
  0
LINE
 10
25.989000
 11
24.000000
 20
-41.226000
 21
-41.077000
  0
LINE
 10
24.000000
 11
21.555000
 20
-41.077000
 21
-41.274000
  0
LINE
 10
21.555000
 11
18.895000
 20
-41.274000
 21
-41.915000
  0
LINE
 10
18.895000
 11
16.278000
 20
-41.915000
 21
-42.999000
  0
LINE
 10
16.278000
 11
13.944000
 20
-42.999000
 21
-44.427000
  0
LINE
 10
13.944000
 11
12.075000
 20
-44.427000
 21
-46.016000
  0
LINE
 10
12.075000
 11
10.774000
 20
-46.016000
 21
-47.528000
  0
LINE
 10
10.774000
 11
10.045000
 20
-47.528000
 21
-48.701000
  0
LINE
 10
10.045000
 11
9.944000
 20
-48.701000
 21
-48.934000
  0
LINE
 10
9.944000
 11
9.944000
 20
-48.934000
 21
-49.045000
  0
LINE
 10
9.944000
 11
9.510000
 20
-49.045000
 21
-51.090000
  0
LINE
 10
9.510000
 11
8.659000
 20
-51.090000
 21
-53.000000
  0
LINE
 10
8.659000
 11
7.431000
 20
-53.000000
 21
-54.691000
  0
LINE
 10
7.431000
 11
5.877000
 20
-54.691000
 21
-56.089000
  0
LINE
 10
5.877000
 11
4.067000
 20
-56.089000
 21
-57.135000
  0
LINE
 10
4.067000
 11
2.079000
 20
-57.135000
 21
-57.780000
  0
LINE
 10
2.079000
 11
0.000000
 20
-57.780000
 21
-57.999000
  0
LINE
 10
0.000000
 11
-2.079000
 20
-57.999000
 21
-57.780000
  0
LINE
 10
-2.079000
 11
-4.067000
 20
-57.780000
 21
-57.135000
  0
LINE
 10
-4.067000
 11
-5.877000
 20
-57.135000
 21
-56.089000
  0
LINE
 10
-5.877000
 11
-7.431000
 20
-56.089000
 21
-54.691000
  0
LINE
 10
-7.431000
 11
-8.659000
 20
-54.691000
 21
-53.000000
  0
LINE
 10
-8.659000
 11
-9.510000
 20
-53.000000
 21
-51.090000
  0
LINE
 10
-9.510000
 11
-9.944000
 20
-51.090000
 21
-49.045000
  0
LINE
 10
-9.944000
 11
-9.944000
 20
-49.045000
 21
-48.934000
  0
LINE
 10
-9.944000
 11
-10.045000
 20
-48.934000
 21
-48.701000
  0
LINE
 10
-10.045000
 11
-10.774000
 20
-48.701000
 21
-47.528000
  0
LINE
 10
-10.774000
 11
-12.075000
 20
-47.528000
 21
-46.016000
  0
LINE
 10
-12.075000
 11
-13.943000
 20
-46.016000
 21
-44.427000
  0
LINE
 10
-13.943000
 11
-16.278000
 20
-44.427000
 21
-42.999000
  0
LINE
 10
-16.278000
 11
-18.895000
 20
-42.999000
 21
-41.915000
  0
LINE
 10
-18.895000
 11
-21.555000
 20
-41.915000
 21
-41.275000
  0
LINE
 10
-21.555000
 11
-24.000000
 20
-41.275000
 21
-41.077000
  0
LINE
 10
-24.000000
 11
-25.989000
 20
-41.077000
 21
-41.226000
  0
LINE
 10
-25.989000
 11
-27.334000
 20
-41.226000
 21
-41.540000
  0
LINE
 10
-27.334000
 11
-27.570000
 20
-41.540000
 21
-41.633000
  0
LINE
 10
-27.570000
 11
-27.649000
 20
-41.633000
 21
-41.712000
  0
LINE
 10
-27.649000
 11
-29.402000
 20
-41.712000
 21
-42.850000
  0
LINE
 10
-29.402000
 11
-31.353000
 20
-42.850000
 21
-43.599000
  0
LINE
 10
-31.353000
 11
-33.418000
 20
-43.599000
 21
-43.926000
  0
LINE
 10
-33.418000
 11
-35.505000
 20
-43.926000
 21
-43.817000
  0
LINE
 10
-35.505000
 11
-37.524000
 20
-43.817000
 21
-43.276000
  0
LINE
 10
-37.524000
 11
-39.387000
 20
-43.276000
 21
-42.327000
  0
LINE
 10
-39.387000
 11
-41.011000
 20
-42.327000
 21
-41.011000
  0
LINE
 10
-41.011000
 11
-42.327000
 20
-41.011000
 21
-39.387000
  0
LINE
 10
-42.327000
 11
-43.276000
 20
-39.387000
 21
-37.524000
  0
LINE
 10
-43.276000
 11
-43.817000
 20
-37.524000
 21
-35.505000
  0
LINE
 10
-43.817000
 11
-43.926000
 20
-35.505000
 21
-33.418000
  0
LINE
 10
-43.926000
 11
-43.599000
 20
-33.418000
 21
-31.353000
  0
LINE
 10
-43.599000
 11
-42.850000
 20
-31.353000
 21
-29.402000
  0
LINE
 10
-42.850000
 11
-41.712000
 20
-29.402000
 21
-27.649000
  0
LINE
 10
-41.712000
 11
-41.633000
 20
-27.649000
 21
-27.570000
  0
LINE
 10
-41.633000
 11
-41.540000
 20
-27.570000
 21
-27.334000
  0
LINE
 10
-41.540000
 11
-41.226000
 20
-27.334000
 21
-25.989000
  0
LINE
 10
-41.226000
 11
-41.077000
 20
-25.989000
 21
-24.000000
  0
LINE
 10
-41.077000
 11
-41.274000
 20
-24.000000
 21
-21.555000
  0
LINE
 10
-41.274000
 11
-41.915000
 20
-21.555000
 21
-18.895000
  0
LINE
 10
-41.915000
 11
-42.999000
 20
-18.895000
 21
-16.278000
  0
LINE
 10
-42.999000
 11
-44.427000
 20
-16.278000
 21
-13.944000
  0
LINE
 10
-44.427000
 11
-46.016000
 20
-13.944000
 21
-12.075000
  0
LINE
 10
-46.016000
 11
-47.528000
 20
-12.075000
 21
-10.774000
  0
LINE
 10
-47.528000
 11
-48.701000
 20
-10.774000
 21
-10.045000
  0
LINE
 10
-48.701000
 11
-48.934000
 20
-10.045000
 21
-9.944000
  0
LINE
 10
-48.934000
 11
-49.045000
 20
-9.944000
 21
-9.944000
  0
LINE
 10
-49.045000
 11
-51.090000
 20
-9.944000
 21
-9.510000
  0
LINE
 10
-51.090000
 11
-53.000000
 20
-9.510000
 21
-8.659000
  0
LINE
 10
-53.000000
 11
-54.691000
 20
-8.659000
 21
-7.431000
  0
LINE
 10
-54.691000
 11
-56.089000
 20
-7.431000
 21
-5.877000
  0
LINE
 10
-56.089000
 11
-57.135000
 20
-5.877000
 21
-4.067000
  0
LINE
 10
-57.135000
 11
-57.780000
 20
-4.067000
 21
-2.079000
  0
LINE
 10
-57.780000
 11
-57.999000
 20
-2.079000
 21
0.000000
  0
LINE
 10
-43.000000
 11
-42.760000
 20
0.000000
 21
2.287000
  0
LINE
 10
-42.760000
 11
-42.049000
 20
2.287000
 21
4.474000
  0
LINE
 10
-42.049000
 11
-40.899000
 20
4.474000
 21
6.466000
  0
LINE
 10
-40.899000
 11
-39.360000
 20
6.466000
 21
8.175000
  0
LINE
 10
-39.360000
 11
-37.500000
 20
8.175000
 21
9.526000
  0
LINE
 10
-37.500000
 11
-35.399000
 20
9.526000
 21
10.462000
  0
LINE
 10
-35.399000
 11
-33.150000
 20
10.462000
 21
10.940000
  0
LINE
 10
-33.150000
 11
-30.850000
 20
10.940000
 21
10.940000
  0
LINE
 10
-30.850000
 11
-28.601000
 20
10.940000
 21
10.462000
  0
LINE
 10
-28.601000
 11
-26.500000
 20
10.462000
 21
9.526000
  0
LINE
 10
-26.500000
 11
-24.640000
 20
9.526000
 21
8.175000
  0
LINE
 10
-24.640000
 11
-23.101000
 20
8.175000
 21
6.466000
  0
LINE
 10
-23.101000
 11
-21.951000
 20
6.466000
 21
4.474000
  0
LINE
 10
-21.951000
 11
-21.240000
 20
4.474000
 21
2.287000
  0
LINE
 10
-21.240000
 11
-21.000000
 20
2.287000
 21
0.000000
  0
LINE
 10
-21.000000
 11
-21.240000
 20
0.000000
 21
-2.287000
  0
LINE
 10
-21.240000
 11
-21.951000
 20
-2.287000
 21
-4.474000
  0
LINE
 10
-21.951000
 11
-23.101000
 20
-4.474000
 21
-6.466000
  0
LINE
 10
-23.101000
 11
-24.640000
 20
-6.466000
 21
-8.175000
  0
LINE
 10
-24.640000
 11
-26.500000
 20
-8.175000
 21
-9.526000
  0
LINE
 10
-26.500000
 11
-28.601000
 20
-9.526000
 21
-10.462000
  0
LINE
 10
-28.601000
 11
-30.850000
 20
-10.462000
 21
-10.940000
  0
LINE
 10
-30.850000
 11
-33.150000
 20
-10.940000
 21
-10.940000
  0
LINE
 10
-33.150000
 11
-35.399000
 20
-10.940000
 21
-10.462000
  0
LINE
 10
-35.399000
 11
-37.500000
 20
-10.462000
 21
-9.526000
  0
LINE
 10
-37.500000
 11
-39.360000
 20
-9.526000
 21
-8.175000
  0
LINE
 10
-39.360000
 11
-40.899000
 20
-8.175000
 21
-6.466000
  0
LINE
 10
-40.899000
 11
-42.049000
 20
-6.466000
 21
-4.474000
  0
LINE
 10
-42.049000
 11
-42.760000
 20
-4.474000
 21
-2.287000
  0
LINE
 10
-42.760000
 11
-43.000000
 20
-2.287000
 21
0.000000
  0
LINE
 10
-16.000000
 11
-15.650000
 20
0.000000
 21
3.327000
  0
LINE
 10
-15.650000
 11
-14.617000
 20
3.327000
 21
6.508000
  0
LINE
 10
-14.617000
 11
-12.944000
 20
6.508000
 21
9.405000
  0
LINE
 10
-12.944000
 11
-10.706000
 20
9.405000
 21
11.890000
  0
LINE
 10
-10.706000
 11
-8.000000
 20
11.890000
 21
13.856000
  0
LINE
 10
-8.000000
 11
-4.944000
 20
13.856000
 21
15.217000
  0
LINE
 10
-4.944000
 11
-1.672000
 20
15.217000
 21
15.912000
  0
LINE
 10
-1.672000
 11
1.672000
 20
15.912000
 21
15.912000
  0
LINE
 10
1.672000
 11
4.944000
 20
15.912000
 21
15.217000
  0
LINE
 10
4.944000
 11
8.000000
 20
15.217000
 21
13.856000
  0
LINE
 10
8.000000
 11
10.706000
 20
13.856000
 21
11.890000
  0
LINE
 10
10.706000
 11
12.944000
 20
11.890000
 21
9.405000
  0
LINE
 10
12.944000
 11
14.617000
 20
9.405000
 21
6.508000
  0
LINE
 10
14.617000
 11
15.650000
 20
6.508000
 21
3.327000
  0
LINE
 10
15.650000
 11
16.000000
 20
3.327000
 21
0.000000
  0
LINE
 10
16.000000
 11
15.650000
 20
0.000000
 21
-3.327000
  0
LINE
 10
15.650000
 11
14.617000
 20
-3.327000
 21
-6.508000
  0
LINE
 10
14.617000
 11
12.944000
 20
-6.508000
 21
-9.405000
  0
LINE
 10
12.944000
 11
10.706000
 20
-9.405000
 21
-11.890000
  0
LINE
 10
10.706000
 11
8.000000
 20
-11.890000
 21
-13.856000
  0
LINE
 10
8.000000
 11
4.944000
 20
-13.856000
 21
-15.217000
  0
LINE
 10
4.944000
 11
1.672000
 20
-15.217000
 21
-15.912000
  0
LINE
 10
1.672000
 11
-1.672000
 20
-15.912000
 21
-15.912000
  0
LINE
 10
-1.672000
 11
-4.944000
 20
-15.912000
 21
-15.217000
  0
LINE
 10
-4.944000
 11
-8.000000
 20
-15.217000
 21
-13.856000
  0
LINE
 10
-8.000000
 11
-10.706000
 20
-13.856000
 21
-11.890000
  0
LINE
 10
-10.706000
 11
-12.944000
 20
-11.890000
 21
-9.405000
  0
LINE
 10
-12.944000
 11
-14.617000
 20
-9.405000
 21
-6.508000
  0
LINE
 10
-14.617000
 11
-15.650000
 20
-6.508000
 21
-3.327000
  0
LINE
 10
-15.650000
 11
-16.000000
 20
-3.327000
 21
0.000000
  0
LINE
 10
-10.940000
 11
-10.940000
 20
-33.150000
 21
-30.850000
  0
LINE
 10
-10.940000
 11
-10.462000
 20
-30.850000
 21
-28.601000
  0
LINE
 10
-10.462000
 11
-9.526000
 20
-28.601000
 21
-26.500000
  0
LINE
 10
-9.526000
 11
-8.175000
 20
-26.500000
 21
-24.640000
  0
LINE
 10
-8.175000
 11
-6.466000
 20
-24.640000
 21
-23.101000
  0
LINE
 10
-6.466000
 11
-4.474000
 20
-23.101000
 21
-21.951000
  0
LINE
 10
-4.474000
 11
-2.287000
 20
-21.951000
 21
-21.240000
  0
LINE
 10
-2.287000
 11
0.000000
 20
-21.240000
 21
-21.000000
  0
LINE
 10
0.000000
 11
2.287000
 20
-21.000000
 21
-21.240000
  0
LINE
 10
2.287000
 11
4.474000
 20
-21.240000
 21
-21.951000
  0
LINE
 10
4.474000
 11
6.466000
 20
-21.951000
 21
-23.101000
  0
LINE
 10
6.466000
 11
8.175000
 20
-23.101000
 21
-24.640000
  0
LINE
 10
8.175000
 11
9.526000
 20
-24.640000
 21
-26.500000
  0
LINE
 10
9.526000
 11
10.462000
 20
-26.500000
 21
-28.601000
  0
LINE
 10
10.462000
 11
10.940000
 20
-28.601000
 21
-30.850000
  0
LINE
 10
10.940000
 11
10.940000
 20
-30.850000
 21
-33.150000
  0
LINE
 10
10.940000
 11
10.462000
 20
-33.150000
 21
-35.399000
  0
LINE
 10
10.462000
 11
9.526000
 20
-35.399000
 21
-37.500000
  0
LINE
 10
9.526000
 11
8.175000
 20
-37.500000
 21
-39.360000
  0
LINE
 10
8.175000
 11
6.466000
 20
-39.360000
 21
-40.899000
  0
LINE
 10
6.466000
 11
4.474000
 20
-40.899000
 21
-42.049000
  0
LINE
 10
4.474000
 11
2.287000
 20
-42.049000
 21
-42.760000
  0
LINE
 10
2.287000
 11
0.000000
 20
-42.760000
 21
-43.000000
  0
LINE
 10
0.000000
 11
-2.287000
 20
-43.000000
 21
-42.760000
  0
LINE
 10
-2.287000
 11
-4.474000
 20
-42.760000
 21
-42.049000
  0
LINE
 10
-4.474000
 11
-6.466000
 20
-42.049000
 21
-40.899000
  0
LINE
 10
-6.466000
 11
-8.175000
 20
-40.899000
 21
-39.360000
  0
LINE
 10
-8.175000
 11
-9.526000
 20
-39.360000
 21
-37.500000
  0
LINE
 10
-9.526000
 11
-10.462000
 20
-37.500000
 21
-35.399000
  0
LINE
 10
-10.462000
 11
-10.940000
 20
-35.399000
 21
-33.150000
  0
LINE
 10
-10.940000
 11
-10.940000
 20
30.850000
 21
33.150000
  0
LINE
 10
-10.940000
 11
-10.462000
 20
33.150000
 21
35.399000
  0
LINE
 10
-10.462000
 11
-9.526000
 20
35.399000
 21
37.500000
  0
LINE
 10
-9.526000
 11
-8.175000
 20
37.500000
 21
39.360000
  0
LINE
 10
-8.175000
 11
-6.466000
 20
39.360000
 21
40.899000
  0
LINE
 10
-6.466000
 11
-4.474000
 20
40.899000
 21
42.049000
  0
LINE
 10
-4.474000
 11
-2.287000
 20
42.049000
 21
42.760000
  0
LINE
 10
-2.287000
 11
0.000000
 20
42.760000
 21
43.000000
  0
LINE
 10
0.000000
 11
2.287000
 20
43.000000
 21
42.760000
  0
LINE
 10
2.287000
 11
4.474000
 20
42.760000
 21
42.049000
  0
LINE
 10
4.474000
 11
6.466000
 20
42.049000
 21
40.899000
  0
LINE
 10
6.466000
 11
8.175000
 20
40.899000
 21
39.360000
  0
LINE
 10
8.175000
 11
9.526000
 20
39.360000
 21
37.500000
  0
LINE
 10
9.526000
 11
10.462000
 20
37.500000
 21
35.399000
  0
LINE
 10
10.462000
 11
10.940000
 20
35.399000
 21
33.150000
  0
LINE
 10
10.940000
 11
10.940000
 20
33.150000
 21
30.850000
  0
LINE
 10
10.940000
 11
10.462000
 20
30.850000
 21
28.601000
  0
LINE
 10
10.462000
 11
9.526000
 20
28.601000
 21
26.500000
  0
LINE
 10
9.526000
 11
8.175000
 20
26.500000
 21
24.640000
  0
LINE
 10
8.175000
 11
6.466000
 20
24.640000
 21
23.101000
  0
LINE
 10
6.466000
 11
4.474000
 20
23.101000
 21
21.951000
  0
LINE
 10
4.474000
 11
2.287000
 20
21.951000
 21
21.240000
  0
LINE
 10
2.287000
 11
0.000000
 20
21.240000
 21
21.000000
  0
LINE
 10
0.000000
 11
-2.287000
 20
21.000000
 21
21.240000
  0
LINE
 10
-2.287000
 11
-4.474000
 20
21.240000
 21
21.951000
  0
LINE
 10
-4.474000
 11
-6.466000
 20
21.951000
 21
23.101000
  0
LINE
 10
-6.466000
 11
-8.175000
 20
23.101000
 21
24.640000
  0
LINE
 10
-8.175000
 11
-9.526000
 20
24.640000
 21
26.500000
  0
LINE
 10
-9.526000
 11
-10.462000
 20
26.500000
 21
28.601000
  0
LINE
 10
-10.462000
 11
-10.940000
 20
28.601000
 21
30.850000
  0
LINE
 10
21.000000
 11
21.240000
 20
0.000000
 21
2.287000
  0
LINE
 10
21.240000
 11
21.951000
 20
2.287000
 21
4.474000
  0
LINE
 10
21.951000
 11
23.101000
 20
4.474000
 21
6.466000
  0
LINE
 10
23.101000
 11
24.640000
 20
6.466000
 21
8.175000
  0
LINE
 10
24.640000
 11
26.500000
 20
8.175000
 21
9.526000
  0
LINE
 10
26.500000
 11
28.601000
 20
9.526000
 21
10.462000
  0
LINE
 10
28.601000
 11
30.850000
 20
10.462000
 21
10.940000
  0
LINE
 10
30.850000
 11
33.150000
 20
10.940000
 21
10.940000
  0
LINE
 10
33.150000
 11
35.399000
 20
10.940000
 21
10.462000
  0
LINE
 10
35.399000
 11
37.500000
 20
10.462000
 21
9.526000
  0
LINE
 10
37.500000
 11
39.360000
 20
9.526000
 21
8.175000
  0
LINE
 10
39.360000
 11
40.899000
 20
8.175000
 21
6.466000
  0
LINE
 10
40.899000
 11
42.049000
 20
6.466000
 21
4.474000
  0
LINE
 10
42.049000
 11
42.760000
 20
4.474000
 21
2.287000
  0
LINE
 10
42.760000
 11
43.000000
 20
2.287000
 21
0.000000
  0
LINE
 10
43.000000
 11
42.760000
 20
0.000000
 21
-2.287000
  0
LINE
 10
42.760000
 11
42.049000
 20
-2.287000
 21
-4.474000
  0
LINE
 10
42.049000
 11
40.899000
 20
-4.474000
 21
-6.466000
  0
LINE
 10
40.899000
 11
39.360000
 20
-6.466000
 21
-8.175000
  0
LINE
 10
39.360000
 11
37.500000
 20
-8.175000
 21
-9.526000
  0
LINE
 10
37.500000
 11
35.399000
 20
-9.526000
 21
-10.462000
  0
LINE
 10
35.399000
 11
33.150000
 20
-10.462000
 21
-10.940000
  0
LINE
 10
33.150000
 11
30.850000
 20
-10.940000
 21
-10.940000
  0
LINE
 10
30.850000
 11
28.601000
 20
-10.940000
 21
-10.462000
  0
LINE
 10
28.601000
 11
26.500000
 20
-10.462000
 21
-9.526000
  0
LINE
 10
26.500000
 11
24.640000
 20
-9.526000
 21
-8.175000
  0
LINE
 10
24.640000
 11
23.101000
 20
-8.175000
 21
-6.466000
  0
LINE
 10
23.101000
 11
21.951000
 20
-6.466000
 21
-4.474000
  0
LINE
 10
21.951000
 11
21.240000
 20
-4.474000
 21
-2.287000
  0
LINE
 10
21.240000
 11
21.000000
 20
-2.287000
 21
0.000000
  0
ENDSEC
  0
EOF
