  0
SECTION
  2
ENTITIES
  0
LINE
 10
-70.000000
 11
-68.470000
 20
0.000000
 21
14.554000
  0
LINE
 10
-68.470000
 11
-63.948000
 20
14.554000
 21
28.472000
  0
LINE
 10
-63.948000
 11
-56.631000
 20
28.472000
 21
41.145000
  0
LINE
 10
-56.631000
 11
-46.839000
 20
41.145000
 21
52.020000
  0
LINE
 10
-46.839000
 11
-35.000000
 20
52.020000
 21
60.622000
  0
LINE
 10
-35.000000
 11
-21.631000
 20
60.622000
 21
66.574000
  0
LINE
 10
-21.631000
 11
-7.317000
 20
66.574000
 21
69.617000
  0
LINE
 10
-7.317000
 11
7.317000
 20
69.617000
 21
69.617000
  0
LINE
 10
7.317000
 11
21.631000
 20
69.617000
 21
66.574000
  0
LINE
 10
21.631000
 11
35.000000
 20
66.574000
 21
60.622000
  0
LINE
 10
35.000000
 11
46.839000
 20
60.622000
 21
52.020000
  0
LINE
 10
46.839000
 11
56.631000
 20
52.020000
 21
41.145000
  0
LINE
 10
56.631000
 11
63.948000
 20
41.145000
 21
28.472000
  0
LINE
 10
63.948000
 11
68.470000
 20
28.472000
 21
14.554000
  0
LINE
 10
68.470000
 11
70.000000
 20
14.554000
 21
0.000000
  0
LINE
 10
70.000000
 11
68.470000
 20
0.000000
 21
-14.554000
  0
LINE
 10
68.470000
 11
63.948000
 20
-14.554000
 21
-28.472000
  0
LINE
 10
63.948000
 11
56.631000
 20
-28.472000
 21
-41.145000
  0
LINE
 10
56.631000
 11
46.839000
 20
-41.145000
 21
-52.020000
  0
LINE
 10
46.839000
 11
35.000000
 20
-52.020000
 21
-60.622000
  0
LINE
 10
35.000000
 11
21.631000
 20
-60.622000
 21
-66.574000
  0
LINE
 10
21.631000
 11
7.317000
 20
-66.574000
 21
-69.617000
  0
LINE
 10
7.317000
 11
-7.317000
 20
-69.617000
 21
-69.617000
  0
LINE
 10
-7.317000
 11
-21.631000
 20
-69.617000
 21
-66.574000
  0
LINE
 10
-21.631000
 11
-35.000000
 20
-66.574000
 21
-60.622000
  0
LINE
 10
-35.000000
 11
-46.839000
 20
-60.622000
 21
-52.020000
  0
LINE
 10
-46.839000
 11
-56.631000
 20
-52.020000
 21
-41.145000
  0
LINE
 10
-56.631000
 11
-63.948000
 20
-41.145000
 21
-28.472000
  0
LINE
 10
-63.948000
 11
-68.470000
 20
-28.472000
 21
-14.554000
  0
LINE
 10
-68.470000
 11
-70.000000
 20
-14.554000
 21
0.000000
  0
LINE
 10
-64.000000
 11
-63.956000
 20
0.000000
 21
0.416000
  0
LINE
 10
-63.956000
 11
-63.827000
 20
0.416000
 21
0.813000
  0
LINE
 10
-63.827000
 11
-63.618000
 20
0.813000
 21
1.176000
  0
LINE
 10
-63.618000
 11
-63.338000
 20
1.176000
 21
1.486000
  0
LINE
 10
-63.338000
 11
-63.000000
 20
1.486000
 21
1.732000
  0
LINE
 10
-63.000000
 11
-62.618000
 20
1.732000
 21
1.902000
  0
LINE
 10
-62.618000
 11
-62.209000
 20
1.902000
 21
1.989000
  0
LINE
 10
-62.209000
 11
-61.791000
 20
1.989000
 21
1.989000
  0
LINE
 10
-61.791000
 11
-61.382000
 20
1.989000
 21
1.902000
  0
LINE
 10
-61.382000
 11
-61.000000
 20
1.902000
 21
1.732000
  0
LINE
 10
-61.000000
 11
-60.662000
 20
1.732000
 21
1.486000
  0
LINE
 10
-60.662000
 11
-60.382000
 20
1.486000
 21
1.176000
  0
LINE
 10
-60.382000
 11
-60.173000
 20
1.176000
 21
0.813000
  0
LINE
 10
-60.173000
 11
-60.044000
 20
0.813000
 21
0.416000
  0
LINE
 10
-60.044000
 11
-60.000000
 20
0.416000
 21
0.000000
  0
LINE
 10
-60.000000
 11
-60.044000
 20
0.000000
 21
-0.416000
  0
LINE
 10
-60.044000
 11
-60.173000
 20
-0.416000
 21
-0.813000
  0
LINE
 10
-60.173000
 11
-60.382000
 20
-0.813000
 21
-1.176000
  0
LINE
 10
-60.382000
 11
-60.662000
 20
-1.176000
 21
-1.486000
  0
LINE
 10
-60.662000
 11
-61.000000
 20
-1.486000
 21
-1.732000
  0
LINE
 10
-61.000000
 11
-61.382000
 20
-1.732000
 21
-1.902000
  0
LINE
 10
-61.382000
 11
-61.791000
 20
-1.902000
 21
-1.989000
  0
LINE
 10
-61.791000
 11
-62.209000
 20
-1.989000
 21
-1.989000
  0
LINE
 10
-62.209000
 11
-62.618000
 20
-1.989000
 21
-1.902000
  0
LINE
 10
-62.618000
 11
-63.000000
 20
-1.902000
 21
-1.732000
  0
LINE
 10
-63.000000
 11
-63.338000
 20
-1.732000
 21
-1.486000
  0
LINE
 10
-63.338000
 11
-63.618000
 20
-1.486000
 21
-1.176000
  0
LINE
 10
-63.618000
 11
-63.827000
 20
-1.176000
 21
-0.813000
  0
LINE
 10
-63.827000
 11
-63.956000
 20
-0.813000
 21
-0.416000
  0
LINE
 10
-63.956000
 11
-64.000000
 20
-0.416000
 21
0.000000
  0
LINE
 10
-49.490000
 11
-49.475000
 20
-39.992000
 21
-39.574000
  0
LINE
 10
-49.475000
 11
-49.374000
 20
-39.574000
 21
-39.169000
  0
LINE
 10
-49.374000
 11
-49.191000
 20
-39.169000
 21
-38.793000
  0
LINE
 10
-49.191000
 11
-48.933000
 20
-38.793000
 21
-38.464000
  0
LINE
 10
-48.933000
 11
-48.613000
 20
-38.464000
 21
-38.195000
  0
LINE
 10
-48.613000
 11
-48.244000
 20
-38.195000
 21
-37.998000
  0
LINE
 10
-48.244000
 11
-47.842000
 20
-37.998000
 21
-37.883000
  0
LINE
 10
-47.842000
 11
-47.425000
 20
-37.883000
 21
-37.854000
  0
LINE
 10
-47.425000
 11
-47.011000
 20
-37.854000
 21
-37.912000
  0
LINE
 10
-47.011000
 11
-46.618000
 20
-37.912000
 21
-38.055000
  0
LINE
 10
-46.618000
 11
-46.263000
 20
-38.055000
 21
-38.277000
  0
LINE
 10
-46.263000
 11
-45.963000
 20
-38.277000
 21
-38.567000
  0
LINE
 10
-45.963000
 11
-45.729000
 20
-38.567000
 21
-38.914000
  0
LINE
 10
-45.729000
 11
-45.572000
 20
-38.914000
 21
-39.302000
  0
LINE
 10
-45.572000
 11
-45.500000
 20
-39.302000
 21
-39.713000
  0
LINE
 10
-45.500000
 11
-45.514000
 20
-39.713000
 21
-40.131000
  0
LINE
 10
-45.514000
 11
-45.615000
 20
-40.131000
 21
-40.537000
  0
LINE
 10
-45.615000
 11
-45.799000
 20
-40.537000
 21
-40.913000
  0
LINE
 10
-45.799000
 11
-46.056000
 20
-40.913000
 21
-41.242000
  0
LINE
 10
-46.056000
 11
-46.376000
 20
-41.242000
 21
-41.511000
  0
LINE
 10
-46.376000
 11
-46.746000
 20
-41.511000
 21
-41.707000
  0
LINE
 10
-46.746000
 11
-47.147000
 20
-41.707000
 21
-41.822000
  0
LINE
 10
-47.147000
 11
-47.565000
 20
-41.822000
 21
-41.852000
  0
LINE
 10
-47.565000
 11
-47.979000
 20
-41.852000
 21
-41.793000
  0
LINE
 10
-47.979000
 11
-48.371000
 20
-41.793000
 21
-41.650000
  0
LINE
 10
-48.371000
 11
-48.726000
 20
-41.650000
 21
-41.429000
  0
LINE
 10
-48.726000
 11
-49.027000
 20
-41.429000
 21
-41.138000
  0
LINE
 10
-49.027000
 11
-49.261000
 20
-41.138000
 21
-40.792000
  0
LINE
 10
-49.261000
 11
-49.417000
 20
-40.792000
 21
-40.404000
  0
LINE
 10
-49.417000
 11
-49.490000
 20
-40.404000
 21
-39.992000
  0
LINE
 10
-49.490000
 11
-49.417000
 20
39.992000
 21
40.404000
  0
LINE
 10
-49.417000
 11
-49.261000
 20
40.404000
 21
40.792000
  0
LINE
 10
-49.261000
 11
-49.027000
 20
40.792000
 21
41.138000
  0
LINE
 10
-49.027000
 11
-48.726000
 20
41.138000
 21
41.429000
  0
LINE
 10
-48.726000
 11
-48.371000
 20
41.429000
 21
41.650000
  0
LINE
 10
-48.371000
 11
-47.979000
 20
41.650000
 21
41.793000
  0
LINE
 10
-47.979000
 11
-47.565000
 20
41.793000
 21
41.852000
  0
LINE
 10
-47.565000
 11
-47.147000
 20
41.852000
 21
41.822000
  0
LINE
 10
-47.147000
 11
-46.746000
 20
41.822000
 21
41.707000
  0
LINE
 10
-46.746000
 11
-46.376000
 20
41.707000
 21
41.511000
  0
LINE
 10
-46.376000
 11
-46.056000
 20
41.511000
 21
41.242000
  0
LINE
 10
-46.056000
 11
-45.799000
 20
41.242000
 21
40.913000
  0
LINE
 10
-45.799000
 11
-45.615000
 20
40.913000
 21
40.537000
  0
LINE
 10
-45.615000
 11
-45.514000
 20
40.537000
 21
40.131000
  0
LINE
 10
-45.514000
 11
-45.500000
 20
40.131000
 21
39.713000
  0
LINE
 10
-45.500000
 11
-45.572000
 20
39.713000
 21
39.302000
  0
LINE
 10
-45.572000
 11
-45.729000
 20
39.302000
 21
38.914000
  0
LINE
 10
-45.729000
 11
-45.963000
 20
38.914000
 21
38.567000
  0
LINE
 10
-45.963000
 11
-46.263000
 20
38.567000
 21
38.277000
  0
LINE
 10
-46.263000
 11
-46.618000
 20
38.277000
 21
38.055000
  0
LINE
 10
-46.618000
 11
-47.011000
 20
38.055000
 21
37.912000
  0
LINE
 10
-47.011000
 11
-47.425000
 20
37.912000
 21
37.854000
  0
LINE
 10
-47.425000
 11
-47.842000
 20
37.854000
 21
37.883000
  0
LINE
 10
-47.842000
 11
-48.244000
 20
37.883000
 21
37.998000
  0
LINE
 10
-48.244000
 11
-48.613000
 20
37.998000
 21
38.195000
  0
LINE
 10
-48.613000
 11
-48.933000
 20
38.195000
 21
38.464000
  0
LINE
 10
-48.933000
 11
-49.191000
 20
38.464000
 21
38.793000
  0
LINE
 10
-49.191000
 11
-49.374000
 20
38.793000
 21
39.169000
  0
LINE
 10
-49.374000
 11
-49.475000
 20
39.169000
 21
39.574000
  0
LINE
 10
-49.475000
 11
-49.490000
 20
39.574000
 21
39.992000
  0
LINE
 10
-12.761000
 11
-12.689000
 20
-60.919000
 21
-60.507000
  0
LINE
 10
-12.689000
 11
-12.532000
 20
-60.507000
 21
-60.119000
  0
LINE
 10
-12.532000
 11
-12.298000
 20
-60.119000
 21
-59.773000
  0
LINE
 10
-12.298000
 11
-11.998000
 20
-59.773000
 21
-59.482000
  0
LINE
 10
-11.998000
 11
-11.643000
 20
-59.482000
 21
-59.260000
  0
LINE
 10
-11.643000
 11
-11.250000
 20
-59.260000
 21
-59.117000
  0
LINE
 10
-11.250000
 11
-10.836000
 20
-59.117000
 21
-59.059000
  0
LINE
 10
-10.836000
 11
-10.419000
 20
-59.059000
 21
-59.088000
  0
LINE
 10
-10.419000
 11
-10.017000
 20
-59.088000
 21
-59.204000
  0
LINE
 10
-10.017000
 11
-9.648000
 20
-59.204000
 21
-59.400000
  0
LINE
 10
-9.648000
 11
-9.328000
 20
-59.400000
 21
-59.669000
  0
LINE
 10
-9.328000
 11
-9.070000
 20
-59.669000
 21
-59.998000
  0
LINE
 10
-9.070000
 11
-8.887000
 20
-59.998000
 21
-60.374000
  0
LINE
 10
-8.887000
 11
-8.786000
 20
-60.374000
 21
-60.780000
  0
LINE
 10
-8.786000
 11
-8.771000
 20
-60.780000
 21
-61.198000
  0
LINE
 10
-8.771000
 11
-8.844000
 20
-61.198000
 21
-61.609000
  0
LINE
 10
-8.844000
 11
-9.000000
 20
-61.609000
 21
-61.997000
  0
LINE
 10
-9.000000
 11
-9.234000
 20
-61.997000
 21
-62.344000
  0
LINE
 10
-9.234000
 11
-9.535000
 20
-62.344000
 21
-62.634000
  0
LINE
 10
-9.535000
 11
-9.889000
 20
-62.634000
 21
-62.856000
  0
LINE
 10
-9.889000
 11
-10.282000
 20
-62.856000
 21
-62.999000
  0
LINE
 10
-10.282000
 11
-10.696000
 20
-62.999000
 21
-63.057000
  0
LINE
 10
-10.696000
 11
-11.113000
 20
-63.057000
 21
-63.028000
  0
LINE
 10
-11.113000
 11
-11.515000
 20
-63.028000
 21
-62.912000
  0
LINE
 10
-11.515000
 11
-11.885000
 20
-62.912000
 21
-62.716000
  0
LINE
 10
-11.885000
 11
-12.205000
 20
-62.716000
 21
-62.447000
  0
LINE
 10
-12.205000
 11
-12.462000
 20
-62.447000
 21
-62.118000
  0
LINE
 10
-12.462000
 11
-12.646000
 20
-62.118000
 21
-61.742000
  0
LINE
 10
-12.646000
 11
-12.747000
 20
-61.742000
 21
-61.336000
  0
LINE
 10
-12.747000
 11
-12.761000
 20
-61.336000
 21
-60.919000
  0
LINE
 10
-12.761000
 11
-12.747000
 20
60.919000
 21
61.336000
  0
LINE
 10
-12.747000
 11
-12.646000
 20
61.336000
 21
61.742000
  0
LINE
 10
-12.646000
 11
-12.462000
 20
61.742000
 21
62.118000
  0
LINE
 10
-12.462000
 11
-12.205000
 20
62.118000
 21
62.447000
  0
LINE
 10
-12.205000
 11
-11.885000
 20
62.447000
 21
62.716000
  0
LINE
 10
-11.885000
 11
-11.515000
 20
62.716000
 21
62.912000
  0
LINE
 10
-11.515000
 11
-11.113000
 20
62.912000
 21
63.028000
  0
LINE
 10
-11.113000
 11
-10.696000
 20
63.028000
 21
63.057000
  0
LINE
 10
-10.696000
 11
-10.282000
 20
63.057000
 21
62.999000
  0
LINE
 10
-10.282000
 11
-9.889000
 20
62.999000
 21
62.856000
  0
LINE
 10
-9.889000
 11
-9.535000
 20
62.856000
 21
62.634000
  0
LINE
 10
-9.535000
 11
-9.234000
 20
62.634000
 21
62.344000
  0
LINE
 10
-9.234000
 11
-9.000000
 20
62.344000
 21
61.997000
  0
LINE
 10
-9.000000
 11
-8.844000
 20
61.997000
 21
61.609000
  0
LINE
 10
-8.844000
 11
-8.771000
 20
61.609000
 21
61.198000
  0
LINE
 10
-8.771000
 11
-8.786000
 20
61.198000
 21
60.780000
  0
LINE
 10
-8.786000
 11
-8.887000
 20
60.780000
 21
60.374000
  0
LINE
 10
-8.887000
 11
-9.070000
 20
60.374000
 21
59.998000
  0
LINE
 10
-9.070000
 11
-9.328000
 20
59.998000
 21
59.669000
  0
LINE
 10
-9.328000
 11
-9.648000
 20
59.669000
 21
59.400000
  0
LINE
 10
-9.648000
 11
-10.017000
 20
59.400000
 21
59.204000
  0
LINE
 10
-10.017000
 11
-10.419000
 20
59.204000
 21
59.088000
  0
LINE
 10
-10.419000
 11
-10.836000
 20
59.088000
 21
59.059000
  0
LINE
 10
-10.836000
 11
-11.250000
 20
59.059000
 21
59.117000
  0
LINE
 10
-11.250000
 11
-11.643000
 20
59.117000
 21
59.260000
  0
LINE
 10
-11.643000
 11
-11.998000
 20
59.260000
 21
59.482000
  0
LINE
 10
-11.998000
 11
-12.298000
 20
59.482000
 21
59.773000
  0
LINE
 10
-12.298000
 11
-12.532000
 20
59.773000
 21
60.119000
  0
LINE
 10
-12.532000
 11
-12.689000
 20
60.119000
 21
60.507000
  0
LINE
 10
-12.689000
 11
-12.761000
 20
60.507000
 21
60.919000
  0
LINE
 10
-8.242000
 11
-8.062000
 20
0.000000
 21
1.714000
  0
LINE
 10
-8.062000
 11
-7.529000
 20
1.714000
 21
3.352000
  0
LINE
 10
-7.529000
 11
-6.668000
 20
3.352000
 21
4.844000
  0
LINE
 10
-6.668000
 11
-5.515000
 20
4.844000
 21
6.125000
  0
LINE
 10
-5.515000
 11
-4.121000
 20
6.125000
 21
7.137000
  0
LINE
 10
-4.121000
 11
-2.547000
 20
7.137000
 21
7.838000
  0
LINE
 10
-2.547000
 11
-0.861000
 20
7.838000
 21
8.196000
  0
LINE
 10
-0.861000
 11
0.861000
 20
8.196000
 21
8.196000
  0
LINE
 10
0.861000
 11
2.547000
 20
8.196000
 21
7.838000
  0
LINE
 10
2.547000
 11
4.121000
 20
7.838000
 21
7.137000
  0
LINE
 10
4.121000
 11
5.515000
 20
7.137000
 21
6.125000
  0
LINE
 10
5.515000
 11
6.668000
 20
6.125000
 21
4.844000
  0
LINE
 10
6.668000
 11
7.529000
 20
4.844000
 21
3.352000
  0
LINE
 10
7.529000
 11
8.062000
 20
3.352000
 21
1.714000
  0
LINE
 10
8.062000
 11
8.242000
 20
1.714000
 21
0.000000
  0
LINE
 10
8.242000
 11
8.062000
 20
0.000000
 21
-1.714000
  0
LINE
 10
8.062000
 11
7.529000
 20
-1.714000
 21
-3.352000
  0
LINE
 10
7.529000
 11
6.668000
 20
-3.352000
 21
-4.844000
  0
LINE
 10
6.668000
 11
5.515000
 20
-4.844000
 21
-6.125000
  0
LINE
 10
5.515000
 11
4.121000
 20
-6.125000
 21
-7.137000
  0
LINE
 10
4.121000
 11
2.547000
 20
-7.137000
 21
-7.838000
  0
LINE
 10
2.547000
 11
0.861000
 20
-7.838000
 21
-8.196000
  0
LINE
 10
0.861000
 11
-0.861000
 20
-8.196000
 21
-8.196000
  0
LINE
 10
-0.861000
 11
-2.547000
 20
-8.196000
 21
-7.838000
  0
LINE
 10
-2.547000
 11
-4.121000
 20
-7.838000
 21
-7.137000
  0
LINE
 10
-4.121000
 11
-5.515000
 20
-7.137000
 21
-6.125000
  0
LINE
 10
-5.515000
 11
-6.668000
 20
-6.125000
 21
-4.844000
  0
LINE
 10
-6.668000
 11
-7.529000
 20
-4.844000
 21
-3.352000
  0
LINE
 10
-7.529000
 11
-8.062000
 20
-3.352000
 21
-1.714000
  0
LINE
 10
-8.062000
 11
-8.242000
 20
-1.714000
 21
0.000000
  0
LINE
 10
29.000000
 11
29.044000
 20
-53.694000
 21
-53.278000
  0
LINE
 10
29.044000
 11
29.173000
 20
-53.278000
 21
-52.880000
  0
LINE
 10
29.173000
 11
29.382000
 20
-52.880000
 21
-52.518000
  0
LINE
 10
29.382000
 11
29.662000
 20
-52.518000
 21
-52.207000
  0
LINE
 10
29.662000
 11
30.000000
 20
-52.207000
 21
-51.962000
  0
LINE
 10
30.000000
 11
30.382000
 20
-51.962000
 21
-51.791000
  0
LINE
 10
30.382000
 11
30.791000
 20
-51.791000
 21
-51.705000
  0
LINE
 10
30.791000
 11
31.209000
 20
-51.705000
 21
-51.705000
  0
LINE
 10
31.209000
 11
31.618000
 20
-51.705000
 21
-51.791000
  0
LINE
 10
31.618000
 11
32.000000
 20
-51.791000
 21
-51.962000
  0
LINE
 10
32.000000
 11
32.338000
 20
-51.962000
 21
-52.207000
  0
LINE
 10
32.338000
 11
32.618000
 20
-52.207000
 21
-52.518000
  0
LINE
 10
32.618000
 11
32.827000
 20
-52.518000
 21
-52.880000
  0
LINE
 10
32.827000
 11
32.956000
 20
-52.880000
 21
-53.278000
  0
LINE
 10
32.956000
 11
33.000000
 20
-53.278000
 21
-53.694000
  0
LINE
 10
33.000000
 11
32.956000
 20
-53.694000
 21
-54.109000
  0
LINE
 10
32.956000
 11
32.827000
 20
-54.109000
 21
-54.507000
  0
LINE
 10
32.827000
 11
32.618000
 20
-54.507000
 21
-54.869000
  0
LINE
 10
32.618000
 11
32.338000
 20
-54.869000
 21
-55.180000
  0
LINE
 10
32.338000
 11
32.000000
 20
-55.180000
 21
-55.426000
  0
LINE
 10
32.000000
 11
31.618000
 20
-55.426000
 21
-55.596000
  0
LINE
 10
31.618000
 11
31.209000
 20
-55.596000
 21
-55.683000
  0
LINE
 10
31.209000
 11
30.791000
 20
-55.683000
 21
-55.683000
  0
LINE
 10
30.791000
 11
30.382000
 20
-55.683000
 21
-55.596000
  0
LINE
 10
30.382000
 11
30.000000
 20
-55.596000
 21
-55.426000
  0
LINE
 10
30.000000
 11
29.662000
 20
-55.426000
 21
-55.180000
  0
LINE
 10
29.662000
 11
29.382000
 20
-55.180000
 21
-54.869000
  0
LINE
 10
29.382000
 11
29.173000
 20
-54.869000
 21
-54.507000
  0
LINE
 10
29.173000
 11
29.044000
 20
-54.507000
 21
-54.109000
  0
LINE
 10
29.044000
 11
29.000000
 20
-54.109000
 21
-53.694000
  0
LINE
 10
29.000000
 11
29.044000
 20
53.694000
 21
54.109000
  0
LINE
 10
29.044000
 11
29.173000
 20
54.109000
 21
54.507000
  0
LINE
 10
29.173000
 11
29.382000
 20
54.507000
 21
54.869000
  0
LINE
 10
29.382000
 11
29.662000
 20
54.869000
 21
55.180000
  0
LINE
 10
29.662000
 11
30.000000
 20
55.180000
 21
55.426000
  0
LINE
 10
30.000000
 11
30.382000
 20
55.426000
 21
55.596000
  0
LINE
 10
30.382000
 11
30.791000
 20
55.596000
 21
55.683000
  0
LINE
 10
30.791000
 11
31.209000
 20
55.683000
 21
55.683000
  0
LINE
 10
31.209000
 11
31.618000
 20
55.683000
 21
55.596000
  0
LINE
 10
31.618000
 11
32.000000
 20
55.596000
 21
55.426000
  0
LINE
 10
32.000000
 11
32.338000
 20
55.426000
 21
55.180000
  0
LINE
 10
32.338000
 11
32.618000
 20
55.180000
 21
54.869000
  0
LINE
 10
32.618000
 11
32.827000
 20
54.869000
 21
54.507000
  0
LINE
 10
32.827000
 11
32.956000
 20
54.507000
 21
54.109000
  0
LINE
 10
32.956000
 11
33.000000
 20
54.109000
 21
53.694000
  0
LINE
 10
33.000000
 11
32.956000
 20
53.694000
 21
53.278000
  0
LINE
 10
32.956000
 11
32.827000
 20
53.278000
 21
52.880000
  0
LINE
 10
32.827000
 11
32.618000
 20
52.880000
 21
52.518000
  0
LINE
 10
32.618000
 11
32.338000
 20
52.518000
 21
52.207000
  0
LINE
 10
32.338000
 11
32.000000
 20
52.207000
 21
51.962000
  0
LINE
 10
32.000000
 11
31.618000
 20
51.962000
 21
51.791000
  0
LINE
 10
31.618000
 11
31.209000
 20
51.791000
 21
51.705000
  0
LINE
 10
31.209000
 11
30.791000
 20
51.705000
 21
51.705000
  0
LINE
 10
30.791000
 11
30.382000
 20
51.705000
 21
51.791000
  0
LINE
 10
30.382000
 11
30.000000
 20
51.791000
 21
51.962000
  0
LINE
 10
30.000000
 11
29.662000
 20
51.962000
 21
52.207000
  0
LINE
 10
29.662000
 11
29.382000
 20
52.207000
 21
52.518000
  0
LINE
 10
29.382000
 11
29.173000
 20
52.518000
 21
52.880000
  0
LINE
 10
29.173000
 11
29.044000
 20
52.880000
 21
53.278000
  0
LINE
 10
29.044000
 11
29.000000
 20
53.278000
 21
53.694000
  0
LINE
 10
56.266000
 11
56.280000
 20
-21.345000
 21
-20.927000
  0
LINE
 10
56.280000
 11
56.382000
 20
-20.927000
 21
-20.521000
  0
LINE
 10
56.382000
 11
56.565000
 20
-20.521000
 21
-20.145000
  0
LINE
 10
56.565000
 11
56.822000
 20
-20.145000
 21
-19.816000
  0
LINE
 10
56.822000
 11
57.143000
 20
-19.816000
 21
-19.547000
  0
LINE
 10
57.143000
 11
57.512000
 20
-19.547000
 21
-19.351000
  0
LINE
 10
57.512000
 11
57.914000
 20
-19.351000
 21
-19.236000
  0
LINE
 10
57.914000
 11
58.331000
 20
-19.236000
 21
-19.206000
  0
LINE
 10
58.331000
 11
58.745000
 20
-19.206000
 21
-19.265000
  0
LINE
 10
58.745000
 11
59.138000
 20
-19.265000
 21
-19.408000
  0
LINE
 10
59.138000
 11
59.492000
 20
-19.408000
 21
-19.629000
  0
LINE
 10
59.492000
 11
59.793000
 20
-19.629000
 21
-19.920000
  0
LINE
 10
59.793000
 11
60.027000
 20
-19.920000
 21
-20.266000
  0
LINE
 10
60.027000
 11
60.183000
 20
-20.266000
 21
-20.654000
  0
LINE
 10
60.183000
 11
60.256000
 20
-20.654000
 21
-21.066000
  0
LINE
 10
60.256000
 11
60.241000
 20
-21.066000
 21
-21.484000
  0
LINE
 10
60.241000
 11
60.140000
 20
-21.484000
 21
-21.889000
  0
LINE
 10
60.140000
 11
59.957000
 20
-21.889000
 21
-22.265000
  0
LINE
 10
59.957000
 11
59.700000
 20
-22.265000
 21
-22.595000
  0
LINE
 10
59.700000
 11
59.379000
 20
-22.595000
 21
-22.863000
  0
LINE
 10
59.379000
 11
59.010000
 20
-22.863000
 21
-23.060000
  0
LINE
 10
59.010000
 11
58.608000
 20
-23.060000
 21
-23.175000
  0
LINE
 10
58.608000
 11
58.191000
 20
-23.175000
 21
-23.204000
  0
LINE
 10
58.191000
 11
57.777000
 20
-23.204000
 21
-23.146000
  0
LINE
 10
57.777000
 11
57.384000
 20
-23.146000
 21
-23.003000
  0
LINE
 10
57.384000
 11
57.030000
 20
-23.003000
 21
-22.781000
  0
LINE
 10
57.030000
 11
56.729000
 20
-22.781000
 21
-22.491000
  0
LINE
 10
56.729000
 11
56.495000
 20
-22.491000
 21
-22.144000
  0
LINE
 10
56.495000
 11
56.338000
 20
-22.144000
 21
-21.757000
  0
LINE
 10
56.338000
 11
56.266000
 20
-21.757000
 21
-21.345000
  0
LINE
 10
56.266000
 11
56.338000
 20
21.345000
 21
21.757000
  0
LINE
 10
56.338000
 11
56.495000
 20
21.757000
 21
22.144000
  0
LINE
 10
56.495000
 11
56.729000
 20
22.144000
 21
22.491000
  0
LINE
 10
56.729000
 11
57.030000
 20
22.491000
 21
22.781000
  0
LINE
 10
57.030000
 11
57.384000
 20
22.781000
 21
23.003000
  0
LINE
 10
57.384000
 11
57.777000
 20
23.003000
 21
23.146000
  0
LINE
 10
57.777000
 11
58.191000
 20
23.146000
 21
23.204000
  0
LINE
 10
58.191000
 11
58.608000
 20
23.204000
 21
23.175000
  0
LINE
 10
58.608000
 11
59.010000
 20
23.175000
 21
23.060000
  0
LINE
 10
59.010000
 11
59.379000
 20
23.060000
 21
22.863000
  0
LINE
 10
59.379000
 11
59.700000
 20
22.863000
 21
22.595000
  0
LINE
 10
59.700000
 11
59.957000
 20
22.595000
 21
22.265000
  0
LINE
 10
59.957000
 11
60.140000
 20
22.265000
 21
21.889000
  0
LINE
 10
60.140000
 11
60.241000
 20
21.889000
 21
21.484000
  0
LINE
 10
60.241000
 11
60.256000
 20
21.484000
 21
21.066000
  0
LINE
 10
60.256000
 11
60.183000
 20
21.066000
 21
20.654000
  0
LINE
 10
60.183000
 11
60.027000
 20
20.654000
 21
20.266000
  0
LINE
 10
60.027000
 11
59.793000
 20
20.266000
 21
19.920000
  0
LINE
 10
59.793000
 11
59.492000
 20
19.920000
 21
19.629000
  0
LINE
 10
59.492000
 11
59.138000
 20
19.629000
 21
19.408000
  0
LINE
 10
59.138000
 11
58.745000
 20
19.408000
 21
19.265000
  0
LINE
 10
58.745000
 11
58.331000
 20
19.265000
 21
19.206000
  0
LINE
 10
58.331000
 11
57.914000
 20
19.206000
 21
19.236000
  0
LINE
 10
57.914000
 11
57.512000
 20
19.236000
 21
19.351000
  0
LINE
 10
57.512000
 11
57.143000
 20
19.351000
 21
19.547000
  0
LINE
 10
57.143000
 11
56.822000
 20
19.547000
 21
19.816000
  0
LINE
 10
56.822000
 11
56.565000
 20
19.816000
 21
20.145000
  0
LINE
 10
56.565000
 11
56.382000
 20
20.145000
 21
20.521000
  0
LINE
 10
56.382000
 11
56.280000
 20
20.521000
 21
20.927000
  0
LINE
 10
56.280000
 11
56.266000
 20
20.927000
 21
21.345000
  0
ENDSEC
  0
EOF
