  0
SECTION
  2
ENTITIES
  0
LINE
 10
-70.000000
 11
-68.470000
 20
0.000000
 21
14.554000
  0
LINE
 10
-68.470000
 11
-63.948000
 20
14.554000
 21
28.472000
  0
LINE
 10
-63.948000
 11
-56.631000
 20
28.472000
 21
41.145000
  0
LINE
 10
-56.631000
 11
-46.839000
 20
41.145000
 21
52.020000
  0
LINE
 10
-46.839000
 11
-35.000000
 20
52.020000
 21
60.622000
  0
LINE
 10
-35.000000
 11
-21.631000
 20
60.622000
 21
66.574000
  0
LINE
 10
-21.631000
 11
-7.317000
 20
66.574000
 21
69.617000
  0
LINE
 10
-7.317000
 11
7.317000
 20
69.617000
 21
69.617000
  0
LINE
 10
7.317000
 11
21.631000
 20
69.617000
 21
66.574000
  0
LINE
 10
21.631000
 11
35.000000
 20
66.574000
 21
60.622000
  0
LINE
 10
35.000000
 11
46.839000
 20
60.622000
 21
52.020000
  0
LINE
 10
46.839000
 11
56.631000
 20
52.020000
 21
41.145000
  0
LINE
 10
56.631000
 11
63.948000
 20
41.145000
 21
28.472000
  0
LINE
 10
63.948000
 11
68.470000
 20
28.472000
 21
14.554000
  0
LINE
 10
68.470000
 11
70.000000
 20
14.554000
 21
0.000000
  0
LINE
 10
70.000000
 11
68.470000
 20
0.000000
 21
-14.554000
  0
LINE
 10
68.470000
 11
63.948000
 20
-14.554000
 21
-28.472000
  0
LINE
 10
63.948000
 11
56.631000
 20
-28.472000
 21
-41.145000
  0
LINE
 10
56.631000
 11
46.839000
 20
-41.145000
 21
-52.020000
  0
LINE
 10
46.839000
 11
35.000000
 20
-52.020000
 21
-60.622000
  0
LINE
 10
35.000000
 11
21.631000
 20
-60.622000
 21
-66.574000
  0
LINE
 10
21.631000
 11
7.317000
 20
-66.574000
 21
-69.617000
  0
LINE
 10
7.317000
 11
-7.317000
 20
-69.617000
 21
-69.617000
  0
LINE
 10
-7.317000
 11
-21.631000
 20
-69.617000
 21
-66.574000
  0
LINE
 10
-21.631000
 11
-35.000000
 20
-66.574000
 21
-60.622000
  0
LINE
 10
-35.000000
 11
-46.839000
 20
-60.622000
 21
-52.020000
  0
LINE
 10
-46.839000
 11
-56.631000
 20
-52.020000
 21
-41.145000
  0
LINE
 10
-56.631000
 11
-63.948000
 20
-41.145000
 21
-28.472000
  0
LINE
 10
-63.948000
 11
-68.470000
 20
-28.472000
 21
-14.554000
  0
LINE
 10
-68.470000
 11
-70.000000
 20
-14.554000
 21
0.000000
  0
LINE
 10
-64.000000
 11
-63.956000
 20
0.000000
 21
0.416000
  0
LINE
 10
-63.956000
 11
-63.827000
 20
0.416000
 21
0.813000
  0
LINE
 10
-63.827000
 11
-63.618000
 20
0.813000
 21
1.176000
  0
LINE
 10
-63.618000
 11
-63.338000
 20
1.176000
 21
1.486000
  0
LINE
 10
-63.338000
 11
-63.000000
 20
1.486000
 21
1.732000
  0
LINE
 10
-63.000000
 11
-62.618000
 20
1.732000
 21
1.902000
  0
LINE
 10
-62.618000
 11
-62.209000
 20
1.902000
 21
1.989000
  0
LINE
 10
-62.209000
 11
-61.791000
 20
1.989000
 21
1.989000
  0
LINE
 10
-61.791000
 11
-61.382000
 20
1.989000
 21
1.902000
  0
LINE
 10
-61.382000
 11
-61.000000
 20
1.902000
 21
1.732000
  0
LINE
 10
-61.000000
 11
-60.662000
 20
1.732000
 21
1.486000
  0
LINE
 10
-60.662000
 11
-60.382000
 20
1.486000
 21
1.176000
  0
LINE
 10
-60.382000
 11
-60.173000
 20
1.176000
 21
0.813000
  0
LINE
 10
-60.173000
 11
-60.044000
 20
0.813000
 21
0.416000
  0
LINE
 10
-60.044000
 11
-60.000000
 20
0.416000
 21
0.000000
  0
LINE
 10
-60.000000
 11
-60.044000
 20
0.000000
 21
-0.416000
  0
LINE
 10
-60.044000
 11
-60.173000
 20
-0.416000
 21
-0.813000
  0
LINE
 10
-60.173000
 11
-60.382000
 20
-0.813000
 21
-1.176000
  0
LINE
 10
-60.382000
 11
-60.662000
 20
-1.176000
 21
-1.486000
  0
LINE
 10
-60.662000
 11
-61.000000
 20
-1.486000
 21
-1.732000
  0
LINE
 10
-61.000000
 11
-61.382000
 20
-1.732000
 21
-1.902000
  0
LINE
 10
-61.382000
 11
-61.791000
 20
-1.902000
 21
-1.989000
  0
LINE
 10
-61.791000
 11
-62.209000
 20
-1.989000
 21
-1.989000
  0
LINE
 10
-62.209000
 11
-62.618000
 20
-1.989000
 21
-1.902000
  0
LINE
 10
-62.618000
 11
-63.000000
 20
-1.902000
 21
-1.732000
  0
LINE
 10
-63.000000
 11
-63.338000
 20
-1.732000
 21
-1.486000
  0
LINE
 10
-63.338000
 11
-63.618000
 20
-1.486000
 21
-1.176000
  0
LINE
 10
-63.618000
 11
-63.827000
 20
-1.176000
 21
-0.813000
  0
LINE
 10
-63.827000
 11
-63.956000
 20
-0.813000
 21
-0.416000
  0
LINE
 10
-63.956000
 11
-64.000000
 20
-0.416000
 21
0.000000
  0
LINE
 10
-60.819000
 11
-60.452000
 20
-17.765000
 21
-15.685000
  0
LINE
 10
-60.452000
 11
-59.661000
 20
-15.685000
 21
-13.727000
  0
LINE
 10
-59.661000
 11
-58.480000
 20
-13.727000
 21
-11.977000
  0
LINE
 10
-58.480000
 11
-56.962000
 20
-11.977000
 21
-10.510000
  0
LINE
 10
-56.962000
 11
-55.171000
 20
-10.510000
 21
-9.391000
  0
LINE
 10
-55.171000
 11
-55.135000
 20
-9.391000
 21
-9.378000
  0
LINE
 10
-55.135000
 11
-55.010000
 20
-9.378000
 21
-9.256000
  0
LINE
 10
-55.010000
 11
-54.196000
 20
-9.256000
 21
-8.174000
  0
LINE
 10
-54.196000
 11
-53.275000
 20
-8.174000
 21
-6.424000
  0
LINE
 10
-53.275000
 11
-52.498000
 20
-6.424000
 21
-4.108000
  0
LINE
 10
-52.498000
 11
-52.057000
 20
-4.108000
 21
-1.414000
  0
LINE
 10
-52.057000
 11
-52.058000
 20
-1.414000
 21
1.414000
  0
LINE
 10
-52.058000
 11
-52.498000
 20
1.414000
 21
4.109000
  0
LINE
 10
-52.498000
 11
-53.275000
 20
4.109000
 21
6.424000
  0
LINE
 10
-53.275000
 11
-54.196000
 20
6.424000
 21
8.173000
  0
LINE
 10
-54.196000
 11
-55.010000
 20
8.173000
 21
9.256000
  0
LINE
 10
-55.010000
 11
-55.135000
 20
9.256000
 21
9.378000
  0
LINE
 10
-55.135000
 11
-55.171000
 20
9.378000
 21
9.391000
  0
LINE
 10
-55.171000
 11
-56.962000
 20
9.391000
 21
10.510000
  0
LINE
 10
-56.962000
 11
-58.480000
 20
10.510000
 21
11.977000
  0
LINE
 10
-58.480000
 11
-59.661000
 20
11.977000
 21
13.727000
  0
LINE
 10
-59.661000
 11
-60.452000
 20
13.727000
 21
15.685000
  0
LINE
 10
-60.452000
 11
-60.819000
 20
15.685000
 21
17.765000
  0
LINE
 10
-60.819000
 11
-60.745000
 20
17.765000
 21
19.875000
  0
LINE
 10
-60.745000
 11
-60.234000
 20
19.875000
 21
21.923000
  0
LINE
 10
-60.234000
 11
-59.309000
 20
21.923000
 21
23.821000
  0
LINE
 10
-59.309000
 11
-58.009000
 20
23.821000
 21
25.485000
  0
LINE
 10
-58.009000
 11
-56.391000
 20
25.485000
 21
26.842000
  0
LINE
 10
-56.391000
 11
-54.527000
 20
26.842000
 21
27.834000
  0
LINE
 10
-54.527000
 11
-52.497000
 20
27.834000
 21
28.416000
  0
LINE
 10
-52.497000
 11
-50.391000
 20
28.416000
 21
28.563000
  0
LINE
 10
-50.391000
 11
-48.300000
 20
28.563000
 21
28.269000
  0
LINE
 10
-48.300000
 11
-48.264000
 20
28.269000
 21
28.256000
  0
LINE
 10
-48.264000
 11
-48.090000
 20
28.256000
 21
28.270000
  0
LINE
 10
-48.090000
 11
-46.771000
 20
28.270000
 21
28.575000
  0
LINE
 10
-46.771000
 11
-44.941000
 20
28.575000
 21
29.323000
  0
LINE
 10
-44.941000
 11
-42.857000
 20
29.323000
 21
30.598000
  0
LINE
 10
-42.857000
 11
-40.787000
 20
30.598000
 21
32.379000
  0
LINE
 10
-40.787000
 11
-38.970000
 20
32.379000
 21
34.545000
  0
LINE
 10
-38.970000
 11
-37.574000
 20
34.545000
 21
36.893000
  0
LINE
 10
-37.574000
 11
-36.681000
 20
36.893000
 21
39.166000
  0
LINE
 10
-36.681000
 11
-36.263000
 20
39.166000
 21
41.097000
  0
LINE
 10
-36.263000
 11
-36.191000
 20
41.097000
 21
42.450000
  0
LINE
 10
-36.191000
 11
-36.208000
 20
42.450000
 21
42.624000
  0
LINE
 10
-36.208000
 11
-36.227000
 20
42.624000
 21
42.657000
  0
LINE
 10
-36.227000
 11
-36.879000
 20
42.657000
 21
44.665000
  0
LINE
 10
-36.879000
 11
-37.100000
 20
44.665000
 21
46.765000
  0
LINE
 10
-37.100000
 11
-36.879000
 20
46.765000
 21
48.865000
  0
LINE
 10
-36.879000
 11
-36.227000
 20
48.865000
 21
50.873000
  0
LINE
 10
-36.227000
 11
-35.171000
 20
50.873000
 21
52.702000
  0
LINE
 10
-35.171000
 11
-33.758000
 20
52.702000
 21
54.271000
  0
LINE
 10
-33.758000
 11
-32.050000
 20
54.271000
 21
55.512000
  0
LINE
 10
-32.050000
 11
-30.121000
 20
55.512000
 21
56.371000
  0
LINE
 10
-30.121000
 11
-28.056000
 20
56.371000
 21
56.810000
  0
LINE
 10
-28.056000
 11
-25.944000
 20
56.810000
 21
56.810000
  0
LINE
 10
-25.944000
 11
-23.879000
 20
56.810000
 21
56.371000
  0
LINE
 10
-23.879000
 11
-21.950000
 20
56.371000
 21
55.512000
  0
LINE
 10
-21.950000
 11
-20.242000
 20
55.512000
 21
54.271000
  0
LINE
 10
-20.242000
 11
-18.829000
 20
54.271000
 21
52.702000
  0
LINE
 10
-18.829000
 11
-18.810000
 20
52.702000
 21
52.669000
  0
LINE
 10
-18.810000
 11
-18.667000
 20
52.669000
 21
52.567000
  0
LINE
 10
-18.667000
 11
-17.461000
 20
52.567000
 21
51.953000
  0
LINE
 10
-17.461000
 11
-15.578000
 20
51.953000
 21
51.350000
  0
LINE
 10
-15.578000
 11
-13.162000
 20
51.350000
 21
50.987000
  0
LINE
 10
-13.162000
 11
-10.432000
 20
50.987000
 21
51.021000
  0
LINE
 10
-10.432000
 11
-7.647000
 20
51.021000
 21
51.512000
  0
LINE
 10
-7.647000
 11
-5.069000
 20
51.512000
 21
52.414000
  0
LINE
 10
-5.069000
 11
-2.924000
 20
52.414000
 21
53.581000
  0
LINE
 10
-2.924000
 11
-1.362000
 20
53.581000
 21
54.792000
  0
LINE
 10
-1.362000
 11
-0.437000
 20
54.792000
 21
55.781000
  0
LINE
 10
-0.437000
 11
-0.338000
 20
55.781000
 21
55.926000
  0
LINE
 10
-0.338000
 11
-0.332000
 20
55.926000
 21
55.964000
  0
LINE
 10
-0.332000
 11
0.459000
 20
55.964000
 21
57.921000
  0
LINE
 10
0.459000
 11
1.640000
 20
57.921000
 21
59.672000
  0
LINE
 10
1.640000
 11
3.159000
 20
59.672000
 21
61.139000
  0
LINE
 10
3.159000
 11
4.949000
 20
61.139000
 21
62.257000
  0
LINE
 10
4.949000
 11
6.934000
 20
62.257000
 21
62.980000
  0
LINE
 10
6.934000
 11
9.025000
 20
62.980000
 21
63.273000
  0
LINE
 10
9.025000
 11
11.131000
 20
63.273000
 21
63.126000
  0
LINE
 10
11.131000
 11
13.161000
 20
63.126000
 21
62.544000
  0
LINE
 10
13.161000
 11
15.025000
 20
62.544000
 21
61.553000
  0
LINE
 10
15.025000
 11
16.642000
 20
61.553000
 21
60.196000
  0
LINE
 10
16.642000
 11
17.942000
 20
60.196000
 21
58.532000
  0
LINE
 10
17.942000
 11
18.868000
 20
58.532000
 21
56.634000
  0
LINE
 10
18.868000
 11
19.379000
 20
56.634000
 21
54.585000
  0
LINE
 10
19.379000
 11
19.452000
 20
54.585000
 21
52.475000
  0
LINE
 10
19.452000
 11
19.446000
 20
52.475000
 21
52.438000
  0
LINE
 10
19.446000
 11
19.489000
 20
52.438000
 21
52.268000
  0
LINE
 10
19.489000
 11
20.019000
 20
52.268000
 21
51.022000
  0
LINE
 10
20.019000
 11
21.074000
 20
51.022000
 21
49.350000
  0
LINE
 10
21.074000
 11
22.691000
 20
49.350000
 21
47.519000
  0
LINE
 10
22.691000
 11
24.804000
 20
47.519000
 21
45.790000
  0
LINE
 10
24.804000
 11
27.254000
 20
45.790000
 21
44.376000
  0
LINE
 10
27.254000
 11
29.807000
 20
44.376000
 21
43.410000
  0
LINE
 10
29.807000
 11
32.201000
 20
43.410000
 21
42.925000
  0
LINE
 10
32.201000
 11
34.176000
 20
42.925000
 21
42.849000
  0
LINE
 10
34.176000
 11
35.521000
 20
42.849000
 21
43.012000
  0
LINE
 10
35.521000
 11
35.689000
 20
43.012000
 21
43.059000
  0
LINE
 10
35.689000
 11
35.719000
 20
43.059000
 21
43.084000
  0
LINE
 10
35.719000
 11
37.583000
 20
43.084000
 21
44.075000
  0
LINE
 10
37.583000
 11
39.613000
 20
44.075000
 21
44.657000
  0
LINE
 10
39.613000
 11
41.719000
 20
44.657000
 21
44.804000
  0
LINE
 10
41.719000
 11
43.810000
 20
44.804000
 21
44.511000
  0
LINE
 10
43.810000
 11
45.794000
 20
44.511000
 21
43.788000
  0
LINE
 10
45.794000
 11
47.585000
 20
43.788000
 21
42.669000
  0
LINE
 10
47.585000
 11
49.103000
 20
42.669000
 21
41.203000
  0
LINE
 10
49.103000
 11
50.284000
 20
41.203000
 21
39.452000
  0
LINE
 10
50.284000
 11
51.075000
 20
39.452000
 21
37.494000
  0
LINE
 10
51.075000
 11
51.442000
 20
37.494000
 21
35.415000
  0
LINE
 10
51.442000
 11
51.368000
 20
35.415000
 21
33.305000
  0
LINE
 10
51.368000
 11
50.857000
 20
33.305000
 21
31.256000
  0
LINE
 10
50.857000
 11
49.932000
 20
31.256000
 21
29.358000
  0
LINE
 10
49.932000
 11
48.632000
 20
29.358000
 21
27.694000
  0
LINE
 10
48.632000
 11
48.603000
 20
27.694000
 21
27.670000
  0
LINE
 10
48.603000
 11
48.527000
 20
27.670000
 21
27.512000
  0
LINE
 10
48.527000
 11
48.132000
 20
27.512000
 21
26.217000
  0
LINE
 10
48.132000
 11
47.865000
 20
26.217000
 21
24.258000
  0
LINE
 10
47.865000
 11
47.927000
 20
24.258000
 21
21.816000
  0
LINE
 10
47.927000
 11
48.434000
 20
21.816000
 21
19.133000
  0
LINE
 10
48.434000
 11
49.402000
 20
19.133000
 21
16.476000
  0
LINE
 10
49.402000
 11
50.737000
 20
16.476000
 21
14.094000
  0
LINE
 10
50.737000
 11
52.259000
 20
14.094000
 21
12.184000
  0
LINE
 10
52.259000
 11
53.723000
 20
12.184000
 21
10.856000
  0
LINE
 10
53.723000
 11
54.858000
 20
10.856000
 21
10.117000
  0
LINE
 10
54.858000
 11
55.018000
 20
10.117000
 21
10.045000
  0
LINE
 10
55.018000
 11
55.056000
 20
10.045000
 21
10.045000
  0
LINE
 10
55.056000
 11
57.121000
 20
10.045000
 21
9.606000
  0
LINE
 10
57.121000
 11
59.050000
 20
9.606000
 21
8.747000
  0
LINE
 10
59.050000
 11
60.758000
 20
8.747000
 21
7.506000
  0
LINE
 10
60.758000
 11
62.171000
 20
7.506000
 21
5.937000
  0
LINE
 10
62.171000
 11
63.227000
 20
5.937000
 21
4.108000
  0
LINE
 10
63.227000
 11
63.879000
 20
4.108000
 21
2.100000
  0
LINE
 10
63.879000
 11
64.100000
 20
2.100000
 21
0.000000
  0
LINE
 10
64.100000
 11
63.879000
 20
0.000000
 21
-2.100000
  0
LINE
 10
63.879000
 11
63.227000
 20
-2.100000
 21
-4.108000
  0
LINE
 10
63.227000
 11
62.171000
 20
-4.108000
 21
-5.937000
  0
LINE
 10
62.171000
 11
60.758000
 20
-5.937000
 21
-7.506000
  0
LINE
 10
60.758000
 11
59.050000
 20
-7.506000
 21
-8.747000
  0
LINE
 10
59.050000
 11
57.121000
 20
-8.747000
 21
-9.606000
  0
LINE
 10
57.121000
 11
55.056000
 20
-9.606000
 21
-10.045000
  0
LINE
 10
55.056000
 11
55.018000
 20
-10.045000
 21
-10.045000
  0
LINE
 10
55.018000
 11
54.858000
 20
-10.045000
 21
-10.117000
  0
LINE
 10
54.858000
 11
53.723000
 20
-10.117000
 21
-10.855000
  0
LINE
 10
53.723000
 11
52.259000
 20
-10.855000
 21
-12.184000
  0
LINE
 10
52.259000
 11
50.737000
 20
-12.184000
 21
-14.095000
  0
LINE
 10
50.737000
 11
49.401000
 20
-14.095000
 21
-16.476000
  0
LINE
 10
49.401000
 11
48.435000
 20
-16.476000
 21
-19.134000
  0
LINE
 10
48.435000
 11
47.926000
 20
-19.134000
 21
-21.816000
  0
LINE
 10
47.926000
 11
47.864000
 20
-21.816000
 21
-24.258000
  0
LINE
 10
47.864000
 11
48.132000
 20
-24.258000
 21
-26.216000
  0
LINE
 10
48.132000
 11
48.527000
 20
-26.216000
 21
-27.512000
  0
LINE
 10
48.527000
 11
48.602000
 20
-27.512000
 21
-27.670000
  0
LINE
 10
48.602000
 11
48.632000
 20
-27.670000
 21
-27.694000
  0
LINE
 10
48.632000
 11
49.932000
 20
-27.694000
 21
-29.358000
  0
LINE
 10
49.932000
 11
50.857000
 20
-29.358000
 21
-31.256000
  0
LINE
 10
50.857000
 11
51.368000
 20
-31.256000
 21
-33.305000
  0
LINE
 10
51.368000
 11
51.442000
 20
-33.305000
 21
-35.415000
  0
LINE
 10
51.442000
 11
51.075000
 20
-35.415000
 21
-37.494000
  0
LINE
 10
51.075000
 11
50.284000
 20
-37.494000
 21
-39.452000
  0
LINE
 10
50.284000
 11
49.103000
 20
-39.452000
 21
-41.203000
  0
LINE
 10
49.103000
 11
47.585000
 20
-41.203000
 21
-42.669000
  0
LINE
 10
47.585000
 11
45.794000
 20
-42.669000
 21
-43.788000
  0
LINE
 10
45.794000
 11
43.810000
 20
-43.788000
 21
-44.511000
  0
LINE
 10
43.810000
 11
41.719000
 20
-44.511000
 21
-44.804000
  0
LINE
 10
41.719000
 11
39.613000
 20
-44.804000
 21
-44.657000
  0
LINE
 10
39.613000
 11
37.583000
 20
-44.657000
 21
-44.075000
  0
LINE
 10
37.583000
 11
35.719000
 20
-44.075000
 21
-43.084000
  0
LINE
 10
35.719000
 11
35.690000
 20
-43.084000
 21
-43.059000
  0
LINE
 10
35.690000
 11
35.521000
 20
-43.059000
 21
-43.012000
  0
LINE
 10
35.521000
 11
34.177000
 20
-43.012000
 21
-42.848000
  0
LINE
 10
34.177000
 11
32.201000
 20
-42.848000
 21
-42.925000
  0
LINE
 10
32.201000
 11
29.807000
 20
-42.925000
 21
-43.411000
  0
LINE
 10
29.807000
 11
27.253000
 20
-43.411000
 21
-44.376000
  0
LINE
 10
27.253000
 11
24.804000
 20
-44.376000
 21
-45.790000
  0
LINE
 10
24.804000
 11
22.690000
 20
-45.790000
 21
-47.519000
  0
LINE
 10
22.690000
 11
21.074000
 20
-47.519000
 21
-49.349000
  0
LINE
 10
21.074000
 11
20.020000
 20
-49.349000
 21
-51.022000
  0
LINE
 10
20.020000
 11
19.489000
 20
-51.022000
 21
-52.268000
  0
LINE
 10
19.489000
 11
19.446000
 20
-52.268000
 21
-52.437000
  0
LINE
 10
19.446000
 11
19.452000
 20
-52.437000
 21
-52.475000
  0
LINE
 10
19.452000
 11
19.379000
 20
-52.475000
 21
-54.585000
  0
LINE
 10
19.379000
 11
18.868000
 20
-54.585000
 21
-56.634000
  0
LINE
 10
18.868000
 11
17.942000
 20
-56.634000
 21
-58.532000
  0
LINE
 10
17.942000
 11
16.642000
 20
-58.532000
 21
-60.196000
  0
LINE
 10
16.642000
 11
15.025000
 20
-60.196000
 21
-61.553000
  0
LINE
 10
15.025000
 11
13.161000
 20
-61.553000
 21
-62.544000
  0
LINE
 10
13.161000
 11
11.131000
 20
-62.544000
 21
-63.126000
  0
LINE
 10
11.131000
 11
9.025000
 20
-63.126000
 21
-63.273000
  0
LINE
 10
9.025000
 11
6.934000
 20
-63.273000
 21
-62.980000
  0
LINE
 10
6.934000
 11
4.949000
 20
-62.980000
 21
-62.257000
  0
LINE
 10
4.949000
 11
3.159000
 20
-62.257000
 21
-61.139000
  0
LINE
 10
3.159000
 11
1.640000
 20
-61.139000
 21
-59.672000
  0
LINE
 10
1.640000
 11
0.459000
 20
-59.672000
 21
-57.921000
  0
LINE
 10
0.459000
 11
-0.332000
 20
-57.921000
 21
-55.964000
  0
LINE
 10
-0.332000
 11
-0.338000
 20
-55.964000
 21
-55.926000
  0
LINE
 10
-0.338000
 11
-0.437000
 20
-55.926000
 21
-55.782000
  0
LINE
 10
-0.437000
 11
-1.361000
 20
-55.782000
 21
-54.792000
  0
LINE
 10
-1.361000
 11
-2.924000
 20
-54.792000
 21
-53.581000
  0
LINE
 10
-2.924000
 11
-5.070000
 20
-53.581000
 21
-52.414000
  0
LINE
 10
-5.070000
 11
-7.647000
 20
-52.414000
 21
-51.512000
  0
LINE
 10
-7.647000
 11
-10.432000
 20
-51.512000
 21
-51.021000
  0
LINE
 10
-10.432000
 11
-13.163000
 20
-51.021000
 21
-50.987000
  0
LINE
 10
-13.163000
 11
-15.578000
 20
-50.987000
 21
-51.350000
  0
LINE
 10
-15.578000
 11
-17.460000
 20
-51.350000
 21
-51.953000
  0
LINE
 10
-17.460000
 11
-18.667000
 20
-51.953000
 21
-52.567000
  0
LINE
 10
-18.667000
 11
-18.810000
 20
-52.567000
 21
-52.669000
  0
LINE
 10
-18.810000
 11
-18.829000
 20
-52.669000
 21
-52.702000
  0
LINE
 10
-18.829000
 11
-20.242000
 20
-52.702000
 21
-54.271000
  0
LINE
 10
-20.242000
 11
-21.950000
 20
-54.271000
 21
-55.512000
  0
LINE
 10
-21.950000
 11
-23.879000
 20
-55.512000
 21
-56.371000
  0
LINE
 10
-23.879000
 11
-25.944000
 20
-56.371000
 21
-56.810000
  0
LINE
 10
-25.944000
 11
-28.056000
 20
-56.810000
 21
-56.810000
  0
LINE
 10
-28.056000
 11
-30.121000
 20
-56.810000
 21
-56.371000
  0
LINE
 10
-30.121000
 11
-32.050000
 20
-56.371000
 21
-55.512000
  0
LINE
 10
-32.050000
 11
-33.758000
 20
-55.512000
 21
-54.271000
  0
LINE
 10
-33.758000
 11
-35.171000
 20
-54.271000
 21
-52.702000
  0
LINE
 10
-35.171000
 11
-36.227000
 20
-52.702000
 21
-50.873000
  0
LINE
 10
-36.227000
 11
-36.879000
 20
-50.873000
 21
-48.865000
  0
LINE
 10
-36.879000
 11
-37.100000
 20
-48.865000
 21
-46.765000
  0
LINE
 10
-37.100000
 11
-36.879000
 20
-46.765000
 21
-44.665000
  0
LINE
 10
-36.879000
 11
-36.227000
 20
-44.665000
 21
-42.657000
  0
LINE
 10
-36.227000
 11
-36.208000
 20
-42.657000
 21
-42.625000
  0
LINE
 10
-36.208000
 11
-36.191000
 20
-42.625000
 21
-42.450000
  0
LINE
 10
-36.191000
 11
-36.263000
 20
-42.450000
 21
-41.098000
  0
LINE
 10
-36.263000
 11
-36.682000
 20
-41.098000
 21
-39.166000
  0
LINE
 10
-36.682000
 11
-37.575000
 20
-39.166000
 21
-36.892000
  0
LINE
 10
-37.575000
 11
-38.969000
 20
-36.892000
 21
-34.545000
  0
LINE
 10
-38.969000
 11
-40.788000
 20
-34.545000
 21
-32.379000
  0
LINE
 10
-40.788000
 11
-42.857000
 20
-32.379000
 21
-30.597000
  0
LINE
 10
-42.857000
 11
-44.940000
 20
-30.597000
 21
-29.323000
  0
LINE
 10
-44.940000
 11
-46.770000
 20
-29.323000
 21
-28.576000
  0
LINE
 10
-46.770000
 11
-48.089000
 20
-28.576000
 21
-28.269000
  0
LINE
 10
-48.089000
 11
-48.264000
 20
-28.269000
 21
-28.256000
  0
LINE
 10
-48.264000
 11
-48.300000
 20
-28.256000
 21
-28.269000
  0
LINE
 10
-48.300000
 11
-50.391000
 20
-28.269000
 21
-28.563000
  0
LINE
 10
-50.391000
 11
-52.497000
 20
-28.563000
 21
-28.416000
  0
LINE
 10
-52.497000
 11
-54.527000
 20
-28.416000
 21
-27.834000
  0
LINE
 10
-54.527000
 11
-56.391000
 20
-27.834000
 21
-26.842000
  0
LINE
 10
-56.391000
 11
-58.009000
 20
-26.842000
 21
-25.485000
  0
LINE
 10
-58.009000
 11
-59.309000
 20
-25.485000
 21
-23.821000
  0
LINE
 10
-59.309000
 11
-60.234000
 20
-23.821000
 21
-21.923000
  0
LINE
 10
-60.234000
 11
-60.745000
 20
-21.923000
 21
-19.875000
  0
LINE
 10
-60.745000
 11
-60.819000
 20
-19.875000
 21
-17.765000
  0
LINE
 10
-49.490000
 11
-49.475000
 20
-39.992000
 21
-39.574000
  0
LINE
 10
-49.475000
 11
-49.374000
 20
-39.574000
 21
-39.169000
  0
LINE
 10
-49.374000
 11
-49.191000
 20
-39.169000
 21
-38.793000
  0
LINE
 10
-49.191000
 11
-48.933000
 20
-38.793000
 21
-38.464000
  0
LINE
 10
-48.933000
 11
-48.613000
 20
-38.464000
 21
-38.195000
  0
LINE
 10
-48.613000
 11
-48.244000
 20
-38.195000
 21
-37.998000
  0
LINE
 10
-48.244000
 11
-47.842000
 20
-37.998000
 21
-37.883000
  0
LINE
 10
-47.842000
 11
-47.425000
 20
-37.883000
 21
-37.854000
  0
LINE
 10
-47.425000
 11
-47.011000
 20
-37.854000
 21
-37.912000
  0
LINE
 10
-47.011000
 11
-46.618000
 20
-37.912000
 21
-38.055000
  0
LINE
 10
-46.618000
 11
-46.263000
 20
-38.055000
 21
-38.277000
  0
LINE
 10
-46.263000
 11
-45.963000
 20
-38.277000
 21
-38.567000
  0
LINE
 10
-45.963000
 11
-45.729000
 20
-38.567000
 21
-38.914000
  0
LINE
 10
-45.729000
 11
-45.572000
 20
-38.914000
 21
-39.302000
  0
LINE
 10
-45.572000
 11
-45.500000
 20
-39.302000
 21
-39.713000
  0
LINE
 10
-45.500000
 11
-45.514000
 20
-39.713000
 21
-40.131000
  0
LINE
 10
-45.514000
 11
-45.615000
 20
-40.131000
 21
-40.537000
  0
LINE
 10
-45.615000
 11
-45.799000
 20
-40.537000
 21
-40.913000
  0
LINE
 10
-45.799000
 11
-46.056000
 20
-40.913000
 21
-41.242000
  0
LINE
 10
-46.056000
 11
-46.376000
 20
-41.242000
 21
-41.511000
  0
LINE
 10
-46.376000
 11
-46.746000
 20
-41.511000
 21
-41.707000
  0
LINE
 10
-46.746000
 11
-47.147000
 20
-41.707000
 21
-41.822000
  0
LINE
 10
-47.147000
 11
-47.565000
 20
-41.822000
 21
-41.852000
  0
LINE
 10
-47.565000
 11
-47.979000
 20
-41.852000
 21
-41.793000
  0
LINE
 10
-47.979000
 11
-48.371000
 20
-41.793000
 21
-41.650000
  0
LINE
 10
-48.371000
 11
-48.726000
 20
-41.650000
 21
-41.429000
  0
LINE
 10
-48.726000
 11
-49.027000
 20
-41.429000
 21
-41.138000
  0
LINE
 10
-49.027000
 11
-49.261000
 20
-41.138000
 21
-40.792000
  0
LINE
 10
-49.261000
 11
-49.417000
 20
-40.792000
 21
-40.404000
  0
LINE
 10
-49.417000
 11
-49.490000
 20
-40.404000
 21
-39.992000
  0
LINE
 10
-49.490000
 11
-49.417000
 20
39.992000
 21
40.404000
  0
LINE
 10
-49.417000
 11
-49.261000
 20
40.404000
 21
40.792000
  0
LINE
 10
-49.261000
 11
-49.027000
 20
40.792000
 21
41.138000
  0
LINE
 10
-49.027000
 11
-48.726000
 20
41.138000
 21
41.429000
  0
LINE
 10
-48.726000
 11
-48.371000
 20
41.429000
 21
41.650000
  0
LINE
 10
-48.371000
 11
-47.979000
 20
41.650000
 21
41.793000
  0
LINE
 10
-47.979000
 11
-47.565000
 20
41.793000
 21
41.852000
  0
LINE
 10
-47.565000
 11
-47.147000
 20
41.852000
 21
41.822000
  0
LINE
 10
-47.147000
 11
-46.746000
 20
41.822000
 21
41.707000
  0
LINE
 10
-46.746000
 11
-46.376000
 20
41.707000
 21
41.511000
  0
LINE
 10
-46.376000
 11
-46.056000
 20
41.511000
 21
41.242000
  0
LINE
 10
-46.056000
 11
-45.799000
 20
41.242000
 21
40.913000
  0
LINE
 10
-45.799000
 11
-45.615000
 20
40.913000
 21
40.537000
  0
LINE
 10
-45.615000
 11
-45.514000
 20
40.537000
 21
40.131000
  0
LINE
 10
-45.514000
 11
-45.500000
 20
40.131000
 21
39.713000
  0
LINE
 10
-45.500000
 11
-45.572000
 20
39.713000
 21
39.302000
  0
LINE
 10
-45.572000
 11
-45.729000
 20
39.302000
 21
38.914000
  0
LINE
 10
-45.729000
 11
-45.963000
 20
38.914000
 21
38.567000
  0
LINE
 10
-45.963000
 11
-46.263000
 20
38.567000
 21
38.277000
  0
LINE
 10
-46.263000
 11
-46.618000
 20
38.277000
 21
38.055000
  0
LINE
 10
-46.618000
 11
-47.011000
 20
38.055000
 21
37.912000
  0
LINE
 10
-47.011000
 11
-47.425000
 20
37.912000
 21
37.854000
  0
LINE
 10
-47.425000
 11
-47.842000
 20
37.854000
 21
37.883000
  0
LINE
 10
-47.842000
 11
-48.244000
 20
37.883000
 21
37.998000
  0
LINE
 10
-48.244000
 11
-48.613000
 20
37.998000
 21
38.195000
  0
LINE
 10
-48.613000
 11
-48.933000
 20
38.195000
 21
38.464000
  0
LINE
 10
-48.933000
 11
-49.191000
 20
38.464000
 21
38.793000
  0
LINE
 10
-49.191000
 11
-49.374000
 20
38.793000
 21
39.169000
  0
LINE
 10
-49.374000
 11
-49.475000
 20
39.169000
 21
39.574000
  0
LINE
 10
-49.475000
 11
-49.490000
 20
39.574000
 21
39.992000
  0
LINE
 10
-12.761000
 11
-12.689000
 20
-60.919000
 21
-60.507000
  0
LINE
 10
-12.689000
 11
-12.532000
 20
-60.507000
 21
-60.119000
  0
LINE
 10
-12.532000
 11
-12.298000
 20
-60.119000
 21
-59.773000
  0
LINE
 10
-12.298000
 11
-11.998000
 20
-59.773000
 21
-59.482000
  0
LINE
 10
-11.998000
 11
-11.643000
 20
-59.482000
 21
-59.260000
  0
LINE
 10
-11.643000
 11
-11.250000
 20
-59.260000
 21
-59.117000
  0
LINE
 10
-11.250000
 11
-10.836000
 20
-59.117000
 21
-59.059000
  0
LINE
 10
-10.836000
 11
-10.419000
 20
-59.059000
 21
-59.088000
  0
LINE
 10
-10.419000
 11
-10.017000
 20
-59.088000
 21
-59.204000
  0
LINE
 10
-10.017000
 11
-9.648000
 20
-59.204000
 21
-59.400000
  0
LINE
 10
-9.648000
 11
-9.328000
 20
-59.400000
 21
-59.669000
  0
LINE
 10
-9.328000
 11
-9.070000
 20
-59.669000
 21
-59.998000
  0
LINE
 10
-9.070000
 11
-8.887000
 20
-59.998000
 21
-60.374000
  0
LINE
 10
-8.887000
 11
-8.786000
 20
-60.374000
 21
-60.780000
  0
LINE
 10
-8.786000
 11
-8.771000
 20
-60.780000
 21
-61.198000
  0
LINE
 10
-8.771000
 11
-8.844000
 20
-61.198000
 21
-61.609000
  0
LINE
 10
-8.844000
 11
-9.000000
 20
-61.609000
 21
-61.997000
  0
LINE
 10
-9.000000
 11
-9.234000
 20
-61.997000
 21
-62.344000
  0
LINE
 10
-9.234000
 11
-9.535000
 20
-62.344000
 21
-62.634000
  0
LINE
 10
-9.535000
 11
-9.889000
 20
-62.634000
 21
-62.856000
  0
LINE
 10
-9.889000
 11
-10.282000
 20
-62.856000
 21
-62.999000
  0
LINE
 10
-10.282000
 11
-10.696000
 20
-62.999000
 21
-63.057000
  0
LINE
 10
-10.696000
 11
-11.113000
 20
-63.057000
 21
-63.028000
  0
LINE
 10
-11.113000
 11
-11.515000
 20
-63.028000
 21
-62.912000
  0
LINE
 10
-11.515000
 11
-11.885000
 20
-62.912000
 21
-62.716000
  0
LINE
 10
-11.885000
 11
-12.205000
 20
-62.716000
 21
-62.447000
  0
LINE
 10
-12.205000
 11
-12.462000
 20
-62.447000
 21
-62.118000
  0
LINE
 10
-12.462000
 11
-12.646000
 20
-62.118000
 21
-61.742000
  0
LINE
 10
-12.646000
 11
-12.747000
 20
-61.742000
 21
-61.336000
  0
LINE
 10
-12.747000
 11
-12.761000
 20
-61.336000
 21
-60.919000
  0
LINE
 10
-12.761000
 11
-12.747000
 20
60.919000
 21
61.336000
  0
LINE
 10
-12.747000
 11
-12.646000
 20
61.336000
 21
61.742000
  0
LINE
 10
-12.646000
 11
-12.462000
 20
61.742000
 21
62.118000
  0
LINE
 10
-12.462000
 11
-12.205000
 20
62.118000
 21
62.447000
  0
LINE
 10
-12.205000
 11
-11.885000
 20
62.447000
 21
62.716000
  0
LINE
 10
-11.885000
 11
-11.515000
 20
62.716000
 21
62.912000
  0
LINE
 10
-11.515000
 11
-11.113000
 20
62.912000
 21
63.028000
  0
LINE
 10
-11.113000
 11
-10.696000
 20
63.028000
 21
63.057000
  0
LINE
 10
-10.696000
 11
-10.282000
 20
63.057000
 21
62.999000
  0
LINE
 10
-10.282000
 11
-9.889000
 20
62.999000
 21
62.856000
  0
LINE
 10
-9.889000
 11
-9.535000
 20
62.856000
 21
62.634000
  0
LINE
 10
-9.535000
 11
-9.234000
 20
62.634000
 21
62.344000
  0
LINE
 10
-9.234000
 11
-9.000000
 20
62.344000
 21
61.997000
  0
LINE
 10
-9.000000
 11
-8.844000
 20
61.997000
 21
61.609000
  0
LINE
 10
-8.844000
 11
-8.771000
 20
61.609000
 21
61.198000
  0
LINE
 10
-8.771000
 11
-8.786000
 20
61.198000
 21
60.780000
  0
LINE
 10
-8.786000
 11
-8.887000
 20
60.780000
 21
60.374000
  0
LINE
 10
-8.887000
 11
-9.070000
 20
60.374000
 21
59.998000
  0
LINE
 10
-9.070000
 11
-9.328000
 20
59.998000
 21
59.669000
  0
LINE
 10
-9.328000
 11
-9.648000
 20
59.669000
 21
59.400000
  0
LINE
 10
-9.648000
 11
-10.017000
 20
59.400000
 21
59.204000
  0
LINE
 10
-10.017000
 11
-10.419000
 20
59.204000
 21
59.088000
  0
LINE
 10
-10.419000
 11
-10.836000
 20
59.088000
 21
59.059000
  0
LINE
 10
-10.836000
 11
-11.250000
 20
59.059000
 21
59.117000
  0
LINE
 10
-11.250000
 11
-11.643000
 20
59.117000
 21
59.260000
  0
LINE
 10
-11.643000
 11
-11.998000
 20
59.260000
 21
59.482000
  0
LINE
 10
-11.998000
 11
-12.298000
 20
59.482000
 21
59.773000
  0
LINE
 10
-12.298000
 11
-12.532000
 20
59.773000
 21
60.119000
  0
LINE
 10
-12.532000
 11
-12.689000
 20
60.119000
 21
60.507000
  0
LINE
 10
-12.689000
 11
-12.761000
 20
60.507000
 21
60.919000
  0
LINE
 10
29.000000
 11
29.044000
 20
-53.694000
 21
-53.278000
  0
LINE
 10
29.044000
 11
29.173000
 20
-53.278000
 21
-52.880000
  0
LINE
 10
29.173000
 11
29.382000
 20
-52.880000
 21
-52.518000
  0
LINE
 10
29.382000
 11
29.662000
 20
-52.518000
 21
-52.207000
  0
LINE
 10
29.662000
 11
30.000000
 20
-52.207000
 21
-51.962000
  0
LINE
 10
30.000000
 11
30.382000
 20
-51.962000
 21
-51.791000
  0
LINE
 10
30.382000
 11
30.791000
 20
-51.791000
 21
-51.705000
  0
LINE
 10
30.791000
 11
31.209000
 20
-51.705000
 21
-51.705000
  0
LINE
 10
31.209000
 11
31.618000
 20
-51.705000
 21
-51.791000
  0
LINE
 10
31.618000
 11
32.000000
 20
-51.791000
 21
-51.962000
  0
LINE
 10
32.000000
 11
32.338000
 20
-51.962000
 21
-52.207000
  0
LINE
 10
32.338000
 11
32.618000
 20
-52.207000
 21
-52.518000
  0
LINE
 10
32.618000
 11
32.827000
 20
-52.518000
 21
-52.880000
  0
LINE
 10
32.827000
 11
32.956000
 20
-52.880000
 21
-53.278000
  0
LINE
 10
32.956000
 11
33.000000
 20
-53.278000
 21
-53.694000
  0
LINE
 10
33.000000
 11
32.956000
 20
-53.694000
 21
-54.109000
  0
LINE
 10
32.956000
 11
32.827000
 20
-54.109000
 21
-54.507000
  0
LINE
 10
32.827000
 11
32.618000
 20
-54.507000
 21
-54.869000
  0
LINE
 10
32.618000
 11
32.338000
 20
-54.869000
 21
-55.180000
  0
LINE
 10
32.338000
 11
32.000000
 20
-55.180000
 21
-55.426000
  0
LINE
 10
32.000000
 11
31.618000
 20
-55.426000
 21
-55.596000
  0
LINE
 10
31.618000
 11
31.209000
 20
-55.596000
 21
-55.683000
  0
LINE
 10
31.209000
 11
30.791000
 20
-55.683000
 21
-55.683000
  0
LINE
 10
30.791000
 11
30.382000
 20
-55.683000
 21
-55.596000
  0
LINE
 10
30.382000
 11
30.000000
 20
-55.596000
 21
-55.426000
  0
LINE
 10
30.000000
 11
29.662000
 20
-55.426000
 21
-55.180000
  0
LINE
 10
29.662000
 11
29.382000
 20
-55.180000
 21
-54.869000
  0
LINE
 10
29.382000
 11
29.173000
 20
-54.869000
 21
-54.507000
  0
LINE
 10
29.173000
 11
29.044000
 20
-54.507000
 21
-54.109000
  0
LINE
 10
29.044000
 11
29.000000
 20
-54.109000
 21
-53.694000
  0
LINE
 10
29.000000
 11
29.044000
 20
53.694000
 21
54.109000
  0
LINE
 10
29.044000
 11
29.173000
 20
54.109000
 21
54.507000
  0
LINE
 10
29.173000
 11
29.382000
 20
54.507000
 21
54.869000
  0
LINE
 10
29.382000
 11
29.662000
 20
54.869000
 21
55.180000
  0
LINE
 10
29.662000
 11
30.000000
 20
55.180000
 21
55.426000
  0
LINE
 10
30.000000
 11
30.382000
 20
55.426000
 21
55.596000
  0
LINE
 10
30.382000
 11
30.791000
 20
55.596000
 21
55.683000
  0
LINE
 10
30.791000
 11
31.209000
 20
55.683000
 21
55.683000
  0
LINE
 10
31.209000
 11
31.618000
 20
55.683000
 21
55.596000
  0
LINE
 10
31.618000
 11
32.000000
 20
55.596000
 21
55.426000
  0
LINE
 10
32.000000
 11
32.338000
 20
55.426000
 21
55.180000
  0
LINE
 10
32.338000
 11
32.618000
 20
55.180000
 21
54.869000
  0
LINE
 10
32.618000
 11
32.827000
 20
54.869000
 21
54.507000
  0
LINE
 10
32.827000
 11
32.956000
 20
54.507000
 21
54.109000
  0
LINE
 10
32.956000
 11
33.000000
 20
54.109000
 21
53.694000
  0
LINE
 10
33.000000
 11
32.956000
 20
53.694000
 21
53.278000
  0
LINE
 10
32.956000
 11
32.827000
 20
53.278000
 21
52.880000
  0
LINE
 10
32.827000
 11
32.618000
 20
52.880000
 21
52.518000
  0
LINE
 10
32.618000
 11
32.338000
 20
52.518000
 21
52.207000
  0
LINE
 10
32.338000
 11
32.000000
 20
52.207000
 21
51.962000
  0
LINE
 10
32.000000
 11
31.618000
 20
51.962000
 21
51.791000
  0
LINE
 10
31.618000
 11
31.209000
 20
51.791000
 21
51.705000
  0
LINE
 10
31.209000
 11
30.791000
 20
51.705000
 21
51.705000
  0
LINE
 10
30.791000
 11
30.382000
 20
51.705000
 21
51.791000
  0
LINE
 10
30.382000
 11
30.000000
 20
51.791000
 21
51.962000
  0
LINE
 10
30.000000
 11
29.662000
 20
51.962000
 21
52.207000
  0
LINE
 10
29.662000
 11
29.382000
 20
52.207000
 21
52.518000
  0
LINE
 10
29.382000
 11
29.173000
 20
52.518000
 21
52.880000
  0
LINE
 10
29.173000
 11
29.044000
 20
52.880000
 21
53.278000
  0
LINE
 10
29.044000
 11
29.000000
 20
53.278000
 21
53.694000
  0
LINE
 10
56.266000
 11
56.280000
 20
-21.345000
 21
-20.927000
  0
LINE
 10
56.280000
 11
56.382000
 20
-20.927000
 21
-20.521000
  0
LINE
 10
56.382000
 11
56.565000
 20
-20.521000
 21
-20.145000
  0
LINE
 10
56.565000
 11
56.822000
 20
-20.145000
 21
-19.816000
  0
LINE
 10
56.822000
 11
57.143000
 20
-19.816000
 21
-19.547000
  0
LINE
 10
57.143000
 11
57.512000
 20
-19.547000
 21
-19.351000
  0
LINE
 10
57.512000
 11
57.914000
 20
-19.351000
 21
-19.236000
  0
LINE
 10
57.914000
 11
58.331000
 20
-19.236000
 21
-19.206000
  0
LINE
 10
58.331000
 11
58.745000
 20
-19.206000
 21
-19.265000
  0
LINE
 10
58.745000
 11
59.138000
 20
-19.265000
 21
-19.408000
  0
LINE
 10
59.138000
 11
59.492000
 20
-19.408000
 21
-19.629000
  0
LINE
 10
59.492000
 11
59.793000
 20
-19.629000
 21
-19.920000
  0
LINE
 10
59.793000
 11
60.027000
 20
-19.920000
 21
-20.266000
  0
LINE
 10
60.027000
 11
60.183000
 20
-20.266000
 21
-20.654000
  0
LINE
 10
60.183000
 11
60.256000
 20
-20.654000
 21
-21.066000
  0
LINE
 10
60.256000
 11
60.241000
 20
-21.066000
 21
-21.484000
  0
LINE
 10
60.241000
 11
60.140000
 20
-21.484000
 21
-21.889000
  0
LINE
 10
60.140000
 11
59.957000
 20
-21.889000
 21
-22.265000
  0
LINE
 10
59.957000
 11
59.700000
 20
-22.265000
 21
-22.595000
  0
LINE
 10
59.700000
 11
59.379000
 20
-22.595000
 21
-22.863000
  0
LINE
 10
59.379000
 11
59.010000
 20
-22.863000
 21
-23.060000
  0
LINE
 10
59.010000
 11
58.608000
 20
-23.060000
 21
-23.175000
  0
LINE
 10
58.608000
 11
58.191000
 20
-23.175000
 21
-23.204000
  0
LINE
 10
58.191000
 11
57.777000
 20
-23.204000
 21
-23.146000
  0
LINE
 10
57.777000
 11
57.384000
 20
-23.146000
 21
-23.003000
  0
LINE
 10
57.384000
 11
57.030000
 20
-23.003000
 21
-22.781000
  0
LINE
 10
57.030000
 11
56.729000
 20
-22.781000
 21
-22.491000
  0
LINE
 10
56.729000
 11
56.495000
 20
-22.491000
 21
-22.144000
  0
LINE
 10
56.495000
 11
56.338000
 20
-22.144000
 21
-21.757000
  0
LINE
 10
56.338000
 11
56.266000
 20
-21.757000
 21
-21.345000
  0
LINE
 10
56.266000
 11
56.338000
 20
21.345000
 21
21.757000
  0
LINE
 10
56.338000
 11
56.495000
 20
21.757000
 21
22.144000
  0
LINE
 10
56.495000
 11
56.729000
 20
22.144000
 21
22.491000
  0
LINE
 10
56.729000
 11
57.030000
 20
22.491000
 21
22.781000
  0
LINE
 10
57.030000
 11
57.384000
 20
22.781000
 21
23.003000
  0
LINE
 10
57.384000
 11
57.777000
 20
23.003000
 21
23.146000
  0
LINE
 10
57.777000
 11
58.191000
 20
23.146000
 21
23.204000
  0
LINE
 10
58.191000
 11
58.608000
 20
23.204000
 21
23.175000
  0
LINE
 10
58.608000
 11
59.010000
 20
23.175000
 21
23.060000
  0
LINE
 10
59.010000
 11
59.379000
 20
23.060000
 21
22.863000
  0
LINE
 10
59.379000
 11
59.700000
 20
22.863000
 21
22.595000
  0
LINE
 10
59.700000
 11
59.957000
 20
22.595000
 21
22.265000
  0
LINE
 10
59.957000
 11
60.140000
 20
22.265000
 21
21.889000
  0
LINE
 10
60.140000
 11
60.241000
 20
21.889000
 21
21.484000
  0
LINE
 10
60.241000
 11
60.256000
 20
21.484000
 21
21.066000
  0
LINE
 10
60.256000
 11
60.183000
 20
21.066000
 21
20.654000
  0
LINE
 10
60.183000
 11
60.027000
 20
20.654000
 21
20.266000
  0
LINE
 10
60.027000
 11
59.793000
 20
20.266000
 21
19.920000
  0
LINE
 10
59.793000
 11
59.492000
 20
19.920000
 21
19.629000
  0
LINE
 10
59.492000
 11
59.138000
 20
19.629000
 21
19.408000
  0
LINE
 10
59.138000
 11
58.745000
 20
19.408000
 21
19.265000
  0
LINE
 10
58.745000
 11
58.331000
 20
19.265000
 21
19.206000
  0
LINE
 10
58.331000
 11
57.914000
 20
19.206000
 21
19.236000
  0
LINE
 10
57.914000
 11
57.512000
 20
19.236000
 21
19.351000
  0
LINE
 10
57.512000
 11
57.143000
 20
19.351000
 21
19.547000
  0
LINE
 10
57.143000
 11
56.822000
 20
19.547000
 21
19.816000
  0
LINE
 10
56.822000
 11
56.565000
 20
19.816000
 21
20.145000
  0
LINE
 10
56.565000
 11
56.382000
 20
20.145000
 21
20.521000
  0
LINE
 10
56.382000
 11
56.280000
 20
20.521000
 21
20.927000
  0
LINE
 10
56.280000
 11
56.266000
 20
20.927000
 21
21.345000
  0
ENDSEC
  0
EOF
