  0
SECTION
  2
ENTITIES
  0
LINE
 10
-50.000000
 11
-48.907000
 20
0.000000
 21
10.396000
  0
LINE
 10
-48.907000
 11
-45.677000
 20
10.396000
 21
20.337000
  0
LINE
 10
-45.677000
 11
-40.451000
 20
20.337000
 21
29.389000
  0
LINE
 10
-40.451000
 11
-33.457000
 20
29.389000
 21
37.157000
  0
LINE
 10
-33.457000
 11
-25.000000
 20
37.157000
 21
43.301000
  0
LINE
 10
-25.000000
 11
-15.451000
 20
43.301000
 21
47.553000
  0
LINE
 10
-15.451000
 11
-5.226000
 20
47.553000
 21
49.726000
  0
LINE
 10
-5.226000
 11
5.226000
 20
49.726000
 21
49.726000
  0
LINE
 10
5.226000
 11
15.451000
 20
49.726000
 21
47.553000
  0
LINE
 10
15.451000
 11
25.000000
 20
47.553000
 21
43.301000
  0
LINE
 10
25.000000
 11
33.457000
 20
43.301000
 21
37.157000
  0
LINE
 10
33.457000
 11
40.451000
 20
37.157000
 21
29.389000
  0
LINE
 10
40.451000
 11
45.677000
 20
29.389000
 21
20.337000
  0
LINE
 10
45.677000
 11
48.907000
 20
20.337000
 21
10.396000
  0
LINE
 10
48.907000
 11
50.000000
 20
10.396000
 21
0.000000
  0
LINE
 10
50.000000
 11
48.907000
 20
0.000000
 21
-10.396000
  0
LINE
 10
48.907000
 11
45.677000
 20
-10.396000
 21
-20.337000
  0
LINE
 10
45.677000
 11
40.451000
 20
-20.337000
 21
-29.389000
  0
LINE
 10
40.451000
 11
33.457000
 20
-29.389000
 21
-37.157000
  0
LINE
 10
33.457000
 11
25.000000
 20
-37.157000
 21
-43.301000
  0
LINE
 10
25.000000
 11
15.451000
 20
-43.301000
 21
-47.553000
  0
LINE
 10
15.451000
 11
5.226000
 20
-47.553000
 21
-49.726000
  0
LINE
 10
5.226000
 11
-5.226000
 20
-49.726000
 21
-49.726000
  0
LINE
 10
-5.226000
 11
-15.451000
 20
-49.726000
 21
-47.553000
  0
LINE
 10
-15.451000
 11
-25.000000
 20
-47.553000
 21
-43.301000
  0
LINE
 10
-25.000000
 11
-33.457000
 20
-43.301000
 21
-37.157000
  0
LINE
 10
-33.457000
 11
-40.451000
 20
-37.157000
 21
-29.389000
  0
LINE
 10
-40.451000
 11
-45.677000
 20
-29.389000
 21
-20.337000
  0
LINE
 10
-45.677000
 11
-48.907000
 20
-20.337000
 21
-10.396000
  0
LINE
 10
-48.907000
 11
-50.000000
 20
-10.396000
 21
0.000000
  0
LINE
 10
-34.000000
 11
-33.956000
 20
0.000000
 21
0.416000
  0
LINE
 10
-33.956000
 11
-33.827000
 20
0.416000
 21
0.813000
  0
LINE
 10
-33.827000
 11
-33.618000
 20
0.813000
 21
1.176000
  0
LINE
 10
-33.618000
 11
-33.338000
 20
1.176000
 21
1.486000
  0
LINE
 10
-33.338000
 11
-33.000000
 20
1.486000
 21
1.732000
  0
LINE
 10
-33.000000
 11
-32.618000
 20
1.732000
 21
1.902000
  0
LINE
 10
-32.618000
 11
-32.209000
 20
1.902000
 21
1.989000
  0
LINE
 10
-32.209000
 11
-31.791000
 20
1.989000
 21
1.989000
  0
LINE
 10
-31.791000
 11
-31.382000
 20
1.989000
 21
1.902000
  0
LINE
 10
-31.382000
 11
-31.000000
 20
1.902000
 21
1.732000
  0
LINE
 10
-31.000000
 11
-30.662000
 20
1.732000
 21
1.486000
  0
LINE
 10
-30.662000
 11
-30.382000
 20
1.486000
 21
1.176000
  0
LINE
 10
-30.382000
 11
-30.173000
 20
1.176000
 21
0.813000
  0
LINE
 10
-30.173000
 11
-30.044000
 20
0.813000
 21
0.416000
  0
LINE
 10
-30.044000
 11
-30.000000
 20
0.416000
 21
0.000000
  0
LINE
 10
-30.000000
 11
-30.044000
 20
0.000000
 21
-0.416000
  0
LINE
 10
-30.044000
 11
-30.173000
 20
-0.416000
 21
-0.813000
  0
LINE
 10
-30.173000
 11
-30.382000
 20
-0.813000
 21
-1.176000
  0
LINE
 10
-30.382000
 11
-30.662000
 20
-1.176000
 21
-1.486000
  0
LINE
 10
-30.662000
 11
-31.000000
 20
-1.486000
 21
-1.732000
  0
LINE
 10
-31.000000
 11
-31.382000
 20
-1.732000
 21
-1.902000
  0
LINE
 10
-31.382000
 11
-31.791000
 20
-1.902000
 21
-1.989000
  0
LINE
 10
-31.791000
 11
-32.209000
 20
-1.989000
 21
-1.989000
  0
LINE
 10
-32.209000
 11
-32.618000
 20
-1.989000
 21
-1.902000
  0
LINE
 10
-32.618000
 11
-33.000000
 20
-1.902000
 21
-1.732000
  0
LINE
 10
-33.000000
 11
-33.338000
 20
-1.732000
 21
-1.486000
  0
LINE
 10
-33.338000
 11
-33.618000
 20
-1.486000
 21
-1.176000
  0
LINE
 10
-33.618000
 11
-33.827000
 20
-1.176000
 21
-0.813000
  0
LINE
 10
-33.827000
 11
-33.956000
 20
-0.813000
 21
-0.416000
  0
LINE
 10
-33.956000
 11
-34.000000
 20
-0.416000
 21
0.000000
  0
LINE
 10
-5.000000
 11
-5.000000
 20
-5.000000
 21
5.000000
  0
LINE
 10
-5.000000
 11
5.000000
 20
5.000000
 21
5.000000
  0
LINE
 10
5.000000
 11
5.000000
 20
5.000000
 21
-5.000000
  0
LINE
 10
5.000000
 11
-5.000000
 20
-5.000000
 21
-5.000000
  0
LINE
 10
-1.989000
 11
-1.989000
 20
-32.209000
 21
-31.791000
  0
LINE
 10
-1.989000
 11
-1.902000
 20
-31.791000
 21
-31.382000
  0
LINE
 10
-1.902000
 11
-1.732000
 20
-31.382000
 21
-31.000000
  0
LINE
 10
-1.732000
 11
-1.486000
 20
-31.000000
 21
-30.662000
  0
LINE
 10
-1.486000
 11
-1.176000
 20
-30.662000
 21
-30.382000
  0
LINE
 10
-1.176000
 11
-0.813000
 20
-30.382000
 21
-30.173000
  0
LINE
 10
-0.813000
 11
-0.416000
 20
-30.173000
 21
-30.044000
  0
LINE
 10
-0.416000
 11
0.000000
 20
-30.044000
 21
-30.000000
  0
LINE
 10
0.000000
 11
0.416000
 20
-30.000000
 21
-30.044000
  0
LINE
 10
0.416000
 11
0.813000
 20
-30.044000
 21
-30.173000
  0
LINE
 10
0.813000
 11
1.176000
 20
-30.173000
 21
-30.382000
  0
LINE
 10
1.176000
 11
1.486000
 20
-30.382000
 21
-30.662000
  0
LINE
 10
1.486000
 11
1.732000
 20
-30.662000
 21
-31.000000
  0
LINE
 10
1.732000
 11
1.902000
 20
-31.000000
 21
-31.382000
  0
LINE
 10
1.902000
 11
1.989000
 20
-31.382000
 21
-31.791000
  0
LINE
 10
1.989000
 11
1.989000
 20
-31.791000
 21
-32.209000
  0
LINE
 10
1.989000
 11
1.902000
 20
-32.209000
 21
-32.618000
  0
LINE
 10
1.902000
 11
1.732000
 20
-32.618000
 21
-33.000000
  0
LINE
 10
1.732000
 11
1.486000
 20
-33.000000
 21
-33.338000
  0
LINE
 10
1.486000
 11
1.176000
 20
-33.338000
 21
-33.618000
  0
LINE
 10
1.176000
 11
0.813000
 20
-33.618000
 21
-33.827000
  0
LINE
 10
0.813000
 11
0.416000
 20
-33.827000
 21
-33.956000
  0
LINE
 10
0.416000
 11
0.000000
 20
-33.956000
 21
-34.000000
  0
LINE
 10
0.000000
 11
-0.416000
 20
-34.000000
 21
-33.956000
  0
LINE
 10
-0.416000
 11
-0.813000
 20
-33.956000
 21
-33.827000
  0
LINE
 10
-0.813000
 11
-1.176000
 20
-33.827000
 21
-33.618000
  0
LINE
 10
-1.176000
 11
-1.486000
 20
-33.618000
 21
-33.338000
  0
LINE
 10
-1.486000
 11
-1.732000
 20
-33.338000
 21
-33.000000
  0
LINE
 10
-1.732000
 11
-1.902000
 20
-33.000000
 21
-32.618000
  0
LINE
 10
-1.902000
 11
-1.989000
 20
-32.618000
 21
-32.209000
  0
LINE
 10
-1.989000
 11
-1.989000
 20
31.791000
 21
32.209000
  0
LINE
 10
-1.989000
 11
-1.902000
 20
32.209000
 21
32.618000
  0
LINE
 10
-1.902000
 11
-1.732000
 20
32.618000
 21
33.000000
  0
LINE
 10
-1.732000
 11
-1.486000
 20
33.000000
 21
33.338000
  0
LINE
 10
-1.486000
 11
-1.176000
 20
33.338000
 21
33.618000
  0
LINE
 10
-1.176000
 11
-0.813000
 20
33.618000
 21
33.827000
  0
LINE
 10
-0.813000
 11
-0.416000
 20
33.827000
 21
33.956000
  0
LINE
 10
-0.416000
 11
0.000000
 20
33.956000
 21
34.000000
  0
LINE
 10
0.000000
 11
0.416000
 20
34.000000
 21
33.956000
  0
LINE
 10
0.416000
 11
0.813000
 20
33.956000
 21
33.827000
  0
LINE
 10
0.813000
 11
1.176000
 20
33.827000
 21
33.618000
  0
LINE
 10
1.176000
 11
1.486000
 20
33.618000
 21
33.338000
  0
LINE
 10
1.486000
 11
1.732000
 20
33.338000
 21
33.000000
  0
LINE
 10
1.732000
 11
1.902000
 20
33.000000
 21
32.618000
  0
LINE
 10
1.902000
 11
1.989000
 20
32.618000
 21
32.209000
  0
LINE
 10
1.989000
 11
1.989000
 20
32.209000
 21
31.791000
  0
LINE
 10
1.989000
 11
1.902000
 20
31.791000
 21
31.382000
  0
LINE
 10
1.902000
 11
1.732000
 20
31.382000
 21
31.000000
  0
LINE
 10
1.732000
 11
1.486000
 20
31.000000
 21
30.662000
  0
LINE
 10
1.486000
 11
1.176000
 20
30.662000
 21
30.382000
  0
LINE
 10
1.176000
 11
0.813000
 20
30.382000
 21
30.173000
  0
LINE
 10
0.813000
 11
0.416000
 20
30.173000
 21
30.044000
  0
LINE
 10
0.416000
 11
0.000000
 20
30.044000
 21
30.000000
  0
LINE
 10
0.000000
 11
-0.416000
 20
30.000000
 21
30.044000
  0
LINE
 10
-0.416000
 11
-0.813000
 20
30.044000
 21
30.173000
  0
LINE
 10
-0.813000
 11
-1.176000
 20
30.173000
 21
30.382000
  0
LINE
 10
-1.176000
 11
-1.486000
 20
30.382000
 21
30.662000
  0
LINE
 10
-1.486000
 11
-1.732000
 20
30.662000
 21
31.000000
  0
LINE
 10
-1.732000
 11
-1.902000
 20
31.000000
 21
31.382000
  0
LINE
 10
-1.902000
 11
-1.989000
 20
31.382000
 21
31.791000
  0
LINE
 10
30.000000
 11
30.044000
 20
0.000000
 21
0.416000
  0
LINE
 10
30.044000
 11
30.173000
 20
0.416000
 21
0.813000
  0
LINE
 10
30.173000
 11
30.382000
 20
0.813000
 21
1.176000
  0
LINE
 10
30.382000
 11
30.662000
 20
1.176000
 21
1.486000
  0
LINE
 10
30.662000
 11
31.000000
 20
1.486000
 21
1.732000
  0
LINE
 10
31.000000
 11
31.382000
 20
1.732000
 21
1.902000
  0
LINE
 10
31.382000
 11
31.791000
 20
1.902000
 21
1.989000
  0
LINE
 10
31.791000
 11
32.209000
 20
1.989000
 21
1.989000
  0
LINE
 10
32.209000
 11
32.618000
 20
1.989000
 21
1.902000
  0
LINE
 10
32.618000
 11
33.000000
 20
1.902000
 21
1.732000
  0
LINE
 10
33.000000
 11
33.338000
 20
1.732000
 21
1.486000
  0
LINE
 10
33.338000
 11
33.618000
 20
1.486000
 21
1.176000
  0
LINE
 10
33.618000
 11
33.827000
 20
1.176000
 21
0.813000
  0
LINE
 10
33.827000
 11
33.956000
 20
0.813000
 21
0.416000
  0
LINE
 10
33.956000
 11
34.000000
 20
0.416000
 21
0.000000
  0
LINE
 10
34.000000
 11
33.956000
 20
0.000000
 21
-0.416000
  0
LINE
 10
33.956000
 11
33.827000
 20
-0.416000
 21
-0.813000
  0
LINE
 10
33.827000
 11
33.618000
 20
-0.813000
 21
-1.176000
  0
LINE
 10
33.618000
 11
33.338000
 20
-1.176000
 21
-1.486000
  0
LINE
 10
33.338000
 11
33.000000
 20
-1.486000
 21
-1.732000
  0
LINE
 10
33.000000
 11
32.618000
 20
-1.732000
 21
-1.902000
  0
LINE
 10
32.618000
 11
32.209000
 20
-1.902000
 21
-1.989000
  0
LINE
 10
32.209000
 11
31.791000
 20
-1.989000
 21
-1.989000
  0
LINE
 10
31.791000
 11
31.382000
 20
-1.989000
 21
-1.902000
  0
LINE
 10
31.382000
 11
31.000000
 20
-1.902000
 21
-1.732000
  0
LINE
 10
31.000000
 11
30.662000
 20
-1.732000
 21
-1.486000
  0
LINE
 10
30.662000
 11
30.382000
 20
-1.486000
 21
-1.176000
  0
LINE
 10
30.382000
 11
30.173000
 20
-1.176000
 21
-0.813000
  0
LINE
 10
30.173000
 11
30.044000
 20
-0.813000
 21
-0.416000
  0
LINE
 10
30.044000
 11
30.000000
 20
-0.416000
 21
0.000000
  0
ENDSEC
  0
EOF
