  0
SECTION
  2
ENTITIES
  0
LINE
 10
-37.000000
 11
-36.891000
 20
0.000000
 21
1.040000
  0
LINE
 10
-36.891000
 11
-36.568000
 20
1.040000
 21
2.034000
  0
LINE
 10
-36.568000
 11
-36.045000
 20
2.034000
 21
2.939000
  0
LINE
 10
-36.045000
 11
-35.346000
 20
2.939000
 21
3.716000
  0
LINE
 10
-35.346000
 11
-34.500000
 20
3.716000
 21
4.330000
  0
LINE
 10
-34.500000
 11
-33.545000
 20
4.330000
 21
4.755000
  0
LINE
 10
-33.545000
 11
-32.523000
 20
4.755000
 21
4.973000
  0
LINE
 10
-32.523000
 11
-31.477000
 20
4.973000
 21
4.973000
  0
LINE
 10
-31.477000
 11
-30.455000
 20
4.973000
 21
4.755000
  0
LINE
 10
-30.455000
 11
-29.500000
 20
4.755000
 21
4.330000
  0
LINE
 10
-29.500000
 11
-28.654000
 20
4.330000
 21
3.716000
  0
LINE
 10
-28.654000
 11
-27.955000
 20
3.716000
 21
2.939000
  0
LINE
 10
-27.955000
 11
-27.432000
 20
2.939000
 21
2.034000
  0
LINE
 10
-27.432000
 11
-27.109000
 20
2.034000
 21
1.040000
  0
LINE
 10
-27.109000
 11
-27.000000
 20
1.040000
 21
0.000000
  0
LINE
 10
-27.000000
 11
-27.109000
 20
0.000000
 21
-1.040000
  0
LINE
 10
-27.109000
 11
-27.432000
 20
-1.040000
 21
-2.034000
  0
LINE
 10
-27.432000
 11
-27.955000
 20
-2.034000
 21
-2.939000
  0
LINE
 10
-27.955000
 11
-28.654000
 20
-2.939000
 21
-3.716000
  0
LINE
 10
-28.654000
 11
-29.500000
 20
-3.716000
 21
-4.330000
  0
LINE
 10
-29.500000
 11
-30.455000
 20
-4.330000
 21
-4.755000
  0
LINE
 10
-30.455000
 11
-31.477000
 20
-4.755000
 21
-4.973000
  0
LINE
 10
-31.477000
 11
-32.523000
 20
-4.973000
 21
-4.973000
  0
LINE
 10
-32.523000
 11
-33.545000
 20
-4.973000
 21
-4.755000
  0
LINE
 10
-33.545000
 11
-34.500000
 20
-4.755000
 21
-4.330000
  0
LINE
 10
-34.500000
 11
-35.346000
 20
-4.330000
 21
-3.716000
  0
LINE
 10
-35.346000
 11
-36.045000
 20
-3.716000
 21
-2.939000
  0
LINE
 10
-36.045000
 11
-36.568000
 20
-2.939000
 21
-2.034000
  0
LINE
 10
-36.568000
 11
-36.891000
 20
-2.034000
 21
-1.040000
  0
LINE
 10
-36.891000
 11
-37.000000
 20
-1.040000
 21
0.000000
  0
LINE
 10
-34.000000
 11
-33.956000
 20
0.000000
 21
0.416000
  0
LINE
 10
-33.956000
 11
-33.827000
 20
0.416000
 21
0.813000
  0
LINE
 10
-33.827000
 11
-33.618000
 20
0.813000
 21
1.176000
  0
LINE
 10
-33.618000
 11
-33.338000
 20
1.176000
 21
1.486000
  0
LINE
 10
-33.338000
 11
-33.000000
 20
1.486000
 21
1.732000
  0
LINE
 10
-33.000000
 11
-32.618000
 20
1.732000
 21
1.902000
  0
LINE
 10
-32.618000
 11
-32.209000
 20
1.902000
 21
1.989000
  0
LINE
 10
-32.209000
 11
-31.791000
 20
1.989000
 21
1.989000
  0
LINE
 10
-31.791000
 11
-31.382000
 20
1.989000
 21
1.902000
  0
LINE
 10
-31.382000
 11
-31.000000
 20
1.902000
 21
1.732000
  0
LINE
 10
-31.000000
 11
-30.662000
 20
1.732000
 21
1.486000
  0
LINE
 10
-30.662000
 11
-30.382000
 20
1.486000
 21
1.176000
  0
LINE
 10
-30.382000
 11
-30.173000
 20
1.176000
 21
0.813000
  0
LINE
 10
-30.173000
 11
-30.044000
 20
0.813000
 21
0.416000
  0
LINE
 10
-30.044000
 11
-30.000000
 20
0.416000
 21
0.000000
  0
LINE
 10
-30.000000
 11
-30.044000
 20
0.000000
 21
-0.416000
  0
LINE
 10
-30.044000
 11
-30.173000
 20
-0.416000
 21
-0.813000
  0
LINE
 10
-30.173000
 11
-30.382000
 20
-0.813000
 21
-1.176000
  0
LINE
 10
-30.382000
 11
-30.662000
 20
-1.176000
 21
-1.486000
  0
LINE
 10
-30.662000
 11
-31.000000
 20
-1.486000
 21
-1.732000
  0
LINE
 10
-31.000000
 11
-31.382000
 20
-1.732000
 21
-1.902000
  0
LINE
 10
-31.382000
 11
-31.791000
 20
-1.902000
 21
-1.989000
  0
LINE
 10
-31.791000
 11
-32.209000
 20
-1.989000
 21
-1.989000
  0
LINE
 10
-32.209000
 11
-32.618000
 20
-1.989000
 21
-1.902000
  0
LINE
 10
-32.618000
 11
-33.000000
 20
-1.902000
 21
-1.732000
  0
LINE
 10
-33.000000
 11
-33.338000
 20
-1.732000
 21
-1.486000
  0
LINE
 10
-33.338000
 11
-33.618000
 20
-1.486000
 21
-1.176000
  0
LINE
 10
-33.618000
 11
-33.827000
 20
-1.176000
 21
-0.813000
  0
LINE
 10
-33.827000
 11
-33.956000
 20
-0.813000
 21
-0.416000
  0
LINE
 10
-33.956000
 11
-34.000000
 20
-0.416000
 21
0.000000
  0
LINE
 10
-4.973000
 11
-4.973000
 20
-32.523000
 21
-31.477000
  0
LINE
 10
-4.973000
 11
-4.755000
 20
-31.477000
 21
-30.455000
  0
LINE
 10
-4.755000
 11
-4.330000
 20
-30.455000
 21
-29.500000
  0
LINE
 10
-4.330000
 11
-3.716000
 20
-29.500000
 21
-28.654000
  0
LINE
 10
-3.716000
 11
-2.939000
 20
-28.654000
 21
-27.955000
  0
LINE
 10
-2.939000
 11
-2.034000
 20
-27.955000
 21
-27.432000
  0
LINE
 10
-2.034000
 11
-1.040000
 20
-27.432000
 21
-27.109000
  0
LINE
 10
-1.040000
 11
0.000000
 20
-27.109000
 21
-27.000000
  0
LINE
 10
0.000000
 11
1.040000
 20
-27.000000
 21
-27.109000
  0
LINE
 10
1.040000
 11
2.034000
 20
-27.109000
 21
-27.432000
  0
LINE
 10
2.034000
 11
2.939000
 20
-27.432000
 21
-27.955000
  0
LINE
 10
2.939000
 11
3.716000
 20
-27.955000
 21
-28.654000
  0
LINE
 10
3.716000
 11
4.330000
 20
-28.654000
 21
-29.500000
  0
LINE
 10
4.330000
 11
4.755000
 20
-29.500000
 21
-30.455000
  0
LINE
 10
4.755000
 11
4.973000
 20
-30.455000
 21
-31.477000
  0
LINE
 10
4.973000
 11
4.973000
 20
-31.477000
 21
-32.523000
  0
LINE
 10
4.973000
 11
4.755000
 20
-32.523000
 21
-33.545000
  0
LINE
 10
4.755000
 11
4.330000
 20
-33.545000
 21
-34.500000
  0
LINE
 10
4.330000
 11
3.716000
 20
-34.500000
 21
-35.346000
  0
LINE
 10
3.716000
 11
2.939000
 20
-35.346000
 21
-36.045000
  0
LINE
 10
2.939000
 11
2.034000
 20
-36.045000
 21
-36.568000
  0
LINE
 10
2.034000
 11
1.040000
 20
-36.568000
 21
-36.891000
  0
LINE
 10
1.040000
 11
0.000000
 20
-36.891000
 21
-37.000000
  0
LINE
 10
0.000000
 11
-1.040000
 20
-37.000000
 21
-36.891000
  0
LINE
 10
-1.040000
 11
-2.034000
 20
-36.891000
 21
-36.568000
  0
LINE
 10
-2.034000
 11
-2.939000
 20
-36.568000
 21
-36.045000
  0
LINE
 10
-2.939000
 11
-3.716000
 20
-36.045000
 21
-35.346000
  0
LINE
 10
-3.716000
 11
-4.330000
 20
-35.346000
 21
-34.500000
  0
LINE
 10
-4.330000
 11
-4.755000
 20
-34.500000
 21
-33.545000
  0
LINE
 10
-4.755000
 11
-4.973000
 20
-33.545000
 21
-32.523000
  0
LINE
 10
-4.973000
 11
-4.973000
 20
31.477000
 21
32.523000
  0
LINE
 10
-4.973000
 11
-4.755000
 20
32.523000
 21
33.545000
  0
LINE
 10
-4.755000
 11
-4.330000
 20
33.545000
 21
34.500000
  0
LINE
 10
-4.330000
 11
-3.716000
 20
34.500000
 21
35.346000
  0
LINE
 10
-3.716000
 11
-2.939000
 20
35.346000
 21
36.045000
  0
LINE
 10
-2.939000
 11
-2.034000
 20
36.045000
 21
36.568000
  0
LINE
 10
-2.034000
 11
-1.040000
 20
36.568000
 21
36.891000
  0
LINE
 10
-1.040000
 11
0.000000
 20
36.891000
 21
37.000000
  0
LINE
 10
0.000000
 11
1.040000
 20
37.000000
 21
36.891000
  0
LINE
 10
1.040000
 11
2.034000
 20
36.891000
 21
36.568000
  0
LINE
 10
2.034000
 11
2.939000
 20
36.568000
 21
36.045000
  0
LINE
 10
2.939000
 11
3.716000
 20
36.045000
 21
35.346000
  0
LINE
 10
3.716000
 11
4.330000
 20
35.346000
 21
34.500000
  0
LINE
 10
4.330000
 11
4.755000
 20
34.500000
 21
33.545000
  0
LINE
 10
4.755000
 11
4.973000
 20
33.545000
 21
32.523000
  0
LINE
 10
4.973000
 11
4.973000
 20
32.523000
 21
31.477000
  0
LINE
 10
4.973000
 11
4.755000
 20
31.477000
 21
30.455000
  0
LINE
 10
4.755000
 11
4.330000
 20
30.455000
 21
29.500000
  0
LINE
 10
4.330000
 11
3.716000
 20
29.500000
 21
28.654000
  0
LINE
 10
3.716000
 11
2.939000
 20
28.654000
 21
27.955000
  0
LINE
 10
2.939000
 11
2.034000
 20
27.955000
 21
27.432000
  0
LINE
 10
2.034000
 11
1.040000
 20
27.432000
 21
27.109000
  0
LINE
 10
1.040000
 11
0.000000
 20
27.109000
 21
27.000000
  0
LINE
 10
0.000000
 11
-1.040000
 20
27.000000
 21
27.109000
  0
LINE
 10
-1.040000
 11
-2.034000
 20
27.109000
 21
27.432000
  0
LINE
 10
-2.034000
 11
-2.939000
 20
27.432000
 21
27.955000
  0
LINE
 10
-2.939000
 11
-3.716000
 20
27.955000
 21
28.654000
  0
LINE
 10
-3.716000
 11
-4.330000
 20
28.654000
 21
29.500000
  0
LINE
 10
-4.330000
 11
-4.755000
 20
29.500000
 21
30.455000
  0
LINE
 10
-4.755000
 11
-4.973000
 20
30.455000
 21
31.477000
  0
LINE
 10
-1.989000
 11
-1.989000
 20
-32.209000
 21
-31.791000
  0
LINE
 10
-1.989000
 11
-1.902000
 20
-31.791000
 21
-31.382000
  0
LINE
 10
-1.902000
 11
-1.732000
 20
-31.382000
 21
-31.000000
  0
LINE
 10
-1.732000
 11
-1.486000
 20
-31.000000
 21
-30.662000
  0
LINE
 10
-1.486000
 11
-1.176000
 20
-30.662000
 21
-30.382000
  0
LINE
 10
-1.176000
 11
-0.813000
 20
-30.382000
 21
-30.173000
  0
LINE
 10
-0.813000
 11
-0.416000
 20
-30.173000
 21
-30.044000
  0
LINE
 10
-0.416000
 11
0.000000
 20
-30.044000
 21
-30.000000
  0
LINE
 10
0.000000
 11
0.416000
 20
-30.000000
 21
-30.044000
  0
LINE
 10
0.416000
 11
0.813000
 20
-30.044000
 21
-30.173000
  0
LINE
 10
0.813000
 11
1.176000
 20
-30.173000
 21
-30.382000
  0
LINE
 10
1.176000
 11
1.486000
 20
-30.382000
 21
-30.662000
  0
LINE
 10
1.486000
 11
1.732000
 20
-30.662000
 21
-31.000000
  0
LINE
 10
1.732000
 11
1.902000
 20
-31.000000
 21
-31.382000
  0
LINE
 10
1.902000
 11
1.989000
 20
-31.382000
 21
-31.791000
  0
LINE
 10
1.989000
 11
1.989000
 20
-31.791000
 21
-32.209000
  0
LINE
 10
1.989000
 11
1.902000
 20
-32.209000
 21
-32.618000
  0
LINE
 10
1.902000
 11
1.732000
 20
-32.618000
 21
-33.000000
  0
LINE
 10
1.732000
 11
1.486000
 20
-33.000000
 21
-33.338000
  0
LINE
 10
1.486000
 11
1.176000
 20
-33.338000
 21
-33.618000
  0
LINE
 10
1.176000
 11
0.813000
 20
-33.618000
 21
-33.827000
  0
LINE
 10
0.813000
 11
0.416000
 20
-33.827000
 21
-33.956000
  0
LINE
 10
0.416000
 11
0.000000
 20
-33.956000
 21
-34.000000
  0
LINE
 10
0.000000
 11
-0.416000
 20
-34.000000
 21
-33.956000
  0
LINE
 10
-0.416000
 11
-0.813000
 20
-33.956000
 21
-33.827000
  0
LINE
 10
-0.813000
 11
-1.176000
 20
-33.827000
 21
-33.618000
  0
LINE
 10
-1.176000
 11
-1.486000
 20
-33.618000
 21
-33.338000
  0
LINE
 10
-1.486000
 11
-1.732000
 20
-33.338000
 21
-33.000000
  0
LINE
 10
-1.732000
 11
-1.902000
 20
-33.000000
 21
-32.618000
  0
LINE
 10
-1.902000
 11
-1.989000
 20
-32.618000
 21
-32.209000
  0
LINE
 10
-1.989000
 11
-1.989000
 20
31.791000
 21
32.209000
  0
LINE
 10
-1.989000
 11
-1.902000
 20
32.209000
 21
32.618000
  0
LINE
 10
-1.902000
 11
-1.732000
 20
32.618000
 21
33.000000
  0
LINE
 10
-1.732000
 11
-1.486000
 20
33.000000
 21
33.338000
  0
LINE
 10
-1.486000
 11
-1.176000
 20
33.338000
 21
33.618000
  0
LINE
 10
-1.176000
 11
-0.813000
 20
33.618000
 21
33.827000
  0
LINE
 10
-0.813000
 11
-0.416000
 20
33.827000
 21
33.956000
  0
LINE
 10
-0.416000
 11
0.000000
 20
33.956000
 21
34.000000
  0
LINE
 10
0.000000
 11
0.416000
 20
34.000000
 21
33.956000
  0
LINE
 10
0.416000
 11
0.813000
 20
33.956000
 21
33.827000
  0
LINE
 10
0.813000
 11
1.176000
 20
33.827000
 21
33.618000
  0
LINE
 10
1.176000
 11
1.486000
 20
33.618000
 21
33.338000
  0
LINE
 10
1.486000
 11
1.732000
 20
33.338000
 21
33.000000
  0
LINE
 10
1.732000
 11
1.902000
 20
33.000000
 21
32.618000
  0
LINE
 10
1.902000
 11
1.989000
 20
32.618000
 21
32.209000
  0
LINE
 10
1.989000
 11
1.989000
 20
32.209000
 21
31.791000
  0
LINE
 10
1.989000
 11
1.902000
 20
31.791000
 21
31.382000
  0
LINE
 10
1.902000
 11
1.732000
 20
31.382000
 21
31.000000
  0
LINE
 10
1.732000
 11
1.486000
 20
31.000000
 21
30.662000
  0
LINE
 10
1.486000
 11
1.176000
 20
30.662000
 21
30.382000
  0
LINE
 10
1.176000
 11
0.813000
 20
30.382000
 21
30.173000
  0
LINE
 10
0.813000
 11
0.416000
 20
30.173000
 21
30.044000
  0
LINE
 10
0.416000
 11
0.000000
 20
30.044000
 21
30.000000
  0
LINE
 10
0.000000
 11
-0.416000
 20
30.000000
 21
30.044000
  0
LINE
 10
-0.416000
 11
-0.813000
 20
30.044000
 21
30.173000
  0
LINE
 10
-0.813000
 11
-1.176000
 20
30.173000
 21
30.382000
  0
LINE
 10
-1.176000
 11
-1.486000
 20
30.382000
 21
30.662000
  0
LINE
 10
-1.486000
 11
-1.732000
 20
30.662000
 21
31.000000
  0
LINE
 10
-1.732000
 11
-1.902000
 20
31.000000
 21
31.382000
  0
LINE
 10
-1.902000
 11
-1.989000
 20
31.382000
 21
31.791000
  0
LINE
 10
30.000000
 11
30.044000
 20
0.000000
 21
0.416000
  0
LINE
 10
30.044000
 11
30.173000
 20
0.416000
 21
0.813000
  0
LINE
 10
30.173000
 11
30.382000
 20
0.813000
 21
1.176000
  0
LINE
 10
30.382000
 11
30.662000
 20
1.176000
 21
1.486000
  0
LINE
 10
30.662000
 11
31.000000
 20
1.486000
 21
1.732000
  0
LINE
 10
31.000000
 11
31.382000
 20
1.732000
 21
1.902000
  0
LINE
 10
31.382000
 11
31.791000
 20
1.902000
 21
1.989000
  0
LINE
 10
31.791000
 11
32.209000
 20
1.989000
 21
1.989000
  0
LINE
 10
32.209000
 11
32.618000
 20
1.989000
 21
1.902000
  0
LINE
 10
32.618000
 11
33.000000
 20
1.902000
 21
1.732000
  0
LINE
 10
33.000000
 11
33.338000
 20
1.732000
 21
1.486000
  0
LINE
 10
33.338000
 11
33.618000
 20
1.486000
 21
1.176000
  0
LINE
 10
33.618000
 11
33.827000
 20
1.176000
 21
0.813000
  0
LINE
 10
33.827000
 11
33.956000
 20
0.813000
 21
0.416000
  0
LINE
 10
33.956000
 11
34.000000
 20
0.416000
 21
0.000000
  0
LINE
 10
34.000000
 11
33.956000
 20
0.000000
 21
-0.416000
  0
LINE
 10
33.956000
 11
33.827000
 20
-0.416000
 21
-0.813000
  0
LINE
 10
33.827000
 11
33.618000
 20
-0.813000
 21
-1.176000
  0
LINE
 10
33.618000
 11
33.338000
 20
-1.176000
 21
-1.486000
  0
LINE
 10
33.338000
 11
33.000000
 20
-1.486000
 21
-1.732000
  0
LINE
 10
33.000000
 11
32.618000
 20
-1.732000
 21
-1.902000
  0
LINE
 10
32.618000
 11
32.209000
 20
-1.902000
 21
-1.989000
  0
LINE
 10
32.209000
 11
31.791000
 20
-1.989000
 21
-1.989000
  0
LINE
 10
31.791000
 11
31.382000
 20
-1.989000
 21
-1.902000
  0
LINE
 10
31.382000
 11
31.000000
 20
-1.902000
 21
-1.732000
  0
LINE
 10
31.000000
 11
30.662000
 20
-1.732000
 21
-1.486000
  0
LINE
 10
30.662000
 11
30.382000
 20
-1.486000
 21
-1.176000
  0
LINE
 10
30.382000
 11
30.173000
 20
-1.176000
 21
-0.813000
  0
LINE
 10
30.173000
 11
30.044000
 20
-0.813000
 21
-0.416000
  0
LINE
 10
30.044000
 11
30.000000
 20
-0.416000
 21
0.000000
  0
LINE
 10
27.000000
 11
27.109000
 20
0.000000
 21
1.040000
  0
LINE
 10
27.109000
 11
27.432000
 20
1.040000
 21
2.034000
  0
LINE
 10
27.432000
 11
27.955000
 20
2.034000
 21
2.939000
  0
LINE
 10
27.955000
 11
28.654000
 20
2.939000
 21
3.716000
  0
LINE
 10
28.654000
 11
29.500000
 20
3.716000
 21
4.330000
  0
LINE
 10
29.500000
 11
30.455000
 20
4.330000
 21
4.755000
  0
LINE
 10
30.455000
 11
31.477000
 20
4.755000
 21
4.973000
  0
LINE
 10
31.477000
 11
32.523000
 20
4.973000
 21
4.973000
  0
LINE
 10
32.523000
 11
33.545000
 20
4.973000
 21
4.755000
  0
LINE
 10
33.545000
 11
34.500000
 20
4.755000
 21
4.330000
  0
LINE
 10
34.500000
 11
35.346000
 20
4.330000
 21
3.716000
  0
LINE
 10
35.346000
 11
36.045000
 20
3.716000
 21
2.939000
  0
LINE
 10
36.045000
 11
36.568000
 20
2.939000
 21
2.034000
  0
LINE
 10
36.568000
 11
36.891000
 20
2.034000
 21
1.040000
  0
LINE
 10
36.891000
 11
37.000000
 20
1.040000
 21
0.000000
  0
LINE
 10
37.000000
 11
36.891000
 20
0.000000
 21
-1.040000
  0
LINE
 10
36.891000
 11
36.568000
 20
-1.040000
 21
-2.034000
  0
LINE
 10
36.568000
 11
36.045000
 20
-2.034000
 21
-2.939000
  0
LINE
 10
36.045000
 11
35.346000
 20
-2.939000
 21
-3.716000
  0
LINE
 10
35.346000
 11
34.500000
 20
-3.716000
 21
-4.330000
  0
LINE
 10
34.500000
 11
33.545000
 20
-4.330000
 21
-4.755000
  0
LINE
 10
33.545000
 11
32.523000
 20
-4.755000
 21
-4.973000
  0
LINE
 10
32.523000
 11
31.477000
 20
-4.973000
 21
-4.973000
  0
LINE
 10
31.477000
 11
30.455000
 20
-4.973000
 21
-4.755000
  0
LINE
 10
30.455000
 11
29.500000
 20
-4.755000
 21
-4.330000
  0
LINE
 10
29.500000
 11
28.654000
 20
-4.330000
 21
-3.716000
  0
LINE
 10
28.654000
 11
27.955000
 20
-3.716000
 21
-2.939000
  0
LINE
 10
27.955000
 11
27.432000
 20
-2.939000
 21
-2.034000
  0
LINE
 10
27.432000
 11
27.109000
 20
-2.034000
 21
-1.040000
  0
LINE
 10
27.109000
 11
27.000000
 20
-1.040000
 21
0.000000
  0
ENDSEC
  0
EOF
