solid OpenSCAD_Model
  facet normal 0.000000 0.000000 -1.000000
    outer loop
      vertex -9.680000 0.000000 0.000000
      vertex -9.337354 3.260055 0.000000
      vertex -9.337354 -3.260055 0.000000
    endloop
  endfacet
  facet normal 0.000000 0.000000 -1.000000
    outer loop
      vertex -9.337354 -3.260055 0.000000
      vertex -9.337354 3.260055 0.000000
      vertex -8.324393 6.377631 0.000000
    endloop
  endfacet
  facet normal 0.000000 0.000000 -1.000000
    outer loop
      vertex -9.337354 -3.260055 0.000000
      vertex -8.324393 6.377631 0.000000
      vertex -6.685386 9.216473 0.000000
    endloop
  endfacet
  facet normal 0.000000 0.000000 -1.000000
    outer loop
      vertex -9.337354 -3.260055 0.000000
      vertex -6.685386 9.216473 0.000000
      vertex -4.491968 11.652511 0.000000
    endloop
  endfacet
  facet normal 0.000000 0.000000 -1.000000
    outer loop
      vertex -9.337354 -3.260055 0.000000
      vertex -4.491968 11.652511 0.000000
      vertex -1.840000 13.579278 0.000000
    endloop
  endfacet
  facet normal 0.000000 0.000000 -1.000000
    outer loop
      vertex -9.337354 -3.260055 0.000000
      vertex -1.840000 13.579278 0.000000
      vertex 1.154614 14.912566 0.000000
    endloop
  endfacet
  facet normal 0.000000 0.000000 -1.000000
    outer loop
      vertex -9.337354 -3.260055 0.000000
      vertex 1.154614 14.912566 0.000000
      vertex 4.360994 15.594103 0.000000
    endloop
  endfacet
  facet normal 0.000000 0.000000 -1.000000
    outer loop
      vertex -9.337354 -3.260055 0.000000
      vertex 4.360994 15.594103 0.000000
      vertex 7.639006 15.594103 0.000000
    endloop
  endfacet
  facet normal 0.000000 0.000000 -1.000000
    outer loop
      vertex -9.337354 -3.260055 0.000000
      vertex 7.639006 15.594103 0.000000
      vertex 10.845386 14.912566 0.000000
    endloop
  endfacet
  facet normal 0.000000 0.000000 -1.000000
    outer loop
      vertex -9.337354 -3.260055 0.000000
      vertex 10.845386 14.912566 0.000000
      vertex 13.840000 13.579278 0.000000
    endloop
  endfacet
  facet normal 0.000000 0.000000 -1.000000
    outer loop
      vertex -9.337354 -3.260055 0.000000
      vertex 13.840000 13.579278 0.000000
      vertex 16.491968 11.652511 0.000000
    endloop
  endfacet
  facet normal 0.000000 0.000000 -1.000000
    outer loop
      vertex -9.337354 -3.260055 0.000000
      vertex 16.491968 11.652511 0.000000
      vertex 18.685386 9.216473 0.000000
    endloop
  endfacet
  facet normal 0.000000 0.000000 -1.000000
    outer loop
      vertex -9.337354 -3.260055 0.000000
      vertex 18.685386 9.216473 0.000000
      vertex 20.324393 6.377631 0.000000
    endloop
  endfacet
  facet normal 0.000000 0.000000 -1.000000
    outer loop
      vertex -9.337354 -3.260055 0.000000
      vertex 20.324393 6.377631 0.000000
      vertex 21.337354 3.260055 0.000000
    endloop
  endfacet
  facet normal 0.000000 0.000000 -1.000000
    outer loop
      vertex -9.337354 -3.260055 0.000000
      vertex 21.337354 3.260055 0.000000
      vertex 21.680000 0.000000 0.000000
    endloop
  endfacet
  facet normal 0.000000 0.000000 -1.000000
    outer loop
      vertex -9.337354 -3.260055 0.000000
      vertex 21.680000 0.000000 0.000000
      vertex 21.337354 -3.260055 0.000000
    endloop
  endfacet
  facet normal 0.000000 0.000000 -1.000000
    outer loop
      vertex -9.337354 -3.260055 0.000000
      vertex 21.337354 -3.260055 0.000000
      vertex 20.324393 -6.377631 0.000000
    endloop
  endfacet
  facet normal 0.000000 0.000000 -1.000000
    outer loop
      vertex -9.337354 -3.260055 0.000000
      vertex 20.324393 -6.377631 0.000000
      vertex 18.685386 -9.216473 0.000000
    endloop
  endfacet
  facet normal 0.000000 0.000000 -1.000000
    outer loop
      vertex -9.337354 -3.260055 0.000000
      vertex 18.685386 -9.216473 0.000000
      vertex 16.491968 -11.652511 0.000000
    endloop
  endfacet
  facet normal 0.000000 0.000000 -1.000000
    outer loop
      vertex -9.337354 -3.260055 0.000000
      vertex 16.491968 -11.652511 0.000000
      vertex 13.840000 -13.579278 0.000000
    endloop
  endfacet
  facet normal 0.000000 0.000000 -1.000000
    outer loop
      vertex -9.337354 -3.260055 0.000000
      vertex 13.840000 -13.579278 0.000000
      vertex 10.845386 -14.912566 0.000000
    endloop
  endfacet
  facet normal 0.000000 0.000000 -1.000000
    outer loop
      vertex -9.337354 -3.260055 0.000000
      vertex 10.845386 -14.912566 0.000000
      vertex 7.639006 -15.594103 0.000000
    endloop
  endfacet
  facet normal 0.000000 0.000000 -1.000000
    outer loop
      vertex -9.337354 -3.260055 0.000000
      vertex 7.639006 -15.594103 0.000000
      vertex 4.360994 -15.594103 0.000000
    endloop
  endfacet
  facet normal 0.000000 0.000000 -1.000000
    outer loop
      vertex -9.337354 -3.260055 0.000000
      vertex 4.360994 -15.594103 0.000000
      vertex 1.154614 -14.912566 0.000000
    endloop
  endfacet
  facet normal 0.000000 0.000000 -1.000000
    outer loop
      vertex -9.337354 -3.260055 0.000000
      vertex 1.154614 -14.912566 0.000000
      vertex -1.840000 -13.579278 0.000000
    endloop
  endfacet
  facet normal 0.000000 0.000000 -1.000000
    outer loop
      vertex -9.337354 -3.260055 0.000000
      vertex -1.840000 -13.579278 0.000000
      vertex -4.491968 -11.652511 0.000000
    endloop
  endfacet
  facet normal 0.000000 0.000000 -1.000000
    outer loop
      vertex -9.337354 -3.260055 0.000000
      vertex -4.491968 -11.652511 0.000000
      vertex -6.685386 -9.216473 0.000000
    endloop
  endfacet
  facet normal 0.000000 0.000000 -1.000000
    outer loop
      vertex -9.337354 -3.260055 0.000000
      vertex -6.685386 -9.216473 0.000000
      vertex -8.324393 -6.377631 0.000000
    endloop
  endfacet
  facet normal -0.994522 0.104529 0.000000
    outer loop
      vertex -9.680000 0.000000 0.000000
      vertex -9.680000 0.000000 8.000000
      vertex -9.337354 3.260055 0.000000
    endloop
  endfacet
  facet normal -0.994522 0.104529 0.000000
    outer loop
      vertex -9.337354 3.260055 0.000000
      vertex -9.680000 0.000000 8.000000
      vertex -9.337354 3.260055 8.000000
    endloop
  endfacet
  facet normal -0.994522 -0.104529 0.000000
    outer loop
      vertex -9.680000 0.000000 0.000000
      vertex -9.337354 -3.260055 0.000000
      vertex -9.680000 0.000000 8.000000
    endloop
  endfacet
  facet normal -0.994522 -0.104529 0.000000
    outer loop
      vertex -9.680000 0.000000 8.000000
      vertex -9.337354 -3.260055 0.000000
      vertex -9.337354 -3.260055 8.000000
    endloop
  endfacet
  facet normal -0.951057 -0.309017 0.000000
    outer loop
      vertex -9.337354 -3.260055 0.000000
      vertex -8.324393 -6.377631 0.000000
      vertex -9.337354 -3.260055 8.000000
    endloop
  endfacet
  facet normal -0.951057 -0.309017 0.000000
    outer loop
      vertex -9.337354 -3.260055 8.000000
      vertex -8.324393 -6.377631 0.000000
      vertex -8.324393 -6.377631 8.000000
    endloop
  endfacet
  facet normal -0.866025 -0.500000 0.000000
    outer loop
      vertex -8.324393 -6.377631 0.000000
      vertex -6.685386 -9.216473 0.000000
      vertex -8.324393 -6.377631 8.000000
    endloop
  endfacet
  facet normal -0.866025 -0.500000 0.000000
    outer loop
      vertex -8.324393 -6.377631 8.000000
      vertex -6.685386 -9.216473 0.000000
      vertex -6.685386 -9.216473 8.000000
    endloop
  endfacet
  facet normal -0.743145 -0.669131 0.000000
    outer loop
      vertex -6.685386 -9.216473 0.000000
      vertex -4.491968 -11.652511 0.000000
      vertex -6.685386 -9.216473 8.000000
    endloop
  endfacet
  facet normal -0.743145 -0.669131 0.000000
    outer loop
      vertex -6.685386 -9.216473 8.000000
      vertex -4.491968 -11.652511 0.000000
      vertex -4.491968 -11.652511 8.000000
    endloop
  endfacet
  facet normal -0.587785 -0.809017 0.000000
    outer loop
      vertex -4.491968 -11.652511 8.000000
      vertex -4.491968 -11.652511 0.000000
      vertex -1.840000 -13.579278 0.000000
    endloop
  endfacet
  facet normal -0.587785 -0.809017 0.000000
    outer loop
      vertex -1.840000 -13.579278 8.000000
      vertex -4.491968 -11.652511 8.000000
      vertex -1.840000 -13.579278 0.000000
    endloop
  endfacet
  facet normal -0.406737 -0.913545 0.000000
    outer loop
      vertex -1.840000 -13.579278 8.000000
      vertex -1.840000 -13.579278 0.000000
      vertex 1.154614 -14.912566 0.000000
    endloop
  endfacet
  facet normal -0.406737 -0.913545 0.000000
    outer loop
      vertex 1.154614 -14.912566 8.000000
      vertex -1.840000 -13.579278 8.000000
      vertex 1.154614 -14.912566 0.000000
    endloop
  endfacet
  facet normal -0.207912 -0.978148 0.000000
    outer loop
      vertex 1.154614 -14.912566 8.000000
      vertex 1.154614 -14.912566 0.000000
      vertex 4.360994 -15.594103 0.000000
    endloop
  endfacet
  facet normal -0.207912 -0.978148 0.000000
    outer loop
      vertex 4.360994 -15.594103 8.000000
      vertex 1.154614 -14.912566 8.000000
      vertex 4.360994 -15.594103 0.000000
    endloop
  endfacet
  facet normal 0.000000 -1.000000 0.000000
    outer loop
      vertex 4.360994 -15.594103 8.000000
      vertex 4.360994 -15.594103 0.000000
      vertex 7.639006 -15.594103 0.000000
    endloop
  endfacet
  facet normal 0.000000 -1.000000 0.000000
    outer loop
      vertex 7.639006 -15.594103 8.000000
      vertex 4.360994 -15.594103 8.000000
      vertex 7.639006 -15.594103 0.000000
    endloop
  endfacet
  facet normal 0.207912 -0.978148 0.000000
    outer loop
      vertex 7.639006 -15.594103 8.000000
      vertex 7.639006 -15.594103 0.000000
      vertex 10.845386 -14.912566 0.000000
    endloop
  endfacet
  facet normal 0.207912 -0.978148 0.000000
    outer loop
      vertex 10.845386 -14.912566 8.000000
      vertex 7.639006 -15.594103 8.000000
      vertex 10.845386 -14.912566 0.000000
    endloop
  endfacet
  facet normal 0.406737 -0.913545 0.000000
    outer loop
      vertex 10.845386 -14.912566 8.000000
      vertex 10.845386 -14.912566 0.000000
      vertex 13.840000 -13.579278 0.000000
    endloop
  endfacet
  facet normal 0.406737 -0.913545 0.000000
    outer loop
      vertex 13.840000 -13.579278 8.000000
      vertex 10.845386 -14.912566 8.000000
      vertex 13.840000 -13.579278 0.000000
    endloop
  endfacet
  facet normal 0.587785 -0.809017 0.000000
    outer loop
      vertex 13.840000 -13.579278 8.000000
      vertex 13.840000 -13.579278 0.000000
      vertex 16.491968 -11.652511 0.000000
    endloop
  endfacet
  facet normal 0.587785 -0.809017 0.000000
    outer loop
      vertex 16.491968 -11.652511 8.000000
      vertex 13.840000 -13.579278 8.000000
      vertex 16.491968 -11.652511 0.000000
    endloop
  endfacet
  facet normal 0.743145 -0.669131 0.000000
    outer loop
      vertex 16.491968 -11.652511 8.000000
      vertex 16.491968 -11.652511 0.000000
      vertex 18.685386 -9.216473 0.000000
    endloop
  endfacet
  facet normal 0.743145 -0.669131 0.000000
    outer loop
      vertex 18.685386 -9.216473 8.000000
      vertex 16.491968 -11.652511 8.000000
      vertex 18.685386 -9.216473 0.000000
    endloop
  endfacet
  facet normal 0.866025 -0.500000 0.000000
    outer loop
      vertex 18.685386 -9.216473 8.000000
      vertex 18.685386 -9.216473 0.000000
      vertex 20.324393 -6.377631 0.000000
    endloop
  endfacet
  facet normal 0.866025 -0.500000 0.000000
    outer loop
      vertex 20.324393 -6.377631 8.000000
      vertex 18.685386 -9.216473 8.000000
      vertex 20.324393 -6.377631 0.000000
    endloop
  endfacet
  facet normal 0.951057 -0.309017 0.000000
    outer loop
      vertex 20.324393 -6.377631 8.000000
      vertex 20.324393 -6.377631 0.000000
      vertex 21.337354 -3.260055 0.000000
    endloop
  endfacet
  facet normal 0.951057 -0.309017 0.000000
    outer loop
      vertex 21.337354 -3.260055 8.000000
      vertex 20.324393 -6.377631 8.000000
      vertex 21.337354 -3.260055 0.000000
    endloop
  endfacet
  facet normal 0.994522 -0.104529 0.000000
    outer loop
      vertex 21.337354 -3.260055 8.000000
      vertex 21.337354 -3.260055 0.000000
      vertex 21.680000 0.000000 0.000000
    endloop
  endfacet
  facet normal 0.994522 -0.104529 0.000000
    outer loop
      vertex 21.680000 0.000000 8.000000
      vertex 21.337354 -3.260055 8.000000
      vertex 21.680000 0.000000 0.000000
    endloop
  endfacet
  facet normal 0.994522 0.104529 0.000000
    outer loop
      vertex 21.680000 0.000000 0.000000
      vertex 21.337354 3.260055 0.000000
      vertex 21.337354 3.260055 8.000000
    endloop
  endfacet
  facet normal 0.994522 0.104529 0.000000
    outer loop
      vertex 21.680000 0.000000 8.000000
      vertex 21.680000 0.000000 0.000000
      vertex 21.337354 3.260055 8.000000
    endloop
  endfacet
  facet normal 0.951057 0.309017 0.000000
    outer loop
      vertex 21.337354 3.260055 0.000000
      vertex 20.324393 6.377631 0.000000
      vertex 20.324393 6.377631 8.000000
    endloop
  endfacet
  facet normal 0.951057 0.309017 0.000000
    outer loop
      vertex 21.337354 3.260055 8.000000
      vertex 21.337354 3.260055 0.000000
      vertex 20.324393 6.377631 8.000000
    endloop
  endfacet
  facet normal 0.866025 0.500000 0.000000
    outer loop
      vertex 20.324393 6.377631 0.000000
      vertex 18.685386 9.216473 0.000000
      vertex 18.685386 9.216473 8.000000
    endloop
  endfacet
  facet normal 0.866025 0.500000 0.000000
    outer loop
      vertex 20.324393 6.377631 8.000000
      vertex 20.324393 6.377631 0.000000
      vertex 18.685386 9.216473 8.000000
    endloop
  endfacet
  facet normal 0.743145 0.669131 0.000000
    outer loop
      vertex 18.685386 9.216473 0.000000
      vertex 16.491968 11.652511 0.000000
      vertex 16.491968 11.652511 8.000000
    endloop
  endfacet
  facet normal 0.743145 0.669131 0.000000
    outer loop
      vertex 18.685386 9.216473 8.000000
      vertex 18.685386 9.216473 0.000000
      vertex 16.491968 11.652511 8.000000
    endloop
  endfacet
  facet normal 0.587785 0.809017 0.000000
    outer loop
      vertex 13.840000 13.579278 0.000000
      vertex 13.840000 13.579278 8.000000
      vertex 16.491968 11.652511 0.000000
    endloop
  endfacet
  facet normal 0.587785 0.809017 0.000000
    outer loop
      vertex 16.491968 11.652511 0.000000
      vertex 13.840000 13.579278 8.000000
      vertex 16.491968 11.652511 8.000000
    endloop
  endfacet
  facet normal 0.406737 0.913545 0.000000
    outer loop
      vertex 10.845386 14.912566 0.000000
      vertex 10.845386 14.912566 8.000000
      vertex 13.840000 13.579278 0.000000
    endloop
  endfacet
  facet normal 0.406737 0.913545 0.000000
    outer loop
      vertex 13.840000 13.579278 0.000000
      vertex 10.845386 14.912566 8.000000
      vertex 13.840000 13.579278 8.000000
    endloop
  endfacet
  facet normal 0.207912 0.978148 0.000000
    outer loop
      vertex 7.639006 15.594103 0.000000
      vertex 7.639006 15.594103 8.000000
      vertex 10.845386 14.912566 0.000000
    endloop
  endfacet
  facet normal 0.207912 0.978148 0.000000
    outer loop
      vertex 10.845386 14.912566 0.000000
      vertex 7.639006 15.594103 8.000000
      vertex 10.845386 14.912566 8.000000
    endloop
  endfacet
  facet normal 0.000000 1.000000 0.000000
    outer loop
      vertex 4.360994 15.594103 0.000000
      vertex 4.360994 15.594103 8.000000
      vertex 7.639006 15.594103 0.000000
    endloop
  endfacet
  facet normal 0.000000 1.000000 0.000000
    outer loop
      vertex 7.639006 15.594103 0.000000
      vertex 4.360994 15.594103 8.000000
      vertex 7.639006 15.594103 8.000000
    endloop
  endfacet
  facet normal -0.207912 0.978148 0.000000
    outer loop
      vertex 1.154614 14.912566 0.000000
      vertex 1.154614 14.912566 8.000000
      vertex 4.360994 15.594103 0.000000
    endloop
  endfacet
  facet normal -0.207912 0.978148 0.000000
    outer loop
      vertex 4.360994 15.594103 0.000000
      vertex 1.154614 14.912566 8.000000
      vertex 4.360994 15.594103 8.000000
    endloop
  endfacet
  facet normal -0.406737 0.913545 0.000000
    outer loop
      vertex -1.840000 13.579278 0.000000
      vertex -1.840000 13.579278 8.000000
      vertex 1.154614 14.912566 0.000000
    endloop
  endfacet
  facet normal -0.406737 0.913545 0.000000
    outer loop
      vertex 1.154614 14.912566 0.000000
      vertex -1.840000 13.579278 8.000000
      vertex 1.154614 14.912566 8.000000
    endloop
  endfacet
  facet normal -0.587785 0.809017 0.000000
    outer loop
      vertex -4.491968 11.652511 0.000000
      vertex -4.491968 11.652511 8.000000
      vertex -1.840000 13.579278 0.000000
    endloop
  endfacet
  facet normal -0.587785 0.809017 0.000000
    outer loop
      vertex -1.840000 13.579278 0.000000
      vertex -4.491968 11.652511 8.000000
      vertex -1.840000 13.579278 8.000000
    endloop
  endfacet
  facet normal -0.743145 0.669131 0.000000
    outer loop
      vertex -6.685386 9.216473 0.000000
      vertex -6.685386 9.216473 8.000000
      vertex -4.491968 11.652511 0.000000
    endloop
  endfacet
  facet normal -0.743145 0.669131 0.000000
    outer loop
      vertex -4.491968 11.652511 0.000000
      vertex -6.685386 9.216473 8.000000
      vertex -4.491968 11.652511 8.000000
    endloop
  endfacet
  facet normal -0.866025 0.500000 0.000000
    outer loop
      vertex -8.324393 6.377631 0.000000
      vertex -8.324393 6.377631 8.000000
      vertex -6.685386 9.216473 0.000000
    endloop
  endfacet
  facet normal -0.866025 0.500000 0.000000
    outer loop
      vertex -6.685386 9.216473 0.000000
      vertex -8.324393 6.377631 8.000000
      vertex -6.685386 9.216473 8.000000
    endloop
  endfacet
  facet normal -0.951057 0.309017 0.000000
    outer loop
      vertex -9.337354 3.260055 0.000000
      vertex -9.337354 3.260055 8.000000
      vertex -8.324393 6.377631 0.000000
    endloop
  endfacet
  facet normal -0.951057 0.309017 0.000000
    outer loop
      vertex -8.324393 6.377631 0.000000
      vertex -9.337354 3.260055 8.000000
      vertex -8.324393 6.377631 8.000000
    endloop
  endfacet
  facet normal 0.000000 0.000000 1.000000
    outer loop
      vertex -9.337354 -3.260055 8.000000
      vertex -8.324393 -6.377631 8.000000
      vertex -6.685386 -9.216473 8.000000
    endloop
  endfacet
  facet normal 0.000000 0.000000 1.000000
    outer loop
      vertex -1.840000 -13.579278 8.000000
      vertex -9.337354 -3.260055 8.000000
      vertex -4.491968 -11.652511 8.000000
    endloop
  endfacet
  facet normal 0.000000 0.000000 1.000000
    outer loop
      vertex -4.491968 -11.652511 8.000000
      vertex -9.337354 -3.260055 8.000000
      vertex -6.685386 -9.216473 8.000000
    endloop
  endfacet
  facet normal 0.000000 0.000000 1.000000
    outer loop
      vertex 1.154614 -14.912566 8.000000
      vertex -9.337354 -3.260055 8.000000
      vertex -1.840000 -13.579278 8.000000
    endloop
  endfacet
  facet normal 0.000000 0.000000 1.000000
    outer loop
      vertex 4.360994 -15.594103 8.000000
      vertex -9.337354 -3.260055 8.000000
      vertex 1.154614 -14.912566 8.000000
    endloop
  endfacet
  facet normal 0.000000 0.000000 1.000000
    outer loop
      vertex 7.639006 -15.594103 8.000000
      vertex -9.337354 -3.260055 8.000000
      vertex 4.360994 -15.594103 8.000000
    endloop
  endfacet
  facet normal 0.000000 0.000000 1.000000
    outer loop
      vertex -3.920000 -6.789639 8.000000
      vertex -9.337354 -3.260055 8.000000
      vertex 7.639006 -15.594103 8.000000
    endloop
  endfacet
  facet normal 0.000000 0.000000 1.000000
    outer loop
      vertex -0.819503 -7.797052 8.000000
      vertex -2.422693 -7.456283 8.000000
      vertex 10.845386 -14.912566 8.000000
    endloop
  endfacet
  facet normal 0.000000 0.000000 1.000000
    outer loop
      vertex 2.422693 -7.456283 8.000000
      vertex 0.819503 -7.797052 8.000000
      vertex 13.840000 -13.579278 8.000000
    endloop
  endfacet
  facet normal 0.000000 0.000000 1.000000
    outer loop
      vertex 3.920000 -6.789639 8.000000
      vertex 2.422693 -7.456283 8.000000
      vertex 16.491968 -11.652511 8.000000
    endloop
  endfacet
  facet normal 0.000000 0.000000 1.000000
    outer loop
      vertex 5.245984 -5.826255 8.000000
      vertex 3.920000 -6.789639 8.000000
      vertex 18.685386 -9.216473 8.000000
    endloop
  endfacet
  facet normal 0.000000 0.000000 1.000000
    outer loop
      vertex 6.342693 -4.608236 8.000000
      vertex 5.245984 -5.826255 8.000000
      vertex 20.324393 -6.377631 8.000000
    endloop
  endfacet
  facet normal 0.000000 0.000000 1.000000
    outer loop
      vertex 7.162196 -3.188815 8.000000
      vertex 6.342693 -4.608236 8.000000
      vertex 21.337354 -3.260055 8.000000
    endloop
  endfacet
  facet normal 0.000000 0.000000 1.000000
    outer loop
      vertex 7.840000 0.000000 8.000000
      vertex 7.668677 -1.630028 8.000000
      vertex 21.680000 0.000000 8.000000
    endloop
  endfacet
  facet normal 0.000000 0.000000 1.000000
    outer loop
      vertex 7.668677 1.630028 8.000000
      vertex 7.840000 0.000000 8.000000
      vertex 21.337354 3.260055 8.000000
    endloop
  endfacet
  facet normal 0.000000 0.000000 1.000000
    outer loop
      vertex 7.162196 3.188815 8.000000
      vertex 7.668677 1.630028 8.000000
      vertex 20.324393 6.377631 8.000000
    endloop
  endfacet
  facet normal 0.000000 0.000000 1.000000
    outer loop
      vertex 6.342693 4.608236 8.000000
      vertex 7.162196 3.188815 8.000000
      vertex 18.685386 9.216473 8.000000
    endloop
  endfacet
  facet normal 0.000000 0.000000 1.000000
    outer loop
      vertex 5.245984 5.826255 8.000000
      vertex 6.342693 4.608236 8.000000
      vertex 16.491968 11.652511 8.000000
    endloop
  endfacet
  facet normal 0.000000 0.000000 1.000000
    outer loop
      vertex 3.920000 6.789639 8.000000
      vertex 5.245984 5.826255 8.000000
      vertex 13.840000 13.579278 8.000000
    endloop
  endfacet
  facet normal 0.000000 0.000000 1.000000
    outer loop
      vertex -6.342693 4.608236 8.000000
      vertex -5.245984 5.826255 8.000000
      vertex -1.840000 13.579278 8.000000
    endloop
  endfacet
  facet normal 0.000000 0.000000 1.000000
    outer loop
      vertex -3.920000 6.789639 8.000000
      vertex -2.422693 7.456283 8.000000
      vertex 1.154614 14.912566 8.000000
    endloop
  endfacet
  facet normal 0.000000 0.000000 1.000000
    outer loop
      vertex -6.685386 9.216473 8.000000
      vertex -9.337354 -3.260055 8.000000
      vertex -4.491968 11.652511 8.000000
    endloop
  endfacet
  facet normal 0.000000 0.000000 1.000000
    outer loop
      vertex -8.324393 6.377631 8.000000
      vertex -9.337354 -3.260055 8.000000
      vertex -6.685386 9.216473 8.000000
    endloop
  endfacet
  facet normal 0.000000 0.000000 1.000000
    outer loop
      vertex -9.337354 3.260055 8.000000
      vertex -9.337354 -3.260055 8.000000
      vertex -8.324393 6.377631 8.000000
    endloop
  endfacet
  facet normal 0.000000 0.000000 1.000000
    outer loop
      vertex -9.680000 0.000000 8.000000
      vertex -9.337354 -3.260055 8.000000
      vertex -9.337354 3.260055 8.000000
    endloop
  endfacet
  facet normal 0.000000 0.000000 1.000000
    outer loop
      vertex -2.422693 7.456283 8.000000
      vertex -0.819503 7.797052 8.000000
      vertex 4.360994 15.594103 8.000000
    endloop
  endfacet
  facet normal 0.000000 0.000000 1.000000
    outer loop
      vertex -5.245984 -5.826255 8.000000
      vertex -6.342693 -4.608236 8.000000
      vertex -9.337354 -3.260055 8.000000
    endloop
  endfacet
  facet normal 0.000000 0.000000 1.000000
    outer loop
      vertex -4.491968 11.652511 8.000000
      vertex -9.337354 -3.260055 8.000000
      vertex -7.668677 1.630028 8.000000
    endloop
  endfacet
  facet normal 0.000000 0.000000 1.000000
    outer loop
      vertex -4.491968 11.652511 8.000000
      vertex -7.162196 3.188815 8.000000
      vertex -1.840000 13.579278 8.000000
    endloop
  endfacet
  facet normal 0.000000 0.000000 1.000000
    outer loop
      vertex -4.491968 11.652511 8.000000
      vertex -7.668677 1.630028 8.000000
      vertex -7.162196 3.188815 8.000000
    endloop
  endfacet
  facet normal 0.000000 0.000000 1.000000
    outer loop
      vertex -7.162196 3.188815 8.000000
      vertex -6.342693 4.608236 8.000000
      vertex -1.840000 13.579278 8.000000
    endloop
  endfacet
  facet normal 0.000000 0.000000 1.000000
    outer loop
      vertex -1.840000 13.579278 8.000000
      vertex -5.245984 5.826255 8.000000
      vertex 1.154614 14.912566 8.000000
    endloop
  endfacet
  facet normal 0.000000 0.000000 1.000000
    outer loop
      vertex -5.245984 5.826255 8.000000
      vertex -3.920000 6.789639 8.000000
      vertex 1.154614 14.912566 8.000000
    endloop
  endfacet
  facet normal 0.000000 0.000000 1.000000
    outer loop
      vertex 1.154614 14.912566 8.000000
      vertex -2.422693 7.456283 8.000000
      vertex 4.360994 15.594103 8.000000
    endloop
  endfacet
  facet normal 0.000000 0.000000 1.000000
    outer loop
      vertex -7.840000 0.000000 8.000000
      vertex -7.668677 1.630028 8.000000
      vertex -9.337354 -3.260055 8.000000
    endloop
  endfacet
  facet normal 0.000000 0.000000 1.000000
    outer loop
      vertex 4.360994 15.594103 8.000000
      vertex -0.819503 7.797052 8.000000
      vertex 7.639006 15.594103 8.000000
    endloop
  endfacet
  facet normal 0.000000 0.000000 1.000000
    outer loop
      vertex 7.639006 15.594103 8.000000
      vertex 0.819503 7.797052 8.000000
      vertex 10.845386 14.912566 8.000000
    endloop
  endfacet
  facet normal 0.000000 0.000000 1.000000
    outer loop
      vertex 0.819503 7.797052 8.000000
      vertex 2.422693 7.456283 8.000000
      vertex 10.845386 14.912566 8.000000
    endloop
  endfacet
  facet normal 0.000000 0.000000 1.000000
    outer loop
      vertex 10.845386 14.912566 8.000000
      vertex 3.920000 6.789639 8.000000
      vertex 13.840000 13.579278 8.000000
    endloop
  endfacet
  facet normal 0.000000 0.000000 1.000000
    outer loop
      vertex 13.840000 13.579278 8.000000
      vertex 5.245984 5.826255 8.000000
      vertex 16.491968 11.652511 8.000000
    endloop
  endfacet
  facet normal 0.000000 0.000000 1.000000
    outer loop
      vertex 16.491968 11.652511 8.000000
      vertex 6.342693 4.608236 8.000000
      vertex 18.685386 9.216473 8.000000
    endloop
  endfacet
  facet normal 0.000000 0.000000 1.000000
    outer loop
      vertex 18.685386 9.216473 8.000000
      vertex 7.162196 3.188815 8.000000
      vertex 20.324393 6.377631 8.000000
    endloop
  endfacet
  facet normal 0.000000 0.000000 1.000000
    outer loop
      vertex 20.324393 6.377631 8.000000
      vertex 7.668677 1.630028 8.000000
      vertex 21.337354 3.260055 8.000000
    endloop
  endfacet
  facet normal 0.000000 0.000000 1.000000
    outer loop
      vertex 21.337354 3.260055 8.000000
      vertex 7.840000 0.000000 8.000000
      vertex 21.680000 0.000000 8.000000
    endloop
  endfacet
  facet normal 0.000000 0.000000 1.000000
    outer loop
      vertex 21.680000 0.000000 8.000000
      vertex 7.668677 -1.630028 8.000000
      vertex 21.337354 -3.260055 8.000000
    endloop
  endfacet
  facet normal 0.000000 0.000000 1.000000
    outer loop
      vertex 7.668677 -1.630028 8.000000
      vertex 7.162196 -3.188815 8.000000
      vertex 21.337354 -3.260055 8.000000
    endloop
  endfacet
  facet normal 0.000000 0.000000 1.000000
    outer loop
      vertex 21.337354 -3.260055 8.000000
      vertex 6.342693 -4.608236 8.000000
      vertex 20.324393 -6.377631 8.000000
    endloop
  endfacet
  facet normal 0.000000 0.000000 1.000000
    outer loop
      vertex 20.324393 -6.377631 8.000000
      vertex 5.245984 -5.826255 8.000000
      vertex 18.685386 -9.216473 8.000000
    endloop
  endfacet
  facet normal 0.000000 0.000000 1.000000
    outer loop
      vertex 18.685386 -9.216473 8.000000
      vertex 3.920000 -6.789639 8.000000
      vertex 16.491968 -11.652511 8.000000
    endloop
  endfacet
  facet normal 0.000000 0.000000 1.000000
    outer loop
      vertex 16.491968 -11.652511 8.000000
      vertex 2.422693 -7.456283 8.000000
      vertex 13.840000 -13.579278 8.000000
    endloop
  endfacet
  facet normal 0.000000 0.000000 1.000000
    outer loop
      vertex 13.840000 -13.579278 8.000000
      vertex 0.819503 -7.797052 8.000000
      vertex 10.845386 -14.912566 8.000000
    endloop
  endfacet
  facet normal 0.000000 0.000000 1.000000
    outer loop
      vertex 0.819503 -7.797052 8.000000
      vertex -0.819503 -7.797052 8.000000
      vertex 10.845386 -14.912566 8.000000
    endloop
  endfacet
  facet normal 0.000000 0.000000 1.000000
    outer loop
      vertex 10.845386 -14.912566 8.000000
      vertex -2.422693 -7.456283 8.000000
      vertex 7.639006 -15.594103 8.000000
    endloop
  endfacet
  facet normal 0.000000 0.000000 1.000000
    outer loop
      vertex -2.422693 -7.456283 8.000000
      vertex -3.920000 -6.789639 8.000000
      vertex 7.639006 -15.594103 8.000000
    endloop
  endfacet
  facet normal 0.000000 0.000000 1.000000
    outer loop
      vertex -5.245984 -5.826255 8.000000
      vertex -9.337354 -3.260055 8.000000
      vertex -3.920000 -6.789639 8.000000
    endloop
  endfacet
  facet normal 0.000000 0.000000 1.000000
    outer loop
      vertex -6.342693 -4.608236 8.000000
      vertex -7.162196 -3.188815 8.000000
      vertex -9.337354 -3.260055 8.000000
    endloop
  endfacet
  facet normal 0.000000 0.000000 1.000000
    outer loop
      vertex -0.819503 7.797052 8.000000
      vertex 0.819503 7.797052 8.000000
      vertex 7.639006 15.594103 8.000000
    endloop
  endfacet
  facet normal 0.000000 0.000000 1.000000
    outer loop
      vertex 2.422693 7.456283 8.000000
      vertex 3.920000 6.789639 8.000000
      vertex 10.845386 14.912566 8.000000
    endloop
  endfacet
  facet normal 0.000000 0.000000 1.000000
    outer loop
      vertex -7.668677 -1.630028 8.000000
      vertex -7.840000 0.000000 8.000000
      vertex -9.337354 -3.260055 8.000000
    endloop
  endfacet
  facet normal 0.000000 0.000000 1.000000
    outer loop
      vertex -7.162196 -3.188815 8.000000
      vertex -7.668677 -1.630028 8.000000
      vertex -9.337354 -3.260055 8.000000
    endloop
  endfacet
  facet normal -0.994522 0.104529 0.000000
    outer loop
      vertex -7.840000 0.000000 8.000000
      vertex -7.840000 0.000000 40.000000
      vertex -7.668677 1.630028 8.000000
    endloop
  endfacet
  facet normal -0.994522 0.104529 0.000000
    outer loop
      vertex -7.668677 1.630028 8.000000
      vertex -7.840000 0.000000 40.000000
      vertex -7.668677 1.630028 40.000000
    endloop
  endfacet
  facet normal -0.994522 -0.104529 0.000000
    outer loop
      vertex -7.840000 0.000000 8.000000
      vertex -7.668677 -1.630028 8.000000
      vertex -7.840000 0.000000 40.000000
    endloop
  endfacet
  facet normal -0.994522 -0.104529 0.000000
    outer loop
      vertex -7.840000 0.000000 40.000000
      vertex -7.668677 -1.630028 8.000000
      vertex -7.668677 -1.630028 40.000000
    endloop
  endfacet
  facet normal -0.951056 -0.309017 0.000000
    outer loop
      vertex -7.668677 -1.630028 8.000000
      vertex -7.162196 -3.188815 8.000000
      vertex -7.668677 -1.630028 40.000000
    endloop
  endfacet
  facet normal -0.951056 -0.309017 0.000000
    outer loop
      vertex -7.668677 -1.630028 40.000000
      vertex -7.162196 -3.188815 8.000000
      vertex -7.162196 -3.188815 40.000000
    endloop
  endfacet
  facet normal -0.866025 -0.500000 0.000000
    outer loop
      vertex -7.162196 -3.188815 8.000000
      vertex -6.342693 -4.608236 8.000000
      vertex -7.162196 -3.188815 40.000000
    endloop
  endfacet
  facet normal -0.866025 -0.500000 0.000000
    outer loop
      vertex -7.162196 -3.188815 40.000000
      vertex -6.342693 -4.608236 8.000000
      vertex -6.342693 -4.608236 40.000000
    endloop
  endfacet
  facet normal -0.743145 -0.669131 0.000000
    outer loop
      vertex -6.342693 -4.608236 8.000000
      vertex -5.245984 -5.826255 8.000000
      vertex -6.342693 -4.608236 40.000000
    endloop
  endfacet
  facet normal -0.743145 -0.669131 0.000000
    outer loop
      vertex -6.342693 -4.608236 40.000000
      vertex -5.245984 -5.826255 8.000000
      vertex -5.245984 -5.826255 40.000000
    endloop
  endfacet
  facet normal -0.587785 -0.809017 0.000000
    outer loop
      vertex -5.245984 -5.826255 40.000000
      vertex -5.245984 -5.826255 8.000000
      vertex -3.920000 -6.789639 8.000000
    endloop
  endfacet
  facet normal -0.587785 -0.809017 0.000000
    outer loop
      vertex -3.920000 -6.789639 40.000000
      vertex -5.245984 -5.826255 40.000000
      vertex -3.920000 -6.789639 8.000000
    endloop
  endfacet
  facet normal -0.406737 -0.913545 0.000000
    outer loop
      vertex -3.920000 -6.789639 40.000000
      vertex -3.920000 -6.789639 8.000000
      vertex -2.422693 -7.456283 8.000000
    endloop
  endfacet
  facet normal -0.406737 -0.913545 0.000000
    outer loop
      vertex -2.422693 -7.456283 40.000000
      vertex -3.920000 -6.789639 40.000000
      vertex -2.422693 -7.456283 8.000000
    endloop
  endfacet
  facet normal -0.207912 -0.978148 0.000000
    outer loop
      vertex -2.422693 -7.456283 40.000000
      vertex -2.422693 -7.456283 8.000000
      vertex -0.819503 -7.797052 8.000000
    endloop
  endfacet
  facet normal -0.207912 -0.978148 0.000000
    outer loop
      vertex -0.819503 -7.797052 40.000000
      vertex -2.422693 -7.456283 40.000000
      vertex -0.819503 -7.797052 8.000000
    endloop
  endfacet
  facet normal 0.000000 -1.000000 0.000000
    outer loop
      vertex -0.819503 -7.797052 40.000000
      vertex -0.819503 -7.797052 8.000000
      vertex 0.819503 -7.797052 8.000000
    endloop
  endfacet
  facet normal 0.000000 -1.000000 0.000000
    outer loop
      vertex 0.819503 -7.797052 40.000000
      vertex -0.819503 -7.797052 40.000000
      vertex 0.819503 -7.797052 8.000000
    endloop
  endfacet
  facet normal 0.207912 -0.978148 0.000000
    outer loop
      vertex 0.819503 -7.797052 40.000000
      vertex 0.819503 -7.797052 8.000000
      vertex 2.422693 -7.456283 8.000000
    endloop
  endfacet
  facet normal 0.207912 -0.978148 0.000000
    outer loop
      vertex 2.422693 -7.456283 40.000000
      vertex 0.819503 -7.797052 40.000000
      vertex 2.422693 -7.456283 8.000000
    endloop
  endfacet
  facet normal 0.406737 -0.913545 0.000000
    outer loop
      vertex 2.422693 -7.456283 40.000000
      vertex 2.422693 -7.456283 8.000000
      vertex 3.920000 -6.789639 8.000000
    endloop
  endfacet
  facet normal 0.406737 -0.913545 0.000000
    outer loop
      vertex 3.920000 -6.789639 40.000000
      vertex 2.422693 -7.456283 40.000000
      vertex 3.920000 -6.789639 8.000000
    endloop
  endfacet
  facet normal 0.587785 -0.809017 0.000000
    outer loop
      vertex 3.920000 -6.789639 40.000000
      vertex 3.920000 -6.789639 8.000000
      vertex 5.245984 -5.826255 8.000000
    endloop
  endfacet
  facet normal 0.587785 -0.809017 0.000000
    outer loop
      vertex 5.245984 -5.826255 40.000000
      vertex 3.920000 -6.789639 40.000000
      vertex 5.245984 -5.826255 8.000000
    endloop
  endfacet
  facet normal 0.743145 -0.669131 0.000000
    outer loop
      vertex 5.245984 -5.826255 40.000000
      vertex 5.245984 -5.826255 8.000000
      vertex 6.342693 -4.608236 8.000000
    endloop
  endfacet
  facet normal 0.743145 -0.669131 0.000000
    outer loop
      vertex 6.342693 -4.608236 40.000000
      vertex 5.245984 -5.826255 40.000000
      vertex 6.342693 -4.608236 8.000000
    endloop
  endfacet
  facet normal 0.866025 -0.500000 0.000000
    outer loop
      vertex 6.342693 -4.608236 40.000000
      vertex 6.342693 -4.608236 8.000000
      vertex 7.162196 -3.188815 8.000000
    endloop
  endfacet
  facet normal 0.866025 -0.500000 0.000000
    outer loop
      vertex 7.162196 -3.188815 40.000000
      vertex 6.342693 -4.608236 40.000000
      vertex 7.162196 -3.188815 8.000000
    endloop
  endfacet
  facet normal 0.951056 -0.309017 0.000000
    outer loop
      vertex 7.162196 -3.188815 40.000000
      vertex 7.162196 -3.188815 8.000000
      vertex 7.668677 -1.630028 8.000000
    endloop
  endfacet
  facet normal 0.951056 -0.309017 0.000000
    outer loop
      vertex 7.668677 -1.630028 40.000000
      vertex 7.162196 -3.188815 40.000000
      vertex 7.668677 -1.630028 8.000000
    endloop
  endfacet
  facet normal 0.994522 -0.104529 0.000000
    outer loop
      vertex 7.668677 -1.630028 40.000000
      vertex 7.668677 -1.630028 8.000000
      vertex 7.840000 0.000000 8.000000
    endloop
  endfacet
  facet normal 0.994522 -0.104529 0.000000
    outer loop
      vertex 7.840000 0.000000 40.000000
      vertex 7.668677 -1.630028 40.000000
      vertex 7.840000 0.000000 8.000000
    endloop
  endfacet
  facet normal 0.994522 0.104529 0.000000
    outer loop
      vertex 7.840000 0.000000 8.000000
      vertex 7.668677 1.630028 8.000000
      vertex 7.668677 1.630028 40.000000
    endloop
  endfacet
  facet normal 0.994522 0.104529 0.000000
    outer loop
      vertex 7.840000 0.000000 40.000000
      vertex 7.840000 0.000000 8.000000
      vertex 7.668677 1.630028 40.000000
    endloop
  endfacet
  facet normal 0.951056 0.309017 0.000000
    outer loop
      vertex 7.668677 1.630028 8.000000
      vertex 7.162196 3.188815 8.000000
      vertex 7.162196 3.188815 40.000000
    endloop
  endfacet
  facet normal 0.951056 0.309017 0.000000
    outer loop
      vertex 7.668677 1.630028 40.000000
      vertex 7.668677 1.630028 8.000000
      vertex 7.162196 3.188815 40.000000
    endloop
  endfacet
  facet normal 0.866025 0.500000 0.000000
    outer loop
      vertex 7.162196 3.188815 8.000000
      vertex 6.342693 4.608236 8.000000
      vertex 6.342693 4.608236 40.000000
    endloop
  endfacet
  facet normal 0.866025 0.500000 0.000000
    outer loop
      vertex 7.162196 3.188815 40.000000
      vertex 7.162196 3.188815 8.000000
      vertex 6.342693 4.608236 40.000000
    endloop
  endfacet
  facet normal 0.743145 0.669131 0.000000
    outer loop
      vertex 6.342693 4.608236 8.000000
      vertex 5.245984 5.826255 8.000000
      vertex 5.245984 5.826255 40.000000
    endloop
  endfacet
  facet normal 0.743145 0.669131 0.000000
    outer loop
      vertex 6.342693 4.608236 40.000000
      vertex 6.342693 4.608236 8.000000
      vertex 5.245984 5.826255 40.000000
    endloop
  endfacet
  facet normal 0.587785 0.809017 0.000000
    outer loop
      vertex 3.920000 6.789639 8.000000
      vertex 3.920000 6.789639 40.000000
      vertex 5.245984 5.826255 8.000000
    endloop
  endfacet
  facet normal 0.587785 0.809017 0.000000
    outer loop
      vertex 5.245984 5.826255 8.000000
      vertex 3.920000 6.789639 40.000000
      vertex 5.245984 5.826255 40.000000
    endloop
  endfacet
  facet normal 0.406737 0.913545 0.000000
    outer loop
      vertex 2.422693 7.456283 8.000000
      vertex 2.422693 7.456283 40.000000
      vertex 3.920000 6.789639 8.000000
    endloop
  endfacet
  facet normal 0.406737 0.913545 0.000000
    outer loop
      vertex 3.920000 6.789639 8.000000
      vertex 2.422693 7.456283 40.000000
      vertex 3.920000 6.789639 40.000000
    endloop
  endfacet
  facet normal 0.207912 0.978148 0.000000
    outer loop
      vertex 0.819503 7.797052 8.000000
      vertex 0.819503 7.797052 40.000000
      vertex 2.422693 7.456283 8.000000
    endloop
  endfacet
  facet normal 0.207912 0.978148 0.000000
    outer loop
      vertex 2.422693 7.456283 8.000000
      vertex 0.819503 7.797052 40.000000
      vertex 2.422693 7.456283 40.000000
    endloop
  endfacet
  facet normal 0.000000 1.000000 0.000000
    outer loop
      vertex -0.819503 7.797052 8.000000
      vertex -0.819503 7.797052 40.000000
      vertex 0.819503 7.797052 8.000000
    endloop
  endfacet
  facet normal 0.000000 1.000000 0.000000
    outer loop
      vertex 0.819503 7.797052 8.000000
      vertex -0.819503 7.797052 40.000000
      vertex 0.819503 7.797052 40.000000
    endloop
  endfacet
  facet normal -0.207912 0.978148 0.000000
    outer loop
      vertex -2.422693 7.456283 8.000000
      vertex -2.422693 7.456283 40.000000
      vertex -0.819503 7.797052 8.000000
    endloop
  endfacet
  facet normal -0.207912 0.978148 0.000000
    outer loop
      vertex -0.819503 7.797052 8.000000
      vertex -2.422693 7.456283 40.000000
      vertex -0.819503 7.797052 40.000000
    endloop
  endfacet
  facet normal -0.406737 0.913545 0.000000
    outer loop
      vertex -3.920000 6.789639 8.000000
      vertex -3.920000 6.789639 40.000000
      vertex -2.422693 7.456283 8.000000
    endloop
  endfacet
  facet normal -0.406737 0.913545 0.000000
    outer loop
      vertex -2.422693 7.456283 8.000000
      vertex -3.920000 6.789639 40.000000
      vertex -2.422693 7.456283 40.000000
    endloop
  endfacet
  facet normal -0.587785 0.809017 0.000000
    outer loop
      vertex -5.245984 5.826255 8.000000
      vertex -5.245984 5.826255 40.000000
      vertex -3.920000 6.789639 8.000000
    endloop
  endfacet
  facet normal -0.587785 0.809017 0.000000
    outer loop
      vertex -3.920000 6.789639 8.000000
      vertex -5.245984 5.826255 40.000000
      vertex -3.920000 6.789639 40.000000
    endloop
  endfacet
  facet normal -0.743145 0.669131 0.000000
    outer loop
      vertex -6.342693 4.608236 8.000000
      vertex -6.342693 4.608236 40.000000
      vertex -5.245984 5.826255 8.000000
    endloop
  endfacet
  facet normal -0.743145 0.669131 0.000000
    outer loop
      vertex -5.245984 5.826255 8.000000
      vertex -6.342693 4.608236 40.000000
      vertex -5.245984 5.826255 40.000000
    endloop
  endfacet
  facet normal -0.866025 0.500000 0.000000
    outer loop
      vertex -7.162196 3.188815 8.000000
      vertex -7.162196 3.188815 40.000000
      vertex -6.342693 4.608236 8.000000
    endloop
  endfacet
  facet normal -0.866025 0.500000 0.000000
    outer loop
      vertex -6.342693 4.608236 8.000000
      vertex -7.162196 3.188815 40.000000
      vertex -6.342693 4.608236 40.000000
    endloop
  endfacet
  facet normal -0.951056 0.309017 0.000000
    outer loop
      vertex -7.668677 1.630028 8.000000
      vertex -7.668677 1.630028 40.000000
      vertex -7.162196 3.188815 8.000000
    endloop
  endfacet
  facet normal -0.951056 0.309017 0.000000
    outer loop
      vertex -7.162196 3.188815 8.000000
      vertex -7.668677 1.630028 40.000000
      vertex -7.162196 3.188815 40.000000
    endloop
  endfacet
  facet normal 0.000000 0.000000 1.000000
    outer loop
      vertex -7.668677 1.630028 40.000000
      vertex -7.840000 0.000000 40.000000
      vertex -7.668677 -1.630028 40.000000
    endloop
  endfacet
  facet normal 0.000000 0.000000 1.000000
    outer loop
      vertex -6.342693 -4.608236 40.000000
      vertex -7.668677 1.630028 40.000000
      vertex -7.162196 -3.188815 40.000000
    endloop
  endfacet
  facet normal 0.000000 0.000000 1.000000
    outer loop
      vertex -7.162196 -3.188815 40.000000
      vertex -7.668677 1.630028 40.000000
      vertex -7.668677 -1.630028 40.000000
    endloop
  endfacet
  facet normal 0.000000 0.000000 1.000000
    outer loop
      vertex -5.245984 -5.826255 40.000000
      vertex -7.668677 1.630028 40.000000
      vertex -6.342693 -4.608236 40.000000
    endloop
  endfacet
  facet normal 0.000000 0.000000 1.000000
    outer loop
      vertex -3.920000 -6.789639 40.000000
      vertex -7.668677 1.630028 40.000000
      vertex -5.245984 -5.826255 40.000000
    endloop
  endfacet
  facet normal 0.000000 0.000000 1.000000
    outer loop
      vertex -2.422693 -7.456283 40.000000
      vertex -7.668677 1.630028 40.000000
      vertex -3.920000 -6.789639 40.000000
    endloop
  endfacet
  facet normal 0.000000 0.000000 1.000000
    outer loop
      vertex -0.819503 -7.797052 40.000000
      vertex -7.668677 1.630028 40.000000
      vertex -2.422693 -7.456283 40.000000
    endloop
  endfacet
  facet normal 0.000000 0.000000 1.000000
    outer loop
      vertex 0.819503 -7.797052 40.000000
      vertex -7.668677 1.630028 40.000000
      vertex -0.819503 -7.797052 40.000000
    endloop
  endfacet
  facet normal 0.000000 0.000000 1.000000
    outer loop
      vertex 2.422693 -7.456283 40.000000
      vertex -7.668677 1.630028 40.000000
      vertex 0.819503 -7.797052 40.000000
    endloop
  endfacet
  facet normal 0.000000 0.000000 1.000000
    outer loop
      vertex 3.920000 -6.789639 40.000000
      vertex -7.668677 1.630028 40.000000
      vertex 2.422693 -7.456283 40.000000
    endloop
  endfacet
  facet normal 0.000000 0.000000 1.000000
    outer loop
      vertex 5.245984 -5.826255 40.000000
      vertex -7.668677 1.630028 40.000000
      vertex 3.920000 -6.789639 40.000000
    endloop
  endfacet
  facet normal 0.000000 0.000000 1.000000
    outer loop
      vertex 6.342693 -4.608236 40.000000
      vertex -7.668677 1.630028 40.000000
      vertex 5.245984 -5.826255 40.000000
    endloop
  endfacet
  facet normal 0.000000 0.000000 1.000000
    outer loop
      vertex 7.162196 -3.188815 40.000000
      vertex -7.668677 1.630028 40.000000
      vertex 6.342693 -4.608236 40.000000
    endloop
  endfacet
  facet normal 0.000000 0.000000 1.000000
    outer loop
      vertex 7.668677 -1.630028 40.000000
      vertex -7.668677 1.630028 40.000000
      vertex 7.162196 -3.188815 40.000000
    endloop
  endfacet
  facet normal 0.000000 0.000000 1.000000
    outer loop
      vertex 7.840000 0.000000 40.000000
      vertex -7.668677 1.630028 40.000000
      vertex 7.668677 -1.630028 40.000000
    endloop
  endfacet
  facet normal 0.000000 0.000000 1.000000
    outer loop
      vertex 7.668677 1.630028 40.000000
      vertex -7.668677 1.630028 40.000000
      vertex 7.840000 0.000000 40.000000
    endloop
  endfacet
  facet normal 0.000000 0.000000 1.000000
    outer loop
      vertex 7.162196 3.188815 40.000000
      vertex -7.668677 1.630028 40.000000
      vertex 7.668677 1.630028 40.000000
    endloop
  endfacet
  facet normal 0.000000 0.000000 1.000000
    outer loop
      vertex 6.342693 4.608236 40.000000
      vertex -7.668677 1.630028 40.000000
      vertex 7.162196 3.188815 40.000000
    endloop
  endfacet
  facet normal 0.000000 0.000000 1.000000
    outer loop
      vertex 5.245984 5.826255 40.000000
      vertex -7.668677 1.630028 40.000000
      vertex 6.342693 4.608236 40.000000
    endloop
  endfacet
  facet normal 0.000000 0.000000 1.000000
    outer loop
      vertex 3.920000 6.789639 40.000000
      vertex -7.668677 1.630028 40.000000
      vertex 5.245984 5.826255 40.000000
    endloop
  endfacet
  facet normal 0.000000 0.000000 1.000000
    outer loop
      vertex 2.422693 7.456283 40.000000
      vertex -7.668677 1.630028 40.000000
      vertex 3.920000 6.789639 40.000000
    endloop
  endfacet
  facet normal 0.000000 0.000000 1.000000
    outer loop
      vertex 0.819503 7.797052 40.000000
      vertex -7.668677 1.630028 40.000000
      vertex 2.422693 7.456283 40.000000
    endloop
  endfacet
  facet normal 0.000000 0.000000 1.000000
    outer loop
      vertex -0.819503 7.797052 40.000000
      vertex -7.668677 1.630028 40.000000
      vertex 0.819503 7.797052 40.000000
    endloop
  endfacet
  facet normal 0.000000 0.000000 1.000000
    outer loop
      vertex -2.422693 7.456283 40.000000
      vertex -7.668677 1.630028 40.000000
      vertex -0.819503 7.797052 40.000000
    endloop
  endfacet
  facet normal 0.000000 0.000000 1.000000
    outer loop
      vertex -3.920000 6.789639 40.000000
      vertex -7.668677 1.630028 40.000000
      vertex -2.422693 7.456283 40.000000
    endloop
  endfacet
  facet normal 0.000000 0.000000 1.000000
    outer loop
      vertex -5.245984 5.826255 40.000000
      vertex -7.668677 1.630028 40.000000
      vertex -3.920000 6.789639 40.000000
    endloop
  endfacet
  facet normal 0.000000 0.000000 1.000000
    outer loop
      vertex -6.342693 4.608236 40.000000
      vertex -7.668677 1.630028 40.000000
      vertex -5.245984 5.826255 40.000000
    endloop
  endfacet
  facet normal 0.000000 0.000000 1.000000
    outer loop
      vertex -7.162196 3.188815 40.000000
      vertex -7.668677 1.630028 40.000000
      vertex -6.342693 4.608236 40.000000
    endloop
  endfacet
endsolid OpenSCAD_Model
