  0
SECTION
  2
ENTITIES
  0
LINE
 10
-7.840000
 11
-7.669000
 20
0.000000
 21
1.630000
  0
LINE
 10
-7.669000
 11
-7.162000
 20
1.630000
 21
3.189000
  0
LINE
 10
-7.162000
 11
-6.343000
 20
3.189000
 21
4.608000
  0
LINE
 10
-6.343000
 11
-5.246000
 20
4.608000
 21
5.826000
  0
LINE
 10
-5.246000
 11
-3.920000
 20
5.826000
 21
6.790000
  0
LINE
 10
-3.920000
 11
-2.423000
 20
6.790000
 21
7.456000
  0
LINE
 10
-2.423000
 11
-0.820000
 20
7.456000
 21
7.797000
  0
LINE
 10
-0.820000
 11
0.820000
 20
7.797000
 21
7.797000
  0
LINE
 10
0.820000
 11
2.423000
 20
7.797000
 21
7.456000
  0
LINE
 10
2.423000
 11
3.920000
 20
7.456000
 21
6.790000
  0
LINE
 10
3.920000
 11
5.246000
 20
6.790000
 21
5.826000
  0
LINE
 10
5.246000
 11
6.343000
 20
5.826000
 21
4.608000
  0
LINE
 10
6.343000
 11
7.162000
 20
4.608000
 21
3.189000
  0
LINE
 10
7.162000
 11
7.669000
 20
3.189000
 21
1.630000
  0
LINE
 10
7.669000
 11
7.840000
 20
1.630000
 21
0.000000
  0
LINE
 10
7.840000
 11
7.669000
 20
0.000000
 21
-1.630000
  0
LINE
 10
7.669000
 11
7.162000
 20
-1.630000
 21
-3.189000
  0
LINE
 10
7.162000
 11
6.343000
 20
-3.189000
 21
-4.608000
  0
LINE
 10
6.343000
 11
5.246000
 20
-4.608000
 21
-5.826000
  0
LINE
 10
5.246000
 11
3.920000
 20
-5.826000
 21
-6.790000
  0
LINE
 10
3.920000
 11
2.423000
 20
-6.790000
 21
-7.456000
  0
LINE
 10
2.423000
 11
0.820000
 20
-7.456000
 21
-7.797000
  0
LINE
 10
0.820000
 11
-0.820000
 20
-7.797000
 21
-7.797000
  0
LINE
 10
-0.820000
 11
-2.423000
 20
-7.797000
 21
-7.456000
  0
LINE
 10
-2.423000
 11
-3.920000
 20
-7.456000
 21
-6.790000
  0
LINE
 10
-3.920000
 11
-5.246000
 20
-6.790000
 21
-5.826000
  0
LINE
 10
-5.246000
 11
-6.343000
 20
-5.826000
 21
-4.608000
  0
LINE
 10
-6.343000
 11
-7.162000
 20
-4.608000
 21
-3.189000
  0
LINE
 10
-7.162000
 11
-7.669000
 20
-3.189000
 21
-1.630000
  0
LINE
 10
-7.669000
 11
-7.840000
 20
-1.630000
 21
0.000000
  0
LINE
 10
-2.000000
 11
-1.956000
 20
0.000000
 21
0.416000
  0
LINE
 10
-1.956000
 11
-1.827000
 20
0.416000
 21
0.813000
  0
LINE
 10
-1.827000
 11
-1.618000
 20
0.813000
 21
1.176000
  0
LINE
 10
-1.618000
 11
-1.338000
 20
1.176000
 21
1.486000
  0
LINE
 10
-1.338000
 11
-1.000000
 20
1.486000
 21
1.732000
  0
LINE
 10
-1.000000
 11
-0.618000
 20
1.732000
 21
1.902000
  0
LINE
 10
-0.618000
 11
-0.209000
 20
1.902000
 21
1.989000
  0
LINE
 10
-0.209000
 11
0.209000
 20
1.989000
 21
1.989000
  0
LINE
 10
0.209000
 11
0.618000
 20
1.989000
 21
1.902000
  0
LINE
 10
0.618000
 11
1.000000
 20
1.902000
 21
1.732000
  0
LINE
 10
1.000000
 11
1.338000
 20
1.732000
 21
1.486000
  0
LINE
 10
1.338000
 11
1.618000
 20
1.486000
 21
1.176000
  0
LINE
 10
1.618000
 11
1.827000
 20
1.176000
 21
0.813000
  0
LINE
 10
1.827000
 11
1.956000
 20
0.813000
 21
0.416000
  0
LINE
 10
1.956000
 11
2.000000
 20
0.416000
 21
0.000000
  0
LINE
 10
2.000000
 11
1.956000
 20
0.000000
 21
-0.416000
  0
LINE
 10
1.956000
 11
1.827000
 20
-0.416000
 21
-0.813000
  0
LINE
 10
1.827000
 11
1.618000
 20
-0.813000
 21
-1.176000
  0
LINE
 10
1.618000
 11
1.338000
 20
-1.176000
 21
-1.486000
  0
LINE
 10
1.338000
 11
1.000000
 20
-1.486000
 21
-1.732000
  0
LINE
 10
1.000000
 11
0.618000
 20
-1.732000
 21
-1.902000
  0
LINE
 10
0.618000
 11
0.209000
 20
-1.902000
 21
-1.989000
  0
LINE
 10
0.209000
 11
-0.209000
 20
-1.989000
 21
-1.989000
  0
LINE
 10
-0.209000
 11
-0.618000
 20
-1.989000
 21
-1.902000
  0
LINE
 10
-0.618000
 11
-1.000000
 20
-1.902000
 21
-1.732000
  0
LINE
 10
-1.000000
 11
-1.338000
 20
-1.732000
 21
-1.486000
  0
LINE
 10
-1.338000
 11
-1.618000
 20
-1.486000
 21
-1.176000
  0
LINE
 10
-1.618000
 11
-1.827000
 20
-1.176000
 21
-0.813000
  0
LINE
 10
-1.827000
 11
-1.956000
 20
-0.813000
 21
-0.416000
  0
LINE
 10
-1.956000
 11
-2.000000
 20
-0.416000
 21
0.000000
  0
ENDSEC
  0
EOF
