  0
SECTION
  2
ENTITIES
  0
LINE
 10
-9.680000
 11
-9.337000
 20
0.000000
 21
3.260000
  0
LINE
 10
-9.337000
 11
-8.324000
 20
3.260000
 21
6.378000
  0
LINE
 10
-8.324000
 11
-6.685000
 20
6.378000
 21
9.216000
  0
LINE
 10
-6.685000
 11
-4.492000
 20
9.216000
 21
11.653000
  0
LINE
 10
-4.492000
 11
-1.840000
 20
11.653000
 21
13.579000
  0
LINE
 10
-1.840000
 11
1.155000
 20
13.579000
 21
14.913000
  0
LINE
 10
1.155000
 11
4.361000
 20
14.913000
 21
15.594000
  0
LINE
 10
4.361000
 11
7.639000
 20
15.594000
 21
15.594000
  0
LINE
 10
7.639000
 11
10.845000
 20
15.594000
 21
14.913000
  0
LINE
 10
10.845000
 11
13.840000
 20
14.913000
 21
13.579000
  0
LINE
 10
13.840000
 11
16.492000
 20
13.579000
 21
11.653000
  0
LINE
 10
16.492000
 11
18.685000
 20
11.653000
 21
9.216000
  0
LINE
 10
18.685000
 11
20.324000
 20
9.216000
 21
6.378000
  0
LINE
 10
20.324000
 11
21.337000
 20
6.378000
 21
3.260000
  0
LINE
 10
21.337000
 11
21.680000
 20
3.260000
 21
0.000000
  0
LINE
 10
21.680000
 11
21.337000
 20
0.000000
 21
-3.260000
  0
LINE
 10
21.337000
 11
20.324000
 20
-3.260000
 21
-6.378000
  0
LINE
 10
20.324000
 11
18.685000
 20
-6.378000
 21
-9.216000
  0
LINE
 10
18.685000
 11
16.492000
 20
-9.216000
 21
-11.653000
  0
LINE
 10
16.492000
 11
13.840000
 20
-11.653000
 21
-13.579000
  0
LINE
 10
13.840000
 11
10.845000
 20
-13.579000
 21
-14.913000
  0
LINE
 10
10.845000
 11
7.639000
 20
-14.913000
 21
-15.594000
  0
LINE
 10
7.639000
 11
4.361000
 20
-15.594000
 21
-15.594000
  0
LINE
 10
4.361000
 11
1.155000
 20
-15.594000
 21
-14.913000
  0
LINE
 10
1.155000
 11
-1.840000
 20
-14.913000
 21
-13.579000
  0
LINE
 10
-1.840000
 11
-4.492000
 20
-13.579000
 21
-11.653000
  0
LINE
 10
-4.492000
 11
-6.685000
 20
-11.653000
 21
-9.216000
  0
LINE
 10
-6.685000
 11
-8.324000
 20
-9.216000
 21
-6.378000
  0
LINE
 10
-8.324000
 11
-9.337000
 20
-6.378000
 21
-3.260000
  0
LINE
 10
-9.337000
 11
-9.680000
 20
-3.260000
 21
0.000000
  0
LINE
 10
-2.000000
 11
-1.956000
 20
0.000000
 21
0.416000
  0
LINE
 10
-1.956000
 11
-1.827000
 20
0.416000
 21
0.813000
  0
LINE
 10
-1.827000
 11
-1.618000
 20
0.813000
 21
1.176000
  0
LINE
 10
-1.618000
 11
-1.338000
 20
1.176000
 21
1.486000
  0
LINE
 10
-1.338000
 11
-1.000000
 20
1.486000
 21
1.732000
  0
LINE
 10
-1.000000
 11
-0.618000
 20
1.732000
 21
1.902000
  0
LINE
 10
-0.618000
 11
-0.209000
 20
1.902000
 21
1.989000
  0
LINE
 10
-0.209000
 11
0.209000
 20
1.989000
 21
1.989000
  0
LINE
 10
0.209000
 11
0.618000
 20
1.989000
 21
1.902000
  0
LINE
 10
0.618000
 11
1.000000
 20
1.902000
 21
1.732000
  0
LINE
 10
1.000000
 11
1.338000
 20
1.732000
 21
1.486000
  0
LINE
 10
1.338000
 11
1.618000
 20
1.486000
 21
1.176000
  0
LINE
 10
1.618000
 11
1.827000
 20
1.176000
 21
0.813000
  0
LINE
 10
1.827000
 11
1.956000
 20
0.813000
 21
0.416000
  0
LINE
 10
1.956000
 11
2.000000
 20
0.416000
 21
0.000000
  0
LINE
 10
2.000000
 11
1.956000
 20
0.000000
 21
-0.416000
  0
LINE
 10
1.956000
 11
1.827000
 20
-0.416000
 21
-0.813000
  0
LINE
 10
1.827000
 11
1.618000
 20
-0.813000
 21
-1.176000
  0
LINE
 10
1.618000
 11
1.338000
 20
-1.176000
 21
-1.486000
  0
LINE
 10
1.338000
 11
1.000000
 20
-1.486000
 21
-1.732000
  0
LINE
 10
1.000000
 11
0.618000
 20
-1.732000
 21
-1.902000
  0
LINE
 10
0.618000
 11
0.209000
 20
-1.902000
 21
-1.989000
  0
LINE
 10
0.209000
 11
-0.209000
 20
-1.989000
 21
-1.989000
  0
LINE
 10
-0.209000
 11
-0.618000
 20
-1.989000
 21
-1.902000
  0
LINE
 10
-0.618000
 11
-1.000000
 20
-1.902000
 21
-1.732000
  0
LINE
 10
-1.000000
 11
-1.338000
 20
-1.732000
 21
-1.486000
  0
LINE
 10
-1.338000
 11
-1.618000
 20
-1.486000
 21
-1.176000
  0
LINE
 10
-1.618000
 11
-1.827000
 20
-1.176000
 21
-0.813000
  0
LINE
 10
-1.827000
 11
-1.956000
 20
-0.813000
 21
-0.416000
  0
LINE
 10
-1.956000
 11
-2.000000
 20
-0.416000
 21
0.000000
  0
ENDSEC
  0
EOF
