  0
SECTION
  2
BLOCKS
  0
ENDSEC
  0
SECTION
  2
ENTITIES
  0
LINE
  8
0
 10
0
 11
0
 20
0
 21
53.3
  0
LINE
  8
0
 10
0
 11
68.6
 20
53.3
 21
53.3
  0
LINE
  8
0
 10
68.6
 11
68.6
 20
53.3
 21
0
  0
LINE
  8
0
 10
68.6
 11
0
 20
0
 21
0
  0
LINE
  8
0
 10
12.418
 11
12.418
 20
50.562
 21
51.038
  0
LINE
  8
0
 10
12.418
 11
12.558
 20
51.038
 21
51.494
  0
LINE
  8
0
 10
12.558
 11
12.827
 20
51.494
 21
51.888
  0
LINE
  8
0
 10
12.827
 11
13.2
 20
51.888
 21
52.186
  0
LINE
  8
0
 10
13.2
 11
13.644
 20
52.186
 21
52.36
  0
LINE
  8
0
 10
13.644
 11
14.12
 20
52.36
 21
52.396
  0
LINE
  8
0
 10
14.12
 11
14.585
 20
52.396
 21
52.289
  0
LINE
  8
0
 10
14.585
 11
14.998
 20
52.289
 21
52.051
  0
LINE
  8
0
 10
14.998
 11
15.322
 20
52.051
 21
51.701
  0
LINE
  8
0
 10
15.322
 11
15.529
 20
51.701
 21
51.272
  0
LINE
  8
0
 10
15.529
 11
15.6
 20
51.272
 21
50.8
  0
LINE
  8
0
 10
15.6
 11
15.529
 20
50.8
 21
50.328
  0
LINE
  8
0
 10
15.529
 11
15.322
 20
50.328
 21
49.899
  0
LINE
  8
0
 10
15.322
 11
14.998
 20
49.899
 21
49.549
  0
LINE
  8
0
 10
14.998
 11
14.585
 20
49.549
 21
49.311
  0
LINE
  8
0
 10
14.585
 11
14.12
 20
49.311
 21
49.204
  0
LINE
  8
0
 10
14.12
 11
13.644
 20
49.204
 21
49.24
  0
LINE
  8
0
 10
13.644
 11
13.2
 20
49.24
 21
49.414
  0
LINE
  8
0
 10
13.2
 11
12.827
 20
49.414
 21
49.712
  0
LINE
  8
0
 10
12.827
 11
12.558
 20
49.712
 21
50.106
  0
LINE
  8
0
 10
12.558
 11
12.418
 20
50.106
 21
50.562
  0
LINE
  8
0
 10
13.718
 11
13.718
 20
2.262
 21
2.738
  0
LINE
  8
0
 10
13.718
 11
13.858
 20
2.738
 21
3.194
  0
LINE
  8
0
 10
13.858
 11
14.127
 20
3.194
 21
3.588
  0
LINE
  8
0
 10
14.127
 11
14.5
 20
3.588
 21
3.886
  0
LINE
  8
0
 10
14.5
 11
14.944
 20
3.886
 21
4.06
  0
LINE
  8
0
 10
14.944
 11
15.42
 20
4.06
 21
4.096
  0
LINE
  8
0
 10
15.42
 11
15.885
 20
4.096
 21
3.989
  0
LINE
  8
0
 10
15.885
 11
16.298
 20
3.989
 21
3.751
  0
LINE
  8
0
 10
16.298
 11
16.622
 20
3.751
 21
3.401
  0
LINE
  8
0
 10
16.622
 11
16.829
 20
3.401
 21
2.972
  0
LINE
  8
0
 10
16.829
 11
16.9
 20
2.972
 21
2.5
  0
LINE
  8
0
 10
16.9
 11
16.829
 20
2.5
 21
2.028
  0
LINE
  8
0
 10
16.829
 11
16.622
 20
2.028
 21
1.599
  0
LINE
  8
0
 10
16.622
 11
16.298
 20
1.599
 21
1.249
  0
LINE
  8
0
 10
16.298
 11
15.885
 20
1.249
 21
1.011
  0
LINE
  8
0
 10
15.885
 11
15.42
 20
1.011
 21
0.904
  0
LINE
  8
0
 10
15.42
 11
14.944
 20
0.904
 21
0.94
  0
LINE
  8
0
 10
14.944
 11
14.5
 20
0.94
 21
1.114
  0
LINE
  8
0
 10
14.5
 11
14.127
 20
1.114
 21
1.412
  0
LINE
  8
0
 10
14.127
 11
13.858
 20
1.412
 21
1.806
  0
LINE
  8
0
 10
13.858
 11
13.718
 20
1.806
 21
2.262
  0
LINE
  8
0
 10
64.518
 11
64.518
 20
17.462
 21
17.938
  0
LINE
  8
0
 10
64.518
 11
64.658
 20
17.938
 21
18.394
  0
LINE
  8
0
 10
64.658
 11
64.927
 20
18.394
 21
18.788
  0
LINE
  8
0
 10
64.927
 11
65.3
 20
18.788
 21
19.086
  0
LINE
  8
0
 10
65.3
 11
65.744
 20
19.086
 21
19.26
  0
LINE
  8
0
 10
65.744
 11
66.22
 20
19.26
 21
19.296
  0
LINE
  8
0
 10
66.22
 11
66.685
 20
19.296
 21
19.189
  0
LINE
  8
0
 10
66.685
 11
67.098
 20
19.189
 21
18.951
  0
LINE
  8
0
 10
67.098
 11
67.422
 20
18.951
 21
18.601
  0
LINE
  8
0
 10
67.422
 11
67.629
 20
18.601
 21
18.172
  0
LINE
  8
0
 10
67.629
 11
67.7
 20
18.172
 21
17.7
  0
LINE
  8
0
 10
67.7
 11
67.629
 20
17.7
 21
17.228
  0
LINE
  8
0
 10
67.629
 11
67.422
 20
17.228
 21
16.799
  0
LINE
  8
0
 10
67.422
 11
67.098
 20
16.799
 21
16.449
  0
LINE
  8
0
 10
67.098
 11
66.685
 20
16.449
 21
16.211
  0
LINE
  8
0
 10
66.685
 11
66.22
 20
16.211
 21
16.104
  0
LINE
  8
0
 10
66.22
 11
65.744
 20
16.104
 21
16.14
  0
LINE
  8
0
 10
65.744
 11
65.3
 20
16.14
 21
16.314
  0
LINE
  8
0
 10
65.3
 11
64.927
 20
16.314
 21
16.612
  0
LINE
  8
0
 10
64.927
 11
64.658
 20
16.612
 21
17.006
  0
LINE
  8
0
 10
64.658
 11
64.518
 20
17.006
 21
17.462
  0
LINE
  8
0
 10
64.518
 11
64.518
 20
45.362
 21
45.838
  0
LINE
  8
0
 10
64.518
 11
64.658
 20
45.838
 21
46.294
  0
LINE
  8
0
 10
64.658
 11
64.927
 20
46.294
 21
46.688
  0
LINE
  8
0
 10
64.927
 11
65.3
 20
46.688
 21
46.986
  0
LINE
  8
0
 10
65.3
 11
65.744
 20
46.986
 21
47.16
  0
LINE
  8
0
 10
65.744
 11
66.22
 20
47.16
 21
47.196
  0
LINE
  8
0
 10
66.22
 11
66.685
 20
47.196
 21
47.089
  0
LINE
  8
0
 10
66.685
 11
67.098
 20
47.089
 21
46.851
  0
LINE
  8
0
 10
67.098
 11
67.422
 20
46.851
 21
46.501
  0
LINE
  8
0
 10
67.422
 11
67.629
 20
46.501
 21
46.072
  0
LINE
  8
0
 10
67.629
 11
67.7
 20
46.072
 21
45.6
  0
LINE
  8
0
 10
67.7
 11
67.629
 20
45.6
 21
45.128
  0
LINE
  8
0
 10
67.629
 11
67.422
 20
45.128
 21
44.699
  0
LINE
  8
0
 10
67.422
 11
67.098
 20
44.699
 21
44.349
  0
LINE
  8
0
 10
67.098
 11
66.685
 20
44.349
 21
44.111
  0
LINE
  8
0
 10
66.685
 11
66.22
 20
44.111
 21
44.004
  0
LINE
  8
0
 10
66.22
 11
65.744
 20
44.004
 21
44.04
  0
LINE
  8
0
 10
65.744
 11
65.3
 20
44.04
 21
44.214
  0
LINE
  8
0
 10
65.3
 11
64.927
 20
44.214
 21
44.512
  0
LINE
  8
0
 10
64.927
 11
64.658
 20
44.512
 21
44.906
  0
LINE
  8
0
 10
64.658
 11
64.518
 20
44.906
 21
45.362
  0
ENDSEC
  0
SECTION
  2
OBJECTS
  0
DICTIONARY
  0
ENDSEC
  0
EOF
