  0
SECTION
  2
BLOCKS
  0
ENDSEC
  0
SECTION
  2
ENTITIES
  0
LINE
  8
0
 10
-45.5
 11
-45.434
 20
-32.5
 21
-31.876
  0
LINE
  8
0
 10
-45.434
 11
-45.241
 20
-31.876
 21
-31.28
  0
LINE
  8
0
 10
-45.241
 11
-44.927
 20
-31.28
 21
-30.737
  0
LINE
  8
0
 10
-44.927
 11
-44.507
 20
-30.737
 21
-30.271
  0
LINE
  8
0
 10
-44.507
 11
-44
 20
-30.271
 21
-29.902
  0
LINE
  8
0
 10
-44
 11
-43.427
 20
-29.902
 21
-29.647
  0
LINE
  8
0
 10
-43.427
 11
-42.814
 20
-29.647
 21
-29.516
  0
LINE
  8
0
 10
-42.814
 11
-42.186
 20
-29.516
 21
-29.516
  0
LINE
  8
0
 10
-42.186
 11
-41.573
 20
-29.516
 21
-29.647
  0
LINE
  8
0
 10
-41.573
 11
-41
 20
-29.647
 21
-29.902
  0
LINE
  8
0
 10
-41
 11
-40.493
 20
-29.902
 21
-30.271
  0
LINE
  8
0
 10
-40.493
 11
-40.073
 20
-30.271
 21
-30.737
  0
LINE
  8
0
 10
-40.073
 11
-39.759
 20
-30.737
 21
-31.28
  0
LINE
  8
0
 10
-39.759
 11
-39.566
 20
-31.28
 21
-31.876
  0
LINE
  8
0
 10
-39.566
 11
-39.5
 20
-31.876
 21
-32.5
  0
LINE
  8
0
 10
-39.5
 11
-39.566
 20
-32.5
 21
-33.124
  0
LINE
  8
0
 10
-39.566
 11
-39.759
 20
-33.124
 21
-33.72
  0
LINE
  8
0
 10
-39.759
 11
-40.073
 20
-33.72
 21
-34.263
  0
LINE
  8
0
 10
-40.073
 11
-40.493
 20
-34.263
 21
-34.729
  0
LINE
  8
0
 10
-40.493
 11
-41
 20
-34.729
 21
-35.098
  0
LINE
  8
0
 10
-41
 11
-41.573
 20
-35.098
 21
-35.353
  0
LINE
  8
0
 10
-41.573
 11
-42.186
 20
-35.353
 21
-35.484
  0
LINE
  8
0
 10
-42.186
 11
-42.814
 20
-35.484
 21
-35.484
  0
LINE
  8
0
 10
-42.814
 11
-43.427
 20
-35.484
 21
-35.353
  0
LINE
  8
0
 10
-43.427
 11
-44
 20
-35.353
 21
-35.098
  0
LINE
  8
0
 10
-44
 11
-44.507
 20
-35.098
 21
-34.729
  0
LINE
  8
0
 10
-44.507
 11
-44.927
 20
-34.729
 21
-34.263
  0
LINE
  8
0
 10
-44.927
 11
-45.241
 20
-34.263
 21
-33.72
  0
LINE
  8
0
 10
-45.241
 11
-45.434
 20
-33.72
 21
-33.124
  0
LINE
  8
0
 10
-45.434
 11
-45.5
 20
-33.124
 21
-32.5
  0
LINE
  8
0
 10
-45.5
 11
-45.434
 20
32.5
 21
33.124
  0
LINE
  8
0
 10
-45.434
 11
-45.241
 20
33.124
 21
33.72
  0
LINE
  8
0
 10
-45.241
 11
-44.927
 20
33.72
 21
34.263
  0
LINE
  8
0
 10
-44.927
 11
-44.507
 20
34.263
 21
34.729
  0
LINE
  8
0
 10
-44.507
 11
-44
 20
34.729
 21
35.098
  0
LINE
  8
0
 10
-44
 11
-43.427
 20
35.098
 21
35.353
  0
LINE
  8
0
 10
-43.427
 11
-42.814
 20
35.353
 21
35.484
  0
LINE
  8
0
 10
-42.814
 11
-42.186
 20
35.484
 21
35.484
  0
LINE
  8
0
 10
-42.186
 11
-41.573
 20
35.484
 21
35.353
  0
LINE
  8
0
 10
-41.573
 11
-41
 20
35.353
 21
35.098
  0
LINE
  8
0
 10
-41
 11
-40.493
 20
35.098
 21
34.729
  0
LINE
  8
0
 10
-40.493
 11
-40.073
 20
34.729
 21
34.263
  0
LINE
  8
0
 10
-40.073
 11
-39.759
 20
34.263
 21
33.72
  0
LINE
  8
0
 10
-39.759
 11
-39.566
 20
33.72
 21
33.124
  0
LINE
  8
0
 10
-39.566
 11
-39.5
 20
33.124
 21
32.5
  0
LINE
  8
0
 10
-39.5
 11
-39.566
 20
32.5
 21
31.876
  0
LINE
  8
0
 10
-39.566
 11
-39.759
 20
31.876
 21
31.28
  0
LINE
  8
0
 10
-39.759
 11
-40.073
 20
31.28
 21
30.737
  0
LINE
  8
0
 10
-40.073
 11
-40.493
 20
30.737
 21
30.271
  0
LINE
  8
0
 10
-40.493
 11
-41
 20
30.271
 21
29.902
  0
LINE
  8
0
 10
-41
 11
-41.573
 20
29.902
 21
29.647
  0
LINE
  8
0
 10
-41.573
 11
-42.186
 20
29.647
 21
29.516
  0
LINE
  8
0
 10
-42.186
 11
-42.814
 20
29.516
 21
29.516
  0
LINE
  8
0
 10
-42.814
 11
-43.427
 20
29.516
 21
29.647
  0
LINE
  8
0
 10
-43.427
 11
-44
 20
29.647
 21
29.902
  0
LINE
  8
0
 10
-44
 11
-44.507
 20
29.902
 21
30.271
  0
LINE
  8
0
 10
-44.507
 11
-44.927
 20
30.271
 21
30.737
  0
LINE
  8
0
 10
-44.927
 11
-45.241
 20
30.737
 21
31.28
  0
LINE
  8
0
 10
-45.241
 11
-45.434
 20
31.28
 21
31.876
  0
LINE
  8
0
 10
-45.434
 11
-45.5
 20
31.876
 21
32.5
  0
LINE
  8
0
 10
-50
 11
-50
 20
-37.5
 21
37.5
  0
LINE
  8
0
 10
-50
 11
-49.945
 20
37.5
 21
38.02
  0
LINE
  8
0
 10
-49.945
 11
-49.784
 20
38.02
 21
38.517
  0
LINE
  8
0
 10
-49.784
 11
-49.523
 20
38.517
 21
38.969
  0
LINE
  8
0
 10
-49.523
 11
-49.173
 20
38.969
 21
39.358
  0
LINE
  8
0
 10
-49.173
 11
-48.75
 20
39.358
 21
39.665
  0
LINE
  8
0
 10
-48.75
 11
-48.273
 20
39.665
 21
39.878
  0
LINE
  8
0
 10
-48.273
 11
-47.761
 20
39.878
 21
39.986
  0
LINE
  8
0
 10
-47.761
 11
-37.5
 20
39.986
 21
39.986
  0
LINE
  8
0
 10
-37.5
 11
-37.5
 20
39.986
 21
24
  0
LINE
  8
0
 10
-37.5
 11
-32.5
 20
24
 21
24
  0
LINE
  8
0
 10
-32.5
 11
-32.5
 20
24
 21
39.986
  0
LINE
  8
0
 10
-32.5
 11
32.5
 20
39.986
 21
39.986
  0
LINE
  8
0
 10
32.5
 11
32.5
 20
39.986
 21
24
  0
LINE
  8
0
 10
32.5
 11
37.5
 20
24
 21
24
  0
LINE
  8
0
 10
37.5
 11
37.5
 20
24
 21
39.986
  0
LINE
  8
0
 10
37.5
 11
47.761
 20
39.986
 21
39.986
  0
LINE
  8
0
 10
47.761
 11
48.273
 20
39.986
 21
39.878
  0
LINE
  8
0
 10
48.273
 11
48.75
 20
39.878
 21
39.665
  0
LINE
  8
0
 10
48.75
 11
49.173
 20
39.665
 21
39.358
  0
LINE
  8
0
 10
49.173
 11
49.523
 20
39.358
 21
38.969
  0
LINE
  8
0
 10
49.523
 11
49.784
 20
38.969
 21
38.517
  0
LINE
  8
0
 10
49.784
 11
49.945
 20
38.517
 21
38.02
  0
LINE
  8
0
 10
49.945
 11
50
 20
38.02
 21
37.5
  0
LINE
  8
0
 10
50
 11
50
 20
37.5
 21
-37.5
  0
LINE
  8
0
 10
50
 11
49.945
 20
-37.5
 21
-38.02
  0
LINE
  8
0
 10
49.945
 11
49.784
 20
-38.02
 21
-38.517
  0
LINE
  8
0
 10
49.784
 11
49.523
 20
-38.517
 21
-38.969
  0
LINE
  8
0
 10
49.523
 11
49.173
 20
-38.969
 21
-39.358
  0
LINE
  8
0
 10
49.173
 11
48.75
 20
-39.358
 21
-39.665
  0
LINE
  8
0
 10
48.75
 11
48.273
 20
-39.665
 21
-39.878
  0
LINE
  8
0
 10
48.273
 11
47.761
 20
-39.878
 21
-39.986
  0
LINE
  8
0
 10
47.761
 11
37.5
 20
-39.986
 21
-39.986
  0
LINE
  8
0
 10
37.5
 11
37.5
 20
-39.986
 21
-24
  0
LINE
  8
0
 10
37.5
 11
32.5
 20
-24
 21
-24
  0
LINE
  8
0
 10
32.5
 11
32.5
 20
-24
 21
-39.986
  0
LINE
  8
0
 10
32.5
 11
-32.5
 20
-39.986
 21
-39.986
  0
LINE
  8
0
 10
-32.5
 11
-32.5
 20
-39.986
 21
-24
  0
LINE
  8
0
 10
-32.5
 11
-37.5
 20
-24
 21
-24
  0
LINE
  8
0
 10
-37.5
 11
-37.5
 20
-24
 21
-39.986
  0
LINE
  8
0
 10
-37.5
 11
-47.761
 20
-39.986
 21
-39.986
  0
LINE
  8
0
 10
-47.761
 11
-48.273
 20
-39.986
 21
-39.878
  0
LINE
  8
0
 10
-48.273
 11
-48.75
 20
-39.878
 21
-39.665
  0
LINE
  8
0
 10
-48.75
 11
-49.173
 20
-39.665
 21
-39.358
  0
LINE
  8
0
 10
-49.173
 11
-49.523
 20
-39.358
 21
-38.969
  0
LINE
  8
0
 10
-49.523
 11
-49.784
 20
-38.969
 21
-38.517
  0
LINE
  8
0
 10
-49.784
 11
-49.945
 20
-38.517
 21
-38.02
  0
LINE
  8
0
 10
-49.945
 11
-50
 20
-38.02
 21
-37.5
  0
LINE
  8
0
 10
-26.667
 11
-26.448
 20
0
 21
2.079
  0
LINE
  8
0
 10
-26.448
 11
-25.802
 20
2.079
 21
4.067
  0
LINE
  8
0
 10
-25.802
 11
-24.757
 20
4.067
 21
5.878
  0
LINE
  8
0
 10
-24.757
 11
-23.358
 20
5.878
 21
7.431
  0
LINE
  8
0
 10
-23.358
 11
-21.667
 20
7.431
 21
8.66
  0
LINE
  8
0
 10
-21.667
 11
-19.757
 20
8.66
 21
9.511
  0
LINE
  8
0
 10
-19.757
 11
-17.712
 20
9.511
 21
9.945
  0
LINE
  8
0
 10
-17.712
 11
-15.621
 20
9.945
 21
9.945
  0
LINE
  8
0
 10
-15.621
 11
-13.576
 20
9.945
 21
9.511
  0
LINE
  8
0
 10
-13.576
 11
-11.667
 20
9.511
 21
8.66
  0
LINE
  8
0
 10
-11.667
 11
-9.975
 20
8.66
 21
7.431
  0
LINE
  8
0
 10
-9.975
 11
-8.576
 20
7.431
 21
5.878
  0
LINE
  8
0
 10
-8.576
 11
-7.531
 20
5.878
 21
4.067
  0
LINE
  8
0
 10
-7.531
 11
-6.885
 20
4.067
 21
2.079
  0
LINE
  8
0
 10
-6.885
 11
-6.667
 20
2.079
 21
0
  0
LINE
  8
0
 10
-6.667
 11
-6.885
 20
0
 21
-2.079
  0
LINE
  8
0
 10
-6.885
 11
-7.531
 20
-2.079
 21
-4.067
  0
LINE
  8
0
 10
-7.531
 11
-8.576
 20
-4.067
 21
-5.878
  0
LINE
  8
0
 10
-8.576
 11
-9.975
 20
-5.878
 21
-7.431
  0
LINE
  8
0
 10
-9.975
 11
-11.667
 20
-7.431
 21
-8.66
  0
LINE
  8
0
 10
-11.667
 11
-13.576
 20
-8.66
 21
-9.511
  0
LINE
  8
0
 10
-13.576
 11
-15.621
 20
-9.511
 21
-9.945
  0
LINE
  8
0
 10
-15.621
 11
-17.712
 20
-9.945
 21
-9.945
  0
LINE
  8
0
 10
-17.712
 11
-19.757
 20
-9.945
 21
-9.511
  0
LINE
  8
0
 10
-19.757
 11
-21.667
 20
-9.511
 21
-8.66
  0
LINE
  8
0
 10
-21.667
 11
-23.358
 20
-8.66
 21
-7.431
  0
LINE
  8
0
 10
-23.358
 11
-24.757
 20
-7.431
 21
-5.878
  0
LINE
  8
0
 10
-24.757
 11
-25.802
 20
-5.878
 21
-4.067
  0
LINE
  8
0
 10
-25.802
 11
-26.448
 20
-4.067
 21
-2.079
  0
LINE
  8
0
 10
-26.448
 11
-26.667
 20
-2.079
 21
0
  0
LINE
  8
0
 10
6.667
 11
6.885
 20
0
 21
2.079
  0
LINE
  8
0
 10
6.885
 11
7.531
 20
2.079
 21
4.067
  0
LINE
  8
0
 10
7.531
 11
8.576
 20
4.067
 21
5.878
  0
LINE
  8
0
 10
8.576
 11
9.975
 20
5.878
 21
7.431
  0
LINE
  8
0
 10
9.975
 11
11.667
 20
7.431
 21
8.66
  0
LINE
  8
0
 10
11.667
 11
13.576
 20
8.66
 21
9.511
  0
LINE
  8
0
 10
13.576
 11
15.621
 20
9.511
 21
9.945
  0
LINE
  8
0
 10
15.621
 11
17.712
 20
9.945
 21
9.945
  0
LINE
  8
0
 10
17.712
 11
19.757
 20
9.945
 21
9.511
  0
LINE
  8
0
 10
19.757
 11
21.667
 20
9.511
 21
8.66
  0
LINE
  8
0
 10
21.667
 11
23.358
 20
8.66
 21
7.431
  0
LINE
  8
0
 10
23.358
 11
24.757
 20
7.431
 21
5.878
  0
LINE
  8
0
 10
24.757
 11
25.802
 20
5.878
 21
4.067
  0
LINE
  8
0
 10
25.802
 11
26.448
 20
4.067
 21
2.079
  0
LINE
  8
0
 10
26.448
 11
26.667
 20
2.079
 21
0
  0
LINE
  8
0
 10
26.667
 11
26.448
 20
0
 21
-2.079
  0
LINE
  8
0
 10
26.448
 11
25.802
 20
-2.079
 21
-4.067
  0
LINE
  8
0
 10
25.802
 11
24.757
 20
-4.067
 21
-5.878
  0
LINE
  8
0
 10
24.757
 11
23.358
 20
-5.878
 21
-7.431
  0
LINE
  8
0
 10
23.358
 11
21.667
 20
-7.431
 21
-8.66
  0
LINE
  8
0
 10
21.667
 11
19.757
 20
-8.66
 21
-9.511
  0
LINE
  8
0
 10
19.757
 11
17.712
 20
-9.511
 21
-9.945
  0
LINE
  8
0
 10
17.712
 11
15.621
 20
-9.945
 21
-9.945
  0
LINE
  8
0
 10
15.621
 11
13.576
 20
-9.945
 21
-9.511
  0
LINE
  8
0
 10
13.576
 11
11.667
 20
-9.511
 21
-8.66
  0
LINE
  8
0
 10
11.667
 11
9.975
 20
-8.66
 21
-7.431
  0
LINE
  8
0
 10
9.975
 11
8.576
 20
-7.431
 21
-5.878
  0
LINE
  8
0
 10
8.576
 11
7.531
 20
-5.878
 21
-4.067
  0
LINE
  8
0
 10
7.531
 11
6.885
 20
-4.067
 21
-2.079
  0
LINE
  8
0
 10
6.885
 11
6.667
 20
-2.079
 21
0
  0
LINE
  8
0
 10
39.5
 11
39.566
 20
-32.5
 21
-31.876
  0
LINE
  8
0
 10
39.566
 11
39.759
 20
-31.876
 21
-31.28
  0
LINE
  8
0
 10
39.759
 11
40.073
 20
-31.28
 21
-30.737
  0
LINE
  8
0
 10
40.073
 11
40.493
 20
-30.737
 21
-30.271
  0
LINE
  8
0
 10
40.493
 11
41
 20
-30.271
 21
-29.902
  0
LINE
  8
0
 10
41
 11
41.573
 20
-29.902
 21
-29.647
  0
LINE
  8
0
 10
41.573
 11
42.186
 20
-29.647
 21
-29.516
  0
LINE
  8
0
 10
42.186
 11
42.814
 20
-29.516
 21
-29.516
  0
LINE
  8
0
 10
42.814
 11
43.427
 20
-29.516
 21
-29.647
  0
LINE
  8
0
 10
43.427
 11
44
 20
-29.647
 21
-29.902
  0
LINE
  8
0
 10
44
 11
44.507
 20
-29.902
 21
-30.271
  0
LINE
  8
0
 10
44.507
 11
44.927
 20
-30.271
 21
-30.737
  0
LINE
  8
0
 10
44.927
 11
45.241
 20
-30.737
 21
-31.28
  0
LINE
  8
0
 10
45.241
 11
45.434
 20
-31.28
 21
-31.876
  0
LINE
  8
0
 10
45.434
 11
45.5
 20
-31.876
 21
-32.5
  0
LINE
  8
0
 10
45.5
 11
45.434
 20
-32.5
 21
-33.124
  0
LINE
  8
0
 10
45.434
 11
45.241
 20
-33.124
 21
-33.72
  0
LINE
  8
0
 10
45.241
 11
44.927
 20
-33.72
 21
-34.263
  0
LINE
  8
0
 10
44.927
 11
44.507
 20
-34.263
 21
-34.729
  0
LINE
  8
0
 10
44.507
 11
44
 20
-34.729
 21
-35.098
  0
LINE
  8
0
 10
44
 11
43.427
 20
-35.098
 21
-35.353
  0
LINE
  8
0
 10
43.427
 11
42.814
 20
-35.353
 21
-35.484
  0
LINE
  8
0
 10
42.814
 11
42.186
 20
-35.484
 21
-35.484
  0
LINE
  8
0
 10
42.186
 11
41.573
 20
-35.484
 21
-35.353
  0
LINE
  8
0
 10
41.573
 11
41
 20
-35.353
 21
-35.098
  0
LINE
  8
0
 10
41
 11
40.493
 20
-35.098
 21
-34.729
  0
LINE
  8
0
 10
40.493
 11
40.073
 20
-34.729
 21
-34.263
  0
LINE
  8
0
 10
40.073
 11
39.759
 20
-34.263
 21
-33.72
  0
LINE
  8
0
 10
39.759
 11
39.566
 20
-33.72
 21
-33.124
  0
LINE
  8
0
 10
39.566
 11
39.5
 20
-33.124
 21
-32.5
  0
LINE
  8
0
 10
39.5
 11
39.566
 20
32.5
 21
33.124
  0
LINE
  8
0
 10
39.566
 11
39.759
 20
33.124
 21
33.72
  0
LINE
  8
0
 10
39.759
 11
40.073
 20
33.72
 21
34.263
  0
LINE
  8
0
 10
40.073
 11
40.493
 20
34.263
 21
34.729
  0
LINE
  8
0
 10
40.493
 11
41
 20
34.729
 21
35.098
  0
LINE
  8
0
 10
41
 11
41.573
 20
35.098
 21
35.353
  0
LINE
  8
0
 10
41.573
 11
42.186
 20
35.353
 21
35.484
  0
LINE
  8
0
 10
42.186
 11
42.814
 20
35.484
 21
35.484
  0
LINE
  8
0
 10
42.814
 11
43.427
 20
35.484
 21
35.353
  0
LINE
  8
0
 10
43.427
 11
44
 20
35.353
 21
35.098
  0
LINE
  8
0
 10
44
 11
44.507
 20
35.098
 21
34.729
  0
LINE
  8
0
 10
44.507
 11
44.927
 20
34.729
 21
34.263
  0
LINE
  8
0
 10
44.927
 11
45.241
 20
34.263
 21
33.72
  0
LINE
  8
0
 10
45.241
 11
45.434
 20
33.72
 21
33.124
  0
LINE
  8
0
 10
45.434
 11
45.5
 20
33.124
 21
32.5
  0
LINE
  8
0
 10
45.5
 11
45.434
 20
32.5
 21
31.876
  0
LINE
  8
0
 10
45.434
 11
45.241
 20
31.876
 21
31.28
  0
LINE
  8
0
 10
45.241
 11
44.927
 20
31.28
 21
30.737
  0
LINE
  8
0
 10
44.927
 11
44.507
 20
30.737
 21
30.271
  0
LINE
  8
0
 10
44.507
 11
44
 20
30.271
 21
29.902
  0
LINE
  8
0
 10
44
 11
43.427
 20
29.902
 21
29.647
  0
LINE
  8
0
 10
43.427
 11
42.814
 20
29.647
 21
29.516
  0
LINE
  8
0
 10
42.814
 11
42.186
 20
29.516
 21
29.516
  0
LINE
  8
0
 10
42.186
 11
41.573
 20
29.516
 21
29.647
  0
LINE
  8
0
 10
41.573
 11
41
 20
29.647
 21
29.902
  0
LINE
  8
0
 10
41
 11
40.493
 20
29.902
 21
30.271
  0
LINE
  8
0
 10
40.493
 11
40.073
 20
30.271
 21
30.737
  0
LINE
  8
0
 10
40.073
 11
39.759
 20
30.737
 21
31.28
  0
LINE
  8
0
 10
39.759
 11
39.566
 20
31.28
 21
31.876
  0
LINE
  8
0
 10
39.566
 11
39.5
 20
31.876
 21
32.5
  0
ENDSEC
  0
SECTION
  2
OBJECTS
  0
DICTIONARY
  0
ENDSEC
  0
EOF
