  0
SECTION
  2
BLOCKS
  0
ENDSEC
  0
SECTION
  2
ENTITIES
  0
LINE
  8
0
 10
-97.5
 11
-97.5
 20
-157.5
 21
157.5
  0
LINE
  8
0
 10
-97.5
 11
-97.281
 20
157.5
 21
159.579
  0
LINE
  8
0
 10
-97.281
 11
-96.635
 20
159.579
 21
161.567
  0
LINE
  8
0
 10
-96.635
 11
-95.59
 20
161.567
 21
163.378
  0
LINE
  8
0
 10
-95.59
 11
-94.191
 20
163.378
 21
164.931
  0
LINE
  8
0
 10
-94.191
 11
-92.5
 20
164.931
 21
166.16
  0
LINE
  8
0
 10
-92.5
 11
-90.59
 20
166.16
 21
167.011
  0
LINE
  8
0
 10
-90.59
 11
-88.545
 20
167.011
 21
167.445
  0
LINE
  8
0
 10
-88.545
 11
88.545
 20
167.445
 21
167.445
  0
LINE
  8
0
 10
88.545
 11
90.59
 20
167.445
 21
167.011
  0
LINE
  8
0
 10
90.59
 11
92.5
 20
167.011
 21
166.16
  0
LINE
  8
0
 10
92.5
 11
94.191
 20
166.16
 21
164.931
  0
LINE
  8
0
 10
94.191
 11
95.59
 20
164.931
 21
163.378
  0
LINE
  8
0
 10
95.59
 11
96.635
 20
163.378
 21
161.567
  0
LINE
  8
0
 10
96.635
 11
97.281
 20
161.567
 21
159.579
  0
LINE
  8
0
 10
97.281
 11
97.5
 20
159.579
 21
157.5
  0
LINE
  8
0
 10
97.5
 11
97.5
 20
157.5
 21
-157.5
  0
LINE
  8
0
 10
97.5
 11
97.281
 20
-157.5
 21
-159.579
  0
LINE
  8
0
 10
97.281
 11
96.635
 20
-159.579
 21
-161.567
  0
LINE
  8
0
 10
96.635
 11
95.59
 20
-161.567
 21
-163.378
  0
LINE
  8
0
 10
95.59
 11
94.191
 20
-163.378
 21
-164.931
  0
LINE
  8
0
 10
94.191
 11
92.5
 20
-164.931
 21
-166.16
  0
LINE
  8
0
 10
92.5
 11
90.59
 20
-166.16
 21
-167.011
  0
LINE
  8
0
 10
90.59
 11
88.545
 20
-167.011
 21
-167.445
  0
LINE
  8
0
 10
88.545
 11
-88.545
 20
-167.445
 21
-167.445
  0
LINE
  8
0
 10
-88.545
 11
-90.59
 20
-167.445
 21
-167.011
  0
LINE
  8
0
 10
-90.59
 11
-92.5
 20
-167.011
 21
-166.16
  0
LINE
  8
0
 10
-92.5
 11
-94.191
 20
-166.16
 21
-164.931
  0
LINE
  8
0
 10
-94.191
 11
-95.59
 20
-164.931
 21
-163.378
  0
LINE
  8
0
 10
-95.59
 11
-96.635
 20
-163.378
 21
-161.567
  0
LINE
  8
0
 10
-96.635
 11
-97.281
 20
-161.567
 21
-159.579
  0
LINE
  8
0
 10
-97.281
 11
-97.5
 20
-159.579
 21
-157.5
  0
LINE
  8
0
 10
-86
 11
-85.869
 20
0
 21
1.247
  0
LINE
  8
0
 10
-85.869
 11
-85.481
 20
1.247
 21
2.44
  0
LINE
  8
0
 10
-85.481
 11
-84.854
 20
2.44
 21
3.527
  0
LINE
  8
0
 10
-84.854
 11
-84.015
 20
3.527
 21
4.459
  0
LINE
  8
0
 10
-84.015
 11
-83
 20
4.459
 21
5.196
  0
LINE
  8
0
 10
-83
 11
-81.854
 20
5.196
 21
5.706
  0
LINE
  8
0
 10
-81.854
 11
-80.627
 20
5.706
 21
5.967
  0
LINE
  8
0
 10
-80.627
 11
-79.373
 20
5.967
 21
5.967
  0
LINE
  8
0
 10
-79.373
 11
-78.146
 20
5.967
 21
5.706
  0
LINE
  8
0
 10
-78.146
 11
-77
 20
5.706
 21
5.196
  0
LINE
  8
0
 10
-77
 11
-75.985
 20
5.196
 21
4.459
  0
LINE
  8
0
 10
-75.985
 11
-75.146
 20
4.459
 21
3.527
  0
LINE
  8
0
 10
-75.146
 11
-74.519
 20
3.527
 21
2.44
  0
LINE
  8
0
 10
-74.519
 11
-74.131
 20
2.44
 21
1.247
  0
LINE
  8
0
 10
-74.131
 11
-74
 20
1.247
 21
0
  0
LINE
  8
0
 10
-74
 11
-74.131
 20
0
 21
-1.247
  0
LINE
  8
0
 10
-74.131
 11
-74.519
 20
-1.247
 21
-2.44
  0
LINE
  8
0
 10
-74.519
 11
-75.146
 20
-2.44
 21
-3.527
  0
LINE
  8
0
 10
-75.146
 11
-75.985
 20
-3.527
 21
-4.459
  0
LINE
  8
0
 10
-75.985
 11
-77
 20
-4.459
 21
-5.196
  0
LINE
  8
0
 10
-77
 11
-78.146
 20
-5.196
 21
-5.706
  0
LINE
  8
0
 10
-78.146
 11
-79.373
 20
-5.706
 21
-5.967
  0
LINE
  8
0
 10
-79.373
 11
-80.627
 20
-5.967
 21
-5.967
  0
LINE
  8
0
 10
-80.627
 11
-81.854
 20
-5.967
 21
-5.706
  0
LINE
  8
0
 10
-81.854
 11
-83
 20
-5.706
 21
-5.196
  0
LINE
  8
0
 10
-83
 11
-84.015
 20
-5.196
 21
-4.459
  0
LINE
  8
0
 10
-84.015
 11
-84.854
 20
-4.459
 21
-3.527
  0
LINE
  8
0
 10
-84.854
 11
-85.481
 20
-3.527
 21
-2.44
  0
LINE
  8
0
 10
-85.481
 11
-85.869
 20
-2.44
 21
-1.247
  0
LINE
  8
0
 10
-85.869
 11
-86
 20
-1.247
 21
0
  0
LINE
  8
0
 10
-72.5
 11
-72.5
 20
-102.5
 21
102.5
  0
LINE
  8
0
 10
-72.5
 11
-72.281
 20
102.5
 21
104.579
  0
LINE
  8
0
 10
-72.281
 11
-71.635
 20
104.579
 21
106.567
  0
LINE
  8
0
 10
-71.635
 11
-70.59
 20
106.567
 21
108.378
  0
LINE
  8
0
 10
-70.59
 11
-69.191
 20
108.378
 21
109.931
  0
LINE
  8
0
 10
-69.191
 11
-67.5
 20
109.931
 21
111.16
  0
LINE
  8
0
 10
-67.5
 11
-65.59
 20
111.16
 21
112.011
  0
LINE
  8
0
 10
-65.59
 11
-63.545
 20
112.011
 21
112.445
  0
LINE
  8
0
 10
-63.545
 11
63.545
 20
112.445
 21
112.445
  0
LINE
  8
0
 10
63.545
 11
65.59
 20
112.445
 21
112.011
  0
LINE
  8
0
 10
65.59
 11
67.5
 20
112.011
 21
111.16
  0
LINE
  8
0
 10
67.5
 11
69.191
 20
111.16
 21
109.931
  0
LINE
  8
0
 10
69.191
 11
70.59
 20
109.931
 21
108.378
  0
LINE
  8
0
 10
70.59
 11
71.635
 20
108.378
 21
106.567
  0
LINE
  8
0
 10
71.635
 11
72.281
 20
106.567
 21
104.579
  0
LINE
  8
0
 10
72.281
 11
72.5
 20
104.579
 21
102.5
  0
LINE
  8
0
 10
72.5
 11
72.5
 20
102.5
 21
-102.5
  0
LINE
  8
0
 10
72.5
 11
72.281
 20
-102.5
 21
-104.579
  0
LINE
  8
0
 10
72.281
 11
71.635
 20
-104.579
 21
-106.567
  0
LINE
  8
0
 10
71.635
 11
70.59
 20
-106.567
 21
-108.378
  0
LINE
  8
0
 10
70.59
 11
69.191
 20
-108.378
 21
-109.931
  0
LINE
  8
0
 10
69.191
 11
67.5
 20
-109.931
 21
-111.16
  0
LINE
  8
0
 10
67.5
 11
65.59
 20
-111.16
 21
-112.011
  0
LINE
  8
0
 10
65.59
 11
63.545
 20
-112.011
 21
-112.445
  0
LINE
  8
0
 10
63.545
 11
-63.545
 20
-112.445
 21
-112.445
  0
LINE
  8
0
 10
-63.545
 11
-65.59
 20
-112.445
 21
-112.011
  0
LINE
  8
0
 10
-65.59
 11
-67.5
 20
-112.011
 21
-111.16
  0
LINE
  8
0
 10
-67.5
 11
-69.191
 20
-111.16
 21
-109.931
  0
LINE
  8
0
 10
-69.191
 11
-70.59
 20
-109.931
 21
-108.378
  0
LINE
  8
0
 10
-70.59
 11
-71.635
 20
-108.378
 21
-106.567
  0
LINE
  8
0
 10
-71.635
 11
-72.281
 20
-106.567
 21
-104.579
  0
LINE
  8
0
 10
-72.281
 11
-72.5
 20
-104.579
 21
-102.5
  0
LINE
  8
0
 10
107.5
 11
107.5
 20
-157.5
 21
157.5
  0
LINE
  8
0
 10
107.5
 11
107.719
 20
157.5
 21
159.579
  0
LINE
  8
0
 10
107.719
 11
108.365
 20
159.579
 21
161.567
  0
LINE
  8
0
 10
108.365
 11
109.41
 20
161.567
 21
163.378
  0
LINE
  8
0
 10
109.41
 11
110.809
 20
163.378
 21
164.931
  0
LINE
  8
0
 10
110.809
 11
112.5
 20
164.931
 21
166.16
  0
LINE
  8
0
 10
112.5
 11
114.41
 20
166.16
 21
167.011
  0
LINE
  8
0
 10
114.41
 11
116.455
 20
167.011
 21
167.445
  0
LINE
  8
0
 10
116.455
 11
293.545
 20
167.445
 21
167.445
  0
LINE
  8
0
 10
293.545
 11
295.59
 20
167.445
 21
167.011
  0
LINE
  8
0
 10
295.59
 11
297.5
 20
167.011
 21
166.16
  0
LINE
  8
0
 10
297.5
 11
299.191
 20
166.16
 21
164.931
  0
LINE
  8
0
 10
299.191
 11
300.59
 20
164.931
 21
163.378
  0
LINE
  8
0
 10
300.59
 11
301.635
 20
163.378
 21
161.567
  0
LINE
  8
0
 10
301.635
 11
302.281
 20
161.567
 21
159.579
  0
LINE
  8
0
 10
302.281
 11
302.5
 20
159.579
 21
157.5
  0
LINE
  8
0
 10
302.5
 11
302.5
 20
157.5
 21
-157.5
  0
LINE
  8
0
 10
302.5
 11
302.281
 20
-157.5
 21
-159.579
  0
LINE
  8
0
 10
302.281
 11
301.635
 20
-159.579
 21
-161.567
  0
LINE
  8
0
 10
301.635
 11
300.59
 20
-161.567
 21
-163.378
  0
LINE
  8
0
 10
300.59
 11
299.191
 20
-163.378
 21
-164.931
  0
LINE
  8
0
 10
299.191
 11
297.5
 20
-164.931
 21
-166.16
  0
LINE
  8
0
 10
297.5
 11
295.59
 20
-166.16
 21
-167.011
  0
LINE
  8
0
 10
295.59
 11
293.545
 20
-167.011
 21
-167.445
  0
LINE
  8
0
 10
293.545
 11
116.455
 20
-167.445
 21
-167.445
  0
LINE
  8
0
 10
116.455
 11
114.41
 20
-167.445
 21
-167.011
  0
LINE
  8
0
 10
114.41
 11
112.5
 20
-167.011
 21
-166.16
  0
LINE
  8
0
 10
112.5
 11
110.809
 20
-166.16
 21
-164.931
  0
LINE
  8
0
 10
110.809
 11
109.41
 20
-164.931
 21
-163.378
  0
LINE
  8
0
 10
109.41
 11
108.365
 20
-163.378
 21
-161.567
  0
LINE
  8
0
 10
108.365
 11
107.719
 20
-161.567
 21
-159.579
  0
LINE
  8
0
 10
107.719
 11
107.5
 20
-159.579
 21
-157.5
  0
LINE
  8
0
 10
113.52
 11
113.52
 20
-160.247
 21
-159.753
  0
LINE
  8
0
 10
113.52
 11
113.681
 20
-159.753
 21
-159.286
  0
LINE
  8
0
 10
113.681
 11
113.984
 20
-159.286
 21
-158.896
  0
LINE
  8
0
 10
113.984
 11
114.397
 20
-158.896
 21
-158.626
  0
LINE
  8
0
 10
114.397
 11
114.876
 20
-158.626
 21
-158.505
  0
LINE
  8
0
 10
114.876
 11
115.368
 20
-158.505
 21
-158.546
  0
LINE
  8
0
 10
115.368
 11
115.82
 20
-158.546
 21
-158.744
  0
LINE
  8
0
 10
115.82
 11
116.184
 20
-158.744
 21
-159.079
  0
LINE
  8
0
 10
116.184
 11
116.419
 20
-159.079
 21
-159.513
  0
LINE
  8
0
 10
116.419
 11
116.5
 20
-159.513
 21
-160
  0
LINE
  8
0
 10
116.5
 11
116.419
 20
-160
 21
-160.487
  0
LINE
  8
0
 10
116.419
 11
116.184
 20
-160.487
 21
-160.921
  0
LINE
  8
0
 10
116.184
 11
115.82
 20
-160.921
 21
-161.256
  0
LINE
  8
0
 10
115.82
 11
115.368
 20
-161.256
 21
-161.454
  0
LINE
  8
0
 10
115.368
 11
114.876
 20
-161.454
 21
-161.495
  0
LINE
  8
0
 10
114.876
 11
114.397
 20
-161.495
 21
-161.374
  0
LINE
  8
0
 10
114.397
 11
113.984
 20
-161.374
 21
-161.104
  0
LINE
  8
0
 10
113.984
 11
113.681
 20
-161.104
 21
-160.714
  0
LINE
  8
0
 10
113.681
 11
113.52
 20
-160.714
 21
-160.247
  0
LINE
  8
0
 10
113.52
 11
113.52
 20
159.753
 21
160.247
  0
LINE
  8
0
 10
113.52
 11
113.681
 20
160.247
 21
160.714
  0
LINE
  8
0
 10
113.681
 11
113.984
 20
160.714
 21
161.104
  0
LINE
  8
0
 10
113.984
 11
114.397
 20
161.104
 21
161.374
  0
LINE
  8
0
 10
114.397
 11
114.876
 20
161.374
 21
161.495
  0
LINE
  8
0
 10
114.876
 11
115.368
 20
161.495
 21
161.454
  0
LINE
  8
0
 10
115.368
 11
115.82
 20
161.454
 21
161.256
  0
LINE
  8
0
 10
115.82
 11
116.184
 20
161.256
 21
160.921
  0
LINE
  8
0
 10
116.184
 11
116.419
 20
160.921
 21
160.487
  0
LINE
  8
0
 10
116.419
 11
116.5
 20
160.487
 21
160
  0
LINE
  8
0
 10
116.5
 11
116.419
 20
160
 21
159.513
  0
LINE
  8
0
 10
116.419
 11
116.184
 20
159.513
 21
159.079
  0
LINE
  8
0
 10
116.184
 11
115.82
 20
159.079
 21
158.744
  0
LINE
  8
0
 10
115.82
 11
115.368
 20
158.744
 21
158.546
  0
LINE
  8
0
 10
115.368
 11
114.876
 20
158.546
 21
158.505
  0
LINE
  8
0
 10
114.876
 11
114.397
 20
158.505
 21
158.626
  0
LINE
  8
0
 10
114.397
 11
113.984
 20
158.626
 21
158.896
  0
LINE
  8
0
 10
113.984
 11
113.681
 20
158.896
 21
159.286
  0
LINE
  8
0
 10
113.681
 11
113.52
 20
159.286
 21
159.753
  0
LINE
  8
0
 10
117.5
 11
117.5
 20
-122.5
 21
122.5
  0
LINE
  8
0
 10
117.5
 11
117.719
 20
122.5
 21
124.579
  0
LINE
  8
0
 10
117.719
 11
118.365
 20
124.579
 21
126.567
  0
LINE
  8
0
 10
118.365
 11
119.41
 20
126.567
 21
128.378
  0
LINE
  8
0
 10
119.41
 11
120.809
 20
128.378
 21
129.931
  0
LINE
  8
0
 10
120.809
 11
122.5
 20
129.931
 21
131.16
  0
LINE
  8
0
 10
122.5
 11
124.41
 20
131.16
 21
132.011
  0
LINE
  8
0
 10
124.41
 11
126.455
 20
132.011
 21
132.445
  0
LINE
  8
0
 10
126.455
 11
283.545
 20
132.445
 21
132.445
  0
LINE
  8
0
 10
283.545
 11
285.59
 20
132.445
 21
132.011
  0
LINE
  8
0
 10
285.59
 11
287.5
 20
132.011
 21
131.16
  0
LINE
  8
0
 10
287.5
 11
289.191
 20
131.16
 21
129.931
  0
LINE
  8
0
 10
289.191
 11
290.59
 20
129.931
 21
128.378
  0
LINE
  8
0
 10
290.59
 11
291.635
 20
128.378
 21
126.567
  0
LINE
  8
0
 10
291.635
 11
292.281
 20
126.567
 21
124.579
  0
LINE
  8
0
 10
292.281
 11
292.5
 20
124.579
 21
122.5
  0
LINE
  8
0
 10
292.5
 11
292.5
 20
122.5
 21
-122.5
  0
LINE
  8
0
 10
292.5
 11
292.281
 20
-122.5
 21
-124.579
  0
LINE
  8
0
 10
292.281
 11
291.635
 20
-124.579
 21
-126.567
  0
LINE
  8
0
 10
291.635
 11
290.59
 20
-126.567
 21
-128.378
  0
LINE
  8
0
 10
290.59
 11
289.191
 20
-128.378
 21
-129.931
  0
LINE
  8
0
 10
289.191
 11
287.5
 20
-129.931
 21
-131.16
  0
LINE
  8
0
 10
287.5
 11
285.59
 20
-131.16
 21
-132.011
  0
LINE
  8
0
 10
285.59
 11
283.545
 20
-132.011
 21
-132.445
  0
LINE
  8
0
 10
283.545
 11
255
 20
-132.445
 21
-132.445
  0
LINE
  8
0
 10
255
 11
255
 20
-132.445
 21
-162
  0
LINE
  8
0
 10
255
 11
240
 20
-162
 21
-162
  0
LINE
  8
0
 10
240
 11
240
 20
-162
 21
-132.445
  0
LINE
  8
0
 10
240
 11
126.455
 20
-132.445
 21
-132.445
  0
LINE
  8
0
 10
126.455
 11
124.41
 20
-132.445
 21
-132.011
  0
LINE
  8
0
 10
124.41
 11
122.5
 20
-132.011
 21
-131.16
  0
LINE
  8
0
 10
122.5
 11
120.809
 20
-131.16
 21
-129.931
  0
LINE
  8
0
 10
120.809
 11
119.41
 20
-129.931
 21
-128.378
  0
LINE
  8
0
 10
119.41
 11
118.365
 20
-128.378
 21
-126.567
  0
LINE
  8
0
 10
118.365
 11
117.719
 20
-126.567
 21
-124.579
  0
LINE
  8
0
 10
117.719
 11
117.5
 20
-124.579
 21
-122.5
  0
LINE
  8
0
 10
293.52
 11
293.52
 20
-160.247
 21
-159.753
  0
LINE
  8
0
 10
293.52
 11
293.681
 20
-159.753
 21
-159.286
  0
LINE
  8
0
 10
293.681
 11
293.984
 20
-159.286
 21
-158.896
  0
LINE
  8
0
 10
293.984
 11
294.397
 20
-158.896
 21
-158.626
  0
LINE
  8
0
 10
294.397
 11
294.876
 20
-158.626
 21
-158.505
  0
LINE
  8
0
 10
294.876
 11
295.368
 20
-158.505
 21
-158.546
  0
LINE
  8
0
 10
295.368
 11
295.82
 20
-158.546
 21
-158.744
  0
LINE
  8
0
 10
295.82
 11
296.184
 20
-158.744
 21
-159.079
  0
LINE
  8
0
 10
296.184
 11
296.419
 20
-159.079
 21
-159.513
  0
LINE
  8
0
 10
296.419
 11
296.5
 20
-159.513
 21
-160
  0
LINE
  8
0
 10
296.5
 11
296.419
 20
-160
 21
-160.487
  0
LINE
  8
0
 10
296.419
 11
296.184
 20
-160.487
 21
-160.921
  0
LINE
  8
0
 10
296.184
 11
295.82
 20
-160.921
 21
-161.256
  0
LINE
  8
0
 10
295.82
 11
295.368
 20
-161.256
 21
-161.454
  0
LINE
  8
0
 10
295.368
 11
294.876
 20
-161.454
 21
-161.495
  0
LINE
  8
0
 10
294.876
 11
294.397
 20
-161.495
 21
-161.374
  0
LINE
  8
0
 10
294.397
 11
293.984
 20
-161.374
 21
-161.104
  0
LINE
  8
0
 10
293.984
 11
293.681
 20
-161.104
 21
-160.714
  0
LINE
  8
0
 10
293.681
 11
293.52
 20
-160.714
 21
-160.247
  0
LINE
  8
0
 10
293.52
 11
293.52
 20
159.753
 21
160.247
  0
LINE
  8
0
 10
293.52
 11
293.681
 20
160.247
 21
160.714
  0
LINE
  8
0
 10
293.681
 11
293.984
 20
160.714
 21
161.104
  0
LINE
  8
0
 10
293.984
 11
294.397
 20
161.104
 21
161.374
  0
LINE
  8
0
 10
294.397
 11
294.876
 20
161.374
 21
161.495
  0
LINE
  8
0
 10
294.876
 11
295.368
 20
161.495
 21
161.454
  0
LINE
  8
0
 10
295.368
 11
295.82
 20
161.454
 21
161.256
  0
LINE
  8
0
 10
295.82
 11
296.184
 20
161.256
 21
160.921
  0
LINE
  8
0
 10
296.184
 11
296.419
 20
160.921
 21
160.487
  0
LINE
  8
0
 10
296.419
 11
296.5
 20
160.487
 21
160
  0
LINE
  8
0
 10
296.5
 11
296.419
 20
160
 21
159.513
  0
LINE
  8
0
 10
296.419
 11
296.184
 20
159.513
 21
159.079
  0
LINE
  8
0
 10
296.184
 11
295.82
 20
159.079
 21
158.744
  0
LINE
  8
0
 10
295.82
 11
295.368
 20
158.744
 21
158.546
  0
LINE
  8
0
 10
295.368
 11
294.876
 20
158.546
 21
158.505
  0
LINE
  8
0
 10
294.876
 11
294.397
 20
158.505
 21
158.626
  0
LINE
  8
0
 10
294.397
 11
293.984
 20
158.626
 21
158.896
  0
LINE
  8
0
 10
293.984
 11
293.681
 20
158.896
 21
159.286
  0
LINE
  8
0
 10
293.681
 11
293.52
 20
159.286
 21
159.753
  0
LINE
  8
0
 10
312.5
 11
312.5
 20
-157.5
 21
157.5
  0
LINE
  8
0
 10
312.5
 11
312.719
 20
157.5
 21
159.579
  0
LINE
  8
0
 10
312.719
 11
313.365
 20
159.579
 21
161.567
  0
LINE
  8
0
 10
313.365
 11
314.41
 20
161.567
 21
163.378
  0
LINE
  8
0
 10
314.41
 11
315.809
 20
163.378
 21
164.931
  0
LINE
  8
0
 10
315.809
 11
317.5
 20
164.931
 21
166.16
  0
LINE
  8
0
 10
317.5
 11
319.41
 20
166.16
 21
167.011
  0
LINE
  8
0
 10
319.41
 11
321.455
 20
167.011
 21
167.445
  0
LINE
  8
0
 10
321.455
 11
498.545
 20
167.445
 21
167.445
  0
LINE
  8
0
 10
498.545
 11
500.59
 20
167.445
 21
167.011
  0
LINE
  8
0
 10
500.59
 11
502.5
 20
167.011
 21
166.16
  0
LINE
  8
0
 10
502.5
 11
504.191
 20
166.16
 21
164.931
  0
LINE
  8
0
 10
504.191
 11
505.59
 20
164.931
 21
163.378
  0
LINE
  8
0
 10
505.59
 11
506.635
 20
163.378
 21
161.567
  0
LINE
  8
0
 10
506.635
 11
507.281
 20
161.567
 21
159.579
  0
LINE
  8
0
 10
507.281
 11
507.5
 20
159.579
 21
157.5
  0
LINE
  8
0
 10
507.5
 11
507.5
 20
157.5
 21
-157.5
  0
LINE
  8
0
 10
507.5
 11
507.281
 20
-157.5
 21
-159.579
  0
LINE
  8
0
 10
507.281
 11
506.635
 20
-159.579
 21
-161.567
  0
LINE
  8
0
 10
506.635
 11
505.59
 20
-161.567
 21
-163.378
  0
LINE
  8
0
 10
505.59
 11
504.191
 20
-163.378
 21
-164.931
  0
LINE
  8
0
 10
504.191
 11
502.5
 20
-164.931
 21
-166.16
  0
LINE
  8
0
 10
502.5
 11
500.59
 20
-166.16
 21
-167.011
  0
LINE
  8
0
 10
500.59
 11
498.545
 20
-167.011
 21
-167.445
  0
LINE
  8
0
 10
498.545
 11
321.455
 20
-167.445
 21
-167.445
  0
LINE
  8
0
 10
321.455
 11
319.41
 20
-167.445
 21
-167.011
  0
LINE
  8
0
 10
319.41
 11
317.5
 20
-167.011
 21
-166.16
  0
LINE
  8
0
 10
317.5
 11
315.809
 20
-166.16
 21
-164.931
  0
LINE
  8
0
 10
315.809
 11
314.41
 20
-164.931
 21
-163.378
  0
LINE
  8
0
 10
314.41
 11
313.365
 20
-163.378
 21
-161.567
  0
LINE
  8
0
 10
313.365
 11
312.719
 20
-161.567
 21
-159.579
  0
LINE
  8
0
 10
312.719
 11
312.5
 20
-159.579
 21
-157.5
  0
LINE
  8
0
 10
318.52
 11
318.52
 20
-160.247
 21
-159.753
  0
LINE
  8
0
 10
318.52
 11
318.681
 20
-159.753
 21
-159.286
  0
LINE
  8
0
 10
318.681
 11
318.984
 20
-159.286
 21
-158.896
  0
LINE
  8
0
 10
318.984
 11
319.397
 20
-158.896
 21
-158.626
  0
LINE
  8
0
 10
319.397
 11
319.876
 20
-158.626
 21
-158.505
  0
LINE
  8
0
 10
319.876
 11
320.368
 20
-158.505
 21
-158.546
  0
LINE
  8
0
 10
320.368
 11
320.82
 20
-158.546
 21
-158.744
  0
LINE
  8
0
 10
320.82
 11
321.184
 20
-158.744
 21
-159.079
  0
LINE
  8
0
 10
321.184
 11
321.419
 20
-159.079
 21
-159.513
  0
LINE
  8
0
 10
321.419
 11
321.5
 20
-159.513
 21
-160
  0
LINE
  8
0
 10
321.5
 11
321.419
 20
-160
 21
-160.487
  0
LINE
  8
0
 10
321.419
 11
321.184
 20
-160.487
 21
-160.921
  0
LINE
  8
0
 10
321.184
 11
320.82
 20
-160.921
 21
-161.256
  0
LINE
  8
0
 10
320.82
 11
320.368
 20
-161.256
 21
-161.454
  0
LINE
  8
0
 10
320.368
 11
319.876
 20
-161.454
 21
-161.495
  0
LINE
  8
0
 10
319.876
 11
319.397
 20
-161.495
 21
-161.374
  0
LINE
  8
0
 10
319.397
 11
318.984
 20
-161.374
 21
-161.104
  0
LINE
  8
0
 10
318.984
 11
318.681
 20
-161.104
 21
-160.714
  0
LINE
  8
0
 10
318.681
 11
318.52
 20
-160.714
 21
-160.247
  0
LINE
  8
0
 10
318.52
 11
318.52
 20
159.753
 21
160.247
  0
LINE
  8
0
 10
318.52
 11
318.681
 20
160.247
 21
160.714
  0
LINE
  8
0
 10
318.681
 11
318.984
 20
160.714
 21
161.104
  0
LINE
  8
0
 10
318.984
 11
319.397
 20
161.104
 21
161.374
  0
LINE
  8
0
 10
319.397
 11
319.876
 20
161.374
 21
161.495
  0
LINE
  8
0
 10
319.876
 11
320.368
 20
161.495
 21
161.454
  0
LINE
  8
0
 10
320.368
 11
320.82
 20
161.454
 21
161.256
  0
LINE
  8
0
 10
320.82
 11
321.184
 20
161.256
 21
160.921
  0
LINE
  8
0
 10
321.184
 11
321.419
 20
160.921
 21
160.487
  0
LINE
  8
0
 10
321.419
 11
321.5
 20
160.487
 21
160
  0
LINE
  8
0
 10
321.5
 11
321.419
 20
160
 21
159.513
  0
LINE
  8
0
 10
321.419
 11
321.184
 20
159.513
 21
159.079
  0
LINE
  8
0
 10
321.184
 11
320.82
 20
159.079
 21
158.744
  0
LINE
  8
0
 10
320.82
 11
320.368
 20
158.744
 21
158.546
  0
LINE
  8
0
 10
320.368
 11
319.876
 20
158.546
 21
158.505
  0
LINE
  8
0
 10
319.876
 11
319.397
 20
158.505
 21
158.626
  0
LINE
  8
0
 10
319.397
 11
318.984
 20
158.626
 21
158.896
  0
LINE
  8
0
 10
318.984
 11
318.681
 20
158.896
 21
159.286
  0
LINE
  8
0
 10
318.681
 11
318.52
 20
159.286
 21
159.753
  0
LINE
  8
0
 10
322.5
 11
322.5
 20
-122.5
 21
122.5
  0
LINE
  8
0
 10
322.5
 11
322.719
 20
122.5
 21
124.579
  0
LINE
  8
0
 10
322.719
 11
323.365
 20
124.579
 21
126.567
  0
LINE
  8
0
 10
323.365
 11
324.41
 20
126.567
 21
128.378
  0
LINE
  8
0
 10
324.41
 11
325.809
 20
128.378
 21
129.931
  0
LINE
  8
0
 10
325.809
 11
327.5
 20
129.931
 21
131.16
  0
LINE
  8
0
 10
327.5
 11
329.41
 20
131.16
 21
132.011
  0
LINE
  8
0
 10
329.41
 11
331.455
 20
132.011
 21
132.445
  0
LINE
  8
0
 10
331.455
 11
488.545
 20
132.445
 21
132.445
  0
LINE
  8
0
 10
488.545
 11
490.59
 20
132.445
 21
132.011
  0
LINE
  8
0
 10
490.59
 11
492.5
 20
132.011
 21
131.16
  0
LINE
  8
0
 10
492.5
 11
494.191
 20
131.16
 21
129.931
  0
LINE
  8
0
 10
494.191
 11
495.59
 20
129.931
 21
128.378
  0
LINE
  8
0
 10
495.59
 11
496.635
 20
128.378
 21
126.567
  0
LINE
  8
0
 10
496.635
 11
497.281
 20
126.567
 21
124.579
  0
LINE
  8
0
 10
497.281
 11
497.5
 20
124.579
 21
122.5
  0
LINE
  8
0
 10
497.5
 11
497.5
 20
122.5
 21
-122.5
  0
LINE
  8
0
 10
497.5
 11
497.281
 20
-122.5
 21
-124.579
  0
LINE
  8
0
 10
497.281
 11
496.635
 20
-124.579
 21
-126.567
  0
LINE
  8
0
 10
496.635
 11
495.59
 20
-126.567
 21
-128.378
  0
LINE
  8
0
 10
495.59
 11
494.191
 20
-128.378
 21
-129.931
  0
LINE
  8
0
 10
494.191
 11
492.5
 20
-129.931
 21
-131.16
  0
LINE
  8
0
 10
492.5
 11
490.59
 20
-131.16
 21
-132.011
  0
LINE
  8
0
 10
490.59
 11
488.545
 20
-132.011
 21
-132.445
  0
LINE
  8
0
 10
488.545
 11
460
 20
-132.445
 21
-132.445
  0
LINE
  8
0
 10
460
 11
460
 20
-132.445
 21
-162
  0
LINE
  8
0
 10
460
 11
445
 20
-162
 21
-162
  0
LINE
  8
0
 10
445
 11
445
 20
-162
 21
-132.445
  0
LINE
  8
0
 10
445
 11
331.455
 20
-132.445
 21
-132.445
  0
LINE
  8
0
 10
331.455
 11
329.41
 20
-132.445
 21
-132.011
  0
LINE
  8
0
 10
329.41
 11
327.5
 20
-132.011
 21
-131.16
  0
LINE
  8
0
 10
327.5
 11
325.809
 20
-131.16
 21
-129.931
  0
LINE
  8
0
 10
325.809
 11
324.41
 20
-129.931
 21
-128.378
  0
LINE
  8
0
 10
324.41
 11
323.365
 20
-128.378
 21
-126.567
  0
LINE
  8
0
 10
323.365
 11
322.719
 20
-126.567
 21
-124.579
  0
LINE
  8
0
 10
322.719
 11
322.5
 20
-124.579
 21
-122.5
  0
LINE
  8
0
 10
498.52
 11
498.52
 20
-160.247
 21
-159.753
  0
LINE
  8
0
 10
498.52
 11
498.681
 20
-159.753
 21
-159.286
  0
LINE
  8
0
 10
498.681
 11
498.984
 20
-159.286
 21
-158.896
  0
LINE
  8
0
 10
498.984
 11
499.397
 20
-158.896
 21
-158.626
  0
LINE
  8
0
 10
499.397
 11
499.876
 20
-158.626
 21
-158.505
  0
LINE
  8
0
 10
499.876
 11
500.368
 20
-158.505
 21
-158.546
  0
LINE
  8
0
 10
500.368
 11
500.82
 20
-158.546
 21
-158.744
  0
LINE
  8
0
 10
500.82
 11
501.184
 20
-158.744
 21
-159.079
  0
LINE
  8
0
 10
501.184
 11
501.419
 20
-159.079
 21
-159.513
  0
LINE
  8
0
 10
501.419
 11
501.5
 20
-159.513
 21
-160
  0
LINE
  8
0
 10
501.5
 11
501.419
 20
-160
 21
-160.487
  0
LINE
  8
0
 10
501.419
 11
501.184
 20
-160.487
 21
-160.921
  0
LINE
  8
0
 10
501.184
 11
500.82
 20
-160.921
 21
-161.256
  0
LINE
  8
0
 10
500.82
 11
500.368
 20
-161.256
 21
-161.454
  0
LINE
  8
0
 10
500.368
 11
499.876
 20
-161.454
 21
-161.495
  0
LINE
  8
0
 10
499.876
 11
499.397
 20
-161.495
 21
-161.374
  0
LINE
  8
0
 10
499.397
 11
498.984
 20
-161.374
 21
-161.104
  0
LINE
  8
0
 10
498.984
 11
498.681
 20
-161.104
 21
-160.714
  0
LINE
  8
0
 10
498.681
 11
498.52
 20
-160.714
 21
-160.247
  0
LINE
  8
0
 10
498.52
 11
498.52
 20
159.753
 21
160.247
  0
LINE
  8
0
 10
498.52
 11
498.681
 20
160.247
 21
160.714
  0
LINE
  8
0
 10
498.681
 11
498.984
 20
160.714
 21
161.104
  0
LINE
  8
0
 10
498.984
 11
499.397
 20
161.104
 21
161.374
  0
LINE
  8
0
 10
499.397
 11
499.876
 20
161.374
 21
161.495
  0
LINE
  8
0
 10
499.876
 11
500.368
 20
161.495
 21
161.454
  0
LINE
  8
0
 10
500.368
 11
500.82
 20
161.454
 21
161.256
  0
LINE
  8
0
 10
500.82
 11
501.184
 20
161.256
 21
160.921
  0
LINE
  8
0
 10
501.184
 11
501.419
 20
160.921
 21
160.487
  0
LINE
  8
0
 10
501.419
 11
501.5
 20
160.487
 21
160
  0
LINE
  8
0
 10
501.5
 11
501.419
 20
160
 21
159.513
  0
LINE
  8
0
 10
501.419
 11
501.184
 20
159.513
 21
159.079
  0
LINE
  8
0
 10
501.184
 11
500.82
 20
159.079
 21
158.744
  0
LINE
  8
0
 10
500.82
 11
500.368
 20
158.744
 21
158.546
  0
LINE
  8
0
 10
500.368
 11
499.876
 20
158.546
 21
158.505
  0
LINE
  8
0
 10
499.876
 11
499.397
 20
158.505
 21
158.626
  0
LINE
  8
0
 10
499.397
 11
498.984
 20
158.626
 21
158.896
  0
LINE
  8
0
 10
498.984
 11
498.681
 20
158.896
 21
159.286
  0
LINE
  8
0
 10
498.681
 11
498.52
 20
159.286
 21
159.753
  0
LINE
  8
0
 10
522
 11
522.066
 20
-160
 21
-159.376
  0
LINE
  8
0
 10
522.066
 11
522.259
 20
-159.376
 21
-158.78
  0
LINE
  8
0
 10
522.259
 11
522.573
 20
-158.78
 21
-158.237
  0
LINE
  8
0
 10
522.573
 11
522.993
 20
-158.237
 21
-157.771
  0
LINE
  8
0
 10
522.993
 11
523.5
 20
-157.771
 21
-157.402
  0
LINE
  8
0
 10
523.5
 11
524.073
 20
-157.402
 21
-157.147
  0
LINE
  8
0
 10
524.073
 11
524.686
 20
-157.147
 21
-157.016
  0
LINE
  8
0
 10
524.686
 11
525.314
 20
-157.016
 21
-157.016
  0
LINE
  8
0
 10
525.314
 11
525.927
 20
-157.016
 21
-157.147
  0
LINE
  8
0
 10
525.927
 11
526.5
 20
-157.147
 21
-157.402
  0
LINE
  8
0
 10
526.5
 11
527.007
 20
-157.402
 21
-157.771
  0
LINE
  8
0
 10
527.007
 11
527.427
 20
-157.771
 21
-158.237
  0
LINE
  8
0
 10
527.427
 11
527.741
 20
-158.237
 21
-158.78
  0
LINE
  8
0
 10
527.741
 11
527.934
 20
-158.78
 21
-159.376
  0
LINE
  8
0
 10
527.934
 11
528
 20
-159.376
 21
-160
  0
LINE
  8
0
 10
528
 11
527.934
 20
-160
 21
-160.624
  0
LINE
  8
0
 10
527.934
 11
527.741
 20
-160.624
 21
-161.22
  0
LINE
  8
0
 10
527.741
 11
527.427
 20
-161.22
 21
-161.763
  0
LINE
  8
0
 10
527.427
 11
527.007
 20
-161.763
 21
-162.229
  0
LINE
  8
0
 10
527.007
 11
526.5
 20
-162.229
 21
-162.598
  0
LINE
  8
0
 10
526.5
 11
525.927
 20
-162.598
 21
-162.853
  0
LINE
  8
0
 10
525.927
 11
525.314
 20
-162.853
 21
-162.984
  0
LINE
  8
0
 10
525.314
 11
524.686
 20
-162.984
 21
-162.984
  0
LINE
  8
0
 10
524.686
 11
524.073
 20
-162.984
 21
-162.853
  0
LINE
  8
0
 10
524.073
 11
523.5
 20
-162.853
 21
-162.598
  0
LINE
  8
0
 10
523.5
 11
522.993
 20
-162.598
 21
-162.229
  0
LINE
  8
0
 10
522.993
 11
522.573
 20
-162.229
 21
-161.763
  0
LINE
  8
0
 10
522.573
 11
522.259
 20
-161.763
 21
-161.22
  0
LINE
  8
0
 10
522.259
 11
522.066
 20
-161.22
 21
-160.624
  0
LINE
  8
0
 10
522.066
 11
522
 20
-160.624
 21
-160
  0
LINE
  8
0
 10
522
 11
522.066
 20
160
 21
160.624
  0
LINE
  8
0
 10
522.066
 11
522.259
 20
160.624
 21
161.22
  0
LINE
  8
0
 10
522.259
 11
522.573
 20
161.22
 21
161.763
  0
LINE
  8
0
 10
522.573
 11
522.993
 20
161.763
 21
162.229
  0
LINE
  8
0
 10
522.993
 11
523.5
 20
162.229
 21
162.598
  0
LINE
  8
0
 10
523.5
 11
524.073
 20
162.598
 21
162.853
  0
LINE
  8
0
 10
524.073
 11
524.686
 20
162.853
 21
162.984
  0
LINE
  8
0
 10
524.686
 11
525.314
 20
162.984
 21
162.984
  0
LINE
  8
0
 10
525.314
 11
525.927
 20
162.984
 21
162.853
  0
LINE
  8
0
 10
525.927
 11
526.5
 20
162.853
 21
162.598
  0
LINE
  8
0
 10
526.5
 11
527.007
 20
162.598
 21
162.229
  0
LINE
  8
0
 10
527.007
 11
527.427
 20
162.229
 21
161.763
  0
LINE
  8
0
 10
527.427
 11
527.741
 20
161.763
 21
161.22
  0
LINE
  8
0
 10
527.741
 11
527.934
 20
161.22
 21
160.624
  0
LINE
  8
0
 10
527.934
 11
528
 20
160.624
 21
160
  0
LINE
  8
0
 10
528
 11
527.934
 20
160
 21
159.376
  0
LINE
  8
0
 10
527.934
 11
527.741
 20
159.376
 21
158.78
  0
LINE
  8
0
 10
527.741
 11
527.427
 20
158.78
 21
158.237
  0
LINE
  8
0
 10
527.427
 11
527.007
 20
158.237
 21
157.771
  0
LINE
  8
0
 10
527.007
 11
526.5
 20
157.771
 21
157.402
  0
LINE
  8
0
 10
526.5
 11
525.927
 20
157.402
 21
157.147
  0
LINE
  8
0
 10
525.927
 11
525.314
 20
157.147
 21
157.016
  0
LINE
  8
0
 10
525.314
 11
524.686
 20
157.016
 21
157.016
  0
LINE
  8
0
 10
524.686
 11
524.073
 20
157.016
 21
157.147
  0
LINE
  8
0
 10
524.073
 11
523.5
 20
157.147
 21
157.402
  0
LINE
  8
0
 10
523.5
 11
522.993
 20
157.402
 21
157.771
  0
LINE
  8
0
 10
522.993
 11
522.573
 20
157.771
 21
158.237
  0
LINE
  8
0
 10
522.573
 11
522.259
 20
158.237
 21
158.78
  0
LINE
  8
0
 10
522.259
 11
522.066
 20
158.78
 21
159.376
  0
LINE
  8
0
 10
522.066
 11
522
 20
159.376
 21
160
  0
LINE
  8
0
 10
527.5
 11
527.5
 20
-122.5
 21
122.5
  0
LINE
  8
0
 10
527.5
 11
527.719
 20
122.5
 21
124.579
  0
LINE
  8
0
 10
527.719
 11
528.365
 20
124.579
 21
126.567
  0
LINE
  8
0
 10
528.365
 11
529.41
 20
126.567
 21
128.378
  0
LINE
  8
0
 10
529.41
 11
530.809
 20
128.378
 21
129.931
  0
LINE
  8
0
 10
530.809
 11
532.5
 20
129.931
 21
131.16
  0
LINE
  8
0
 10
532.5
 11
534.41
 20
131.16
 21
132.011
  0
LINE
  8
0
 10
534.41
 11
536.455
 20
132.011
 21
132.445
  0
LINE
  8
0
 10
536.455
 11
693.545
 20
132.445
 21
132.445
  0
LINE
  8
0
 10
693.545
 11
695.59
 20
132.445
 21
132.011
  0
LINE
  8
0
 10
695.59
 11
697.5
 20
132.011
 21
131.16
  0
LINE
  8
0
 10
697.5
 11
699.191
 20
131.16
 21
129.931
  0
LINE
  8
0
 10
699.191
 11
700.59
 20
129.931
 21
128.378
  0
LINE
  8
0
 10
700.59
 11
701.635
 20
128.378
 21
126.567
  0
LINE
  8
0
 10
701.635
 11
702.281
 20
126.567
 21
124.579
  0
LINE
  8
0
 10
702.281
 11
702.5
 20
124.579
 21
122.5
  0
LINE
  8
0
 10
702.5
 11
702.5
 20
122.5
 21
-122.5
  0
LINE
  8
0
 10
702.5
 11
702.281
 20
-122.5
 21
-124.579
  0
LINE
  8
0
 10
702.281
 11
701.635
 20
-124.579
 21
-126.567
  0
LINE
  8
0
 10
701.635
 11
700.59
 20
-126.567
 21
-128.378
  0
LINE
  8
0
 10
700.59
 11
699.191
 20
-128.378
 21
-129.931
  0
LINE
  8
0
 10
699.191
 11
697.5
 20
-129.931
 21
-131.16
  0
LINE
  8
0
 10
697.5
 11
695.59
 20
-131.16
 21
-132.011
  0
LINE
  8
0
 10
695.59
 11
693.545
 20
-132.011
 21
-132.445
  0
LINE
  8
0
 10
693.545
 11
665
 20
-132.445
 21
-132.445
  0
LINE
  8
0
 10
665
 11
665
 20
-132.445
 21
-162
  0
LINE
  8
0
 10
665
 11
650
 20
-162
 21
-162
  0
LINE
  8
0
 10
650
 11
650
 20
-162
 21
-132.445
  0
LINE
  8
0
 10
650
 11
536.455
 20
-132.445
 21
-132.445
  0
LINE
  8
0
 10
536.455
 11
534.41
 20
-132.445
 21
-132.011
  0
LINE
  8
0
 10
534.41
 11
532.5
 20
-132.011
 21
-131.16
  0
LINE
  8
0
 10
532.5
 11
530.809
 20
-131.16
 21
-129.931
  0
LINE
  8
0
 10
530.809
 11
529.41
 20
-129.931
 21
-128.378
  0
LINE
  8
0
 10
529.41
 11
528.365
 20
-128.378
 21
-126.567
  0
LINE
  8
0
 10
528.365
 11
527.719
 20
-126.567
 21
-124.579
  0
LINE
  8
0
 10
527.719
 11
527.5
 20
-124.579
 21
-122.5
  0
LINE
  8
0
 10
517.5
 11
517.5
 20
-157.5
 21
157.5
  0
LINE
  8
0
 10
517.5
 11
517.719
 20
157.5
 21
159.579
  0
LINE
  8
0
 10
517.719
 11
518.365
 20
159.579
 21
161.567
  0
LINE
  8
0
 10
518.365
 11
519.41
 20
161.567
 21
163.378
  0
LINE
  8
0
 10
519.41
 11
520.809
 20
163.378
 21
164.931
  0
LINE
  8
0
 10
520.809
 11
522.5
 20
164.931
 21
166.16
  0
LINE
  8
0
 10
522.5
 11
524.41
 20
166.16
 21
167.011
  0
LINE
  8
0
 10
524.41
 11
526.455
 20
167.011
 21
167.445
  0
LINE
  8
0
 10
526.455
 11
703.545
 20
167.445
 21
167.445
  0
LINE
  8
0
 10
703.545
 11
705.59
 20
167.445
 21
167.011
  0
LINE
  8
0
 10
705.59
 11
707.5
 20
167.011
 21
166.16
  0
LINE
  8
0
 10
707.5
 11
709.191
 20
166.16
 21
164.931
  0
LINE
  8
0
 10
709.191
 11
710.59
 20
164.931
 21
163.378
  0
LINE
  8
0
 10
710.59
 11
711.635
 20
163.378
 21
161.567
  0
LINE
  8
0
 10
711.635
 11
712.281
 20
161.567
 21
159.579
  0
LINE
  8
0
 10
712.281
 11
712.5
 20
159.579
 21
157.5
  0
LINE
  8
0
 10
712.5
 11
712.5
 20
157.5
 21
-157.5
  0
LINE
  8
0
 10
712.5
 11
712.281
 20
-157.5
 21
-159.579
  0
LINE
  8
0
 10
712.281
 11
711.635
 20
-159.579
 21
-161.567
  0
LINE
  8
0
 10
711.635
 11
710.59
 20
-161.567
 21
-163.378
  0
LINE
  8
0
 10
710.59
 11
709.191
 20
-163.378
 21
-164.931
  0
LINE
  8
0
 10
709.191
 11
707.5
 20
-164.931
 21
-166.16
  0
LINE
  8
0
 10
707.5
 11
705.59
 20
-166.16
 21
-167.011
  0
LINE
  8
0
 10
705.59
 11
703.545
 20
-167.011
 21
-167.445
  0
LINE
  8
0
 10
703.545
 11
526.455
 20
-167.445
 21
-167.445
  0
LINE
  8
0
 10
526.455
 11
524.41
 20
-167.445
 21
-167.011
  0
LINE
  8
0
 10
524.41
 11
522.5
 20
-167.011
 21
-166.16
  0
LINE
  8
0
 10
522.5
 11
520.809
 20
-166.16
 21
-164.931
  0
LINE
  8
0
 10
520.809
 11
519.41
 20
-164.931
 21
-163.378
  0
LINE
  8
0
 10
519.41
 11
518.365
 20
-163.378
 21
-161.567
  0
LINE
  8
0
 10
518.365
 11
517.719
 20
-161.567
 21
-159.579
  0
LINE
  8
0
 10
517.719
 11
517.5
 20
-159.579
 21
-157.5
  0
LINE
  8
0
 10
702
 11
702.066
 20
-160
 21
-159.376
  0
LINE
  8
0
 10
702.066
 11
702.259
 20
-159.376
 21
-158.78
  0
LINE
  8
0
 10
702.259
 11
702.573
 20
-158.78
 21
-158.237
  0
LINE
  8
0
 10
702.573
 11
702.993
 20
-158.237
 21
-157.771
  0
LINE
  8
0
 10
702.993
 11
703.5
 20
-157.771
 21
-157.402
  0
LINE
  8
0
 10
703.5
 11
704.073
 20
-157.402
 21
-157.147
  0
LINE
  8
0
 10
704.073
 11
704.686
 20
-157.147
 21
-157.016
  0
LINE
  8
0
 10
704.686
 11
705.314
 20
-157.016
 21
-157.016
  0
LINE
  8
0
 10
705.314
 11
705.927
 20
-157.016
 21
-157.147
  0
LINE
  8
0
 10
705.927
 11
706.5
 20
-157.147
 21
-157.402
  0
LINE
  8
0
 10
706.5
 11
707.007
 20
-157.402
 21
-157.771
  0
LINE
  8
0
 10
707.007
 11
707.427
 20
-157.771
 21
-158.237
  0
LINE
  8
0
 10
707.427
 11
707.741
 20
-158.237
 21
-158.78
  0
LINE
  8
0
 10
707.741
 11
707.934
 20
-158.78
 21
-159.376
  0
LINE
  8
0
 10
707.934
 11
708
 20
-159.376
 21
-160
  0
LINE
  8
0
 10
708
 11
707.934
 20
-160
 21
-160.624
  0
LINE
  8
0
 10
707.934
 11
707.741
 20
-160.624
 21
-161.22
  0
LINE
  8
0
 10
707.741
 11
707.427
 20
-161.22
 21
-161.763
  0
LINE
  8
0
 10
707.427
 11
707.007
 20
-161.763
 21
-162.229
  0
LINE
  8
0
 10
707.007
 11
706.5
 20
-162.229
 21
-162.598
  0
LINE
  8
0
 10
706.5
 11
705.927
 20
-162.598
 21
-162.853
  0
LINE
  8
0
 10
705.927
 11
705.314
 20
-162.853
 21
-162.984
  0
LINE
  8
0
 10
705.314
 11
704.686
 20
-162.984
 21
-162.984
  0
LINE
  8
0
 10
704.686
 11
704.073
 20
-162.984
 21
-162.853
  0
LINE
  8
0
 10
704.073
 11
703.5
 20
-162.853
 21
-162.598
  0
LINE
  8
0
 10
703.5
 11
702.993
 20
-162.598
 21
-162.229
  0
LINE
  8
0
 10
702.993
 11
702.573
 20
-162.229
 21
-161.763
  0
LINE
  8
0
 10
702.573
 11
702.259
 20
-161.763
 21
-161.22
  0
LINE
  8
0
 10
702.259
 11
702.066
 20
-161.22
 21
-160.624
  0
LINE
  8
0
 10
702.066
 11
702
 20
-160.624
 21
-160
  0
LINE
  8
0
 10
702
 11
702.066
 20
160
 21
160.624
  0
LINE
  8
0
 10
702.066
 11
702.259
 20
160.624
 21
161.22
  0
LINE
  8
0
 10
702.259
 11
702.573
 20
161.22
 21
161.763
  0
LINE
  8
0
 10
702.573
 11
702.993
 20
161.763
 21
162.229
  0
LINE
  8
0
 10
702.993
 11
703.5
 20
162.229
 21
162.598
  0
LINE
  8
0
 10
703.5
 11
704.073
 20
162.598
 21
162.853
  0
LINE
  8
0
 10
704.073
 11
704.686
 20
162.853
 21
162.984
  0
LINE
  8
0
 10
704.686
 11
705.314
 20
162.984
 21
162.984
  0
LINE
  8
0
 10
705.314
 11
705.927
 20
162.984
 21
162.853
  0
LINE
  8
0
 10
705.927
 11
706.5
 20
162.853
 21
162.598
  0
LINE
  8
0
 10
706.5
 11
707.007
 20
162.598
 21
162.229
  0
LINE
  8
0
 10
707.007
 11
707.427
 20
162.229
 21
161.763
  0
LINE
  8
0
 10
707.427
 11
707.741
 20
161.763
 21
161.22
  0
LINE
  8
0
 10
707.741
 11
707.934
 20
161.22
 21
160.624
  0
LINE
  8
0
 10
707.934
 11
708
 20
160.624
 21
160
  0
LINE
  8
0
 10
708
 11
707.934
 20
160
 21
159.376
  0
LINE
  8
0
 10
707.934
 11
707.741
 20
159.376
 21
158.78
  0
LINE
  8
0
 10
707.741
 11
707.427
 20
158.78
 21
158.237
  0
LINE
  8
0
 10
707.427
 11
707.007
 20
158.237
 21
157.771
  0
LINE
  8
0
 10
707.007
 11
706.5
 20
157.771
 21
157.402
  0
LINE
  8
0
 10
706.5
 11
705.927
 20
157.402
 21
157.147
  0
LINE
  8
0
 10
705.927
 11
705.314
 20
157.147
 21
157.016
  0
LINE
  8
0
 10
705.314
 11
704.686
 20
157.016
 21
157.016
  0
LINE
  8
0
 10
704.686
 11
704.073
 20
157.016
 21
157.147
  0
LINE
  8
0
 10
704.073
 11
703.5
 20
157.147
 21
157.402
  0
LINE
  8
0
 10
703.5
 11
702.993
 20
157.402
 21
157.771
  0
LINE
  8
0
 10
702.993
 11
702.573
 20
157.771
 21
158.237
  0
LINE
  8
0
 10
702.573
 11
702.259
 20
158.237
 21
158.78
  0
LINE
  8
0
 10
702.259
 11
702.066
 20
158.78
 21
159.376
  0
LINE
  8
0
 10
702.066
 11
702
 20
159.376
 21
160
  0
ENDSEC
  0
SECTION
  2
OBJECTS
  0
DICTIONARY
  0
ENDSEC
  0
EOF
