  0
SECTION
  2
BLOCKS
  0
ENDSEC
  0
SECTION
  2
ENTITIES
  0
LINE
  8
0
 10
248.403
 20
250
 11
258.403
 21
250
  0
LINE
  8
0
 10
258.403
 20
250
 11
258.403
 21
245.15
  0
LINE
  8
0
 10
258.403
 20
245.15
 11
268.403
 21
245.15
  0
LINE
  8
0
 10
268.403
 20
245.15
 11
268.403
 21
250
  0
LINE
  8
0
 10
268.403
 20
250
 11
278.403
 21
250
  0
LINE
  8
0
 10
278.403
 20
250
 11
278.403
 21
245.15
  0
LINE
  8
0
 10
278.403
 20
245.15
 11
288.403
 21
245.15
  0
LINE
  8
0
 10
288.403
 20
245.15
 11
288.403
 21
250
  0
LINE
  8
0
 10
288.403
 20
250
 11
322.952
 21
250
  0
LINE
  8
0
 10
322.952
 20
250
 11
322.952
 21
245.15
  0
LINE
  8
0
 10
322.952
 20
245.15
 11
332.952
 21
245.15
  0
LINE
  8
0
 10
332.952
 20
245.15
 11
332.952
 21
250
  0
LINE
  8
0
 10
332.952
 20
250
 11
342.952
 21
250
  0
LINE
  8
0
 10
342.952
 20
250
 11
342.952
 21
245.15
  0
LINE
  8
0
 10
342.952
 20
245.15
 11
352.952
 21
245.15
  0
LINE
  8
0
 10
352.952
 20
245.15
 11
352.952
 21
250
  0
LINE
  8
0
 10
352.952
 20
250
 11
362.952
 21
250
  0
LINE
  8
0
 10
362.952
 20
250
 11
362.952
 21
245.15
  0
LINE
  8
0
 10
362.952
 20
245.15
 11
372.952
 21
245.15
  0
LINE
  8
0
 10
372.952
 20
245.15
 11
372.952
 21
250
  0
LINE
  8
0
 10
372.952
 20
250
 11
382.952
 21
250
  0
LINE
  8
0
 10
382.952
 20
250
 11
382.952
 21
245.15
  0
LINE
  8
0
 10
382.952
 20
245.15
 11
392.952
 21
245.15
  0
LINE
  8
0
 10
392.952
 20
245.15
 11
392.952
 21
250
  0
LINE
  8
0
 10
392.952
 20
250
 11
402.952
 21
250
  0
LINE
  8
0
 10
402.952
 20
250
 11
402.952
 21
245.15
  0
LINE
  8
0
 10
402.952
 20
245.15
 11
412.952
 21
245.15
  0
LINE
  8
0
 10
412.952
 20
245.15
 11
412.952
 21
250
  0
LINE
  8
0
 10
412.952
 20
250
 11
422.952
 21
250
  0
LINE
  8
0
 10
422.952
 20
250
 11
422.952
 21
245.15
  0
LINE
  8
0
 10
422.952
 20
245.15
 11
432.952
 21
245.15
  0
LINE
  8
0
 10
432.952
 20
245.15
 11
432.952
 21
250
  0
LINE
  8
0
 10
432.952
 20
250
 11
442.952
 21
250
  0
LINE
  8
0
 10
442.952
 20
250
 11
442.952
 21
245.15
  0
LINE
  8
0
 10
442.952
 20
245.15
 11
452.952
 21
245.15
  0
LINE
  8
0
 10
452.952
 20
245.15
 11
452.952
 21
250
  0
LINE
  8
0
 10
452.952
 20
250
 11
462.952
 21
250
  0
LINE
  8
0
 10
462.952
 20
250
 11
462.952
 21
245.15
  0
LINE
  8
0
 10
462.952
 20
245.15
 11
472.952
 21
245.15
  0
LINE
  8
0
 10
472.952
 20
245.15
 11
472.952
 21
250
  0
LINE
  8
0
 10
472.952
 20
250
 11
482.952
 21
250
  0
LINE
  8
0
 10
482.952
 20
250
 11
482.952
 21
245.15
  0
LINE
  8
0
 10
482.952
 20
245.15
 11
492.952
 21
245.15
  0
LINE
  8
0
 10
492.952
 20
245.15
 11
492.952
 21
250
  0
LINE
  8
0
 10
492.952
 20
250
 11
502.952
 21
250
  0
LINE
  8
0
 10
502.952
 20
250
 11
502.952
 21
245.15
  0
LINE
  8
0
 10
502.952
 20
245.15
 11
512.952
 21
245.15
  0
LINE
  8
0
 10
512.952
 20
245.15
 11
512.952
 21
250
  0
LINE
  8
0
 10
512.952
 20
250
 11
522.952
 21
250
  0
LINE
  8
0
 10
522.952
 20
250
 11
522.952
 21
245.15
  0
LINE
  8
0
 10
522.952
 20
245.15
 11
532.952
 21
245.15
  0
LINE
  8
0
 10
532.952
 20
245.15
 11
532.952
 21
250
  0
LINE
  8
0
 10
532.952
 20
250
 11
542.952
 21
250
  0
LINE
  8
0
 10
542.952
 20
250
 11
542.952
 21
245.15
  0
LINE
  8
0
 10
542.952
 20
245.15
 11
552.952
 21
245.15
  0
LINE
  8
0
 10
552.952
 20
245.15
 11
552.952
 21
250
  0
LINE
  8
0
 10
552.952
 20
250
 11
562.952
 21
250
  0
LINE
  8
0
 10
562.952
 20
250
 11
562.952
 21
245.15
  0
LINE
  8
0
 10
562.952
 20
245.15
 11
572.952
 21
245.15
  0
LINE
  8
0
 10
572.952
 20
245.15
 11
572.952
 21
250
  0
LINE
  8
0
 10
572.952
 20
250
 11
582.952
 21
250
  0
LINE
  8
0
 10
582.952
 20
250
 11
582.952
 21
245.15
  0
LINE
  8
0
 10
582.952
 20
245.15
 11
592.952
 21
245.15
  0
LINE
  8
0
 10
592.952
 20
245.15
 11
592.952
 21
250
  0
LINE
  8
0
 10
592.952
 20
250
 11
602.952
 21
250
  0
LINE
  8
0
 10
602.952
 20
250
 11
602.952
 21
245.15
  0
LINE
  8
0
 10
602.952
 20
245.15
 11
612.952
 21
245.15
  0
LINE
  8
0
 10
612.952
 20
245.15
 11
612.952
 21
250
  0
LINE
  8
0
 10
612.952
 20
250
 11
622.952
 21
250
  0
LINE
  8
0
 10
622.952
 20
250
 11
622.952
 21
245.15
  0
LINE
  8
0
 10
622.952
 20
245.15
 11
632.952
 21
245.15
  0
LINE
  8
0
 10
632.952
 20
245.15
 11
632.952
 21
250
  0
LINE
  8
0
 10
632.952
 20
250
 11
642.952
 21
250
  0
LINE
  8
0
 10
642.952
 20
250
 11
642.952
 21
245.15
  0
LINE
  8
0
 10
642.952
 20
245.15
 11
652.952
 21
245.15
  0
LINE
  8
0
 10
652.952
 20
245.15
 11
652.952
 21
250
  0
LINE
  8
0
 10
652.952
 20
250
 11
685
 21
250
  0
LINE
  8
0
 10
685
 20
250
 11
685
 21
245.15
  0
LINE
  8
0
 10
685
 20
245.15
 11
695
 21
245.15
  0
LINE
  8
0
 10
695
 20
245.15
 11
695
 21
250
  0
LINE
  8
0
 10
695
 20
250
 11
705
 21
250
  0
LINE
  8
0
 10
705
 20
250
 11
705
 21
245.15
  0
LINE
  8
0
 10
705
 20
245.15
 11
715
 21
245.15
  0
LINE
  8
0
 10
715
 20
245.15
 11
715
 21
250
  0
LINE
  8
0
 10
715
 20
250
 11
725
 21
250
  0
LINE
  8
0
 10
725
 20
250
 11
725
 21
245.15
  0
LINE
  8
0
 10
725
 20
245.15
 11
735
 21
245.15
  0
LINE
  8
0
 10
735
 20
245.15
 11
735
 21
250
  0
LINE
  8
0
 10
735
 20
250
 11
745
 21
250
  0
LINE
  8
0
 10
745
 20
250
 11
745
 21
245.15
  0
LINE
  8
0
 10
745
 20
245.15
 11
755
 21
245.15
  0
LINE
  8
0
 10
755
 20
245.15
 11
755
 21
250
  0
LINE
  8
0
 10
755
 20
250
 11
765
 21
250
  0
LINE
  8
0
 10
765
 20
250
 11
765
 21
245.15
  0
LINE
  8
0
 10
765
 20
245.15
 11
775
 21
245.15
  0
LINE
  8
0
 10
775
 20
245.15
 11
775
 21
250
  0
LINE
  8
0
 10
775
 20
250
 11
785
 21
250
  0
LINE
  8
0
 10
785
 20
250
 11
785
 21
245.15
  0
LINE
  8
0
 10
785
 20
245.15
 11
795
 21
245.15
  0
LINE
  8
0
 10
795
 20
245.15
 11
795
 21
250
  0
LINE
  8
0
 10
795
 20
250
 11
827.048
 21
250
  0
LINE
  8
0
 10
827.048
 20
250
 11
827.048
 21
245.15
  0
LINE
  8
0
 10
827.048
 20
245.15
 11
837.048
 21
245.15
  0
LINE
  8
0
 10
837.048
 20
245.15
 11
837.048
 21
250
  0
LINE
  8
0
 10
837.048
 20
250
 11
847.048
 21
250
  0
LINE
  8
0
 10
847.048
 20
250
 11
847.048
 21
245.15
  0
LINE
  8
0
 10
847.048
 20
245.15
 11
857.048
 21
245.15
  0
LINE
  8
0
 10
857.048
 20
245.15
 11
857.048
 21
250
  0
LINE
  8
0
 10
857.048
 20
250
 11
867.048
 21
250
  0
LINE
  8
0
 10
867.048
 20
250
 11
867.048
 21
245.15
  0
LINE
  8
0
 10
867.048
 20
245.15
 11
877.048
 21
245.15
  0
LINE
  8
0
 10
877.048
 20
245.15
 11
877.048
 21
250
  0
LINE
  8
0
 10
877.048
 20
250
 11
887.048
 21
250
  0
LINE
  8
0
 10
887.048
 20
250
 11
887.048
 21
245.15
  0
LINE
  8
0
 10
887.048
 20
245.15
 11
897.048
 21
245.15
  0
LINE
  8
0
 10
897.048
 20
245.15
 11
897.048
 21
250
  0
LINE
  8
0
 10
897.048
 20
250
 11
907.048
 21
250
  0
LINE
  8
0
 10
907.048
 20
250
 11
907.048
 21
245.15
  0
LINE
  8
0
 10
907.048
 20
245.15
 11
917.048
 21
245.15
  0
LINE
  8
0
 10
917.048
 20
245.15
 11
917.048
 21
250
  0
LINE
  8
0
 10
917.048
 20
250
 11
927.048
 21
250
  0
LINE
  8
0
 10
927.048
 20
250
 11
927.048
 21
245.15
  0
LINE
  8
0
 10
927.048
 20
245.15
 11
937.048
 21
245.15
  0
LINE
  8
0
 10
937.048
 20
245.15
 11
937.048
 21
250
  0
LINE
  8
0
 10
937.048
 20
250
 11
947.048
 21
250
  0
LINE
  8
0
 10
947.048
 20
250
 11
947.048
 21
245.15
  0
LINE
  8
0
 10
947.048
 20
245.15
 11
957.048
 21
245.15
  0
LINE
  8
0
 10
957.048
 20
245.15
 11
957.048
 21
250
  0
LINE
  8
0
 10
957.048
 20
250
 11
967.048
 21
250
  0
LINE
  8
0
 10
967.048
 20
250
 11
967.048
 21
245.15
  0
LINE
  8
0
 10
967.048
 20
245.15
 11
977.048
 21
245.15
  0
LINE
  8
0
 10
977.048
 20
245.15
 11
977.048
 21
250
  0
LINE
  8
0
 10
977.048
 20
250
 11
987.048
 21
250
  0
LINE
  8
0
 10
987.048
 20
250
 11
987.048
 21
245.15
  0
LINE
  8
0
 10
987.048
 20
245.15
 11
997.048
 21
245.15
  0
LINE
  8
0
 10
997.048
 20
245.15
 11
997.048
 21
250
  0
LINE
  8
0
 10
997.048
 20
250
 11
1007.05
 21
250
  0
LINE
  8
0
 10
1007.05
 20
250
 11
1007.05
 21
245.15
  0
LINE
  8
0
 10
1007.05
 20
245.15
 11
1017.05
 21
245.15
  0
LINE
  8
0
 10
1017.05
 20
245.15
 11
1017.05
 21
250
  0
LINE
  8
0
 10
1017.05
 20
250
 11
1027.05
 21
250
  0
LINE
  8
0
 10
1027.05
 20
250
 11
1027.05
 21
245.15
  0
LINE
  8
0
 10
1027.05
 20
245.15
 11
1037.05
 21
245.15
  0
LINE
  8
0
 10
1037.05
 20
245.15
 11
1037.05
 21
250
  0
LINE
  8
0
 10
1037.05
 20
250
 11
1047.05
 21
250
  0
LINE
  8
0
 10
1047.05
 20
250
 11
1047.05
 21
245.15
  0
LINE
  8
0
 10
1047.05
 20
245.15
 11
1057.05
 21
245.15
  0
LINE
  8
0
 10
1057.05
 20
245.15
 11
1057.05
 21
250
  0
LINE
  8
0
 10
1057.05
 20
250
 11
1067.05
 21
250
  0
LINE
  8
0
 10
1067.05
 20
250
 11
1067.05
 21
245.15
  0
LINE
  8
0
 10
1067.05
 20
245.15
 11
1077.05
 21
245.15
  0
LINE
  8
0
 10
1077.05
 20
245.15
 11
1077.05
 21
250
  0
LINE
  8
0
 10
1077.05
 20
250
 11
1087.05
 21
250
  0
LINE
  8
0
 10
1087.05
 20
250
 11
1087.05
 21
245.15
  0
LINE
  8
0
 10
1087.05
 20
245.15
 11
1097.05
 21
245.15
  0
LINE
  8
0
 10
1097.05
 20
245.15
 11
1097.05
 21
250
  0
LINE
  8
0
 10
1097.05
 20
250
 11
1107.05
 21
250
  0
LINE
  8
0
 10
1107.05
 20
250
 11
1107.05
 21
245.15
  0
LINE
  8
0
 10
1107.05
 20
245.15
 11
1117.05
 21
245.15
  0
LINE
  8
0
 10
1117.05
 20
245.15
 11
1117.05
 21
250
  0
LINE
  8
0
 10
1117.05
 20
250
 11
1127.05
 21
250
  0
LINE
  8
0
 10
1127.05
 20
250
 11
1127.05
 21
245.15
  0
LINE
  8
0
 10
1127.05
 20
245.15
 11
1137.05
 21
245.15
  0
LINE
  8
0
 10
1137.05
 20
245.15
 11
1137.05
 21
250
  0
LINE
  8
0
 10
1137.05
 20
250
 11
1147.05
 21
250
  0
LINE
  8
0
 10
1147.05
 20
250
 11
1147.05
 21
245.15
  0
LINE
  8
0
 10
1147.05
 20
245.15
 11
1157.05
 21
245.15
  0
LINE
  8
0
 10
1157.05
 20
245.15
 11
1157.05
 21
250
  0
LINE
  8
0
 10
1157.05
 20
250
 11
1191.6
 21
250
  0
LINE
  8
0
 10
1191.6
 20
250
 11
1191.6
 21
245.15
  0
LINE
  8
0
 10
1191.6
 20
245.15
 11
1201.6
 21
245.15
  0
LINE
  8
0
 10
1201.6
 20
245.15
 11
1201.6
 21
250
  0
LINE
  8
0
 10
1201.6
 20
250
 11
1211.6
 21
250
  0
LINE
  8
0
 10
1211.6
 20
250
 11
1211.6
 21
245.15
  0
LINE
  8
0
 10
1211.6
 20
245.15
 11
1221.6
 21
245.15
  0
LINE
  8
0
 10
1221.6
 20
245.15
 11
1221.6
 21
250
  0
LINE
  8
0
 10
1221.6
 20
250
 11
1231.6
 21
250
  0
LINE
  8
0
 10
1231.6
 20
250
 11
1231.6
 21
245.15
  0
LINE
  8
0
 10
1231.6
 20
245.15
 11
1241.6
 21
245.15
  0
LINE
  8
0
 10
1241.6
 20
245.15
 11
1241.6
 21
250
  0
LINE
  8
0
 10
1241.6
 20
250
 11
1244.1
 21
250
  0
LINE
  8
0
 10
1244.1
 20
250
 11
1244.1
 21
290
  0
LINE
  8
0
 10
1244.1
 20
290
 11
1241.6
 21
290
  0
LINE
  8
0
 10
1241.6
 20
290
 11
1241.6
 21
294.85
  0
LINE
  8
0
 10
1241.6
 20
294.85
 11
1231.6
 21
294.85
  0
LINE
  8
0
 10
1231.6
 20
294.85
 11
1231.6
 21
290
  0
LINE
  8
0
 10
1231.6
 20
290
 11
1221.6
 21
290
  0
LINE
  8
0
 10
1221.6
 20
290
 11
1221.6
 21
294.85
  0
LINE
  8
0
 10
1221.6
 20
294.85
 11
1211.6
 21
294.85
  0
LINE
  8
0
 10
1211.6
 20
294.85
 11
1211.6
 21
290
  0
LINE
  8
0
 10
1211.6
 20
290
 11
1201.6
 21
290
  0
LINE
  8
0
 10
1201.6
 20
290
 11
1201.6
 21
294.85
  0
LINE
  8
0
 10
1201.6
 20
294.85
 11
1191.6
 21
294.85
  0
LINE
  8
0
 10
1191.6
 20
294.85
 11
1191.6
 21
290
  0
LINE
  8
0
 10
1191.6
 20
290
 11
1157.05
 21
290
  0
LINE
  8
0
 10
1157.05
 20
290
 11
1157.05
 21
294.85
  0
LINE
  8
0
 10
1157.05
 20
294.85
 11
1147.05
 21
294.85
  0
LINE
  8
0
 10
1147.05
 20
294.85
 11
1147.05
 21
290
  0
LINE
  8
0
 10
1147.05
 20
290
 11
1137.05
 21
290
  0
LINE
  8
0
 10
1137.05
 20
290
 11
1137.05
 21
294.85
  0
LINE
  8
0
 10
1137.05
 20
294.85
 11
1127.05
 21
294.85
  0
LINE
  8
0
 10
1127.05
 20
294.85
 11
1127.05
 21
290
  0
LINE
  8
0
 10
1127.05
 20
290
 11
1117.05
 21
290
  0
LINE
  8
0
 10
1117.05
 20
290
 11
1117.05
 21
294.85
  0
LINE
  8
0
 10
1117.05
 20
294.85
 11
1107.05
 21
294.85
  0
LINE
  8
0
 10
1107.05
 20
294.85
 11
1107.05
 21
290
  0
LINE
  8
0
 10
1107.05
 20
290
 11
1097.05
 21
290
  0
LINE
  8
0
 10
1097.05
 20
290
 11
1097.05
 21
294.85
  0
LINE
  8
0
 10
1097.05
 20
294.85
 11
1087.05
 21
294.85
  0
LINE
  8
0
 10
1087.05
 20
294.85
 11
1087.05
 21
290
  0
LINE
  8
0
 10
1087.05
 20
290
 11
1077.05
 21
290
  0
LINE
  8
0
 10
1077.05
 20
290
 11
1077.05
 21
294.85
  0
LINE
  8
0
 10
1077.05
 20
294.85
 11
1067.05
 21
294.85
  0
LINE
  8
0
 10
1067.05
 20
294.85
 11
1067.05
 21
290
  0
LINE
  8
0
 10
1067.05
 20
290
 11
1057.05
 21
290
  0
LINE
  8
0
 10
1057.05
 20
290
 11
1057.05
 21
294.85
  0
LINE
  8
0
 10
1057.05
 20
294.85
 11
1047.05
 21
294.85
  0
LINE
  8
0
 10
1047.05
 20
294.85
 11
1047.05
 21
290
  0
LINE
  8
0
 10
1047.05
 20
290
 11
1037.05
 21
290
  0
LINE
  8
0
 10
1037.05
 20
290
 11
1037.05
 21
294.85
  0
LINE
  8
0
 10
1037.05
 20
294.85
 11
1027.05
 21
294.85
  0
LINE
  8
0
 10
1027.05
 20
294.85
 11
1027.05
 21
290
  0
LINE
  8
0
 10
1027.05
 20
290
 11
1017.05
 21
290
  0
LINE
  8
0
 10
1017.05
 20
290
 11
1017.05
 21
294.85
  0
LINE
  8
0
 10
1017.05
 20
294.85
 11
1007.05
 21
294.85
  0
LINE
  8
0
 10
1007.05
 20
294.85
 11
1007.05
 21
290
  0
LINE
  8
0
 10
1007.05
 20
290
 11
997.048
 21
290
  0
LINE
  8
0
 10
997.048
 20
290
 11
997.048
 21
294.85
  0
LINE
  8
0
 10
997.048
 20
294.85
 11
987.048
 21
294.85
  0
LINE
  8
0
 10
987.048
 20
294.85
 11
987.048
 21
290
  0
LINE
  8
0
 10
987.048
 20
290
 11
977.048
 21
290
  0
LINE
  8
0
 10
977.048
 20
290
 11
977.048
 21
294.85
  0
LINE
  8
0
 10
977.048
 20
294.85
 11
967.048
 21
294.85
  0
LINE
  8
0
 10
967.048
 20
294.85
 11
967.048
 21
290
  0
LINE
  8
0
 10
967.048
 20
290
 11
957.048
 21
290
  0
LINE
  8
0
 10
957.048
 20
290
 11
957.048
 21
294.85
  0
LINE
  8
0
 10
957.048
 20
294.85
 11
947.048
 21
294.85
  0
LINE
  8
0
 10
947.048
 20
294.85
 11
947.048
 21
290
  0
LINE
  8
0
 10
947.048
 20
290
 11
937.048
 21
290
  0
LINE
  8
0
 10
937.048
 20
290
 11
937.048
 21
294.85
  0
LINE
  8
0
 10
937.048
 20
294.85
 11
927.048
 21
294.85
  0
LINE
  8
0
 10
927.048
 20
294.85
 11
927.048
 21
290
  0
LINE
  8
0
 10
927.048
 20
290
 11
917.048
 21
290
  0
LINE
  8
0
 10
917.048
 20
290
 11
917.048
 21
294.85
  0
LINE
  8
0
 10
917.048
 20
294.85
 11
907.048
 21
294.85
  0
LINE
  8
0
 10
907.048
 20
294.85
 11
907.048
 21
290
  0
LINE
  8
0
 10
907.048
 20
290
 11
897.048
 21
290
  0
LINE
  8
0
 10
897.048
 20
290
 11
897.048
 21
294.85
  0
LINE
  8
0
 10
897.048
 20
294.85
 11
887.048
 21
294.85
  0
LINE
  8
0
 10
887.048
 20
294.85
 11
887.048
 21
290
  0
LINE
  8
0
 10
887.048
 20
290
 11
877.048
 21
290
  0
LINE
  8
0
 10
877.048
 20
290
 11
877.048
 21
294.85
  0
LINE
  8
0
 10
877.048
 20
294.85
 11
867.048
 21
294.85
  0
LINE
  8
0
 10
867.048
 20
294.85
 11
867.048
 21
290
  0
LINE
  8
0
 10
867.048
 20
290
 11
857.048
 21
290
  0
LINE
  8
0
 10
857.048
 20
290
 11
857.048
 21
294.85
  0
LINE
  8
0
 10
857.048
 20
294.85
 11
847.048
 21
294.85
  0
LINE
  8
0
 10
847.048
 20
294.85
 11
847.048
 21
290
  0
LINE
  8
0
 10
847.048
 20
290
 11
837.048
 21
290
  0
LINE
  8
0
 10
837.048
 20
290
 11
837.048
 21
294.85
  0
LINE
  8
0
 10
837.048
 20
294.85
 11
827.048
 21
294.85
  0
LINE
  8
0
 10
827.048
 20
294.85
 11
827.048
 21
290
  0
LINE
  8
0
 10
827.048
 20
290
 11
795
 21
290
  0
LINE
  8
0
 10
795
 20
290
 11
795
 21
294.85
  0
LINE
  8
0
 10
795
 20
294.85
 11
785
 21
294.85
  0
LINE
  8
0
 10
785
 20
294.85
 11
785
 21
290
  0
LINE
  8
0
 10
785
 20
290
 11
775
 21
290
  0
LINE
  8
0
 10
775
 20
290
 11
775
 21
294.85
  0
LINE
  8
0
 10
775
 20
294.85
 11
765
 21
294.85
  0
LINE
  8
0
 10
765
 20
294.85
 11
765
 21
290
  0
LINE
  8
0
 10
765
 20
290
 11
755
 21
290
  0
LINE
  8
0
 10
755
 20
290
 11
755
 21
294.85
  0
LINE
  8
0
 10
755
 20
294.85
 11
745
 21
294.85
  0
LINE
  8
0
 10
745
 20
294.85
 11
745
 21
290
  0
LINE
  8
0
 10
745
 20
290
 11
735
 21
290
  0
LINE
  8
0
 10
735
 20
290
 11
735
 21
294.85
  0
LINE
  8
0
 10
735
 20
294.85
 11
725
 21
294.85
  0
LINE
  8
0
 10
725
 20
294.85
 11
725
 21
290
  0
LINE
  8
0
 10
725
 20
290
 11
715
 21
290
  0
LINE
  8
0
 10
715
 20
290
 11
715
 21
294.85
  0
LINE
  8
0
 10
715
 20
294.85
 11
705
 21
294.85
  0
LINE
  8
0
 10
705
 20
294.85
 11
705
 21
290
  0
LINE
  8
0
 10
705
 20
290
 11
695
 21
290
  0
LINE
  8
0
 10
695
 20
290
 11
695
 21
294.85
  0
LINE
  8
0
 10
695
 20
294.85
 11
685
 21
294.85
  0
LINE
  8
0
 10
685
 20
294.85
 11
685
 21
290
  0
LINE
  8
0
 10
685
 20
290
 11
652.952
 21
290
  0
LINE
  8
0
 10
652.952
 20
290
 11
652.952
 21
294.85
  0
LINE
  8
0
 10
652.952
 20
294.85
 11
642.952
 21
294.85
  0
LINE
  8
0
 10
642.952
 20
294.85
 11
642.952
 21
290
  0
LINE
  8
0
 10
642.952
 20
290
 11
632.952
 21
290
  0
LINE
  8
0
 10
632.952
 20
290
 11
632.952
 21
294.85
  0
LINE
  8
0
 10
632.952
 20
294.85
 11
622.952
 21
294.85
  0
LINE
  8
0
 10
622.952
 20
294.85
 11
622.952
 21
290
  0
LINE
  8
0
 10
622.952
 20
290
 11
612.952
 21
290
  0
LINE
  8
0
 10
612.952
 20
290
 11
612.952
 21
294.85
  0
LINE
  8
0
 10
612.952
 20
294.85
 11
602.952
 21
294.85
  0
LINE
  8
0
 10
602.952
 20
294.85
 11
602.952
 21
290
  0
LINE
  8
0
 10
602.952
 20
290
 11
592.952
 21
290
  0
LINE
  8
0
 10
592.952
 20
290
 11
592.952
 21
294.85
  0
LINE
  8
0
 10
592.952
 20
294.85
 11
582.952
 21
294.85
  0
LINE
  8
0
 10
582.952
 20
294.85
 11
582.952
 21
290
  0
LINE
  8
0
 10
582.952
 20
290
 11
572.952
 21
290
  0
LINE
  8
0
 10
572.952
 20
290
 11
572.952
 21
294.85
  0
LINE
  8
0
 10
572.952
 20
294.85
 11
562.952
 21
294.85
  0
LINE
  8
0
 10
562.952
 20
294.85
 11
562.952
 21
290
  0
LINE
  8
0
 10
562.952
 20
290
 11
552.952
 21
290
  0
LINE
  8
0
 10
552.952
 20
290
 11
552.952
 21
294.85
  0
LINE
  8
0
 10
552.952
 20
294.85
 11
542.952
 21
294.85
  0
LINE
  8
0
 10
542.952
 20
294.85
 11
542.952
 21
290
  0
LINE
  8
0
 10
542.952
 20
290
 11
532.952
 21
290
  0
LINE
  8
0
 10
532.952
 20
290
 11
532.952
 21
294.85
  0
LINE
  8
0
 10
532.952
 20
294.85
 11
522.952
 21
294.85
  0
LINE
  8
0
 10
522.952
 20
294.85
 11
522.952
 21
290
  0
LINE
  8
0
 10
522.952
 20
290
 11
512.952
 21
290
  0
LINE
  8
0
 10
512.952
 20
290
 11
512.952
 21
294.85
  0
LINE
  8
0
 10
512.952
 20
294.85
 11
502.952
 21
294.85
  0
LINE
  8
0
 10
502.952
 20
294.85
 11
502.952
 21
290
  0
LINE
  8
0
 10
502.952
 20
290
 11
492.952
 21
290
  0
LINE
  8
0
 10
492.952
 20
290
 11
492.952
 21
294.85
  0
LINE
  8
0
 10
492.952
 20
294.85
 11
482.952
 21
294.85
  0
LINE
  8
0
 10
482.952
 20
294.85
 11
482.952
 21
290
  0
LINE
  8
0
 10
482.952
 20
290
 11
472.952
 21
290
  0
LINE
  8
0
 10
472.952
 20
290
 11
472.952
 21
294.85
  0
LINE
  8
0
 10
472.952
 20
294.85
 11
462.952
 21
294.85
  0
LINE
  8
0
 10
462.952
 20
294.85
 11
462.952
 21
290
  0
LINE
  8
0
 10
462.952
 20
290
 11
452.952
 21
290
  0
LINE
  8
0
 10
452.952
 20
290
 11
452.952
 21
294.85
  0
LINE
  8
0
 10
452.952
 20
294.85
 11
442.952
 21
294.85
  0
LINE
  8
0
 10
442.952
 20
294.85
 11
442.952
 21
290
  0
LINE
  8
0
 10
442.952
 20
290
 11
432.952
 21
290
  0
LINE
  8
0
 10
432.952
 20
290
 11
432.952
 21
294.85
  0
LINE
  8
0
 10
432.952
 20
294.85
 11
422.952
 21
294.85
  0
LINE
  8
0
 10
422.952
 20
294.85
 11
422.952
 21
290
  0
LINE
  8
0
 10
422.952
 20
290
 11
412.952
 21
290
  0
LINE
  8
0
 10
412.952
 20
290
 11
412.952
 21
294.85
  0
LINE
  8
0
 10
412.952
 20
294.85
 11
402.952
 21
294.85
  0
LINE
  8
0
 10
402.952
 20
294.85
 11
402.952
 21
290
  0
LINE
  8
0
 10
402.952
 20
290
 11
392.952
 21
290
  0
LINE
  8
0
 10
392.952
 20
290
 11
392.952
 21
294.85
  0
LINE
  8
0
 10
392.952
 20
294.85
 11
382.952
 21
294.85
  0
LINE
  8
0
 10
382.952
 20
294.85
 11
382.952
 21
290
  0
LINE
  8
0
 10
382.952
 20
290
 11
372.952
 21
290
  0
LINE
  8
0
 10
372.952
 20
290
 11
372.952
 21
294.85
  0
LINE
  8
0
 10
372.952
 20
294.85
 11
362.952
 21
294.85
  0
LINE
  8
0
 10
362.952
 20
294.85
 11
362.952
 21
290
  0
LINE
  8
0
 10
362.952
 20
290
 11
352.952
 21
290
  0
LINE
  8
0
 10
352.952
 20
290
 11
352.952
 21
294.85
  0
LINE
  8
0
 10
352.952
 20
294.85
 11
342.952
 21
294.85
  0
LINE
  8
0
 10
342.952
 20
294.85
 11
342.952
 21
290
  0
LINE
  8
0
 10
342.952
 20
290
 11
332.952
 21
290
  0
LINE
  8
0
 10
332.952
 20
290
 11
332.952
 21
294.85
  0
LINE
  8
0
 10
332.952
 20
294.85
 11
322.952
 21
294.85
  0
LINE
  8
0
 10
322.952
 20
294.85
 11
322.952
 21
290
  0
LINE
  8
0
 10
322.952
 20
290
 11
288.403
 21
290
  0
LINE
  8
0
 10
288.403
 20
290
 11
288.403
 21
294.85
  0
LINE
  8
0
 10
288.403
 20
294.85
 11
278.403
 21
294.85
  0
LINE
  8
0
 10
278.403
 20
294.85
 11
278.403
 21
290
  0
LINE
  8
0
 10
278.403
 20
290
 11
268.403
 21
290
  0
LINE
  8
0
 10
268.403
 20
290
 11
268.403
 21
294.85
  0
LINE
  8
0
 10
268.403
 20
294.85
 11
258.403
 21
294.85
  0
LINE
  8
0
 10
258.403
 20
294.85
 11
258.403
 21
290
  0
LINE
  8
0
 10
258.403
 20
290
 11
248.403
 21
290
  0
LINE
  8
0
 10
248.403
 20
290
 11
248.403
 21
294.85
  0
LINE
  8
0
 10
248.403
 20
294.85
 11
238.403
 21
294.85
  0
LINE
  8
0
 10
238.403
 20
294.85
 11
238.403
 21
290
  0
LINE
  8
0
 10
238.403
 20
290
 11
235.903
 21
290
  0
LINE
  8
0
 10
235.903
 20
290
 11
235.903
 21
250
  0
LINE
  8
0
 10
235.903
 20
250
 11
238.403
 21
250
  0
LINE
  8
0
 10
238.403
 20
250
 11
238.403
 21
245.15
  0
LINE
  8
0
 10
238.403
 20
245.15
 11
248.403
 21
245.15
  0
LINE
  8
0
 10
248.403
 20
245.15
 11
248.403
 21
250
  0
LINE
  8
0
 10
907.4
 20
65.5573
 11
909.8
 21
65.4
  0
LINE
  8
0
 10
909.8
 20
65.4
 11
913.037
 21
65.6122
  0
LINE
  8
0
 10
913.037
 20
65.6122
 11
916.219
 21
66.245
  0
LINE
  8
0
 10
916.219
 20
66.245
 11
919.291
 21
67.2878
  0
LINE
  8
0
 10
919.291
 20
67.2878
 11
922.2
 21
68.7226
  0
LINE
  8
0
 10
922.2
 20
68.7226
 11
924.897
 21
70.5248
  0
LINE
  8
0
 10
924.897
 20
70.5248
 11
927.336
 21
72.6637
  0
LINE
  8
0
 10
927.336
 20
72.6637
 11
929.475
 21
75.1027
  0
LINE
  8
0
 10
929.475
 20
75.1027
 11
931.277
 21
77.8
  0
LINE
  8
0
 10
931.277
 20
77.8
 11
932.712
 21
80.7094
  0
LINE
  8
0
 10
932.712
 20
80.7094
 11
933.755
 21
83.7813
  0
LINE
  8
0
 10
933.755
 20
83.7813
 11
934.388
 21
86.963
  0
LINE
  8
0
 10
934.388
 20
86.963
 11
934.6
 21
90.2
  0
LINE
  8
0
 10
934.6
 20
90.2
 11
934.443
 21
92.6
  0
LINE
  8
0
 10
934.443
 20
92.6
 11
934.6
 21
92.6
  0
LINE
  8
0
 10
934.6
 20
92.6
 11
934.6
 21
207.4
  0
LINE
  8
0
 10
934.6
 20
207.4
 11
934.443
 21
207.4
  0
LINE
  8
0
 10
934.443
 20
207.4
 11
934.6
 21
209.8
  0
LINE
  8
0
 10
934.6
 20
209.8
 11
934.388
 21
213.037
  0
LINE
  8
0
 10
934.388
 20
213.037
 11
933.755
 21
216.219
  0
LINE
  8
0
 10
933.755
 20
216.219
 11
932.712
 21
219.291
  0
LINE
  8
0
 10
932.712
 20
219.291
 11
931.277
 21
222.2
  0
LINE
  8
0
 10
931.277
 20
222.2
 11
929.475
 21
224.897
  0
LINE
  8
0
 10
929.475
 20
224.897
 11
927.336
 21
227.336
  0
LINE
  8
0
 10
927.336
 20
227.336
 11
924.897
 21
229.475
  0
LINE
  8
0
 10
924.897
 20
229.475
 11
922.2
 21
231.277
  0
LINE
  8
0
 10
922.2
 20
231.277
 11
919.291
 21
232.712
  0
LINE
  8
0
 10
919.291
 20
232.712
 11
916.219
 21
233.755
  0
LINE
  8
0
 10
916.219
 20
233.755
 11
913.037
 21
234.388
  0
LINE
  8
0
 10
913.037
 20
234.388
 11
909.8
 21
234.6
  0
LINE
  8
0
 10
909.8
 20
234.6
 11
907.4
 21
234.443
  0
LINE
  8
0
 10
907.4
 20
234.443
 11
907.4
 21
234.6
  0
LINE
  8
0
 10
907.4
 20
234.6
 11
572.6
 21
234.6
  0
LINE
  8
0
 10
572.6
 20
234.6
 11
572.6
 21
234.443
  0
LINE
  8
0
 10
572.6
 20
234.443
 11
570.2
 21
234.6
  0
LINE
  8
0
 10
570.2
 20
234.6
 11
566.963
 21
234.388
  0
LINE
  8
0
 10
566.963
 20
234.388
 11
563.781
 21
233.755
  0
LINE
  8
0
 10
563.781
 20
233.755
 11
560.709
 21
232.712
  0
LINE
  8
0
 10
560.709
 20
232.712
 11
557.8
 21
231.277
  0
LINE
  8
0
 10
557.8
 20
231.277
 11
555.103
 21
229.475
  0
LINE
  8
0
 10
555.103
 20
229.475
 11
552.664
 21
227.336
  0
LINE
  8
0
 10
552.664
 20
227.336
 11
550.525
 21
224.897
  0
LINE
  8
0
 10
550.525
 20
224.897
 11
548.723
 21
222.2
  0
LINE
  8
0
 10
548.723
 20
222.2
 11
547.288
 21
219.291
  0
LINE
  8
0
 10
547.288
 20
219.291
 11
546.245
 21
216.219
  0
LINE
  8
0
 10
546.245
 20
216.219
 11
545.612
 21
213.037
  0
LINE
  8
0
 10
545.612
 20
213.037
 11
545.4
 21
209.8
  0
LINE
  8
0
 10
545.4
 20
209.8
 11
545.557
 21
207.4
  0
LINE
  8
0
 10
545.557
 20
207.4
 11
545.4
 21
207.4
  0
LINE
  8
0
 10
545.4
 20
207.4
 11
545.4
 21
92.6
  0
LINE
  8
0
 10
545.4
 20
92.6
 11
545.557
 21
92.6
  0
LINE
  8
0
 10
545.557
 20
92.6
 11
545.4
 21
90.2
  0
LINE
  8
0
 10
545.4
 20
90.2
 11
545.612
 21
86.963
  0
LINE
  8
0
 10
545.612
 20
86.963
 11
546.245
 21
83.7813
  0
LINE
  8
0
 10
546.245
 20
83.7813
 11
547.288
 21
80.7094
  0
LINE
  8
0
 10
547.288
 20
80.7094
 11
548.723
 21
77.8
  0
LINE
  8
0
 10
548.723
 20
77.8
 11
550.525
 21
75.1027
  0
LINE
  8
0
 10
550.525
 20
75.1027
 11
552.664
 21
72.6637
  0
LINE
  8
0
 10
552.664
 20
72.6637
 11
555.103
 21
70.5248
  0
LINE
  8
0
 10
555.103
 20
70.5248
 11
557.8
 21
68.7226
  0
LINE
  8
0
 10
557.8
 20
68.7226
 11
560.709
 21
67.2878
  0
LINE
  8
0
 10
560.709
 20
67.2878
 11
563.781
 21
66.245
  0
LINE
  8
0
 10
563.781
 20
66.245
 11
566.963
 21
65.6122
  0
LINE
  8
0
 10
566.963
 20
65.6122
 11
570.2
 21
65.4
  0
LINE
  8
0
 10
570.2
 20
65.4
 11
572.6
 21
65.5573
  0
LINE
  8
0
 10
572.6
 20
65.5573
 11
572.6
 21
65.4
  0
LINE
  8
0
 10
572.6
 20
65.4
 11
907.4
 21
65.4
  0
LINE
  8
0
 10
907.4
 20
65.4
 11
907.4
 21
65.5573
  0
LINE
  8
0
 10
595
 20
225
 11
595
 21
229.9
  0
LINE
  8
0
 10
595
 20
229.9
 11
605
 21
229.9
  0
LINE
  8
0
 10
605
 20
229.9
 11
605
 21
225
  0
LINE
  8
0
 10
605
 20
225
 11
595
 21
225
  0
LINE
  8
0
 10
675
 20
225
 11
675
 21
229.9
  0
LINE
  8
0
 10
675
 20
229.9
 11
685
 21
229.9
  0
LINE
  8
0
 10
685
 20
229.9
 11
685
 21
225
  0
LINE
  8
0
 10
685
 20
225
 11
675
 21
225
  0
LINE
  8
0
 10
615
 20
225
 11
615
 21
229.9
  0
LINE
  8
0
 10
615
 20
229.9
 11
625
 21
229.9
  0
LINE
  8
0
 10
625
 20
229.9
 11
625
 21
225
  0
LINE
  8
0
 10
625
 20
225
 11
615
 21
225
  0
LINE
  8
0
 10
635
 20
225
 11
635
 21
229.9
  0
LINE
  8
0
 10
635
 20
229.9
 11
645
 21
229.9
  0
LINE
  8
0
 10
645
 20
229.9
 11
645
 21
225
  0
LINE
  8
0
 10
645
 20
225
 11
635
 21
225
  0
LINE
  8
0
 10
735
 20
225
 11
735
 21
229.9
  0
LINE
  8
0
 10
735
 20
229.9
 11
745
 21
229.9
  0
LINE
  8
0
 10
745
 20
229.9
 11
745
 21
225
  0
LINE
  8
0
 10
745
 20
225
 11
735
 21
225
  0
LINE
  8
0
 10
755
 20
225
 11
755
 21
229.9
  0
LINE
  8
0
 10
755
 20
229.9
 11
765
 21
229.9
  0
LINE
  8
0
 10
765
 20
229.9
 11
765
 21
225
  0
LINE
  8
0
 10
765
 20
225
 11
755
 21
225
  0
LINE
  8
0
 10
715
 20
225
 11
715
 21
229.9
  0
LINE
  8
0
 10
715
 20
229.9
 11
725
 21
229.9
  0
LINE
  8
0
 10
725
 20
229.9
 11
725
 21
225
  0
LINE
  8
0
 10
725
 20
225
 11
715
 21
225
  0
LINE
  8
0
 10
855
 20
225
 11
855
 21
229.9
  0
LINE
  8
0
 10
855
 20
229.9
 11
865
 21
229.9
  0
LINE
  8
0
 10
865
 20
229.9
 11
865
 21
225
  0
LINE
  8
0
 10
865
 20
225
 11
855
 21
225
  0
LINE
  8
0
 10
795
 20
225
 11
795
 21
229.9
  0
LINE
  8
0
 10
795
 20
229.9
 11
805
 21
229.9
  0
LINE
  8
0
 10
805
 20
229.9
 11
805
 21
225
  0
LINE
  8
0
 10
805
 20
225
 11
795
 21
225
  0
LINE
  8
0
 10
815
 20
225
 11
815
 21
229.9
  0
LINE
  8
0
 10
815
 20
229.9
 11
825
 21
229.9
  0
LINE
  8
0
 10
825
 20
229.9
 11
825
 21
225
  0
LINE
  8
0
 10
825
 20
225
 11
815
 21
225
  0
LINE
  8
0
 10
775
 20
225
 11
775
 21
229.9
  0
LINE
  8
0
 10
775
 20
229.9
 11
785
 21
229.9
  0
LINE
  8
0
 10
785
 20
229.9
 11
785
 21
225
  0
LINE
  8
0
 10
785
 20
225
 11
775
 21
225
  0
LINE
  8
0
 10
835
 20
225
 11
835
 21
229.9
  0
LINE
  8
0
 10
835
 20
229.9
 11
845
 21
229.9
  0
LINE
  8
0
 10
845
 20
229.9
 11
845
 21
225
  0
LINE
  8
0
 10
845
 20
225
 11
835
 21
225
  0
LINE
  8
0
 10
655
 20
225
 11
655
 21
229.9
  0
LINE
  8
0
 10
655
 20
229.9
 11
665
 21
229.9
  0
LINE
  8
0
 10
665
 20
229.9
 11
665
 21
225
  0
LINE
  8
0
 10
665
 20
225
 11
655
 21
225
  0
LINE
  8
0
 10
575
 20
225
 11
575
 21
229.9
  0
LINE
  8
0
 10
575
 20
229.9
 11
585
 21
229.9
  0
LINE
  8
0
 10
585
 20
229.9
 11
585
 21
225
  0
LINE
  8
0
 10
585
 20
225
 11
575
 21
225
  0
LINE
  8
0
 10
875
 20
225
 11
875
 21
229.9
  0
LINE
  8
0
 10
875
 20
229.9
 11
885
 21
229.9
  0
LINE
  8
0
 10
885
 20
229.9
 11
885
 21
225
  0
LINE
  8
0
 10
885
 20
225
 11
875
 21
225
  0
LINE
  8
0
 10
895
 20
225
 11
895
 21
229.9
  0
LINE
  8
0
 10
895
 20
229.9
 11
905
 21
229.9
  0
LINE
  8
0
 10
905
 20
229.9
 11
905
 21
225
  0
LINE
  8
0
 10
905
 20
225
 11
895
 21
225
  0
LINE
  8
0
 10
695
 20
225
 11
695
 21
229.9
  0
LINE
  8
0
 10
695
 20
229.9
 11
705
 21
229.9
  0
LINE
  8
0
 10
705
 20
229.9
 11
705
 21
225
  0
LINE
  8
0
 10
705
 20
225
 11
695
 21
225
  0
LINE
  8
0
 10
925
 20
195
 11
925
 21
205
  0
LINE
  8
0
 10
925
 20
205
 11
929.9
 21
205
  0
LINE
  8
0
 10
929.9
 20
205
 11
929.9
 21
195
  0
LINE
  8
0
 10
929.9
 20
195
 11
925
 21
195
  0
LINE
  8
0
 10
550.1
 20
192.5
 11
550.1
 21
202.5
  0
LINE
  8
0
 10
550.1
 20
202.5
 11
555
 21
202.5
  0
LINE
  8
0
 10
555
 20
202.5
 11
555
 21
192.5
  0
LINE
  8
0
 10
555
 20
192.5
 11
550.1
 21
192.5
  0
LINE
  8
0
 10
925
 20
175
 11
925
 21
185
  0
LINE
  8
0
 10
925
 20
185
 11
929.9
 21
185
  0
LINE
  8
0
 10
929.9
 20
185
 11
929.9
 21
175
  0
LINE
  8
0
 10
929.9
 20
175
 11
925
 21
175
  0
LINE
  8
0
 10
550.1
 20
172.5
 11
550.1
 21
182.5
  0
LINE
  8
0
 10
550.1
 20
182.5
 11
555
 21
182.5
  0
LINE
  8
0
 10
555
 20
182.5
 11
555
 21
172.5
  0
LINE
  8
0
 10
555
 20
172.5
 11
550.1
 21
172.5
  0
LINE
  8
0
 10
925
 20
155
 11
925
 21
165
  0
LINE
  8
0
 10
925
 20
165
 11
929.9
 21
165
  0
LINE
  8
0
 10
929.9
 20
165
 11
929.9
 21
155
  0
LINE
  8
0
 10
929.9
 20
155
 11
925
 21
155
  0
LINE
  8
0
 10
550.1
 20
152.5
 11
550.1
 21
162.5
  0
LINE
  8
0
 10
550.1
 20
162.5
 11
555
 21
162.5
  0
LINE
  8
0
 10
555
 20
162.5
 11
555
 21
152.5
  0
LINE
  8
0
 10
555
 20
152.5
 11
550.1
 21
152.5
  0
LINE
  8
0
 10
550.1
 20
137.5
 11
550.1
 21
147.5
  0
LINE
  8
0
 10
550.1
 20
147.5
 11
555
 21
147.5
  0
LINE
  8
0
 10
555
 20
147.5
 11
555
 21
137.5
  0
LINE
  8
0
 10
555
 20
137.5
 11
550.1
 21
137.5
  0
LINE
  8
0
 10
925
 20
135
 11
925
 21
145
  0
LINE
  8
0
 10
925
 20
145
 11
929.9
 21
145
  0
LINE
  8
0
 10
929.9
 20
145
 11
929.9
 21
135
  0
LINE
  8
0
 10
929.9
 20
135
 11
925
 21
135
  0
LINE
  8
0
 10
550.1
 20
117.5
 11
550.1
 21
127.5
  0
LINE
  8
0
 10
550.1
 20
127.5
 11
555
 21
127.5
  0
LINE
  8
0
 10
555
 20
127.5
 11
555
 21
117.5
  0
LINE
  8
0
 10
555
 20
117.5
 11
550.1
 21
117.5
  0
LINE
  8
0
 10
925
 20
115
 11
925
 21
125
  0
LINE
  8
0
 10
925
 20
125
 11
929.9
 21
125
  0
LINE
  8
0
 10
929.9
 20
125
 11
929.9
 21
115
  0
LINE
  8
0
 10
929.9
 20
115
 11
925
 21
115
  0
LINE
  8
0
 10
550.1
 20
97.5
 11
550.1
 21
107.5
  0
LINE
  8
0
 10
550.1
 20
107.5
 11
555
 21
107.5
  0
LINE
  8
0
 10
555
 20
107.5
 11
555
 21
97.5
  0
LINE
  8
0
 10
555
 20
97.5
 11
550.1
 21
97.5
  0
LINE
  8
0
 10
925
 20
95
 11
925
 21
105
  0
LINE
  8
0
 10
925
 20
105
 11
929.9
 21
105
  0
LINE
  8
0
 10
929.9
 20
105
 11
929.9
 21
95
  0
LINE
  8
0
 10
929.9
 20
95
 11
925
 21
95
  0
LINE
  8
0
 10
695
 20
70.1
 11
695
 21
75
  0
LINE
  8
0
 10
695
 20
75
 11
705
 21
75
  0
LINE
  8
0
 10
705
 20
75
 11
705
 21
70.1
  0
LINE
  8
0
 10
705
 20
70.1
 11
695
 21
70.1
  0
LINE
  8
0
 10
715
 20
70.1
 11
715
 21
75
  0
LINE
  8
0
 10
715
 20
75
 11
725
 21
75
  0
LINE
  8
0
 10
725
 20
75
 11
725
 21
70.1
  0
LINE
  8
0
 10
725
 20
70.1
 11
715
 21
70.1
  0
LINE
  8
0
 10
735
 20
70.1
 11
735
 21
75
  0
LINE
  8
0
 10
735
 20
75
 11
745
 21
75
  0
LINE
  8
0
 10
745
 20
75
 11
745
 21
70.1
  0
LINE
  8
0
 10
745
 20
70.1
 11
735
 21
70.1
  0
LINE
  8
0
 10
855
 20
70.1
 11
855
 21
75
  0
LINE
  8
0
 10
855
 20
75
 11
865
 21
75
  0
LINE
  8
0
 10
865
 20
75
 11
865
 21
70.1
  0
LINE
  8
0
 10
865
 20
70.1
 11
855
 21
70.1
  0
LINE
  8
0
 10
755
 20
70.1
 11
755
 21
75
  0
LINE
  8
0
 10
755
 20
75
 11
765
 21
75
  0
LINE
  8
0
 10
765
 20
75
 11
765
 21
70.1
  0
LINE
  8
0
 10
765
 20
70.1
 11
755
 21
70.1
  0
LINE
  8
0
 10
875
 20
70.1
 11
875
 21
75
  0
LINE
  8
0
 10
875
 20
75
 11
885
 21
75
  0
LINE
  8
0
 10
885
 20
75
 11
885
 21
70.1
  0
LINE
  8
0
 10
885
 20
70.1
 11
875
 21
70.1
  0
LINE
  8
0
 10
795
 20
70.1
 11
795
 21
75
  0
LINE
  8
0
 10
795
 20
75
 11
805
 21
75
  0
LINE
  8
0
 10
805
 20
75
 11
805
 21
70.1
  0
LINE
  8
0
 10
805
 20
70.1
 11
795
 21
70.1
  0
LINE
  8
0
 10
815
 20
70.1
 11
815
 21
75
  0
LINE
  8
0
 10
815
 20
75
 11
825
 21
75
  0
LINE
  8
0
 10
825
 20
75
 11
825
 21
70.1
  0
LINE
  8
0
 10
825
 20
70.1
 11
815
 21
70.1
  0
LINE
  8
0
 10
835
 20
70.1
 11
835
 21
75
  0
LINE
  8
0
 10
835
 20
75
 11
845
 21
75
  0
LINE
  8
0
 10
845
 20
75
 11
845
 21
70.1
  0
LINE
  8
0
 10
845
 20
70.1
 11
835
 21
70.1
  0
LINE
  8
0
 10
595
 20
70.1
 11
595
 21
75
  0
LINE
  8
0
 10
595
 20
75
 11
605
 21
75
  0
LINE
  8
0
 10
605
 20
75
 11
605
 21
70.1
  0
LINE
  8
0
 10
605
 20
70.1
 11
595
 21
70.1
  0
LINE
  8
0
 10
895
 20
70.1
 11
895
 21
75
  0
LINE
  8
0
 10
895
 20
75
 11
905
 21
75
  0
LINE
  8
0
 10
905
 20
75
 11
905
 21
70.1
  0
LINE
  8
0
 10
905
 20
70.1
 11
895
 21
70.1
  0
LINE
  8
0
 10
615
 20
70.1
 11
615
 21
75
  0
LINE
  8
0
 10
615
 20
75
 11
625
 21
75
  0
LINE
  8
0
 10
625
 20
75
 11
625
 21
70.1
  0
LINE
  8
0
 10
625
 20
70.1
 11
615
 21
70.1
  0
LINE
  8
0
 10
635
 20
70.1
 11
635
 21
75
  0
LINE
  8
0
 10
635
 20
75
 11
645
 21
75
  0
LINE
  8
0
 10
645
 20
75
 11
645
 21
70.1
  0
LINE
  8
0
 10
645
 20
70.1
 11
635
 21
70.1
  0
LINE
  8
0
 10
655
 20
70.1
 11
655
 21
75
  0
LINE
  8
0
 10
655
 20
75
 11
665
 21
75
  0
LINE
  8
0
 10
665
 20
75
 11
665
 21
70.1
  0
LINE
  8
0
 10
665
 20
70.1
 11
655
 21
70.1
  0
LINE
  8
0
 10
675
 20
70.1
 11
675
 21
75
  0
LINE
  8
0
 10
675
 20
75
 11
685
 21
75
  0
LINE
  8
0
 10
685
 20
75
 11
685
 21
70.1
  0
LINE
  8
0
 10
685
 20
70.1
 11
675
 21
70.1
  0
LINE
  8
0
 10
775
 20
70.1
 11
775
 21
75
  0
LINE
  8
0
 10
775
 20
75
 11
785
 21
75
  0
LINE
  8
0
 10
785
 20
75
 11
785
 21
70.1
  0
LINE
  8
0
 10
785
 20
70.1
 11
775
 21
70.1
  0
LINE
  8
0
 10
575
 20
70.1
 11
575
 21
75
  0
LINE
  8
0
 10
575
 20
75
 11
585
 21
75
  0
LINE
  8
0
 10
585
 20
75
 11
585
 21
70.1
  0
LINE
  8
0
 10
585
 20
70.1
 11
575
 21
70.1
  0
LINE
  8
0
 10
1297.4
 20
65.5573
 11
1299.8
 21
65.4
  0
LINE
  8
0
 10
1299.8
 20
65.4
 11
1303.04
 21
65.6122
  0
LINE
  8
0
 10
1303.04
 20
65.6122
 11
1306.22
 21
66.245
  0
LINE
  8
0
 10
1306.22
 20
66.245
 11
1309.29
 21
67.2878
  0
LINE
  8
0
 10
1309.29
 20
67.2878
 11
1312.2
 21
68.7226
  0
LINE
  8
0
 10
1312.2
 20
68.7226
 11
1314.9
 21
70.5248
  0
LINE
  8
0
 10
1314.9
 20
70.5248
 11
1317.34
 21
72.6637
  0
LINE
  8
0
 10
1317.34
 20
72.6637
 11
1319.48
 21
75.1027
  0
LINE
  8
0
 10
1319.48
 20
75.1027
 11
1321.28
 21
77.8
  0
LINE
  8
0
 10
1321.28
 20
77.8
 11
1322.71
 21
80.7094
  0
LINE
  8
0
 10
1322.71
 20
80.7094
 11
1323.76
 21
83.7813
  0
LINE
  8
0
 10
1323.76
 20
83.7813
 11
1324.39
 21
86.963
  0
LINE
  8
0
 10
1324.39
 20
86.963
 11
1324.6
 21
90.2
  0
LINE
  8
0
 10
1324.6
 20
90.2
 11
1324.44
 21
92.6
  0
LINE
  8
0
 10
1324.44
 20
92.6
 11
1324.6
 21
92.6
  0
LINE
  8
0
 10
1324.6
 20
92.6
 11
1324.6
 21
207.4
  0
LINE
  8
0
 10
1324.6
 20
207.4
 11
1324.44
 21
207.4
  0
LINE
  8
0
 10
1324.44
 20
207.4
 11
1324.6
 21
209.8
  0
LINE
  8
0
 10
1324.6
 20
209.8
 11
1324.39
 21
213.037
  0
LINE
  8
0
 10
1324.39
 20
213.037
 11
1323.76
 21
216.219
  0
LINE
  8
0
 10
1323.76
 20
216.219
 11
1322.71
 21
219.291
  0
LINE
  8
0
 10
1322.71
 20
219.291
 11
1321.28
 21
222.2
  0
LINE
  8
0
 10
1321.28
 20
222.2
 11
1319.48
 21
224.897
  0
LINE
  8
0
 10
1319.48
 20
224.897
 11
1317.34
 21
227.336
  0
LINE
  8
0
 10
1317.34
 20
227.336
 11
1314.9
 21
229.475
  0
LINE
  8
0
 10
1314.9
 20
229.475
 11
1312.2
 21
231.277
  0
LINE
  8
0
 10
1312.2
 20
231.277
 11
1309.29
 21
232.712
  0
LINE
  8
0
 10
1309.29
 20
232.712
 11
1306.22
 21
233.755
  0
LINE
  8
0
 10
1306.22
 20
233.755
 11
1303.04
 21
234.388
  0
LINE
  8
0
 10
1303.04
 20
234.388
 11
1299.8
 21
234.6
  0
LINE
  8
0
 10
1299.8
 20
234.6
 11
1297.4
 21
234.443
  0
LINE
  8
0
 10
1297.4
 20
234.443
 11
1297.4
 21
234.6
  0
LINE
  8
0
 10
1297.4
 20
234.6
 11
962.6
 21
234.6
  0
LINE
  8
0
 10
962.6
 20
234.6
 11
962.6
 21
234.443
  0
LINE
  8
0
 10
962.6
 20
234.443
 11
960.2
 21
234.6
  0
LINE
  8
0
 10
960.2
 20
234.6
 11
956.963
 21
234.388
  0
LINE
  8
0
 10
956.963
 20
234.388
 11
953.781
 21
233.755
  0
LINE
  8
0
 10
953.781
 20
233.755
 11
950.709
 21
232.712
  0
LINE
  8
0
 10
950.709
 20
232.712
 11
947.8
 21
231.277
  0
LINE
  8
0
 10
947.8
 20
231.277
 11
945.103
 21
229.475
  0
LINE
  8
0
 10
945.103
 20
229.475
 11
942.664
 21
227.336
  0
LINE
  8
0
 10
942.664
 20
227.336
 11
940.525
 21
224.897
  0
LINE
  8
0
 10
940.525
 20
224.897
 11
938.723
 21
222.2
  0
LINE
  8
0
 10
938.723
 20
222.2
 11
937.288
 21
219.291
  0
LINE
  8
0
 10
937.288
 20
219.291
 11
936.245
 21
216.219
  0
LINE
  8
0
 10
936.245
 20
216.219
 11
935.612
 21
213.037
  0
LINE
  8
0
 10
935.612
 20
213.037
 11
935.4
 21
209.8
  0
LINE
  8
0
 10
935.4
 20
209.8
 11
935.557
 21
207.4
  0
LINE
  8
0
 10
935.557
 20
207.4
 11
935.4
 21
207.4
  0
LINE
  8
0
 10
935.4
 20
207.4
 11
935.4
 21
92.6
  0
LINE
  8
0
 10
935.4
 20
92.6
 11
935.557
 21
92.6
  0
LINE
  8
0
 10
935.557
 20
92.6
 11
935.4
 21
90.2
  0
LINE
  8
0
 10
935.4
 20
90.2
 11
935.612
 21
86.963
  0
LINE
  8
0
 10
935.612
 20
86.963
 11
936.245
 21
83.7813
  0
LINE
  8
0
 10
936.245
 20
83.7813
 11
937.288
 21
80.7094
  0
LINE
  8
0
 10
937.288
 20
80.7094
 11
938.723
 21
77.8
  0
LINE
  8
0
 10
938.723
 20
77.8
 11
940.525
 21
75.1027
  0
LINE
  8
0
 10
940.525
 20
75.1027
 11
942.664
 21
72.6637
  0
LINE
  8
0
 10
942.664
 20
72.6637
 11
945.103
 21
70.5248
  0
LINE
  8
0
 10
945.103
 20
70.5248
 11
947.8
 21
68.7226
  0
LINE
  8
0
 10
947.8
 20
68.7226
 11
950.709
 21
67.2878
  0
LINE
  8
0
 10
950.709
 20
67.2878
 11
953.781
 21
66.245
  0
LINE
  8
0
 10
953.781
 20
66.245
 11
956.963
 21
65.6122
  0
LINE
  8
0
 10
956.963
 20
65.6122
 11
960.2
 21
65.4
  0
LINE
  8
0
 10
960.2
 20
65.4
 11
962.6
 21
65.5573
  0
LINE
  8
0
 10
962.6
 20
65.5573
 11
962.6
 21
65.4
  0
LINE
  8
0
 10
962.6
 20
65.4
 11
1297.4
 21
65.4
  0
LINE
  8
0
 10
1297.4
 20
65.4
 11
1297.4
 21
65.5573
  0
LINE
  8
0
 10
1025
 20
225
 11
1025
 21
229.9
  0
LINE
  8
0
 10
1025
 20
229.9
 11
1035
 21
229.9
  0
LINE
  8
0
 10
1035
 20
229.9
 11
1035
 21
225
  0
LINE
  8
0
 10
1035
 20
225
 11
1025
 21
225
  0
LINE
  8
0
 10
1245
 20
225
 11
1245
 21
229.9
  0
LINE
  8
0
 10
1245
 20
229.9
 11
1255
 21
229.9
  0
LINE
  8
0
 10
1255
 20
229.9
 11
1255
 21
225
  0
LINE
  8
0
 10
1255
 20
225
 11
1245
 21
225
  0
LINE
  8
0
 10
1125
 20
225
 11
1125
 21
229.9
  0
LINE
  8
0
 10
1125
 20
229.9
 11
1135
 21
229.9
  0
LINE
  8
0
 10
1135
 20
229.9
 11
1135
 21
225
  0
LINE
  8
0
 10
1135
 20
225
 11
1125
 21
225
  0
LINE
  8
0
 10
1005
 20
225
 11
1005
 21
229.9
  0
LINE
  8
0
 10
1005
 20
229.9
 11
1015
 21
229.9
  0
LINE
  8
0
 10
1015
 20
229.9
 11
1015
 21
225
  0
LINE
  8
0
 10
1015
 20
225
 11
1005
 21
225
  0
LINE
  8
0
 10
1285
 20
225
 11
1285
 21
229.9
  0
LINE
  8
0
 10
1285
 20
229.9
 11
1295
 21
229.9
  0
LINE
  8
0
 10
1295
 20
229.9
 11
1295
 21
225
  0
LINE
  8
0
 10
1295
 20
225
 11
1285
 21
225
  0
LINE
  8
0
 10
1225
 20
225
 11
1225
 21
229.9
  0
LINE
  8
0
 10
1225
 20
229.9
 11
1235
 21
229.9
  0
LINE
  8
0
 10
1235
 20
229.9
 11
1235
 21
225
  0
LINE
  8
0
 10
1235
 20
225
 11
1225
 21
225
  0
LINE
  8
0
 10
1205
 20
225
 11
1205
 21
229.9
  0
LINE
  8
0
 10
1205
 20
229.9
 11
1215
 21
229.9
  0
LINE
  8
0
 10
1215
 20
229.9
 11
1215
 21
225
  0
LINE
  8
0
 10
1215
 20
225
 11
1205
 21
225
  0
LINE
  8
0
 10
1185
 20
225
 11
1185
 21
229.9
  0
LINE
  8
0
 10
1185
 20
229.9
 11
1195
 21
229.9
  0
LINE
  8
0
 10
1195
 20
229.9
 11
1195
 21
225
  0
LINE
  8
0
 10
1195
 20
225
 11
1185
 21
225
  0
LINE
  8
0
 10
1165
 20
225
 11
1165
 21
229.9
  0
LINE
  8
0
 10
1165
 20
229.9
 11
1175
 21
229.9
  0
LINE
  8
0
 10
1175
 20
229.9
 11
1175
 21
225
  0
LINE
  8
0
 10
1175
 20
225
 11
1165
 21
225
  0
LINE
  8
0
 10
1145
 20
225
 11
1145
 21
229.9
  0
LINE
  8
0
 10
1145
 20
229.9
 11
1155
 21
229.9
  0
LINE
  8
0
 10
1155
 20
229.9
 11
1155
 21
225
  0
LINE
  8
0
 10
1155
 20
225
 11
1145
 21
225
  0
LINE
  8
0
 10
1105
 20
225
 11
1105
 21
229.9
  0
LINE
  8
0
 10
1105
 20
229.9
 11
1115
 21
229.9
  0
LINE
  8
0
 10
1115
 20
229.9
 11
1115
 21
225
  0
LINE
  8
0
 10
1115
 20
225
 11
1105
 21
225
  0
LINE
  8
0
 10
1085
 20
225
 11
1085
 21
229.9
  0
LINE
  8
0
 10
1085
 20
229.9
 11
1095
 21
229.9
  0
LINE
  8
0
 10
1095
 20
229.9
 11
1095
 21
225
  0
LINE
  8
0
 10
1095
 20
225
 11
1085
 21
225
  0
LINE
  8
0
 10
1065
 20
225
 11
1065
 21
229.9
  0
LINE
  8
0
 10
1065
 20
229.9
 11
1075
 21
229.9
  0
LINE
  8
0
 10
1075
 20
229.9
 11
1075
 21
225
  0
LINE
  8
0
 10
1075
 20
225
 11
1065
 21
225
  0
LINE
  8
0
 10
1045
 20
225
 11
1045
 21
229.9
  0
LINE
  8
0
 10
1045
 20
229.9
 11
1055
 21
229.9
  0
LINE
  8
0
 10
1055
 20
229.9
 11
1055
 21
225
  0
LINE
  8
0
 10
1055
 20
225
 11
1045
 21
225
  0
LINE
  8
0
 10
985
 20
225
 11
985
 21
229.9
  0
LINE
  8
0
 10
985
 20
229.9
 11
995
 21
229.9
  0
LINE
  8
0
 10
995
 20
229.9
 11
995
 21
225
  0
LINE
  8
0
 10
995
 20
225
 11
985
 21
225
  0
LINE
  8
0
 10
965
 20
225
 11
965
 21
229.9
  0
LINE
  8
0
 10
965
 20
229.9
 11
975
 21
229.9
  0
LINE
  8
0
 10
975
 20
229.9
 11
975
 21
225
  0
LINE
  8
0
 10
975
 20
225
 11
965
 21
225
  0
LINE
  8
0
 10
1265
 20
225
 11
1265
 21
229.9
  0
LINE
  8
0
 10
1265
 20
229.9
 11
1275
 21
229.9
  0
LINE
  8
0
 10
1275
 20
229.9
 11
1275
 21
225
  0
LINE
  8
0
 10
1275
 20
225
 11
1265
 21
225
  0
LINE
  8
0
 10
1315
 20
195
 11
1315
 21
205
  0
LINE
  8
0
 10
1315
 20
205
 11
1319.9
 21
205
  0
LINE
  8
0
 10
1319.9
 20
205
 11
1319.9
 21
195
  0
LINE
  8
0
 10
1319.9
 20
195
 11
1315
 21
195
  0
LINE
  8
0
 10
940.1
 20
192.5
 11
940.1
 21
202.5
  0
LINE
  8
0
 10
940.1
 20
202.5
 11
945
 21
202.5
  0
LINE
  8
0
 10
945
 20
202.5
 11
945
 21
192.5
  0
LINE
  8
0
 10
945
 20
192.5
 11
940.1
 21
192.5
  0
LINE
  8
0
 10
1315
 20
175
 11
1315
 21
185
  0
LINE
  8
0
 10
1315
 20
185
 11
1319.9
 21
185
  0
LINE
  8
0
 10
1319.9
 20
185
 11
1319.9
 21
175
  0
LINE
  8
0
 10
1319.9
 20
175
 11
1315
 21
175
  0
LINE
  8
0
 10
940.1
 20
172.5
 11
940.1
 21
182.5
  0
LINE
  8
0
 10
940.1
 20
182.5
 11
945
 21
182.5
  0
LINE
  8
0
 10
945
 20
182.5
 11
945
 21
172.5
  0
LINE
  8
0
 10
945
 20
172.5
 11
940.1
 21
172.5
  0
LINE
  8
0
 10
1315
 20
155
 11
1315
 21
165
  0
LINE
  8
0
 10
1315
 20
165
 11
1319.9
 21
165
  0
LINE
  8
0
 10
1319.9
 20
165
 11
1319.9
 21
155
  0
LINE
  8
0
 10
1319.9
 20
155
 11
1315
 21
155
  0
LINE
  8
0
 10
940.1
 20
152.5
 11
940.1
 21
162.5
  0
LINE
  8
0
 10
940.1
 20
162.5
 11
945
 21
162.5
  0
LINE
  8
0
 10
945
 20
162.5
 11
945
 21
152.5
  0
LINE
  8
0
 10
945
 20
152.5
 11
940.1
 21
152.5
  0
LINE
  8
0
 10
940.1
 20
137.5
 11
940.1
 21
147.5
  0
LINE
  8
0
 10
940.1
 20
147.5
 11
945
 21
147.5
  0
LINE
  8
0
 10
945
 20
147.5
 11
945
 21
137.5
  0
LINE
  8
0
 10
945
 20
137.5
 11
940.1
 21
137.5
  0
LINE
  8
0
 10
1315
 20
135
 11
1315
 21
145
  0
LINE
  8
0
 10
1315
 20
145
 11
1319.9
 21
145
  0
LINE
  8
0
 10
1319.9
 20
145
 11
1319.9
 21
135
  0
LINE
  8
0
 10
1319.9
 20
135
 11
1315
 21
135
  0
LINE
  8
0
 10
940.1
 20
117.5
 11
940.1
 21
127.5
  0
LINE
  8
0
 10
940.1
 20
127.5
 11
945
 21
127.5
  0
LINE
  8
0
 10
945
 20
127.5
 11
945
 21
117.5
  0
LINE
  8
0
 10
945
 20
117.5
 11
940.1
 21
117.5
  0
LINE
  8
0
 10
1315
 20
115
 11
1315
 21
125
  0
LINE
  8
0
 10
1315
 20
125
 11
1319.9
 21
125
  0
LINE
  8
0
 10
1319.9
 20
125
 11
1319.9
 21
115
  0
LINE
  8
0
 10
1319.9
 20
115
 11
1315
 21
115
  0
LINE
  8
0
 10
940.1
 20
97.5
 11
940.1
 21
107.5
  0
LINE
  8
0
 10
940.1
 20
107.5
 11
945
 21
107.5
  0
LINE
  8
0
 10
945
 20
107.5
 11
945
 21
97.5
  0
LINE
  8
0
 10
945
 20
97.5
 11
940.1
 21
97.5
  0
LINE
  8
0
 10
1315
 20
95
 11
1315
 21
105
  0
LINE
  8
0
 10
1315
 20
105
 11
1319.9
 21
105
  0
LINE
  8
0
 10
1319.9
 20
105
 11
1319.9
 21
95
  0
LINE
  8
0
 10
1319.9
 20
95
 11
1315
 21
95
  0
LINE
  8
0
 10
1125
 20
70.1
 11
1125
 21
75
  0
LINE
  8
0
 10
1125
 20
75
 11
1135
 21
75
  0
LINE
  8
0
 10
1135
 20
75
 11
1135
 21
70.1
  0
LINE
  8
0
 10
1135
 20
70.1
 11
1125
 21
70.1
  0
LINE
  8
0
 10
1205
 20
70.1
 11
1205
 21
75
  0
LINE
  8
0
 10
1205
 20
75
 11
1215
 21
75
  0
LINE
  8
0
 10
1215
 20
75
 11
1215
 21
70.1
  0
LINE
  8
0
 10
1215
 20
70.1
 11
1205
 21
70.1
  0
LINE
  8
0
 10
1225
 20
70.1
 11
1225
 21
75
  0
LINE
  8
0
 10
1225
 20
75
 11
1235
 21
75
  0
LINE
  8
0
 10
1235
 20
75
 11
1235
 21
70.1
  0
LINE
  8
0
 10
1235
 20
70.1
 11
1225
 21
70.1
  0
LINE
  8
0
 10
1245
 20
70.1
 11
1245
 21
75
  0
LINE
  8
0
 10
1245
 20
75
 11
1255
 21
75
  0
LINE
  8
0
 10
1255
 20
75
 11
1255
 21
70.1
  0
LINE
  8
0
 10
1255
 20
70.1
 11
1245
 21
70.1
  0
LINE
  8
0
 10
1045
 20
70.1
 11
1045
 21
75
  0
LINE
  8
0
 10
1045
 20
75
 11
1055
 21
75
  0
LINE
  8
0
 10
1055
 20
75
 11
1055
 21
70.1
  0
LINE
  8
0
 10
1055
 20
70.1
 11
1045
 21
70.1
  0
LINE
  8
0
 10
1265
 20
70.1
 11
1265
 21
75
  0
LINE
  8
0
 10
1265
 20
75
 11
1275
 21
75
  0
LINE
  8
0
 10
1275
 20
75
 11
1275
 21
70.1
  0
LINE
  8
0
 10
1275
 20
70.1
 11
1265
 21
70.1
  0
LINE
  8
0
 10
1025
 20
70.1
 11
1025
 21
75
  0
LINE
  8
0
 10
1025
 20
75
 11
1035
 21
75
  0
LINE
  8
0
 10
1035
 20
75
 11
1035
 21
70.1
  0
LINE
  8
0
 10
1035
 20
70.1
 11
1025
 21
70.1
  0
LINE
  8
0
 10
1105
 20
70.1
 11
1105
 21
75
  0
LINE
  8
0
 10
1105
 20
75
 11
1115
 21
75
  0
LINE
  8
0
 10
1115
 20
75
 11
1115
 21
70.1
  0
LINE
  8
0
 10
1115
 20
70.1
 11
1105
 21
70.1
  0
LINE
  8
0
 10
1145
 20
70.1
 11
1145
 21
75
  0
LINE
  8
0
 10
1145
 20
75
 11
1155
 21
75
  0
LINE
  8
0
 10
1155
 20
75
 11
1155
 21
70.1
  0
LINE
  8
0
 10
1155
 20
70.1
 11
1145
 21
70.1
  0
LINE
  8
0
 10
1165
 20
70.1
 11
1165
 21
75
  0
LINE
  8
0
 10
1165
 20
75
 11
1175
 21
75
  0
LINE
  8
0
 10
1175
 20
75
 11
1175
 21
70.1
  0
LINE
  8
0
 10
1175
 20
70.1
 11
1165
 21
70.1
  0
LINE
  8
0
 10
1285
 20
70.1
 11
1285
 21
75
  0
LINE
  8
0
 10
1285
 20
75
 11
1295
 21
75
  0
LINE
  8
0
 10
1295
 20
75
 11
1295
 21
70.1
  0
LINE
  8
0
 10
1295
 20
70.1
 11
1285
 21
70.1
  0
LINE
  8
0
 10
1065
 20
70.1
 11
1065
 21
75
  0
LINE
  8
0
 10
1065
 20
75
 11
1075
 21
75
  0
LINE
  8
0
 10
1075
 20
75
 11
1075
 21
70.1
  0
LINE
  8
0
 10
1075
 20
70.1
 11
1065
 21
70.1
  0
LINE
  8
0
 10
1085
 20
70.1
 11
1085
 21
75
  0
LINE
  8
0
 10
1085
 20
75
 11
1095
 21
75
  0
LINE
  8
0
 10
1095
 20
75
 11
1095
 21
70.1
  0
LINE
  8
0
 10
1095
 20
70.1
 11
1085
 21
70.1
  0
LINE
  8
0
 10
1005
 20
70.1
 11
1005
 21
75
  0
LINE
  8
0
 10
1005
 20
75
 11
1015
 21
75
  0
LINE
  8
0
 10
1015
 20
75
 11
1015
 21
70.1
  0
LINE
  8
0
 10
1015
 20
70.1
 11
1005
 21
70.1
  0
LINE
  8
0
 10
985
 20
70.1
 11
985
 21
75
  0
LINE
  8
0
 10
985
 20
75
 11
995
 21
75
  0
LINE
  8
0
 10
995
 20
75
 11
995
 21
70.1
  0
LINE
  8
0
 10
995
 20
70.1
 11
985
 21
70.1
  0
LINE
  8
0
 10
965
 20
70.1
 11
965
 21
75
  0
LINE
  8
0
 10
965
 20
75
 11
975
 21
75
  0
LINE
  8
0
 10
975
 20
75
 11
975
 21
70.1
  0
LINE
  8
0
 10
975
 20
70.1
 11
965
 21
70.1
  0
LINE
  8
0
 10
1185
 20
70.1
 11
1185
 21
75
  0
LINE
  8
0
 10
1185
 20
75
 11
1195
 21
75
  0
LINE
  8
0
 10
1195
 20
75
 11
1195
 21
70.1
  0
LINE
  8
0
 10
1195
 20
70.1
 11
1185
 21
70.1
  0
ENDSEC
  0
SECTION
  2
OBJECTS
  0
DICTIONARY
  0
ENDSEC
  0
EOF
