  0
SECTION
  2
BLOCKS
  0
ENDSEC
  0
SECTION
  2
ENTITIES
  0
LINE
  8
0
 10
253.403
 20
230
 11
263.403
 21
230
  0
LINE
  8
0
 10
263.403
 20
230
 11
263.403
 21
225.15
  0
LINE
  8
0
 10
263.403
 20
225.15
 11
273.403
 21
225.15
  0
LINE
  8
0
 10
273.403
 20
225.15
 11
273.403
 21
230
  0
LINE
  8
0
 10
273.403
 20
230
 11
312.952
 21
230
  0
LINE
  8
0
 10
312.952
 20
230
 11
312.952
 21
225.15
  0
LINE
  8
0
 10
312.952
 20
225.15
 11
322.952
 21
225.15
  0
LINE
  8
0
 10
322.952
 20
225.15
 11
322.952
 21
230
  0
LINE
  8
0
 10
322.952
 20
230
 11
332.952
 21
230
  0
LINE
  8
0
 10
332.952
 20
230
 11
332.952
 21
225.15
  0
LINE
  8
0
 10
332.952
 20
225.15
 11
342.952
 21
225.15
  0
LINE
  8
0
 10
342.952
 20
225.15
 11
342.952
 21
230
  0
LINE
  8
0
 10
342.952
 20
230
 11
352.952
 21
230
  0
LINE
  8
0
 10
352.952
 20
230
 11
352.952
 21
225.15
  0
LINE
  8
0
 10
352.952
 20
225.15
 11
362.952
 21
225.15
  0
LINE
  8
0
 10
362.952
 20
225.15
 11
362.952
 21
230
  0
LINE
  8
0
 10
362.952
 20
230
 11
372.952
 21
230
  0
LINE
  8
0
 10
372.952
 20
230
 11
372.952
 21
225.15
  0
LINE
  8
0
 10
372.952
 20
225.15
 11
382.952
 21
225.15
  0
LINE
  8
0
 10
382.952
 20
225.15
 11
382.952
 21
230
  0
LINE
  8
0
 10
382.952
 20
230
 11
392.952
 21
230
  0
LINE
  8
0
 10
392.952
 20
230
 11
392.952
 21
225.15
  0
LINE
  8
0
 10
392.952
 20
225.15
 11
402.952
 21
225.15
  0
LINE
  8
0
 10
402.952
 20
225.15
 11
402.952
 21
230
  0
LINE
  8
0
 10
402.952
 20
230
 11
412.952
 21
230
  0
LINE
  8
0
 10
412.952
 20
230
 11
412.952
 21
225.15
  0
LINE
  8
0
 10
412.952
 20
225.15
 11
422.952
 21
225.15
  0
LINE
  8
0
 10
422.952
 20
225.15
 11
422.952
 21
230
  0
LINE
  8
0
 10
422.952
 20
230
 11
432.952
 21
230
  0
LINE
  8
0
 10
432.952
 20
230
 11
432.952
 21
225.15
  0
LINE
  8
0
 10
432.952
 20
225.15
 11
442.952
 21
225.15
  0
LINE
  8
0
 10
442.952
 20
225.15
 11
442.952
 21
230
  0
LINE
  8
0
 10
442.952
 20
230
 11
452.952
 21
230
  0
LINE
  8
0
 10
452.952
 20
230
 11
452.952
 21
225.15
  0
LINE
  8
0
 10
452.952
 20
225.15
 11
462.952
 21
225.15
  0
LINE
  8
0
 10
462.952
 20
225.15
 11
462.952
 21
230
  0
LINE
  8
0
 10
462.952
 20
230
 11
472.952
 21
230
  0
LINE
  8
0
 10
472.952
 20
230
 11
472.952
 21
225.15
  0
LINE
  8
0
 10
472.952
 20
225.15
 11
482.952
 21
225.15
  0
LINE
  8
0
 10
482.952
 20
225.15
 11
482.952
 21
230
  0
LINE
  8
0
 10
482.952
 20
230
 11
492.952
 21
230
  0
LINE
  8
0
 10
492.952
 20
230
 11
492.952
 21
225.15
  0
LINE
  8
0
 10
492.952
 20
225.15
 11
502.952
 21
225.15
  0
LINE
  8
0
 10
502.952
 20
225.15
 11
502.952
 21
230
  0
LINE
  8
0
 10
502.952
 20
230
 11
512.952
 21
230
  0
LINE
  8
0
 10
512.952
 20
230
 11
512.952
 21
225.15
  0
LINE
  8
0
 10
512.952
 20
225.15
 11
522.952
 21
225.15
  0
LINE
  8
0
 10
522.952
 20
225.15
 11
522.952
 21
230
  0
LINE
  8
0
 10
522.952
 20
230
 11
532.952
 21
230
  0
LINE
  8
0
 10
532.952
 20
230
 11
532.952
 21
225.15
  0
LINE
  8
0
 10
532.952
 20
225.15
 11
542.952
 21
225.15
  0
LINE
  8
0
 10
542.952
 20
225.15
 11
542.952
 21
230
  0
LINE
  8
0
 10
542.952
 20
230
 11
552.952
 21
230
  0
LINE
  8
0
 10
552.952
 20
230
 11
552.952
 21
225.15
  0
LINE
  8
0
 10
552.952
 20
225.15
 11
562.952
 21
225.15
  0
LINE
  8
0
 10
562.952
 20
225.15
 11
562.952
 21
230
  0
LINE
  8
0
 10
562.952
 20
230
 11
572.952
 21
230
  0
LINE
  8
0
 10
572.952
 20
230
 11
572.952
 21
225.15
  0
LINE
  8
0
 10
572.952
 20
225.15
 11
582.952
 21
225.15
  0
LINE
  8
0
 10
582.952
 20
225.15
 11
582.952
 21
230
  0
LINE
  8
0
 10
582.952
 20
230
 11
592.952
 21
230
  0
LINE
  8
0
 10
592.952
 20
230
 11
592.952
 21
225.15
  0
LINE
  8
0
 10
592.952
 20
225.15
 11
602.952
 21
225.15
  0
LINE
  8
0
 10
602.952
 20
225.15
 11
602.952
 21
230
  0
LINE
  8
0
 10
602.952
 20
230
 11
612.952
 21
230
  0
LINE
  8
0
 10
612.952
 20
230
 11
612.952
 21
225.15
  0
LINE
  8
0
 10
612.952
 20
225.15
 11
622.952
 21
225.15
  0
LINE
  8
0
 10
622.952
 20
225.15
 11
622.952
 21
230
  0
LINE
  8
0
 10
622.952
 20
230
 11
655
 21
230
  0
LINE
  8
0
 10
655
 20
230
 11
655
 21
225.15
  0
LINE
  8
0
 10
655
 20
225.15
 11
665
 21
225.15
  0
LINE
  8
0
 10
665
 20
225.15
 11
665
 21
230
  0
LINE
  8
0
 10
665
 20
230
 11
675
 21
230
  0
LINE
  8
0
 10
675
 20
230
 11
675
 21
225.15
  0
LINE
  8
0
 10
675
 20
225.15
 11
685
 21
225.15
  0
LINE
  8
0
 10
685
 20
225.15
 11
685
 21
230
  0
LINE
  8
0
 10
685
 20
230
 11
695
 21
230
  0
LINE
  8
0
 10
695
 20
230
 11
695
 21
225.15
  0
LINE
  8
0
 10
695
 20
225.15
 11
705
 21
225.15
  0
LINE
  8
0
 10
705
 20
225.15
 11
705
 21
230
  0
LINE
  8
0
 10
705
 20
230
 11
715
 21
230
  0
LINE
  8
0
 10
715
 20
230
 11
715
 21
225.15
  0
LINE
  8
0
 10
715
 20
225.15
 11
725
 21
225.15
  0
LINE
  8
0
 10
725
 20
225.15
 11
725
 21
230
  0
LINE
  8
0
 10
725
 20
230
 11
735
 21
230
  0
LINE
  8
0
 10
735
 20
230
 11
735
 21
225.15
  0
LINE
  8
0
 10
735
 20
225.15
 11
745
 21
225.15
  0
LINE
  8
0
 10
745
 20
225.15
 11
745
 21
230
  0
LINE
  8
0
 10
745
 20
230
 11
777.048
 21
230
  0
LINE
  8
0
 10
777.048
 20
230
 11
777.048
 21
225.15
  0
LINE
  8
0
 10
777.048
 20
225.15
 11
787.048
 21
225.15
  0
LINE
  8
0
 10
787.048
 20
225.15
 11
787.048
 21
230
  0
LINE
  8
0
 10
787.048
 20
230
 11
797.048
 21
230
  0
LINE
  8
0
 10
797.048
 20
230
 11
797.048
 21
225.15
  0
LINE
  8
0
 10
797.048
 20
225.15
 11
807.048
 21
225.15
  0
LINE
  8
0
 10
807.048
 20
225.15
 11
807.048
 21
230
  0
LINE
  8
0
 10
807.048
 20
230
 11
817.048
 21
230
  0
LINE
  8
0
 10
817.048
 20
230
 11
817.048
 21
225.15
  0
LINE
  8
0
 10
817.048
 20
225.15
 11
827.048
 21
225.15
  0
LINE
  8
0
 10
827.048
 20
225.15
 11
827.048
 21
230
  0
LINE
  8
0
 10
827.048
 20
230
 11
837.048
 21
230
  0
LINE
  8
0
 10
837.048
 20
230
 11
837.048
 21
225.15
  0
LINE
  8
0
 10
837.048
 20
225.15
 11
847.048
 21
225.15
  0
LINE
  8
0
 10
847.048
 20
225.15
 11
847.048
 21
230
  0
LINE
  8
0
 10
847.048
 20
230
 11
857.048
 21
230
  0
LINE
  8
0
 10
857.048
 20
230
 11
857.048
 21
225.15
  0
LINE
  8
0
 10
857.048
 20
225.15
 11
867.048
 21
225.15
  0
LINE
  8
0
 10
867.048
 20
225.15
 11
867.048
 21
230
  0
LINE
  8
0
 10
867.048
 20
230
 11
877.048
 21
230
  0
LINE
  8
0
 10
877.048
 20
230
 11
877.048
 21
225.15
  0
LINE
  8
0
 10
877.048
 20
225.15
 11
887.048
 21
225.15
  0
LINE
  8
0
 10
887.048
 20
225.15
 11
887.048
 21
230
  0
LINE
  8
0
 10
887.048
 20
230
 11
897.048
 21
230
  0
LINE
  8
0
 10
897.048
 20
230
 11
897.048
 21
225.15
  0
LINE
  8
0
 10
897.048
 20
225.15
 11
907.048
 21
225.15
  0
LINE
  8
0
 10
907.048
 20
225.15
 11
907.048
 21
230
  0
LINE
  8
0
 10
907.048
 20
230
 11
917.048
 21
230
  0
LINE
  8
0
 10
917.048
 20
230
 11
917.048
 21
225.15
  0
LINE
  8
0
 10
917.048
 20
225.15
 11
927.048
 21
225.15
  0
LINE
  8
0
 10
927.048
 20
225.15
 11
927.048
 21
230
  0
LINE
  8
0
 10
927.048
 20
230
 11
937.048
 21
230
  0
LINE
  8
0
 10
937.048
 20
230
 11
937.048
 21
225.15
  0
LINE
  8
0
 10
937.048
 20
225.15
 11
947.048
 21
225.15
  0
LINE
  8
0
 10
947.048
 20
225.15
 11
947.048
 21
230
  0
LINE
  8
0
 10
947.048
 20
230
 11
957.048
 21
230
  0
LINE
  8
0
 10
957.048
 20
230
 11
957.048
 21
225.15
  0
LINE
  8
0
 10
957.048
 20
225.15
 11
967.048
 21
225.15
  0
LINE
  8
0
 10
967.048
 20
225.15
 11
967.048
 21
230
  0
LINE
  8
0
 10
967.048
 20
230
 11
977.048
 21
230
  0
LINE
  8
0
 10
977.048
 20
230
 11
977.048
 21
225.15
  0
LINE
  8
0
 10
977.048
 20
225.15
 11
987.048
 21
225.15
  0
LINE
  8
0
 10
987.048
 20
225.15
 11
987.048
 21
230
  0
LINE
  8
0
 10
987.048
 20
230
 11
997.048
 21
230
  0
LINE
  8
0
 10
997.048
 20
230
 11
997.048
 21
225.15
  0
LINE
  8
0
 10
997.048
 20
225.15
 11
1007.05
 21
225.15
  0
LINE
  8
0
 10
1007.05
 20
225.15
 11
1007.05
 21
230
  0
LINE
  8
0
 10
1007.05
 20
230
 11
1017.05
 21
230
  0
LINE
  8
0
 10
1017.05
 20
230
 11
1017.05
 21
225.15
  0
LINE
  8
0
 10
1017.05
 20
225.15
 11
1027.05
 21
225.15
  0
LINE
  8
0
 10
1027.05
 20
225.15
 11
1027.05
 21
230
  0
LINE
  8
0
 10
1027.05
 20
230
 11
1037.05
 21
230
  0
LINE
  8
0
 10
1037.05
 20
230
 11
1037.05
 21
225.15
  0
LINE
  8
0
 10
1037.05
 20
225.15
 11
1047.05
 21
225.15
  0
LINE
  8
0
 10
1047.05
 20
225.15
 11
1047.05
 21
230
  0
LINE
  8
0
 10
1047.05
 20
230
 11
1057.05
 21
230
  0
LINE
  8
0
 10
1057.05
 20
230
 11
1057.05
 21
225.15
  0
LINE
  8
0
 10
1057.05
 20
225.15
 11
1067.05
 21
225.15
  0
LINE
  8
0
 10
1067.05
 20
225.15
 11
1067.05
 21
230
  0
LINE
  8
0
 10
1067.05
 20
230
 11
1077.05
 21
230
  0
LINE
  8
0
 10
1077.05
 20
230
 11
1077.05
 21
225.15
  0
LINE
  8
0
 10
1077.05
 20
225.15
 11
1087.05
 21
225.15
  0
LINE
  8
0
 10
1087.05
 20
225.15
 11
1087.05
 21
230
  0
LINE
  8
0
 10
1087.05
 20
230
 11
1126.6
 21
230
  0
LINE
  8
0
 10
1126.6
 20
230
 11
1126.6
 21
225.15
  0
LINE
  8
0
 10
1126.6
 20
225.15
 11
1136.6
 21
225.15
  0
LINE
  8
0
 10
1136.6
 20
225.15
 11
1136.6
 21
230
  0
LINE
  8
0
 10
1136.6
 20
230
 11
1146.6
 21
230
  0
LINE
  8
0
 10
1146.6
 20
230
 11
1146.6
 21
225.15
  0
LINE
  8
0
 10
1146.6
 20
225.15
 11
1156.6
 21
225.15
  0
LINE
  8
0
 10
1156.6
 20
225.15
 11
1156.6
 21
230
  0
LINE
  8
0
 10
1156.6
 20
230
 11
1164.1
 21
230
  0
LINE
  8
0
 10
1164.1
 20
230
 11
1164.1
 21
270
  0
LINE
  8
0
 10
1164.1
 20
270
 11
1156.6
 21
270
  0
LINE
  8
0
 10
1156.6
 20
270
 11
1156.6
 21
274.85
  0
LINE
  8
0
 10
1156.6
 20
274.85
 11
1146.6
 21
274.85
  0
LINE
  8
0
 10
1146.6
 20
274.85
 11
1146.6
 21
270
  0
LINE
  8
0
 10
1146.6
 20
270
 11
1136.6
 21
270
  0
LINE
  8
0
 10
1136.6
 20
270
 11
1136.6
 21
274.85
  0
LINE
  8
0
 10
1136.6
 20
274.85
 11
1126.6
 21
274.85
  0
LINE
  8
0
 10
1126.6
 20
274.85
 11
1126.6
 21
270
  0
LINE
  8
0
 10
1126.6
 20
270
 11
1087.05
 21
270
  0
LINE
  8
0
 10
1087.05
 20
270
 11
1087.05
 21
274.85
  0
LINE
  8
0
 10
1087.05
 20
274.85
 11
1077.05
 21
274.85
  0
LINE
  8
0
 10
1077.05
 20
274.85
 11
1077.05
 21
270
  0
LINE
  8
0
 10
1077.05
 20
270
 11
1067.05
 21
270
  0
LINE
  8
0
 10
1067.05
 20
270
 11
1067.05
 21
274.85
  0
LINE
  8
0
 10
1067.05
 20
274.85
 11
1057.05
 21
274.85
  0
LINE
  8
0
 10
1057.05
 20
274.85
 11
1057.05
 21
270
  0
LINE
  8
0
 10
1057.05
 20
270
 11
1047.05
 21
270
  0
LINE
  8
0
 10
1047.05
 20
270
 11
1047.05
 21
274.85
  0
LINE
  8
0
 10
1047.05
 20
274.85
 11
1037.05
 21
274.85
  0
LINE
  8
0
 10
1037.05
 20
274.85
 11
1037.05
 21
270
  0
LINE
  8
0
 10
1037.05
 20
270
 11
1027.05
 21
270
  0
LINE
  8
0
 10
1027.05
 20
270
 11
1027.05
 21
274.85
  0
LINE
  8
0
 10
1027.05
 20
274.85
 11
1017.05
 21
274.85
  0
LINE
  8
0
 10
1017.05
 20
274.85
 11
1017.05
 21
270
  0
LINE
  8
0
 10
1017.05
 20
270
 11
1007.05
 21
270
  0
LINE
  8
0
 10
1007.05
 20
270
 11
1007.05
 21
274.85
  0
LINE
  8
0
 10
1007.05
 20
274.85
 11
997.048
 21
274.85
  0
LINE
  8
0
 10
997.048
 20
274.85
 11
997.048
 21
270
  0
LINE
  8
0
 10
997.048
 20
270
 11
987.048
 21
270
  0
LINE
  8
0
 10
987.048
 20
270
 11
987.048
 21
274.85
  0
LINE
  8
0
 10
987.048
 20
274.85
 11
977.048
 21
274.85
  0
LINE
  8
0
 10
977.048
 20
274.85
 11
977.048
 21
270
  0
LINE
  8
0
 10
977.048
 20
270
 11
967.048
 21
270
  0
LINE
  8
0
 10
967.048
 20
270
 11
967.048
 21
274.85
  0
LINE
  8
0
 10
967.048
 20
274.85
 11
957.048
 21
274.85
  0
LINE
  8
0
 10
957.048
 20
274.85
 11
957.048
 21
270
  0
LINE
  8
0
 10
957.048
 20
270
 11
947.048
 21
270
  0
LINE
  8
0
 10
947.048
 20
270
 11
947.048
 21
274.85
  0
LINE
  8
0
 10
947.048
 20
274.85
 11
937.048
 21
274.85
  0
LINE
  8
0
 10
937.048
 20
274.85
 11
937.048
 21
270
  0
LINE
  8
0
 10
937.048
 20
270
 11
927.048
 21
270
  0
LINE
  8
0
 10
927.048
 20
270
 11
927.048
 21
274.85
  0
LINE
  8
0
 10
927.048
 20
274.85
 11
917.048
 21
274.85
  0
LINE
  8
0
 10
917.048
 20
274.85
 11
917.048
 21
270
  0
LINE
  8
0
 10
917.048
 20
270
 11
907.048
 21
270
  0
LINE
  8
0
 10
907.048
 20
270
 11
907.048
 21
274.85
  0
LINE
  8
0
 10
907.048
 20
274.85
 11
897.048
 21
274.85
  0
LINE
  8
0
 10
897.048
 20
274.85
 11
897.048
 21
270
  0
LINE
  8
0
 10
897.048
 20
270
 11
887.048
 21
270
  0
LINE
  8
0
 10
887.048
 20
270
 11
887.048
 21
274.85
  0
LINE
  8
0
 10
887.048
 20
274.85
 11
877.048
 21
274.85
  0
LINE
  8
0
 10
877.048
 20
274.85
 11
877.048
 21
270
  0
LINE
  8
0
 10
877.048
 20
270
 11
867.048
 21
270
  0
LINE
  8
0
 10
867.048
 20
270
 11
867.048
 21
274.85
  0
LINE
  8
0
 10
867.048
 20
274.85
 11
857.048
 21
274.85
  0
LINE
  8
0
 10
857.048
 20
274.85
 11
857.048
 21
270
  0
LINE
  8
0
 10
857.048
 20
270
 11
847.048
 21
270
  0
LINE
  8
0
 10
847.048
 20
270
 11
847.048
 21
274.85
  0
LINE
  8
0
 10
847.048
 20
274.85
 11
837.048
 21
274.85
  0
LINE
  8
0
 10
837.048
 20
274.85
 11
837.048
 21
270
  0
LINE
  8
0
 10
837.048
 20
270
 11
827.048
 21
270
  0
LINE
  8
0
 10
827.048
 20
270
 11
827.048
 21
274.85
  0
LINE
  8
0
 10
827.048
 20
274.85
 11
817.048
 21
274.85
  0
LINE
  8
0
 10
817.048
 20
274.85
 11
817.048
 21
270
  0
LINE
  8
0
 10
817.048
 20
270
 11
807.048
 21
270
  0
LINE
  8
0
 10
807.048
 20
270
 11
807.048
 21
274.85
  0
LINE
  8
0
 10
807.048
 20
274.85
 11
797.048
 21
274.85
  0
LINE
  8
0
 10
797.048
 20
274.85
 11
797.048
 21
270
  0
LINE
  8
0
 10
797.048
 20
270
 11
787.048
 21
270
  0
LINE
  8
0
 10
787.048
 20
270
 11
787.048
 21
274.85
  0
LINE
  8
0
 10
787.048
 20
274.85
 11
777.048
 21
274.85
  0
LINE
  8
0
 10
777.048
 20
274.85
 11
777.048
 21
270
  0
LINE
  8
0
 10
777.048
 20
270
 11
745
 21
270
  0
LINE
  8
0
 10
745
 20
270
 11
745
 21
274.85
  0
LINE
  8
0
 10
745
 20
274.85
 11
735
 21
274.85
  0
LINE
  8
0
 10
735
 20
274.85
 11
735
 21
270
  0
LINE
  8
0
 10
735
 20
270
 11
725
 21
270
  0
LINE
  8
0
 10
725
 20
270
 11
725
 21
274.85
  0
LINE
  8
0
 10
725
 20
274.85
 11
715
 21
274.85
  0
LINE
  8
0
 10
715
 20
274.85
 11
715
 21
270
  0
LINE
  8
0
 10
715
 20
270
 11
705
 21
270
  0
LINE
  8
0
 10
705
 20
270
 11
705
 21
274.85
  0
LINE
  8
0
 10
705
 20
274.85
 11
695
 21
274.85
  0
LINE
  8
0
 10
695
 20
274.85
 11
695
 21
270
  0
LINE
  8
0
 10
695
 20
270
 11
685
 21
270
  0
LINE
  8
0
 10
685
 20
270
 11
685
 21
274.85
  0
LINE
  8
0
 10
685
 20
274.85
 11
675
 21
274.85
  0
LINE
  8
0
 10
675
 20
274.85
 11
675
 21
270
  0
LINE
  8
0
 10
675
 20
270
 11
665
 21
270
  0
LINE
  8
0
 10
665
 20
270
 11
665
 21
274.85
  0
LINE
  8
0
 10
665
 20
274.85
 11
655
 21
274.85
  0
LINE
  8
0
 10
655
 20
274.85
 11
655
 21
270
  0
LINE
  8
0
 10
655
 20
270
 11
622.952
 21
270
  0
LINE
  8
0
 10
622.952
 20
270
 11
622.952
 21
274.85
  0
LINE
  8
0
 10
622.952
 20
274.85
 11
612.952
 21
274.85
  0
LINE
  8
0
 10
612.952
 20
274.85
 11
612.952
 21
270
  0
LINE
  8
0
 10
612.952
 20
270
 11
602.952
 21
270
  0
LINE
  8
0
 10
602.952
 20
270
 11
602.952
 21
274.85
  0
LINE
  8
0
 10
602.952
 20
274.85
 11
592.952
 21
274.85
  0
LINE
  8
0
 10
592.952
 20
274.85
 11
592.952
 21
270
  0
LINE
  8
0
 10
592.952
 20
270
 11
582.952
 21
270
  0
LINE
  8
0
 10
582.952
 20
270
 11
582.952
 21
274.85
  0
LINE
  8
0
 10
582.952
 20
274.85
 11
572.952
 21
274.85
  0
LINE
  8
0
 10
572.952
 20
274.85
 11
572.952
 21
270
  0
LINE
  8
0
 10
572.952
 20
270
 11
562.952
 21
270
  0
LINE
  8
0
 10
562.952
 20
270
 11
562.952
 21
274.85
  0
LINE
  8
0
 10
562.952
 20
274.85
 11
552.952
 21
274.85
  0
LINE
  8
0
 10
552.952
 20
274.85
 11
552.952
 21
270
  0
LINE
  8
0
 10
552.952
 20
270
 11
542.952
 21
270
  0
LINE
  8
0
 10
542.952
 20
270
 11
542.952
 21
274.85
  0
LINE
  8
0
 10
542.952
 20
274.85
 11
532.952
 21
274.85
  0
LINE
  8
0
 10
532.952
 20
274.85
 11
532.952
 21
270
  0
LINE
  8
0
 10
532.952
 20
270
 11
522.952
 21
270
  0
LINE
  8
0
 10
522.952
 20
270
 11
522.952
 21
274.85
  0
LINE
  8
0
 10
522.952
 20
274.85
 11
512.952
 21
274.85
  0
LINE
  8
0
 10
512.952
 20
274.85
 11
512.952
 21
270
  0
LINE
  8
0
 10
512.952
 20
270
 11
502.952
 21
270
  0
LINE
  8
0
 10
502.952
 20
270
 11
502.952
 21
274.85
  0
LINE
  8
0
 10
502.952
 20
274.85
 11
492.952
 21
274.85
  0
LINE
  8
0
 10
492.952
 20
274.85
 11
492.952
 21
270
  0
LINE
  8
0
 10
492.952
 20
270
 11
482.952
 21
270
  0
LINE
  8
0
 10
482.952
 20
270
 11
482.952
 21
274.85
  0
LINE
  8
0
 10
482.952
 20
274.85
 11
472.952
 21
274.85
  0
LINE
  8
0
 10
472.952
 20
274.85
 11
472.952
 21
270
  0
LINE
  8
0
 10
472.952
 20
270
 11
462.952
 21
270
  0
LINE
  8
0
 10
462.952
 20
270
 11
462.952
 21
274.85
  0
LINE
  8
0
 10
462.952
 20
274.85
 11
452.952
 21
274.85
  0
LINE
  8
0
 10
452.952
 20
274.85
 11
452.952
 21
270
  0
LINE
  8
0
 10
452.952
 20
270
 11
442.952
 21
270
  0
LINE
  8
0
 10
442.952
 20
270
 11
442.952
 21
274.85
  0
LINE
  8
0
 10
442.952
 20
274.85
 11
432.952
 21
274.85
  0
LINE
  8
0
 10
432.952
 20
274.85
 11
432.952
 21
270
  0
LINE
  8
0
 10
432.952
 20
270
 11
422.952
 21
270
  0
LINE
  8
0
 10
422.952
 20
270
 11
422.952
 21
274.85
  0
LINE
  8
0
 10
422.952
 20
274.85
 11
412.952
 21
274.85
  0
LINE
  8
0
 10
412.952
 20
274.85
 11
412.952
 21
270
  0
LINE
  8
0
 10
412.952
 20
270
 11
402.952
 21
270
  0
LINE
  8
0
 10
402.952
 20
270
 11
402.952
 21
274.85
  0
LINE
  8
0
 10
402.952
 20
274.85
 11
392.952
 21
274.85
  0
LINE
  8
0
 10
392.952
 20
274.85
 11
392.952
 21
270
  0
LINE
  8
0
 10
392.952
 20
270
 11
382.952
 21
270
  0
LINE
  8
0
 10
382.952
 20
270
 11
382.952
 21
274.85
  0
LINE
  8
0
 10
382.952
 20
274.85
 11
372.952
 21
274.85
  0
LINE
  8
0
 10
372.952
 20
274.85
 11
372.952
 21
270
  0
LINE
  8
0
 10
372.952
 20
270
 11
362.952
 21
270
  0
LINE
  8
0
 10
362.952
 20
270
 11
362.952
 21
274.85
  0
LINE
  8
0
 10
362.952
 20
274.85
 11
352.952
 21
274.85
  0
LINE
  8
0
 10
352.952
 20
274.85
 11
352.952
 21
270
  0
LINE
  8
0
 10
352.952
 20
270
 11
342.952
 21
270
  0
LINE
  8
0
 10
342.952
 20
270
 11
342.952
 21
274.85
  0
LINE
  8
0
 10
342.952
 20
274.85
 11
332.952
 21
274.85
  0
LINE
  8
0
 10
332.952
 20
274.85
 11
332.952
 21
270
  0
LINE
  8
0
 10
332.952
 20
270
 11
322.952
 21
270
  0
LINE
  8
0
 10
322.952
 20
270
 11
322.952
 21
274.85
  0
LINE
  8
0
 10
322.952
 20
274.85
 11
312.952
 21
274.85
  0
LINE
  8
0
 10
312.952
 20
274.85
 11
312.952
 21
270
  0
LINE
  8
0
 10
312.952
 20
270
 11
273.403
 21
270
  0
LINE
  8
0
 10
273.403
 20
270
 11
273.403
 21
274.85
  0
LINE
  8
0
 10
273.403
 20
274.85
 11
263.403
 21
274.85
  0
LINE
  8
0
 10
263.403
 20
274.85
 11
263.403
 21
270
  0
LINE
  8
0
 10
263.403
 20
270
 11
253.403
 21
270
  0
LINE
  8
0
 10
253.403
 20
270
 11
253.403
 21
274.85
  0
LINE
  8
0
 10
253.403
 20
274.85
 11
243.403
 21
274.85
  0
LINE
  8
0
 10
243.403
 20
274.85
 11
243.403
 21
270
  0
LINE
  8
0
 10
243.403
 20
270
 11
235.903
 21
270
  0
LINE
  8
0
 10
235.903
 20
270
 11
235.903
 21
230
  0
LINE
  8
0
 10
235.903
 20
230
 11
243.403
 21
230
  0
LINE
  8
0
 10
243.403
 20
230
 11
243.403
 21
225.15
  0
LINE
  8
0
 10
243.403
 20
225.15
 11
253.403
 21
225.15
  0
LINE
  8
0
 10
253.403
 20
225.15
 11
253.403
 21
230
  0
LINE
  8
0
 10
1227.4
 20
55.5573
 11
1229.8
 21
55.4
  0
LINE
  8
0
 10
1229.8
 20
55.4
 11
1233.04
 21
55.6122
  0
LINE
  8
0
 10
1233.04
 20
55.6122
 11
1236.22
 21
56.245
  0
LINE
  8
0
 10
1236.22
 20
56.245
 11
1239.29
 21
57.2878
  0
LINE
  8
0
 10
1239.29
 20
57.2878
 11
1242.2
 21
58.7226
  0
LINE
  8
0
 10
1242.2
 20
58.7226
 11
1244.9
 21
60.5248
  0
LINE
  8
0
 10
1244.9
 20
60.5248
 11
1247.34
 21
62.6637
  0
LINE
  8
0
 10
1247.34
 20
62.6637
 11
1249.48
 21
65.1027
  0
LINE
  8
0
 10
1249.48
 20
65.1027
 11
1251.28
 21
67.8
  0
LINE
  8
0
 10
1251.28
 20
67.8
 11
1252.71
 21
70.7094
  0
LINE
  8
0
 10
1252.71
 20
70.7094
 11
1253.76
 21
73.7813
  0
LINE
  8
0
 10
1253.76
 20
73.7813
 11
1254.39
 21
76.963
  0
LINE
  8
0
 10
1254.39
 20
76.963
 11
1254.6
 21
80.2
  0
LINE
  8
0
 10
1254.6
 20
80.2
 11
1254.44
 21
82.6
  0
LINE
  8
0
 10
1254.44
 20
82.6
 11
1254.6
 21
82.6
  0
LINE
  8
0
 10
1254.6
 20
82.6
 11
1254.6
 21
177.4
  0
LINE
  8
0
 10
1254.6
 20
177.4
 11
1254.44
 21
177.4
  0
LINE
  8
0
 10
1254.44
 20
177.4
 11
1254.6
 21
179.8
  0
LINE
  8
0
 10
1254.6
 20
179.8
 11
1254.39
 21
183.037
  0
LINE
  8
0
 10
1254.39
 20
183.037
 11
1253.76
 21
186.219
  0
LINE
  8
0
 10
1253.76
 20
186.219
 11
1252.71
 21
189.291
  0
LINE
  8
0
 10
1252.71
 20
189.291
 11
1251.28
 21
192.2
  0
LINE
  8
0
 10
1251.28
 20
192.2
 11
1249.48
 21
194.897
  0
LINE
  8
0
 10
1249.48
 20
194.897
 11
1247.34
 21
197.336
  0
LINE
  8
0
 10
1247.34
 20
197.336
 11
1244.9
 21
199.475
  0
LINE
  8
0
 10
1244.9
 20
199.475
 11
1242.2
 21
201.277
  0
LINE
  8
0
 10
1242.2
 20
201.277
 11
1239.29
 21
202.712
  0
LINE
  8
0
 10
1239.29
 20
202.712
 11
1236.22
 21
203.755
  0
LINE
  8
0
 10
1236.22
 20
203.755
 11
1233.04
 21
204.388
  0
LINE
  8
0
 10
1233.04
 20
204.388
 11
1229.8
 21
204.6
  0
LINE
  8
0
 10
1229.8
 20
204.6
 11
1227.4
 21
204.443
  0
LINE
  8
0
 10
1227.4
 20
204.443
 11
1227.4
 21
204.6
  0
LINE
  8
0
 10
1227.4
 20
204.6
 11
912.6
 21
204.6
  0
LINE
  8
0
 10
912.6
 20
204.6
 11
912.6
 21
204.443
  0
LINE
  8
0
 10
912.6
 20
204.443
 11
910.2
 21
204.6
  0
LINE
  8
0
 10
910.2
 20
204.6
 11
906.963
 21
204.388
  0
LINE
  8
0
 10
906.963
 20
204.388
 11
903.781
 21
203.755
  0
LINE
  8
0
 10
903.781
 20
203.755
 11
900.709
 21
202.712
  0
LINE
  8
0
 10
900.709
 20
202.712
 11
897.8
 21
201.277
  0
LINE
  8
0
 10
897.8
 20
201.277
 11
895.103
 21
199.475
  0
LINE
  8
0
 10
895.103
 20
199.475
 11
892.664
 21
197.336
  0
LINE
  8
0
 10
892.664
 20
197.336
 11
890.525
 21
194.897
  0
LINE
  8
0
 10
890.525
 20
194.897
 11
888.723
 21
192.2
  0
LINE
  8
0
 10
888.723
 20
192.2
 11
887.288
 21
189.291
  0
LINE
  8
0
 10
887.288
 20
189.291
 11
886.245
 21
186.219
  0
LINE
  8
0
 10
886.245
 20
186.219
 11
885.612
 21
183.037
  0
LINE
  8
0
 10
885.612
 20
183.037
 11
885.4
 21
179.8
  0
LINE
  8
0
 10
885.4
 20
179.8
 11
885.557
 21
177.4
  0
LINE
  8
0
 10
885.557
 20
177.4
 11
885.4
 21
177.4
  0
LINE
  8
0
 10
885.4
 20
177.4
 11
885.4
 21
82.6
  0
LINE
  8
0
 10
885.4
 20
82.6
 11
885.557
 21
82.6
  0
LINE
  8
0
 10
885.557
 20
82.6
 11
885.4
 21
80.2
  0
LINE
  8
0
 10
885.4
 20
80.2
 11
885.612
 21
76.963
  0
LINE
  8
0
 10
885.612
 20
76.963
 11
886.245
 21
73.7813
  0
LINE
  8
0
 10
886.245
 20
73.7813
 11
887.288
 21
70.7094
  0
LINE
  8
0
 10
887.288
 20
70.7094
 11
888.723
 21
67.8
  0
LINE
  8
0
 10
888.723
 20
67.8
 11
890.525
 21
65.1027
  0
LINE
  8
0
 10
890.525
 20
65.1027
 11
892.664
 21
62.6637
  0
LINE
  8
0
 10
892.664
 20
62.6637
 11
895.103
 21
60.5248
  0
LINE
  8
0
 10
895.103
 20
60.5248
 11
897.8
 21
58.7226
  0
LINE
  8
0
 10
897.8
 20
58.7226
 11
900.709
 21
57.2878
  0
LINE
  8
0
 10
900.709
 20
57.2878
 11
903.781
 21
56.245
  0
LINE
  8
0
 10
903.781
 20
56.245
 11
906.963
 21
55.6122
  0
LINE
  8
0
 10
906.963
 20
55.6122
 11
910.2
 21
55.4
  0
LINE
  8
0
 10
910.2
 20
55.4
 11
912.6
 21
55.5573
  0
LINE
  8
0
 10
912.6
 20
55.5573
 11
912.6
 21
55.4
  0
LINE
  8
0
 10
912.6
 20
55.4
 11
1227.4
 21
55.4
  0
LINE
  8
0
 10
1227.4
 20
55.4
 11
1227.4
 21
55.5573
  0
LINE
  8
0
 10
1115
 20
195
 11
1115
 21
199.9
  0
LINE
  8
0
 10
1115
 20
199.9
 11
1125
 21
199.9
  0
LINE
  8
0
 10
1125
 20
199.9
 11
1125
 21
195
  0
LINE
  8
0
 10
1125
 20
195
 11
1115
 21
195
  0
LINE
  8
0
 10
1175
 20
195
 11
1175
 21
199.9
  0
LINE
  8
0
 10
1175
 20
199.9
 11
1185
 21
199.9
  0
LINE
  8
0
 10
1185
 20
199.9
 11
1185
 21
195
  0
LINE
  8
0
 10
1185
 20
195
 11
1175
 21
195
  0
LINE
  8
0
 10
1035
 20
195
 11
1035
 21
199.9
  0
LINE
  8
0
 10
1035
 20
199.9
 11
1045
 21
199.9
  0
LINE
  8
0
 10
1045
 20
199.9
 11
1045
 21
195
  0
LINE
  8
0
 10
1045
 20
195
 11
1035
 21
195
  0
LINE
  8
0
 10
975
 20
199.9
 11
985
 21
199.9
  0
LINE
  8
0
 10
985
 20
199.9
 11
985
 21
195
  0
LINE
  8
0
 10
985
 20
195
 11
975
 21
195
  0
LINE
  8
0
 10
975
 20
195
 11
975
 21
199.9
  0
LINE
  8
0
 10
1015
 20
195
 11
1015
 21
199.9
  0
LINE
  8
0
 10
1015
 20
199.9
 11
1025
 21
199.9
  0
LINE
  8
0
 10
1025
 20
199.9
 11
1025
 21
195
  0
LINE
  8
0
 10
1025
 20
195
 11
1015
 21
195
  0
LINE
  8
0
 10
1055
 20
195
 11
1055
 21
199.9
  0
LINE
  8
0
 10
1055
 20
199.9
 11
1065
 21
199.9
  0
LINE
  8
0
 10
1065
 20
199.9
 11
1065
 21
195
  0
LINE
  8
0
 10
1065
 20
195
 11
1055
 21
195
  0
LINE
  8
0
 10
1075
 20
195
 11
1075
 21
199.9
  0
LINE
  8
0
 10
1075
 20
199.9
 11
1085
 21
199.9
  0
LINE
  8
0
 10
1085
 20
199.9
 11
1085
 21
195
  0
LINE
  8
0
 10
1085
 20
195
 11
1075
 21
195
  0
LINE
  8
0
 10
1095
 20
195
 11
1095
 21
199.9
  0
LINE
  8
0
 10
1095
 20
199.9
 11
1105
 21
199.9
  0
LINE
  8
0
 10
1105
 20
199.9
 11
1105
 21
195
  0
LINE
  8
0
 10
1105
 20
195
 11
1095
 21
195
  0
LINE
  8
0
 10
1215
 20
195
 11
1215
 21
199.9
  0
LINE
  8
0
 10
1215
 20
199.9
 11
1225
 21
199.9
  0
LINE
  8
0
 10
1225
 20
199.9
 11
1225
 21
195
  0
LINE
  8
0
 10
1225
 20
195
 11
1215
 21
195
  0
LINE
  8
0
 10
955
 20
195
 11
955
 21
199.9
  0
LINE
  8
0
 10
955
 20
199.9
 11
965
 21
199.9
  0
LINE
  8
0
 10
965
 20
199.9
 11
965
 21
195
  0
LINE
  8
0
 10
965
 20
195
 11
955
 21
195
  0
LINE
  8
0
 10
935
 20
195
 11
935
 21
199.9
  0
LINE
  8
0
 10
935
 20
199.9
 11
945
 21
199.9
  0
LINE
  8
0
 10
945
 20
199.9
 11
945
 21
195
  0
LINE
  8
0
 10
945
 20
195
 11
935
 21
195
  0
LINE
  8
0
 10
1155
 20
195
 11
1155
 21
199.9
  0
LINE
  8
0
 10
1155
 20
199.9
 11
1165
 21
199.9
  0
LINE
  8
0
 10
1165
 20
199.9
 11
1165
 21
195
  0
LINE
  8
0
 10
1165
 20
195
 11
1155
 21
195
  0
LINE
  8
0
 10
1135
 20
195
 11
1135
 21
199.9
  0
LINE
  8
0
 10
1135
 20
199.9
 11
1145
 21
199.9
  0
LINE
  8
0
 10
1145
 20
199.9
 11
1145
 21
195
  0
LINE
  8
0
 10
1145
 20
195
 11
1135
 21
195
  0
LINE
  8
0
 10
1195
 20
195
 11
1195
 21
199.9
  0
LINE
  8
0
 10
1195
 20
199.9
 11
1205
 21
199.9
  0
LINE
  8
0
 10
1205
 20
199.9
 11
1205
 21
195
  0
LINE
  8
0
 10
1205
 20
195
 11
1195
 21
195
  0
LINE
  8
0
 10
915
 20
195
 11
915
 21
199.9
  0
LINE
  8
0
 10
915
 20
199.9
 11
925
 21
199.9
  0
LINE
  8
0
 10
925
 20
199.9
 11
925
 21
195
  0
LINE
  8
0
 10
925
 20
195
 11
915
 21
195
  0
LINE
  8
0
 10
1245
 20
165
 11
1245
 21
175
  0
LINE
  8
0
 10
1245
 20
175
 11
1249.9
 21
175
  0
LINE
  8
0
 10
1249.9
 20
175
 11
1249.9
 21
165
  0
LINE
  8
0
 10
1249.9
 20
165
 11
1245
 21
165
  0
LINE
  8
0
 10
890.1
 20
157.5
 11
890.1
 21
167.5
  0
LINE
  8
0
 10
890.1
 20
167.5
 11
895
 21
167.5
  0
LINE
  8
0
 10
895
 20
167.5
 11
895
 21
157.5
  0
LINE
  8
0
 10
895
 20
157.5
 11
890.1
 21
157.5
  0
LINE
  8
0
 10
1245
 20
145
 11
1245
 21
155
  0
LINE
  8
0
 10
1245
 20
155
 11
1249.9
 21
155
  0
LINE
  8
0
 10
1249.9
 20
155
 11
1249.9
 21
145
  0
LINE
  8
0
 10
1249.9
 20
145
 11
1245
 21
145
  0
LINE
  8
0
 10
890.1
 20
137.5
 11
890.1
 21
147.5
  0
LINE
  8
0
 10
890.1
 20
147.5
 11
895
 21
147.5
  0
LINE
  8
0
 10
895
 20
147.5
 11
895
 21
137.5
  0
LINE
  8
0
 10
895
 20
137.5
 11
890.1
 21
137.5
  0
LINE
  8
0
 10
1245
 20
125
 11
1245
 21
135
  0
LINE
  8
0
 10
1245
 20
135
 11
1249.9
 21
135
  0
LINE
  8
0
 10
1249.9
 20
135
 11
1249.9
 21
125
  0
LINE
  8
0
 10
1249.9
 20
125
 11
1245
 21
125
  0
LINE
  8
0
 10
890.1
 20
112.5
 11
890.1
 21
122.5
  0
LINE
  8
0
 10
890.1
 20
122.5
 11
895
 21
122.5
  0
LINE
  8
0
 10
895
 20
122.5
 11
895
 21
112.5
  0
LINE
  8
0
 10
895
 20
112.5
 11
890.1
 21
112.5
  0
LINE
  8
0
 10
1245
 20
105
 11
1245
 21
115
  0
LINE
  8
0
 10
1245
 20
115
 11
1249.9
 21
115
  0
LINE
  8
0
 10
1249.9
 20
115
 11
1249.9
 21
105
  0
LINE
  8
0
 10
1249.9
 20
105
 11
1245
 21
105
  0
LINE
  8
0
 10
890.1
 20
92.5
 11
890.1
 21
102.5
  0
LINE
  8
0
 10
890.1
 20
102.5
 11
895
 21
102.5
  0
LINE
  8
0
 10
895
 20
102.5
 11
895
 21
92.5
  0
LINE
  8
0
 10
895
 20
92.5
 11
890.1
 21
92.5
  0
LINE
  8
0
 10
1245
 20
85
 11
1245
 21
95
  0
LINE
  8
0
 10
1245
 20
95
 11
1249.9
 21
95
  0
LINE
  8
0
 10
1249.9
 20
95
 11
1249.9
 21
85
  0
LINE
  8
0
 10
1249.9
 20
85
 11
1245
 21
85
  0
LINE
  8
0
 10
1155
 20
60.1
 11
1155
 21
65
  0
LINE
  8
0
 10
1155
 20
65
 11
1165
 21
65
  0
LINE
  8
0
 10
1165
 20
65
 11
1165
 21
60.1
  0
LINE
  8
0
 10
1165
 20
60.1
 11
1155
 21
60.1
  0
LINE
  8
0
 10
935
 20
60.1
 11
935
 21
65
  0
LINE
  8
0
 10
935
 20
65
 11
945
 21
65
  0
LINE
  8
0
 10
945
 20
65
 11
945
 21
60.1
  0
LINE
  8
0
 10
945
 20
60.1
 11
935
 21
60.1
  0
LINE
  8
0
 10
975
 20
60.1
 11
975
 21
65
  0
LINE
  8
0
 10
975
 20
65
 11
985
 21
65
  0
LINE
  8
0
 10
985
 20
65
 11
985
 21
60.1
  0
LINE
  8
0
 10
985
 20
60.1
 11
975
 21
60.1
  0
LINE
  8
0
 10
1195
 20
60.1
 11
1195
 21
65
  0
LINE
  8
0
 10
1195
 20
65
 11
1205
 21
65
  0
LINE
  8
0
 10
1205
 20
65
 11
1205
 21
60.1
  0
LINE
  8
0
 10
1205
 20
60.1
 11
1195
 21
60.1
  0
LINE
  8
0
 10
955
 20
60.1
 11
955
 21
65
  0
LINE
  8
0
 10
955
 20
65
 11
965
 21
65
  0
LINE
  8
0
 10
965
 20
65
 11
965
 21
60.1
  0
LINE
  8
0
 10
965
 20
60.1
 11
955
 21
60.1
  0
LINE
  8
0
 10
995
 20
60.1
 11
995
 21
65
  0
LINE
  8
0
 10
995
 20
65
 11
1005
 21
65
  0
LINE
  8
0
 10
1005
 20
65
 11
1005
 21
60.1
  0
LINE
  8
0
 10
1005
 20
60.1
 11
995
 21
60.1
  0
LINE
  8
0
 10
915
 20
60.1
 11
915
 21
65
  0
LINE
  8
0
 10
915
 20
65
 11
925
 21
65
  0
LINE
  8
0
 10
925
 20
65
 11
925
 21
60.1
  0
LINE
  8
0
 10
925
 20
60.1
 11
915
 21
60.1
  0
LINE
  8
0
 10
1035
 20
60.1
 11
1035
 21
65
  0
LINE
  8
0
 10
1035
 20
65
 11
1045
 21
65
  0
LINE
  8
0
 10
1045
 20
65
 11
1045
 21
60.1
  0
LINE
  8
0
 10
1045
 20
60.1
 11
1035
 21
60.1
  0
LINE
  8
0
 10
1115
 20
60.1
 11
1115
 21
65
  0
LINE
  8
0
 10
1115
 20
65
 11
1125
 21
65
  0
LINE
  8
0
 10
1125
 20
65
 11
1125
 21
60.1
  0
LINE
  8
0
 10
1125
 20
60.1
 11
1115
 21
60.1
  0
LINE
  8
0
 10
1135
 20
60.1
 11
1135
 21
65
  0
LINE
  8
0
 10
1135
 20
65
 11
1145
 21
65
  0
LINE
  8
0
 10
1145
 20
65
 11
1145
 21
60.1
  0
LINE
  8
0
 10
1145
 20
60.1
 11
1135
 21
60.1
  0
LINE
  8
0
 10
1015
 20
60.1
 11
1015
 21
65
  0
LINE
  8
0
 10
1015
 20
65
 11
1025
 21
65
  0
LINE
  8
0
 10
1025
 20
65
 11
1025
 21
60.1
  0
LINE
  8
0
 10
1025
 20
60.1
 11
1015
 21
60.1
  0
LINE
  8
0
 10
1095
 20
60.1
 11
1095
 21
65
  0
LINE
  8
0
 10
1095
 20
65
 11
1105
 21
65
  0
LINE
  8
0
 10
1105
 20
65
 11
1105
 21
60.1
  0
LINE
  8
0
 10
1105
 20
60.1
 11
1095
 21
60.1
  0
LINE
  8
0
 10
1175
 20
60.1
 11
1175
 21
65
  0
LINE
  8
0
 10
1175
 20
65
 11
1185
 21
65
  0
LINE
  8
0
 10
1185
 20
65
 11
1185
 21
60.1
  0
LINE
  8
0
 10
1185
 20
60.1
 11
1175
 21
60.1
  0
LINE
  8
0
 10
1075
 20
60.1
 11
1075
 21
65
  0
LINE
  8
0
 10
1075
 20
65
 11
1085
 21
65
  0
LINE
  8
0
 10
1085
 20
65
 11
1085
 21
60.1
  0
LINE
  8
0
 10
1085
 20
60.1
 11
1075
 21
60.1
  0
LINE
  8
0
 10
1055
 20
60.1
 11
1055
 21
65
  0
LINE
  8
0
 10
1055
 20
65
 11
1065
 21
65
  0
LINE
  8
0
 10
1065
 20
65
 11
1065
 21
60.1
  0
LINE
  8
0
 10
1065
 20
60.1
 11
1055
 21
60.1
  0
LINE
  8
0
 10
1215
 20
60.1
 11
1215
 21
65
  0
LINE
  8
0
 10
1215
 20
65
 11
1225
 21
65
  0
LINE
  8
0
 10
1225
 20
65
 11
1225
 21
60.1
  0
LINE
  8
0
 10
1225
 20
60.1
 11
1215
 21
60.1
  0
LINE
  8
0
 10
1005
 20
199.9
 11
1005
 21
195
  0
LINE
  8
0
 10
1005
 20
195
 11
995
 21
195
  0
LINE
  8
0
 10
995
 20
195
 11
995
 21
199.9
  0
LINE
  8
0
 10
995
 20
199.9
 11
1005
 21
199.9
  0
LINE
  8
0
 10
857.4
 20
55.5573
 11
859.8
 21
55.4
  0
LINE
  8
0
 10
859.8
 20
55.4
 11
863.037
 21
55.6122
  0
LINE
  8
0
 10
863.037
 20
55.6122
 11
866.219
 21
56.245
  0
LINE
  8
0
 10
866.219
 20
56.245
 11
869.291
 21
57.2878
  0
LINE
  8
0
 10
869.291
 20
57.2878
 11
872.2
 21
58.7226
  0
LINE
  8
0
 10
872.2
 20
58.7226
 11
874.897
 21
60.5248
  0
LINE
  8
0
 10
874.897
 20
60.5248
 11
877.336
 21
62.6637
  0
LINE
  8
0
 10
877.336
 20
62.6637
 11
879.475
 21
65.1027
  0
LINE
  8
0
 10
879.475
 20
65.1027
 11
881.277
 21
67.8
  0
LINE
  8
0
 10
881.277
 20
67.8
 11
882.712
 21
70.7094
  0
LINE
  8
0
 10
882.712
 20
70.7094
 11
883.755
 21
73.7813
  0
LINE
  8
0
 10
883.755
 20
73.7813
 11
884.388
 21
76.963
  0
LINE
  8
0
 10
884.388
 20
76.963
 11
884.6
 21
80.2
  0
LINE
  8
0
 10
884.6
 20
80.2
 11
884.443
 21
82.6
  0
LINE
  8
0
 10
884.443
 20
82.6
 11
884.6
 21
82.6
  0
LINE
  8
0
 10
884.6
 20
82.6
 11
884.6
 21
177.4
  0
LINE
  8
0
 10
884.6
 20
177.4
 11
884.443
 21
177.4
  0
LINE
  8
0
 10
884.443
 20
177.4
 11
884.6
 21
179.8
  0
LINE
  8
0
 10
884.6
 20
179.8
 11
884.388
 21
183.037
  0
LINE
  8
0
 10
884.388
 20
183.037
 11
883.755
 21
186.219
  0
LINE
  8
0
 10
883.755
 20
186.219
 11
882.712
 21
189.291
  0
LINE
  8
0
 10
882.712
 20
189.291
 11
881.277
 21
192.2
  0
LINE
  8
0
 10
881.277
 20
192.2
 11
879.475
 21
194.897
  0
LINE
  8
0
 10
879.475
 20
194.897
 11
877.336
 21
197.336
  0
LINE
  8
0
 10
877.336
 20
197.336
 11
874.897
 21
199.475
  0
LINE
  8
0
 10
874.897
 20
199.475
 11
872.2
 21
201.277
  0
LINE
  8
0
 10
872.2
 20
201.277
 11
869.291
 21
202.712
  0
LINE
  8
0
 10
869.291
 20
202.712
 11
866.219
 21
203.755
  0
LINE
  8
0
 10
866.219
 20
203.755
 11
863.037
 21
204.388
  0
LINE
  8
0
 10
863.037
 20
204.388
 11
859.8
 21
204.6
  0
LINE
  8
0
 10
859.8
 20
204.6
 11
857.4
 21
204.443
  0
LINE
  8
0
 10
857.4
 20
204.443
 11
857.4
 21
204.6
  0
LINE
  8
0
 10
857.4
 20
204.6
 11
542.6
 21
204.6
  0
LINE
  8
0
 10
542.6
 20
204.6
 11
542.6
 21
204.443
  0
LINE
  8
0
 10
542.6
 20
204.443
 11
540.2
 21
204.6
  0
LINE
  8
0
 10
540.2
 20
204.6
 11
536.963
 21
204.388
  0
LINE
  8
0
 10
536.963
 20
204.388
 11
533.781
 21
203.755
  0
LINE
  8
0
 10
533.781
 20
203.755
 11
530.709
 21
202.712
  0
LINE
  8
0
 10
530.709
 20
202.712
 11
527.8
 21
201.277
  0
LINE
  8
0
 10
527.8
 20
201.277
 11
525.103
 21
199.475
  0
LINE
  8
0
 10
525.103
 20
199.475
 11
522.664
 21
197.336
  0
LINE
  8
0
 10
522.664
 20
197.336
 11
520.525
 21
194.897
  0
LINE
  8
0
 10
520.525
 20
194.897
 11
518.723
 21
192.2
  0
LINE
  8
0
 10
518.723
 20
192.2
 11
517.288
 21
189.291
  0
LINE
  8
0
 10
517.288
 20
189.291
 11
516.245
 21
186.219
  0
LINE
  8
0
 10
516.245
 20
186.219
 11
515.612
 21
183.037
  0
LINE
  8
0
 10
515.612
 20
183.037
 11
515.4
 21
179.8
  0
LINE
  8
0
 10
515.4
 20
179.8
 11
515.557
 21
177.4
  0
LINE
  8
0
 10
515.557
 20
177.4
 11
515.4
 21
177.4
  0
LINE
  8
0
 10
515.4
 20
177.4
 11
515.4
 21
82.6
  0
LINE
  8
0
 10
515.4
 20
82.6
 11
515.557
 21
82.6
  0
LINE
  8
0
 10
515.557
 20
82.6
 11
515.4
 21
80.2
  0
LINE
  8
0
 10
515.4
 20
80.2
 11
515.612
 21
76.963
  0
LINE
  8
0
 10
515.612
 20
76.963
 11
516.245
 21
73.7813
  0
LINE
  8
0
 10
516.245
 20
73.7813
 11
517.288
 21
70.7094
  0
LINE
  8
0
 10
517.288
 20
70.7094
 11
518.723
 21
67.8
  0
LINE
  8
0
 10
518.723
 20
67.8
 11
520.525
 21
65.1027
  0
LINE
  8
0
 10
520.525
 20
65.1027
 11
522.664
 21
62.6637
  0
LINE
  8
0
 10
522.664
 20
62.6637
 11
525.103
 21
60.5248
  0
LINE
  8
0
 10
525.103
 20
60.5248
 11
527.8
 21
58.7226
  0
LINE
  8
0
 10
527.8
 20
58.7226
 11
530.709
 21
57.2878
  0
LINE
  8
0
 10
530.709
 20
57.2878
 11
533.781
 21
56.245
  0
LINE
  8
0
 10
533.781
 20
56.245
 11
536.963
 21
55.6122
  0
LINE
  8
0
 10
536.963
 20
55.6122
 11
540.2
 21
55.4
  0
LINE
  8
0
 10
540.2
 20
55.4
 11
542.6
 21
55.5573
  0
LINE
  8
0
 10
542.6
 20
55.5573
 11
542.6
 21
55.4
  0
LINE
  8
0
 10
542.6
 20
55.4
 11
857.4
 21
55.4
  0
LINE
  8
0
 10
857.4
 20
55.4
 11
857.4
 21
55.5573
  0
LINE
  8
0
 10
645
 20
195
 11
645
 21
199.9
  0
LINE
  8
0
 10
645
 20
199.9
 11
655
 21
199.9
  0
LINE
  8
0
 10
655
 20
199.9
 11
655
 21
195
  0
LINE
  8
0
 10
655
 20
195
 11
645
 21
195
  0
LINE
  8
0
 10
605
 20
195
 11
605
 21
199.9
  0
LINE
  8
0
 10
605
 20
199.9
 11
615
 21
199.9
  0
LINE
  8
0
 10
615
 20
199.9
 11
615
 21
195
  0
LINE
  8
0
 10
615
 20
195
 11
605
 21
195
  0
LINE
  8
0
 10
565
 20
195
 11
565
 21
199.9
  0
LINE
  8
0
 10
565
 20
199.9
 11
575
 21
199.9
  0
LINE
  8
0
 10
575
 20
199.9
 11
575
 21
195
  0
LINE
  8
0
 10
575
 20
195
 11
565
 21
195
  0
LINE
  8
0
 10
625
 20
195
 11
625
 21
199.9
  0
LINE
  8
0
 10
625
 20
199.9
 11
635
 21
199.9
  0
LINE
  8
0
 10
635
 20
199.9
 11
635
 21
195
  0
LINE
  8
0
 10
635
 20
195
 11
625
 21
195
  0
LINE
  8
0
 10
705
 20
199.9
 11
715
 21
199.9
  0
LINE
  8
0
 10
715
 20
199.9
 11
715
 21
195
  0
LINE
  8
0
 10
715
 20
195
 11
705
 21
195
  0
LINE
  8
0
 10
705
 20
195
 11
705
 21
199.9
  0
LINE
  8
0
 10
745
 20
199.9
 11
755
 21
199.9
  0
LINE
  8
0
 10
755
 20
199.9
 11
755
 21
195
  0
LINE
  8
0
 10
755
 20
195
 11
745
 21
195
  0
LINE
  8
0
 10
745
 20
195
 11
745
 21
199.9
  0
LINE
  8
0
 10
585
 20
195
 11
585
 21
199.9
  0
LINE
  8
0
 10
585
 20
199.9
 11
595
 21
199.9
  0
LINE
  8
0
 10
595
 20
199.9
 11
595
 21
195
  0
LINE
  8
0
 10
595
 20
195
 11
585
 21
195
  0
LINE
  8
0
 10
685
 20
195
 11
685
 21
199.9
  0
LINE
  8
0
 10
685
 20
199.9
 11
695
 21
199.9
  0
LINE
  8
0
 10
695
 20
199.9
 11
695
 21
195
  0
LINE
  8
0
 10
695
 20
195
 11
685
 21
195
  0
LINE
  8
0
 10
845
 20
195
 11
845
 21
199.9
  0
LINE
  8
0
 10
845
 20
199.9
 11
855
 21
199.9
  0
LINE
  8
0
 10
855
 20
199.9
 11
855
 21
195
  0
LINE
  8
0
 10
855
 20
195
 11
845
 21
195
  0
LINE
  8
0
 10
825
 20
195
 11
825
 21
199.9
  0
LINE
  8
0
 10
825
 20
199.9
 11
835
 21
199.9
  0
LINE
  8
0
 10
835
 20
199.9
 11
835
 21
195
  0
LINE
  8
0
 10
835
 20
195
 11
825
 21
195
  0
LINE
  8
0
 10
545
 20
195
 11
545
 21
199.9
  0
LINE
  8
0
 10
545
 20
199.9
 11
555
 21
199.9
  0
LINE
  8
0
 10
555
 20
199.9
 11
555
 21
195
  0
LINE
  8
0
 10
555
 20
195
 11
545
 21
195
  0
LINE
  8
0
 10
805
 20
195
 11
805
 21
199.9
  0
LINE
  8
0
 10
805
 20
199.9
 11
815
 21
199.9
  0
LINE
  8
0
 10
815
 20
199.9
 11
815
 21
195
  0
LINE
  8
0
 10
815
 20
195
 11
805
 21
195
  0
LINE
  8
0
 10
665
 20
195
 11
665
 21
199.9
  0
LINE
  8
0
 10
665
 20
199.9
 11
675
 21
199.9
  0
LINE
  8
0
 10
675
 20
199.9
 11
675
 21
195
  0
LINE
  8
0
 10
675
 20
195
 11
665
 21
195
  0
LINE
  8
0
 10
875
 20
165
 11
875
 21
175
  0
LINE
  8
0
 10
875
 20
175
 11
879.9
 21
175
  0
LINE
  8
0
 10
879.9
 20
175
 11
879.9
 21
165
  0
LINE
  8
0
 10
879.9
 20
165
 11
875
 21
165
  0
LINE
  8
0
 10
520.1
 20
157.5
 11
520.1
 21
167.5
  0
LINE
  8
0
 10
520.1
 20
167.5
 11
525
 21
167.5
  0
LINE
  8
0
 10
525
 20
167.5
 11
525
 21
157.5
  0
LINE
  8
0
 10
525
 20
157.5
 11
520.1
 21
157.5
  0
LINE
  8
0
 10
875
 20
145
 11
875
 21
155
  0
LINE
  8
0
 10
875
 20
155
 11
879.9
 21
155
  0
LINE
  8
0
 10
879.9
 20
155
 11
879.9
 21
145
  0
LINE
  8
0
 10
879.9
 20
145
 11
875
 21
145
  0
LINE
  8
0
 10
520.1
 20
137.5
 11
520.1
 21
147.5
  0
LINE
  8
0
 10
520.1
 20
147.5
 11
525
 21
147.5
  0
LINE
  8
0
 10
525
 20
147.5
 11
525
 21
137.5
  0
LINE
  8
0
 10
525
 20
137.5
 11
520.1
 21
137.5
  0
LINE
  8
0
 10
875
 20
125
 11
875
 21
135
  0
LINE
  8
0
 10
875
 20
135
 11
879.9
 21
135
  0
LINE
  8
0
 10
879.9
 20
135
 11
879.9
 21
125
  0
LINE
  8
0
 10
879.9
 20
125
 11
875
 21
125
  0
LINE
  8
0
 10
520.1
 20
112.5
 11
520.1
 21
122.5
  0
LINE
  8
0
 10
520.1
 20
122.5
 11
525
 21
122.5
  0
LINE
  8
0
 10
525
 20
122.5
 11
525
 21
112.5
  0
LINE
  8
0
 10
525
 20
112.5
 11
520.1
 21
112.5
  0
LINE
  8
0
 10
875
 20
105
 11
875
 21
115
  0
LINE
  8
0
 10
875
 20
115
 11
879.9
 21
115
  0
LINE
  8
0
 10
879.9
 20
115
 11
879.9
 21
105
  0
LINE
  8
0
 10
879.9
 20
105
 11
875
 21
105
  0
LINE
  8
0
 10
520.1
 20
92.5
 11
520.1
 21
102.5
  0
LINE
  8
0
 10
520.1
 20
102.5
 11
525
 21
102.5
  0
LINE
  8
0
 10
525
 20
102.5
 11
525
 21
92.5
  0
LINE
  8
0
 10
525
 20
92.5
 11
520.1
 21
92.5
  0
LINE
  8
0
 10
875
 20
85
 11
875
 21
95
  0
LINE
  8
0
 10
875
 20
95
 11
879.9
 21
95
  0
LINE
  8
0
 10
879.9
 20
95
 11
879.9
 21
85
  0
LINE
  8
0
 10
879.9
 20
85
 11
875
 21
85
  0
LINE
  8
0
 10
605
 20
60.1
 11
605
 21
65
  0
LINE
  8
0
 10
605
 20
65
 11
615
 21
65
  0
LINE
  8
0
 10
615
 20
65
 11
615
 21
60.1
  0
LINE
  8
0
 10
615
 20
60.1
 11
605
 21
60.1
  0
LINE
  8
0
 10
765
 20
60.1
 11
765
 21
65
  0
LINE
  8
0
 10
765
 20
65
 11
775
 21
65
  0
LINE
  8
0
 10
775
 20
65
 11
775
 21
60.1
  0
LINE
  8
0
 10
775
 20
60.1
 11
765
 21
60.1
  0
LINE
  8
0
 10
825
 20
60.1
 11
825
 21
65
  0
LINE
  8
0
 10
825
 20
65
 11
835
 21
65
  0
LINE
  8
0
 10
835
 20
65
 11
835
 21
60.1
  0
LINE
  8
0
 10
835
 20
60.1
 11
825
 21
60.1
  0
LINE
  8
0
 10
785
 20
60.1
 11
785
 21
65
  0
LINE
  8
0
 10
785
 20
65
 11
795
 21
65
  0
LINE
  8
0
 10
795
 20
65
 11
795
 21
60.1
  0
LINE
  8
0
 10
795
 20
60.1
 11
785
 21
60.1
  0
LINE
  8
0
 10
805
 20
60.1
 11
805
 21
65
  0
LINE
  8
0
 10
805
 20
65
 11
815
 21
65
  0
LINE
  8
0
 10
815
 20
65
 11
815
 21
60.1
  0
LINE
  8
0
 10
815
 20
60.1
 11
805
 21
60.1
  0
LINE
  8
0
 10
565
 20
60.1
 11
565
 21
65
  0
LINE
  8
0
 10
565
 20
65
 11
575
 21
65
  0
LINE
  8
0
 10
575
 20
65
 11
575
 21
60.1
  0
LINE
  8
0
 10
575
 20
60.1
 11
565
 21
60.1
  0
LINE
  8
0
 10
845
 20
60.1
 11
845
 21
65
  0
LINE
  8
0
 10
845
 20
65
 11
855
 21
65
  0
LINE
  8
0
 10
855
 20
65
 11
855
 21
60.1
  0
LINE
  8
0
 10
855
 20
60.1
 11
845
 21
60.1
  0
LINE
  8
0
 10
585
 20
60.1
 11
585
 21
65
  0
LINE
  8
0
 10
585
 20
65
 11
595
 21
65
  0
LINE
  8
0
 10
595
 20
65
 11
595
 21
60.1
  0
LINE
  8
0
 10
595
 20
60.1
 11
585
 21
60.1
  0
LINE
  8
0
 10
545
 20
60.1
 11
545
 21
65
  0
LINE
  8
0
 10
545
 20
65
 11
555
 21
65
  0
LINE
  8
0
 10
555
 20
65
 11
555
 21
60.1
  0
LINE
  8
0
 10
555
 20
60.1
 11
545
 21
60.1
  0
LINE
  8
0
 10
625
 20
60.1
 11
625
 21
65
  0
LINE
  8
0
 10
625
 20
65
 11
635
 21
65
  0
LINE
  8
0
 10
635
 20
65
 11
635
 21
60.1
  0
LINE
  8
0
 10
635
 20
60.1
 11
625
 21
60.1
  0
LINE
  8
0
 10
745
 20
60.1
 11
745
 21
65
  0
LINE
  8
0
 10
745
 20
65
 11
755
 21
65
  0
LINE
  8
0
 10
755
 20
65
 11
755
 21
60.1
  0
LINE
  8
0
 10
755
 20
60.1
 11
745
 21
60.1
  0
LINE
  8
0
 10
725
 20
60.1
 11
725
 21
65
  0
LINE
  8
0
 10
725
 20
65
 11
735
 21
65
  0
LINE
  8
0
 10
735
 20
65
 11
735
 21
60.1
  0
LINE
  8
0
 10
735
 20
60.1
 11
725
 21
60.1
  0
LINE
  8
0
 10
705
 20
60.1
 11
705
 21
65
  0
LINE
  8
0
 10
705
 20
65
 11
715
 21
65
  0
LINE
  8
0
 10
715
 20
65
 11
715
 21
60.1
  0
LINE
  8
0
 10
715
 20
60.1
 11
705
 21
60.1
  0
LINE
  8
0
 10
685
 20
60.1
 11
685
 21
65
  0
LINE
  8
0
 10
685
 20
65
 11
695
 21
65
  0
LINE
  8
0
 10
695
 20
65
 11
695
 21
60.1
  0
LINE
  8
0
 10
695
 20
60.1
 11
685
 21
60.1
  0
LINE
  8
0
 10
665
 20
60.1
 11
665
 21
65
  0
LINE
  8
0
 10
665
 20
65
 11
675
 21
65
  0
LINE
  8
0
 10
675
 20
65
 11
675
 21
60.1
  0
LINE
  8
0
 10
675
 20
60.1
 11
665
 21
60.1
  0
LINE
  8
0
 10
645
 20
60.1
 11
645
 21
65
  0
LINE
  8
0
 10
645
 20
65
 11
655
 21
65
  0
LINE
  8
0
 10
655
 20
65
 11
655
 21
60.1
  0
LINE
  8
0
 10
655
 20
60.1
 11
645
 21
60.1
  0
LINE
  8
0
 10
795
 20
199.9
 11
795
 21
195
  0
LINE
  8
0
 10
795
 20
195
 11
785
 21
195
  0
LINE
  8
0
 10
785
 20
195
 11
785
 21
199.9
  0
LINE
  8
0
 10
785
 20
199.9
 11
795
 21
199.9
  0
LINE
  8
0
 10
765
 20
199.9
 11
775
 21
199.9
  0
LINE
  8
0
 10
775
 20
199.9
 11
775
 21
195
  0
LINE
  8
0
 10
775
 20
195
 11
765
 21
195
  0
LINE
  8
0
 10
765
 20
195
 11
765
 21
199.9
  0
LINE
  8
0
 10
735
 20
199.9
 11
735
 21
195
  0
LINE
  8
0
 10
735
 20
195
 11
725
 21
195
  0
LINE
  8
0
 10
725
 20
195
 11
725
 21
199.9
  0
LINE
  8
0
 10
725
 20
199.9
 11
735
 21
199.9
  0
ENDSEC
  0
SECTION
  2
OBJECTS
  0
DICTIONARY
  0
ENDSEC
  0
EOF
