  0
SECTION
  2
BLOCKS
  0
ENDSEC
  0
SECTION
  2
ENTITIES
  0
LINE
  8
0
 10
372.952
 20
905.8
 11
372.952
 21
910
  0
LINE
  8
0
 10
372.952
 20
910
 11
522.952
 21
910
  0
LINE
  8
0
 10
522.952
 20
910
 11
522.952
 21
905.8
  0
LINE
  8
0
 10
522.952
 20
905.8
 11
532.952
 21
905.8
  0
LINE
  8
0
 10
532.952
 20
905.8
 11
532.952
 21
910
  0
LINE
  8
0
 10
532.952
 20
910
 11
602.952
 21
910
  0
LINE
  8
0
 10
602.952
 20
910
 11
602.952
 21
905.8
  0
LINE
  8
0
 10
602.952
 20
905.8
 11
612.952
 21
905.8
  0
LINE
  8
0
 10
612.952
 20
905.8
 11
612.952
 21
910
  0
LINE
  8
0
 10
612.952
 20
910
 11
622.952
 21
910
  0
LINE
  8
0
 10
622.952
 20
910
 11
622.952
 21
905.8
  0
LINE
  8
0
 10
622.952
 20
905.8
 11
632.952
 21
905.8
  0
LINE
  8
0
 10
632.952
 20
905.8
 11
632.952
 21
910
  0
LINE
  8
0
 10
632.952
 20
910
 11
642.952
 21
910
  0
LINE
  8
0
 10
642.952
 20
910
 11
642.952
 21
905.8
  0
LINE
  8
0
 10
642.952
 20
905.8
 11
652.952
 21
905.8
  0
LINE
  8
0
 10
652.952
 20
905.8
 11
652.952
 21
910
  0
LINE
  8
0
 10
652.952
 20
910
 11
654.855
 21
910
  0
LINE
  8
0
 10
654.855
 20
910
 11
654.855
 21
928
  0
LINE
  8
0
 10
654.855
 20
928
 11
655.055
 21
928
  0
LINE
  8
0
 10
655.055
 20
928
 11
655.055
 21
910
  0
LINE
  8
0
 10
655.055
 20
910
 11
658.861
 21
910
  0
LINE
  8
0
 10
658.861
 20
910
 11
658.861
 21
928
  0
LINE
  8
0
 10
658.861
 20
928
 11
659.061
 21
928
  0
LINE
  8
0
 10
659.061
 20
928
 11
659.061
 21
910
  0
LINE
  8
0
 10
659.061
 20
910
 11
662.867
 21
910
  0
LINE
  8
0
 10
662.867
 20
910
 11
662.867
 21
928
  0
LINE
  8
0
 10
662.867
 20
928
 11
663.067
 21
928
  0
LINE
  8
0
 10
663.067
 20
928
 11
663.067
 21
910
  0
LINE
  8
0
 10
663.067
 20
910
 11
666.873
 21
910
  0
LINE
  8
0
 10
666.873
 20
910
 11
666.873
 21
928
  0
LINE
  8
0
 10
666.873
 20
928
 11
667.073
 21
928
  0
LINE
  8
0
 10
667.073
 20
928
 11
667.073
 21
910
  0
LINE
  8
0
 10
667.073
 20
910
 11
670.879
 21
910
  0
LINE
  8
0
 10
670.879
 20
910
 11
670.879
 21
928
  0
LINE
  8
0
 10
670.879
 20
928
 11
671.079
 21
928
  0
LINE
  8
0
 10
671.079
 20
928
 11
671.079
 21
910
  0
LINE
  8
0
 10
671.079
 20
910
 11
674.885
 21
910
  0
LINE
  8
0
 10
674.885
 20
910
 11
674.885
 21
928
  0
LINE
  8
0
 10
674.885
 20
928
 11
675.085
 21
928
  0
LINE
  8
0
 10
675.085
 20
928
 11
675.085
 21
910
  0
LINE
  8
0
 10
675.085
 20
910
 11
678.891
 21
910
  0
LINE
  8
0
 10
678.891
 20
910
 11
678.891
 21
928
  0
LINE
  8
0
 10
678.891
 20
928
 11
679.091
 21
928
  0
LINE
  8
0
 10
679.091
 20
928
 11
679.091
 21
910
  0
LINE
  8
0
 10
679.091
 20
910
 11
682.897
 21
910
  0
LINE
  8
0
 10
682.897
 20
910
 11
682.897
 21
928
  0
LINE
  8
0
 10
682.897
 20
928
 11
683.097
 21
928
  0
LINE
  8
0
 10
683.097
 20
928
 11
683.097
 21
910
  0
LINE
  8
0
 10
683.097
 20
910
 11
685
 21
910
  0
LINE
  8
0
 10
685
 20
910
 11
685
 21
905.8
  0
LINE
  8
0
 10
685
 20
905.8
 11
695
 21
905.8
  0
LINE
  8
0
 10
695
 20
905.8
 11
695
 21
910
  0
LINE
  8
0
 10
695
 20
910
 11
705
 21
910
  0
LINE
  8
0
 10
705
 20
910
 11
705
 21
905.8
  0
LINE
  8
0
 10
705
 20
905.8
 11
715
 21
905.8
  0
LINE
  8
0
 10
715
 20
905.8
 11
715
 21
910
  0
LINE
  8
0
 10
715
 20
910
 11
725
 21
910
  0
LINE
  8
0
 10
725
 20
910
 11
725
 21
905.8
  0
LINE
  8
0
 10
725
 20
905.8
 11
735
 21
905.8
  0
LINE
  8
0
 10
735
 20
905.8
 11
735
 21
910
  0
LINE
  8
0
 10
735
 20
910
 11
745
 21
910
  0
LINE
  8
0
 10
745
 20
910
 11
745
 21
905.8
  0
LINE
  8
0
 10
745
 20
905.8
 11
755
 21
905.8
  0
LINE
  8
0
 10
755
 20
905.8
 11
755
 21
910
  0
LINE
  8
0
 10
755
 20
910
 11
765
 21
910
  0
LINE
  8
0
 10
765
 20
910
 11
765
 21
905.8
  0
LINE
  8
0
 10
765
 20
905.8
 11
775
 21
905.8
  0
LINE
  8
0
 10
775
 20
905.8
 11
775
 21
910
  0
LINE
  8
0
 10
775
 20
910
 11
785
 21
910
  0
LINE
  8
0
 10
785
 20
910
 11
785
 21
905.8
  0
LINE
  8
0
 10
785
 20
905.8
 11
795
 21
905.8
  0
LINE
  8
0
 10
795
 20
905.8
 11
795
 21
910
  0
LINE
  8
0
 10
795
 20
910
 11
796.903
 21
910
  0
LINE
  8
0
 10
796.903
 20
910
 11
796.903
 21
928
  0
LINE
  8
0
 10
796.903
 20
928
 11
797.103
 21
928
  0
LINE
  8
0
 10
797.103
 20
928
 11
797.103
 21
910
  0
LINE
  8
0
 10
797.103
 20
910
 11
800.909
 21
910
  0
LINE
  8
0
 10
800.909
 20
910
 11
800.909
 21
928
  0
LINE
  8
0
 10
800.909
 20
928
 11
801.109
 21
928
  0
LINE
  8
0
 10
801.109
 20
928
 11
801.109
 21
910
  0
LINE
  8
0
 10
801.109
 20
910
 11
804.915
 21
910
  0
LINE
  8
0
 10
804.915
 20
910
 11
804.915
 21
928
  0
LINE
  8
0
 10
804.915
 20
928
 11
805.115
 21
928
  0
LINE
  8
0
 10
805.115
 20
928
 11
805.115
 21
910
  0
LINE
  8
0
 10
805.115
 20
910
 11
808.921
 21
910
  0
LINE
  8
0
 10
808.921
 20
910
 11
808.921
 21
928
  0
LINE
  8
0
 10
808.921
 20
928
 11
809.121
 21
928
  0
LINE
  8
0
 10
809.121
 20
928
 11
809.121
 21
910
  0
LINE
  8
0
 10
809.121
 20
910
 11
812.927
 21
910
  0
LINE
  8
0
 10
812.927
 20
910
 11
812.927
 21
928
  0
LINE
  8
0
 10
812.927
 20
928
 11
813.127
 21
928
  0
LINE
  8
0
 10
813.127
 20
928
 11
813.127
 21
910
  0
LINE
  8
0
 10
813.127
 20
910
 11
816.933
 21
910
  0
LINE
  8
0
 10
816.933
 20
910
 11
816.933
 21
928
  0
LINE
  8
0
 10
816.933
 20
928
 11
817.133
 21
928
  0
LINE
  8
0
 10
817.133
 20
928
 11
817.133
 21
910
  0
LINE
  8
0
 10
817.133
 20
910
 11
820.939
 21
910
  0
LINE
  8
0
 10
820.939
 20
910
 11
820.939
 21
928
  0
LINE
  8
0
 10
820.939
 20
928
 11
821.139
 21
928
  0
LINE
  8
0
 10
821.139
 20
928
 11
821.139
 21
910
  0
LINE
  8
0
 10
821.139
 20
910
 11
824.945
 21
910
  0
LINE
  8
0
 10
824.945
 20
910
 11
824.945
 21
928
  0
LINE
  8
0
 10
824.945
 20
928
 11
825.145
 21
928
  0
LINE
  8
0
 10
825.145
 20
928
 11
825.145
 21
910
  0
LINE
  8
0
 10
825.145
 20
910
 11
1127.05
 21
910
  0
LINE
  8
0
 10
1127.05
 20
910
 11
1127.05
 21
905.8
  0
LINE
  8
0
 10
1127.05
 20
905.8
 11
1137.05
 21
905.8
  0
LINE
  8
0
 10
1137.05
 20
905.8
 11
1137.05
 21
910
  0
LINE
  8
0
 10
1137.05
 20
910
 11
1147.05
 21
910
  0
LINE
  8
0
 10
1147.05
 20
910
 11
1147.05
 21
905.8
  0
LINE
  8
0
 10
1147.05
 20
905.8
 11
1157.05
 21
905.8
  0
LINE
  8
0
 10
1157.05
 20
905.8
 11
1157.05
 21
910
  0
LINE
  8
0
 10
1157.05
 20
910
 11
1158.95
 21
910
  0
LINE
  8
0
 10
1158.95
 20
910
 11
1158.95
 21
928
  0
LINE
  8
0
 10
1158.95
 20
928
 11
1159.15
 21
928
  0
LINE
  8
0
 10
1159.15
 20
928
 11
1159.15
 21
910
  0
LINE
  8
0
 10
1159.15
 20
910
 11
1162.96
 21
910
  0
LINE
  8
0
 10
1162.96
 20
910
 11
1162.96
 21
928
  0
LINE
  8
0
 10
1162.96
 20
928
 11
1163.16
 21
928
  0
LINE
  8
0
 10
1163.16
 20
928
 11
1163.16
 21
910
  0
LINE
  8
0
 10
1163.16
 20
910
 11
1166.96
 21
910
  0
LINE
  8
0
 10
1166.96
 20
910
 11
1166.96
 21
928
  0
LINE
  8
0
 10
1166.96
 20
928
 11
1167.16
 21
928
  0
LINE
  8
0
 10
1167.16
 20
928
 11
1167.16
 21
910
  0
LINE
  8
0
 10
1167.16
 20
910
 11
1170.97
 21
910
  0
LINE
  8
0
 10
1170.97
 20
910
 11
1170.97
 21
928
  0
LINE
  8
0
 10
1170.97
 20
928
 11
1171.17
 21
928
  0
LINE
  8
0
 10
1171.17
 20
928
 11
1171.17
 21
910
  0
LINE
  8
0
 10
1171.17
 20
910
 11
1174.98
 21
910
  0
LINE
  8
0
 10
1174.98
 20
910
 11
1174.98
 21
928
  0
LINE
  8
0
 10
1174.98
 20
928
 11
1175.18
 21
928
  0
LINE
  8
0
 10
1175.18
 20
928
 11
1175.18
 21
910
  0
LINE
  8
0
 10
1175.18
 20
910
 11
1178.98
 21
910
  0
LINE
  8
0
 10
1178.98
 20
910
 11
1178.98
 21
928
  0
LINE
  8
0
 10
1178.98
 20
928
 11
1179.18
 21
928
  0
LINE
  8
0
 10
1179.18
 20
928
 11
1179.18
 21
910
  0
LINE
  8
0
 10
1179.18
 20
910
 11
1182.99
 21
910
  0
LINE
  8
0
 10
1182.99
 20
910
 11
1182.99
 21
928
  0
LINE
  8
0
 10
1182.99
 20
928
 11
1183.19
 21
928
  0
LINE
  8
0
 10
1183.19
 20
928
 11
1183.19
 21
910
  0
LINE
  8
0
 10
1183.19
 20
910
 11
1186.99
 21
910
  0
LINE
  8
0
 10
1186.99
 20
910
 11
1186.99
 21
928
  0
LINE
  8
0
 10
1186.99
 20
928
 11
1187.19
 21
928
  0
LINE
  8
0
 10
1187.19
 20
928
 11
1187.19
 21
910
  0
LINE
  8
0
 10
1187.19
 20
910
 11
1191.6
 21
910
  0
LINE
  8
0
 10
1191.6
 20
910
 11
1191.6
 21
905.8
  0
LINE
  8
0
 10
1191.6
 20
905.8
 11
1201.6
 21
905.8
  0
LINE
  8
0
 10
1201.6
 20
905.8
 11
1201.6
 21
910
  0
LINE
  8
0
 10
1201.6
 20
910
 11
1211.6
 21
910
  0
LINE
  8
0
 10
1211.6
 20
910
 11
1211.6
 21
905.8
  0
LINE
  8
0
 10
1211.6
 20
905.8
 11
1221.6
 21
905.8
  0
LINE
  8
0
 10
1221.6
 20
905.8
 11
1221.6
 21
910
  0
LINE
  8
0
 10
1221.6
 20
910
 11
1231.6
 21
910
  0
LINE
  8
0
 10
1231.6
 20
910
 11
1231.6
 21
905.8
  0
LINE
  8
0
 10
1231.6
 20
905.8
 11
1241.6
 21
905.8
  0
LINE
  8
0
 10
1241.6
 20
905.8
 11
1241.6
 21
910
  0
LINE
  8
0
 10
1241.6
 20
910
 11
1244.1
 21
910
  0
LINE
  8
0
 10
1244.1
 20
910
 11
1244.1
 21
950
  0
LINE
  8
0
 10
1244.1
 20
950
 11
1241.6
 21
950
  0
LINE
  8
0
 10
1241.6
 20
950
 11
1241.6
 21
954.2
  0
LINE
  8
0
 10
1241.6
 20
954.2
 11
1231.6
 21
954.2
  0
LINE
  8
0
 10
1231.6
 20
954.2
 11
1231.6
 21
950
  0
LINE
  8
0
 10
1231.6
 20
950
 11
1221.6
 21
950
  0
LINE
  8
0
 10
1221.6
 20
950
 11
1221.6
 21
954.2
  0
LINE
  8
0
 10
1221.6
 20
954.2
 11
1211.6
 21
954.2
  0
LINE
  8
0
 10
1211.6
 20
954.2
 11
1211.6
 21
950
  0
LINE
  8
0
 10
1211.6
 20
950
 11
1201.6
 21
950
  0
LINE
  8
0
 10
1201.6
 20
950
 11
1201.6
 21
954.2
  0
LINE
  8
0
 10
1201.6
 20
954.2
 11
1191.6
 21
954.2
  0
LINE
  8
0
 10
1191.6
 20
954.2
 11
1191.6
 21
950
  0
LINE
  8
0
 10
1191.6
 20
950
 11
1187.19
 21
950
  0
LINE
  8
0
 10
1187.19
 20
950
 11
1187.19
 21
932
  0
LINE
  8
0
 10
1187.19
 20
932
 11
1186.99
 21
932
  0
LINE
  8
0
 10
1186.99
 20
932
 11
1186.99
 21
950
  0
LINE
  8
0
 10
1186.99
 20
950
 11
1183.19
 21
950
  0
LINE
  8
0
 10
1183.19
 20
950
 11
1183.19
 21
932
  0
LINE
  8
0
 10
1183.19
 20
932
 11
1182.99
 21
932
  0
LINE
  8
0
 10
1182.99
 20
932
 11
1182.99
 21
950
  0
LINE
  8
0
 10
1182.99
 20
950
 11
1179.18
 21
950
  0
LINE
  8
0
 10
1179.18
 20
950
 11
1179.18
 21
932
  0
LINE
  8
0
 10
1179.18
 20
932
 11
1178.98
 21
932
  0
LINE
  8
0
 10
1178.98
 20
932
 11
1178.98
 21
950
  0
LINE
  8
0
 10
1178.98
 20
950
 11
1175.18
 21
950
  0
LINE
  8
0
 10
1175.18
 20
950
 11
1175.18
 21
932
  0
LINE
  8
0
 10
1175.18
 20
932
 11
1174.98
 21
932
  0
LINE
  8
0
 10
1174.98
 20
932
 11
1174.98
 21
950
  0
LINE
  8
0
 10
1174.98
 20
950
 11
1171.17
 21
950
  0
LINE
  8
0
 10
1171.17
 20
950
 11
1171.17
 21
932
  0
LINE
  8
0
 10
1171.17
 20
932
 11
1170.97
 21
932
  0
LINE
  8
0
 10
1170.97
 20
932
 11
1170.97
 21
950
  0
LINE
  8
0
 10
1170.97
 20
950
 11
1167.16
 21
950
  0
LINE
  8
0
 10
1167.16
 20
950
 11
1167.16
 21
932
  0
LINE
  8
0
 10
1167.16
 20
932
 11
1166.96
 21
932
  0
LINE
  8
0
 10
1166.96
 20
932
 11
1166.96
 21
950
  0
LINE
  8
0
 10
1166.96
 20
950
 11
1163.16
 21
950
  0
LINE
  8
0
 10
1163.16
 20
950
 11
1163.16
 21
932
  0
LINE
  8
0
 10
1163.16
 20
932
 11
1162.96
 21
932
  0
LINE
  8
0
 10
1162.96
 20
932
 11
1162.96
 21
950
  0
LINE
  8
0
 10
1162.96
 20
950
 11
1159.15
 21
950
  0
LINE
  8
0
 10
1159.15
 20
950
 11
1159.15
 21
932
  0
LINE
  8
0
 10
1159.15
 20
932
 11
1158.95
 21
932
  0
LINE
  8
0
 10
1158.95
 20
932
 11
1158.95
 21
950
  0
LINE
  8
0
 10
1158.95
 20
950
 11
1157.05
 21
950
  0
LINE
  8
0
 10
1157.05
 20
950
 11
1157.05
 21
954.2
  0
LINE
  8
0
 10
1157.05
 20
954.2
 11
1147.05
 21
954.2
  0
LINE
  8
0
 10
1147.05
 20
954.2
 11
1147.05
 21
950
  0
LINE
  8
0
 10
1147.05
 20
950
 11
1137.05
 21
950
  0
LINE
  8
0
 10
1137.05
 20
950
 11
1137.05
 21
954.2
  0
LINE
  8
0
 10
1137.05
 20
954.2
 11
1127.05
 21
954.2
  0
LINE
  8
0
 10
1127.05
 20
954.2
 11
1127.05
 21
950
  0
LINE
  8
0
 10
1127.05
 20
950
 11
1117.05
 21
950
  0
LINE
  8
0
 10
1117.05
 20
950
 11
1117.05
 21
954.2
  0
LINE
  8
0
 10
1117.05
 20
954.2
 11
1107.05
 21
954.2
  0
LINE
  8
0
 10
1107.05
 20
954.2
 11
1107.05
 21
950
  0
LINE
  8
0
 10
1107.05
 20
950
 11
1097.05
 21
950
  0
LINE
  8
0
 10
1097.05
 20
950
 11
1097.05
 21
954.2
  0
LINE
  8
0
 10
1097.05
 20
954.2
 11
1087.05
 21
954.2
  0
LINE
  8
0
 10
1087.05
 20
954.2
 11
1087.05
 21
950
  0
LINE
  8
0
 10
1087.05
 20
950
 11
1077.05
 21
950
  0
LINE
  8
0
 10
1077.05
 20
950
 11
1077.05
 21
954.2
  0
LINE
  8
0
 10
1077.05
 20
954.2
 11
1067.05
 21
954.2
  0
LINE
  8
0
 10
1067.05
 20
954.2
 11
1067.05
 21
950
  0
LINE
  8
0
 10
1067.05
 20
950
 11
1057.05
 21
950
  0
LINE
  8
0
 10
1057.05
 20
950
 11
1057.05
 21
954.2
  0
LINE
  8
0
 10
1057.05
 20
954.2
 11
1047.05
 21
954.2
  0
LINE
  8
0
 10
1047.05
 20
954.2
 11
1047.05
 21
950
  0
LINE
  8
0
 10
1047.05
 20
950
 11
1037.05
 21
950
  0
LINE
  8
0
 10
1037.05
 20
950
 11
1037.05
 21
954.2
  0
LINE
  8
0
 10
1037.05
 20
954.2
 11
1027.05
 21
954.2
  0
LINE
  8
0
 10
1027.05
 20
954.2
 11
1027.05
 21
950
  0
LINE
  8
0
 10
1027.05
 20
950
 11
1017.05
 21
950
  0
LINE
  8
0
 10
1017.05
 20
950
 11
1017.05
 21
954.2
  0
LINE
  8
0
 10
1017.05
 20
954.2
 11
1007.05
 21
954.2
  0
LINE
  8
0
 10
1007.05
 20
954.2
 11
1007.05
 21
950
  0
LINE
  8
0
 10
1007.05
 20
950
 11
997.048
 21
950
  0
LINE
  8
0
 10
997.048
 20
950
 11
997.048
 21
954.2
  0
LINE
  8
0
 10
997.048
 20
954.2
 11
987.048
 21
954.2
  0
LINE
  8
0
 10
987.048
 20
954.2
 11
987.048
 21
950
  0
LINE
  8
0
 10
987.048
 20
950
 11
977.048
 21
950
  0
LINE
  8
0
 10
977.048
 20
950
 11
977.048
 21
954.2
  0
LINE
  8
0
 10
977.048
 20
954.2
 11
967.048
 21
954.2
  0
LINE
  8
0
 10
967.048
 20
954.2
 11
967.048
 21
950
  0
LINE
  8
0
 10
967.048
 20
950
 11
957.048
 21
950
  0
LINE
  8
0
 10
957.048
 20
950
 11
957.048
 21
954.2
  0
LINE
  8
0
 10
957.048
 20
954.2
 11
947.048
 21
954.2
  0
LINE
  8
0
 10
947.048
 20
954.2
 11
947.048
 21
950
  0
LINE
  8
0
 10
947.048
 20
950
 11
937.048
 21
950
  0
LINE
  8
0
 10
937.048
 20
950
 11
937.048
 21
954.2
  0
LINE
  8
0
 10
937.048
 20
954.2
 11
927.048
 21
954.2
  0
LINE
  8
0
 10
927.048
 20
954.2
 11
927.048
 21
950
  0
LINE
  8
0
 10
927.048
 20
950
 11
917.048
 21
950
  0
LINE
  8
0
 10
917.048
 20
950
 11
917.048
 21
954.2
  0
LINE
  8
0
 10
917.048
 20
954.2
 11
907.048
 21
954.2
  0
LINE
  8
0
 10
907.048
 20
954.2
 11
907.048
 21
950
  0
LINE
  8
0
 10
907.048
 20
950
 11
897.048
 21
950
  0
LINE
  8
0
 10
897.048
 20
950
 11
897.048
 21
954.2
  0
LINE
  8
0
 10
897.048
 20
954.2
 11
887.048
 21
954.2
  0
LINE
  8
0
 10
887.048
 20
954.2
 11
887.048
 21
950
  0
LINE
  8
0
 10
887.048
 20
950
 11
877.048
 21
950
  0
LINE
  8
0
 10
877.048
 20
950
 11
877.048
 21
954.2
  0
LINE
  8
0
 10
877.048
 20
954.2
 11
867.048
 21
954.2
  0
LINE
  8
0
 10
867.048
 20
954.2
 11
867.048
 21
950
  0
LINE
  8
0
 10
867.048
 20
950
 11
857.048
 21
950
  0
LINE
  8
0
 10
857.048
 20
950
 11
857.048
 21
954.2
  0
LINE
  8
0
 10
857.048
 20
954.2
 11
847.048
 21
954.2
  0
LINE
  8
0
 10
847.048
 20
954.2
 11
847.048
 21
950
  0
LINE
  8
0
 10
847.048
 20
950
 11
837.048
 21
950
  0
LINE
  8
0
 10
837.048
 20
950
 11
837.048
 21
954.2
  0
LINE
  8
0
 10
837.048
 20
954.2
 11
827.048
 21
954.2
  0
LINE
  8
0
 10
827.048
 20
954.2
 11
827.048
 21
950
  0
LINE
  8
0
 10
827.048
 20
950
 11
825.145
 21
950
  0
LINE
  8
0
 10
825.145
 20
950
 11
825.145
 21
932
  0
LINE
  8
0
 10
825.145
 20
932
 11
824.945
 21
932
  0
LINE
  8
0
 10
824.945
 20
932
 11
824.945
 21
950
  0
LINE
  8
0
 10
824.945
 20
950
 11
821.139
 21
950
  0
LINE
  8
0
 10
821.139
 20
950
 11
821.139
 21
932
  0
LINE
  8
0
 10
821.139
 20
932
 11
820.939
 21
932
  0
LINE
  8
0
 10
820.939
 20
932
 11
820.939
 21
950
  0
LINE
  8
0
 10
820.939
 20
950
 11
817.133
 21
950
  0
LINE
  8
0
 10
817.133
 20
950
 11
817.133
 21
932
  0
LINE
  8
0
 10
817.133
 20
932
 11
816.933
 21
932
  0
LINE
  8
0
 10
816.933
 20
932
 11
816.933
 21
950
  0
LINE
  8
0
 10
816.933
 20
950
 11
813.127
 21
950
  0
LINE
  8
0
 10
813.127
 20
950
 11
813.127
 21
932
  0
LINE
  8
0
 10
813.127
 20
932
 11
812.927
 21
932
  0
LINE
  8
0
 10
812.927
 20
932
 11
812.927
 21
950
  0
LINE
  8
0
 10
812.927
 20
950
 11
809.121
 21
950
  0
LINE
  8
0
 10
809.121
 20
950
 11
809.121
 21
932
  0
LINE
  8
0
 10
809.121
 20
932
 11
808.921
 21
932
  0
LINE
  8
0
 10
808.921
 20
932
 11
808.921
 21
950
  0
LINE
  8
0
 10
808.921
 20
950
 11
805.115
 21
950
  0
LINE
  8
0
 10
805.115
 20
950
 11
805.115
 21
932
  0
LINE
  8
0
 10
805.115
 20
932
 11
804.915
 21
932
  0
LINE
  8
0
 10
804.915
 20
932
 11
804.915
 21
950
  0
LINE
  8
0
 10
804.915
 20
950
 11
801.109
 21
950
  0
LINE
  8
0
 10
801.109
 20
950
 11
801.109
 21
932
  0
LINE
  8
0
 10
801.109
 20
932
 11
800.909
 21
932
  0
LINE
  8
0
 10
800.909
 20
932
 11
800.909
 21
950
  0
LINE
  8
0
 10
800.909
 20
950
 11
797.103
 21
950
  0
LINE
  8
0
 10
797.103
 20
950
 11
797.103
 21
932
  0
LINE
  8
0
 10
797.103
 20
932
 11
796.903
 21
932
  0
LINE
  8
0
 10
796.903
 20
932
 11
796.903
 21
950
  0
LINE
  8
0
 10
796.903
 20
950
 11
795
 21
950
  0
LINE
  8
0
 10
795
 20
950
 11
795
 21
954.2
  0
LINE
  8
0
 10
795
 20
954.2
 11
785
 21
954.2
  0
LINE
  8
0
 10
785
 20
954.2
 11
785
 21
950
  0
LINE
  8
0
 10
785
 20
950
 11
775
 21
950
  0
LINE
  8
0
 10
775
 20
950
 11
775
 21
954.2
  0
LINE
  8
0
 10
775
 20
954.2
 11
765
 21
954.2
  0
LINE
  8
0
 10
765
 20
954.2
 11
765
 21
950
  0
LINE
  8
0
 10
765
 20
950
 11
755
 21
950
  0
LINE
  8
0
 10
755
 20
950
 11
755
 21
954.2
  0
LINE
  8
0
 10
755
 20
954.2
 11
745
 21
954.2
  0
LINE
  8
0
 10
745
 20
954.2
 11
745
 21
950
  0
LINE
  8
0
 10
745
 20
950
 11
735
 21
950
  0
LINE
  8
0
 10
735
 20
950
 11
735
 21
954.2
  0
LINE
  8
0
 10
735
 20
954.2
 11
725
 21
954.2
  0
LINE
  8
0
 10
725
 20
954.2
 11
725
 21
950
  0
LINE
  8
0
 10
725
 20
950
 11
715
 21
950
  0
LINE
  8
0
 10
715
 20
950
 11
715
 21
954.2
  0
LINE
  8
0
 10
715
 20
954.2
 11
705
 21
954.2
  0
LINE
  8
0
 10
705
 20
954.2
 11
705
 21
950
  0
LINE
  8
0
 10
705
 20
950
 11
695
 21
950
  0
LINE
  8
0
 10
695
 20
950
 11
695
 21
954.2
  0
LINE
  8
0
 10
695
 20
954.2
 11
685
 21
954.2
  0
LINE
  8
0
 10
685
 20
954.2
 11
685
 21
950
  0
LINE
  8
0
 10
685
 20
950
 11
683.097
 21
950
  0
LINE
  8
0
 10
683.097
 20
950
 11
683.097
 21
932
  0
LINE
  8
0
 10
683.097
 20
932
 11
682.897
 21
932
  0
LINE
  8
0
 10
682.897
 20
932
 11
682.897
 21
950
  0
LINE
  8
0
 10
682.897
 20
950
 11
679.091
 21
950
  0
LINE
  8
0
 10
679.091
 20
950
 11
679.091
 21
932
  0
LINE
  8
0
 10
679.091
 20
932
 11
678.891
 21
932
  0
LINE
  8
0
 10
678.891
 20
932
 11
678.891
 21
950
  0
LINE
  8
0
 10
678.891
 20
950
 11
675.085
 21
950
  0
LINE
  8
0
 10
675.085
 20
950
 11
675.085
 21
932
  0
LINE
  8
0
 10
675.085
 20
932
 11
674.885
 21
932
  0
LINE
  8
0
 10
674.885
 20
932
 11
674.885
 21
950
  0
LINE
  8
0
 10
674.885
 20
950
 11
671.079
 21
950
  0
LINE
  8
0
 10
671.079
 20
950
 11
671.079
 21
932
  0
LINE
  8
0
 10
671.079
 20
932
 11
670.879
 21
932
  0
LINE
  8
0
 10
670.879
 20
932
 11
670.879
 21
950
  0
LINE
  8
0
 10
670.879
 20
950
 11
667.073
 21
950
  0
LINE
  8
0
 10
667.073
 20
950
 11
667.073
 21
932
  0
LINE
  8
0
 10
667.073
 20
932
 11
666.873
 21
932
  0
LINE
  8
0
 10
666.873
 20
932
 11
666.873
 21
950
  0
LINE
  8
0
 10
666.873
 20
950
 11
663.067
 21
950
  0
LINE
  8
0
 10
663.067
 20
950
 11
663.067
 21
932
  0
LINE
  8
0
 10
663.067
 20
932
 11
662.867
 21
932
  0
LINE
  8
0
 10
662.867
 20
932
 11
662.867
 21
950
  0
LINE
  8
0
 10
662.867
 20
950
 11
659.061
 21
950
  0
LINE
  8
0
 10
659.061
 20
950
 11
659.061
 21
932
  0
LINE
  8
0
 10
659.061
 20
932
 11
658.861
 21
932
  0
LINE
  8
0
 10
658.861
 20
932
 11
658.861
 21
950
  0
LINE
  8
0
 10
658.861
 20
950
 11
655.055
 21
950
  0
LINE
  8
0
 10
655.055
 20
950
 11
655.055
 21
932
  0
LINE
  8
0
 10
655.055
 20
932
 11
654.855
 21
932
  0
LINE
  8
0
 10
654.855
 20
932
 11
654.855
 21
950
  0
LINE
  8
0
 10
654.855
 20
950
 11
652.952
 21
950
  0
LINE
  8
0
 10
652.952
 20
950
 11
652.952
 21
954.2
  0
LINE
  8
0
 10
652.952
 20
954.2
 11
642.952
 21
954.2
  0
LINE
  8
0
 10
642.952
 20
954.2
 11
642.952
 21
950
  0
LINE
  8
0
 10
642.952
 20
950
 11
632.952
 21
950
  0
LINE
  8
0
 10
632.952
 20
950
 11
632.952
 21
954.2
  0
LINE
  8
0
 10
632.952
 20
954.2
 11
622.952
 21
954.2
  0
LINE
  8
0
 10
622.952
 20
954.2
 11
622.952
 21
950
  0
LINE
  8
0
 10
622.952
 20
950
 11
612.952
 21
950
  0
LINE
  8
0
 10
612.952
 20
950
 11
612.952
 21
954.2
  0
LINE
  8
0
 10
612.952
 20
954.2
 11
602.952
 21
954.2
  0
LINE
  8
0
 10
602.952
 20
954.2
 11
602.952
 21
950
  0
LINE
  8
0
 10
602.952
 20
950
 11
592.952
 21
950
  0
LINE
  8
0
 10
592.952
 20
950
 11
592.952
 21
954.2
  0
LINE
  8
0
 10
592.952
 20
954.2
 11
582.952
 21
954.2
  0
LINE
  8
0
 10
582.952
 20
954.2
 11
582.952
 21
950
  0
LINE
  8
0
 10
582.952
 20
950
 11
572.952
 21
950
  0
LINE
  8
0
 10
572.952
 20
950
 11
572.952
 21
954.2
  0
LINE
  8
0
 10
572.952
 20
954.2
 11
562.952
 21
954.2
  0
LINE
  8
0
 10
562.952
 20
954.2
 11
562.952
 21
950
  0
LINE
  8
0
 10
562.952
 20
950
 11
552.952
 21
950
  0
LINE
  8
0
 10
552.952
 20
950
 11
552.952
 21
954.2
  0
LINE
  8
0
 10
552.952
 20
954.2
 11
542.952
 21
954.2
  0
LINE
  8
0
 10
542.952
 20
954.2
 11
542.952
 21
950
  0
LINE
  8
0
 10
542.952
 20
950
 11
532.952
 21
950
  0
LINE
  8
0
 10
532.952
 20
950
 11
532.952
 21
954.2
  0
LINE
  8
0
 10
532.952
 20
954.2
 11
522.952
 21
954.2
  0
LINE
  8
0
 10
522.952
 20
954.2
 11
522.952
 21
950
  0
LINE
  8
0
 10
522.952
 20
950
 11
512.952
 21
950
  0
LINE
  8
0
 10
512.952
 20
950
 11
512.952
 21
954.2
  0
LINE
  8
0
 10
512.952
 20
954.2
 11
502.952
 21
954.2
  0
LINE
  8
0
 10
502.952
 20
954.2
 11
502.952
 21
950
  0
LINE
  8
0
 10
502.952
 20
950
 11
492.952
 21
950
  0
LINE
  8
0
 10
492.952
 20
950
 11
492.952
 21
954.2
  0
LINE
  8
0
 10
492.952
 20
954.2
 11
482.952
 21
954.2
  0
LINE
  8
0
 10
482.952
 20
954.2
 11
482.952
 21
950
  0
LINE
  8
0
 10
482.952
 20
950
 11
472.952
 21
950
  0
LINE
  8
0
 10
472.952
 20
950
 11
472.952
 21
954.2
  0
LINE
  8
0
 10
472.952
 20
954.2
 11
462.952
 21
954.2
  0
LINE
  8
0
 10
462.952
 20
954.2
 11
462.952
 21
950
  0
LINE
  8
0
 10
462.952
 20
950
 11
452.952
 21
950
  0
LINE
  8
0
 10
452.952
 20
950
 11
452.952
 21
954.2
  0
LINE
  8
0
 10
452.952
 20
954.2
 11
442.952
 21
954.2
  0
LINE
  8
0
 10
442.952
 20
954.2
 11
442.952
 21
950
  0
LINE
  8
0
 10
442.952
 20
950
 11
432.952
 21
950
  0
LINE
  8
0
 10
432.952
 20
950
 11
432.952
 21
954.2
  0
LINE
  8
0
 10
432.952
 20
954.2
 11
422.952
 21
954.2
  0
LINE
  8
0
 10
422.952
 20
954.2
 11
422.952
 21
950
  0
LINE
  8
0
 10
422.952
 20
950
 11
412.952
 21
950
  0
LINE
  8
0
 10
412.952
 20
950
 11
412.952
 21
954.2
  0
LINE
  8
0
 10
412.952
 20
954.2
 11
402.952
 21
954.2
  0
LINE
  8
0
 10
402.952
 20
954.2
 11
402.952
 21
950
  0
LINE
  8
0
 10
402.952
 20
950
 11
392.952
 21
950
  0
LINE
  8
0
 10
392.952
 20
950
 11
392.952
 21
954.2
  0
LINE
  8
0
 10
392.952
 20
954.2
 11
382.952
 21
954.2
  0
LINE
  8
0
 10
382.952
 20
954.2
 11
382.952
 21
950
  0
LINE
  8
0
 10
382.952
 20
950
 11
372.952
 21
950
  0
LINE
  8
0
 10
372.952
 20
950
 11
372.952
 21
954.2
  0
LINE
  8
0
 10
372.952
 20
954.2
 11
362.952
 21
954.2
  0
LINE
  8
0
 10
362.952
 20
954.2
 11
362.952
 21
950
  0
LINE
  8
0
 10
362.952
 20
950
 11
352.952
 21
950
  0
LINE
  8
0
 10
352.952
 20
950
 11
352.952
 21
954.2
  0
LINE
  8
0
 10
352.952
 20
954.2
 11
342.952
 21
954.2
  0
LINE
  8
0
 10
342.952
 20
954.2
 11
342.952
 21
950
  0
LINE
  8
0
 10
342.952
 20
950
 11
332.952
 21
950
  0
LINE
  8
0
 10
332.952
 20
950
 11
332.952
 21
954.2
  0
LINE
  8
0
 10
332.952
 20
954.2
 11
322.952
 21
954.2
  0
LINE
  8
0
 10
322.952
 20
954.2
 11
322.952
 21
950
  0
LINE
  8
0
 10
322.952
 20
950
 11
321.049
 21
950
  0
LINE
  8
0
 10
321.049
 20
950
 11
321.049
 21
932
  0
LINE
  8
0
 10
321.049
 20
932
 11
320.849
 21
932
  0
LINE
  8
0
 10
320.849
 20
932
 11
320.849
 21
950
  0
LINE
  8
0
 10
320.849
 20
950
 11
317.043
 21
950
  0
LINE
  8
0
 10
317.043
 20
950
 11
317.043
 21
932
  0
LINE
  8
0
 10
317.043
 20
932
 11
316.843
 21
932
  0
LINE
  8
0
 10
316.843
 20
932
 11
316.843
 21
950
  0
LINE
  8
0
 10
316.843
 20
950
 11
313.036
 21
950
  0
LINE
  8
0
 10
313.036
 20
950
 11
313.036
 21
932
  0
LINE
  8
0
 10
313.036
 20
932
 11
312.836
 21
932
  0
LINE
  8
0
 10
312.836
 20
932
 11
312.836
 21
950
  0
LINE
  8
0
 10
312.836
 20
950
 11
309.03
 21
950
  0
LINE
  8
0
 10
309.03
 20
950
 11
309.03
 21
932
  0
LINE
  8
0
 10
309.03
 20
932
 11
308.83
 21
932
  0
LINE
  8
0
 10
308.83
 20
932
 11
308.83
 21
950
  0
LINE
  8
0
 10
308.83
 20
950
 11
305.024
 21
950
  0
LINE
  8
0
 10
305.024
 20
950
 11
305.024
 21
932
  0
LINE
  8
0
 10
305.024
 20
932
 11
304.824
 21
932
  0
LINE
  8
0
 10
304.824
 20
932
 11
304.824
 21
950
  0
LINE
  8
0
 10
304.824
 20
950
 11
301.018
 21
950
  0
LINE
  8
0
 10
301.018
 20
950
 11
301.018
 21
932
  0
LINE
  8
0
 10
301.018
 20
932
 11
300.818
 21
932
  0
LINE
  8
0
 10
300.818
 20
932
 11
300.818
 21
950
  0
LINE
  8
0
 10
300.818
 20
950
 11
297.012
 21
950
  0
LINE
  8
0
 10
297.012
 20
950
 11
297.012
 21
932
  0
LINE
  8
0
 10
297.012
 20
932
 11
296.812
 21
932
  0
LINE
  8
0
 10
296.812
 20
932
 11
296.812
 21
950
  0
LINE
  8
0
 10
296.812
 20
950
 11
293.006
 21
950
  0
LINE
  8
0
 10
293.006
 20
950
 11
293.006
 21
932
  0
LINE
  8
0
 10
293.006
 20
932
 11
292.806
 21
932
  0
LINE
  8
0
 10
292.806
 20
932
 11
292.806
 21
950
  0
LINE
  8
0
 10
292.806
 20
950
 11
288.403
 21
950
  0
LINE
  8
0
 10
288.403
 20
950
 11
288.403
 21
954.2
  0
LINE
  8
0
 10
288.403
 20
954.2
 11
278.403
 21
954.2
  0
LINE
  8
0
 10
278.403
 20
954.2
 11
278.403
 21
950
  0
LINE
  8
0
 10
278.403
 20
950
 11
268.403
 21
950
  0
LINE
  8
0
 10
268.403
 20
950
 11
268.403
 21
954.2
  0
LINE
  8
0
 10
268.403
 20
954.2
 11
258.403
 21
954.2
  0
LINE
  8
0
 10
258.403
 20
954.2
 11
258.403
 21
950
  0
LINE
  8
0
 10
258.403
 20
950
 11
248.403
 21
950
  0
LINE
  8
0
 10
248.403
 20
950
 11
248.403
 21
954.2
  0
LINE
  8
0
 10
248.403
 20
954.2
 11
238.403
 21
954.2
  0
LINE
  8
0
 10
238.403
 20
954.2
 11
238.403
 21
950
  0
LINE
  8
0
 10
238.403
 20
950
 11
235.903
 21
950
  0
LINE
  8
0
 10
235.903
 20
950
 11
235.903
 21
910
  0
LINE
  8
0
 10
235.903
 20
910
 11
238.403
 21
910
  0
LINE
  8
0
 10
238.403
 20
910
 11
238.403
 21
905.8
  0
LINE
  8
0
 10
238.403
 20
905.8
 11
248.403
 21
905.8
  0
LINE
  8
0
 10
248.403
 20
905.8
 11
248.403
 21
910
  0
LINE
  8
0
 10
248.403
 20
910
 11
258.403
 21
910
  0
LINE
  8
0
 10
258.403
 20
910
 11
258.403
 21
905.8
  0
LINE
  8
0
 10
258.403
 20
905.8
 11
268.403
 21
905.8
  0
LINE
  8
0
 10
268.403
 20
905.8
 11
268.403
 21
910
  0
LINE
  8
0
 10
268.403
 20
910
 11
278.403
 21
910
  0
LINE
  8
0
 10
278.403
 20
910
 11
278.403
 21
905.8
  0
LINE
  8
0
 10
278.403
 20
905.8
 11
288.403
 21
905.8
  0
LINE
  8
0
 10
288.403
 20
905.8
 11
288.403
 21
910
  0
LINE
  8
0
 10
288.403
 20
910
 11
292.806
 21
910
  0
LINE
  8
0
 10
292.806
 20
910
 11
292.806
 21
928
  0
LINE
  8
0
 10
292.806
 20
928
 11
293.006
 21
928
  0
LINE
  8
0
 10
293.006
 20
928
 11
293.006
 21
910
  0
LINE
  8
0
 10
293.006
 20
910
 11
296.812
 21
910
  0
LINE
  8
0
 10
296.812
 20
910
 11
296.812
 21
928
  0
LINE
  8
0
 10
296.812
 20
928
 11
297.012
 21
928
  0
LINE
  8
0
 10
297.012
 20
928
 11
297.012
 21
910
  0
LINE
  8
0
 10
297.012
 20
910
 11
300.818
 21
910
  0
LINE
  8
0
 10
300.818
 20
910
 11
300.818
 21
928
  0
LINE
  8
0
 10
300.818
 20
928
 11
301.018
 21
928
  0
LINE
  8
0
 10
301.018
 20
928
 11
301.018
 21
910
  0
LINE
  8
0
 10
301.018
 20
910
 11
304.824
 21
910
  0
LINE
  8
0
 10
304.824
 20
910
 11
304.824
 21
928
  0
LINE
  8
0
 10
304.824
 20
928
 11
305.024
 21
928
  0
LINE
  8
0
 10
305.024
 20
928
 11
305.024
 21
910
  0
LINE
  8
0
 10
305.024
 20
910
 11
308.83
 21
910
  0
LINE
  8
0
 10
308.83
 20
910
 11
308.83
 21
928
  0
LINE
  8
0
 10
308.83
 20
928
 11
309.03
 21
928
  0
LINE
  8
0
 10
309.03
 20
928
 11
309.03
 21
910
  0
LINE
  8
0
 10
309.03
 20
910
 11
312.836
 21
910
  0
LINE
  8
0
 10
312.836
 20
910
 11
312.836
 21
928
  0
LINE
  8
0
 10
312.836
 20
928
 11
313.036
 21
928
  0
LINE
  8
0
 10
313.036
 20
928
 11
313.036
 21
910
  0
LINE
  8
0
 10
313.036
 20
910
 11
316.843
 21
910
  0
LINE
  8
0
 10
316.843
 20
910
 11
316.843
 21
928
  0
LINE
  8
0
 10
316.843
 20
928
 11
317.043
 21
928
  0
LINE
  8
0
 10
317.043
 20
928
 11
317.043
 21
910
  0
LINE
  8
0
 10
317.043
 20
910
 11
320.849
 21
910
  0
LINE
  8
0
 10
320.849
 20
910
 11
320.849
 21
928
  0
LINE
  8
0
 10
320.849
 20
928
 11
321.049
 21
928
  0
LINE
  8
0
 10
321.049
 20
928
 11
321.049
 21
910
  0
LINE
  8
0
 10
321.049
 20
910
 11
362.952
 21
910
  0
LINE
  8
0
 10
362.952
 20
910
 11
362.952
 21
905.8
  0
LINE
  8
0
 10
362.952
 20
905.8
 11
372.952
 21
905.8
  0
LINE
  8
0
 10
298.815
 20
912
 11
298.815
 21
948
  0
LINE
  8
0
 10
298.815
 20
948
 11
299.015
 21
948
  0
LINE
  8
0
 10
299.015
 20
948
 11
299.015
 21
912
  0
LINE
  8
0
 10
299.015
 20
912
 11
298.815
 21
912
  0
LINE
  8
0
 10
798.906
 20
912
 11
798.906
 21
948
  0
LINE
  8
0
 10
798.906
 20
948
 11
799.106
 21
948
  0
LINE
  8
0
 10
799.106
 20
948
 11
799.106
 21
912
  0
LINE
  8
0
 10
799.106
 20
912
 11
798.906
 21
912
  0
LINE
  8
0
 10
1176.98
 20
912
 11
1176.98
 21
948
  0
LINE
  8
0
 10
1176.98
 20
948
 11
1177.18
 21
948
  0
LINE
  8
0
 10
1177.18
 20
948
 11
1177.18
 21
912
  0
LINE
  8
0
 10
1177.18
 20
912
 11
1176.98
 21
912
  0
LINE
  8
0
 10
294.809
 20
912
 11
294.809
 21
948
  0
LINE
  8
0
 10
294.809
 20
948
 11
295.009
 21
948
  0
LINE
  8
0
 10
295.009
 20
948
 11
295.009
 21
912
  0
LINE
  8
0
 10
295.009
 20
912
 11
294.809
 21
912
  0
LINE
  8
0
 10
306.827
 20
912
 11
306.827
 21
948
  0
LINE
  8
0
 10
306.827
 20
948
 11
307.027
 21
948
  0
LINE
  8
0
 10
307.027
 20
948
 11
307.027
 21
912
  0
LINE
  8
0
 10
307.027
 20
912
 11
306.827
 21
912
  0
LINE
  8
0
 10
310.833
 20
912
 11
310.833
 21
948
  0
LINE
  8
0
 10
310.833
 20
948
 11
311.033
 21
948
  0
LINE
  8
0
 10
311.033
 20
948
 11
311.033
 21
912
  0
LINE
  8
0
 10
311.033
 20
912
 11
310.833
 21
912
  0
LINE
  8
0
 10
314.84
 20
912
 11
314.84
 21
948
  0
LINE
  8
0
 10
314.84
 20
948
 11
315.039
 21
948
  0
LINE
  8
0
 10
315.039
 20
948
 11
315.039
 21
912
  0
LINE
  8
0
 10
315.039
 20
912
 11
314.84
 21
912
  0
LINE
  8
0
 10
1168.97
 20
912
 11
1168.97
 21
948
  0
LINE
  8
0
 10
1168.97
 20
948
 11
1169.17
 21
948
  0
LINE
  8
0
 10
1169.17
 20
948
 11
1169.17
 21
912
  0
LINE
  8
0
 10
1169.17
 20
912
 11
1168.97
 21
912
  0
LINE
  8
0
 10
656.858
 20
912
 11
656.858
 21
948
  0
LINE
  8
0
 10
656.858
 20
948
 11
657.058
 21
948
  0
LINE
  8
0
 10
657.058
 20
948
 11
657.058
 21
912
  0
LINE
  8
0
 10
657.058
 20
912
 11
656.858
 21
912
  0
LINE
  8
0
 10
1172.97
 20
912
 11
1172.97
 21
948
  0
LINE
  8
0
 10
1172.97
 20
948
 11
1173.17
 21
948
  0
LINE
  8
0
 10
1173.17
 20
948
 11
1173.17
 21
912
  0
LINE
  8
0
 10
1173.17
 20
912
 11
1172.97
 21
912
  0
LINE
  8
0
 10
822.942
 20
912
 11
822.942
 21
948
  0
LINE
  8
0
 10
822.942
 20
948
 11
823.142
 21
948
  0
LINE
  8
0
 10
823.142
 20
948
 11
823.142
 21
912
  0
LINE
  8
0
 10
823.142
 20
912
 11
822.942
 21
912
  0
LINE
  8
0
 10
1164.96
 20
912
 11
1164.96
 21
948
  0
LINE
  8
0
 10
1164.96
 20
948
 11
1165.16
 21
948
  0
LINE
  8
0
 10
1165.16
 20
948
 11
1165.16
 21
912
  0
LINE
  8
0
 10
1165.16
 20
912
 11
1164.96
 21
912
  0
LINE
  8
0
 10
660.864
 20
912
 11
660.864
 21
948
  0
LINE
  8
0
 10
660.864
 20
948
 11
661.064
 21
948
  0
LINE
  8
0
 10
661.064
 20
948
 11
661.064
 21
912
  0
LINE
  8
0
 10
661.064
 20
912
 11
660.864
 21
912
  0
LINE
  8
0
 10
302.821
 20
912
 11
302.821
 21
948
  0
LINE
  8
0
 10
302.821
 20
948
 11
303.021
 21
948
  0
LINE
  8
0
 10
303.021
 20
948
 11
303.021
 21
912
  0
LINE
  8
0
 10
303.021
 20
912
 11
302.821
 21
912
  0
LINE
  8
0
 10
802.912
 20
912
 11
802.912
 21
948
  0
LINE
  8
0
 10
802.912
 20
948
 11
803.112
 21
948
  0
LINE
  8
0
 10
803.112
 20
948
 11
803.112
 21
912
  0
LINE
  8
0
 10
803.112
 20
912
 11
802.912
 21
912
  0
LINE
  8
0
 10
676.888
 20
912
 11
676.888
 21
948
  0
LINE
  8
0
 10
676.888
 20
948
 11
677.088
 21
948
  0
LINE
  8
0
 10
677.088
 20
948
 11
677.088
 21
912
  0
LINE
  8
0
 10
677.088
 20
912
 11
676.888
 21
912
  0
LINE
  8
0
 10
668.876
 20
912
 11
668.876
 21
948
  0
LINE
  8
0
 10
668.876
 20
948
 11
669.076
 21
948
  0
LINE
  8
0
 10
669.076
 20
948
 11
669.076
 21
912
  0
LINE
  8
0
 10
669.076
 20
912
 11
668.876
 21
912
  0
LINE
  8
0
 10
806.918
 20
912
 11
806.918
 21
948
  0
LINE
  8
0
 10
806.918
 20
948
 11
807.118
 21
948
  0
LINE
  8
0
 10
807.118
 20
948
 11
807.118
 21
912
  0
LINE
  8
0
 10
807.118
 20
912
 11
806.918
 21
912
  0
LINE
  8
0
 10
680.894
 20
912
 11
680.894
 21
948
  0
LINE
  8
0
 10
680.894
 20
948
 11
681.094
 21
948
  0
LINE
  8
0
 10
681.094
 20
948
 11
681.094
 21
912
  0
LINE
  8
0
 10
681.094
 20
912
 11
680.894
 21
912
  0
LINE
  8
0
 10
810.924
 20
912
 11
810.924
 21
948
  0
LINE
  8
0
 10
810.924
 20
948
 11
811.124
 21
948
  0
LINE
  8
0
 10
811.124
 20
948
 11
811.124
 21
912
  0
LINE
  8
0
 10
811.124
 20
912
 11
810.924
 21
912
  0
LINE
  8
0
 10
664.87
 20
912
 11
664.87
 21
948
  0
LINE
  8
0
 10
664.87
 20
948
 11
665.07
 21
948
  0
LINE
  8
0
 10
665.07
 20
948
 11
665.07
 21
912
  0
LINE
  8
0
 10
665.07
 20
912
 11
664.87
 21
912
  0
LINE
  8
0
 10
1160.95
 20
912
 11
1160.95
 21
948
  0
LINE
  8
0
 10
1160.95
 20
948
 11
1161.15
 21
948
  0
LINE
  8
0
 10
1161.15
 20
948
 11
1161.15
 21
912
  0
LINE
  8
0
 10
1161.15
 20
912
 11
1160.95
 21
912
  0
LINE
  8
0
 10
814.93
 20
912
 11
814.93
 21
948
  0
LINE
  8
0
 10
814.93
 20
948
 11
815.13
 21
948
  0
LINE
  8
0
 10
815.13
 20
948
 11
815.13
 21
912
  0
LINE
  8
0
 10
815.13
 20
912
 11
814.93
 21
912
  0
LINE
  8
0
 10
672.882
 20
912
 11
672.882
 21
948
  0
LINE
  8
0
 10
672.882
 20
948
 11
673.082
 21
948
  0
LINE
  8
0
 10
673.082
 20
948
 11
673.082
 21
912
  0
LINE
  8
0
 10
673.082
 20
912
 11
672.882
 21
912
  0
LINE
  8
0
 10
818.936
 20
912
 11
818.936
 21
948
  0
LINE
  8
0
 10
818.936
 20
948
 11
819.136
 21
948
  0
LINE
  8
0
 10
819.136
 20
948
 11
819.136
 21
912
  0
LINE
  8
0
 10
819.136
 20
912
 11
818.936
 21
912
  0
LINE
  8
0
 10
1180.98
 20
912
 11
1180.98
 21
948
  0
LINE
  8
0
 10
1180.98
 20
948
 11
1181.18
 21
948
  0
LINE
  8
0
 10
1181.18
 20
948
 11
1181.18
 21
912
  0
LINE
  8
0
 10
1181.18
 20
912
 11
1180.98
 21
912
  0
LINE
  8
0
 10
1184.99
 20
912
 11
1184.99
 21
948
  0
LINE
  8
0
 10
1184.99
 20
948
 11
1185.19
 21
948
  0
LINE
  8
0
 10
1185.19
 20
948
 11
1185.19
 21
912
  0
LINE
  8
0
 10
1185.19
 20
912
 11
1184.99
 21
912
  0
LINE
  8
0
 10
318.846
 20
912
 11
318.846
 21
948
  0
LINE
  8
0
 10
318.846
 20
948
 11
319.046
 21
948
  0
LINE
  8
0
 10
319.046
 20
948
 11
319.046
 21
912
  0
LINE
  8
0
 10
319.046
 20
912
 11
318.846
 21
912
  0
LINE
  8
0
 10
937.048
 20
910
 11
927.048
 21
910
  0
LINE
  8
0
 10
927.048
 20
910
 11
927.048
 21
905.8
  0
LINE
  8
0
 10
927.048
 20
905.8
 11
937.048
 21
905.8
  0
LINE
  8
0
 10
937.048
 20
905.8
 11
937.048
 21
910
  0
LINE
  8
0
 10
917.048
 20
910
 11
907.048
 21
910
  0
LINE
  8
0
 10
907.048
 20
910
 11
907.048
 21
905.8
  0
LINE
  8
0
 10
907.048
 20
905.8
 11
917.048
 21
905.8
  0
LINE
  8
0
 10
917.048
 20
905.8
 11
917.048
 21
910
  0
LINE
  8
0
 10
897.048
 20
910
 11
887.048
 21
910
  0
LINE
  8
0
 10
887.048
 20
910
 11
887.048
 21
905.8
  0
LINE
  8
0
 10
887.048
 20
905.8
 11
897.048
 21
905.8
  0
LINE
  8
0
 10
897.048
 20
905.8
 11
897.048
 21
910
  0
LINE
  8
0
 10
977.048
 20
910
 11
967.048
 21
910
  0
LINE
  8
0
 10
967.048
 20
910
 11
967.048
 21
905.8
  0
LINE
  8
0
 10
967.048
 20
905.8
 11
977.048
 21
905.8
  0
LINE
  8
0
 10
977.048
 20
905.8
 11
977.048
 21
910
  0
LINE
  8
0
 10
512.952
 20
910
 11
502.952
 21
910
  0
LINE
  8
0
 10
502.952
 20
910
 11
502.952
 21
905.8
  0
LINE
  8
0
 10
502.952
 20
905.8
 11
512.952
 21
905.8
  0
LINE
  8
0
 10
512.952
 20
905.8
 11
512.952
 21
910
  0
LINE
  8
0
 10
492.952
 20
910
 11
482.952
 21
910
  0
LINE
  8
0
 10
482.952
 20
910
 11
482.952
 21
905.8
  0
LINE
  8
0
 10
482.952
 20
905.8
 11
492.952
 21
905.8
  0
LINE
  8
0
 10
492.952
 20
905.8
 11
492.952
 21
910
  0
LINE
  8
0
 10
452.952
 20
910
 11
442.952
 21
910
  0
LINE
  8
0
 10
442.952
 20
910
 11
442.952
 21
905.8
  0
LINE
  8
0
 10
442.952
 20
905.8
 11
452.952
 21
905.8
  0
LINE
  8
0
 10
452.952
 20
905.8
 11
452.952
 21
910
  0
LINE
  8
0
 10
432.952
 20
910
 11
422.952
 21
910
  0
LINE
  8
0
 10
422.952
 20
910
 11
422.952
 21
905.8
  0
LINE
  8
0
 10
422.952
 20
905.8
 11
432.952
 21
905.8
  0
LINE
  8
0
 10
432.952
 20
905.8
 11
432.952
 21
910
  0
LINE
  8
0
 10
412.952
 20
910
 11
402.952
 21
910
  0
LINE
  8
0
 10
402.952
 20
910
 11
402.952
 21
905.8
  0
LINE
  8
0
 10
402.952
 20
905.8
 11
412.952
 21
905.8
  0
LINE
  8
0
 10
412.952
 20
905.8
 11
412.952
 21
910
  0
LINE
  8
0
 10
472.952
 20
910
 11
462.952
 21
910
  0
LINE
  8
0
 10
462.952
 20
910
 11
462.952
 21
905.8
  0
LINE
  8
0
 10
462.952
 20
905.8
 11
472.952
 21
905.8
  0
LINE
  8
0
 10
472.952
 20
905.8
 11
472.952
 21
910
  0
LINE
  8
0
 10
352.952
 20
910
 11
342.952
 21
910
  0
LINE
  8
0
 10
342.952
 20
910
 11
342.952
 21
905.8
  0
LINE
  8
0
 10
342.952
 20
905.8
 11
352.952
 21
905.8
  0
LINE
  8
0
 10
352.952
 20
905.8
 11
352.952
 21
910
  0
LINE
  8
0
 10
592.952
 20
910
 11
582.952
 21
910
  0
LINE
  8
0
 10
582.952
 20
910
 11
582.952
 21
905.8
  0
LINE
  8
0
 10
582.952
 20
905.8
 11
592.952
 21
905.8
  0
LINE
  8
0
 10
592.952
 20
905.8
 11
592.952
 21
910
  0
LINE
  8
0
 10
572.952
 20
910
 11
562.952
 21
910
  0
LINE
  8
0
 10
562.952
 20
910
 11
562.952
 21
905.8
  0
LINE
  8
0
 10
562.952
 20
905.8
 11
572.952
 21
905.8
  0
LINE
  8
0
 10
572.952
 20
905.8
 11
572.952
 21
910
  0
LINE
  8
0
 10
552.952
 20
910
 11
542.952
 21
910
  0
LINE
  8
0
 10
542.952
 20
910
 11
542.952
 21
905.8
  0
LINE
  8
0
 10
542.952
 20
905.8
 11
552.952
 21
905.8
  0
LINE
  8
0
 10
552.952
 20
905.8
 11
552.952
 21
910
  0
LINE
  8
0
 10
1117.05
 20
910
 11
1107.05
 21
910
  0
LINE
  8
0
 10
1107.05
 20
910
 11
1107.05
 21
905.8
  0
LINE
  8
0
 10
1107.05
 20
905.8
 11
1117.05
 21
905.8
  0
LINE
  8
0
 10
1117.05
 20
905.8
 11
1117.05
 21
910
  0
LINE
  8
0
 10
1077.05
 20
910
 11
1067.05
 21
910
  0
LINE
  8
0
 10
1067.05
 20
910
 11
1067.05
 21
905.8
  0
LINE
  8
0
 10
1067.05
 20
905.8
 11
1077.05
 21
905.8
  0
LINE
  8
0
 10
1077.05
 20
905.8
 11
1077.05
 21
910
  0
LINE
  8
0
 10
1057.05
 20
910
 11
1047.05
 21
910
  0
LINE
  8
0
 10
1047.05
 20
910
 11
1047.05
 21
905.8
  0
LINE
  8
0
 10
1047.05
 20
905.8
 11
1057.05
 21
905.8
  0
LINE
  8
0
 10
1057.05
 20
905.8
 11
1057.05
 21
910
  0
LINE
  8
0
 10
1097.05
 20
910
 11
1087.05
 21
910
  0
LINE
  8
0
 10
1087.05
 20
910
 11
1087.05
 21
905.8
  0
LINE
  8
0
 10
1087.05
 20
905.8
 11
1097.05
 21
905.8
  0
LINE
  8
0
 10
1097.05
 20
905.8
 11
1097.05
 21
910
  0
LINE
  8
0
 10
392.952
 20
910
 11
382.952
 21
910
  0
LINE
  8
0
 10
382.952
 20
910
 11
382.952
 21
905.8
  0
LINE
  8
0
 10
382.952
 20
905.8
 11
392.952
 21
905.8
  0
LINE
  8
0
 10
392.952
 20
905.8
 11
392.952
 21
910
  0
LINE
  8
0
 10
332.952
 20
910
 11
322.952
 21
910
  0
LINE
  8
0
 10
322.952
 20
910
 11
322.952
 21
905.8
  0
LINE
  8
0
 10
322.952
 20
905.8
 11
332.952
 21
905.8
  0
LINE
  8
0
 10
332.952
 20
905.8
 11
332.952
 21
910
  0
LINE
  8
0
 10
957.048
 20
910
 11
947.048
 21
910
  0
LINE
  8
0
 10
947.048
 20
910
 11
947.048
 21
905.8
  0
LINE
  8
0
 10
947.048
 20
905.8
 11
957.048
 21
905.8
  0
LINE
  8
0
 10
957.048
 20
905.8
 11
957.048
 21
910
  0
LINE
  8
0
 10
857.048
 20
910
 11
847.048
 21
910
  0
LINE
  8
0
 10
847.048
 20
910
 11
847.048
 21
905.8
  0
LINE
  8
0
 10
847.048
 20
905.8
 11
857.048
 21
905.8
  0
LINE
  8
0
 10
857.048
 20
905.8
 11
857.048
 21
910
  0
LINE
  8
0
 10
877.048
 20
910
 11
867.048
 21
910
  0
LINE
  8
0
 10
867.048
 20
910
 11
867.048
 21
905.8
  0
LINE
  8
0
 10
867.048
 20
905.8
 11
877.048
 21
905.8
  0
LINE
  8
0
 10
877.048
 20
905.8
 11
877.048
 21
910
  0
LINE
  8
0
 10
837.048
 20
910
 11
827.048
 21
910
  0
LINE
  8
0
 10
827.048
 20
910
 11
827.048
 21
905.8
  0
LINE
  8
0
 10
827.048
 20
905.8
 11
837.048
 21
905.8
  0
LINE
  8
0
 10
837.048
 20
905.8
 11
837.048
 21
910
  0
LINE
  8
0
 10
1037.05
 20
910
 11
1027.05
 21
910
  0
LINE
  8
0
 10
1027.05
 20
910
 11
1027.05
 21
905.8
  0
LINE
  8
0
 10
1027.05
 20
905.8
 11
1037.05
 21
905.8
  0
LINE
  8
0
 10
1037.05
 20
905.8
 11
1037.05
 21
910
  0
LINE
  8
0
 10
1017.05
 20
910
 11
1007.05
 21
910
  0
LINE
  8
0
 10
1007.05
 20
910
 11
1007.05
 21
905.8
  0
LINE
  8
0
 10
1007.05
 20
905.8
 11
1017.05
 21
905.8
  0
LINE
  8
0
 10
1017.05
 20
905.8
 11
1017.05
 21
910
  0
LINE
  8
0
 10
997.048
 20
910
 11
987.048
 21
910
  0
LINE
  8
0
 10
987.048
 20
910
 11
987.048
 21
905.8
  0
LINE
  8
0
 10
987.048
 20
905.8
 11
997.048
 21
905.8
  0
LINE
  8
0
 10
997.048
 20
905.8
 11
997.048
 21
910
  0
LINE
  8
0
 10
1297.1
 20
66.7376
 11
1299.2
 21
66.6
  0
LINE
  8
0
 10
1299.2
 20
66.6
 11
1302.36
 21
66.807
  0
LINE
  8
0
 10
1302.36
 20
66.807
 11
1305.46
 21
67.4246
  0
LINE
  8
0
 10
1305.46
 20
67.4246
 11
1308.46
 21
68.4421
  0
LINE
  8
0
 10
1308.46
 20
68.4421
 11
1311.3
 21
69.8422
  0
LINE
  8
0
 10
1311.3
 20
69.8422
 11
1313.93
 21
71.6008
  0
LINE
  8
0
 10
1313.93
 20
71.6008
 11
1316.31
 21
73.688
  0
LINE
  8
0
 10
1316.31
 20
73.688
 11
1318.4
 21
76.068
  0
LINE
  8
0
 10
1318.4
 20
76.068
 11
1320.16
 21
78.7
  0
LINE
  8
0
 10
1320.16
 20
78.7
 11
1321.56
 21
81.5391
  0
LINE
  8
0
 10
1321.56
 20
81.5391
 11
1322.58
 21
84.5366
  0
LINE
  8
0
 10
1322.58
 20
84.5366
 11
1323.19
 21
87.6413
  0
LINE
  8
0
 10
1323.19
 20
87.6413
 11
1323.4
 21
90.8
  0
LINE
  8
0
 10
1323.4
 20
90.8
 11
1323.26
 21
92.9
  0
LINE
  8
0
 10
1323.26
 20
92.9
 11
1323.4
 21
92.9
  0
LINE
  8
0
 10
1323.4
 20
92.9
 11
1323.4
 21
207.1
  0
LINE
  8
0
 10
1323.4
 20
207.1
 11
1323.26
 21
207.1
  0
LINE
  8
0
 10
1323.26
 20
207.1
 11
1323.4
 21
209.2
  0
LINE
  8
0
 10
1323.4
 20
209.2
 11
1323.19
 21
212.359
  0
LINE
  8
0
 10
1323.19
 20
212.359
 11
1322.58
 21
215.463
  0
LINE
  8
0
 10
1322.58
 20
215.463
 11
1321.56
 21
218.461
  0
LINE
  8
0
 10
1321.56
 20
218.461
 11
1320.16
 21
221.3
  0
LINE
  8
0
 10
1320.16
 20
221.3
 11
1318.4
 21
223.932
  0
LINE
  8
0
 10
1318.4
 20
223.932
 11
1316.31
 21
226.312
  0
LINE
  8
0
 10
1316.31
 20
226.312
 11
1313.93
 21
228.399
  0
LINE
  8
0
 10
1313.93
 20
228.399
 11
1311.3
 21
230.158
  0
LINE
  8
0
 10
1311.3
 20
230.158
 11
1308.46
 21
231.558
  0
LINE
  8
0
 10
1308.46
 20
231.558
 11
1305.46
 21
232.575
  0
LINE
  8
0
 10
1305.46
 20
232.575
 11
1302.36
 21
233.193
  0
LINE
  8
0
 10
1302.36
 20
233.193
 11
1299.2
 21
233.4
  0
LINE
  8
0
 10
1299.2
 20
233.4
 11
1297.1
 21
233.262
  0
LINE
  8
0
 10
1297.1
 20
233.262
 11
1297.1
 21
233.4
  0
LINE
  8
0
 10
1297.1
 20
233.4
 11
962.9
 21
233.4
  0
LINE
  8
0
 10
962.9
 20
233.4
 11
962.9
 21
233.262
  0
LINE
  8
0
 10
962.9
 20
233.262
 11
960.8
 21
233.4
  0
LINE
  8
0
 10
960.8
 20
233.4
 11
957.641
 21
233.193
  0
LINE
  8
0
 10
957.641
 20
233.193
 11
954.537
 21
232.575
  0
LINE
  8
0
 10
954.537
 20
232.575
 11
951.539
 21
231.558
  0
LINE
  8
0
 10
951.539
 20
231.558
 11
948.7
 21
230.158
  0
LINE
  8
0
 10
948.7
 20
230.158
 11
946.068
 21
228.399
  0
LINE
  8
0
 10
946.068
 20
228.399
 11
943.688
 21
226.312
  0
LINE
  8
0
 10
943.688
 20
226.312
 11
941.601
 21
223.932
  0
LINE
  8
0
 10
941.601
 20
223.932
 11
939.842
 21
221.3
  0
LINE
  8
0
 10
939.842
 20
221.3
 11
938.442
 21
218.461
  0
LINE
  8
0
 10
938.442
 20
218.461
 11
937.425
 21
215.463
  0
LINE
  8
0
 10
937.425
 20
215.463
 11
936.807
 21
212.359
  0
LINE
  8
0
 10
936.807
 20
212.359
 11
936.6
 21
209.2
  0
LINE
  8
0
 10
936.6
 20
209.2
 11
936.738
 21
207.1
  0
LINE
  8
0
 10
936.738
 20
207.1
 11
936.6
 21
207.1
  0
LINE
  8
0
 10
936.6
 20
207.1
 11
936.6
 21
92.9
  0
LINE
  8
0
 10
936.6
 20
92.9
 11
936.738
 21
92.9
  0
LINE
  8
0
 10
936.738
 20
92.9
 11
936.6
 21
90.8
  0
LINE
  8
0
 10
936.6
 20
90.8
 11
936.807
 21
87.6413
  0
LINE
  8
0
 10
936.807
 20
87.6413
 11
937.425
 21
84.5366
  0
LINE
  8
0
 10
937.425
 20
84.5366
 11
938.442
 21
81.5391
  0
LINE
  8
0
 10
938.442
 20
81.5391
 11
939.842
 21
78.7
  0
LINE
  8
0
 10
939.842
 20
78.7
 11
941.601
 21
76.068
  0
LINE
  8
0
 10
941.601
 20
76.068
 11
943.688
 21
73.688
  0
LINE
  8
0
 10
943.688
 20
73.688
 11
946.068
 21
71.6008
  0
LINE
  8
0
 10
946.068
 20
71.6008
 11
948.7
 21
69.8422
  0
LINE
  8
0
 10
948.7
 20
69.8422
 11
951.539
 21
68.4421
  0
LINE
  8
0
 10
951.539
 20
68.4421
 11
954.537
 21
67.4246
  0
LINE
  8
0
 10
954.537
 20
67.4246
 11
957.641
 21
66.807
  0
LINE
  8
0
 10
957.641
 20
66.807
 11
960.8
 21
66.6
  0
LINE
  8
0
 10
960.8
 20
66.6
 11
962.9
 21
66.7376
  0
LINE
  8
0
 10
962.9
 20
66.7376
 11
962.9
 21
66.6
  0
LINE
  8
0
 10
962.9
 20
66.6
 11
1297.1
 21
66.6
  0
LINE
  8
0
 10
1297.1
 20
66.6
 11
1297.1
 21
66.7376
  0
LINE
  8
0
 10
1185
 20
225
 11
1185
 21
229.3
  0
LINE
  8
0
 10
1185
 20
229.3
 11
1195
 21
229.3
  0
LINE
  8
0
 10
1195
 20
229.3
 11
1195
 21
225
  0
LINE
  8
0
 10
1195
 20
225
 11
1185
 21
225
  0
LINE
  8
0
 10
1205
 20
225
 11
1205
 21
229.3
  0
LINE
  8
0
 10
1205
 20
229.3
 11
1215
 21
229.3
  0
LINE
  8
0
 10
1215
 20
229.3
 11
1215
 21
225
  0
LINE
  8
0
 10
1215
 20
225
 11
1205
 21
225
  0
LINE
  8
0
 10
965
 20
225
 11
965
 21
229.3
  0
LINE
  8
0
 10
965
 20
229.3
 11
975
 21
229.3
  0
LINE
  8
0
 10
975
 20
229.3
 11
975
 21
225
  0
LINE
  8
0
 10
975
 20
225
 11
965
 21
225
  0
LINE
  8
0
 10
1245
 20
225
 11
1245
 21
229.3
  0
LINE
  8
0
 10
1245
 20
229.3
 11
1255
 21
229.3
  0
LINE
  8
0
 10
1255
 20
229.3
 11
1255
 21
225
  0
LINE
  8
0
 10
1255
 20
225
 11
1245
 21
225
  0
LINE
  8
0
 10
985
 20
225
 11
985
 21
229.3
  0
LINE
  8
0
 10
985
 20
229.3
 11
995
 21
229.3
  0
LINE
  8
0
 10
995
 20
229.3
 11
995
 21
225
  0
LINE
  8
0
 10
995
 20
225
 11
985
 21
225
  0
LINE
  8
0
 10
1285
 20
225
 11
1285
 21
229.3
  0
LINE
  8
0
 10
1285
 20
229.3
 11
1295
 21
229.3
  0
LINE
  8
0
 10
1295
 20
229.3
 11
1295
 21
225
  0
LINE
  8
0
 10
1295
 20
225
 11
1285
 21
225
  0
LINE
  8
0
 10
1165
 20
225
 11
1165
 21
229.3
  0
LINE
  8
0
 10
1165
 20
229.3
 11
1175
 21
229.3
  0
LINE
  8
0
 10
1175
 20
229.3
 11
1175
 21
225
  0
LINE
  8
0
 10
1175
 20
225
 11
1165
 21
225
  0
LINE
  8
0
 10
1005
 20
225
 11
1005
 21
229.3
  0
LINE
  8
0
 10
1005
 20
229.3
 11
1015
 21
229.3
  0
LINE
  8
0
 10
1015
 20
229.3
 11
1015
 21
225
  0
LINE
  8
0
 10
1015
 20
225
 11
1005
 21
225
  0
LINE
  8
0
 10
1265
 20
225
 11
1265
 21
229.3
  0
LINE
  8
0
 10
1265
 20
229.3
 11
1275
 21
229.3
  0
LINE
  8
0
 10
1275
 20
229.3
 11
1275
 21
225
  0
LINE
  8
0
 10
1275
 20
225
 11
1265
 21
225
  0
LINE
  8
0
 10
1105
 20
225
 11
1105
 21
229.3
  0
LINE
  8
0
 10
1105
 20
229.3
 11
1115
 21
229.3
  0
LINE
  8
0
 10
1115
 20
229.3
 11
1115
 21
225
  0
LINE
  8
0
 10
1115
 20
225
 11
1105
 21
225
  0
LINE
  8
0
 10
1125
 20
225
 11
1125
 21
229.3
  0
LINE
  8
0
 10
1125
 20
229.3
 11
1135
 21
229.3
  0
LINE
  8
0
 10
1135
 20
229.3
 11
1135
 21
225
  0
LINE
  8
0
 10
1135
 20
225
 11
1125
 21
225
  0
LINE
  8
0
 10
1145
 20
225
 11
1145
 21
229.3
  0
LINE
  8
0
 10
1145
 20
229.3
 11
1155
 21
229.3
  0
LINE
  8
0
 10
1155
 20
229.3
 11
1155
 21
225
  0
LINE
  8
0
 10
1155
 20
225
 11
1145
 21
225
  0
LINE
  8
0
 10
1025
 20
225
 11
1025
 21
229.3
  0
LINE
  8
0
 10
1025
 20
229.3
 11
1035
 21
229.3
  0
LINE
  8
0
 10
1035
 20
229.3
 11
1035
 21
225
  0
LINE
  8
0
 10
1035
 20
225
 11
1025
 21
225
  0
LINE
  8
0
 10
1065
 20
225
 11
1065
 21
229.3
  0
LINE
  8
0
 10
1065
 20
229.3
 11
1075
 21
229.3
  0
LINE
  8
0
 10
1075
 20
229.3
 11
1075
 21
225
  0
LINE
  8
0
 10
1075
 20
225
 11
1065
 21
225
  0
LINE
  8
0
 10
1085
 20
225
 11
1085
 21
229.3
  0
LINE
  8
0
 10
1085
 20
229.3
 11
1095
 21
229.3
  0
LINE
  8
0
 10
1095
 20
229.3
 11
1095
 21
225
  0
LINE
  8
0
 10
1095
 20
225
 11
1085
 21
225
  0
LINE
  8
0
 10
1225
 20
225
 11
1225
 21
229.3
  0
LINE
  8
0
 10
1225
 20
229.3
 11
1235
 21
229.3
  0
LINE
  8
0
 10
1235
 20
229.3
 11
1235
 21
225
  0
LINE
  8
0
 10
1235
 20
225
 11
1225
 21
225
  0
LINE
  8
0
 10
1045
 20
225
 11
1045
 21
229.3
  0
LINE
  8
0
 10
1045
 20
229.3
 11
1055
 21
229.3
  0
LINE
  8
0
 10
1055
 20
229.3
 11
1055
 21
225
  0
LINE
  8
0
 10
1055
 20
225
 11
1045
 21
225
  0
LINE
  8
0
 10
1315
 20
195
 11
1315
 21
205
  0
LINE
  8
0
 10
1315
 20
205
 11
1319.3
 21
205
  0
LINE
  8
0
 10
1319.3
 20
205
 11
1319.3
 21
195
  0
LINE
  8
0
 10
1319.3
 20
195
 11
1315
 21
195
  0
LINE
  8
0
 10
940.7
 20
192.5
 11
940.7
 21
202.5
  0
LINE
  8
0
 10
940.7
 20
202.5
 11
945
 21
202.5
  0
LINE
  8
0
 10
945
 20
202.5
 11
945
 21
192.5
  0
LINE
  8
0
 10
945
 20
192.5
 11
940.7
 21
192.5
  0
LINE
  8
0
 10
1315
 20
175
 11
1315
 21
185
  0
LINE
  8
0
 10
1315
 20
185
 11
1319.3
 21
185
  0
LINE
  8
0
 10
1319.3
 20
185
 11
1319.3
 21
175
  0
LINE
  8
0
 10
1319.3
 20
175
 11
1315
 21
175
  0
LINE
  8
0
 10
940.7
 20
172.5
 11
940.7
 21
182.5
  0
LINE
  8
0
 10
940.7
 20
182.5
 11
945
 21
182.5
  0
LINE
  8
0
 10
945
 20
182.5
 11
945
 21
172.5
  0
LINE
  8
0
 10
945
 20
172.5
 11
940.7
 21
172.5
  0
LINE
  8
0
 10
1315
 20
155
 11
1315
 21
165
  0
LINE
  8
0
 10
1315
 20
165
 11
1319.3
 21
165
  0
LINE
  8
0
 10
1319.3
 20
165
 11
1319.3
 21
155
  0
LINE
  8
0
 10
1319.3
 20
155
 11
1315
 21
155
  0
LINE
  8
0
 10
940.7
 20
152.5
 11
940.7
 21
162.5
  0
LINE
  8
0
 10
940.7
 20
162.5
 11
945
 21
162.5
  0
LINE
  8
0
 10
945
 20
162.5
 11
945
 21
152.5
  0
LINE
  8
0
 10
945
 20
152.5
 11
940.7
 21
152.5
  0
LINE
  8
0
 10
940.7
 20
137.5
 11
940.7
 21
147.5
  0
LINE
  8
0
 10
940.7
 20
147.5
 11
945
 21
147.5
  0
LINE
  8
0
 10
945
 20
147.5
 11
945
 21
137.5
  0
LINE
  8
0
 10
945
 20
137.5
 11
940.7
 21
137.5
  0
LINE
  8
0
 10
1315
 20
135
 11
1315
 21
145
  0
LINE
  8
0
 10
1315
 20
145
 11
1319.3
 21
145
  0
LINE
  8
0
 10
1319.3
 20
145
 11
1319.3
 21
135
  0
LINE
  8
0
 10
1319.3
 20
135
 11
1315
 21
135
  0
LINE
  8
0
 10
940.7
 20
117.5
 11
940.7
 21
127.5
  0
LINE
  8
0
 10
940.7
 20
127.5
 11
945
 21
127.5
  0
LINE
  8
0
 10
945
 20
127.5
 11
945
 21
117.5
  0
LINE
  8
0
 10
945
 20
117.5
 11
940.7
 21
117.5
  0
LINE
  8
0
 10
1315
 20
115
 11
1315
 21
125
  0
LINE
  8
0
 10
1315
 20
125
 11
1319.3
 21
125
  0
LINE
  8
0
 10
1319.3
 20
125
 11
1319.3
 21
115
  0
LINE
  8
0
 10
1319.3
 20
115
 11
1315
 21
115
  0
LINE
  8
0
 10
940.7
 20
97.5
 11
940.7
 21
107.5
  0
LINE
  8
0
 10
940.7
 20
107.5
 11
945
 21
107.5
  0
LINE
  8
0
 10
945
 20
107.5
 11
945
 21
97.5
  0
LINE
  8
0
 10
945
 20
97.5
 11
940.7
 21
97.5
  0
LINE
  8
0
 10
1315
 20
95
 11
1315
 21
105
  0
LINE
  8
0
 10
1315
 20
105
 11
1319.3
 21
105
  0
LINE
  8
0
 10
1319.3
 20
105
 11
1319.3
 21
95
  0
LINE
  8
0
 10
1319.3
 20
95
 11
1315
 21
95
  0
LINE
  8
0
 10
1105
 20
70.7
 11
1105
 21
75
  0
LINE
  8
0
 10
1105
 20
75
 11
1115
 21
75
  0
LINE
  8
0
 10
1115
 20
75
 11
1115
 21
70.7
  0
LINE
  8
0
 10
1115
 20
70.7
 11
1105
 21
70.7
  0
LINE
  8
0
 10
1005
 20
70.7
 11
1005
 21
75
  0
LINE
  8
0
 10
1005
 20
75
 11
1015
 21
75
  0
LINE
  8
0
 10
1015
 20
75
 11
1015
 21
70.7
  0
LINE
  8
0
 10
1015
 20
70.7
 11
1005
 21
70.7
  0
LINE
  8
0
 10
1025
 20
70.7
 11
1025
 21
75
  0
LINE
  8
0
 10
1025
 20
75
 11
1035
 21
75
  0
LINE
  8
0
 10
1035
 20
75
 11
1035
 21
70.7
  0
LINE
  8
0
 10
1035
 20
70.7
 11
1025
 21
70.7
  0
LINE
  8
0
 10
1085
 20
70.7
 11
1085
 21
75
  0
LINE
  8
0
 10
1085
 20
75
 11
1095
 21
75
  0
LINE
  8
0
 10
1095
 20
75
 11
1095
 21
70.7
  0
LINE
  8
0
 10
1095
 20
70.7
 11
1085
 21
70.7
  0
LINE
  8
0
 10
1265
 20
70.7
 11
1265
 21
75
  0
LINE
  8
0
 10
1265
 20
75
 11
1275
 21
75
  0
LINE
  8
0
 10
1275
 20
75
 11
1275
 21
70.7
  0
LINE
  8
0
 10
1275
 20
70.7
 11
1265
 21
70.7
  0
LINE
  8
0
 10
1245
 20
70.7
 11
1245
 21
75
  0
LINE
  8
0
 10
1245
 20
75
 11
1255
 21
75
  0
LINE
  8
0
 10
1255
 20
75
 11
1255
 21
70.7
  0
LINE
  8
0
 10
1255
 20
70.7
 11
1245
 21
70.7
  0
LINE
  8
0
 10
1225
 20
70.7
 11
1225
 21
75
  0
LINE
  8
0
 10
1225
 20
75
 11
1235
 21
75
  0
LINE
  8
0
 10
1235
 20
75
 11
1235
 21
70.7
  0
LINE
  8
0
 10
1235
 20
70.7
 11
1225
 21
70.7
  0
LINE
  8
0
 10
1205
 20
70.7
 11
1205
 21
75
  0
LINE
  8
0
 10
1205
 20
75
 11
1215
 21
75
  0
LINE
  8
0
 10
1215
 20
75
 11
1215
 21
70.7
  0
LINE
  8
0
 10
1215
 20
70.7
 11
1205
 21
70.7
  0
LINE
  8
0
 10
1285
 20
70.7
 11
1285
 21
75
  0
LINE
  8
0
 10
1285
 20
75
 11
1295
 21
75
  0
LINE
  8
0
 10
1295
 20
75
 11
1295
 21
70.7
  0
LINE
  8
0
 10
1295
 20
70.7
 11
1285
 21
70.7
  0
LINE
  8
0
 10
1185
 20
70.7
 11
1185
 21
75
  0
LINE
  8
0
 10
1185
 20
75
 11
1195
 21
75
  0
LINE
  8
0
 10
1195
 20
75
 11
1195
 21
70.7
  0
LINE
  8
0
 10
1195
 20
70.7
 11
1185
 21
70.7
  0
LINE
  8
0
 10
1125
 20
70.7
 11
1125
 21
75
  0
LINE
  8
0
 10
1125
 20
75
 11
1135
 21
75
  0
LINE
  8
0
 10
1135
 20
75
 11
1135
 21
70.7
  0
LINE
  8
0
 10
1135
 20
70.7
 11
1125
 21
70.7
  0
LINE
  8
0
 10
965
 20
70.7
 11
965
 21
75
  0
LINE
  8
0
 10
965
 20
75
 11
975
 21
75
  0
LINE
  8
0
 10
975
 20
75
 11
975
 21
70.7
  0
LINE
  8
0
 10
975
 20
70.7
 11
965
 21
70.7
  0
LINE
  8
0
 10
1145
 20
70.7
 11
1145
 21
75
  0
LINE
  8
0
 10
1145
 20
75
 11
1155
 21
75
  0
LINE
  8
0
 10
1155
 20
75
 11
1155
 21
70.7
  0
LINE
  8
0
 10
1155
 20
70.7
 11
1145
 21
70.7
  0
LINE
  8
0
 10
1165
 20
70.7
 11
1165
 21
75
  0
LINE
  8
0
 10
1165
 20
75
 11
1175
 21
75
  0
LINE
  8
0
 10
1175
 20
75
 11
1175
 21
70.7
  0
LINE
  8
0
 10
1175
 20
70.7
 11
1165
 21
70.7
  0
LINE
  8
0
 10
985
 20
70.7
 11
985
 21
75
  0
LINE
  8
0
 10
985
 20
75
 11
995
 21
75
  0
LINE
  8
0
 10
995
 20
75
 11
995
 21
70.7
  0
LINE
  8
0
 10
995
 20
70.7
 11
985
 21
70.7
  0
LINE
  8
0
 10
1065
 20
70.7
 11
1065
 21
75
  0
LINE
  8
0
 10
1065
 20
75
 11
1075
 21
75
  0
LINE
  8
0
 10
1075
 20
75
 11
1075
 21
70.7
  0
LINE
  8
0
 10
1075
 20
70.7
 11
1065
 21
70.7
  0
LINE
  8
0
 10
1045
 20
70.7
 11
1045
 21
75
  0
LINE
  8
0
 10
1045
 20
75
 11
1055
 21
75
  0
LINE
  8
0
 10
1055
 20
75
 11
1055
 21
70.7
  0
LINE
  8
0
 10
1055
 20
70.7
 11
1045
 21
70.7
  0
LINE
  8
0
 10
907.1
 20
66.7376
 11
909.2
 21
66.6
  0
LINE
  8
0
 10
909.2
 20
66.6
 11
912.359
 21
66.807
  0
LINE
  8
0
 10
912.359
 20
66.807
 11
915.463
 21
67.4246
  0
LINE
  8
0
 10
915.463
 20
67.4246
 11
918.461
 21
68.4421
  0
LINE
  8
0
 10
918.461
 20
68.4421
 11
921.3
 21
69.8422
  0
LINE
  8
0
 10
921.3
 20
69.8422
 11
923.932
 21
71.6008
  0
LINE
  8
0
 10
923.932
 20
71.6008
 11
926.312
 21
73.688
  0
LINE
  8
0
 10
926.312
 20
73.688
 11
928.399
 21
76.068
  0
LINE
  8
0
 10
928.399
 20
76.068
 11
930.158
 21
78.7
  0
LINE
  8
0
 10
930.158
 20
78.7
 11
931.558
 21
81.5391
  0
LINE
  8
0
 10
931.558
 20
81.5391
 11
932.575
 21
84.5366
  0
LINE
  8
0
 10
932.575
 20
84.5366
 11
933.193
 21
87.6413
  0
LINE
  8
0
 10
933.193
 20
87.6413
 11
933.4
 21
90.8
  0
LINE
  8
0
 10
933.4
 20
90.8
 11
933.262
 21
92.9
  0
LINE
  8
0
 10
933.262
 20
92.9
 11
933.4
 21
92.9
  0
LINE
  8
0
 10
933.4
 20
92.9
 11
933.4
 21
207.1
  0
LINE
  8
0
 10
933.4
 20
207.1
 11
933.262
 21
207.1
  0
LINE
  8
0
 10
933.262
 20
207.1
 11
933.4
 21
209.2
  0
LINE
  8
0
 10
933.4
 20
209.2
 11
933.193
 21
212.359
  0
LINE
  8
0
 10
933.193
 20
212.359
 11
932.575
 21
215.463
  0
LINE
  8
0
 10
932.575
 20
215.463
 11
931.558
 21
218.461
  0
LINE
  8
0
 10
931.558
 20
218.461
 11
930.158
 21
221.3
  0
LINE
  8
0
 10
930.158
 20
221.3
 11
928.399
 21
223.932
  0
LINE
  8
0
 10
928.399
 20
223.932
 11
926.312
 21
226.312
  0
LINE
  8
0
 10
926.312
 20
226.312
 11
923.932
 21
228.399
  0
LINE
  8
0
 10
923.932
 20
228.399
 11
921.3
 21
230.158
  0
LINE
  8
0
 10
921.3
 20
230.158
 11
918.461
 21
231.558
  0
LINE
  8
0
 10
918.461
 20
231.558
 11
915.463
 21
232.575
  0
LINE
  8
0
 10
915.463
 20
232.575
 11
912.359
 21
233.193
  0
LINE
  8
0
 10
912.359
 20
233.193
 11
909.2
 21
233.4
  0
LINE
  8
0
 10
909.2
 20
233.4
 11
907.1
 21
233.262
  0
LINE
  8
0
 10
907.1
 20
233.262
 11
907.1
 21
233.4
  0
LINE
  8
0
 10
907.1
 20
233.4
 11
572.9
 21
233.4
  0
LINE
  8
0
 10
572.9
 20
233.4
 11
572.9
 21
233.262
  0
LINE
  8
0
 10
572.9
 20
233.262
 11
570.8
 21
233.4
  0
LINE
  8
0
 10
570.8
 20
233.4
 11
567.641
 21
233.193
  0
LINE
  8
0
 10
567.641
 20
233.193
 11
564.537
 21
232.575
  0
LINE
  8
0
 10
564.537
 20
232.575
 11
561.539
 21
231.558
  0
LINE
  8
0
 10
561.539
 20
231.558
 11
558.7
 21
230.158
  0
LINE
  8
0
 10
558.7
 20
230.158
 11
556.068
 21
228.399
  0
LINE
  8
0
 10
556.068
 20
228.399
 11
553.688
 21
226.312
  0
LINE
  8
0
 10
553.688
 20
226.312
 11
551.601
 21
223.932
  0
LINE
  8
0
 10
551.601
 20
223.932
 11
549.842
 21
221.3
  0
LINE
  8
0
 10
549.842
 20
221.3
 11
548.442
 21
218.461
  0
LINE
  8
0
 10
548.442
 20
218.461
 11
547.425
 21
215.463
  0
LINE
  8
0
 10
547.425
 20
215.463
 11
546.807
 21
212.359
  0
LINE
  8
0
 10
546.807
 20
212.359
 11
546.6
 21
209.2
  0
LINE
  8
0
 10
546.6
 20
209.2
 11
546.738
 21
207.1
  0
LINE
  8
0
 10
546.738
 20
207.1
 11
546.6
 21
207.1
  0
LINE
  8
0
 10
546.6
 20
207.1
 11
546.6
 21
92.9
  0
LINE
  8
0
 10
546.6
 20
92.9
 11
546.738
 21
92.9
  0
LINE
  8
0
 10
546.738
 20
92.9
 11
546.6
 21
90.8
  0
LINE
  8
0
 10
546.6
 20
90.8
 11
546.807
 21
87.6413
  0
LINE
  8
0
 10
546.807
 20
87.6413
 11
547.425
 21
84.5366
  0
LINE
  8
0
 10
547.425
 20
84.5366
 11
548.442
 21
81.5391
  0
LINE
  8
0
 10
548.442
 20
81.5391
 11
549.842
 21
78.7
  0
LINE
  8
0
 10
549.842
 20
78.7
 11
551.601
 21
76.068
  0
LINE
  8
0
 10
551.601
 20
76.068
 11
553.688
 21
73.688
  0
LINE
  8
0
 10
553.688
 20
73.688
 11
556.068
 21
71.6008
  0
LINE
  8
0
 10
556.068
 20
71.6008
 11
558.7
 21
69.8422
  0
LINE
  8
0
 10
558.7
 20
69.8422
 11
561.539
 21
68.4421
  0
LINE
  8
0
 10
561.539
 20
68.4421
 11
564.537
 21
67.4246
  0
LINE
  8
0
 10
564.537
 20
67.4246
 11
567.641
 21
66.807
  0
LINE
  8
0
 10
567.641
 20
66.807
 11
570.8
 21
66.6
  0
LINE
  8
0
 10
570.8
 20
66.6
 11
572.9
 21
66.7376
  0
LINE
  8
0
 10
572.9
 20
66.7376
 11
572.9
 21
66.6
  0
LINE
  8
0
 10
572.9
 20
66.6
 11
907.1
 21
66.6
  0
LINE
  8
0
 10
907.1
 20
66.6
 11
907.1
 21
66.7376
  0
LINE
  8
0
 10
815
 20
225
 11
815
 21
229.3
  0
LINE
  8
0
 10
815
 20
229.3
 11
825
 21
229.3
  0
LINE
  8
0
 10
825
 20
229.3
 11
825
 21
225
  0
LINE
  8
0
 10
825
 20
225
 11
815
 21
225
  0
LINE
  8
0
 10
755
 20
225
 11
755
 21
229.3
  0
LINE
  8
0
 10
755
 20
229.3
 11
765
 21
229.3
  0
LINE
  8
0
 10
765
 20
229.3
 11
765
 21
225
  0
LINE
  8
0
 10
765
 20
225
 11
755
 21
225
  0
LINE
  8
0
 10
835
 20
225
 11
835
 21
229.3
  0
LINE
  8
0
 10
835
 20
229.3
 11
845
 21
229.3
  0
LINE
  8
0
 10
845
 20
229.3
 11
845
 21
225
  0
LINE
  8
0
 10
845
 20
225
 11
835
 21
225
  0
LINE
  8
0
 10
735
 20
225
 11
735
 21
229.3
  0
LINE
  8
0
 10
735
 20
229.3
 11
745
 21
229.3
  0
LINE
  8
0
 10
745
 20
229.3
 11
745
 21
225
  0
LINE
  8
0
 10
745
 20
225
 11
735
 21
225
  0
LINE
  8
0
 10
795
 20
225
 11
795
 21
229.3
  0
LINE
  8
0
 10
795
 20
229.3
 11
805
 21
229.3
  0
LINE
  8
0
 10
805
 20
229.3
 11
805
 21
225
  0
LINE
  8
0
 10
805
 20
225
 11
795
 21
225
  0
LINE
  8
0
 10
715
 20
225
 11
715
 21
229.3
  0
LINE
  8
0
 10
715
 20
229.3
 11
725
 21
229.3
  0
LINE
  8
0
 10
725
 20
229.3
 11
725
 21
225
  0
LINE
  8
0
 10
725
 20
225
 11
715
 21
225
  0
LINE
  8
0
 10
695
 20
225
 11
695
 21
229.3
  0
LINE
  8
0
 10
695
 20
229.3
 11
705
 21
229.3
  0
LINE
  8
0
 10
705
 20
229.3
 11
705
 21
225
  0
LINE
  8
0
 10
705
 20
225
 11
695
 21
225
  0
LINE
  8
0
 10
775
 20
225
 11
775
 21
229.3
  0
LINE
  8
0
 10
775
 20
229.3
 11
785
 21
229.3
  0
LINE
  8
0
 10
785
 20
229.3
 11
785
 21
225
  0
LINE
  8
0
 10
785
 20
225
 11
775
 21
225
  0
LINE
  8
0
 10
635
 20
225
 11
635
 21
229.3
  0
LINE
  8
0
 10
635
 20
229.3
 11
645
 21
229.3
  0
LINE
  8
0
 10
645
 20
229.3
 11
645
 21
225
  0
LINE
  8
0
 10
645
 20
225
 11
635
 21
225
  0
LINE
  8
0
 10
575
 20
225
 11
575
 21
229.3
  0
LINE
  8
0
 10
575
 20
229.3
 11
585
 21
229.3
  0
LINE
  8
0
 10
585
 20
229.3
 11
585
 21
225
  0
LINE
  8
0
 10
585
 20
225
 11
575
 21
225
  0
LINE
  8
0
 10
675
 20
225
 11
675
 21
229.3
  0
LINE
  8
0
 10
675
 20
229.3
 11
685
 21
229.3
  0
LINE
  8
0
 10
685
 20
229.3
 11
685
 21
225
  0
LINE
  8
0
 10
685
 20
225
 11
675
 21
225
  0
LINE
  8
0
 10
655
 20
225
 11
655
 21
229.3
  0
LINE
  8
0
 10
655
 20
229.3
 11
665
 21
229.3
  0
LINE
  8
0
 10
665
 20
229.3
 11
665
 21
225
  0
LINE
  8
0
 10
665
 20
225
 11
655
 21
225
  0
LINE
  8
0
 10
855
 20
225
 11
855
 21
229.3
  0
LINE
  8
0
 10
855
 20
229.3
 11
865
 21
229.3
  0
LINE
  8
0
 10
865
 20
229.3
 11
865
 21
225
  0
LINE
  8
0
 10
865
 20
225
 11
855
 21
225
  0
LINE
  8
0
 10
895
 20
225
 11
895
 21
229.3
  0
LINE
  8
0
 10
895
 20
229.3
 11
905
 21
229.3
  0
LINE
  8
0
 10
905
 20
229.3
 11
905
 21
225
  0
LINE
  8
0
 10
905
 20
225
 11
895
 21
225
  0
LINE
  8
0
 10
875
 20
225
 11
875
 21
229.3
  0
LINE
  8
0
 10
875
 20
229.3
 11
885
 21
229.3
  0
LINE
  8
0
 10
885
 20
229.3
 11
885
 21
225
  0
LINE
  8
0
 10
885
 20
225
 11
875
 21
225
  0
LINE
  8
0
 10
595
 20
225
 11
595
 21
229.3
  0
LINE
  8
0
 10
595
 20
229.3
 11
605
 21
229.3
  0
LINE
  8
0
 10
605
 20
229.3
 11
605
 21
225
  0
LINE
  8
0
 10
605
 20
225
 11
595
 21
225
  0
LINE
  8
0
 10
615
 20
225
 11
615
 21
229.3
  0
LINE
  8
0
 10
615
 20
229.3
 11
625
 21
229.3
  0
LINE
  8
0
 10
625
 20
229.3
 11
625
 21
225
  0
LINE
  8
0
 10
625
 20
225
 11
615
 21
225
  0
LINE
  8
0
 10
925
 20
195
 11
925
 21
205
  0
LINE
  8
0
 10
925
 20
205
 11
929.3
 21
205
  0
LINE
  8
0
 10
929.3
 20
205
 11
929.3
 21
195
  0
LINE
  8
0
 10
929.3
 20
195
 11
925
 21
195
  0
LINE
  8
0
 10
550.7
 20
192.5
 11
550.7
 21
202.5
  0
LINE
  8
0
 10
550.7
 20
202.5
 11
555
 21
202.5
  0
LINE
  8
0
 10
555
 20
202.5
 11
555
 21
192.5
  0
LINE
  8
0
 10
555
 20
192.5
 11
550.7
 21
192.5
  0
LINE
  8
0
 10
925
 20
175
 11
925
 21
185
  0
LINE
  8
0
 10
925
 20
185
 11
929.3
 21
185
  0
LINE
  8
0
 10
929.3
 20
185
 11
929.3
 21
175
  0
LINE
  8
0
 10
929.3
 20
175
 11
925
 21
175
  0
LINE
  8
0
 10
550.7
 20
172.5
 11
550.7
 21
182.5
  0
LINE
  8
0
 10
550.7
 20
182.5
 11
555
 21
182.5
  0
LINE
  8
0
 10
555
 20
182.5
 11
555
 21
172.5
  0
LINE
  8
0
 10
555
 20
172.5
 11
550.7
 21
172.5
  0
LINE
  8
0
 10
925
 20
155
 11
925
 21
165
  0
LINE
  8
0
 10
925
 20
165
 11
929.3
 21
165
  0
LINE
  8
0
 10
929.3
 20
165
 11
929.3
 21
155
  0
LINE
  8
0
 10
929.3
 20
155
 11
925
 21
155
  0
LINE
  8
0
 10
550.7
 20
152.5
 11
550.7
 21
162.5
  0
LINE
  8
0
 10
550.7
 20
162.5
 11
555
 21
162.5
  0
LINE
  8
0
 10
555
 20
162.5
 11
555
 21
152.5
  0
LINE
  8
0
 10
555
 20
152.5
 11
550.7
 21
152.5
  0
LINE
  8
0
 10
550.7
 20
137.5
 11
550.7
 21
147.5
  0
LINE
  8
0
 10
550.7
 20
147.5
 11
555
 21
147.5
  0
LINE
  8
0
 10
555
 20
147.5
 11
555
 21
137.5
  0
LINE
  8
0
 10
555
 20
137.5
 11
550.7
 21
137.5
  0
LINE
  8
0
 10
925
 20
135
 11
925
 21
145
  0
LINE
  8
0
 10
925
 20
145
 11
929.3
 21
145
  0
LINE
  8
0
 10
929.3
 20
145
 11
929.3
 21
135
  0
LINE
  8
0
 10
929.3
 20
135
 11
925
 21
135
  0
LINE
  8
0
 10
550.7
 20
117.5
 11
550.7
 21
127.5
  0
LINE
  8
0
 10
550.7
 20
127.5
 11
555
 21
127.5
  0
LINE
  8
0
 10
555
 20
127.5
 11
555
 21
117.5
  0
LINE
  8
0
 10
555
 20
117.5
 11
550.7
 21
117.5
  0
LINE
  8
0
 10
925
 20
115
 11
925
 21
125
  0
LINE
  8
0
 10
925
 20
125
 11
929.3
 21
125
  0
LINE
  8
0
 10
929.3
 20
125
 11
929.3
 21
115
  0
LINE
  8
0
 10
929.3
 20
115
 11
925
 21
115
  0
LINE
  8
0
 10
550.7
 20
97.5
 11
550.7
 21
107.5
  0
LINE
  8
0
 10
550.7
 20
107.5
 11
555
 21
107.5
  0
LINE
  8
0
 10
555
 20
107.5
 11
555
 21
97.5
  0
LINE
  8
0
 10
555
 20
97.5
 11
550.7
 21
97.5
  0
LINE
  8
0
 10
925
 20
95
 11
925
 21
105
  0
LINE
  8
0
 10
925
 20
105
 11
929.3
 21
105
  0
LINE
  8
0
 10
929.3
 20
105
 11
929.3
 21
95
  0
LINE
  8
0
 10
929.3
 20
95
 11
925
 21
95
  0
LINE
  8
0
 10
815
 20
70.7
 11
815
 21
75
  0
LINE
  8
0
 10
815
 20
75
 11
825
 21
75
  0
LINE
  8
0
 10
825
 20
75
 11
825
 21
70.7
  0
LINE
  8
0
 10
825
 20
70.7
 11
815
 21
70.7
  0
LINE
  8
0
 10
835
 20
70.7
 11
835
 21
75
  0
LINE
  8
0
 10
835
 20
75
 11
845
 21
75
  0
LINE
  8
0
 10
845
 20
75
 11
845
 21
70.7
  0
LINE
  8
0
 10
845
 20
70.7
 11
835
 21
70.7
  0
LINE
  8
0
 10
595
 20
70.7
 11
595
 21
75
  0
LINE
  8
0
 10
595
 20
75
 11
605
 21
75
  0
LINE
  8
0
 10
605
 20
75
 11
605
 21
70.7
  0
LINE
  8
0
 10
605
 20
70.7
 11
595
 21
70.7
  0
LINE
  8
0
 10
575
 20
70.7
 11
575
 21
75
  0
LINE
  8
0
 10
575
 20
75
 11
585
 21
75
  0
LINE
  8
0
 10
585
 20
75
 11
585
 21
70.7
  0
LINE
  8
0
 10
585
 20
70.7
 11
575
 21
70.7
  0
LINE
  8
0
 10
795
 20
70.7
 11
795
 21
75
  0
LINE
  8
0
 10
795
 20
75
 11
805
 21
75
  0
LINE
  8
0
 10
805
 20
75
 11
805
 21
70.7
  0
LINE
  8
0
 10
805
 20
70.7
 11
795
 21
70.7
  0
LINE
  8
0
 10
775
 20
70.7
 11
775
 21
75
  0
LINE
  8
0
 10
775
 20
75
 11
785
 21
75
  0
LINE
  8
0
 10
785
 20
75
 11
785
 21
70.7
  0
LINE
  8
0
 10
785
 20
70.7
 11
775
 21
70.7
  0
LINE
  8
0
 10
675
 20
70.7
 11
675
 21
75
  0
LINE
  8
0
 10
675
 20
75
 11
685
 21
75
  0
LINE
  8
0
 10
685
 20
75
 11
685
 21
70.7
  0
LINE
  8
0
 10
685
 20
70.7
 11
675
 21
70.7
  0
LINE
  8
0
 10
895
 20
70.7
 11
895
 21
75
  0
LINE
  8
0
 10
895
 20
75
 11
905
 21
75
  0
LINE
  8
0
 10
905
 20
75
 11
905
 21
70.7
  0
LINE
  8
0
 10
905
 20
70.7
 11
895
 21
70.7
  0
LINE
  8
0
 10
855
 20
70.7
 11
855
 21
75
  0
LINE
  8
0
 10
855
 20
75
 11
865
 21
75
  0
LINE
  8
0
 10
865
 20
75
 11
865
 21
70.7
  0
LINE
  8
0
 10
865
 20
70.7
 11
855
 21
70.7
  0
LINE
  8
0
 10
875
 20
70.7
 11
875
 21
75
  0
LINE
  8
0
 10
875
 20
75
 11
885
 21
75
  0
LINE
  8
0
 10
885
 20
75
 11
885
 21
70.7
  0
LINE
  8
0
 10
885
 20
70.7
 11
875
 21
70.7
  0
LINE
  8
0
 10
615
 20
70.7
 11
615
 21
75
  0
LINE
  8
0
 10
615
 20
75
 11
625
 21
75
  0
LINE
  8
0
 10
625
 20
75
 11
625
 21
70.7
  0
LINE
  8
0
 10
625
 20
70.7
 11
615
 21
70.7
  0
LINE
  8
0
 10
755
 20
70.7
 11
755
 21
75
  0
LINE
  8
0
 10
755
 20
75
 11
765
 21
75
  0
LINE
  8
0
 10
765
 20
75
 11
765
 21
70.7
  0
LINE
  8
0
 10
765
 20
70.7
 11
755
 21
70.7
  0
LINE
  8
0
 10
735
 20
70.7
 11
735
 21
75
  0
LINE
  8
0
 10
735
 20
75
 11
745
 21
75
  0
LINE
  8
0
 10
745
 20
75
 11
745
 21
70.7
  0
LINE
  8
0
 10
745
 20
70.7
 11
735
 21
70.7
  0
LINE
  8
0
 10
715
 20
70.7
 11
715
 21
75
  0
LINE
  8
0
 10
715
 20
75
 11
725
 21
75
  0
LINE
  8
0
 10
725
 20
75
 11
725
 21
70.7
  0
LINE
  8
0
 10
725
 20
70.7
 11
715
 21
70.7
  0
LINE
  8
0
 10
635
 20
70.7
 11
635
 21
75
  0
LINE
  8
0
 10
635
 20
75
 11
645
 21
75
  0
LINE
  8
0
 10
645
 20
75
 11
645
 21
70.7
  0
LINE
  8
0
 10
645
 20
70.7
 11
635
 21
70.7
  0
LINE
  8
0
 10
695
 20
70.7
 11
695
 21
75
  0
LINE
  8
0
 10
695
 20
75
 11
705
 21
75
  0
LINE
  8
0
 10
705
 20
75
 11
705
 21
70.7
  0
LINE
  8
0
 10
705
 20
70.7
 11
695
 21
70.7
  0
LINE
  8
0
 10
655
 20
70.7
 11
655
 21
75
  0
LINE
  8
0
 10
655
 20
75
 11
665
 21
75
  0
LINE
  8
0
 10
665
 20
75
 11
665
 21
70.7
  0
LINE
  8
0
 10
665
 20
70.7
 11
655
 21
70.7
  0
ENDSEC
  0
SECTION
  2
OBJECTS
  0
DICTIONARY
  0
ENDSEC
  0
EOF
