  0
SECTION
  2
BLOCKS
  0
ENDSEC
  0
SECTION
  2
ENTITIES
  0
LINE
  8
0
 10
0.30426
 20
-4.16628
 11
0.428497
 21
-3.88451
  0
LINE
  8
0
 10
0.428497
 20
-3.88451
 11
0.484802
 21
-3.67188
  0
LINE
  8
0
 10
0.484802
 20
-3.67188
 11
0.498566
 21
-3.54062
  0
LINE
  8
0
 10
0.498566
 20
-3.54062
 11
0.496979
 21
-3.49664
  0
LINE
  8
0
 10
0.496979
 20
-3.49664
 11
0.46283
 21
-3.25638
  0
LINE
  8
0
 10
0.46283
 20
-3.25638
 11
0.818542
 21
-3.18562
  0
LINE
  8
0
 10
0.818542
 20
-3.18562
 11
0.878937
 21
-3.42065
  0
LINE
  8
0
 10
0.878937
 20
-3.42065
 11
0.894302
 21
-3.4619
  0
LINE
  8
0
 10
0.894302
 20
-3.4619
 11
0.957245
 21
-3.5779
  0
LINE
  8
0
 10
0.957245
 20
-3.5779
 11
1.09064
 21
-3.75279
  0
LINE
  8
0
 10
1.09064
 20
-3.75279
 11
1.31325
 21
-3.96558
  0
LINE
  8
0
 10
1.31325
 20
-3.96558
 11
1.63872
 21
-4.19099
  0
LINE
  8
0
 10
1.63872
 20
-4.19099
 11
1.80473
 21
-4.12224
  0
LINE
  8
0
 10
1.80473
 20
-4.12224
 11
1.87547
 21
-3.73268
  0
LINE
  8
0
 10
1.87547
 20
-3.73268
 11
1.88242
 21
-3.42482
  0
LINE
  8
0
 10
1.88242
 20
-3.42482
 11
1.85307
 21
-3.20683
  0
LINE
  8
0
 10
1.85307
 20
-3.20683
 11
1.81555
 21
-3.08029
  0
LINE
  8
0
 10
1.81555
 20
-3.08029
 11
1.79726
 21
-3.04028
  0
LINE
  8
0
 10
1.79726
 20
-3.04028
 11
1.67377
 21
-2.83139
  0
LINE
  8
0
 10
1.67377
 20
-2.83139
 11
1.97533
 21
-2.62988
  0
LINE
  8
0
 10
1.97533
 20
-2.62988
 11
2.12106
 21
-2.82391
  0
LINE
  8
0
 10
2.12106
 20
-2.82391
 11
2.15103
 21
-2.85614
  0
LINE
  8
0
 10
2.15103
 20
-2.85614
 11
2.25359
 21
-2.93922
  0
LINE
  8
0
 10
2.25359
 20
-2.93922
 11
2.44376
 21
-3.04976
  0
LINE
  8
0
 10
2.44376
 20
-3.04976
 11
2.73083
 21
-3.16115
  0
LINE
  8
0
 10
2.73083
 20
-3.16115
 11
3.11781
 21
-3.24487
  0
LINE
  8
0
 10
3.11781
 20
-3.24487
 11
3.24487
 21
-3.11781
  0
LINE
  8
0
 10
3.24487
 20
-3.11781
 11
3.16115
 21
-2.73083
  0
LINE
  8
0
 10
3.16115
 20
-2.73083
 11
3.04976
 21
-2.44376
  0
LINE
  8
0
 10
3.04976
 20
-2.44376
 11
2.93922
 21
-2.25359
  0
LINE
  8
0
 10
2.93922
 20
-2.25359
 11
2.85614
 21
-2.15103
  0
LINE
  8
0
 10
2.85614
 20
-2.15103
 11
2.82391
 21
-2.12106
  0
LINE
  8
0
 10
2.82391
 20
-2.12106
 11
2.62988
 21
-1.97533
  0
LINE
  8
0
 10
2.62988
 20
-1.97533
 11
2.83139
 21
-1.67377
  0
LINE
  8
0
 10
2.83139
 20
-1.67377
 11
3.04028
 21
-1.79726
  0
LINE
  8
0
 10
3.04028
 20
-1.79726
 11
3.08029
 21
-1.81555
  0
LINE
  8
0
 10
3.08029
 20
-1.81555
 11
3.20683
 21
-1.85307
  0
LINE
  8
0
 10
3.20683
 20
-1.85307
 11
3.42482
 21
-1.88242
  0
LINE
  8
0
 10
3.42482
 20
-1.88242
 11
3.73268
 21
-1.87547
  0
LINE
  8
0
 10
3.73268
 20
-1.87547
 11
4.12224
 21
-1.80473
  0
LINE
  8
0
 10
4.12224
 20
-1.80473
 11
4.19099
 21
-1.63872
  0
LINE
  8
0
 10
4.19099
 20
-1.63872
 11
3.96558
 21
-1.31325
  0
LINE
  8
0
 10
3.96558
 20
-1.31325
 11
3.75279
 21
-1.09064
  0
LINE
  8
0
 10
3.75279
 20
-1.09064
 11
3.5779
 21
-0.957245
  0
LINE
  8
0
 10
3.5779
 20
-0.957245
 11
3.4619
 21
-0.894302
  0
LINE
  8
0
 10
3.4619
 20
-0.894302
 11
3.42065
 21
-0.878937
  0
LINE
  8
0
 10
3.42065
 20
-0.878937
 11
3.18562
 21
-0.818542
  0
LINE
  8
0
 10
3.18562
 20
-0.818542
 11
3.25638
 21
-0.462845
  0
LINE
  8
0
 10
3.25638
 20
-0.462845
 11
3.49664
 21
-0.496994
  0
LINE
  8
0
 10
3.49664
 20
-0.496994
 11
3.54062
 21
-0.498581
  0
LINE
  8
0
 10
3.54062
 20
-0.498581
 11
3.67188
 21
-0.484818
  0
LINE
  8
0
 10
3.67188
 20
-0.484818
 11
3.88451
 21
-0.428513
  0
LINE
  8
0
 10
3.88451
 20
-0.428513
 11
4.16628
 21
-0.304276
  0
LINE
  8
0
 10
4.16628
 20
-0.304276
 11
4.4991
 21
-0.0898438
  0
LINE
  8
0
 10
4.4991
 20
-0.0898438
 11
4.4991
 21
0.0898285
  0
LINE
  8
0
 10
4.4991
 20
0.0898285
 11
4.16628
 21
0.30426
  0
LINE
  8
0
 10
4.16628
 20
0.30426
 11
3.88451
 21
0.428497
  0
LINE
  8
0
 10
3.88451
 20
0.428497
 11
3.67188
 21
0.484802
  0
LINE
  8
0
 10
3.67188
 20
0.484802
 11
3.54062
 21
0.498566
  0
LINE
  8
0
 10
3.54062
 20
0.498566
 11
3.49664
 21
0.496979
  0
LINE
  8
0
 10
3.49664
 20
0.496979
 11
3.25638
 21
0.46283
  0
LINE
  8
0
 10
3.25638
 20
0.46283
 11
3.18562
 21
0.818542
  0
LINE
  8
0
 10
3.18562
 20
0.818542
 11
3.42065
 21
0.878937
  0
LINE
  8
0
 10
3.42065
 20
0.878937
 11
3.4619
 21
0.894302
  0
LINE
  8
0
 10
3.4619
 20
0.894302
 11
3.5779
 21
0.957245
  0
LINE
  8
0
 10
3.5779
 20
0.957245
 11
3.75279
 21
1.09064
  0
LINE
  8
0
 10
3.75279
 20
1.09064
 11
3.96558
 21
1.31325
  0
LINE
  8
0
 10
3.96558
 20
1.31325
 11
4.19099
 21
1.63872
  0
LINE
  8
0
 10
4.19099
 20
1.63872
 11
4.12224
 21
1.80473
  0
LINE
  8
0
 10
4.12224
 20
1.80473
 11
3.73268
 21
1.87547
  0
LINE
  8
0
 10
3.73268
 20
1.87547
 11
3.42482
 21
1.88242
  0
LINE
  8
0
 10
3.42482
 20
1.88242
 11
3.20683
 21
1.85307
  0
LINE
  8
0
 10
3.20683
 20
1.85307
 11
3.08029
 21
1.81555
  0
LINE
  8
0
 10
3.08029
 20
1.81555
 11
3.04028
 21
1.79726
  0
LINE
  8
0
 10
3.04028
 20
1.79726
 11
2.83139
 21
1.67377
  0
LINE
  8
0
 10
2.83139
 20
1.67377
 11
2.62988
 21
1.97533
  0
LINE
  8
0
 10
2.62988
 20
1.97533
 11
2.82391
 21
2.12106
  0
LINE
  8
0
 10
2.82391
 20
2.12106
 11
2.85614
 21
2.15103
  0
LINE
  8
0
 10
2.85614
 20
2.15103
 11
2.93922
 21
2.25359
  0
LINE
  8
0
 10
2.93922
 20
2.25359
 11
3.04976
 21
2.44376
  0
LINE
  8
0
 10
3.04976
 20
2.44376
 11
3.16115
 21
2.73083
  0
LINE
  8
0
 10
3.16115
 20
2.73083
 11
3.24487
 21
3.11781
  0
LINE
  8
0
 10
3.24487
 20
3.11781
 11
3.11781
 21
3.24487
  0
LINE
  8
0
 10
3.11781
 20
3.24487
 11
2.73083
 21
3.16115
  0
LINE
  8
0
 10
2.73083
 20
3.16115
 11
2.44376
 21
3.04976
  0
LINE
  8
0
 10
2.44376
 20
3.04976
 11
2.25359
 21
2.93922
  0
LINE
  8
0
 10
2.25359
 20
2.93922
 11
2.15103
 21
2.85614
  0
LINE
  8
0
 10
2.15103
 20
2.85614
 11
2.12106
 21
2.82391
  0
LINE
  8
0
 10
2.12106
 20
2.82391
 11
1.97533
 21
2.62988
  0
LINE
  8
0
 10
1.97533
 20
2.62988
 11
1.67377
 21
2.83139
  0
LINE
  8
0
 10
1.67377
 20
2.83139
 11
1.79726
 21
3.04028
  0
LINE
  8
0
 10
1.79726
 20
3.04028
 11
1.81555
 21
3.08029
  0
LINE
  8
0
 10
1.81555
 20
3.08029
 11
1.85307
 21
3.20683
  0
LINE
  8
0
 10
1.85307
 20
3.20683
 11
1.88242
 21
3.42482
  0
LINE
  8
0
 10
1.88242
 20
3.42482
 11
1.87547
 21
3.73268
  0
LINE
  8
0
 10
1.87547
 20
3.73268
 11
1.80473
 21
4.12224
  0
LINE
  8
0
 10
1.80473
 20
4.12224
 11
1.63872
 21
4.19099
  0
LINE
  8
0
 10
1.63872
 20
4.19099
 11
1.31325
 21
3.96558
  0
LINE
  8
0
 10
1.31325
 20
3.96558
 11
1.09064
 21
3.75279
  0
LINE
  8
0
 10
1.09064
 20
3.75279
 11
0.957245
 21
3.5779
  0
LINE
  8
0
 10
0.957245
 20
3.5779
 11
0.894302
 21
3.4619
  0
LINE
  8
0
 10
0.894302
 20
3.4619
 11
0.878937
 21
3.42065
  0
LINE
  8
0
 10
0.878937
 20
3.42065
 11
0.818542
 21
3.18562
  0
LINE
  8
0
 10
0.818542
 20
3.18562
 11
0.462845
 21
3.25638
  0
LINE
  8
0
 10
0.462845
 20
3.25638
 11
0.496994
 21
3.49664
  0
LINE
  8
0
 10
0.496994
 20
3.49664
 11
0.498581
 21
3.54062
  0
LINE
  8
0
 10
0.498581
 20
3.54062
 11
0.484818
 21
3.67188
  0
LINE
  8
0
 10
0.484818
 20
3.67188
 11
0.428513
 21
3.88451
  0
LINE
  8
0
 10
0.428513
 20
3.88451
 11
0.304276
 21
4.16628
  0
LINE
  8
0
 10
0.304276
 20
4.16628
 11
0.0898438
 21
4.4991
  0
LINE
  8
0
 10
0.0898438
 20
4.4991
 11
-0.0898285
 21
4.4991
  0
LINE
  8
0
 10
-0.0898285
 20
4.4991
 11
-0.30426
 21
4.16628
  0
LINE
  8
0
 10
-0.30426
 20
4.16628
 11
-0.428497
 21
3.88451
  0
LINE
  8
0
 10
-0.428497
 20
3.88451
 11
-0.484802
 21
3.67188
  0
LINE
  8
0
 10
-0.484802
 20
3.67188
 11
-0.498566
 21
3.54062
  0
LINE
  8
0
 10
-0.498566
 20
3.54062
 11
-0.496979
 21
3.49664
  0
LINE
  8
0
 10
-0.496979
 20
3.49664
 11
-0.46283
 21
3.25638
  0
LINE
  8
0
 10
-0.46283
 20
3.25638
 11
-0.818542
 21
3.18562
  0
LINE
  8
0
 10
-0.818542
 20
3.18562
 11
-0.878937
 21
3.42065
  0
LINE
  8
0
 10
-0.878937
 20
3.42065
 11
-0.894302
 21
3.4619
  0
LINE
  8
0
 10
-0.894302
 20
3.4619
 11
-0.957245
 21
3.5779
  0
LINE
  8
0
 10
-0.957245
 20
3.5779
 11
-1.09064
 21
3.75279
  0
LINE
  8
0
 10
-1.09064
 20
3.75279
 11
-1.31325
 21
3.96558
  0
LINE
  8
0
 10
-1.31325
 20
3.96558
 11
-1.63872
 21
4.19099
  0
LINE
  8
0
 10
-1.63872
 20
4.19099
 11
-1.80473
 21
4.12224
  0
LINE
  8
0
 10
-1.80473
 20
4.12224
 11
-1.87547
 21
3.73268
  0
LINE
  8
0
 10
-1.87547
 20
3.73268
 11
-1.88242
 21
3.42482
  0
LINE
  8
0
 10
-1.88242
 20
3.42482
 11
-1.85307
 21
3.20683
  0
LINE
  8
0
 10
-1.85307
 20
3.20683
 11
-1.81555
 21
3.08029
  0
LINE
  8
0
 10
-1.81555
 20
3.08029
 11
-1.79726
 21
3.04028
  0
LINE
  8
0
 10
-1.79726
 20
3.04028
 11
-1.67377
 21
2.83139
  0
LINE
  8
0
 10
-1.67377
 20
2.83139
 11
-1.97533
 21
2.62988
  0
LINE
  8
0
 10
-1.97533
 20
2.62988
 11
-2.12106
 21
2.82391
  0
LINE
  8
0
 10
-2.12106
 20
2.82391
 11
-2.15103
 21
2.85614
  0
LINE
  8
0
 10
-2.15103
 20
2.85614
 11
-2.25359
 21
2.93922
  0
LINE
  8
0
 10
-2.25359
 20
2.93922
 11
-2.44376
 21
3.04976
  0
LINE
  8
0
 10
-2.44376
 20
3.04976
 11
-2.73083
 21
3.16115
  0
LINE
  8
0
 10
-2.73083
 20
3.16115
 11
-3.11781
 21
3.24487
  0
LINE
  8
0
 10
-3.11781
 20
3.24487
 11
-3.24487
 21
3.11781
  0
LINE
  8
0
 10
-3.24487
 20
3.11781
 11
-3.16115
 21
2.73083
  0
LINE
  8
0
 10
-3.16115
 20
2.73083
 11
-3.04976
 21
2.44376
  0
LINE
  8
0
 10
-3.04976
 20
2.44376
 11
-2.93922
 21
2.25359
  0
LINE
  8
0
 10
-2.93922
 20
2.25359
 11
-2.85614
 21
2.15103
  0
LINE
  8
0
 10
-2.85614
 20
2.15103
 11
-2.82391
 21
2.12106
  0
LINE
  8
0
 10
-2.82391
 20
2.12106
 11
-2.62988
 21
1.97533
  0
LINE
  8
0
 10
-2.62988
 20
1.97533
 11
-2.83139
 21
1.67377
  0
LINE
  8
0
 10
-2.83139
 20
1.67377
 11
-3.04028
 21
1.79726
  0
LINE
  8
0
 10
-3.04028
 20
1.79726
 11
-3.08029
 21
1.81555
  0
LINE
  8
0
 10
-3.08029
 20
1.81555
 11
-3.20683
 21
1.85307
  0
LINE
  8
0
 10
-3.20683
 20
1.85307
 11
-3.42482
 21
1.88242
  0
LINE
  8
0
 10
-3.42482
 20
1.88242
 11
-3.73268
 21
1.87547
  0
LINE
  8
0
 10
-3.73268
 20
1.87547
 11
-4.12224
 21
1.80473
  0
LINE
  8
0
 10
-4.12224
 20
1.80473
 11
-4.19099
 21
1.63872
  0
LINE
  8
0
 10
-4.19099
 20
1.63872
 11
-3.96558
 21
1.31325
  0
LINE
  8
0
 10
-3.96558
 20
1.31325
 11
-3.75279
 21
1.09064
  0
LINE
  8
0
 10
-3.75279
 20
1.09064
 11
-3.5779
 21
0.957245
  0
LINE
  8
0
 10
-3.5779
 20
0.957245
 11
-3.4619
 21
0.894302
  0
LINE
  8
0
 10
-3.4619
 20
0.894302
 11
-3.42065
 21
0.878937
  0
LINE
  8
0
 10
-3.42065
 20
0.878937
 11
-3.18562
 21
0.818542
  0
LINE
  8
0
 10
-3.18562
 20
0.818542
 11
-3.25638
 21
0.462845
  0
LINE
  8
0
 10
-3.25638
 20
0.462845
 11
-3.49664
 21
0.496994
  0
LINE
  8
0
 10
-3.49664
 20
0.496994
 11
-3.54062
 21
0.498581
  0
LINE
  8
0
 10
-3.54062
 20
0.498581
 11
-3.67188
 21
0.484818
  0
LINE
  8
0
 10
-3.67188
 20
0.484818
 11
-3.88451
 21
0.428513
  0
LINE
  8
0
 10
-3.88451
 20
0.428513
 11
-4.16628
 21
0.304276
  0
LINE
  8
0
 10
-4.16628
 20
0.304276
 11
-4.4991
 21
0.0898438
  0
LINE
  8
0
 10
-4.4991
 20
0.0898438
 11
-4.4991
 21
-0.0898285
  0
LINE
  8
0
 10
-4.4991
 20
-0.0898285
 11
-4.16628
 21
-0.30426
  0
LINE
  8
0
 10
-4.16628
 20
-0.30426
 11
-3.88451
 21
-0.428497
  0
LINE
  8
0
 10
-3.88451
 20
-0.428497
 11
-3.67188
 21
-0.484802
  0
LINE
  8
0
 10
-3.67188
 20
-0.484802
 11
-3.54062
 21
-0.498566
  0
LINE
  8
0
 10
-3.54062
 20
-0.498566
 11
-3.49664
 21
-0.496979
  0
LINE
  8
0
 10
-3.49664
 20
-0.496979
 11
-3.25638
 21
-0.46283
  0
LINE
  8
0
 10
-3.25638
 20
-0.46283
 11
-3.18562
 21
-0.818542
  0
LINE
  8
0
 10
-3.18562
 20
-0.818542
 11
-3.42065
 21
-0.878937
  0
LINE
  8
0
 10
-3.42065
 20
-0.878937
 11
-3.4619
 21
-0.894302
  0
LINE
  8
0
 10
-3.4619
 20
-0.894302
 11
-3.5779
 21
-0.957245
  0
LINE
  8
0
 10
-3.5779
 20
-0.957245
 11
-3.75279
 21
-1.09064
  0
LINE
  8
0
 10
-3.75279
 20
-1.09064
 11
-3.96558
 21
-1.31325
  0
LINE
  8
0
 10
-3.96558
 20
-1.31325
 11
-4.19099
 21
-1.63872
  0
LINE
  8
0
 10
-4.19099
 20
-1.63872
 11
-4.12224
 21
-1.80473
  0
LINE
  8
0
 10
-4.12224
 20
-1.80473
 11
-3.73268
 21
-1.87547
  0
LINE
  8
0
 10
-3.73268
 20
-1.87547
 11
-3.42482
 21
-1.88242
  0
LINE
  8
0
 10
-3.42482
 20
-1.88242
 11
-3.20683
 21
-1.85307
  0
LINE
  8
0
 10
-3.20683
 20
-1.85307
 11
-3.08029
 21
-1.81555
  0
LINE
  8
0
 10
-3.08029
 20
-1.81555
 11
-3.04028
 21
-1.79726
  0
LINE
  8
0
 10
-3.04028
 20
-1.79726
 11
-2.83139
 21
-1.67377
  0
LINE
  8
0
 10
-2.83139
 20
-1.67377
 11
-2.62988
 21
-1.97533
  0
LINE
  8
0
 10
-2.62988
 20
-1.97533
 11
-2.82391
 21
-2.12106
  0
LINE
  8
0
 10
-2.82391
 20
-2.12106
 11
-2.85614
 21
-2.15103
  0
LINE
  8
0
 10
-2.85614
 20
-2.15103
 11
-2.93922
 21
-2.25359
  0
LINE
  8
0
 10
-2.93922
 20
-2.25359
 11
-3.04976
 21
-2.44376
  0
LINE
  8
0
 10
-3.04976
 20
-2.44376
 11
-3.16115
 21
-2.73083
  0
LINE
  8
0
 10
-3.16115
 20
-2.73083
 11
-3.24487
 21
-3.11781
  0
LINE
  8
0
 10
-3.24487
 20
-3.11781
 11
-3.11781
 21
-3.24487
  0
LINE
  8
0
 10
-3.11781
 20
-3.24487
 11
-2.73083
 21
-3.16115
  0
LINE
  8
0
 10
-2.73083
 20
-3.16115
 11
-2.44376
 21
-3.04976
  0
LINE
  8
0
 10
-2.44376
 20
-3.04976
 11
-2.25359
 21
-2.93922
  0
LINE
  8
0
 10
-2.25359
 20
-2.93922
 11
-2.15103
 21
-2.85614
  0
LINE
  8
0
 10
-2.15103
 20
-2.85614
 11
-2.12106
 21
-2.82391
  0
LINE
  8
0
 10
-2.12106
 20
-2.82391
 11
-1.97533
 21
-2.62988
  0
LINE
  8
0
 10
-1.97533
 20
-2.62988
 11
-1.67377
 21
-2.83139
  0
LINE
  8
0
 10
-1.67377
 20
-2.83139
 11
-1.79726
 21
-3.04028
  0
LINE
  8
0
 10
-1.79726
 20
-3.04028
 11
-1.81555
 21
-3.08029
  0
LINE
  8
0
 10
-1.81555
 20
-3.08029
 11
-1.85307
 21
-3.20683
  0
LINE
  8
0
 10
-1.85307
 20
-3.20683
 11
-1.88242
 21
-3.42482
  0
LINE
  8
0
 10
-1.88242
 20
-3.42482
 11
-1.87547
 21
-3.73268
  0
LINE
  8
0
 10
-1.87547
 20
-3.73268
 11
-1.80473
 21
-4.12224
  0
LINE
  8
0
 10
-1.80473
 20
-4.12224
 11
-1.63872
 21
-4.19099
  0
LINE
  8
0
 10
-1.63872
 20
-4.19099
 11
-1.31325
 21
-3.96558
  0
LINE
  8
0
 10
-1.31325
 20
-3.96558
 11
-1.09064
 21
-3.75279
  0
LINE
  8
0
 10
-1.09064
 20
-3.75279
 11
-0.957245
 21
-3.5779
  0
LINE
  8
0
 10
-0.957245
 20
-3.5779
 11
-0.894302
 21
-3.4619
  0
LINE
  8
0
 10
-0.894302
 20
-3.4619
 11
-0.878937
 21
-3.42065
  0
LINE
  8
0
 10
-0.878937
 20
-3.42065
 11
-0.818542
 21
-3.18562
  0
LINE
  8
0
 10
-0.818542
 20
-3.18562
 11
-0.462845
 21
-3.25638
  0
LINE
  8
0
 10
-0.462845
 20
-3.25638
 11
-0.496994
 21
-3.49664
  0
LINE
  8
0
 10
-0.496994
 20
-3.49664
 11
-0.498581
 21
-3.54062
  0
LINE
  8
0
 10
-0.498581
 20
-3.54062
 11
-0.484818
 21
-3.67188
  0
LINE
  8
0
 10
-0.484818
 20
-3.67188
 11
-0.428513
 21
-3.88451
  0
LINE
  8
0
 10
-0.428513
 20
-3.88451
 11
-0.304276
 21
-4.16628
  0
LINE
  8
0
 10
-0.304276
 20
-4.16628
 11
-0.0898438
 21
-4.4991
  0
LINE
  8
0
 10
-0.0898438
 20
-4.4991
 11
0.0898285
 21
-4.4991
  0
LINE
  8
0
 10
0.0898285
 20
-4.4991
 11
0.30426
 21
-4.16628
  0
LINE
  8
0
 10
-1.9996
 20
-1.5
 11
-2.06769
 21
-1.4052
  0
LINE
  8
0
 10
-2.06769
 20
-1.4052
 11
-2.11081
 21
-1.33955
  0
LINE
  8
0
 10
-2.11081
 20
-1.33955
 11
-2.15184
 21
-1.2726
  0
LINE
  8
0
 10
-2.15184
 20
-1.2726
 11
-2.19077
 21
-1.20438
  0
LINE
  8
0
 10
-2.19077
 20
-1.20438
 11
-2.22751
 21
-1.13496
  0
LINE
  8
0
 10
-2.22751
 20
-1.13496
 11
-2.26205
 21
-1.06444
  0
LINE
  8
0
 10
-2.26205
 20
-1.06444
 11
-2.29437
 21
-0.992859
  0
LINE
  8
0
 10
-2.29437
 20
-0.992859
 11
-2.32443
 21
-0.920303
  0
LINE
  8
0
 10
-2.32443
 20
-0.920303
 11
-2.35219
 21
-0.846832
  0
LINE
  8
0
 10
-2.35219
 20
-0.846832
 11
-2.37764
 21
-0.772537
  0
LINE
  8
0
 10
-2.37764
 20
-0.772537
 11
-2.40073
 21
-0.697464
  0
LINE
  8
0
 10
-2.40073
 20
-0.697464
 11
-2.42145
 21
-0.621719
  0
LINE
  8
0
 10
-2.42145
 20
-0.621719
 11
-2.43979
 21
-0.545349
  0
LINE
  8
0
 10
-2.43979
 20
-0.545349
 11
-2.4557
 21
-0.468445
  0
LINE
  8
0
 10
-2.4557
 20
-0.468445
 11
-2.46921
 21
-0.391083
  0
LINE
  8
0
 10
-2.46921
 20
-0.391083
 11
-2.48029
 21
-0.313324
  0
LINE
  8
0
 10
-2.48029
 20
-0.313324
 11
-2.48889
 21
-0.23526
  0
LINE
  8
0
 10
-2.48889
 20
-0.23526
 11
-2.49506
 21
-0.156967
  0
LINE
  8
0
 10
-2.49506
 20
-0.156967
 11
-2.49876
 21
-0.0785217
  0
LINE
  8
0
 10
-2.49876
 20
-0.0785217
 11
-2.5
 21
0
  0
LINE
  8
0
 10
-2.5
 20
0
 11
-2.49876
 21
0.0785217
  0
LINE
  8
0
 10
-2.49876
 20
0.0785217
 11
-2.49506
 21
0.156967
  0
LINE
  8
0
 10
-2.49506
 20
0.156967
 11
-2.48889
 21
0.23526
  0
LINE
  8
0
 10
-2.48889
 20
0.23526
 11
-2.48029
 21
0.313324
  0
LINE
  8
0
 10
-2.48029
 20
0.313324
 11
-2.46921
 21
0.391083
  0
LINE
  8
0
 10
-2.46921
 20
0.391083
 11
-2.4557
 21
0.468445
  0
LINE
  8
0
 10
-2.4557
 20
0.468445
 11
-2.43979
 21
0.545349
  0
LINE
  8
0
 10
-2.43979
 20
0.545349
 11
-2.42145
 21
0.621719
  0
LINE
  8
0
 10
-2.42145
 20
0.621719
 11
-2.40073
 21
0.697464
  0
LINE
  8
0
 10
-2.40073
 20
0.697464
 11
-2.37764
 21
0.772537
  0
LINE
  8
0
 10
-2.37764
 20
0.772537
 11
-2.35219
 21
0.846832
  0
LINE
  8
0
 10
-2.35219
 20
0.846832
 11
-2.32443
 21
0.920303
  0
LINE
  8
0
 10
-2.32443
 20
0.920303
 11
-2.29437
 21
0.992859
  0
LINE
  8
0
 10
-2.29437
 20
0.992859
 11
-2.26205
 21
1.06444
  0
LINE
  8
0
 10
-2.26205
 20
1.06444
 11
-2.22751
 21
1.13496
  0
LINE
  8
0
 10
-2.22751
 20
1.13496
 11
-2.19077
 21
1.20438
  0
LINE
  8
0
 10
-2.19077
 20
1.20438
 11
-2.15184
 21
1.2726
  0
LINE
  8
0
 10
-2.15184
 20
1.2726
 11
-2.11081
 21
1.33955
  0
LINE
  8
0
 10
-2.11081
 20
1.33955
 11
-2.06769
 21
1.4052
  0
LINE
  8
0
 10
-2.06769
 20
1.4052
 11
-2.02254
 21
1.46945
  0
LINE
  8
0
 10
-2.02254
 20
1.46945
 11
-1.97537
 21
1.53226
  0
LINE
  8
0
 10
-1.97537
 20
1.53226
 11
-1.92627
 21
1.59355
  0
LINE
  8
0
 10
-1.92627
 20
1.59355
 11
-1.87527
 21
1.65327
  0
LINE
  8
0
 10
-1.87527
 20
1.65327
 11
-1.82242
 21
1.71136
  0
LINE
  8
0
 10
-1.82242
 20
1.71136
 11
-1.76776
 21
1.76776
  0
LINE
  8
0
 10
-1.76776
 20
1.76776
 11
-1.71136
 21
1.82242
  0
LINE
  8
0
 10
-1.71136
 20
1.82242
 11
-1.65327
 21
1.87527
  0
LINE
  8
0
 10
-1.65327
 20
1.87527
 11
-1.59355
 21
1.92627
  0
LINE
  8
0
 10
-1.59355
 20
1.92627
 11
-1.53226
 21
1.97537
  0
LINE
  8
0
 10
-1.53226
 20
1.97537
 11
-1.46945
 21
2.02254
  0
LINE
  8
0
 10
-1.46945
 20
2.02254
 11
-1.4052
 21
2.06769
  0
LINE
  8
0
 10
-1.4052
 20
2.06769
 11
-1.33955
 21
2.11081
  0
LINE
  8
0
 10
-1.33955
 20
2.11081
 11
-1.2726
 21
2.15184
  0
LINE
  8
0
 10
-1.2726
 20
2.15184
 11
-1.20438
 21
2.19077
  0
LINE
  8
0
 10
-1.20438
 20
2.19077
 11
-1.13496
 21
2.22751
  0
LINE
  8
0
 10
-1.13496
 20
2.22751
 11
-1.06444
 21
2.26205
  0
LINE
  8
0
 10
-1.06444
 20
2.26205
 11
-0.992859
 21
2.29437
  0
LINE
  8
0
 10
-0.992859
 20
2.29437
 11
-0.920303
 21
2.32443
  0
LINE
  8
0
 10
-0.920303
 20
2.32443
 11
-0.846832
 21
2.35219
  0
LINE
  8
0
 10
-0.846832
 20
2.35219
 11
-0.772537
 21
2.37764
  0
LINE
  8
0
 10
-0.772537
 20
2.37764
 11
-0.697464
 21
2.40073
  0
LINE
  8
0
 10
-0.697464
 20
2.40073
 11
-0.621719
 21
2.42145
  0
LINE
  8
0
 10
-0.621719
 20
2.42145
 11
-0.545349
 21
2.43979
  0
LINE
  8
0
 10
-0.545349
 20
2.43979
 11
-0.468445
 21
2.4557
  0
LINE
  8
0
 10
-0.468445
 20
2.4557
 11
-0.391083
 21
2.46921
  0
LINE
  8
0
 10
-0.391083
 20
2.46921
 11
-0.313324
 21
2.48029
  0
LINE
  8
0
 10
-0.313324
 20
2.48029
 11
-0.23526
 21
2.48889
  0
LINE
  8
0
 10
-0.23526
 20
2.48889
 11
-0.156967
 21
2.49506
  0
LINE
  8
0
 10
-0.156967
 20
2.49506
 11
-0.0785217
 21
2.49876
  0
LINE
  8
0
 10
-0.0785217
 20
2.49876
 11
0
 21
2.5
  0
LINE
  8
0
 10
0
 20
2.5
 11
0.0785217
 21
2.49876
  0
LINE
  8
0
 10
0.0785217
 20
2.49876
 11
0.156967
 21
2.49506
  0
LINE
  8
0
 10
0.156967
 20
2.49506
 11
0.23526
 21
2.48889
  0
LINE
  8
0
 10
0.23526
 20
2.48889
 11
0.313324
 21
2.48029
  0
LINE
  8
0
 10
0.313324
 20
2.48029
 11
0.391083
 21
2.46921
  0
LINE
  8
0
 10
0.391083
 20
2.46921
 11
0.468445
 21
2.4557
  0
LINE
  8
0
 10
0.468445
 20
2.4557
 11
0.545349
 21
2.43979
  0
LINE
  8
0
 10
0.545349
 20
2.43979
 11
0.621719
 21
2.42145
  0
LINE
  8
0
 10
0.621719
 20
2.42145
 11
0.697464
 21
2.40073
  0
LINE
  8
0
 10
0.697464
 20
2.40073
 11
0.772537
 21
2.37764
  0
LINE
  8
0
 10
0.772537
 20
2.37764
 11
0.846832
 21
2.35219
  0
LINE
  8
0
 10
0.846832
 20
2.35219
 11
0.920303
 21
2.32443
  0
LINE
  8
0
 10
0.920303
 20
2.32443
 11
0.992859
 21
2.29437
  0
LINE
  8
0
 10
0.992859
 20
2.29437
 11
1.06444
 21
2.26205
  0
LINE
  8
0
 10
1.06444
 20
2.26205
 11
1.13496
 21
2.22751
  0
LINE
  8
0
 10
1.13496
 20
2.22751
 11
1.20438
 21
2.19077
  0
LINE
  8
0
 10
1.20438
 20
2.19077
 11
1.2726
 21
2.15184
  0
LINE
  8
0
 10
1.2726
 20
2.15184
 11
1.33955
 21
2.11081
  0
LINE
  8
0
 10
1.33955
 20
2.11081
 11
1.4052
 21
2.06769
  0
LINE
  8
0
 10
1.4052
 20
2.06769
 11
1.46945
 21
2.02254
  0
LINE
  8
0
 10
1.46945
 20
2.02254
 11
1.53226
 21
1.97537
  0
LINE
  8
0
 10
1.53226
 20
1.97537
 11
1.59355
 21
1.92627
  0
LINE
  8
0
 10
1.59355
 20
1.92627
 11
1.65327
 21
1.87527
  0
LINE
  8
0
 10
1.65327
 20
1.87527
 11
1.71136
 21
1.82242
  0
LINE
  8
0
 10
1.71136
 20
1.82242
 11
1.76776
 21
1.76776
  0
LINE
  8
0
 10
1.76776
 20
1.76776
 11
1.82242
 21
1.71136
  0
LINE
  8
0
 10
1.82242
 20
1.71136
 11
1.87527
 21
1.65327
  0
LINE
  8
0
 10
1.87527
 20
1.65327
 11
1.92627
 21
1.59355
  0
LINE
  8
0
 10
1.92627
 20
1.59355
 11
1.97537
 21
1.53226
  0
LINE
  8
0
 10
1.97537
 20
1.53226
 11
2.02254
 21
1.46945
  0
LINE
  8
0
 10
2.02254
 20
1.46945
 11
2.06769
 21
1.4052
  0
LINE
  8
0
 10
2.06769
 20
1.4052
 11
2.11081
 21
1.33955
  0
LINE
  8
0
 10
2.11081
 20
1.33955
 11
2.15184
 21
1.2726
  0
LINE
  8
0
 10
2.15184
 20
1.2726
 11
2.19077
 21
1.20438
  0
LINE
  8
0
 10
2.19077
 20
1.20438
 11
2.22751
 21
1.13496
  0
LINE
  8
0
 10
2.22751
 20
1.13496
 11
2.26205
 21
1.06444
  0
LINE
  8
0
 10
2.26205
 20
1.06444
 11
2.29437
 21
0.992859
  0
LINE
  8
0
 10
2.29437
 20
0.992859
 11
2.32443
 21
0.920303
  0
LINE
  8
0
 10
2.32443
 20
0.920303
 11
2.35219
 21
0.846832
  0
LINE
  8
0
 10
2.35219
 20
0.846832
 11
2.37764
 21
0.772537
  0
LINE
  8
0
 10
2.37764
 20
0.772537
 11
2.40073
 21
0.697464
  0
LINE
  8
0
 10
2.40073
 20
0.697464
 11
2.42145
 21
0.621719
  0
LINE
  8
0
 10
2.42145
 20
0.621719
 11
2.43979
 21
0.545349
  0
LINE
  8
0
 10
2.43979
 20
0.545349
 11
2.4557
 21
0.468445
  0
LINE
  8
0
 10
2.4557
 20
0.468445
 11
2.46921
 21
0.391083
  0
LINE
  8
0
 10
2.46921
 20
0.391083
 11
2.48029
 21
0.313324
  0
LINE
  8
0
 10
2.48029
 20
0.313324
 11
2.48889
 21
0.23526
  0
LINE
  8
0
 10
2.48889
 20
0.23526
 11
2.49506
 21
0.156967
  0
LINE
  8
0
 10
2.49506
 20
0.156967
 11
2.49876
 21
0.0785217
  0
LINE
  8
0
 10
2.49876
 20
0.0785217
 11
2.5
 21
0
  0
LINE
  8
0
 10
2.5
 20
0
 11
2.49876
 21
-0.0785217
  0
LINE
  8
0
 10
2.49876
 20
-0.0785217
 11
2.49506
 21
-0.156967
  0
LINE
  8
0
 10
2.49506
 20
-0.156967
 11
2.48889
 21
-0.23526
  0
LINE
  8
0
 10
2.48889
 20
-0.23526
 11
2.48029
 21
-0.313324
  0
LINE
  8
0
 10
2.48029
 20
-0.313324
 11
2.46921
 21
-0.391083
  0
LINE
  8
0
 10
2.46921
 20
-0.391083
 11
2.4557
 21
-0.468445
  0
LINE
  8
0
 10
2.4557
 20
-0.468445
 11
2.43979
 21
-0.545349
  0
LINE
  8
0
 10
2.43979
 20
-0.545349
 11
2.42145
 21
-0.621719
  0
LINE
  8
0
 10
2.42145
 20
-0.621719
 11
2.40073
 21
-0.697464
  0
LINE
  8
0
 10
2.40073
 20
-0.697464
 11
2.37764
 21
-0.772537
  0
LINE
  8
0
 10
2.37764
 20
-0.772537
 11
2.35219
 21
-0.846832
  0
LINE
  8
0
 10
2.35219
 20
-0.846832
 11
2.32443
 21
-0.920303
  0
LINE
  8
0
 10
2.32443
 20
-0.920303
 11
2.29437
 21
-0.992859
  0
LINE
  8
0
 10
2.29437
 20
-0.992859
 11
2.26205
 21
-1.06444
  0
LINE
  8
0
 10
2.26205
 20
-1.06444
 11
2.22751
 21
-1.13496
  0
LINE
  8
0
 10
2.22751
 20
-1.13496
 11
2.19077
 21
-1.20438
  0
LINE
  8
0
 10
2.19077
 20
-1.20438
 11
2.15184
 21
-1.2726
  0
LINE
  8
0
 10
2.15184
 20
-1.2726
 11
2.11081
 21
-1.33955
  0
LINE
  8
0
 10
2.11081
 20
-1.33955
 11
2.06769
 21
-1.4052
  0
LINE
  8
0
 10
2.06769
 20
-1.4052
 11
1.9996
 21
-1.5
  0
LINE
  8
0
 10
1.9996
 20
-1.5
 11
-1.9996
 21
-1.5
  0
ENDSEC
  0
SECTION
  2
OBJECTS
  0
DICTIONARY
  0
ENDSEC
  0
EOF
