  0
SECTION
  2
BLOCKS
  0
ENDSEC
  0
SECTION
  2
ENTITIES
  0
LINE
  8
0
 10
0
 20
318.5
 11
-85
 21
318.5
  0
LINE
  8
0
 10
-85
 20
318.5
 11
-85
 21
196.5
  0
LINE
  8
0
 10
-85
 20
196.5
 11
0
 21
196.5
  0
LINE
  8
0
 10
0
 20
196.5
 11
0
 21
318.5
  0
LINE
  8
0
 10
-67.625
 20
295
 11
-67.625
 21
300
  0
LINE
  8
0
 10
-67.625
 20
300
 11
-60.375
 21
300
  0
LINE
  8
0
 10
-60.375
 20
300
 11
-60.375
 21
295
  0
LINE
  8
0
 10
-60.375
 20
295
 11
-67.625
 21
295
  0
LINE
  8
0
 10
-67.625
 20
215
 11
-67.625
 21
220
  0
LINE
  8
0
 10
-67.625
 20
220
 11
-60.375
 21
220
  0
LINE
  8
0
 10
-60.375
 20
220
 11
-60.375
 21
215
  0
LINE
  8
0
 10
-60.375
 20
215
 11
-67.625
 21
215
  0
LINE
  8
0
 10
87
 20
53
 11
87
 21
202
  0
LINE
  8
0
 10
87
 20
202
 11
64
 21
225
  0
LINE
  8
0
 10
64
 20
225
 11
28.5
 21
225
  0
LINE
  8
0
 10
28.5
 20
225
 11
28.5
 21
205
  0
LINE
  8
0
 10
28.5
 20
205
 11
72.5
 21
205
  0
LINE
  8
0
 10
72.5
 20
205
 11
72.5
 21
188
  0
LINE
  8
0
 10
72.5
 20
188
 11
79.5
 21
188
  0
LINE
  8
0
 10
79.5
 20
188
 11
79.5
 21
67
  0
LINE
  8
0
 10
79.5
 20
67
 11
72.5
 21
67
  0
LINE
  8
0
 10
72.5
 20
67
 11
72.5
 21
50
  0
LINE
  8
0
 10
72.5
 20
50
 11
28.5
 21
50
  0
LINE
  8
0
 10
28.5
 20
50
 11
28.5
 21
30
  0
LINE
  8
0
 10
28.5
 20
30
 11
64
 21
30
  0
LINE
  8
0
 10
64
 20
30
 11
87
 21
53
  0
LINE
  8
0
 10
33.5
 20
212.5
 11
33.5
 21
217.5
  0
LINE
  8
0
 10
33.5
 20
217.5
 11
43.5
 21
217.5
  0
LINE
  8
0
 10
43.5
 20
217.5
 11
43.5
 21
212.5
  0
LINE
  8
0
 10
43.5
 20
212.5
 11
33.5
 21
212.5
  0
LINE
  8
0
 10
33.5
 20
37.5
 11
33.5
 21
42.5
  0
LINE
  8
0
 10
33.5
 20
42.5
 11
43.5
 21
42.5
  0
LINE
  8
0
 10
43.5
 20
42.5
 11
43.5
 21
37.5
  0
LINE
  8
0
 10
43.5
 20
37.5
 11
33.5
 21
37.5
  0
LINE
  8
0
 10
68.5
 20
20
 11
24.5
 21
20
  0
LINE
  8
0
 10
24.5
 20
20
 11
24.5
 21
34
  0
LINE
  8
0
 10
24.5
 20
34
 11
22
 21
34
  0
LINE
  8
0
 10
22
 20
34
 11
22
 21
42
  0
LINE
  8
0
 10
22
 20
42
 11
20
 21
42
  0
LINE
  8
0
 10
20
 20
42
 11
20
 21
153
  0
LINE
  8
0
 10
20
 20
153
 11
22
 21
153
  0
LINE
  8
0
 10
22
 20
153
 11
22
 21
161
  0
LINE
  8
0
 10
22
 20
161
 11
24.5
 21
161
  0
LINE
  8
0
 10
24.5
 20
161
 11
24.5
 21
175
  0
LINE
  8
0
 10
24.5
 20
175
 11
68.5
 21
175
  0
LINE
  8
0
 10
68.5
 20
175
 11
68.5
 21
195
  0
LINE
  8
0
 10
68.5
 20
195
 11
0
 21
195
  0
LINE
  8
0
 10
0
 20
195
 11
0
 21
178.5
  0
LINE
  8
0
 10
0
 20
178.5
 11
-85
 21
178.5
  0
LINE
  8
0
 10
-85
 20
178.5
 11
-85
 21
16.5
  0
LINE
  8
0
 10
-85
 20
16.5
 11
0
 21
16.5
  0
LINE
  8
0
 10
0
 20
16.5
 11
0
 21
0
  0
LINE
  8
0
 10
0
 20
0
 11
68.5
 21
0
  0
LINE
  8
0
 10
68.5
 20
0
 11
68.5
 21
20
  0
LINE
  8
0
 10
53.5
 20
182.5
 11
53.5
 21
187.5
  0
LINE
  8
0
 10
53.5
 20
187.5
 11
63.5
 21
187.5
  0
LINE
  8
0
 10
63.5
 20
187.5
 11
63.5
 21
182.5
  0
LINE
  8
0
 10
63.5
 20
182.5
 11
53.5
 21
182.5
  0
LINE
  8
0
 10
-67.625
 20
155
 11
-67.625
 21
160
  0
LINE
  8
0
 10
-67.625
 20
160
 11
-60.375
 21
160
  0
LINE
  8
0
 10
-60.375
 20
160
 11
-60.375
 21
155
  0
LINE
  8
0
 10
-60.375
 20
155
 11
-67.625
 21
155
  0
LINE
  8
0
 10
-67.625
 20
35
 11
-67.625
 21
40
  0
LINE
  8
0
 10
-67.625
 20
40
 11
-60.375
 21
40
  0
LINE
  8
0
 10
-60.375
 20
40
 11
-60.375
 21
35
  0
LINE
  8
0
 10
-60.375
 20
35
 11
-67.625
 21
35
  0
LINE
  8
0
 10
53.5
 20
7.5
 11
53.5
 21
12.5
  0
LINE
  8
0
 10
53.5
 20
12.5
 11
63.5
 21
12.5
  0
LINE
  8
0
 10
63.5
 20
12.5
 11
63.5
 21
7.5
  0
LINE
  8
0
 10
63.5
 20
7.5
 11
53.5
 21
7.5
  0
LINE
  8
0
 10
121.489
 20
92.0278
 11
125.5
 21
93.8135
  0
LINE
  8
0
 10
125.5
 20
93.8135
 11
129.052
 21
96.394
  0
LINE
  8
0
 10
129.052
 20
96.394
 11
131.989
 21
99.6565
  0
LINE
  8
0
 10
131.989
 20
99.6565
 11
134.184
 21
103.459
  0
LINE
  8
0
 10
134.184
 20
103.459
 11
135.541
 21
107.634
  0
LINE
  8
0
 10
135.541
 20
107.634
 11
136
 21
112
  0
LINE
  8
0
 10
136
 20
112
 11
136
 21
158
  0
LINE
  8
0
 10
136
 20
158
 11
135.541
 21
162.366
  0
LINE
  8
0
 10
135.541
 20
162.366
 11
134.184
 21
166.541
  0
LINE
  8
0
 10
134.184
 20
166.541
 11
131.989
 21
170.343
  0
LINE
  8
0
 10
131.989
 20
170.343
 11
129.052
 21
173.606
  0
LINE
  8
0
 10
129.052
 20
173.606
 11
125.5
 21
176.187
  0
LINE
  8
0
 10
125.5
 20
176.187
 11
121.489
 21
177.972
  0
LINE
  8
0
 10
121.489
 20
177.972
 11
117.195
 21
178.885
  0
LINE
  8
0
 10
117.195
 20
178.885
 11
112.805
 21
178.885
  0
LINE
  8
0
 10
112.805
 20
178.885
 11
108.511
 21
177.972
  0
LINE
  8
0
 10
108.511
 20
177.972
 11
104.5
 21
176.187
  0
LINE
  8
0
 10
104.5
 20
176.187
 11
100.948
 21
173.606
  0
LINE
  8
0
 10
100.948
 20
173.606
 11
98.0107
 21
170.343
  0
LINE
  8
0
 10
98.0107
 20
170.343
 11
95.8156
 21
166.541
  0
LINE
  8
0
 10
95.8156
 20
166.541
 11
94.4589
 21
162.366
  0
LINE
  8
0
 10
94.4589
 20
162.366
 11
94
 21
158
  0
LINE
  8
0
 10
94
 20
158
 11
94
 21
112
  0
LINE
  8
0
 10
94
 20
112
 11
94.4589
 21
107.634
  0
LINE
  8
0
 10
94.4589
 20
107.634
 11
95.8156
 21
103.459
  0
LINE
  8
0
 10
95.8156
 20
103.459
 11
98.0107
 21
99.6565
  0
LINE
  8
0
 10
98.0107
 20
99.6565
 11
100.948
 21
96.394
  0
LINE
  8
0
 10
100.948
 20
96.394
 11
104.5
 21
93.8135
  0
LINE
  8
0
 10
104.5
 20
93.8135
 11
108.511
 21
92.0278
  0
LINE
  8
0
 10
108.511
 20
92.0278
 11
112.805
 21
91.1151
  0
LINE
  8
0
 10
112.805
 20
91.1151
 11
117.195
 21
91.1151
  0
LINE
  8
0
 10
117.195
 20
91.1151
 11
121.489
 21
92.0278
  0
LINE
  8
0
 10
113.85
 20
147.06
 11
111.601
 21
147.538
  0
LINE
  8
0
 10
111.601
 20
147.538
 11
109.5
 21
148.474
  0
LINE
  8
0
 10
109.5
 20
148.474
 11
107.64
 21
149.825
  0
LINE
  8
0
 10
107.64
 20
149.825
 11
106.101
 21
151.534
  0
LINE
  8
0
 10
106.101
 20
151.534
 11
104.951
 21
153.526
  0
LINE
  8
0
 10
104.951
 20
153.526
 11
104.24
 21
155.713
  0
LINE
  8
0
 10
104.24
 20
155.713
 11
104
 21
158
  0
LINE
  8
0
 10
104
 20
158
 11
104.24
 21
160.287
  0
LINE
  8
0
 10
104.24
 20
160.287
 11
104.951
 21
162.474
  0
LINE
  8
0
 10
104.951
 20
162.474
 11
106.101
 21
164.466
  0
LINE
  8
0
 10
106.101
 20
164.466
 11
107.64
 21
166.175
  0
LINE
  8
0
 10
107.64
 20
166.175
 11
109.5
 21
167.526
  0
LINE
  8
0
 10
109.5
 20
167.526
 11
111.601
 21
168.462
  0
LINE
  8
0
 10
111.601
 20
168.462
 11
113.85
 21
168.94
  0
LINE
  8
0
 10
113.85
 20
168.94
 11
116.15
 21
168.94
  0
LINE
  8
0
 10
116.15
 20
168.94
 11
118.399
 21
168.462
  0
LINE
  8
0
 10
118.399
 20
168.462
 11
120.5
 21
167.526
  0
LINE
  8
0
 10
120.5
 20
167.526
 11
122.36
 21
166.175
  0
LINE
  8
0
 10
122.36
 20
166.175
 11
123.899
 21
164.466
  0
LINE
  8
0
 10
123.899
 20
164.466
 11
125.049
 21
162.474
  0
LINE
  8
0
 10
125.049
 20
162.474
 11
125.76
 21
160.287
  0
LINE
  8
0
 10
125.76
 20
160.287
 11
126
 21
158
  0
LINE
  8
0
 10
126
 20
158
 11
125.76
 21
155.713
  0
LINE
  8
0
 10
125.76
 20
155.713
 11
125.049
 21
153.526
  0
LINE
  8
0
 10
125.049
 20
153.526
 11
123.899
 21
151.534
  0
LINE
  8
0
 10
123.899
 20
151.534
 11
122.36
 21
149.825
  0
LINE
  8
0
 10
122.36
 20
149.825
 11
120.5
 21
148.474
  0
LINE
  8
0
 10
120.5
 20
148.474
 11
118.399
 21
147.538
  0
LINE
  8
0
 10
118.399
 20
147.538
 11
116.15
 21
147.06
  0
LINE
  8
0
 10
116.15
 20
147.06
 11
113.85
 21
147.06
  0
LINE
  8
0
 10
113.85
 20
101.06
 11
111.601
 21
101.538
  0
LINE
  8
0
 10
111.601
 20
101.538
 11
109.5
 21
102.474
  0
LINE
  8
0
 10
109.5
 20
102.474
 11
107.64
 21
103.825
  0
LINE
  8
0
 10
107.64
 20
103.825
 11
106.101
 21
105.534
  0
LINE
  8
0
 10
106.101
 20
105.534
 11
104.951
 21
107.526
  0
LINE
  8
0
 10
104.951
 20
107.526
 11
104.24
 21
109.713
  0
LINE
  8
0
 10
104.24
 20
109.713
 11
104
 21
112
  0
LINE
  8
0
 10
104
 20
112
 11
104.24
 21
114.287
  0
LINE
  8
0
 10
104.24
 20
114.287
 11
104.951
 21
116.474
  0
LINE
  8
0
 10
104.951
 20
116.474
 11
106.101
 21
118.466
  0
LINE
  8
0
 10
106.101
 20
118.466
 11
107.64
 21
120.175
  0
LINE
  8
0
 10
107.64
 20
120.175
 11
109.5
 21
121.526
  0
LINE
  8
0
 10
109.5
 20
121.526
 11
111.601
 21
122.462
  0
LINE
  8
0
 10
111.601
 20
122.462
 11
113.85
 21
122.94
  0
LINE
  8
0
 10
113.85
 20
122.94
 11
116.15
 21
122.94
  0
LINE
  8
0
 10
116.15
 20
122.94
 11
118.399
 21
122.462
  0
LINE
  8
0
 10
118.399
 20
122.462
 11
120.5
 21
121.526
  0
LINE
  8
0
 10
120.5
 20
121.526
 11
122.36
 21
120.175
  0
LINE
  8
0
 10
122.36
 20
120.175
 11
123.899
 21
118.466
  0
LINE
  8
0
 10
123.899
 20
118.466
 11
125.049
 21
116.474
  0
LINE
  8
0
 10
125.049
 20
116.474
 11
125.76
 21
114.287
  0
LINE
  8
0
 10
125.76
 20
114.287
 11
126
 21
112
  0
LINE
  8
0
 10
126
 20
112
 11
125.76
 21
109.713
  0
LINE
  8
0
 10
125.76
 20
109.713
 11
125.049
 21
107.526
  0
LINE
  8
0
 10
125.049
 20
107.526
 11
123.899
 21
105.534
  0
LINE
  8
0
 10
123.899
 20
105.534
 11
122.36
 21
103.825
  0
LINE
  8
0
 10
122.36
 20
103.825
 11
120.5
 21
102.474
  0
LINE
  8
0
 10
120.5
 20
102.474
 11
118.399
 21
101.538
  0
LINE
  8
0
 10
118.399
 20
101.538
 11
116.15
 21
101.06
  0
LINE
  8
0
 10
116.15
 20
101.06
 11
113.85
 21
101.06
  0
LINE
  8
0
 10
40
 20
170
 11
30
 21
170
  0
LINE
  8
0
 10
30
 20
170
 11
30
 21
120
  0
LINE
  8
0
 10
30
 20
120
 11
40
 21
120
  0
LINE
  8
0
 10
40
 20
120
 11
40
 21
170
  0
LINE
  8
0
 10
55
 20
170
 11
45
 21
170
  0
LINE
  8
0
 10
45
 20
170
 11
45
 21
70
  0
LINE
  8
0
 10
45
 20
70
 11
55
 21
70
  0
LINE
  8
0
 10
55
 20
70
 11
55
 21
170
  0
LINE
  8
0
 10
67.25
 20
170
 11
60
 21
170
  0
LINE
  8
0
 10
60
 20
170
 11
60
 21
70
  0
LINE
  8
0
 10
60
 20
70
 11
67.25
 21
70
  0
LINE
  8
0
 10
67.25
 20
70
 11
67.25
 21
170
  0
LINE
  8
0
 10
77.25
 20
170
 11
70
 21
170
  0
LINE
  8
0
 10
70
 20
170
 11
70
 21
70
  0
LINE
  8
0
 10
70
 20
70
 11
77.25
 21
70
  0
LINE
  8
0
 10
77.25
 20
70
 11
77.25
 21
170
  0
LINE
  8
0
 10
40
 20
115
 11
30
 21
115
  0
LINE
  8
0
 10
30
 20
115
 11
30
 21
65
  0
LINE
  8
0
 10
30
 20
65
 11
40
 21
65
  0
LINE
  8
0
 10
40
 20
65
 11
40
 21
115
  0
LINE
  8
0
 10
121.489
 20
2.02782
 11
125.5
 21
3.81348
  0
LINE
  8
0
 10
125.5
 20
3.81348
 11
129.052
 21
6.39397
  0
LINE
  8
0
 10
129.052
 20
6.39397
 11
131.989
 21
9.65652
  0
LINE
  8
0
 10
131.989
 20
9.65652
 11
134.184
 21
13.4585
  0
LINE
  8
0
 10
134.184
 20
13.4585
 11
135.541
 21
17.6339
  0
LINE
  8
0
 10
135.541
 20
17.6339
 11
136
 21
22
  0
LINE
  8
0
 10
136
 20
22
 11
136
 21
68
  0
LINE
  8
0
 10
136
 20
68
 11
135.541
 21
72.3661
  0
LINE
  8
0
 10
135.541
 20
72.3661
 11
134.184
 21
76.5415
  0
LINE
  8
0
 10
134.184
 20
76.5415
 11
131.989
 21
80.3435
  0
LINE
  8
0
 10
131.989
 20
80.3435
 11
129.052
 21
83.606
  0
LINE
  8
0
 10
129.052
 20
83.606
 11
125.5
 21
86.1865
  0
LINE
  8
0
 10
125.5
 20
86.1865
 11
121.489
 21
87.9722
  0
LINE
  8
0
 10
121.489
 20
87.9722
 11
117.195
 21
88.8849
  0
LINE
  8
0
 10
117.195
 20
88.8849
 11
112.805
 21
88.8849
  0
LINE
  8
0
 10
112.805
 20
88.8849
 11
108.511
 21
87.9722
  0
LINE
  8
0
 10
108.511
 20
87.9722
 11
104.5
 21
86.1865
  0
LINE
  8
0
 10
104.5
 20
86.1865
 11
100.948
 21
83.606
  0
LINE
  8
0
 10
100.948
 20
83.606
 11
98.0107
 21
80.3435
  0
LINE
  8
0
 10
98.0107
 20
80.3435
 11
95.8156
 21
76.5415
  0
LINE
  8
0
 10
95.8156
 20
76.5415
 11
94.4589
 21
72.3661
  0
LINE
  8
0
 10
94.4589
 20
72.3661
 11
94
 21
68
  0
LINE
  8
0
 10
94
 20
68
 11
94
 21
22
  0
LINE
  8
0
 10
94
 20
22
 11
94.4589
 21
17.6339
  0
LINE
  8
0
 10
94.4589
 20
17.6339
 11
95.8156
 21
13.4585
  0
LINE
  8
0
 10
95.8156
 20
13.4585
 11
98.0107
 21
9.65652
  0
LINE
  8
0
 10
98.0107
 20
9.65652
 11
100.948
 21
6.39397
  0
LINE
  8
0
 10
100.948
 20
6.39397
 11
104.5
 21
3.81348
  0
LINE
  8
0
 10
104.5
 20
3.81348
 11
108.511
 21
2.02782
  0
LINE
  8
0
 10
108.511
 20
2.02782
 11
112.805
 21
1.11505
  0
LINE
  8
0
 10
112.805
 20
1.11505
 11
117.195
 21
1.11505
  0
LINE
  8
0
 10
117.195
 20
1.11505
 11
121.489
 21
2.02782
  0
LINE
  8
0
 10
113.85
 20
57.0603
 11
111.601
 21
57.5384
  0
LINE
  8
0
 10
111.601
 20
57.5384
 11
109.5
 21
58.4737
  0
LINE
  8
0
 10
109.5
 20
58.4737
 11
107.64
 21
59.8254
  0
LINE
  8
0
 10
107.64
 20
59.8254
 11
106.101
 21
61.5343
  0
LINE
  8
0
 10
106.101
 20
61.5343
 11
104.951
 21
63.5259
  0
LINE
  8
0
 10
104.951
 20
63.5259
 11
104.24
 21
65.713
  0
LINE
  8
0
 10
104.24
 20
65.713
 11
104
 21
68
  0
LINE
  8
0
 10
104
 20
68
 11
104.24
 21
70.287
  0
LINE
  8
0
 10
104.24
 20
70.287
 11
104.951
 21
72.4741
  0
LINE
  8
0
 10
104.951
 20
72.4741
 11
106.101
 21
74.4656
  0
LINE
  8
0
 10
106.101
 20
74.4656
 11
107.64
 21
76.1746
  0
LINE
  8
0
 10
107.64
 20
76.1746
 11
109.5
 21
77.5263
  0
LINE
  8
0
 10
109.5
 20
77.5263
 11
111.601
 21
78.4616
  0
LINE
  8
0
 10
111.601
 20
78.4616
 11
113.85
 21
78.9397
  0
LINE
  8
0
 10
113.85
 20
78.9397
 11
116.15
 21
78.9397
  0
LINE
  8
0
 10
116.15
 20
78.9397
 11
118.399
 21
78.4616
  0
LINE
  8
0
 10
118.399
 20
78.4616
 11
120.5
 21
77.5263
  0
LINE
  8
0
 10
120.5
 20
77.5263
 11
122.36
 21
76.1746
  0
LINE
  8
0
 10
122.36
 20
76.1746
 11
123.899
 21
74.4656
  0
LINE
  8
0
 10
123.899
 20
74.4656
 11
125.049
 21
72.4741
  0
LINE
  8
0
 10
125.049
 20
72.4741
 11
125.76
 21
70.287
  0
LINE
  8
0
 10
125.76
 20
70.287
 11
126
 21
68
  0
LINE
  8
0
 10
126
 20
68
 11
125.76
 21
65.713
  0
LINE
  8
0
 10
125.76
 20
65.713
 11
125.049
 21
63.5259
  0
LINE
  8
0
 10
125.049
 20
63.5259
 11
123.899
 21
61.5343
  0
LINE
  8
0
 10
123.899
 20
61.5343
 11
122.36
 21
59.8254
  0
LINE
  8
0
 10
122.36
 20
59.8254
 11
120.5
 21
58.4737
  0
LINE
  8
0
 10
120.5
 20
58.4737
 11
118.399
 21
57.5384
  0
LINE
  8
0
 10
118.399
 20
57.5384
 11
116.15
 21
57.0603
  0
LINE
  8
0
 10
116.15
 20
57.0603
 11
113.85
 21
57.0603
  0
LINE
  8
0
 10
113.85
 20
11.0603
 11
111.601
 21
11.5384
  0
LINE
  8
0
 10
111.601
 20
11.5384
 11
109.5
 21
12.4737
  0
LINE
  8
0
 10
109.5
 20
12.4737
 11
107.64
 21
13.8254
  0
LINE
  8
0
 10
107.64
 20
13.8254
 11
106.101
 21
15.5344
  0
LINE
  8
0
 10
106.101
 20
15.5344
 11
104.951
 21
17.5259
  0
LINE
  8
0
 10
104.951
 20
17.5259
 11
104.24
 21
19.713
  0
LINE
  8
0
 10
104.24
 20
19.713
 11
104
 21
22
  0
LINE
  8
0
 10
104
 20
22
 11
104.24
 21
24.287
  0
LINE
  8
0
 10
104.24
 20
24.287
 11
104.951
 21
26.4741
  0
LINE
  8
0
 10
104.951
 20
26.4741
 11
106.101
 21
28.4656
  0
LINE
  8
0
 10
106.101
 20
28.4656
 11
107.64
 21
30.1746
  0
LINE
  8
0
 10
107.64
 20
30.1746
 11
109.5
 21
31.5263
  0
LINE
  8
0
 10
109.5
 20
31.5263
 11
111.601
 21
32.4616
  0
LINE
  8
0
 10
111.601
 20
32.4616
 11
113.85
 21
32.9397
  0
LINE
  8
0
 10
113.85
 20
32.9397
 11
116.15
 21
32.9397
  0
LINE
  8
0
 10
116.15
 20
32.9397
 11
118.399
 21
32.4616
  0
LINE
  8
0
 10
118.399
 20
32.4616
 11
120.5
 21
31.5263
  0
LINE
  8
0
 10
120.5
 20
31.5263
 11
122.36
 21
30.1746
  0
LINE
  8
0
 10
122.36
 20
30.1746
 11
123.899
 21
28.4656
  0
LINE
  8
0
 10
123.899
 20
28.4656
 11
125.049
 21
26.4741
  0
LINE
  8
0
 10
125.049
 20
26.4741
 11
125.76
 21
24.287
  0
LINE
  8
0
 10
125.76
 20
24.287
 11
126
 21
22
  0
LINE
  8
0
 10
126
 20
22
 11
125.76
 21
19.713
  0
LINE
  8
0
 10
125.76
 20
19.713
 11
125.049
 21
17.5259
  0
LINE
  8
0
 10
125.049
 20
17.5259
 11
123.899
 21
15.5344
  0
LINE
  8
0
 10
123.899
 20
15.5344
 11
122.36
 21
13.8254
  0
LINE
  8
0
 10
122.36
 20
13.8254
 11
120.5
 21
12.4737
  0
LINE
  8
0
 10
120.5
 20
12.4737
 11
118.399
 21
11.5384
  0
LINE
  8
0
 10
118.399
 20
11.5384
 11
116.15
 21
11.0603
  0
LINE
  8
0
 10
116.15
 20
11.0603
 11
113.85
 21
11.0603
  0
ENDSEC
  0
SECTION
  2
OBJECTS
  0
DICTIONARY
  0
ENDSEC
  0
EOF
