  0
SECTION
  2
BLOCKS
  0
ENDSEC
  0
SECTION
  2
ENTITIES
  0
LINE
  8
0
 10
-75.554
 11
-75.554
 20
-0.52
 21
0.52
  0
LINE
  8
0
 10
-75.554
 11
-74.534
 20
0.52
 21
1.102
  0
LINE
  8
0
 10
-74.534
 11
-73.551
 20
1.102
 21
1.624
  0
LINE
  8
0
 10
-73.551
 11
-72.609
 20
1.624
 21
2.088
  0
LINE
  8
0
 10
-72.609
 11
-71.709
 20
2.088
 21
2.497
  0
LINE
  8
0
 10
-71.709
 11
-70.854
 20
2.497
 21
2.854
  0
LINE
  8
0
 10
-70.854
 11
-70.835
 20
2.854
 21
2.853
  0
LINE
  8
0
 10
-70.835
 11
-70.786
 20
2.853
 21
3.893
  0
LINE
  8
0
 10
-70.786
 11
-70.804
 20
3.893
 21
3.894
  0
LINE
  8
0
 10
-70.804
 11
-71.622
 20
3.894
 21
4.331
  0
LINE
  8
0
 10
-71.622
 11
-72.479
 20
4.331
 21
4.823
  0
LINE
  8
0
 10
-72.479
 11
-73.372
 20
4.823
 21
5.375
  0
LINE
  8
0
 10
-73.372
 11
-74.301
 20
5.375
 21
5.988
  0
LINE
  8
0
 10
-74.301
 11
-75.261
 20
5.988
 21
6.664
  0
LINE
  8
0
 10
-75.261
 11
-75.162
 20
6.664
 21
7.7
  0
LINE
  8
0
 10
-75.162
 11
-74.092
 20
7.7
 21
8.182
  0
LINE
  8
0
 10
-74.092
 11
-73.064
 20
8.182
 21
8.608
  0
LINE
  8
0
 10
-73.064
 11
-72.082
 20
8.608
 21
8.98
  0
LINE
  8
0
 10
-72.082
 11
-71.147
 20
8.98
 21
9.302
  0
LINE
  8
0
 10
-71.147
 11
-70.262
 20
9.302
 21
9.576
  0
LINE
  8
0
 10
-70.262
 11
-70.243
 20
9.576
 21
9.573
  0
LINE
  8
0
 10
-70.243
 11
-70.096
 20
9.573
 21
10.604
  0
LINE
  8
0
 10
-70.096
 11
-70.114
 20
10.604
 21
10.607
  0
LINE
  8
0
 10
-70.114
 11
-70.886
 20
10.607
 21
11.119
  0
LINE
  8
0
 10
-70.886
 11
-71.692
 20
11.119
 21
11.691
  0
LINE
  8
0
 10
-71.692
 11
-72.529
 20
11.691
 21
12.325
  0
LINE
  8
0
 10
-72.529
 11
-73.396
 20
12.325
 21
13.024
  0
LINE
  8
0
 10
-73.396
 11
-74.287
 20
13.024
 21
13.788
  0
LINE
  8
0
 10
-74.287
 11
-74.09
 20
13.788
 21
14.809
  0
LINE
  8
0
 10
-74.09
 11
-72.979
 20
14.809
 21
15.188
  0
LINE
  8
0
 10
-72.979
 11
-71.914
 20
15.188
 21
15.514
  0
LINE
  8
0
 10
-71.914
 11
-70.902
 20
15.514
 21
15.792
  0
LINE
  8
0
 10
-70.902
 11
-69.941
 20
15.792
 21
16.023
  0
LINE
  8
0
 10
-69.941
 11
-69.033
 20
16.023
 21
16.212
  0
LINE
  8
0
 10
-69.033
 11
-69.015
 20
16.212
 21
16.208
  0
LINE
  8
0
 10
-69.015
 11
-68.77
 20
16.208
 21
17.218
  0
LINE
  8
0
 10
-68.77
 11
-68.788
 20
17.218
 21
17.223
  0
LINE
  8
0
 10
-68.788
 11
-69.508
 20
17.223
 21
17.807
  0
LINE
  8
0
 10
-69.508
 11
-70.256
 20
17.807
 21
18.453
  0
LINE
  8
0
 10
-70.256
 11
-71.029
 20
18.453
 21
19.163
  0
LINE
  8
0
 10
-71.029
 11
-71.825
 20
19.163
 21
19.941
  0
LINE
  8
0
 10
-71.825
 11
-72.64
 20
19.941
 21
20.787
  0
LINE
  8
0
 10
-72.64
 11
-72.347
 20
20.787
 21
21.785
  0
LINE
  8
0
 10
-72.347
 11
-71.204
 20
21.785
 21
22.056
  0
LINE
  8
0
 10
-71.204
 11
-70.114
 20
22.056
 21
22.28
  0
LINE
  8
0
 10
-70.114
 11
-69.08
 20
22.28
 21
22.46
  0
LINE
  8
0
 10
-69.08
 11
-68.101
 20
22.46
 21
22.599
  0
LINE
  8
0
 10
-68.101
 11
-67.18
 20
22.599
 21
22.7
  0
LINE
  8
0
 10
-67.18
 11
-67.163
 20
22.7
 21
22.694
  0
LINE
  8
0
 10
-67.163
 11
-66.822
 20
22.694
 21
23.678
  0
LINE
  8
0
 10
-66.822
 11
-66.839
 20
23.678
 21
23.684
  0
LINE
  8
0
 10
-66.839
 11
-67.5
 20
23.684
 21
24.333
  0
LINE
  8
0
 10
-67.5
 11
-68.184
 20
24.333
 21
25.048
  0
LINE
  8
0
 10
-68.184
 11
-68.886
 20
25.048
 21
25.828
  0
LINE
  8
0
 10
-68.886
 11
-69.605
 20
25.828
 21
26.678
  0
LINE
  8
0
 10
-69.605
 11
-70.335
 20
26.678
 21
27.598
  0
LINE
  8
0
 10
-70.335
 11
-69.949
 20
27.598
 21
28.563
  0
LINE
  8
0
 10
-69.949
 11
-68.785
 20
28.563
 21
28.725
  0
LINE
  8
0
 10
-68.785
 11
-67.679
 20
28.725
 21
28.844
  0
LINE
  8
0
 10
-67.679
 11
-66.632
 20
28.844
 21
28.924
  0
LINE
  8
0
 10
-66.632
 11
-65.644
 20
28.924
 21
28.97
  0
LINE
  8
0
 10
-65.644
 11
-64.718
 20
28.97
 21
28.983
  0
LINE
  8
0
 10
-64.718
 11
-64.701
 20
28.983
 21
28.975
  0
LINE
  8
0
 10
-64.701
 11
-64.268
 20
28.975
 21
29.922
  0
LINE
  8
0
 10
-64.268
 11
-64.285
 20
29.922
 21
29.93
  0
LINE
  8
0
 10
-64.285
 11
-64.882
 20
29.93
 21
30.64
  0
LINE
  8
0
 10
-64.882
 11
-65.494
 20
30.64
 21
31.415
  0
LINE
  8
0
 10
-65.494
 11
-66.119
 20
31.415
 21
32.26
  0
LINE
  8
0
 10
-66.119
 11
-66.753
 20
32.26
 21
33.174
  0
LINE
  8
0
 10
-66.753
 11
-67.393
 20
33.174
 21
34.159
  0
LINE
  8
0
 10
-67.393
 11
-66.917
 20
34.159
 21
35.083
  0
LINE
  8
0
 10
-66.917
 11
-65.743
 20
35.083
 21
35.133
  0
LINE
  8
0
 10
-65.743
 11
-64.631
 20
35.133
 21
35.146
  0
LINE
  8
0
 10
-64.631
 11
-63.581
 20
35.146
 21
35.127
  0
LINE
  8
0
 10
-63.581
 11
-62.593
 20
35.127
 21
35.078
  0
LINE
  8
0
 10
-62.593
 11
-61.67
 20
35.078
 21
35.004
  0
LINE
  8
0
 10
-61.67
 11
-61.654
 20
35.004
 21
34.995
  0
LINE
  8
0
 10
-61.654
 11
-61.133
 20
34.995
 21
35.896
  0
LINE
  8
0
 10
-61.133
 11
-61.149
 20
35.896
 21
35.906
  0
LINE
  8
0
 10
-61.149
 11
-61.675
 20
35.906
 21
36.668
  0
LINE
  8
0
 10
-61.675
 11
-62.211
 20
36.668
 21
37.499
  0
LINE
  8
0
 10
-62.211
 11
-62.753
 20
37.499
 21
38.398
  0
LINE
  8
0
 10
-62.753
 11
-63.298
 20
38.398
 21
39.369
  0
LINE
  8
0
 10
-63.298
 11
-63.841
 20
39.369
 21
40.41
  0
LINE
  8
0
 10
-63.841
 11
-63.279
 20
40.41
 21
41.285
  0
LINE
  8
0
 10
-63.279
 11
-62.106
 20
41.285
 21
41.223
  0
LINE
  8
0
 10
-62.106
 11
-60.997
 20
41.223
 21
41.131
  0
LINE
  8
0
 10
-60.997
 11
-59.954
 20
41.131
 21
41.012
  0
LINE
  8
0
 10
-59.954
 11
-58.975
 20
41.012
 21
40.869
  0
LINE
  8
0
 10
-58.975
 11
-58.063
 20
40.869
 21
40.708
  0
LINE
  8
0
 10
-58.063
 11
-58.047
 20
40.708
 21
40.697
  0
LINE
  8
0
 10
-58.047
 11
-57.443
 20
40.697
 21
41.545
  0
LINE
  8
0
 10
-57.443
 11
-57.459
 20
41.545
 21
41.556
  0
LINE
  8
0
 10
-57.459
 11
-57.911
 20
41.556
 21
42.365
  0
LINE
  8
0
 10
-57.911
 11
-58.365
 20
42.365
 21
43.243
  0
LINE
  8
0
 10
-58.365
 11
-58.819
 20
43.243
 21
44.19
  0
LINE
  8
0
 10
-58.819
 11
-59.269
 20
44.19
 21
45.208
  0
LINE
  8
0
 10
-59.269
 11
-59.711
 20
45.208
 21
46.296
  0
LINE
  8
0
 10
-59.711
 11
-59.068
 20
46.296
 21
47.113
  0
LINE
  8
0
 10
-59.068
 11
-57.906
 20
47.113
 21
46.94
  0
LINE
  8
0
 10
-57.906
 11
-56.811
 20
46.94
 21
46.743
  0
LINE
  8
0
 10
-56.811
 11
-55.784
 20
46.743
 21
46.525
  0
LINE
  8
0
 10
-55.784
 11
-54.824
 20
46.525
 21
46.29
  0
LINE
  8
0
 10
-54.824
 11
-53.931
 20
46.29
 21
46.042
  0
LINE
  8
0
 10
-53.931
 11
-53.917
 20
46.042
 21
46.03
  0
LINE
  8
0
 10
-53.917
 11
-53.235
 20
46.03
 21
46.817
  0
LINE
  8
0
 10
-53.235
 11
-53.249
 20
46.817
 21
46.829
  0
LINE
  8
0
 10
-53.249
 11
-53.621
 20
46.829
 21
47.678
  0
LINE
  8
0
 10
-53.621
 11
-53.99
 20
47.678
 21
48.595
  0
LINE
  8
0
 10
-53.99
 11
-54.352
 20
48.595
 21
49.581
  0
LINE
  8
0
 10
-54.352
 11
-54.703
 20
49.581
 21
50.637
  0
LINE
  8
0
 10
-54.703
 11
-55.04
 20
50.637
 21
51.762
  0
LINE
  8
0
 10
-55.04
 11
-54.322
 20
51.762
 21
52.515
  0
LINE
  8
0
 10
-54.322
 11
-53.182
 20
52.515
 21
52.232
  0
LINE
  8
0
 10
-53.182
 11
-52.111
 20
52.232
 21
51.931
  0
LINE
  8
0
 10
-52.111
 11
-51.109
 20
51.931
 21
51.617
  0
LINE
  8
0
 10
-51.109
 11
-50.175
 20
51.617
 21
51.292
  0
LINE
  8
0
 10
-50.175
 11
-49.31
 20
51.292
 21
50.96
  0
LINE
  8
0
 10
-49.31
 11
-49.297
 20
50.96
 21
50.947
  0
LINE
  8
0
 10
-49.297
 11
-48.543
 20
50.947
 21
51.666
  0
LINE
  8
0
 10
-48.543
 11
-48.556
 20
51.666
 21
51.679
  0
LINE
  8
0
 10
-48.556
 11
-48.847
 20
51.679
 21
52.559
  0
LINE
  8
0
 10
-48.847
 11
-49.127
 20
52.559
 21
53.507
  0
LINE
  8
0
 10
-49.127
 11
-49.393
 20
53.507
 21
54.523
  0
LINE
  8
0
 10
-49.393
 11
-49.642
 20
54.523
 21
55.607
  0
LINE
  8
0
 10
-49.642
 11
-49.87
 20
55.607
 21
56.759
  0
LINE
  8
0
 10
-49.87
 11
-49.084
 20
56.759
 21
57.44
  0
LINE
  8
0
 10
-49.084
 11
-47.977
 20
57.44
 21
57.051
  0
LINE
  8
0
 10
-47.977
 11
-46.938
 20
57.051
 21
56.65
  0
LINE
  8
0
 10
-46.938
 11
-45.971
 20
56.65
 21
56.242
  0
LINE
  8
0
 10
-45.971
 11
-45.072
 20
56.242
 21
55.829
  0
LINE
  8
0
 10
-45.072
 11
-44.243
 20
55.829
 21
55.417
  0
LINE
  8
0
 10
-44.243
 11
-44.231
 20
55.417
 21
55.402
  0
LINE
  8
0
 10
-44.231
 11
-43.413
 20
55.402
 21
56.045
  0
LINE
  8
0
 10
-43.413
 11
-43.424
 20
56.045
 21
56.06
  0
LINE
  8
0
 10
-43.424
 11
-43.629
 20
56.06
 21
56.964
  0
LINE
  8
0
 10
-43.629
 11
-43.818
 20
56.964
 21
57.934
  0
LINE
  8
0
 10
-43.818
 11
-43.987
 20
57.934
 21
58.971
  0
LINE
  8
0
 10
-43.987
 11
-44.132
 20
58.971
 21
60.074
  0
LINE
  8
0
 10
-44.132
 11
-44.249
 20
60.074
 21
61.243
  0
LINE
  8
0
 10
-44.249
 11
-43.402
 20
61.243
 21
61.846
  0
LINE
  8
0
 10
-43.402
 11
-42.336
 20
61.846
 21
61.353
  0
LINE
  8
0
 10
-42.336
 11
-41.341
 20
61.353
 21
60.855
  0
LINE
  8
0
 10
-41.341
 11
-40.417
 20
60.855
 21
60.357
  0
LINE
  8
0
 10
-40.417
 11
-39.561
 20
60.357
 21
59.861
  0
LINE
  8
0
 10
-39.561
 11
-38.775
 20
59.861
 21
59.371
  0
LINE
  8
0
 10
-38.775
 11
-38.765
 20
59.371
 21
59.356
  0
LINE
  8
0
 10
-38.765
 11
-37.889
 20
59.356
 21
59.919
  0
LINE
  8
0
 10
-37.889
 11
-37.899
 20
59.919
 21
59.934
  0
LINE
  8
0
 10
-37.899
 11
-38.017
 20
59.934
 21
60.853
  0
LINE
  8
0
 10
-38.017
 11
-38.113
 20
60.853
 21
61.837
  0
LINE
  8
0
 10
-38.113
 11
-38.182
 20
61.837
 21
62.885
  0
LINE
  8
0
 10
-38.182
 11
-38.221
 20
62.885
 21
63.997
  0
LINE
  8
0
 10
-38.221
 11
-38.227
 20
63.997
 21
65.172
  0
LINE
  8
0
 10
-38.227
 11
-37.327
 20
65.172
 21
65.692
  0
LINE
  8
0
 10
-37.327
 11
-36.313
 20
65.692
 21
65.099
  0
LINE
  8
0
 10
-36.313
 11
-35.369
 20
65.099
 21
64.509
  0
LINE
  8
0
 10
-35.369
 11
-34.496
 20
64.509
 21
63.925
  0
LINE
  8
0
 10
-34.496
 11
-33.692
 20
63.925
 21
63.35
  0
LINE
  8
0
 10
-33.692
 11
-32.955
 20
63.35
 21
62.788
  0
LINE
  8
0
 10
-32.955
 11
-32.947
 20
62.788
 21
62.772
  0
LINE
  8
0
 10
-32.947
 11
-32.022
 20
62.772
 21
63.249
  0
LINE
  8
0
 10
-32.022
 11
-32.03
 20
63.249
 21
63.265
  0
LINE
  8
0
 10
-32.03
 11
-32.06
 20
63.265
 21
64.192
  0
LINE
  8
0
 10
-32.06
 11
-32.062
 20
64.192
 21
65.18
  0
LINE
  8
0
 10
-32.062
 11
-32.031
 20
65.18
 21
66.23
  0
LINE
  8
0
 10
-32.031
 11
-31.965
 20
66.23
 21
67.341
  0
LINE
  8
0
 10
-31.965
 11
-31.859
 20
67.341
 21
68.51
  0
LINE
  8
0
 10
-31.859
 11
-30.913
 20
68.51
 21
68.942
  0
LINE
  8
0
 10
-30.913
 11
-29.96
 20
68.942
 21
68.256
  0
LINE
  8
0
 10
-29.96
 11
-29.077
 20
68.256
 21
67.579
  0
LINE
  8
0
 10
-29.077
 11
-28.264
 20
67.579
 21
66.915
  0
LINE
  8
0
 10
-28.264
 11
-27.518
 20
66.915
 21
66.266
  0
LINE
  8
0
 10
-27.518
 11
-26.838
 20
66.266
 21
65.637
  0
LINE
  8
0
 10
-26.838
 11
-26.831
 20
65.637
 21
65.62
  0
LINE
  8
0
 10
-26.831
 11
-25.864
 20
65.62
 21
66.006
  0
LINE
  8
0
 10
-25.864
 11
-25.871
 20
66.006
 21
66.024
  0
LINE
  8
0
 10
-25.871
 11
-25.813
 20
66.024
 21
66.948
  0
LINE
  8
0
 10
-25.813
 11
-25.721
 20
66.948
 21
67.933
  0
LINE
  8
0
 10
-25.721
 11
-25.591
 20
67.933
 21
68.975
  0
LINE
  8
0
 10
-25.591
 11
-25.419
 20
68.975
 21
70.074
  0
LINE
  8
0
 10
-25.419
 11
-25.203
 20
70.074
 21
71.229
  0
LINE
  8
0
 10
-25.203
 11
-24.22
 20
71.229
 21
71.569
  0
LINE
  8
0
 10
-24.22
 11
-23.336
 20
71.569
 21
70.795
  0
LINE
  8
0
 10
-23.336
 11
-22.521
 20
70.795
 21
70.037
  0
LINE
  8
0
 10
-22.521
 11
-21.775
 20
70.037
 21
69.298
  0
LINE
  8
0
 10
-21.775
 11
-21.094
 20
69.298
 21
68.582
  0
LINE
  8
0
 10
-21.094
 11
-20.477
 20
68.582
 21
67.891
  0
LINE
  8
0
 10
-20.477
 11
-20.472
 20
67.891
 21
67.873
  0
LINE
  8
0
 10
-20.472
 11
-19.473
 20
67.873
 21
68.166
  0
LINE
  8
0
 10
-19.473
 11
-19.478
 20
68.166
 21
68.184
  0
LINE
  8
0
 10
-19.478
 11
-19.333
 20
68.184
 21
69.099
  0
LINE
  8
0
 10
-19.333
 11
-19.147
 20
69.099
 21
70.07
  0
LINE
  8
0
 10
-19.147
 11
-18.919
 20
70.07
 21
71.095
  0
LINE
  8
0
 10
-18.919
 11
-18.643
 20
71.095
 21
72.173
  0
LINE
  8
0
 10
-18.643
 11
-18.318
 20
72.173
 21
73.302
  0
LINE
  8
0
 10
-18.318
 11
-17.307
 20
73.302
 21
73.547
  0
LINE
  8
0
 10
-17.307
 11
-16.501
 20
73.547
 21
72.693
  0
LINE
  8
0
 10
-16.501
 11
-15.762
 20
72.693
 21
71.861
  0
LINE
  8
0
 10
-15.762
 11
-15.089
 20
71.861
 21
71.055
  0
LINE
  8
0
 10
-15.089
 11
-14.479
 20
71.055
 21
70.276
  0
LINE
  8
0
 10
-14.479
 11
-13.931
 20
70.276
 21
69.53
  0
LINE
  8
0
 10
-13.931
 11
-13.927
 20
69.53
 21
69.512
  0
LINE
  8
0
 10
-13.927
 11
-12.906
 20
69.512
 21
69.708
  0
LINE
  8
0
 10
-12.906
 11
-12.909
 20
69.708
 21
69.727
  0
LINE
  8
0
 10
-12.909
 11
-12.677
 20
69.727
 21
70.624
  0
LINE
  8
0
 10
-12.677
 11
-12.4
 20
70.624
 21
71.573
  0
LINE
  8
0
 10
-12.4
 11
-12.075
 20
71.573
 21
72.571
  0
LINE
  8
0
 10
-12.075
 11
-11.698
 20
72.571
 21
73.619
  0
LINE
  8
0
 10
-11.698
 11
-11.267
 20
73.619
 21
74.711
  0
LINE
  8
0
 10
-11.267
 11
-10.238
 20
74.711
 21
74.859
  0
LINE
  8
0
 10
-10.238
 11
-9.517
 20
74.859
 21
73.932
  0
LINE
  8
0
 10
-9.517
 11
-8.86
 20
73.932
 21
73.033
  0
LINE
  8
0
 10
-8.86
 11
-8.267
 20
73.033
 21
72.167
  0
LINE
  8
0
 10
-8.267
 11
-7.734
 20
72.167
 21
71.334
  0
LINE
  8
0
 10
-7.734
 11
-7.259
 20
71.334
 21
70.539
  0
LINE
  8
0
 10
-7.259
 11
-7.257
 20
70.539
 21
70.521
  0
LINE
  8
0
 10
-7.257
 11
-6.22
 20
70.521
 21
70.62
  0
LINE
  8
0
 10
-6.22
 11
-6.222
 20
70.62
 21
70.638
  0
LINE
  8
0
 10
-6.222
 11
-5.906
 20
70.638
 21
71.509
  0
LINE
  8
0
 10
-5.906
 11
-5.541
 20
71.509
 21
72.427
  0
LINE
  8
0
 10
-5.541
 11
-5.122
 20
72.427
 21
73.39
  0
LINE
  8
0
 10
-5.122
 11
-4.647
 20
73.39
 21
74.397
  0
LINE
  8
0
 10
-4.647
 11
-4.114
 20
74.397
 21
75.444
  0
LINE
  8
0
 10
-4.114
 11
-3.076
 20
75.444
 21
75.493
  0
LINE
  8
0
 10
-3.076
 11
-2.446
 20
75.493
 21
74.502
  0
LINE
  8
0
 10
-2.446
 11
-1.878
 20
74.502
 21
73.545
  0
LINE
  8
0
 10
-1.878
 11
-1.369
 20
73.545
 21
72.626
  0
LINE
  8
0
 10
-1.369
 11
-0.918
 20
72.626
 21
71.747
  0
LINE
  8
0
 10
-0.918
 11
-0.521
 20
71.747
 21
70.91
  0
LINE
  8
0
 10
-0.521
 11
-0.521
 20
70.91
 21
70.891
  0
LINE
  8
0
 10
-0.521
 11
0.521
 20
70.891
 21
70.891
  0
LINE
  8
0
 10
0.521
 11
0.521
 20
70.891
 21
70.91
  0
LINE
  8
0
 10
0.521
 11
0.918
 20
70.91
 21
71.747
  0
LINE
  8
0
 10
0.918
 11
1.369
 20
71.747
 21
72.626
  0
LINE
  8
0
 10
1.369
 11
1.878
 20
72.626
 21
73.545
  0
LINE
  8
0
 10
1.878
 11
2.446
 20
73.545
 21
74.502
  0
LINE
  8
0
 10
2.446
 11
3.076
 20
74.502
 21
75.493
  0
LINE
  8
0
 10
3.076
 11
4.114
 20
75.493
 21
75.444
  0
LINE
  8
0
 10
4.114
 11
4.647
 20
75.444
 21
74.397
  0
LINE
  8
0
 10
4.647
 11
5.122
 20
74.397
 21
73.39
  0
LINE
  8
0
 10
5.122
 11
5.541
 20
73.39
 21
72.427
  0
LINE
  8
0
 10
5.541
 11
5.906
 20
72.427
 21
71.509
  0
LINE
  8
0
 10
5.906
 11
6.222
 20
71.509
 21
70.638
  0
LINE
  8
0
 10
6.222
 11
6.22
 20
70.638
 21
70.619
  0
LINE
  8
0
 10
6.22
 11
7.257
 20
70.619
 21
70.52
  0
LINE
  8
0
 10
7.257
 11
7.259
 20
70.52
 21
70.539
  0
LINE
  8
0
 10
7.259
 11
7.734
 20
70.539
 21
71.334
  0
LINE
  8
0
 10
7.734
 11
8.267
 20
71.334
 21
72.167
  0
LINE
  8
0
 10
8.267
 11
8.86
 20
72.167
 21
73.033
  0
LINE
  8
0
 10
8.86
 11
9.517
 20
73.033
 21
73.932
  0
LINE
  8
0
 10
9.517
 11
10.238
 20
73.932
 21
74.859
  0
LINE
  8
0
 10
10.238
 11
11.267
 20
74.859
 21
74.711
  0
LINE
  8
0
 10
11.267
 11
11.698
 20
74.711
 21
73.619
  0
LINE
  8
0
 10
11.698
 11
12.075
 20
73.619
 21
72.571
  0
LINE
  8
0
 10
12.075
 11
12.4
 20
72.571
 21
71.573
  0
LINE
  8
0
 10
12.4
 11
12.677
 20
71.573
 21
70.624
  0
LINE
  8
0
 10
12.677
 11
12.909
 20
70.624
 21
69.727
  0
LINE
  8
0
 10
12.909
 11
12.906
 20
69.727
 21
69.709
  0
LINE
  8
0
 10
12.906
 11
13.927
 20
69.709
 21
69.511
  0
LINE
  8
0
 10
13.927
 11
13.931
 20
69.511
 21
69.53
  0
LINE
  8
0
 10
13.931
 11
14.479
 20
69.53
 21
70.276
  0
LINE
  8
0
 10
14.479
 11
15.089
 20
70.276
 21
71.055
  0
LINE
  8
0
 10
15.089
 11
15.762
 20
71.055
 21
71.861
  0
LINE
  8
0
 10
15.762
 11
16.501
 20
71.861
 21
72.693
  0
LINE
  8
0
 10
16.501
 11
17.307
 20
72.693
 21
73.547
  0
LINE
  8
0
 10
17.307
 11
18.318
 20
73.547
 21
73.302
  0
LINE
  8
0
 10
18.318
 11
18.643
 20
73.302
 21
72.173
  0
LINE
  8
0
 10
18.643
 11
18.919
 20
72.173
 21
71.095
  0
LINE
  8
0
 10
18.919
 11
19.147
 20
71.095
 21
70.07
  0
LINE
  8
0
 10
19.147
 11
19.333
 20
70.07
 21
69.099
  0
LINE
  8
0
 10
19.333
 11
19.478
 20
69.099
 21
68.184
  0
LINE
  8
0
 10
19.478
 11
19.473
 20
68.184
 21
68.166
  0
LINE
  8
0
 10
19.473
 11
20.472
 20
68.166
 21
67.873
  0
LINE
  8
0
 10
20.472
 11
20.477
 20
67.873
 21
67.891
  0
LINE
  8
0
 10
20.477
 11
21.094
 20
67.891
 21
68.582
  0
LINE
  8
0
 10
21.094
 11
21.775
 20
68.582
 21
69.298
  0
LINE
  8
0
 10
21.775
 11
22.521
 20
69.298
 21
70.037
  0
LINE
  8
0
 10
22.521
 11
23.336
 20
70.037
 21
70.795
  0
LINE
  8
0
 10
23.336
 11
24.22
 20
70.795
 21
71.569
  0
LINE
  8
0
 10
24.22
 11
25.203
 20
71.569
 21
71.229
  0
LINE
  8
0
 10
25.203
 11
25.419
 20
71.229
 21
70.074
  0
LINE
  8
0
 10
25.419
 11
25.591
 20
70.074
 21
68.975
  0
LINE
  8
0
 10
25.591
 11
25.721
 20
68.975
 21
67.933
  0
LINE
  8
0
 10
25.721
 11
25.813
 20
67.933
 21
66.948
  0
LINE
  8
0
 10
25.813
 11
25.871
 20
66.948
 21
66.024
  0
LINE
  8
0
 10
25.871
 11
25.864
 20
66.024
 21
66.007
  0
LINE
  8
0
 10
25.864
 11
26.831
 20
66.007
 21
65.62
  0
LINE
  8
0
 10
26.831
 11
26.838
 20
65.62
 21
65.637
  0
LINE
  8
0
 10
26.838
 11
27.518
 20
65.637
 21
66.266
  0
LINE
  8
0
 10
27.518
 11
28.264
 20
66.266
 21
66.915
  0
LINE
  8
0
 10
28.264
 11
29.077
 20
66.915
 21
67.579
  0
LINE
  8
0
 10
29.077
 11
29.96
 20
67.579
 21
68.256
  0
LINE
  8
0
 10
29.96
 11
30.913
 20
68.256
 21
68.942
  0
LINE
  8
0
 10
30.913
 11
31.859
 20
68.942
 21
68.51
  0
LINE
  8
0
 10
31.859
 11
31.965
 20
68.51
 21
67.341
  0
LINE
  8
0
 10
31.965
 11
32.031
 20
67.341
 21
66.23
  0
LINE
  8
0
 10
32.031
 11
32.062
 20
66.23
 21
65.18
  0
LINE
  8
0
 10
32.062
 11
32.06
 20
65.18
 21
64.192
  0
LINE
  8
0
 10
32.06
 11
32.03
 20
64.192
 21
63.265
  0
LINE
  8
0
 10
32.03
 11
32.022
 20
63.265
 21
63.248
  0
LINE
  8
0
 10
32.022
 11
32.947
 20
63.248
 21
62.772
  0
LINE
  8
0
 10
32.947
 11
32.955
 20
62.772
 21
62.788
  0
LINE
  8
0
 10
32.955
 11
33.692
 20
62.788
 21
63.35
  0
LINE
  8
0
 10
33.692
 11
34.496
 20
63.35
 21
63.925
  0
LINE
  8
0
 10
34.496
 11
35.369
 20
63.925
 21
64.509
  0
LINE
  8
0
 10
35.369
 11
36.313
 20
64.509
 21
65.099
  0
LINE
  8
0
 10
36.313
 11
37.327
 20
65.099
 21
65.692
  0
LINE
  8
0
 10
37.327
 11
38.227
 20
65.692
 21
65.172
  0
LINE
  8
0
 10
38.227
 11
38.221
 20
65.172
 21
63.997
  0
LINE
  8
0
 10
38.221
 11
38.182
 20
63.997
 21
62.885
  0
LINE
  8
0
 10
38.182
 11
38.113
 20
62.885
 21
61.837
  0
LINE
  8
0
 10
38.113
 11
38.017
 20
61.837
 21
60.853
  0
LINE
  8
0
 10
38.017
 11
37.899
 20
60.853
 21
59.934
  0
LINE
  8
0
 10
37.899
 11
37.889
 20
59.934
 21
59.918
  0
LINE
  8
0
 10
37.889
 11
38.765
 20
59.918
 21
59.355
  0
LINE
  8
0
 10
38.765
 11
38.775
 20
59.355
 21
59.371
  0
LINE
  8
0
 10
38.775
 11
39.561
 20
59.371
 21
59.861
  0
LINE
  8
0
 10
39.561
 11
40.417
 20
59.861
 21
60.357
  0
LINE
  8
0
 10
40.417
 11
41.341
 20
60.357
 21
60.855
  0
LINE
  8
0
 10
41.341
 11
42.336
 20
60.855
 21
61.353
  0
LINE
  8
0
 10
42.336
 11
43.402
 20
61.353
 21
61.846
  0
LINE
  8
0
 10
43.402
 11
44.249
 20
61.846
 21
61.243
  0
LINE
  8
0
 10
44.249
 11
44.132
 20
61.243
 21
60.074
  0
LINE
  8
0
 10
44.132
 11
43.987
 20
60.074
 21
58.971
  0
LINE
  8
0
 10
43.987
 11
43.818
 20
58.971
 21
57.934
  0
LINE
  8
0
 10
43.818
 11
43.629
 20
57.934
 21
56.964
  0
LINE
  8
0
 10
43.629
 11
43.424
 20
56.964
 21
56.06
  0
LINE
  8
0
 10
43.424
 11
43.413
 20
56.06
 21
56.046
  0
LINE
  8
0
 10
43.413
 11
44.231
 20
56.046
 21
55.402
  0
LINE
  8
0
 10
44.231
 11
44.243
 20
55.402
 21
55.417
  0
LINE
  8
0
 10
44.243
 11
45.072
 20
55.417
 21
55.829
  0
LINE
  8
0
 10
45.072
 11
45.971
 20
55.829
 21
56.242
  0
LINE
  8
0
 10
45.971
 11
46.938
 20
56.242
 21
56.65
  0
LINE
  8
0
 10
46.938
 11
47.977
 20
56.65
 21
57.051
  0
LINE
  8
0
 10
47.977
 11
49.084
 20
57.051
 21
57.44
  0
LINE
  8
0
 10
49.084
 11
49.87
 20
57.44
 21
56.759
  0
LINE
  8
0
 10
49.87
 11
49.642
 20
56.759
 21
55.607
  0
LINE
  8
0
 10
49.642
 11
49.393
 20
55.607
 21
54.523
  0
LINE
  8
0
 10
49.393
 11
49.127
 20
54.523
 21
53.507
  0
LINE
  8
0
 10
49.127
 11
48.847
 20
53.507
 21
52.559
  0
LINE
  8
0
 10
48.847
 11
48.556
 20
52.559
 21
51.679
  0
LINE
  8
0
 10
48.556
 11
48.543
 20
51.679
 21
51.666
  0
LINE
  8
0
 10
48.543
 11
49.297
 20
51.666
 21
50.947
  0
LINE
  8
0
 10
49.297
 11
49.31
 20
50.947
 21
50.96
  0
LINE
  8
0
 10
49.31
 11
50.175
 20
50.96
 21
51.292
  0
LINE
  8
0
 10
50.175
 11
51.109
 20
51.292
 21
51.617
  0
LINE
  8
0
 10
51.109
 11
52.111
 20
51.617
 21
51.931
  0
LINE
  8
0
 10
52.111
 11
53.182
 20
51.931
 21
52.232
  0
LINE
  8
0
 10
53.182
 11
54.322
 20
52.232
 21
52.515
  0
LINE
  8
0
 10
54.322
 11
55.04
 20
52.515
 21
51.762
  0
LINE
  8
0
 10
55.04
 11
54.703
 20
51.762
 21
50.637
  0
LINE
  8
0
 10
54.703
 11
54.352
 20
50.637
 21
49.581
  0
LINE
  8
0
 10
54.352
 11
53.99
 20
49.581
 21
48.595
  0
LINE
  8
0
 10
53.99
 11
53.621
 20
48.595
 21
47.678
  0
LINE
  8
0
 10
53.621
 11
53.249
 20
47.678
 21
46.829
  0
LINE
  8
0
 10
53.249
 11
53.235
 20
46.829
 21
46.817
  0
LINE
  8
0
 10
53.235
 11
53.917
 20
46.817
 21
46.03
  0
LINE
  8
0
 10
53.917
 11
53.931
 20
46.03
 21
46.042
  0
LINE
  8
0
 10
53.931
 11
54.824
 20
46.042
 21
46.29
  0
LINE
  8
0
 10
54.824
 11
55.784
 20
46.29
 21
46.525
  0
LINE
  8
0
 10
55.784
 11
56.811
 20
46.525
 21
46.743
  0
LINE
  8
0
 10
56.811
 11
57.906
 20
46.743
 21
46.94
  0
LINE
  8
0
 10
57.906
 11
59.068
 20
46.94
 21
47.113
  0
LINE
  8
0
 10
59.068
 11
59.711
 20
47.113
 21
46.296
  0
LINE
  8
0
 10
59.711
 11
59.269
 20
46.296
 21
45.208
  0
LINE
  8
0
 10
59.269
 11
58.819
 20
45.208
 21
44.19
  0
LINE
  8
0
 10
58.819
 11
58.365
 20
44.19
 21
43.243
  0
LINE
  8
0
 10
58.365
 11
57.911
 20
43.243
 21
42.365
  0
LINE
  8
0
 10
57.911
 11
57.459
 20
42.365
 21
41.556
  0
LINE
  8
0
 10
57.459
 11
57.444
 20
41.556
 21
41.545
  0
LINE
  8
0
 10
57.444
 11
58.048
 20
41.545
 21
40.697
  0
LINE
  8
0
 10
58.048
 11
58.063
 20
40.697
 21
40.708
  0
LINE
  8
0
 10
58.063
 11
58.975
 20
40.708
 21
40.869
  0
LINE
  8
0
 10
58.975
 11
59.954
 20
40.869
 21
41.012
  0
LINE
  8
0
 10
59.954
 11
60.997
 20
41.012
 21
41.131
  0
LINE
  8
0
 10
60.997
 11
62.106
 20
41.131
 21
41.223
  0
LINE
  8
0
 10
62.106
 11
63.279
 20
41.223
 21
41.285
  0
LINE
  8
0
 10
63.279
 11
63.841
 20
41.285
 21
40.41
  0
LINE
  8
0
 10
63.841
 11
63.298
 20
40.41
 21
39.369
  0
LINE
  8
0
 10
63.298
 11
62.753
 20
39.369
 21
38.398
  0
LINE
  8
0
 10
62.753
 11
62.211
 20
38.398
 21
37.499
  0
LINE
  8
0
 10
62.211
 11
61.675
 20
37.499
 21
36.668
  0
LINE
  8
0
 10
61.675
 11
61.149
 20
36.668
 21
35.906
  0
LINE
  8
0
 10
61.149
 11
61.133
 20
35.906
 21
35.897
  0
LINE
  8
0
 10
61.133
 11
61.654
 20
35.897
 21
34.995
  0
LINE
  8
0
 10
61.654
 11
61.67
 20
34.995
 21
35.004
  0
LINE
  8
0
 10
61.67
 11
62.593
 20
35.004
 21
35.078
  0
LINE
  8
0
 10
62.593
 11
63.581
 20
35.078
 21
35.127
  0
LINE
  8
0
 10
63.581
 11
64.631
 20
35.127
 21
35.146
  0
LINE
  8
0
 10
64.631
 11
65.743
 20
35.146
 21
35.133
  0
LINE
  8
0
 10
65.743
 11
66.917
 20
35.133
 21
35.083
  0
LINE
  8
0
 10
66.917
 11
67.393
 20
35.083
 21
34.159
  0
LINE
  8
0
 10
67.393
 11
66.753
 20
34.159
 21
33.174
  0
LINE
  8
0
 10
66.753
 11
66.119
 20
33.174
 21
32.26
  0
LINE
  8
0
 10
66.119
 11
65.494
 20
32.26
 21
31.415
  0
LINE
  8
0
 10
65.494
 11
64.882
 20
31.415
 21
30.64
  0
LINE
  8
0
 10
64.882
 11
64.285
 20
30.64
 21
29.93
  0
LINE
  8
0
 10
64.285
 11
64.269
 20
29.93
 21
29.923
  0
LINE
  8
0
 10
64.269
 11
64.701
 20
29.923
 21
28.976
  0
LINE
  8
0
 10
64.701
 11
64.718
 20
28.976
 21
28.983
  0
LINE
  8
0
 10
64.718
 11
65.644
 20
28.983
 21
28.97
  0
LINE
  8
0
 10
65.644
 11
66.632
 20
28.97
 21
28.924
  0
LINE
  8
0
 10
66.632
 11
67.679
 20
28.924
 21
28.844
  0
LINE
  8
0
 10
67.679
 11
68.785
 20
28.844
 21
28.725
  0
LINE
  8
0
 10
68.785
 11
69.949
 20
28.725
 21
28.563
  0
LINE
  8
0
 10
69.949
 11
70.335
 20
28.563
 21
27.598
  0
LINE
  8
0
 10
70.335
 11
69.605
 20
27.598
 21
26.678
  0
LINE
  8
0
 10
69.605
 11
68.886
 20
26.678
 21
25.828
  0
LINE
  8
0
 10
68.886
 11
68.184
 20
25.828
 21
25.048
  0
LINE
  8
0
 10
68.184
 11
67.5
 20
25.048
 21
24.333
  0
LINE
  8
0
 10
67.5
 11
66.839
 20
24.333
 21
23.684
  0
LINE
  8
0
 10
66.839
 11
66.822
 20
23.684
 21
23.678
  0
LINE
  8
0
 10
66.822
 11
67.162
 20
23.678
 21
22.694
  0
LINE
  8
0
 10
67.162
 11
67.18
 20
22.694
 21
22.7
  0
LINE
  8
0
 10
67.18
 11
68.101
 20
22.7
 21
22.599
  0
LINE
  8
0
 10
68.101
 11
69.08
 20
22.599
 21
22.46
  0
LINE
  8
0
 10
69.08
 11
70.114
 20
22.46
 21
22.28
  0
LINE
  8
0
 10
70.114
 11
71.204
 20
22.28
 21
22.056
  0
LINE
  8
0
 10
71.204
 11
72.347
 20
22.056
 21
21.785
  0
LINE
  8
0
 10
72.347
 11
72.64
 20
21.785
 21
20.787
  0
LINE
  8
0
 10
72.64
 11
71.825
 20
20.787
 21
19.941
  0
LINE
  8
0
 10
71.825
 11
71.029
 20
19.941
 21
19.163
  0
LINE
  8
0
 10
71.029
 11
70.256
 20
19.163
 21
18.453
  0
LINE
  8
0
 10
70.256
 11
69.508
 20
18.453
 21
17.807
  0
LINE
  8
0
 10
69.508
 11
68.788
 20
17.807
 21
17.223
  0
LINE
  8
0
 10
68.788
 11
68.77
 20
17.223
 21
17.219
  0
LINE
  8
0
 10
68.77
 11
69.016
 20
17.219
 21
16.208
  0
LINE
  8
0
 10
69.016
 11
69.033
 20
16.208
 21
16.212
  0
LINE
  8
0
 10
69.033
 11
69.941
 20
16.212
 21
16.023
  0
LINE
  8
0
 10
69.941
 11
70.902
 20
16.023
 21
15.792
  0
LINE
  8
0
 10
70.902
 11
71.914
 20
15.792
 21
15.514
  0
LINE
  8
0
 10
71.914
 11
72.979
 20
15.514
 21
15.188
  0
LINE
  8
0
 10
72.979
 11
74.09
 20
15.188
 21
14.809
  0
LINE
  8
0
 10
74.09
 11
74.287
 20
14.809
 21
13.788
  0
LINE
  8
0
 10
74.287
 11
73.396
 20
13.788
 21
13.024
  0
LINE
  8
0
 10
73.396
 11
72.529
 20
13.024
 21
12.325
  0
LINE
  8
0
 10
72.529
 11
71.692
 20
12.325
 21
11.691
  0
LINE
  8
0
 10
71.692
 11
70.886
 20
11.691
 21
11.119
  0
LINE
  8
0
 10
70.886
 11
70.114
 20
11.119
 21
10.607
  0
LINE
  8
0
 10
70.114
 11
70.095
 20
10.607
 21
10.604
  0
LINE
  8
0
 10
70.095
 11
70.244
 20
10.604
 21
9.574
  0
LINE
  8
0
 10
70.244
 11
70.262
 20
9.574
 21
9.576
  0
LINE
  8
0
 10
70.262
 11
71.147
 20
9.576
 21
9.302
  0
LINE
  8
0
 10
71.147
 11
72.082
 20
9.302
 21
8.98
  0
LINE
  8
0
 10
72.082
 11
73.064
 20
8.98
 21
8.608
  0
LINE
  8
0
 10
73.064
 11
74.092
 20
8.608
 21
8.182
  0
LINE
  8
0
 10
74.092
 11
75.162
 20
8.182
 21
7.7
  0
LINE
  8
0
 10
75.162
 11
75.261
 20
7.7
 21
6.664
  0
LINE
  8
0
 10
75.261
 11
74.301
 20
6.664
 21
5.988
  0
LINE
  8
0
 10
74.301
 11
73.372
 20
5.988
 21
5.375
  0
LINE
  8
0
 10
73.372
 11
72.479
 20
5.375
 21
4.823
  0
LINE
  8
0
 10
72.479
 11
71.622
 20
4.823
 21
4.331
  0
LINE
  8
0
 10
71.622
 11
70.804
 20
4.331
 21
3.894
  0
LINE
  8
0
 10
70.804
 11
70.786
 20
3.894
 21
3.893
  0
LINE
  8
0
 10
70.786
 11
70.836
 20
3.893
 21
2.853
  0
LINE
  8
0
 10
70.836
 11
70.854
 20
2.853
 21
2.854
  0
LINE
  8
0
 10
70.854
 11
71.709
 20
2.854
 21
2.497
  0
LINE
  8
0
 10
71.709
 11
72.609
 20
2.497
 21
2.088
  0
LINE
  8
0
 10
72.609
 11
73.551
 20
2.088
 21
1.624
  0
LINE
  8
0
 10
73.551
 11
74.534
 20
1.624
 21
1.102
  0
LINE
  8
0
 10
74.534
 11
75.554
 20
1.102
 21
0.52
  0
LINE
  8
0
 10
75.554
 11
75.554
 20
0.52
 21
-0.52
  0
LINE
  8
0
 10
75.554
 11
74.534
 20
-0.52
 21
-1.102
  0
LINE
  8
0
 10
74.534
 11
73.551
 20
-1.102
 21
-1.624
  0
LINE
  8
0
 10
73.551
 11
72.609
 20
-1.624
 21
-2.088
  0
LINE
  8
0
 10
72.609
 11
71.709
 20
-2.088
 21
-2.497
  0
LINE
  8
0
 10
71.709
 11
70.854
 20
-2.497
 21
-2.854
  0
LINE
  8
0
 10
70.854
 11
70.835
 20
-2.854
 21
-2.853
  0
LINE
  8
0
 10
70.835
 11
70.786
 20
-2.853
 21
-3.893
  0
LINE
  8
0
 10
70.786
 11
70.804
 20
-3.893
 21
-3.894
  0
LINE
  8
0
 10
70.804
 11
71.622
 20
-3.894
 21
-4.331
  0
LINE
  8
0
 10
71.622
 11
72.479
 20
-4.331
 21
-4.823
  0
LINE
  8
0
 10
72.479
 11
73.372
 20
-4.823
 21
-5.375
  0
LINE
  8
0
 10
73.372
 11
74.301
 20
-5.375
 21
-5.988
  0
LINE
  8
0
 10
74.301
 11
75.261
 20
-5.988
 21
-6.664
  0
LINE
  8
0
 10
75.261
 11
75.162
 20
-6.664
 21
-7.7
  0
LINE
  8
0
 10
75.162
 11
74.092
 20
-7.7
 21
-8.182
  0
LINE
  8
0
 10
74.092
 11
73.064
 20
-8.182
 21
-8.608
  0
LINE
  8
0
 10
73.064
 11
72.082
 20
-8.608
 21
-8.98
  0
LINE
  8
0
 10
72.082
 11
71.147
 20
-8.98
 21
-9.302
  0
LINE
  8
0
 10
71.147
 11
70.262
 20
-9.302
 21
-9.576
  0
LINE
  8
0
 10
70.262
 11
70.243
 20
-9.576
 21
-9.573
  0
LINE
  8
0
 10
70.243
 11
70.096
 20
-9.573
 21
-10.604
  0
LINE
  8
0
 10
70.096
 11
70.114
 20
-10.604
 21
-10.607
  0
LINE
  8
0
 10
70.114
 11
70.886
 20
-10.607
 21
-11.119
  0
LINE
  8
0
 10
70.886
 11
71.692
 20
-11.119
 21
-11.691
  0
LINE
  8
0
 10
71.692
 11
72.529
 20
-11.691
 21
-12.325
  0
LINE
  8
0
 10
72.529
 11
73.396
 20
-12.325
 21
-13.024
  0
LINE
  8
0
 10
73.396
 11
74.287
 20
-13.024
 21
-13.788
  0
LINE
  8
0
 10
74.287
 11
74.09
 20
-13.788
 21
-14.809
  0
LINE
  8
0
 10
74.09
 11
72.979
 20
-14.809
 21
-15.188
  0
LINE
  8
0
 10
72.979
 11
71.914
 20
-15.188
 21
-15.514
  0
LINE
  8
0
 10
71.914
 11
70.902
 20
-15.514
 21
-15.792
  0
LINE
  8
0
 10
70.902
 11
69.941
 20
-15.792
 21
-16.023
  0
LINE
  8
0
 10
69.941
 11
69.033
 20
-16.023
 21
-16.212
  0
LINE
  8
0
 10
69.033
 11
69.015
 20
-16.212
 21
-16.208
  0
LINE
  8
0
 10
69.015
 11
68.77
 20
-16.208
 21
-17.218
  0
LINE
  8
0
 10
68.77
 11
68.788
 20
-17.218
 21
-17.223
  0
LINE
  8
0
 10
68.788
 11
69.508
 20
-17.223
 21
-17.807
  0
LINE
  8
0
 10
69.508
 11
70.256
 20
-17.807
 21
-18.453
  0
LINE
  8
0
 10
70.256
 11
71.029
 20
-18.453
 21
-19.163
  0
LINE
  8
0
 10
71.029
 11
71.825
 20
-19.163
 21
-19.941
  0
LINE
  8
0
 10
71.825
 11
72.64
 20
-19.941
 21
-20.787
  0
LINE
  8
0
 10
72.64
 11
72.347
 20
-20.787
 21
-21.785
  0
LINE
  8
0
 10
72.347
 11
71.204
 20
-21.785
 21
-22.056
  0
LINE
  8
0
 10
71.204
 11
70.114
 20
-22.056
 21
-22.28
  0
LINE
  8
0
 10
70.114
 11
69.08
 20
-22.28
 21
-22.46
  0
LINE
  8
0
 10
69.08
 11
68.101
 20
-22.46
 21
-22.599
  0
LINE
  8
0
 10
68.101
 11
67.18
 20
-22.599
 21
-22.7
  0
LINE
  8
0
 10
67.18
 11
67.163
 20
-22.7
 21
-22.694
  0
LINE
  8
0
 10
67.163
 11
66.822
 20
-22.694
 21
-23.678
  0
LINE
  8
0
 10
66.822
 11
66.839
 20
-23.678
 21
-23.684
  0
LINE
  8
0
 10
66.839
 11
67.5
 20
-23.684
 21
-24.333
  0
LINE
  8
0
 10
67.5
 11
68.184
 20
-24.333
 21
-25.048
  0
LINE
  8
0
 10
68.184
 11
68.886
 20
-25.048
 21
-25.828
  0
LINE
  8
0
 10
68.886
 11
69.605
 20
-25.828
 21
-26.678
  0
LINE
  8
0
 10
69.605
 11
70.335
 20
-26.678
 21
-27.598
  0
LINE
  8
0
 10
70.335
 11
69.949
 20
-27.598
 21
-28.563
  0
LINE
  8
0
 10
69.949
 11
68.785
 20
-28.563
 21
-28.725
  0
LINE
  8
0
 10
68.785
 11
67.679
 20
-28.725
 21
-28.844
  0
LINE
  8
0
 10
67.679
 11
66.632
 20
-28.844
 21
-28.924
  0
LINE
  8
0
 10
66.632
 11
65.644
 20
-28.924
 21
-28.97
  0
LINE
  8
0
 10
65.644
 11
64.718
 20
-28.97
 21
-28.983
  0
LINE
  8
0
 10
64.718
 11
64.701
 20
-28.983
 21
-28.975
  0
LINE
  8
0
 10
64.701
 11
64.268
 20
-28.975
 21
-29.922
  0
LINE
  8
0
 10
64.268
 11
64.285
 20
-29.922
 21
-29.93
  0
LINE
  8
0
 10
64.285
 11
64.882
 20
-29.93
 21
-30.64
  0
LINE
  8
0
 10
64.882
 11
65.494
 20
-30.64
 21
-31.415
  0
LINE
  8
0
 10
65.494
 11
66.119
 20
-31.415
 21
-32.26
  0
LINE
  8
0
 10
66.119
 11
66.753
 20
-32.26
 21
-33.174
  0
LINE
  8
0
 10
66.753
 11
67.393
 20
-33.174
 21
-34.159
  0
LINE
  8
0
 10
67.393
 11
66.917
 20
-34.159
 21
-35.083
  0
LINE
  8
0
 10
66.917
 11
65.743
 20
-35.083
 21
-35.133
  0
LINE
  8
0
 10
65.743
 11
64.631
 20
-35.133
 21
-35.146
  0
LINE
  8
0
 10
64.631
 11
63.581
 20
-35.146
 21
-35.127
  0
LINE
  8
0
 10
63.581
 11
62.593
 20
-35.127
 21
-35.078
  0
LINE
  8
0
 10
62.593
 11
61.67
 20
-35.078
 21
-35.004
  0
LINE
  8
0
 10
61.67
 11
61.654
 20
-35.004
 21
-34.995
  0
LINE
  8
0
 10
61.654
 11
61.133
 20
-34.995
 21
-35.896
  0
LINE
  8
0
 10
61.133
 11
61.149
 20
-35.896
 21
-35.906
  0
LINE
  8
0
 10
61.149
 11
61.675
 20
-35.906
 21
-36.668
  0
LINE
  8
0
 10
61.675
 11
62.211
 20
-36.668
 21
-37.499
  0
LINE
  8
0
 10
62.211
 11
62.753
 20
-37.499
 21
-38.398
  0
LINE
  8
0
 10
62.753
 11
63.298
 20
-38.398
 21
-39.369
  0
LINE
  8
0
 10
63.298
 11
63.841
 20
-39.369
 21
-40.41
  0
LINE
  8
0
 10
63.841
 11
63.279
 20
-40.41
 21
-41.285
  0
LINE
  8
0
 10
63.279
 11
62.106
 20
-41.285
 21
-41.223
  0
LINE
  8
0
 10
62.106
 11
60.997
 20
-41.223
 21
-41.131
  0
LINE
  8
0
 10
60.997
 11
59.954
 20
-41.131
 21
-41.012
  0
LINE
  8
0
 10
59.954
 11
58.975
 20
-41.012
 21
-40.869
  0
LINE
  8
0
 10
58.975
 11
58.063
 20
-40.869
 21
-40.708
  0
LINE
  8
0
 10
58.063
 11
58.047
 20
-40.708
 21
-40.697
  0
LINE
  8
0
 10
58.047
 11
57.443
 20
-40.697
 21
-41.545
  0
LINE
  8
0
 10
57.443
 11
57.459
 20
-41.545
 21
-41.556
  0
LINE
  8
0
 10
57.459
 11
57.911
 20
-41.556
 21
-42.365
  0
LINE
  8
0
 10
57.911
 11
58.365
 20
-42.365
 21
-43.243
  0
LINE
  8
0
 10
58.365
 11
58.819
 20
-43.243
 21
-44.19
  0
LINE
  8
0
 10
58.819
 11
59.269
 20
-44.19
 21
-45.208
  0
LINE
  8
0
 10
59.269
 11
59.711
 20
-45.208
 21
-46.296
  0
LINE
  8
0
 10
59.711
 11
59.068
 20
-46.296
 21
-47.113
  0
LINE
  8
0
 10
59.068
 11
57.906
 20
-47.113
 21
-46.94
  0
LINE
  8
0
 10
57.906
 11
56.811
 20
-46.94
 21
-46.743
  0
LINE
  8
0
 10
56.811
 11
55.784
 20
-46.743
 21
-46.525
  0
LINE
  8
0
 10
55.784
 11
54.824
 20
-46.525
 21
-46.29
  0
LINE
  8
0
 10
54.824
 11
53.931
 20
-46.29
 21
-46.042
  0
LINE
  8
0
 10
53.931
 11
53.917
 20
-46.042
 21
-46.03
  0
LINE
  8
0
 10
53.917
 11
53.235
 20
-46.03
 21
-46.817
  0
LINE
  8
0
 10
53.235
 11
53.249
 20
-46.817
 21
-46.829
  0
LINE
  8
0
 10
53.249
 11
53.621
 20
-46.829
 21
-47.678
  0
LINE
  8
0
 10
53.621
 11
53.99
 20
-47.678
 21
-48.595
  0
LINE
  8
0
 10
53.99
 11
54.352
 20
-48.595
 21
-49.581
  0
LINE
  8
0
 10
54.352
 11
54.703
 20
-49.581
 21
-50.637
  0
LINE
  8
0
 10
54.703
 11
55.04
 20
-50.637
 21
-51.762
  0
LINE
  8
0
 10
55.04
 11
54.322
 20
-51.762
 21
-52.515
  0
LINE
  8
0
 10
54.322
 11
53.182
 20
-52.515
 21
-52.232
  0
LINE
  8
0
 10
53.182
 11
52.111
 20
-52.232
 21
-51.931
  0
LINE
  8
0
 10
52.111
 11
51.109
 20
-51.931
 21
-51.617
  0
LINE
  8
0
 10
51.109
 11
50.175
 20
-51.617
 21
-51.292
  0
LINE
  8
0
 10
50.175
 11
49.31
 20
-51.292
 21
-50.96
  0
LINE
  8
0
 10
49.31
 11
49.297
 20
-50.96
 21
-50.947
  0
LINE
  8
0
 10
49.297
 11
48.543
 20
-50.947
 21
-51.666
  0
LINE
  8
0
 10
48.543
 11
48.556
 20
-51.666
 21
-51.679
  0
LINE
  8
0
 10
48.556
 11
48.847
 20
-51.679
 21
-52.559
  0
LINE
  8
0
 10
48.847
 11
49.127
 20
-52.559
 21
-53.507
  0
LINE
  8
0
 10
49.127
 11
49.393
 20
-53.507
 21
-54.523
  0
LINE
  8
0
 10
49.393
 11
49.642
 20
-54.523
 21
-55.607
  0
LINE
  8
0
 10
49.642
 11
49.87
 20
-55.607
 21
-56.759
  0
LINE
  8
0
 10
49.87
 11
49.084
 20
-56.759
 21
-57.44
  0
LINE
  8
0
 10
49.084
 11
47.977
 20
-57.44
 21
-57.051
  0
LINE
  8
0
 10
47.977
 11
46.938
 20
-57.051
 21
-56.65
  0
LINE
  8
0
 10
46.938
 11
45.971
 20
-56.65
 21
-56.242
  0
LINE
  8
0
 10
45.971
 11
45.072
 20
-56.242
 21
-55.829
  0
LINE
  8
0
 10
45.072
 11
44.243
 20
-55.829
 21
-55.417
  0
LINE
  8
0
 10
44.243
 11
44.231
 20
-55.417
 21
-55.402
  0
LINE
  8
0
 10
44.231
 11
43.413
 20
-55.402
 21
-56.045
  0
LINE
  8
0
 10
43.413
 11
43.424
 20
-56.045
 21
-56.06
  0
LINE
  8
0
 10
43.424
 11
43.629
 20
-56.06
 21
-56.964
  0
LINE
  8
0
 10
43.629
 11
43.818
 20
-56.964
 21
-57.934
  0
LINE
  8
0
 10
43.818
 11
43.987
 20
-57.934
 21
-58.971
  0
LINE
  8
0
 10
43.987
 11
44.132
 20
-58.971
 21
-60.074
  0
LINE
  8
0
 10
44.132
 11
44.249
 20
-60.074
 21
-61.243
  0
LINE
  8
0
 10
44.249
 11
43.402
 20
-61.243
 21
-61.846
  0
LINE
  8
0
 10
43.402
 11
42.336
 20
-61.846
 21
-61.353
  0
LINE
  8
0
 10
42.336
 11
41.341
 20
-61.353
 21
-60.855
  0
LINE
  8
0
 10
41.341
 11
40.417
 20
-60.855
 21
-60.357
  0
LINE
  8
0
 10
40.417
 11
39.561
 20
-60.357
 21
-59.861
  0
LINE
  8
0
 10
39.561
 11
38.775
 20
-59.861
 21
-59.371
  0
LINE
  8
0
 10
38.775
 11
38.765
 20
-59.371
 21
-59.356
  0
LINE
  8
0
 10
38.765
 11
37.889
 20
-59.356
 21
-59.919
  0
LINE
  8
0
 10
37.889
 11
37.899
 20
-59.919
 21
-59.934
  0
LINE
  8
0
 10
37.899
 11
38.017
 20
-59.934
 21
-60.853
  0
LINE
  8
0
 10
38.017
 11
38.113
 20
-60.853
 21
-61.837
  0
LINE
  8
0
 10
38.113
 11
38.182
 20
-61.837
 21
-62.885
  0
LINE
  8
0
 10
38.182
 11
38.221
 20
-62.885
 21
-63.997
  0
LINE
  8
0
 10
38.221
 11
38.227
 20
-63.997
 21
-65.172
  0
LINE
  8
0
 10
38.227
 11
37.327
 20
-65.172
 21
-65.692
  0
LINE
  8
0
 10
37.327
 11
36.313
 20
-65.692
 21
-65.099
  0
LINE
  8
0
 10
36.313
 11
35.369
 20
-65.099
 21
-64.509
  0
LINE
  8
0
 10
35.369
 11
34.496
 20
-64.509
 21
-63.925
  0
LINE
  8
0
 10
34.496
 11
33.692
 20
-63.925
 21
-63.35
  0
LINE
  8
0
 10
33.692
 11
32.955
 20
-63.35
 21
-62.788
  0
LINE
  8
0
 10
32.955
 11
32.947
 20
-62.788
 21
-62.772
  0
LINE
  8
0
 10
32.947
 11
32.022
 20
-62.772
 21
-63.249
  0
LINE
  8
0
 10
32.022
 11
32.03
 20
-63.249
 21
-63.265
  0
LINE
  8
0
 10
32.03
 11
32.06
 20
-63.265
 21
-64.192
  0
LINE
  8
0
 10
32.06
 11
32.062
 20
-64.192
 21
-65.18
  0
LINE
  8
0
 10
32.062
 11
32.031
 20
-65.18
 21
-66.23
  0
LINE
  8
0
 10
32.031
 11
31.965
 20
-66.23
 21
-67.341
  0
LINE
  8
0
 10
31.965
 11
31.859
 20
-67.341
 21
-68.51
  0
LINE
  8
0
 10
31.859
 11
30.913
 20
-68.51
 21
-68.942
  0
LINE
  8
0
 10
30.913
 11
29.96
 20
-68.942
 21
-68.256
  0
LINE
  8
0
 10
29.96
 11
29.077
 20
-68.256
 21
-67.579
  0
LINE
  8
0
 10
29.077
 11
28.264
 20
-67.579
 21
-66.915
  0
LINE
  8
0
 10
28.264
 11
27.518
 20
-66.915
 21
-66.266
  0
LINE
  8
0
 10
27.518
 11
26.838
 20
-66.266
 21
-65.637
  0
LINE
  8
0
 10
26.838
 11
26.831
 20
-65.637
 21
-65.62
  0
LINE
  8
0
 10
26.831
 11
25.864
 20
-65.62
 21
-66.006
  0
LINE
  8
0
 10
25.864
 11
25.871
 20
-66.006
 21
-66.024
  0
LINE
  8
0
 10
25.871
 11
25.813
 20
-66.024
 21
-66.948
  0
LINE
  8
0
 10
25.813
 11
25.721
 20
-66.948
 21
-67.933
  0
LINE
  8
0
 10
25.721
 11
25.591
 20
-67.933
 21
-68.975
  0
LINE
  8
0
 10
25.591
 11
25.419
 20
-68.975
 21
-70.074
  0
LINE
  8
0
 10
25.419
 11
25.203
 20
-70.074
 21
-71.229
  0
LINE
  8
0
 10
25.203
 11
24.22
 20
-71.229
 21
-71.569
  0
LINE
  8
0
 10
24.22
 11
23.336
 20
-71.569
 21
-70.795
  0
LINE
  8
0
 10
23.336
 11
22.521
 20
-70.795
 21
-70.037
  0
LINE
  8
0
 10
22.521
 11
21.775
 20
-70.037
 21
-69.298
  0
LINE
  8
0
 10
21.775
 11
21.094
 20
-69.298
 21
-68.582
  0
LINE
  8
0
 10
21.094
 11
20.477
 20
-68.582
 21
-67.891
  0
LINE
  8
0
 10
20.477
 11
20.472
 20
-67.891
 21
-67.873
  0
LINE
  8
0
 10
20.472
 11
19.473
 20
-67.873
 21
-68.166
  0
LINE
  8
0
 10
19.473
 11
19.478
 20
-68.166
 21
-68.184
  0
LINE
  8
0
 10
19.478
 11
19.333
 20
-68.184
 21
-69.099
  0
LINE
  8
0
 10
19.333
 11
19.147
 20
-69.099
 21
-70.07
  0
LINE
  8
0
 10
19.147
 11
18.919
 20
-70.07
 21
-71.095
  0
LINE
  8
0
 10
18.919
 11
18.643
 20
-71.095
 21
-72.173
  0
LINE
  8
0
 10
18.643
 11
18.318
 20
-72.173
 21
-73.302
  0
LINE
  8
0
 10
18.318
 11
17.307
 20
-73.302
 21
-73.547
  0
LINE
  8
0
 10
17.307
 11
16.501
 20
-73.547
 21
-72.693
  0
LINE
  8
0
 10
16.501
 11
15.762
 20
-72.693
 21
-71.861
  0
LINE
  8
0
 10
15.762
 11
15.089
 20
-71.861
 21
-71.055
  0
LINE
  8
0
 10
15.089
 11
14.479
 20
-71.055
 21
-70.276
  0
LINE
  8
0
 10
14.479
 11
13.931
 20
-70.276
 21
-69.53
  0
LINE
  8
0
 10
13.931
 11
13.927
 20
-69.53
 21
-69.512
  0
LINE
  8
0
 10
13.927
 11
12.906
 20
-69.512
 21
-69.708
  0
LINE
  8
0
 10
12.906
 11
12.909
 20
-69.708
 21
-69.727
  0
LINE
  8
0
 10
12.909
 11
12.677
 20
-69.727
 21
-70.624
  0
LINE
  8
0
 10
12.677
 11
12.4
 20
-70.624
 21
-71.573
  0
LINE
  8
0
 10
12.4
 11
12.075
 20
-71.573
 21
-72.571
  0
LINE
  8
0
 10
12.075
 11
11.698
 20
-72.571
 21
-73.619
  0
LINE
  8
0
 10
11.698
 11
11.267
 20
-73.619
 21
-74.711
  0
LINE
  8
0
 10
11.267
 11
10.238
 20
-74.711
 21
-74.859
  0
LINE
  8
0
 10
10.238
 11
9.517
 20
-74.859
 21
-73.932
  0
LINE
  8
0
 10
9.517
 11
8.86
 20
-73.932
 21
-73.033
  0
LINE
  8
0
 10
8.86
 11
8.267
 20
-73.033
 21
-72.167
  0
LINE
  8
0
 10
8.267
 11
7.734
 20
-72.167
 21
-71.334
  0
LINE
  8
0
 10
7.734
 11
7.259
 20
-71.334
 21
-70.539
  0
LINE
  8
0
 10
7.259
 11
7.257
 20
-70.539
 21
-70.521
  0
LINE
  8
0
 10
7.257
 11
6.22
 20
-70.521
 21
-70.62
  0
LINE
  8
0
 10
6.22
 11
6.222
 20
-70.62
 21
-70.638
  0
LINE
  8
0
 10
6.222
 11
5.906
 20
-70.638
 21
-71.509
  0
LINE
  8
0
 10
5.906
 11
5.541
 20
-71.509
 21
-72.427
  0
LINE
  8
0
 10
5.541
 11
5.122
 20
-72.427
 21
-73.39
  0
LINE
  8
0
 10
5.122
 11
4.647
 20
-73.39
 21
-74.397
  0
LINE
  8
0
 10
4.647
 11
4.114
 20
-74.397
 21
-75.444
  0
LINE
  8
0
 10
4.114
 11
3.076
 20
-75.444
 21
-75.493
  0
LINE
  8
0
 10
3.076
 11
2.446
 20
-75.493
 21
-74.502
  0
LINE
  8
0
 10
2.446
 11
1.878
 20
-74.502
 21
-73.545
  0
LINE
  8
0
 10
1.878
 11
1.369
 20
-73.545
 21
-72.626
  0
LINE
  8
0
 10
1.369
 11
0.918
 20
-72.626
 21
-71.747
  0
LINE
  8
0
 10
0.918
 11
0.521
 20
-71.747
 21
-70.91
  0
LINE
  8
0
 10
0.521
 11
0.521
 20
-70.91
 21
-70.891
  0
LINE
  8
0
 10
0.521
 11
-0.521
 20
-70.891
 21
-70.891
  0
LINE
  8
0
 10
-0.521
 11
-0.521
 20
-70.891
 21
-70.91
  0
LINE
  8
0
 10
-0.521
 11
-0.918
 20
-70.91
 21
-71.747
  0
LINE
  8
0
 10
-0.918
 11
-1.369
 20
-71.747
 21
-72.626
  0
LINE
  8
0
 10
-1.369
 11
-1.878
 20
-72.626
 21
-73.545
  0
LINE
  8
0
 10
-1.878
 11
-2.446
 20
-73.545
 21
-74.502
  0
LINE
  8
0
 10
-2.446
 11
-3.076
 20
-74.502
 21
-75.493
  0
LINE
  8
0
 10
-3.076
 11
-4.114
 20
-75.493
 21
-75.444
  0
LINE
  8
0
 10
-4.114
 11
-4.647
 20
-75.444
 21
-74.397
  0
LINE
  8
0
 10
-4.647
 11
-5.122
 20
-74.397
 21
-73.39
  0
LINE
  8
0
 10
-5.122
 11
-5.541
 20
-73.39
 21
-72.427
  0
LINE
  8
0
 10
-5.541
 11
-5.906
 20
-72.427
 21
-71.509
  0
LINE
  8
0
 10
-5.906
 11
-6.222
 20
-71.509
 21
-70.638
  0
LINE
  8
0
 10
-6.222
 11
-6.22
 20
-70.638
 21
-70.619
  0
LINE
  8
0
 10
-6.22
 11
-7.257
 20
-70.619
 21
-70.52
  0
LINE
  8
0
 10
-7.257
 11
-7.259
 20
-70.52
 21
-70.539
  0
LINE
  8
0
 10
-7.259
 11
-7.734
 20
-70.539
 21
-71.334
  0
LINE
  8
0
 10
-7.734
 11
-8.267
 20
-71.334
 21
-72.167
  0
LINE
  8
0
 10
-8.267
 11
-8.86
 20
-72.167
 21
-73.033
  0
LINE
  8
0
 10
-8.86
 11
-9.517
 20
-73.033
 21
-73.932
  0
LINE
  8
0
 10
-9.517
 11
-10.238
 20
-73.932
 21
-74.859
  0
LINE
  8
0
 10
-10.238
 11
-11.267
 20
-74.859
 21
-74.711
  0
LINE
  8
0
 10
-11.267
 11
-11.698
 20
-74.711
 21
-73.619
  0
LINE
  8
0
 10
-11.698
 11
-12.075
 20
-73.619
 21
-72.571
  0
LINE
  8
0
 10
-12.075
 11
-12.4
 20
-72.571
 21
-71.573
  0
LINE
  8
0
 10
-12.4
 11
-12.677
 20
-71.573
 21
-70.624
  0
LINE
  8
0
 10
-12.677
 11
-12.909
 20
-70.624
 21
-69.727
  0
LINE
  8
0
 10
-12.909
 11
-12.906
 20
-69.727
 21
-69.709
  0
LINE
  8
0
 10
-12.906
 11
-13.927
 20
-69.709
 21
-69.511
  0
LINE
  8
0
 10
-13.927
 11
-13.931
 20
-69.511
 21
-69.53
  0
LINE
  8
0
 10
-13.931
 11
-14.479
 20
-69.53
 21
-70.276
  0
LINE
  8
0
 10
-14.479
 11
-15.089
 20
-70.276
 21
-71.055
  0
LINE
  8
0
 10
-15.089
 11
-15.762
 20
-71.055
 21
-71.861
  0
LINE
  8
0
 10
-15.762
 11
-16.501
 20
-71.861
 21
-72.693
  0
LINE
  8
0
 10
-16.501
 11
-17.307
 20
-72.693
 21
-73.547
  0
LINE
  8
0
 10
-17.307
 11
-18.318
 20
-73.547
 21
-73.302
  0
LINE
  8
0
 10
-18.318
 11
-18.643
 20
-73.302
 21
-72.173
  0
LINE
  8
0
 10
-18.643
 11
-18.919
 20
-72.173
 21
-71.095
  0
LINE
  8
0
 10
-18.919
 11
-19.147
 20
-71.095
 21
-70.07
  0
LINE
  8
0
 10
-19.147
 11
-19.333
 20
-70.07
 21
-69.099
  0
LINE
  8
0
 10
-19.333
 11
-19.478
 20
-69.099
 21
-68.184
  0
LINE
  8
0
 10
-19.478
 11
-19.473
 20
-68.184
 21
-68.166
  0
LINE
  8
0
 10
-19.473
 11
-20.472
 20
-68.166
 21
-67.873
  0
LINE
  8
0
 10
-20.472
 11
-20.477
 20
-67.873
 21
-67.891
  0
LINE
  8
0
 10
-20.477
 11
-21.094
 20
-67.891
 21
-68.582
  0
LINE
  8
0
 10
-21.094
 11
-21.775
 20
-68.582
 21
-69.298
  0
LINE
  8
0
 10
-21.775
 11
-22.521
 20
-69.298
 21
-70.037
  0
LINE
  8
0
 10
-22.521
 11
-23.336
 20
-70.037
 21
-70.795
  0
LINE
  8
0
 10
-23.336
 11
-24.22
 20
-70.795
 21
-71.569
  0
LINE
  8
0
 10
-24.22
 11
-25.203
 20
-71.569
 21
-71.229
  0
LINE
  8
0
 10
-25.203
 11
-25.419
 20
-71.229
 21
-70.074
  0
LINE
  8
0
 10
-25.419
 11
-25.591
 20
-70.074
 21
-68.975
  0
LINE
  8
0
 10
-25.591
 11
-25.721
 20
-68.975
 21
-67.933
  0
LINE
  8
0
 10
-25.721
 11
-25.813
 20
-67.933
 21
-66.948
  0
LINE
  8
0
 10
-25.813
 11
-25.871
 20
-66.948
 21
-66.024
  0
LINE
  8
0
 10
-25.871
 11
-25.864
 20
-66.024
 21
-66.007
  0
LINE
  8
0
 10
-25.864
 11
-26.831
 20
-66.007
 21
-65.62
  0
LINE
  8
0
 10
-26.831
 11
-26.838
 20
-65.62
 21
-65.637
  0
LINE
  8
0
 10
-26.838
 11
-27.518
 20
-65.637
 21
-66.266
  0
LINE
  8
0
 10
-27.518
 11
-28.264
 20
-66.266
 21
-66.915
  0
LINE
  8
0
 10
-28.264
 11
-29.077
 20
-66.915
 21
-67.579
  0
LINE
  8
0
 10
-29.077
 11
-29.96
 20
-67.579
 21
-68.256
  0
LINE
  8
0
 10
-29.96
 11
-30.913
 20
-68.256
 21
-68.942
  0
LINE
  8
0
 10
-30.913
 11
-31.859
 20
-68.942
 21
-68.51
  0
LINE
  8
0
 10
-31.859
 11
-31.965
 20
-68.51
 21
-67.341
  0
LINE
  8
0
 10
-31.965
 11
-32.031
 20
-67.341
 21
-66.23
  0
LINE
  8
0
 10
-32.031
 11
-32.062
 20
-66.23
 21
-65.18
  0
LINE
  8
0
 10
-32.062
 11
-32.06
 20
-65.18
 21
-64.192
  0
LINE
  8
0
 10
-32.06
 11
-32.03
 20
-64.192
 21
-63.265
  0
LINE
  8
0
 10
-32.03
 11
-32.022
 20
-63.265
 21
-63.248
  0
LINE
  8
0
 10
-32.022
 11
-32.947
 20
-63.248
 21
-62.772
  0
LINE
  8
0
 10
-32.947
 11
-32.955
 20
-62.772
 21
-62.788
  0
LINE
  8
0
 10
-32.955
 11
-33.692
 20
-62.788
 21
-63.35
  0
LINE
  8
0
 10
-33.692
 11
-34.496
 20
-63.35
 21
-63.925
  0
LINE
  8
0
 10
-34.496
 11
-35.369
 20
-63.925
 21
-64.509
  0
LINE
  8
0
 10
-35.369
 11
-36.313
 20
-64.509
 21
-65.099
  0
LINE
  8
0
 10
-36.313
 11
-37.327
 20
-65.099
 21
-65.692
  0
LINE
  8
0
 10
-37.327
 11
-38.227
 20
-65.692
 21
-65.172
  0
LINE
  8
0
 10
-38.227
 11
-38.221
 20
-65.172
 21
-63.997
  0
LINE
  8
0
 10
-38.221
 11
-38.182
 20
-63.997
 21
-62.885
  0
LINE
  8
0
 10
-38.182
 11
-38.113
 20
-62.885
 21
-61.837
  0
LINE
  8
0
 10
-38.113
 11
-38.017
 20
-61.837
 21
-60.853
  0
LINE
  8
0
 10
-38.017
 11
-37.899
 20
-60.853
 21
-59.934
  0
LINE
  8
0
 10
-37.899
 11
-37.889
 20
-59.934
 21
-59.918
  0
LINE
  8
0
 10
-37.889
 11
-38.765
 20
-59.918
 21
-59.355
  0
LINE
  8
0
 10
-38.765
 11
-38.775
 20
-59.355
 21
-59.371
  0
LINE
  8
0
 10
-38.775
 11
-39.561
 20
-59.371
 21
-59.861
  0
LINE
  8
0
 10
-39.561
 11
-40.417
 20
-59.861
 21
-60.357
  0
LINE
  8
0
 10
-40.417
 11
-41.341
 20
-60.357
 21
-60.855
  0
LINE
  8
0
 10
-41.341
 11
-42.336
 20
-60.855
 21
-61.353
  0
LINE
  8
0
 10
-42.336
 11
-43.402
 20
-61.353
 21
-61.846
  0
LINE
  8
0
 10
-43.402
 11
-44.249
 20
-61.846
 21
-61.243
  0
LINE
  8
0
 10
-44.249
 11
-44.132
 20
-61.243
 21
-60.074
  0
LINE
  8
0
 10
-44.132
 11
-43.987
 20
-60.074
 21
-58.971
  0
LINE
  8
0
 10
-43.987
 11
-43.818
 20
-58.971
 21
-57.934
  0
LINE
  8
0
 10
-43.818
 11
-43.629
 20
-57.934
 21
-56.964
  0
LINE
  8
0
 10
-43.629
 11
-43.424
 20
-56.964
 21
-56.06
  0
LINE
  8
0
 10
-43.424
 11
-43.413
 20
-56.06
 21
-56.046
  0
LINE
  8
0
 10
-43.413
 11
-44.231
 20
-56.046
 21
-55.402
  0
LINE
  8
0
 10
-44.231
 11
-44.243
 20
-55.402
 21
-55.417
  0
LINE
  8
0
 10
-44.243
 11
-45.072
 20
-55.417
 21
-55.829
  0
LINE
  8
0
 10
-45.072
 11
-45.971
 20
-55.829
 21
-56.242
  0
LINE
  8
0
 10
-45.971
 11
-46.938
 20
-56.242
 21
-56.65
  0
LINE
  8
0
 10
-46.938
 11
-47.977
 20
-56.65
 21
-57.051
  0
LINE
  8
0
 10
-47.977
 11
-49.084
 20
-57.051
 21
-57.44
  0
LINE
  8
0
 10
-49.084
 11
-49.87
 20
-57.44
 21
-56.759
  0
LINE
  8
0
 10
-49.87
 11
-49.642
 20
-56.759
 21
-55.607
  0
LINE
  8
0
 10
-49.642
 11
-49.393
 20
-55.607
 21
-54.523
  0
LINE
  8
0
 10
-49.393
 11
-49.127
 20
-54.523
 21
-53.507
  0
LINE
  8
0
 10
-49.127
 11
-48.847
 20
-53.507
 21
-52.559
  0
LINE
  8
0
 10
-48.847
 11
-48.556
 20
-52.559
 21
-51.679
  0
LINE
  8
0
 10
-48.556
 11
-48.543
 20
-51.679
 21
-51.666
  0
LINE
  8
0
 10
-48.543
 11
-49.297
 20
-51.666
 21
-50.947
  0
LINE
  8
0
 10
-49.297
 11
-49.31
 20
-50.947
 21
-50.96
  0
LINE
  8
0
 10
-49.31
 11
-50.175
 20
-50.96
 21
-51.292
  0
LINE
  8
0
 10
-50.175
 11
-51.109
 20
-51.292
 21
-51.617
  0
LINE
  8
0
 10
-51.109
 11
-52.111
 20
-51.617
 21
-51.931
  0
LINE
  8
0
 10
-52.111
 11
-53.182
 20
-51.931
 21
-52.232
  0
LINE
  8
0
 10
-53.182
 11
-54.322
 20
-52.232
 21
-52.515
  0
LINE
  8
0
 10
-54.322
 11
-55.04
 20
-52.515
 21
-51.762
  0
LINE
  8
0
 10
-55.04
 11
-54.703
 20
-51.762
 21
-50.637
  0
LINE
  8
0
 10
-54.703
 11
-54.352
 20
-50.637
 21
-49.581
  0
LINE
  8
0
 10
-54.352
 11
-53.99
 20
-49.581
 21
-48.595
  0
LINE
  8
0
 10
-53.99
 11
-53.621
 20
-48.595
 21
-47.678
  0
LINE
  8
0
 10
-53.621
 11
-53.249
 20
-47.678
 21
-46.829
  0
LINE
  8
0
 10
-53.249
 11
-53.235
 20
-46.829
 21
-46.817
  0
LINE
  8
0
 10
-53.235
 11
-53.917
 20
-46.817
 21
-46.03
  0
LINE
  8
0
 10
-53.917
 11
-53.931
 20
-46.03
 21
-46.042
  0
LINE
  8
0
 10
-53.931
 11
-54.824
 20
-46.042
 21
-46.29
  0
LINE
  8
0
 10
-54.824
 11
-55.784
 20
-46.29
 21
-46.525
  0
LINE
  8
0
 10
-55.784
 11
-56.811
 20
-46.525
 21
-46.743
  0
LINE
  8
0
 10
-56.811
 11
-57.906
 20
-46.743
 21
-46.94
  0
LINE
  8
0
 10
-57.906
 11
-59.068
 20
-46.94
 21
-47.113
  0
LINE
  8
0
 10
-59.068
 11
-59.711
 20
-47.113
 21
-46.296
  0
LINE
  8
0
 10
-59.711
 11
-59.269
 20
-46.296
 21
-45.208
  0
LINE
  8
0
 10
-59.269
 11
-58.819
 20
-45.208
 21
-44.19
  0
LINE
  8
0
 10
-58.819
 11
-58.365
 20
-44.19
 21
-43.243
  0
LINE
  8
0
 10
-58.365
 11
-57.911
 20
-43.243
 21
-42.365
  0
LINE
  8
0
 10
-57.911
 11
-57.459
 20
-42.365
 21
-41.556
  0
LINE
  8
0
 10
-57.459
 11
-57.444
 20
-41.556
 21
-41.545
  0
LINE
  8
0
 10
-57.444
 11
-58.048
 20
-41.545
 21
-40.697
  0
LINE
  8
0
 10
-58.048
 11
-58.063
 20
-40.697
 21
-40.708
  0
LINE
  8
0
 10
-58.063
 11
-58.975
 20
-40.708
 21
-40.869
  0
LINE
  8
0
 10
-58.975
 11
-59.954
 20
-40.869
 21
-41.012
  0
LINE
  8
0
 10
-59.954
 11
-60.997
 20
-41.012
 21
-41.131
  0
LINE
  8
0
 10
-60.997
 11
-62.106
 20
-41.131
 21
-41.223
  0
LINE
  8
0
 10
-62.106
 11
-63.279
 20
-41.223
 21
-41.285
  0
LINE
  8
0
 10
-63.279
 11
-63.841
 20
-41.285
 21
-40.41
  0
LINE
  8
0
 10
-63.841
 11
-63.298
 20
-40.41
 21
-39.369
  0
LINE
  8
0
 10
-63.298
 11
-62.753
 20
-39.369
 21
-38.398
  0
LINE
  8
0
 10
-62.753
 11
-62.211
 20
-38.398
 21
-37.499
  0
LINE
  8
0
 10
-62.211
 11
-61.675
 20
-37.499
 21
-36.668
  0
LINE
  8
0
 10
-61.675
 11
-61.149
 20
-36.668
 21
-35.906
  0
LINE
  8
0
 10
-61.149
 11
-61.133
 20
-35.906
 21
-35.897
  0
LINE
  8
0
 10
-61.133
 11
-61.654
 20
-35.897
 21
-34.995
  0
LINE
  8
0
 10
-61.654
 11
-61.67
 20
-34.995
 21
-35.004
  0
LINE
  8
0
 10
-61.67
 11
-62.593
 20
-35.004
 21
-35.078
  0
LINE
  8
0
 10
-62.593
 11
-63.581
 20
-35.078
 21
-35.127
  0
LINE
  8
0
 10
-63.581
 11
-64.631
 20
-35.127
 21
-35.146
  0
LINE
  8
0
 10
-64.631
 11
-65.743
 20
-35.146
 21
-35.133
  0
LINE
  8
0
 10
-65.743
 11
-66.917
 20
-35.133
 21
-35.083
  0
LINE
  8
0
 10
-66.917
 11
-67.393
 20
-35.083
 21
-34.159
  0
LINE
  8
0
 10
-67.393
 11
-66.753
 20
-34.159
 21
-33.174
  0
LINE
  8
0
 10
-66.753
 11
-66.119
 20
-33.174
 21
-32.26
  0
LINE
  8
0
 10
-66.119
 11
-65.494
 20
-32.26
 21
-31.415
  0
LINE
  8
0
 10
-65.494
 11
-64.882
 20
-31.415
 21
-30.64
  0
LINE
  8
0
 10
-64.882
 11
-64.285
 20
-30.64
 21
-29.93
  0
LINE
  8
0
 10
-64.285
 11
-64.269
 20
-29.93
 21
-29.923
  0
LINE
  8
0
 10
-64.269
 11
-64.701
 20
-29.923
 21
-28.976
  0
LINE
  8
0
 10
-64.701
 11
-64.718
 20
-28.976
 21
-28.983
  0
LINE
  8
0
 10
-64.718
 11
-65.644
 20
-28.983
 21
-28.97
  0
LINE
  8
0
 10
-65.644
 11
-66.632
 20
-28.97
 21
-28.924
  0
LINE
  8
0
 10
-66.632
 11
-67.679
 20
-28.924
 21
-28.844
  0
LINE
  8
0
 10
-67.679
 11
-68.785
 20
-28.844
 21
-28.725
  0
LINE
  8
0
 10
-68.785
 11
-69.949
 20
-28.725
 21
-28.563
  0
LINE
  8
0
 10
-69.949
 11
-70.335
 20
-28.563
 21
-27.598
  0
LINE
  8
0
 10
-70.335
 11
-69.605
 20
-27.598
 21
-26.678
  0
LINE
  8
0
 10
-69.605
 11
-68.886
 20
-26.678
 21
-25.828
  0
LINE
  8
0
 10
-68.886
 11
-68.184
 20
-25.828
 21
-25.048
  0
LINE
  8
0
 10
-68.184
 11
-67.5
 20
-25.048
 21
-24.333
  0
LINE
  8
0
 10
-67.5
 11
-66.839
 20
-24.333
 21
-23.684
  0
LINE
  8
0
 10
-66.839
 11
-66.822
 20
-23.684
 21
-23.678
  0
LINE
  8
0
 10
-66.822
 11
-67.162
 20
-23.678
 21
-22.694
  0
LINE
  8
0
 10
-67.162
 11
-67.18
 20
-22.694
 21
-22.7
  0
LINE
  8
0
 10
-67.18
 11
-68.101
 20
-22.7
 21
-22.599
  0
LINE
  8
0
 10
-68.101
 11
-69.08
 20
-22.599
 21
-22.46
  0
LINE
  8
0
 10
-69.08
 11
-70.114
 20
-22.46
 21
-22.28
  0
LINE
  8
0
 10
-70.114
 11
-71.204
 20
-22.28
 21
-22.056
  0
LINE
  8
0
 10
-71.204
 11
-72.347
 20
-22.056
 21
-21.785
  0
LINE
  8
0
 10
-72.347
 11
-72.64
 20
-21.785
 21
-20.787
  0
LINE
  8
0
 10
-72.64
 11
-71.825
 20
-20.787
 21
-19.941
  0
LINE
  8
0
 10
-71.825
 11
-71.029
 20
-19.941
 21
-19.163
  0
LINE
  8
0
 10
-71.029
 11
-70.256
 20
-19.163
 21
-18.453
  0
LINE
  8
0
 10
-70.256
 11
-69.508
 20
-18.453
 21
-17.807
  0
LINE
  8
0
 10
-69.508
 11
-68.788
 20
-17.807
 21
-17.223
  0
LINE
  8
0
 10
-68.788
 11
-68.77
 20
-17.223
 21
-17.219
  0
LINE
  8
0
 10
-68.77
 11
-69.016
 20
-17.219
 21
-16.208
  0
LINE
  8
0
 10
-69.016
 11
-69.033
 20
-16.208
 21
-16.212
  0
LINE
  8
0
 10
-69.033
 11
-69.941
 20
-16.212
 21
-16.023
  0
LINE
  8
0
 10
-69.941
 11
-70.902
 20
-16.023
 21
-15.792
  0
LINE
  8
0
 10
-70.902
 11
-71.914
 20
-15.792
 21
-15.514
  0
LINE
  8
0
 10
-71.914
 11
-72.979
 20
-15.514
 21
-15.188
  0
LINE
  8
0
 10
-72.979
 11
-74.09
 20
-15.188
 21
-14.809
  0
LINE
  8
0
 10
-74.09
 11
-74.287
 20
-14.809
 21
-13.788
  0
LINE
  8
0
 10
-74.287
 11
-73.396
 20
-13.788
 21
-13.024
  0
LINE
  8
0
 10
-73.396
 11
-72.529
 20
-13.024
 21
-12.325
  0
LINE
  8
0
 10
-72.529
 11
-71.692
 20
-12.325
 21
-11.691
  0
LINE
  8
0
 10
-71.692
 11
-70.886
 20
-11.691
 21
-11.119
  0
LINE
  8
0
 10
-70.886
 11
-70.114
 20
-11.119
 21
-10.607
  0
LINE
  8
0
 10
-70.114
 11
-70.095
 20
-10.607
 21
-10.604
  0
LINE
  8
0
 10
-70.095
 11
-70.244
 20
-10.604
 21
-9.574
  0
LINE
  8
0
 10
-70.244
 11
-70.262
 20
-9.574
 21
-9.576
  0
LINE
  8
0
 10
-70.262
 11
-71.147
 20
-9.576
 21
-9.302
  0
LINE
  8
0
 10
-71.147
 11
-72.082
 20
-9.302
 21
-8.98
  0
LINE
  8
0
 10
-72.082
 11
-73.064
 20
-8.98
 21
-8.608
  0
LINE
  8
0
 10
-73.064
 11
-74.092
 20
-8.608
 21
-8.182
  0
LINE
  8
0
 10
-74.092
 11
-75.162
 20
-8.182
 21
-7.7
  0
LINE
  8
0
 10
-75.162
 11
-75.261
 20
-7.7
 21
-6.664
  0
LINE
  8
0
 10
-75.261
 11
-74.301
 20
-6.664
 21
-5.988
  0
LINE
  8
0
 10
-74.301
 11
-73.372
 20
-5.988
 21
-5.375
  0
LINE
  8
0
 10
-73.372
 11
-72.479
 20
-5.375
 21
-4.823
  0
LINE
  8
0
 10
-72.479
 11
-71.622
 20
-4.823
 21
-4.331
  0
LINE
  8
0
 10
-71.622
 11
-70.804
 20
-4.331
 21
-3.894
  0
LINE
  8
0
 10
-70.804
 11
-70.786
 20
-3.894
 21
-3.893
  0
LINE
  8
0
 10
-70.786
 11
-70.836
 20
-3.893
 21
-2.853
  0
LINE
  8
0
 10
-70.836
 11
-70.854
 20
-2.853
 21
-2.854
  0
LINE
  8
0
 10
-70.854
 11
-71.709
 20
-2.854
 21
-2.497
  0
LINE
  8
0
 10
-71.709
 11
-72.609
 20
-2.497
 21
-2.088
  0
LINE
  8
0
 10
-72.609
 11
-73.551
 20
-2.088
 21
-1.624
  0
LINE
  8
0
 10
-73.551
 11
-74.534
 20
-1.624
 21
-1.102
  0
LINE
  8
0
 10
-74.534
 11
-75.554
 20
-1.102
 21
-0.52
  0
LINE
  8
0
 10
-2.5
 11
-1.768
 20
0
 21
1.768
  0
LINE
  8
0
 10
-1.768
 11
0
 20
1.768
 21
2.5
  0
LINE
  8
0
 10
0
 11
1.768
 20
2.5
 21
1.768
  0
LINE
  8
0
 10
1.768
 11
2.5
 20
1.768
 21
0
  0
LINE
  8
0
 10
2.5
 11
1.879
 20
0
 21
-1.5
  0
LINE
  8
0
 10
1.879
 11
-1.879
 20
-1.5
 21
-1.5
  0
LINE
  8
0
 10
-1.879
 11
-2.5
 20
-1.5
 21
0
  0
ENDSEC
  0
SECTION
  2
OBJECTS
  0
DICTIONARY
  0
ENDSEC
  0
EOF
