  0
SECTION
  2
BLOCKS
  0
ENDSEC
  0
SECTION
  2
ENTITIES
  0
LINE
  8
0
 10
-18.553
 11
-17.346
 20
-3.545
 21
-2.329
  0
LINE
  8
0
 10
-17.346
 11
-16.268
 20
-2.329
 21
-1.545
  0
LINE
  8
0
 10
-16.268
 11
-15.419
 20
-1.545
 21
-1.115
  0
LINE
  8
0
 10
-15.419
 11
-14.876
 20
-1.115
 21
-0.939
  0
LINE
  8
0
 10
-14.876
 11
-14.687
 20
-0.939
 21
-0.907
  0
LINE
  8
0
 10
-14.687
 11
-14.166
 20
-0.907
 21
-0.875
  0
LINE
  8
0
 10
-14.166
 11
-14.166
 20
-0.875
 21
0.875
  0
LINE
  8
0
 10
-14.166
 11
-14.687
 20
0.875
 21
0.907
  0
LINE
  8
0
 10
-14.687
 11
-14.876
 20
0.907
 21
0.939
  0
LINE
  8
0
 10
-14.876
 11
-15.419
 20
0.939
 21
1.115
  0
LINE
  8
0
 10
-15.419
 11
-16.268
 20
1.115
 21
1.545
  0
LINE
  8
0
 10
-16.268
 11
-17.346
 20
1.545
 21
2.329
  0
LINE
  8
0
 10
-17.346
 11
-18.553
 20
2.329
 21
3.545
  0
LINE
  8
0
 10
-18.553
 11
-18.391
 20
3.545
 21
4.308
  0
LINE
  8
0
 10
-18.391
 11
-16.794
 20
4.308
 21
4.927
  0
LINE
  8
0
 10
-16.794
 11
-15.49
 20
4.927
 21
5.205
  0
LINE
  8
0
 10
-15.49
 11
-14.54
 20
5.205
 21
5.253
  0
LINE
  8
0
 10
-14.54
 11
-13.972
 20
5.253
 21
5.192
  0
LINE
  8
0
 10
-13.972
 11
-13.787
 20
5.192
 21
5.145
  0
LINE
  8
0
 10
-13.787
 11
-13.298
 20
5.145
 21
4.962
  0
LINE
  8
0
 10
-13.298
 11
-12.586
 20
4.962
 21
6.562
  0
LINE
  8
0
 10
-12.586
 11
-13.048
 20
6.562
 21
6.803
  0
LINE
  8
0
 10
-13.048
 11
-13.208
 20
6.803
 21
6.909
  0
LINE
  8
0
 10
-13.208
 11
-13.632
 20
6.909
 21
7.29
  0
LINE
  8
0
 10
-13.632
 11
-14.233
 20
7.29
 21
8.028
  0
LINE
  8
0
 10
-14.233
 11
-14.899
 20
8.028
 21
9.183
  0
LINE
  8
0
 10
-14.899
 11
-15.508
 20
9.183
 21
10.785
  0
LINE
  8
0
 10
-15.508
 11
-15.049
 20
10.785
 21
11.416
  0
LINE
  8
0
 10
-15.049
 11
-13.338
 20
11.416
 21
11.332
  0
LINE
  8
0
 10
-13.338
 11
-12.034
 20
11.332
 21
11.056
  0
LINE
  8
0
 10
-12.034
 11
-11.146
 20
11.056
 21
10.712
  0
LINE
  8
0
 10
-11.146
 11
-10.652
 20
10.712
 21
10.426
  0
LINE
  8
0
 10
-10.652
 11
-10.502
 20
10.426
 21
10.308
  0
LINE
  8
0
 10
-10.502
 11
-10.129
 20
10.308
 21
9.942
  0
LINE
  8
0
 10
-10.129
 11
-8.828
 20
9.942
 21
11.113
  0
LINE
  8
0
 10
-8.828
 11
-9.153
 20
11.113
 21
11.522
  0
LINE
  8
0
 10
-9.153
 11
-9.256
 20
11.522
 21
11.683
  0
LINE
  8
0
 10
-9.256
 11
-9.489
 20
11.683
 21
12.205
  0
LINE
  8
0
 10
-9.489
 11
-9.737
 20
12.205
 21
13.124
  0
LINE
  8
0
 10
-9.737
 11
-9.876
 20
13.124
 21
14.449
  0
LINE
  8
0
 10
-9.876
 11
-9.78
 20
14.449
 21
16.16
  0
LINE
  8
0
 10
-9.78
 11
-9.105
 20
16.16
 21
16.55
  0
LINE
  8
0
 10
-9.105
 11
-7.575
 20
16.55
 21
15.777
  0
LINE
  8
0
 10
-7.575
 11
-6.497
 20
15.777
 21
14.995
  0
LINE
  8
0
 10
-6.497
 11
-5.825
 20
14.995
 21
14.32
  0
LINE
  8
0
 10
-5.825
 11
-5.49
 20
14.32
 21
13.857
  0
LINE
  8
0
 10
-5.49
 11
-5.402
 20
13.857
 21
13.688
  0
LINE
  8
0
 10
-5.402
 11
-5.21
 20
13.688
 21
13.203
  0
LINE
  8
0
 10
-5.21
 11
-3.546
 20
13.203
 21
13.743
  0
LINE
  8
0
 10
-3.546
 11
-3.676
 20
13.743
 21
14.249
  0
LINE
  8
0
 10
-3.676
 11
-3.703
 20
14.249
 21
14.438
  0
LINE
  8
0
 10
-3.703
 11
-3.704
 20
14.438
 21
15.009
  0
LINE
  8
0
 10
-3.704
 11
-3.558
 20
15.009
 21
15.949
  0
LINE
  8
0
 10
-3.558
 11
-3.145
 20
15.949
 21
17.217
  0
LINE
  8
0
 10
-3.145
 11
-2.362
 20
17.217
 21
18.741
  0
LINE
  8
0
 10
-2.362
 11
-1.586
 20
18.741
 21
18.822
  0
LINE
  8
0
 10
-1.586
 11
-0.503
 20
18.822
 21
17.494
  0
LINE
  8
0
 10
-0.503
 11
0.164
 20
17.494
 21
16.341
  0
LINE
  8
0
 10
0.164
 11
0.503
 20
16.341
 21
15.451
  0
LINE
  8
0
 10
0.503
 11
0.621
 20
15.451
 21
14.892
  0
LINE
  8
0
 10
0.621
 11
0.633
 20
14.892
 21
14.702
  0
LINE
  8
0
 10
0.633
 11
0.611
 20
14.702
 21
14.18
  0
LINE
  8
0
 10
0.611
 11
2.351
 20
14.18
 21
13.997
  0
LINE
  8
0
 10
2.351
 11
2.438
 20
13.997
 21
14.512
  0
LINE
  8
0
 10
2.438
 11
2.489
 20
14.512
 21
14.696
  0
LINE
  8
0
 10
2.489
 11
2.721
 20
14.696
 21
15.218
  0
LINE
  8
0
 10
2.721
 11
3.237
 20
15.218
 21
16.018
  0
LINE
  8
0
 10
3.237
 11
4.13
 20
16.018
 21
17.007
  0
LINE
  8
0
 10
4.13
 11
5.465
 20
17.007
 21
18.081
  0
LINE
  8
0
 10
5.465
 11
6.207
 20
18.081
 21
17.84
  0
LINE
  8
0
 10
6.207
 11
6.656
 20
17.84
 21
16.187
  0
LINE
  8
0
 10
6.656
 11
6.796
 20
16.187
 21
14.861
  0
LINE
  8
0
 10
6.796
 11
6.744
 20
14.861
 21
13.911
  0
LINE
  8
0
 10
6.744
 11
6.624
 20
13.911
 21
13.352
  0
LINE
  8
0
 10
6.624
 11
6.558
 20
13.352
 21
13.173
  0
LINE
  8
0
 10
6.558
 11
6.326
 20
13.173
 21
12.706
  0
LINE
  8
0
 10
6.326
 11
7.841
 20
12.706
 21
11.83
  0
LINE
  8
0
 10
7.841
 11
8.13
 20
11.83
 21
12.266
  0
LINE
  8
0
 10
8.13
 11
8.251
 20
12.266
 21
12.413
  0
LINE
  8
0
 10
8.251
 11
8.675
 20
12.413
 21
12.796
  0
LINE
  8
0
 10
8.675
 11
9.472
 20
12.796
 21
13.316
  0
LINE
  8
0
 10
9.472
 11
10.69
 20
13.316
 21
13.857
  0
LINE
  8
0
 10
10.69
 11
12.347
 20
13.857
 21
14.295
  0
LINE
  8
0
 10
12.347
 11
12.926
 20
14.295
 21
13.773
  0
LINE
  8
0
 10
12.926
 11
12.664
 20
13.773
 21
12.08
  0
LINE
  8
0
 10
12.664
 11
12.253
 20
12.08
 21
10.812
  0
LINE
  8
0
 10
12.253
 11
11.819
 20
10.812
 21
9.965
  0
LINE
  8
0
 10
11.819
 11
11.483
 20
9.965
 21
9.504
  0
LINE
  8
0
 10
11.483
 11
11.349
 20
9.504
 21
9.367
  0
LINE
  8
0
 10
11.349
 11
10.947
 20
9.367
 21
9.035
  0
LINE
  8
0
 10
10.947
 11
11.975
 20
9.035
 21
7.619
  0
LINE
  8
0
 10
11.975
 11
12.416
 20
7.619
 21
7.899
  0
LINE
  8
0
 10
12.416
 11
12.587
 20
7.899
 21
7.984
  0
LINE
  8
0
 10
12.587
 11
13.13
 20
7.984
 21
8.161
  0
LINE
  8
0
 10
13.13
 11
14.069
 20
8.161
 21
8.312
  0
LINE
  8
0
 10
14.069
 11
15.402
 20
8.312
 21
8.311
  0
LINE
  8
0
 10
15.402
 11
17.094
 20
8.311
 21
8.038
  0
LINE
  8
0
 10
17.094
 11
17.411
 20
8.038
 21
7.325
  0
LINE
  8
0
 10
17.411
 11
16.482
 20
7.325
 21
5.885
  0
LINE
  8
0
 10
16.482
 11
15.592
 20
5.885
 21
4.894
  0
LINE
  8
0
 10
15.592
 11
14.85
 20
4.894
 21
4.297
  0
LINE
  8
0
 10
14.85
 11
14.355
 20
4.297
 21
4.012
  0
LINE
  8
0
 10
14.355
 11
14.178
 20
4.012
 21
3.941
  0
LINE
  8
0
 10
14.178
 11
13.675
 20
3.941
 21
3.801
  0
LINE
  8
0
 10
13.675
 11
14.038
 20
3.801
 21
2.089
  0
LINE
  8
0
 10
14.038
 11
14.555
 20
2.089
 21
2.166
  0
LINE
  8
0
 10
14.555
 11
14.746
 20
2.166
 21
2.174
  0
LINE
  8
0
 10
14.746
 11
15.314
 20
2.174
 21
2.115
  0
LINE
  8
0
 10
15.314
 11
16.234
 20
2.115
 21
1.871
  0
LINE
  8
0
 10
16.234
 11
17.451
 20
1.871
 21
1.328
  0
LINE
  8
0
 10
17.451
 11
18.885
 20
1.328
 21
0.39
  0
LINE
  8
0
 10
18.885
 11
18.885
 20
0.39
 21
-0.39
  0
LINE
  8
0
 10
18.885
 11
17.451
 20
-0.39
 21
-1.328
  0
LINE
  8
0
 10
17.451
 11
16.234
 20
-1.328
 21
-1.871
  0
LINE
  8
0
 10
16.234
 11
15.314
 20
-1.871
 21
-2.115
  0
LINE
  8
0
 10
15.314
 11
14.746
 20
-2.115
 21
-2.174
  0
LINE
  8
0
 10
14.746
 11
14.555
 20
-2.174
 21
-2.166
  0
LINE
  8
0
 10
14.555
 11
14.038
 20
-2.166
 21
-2.089
  0
LINE
  8
0
 10
14.038
 11
13.675
 20
-2.089
 21
-3.801
  0
LINE
  8
0
 10
13.675
 11
14.178
 20
-3.801
 21
-3.941
  0
LINE
  8
0
 10
14.178
 11
14.355
 20
-3.941
 21
-4.012
  0
LINE
  8
0
 10
14.355
 11
14.85
 20
-4.012
 21
-4.297
  0
LINE
  8
0
 10
14.85
 11
15.592
 20
-4.297
 21
-4.894
  0
LINE
  8
0
 10
15.592
 11
16.482
 20
-4.894
 21
-5.885
  0
LINE
  8
0
 10
16.482
 11
17.411
 20
-5.885
 21
-7.325
  0
LINE
  8
0
 10
17.411
 11
17.094
 20
-7.325
 21
-8.038
  0
LINE
  8
0
 10
17.094
 11
15.402
 20
-8.038
 21
-8.311
  0
LINE
  8
0
 10
15.402
 11
14.069
 20
-8.311
 21
-8.312
  0
LINE
  8
0
 10
14.069
 11
13.13
 20
-8.312
 21
-8.161
  0
LINE
  8
0
 10
13.13
 11
12.587
 20
-8.161
 21
-7.984
  0
LINE
  8
0
 10
12.587
 11
12.416
 20
-7.984
 21
-7.899
  0
LINE
  8
0
 10
12.416
 11
11.976
 20
-7.899
 21
-7.619
  0
LINE
  8
0
 10
11.976
 11
10.946
 20
-7.619
 21
-9.035
  0
LINE
  8
0
 10
10.946
 11
11.349
 20
-9.035
 21
-9.367
  0
LINE
  8
0
 10
11.349
 11
11.483
 20
-9.367
 21
-9.504
  0
LINE
  8
0
 10
11.483
 11
11.819
 20
-9.504
 21
-9.965
  0
LINE
  8
0
 10
11.819
 11
12.253
 20
-9.965
 21
-10.812
  0
LINE
  8
0
 10
12.253
 11
12.664
 20
-10.812
 21
-12.08
  0
LINE
  8
0
 10
12.664
 11
12.926
 20
-12.08
 21
-13.773
  0
LINE
  8
0
 10
12.926
 11
12.347
 20
-13.773
 21
-14.295
  0
LINE
  8
0
 10
12.347
 11
10.69
 20
-14.295
 21
-13.857
  0
LINE
  8
0
 10
10.69
 11
9.472
 20
-13.857
 21
-13.316
  0
LINE
  8
0
 10
9.472
 11
8.675
 20
-13.316
 21
-12.796
  0
LINE
  8
0
 10
8.675
 11
8.251
 20
-12.796
 21
-12.413
  0
LINE
  8
0
 10
8.251
 11
8.13
 20
-12.413
 21
-12.266
  0
LINE
  8
0
 10
8.13
 11
7.841
 20
-12.266
 21
-11.83
  0
LINE
  8
0
 10
7.841
 11
6.326
 20
-11.83
 21
-12.706
  0
LINE
  8
0
 10
6.326
 11
6.558
 20
-12.706
 21
-13.173
  0
LINE
  8
0
 10
6.558
 11
6.624
 20
-13.173
 21
-13.352
  0
LINE
  8
0
 10
6.624
 11
6.744
 20
-13.352
 21
-13.911
  0
LINE
  8
0
 10
6.744
 11
6.796
 20
-13.911
 21
-14.861
  0
LINE
  8
0
 10
6.796
 11
6.656
 20
-14.861
 21
-16.187
  0
LINE
  8
0
 10
6.656
 11
6.207
 20
-16.187
 21
-17.84
  0
LINE
  8
0
 10
6.207
 11
5.465
 20
-17.84
 21
-18.081
  0
LINE
  8
0
 10
5.465
 11
4.13
 20
-18.081
 21
-17.007
  0
LINE
  8
0
 10
4.13
 11
3.237
 20
-17.007
 21
-16.018
  0
LINE
  8
0
 10
3.237
 11
2.721
 20
-16.018
 21
-15.218
  0
LINE
  8
0
 10
2.721
 11
2.489
 20
-15.218
 21
-14.696
  0
LINE
  8
0
 10
2.489
 11
2.438
 20
-14.696
 21
-14.512
  0
LINE
  8
0
 10
2.438
 11
2.351
 20
-14.512
 21
-13.997
  0
LINE
  8
0
 10
2.351
 11
0.611
 20
-13.997
 21
-14.18
  0
LINE
  8
0
 10
0.611
 11
0.633
 20
-14.18
 21
-14.702
  0
LINE
  8
0
 10
0.633
 11
0.621
 20
-14.702
 21
-14.892
  0
LINE
  8
0
 10
0.621
 11
0.503
 20
-14.892
 21
-15.451
  0
LINE
  8
0
 10
0.503
 11
0.164
 20
-15.451
 21
-16.341
  0
LINE
  8
0
 10
0.164
 11
-0.503
 20
-16.341
 21
-17.494
  0
LINE
  8
0
 10
-0.503
 11
-1.586
 20
-17.494
 21
-18.822
  0
LINE
  8
0
 10
-1.586
 11
-2.362
 20
-18.822
 21
-18.741
  0
LINE
  8
0
 10
-2.362
 11
-3.145
 20
-18.741
 21
-17.217
  0
LINE
  8
0
 10
-3.145
 11
-3.558
 20
-17.217
 21
-15.949
  0
LINE
  8
0
 10
-3.558
 11
-3.704
 20
-15.949
 21
-15.009
  0
LINE
  8
0
 10
-3.704
 11
-3.703
 20
-15.009
 21
-14.438
  0
LINE
  8
0
 10
-3.703
 11
-3.676
 20
-14.438
 21
-14.249
  0
LINE
  8
0
 10
-3.676
 11
-3.546
 20
-14.249
 21
-13.743
  0
LINE
  8
0
 10
-3.546
 11
-5.21
 20
-13.743
 21
-13.203
  0
LINE
  8
0
 10
-5.21
 11
-5.402
 20
-13.203
 21
-13.688
  0
LINE
  8
0
 10
-5.402
 11
-5.49
 20
-13.688
 21
-13.857
  0
LINE
  8
0
 10
-5.49
 11
-5.825
 20
-13.857
 21
-14.32
  0
LINE
  8
0
 10
-5.825
 11
-6.497
 20
-14.32
 21
-14.995
  0
LINE
  8
0
 10
-6.497
 11
-7.575
 20
-14.995
 21
-15.777
  0
LINE
  8
0
 10
-7.575
 11
-9.105
 20
-15.777
 21
-16.55
  0
LINE
  8
0
 10
-9.105
 11
-9.78
 20
-16.55
 21
-16.16
  0
LINE
  8
0
 10
-9.78
 11
-9.876
 20
-16.16
 21
-14.449
  0
LINE
  8
0
 10
-9.876
 11
-9.737
 20
-14.449
 21
-13.124
  0
LINE
  8
0
 10
-9.737
 11
-9.489
 20
-13.124
 21
-12.205
  0
LINE
  8
0
 10
-9.489
 11
-9.256
 20
-12.205
 21
-11.683
  0
LINE
  8
0
 10
-9.256
 11
-9.153
 20
-11.683
 21
-11.522
  0
LINE
  8
0
 10
-9.153
 11
-8.828
 20
-11.522
 21
-11.113
  0
LINE
  8
0
 10
-8.828
 11
-10.13
 20
-11.113
 21
-9.943
  0
LINE
  8
0
 10
-10.13
 11
-10.502
 20
-9.943
 21
-10.308
  0
LINE
  8
0
 10
-10.502
 11
-10.652
 20
-10.308
 21
-10.426
  0
LINE
  8
0
 10
-10.652
 11
-11.146
 20
-10.426
 21
-10.712
  0
LINE
  8
0
 10
-11.146
 11
-12.034
 20
-10.712
 21
-11.056
  0
LINE
  8
0
 10
-12.034
 11
-13.338
 20
-11.056
 21
-11.332
  0
LINE
  8
0
 10
-13.338
 11
-15.049
 20
-11.332
 21
-11.416
  0
LINE
  8
0
 10
-15.049
 11
-15.508
 20
-11.416
 21
-10.785
  0
LINE
  8
0
 10
-15.508
 11
-14.899
 20
-10.785
 21
-9.183
  0
LINE
  8
0
 10
-14.899
 11
-14.233
 20
-9.183
 21
-8.028
  0
LINE
  8
0
 10
-14.233
 11
-13.632
 20
-8.028
 21
-7.29
  0
LINE
  8
0
 10
-13.632
 11
-13.208
 20
-7.29
 21
-6.909
  0
LINE
  8
0
 10
-13.208
 11
-13.048
 20
-6.909
 21
-6.803
  0
LINE
  8
0
 10
-13.048
 11
-12.585
 20
-6.803
 21
-6.562
  0
LINE
  8
0
 10
-12.585
 11
-13.298
 20
-6.562
 21
-4.962
  0
LINE
  8
0
 10
-13.298
 11
-13.787
 20
-4.962
 21
-5.145
  0
LINE
  8
0
 10
-13.787
 11
-13.972
 20
-5.145
 21
-5.192
  0
LINE
  8
0
 10
-13.972
 11
-14.54
 20
-5.192
 21
-5.253
  0
LINE
  8
0
 10
-14.54
 11
-15.49
 20
-5.253
 21
-5.205
  0
LINE
  8
0
 10
-15.49
 11
-16.794
 20
-5.205
 21
-4.927
  0
LINE
  8
0
 10
-16.794
 11
-18.391
 20
-4.927
 21
-4.308
  0
LINE
  8
0
 10
-18.391
 11
-18.553
 20
-4.308
 21
-3.545
  0
LINE
  8
0
 10
-2.5
 11
-1.768
 20
0
 21
1.768
  0
LINE
  8
0
 10
-1.768
 11
0
 20
1.768
 21
2.5
  0
LINE
  8
0
 10
0
 11
1.768
 20
2.5
 21
1.768
  0
LINE
  8
0
 10
1.768
 11
2.5
 20
1.768
 21
0
  0
LINE
  8
0
 10
2.5
 11
1.879
 20
0
 21
-1.5
  0
LINE
  8
0
 10
1.879
 11
-1.879
 20
-1.5
 21
-1.5
  0
LINE
  8
0
 10
-1.879
 11
-2.5
 20
-1.5
 21
0
  0
ENDSEC
  0
SECTION
  2
OBJECTS
  0
DICTIONARY
  0
ENDSEC
  0
EOF
