  0
SECTION
  2
BLOCKS
  0
ENDSEC
  0
SECTION
  2
ENTITIES
  0
LINE
  8
0
 10
-28.3125
 20
23.3092
 11
-27.9467
 21
23.6162
  0
LINE
  8
0
 10
-27.9467
 20
23.6162
 11
-27.7079
 21
24.0297
  0
LINE
  8
0
 10
-27.7079
 20
24.0297
 11
-27.625
 21
24.5
  0
LINE
  8
0
 10
-27.625
 20
24.5
 11
-27.7079
 21
24.9703
  0
LINE
  8
0
 10
-27.7079
 20
24.9703
 11
-27.9467
 21
25.3838
  0
LINE
  8
0
 10
-27.9467
 20
25.3838
 11
-28.3125
 21
25.6908
  0
LINE
  8
0
 10
-28.3125
 20
25.6908
 11
-28.7612
 21
25.8541
  0
LINE
  8
0
 10
-28.7612
 20
25.8541
 11
-29.2388
 21
25.8541
  0
LINE
  8
0
 10
-29.2388
 20
25.8541
 11
-29.6875
 21
25.6908
  0
LINE
  8
0
 10
-29.6875
 20
25.6908
 11
-30.0533
 21
25.3838
  0
LINE
  8
0
 10
-30.0533
 20
25.3838
 11
-30.2921
 21
24.9703
  0
LINE
  8
0
 10
-30.2921
 20
24.9703
 11
-30.375
 21
24.5
  0
LINE
  8
0
 10
-30.375
 20
24.5
 11
-30.2921
 21
24.0297
  0
LINE
  8
0
 10
-30.2921
 20
24.0297
 11
-30.0533
 21
23.6162
  0
LINE
  8
0
 10
-30.0533
 20
23.6162
 11
-29.6875
 21
23.3092
  0
LINE
  8
0
 10
-29.6875
 20
23.3092
 11
-29.2388
 21
23.1459
  0
LINE
  8
0
 10
-29.2388
 20
23.1459
 11
-28.7612
 21
23.1459
  0
LINE
  8
0
 10
-28.7612
 20
23.1459
 11
-28.3125
 21
23.3092
  0
LINE
  8
0
 10
29.6875
 20
23.3092
 11
30.0533
 21
23.6162
  0
LINE
  8
0
 10
30.0533
 20
23.6162
 11
30.2921
 21
24.0297
  0
LINE
  8
0
 10
30.2921
 20
24.0297
 11
30.375
 21
24.5
  0
LINE
  8
0
 10
30.375
 20
24.5
 11
30.2921
 21
24.9703
  0
LINE
  8
0
 10
30.2921
 20
24.9703
 11
30.0533
 21
25.3838
  0
LINE
  8
0
 10
30.0533
 20
25.3838
 11
29.6875
 21
25.6908
  0
LINE
  8
0
 10
29.6875
 20
25.6908
 11
29.2388
 21
25.8541
  0
LINE
  8
0
 10
29.2388
 20
25.8541
 11
28.7612
 21
25.8541
  0
LINE
  8
0
 10
28.7612
 20
25.8541
 11
28.3125
 21
25.6908
  0
LINE
  8
0
 10
28.3125
 20
25.6908
 11
27.9467
 21
25.3838
  0
LINE
  8
0
 10
27.9467
 20
25.3838
 11
27.7079
 21
24.9703
  0
LINE
  8
0
 10
27.7079
 20
24.9703
 11
27.625
 21
24.5
  0
LINE
  8
0
 10
27.625
 20
24.5
 11
27.7079
 21
24.0297
  0
LINE
  8
0
 10
27.7079
 20
24.0297
 11
27.9467
 21
23.6162
  0
LINE
  8
0
 10
27.9467
 20
23.6162
 11
28.3125
 21
23.3092
  0
LINE
  8
0
 10
28.3125
 20
23.3092
 11
28.7612
 21
23.1459
  0
LINE
  8
0
 10
28.7612
 20
23.1459
 11
29.2388
 21
23.1459
  0
LINE
  8
0
 10
29.2388
 20
23.1459
 11
29.6875
 21
23.3092
  0
LINE
  8
0
 10
-28.3125
 20
-25.6908
 11
-27.9467
 21
-25.3838
  0
LINE
  8
0
 10
-27.9467
 20
-25.3838
 11
-27.7079
 21
-24.9703
  0
LINE
  8
0
 10
-27.7079
 20
-24.9703
 11
-27.625
 21
-24.5
  0
LINE
  8
0
 10
-27.625
 20
-24.5
 11
-27.7079
 21
-24.0297
  0
LINE
  8
0
 10
-27.7079
 20
-24.0297
 11
-27.9467
 21
-23.6162
  0
LINE
  8
0
 10
-27.9467
 20
-23.6162
 11
-28.3125
 21
-23.3092
  0
LINE
  8
0
 10
-28.3125
 20
-23.3092
 11
-28.7612
 21
-23.1459
  0
LINE
  8
0
 10
-28.7612
 20
-23.1459
 11
-29.2388
 21
-23.1459
  0
LINE
  8
0
 10
-29.2388
 20
-23.1459
 11
-29.6875
 21
-23.3092
  0
LINE
  8
0
 10
-29.6875
 20
-23.3092
 11
-30.0533
 21
-23.6162
  0
LINE
  8
0
 10
-30.0533
 20
-23.6162
 11
-30.2921
 21
-24.0297
  0
LINE
  8
0
 10
-30.2921
 20
-24.0297
 11
-30.375
 21
-24.5
  0
LINE
  8
0
 10
-30.375
 20
-24.5
 11
-30.2921
 21
-24.9703
  0
LINE
  8
0
 10
-30.2921
 20
-24.9703
 11
-30.0533
 21
-25.3838
  0
LINE
  8
0
 10
-30.0533
 20
-25.3838
 11
-29.6875
 21
-25.6908
  0
LINE
  8
0
 10
-29.6875
 20
-25.6908
 11
-29.2388
 21
-25.8541
  0
LINE
  8
0
 10
-29.2388
 20
-25.8541
 11
-28.7612
 21
-25.8541
  0
LINE
  8
0
 10
-28.7612
 20
-25.8541
 11
-28.3125
 21
-25.6908
  0
LINE
  8
0
 10
29.6875
 20
-25.6908
 11
30.0533
 21
-25.3838
  0
LINE
  8
0
 10
30.0533
 20
-25.3838
 11
30.2921
 21
-24.9703
  0
LINE
  8
0
 10
30.2921
 20
-24.9703
 11
30.375
 21
-24.5
  0
LINE
  8
0
 10
30.375
 20
-24.5
 11
30.2921
 21
-24.0297
  0
LINE
  8
0
 10
30.2921
 20
-24.0297
 11
30.0533
 21
-23.6162
  0
LINE
  8
0
 10
30.0533
 20
-23.6162
 11
29.6875
 21
-23.3092
  0
LINE
  8
0
 10
29.6875
 20
-23.3092
 11
29.2388
 21
-23.1459
  0
LINE
  8
0
 10
29.2388
 20
-23.1459
 11
28.7612
 21
-23.1459
  0
LINE
  8
0
 10
28.7612
 20
-23.1459
 11
28.3125
 21
-23.3092
  0
LINE
  8
0
 10
28.3125
 20
-23.3092
 11
27.9467
 21
-23.6162
  0
LINE
  8
0
 10
27.9467
 20
-23.6162
 11
27.7079
 21
-24.0297
  0
LINE
  8
0
 10
27.7079
 20
-24.0297
 11
27.625
 21
-24.5
  0
LINE
  8
0
 10
27.625
 20
-24.5
 11
27.7079
 21
-24.9703
  0
LINE
  8
0
 10
27.7079
 20
-24.9703
 11
27.9467
 21
-25.3838
  0
LINE
  8
0
 10
27.9467
 20
-25.3838
 11
28.3125
 21
-25.6908
  0
LINE
  8
0
 10
28.3125
 20
-25.6908
 11
28.7612
 21
-25.8541
  0
LINE
  8
0
 10
28.7612
 20
-25.8541
 11
29.2388
 21
-25.8541
  0
LINE
  8
0
 10
29.2388
 20
-25.8541
 11
29.6875
 21
-25.6908
  0
ENDSEC
  0
SECTION
  2
OBJECTS
  0
DICTIONARY
  0
ENDSEC
  0
EOF
