  0
SECTION
  2
BLOCKS
  0
ENDSEC
  0
SECTION
  2
ENTITIES
  0
LINE
  8
0
 10
-75
 11
-75
 20
-175
 21
175
  0
LINE
  8
0
 10
-75
 11
-74.781
 20
175
 21
177.079
  0
LINE
  8
0
 10
-74.781
 11
-74.135
 20
177.079
 21
179.067
  0
LINE
  8
0
 10
-74.135
 11
-73.09
 20
179.067
 21
180.878
  0
LINE
  8
0
 10
-73.09
 11
-71.691
 20
180.878
 21
182.431
  0
LINE
  8
0
 10
-71.691
 11
-70
 20
182.431
 21
183.66
  0
LINE
  8
0
 10
-70
 11
-68.09
 20
183.66
 21
184.511
  0
LINE
  8
0
 10
-68.09
 11
-66.045
 20
184.511
 21
184.945
  0
LINE
  8
0
 10
-66.045
 11
66.045
 20
184.945
 21
184.945
  0
LINE
  8
0
 10
66.045
 11
68.09
 20
184.945
 21
184.511
  0
LINE
  8
0
 10
68.09
 11
70
 20
184.511
 21
183.66
  0
LINE
  8
0
 10
70
 11
71.691
 20
183.66
 21
182.431
  0
LINE
  8
0
 10
71.691
 11
73.09
 20
182.431
 21
180.878
  0
LINE
  8
0
 10
73.09
 11
74.135
 20
180.878
 21
179.067
  0
LINE
  8
0
 10
74.135
 11
74.781
 20
179.067
 21
177.079
  0
LINE
  8
0
 10
74.781
 11
75
 20
177.079
 21
175
  0
LINE
  8
0
 10
75
 11
75
 20
175
 21
-175
  0
LINE
  8
0
 10
75
 11
74.781
 20
-175
 21
-177.079
  0
LINE
  8
0
 10
74.781
 11
74.135
 20
-177.079
 21
-179.067
  0
LINE
  8
0
 10
74.135
 11
73.09
 20
-179.067
 21
-180.878
  0
LINE
  8
0
 10
73.09
 11
71.691
 20
-180.878
 21
-182.431
  0
LINE
  8
0
 10
71.691
 11
70
 20
-182.431
 21
-183.66
  0
LINE
  8
0
 10
70
 11
68.09
 20
-183.66
 21
-184.511
  0
LINE
  8
0
 10
68.09
 11
66.045
 20
-184.511
 21
-184.945
  0
LINE
  8
0
 10
66.045
 11
-66.045
 20
-184.945
 21
-184.945
  0
LINE
  8
0
 10
-66.045
 11
-68.09
 20
-184.945
 21
-184.511
  0
LINE
  8
0
 10
-68.09
 11
-70
 20
-184.511
 21
-183.66
  0
LINE
  8
0
 10
-70
 11
-71.691
 20
-183.66
 21
-182.431
  0
LINE
  8
0
 10
-71.691
 11
-73.09
 20
-182.431
 21
-180.878
  0
LINE
  8
0
 10
-73.09
 11
-74.135
 20
-180.878
 21
-179.067
  0
LINE
  8
0
 10
-74.135
 11
-74.781
 20
-179.067
 21
-177.079
  0
LINE
  8
0
 10
-74.781
 11
-75
 20
-177.079
 21
-175
  0
LINE
  8
0
 10
-59.25
 11
-59.157
 20
-165
 21
-164.116
  0
LINE
  8
0
 10
-59.157
 11
-58.883
 20
-164.116
 21
-163.271
  0
LINE
  8
0
 10
-58.883
 11
-58.438
 20
-163.271
 21
-162.502
  0
LINE
  8
0
 10
-58.438
 11
-57.844
 20
-162.502
 21
-161.842
  0
LINE
  8
0
 10
-57.844
 11
-57.125
 20
-161.842
 21
-161.319
  0
LINE
  8
0
 10
-57.125
 11
-56.313
 20
-161.319
 21
-160.958
  0
LINE
  8
0
 10
-56.313
 11
-55.444
 20
-160.958
 21
-160.773
  0
LINE
  8
0
 10
-55.444
 11
-54.556
 20
-160.773
 21
-160.773
  0
LINE
  8
0
 10
-54.556
 11
-53.687
 20
-160.773
 21
-160.958
  0
LINE
  8
0
 10
-53.687
 11
-52.875
 20
-160.958
 21
-161.319
  0
LINE
  8
0
 10
-52.875
 11
-52.156
 20
-161.319
 21
-161.842
  0
LINE
  8
0
 10
-52.156
 11
-51.562
 20
-161.842
 21
-162.502
  0
LINE
  8
0
 10
-51.562
 11
-51.117
 20
-162.502
 21
-163.271
  0
LINE
  8
0
 10
-51.117
 11
-50.843
 20
-163.271
 21
-164.116
  0
LINE
  8
0
 10
-50.843
 11
-50.75
 20
-164.116
 21
-165
  0
LINE
  8
0
 10
-50.75
 11
-50.843
 20
-165
 21
-165.884
  0
LINE
  8
0
 10
-50.843
 11
-51.117
 20
-165.884
 21
-166.729
  0
LINE
  8
0
 10
-51.117
 11
-51.562
 20
-166.729
 21
-167.498
  0
LINE
  8
0
 10
-51.562
 11
-52.156
 20
-167.498
 21
-168.158
  0
LINE
  8
0
 10
-52.156
 11
-52.875
 20
-168.158
 21
-168.681
  0
LINE
  8
0
 10
-52.875
 11
-53.687
 20
-168.681
 21
-169.042
  0
LINE
  8
0
 10
-53.687
 11
-54.556
 20
-169.042
 21
-169.227
  0
LINE
  8
0
 10
-54.556
 11
-55.444
 20
-169.227
 21
-169.227
  0
LINE
  8
0
 10
-55.444
 11
-56.313
 20
-169.227
 21
-169.042
  0
LINE
  8
0
 10
-56.313
 11
-57.125
 20
-169.042
 21
-168.681
  0
LINE
  8
0
 10
-57.125
 11
-57.844
 20
-168.681
 21
-168.158
  0
LINE
  8
0
 10
-57.844
 11
-58.438
 20
-168.158
 21
-167.498
  0
LINE
  8
0
 10
-58.438
 11
-58.883
 20
-167.498
 21
-166.729
  0
LINE
  8
0
 10
-58.883
 11
-59.157
 20
-166.729
 21
-165.884
  0
LINE
  8
0
 10
-59.157
 11
-59.25
 20
-165.884
 21
-165
  0
LINE
  8
0
 10
-51.75
 11
-51.657
 20
165
 21
165.884
  0
LINE
  8
0
 10
-51.657
 11
-51.383
 20
165.884
 21
166.729
  0
LINE
  8
0
 10
-51.383
 11
-50.938
 20
166.729
 21
167.498
  0
LINE
  8
0
 10
-50.938
 11
-50.344
 20
167.498
 21
168.158
  0
LINE
  8
0
 10
-50.344
 11
-49.625
 20
168.158
 21
168.681
  0
LINE
  8
0
 10
-49.625
 11
-48.813
 20
168.681
 21
169.042
  0
LINE
  8
0
 10
-48.813
 11
-47.944
 20
169.042
 21
169.227
  0
LINE
  8
0
 10
-47.944
 11
-47.056
 20
169.227
 21
169.227
  0
LINE
  8
0
 10
-47.056
 11
-46.187
 20
169.227
 21
169.042
  0
LINE
  8
0
 10
-46.187
 11
-45.375
 20
169.042
 21
168.681
  0
LINE
  8
0
 10
-45.375
 11
-44.656
 20
168.681
 21
168.158
  0
LINE
  8
0
 10
-44.656
 11
-44.062
 20
168.158
 21
167.498
  0
LINE
  8
0
 10
-44.062
 11
-43.617
 20
167.498
 21
166.729
  0
LINE
  8
0
 10
-43.617
 11
-43.343
 20
166.729
 21
165.884
  0
LINE
  8
0
 10
-43.343
 11
-43.25
 20
165.884
 21
165
  0
LINE
  8
0
 10
-43.25
 11
-43.343
 20
165
 21
164.116
  0
LINE
  8
0
 10
-43.343
 11
-43.617
 20
164.116
 21
163.271
  0
LINE
  8
0
 10
-43.617
 11
-44.062
 20
163.271
 21
162.502
  0
LINE
  8
0
 10
-44.062
 11
-44.656
 20
162.502
 21
161.842
  0
LINE
  8
0
 10
-44.656
 11
-45.375
 20
161.842
 21
161.319
  0
LINE
  8
0
 10
-45.375
 11
-46.187
 20
161.319
 21
160.958
  0
LINE
  8
0
 10
-46.187
 11
-47.056
 20
160.958
 21
160.773
  0
LINE
  8
0
 10
-47.056
 11
-47.944
 20
160.773
 21
160.773
  0
LINE
  8
0
 10
-47.944
 11
-48.813
 20
160.773
 21
160.958
  0
LINE
  8
0
 10
-48.813
 11
-49.625
 20
160.958
 21
161.319
  0
LINE
  8
0
 10
-49.625
 11
-50.344
 20
161.319
 21
161.842
  0
LINE
  8
0
 10
-50.344
 11
-50.938
 20
161.842
 21
162.502
  0
LINE
  8
0
 10
-50.938
 11
-51.383
 20
162.502
 21
163.271
  0
LINE
  8
0
 10
-51.383
 11
-51.657
 20
163.271
 21
164.116
  0
LINE
  8
0
 10
-51.657
 11
-51.75
 20
164.116
 21
165
  0
LINE
  8
0
 10
43.25
 11
43.343
 20
165
 21
165.884
  0
LINE
  8
0
 10
43.343
 11
43.617
 20
165.884
 21
166.729
  0
LINE
  8
0
 10
43.617
 11
44.062
 20
166.729
 21
167.498
  0
LINE
  8
0
 10
44.062
 11
44.656
 20
167.498
 21
168.158
  0
LINE
  8
0
 10
44.656
 11
45.375
 20
168.158
 21
168.681
  0
LINE
  8
0
 10
45.375
 11
46.187
 20
168.681
 21
169.042
  0
LINE
  8
0
 10
46.187
 11
47.056
 20
169.042
 21
169.227
  0
LINE
  8
0
 10
47.056
 11
47.944
 20
169.227
 21
169.227
  0
LINE
  8
0
 10
47.944
 11
48.813
 20
169.227
 21
169.042
  0
LINE
  8
0
 10
48.813
 11
49.625
 20
169.042
 21
168.681
  0
LINE
  8
0
 10
49.625
 11
50.344
 20
168.681
 21
168.158
  0
LINE
  8
0
 10
50.344
 11
50.938
 20
168.158
 21
167.498
  0
LINE
  8
0
 10
50.938
 11
51.383
 20
167.498
 21
166.729
  0
LINE
  8
0
 10
51.383
 11
51.657
 20
166.729
 21
165.884
  0
LINE
  8
0
 10
51.657
 11
51.75
 20
165.884
 21
165
  0
LINE
  8
0
 10
51.75
 11
51.657
 20
165
 21
164.116
  0
LINE
  8
0
 10
51.657
 11
51.383
 20
164.116
 21
163.271
  0
LINE
  8
0
 10
51.383
 11
50.938
 20
163.271
 21
162.502
  0
LINE
  8
0
 10
50.938
 11
50.344
 20
162.502
 21
161.842
  0
LINE
  8
0
 10
50.344
 11
49.625
 20
161.842
 21
161.319
  0
LINE
  8
0
 10
49.625
 11
48.813
 20
161.319
 21
160.958
  0
LINE
  8
0
 10
48.813
 11
47.944
 20
160.958
 21
160.773
  0
LINE
  8
0
 10
47.944
 11
47.056
 20
160.773
 21
160.773
  0
LINE
  8
0
 10
47.056
 11
46.187
 20
160.773
 21
160.958
  0
LINE
  8
0
 10
46.187
 11
45.375
 20
160.958
 21
161.319
  0
LINE
  8
0
 10
45.375
 11
44.656
 20
161.319
 21
161.842
  0
LINE
  8
0
 10
44.656
 11
44.062
 20
161.842
 21
162.502
  0
LINE
  8
0
 10
44.062
 11
43.617
 20
162.502
 21
163.271
  0
LINE
  8
0
 10
43.617
 11
43.343
 20
163.271
 21
164.116
  0
LINE
  8
0
 10
43.343
 11
43.25
 20
164.116
 21
165
  0
LINE
  8
0
 10
50.75
 11
50.843
 20
-165
 21
-164.116
  0
LINE
  8
0
 10
50.843
 11
51.117
 20
-164.116
 21
-163.271
  0
LINE
  8
0
 10
51.117
 11
51.562
 20
-163.271
 21
-162.502
  0
LINE
  8
0
 10
51.562
 11
52.156
 20
-162.502
 21
-161.842
  0
LINE
  8
0
 10
52.156
 11
52.875
 20
-161.842
 21
-161.319
  0
LINE
  8
0
 10
52.875
 11
53.687
 20
-161.319
 21
-160.958
  0
LINE
  8
0
 10
53.687
 11
54.556
 20
-160.958
 21
-160.773
  0
LINE
  8
0
 10
54.556
 11
55.444
 20
-160.773
 21
-160.773
  0
LINE
  8
0
 10
55.444
 11
56.313
 20
-160.773
 21
-160.958
  0
LINE
  8
0
 10
56.313
 11
57.125
 20
-160.958
 21
-161.319
  0
LINE
  8
0
 10
57.125
 11
57.844
 20
-161.319
 21
-161.842
  0
LINE
  8
0
 10
57.844
 11
58.438
 20
-161.842
 21
-162.502
  0
LINE
  8
0
 10
58.438
 11
58.883
 20
-162.502
 21
-163.271
  0
LINE
  8
0
 10
58.883
 11
59.157
 20
-163.271
 21
-164.116
  0
LINE
  8
0
 10
59.157
 11
59.25
 20
-164.116
 21
-165
  0
LINE
  8
0
 10
59.25
 11
59.157
 20
-165
 21
-165.884
  0
LINE
  8
0
 10
59.157
 11
58.883
 20
-165.884
 21
-166.729
  0
LINE
  8
0
 10
58.883
 11
58.438
 20
-166.729
 21
-167.498
  0
LINE
  8
0
 10
58.438
 11
57.844
 20
-167.498
 21
-168.158
  0
LINE
  8
0
 10
57.844
 11
57.125
 20
-168.158
 21
-168.681
  0
LINE
  8
0
 10
57.125
 11
56.313
 20
-168.681
 21
-169.042
  0
LINE
  8
0
 10
56.313
 11
55.444
 20
-169.042
 21
-169.227
  0
LINE
  8
0
 10
55.444
 11
54.556
 20
-169.227
 21
-169.227
  0
LINE
  8
0
 10
54.556
 11
53.687
 20
-169.227
 21
-169.042
  0
LINE
  8
0
 10
53.687
 11
52.875
 20
-169.042
 21
-168.681
  0
LINE
  8
0
 10
52.875
 11
52.156
 20
-168.681
 21
-168.158
  0
LINE
  8
0
 10
52.156
 11
51.562
 20
-168.158
 21
-167.498
  0
LINE
  8
0
 10
51.562
 11
51.117
 20
-167.498
 21
-166.729
  0
LINE
  8
0
 10
51.117
 11
50.843
 20
-166.729
 21
-165.884
  0
LINE
  8
0
 10
50.843
 11
50.75
 20
-165.884
 21
-165
  0
ENDSEC
  0
SECTION
  2
OBJECTS
  0
DICTIONARY
  0
ENDSEC
  0
EOF
