  0
SECTION
  2
BLOCKS
  0
ENDSEC
  0
SECTION
  2
ENTITIES
  0
LINE
  8
0
 10
177.079
 20
-74.7815
 11
179.067
 21
-74.1355
  0
LINE
  8
0
 10
179.067
 20
-74.1355
 11
180.878
 21
-73.0902
  0
LINE
  8
0
 10
180.878
 20
-73.0902
 11
182.431
 21
-71.6913
  0
LINE
  8
0
 10
182.431
 20
-71.6913
 11
183.66
 21
-70
  0
LINE
  8
0
 10
183.66
 20
-70
 11
184.511
 21
-68.0902
  0
LINE
  8
0
 10
184.511
 20
-68.0902
 11
184.945
 21
-66.0453
  0
LINE
  8
0
 10
184.945
 20
-66.0453
 11
184.945
 21
66.0453
  0
LINE
  8
0
 10
184.945
 20
66.0453
 11
184.511
 21
68.0902
  0
LINE
  8
0
 10
184.511
 20
68.0902
 11
183.66
 21
70
  0
LINE
  8
0
 10
183.66
 20
70
 11
182.431
 21
71.6913
  0
LINE
  8
0
 10
182.431
 20
71.6913
 11
180.878
 21
73.0902
  0
LINE
  8
0
 10
180.878
 20
73.0902
 11
179.067
 21
74.1355
  0
LINE
  8
0
 10
179.067
 20
74.1355
 11
177.079
 21
74.7815
  0
LINE
  8
0
 10
177.079
 20
74.7815
 11
175
 21
75
  0
LINE
  8
0
 10
175
 20
75
 11
-175
 21
75
  0
LINE
  8
0
 10
-175
 20
75
 11
-177.079
 21
74.7815
  0
LINE
  8
0
 10
-177.079
 20
74.7815
 11
-179.067
 21
74.1355
  0
LINE
  8
0
 10
-179.067
 20
74.1355
 11
-180.878
 21
73.0902
  0
LINE
  8
0
 10
-180.878
 20
73.0902
 11
-182.431
 21
71.6913
  0
LINE
  8
0
 10
-182.431
 20
71.6913
 11
-183.66
 21
70
  0
LINE
  8
0
 10
-183.66
 20
70
 11
-184.511
 21
68.0902
  0
LINE
  8
0
 10
-184.511
 20
68.0902
 11
-184.945
 21
66.0453
  0
LINE
  8
0
 10
-184.945
 20
66.0453
 11
-184.945
 21
-66.0453
  0
LINE
  8
0
 10
-184.945
 20
-66.0453
 11
-184.511
 21
-68.0902
  0
LINE
  8
0
 10
-184.511
 20
-68.0902
 11
-183.66
 21
-70
  0
LINE
  8
0
 10
-183.66
 20
-70
 11
-182.431
 21
-71.6913
  0
LINE
  8
0
 10
-182.431
 20
-71.6913
 11
-180.878
 21
-73.0902
  0
LINE
  8
0
 10
-180.878
 20
-73.0902
 11
-179.067
 21
-74.1355
  0
LINE
  8
0
 10
-179.067
 20
-74.1355
 11
-177.079
 21
-74.7815
  0
LINE
  8
0
 10
-177.079
 20
-74.7815
 11
-175
 21
-75
  0
LINE
  8
0
 10
-175
 20
-75
 11
175
 21
-75
  0
LINE
  8
0
 10
175
 20
-75
 11
177.079
 21
-74.7815
  0
LINE
  8
0
 10
164.116
 20
50.8429
 11
163.271
 21
51.1174
  0
LINE
  8
0
 10
163.271
 20
51.1174
 11
162.502
 21
51.5617
  0
LINE
  8
0
 10
162.502
 20
51.5617
 11
161.842
 21
52.1562
  0
LINE
  8
0
 10
161.842
 20
52.1562
 11
161.319
 21
52.875
  0
LINE
  8
0
 10
161.319
 20
52.875
 11
160.958
 21
53.6867
  0
LINE
  8
0
 10
160.958
 20
53.6867
 11
160.773
 21
54.5557
  0
LINE
  8
0
 10
160.773
 20
54.5557
 11
160.773
 21
55.4442
  0
LINE
  8
0
 10
160.773
 20
55.4442
 11
160.958
 21
56.3133
  0
LINE
  8
0
 10
160.958
 20
56.3133
 11
161.319
 21
57.125
  0
LINE
  8
0
 10
161.319
 20
57.125
 11
161.842
 21
57.8438
  0
LINE
  8
0
 10
161.842
 20
57.8438
 11
162.502
 21
58.4383
  0
LINE
  8
0
 10
162.502
 20
58.4383
 11
163.271
 21
58.8826
  0
LINE
  8
0
 10
163.271
 20
58.8826
 11
164.116
 21
59.1571
  0
LINE
  8
0
 10
164.116
 20
59.1571
 11
165
 21
59.25
  0
LINE
  8
0
 10
165
 20
59.25
 11
165.884
 21
59.1571
  0
LINE
  8
0
 10
165.884
 20
59.1571
 11
166.729
 21
58.8826
  0
LINE
  8
0
 10
166.729
 20
58.8826
 11
167.498
 21
58.4383
  0
LINE
  8
0
 10
167.498
 20
58.4383
 11
168.158
 21
57.8438
  0
LINE
  8
0
 10
168.158
 20
57.8438
 11
168.681
 21
57.125
  0
LINE
  8
0
 10
168.681
 20
57.125
 11
169.042
 21
56.3133
  0
LINE
  8
0
 10
169.042
 20
56.3133
 11
169.227
 21
55.4442
  0
LINE
  8
0
 10
169.227
 20
55.4442
 11
169.227
 21
54.5557
  0
LINE
  8
0
 10
169.227
 20
54.5557
 11
169.042
 21
53.6867
  0
LINE
  8
0
 10
169.042
 20
53.6867
 11
168.681
 21
52.875
  0
LINE
  8
0
 10
168.681
 20
52.875
 11
168.158
 21
52.1562
  0
LINE
  8
0
 10
168.158
 20
52.1562
 11
167.498
 21
51.5617
  0
LINE
  8
0
 10
167.498
 20
51.5617
 11
166.729
 21
51.1174
  0
LINE
  8
0
 10
166.729
 20
51.1174
 11
165.884
 21
50.8429
  0
LINE
  8
0
 10
165.884
 20
50.8429
 11
165
 21
50.75
  0
LINE
  8
0
 10
165
 20
50.75
 11
164.116
 21
50.8429
  0
LINE
  8
0
 10
-165.884
 20
43.3429
 11
-166.729
 21
43.6174
  0
LINE
  8
0
 10
-166.729
 20
43.6174
 11
-167.498
 21
44.0617
  0
LINE
  8
0
 10
-167.498
 20
44.0617
 11
-168.158
 21
44.6562
  0
LINE
  8
0
 10
-168.158
 20
44.6562
 11
-168.681
 21
45.375
  0
LINE
  8
0
 10
-168.681
 20
45.375
 11
-169.042
 21
46.1867
  0
LINE
  8
0
 10
-169.042
 20
46.1867
 11
-169.227
 21
47.0558
  0
LINE
  8
0
 10
-169.227
 20
47.0558
 11
-169.227
 21
47.9442
  0
LINE
  8
0
 10
-169.227
 20
47.9442
 11
-169.042
 21
48.8133
  0
LINE
  8
0
 10
-169.042
 20
48.8133
 11
-168.681
 21
49.625
  0
LINE
  8
0
 10
-168.681
 20
49.625
 11
-168.158
 21
50.3438
  0
LINE
  8
0
 10
-168.158
 20
50.3438
 11
-167.498
 21
50.9383
  0
LINE
  8
0
 10
-167.498
 20
50.9383
 11
-166.729
 21
51.3826
  0
LINE
  8
0
 10
-166.729
 20
51.3826
 11
-165.884
 21
51.6571
  0
LINE
  8
0
 10
-165.884
 20
51.6571
 11
-165
 21
51.75
  0
LINE
  8
0
 10
-165
 20
51.75
 11
-164.116
 21
51.6571
  0
LINE
  8
0
 10
-164.116
 20
51.6571
 11
-163.271
 21
51.3826
  0
LINE
  8
0
 10
-163.271
 20
51.3826
 11
-162.502
 21
50.9383
  0
LINE
  8
0
 10
-162.502
 20
50.9383
 11
-161.842
 21
50.3438
  0
LINE
  8
0
 10
-161.842
 20
50.3438
 11
-161.319
 21
49.625
  0
LINE
  8
0
 10
-161.319
 20
49.625
 11
-160.958
 21
48.8133
  0
LINE
  8
0
 10
-160.958
 20
48.8133
 11
-160.773
 21
47.9442
  0
LINE
  8
0
 10
-160.773
 20
47.9442
 11
-160.773
 21
47.0558
  0
LINE
  8
0
 10
-160.773
 20
47.0558
 11
-160.958
 21
46.1867
  0
LINE
  8
0
 10
-160.958
 20
46.1867
 11
-161.319
 21
45.375
  0
LINE
  8
0
 10
-161.319
 20
45.375
 11
-161.842
 21
44.6562
  0
LINE
  8
0
 10
-161.842
 20
44.6562
 11
-162.502
 21
44.0617
  0
LINE
  8
0
 10
-162.502
 20
44.0617
 11
-163.271
 21
43.6174
  0
LINE
  8
0
 10
-163.271
 20
43.6174
 11
-164.116
 21
43.3429
  0
LINE
  8
0
 10
-164.116
 20
43.3429
 11
-165
 21
43.25
  0
LINE
  8
0
 10
-165
 20
43.25
 11
-165.884
 21
43.3429
  0
LINE
  8
0
 10
-165.884
 20
-51.6571
 11
-166.729
 21
-51.3826
  0
LINE
  8
0
 10
-166.729
 20
-51.3826
 11
-167.498
 21
-50.9383
  0
LINE
  8
0
 10
-167.498
 20
-50.9383
 11
-168.158
 21
-50.3438
  0
LINE
  8
0
 10
-168.158
 20
-50.3438
 11
-168.681
 21
-49.625
  0
LINE
  8
0
 10
-168.681
 20
-49.625
 11
-169.042
 21
-48.8133
  0
LINE
  8
0
 10
-169.042
 20
-48.8133
 11
-169.227
 21
-47.9442
  0
LINE
  8
0
 10
-169.227
 20
-47.9442
 11
-169.227
 21
-47.0557
  0
LINE
  8
0
 10
-169.227
 20
-47.0557
 11
-169.042
 21
-46.1867
  0
LINE
  8
0
 10
-169.042
 20
-46.1867
 11
-168.681
 21
-45.375
  0
LINE
  8
0
 10
-168.681
 20
-45.375
 11
-168.158
 21
-44.6562
  0
LINE
  8
0
 10
-168.158
 20
-44.6562
 11
-167.498
 21
-44.0617
  0
LINE
  8
0
 10
-167.498
 20
-44.0617
 11
-166.729
 21
-43.6174
  0
LINE
  8
0
 10
-166.729
 20
-43.6174
 11
-165.884
 21
-43.3429
  0
LINE
  8
0
 10
-165.884
 20
-43.3429
 11
-165
 21
-43.25
  0
LINE
  8
0
 10
-165
 20
-43.25
 11
-164.116
 21
-43.3429
  0
LINE
  8
0
 10
-164.116
 20
-43.3429
 11
-163.271
 21
-43.6174
  0
LINE
  8
0
 10
-163.271
 20
-43.6174
 11
-162.502
 21
-44.0617
  0
LINE
  8
0
 10
-162.502
 20
-44.0617
 11
-161.842
 21
-44.6562
  0
LINE
  8
0
 10
-161.842
 20
-44.6562
 11
-161.319
 21
-45.375
  0
LINE
  8
0
 10
-161.319
 20
-45.375
 11
-160.958
 21
-46.1867
  0
LINE
  8
0
 10
-160.958
 20
-46.1867
 11
-160.773
 21
-47.0557
  0
LINE
  8
0
 10
-160.773
 20
-47.0557
 11
-160.773
 21
-47.9442
  0
LINE
  8
0
 10
-160.773
 20
-47.9442
 11
-160.958
 21
-48.8133
  0
LINE
  8
0
 10
-160.958
 20
-48.8133
 11
-161.319
 21
-49.625
  0
LINE
  8
0
 10
-161.319
 20
-49.625
 11
-161.842
 21
-50.3438
  0
LINE
  8
0
 10
-161.842
 20
-50.3438
 11
-162.502
 21
-50.9383
  0
LINE
  8
0
 10
-162.502
 20
-50.9383
 11
-163.271
 21
-51.3826
  0
LINE
  8
0
 10
-163.271
 20
-51.3826
 11
-164.116
 21
-51.6571
  0
LINE
  8
0
 10
-164.116
 20
-51.6571
 11
-165
 21
-51.75
  0
LINE
  8
0
 10
-165
 20
-51.75
 11
-165.884
 21
-51.6571
  0
LINE
  8
0
 10
164.116
 20
-59.1571
 11
163.271
 21
-58.8826
  0
LINE
  8
0
 10
163.271
 20
-58.8826
 11
162.502
 21
-58.4383
  0
LINE
  8
0
 10
162.502
 20
-58.4383
 11
161.842
 21
-57.8438
  0
LINE
  8
0
 10
161.842
 20
-57.8438
 11
161.319
 21
-57.125
  0
LINE
  8
0
 10
161.319
 20
-57.125
 11
160.958
 21
-56.3133
  0
LINE
  8
0
 10
160.958
 20
-56.3133
 11
160.773
 21
-55.4442
  0
LINE
  8
0
 10
160.773
 20
-55.4442
 11
160.773
 21
-54.5558
  0
LINE
  8
0
 10
160.773
 20
-54.5558
 11
160.958
 21
-53.6867
  0
LINE
  8
0
 10
160.958
 20
-53.6867
 11
161.319
 21
-52.875
  0
LINE
  8
0
 10
161.319
 20
-52.875
 11
161.842
 21
-52.1562
  0
LINE
  8
0
 10
161.842
 20
-52.1562
 11
162.502
 21
-51.5617
  0
LINE
  8
0
 10
162.502
 20
-51.5617
 11
163.271
 21
-51.1174
  0
LINE
  8
0
 10
163.271
 20
-51.1174
 11
164.116
 21
-50.8429
  0
LINE
  8
0
 10
164.116
 20
-50.8429
 11
165
 21
-50.75
  0
LINE
  8
0
 10
165
 20
-50.75
 11
165.884
 21
-50.8429
  0
LINE
  8
0
 10
165.884
 20
-50.8429
 11
166.729
 21
-51.1174
  0
LINE
  8
0
 10
166.729
 20
-51.1174
 11
167.498
 21
-51.5617
  0
LINE
  8
0
 10
167.498
 20
-51.5617
 11
168.158
 21
-52.1562
  0
LINE
  8
0
 10
168.158
 20
-52.1562
 11
168.681
 21
-52.875
  0
LINE
  8
0
 10
168.681
 20
-52.875
 11
169.042
 21
-53.6867
  0
LINE
  8
0
 10
169.042
 20
-53.6867
 11
169.227
 21
-54.5558
  0
LINE
  8
0
 10
169.227
 20
-54.5558
 11
169.227
 21
-55.4442
  0
LINE
  8
0
 10
169.227
 20
-55.4442
 11
169.042
 21
-56.3133
  0
LINE
  8
0
 10
169.042
 20
-56.3133
 11
168.681
 21
-57.125
  0
LINE
  8
0
 10
168.681
 20
-57.125
 11
168.158
 21
-57.8438
  0
LINE
  8
0
 10
168.158
 20
-57.8438
 11
167.498
 21
-58.4383
  0
LINE
  8
0
 10
167.498
 20
-58.4383
 11
166.729
 21
-58.8826
  0
LINE
  8
0
 10
166.729
 20
-58.8826
 11
165.884
 21
-59.1571
  0
LINE
  8
0
 10
165.884
 20
-59.1571
 11
165
 21
-59.25
  0
LINE
  8
0
 10
165
 20
-59.25
 11
164.116
 21
-59.1571
  0
ENDSEC
  0
SECTION
  2
OBJECTS
  0
DICTIONARY
  0
ENDSEC
  0
EOF
