  0
SECTION
  2
BLOCKS
  0
ENDSEC
  0
SECTION
  2
ENTITIES
  0
LINE
  8
0
 10
41.8682
 20
-42.9541
 11
42.3204
 21
-42.7557
  0
LINE
  8
0
 10
42.3204
 20
-42.7557
 11
42.6837
 21
-42.4213
  0
LINE
  8
0
 10
42.6837
 20
-42.4213
 11
42.9187
 21
-41.987
  0
LINE
  8
0
 10
42.9187
 20
-41.987
 11
43
 21
-41.5
  0
LINE
  8
0
 10
43
 20
-41.5
 11
43
 21
41.5
  0
LINE
  8
0
 10
43
 20
41.5
 11
42.9187
 21
41.987
  0
LINE
  8
0
 10
42.9187
 20
41.987
 11
42.6837
 21
42.4213
  0
LINE
  8
0
 10
42.6837
 20
42.4213
 11
42.3204
 21
42.7557
  0
LINE
  8
0
 10
42.3204
 20
42.7557
 11
41.8682
 21
42.9541
  0
LINE
  8
0
 10
41.8682
 20
42.9541
 11
41.3761
 21
42.9949
  0
LINE
  8
0
 10
41.3761
 20
42.9949
 11
-41.6239
 21
42.9949
  0
LINE
  8
0
 10
-41.6239
 20
42.9949
 11
-42.1025
 21
42.8737
  0
LINE
  8
0
 10
-42.1025
 20
42.8737
 11
-42.5159
 21
42.6036
  0
LINE
  8
0
 10
-42.5159
 20
42.6036
 11
-42.8192
 21
42.2139
  0
LINE
  8
0
 10
-42.8192
 20
42.2139
 11
-42.9795
 21
41.7469
  0
LINE
  8
0
 10
-42.9795
 20
41.7469
 11
-42.9795
 21
-41.7469
  0
LINE
  8
0
 10
-42.9795
 20
-41.7469
 11
-42.8192
 21
-42.2139
  0
LINE
  8
0
 10
-42.8192
 20
-42.2139
 11
-42.5159
 21
-42.6036
  0
LINE
  8
0
 10
-42.5159
 20
-42.6036
 11
-42.1025
 21
-42.8737
  0
LINE
  8
0
 10
-42.1025
 20
-42.8737
 11
-41.6239
 21
-42.9949
  0
LINE
  8
0
 10
-41.6239
 20
-42.9949
 11
41.3761
 21
-42.9949
  0
LINE
  8
0
 10
41.3761
 20
-42.9949
 11
41.8682
 21
-42.9541
  0
LINE
  8
0
 10
39.7581
 20
38.3173
 11
39.2938
 21
38.4536
  0
LINE
  8
0
 10
39.2938
 20
38.4536
 11
38.8867
 21
38.7152
  0
LINE
  8
0
 10
38.8867
 20
38.7152
 11
38.5699
 21
39.0809
  0
LINE
  8
0
 10
38.5699
 20
39.0809
 11
38.3689
 21
39.521
  0
LINE
  8
0
 10
38.3689
 20
39.521
 11
38.3
 21
40
  0
LINE
  8
0
 10
38.3
 20
40
 11
38.3689
 21
40.4789
  0
LINE
  8
0
 10
38.3689
 20
40.4789
 11
38.5699
 21
40.9191
  0
LINE
  8
0
 10
38.5699
 20
40.9191
 11
38.8867
 21
41.2848
  0
LINE
  8
0
 10
38.8867
 20
41.2848
 11
39.2938
 21
41.5464
  0
LINE
  8
0
 10
39.2938
 20
41.5464
 11
39.7581
 21
41.6827
  0
LINE
  8
0
 10
39.7581
 20
41.6827
 11
40.2419
 21
41.6827
  0
LINE
  8
0
 10
40.2419
 20
41.6827
 11
40.7062
 21
41.5464
  0
LINE
  8
0
 10
40.7062
 20
41.5464
 11
41.1133
 21
41.2848
  0
LINE
  8
0
 10
41.1133
 20
41.2848
 11
41.4301
 21
40.9191
  0
LINE
  8
0
 10
41.4301
 20
40.9191
 11
41.6311
 21
40.4789
  0
LINE
  8
0
 10
41.6311
 20
40.4789
 11
41.7
 21
40
  0
LINE
  8
0
 10
41.7
 20
40
 11
41.6311
 21
39.521
  0
LINE
  8
0
 10
41.6311
 20
39.521
 11
41.4301
 21
39.0809
  0
LINE
  8
0
 10
41.4301
 20
39.0809
 11
41.1133
 21
38.7152
  0
LINE
  8
0
 10
41.1133
 20
38.7152
 11
40.7062
 21
38.4536
  0
LINE
  8
0
 10
40.7062
 20
38.4536
 11
40.2419
 21
38.3173
  0
LINE
  8
0
 10
40.2419
 20
38.3173
 11
39.7581
 21
38.3173
  0
LINE
  8
0
 10
-40.2419
 20
38.3173
 11
-40.7062
 21
38.4536
  0
LINE
  8
0
 10
-40.7062
 20
38.4536
 11
-41.1133
 21
38.7152
  0
LINE
  8
0
 10
-41.1133
 20
38.7152
 11
-41.4301
 21
39.0809
  0
LINE
  8
0
 10
-41.4301
 20
39.0809
 11
-41.6311
 21
39.521
  0
LINE
  8
0
 10
-41.6311
 20
39.521
 11
-41.7
 21
40
  0
LINE
  8
0
 10
-41.7
 20
40
 11
-41.6311
 21
40.4789
  0
LINE
  8
0
 10
-41.6311
 20
40.4789
 11
-41.4301
 21
40.9191
  0
LINE
  8
0
 10
-41.4301
 20
40.9191
 11
-41.1133
 21
41.2848
  0
LINE
  8
0
 10
-41.1133
 20
41.2848
 11
-40.7062
 21
41.5464
  0
LINE
  8
0
 10
-40.7062
 20
41.5464
 11
-40.2419
 21
41.6827
  0
LINE
  8
0
 10
-40.2419
 20
41.6827
 11
-39.7581
 21
41.6827
  0
LINE
  8
0
 10
-39.7581
 20
41.6827
 11
-39.2938
 21
41.5464
  0
LINE
  8
0
 10
-39.2938
 20
41.5464
 11
-38.8867
 21
41.2848
  0
LINE
  8
0
 10
-38.8867
 20
41.2848
 11
-38.5699
 21
40.9191
  0
LINE
  8
0
 10
-38.5699
 20
40.9191
 11
-38.3689
 21
40.4789
  0
LINE
  8
0
 10
-38.3689
 20
40.4789
 11
-38.3
 21
40
  0
LINE
  8
0
 10
-38.3
 20
40
 11
-38.3689
 21
39.521
  0
LINE
  8
0
 10
-38.3689
 20
39.521
 11
-38.5699
 21
39.0809
  0
LINE
  8
0
 10
-38.5699
 20
39.0809
 11
-38.8867
 21
38.7152
  0
LINE
  8
0
 10
-38.8867
 20
38.7152
 11
-39.2938
 21
38.4536
  0
LINE
  8
0
 10
-39.2938
 20
38.4536
 11
-39.7581
 21
38.3173
  0
LINE
  8
0
 10
-39.7581
 20
38.3173
 11
-40.2419
 21
38.3173
  0
LINE
  8
0
 10
39.7581
 20
-41.6827
 11
39.2938
 21
-41.5464
  0
LINE
  8
0
 10
39.2938
 20
-41.5464
 11
38.8867
 21
-41.2848
  0
LINE
  8
0
 10
38.8867
 20
-41.2848
 11
38.5699
 21
-40.9191
  0
LINE
  8
0
 10
38.5699
 20
-40.9191
 11
38.3689
 21
-40.4789
  0
LINE
  8
0
 10
38.3689
 20
-40.4789
 11
38.3
 21
-40
  0
LINE
  8
0
 10
38.3
 20
-40
 11
38.3689
 21
-39.521
  0
LINE
  8
0
 10
38.3689
 20
-39.521
 11
38.5699
 21
-39.0809
  0
LINE
  8
0
 10
38.5699
 20
-39.0809
 11
38.8867
 21
-38.7152
  0
LINE
  8
0
 10
38.8867
 20
-38.7152
 11
39.2938
 21
-38.4536
  0
LINE
  8
0
 10
39.2938
 20
-38.4536
 11
39.7581
 21
-38.3173
  0
LINE
  8
0
 10
39.7581
 20
-38.3173
 11
40.2419
 21
-38.3173
  0
LINE
  8
0
 10
40.2419
 20
-38.3173
 11
40.7062
 21
-38.4536
  0
LINE
  8
0
 10
40.7062
 20
-38.4536
 11
41.1133
 21
-38.7152
  0
LINE
  8
0
 10
41.1133
 20
-38.7152
 11
41.4301
 21
-39.0809
  0
LINE
  8
0
 10
41.4301
 20
-39.0809
 11
41.6311
 21
-39.521
  0
LINE
  8
0
 10
41.6311
 20
-39.521
 11
41.7
 21
-40
  0
LINE
  8
0
 10
41.7
 20
-40
 11
41.6311
 21
-40.4789
  0
LINE
  8
0
 10
41.6311
 20
-40.4789
 11
41.4301
 21
-40.9191
  0
LINE
  8
0
 10
41.4301
 20
-40.9191
 11
41.1133
 21
-41.2848
  0
LINE
  8
0
 10
41.1133
 20
-41.2848
 11
40.7062
 21
-41.5464
  0
LINE
  8
0
 10
40.7062
 20
-41.5464
 11
40.2419
 21
-41.6827
  0
LINE
  8
0
 10
40.2419
 20
-41.6827
 11
39.7581
 21
-41.6827
  0
LINE
  8
0
 10
-40.2419
 20
-41.6827
 11
-40.7062
 21
-41.5464
  0
LINE
  8
0
 10
-40.7062
 20
-41.5464
 11
-41.1133
 21
-41.2848
  0
LINE
  8
0
 10
-41.1133
 20
-41.2848
 11
-41.4301
 21
-40.9191
  0
LINE
  8
0
 10
-41.4301
 20
-40.9191
 11
-41.6311
 21
-40.4789
  0
LINE
  8
0
 10
-41.6311
 20
-40.4789
 11
-41.7
 21
-40
  0
LINE
  8
0
 10
-41.7
 20
-40
 11
-41.6311
 21
-39.521
  0
LINE
  8
0
 10
-41.6311
 20
-39.521
 11
-41.4301
 21
-39.0809
  0
LINE
  8
0
 10
-41.4301
 20
-39.0809
 11
-41.1133
 21
-38.7152
  0
LINE
  8
0
 10
-41.1133
 20
-38.7152
 11
-40.7062
 21
-38.4536
  0
LINE
  8
0
 10
-40.7062
 20
-38.4536
 11
-40.2419
 21
-38.3173
  0
LINE
  8
0
 10
-40.2419
 20
-38.3173
 11
-39.7581
 21
-38.3173
  0
LINE
  8
0
 10
-39.7581
 20
-38.3173
 11
-39.2938
 21
-38.4536
  0
LINE
  8
0
 10
-39.2938
 20
-38.4536
 11
-38.8867
 21
-38.7152
  0
LINE
  8
0
 10
-38.8867
 20
-38.7152
 11
-38.5699
 21
-39.0809
  0
LINE
  8
0
 10
-38.5699
 20
-39.0809
 11
-38.3689
 21
-39.521
  0
LINE
  8
0
 10
-38.3689
 20
-39.521
 11
-38.3
 21
-40
  0
LINE
  8
0
 10
-38.3
 20
-40
 11
-38.3689
 21
-40.4789
  0
LINE
  8
0
 10
-38.3689
 20
-40.4789
 11
-38.5699
 21
-40.9191
  0
LINE
  8
0
 10
-38.5699
 20
-40.9191
 11
-38.8867
 21
-41.2848
  0
LINE
  8
0
 10
-38.8867
 20
-41.2848
 11
-39.2938
 21
-41.5464
  0
LINE
  8
0
 10
-39.2938
 20
-41.5464
 11
-39.7581
 21
-41.6827
  0
LINE
  8
0
 10
-39.7581
 20
-41.6827
 11
-40.2419
 21
-41.6827
  0
ENDSEC
  0
SECTION
  2
OBJECTS
  0
DICTIONARY
  0
ENDSEC
  0
EOF
