  0
SECTION
  2
BLOCKS
  0
ENDSEC
  0
SECTION
  2
ENTITIES
  0
LINE
  8
0
 10
43.0902
 20
-39.5106
 11
45
 21
-38.6602
  0
LINE
  8
0
 10
45
 20
-38.6602
 11
46.6913
 21
-37.4314
  0
LINE
  8
0
 10
46.6913
 20
-37.4314
 11
48.0902
 21
-35.8779
  0
LINE
  8
0
 10
48.0902
 20
-35.8779
 11
49.1355
 21
-34.0674
  0
LINE
  8
0
 10
49.1355
 20
-34.0674
 11
49.7815
 21
-32.0791
  0
LINE
  8
0
 10
49.7815
 20
-32.0791
 11
50
 21
-30
  0
LINE
  8
0
 10
50
 20
-30
 11
50
 21
30
  0
LINE
  8
0
 10
50
 20
30
 11
49.7815
 21
32.0791
  0
LINE
  8
0
 10
49.7815
 20
32.0791
 11
49.1355
 21
34.0674
  0
LINE
  8
0
 10
49.1355
 20
34.0674
 11
48.0902
 21
35.8779
  0
LINE
  8
0
 10
48.0902
 20
35.8779
 11
46.6913
 21
37.4314
  0
LINE
  8
0
 10
46.6913
 20
37.4314
 11
45
 21
38.6602
  0
LINE
  8
0
 10
45
 20
38.6602
 11
43.0902
 21
39.5106
  0
LINE
  8
0
 10
43.0902
 20
39.5106
 11
41.0453
 21
39.9452
  0
LINE
  8
0
 10
41.0453
 20
39.9452
 11
-41.0453
 21
39.9452
  0
LINE
  8
0
 10
-41.0453
 20
39.9452
 11
-43.0902
 21
39.5106
  0
LINE
  8
0
 10
-43.0902
 20
39.5106
 11
-45
 21
38.6602
  0
LINE
  8
0
 10
-45
 20
38.6602
 11
-46.6913
 21
37.4314
  0
LINE
  8
0
 10
-46.6913
 20
37.4314
 11
-48.0902
 21
35.8779
  0
LINE
  8
0
 10
-48.0902
 20
35.8779
 11
-49.1355
 21
34.0674
  0
LINE
  8
0
 10
-49.1355
 20
34.0674
 11
-49.7815
 21
32.0791
  0
LINE
  8
0
 10
-49.7815
 20
32.0791
 11
-50
 21
30
  0
LINE
  8
0
 10
-50
 20
30
 11
-50
 21
-30
  0
LINE
  8
0
 10
-50
 20
-30
 11
-49.7815
 21
-32.0791
  0
LINE
  8
0
 10
-49.7815
 20
-32.0791
 11
-49.1355
 21
-34.0674
  0
LINE
  8
0
 10
-49.1355
 20
-34.0674
 11
-48.0902
 21
-35.8779
  0
LINE
  8
0
 10
-48.0902
 20
-35.8779
 11
-46.6913
 21
-37.4314
  0
LINE
  8
0
 10
-46.6913
 20
-37.4314
 11
-45
 21
-38.6602
  0
LINE
  8
0
 10
-45
 20
-38.6602
 11
-43.0902
 21
-39.5106
  0
LINE
  8
0
 10
-43.0902
 20
-39.5106
 11
-41.0453
 21
-39.9452
  0
LINE
  8
0
 10
-41.0453
 20
-39.9452
 11
41.0453
 21
-39.9452
  0
LINE
  8
0
 10
41.0453
 20
-39.9452
 11
43.0902
 21
-39.5106
  0
LINE
  8
0
 10
-20.95
 20
29.7206
 11
-21.2794
 21
30.05
  0
LINE
  8
0
 10
-21.2794
 20
30.05
 11
-21.4
 21
30.5
  0
LINE
  8
0
 10
-21.4
 20
30.5
 11
-21.2794
 21
30.95
  0
LINE
  8
0
 10
-21.2794
 20
30.95
 11
-20.95
 21
31.2794
  0
LINE
  8
0
 10
-20.95
 20
31.2794
 11
-20.5
 21
31.4
  0
LINE
  8
0
 10
-20.5
 20
31.4
 11
-20.05
 21
31.2794
  0
LINE
  8
0
 10
-20.05
 20
31.2794
 11
-19.7206
 21
30.95
  0
LINE
  8
0
 10
-19.7206
 20
30.95
 11
-19.6
 21
30.5
  0
LINE
  8
0
 10
-19.6
 20
30.5
 11
-19.7206
 21
30.05
  0
LINE
  8
0
 10
-19.7206
 20
30.05
 11
-20.05
 21
29.7206
  0
LINE
  8
0
 10
-20.05
 20
29.7206
 11
-20.5
 21
29.6
  0
LINE
  8
0
 10
-20.5
 20
29.6
 11
-20.95
 21
29.7206
  0
LINE
  8
0
 10
20.05
 20
29.7206
 11
19.7206
 21
30.05
  0
LINE
  8
0
 10
19.7206
 20
30.05
 11
19.6
 21
30.5
  0
LINE
  8
0
 10
19.6
 20
30.5
 11
19.7206
 21
30.95
  0
LINE
  8
0
 10
19.7206
 20
30.95
 11
20.05
 21
31.2794
  0
LINE
  8
0
 10
20.05
 20
31.2794
 11
20.5
 21
31.4
  0
LINE
  8
0
 10
20.5
 20
31.4
 11
20.95
 21
31.2794
  0
LINE
  8
0
 10
20.95
 20
31.2794
 11
21.2794
 21
30.95
  0
LINE
  8
0
 10
21.2794
 20
30.95
 11
21.4
 21
30.5
  0
LINE
  8
0
 10
21.4
 20
30.5
 11
21.2794
 21
30.05
  0
LINE
  8
0
 10
21.2794
 20
30.05
 11
20.95
 21
29.7206
  0
LINE
  8
0
 10
20.95
 20
29.7206
 11
20.5
 21
29.6
  0
LINE
  8
0
 10
20.5
 20
29.6
 11
20.05
 21
29.7206
  0
LINE
  8
0
 10
28.7612
 20
23.1459
 11
28.3125
 21
23.3092
  0
LINE
  8
0
 10
28.3125
 20
23.3092
 11
27.9467
 21
23.6162
  0
LINE
  8
0
 10
27.9467
 20
23.6162
 11
27.7079
 21
24.0297
  0
LINE
  8
0
 10
27.7079
 20
24.0297
 11
27.625
 21
24.5
  0
LINE
  8
0
 10
27.625
 20
24.5
 11
27.7079
 21
24.9703
  0
LINE
  8
0
 10
27.7079
 20
24.9703
 11
27.9467
 21
25.3838
  0
LINE
  8
0
 10
27.9467
 20
25.3838
 11
28.3125
 21
25.6908
  0
LINE
  8
0
 10
28.3125
 20
25.6908
 11
28.7612
 21
25.8541
  0
LINE
  8
0
 10
28.7612
 20
25.8541
 11
29.2388
 21
25.8541
  0
LINE
  8
0
 10
29.2388
 20
25.8541
 11
29.6875
 21
25.6908
  0
LINE
  8
0
 10
29.6875
 20
25.6908
 11
30.0533
 21
25.3838
  0
LINE
  8
0
 10
30.0533
 20
25.3838
 11
30.2921
 21
24.9703
  0
LINE
  8
0
 10
30.2921
 20
24.9703
 11
30.375
 21
24.5
  0
LINE
  8
0
 10
30.375
 20
24.5
 11
30.2921
 21
24.0297
  0
LINE
  8
0
 10
30.2921
 20
24.0297
 11
30.0533
 21
23.6162
  0
LINE
  8
0
 10
30.0533
 20
23.6162
 11
29.6875
 21
23.3092
  0
LINE
  8
0
 10
29.6875
 20
23.3092
 11
29.2388
 21
23.1459
  0
LINE
  8
0
 10
29.2388
 20
23.1459
 11
28.7612
 21
23.1459
  0
LINE
  8
0
 10
-29.2388
 20
23.1459
 11
-29.6875
 21
23.3092
  0
LINE
  8
0
 10
-29.6875
 20
23.3092
 11
-30.0533
 21
23.6162
  0
LINE
  8
0
 10
-30.0533
 20
23.6162
 11
-30.2921
 21
24.0297
  0
LINE
  8
0
 10
-30.2921
 20
24.0297
 11
-30.375
 21
24.5
  0
LINE
  8
0
 10
-30.375
 20
24.5
 11
-30.2921
 21
24.9703
  0
LINE
  8
0
 10
-30.2921
 20
24.9703
 11
-30.0533
 21
25.3838
  0
LINE
  8
0
 10
-30.0533
 20
25.3838
 11
-29.6875
 21
25.6908
  0
LINE
  8
0
 10
-29.6875
 20
25.6908
 11
-29.2388
 21
25.8541
  0
LINE
  8
0
 10
-29.2388
 20
25.8541
 11
-28.7612
 21
25.8541
  0
LINE
  8
0
 10
-28.7612
 20
25.8541
 11
-28.3125
 21
25.6908
  0
LINE
  8
0
 10
-28.3125
 20
25.6908
 11
-27.9467
 21
25.3838
  0
LINE
  8
0
 10
-27.9467
 20
25.3838
 11
-27.7079
 21
24.9703
  0
LINE
  8
0
 10
-27.7079
 20
24.9703
 11
-27.625
 21
24.5
  0
LINE
  8
0
 10
-27.625
 20
24.5
 11
-27.7079
 21
24.0297
  0
LINE
  8
0
 10
-27.7079
 20
24.0297
 11
-27.9467
 21
23.6162
  0
LINE
  8
0
 10
-27.9467
 20
23.6162
 11
-28.3125
 21
23.3092
  0
LINE
  8
0
 10
-28.3125
 20
23.3092
 11
-28.7612
 21
23.1459
  0
LINE
  8
0
 10
-28.7612
 20
23.1459
 11
-29.2388
 21
23.1459
  0
LINE
  8
0
 10
-29.2388
 20
-25.8541
 11
-29.6875
 21
-25.6908
  0
LINE
  8
0
 10
-29.6875
 20
-25.6908
 11
-30.0533
 21
-25.3838
  0
LINE
  8
0
 10
-30.0533
 20
-25.3838
 11
-30.2921
 21
-24.9703
  0
LINE
  8
0
 10
-30.2921
 20
-24.9703
 11
-30.375
 21
-24.5
  0
LINE
  8
0
 10
-30.375
 20
-24.5
 11
-30.2921
 21
-24.0297
  0
LINE
  8
0
 10
-30.2921
 20
-24.0297
 11
-30.0533
 21
-23.6162
  0
LINE
  8
0
 10
-30.0533
 20
-23.6162
 11
-29.6875
 21
-23.3092
  0
LINE
  8
0
 10
-29.6875
 20
-23.3092
 11
-29.2388
 21
-23.1459
  0
LINE
  8
0
 10
-29.2388
 20
-23.1459
 11
-28.7612
 21
-23.1459
  0
LINE
  8
0
 10
-28.7612
 20
-23.1459
 11
-28.3125
 21
-23.3092
  0
LINE
  8
0
 10
-28.3125
 20
-23.3092
 11
-27.9467
 21
-23.6162
  0
LINE
  8
0
 10
-27.9467
 20
-23.6162
 11
-27.7079
 21
-24.0297
  0
LINE
  8
0
 10
-27.7079
 20
-24.0297
 11
-27.625
 21
-24.5
  0
LINE
  8
0
 10
-27.625
 20
-24.5
 11
-27.7079
 21
-24.9703
  0
LINE
  8
0
 10
-27.7079
 20
-24.9703
 11
-27.9467
 21
-25.3838
  0
LINE
  8
0
 10
-27.9467
 20
-25.3838
 11
-28.3125
 21
-25.6908
  0
LINE
  8
0
 10
-28.3125
 20
-25.6908
 11
-28.7612
 21
-25.8541
  0
LINE
  8
0
 10
-28.7612
 20
-25.8541
 11
-29.2388
 21
-25.8541
  0
LINE
  8
0
 10
28.7612
 20
-25.8541
 11
28.3125
 21
-25.6908
  0
LINE
  8
0
 10
28.3125
 20
-25.6908
 11
27.9467
 21
-25.3838
  0
LINE
  8
0
 10
27.9467
 20
-25.3838
 11
27.7079
 21
-24.9703
  0
LINE
  8
0
 10
27.7079
 20
-24.9703
 11
27.625
 21
-24.5
  0
LINE
  8
0
 10
27.625
 20
-24.5
 11
27.7079
 21
-24.0297
  0
LINE
  8
0
 10
27.7079
 20
-24.0297
 11
27.9467
 21
-23.6162
  0
LINE
  8
0
 10
27.9467
 20
-23.6162
 11
28.3125
 21
-23.3092
  0
LINE
  8
0
 10
28.3125
 20
-23.3092
 11
28.7612
 21
-23.1459
  0
LINE
  8
0
 10
28.7612
 20
-23.1459
 11
29.2388
 21
-23.1459
  0
LINE
  8
0
 10
29.2388
 20
-23.1459
 11
29.6875
 21
-23.3092
  0
LINE
  8
0
 10
29.6875
 20
-23.3092
 11
30.0533
 21
-23.6162
  0
LINE
  8
0
 10
30.0533
 20
-23.6162
 11
30.2921
 21
-24.0297
  0
LINE
  8
0
 10
30.2921
 20
-24.0297
 11
30.375
 21
-24.5
  0
LINE
  8
0
 10
30.375
 20
-24.5
 11
30.2921
 21
-24.9703
  0
LINE
  8
0
 10
30.2921
 20
-24.9703
 11
30.0533
 21
-25.3838
  0
LINE
  8
0
 10
30.0533
 20
-25.3838
 11
29.6875
 21
-25.6908
  0
LINE
  8
0
 10
29.6875
 20
-25.6908
 11
29.2388
 21
-25.8541
  0
LINE
  8
0
 10
29.2388
 20
-25.8541
 11
28.7612
 21
-25.8541
  0
LINE
  8
0
 10
20.05
 20
-31.2794
 11
19.7206
 21
-30.95
  0
LINE
  8
0
 10
19.7206
 20
-30.95
 11
19.6
 21
-30.5
  0
LINE
  8
0
 10
19.6
 20
-30.5
 11
19.7206
 21
-30.05
  0
LINE
  8
0
 10
19.7206
 20
-30.05
 11
20.05
 21
-29.7206
  0
LINE
  8
0
 10
20.05
 20
-29.7206
 11
20.5
 21
-29.6
  0
LINE
  8
0
 10
20.5
 20
-29.6
 11
20.95
 21
-29.7206
  0
LINE
  8
0
 10
20.95
 20
-29.7206
 11
21.2794
 21
-30.05
  0
LINE
  8
0
 10
21.2794
 20
-30.05
 11
21.4
 21
-30.5
  0
LINE
  8
0
 10
21.4
 20
-30.5
 11
21.2794
 21
-30.95
  0
LINE
  8
0
 10
21.2794
 20
-30.95
 11
20.95
 21
-31.2794
  0
LINE
  8
0
 10
20.95
 20
-31.2794
 11
20.5
 21
-31.4
  0
LINE
  8
0
 10
20.5
 20
-31.4
 11
20.05
 21
-31.2794
  0
LINE
  8
0
 10
-20.95
 20
-31.2794
 11
-21.2794
 21
-30.95
  0
LINE
  8
0
 10
-21.2794
 20
-30.95
 11
-21.4
 21
-30.5
  0
LINE
  8
0
 10
-21.4
 20
-30.5
 11
-21.2794
 21
-30.05
  0
LINE
  8
0
 10
-21.2794
 20
-30.05
 11
-20.95
 21
-29.7206
  0
LINE
  8
0
 10
-20.95
 20
-29.7206
 11
-20.5
 21
-29.6
  0
LINE
  8
0
 10
-20.5
 20
-29.6
 11
-20.05
 21
-29.7206
  0
LINE
  8
0
 10
-20.05
 20
-29.7206
 11
-19.7206
 21
-30.05
  0
LINE
  8
0
 10
-19.7206
 20
-30.05
 11
-19.6
 21
-30.5
  0
LINE
  8
0
 10
-19.6
 20
-30.5
 11
-19.7206
 21
-30.95
  0
LINE
  8
0
 10
-19.7206
 20
-30.95
 11
-20.05
 21
-31.2794
  0
LINE
  8
0
 10
-20.05
 20
-31.2794
 11
-20.5
 21
-31.4
  0
LINE
  8
0
 10
-20.5
 20
-31.4
 11
-20.95
 21
-31.2794
  0
ENDSEC
  0
SECTION
  2
OBJECTS
  0
DICTIONARY
  0
ENDSEC
  0
EOF
