  0
SECTION
  2
BLOCKS
  0
ENDSEC
  0
SECTION
  2
ENTITIES
  0
LINE
  8
0
 10
0
 11
0
 20
0
 21
53.3
  0
LINE
  8
0
 10
0
 11
68.6
 20
53.3
 21
53.3
  0
LINE
  8
0
 10
68.6
 11
68.6
 20
53.3
 21
0
  0
LINE
  8
0
 10
68.6
 11
0
 20
0
 21
0
  0
LINE
  8
0
 10
12.418
 11
12.418
 20
50.561
 21
51.039
  0
LINE
  8
0
 10
12.418
 11
12.558
 20
51.039
 21
51.494
  0
LINE
  8
0
 10
12.558
 11
12.827
 20
51.494
 21
51.888
  0
LINE
  8
0
 10
12.827
 11
13.2
 20
51.888
 21
52.186
  0
LINE
  8
0
 10
13.2
 11
13.644
 20
52.186
 21
52.36
  0
LINE
  8
0
 10
13.644
 11
14.12
 20
52.36
 21
52.396
  0
LINE
  8
0
 10
14.12
 11
14.584
 20
52.396
 21
52.289
  0
LINE
  8
0
 10
14.584
 11
14.998
 20
52.289
 21
52.051
  0
LINE
  8
0
 10
14.998
 11
15.322
 20
52.051
 21
51.701
  0
LINE
  8
0
 10
15.322
 11
15.529
 20
51.701
 21
51.272
  0
LINE
  8
0
 10
15.529
 11
15.6
 20
51.272
 21
50.8
  0
LINE
  8
0
 10
15.6
 11
15.529
 20
50.8
 21
50.328
  0
LINE
  8
0
 10
15.529
 11
15.322
 20
50.328
 21
49.899
  0
LINE
  8
0
 10
15.322
 11
14.998
 20
49.899
 21
49.549
  0
LINE
  8
0
 10
14.998
 11
14.584
 20
49.549
 21
49.311
  0
LINE
  8
0
 10
14.584
 11
14.12
 20
49.311
 21
49.204
  0
LINE
  8
0
 10
14.12
 11
13.644
 20
49.204
 21
49.24
  0
LINE
  8
0
 10
13.644
 11
13.2
 20
49.24
 21
49.414
  0
LINE
  8
0
 10
13.2
 11
12.827
 20
49.414
 21
49.712
  0
LINE
  8
0
 10
12.827
 11
12.558
 20
49.712
 21
50.106
  0
LINE
  8
0
 10
12.558
 11
12.418
 20
50.106
 21
50.561
  0
LINE
  8
0
 10
13.718
 11
13.718
 20
2.262
 21
2.738
  0
LINE
  8
0
 10
13.718
 11
13.858
 20
2.738
 21
3.194
  0
LINE
  8
0
 10
13.858
 11
14.127
 20
3.194
 21
3.588
  0
LINE
  8
0
 10
14.127
 11
14.5
 20
3.588
 21
3.886
  0
LINE
  8
0
 10
14.5
 11
14.944
 20
3.886
 21
4.06
  0
LINE
  8
0
 10
14.944
 11
15.42
 20
4.06
 21
4.096
  0
LINE
  8
0
 10
15.42
 11
15.884
 20
4.096
 21
3.989
  0
LINE
  8
0
 10
15.884
 11
16.298
 20
3.989
 21
3.751
  0
LINE
  8
0
 10
16.298
 11
16.622
 20
3.751
 21
3.401
  0
LINE
  8
0
 10
16.622
 11
16.829
 20
3.401
 21
2.972
  0
LINE
  8
0
 10
16.829
 11
16.9
 20
2.972
 21
2.5
  0
LINE
  8
0
 10
16.9
 11
16.829
 20
2.5
 21
2.028
  0
LINE
  8
0
 10
16.829
 11
16.622
 20
2.028
 21
1.599
  0
LINE
  8
0
 10
16.622
 11
16.298
 20
1.599
 21
1.249
  0
LINE
  8
0
 10
16.298
 11
15.884
 20
1.249
 21
1.011
  0
LINE
  8
0
 10
15.884
 11
15.42
 20
1.011
 21
0.904
  0
LINE
  8
0
 10
15.42
 11
14.944
 20
0.904
 21
0.94
  0
LINE
  8
0
 10
14.944
 11
14.5
 20
0.94
 21
1.114
  0
LINE
  8
0
 10
14.5
 11
14.127
 20
1.114
 21
1.412
  0
LINE
  8
0
 10
14.127
 11
13.858
 20
1.412
 21
1.806
  0
LINE
  8
0
 10
13.858
 11
13.718
 20
1.806
 21
2.262
  0
LINE
  8
0
 10
64.518
 11
64.518
 20
17.462
 21
17.938
  0
LINE
  8
0
 10
64.518
 11
64.658
 20
17.938
 21
18.394
  0
LINE
  8
0
 10
64.658
 11
64.927
 20
18.394
 21
18.788
  0
LINE
  8
0
 10
64.927
 11
65.3
 20
18.788
 21
19.086
  0
LINE
  8
0
 10
65.3
 11
65.744
 20
19.086
 21
19.26
  0
LINE
  8
0
 10
65.744
 11
66.22
 20
19.26
 21
19.296
  0
LINE
  8
0
 10
66.22
 11
66.685
 20
19.296
 21
19.189
  0
LINE
  8
0
 10
66.685
 11
67.098
 20
19.189
 21
18.951
  0
LINE
  8
0
 10
67.098
 11
67.422
 20
18.951
 21
18.601
  0
LINE
  8
0
 10
67.422
 11
67.629
 20
18.601
 21
18.172
  0
LINE
  8
0
 10
67.629
 11
67.7
 20
18.172
 21
17.7
  0
LINE
  8
0
 10
67.7
 11
67.629
 20
17.7
 21
17.228
  0
LINE
  8
0
 10
67.629
 11
67.422
 20
17.228
 21
16.799
  0
LINE
  8
0
 10
67.422
 11
67.098
 20
16.799
 21
16.449
  0
LINE
  8
0
 10
67.098
 11
66.685
 20
16.449
 21
16.211
  0
LINE
  8
0
 10
66.685
 11
66.22
 20
16.211
 21
16.104
  0
LINE
  8
0
 10
66.22
 11
65.744
 20
16.104
 21
16.14
  0
LINE
  8
0
 10
65.744
 11
65.3
 20
16.14
 21
16.314
  0
LINE
  8
0
 10
65.3
 11
64.927
 20
16.314
 21
16.612
  0
LINE
  8
0
 10
64.927
 11
64.658
 20
16.612
 21
17.006
  0
LINE
  8
0
 10
64.658
 11
64.518
 20
17.006
 21
17.462
  0
LINE
  8
0
 10
64.518
 11
64.518
 20
45.362
 21
45.838
  0
LINE
  8
0
 10
64.518
 11
64.658
 20
45.838
 21
46.294
  0
LINE
  8
0
 10
64.658
 11
64.927
 20
46.294
 21
46.688
  0
LINE
  8
0
 10
64.927
 11
65.3
 20
46.688
 21
46.986
  0
LINE
  8
0
 10
65.3
 11
65.744
 20
46.986
 21
47.16
  0
LINE
  8
0
 10
65.744
 11
66.22
 20
47.16
 21
47.195
  0
LINE
  8
0
 10
66.22
 11
66.685
 20
47.195
 21
47.089
  0
LINE
  8
0
 10
66.685
 11
67.098
 20
47.089
 21
46.851
  0
LINE
  8
0
 10
67.098
 11
67.422
 20
46.851
 21
46.501
  0
LINE
  8
0
 10
67.422
 11
67.629
 20
46.501
 21
46.072
  0
LINE
  8
0
 10
67.629
 11
67.7
 20
46.072
 21
45.6
  0
LINE
  8
0
 10
67.7
 11
67.629
 20
45.6
 21
45.128
  0
LINE
  8
0
 10
67.629
 11
67.422
 20
45.128
 21
44.699
  0
LINE
  8
0
 10
67.422
 11
67.098
 20
44.699
 21
44.349
  0
LINE
  8
0
 10
67.098
 11
66.685
 20
44.349
 21
44.111
  0
LINE
  8
0
 10
66.685
 11
66.22
 20
44.111
 21
44.005
  0
LINE
  8
0
 10
66.22
 11
65.744
 20
44.005
 21
44.04
  0
LINE
  8
0
 10
65.744
 11
65.3
 20
44.04
 21
44.214
  0
LINE
  8
0
 10
65.3
 11
64.927
 20
44.214
 21
44.512
  0
LINE
  8
0
 10
64.927
 11
64.658
 20
44.512
 21
44.906
  0
LINE
  8
0
 10
64.658
 11
64.518
 20
44.906
 21
45.362
  0
LINE
  8
0
 10
70
 11
70
 20
0
 21
22.3
  0
LINE
  8
0
 10
70
 11
134.5
 20
22.3
 21
22.3
  0
LINE
  8
0
 10
134.5
 11
134.5
 20
22.3
 21
0
  0
LINE
  8
0
 10
134.5
 11
70
 20
0
 21
0
  0
LINE
  8
0
 10
75.2
 11
75.331
 20
11.15
 21
12.397
  0
LINE
  8
0
 10
75.331
 11
75.719
 20
12.397
 21
13.59
  0
LINE
  8
0
 10
75.719
 11
76.346
 20
13.59
 21
14.677
  0
LINE
  8
0
 10
76.346
 11
77.185
 20
14.677
 21
15.609
  0
LINE
  8
0
 10
77.185
 11
78.2
 20
15.609
 21
16.346
  0
LINE
  8
0
 10
78.2
 11
79.346
 20
16.346
 21
16.856
  0
LINE
  8
0
 10
79.346
 11
80.573
 20
16.856
 21
17.117
  0
LINE
  8
0
 10
80.573
 11
81.827
 20
17.117
 21
17.117
  0
LINE
  8
0
 10
81.827
 11
83.054
 20
17.117
 21
16.856
  0
LINE
  8
0
 10
83.054
 11
84.2
 20
16.856
 21
16.346
  0
LINE
  8
0
 10
84.2
 11
85.215
 20
16.346
 21
15.609
  0
LINE
  8
0
 10
85.215
 11
86.054
 20
15.609
 21
14.677
  0
LINE
  8
0
 10
86.054
 11
86.681
 20
14.677
 21
13.59
  0
LINE
  8
0
 10
86.681
 11
87.069
 20
13.59
 21
12.397
  0
LINE
  8
0
 10
87.069
 11
87.2
 20
12.397
 21
11.15
  0
LINE
  8
0
 10
87.2
 11
87.069
 20
11.15
 21
9.903
  0
LINE
  8
0
 10
87.069
 11
86.681
 20
9.903
 21
8.71
  0
LINE
  8
0
 10
86.681
 11
86.054
 20
8.71
 21
7.623
  0
LINE
  8
0
 10
86.054
 11
85.215
 20
7.623
 21
6.691
  0
LINE
  8
0
 10
85.215
 11
84.2
 20
6.691
 21
5.954
  0
LINE
  8
0
 10
84.2
 11
83.054
 20
5.954
 21
5.444
  0
LINE
  8
0
 10
83.054
 11
81.827
 20
5.444
 21
5.183
  0
LINE
  8
0
 10
81.827
 11
80.573
 20
5.183
 21
5.183
  0
LINE
  8
0
 10
80.573
 11
79.346
 20
5.183
 21
5.444
  0
LINE
  8
0
 10
79.346
 11
78.2
 20
5.444
 21
5.954
  0
LINE
  8
0
 10
78.2
 11
77.185
 20
5.954
 21
6.691
  0
LINE
  8
0
 10
77.185
 11
76.346
 20
6.691
 21
7.623
  0
LINE
  8
0
 10
76.346
 11
75.719
 20
7.623
 21
8.71
  0
LINE
  8
0
 10
75.719
 11
75.331
 20
8.71
 21
9.903
  0
LINE
  8
0
 10
75.331
 11
75.2
 20
9.903
 21
11.15
  0
LINE
  8
0
 10
91.8
 11
91.858
 20
11.15
 21
11.629
  0
LINE
  8
0
 10
91.858
 11
92.029
 20
11.629
 21
12.079
  0
LINE
  8
0
 10
92.029
 11
92.303
 20
12.079
 21
12.476
  0
LINE
  8
0
 10
92.303
 11
92.664
 20
12.476
 21
12.796
  0
LINE
  8
0
 10
92.664
 11
93.091
 20
12.796
 21
13.02
  0
LINE
  8
0
 10
93.091
 11
93.559
 20
13.02
 21
13.135
  0
LINE
  8
0
 10
93.559
 11
94.041
 20
13.135
 21
13.135
  0
LINE
  8
0
 10
94.041
 11
94.509
 20
13.135
 21
13.02
  0
LINE
  8
0
 10
94.509
 11
94.936
 20
13.02
 21
12.796
  0
LINE
  8
0
 10
94.936
 11
95.297
 20
12.796
 21
12.476
  0
LINE
  8
0
 10
95.297
 11
95.571
 20
12.476
 21
12.079
  0
LINE
  8
0
 10
95.571
 11
95.742
 20
12.079
 21
11.629
  0
LINE
  8
0
 10
95.742
 11
95.8
 20
11.629
 21
11.15
  0
LINE
  8
0
 10
95.8
 11
95.742
 20
11.15
 21
10.671
  0
LINE
  8
0
 10
95.742
 11
95.571
 20
10.671
 21
10.221
  0
LINE
  8
0
 10
95.571
 11
95.297
 20
10.221
 21
9.824
  0
LINE
  8
0
 10
95.297
 11
94.936
 20
9.824
 21
9.504
  0
LINE
  8
0
 10
94.936
 11
94.509
 20
9.504
 21
9.28
  0
LINE
  8
0
 10
94.509
 11
94.041
 20
9.28
 21
9.165
  0
LINE
  8
0
 10
94.041
 11
93.559
 20
9.165
 21
9.165
  0
LINE
  8
0
 10
93.559
 11
93.091
 20
9.165
 21
9.28
  0
LINE
  8
0
 10
93.091
 11
92.664
 20
9.28
 21
9.504
  0
LINE
  8
0
 10
92.664
 11
92.303
 20
9.504
 21
9.824
  0
LINE
  8
0
 10
92.303
 11
92.029
 20
9.824
 21
10.221
  0
LINE
  8
0
 10
92.029
 11
91.858
 20
10.221
 21
10.671
  0
LINE
  8
0
 10
91.858
 11
91.8
 20
10.671
 21
11.15
  0
LINE
  8
0
 10
100.218
 11
100.218
 20
2.162
 21
2.638
  0
LINE
  8
0
 10
100.218
 11
100.358
 20
2.638
 21
3.094
  0
LINE
  8
0
 10
100.358
 11
100.627
 20
3.094
 21
3.488
  0
LINE
  8
0
 10
100.627
 11
101
 20
3.488
 21
3.786
  0
LINE
  8
0
 10
101
 11
101.444
 20
3.786
 21
3.96
  0
LINE
  8
0
 10
101.444
 11
101.92
 20
3.96
 21
3.996
  0
LINE
  8
0
 10
101.92
 11
102.385
 20
3.996
 21
3.889
  0
LINE
  8
0
 10
102.385
 11
102.798
 20
3.889
 21
3.651
  0
LINE
  8
0
 10
102.798
 11
103.122
 20
3.651
 21
3.301
  0
LINE
  8
0
 10
103.122
 11
103.329
 20
3.301
 21
2.872
  0
LINE
  8
0
 10
103.329
 11
103.4
 20
2.872
 21
2.4
  0
LINE
  8
0
 10
103.4
 11
103.329
 20
2.4
 21
1.928
  0
LINE
  8
0
 10
103.329
 11
103.122
 20
1.928
 21
1.499
  0
LINE
  8
0
 10
103.122
 11
102.798
 20
1.499
 21
1.149
  0
LINE
  8
0
 10
102.798
 11
102.385
 20
1.149
 21
0.911
  0
LINE
  8
0
 10
102.385
 11
101.92
 20
0.911
 21
0.804
  0
LINE
  8
0
 10
101.92
 11
101.444
 20
0.804
 21
0.84
  0
LINE
  8
0
 10
101.444
 11
101
 20
0.84
 21
1.014
  0
LINE
  8
0
 10
101
 11
100.627
 20
1.014
 21
1.312
  0
LINE
  8
0
 10
100.627
 11
100.358
 20
1.312
 21
1.706
  0
LINE
  8
0
 10
100.358
 11
100.218
 20
1.706
 21
2.162
  0
LINE
  8
0
 10
100.218
 11
100.218
 20
19.662
 21
20.139
  0
LINE
  8
0
 10
100.218
 11
100.358
 20
20.139
 21
20.594
  0
LINE
  8
0
 10
100.358
 11
100.627
 20
20.594
 21
20.988
  0
LINE
  8
0
 10
100.627
 11
101
 20
20.988
 21
21.286
  0
LINE
  8
0
 10
101
 11
101.444
 20
21.286
 21
21.46
  0
LINE
  8
0
 10
101.444
 11
101.92
 20
21.46
 21
21.496
  0
LINE
  8
0
 10
101.92
 11
102.385
 20
21.496
 21
21.389
  0
LINE
  8
0
 10
102.385
 11
102.798
 20
21.389
 21
21.151
  0
LINE
  8
0
 10
102.798
 11
103.122
 20
21.151
 21
20.801
  0
LINE
  8
0
 10
103.122
 11
103.329
 20
20.801
 21
20.372
  0
LINE
  8
0
 10
103.329
 11
103.4
 20
20.372
 21
19.9
  0
LINE
  8
0
 10
103.4
 11
103.329
 20
19.9
 21
19.428
  0
LINE
  8
0
 10
103.329
 11
103.122
 20
19.428
 21
18.999
  0
LINE
  8
0
 10
103.122
 11
102.798
 20
18.999
 21
18.649
  0
LINE
  8
0
 10
102.798
 11
102.385
 20
18.649
 21
18.411
  0
LINE
  8
0
 10
102.385
 11
101.92
 20
18.411
 21
18.305
  0
LINE
  8
0
 10
101.92
 11
101.444
 20
18.305
 21
18.34
  0
LINE
  8
0
 10
101.444
 11
101
 20
18.34
 21
18.514
  0
LINE
  8
0
 10
101
 11
100.627
 20
18.514
 21
18.812
  0
LINE
  8
0
 10
100.627
 11
100.358
 20
18.812
 21
19.206
  0
LINE
  8
0
 10
100.358
 11
100.218
 20
19.206
 21
19.662
  0
LINE
  8
0
 10
112.8
 11
112.8
 20
8.65
 21
13.65
  0
LINE
  8
0
 10
112.8
 11
115.3
 20
13.65
 21
13.65
  0
LINE
  8
0
 10
115.3
 11
115.3
 20
13.65
 21
8.65
  0
LINE
  8
0
 10
115.3
 11
112.8
 20
8.65
 21
8.65
  0
ENDSEC
  0
SECTION
  2
OBJECTS
  0
DICTIONARY
  0
ENDSEC
  0
EOF
