  0
SECTION
  2
BLOCKS
  0
ENDSEC
  0
SECTION
  2
ENTITIES
  0
LINE
  8
0
 10
5.2
 11
5.353
 20
11.15
 21
12.605
  0
LINE
  8
0
 10
5.353
 11
5.805
 20
12.605
 21
13.997
  0
LINE
  8
0
 10
5.805
 11
6.537
 20
13.997
 21
15.264
  0
LINE
  8
0
 10
6.537
 11
7.516
 20
15.264
 21
16.352
  0
LINE
  8
0
 10
7.516
 11
8.7
 20
16.352
 21
17.212
  0
LINE
  8
0
 10
8.7
 11
10.037
 20
17.212
 21
17.807
  0
LINE
  8
0
 10
10.037
 11
11.468
 20
17.807
 21
18.112
  0
LINE
  8
0
 10
11.468
 11
12.932
 20
18.112
 21
18.112
  0
LINE
  8
0
 10
12.932
 11
14.363
 20
18.112
 21
17.807
  0
LINE
  8
0
 10
14.363
 11
15.7
 20
17.807
 21
17.212
  0
LINE
  8
0
 10
15.7
 11
16.884
 20
17.212
 21
16.352
  0
LINE
  8
0
 10
16.884
 11
17.863
 20
16.352
 21
15.264
  0
LINE
  8
0
 10
17.863
 11
18.595
 20
15.264
 21
13.997
  0
LINE
  8
0
 10
18.595
 11
19.047
 20
13.997
 21
12.605
  0
LINE
  8
0
 10
19.047
 11
19.2
 20
12.605
 21
11.15
  0
LINE
  8
0
 10
19.2
 11
19.047
 20
11.15
 21
9.695
  0
LINE
  8
0
 10
19.047
 11
18.595
 20
9.695
 21
8.303
  0
LINE
  8
0
 10
18.595
 11
17.863
 20
8.303
 21
7.036
  0
LINE
  8
0
 10
17.863
 11
16.884
 20
7.036
 21
5.948
  0
LINE
  8
0
 10
16.884
 11
15.7
 20
5.948
 21
5.088
  0
LINE
  8
0
 10
15.7
 11
14.363
 20
5.088
 21
4.493
  0
LINE
  8
0
 10
14.363
 11
12.932
 20
4.493
 21
4.188
  0
LINE
  8
0
 10
12.932
 11
11.468
 20
4.188
 21
4.188
  0
LINE
  8
0
 10
11.468
 11
10.037
 20
4.188
 21
4.493
  0
LINE
  8
0
 10
10.037
 11
8.7
 20
4.493
 21
5.088
  0
LINE
  8
0
 10
8.7
 11
7.516
 20
5.088
 21
5.948
  0
LINE
  8
0
 10
7.516
 11
6.537
 20
5.948
 21
7.036
  0
LINE
  8
0
 10
6.537
 11
5.805
 20
7.036
 21
8.303
  0
LINE
  8
0
 10
5.805
 11
5.353
 20
8.303
 21
9.695
  0
LINE
  8
0
 10
5.353
 11
5.2
 20
9.695
 21
11.15
  0
LINE
  8
0
 10
0
 11
0
 20
0
 21
22.3
  0
LINE
  8
0
 10
0
 11
64.5
 20
22.3
 21
22.3
  0
LINE
  8
0
 10
64.5
 11
64.5
 20
22.3
 21
0
  0
LINE
  8
0
 10
64.5
 11
0
 20
0
 21
0
  0
LINE
  8
0
 10
21.8
 11
21.858
 20
11.15
 21
11.629
  0
LINE
  8
0
 10
21.858
 11
22.029
 20
11.629
 21
12.079
  0
LINE
  8
0
 10
22.029
 11
22.303
 20
12.079
 21
12.476
  0
LINE
  8
0
 10
22.303
 11
22.664
 20
12.476
 21
12.796
  0
LINE
  8
0
 10
22.664
 11
23.091
 20
12.796
 21
13.02
  0
LINE
  8
0
 10
23.091
 11
23.559
 20
13.02
 21
13.135
  0
LINE
  8
0
 10
23.559
 11
24.041
 20
13.135
 21
13.135
  0
LINE
  8
0
 10
24.041
 11
24.509
 20
13.135
 21
13.02
  0
LINE
  8
0
 10
24.509
 11
24.936
 20
13.02
 21
12.796
  0
LINE
  8
0
 10
24.936
 11
25.297
 20
12.796
 21
12.476
  0
LINE
  8
0
 10
25.297
 11
25.571
 20
12.476
 21
12.079
  0
LINE
  8
0
 10
25.571
 11
25.742
 20
12.079
 21
11.629
  0
LINE
  8
0
 10
25.742
 11
25.8
 20
11.629
 21
11.15
  0
LINE
  8
0
 10
25.8
 11
25.742
 20
11.15
 21
10.671
  0
LINE
  8
0
 10
25.742
 11
25.571
 20
10.671
 21
10.221
  0
LINE
  8
0
 10
25.571
 11
25.297
 20
10.221
 21
9.824
  0
LINE
  8
0
 10
25.297
 11
24.936
 20
9.824
 21
9.504
  0
LINE
  8
0
 10
24.936
 11
24.509
 20
9.504
 21
9.28
  0
LINE
  8
0
 10
24.509
 11
24.041
 20
9.28
 21
9.165
  0
LINE
  8
0
 10
24.041
 11
23.559
 20
9.165
 21
9.165
  0
LINE
  8
0
 10
23.559
 11
23.091
 20
9.165
 21
9.28
  0
LINE
  8
0
 10
23.091
 11
22.664
 20
9.28
 21
9.504
  0
LINE
  8
0
 10
22.664
 11
22.303
 20
9.504
 21
9.824
  0
LINE
  8
0
 10
22.303
 11
22.029
 20
9.824
 21
10.221
  0
LINE
  8
0
 10
22.029
 11
21.858
 20
10.221
 21
10.671
  0
LINE
  8
0
 10
21.858
 11
21.8
 20
10.671
 21
11.15
  0
LINE
  8
0
 10
30.218
 11
30.218
 20
19.662
 21
20.138
  0
LINE
  8
0
 10
30.218
 11
30.358
 20
20.138
 21
20.594
  0
LINE
  8
0
 10
30.358
 11
30.627
 20
20.594
 21
20.988
  0
LINE
  8
0
 10
30.627
 11
31
 20
20.988
 21
21.286
  0
LINE
  8
0
 10
31
 11
31.444
 20
21.286
 21
21.46
  0
LINE
  8
0
 10
31.444
 11
31.92
 20
21.46
 21
21.496
  0
LINE
  8
0
 10
31.92
 11
32.385
 20
21.496
 21
21.389
  0
LINE
  8
0
 10
32.385
 11
32.798
 20
21.389
 21
21.151
  0
LINE
  8
0
 10
32.798
 11
33.122
 20
21.151
 21
20.801
  0
LINE
  8
0
 10
33.122
 11
33.329
 20
20.801
 21
20.372
  0
LINE
  8
0
 10
33.329
 11
33.4
 20
20.372
 21
19.9
  0
LINE
  8
0
 10
33.4
 11
33.329
 20
19.9
 21
19.428
  0
LINE
  8
0
 10
33.329
 11
33.122
 20
19.428
 21
18.999
  0
LINE
  8
0
 10
33.122
 11
32.798
 20
18.999
 21
18.649
  0
LINE
  8
0
 10
32.798
 11
32.385
 20
18.649
 21
18.411
  0
LINE
  8
0
 10
32.385
 11
31.92
 20
18.411
 21
18.304
  0
LINE
  8
0
 10
31.92
 11
31.444
 20
18.304
 21
18.34
  0
LINE
  8
0
 10
31.444
 11
31
 20
18.34
 21
18.514
  0
LINE
  8
0
 10
31
 11
30.627
 20
18.514
 21
18.812
  0
LINE
  8
0
 10
30.627
 11
30.358
 20
18.812
 21
19.206
  0
LINE
  8
0
 10
30.358
 11
30.218
 20
19.206
 21
19.662
  0
LINE
  8
0
 10
30.918
 11
30.918
 20
2.162
 21
2.638
  0
LINE
  8
0
 10
30.918
 11
31.058
 20
2.638
 21
3.094
  0
LINE
  8
0
 10
31.058
 11
31.327
 20
3.094
 21
3.488
  0
LINE
  8
0
 10
31.327
 11
31.7
 20
3.488
 21
3.786
  0
LINE
  8
0
 10
31.7
 11
32.144
 20
3.786
 21
3.96
  0
LINE
  8
0
 10
32.144
 11
32.62
 20
3.96
 21
3.996
  0
LINE
  8
0
 10
32.62
 11
33.085
 20
3.996
 21
3.889
  0
LINE
  8
0
 10
33.085
 11
33.498
 20
3.889
 21
3.651
  0
LINE
  8
0
 10
33.498
 11
33.822
 20
3.651
 21
3.301
  0
LINE
  8
0
 10
33.822
 11
34.029
 20
3.301
 21
2.872
  0
LINE
  8
0
 10
34.029
 11
34.1
 20
2.872
 21
2.4
  0
LINE
  8
0
 10
34.1
 11
34.029
 20
2.4
 21
1.928
  0
LINE
  8
0
 10
34.029
 11
33.822
 20
1.928
 21
1.499
  0
LINE
  8
0
 10
33.822
 11
33.498
 20
1.499
 21
1.149
  0
LINE
  8
0
 10
33.498
 11
33.085
 20
1.149
 21
0.911
  0
LINE
  8
0
 10
33.085
 11
32.62
 20
0.911
 21
0.804
  0
LINE
  8
0
 10
32.62
 11
32.144
 20
0.804
 21
0.84
  0
LINE
  8
0
 10
32.144
 11
31.7
 20
0.84
 21
1.014
  0
LINE
  8
0
 10
31.7
 11
31.327
 20
1.014
 21
1.312
  0
LINE
  8
0
 10
31.327
 11
31.058
 20
1.312
 21
1.706
  0
LINE
  8
0
 10
31.058
 11
30.918
 20
1.706
 21
2.162
  0
LINE
  8
0
 10
42.8
 11
42.8
 20
8.65
 21
13.65
  0
LINE
  8
0
 10
42.8
 11
45.3
 20
13.65
 21
13.65
  0
LINE
  8
0
 10
45.3
 11
45.3
 20
13.65
 21
8.65
  0
LINE
  8
0
 10
45.3
 11
42.8
 20
8.65
 21
8.65
  0
ENDSEC
  0
SECTION
  2
OBJECTS
  0
DICTIONARY
  0
ENDSEC
  0
EOF
