solid Slice0
  facet normal 0 0 1
    outer loop
      vertex 84.70335 -1.355224 4.50088
      vertex 84.69204 3.708276 4.50088
      vertex 83.91128 3.994929 4.50088
    endloop
  endfacet
  facet normal 0 -0 1
    outer loop
      vertex 50.20683 -54.61668 4.50088
      vertex 84.71089 -29.10321 4.50088
      vertex 51.44791 6.637919 4.50088
    endloop
  endfacet
  facet normal 0 0 1
    outer loop
      vertex -49.03843 -61.94189 4.50088
      vertex -76.28401 -32.28399 4.50088
      vertex -49.1022 -61.94444 4.50088
    endloop
  endfacet
  facet normal 0 0 1
    outer loop
      vertex 13.0511 -61.94013 4.50088
      vertex 12.12939 -30.27548 4.50088
      vertex 7.064628 -35.34024 4.50088
    endloop
  endfacet
  facet normal 0 -0 1
    outer loop
      vertex 49.97275 -61.96427 4.50088
      vertex 50.09753 -61.74904 4.50088
      vertex 49.88162 -61.95458 4.50088
    endloop
  endfacet
  facet normal 0 0 1
    outer loop
      vertex -71.22702 -61.94483 4.50088
      vertex -76.28401 -32.28399 4.50088
      vertex -75.34178 -61.94376 4.50088
    endloop
  endfacet
  facet normal -0 0 1
    outer loop
      vertex 83.01144 4.335387 4.50088
      vertex 84.69875 -1.362935 4.50088
      vertex 84.70335 -1.355224 4.50088
    endloop
  endfacet
  facet normal 0 0 1
    outer loop
      vertex 84.69875 -1.362935 4.50088
      vertex 83.01144 4.335387 4.50088
      vertex 82.04521 4.765116 4.50088
    endloop
  endfacet
  facet normal 0 -0 1
    outer loop
      vertex -49.03843 -61.94189 4.50088
      vertex -2.755012 -25.5206 4.50088
      vertex -25.65224 6.624123 4.50088
    endloop
  endfacet
  facet normal 0 0 1
    outer loop
      vertex 12.12939 -25.5206 4.50088
      vertex 7.064628 -20.45584 4.50088
      vertex 7.064628 -25.5206 4.50088
    endloop
  endfacet
  facet normal 0 0 1
    outer loop
      vertex -49.1022 -61.94444 4.50088
      vertex -76.28401 -32.28399 4.50088
      vertex -70.3965 -61.90149 4.50088
    endloop
  endfacet
  facet normal -0 -0 1
    outer loop
      vertex -23.13822 6.620717 4.50088
      vertex -2.755012 -25.5206 4.50088
      vertex -22.31784 6.609718 4.50088
    endloop
  endfacet
  facet normal -0 -0 1
    outer loop
      vertex -24.1369 6.620437 4.50088
      vertex -23.59517 6.618516 4.50088
      vertex -23.73206 6.622906 4.50088
    endloop
  endfacet
  facet normal 0 -0 1
    outer loop
      vertex -76.27877 -32.20467 4.50088
      vertex -74.46915 -2.167035 4.50088
      vertex -76.28409 -2.561277 4.50088
    endloop
  endfacet
  facet normal 0 -0 1
    outer loop
      vertex -61.62172 5.390727 4.50088
      vertex -25.65224 6.624123 4.50088
      vertex -61.37695 5.645784 4.50088
    endloop
  endfacet
  facet normal 0 0 1
    outer loop
      vertex -25.65224 6.624123 4.50088
      vertex -76.27877 -32.20467 4.50088
      vertex -49.03843 -61.94189 4.50088
    endloop
  endfacet
  facet normal 0 0 1
    outer loop
      vertex -65.15982 2.346784 4.50088
      vertex -66.24805 1.562276 4.50088
      vertex -66.29076 1.522822 4.50088
    endloop
  endfacet
  facet normal -0 0 1
    outer loop
      vertex -64.20079 3.173814 4.50088
      vertex -65.15982 2.346784 4.50088
      vertex -63.76251 3.457231 4.50088
    endloop
  endfacet
  facet normal 0 -0 1
    outer loop
      vertex -67.05271 1.039325 4.50088
      vertex -66.29076 1.522822 4.50088
      vertex -66.66821 1.313134 4.50088
    endloop
  endfacet
  facet normal 0 0 1
    outer loop
      vertex 13.0511 -61.94013 4.50088
      vertex 12.87495 -61.94099 4.50088
      vertex 12.99929 -61.94493 4.50088
    endloop
  endfacet
  facet normal 0 -0 1
    outer loop
      vertex 7.064628 -20.45584 4.50088
      vertex 13.2908 6.6284 4.50088
      vertex 13.28458 6.627815 4.50088
    endloop
  endfacet
  facet normal 0 0 1
    outer loop
      vertex -70.83067 -61.90864 4.50088
      vertex -76.28401 -32.28399 4.50088
      vertex -71.22702 -61.94483 4.50088
    endloop
  endfacet
  facet normal 0 0 1
    outer loop
      vertex -70.3965 -61.90149 4.50088
      vertex -76.28401 -32.28399 4.50088
      vertex -70.83067 -61.90864 4.50088
    endloop
  endfacet
  facet normal 0 -0 1
    outer loop
      vertex -70.83086 -61.94418 4.50088
      vertex -70.3965 -61.90149 4.50088
      vertex -70.83067 -61.90864 4.50088
    endloop
  endfacet
  facet normal 0 -0 1
    outer loop
      vertex -76.27877 -32.20467 4.50088
      vertex -70.63952 -0.9528755 4.50088
      vertex -70.79908 -1.022471 4.50088
    endloop
  endfacet
  facet normal -0 0 1
    outer loop
      vertex -70.3965 -61.90149 4.50088
      vertex -70.39382 -61.94503 4.50088
      vertex -49.1022 -61.94444 4.50088
    endloop
  endfacet
  facet normal -0 -0 1
    outer loop
      vertex 2.309748 -35.34024 4.50088
      vertex 12.87495 -61.94099 4.50088
      vertex 7.064628 -35.34024 4.50088
    endloop
  endfacet
  facet normal 0 0 1
    outer loop
      vertex 12.99929 -61.94493 4.50088
      vertex 12.87495 -61.94099 4.50088
      vertex 12.97413 -61.94798 4.50088
    endloop
  endfacet
  facet normal 0 0 1
    outer loop
      vertex 13.0511 -61.94013 4.50088
      vertex 7.064628 -35.34024 4.50088
      vertex 12.87495 -61.94099 4.50088
    endloop
  endfacet
  facet normal 0 -0 1
    outer loop
      vertex 49.88162 -61.95458 4.50088
      vertex 50.20683 -54.61668 4.50088
      vertex 13.0511 -61.94013 4.50088
    endloop
  endfacet
  facet normal 0 -0 1
    outer loop
      vertex 50.09514 -61.95928 4.50088
      vertex 50.09753 -61.74904 4.50088
      vertex 49.97275 -61.96427 4.50088
    endloop
  endfacet
  facet normal -0 0 1
    outer loop
      vertex 50.09753 -61.74904 4.50088
      vertex 50.09514 -61.95928 4.50088
      vertex 50.17173 -61.82851 4.50088
    endloop
  endfacet
  facet normal -0 0 1
    outer loop
      vertex 51.41428 6.640931 4.50088
      vertex 50.11562 6.628004 4.50088
      vertex 51.44791 6.637919 4.50088
    endloop
  endfacet
  facet normal -0 0 1
    outer loop
      vertex 50.20683 -54.61668 4.50088
      vertex 49.88162 -61.95458 4.50088
      vertex 50.09753 -61.74904 4.50088
    endloop
  endfacet
  facet normal -0 0 1
    outer loop
      vertex 51.93313 -57.17127 4.50088
      vertex 55.27932 -61.9448 4.50088
      vertex 84.71624 -61.94369 4.50088
    endloop
  endfacet
  facet normal 0 -0 1
    outer loop
      vertex 51.93313 -57.17127 4.50088
      vertex 84.71035 -29.12045 4.50088
      vertex 50.20683 -54.61668 4.50088
    endloop
  endfacet
  facet normal 0 0 1
    outer loop
      vertex 84.71035 -29.12045 4.50088
      vertex 51.93313 -57.17127 4.50088
      vertex 84.71624 -61.94369 4.50088
    endloop
  endfacet
  facet normal -0 0 1
    outer loop
      vertex 84.71089 -29.10321 4.50088
      vertex 50.20683 -54.61668 4.50088
      vertex 84.71035 -29.12045 4.50088
    endloop
  endfacet
  facet normal 0 0 1
    outer loop
      vertex 84.71438 -29.08703 4.50088
      vertex 51.44791 6.637919 4.50088
      vertex 84.71089 -29.10321 4.50088
    endloop
  endfacet
  facet normal 0 0 1
    outer loop
      vertex 79.12089 6.628692 4.50088
      vertex 67.82296 6.503685 4.50088
      vertex 79.5915 6.284524 4.50088
    endloop
  endfacet
  facet normal 0 0 1
    outer loop
      vertex 84.69638 3.755054 4.50088
      vertex 83.91128 3.994929 4.50088
      vertex 84.69204 3.708276 4.50088
    endloop
  endfacet
  facet normal -0 -0 1
    outer loop
      vertex 83.01144 4.335387 4.50088
      vertex 84.70335 -1.355224 4.50088
      vertex 83.4389 4.159497 4.50088
    endloop
  endfacet
  facet normal 0 0 1
    outer loop
      vertex 84.70335 -1.355224 4.50088
      vertex 83.91128 3.994929 4.50088
      vertex 83.4389 4.159497 4.50088
    endloop
  endfacet
  facet normal 0 0 1
    outer loop
      vertex 79.5915 6.284524 4.50088
      vertex 67.82296 6.503685 4.50088
      vertex 84.69875 -1.362935 4.50088
    endloop
  endfacet
  facet normal 0 0 1
    outer loop
      vertex 84.69875 -1.362935 4.50088
      vertex 82.04521 4.765116 4.50088
      vertex 81.90298 4.813705 4.50088
    endloop
  endfacet
  facet normal 0 0 1
    outer loop
      vertex 84.69875 -1.362935 4.50088
      vertex 81.90298 4.813705 4.50088
      vertex 81.67381 4.935435 4.50088
    endloop
  endfacet
  facet normal 0 0 1
    outer loop
      vertex 84.69875 -1.362935 4.50088
      vertex 81.67381 4.935435 4.50088
      vertex 79.5915 6.284524 4.50088
    endloop
  endfacet
  facet normal 0 0 1
    outer loop
      vertex 84.69875 -1.362935 4.50088
      vertex 67.82296 6.503685 4.50088
      vertex 84.71438 -29.08703 4.50088
    endloop
  endfacet
  facet normal 0 -0 1
    outer loop
      vertex 67.8299 6.562153 4.50088
      vertex 79.12089 6.628692 4.50088
      vertex 67.72891 6.622865 4.50088
    endloop
  endfacet
  facet normal 0 0 1
    outer loop
      vertex 84.71438 -29.08703 4.50088
      vertex 65.68757 6.582254 4.50088
      vertex 51.44791 6.637919 4.50088
    endloop
  endfacet
  facet normal 0 -0 1
    outer loop
      vertex 67.82296 6.503685 4.50088
      vertex 79.12089 6.628692 4.50088
      vertex 67.8299 6.562153 4.50088
    endloop
  endfacet
  facet normal -0 -0 1
    outer loop
      vertex 65.68757 6.582254 4.50088
      vertex 84.71438 -29.08703 4.50088
      vertex 67.82296 6.503685 4.50088
    endloop
  endfacet
  facet normal 0 0 1
    outer loop
      vertex 51.44791 6.637919 4.50088
      vertex 50.11562 6.628004 4.50088
      vertex 50.20683 -54.61668 4.50088
    endloop
  endfacet
  facet normal 0 -0 1
    outer loop
      vertex 50.11562 6.628004 4.50088
      vertex 51.41428 6.640931 4.50088
      vertex 50.12664 6.629766 4.50088
    endloop
  endfacet
  facet normal 0 0 1
    outer loop
      vertex 50.11562 6.628004 4.50088
      vertex 45.58372 6.642355 4.50088
      vertex 47.04112 6.502193 4.50088
    endloop
  endfacet
  facet normal 0 0 1
    outer loop
      vertex 50.20683 -54.61668 4.50088
      vertex 50.11562 6.628004 4.50088
      vertex 47.04112 6.502193 4.50088
    endloop
  endfacet
  facet normal 0 0 1
    outer loop
      vertex 46.73752 6.488797 4.50088
      vertex 42.46092 6.594883 4.50088
      vertex 50.20683 -54.61668 4.50088
    endloop
  endfacet
  facet normal 0 0 1
    outer loop
      vertex 47.04112 6.502193 4.50088
      vertex 46.73752 6.488797 4.50088
      vertex 50.20683 -54.61668 4.50088
    endloop
  endfacet
  facet normal 0 -0 1
    outer loop
      vertex 46.73752 6.488797 4.50088
      vertex 47.04112 6.502193 4.50088
      vertex 46.93224 6.503762 4.50088
    endloop
  endfacet
  facet normal -0 -0 1
    outer loop
      vertex 45.46513 6.64559 4.50088
      vertex 47.04112 6.502193 4.50088
      vertex 45.58372 6.642355 4.50088
    endloop
  endfacet
  facet normal -0 0 1
    outer loop
      vertex 30.15643 6.530624 4.50088
      vertex 12.12939 -25.5206 4.50088
      vertex 42.46092 6.594883 4.50088
    endloop
  endfacet
  facet normal -0 0 1
    outer loop
      vertex 26.23955 6.611585 4.50088
      vertex 12.12939 -25.5206 4.50088
      vertex 30.15643 6.530624 4.50088
    endloop
  endfacet
  facet normal -0 0 1
    outer loop
      vertex 13.2908 6.6284 4.50088
      vertex 7.064628 -20.45584 4.50088
      vertex 26.23955 6.611585 4.50088
    endloop
  endfacet
  facet normal -0 0 1
    outer loop
      vertex 13.19923 6.62429 4.50088
      vertex 2.309748 -20.45584 4.50088
      vertex 7.064628 -20.45584 4.50088
    endloop
  endfacet
  facet normal 0 -0 1
    outer loop
      vertex 7.064628 -20.45584 4.50088
      vertex 13.28458 6.627815 4.50088
      vertex 13.19923 6.62429 4.50088
    endloop
  endfacet
  facet normal 0 0 1
    outer loop
      vertex -22.31784 6.609718 4.50088
      vertex -22.84855 6.629019 4.50088
      vertex -23.13822 6.620717 4.50088
    endloop
  endfacet
  facet normal 0 0 1
    outer loop
      vertex -22.31784 6.609718 4.50088
      vertex -22.3698 6.635598 4.50088
      vertex -22.43137 6.622705 4.50088
    endloop
  endfacet
  facet normal -0 -0 1
    outer loop
      vertex -22.84855 6.629019 4.50088
      vertex -22.31784 6.609718 4.50088
      vertex -22.43137 6.622705 4.50088
    endloop
  endfacet
  facet normal 0 -0 1
    outer loop
      vertex -23.59517 6.618516 4.50088
      vertex -23.13822 6.620717 4.50088
      vertex -23.46569 6.62296 4.50088
    endloop
  endfacet
  facet normal -0 -0 1
    outer loop
      vertex -23.59517 6.618516 4.50088
      vertex -2.755012 -25.5206 4.50088
      vertex -23.13822 6.620717 4.50088
    endloop
  endfacet
  facet normal 0 0 1
    outer loop
      vertex -24.1369 6.620437 4.50088
      vertex -25.15778 6.636215 4.50088
      vertex -25.65224 6.624123 4.50088
    endloop
  endfacet
  facet normal -0 -0 1
    outer loop
      vertex -24.1369 6.620437 4.50088
      vertex -2.755012 -25.5206 4.50088
      vertex -23.59517 6.618516 4.50088
    endloop
  endfacet
  facet normal 0 0 1
    outer loop
      vertex -25.65224 6.624123 4.50088
      vertex -60.47765 6.618656 4.50088
      vertex -60.50858 6.580981 4.50088
    endloop
  endfacet
  facet normal 0 0 1
    outer loop
      vertex -25.65224 6.624123 4.50088
      vertex -60.50858 6.580981 4.50088
      vertex -61.27158 5.764054 4.50088
    endloop
  endfacet
  facet normal 0 0 1
    outer loop
      vertex -25.65224 6.624123 4.50088
      vertex -61.27158 5.764054 4.50088
      vertex -61.37695 5.645784 4.50088
    endloop
  endfacet
  facet normal 0 0 1
    outer loop
      vertex -25.65224 6.624123 4.50088
      vertex -61.62172 5.390727 4.50088
      vertex -61.85034 5.174898 4.50088
    endloop
  endfacet
  facet normal 0 0 1
    outer loop
      vertex -25.65224 6.624123 4.50088
      vertex -61.85034 5.174898 4.50088
      vertex -63.13988 4.005145 4.50088
    endloop
  endfacet
  facet normal -0 0 1
    outer loop
      vertex -63.13988 4.005145 4.50088
      vertex -63.76251 3.457231 4.50088
      vertex -25.65224 6.624123 4.50088
    endloop
  endfacet
  facet normal 0 -0 1
    outer loop
      vertex -63.76251 3.457231 4.50088
      vertex -63.13988 4.005145 4.50088
      vertex -63.29962 3.870915 4.50088
    endloop
  endfacet
  facet normal 0 -0 1
    outer loop
      vertex -64.20079 3.173814 4.50088
      vertex -63.76251 3.457231 4.50088
      vertex -64.08632 3.253416 4.50088
    endloop
  endfacet
  facet normal 0 0 1
    outer loop
      vertex -64.08632 3.253416 4.50088
      vertex -64.15417 3.212335 4.50088
      vertex -64.20079 3.173814 4.50088
    endloop
  endfacet
  facet normal 0 -0 1
    outer loop
      vertex -76.27877 -32.20467 4.50088
      vertex -63.76251 3.457231 4.50088
      vertex -65.15982 2.346784 4.50088
    endloop
  endfacet
  facet normal -0 0 1
    outer loop
      vertex -63.76251 3.457231 4.50088
      vertex -76.27877 -32.20467 4.50088
      vertex -25.65224 6.624123 4.50088
    endloop
  endfacet
  facet normal 0 -0 1
    outer loop
      vertex -76.27877 -32.20467 4.50088
      vertex -65.15982 2.346784 4.50088
      vertex -66.29076 1.522822 4.50088
    endloop
  endfacet
  facet normal 0 -0 1
    outer loop
      vertex -76.27877 -32.20467 4.50088
      vertex -68.30379 0.3117868 4.50088
      vertex -70.63952 -0.9528755 4.50088
    endloop
  endfacet
  facet normal 0 -0 1
    outer loop
      vertex -76.27877 -32.20467 4.50088
      vertex -66.29076 1.522822 4.50088
      vertex -67.05271 1.039325 4.50088
    endloop
  endfacet
  facet normal 0 -0 1
    outer loop
      vertex -76.27877 -32.20467 4.50088
      vertex -67.05271 1.039325 4.50088
      vertex -68.30379 0.3117868 4.50088
    endloop
  endfacet
  facet normal 0 -0 1
    outer loop
      vertex -71.8915 -1.440552 4.50088
      vertex -71.20286 -1.164609 4.50088
      vertex -71.5296 -1.270538 4.50088
    endloop
  endfacet
  facet normal 0 -0 1
    outer loop
      vertex -71.20286 -1.164609 4.50088
      vertex -70.79908 -1.022471 4.50088
      vertex -71.16132 -1.147076 4.50088
    endloop
  endfacet
  facet normal 0 -0 1
    outer loop
      vertex -71.8915 -1.440552 4.50088
      vertex -70.79908 -1.022471 4.50088
      vertex -71.20286 -1.164609 4.50088
    endloop
  endfacet
  facet normal 0 -0 1
    outer loop
      vertex -76.27877 -32.20467 4.50088
      vertex -70.79908 -1.022471 4.50088
      vertex -71.8915 -1.440552 4.50088
    endloop
  endfacet
  facet normal -0 0 1
    outer loop
      vertex -73.2888 -1.865542 4.50088
      vertex -73.35192 -1.88645 4.50088
      vertex -73.24461 -1.855828 4.50088
    endloop
  endfacet
  facet normal -0 0 1
    outer loop
      vertex -73.31152 -1.869925 4.50088
      vertex -73.35192 -1.88645 4.50088
      vertex -73.2888 -1.865542 4.50088
    endloop
  endfacet
  facet normal 0 -0 1
    outer loop
      vertex -76.27877 -32.20467 4.50088
      vertex -73.35192 -1.88645 4.50088
      vertex -73.74031 -1.989753 4.50088
    endloop
  endfacet
  facet normal 0 -0 1
    outer loop
      vertex -76.27877 -32.20467 4.50088
      vertex -71.8915 -1.440552 4.50088
      vertex -73.24461 -1.855828 4.50088
    endloop
  endfacet
  facet normal 0 -0 1
    outer loop
      vertex -76.27877 -32.20467 4.50088
      vertex -73.24461 -1.855828 4.50088
      vertex -73.35192 -1.88645 4.50088
    endloop
  endfacet
  facet normal 0 -0 1
    outer loop
      vertex -76.27877 -32.20467 4.50088
      vertex -73.74031 -1.989753 4.50088
      vertex -74.46915 -2.167035 4.50088
    endloop
  endfacet
  facet normal -0 0 1
    outer loop
      vertex -76.28401 -32.28399 4.50088
      vertex -75.3993 -61.94386 4.50088
      vertex -75.34178 -61.94376 4.50088
    endloop
  endfacet
  facet normal 0 0 1
    outer loop
      vertex -76.27877 -32.20467 4.50088
      vertex -76.28401 -32.28399 4.50088
      vertex -49.03843 -61.94189 4.50088
    endloop
  endfacet
  facet normal 0 -0 1
    outer loop
      vertex -76.28401 -32.28399 4.50088
      vertex -76.27877 -32.20467 4.50088
      vertex -76.28351 -32.27375 4.50088
    endloop
  endfacet
  facet normal 0 0 1
    outer loop
      vertex -75.3993 -61.94386 4.50088
      vertex -76.28401 -32.28399 4.50088
      vertex -76.28393 -61.94522 4.50088
    endloop
  endfacet
  facet normal 0 0 1
    outer loop
      vertex 12.87495 -61.94099 4.50088
      vertex 2.309748 -35.34024 4.50088
      vertex -49.03843 -61.94189 4.50088
    endloop
  endfacet
  facet normal 0 0 1
    outer loop
      vertex 2.309748 -35.34024 4.50088
      vertex -2.755012 -30.27548 4.50088
      vertex -49.03843 -61.94189 4.50088
    endloop
  endfacet
  facet normal -0 0 1
    outer loop
      vertex -2.755012 -30.27548 4.50088
      vertex 2.309748 -35.34024 4.50088
      vertex 2.309748 -30.27548 4.50088
    endloop
  endfacet
  facet normal -0 -0 1
    outer loop
      vertex -25.65224 6.624123 4.50088
      vertex -2.755012 -25.5206 4.50088
      vertex -24.1369 6.620437 4.50088
    endloop
  endfacet
  facet normal 0 -0 1
    outer loop
      vertex 2.309748 -20.45584 4.50088
      vertex 13.19923 6.62429 4.50088
      vertex -22.31784 6.609718 4.50088
    endloop
  endfacet
  facet normal -0 0 1
    outer loop
      vertex -2.755012 -25.5206 4.50088
      vertex -49.03843 -61.94189 4.50088
      vertex -2.755012 -30.27548 4.50088
    endloop
  endfacet
  facet normal 0 -0 1
    outer loop
      vertex 2.309748 -25.5206 4.50088
      vertex 2.309748 -20.45584 4.50088
      vertex -2.755012 -25.5206 4.50088
    endloop
  endfacet
  facet normal -0 0 1
    outer loop
      vertex -22.31784 6.609718 4.50088
      vertex -2.755012 -25.5206 4.50088
      vertex 2.309748 -20.45584 4.50088
    endloop
  endfacet
  facet normal 0 -0 1
    outer loop
      vertex 12.12939 -25.5206 4.50088
      vertex 26.23955 6.611585 4.50088
      vertex 7.064628 -20.45584 4.50088
    endloop
  endfacet
  facet normal 0 0 1
    outer loop
      vertex 12.12939 -30.27548 4.50088
      vertex 7.064628 -30.27548 4.50088
      vertex 7.064628 -35.34024 4.50088
    endloop
  endfacet
  facet normal 0 0 1
    outer loop
      vertex 50.20683 -54.61668 4.50088
      vertex 42.46092 6.594883 4.50088
      vertex 12.12939 -25.5206 4.50088
    endloop
  endfacet
  facet normal -0 0 1
    outer loop
      vertex 12.12939 -30.27548 4.50088
      vertex 13.0511 -61.94013 4.50088
      vertex 50.20683 -54.61668 4.50088
    endloop
  endfacet
  facet normal 0 0 1
    outer loop
      vertex 50.20683 -54.61668 4.50088
      vertex 12.12939 -25.5206 4.50088
      vertex 12.12939 -30.27548 4.50088
    endloop
  endfacet
  facet normal -0.000259025 -0.9999999 -0
    outer loop
      vertex -75.34178 -61.94376 4.50088
      vertex -75.34178 -61.94376 0
      vertex -71.22702 -61.94483 4.50088
    endloop
  endfacet
  facet normal -0.000259025 -0.9999999 0
    outer loop
      vertex -71.22702 -61.94483 4.50088
      vertex -75.34178 -61.94376 0
      vertex -71.22702 -61.94483 0
    endloop
  endfacet
  facet normal 0.09092948 -0.9958573 0
    outer loop
      vertex -71.22702 -61.94483 4.50088
      vertex -71.22702 -61.94483 0
      vertex -70.83067 -61.90864 4.50088
    endloop
  endfacet
  facet normal 0.09092948 -0.9958573 0
    outer loop
      vertex -70.83067 -61.90864 4.50088
      vertex -71.22702 -61.94483 0
      vertex -70.83067 -61.90864 0
    endloop
  endfacet
  facet normal -0.9999861 0.005281017 0
    outer loop
      vertex -70.83067 -61.90864 4.50088
      vertex -70.83067 -61.90864 0
      vertex -70.83086 -61.94418 4.50088
    endloop
  endfacet
  facet normal -0.9999861 0.005281017 0
    outer loop
      vertex -70.83086 -61.94418 4.50088
      vertex -70.83067 -61.90864 0
      vertex -70.83086 -61.94418 0
    endloop
  endfacet
  facet normal 0.09781933 -0.9952042 0
    outer loop
      vertex -70.83086 -61.94418 4.50088
      vertex -70.83086 -61.94418 0
      vertex -70.3965 -61.90149 4.50088
    endloop
  endfacet
  facet normal 0.09781933 -0.9952042 0
    outer loop
      vertex -70.3965 -61.90149 4.50088
      vertex -70.83086 -61.94418 0
      vertex -70.3965 -61.90149 0
    endloop
  endfacet
  facet normal -0.9981158 -0.06135844 -0
    outer loop
      vertex -70.3965 -61.90149 4.50088
      vertex -70.3965 -61.90149 0
      vertex -70.39382 -61.94503 4.50088
    endloop
  endfacet
  facet normal -0.9981158 -0.06135844 0
    outer loop
      vertex -70.39382 -61.94503 4.50088
      vertex -70.3965 -61.90149 0
      vertex -70.39382 -61.94503 0
    endloop
  endfacet
  facet normal 2.758905e-005 -1 0
    outer loop
      vertex -70.39382 -61.94503 4.50088
      vertex -70.39382 -61.94503 0
      vertex -49.1022 -61.94444 4.50088
    endloop
  endfacet
  facet normal 2.758905e-005 -1 0
    outer loop
      vertex -49.1022 -61.94444 4.50088
      vertex -70.39382 -61.94503 0
      vertex -49.1022 -61.94444 0
    endloop
  endfacet
  facet normal 0.04004573 -0.9991979 0
    outer loop
      vertex -49.1022 -61.94444 4.50088
      vertex -49.1022 -61.94444 0
      vertex -49.03843 -61.94189 4.50088
    endloop
  endfacet
  facet normal 0.04004573 -0.9991979 0
    outer loop
      vertex -49.03843 -61.94189 4.50088
      vertex -49.1022 -61.94444 0
      vertex -49.03843 -61.94189 0
    endloop
  endfacet
  facet normal 1.447608e-005 -1 0
    outer loop
      vertex -49.03843 -61.94189 4.50088
      vertex -49.03843 -61.94189 0
      vertex 12.87495 -61.94099 4.50088
    endloop
  endfacet
  facet normal 1.447608e-005 -1 0
    outer loop
      vertex 12.87495 -61.94099 4.50088
      vertex -49.03843 -61.94189 0
      vertex 12.87495 -61.94099 0
    endloop
  endfacet
  facet normal -0.07028825 -0.9975267 -0
    outer loop
      vertex 12.87495 -61.94099 4.50088
      vertex 12.87495 -61.94099 0
      vertex 12.97413 -61.94798 4.50088
    endloop
  endfacet
  facet normal -0.07028825 -0.9975267 0
    outer loop
      vertex 12.97413 -61.94798 4.50088
      vertex 12.87495 -61.94099 0
      vertex 12.97413 -61.94798 0
    endloop
  endfacet
  facet normal 0.1204241 -0.9927226 0
    outer loop
      vertex 12.97413 -61.94798 4.50088
      vertex 12.97413 -61.94798 0
      vertex 12.99929 -61.94493 4.50088
    endloop
  endfacet
  facet normal 0.1204241 -0.9927226 0
    outer loop
      vertex 12.99929 -61.94493 4.50088
      vertex 12.97413 -61.94798 0
      vertex 12.99929 -61.94493 0
    endloop
  endfacet
  facet normal 0.09218059 -0.9957423 0
    outer loop
      vertex 12.99929 -61.94493 4.50088
      vertex 12.99929 -61.94493 0
      vertex 13.0511 -61.94013 4.50088
    endloop
  endfacet
  facet normal 0.09218059 -0.9957423 0
    outer loop
      vertex 13.0511 -61.94013 4.50088
      vertex 12.99929 -61.94493 0
      vertex 13.0511 -61.94013 0
    endloop
  endfacet
  facet normal -0.0003923163 -1 -0
    outer loop
      vertex 13.0511 -61.94013 4.50088
      vertex 13.0511 -61.94013 0
      vertex 49.88162 -61.95458 4.50088
    endloop
  endfacet
  facet normal -0.0003923163 -1 0
    outer loop
      vertex 49.88162 -61.95458 4.50088
      vertex 13.0511 -61.94013 0
      vertex 49.88162 -61.95458 0
    endloop
  endfacet
  facet normal -0.105727 -0.9943952 -0
    outer loop
      vertex 49.88162 -61.95458 4.50088
      vertex 49.88162 -61.95458 0
      vertex 49.97275 -61.96427 4.50088
    endloop
  endfacet
  facet normal -0.105727 -0.9943952 0
    outer loop
      vertex 49.97275 -61.96427 4.50088
      vertex 49.88162 -61.95458 0
      vertex 49.97275 -61.96427 0
    endloop
  endfacet
  facet normal 0.04073704 -0.9991699 0
    outer loop
      vertex 49.97275 -61.96427 4.50088
      vertex 49.97275 -61.96427 0
      vertex 50.09514 -61.95928 4.50088
    endloop
  endfacet
  facet normal 0.04073704 -0.9991699 0
    outer loop
      vertex 50.09514 -61.95928 4.50088
      vertex 49.97275 -61.96427 0
      vertex 50.09514 -61.95928 0
    endloop
  endfacet
  facet normal 0.8628905 -0.5053908 0
    outer loop
      vertex 50.09514 -61.95928 4.50088
      vertex 50.09514 -61.95928 0
      vertex 50.17173 -61.82851 4.50088
    endloop
  endfacet
  facet normal 0.8628905 -0.5053908 0
    outer loop
      vertex 50.17173 -61.82851 4.50088
      vertex 50.09514 -61.95928 0
      vertex 50.17173 -61.82851 0
    endloop
  endfacet
  facet normal 0.7309201 0.6824631 0
    outer loop
      vertex 50.17173 -61.82851 4.50088
      vertex 50.17173 -61.82851 0
      vertex 50.09753 -61.74904 4.50088
    endloop
  endfacet
  facet normal 0.7309201 0.6824631 0
    outer loop
      vertex 50.09753 -61.74904 4.50088
      vertex 50.17173 -61.82851 0
      vertex 50.09753 -61.74904 0
    endloop
  endfacet
  facet normal 0.9998826 -0.01532212 0
    outer loop
      vertex 50.09753 -61.74904 4.50088
      vertex 50.09753 -61.74904 0
      vertex 50.20683 -54.61668 4.50088
    endloop
  endfacet
  facet normal 0.9998826 -0.01532212 0
    outer loop
      vertex 50.20683 -54.61668 4.50088
      vertex 50.09753 -61.74904 0
      vertex 50.20683 -54.61668 0
    endloop
  endfacet
  facet normal -0.8285542 -0.5599088 -0
    outer loop
      vertex 50.20683 -54.61668 4.50088
      vertex 50.20683 -54.61668 0
      vertex 51.93313 -57.17127 4.50088
    endloop
  endfacet
  facet normal -0.8285542 -0.5599088 0
    outer loop
      vertex 51.93313 -57.17127 4.50088
      vertex 50.20683 -54.61668 0
      vertex 51.93313 -57.17127 0
    endloop
  endfacet
  facet normal -0.8188519 -0.5740048 -0
    outer loop
      vertex 51.93313 -57.17127 4.50088
      vertex 51.93313 -57.17127 0
      vertex 55.27932 -61.9448 4.50088
    endloop
  endfacet
  facet normal -0.8188519 -0.5740048 0
    outer loop
      vertex 55.27932 -61.9448 4.50088
      vertex 51.93313 -57.17127 0
      vertex 55.27932 -61.9448 0
    endloop
  endfacet
  facet normal 3.78529e-005 -1 0
    outer loop
      vertex 55.27932 -61.9448 4.50088
      vertex 55.27932 -61.9448 0
      vertex 84.71624 -61.94369 4.50088
    endloop
  endfacet
  facet normal 3.78529e-005 -1 0
    outer loop
      vertex 84.71624 -61.94369 4.50088
      vertex 55.27932 -61.9448 0
      vertex 84.71624 -61.94369 0
    endloop
  endfacet
  facet normal 1 0.0001795169 0
    outer loop
      vertex 84.71624 -61.94369 4.50088
      vertex 84.71624 -61.94369 0
      vertex 84.71035 -29.12045 4.50088
    endloop
  endfacet
  facet normal 1 0.0001795169 0
    outer loop
      vertex 84.71035 -29.12045 4.50088
      vertex 84.71624 -61.94369 0
      vertex 84.71035 -29.12045 0
    endloop
  endfacet
  facet normal 0.9995118 -0.03124571 0
    outer loop
      vertex 84.71035 -29.12045 4.50088
      vertex 84.71035 -29.12045 0
      vertex 84.71089 -29.10321 4.50088
    endloop
  endfacet
  facet normal 0.9995118 -0.03124571 0
    outer loop
      vertex 84.71089 -29.10321 4.50088
      vertex 84.71035 -29.12045 0
      vertex 84.71089 -29.10321 0
    endloop
  endfacet
  facet normal 0.9774693 -0.2110777 0
    outer loop
      vertex 84.71089 -29.10321 4.50088
      vertex 84.71089 -29.10321 0
      vertex 84.71438 -29.08703 4.50088
    endloop
  endfacet
  facet normal 0.9774693 -0.2110777 0
    outer loop
      vertex 84.71438 -29.08703 4.50088
      vertex 84.71089 -29.10321 0
      vertex 84.71438 -29.08703 0
    endloop
  endfacet
  facet normal 0.9999998 0.0005637732 0
    outer loop
      vertex 84.71438 -29.08703 4.50088
      vertex 84.71438 -29.08703 0
      vertex 84.69875 -1.362935 4.50088
    endloop
  endfacet
  facet normal 0.9999998 0.0005637732 0
    outer loop
      vertex 84.69875 -1.362935 4.50088
      vertex 84.71438 -29.08703 0
      vertex 84.69875 -1.362935 0
    endloop
  endfacet
  facet normal 0.8589904 -0.5119919 0
    outer loop
      vertex 84.69875 -1.362935 4.50088
      vertex 84.69875 -1.362935 0
      vertex 84.70335 -1.355224 4.50088
    endloop
  endfacet
  facet normal 0.8589904 -0.5119919 0
    outer loop
      vertex 84.70335 -1.355224 4.50088
      vertex 84.69875 -1.362935 0
      vertex 84.70335 -1.355224 0
    endloop
  endfacet
  facet normal 0.9999975 0.00223408 0
    outer loop
      vertex 84.70335 -1.355224 4.50088
      vertex 84.70335 -1.355224 0
      vertex 84.69204 3.708276 4.50088
    endloop
  endfacet
  facet normal 0.9999975 0.00223408 0
    outer loop
      vertex 84.69204 3.708276 4.50088
      vertex 84.70335 -1.355224 0
      vertex 84.69204 3.708276 0
    endloop
  endfacet
  facet normal 0.9957197 -0.09242424 0
    outer loop
      vertex 84.69204 3.708276 4.50088
      vertex 84.69204 3.708276 0
      vertex 84.69638 3.755054 4.50088
    endloop
  endfacet
  facet normal 0.9957197 -0.09242424 0
    outer loop
      vertex 84.69638 3.755054 4.50088
      vertex 84.69204 3.708276 0
      vertex 84.69638 3.755054 0
    endloop
  endfacet
  facet normal 0.2921991 0.9563575 0
    outer loop
      vertex 84.69638 3.755054 4.50088
      vertex 84.69638 3.755054 0
      vertex 83.91128 3.994929 4.50088
    endloop
  endfacet
  facet normal 0.2921991 0.9563575 0
    outer loop
      vertex 83.91128 3.994929 4.50088
      vertex 84.69638 3.755054 0
      vertex 83.91128 3.994929 0
    endloop
  endfacet
  facet normal 0.3289868 0.9443345 0
    outer loop
      vertex 83.91128 3.994929 4.50088
      vertex 83.91128 3.994929 0
      vertex 83.4389 4.159497 4.50088
    endloop
  endfacet
  facet normal 0.3289868 0.9443345 0
    outer loop
      vertex 83.4389 4.159497 4.50088
      vertex 83.91128 3.994929 0
      vertex 83.4389 4.159497 0
    endloop
  endfacet
  facet normal 0.3805256 0.9247704 0
    outer loop
      vertex 83.4389 4.159497 4.50088
      vertex 83.4389 4.159497 0
      vertex 83.01144 4.335387 4.50088
    endloop
  endfacet
  facet normal 0.3805256 0.9247704 0
    outer loop
      vertex 83.01144 4.335387 4.50088
      vertex 83.4389 4.159497 0
      vertex 83.01144 4.335387 0
    endloop
  endfacet
  facet normal 0.4063697 0.9137087 0
    outer loop
      vertex 83.01144 4.335387 4.50088
      vertex 83.01144 4.335387 0
      vertex 82.04521 4.765116 4.50088
    endloop
  endfacet
  facet normal 0.4063697 0.9137087 0
    outer loop
      vertex 82.04521 4.765116 4.50088
      vertex 83.01144 4.335387 0
      vertex 82.04521 4.765116 0
    endloop
  endfacet
  facet normal 0.3232674 0.9463077 0
    outer loop
      vertex 82.04521 4.765116 4.50088
      vertex 82.04521 4.765116 0
      vertex 81.90298 4.813705 4.50088
    endloop
  endfacet
  facet normal 0.3232674 0.9463077 0
    outer loop
      vertex 81.90298 4.813705 4.50088
      vertex 82.04521 4.765116 0
      vertex 81.90298 4.813705 0
    endloop
  endfacet
  facet normal 0.4691154 0.8831369 0
    outer loop
      vertex 81.90298 4.813705 4.50088
      vertex 81.90298 4.813705 0
      vertex 81.67381 4.935435 4.50088
    endloop
  endfacet
  facet normal 0.4691154 0.8831369 0
    outer loop
      vertex 81.67381 4.935435 4.50088
      vertex 81.90298 4.813705 0
      vertex 81.67381 4.935435 0
    endloop
  endfacet
  facet normal 0.5437376 0.8392553 0
    outer loop
      vertex 81.67381 4.935435 4.50088
      vertex 81.67381 4.935435 0
      vertex 79.5915 6.284524 4.50088
    endloop
  endfacet
  facet normal 0.5437376 0.8392553 0
    outer loop
      vertex 79.5915 6.284524 4.50088
      vertex 81.67381 4.935435 0
      vertex 79.5915 6.284524 0
    endloop
  endfacet
  facet normal 0.5903025 0.8071821 0
    outer loop
      vertex 79.5915 6.284524 4.50088
      vertex 79.5915 6.284524 0
      vertex 79.12089 6.628692 4.50088
    endloop
  endfacet
  facet normal 0.5903025 0.8071821 0
    outer loop
      vertex 79.12089 6.628692 4.50088
      vertex 79.5915 6.284524 0
      vertex 79.12089 6.628692 0
    endloop
  endfacet
  facet normal -0.0005115203 0.9999998 0
    outer loop
      vertex 79.12089 6.628692 4.50088
      vertex 79.12089 6.628692 0
      vertex 67.72891 6.622865 4.50088
    endloop
  endfacet
  facet normal -0.0005115203 0.9999998 0
    outer loop
      vertex 67.72891 6.622865 4.50088
      vertex 79.12089 6.628692 0
      vertex 67.72891 6.622865 0
    endloop
  endfacet
  facet normal -0.5152428 -0.8570442 -0
    outer loop
      vertex 67.72891 6.622865 4.50088
      vertex 67.72891 6.622865 0
      vertex 67.8299 6.562153 4.50088
    endloop
  endfacet
  facet normal -0.5152428 -0.8570442 0
    outer loop
      vertex 67.8299 6.562153 4.50088
      vertex 67.72891 6.622865 0
      vertex 67.8299 6.562153 0
    endloop
  endfacet
  facet normal -0.9930291 0.1178691 0
    outer loop
      vertex 67.8299 6.562153 4.50088
      vertex 67.8299 6.562153 0
      vertex 67.82296 6.503685 4.50088
    endloop
  endfacet
  facet normal -0.9930291 0.1178691 0
    outer loop
      vertex 67.82296 6.503685 4.50088
      vertex 67.8299 6.562153 0
      vertex 67.82296 6.503685 0
    endloop
  endfacet
  facet normal 0.03676883 0.9993238 0
    outer loop
      vertex 67.82296 6.503685 4.50088
      vertex 67.82296 6.503685 0
      vertex 65.68757 6.582254 4.50088
    endloop
  endfacet
  facet normal 0.03676883 0.9993238 0
    outer loop
      vertex 65.68757 6.582254 4.50088
      vertex 67.82296 6.503685 0
      vertex 65.68757 6.582254 0
    endloop
  endfacet
  facet normal 0.003909138 0.9999924 0
    outer loop
      vertex 65.68757 6.582254 4.50088
      vertex 65.68757 6.582254 0
      vertex 51.44791 6.637919 4.50088
    endloop
  endfacet
  facet normal 0.003909138 0.9999924 0
    outer loop
      vertex 51.44791 6.637919 4.50088
      vertex 65.68757 6.582254 0
      vertex 51.44791 6.637919 0
    endloop
  endfacet
  facet normal 0.08919562 0.9960141 0
    outer loop
      vertex 51.44791 6.637919 4.50088
      vertex 51.44791 6.637919 0
      vertex 51.41428 6.640931 4.50088
    endloop
  endfacet
  facet normal 0.08919562 0.9960141 0
    outer loop
      vertex 51.41428 6.640931 4.50088
      vertex 51.44791 6.637919 0
      vertex 51.41428 6.640931 0
    endloop
  endfacet
  facet normal -0.008670921 0.9999624 0
    outer loop
      vertex 51.41428 6.640931 4.50088
      vertex 51.41428 6.640931 0
      vertex 50.12664 6.629766 4.50088
    endloop
  endfacet
  facet normal -0.008670921 0.9999624 0
    outer loop
      vertex 50.12664 6.629766 4.50088
      vertex 51.41428 6.640931 0
      vertex 50.12664 6.629766 0
    endloop
  endfacet
  facet normal -0.1578847 0.9874575 0
    outer loop
      vertex 50.12664 6.629766 4.50088
      vertex 50.12664 6.629766 0
      vertex 50.11562 6.628004 4.50088
    endloop
  endfacet
  facet normal -0.1578847 0.9874575 0
    outer loop
      vertex 50.11562 6.628004 4.50088
      vertex 50.12664 6.629766 0
      vertex 50.11562 6.628004 0
    endloop
  endfacet
  facet normal 0.003166776 0.9999949 0
    outer loop
      vertex 50.11562 6.628004 4.50088
      vertex 50.11562 6.628004 0
      vertex 45.58372 6.642355 4.50088
    endloop
  endfacet
  facet normal 0.003166776 0.9999949 0
    outer loop
      vertex 45.58372 6.642355 4.50088
      vertex 50.11562 6.628004 0
      vertex 45.58372 6.642355 0
    endloop
  endfacet
  facet normal 0.0272641 0.9996282 0
    outer loop
      vertex 45.58372 6.642355 4.50088
      vertex 45.58372 6.642355 0
      vertex 45.46513 6.64559 4.50088
    endloop
  endfacet
  facet normal 0.0272641 0.9996282 0
    outer loop
      vertex 45.46513 6.64559 4.50088
      vertex 45.58372 6.642355 0
      vertex 45.46513 6.64559 0
    endloop
  endfacet
  facet normal -0.09061419 -0.9958861 -0
    outer loop
      vertex 45.46513 6.64559 4.50088
      vertex 45.46513 6.64559 0
      vertex 47.04112 6.502193 4.50088
    endloop
  endfacet
  facet normal -0.09061419 -0.9958861 0
    outer loop
      vertex 47.04112 6.502193 4.50088
      vertex 45.46513 6.64559 0
      vertex 47.04112 6.502193 0
    endloop
  endfacet
  facet normal 0.01441155 0.9998962 0
    outer loop
      vertex 47.04112 6.502193 4.50088
      vertex 47.04112 6.502193 0
      vertex 46.93224 6.503762 4.50088
    endloop
  endfacet
  facet normal 0.01441155 0.9998962 0
    outer loop
      vertex 46.93224 6.503762 4.50088
      vertex 47.04112 6.502193 0
      vertex 46.93224 6.503762 0
    endloop
  endfacet
  facet normal -0.07662684 0.9970598 0
    outer loop
      vertex 46.93224 6.503762 4.50088
      vertex 46.93224 6.503762 0
      vertex 46.73752 6.488797 4.50088
    endloop
  endfacet
  facet normal -0.07662684 0.9970598 0
    outer loop
      vertex 46.73752 6.488797 4.50088
      vertex 46.93224 6.503762 0
      vertex 46.73752 6.488797 0
    endloop
  endfacet
  facet normal 0.02479852 0.9996925 0
    outer loop
      vertex 46.73752 6.488797 4.50088
      vertex 46.73752 6.488797 0
      vertex 42.46092 6.594883 4.50088
    endloop
  endfacet
  facet normal 0.02479852 0.9996925 0
    outer loop
      vertex 42.46092 6.594883 4.50088
      vertex 46.73752 6.488797 0
      vertex 42.46092 6.594883 0
    endloop
  endfacet
  facet normal -0.005222409 0.9999864 0
    outer loop
      vertex 42.46092 6.594883 4.50088
      vertex 42.46092 6.594883 0
      vertex 30.15643 6.530624 4.50088
    endloop
  endfacet
  facet normal -0.005222409 0.9999864 0
    outer loop
      vertex 30.15643 6.530624 4.50088
      vertex 42.46092 6.594883 0
      vertex 30.15643 6.530624 0
    endloop
  endfacet
  facet normal 0.02066537 0.9997864 0
    outer loop
      vertex 30.15643 6.530624 4.50088
      vertex 30.15643 6.530624 0
      vertex 26.23955 6.611585 4.50088
    endloop
  endfacet
  facet normal 0.02066537 0.9997864 0
    outer loop
      vertex 26.23955 6.611585 4.50088
      vertex 30.15643 6.530624 0
      vertex 26.23955 6.611585 0
    endloop
  endfacet
  facet normal 0.001298621 0.9999991 0
    outer loop
      vertex 26.23955 6.611585 4.50088
      vertex 26.23955 6.611585 0
      vertex 13.2908 6.6284 4.50088
    endloop
  endfacet
  facet normal 0.001298621 0.9999991 0
    outer loop
      vertex 13.2908 6.6284 4.50088
      vertex 26.23955 6.611585 0
      vertex 13.2908 6.6284 0
    endloop
  endfacet
  facet normal -0.09360328 0.9956096 0
    outer loop
      vertex 13.2908 6.6284 4.50088
      vertex 13.2908 6.6284 0
      vertex 13.28458 6.627815 4.50088
    endloop
  endfacet
  facet normal -0.09360328 0.9956096 0
    outer loop
      vertex 13.28458 6.627815 4.50088
      vertex 13.2908 6.6284 0
      vertex 13.28458 6.627815 0
    endloop
  endfacet
  facet normal -0.04126931 0.9991481 0
    outer loop
      vertex 13.28458 6.627815 4.50088
      vertex 13.28458 6.627815 0
      vertex 13.19923 6.62429 4.50088
    endloop
  endfacet
  facet normal -0.04126931 0.9991481 0
    outer loop
      vertex 13.19923 6.62429 4.50088
      vertex 13.28458 6.627815 0
      vertex 13.19923 6.62429 0
    endloop
  endfacet
  facet normal -0.0004102772 0.9999999 0
    outer loop
      vertex 13.19923 6.62429 4.50088
      vertex 13.19923 6.62429 0
      vertex -22.31784 6.609718 4.50088
    endloop
  endfacet
  facet normal -0.0004102772 0.9999999 0
    outer loop
      vertex -22.31784 6.609718 4.50088
      vertex 13.19923 6.62429 0
      vertex -22.31784 6.609718 0
    endloop
  endfacet
  facet normal 0.4458256 0.8951198 0
    outer loop
      vertex -22.31784 6.609718 4.50088
      vertex -22.31784 6.609718 0
      vertex -22.3698 6.635598 4.50088
    endloop
  endfacet
  facet normal 0.4458256 0.8951198 0
    outer loop
      vertex -22.3698 6.635598 4.50088
      vertex -22.31784 6.609718 0
      vertex -22.3698 6.635598 0
    endloop
  endfacet
  facet normal -0.2049817 0.9787658 0
    outer loop
      vertex -22.3698 6.635598 4.50088
      vertex -22.3698 6.635598 0
      vertex -22.43137 6.622705 4.50088
    endloop
  endfacet
  facet normal -0.2049817 0.9787658 0
    outer loop
      vertex -22.43137 6.622705 4.50088
      vertex -22.3698 6.635598 0
      vertex -22.43137 6.622705 0
    endloop
  endfacet
  facet normal 0.01513103 0.9998856 0
    outer loop
      vertex -22.43137 6.622705 4.50088
      vertex -22.43137 6.622705 0
      vertex -22.84855 6.629019 4.50088
    endloop
  endfacet
  facet normal 0.01513103 0.9998856 0
    outer loop
      vertex -22.84855 6.629019 4.50088
      vertex -22.43137 6.622705 0
      vertex -22.84855 6.629019 0
    endloop
  endfacet
  facet normal -0.02864844 0.9995896 0
    outer loop
      vertex -22.84855 6.629019 4.50088
      vertex -22.84855 6.629019 0
      vertex -23.13822 6.620717 4.50088
    endloop
  endfacet
  facet normal -0.02864844 0.9995896 0
    outer loop
      vertex -23.13822 6.620717 4.50088
      vertex -22.84855 6.629019 0
      vertex -23.13822 6.620717 0
    endloop
  endfacet
  facet normal 0.006849029 0.9999766 0
    outer loop
      vertex -23.13822 6.620717 4.50088
      vertex -23.13822 6.620717 0
      vertex -23.46569 6.62296 4.50088
    endloop
  endfacet
  facet normal 0.006849029 0.9999766 0
    outer loop
      vertex -23.46569 6.62296 4.50088
      vertex -23.13822 6.620717 0
      vertex -23.46569 6.62296 0
    endloop
  endfacet
  facet normal -0.0343043 0.9994114 0
    outer loop
      vertex -23.46569 6.62296 4.50088
      vertex -23.46569 6.62296 0
      vertex -23.59517 6.618516 4.50088
    endloop
  endfacet
  facet normal -0.0343043 0.9994114 0
    outer loop
      vertex -23.59517 6.618516 4.50088
      vertex -23.46569 6.62296 0
      vertex -23.59517 6.618516 0
    endloop
  endfacet
  facet normal 0.03205571 0.9994861 0
    outer loop
      vertex -23.59517 6.618516 4.50088
      vertex -23.59517 6.618516 0
      vertex -23.73206 6.622906 4.50088
    endloop
  endfacet
  facet normal 0.03205571 0.9994861 0
    outer loop
      vertex -23.73206 6.622906 4.50088
      vertex -23.59517 6.618516 0
      vertex -23.73206 6.622906 0
    endloop
  endfacet
  facet normal -0.006099204 0.9999815 0
    outer loop
      vertex -23.73206 6.622906 4.50088
      vertex -23.73206 6.622906 0
      vertex -24.1369 6.620437 4.50088
    endloop
  endfacet
  facet normal -0.006099204 0.9999815 0
    outer loop
      vertex -24.1369 6.620437 4.50088
      vertex -23.73206 6.622906 0
      vertex -24.1369 6.620437 0
    endloop
  endfacet
  facet normal 0.01545319 0.9998806 0
    outer loop
      vertex -24.1369 6.620437 4.50088
      vertex -24.1369 6.620437 0
      vertex -25.15778 6.636215 4.50088
    endloop
  endfacet
  facet normal 0.01545319 0.9998806 0
    outer loop
      vertex -25.15778 6.636215 4.50088
      vertex -24.1369 6.620437 0
      vertex -25.15778 6.636215 0
    endloop
  endfacet
  facet normal -0.0244463 0.9997011 0
    outer loop
      vertex -25.15778 6.636215 4.50088
      vertex -25.15778 6.636215 0
      vertex -25.65224 6.624123 4.50088
    endloop
  endfacet
  facet normal -0.0244463 0.9997011 0
    outer loop
      vertex -25.65224 6.624123 4.50088
      vertex -25.15778 6.636215 0
      vertex -25.65224 6.624123 0
    endloop
  endfacet
  facet normal -0.0001569803 1 0
    outer loop
      vertex -25.65224 6.624123 4.50088
      vertex -25.65224 6.624123 0
      vertex -60.47765 6.618656 4.50088
    endloop
  endfacet
  facet normal -0.0001569803 1 0
    outer loop
      vertex -60.47765 6.618656 4.50088
      vertex -25.65224 6.624123 0
      vertex -60.47765 6.618656 0
    endloop
  endfacet
  facet normal -0.7729344 0.6344861 0
    outer loop
      vertex -60.47765 6.618656 4.50088
      vertex -60.47765 6.618656 0
      vertex -60.50858 6.580981 4.50088
    endloop
  endfacet
  facet normal -0.7729344 0.6344861 0
    outer loop
      vertex -60.50858 6.580981 4.50088
      vertex -60.47765 6.618656 0
      vertex -60.50858 6.580981 0
    endloop
  endfacet
  facet normal -0.7308145 0.6825762 0
    outer loop
      vertex -60.50858 6.580981 4.50088
      vertex -60.50858 6.580981 0
      vertex -61.27158 5.764054 4.50088
    endloop
  endfacet
  facet normal -0.7308145 0.6825762 0
    outer loop
      vertex -61.27158 5.764054 4.50088
      vertex -60.50858 6.580981 0
      vertex -61.27158 5.764054 0
    endloop
  endfacet
  facet normal -0.7466495 0.6652177 0
    outer loop
      vertex -61.27158 5.764054 4.50088
      vertex -61.27158 5.764054 0
      vertex -61.37695 5.645784 4.50088
    endloop
  endfacet
  facet normal -0.7466495 0.6652177 0
    outer loop
      vertex -61.37695 5.645784 4.50088
      vertex -61.27158 5.764054 0
      vertex -61.37695 5.645784 0
    endloop
  endfacet
  facet normal -0.7215134 0.6924004 0
    outer loop
      vertex -61.37695 5.645784 4.50088
      vertex -61.37695 5.645784 0
      vertex -61.62172 5.390727 4.50088
    endloop
  endfacet
  facet normal -0.7215134 0.6924004 0
    outer loop
      vertex -61.62172 5.390727 4.50088
      vertex -61.37695 5.645784 0
      vertex -61.62172 5.390727 0
    endloop
  endfacet
  facet normal -0.6864735 0.7271547 0
    outer loop
      vertex -61.62172 5.390727 4.50088
      vertex -61.62172 5.390727 0
      vertex -61.85034 5.174898 4.50088
    endloop
  endfacet
  facet normal -0.6864735 0.7271547 0
    outer loop
      vertex -61.85034 5.174898 4.50088
      vertex -61.62172 5.390727 0
      vertex -61.85034 5.174898 0
    endloop
  endfacet
  facet normal -0.6718682 0.7406707 0
    outer loop
      vertex -61.85034 5.174898 4.50088
      vertex -61.85034 5.174898 0
      vertex -63.13988 4.005145 4.50088
    endloop
  endfacet
  facet normal -0.6718682 0.7406707 0
    outer loop
      vertex -63.13988 4.005145 4.50088
      vertex -61.85034 5.174898 0
      vertex -63.13988 4.005145 0
    endloop
  endfacet
  facet normal -0.6433268 0.7655917 0
    outer loop
      vertex -63.13988 4.005145 4.50088
      vertex -63.13988 4.005145 0
      vertex -63.29962 3.870915 4.50088
    endloop
  endfacet
  facet normal -0.6433268 0.7655917 0
    outer loop
      vertex -63.29962 3.870915 4.50088
      vertex -63.13988 4.005145 0
      vertex -63.29962 3.870915 0
    endloop
  endfacet
  facet normal -0.6663599 0.7456303 0
    outer loop
      vertex -63.29962 3.870915 4.50088
      vertex -63.29962 3.870915 0
      vertex -63.76251 3.457231 4.50088
    endloop
  endfacet
  facet normal -0.6663599 0.7456303 0
    outer loop
      vertex -63.76251 3.457231 4.50088
      vertex -63.29962 3.870915 0
      vertex -63.76251 3.457231 0
    endloop
  endfacet
  facet normal -0.5326973 0.8463058 0
    outer loop
      vertex -63.76251 3.457231 4.50088
      vertex -63.76251 3.457231 0
      vertex -64.08632 3.253416 4.50088
    endloop
  endfacet
  facet normal -0.5326973 0.8463058 0
    outer loop
      vertex -64.08632 3.253416 4.50088
      vertex -63.76251 3.457231 0
      vertex -64.08632 3.253416 0
    endloop
  endfacet
  facet normal -0.5179323 0.8554217 0
    outer loop
      vertex -64.08632 3.253416 4.50088
      vertex -64.08632 3.253416 0
      vertex -64.15417 3.212335 4.50088
    endloop
  endfacet
  facet normal -0.5179323 0.8554217 0
    outer loop
      vertex -64.15417 3.212335 4.50088
      vertex -64.08632 3.253416 0
      vertex -64.15417 3.212335 0
    endloop
  endfacet
  facet normal -0.6369365 0.7709163 0
    outer loop
      vertex -64.15417 3.212335 4.50088
      vertex -64.15417 3.212335 0
      vertex -64.20079 3.173814 4.50088
    endloop
  endfacet
  facet normal -0.6369365 0.7709163 0
    outer loop
      vertex -64.20079 3.173814 4.50088
      vertex -64.15417 3.212335 0
      vertex -64.20079 3.173814 0
    endloop
  endfacet
  facet normal -0.6530659 0.7573011 0
    outer loop
      vertex -64.20079 3.173814 4.50088
      vertex -64.20079 3.173814 0
      vertex -65.15982 2.346784 4.50088
    endloop
  endfacet
  facet normal -0.6530659 0.7573011 0
    outer loop
      vertex -65.15982 2.346784 4.50088
      vertex -64.20079 3.173814 0
      vertex -65.15982 2.346784 0
    endloop
  endfacet
  facet normal -0.5847877 0.8111864 0
    outer loop
      vertex -65.15982 2.346784 4.50088
      vertex -65.15982 2.346784 0
      vertex -66.24805 1.562276 4.50088
    endloop
  endfacet
  facet normal -0.5847877 0.8111864 0
    outer loop
      vertex -66.24805 1.562276 4.50088
      vertex -65.15982 2.346784 0
      vertex -66.24805 1.562276 0
    endloop
  endfacet
  facet normal -0.6785924 0.734515 0
    outer loop
      vertex -66.24805 1.562276 4.50088
      vertex -66.24805 1.562276 0
      vertex -66.29076 1.522822 4.50088
    endloop
  endfacet
  facet normal -0.6785924 0.734515 0
    outer loop
      vertex -66.29076 1.522822 4.50088
      vertex -66.24805 1.562276 0
      vertex -66.29076 1.522822 0
    endloop
  endfacet
  facet normal -0.4856274 0.8741658 0
    outer loop
      vertex -66.29076 1.522822 4.50088
      vertex -66.29076 1.522822 0
      vertex -66.66821 1.313134 4.50088
    endloop
  endfacet
  facet normal -0.4856274 0.8741658 0
    outer loop
      vertex -66.66821 1.313134 4.50088
      vertex -66.29076 1.522822 0
      vertex -66.66821 1.313134 0
    endloop
  endfacet
  facet normal -0.5800648 0.8145702 0
    outer loop
      vertex -66.66821 1.313134 4.50088
      vertex -66.66821 1.313134 0
      vertex -67.05271 1.039325 4.50088
    endloop
  endfacet
  facet normal -0.5800648 0.8145702 0
    outer loop
      vertex -67.05271 1.039325 4.50088
      vertex -66.66821 1.313134 0
      vertex -67.05271 1.039325 0
    endloop
  endfacet
  facet normal -0.5027061 0.8644574 0
    outer loop
      vertex -67.05271 1.039325 4.50088
      vertex -67.05271 1.039325 0
      vertex -68.30379 0.3117868 4.50088
    endloop
  endfacet
  facet normal -0.5027061 0.8644574 0
    outer loop
      vertex -68.30379 0.3117868 4.50088
      vertex -67.05271 1.039325 0
      vertex -68.30379 0.3117868 0
    endloop
  endfacet
  facet normal -0.4761306 0.8793745 0
    outer loop
      vertex -68.30379 0.3117868 4.50088
      vertex -68.30379 0.3117868 0
      vertex -70.63952 -0.9528755 4.50088
    endloop
  endfacet
  facet normal -0.4761306 0.8793745 0
    outer loop
      vertex -70.63952 -0.9528755 4.50088
      vertex -68.30379 0.3117868 0
      vertex -70.63952 -0.9528755 0
    endloop
  endfacet
  facet normal -0.3997984 0.916603 0
    outer loop
      vertex -70.63952 -0.9528755 4.50088
      vertex -70.63952 -0.9528755 0
      vertex -70.79908 -1.022471 4.50088
    endloop
  endfacet
  facet normal -0.3997984 0.916603 0
    outer loop
      vertex -70.79908 -1.022471 4.50088
      vertex -70.63952 -0.9528755 0
      vertex -70.79908 -1.022471 0
    endloop
  endfacet
  facet normal -0.325281 0.9456174 0
    outer loop
      vertex -70.79908 -1.022471 4.50088
      vertex -70.79908 -1.022471 0
      vertex -71.16132 -1.147076 4.50088
    endloop
  endfacet
  facet normal -0.325281 0.9456174 0
    outer loop
      vertex -71.16132 -1.147076 4.50088
      vertex -70.79908 -1.022471 0
      vertex -71.16132 -1.147076 0
    endloop
  endfacet
  facet normal -0.3888359 0.921307 0
    outer loop
      vertex -71.16132 -1.147076 4.50088
      vertex -71.16132 -1.147076 0
      vertex -71.20286 -1.164609 4.50088
    endloop
  endfacet
  facet normal -0.3888359 0.921307 0
    outer loop
      vertex -71.20286 -1.164609 4.50088
      vertex -71.16132 -1.147076 0
      vertex -71.20286 -1.164609 0
    endloop
  endfacet
  facet normal -0.3084005 0.9512566 0
    outer loop
      vertex -71.20286 -1.164609 4.50088
      vertex -71.20286 -1.164609 0
      vertex -71.5296 -1.270538 4.50088
    endloop
  endfacet
  facet normal -0.3084005 0.9512566 0
    outer loop
      vertex -71.5296 -1.270538 4.50088
      vertex -71.20286 -1.164609 0
      vertex -71.5296 -1.270538 0
    endloop
  endfacet
  facet normal -0.4251966 0.9051011 0
    outer loop
      vertex -71.5296 -1.270538 4.50088
      vertex -71.5296 -1.270538 0
      vertex -71.8915 -1.440552 4.50088
    endloop
  endfacet
  facet normal -0.4251966 0.9051011 0
    outer loop
      vertex -71.8915 -1.440552 4.50088
      vertex -71.5296 -1.270538 0
      vertex -71.8915 -1.440552 0
    endloop
  endfacet
  facet normal -0.2933975 0.9559906 0
    outer loop
      vertex -71.8915 -1.440552 4.50088
      vertex -71.8915 -1.440552 0
      vertex -73.24461 -1.855828 4.50088
    endloop
  endfacet
  facet normal -0.2933975 0.9559906 0
    outer loop
      vertex -73.24461 -1.855828 4.50088
      vertex -71.8915 -1.440552 0
      vertex -73.24461 -1.855828 0
    endloop
  endfacet
  facet normal -0.2147148 0.9766768 0
    outer loop
      vertex -73.24461 -1.855828 4.50088
      vertex -73.24461 -1.855828 0
      vertex -73.2888 -1.865542 4.50088
    endloop
  endfacet
  facet normal -0.2147148 0.9766768 0
    outer loop
      vertex -73.2888 -1.865542 4.50088
      vertex -73.24461 -1.855828 0
      vertex -73.2888 -1.865542 0
    endloop
  endfacet
  facet normal -0.1894291 0.9818944 0
    outer loop
      vertex -73.2888 -1.865542 4.50088
      vertex -73.2888 -1.865542 0
      vertex -73.31152 -1.869925 4.50088
    endloop
  endfacet
  facet normal -0.1894291 0.9818944 0
    outer loop
      vertex -73.31152 -1.869925 4.50088
      vertex -73.2888 -1.865542 0
      vertex -73.31152 -1.869925 0
    endloop
  endfacet
  facet normal -0.378538 0.9255857 0
    outer loop
      vertex -73.31152 -1.869925 4.50088
      vertex -73.31152 -1.869925 0
      vertex -73.35192 -1.88645 4.50088
    endloop
  endfacet
  facet normal -0.378538 0.9255857 0
    outer loop
      vertex -73.35192 -1.88645 4.50088
      vertex -73.31152 -1.869925 0
      vertex -73.35192 -1.88645 0
    endloop
  endfacet
  facet normal -0.2570404 0.9664007 0
    outer loop
      vertex -73.35192 -1.88645 4.50088
      vertex -73.35192 -1.88645 0
      vertex -73.74031 -1.989753 4.50088
    endloop
  endfacet
  facet normal -0.2570404 0.9664007 0
    outer loop
      vertex -73.74031 -1.989753 4.50088
      vertex -73.35192 -1.88645 0
      vertex -73.74031 -1.989753 0
    endloop
  endfacet
  facet normal -0.236349 0.9716682 0
    outer loop
      vertex -73.74031 -1.989753 4.50088
      vertex -73.74031 -1.989753 0
      vertex -74.46915 -2.167035 4.50088
    endloop
  endfacet
  facet normal -0.236349 0.9716682 0
    outer loop
      vertex -74.46915 -2.167035 4.50088
      vertex -73.74031 -1.989753 0
      vertex -74.46915 -2.167035 0
    endloop
  endfacet
  facet normal -0.2122709 0.9772108 0
    outer loop
      vertex -74.46915 -2.167035 4.50088
      vertex -74.46915 -2.167035 0
      vertex -76.28409 -2.561277 4.50088
    endloop
  endfacet
  facet normal -0.2122709 0.9772108 0
    outer loop
      vertex -76.28409 -2.561277 4.50088
      vertex -74.46915 -2.167035 0
      vertex -76.28409 -2.561277 0
    endloop
  endfacet
  facet normal -1 -0.0001791618 -0
    outer loop
      vertex -76.28409 -2.561277 4.50088
      vertex -76.28409 -2.561277 0
      vertex -76.27877 -32.20467 4.50088
    endloop
  endfacet
  facet normal -1 -0.0001791618 0
    outer loop
      vertex -76.27877 -32.20467 4.50088
      vertex -76.28409 -2.561277 0
      vertex -76.27877 -32.20467 0
    endloop
  endfacet
  facet normal -0.997658 0.06839984 0
    outer loop
      vertex -76.27877 -32.20467 4.50088
      vertex -76.27877 -32.20467 0
      vertex -76.28351 -32.27375 4.50088
    endloop
  endfacet
  facet normal -0.997658 0.06839984 0
    outer loop
      vertex -76.28351 -32.27375 4.50088
      vertex -76.27877 -32.20467 0
      vertex -76.28351 -32.27375 0
    endloop
  endfacet
  facet normal -0.998827 0.04842082 0
    outer loop
      vertex -76.28351 -32.27375 4.50088
      vertex -76.28351 -32.27375 0
      vertex -76.28401 -32.28399 4.50088
    endloop
  endfacet
  facet normal -0.998827 0.04842082 0
    outer loop
      vertex -76.28401 -32.28399 4.50088
      vertex -76.28351 -32.27375 0
      vertex -76.28401 -32.28399 0
    endloop
  endfacet
  facet normal -1 -2.654166e-006 -0
    outer loop
      vertex -76.28401 -32.28399 4.50088
      vertex -76.28401 -32.28399 0
      vertex -76.28393 -61.94522 4.50088
    endloop
  endfacet
  facet normal -1 -2.654166e-006 0
    outer loop
      vertex -76.28393 -61.94522 4.50088
      vertex -76.28401 -32.28399 0
      vertex -76.28393 -61.94522 0
    endloop
  endfacet
  facet normal 0.001540271 -0.9999988 0
    outer loop
      vertex -76.28393 -61.94522 4.50088
      vertex -76.28393 -61.94522 0
      vertex -75.3993 -61.94386 4.50088
    endloop
  endfacet
  facet normal 0.001540271 -0.9999988 0
    outer loop
      vertex -75.3993 -61.94386 4.50088
      vertex -76.28393 -61.94522 0
      vertex -75.3993 -61.94386 0
    endloop
  endfacet
  facet normal 0.001684385 -0.9999986 0
    outer loop
      vertex -75.3993 -61.94386 4.50088
      vertex -75.3993 -61.94386 0
      vertex -75.34178 -61.94376 4.50088
    endloop
  endfacet
  facet normal 0.001684385 -0.9999986 0
    outer loop
      vertex -75.34178 -61.94376 4.50088
      vertex -75.3993 -61.94386 0
      vertex -75.34178 -61.94376 0
    endloop
  endfacet
  facet normal -1 -0 -0
    outer loop
      vertex 7.064628 -30.27548 4.50088
      vertex 7.064628 -30.27548 0
      vertex 7.064628 -35.34024 4.50088
    endloop
  endfacet
  facet normal -1 -0 -0
    outer loop
      vertex 7.064628 -35.34024 4.50088
      vertex 7.064628 -30.27548 0
      vertex 7.064628 -35.34024 0
    endloop
  endfacet
  facet normal 0 1 0
    outer loop
      vertex 7.064628 -35.34024 4.50088
      vertex 7.064628 -35.34024 0
      vertex 2.309748 -35.34024 4.50088
    endloop
  endfacet
  facet normal 0 1 0
    outer loop
      vertex 2.309748 -35.34024 4.50088
      vertex 7.064628 -35.34024 0
      vertex 2.309748 -35.34024 0
    endloop
  endfacet
  facet normal 1 -0 0
    outer loop
      vertex 2.309748 -35.34024 4.50088
      vertex 2.309748 -35.34024 0
      vertex 2.309748 -30.27548 4.50088
    endloop
  endfacet
  facet normal 1 -0 0
    outer loop
      vertex 2.309748 -30.27548 4.50088
      vertex 2.309748 -35.34024 0
      vertex 2.309748 -30.27548 0
    endloop
  endfacet
  facet normal 0 1 0
    outer loop
      vertex 2.309748 -30.27548 4.50088
      vertex 2.309748 -30.27548 0
      vertex -2.755012 -30.27548 4.50088
    endloop
  endfacet
  facet normal 0 1 0
    outer loop
      vertex -2.755012 -30.27548 4.50088
      vertex 2.309748 -30.27548 0
      vertex -2.755012 -30.27548 0
    endloop
  endfacet
  facet normal 1 -0 0
    outer loop
      vertex -2.755012 -30.27548 4.50088
      vertex -2.755012 -30.27548 0
      vertex -2.755012 -25.5206 4.50088
    endloop
  endfacet
  facet normal 1 -0 0
    outer loop
      vertex -2.755012 -25.5206 4.50088
      vertex -2.755012 -30.27548 0
      vertex -2.755012 -25.5206 0
    endloop
  endfacet
  facet normal 0 -1 0
    outer loop
      vertex -2.755012 -25.5206 4.50088
      vertex -2.755012 -25.5206 0
      vertex 2.309748 -25.5206 4.50088
    endloop
  endfacet
  facet normal 0 -1 -0
    outer loop
      vertex 2.309748 -25.5206 4.50088
      vertex -2.755012 -25.5206 0
      vertex 2.309748 -25.5206 0
    endloop
  endfacet
  facet normal 1 -0 0
    outer loop
      vertex 2.309748 -25.5206 4.50088
      vertex 2.309748 -25.5206 0
      vertex 2.309748 -20.45584 4.50088
    endloop
  endfacet
  facet normal 1 -0 0
    outer loop
      vertex 2.309748 -20.45584 4.50088
      vertex 2.309748 -25.5206 0
      vertex 2.309748 -20.45584 0
    endloop
  endfacet
  facet normal 0 -1 0
    outer loop
      vertex 2.309748 -20.45584 4.50088
      vertex 2.309748 -20.45584 0
      vertex 7.064628 -20.45584 4.50088
    endloop
  endfacet
  facet normal 0 -1 -0
    outer loop
      vertex 7.064628 -20.45584 4.50088
      vertex 2.309748 -20.45584 0
      vertex 7.064628 -20.45584 0
    endloop
  endfacet
  facet normal -1 -0 -0
    outer loop
      vertex 7.064628 -20.45584 4.50088
      vertex 7.064628 -20.45584 0
      vertex 7.064628 -25.5206 4.50088
    endloop
  endfacet
  facet normal -1 -0 -0
    outer loop
      vertex 7.064628 -25.5206 4.50088
      vertex 7.064628 -20.45584 0
      vertex 7.064628 -25.5206 0
    endloop
  endfacet
  facet normal 0 -1 0
    outer loop
      vertex 7.064628 -25.5206 4.50088
      vertex 7.064628 -25.5206 0
      vertex 12.12939 -25.5206 4.50088
    endloop
  endfacet
  facet normal 0 -1 -0
    outer loop
      vertex 12.12939 -25.5206 4.50088
      vertex 7.064628 -25.5206 0
      vertex 12.12939 -25.5206 0
    endloop
  endfacet
  facet normal -1 -0 -0
    outer loop
      vertex 12.12939 -25.5206 4.50088
      vertex 12.12939 -25.5206 0
      vertex 12.12939 -30.27548 4.50088
    endloop
  endfacet
  facet normal -1 -0 -0
    outer loop
      vertex 12.12939 -30.27548 4.50088
      vertex 12.12939 -25.5206 0
      vertex 12.12939 -30.27548 0
    endloop
  endfacet
  facet normal 0 1 0
    outer loop
      vertex 12.12939 -30.27548 4.50088
      vertex 12.12939 -30.27548 0
      vertex 7.064628 -30.27548 4.50088
    endloop
  endfacet
  facet normal 0 1 0
    outer loop
      vertex 7.064628 -30.27548 4.50088
      vertex 12.12939 -30.27548 0
      vertex 7.064628 -30.27548 0
    endloop
  endfacet
  facet normal -0 -0 -1
    outer loop
      vertex 84.69204 3.708276 0
      vertex 84.70335 -1.355224 0
      vertex 83.91128 3.994929 0
    endloop
  endfacet
  facet normal -0 0 -1
    outer loop
      vertex 84.71089 -29.10321 0
      vertex 50.20683 -54.61668 0
      vertex 51.44791 6.637919 0
    endloop
  endfacet
  facet normal 0 -0 -1
    outer loop
      vertex -76.28401 -32.28399 0
      vertex -49.03843 -61.94189 0
      vertex -49.1022 -61.94444 0
    endloop
  endfacet
  facet normal -0 -0 -1
    outer loop
      vertex 12.12939 -30.27548 0
      vertex 13.0511 -61.94013 0
      vertex 7.064628 -35.34024 0
    endloop
  endfacet
  facet normal -0 0 -1
    outer loop
      vertex 50.09753 -61.74904 0
      vertex 49.97275 -61.96427 0
      vertex 49.88162 -61.95458 0
    endloop
  endfacet
  facet normal -0 -0 -1
    outer loop
      vertex -76.28401 -32.28399 0
      vertex -71.22702 -61.94483 0
      vertex -75.34178 -61.94376 0
    endloop
  endfacet
  facet normal 0 0 -1
    outer loop
      vertex 84.69875 -1.362935 0
      vertex 83.01144 4.335387 0
      vertex 84.70335 -1.355224 0
    endloop
  endfacet
  facet normal -0 -0 -1
    outer loop
      vertex 83.01144 4.335387 0
      vertex 84.69875 -1.362935 0
      vertex 82.04521 4.765116 0
    endloop
  endfacet
  facet normal -0 0 -1
    outer loop
      vertex -2.755012 -25.5206 0
      vertex -49.03843 -61.94189 0
      vertex -25.65224 6.624123 0
    endloop
  endfacet
  facet normal -0 -0 -1
    outer loop
      vertex 7.064628 -20.45584 0
      vertex 12.12939 -25.5206 0
      vertex 7.064628 -25.5206 0
    endloop
  endfacet
  facet normal -0 -0 -1
    outer loop
      vertex -76.28401 -32.28399 0
      vertex -49.1022 -61.94444 0
      vertex -70.3965 -61.90149 0
    endloop
  endfacet
  facet normal 0 0 -1
    outer loop
      vertex -2.755012 -25.5206 0
      vertex -23.13822 6.620717 0
      vertex -22.31784 6.609718 0
    endloop
  endfacet
  facet normal 0 0 -1
    outer loop
      vertex -23.59517 6.618516 0
      vertex -24.1369 6.620437 0
      vertex -23.73206 6.622906 0
    endloop
  endfacet
  facet normal -0 0 -1
    outer loop
      vertex -74.46915 -2.167035 0
      vertex -76.27877 -32.20467 0
      vertex -76.28409 -2.561277 0
    endloop
  endfacet
  facet normal -0 0 -1
    outer loop
      vertex -25.65224 6.624123 0
      vertex -61.62172 5.390727 0
      vertex -61.37695 5.645784 0
    endloop
  endfacet
  facet normal 0 -0 -1
    outer loop
      vertex -76.27877 -32.20467 0
      vertex -25.65224 6.624123 0
      vertex -49.03843 -61.94189 0
    endloop
  endfacet
  facet normal 0 -0 -1
    outer loop
      vertex -66.24805 1.562276 0
      vertex -65.15982 2.346784 0
      vertex -66.29076 1.522822 0
    endloop
  endfacet
  facet normal 0 0 -1
    outer loop
      vertex -65.15982 2.346784 0
      vertex -64.20079 3.173814 0
      vertex -63.76251 3.457231 0
    endloop
  endfacet
  facet normal -0 0 -1
    outer loop
      vertex -66.29076 1.522822 0
      vertex -67.05271 1.039325 0
      vertex -66.66821 1.313134 0
    endloop
  endfacet
  facet normal 0 -0 -1
    outer loop
      vertex 12.87495 -61.94099 0
      vertex 13.0511 -61.94013 0
      vertex 12.99929 -61.94493 0
    endloop
  endfacet
  facet normal -0 0 -1
    outer loop
      vertex 13.2908 6.6284 0
      vertex 7.064628 -20.45584 0
      vertex 13.28458 6.627815 0
    endloop
  endfacet
  facet normal 0 -0 -1
    outer loop
      vertex -76.28401 -32.28399 0
      vertex -70.83067 -61.90864 0
      vertex -71.22702 -61.94483 0
    endloop
  endfacet
  facet normal 0 -0 -1
    outer loop
      vertex -76.28401 -32.28399 0
      vertex -70.3965 -61.90149 0
      vertex -70.83067 -61.90864 0
    endloop
  endfacet
  facet normal -0 0 -1
    outer loop
      vertex -70.3965 -61.90149 0
      vertex -70.83086 -61.94418 0
      vertex -70.83067 -61.90864 0
    endloop
  endfacet
  facet normal -0 0 -1
    outer loop
      vertex -70.63952 -0.9528755 0
      vertex -76.27877 -32.20467 0
      vertex -70.79908 -1.022471 0
    endloop
  endfacet
  facet normal 0 0 -1
    outer loop
      vertex -70.39382 -61.94503 0
      vertex -70.3965 -61.90149 0
      vertex -49.1022 -61.94444 0
    endloop
  endfacet
  facet normal 0 0 -1
    outer loop
      vertex 12.87495 -61.94099 0
      vertex 2.309748 -35.34024 0
      vertex 7.064628 -35.34024 0
    endloop
  endfacet
  facet normal 0 -0 -1
    outer loop
      vertex 12.87495 -61.94099 0
      vertex 12.99929 -61.94493 0
      vertex 12.97413 -61.94798 0
    endloop
  endfacet
  facet normal 0 -0 -1
    outer loop
      vertex 7.064628 -35.34024 0
      vertex 13.0511 -61.94013 0
      vertex 12.87495 -61.94099 0
    endloop
  endfacet
  facet normal -0 0 -1
    outer loop
      vertex 50.20683 -54.61668 0
      vertex 49.88162 -61.95458 0
      vertex 13.0511 -61.94013 0
    endloop
  endfacet
  facet normal 0 0 -1
    outer loop
      vertex 50.09753 -61.74904 0
      vertex 50.09514 -61.95928 0
      vertex 49.97275 -61.96427 0
    endloop
  endfacet
  facet normal 0 0 -1
    outer loop
      vertex 50.09514 -61.95928 0
      vertex 50.09753 -61.74904 0
      vertex 50.17173 -61.82851 0
    endloop
  endfacet
  facet normal 0 0 -1
    outer loop
      vertex 50.11562 6.628004 0
      vertex 51.41428 6.640931 0
      vertex 51.44791 6.637919 0
    endloop
  endfacet
  facet normal 0 -0 -1
    outer loop
      vertex 49.88162 -61.95458 0
      vertex 50.20683 -54.61668 0
      vertex 50.09753 -61.74904 0
    endloop
  endfacet
  facet normal 0 0 -1
    outer loop
      vertex 55.27932 -61.9448 0
      vertex 51.93313 -57.17127 0
      vertex 84.71624 -61.94369 0
    endloop
  endfacet
  facet normal -0 0 -1
    outer loop
      vertex 84.71035 -29.12045 0
      vertex 51.93313 -57.17127 0
      vertex 50.20683 -54.61668 0
    endloop
  endfacet
  facet normal 0 0 -1
    outer loop
      vertex 51.93313 -57.17127 0
      vertex 84.71035 -29.12045 0
      vertex 84.71624 -61.94369 0
    endloop
  endfacet
  facet normal 0 -0 -1
    outer loop
      vertex 50.20683 -54.61668 0
      vertex 84.71089 -29.10321 0
      vertex 84.71035 -29.12045 0
    endloop
  endfacet
  facet normal 0 -0 -1
    outer loop
      vertex 51.44791 6.637919 0
      vertex 84.71438 -29.08703 0
      vertex 84.71089 -29.10321 0
    endloop
  endfacet
  facet normal 0 0 -1
    outer loop
      vertex 67.82296 6.503685 0
      vertex 79.12089 6.628692 0
      vertex 79.5915 6.284524 0
    endloop
  endfacet
  facet normal 0 -0 -1
    outer loop
      vertex 83.91128 3.994929 0
      vertex 84.69638 3.755054 0
      vertex 84.69204 3.708276 0
    endloop
  endfacet
  facet normal 0 0 -1
    outer loop
      vertex 84.70335 -1.355224 0
      vertex 83.01144 4.335387 0
      vertex 83.4389 4.159497 0
    endloop
  endfacet
  facet normal -0 -0 -1
    outer loop
      vertex 83.91128 3.994929 0
      vertex 84.70335 -1.355224 0
      vertex 83.4389 4.159497 0
    endloop
  endfacet
  facet normal 0 0 -1
    outer loop
      vertex 67.82296 6.503685 0
      vertex 79.5915 6.284524 0
      vertex 84.69875 -1.362935 0
    endloop
  endfacet
  facet normal -0 -0 -1
    outer loop
      vertex 82.04521 4.765116 0
      vertex 84.69875 -1.362935 0
      vertex 81.90298 4.813705 0
    endloop
  endfacet
  facet normal -0 -0 -1
    outer loop
      vertex 81.90298 4.813705 0
      vertex 84.69875 -1.362935 0
      vertex 81.67381 4.935435 0
    endloop
  endfacet
  facet normal -0 -0 -1
    outer loop
      vertex 81.67381 4.935435 0
      vertex 84.69875 -1.362935 0
      vertex 79.5915 6.284524 0
    endloop
  endfacet
  facet normal 0 0 -1
    outer loop
      vertex 67.82296 6.503685 0
      vertex 84.69875 -1.362935 0
      vertex 84.71438 -29.08703 0
    endloop
  endfacet
  facet normal -0 0 -1
    outer loop
      vertex 79.12089 6.628692 0
      vertex 67.8299 6.562153 0
      vertex 67.72891 6.622865 0
    endloop
  endfacet
  facet normal -0 -0 -1
    outer loop
      vertex 65.68757 6.582254 0
      vertex 84.71438 -29.08703 0
      vertex 51.44791 6.637919 0
    endloop
  endfacet
  facet normal -0 0 -1
    outer loop
      vertex 79.12089 6.628692 0
      vertex 67.82296 6.503685 0
      vertex 67.8299 6.562153 0
    endloop
  endfacet
  facet normal 0 0 -1
    outer loop
      vertex 84.71438 -29.08703 0
      vertex 65.68757 6.582254 0
      vertex 67.82296 6.503685 0
    endloop
  endfacet
  facet normal 0 -0 -1
    outer loop
      vertex 50.11562 6.628004 0
      vertex 51.44791 6.637919 0
      vertex 50.20683 -54.61668 0
    endloop
  endfacet
  facet normal -0 0 -1
    outer loop
      vertex 51.41428 6.640931 0
      vertex 50.11562 6.628004 0
      vertex 50.12664 6.629766 0
    endloop
  endfacet
  facet normal 0 -0 -1
    outer loop
      vertex 45.58372 6.642355 0
      vertex 50.11562 6.628004 0
      vertex 47.04112 6.502193 0
    endloop
  endfacet
  facet normal -0 -0 -1
    outer loop
      vertex 50.11562 6.628004 0
      vertex 50.20683 -54.61668 0
      vertex 47.04112 6.502193 0
    endloop
  endfacet
  facet normal 0 0 -1
    outer loop
      vertex 42.46092 6.594883 0
      vertex 46.73752 6.488797 0
      vertex 50.20683 -54.61668 0
    endloop
  endfacet
  facet normal 0 0 -1
    outer loop
      vertex 46.73752 6.488797 0
      vertex 47.04112 6.502193 0
      vertex 50.20683 -54.61668 0
    endloop
  endfacet
  facet normal -0 0 -1
    outer loop
      vertex 47.04112 6.502193 0
      vertex 46.73752 6.488797 0
      vertex 46.93224 6.503762 0
    endloop
  endfacet
  facet normal 0 0 -1
    outer loop
      vertex 47.04112 6.502193 0
      vertex 45.46513 6.64559 0
      vertex 45.58372 6.642355 0
    endloop
  endfacet
  facet normal 0 0 -1
    outer loop
      vertex 12.12939 -25.5206 0
      vertex 30.15643 6.530624 0
      vertex 42.46092 6.594883 0
    endloop
  endfacet
  facet normal 0 0 -1
    outer loop
      vertex 12.12939 -25.5206 0
      vertex 26.23955 6.611585 0
      vertex 30.15643 6.530624 0
    endloop
  endfacet
  facet normal 0 0 -1
    outer loop
      vertex 7.064628 -20.45584 0
      vertex 13.2908 6.6284 0
      vertex 26.23955 6.611585 0
    endloop
  endfacet
  facet normal 0 -0 -1
    outer loop
      vertex 2.309748 -20.45584 0
      vertex 13.19923 6.62429 0
      vertex 7.064628 -20.45584 0
    endloop
  endfacet
  facet normal -0 0 -1
    outer loop
      vertex 13.28458 6.627815 0
      vertex 7.064628 -20.45584 0
      vertex 13.19923 6.62429 0
    endloop
  endfacet
  facet normal -0 -0 -1
    outer loop
      vertex -22.84855 6.629019 0
      vertex -22.31784 6.609718 0
      vertex -23.13822 6.620717 0
    endloop
  endfacet
  facet normal -0 -0 -1
    outer loop
      vertex -22.3698 6.635598 0
      vertex -22.31784 6.609718 0
      vertex -22.43137 6.622705 0
    endloop
  endfacet
  facet normal 0 0 -1
    outer loop
      vertex -22.31784 6.609718 0
      vertex -22.84855 6.629019 0
      vertex -22.43137 6.622705 0
    endloop
  endfacet
  facet normal -0 0 -1
    outer loop
      vertex -23.13822 6.620717 0
      vertex -23.59517 6.618516 0
      vertex -23.46569 6.62296 0
    endloop
  endfacet
  facet normal 0 0 -1
    outer loop
      vertex -2.755012 -25.5206 0
      vertex -23.59517 6.618516 0
      vertex -23.13822 6.620717 0
    endloop
  endfacet
  facet normal -0 -0 -1
    outer loop
      vertex -25.15778 6.636215 0
      vertex -24.1369 6.620437 0
      vertex -25.65224 6.624123 0
    endloop
  endfacet
  facet normal 0 0 -1
    outer loop
      vertex -2.755012 -25.5206 0
      vertex -24.1369 6.620437 0
      vertex -23.59517 6.618516 0
    endloop
  endfacet
  facet normal 0 -0 -1
    outer loop
      vertex -60.47765 6.618656 0
      vertex -25.65224 6.624123 0
      vertex -60.50858 6.580981 0
    endloop
  endfacet
  facet normal 0 -0 -1
    outer loop
      vertex -60.50858 6.580981 0
      vertex -25.65224 6.624123 0
      vertex -61.27158 5.764054 0
    endloop
  endfacet
  facet normal 0 -0 -1
    outer loop
      vertex -61.27158 5.764054 0
      vertex -25.65224 6.624123 0
      vertex -61.37695 5.645784 0
    endloop
  endfacet
  facet normal 0 -0 -1
    outer loop
      vertex -61.62172 5.390727 0
      vertex -25.65224 6.624123 0
      vertex -61.85034 5.174898 0
    endloop
  endfacet
  facet normal 0 -0 -1
    outer loop
      vertex -61.85034 5.174898 0
      vertex -25.65224 6.624123 0
      vertex -63.13988 4.005145 0
    endloop
  endfacet
  facet normal 0 0 -1
    outer loop
      vertex -63.76251 3.457231 0
      vertex -63.13988 4.005145 0
      vertex -25.65224 6.624123 0
    endloop
  endfacet
  facet normal -0 0 -1
    outer loop
      vertex -63.13988 4.005145 0
      vertex -63.76251 3.457231 0
      vertex -63.29962 3.870915 0
    endloop
  endfacet
  facet normal -0 0 -1
    outer loop
      vertex -63.76251 3.457231 0
      vertex -64.20079 3.173814 0
      vertex -64.08632 3.253416 0
    endloop
  endfacet
  facet normal 0 -0 -1
    outer loop
      vertex -64.15417 3.212335 0
      vertex -64.08632 3.253416 0
      vertex -64.20079 3.173814 0
    endloop
  endfacet
  facet normal -0 0 -1
    outer loop
      vertex -63.76251 3.457231 0
      vertex -76.27877 -32.20467 0
      vertex -65.15982 2.346784 0
    endloop
  endfacet
  facet normal 0 0 -1
    outer loop
      vertex -76.27877 -32.20467 0
      vertex -63.76251 3.457231 0
      vertex -25.65224 6.624123 0
    endloop
  endfacet
  facet normal -0 0 -1
    outer loop
      vertex -65.15982 2.346784 0
      vertex -76.27877 -32.20467 0
      vertex -66.29076 1.522822 0
    endloop
  endfacet
  facet normal -0 0 -1
    outer loop
      vertex -68.30379 0.3117868 0
      vertex -76.27877 -32.20467 0
      vertex -70.63952 -0.9528755 0
    endloop
  endfacet
  facet normal -0 0 -1
    outer loop
      vertex -66.29076 1.522822 0
      vertex -76.27877 -32.20467 0
      vertex -67.05271 1.039325 0
    endloop
  endfacet
  facet normal -0 0 -1
    outer loop
      vertex -67.05271 1.039325 0
      vertex -76.27877 -32.20467 0
      vertex -68.30379 0.3117868 0
    endloop
  endfacet
  facet normal -0 0 -1
    outer loop
      vertex -71.20286 -1.164609 0
      vertex -71.8915 -1.440552 0
      vertex -71.5296 -1.270538 0
    endloop
  endfacet
  facet normal -0 0 -1
    outer loop
      vertex -70.79908 -1.022471 0
      vertex -71.20286 -1.164609 0
      vertex -71.16132 -1.147076 0
    endloop
  endfacet
  facet normal -0 0 -1
    outer loop
      vertex -70.79908 -1.022471 0
      vertex -71.8915 -1.440552 0
      vertex -71.20286 -1.164609 0
    endloop
  endfacet
  facet normal -0 0 -1
    outer loop
      vertex -70.79908 -1.022471 0
      vertex -76.27877 -32.20467 0
      vertex -71.8915 -1.440552 0
    endloop
  endfacet
  facet normal 0 0 -1
    outer loop
      vertex -73.35192 -1.88645 0
      vertex -73.2888 -1.865542 0
      vertex -73.24461 -1.855828 0
    endloop
  endfacet
  facet normal 0 0 -1
    outer loop
      vertex -73.35192 -1.88645 0
      vertex -73.31152 -1.869925 0
      vertex -73.2888 -1.865542 0
    endloop
  endfacet
  facet normal -0 0 -1
    outer loop
      vertex -73.35192 -1.88645 0
      vertex -76.27877 -32.20467 0
      vertex -73.74031 -1.989753 0
    endloop
  endfacet
  facet normal -0 0 -1
    outer loop
      vertex -71.8915 -1.440552 0
      vertex -76.27877 -32.20467 0
      vertex -73.24461 -1.855828 0
    endloop
  endfacet
  facet normal -0 0 -1
    outer loop
      vertex -73.24461 -1.855828 0
      vertex -76.27877 -32.20467 0
      vertex -73.35192 -1.88645 0
    endloop
  endfacet
  facet normal -0 0 -1
    outer loop
      vertex -73.74031 -1.989753 0
      vertex -76.27877 -32.20467 0
      vertex -74.46915 -2.167035 0
    endloop
  endfacet
  facet normal 0 0 -1
    outer loop
      vertex -75.3993 -61.94386 0
      vertex -76.28401 -32.28399 0
      vertex -75.34178 -61.94376 0
    endloop
  endfacet
  facet normal 0 0 -1
    outer loop
      vertex -76.28401 -32.28399 0
      vertex -76.27877 -32.20467 0
      vertex -49.03843 -61.94189 0
    endloop
  endfacet
  facet normal -0 0 -1
    outer loop
      vertex -76.27877 -32.20467 0
      vertex -76.28401 -32.28399 0
      vertex -76.28351 -32.27375 0
    endloop
  endfacet
  facet normal 0 -0 -1
    outer loop
      vertex -76.28401 -32.28399 0
      vertex -75.3993 -61.94386 0
      vertex -76.28393 -61.94522 0
    endloop
  endfacet
  facet normal 0 -0 -1
    outer loop
      vertex 2.309748 -35.34024 0
      vertex 12.87495 -61.94099 0
      vertex -49.03843 -61.94189 0
    endloop
  endfacet
  facet normal 0 -0 -1
    outer loop
      vertex -2.755012 -30.27548 0
      vertex 2.309748 -35.34024 0
      vertex -49.03843 -61.94189 0
    endloop
  endfacet
  facet normal 0 0 -1
    outer loop
      vertex 2.309748 -35.34024 0
      vertex -2.755012 -30.27548 0
      vertex 2.309748 -30.27548 0
    endloop
  endfacet
  facet normal 0 0 -1
    outer loop
      vertex -2.755012 -25.5206 0
      vertex -25.65224 6.624123 0
      vertex -24.1369 6.620437 0
    endloop
  endfacet
  facet normal -0 0 -1
    outer loop
      vertex 13.19923 6.62429 0
      vertex 2.309748 -20.45584 0
      vertex -22.31784 6.609718 0
    endloop
  endfacet
  facet normal 0 0 -1
    outer loop
      vertex -49.03843 -61.94189 0
      vertex -2.755012 -25.5206 0
      vertex -2.755012 -30.27548 0
    endloop
  endfacet
  facet normal -0 -0 -1
    outer loop
      vertex 2.309748 -20.45584 0
      vertex 2.309748 -25.5206 0
      vertex -2.755012 -25.5206 0
    endloop
  endfacet
  facet normal 0 0 -1
    outer loop
      vertex -2.755012 -25.5206 0
      vertex -22.31784 6.609718 0
      vertex 2.309748 -20.45584 0
    endloop
  endfacet
  facet normal -0 0 -1
    outer loop
      vertex 26.23955 6.611585 0
      vertex 12.12939 -25.5206 0
      vertex 7.064628 -20.45584 0
    endloop
  endfacet
  facet normal 0 -0 -1
    outer loop
      vertex 7.064628 -30.27548 0
      vertex 12.12939 -30.27548 0
      vertex 7.064628 -35.34024 0
    endloop
  endfacet
  facet normal -0 -0 -1
    outer loop
      vertex 42.46092 6.594883 0
      vertex 50.20683 -54.61668 0
      vertex 12.12939 -25.5206 0
    endloop
  endfacet
  facet normal 0 0 -1
    outer loop
      vertex 13.0511 -61.94013 0
      vertex 12.12939 -30.27548 0
      vertex 50.20683 -54.61668 0
    endloop
  endfacet
  facet normal -0 -0 -1
    outer loop
      vertex 12.12939 -25.5206 0
      vertex 50.20683 -54.61668 0
      vertex 12.12939 -30.27548 0
    endloop
  endfacet
endsolid
