  0
SECTION
  2
BLOCKS
  0
ENDSEC
  0
SECTION
  2
ENTITIES
  0
LINE
  8
0
 10
0.525681
 20
-6.72949
 11
0.720963
 21
-6.35236
  0
LINE
  8
0
 10
0.720963
 20
-6.35236
 11
0.842468
 21
-6.02838
  0
LINE
  8
0
 10
0.842468
 20
-6.02838
 11
0.906006
 21
-5.76874
  0
LINE
  8
0
 10
0.906006
 20
-5.76874
 11
0.928925
 21
-5.58153
  0
LINE
  8
0
 10
0.928925
 20
-5.58153
 11
0.929504
 21
-5.47159
  0
LINE
  8
0
 10
0.929504
 20
-5.47159
 11
0.927856
 21
-5.46191
  0
LINE
  8
0
 10
0.927856
 20
-5.46191
 11
1.14796
 21
-5.41994
  0
LINE
  8
0
 10
1.14796
 20
-5.41994
 11
1.14999
 21
-5.42953
  0
LINE
  8
0
 10
1.14999
 20
-5.42953
 11
1.19099
 21
-5.53152
  0
LINE
  8
0
 10
1.19099
 20
-5.53152
 11
1.28122
 21
-5.69717
  0
LINE
  8
0
 10
1.28122
 20
-5.69717
 11
1.43588
 21
-5.91519
  0
LINE
  8
0
 10
1.43588
 20
-5.91519
 11
1.66811
 21
-6.17168
  0
LINE
  8
0
 10
1.66811
 20
-6.17168
 11
1.98851
 21
-6.45044
  0
LINE
  8
0
 10
1.98851
 20
-6.45044
 11
2.18271
 21
-6.38733
  0
LINE
  8
0
 10
2.18271
 20
-6.38733
 11
2.27808
 21
-5.9735
  0
LINE
  8
0
 10
2.27808
 20
-5.9735
 11
2.3152
 21
-5.62949
  0
LINE
  8
0
 10
2.3152
 20
-5.62949
 11
2.31218
 21
-5.36218
  0
LINE
  8
0
 10
2.31218
 20
-5.36218
 11
2.28781
 21
-5.17516
  0
LINE
  8
0
 10
2.28781
 20
-5.17516
 11
2.26103
 21
-5.06853
  0
LINE
  8
0
 10
2.26103
 20
-5.06853
 11
2.25703
 21
-5.05957
  0
LINE
  8
0
 10
2.25703
 20
-5.05957
 11
2.45978
 21
-4.96417
  0
LINE
  8
0
 10
2.45978
 20
-4.96417
 11
2.46413
 21
-4.97296
  0
LINE
  8
0
 10
2.46413
 20
-4.97296
 11
2.52922
 21
-5.06155
  0
LINE
  8
0
 10
2.52922
 20
-5.06155
 11
2.65779
 21
-5.19955
  0
LINE
  8
0
 10
2.65779
 20
-5.19955
 11
2.86182
 21
-5.37225
  0
LINE
  8
0
 10
2.86182
 20
-5.37225
 11
3.15054
 21
-5.56294
  0
LINE
  8
0
 10
3.15054
 20
-5.56294
 11
3.5302
 21
-5.75325
  0
LINE
  8
0
 10
3.5302
 20
-5.75325
 11
3.70261
 21
-5.64384
  0
LINE
  8
0
 10
3.70261
 20
-5.64384
 11
3.69206
 21
-5.21928
  0
LINE
  8
0
 10
3.69206
 20
-5.21928
 11
3.64246
 21
-4.87685
  0
LINE
  8
0
 10
3.64246
 20
-4.87685
 11
3.57306
 21
-4.61871
  0
LINE
  8
0
 10
3.57306
 20
-4.61871
 11
3.50294
 21
-4.4436
  0
LINE
  8
0
 10
3.50294
 20
-4.4436
 11
3.45049
 21
-4.347
  0
LINE
  8
0
 10
3.45049
 20
-4.347
 11
3.44438
 21
-4.33932
  0
LINE
  8
0
 10
3.44438
 20
-4.33932
 11
3.61703
 21
-4.19649
  0
LINE
  8
0
 10
3.61703
 20
-4.19649
 11
3.62344
 21
-4.20392
  0
LINE
  8
0
 10
3.62344
 20
-4.20392
 11
3.70851
 21
-4.27354
  0
LINE
  8
0
 10
3.70851
 20
-4.27354
 11
3.86737
 21
-4.37523
  0
LINE
  8
0
 10
3.86737
 20
-4.37523
 11
4.10794
 21
-4.49178
  0
LINE
  8
0
 10
4.10794
 20
-4.49178
 11
4.43501
 21
-4.60466
  0
LINE
  8
0
 10
4.43501
 20
-4.60466
 11
4.85007
 21
-4.69458
  0
LINE
  8
0
 10
4.85007
 20
-4.69458
 11
4.98985
 21
-4.54573
  0
LINE
  8
0
 10
4.98985
 20
-4.54573
 11
4.87405
 21
-4.13713
  0
LINE
  8
0
 10
4.87405
 20
-4.13713
 11
4.74084
 21
-3.81779
  0
LINE
  8
0
 10
4.74084
 20
-3.81779
 11
4.60944
 21
-3.58502
  0
LINE
  8
0
 10
4.60944
 20
-3.58502
 11
4.49797
 21
-3.43286
  0
LINE
  8
0
 10
4.49797
 20
-3.43286
 11
4.42314
 21
-3.35233
  0
LINE
  8
0
 10
4.42314
 20
-3.35233
 11
4.41533
 21
-3.34641
  0
LINE
  8
0
 10
4.41533
 20
-3.34641
 11
4.54703
 21
-3.16513
  0
LINE
  8
0
 10
4.54703
 20
-3.16513
 11
4.55508
 21
-3.17073
  0
LINE
  8
0
 10
4.55508
 20
-3.17073
 11
4.6548
 21
-3.21701
  0
LINE
  8
0
 10
4.6548
 20
-3.21701
 11
4.83395
 21
-3.276
  0
LINE
  8
0
 10
4.83395
 20
-3.276
 11
5.09595
 21
-3.32904
  0
LINE
  8
0
 10
5.09595
 20
-3.32904
 11
5.44081
 21
-3.35706
  0
LINE
  8
0
 10
5.44081
 20
-3.35706
 11
5.86519
 21
-3.34093
  0
LINE
  8
0
 10
5.86519
 20
-3.34093
 11
5.96356
 21
-3.16199
  0
LINE
  8
0
 10
5.96356
 20
-3.16199
 11
5.74979
 21
-2.79503
  0
LINE
  8
0
 10
5.74979
 20
-2.79503
 11
5.54135
 21
-2.51884
  0
LINE
  8
0
 10
5.54135
 20
-2.51884
 11
5.35617
 21
-2.32607
  0
LINE
  8
0
 10
5.35617
 20
-2.32607
 11
5.21037
 21
-2.20641
  0
LINE
  8
0
 10
5.21037
 20
-2.20641
 11
5.11787
 21
-2.14702
  0
LINE
  8
0
 10
5.11787
 20
-2.14702
 11
5.10883
 21
-2.14322
  0
LINE
  8
0
 10
5.10883
 20
-2.14322
 11
5.19131
 21
-1.93489
  0
LINE
  8
0
 10
5.19131
 20
-1.93489
 11
5.2005
 21
-1.93831
  0
LINE
  8
0
 10
5.2005
 20
-1.93831
 11
5.30859
 21
-1.95834
  0
LINE
  8
0
 10
5.30859
 20
-1.95834
 11
5.4968
 21
-1.97092
  0
LINE
  8
0
 10
5.4968
 20
-1.97092
 11
5.76375
 21
-1.95715
  0
LINE
  8
0
 10
5.76375
 20
-1.95715
 11
6.10475
 21
-1.89851
  0
LINE
  8
0
 10
6.10475
 20
-1.89851
 11
6.51178
 21
-1.77734
  0
LINE
  8
0
 10
6.51178
 20
-1.77734
 11
6.56256
 21
-1.57956
  0
LINE
  8
0
 10
6.56256
 20
-1.57956
 11
6.26424
 21
-1.2773
  0
LINE
  8
0
 10
6.26424
 20
-1.2773
 11
5.99367
 21
-1.06163
  0
LINE
  8
0
 10
5.99367
 20
-1.06163
 11
5.76637
 21
-0.920959
  0
LINE
  8
0
 10
5.76637
 20
-0.920959
 11
5.5954
 21
-0.841309
  0
LINE
  8
0
 10
5.5954
 20
-0.841309
 11
5.49103
 21
-0.806793
  0
LINE
  8
0
 10
5.49103
 20
-0.806793
 11
5.48132
 21
-0.805374
  0
LINE
  8
0
 10
5.48132
 20
-0.805374
 11
5.50941
 21
-0.583069
  0
LINE
  8
0
 10
5.50941
 20
-0.583069
 11
5.51917
 21
-0.584106
  0
LINE
  8
0
 10
5.51917
 20
-0.584106
 11
5.62885
 21
-0.57663
  0
LINE
  8
0
 10
5.62885
 20
-0.57663
 11
5.81425
 21
-0.542007
  0
LINE
  8
0
 10
5.81425
 20
-0.542007
 11
6.0694
 21
-0.46228
  0
LINE
  8
0
 10
6.0694
 20
-0.46228
 11
6.3851
 21
-0.320679
  0
LINE
  8
0
 10
6.3851
 20
-0.320679
 11
6.74922
 21
-0.102097
  0
LINE
  8
0
 10
6.74922
 20
-0.102097
 11
6.74922
 21
0.102081
  0
LINE
  8
0
 10
6.74922
 20
0.102081
 11
6.3851
 21
0.320663
  0
LINE
  8
0
 10
6.3851
 20
0.320663
 11
6.0694
 21
0.462265
  0
LINE
  8
0
 10
6.0694
 20
0.462265
 11
5.81425
 21
0.541992
  0
LINE
  8
0
 10
5.81425
 20
0.541992
 11
5.62885
 21
0.576614
  0
LINE
  8
0
 10
5.62885
 20
0.576614
 11
5.51917
 21
0.584091
  0
LINE
  8
0
 10
5.51917
 20
0.584091
 11
5.50941
 21
0.583054
  0
LINE
  8
0
 10
5.50941
 20
0.583054
 11
5.48132
 21
0.805374
  0
LINE
  8
0
 10
5.48132
 20
0.805374
 11
5.49103
 21
0.806793
  0
LINE
  8
0
 10
5.49103
 20
0.806793
 11
5.5954
 21
0.841309
  0
LINE
  8
0
 10
5.5954
 20
0.841309
 11
5.76637
 21
0.920959
  0
LINE
  8
0
 10
5.76637
 20
0.920959
 11
5.99367
 21
1.06163
  0
LINE
  8
0
 10
5.99367
 20
1.06163
 11
6.26424
 21
1.2773
  0
LINE
  8
0
 10
6.26424
 20
1.2773
 11
6.56256
 21
1.57956
  0
LINE
  8
0
 10
6.56256
 20
1.57956
 11
6.51178
 21
1.77734
  0
LINE
  8
0
 10
6.51178
 20
1.77734
 11
6.10475
 21
1.89851
  0
LINE
  8
0
 10
6.10475
 20
1.89851
 11
5.76375
 21
1.95715
  0
LINE
  8
0
 10
5.76375
 20
1.95715
 11
5.4968
 21
1.97092
  0
LINE
  8
0
 10
5.4968
 20
1.97092
 11
5.30859
 21
1.95834
  0
LINE
  8
0
 10
5.30859
 20
1.95834
 11
5.2005
 21
1.93831
  0
LINE
  8
0
 10
5.2005
 20
1.93831
 11
5.19131
 21
1.93489
  0
LINE
  8
0
 10
5.19131
 20
1.93489
 11
5.10883
 21
2.14322
  0
LINE
  8
0
 10
5.10883
 20
2.14322
 11
5.11787
 21
2.14702
  0
LINE
  8
0
 10
5.11787
 20
2.14702
 11
5.21037
 21
2.20641
  0
LINE
  8
0
 10
5.21037
 20
2.20641
 11
5.35617
 21
2.32607
  0
LINE
  8
0
 10
5.35617
 20
2.32607
 11
5.54135
 21
2.51884
  0
LINE
  8
0
 10
5.54135
 20
2.51884
 11
5.74979
 21
2.79503
  0
LINE
  8
0
 10
5.74979
 20
2.79503
 11
5.96356
 21
3.16199
  0
LINE
  8
0
 10
5.96356
 20
3.16199
 11
5.86519
 21
3.34093
  0
LINE
  8
0
 10
5.86519
 20
3.34093
 11
5.44081
 21
3.35706
  0
LINE
  8
0
 10
5.44081
 20
3.35706
 11
5.09595
 21
3.32904
  0
LINE
  8
0
 10
5.09595
 20
3.32904
 11
4.83395
 21
3.276
  0
LINE
  8
0
 10
4.83395
 20
3.276
 11
4.6548
 21
3.21701
  0
LINE
  8
0
 10
4.6548
 20
3.21701
 11
4.55508
 21
3.17073
  0
LINE
  8
0
 10
4.55508
 20
3.17073
 11
4.54703
 21
3.16513
  0
LINE
  8
0
 10
4.54703
 20
3.16513
 11
4.41533
 21
3.34641
  0
LINE
  8
0
 10
4.41533
 20
3.34641
 11
4.42314
 21
3.35233
  0
LINE
  8
0
 10
4.42314
 20
3.35233
 11
4.49797
 21
3.43286
  0
LINE
  8
0
 10
4.49797
 20
3.43286
 11
4.60944
 21
3.58502
  0
LINE
  8
0
 10
4.60944
 20
3.58502
 11
4.74084
 21
3.81779
  0
LINE
  8
0
 10
4.74084
 20
3.81779
 11
4.87405
 21
4.13713
  0
LINE
  8
0
 10
4.87405
 20
4.13713
 11
4.98985
 21
4.54573
  0
LINE
  8
0
 10
4.98985
 20
4.54573
 11
4.85007
 21
4.69458
  0
LINE
  8
0
 10
4.85007
 20
4.69458
 11
4.43501
 21
4.60466
  0
LINE
  8
0
 10
4.43501
 20
4.60466
 11
4.10794
 21
4.49178
  0
LINE
  8
0
 10
4.10794
 20
4.49178
 11
3.86737
 21
4.37523
  0
LINE
  8
0
 10
3.86737
 20
4.37523
 11
3.70851
 21
4.27354
  0
LINE
  8
0
 10
3.70851
 20
4.27354
 11
3.62344
 21
4.20392
  0
LINE
  8
0
 10
3.62344
 20
4.20392
 11
3.61703
 21
4.19649
  0
LINE
  8
0
 10
3.61703
 20
4.19649
 11
3.44438
 21
4.33932
  0
LINE
  8
0
 10
3.44438
 20
4.33932
 11
3.45049
 21
4.347
  0
LINE
  8
0
 10
3.45049
 20
4.347
 11
3.50294
 21
4.4436
  0
LINE
  8
0
 10
3.50294
 20
4.4436
 11
3.57306
 21
4.61871
  0
LINE
  8
0
 10
3.57306
 20
4.61871
 11
3.64246
 21
4.87685
  0
LINE
  8
0
 10
3.64246
 20
4.87685
 11
3.69206
 21
5.21928
  0
LINE
  8
0
 10
3.69206
 20
5.21928
 11
3.70261
 21
5.64384
  0
LINE
  8
0
 10
3.70261
 20
5.64384
 11
3.5302
 21
5.75325
  0
LINE
  8
0
 10
3.5302
 20
5.75325
 11
3.15054
 21
5.56294
  0
LINE
  8
0
 10
3.15054
 20
5.56294
 11
2.86182
 21
5.37225
  0
LINE
  8
0
 10
2.86182
 20
5.37225
 11
2.65779
 21
5.19955
  0
LINE
  8
0
 10
2.65779
 20
5.19955
 11
2.52922
 21
5.06155
  0
LINE
  8
0
 10
2.52922
 20
5.06155
 11
2.46413
 21
4.97296
  0
LINE
  8
0
 10
2.46413
 20
4.97296
 11
2.45978
 21
4.96417
  0
LINE
  8
0
 10
2.45978
 20
4.96417
 11
2.25703
 21
5.05957
  0
LINE
  8
0
 10
2.25703
 20
5.05957
 11
2.26103
 21
5.06853
  0
LINE
  8
0
 10
2.26103
 20
5.06853
 11
2.28781
 21
5.17516
  0
LINE
  8
0
 10
2.28781
 20
5.17516
 11
2.31218
 21
5.36218
  0
LINE
  8
0
 10
2.31218
 20
5.36218
 11
2.3152
 21
5.62949
  0
LINE
  8
0
 10
2.3152
 20
5.62949
 11
2.27808
 21
5.9735
  0
LINE
  8
0
 10
2.27808
 20
5.9735
 11
2.18271
 21
6.38733
  0
LINE
  8
0
 10
2.18271
 20
6.38733
 11
1.98851
 21
6.45044
  0
LINE
  8
0
 10
1.98851
 20
6.45044
 11
1.66811
 21
6.17168
  0
LINE
  8
0
 10
1.66811
 20
6.17168
 11
1.43588
 21
5.91519
  0
LINE
  8
0
 10
1.43588
 20
5.91519
 11
1.28122
 21
5.69717
  0
LINE
  8
0
 10
1.28122
 20
5.69717
 11
1.19099
 21
5.53152
  0
LINE
  8
0
 10
1.19099
 20
5.53152
 11
1.14999
 21
5.42953
  0
LINE
  8
0
 10
1.14999
 20
5.42953
 11
1.14796
 21
5.41994
  0
LINE
  8
0
 10
1.14796
 20
5.41994
 11
0.927856
 21
5.46191
  0
LINE
  8
0
 10
0.927856
 20
5.46191
 11
0.929504
 21
5.47159
  0
LINE
  8
0
 10
0.929504
 20
5.47159
 11
0.928925
 21
5.58153
  0
LINE
  8
0
 10
0.928925
 20
5.58153
 11
0.906006
 21
5.76874
  0
LINE
  8
0
 10
0.906006
 20
5.76874
 11
0.842468
 21
6.02838
  0
LINE
  8
0
 10
0.842468
 20
6.02838
 11
0.720963
 21
6.35236
  0
LINE
  8
0
 10
0.720963
 20
6.35236
 11
0.525681
 21
6.72949
  0
LINE
  8
0
 10
0.525681
 20
6.72949
 11
0.321884
 21
6.74231
  0
LINE
  8
0
 10
0.321884
 20
6.74231
 11
0.0808716
 21
6.39262
  0
LINE
  8
0
 10
0.0808716
 20
6.39262
 11
-0.0802612
 21
6.08644
  0
LINE
  8
0
 10
-0.0802612
 20
6.08644
 11
-0.175858
 21
5.83681
  0
LINE
  8
0
 10
-0.175858
 20
5.83681
 11
-0.222046
 21
5.65393
  0
LINE
  8
0
 10
-0.222046
 20
5.65393
 11
-0.236389
 21
5.54494
  0
LINE
  8
0
 10
-0.236389
 20
5.54494
 11
-0.235977
 21
5.53514
  0
LINE
  8
0
 10
-0.235977
 20
5.53514
 11
-0.45961
 21
5.52107
  0
LINE
  8
0
 10
-0.45961
 20
5.52107
 11
-0.460419
 21
5.53085
  0
LINE
  8
0
 10
-0.460419
 20
5.53085
 11
-0.488312
 21
5.63719
  0
LINE
  8
0
 10
-0.488312
 20
5.63719
 11
-0.557068
 21
5.81282
  0
LINE
  8
0
 10
-0.557068
 20
5.81282
 11
-0.683197
 21
6.04851
  0
LINE
  8
0
 10
-0.683197
 20
6.04851
 11
-0.881439
 21
6.33209
  0
LINE
  8
0
 10
-0.881439
 20
6.33209
 11
-1.16438
 21
6.6488
  0
LINE
  8
0
 10
-1.16438
 20
6.6488
 11
-1.36496
 21
6.61053
  0
LINE
  8
0
 10
-1.36496
 20
6.61053
 11
-1.51144
 21
6.21191
  0
LINE
  8
0
 10
-1.51144
 20
6.21191
 11
-1.59137
 21
5.87526
  0
LINE
  8
0
 10
-1.59137
 20
5.87526
 11
-1.62189
 21
5.6097
  0
LINE
  8
0
 10
-1.62189
 20
5.6097
 11
-1.62115
 21
5.42108
  0
LINE
  8
0
 10
-1.62115
 20
5.42108
 11
-1.60794
 21
5.31195
  0
LINE
  8
0
 10
-1.60794
 20
5.31195
 11
-1.6051
 21
5.30255
  0
LINE
  8
0
 10
-1.6051
 20
5.30255
 11
-1.81821
 21
5.23332
  0
LINE
  8
0
 10
-1.81821
 20
5.23332
 11
-1.82143
 21
5.24258
  0
LINE
  8
0
 10
-1.82143
 20
5.24258
 11
-1.87489
 21
5.33864
  0
LINE
  8
0
 10
-1.87489
 20
5.33864
 11
-1.98515
 21
5.49167
  0
LINE
  8
0
 10
-1.98515
 20
5.49167
 11
-2.16594
 21
5.68858
  0
LINE
  8
0
 10
-2.16594
 20
5.68858
 11
-2.42848
 21
5.91394
  0
LINE
  8
0
 10
-2.42848
 20
5.91394
 11
-2.7813
 21
6.15034
  0
LINE
  8
0
 10
-2.7813
 20
6.15034
 11
-2.96605
 21
6.0634
  0
LINE
  8
0
 10
-2.96605
 20
6.0634
 11
-3.00879
 21
5.64087
  0
LINE
  8
0
 10
-3.00879
 20
5.64087
 11
-3.0025
 21
5.29492
  0
LINE
  8
0
 10
-3.0025
 20
5.29492
 11
-2.966
 21
5.03011
  0
LINE
  8
0
 10
-2.966
 20
5.03011
 11
-2.91838
 21
4.84761
  0
LINE
  8
0
 10
-2.91838
 20
4.84761
 11
-2.87845
 21
4.74518
  0
LINE
  8
0
 10
-2.87845
 20
4.74518
 11
-2.87337
 21
4.7368
  0
LINE
  8
0
 10
-2.87337
 20
4.7368
 11
-3.06256
 21
4.61673
  0
LINE
  8
0
 10
-3.06256
 20
4.61673
 11
-3.06798
 21
4.62491
  0
LINE
  8
0
 10
-3.06798
 20
4.62491
 11
-3.14365
 21
4.70465
  0
LINE
  8
0
 10
-3.14365
 20
4.70465
 11
-3.28851
 21
4.82544
  0
LINE
  8
0
 10
-3.28851
 20
4.82544
 11
-3.51257
 21
4.97121
  0
LINE
  8
0
 10
-3.51257
 20
4.97121
 11
-3.82292
 21
5.12421
  0
LINE
  8
0
 10
-3.82292
 20
5.12421
 11
-4.22343
 21
5.26544
  0
LINE
  8
0
 10
-4.22343
 20
5.26544
 11
-4.38077
 21
5.13528
  0
LINE
  8
0
 10
-4.38077
 20
5.13528
 11
-4.31709
 21
4.71539
  0
LINE
  8
0
 10
-4.31709
 20
4.71539
 11
-4.22496
 21
4.38188
  0
LINE
  8
0
 10
-4.22496
 20
4.38188
 11
-4.12376
 21
4.13446
  0
LINE
  8
0
 10
-4.12376
 20
4.13446
 11
-4.03226
 21
3.96953
  0
LINE
  8
0
 10
-4.03226
 20
3.96953
 11
-3.96811
 21
3.88026
  0
LINE
  8
0
 10
-3.96811
 20
3.88026
 11
-3.96109
 21
3.8734
  0
LINE
  8
0
 10
-3.96109
 20
3.8734
 11
-4.11447
 21
3.71005
  0
LINE
  8
0
 10
-4.11447
 20
3.71005
 11
-4.12177
 21
3.71663
  0
LINE
  8
0
 10
-4.12177
 20
3.71663
 11
-4.21489
 21
3.77505
  0
LINE
  8
0
 10
-4.21489
 20
3.77505
 11
-4.38524
 21
3.85602
  0
LINE
  8
0
 10
-4.38524
 20
3.85602
 11
-4.63852
 21
3.94148
  0
LINE
  8
0
 10
-4.63852
 20
3.94148
 11
-4.97716
 21
4.0125
  0
LINE
  8
0
 10
-4.97716
 20
4.0125
 11
-5.40022
 21
4.04968
  0
LINE
  8
0
 10
-5.40022
 20
4.04968
 11
-5.52023
 21
3.88449
  0
LINE
  8
0
 10
-5.52023
 20
3.88449
 11
-5.35414
 21
3.49362
  0
LINE
  8
0
 10
-5.35414
 20
3.49362
 11
-5.18196
 21
3.1935
  0
LINE
  8
0
 10
-5.18196
 20
3.1935
 11
-5.0224
 21
2.97903
  0
LINE
  8
0
 10
-5.0224
 20
2.97903
 11
-4.89276
 21
2.84204
  0
LINE
  8
0
 10
-4.89276
 20
2.84204
 11
-4.80843
 21
2.77153
  0
LINE
  8
0
 10
-4.80843
 20
2.77153
 11
-4.79993
 21
2.76663
  0
LINE
  8
0
 10
-4.79993
 20
2.76663
 11
-4.90788
 21
2.57027
  0
LINE
  8
0
 10
-4.90788
 20
2.57027
 11
-4.91656
 21
2.57481
  0
LINE
  8
0
 10
-4.91656
 20
2.57481
 11
-5.02129
 21
2.60825
  0
LINE
  8
0
 10
-5.02129
 20
2.60825
 11
-5.20642
 21
2.6443
  0
LINE
  8
0
 10
-5.20642
 20
2.6443
 11
-5.47299
 21
2.66411
  0
LINE
  8
0
 10
-5.47299
 20
2.66411
 11
-5.81866
 21
2.64867
  0
LINE
  8
0
 10
-5.81866
 20
2.64867
 11
-6.23767
 21
2.57947
  0
LINE
  8
0
 10
-6.23767
 20
2.57947
 11
-6.31285
 21
2.38962
  0
LINE
  8
0
 10
-6.31285
 20
2.38962
 11
-6.05476
 21
2.05235
  0
LINE
  8
0
 10
-6.05476
 20
2.05235
 11
-5.81335
 21
1.80447
  0
LINE
  8
0
 10
-5.81335
 20
1.80447
 11
-5.60547
 21
1.63641
  0
LINE
  8
0
 10
-5.60547
 20
1.63641
 11
-5.44583
 21
1.53596
  0
LINE
  8
0
 10
-5.44583
 20
1.53596
 11
-5.3466
 21
1.48865
  0
LINE
  8
0
 10
-5.3466
 20
1.48865
 11
-5.33716
 21
1.48602
  0
LINE
  8
0
 10
-5.33716
 20
1.48602
 11
-5.39288
 21
1.26898
  0
LINE
  8
0
 10
-5.39288
 20
1.26898
 11
-5.40244
 21
1.27122
  0
LINE
  8
0
 10
-5.40244
 20
1.27122
 11
-5.51218
 21
1.27756
  0
LINE
  8
0
 10
-5.51218
 20
1.27756
 11
-5.70047
 21
1.26645
  0
LINE
  8
0
 10
-5.70047
 20
1.26645
 11
-5.96359
 21
1.21933
  0
LINE
  8
0
 10
-5.96359
 20
1.21933
 11
-6.29456
 21
1.11841
  0
LINE
  8
0
 10
-6.29456
 20
1.11841
 11
-6.6832
 21
0.947189
  0
LINE
  8
0
 10
-6.6832
 20
0.947189
 11
-6.70879
 21
0.744598
  0
LINE
  8
0
 10
-6.70879
 20
0.744598
 11
-6.37494
 21
0.482101
  0
LINE
  8
0
 10
-6.37494
 20
0.482101
 11
-6.07947
 21
0.302048
  0
LINE
  8
0
 10
-6.07947
 20
0.302048
 11
-5.83633
 21
0.190979
  0
LINE
  8
0
 10
-5.83633
 20
0.190979
 11
-5.65672
 21
0.133392
  0
LINE
  8
0
 10
-5.65672
 20
0.133392
 11
-5.54884
 21
0.112228
  0
LINE
  8
0
 10
-5.54884
 20
0.112228
 11
-5.53905
 21
0.11203
  0
LINE
  8
0
 10
-5.53905
 20
0.11203
 11
-5.53905
 21
-0.11203
  0
LINE
  8
0
 10
-5.53905
 20
-0.11203
 11
-5.54884
 21
-0.112228
  0
LINE
  8
0
 10
-5.54884
 20
-0.112228
 11
-5.65672
 21
-0.133392
  0
LINE
  8
0
 10
-5.65672
 20
-0.133392
 11
-5.83633
 21
-0.190979
  0
LINE
  8
0
 10
-5.83633
 20
-0.190979
 11
-6.07947
 21
-0.302048
  0
LINE
  8
0
 10
-6.07947
 20
-0.302048
 11
-6.37494
 21
-0.482101
  0
LINE
  8
0
 10
-6.37494
 20
-0.482101
 11
-6.70879
 21
-0.744598
  0
LINE
  8
0
 10
-6.70879
 20
-0.744598
 11
-6.6832
 21
-0.947189
  0
LINE
  8
0
 10
-6.6832
 20
-0.947189
 11
-6.29456
 21
-1.11841
  0
LINE
  8
0
 10
-6.29456
 20
-1.11841
 11
-5.96359
 21
-1.21933
  0
LINE
  8
0
 10
-5.96359
 20
-1.21933
 11
-5.70047
 21
-1.26645
  0
LINE
  8
0
 10
-5.70047
 20
-1.26645
 11
-5.51218
 21
-1.27756
  0
LINE
  8
0
 10
-5.51218
 20
-1.27756
 11
-5.40244
 21
-1.27122
  0
LINE
  8
0
 10
-5.40244
 20
-1.27122
 11
-5.39288
 21
-1.26898
  0
LINE
  8
0
 10
-5.39288
 20
-1.26898
 11
-5.33716
 21
-1.48602
  0
LINE
  8
0
 10
-5.33716
 20
-1.48602
 11
-5.3466
 21
-1.48865
  0
LINE
  8
0
 10
-5.3466
 20
-1.48865
 11
-5.44583
 21
-1.53596
  0
LINE
  8
0
 10
-5.44583
 20
-1.53596
 11
-5.60547
 21
-1.63641
  0
LINE
  8
0
 10
-5.60547
 20
-1.63641
 11
-5.81335
 21
-1.80447
  0
LINE
  8
0
 10
-5.81335
 20
-1.80447
 11
-6.05476
 21
-2.05235
  0
LINE
  8
0
 10
-6.05476
 20
-2.05235
 11
-6.31285
 21
-2.38962
  0
LINE
  8
0
 10
-6.31285
 20
-2.38962
 11
-6.23767
 21
-2.57947
  0
LINE
  8
0
 10
-6.23767
 20
-2.57947
 11
-5.81866
 21
-2.64867
  0
LINE
  8
0
 10
-5.81866
 20
-2.64867
 11
-5.47299
 21
-2.66411
  0
LINE
  8
0
 10
-5.47299
 20
-2.66411
 11
-5.20642
 21
-2.6443
  0
LINE
  8
0
 10
-5.20642
 20
-2.6443
 11
-5.02129
 21
-2.60825
  0
LINE
  8
0
 10
-5.02129
 20
-2.60825
 11
-4.91656
 21
-2.57481
  0
LINE
  8
0
 10
-4.91656
 20
-2.57481
 11
-4.90788
 21
-2.57027
  0
LINE
  8
0
 10
-4.90788
 20
-2.57027
 11
-4.79993
 21
-2.76663
  0
LINE
  8
0
 10
-4.79993
 20
-2.76663
 11
-4.80843
 21
-2.77153
  0
LINE
  8
0
 10
-4.80843
 20
-2.77153
 11
-4.89276
 21
-2.84204
  0
LINE
  8
0
 10
-4.89276
 20
-2.84204
 11
-5.0224
 21
-2.97903
  0
LINE
  8
0
 10
-5.0224
 20
-2.97903
 11
-5.18196
 21
-3.1935
  0
LINE
  8
0
 10
-5.18196
 20
-3.1935
 11
-5.35414
 21
-3.49362
  0
LINE
  8
0
 10
-5.35414
 20
-3.49362
 11
-5.52023
 21
-3.88449
  0
LINE
  8
0
 10
-5.52023
 20
-3.88449
 11
-5.40022
 21
-4.04968
  0
LINE
  8
0
 10
-5.40022
 20
-4.04968
 11
-4.97716
 21
-4.0125
  0
LINE
  8
0
 10
-4.97716
 20
-4.0125
 11
-4.63852
 21
-3.94148
  0
LINE
  8
0
 10
-4.63852
 20
-3.94148
 11
-4.38524
 21
-3.85602
  0
LINE
  8
0
 10
-4.38524
 20
-3.85602
 11
-4.21489
 21
-3.77505
  0
LINE
  8
0
 10
-4.21489
 20
-3.77505
 11
-4.12177
 21
-3.71663
  0
LINE
  8
0
 10
-4.12177
 20
-3.71663
 11
-4.11447
 21
-3.71005
  0
LINE
  8
0
 10
-4.11447
 20
-3.71005
 11
-3.96109
 21
-3.8734
  0
LINE
  8
0
 10
-3.96109
 20
-3.8734
 11
-3.96811
 21
-3.88026
  0
LINE
  8
0
 10
-3.96811
 20
-3.88026
 11
-4.03226
 21
-3.96953
  0
LINE
  8
0
 10
-4.03226
 20
-3.96953
 11
-4.12376
 21
-4.13446
  0
LINE
  8
0
 10
-4.12376
 20
-4.13446
 11
-4.22496
 21
-4.38188
  0
LINE
  8
0
 10
-4.22496
 20
-4.38188
 11
-4.31709
 21
-4.71539
  0
LINE
  8
0
 10
-4.31709
 20
-4.71539
 11
-4.38077
 21
-5.13528
  0
LINE
  8
0
 10
-4.38077
 20
-5.13528
 11
-4.22343
 21
-5.26544
  0
LINE
  8
0
 10
-4.22343
 20
-5.26544
 11
-3.82292
 21
-5.12421
  0
LINE
  8
0
 10
-3.82292
 20
-5.12421
 11
-3.51257
 21
-4.97121
  0
LINE
  8
0
 10
-3.51257
 20
-4.97121
 11
-3.28851
 21
-4.82544
  0
LINE
  8
0
 10
-3.28851
 20
-4.82544
 11
-3.14365
 21
-4.70465
  0
LINE
  8
0
 10
-3.14365
 20
-4.70465
 11
-3.06798
 21
-4.62491
  0
LINE
  8
0
 10
-3.06798
 20
-4.62491
 11
-3.06256
 21
-4.61673
  0
LINE
  8
0
 10
-3.06256
 20
-4.61673
 11
-2.87337
 21
-4.7368
  0
LINE
  8
0
 10
-2.87337
 20
-4.7368
 11
-2.87845
 21
-4.74518
  0
LINE
  8
0
 10
-2.87845
 20
-4.74518
 11
-2.91838
 21
-4.84761
  0
LINE
  8
0
 10
-2.91838
 20
-4.84761
 11
-2.966
 21
-5.03011
  0
LINE
  8
0
 10
-2.966
 20
-5.03011
 11
-3.0025
 21
-5.29492
  0
LINE
  8
0
 10
-3.0025
 20
-5.29492
 11
-3.00879
 21
-5.64087
  0
LINE
  8
0
 10
-3.00879
 20
-5.64087
 11
-2.96605
 21
-6.0634
  0
LINE
  8
0
 10
-2.96605
 20
-6.0634
 11
-2.7813
 21
-6.15034
  0
LINE
  8
0
 10
-2.7813
 20
-6.15034
 11
-2.42848
 21
-5.91394
  0
LINE
  8
0
 10
-2.42848
 20
-5.91394
 11
-2.16594
 21
-5.68858
  0
LINE
  8
0
 10
-2.16594
 20
-5.68858
 11
-1.98515
 21
-5.49167
  0
LINE
  8
0
 10
-1.98515
 20
-5.49167
 11
-1.87489
 21
-5.33864
  0
LINE
  8
0
 10
-1.87489
 20
-5.33864
 11
-1.82143
 21
-5.24258
  0
LINE
  8
0
 10
-1.82143
 20
-5.24258
 11
-1.81821
 21
-5.23332
  0
LINE
  8
0
 10
-1.81821
 20
-5.23332
 11
-1.6051
 21
-5.30255
  0
LINE
  8
0
 10
-1.6051
 20
-5.30255
 11
-1.60794
 21
-5.31195
  0
LINE
  8
0
 10
-1.60794
 20
-5.31195
 11
-1.62115
 21
-5.42108
  0
LINE
  8
0
 10
-1.62115
 20
-5.42108
 11
-1.62189
 21
-5.6097
  0
LINE
  8
0
 10
-1.62189
 20
-5.6097
 11
-1.59137
 21
-5.87526
  0
LINE
  8
0
 10
-1.59137
 20
-5.87526
 11
-1.51144
 21
-6.21191
  0
LINE
  8
0
 10
-1.51144
 20
-6.21191
 11
-1.36496
 21
-6.61053
  0
LINE
  8
0
 10
-1.36496
 20
-6.61053
 11
-1.16438
 21
-6.6488
  0
LINE
  8
0
 10
-1.16438
 20
-6.6488
 11
-0.881439
 21
-6.33209
  0
LINE
  8
0
 10
-0.881439
 20
-6.33209
 11
-0.683197
 21
-6.04851
  0
LINE
  8
0
 10
-0.683197
 20
-6.04851
 11
-0.557068
 21
-5.81282
  0
LINE
  8
0
 10
-0.557068
 20
-5.81282
 11
-0.488312
 21
-5.63719
  0
LINE
  8
0
 10
-0.488312
 20
-5.63719
 11
-0.460419
 21
-5.53085
  0
LINE
  8
0
 10
-0.460419
 20
-5.53085
 11
-0.45961
 21
-5.52107
  0
LINE
  8
0
 10
-0.45961
 20
-5.52107
 11
-0.235977
 21
-5.53514
  0
LINE
  8
0
 10
-0.235977
 20
-5.53514
 11
-0.236389
 21
-5.54494
  0
LINE
  8
0
 10
-0.236389
 20
-5.54494
 11
-0.222046
 21
-5.65393
  0
LINE
  8
0
 10
-0.222046
 20
-5.65393
 11
-0.175858
 21
-5.83681
  0
LINE
  8
0
 10
-0.175858
 20
-5.83681
 11
-0.0802612
 21
-6.08644
  0
LINE
  8
0
 10
-0.0802612
 20
-6.08644
 11
0.0808716
 21
-6.39262
  0
LINE
  8
0
 10
0.0808716
 20
-6.39262
 11
0.321884
 21
-6.74231
  0
LINE
  8
0
 10
0.321884
 20
-6.74231
 11
0.525681
 21
-6.72949
  0
LINE
  8
0
 10
-1.9996
 20
-1.5
 11
-2.06769
 21
-1.4052
  0
LINE
  8
0
 10
-2.06769
 20
-1.4052
 11
-2.11081
 21
-1.33955
  0
LINE
  8
0
 10
-2.11081
 20
-1.33955
 11
-2.15184
 21
-1.2726
  0
LINE
  8
0
 10
-2.15184
 20
-1.2726
 11
-2.19077
 21
-1.20438
  0
LINE
  8
0
 10
-2.19077
 20
-1.20438
 11
-2.22751
 21
-1.13496
  0
LINE
  8
0
 10
-2.22751
 20
-1.13496
 11
-2.26205
 21
-1.06444
  0
LINE
  8
0
 10
-2.26205
 20
-1.06444
 11
-2.29437
 21
-0.992859
  0
LINE
  8
0
 10
-2.29437
 20
-0.992859
 11
-2.32443
 21
-0.920303
  0
LINE
  8
0
 10
-2.32443
 20
-0.920303
 11
-2.35219
 21
-0.846832
  0
LINE
  8
0
 10
-2.35219
 20
-0.846832
 11
-2.37764
 21
-0.772537
  0
LINE
  8
0
 10
-2.37764
 20
-0.772537
 11
-2.40073
 21
-0.697464
  0
LINE
  8
0
 10
-2.40073
 20
-0.697464
 11
-2.42145
 21
-0.621719
  0
LINE
  8
0
 10
-2.42145
 20
-0.621719
 11
-2.43979
 21
-0.545349
  0
LINE
  8
0
 10
-2.43979
 20
-0.545349
 11
-2.4557
 21
-0.468445
  0
LINE
  8
0
 10
-2.4557
 20
-0.468445
 11
-2.46921
 21
-0.391083
  0
LINE
  8
0
 10
-2.46921
 20
-0.391083
 11
-2.48029
 21
-0.313324
  0
LINE
  8
0
 10
-2.48029
 20
-0.313324
 11
-2.48889
 21
-0.23526
  0
LINE
  8
0
 10
-2.48889
 20
-0.23526
 11
-2.49506
 21
-0.156967
  0
LINE
  8
0
 10
-2.49506
 20
-0.156967
 11
-2.49876
 21
-0.0785217
  0
LINE
  8
0
 10
-2.49876
 20
-0.0785217
 11
-2.5
 21
0
  0
LINE
  8
0
 10
-2.5
 20
0
 11
-2.49876
 21
0.0785217
  0
LINE
  8
0
 10
-2.49876
 20
0.0785217
 11
-2.49506
 21
0.156967
  0
LINE
  8
0
 10
-2.49506
 20
0.156967
 11
-2.48889
 21
0.23526
  0
LINE
  8
0
 10
-2.48889
 20
0.23526
 11
-2.48029
 21
0.313324
  0
LINE
  8
0
 10
-2.48029
 20
0.313324
 11
-2.46921
 21
0.391083
  0
LINE
  8
0
 10
-2.46921
 20
0.391083
 11
-2.4557
 21
0.468445
  0
LINE
  8
0
 10
-2.4557
 20
0.468445
 11
-2.43979
 21
0.545349
  0
LINE
  8
0
 10
-2.43979
 20
0.545349
 11
-2.42145
 21
0.621719
  0
LINE
  8
0
 10
-2.42145
 20
0.621719
 11
-2.40073
 21
0.697464
  0
LINE
  8
0
 10
-2.40073
 20
0.697464
 11
-2.37764
 21
0.772537
  0
LINE
  8
0
 10
-2.37764
 20
0.772537
 11
-2.35219
 21
0.846832
  0
LINE
  8
0
 10
-2.35219
 20
0.846832
 11
-2.32443
 21
0.920303
  0
LINE
  8
0
 10
-2.32443
 20
0.920303
 11
-2.29437
 21
0.992859
  0
LINE
  8
0
 10
-2.29437
 20
0.992859
 11
-2.26205
 21
1.06444
  0
LINE
  8
0
 10
-2.26205
 20
1.06444
 11
-2.22751
 21
1.13496
  0
LINE
  8
0
 10
-2.22751
 20
1.13496
 11
-2.19077
 21
1.20438
  0
LINE
  8
0
 10
-2.19077
 20
1.20438
 11
-2.15184
 21
1.2726
  0
LINE
  8
0
 10
-2.15184
 20
1.2726
 11
-2.11081
 21
1.33955
  0
LINE
  8
0
 10
-2.11081
 20
1.33955
 11
-2.06769
 21
1.4052
  0
LINE
  8
0
 10
-2.06769
 20
1.4052
 11
-2.02254
 21
1.46945
  0
LINE
  8
0
 10
-2.02254
 20
1.46945
 11
-1.97537
 21
1.53226
  0
LINE
  8
0
 10
-1.97537
 20
1.53226
 11
-1.92627
 21
1.59355
  0
LINE
  8
0
 10
-1.92627
 20
1.59355
 11
-1.87527
 21
1.65327
  0
LINE
  8
0
 10
-1.87527
 20
1.65327
 11
-1.82242
 21
1.71136
  0
LINE
  8
0
 10
-1.82242
 20
1.71136
 11
-1.76776
 21
1.76776
  0
LINE
  8
0
 10
-1.76776
 20
1.76776
 11
-1.71136
 21
1.82242
  0
LINE
  8
0
 10
-1.71136
 20
1.82242
 11
-1.65327
 21
1.87527
  0
LINE
  8
0
 10
-1.65327
 20
1.87527
 11
-1.59355
 21
1.92627
  0
LINE
  8
0
 10
-1.59355
 20
1.92627
 11
-1.53226
 21
1.97537
  0
LINE
  8
0
 10
-1.53226
 20
1.97537
 11
-1.46945
 21
2.02254
  0
LINE
  8
0
 10
-1.46945
 20
2.02254
 11
-1.4052
 21
2.06769
  0
LINE
  8
0
 10
-1.4052
 20
2.06769
 11
-1.33955
 21
2.11081
  0
LINE
  8
0
 10
-1.33955
 20
2.11081
 11
-1.2726
 21
2.15184
  0
LINE
  8
0
 10
-1.2726
 20
2.15184
 11
-1.20438
 21
2.19077
  0
LINE
  8
0
 10
-1.20438
 20
2.19077
 11
-1.13496
 21
2.22751
  0
LINE
  8
0
 10
-1.13496
 20
2.22751
 11
-1.06444
 21
2.26205
  0
LINE
  8
0
 10
-1.06444
 20
2.26205
 11
-0.992859
 21
2.29437
  0
LINE
  8
0
 10
-0.992859
 20
2.29437
 11
-0.920303
 21
2.32443
  0
LINE
  8
0
 10
-0.920303
 20
2.32443
 11
-0.846832
 21
2.35219
  0
LINE
  8
0
 10
-0.846832
 20
2.35219
 11
-0.772537
 21
2.37764
  0
LINE
  8
0
 10
-0.772537
 20
2.37764
 11
-0.697464
 21
2.40073
  0
LINE
  8
0
 10
-0.697464
 20
2.40073
 11
-0.621719
 21
2.42145
  0
LINE
  8
0
 10
-0.621719
 20
2.42145
 11
-0.545349
 21
2.43979
  0
LINE
  8
0
 10
-0.545349
 20
2.43979
 11
-0.468445
 21
2.4557
  0
LINE
  8
0
 10
-0.468445
 20
2.4557
 11
-0.391083
 21
2.46921
  0
LINE
  8
0
 10
-0.391083
 20
2.46921
 11
-0.313324
 21
2.48029
  0
LINE
  8
0
 10
-0.313324
 20
2.48029
 11
-0.23526
 21
2.48889
  0
LINE
  8
0
 10
-0.23526
 20
2.48889
 11
-0.156967
 21
2.49506
  0
LINE
  8
0
 10
-0.156967
 20
2.49506
 11
-0.0785217
 21
2.49876
  0
LINE
  8
0
 10
-0.0785217
 20
2.49876
 11
0
 21
2.5
  0
LINE
  8
0
 10
0
 20
2.5
 11
0.0785217
 21
2.49876
  0
LINE
  8
0
 10
0.0785217
 20
2.49876
 11
0.156967
 21
2.49506
  0
LINE
  8
0
 10
0.156967
 20
2.49506
 11
0.23526
 21
2.48889
  0
LINE
  8
0
 10
0.23526
 20
2.48889
 11
0.313324
 21
2.48029
  0
LINE
  8
0
 10
0.313324
 20
2.48029
 11
0.391083
 21
2.46921
  0
LINE
  8
0
 10
0.391083
 20
2.46921
 11
0.468445
 21
2.4557
  0
LINE
  8
0
 10
0.468445
 20
2.4557
 11
0.545349
 21
2.43979
  0
LINE
  8
0
 10
0.545349
 20
2.43979
 11
0.621719
 21
2.42145
  0
LINE
  8
0
 10
0.621719
 20
2.42145
 11
0.697464
 21
2.40073
  0
LINE
  8
0
 10
0.697464
 20
2.40073
 11
0.772537
 21
2.37764
  0
LINE
  8
0
 10
0.772537
 20
2.37764
 11
0.846832
 21
2.35219
  0
LINE
  8
0
 10
0.846832
 20
2.35219
 11
0.920303
 21
2.32443
  0
LINE
  8
0
 10
0.920303
 20
2.32443
 11
0.992859
 21
2.29437
  0
LINE
  8
0
 10
0.992859
 20
2.29437
 11
1.06444
 21
2.26205
  0
LINE
  8
0
 10
1.06444
 20
2.26205
 11
1.13496
 21
2.22751
  0
LINE
  8
0
 10
1.13496
 20
2.22751
 11
1.20438
 21
2.19077
  0
LINE
  8
0
 10
1.20438
 20
2.19077
 11
1.2726
 21
2.15184
  0
LINE
  8
0
 10
1.2726
 20
2.15184
 11
1.33955
 21
2.11081
  0
LINE
  8
0
 10
1.33955
 20
2.11081
 11
1.4052
 21
2.06769
  0
LINE
  8
0
 10
1.4052
 20
2.06769
 11
1.46945
 21
2.02254
  0
LINE
  8
0
 10
1.46945
 20
2.02254
 11
1.53226
 21
1.97537
  0
LINE
  8
0
 10
1.53226
 20
1.97537
 11
1.59355
 21
1.92627
  0
LINE
  8
0
 10
1.59355
 20
1.92627
 11
1.65327
 21
1.87527
  0
LINE
  8
0
 10
1.65327
 20
1.87527
 11
1.71136
 21
1.82242
  0
LINE
  8
0
 10
1.71136
 20
1.82242
 11
1.76776
 21
1.76776
  0
LINE
  8
0
 10
1.76776
 20
1.76776
 11
1.82242
 21
1.71136
  0
LINE
  8
0
 10
1.82242
 20
1.71136
 11
1.87527
 21
1.65327
  0
LINE
  8
0
 10
1.87527
 20
1.65327
 11
1.92627
 21
1.59355
  0
LINE
  8
0
 10
1.92627
 20
1.59355
 11
1.97537
 21
1.53226
  0
LINE
  8
0
 10
1.97537
 20
1.53226
 11
2.02254
 21
1.46945
  0
LINE
  8
0
 10
2.02254
 20
1.46945
 11
2.06769
 21
1.4052
  0
LINE
  8
0
 10
2.06769
 20
1.4052
 11
2.11081
 21
1.33955
  0
LINE
  8
0
 10
2.11081
 20
1.33955
 11
2.15184
 21
1.2726
  0
LINE
  8
0
 10
2.15184
 20
1.2726
 11
2.19077
 21
1.20438
  0
LINE
  8
0
 10
2.19077
 20
1.20438
 11
2.22751
 21
1.13496
  0
LINE
  8
0
 10
2.22751
 20
1.13496
 11
2.26205
 21
1.06444
  0
LINE
  8
0
 10
2.26205
 20
1.06444
 11
2.29437
 21
0.992859
  0
LINE
  8
0
 10
2.29437
 20
0.992859
 11
2.32443
 21
0.920303
  0
LINE
  8
0
 10
2.32443
 20
0.920303
 11
2.35219
 21
0.846832
  0
LINE
  8
0
 10
2.35219
 20
0.846832
 11
2.37764
 21
0.772537
  0
LINE
  8
0
 10
2.37764
 20
0.772537
 11
2.40073
 21
0.697464
  0
LINE
  8
0
 10
2.40073
 20
0.697464
 11
2.42145
 21
0.621719
  0
LINE
  8
0
 10
2.42145
 20
0.621719
 11
2.43979
 21
0.545349
  0
LINE
  8
0
 10
2.43979
 20
0.545349
 11
2.4557
 21
0.468445
  0
LINE
  8
0
 10
2.4557
 20
0.468445
 11
2.46921
 21
0.391083
  0
LINE
  8
0
 10
2.46921
 20
0.391083
 11
2.48029
 21
0.313324
  0
LINE
  8
0
 10
2.48029
 20
0.313324
 11
2.48889
 21
0.23526
  0
LINE
  8
0
 10
2.48889
 20
0.23526
 11
2.49506
 21
0.156967
  0
LINE
  8
0
 10
2.49506
 20
0.156967
 11
2.49876
 21
0.0785217
  0
LINE
  8
0
 10
2.49876
 20
0.0785217
 11
2.5
 21
0
  0
LINE
  8
0
 10
2.5
 20
0
 11
2.49876
 21
-0.0785217
  0
LINE
  8
0
 10
2.49876
 20
-0.0785217
 11
2.49506
 21
-0.156967
  0
LINE
  8
0
 10
2.49506
 20
-0.156967
 11
2.48889
 21
-0.23526
  0
LINE
  8
0
 10
2.48889
 20
-0.23526
 11
2.48029
 21
-0.313324
  0
LINE
  8
0
 10
2.48029
 20
-0.313324
 11
2.46921
 21
-0.391083
  0
LINE
  8
0
 10
2.46921
 20
-0.391083
 11
2.4557
 21
-0.468445
  0
LINE
  8
0
 10
2.4557
 20
-0.468445
 11
2.43979
 21
-0.545349
  0
LINE
  8
0
 10
2.43979
 20
-0.545349
 11
2.42145
 21
-0.621719
  0
LINE
  8
0
 10
2.42145
 20
-0.621719
 11
2.40073
 21
-0.697464
  0
LINE
  8
0
 10
2.40073
 20
-0.697464
 11
2.37764
 21
-0.772537
  0
LINE
  8
0
 10
2.37764
 20
-0.772537
 11
2.35219
 21
-0.846832
  0
LINE
  8
0
 10
2.35219
 20
-0.846832
 11
2.32443
 21
-0.920303
  0
LINE
  8
0
 10
2.32443
 20
-0.920303
 11
2.29437
 21
-0.992859
  0
LINE
  8
0
 10
2.29437
 20
-0.992859
 11
2.26205
 21
-1.06444
  0
LINE
  8
0
 10
2.26205
 20
-1.06444
 11
2.22751
 21
-1.13496
  0
LINE
  8
0
 10
2.22751
 20
-1.13496
 11
2.19077
 21
-1.20438
  0
LINE
  8
0
 10
2.19077
 20
-1.20438
 11
2.15184
 21
-1.2726
  0
LINE
  8
0
 10
2.15184
 20
-1.2726
 11
2.11081
 21
-1.33955
  0
LINE
  8
0
 10
2.11081
 20
-1.33955
 11
2.06769
 21
-1.4052
  0
LINE
  8
0
 10
2.06769
 20
-1.4052
 11
1.9996
 21
-1.5
  0
LINE
  8
0
 10
1.9996
 20
-1.5
 11
-1.9996
 21
-1.5
  0
ENDSEC
  0
SECTION
  2
OBJECTS
  0
DICTIONARY
  0
ENDSEC
  0
EOF
