  0
SECTION
  2
BLOCKS
  0
ENDSEC
  0
SECTION
  2
ENTITIES
  0
LINE
  8
0
 10
0.266403
 20
-20.2367
 11
0.399124
 21
-19.9833
  0
LINE
  8
0
 10
0.399124
 20
-19.9833
 11
0.517441
 21
-19.7401
  0
LINE
  8
0
 10
0.517441
 20
-19.7401
 11
0.622086
 21
-19.5078
  0
LINE
  8
0
 10
0.622086
 20
-19.5078
 11
0.713791
 21
-19.2868
  0
LINE
  8
0
 10
0.713791
 20
-19.2868
 11
0.713654
 21
-19.2831
  0
LINE
  8
0
 10
0.713654
 20
-19.2831
 11
0.801453
 21
-19.2797
  0
LINE
  8
0
 10
0.801453
 20
-19.2797
 11
0.801605
 21
-19.2833
  0
LINE
  8
0
 10
0.801605
 20
-19.2833
 11
0.91037
 21
-19.4964
  0
LINE
  8
0
 10
0.91037
 20
-19.4964
 11
1.03293
 21
-19.7199
  0
LINE
  8
0
 10
1.03293
 20
-19.7199
 11
1.16995
 21
-19.953
  0
LINE
  8
0
 10
1.16995
 20
-19.953
 11
1.32214
 21
-20.1952
  0
LINE
  8
0
 10
1.32214
 20
-20.1952
 11
1.49017
 21
-20.4458
  0
LINE
  8
0
 10
1.49017
 20
-20.4458
 11
1.72659
 21
-20.4271
  0
LINE
  8
0
 10
1.72659
 20
-20.4271
 11
1.85335
 21
-20.1534
  0
LINE
  8
0
 10
1.85335
 20
-20.1534
 11
1.96577
 21
-19.8904
  0
LINE
  8
0
 10
1.96577
 20
-19.8904
 11
2.06465
 21
-19.6387
  0
LINE
  8
0
 10
2.06465
 20
-19.6387
 11
2.15074
 21
-19.3988
  0
LINE
  8
0
 10
2.15074
 20
-19.3988
 11
2.22482
 21
-19.1713
  0
LINE
  8
0
 10
2.22482
 20
-19.1713
 11
2.2244
 21
-19.1677
  0
LINE
  8
0
 10
2.2244
 20
-19.1677
 11
2.31165
 21
-19.1574
  0
LINE
  8
0
 10
2.31165
 20
-19.1574
 11
2.31209
 21
-19.161
  0
LINE
  8
0
 10
2.31209
 20
-19.161
 11
2.43724
 21
-19.3649
  0
LINE
  8
0
 10
2.43724
 20
-19.3649
 11
2.57695
 21
-19.578
  0
LINE
  8
0
 10
2.57695
 20
-19.578
 11
2.73186
 21
-19.7997
  0
LINE
  8
0
 10
2.73186
 20
-19.7997
 11
2.90257
 21
-20.0293
  0
LINE
  8
0
 10
2.90257
 20
-20.0293
 11
3.08972
 21
-20.2658
  0
LINE
  8
0
 10
3.08972
 20
-20.2658
 11
3.32396
 21
-20.2287
  0
LINE
  8
0
 10
3.32396
 20
-20.2287
 11
3.42885
 21
-19.9459
  0
LINE
  8
0
 10
3.42885
 20
-19.9459
 11
3.52029
 21
-19.6749
  0
LINE
  8
0
 10
3.52029
 20
-19.6749
 11
3.59912
 21
-19.4162
  0
LINE
  8
0
 10
3.59912
 20
-19.4162
 11
3.66612
 21
-19.1703
  0
LINE
  8
0
 10
3.66612
 20
-19.1703
 11
3.72212
 21
-18.9377
  0
LINE
  8
0
 10
3.72212
 20
-18.9377
 11
3.72142
 21
-18.9341
  0
LINE
  8
0
 10
3.72142
 20
-18.9341
 11
3.8076
 21
-18.9169
  0
LINE
  8
0
 10
3.8076
 20
-18.9169
 11
3.80832
 21
-18.9205
  0
LINE
  8
0
 10
3.80832
 20
-18.9205
 11
3.94908
 21
-19.114
  0
LINE
  8
0
 10
3.94908
 20
-19.114
 11
4.10507
 21
-19.3155
  0
LINE
  8
0
 10
4.10507
 20
-19.3155
 11
4.2769
 21
-19.5244
  0
LINE
  8
0
 10
4.2769
 20
-19.5244
 11
4.4651
 21
-19.7398
  0
LINE
  8
0
 10
4.4651
 20
-19.7398
 11
4.67024
 21
-19.9609
  0
LINE
  8
0
 10
4.67024
 20
-19.9609
 11
4.90083
 21
-19.9055
  0
LINE
  8
0
 10
4.90083
 20
-19.9055
 11
4.98322
 21
-19.6154
  0
LINE
  8
0
 10
4.98322
 20
-19.6154
 11
5.05312
 21
-19.338
  0
LINE
  8
0
 10
5.05312
 20
-19.338
 11
5.11139
 21
-19.0739
  0
LINE
  8
0
 10
5.11139
 20
-19.0739
 11
5.15891
 21
-18.8235
  0
LINE
  8
0
 10
5.15891
 20
-18.8235
 11
5.19649
 21
-18.5872
  0
LINE
  8
0
 10
5.19649
 20
-18.5872
 11
5.1955
 21
-18.5837
  0
LINE
  8
0
 10
5.1955
 20
-18.5837
 11
5.28006
 21
-18.5599
  0
LINE
  8
0
 10
5.28006
 20
-18.5599
 11
5.28107
 21
-18.5634
  0
LINE
  8
0
 10
5.28107
 20
-18.5634
 11
5.43657
 21
-18.7452
  0
LINE
  8
0
 10
5.43657
 20
-18.7452
 11
5.60789
 21
-18.9339
  0
LINE
  8
0
 10
5.60789
 20
-18.9339
 11
5.79558
 21
-19.1286
  0
LINE
  8
0
 10
5.79558
 20
-19.1286
 11
6.00011
 21
-19.3286
  0
LINE
  8
0
 10
6.00011
 20
-19.3286
 11
6.22195
 21
-19.533
  0
LINE
  8
0
 10
6.22195
 20
-19.533
 11
6.44751
 21
-19.4597
  0
LINE
  8
0
 10
6.44751
 20
-19.4597
 11
6.50687
 21
-19.1639
  0
LINE
  8
0
 10
6.50687
 20
-19.1639
 11
6.55479
 21
-18.8819
  0
LINE
  8
0
 10
6.55479
 20
-18.8819
 11
6.59216
 21
-18.6141
  0
LINE
  8
0
 10
6.59216
 20
-18.6141
 11
6.61987
 21
-18.3607
  0
LINE
  8
0
 10
6.61987
 20
-18.3607
 11
6.63881
 21
-18.1222
  0
LINE
  8
0
 10
6.63881
 20
-18.1222
 11
6.63756
 21
-18.1188
  0
LINE
  8
0
 10
6.63756
 20
-18.1188
 11
6.71997
 21
-18.0884
  0
LINE
  8
0
 10
6.71997
 20
-18.0884
 11
6.72125
 21
-18.0918
  0
LINE
  8
0
 10
6.72125
 20
-18.0918
 11
6.89055
 21
-18.2609
  0
LINE
  8
0
 10
6.89055
 20
-18.2609
 11
7.07616
 21
-18.4355
  0
LINE
  8
0
 10
7.07616
 20
-18.4355
 11
7.27853
 21
-18.6149
  0
LINE
  8
0
 10
7.27853
 20
-18.6149
 11
7.49811
 21
-18.7982
  0
LINE
  8
0
 10
7.49811
 20
-18.7982
 11
7.73532
 21
-18.9846
  0
LINE
  8
0
 10
7.73532
 20
-18.9846
 11
7.95442
 21
-18.8938
  0
LINE
  8
0
 10
7.95442
 20
-18.8938
 11
7.99039
 21
-18.5943
  0
LINE
  8
0
 10
7.99039
 20
-18.5943
 11
8.01604
 21
-18.3094
  0
LINE
  8
0
 10
8.01604
 20
-18.3094
 11
8.03229
 21
-18.0395
  0
LINE
  8
0
 10
8.03229
 20
-18.0395
 11
8.04004
 21
-17.7847
  0
LINE
  8
0
 10
8.04004
 20
-17.7847
 11
8.04019
 21
-17.5455
  0
LINE
  8
0
 10
8.04019
 20
-17.5455
 11
8.03867
 21
-17.5422
  0
LINE
  8
0
 10
8.03867
 20
-17.5422
 11
8.11847
 21
-17.5054
  0
LINE
  8
0
 10
8.11847
 20
-17.5054
 11
8.12001
 21
-17.5087
  0
LINE
  8
0
 10
8.12001
 20
-17.5087
 11
8.30203
 21
-17.664
  0
LINE
  8
0
 10
8.30203
 20
-17.664
 11
8.50078
 21
-17.8235
  0
LINE
  8
0
 10
8.50078
 20
-17.8235
 11
8.7166
 21
-17.9865
  0
LINE
  8
0
 10
8.7166
 20
-17.9865
 11
8.94989
 21
-18.152
  0
LINE
  8
0
 10
8.94989
 20
-18.152
 11
9.20099
 21
-18.3192
  0
LINE
  8
0
 10
9.20099
 20
-18.3192
 11
9.41229
 21
-18.2115
  0
LINE
  8
0
 10
9.41229
 20
-18.2115
 11
9.42465
 21
-17.9101
  0
LINE
  8
0
 10
9.42465
 20
-17.9101
 11
9.42787
 21
-17.6241
  0
LINE
  8
0
 10
9.42787
 20
-17.6241
 11
9.42288
 21
-17.3537
  0
LINE
  8
0
 10
9.42288
 20
-17.3537
 11
9.41063
 21
-17.0991
  0
LINE
  8
0
 10
9.41063
 20
-17.0991
 11
9.39201
 21
-16.8606
  0
LINE
  8
0
 10
9.39201
 20
-16.8606
 11
9.39023
 21
-16.8574
  0
LINE
  8
0
 10
9.39023
 20
-16.8574
 11
9.46689
 21
-16.8145
  0
LINE
  8
0
 10
9.46689
 20
-16.8145
 11
9.46869
 21
-16.8176
  0
LINE
  8
0
 10
9.46869
 20
-16.8176
 11
9.66234
 21
-16.9581
  0
LINE
  8
0
 10
9.66234
 20
-16.9581
 11
9.87299
 21
-17.1016
  0
LINE
  8
0
 10
9.87299
 20
-17.1016
 11
10.1009
 21
-17.2471
  0
LINE
  8
0
 10
10.1009
 20
-17.2471
 11
10.3465
 21
-17.3938
  0
LINE
  8
0
 10
10.3465
 20
-17.3938
 11
10.6099
 21
-17.5408
  0
LINE
  8
0
 10
10.6099
 20
-17.5408
 11
10.8121
 21
-17.4169
  0
LINE
  8
0
 10
10.8121
 20
-17.4169
 11
10.8008
 21
-17.1154
  0
LINE
  8
0
 10
10.8008
 20
-17.1154
 11
10.7816
 21
-16.83
  0
LINE
  8
0
 10
10.7816
 20
-16.83
 11
10.7554
 21
-16.5609
  0
LINE
  8
0
 10
10.7554
 20
-16.5609
 11
10.7232
 21
-16.308
  0
LINE
  8
0
 10
10.7232
 20
-16.308
 11
10.6859
 21
-16.0717
  0
LINE
  8
0
 10
10.6859
 20
-16.0717
 11
10.6839
 21
-16.0687
  0
LINE
  8
0
 10
10.6839
 20
-16.0687
 11
10.757
 21
-16.0199
  0
LINE
  8
0
 10
10.757
 20
-16.0199
 11
10.759
 21
-16.0229
  0
LINE
  8
0
 10
10.759
 20
-16.0229
 11
10.9631
 21
-16.1478
  0
LINE
  8
0
 10
10.9631
 20
-16.1478
 11
11.1843
 21
-16.2743
  0
LINE
  8
0
 10
11.1843
 20
-16.2743
 11
11.423
 21
-16.4015
  0
LINE
  8
0
 10
11.423
 20
-16.4015
 11
11.6793
 21
-16.5284
  0
LINE
  8
0
 10
11.6793
 20
-16.5284
 11
11.9535
 21
-16.6543
  0
LINE
  8
0
 10
11.9535
 20
-16.6543
 11
12.1453
 21
-16.5149
  0
LINE
  8
0
 10
12.1453
 20
-16.5149
 11
12.1104
 21
-16.2153
  0
LINE
  8
0
 10
12.1104
 20
-16.2153
 11
12.0688
 21
-15.9323
  0
LINE
  8
0
 10
12.0688
 20
-15.9323
 11
12.0216
 21
-15.666
  0
LINE
  8
0
 10
12.0216
 20
-15.666
 11
11.9697
 21
-15.4164
  0
LINE
  8
0
 10
11.9697
 20
-15.4164
 11
11.914
 21
-15.1838
  0
LINE
  8
0
 10
11.914
 20
-15.1838
 11
11.9117
 21
-15.1809
  0
LINE
  8
0
 10
11.9117
 20
-15.1809
 11
11.9807
 21
-15.1265
  0
LINE
  8
0
 10
11.9807
 20
-15.1265
 11
11.983
 21
-15.1294
  0
LINE
  8
0
 10
11.983
 20
-15.1294
 11
12.1962
 21
-15.2378
  0
LINE
  8
0
 10
12.1962
 20
-15.2378
 11
12.4267
 21
-15.3466
  0
LINE
  8
0
 10
12.4267
 20
-15.3466
 11
12.6746
 21
-15.4547
  0
LINE
  8
0
 10
12.6746
 20
-15.4547
 11
12.9401
 21
-15.5611
  0
LINE
  8
0
 10
12.9401
 20
-15.5611
 11
13.2233
 21
-15.6651
  0
LINE
  8
0
 10
13.2233
 20
-15.6651
 11
13.4036
 21
-15.511
  0
LINE
  8
0
 10
13.4036
 20
-15.511
 11
13.3453
 21
-15.2151
  0
LINE
  8
0
 10
13.3453
 20
-15.2151
 11
13.2816
 21
-14.9362
  0
LINE
  8
0
 10
13.2816
 20
-14.9362
 11
13.2137
 21
-14.6745
  0
LINE
  8
0
 10
13.2137
 20
-14.6745
 11
13.1423
 21
-14.4298
  0
LINE
  8
0
 10
13.1423
 20
-14.4298
 11
13.0685
 21
-14.2022
  0
LINE
  8
0
 10
13.0685
 20
-14.2022
 11
13.0661
 21
-14.1995
  0
LINE
  8
0
 10
13.0661
 20
-14.1995
 11
13.1306
 21
-14.1399
  0
LINE
  8
0
 10
13.1306
 20
-14.1399
 11
13.1331
 21
-14.1425
  0
LINE
  8
0
 10
13.1331
 20
-14.1425
 11
13.3542
 21
-14.234
  0
LINE
  8
0
 10
13.3542
 20
-14.234
 11
13.5925
 21
-14.3243
  0
LINE
  8
0
 10
13.5925
 20
-14.3243
 11
13.8481
 21
-14.4126
  0
LINE
  8
0
 10
13.8481
 20
-14.4126
 11
14.1211
 21
-14.4979
  0
LINE
  8
0
 10
14.1211
 20
-14.4979
 11
14.4116
 21
-14.5793
  0
LINE
  8
0
 10
14.4116
 20
-14.5793
 11
14.5793
 21
-14.4116
  0
LINE
  8
0
 10
14.5793
 20
-14.4116
 11
14.4979
 21
-14.1211
  0
LINE
  8
0
 10
14.4979
 20
-14.1211
 11
14.4126
 21
-13.8481
  0
LINE
  8
0
 10
14.4126
 20
-13.8481
 11
14.3243
 21
-13.5925
  0
LINE
  8
0
 10
14.3243
 20
-13.5925
 11
14.234
 21
-13.3542
  0
LINE
  8
0
 10
14.234
 20
-13.3542
 11
14.1425
 21
-13.1331
  0
LINE
  8
0
 10
14.1425
 20
-13.1331
 11
14.1399
 21
-13.1306
  0
LINE
  8
0
 10
14.1399
 20
-13.1306
 11
14.1995
 21
-13.0661
  0
LINE
  8
0
 10
14.1995
 20
-13.0661
 11
14.2022
 21
-13.0685
  0
LINE
  8
0
 10
14.2022
 20
-13.0685
 11
14.4298
 21
-13.1423
  0
LINE
  8
0
 10
14.4298
 20
-13.1423
 11
14.6745
 21
-13.2137
  0
LINE
  8
0
 10
14.6745
 20
-13.2137
 11
14.9362
 21
-13.2816
  0
LINE
  8
0
 10
14.9362
 20
-13.2816
 11
15.2151
 21
-13.3453
  0
LINE
  8
0
 10
15.2151
 20
-13.3453
 11
15.511
 21
-13.4036
  0
LINE
  8
0
 10
15.511
 20
-13.4036
 11
15.6651
 21
-13.2233
  0
LINE
  8
0
 10
15.6651
 20
-13.2233
 11
15.5611
 21
-12.9401
  0
LINE
  8
0
 10
15.5611
 20
-12.9401
 11
15.4547
 21
-12.6746
  0
LINE
  8
0
 10
15.4547
 20
-12.6746
 11
15.3466
 21
-12.4267
  0
LINE
  8
0
 10
15.3466
 20
-12.4267
 11
15.2378
 21
-12.1962
  0
LINE
  8
0
 10
15.2378
 20
-12.1962
 11
15.1294
 21
-11.983
  0
LINE
  8
0
 10
15.1294
 20
-11.983
 11
15.1265
 21
-11.9807
  0
LINE
  8
0
 10
15.1265
 20
-11.9807
 11
15.1809
 21
-11.9117
  0
LINE
  8
0
 10
15.1809
 20
-11.9117
 11
15.1838
 21
-11.914
  0
LINE
  8
0
 10
15.1838
 20
-11.914
 11
15.4164
 21
-11.9697
  0
LINE
  8
0
 10
15.4164
 20
-11.9697
 11
15.666
 21
-12.0216
  0
LINE
  8
0
 10
15.666
 20
-12.0216
 11
15.9323
 21
-12.0688
  0
LINE
  8
0
 10
15.9323
 20
-12.0688
 11
16.2153
 21
-12.1104
  0
LINE
  8
0
 10
16.2153
 20
-12.1104
 11
16.5149
 21
-12.1453
  0
LINE
  8
0
 10
16.5149
 20
-12.1453
 11
16.6543
 21
-11.9535
  0
LINE
  8
0
 10
16.6543
 20
-11.9535
 11
16.5284
 21
-11.6793
  0
LINE
  8
0
 10
16.5284
 20
-11.6793
 11
16.4015
 21
-11.423
  0
LINE
  8
0
 10
16.4015
 20
-11.423
 11
16.2743
 21
-11.1843
  0
LINE
  8
0
 10
16.2743
 20
-11.1843
 11
16.1478
 21
-10.9631
  0
LINE
  8
0
 10
16.1478
 20
-10.9631
 11
16.0229
 21
-10.759
  0
LINE
  8
0
 10
16.0229
 20
-10.759
 11
16.0199
 21
-10.757
  0
LINE
  8
0
 10
16.0199
 20
-10.757
 11
16.0687
 21
-10.6839
  0
LINE
  8
0
 10
16.0687
 20
-10.6839
 11
16.0717
 21
-10.6859
  0
LINE
  8
0
 10
16.0717
 20
-10.6859
 11
16.308
 21
-10.7232
  0
LINE
  8
0
 10
16.308
 20
-10.7232
 11
16.5609
 21
-10.7554
  0
LINE
  8
0
 10
16.5609
 20
-10.7554
 11
16.83
 21
-10.7816
  0
LINE
  8
0
 10
16.83
 20
-10.7816
 11
17.1154
 21
-10.8008
  0
LINE
  8
0
 10
17.1154
 20
-10.8008
 11
17.4169
 21
-10.8121
  0
LINE
  8
0
 10
17.4169
 20
-10.8121
 11
17.5408
 21
-10.6099
  0
LINE
  8
0
 10
17.5408
 20
-10.6099
 11
17.3938
 21
-10.3465
  0
LINE
  8
0
 10
17.3938
 20
-10.3465
 11
17.2471
 21
-10.1009
  0
LINE
  8
0
 10
17.2471
 20
-10.1009
 11
17.1016
 21
-9.87299
  0
LINE
  8
0
 10
17.1016
 20
-9.87299
 11
16.9581
 21
-9.66234
  0
LINE
  8
0
 10
16.9581
 20
-9.66234
 11
16.8176
 21
-9.46869
  0
LINE
  8
0
 10
16.8176
 20
-9.46869
 11
16.8145
 21
-9.46689
  0
LINE
  8
0
 10
16.8145
 20
-9.46689
 11
16.8574
 21
-9.39023
  0
LINE
  8
0
 10
16.8574
 20
-9.39023
 11
16.8606
 21
-9.39201
  0
LINE
  8
0
 10
16.8606
 20
-9.39201
 11
17.0991
 21
-9.41063
  0
LINE
  8
0
 10
17.0991
 20
-9.41063
 11
17.3537
 21
-9.42288
  0
LINE
  8
0
 10
17.3537
 20
-9.42288
 11
17.6241
 21
-9.42787
  0
LINE
  8
0
 10
17.6241
 20
-9.42787
 11
17.9101
 21
-9.42465
  0
LINE
  8
0
 10
17.9101
 20
-9.42465
 11
18.2115
 21
-9.41229
  0
LINE
  8
0
 10
18.2115
 20
-9.41229
 11
18.3192
 21
-9.20099
  0
LINE
  8
0
 10
18.3192
 20
-9.20099
 11
18.152
 21
-8.94989
  0
LINE
  8
0
 10
18.152
 20
-8.94989
 11
17.9865
 21
-8.7166
  0
LINE
  8
0
 10
17.9865
 20
-8.7166
 11
17.8235
 21
-8.50078
  0
LINE
  8
0
 10
17.8235
 20
-8.50078
 11
17.664
 21
-8.30203
  0
LINE
  8
0
 10
17.664
 20
-8.30203
 11
17.5087
 21
-8.12001
  0
LINE
  8
0
 10
17.5087
 20
-8.12001
 11
17.5054
 21
-8.11847
  0
LINE
  8
0
 10
17.5054
 20
-8.11847
 11
17.5422
 21
-8.03867
  0
LINE
  8
0
 10
17.5422
 20
-8.03867
 11
17.5455
 21
-8.04019
  0
LINE
  8
0
 10
17.5455
 20
-8.04019
 11
17.7847
 21
-8.04004
  0
LINE
  8
0
 10
17.7847
 20
-8.04004
 11
18.0395
 21
-8.03229
  0
LINE
  8
0
 10
18.0395
 20
-8.03229
 11
18.3094
 21
-8.01604
  0
LINE
  8
0
 10
18.3094
 20
-8.01604
 11
18.5943
 21
-7.99039
  0
LINE
  8
0
 10
18.5943
 20
-7.99039
 11
18.8938
 21
-7.95442
  0
LINE
  8
0
 10
18.8938
 20
-7.95442
 11
18.9846
 21
-7.73532
  0
LINE
  8
0
 10
18.9846
 20
-7.73532
 11
18.7982
 21
-7.49811
  0
LINE
  8
0
 10
18.7982
 20
-7.49811
 11
18.6149
 21
-7.27853
  0
LINE
  8
0
 10
18.6149
 20
-7.27853
 11
18.4355
 21
-7.07616
  0
LINE
  8
0
 10
18.4355
 20
-7.07616
 11
18.2609
 21
-6.89055
  0
LINE
  8
0
 10
18.2609
 20
-6.89055
 11
18.0918
 21
-6.72125
  0
LINE
  8
0
 10
18.0918
 20
-6.72125
 11
18.0884
 21
-6.71997
  0
LINE
  8
0
 10
18.0884
 20
-6.71997
 11
18.1188
 21
-6.63756
  0
LINE
  8
0
 10
18.1188
 20
-6.63756
 11
18.1222
 21
-6.63881
  0
LINE
  8
0
 10
18.1222
 20
-6.63881
 11
18.3607
 21
-6.61987
  0
LINE
  8
0
 10
18.3607
 20
-6.61987
 11
18.6141
 21
-6.59216
  0
LINE
  8
0
 10
18.6141
 20
-6.59216
 11
18.8819
 21
-6.55479
  0
LINE
  8
0
 10
18.8819
 20
-6.55479
 11
19.1639
 21
-6.50687
  0
LINE
  8
0
 10
19.1639
 20
-6.50687
 11
19.4597
 21
-6.44751
  0
LINE
  8
0
 10
19.4597
 20
-6.44751
 11
19.533
 21
-6.22195
  0
LINE
  8
0
 10
19.533
 20
-6.22195
 11
19.3286
 21
-6.00011
  0
LINE
  8
0
 10
19.3286
 20
-6.00011
 11
19.1286
 21
-5.79558
  0
LINE
  8
0
 10
19.1286
 20
-5.79558
 11
18.9339
 21
-5.60789
  0
LINE
  8
0
 10
18.9339
 20
-5.60789
 11
18.7452
 21
-5.43657
  0
LINE
  8
0
 10
18.7452
 20
-5.43657
 11
18.5634
 21
-5.28107
  0
LINE
  8
0
 10
18.5634
 20
-5.28107
 11
18.5599
 21
-5.28006
  0
LINE
  8
0
 10
18.5599
 20
-5.28006
 11
18.5837
 21
-5.1955
  0
LINE
  8
0
 10
18.5837
 20
-5.1955
 11
18.5872
 21
-5.19649
  0
LINE
  8
0
 10
18.5872
 20
-5.19649
 11
18.8235
 21
-5.15891
  0
LINE
  8
0
 10
18.8235
 20
-5.15891
 11
19.0739
 21
-5.11139
  0
LINE
  8
0
 10
19.0739
 20
-5.11139
 11
19.338
 21
-5.05312
  0
LINE
  8
0
 10
19.338
 20
-5.05312
 11
19.6154
 21
-4.98322
  0
LINE
  8
0
 10
19.6154
 20
-4.98322
 11
19.9055
 21
-4.90083
  0
LINE
  8
0
 10
19.9055
 20
-4.90083
 11
19.9609
 21
-4.67024
  0
LINE
  8
0
 10
19.9609
 20
-4.67024
 11
19.7398
 21
-4.4651
  0
LINE
  8
0
 10
19.7398
 20
-4.4651
 11
19.5244
 21
-4.2769
  0
LINE
  8
0
 10
19.5244
 20
-4.2769
 11
19.3155
 21
-4.10507
  0
LINE
  8
0
 10
19.3155
 20
-4.10507
 11
19.114
 21
-3.94908
  0
LINE
  8
0
 10
19.114
 20
-3.94908
 11
18.9205
 21
-3.80832
  0
LINE
  8
0
 10
18.9205
 20
-3.80832
 11
18.9169
 21
-3.8076
  0
LINE
  8
0
 10
18.9169
 20
-3.8076
 11
18.9341
 21
-3.72142
  0
LINE
  8
0
 10
18.9341
 20
-3.72142
 11
18.9377
 21
-3.72212
  0
LINE
  8
0
 10
18.9377
 20
-3.72212
 11
19.1703
 21
-3.66612
  0
LINE
  8
0
 10
19.1703
 20
-3.66612
 11
19.4162
 21
-3.59912
  0
LINE
  8
0
 10
19.4162
 20
-3.59912
 11
19.6749
 21
-3.52029
  0
LINE
  8
0
 10
19.6749
 20
-3.52029
 11
19.9459
 21
-3.42885
  0
LINE
  8
0
 10
19.9459
 20
-3.42885
 11
20.2287
 21
-3.32396
  0
LINE
  8
0
 10
20.2287
 20
-3.32396
 11
20.2658
 21
-3.08972
  0
LINE
  8
0
 10
20.2658
 20
-3.08972
 11
20.0293
 21
-2.90257
  0
LINE
  8
0
 10
20.0293
 20
-2.90257
 11
19.7997
 21
-2.73186
  0
LINE
  8
0
 10
19.7997
 20
-2.73186
 11
19.578
 21
-2.57695
  0
LINE
  8
0
 10
19.578
 20
-2.57695
 11
19.3649
 21
-2.43724
  0
LINE
  8
0
 10
19.3649
 20
-2.43724
 11
19.161
 21
-2.31209
  0
LINE
  8
0
 10
19.161
 20
-2.31209
 11
19.1574
 21
-2.31165
  0
LINE
  8
0
 10
19.1574
 20
-2.31165
 11
19.1677
 21
-2.2244
  0
LINE
  8
0
 10
19.1677
 20
-2.2244
 11
19.1713
 21
-2.22482
  0
LINE
  8
0
 10
19.1713
 20
-2.22482
 11
19.3988
 21
-2.15074
  0
LINE
  8
0
 10
19.3988
 20
-2.15074
 11
19.6387
 21
-2.06465
  0
LINE
  8
0
 10
19.6387
 20
-2.06465
 11
19.8904
 21
-1.96577
  0
LINE
  8
0
 10
19.8904
 20
-1.96577
 11
20.1534
 21
-1.85335
  0
LINE
  8
0
 10
20.1534
 20
-1.85335
 11
20.4271
 21
-1.72659
  0
LINE
  8
0
 10
20.4271
 20
-1.72659
 11
20.4458
 21
-1.49017
  0
LINE
  8
0
 10
20.4458
 20
-1.49017
 11
20.1952
 21
-1.32214
  0
LINE
  8
0
 10
20.1952
 20
-1.32214
 11
19.953
 21
-1.16995
  0
LINE
  8
0
 10
19.953
 20
-1.16995
 11
19.7199
 21
-1.03293
  0
LINE
  8
0
 10
19.7199
 20
-1.03293
 11
19.4964
 21
-0.91037
  0
LINE
  8
0
 10
19.4964
 20
-0.91037
 11
19.2833
 21
-0.801605
  0
LINE
  8
0
 10
19.2833
 20
-0.801605
 11
19.2797
 21
-0.801453
  0
LINE
  8
0
 10
19.2797
 20
-0.801453
 11
19.2831
 21
-0.713669
  0
LINE
  8
0
 10
19.2831
 20
-0.713669
 11
19.2868
 21
-0.713806
  0
LINE
  8
0
 10
19.2868
 20
-0.713806
 11
19.5078
 21
-0.622101
  0
LINE
  8
0
 10
19.5078
 20
-0.622101
 11
19.7401
 21
-0.517456
  0
LINE
  8
0
 10
19.7401
 20
-0.517456
 11
19.9833
 21
-0.399139
  0
LINE
  8
0
 10
19.9833
 20
-0.399139
 11
20.2367
 21
-0.266418
  0
LINE
  8
0
 10
20.2367
 20
-0.266418
 11
20.4996
 21
-0.118576
  0
LINE
  8
0
 10
20.4996
 20
-0.118576
 11
20.4996
 21
0.118561
  0
LINE
  8
0
 10
20.4996
 20
0.118561
 11
20.2367
 21
0.266403
  0
LINE
  8
0
 10
20.2367
 20
0.266403
 11
19.9833
 21
0.399124
  0
LINE
  8
0
 10
19.9833
 20
0.399124
 11
19.7401
 21
0.517441
  0
LINE
  8
0
 10
19.7401
 20
0.517441
 11
19.5078
 21
0.622086
  0
LINE
  8
0
 10
19.5078
 20
0.622086
 11
19.2868
 21
0.713791
  0
LINE
  8
0
 10
19.2868
 20
0.713791
 11
19.2831
 21
0.713654
  0
LINE
  8
0
 10
19.2831
 20
0.713654
 11
19.2797
 21
0.801453
  0
LINE
  8
0
 10
19.2797
 20
0.801453
 11
19.2833
 21
0.801605
  0
LINE
  8
0
 10
19.2833
 20
0.801605
 11
19.4964
 21
0.91037
  0
LINE
  8
0
 10
19.4964
 20
0.91037
 11
19.7199
 21
1.03293
  0
LINE
  8
0
 10
19.7199
 20
1.03293
 11
19.953
 21
1.16995
  0
LINE
  8
0
 10
19.953
 20
1.16995
 11
20.1952
 21
1.32214
  0
LINE
  8
0
 10
20.1952
 20
1.32214
 11
20.4458
 21
1.49017
  0
LINE
  8
0
 10
20.4458
 20
1.49017
 11
20.4271
 21
1.72659
  0
LINE
  8
0
 10
20.4271
 20
1.72659
 11
20.1534
 21
1.85335
  0
LINE
  8
0
 10
20.1534
 20
1.85335
 11
19.8904
 21
1.96577
  0
LINE
  8
0
 10
19.8904
 20
1.96577
 11
19.6387
 21
2.06465
  0
LINE
  8
0
 10
19.6387
 20
2.06465
 11
19.3988
 21
2.15074
  0
LINE
  8
0
 10
19.3988
 20
2.15074
 11
19.1713
 21
2.22482
  0
LINE
  8
0
 10
19.1713
 20
2.22482
 11
19.1677
 21
2.2244
  0
LINE
  8
0
 10
19.1677
 20
2.2244
 11
19.1574
 21
2.31165
  0
LINE
  8
0
 10
19.1574
 20
2.31165
 11
19.161
 21
2.31209
  0
LINE
  8
0
 10
19.161
 20
2.31209
 11
19.3649
 21
2.43724
  0
LINE
  8
0
 10
19.3649
 20
2.43724
 11
19.578
 21
2.57695
  0
LINE
  8
0
 10
19.578
 20
2.57695
 11
19.7997
 21
2.73186
  0
LINE
  8
0
 10
19.7997
 20
2.73186
 11
20.0293
 21
2.90257
  0
LINE
  8
0
 10
20.0293
 20
2.90257
 11
20.2658
 21
3.08972
  0
LINE
  8
0
 10
20.2658
 20
3.08972
 11
20.2287
 21
3.32396
  0
LINE
  8
0
 10
20.2287
 20
3.32396
 11
19.9459
 21
3.42885
  0
LINE
  8
0
 10
19.9459
 20
3.42885
 11
19.6749
 21
3.52029
  0
LINE
  8
0
 10
19.6749
 20
3.52029
 11
19.4162
 21
3.59912
  0
LINE
  8
0
 10
19.4162
 20
3.59912
 11
19.1703
 21
3.66612
  0
LINE
  8
0
 10
19.1703
 20
3.66612
 11
18.9377
 21
3.72212
  0
LINE
  8
0
 10
18.9377
 20
3.72212
 11
18.9341
 21
3.72142
  0
LINE
  8
0
 10
18.9341
 20
3.72142
 11
18.9169
 21
3.8076
  0
LINE
  8
0
 10
18.9169
 20
3.8076
 11
18.9205
 21
3.80832
  0
LINE
  8
0
 10
18.9205
 20
3.80832
 11
19.114
 21
3.94908
  0
LINE
  8
0
 10
19.114
 20
3.94908
 11
19.3155
 21
4.10507
  0
LINE
  8
0
 10
19.3155
 20
4.10507
 11
19.5244
 21
4.2769
  0
LINE
  8
0
 10
19.5244
 20
4.2769
 11
19.7398
 21
4.4651
  0
LINE
  8
0
 10
19.7398
 20
4.4651
 11
19.9609
 21
4.67024
  0
LINE
  8
0
 10
19.9609
 20
4.67024
 11
19.9055
 21
4.90083
  0
LINE
  8
0
 10
19.9055
 20
4.90083
 11
19.6154
 21
4.98322
  0
LINE
  8
0
 10
19.6154
 20
4.98322
 11
19.338
 21
5.05312
  0
LINE
  8
0
 10
19.338
 20
5.05312
 11
19.0739
 21
5.11139
  0
LINE
  8
0
 10
19.0739
 20
5.11139
 11
18.8235
 21
5.15891
  0
LINE
  8
0
 10
18.8235
 20
5.15891
 11
18.5872
 21
5.19649
  0
LINE
  8
0
 10
18.5872
 20
5.19649
 11
18.5837
 21
5.1955
  0
LINE
  8
0
 10
18.5837
 20
5.1955
 11
18.5599
 21
5.28006
  0
LINE
  8
0
 10
18.5599
 20
5.28006
 11
18.5634
 21
5.28107
  0
LINE
  8
0
 10
18.5634
 20
5.28107
 11
18.7452
 21
5.43657
  0
LINE
  8
0
 10
18.7452
 20
5.43657
 11
18.9339
 21
5.60789
  0
LINE
  8
0
 10
18.9339
 20
5.60789
 11
19.1286
 21
5.79558
  0
LINE
  8
0
 10
19.1286
 20
5.79558
 11
19.3286
 21
6.00011
  0
LINE
  8
0
 10
19.3286
 20
6.00011
 11
19.533
 21
6.22195
  0
LINE
  8
0
 10
19.533
 20
6.22195
 11
19.4597
 21
6.44751
  0
LINE
  8
0
 10
19.4597
 20
6.44751
 11
19.1639
 21
6.50687
  0
LINE
  8
0
 10
19.1639
 20
6.50687
 11
18.8819
 21
6.55479
  0
LINE
  8
0
 10
18.8819
 20
6.55479
 11
18.6141
 21
6.59216
  0
LINE
  8
0
 10
18.6141
 20
6.59216
 11
18.3607
 21
6.61987
  0
LINE
  8
0
 10
18.3607
 20
6.61987
 11
18.1222
 21
6.63881
  0
LINE
  8
0
 10
18.1222
 20
6.63881
 11
18.1188
 21
6.63756
  0
LINE
  8
0
 10
18.1188
 20
6.63756
 11
18.0884
 21
6.71997
  0
LINE
  8
0
 10
18.0884
 20
6.71997
 11
18.0918
 21
6.72125
  0
LINE
  8
0
 10
18.0918
 20
6.72125
 11
18.2609
 21
6.89055
  0
LINE
  8
0
 10
18.2609
 20
6.89055
 11
18.4355
 21
7.07616
  0
LINE
  8
0
 10
18.4355
 20
7.07616
 11
18.6149
 21
7.27853
  0
LINE
  8
0
 10
18.6149
 20
7.27853
 11
18.7982
 21
7.49811
  0
LINE
  8
0
 10
18.7982
 20
7.49811
 11
18.9846
 21
7.73532
  0
LINE
  8
0
 10
18.9846
 20
7.73532
 11
18.8938
 21
7.95442
  0
LINE
  8
0
 10
18.8938
 20
7.95442
 11
18.5943
 21
7.99039
  0
LINE
  8
0
 10
18.5943
 20
7.99039
 11
18.3094
 21
8.01604
  0
LINE
  8
0
 10
18.3094
 20
8.01604
 11
18.0395
 21
8.03229
  0
LINE
  8
0
 10
18.0395
 20
8.03229
 11
17.7847
 21
8.04004
  0
LINE
  8
0
 10
17.7847
 20
8.04004
 11
17.5455
 21
8.04019
  0
LINE
  8
0
 10
17.5455
 20
8.04019
 11
17.5422
 21
8.03867
  0
LINE
  8
0
 10
17.5422
 20
8.03867
 11
17.5054
 21
8.11847
  0
LINE
  8
0
 10
17.5054
 20
8.11847
 11
17.5087
 21
8.12001
  0
LINE
  8
0
 10
17.5087
 20
8.12001
 11
17.664
 21
8.30203
  0
LINE
  8
0
 10
17.664
 20
8.30203
 11
17.8235
 21
8.50078
  0
LINE
  8
0
 10
17.8235
 20
8.50078
 11
17.9865
 21
8.7166
  0
LINE
  8
0
 10
17.9865
 20
8.7166
 11
18.152
 21
8.94989
  0
LINE
  8
0
 10
18.152
 20
8.94989
 11
18.3192
 21
9.20099
  0
LINE
  8
0
 10
18.3192
 20
9.20099
 11
18.2115
 21
9.41229
  0
LINE
  8
0
 10
18.2115
 20
9.41229
 11
17.9101
 21
9.42465
  0
LINE
  8
0
 10
17.9101
 20
9.42465
 11
17.6241
 21
9.42787
  0
LINE
  8
0
 10
17.6241
 20
9.42787
 11
17.3537
 21
9.42288
  0
LINE
  8
0
 10
17.3537
 20
9.42288
 11
17.0991
 21
9.41063
  0
LINE
  8
0
 10
17.0991
 20
9.41063
 11
16.8606
 21
9.39201
  0
LINE
  8
0
 10
16.8606
 20
9.39201
 11
16.8574
 21
9.39023
  0
LINE
  8
0
 10
16.8574
 20
9.39023
 11
16.8145
 21
9.46689
  0
LINE
  8
0
 10
16.8145
 20
9.46689
 11
16.8176
 21
9.46869
  0
LINE
  8
0
 10
16.8176
 20
9.46869
 11
16.9581
 21
9.66234
  0
LINE
  8
0
 10
16.9581
 20
9.66234
 11
17.1016
 21
9.87299
  0
LINE
  8
0
 10
17.1016
 20
9.87299
 11
17.2471
 21
10.1009
  0
LINE
  8
0
 10
17.2471
 20
10.1009
 11
17.3938
 21
10.3465
  0
LINE
  8
0
 10
17.3938
 20
10.3465
 11
17.5408
 21
10.6099
  0
LINE
  8
0
 10
17.5408
 20
10.6099
 11
17.4169
 21
10.8121
  0
LINE
  8
0
 10
17.4169
 20
10.8121
 11
17.1154
 21
10.8008
  0
LINE
  8
0
 10
17.1154
 20
10.8008
 11
16.83
 21
10.7816
  0
LINE
  8
0
 10
16.83
 20
10.7816
 11
16.5609
 21
10.7554
  0
LINE
  8
0
 10
16.5609
 20
10.7554
 11
16.308
 21
10.7232
  0
LINE
  8
0
 10
16.308
 20
10.7232
 11
16.0717
 21
10.6859
  0
LINE
  8
0
 10
16.0717
 20
10.6859
 11
16.0687
 21
10.6839
  0
LINE
  8
0
 10
16.0687
 20
10.6839
 11
16.0199
 21
10.757
  0
LINE
  8
0
 10
16.0199
 20
10.757
 11
16.0229
 21
10.759
  0
LINE
  8
0
 10
16.0229
 20
10.759
 11
16.1478
 21
10.9631
  0
LINE
  8
0
 10
16.1478
 20
10.9631
 11
16.2743
 21
11.1843
  0
LINE
  8
0
 10
16.2743
 20
11.1843
 11
16.4015
 21
11.423
  0
LINE
  8
0
 10
16.4015
 20
11.423
 11
16.5284
 21
11.6793
  0
LINE
  8
0
 10
16.5284
 20
11.6793
 11
16.6543
 21
11.9535
  0
LINE
  8
0
 10
16.6543
 20
11.9535
 11
16.5149
 21
12.1453
  0
LINE
  8
0
 10
16.5149
 20
12.1453
 11
16.2153
 21
12.1104
  0
LINE
  8
0
 10
16.2153
 20
12.1104
 11
15.9323
 21
12.0688
  0
LINE
  8
0
 10
15.9323
 20
12.0688
 11
15.666
 21
12.0216
  0
LINE
  8
0
 10
15.666
 20
12.0216
 11
15.4164
 21
11.9697
  0
LINE
  8
0
 10
15.4164
 20
11.9697
 11
15.1838
 21
11.914
  0
LINE
  8
0
 10
15.1838
 20
11.914
 11
15.1809
 21
11.9117
  0
LINE
  8
0
 10
15.1809
 20
11.9117
 11
15.1265
 21
11.9807
  0
LINE
  8
0
 10
15.1265
 20
11.9807
 11
15.1294
 21
11.983
  0
LINE
  8
0
 10
15.1294
 20
11.983
 11
15.2378
 21
12.1962
  0
LINE
  8
0
 10
15.2378
 20
12.1962
 11
15.3466
 21
12.4267
  0
LINE
  8
0
 10
15.3466
 20
12.4267
 11
15.4547
 21
12.6746
  0
LINE
  8
0
 10
15.4547
 20
12.6746
 11
15.5611
 21
12.9401
  0
LINE
  8
0
 10
15.5611
 20
12.9401
 11
15.6651
 21
13.2233
  0
LINE
  8
0
 10
15.6651
 20
13.2233
 11
15.511
 21
13.4036
  0
LINE
  8
0
 10
15.511
 20
13.4036
 11
15.2151
 21
13.3453
  0
LINE
  8
0
 10
15.2151
 20
13.3453
 11
14.9362
 21
13.2816
  0
LINE
  8
0
 10
14.9362
 20
13.2816
 11
14.6745
 21
13.2137
  0
LINE
  8
0
 10
14.6745
 20
13.2137
 11
14.4298
 21
13.1423
  0
LINE
  8
0
 10
14.4298
 20
13.1423
 11
14.2022
 21
13.0685
  0
LINE
  8
0
 10
14.2022
 20
13.0685
 11
14.1995
 21
13.0661
  0
LINE
  8
0
 10
14.1995
 20
13.0661
 11
14.1399
 21
13.1306
  0
LINE
  8
0
 10
14.1399
 20
13.1306
 11
14.1425
 21
13.1331
  0
LINE
  8
0
 10
14.1425
 20
13.1331
 11
14.234
 21
13.3542
  0
LINE
  8
0
 10
14.234
 20
13.3542
 11
14.3243
 21
13.5925
  0
LINE
  8
0
 10
14.3243
 20
13.5925
 11
14.4126
 21
13.8481
  0
LINE
  8
0
 10
14.4126
 20
13.8481
 11
14.4979
 21
14.1211
  0
LINE
  8
0
 10
14.4979
 20
14.1211
 11
14.5793
 21
14.4116
  0
LINE
  8
0
 10
14.5793
 20
14.4116
 11
14.4116
 21
14.5793
  0
LINE
  8
0
 10
14.4116
 20
14.5793
 11
14.1211
 21
14.4979
  0
LINE
  8
0
 10
14.1211
 20
14.4979
 11
13.8481
 21
14.4126
  0
LINE
  8
0
 10
13.8481
 20
14.4126
 11
13.5925
 21
14.3243
  0
LINE
  8
0
 10
13.5925
 20
14.3243
 11
13.3542
 21
14.234
  0
LINE
  8
0
 10
13.3542
 20
14.234
 11
13.1331
 21
14.1425
  0
LINE
  8
0
 10
13.1331
 20
14.1425
 11
13.1306
 21
14.1399
  0
LINE
  8
0
 10
13.1306
 20
14.1399
 11
13.0661
 21
14.1995
  0
LINE
  8
0
 10
13.0661
 20
14.1995
 11
13.0685
 21
14.2022
  0
LINE
  8
0
 10
13.0685
 20
14.2022
 11
13.1423
 21
14.4298
  0
LINE
  8
0
 10
13.1423
 20
14.4298
 11
13.2137
 21
14.6745
  0
LINE
  8
0
 10
13.2137
 20
14.6745
 11
13.2816
 21
14.9362
  0
LINE
  8
0
 10
13.2816
 20
14.9362
 11
13.3453
 21
15.2151
  0
LINE
  8
0
 10
13.3453
 20
15.2151
 11
13.4036
 21
15.511
  0
LINE
  8
0
 10
13.4036
 20
15.511
 11
13.2233
 21
15.6651
  0
LINE
  8
0
 10
13.2233
 20
15.6651
 11
12.9401
 21
15.5611
  0
LINE
  8
0
 10
12.9401
 20
15.5611
 11
12.6746
 21
15.4547
  0
LINE
  8
0
 10
12.6746
 20
15.4547
 11
12.4267
 21
15.3466
  0
LINE
  8
0
 10
12.4267
 20
15.3466
 11
12.1962
 21
15.2378
  0
LINE
  8
0
 10
12.1962
 20
15.2378
 11
11.983
 21
15.1294
  0
LINE
  8
0
 10
11.983
 20
15.1294
 11
11.9807
 21
15.1265
  0
LINE
  8
0
 10
11.9807
 20
15.1265
 11
11.9117
 21
15.1809
  0
LINE
  8
0
 10
11.9117
 20
15.1809
 11
11.914
 21
15.1838
  0
LINE
  8
0
 10
11.914
 20
15.1838
 11
11.9697
 21
15.4164
  0
LINE
  8
0
 10
11.9697
 20
15.4164
 11
12.0216
 21
15.666
  0
LINE
  8
0
 10
12.0216
 20
15.666
 11
12.0688
 21
15.9323
  0
LINE
  8
0
 10
12.0688
 20
15.9323
 11
12.1104
 21
16.2153
  0
LINE
  8
0
 10
12.1104
 20
16.2153
 11
12.1453
 21
16.5149
  0
LINE
  8
0
 10
12.1453
 20
16.5149
 11
11.9535
 21
16.6543
  0
LINE
  8
0
 10
11.9535
 20
16.6543
 11
11.6793
 21
16.5284
  0
LINE
  8
0
 10
11.6793
 20
16.5284
 11
11.423
 21
16.4015
  0
LINE
  8
0
 10
11.423
 20
16.4015
 11
11.1843
 21
16.2743
  0
LINE
  8
0
 10
11.1843
 20
16.2743
 11
10.9631
 21
16.1478
  0
LINE
  8
0
 10
10.9631
 20
16.1478
 11
10.759
 21
16.0229
  0
LINE
  8
0
 10
10.759
 20
16.0229
 11
10.757
 21
16.0199
  0
LINE
  8
0
 10
10.757
 20
16.0199
 11
10.6839
 21
16.0687
  0
LINE
  8
0
 10
10.6839
 20
16.0687
 11
10.6859
 21
16.0717
  0
LINE
  8
0
 10
10.6859
 20
16.0717
 11
10.7232
 21
16.308
  0
LINE
  8
0
 10
10.7232
 20
16.308
 11
10.7554
 21
16.5609
  0
LINE
  8
0
 10
10.7554
 20
16.5609
 11
10.7816
 21
16.83
  0
LINE
  8
0
 10
10.7816
 20
16.83
 11
10.8008
 21
17.1154
  0
LINE
  8
0
 10
10.8008
 20
17.1154
 11
10.8121
 21
17.4169
  0
LINE
  8
0
 10
10.8121
 20
17.4169
 11
10.6099
 21
17.5408
  0
LINE
  8
0
 10
10.6099
 20
17.5408
 11
10.3465
 21
17.3938
  0
LINE
  8
0
 10
10.3465
 20
17.3938
 11
10.1009
 21
17.2471
  0
LINE
  8
0
 10
10.1009
 20
17.2471
 11
9.87299
 21
17.1016
  0
LINE
  8
0
 10
9.87299
 20
17.1016
 11
9.66234
 21
16.9581
  0
LINE
  8
0
 10
9.66234
 20
16.9581
 11
9.46869
 21
16.8176
  0
LINE
  8
0
 10
9.46869
 20
16.8176
 11
9.46689
 21
16.8145
  0
LINE
  8
0
 10
9.46689
 20
16.8145
 11
9.39023
 21
16.8574
  0
LINE
  8
0
 10
9.39023
 20
16.8574
 11
9.39201
 21
16.8606
  0
LINE
  8
0
 10
9.39201
 20
16.8606
 11
9.41063
 21
17.0991
  0
LINE
  8
0
 10
9.41063
 20
17.0991
 11
9.42288
 21
17.3537
  0
LINE
  8
0
 10
9.42288
 20
17.3537
 11
9.42787
 21
17.6241
  0
LINE
  8
0
 10
9.42787
 20
17.6241
 11
9.42465
 21
17.9101
  0
LINE
  8
0
 10
9.42465
 20
17.9101
 11
9.41229
 21
18.2115
  0
LINE
  8
0
 10
9.41229
 20
18.2115
 11
9.20099
 21
18.3192
  0
LINE
  8
0
 10
9.20099
 20
18.3192
 11
8.94989
 21
18.152
  0
LINE
  8
0
 10
8.94989
 20
18.152
 11
8.7166
 21
17.9865
  0
LINE
  8
0
 10
8.7166
 20
17.9865
 11
8.50078
 21
17.8235
  0
LINE
  8
0
 10
8.50078
 20
17.8235
 11
8.30203
 21
17.664
  0
LINE
  8
0
 10
8.30203
 20
17.664
 11
8.12001
 21
17.5087
  0
LINE
  8
0
 10
8.12001
 20
17.5087
 11
8.11847
 21
17.5054
  0
LINE
  8
0
 10
8.11847
 20
17.5054
 11
8.03867
 21
17.5422
  0
LINE
  8
0
 10
8.03867
 20
17.5422
 11
8.04019
 21
17.5455
  0
LINE
  8
0
 10
8.04019
 20
17.5455
 11
8.04004
 21
17.7847
  0
LINE
  8
0
 10
8.04004
 20
17.7847
 11
8.03229
 21
18.0395
  0
LINE
  8
0
 10
8.03229
 20
18.0395
 11
8.01604
 21
18.3094
  0
LINE
  8
0
 10
8.01604
 20
18.3094
 11
7.99039
 21
18.5943
  0
LINE
  8
0
 10
7.99039
 20
18.5943
 11
7.95442
 21
18.8938
  0
LINE
  8
0
 10
7.95442
 20
18.8938
 11
7.73532
 21
18.9846
  0
LINE
  8
0
 10
7.73532
 20
18.9846
 11
7.49811
 21
18.7982
  0
LINE
  8
0
 10
7.49811
 20
18.7982
 11
7.27853
 21
18.6149
  0
LINE
  8
0
 10
7.27853
 20
18.6149
 11
7.07616
 21
18.4355
  0
LINE
  8
0
 10
7.07616
 20
18.4355
 11
6.89055
 21
18.2609
  0
LINE
  8
0
 10
6.89055
 20
18.2609
 11
6.72125
 21
18.0918
  0
LINE
  8
0
 10
6.72125
 20
18.0918
 11
6.71997
 21
18.0884
  0
LINE
  8
0
 10
6.71997
 20
18.0884
 11
6.63756
 21
18.1188
  0
LINE
  8
0
 10
6.63756
 20
18.1188
 11
6.63881
 21
18.1222
  0
LINE
  8
0
 10
6.63881
 20
18.1222
 11
6.61987
 21
18.3607
  0
LINE
  8
0
 10
6.61987
 20
18.3607
 11
6.59216
 21
18.6141
  0
LINE
  8
0
 10
6.59216
 20
18.6141
 11
6.55479
 21
18.8819
  0
LINE
  8
0
 10
6.55479
 20
18.8819
 11
6.50687
 21
19.1639
  0
LINE
  8
0
 10
6.50687
 20
19.1639
 11
6.44751
 21
19.4597
  0
LINE
  8
0
 10
6.44751
 20
19.4597
 11
6.22195
 21
19.533
  0
LINE
  8
0
 10
6.22195
 20
19.533
 11
6.00011
 21
19.3286
  0
LINE
  8
0
 10
6.00011
 20
19.3286
 11
5.79558
 21
19.1286
  0
LINE
  8
0
 10
5.79558
 20
19.1286
 11
5.60789
 21
18.9339
  0
LINE
  8
0
 10
5.60789
 20
18.9339
 11
5.43657
 21
18.7452
  0
LINE
  8
0
 10
5.43657
 20
18.7452
 11
5.28107
 21
18.5634
  0
LINE
  8
0
 10
5.28107
 20
18.5634
 11
5.28006
 21
18.5599
  0
LINE
  8
0
 10
5.28006
 20
18.5599
 11
5.1955
 21
18.5837
  0
LINE
  8
0
 10
5.1955
 20
18.5837
 11
5.19649
 21
18.5872
  0
LINE
  8
0
 10
5.19649
 20
18.5872
 11
5.15891
 21
18.8235
  0
LINE
  8
0
 10
5.15891
 20
18.8235
 11
5.11139
 21
19.0739
  0
LINE
  8
0
 10
5.11139
 20
19.0739
 11
5.05312
 21
19.338
  0
LINE
  8
0
 10
5.05312
 20
19.338
 11
4.98322
 21
19.6154
  0
LINE
  8
0
 10
4.98322
 20
19.6154
 11
4.90083
 21
19.9055
  0
LINE
  8
0
 10
4.90083
 20
19.9055
 11
4.67024
 21
19.9609
  0
LINE
  8
0
 10
4.67024
 20
19.9609
 11
4.4651
 21
19.7398
  0
LINE
  8
0
 10
4.4651
 20
19.7398
 11
4.2769
 21
19.5244
  0
LINE
  8
0
 10
4.2769
 20
19.5244
 11
4.10507
 21
19.3155
  0
LINE
  8
0
 10
4.10507
 20
19.3155
 11
3.94908
 21
19.114
  0
LINE
  8
0
 10
3.94908
 20
19.114
 11
3.80832
 21
18.9205
  0
LINE
  8
0
 10
3.80832
 20
18.9205
 11
3.8076
 21
18.9169
  0
LINE
  8
0
 10
3.8076
 20
18.9169
 11
3.72142
 21
18.9341
  0
LINE
  8
0
 10
3.72142
 20
18.9341
 11
3.72212
 21
18.9377
  0
LINE
  8
0
 10
3.72212
 20
18.9377
 11
3.66612
 21
19.1703
  0
LINE
  8
0
 10
3.66612
 20
19.1703
 11
3.59912
 21
19.4162
  0
LINE
  8
0
 10
3.59912
 20
19.4162
 11
3.52029
 21
19.6749
  0
LINE
  8
0
 10
3.52029
 20
19.6749
 11
3.42885
 21
19.9459
  0
LINE
  8
0
 10
3.42885
 20
19.9459
 11
3.32396
 21
20.2287
  0
LINE
  8
0
 10
3.32396
 20
20.2287
 11
3.08972
 21
20.2658
  0
LINE
  8
0
 10
3.08972
 20
20.2658
 11
2.90257
 21
20.0293
  0
LINE
  8
0
 10
2.90257
 20
20.0293
 11
2.73186
 21
19.7997
  0
LINE
  8
0
 10
2.73186
 20
19.7997
 11
2.57695
 21
19.578
  0
LINE
  8
0
 10
2.57695
 20
19.578
 11
2.43724
 21
19.3649
  0
LINE
  8
0
 10
2.43724
 20
19.3649
 11
2.31209
 21
19.161
  0
LINE
  8
0
 10
2.31209
 20
19.161
 11
2.31165
 21
19.1574
  0
LINE
  8
0
 10
2.31165
 20
19.1574
 11
2.2244
 21
19.1677
  0
LINE
  8
0
 10
2.2244
 20
19.1677
 11
2.22482
 21
19.1713
  0
LINE
  8
0
 10
2.22482
 20
19.1713
 11
2.15074
 21
19.3988
  0
LINE
  8
0
 10
2.15074
 20
19.3988
 11
2.06465
 21
19.6387
  0
LINE
  8
0
 10
2.06465
 20
19.6387
 11
1.96577
 21
19.8904
  0
LINE
  8
0
 10
1.96577
 20
19.8904
 11
1.85335
 21
20.1534
  0
LINE
  8
0
 10
1.85335
 20
20.1534
 11
1.72659
 21
20.4271
  0
LINE
  8
0
 10
1.72659
 20
20.4271
 11
1.49017
 21
20.4458
  0
LINE
  8
0
 10
1.49017
 20
20.4458
 11
1.32214
 21
20.1952
  0
LINE
  8
0
 10
1.32214
 20
20.1952
 11
1.16995
 21
19.953
  0
LINE
  8
0
 10
1.16995
 20
19.953
 11
1.03293
 21
19.7199
  0
LINE
  8
0
 10
1.03293
 20
19.7199
 11
0.91037
 21
19.4964
  0
LINE
  8
0
 10
0.91037
 20
19.4964
 11
0.801605
 21
19.2833
  0
LINE
  8
0
 10
0.801605
 20
19.2833
 11
0.801453
 21
19.2797
  0
LINE
  8
0
 10
0.801453
 20
19.2797
 11
0.713669
 21
19.2831
  0
LINE
  8
0
 10
0.713669
 20
19.2831
 11
0.713806
 21
19.2868
  0
LINE
  8
0
 10
0.713806
 20
19.2868
 11
0.622101
 21
19.5078
  0
LINE
  8
0
 10
0.622101
 20
19.5078
 11
0.517456
 21
19.7401
  0
LINE
  8
0
 10
0.517456
 20
19.7401
 11
0.399139
 21
19.9833
  0
LINE
  8
0
 10
0.399139
 20
19.9833
 11
0.266418
 21
20.2367
  0
LINE
  8
0
 10
0.266418
 20
20.2367
 11
0.118576
 21
20.4996
  0
LINE
  8
0
 10
0.118576
 20
20.4996
 11
-0.118561
 21
20.4996
  0
LINE
  8
0
 10
-0.118561
 20
20.4996
 11
-0.266403
 21
20.2367
  0
LINE
  8
0
 10
-0.266403
 20
20.2367
 11
-0.399124
 21
19.9833
  0
LINE
  8
0
 10
-0.399124
 20
19.9833
 11
-0.517441
 21
19.7401
  0
LINE
  8
0
 10
-0.517441
 20
19.7401
 11
-0.622086
 21
19.5078
  0
LINE
  8
0
 10
-0.622086
 20
19.5078
 11
-0.713791
 21
19.2868
  0
LINE
  8
0
 10
-0.713791
 20
19.2868
 11
-0.713654
 21
19.2831
  0
LINE
  8
0
 10
-0.713654
 20
19.2831
 11
-0.801453
 21
19.2797
  0
LINE
  8
0
 10
-0.801453
 20
19.2797
 11
-0.801605
 21
19.2833
  0
LINE
  8
0
 10
-0.801605
 20
19.2833
 11
-0.91037
 21
19.4964
  0
LINE
  8
0
 10
-0.91037
 20
19.4964
 11
-1.03293
 21
19.7199
  0
LINE
  8
0
 10
-1.03293
 20
19.7199
 11
-1.16995
 21
19.953
  0
LINE
  8
0
 10
-1.16995
 20
19.953
 11
-1.32214
 21
20.1952
  0
LINE
  8
0
 10
-1.32214
 20
20.1952
 11
-1.49017
 21
20.4458
  0
LINE
  8
0
 10
-1.49017
 20
20.4458
 11
-1.72659
 21
20.4271
  0
LINE
  8
0
 10
-1.72659
 20
20.4271
 11
-1.85335
 21
20.1534
  0
LINE
  8
0
 10
-1.85335
 20
20.1534
 11
-1.96577
 21
19.8904
  0
LINE
  8
0
 10
-1.96577
 20
19.8904
 11
-2.06465
 21
19.6387
  0
LINE
  8
0
 10
-2.06465
 20
19.6387
 11
-2.15074
 21
19.3988
  0
LINE
  8
0
 10
-2.15074
 20
19.3988
 11
-2.22482
 21
19.1713
  0
LINE
  8
0
 10
-2.22482
 20
19.1713
 11
-2.2244
 21
19.1677
  0
LINE
  8
0
 10
-2.2244
 20
19.1677
 11
-2.31165
 21
19.1574
  0
LINE
  8
0
 10
-2.31165
 20
19.1574
 11
-2.31209
 21
19.161
  0
LINE
  8
0
 10
-2.31209
 20
19.161
 11
-2.43724
 21
19.3649
  0
LINE
  8
0
 10
-2.43724
 20
19.3649
 11
-2.57695
 21
19.578
  0
LINE
  8
0
 10
-2.57695
 20
19.578
 11
-2.73186
 21
19.7997
  0
LINE
  8
0
 10
-2.73186
 20
19.7997
 11
-2.90257
 21
20.0293
  0
LINE
  8
0
 10
-2.90257
 20
20.0293
 11
-3.08972
 21
20.2658
  0
LINE
  8
0
 10
-3.08972
 20
20.2658
 11
-3.32396
 21
20.2287
  0
LINE
  8
0
 10
-3.32396
 20
20.2287
 11
-3.42885
 21
19.9459
  0
LINE
  8
0
 10
-3.42885
 20
19.9459
 11
-3.52029
 21
19.6749
  0
LINE
  8
0
 10
-3.52029
 20
19.6749
 11
-3.59912
 21
19.4162
  0
LINE
  8
0
 10
-3.59912
 20
19.4162
 11
-3.66612
 21
19.1703
  0
LINE
  8
0
 10
-3.66612
 20
19.1703
 11
-3.72212
 21
18.9377
  0
LINE
  8
0
 10
-3.72212
 20
18.9377
 11
-3.72142
 21
18.9341
  0
LINE
  8
0
 10
-3.72142
 20
18.9341
 11
-3.8076
 21
18.9169
  0
LINE
  8
0
 10
-3.8076
 20
18.9169
 11
-3.80832
 21
18.9205
  0
LINE
  8
0
 10
-3.80832
 20
18.9205
 11
-3.94908
 21
19.114
  0
LINE
  8
0
 10
-3.94908
 20
19.114
 11
-4.10507
 21
19.3155
  0
LINE
  8
0
 10
-4.10507
 20
19.3155
 11
-4.2769
 21
19.5244
  0
LINE
  8
0
 10
-4.2769
 20
19.5244
 11
-4.4651
 21
19.7398
  0
LINE
  8
0
 10
-4.4651
 20
19.7398
 11
-4.67024
 21
19.9609
  0
LINE
  8
0
 10
-4.67024
 20
19.9609
 11
-4.90083
 21
19.9055
  0
LINE
  8
0
 10
-4.90083
 20
19.9055
 11
-4.98322
 21
19.6154
  0
LINE
  8
0
 10
-4.98322
 20
19.6154
 11
-5.05312
 21
19.338
  0
LINE
  8
0
 10
-5.05312
 20
19.338
 11
-5.11139
 21
19.0739
  0
LINE
  8
0
 10
-5.11139
 20
19.0739
 11
-5.15891
 21
18.8235
  0
LINE
  8
0
 10
-5.15891
 20
18.8235
 11
-5.19649
 21
18.5872
  0
LINE
  8
0
 10
-5.19649
 20
18.5872
 11
-5.1955
 21
18.5837
  0
LINE
  8
0
 10
-5.1955
 20
18.5837
 11
-5.28006
 21
18.5599
  0
LINE
  8
0
 10
-5.28006
 20
18.5599
 11
-5.28107
 21
18.5634
  0
LINE
  8
0
 10
-5.28107
 20
18.5634
 11
-5.43657
 21
18.7452
  0
LINE
  8
0
 10
-5.43657
 20
18.7452
 11
-5.60789
 21
18.9339
  0
LINE
  8
0
 10
-5.60789
 20
18.9339
 11
-5.79558
 21
19.1286
  0
LINE
  8
0
 10
-5.79558
 20
19.1286
 11
-6.00011
 21
19.3286
  0
LINE
  8
0
 10
-6.00011
 20
19.3286
 11
-6.22195
 21
19.533
  0
LINE
  8
0
 10
-6.22195
 20
19.533
 11
-6.44751
 21
19.4597
  0
LINE
  8
0
 10
-6.44751
 20
19.4597
 11
-6.50687
 21
19.1639
  0
LINE
  8
0
 10
-6.50687
 20
19.1639
 11
-6.55479
 21
18.8819
  0
LINE
  8
0
 10
-6.55479
 20
18.8819
 11
-6.59216
 21
18.6141
  0
LINE
  8
0
 10
-6.59216
 20
18.6141
 11
-6.61987
 21
18.3607
  0
LINE
  8
0
 10
-6.61987
 20
18.3607
 11
-6.63881
 21
18.1222
  0
LINE
  8
0
 10
-6.63881
 20
18.1222
 11
-6.63756
 21
18.1188
  0
LINE
  8
0
 10
-6.63756
 20
18.1188
 11
-6.71997
 21
18.0884
  0
LINE
  8
0
 10
-6.71997
 20
18.0884
 11
-6.72125
 21
18.0918
  0
LINE
  8
0
 10
-6.72125
 20
18.0918
 11
-6.89055
 21
18.2609
  0
LINE
  8
0
 10
-6.89055
 20
18.2609
 11
-7.07616
 21
18.4355
  0
LINE
  8
0
 10
-7.07616
 20
18.4355
 11
-7.27853
 21
18.6149
  0
LINE
  8
0
 10
-7.27853
 20
18.6149
 11
-7.49811
 21
18.7982
  0
LINE
  8
0
 10
-7.49811
 20
18.7982
 11
-7.73532
 21
18.9846
  0
LINE
  8
0
 10
-7.73532
 20
18.9846
 11
-7.95442
 21
18.8938
  0
LINE
  8
0
 10
-7.95442
 20
18.8938
 11
-7.99039
 21
18.5943
  0
LINE
  8
0
 10
-7.99039
 20
18.5943
 11
-8.01604
 21
18.3094
  0
LINE
  8
0
 10
-8.01604
 20
18.3094
 11
-8.03229
 21
18.0395
  0
LINE
  8
0
 10
-8.03229
 20
18.0395
 11
-8.04004
 21
17.7847
  0
LINE
  8
0
 10
-8.04004
 20
17.7847
 11
-8.04019
 21
17.5455
  0
LINE
  8
0
 10
-8.04019
 20
17.5455
 11
-8.03867
 21
17.5422
  0
LINE
  8
0
 10
-8.03867
 20
17.5422
 11
-8.11847
 21
17.5054
  0
LINE
  8
0
 10
-8.11847
 20
17.5054
 11
-8.12001
 21
17.5087
  0
LINE
  8
0
 10
-8.12001
 20
17.5087
 11
-8.30203
 21
17.664
  0
LINE
  8
0
 10
-8.30203
 20
17.664
 11
-8.50078
 21
17.8235
  0
LINE
  8
0
 10
-8.50078
 20
17.8235
 11
-8.7166
 21
17.9865
  0
LINE
  8
0
 10
-8.7166
 20
17.9865
 11
-8.94989
 21
18.152
  0
LINE
  8
0
 10
-8.94989
 20
18.152
 11
-9.20099
 21
18.3192
  0
LINE
  8
0
 10
-9.20099
 20
18.3192
 11
-9.41229
 21
18.2115
  0
LINE
  8
0
 10
-9.41229
 20
18.2115
 11
-9.42465
 21
17.9101
  0
LINE
  8
0
 10
-9.42465
 20
17.9101
 11
-9.42787
 21
17.6241
  0
LINE
  8
0
 10
-9.42787
 20
17.6241
 11
-9.42288
 21
17.3537
  0
LINE
  8
0
 10
-9.42288
 20
17.3537
 11
-9.41063
 21
17.0991
  0
LINE
  8
0
 10
-9.41063
 20
17.0991
 11
-9.39201
 21
16.8606
  0
LINE
  8
0
 10
-9.39201
 20
16.8606
 11
-9.39023
 21
16.8574
  0
LINE
  8
0
 10
-9.39023
 20
16.8574
 11
-9.46689
 21
16.8145
  0
LINE
  8
0
 10
-9.46689
 20
16.8145
 11
-9.46869
 21
16.8176
  0
LINE
  8
0
 10
-9.46869
 20
16.8176
 11
-9.66234
 21
16.9581
  0
LINE
  8
0
 10
-9.66234
 20
16.9581
 11
-9.87299
 21
17.1016
  0
LINE
  8
0
 10
-9.87299
 20
17.1016
 11
-10.1009
 21
17.2471
  0
LINE
  8
0
 10
-10.1009
 20
17.2471
 11
-10.3465
 21
17.3938
  0
LINE
  8
0
 10
-10.3465
 20
17.3938
 11
-10.6099
 21
17.5408
  0
LINE
  8
0
 10
-10.6099
 20
17.5408
 11
-10.8121
 21
17.4169
  0
LINE
  8
0
 10
-10.8121
 20
17.4169
 11
-10.8008
 21
17.1154
  0
LINE
  8
0
 10
-10.8008
 20
17.1154
 11
-10.7816
 21
16.83
  0
LINE
  8
0
 10
-10.7816
 20
16.83
 11
-10.7554
 21
16.5609
  0
LINE
  8
0
 10
-10.7554
 20
16.5609
 11
-10.7232
 21
16.308
  0
LINE
  8
0
 10
-10.7232
 20
16.308
 11
-10.6859
 21
16.0717
  0
LINE
  8
0
 10
-10.6859
 20
16.0717
 11
-10.6839
 21
16.0687
  0
LINE
  8
0
 10
-10.6839
 20
16.0687
 11
-10.757
 21
16.0199
  0
LINE
  8
0
 10
-10.757
 20
16.0199
 11
-10.759
 21
16.0229
  0
LINE
  8
0
 10
-10.759
 20
16.0229
 11
-10.9631
 21
16.1478
  0
LINE
  8
0
 10
-10.9631
 20
16.1478
 11
-11.1843
 21
16.2743
  0
LINE
  8
0
 10
-11.1843
 20
16.2743
 11
-11.423
 21
16.4015
  0
LINE
  8
0
 10
-11.423
 20
16.4015
 11
-11.6793
 21
16.5284
  0
LINE
  8
0
 10
-11.6793
 20
16.5284
 11
-11.9535
 21
16.6543
  0
LINE
  8
0
 10
-11.9535
 20
16.6543
 11
-12.1453
 21
16.5149
  0
LINE
  8
0
 10
-12.1453
 20
16.5149
 11
-12.1104
 21
16.2153
  0
LINE
  8
0
 10
-12.1104
 20
16.2153
 11
-12.0688
 21
15.9323
  0
LINE
  8
0
 10
-12.0688
 20
15.9323
 11
-12.0216
 21
15.666
  0
LINE
  8
0
 10
-12.0216
 20
15.666
 11
-11.9697
 21
15.4164
  0
LINE
  8
0
 10
-11.9697
 20
15.4164
 11
-11.914
 21
15.1838
  0
LINE
  8
0
 10
-11.914
 20
15.1838
 11
-11.9117
 21
15.1809
  0
LINE
  8
0
 10
-11.9117
 20
15.1809
 11
-11.9807
 21
15.1265
  0
LINE
  8
0
 10
-11.9807
 20
15.1265
 11
-11.983
 21
15.1294
  0
LINE
  8
0
 10
-11.983
 20
15.1294
 11
-12.1962
 21
15.2378
  0
LINE
  8
0
 10
-12.1962
 20
15.2378
 11
-12.4267
 21
15.3466
  0
LINE
  8
0
 10
-12.4267
 20
15.3466
 11
-12.6746
 21
15.4547
  0
LINE
  8
0
 10
-12.6746
 20
15.4547
 11
-12.9401
 21
15.5611
  0
LINE
  8
0
 10
-12.9401
 20
15.5611
 11
-13.2233
 21
15.6651
  0
LINE
  8
0
 10
-13.2233
 20
15.6651
 11
-13.4036
 21
15.511
  0
LINE
  8
0
 10
-13.4036
 20
15.511
 11
-13.3453
 21
15.2151
  0
LINE
  8
0
 10
-13.3453
 20
15.2151
 11
-13.2816
 21
14.9362
  0
LINE
  8
0
 10
-13.2816
 20
14.9362
 11
-13.2137
 21
14.6745
  0
LINE
  8
0
 10
-13.2137
 20
14.6745
 11
-13.1423
 21
14.4298
  0
LINE
  8
0
 10
-13.1423
 20
14.4298
 11
-13.0685
 21
14.2022
  0
LINE
  8
0
 10
-13.0685
 20
14.2022
 11
-13.0661
 21
14.1995
  0
LINE
  8
0
 10
-13.0661
 20
14.1995
 11
-13.1306
 21
14.1399
  0
LINE
  8
0
 10
-13.1306
 20
14.1399
 11
-13.1331
 21
14.1425
  0
LINE
  8
0
 10
-13.1331
 20
14.1425
 11
-13.3542
 21
14.234
  0
LINE
  8
0
 10
-13.3542
 20
14.234
 11
-13.5925
 21
14.3243
  0
LINE
  8
0
 10
-13.5925
 20
14.3243
 11
-13.8481
 21
14.4126
  0
LINE
  8
0
 10
-13.8481
 20
14.4126
 11
-14.1211
 21
14.4979
  0
LINE
  8
0
 10
-14.1211
 20
14.4979
 11
-14.4116
 21
14.5793
  0
LINE
  8
0
 10
-14.4116
 20
14.5793
 11
-14.5793
 21
14.4116
  0
LINE
  8
0
 10
-14.5793
 20
14.4116
 11
-14.4979
 21
14.1211
  0
LINE
  8
0
 10
-14.4979
 20
14.1211
 11
-14.4126
 21
13.8481
  0
LINE
  8
0
 10
-14.4126
 20
13.8481
 11
-14.3243
 21
13.5925
  0
LINE
  8
0
 10
-14.3243
 20
13.5925
 11
-14.234
 21
13.3542
  0
LINE
  8
0
 10
-14.234
 20
13.3542
 11
-14.1425
 21
13.1331
  0
LINE
  8
0
 10
-14.1425
 20
13.1331
 11
-14.1399
 21
13.1306
  0
LINE
  8
0
 10
-14.1399
 20
13.1306
 11
-14.1995
 21
13.0661
  0
LINE
  8
0
 10
-14.1995
 20
13.0661
 11
-14.2022
 21
13.0685
  0
LINE
  8
0
 10
-14.2022
 20
13.0685
 11
-14.4298
 21
13.1423
  0
LINE
  8
0
 10
-14.4298
 20
13.1423
 11
-14.6745
 21
13.2137
  0
LINE
  8
0
 10
-14.6745
 20
13.2137
 11
-14.9362
 21
13.2816
  0
LINE
  8
0
 10
-14.9362
 20
13.2816
 11
-15.2151
 21
13.3453
  0
LINE
  8
0
 10
-15.2151
 20
13.3453
 11
-15.511
 21
13.4036
  0
LINE
  8
0
 10
-15.511
 20
13.4036
 11
-15.6651
 21
13.2233
  0
LINE
  8
0
 10
-15.6651
 20
13.2233
 11
-15.5611
 21
12.9401
  0
LINE
  8
0
 10
-15.5611
 20
12.9401
 11
-15.4547
 21
12.6746
  0
LINE
  8
0
 10
-15.4547
 20
12.6746
 11
-15.3466
 21
12.4267
  0
LINE
  8
0
 10
-15.3466
 20
12.4267
 11
-15.2378
 21
12.1962
  0
LINE
  8
0
 10
-15.2378
 20
12.1962
 11
-15.1294
 21
11.983
  0
LINE
  8
0
 10
-15.1294
 20
11.983
 11
-15.1265
 21
11.9807
  0
LINE
  8
0
 10
-15.1265
 20
11.9807
 11
-15.1809
 21
11.9117
  0
LINE
  8
0
 10
-15.1809
 20
11.9117
 11
-15.1838
 21
11.914
  0
LINE
  8
0
 10
-15.1838
 20
11.914
 11
-15.4164
 21
11.9697
  0
LINE
  8
0
 10
-15.4164
 20
11.9697
 11
-15.666
 21
12.0216
  0
LINE
  8
0
 10
-15.666
 20
12.0216
 11
-15.9323
 21
12.0688
  0
LINE
  8
0
 10
-15.9323
 20
12.0688
 11
-16.2153
 21
12.1104
  0
LINE
  8
0
 10
-16.2153
 20
12.1104
 11
-16.5149
 21
12.1453
  0
LINE
  8
0
 10
-16.5149
 20
12.1453
 11
-16.6543
 21
11.9535
  0
LINE
  8
0
 10
-16.6543
 20
11.9535
 11
-16.5284
 21
11.6793
  0
LINE
  8
0
 10
-16.5284
 20
11.6793
 11
-16.4015
 21
11.423
  0
LINE
  8
0
 10
-16.4015
 20
11.423
 11
-16.2743
 21
11.1843
  0
LINE
  8
0
 10
-16.2743
 20
11.1843
 11
-16.1478
 21
10.9631
  0
LINE
  8
0
 10
-16.1478
 20
10.9631
 11
-16.0229
 21
10.759
  0
LINE
  8
0
 10
-16.0229
 20
10.759
 11
-16.0199
 21
10.757
  0
LINE
  8
0
 10
-16.0199
 20
10.757
 11
-16.0687
 21
10.6839
  0
LINE
  8
0
 10
-16.0687
 20
10.6839
 11
-16.0717
 21
10.6859
  0
LINE
  8
0
 10
-16.0717
 20
10.6859
 11
-16.308
 21
10.7232
  0
LINE
  8
0
 10
-16.308
 20
10.7232
 11
-16.5609
 21
10.7554
  0
LINE
  8
0
 10
-16.5609
 20
10.7554
 11
-16.83
 21
10.7816
  0
LINE
  8
0
 10
-16.83
 20
10.7816
 11
-17.1154
 21
10.8008
  0
LINE
  8
0
 10
-17.1154
 20
10.8008
 11
-17.4169
 21
10.8121
  0
LINE
  8
0
 10
-17.4169
 20
10.8121
 11
-17.5408
 21
10.6099
  0
LINE
  8
0
 10
-17.5408
 20
10.6099
 11
-17.3938
 21
10.3465
  0
LINE
  8
0
 10
-17.3938
 20
10.3465
 11
-17.2471
 21
10.1009
  0
LINE
  8
0
 10
-17.2471
 20
10.1009
 11
-17.1016
 21
9.87299
  0
LINE
  8
0
 10
-17.1016
 20
9.87299
 11
-16.9581
 21
9.66234
  0
LINE
  8
0
 10
-16.9581
 20
9.66234
 11
-16.8176
 21
9.46869
  0
LINE
  8
0
 10
-16.8176
 20
9.46869
 11
-16.8145
 21
9.46689
  0
LINE
  8
0
 10
-16.8145
 20
9.46689
 11
-16.8574
 21
9.39023
  0
LINE
  8
0
 10
-16.8574
 20
9.39023
 11
-16.8606
 21
9.39201
  0
LINE
  8
0
 10
-16.8606
 20
9.39201
 11
-17.0991
 21
9.41063
  0
LINE
  8
0
 10
-17.0991
 20
9.41063
 11
-17.3537
 21
9.42288
  0
LINE
  8
0
 10
-17.3537
 20
9.42288
 11
-17.6241
 21
9.42787
  0
LINE
  8
0
 10
-17.6241
 20
9.42787
 11
-17.9101
 21
9.42465
  0
LINE
  8
0
 10
-17.9101
 20
9.42465
 11
-18.2115
 21
9.41229
  0
LINE
  8
0
 10
-18.2115
 20
9.41229
 11
-18.3192
 21
9.20099
  0
LINE
  8
0
 10
-18.3192
 20
9.20099
 11
-18.152
 21
8.94989
  0
LINE
  8
0
 10
-18.152
 20
8.94989
 11
-17.9865
 21
8.7166
  0
LINE
  8
0
 10
-17.9865
 20
8.7166
 11
-17.8235
 21
8.50078
  0
LINE
  8
0
 10
-17.8235
 20
8.50078
 11
-17.664
 21
8.30203
  0
LINE
  8
0
 10
-17.664
 20
8.30203
 11
-17.5087
 21
8.12001
  0
LINE
  8
0
 10
-17.5087
 20
8.12001
 11
-17.5054
 21
8.11847
  0
LINE
  8
0
 10
-17.5054
 20
8.11847
 11
-17.5422
 21
8.03867
  0
LINE
  8
0
 10
-17.5422
 20
8.03867
 11
-17.5455
 21
8.04019
  0
LINE
  8
0
 10
-17.5455
 20
8.04019
 11
-17.7847
 21
8.04004
  0
LINE
  8
0
 10
-17.7847
 20
8.04004
 11
-18.0395
 21
8.03229
  0
LINE
  8
0
 10
-18.0395
 20
8.03229
 11
-18.3094
 21
8.01604
  0
LINE
  8
0
 10
-18.3094
 20
8.01604
 11
-18.5943
 21
7.99039
  0
LINE
  8
0
 10
-18.5943
 20
7.99039
 11
-18.8938
 21
7.95442
  0
LINE
  8
0
 10
-18.8938
 20
7.95442
 11
-18.9846
 21
7.73532
  0
LINE
  8
0
 10
-18.9846
 20
7.73532
 11
-18.7982
 21
7.49811
  0
LINE
  8
0
 10
-18.7982
 20
7.49811
 11
-18.6149
 21
7.27853
  0
LINE
  8
0
 10
-18.6149
 20
7.27853
 11
-18.4355
 21
7.07616
  0
LINE
  8
0
 10
-18.4355
 20
7.07616
 11
-18.2609
 21
6.89055
  0
LINE
  8
0
 10
-18.2609
 20
6.89055
 11
-18.0918
 21
6.72125
  0
LINE
  8
0
 10
-18.0918
 20
6.72125
 11
-18.0884
 21
6.71997
  0
LINE
  8
0
 10
-18.0884
 20
6.71997
 11
-18.1188
 21
6.63756
  0
LINE
  8
0
 10
-18.1188
 20
6.63756
 11
-18.1222
 21
6.63881
  0
LINE
  8
0
 10
-18.1222
 20
6.63881
 11
-18.3607
 21
6.61987
  0
LINE
  8
0
 10
-18.3607
 20
6.61987
 11
-18.6141
 21
6.59216
  0
LINE
  8
0
 10
-18.6141
 20
6.59216
 11
-18.8819
 21
6.55479
  0
LINE
  8
0
 10
-18.8819
 20
6.55479
 11
-19.1639
 21
6.50687
  0
LINE
  8
0
 10
-19.1639
 20
6.50687
 11
-19.4597
 21
6.44751
  0
LINE
  8
0
 10
-19.4597
 20
6.44751
 11
-19.533
 21
6.22195
  0
LINE
  8
0
 10
-19.533
 20
6.22195
 11
-19.3286
 21
6.00011
  0
LINE
  8
0
 10
-19.3286
 20
6.00011
 11
-19.1286
 21
5.79558
  0
LINE
  8
0
 10
-19.1286
 20
5.79558
 11
-18.9339
 21
5.60789
  0
LINE
  8
0
 10
-18.9339
 20
5.60789
 11
-18.7452
 21
5.43657
  0
LINE
  8
0
 10
-18.7452
 20
5.43657
 11
-18.5634
 21
5.28107
  0
LINE
  8
0
 10
-18.5634
 20
5.28107
 11
-18.5599
 21
5.28006
  0
LINE
  8
0
 10
-18.5599
 20
5.28006
 11
-18.5837
 21
5.1955
  0
LINE
  8
0
 10
-18.5837
 20
5.1955
 11
-18.5872
 21
5.19649
  0
LINE
  8
0
 10
-18.5872
 20
5.19649
 11
-18.8235
 21
5.15891
  0
LINE
  8
0
 10
-18.8235
 20
5.15891
 11
-19.0739
 21
5.11139
  0
LINE
  8
0
 10
-19.0739
 20
5.11139
 11
-19.338
 21
5.05312
  0
LINE
  8
0
 10
-19.338
 20
5.05312
 11
-19.6154
 21
4.98322
  0
LINE
  8
0
 10
-19.6154
 20
4.98322
 11
-19.9055
 21
4.90083
  0
LINE
  8
0
 10
-19.9055
 20
4.90083
 11
-19.9609
 21
4.67024
  0
LINE
  8
0
 10
-19.9609
 20
4.67024
 11
-19.7398
 21
4.4651
  0
LINE
  8
0
 10
-19.7398
 20
4.4651
 11
-19.5244
 21
4.2769
  0
LINE
  8
0
 10
-19.5244
 20
4.2769
 11
-19.3155
 21
4.10507
  0
LINE
  8
0
 10
-19.3155
 20
4.10507
 11
-19.114
 21
3.94908
  0
LINE
  8
0
 10
-19.114
 20
3.94908
 11
-18.9205
 21
3.80832
  0
LINE
  8
0
 10
-18.9205
 20
3.80832
 11
-18.9169
 21
3.8076
  0
LINE
  8
0
 10
-18.9169
 20
3.8076
 11
-18.9341
 21
3.72142
  0
LINE
  8
0
 10
-18.9341
 20
3.72142
 11
-18.9377
 21
3.72212
  0
LINE
  8
0
 10
-18.9377
 20
3.72212
 11
-19.1703
 21
3.66612
  0
LINE
  8
0
 10
-19.1703
 20
3.66612
 11
-19.4162
 21
3.59912
  0
LINE
  8
0
 10
-19.4162
 20
3.59912
 11
-19.6749
 21
3.52029
  0
LINE
  8
0
 10
-19.6749
 20
3.52029
 11
-19.9459
 21
3.42885
  0
LINE
  8
0
 10
-19.9459
 20
3.42885
 11
-20.2287
 21
3.32396
  0
LINE
  8
0
 10
-20.2287
 20
3.32396
 11
-20.2658
 21
3.08972
  0
LINE
  8
0
 10
-20.2658
 20
3.08972
 11
-20.0293
 21
2.90257
  0
LINE
  8
0
 10
-20.0293
 20
2.90257
 11
-19.7997
 21
2.73186
  0
LINE
  8
0
 10
-19.7997
 20
2.73186
 11
-19.578
 21
2.57695
  0
LINE
  8
0
 10
-19.578
 20
2.57695
 11
-19.3649
 21
2.43724
  0
LINE
  8
0
 10
-19.3649
 20
2.43724
 11
-19.161
 21
2.31209
  0
LINE
  8
0
 10
-19.161
 20
2.31209
 11
-19.1574
 21
2.31165
  0
LINE
  8
0
 10
-19.1574
 20
2.31165
 11
-19.1677
 21
2.2244
  0
LINE
  8
0
 10
-19.1677
 20
2.2244
 11
-19.1713
 21
2.22482
  0
LINE
  8
0
 10
-19.1713
 20
2.22482
 11
-19.3988
 21
2.15074
  0
LINE
  8
0
 10
-19.3988
 20
2.15074
 11
-19.6387
 21
2.06465
  0
LINE
  8
0
 10
-19.6387
 20
2.06465
 11
-19.8904
 21
1.96577
  0
LINE
  8
0
 10
-19.8904
 20
1.96577
 11
-20.1534
 21
1.85335
  0
LINE
  8
0
 10
-20.1534
 20
1.85335
 11
-20.4271
 21
1.72659
  0
LINE
  8
0
 10
-20.4271
 20
1.72659
 11
-20.4458
 21
1.49017
  0
LINE
  8
0
 10
-20.4458
 20
1.49017
 11
-20.1952
 21
1.32214
  0
LINE
  8
0
 10
-20.1952
 20
1.32214
 11
-19.953
 21
1.16995
  0
LINE
  8
0
 10
-19.953
 20
1.16995
 11
-19.7199
 21
1.03293
  0
LINE
  8
0
 10
-19.7199
 20
1.03293
 11
-19.4964
 21
0.91037
  0
LINE
  8
0
 10
-19.4964
 20
0.91037
 11
-19.2833
 21
0.801605
  0
LINE
  8
0
 10
-19.2833
 20
0.801605
 11
-19.2797
 21
0.801453
  0
LINE
  8
0
 10
-19.2797
 20
0.801453
 11
-19.2831
 21
0.713669
  0
LINE
  8
0
 10
-19.2831
 20
0.713669
 11
-19.2868
 21
0.713806
  0
LINE
  8
0
 10
-19.2868
 20
0.713806
 11
-19.5078
 21
0.622101
  0
LINE
  8
0
 10
-19.5078
 20
0.622101
 11
-19.7401
 21
0.517456
  0
LINE
  8
0
 10
-19.7401
 20
0.517456
 11
-19.9833
 21
0.399139
  0
LINE
  8
0
 10
-19.9833
 20
0.399139
 11
-20.2367
 21
0.266418
  0
LINE
  8
0
 10
-20.2367
 20
0.266418
 11
-20.4996
 21
0.118576
  0
LINE
  8
0
 10
-20.4996
 20
0.118576
 11
-20.4996
 21
-0.118561
  0
LINE
  8
0
 10
-20.4996
 20
-0.118561
 11
-20.2367
 21
-0.266403
  0
LINE
  8
0
 10
-20.2367
 20
-0.266403
 11
-19.9833
 21
-0.399124
  0
LINE
  8
0
 10
-19.9833
 20
-0.399124
 11
-19.7401
 21
-0.517441
  0
LINE
  8
0
 10
-19.7401
 20
-0.517441
 11
-19.5078
 21
-0.622086
  0
LINE
  8
0
 10
-19.5078
 20
-0.622086
 11
-19.2868
 21
-0.713791
  0
LINE
  8
0
 10
-19.2868
 20
-0.713791
 11
-19.2831
 21
-0.713654
  0
LINE
  8
0
 10
-19.2831
 20
-0.713654
 11
-19.2797
 21
-0.801453
  0
LINE
  8
0
 10
-19.2797
 20
-0.801453
 11
-19.2833
 21
-0.801605
  0
LINE
  8
0
 10
-19.2833
 20
-0.801605
 11
-19.4964
 21
-0.91037
  0
LINE
  8
0
 10
-19.4964
 20
-0.91037
 11
-19.7199
 21
-1.03293
  0
LINE
  8
0
 10
-19.7199
 20
-1.03293
 11
-19.953
 21
-1.16995
  0
LINE
  8
0
 10
-19.953
 20
-1.16995
 11
-20.1952
 21
-1.32214
  0
LINE
  8
0
 10
-20.1952
 20
-1.32214
 11
-20.4458
 21
-1.49017
  0
LINE
  8
0
 10
-20.4458
 20
-1.49017
 11
-20.4271
 21
-1.72659
  0
LINE
  8
0
 10
-20.4271
 20
-1.72659
 11
-20.1534
 21
-1.85335
  0
LINE
  8
0
 10
-20.1534
 20
-1.85335
 11
-19.8904
 21
-1.96577
  0
LINE
  8
0
 10
-19.8904
 20
-1.96577
 11
-19.6387
 21
-2.06465
  0
LINE
  8
0
 10
-19.6387
 20
-2.06465
 11
-19.3988
 21
-2.15074
  0
LINE
  8
0
 10
-19.3988
 20
-2.15074
 11
-19.1713
 21
-2.22482
  0
LINE
  8
0
 10
-19.1713
 20
-2.22482
 11
-19.1677
 21
-2.2244
  0
LINE
  8
0
 10
-19.1677
 20
-2.2244
 11
-19.1574
 21
-2.31165
  0
LINE
  8
0
 10
-19.1574
 20
-2.31165
 11
-19.161
 21
-2.31209
  0
LINE
  8
0
 10
-19.161
 20
-2.31209
 11
-19.3649
 21
-2.43724
  0
LINE
  8
0
 10
-19.3649
 20
-2.43724
 11
-19.578
 21
-2.57695
  0
LINE
  8
0
 10
-19.578
 20
-2.57695
 11
-19.7997
 21
-2.73186
  0
LINE
  8
0
 10
-19.7997
 20
-2.73186
 11
-20.0293
 21
-2.90257
  0
LINE
  8
0
 10
-20.0293
 20
-2.90257
 11
-20.2658
 21
-3.08972
  0
LINE
  8
0
 10
-20.2658
 20
-3.08972
 11
-20.2287
 21
-3.32396
  0
LINE
  8
0
 10
-20.2287
 20
-3.32396
 11
-19.9459
 21
-3.42885
  0
LINE
  8
0
 10
-19.9459
 20
-3.42885
 11
-19.6749
 21
-3.52029
  0
LINE
  8
0
 10
-19.6749
 20
-3.52029
 11
-19.4162
 21
-3.59912
  0
LINE
  8
0
 10
-19.4162
 20
-3.59912
 11
-19.1703
 21
-3.66612
  0
LINE
  8
0
 10
-19.1703
 20
-3.66612
 11
-18.9377
 21
-3.72212
  0
LINE
  8
0
 10
-18.9377
 20
-3.72212
 11
-18.9341
 21
-3.72142
  0
LINE
  8
0
 10
-18.9341
 20
-3.72142
 11
-18.9169
 21
-3.8076
  0
LINE
  8
0
 10
-18.9169
 20
-3.8076
 11
-18.9205
 21
-3.80832
  0
LINE
  8
0
 10
-18.9205
 20
-3.80832
 11
-19.114
 21
-3.94908
  0
LINE
  8
0
 10
-19.114
 20
-3.94908
 11
-19.3155
 21
-4.10507
  0
LINE
  8
0
 10
-19.3155
 20
-4.10507
 11
-19.5244
 21
-4.2769
  0
LINE
  8
0
 10
-19.5244
 20
-4.2769
 11
-19.7398
 21
-4.4651
  0
LINE
  8
0
 10
-19.7398
 20
-4.4651
 11
-19.9609
 21
-4.67024
  0
LINE
  8
0
 10
-19.9609
 20
-4.67024
 11
-19.9055
 21
-4.90083
  0
LINE
  8
0
 10
-19.9055
 20
-4.90083
 11
-19.6154
 21
-4.98322
  0
LINE
  8
0
 10
-19.6154
 20
-4.98322
 11
-19.338
 21
-5.05312
  0
LINE
  8
0
 10
-19.338
 20
-5.05312
 11
-19.0739
 21
-5.11139
  0
LINE
  8
0
 10
-19.0739
 20
-5.11139
 11
-18.8235
 21
-5.15891
  0
LINE
  8
0
 10
-18.8235
 20
-5.15891
 11
-18.5872
 21
-5.19649
  0
LINE
  8
0
 10
-18.5872
 20
-5.19649
 11
-18.5837
 21
-5.1955
  0
LINE
  8
0
 10
-18.5837
 20
-5.1955
 11
-18.5599
 21
-5.28006
  0
LINE
  8
0
 10
-18.5599
 20
-5.28006
 11
-18.5634
 21
-5.28107
  0
LINE
  8
0
 10
-18.5634
 20
-5.28107
 11
-18.7452
 21
-5.43657
  0
LINE
  8
0
 10
-18.7452
 20
-5.43657
 11
-18.9339
 21
-5.60789
  0
LINE
  8
0
 10
-18.9339
 20
-5.60789
 11
-19.1286
 21
-5.79558
  0
LINE
  8
0
 10
-19.1286
 20
-5.79558
 11
-19.3286
 21
-6.00011
  0
LINE
  8
0
 10
-19.3286
 20
-6.00011
 11
-19.533
 21
-6.22195
  0
LINE
  8
0
 10
-19.533
 20
-6.22195
 11
-19.4597
 21
-6.44751
  0
LINE
  8
0
 10
-19.4597
 20
-6.44751
 11
-19.1639
 21
-6.50687
  0
LINE
  8
0
 10
-19.1639
 20
-6.50687
 11
-18.8819
 21
-6.55479
  0
LINE
  8
0
 10
-18.8819
 20
-6.55479
 11
-18.6141
 21
-6.59216
  0
LINE
  8
0
 10
-18.6141
 20
-6.59216
 11
-18.3607
 21
-6.61987
  0
LINE
  8
0
 10
-18.3607
 20
-6.61987
 11
-18.1222
 21
-6.63881
  0
LINE
  8
0
 10
-18.1222
 20
-6.63881
 11
-18.1188
 21
-6.63756
  0
LINE
  8
0
 10
-18.1188
 20
-6.63756
 11
-18.0884
 21
-6.71997
  0
LINE
  8
0
 10
-18.0884
 20
-6.71997
 11
-18.0918
 21
-6.72125
  0
LINE
  8
0
 10
-18.0918
 20
-6.72125
 11
-18.2609
 21
-6.89055
  0
LINE
  8
0
 10
-18.2609
 20
-6.89055
 11
-18.4355
 21
-7.07616
  0
LINE
  8
0
 10
-18.4355
 20
-7.07616
 11
-18.6149
 21
-7.27853
  0
LINE
  8
0
 10
-18.6149
 20
-7.27853
 11
-18.7982
 21
-7.49811
  0
LINE
  8
0
 10
-18.7982
 20
-7.49811
 11
-18.9846
 21
-7.73532
  0
LINE
  8
0
 10
-18.9846
 20
-7.73532
 11
-18.8938
 21
-7.95442
  0
LINE
  8
0
 10
-18.8938
 20
-7.95442
 11
-18.5943
 21
-7.99039
  0
LINE
  8
0
 10
-18.5943
 20
-7.99039
 11
-18.3094
 21
-8.01604
  0
LINE
  8
0
 10
-18.3094
 20
-8.01604
 11
-18.0395
 21
-8.03229
  0
LINE
  8
0
 10
-18.0395
 20
-8.03229
 11
-17.7847
 21
-8.04004
  0
LINE
  8
0
 10
-17.7847
 20
-8.04004
 11
-17.5455
 21
-8.04019
  0
LINE
  8
0
 10
-17.5455
 20
-8.04019
 11
-17.5422
 21
-8.03867
  0
LINE
  8
0
 10
-17.5422
 20
-8.03867
 11
-17.5054
 21
-8.11847
  0
LINE
  8
0
 10
-17.5054
 20
-8.11847
 11
-17.5087
 21
-8.12001
  0
LINE
  8
0
 10
-17.5087
 20
-8.12001
 11
-17.664
 21
-8.30203
  0
LINE
  8
0
 10
-17.664
 20
-8.30203
 11
-17.8235
 21
-8.50078
  0
LINE
  8
0
 10
-17.8235
 20
-8.50078
 11
-17.9865
 21
-8.7166
  0
LINE
  8
0
 10
-17.9865
 20
-8.7166
 11
-18.152
 21
-8.94989
  0
LINE
  8
0
 10
-18.152
 20
-8.94989
 11
-18.3192
 21
-9.20099
  0
LINE
  8
0
 10
-18.3192
 20
-9.20099
 11
-18.2115
 21
-9.41229
  0
LINE
  8
0
 10
-18.2115
 20
-9.41229
 11
-17.9101
 21
-9.42465
  0
LINE
  8
0
 10
-17.9101
 20
-9.42465
 11
-17.6241
 21
-9.42787
  0
LINE
  8
0
 10
-17.6241
 20
-9.42787
 11
-17.3537
 21
-9.42288
  0
LINE
  8
0
 10
-17.3537
 20
-9.42288
 11
-17.0991
 21
-9.41063
  0
LINE
  8
0
 10
-17.0991
 20
-9.41063
 11
-16.8606
 21
-9.39201
  0
LINE
  8
0
 10
-16.8606
 20
-9.39201
 11
-16.8574
 21
-9.39023
  0
LINE
  8
0
 10
-16.8574
 20
-9.39023
 11
-16.8145
 21
-9.46689
  0
LINE
  8
0
 10
-16.8145
 20
-9.46689
 11
-16.8176
 21
-9.46869
  0
LINE
  8
0
 10
-16.8176
 20
-9.46869
 11
-16.9581
 21
-9.66234
  0
LINE
  8
0
 10
-16.9581
 20
-9.66234
 11
-17.1016
 21
-9.87299
  0
LINE
  8
0
 10
-17.1016
 20
-9.87299
 11
-17.2471
 21
-10.1009
  0
LINE
  8
0
 10
-17.2471
 20
-10.1009
 11
-17.3938
 21
-10.3465
  0
LINE
  8
0
 10
-17.3938
 20
-10.3465
 11
-17.5408
 21
-10.6099
  0
LINE
  8
0
 10
-17.5408
 20
-10.6099
 11
-17.4169
 21
-10.8121
  0
LINE
  8
0
 10
-17.4169
 20
-10.8121
 11
-17.1154
 21
-10.8008
  0
LINE
  8
0
 10
-17.1154
 20
-10.8008
 11
-16.83
 21
-10.7816
  0
LINE
  8
0
 10
-16.83
 20
-10.7816
 11
-16.5609
 21
-10.7554
  0
LINE
  8
0
 10
-16.5609
 20
-10.7554
 11
-16.308
 21
-10.7232
  0
LINE
  8
0
 10
-16.308
 20
-10.7232
 11
-16.0717
 21
-10.6859
  0
LINE
  8
0
 10
-16.0717
 20
-10.6859
 11
-16.0687
 21
-10.6839
  0
LINE
  8
0
 10
-16.0687
 20
-10.6839
 11
-16.0199
 21
-10.757
  0
LINE
  8
0
 10
-16.0199
 20
-10.757
 11
-16.0229
 21
-10.759
  0
LINE
  8
0
 10
-16.0229
 20
-10.759
 11
-16.1478
 21
-10.9631
  0
LINE
  8
0
 10
-16.1478
 20
-10.9631
 11
-16.2743
 21
-11.1843
  0
LINE
  8
0
 10
-16.2743
 20
-11.1843
 11
-16.4015
 21
-11.423
  0
LINE
  8
0
 10
-16.4015
 20
-11.423
 11
-16.5284
 21
-11.6793
  0
LINE
  8
0
 10
-16.5284
 20
-11.6793
 11
-16.6543
 21
-11.9535
  0
LINE
  8
0
 10
-16.6543
 20
-11.9535
 11
-16.5149
 21
-12.1453
  0
LINE
  8
0
 10
-16.5149
 20
-12.1453
 11
-16.2153
 21
-12.1104
  0
LINE
  8
0
 10
-16.2153
 20
-12.1104
 11
-15.9323
 21
-12.0688
  0
LINE
  8
0
 10
-15.9323
 20
-12.0688
 11
-15.666
 21
-12.0216
  0
LINE
  8
0
 10
-15.666
 20
-12.0216
 11
-15.4164
 21
-11.9697
  0
LINE
  8
0
 10
-15.4164
 20
-11.9697
 11
-15.1838
 21
-11.914
  0
LINE
  8
0
 10
-15.1838
 20
-11.914
 11
-15.1809
 21
-11.9117
  0
LINE
  8
0
 10
-15.1809
 20
-11.9117
 11
-15.1265
 21
-11.9807
  0
LINE
  8
0
 10
-15.1265
 20
-11.9807
 11
-15.1294
 21
-11.983
  0
LINE
  8
0
 10
-15.1294
 20
-11.983
 11
-15.2378
 21
-12.1962
  0
LINE
  8
0
 10
-15.2378
 20
-12.1962
 11
-15.3466
 21
-12.4267
  0
LINE
  8
0
 10
-15.3466
 20
-12.4267
 11
-15.4547
 21
-12.6746
  0
LINE
  8
0
 10
-15.4547
 20
-12.6746
 11
-15.5611
 21
-12.9401
  0
LINE
  8
0
 10
-15.5611
 20
-12.9401
 11
-15.6651
 21
-13.2233
  0
LINE
  8
0
 10
-15.6651
 20
-13.2233
 11
-15.511
 21
-13.4036
  0
LINE
  8
0
 10
-15.511
 20
-13.4036
 11
-15.2151
 21
-13.3453
  0
LINE
  8
0
 10
-15.2151
 20
-13.3453
 11
-14.9362
 21
-13.2816
  0
LINE
  8
0
 10
-14.9362
 20
-13.2816
 11
-14.6745
 21
-13.2137
  0
LINE
  8
0
 10
-14.6745
 20
-13.2137
 11
-14.4298
 21
-13.1423
  0
LINE
  8
0
 10
-14.4298
 20
-13.1423
 11
-14.2022
 21
-13.0685
  0
LINE
  8
0
 10
-14.2022
 20
-13.0685
 11
-14.1995
 21
-13.0661
  0
LINE
  8
0
 10
-14.1995
 20
-13.0661
 11
-14.1399
 21
-13.1306
  0
LINE
  8
0
 10
-14.1399
 20
-13.1306
 11
-14.1425
 21
-13.1331
  0
LINE
  8
0
 10
-14.1425
 20
-13.1331
 11
-14.234
 21
-13.3542
  0
LINE
  8
0
 10
-14.234
 20
-13.3542
 11
-14.3243
 21
-13.5925
  0
LINE
  8
0
 10
-14.3243
 20
-13.5925
 11
-14.4126
 21
-13.8481
  0
LINE
  8
0
 10
-14.4126
 20
-13.8481
 11
-14.4979
 21
-14.1211
  0
LINE
  8
0
 10
-14.4979
 20
-14.1211
 11
-14.5793
 21
-14.4116
  0
LINE
  8
0
 10
-14.5793
 20
-14.4116
 11
-14.4116
 21
-14.5793
  0
LINE
  8
0
 10
-14.4116
 20
-14.5793
 11
-14.1211
 21
-14.4979
  0
LINE
  8
0
 10
-14.1211
 20
-14.4979
 11
-13.8481
 21
-14.4126
  0
LINE
  8
0
 10
-13.8481
 20
-14.4126
 11
-13.5925
 21
-14.3243
  0
LINE
  8
0
 10
-13.5925
 20
-14.3243
 11
-13.3542
 21
-14.234
  0
LINE
  8
0
 10
-13.3542
 20
-14.234
 11
-13.1331
 21
-14.1425
  0
LINE
  8
0
 10
-13.1331
 20
-14.1425
 11
-13.1306
 21
-14.1399
  0
LINE
  8
0
 10
-13.1306
 20
-14.1399
 11
-13.0661
 21
-14.1995
  0
LINE
  8
0
 10
-13.0661
 20
-14.1995
 11
-13.0685
 21
-14.2022
  0
LINE
  8
0
 10
-13.0685
 20
-14.2022
 11
-13.1423
 21
-14.4298
  0
LINE
  8
0
 10
-13.1423
 20
-14.4298
 11
-13.2137
 21
-14.6745
  0
LINE
  8
0
 10
-13.2137
 20
-14.6745
 11
-13.2816
 21
-14.9362
  0
LINE
  8
0
 10
-13.2816
 20
-14.9362
 11
-13.3453
 21
-15.2151
  0
LINE
  8
0
 10
-13.3453
 20
-15.2151
 11
-13.4036
 21
-15.511
  0
LINE
  8
0
 10
-13.4036
 20
-15.511
 11
-13.2233
 21
-15.6651
  0
LINE
  8
0
 10
-13.2233
 20
-15.6651
 11
-12.9401
 21
-15.5611
  0
LINE
  8
0
 10
-12.9401
 20
-15.5611
 11
-12.6746
 21
-15.4547
  0
LINE
  8
0
 10
-12.6746
 20
-15.4547
 11
-12.4267
 21
-15.3466
  0
LINE
  8
0
 10
-12.4267
 20
-15.3466
 11
-12.1962
 21
-15.2378
  0
LINE
  8
0
 10
-12.1962
 20
-15.2378
 11
-11.983
 21
-15.1294
  0
LINE
  8
0
 10
-11.983
 20
-15.1294
 11
-11.9807
 21
-15.1265
  0
LINE
  8
0
 10
-11.9807
 20
-15.1265
 11
-11.9117
 21
-15.1809
  0
LINE
  8
0
 10
-11.9117
 20
-15.1809
 11
-11.914
 21
-15.1838
  0
LINE
  8
0
 10
-11.914
 20
-15.1838
 11
-11.9697
 21
-15.4164
  0
LINE
  8
0
 10
-11.9697
 20
-15.4164
 11
-12.0216
 21
-15.666
  0
LINE
  8
0
 10
-12.0216
 20
-15.666
 11
-12.0688
 21
-15.9323
  0
LINE
  8
0
 10
-12.0688
 20
-15.9323
 11
-12.1104
 21
-16.2153
  0
LINE
  8
0
 10
-12.1104
 20
-16.2153
 11
-12.1453
 21
-16.5149
  0
LINE
  8
0
 10
-12.1453
 20
-16.5149
 11
-11.9535
 21
-16.6543
  0
LINE
  8
0
 10
-11.9535
 20
-16.6543
 11
-11.6793
 21
-16.5284
  0
LINE
  8
0
 10
-11.6793
 20
-16.5284
 11
-11.423
 21
-16.4015
  0
LINE
  8
0
 10
-11.423
 20
-16.4015
 11
-11.1843
 21
-16.2743
  0
LINE
  8
0
 10
-11.1843
 20
-16.2743
 11
-10.9631
 21
-16.1478
  0
LINE
  8
0
 10
-10.9631
 20
-16.1478
 11
-10.759
 21
-16.0229
  0
LINE
  8
0
 10
-10.759
 20
-16.0229
 11
-10.757
 21
-16.0199
  0
LINE
  8
0
 10
-10.757
 20
-16.0199
 11
-10.6839
 21
-16.0687
  0
LINE
  8
0
 10
-10.6839
 20
-16.0687
 11
-10.6859
 21
-16.0717
  0
LINE
  8
0
 10
-10.6859
 20
-16.0717
 11
-10.7232
 21
-16.308
  0
LINE
  8
0
 10
-10.7232
 20
-16.308
 11
-10.7554
 21
-16.5609
  0
LINE
  8
0
 10
-10.7554
 20
-16.5609
 11
-10.7816
 21
-16.83
  0
LINE
  8
0
 10
-10.7816
 20
-16.83
 11
-10.8008
 21
-17.1154
  0
LINE
  8
0
 10
-10.8008
 20
-17.1154
 11
-10.8121
 21
-17.4169
  0
LINE
  8
0
 10
-10.8121
 20
-17.4169
 11
-10.6099
 21
-17.5408
  0
LINE
  8
0
 10
-10.6099
 20
-17.5408
 11
-10.3465
 21
-17.3938
  0
LINE
  8
0
 10
-10.3465
 20
-17.3938
 11
-10.1009
 21
-17.2471
  0
LINE
  8
0
 10
-10.1009
 20
-17.2471
 11
-9.87299
 21
-17.1016
  0
LINE
  8
0
 10
-9.87299
 20
-17.1016
 11
-9.66234
 21
-16.9581
  0
LINE
  8
0
 10
-9.66234
 20
-16.9581
 11
-9.46869
 21
-16.8176
  0
LINE
  8
0
 10
-9.46869
 20
-16.8176
 11
-9.46689
 21
-16.8145
  0
LINE
  8
0
 10
-9.46689
 20
-16.8145
 11
-9.39023
 21
-16.8574
  0
LINE
  8
0
 10
-9.39023
 20
-16.8574
 11
-9.39201
 21
-16.8606
  0
LINE
  8
0
 10
-9.39201
 20
-16.8606
 11
-9.41063
 21
-17.0991
  0
LINE
  8
0
 10
-9.41063
 20
-17.0991
 11
-9.42288
 21
-17.3537
  0
LINE
  8
0
 10
-9.42288
 20
-17.3537
 11
-9.42787
 21
-17.6241
  0
LINE
  8
0
 10
-9.42787
 20
-17.6241
 11
-9.42465
 21
-17.9101
  0
LINE
  8
0
 10
-9.42465
 20
-17.9101
 11
-9.41229
 21
-18.2115
  0
LINE
  8
0
 10
-9.41229
 20
-18.2115
 11
-9.20099
 21
-18.3192
  0
LINE
  8
0
 10
-9.20099
 20
-18.3192
 11
-8.94989
 21
-18.152
  0
LINE
  8
0
 10
-8.94989
 20
-18.152
 11
-8.7166
 21
-17.9865
  0
LINE
  8
0
 10
-8.7166
 20
-17.9865
 11
-8.50078
 21
-17.8235
  0
LINE
  8
0
 10
-8.50078
 20
-17.8235
 11
-8.30203
 21
-17.664
  0
LINE
  8
0
 10
-8.30203
 20
-17.664
 11
-8.12001
 21
-17.5087
  0
LINE
  8
0
 10
-8.12001
 20
-17.5087
 11
-8.11847
 21
-17.5054
  0
LINE
  8
0
 10
-8.11847
 20
-17.5054
 11
-8.03867
 21
-17.5422
  0
LINE
  8
0
 10
-8.03867
 20
-17.5422
 11
-8.04019
 21
-17.5455
  0
LINE
  8
0
 10
-8.04019
 20
-17.5455
 11
-8.04004
 21
-17.7847
  0
LINE
  8
0
 10
-8.04004
 20
-17.7847
 11
-8.03229
 21
-18.0395
  0
LINE
  8
0
 10
-8.03229
 20
-18.0395
 11
-8.01604
 21
-18.3094
  0
LINE
  8
0
 10
-8.01604
 20
-18.3094
 11
-7.99039
 21
-18.5943
  0
LINE
  8
0
 10
-7.99039
 20
-18.5943
 11
-7.95442
 21
-18.8938
  0
LINE
  8
0
 10
-7.95442
 20
-18.8938
 11
-7.73532
 21
-18.9846
  0
LINE
  8
0
 10
-7.73532
 20
-18.9846
 11
-7.49811
 21
-18.7982
  0
LINE
  8
0
 10
-7.49811
 20
-18.7982
 11
-7.27853
 21
-18.6149
  0
LINE
  8
0
 10
-7.27853
 20
-18.6149
 11
-7.07616
 21
-18.4355
  0
LINE
  8
0
 10
-7.07616
 20
-18.4355
 11
-6.89055
 21
-18.2609
  0
LINE
  8
0
 10
-6.89055
 20
-18.2609
 11
-6.72125
 21
-18.0918
  0
LINE
  8
0
 10
-6.72125
 20
-18.0918
 11
-6.71997
 21
-18.0884
  0
LINE
  8
0
 10
-6.71997
 20
-18.0884
 11
-6.63756
 21
-18.1188
  0
LINE
  8
0
 10
-6.63756
 20
-18.1188
 11
-6.63881
 21
-18.1222
  0
LINE
  8
0
 10
-6.63881
 20
-18.1222
 11
-6.61987
 21
-18.3607
  0
LINE
  8
0
 10
-6.61987
 20
-18.3607
 11
-6.59216
 21
-18.6141
  0
LINE
  8
0
 10
-6.59216
 20
-18.6141
 11
-6.55479
 21
-18.8819
  0
LINE
  8
0
 10
-6.55479
 20
-18.8819
 11
-6.50687
 21
-19.1639
  0
LINE
  8
0
 10
-6.50687
 20
-19.1639
 11
-6.44751
 21
-19.4597
  0
LINE
  8
0
 10
-6.44751
 20
-19.4597
 11
-6.22195
 21
-19.533
  0
LINE
  8
0
 10
-6.22195
 20
-19.533
 11
-6.00011
 21
-19.3286
  0
LINE
  8
0
 10
-6.00011
 20
-19.3286
 11
-5.79558
 21
-19.1286
  0
LINE
  8
0
 10
-5.79558
 20
-19.1286
 11
-5.60789
 21
-18.9339
  0
LINE
  8
0
 10
-5.60789
 20
-18.9339
 11
-5.43657
 21
-18.7452
  0
LINE
  8
0
 10
-5.43657
 20
-18.7452
 11
-5.28107
 21
-18.5634
  0
LINE
  8
0
 10
-5.28107
 20
-18.5634
 11
-5.28006
 21
-18.5599
  0
LINE
  8
0
 10
-5.28006
 20
-18.5599
 11
-5.1955
 21
-18.5837
  0
LINE
  8
0
 10
-5.1955
 20
-18.5837
 11
-5.19649
 21
-18.5872
  0
LINE
  8
0
 10
-5.19649
 20
-18.5872
 11
-5.15891
 21
-18.8235
  0
LINE
  8
0
 10
-5.15891
 20
-18.8235
 11
-5.11139
 21
-19.0739
  0
LINE
  8
0
 10
-5.11139
 20
-19.0739
 11
-5.05312
 21
-19.338
  0
LINE
  8
0
 10
-5.05312
 20
-19.338
 11
-4.98322
 21
-19.6154
  0
LINE
  8
0
 10
-4.98322
 20
-19.6154
 11
-4.90083
 21
-19.9055
  0
LINE
  8
0
 10
-4.90083
 20
-19.9055
 11
-4.67024
 21
-19.9609
  0
LINE
  8
0
 10
-4.67024
 20
-19.9609
 11
-4.4651
 21
-19.7398
  0
LINE
  8
0
 10
-4.4651
 20
-19.7398
 11
-4.2769
 21
-19.5244
  0
LINE
  8
0
 10
-4.2769
 20
-19.5244
 11
-4.10507
 21
-19.3155
  0
LINE
  8
0
 10
-4.10507
 20
-19.3155
 11
-3.94908
 21
-19.114
  0
LINE
  8
0
 10
-3.94908
 20
-19.114
 11
-3.80832
 21
-18.9205
  0
LINE
  8
0
 10
-3.80832
 20
-18.9205
 11
-3.8076
 21
-18.9169
  0
LINE
  8
0
 10
-3.8076
 20
-18.9169
 11
-3.72142
 21
-18.9341
  0
LINE
  8
0
 10
-3.72142
 20
-18.9341
 11
-3.72212
 21
-18.9377
  0
LINE
  8
0
 10
-3.72212
 20
-18.9377
 11
-3.66612
 21
-19.1703
  0
LINE
  8
0
 10
-3.66612
 20
-19.1703
 11
-3.59912
 21
-19.4162
  0
LINE
  8
0
 10
-3.59912
 20
-19.4162
 11
-3.52029
 21
-19.6749
  0
LINE
  8
0
 10
-3.52029
 20
-19.6749
 11
-3.42885
 21
-19.9459
  0
LINE
  8
0
 10
-3.42885
 20
-19.9459
 11
-3.32396
 21
-20.2287
  0
LINE
  8
0
 10
-3.32396
 20
-20.2287
 11
-3.08972
 21
-20.2658
  0
LINE
  8
0
 10
-3.08972
 20
-20.2658
 11
-2.90257
 21
-20.0293
  0
LINE
  8
0
 10
-2.90257
 20
-20.0293
 11
-2.73186
 21
-19.7997
  0
LINE
  8
0
 10
-2.73186
 20
-19.7997
 11
-2.57695
 21
-19.578
  0
LINE
  8
0
 10
-2.57695
 20
-19.578
 11
-2.43724
 21
-19.3649
  0
LINE
  8
0
 10
-2.43724
 20
-19.3649
 11
-2.31209
 21
-19.161
  0
LINE
  8
0
 10
-2.31209
 20
-19.161
 11
-2.31165
 21
-19.1574
  0
LINE
  8
0
 10
-2.31165
 20
-19.1574
 11
-2.2244
 21
-19.1677
  0
LINE
  8
0
 10
-2.2244
 20
-19.1677
 11
-2.22482
 21
-19.1713
  0
LINE
  8
0
 10
-2.22482
 20
-19.1713
 11
-2.15074
 21
-19.3988
  0
LINE
  8
0
 10
-2.15074
 20
-19.3988
 11
-2.06465
 21
-19.6387
  0
LINE
  8
0
 10
-2.06465
 20
-19.6387
 11
-1.96577
 21
-19.8904
  0
LINE
  8
0
 10
-1.96577
 20
-19.8904
 11
-1.85335
 21
-20.1534
  0
LINE
  8
0
 10
-1.85335
 20
-20.1534
 11
-1.72659
 21
-20.4271
  0
LINE
  8
0
 10
-1.72659
 20
-20.4271
 11
-1.49017
 21
-20.4458
  0
LINE
  8
0
 10
-1.49017
 20
-20.4458
 11
-1.32214
 21
-20.1952
  0
LINE
  8
0
 10
-1.32214
 20
-20.1952
 11
-1.16995
 21
-19.953
  0
LINE
  8
0
 10
-1.16995
 20
-19.953
 11
-1.03293
 21
-19.7199
  0
LINE
  8
0
 10
-1.03293
 20
-19.7199
 11
-0.91037
 21
-19.4964
  0
LINE
  8
0
 10
-0.91037
 20
-19.4964
 11
-0.801605
 21
-19.2833
  0
LINE
  8
0
 10
-0.801605
 20
-19.2833
 11
-0.801453
 21
-19.2797
  0
LINE
  8
0
 10
-0.801453
 20
-19.2797
 11
-0.713669
 21
-19.2831
  0
LINE
  8
0
 10
-0.713669
 20
-19.2831
 11
-0.713806
 21
-19.2868
  0
LINE
  8
0
 10
-0.713806
 20
-19.2868
 11
-0.622101
 21
-19.5078
  0
LINE
  8
0
 10
-0.622101
 20
-19.5078
 11
-0.517456
 21
-19.7401
  0
LINE
  8
0
 10
-0.517456
 20
-19.7401
 11
-0.399139
 21
-19.9833
  0
LINE
  8
0
 10
-0.399139
 20
-19.9833
 11
-0.266418
 21
-20.2367
  0
LINE
  8
0
 10
-0.266418
 20
-20.2367
 11
-0.118576
 21
-20.4996
  0
LINE
  8
0
 10
-0.118576
 20
-20.4996
 11
0.118561
 21
-20.4996
  0
LINE
  8
0
 10
0.118561
 20
-20.4996
 11
0.266403
 21
-20.2367
  0
LINE
  8
0
 10
-1.9996
 20
-1.5
 11
-2.06769
 21
-1.4052
  0
LINE
  8
0
 10
-2.06769
 20
-1.4052
 11
-2.11081
 21
-1.33955
  0
LINE
  8
0
 10
-2.11081
 20
-1.33955
 11
-2.15184
 21
-1.2726
  0
LINE
  8
0
 10
-2.15184
 20
-1.2726
 11
-2.19077
 21
-1.20438
  0
LINE
  8
0
 10
-2.19077
 20
-1.20438
 11
-2.22751
 21
-1.13496
  0
LINE
  8
0
 10
-2.22751
 20
-1.13496
 11
-2.26205
 21
-1.06444
  0
LINE
  8
0
 10
-2.26205
 20
-1.06444
 11
-2.29437
 21
-0.992859
  0
LINE
  8
0
 10
-2.29437
 20
-0.992859
 11
-2.32443
 21
-0.920303
  0
LINE
  8
0
 10
-2.32443
 20
-0.920303
 11
-2.35219
 21
-0.846832
  0
LINE
  8
0
 10
-2.35219
 20
-0.846832
 11
-2.37764
 21
-0.772537
  0
LINE
  8
0
 10
-2.37764
 20
-0.772537
 11
-2.40073
 21
-0.697464
  0
LINE
  8
0
 10
-2.40073
 20
-0.697464
 11
-2.42145
 21
-0.621719
  0
LINE
  8
0
 10
-2.42145
 20
-0.621719
 11
-2.43979
 21
-0.545349
  0
LINE
  8
0
 10
-2.43979
 20
-0.545349
 11
-2.4557
 21
-0.468445
  0
LINE
  8
0
 10
-2.4557
 20
-0.468445
 11
-2.46921
 21
-0.391083
  0
LINE
  8
0
 10
-2.46921
 20
-0.391083
 11
-2.48029
 21
-0.313324
  0
LINE
  8
0
 10
-2.48029
 20
-0.313324
 11
-2.48889
 21
-0.23526
  0
LINE
  8
0
 10
-2.48889
 20
-0.23526
 11
-2.49506
 21
-0.156967
  0
LINE
  8
0
 10
-2.49506
 20
-0.156967
 11
-2.49876
 21
-0.0785217
  0
LINE
  8
0
 10
-2.49876
 20
-0.0785217
 11
-2.5
 21
0
  0
LINE
  8
0
 10
-2.5
 20
0
 11
-2.49876
 21
0.0785217
  0
LINE
  8
0
 10
-2.49876
 20
0.0785217
 11
-2.49506
 21
0.156967
  0
LINE
  8
0
 10
-2.49506
 20
0.156967
 11
-2.48889
 21
0.23526
  0
LINE
  8
0
 10
-2.48889
 20
0.23526
 11
-2.48029
 21
0.313324
  0
LINE
  8
0
 10
-2.48029
 20
0.313324
 11
-2.46921
 21
0.391083
  0
LINE
  8
0
 10
-2.46921
 20
0.391083
 11
-2.4557
 21
0.468445
  0
LINE
  8
0
 10
-2.4557
 20
0.468445
 11
-2.43979
 21
0.545349
  0
LINE
  8
0
 10
-2.43979
 20
0.545349
 11
-2.42145
 21
0.621719
  0
LINE
  8
0
 10
-2.42145
 20
0.621719
 11
-2.40073
 21
0.697464
  0
LINE
  8
0
 10
-2.40073
 20
0.697464
 11
-2.37764
 21
0.772537
  0
LINE
  8
0
 10
-2.37764
 20
0.772537
 11
-2.35219
 21
0.846832
  0
LINE
  8
0
 10
-2.35219
 20
0.846832
 11
-2.32443
 21
0.920303
  0
LINE
  8
0
 10
-2.32443
 20
0.920303
 11
-2.29437
 21
0.992859
  0
LINE
  8
0
 10
-2.29437
 20
0.992859
 11
-2.26205
 21
1.06444
  0
LINE
  8
0
 10
-2.26205
 20
1.06444
 11
-2.22751
 21
1.13496
  0
LINE
  8
0
 10
-2.22751
 20
1.13496
 11
-2.19077
 21
1.20438
  0
LINE
  8
0
 10
-2.19077
 20
1.20438
 11
-2.15184
 21
1.2726
  0
LINE
  8
0
 10
-2.15184
 20
1.2726
 11
-2.11081
 21
1.33955
  0
LINE
  8
0
 10
-2.11081
 20
1.33955
 11
-2.06769
 21
1.4052
  0
LINE
  8
0
 10
-2.06769
 20
1.4052
 11
-2.02254
 21
1.46945
  0
LINE
  8
0
 10
-2.02254
 20
1.46945
 11
-1.97537
 21
1.53226
  0
LINE
  8
0
 10
-1.97537
 20
1.53226
 11
-1.92627
 21
1.59355
  0
LINE
  8
0
 10
-1.92627
 20
1.59355
 11
-1.87527
 21
1.65327
  0
LINE
  8
0
 10
-1.87527
 20
1.65327
 11
-1.82242
 21
1.71136
  0
LINE
  8
0
 10
-1.82242
 20
1.71136
 11
-1.76776
 21
1.76776
  0
LINE
  8
0
 10
-1.76776
 20
1.76776
 11
-1.71136
 21
1.82242
  0
LINE
  8
0
 10
-1.71136
 20
1.82242
 11
-1.65327
 21
1.87527
  0
LINE
  8
0
 10
-1.65327
 20
1.87527
 11
-1.59355
 21
1.92627
  0
LINE
  8
0
 10
-1.59355
 20
1.92627
 11
-1.53226
 21
1.97537
  0
LINE
  8
0
 10
-1.53226
 20
1.97537
 11
-1.46945
 21
2.02254
  0
LINE
  8
0
 10
-1.46945
 20
2.02254
 11
-1.4052
 21
2.06769
  0
LINE
  8
0
 10
-1.4052
 20
2.06769
 11
-1.33955
 21
2.11081
  0
LINE
  8
0
 10
-1.33955
 20
2.11081
 11
-1.2726
 21
2.15184
  0
LINE
  8
0
 10
-1.2726
 20
2.15184
 11
-1.20438
 21
2.19077
  0
LINE
  8
0
 10
-1.20438
 20
2.19077
 11
-1.13496
 21
2.22751
  0
LINE
  8
0
 10
-1.13496
 20
2.22751
 11
-1.06444
 21
2.26205
  0
LINE
  8
0
 10
-1.06444
 20
2.26205
 11
-0.992859
 21
2.29437
  0
LINE
  8
0
 10
-0.992859
 20
2.29437
 11
-0.920303
 21
2.32443
  0
LINE
  8
0
 10
-0.920303
 20
2.32443
 11
-0.846832
 21
2.35219
  0
LINE
  8
0
 10
-0.846832
 20
2.35219
 11
-0.772537
 21
2.37764
  0
LINE
  8
0
 10
-0.772537
 20
2.37764
 11
-0.697464
 21
2.40073
  0
LINE
  8
0
 10
-0.697464
 20
2.40073
 11
-0.621719
 21
2.42145
  0
LINE
  8
0
 10
-0.621719
 20
2.42145
 11
-0.545349
 21
2.43979
  0
LINE
  8
0
 10
-0.545349
 20
2.43979
 11
-0.468445
 21
2.4557
  0
LINE
  8
0
 10
-0.468445
 20
2.4557
 11
-0.391083
 21
2.46921
  0
LINE
  8
0
 10
-0.391083
 20
2.46921
 11
-0.313324
 21
2.48029
  0
LINE
  8
0
 10
-0.313324
 20
2.48029
 11
-0.23526
 21
2.48889
  0
LINE
  8
0
 10
-0.23526
 20
2.48889
 11
-0.156967
 21
2.49506
  0
LINE
  8
0
 10
-0.156967
 20
2.49506
 11
-0.0785217
 21
2.49876
  0
LINE
  8
0
 10
-0.0785217
 20
2.49876
 11
0
 21
2.5
  0
LINE
  8
0
 10
0
 20
2.5
 11
0.0785217
 21
2.49876
  0
LINE
  8
0
 10
0.0785217
 20
2.49876
 11
0.156967
 21
2.49506
  0
LINE
  8
0
 10
0.156967
 20
2.49506
 11
0.23526
 21
2.48889
  0
LINE
  8
0
 10
0.23526
 20
2.48889
 11
0.313324
 21
2.48029
  0
LINE
  8
0
 10
0.313324
 20
2.48029
 11
0.391083
 21
2.46921
  0
LINE
  8
0
 10
0.391083
 20
2.46921
 11
0.468445
 21
2.4557
  0
LINE
  8
0
 10
0.468445
 20
2.4557
 11
0.545349
 21
2.43979
  0
LINE
  8
0
 10
0.545349
 20
2.43979
 11
0.621719
 21
2.42145
  0
LINE
  8
0
 10
0.621719
 20
2.42145
 11
0.697464
 21
2.40073
  0
LINE
  8
0
 10
0.697464
 20
2.40073
 11
0.772537
 21
2.37764
  0
LINE
  8
0
 10
0.772537
 20
2.37764
 11
0.846832
 21
2.35219
  0
LINE
  8
0
 10
0.846832
 20
2.35219
 11
0.920303
 21
2.32443
  0
LINE
  8
0
 10
0.920303
 20
2.32443
 11
0.992859
 21
2.29437
  0
LINE
  8
0
 10
0.992859
 20
2.29437
 11
1.06444
 21
2.26205
  0
LINE
  8
0
 10
1.06444
 20
2.26205
 11
1.13496
 21
2.22751
  0
LINE
  8
0
 10
1.13496
 20
2.22751
 11
1.20438
 21
2.19077
  0
LINE
  8
0
 10
1.20438
 20
2.19077
 11
1.2726
 21
2.15184
  0
LINE
  8
0
 10
1.2726
 20
2.15184
 11
1.33955
 21
2.11081
  0
LINE
  8
0
 10
1.33955
 20
2.11081
 11
1.4052
 21
2.06769
  0
LINE
  8
0
 10
1.4052
 20
2.06769
 11
1.46945
 21
2.02254
  0
LINE
  8
0
 10
1.46945
 20
2.02254
 11
1.53226
 21
1.97537
  0
LINE
  8
0
 10
1.53226
 20
1.97537
 11
1.59355
 21
1.92627
  0
LINE
  8
0
 10
1.59355
 20
1.92627
 11
1.65327
 21
1.87527
  0
LINE
  8
0
 10
1.65327
 20
1.87527
 11
1.71136
 21
1.82242
  0
LINE
  8
0
 10
1.71136
 20
1.82242
 11
1.76776
 21
1.76776
  0
LINE
  8
0
 10
1.76776
 20
1.76776
 11
1.82242
 21
1.71136
  0
LINE
  8
0
 10
1.82242
 20
1.71136
 11
1.87527
 21
1.65327
  0
LINE
  8
0
 10
1.87527
 20
1.65327
 11
1.92627
 21
1.59355
  0
LINE
  8
0
 10
1.92627
 20
1.59355
 11
1.97537
 21
1.53226
  0
LINE
  8
0
 10
1.97537
 20
1.53226
 11
2.02254
 21
1.46945
  0
LINE
  8
0
 10
2.02254
 20
1.46945
 11
2.06769
 21
1.4052
  0
LINE
  8
0
 10
2.06769
 20
1.4052
 11
2.11081
 21
1.33955
  0
LINE
  8
0
 10
2.11081
 20
1.33955
 11
2.15184
 21
1.2726
  0
LINE
  8
0
 10
2.15184
 20
1.2726
 11
2.19077
 21
1.20438
  0
LINE
  8
0
 10
2.19077
 20
1.20438
 11
2.22751
 21
1.13496
  0
LINE
  8
0
 10
2.22751
 20
1.13496
 11
2.26205
 21
1.06444
  0
LINE
  8
0
 10
2.26205
 20
1.06444
 11
2.29437
 21
0.992859
  0
LINE
  8
0
 10
2.29437
 20
0.992859
 11
2.32443
 21
0.920303
  0
LINE
  8
0
 10
2.32443
 20
0.920303
 11
2.35219
 21
0.846832
  0
LINE
  8
0
 10
2.35219
 20
0.846832
 11
2.37764
 21
0.772537
  0
LINE
  8
0
 10
2.37764
 20
0.772537
 11
2.40073
 21
0.697464
  0
LINE
  8
0
 10
2.40073
 20
0.697464
 11
2.42145
 21
0.621719
  0
LINE
  8
0
 10
2.42145
 20
0.621719
 11
2.43979
 21
0.545349
  0
LINE
  8
0
 10
2.43979
 20
0.545349
 11
2.4557
 21
0.468445
  0
LINE
  8
0
 10
2.4557
 20
0.468445
 11
2.46921
 21
0.391083
  0
LINE
  8
0
 10
2.46921
 20
0.391083
 11
2.48029
 21
0.313324
  0
LINE
  8
0
 10
2.48029
 20
0.313324
 11
2.48889
 21
0.23526
  0
LINE
  8
0
 10
2.48889
 20
0.23526
 11
2.49506
 21
0.156967
  0
LINE
  8
0
 10
2.49506
 20
0.156967
 11
2.49876
 21
0.0785217
  0
LINE
  8
0
 10
2.49876
 20
0.0785217
 11
2.5
 21
0
  0
LINE
  8
0
 10
2.5
 20
0
 11
2.49876
 21
-0.0785217
  0
LINE
  8
0
 10
2.49876
 20
-0.0785217
 11
2.49506
 21
-0.156967
  0
LINE
  8
0
 10
2.49506
 20
-0.156967
 11
2.48889
 21
-0.23526
  0
LINE
  8
0
 10
2.48889
 20
-0.23526
 11
2.48029
 21
-0.313324
  0
LINE
  8
0
 10
2.48029
 20
-0.313324
 11
2.46921
 21
-0.391083
  0
LINE
  8
0
 10
2.46921
 20
-0.391083
 11
2.4557
 21
-0.468445
  0
LINE
  8
0
 10
2.4557
 20
-0.468445
 11
2.43979
 21
-0.545349
  0
LINE
  8
0
 10
2.43979
 20
-0.545349
 11
2.42145
 21
-0.621719
  0
LINE
  8
0
 10
2.42145
 20
-0.621719
 11
2.40073
 21
-0.697464
  0
LINE
  8
0
 10
2.40073
 20
-0.697464
 11
2.37764
 21
-0.772537
  0
LINE
  8
0
 10
2.37764
 20
-0.772537
 11
2.35219
 21
-0.846832
  0
LINE
  8
0
 10
2.35219
 20
-0.846832
 11
2.32443
 21
-0.920303
  0
LINE
  8
0
 10
2.32443
 20
-0.920303
 11
2.29437
 21
-0.992859
  0
LINE
  8
0
 10
2.29437
 20
-0.992859
 11
2.26205
 21
-1.06444
  0
LINE
  8
0
 10
2.26205
 20
-1.06444
 11
2.22751
 21
-1.13496
  0
LINE
  8
0
 10
2.22751
 20
-1.13496
 11
2.19077
 21
-1.20438
  0
LINE
  8
0
 10
2.19077
 20
-1.20438
 11
2.15184
 21
-1.2726
  0
LINE
  8
0
 10
2.15184
 20
-1.2726
 11
2.11081
 21
-1.33955
  0
LINE
  8
0
 10
2.11081
 20
-1.33955
 11
2.06769
 21
-1.4052
  0
LINE
  8
0
 10
2.06769
 20
-1.4052
 11
1.9996
 21
-1.5
  0
LINE
  8
0
 10
1.9996
 20
-1.5
 11
-1.9996
 21
-1.5
  0
ENDSEC
  0
SECTION
  2
OBJECTS
  0
DICTIONARY
  0
ENDSEC
  0
EOF
