  0
SECTION
  2
BLOCKS
  0
ENDSEC
  0
SECTION
  2
ENTITIES
  0
LINE
  8
0
 10
-0.128357
 20
-15.9815
 11
0.0119629
 21
-15.7273
  0
LINE
  8
0
 10
0.0119629
 20
-15.7273
 11
0.133408
 21
-15.4861
  0
LINE
  8
0
 10
0.133408
 20
-15.4861
 11
0.237167
 21
-15.2589
  0
LINE
  8
0
 10
0.237167
 20
-15.2589
 11
0.324478
 21
-15.0465
  0
LINE
  8
0
 10
0.324478
 20
-15.0465
 11
0.324387
 21
-15.0419
  0
LINE
  8
0
 10
0.324387
 20
-15.0419
 11
0.425797
 21
-15.0394
  0
LINE
  8
0
 10
0.425797
 20
-15.0394
 11
0.425919
 21
-15.0439
  0
LINE
  8
0
 10
0.425919
 20
-15.0439
 11
0.523712
 21
-15.2517
  0
LINE
  8
0
 10
0.523712
 20
-15.2517
 11
0.638657
 21
-15.4735
  0
LINE
  8
0
 10
0.638657
 20
-15.4735
 11
0.771973
 21
-15.7084
  0
LINE
  8
0
 10
0.771973
 20
-15.7084
 11
0.924805
 21
-15.9552
  0
LINE
  8
0
 10
0.924805
 20
-15.9552
 11
1.09821
 21
-16.2128
  0
LINE
  8
0
 10
1.09821
 20
-16.2128
 11
1.33044
 21
-16.1954
  0
LINE
  8
0
 10
1.33044
 20
-16.1954
 11
1.46352
 21
-15.9148
  0
LINE
  8
0
 10
1.46352
 20
-15.9148
 11
1.57785
 21
-15.648
  0
LINE
  8
0
 10
1.57785
 20
-15.648
 11
1.67467
 21
-15.3959
  0
LINE
  8
0
 10
1.67467
 20
-15.3959
 11
1.75528
 21
-15.1594
  0
LINE
  8
0
 10
1.75528
 20
-15.1594
 11
1.82101
 21
-14.9394
  0
LINE
  8
0
 10
1.82101
 20
-14.9394
 11
1.82047
 21
-14.9349
  0
LINE
  8
0
 10
1.82047
 20
-14.9349
 11
1.92111
 21
-14.9222
  0
LINE
  8
0
 10
1.92111
 20
-14.9222
 11
1.92169
 21
-14.9268
  0
LINE
  8
0
 10
1.92169
 20
-14.9268
 11
2.03969
 21
-15.1238
  0
LINE
  8
0
 10
2.03969
 20
-15.1238
 11
2.17615
 21
-15.333
  0
LINE
  8
0
 10
2.17615
 20
-15.333
 11
2.33218
 21
-15.5535
  0
LINE
  8
0
 10
2.33218
 20
-15.5535
 11
2.50883
 21
-15.7838
  0
LINE
  8
0
 10
2.50883
 20
-15.7838
 11
2.70703
 21
-16.0229
  0
LINE
  8
0
 10
2.70703
 20
-16.0229
 11
2.93637
 21
-15.9825
  0
LINE
  8
0
 10
2.93637
 20
-15.9825
 11
3.04085
 21
-15.69
  0
LINE
  8
0
 10
3.04085
 20
-15.69
 11
3.12805
 21
-15.4131
  0
LINE
  8
0
 10
3.12805
 20
-15.4131
 11
3.19928
 21
-15.1526
  0
LINE
  8
0
 10
3.19928
 20
-15.1526
 11
3.25594
 21
-14.9093
  0
LINE
  8
0
 10
3.25594
 20
-14.9093
 11
3.29945
 21
-14.6839
  0
LINE
  8
0
 10
3.29945
 20
-14.6839
 11
3.29845
 21
-14.6794
  0
LINE
  8
0
 10
3.29845
 20
-14.6794
 11
3.39732
 21
-14.6568
  0
LINE
  8
0
 10
3.39732
 20
-14.6568
 11
3.39836
 21
-14.6613
  0
LINE
  8
0
 10
3.39836
 20
-14.6613
 11
3.5354
 21
-14.8455
  0
LINE
  8
0
 10
3.5354
 20
-14.8455
 11
3.69202
 21
-15.0402
  0
LINE
  8
0
 10
3.69202
 20
-15.0402
 11
3.86923
 21
-15.244
  0
LINE
  8
0
 10
3.86923
 20
-15.244
 11
4.06793
 21
-15.4556
  0
LINE
  8
0
 10
4.06793
 20
-15.4556
 11
4.28894
 21
-15.6738
  0
LINE
  8
0
 10
4.28894
 20
-15.6738
 11
4.51312
 21
-15.6107
  0
LINE
  8
0
 10
4.51312
 20
-15.6107
 11
4.58797
 21
-15.3093
  0
LINE
  8
0
 10
4.58797
 20
-15.3093
 11
4.64716
 21
-15.0251
  0
LINE
  8
0
 10
4.64716
 20
-15.0251
 11
4.69209
 21
-14.7588
  0
LINE
  8
0
 10
4.69209
 20
-14.7588
 11
4.72424
 21
-14.511
  0
LINE
  8
0
 10
4.72424
 20
-14.511
 11
4.7451
 21
-14.2824
  0
LINE
  8
0
 10
4.7451
 20
-14.2824
 11
4.74365
 21
-14.278
  0
LINE
  8
0
 10
4.74365
 20
-14.278
 11
4.8398
 21
-14.2457
  0
LINE
  8
0
 10
4.8398
 20
-14.2457
 11
4.84128
 21
-14.25
  0
LINE
  8
0
 10
4.84128
 20
-14.25
 11
4.99596
 21
-14.4197
  0
LINE
  8
0
 10
4.99596
 20
-14.4197
 11
5.17119
 21
-14.5978
  0
LINE
  8
0
 10
5.17119
 20
-14.5978
 11
5.36781
 21
-14.783
  0
LINE
  8
0
 10
5.36781
 20
-14.783
 11
5.58659
 21
-14.9738
  0
LINE
  8
0
 10
5.58659
 20
-14.9738
 11
5.82823
 21
-15.1688
  0
LINE
  8
0
 10
5.82823
 20
-15.1688
 11
6.04501
 21
-15.0838
  0
LINE
  8
0
 10
6.04501
 20
-15.0838
 11
6.08948
 21
-14.7764
  0
LINE
  8
0
 10
6.08948
 20
-14.7764
 11
6.12009
 21
-14.4877
  0
LINE
  8
0
 10
6.12009
 20
-14.4877
 11
6.13828
 21
-14.2183
  0
LINE
  8
0
 10
6.13828
 20
-14.2183
 11
6.14561
 21
-13.9685
  0
LINE
  8
0
 10
6.14561
 20
-13.9685
 11
6.14359
 21
-13.7389
  0
LINE
  8
0
 10
6.14359
 20
-13.7389
 11
6.14171
 21
-13.7347
  0
LINE
  8
0
 10
6.14171
 20
-13.7347
 11
6.23416
 21
-13.693
  0
LINE
  8
0
 10
6.23416
 20
-13.693
 11
6.23607
 21
-13.6972
  0
LINE
  8
0
 10
6.23607
 20
-13.6972
 11
6.40688
 21
-13.8506
  0
LINE
  8
0
 10
6.40688
 20
-13.8506
 11
6.59897
 21
-14.0104
  0
LINE
  8
0
 10
6.59897
 20
-14.0104
 11
6.81305
 21
-14.175
  0
LINE
  8
0
 10
6.81305
 20
-14.175
 11
7.04974
 21
-14.3431
  0
LINE
  8
0
 10
7.04974
 20
-14.3431
 11
7.3096
 21
-14.5132
  0
LINE
  8
0
 10
7.3096
 20
-14.5132
 11
7.51683
 21
-14.4069
  0
LINE
  8
0
 10
7.51683
 20
-14.4069
 11
7.53047
 21
-14.0967
  0
LINE
  8
0
 10
7.53047
 20
-14.0967
 11
7.53218
 21
-13.8064
  0
LINE
  8
0
 10
7.53218
 20
-13.8064
 11
7.52347
 21
-13.5364
  0
LINE
  8
0
 10
7.52347
 20
-13.5364
 11
7.50589
 21
-13.2872
  0
LINE
  8
0
 10
7.50589
 20
-13.2872
 11
7.481
 21
-13.059
  0
LINE
  8
0
 10
7.481
 20
-13.059
 11
7.47873
 21
-13.055
  0
LINE
  8
0
 10
7.47873
 20
-13.055
 11
7.56657
 21
-13.0043
  0
LINE
  8
0
 10
7.56657
 20
-13.0043
 11
7.56888
 21
-13.0082
  0
LINE
  8
0
 10
7.56888
 20
-13.0082
 11
7.75412
 21
-13.1439
  0
LINE
  8
0
 10
7.75412
 20
-13.1439
 11
7.96115
 21
-13.2837
  0
LINE
  8
0
 10
7.96115
 20
-13.2837
 11
8.19057
 21
-13.4262
  0
LINE
  8
0
 10
8.19057
 20
-13.4262
 11
8.44283
 21
-13.5699
  0
LINE
  8
0
 10
8.44283
 20
-13.5699
 11
8.71832
 21
-13.7132
  0
LINE
  8
0
 10
8.71832
 20
-13.7132
 11
8.91396
 21
-13.5869
  0
LINE
  8
0
 10
8.91396
 20
-13.5869
 11
8.89664
 21
-13.2768
  0
LINE
  8
0
 10
8.89664
 20
-13.2768
 11
8.86943
 21
-12.9878
  0
LINE
  8
0
 10
8.86943
 20
-12.9878
 11
8.83386
 21
-12.7201
  0
LINE
  8
0
 10
8.83386
 20
-12.7201
 11
8.79156
 21
-12.4738
  0
LINE
  8
0
 10
8.79156
 20
-12.4738
 11
8.74409
 21
-12.2492
  0
LINE
  8
0
 10
8.74409
 20
-12.2492
 11
8.74144
 21
-12.2455
  0
LINE
  8
0
 10
8.74144
 20
-12.2455
 11
8.82378
 21
-12.1863
  0
LINE
  8
0
 10
8.82378
 20
-12.1863
 11
8.82646
 21
-12.19
  0
LINE
  8
0
 10
8.82646
 20
-12.19
 11
9.02431
 21
-12.3065
  0
LINE
  8
0
 10
9.02431
 20
-12.3065
 11
9.24423
 21
-12.425
  0
LINE
  8
0
 10
9.24423
 20
-12.425
 11
9.48669
 21
-12.544
  0
LINE
  8
0
 10
9.48669
 20
-12.544
 11
9.752
 21
-12.6618
  0
LINE
  8
0
 10
9.752
 20
-12.6618
 11
10.0404
 21
-12.777
  0
LINE
  8
0
 10
10.0404
 20
-12.777
 11
10.2225
 21
-12.6318
  0
LINE
  8
0
 10
10.2225
 20
-12.6318
 11
10.1744
 21
-12.325
  0
LINE
  8
0
 10
10.1744
 20
-12.325
 11
10.1185
 21
-12.0401
  0
LINE
  8
0
 10
10.1185
 20
-12.0401
 11
10.0565
 21
-11.7773
  0
LINE
  8
0
 10
10.0565
 20
-11.7773
 11
9.98988
 21
-11.5365
  0
LINE
  8
0
 10
9.98988
 20
-11.5365
 11
9.92026
 21
-11.3177
  0
LINE
  8
0
 10
9.92026
 20
-11.3177
 11
9.91725
 21
-11.3143
  0
LINE
  8
0
 10
9.91725
 20
-11.3143
 11
9.99329
 21
-11.2471
  0
LINE
  8
0
 10
9.99329
 20
-11.2471
 11
9.99634
 21
-11.2506
  0
LINE
  8
0
 10
9.99634
 20
-11.2506
 11
10.2048
 21
-11.3468
  0
LINE
  8
0
 10
10.2048
 20
-11.3468
 11
10.4354
 21
-11.4429
  0
LINE
  8
0
 10
10.4354
 20
-11.4429
 11
10.6885
 21
-11.5371
  0
LINE
  8
0
 10
10.6885
 20
-11.5371
 11
10.9643
 21
-11.6279
  0
LINE
  8
0
 10
10.9643
 20
-11.6279
 11
11.2627
 21
-11.7138
  0
LINE
  8
0
 10
11.2627
 20
-11.7138
 11
11.4294
 21
-11.5512
  0
LINE
  8
0
 10
11.4294
 20
-11.5512
 11
11.351
 21
-11.2507
  0
LINE
  8
0
 10
11.351
 20
-11.2507
 11
11.267
 21
-10.9728
  0
LINE
  8
0
 10
11.267
 20
-10.9728
 11
11.1792
 21
-10.7175
  0
LINE
  8
0
 10
11.1792
 20
-10.7175
 11
11.0889
 21
-10.4845
  0
LINE
  8
0
 10
11.0889
 20
-10.4845
 11
10.9978
 21
-10.2737
  0
LINE
  8
0
 10
10.9978
 20
-10.2737
 11
10.9945
 21
-10.2706
  0
LINE
  8
0
 10
10.9945
 20
-10.2706
 11
11.0635
 21
-10.1962
  0
LINE
  8
0
 10
11.0635
 20
-10.1962
 11
11.0668
 21
-10.1993
  0
LINE
  8
0
 10
11.0668
 20
-10.1993
 11
11.2839
 21
-10.2744
  0
LINE
  8
0
 10
11.2839
 20
-10.2744
 11
11.5229
 21
-10.347
  0
LINE
  8
0
 10
11.5229
 20
-10.347
 11
11.7841
 21
-10.4155
  0
LINE
  8
0
 10
11.7841
 20
-10.4155
 11
12.0676
 21
-10.4785
  0
LINE
  8
0
 10
12.0676
 20
-10.4785
 11
12.373
 21
-10.5342
  0
LINE
  8
0
 10
12.373
 20
-10.5342
 11
12.5227
 21
-10.3558
  0
LINE
  8
0
 10
12.5227
 20
-10.3558
 11
12.4148
 21
-10.0646
  0
LINE
  8
0
 10
12.4148
 20
-10.0646
 11
12.3036
 21
-9.79648
  0
LINE
  8
0
 10
12.3036
 20
-9.79648
 11
12.1907
 21
-9.55112
  0
LINE
  8
0
 10
12.1907
 20
-9.55112
 11
12.0777
 21
-9.32831
  0
LINE
  8
0
 10
12.0777
 20
-9.32831
 11
11.9661
 21
-9.12762
  0
LINE
  8
0
 10
11.9661
 20
-9.12762
 11
11.9625
 21
-9.12485
  0
LINE
  8
0
 10
11.9625
 20
-9.12485
 11
12.0237
 21
-9.04401
  0
LINE
  8
0
 10
12.0237
 20
-9.04401
 11
12.0274
 21
-9.04675
  0
LINE
  8
0
 10
12.0274
 20
-9.04675
 11
12.2508
 21
-9.09982
  0
LINE
  8
0
 10
12.2508
 20
-9.09982
 11
12.4959
 21
-9.14824
  0
LINE
  8
0
 10
12.4959
 20
-9.14824
 11
12.7626
 21
-9.19046
  0
LINE
  8
0
 10
12.7626
 20
-9.19046
 11
13.0509
 21
-9.22487
  0
LINE
  8
0
 10
13.0509
 20
-9.22487
 11
13.3604
 21
-9.24991
  0
LINE
  8
0
 10
13.3604
 20
-9.24991
 11
13.4916
 21
-9.0575
  0
LINE
  8
0
 10
13.4916
 20
-9.0575
 11
13.3552
 21
-8.77852
  0
LINE
  8
0
 10
13.3552
 20
-8.77852
 11
13.2179
 21
-8.52275
  0
LINE
  8
0
 10
13.2179
 20
-8.52275
 11
13.0811
 21
-8.28986
  0
LINE
  8
0
 10
13.0811
 20
-8.28986
 11
12.9465
 21
-8.07941
  0
LINE
  8
0
 10
12.9465
 20
-8.07941
 11
12.8155
 21
-7.89082
  0
LINE
  8
0
 10
12.8155
 20
-7.89082
 11
12.8116
 21
-7.88843
  0
LINE
  8
0
 10
12.8116
 20
-7.88843
 11
12.8645
 21
-7.80188
  0
LINE
  8
0
 10
12.8645
 20
-7.80188
 11
12.8684
 21
-7.80426
  0
LINE
  8
0
 10
12.8684
 20
-7.80426
 11
13.096
 21
-7.83481
  0
LINE
  8
0
 10
13.096
 20
-7.83481
 11
13.3447
 21
-7.8586
  0
LINE
  8
0
 10
13.3447
 20
-7.8586
 11
13.6143
 21
-7.87404
  0
LINE
  8
0
 10
13.6143
 20
-7.87404
 11
13.9045
 21
-7.87958
  0
LINE
  8
0
 10
13.9045
 20
-7.87958
 11
14.215
 21
-7.87367
  0
LINE
  8
0
 10
14.215
 20
-7.87367
 11
14.3264
 21
-7.66916
  0
LINE
  8
0
 10
14.3264
 20
-7.66916
 11
14.1629
 21
-7.40514
  0
LINE
  8
0
 10
14.1629
 20
-7.40514
 11
14.0008
 21
-7.16432
  0
LINE
  8
0
 10
14.0008
 20
-7.16432
 11
13.8415
 21
-6.9462
  0
LINE
  8
0
 10
13.8415
 20
-6.9462
 11
13.6866
 21
-6.7502
  0
LINE
  8
0
 10
13.6866
 20
-6.7502
 11
13.5375
 21
-6.57561
  0
LINE
  8
0
 10
13.5375
 20
-6.57561
 11
13.5334
 21
-6.57361
  0
LINE
  8
0
 10
13.5334
 20
-6.57361
 11
13.5774
 21
-6.48222
  0
LINE
  8
0
 10
13.5774
 20
-6.48222
 11
13.5815
 21
-6.48419
  0
LINE
  8
0
 10
13.5815
 20
-6.48419
 11
13.811
 21
-6.49194
  0
LINE
  8
0
 10
13.811
 20
-6.49194
 11
14.0608
 21
-6.49084
  0
LINE
  8
0
 10
14.0608
 20
-6.49084
 11
14.3306
 21
-6.47937
  0
LINE
  8
0
 10
14.3306
 20
-6.47937
 11
14.62
 21
-6.45598
  0
LINE
  8
0
 10
14.62
 20
-6.45598
 11
14.9284
 21
-6.41919
  0
LINE
  8
0
 10
14.9284
 20
-6.41919
 11
15.0188
 21
-6.20459
  0
LINE
  8
0
 10
15.0188
 20
-6.20459
 11
14.8298
 21
-5.95818
  0
LINE
  8
0
 10
14.8298
 20
-5.95818
 11
14.6445
 21
-5.7347
  0
LINE
  8
0
 10
14.6445
 20
-5.7347
 11
14.4644
 21
-5.53351
  0
LINE
  8
0
 10
14.4644
 20
-5.53351
 11
14.2907
 21
-5.35391
  0
LINE
  8
0
 10
14.2907
 20
-5.35391
 11
14.1249
 21
-5.19504
  0
LINE
  8
0
 10
14.1249
 20
-5.19504
 11
14.1206
 21
-5.19345
  0
LINE
  8
0
 10
14.1206
 20
-5.19345
 11
14.1553
 21
-5.09813
  0
LINE
  8
0
 10
14.1553
 20
-5.09813
 11
14.1596
 21
-5.09969
  0
LINE
  8
0
 10
14.1596
 20
-5.09969
 11
14.3887
 21
-5.08455
  0
LINE
  8
0
 10
14.3887
 20
-5.08455
 11
14.6372
 21
-5.05858
  0
LINE
  8
0
 10
14.6372
 20
-5.05858
 11
14.9046
 21
-5.02029
  0
LINE
  8
0
 10
14.9046
 20
-5.02029
 11
15.1902
 21
-4.96822
  0
LINE
  8
0
 10
15.1902
 20
-4.96822
 11
15.4933
 21
-4.90091
  0
LINE
  8
0
 10
15.4933
 20
-4.90091
 11
15.562
 21
-4.67838
  0
LINE
  8
0
 10
15.562
 20
-4.67838
 11
15.3494
 21
-4.45198
  0
LINE
  8
0
 10
15.3494
 20
-4.45198
 11
15.1428
 21
-4.24806
  0
LINE
  8
0
 10
15.1428
 20
-4.24806
 11
14.9434
 21
-4.06583
  0
LINE
  8
0
 10
14.9434
 20
-4.06583
 11
14.7528
 21
-3.9044
  0
LINE
  8
0
 10
14.7528
 20
-3.9044
 11
14.572
 21
-3.76283
  0
LINE
  8
0
 10
14.572
 20
-3.76283
 11
14.5676
 21
-3.76169
  0
LINE
  8
0
 10
14.5676
 20
-3.76169
 11
14.5926
 21
-3.66339
  0
LINE
  8
0
 10
14.5926
 20
-3.66339
 11
14.597
 21
-3.66451
  0
LINE
  8
0
 10
14.597
 20
-3.66451
 11
14.8235
 21
-3.62663
  0
LINE
  8
0
 10
14.8235
 20
-3.62663
 11
15.0682
 21
-3.57605
  0
LINE
  8
0
 10
15.0682
 20
-3.57605
 11
15.3304
 21
-3.51134
  0
LINE
  8
0
 10
15.3304
 20
-3.51134
 11
15.6094
 21
-3.43106
  0
LINE
  8
0
 10
15.6094
 20
-3.43106
 11
15.9043
 21
-3.33391
  0
LINE
  8
0
 10
15.9043
 20
-3.33391
 11
15.9505
 21
-3.10565
  0
LINE
  8
0
 10
15.9505
 20
-3.10565
 11
15.7164
 21
-2.90155
  0
LINE
  8
0
 10
15.7164
 20
-2.90155
 11
15.4905
 21
-2.71922
  0
LINE
  8
0
 10
15.4905
 20
-2.71922
 11
15.274
 21
-2.55774
  0
LINE
  8
0
 10
15.274
 20
-2.55774
 11
15.0682
 21
-2.41611
  0
LINE
  8
0
 10
15.0682
 20
-2.41611
 11
14.8742
 21
-2.29323
  0
LINE
  8
0
 10
14.8742
 20
-2.29323
 11
14.8697
 21
-2.29253
  0
LINE
  8
0
 10
14.8697
 20
-2.29253
 11
14.8848
 21
-2.19223
  0
LINE
  8
0
 10
14.8848
 20
-2.19223
 11
14.8894
 21
-2.1929
  0
LINE
  8
0
 10
14.8894
 20
-2.1929
 11
15.1109
 21
-2.13266
  0
LINE
  8
0
 10
15.1109
 20
-2.13266
 11
15.3493
 21
-2.05797
  0
LINE
  8
0
 10
15.3493
 20
-2.05797
 11
15.6038
 21
-1.96747
  0
LINE
  8
0
 10
15.6038
 20
-1.96747
 11
15.8734
 21
-1.85983
  0
LINE
  8
0
 10
15.8734
 20
-1.85983
 11
16.1572
 21
-1.7338
  0
LINE
  8
0
 10
16.1572
 20
-1.7338
 11
16.1804
 21
-1.50206
  0
LINE
  8
0
 10
16.1804
 20
-1.50206
 11
15.9272
 21
-1.3223
  0
LINE
  8
0
 10
15.9272
 20
-1.3223
 11
15.6843
 21
-1.16336
  0
LINE
  8
0
 10
15.6843
 20
-1.16336
 11
15.4528
 21
-1.02423
  0
LINE
  8
0
 10
15.4528
 20
-1.02423
 11
15.2339
 21
-0.903778
  0
LINE
  8
0
 10
15.2339
 20
-0.903778
 11
15.0287
 21
-0.800842
  0
LINE
  8
0
 10
15.0287
 20
-0.800842
 11
15.0241
 21
-0.800598
  0
LINE
  8
0
 10
15.0241
 20
-0.800598
 11
15.0291
 21
-0.699295
  0
LINE
  8
0
 10
15.0291
 20
-0.699295
 11
15.0337
 21
-0.699509
  0
LINE
  8
0
 10
15.0337
 20
-0.699509
 11
15.2482
 21
-0.617508
  0
LINE
  8
0
 10
15.2482
 20
-0.617508
 11
15.478
 21
-0.519455
  0
LINE
  8
0
 10
15.478
 20
-0.519455
 11
15.7222
 21
-0.404068
  0
LINE
  8
0
 10
15.7222
 20
-0.404068
 11
15.9797
 21
-0.270111
  0
LINE
  8
0
 10
15.9797
 20
-0.270111
 11
16.2496
 21
-0.11644
  0
LINE
  8
0
 10
16.2496
 20
-0.11644
 11
16.2496
 21
0.116425
  0
LINE
  8
0
 10
16.2496
 20
0.116425
 11
15.9797
 21
0.270096
  0
LINE
  8
0
 10
15.9797
 20
0.270096
 11
15.7222
 21
0.404053
  0
LINE
  8
0
 10
15.7222
 20
0.404053
 11
15.478
 21
0.51944
  0
LINE
  8
0
 10
15.478
 20
0.51944
 11
15.2482
 21
0.617493
  0
LINE
  8
0
 10
15.2482
 20
0.617493
 11
15.0337
 21
0.699493
  0
LINE
  8
0
 10
15.0337
 20
0.699493
 11
15.0291
 21
0.69928
  0
LINE
  8
0
 10
15.0291
 20
0.69928
 11
15.0241
 21
0.800598
  0
LINE
  8
0
 10
15.0241
 20
0.800598
 11
15.0287
 21
0.800842
  0
LINE
  8
0
 10
15.0287
 20
0.800842
 11
15.2339
 21
0.903778
  0
LINE
  8
0
 10
15.2339
 20
0.903778
 11
15.4528
 21
1.02423
  0
LINE
  8
0
 10
15.4528
 20
1.02423
 11
15.6843
 21
1.16336
  0
LINE
  8
0
 10
15.6843
 20
1.16336
 11
15.9272
 21
1.3223
  0
LINE
  8
0
 10
15.9272
 20
1.3223
 11
16.1804
 21
1.50206
  0
LINE
  8
0
 10
16.1804
 20
1.50206
 11
16.1572
 21
1.7338
  0
LINE
  8
0
 10
16.1572
 20
1.7338
 11
15.8734
 21
1.85983
  0
LINE
  8
0
 10
15.8734
 20
1.85983
 11
15.6038
 21
1.96747
  0
LINE
  8
0
 10
15.6038
 20
1.96747
 11
15.3493
 21
2.05797
  0
LINE
  8
0
 10
15.3493
 20
2.05797
 11
15.1109
 21
2.13266
  0
LINE
  8
0
 10
15.1109
 20
2.13266
 11
14.8894
 21
2.1929
  0
LINE
  8
0
 10
14.8894
 20
2.1929
 11
14.8848
 21
2.19223
  0
LINE
  8
0
 10
14.8848
 20
2.19223
 11
14.8697
 21
2.29253
  0
LINE
  8
0
 10
14.8697
 20
2.29253
 11
14.8742
 21
2.29323
  0
LINE
  8
0
 10
14.8742
 20
2.29323
 11
15.0682
 21
2.41611
  0
LINE
  8
0
 10
15.0682
 20
2.41611
 11
15.274
 21
2.55774
  0
LINE
  8
0
 10
15.274
 20
2.55774
 11
15.4905
 21
2.71922
  0
LINE
  8
0
 10
15.4905
 20
2.71922
 11
15.7164
 21
2.90155
  0
LINE
  8
0
 10
15.7164
 20
2.90155
 11
15.9505
 21
3.10565
  0
LINE
  8
0
 10
15.9505
 20
3.10565
 11
15.9043
 21
3.33391
  0
LINE
  8
0
 10
15.9043
 20
3.33391
 11
15.6094
 21
3.43106
  0
LINE
  8
0
 10
15.6094
 20
3.43106
 11
15.3304
 21
3.51134
  0
LINE
  8
0
 10
15.3304
 20
3.51134
 11
15.0682
 21
3.57605
  0
LINE
  8
0
 10
15.0682
 20
3.57605
 11
14.8235
 21
3.62663
  0
LINE
  8
0
 10
14.8235
 20
3.62663
 11
14.597
 21
3.66451
  0
LINE
  8
0
 10
14.597
 20
3.66451
 11
14.5926
 21
3.66339
  0
LINE
  8
0
 10
14.5926
 20
3.66339
 11
14.5676
 21
3.76169
  0
LINE
  8
0
 10
14.5676
 20
3.76169
 11
14.572
 21
3.76283
  0
LINE
  8
0
 10
14.572
 20
3.76283
 11
14.7528
 21
3.9044
  0
LINE
  8
0
 10
14.7528
 20
3.9044
 11
14.9434
 21
4.06583
  0
LINE
  8
0
 10
14.9434
 20
4.06583
 11
15.1428
 21
4.24806
  0
LINE
  8
0
 10
15.1428
 20
4.24806
 11
15.3494
 21
4.45198
  0
LINE
  8
0
 10
15.3494
 20
4.45198
 11
15.562
 21
4.67838
  0
LINE
  8
0
 10
15.562
 20
4.67838
 11
15.4933
 21
4.90091
  0
LINE
  8
0
 10
15.4933
 20
4.90091
 11
15.1902
 21
4.96822
  0
LINE
  8
0
 10
15.1902
 20
4.96822
 11
14.9046
 21
5.02029
  0
LINE
  8
0
 10
14.9046
 20
5.02029
 11
14.6372
 21
5.05858
  0
LINE
  8
0
 10
14.6372
 20
5.05858
 11
14.3887
 21
5.08455
  0
LINE
  8
0
 10
14.3887
 20
5.08455
 11
14.1596
 21
5.09969
  0
LINE
  8
0
 10
14.1596
 20
5.09969
 11
14.1553
 21
5.09813
  0
LINE
  8
0
 10
14.1553
 20
5.09813
 11
14.1206
 21
5.19345
  0
LINE
  8
0
 10
14.1206
 20
5.19345
 11
14.1249
 21
5.19504
  0
LINE
  8
0
 10
14.1249
 20
5.19504
 11
14.2907
 21
5.35391
  0
LINE
  8
0
 10
14.2907
 20
5.35391
 11
14.4644
 21
5.53351
  0
LINE
  8
0
 10
14.4644
 20
5.53351
 11
14.6445
 21
5.7347
  0
LINE
  8
0
 10
14.6445
 20
5.7347
 11
14.8298
 21
5.95818
  0
LINE
  8
0
 10
14.8298
 20
5.95818
 11
15.0188
 21
6.20459
  0
LINE
  8
0
 10
15.0188
 20
6.20459
 11
14.9284
 21
6.41919
  0
LINE
  8
0
 10
14.9284
 20
6.41919
 11
14.62
 21
6.45598
  0
LINE
  8
0
 10
14.62
 20
6.45598
 11
14.3306
 21
6.47937
  0
LINE
  8
0
 10
14.3306
 20
6.47937
 11
14.0608
 21
6.49084
  0
LINE
  8
0
 10
14.0608
 20
6.49084
 11
13.811
 21
6.49194
  0
LINE
  8
0
 10
13.811
 20
6.49194
 11
13.5815
 21
6.48419
  0
LINE
  8
0
 10
13.5815
 20
6.48419
 11
13.5774
 21
6.48222
  0
LINE
  8
0
 10
13.5774
 20
6.48222
 11
13.5334
 21
6.57361
  0
LINE
  8
0
 10
13.5334
 20
6.57361
 11
13.5375
 21
6.57561
  0
LINE
  8
0
 10
13.5375
 20
6.57561
 11
13.6866
 21
6.7502
  0
LINE
  8
0
 10
13.6866
 20
6.7502
 11
13.8415
 21
6.9462
  0
LINE
  8
0
 10
13.8415
 20
6.9462
 11
14.0008
 21
7.16432
  0
LINE
  8
0
 10
14.0008
 20
7.16432
 11
14.1629
 21
7.40514
  0
LINE
  8
0
 10
14.1629
 20
7.40514
 11
14.3264
 21
7.66916
  0
LINE
  8
0
 10
14.3264
 20
7.66916
 11
14.215
 21
7.87367
  0
LINE
  8
0
 10
14.215
 20
7.87367
 11
13.9045
 21
7.87958
  0
LINE
  8
0
 10
13.9045
 20
7.87958
 11
13.6143
 21
7.87404
  0
LINE
  8
0
 10
13.6143
 20
7.87404
 11
13.3447
 21
7.8586
  0
LINE
  8
0
 10
13.3447
 20
7.8586
 11
13.096
 21
7.83481
  0
LINE
  8
0
 10
13.096
 20
7.83481
 11
12.8684
 21
7.80426
  0
LINE
  8
0
 10
12.8684
 20
7.80426
 11
12.8645
 21
7.80188
  0
LINE
  8
0
 10
12.8645
 20
7.80188
 11
12.8116
 21
7.88843
  0
LINE
  8
0
 10
12.8116
 20
7.88843
 11
12.8155
 21
7.89082
  0
LINE
  8
0
 10
12.8155
 20
7.89082
 11
12.9465
 21
8.07941
  0
LINE
  8
0
 10
12.9465
 20
8.07941
 11
13.0811
 21
8.28986
  0
LINE
  8
0
 10
13.0811
 20
8.28986
 11
13.2179
 21
8.52275
  0
LINE
  8
0
 10
13.2179
 20
8.52275
 11
13.3552
 21
8.77852
  0
LINE
  8
0
 10
13.3552
 20
8.77852
 11
13.4916
 21
9.0575
  0
LINE
  8
0
 10
13.4916
 20
9.0575
 11
13.3604
 21
9.24991
  0
LINE
  8
0
 10
13.3604
 20
9.24991
 11
13.0509
 21
9.22487
  0
LINE
  8
0
 10
13.0509
 20
9.22487
 11
12.7626
 21
9.19046
  0
LINE
  8
0
 10
12.7626
 20
9.19046
 11
12.4959
 21
9.14824
  0
LINE
  8
0
 10
12.4959
 20
9.14824
 11
12.2508
 21
9.09982
  0
LINE
  8
0
 10
12.2508
 20
9.09982
 11
12.0274
 21
9.04675
  0
LINE
  8
0
 10
12.0274
 20
9.04675
 11
12.0237
 21
9.04401
  0
LINE
  8
0
 10
12.0237
 20
9.04401
 11
11.9625
 21
9.12485
  0
LINE
  8
0
 10
11.9625
 20
9.12485
 11
11.9661
 21
9.12762
  0
LINE
  8
0
 10
11.9661
 20
9.12762
 11
12.0777
 21
9.32831
  0
LINE
  8
0
 10
12.0777
 20
9.32831
 11
12.1907
 21
9.55112
  0
LINE
  8
0
 10
12.1907
 20
9.55112
 11
12.3036
 21
9.79648
  0
LINE
  8
0
 10
12.3036
 20
9.79648
 11
12.4148
 21
10.0646
  0
LINE
  8
0
 10
12.4148
 20
10.0646
 11
12.5227
 21
10.3558
  0
LINE
  8
0
 10
12.5227
 20
10.3558
 11
12.373
 21
10.5342
  0
LINE
  8
0
 10
12.373
 20
10.5342
 11
12.0676
 21
10.4785
  0
LINE
  8
0
 10
12.0676
 20
10.4785
 11
11.7841
 21
10.4155
  0
LINE
  8
0
 10
11.7841
 20
10.4155
 11
11.5229
 21
10.347
  0
LINE
  8
0
 10
11.5229
 20
10.347
 11
11.2839
 21
10.2744
  0
LINE
  8
0
 10
11.2839
 20
10.2744
 11
11.0668
 21
10.1993
  0
LINE
  8
0
 10
11.0668
 20
10.1993
 11
11.0635
 21
10.1962
  0
LINE
  8
0
 10
11.0635
 20
10.1962
 11
10.9945
 21
10.2706
  0
LINE
  8
0
 10
10.9945
 20
10.2706
 11
10.9978
 21
10.2737
  0
LINE
  8
0
 10
10.9978
 20
10.2737
 11
11.0889
 21
10.4845
  0
LINE
  8
0
 10
11.0889
 20
10.4845
 11
11.1792
 21
10.7175
  0
LINE
  8
0
 10
11.1792
 20
10.7175
 11
11.267
 21
10.9728
  0
LINE
  8
0
 10
11.267
 20
10.9728
 11
11.351
 21
11.2507
  0
LINE
  8
0
 10
11.351
 20
11.2507
 11
11.4294
 21
11.5512
  0
LINE
  8
0
 10
11.4294
 20
11.5512
 11
11.2627
 21
11.7138
  0
LINE
  8
0
 10
11.2627
 20
11.7138
 11
10.9643
 21
11.6279
  0
LINE
  8
0
 10
10.9643
 20
11.6279
 11
10.6885
 21
11.5371
  0
LINE
  8
0
 10
10.6885
 20
11.5371
 11
10.4354
 21
11.4429
  0
LINE
  8
0
 10
10.4354
 20
11.4429
 11
10.2048
 21
11.3468
  0
LINE
  8
0
 10
10.2048
 20
11.3468
 11
9.99634
 21
11.2506
  0
LINE
  8
0
 10
9.99634
 20
11.2506
 11
9.99329
 21
11.2471
  0
LINE
  8
0
 10
9.99329
 20
11.2471
 11
9.91725
 21
11.3143
  0
LINE
  8
0
 10
9.91725
 20
11.3143
 11
9.92026
 21
11.3177
  0
LINE
  8
0
 10
9.92026
 20
11.3177
 11
9.98988
 21
11.5365
  0
LINE
  8
0
 10
9.98988
 20
11.5365
 11
10.0565
 21
11.7773
  0
LINE
  8
0
 10
10.0565
 20
11.7773
 11
10.1185
 21
12.0401
  0
LINE
  8
0
 10
10.1185
 20
12.0401
 11
10.1744
 21
12.325
  0
LINE
  8
0
 10
10.1744
 20
12.325
 11
10.2225
 21
12.6318
  0
LINE
  8
0
 10
10.2225
 20
12.6318
 11
10.0404
 21
12.777
  0
LINE
  8
0
 10
10.0404
 20
12.777
 11
9.752
 21
12.6618
  0
LINE
  8
0
 10
9.752
 20
12.6618
 11
9.48669
 21
12.544
  0
LINE
  8
0
 10
9.48669
 20
12.544
 11
9.24423
 21
12.425
  0
LINE
  8
0
 10
9.24423
 20
12.425
 11
9.02431
 21
12.3065
  0
LINE
  8
0
 10
9.02431
 20
12.3065
 11
8.82646
 21
12.19
  0
LINE
  8
0
 10
8.82646
 20
12.19
 11
8.82378
 21
12.1863
  0
LINE
  8
0
 10
8.82378
 20
12.1863
 11
8.74144
 21
12.2455
  0
LINE
  8
0
 10
8.74144
 20
12.2455
 11
8.74409
 21
12.2492
  0
LINE
  8
0
 10
8.74409
 20
12.2492
 11
8.79156
 21
12.4738
  0
LINE
  8
0
 10
8.79156
 20
12.4738
 11
8.83386
 21
12.7201
  0
LINE
  8
0
 10
8.83386
 20
12.7201
 11
8.86943
 21
12.9878
  0
LINE
  8
0
 10
8.86943
 20
12.9878
 11
8.89664
 21
13.2768
  0
LINE
  8
0
 10
8.89664
 20
13.2768
 11
8.91396
 21
13.5869
  0
LINE
  8
0
 10
8.91396
 20
13.5869
 11
8.71832
 21
13.7132
  0
LINE
  8
0
 10
8.71832
 20
13.7132
 11
8.44283
 21
13.5699
  0
LINE
  8
0
 10
8.44283
 20
13.5699
 11
8.19057
 21
13.4262
  0
LINE
  8
0
 10
8.19057
 20
13.4262
 11
7.96115
 21
13.2837
  0
LINE
  8
0
 10
7.96115
 20
13.2837
 11
7.75412
 21
13.1439
  0
LINE
  8
0
 10
7.75412
 20
13.1439
 11
7.56888
 21
13.0082
  0
LINE
  8
0
 10
7.56888
 20
13.0082
 11
7.56657
 21
13.0043
  0
LINE
  8
0
 10
7.56657
 20
13.0043
 11
7.47873
 21
13.055
  0
LINE
  8
0
 10
7.47873
 20
13.055
 11
7.481
 21
13.059
  0
LINE
  8
0
 10
7.481
 20
13.059
 11
7.50589
 21
13.2872
  0
LINE
  8
0
 10
7.50589
 20
13.2872
 11
7.52347
 21
13.5364
  0
LINE
  8
0
 10
7.52347
 20
13.5364
 11
7.53218
 21
13.8064
  0
LINE
  8
0
 10
7.53218
 20
13.8064
 11
7.53047
 21
14.0967
  0
LINE
  8
0
 10
7.53047
 20
14.0967
 11
7.51683
 21
14.4069
  0
LINE
  8
0
 10
7.51683
 20
14.4069
 11
7.3096
 21
14.5132
  0
LINE
  8
0
 10
7.3096
 20
14.5132
 11
7.04974
 21
14.3431
  0
LINE
  8
0
 10
7.04974
 20
14.3431
 11
6.81305
 21
14.175
  0
LINE
  8
0
 10
6.81305
 20
14.175
 11
6.59897
 21
14.0104
  0
LINE
  8
0
 10
6.59897
 20
14.0104
 11
6.40688
 21
13.8506
  0
LINE
  8
0
 10
6.40688
 20
13.8506
 11
6.23607
 21
13.6972
  0
LINE
  8
0
 10
6.23607
 20
13.6972
 11
6.23416
 21
13.693
  0
LINE
  8
0
 10
6.23416
 20
13.693
 11
6.14171
 21
13.7347
  0
LINE
  8
0
 10
6.14171
 20
13.7347
 11
6.14359
 21
13.7389
  0
LINE
  8
0
 10
6.14359
 20
13.7389
 11
6.14561
 21
13.9685
  0
LINE
  8
0
 10
6.14561
 20
13.9685
 11
6.13828
 21
14.2183
  0
LINE
  8
0
 10
6.13828
 20
14.2183
 11
6.12009
 21
14.4877
  0
LINE
  8
0
 10
6.12009
 20
14.4877
 11
6.08948
 21
14.7764
  0
LINE
  8
0
 10
6.08948
 20
14.7764
 11
6.04501
 21
15.0838
  0
LINE
  8
0
 10
6.04501
 20
15.0838
 11
5.82823
 21
15.1688
  0
LINE
  8
0
 10
5.82823
 20
15.1688
 11
5.58659
 21
14.9738
  0
LINE
  8
0
 10
5.58659
 20
14.9738
 11
5.36781
 21
14.783
  0
LINE
  8
0
 10
5.36781
 20
14.783
 11
5.17119
 21
14.5978
  0
LINE
  8
0
 10
5.17119
 20
14.5978
 11
4.99596
 21
14.4197
  0
LINE
  8
0
 10
4.99596
 20
14.4197
 11
4.84128
 21
14.25
  0
LINE
  8
0
 10
4.84128
 20
14.25
 11
4.8398
 21
14.2457
  0
LINE
  8
0
 10
4.8398
 20
14.2457
 11
4.74365
 21
14.278
  0
LINE
  8
0
 10
4.74365
 20
14.278
 11
4.7451
 21
14.2824
  0
LINE
  8
0
 10
4.7451
 20
14.2824
 11
4.72424
 21
14.511
  0
LINE
  8
0
 10
4.72424
 20
14.511
 11
4.69209
 21
14.7588
  0
LINE
  8
0
 10
4.69209
 20
14.7588
 11
4.64716
 21
15.0251
  0
LINE
  8
0
 10
4.64716
 20
15.0251
 11
4.58797
 21
15.3093
  0
LINE
  8
0
 10
4.58797
 20
15.3093
 11
4.51312
 21
15.6107
  0
LINE
  8
0
 10
4.51312
 20
15.6107
 11
4.28894
 21
15.6738
  0
LINE
  8
0
 10
4.28894
 20
15.6738
 11
4.06793
 21
15.4556
  0
LINE
  8
0
 10
4.06793
 20
15.4556
 11
3.86923
 21
15.244
  0
LINE
  8
0
 10
3.86923
 20
15.244
 11
3.69202
 21
15.0402
  0
LINE
  8
0
 10
3.69202
 20
15.0402
 11
3.5354
 21
14.8455
  0
LINE
  8
0
 10
3.5354
 20
14.8455
 11
3.39836
 21
14.6613
  0
LINE
  8
0
 10
3.39836
 20
14.6613
 11
3.39732
 21
14.6568
  0
LINE
  8
0
 10
3.39732
 20
14.6568
 11
3.29845
 21
14.6794
  0
LINE
  8
0
 10
3.29845
 20
14.6794
 11
3.29945
 21
14.6839
  0
LINE
  8
0
 10
3.29945
 20
14.6839
 11
3.25594
 21
14.9093
  0
LINE
  8
0
 10
3.25594
 20
14.9093
 11
3.19928
 21
15.1526
  0
LINE
  8
0
 10
3.19928
 20
15.1526
 11
3.12805
 21
15.4131
  0
LINE
  8
0
 10
3.12805
 20
15.4131
 11
3.04085
 21
15.69
  0
LINE
  8
0
 10
3.04085
 20
15.69
 11
2.93637
 21
15.9825
  0
LINE
  8
0
 10
2.93637
 20
15.9825
 11
2.70703
 21
16.0229
  0
LINE
  8
0
 10
2.70703
 20
16.0229
 11
2.50883
 21
15.7838
  0
LINE
  8
0
 10
2.50883
 20
15.7838
 11
2.33218
 21
15.5535
  0
LINE
  8
0
 10
2.33218
 20
15.5535
 11
2.17615
 21
15.333
  0
LINE
  8
0
 10
2.17615
 20
15.333
 11
2.03969
 21
15.1238
  0
LINE
  8
0
 10
2.03969
 20
15.1238
 11
1.92169
 21
14.9268
  0
LINE
  8
0
 10
1.92169
 20
14.9268
 11
1.92111
 21
14.9222
  0
LINE
  8
0
 10
1.92111
 20
14.9222
 11
1.82047
 21
14.9349
  0
LINE
  8
0
 10
1.82047
 20
14.9349
 11
1.82101
 21
14.9394
  0
LINE
  8
0
 10
1.82101
 20
14.9394
 11
1.75528
 21
15.1594
  0
LINE
  8
0
 10
1.75528
 20
15.1594
 11
1.67467
 21
15.3959
  0
LINE
  8
0
 10
1.67467
 20
15.3959
 11
1.57785
 21
15.648
  0
LINE
  8
0
 10
1.57785
 20
15.648
 11
1.46352
 21
15.9148
  0
LINE
  8
0
 10
1.46352
 20
15.9148
 11
1.33044
 21
16.1954
  0
LINE
  8
0
 10
1.33044
 20
16.1954
 11
1.09821
 21
16.2128
  0
LINE
  8
0
 10
1.09821
 20
16.2128
 11
0.924805
 21
15.9552
  0
LINE
  8
0
 10
0.924805
 20
15.9552
 11
0.771973
 21
15.7084
  0
LINE
  8
0
 10
0.771973
 20
15.7084
 11
0.638657
 21
15.4735
  0
LINE
  8
0
 10
0.638657
 20
15.4735
 11
0.523712
 21
15.2517
  0
LINE
  8
0
 10
0.523712
 20
15.2517
 11
0.425919
 21
15.0439
  0
LINE
  8
0
 10
0.425919
 20
15.0439
 11
0.425797
 21
15.0394
  0
LINE
  8
0
 10
0.425797
 20
15.0394
 11
0.324387
 21
15.0419
  0
LINE
  8
0
 10
0.324387
 20
15.0419
 11
0.324478
 21
15.0465
  0
LINE
  8
0
 10
0.324478
 20
15.0465
 11
0.237167
 21
15.2589
  0
LINE
  8
0
 10
0.237167
 20
15.2589
 11
0.133408
 21
15.4861
  0
LINE
  8
0
 10
0.133408
 20
15.4861
 11
0.0119629
 21
15.7273
  0
LINE
  8
0
 10
0.0119629
 20
15.7273
 11
-0.128357
 21
15.9815
  0
LINE
  8
0
 10
-0.128357
 20
15.9815
 11
-0.288696
 21
16.2474
  0
LINE
  8
0
 10
-0.288696
 20
16.2474
 11
-0.521515
 21
16.2416
  0
LINE
  8
0
 10
-0.521515
 20
16.2416
 11
-0.668411
 21
15.968
  0
LINE
  8
0
 10
-0.668411
 20
15.968
 11
-0.795898
 21
15.7072
  0
LINE
  8
0
 10
-0.795898
 20
15.7072
 11
-0.905167
 21
15.4602
  0
LINE
  8
0
 10
-0.905167
 20
15.4602
 11
-0.997452
 21
15.2281
  0
LINE
  8
0
 10
-0.997452
 20
15.2281
 11
-1.07408
 21
15.0116
  0
LINE
  8
0
 10
-1.07408
 20
15.0116
 11
-1.07376
 21
15.007
  0
LINE
  8
0
 10
-1.07376
 20
15.007
 11
-1.17491
 21
14.9995
  0
LINE
  8
0
 10
-1.17491
 20
14.9995
 11
-1.17526
 21
15.004
  0
LINE
  8
0
 10
-1.17526
 20
15.004
 11
-1.28329
 21
15.2066
  0
LINE
  8
0
 10
-1.28329
 20
15.2066
 11
-1.40916
 21
15.4224
  0
LINE
  8
0
 10
-1.40916
 20
15.4224
 11
-1.55402
 21
15.6504
  0
LINE
  8
0
 10
-1.55402
 20
15.6504
 11
-1.71895
 21
15.8893
  0
LINE
  8
0
 10
-1.71895
 20
15.8893
 11
-1.90498
 21
16.1379
  0
LINE
  8
0
 10
-1.90498
 20
16.1379
 11
-2.13606
 21
16.109
  0
LINE
  8
0
 10
-2.13606
 20
16.109
 11
-2.25499
 21
15.8221
  0
LINE
  8
0
 10
-2.25499
 20
15.8221
 11
-2.35588
 21
15.5499
  0
LINE
  8
0
 10
-2.35588
 20
15.5499
 11
-2.44
 21
15.2933
  0
LINE
  8
0
 10
-2.44
 20
15.2933
 11
-2.50873
 21
15.0531
  0
LINE
  8
0
 10
-2.50873
 20
15.0531
 11
-2.56342
 21
14.8301
  0
LINE
  8
0
 10
-2.56342
 20
14.8301
 11
-2.56264
 21
14.8255
  0
LINE
  8
0
 10
-2.56264
 20
14.8255
 11
-2.66254
 21
14.8079
  0
LINE
  8
0
 10
-2.66254
 20
14.8079
 11
-2.66335
 21
14.8124
  0
LINE
  8
0
 10
-2.66335
 20
14.8124
 11
-2.79102
 21
15.0033
  0
LINE
  8
0
 10
-2.79102
 20
15.0033
 11
-2.93773
 21
15.2055
  0
LINE
  8
0
 10
-2.93773
 20
15.2055
 11
-3.10457
 21
15.4179
  0
LINE
  8
0
 10
-3.10457
 20
15.4179
 11
-3.29248
 21
15.6392
  0
LINE
  8
0
 10
-3.29248
 20
15.6392
 11
-3.50233
 21
15.8681
  0
LINE
  8
0
 10
-3.50233
 20
15.8681
 11
-3.72939
 21
15.8162
  0
LINE
  8
0
 10
-3.72939
 20
15.8162
 11
-3.81915
 21
15.519
  0
LINE
  8
0
 10
-3.81915
 20
15.519
 11
-3.89244
 21
15.2381
  0
LINE
  8
0
 10
-3.89244
 20
15.2381
 11
-3.95059
 21
14.9743
  0
LINE
  8
0
 10
-3.95059
 20
14.9743
 11
-3.99506
 21
14.7285
  0
LINE
  8
0
 10
-3.99506
 20
14.7285
 11
-4.02728
 21
14.5011
  0
LINE
  8
0
 10
-4.02728
 20
14.5011
 11
-4.02606
 21
14.4967
  0
LINE
  8
0
 10
-4.02606
 20
14.4967
 11
-4.1237
 21
14.4693
  0
LINE
  8
0
 10
-4.1237
 20
14.4693
 11
-4.12495
 21
14.4736
  0
LINE
  8
0
 10
-4.12495
 20
14.4736
 11
-4.27098
 21
14.6508
  0
LINE
  8
0
 10
-4.27098
 20
14.6508
 11
-4.43712
 21
14.8374
  0
LINE
  8
0
 10
-4.43712
 20
14.8374
 11
-4.62427
 21
15.0322
  0
LINE
  8
0
 10
-4.62427
 20
15.0322
 11
-4.83327
 21
15.2336
  0
LINE
  8
0
 10
-4.83327
 20
15.2336
 11
-5.06488
 21
15.4405
  0
LINE
  8
0
 10
-5.06488
 20
15.4405
 11
-5.28564
 21
15.3663
  0
LINE
  8
0
 10
-5.28564
 20
15.3663
 11
-5.34537
 21
15.0616
  0
LINE
  8
0
 10
-5.34537
 20
15.0616
 11
-5.39032
 21
14.7748
  0
LINE
  8
0
 10
-5.39032
 20
14.7748
 11
-5.42194
 21
14.5066
  0
LINE
  8
0
 10
-5.42194
 20
14.5066
 11
-5.4417
 21
14.2575
  0
LINE
  8
0
 10
-5.4417
 20
14.2575
 11
-5.45111
 21
14.0281
  0
LINE
  8
0
 10
-5.45111
 20
14.0281
 11
-5.44945
 21
14.0238
  0
LINE
  8
0
 10
-5.44945
 20
14.0238
 11
-5.54387
 21
13.9868
  0
LINE
  8
0
 10
-5.54387
 20
13.9868
 11
-5.54556
 21
13.991
  0
LINE
  8
0
 10
-5.54556
 20
13.991
 11
-5.70851
 21
14.1528
  0
LINE
  8
0
 10
-5.70851
 20
14.1528
 11
-5.8924
 21
14.3219
  0
LINE
  8
0
 10
-5.8924
 20
14.3219
 11
-6.09801
 21
14.497
  0
LINE
  8
0
 10
-6.09801
 20
14.497
 11
-6.32603
 21
14.6767
  0
LINE
  8
0
 10
-6.32603
 20
14.6767
 11
-6.5771
 21
14.8595
  0
LINE
  8
0
 10
-6.5771
 20
14.8595
 11
-6.78937
 21
14.7637
  0
LINE
  8
0
 10
-6.78937
 20
14.7637
 11
-6.81845
 21
14.4545
  0
LINE
  8
0
 10
-6.81845
 20
14.4545
 11
-6.83463
 21
14.1647
  0
LINE
  8
0
 10
-6.83463
 20
14.1647
 11
-6.83937
 21
13.8946
  0
LINE
  8
0
 10
-6.83937
 20
13.8946
 11
-6.83424
 21
13.6448
  0
LINE
  8
0
 10
-6.83424
 20
13.6448
 11
-6.82077
 21
13.4156
  0
LINE
  8
0
 10
-6.82077
 20
13.4156
 11
-6.8187
 21
13.4115
  0
LINE
  8
0
 10
-6.8187
 20
13.4115
 11
-6.90895
 21
13.3653
  0
LINE
  8
0
 10
-6.90895
 20
13.3653
 11
-6.91106
 21
13.3693
  0
LINE
  8
0
 10
-6.91106
 20
13.3693
 11
-7.08931
 21
13.5141
  0
LINE
  8
0
 10
-7.08931
 20
13.5141
 11
-7.28912
 21
13.664
  0
LINE
  8
0
 10
-7.28912
 20
13.664
 11
-7.51114
 21
13.8178
  0
LINE
  8
0
 10
-7.51114
 20
13.8178
 11
-7.75594
 21
13.9739
  0
LINE
  8
0
 10
-7.75594
 20
13.9739
 11
-8.02394
 21
14.1308
  0
LINE
  8
0
 10
-8.02394
 20
14.1308
 11
-8.22562
 21
14.0143
  0
LINE
  8
0
 10
-8.22562
 20
14.0143
 11
-8.22377
 21
13.7038
  0
LINE
  8
0
 10
-8.22377
 20
13.7038
 11
-8.21101
 21
13.4138
  0
LINE
  8
0
 10
-8.21101
 20
13.4138
 11
-8.18884
 21
13.1446
  0
LINE
  8
0
 10
-8.18884
 20
13.1446
 11
-8.15887
 21
12.8966
  0
LINE
  8
0
 10
-8.15887
 20
12.8966
 11
-8.12265
 21
12.6698
  0
LINE
  8
0
 10
-8.12265
 20
12.6698
 11
-8.12018
 21
12.666
  0
LINE
  8
0
 10
-8.12018
 20
12.666
 11
-8.20538
 21
12.6109
  0
LINE
  8
0
 10
-8.20538
 20
12.6109
 11
-8.20787
 21
12.6148
  0
LINE
  8
0
 10
-8.20787
 20
12.6148
 11
-8.39966
 21
12.7411
  0
LINE
  8
0
 10
-8.39966
 20
12.7411
 11
-8.6134
 21
12.8704
  0
LINE
  8
0
 10
-8.6134
 20
12.8704
 11
-8.84962
 21
13.0013
  0
LINE
  8
0
 10
-8.84962
 20
13.0013
 11
-9.10873
 21
13.1322
  0
LINE
  8
0
 10
-9.10873
 20
13.1322
 11
-9.39104
 21
13.2616
  0
LINE
  8
0
 10
-9.39104
 20
13.2616
 11
-9.58012
 21
13.1257
  0
LINE
  8
0
 10
-9.58012
 20
13.1257
 11
-9.54736
 21
12.8169
  0
LINE
  8
0
 10
-9.54736
 20
12.8169
 11
-9.50578
 21
12.5295
  0
LINE
  8
0
 10
-9.50578
 20
12.5295
 11
-9.45692
 21
12.2639
  0
LINE
  8
0
 10
-9.45692
 20
12.2639
 11
-9.4024
 21
12.0201
  0
LINE
  8
0
 10
-9.4024
 20
12.0201
 11
-9.3438
 21
11.7981
  0
LINE
  8
0
 10
-9.3438
 20
11.7981
 11
-9.34096
 21
11.7945
  0
LINE
  8
0
 10
-9.34096
 20
11.7945
 11
-9.42024
 21
11.7313
  0
LINE
  8
0
 10
-9.42024
 20
11.7313
 11
-9.42311
 21
11.7348
  0
LINE
  8
0
 10
-9.42311
 20
11.7348
 11
-9.62651
 21
11.8414
  0
LINE
  8
0
 10
-9.62651
 20
11.8414
 11
-9.85208
 21
11.9488
  0
LINE
  8
0
 10
-9.85208
 20
11.9488
 11
-10.1002
 21
12.0555
  0
LINE
  8
0
 10
-10.1002
 20
12.0555
 11
-10.371
 21
12.16
  0
LINE
  8
0
 10
-10.371
 20
12.16
 11
-10.6648
 21
12.2607
  0
LINE
  8
0
 10
-10.6648
 20
12.2607
 11
-10.8394
 21
12.1066
  0
LINE
  8
0
 10
-10.8394
 20
12.1066
 11
-10.7761
 21
11.8026
  0
LINE
  8
0
 10
-10.7761
 20
11.8026
 11
-10.7061
 21
11.5208
  0
LINE
  8
0
 10
-10.7061
 20
11.5208
 11
-10.631
 21
11.2614
  0
LINE
  8
0
 10
-10.631
 20
11.2614
 11
-10.5525
 21
11.0242
  0
LINE
  8
0
 10
-10.5525
 20
11.0242
 11
-10.4721
 21
10.8091
  0
LINE
  8
0
 10
-10.4721
 20
10.8091
 11
-10.4689
 21
10.8058
  0
LINE
  8
0
 10
-10.4689
 20
10.8058
 11
-10.5415
 21
10.735
  0
LINE
  8
0
 10
-10.5415
 20
10.735
 11
-10.5447
 21
10.7383
  0
LINE
  8
0
 10
-10.5447
 20
10.7383
 11
-10.7577
 21
10.8241
  0
LINE
  8
0
 10
-10.7577
 20
10.8241
 11
-10.9928
 21
10.9085
  0
LINE
  8
0
 10
-10.9928
 20
10.9085
 11
-11.2503
 21
10.99
  0
LINE
  8
0
 10
-11.2503
 20
10.99
 11
-11.5302
 21
11.067
  0
LINE
  8
0
 10
-11.5302
 20
11.067
 11
-11.8326
 21
11.1379
  0
LINE
  8
0
 10
-11.8326
 20
11.1379
 11
-11.991
 21
10.9671
  0
LINE
  8
0
 10
-11.991
 20
10.9671
 11
-11.8977
 21
10.671
  0
LINE
  8
0
 10
-11.8977
 20
10.671
 11
-11.8
 21
10.3976
  0
LINE
  8
0
 10
-11.8
 20
10.3976
 11
-11.6995
 21
10.1469
  0
LINE
  8
0
 10
-11.6995
 20
10.1469
 11
-11.5977
 21
9.91873
  0
LINE
  8
0
 10
-11.5977
 20
9.91873
 11
-11.4963
 21
9.71274
  0
LINE
  8
0
 10
-11.4963
 20
9.71274
 11
-11.4928
 21
9.70978
  0
LINE
  8
0
 10
-11.4928
 20
9.70978
 11
-11.558
 21
9.6321
  0
LINE
  8
0
 10
-11.558
 20
9.6321
 11
-11.5615
 21
9.63503
  0
LINE
  8
0
 10
-11.5615
 20
9.63503
 11
-11.782
 21
9.69916
  0
LINE
  8
0
 10
-11.782
 20
9.69916
 11
-12.0244
 21
9.75974
  0
LINE
  8
0
 10
-12.0244
 20
9.75974
 11
-12.2887
 21
9.8152
  0
LINE
  8
0
 10
-12.2887
 20
9.8152
 11
-12.5749
 21
9.86394
  0
LINE
  8
0
 10
-12.5749
 20
9.86394
 11
-12.8828
 21
9.90437
  0
LINE
  8
0
 10
-12.8828
 20
9.90437
 11
-13.0234
 21
9.71873
  0
LINE
  8
0
 10
-13.0234
 20
9.71873
 11
-12.901
 21
9.4333
  0
LINE
  8
0
 10
-12.901
 20
9.4333
 11
-12.7766
 21
9.17101
  0
LINE
  8
0
 10
-12.7766
 20
9.17101
 11
-12.6516
 21
8.93159
  0
LINE
  8
0
 10
-12.6516
 20
8.93159
 11
-12.5277
 21
8.71469
  0
LINE
  8
0
 10
-12.5277
 20
8.71469
 11
-12.4062
 21
8.51982
  0
LINE
  8
0
 10
-12.4062
 20
8.51982
 11
-12.4025
 21
8.51723
  0
LINE
  8
0
 10
-12.4025
 20
8.51723
 11
-12.4596
 21
8.43343
  0
LINE
  8
0
 10
-12.4596
 20
8.43343
 11
-12.4634
 21
8.43599
  0
LINE
  8
0
 10
-12.4634
 20
8.43599
 11
-12.6891
 21
8.47786
  0
LINE
  8
0
 10
-12.6891
 20
8.47786
 11
-12.9364
 21
8.51401
  0
LINE
  8
0
 10
-12.9364
 20
8.51401
 11
-13.2049
 21
8.54288
  0
LINE
  8
0
 10
-13.2049
 20
8.54288
 11
-13.4945
 21
8.56287
  0
LINE
  8
0
 10
-13.4945
 20
8.56287
 11
-13.8049
 21
8.57245
  0
LINE
  8
0
 10
-13.8049
 20
8.57245
 11
-13.9263
 21
8.37373
  0
LINE
  8
0
 10
-13.9263
 20
8.37373
 11
-13.7762
 21
8.1019
  0
LINE
  8
0
 10
-13.7762
 20
8.1019
 11
-13.6263
 21
7.8533
  0
LINE
  8
0
 10
-13.6263
 20
7.8533
 11
-13.4781
 21
7.62752
  0
LINE
  8
0
 10
-13.4781
 20
7.62752
 11
-13.3331
 21
7.42403
  0
LINE
  8
0
 10
-13.3331
 20
7.42403
 11
-13.1929
 21
7.24222
  0
LINE
  8
0
 10
-13.1929
 20
7.24222
 11
-13.1889
 21
7.24002
  0
LINE
  8
0
 10
-13.1889
 20
7.24002
 11
-13.2374
 21
7.15094
  0
LINE
  8
0
 10
-13.2374
 20
7.15094
 11
-13.2414
 21
7.15312
  0
LINE
  8
0
 10
-13.2414
 20
7.15312
 11
-13.4702
 21
7.17229
  0
LINE
  8
0
 10
-13.4702
 20
7.17229
 11
-13.7198
 21
7.18365
  0
LINE
  8
0
 10
-13.7198
 20
7.18365
 11
-13.9899
 21
7.18564
  0
LINE
  8
0
 10
-13.9899
 20
7.18564
 11
-14.28
 21
7.1767
  0
LINE
  8
0
 10
-14.28
 20
7.1767
 11
-14.5898
 21
7.15532
  0
LINE
  8
0
 10
-14.5898
 20
7.15532
 11
-14.6909
 21
6.94551
  0
LINE
  8
0
 10
-14.6909
 20
6.94551
 11
-14.5144
 21
6.68997
  0
LINE
  8
0
 10
-14.5144
 20
6.68997
 11
-14.3405
 21
6.45753
  0
LINE
  8
0
 10
-14.3405
 20
6.45753
 11
-14.1705
 21
6.24762
  0
LINE
  8
0
 10
-14.1705
 20
6.24762
 11
-14.0061
 21
6.05959
  0
LINE
  8
0
 10
-14.0061
 20
6.05959
 11
-13.8484
 21
5.89264
  0
LINE
  8
0
 10
-13.8484
 20
5.89264
 11
-13.8442
 21
5.89084
  0
LINE
  8
0
 10
-13.8442
 20
5.89084
 11
-13.8836
 21
5.79739
  0
LINE
  8
0
 10
-13.8836
 20
5.79739
 11
-13.8878
 21
5.79915
  0
LINE
  8
0
 10
-13.8878
 20
5.79915
 11
-14.1174
 21
5.79546
  0
LINE
  8
0
 10
-14.1174
 20
5.79546
 11
-14.3669
 21
5.78191
  0
LINE
  8
0
 10
-14.3669
 20
5.78191
 11
-14.6358
 21
5.75699
  0
LINE
  8
0
 10
-14.6358
 20
5.75699
 11
-14.9236
 21
5.71921
  0
LINE
  8
0
 10
-14.9236
 20
5.71921
 11
-15.2298
 21
5.66708
  0
LINE
  8
0
 10
-15.2298
 20
5.66708
 11
-15.3094
 21
5.44826
  0
LINE
  8
0
 10
-15.3094
 20
5.44826
 11
-15.1084
 21
5.21156
  0
LINE
  8
0
 10
-15.1084
 20
5.21156
 11
-14.9122
 21
4.99759
  0
LINE
  8
0
 10
-14.9122
 20
4.99759
 11
-14.7222
 21
4.80565
  0
LINE
  8
0
 10
-14.7222
 20
4.80565
 11
-14.5398
 21
4.63492
  0
LINE
  8
0
 10
-14.5398
 20
4.63492
 11
-14.3663
 21
4.48451
  0
LINE
  8
0
 10
-14.3663
 20
4.48451
 11
-14.3619
 21
4.48314
  0
LINE
  8
0
 10
-14.3619
 20
4.48314
 11
-14.3918
 21
4.38622
  0
LINE
  8
0
 10
-14.3918
 20
4.38622
 11
-14.3962
 21
4.38756
  0
LINE
  8
0
 10
-14.3962
 20
4.38756
 11
-14.6243
 21
4.36101
  0
LINE
  8
0
 10
-14.6243
 20
4.36101
 11
-14.8712
 21
4.32269
  0
LINE
  8
0
 10
-14.8712
 20
4.32269
 11
-15.1363
 21
4.27113
  0
LINE
  8
0
 10
-15.1363
 20
4.27113
 11
-15.4189
 21
4.20486
  0
LINE
  8
0
 10
-15.4189
 20
4.20486
 11
-15.7184
 21
4.12253
  0
LINE
  8
0
 10
-15.7184
 20
4.12253
 11
-15.7758
 21
3.89685
  0
LINE
  8
0
 10
-15.7758
 20
3.89685
 11
-15.5522
 21
3.68135
  0
LINE
  8
0
 10
-15.5522
 20
3.68135
 11
-15.3357
 21
3.48798
  0
LINE
  8
0
 10
-15.3357
 20
3.48798
 11
-15.1275
 21
3.3159
  0
LINE
  8
0
 10
-15.1275
 20
3.3159
 11
-14.929
 21
3.16418
  0
LINE
  8
0
 10
-14.929
 20
3.16418
 11
-14.7414
 21
3.0318
  0
LINE
  8
0
 10
-14.7414
 20
3.0318
 11
-14.737
 21
3.03088
  0
LINE
  8
0
 10
-14.737
 20
3.03088
 11
-14.757
 21
2.93144
  0
LINE
  8
0
 10
-14.757
 20
2.93144
 11
-14.7616
 21
2.93234
  0
LINE
  8
0
 10
-14.7616
 20
2.93234
 11
-14.9858
 21
2.88322
  0
LINE
  8
0
 10
-14.9858
 20
2.88322
 11
-15.2277
 21
2.82053
  0
LINE
  8
0
 10
-15.2277
 20
2.82053
 11
-15.4863
 21
2.74281
  0
LINE
  8
0
 10
-15.4863
 20
2.74281
 11
-15.761
 21
2.64874
  0
LINE
  8
0
 10
-15.761
 20
2.64874
 11
-16.0507
 21
2.537
  0
LINE
  8
0
 10
-16.0507
 20
2.537
 11
-16.0854
 21
2.30673
  0
LINE
  8
0
 10
-16.0854
 20
2.30673
 11
-15.8415
 21
2.11455
  0
LINE
  8
0
 10
-15.8415
 20
2.11455
 11
-15.6068
 21
1.94371
  0
LINE
  8
0
 10
-15.6068
 20
1.94371
 11
-15.3825
 21
1.79321
  0
LINE
  8
0
 10
-15.3825
 20
1.79321
 11
-15.1699
 21
1.662
  0
LINE
  8
0
 10
-15.1699
 20
1.662
 11
-14.9701
 21
1.54895
  0
LINE
  8
0
 10
-14.9701
 20
1.54895
 11
-14.9655
 21
1.54848
  0
LINE
  8
0
 10
-14.9655
 20
1.54848
 11
-14.9756
 21
1.44756
  0
LINE
  8
0
 10
-14.9756
 20
1.44756
 11
-14.9802
 21
1.448
  0
LINE
  8
0
 10
-14.9802
 20
1.448
 11
-15.1985
 21
1.37679
  0
LINE
  8
0
 10
-15.1985
 20
1.37679
 11
-15.4328
 21
1.29031
  0
LINE
  8
0
 10
-15.4328
 20
1.29031
 11
-15.6825
 21
1.18724
  0
LINE
  8
0
 10
-15.6825
 20
1.18724
 11
-15.9464
 21
1.06628
  0
LINE
  8
0
 10
-15.9464
 20
1.06628
 11
-16.2236
 21
0.926254
  0
LINE
  8
0
 10
-16.2236
 20
0.926254
 11
-16.2352
 21
0.693665
  0
LINE
  8
0
 10
-16.2352
 20
0.693665
 11
-15.9733
 21
0.526733
  0
LINE
  8
0
 10
-15.9733
 20
0.526733
 11
-15.7228
 21
0.380112
  0
LINE
  8
0
 10
-15.7228
 20
0.380112
 11
-15.4846
 21
0.252701
  0
LINE
  8
0
 10
-15.4846
 20
0.252701
 11
-15.26
 21
0.143311
  0
LINE
  8
0
 10
-15.26
 20
0.143311
 11
-15.0499
 21
0.0507202
  0
LINE
  8
0
 10
-15.0499
 20
0.0507202
 11
-15.0453
 21
0.050705
  0
LINE
  8
0
 10
-15.0453
 20
0.050705
 11
-15.0453
 21
-0.050705
  0
LINE
  8
0
 10
-15.0453
 20
-0.050705
 11
-15.0499
 21
-0.0507202
  0
LINE
  8
0
 10
-15.0499
 20
-0.0507202
 11
-15.26
 21
-0.143311
  0
LINE
  8
0
 10
-15.26
 20
-0.143311
 11
-15.4846
 21
-0.252701
  0
LINE
  8
0
 10
-15.4846
 20
-0.252701
 11
-15.7228
 21
-0.380112
  0
LINE
  8
0
 10
-15.7228
 20
-0.380112
 11
-15.9733
 21
-0.526733
  0
LINE
  8
0
 10
-15.9733
 20
-0.526733
 11
-16.2352
 21
-0.693665
  0
LINE
  8
0
 10
-16.2352
 20
-0.693665
 11
-16.2236
 21
-0.926254
  0
LINE
  8
0
 10
-16.2236
 20
-0.926254
 11
-15.9464
 21
-1.06628
  0
LINE
  8
0
 10
-15.9464
 20
-1.06628
 11
-15.6825
 21
-1.18724
  0
LINE
  8
0
 10
-15.6825
 20
-1.18724
 11
-15.4328
 21
-1.29031
  0
LINE
  8
0
 10
-15.4328
 20
-1.29031
 11
-15.1985
 21
-1.37679
  0
LINE
  8
0
 10
-15.1985
 20
-1.37679
 11
-14.9802
 21
-1.448
  0
LINE
  8
0
 10
-14.9802
 20
-1.448
 11
-14.9756
 21
-1.44756
  0
LINE
  8
0
 10
-14.9756
 20
-1.44756
 11
-14.9655
 21
-1.54848
  0
LINE
  8
0
 10
-14.9655
 20
-1.54848
 11
-14.9701
 21
-1.54895
  0
LINE
  8
0
 10
-14.9701
 20
-1.54895
 11
-15.1699
 21
-1.662
  0
LINE
  8
0
 10
-15.1699
 20
-1.662
 11
-15.3825
 21
-1.79321
  0
LINE
  8
0
 10
-15.3825
 20
-1.79321
 11
-15.6068
 21
-1.94371
  0
LINE
  8
0
 10
-15.6068
 20
-1.94371
 11
-15.8415
 21
-2.11455
  0
LINE
  8
0
 10
-15.8415
 20
-2.11455
 11
-16.0854
 21
-2.30673
  0
LINE
  8
0
 10
-16.0854
 20
-2.30673
 11
-16.0507
 21
-2.537
  0
LINE
  8
0
 10
-16.0507
 20
-2.537
 11
-15.761
 21
-2.64874
  0
LINE
  8
0
 10
-15.761
 20
-2.64874
 11
-15.4863
 21
-2.74281
  0
LINE
  8
0
 10
-15.4863
 20
-2.74281
 11
-15.2277
 21
-2.82053
  0
LINE
  8
0
 10
-15.2277
 20
-2.82053
 11
-14.9858
 21
-2.88322
  0
LINE
  8
0
 10
-14.9858
 20
-2.88322
 11
-14.7616
 21
-2.93234
  0
LINE
  8
0
 10
-14.7616
 20
-2.93234
 11
-14.757
 21
-2.93144
  0
LINE
  8
0
 10
-14.757
 20
-2.93144
 11
-14.737
 21
-3.03088
  0
LINE
  8
0
 10
-14.737
 20
-3.03088
 11
-14.7414
 21
-3.0318
  0
LINE
  8
0
 10
-14.7414
 20
-3.0318
 11
-14.929
 21
-3.16418
  0
LINE
  8
0
 10
-14.929
 20
-3.16418
 11
-15.1275
 21
-3.3159
  0
LINE
  8
0
 10
-15.1275
 20
-3.3159
 11
-15.3357
 21
-3.48798
  0
LINE
  8
0
 10
-15.3357
 20
-3.48798
 11
-15.5522
 21
-3.68135
  0
LINE
  8
0
 10
-15.5522
 20
-3.68135
 11
-15.7758
 21
-3.89685
  0
LINE
  8
0
 10
-15.7758
 20
-3.89685
 11
-15.7184
 21
-4.12253
  0
LINE
  8
0
 10
-15.7184
 20
-4.12253
 11
-15.4189
 21
-4.20486
  0
LINE
  8
0
 10
-15.4189
 20
-4.20486
 11
-15.1363
 21
-4.27113
  0
LINE
  8
0
 10
-15.1363
 20
-4.27113
 11
-14.8712
 21
-4.32269
  0
LINE
  8
0
 10
-14.8712
 20
-4.32269
 11
-14.6243
 21
-4.36101
  0
LINE
  8
0
 10
-14.6243
 20
-4.36101
 11
-14.3962
 21
-4.38756
  0
LINE
  8
0
 10
-14.3962
 20
-4.38756
 11
-14.3918
 21
-4.38622
  0
LINE
  8
0
 10
-14.3918
 20
-4.38622
 11
-14.3619
 21
-4.48314
  0
LINE
  8
0
 10
-14.3619
 20
-4.48314
 11
-14.3663
 21
-4.48451
  0
LINE
  8
0
 10
-14.3663
 20
-4.48451
 11
-14.5398
 21
-4.63492
  0
LINE
  8
0
 10
-14.5398
 20
-4.63492
 11
-14.7222
 21
-4.80565
  0
LINE
  8
0
 10
-14.7222
 20
-4.80565
 11
-14.9122
 21
-4.99759
  0
LINE
  8
0
 10
-14.9122
 20
-4.99759
 11
-15.1084
 21
-5.21156
  0
LINE
  8
0
 10
-15.1084
 20
-5.21156
 11
-15.3094
 21
-5.44826
  0
LINE
  8
0
 10
-15.3094
 20
-5.44826
 11
-15.2298
 21
-5.66708
  0
LINE
  8
0
 10
-15.2298
 20
-5.66708
 11
-14.9236
 21
-5.71921
  0
LINE
  8
0
 10
-14.9236
 20
-5.71921
 11
-14.6358
 21
-5.75699
  0
LINE
  8
0
 10
-14.6358
 20
-5.75699
 11
-14.3669
 21
-5.78191
  0
LINE
  8
0
 10
-14.3669
 20
-5.78191
 11
-14.1174
 21
-5.79546
  0
LINE
  8
0
 10
-14.1174
 20
-5.79546
 11
-13.8878
 21
-5.79915
  0
LINE
  8
0
 10
-13.8878
 20
-5.79915
 11
-13.8836
 21
-5.79739
  0
LINE
  8
0
 10
-13.8836
 20
-5.79739
 11
-13.8442
 21
-5.89084
  0
LINE
  8
0
 10
-13.8442
 20
-5.89084
 11
-13.8484
 21
-5.89264
  0
LINE
  8
0
 10
-13.8484
 20
-5.89264
 11
-14.0061
 21
-6.05959
  0
LINE
  8
0
 10
-14.0061
 20
-6.05959
 11
-14.1705
 21
-6.24762
  0
LINE
  8
0
 10
-14.1705
 20
-6.24762
 11
-14.3405
 21
-6.45753
  0
LINE
  8
0
 10
-14.3405
 20
-6.45753
 11
-14.5144
 21
-6.68997
  0
LINE
  8
0
 10
-14.5144
 20
-6.68997
 11
-14.6909
 21
-6.94551
  0
LINE
  8
0
 10
-14.6909
 20
-6.94551
 11
-14.5898
 21
-7.15532
  0
LINE
  8
0
 10
-14.5898
 20
-7.15532
 11
-14.28
 21
-7.1767
  0
LINE
  8
0
 10
-14.28
 20
-7.1767
 11
-13.9899
 21
-7.18564
  0
LINE
  8
0
 10
-13.9899
 20
-7.18564
 11
-13.7198
 21
-7.18365
  0
LINE
  8
0
 10
-13.7198
 20
-7.18365
 11
-13.4702
 21
-7.17229
  0
LINE
  8
0
 10
-13.4702
 20
-7.17229
 11
-13.2414
 21
-7.15312
  0
LINE
  8
0
 10
-13.2414
 20
-7.15312
 11
-13.2374
 21
-7.15094
  0
LINE
  8
0
 10
-13.2374
 20
-7.15094
 11
-13.1889
 21
-7.24002
  0
LINE
  8
0
 10
-13.1889
 20
-7.24002
 11
-13.1929
 21
-7.24222
  0
LINE
  8
0
 10
-13.1929
 20
-7.24222
 11
-13.3331
 21
-7.42403
  0
LINE
  8
0
 10
-13.3331
 20
-7.42403
 11
-13.4781
 21
-7.62752
  0
LINE
  8
0
 10
-13.4781
 20
-7.62752
 11
-13.6263
 21
-7.8533
  0
LINE
  8
0
 10
-13.6263
 20
-7.8533
 11
-13.7762
 21
-8.1019
  0
LINE
  8
0
 10
-13.7762
 20
-8.1019
 11
-13.9263
 21
-8.37373
  0
LINE
  8
0
 10
-13.9263
 20
-8.37373
 11
-13.8049
 21
-8.57245
  0
LINE
  8
0
 10
-13.8049
 20
-8.57245
 11
-13.4945
 21
-8.56287
  0
LINE
  8
0
 10
-13.4945
 20
-8.56287
 11
-13.2049
 21
-8.54288
  0
LINE
  8
0
 10
-13.2049
 20
-8.54288
 11
-12.9364
 21
-8.51401
  0
LINE
  8
0
 10
-12.9364
 20
-8.51401
 11
-12.6891
 21
-8.47786
  0
LINE
  8
0
 10
-12.6891
 20
-8.47786
 11
-12.4634
 21
-8.43599
  0
LINE
  8
0
 10
-12.4634
 20
-8.43599
 11
-12.4596
 21
-8.43343
  0
LINE
  8
0
 10
-12.4596
 20
-8.43343
 11
-12.4025
 21
-8.51723
  0
LINE
  8
0
 10
-12.4025
 20
-8.51723
 11
-12.4062
 21
-8.51982
  0
LINE
  8
0
 10
-12.4062
 20
-8.51982
 11
-12.5277
 21
-8.71469
  0
LINE
  8
0
 10
-12.5277
 20
-8.71469
 11
-12.6516
 21
-8.93159
  0
LINE
  8
0
 10
-12.6516
 20
-8.93159
 11
-12.7766
 21
-9.17101
  0
LINE
  8
0
 10
-12.7766
 20
-9.17101
 11
-12.901
 21
-9.4333
  0
LINE
  8
0
 10
-12.901
 20
-9.4333
 11
-13.0234
 21
-9.71873
  0
LINE
  8
0
 10
-13.0234
 20
-9.71873
 11
-12.8828
 21
-9.90437
  0
LINE
  8
0
 10
-12.8828
 20
-9.90437
 11
-12.5749
 21
-9.86394
  0
LINE
  8
0
 10
-12.5749
 20
-9.86394
 11
-12.2887
 21
-9.8152
  0
LINE
  8
0
 10
-12.2887
 20
-9.8152
 11
-12.0244
 21
-9.75974
  0
LINE
  8
0
 10
-12.0244
 20
-9.75974
 11
-11.782
 21
-9.69916
  0
LINE
  8
0
 10
-11.782
 20
-9.69916
 11
-11.5615
 21
-9.63503
  0
LINE
  8
0
 10
-11.5615
 20
-9.63503
 11
-11.558
 21
-9.6321
  0
LINE
  8
0
 10
-11.558
 20
-9.6321
 11
-11.4928
 21
-9.70978
  0
LINE
  8
0
 10
-11.4928
 20
-9.70978
 11
-11.4963
 21
-9.71274
  0
LINE
  8
0
 10
-11.4963
 20
-9.71274
 11
-11.5977
 21
-9.91873
  0
LINE
  8
0
 10
-11.5977
 20
-9.91873
 11
-11.6995
 21
-10.1469
  0
LINE
  8
0
 10
-11.6995
 20
-10.1469
 11
-11.8
 21
-10.3976
  0
LINE
  8
0
 10
-11.8
 20
-10.3976
 11
-11.8977
 21
-10.671
  0
LINE
  8
0
 10
-11.8977
 20
-10.671
 11
-11.991
 21
-10.9671
  0
LINE
  8
0
 10
-11.991
 20
-10.9671
 11
-11.8326
 21
-11.1379
  0
LINE
  8
0
 10
-11.8326
 20
-11.1379
 11
-11.5302
 21
-11.067
  0
LINE
  8
0
 10
-11.5302
 20
-11.067
 11
-11.2503
 21
-10.99
  0
LINE
  8
0
 10
-11.2503
 20
-10.99
 11
-10.9928
 21
-10.9085
  0
LINE
  8
0
 10
-10.9928
 20
-10.9085
 11
-10.7577
 21
-10.8241
  0
LINE
  8
0
 10
-10.7577
 20
-10.8241
 11
-10.5447
 21
-10.7383
  0
LINE
  8
0
 10
-10.5447
 20
-10.7383
 11
-10.5415
 21
-10.735
  0
LINE
  8
0
 10
-10.5415
 20
-10.735
 11
-10.4689
 21
-10.8058
  0
LINE
  8
0
 10
-10.4689
 20
-10.8058
 11
-10.4721
 21
-10.8091
  0
LINE
  8
0
 10
-10.4721
 20
-10.8091
 11
-10.5525
 21
-11.0242
  0
LINE
  8
0
 10
-10.5525
 20
-11.0242
 11
-10.631
 21
-11.2614
  0
LINE
  8
0
 10
-10.631
 20
-11.2614
 11
-10.7061
 21
-11.5208
  0
LINE
  8
0
 10
-10.7061
 20
-11.5208
 11
-10.7761
 21
-11.8026
  0
LINE
  8
0
 10
-10.7761
 20
-11.8026
 11
-10.8394
 21
-12.1066
  0
LINE
  8
0
 10
-10.8394
 20
-12.1066
 11
-10.6648
 21
-12.2607
  0
LINE
  8
0
 10
-10.6648
 20
-12.2607
 11
-10.371
 21
-12.16
  0
LINE
  8
0
 10
-10.371
 20
-12.16
 11
-10.1002
 21
-12.0555
  0
LINE
  8
0
 10
-10.1002
 20
-12.0555
 11
-9.85208
 21
-11.9488
  0
LINE
  8
0
 10
-9.85208
 20
-11.9488
 11
-9.62651
 21
-11.8414
  0
LINE
  8
0
 10
-9.62651
 20
-11.8414
 11
-9.42311
 21
-11.7348
  0
LINE
  8
0
 10
-9.42311
 20
-11.7348
 11
-9.42024
 21
-11.7313
  0
LINE
  8
0
 10
-9.42024
 20
-11.7313
 11
-9.34096
 21
-11.7945
  0
LINE
  8
0
 10
-9.34096
 20
-11.7945
 11
-9.3438
 21
-11.7981
  0
LINE
  8
0
 10
-9.3438
 20
-11.7981
 11
-9.4024
 21
-12.0201
  0
LINE
  8
0
 10
-9.4024
 20
-12.0201
 11
-9.45692
 21
-12.2639
  0
LINE
  8
0
 10
-9.45692
 20
-12.2639
 11
-9.50578
 21
-12.5295
  0
LINE
  8
0
 10
-9.50578
 20
-12.5295
 11
-9.54736
 21
-12.8169
  0
LINE
  8
0
 10
-9.54736
 20
-12.8169
 11
-9.58012
 21
-13.1257
  0
LINE
  8
0
 10
-9.58012
 20
-13.1257
 11
-9.39104
 21
-13.2616
  0
LINE
  8
0
 10
-9.39104
 20
-13.2616
 11
-9.10873
 21
-13.1322
  0
LINE
  8
0
 10
-9.10873
 20
-13.1322
 11
-8.84962
 21
-13.0013
  0
LINE
  8
0
 10
-8.84962
 20
-13.0013
 11
-8.6134
 21
-12.8704
  0
LINE
  8
0
 10
-8.6134
 20
-12.8704
 11
-8.39966
 21
-12.7411
  0
LINE
  8
0
 10
-8.39966
 20
-12.7411
 11
-8.20787
 21
-12.6148
  0
LINE
  8
0
 10
-8.20787
 20
-12.6148
 11
-8.20538
 21
-12.6109
  0
LINE
  8
0
 10
-8.20538
 20
-12.6109
 11
-8.12018
 21
-12.666
  0
LINE
  8
0
 10
-8.12018
 20
-12.666
 11
-8.12265
 21
-12.6698
  0
LINE
  8
0
 10
-8.12265
 20
-12.6698
 11
-8.15887
 21
-12.8966
  0
LINE
  8
0
 10
-8.15887
 20
-12.8966
 11
-8.18884
 21
-13.1446
  0
LINE
  8
0
 10
-8.18884
 20
-13.1446
 11
-8.21101
 21
-13.4138
  0
LINE
  8
0
 10
-8.21101
 20
-13.4138
 11
-8.22377
 21
-13.7038
  0
LINE
  8
0
 10
-8.22377
 20
-13.7038
 11
-8.22562
 21
-14.0143
  0
LINE
  8
0
 10
-8.22562
 20
-14.0143
 11
-8.02394
 21
-14.1308
  0
LINE
  8
0
 10
-8.02394
 20
-14.1308
 11
-7.75594
 21
-13.9739
  0
LINE
  8
0
 10
-7.75594
 20
-13.9739
 11
-7.51114
 21
-13.8178
  0
LINE
  8
0
 10
-7.51114
 20
-13.8178
 11
-7.28912
 21
-13.664
  0
LINE
  8
0
 10
-7.28912
 20
-13.664
 11
-7.08931
 21
-13.5141
  0
LINE
  8
0
 10
-7.08931
 20
-13.5141
 11
-6.91106
 21
-13.3693
  0
LINE
  8
0
 10
-6.91106
 20
-13.3693
 11
-6.90895
 21
-13.3653
  0
LINE
  8
0
 10
-6.90895
 20
-13.3653
 11
-6.8187
 21
-13.4115
  0
LINE
  8
0
 10
-6.8187
 20
-13.4115
 11
-6.82077
 21
-13.4156
  0
LINE
  8
0
 10
-6.82077
 20
-13.4156
 11
-6.83424
 21
-13.6448
  0
LINE
  8
0
 10
-6.83424
 20
-13.6448
 11
-6.83937
 21
-13.8946
  0
LINE
  8
0
 10
-6.83937
 20
-13.8946
 11
-6.83463
 21
-14.1647
  0
LINE
  8
0
 10
-6.83463
 20
-14.1647
 11
-6.81845
 21
-14.4545
  0
LINE
  8
0
 10
-6.81845
 20
-14.4545
 11
-6.78937
 21
-14.7637
  0
LINE
  8
0
 10
-6.78937
 20
-14.7637
 11
-6.5771
 21
-14.8595
  0
LINE
  8
0
 10
-6.5771
 20
-14.8595
 11
-6.32603
 21
-14.6767
  0
LINE
  8
0
 10
-6.32603
 20
-14.6767
 11
-6.09801
 21
-14.497
  0
LINE
  8
0
 10
-6.09801
 20
-14.497
 11
-5.8924
 21
-14.3219
  0
LINE
  8
0
 10
-5.8924
 20
-14.3219
 11
-5.70851
 21
-14.1528
  0
LINE
  8
0
 10
-5.70851
 20
-14.1528
 11
-5.54556
 21
-13.991
  0
LINE
  8
0
 10
-5.54556
 20
-13.991
 11
-5.54387
 21
-13.9868
  0
LINE
  8
0
 10
-5.54387
 20
-13.9868
 11
-5.44945
 21
-14.0238
  0
LINE
  8
0
 10
-5.44945
 20
-14.0238
 11
-5.45111
 21
-14.0281
  0
LINE
  8
0
 10
-5.45111
 20
-14.0281
 11
-5.4417
 21
-14.2575
  0
LINE
  8
0
 10
-5.4417
 20
-14.2575
 11
-5.42194
 21
-14.5066
  0
LINE
  8
0
 10
-5.42194
 20
-14.5066
 11
-5.39032
 21
-14.7748
  0
LINE
  8
0
 10
-5.39032
 20
-14.7748
 11
-5.34537
 21
-15.0616
  0
LINE
  8
0
 10
-5.34537
 20
-15.0616
 11
-5.28564
 21
-15.3663
  0
LINE
  8
0
 10
-5.28564
 20
-15.3663
 11
-5.06488
 21
-15.4405
  0
LINE
  8
0
 10
-5.06488
 20
-15.4405
 11
-4.83327
 21
-15.2336
  0
LINE
  8
0
 10
-4.83327
 20
-15.2336
 11
-4.62427
 21
-15.0322
  0
LINE
  8
0
 10
-4.62427
 20
-15.0322
 11
-4.43712
 21
-14.8374
  0
LINE
  8
0
 10
-4.43712
 20
-14.8374
 11
-4.27098
 21
-14.6508
  0
LINE
  8
0
 10
-4.27098
 20
-14.6508
 11
-4.12495
 21
-14.4736
  0
LINE
  8
0
 10
-4.12495
 20
-14.4736
 11
-4.1237
 21
-14.4693
  0
LINE
  8
0
 10
-4.1237
 20
-14.4693
 11
-4.02606
 21
-14.4967
  0
LINE
  8
0
 10
-4.02606
 20
-14.4967
 11
-4.02728
 21
-14.5011
  0
LINE
  8
0
 10
-4.02728
 20
-14.5011
 11
-3.99506
 21
-14.7285
  0
LINE
  8
0
 10
-3.99506
 20
-14.7285
 11
-3.95059
 21
-14.9743
  0
LINE
  8
0
 10
-3.95059
 20
-14.9743
 11
-3.89244
 21
-15.2381
  0
LINE
  8
0
 10
-3.89244
 20
-15.2381
 11
-3.81915
 21
-15.519
  0
LINE
  8
0
 10
-3.81915
 20
-15.519
 11
-3.72939
 21
-15.8162
  0
LINE
  8
0
 10
-3.72939
 20
-15.8162
 11
-3.50233
 21
-15.8681
  0
LINE
  8
0
 10
-3.50233
 20
-15.8681
 11
-3.29248
 21
-15.6392
  0
LINE
  8
0
 10
-3.29248
 20
-15.6392
 11
-3.10457
 21
-15.4179
  0
LINE
  8
0
 10
-3.10457
 20
-15.4179
 11
-2.93773
 21
-15.2055
  0
LINE
  8
0
 10
-2.93773
 20
-15.2055
 11
-2.79102
 21
-15.0033
  0
LINE
  8
0
 10
-2.79102
 20
-15.0033
 11
-2.66335
 21
-14.8124
  0
LINE
  8
0
 10
-2.66335
 20
-14.8124
 11
-2.66254
 21
-14.8079
  0
LINE
  8
0
 10
-2.66254
 20
-14.8079
 11
-2.56264
 21
-14.8255
  0
LINE
  8
0
 10
-2.56264
 20
-14.8255
 11
-2.56342
 21
-14.8301
  0
LINE
  8
0
 10
-2.56342
 20
-14.8301
 11
-2.50873
 21
-15.0531
  0
LINE
  8
0
 10
-2.50873
 20
-15.0531
 11
-2.44
 21
-15.2933
  0
LINE
  8
0
 10
-2.44
 20
-15.2933
 11
-2.35588
 21
-15.5499
  0
LINE
  8
0
 10
-2.35588
 20
-15.5499
 11
-2.25499
 21
-15.8221
  0
LINE
  8
0
 10
-2.25499
 20
-15.8221
 11
-2.13606
 21
-16.109
  0
LINE
  8
0
 10
-2.13606
 20
-16.109
 11
-1.90498
 21
-16.1379
  0
LINE
  8
0
 10
-1.90498
 20
-16.1379
 11
-1.71895
 21
-15.8893
  0
LINE
  8
0
 10
-1.71895
 20
-15.8893
 11
-1.55402
 21
-15.6504
  0
LINE
  8
0
 10
-1.55402
 20
-15.6504
 11
-1.40916
 21
-15.4224
  0
LINE
  8
0
 10
-1.40916
 20
-15.4224
 11
-1.28329
 21
-15.2066
  0
LINE
  8
0
 10
-1.28329
 20
-15.2066
 11
-1.17526
 21
-15.004
  0
LINE
  8
0
 10
-1.17526
 20
-15.004
 11
-1.17491
 21
-14.9995
  0
LINE
  8
0
 10
-1.17491
 20
-14.9995
 11
-1.07376
 21
-15.007
  0
LINE
  8
0
 10
-1.07376
 20
-15.007
 11
-1.07408
 21
-15.0116
  0
LINE
  8
0
 10
-1.07408
 20
-15.0116
 11
-0.997452
 21
-15.2281
  0
LINE
  8
0
 10
-0.997452
 20
-15.2281
 11
-0.905167
 21
-15.4602
  0
LINE
  8
0
 10
-0.905167
 20
-15.4602
 11
-0.795898
 21
-15.7072
  0
LINE
  8
0
 10
-0.795898
 20
-15.7072
 11
-0.668411
 21
-15.968
  0
LINE
  8
0
 10
-0.668411
 20
-15.968
 11
-0.521515
 21
-16.2416
  0
LINE
  8
0
 10
-0.521515
 20
-16.2416
 11
-0.288696
 21
-16.2474
  0
LINE
  8
0
 10
-0.288696
 20
-16.2474
 11
-0.128357
 21
-15.9815
  0
LINE
  8
0
 10
-1.9996
 20
-1.5
 11
-2.06769
 21
-1.4052
  0
LINE
  8
0
 10
-2.06769
 20
-1.4052
 11
-2.11081
 21
-1.33955
  0
LINE
  8
0
 10
-2.11081
 20
-1.33955
 11
-2.15184
 21
-1.2726
  0
LINE
  8
0
 10
-2.15184
 20
-1.2726
 11
-2.19077
 21
-1.20438
  0
LINE
  8
0
 10
-2.19077
 20
-1.20438
 11
-2.22751
 21
-1.13496
  0
LINE
  8
0
 10
-2.22751
 20
-1.13496
 11
-2.26205
 21
-1.06444
  0
LINE
  8
0
 10
-2.26205
 20
-1.06444
 11
-2.29437
 21
-0.992859
  0
LINE
  8
0
 10
-2.29437
 20
-0.992859
 11
-2.32443
 21
-0.920303
  0
LINE
  8
0
 10
-2.32443
 20
-0.920303
 11
-2.35219
 21
-0.846832
  0
LINE
  8
0
 10
-2.35219
 20
-0.846832
 11
-2.37764
 21
-0.772537
  0
LINE
  8
0
 10
-2.37764
 20
-0.772537
 11
-2.40073
 21
-0.697464
  0
LINE
  8
0
 10
-2.40073
 20
-0.697464
 11
-2.42145
 21
-0.621719
  0
LINE
  8
0
 10
-2.42145
 20
-0.621719
 11
-2.43979
 21
-0.545349
  0
LINE
  8
0
 10
-2.43979
 20
-0.545349
 11
-2.4557
 21
-0.468445
  0
LINE
  8
0
 10
-2.4557
 20
-0.468445
 11
-2.46921
 21
-0.391083
  0
LINE
  8
0
 10
-2.46921
 20
-0.391083
 11
-2.48029
 21
-0.313324
  0
LINE
  8
0
 10
-2.48029
 20
-0.313324
 11
-2.48889
 21
-0.23526
  0
LINE
  8
0
 10
-2.48889
 20
-0.23526
 11
-2.49506
 21
-0.156967
  0
LINE
  8
0
 10
-2.49506
 20
-0.156967
 11
-2.49876
 21
-0.0785217
  0
LINE
  8
0
 10
-2.49876
 20
-0.0785217
 11
-2.5
 21
0
  0
LINE
  8
0
 10
-2.5
 20
0
 11
-2.49876
 21
0.0785217
  0
LINE
  8
0
 10
-2.49876
 20
0.0785217
 11
-2.49506
 21
0.156967
  0
LINE
  8
0
 10
-2.49506
 20
0.156967
 11
-2.48889
 21
0.23526
  0
LINE
  8
0
 10
-2.48889
 20
0.23526
 11
-2.48029
 21
0.313324
  0
LINE
  8
0
 10
-2.48029
 20
0.313324
 11
-2.46921
 21
0.391083
  0
LINE
  8
0
 10
-2.46921
 20
0.391083
 11
-2.4557
 21
0.468445
  0
LINE
  8
0
 10
-2.4557
 20
0.468445
 11
-2.43979
 21
0.545349
  0
LINE
  8
0
 10
-2.43979
 20
0.545349
 11
-2.42145
 21
0.621719
  0
LINE
  8
0
 10
-2.42145
 20
0.621719
 11
-2.40073
 21
0.697464
  0
LINE
  8
0
 10
-2.40073
 20
0.697464
 11
-2.37764
 21
0.772537
  0
LINE
  8
0
 10
-2.37764
 20
0.772537
 11
-2.35219
 21
0.846832
  0
LINE
  8
0
 10
-2.35219
 20
0.846832
 11
-2.32443
 21
0.920303
  0
LINE
  8
0
 10
-2.32443
 20
0.920303
 11
-2.29437
 21
0.992859
  0
LINE
  8
0
 10
-2.29437
 20
0.992859
 11
-2.26205
 21
1.06444
  0
LINE
  8
0
 10
-2.26205
 20
1.06444
 11
-2.22751
 21
1.13496
  0
LINE
  8
0
 10
-2.22751
 20
1.13496
 11
-2.19077
 21
1.20438
  0
LINE
  8
0
 10
-2.19077
 20
1.20438
 11
-2.15184
 21
1.2726
  0
LINE
  8
0
 10
-2.15184
 20
1.2726
 11
-2.11081
 21
1.33955
  0
LINE
  8
0
 10
-2.11081
 20
1.33955
 11
-2.06769
 21
1.4052
  0
LINE
  8
0
 10
-2.06769
 20
1.4052
 11
-2.02254
 21
1.46945
  0
LINE
  8
0
 10
-2.02254
 20
1.46945
 11
-1.97537
 21
1.53226
  0
LINE
  8
0
 10
-1.97537
 20
1.53226
 11
-1.92627
 21
1.59355
  0
LINE
  8
0
 10
-1.92627
 20
1.59355
 11
-1.87527
 21
1.65327
  0
LINE
  8
0
 10
-1.87527
 20
1.65327
 11
-1.82242
 21
1.71136
  0
LINE
  8
0
 10
-1.82242
 20
1.71136
 11
-1.76776
 21
1.76776
  0
LINE
  8
0
 10
-1.76776
 20
1.76776
 11
-1.71136
 21
1.82242
  0
LINE
  8
0
 10
-1.71136
 20
1.82242
 11
-1.65327
 21
1.87527
  0
LINE
  8
0
 10
-1.65327
 20
1.87527
 11
-1.59355
 21
1.92627
  0
LINE
  8
0
 10
-1.59355
 20
1.92627
 11
-1.53226
 21
1.97537
  0
LINE
  8
0
 10
-1.53226
 20
1.97537
 11
-1.46945
 21
2.02254
  0
LINE
  8
0
 10
-1.46945
 20
2.02254
 11
-1.4052
 21
2.06769
  0
LINE
  8
0
 10
-1.4052
 20
2.06769
 11
-1.33955
 21
2.11081
  0
LINE
  8
0
 10
-1.33955
 20
2.11081
 11
-1.2726
 21
2.15184
  0
LINE
  8
0
 10
-1.2726
 20
2.15184
 11
-1.20438
 21
2.19077
  0
LINE
  8
0
 10
-1.20438
 20
2.19077
 11
-1.13496
 21
2.22751
  0
LINE
  8
0
 10
-1.13496
 20
2.22751
 11
-1.06444
 21
2.26205
  0
LINE
  8
0
 10
-1.06444
 20
2.26205
 11
-0.992859
 21
2.29437
  0
LINE
  8
0
 10
-0.992859
 20
2.29437
 11
-0.920303
 21
2.32443
  0
LINE
  8
0
 10
-0.920303
 20
2.32443
 11
-0.846832
 21
2.35219
  0
LINE
  8
0
 10
-0.846832
 20
2.35219
 11
-0.772537
 21
2.37764
  0
LINE
  8
0
 10
-0.772537
 20
2.37764
 11
-0.697464
 21
2.40073
  0
LINE
  8
0
 10
-0.697464
 20
2.40073
 11
-0.621719
 21
2.42145
  0
LINE
  8
0
 10
-0.621719
 20
2.42145
 11
-0.545349
 21
2.43979
  0
LINE
  8
0
 10
-0.545349
 20
2.43979
 11
-0.468445
 21
2.4557
  0
LINE
  8
0
 10
-0.468445
 20
2.4557
 11
-0.391083
 21
2.46921
  0
LINE
  8
0
 10
-0.391083
 20
2.46921
 11
-0.313324
 21
2.48029
  0
LINE
  8
0
 10
-0.313324
 20
2.48029
 11
-0.23526
 21
2.48889
  0
LINE
  8
0
 10
-0.23526
 20
2.48889
 11
-0.156967
 21
2.49506
  0
LINE
  8
0
 10
-0.156967
 20
2.49506
 11
-0.0785217
 21
2.49876
  0
LINE
  8
0
 10
-0.0785217
 20
2.49876
 11
0
 21
2.5
  0
LINE
  8
0
 10
0
 20
2.5
 11
0.0785217
 21
2.49876
  0
LINE
  8
0
 10
0.0785217
 20
2.49876
 11
0.156967
 21
2.49506
  0
LINE
  8
0
 10
0.156967
 20
2.49506
 11
0.23526
 21
2.48889
  0
LINE
  8
0
 10
0.23526
 20
2.48889
 11
0.313324
 21
2.48029
  0
LINE
  8
0
 10
0.313324
 20
2.48029
 11
0.391083
 21
2.46921
  0
LINE
  8
0
 10
0.391083
 20
2.46921
 11
0.468445
 21
2.4557
  0
LINE
  8
0
 10
0.468445
 20
2.4557
 11
0.545349
 21
2.43979
  0
LINE
  8
0
 10
0.545349
 20
2.43979
 11
0.621719
 21
2.42145
  0
LINE
  8
0
 10
0.621719
 20
2.42145
 11
0.697464
 21
2.40073
  0
LINE
  8
0
 10
0.697464
 20
2.40073
 11
0.772537
 21
2.37764
  0
LINE
  8
0
 10
0.772537
 20
2.37764
 11
0.846832
 21
2.35219
  0
LINE
  8
0
 10
0.846832
 20
2.35219
 11
0.920303
 21
2.32443
  0
LINE
  8
0
 10
0.920303
 20
2.32443
 11
0.992859
 21
2.29437
  0
LINE
  8
0
 10
0.992859
 20
2.29437
 11
1.06444
 21
2.26205
  0
LINE
  8
0
 10
1.06444
 20
2.26205
 11
1.13496
 21
2.22751
  0
LINE
  8
0
 10
1.13496
 20
2.22751
 11
1.20438
 21
2.19077
  0
LINE
  8
0
 10
1.20438
 20
2.19077
 11
1.2726
 21
2.15184
  0
LINE
  8
0
 10
1.2726
 20
2.15184
 11
1.33955
 21
2.11081
  0
LINE
  8
0
 10
1.33955
 20
2.11081
 11
1.4052
 21
2.06769
  0
LINE
  8
0
 10
1.4052
 20
2.06769
 11
1.46945
 21
2.02254
  0
LINE
  8
0
 10
1.46945
 20
2.02254
 11
1.53226
 21
1.97537
  0
LINE
  8
0
 10
1.53226
 20
1.97537
 11
1.59355
 21
1.92627
  0
LINE
  8
0
 10
1.59355
 20
1.92627
 11
1.65327
 21
1.87527
  0
LINE
  8
0
 10
1.65327
 20
1.87527
 11
1.71136
 21
1.82242
  0
LINE
  8
0
 10
1.71136
 20
1.82242
 11
1.76776
 21
1.76776
  0
LINE
  8
0
 10
1.76776
 20
1.76776
 11
1.82242
 21
1.71136
  0
LINE
  8
0
 10
1.82242
 20
1.71136
 11
1.87527
 21
1.65327
  0
LINE
  8
0
 10
1.87527
 20
1.65327
 11
1.92627
 21
1.59355
  0
LINE
  8
0
 10
1.92627
 20
1.59355
 11
1.97537
 21
1.53226
  0
LINE
  8
0
 10
1.97537
 20
1.53226
 11
2.02254
 21
1.46945
  0
LINE
  8
0
 10
2.02254
 20
1.46945
 11
2.06769
 21
1.4052
  0
LINE
  8
0
 10
2.06769
 20
1.4052
 11
2.11081
 21
1.33955
  0
LINE
  8
0
 10
2.11081
 20
1.33955
 11
2.15184
 21
1.2726
  0
LINE
  8
0
 10
2.15184
 20
1.2726
 11
2.19077
 21
1.20438
  0
LINE
  8
0
 10
2.19077
 20
1.20438
 11
2.22751
 21
1.13496
  0
LINE
  8
0
 10
2.22751
 20
1.13496
 11
2.26205
 21
1.06444
  0
LINE
  8
0
 10
2.26205
 20
1.06444
 11
2.29437
 21
0.992859
  0
LINE
  8
0
 10
2.29437
 20
0.992859
 11
2.32443
 21
0.920303
  0
LINE
  8
0
 10
2.32443
 20
0.920303
 11
2.35219
 21
0.846832
  0
LINE
  8
0
 10
2.35219
 20
0.846832
 11
2.37764
 21
0.772537
  0
LINE
  8
0
 10
2.37764
 20
0.772537
 11
2.40073
 21
0.697464
  0
LINE
  8
0
 10
2.40073
 20
0.697464
 11
2.42145
 21
0.621719
  0
LINE
  8
0
 10
2.42145
 20
0.621719
 11
2.43979
 21
0.545349
  0
LINE
  8
0
 10
2.43979
 20
0.545349
 11
2.4557
 21
0.468445
  0
LINE
  8
0
 10
2.4557
 20
0.468445
 11
2.46921
 21
0.391083
  0
LINE
  8
0
 10
2.46921
 20
0.391083
 11
2.48029
 21
0.313324
  0
LINE
  8
0
 10
2.48029
 20
0.313324
 11
2.48889
 21
0.23526
  0
LINE
  8
0
 10
2.48889
 20
0.23526
 11
2.49506
 21
0.156967
  0
LINE
  8
0
 10
2.49506
 20
0.156967
 11
2.49876
 21
0.0785217
  0
LINE
  8
0
 10
2.49876
 20
0.0785217
 11
2.5
 21
0
  0
LINE
  8
0
 10
2.5
 20
0
 11
2.49876
 21
-0.0785217
  0
LINE
  8
0
 10
2.49876
 20
-0.0785217
 11
2.49506
 21
-0.156967
  0
LINE
  8
0
 10
2.49506
 20
-0.156967
 11
2.48889
 21
-0.23526
  0
LINE
  8
0
 10
2.48889
 20
-0.23526
 11
2.48029
 21
-0.313324
  0
LINE
  8
0
 10
2.48029
 20
-0.313324
 11
2.46921
 21
-0.391083
  0
LINE
  8
0
 10
2.46921
 20
-0.391083
 11
2.4557
 21
-0.468445
  0
LINE
  8
0
 10
2.4557
 20
-0.468445
 11
2.43979
 21
-0.545349
  0
LINE
  8
0
 10
2.43979
 20
-0.545349
 11
2.42145
 21
-0.621719
  0
LINE
  8
0
 10
2.42145
 20
-0.621719
 11
2.40073
 21
-0.697464
  0
LINE
  8
0
 10
2.40073
 20
-0.697464
 11
2.37764
 21
-0.772537
  0
LINE
  8
0
 10
2.37764
 20
-0.772537
 11
2.35219
 21
-0.846832
  0
LINE
  8
0
 10
2.35219
 20
-0.846832
 11
2.32443
 21
-0.920303
  0
LINE
  8
0
 10
2.32443
 20
-0.920303
 11
2.29437
 21
-0.992859
  0
LINE
  8
0
 10
2.29437
 20
-0.992859
 11
2.26205
 21
-1.06444
  0
LINE
  8
0
 10
2.26205
 20
-1.06444
 11
2.22751
 21
-1.13496
  0
LINE
  8
0
 10
2.22751
 20
-1.13496
 11
2.19077
 21
-1.20438
  0
LINE
  8
0
 10
2.19077
 20
-1.20438
 11
2.15184
 21
-1.2726
  0
LINE
  8
0
 10
2.15184
 20
-1.2726
 11
2.11081
 21
-1.33955
  0
LINE
  8
0
 10
2.11081
 20
-1.33955
 11
2.06769
 21
-1.4052
  0
LINE
  8
0
 10
2.06769
 20
-1.4052
 11
1.9996
 21
-1.5
  0
LINE
  8
0
 10
1.9996
 20
-1.5
 11
-1.9996
 21
-1.5
  0
ENDSEC
  0
SECTION
  2
OBJECTS
  0
DICTIONARY
  0
ENDSEC
  0
EOF
