  0
SECTION
  2
BLOCKS
  0
ENDSEC
  0
SECTION
  2
ENTITIES
  0
LINE
  8
0
 10
64.5
 20
22.3
 11
0
 21
22.3
  0
LINE
  8
0
 10
0
 20
22.3
 11
0
 21
0
  0
LINE
  8
0
 10
0
 20
0
 11
64.5
 21
0
  0
LINE
  8
0
 10
64.5
 20
0
 11
64.5
 21
22.3
  0
LINE
  8
0
 10
60.344
 20
18.3401
 11
59.9
 21
18.5144
  0
LINE
  8
0
 10
59.9
 20
18.5144
 11
59.5271
 21
18.8117
  0
LINE
  8
0
 10
59.5271
 20
18.8117
 11
59.2584
 21
19.2058
  0
LINE
  8
0
 10
59.2584
 20
19.2058
 11
59.1179
 21
19.6615
  0
LINE
  8
0
 10
59.1179
 20
19.6615
 11
59.1179
 21
20.1385
  0
LINE
  8
0
 10
59.1179
 20
20.1385
 11
59.2584
 21
20.5942
  0
LINE
  8
0
 10
59.2584
 20
20.5942
 11
59.5271
 21
20.9883
  0
LINE
  8
0
 10
59.5271
 20
20.9883
 11
59.9
 21
21.2856
  0
LINE
  8
0
 10
59.9
 20
21.2856
 11
60.344
 21
21.4599
  0
LINE
  8
0
 10
60.344
 20
21.4599
 11
60.8196
 21
21.4955
  0
LINE
  8
0
 10
60.8196
 20
21.4955
 11
61.2845
 21
21.3894
  0
LINE
  8
0
 10
61.2845
 20
21.3894
 11
61.6976
 21
21.1509
  0
LINE
  8
0
 10
61.6976
 20
21.1509
 11
62.022
 21
20.8013
  0
LINE
  8
0
 10
62.022
 20
20.8013
 11
62.2289
 21
20.3716
  0
LINE
  8
0
 10
62.2289
 20
20.3716
 11
62.3
 21
19.9
  0
LINE
  8
0
 10
62.3
 20
19.9
 11
62.2289
 21
19.4284
  0
LINE
  8
0
 10
62.2289
 20
19.4284
 11
62.022
 21
18.9987
  0
LINE
  8
0
 10
62.022
 20
18.9987
 11
61.6976
 21
18.6491
  0
LINE
  8
0
 10
61.6976
 20
18.6491
 11
61.2845
 21
18.4106
  0
LINE
  8
0
 10
61.2845
 20
18.4106
 11
60.8196
 21
18.3045
  0
LINE
  8
0
 10
60.8196
 20
18.3045
 11
60.344
 21
18.3401
  0
LINE
  8
0
 10
10.2004
 20
9.64999
 11
10.1323
 21
9.74478
  0
LINE
  8
0
 10
10.1323
 20
9.74478
 11
10.0892
 21
9.81042
  0
LINE
  8
0
 10
10.0892
 20
9.81042
 11
10.0481
 21
9.8774
  0
LINE
  8
0
 10
10.0481
 20
9.8774
 11
10.0092
 21
9.9456
  0
LINE
  8
0
 10
10.0092
 20
9.9456
 11
9.97247
 21
10.015
  0
LINE
  8
0
 10
9.97247
 20
10.015
 11
9.93793
 21
10.0855
  0
LINE
  8
0
 10
9.93793
 20
10.0855
 11
9.90561
 21
10.1571
  0
LINE
  8
0
 10
9.90561
 20
10.1571
 11
9.87555
 21
10.2297
  0
LINE
  8
0
 10
9.87555
 20
10.2297
 11
9.84779
 21
10.3031
  0
LINE
  8
0
 10
9.84779
 20
10.3031
 11
9.82236
 21
10.3775
  0
LINE
  8
0
 10
9.82236
 20
10.3775
 11
9.79926
 21
10.4525
  0
LINE
  8
0
 10
9.79926
 20
10.4525
 11
9.77853
 21
10.5283
  0
LINE
  8
0
 10
9.77853
 20
10.5283
 11
9.76021
 21
10.6046
  0
LINE
  8
0
 10
9.76021
 20
10.6046
 11
9.74428
 21
10.6815
  0
LINE
  8
0
 10
9.74428
 20
10.6815
 11
9.73077
 21
10.7589
  0
LINE
  8
0
 10
9.73077
 20
10.7589
 11
9.71971
 21
10.8367
  0
LINE
  8
0
 10
9.71971
 20
10.8367
 11
9.71109
 21
10.9147
  0
LINE
  8
0
 10
9.71109
 20
10.9147
 11
9.70493
 21
10.993
  0
LINE
  8
0
 10
9.70493
 20
10.993
 11
9.70123
 21
11.0715
  0
LINE
  8
0
 10
9.70123
 20
11.0715
 11
9.7
 21
11.15
  0
LINE
  8
0
 10
9.7
 20
11.15
 11
9.70123
 21
11.2285
  0
LINE
  8
0
 10
9.70123
 20
11.2285
 11
9.70493
 21
11.307
  0
LINE
  8
0
 10
9.70493
 20
11.307
 11
9.71109
 21
11.3853
  0
LINE
  8
0
 10
9.71109
 20
11.3853
 11
9.71971
 21
11.4633
  0
LINE
  8
0
 10
9.71971
 20
11.4633
 11
9.73077
 21
11.5411
  0
LINE
  8
0
 10
9.73077
 20
11.5411
 11
9.74428
 21
11.6184
  0
LINE
  8
0
 10
9.74428
 20
11.6184
 11
9.76021
 21
11.6953
  0
LINE
  8
0
 10
9.76021
 20
11.6953
 11
9.77853
 21
11.7717
  0
LINE
  8
0
 10
9.77853
 20
11.7717
 11
9.79926
 21
11.8475
  0
LINE
  8
0
 10
9.79926
 20
11.8475
 11
9.82236
 21
11.9225
  0
LINE
  8
0
 10
9.82236
 20
11.9225
 11
9.84779
 21
11.9968
  0
LINE
  8
0
 10
9.84779
 20
11.9968
 11
9.87555
 21
12.0703
  0
LINE
  8
0
 10
9.87555
 20
12.0703
 11
9.90561
 21
12.1429
  0
LINE
  8
0
 10
9.90561
 20
12.1429
 11
9.93793
 21
12.2144
  0
LINE
  8
0
 10
9.93793
 20
12.2144
 11
9.97247
 21
12.285
  0
LINE
  8
0
 10
9.97247
 20
12.285
 11
10.0092
 21
12.3544
  0
LINE
  8
0
 10
10.0092
 20
12.3544
 11
10.0481
 21
12.4226
  0
LINE
  8
0
 10
10.0481
 20
12.4226
 11
10.0892
 21
12.4896
  0
LINE
  8
0
 10
10.0892
 20
12.4896
 11
10.1323
 21
12.5552
  0
LINE
  8
0
 10
10.1323
 20
12.5552
 11
10.2004
 21
12.65
  0
LINE
  8
0
 10
10.2004
 20
12.65
 11
14.1996
 21
12.65
  0
LINE
  8
0
 10
14.1996
 20
12.65
 11
14.2677
 21
12.5552
  0
LINE
  8
0
 10
14.2677
 20
12.5552
 11
14.3108
 21
12.4896
  0
LINE
  8
0
 10
14.3108
 20
12.4896
 11
14.3519
 21
12.4226
  0
LINE
  8
0
 10
14.3519
 20
12.4226
 11
14.3908
 21
12.3544
  0
LINE
  8
0
 10
14.3908
 20
12.3544
 11
14.4275
 21
12.285
  0
LINE
  8
0
 10
14.4275
 20
12.285
 11
14.4621
 21
12.2144
  0
LINE
  8
0
 10
14.4621
 20
12.2144
 11
14.4944
 21
12.1429
  0
LINE
  8
0
 10
14.4944
 20
12.1429
 11
14.5244
 21
12.0703
  0
LINE
  8
0
 10
14.5244
 20
12.0703
 11
14.5522
 21
11.9968
  0
LINE
  8
0
 10
14.5522
 20
11.9968
 11
14.5776
 21
11.9225
  0
LINE
  8
0
 10
14.5776
 20
11.9225
 11
14.6007
 21
11.8475
  0
LINE
  8
0
 10
14.6007
 20
11.8475
 11
14.6214
 21
11.7717
  0
LINE
  8
0
 10
14.6214
 20
11.7717
 11
14.6398
 21
11.6953
  0
LINE
  8
0
 10
14.6398
 20
11.6953
 11
14.6557
 21
11.6184
  0
LINE
  8
0
 10
14.6557
 20
11.6184
 11
14.6692
 21
11.5411
  0
LINE
  8
0
 10
14.6692
 20
11.5411
 11
14.6803
 21
11.4633
  0
LINE
  8
0
 10
14.6803
 20
11.4633
 11
14.6889
 21
11.3853
  0
LINE
  8
0
 10
14.6889
 20
11.3853
 11
14.6951
 21
11.307
  0
LINE
  8
0
 10
14.6951
 20
11.307
 11
14.6988
 21
11.2285
  0
LINE
  8
0
 10
14.6988
 20
11.2285
 11
14.7
 21
11.15
  0
LINE
  8
0
 10
14.7
 20
11.15
 11
14.6988
 21
11.0715
  0
LINE
  8
0
 10
14.6988
 20
11.0715
 11
14.6951
 21
10.993
  0
LINE
  8
0
 10
14.6951
 20
10.993
 11
14.6889
 21
10.9147
  0
LINE
  8
0
 10
14.6889
 20
10.9147
 11
14.6803
 21
10.8367
  0
LINE
  8
0
 10
14.6803
 20
10.8367
 11
14.6692
 21
10.7589
  0
LINE
  8
0
 10
14.6692
 20
10.7589
 11
14.6557
 21
10.6815
  0
LINE
  8
0
 10
14.6557
 20
10.6815
 11
14.6398
 21
10.6046
  0
LINE
  8
0
 10
14.6398
 20
10.6046
 11
14.6214
 21
10.5283
  0
LINE
  8
0
 10
14.6214
 20
10.5283
 11
14.6007
 21
10.4525
  0
LINE
  8
0
 10
14.6007
 20
10.4525
 11
14.5776
 21
10.3775
  0
LINE
  8
0
 10
14.5776
 20
10.3775
 11
14.5522
 21
10.3031
  0
LINE
  8
0
 10
14.5522
 20
10.3031
 11
14.5244
 21
10.2297
  0
LINE
  8
0
 10
14.5244
 20
10.2297
 11
14.4944
 21
10.1571
  0
LINE
  8
0
 10
14.4944
 20
10.1571
 11
14.4621
 21
10.0855
  0
LINE
  8
0
 10
14.4621
 20
10.0855
 11
14.4275
 21
10.015
  0
LINE
  8
0
 10
14.4275
 20
10.015
 11
14.3908
 21
9.9456
  0
LINE
  8
0
 10
14.3908
 20
9.9456
 11
14.3519
 21
9.8774
  0
LINE
  8
0
 10
14.3519
 20
9.8774
 11
14.3108
 21
9.81042
  0
LINE
  8
0
 10
14.3108
 20
9.81042
 11
14.2677
 21
9.74478
  0
LINE
  8
0
 10
14.2677
 20
9.74478
 11
14.1996
 21
9.64999
  0
LINE
  8
0
 10
14.1996
 20
9.64999
 11
10.2004
 21
9.64999
  0
LINE
  8
0
 10
60.344
 20
0.840103
 11
59.9
 21
1.01436
  0
LINE
  8
0
 10
59.9
 20
1.01436
 11
59.5271
 21
1.31172
  0
LINE
  8
0
 10
59.5271
 20
1.31172
 11
59.2584
 21
1.70578
  0
LINE
  8
0
 10
59.2584
 20
1.70578
 11
59.1179
 21
2.16153
  0
LINE
  8
0
 10
59.1179
 20
2.16153
 11
59.1179
 21
2.63846
  0
LINE
  8
0
 10
59.1179
 20
2.63846
 11
59.2584
 21
3.09421
  0
LINE
  8
0
 10
59.2584
 20
3.09421
 11
59.5271
 21
3.48827
  0
LINE
  8
0
 10
59.5271
 20
3.48827
 11
59.9
 21
3.78563
  0
LINE
  8
0
 10
59.9
 20
3.78563
 11
60.344
 21
3.95988
  0
LINE
  8
0
 10
60.344
 20
3.95988
 11
60.8196
 21
3.99551
  0
LINE
  8
0
 10
60.8196
 20
3.99551
 11
61.2845
 21
3.88939
  0
LINE
  8
0
 10
61.2845
 20
3.88939
 11
61.6976
 21
3.65092
  0
LINE
  8
0
 10
61.6976
 20
3.65092
 11
62.022
 21
3.3013
  0
LINE
  8
0
 10
62.022
 20
3.3013
 11
62.2289
 21
2.8716
  0
LINE
  8
0
 10
62.2289
 20
2.8716
 11
62.3
 21
2.39999
  0
LINE
  8
0
 10
62.3
 20
2.39999
 11
62.2289
 21
1.92839
  0
LINE
  8
0
 10
62.2289
 20
1.92839
 11
62.022
 21
1.49869
  0
LINE
  8
0
 10
62.022
 20
1.49869
 11
61.6976
 21
1.14906
  0
LINE
  8
0
 10
61.6976
 20
1.14906
 11
61.2845
 21
0.910599
  0
LINE
  8
0
 10
61.2845
 20
0.910599
 11
60.8196
 21
0.804474
  0
LINE
  8
0
 10
60.8196
 20
0.804474
 11
60.344
 21
0.840103
  0
ENDSEC
  0
SECTION
  2
OBJECTS
  0
DICTIONARY
  0
ENDSEC
  0
EOF
