  0
SECTION
  2
BLOCKS
  0
ENDSEC
  0
SECTION
  2
ENTITIES
  0
LINE
  8
0
 10
79.4225
 20
71.2724
 11
79.9
 21
71.4849
  0
LINE
  8
0
 10
79.9
 20
71.4849
 11
80.3228
 21
71.7921
  0
LINE
  8
0
 10
80.3228
 20
71.7921
 11
80.6725
 21
72.1805
  0
LINE
  8
0
 10
80.6725
 20
72.1805
 11
80.9339
 21
72.6332
  0
LINE
  8
0
 10
80.9339
 20
72.6332
 11
81.0954
 21
73.1302
  0
LINE
  8
0
 10
81.0954
 20
73.1302
 11
81.15
 21
73.65
  0
LINE
  8
0
 10
81.15
 20
73.65
 11
81.15
 21
79.2591
  0
LINE
  8
0
 10
81.15
 20
79.2591
 11
81.1373
 21
79.2618
  0
LINE
  8
0
 10
81.1373
 20
79.2618
 11
78.75
 21
80.3247
  0
LINE
  8
0
 10
78.75
 20
80.3247
 11
76.6359
 21
81.8607
  0
LINE
  8
0
 10
76.6359
 20
81.8607
 11
74.8873
 21
83.8027
  0
LINE
  8
0
 10
74.8873
 20
83.8027
 11
73.5807
 21
86.0658
  0
LINE
  8
0
 10
73.5807
 20
86.0658
 11
72.7731
 21
88.5511
  0
LINE
  8
0
 10
72.7731
 20
88.5511
 11
72.5
 21
91.15
  0
LINE
  8
0
 10
72.5
 20
91.15
 11
72.7731
 21
93.7489
  0
LINE
  8
0
 10
72.7731
 20
93.7489
 11
73.5807
 21
96.2342
  0
LINE
  8
0
 10
73.5807
 20
96.2342
 11
74.8873
 21
98.4973
  0
LINE
  8
0
 10
74.8873
 20
98.4973
 11
76.6359
 21
100.439
  0
LINE
  8
0
 10
76.6359
 20
100.439
 11
78.75
 21
101.975
  0
LINE
  8
0
 10
78.75
 20
101.975
 11
81.1373
 21
103.038
  0
LINE
  8
0
 10
81.1373
 20
103.038
 11
81.15
 21
103.041
  0
LINE
  8
0
 10
81.15
 20
103.041
 11
81.15
 21
108.65
  0
LINE
  8
0
 10
81.15
 20
108.65
 11
81.0954
 21
109.17
  0
LINE
  8
0
 10
81.0954
 20
109.17
 11
80.9339
 21
109.667
  0
LINE
  8
0
 10
80.9339
 20
109.667
 11
80.6725
 21
110.119
  0
LINE
  8
0
 10
80.6725
 20
110.119
 11
80.3228
 21
110.508
  0
LINE
  8
0
 10
80.3228
 20
110.508
 11
79.9
 21
110.815
  0
LINE
  8
0
 10
79.9
 20
110.815
 11
79.4225
 21
111.028
  0
LINE
  8
0
 10
79.4225
 20
111.028
 11
78.9113
 21
111.136
  0
LINE
  8
0
 10
78.9113
 20
111.136
 11
41.0887
 21
111.136
  0
LINE
  8
0
 10
41.0887
 20
111.136
 11
40.5775
 21
111.028
  0
LINE
  8
0
 10
40.5775
 20
111.028
 11
40.1
 21
110.815
  0
LINE
  8
0
 10
40.1
 20
110.815
 11
39.6772
 21
110.508
  0
LINE
  8
0
 10
39.6772
 20
110.508
 11
39.3275
 21
110.119
  0
LINE
  8
0
 10
39.3275
 20
110.119
 11
39.0661
 21
109.667
  0
LINE
  8
0
 10
39.0661
 20
109.667
 11
38.9046
 21
109.17
  0
LINE
  8
0
 10
38.9046
 20
109.17
 11
38.85
 21
108.65
  0
LINE
  8
0
 10
38.85
 20
108.65
 11
38.85
 21
103.041
  0
LINE
  8
0
 10
38.85
 20
103.041
 11
38.8627
 21
103.038
  0
LINE
  8
0
 10
38.8627
 20
103.038
 11
41.25
 21
101.975
  0
LINE
  8
0
 10
41.25
 20
101.975
 11
43.3641
 21
100.439
  0
LINE
  8
0
 10
43.3641
 20
100.439
 11
45.1127
 21
98.4973
  0
LINE
  8
0
 10
45.1127
 20
98.4973
 11
46.4193
 21
96.2342
  0
LINE
  8
0
 10
46.4193
 20
96.2342
 11
47.2268
 21
93.7489
  0
LINE
  8
0
 10
47.2268
 20
93.7489
 11
47.5
 21
91.15
  0
LINE
  8
0
 10
47.5
 20
91.15
 11
47.2268
 21
88.5511
  0
LINE
  8
0
 10
47.2268
 20
88.5511
 11
46.4193
 21
86.0658
  0
LINE
  8
0
 10
46.4193
 20
86.0658
 11
45.1127
 21
83.8027
  0
LINE
  8
0
 10
45.1127
 20
83.8027
 11
43.3641
 21
81.8607
  0
LINE
  8
0
 10
43.3641
 20
81.8607
 11
41.25
 21
80.3247
  0
LINE
  8
0
 10
41.25
 20
80.3247
 11
38.8627
 21
79.2618
  0
LINE
  8
0
 10
38.8627
 20
79.2618
 11
38.85
 21
79.2591
  0
LINE
  8
0
 10
38.85
 20
79.2591
 11
38.85
 21
73.65
  0
LINE
  8
0
 10
38.85
 20
73.65
 11
38.9046
 21
73.1302
  0
LINE
  8
0
 10
38.9046
 20
73.1302
 11
39.0661
 21
72.6332
  0
LINE
  8
0
 10
39.0661
 20
72.6332
 11
39.3275
 21
72.1805
  0
LINE
  8
0
 10
39.3275
 20
72.1805
 11
39.6772
 21
71.7921
  0
LINE
  8
0
 10
39.6772
 20
71.7921
 11
40.1
 21
71.4849
  0
LINE
  8
0
 10
40.1
 20
71.4849
 11
40.5775
 21
71.2724
  0
LINE
  8
0
 10
40.5775
 20
71.2724
 11
41.0887
 21
71.1637
  0
LINE
  8
0
 10
41.0887
 20
71.1637
 11
78.9113
 21
71.1637
  0
LINE
  8
0
 10
78.9113
 20
71.1637
 11
79.4225
 21
71.2724
  0
LINE
  8
0
 10
65
 20
102.3
 11
65
 21
107.3
  0
LINE
  8
0
 10
65
 20
107.3
 11
75
 21
107.3
  0
LINE
  8
0
 10
75
 20
107.3
 11
75
 21
102.3
  0
LINE
  8
0
 10
75
 20
102.3
 11
65
 21
102.3
  0
LINE
  8
0
 10
45
 20
102.3
 11
45
 21
107.3
  0
LINE
  8
0
 10
45
 20
107.3
 11
55
 21
107.3
  0
LINE
  8
0
 10
55
 20
107.3
 11
55
 21
102.3
  0
LINE
  8
0
 10
55
 20
102.3
 11
45
 21
102.3
  0
LINE
  8
0
 10
69.644
 20
98.3401
 11
69.2
 21
98.5144
  0
LINE
  8
0
 10
69.2
 20
98.5144
 11
68.8271
 21
98.8117
  0
LINE
  8
0
 10
68.8271
 20
98.8117
 11
68.5584
 21
99.2058
  0
LINE
  8
0
 10
68.5584
 20
99.2058
 11
68.4179
 21
99.6615
  0
LINE
  8
0
 10
68.4179
 20
99.6615
 11
68.4179
 21
100.138
  0
LINE
  8
0
 10
68.4179
 20
100.138
 11
68.5584
 21
100.594
  0
LINE
  8
0
 10
68.5584
 20
100.594
 11
68.8271
 21
100.988
  0
LINE
  8
0
 10
68.8271
 20
100.988
 11
69.2
 21
101.286
  0
LINE
  8
0
 10
69.2
 20
101.286
 11
69.644
 21
101.46
  0
LINE
  8
0
 10
69.644
 20
101.46
 11
70.1196
 21
101.496
  0
LINE
  8
0
 10
70.1196
 20
101.496
 11
70.5845
 21
101.389
  0
LINE
  8
0
 10
70.5845
 20
101.389
 11
70.9976
 21
101.151
  0
LINE
  8
0
 10
70.9976
 20
101.151
 11
71.322
 21
100.801
  0
LINE
  8
0
 10
71.322
 20
100.801
 11
71.5289
 21
100.372
  0
LINE
  8
0
 10
71.5289
 20
100.372
 11
71.6
 21
99.9
  0
LINE
  8
0
 10
71.6
 20
99.9
 11
71.5289
 21
99.4284
  0
LINE
  8
0
 10
71.5289
 20
99.4284
 11
71.322
 21
98.9987
  0
LINE
  8
0
 10
71.322
 20
98.9987
 11
70.9976
 21
98.6491
  0
LINE
  8
0
 10
70.9976
 20
98.6491
 11
70.5845
 21
98.4106
  0
LINE
  8
0
 10
70.5845
 20
98.4106
 11
70.1196
 21
98.3045
  0
LINE
  8
0
 10
70.1196
 20
98.3045
 11
69.644
 21
98.3401
  0
LINE
  8
0
 10
58.25
 20
88.65
 11
58.25
 21
93.65
  0
LINE
  8
0
 10
58.25
 20
93.65
 11
60.75
 21
93.65
  0
LINE
  8
0
 10
60.75
 20
93.65
 11
60.75
 21
88.65
  0
LINE
  8
0
 10
60.75
 20
88.65
 11
58.25
 21
88.65
  0
LINE
  8
0
 10
69.644
 20
80.8401
 11
69.2
 21
81.0144
  0
LINE
  8
0
 10
69.2
 20
81.0144
 11
68.8271
 21
81.3117
  0
LINE
  8
0
 10
68.8271
 20
81.3117
 11
68.5584
 21
81.7058
  0
LINE
  8
0
 10
68.5584
 20
81.7058
 11
68.4179
 21
82.1615
  0
LINE
  8
0
 10
68.4179
 20
82.1615
 11
68.4179
 21
82.6385
  0
LINE
  8
0
 10
68.4179
 20
82.6385
 11
68.5584
 21
83.0942
  0
LINE
  8
0
 10
68.5584
 20
83.0942
 11
68.8271
 21
83.4883
  0
LINE
  8
0
 10
68.8271
 20
83.4883
 11
69.2
 21
83.7856
  0
LINE
  8
0
 10
69.2
 20
83.7856
 11
69.644
 21
83.9599
  0
LINE
  8
0
 10
69.644
 20
83.9599
 11
70.1196
 21
83.9955
  0
LINE
  8
0
 10
70.1196
 20
83.9955
 11
70.5845
 21
83.8894
  0
LINE
  8
0
 10
70.5845
 20
83.8894
 11
70.9976
 21
83.6509
  0
LINE
  8
0
 10
70.9976
 20
83.6509
 11
71.322
 21
83.3013
  0
LINE
  8
0
 10
71.322
 20
83.3013
 11
71.5289
 21
82.8716
  0
LINE
  8
0
 10
71.5289
 20
82.8716
 11
71.6
 21
82.4
  0
LINE
  8
0
 10
71.6
 20
82.4
 11
71.5289
 21
81.9284
  0
LINE
  8
0
 10
71.5289
 20
81.9284
 11
71.322
 21
81.4987
  0
LINE
  8
0
 10
71.322
 20
81.4987
 11
70.9976
 21
81.1491
  0
LINE
  8
0
 10
70.9976
 20
81.1491
 11
70.5845
 21
80.9106
  0
LINE
  8
0
 10
70.5845
 20
80.9106
 11
70.1196
 21
80.8045
  0
LINE
  8
0
 10
70.1196
 20
80.8045
 11
69.644
 21
80.8401
  0
LINE
  8
0
 10
45
 20
75
 11
45
 21
80
  0
LINE
  8
0
 10
45
 20
80
 11
55
 21
80
  0
LINE
  8
0
 10
55
 20
80
 11
55
 21
75
  0
LINE
  8
0
 10
55
 20
75
 11
45
 21
75
  0
LINE
  8
0
 10
65
 20
75
 11
65
 21
80
  0
LINE
  8
0
 10
65
 20
80
 11
75
 21
80
  0
LINE
  8
0
 10
75
 20
80
 11
75
 21
75
  0
LINE
  8
0
 10
75
 20
75
 11
65
 21
75
  0
LINE
  8
0
 10
75
 20
33.1222
 11
74.3873
 21
33.8027
  0
LINE
  8
0
 10
74.3873
 20
33.8027
 11
73.0807
 21
36.0658
  0
LINE
  8
0
 10
73.0807
 20
36.0658
 11
72.2731
 21
38.5511
  0
LINE
  8
0
 10
72.2731
 20
38.5511
 11
72
 21
41.15
  0
LINE
  8
0
 10
72
 20
41.15
 11
72.2731
 21
43.7489
  0
LINE
  8
0
 10
72.2731
 20
43.7489
 11
73.0807
 21
46.2342
  0
LINE
  8
0
 10
73.0807
 20
46.2342
 11
74.3873
 21
48.4973
  0
LINE
  8
0
 10
74.3873
 20
48.4973
 11
75
 21
49.1778
  0
LINE
  8
0
 10
75
 20
49.1778
 11
75
 21
52.3
  0
LINE
  8
0
 10
75
 20
52.3
 11
37.5
 21
52.3
  0
LINE
  8
0
 10
37.5
 20
52.3
 11
37.5
 21
52.2507
  0
LINE
  8
0
 10
37.5
 20
52.2507
 11
8.05923
 21
52.2507
  0
LINE
  8
0
 10
8.05923
 20
52.2507
 11
6.21884
 21
51.8595
  0
LINE
  8
0
 10
6.21884
 20
51.8595
 11
4.5
 21
51.0942
  0
LINE
  8
0
 10
4.5
 20
51.0942
 11
2.97781
 21
49.9883
  0
LINE
  8
0
 10
2.97781
 20
49.9883
 11
1.71884
 21
48.5901
  0
LINE
  8
0
 10
1.71884
 20
48.5901
 11
0.778091
 21
46.9606
  0
LINE
  8
0
 10
0.778091
 20
46.9606
 11
0.196671
 21
45.1712
  0
LINE
  8
0
 10
0.196671
 20
45.1712
 11
0
 21
43.3
  0
LINE
  8
0
 10
0
 20
43.3
 11
0
 21
39
  0
LINE
  8
0
 10
0
 20
39
 11
0.196671
 21
37.1288
  0
LINE
  8
0
 10
0.196671
 20
37.1288
 11
0.778091
 21
35.3394
  0
LINE
  8
0
 10
0.778091
 20
35.3394
 11
1.71884
 21
33.7099
  0
LINE
  8
0
 10
1.71884
 20
33.7099
 11
2.97781
 21
32.3117
  0
LINE
  8
0
 10
2.97781
 20
32.3117
 11
4.5
 21
31.2058
  0
LINE
  8
0
 10
4.5
 20
31.2058
 11
6.21884
 21
30.4405
  0
LINE
  8
0
 10
6.21884
 20
30.4405
 11
8.05923
 21
30.0493
  0
LINE
  8
0
 10
8.05923
 20
30.0493
 11
37.5
 21
30.0493
  0
LINE
  8
0
 10
37.5
 20
30.0493
 11
37.5
 21
30
  0
LINE
  8
0
 10
37.5
 20
30
 11
75
 21
30
  0
LINE
  8
0
 10
75
 20
30
 11
75
 21
33.1222
  0
LINE
  8
0
 10
69.144
 20
48.3401
 11
68.7
 21
48.5144
  0
LINE
  8
0
 10
68.7
 20
48.5144
 11
68.3271
 21
48.8117
  0
LINE
  8
0
 10
68.3271
 20
48.8117
 11
68.0584
 21
49.2058
  0
LINE
  8
0
 10
68.0584
 20
49.2058
 11
67.9179
 21
49.6615
  0
LINE
  8
0
 10
67.9179
 20
49.6615
 11
67.9179
 21
50.1385
  0
LINE
  8
0
 10
67.9179
 20
50.1385
 11
68.0584
 21
50.5942
  0
LINE
  8
0
 10
68.0584
 20
50.5942
 11
68.3271
 21
50.9883
  0
LINE
  8
0
 10
68.3271
 20
50.9883
 11
68.7
 21
51.2856
  0
LINE
  8
0
 10
68.7
 20
51.2856
 11
69.144
 21
51.4599
  0
LINE
  8
0
 10
69.144
 20
51.4599
 11
69.6196
 21
51.4955
  0
LINE
  8
0
 10
69.6196
 20
51.4955
 11
70.0845
 21
51.3894
  0
LINE
  8
0
 10
70.0845
 20
51.3894
 11
70.4976
 21
51.1509
  0
LINE
  8
0
 10
70.4976
 20
51.1509
 11
70.822
 21
50.8013
  0
LINE
  8
0
 10
70.822
 20
50.8013
 11
71.0289
 21
50.3716
  0
LINE
  8
0
 10
71.0289
 20
50.3716
 11
71.1
 21
49.9
  0
LINE
  8
0
 10
71.1
 20
49.9
 11
71.0289
 21
49.4284
  0
LINE
  8
0
 10
71.0289
 20
49.4284
 11
70.822
 21
48.9987
  0
LINE
  8
0
 10
70.822
 20
48.9987
 11
70.4976
 21
48.6491
  0
LINE
  8
0
 10
70.4976
 20
48.6491
 11
70.0845
 21
48.4106
  0
LINE
  8
0
 10
70.0845
 20
48.4106
 11
69.6196
 21
48.3045
  0
LINE
  8
0
 10
69.6196
 20
48.3045
 11
69.144
 21
48.3401
  0
LINE
  8
0
 10
57.75
 20
38.65
 11
57.75
 21
43.65
  0
LINE
  8
0
 10
57.75
 20
43.65
 11
60.25
 21
43.65
  0
LINE
  8
0
 10
60.25
 20
43.65
 11
60.25
 21
38.65
  0
LINE
  8
0
 10
60.25
 20
38.65
 11
57.75
 21
38.65
  0
LINE
  8
0
 10
10.2548
 20
39.425
 11
10.1967
 21
39.4927
  0
LINE
  8
0
 10
10.1967
 20
39.4927
 11
10.1456
 21
39.5564
  0
LINE
  8
0
 10
10.1456
 20
39.5564
 11
10.0965
 21
39.6217
  0
LINE
  8
0
 10
10.0965
 20
39.6217
 11
10.0496
 21
39.6886
  0
LINE
  8
0
 10
10.0496
 20
39.6886
 11
10.0047
 21
39.7569
  0
LINE
  8
0
 10
10.0047
 20
39.7569
 11
9.96207
 21
39.8265
  0
LINE
  8
0
 10
9.96207
 20
39.8265
 11
9.9216
 21
39.8974
  0
LINE
  8
0
 10
9.9216
 20
39.8974
 11
9.88338
 21
39.9696
  0
LINE
  8
0
 10
9.88338
 20
39.9696
 11
9.84744
 21
40.043
  0
LINE
  8
0
 10
9.84744
 20
40.043
 11
9.81383
 21
40.1174
  0
LINE
  8
0
 10
9.81383
 20
40.1174
 11
9.78258
 21
40.1929
  0
LINE
  8
0
 10
9.78258
 20
40.1929
 11
9.75371
 21
40.2693
  0
LINE
  8
0
 10
9.75371
 20
40.2693
 11
9.72725
 21
40.3466
  0
LINE
  8
0
 10
9.72725
 20
40.3466
 11
9.70323
 21
40.4246
  0
LINE
  8
0
 10
9.70323
 20
40.4246
 11
9.68167
 21
40.5034
  0
LINE
  8
0
 10
9.68167
 20
40.5034
 11
9.66261
 21
40.5828
  0
LINE
  8
0
 10
9.66261
 20
40.5828
 11
9.64604
 21
40.6628
  0
LINE
  8
0
 10
9.64604
 20
40.6628
 11
9.632
 21
40.7433
  0
LINE
  8
0
 10
9.632
 20
40.7433
 11
9.6205
 21
40.8241
  0
LINE
  8
0
 10
9.6205
 20
40.8241
 11
9.61153
 21
40.9053
  0
LINE
  8
0
 10
9.61153
 20
40.9053
 11
9.60512
 21
40.9867
  0
LINE
  8
0
 10
9.60512
 20
40.9867
 11
9.60127
 21
41.0683
  0
LINE
  8
0
 10
9.60127
 20
41.0683
 11
9.59999
 21
41.15
  0
LINE
  8
0
 10
9.59999
 20
41.15
 11
9.60127
 21
41.2317
  0
LINE
  8
0
 10
9.60127
 20
41.2317
 11
9.60512
 21
41.3132
  0
LINE
  8
0
 10
9.60512
 20
41.3132
 11
9.61153
 21
41.3947
  0
LINE
  8
0
 10
9.61153
 20
41.3947
 11
9.6205
 21
41.4759
  0
LINE
  8
0
 10
9.6205
 20
41.4759
 11
9.632
 21
41.5567
  0
LINE
  8
0
 10
9.632
 20
41.5567
 11
9.64604
 21
41.6372
  0
LINE
  8
0
 10
9.64604
 20
41.6372
 11
9.66261
 21
41.7172
  0
LINE
  8
0
 10
9.66261
 20
41.7172
 11
9.68167
 21
41.7966
  0
LINE
  8
0
 10
9.68167
 20
41.7966
 11
9.70323
 21
41.8754
  0
LINE
  8
0
 10
9.70323
 20
41.8754
 11
9.72725
 21
41.9534
  0
LINE
  8
0
 10
9.72725
 20
41.9534
 11
9.75371
 21
42.0307
  0
LINE
  8
0
 10
9.75371
 20
42.0307
 11
9.78258
 21
42.1071
  0
LINE
  8
0
 10
9.78258
 20
42.1071
 11
9.81383
 21
42.1826
  0
LINE
  8
0
 10
9.81383
 20
42.1826
 11
9.84744
 21
42.257
  0
LINE
  8
0
 10
9.84744
 20
42.257
 11
9.88338
 21
42.3304
  0
LINE
  8
0
 10
9.88338
 20
42.3304
 11
9.9216
 21
42.4026
  0
LINE
  8
0
 10
9.9216
 20
42.4026
 11
9.96207
 21
42.4735
  0
LINE
  8
0
 10
9.96207
 20
42.4735
 11
10.0047
 21
42.5431
  0
LINE
  8
0
 10
10.0047
 20
42.5431
 11
10.0496
 21
42.6114
  0
LINE
  8
0
 10
10.0496
 20
42.6114
 11
10.0965
 21
42.6782
  0
LINE
  8
0
 10
10.0965
 20
42.6782
 11
10.1456
 21
42.7435
  0
LINE
  8
0
 10
10.1456
 20
42.7435
 11
10.1967
 21
42.8073
  0
LINE
  8
0
 10
10.1967
 20
42.8073
 11
10.2548
 21
42.875
  0
LINE
  8
0
 10
10.2548
 20
42.875
 11
14.1452
 21
42.875
  0
LINE
  8
0
 10
14.1452
 20
42.875
 11
14.2033
 21
42.8073
  0
LINE
  8
0
 10
14.2033
 20
42.8073
 11
14.2544
 21
42.7435
  0
LINE
  8
0
 10
14.2544
 20
42.7435
 11
14.3034
 21
42.6782
  0
LINE
  8
0
 10
14.3034
 20
42.6782
 11
14.3504
 21
42.6114
  0
LINE
  8
0
 10
14.3504
 20
42.6114
 11
14.3952
 21
42.5431
  0
LINE
  8
0
 10
14.3952
 20
42.5431
 11
14.4379
 21
42.4735
  0
LINE
  8
0
 10
14.4379
 20
42.4735
 11
14.4784
 21
42.4026
  0
LINE
  8
0
 10
14.4784
 20
42.4026
 11
14.5166
 21
42.3304
  0
LINE
  8
0
 10
14.5166
 20
42.3304
 11
14.5525
 21
42.257
  0
LINE
  8
0
 10
14.5525
 20
42.257
 11
14.5862
 21
42.1826
  0
LINE
  8
0
 10
14.5862
 20
42.1826
 11
14.6174
 21
42.1071
  0
LINE
  8
0
 10
14.6174
 20
42.1071
 11
14.6463
 21
42.0307
  0
LINE
  8
0
 10
14.6463
 20
42.0307
 11
14.6727
 21
41.9534
  0
LINE
  8
0
 10
14.6727
 20
41.9534
 11
14.6968
 21
41.8754
  0
LINE
  8
0
 10
14.6968
 20
41.8754
 11
14.7183
 21
41.7966
  0
LINE
  8
0
 10
14.7183
 20
41.7966
 11
14.7374
 21
41.7172
  0
LINE
  8
0
 10
14.7374
 20
41.7172
 11
14.7539
 21
41.6372
  0
LINE
  8
0
 10
14.7539
 20
41.6372
 11
14.768
 21
41.5567
  0
LINE
  8
0
 10
14.768
 20
41.5567
 11
14.7795
 21
41.4759
  0
LINE
  8
0
 10
14.7795
 20
41.4759
 11
14.7885
 21
41.3947
  0
LINE
  8
0
 10
14.7885
 20
41.3947
 11
14.7949
 21
41.3132
  0
LINE
  8
0
 10
14.7949
 20
41.3132
 11
14.7987
 21
41.2317
  0
LINE
  8
0
 10
14.7987
 20
41.2317
 11
14.8
 21
41.15
  0
LINE
  8
0
 10
14.8
 20
41.15
 11
14.7987
 21
41.0683
  0
LINE
  8
0
 10
14.7987
 20
41.0683
 11
14.7949
 21
40.9867
  0
LINE
  8
0
 10
14.7949
 20
40.9867
 11
14.7885
 21
40.9053
  0
LINE
  8
0
 10
14.7885
 20
40.9053
 11
14.7795
 21
40.8241
  0
LINE
  8
0
 10
14.7795
 20
40.8241
 11
14.768
 21
40.7433
  0
LINE
  8
0
 10
14.768
 20
40.7433
 11
14.7539
 21
40.6628
  0
LINE
  8
0
 10
14.7539
 20
40.6628
 11
14.7374
 21
40.5828
  0
LINE
  8
0
 10
14.7374
 20
40.5828
 11
14.7183
 21
40.5034
  0
LINE
  8
0
 10
14.7183
 20
40.5034
 11
14.6968
 21
40.4246
  0
LINE
  8
0
 10
14.6968
 20
40.4246
 11
14.6727
 21
40.3466
  0
LINE
  8
0
 10
14.6727
 20
40.3466
 11
14.6463
 21
40.2693
  0
LINE
  8
0
 10
14.6463
 20
40.2693
 11
14.6174
 21
40.1929
  0
LINE
  8
0
 10
14.6174
 20
40.1929
 11
14.5862
 21
40.1174
  0
LINE
  8
0
 10
14.5862
 20
40.1174
 11
14.5525
 21
40.043
  0
LINE
  8
0
 10
14.5525
 20
40.043
 11
14.5166
 21
39.9696
  0
LINE
  8
0
 10
14.5166
 20
39.9696
 11
14.4784
 21
39.8974
  0
LINE
  8
0
 10
14.4784
 20
39.8974
 11
14.4379
 21
39.8265
  0
LINE
  8
0
 10
14.4379
 20
39.8265
 11
14.3952
 21
39.7569
  0
LINE
  8
0
 10
14.3952
 20
39.7569
 11
14.3504
 21
39.6886
  0
LINE
  8
0
 10
14.3504
 20
39.6886
 11
14.3034
 21
39.6217
  0
LINE
  8
0
 10
14.3034
 20
39.6217
 11
14.2544
 21
39.5564
  0
LINE
  8
0
 10
14.2544
 20
39.5564
 11
14.2033
 21
39.4927
  0
LINE
  8
0
 10
14.2033
 20
39.4927
 11
14.1452
 21
39.425
  0
LINE
  8
0
 10
14.1452
 20
39.425
 11
10.2548
 21
39.425
  0
LINE
  8
0
 10
69.144
 20
30.8401
 11
68.7
 21
31.0144
  0
LINE
  8
0
 10
68.7
 20
31.0144
 11
68.3271
 21
31.3117
  0
LINE
  8
0
 10
68.3271
 20
31.3117
 11
68.0584
 21
31.7058
  0
LINE
  8
0
 10
68.0584
 20
31.7058
 11
67.9179
 21
32.1615
  0
LINE
  8
0
 10
67.9179
 20
32.1615
 11
67.9179
 21
32.6385
  0
LINE
  8
0
 10
67.9179
 20
32.6385
 11
68.0584
 21
33.0942
  0
LINE
  8
0
 10
68.0584
 20
33.0942
 11
68.3271
 21
33.4883
  0
LINE
  8
0
 10
68.3271
 20
33.4883
 11
68.7
 21
33.7856
  0
LINE
  8
0
 10
68.7
 20
33.7856
 11
69.144
 21
33.9599
  0
LINE
  8
0
 10
69.144
 20
33.9599
 11
69.6196
 21
33.9955
  0
LINE
  8
0
 10
69.6196
 20
33.9955
 11
70.0845
 21
33.8894
  0
LINE
  8
0
 10
70.0845
 20
33.8894
 11
70.4976
 21
33.6509
  0
LINE
  8
0
 10
70.4976
 20
33.6509
 11
70.822
 21
33.3013
  0
LINE
  8
0
 10
70.822
 20
33.3013
 11
71.0289
 21
32.8716
  0
LINE
  8
0
 10
71.0289
 20
32.8716
 11
71.1
 21
32.4
  0
LINE
  8
0
 10
71.1
 20
32.4
 11
71.0289
 21
31.9284
  0
LINE
  8
0
 10
71.0289
 20
31.9284
 11
70.822
 21
31.4987
  0
LINE
  8
0
 10
70.822
 20
31.4987
 11
70.4976
 21
31.1491
  0
LINE
  8
0
 10
70.4976
 20
31.1491
 11
70.0845
 21
30.9106
  0
LINE
  8
0
 10
70.0845
 20
30.9106
 11
69.6196
 21
30.8045
  0
LINE
  8
0
 10
69.6196
 20
30.8045
 11
69.144
 21
30.8401
  0
LINE
  8
0
 10
55
 20
-5
 11
55
 21
0.0438232
  0
LINE
  8
0
 10
55
 20
0.0438232
 11
65
 21
0.0438232
  0
LINE
  8
0
 10
65
 20
0.0438232
 11
65
 21
-5
  0
LINE
  8
0
 10
65
 20
-5
 11
75
 21
-5
  0
LINE
  8
0
 10
75
 20
-5
 11
75
 21
23.5
  0
LINE
  8
0
 10
75
 20
23.5
 11
65
 21
23.5
  0
LINE
  8
0
 10
65
 20
23.5
 11
65
 21
18.4562
  0
LINE
  8
0
 10
65
 20
18.4562
 11
55
 21
18.4562
  0
LINE
  8
0
 10
55
 20
18.4562
 11
55
 21
23.5
  0
LINE
  8
0
 10
55
 20
23.5
 11
45
 21
23.5
  0
LINE
  8
0
 10
45
 20
23.5
 11
45
 21
18.4562
  0
LINE
  8
0
 10
45
 20
18.4562
 11
7.16377
 21
18.4562
  0
LINE
  8
0
 10
7.16377
 20
18.4562
 11
5.52786
 21
18.1084
  0
LINE
  8
0
 10
5.52786
 20
18.1084
 11
4
 21
17.4282
  0
LINE
  8
0
 10
4
 20
17.4282
 11
2.64694
 21
16.4451
  0
LINE
  8
0
 10
2.64694
 20
16.4451
 11
1.52786
 21
15.2023
  0
LINE
  8
0
 10
1.52786
 20
15.2023
 11
0.691635
 21
13.7539
  0
LINE
  8
0
 10
0.691635
 20
13.7539
 11
0.17482
 21
12.1633
  0
LINE
  8
0
 10
0.17482
 20
12.1633
 11
0
 21
10.5
  0
LINE
  8
0
 10
0
 20
10.5
 11
0
 21
8
  0
LINE
  8
0
 10
0
 20
8
 11
0.17482
 21
6.3367
  0
LINE
  8
0
 10
0.17482
 20
6.3367
 11
0.691635
 21
4.74609
  0
LINE
  8
0
 10
0.691635
 20
4.74609
 11
1.52786
 21
3.29771
  0
LINE
  8
0
 10
1.52786
 20
3.29771
 11
2.64694
 21
2.05484
  0
LINE
  8
0
 10
2.64694
 20
2.05484
 11
4
 21
1.07179
  0
LINE
  8
0
 10
4
 20
1.07179
 11
5.52786
 21
0.391541
  0
LINE
  8
0
 10
5.52786
 20
0.391541
 11
7.16377
 21
0.0438232
  0
LINE
  8
0
 10
7.16377
 20
0.0438232
 11
45
 21
0.0438232
  0
LINE
  8
0
 10
45
 20
0.0438232
 11
45
 21
-5
  0
LINE
  8
0
 10
45
 20
-5
 11
55
 21
-5
  0
LINE
  8
0
 10
10.2548
 20
7.52499
 11
10.1967
 21
7.5927
  0
LINE
  8
0
 10
10.1967
 20
7.5927
 11
10.1456
 21
7.65643
  0
LINE
  8
0
 10
10.1456
 20
7.65643
 11
10.0965
 21
7.72176
  0
LINE
  8
0
 10
10.0965
 20
7.72176
 11
10.0496
 21
7.78857
  0
LINE
  8
0
 10
10.0496
 20
7.78857
 11
10.0047
 21
7.85684
  0
LINE
  8
0
 10
10.0047
 20
7.85684
 11
9.96207
 21
7.92648
  0
LINE
  8
0
 10
9.96207
 20
7.92648
 11
9.9216
 21
7.99744
  0
LINE
  8
0
 10
9.9216
 20
7.99744
 11
9.88338
 21
8.06961
  0
LINE
  8
0
 10
9.88338
 20
8.06961
 11
9.84744
 21
8.14296
  0
LINE
  8
0
 10
9.84744
 20
8.14296
 11
9.81383
 21
8.21741
  0
LINE
  8
0
 10
9.81383
 20
8.21741
 11
9.78258
 21
8.29286
  0
LINE
  8
0
 10
9.78258
 20
8.29286
 11
9.75371
 21
8.36928
  0
LINE
  8
0
 10
9.75371
 20
8.36928
 11
9.72725
 21
8.44655
  0
LINE
  8
0
 10
9.72725
 20
8.44655
 11
9.70323
 21
8.52461
  0
LINE
  8
0
 10
9.70323
 20
8.52461
 11
9.68167
 21
8.60339
  0
LINE
  8
0
 10
9.68167
 20
8.60339
 11
9.66261
 21
8.68282
  0
LINE
  8
0
 10
9.66261
 20
8.68282
 11
9.64604
 21
8.7628
  0
LINE
  8
0
 10
9.64604
 20
8.7628
 11
9.632
 21
8.84326
  0
LINE
  8
0
 10
9.632
 20
8.84326
 11
9.6205
 21
8.92413
  0
LINE
  8
0
 10
9.6205
 20
8.92413
 11
9.61153
 21
9.00531
  0
LINE
  8
0
 10
9.61153
 20
9.00531
 11
9.60512
 21
9.08673
  0
LINE
  8
0
 10
9.60512
 20
9.08673
 11
9.60127
 21
9.16832
  0
LINE
  8
0
 10
9.60127
 20
9.16832
 11
9.59999
 21
9.25
  0
LINE
  8
0
 10
9.59999
 20
9.25
 11
9.60127
 21
9.33167
  0
LINE
  8
0
 10
9.60127
 20
9.33167
 11
9.60512
 21
9.41325
  0
LINE
  8
0
 10
9.60512
 20
9.41325
 11
9.61153
 21
9.49467
  0
LINE
  8
0
 10
9.61153
 20
9.49467
 11
9.6205
 21
9.57585
  0
LINE
  8
0
 10
9.6205
 20
9.57585
 11
9.632
 21
9.65672
  0
LINE
  8
0
 10
9.632
 20
9.65672
 11
9.64604
 21
9.73718
  0
LINE
  8
0
 10
9.64604
 20
9.73718
 11
9.66261
 21
9.81717
  0
LINE
  8
0
 10
9.66261
 20
9.81717
 11
9.68167
 21
9.89659
  0
LINE
  8
0
 10
9.68167
 20
9.89659
 11
9.70323
 21
9.97537
  0
LINE
  8
0
 10
9.70323
 20
9.97537
 11
9.72725
 21
10.0534
  0
LINE
  8
0
 10
9.72725
 20
10.0534
 11
9.75371
 21
10.1307
  0
LINE
  8
0
 10
9.75371
 20
10.1307
 11
9.78258
 21
10.2071
  0
LINE
  8
0
 10
9.78258
 20
10.2071
 11
9.81383
 21
10.2826
  0
LINE
  8
0
 10
9.81383
 20
10.2826
 11
9.84744
 21
10.357
  0
LINE
  8
0
 10
9.84744
 20
10.357
 11
9.88338
 21
10.4304
  0
LINE
  8
0
 10
9.88338
 20
10.4304
 11
9.9216
 21
10.5025
  0
LINE
  8
0
 10
9.9216
 20
10.5025
 11
9.96207
 21
10.5735
  0
LINE
  8
0
 10
9.96207
 20
10.5735
 11
10.0047
 21
10.6431
  0
LINE
  8
0
 10
10.0047
 20
10.6431
 11
10.0496
 21
10.7114
  0
LINE
  8
0
 10
10.0496
 20
10.7114
 11
10.0965
 21
10.7782
  0
LINE
  8
0
 10
10.0965
 20
10.7782
 11
10.1456
 21
10.8436
  0
LINE
  8
0
 10
10.1456
 20
10.8436
 11
10.1967
 21
10.9073
  0
LINE
  8
0
 10
10.1967
 20
10.9073
 11
10.2548
 21
10.975
  0
LINE
  8
0
 10
10.2548
 20
10.975
 11
14.1452
 21
10.975
  0
LINE
  8
0
 10
14.1452
 20
10.975
 11
14.2033
 21
10.9073
  0
LINE
  8
0
 10
14.2033
 20
10.9073
 11
14.2544
 21
10.8436
  0
LINE
  8
0
 10
14.2544
 20
10.8436
 11
14.3034
 21
10.7782
  0
LINE
  8
0
 10
14.3034
 20
10.7782
 11
14.3504
 21
10.7114
  0
LINE
  8
0
 10
14.3504
 20
10.7114
 11
14.3952
 21
10.6431
  0
LINE
  8
0
 10
14.3952
 20
10.6431
 11
14.4379
 21
10.5735
  0
LINE
  8
0
 10
14.4379
 20
10.5735
 11
14.4784
 21
10.5025
  0
LINE
  8
0
 10
14.4784
 20
10.5025
 11
14.5166
 21
10.4304
  0
LINE
  8
0
 10
14.5166
 20
10.4304
 11
14.5525
 21
10.357
  0
LINE
  8
0
 10
14.5525
 20
10.357
 11
14.5862
 21
10.2826
  0
LINE
  8
0
 10
14.5862
 20
10.2826
 11
14.6174
 21
10.2071
  0
LINE
  8
0
 10
14.6174
 20
10.2071
 11
14.6463
 21
10.1307
  0
LINE
  8
0
 10
14.6463
 20
10.1307
 11
14.6727
 21
10.0534
  0
LINE
  8
0
 10
14.6727
 20
10.0534
 11
14.6968
 21
9.97537
  0
LINE
  8
0
 10
14.6968
 20
9.97537
 11
14.7183
 21
9.89659
  0
LINE
  8
0
 10
14.7183
 20
9.89659
 11
14.7374
 21
9.81717
  0
LINE
  8
0
 10
14.7374
 20
9.81717
 11
14.7539
 21
9.73718
  0
LINE
  8
0
 10
14.7539
 20
9.73718
 11
14.768
 21
9.65672
  0
LINE
  8
0
 10
14.768
 20
9.65672
 11
14.7795
 21
9.57585
  0
LINE
  8
0
 10
14.7795
 20
9.57585
 11
14.7885
 21
9.49467
  0
LINE
  8
0
 10
14.7885
 20
9.49467
 11
14.7949
 21
9.41325
  0
LINE
  8
0
 10
14.7949
 20
9.41325
 11
14.7987
 21
9.33167
  0
LINE
  8
0
 10
14.7987
 20
9.33167
 11
14.8
 21
9.25
  0
LINE
  8
0
 10
14.8
 20
9.25
 11
14.7987
 21
9.16832
  0
LINE
  8
0
 10
14.7987
 20
9.16832
 11
14.7949
 21
9.08673
  0
LINE
  8
0
 10
14.7949
 20
9.08673
 11
14.7885
 21
9.00531
  0
LINE
  8
0
 10
14.7885
 20
9.00531
 11
14.7795
 21
8.92413
  0
LINE
  8
0
 10
14.7795
 20
8.92413
 11
14.768
 21
8.84326
  0
LINE
  8
0
 10
14.768
 20
8.84326
 11
14.7539
 21
8.7628
  0
LINE
  8
0
 10
14.7539
 20
8.7628
 11
14.7374
 21
8.68282
  0
LINE
  8
0
 10
14.7374
 20
8.68282
 11
14.7183
 21
8.60339
  0
LINE
  8
0
 10
14.7183
 20
8.60339
 11
14.6968
 21
8.52461
  0
LINE
  8
0
 10
14.6968
 20
8.52461
 11
14.6727
 21
8.44655
  0
LINE
  8
0
 10
14.6727
 20
8.44655
 11
14.6463
 21
8.36928
  0
LINE
  8
0
 10
14.6463
 20
8.36928
 11
14.6174
 21
8.29286
  0
LINE
  8
0
 10
14.6174
 20
8.29286
 11
14.5862
 21
8.21741
  0
LINE
  8
0
 10
14.5862
 20
8.21741
 11
14.5525
 21
8.14296
  0
LINE
  8
0
 10
14.5525
 20
8.14296
 11
14.5166
 21
8.06961
  0
LINE
  8
0
 10
14.5166
 20
8.06961
 11
14.4784
 21
7.99744
  0
LINE
  8
0
 10
14.4784
 20
7.99744
 11
14.4379
 21
7.92648
  0
LINE
  8
0
 10
14.4379
 20
7.92648
 11
14.3952
 21
7.85684
  0
LINE
  8
0
 10
14.3952
 20
7.85684
 11
14.3504
 21
7.78857
  0
LINE
  8
0
 10
14.3504
 20
7.78857
 11
14.3034
 21
7.72176
  0
LINE
  8
0
 10
14.3034
 20
7.72176
 11
14.2544
 21
7.65643
  0
LINE
  8
0
 10
14.2544
 20
7.65643
 11
14.2033
 21
7.5927
  0
LINE
  8
0
 10
14.2033
 20
7.5927
 11
14.1452
 21
7.52499
  0
LINE
  8
0
 10
14.1452
 20
7.52499
 11
10.2548
 21
7.52499
  0
ENDSEC
  0
SECTION
  2
OBJECTS
  0
DICTIONARY
  0
ENDSEC
  0
EOF
