  0
SECTION
  2
BLOCKS
  0
ENDSEC
  0
SECTION
  2
ENTITIES
  0
LINE
  8
0
 10
0.266602
 20
-20.2363
 11
0.399414
 21
-19.9834
  0
LINE
  8
0
 10
0.399414
 20
-19.9834
 11
0.517578
 21
-19.7402
  0
LINE
  8
0
 10
0.517578
 20
-19.7402
 11
0.62207
 21
-19.5078
  0
LINE
  8
0
 10
0.62207
 20
-19.5078
 11
0.713867
 21
-19.2871
  0
LINE
  8
0
 10
0.713867
 20
-19.2871
 11
0.713867
 21
-19.2832
  0
LINE
  8
0
 10
0.713867
 20
-19.2832
 11
0.801758
 21
-19.2793
  0
LINE
  8
0
 10
0.801758
 20
-19.2793
 11
0.801758
 21
-19.2832
  0
LINE
  8
0
 10
0.801758
 20
-19.2832
 11
0.910156
 21
-19.4961
  0
LINE
  8
0
 10
0.910156
 20
-19.4961
 11
1.0332
 21
-19.7197
  0
LINE
  8
0
 10
1.0332
 20
-19.7197
 11
1.16992
 21
-19.9531
  0
LINE
  8
0
 10
1.16992
 20
-19.9531
 11
1.32227
 21
-20.1953
  0
LINE
  8
0
 10
1.32227
 20
-20.1953
 11
1.49023
 21
-20.4453
  0
LINE
  8
0
 10
1.49023
 20
-20.4453
 11
1.72656
 21
-20.4268
  0
LINE
  8
0
 10
1.72656
 20
-20.4268
 11
1.85352
 21
-20.1533
  0
LINE
  8
0
 10
1.85352
 20
-20.1533
 11
1.96582
 21
-19.8906
  0
LINE
  8
0
 10
1.96582
 20
-19.8906
 11
2.06445
 21
-19.6387
  0
LINE
  8
0
 10
2.06445
 20
-19.6387
 11
2.15039
 21
-19.3984
  0
LINE
  8
0
 10
2.15039
 20
-19.3984
 11
2.22461
 21
-19.168
  0
LINE
  8
0
 10
2.22461
 20
-19.168
 11
2.31152
 21
-19.1572
  0
LINE
  8
0
 10
2.31152
 20
-19.1572
 11
2.3125
 21
-19.1611
  0
LINE
  8
0
 10
2.3125
 20
-19.1611
 11
2.4375
 21
-19.3652
  0
LINE
  8
0
 10
2.4375
 20
-19.3652
 11
2.57715
 21
-19.5781
  0
LINE
  8
0
 10
2.57715
 20
-19.5781
 11
2.73145
 21
-19.7998
  0
LINE
  8
0
 10
2.73145
 20
-19.7998
 11
2.90234
 21
-20.0293
  0
LINE
  8
0
 10
2.90234
 20
-20.0293
 11
3.08984
 21
-20.2656
  0
LINE
  8
0
 10
3.08984
 20
-20.2656
 11
3.32422
 21
-20.2285
  0
LINE
  8
0
 10
3.32422
 20
-20.2285
 11
3.42871
 21
-19.9463
  0
LINE
  8
0
 10
3.42871
 20
-19.9463
 11
3.52051
 21
-19.6748
  0
LINE
  8
0
 10
3.52051
 20
-19.6748
 11
3.59863
 21
-19.416
  0
LINE
  8
0
 10
3.59863
 20
-19.416
 11
3.66602
 21
-19.1699
  0
LINE
  8
0
 10
3.66602
 20
-19.1699
 11
3.72168
 21
-18.9346
  0
LINE
  8
0
 10
3.72168
 20
-18.9346
 11
3.80762
 21
-18.917
  0
LINE
  8
0
 10
3.80762
 20
-18.917
 11
3.80859
 21
-18.9209
  0
LINE
  8
0
 10
3.80859
 20
-18.9209
 11
3.94922
 21
-19.1143
  0
LINE
  8
0
 10
3.94922
 20
-19.1143
 11
4.10547
 21
-19.3154
  0
LINE
  8
0
 10
4.10547
 20
-19.3154
 11
4.27734
 21
-19.5244
  0
LINE
  8
0
 10
4.27734
 20
-19.5244
 11
4.46484
 21
-19.7402
  0
LINE
  8
0
 10
4.46484
 20
-19.7402
 11
4.66992
 21
-19.9609
  0
LINE
  8
0
 10
4.66992
 20
-19.9609
 11
4.90039
 21
-19.9053
  0
LINE
  8
0
 10
4.90039
 20
-19.9053
 11
4.9834
 21
-19.6152
  0
LINE
  8
0
 10
4.9834
 20
-19.6152
 11
5.05273
 21
-19.3379
  0
LINE
  8
0
 10
5.05273
 20
-19.3379
 11
5.11133
 21
-19.0742
  0
LINE
  8
0
 10
5.11133
 20
-19.0742
 11
5.15918
 21
-18.8232
  0
LINE
  8
0
 10
5.15918
 20
-18.8232
 11
5.19629
 21
-18.5869
  0
LINE
  8
0
 10
5.19629
 20
-18.5869
 11
5.19531
 21
-18.584
  0
LINE
  8
0
 10
5.19531
 20
-18.584
 11
5.28027
 21
-18.5596
  0
LINE
  8
0
 10
5.28027
 20
-18.5596
 11
5.28125
 21
-18.5635
  0
LINE
  8
0
 10
5.28125
 20
-18.5635
 11
5.43652
 21
-18.7451
  0
LINE
  8
0
 10
5.43652
 20
-18.7451
 11
5.60742
 21
-18.9336
  0
LINE
  8
0
 10
5.60742
 20
-18.9336
 11
5.7959
 21
-19.1289
  0
LINE
  8
0
 10
5.7959
 20
-19.1289
 11
6
 21
-19.3281
  0
LINE
  8
0
 10
6
 20
-19.3281
 11
6.22168
 21
-19.5332
  0
LINE
  8
0
 10
6.22168
 20
-19.5332
 11
6.44727
 21
-19.46
  0
LINE
  8
0
 10
6.44727
 20
-19.46
 11
6.50684
 21
-19.1641
  0
LINE
  8
0
 10
6.50684
 20
-19.1641
 11
6.55469
 21
-18.8818
  0
LINE
  8
0
 10
6.55469
 20
-18.8818
 11
6.5918
 21
-18.6143
  0
LINE
  8
0
 10
6.5918
 20
-18.6143
 11
6.62012
 21
-18.3604
  0
LINE
  8
0
 10
6.62012
 20
-18.3604
 11
6.63867
 21
-18.1221
  0
LINE
  8
0
 10
6.63867
 20
-18.1221
 11
6.6377
 21
-18.1191
  0
LINE
  8
0
 10
6.6377
 20
-18.1191
 11
6.71973
 21
-18.0889
  0
LINE
  8
0
 10
6.71973
 20
-18.0889
 11
6.89062
 21
-18.2607
  0
LINE
  8
0
 10
6.89062
 20
-18.2607
 11
7.07617
 21
-18.4355
  0
LINE
  8
0
 10
7.07617
 20
-18.4355
 11
7.27832
 21
-18.6152
  0
LINE
  8
0
 10
7.27832
 20
-18.6152
 11
7.49805
 21
-18.7979
  0
LINE
  8
0
 10
7.49805
 20
-18.7979
 11
7.73535
 21
-18.9844
  0
LINE
  8
0
 10
7.73535
 20
-18.9844
 11
7.9541
 21
-18.8936
  0
LINE
  8
0
 10
7.9541
 20
-18.8936
 11
7.99023
 21
-18.5947
  0
LINE
  8
0
 10
7.99023
 20
-18.5947
 11
8.01562
 21
-18.3096
  0
LINE
  8
0
 10
8.01562
 20
-18.3096
 11
8.03223
 21
-18.0391
  0
LINE
  8
0
 10
8.03223
 20
-18.0391
 11
8.04004
 21
-17.7852
  0
LINE
  8
0
 10
8.04004
 20
-17.7852
 11
8.03906
 21
-17.542
  0
LINE
  8
0
 10
8.03906
 20
-17.542
 11
8.11816
 21
-17.5059
  0
LINE
  8
0
 10
8.11816
 20
-17.5059
 11
8.30176
 21
-17.6641
  0
LINE
  8
0
 10
8.30176
 20
-17.6641
 11
8.50098
 21
-17.8232
  0
LINE
  8
0
 10
8.50098
 20
-17.8232
 11
8.7168
 21
-17.9863
  0
LINE
  8
0
 10
8.7168
 20
-17.9863
 11
8.9502
 21
-18.1523
  0
LINE
  8
0
 10
8.9502
 20
-18.1523
 11
9.20117
 21
-18.3193
  0
LINE
  8
0
 10
9.20117
 20
-18.3193
 11
9.41211
 21
-18.2119
  0
LINE
  8
0
 10
9.41211
 20
-18.2119
 11
9.4248
 21
-17.9102
  0
LINE
  8
0
 10
9.4248
 20
-17.9102
 11
9.42773
 21
-17.624
  0
LINE
  8
0
 10
9.42773
 20
-17.624
 11
9.42285
 21
-17.3535
  0
LINE
  8
0
 10
9.42285
 20
-17.3535
 11
9.41016
 21
-17.0986
  0
LINE
  8
0
 10
9.41016
 20
-17.0986
 11
9.39062
 21
-16.8574
  0
LINE
  8
0
 10
9.39062
 20
-16.8574
 11
9.4668
 21
-16.8145
  0
LINE
  8
0
 10
9.4668
 20
-16.8145
 11
9.46875
 21
-16.8174
  0
LINE
  8
0
 10
9.46875
 20
-16.8174
 11
9.66211
 21
-16.958
  0
LINE
  8
0
 10
9.66211
 20
-16.958
 11
9.87305
 21
-17.1016
  0
LINE
  8
0
 10
9.87305
 20
-17.1016
 11
10.1006
 21
-17.2471
  0
LINE
  8
0
 10
10.1006
 20
-17.2471
 11
10.3467
 21
-17.3936
  0
LINE
  8
0
 10
10.3467
 20
-17.3936
 11
10.6104
 21
-17.541
  0
LINE
  8
0
 10
10.6104
 20
-17.541
 11
10.8125
 21
-17.417
  0
LINE
  8
0
 10
10.8125
 20
-17.417
 11
10.8008
 21
-17.1152
  0
LINE
  8
0
 10
10.8008
 20
-17.1152
 11
10.7812
 21
-16.8301
  0
LINE
  8
0
 10
10.7812
 20
-16.8301
 11
10.7559
 21
-16.5605
  0
LINE
  8
0
 10
10.7559
 20
-16.5605
 11
10.7236
 21
-16.3076
  0
LINE
  8
0
 10
10.7236
 20
-16.3076
 11
10.6855
 21
-16.0713
  0
LINE
  8
0
 10
10.6855
 20
-16.0713
 11
10.6836
 21
-16.0684
  0
LINE
  8
0
 10
10.6836
 20
-16.0684
 11
10.7568
 21
-16.0195
  0
LINE
  8
0
 10
10.7568
 20
-16.0195
 11
10.7588
 21
-16.0225
  0
LINE
  8
0
 10
10.7588
 20
-16.0225
 11
10.9629
 21
-16.1475
  0
LINE
  8
0
 10
10.9629
 20
-16.1475
 11
11.1846
 21
-16.2744
  0
LINE
  8
0
 10
11.1846
 20
-16.2744
 11
11.4229
 21
-16.4014
  0
LINE
  8
0
 10
11.4229
 20
-16.4014
 11
11.6797
 21
-16.5283
  0
LINE
  8
0
 10
11.6797
 20
-16.5283
 11
11.9531
 21
-16.6543
  0
LINE
  8
0
 10
11.9531
 20
-16.6543
 11
12.1455
 21
-16.5146
  0
LINE
  8
0
 10
12.1455
 20
-16.5146
 11
12.1104
 21
-16.2148
  0
LINE
  8
0
 10
12.1104
 20
-16.2148
 11
12.0684
 21
-15.9326
  0
LINE
  8
0
 10
12.0684
 20
-15.9326
 11
12.0215
 21
-15.666
  0
LINE
  8
0
 10
12.0215
 20
-15.666
 11
11.9697
 21
-15.416
  0
LINE
  8
0
 10
11.9697
 20
-15.416
 11
11.9141
 21
-15.1836
  0
LINE
  8
0
 10
11.9141
 20
-15.1836
 11
11.9121
 21
-15.1807
  0
LINE
  8
0
 10
11.9121
 20
-15.1807
 11
11.9805
 21
-15.127
  0
LINE
  8
0
 10
11.9805
 20
-15.127
 11
11.9834
 21
-15.1299
  0
LINE
  8
0
 10
11.9834
 20
-15.1299
 11
12.1963
 21
-15.2383
  0
LINE
  8
0
 10
12.1963
 20
-15.2383
 11
12.4268
 21
-15.3467
  0
LINE
  8
0
 10
12.4268
 20
-15.3467
 11
12.6748
 21
-15.4551
  0
LINE
  8
0
 10
12.6748
 20
-15.4551
 11
12.9404
 21
-15.5615
  0
LINE
  8
0
 10
12.9404
 20
-15.5615
 11
13.2236
 21
-15.665
  0
LINE
  8
0
 10
13.2236
 20
-15.665
 11
13.4033
 21
-15.5107
  0
LINE
  8
0
 10
13.4033
 20
-15.5107
 11
13.3457
 21
-15.2148
  0
LINE
  8
0
 10
13.3457
 20
-15.2148
 11
13.2812
 21
-14.9365
  0
LINE
  8
0
 10
13.2812
 20
-14.9365
 11
13.2139
 21
-14.6748
  0
LINE
  8
0
 10
13.2139
 20
-14.6748
 11
13.1426
 21
-14.4297
  0
LINE
  8
0
 10
13.1426
 20
-14.4297
 11
13.0664
 21
-14.1992
  0
LINE
  8
0
 10
13.0664
 20
-14.1992
 11
13.1309
 21
-14.1396
  0
LINE
  8
0
 10
13.1309
 20
-14.1396
 11
13.1328
 21
-14.1426
  0
LINE
  8
0
 10
13.1328
 20
-14.1426
 11
13.3545
 21
-14.2344
  0
LINE
  8
0
 10
13.3545
 20
-14.2344
 11
13.5928
 21
-14.3242
  0
LINE
  8
0
 10
13.5928
 20
-14.3242
 11
13.8477
 21
-14.4131
  0
LINE
  8
0
 10
13.8477
 20
-14.4131
 11
14.1211
 21
-14.498
  0
LINE
  8
0
 10
14.1211
 20
-14.498
 11
14.4111
 21
-14.5791
  0
LINE
  8
0
 10
14.4111
 20
-14.5791
 11
14.5791
 21
-14.4111
  0
LINE
  8
0
 10
14.5791
 20
-14.4111
 11
14.498
 21
-14.1211
  0
LINE
  8
0
 10
14.498
 20
-14.1211
 11
14.4131
 21
-13.8477
  0
LINE
  8
0
 10
14.4131
 20
-13.8477
 11
14.3242
 21
-13.5928
  0
LINE
  8
0
 10
14.3242
 20
-13.5928
 11
14.2344
 21
-13.3545
  0
LINE
  8
0
 10
14.2344
 20
-13.3545
 11
14.1426
 21
-13.1328
  0
LINE
  8
0
 10
14.1426
 20
-13.1328
 11
14.1396
 21
-13.1309
  0
LINE
  8
0
 10
14.1396
 20
-13.1309
 11
14.1992
 21
-13.0664
  0
LINE
  8
0
 10
14.1992
 20
-13.0664
 11
14.4297
 21
-13.1426
  0
LINE
  8
0
 10
14.4297
 20
-13.1426
 11
14.6748
 21
-13.2139
  0
LINE
  8
0
 10
14.6748
 20
-13.2139
 11
14.9365
 21
-13.2812
  0
LINE
  8
0
 10
14.9365
 20
-13.2812
 11
15.2148
 21
-13.3457
  0
LINE
  8
0
 10
15.2148
 20
-13.3457
 11
15.5107
 21
-13.4033
  0
LINE
  8
0
 10
15.5107
 20
-13.4033
 11
15.665
 21
-13.2236
  0
LINE
  8
0
 10
15.665
 20
-13.2236
 11
15.5615
 21
-12.9404
  0
LINE
  8
0
 10
15.5615
 20
-12.9404
 11
15.4551
 21
-12.6748
  0
LINE
  8
0
 10
15.4551
 20
-12.6748
 11
15.3467
 21
-12.4268
  0
LINE
  8
0
 10
15.3467
 20
-12.4268
 11
15.2383
 21
-12.1963
  0
LINE
  8
0
 10
15.2383
 20
-12.1963
 11
15.1299
 21
-11.9834
  0
LINE
  8
0
 10
15.1299
 20
-11.9834
 11
15.127
 21
-11.9805
  0
LINE
  8
0
 10
15.127
 20
-11.9805
 11
15.1807
 21
-11.9121
  0
LINE
  8
0
 10
15.1807
 20
-11.9121
 11
15.1836
 21
-11.9141
  0
LINE
  8
0
 10
15.1836
 20
-11.9141
 11
15.416
 21
-11.9697
  0
LINE
  8
0
 10
15.416
 20
-11.9697
 11
15.666
 21
-12.0215
  0
LINE
  8
0
 10
15.666
 20
-12.0215
 11
15.9326
 21
-12.0684
  0
LINE
  8
0
 10
15.9326
 20
-12.0684
 11
16.2148
 21
-12.1104
  0
LINE
  8
0
 10
16.2148
 20
-12.1104
 11
16.5146
 21
-12.1455
  0
LINE
  8
0
 10
16.5146
 20
-12.1455
 11
16.6543
 21
-11.9531
  0
LINE
  8
0
 10
16.6543
 20
-11.9531
 11
16.5283
 21
-11.6797
  0
LINE
  8
0
 10
16.5283
 20
-11.6797
 11
16.4014
 21
-11.4229
  0
LINE
  8
0
 10
16.4014
 20
-11.4229
 11
16.2744
 21
-11.1846
  0
LINE
  8
0
 10
16.2744
 20
-11.1846
 11
16.1475
 21
-10.9629
  0
LINE
  8
0
 10
16.1475
 20
-10.9629
 11
16.0225
 21
-10.7588
  0
LINE
  8
0
 10
16.0225
 20
-10.7588
 11
16.0195
 21
-10.7568
  0
LINE
  8
0
 10
16.0195
 20
-10.7568
 11
16.0684
 21
-10.6836
  0
LINE
  8
0
 10
16.0684
 20
-10.6836
 11
16.0713
 21
-10.6855
  0
LINE
  8
0
 10
16.0713
 20
-10.6855
 11
16.3076
 21
-10.7236
  0
LINE
  8
0
 10
16.3076
 20
-10.7236
 11
16.5605
 21
-10.7559
  0
LINE
  8
0
 10
16.5605
 20
-10.7559
 11
16.8301
 21
-10.7812
  0
LINE
  8
0
 10
16.8301
 20
-10.7812
 11
17.1152
 21
-10.8008
  0
LINE
  8
0
 10
17.1152
 20
-10.8008
 11
17.417
 21
-10.8125
  0
LINE
  8
0
 10
17.417
 20
-10.8125
 11
17.541
 21
-10.6104
  0
LINE
  8
0
 10
17.541
 20
-10.6104
 11
17.3936
 21
-10.3467
  0
LINE
  8
0
 10
17.3936
 20
-10.3467
 11
17.2471
 21
-10.1006
  0
LINE
  8
0
 10
17.2471
 20
-10.1006
 11
17.1016
 21
-9.87305
  0
LINE
  8
0
 10
17.1016
 20
-9.87305
 11
16.958
 21
-9.66211
  0
LINE
  8
0
 10
16.958
 20
-9.66211
 11
16.8174
 21
-9.46875
  0
LINE
  8
0
 10
16.8174
 20
-9.46875
 11
16.8145
 21
-9.4668
  0
LINE
  8
0
 10
16.8145
 20
-9.4668
 11
16.8574
 21
-9.39062
  0
LINE
  8
0
 10
16.8574
 20
-9.39062
 11
17.0986
 21
-9.41016
  0
LINE
  8
0
 10
17.0986
 20
-9.41016
 11
17.3535
 21
-9.42285
  0
LINE
  8
0
 10
17.3535
 20
-9.42285
 11
17.624
 21
-9.42773
  0
LINE
  8
0
 10
17.624
 20
-9.42773
 11
17.9102
 21
-9.4248
  0
LINE
  8
0
 10
17.9102
 20
-9.4248
 11
18.2119
 21
-9.41211
  0
LINE
  8
0
 10
18.2119
 20
-9.41211
 11
18.3193
 21
-9.20117
  0
LINE
  8
0
 10
18.3193
 20
-9.20117
 11
18.1523
 21
-8.9502
  0
LINE
  8
0
 10
18.1523
 20
-8.9502
 11
17.9863
 21
-8.7168
  0
LINE
  8
0
 10
17.9863
 20
-8.7168
 11
17.8232
 21
-8.50098
  0
LINE
  8
0
 10
17.8232
 20
-8.50098
 11
17.6641
 21
-8.30176
  0
LINE
  8
0
 10
17.6641
 20
-8.30176
 11
17.5059
 21
-8.11816
  0
LINE
  8
0
 10
17.5059
 20
-8.11816
 11
17.542
 21
-8.03906
  0
LINE
  8
0
 10
17.542
 20
-8.03906
 11
17.7852
 21
-8.04004
  0
LINE
  8
0
 10
17.7852
 20
-8.04004
 11
18.0391
 21
-8.03223
  0
LINE
  8
0
 10
18.0391
 20
-8.03223
 11
18.3096
 21
-8.01562
  0
LINE
  8
0
 10
18.3096
 20
-8.01562
 11
18.5947
 21
-7.99023
  0
LINE
  8
0
 10
18.5947
 20
-7.99023
 11
18.8936
 21
-7.9541
  0
LINE
  8
0
 10
18.8936
 20
-7.9541
 11
18.9844
 21
-7.73535
  0
LINE
  8
0
 10
18.9844
 20
-7.73535
 11
18.7979
 21
-7.49805
  0
LINE
  8
0
 10
18.7979
 20
-7.49805
 11
18.6152
 21
-7.27832
  0
LINE
  8
0
 10
18.6152
 20
-7.27832
 11
18.4355
 21
-7.07617
  0
LINE
  8
0
 10
18.4355
 20
-7.07617
 11
18.2607
 21
-6.89062
  0
LINE
  8
0
 10
18.2607
 20
-6.89062
 11
18.0889
 21
-6.71973
  0
LINE
  8
0
 10
18.0889
 20
-6.71973
 11
18.1191
 21
-6.6377
  0
LINE
  8
0
 10
18.1191
 20
-6.6377
 11
18.1221
 21
-6.63867
  0
LINE
  8
0
 10
18.1221
 20
-6.63867
 11
18.3604
 21
-6.62012
  0
LINE
  8
0
 10
18.3604
 20
-6.62012
 11
18.6143
 21
-6.5918
  0
LINE
  8
0
 10
18.6143
 20
-6.5918
 11
18.8818
 21
-6.55469
  0
LINE
  8
0
 10
18.8818
 20
-6.55469
 11
19.1641
 21
-6.50684
  0
LINE
  8
0
 10
19.1641
 20
-6.50684
 11
19.46
 21
-6.44727
  0
LINE
  8
0
 10
19.46
 20
-6.44727
 11
19.5332
 21
-6.22168
  0
LINE
  8
0
 10
19.5332
 20
-6.22168
 11
19.3281
 21
-6
  0
LINE
  8
0
 10
19.3281
 20
-6
 11
19.1289
 21
-5.7959
  0
LINE
  8
0
 10
19.1289
 20
-5.7959
 11
18.9336
 21
-5.60742
  0
LINE
  8
0
 10
18.9336
 20
-5.60742
 11
18.7451
 21
-5.43652
  0
LINE
  8
0
 10
18.7451
 20
-5.43652
 11
18.5635
 21
-5.28125
  0
LINE
  8
0
 10
18.5635
 20
-5.28125
 11
18.5596
 21
-5.28027
  0
LINE
  8
0
 10
18.5596
 20
-5.28027
 11
18.584
 21
-5.19531
  0
LINE
  8
0
 10
18.584
 20
-5.19531
 11
18.5869
 21
-5.19629
  0
LINE
  8
0
 10
18.5869
 20
-5.19629
 11
18.8232
 21
-5.15918
  0
LINE
  8
0
 10
18.8232
 20
-5.15918
 11
19.0742
 21
-5.11133
  0
LINE
  8
0
 10
19.0742
 20
-5.11133
 11
19.3379
 21
-5.05273
  0
LINE
  8
0
 10
19.3379
 20
-5.05273
 11
19.6152
 21
-4.9834
  0
LINE
  8
0
 10
19.6152
 20
-4.9834
 11
19.9053
 21
-4.90039
  0
LINE
  8
0
 10
19.9053
 20
-4.90039
 11
19.9609
 21
-4.66992
  0
LINE
  8
0
 10
19.9609
 20
-4.66992
 11
19.7402
 21
-4.46484
  0
LINE
  8
0
 10
19.7402
 20
-4.46484
 11
19.5244
 21
-4.27734
  0
LINE
  8
0
 10
19.5244
 20
-4.27734
 11
19.3154
 21
-4.10547
  0
LINE
  8
0
 10
19.3154
 20
-4.10547
 11
19.1143
 21
-3.94922
  0
LINE
  8
0
 10
19.1143
 20
-3.94922
 11
18.9209
 21
-3.80859
  0
LINE
  8
0
 10
18.9209
 20
-3.80859
 11
18.917
 21
-3.80762
  0
LINE
  8
0
 10
18.917
 20
-3.80762
 11
18.9346
 21
-3.72168
  0
LINE
  8
0
 10
18.9346
 20
-3.72168
 11
19.1699
 21
-3.66602
  0
LINE
  8
0
 10
19.1699
 20
-3.66602
 11
19.416
 21
-3.59863
  0
LINE
  8
0
 10
19.416
 20
-3.59863
 11
19.6748
 21
-3.52051
  0
LINE
  8
0
 10
19.6748
 20
-3.52051
 11
19.9463
 21
-3.42871
  0
LINE
  8
0
 10
19.9463
 20
-3.42871
 11
20.2285
 21
-3.32422
  0
LINE
  8
0
 10
20.2285
 20
-3.32422
 11
20.2656
 21
-3.08984
  0
LINE
  8
0
 10
20.2656
 20
-3.08984
 11
20.0293
 21
-2.90234
  0
LINE
  8
0
 10
20.0293
 20
-2.90234
 11
19.7998
 21
-2.73145
  0
LINE
  8
0
 10
19.7998
 20
-2.73145
 11
19.5781
 21
-2.57715
  0
LINE
  8
0
 10
19.5781
 20
-2.57715
 11
19.3652
 21
-2.4375
  0
LINE
  8
0
 10
19.3652
 20
-2.4375
 11
19.1611
 21
-2.3125
  0
LINE
  8
0
 10
19.1611
 20
-2.3125
 11
19.1572
 21
-2.31152
  0
LINE
  8
0
 10
19.1572
 20
-2.31152
 11
19.168
 21
-2.22461
  0
LINE
  8
0
 10
19.168
 20
-2.22461
 11
19.3984
 21
-2.15039
  0
LINE
  8
0
 10
19.3984
 20
-2.15039
 11
19.6387
 21
-2.06445
  0
LINE
  8
0
 10
19.6387
 20
-2.06445
 11
19.8906
 21
-1.96582
  0
LINE
  8
0
 10
19.8906
 20
-1.96582
 11
20.1533
 21
-1.85352
  0
LINE
  8
0
 10
20.1533
 20
-1.85352
 11
20.4268
 21
-1.72656
  0
LINE
  8
0
 10
20.4268
 20
-1.72656
 11
20.4453
 21
-1.49023
  0
LINE
  8
0
 10
20.4453
 20
-1.49023
 11
20.1953
 21
-1.32227
  0
LINE
  8
0
 10
20.1953
 20
-1.32227
 11
19.9531
 21
-1.16992
  0
LINE
  8
0
 10
19.9531
 20
-1.16992
 11
19.7197
 21
-1.0332
  0
LINE
  8
0
 10
19.7197
 20
-1.0332
 11
19.4961
 21
-0.910156
  0
LINE
  8
0
 10
19.4961
 20
-0.910156
 11
19.2832
 21
-0.801758
  0
LINE
  8
0
 10
19.2832
 20
-0.801758
 11
19.2793
 21
-0.801758
  0
LINE
  8
0
 10
19.2793
 20
-0.801758
 11
19.2832
 21
-0.713867
  0
LINE
  8
0
 10
19.2832
 20
-0.713867
 11
19.2871
 21
-0.713867
  0
LINE
  8
0
 10
19.2871
 20
-0.713867
 11
19.5078
 21
-0.62207
  0
LINE
  8
0
 10
19.5078
 20
-0.62207
 11
19.7402
 21
-0.517578
  0
LINE
  8
0
 10
19.7402
 20
-0.517578
 11
19.9834
 21
-0.399414
  0
LINE
  8
0
 10
19.9834
 20
-0.399414
 11
20.2363
 21
-0.266602
  0
LINE
  8
0
 10
20.2363
 20
-0.266602
 11
20.5
 21
-0.118164
  0
LINE
  8
0
 10
20.5
 20
-0.118164
 11
20.5
 21
0.118164
  0
LINE
  8
0
 10
20.5
 20
0.118164
 11
20.2363
 21
0.266602
  0
LINE
  8
0
 10
20.2363
 20
0.266602
 11
19.9834
 21
0.399414
  0
LINE
  8
0
 10
19.9834
 20
0.399414
 11
19.7402
 21
0.517578
  0
LINE
  8
0
 10
19.7402
 20
0.517578
 11
19.5078
 21
0.62207
  0
LINE
  8
0
 10
19.5078
 20
0.62207
 11
19.2871
 21
0.713867
  0
LINE
  8
0
 10
19.2871
 20
0.713867
 11
19.2832
 21
0.713867
  0
LINE
  8
0
 10
19.2832
 20
0.713867
 11
19.2793
 21
0.801758
  0
LINE
  8
0
 10
19.2793
 20
0.801758
 11
19.2832
 21
0.801758
  0
LINE
  8
0
 10
19.2832
 20
0.801758
 11
19.4961
 21
0.910156
  0
LINE
  8
0
 10
19.4961
 20
0.910156
 11
19.7197
 21
1.0332
  0
LINE
  8
0
 10
19.7197
 20
1.0332
 11
19.9531
 21
1.16992
  0
LINE
  8
0
 10
19.9531
 20
1.16992
 11
20.1953
 21
1.32227
  0
LINE
  8
0
 10
20.1953
 20
1.32227
 11
20.4453
 21
1.49023
  0
LINE
  8
0
 10
20.4453
 20
1.49023
 11
20.4268
 21
1.72656
  0
LINE
  8
0
 10
20.4268
 20
1.72656
 11
20.1533
 21
1.85352
  0
LINE
  8
0
 10
20.1533
 20
1.85352
 11
19.8906
 21
1.96582
  0
LINE
  8
0
 10
19.8906
 20
1.96582
 11
19.6387
 21
2.06445
  0
LINE
  8
0
 10
19.6387
 20
2.06445
 11
19.3984
 21
2.15039
  0
LINE
  8
0
 10
19.3984
 20
2.15039
 11
19.168
 21
2.22461
  0
LINE
  8
0
 10
19.168
 20
2.22461
 11
19.1572
 21
2.31152
  0
LINE
  8
0
 10
19.1572
 20
2.31152
 11
19.1611
 21
2.3125
  0
LINE
  8
0
 10
19.1611
 20
2.3125
 11
19.3652
 21
2.4375
  0
LINE
  8
0
 10
19.3652
 20
2.4375
 11
19.5781
 21
2.57715
  0
LINE
  8
0
 10
19.5781
 20
2.57715
 11
19.7998
 21
2.73145
  0
LINE
  8
0
 10
19.7998
 20
2.73145
 11
20.0293
 21
2.90234
  0
LINE
  8
0
 10
20.0293
 20
2.90234
 11
20.2656
 21
3.08984
  0
LINE
  8
0
 10
20.2656
 20
3.08984
 11
20.2285
 21
3.32422
  0
LINE
  8
0
 10
20.2285
 20
3.32422
 11
19.9463
 21
3.42871
  0
LINE
  8
0
 10
19.9463
 20
3.42871
 11
19.6748
 21
3.52051
  0
LINE
  8
0
 10
19.6748
 20
3.52051
 11
19.416
 21
3.59863
  0
LINE
  8
0
 10
19.416
 20
3.59863
 11
19.1699
 21
3.66602
  0
LINE
  8
0
 10
19.1699
 20
3.66602
 11
18.9346
 21
3.72168
  0
LINE
  8
0
 10
18.9346
 20
3.72168
 11
18.917
 21
3.80762
  0
LINE
  8
0
 10
18.917
 20
3.80762
 11
18.9209
 21
3.80859
  0
LINE
  8
0
 10
18.9209
 20
3.80859
 11
19.1143
 21
3.94922
  0
LINE
  8
0
 10
19.1143
 20
3.94922
 11
19.3154
 21
4.10547
  0
LINE
  8
0
 10
19.3154
 20
4.10547
 11
19.5244
 21
4.27734
  0
LINE
  8
0
 10
19.5244
 20
4.27734
 11
19.7402
 21
4.46484
  0
LINE
  8
0
 10
19.7402
 20
4.46484
 11
19.9609
 21
4.66992
  0
LINE
  8
0
 10
19.9609
 20
4.66992
 11
19.9053
 21
4.90039
  0
LINE
  8
0
 10
19.9053
 20
4.90039
 11
19.6152
 21
4.9834
  0
LINE
  8
0
 10
19.6152
 20
4.9834
 11
19.3379
 21
5.05273
  0
LINE
  8
0
 10
19.3379
 20
5.05273
 11
19.0742
 21
5.11133
  0
LINE
  8
0
 10
19.0742
 20
5.11133
 11
18.8232
 21
5.15918
  0
LINE
  8
0
 10
18.8232
 20
5.15918
 11
18.5869
 21
5.19629
  0
LINE
  8
0
 10
18.5869
 20
5.19629
 11
18.584
 21
5.19531
  0
LINE
  8
0
 10
18.584
 20
5.19531
 11
18.5596
 21
5.28027
  0
LINE
  8
0
 10
18.5596
 20
5.28027
 11
18.5635
 21
5.28125
  0
LINE
  8
0
 10
18.5635
 20
5.28125
 11
18.7451
 21
5.43652
  0
LINE
  8
0
 10
18.7451
 20
5.43652
 11
18.9336
 21
5.60742
  0
LINE
  8
0
 10
18.9336
 20
5.60742
 11
19.1289
 21
5.7959
  0
LINE
  8
0
 10
19.1289
 20
5.7959
 11
19.3281
 21
6
  0
LINE
  8
0
 10
19.3281
 20
6
 11
19.5332
 21
6.22168
  0
LINE
  8
0
 10
19.5332
 20
6.22168
 11
19.46
 21
6.44727
  0
LINE
  8
0
 10
19.46
 20
6.44727
 11
19.1641
 21
6.50684
  0
LINE
  8
0
 10
19.1641
 20
6.50684
 11
18.8818
 21
6.55469
  0
LINE
  8
0
 10
18.8818
 20
6.55469
 11
18.6143
 21
6.5918
  0
LINE
  8
0
 10
18.6143
 20
6.5918
 11
18.3604
 21
6.62012
  0
LINE
  8
0
 10
18.3604
 20
6.62012
 11
18.1221
 21
6.63867
  0
LINE
  8
0
 10
18.1221
 20
6.63867
 11
18.1191
 21
6.6377
  0
LINE
  8
0
 10
18.1191
 20
6.6377
 11
18.0889
 21
6.71973
  0
LINE
  8
0
 10
18.0889
 20
6.71973
 11
18.2607
 21
6.89062
  0
LINE
  8
0
 10
18.2607
 20
6.89062
 11
18.4355
 21
7.07617
  0
LINE
  8
0
 10
18.4355
 20
7.07617
 11
18.6152
 21
7.27832
  0
LINE
  8
0
 10
18.6152
 20
7.27832
 11
18.7979
 21
7.49805
  0
LINE
  8
0
 10
18.7979
 20
7.49805
 11
18.9844
 21
7.73535
  0
LINE
  8
0
 10
18.9844
 20
7.73535
 11
18.8936
 21
7.9541
  0
LINE
  8
0
 10
18.8936
 20
7.9541
 11
18.5947
 21
7.99023
  0
LINE
  8
0
 10
18.5947
 20
7.99023
 11
18.3096
 21
8.01562
  0
LINE
  8
0
 10
18.3096
 20
8.01562
 11
18.0391
 21
8.03223
  0
LINE
  8
0
 10
18.0391
 20
8.03223
 11
17.7852
 21
8.04004
  0
LINE
  8
0
 10
17.7852
 20
8.04004
 11
17.542
 21
8.03906
  0
LINE
  8
0
 10
17.542
 20
8.03906
 11
17.5059
 21
8.11816
  0
LINE
  8
0
 10
17.5059
 20
8.11816
 11
17.6641
 21
8.30176
  0
LINE
  8
0
 10
17.6641
 20
8.30176
 11
17.8232
 21
8.50098
  0
LINE
  8
0
 10
17.8232
 20
8.50098
 11
17.9863
 21
8.7168
  0
LINE
  8
0
 10
17.9863
 20
8.7168
 11
18.1523
 21
8.9502
  0
LINE
  8
0
 10
18.1523
 20
8.9502
 11
18.3193
 21
9.20117
  0
LINE
  8
0
 10
18.3193
 20
9.20117
 11
18.2119
 21
9.41211
  0
LINE
  8
0
 10
18.2119
 20
9.41211
 11
17.9102
 21
9.4248
  0
LINE
  8
0
 10
17.9102
 20
9.4248
 11
17.624
 21
9.42773
  0
LINE
  8
0
 10
17.624
 20
9.42773
 11
17.3535
 21
9.42285
  0
LINE
  8
0
 10
17.3535
 20
9.42285
 11
17.0986
 21
9.41016
  0
LINE
  8
0
 10
17.0986
 20
9.41016
 11
16.8574
 21
9.39062
  0
LINE
  8
0
 10
16.8574
 20
9.39062
 11
16.8145
 21
9.4668
  0
LINE
  8
0
 10
16.8145
 20
9.4668
 11
16.8174
 21
9.46875
  0
LINE
  8
0
 10
16.8174
 20
9.46875
 11
16.958
 21
9.66211
  0
LINE
  8
0
 10
16.958
 20
9.66211
 11
17.1016
 21
9.87305
  0
LINE
  8
0
 10
17.1016
 20
9.87305
 11
17.2471
 21
10.1006
  0
LINE
  8
0
 10
17.2471
 20
10.1006
 11
17.3936
 21
10.3467
  0
LINE
  8
0
 10
17.3936
 20
10.3467
 11
17.541
 21
10.6104
  0
LINE
  8
0
 10
17.541
 20
10.6104
 11
17.417
 21
10.8125
  0
LINE
  8
0
 10
17.417
 20
10.8125
 11
17.1152
 21
10.8008
  0
LINE
  8
0
 10
17.1152
 20
10.8008
 11
16.8301
 21
10.7812
  0
LINE
  8
0
 10
16.8301
 20
10.7812
 11
16.5605
 21
10.7559
  0
LINE
  8
0
 10
16.5605
 20
10.7559
 11
16.3076
 21
10.7236
  0
LINE
  8
0
 10
16.3076
 20
10.7236
 11
16.0713
 21
10.6855
  0
LINE
  8
0
 10
16.0713
 20
10.6855
 11
16.0684
 21
10.6836
  0
LINE
  8
0
 10
16.0684
 20
10.6836
 11
16.0195
 21
10.7568
  0
LINE
  8
0
 10
16.0195
 20
10.7568
 11
16.0225
 21
10.7588
  0
LINE
  8
0
 10
16.0225
 20
10.7588
 11
16.1475
 21
10.9629
  0
LINE
  8
0
 10
16.1475
 20
10.9629
 11
16.2744
 21
11.1846
  0
LINE
  8
0
 10
16.2744
 20
11.1846
 11
16.4014
 21
11.4229
  0
LINE
  8
0
 10
16.4014
 20
11.4229
 11
16.5283
 21
11.6797
  0
LINE
  8
0
 10
16.5283
 20
11.6797
 11
16.6543
 21
11.9531
  0
LINE
  8
0
 10
16.6543
 20
11.9531
 11
16.5146
 21
12.1455
  0
LINE
  8
0
 10
16.5146
 20
12.1455
 11
16.2148
 21
12.1104
  0
LINE
  8
0
 10
16.2148
 20
12.1104
 11
15.9326
 21
12.0684
  0
LINE
  8
0
 10
15.9326
 20
12.0684
 11
15.666
 21
12.0215
  0
LINE
  8
0
 10
15.666
 20
12.0215
 11
15.416
 21
11.9697
  0
LINE
  8
0
 10
15.416
 20
11.9697
 11
15.1836
 21
11.9141
  0
LINE
  8
0
 10
15.1836
 20
11.9141
 11
15.1807
 21
11.9121
  0
LINE
  8
0
 10
15.1807
 20
11.9121
 11
15.127
 21
11.9805
  0
LINE
  8
0
 10
15.127
 20
11.9805
 11
15.1299
 21
11.9834
  0
LINE
  8
0
 10
15.1299
 20
11.9834
 11
15.2383
 21
12.1963
  0
LINE
  8
0
 10
15.2383
 20
12.1963
 11
15.3467
 21
12.4268
  0
LINE
  8
0
 10
15.3467
 20
12.4268
 11
15.4551
 21
12.6748
  0
LINE
  8
0
 10
15.4551
 20
12.6748
 11
15.5615
 21
12.9404
  0
LINE
  8
0
 10
15.5615
 20
12.9404
 11
15.665
 21
13.2236
  0
LINE
  8
0
 10
15.665
 20
13.2236
 11
15.5107
 21
13.4033
  0
LINE
  8
0
 10
15.5107
 20
13.4033
 11
15.2148
 21
13.3457
  0
LINE
  8
0
 10
15.2148
 20
13.3457
 11
14.9365
 21
13.2812
  0
LINE
  8
0
 10
14.9365
 20
13.2812
 11
14.6748
 21
13.2139
  0
LINE
  8
0
 10
14.6748
 20
13.2139
 11
14.4297
 21
13.1426
  0
LINE
  8
0
 10
14.4297
 20
13.1426
 11
14.1992
 21
13.0664
  0
LINE
  8
0
 10
14.1992
 20
13.0664
 11
14.1396
 21
13.1309
  0
LINE
  8
0
 10
14.1396
 20
13.1309
 11
14.1426
 21
13.1328
  0
LINE
  8
0
 10
14.1426
 20
13.1328
 11
14.2344
 21
13.3545
  0
LINE
  8
0
 10
14.2344
 20
13.3545
 11
14.3242
 21
13.5928
  0
LINE
  8
0
 10
14.3242
 20
13.5928
 11
14.4131
 21
13.8477
  0
LINE
  8
0
 10
14.4131
 20
13.8477
 11
14.498
 21
14.1211
  0
LINE
  8
0
 10
14.498
 20
14.1211
 11
14.5791
 21
14.4111
  0
LINE
  8
0
 10
14.5791
 20
14.4111
 11
14.4111
 21
14.5791
  0
LINE
  8
0
 10
14.4111
 20
14.5791
 11
14.1211
 21
14.498
  0
LINE
  8
0
 10
14.1211
 20
14.498
 11
13.8477
 21
14.4131
  0
LINE
  8
0
 10
13.8477
 20
14.4131
 11
13.5928
 21
14.3242
  0
LINE
  8
0
 10
13.5928
 20
14.3242
 11
13.3545
 21
14.2344
  0
LINE
  8
0
 10
13.3545
 20
14.2344
 11
13.1328
 21
14.1426
  0
LINE
  8
0
 10
13.1328
 20
14.1426
 11
13.1309
 21
14.1396
  0
LINE
  8
0
 10
13.1309
 20
14.1396
 11
13.0664
 21
14.1992
  0
LINE
  8
0
 10
13.0664
 20
14.1992
 11
13.1426
 21
14.4297
  0
LINE
  8
0
 10
13.1426
 20
14.4297
 11
13.2139
 21
14.6748
  0
LINE
  8
0
 10
13.2139
 20
14.6748
 11
13.2812
 21
14.9365
  0
LINE
  8
0
 10
13.2812
 20
14.9365
 11
13.3457
 21
15.2148
  0
LINE
  8
0
 10
13.3457
 20
15.2148
 11
13.4033
 21
15.5107
  0
LINE
  8
0
 10
13.4033
 20
15.5107
 11
13.2236
 21
15.665
  0
LINE
  8
0
 10
13.2236
 20
15.665
 11
12.9404
 21
15.5615
  0
LINE
  8
0
 10
12.9404
 20
15.5615
 11
12.6748
 21
15.4551
  0
LINE
  8
0
 10
12.6748
 20
15.4551
 11
12.4268
 21
15.3467
  0
LINE
  8
0
 10
12.4268
 20
15.3467
 11
12.1963
 21
15.2383
  0
LINE
  8
0
 10
12.1963
 20
15.2383
 11
11.9834
 21
15.1299
  0
LINE
  8
0
 10
11.9834
 20
15.1299
 11
11.9805
 21
15.127
  0
LINE
  8
0
 10
11.9805
 20
15.127
 11
11.9121
 21
15.1807
  0
LINE
  8
0
 10
11.9121
 20
15.1807
 11
11.9141
 21
15.1836
  0
LINE
  8
0
 10
11.9141
 20
15.1836
 11
11.9697
 21
15.416
  0
LINE
  8
0
 10
11.9697
 20
15.416
 11
12.0215
 21
15.666
  0
LINE
  8
0
 10
12.0215
 20
15.666
 11
12.0684
 21
15.9326
  0
LINE
  8
0
 10
12.0684
 20
15.9326
 11
12.1104
 21
16.2148
  0
LINE
  8
0
 10
12.1104
 20
16.2148
 11
12.1455
 21
16.5146
  0
LINE
  8
0
 10
12.1455
 20
16.5146
 11
11.9531
 21
16.6543
  0
LINE
  8
0
 10
11.9531
 20
16.6543
 11
11.6797
 21
16.5283
  0
LINE
  8
0
 10
11.6797
 20
16.5283
 11
11.4229
 21
16.4014
  0
LINE
  8
0
 10
11.4229
 20
16.4014
 11
11.1846
 21
16.2744
  0
LINE
  8
0
 10
11.1846
 20
16.2744
 11
11.125
 21
16.2403
  0
LINE
  8
0
 10
11.125
 20
16.2403
 11
11.125
 21
-7.29999
  0
LINE
  8
0
 10
11.125
 20
-7.29999
 11
11.0485
 21
-8.02768
  0
LINE
  8
0
 10
11.0485
 20
-8.02768
 11
10.8224
 21
-8.72357
  0
LINE
  8
0
 10
10.8224
 20
-8.72357
 11
10.4566
 21
-9.35724
  0
LINE
  8
0
 10
10.4566
 20
-9.35724
 11
9.96695
 21
-9.901
  0
LINE
  8
0
 10
9.96695
 20
-9.901
 11
9.375
 21
-10.3311
  0
LINE
  8
0
 10
9.375
 20
-10.3311
 11
8.70656
 21
-10.6287
  0
LINE
  8
0
 10
8.70656
 20
-10.6287
 11
7.99084
 21
-10.7808
  0
LINE
  8
0
 10
7.99084
 20
-10.7808
 11
-7.99084
 21
-10.7808
  0
LINE
  8
0
 10
-7.99084
 20
-10.7808
 11
-8.70656
 21
-10.6287
  0
LINE
  8
0
 10
-8.70656
 20
-10.6287
 11
-9.375
 21
-10.3311
  0
LINE
  8
0
 10
-9.375
 20
-10.3311
 11
-9.96695
 21
-9.901
  0
LINE
  8
0
 10
-9.96695
 20
-9.901
 11
-10.4566
 21
-9.35724
  0
LINE
  8
0
 10
-10.4566
 20
-9.35724
 11
-10.8224
 21
-8.72357
  0
LINE
  8
0
 10
-10.8224
 20
-8.72357
 11
-11.0485
 21
-8.02768
  0
LINE
  8
0
 10
-11.0485
 20
-8.02768
 11
-11.125
 21
-7.29999
  0
LINE
  8
0
 10
-11.125
 20
-7.29999
 11
-11.125
 21
16.2403
  0
LINE
  8
0
 10
-11.125
 20
16.2403
 11
-11.1846
 21
16.2744
  0
LINE
  8
0
 10
-11.1846
 20
16.2744
 11
-11.4229
 21
16.4014
  0
LINE
  8
0
 10
-11.4229
 20
16.4014
 11
-11.6797
 21
16.5283
  0
LINE
  8
0
 10
-11.6797
 20
16.5283
 11
-11.9531
 21
16.6543
  0
LINE
  8
0
 10
-11.9531
 20
16.6543
 11
-12.1455
 21
16.5146
  0
LINE
  8
0
 10
-12.1455
 20
16.5146
 11
-12.1104
 21
16.2148
  0
LINE
  8
0
 10
-12.1104
 20
16.2148
 11
-12.0684
 21
15.9326
  0
LINE
  8
0
 10
-12.0684
 20
15.9326
 11
-12.0215
 21
15.666
  0
LINE
  8
0
 10
-12.0215
 20
15.666
 11
-11.9697
 21
15.416
  0
LINE
  8
0
 10
-11.9697
 20
15.416
 11
-11.9141
 21
15.1836
  0
LINE
  8
0
 10
-11.9141
 20
15.1836
 11
-11.9121
 21
15.1807
  0
LINE
  8
0
 10
-11.9121
 20
15.1807
 11
-11.9805
 21
15.127
  0
LINE
  8
0
 10
-11.9805
 20
15.127
 11
-11.9834
 21
15.1299
  0
LINE
  8
0
 10
-11.9834
 20
15.1299
 11
-12.1963
 21
15.2383
  0
LINE
  8
0
 10
-12.1963
 20
15.2383
 11
-12.4268
 21
15.3467
  0
LINE
  8
0
 10
-12.4268
 20
15.3467
 11
-12.6748
 21
15.4551
  0
LINE
  8
0
 10
-12.6748
 20
15.4551
 11
-12.9404
 21
15.5615
  0
LINE
  8
0
 10
-12.9404
 20
15.5615
 11
-13.2236
 21
15.665
  0
LINE
  8
0
 10
-13.2236
 20
15.665
 11
-13.4033
 21
15.5107
  0
LINE
  8
0
 10
-13.4033
 20
15.5107
 11
-13.3457
 21
15.2148
  0
LINE
  8
0
 10
-13.3457
 20
15.2148
 11
-13.2812
 21
14.9365
  0
LINE
  8
0
 10
-13.2812
 20
14.9365
 11
-13.2139
 21
14.6748
  0
LINE
  8
0
 10
-13.2139
 20
14.6748
 11
-13.1426
 21
14.4297
  0
LINE
  8
0
 10
-13.1426
 20
14.4297
 11
-13.0664
 21
14.1992
  0
LINE
  8
0
 10
-13.0664
 20
14.1992
 11
-13.1309
 21
14.1396
  0
LINE
  8
0
 10
-13.1309
 20
14.1396
 11
-13.1328
 21
14.1426
  0
LINE
  8
0
 10
-13.1328
 20
14.1426
 11
-13.3545
 21
14.2344
  0
LINE
  8
0
 10
-13.3545
 20
14.2344
 11
-13.5928
 21
14.3242
  0
LINE
  8
0
 10
-13.5928
 20
14.3242
 11
-13.8477
 21
14.4131
  0
LINE
  8
0
 10
-13.8477
 20
14.4131
 11
-14.1211
 21
14.498
  0
LINE
  8
0
 10
-14.1211
 20
14.498
 11
-14.4111
 21
14.5791
  0
LINE
  8
0
 10
-14.4111
 20
14.5791
 11
-14.5791
 21
14.4111
  0
LINE
  8
0
 10
-14.5791
 20
14.4111
 11
-14.498
 21
14.1211
  0
LINE
  8
0
 10
-14.498
 20
14.1211
 11
-14.4131
 21
13.8477
  0
LINE
  8
0
 10
-14.4131
 20
13.8477
 11
-14.3242
 21
13.5928
  0
LINE
  8
0
 10
-14.3242
 20
13.5928
 11
-14.2344
 21
13.3545
  0
LINE
  8
0
 10
-14.2344
 20
13.3545
 11
-14.1426
 21
13.1328
  0
LINE
  8
0
 10
-14.1426
 20
13.1328
 11
-14.1396
 21
13.1309
  0
LINE
  8
0
 10
-14.1396
 20
13.1309
 11
-14.1992
 21
13.0664
  0
LINE
  8
0
 10
-14.1992
 20
13.0664
 11
-14.4297
 21
13.1426
  0
LINE
  8
0
 10
-14.4297
 20
13.1426
 11
-14.6748
 21
13.2139
  0
LINE
  8
0
 10
-14.6748
 20
13.2139
 11
-14.9365
 21
13.2812
  0
LINE
  8
0
 10
-14.9365
 20
13.2812
 11
-15.2148
 21
13.3457
  0
LINE
  8
0
 10
-15.2148
 20
13.3457
 11
-15.5107
 21
13.4033
  0
LINE
  8
0
 10
-15.5107
 20
13.4033
 11
-15.665
 21
13.2236
  0
LINE
  8
0
 10
-15.665
 20
13.2236
 11
-15.5615
 21
12.9404
  0
LINE
  8
0
 10
-15.5615
 20
12.9404
 11
-15.4551
 21
12.6748
  0
LINE
  8
0
 10
-15.4551
 20
12.6748
 11
-15.3467
 21
12.4268
  0
LINE
  8
0
 10
-15.3467
 20
12.4268
 11
-15.2383
 21
12.1963
  0
LINE
  8
0
 10
-15.2383
 20
12.1963
 11
-15.1299
 21
11.9834
  0
LINE
  8
0
 10
-15.1299
 20
11.9834
 11
-15.127
 21
11.9805
  0
LINE
  8
0
 10
-15.127
 20
11.9805
 11
-15.1807
 21
11.9121
  0
LINE
  8
0
 10
-15.1807
 20
11.9121
 11
-15.1836
 21
11.9141
  0
LINE
  8
0
 10
-15.1836
 20
11.9141
 11
-15.416
 21
11.9697
  0
LINE
  8
0
 10
-15.416
 20
11.9697
 11
-15.666
 21
12.0215
  0
LINE
  8
0
 10
-15.666
 20
12.0215
 11
-15.9326
 21
12.0684
  0
LINE
  8
0
 10
-15.9326
 20
12.0684
 11
-16.2148
 21
12.1104
  0
LINE
  8
0
 10
-16.2148
 20
12.1104
 11
-16.5146
 21
12.1455
  0
LINE
  8
0
 10
-16.5146
 20
12.1455
 11
-16.6543
 21
11.9531
  0
LINE
  8
0
 10
-16.6543
 20
11.9531
 11
-16.5283
 21
11.6797
  0
LINE
  8
0
 10
-16.5283
 20
11.6797
 11
-16.4014
 21
11.4229
  0
LINE
  8
0
 10
-16.4014
 20
11.4229
 11
-16.2744
 21
11.1846
  0
LINE
  8
0
 10
-16.2744
 20
11.1846
 11
-16.1475
 21
10.9629
  0
LINE
  8
0
 10
-16.1475
 20
10.9629
 11
-16.0225
 21
10.7588
  0
LINE
  8
0
 10
-16.0225
 20
10.7588
 11
-16.0195
 21
10.7568
  0
LINE
  8
0
 10
-16.0195
 20
10.7568
 11
-16.0684
 21
10.6836
  0
LINE
  8
0
 10
-16.0684
 20
10.6836
 11
-16.0713
 21
10.6855
  0
LINE
  8
0
 10
-16.0713
 20
10.6855
 11
-16.3076
 21
10.7236
  0
LINE
  8
0
 10
-16.3076
 20
10.7236
 11
-16.5605
 21
10.7559
  0
LINE
  8
0
 10
-16.5605
 20
10.7559
 11
-16.8301
 21
10.7812
  0
LINE
  8
0
 10
-16.8301
 20
10.7812
 11
-17.1152
 21
10.8008
  0
LINE
  8
0
 10
-17.1152
 20
10.8008
 11
-17.417
 21
10.8125
  0
LINE
  8
0
 10
-17.417
 20
10.8125
 11
-17.541
 21
10.6104
  0
LINE
  8
0
 10
-17.541
 20
10.6104
 11
-17.3936
 21
10.3467
  0
LINE
  8
0
 10
-17.3936
 20
10.3467
 11
-17.2471
 21
10.1006
  0
LINE
  8
0
 10
-17.2471
 20
10.1006
 11
-17.1016
 21
9.87305
  0
LINE
  8
0
 10
-17.1016
 20
9.87305
 11
-16.958
 21
9.66211
  0
LINE
  8
0
 10
-16.958
 20
9.66211
 11
-16.8174
 21
9.46875
  0
LINE
  8
0
 10
-16.8174
 20
9.46875
 11
-16.8145
 21
9.4668
  0
LINE
  8
0
 10
-16.8145
 20
9.4668
 11
-16.8574
 21
9.39062
  0
LINE
  8
0
 10
-16.8574
 20
9.39062
 11
-17.0986
 21
9.41016
  0
LINE
  8
0
 10
-17.0986
 20
9.41016
 11
-17.3535
 21
9.42285
  0
LINE
  8
0
 10
-17.3535
 20
9.42285
 11
-17.624
 21
9.42773
  0
LINE
  8
0
 10
-17.624
 20
9.42773
 11
-17.9102
 21
9.4248
  0
LINE
  8
0
 10
-17.9102
 20
9.4248
 11
-18.2119
 21
9.41211
  0
LINE
  8
0
 10
-18.2119
 20
9.41211
 11
-18.3193
 21
9.20117
  0
LINE
  8
0
 10
-18.3193
 20
9.20117
 11
-18.1523
 21
8.9502
  0
LINE
  8
0
 10
-18.1523
 20
8.9502
 11
-17.9863
 21
8.7168
  0
LINE
  8
0
 10
-17.9863
 20
8.7168
 11
-17.8232
 21
8.50098
  0
LINE
  8
0
 10
-17.8232
 20
8.50098
 11
-17.6641
 21
8.30176
  0
LINE
  8
0
 10
-17.6641
 20
8.30176
 11
-17.5059
 21
8.11816
  0
LINE
  8
0
 10
-17.5059
 20
8.11816
 11
-17.542
 21
8.03906
  0
LINE
  8
0
 10
-17.542
 20
8.03906
 11
-17.7852
 21
8.04004
  0
LINE
  8
0
 10
-17.7852
 20
8.04004
 11
-18.0391
 21
8.03223
  0
LINE
  8
0
 10
-18.0391
 20
8.03223
 11
-18.3096
 21
8.01562
  0
LINE
  8
0
 10
-18.3096
 20
8.01562
 11
-18.5947
 21
7.99023
  0
LINE
  8
0
 10
-18.5947
 20
7.99023
 11
-18.8936
 21
7.9541
  0
LINE
  8
0
 10
-18.8936
 20
7.9541
 11
-18.9844
 21
7.73535
  0
LINE
  8
0
 10
-18.9844
 20
7.73535
 11
-18.7979
 21
7.49805
  0
LINE
  8
0
 10
-18.7979
 20
7.49805
 11
-18.6152
 21
7.27832
  0
LINE
  8
0
 10
-18.6152
 20
7.27832
 11
-18.4355
 21
7.07617
  0
LINE
  8
0
 10
-18.4355
 20
7.07617
 11
-18.2607
 21
6.89062
  0
LINE
  8
0
 10
-18.2607
 20
6.89062
 11
-18.0889
 21
6.71973
  0
LINE
  8
0
 10
-18.0889
 20
6.71973
 11
-18.1191
 21
6.6377
  0
LINE
  8
0
 10
-18.1191
 20
6.6377
 11
-18.1221
 21
6.63867
  0
LINE
  8
0
 10
-18.1221
 20
6.63867
 11
-18.3604
 21
6.62012
  0
LINE
  8
0
 10
-18.3604
 20
6.62012
 11
-18.6143
 21
6.5918
  0
LINE
  8
0
 10
-18.6143
 20
6.5918
 11
-18.8818
 21
6.55469
  0
LINE
  8
0
 10
-18.8818
 20
6.55469
 11
-19.1641
 21
6.50684
  0
LINE
  8
0
 10
-19.1641
 20
6.50684
 11
-19.46
 21
6.44727
  0
LINE
  8
0
 10
-19.46
 20
6.44727
 11
-19.5332
 21
6.22168
  0
LINE
  8
0
 10
-19.5332
 20
6.22168
 11
-19.3281
 21
6
  0
LINE
  8
0
 10
-19.3281
 20
6
 11
-19.1289
 21
5.7959
  0
LINE
  8
0
 10
-19.1289
 20
5.7959
 11
-18.9336
 21
5.60742
  0
LINE
  8
0
 10
-18.9336
 20
5.60742
 11
-18.7451
 21
5.43652
  0
LINE
  8
0
 10
-18.7451
 20
5.43652
 11
-18.5635
 21
5.28125
  0
LINE
  8
0
 10
-18.5635
 20
5.28125
 11
-18.5596
 21
5.28027
  0
LINE
  8
0
 10
-18.5596
 20
5.28027
 11
-18.584
 21
5.19531
  0
LINE
  8
0
 10
-18.584
 20
5.19531
 11
-18.5869
 21
5.19629
  0
LINE
  8
0
 10
-18.5869
 20
5.19629
 11
-18.8232
 21
5.15918
  0
LINE
  8
0
 10
-18.8232
 20
5.15918
 11
-19.0742
 21
5.11133
  0
LINE
  8
0
 10
-19.0742
 20
5.11133
 11
-19.3379
 21
5.05273
  0
LINE
  8
0
 10
-19.3379
 20
5.05273
 11
-19.6152
 21
4.9834
  0
LINE
  8
0
 10
-19.6152
 20
4.9834
 11
-19.9053
 21
4.90039
  0
LINE
  8
0
 10
-19.9053
 20
4.90039
 11
-19.9609
 21
4.66992
  0
LINE
  8
0
 10
-19.9609
 20
4.66992
 11
-19.7402
 21
4.46484
  0
LINE
  8
0
 10
-19.7402
 20
4.46484
 11
-19.5244
 21
4.27734
  0
LINE
  8
0
 10
-19.5244
 20
4.27734
 11
-19.3154
 21
4.10547
  0
LINE
  8
0
 10
-19.3154
 20
4.10547
 11
-19.1143
 21
3.94922
  0
LINE
  8
0
 10
-19.1143
 20
3.94922
 11
-18.9209
 21
3.80859
  0
LINE
  8
0
 10
-18.9209
 20
3.80859
 11
-18.917
 21
3.80762
  0
LINE
  8
0
 10
-18.917
 20
3.80762
 11
-18.9346
 21
3.72168
  0
LINE
  8
0
 10
-18.9346
 20
3.72168
 11
-19.1699
 21
3.66602
  0
LINE
  8
0
 10
-19.1699
 20
3.66602
 11
-19.416
 21
3.59863
  0
LINE
  8
0
 10
-19.416
 20
3.59863
 11
-19.6748
 21
3.52051
  0
LINE
  8
0
 10
-19.6748
 20
3.52051
 11
-19.9463
 21
3.42871
  0
LINE
  8
0
 10
-19.9463
 20
3.42871
 11
-20.2285
 21
3.32422
  0
LINE
  8
0
 10
-20.2285
 20
3.32422
 11
-20.2656
 21
3.08984
  0
LINE
  8
0
 10
-20.2656
 20
3.08984
 11
-20.0293
 21
2.90234
  0
LINE
  8
0
 10
-20.0293
 20
2.90234
 11
-19.7998
 21
2.73145
  0
LINE
  8
0
 10
-19.7998
 20
2.73145
 11
-19.5781
 21
2.57715
  0
LINE
  8
0
 10
-19.5781
 20
2.57715
 11
-19.3652
 21
2.4375
  0
LINE
  8
0
 10
-19.3652
 20
2.4375
 11
-19.1611
 21
2.3125
  0
LINE
  8
0
 10
-19.1611
 20
2.3125
 11
-19.1572
 21
2.31152
  0
LINE
  8
0
 10
-19.1572
 20
2.31152
 11
-19.168
 21
2.22461
  0
LINE
  8
0
 10
-19.168
 20
2.22461
 11
-19.3984
 21
2.15039
  0
LINE
  8
0
 10
-19.3984
 20
2.15039
 11
-19.6387
 21
2.06445
  0
LINE
  8
0
 10
-19.6387
 20
2.06445
 11
-19.8906
 21
1.96582
  0
LINE
  8
0
 10
-19.8906
 20
1.96582
 11
-20.1533
 21
1.85352
  0
LINE
  8
0
 10
-20.1533
 20
1.85352
 11
-20.4268
 21
1.72656
  0
LINE
  8
0
 10
-20.4268
 20
1.72656
 11
-20.4453
 21
1.49023
  0
LINE
  8
0
 10
-20.4453
 20
1.49023
 11
-20.1953
 21
1.32227
  0
LINE
  8
0
 10
-20.1953
 20
1.32227
 11
-19.9531
 21
1.16992
  0
LINE
  8
0
 10
-19.9531
 20
1.16992
 11
-19.7197
 21
1.0332
  0
LINE
  8
0
 10
-19.7197
 20
1.0332
 11
-19.4961
 21
0.910156
  0
LINE
  8
0
 10
-19.4961
 20
0.910156
 11
-19.2832
 21
0.801758
  0
LINE
  8
0
 10
-19.2832
 20
0.801758
 11
-19.2793
 21
0.801758
  0
LINE
  8
0
 10
-19.2793
 20
0.801758
 11
-19.2832
 21
0.713867
  0
LINE
  8
0
 10
-19.2832
 20
0.713867
 11
-19.2871
 21
0.713867
  0
LINE
  8
0
 10
-19.2871
 20
0.713867
 11
-19.5078
 21
0.62207
  0
LINE
  8
0
 10
-19.5078
 20
0.62207
 11
-19.7402
 21
0.517578
  0
LINE
  8
0
 10
-19.7402
 20
0.517578
 11
-19.9834
 21
0.399414
  0
LINE
  8
0
 10
-19.9834
 20
0.399414
 11
-20.2363
 21
0.266602
  0
LINE
  8
0
 10
-20.2363
 20
0.266602
 11
-20.5
 21
0.118164
  0
LINE
  8
0
 10
-20.5
 20
0.118164
 11
-20.5
 21
-0.118164
  0
LINE
  8
0
 10
-20.5
 20
-0.118164
 11
-20.2363
 21
-0.266602
  0
LINE
  8
0
 10
-20.2363
 20
-0.266602
 11
-19.9834
 21
-0.399414
  0
LINE
  8
0
 10
-19.9834
 20
-0.399414
 11
-19.7402
 21
-0.517578
  0
LINE
  8
0
 10
-19.7402
 20
-0.517578
 11
-19.5078
 21
-0.62207
  0
LINE
  8
0
 10
-19.5078
 20
-0.62207
 11
-19.2871
 21
-0.713867
  0
LINE
  8
0
 10
-19.2871
 20
-0.713867
 11
-19.2832
 21
-0.713867
  0
LINE
  8
0
 10
-19.2832
 20
-0.713867
 11
-19.2793
 21
-0.801758
  0
LINE
  8
0
 10
-19.2793
 20
-0.801758
 11
-19.2832
 21
-0.801758
  0
LINE
  8
0
 10
-19.2832
 20
-0.801758
 11
-19.4961
 21
-0.910156
  0
LINE
  8
0
 10
-19.4961
 20
-0.910156
 11
-19.7197
 21
-1.0332
  0
LINE
  8
0
 10
-19.7197
 20
-1.0332
 11
-19.9531
 21
-1.16992
  0
LINE
  8
0
 10
-19.9531
 20
-1.16992
 11
-20.1953
 21
-1.32227
  0
LINE
  8
0
 10
-20.1953
 20
-1.32227
 11
-20.4453
 21
-1.49023
  0
LINE
  8
0
 10
-20.4453
 20
-1.49023
 11
-20.4268
 21
-1.72656
  0
LINE
  8
0
 10
-20.4268
 20
-1.72656
 11
-20.1533
 21
-1.85352
  0
LINE
  8
0
 10
-20.1533
 20
-1.85352
 11
-19.8906
 21
-1.96582
  0
LINE
  8
0
 10
-19.8906
 20
-1.96582
 11
-19.6387
 21
-2.06445
  0
LINE
  8
0
 10
-19.6387
 20
-2.06445
 11
-19.3984
 21
-2.15039
  0
LINE
  8
0
 10
-19.3984
 20
-2.15039
 11
-19.168
 21
-2.22461
  0
LINE
  8
0
 10
-19.168
 20
-2.22461
 11
-19.1572
 21
-2.31152
  0
LINE
  8
0
 10
-19.1572
 20
-2.31152
 11
-19.1611
 21
-2.3125
  0
LINE
  8
0
 10
-19.1611
 20
-2.3125
 11
-19.3652
 21
-2.4375
  0
LINE
  8
0
 10
-19.3652
 20
-2.4375
 11
-19.5781
 21
-2.57715
  0
LINE
  8
0
 10
-19.5781
 20
-2.57715
 11
-19.7998
 21
-2.73145
  0
LINE
  8
0
 10
-19.7998
 20
-2.73145
 11
-20.0293
 21
-2.90234
  0
LINE
  8
0
 10
-20.0293
 20
-2.90234
 11
-20.2656
 21
-3.08984
  0
LINE
  8
0
 10
-20.2656
 20
-3.08984
 11
-20.2285
 21
-3.32422
  0
LINE
  8
0
 10
-20.2285
 20
-3.32422
 11
-19.9463
 21
-3.42871
  0
LINE
  8
0
 10
-19.9463
 20
-3.42871
 11
-19.6748
 21
-3.52051
  0
LINE
  8
0
 10
-19.6748
 20
-3.52051
 11
-19.416
 21
-3.59863
  0
LINE
  8
0
 10
-19.416
 20
-3.59863
 11
-19.1699
 21
-3.66602
  0
LINE
  8
0
 10
-19.1699
 20
-3.66602
 11
-18.9346
 21
-3.72168
  0
LINE
  8
0
 10
-18.9346
 20
-3.72168
 11
-18.917
 21
-3.80762
  0
LINE
  8
0
 10
-18.917
 20
-3.80762
 11
-18.9209
 21
-3.80859
  0
LINE
  8
0
 10
-18.9209
 20
-3.80859
 11
-19.1143
 21
-3.94922
  0
LINE
  8
0
 10
-19.1143
 20
-3.94922
 11
-19.3154
 21
-4.10547
  0
LINE
  8
0
 10
-19.3154
 20
-4.10547
 11
-19.5244
 21
-4.27734
  0
LINE
  8
0
 10
-19.5244
 20
-4.27734
 11
-19.7402
 21
-4.46484
  0
LINE
  8
0
 10
-19.7402
 20
-4.46484
 11
-19.9609
 21
-4.66992
  0
LINE
  8
0
 10
-19.9609
 20
-4.66992
 11
-19.9053
 21
-4.90039
  0
LINE
  8
0
 10
-19.9053
 20
-4.90039
 11
-19.6152
 21
-4.9834
  0
LINE
  8
0
 10
-19.6152
 20
-4.9834
 11
-19.3379
 21
-5.05273
  0
LINE
  8
0
 10
-19.3379
 20
-5.05273
 11
-19.0742
 21
-5.11133
  0
LINE
  8
0
 10
-19.0742
 20
-5.11133
 11
-18.8232
 21
-5.15918
  0
LINE
  8
0
 10
-18.8232
 20
-5.15918
 11
-18.5869
 21
-5.19629
  0
LINE
  8
0
 10
-18.5869
 20
-5.19629
 11
-18.584
 21
-5.19531
  0
LINE
  8
0
 10
-18.584
 20
-5.19531
 11
-18.5596
 21
-5.28027
  0
LINE
  8
0
 10
-18.5596
 20
-5.28027
 11
-18.5635
 21
-5.28125
  0
LINE
  8
0
 10
-18.5635
 20
-5.28125
 11
-18.7451
 21
-5.43652
  0
LINE
  8
0
 10
-18.7451
 20
-5.43652
 11
-18.9336
 21
-5.60742
  0
LINE
  8
0
 10
-18.9336
 20
-5.60742
 11
-19.1289
 21
-5.7959
  0
LINE
  8
0
 10
-19.1289
 20
-5.7959
 11
-19.3281
 21
-6
  0
LINE
  8
0
 10
-19.3281
 20
-6
 11
-19.5332
 21
-6.22168
  0
LINE
  8
0
 10
-19.5332
 20
-6.22168
 11
-19.46
 21
-6.44727
  0
LINE
  8
0
 10
-19.46
 20
-6.44727
 11
-19.1641
 21
-6.50684
  0
LINE
  8
0
 10
-19.1641
 20
-6.50684
 11
-18.8818
 21
-6.55469
  0
LINE
  8
0
 10
-18.8818
 20
-6.55469
 11
-18.6143
 21
-6.5918
  0
LINE
  8
0
 10
-18.6143
 20
-6.5918
 11
-18.3604
 21
-6.62012
  0
LINE
  8
0
 10
-18.3604
 20
-6.62012
 11
-18.1221
 21
-6.63867
  0
LINE
  8
0
 10
-18.1221
 20
-6.63867
 11
-18.1191
 21
-6.6377
  0
LINE
  8
0
 10
-18.1191
 20
-6.6377
 11
-18.0889
 21
-6.71973
  0
LINE
  8
0
 10
-18.0889
 20
-6.71973
 11
-18.2607
 21
-6.89062
  0
LINE
  8
0
 10
-18.2607
 20
-6.89062
 11
-18.4355
 21
-7.07617
  0
LINE
  8
0
 10
-18.4355
 20
-7.07617
 11
-18.6152
 21
-7.27832
  0
LINE
  8
0
 10
-18.6152
 20
-7.27832
 11
-18.7979
 21
-7.49805
  0
LINE
  8
0
 10
-18.7979
 20
-7.49805
 11
-18.9844
 21
-7.73535
  0
LINE
  8
0
 10
-18.9844
 20
-7.73535
 11
-18.8936
 21
-7.9541
  0
LINE
  8
0
 10
-18.8936
 20
-7.9541
 11
-18.5947
 21
-7.99023
  0
LINE
  8
0
 10
-18.5947
 20
-7.99023
 11
-18.3096
 21
-8.01562
  0
LINE
  8
0
 10
-18.3096
 20
-8.01562
 11
-18.0391
 21
-8.03223
  0
LINE
  8
0
 10
-18.0391
 20
-8.03223
 11
-17.7852
 21
-8.04004
  0
LINE
  8
0
 10
-17.7852
 20
-8.04004
 11
-17.542
 21
-8.03906
  0
LINE
  8
0
 10
-17.542
 20
-8.03906
 11
-17.5059
 21
-8.11816
  0
LINE
  8
0
 10
-17.5059
 20
-8.11816
 11
-17.6641
 21
-8.30176
  0
LINE
  8
0
 10
-17.6641
 20
-8.30176
 11
-17.8232
 21
-8.50098
  0
LINE
  8
0
 10
-17.8232
 20
-8.50098
 11
-17.9863
 21
-8.7168
  0
LINE
  8
0
 10
-17.9863
 20
-8.7168
 11
-18.1523
 21
-8.9502
  0
LINE
  8
0
 10
-18.1523
 20
-8.9502
 11
-18.3193
 21
-9.20117
  0
LINE
  8
0
 10
-18.3193
 20
-9.20117
 11
-18.2119
 21
-9.41211
  0
LINE
  8
0
 10
-18.2119
 20
-9.41211
 11
-17.9102
 21
-9.4248
  0
LINE
  8
0
 10
-17.9102
 20
-9.4248
 11
-17.624
 21
-9.42773
  0
LINE
  8
0
 10
-17.624
 20
-9.42773
 11
-17.3535
 21
-9.42285
  0
LINE
  8
0
 10
-17.3535
 20
-9.42285
 11
-17.0986
 21
-9.41016
  0
LINE
  8
0
 10
-17.0986
 20
-9.41016
 11
-16.8574
 21
-9.39062
  0
LINE
  8
0
 10
-16.8574
 20
-9.39062
 11
-16.8145
 21
-9.4668
  0
LINE
  8
0
 10
-16.8145
 20
-9.4668
 11
-16.8174
 21
-9.46875
  0
LINE
  8
0
 10
-16.8174
 20
-9.46875
 11
-16.958
 21
-9.66211
  0
LINE
  8
0
 10
-16.958
 20
-9.66211
 11
-17.1016
 21
-9.87305
  0
LINE
  8
0
 10
-17.1016
 20
-9.87305
 11
-17.2471
 21
-10.1006
  0
LINE
  8
0
 10
-17.2471
 20
-10.1006
 11
-17.3936
 21
-10.3467
  0
LINE
  8
0
 10
-17.3936
 20
-10.3467
 11
-17.541
 21
-10.6104
  0
LINE
  8
0
 10
-17.541
 20
-10.6104
 11
-17.417
 21
-10.8125
  0
LINE
  8
0
 10
-17.417
 20
-10.8125
 11
-17.1152
 21
-10.8008
  0
LINE
  8
0
 10
-17.1152
 20
-10.8008
 11
-16.8301
 21
-10.7812
  0
LINE
  8
0
 10
-16.8301
 20
-10.7812
 11
-16.5605
 21
-10.7559
  0
LINE
  8
0
 10
-16.5605
 20
-10.7559
 11
-16.3076
 21
-10.7236
  0
LINE
  8
0
 10
-16.3076
 20
-10.7236
 11
-16.0713
 21
-10.6855
  0
LINE
  8
0
 10
-16.0713
 20
-10.6855
 11
-16.0684
 21
-10.6836
  0
LINE
  8
0
 10
-16.0684
 20
-10.6836
 11
-16.0195
 21
-10.7568
  0
LINE
  8
0
 10
-16.0195
 20
-10.7568
 11
-16.0225
 21
-10.7588
  0
LINE
  8
0
 10
-16.0225
 20
-10.7588
 11
-16.1475
 21
-10.9629
  0
LINE
  8
0
 10
-16.1475
 20
-10.9629
 11
-16.2744
 21
-11.1846
  0
LINE
  8
0
 10
-16.2744
 20
-11.1846
 11
-16.4014
 21
-11.4229
  0
LINE
  8
0
 10
-16.4014
 20
-11.4229
 11
-16.5283
 21
-11.6797
  0
LINE
  8
0
 10
-16.5283
 20
-11.6797
 11
-16.6543
 21
-11.9531
  0
LINE
  8
0
 10
-16.6543
 20
-11.9531
 11
-16.5146
 21
-12.1455
  0
LINE
  8
0
 10
-16.5146
 20
-12.1455
 11
-16.2148
 21
-12.1104
  0
LINE
  8
0
 10
-16.2148
 20
-12.1104
 11
-15.9326
 21
-12.0684
  0
LINE
  8
0
 10
-15.9326
 20
-12.0684
 11
-15.666
 21
-12.0215
  0
LINE
  8
0
 10
-15.666
 20
-12.0215
 11
-15.416
 21
-11.9697
  0
LINE
  8
0
 10
-15.416
 20
-11.9697
 11
-15.1836
 21
-11.9141
  0
LINE
  8
0
 10
-15.1836
 20
-11.9141
 11
-15.1807
 21
-11.9121
  0
LINE
  8
0
 10
-15.1807
 20
-11.9121
 11
-15.127
 21
-11.9805
  0
LINE
  8
0
 10
-15.127
 20
-11.9805
 11
-15.1299
 21
-11.9834
  0
LINE
  8
0
 10
-15.1299
 20
-11.9834
 11
-15.2383
 21
-12.1963
  0
LINE
  8
0
 10
-15.2383
 20
-12.1963
 11
-15.3467
 21
-12.4268
  0
LINE
  8
0
 10
-15.3467
 20
-12.4268
 11
-15.4551
 21
-12.6748
  0
LINE
  8
0
 10
-15.4551
 20
-12.6748
 11
-15.5615
 21
-12.9404
  0
LINE
  8
0
 10
-15.5615
 20
-12.9404
 11
-15.665
 21
-13.2236
  0
LINE
  8
0
 10
-15.665
 20
-13.2236
 11
-15.5107
 21
-13.4033
  0
LINE
  8
0
 10
-15.5107
 20
-13.4033
 11
-15.2148
 21
-13.3457
  0
LINE
  8
0
 10
-15.2148
 20
-13.3457
 11
-14.9365
 21
-13.2812
  0
LINE
  8
0
 10
-14.9365
 20
-13.2812
 11
-14.6748
 21
-13.2139
  0
LINE
  8
0
 10
-14.6748
 20
-13.2139
 11
-14.4297
 21
-13.1426
  0
LINE
  8
0
 10
-14.4297
 20
-13.1426
 11
-14.1992
 21
-13.0664
  0
LINE
  8
0
 10
-14.1992
 20
-13.0664
 11
-14.1396
 21
-13.1309
  0
LINE
  8
0
 10
-14.1396
 20
-13.1309
 11
-14.1426
 21
-13.1328
  0
LINE
  8
0
 10
-14.1426
 20
-13.1328
 11
-14.2344
 21
-13.3545
  0
LINE
  8
0
 10
-14.2344
 20
-13.3545
 11
-14.3242
 21
-13.5928
  0
LINE
  8
0
 10
-14.3242
 20
-13.5928
 11
-14.4131
 21
-13.8477
  0
LINE
  8
0
 10
-14.4131
 20
-13.8477
 11
-14.498
 21
-14.1211
  0
LINE
  8
0
 10
-14.498
 20
-14.1211
 11
-14.5791
 21
-14.4111
  0
LINE
  8
0
 10
-14.5791
 20
-14.4111
 11
-14.4111
 21
-14.5791
  0
LINE
  8
0
 10
-14.4111
 20
-14.5791
 11
-14.1211
 21
-14.498
  0
LINE
  8
0
 10
-14.1211
 20
-14.498
 11
-13.8477
 21
-14.4131
  0
LINE
  8
0
 10
-13.8477
 20
-14.4131
 11
-13.5928
 21
-14.3242
  0
LINE
  8
0
 10
-13.5928
 20
-14.3242
 11
-13.3545
 21
-14.2344
  0
LINE
  8
0
 10
-13.3545
 20
-14.2344
 11
-13.1328
 21
-14.1426
  0
LINE
  8
0
 10
-13.1328
 20
-14.1426
 11
-13.1309
 21
-14.1396
  0
LINE
  8
0
 10
-13.1309
 20
-14.1396
 11
-13.0664
 21
-14.1992
  0
LINE
  8
0
 10
-13.0664
 20
-14.1992
 11
-13.1426
 21
-14.4297
  0
LINE
  8
0
 10
-13.1426
 20
-14.4297
 11
-13.2139
 21
-14.6748
  0
LINE
  8
0
 10
-13.2139
 20
-14.6748
 11
-13.2812
 21
-14.9365
  0
LINE
  8
0
 10
-13.2812
 20
-14.9365
 11
-13.3457
 21
-15.2148
  0
LINE
  8
0
 10
-13.3457
 20
-15.2148
 11
-13.4033
 21
-15.5107
  0
LINE
  8
0
 10
-13.4033
 20
-15.5107
 11
-13.2236
 21
-15.665
  0
LINE
  8
0
 10
-13.2236
 20
-15.665
 11
-12.9404
 21
-15.5615
  0
LINE
  8
0
 10
-12.9404
 20
-15.5615
 11
-12.6748
 21
-15.4551
  0
LINE
  8
0
 10
-12.6748
 20
-15.4551
 11
-12.4268
 21
-15.3467
  0
LINE
  8
0
 10
-12.4268
 20
-15.3467
 11
-12.1963
 21
-15.2383
  0
LINE
  8
0
 10
-12.1963
 20
-15.2383
 11
-11.9834
 21
-15.1299
  0
LINE
  8
0
 10
-11.9834
 20
-15.1299
 11
-11.9805
 21
-15.127
  0
LINE
  8
0
 10
-11.9805
 20
-15.127
 11
-11.9121
 21
-15.1807
  0
LINE
  8
0
 10
-11.9121
 20
-15.1807
 11
-11.9141
 21
-15.1836
  0
LINE
  8
0
 10
-11.9141
 20
-15.1836
 11
-11.9697
 21
-15.416
  0
LINE
  8
0
 10
-11.9697
 20
-15.416
 11
-12.0215
 21
-15.666
  0
LINE
  8
0
 10
-12.0215
 20
-15.666
 11
-12.0684
 21
-15.9326
  0
LINE
  8
0
 10
-12.0684
 20
-15.9326
 11
-12.1104
 21
-16.2148
  0
LINE
  8
0
 10
-12.1104
 20
-16.2148
 11
-12.1455
 21
-16.5146
  0
LINE
  8
0
 10
-12.1455
 20
-16.5146
 11
-11.9531
 21
-16.6543
  0
LINE
  8
0
 10
-11.9531
 20
-16.6543
 11
-11.6797
 21
-16.5283
  0
LINE
  8
0
 10
-11.6797
 20
-16.5283
 11
-11.4229
 21
-16.4014
  0
LINE
  8
0
 10
-11.4229
 20
-16.4014
 11
-11.1846
 21
-16.2744
  0
LINE
  8
0
 10
-11.1846
 20
-16.2744
 11
-10.9629
 21
-16.1475
  0
LINE
  8
0
 10
-10.9629
 20
-16.1475
 11
-10.7588
 21
-16.0225
  0
LINE
  8
0
 10
-10.7588
 20
-16.0225
 11
-10.7568
 21
-16.0195
  0
LINE
  8
0
 10
-10.7568
 20
-16.0195
 11
-10.6836
 21
-16.0684
  0
LINE
  8
0
 10
-10.6836
 20
-16.0684
 11
-10.6855
 21
-16.0713
  0
LINE
  8
0
 10
-10.6855
 20
-16.0713
 11
-10.7236
 21
-16.3076
  0
LINE
  8
0
 10
-10.7236
 20
-16.3076
 11
-10.7559
 21
-16.5605
  0
LINE
  8
0
 10
-10.7559
 20
-16.5605
 11
-10.7812
 21
-16.8301
  0
LINE
  8
0
 10
-10.7812
 20
-16.8301
 11
-10.8008
 21
-17.1152
  0
LINE
  8
0
 10
-10.8008
 20
-17.1152
 11
-10.8125
 21
-17.417
  0
LINE
  8
0
 10
-10.8125
 20
-17.417
 11
-10.6104
 21
-17.541
  0
LINE
  8
0
 10
-10.6104
 20
-17.541
 11
-10.3467
 21
-17.3936
  0
LINE
  8
0
 10
-10.3467
 20
-17.3936
 11
-10.1006
 21
-17.2471
  0
LINE
  8
0
 10
-10.1006
 20
-17.2471
 11
-9.87305
 21
-17.1016
  0
LINE
  8
0
 10
-9.87305
 20
-17.1016
 11
-9.66211
 21
-16.958
  0
LINE
  8
0
 10
-9.66211
 20
-16.958
 11
-9.46875
 21
-16.8174
  0
LINE
  8
0
 10
-9.46875
 20
-16.8174
 11
-9.4668
 21
-16.8145
  0
LINE
  8
0
 10
-9.4668
 20
-16.8145
 11
-9.39062
 21
-16.8574
  0
LINE
  8
0
 10
-9.39062
 20
-16.8574
 11
-9.41016
 21
-17.0986
  0
LINE
  8
0
 10
-9.41016
 20
-17.0986
 11
-9.42285
 21
-17.3535
  0
LINE
  8
0
 10
-9.42285
 20
-17.3535
 11
-9.42773
 21
-17.624
  0
LINE
  8
0
 10
-9.42773
 20
-17.624
 11
-9.4248
 21
-17.9102
  0
LINE
  8
0
 10
-9.4248
 20
-17.9102
 11
-9.41211
 21
-18.2119
  0
LINE
  8
0
 10
-9.41211
 20
-18.2119
 11
-9.20117
 21
-18.3193
  0
LINE
  8
0
 10
-9.20117
 20
-18.3193
 11
-8.9502
 21
-18.1523
  0
LINE
  8
0
 10
-8.9502
 20
-18.1523
 11
-8.7168
 21
-17.9863
  0
LINE
  8
0
 10
-8.7168
 20
-17.9863
 11
-8.50098
 21
-17.8232
  0
LINE
  8
0
 10
-8.50098
 20
-17.8232
 11
-8.30176
 21
-17.6641
  0
LINE
  8
0
 10
-8.30176
 20
-17.6641
 11
-8.11816
 21
-17.5059
  0
LINE
  8
0
 10
-8.11816
 20
-17.5059
 11
-8.03906
 21
-17.542
  0
LINE
  8
0
 10
-8.03906
 20
-17.542
 11
-8.04004
 21
-17.7852
  0
LINE
  8
0
 10
-8.04004
 20
-17.7852
 11
-8.03223
 21
-18.0391
  0
LINE
  8
0
 10
-8.03223
 20
-18.0391
 11
-8.01562
 21
-18.3096
  0
LINE
  8
0
 10
-8.01562
 20
-18.3096
 11
-7.99023
 21
-18.5947
  0
LINE
  8
0
 10
-7.99023
 20
-18.5947
 11
-7.9541
 21
-18.8936
  0
LINE
  8
0
 10
-7.9541
 20
-18.8936
 11
-7.73535
 21
-18.9844
  0
LINE
  8
0
 10
-7.73535
 20
-18.9844
 11
-7.49805
 21
-18.7979
  0
LINE
  8
0
 10
-7.49805
 20
-18.7979
 11
-7.27832
 21
-18.6152
  0
LINE
  8
0
 10
-7.27832
 20
-18.6152
 11
-7.07617
 21
-18.4355
  0
LINE
  8
0
 10
-7.07617
 20
-18.4355
 11
-6.89062
 21
-18.2607
  0
LINE
  8
0
 10
-6.89062
 20
-18.2607
 11
-6.71973
 21
-18.0889
  0
LINE
  8
0
 10
-6.71973
 20
-18.0889
 11
-6.6377
 21
-18.1191
  0
LINE
  8
0
 10
-6.6377
 20
-18.1191
 11
-6.63867
 21
-18.1221
  0
LINE
  8
0
 10
-6.63867
 20
-18.1221
 11
-6.62012
 21
-18.3604
  0
LINE
  8
0
 10
-6.62012
 20
-18.3604
 11
-6.5918
 21
-18.6143
  0
LINE
  8
0
 10
-6.5918
 20
-18.6143
 11
-6.55469
 21
-18.8818
  0
LINE
  8
0
 10
-6.55469
 20
-18.8818
 11
-6.50684
 21
-19.1641
  0
LINE
  8
0
 10
-6.50684
 20
-19.1641
 11
-6.44727
 21
-19.46
  0
LINE
  8
0
 10
-6.44727
 20
-19.46
 11
-6.22168
 21
-19.5332
  0
LINE
  8
0
 10
-6.22168
 20
-19.5332
 11
-6
 21
-19.3281
  0
LINE
  8
0
 10
-6
 20
-19.3281
 11
-5.7959
 21
-19.1289
  0
LINE
  8
0
 10
-5.7959
 20
-19.1289
 11
-5.60742
 21
-18.9336
  0
LINE
  8
0
 10
-5.60742
 20
-18.9336
 11
-5.43652
 21
-18.7451
  0
LINE
  8
0
 10
-5.43652
 20
-18.7451
 11
-5.28125
 21
-18.5635
  0
LINE
  8
0
 10
-5.28125
 20
-18.5635
 11
-5.28027
 21
-18.5596
  0
LINE
  8
0
 10
-5.28027
 20
-18.5596
 11
-5.19531
 21
-18.584
  0
LINE
  8
0
 10
-5.19531
 20
-18.584
 11
-5.19629
 21
-18.5869
  0
LINE
  8
0
 10
-5.19629
 20
-18.5869
 11
-5.15918
 21
-18.8232
  0
LINE
  8
0
 10
-5.15918
 20
-18.8232
 11
-5.11133
 21
-19.0742
  0
LINE
  8
0
 10
-5.11133
 20
-19.0742
 11
-5.05273
 21
-19.3379
  0
LINE
  8
0
 10
-5.05273
 20
-19.3379
 11
-4.9834
 21
-19.6152
  0
LINE
  8
0
 10
-4.9834
 20
-19.6152
 11
-4.90039
 21
-19.9053
  0
LINE
  8
0
 10
-4.90039
 20
-19.9053
 11
-4.66992
 21
-19.9609
  0
LINE
  8
0
 10
-4.66992
 20
-19.9609
 11
-4.46484
 21
-19.7402
  0
LINE
  8
0
 10
-4.46484
 20
-19.7402
 11
-4.27734
 21
-19.5244
  0
LINE
  8
0
 10
-4.27734
 20
-19.5244
 11
-4.10547
 21
-19.3154
  0
LINE
  8
0
 10
-4.10547
 20
-19.3154
 11
-3.94922
 21
-19.1143
  0
LINE
  8
0
 10
-3.94922
 20
-19.1143
 11
-3.80859
 21
-18.9209
  0
LINE
  8
0
 10
-3.80859
 20
-18.9209
 11
-3.80762
 21
-18.917
  0
LINE
  8
0
 10
-3.80762
 20
-18.917
 11
-3.72168
 21
-18.9346
  0
LINE
  8
0
 10
-3.72168
 20
-18.9346
 11
-3.66602
 21
-19.1699
  0
LINE
  8
0
 10
-3.66602
 20
-19.1699
 11
-3.59863
 21
-19.416
  0
LINE
  8
0
 10
-3.59863
 20
-19.416
 11
-3.52051
 21
-19.6748
  0
LINE
  8
0
 10
-3.52051
 20
-19.6748
 11
-3.42871
 21
-19.9463
  0
LINE
  8
0
 10
-3.42871
 20
-19.9463
 11
-3.32422
 21
-20.2285
  0
LINE
  8
0
 10
-3.32422
 20
-20.2285
 11
-3.08984
 21
-20.2656
  0
LINE
  8
0
 10
-3.08984
 20
-20.2656
 11
-2.90234
 21
-20.0293
  0
LINE
  8
0
 10
-2.90234
 20
-20.0293
 11
-2.73145
 21
-19.7998
  0
LINE
  8
0
 10
-2.73145
 20
-19.7998
 11
-2.57715
 21
-19.5781
  0
LINE
  8
0
 10
-2.57715
 20
-19.5781
 11
-2.4375
 21
-19.3652
  0
LINE
  8
0
 10
-2.4375
 20
-19.3652
 11
-2.3125
 21
-19.1611
  0
LINE
  8
0
 10
-2.3125
 20
-19.1611
 11
-2.31152
 21
-19.1572
  0
LINE
  8
0
 10
-2.31152
 20
-19.1572
 11
-2.22461
 21
-19.168
  0
LINE
  8
0
 10
-2.22461
 20
-19.168
 11
-2.15039
 21
-19.3984
  0
LINE
  8
0
 10
-2.15039
 20
-19.3984
 11
-2.06445
 21
-19.6387
  0
LINE
  8
0
 10
-2.06445
 20
-19.6387
 11
-1.96582
 21
-19.8906
  0
LINE
  8
0
 10
-1.96582
 20
-19.8906
 11
-1.85352
 21
-20.1533
  0
LINE
  8
0
 10
-1.85352
 20
-20.1533
 11
-1.72656
 21
-20.4268
  0
LINE
  8
0
 10
-1.72656
 20
-20.4268
 11
-1.49023
 21
-20.4453
  0
LINE
  8
0
 10
-1.49023
 20
-20.4453
 11
-1.32227
 21
-20.1953
  0
LINE
  8
0
 10
-1.32227
 20
-20.1953
 11
-1.16992
 21
-19.9531
  0
LINE
  8
0
 10
-1.16992
 20
-19.9531
 11
-1.0332
 21
-19.7197
  0
LINE
  8
0
 10
-1.0332
 20
-19.7197
 11
-0.910156
 21
-19.4961
  0
LINE
  8
0
 10
-0.910156
 20
-19.4961
 11
-0.801758
 21
-19.2832
  0
LINE
  8
0
 10
-0.801758
 20
-19.2832
 11
-0.801758
 21
-19.2793
  0
LINE
  8
0
 10
-0.801758
 20
-19.2793
 11
-0.713867
 21
-19.2832
  0
LINE
  8
0
 10
-0.713867
 20
-19.2832
 11
-0.713867
 21
-19.2871
  0
LINE
  8
0
 10
-0.713867
 20
-19.2871
 11
-0.62207
 21
-19.5078
  0
LINE
  8
0
 10
-0.62207
 20
-19.5078
 11
-0.517578
 21
-19.7402
  0
LINE
  8
0
 10
-0.517578
 20
-19.7402
 11
-0.399414
 21
-19.9834
  0
LINE
  8
0
 10
-0.399414
 20
-19.9834
 11
-0.266602
 21
-20.2363
  0
LINE
  8
0
 10
-0.266602
 20
-20.2363
 11
-0.118164
 21
-20.5
  0
LINE
  8
0
 10
-0.118164
 20
-20.5
 11
0.118164
 21
-20.5
  0
LINE
  8
0
 10
0.118164
 20
-20.5
 11
0.266602
 21
-20.2363
  0
ENDSEC
  0
SECTION
  2
OBJECTS
  0
DICTIONARY
  0
ENDSEC
  0
EOF
