  0
SECTION
  2
BLOCKS
  0
ENDSEC
  0
SECTION
  2
ENTITIES
  0
LINE
  8
0
 10
4.63525
 20
-14.2658
 11
7.5
 21
-12.9904
  0
LINE
  8
0
 10
7.5
 20
-12.9904
 11
10.037
 21
-11.1472
  0
LINE
  8
0
 10
10.037
 20
-11.1472
 11
12.1353
 21
-8.81677
  0
LINE
  8
0
 10
12.1353
 20
-8.81677
 11
13.7032
 21
-6.10104
  0
LINE
  8
0
 10
13.7032
 20
-6.10104
 11
14.6722
 21
-3.11867
  0
LINE
  8
0
 10
14.6722
 20
-3.11867
 11
15
 21
0
  0
LINE
  8
0
 10
15
 20
0
 11
14.6722
 21
3.11867
  0
LINE
  8
0
 10
14.6722
 20
3.11867
 11
13.7032
 21
6.10104
  0
LINE
  8
0
 10
13.7032
 20
6.10104
 11
12.1353
 21
8.81677
  0
LINE
  8
0
 10
12.1353
 20
8.81677
 11
11.125
 21
9.93877
  0
LINE
  8
0
 10
11.125
 20
9.93877
 11
11.125
 21
-2.79999
  0
LINE
  8
0
 10
11.125
 20
-2.79999
 11
10.9502
 21
-4.46329
  0
LINE
  8
0
 10
10.9502
 20
-4.46329
 11
10.4333
 21
-6.05388
  0
LINE
  8
0
 10
10.4333
 20
-6.05388
 11
9.59712
 21
-7.50227
  0
LINE
  8
0
 10
9.59712
 20
-7.50227
 11
8.47804
 21
-8.74515
  0
LINE
  8
0
 10
8.47804
 20
-8.74515
 11
7.125
 21
-9.7282
  0
LINE
  8
0
 10
7.125
 20
-9.7282
 11
5.59712
 21
-10.4084
  0
LINE
  8
0
 10
5.59712
 20
-10.4084
 11
3.96123
 21
-10.7562
  0
LINE
  8
0
 10
3.96123
 20
-10.7562
 11
-3.96123
 21
-10.7562
  0
LINE
  8
0
 10
-3.96123
 20
-10.7562
 11
-5.59712
 21
-10.4084
  0
LINE
  8
0
 10
-5.59712
 20
-10.4084
 11
-7.125
 21
-9.7282
  0
LINE
  8
0
 10
-7.125
 20
-9.7282
 11
-8.47804
 21
-8.74515
  0
LINE
  8
0
 10
-8.47804
 20
-8.74515
 11
-9.59712
 21
-7.50227
  0
LINE
  8
0
 10
-9.59712
 20
-7.50227
 11
-10.4333
 21
-6.05388
  0
LINE
  8
0
 10
-10.4333
 20
-6.05388
 11
-10.9502
 21
-4.46329
  0
LINE
  8
0
 10
-10.9502
 20
-4.46329
 11
-11.125
 21
-2.79999
  0
LINE
  8
0
 10
-11.125
 20
-2.79999
 11
-11.125
 21
9.93877
  0
LINE
  8
0
 10
-11.125
 20
9.93877
 11
-12.1353
 21
8.81677
  0
LINE
  8
0
 10
-12.1353
 20
8.81677
 11
-13.7032
 21
6.10104
  0
LINE
  8
0
 10
-13.7032
 20
6.10104
 11
-14.6722
 21
3.11867
  0
LINE
  8
0
 10
-14.6722
 20
3.11867
 11
-15
 21
0
  0
LINE
  8
0
 10
-15
 20
0
 11
-14.6722
 21
-3.11867
  0
LINE
  8
0
 10
-14.6722
 20
-3.11867
 11
-13.7032
 21
-6.10104
  0
LINE
  8
0
 10
-13.7032
 20
-6.10104
 11
-12.1353
 21
-8.81677
  0
LINE
  8
0
 10
-12.1353
 20
-8.81677
 11
-10.037
 21
-11.1472
  0
LINE
  8
0
 10
-10.037
 20
-11.1472
 11
-7.5
 21
-12.9904
  0
LINE
  8
0
 10
-7.5
 20
-12.9904
 11
-4.63525
 21
-14.2658
  0
LINE
  8
0
 10
-4.63525
 20
-14.2658
 11
-1.56792
 21
-14.9178
  0
LINE
  8
0
 10
-1.56792
 20
-14.9178
 11
1.56792
 21
-14.9178
  0
LINE
  8
0
 10
1.56792
 20
-14.9178
 11
4.63525
 21
-14.2658
  0
ENDSEC
  0
SECTION
  2
OBJECTS
  0
DICTIONARY
  0
ENDSEC
  0
EOF
