  0
SECTION
  2
BLOCKS
  0
ENDSEC
  0
SECTION
  2
ENTITIES
  0
LINE
  8
0
 10
11.1797
 20
10.7178
 11
11.2666
 21
10.9727
  0
LINE
  8
0
 10
11.2666
 20
10.9727
 11
11.3506
 21
11.251
  0
LINE
  8
0
 10
11.3506
 20
11.251
 11
11.4297
 21
11.5508
  0
LINE
  8
0
 10
11.4297
 20
11.5508
 11
11.2627
 21
11.7139
  0
LINE
  8
0
 10
11.2627
 20
11.7139
 11
11.125
 21
11.6743
  0
LINE
  8
0
 10
11.125
 20
11.6743
 11
11.125
 21
10.5772
  0
LINE
  8
0
 10
11.125
 20
10.5772
 11
11.1797
 21
10.7178
  0
LINE
  8
0
 10
-0.12793
 20
-15.9814
 11
0.0117188
 21
-15.7275
  0
LINE
  8
0
 10
0.0117188
 20
-15.7275
 11
0.133789
 21
-15.4863
  0
LINE
  8
0
 10
0.133789
 20
-15.4863
 11
0.237305
 21
-15.2588
  0
LINE
  8
0
 10
0.237305
 20
-15.2588
 11
0.324219
 21
-15.0469
  0
LINE
  8
0
 10
0.324219
 20
-15.0469
 11
0.324219
 21
-15.042
  0
LINE
  8
0
 10
0.324219
 20
-15.042
 11
0.425781
 21
-15.0391
  0
LINE
  8
0
 10
0.425781
 20
-15.0391
 11
0.425781
 21
-15.0439
  0
LINE
  8
0
 10
0.425781
 20
-15.0439
 11
0.523438
 21
-15.252
  0
LINE
  8
0
 10
0.523438
 20
-15.252
 11
0.638672
 21
-15.4736
  0
LINE
  8
0
 10
0.638672
 20
-15.4736
 11
0.772461
 21
-15.708
  0
LINE
  8
0
 10
0.772461
 20
-15.708
 11
0.924805
 21
-15.9551
  0
LINE
  8
0
 10
0.924805
 20
-15.9551
 11
1.09863
 21
-16.2129
  0
LINE
  8
0
 10
1.09863
 20
-16.2129
 11
1.33008
 21
-16.1953
  0
LINE
  8
0
 10
1.33008
 20
-16.1953
 11
1.46387
 21
-15.915
  0
LINE
  8
0
 10
1.46387
 20
-15.915
 11
1.57812
 21
-15.6484
  0
LINE
  8
0
 10
1.57812
 20
-15.6484
 11
1.6748
 21
-15.3955
  0
LINE
  8
0
 10
1.6748
 20
-15.3955
 11
1.75488
 21
-15.1592
  0
LINE
  8
0
 10
1.75488
 20
-15.1592
 11
1.82129
 21
-14.9395
  0
LINE
  8
0
 10
1.82129
 20
-14.9395
 11
1.82031
 21
-14.9346
  0
LINE
  8
0
 10
1.82031
 20
-14.9346
 11
1.9209
 21
-14.9219
  0
LINE
  8
0
 10
1.9209
 20
-14.9219
 11
1.92188
 21
-14.9268
  0
LINE
  8
0
 10
1.92188
 20
-14.9268
 11
2.04004
 21
-15.124
  0
LINE
  8
0
 10
2.04004
 20
-15.124
 11
2.17578
 21
-15.333
  0
LINE
  8
0
 10
2.17578
 20
-15.333
 11
2.33203
 21
-15.5537
  0
LINE
  8
0
 10
2.33203
 20
-15.5537
 11
2.50879
 21
-15.7842
  0
LINE
  8
0
 10
2.50879
 20
-15.7842
 11
2.70703
 21
-16.0225
  0
LINE
  8
0
 10
2.70703
 20
-16.0225
 11
2.93652
 21
-15.9824
  0
LINE
  8
0
 10
2.93652
 20
-15.9824
 11
3.04102
 21
-15.6904
  0
LINE
  8
0
 10
3.04102
 20
-15.6904
 11
3.12793
 21
-15.4131
  0
LINE
  8
0
 10
3.12793
 20
-15.4131
 11
3.19922
 21
-15.1523
  0
LINE
  8
0
 10
3.19922
 20
-15.1523
 11
3.25586
 21
-14.9092
  0
LINE
  8
0
 10
3.25586
 20
-14.9092
 11
3.2998
 21
-14.6836
  0
LINE
  8
0
 10
3.2998
 20
-14.6836
 11
3.29883
 21
-14.6797
  0
LINE
  8
0
 10
3.29883
 20
-14.6797
 11
3.39746
 21
-14.6572
  0
LINE
  8
0
 10
3.39746
 20
-14.6572
 11
3.39844
 21
-14.6611
  0
LINE
  8
0
 10
3.39844
 20
-14.6611
 11
3.53516
 21
-14.8457
  0
LINE
  8
0
 10
3.53516
 20
-14.8457
 11
3.69238
 21
-15.04
  0
LINE
  8
0
 10
3.69238
 20
-15.04
 11
3.86914
 21
-15.2441
  0
LINE
  8
0
 10
3.86914
 20
-15.2441
 11
4.06836
 21
-15.4561
  0
LINE
  8
0
 10
4.06836
 20
-15.4561
 11
4.28906
 21
-15.6738
  0
LINE
  8
0
 10
4.28906
 20
-15.6738
 11
4.5127
 21
-15.6104
  0
LINE
  8
0
 10
4.5127
 20
-15.6104
 11
4.58789
 21
-15.3096
  0
LINE
  8
0
 10
4.58789
 20
-15.3096
 11
4.64746
 21
-15.0254
  0
LINE
  8
0
 10
4.64746
 20
-15.0254
 11
4.69238
 21
-14.7588
  0
LINE
  8
0
 10
4.69238
 20
-14.7588
 11
4.72461
 21
-14.5107
  0
LINE
  8
0
 10
4.72461
 20
-14.5107
 11
4.74512
 21
-14.2822
  0
LINE
  8
0
 10
4.74512
 20
-14.2822
 11
4.74316
 21
-14.2783
  0
LINE
  8
0
 10
4.74316
 20
-14.2783
 11
4.83984
 21
-14.2461
  0
LINE
  8
0
 10
4.83984
 20
-14.2461
 11
4.84082
 21
-14.25
  0
LINE
  8
0
 10
4.84082
 20
-14.25
 11
4.99609
 21
-14.4199
  0
LINE
  8
0
 10
4.99609
 20
-14.4199
 11
5.1709
 21
-14.5977
  0
LINE
  8
0
 10
5.1709
 20
-14.5977
 11
5.36816
 21
-14.7832
  0
LINE
  8
0
 10
5.36816
 20
-14.7832
 11
5.58691
 21
-14.9736
  0
LINE
  8
0
 10
5.58691
 20
-14.9736
 11
5.82812
 21
-15.1689
  0
LINE
  8
0
 10
5.82812
 20
-15.1689
 11
6.04492
 21
-15.084
  0
LINE
  8
0
 10
6.04492
 20
-15.084
 11
6.08984
 21
-14.7764
  0
LINE
  8
0
 10
6.08984
 20
-14.7764
 11
6.12012
 21
-14.4873
  0
LINE
  8
0
 10
6.12012
 20
-14.4873
 11
6.13867
 21
-14.2188
  0
LINE
  8
0
 10
6.13867
 20
-14.2188
 11
6.14551
 21
-13.9688
  0
LINE
  8
0
 10
6.14551
 20
-13.9688
 11
6.14355
 21
-13.7393
  0
LINE
  8
0
 10
6.14355
 20
-13.7393
 11
6.1416
 21
-13.7344
  0
LINE
  8
0
 10
6.1416
 20
-13.7344
 11
6.23438
 21
-13.6934
  0
LINE
  8
0
 10
6.23438
 20
-13.6934
 11
6.23633
 21
-13.6973
  0
LINE
  8
0
 10
6.23633
 20
-13.6973
 11
6.40723
 21
-13.8506
  0
LINE
  8
0
 10
6.40723
 20
-13.8506
 11
6.59863
 21
-14.0107
  0
LINE
  8
0
 10
6.59863
 20
-14.0107
 11
6.81348
 21
-14.1748
  0
LINE
  8
0
 10
6.81348
 20
-14.1748
 11
7.0498
 21
-14.3428
  0
LINE
  8
0
 10
7.0498
 20
-14.3428
 11
7.30957
 21
-14.5137
  0
LINE
  8
0
 10
7.30957
 20
-14.5137
 11
7.5166
 21
-14.4072
  0
LINE
  8
0
 10
7.5166
 20
-14.4072
 11
7.53027
 21
-14.0967
  0
LINE
  8
0
 10
7.53027
 20
-14.0967
 11
7.53223
 21
-13.8066
  0
LINE
  8
0
 10
7.53223
 20
-13.8066
 11
7.52344
 21
-13.5361
  0
LINE
  8
0
 10
7.52344
 20
-13.5361
 11
7.50586
 21
-13.2871
  0
LINE
  8
0
 10
7.50586
 20
-13.2871
 11
7.48145
 21
-13.0586
  0
LINE
  8
0
 10
7.48145
 20
-13.0586
 11
7.47852
 21
-13.0547
  0
LINE
  8
0
 10
7.47852
 20
-13.0547
 11
7.56641
 21
-13.0039
  0
LINE
  8
0
 10
7.56641
 20
-13.0039
 11
7.56934
 21
-13.0078
  0
LINE
  8
0
 10
7.56934
 20
-13.0078
 11
7.75391
 21
-13.1436
  0
LINE
  8
0
 10
7.75391
 20
-13.1436
 11
7.96094
 21
-13.2842
  0
LINE
  8
0
 10
7.96094
 20
-13.2842
 11
8.19043
 21
-13.4258
  0
LINE
  8
0
 10
8.19043
 20
-13.4258
 11
8.44238
 21
-13.5703
  0
LINE
  8
0
 10
8.44238
 20
-13.5703
 11
8.71875
 21
-13.7129
  0
LINE
  8
0
 10
8.71875
 20
-13.7129
 11
8.91406
 21
-13.5869
  0
LINE
  8
0
 10
8.91406
 20
-13.5869
 11
8.89648
 21
-13.2764
  0
LINE
  8
0
 10
8.89648
 20
-13.2764
 11
8.86914
 21
-12.9883
  0
LINE
  8
0
 10
8.86914
 20
-12.9883
 11
8.83398
 21
-12.7197
  0
LINE
  8
0
 10
8.83398
 20
-12.7197
 11
8.79199
 21
-12.4736
  0
LINE
  8
0
 10
8.79199
 20
-12.4736
 11
8.74414
 21
-12.249
  0
LINE
  8
0
 10
8.74414
 20
-12.249
 11
8.74121
 21
-12.2451
  0
LINE
  8
0
 10
8.74121
 20
-12.2451
 11
8.82422
 21
-12.1865
  0
LINE
  8
0
 10
8.82422
 20
-12.1865
 11
8.82617
 21
-12.1904
  0
LINE
  8
0
 10
8.82617
 20
-12.1904
 11
9.02441
 21
-12.3066
  0
LINE
  8
0
 10
9.02441
 20
-12.3066
 11
9.24414
 21
-12.4248
  0
LINE
  8
0
 10
9.24414
 20
-12.4248
 11
9.48633
 21
-12.5439
  0
LINE
  8
0
 10
9.48633
 20
-12.5439
 11
9.75195
 21
-12.6621
  0
LINE
  8
0
 10
9.75195
 20
-12.6621
 11
10.04
 21
-12.7773
  0
LINE
  8
0
 10
10.04
 20
-12.7773
 11
10.2227
 21
-12.6318
  0
LINE
  8
0
 10
10.2227
 20
-12.6318
 11
10.1748
 21
-12.3252
  0
LINE
  8
0
 10
10.1748
 20
-12.3252
 11
10.1182
 21
-12.04
  0
LINE
  8
0
 10
10.1182
 20
-12.04
 11
10.0566
 21
-11.7773
  0
LINE
  8
0
 10
10.0566
 20
-11.7773
 11
9.99023
 21
-11.5361
  0
LINE
  8
0
 10
9.99023
 20
-11.5361
 11
9.91992
 21
-11.3174
  0
LINE
  8
0
 10
9.91992
 20
-11.3174
 11
9.91699
 21
-11.3145
  0
LINE
  8
0
 10
9.91699
 20
-11.3145
 11
9.99316
 21
-11.2471
  0
LINE
  8
0
 10
9.99316
 20
-11.2471
 11
9.99609
 21
-11.251
  0
LINE
  8
0
 10
9.99609
 20
-11.251
 11
10.2051
 21
-11.3467
  0
LINE
  8
0
 10
10.2051
 20
-11.3467
 11
10.4355
 21
-11.4434
  0
LINE
  8
0
 10
10.4355
 20
-11.4434
 11
10.6885
 21
-11.5371
  0
LINE
  8
0
 10
10.6885
 20
-11.5371
 11
10.9639
 21
-11.6279
  0
LINE
  8
0
 10
10.9639
 20
-11.6279
 11
11.2627
 21
-11.7139
  0
LINE
  8
0
 10
11.2627
 20
-11.7139
 11
11.4297
 21
-11.5508
  0
LINE
  8
0
 10
11.4297
 20
-11.5508
 11
11.3506
 21
-11.251
  0
LINE
  8
0
 10
11.3506
 20
-11.251
 11
11.2666
 21
-10.9727
  0
LINE
  8
0
 10
11.2666
 20
-10.9727
 11
11.1797
 21
-10.7178
  0
LINE
  8
0
 10
11.1797
 20
-10.7178
 11
11.0889
 21
-10.4844
  0
LINE
  8
0
 10
11.0889
 20
-10.4844
 11
10.998
 21
-10.2734
  0
LINE
  8
0
 10
10.998
 20
-10.2734
 11
10.9941
 21
-10.2705
  0
LINE
  8
0
 10
10.9941
 20
-10.2705
 11
11.0635
 21
-10.1963
  0
LINE
  8
0
 10
11.0635
 20
-10.1963
 11
11.0664
 21
-10.1992
  0
LINE
  8
0
 10
11.0664
 20
-10.1992
 11
11.2842
 21
-10.2744
  0
LINE
  8
0
 10
11.2842
 20
-10.2744
 11
11.5225
 21
-10.3467
  0
LINE
  8
0
 10
11.5225
 20
-10.3467
 11
11.7842
 21
-10.415
  0
LINE
  8
0
 10
11.7842
 20
-10.415
 11
12.0674
 21
-10.4785
  0
LINE
  8
0
 10
12.0674
 20
-10.4785
 11
12.373
 21
-10.5342
  0
LINE
  8
0
 10
12.373
 20
-10.5342
 11
12.5225
 21
-10.3555
  0
LINE
  8
0
 10
12.5225
 20
-10.3555
 11
12.415
 21
-10.0645
  0
LINE
  8
0
 10
12.415
 20
-10.0645
 11
12.3037
 21
-9.79688
  0
LINE
  8
0
 10
12.3037
 20
-9.79688
 11
12.1904
 21
-9.55078
  0
LINE
  8
0
 10
12.1904
 20
-9.55078
 11
12.0781
 21
-9.32812
  0
LINE
  8
0
 10
12.0781
 20
-9.32812
 11
11.9658
 21
-9.12793
  0
LINE
  8
0
 10
11.9658
 20
-9.12793
 11
11.9629
 21
-9.125
  0
LINE
  8
0
 10
11.9629
 20
-9.125
 11
12.0234
 21
-9.04395
  0
LINE
  8
0
 10
12.0234
 20
-9.04395
 11
12.0273
 21
-9.04688
  0
LINE
  8
0
 10
12.0273
 20
-9.04688
 11
12.251
 21
-9.09961
  0
LINE
  8
0
 10
12.251
 20
-9.09961
 11
12.4961
 21
-9.14844
  0
LINE
  8
0
 10
12.4961
 20
-9.14844
 11
12.7627
 21
-9.19043
  0
LINE
  8
0
 10
12.7627
 20
-9.19043
 11
13.0508
 21
-9.22461
  0
LINE
  8
0
 10
13.0508
 20
-9.22461
 11
13.3604
 21
-9.25
  0
LINE
  8
0
 10
13.3604
 20
-9.25
 11
13.4912
 21
-9.05762
  0
LINE
  8
0
 10
13.4912
 20
-9.05762
 11
13.3555
 21
-8.77832
  0
LINE
  8
0
 10
13.3555
 20
-8.77832
 11
13.2178
 21
-8.52246
  0
LINE
  8
0
 10
13.2178
 20
-8.52246
 11
13.0811
 21
-8.29004
  0
LINE
  8
0
 10
13.0811
 20
-8.29004
 11
12.9463
 21
-8.0791
  0
LINE
  8
0
 10
12.9463
 20
-8.0791
 11
12.8154
 21
-7.89062
  0
LINE
  8
0
 10
12.8154
 20
-7.89062
 11
12.8115
 21
-7.88867
  0
LINE
  8
0
 10
12.8115
 20
-7.88867
 11
12.8643
 21
-7.80176
  0
LINE
  8
0
 10
12.8643
 20
-7.80176
 11
12.8682
 21
-7.80469
  0
LINE
  8
0
 10
12.8682
 20
-7.80469
 11
13.0957
 21
-7.83496
  0
LINE
  8
0
 10
13.0957
 20
-7.83496
 11
13.3447
 21
-7.8584
  0
LINE
  8
0
 10
13.3447
 20
-7.8584
 11
13.6143
 21
-7.87402
  0
LINE
  8
0
 10
13.6143
 20
-7.87402
 11
13.9043
 21
-7.87988
  0
LINE
  8
0
 10
13.9043
 20
-7.87988
 11
14.2148
 21
-7.87402
  0
LINE
  8
0
 10
14.2148
 20
-7.87402
 11
14.3262
 21
-7.66895
  0
LINE
  8
0
 10
14.3262
 20
-7.66895
 11
14.1631
 21
-7.40527
  0
LINE
  8
0
 10
14.1631
 20
-7.40527
 11
14.001
 21
-7.16406
  0
LINE
  8
0
 10
14.001
 20
-7.16406
 11
13.8418
 21
-6.94629
  0
LINE
  8
0
 10
13.8418
 20
-6.94629
 11
13.6865
 21
-6.75
  0
LINE
  8
0
 10
13.6865
 20
-6.75
 11
13.5371
 21
-6.5752
  0
LINE
  8
0
 10
13.5371
 20
-6.5752
 11
13.5332
 21
-6.57324
  0
LINE
  8
0
 10
13.5332
 20
-6.57324
 11
13.5771
 21
-6.48242
  0
LINE
  8
0
 10
13.5771
 20
-6.48242
 11
13.5811
 21
-6.48438
  0
LINE
  8
0
 10
13.5811
 20
-6.48438
 11
13.8105
 21
-6.49219
  0
LINE
  8
0
 10
13.8105
 20
-6.49219
 11
14.0605
 21
-6.49121
  0
LINE
  8
0
 10
14.0605
 20
-6.49121
 11
14.3311
 21
-6.47949
  0
LINE
  8
0
 10
14.3311
 20
-6.47949
 11
14.6201
 21
-6.45605
  0
LINE
  8
0
 10
14.6201
 20
-6.45605
 11
14.9287
 21
-6.41895
  0
LINE
  8
0
 10
14.9287
 20
-6.41895
 11
15.0186
 21
-6.20508
  0
LINE
  8
0
 10
15.0186
 20
-6.20508
 11
14.8301
 21
-5.95801
  0
LINE
  8
0
 10
14.8301
 20
-5.95801
 11
14.6445
 21
-5.73438
  0
LINE
  8
0
 10
14.6445
 20
-5.73438
 11
14.4648
 21
-5.5332
  0
LINE
  8
0
 10
14.4648
 20
-5.5332
 11
14.291
 21
-5.35352
  0
LINE
  8
0
 10
14.291
 20
-5.35352
 11
14.125
 21
-5.19531
  0
LINE
  8
0
 10
14.125
 20
-5.19531
 11
14.1201
 21
-5.19336
  0
LINE
  8
0
 10
14.1201
 20
-5.19336
 11
14.1553
 21
-5.09766
  0
LINE
  8
0
 10
14.1553
 20
-5.09766
 11
14.1592
 21
-5.09961
  0
LINE
  8
0
 10
14.1592
 20
-5.09961
 11
14.3887
 21
-5.08496
  0
LINE
  8
0
 10
14.3887
 20
-5.08496
 11
14.6367
 21
-5.05859
  0
LINE
  8
0
 10
14.6367
 20
-5.05859
 11
14.9043
 21
-5.02051
  0
LINE
  8
0
 10
14.9043
 20
-5.02051
 11
15.1904
 21
-4.96777
  0
LINE
  8
0
 10
15.1904
 20
-4.96777
 11
15.4932
 21
-4.90137
  0
LINE
  8
0
 10
15.4932
 20
-4.90137
 11
15.5615
 21
-4.67871
  0
LINE
  8
0
 10
15.5615
 20
-4.67871
 11
15.3496
 21
-4.45215
  0
LINE
  8
0
 10
15.3496
 20
-4.45215
 11
15.1426
 21
-4.24805
  0
LINE
  8
0
 10
15.1426
 20
-4.24805
 11
14.9434
 21
-4.06543
  0
LINE
  8
0
 10
14.9434
 20
-4.06543
 11
14.7529
 21
-3.9043
  0
LINE
  8
0
 10
14.7529
 20
-3.9043
 11
14.5723
 21
-3.7627
  0
LINE
  8
0
 10
14.5723
 20
-3.7627
 11
14.5674
 21
-3.76172
  0
LINE
  8
0
 10
14.5674
 20
-3.76172
 11
14.5928
 21
-3.66309
  0
LINE
  8
0
 10
14.5928
 20
-3.66309
 11
14.5967
 21
-3.66406
  0
LINE
  8
0
 10
14.5967
 20
-3.66406
 11
14.8232
 21
-3.62695
  0
LINE
  8
0
 10
14.8232
 20
-3.62695
 11
15.0684
 21
-3.57617
  0
LINE
  8
0
 10
15.0684
 20
-3.57617
 11
15.3301
 21
-3.51172
  0
LINE
  8
0
 10
15.3301
 20
-3.51172
 11
15.6094
 21
-3.43066
  0
LINE
  8
0
 10
15.6094
 20
-3.43066
 11
15.9043
 21
-3.33398
  0
LINE
  8
0
 10
15.9043
 20
-3.33398
 11
15.9502
 21
-3.10547
  0
LINE
  8
0
 10
15.9502
 20
-3.10547
 11
15.7168
 21
-2.90137
  0
LINE
  8
0
 10
15.7168
 20
-2.90137
 11
15.4902
 21
-2.71875
  0
LINE
  8
0
 10
15.4902
 20
-2.71875
 11
15.2744
 21
-2.55762
  0
LINE
  8
0
 10
15.2744
 20
-2.55762
 11
15.0684
 21
-2.41602
  0
LINE
  8
0
 10
15.0684
 20
-2.41602
 11
14.874
 21
-2.29297
  0
LINE
  8
0
 10
14.874
 20
-2.29297
 11
14.8701
 21
-2.29297
  0
LINE
  8
0
 10
14.8701
 20
-2.29297
 11
14.8848
 21
-2.19238
  0
LINE
  8
0
 10
14.8848
 20
-2.19238
 11
14.8896
 21
-2.19336
  0
LINE
  8
0
 10
14.8896
 20
-2.19336
 11
15.1113
 21
-2.13281
  0
LINE
  8
0
 10
15.1113
 20
-2.13281
 11
15.3496
 21
-2.05762
  0
LINE
  8
0
 10
15.3496
 20
-2.05762
 11
15.6035
 21
-1.96777
  0
LINE
  8
0
 10
15.6035
 20
-1.96777
 11
15.873
 21
-1.85938
  0
LINE
  8
0
 10
15.873
 20
-1.85938
 11
16.1572
 21
-1.7334
  0
LINE
  8
0
 10
16.1572
 20
-1.7334
 11
16.1807
 21
-1.50195
  0
LINE
  8
0
 10
16.1807
 20
-1.50195
 11
15.9268
 21
-1.32227
  0
LINE
  8
0
 10
15.9268
 20
-1.32227
 11
15.6846
 21
-1.16309
  0
LINE
  8
0
 10
15.6846
 20
-1.16309
 11
15.4531
 21
-1.02441
  0
LINE
  8
0
 10
15.4531
 20
-1.02441
 11
15.2344
 21
-0.90332
  0
LINE
  8
0
 10
15.2344
 20
-0.90332
 11
15.0283
 21
-0.800781
  0
LINE
  8
0
 10
15.0283
 20
-0.800781
 11
15.0244
 21
-0.800781
  0
LINE
  8
0
 10
15.0244
 20
-0.800781
 11
15.0293
 21
-0.699219
  0
LINE
  8
0
 10
15.0293
 20
-0.699219
 11
15.0342
 21
-0.699219
  0
LINE
  8
0
 10
15.0342
 20
-0.699219
 11
15.248
 21
-0.617188
  0
LINE
  8
0
 10
15.248
 20
-0.617188
 11
15.4775
 21
-0.519531
  0
LINE
  8
0
 10
15.4775
 20
-0.519531
 11
15.7227
 21
-0.404297
  0
LINE
  8
0
 10
15.7227
 20
-0.404297
 11
15.9795
 21
-0.270508
  0
LINE
  8
0
 10
15.9795
 20
-0.270508
 11
16.25
 21
-0.116211
  0
LINE
  8
0
 10
16.25
 20
-0.116211
 11
16.25
 21
0.116211
  0
LINE
  8
0
 10
16.25
 20
0.116211
 11
15.9795
 21
0.270508
  0
LINE
  8
0
 10
15.9795
 20
0.270508
 11
15.7227
 21
0.404297
  0
LINE
  8
0
 10
15.7227
 20
0.404297
 11
15.4775
 21
0.519531
  0
LINE
  8
0
 10
15.4775
 20
0.519531
 11
15.248
 21
0.617188
  0
LINE
  8
0
 10
15.248
 20
0.617188
 11
15.0342
 21
0.699219
  0
LINE
  8
0
 10
15.0342
 20
0.699219
 11
15.0293
 21
0.699219
  0
LINE
  8
0
 10
15.0293
 20
0.699219
 11
15.0244
 21
0.800781
  0
LINE
  8
0
 10
15.0244
 20
0.800781
 11
15.0283
 21
0.800781
  0
LINE
  8
0
 10
15.0283
 20
0.800781
 11
15.2344
 21
0.90332
  0
LINE
  8
0
 10
15.2344
 20
0.90332
 11
15.4531
 21
1.02441
  0
LINE
  8
0
 10
15.4531
 20
1.02441
 11
15.6846
 21
1.16309
  0
LINE
  8
0
 10
15.6846
 20
1.16309
 11
15.9268
 21
1.32227
  0
LINE
  8
0
 10
15.9268
 20
1.32227
 11
16.1807
 21
1.50195
  0
LINE
  8
0
 10
16.1807
 20
1.50195
 11
16.1572
 21
1.7334
  0
LINE
  8
0
 10
16.1572
 20
1.7334
 11
15.873
 21
1.85938
  0
LINE
  8
0
 10
15.873
 20
1.85938
 11
15.6035
 21
1.96777
  0
LINE
  8
0
 10
15.6035
 20
1.96777
 11
15.3496
 21
2.05762
  0
LINE
  8
0
 10
15.3496
 20
2.05762
 11
15.1113
 21
2.13281
  0
LINE
  8
0
 10
15.1113
 20
2.13281
 11
14.8896
 21
2.19336
  0
LINE
  8
0
 10
14.8896
 20
2.19336
 11
14.8848
 21
2.19238
  0
LINE
  8
0
 10
14.8848
 20
2.19238
 11
14.8701
 21
2.29297
  0
LINE
  8
0
 10
14.8701
 20
2.29297
 11
14.874
 21
2.29297
  0
LINE
  8
0
 10
14.874
 20
2.29297
 11
15.0684
 21
2.41602
  0
LINE
  8
0
 10
15.0684
 20
2.41602
 11
15.2744
 21
2.55762
  0
LINE
  8
0
 10
15.2744
 20
2.55762
 11
15.4902
 21
2.71875
  0
LINE
  8
0
 10
15.4902
 20
2.71875
 11
15.7168
 21
2.90137
  0
LINE
  8
0
 10
15.7168
 20
2.90137
 11
15.9502
 21
3.10547
  0
LINE
  8
0
 10
15.9502
 20
3.10547
 11
15.9043
 21
3.33398
  0
LINE
  8
0
 10
15.9043
 20
3.33398
 11
15.6094
 21
3.43066
  0
LINE
  8
0
 10
15.6094
 20
3.43066
 11
15.3301
 21
3.51172
  0
LINE
  8
0
 10
15.3301
 20
3.51172
 11
15.0684
 21
3.57617
  0
LINE
  8
0
 10
15.0684
 20
3.57617
 11
14.8232
 21
3.62695
  0
LINE
  8
0
 10
14.8232
 20
3.62695
 11
14.5967
 21
3.66406
  0
LINE
  8
0
 10
14.5967
 20
3.66406
 11
14.5928
 21
3.66309
  0
LINE
  8
0
 10
14.5928
 20
3.66309
 11
14.5674
 21
3.76172
  0
LINE
  8
0
 10
14.5674
 20
3.76172
 11
14.5723
 21
3.7627
  0
LINE
  8
0
 10
14.5723
 20
3.7627
 11
14.7529
 21
3.9043
  0
LINE
  8
0
 10
14.7529
 20
3.9043
 11
14.9434
 21
4.06543
  0
LINE
  8
0
 10
14.9434
 20
4.06543
 11
15.1426
 21
4.24805
  0
LINE
  8
0
 10
15.1426
 20
4.24805
 11
15.3496
 21
4.45215
  0
LINE
  8
0
 10
15.3496
 20
4.45215
 11
15.5615
 21
4.67871
  0
LINE
  8
0
 10
15.5615
 20
4.67871
 11
15.4932
 21
4.90137
  0
LINE
  8
0
 10
15.4932
 20
4.90137
 11
15.1904
 21
4.96777
  0
LINE
  8
0
 10
15.1904
 20
4.96777
 11
14.9043
 21
5.02051
  0
LINE
  8
0
 10
14.9043
 20
5.02051
 11
14.6367
 21
5.05859
  0
LINE
  8
0
 10
14.6367
 20
5.05859
 11
14.3887
 21
5.08496
  0
LINE
  8
0
 10
14.3887
 20
5.08496
 11
14.1592
 21
5.09961
  0
LINE
  8
0
 10
14.1592
 20
5.09961
 11
14.1553
 21
5.09766
  0
LINE
  8
0
 10
14.1553
 20
5.09766
 11
14.1201
 21
5.19336
  0
LINE
  8
0
 10
14.1201
 20
5.19336
 11
14.125
 21
5.19531
  0
LINE
  8
0
 10
14.125
 20
5.19531
 11
14.291
 21
5.35352
  0
LINE
  8
0
 10
14.291
 20
5.35352
 11
14.4648
 21
5.5332
  0
LINE
  8
0
 10
14.4648
 20
5.5332
 11
14.6445
 21
5.73438
  0
LINE
  8
0
 10
14.6445
 20
5.73438
 11
14.8301
 21
5.95801
  0
LINE
  8
0
 10
14.8301
 20
5.95801
 11
15.0186
 21
6.20508
  0
LINE
  8
0
 10
15.0186
 20
6.20508
 11
14.9287
 21
6.41895
  0
LINE
  8
0
 10
14.9287
 20
6.41895
 11
14.6201
 21
6.45605
  0
LINE
  8
0
 10
14.6201
 20
6.45605
 11
14.3311
 21
6.47949
  0
LINE
  8
0
 10
14.3311
 20
6.47949
 11
14.0605
 21
6.49121
  0
LINE
  8
0
 10
14.0605
 20
6.49121
 11
13.8105
 21
6.49219
  0
LINE
  8
0
 10
13.8105
 20
6.49219
 11
13.5811
 21
6.48438
  0
LINE
  8
0
 10
13.5811
 20
6.48438
 11
13.5771
 21
6.48242
  0
LINE
  8
0
 10
13.5771
 20
6.48242
 11
13.5332
 21
6.57324
  0
LINE
  8
0
 10
13.5332
 20
6.57324
 11
13.5371
 21
6.5752
  0
LINE
  8
0
 10
13.5371
 20
6.5752
 11
13.6865
 21
6.75
  0
LINE
  8
0
 10
13.6865
 20
6.75
 11
13.8418
 21
6.94629
  0
LINE
  8
0
 10
13.8418
 20
6.94629
 11
14.001
 21
7.16406
  0
LINE
  8
0
 10
14.001
 20
7.16406
 11
14.1631
 21
7.40527
  0
LINE
  8
0
 10
14.1631
 20
7.40527
 11
14.3262
 21
7.66895
  0
LINE
  8
0
 10
14.3262
 20
7.66895
 11
14.2148
 21
7.87402
  0
LINE
  8
0
 10
14.2148
 20
7.87402
 11
13.9043
 21
7.87988
  0
LINE
  8
0
 10
13.9043
 20
7.87988
 11
13.6143
 21
7.87402
  0
LINE
  8
0
 10
13.6143
 20
7.87402
 11
13.3447
 21
7.8584
  0
LINE
  8
0
 10
13.3447
 20
7.8584
 11
13.0957
 21
7.83496
  0
LINE
  8
0
 10
13.0957
 20
7.83496
 11
12.8682
 21
7.80469
  0
LINE
  8
0
 10
12.8682
 20
7.80469
 11
12.8643
 21
7.80176
  0
LINE
  8
0
 10
12.8643
 20
7.80176
 11
12.8115
 21
7.88867
  0
LINE
  8
0
 10
12.8115
 20
7.88867
 11
12.8154
 21
7.89062
  0
LINE
  8
0
 10
12.8154
 20
7.89062
 11
12.9463
 21
8.0791
  0
LINE
  8
0
 10
12.9463
 20
8.0791
 11
13.0811
 21
8.29004
  0
LINE
  8
0
 10
13.0811
 20
8.29004
 11
13.2178
 21
8.52246
  0
LINE
  8
0
 10
13.2178
 20
8.52246
 11
13.3555
 21
8.77832
  0
LINE
  8
0
 10
13.3555
 20
8.77832
 11
13.4912
 21
9.05762
  0
LINE
  8
0
 10
13.4912
 20
9.05762
 11
13.3604
 21
9.25
  0
LINE
  8
0
 10
13.3604
 20
9.25
 11
13.0508
 21
9.22461
  0
LINE
  8
0
 10
13.0508
 20
9.22461
 11
12.7627
 21
9.19043
  0
LINE
  8
0
 10
12.7627
 20
9.19043
 11
12.4961
 21
9.14844
  0
LINE
  8
0
 10
12.4961
 20
9.14844
 11
12.251
 21
9.09961
  0
LINE
  8
0
 10
12.251
 20
9.09961
 11
12.0273
 21
9.04688
  0
LINE
  8
0
 10
12.0273
 20
9.04688
 11
12.0234
 21
9.04395
  0
LINE
  8
0
 10
12.0234
 20
9.04395
 11
11.9629
 21
9.125
  0
LINE
  8
0
 10
11.9629
 20
9.125
 11
11.9658
 21
9.12793
  0
LINE
  8
0
 10
11.9658
 20
9.12793
 11
12.0781
 21
9.32812
  0
LINE
  8
0
 10
12.0781
 20
9.32812
 11
12.1904
 21
9.55078
  0
LINE
  8
0
 10
12.1904
 20
9.55078
 11
12.3037
 21
9.79688
  0
LINE
  8
0
 10
12.3037
 20
9.79688
 11
12.415
 21
10.0645
  0
LINE
  8
0
 10
12.415
 20
10.0645
 11
12.5225
 21
10.3555
  0
LINE
  8
0
 10
12.5225
 20
10.3555
 11
12.373
 21
10.5342
  0
LINE
  8
0
 10
12.373
 20
10.5342
 11
12.0674
 21
10.4785
  0
LINE
  8
0
 10
12.0674
 20
10.4785
 11
11.7842
 21
10.415
  0
LINE
  8
0
 10
11.7842
 20
10.415
 11
11.5225
 21
10.3467
  0
LINE
  8
0
 10
11.5225
 20
10.3467
 11
11.2842
 21
10.2744
  0
LINE
  8
0
 10
11.2842
 20
10.2744
 11
11.125
 21
10.2194
  0
LINE
  8
0
 10
11.125
 20
10.2194
 11
11.125
 21
-7.29999
  0
LINE
  8
0
 10
11.125
 20
-7.29999
 11
11.0485
 21
-8.02768
  0
LINE
  8
0
 10
11.0485
 20
-8.02768
 11
10.8224
 21
-8.72357
  0
LINE
  8
0
 10
10.8224
 20
-8.72357
 11
10.4566
 21
-9.35724
  0
LINE
  8
0
 10
10.4566
 20
-9.35724
 11
9.96695
 21
-9.901
  0
LINE
  8
0
 10
9.96695
 20
-9.901
 11
9.375
 21
-10.3311
  0
LINE
  8
0
 10
9.375
 20
-10.3311
 11
8.70656
 21
-10.6287
  0
LINE
  8
0
 10
8.70656
 20
-10.6287
 11
7.99084
 21
-10.7808
  0
LINE
  8
0
 10
7.99084
 20
-10.7808
 11
-7.99084
 21
-10.7808
  0
LINE
  8
0
 10
-7.99084
 20
-10.7808
 11
-8.70656
 21
-10.6287
  0
LINE
  8
0
 10
-8.70656
 20
-10.6287
 11
-9.375
 21
-10.3311
  0
LINE
  8
0
 10
-9.375
 20
-10.3311
 11
-9.96695
 21
-9.901
  0
LINE
  8
0
 10
-9.96695
 20
-9.901
 11
-10.4566
 21
-9.35724
  0
LINE
  8
0
 10
-10.4566
 20
-9.35724
 11
-10.8224
 21
-8.72357
  0
LINE
  8
0
 10
-10.8224
 20
-8.72357
 11
-11.0485
 21
-8.02768
  0
LINE
  8
0
 10
-11.0485
 20
-8.02768
 11
-11.125
 21
-7.29999
  0
LINE
  8
0
 10
-11.125
 20
-7.29999
 11
-11.125
 21
10.9503
  0
LINE
  8
0
 10
-11.125
 20
10.9503
 11
-11.25
 21
10.9902
  0
LINE
  8
0
 10
-11.25
 20
10.9902
 11
-11.5303
 21
11.0674
  0
LINE
  8
0
 10
-11.5303
 20
11.0674
 11
-11.833
 21
11.1377
  0
LINE
  8
0
 10
-11.833
 20
11.1377
 11
-11.9912
 21
10.9668
  0
LINE
  8
0
 10
-11.9912
 20
10.9668
 11
-11.8975
 21
10.6709
  0
LINE
  8
0
 10
-11.8975
 20
10.6709
 11
-11.7998
 21
10.3975
  0
LINE
  8
0
 10
-11.7998
 20
10.3975
 11
-11.6992
 21
10.1465
  0
LINE
  8
0
 10
-11.6992
 20
10.1465
 11
-11.5977
 21
9.91895
  0
LINE
  8
0
 10
-11.5977
 20
9.91895
 11
-11.4961
 21
9.71289
  0
LINE
  8
0
 10
-11.4961
 20
9.71289
 11
-11.4932
 21
9.70996
  0
LINE
  8
0
 10
-11.4932
 20
9.70996
 11
-11.5576
 21
9.63184
  0
LINE
  8
0
 10
-11.5576
 20
9.63184
 11
-11.5615
 21
9.63477
  0
LINE
  8
0
 10
-11.5615
 20
9.63477
 11
-11.7822
 21
9.69922
  0
LINE
  8
0
 10
-11.7822
 20
9.69922
 11
-12.0244
 21
9.75977
  0
LINE
  8
0
 10
-12.0244
 20
9.75977
 11
-12.2891
 21
9.81543
  0
LINE
  8
0
 10
-12.2891
 20
9.81543
 11
-12.5752
 21
9.86426
  0
LINE
  8
0
 10
-12.5752
 20
9.86426
 11
-12.8828
 21
9.9043
  0
LINE
  8
0
 10
-12.8828
 20
9.9043
 11
-13.0234
 21
9.71875
  0
LINE
  8
0
 10
-13.0234
 20
9.71875
 11
-12.9014
 21
9.43359
  0
LINE
  8
0
 10
-12.9014
 20
9.43359
 11
-12.7764
 21
9.1709
  0
LINE
  8
0
 10
-12.7764
 20
9.1709
 11
-12.6514
 21
8.93164
  0
LINE
  8
0
 10
-12.6514
 20
8.93164
 11
-12.5273
 21
8.71484
  0
LINE
  8
0
 10
-12.5273
 20
8.71484
 11
-12.4062
 21
8.51953
  0
LINE
  8
0
 10
-12.4062
 20
8.51953
 11
-12.4023
 21
8.51758
  0
LINE
  8
0
 10
-12.4023
 20
8.51758
 11
-12.46
 21
8.43359
  0
LINE
  8
0
 10
-12.46
 20
8.43359
 11
-12.4639
 21
8.43555
  0
LINE
  8
0
 10
-12.4639
 20
8.43555
 11
-12.6895
 21
8.47754
  0
LINE
  8
0
 10
-12.6895
 20
8.47754
 11
-12.9365
 21
8.51367
  0
LINE
  8
0
 10
-12.9365
 20
8.51367
 11
-13.2051
 21
8.54297
  0
LINE
  8
0
 10
-13.2051
 20
8.54297
 11
-13.4941
 21
8.5625
  0
LINE
  8
0
 10
-13.4941
 20
8.5625
 11
-13.8047
 21
8.57227
  0
LINE
  8
0
 10
-13.8047
 20
8.57227
 11
-13.9268
 21
8.37402
  0
LINE
  8
0
 10
-13.9268
 20
8.37402
 11
-13.7764
 21
8.10156
  0
LINE
  8
0
 10
-13.7764
 20
8.10156
 11
-13.626
 21
7.85352
  0
LINE
  8
0
 10
-13.626
 20
7.85352
 11
-13.4785
 21
7.62793
  0
LINE
  8
0
 10
-13.4785
 20
7.62793
 11
-13.333
 21
7.42383
  0
LINE
  8
0
 10
-13.333
 20
7.42383
 11
-13.1934
 21
7.24219
  0
LINE
  8
0
 10
-13.1934
 20
7.24219
 11
-13.1885
 21
7.24023
  0
LINE
  8
0
 10
-13.1885
 20
7.24023
 11
-13.2373
 21
7.15137
  0
LINE
  8
0
 10
-13.2373
 20
7.15137
 11
-13.2412
 21
7.15332
  0
LINE
  8
0
 10
-13.2412
 20
7.15332
 11
-13.4697
 21
7.17188
  0
LINE
  8
0
 10
-13.4697
 20
7.17188
 11
-13.7197
 21
7.18359
  0
LINE
  8
0
 10
-13.7197
 20
7.18359
 11
-13.9902
 21
7.18555
  0
LINE
  8
0
 10
-13.9902
 20
7.18555
 11
-14.2803
 21
7.17676
  0
LINE
  8
0
 10
-14.2803
 20
7.17676
 11
-14.5898
 21
7.15527
  0
LINE
  8
0
 10
-14.5898
 20
7.15527
 11
-14.6904
 21
6.94531
  0
LINE
  8
0
 10
-14.6904
 20
6.94531
 11
-14.5146
 21
6.69043
  0
LINE
  8
0
 10
-14.5146
 20
6.69043
 11
-14.3408
 21
6.45801
  0
LINE
  8
0
 10
-14.3408
 20
6.45801
 11
-14.1709
 21
6.24805
  0
LINE
  8
0
 10
-14.1709
 20
6.24805
 11
-14.0059
 21
6.05957
  0
LINE
  8
0
 10
-14.0059
 20
6.05957
 11
-13.8486
 21
5.89258
  0
LINE
  8
0
 10
-13.8486
 20
5.89258
 11
-13.8438
 21
5.89062
  0
LINE
  8
0
 10
-13.8438
 20
5.89062
 11
-13.8838
 21
5.79785
  0
LINE
  8
0
 10
-13.8838
 20
5.79785
 11
-13.8877
 21
5.79883
  0
LINE
  8
0
 10
-13.8877
 20
5.79883
 11
-14.1172
 21
5.7959
  0
LINE
  8
0
 10
-14.1172
 20
5.7959
 11
-14.3672
 21
5.78223
  0
LINE
  8
0
 10
-14.3672
 20
5.78223
 11
-14.6357
 21
5.75684
  0
LINE
  8
0
 10
-14.6357
 20
5.75684
 11
-14.9238
 21
5.71875
  0
LINE
  8
0
 10
-14.9238
 20
5.71875
 11
-15.2295
 21
5.66699
  0
LINE
  8
0
 10
-15.2295
 20
5.66699
 11
-15.3096
 21
5.44824
  0
LINE
  8
0
 10
-15.3096
 20
5.44824
 11
-15.1084
 21
5.21191
  0
LINE
  8
0
 10
-15.1084
 20
5.21191
 11
-14.9121
 21
4.99805
  0
LINE
  8
0
 10
-14.9121
 20
4.99805
 11
-14.7227
 21
4.80566
  0
LINE
  8
0
 10
-14.7227
 20
4.80566
 11
-14.54
 21
4.63477
  0
LINE
  8
0
 10
-14.54
 20
4.63477
 11
-14.3662
 21
4.48438
  0
LINE
  8
0
 10
-14.3662
 20
4.48438
 11
-14.3623
 21
4.4834
  0
LINE
  8
0
 10
-14.3623
 20
4.4834
 11
-14.3916
 21
4.38574
  0
LINE
  8
0
 10
-14.3916
 20
4.38574
 11
-14.3965
 21
4.3877
  0
LINE
  8
0
 10
-14.3965
 20
4.3877
 11
-14.624
 21
4.36133
  0
LINE
  8
0
 10
-14.624
 20
4.36133
 11
-14.8711
 21
4.32227
  0
LINE
  8
0
 10
-14.8711
 20
4.32227
 11
-15.1367
 21
4.27148
  0
LINE
  8
0
 10
-15.1367
 20
4.27148
 11
-15.4189
 21
4.20508
  0
LINE
  8
0
 10
-15.4189
 20
4.20508
 11
-15.7188
 21
4.12207
  0
LINE
  8
0
 10
-15.7188
 20
4.12207
 11
-15.7754
 21
3.89648
  0
LINE
  8
0
 10
-15.7754
 20
3.89648
 11
-15.5518
 21
3.68164
  0
LINE
  8
0
 10
-15.5518
 20
3.68164
 11
-15.3359
 21
3.48828
  0
LINE
  8
0
 10
-15.3359
 20
3.48828
 11
-15.1279
 21
3.31543
  0
LINE
  8
0
 10
-15.1279
 20
3.31543
 11
-14.9287
 21
3.16406
  0
LINE
  8
0
 10
-14.9287
 20
3.16406
 11
-14.7412
 21
3.03223
  0
LINE
  8
0
 10
-14.7412
 20
3.03223
 11
-14.7373
 21
3.03125
  0
LINE
  8
0
 10
-14.7373
 20
3.03125
 11
-14.7568
 21
2.93164
  0
LINE
  8
0
 10
-14.7568
 20
2.93164
 11
-14.7617
 21
2.93262
  0
LINE
  8
0
 10
-14.7617
 20
2.93262
 11
-14.9854
 21
2.88281
  0
LINE
  8
0
 10
-14.9854
 20
2.88281
 11
-15.2275
 21
2.82031
  0
LINE
  8
0
 10
-15.2275
 20
2.82031
 11
-15.4863
 21
2.74316
  0
LINE
  8
0
 10
-15.4863
 20
2.74316
 11
-15.7607
 21
2.64844
  0
LINE
  8
0
 10
-15.7607
 20
2.64844
 11
-16.0508
 21
2.53711
  0
LINE
  8
0
 10
-16.0508
 20
2.53711
 11
-16.085
 21
2.30664
  0
LINE
  8
0
 10
-16.085
 20
2.30664
 11
-15.8418
 21
2.11426
  0
LINE
  8
0
 10
-15.8418
 20
2.11426
 11
-15.6064
 21
1.94336
  0
LINE
  8
0
 10
-15.6064
 20
1.94336
 11
-15.3828
 21
1.79297
  0
LINE
  8
0
 10
-15.3828
 20
1.79297
 11
-15.1699
 21
1.66211
  0
LINE
  8
0
 10
-15.1699
 20
1.66211
 11
-14.9697
 21
1.54883
  0
LINE
  8
0
 10
-14.9697
 20
1.54883
 11
-14.9658
 21
1.54883
  0
LINE
  8
0
 10
-14.9658
 20
1.54883
 11
-14.9756
 21
1.44727
  0
LINE
  8
0
 10
-14.9756
 20
1.44727
 11
-14.9805
 21
1.44824
  0
LINE
  8
0
 10
-14.9805
 20
1.44824
 11
-15.1982
 21
1.37695
  0
LINE
  8
0
 10
-15.1982
 20
1.37695
 11
-15.4326
 21
1.29004
  0
LINE
  8
0
 10
-15.4326
 20
1.29004
 11
-15.6826
 21
1.1875
  0
LINE
  8
0
 10
-15.6826
 20
1.1875
 11
-15.9463
 21
1.06641
  0
LINE
  8
0
 10
-15.9463
 20
1.06641
 11
-16.2236
 21
0.925781
  0
LINE
  8
0
 10
-16.2236
 20
0.925781
 11
-16.2354
 21
0.693359
  0
LINE
  8
0
 10
-16.2354
 20
0.693359
 11
-15.9736
 21
0.526367
  0
LINE
  8
0
 10
-15.9736
 20
0.526367
 11
-15.7227
 21
0.379883
  0
LINE
  8
0
 10
-15.7227
 20
0.379883
 11
-15.4844
 21
0.25293
  0
LINE
  8
0
 10
-15.4844
 20
0.25293
 11
-15.2598
 21
0.143555
  0
LINE
  8
0
 10
-15.2598
 20
0.143555
 11
-15.0498
 21
0.0507812
  0
LINE
  8
0
 10
-15.0498
 20
0.0507812
 11
-15.0449
 21
0.0507812
  0
LINE
  8
0
 10
-15.0449
 20
0.0507812
 11
-15.0449
 21
-0.0507812
  0
LINE
  8
0
 10
-15.0449
 20
-0.0507812
 11
-15.0498
 21
-0.0507812
  0
LINE
  8
0
 10
-15.0498
 20
-0.0507812
 11
-15.2598
 21
-0.143555
  0
LINE
  8
0
 10
-15.2598
 20
-0.143555
 11
-15.4844
 21
-0.25293
  0
LINE
  8
0
 10
-15.4844
 20
-0.25293
 11
-15.7227
 21
-0.379883
  0
LINE
  8
0
 10
-15.7227
 20
-0.379883
 11
-15.9736
 21
-0.526367
  0
LINE
  8
0
 10
-15.9736
 20
-0.526367
 11
-16.2354
 21
-0.693359
  0
LINE
  8
0
 10
-16.2354
 20
-0.693359
 11
-16.2236
 21
-0.925781
  0
LINE
  8
0
 10
-16.2236
 20
-0.925781
 11
-15.9463
 21
-1.06641
  0
LINE
  8
0
 10
-15.9463
 20
-1.06641
 11
-15.6826
 21
-1.1875
  0
LINE
  8
0
 10
-15.6826
 20
-1.1875
 11
-15.4326
 21
-1.29004
  0
LINE
  8
0
 10
-15.4326
 20
-1.29004
 11
-15.1982
 21
-1.37695
  0
LINE
  8
0
 10
-15.1982
 20
-1.37695
 11
-14.9805
 21
-1.44824
  0
LINE
  8
0
 10
-14.9805
 20
-1.44824
 11
-14.9756
 21
-1.44727
  0
LINE
  8
0
 10
-14.9756
 20
-1.44727
 11
-14.9658
 21
-1.54883
  0
LINE
  8
0
 10
-14.9658
 20
-1.54883
 11
-14.9697
 21
-1.54883
  0
LINE
  8
0
 10
-14.9697
 20
-1.54883
 11
-15.1699
 21
-1.66211
  0
LINE
  8
0
 10
-15.1699
 20
-1.66211
 11
-15.3828
 21
-1.79297
  0
LINE
  8
0
 10
-15.3828
 20
-1.79297
 11
-15.6064
 21
-1.94336
  0
LINE
  8
0
 10
-15.6064
 20
-1.94336
 11
-15.8418
 21
-2.11426
  0
LINE
  8
0
 10
-15.8418
 20
-2.11426
 11
-16.085
 21
-2.30664
  0
LINE
  8
0
 10
-16.085
 20
-2.30664
 11
-16.0508
 21
-2.53711
  0
LINE
  8
0
 10
-16.0508
 20
-2.53711
 11
-15.7607
 21
-2.64844
  0
LINE
  8
0
 10
-15.7607
 20
-2.64844
 11
-15.4863
 21
-2.74316
  0
LINE
  8
0
 10
-15.4863
 20
-2.74316
 11
-15.2275
 21
-2.82031
  0
LINE
  8
0
 10
-15.2275
 20
-2.82031
 11
-14.9854
 21
-2.88281
  0
LINE
  8
0
 10
-14.9854
 20
-2.88281
 11
-14.7617
 21
-2.93262
  0
LINE
  8
0
 10
-14.7617
 20
-2.93262
 11
-14.7568
 21
-2.93164
  0
LINE
  8
0
 10
-14.7568
 20
-2.93164
 11
-14.7373
 21
-3.03125
  0
LINE
  8
0
 10
-14.7373
 20
-3.03125
 11
-14.7412
 21
-3.03223
  0
LINE
  8
0
 10
-14.7412
 20
-3.03223
 11
-14.9287
 21
-3.16406
  0
LINE
  8
0
 10
-14.9287
 20
-3.16406
 11
-15.1279
 21
-3.31543
  0
LINE
  8
0
 10
-15.1279
 20
-3.31543
 11
-15.3359
 21
-3.48828
  0
LINE
  8
0
 10
-15.3359
 20
-3.48828
 11
-15.5518
 21
-3.68164
  0
LINE
  8
0
 10
-15.5518
 20
-3.68164
 11
-15.7754
 21
-3.89648
  0
LINE
  8
0
 10
-15.7754
 20
-3.89648
 11
-15.7188
 21
-4.12207
  0
LINE
  8
0
 10
-15.7188
 20
-4.12207
 11
-15.4189
 21
-4.20508
  0
LINE
  8
0
 10
-15.4189
 20
-4.20508
 11
-15.1367
 21
-4.27148
  0
LINE
  8
0
 10
-15.1367
 20
-4.27148
 11
-14.8711
 21
-4.32227
  0
LINE
  8
0
 10
-14.8711
 20
-4.32227
 11
-14.624
 21
-4.36133
  0
LINE
  8
0
 10
-14.624
 20
-4.36133
 11
-14.3965
 21
-4.3877
  0
LINE
  8
0
 10
-14.3965
 20
-4.3877
 11
-14.3916
 21
-4.38574
  0
LINE
  8
0
 10
-14.3916
 20
-4.38574
 11
-14.3623
 21
-4.4834
  0
LINE
  8
0
 10
-14.3623
 20
-4.4834
 11
-14.3662
 21
-4.48438
  0
LINE
  8
0
 10
-14.3662
 20
-4.48438
 11
-14.54
 21
-4.63477
  0
LINE
  8
0
 10
-14.54
 20
-4.63477
 11
-14.7227
 21
-4.80566
  0
LINE
  8
0
 10
-14.7227
 20
-4.80566
 11
-14.9121
 21
-4.99805
  0
LINE
  8
0
 10
-14.9121
 20
-4.99805
 11
-15.1084
 21
-5.21191
  0
LINE
  8
0
 10
-15.1084
 20
-5.21191
 11
-15.3096
 21
-5.44824
  0
LINE
  8
0
 10
-15.3096
 20
-5.44824
 11
-15.2295
 21
-5.66699
  0
LINE
  8
0
 10
-15.2295
 20
-5.66699
 11
-14.9238
 21
-5.71875
  0
LINE
  8
0
 10
-14.9238
 20
-5.71875
 11
-14.6357
 21
-5.75684
  0
LINE
  8
0
 10
-14.6357
 20
-5.75684
 11
-14.3672
 21
-5.78223
  0
LINE
  8
0
 10
-14.3672
 20
-5.78223
 11
-14.1172
 21
-5.7959
  0
LINE
  8
0
 10
-14.1172
 20
-5.7959
 11
-13.8877
 21
-5.79883
  0
LINE
  8
0
 10
-13.8877
 20
-5.79883
 11
-13.8838
 21
-5.79785
  0
LINE
  8
0
 10
-13.8838
 20
-5.79785
 11
-13.8438
 21
-5.89062
  0
LINE
  8
0
 10
-13.8438
 20
-5.89062
 11
-13.8486
 21
-5.89258
  0
LINE
  8
0
 10
-13.8486
 20
-5.89258
 11
-14.0059
 21
-6.05957
  0
LINE
  8
0
 10
-14.0059
 20
-6.05957
 11
-14.1709
 21
-6.24805
  0
LINE
  8
0
 10
-14.1709
 20
-6.24805
 11
-14.3408
 21
-6.45801
  0
LINE
  8
0
 10
-14.3408
 20
-6.45801
 11
-14.5146
 21
-6.69043
  0
LINE
  8
0
 10
-14.5146
 20
-6.69043
 11
-14.6904
 21
-6.94531
  0
LINE
  8
0
 10
-14.6904
 20
-6.94531
 11
-14.5898
 21
-7.15527
  0
LINE
  8
0
 10
-14.5898
 20
-7.15527
 11
-14.2803
 21
-7.17676
  0
LINE
  8
0
 10
-14.2803
 20
-7.17676
 11
-13.9902
 21
-7.18555
  0
LINE
  8
0
 10
-13.9902
 20
-7.18555
 11
-13.7197
 21
-7.18359
  0
LINE
  8
0
 10
-13.7197
 20
-7.18359
 11
-13.4697
 21
-7.17188
  0
LINE
  8
0
 10
-13.4697
 20
-7.17188
 11
-13.2412
 21
-7.15332
  0
LINE
  8
0
 10
-13.2412
 20
-7.15332
 11
-13.2373
 21
-7.15137
  0
LINE
  8
0
 10
-13.2373
 20
-7.15137
 11
-13.1885
 21
-7.24023
  0
LINE
  8
0
 10
-13.1885
 20
-7.24023
 11
-13.1934
 21
-7.24219
  0
LINE
  8
0
 10
-13.1934
 20
-7.24219
 11
-13.333
 21
-7.42383
  0
LINE
  8
0
 10
-13.333
 20
-7.42383
 11
-13.4785
 21
-7.62793
  0
LINE
  8
0
 10
-13.4785
 20
-7.62793
 11
-13.626
 21
-7.85352
  0
LINE
  8
0
 10
-13.626
 20
-7.85352
 11
-13.7764
 21
-8.10156
  0
LINE
  8
0
 10
-13.7764
 20
-8.10156
 11
-13.9268
 21
-8.37402
  0
LINE
  8
0
 10
-13.9268
 20
-8.37402
 11
-13.8047
 21
-8.57227
  0
LINE
  8
0
 10
-13.8047
 20
-8.57227
 11
-13.4941
 21
-8.5625
  0
LINE
  8
0
 10
-13.4941
 20
-8.5625
 11
-13.2051
 21
-8.54297
  0
LINE
  8
0
 10
-13.2051
 20
-8.54297
 11
-12.9365
 21
-8.51367
  0
LINE
  8
0
 10
-12.9365
 20
-8.51367
 11
-12.6895
 21
-8.47754
  0
LINE
  8
0
 10
-12.6895
 20
-8.47754
 11
-12.4639
 21
-8.43555
  0
LINE
  8
0
 10
-12.4639
 20
-8.43555
 11
-12.46
 21
-8.43359
  0
LINE
  8
0
 10
-12.46
 20
-8.43359
 11
-12.4023
 21
-8.51758
  0
LINE
  8
0
 10
-12.4023
 20
-8.51758
 11
-12.4062
 21
-8.51953
  0
LINE
  8
0
 10
-12.4062
 20
-8.51953
 11
-12.5273
 21
-8.71484
  0
LINE
  8
0
 10
-12.5273
 20
-8.71484
 11
-12.6514
 21
-8.93164
  0
LINE
  8
0
 10
-12.6514
 20
-8.93164
 11
-12.7764
 21
-9.1709
  0
LINE
  8
0
 10
-12.7764
 20
-9.1709
 11
-12.9014
 21
-9.43359
  0
LINE
  8
0
 10
-12.9014
 20
-9.43359
 11
-13.0234
 21
-9.71875
  0
LINE
  8
0
 10
-13.0234
 20
-9.71875
 11
-12.8828
 21
-9.9043
  0
LINE
  8
0
 10
-12.8828
 20
-9.9043
 11
-12.5752
 21
-9.86426
  0
LINE
  8
0
 10
-12.5752
 20
-9.86426
 11
-12.2891
 21
-9.81543
  0
LINE
  8
0
 10
-12.2891
 20
-9.81543
 11
-12.0244
 21
-9.75977
  0
LINE
  8
0
 10
-12.0244
 20
-9.75977
 11
-11.7822
 21
-9.69922
  0
LINE
  8
0
 10
-11.7822
 20
-9.69922
 11
-11.5615
 21
-9.63477
  0
LINE
  8
0
 10
-11.5615
 20
-9.63477
 11
-11.5576
 21
-9.63184
  0
LINE
  8
0
 10
-11.5576
 20
-9.63184
 11
-11.4932
 21
-9.70996
  0
LINE
  8
0
 10
-11.4932
 20
-9.70996
 11
-11.4961
 21
-9.71289
  0
LINE
  8
0
 10
-11.4961
 20
-9.71289
 11
-11.5977
 21
-9.91895
  0
LINE
  8
0
 10
-11.5977
 20
-9.91895
 11
-11.6992
 21
-10.1465
  0
LINE
  8
0
 10
-11.6992
 20
-10.1465
 11
-11.7998
 21
-10.3975
  0
LINE
  8
0
 10
-11.7998
 20
-10.3975
 11
-11.8975
 21
-10.6709
  0
LINE
  8
0
 10
-11.8975
 20
-10.6709
 11
-11.9912
 21
-10.9668
  0
LINE
  8
0
 10
-11.9912
 20
-10.9668
 11
-11.833
 21
-11.1377
  0
LINE
  8
0
 10
-11.833
 20
-11.1377
 11
-11.5303
 21
-11.0674
  0
LINE
  8
0
 10
-11.5303
 20
-11.0674
 11
-11.25
 21
-10.9902
  0
LINE
  8
0
 10
-11.25
 20
-10.9902
 11
-10.9932
 21
-10.9082
  0
LINE
  8
0
 10
-10.9932
 20
-10.9082
 11
-10.7578
 21
-10.8242
  0
LINE
  8
0
 10
-10.7578
 20
-10.8242
 11
-10.5449
 21
-10.7383
  0
LINE
  8
0
 10
-10.5449
 20
-10.7383
 11
-10.541
 21
-10.7354
  0
LINE
  8
0
 10
-10.541
 20
-10.7354
 11
-10.4688
 21
-10.8057
  0
LINE
  8
0
 10
-10.4688
 20
-10.8057
 11
-10.4717
 21
-10.8096
  0
LINE
  8
0
 10
-10.4717
 20
-10.8096
 11
-10.5527
 21
-11.0244
  0
LINE
  8
0
 10
-10.5527
 20
-11.0244
 11
-10.6309
 21
-11.2617
  0
LINE
  8
0
 10
-10.6309
 20
-11.2617
 11
-10.7061
 21
-11.5205
  0
LINE
  8
0
 10
-10.7061
 20
-11.5205
 11
-10.7764
 21
-11.8027
  0
LINE
  8
0
 10
-10.7764
 20
-11.8027
 11
-10.8398
 21
-12.1064
  0
LINE
  8
0
 10
-10.8398
 20
-12.1064
 11
-10.665
 21
-12.2607
  0
LINE
  8
0
 10
-10.665
 20
-12.2607
 11
-10.3711
 21
-12.1602
  0
LINE
  8
0
 10
-10.3711
 20
-12.1602
 11
-10.1006
 21
-12.0557
  0
LINE
  8
0
 10
-10.1006
 20
-12.0557
 11
-9.85254
 21
-11.9492
  0
LINE
  8
0
 10
-9.85254
 20
-11.9492
 11
-9.62695
 21
-11.8418
  0
LINE
  8
0
 10
-9.62695
 20
-11.8418
 11
-9.42285
 21
-11.7344
  0
LINE
  8
0
 10
-9.42285
 20
-11.7344
 11
-9.41992
 21
-11.7314
  0
LINE
  8
0
 10
-9.41992
 20
-11.7314
 11
-9.34082
 21
-11.7949
  0
LINE
  8
0
 10
-9.34082
 20
-11.7949
 11
-9.34375
 21
-11.7979
  0
LINE
  8
0
 10
-9.34375
 20
-11.7979
 11
-9.40234
 21
-12.0205
  0
LINE
  8
0
 10
-9.40234
 20
-12.0205
 11
-9.45703
 21
-12.2637
  0
LINE
  8
0
 10
-9.45703
 20
-12.2637
 11
-9.50586
 21
-12.5293
  0
LINE
  8
0
 10
-9.50586
 20
-12.5293
 11
-9.54688
 21
-12.8174
  0
LINE
  8
0
 10
-9.54688
 20
-12.8174
 11
-9.58008
 21
-13.126
  0
LINE
  8
0
 10
-9.58008
 20
-13.126
 11
-9.39062
 21
-13.2617
  0
LINE
  8
0
 10
-9.39062
 20
-13.2617
 11
-9.1084
 21
-13.1318
  0
LINE
  8
0
 10
-9.1084
 20
-13.1318
 11
-8.84961
 21
-13.001
  0
LINE
  8
0
 10
-8.84961
 20
-13.001
 11
-8.61328
 21
-12.8701
  0
LINE
  8
0
 10
-8.61328
 20
-12.8701
 11
-8.39941
 21
-12.7412
  0
LINE
  8
0
 10
-8.39941
 20
-12.7412
 11
-8.20801
 21
-12.6152
  0
LINE
  8
0
 10
-8.20801
 20
-12.6152
 11
-8.20508
 21
-12.6113
  0
LINE
  8
0
 10
-8.20508
 20
-12.6113
 11
-8.12012
 21
-12.666
  0
LINE
  8
0
 10
-8.12012
 20
-12.666
 11
-8.12305
 21
-12.6699
  0
LINE
  8
0
 10
-8.12305
 20
-12.6699
 11
-8.15918
 21
-12.8965
  0
LINE
  8
0
 10
-8.15918
 20
-12.8965
 11
-8.18848
 21
-13.1445
  0
LINE
  8
0
 10
-8.18848
 20
-13.1445
 11
-8.21094
 21
-13.4141
  0
LINE
  8
0
 10
-8.21094
 20
-13.4141
 11
-8.22363
 21
-13.7041
  0
LINE
  8
0
 10
-8.22363
 20
-13.7041
 11
-8.22559
 21
-14.0146
  0
LINE
  8
0
 10
-8.22559
 20
-14.0146
 11
-8.02441
 21
-14.1309
  0
LINE
  8
0
 10
-8.02441
 20
-14.1309
 11
-7.75586
 21
-13.9736
  0
LINE
  8
0
 10
-7.75586
 20
-13.9736
 11
-7.51074
 21
-13.8174
  0
LINE
  8
0
 10
-7.51074
 20
-13.8174
 11
-7.28906
 21
-13.6641
  0
LINE
  8
0
 10
-7.28906
 20
-13.6641
 11
-7.08887
 21
-13.5137
  0
LINE
  8
0
 10
-7.08887
 20
-13.5137
 11
-6.91113
 21
-13.3691
  0
LINE
  8
0
 10
-6.91113
 20
-13.3691
 11
-6.90918
 21
-13.3652
  0
LINE
  8
0
 10
-6.90918
 20
-13.3652
 11
-6.81836
 21
-13.4111
  0
LINE
  8
0
 10
-6.81836
 20
-13.4111
 11
-6.82031
 21
-13.416
  0
LINE
  8
0
 10
-6.82031
 20
-13.416
 11
-6.83398
 21
-13.6445
  0
LINE
  8
0
 10
-6.83398
 20
-13.6445
 11
-6.83984
 21
-13.8945
  0
LINE
  8
0
 10
-6.83984
 20
-13.8945
 11
-6.83496
 21
-14.165
  0
LINE
  8
0
 10
-6.83496
 20
-14.165
 11
-6.81836
 21
-14.4541
  0
LINE
  8
0
 10
-6.81836
 20
-14.4541
 11
-6.78906
 21
-14.7637
  0
LINE
  8
0
 10
-6.78906
 20
-14.7637
 11
-6.57715
 21
-14.8594
  0
LINE
  8
0
 10
-6.57715
 20
-14.8594
 11
-6.32617
 21
-14.6768
  0
LINE
  8
0
 10
-6.32617
 20
-14.6768
 11
-6.09766
 21
-14.4971
  0
LINE
  8
0
 10
-6.09766
 20
-14.4971
 11
-5.89258
 21
-14.3223
  0
LINE
  8
0
 10
-5.89258
 20
-14.3223
 11
-5.70898
 21
-14.1523
  0
LINE
  8
0
 10
-5.70898
 20
-14.1523
 11
-5.5459
 21
-13.9912
  0
LINE
  8
0
 10
-5.5459
 20
-13.9912
 11
-5.54395
 21
-13.9863
  0
LINE
  8
0
 10
-5.54395
 20
-13.9863
 11
-5.44922
 21
-14.0234
  0
LINE
  8
0
 10
-5.44922
 20
-14.0234
 11
-5.45117
 21
-14.0283
  0
LINE
  8
0
 10
-5.45117
 20
-14.0283
 11
-5.44141
 21
-14.2578
  0
LINE
  8
0
 10
-5.44141
 20
-14.2578
 11
-5.42188
 21
-14.5068
  0
LINE
  8
0
 10
-5.42188
 20
-14.5068
 11
-5.39062
 21
-14.7744
  0
LINE
  8
0
 10
-5.39062
 20
-14.7744
 11
-5.3457
 21
-15.0615
  0
LINE
  8
0
 10
-5.3457
 20
-15.0615
 11
-5.28516
 21
-15.3662
  0
LINE
  8
0
 10
-5.28516
 20
-15.3662
 11
-5.06445
 21
-15.4404
  0
LINE
  8
0
 10
-5.06445
 20
-15.4404
 11
-4.83301
 21
-15.2334
  0
LINE
  8
0
 10
-4.83301
 20
-15.2334
 11
-4.62402
 21
-15.0322
  0
LINE
  8
0
 10
-4.62402
 20
-15.0322
 11
-4.4375
 21
-14.8369
  0
LINE
  8
0
 10
-4.4375
 20
-14.8369
 11
-4.27051
 21
-14.6504
  0
LINE
  8
0
 10
-4.27051
 20
-14.6504
 11
-4.125
 21
-14.4736
  0
LINE
  8
0
 10
-4.125
 20
-14.4736
 11
-4.12402
 21
-14.4697
  0
LINE
  8
0
 10
-4.12402
 20
-14.4697
 11
-4.02637
 21
-14.4971
  0
LINE
  8
0
 10
-4.02637
 20
-14.4971
 11
-4.02734
 21
-14.501
  0
LINE
  8
0
 10
-4.02734
 20
-14.501
 11
-3.99512
 21
-14.7285
  0
LINE
  8
0
 10
-3.99512
 20
-14.7285
 11
-3.9502
 21
-14.9746
  0
LINE
  8
0
 10
-3.9502
 20
-14.9746
 11
-3.89258
 21
-15.2383
  0
LINE
  8
0
 10
-3.89258
 20
-15.2383
 11
-3.81934
 21
-15.5186
  0
LINE
  8
0
 10
-3.81934
 20
-15.5186
 11
-3.72949
 21
-15.8164
  0
LINE
  8
0
 10
-3.72949
 20
-15.8164
 11
-3.50195
 21
-15.8682
  0
LINE
  8
0
 10
-3.50195
 20
-15.8682
 11
-3.29199
 21
-15.6396
  0
LINE
  8
0
 10
-3.29199
 20
-15.6396
 11
-3.10449
 21
-15.418
  0
LINE
  8
0
 10
-3.10449
 20
-15.418
 11
-2.9375
 21
-15.2051
  0
LINE
  8
0
 10
-2.9375
 20
-15.2051
 11
-2.79102
 21
-15.0029
  0
LINE
  8
0
 10
-2.79102
 20
-15.0029
 11
-2.66309
 21
-14.8125
  0
LINE
  8
0
 10
-2.66309
 20
-14.8125
 11
-2.66211
 21
-14.8076
  0
LINE
  8
0
 10
-2.66211
 20
-14.8076
 11
-2.5625
 21
-14.8252
  0
LINE
  8
0
 10
-2.5625
 20
-14.8252
 11
-2.56348
 21
-14.8301
  0
LINE
  8
0
 10
-2.56348
 20
-14.8301
 11
-2.50879
 21
-15.0527
  0
LINE
  8
0
 10
-2.50879
 20
-15.0527
 11
-2.44043
 21
-15.293
  0
LINE
  8
0
 10
-2.44043
 20
-15.293
 11
-2.35547
 21
-15.5498
  0
LINE
  8
0
 10
-2.35547
 20
-15.5498
 11
-2.25488
 21
-15.8223
  0
LINE
  8
0
 10
-2.25488
 20
-15.8223
 11
-2.13574
 21
-16.1094
  0
LINE
  8
0
 10
-2.13574
 20
-16.1094
 11
-1.90527
 21
-16.1377
  0
LINE
  8
0
 10
-1.90527
 20
-16.1377
 11
-1.71875
 21
-15.8896
  0
LINE
  8
0
 10
-1.71875
 20
-15.8896
 11
-1.55371
 21
-15.6504
  0
LINE
  8
0
 10
-1.55371
 20
-15.6504
 11
-1.40918
 21
-15.4229
  0
LINE
  8
0
 10
-1.40918
 20
-15.4229
 11
-1.2832
 21
-15.207
  0
LINE
  8
0
 10
-1.2832
 20
-15.207
 11
-1.1748
 21
-15.0039
  0
LINE
  8
0
 10
-1.1748
 20
-15.0039
 11
-1.1748
 21
-14.999
  0
LINE
  8
0
 10
-1.1748
 20
-14.999
 11
-1.07422
 21
-15.0068
  0
LINE
  8
0
 10
-1.07422
 20
-15.0068
 11
-1.07422
 21
-15.0117
  0
LINE
  8
0
 10
-1.07422
 20
-15.0117
 11
-0.99707
 21
-15.2285
  0
LINE
  8
0
 10
-0.99707
 20
-15.2285
 11
-0.905273
 21
-15.46
  0
LINE
  8
0
 10
-0.905273
 20
-15.46
 11
-0.795898
 21
-15.707
  0
LINE
  8
0
 10
-0.795898
 20
-15.707
 11
-0.667969
 21
-15.9678
  0
LINE
  8
0
 10
-0.667969
 20
-15.9678
 11
-0.521484
 21
-16.2412
  0
LINE
  8
0
 10
-0.521484
 20
-16.2412
 11
-0.289062
 21
-16.2471
  0
LINE
  8
0
 10
-0.289062
 20
-16.2471
 11
-0.12793
 21
-15.9814
  0
ENDSEC
  0
SECTION
  2
OBJECTS
  0
DICTIONARY
  0
ENDSEC
  0
EOF
