  0
SECTION
  2
BLOCKS
  0
ENDSEC
  0
SECTION
  2
ENTITIES
  0
LINE
  8
0
 10
6.18033
 20
-19.0211
 11
10
 21
-17.3205
  0
LINE
  8
0
 10
10
 20
-17.3205
 11
13.3826
 21
-14.8629
  0
LINE
  8
0
 10
13.3826
 20
-14.8629
 11
16.1803
 21
-11.7557
  0
LINE
  8
0
 10
16.1803
 20
-11.7557
 11
18.2709
 21
-8.13472
  0
LINE
  8
0
 10
18.2709
 20
-8.13472
 11
19.5629
 21
-4.15823
  0
LINE
  8
0
 10
19.5629
 20
-4.15823
 11
20
 21
0
  0
LINE
  8
0
 10
20
 20
0
 11
19.5629
 21
4.15823
  0
LINE
  8
0
 10
19.5629
 20
4.15823
 11
18.2709
 21
8.13472
  0
LINE
  8
0
 10
18.2709
 20
8.13472
 11
16.1803
 21
11.7557
  0
LINE
  8
0
 10
16.1803
 20
11.7557
 11
13.3826
 21
14.8629
  0
LINE
  8
0
 10
13.3826
 20
14.8629
 11
11.125
 21
16.5031
  0
LINE
  8
0
 10
11.125
 20
16.5031
 11
11.125
 21
-7.29999
  0
LINE
  8
0
 10
11.125
 20
-7.29999
 11
11.0485
 21
-8.02768
  0
LINE
  8
0
 10
11.0485
 20
-8.02768
 11
10.8224
 21
-8.72357
  0
LINE
  8
0
 10
10.8224
 20
-8.72357
 11
10.4566
 21
-9.35724
  0
LINE
  8
0
 10
10.4566
 20
-9.35724
 11
9.96695
 21
-9.901
  0
LINE
  8
0
 10
9.96695
 20
-9.901
 11
9.375
 21
-10.3311
  0
LINE
  8
0
 10
9.375
 20
-10.3311
 11
8.70656
 21
-10.6287
  0
LINE
  8
0
 10
8.70656
 20
-10.6287
 11
7.99084
 21
-10.7808
  0
LINE
  8
0
 10
7.99084
 20
-10.7808
 11
-7.99084
 21
-10.7808
  0
LINE
  8
0
 10
-7.99084
 20
-10.7808
 11
-8.70656
 21
-10.6287
  0
LINE
  8
0
 10
-8.70656
 20
-10.6287
 11
-9.375
 21
-10.3311
  0
LINE
  8
0
 10
-9.375
 20
-10.3311
 11
-9.96695
 21
-9.901
  0
LINE
  8
0
 10
-9.96695
 20
-9.901
 11
-10.4566
 21
-9.35724
  0
LINE
  8
0
 10
-10.4566
 20
-9.35724
 11
-10.8224
 21
-8.72357
  0
LINE
  8
0
 10
-10.8224
 20
-8.72357
 11
-11.0485
 21
-8.02768
  0
LINE
  8
0
 10
-11.0485
 20
-8.02768
 11
-11.125
 21
-7.29999
  0
LINE
  8
0
 10
-11.125
 20
-7.29999
 11
-11.125
 21
16.5031
  0
LINE
  8
0
 10
-11.125
 20
16.5031
 11
-13.3826
 21
14.8629
  0
LINE
  8
0
 10
-13.3826
 20
14.8629
 11
-16.1803
 21
11.7557
  0
LINE
  8
0
 10
-16.1803
 20
11.7557
 11
-18.2709
 21
8.13472
  0
LINE
  8
0
 10
-18.2709
 20
8.13472
 11
-19.5629
 21
4.15823
  0
LINE
  8
0
 10
-19.5629
 20
4.15823
 11
-20
 21
0
  0
LINE
  8
0
 10
-20
 20
0
 11
-19.5629
 21
-4.15823
  0
LINE
  8
0
 10
-19.5629
 20
-4.15823
 11
-18.2709
 21
-8.13472
  0
LINE
  8
0
 10
-18.2709
 20
-8.13472
 11
-16.1803
 21
-11.7557
  0
LINE
  8
0
 10
-16.1803
 20
-11.7557
 11
-13.3826
 21
-14.8629
  0
LINE
  8
0
 10
-13.3826
 20
-14.8629
 11
-10
 21
-17.3205
  0
LINE
  8
0
 10
-10
 20
-17.3205
 11
-6.18033
 21
-19.0211
  0
LINE
  8
0
 10
-6.18033
 20
-19.0211
 11
-2.09056
 21
-19.8904
  0
LINE
  8
0
 10
-2.09056
 20
-19.8904
 11
2.09056
 21
-19.8904
  0
LINE
  8
0
 10
2.09056
 20
-19.8904
 11
6.18033
 21
-19.0211
  0
ENDSEC
  0
SECTION
  2
OBJECTS
  0
DICTIONARY
  0
ENDSEC
  0
EOF
