  0
SECTION
  2
BLOCKS
  0
ENDSEC
  0
SECTION
  2
ENTITIES
  0
LINE
  8
0
 10
-19.975
 11
-19.975
 20
-0.997
 21
0.997
  0
LINE
  8
0
 10
-19.975
 11
-19.777
 20
0.997
 21
2.981
  0
LINE
  8
0
 10
-19.777
 11
-19.382
 20
2.981
 21
4.935
  0
LINE
  8
0
 10
-19.382
 11
-18.794
 20
4.935
 21
6.84
  0
LINE
  8
0
 10
-18.794
 11
-18.019
 20
6.84
 21
8.678
  0
LINE
  8
0
 10
-18.019
 11
-17.066
 20
8.678
 21
10.429
  0
LINE
  8
0
 10
-17.066
 11
-15.943
 20
10.429
 21
12.076
  0
LINE
  8
0
 10
-15.943
 11
-14.661
 20
12.076
 21
13.603
  0
LINE
  8
0
 10
-14.661
 11
-13.234
 20
13.603
 21
14.996
  0
LINE
  8
0
 10
-13.234
 11
-11.675
 20
14.996
 21
16.239
  0
LINE
  8
0
 10
-11.675
 11
-10
 20
16.239
 21
17.321
  0
LINE
  8
0
 10
-10
 11
-8.226
 20
17.321
 21
18.23
  0
LINE
  8
0
 10
-8.226
 11
-6.37
 20
18.23
 21
18.959
  0
LINE
  8
0
 10
-6.37
 11
-4.45
 20
18.959
 21
19.499
  0
LINE
  8
0
 10
-4.45
 11
-2.487
 20
19.499
 21
19.845
  0
LINE
  8
0
 10
-2.487
 11
-0.499
 20
19.845
 21
19.994
  0
LINE
  8
0
 10
-0.499
 11
1.495
 20
19.994
 21
19.944
  0
LINE
  8
0
 10
1.495
 11
3.473
 20
19.944
 21
19.696
  0
LINE
  8
0
 10
3.473
 11
5.417
 20
19.696
 21
19.252
  0
LINE
  8
0
 10
5.417
 11
7.307
 20
19.252
 21
18.617
  0
LINE
  8
0
 10
7.307
 11
9.124
 20
18.617
 21
17.797
  0
LINE
  8
0
 10
9.124
 11
10.851
 20
17.797
 21
16.801
  0
LINE
  8
0
 10
10.851
 11
12.47
 20
16.801
 21
15.637
  0
LINE
  8
0
 10
12.47
 11
13.965
 20
15.637
 21
14.317
  0
LINE
  8
0
 10
13.965
 11
15.321
 20
14.317
 21
12.856
  0
LINE
  8
0
 10
15.321
 11
16.525
 20
12.856
 21
11.266
  0
LINE
  8
0
 10
16.525
 11
17.564
 20
11.266
 21
9.565
  0
LINE
  8
0
 10
17.564
 11
18.43
 20
9.565
 21
7.769
  0
LINE
  8
0
 10
18.43
 11
19.111
 20
7.769
 21
5.895
  0
LINE
  8
0
 10
19.111
 11
19.603
 20
5.895
 21
3.963
  0
LINE
  8
0
 10
19.603
 11
19.901
 20
3.963
 21
1.991
  0
LINE
  8
0
 10
19.901
 11
20
 20
1.991
 21
0
  0
LINE
  8
0
 10
20
 11
19.901
 20
0
 21
-1.991
  0
LINE
  8
0
 10
19.901
 11
19.603
 20
-1.991
 21
-3.963
  0
LINE
  8
0
 10
19.603
 11
19.111
 20
-3.963
 21
-5.895
  0
LINE
  8
0
 10
19.111
 11
18.43
 20
-5.895
 21
-7.769
  0
LINE
  8
0
 10
18.43
 11
17.564
 20
-7.769
 21
-9.565
  0
LINE
  8
0
 10
17.564
 11
16.525
 20
-9.565
 21
-11.266
  0
LINE
  8
0
 10
16.525
 11
15.321
 20
-11.266
 21
-12.856
  0
LINE
  8
0
 10
15.321
 11
13.965
 20
-12.856
 21
-14.317
  0
LINE
  8
0
 10
13.965
 11
12.47
 20
-14.317
 21
-15.637
  0
LINE
  8
0
 10
12.47
 11
10.851
 20
-15.637
 21
-16.801
  0
LINE
  8
0
 10
10.851
 11
9.124
 20
-16.801
 21
-17.797
  0
LINE
  8
0
 10
9.124
 11
7.307
 20
-17.797
 21
-18.617
  0
LINE
  8
0
 10
7.307
 11
5.417
 20
-18.617
 21
-19.252
  0
LINE
  8
0
 10
5.417
 11
3.473
 20
-19.252
 21
-19.696
  0
LINE
  8
0
 10
3.473
 11
1.495
 20
-19.696
 21
-19.944
  0
LINE
  8
0
 10
1.495
 11
-0.499
 20
-19.944
 21
-19.994
  0
LINE
  8
0
 10
-0.499
 11
-2.487
 20
-19.994
 21
-19.845
  0
LINE
  8
0
 10
-2.487
 11
-4.45
 20
-19.845
 21
-19.499
  0
LINE
  8
0
 10
-4.45
 11
-6.37
 20
-19.499
 21
-18.959
  0
LINE
  8
0
 10
-6.37
 11
-8.226
 20
-18.959
 21
-18.23
  0
LINE
  8
0
 10
-8.226
 11
-10
 20
-18.23
 21
-17.321
  0
LINE
  8
0
 10
-10
 11
-11.675
 20
-17.321
 21
-16.239
  0
LINE
  8
0
 10
-11.675
 11
-13.234
 20
-16.239
 21
-14.996
  0
LINE
  8
0
 10
-13.234
 11
-14.661
 20
-14.996
 21
-13.603
  0
LINE
  8
0
 10
-14.661
 11
-15.943
 20
-13.603
 21
-12.076
  0
LINE
  8
0
 10
-15.943
 11
-17.066
 20
-12.076
 21
-10.429
  0
LINE
  8
0
 10
-17.066
 11
-18.019
 20
-10.429
 21
-8.678
  0
LINE
  8
0
 10
-18.019
 11
-18.794
 20
-8.678
 21
-6.84
  0
LINE
  8
0
 10
-18.794
 11
-19.382
 20
-6.84
 21
-4.935
  0
LINE
  8
0
 10
-19.382
 11
-19.777
 20
-4.935
 21
-2.981
  0
LINE
  8
0
 10
-19.777
 11
-19.975
 20
-2.981
 21
-0.997
  0
LINE
  8
0
 10
-6.845
 11
-6.828
 20
-10.237
 21
-9.925
  0
LINE
  8
0
 10
-6.828
 11
-6.716
 20
-9.925
 21
-9.632
  0
LINE
  8
0
 10
-6.716
 11
-6.519
 20
-9.632
 21
-9.389
  0
LINE
  8
0
 10
-6.519
 11
-6.257
 20
-9.389
 21
-9.219
  0
LINE
  8
0
 10
-6.257
 11
-5.955
 20
-9.219
 21
-9.138
  0
LINE
  8
0
 10
-5.955
 11
-5.642
 20
-9.138
 21
-9.154
  0
LINE
  8
0
 10
-5.642
 11
-5.35
 20
-9.154
 21
-9.266
  0
LINE
  8
0
 10
-5.35
 11
-5.107
 20
-9.266
 21
-9.463
  0
LINE
  8
0
 10
-5.107
 11
-4.936
 20
-9.463
 21
-9.726
  0
LINE
  8
0
 10
-4.936
 11
-4.855
 20
-9.726
 21
-10.028
  0
LINE
  8
0
 10
-4.855
 11
-4.872
 20
-10.028
 21
-10.34
  0
LINE
  8
0
 10
-4.872
 11
-4.984
 20
-10.34
 21
-10.632
  0
LINE
  8
0
 10
-4.984
 11
-5.181
 20
-10.632
 21
-10.876
  0
LINE
  8
0
 10
-5.181
 11
-5.443
 20
-10.876
 21
-11.046
  0
LINE
  8
0
 10
-5.443
 11
-5.745
 20
-11.046
 21
-11.127
  0
LINE
  8
0
 10
-5.745
 11
-6.058
 20
-11.127
 21
-11.111
  0
LINE
  8
0
 10
-6.058
 11
-6.35
 20
-11.111
 21
-10.999
  0
LINE
  8
0
 10
-6.35
 11
-6.593
 20
-10.999
 21
-10.802
  0
LINE
  8
0
 10
-6.593
 11
-6.764
 20
-10.802
 21
-10.539
  0
LINE
  8
0
 10
-6.764
 11
-6.845
 20
-10.539
 21
-10.237
  0
LINE
  8
0
 10
-6.845
 11
-6.764
 20
10.237
 21
10.539
  0
LINE
  8
0
 10
-6.764
 11
-6.593
 20
10.539
 21
10.802
  0
LINE
  8
0
 10
-6.593
 11
-6.35
 20
10.802
 21
10.999
  0
LINE
  8
0
 10
-6.35
 11
-6.058
 20
10.999
 21
11.111
  0
LINE
  8
0
 10
-6.058
 11
-5.745
 20
11.111
 21
11.127
  0
LINE
  8
0
 10
-5.745
 11
-5.443
 20
11.127
 21
11.046
  0
LINE
  8
0
 10
-5.443
 11
-5.181
 20
11.046
 21
10.876
  0
LINE
  8
0
 10
-5.181
 11
-4.984
 20
10.876
 21
10.632
  0
LINE
  8
0
 10
-4.984
 11
-4.872
 20
10.632
 21
10.34
  0
LINE
  8
0
 10
-4.872
 11
-4.855
 20
10.34
 21
10.028
  0
LINE
  8
0
 10
-4.855
 11
-4.936
 20
10.028
 21
9.726
  0
LINE
  8
0
 10
-4.936
 11
-5.107
 20
9.726
 21
9.463
  0
LINE
  8
0
 10
-5.107
 11
-5.35
 20
9.463
 21
9.266
  0
LINE
  8
0
 10
-5.35
 11
-5.642
 20
9.266
 21
9.154
  0
LINE
  8
0
 10
-5.642
 11
-5.955
 20
9.154
 21
9.138
  0
LINE
  8
0
 10
-5.955
 11
-6.257
 20
9.138
 21
9.219
  0
LINE
  8
0
 10
-6.257
 11
-6.519
 20
9.219
 21
9.389
  0
LINE
  8
0
 10
-6.519
 11
-6.716
 20
9.389
 21
9.632
  0
LINE
  8
0
 10
-6.716
 11
-6.828
 20
9.632
 21
9.925
  0
LINE
  8
0
 10
-6.828
 11
-6.845
 20
9.925
 21
10.237
  0
LINE
  8
0
 10
-2.5
 11
-2.499
 20
0
 21
0.079
  0
LINE
  8
0
 10
-2.499
 11
-2.495
 20
0.079
 21
0.157
  0
LINE
  8
0
 10
-2.495
 11
-2.489
 20
0.157
 21
0.235
  0
LINE
  8
0
 10
-2.489
 11
-2.48
 20
0.235
 21
0.313
  0
LINE
  8
0
 10
-2.48
 11
-2.469
 20
0.313
 21
0.391
  0
LINE
  8
0
 10
-2.469
 11
-2.456
 20
0.391
 21
0.468
  0
LINE
  8
0
 10
-2.456
 11
-2.44
 20
0.468
 21
0.545
  0
LINE
  8
0
 10
-2.44
 11
-2.421
 20
0.545
 21
0.622
  0
LINE
  8
0
 10
-2.421
 11
-2.401
 20
0.622
 21
0.697
  0
LINE
  8
0
 10
-2.401
 11
-2.378
 20
0.697
 21
0.773
  0
LINE
  8
0
 10
-2.378
 11
-2.352
 20
0.773
 21
0.847
  0
LINE
  8
0
 10
-2.352
 11
-2.324
 20
0.847
 21
0.92
  0
LINE
  8
0
 10
-2.324
 11
-2.294
 20
0.92
 21
0.993
  0
LINE
  8
0
 10
-2.294
 11
-2.262
 20
0.993
 21
1.064
  0
LINE
  8
0
 10
-2.262
 11
-2.228
 20
1.064
 21
1.135
  0
LINE
  8
0
 10
-2.228
 11
-2.191
 20
1.135
 21
1.204
  0
LINE
  8
0
 10
-2.191
 11
-2.152
 20
1.204
 21
1.273
  0
LINE
  8
0
 10
-2.152
 11
-2.111
 20
1.273
 21
1.34
  0
LINE
  8
0
 10
-2.111
 11
-2.068
 20
1.34
 21
1.405
  0
LINE
  8
0
 10
-2.068
 11
-2.023
 20
1.405
 21
1.469
  0
LINE
  8
0
 10
-2.023
 11
-2
 20
1.469
 21
1.5
  0
LINE
  8
0
 10
-2
 11
2
 20
1.5
 21
1.5
  0
LINE
  8
0
 10
2
 11
2.023
 20
1.5
 21
1.469
  0
LINE
  8
0
 10
2.023
 11
2.068
 20
1.469
 21
1.405
  0
LINE
  8
0
 10
2.068
 11
2.111
 20
1.405
 21
1.34
  0
LINE
  8
0
 10
2.111
 11
2.152
 20
1.34
 21
1.273
  0
LINE
  8
0
 10
2.152
 11
2.191
 20
1.273
 21
1.204
  0
LINE
  8
0
 10
2.191
 11
2.228
 20
1.204
 21
1.135
  0
LINE
  8
0
 10
2.228
 11
2.262
 20
1.135
 21
1.064
  0
LINE
  8
0
 10
2.262
 11
2.294
 20
1.064
 21
0.993
  0
LINE
  8
0
 10
2.294
 11
2.324
 20
0.993
 21
0.92
  0
LINE
  8
0
 10
2.324
 11
2.352
 20
0.92
 21
0.847
  0
LINE
  8
0
 10
2.352
 11
2.378
 20
0.847
 21
0.773
  0
LINE
  8
0
 10
2.378
 11
2.401
 20
0.773
 21
0.697
  0
LINE
  8
0
 10
2.401
 11
2.421
 20
0.697
 21
0.622
  0
LINE
  8
0
 10
2.421
 11
2.44
 20
0.622
 21
0.545
  0
LINE
  8
0
 10
2.44
 11
2.456
 20
0.545
 21
0.468
  0
LINE
  8
0
 10
2.456
 11
2.469
 20
0.468
 21
0.391
  0
LINE
  8
0
 10
2.469
 11
2.48
 20
0.391
 21
0.313
  0
LINE
  8
0
 10
2.48
 11
2.489
 20
0.313
 21
0.235
  0
LINE
  8
0
 10
2.489
 11
2.495
 20
0.235
 21
0.157
  0
LINE
  8
0
 10
2.495
 11
2.499
 20
0.157
 21
0.079
  0
LINE
  8
0
 10
2.499
 11
2.5
 20
0.079
 21
0
  0
LINE
  8
0
 10
2.5
 11
2.499
 20
0
 21
-0.079
  0
LINE
  8
0
 10
2.499
 11
2.495
 20
-0.079
 21
-0.157
  0
LINE
  8
0
 10
2.495
 11
2.489
 20
-0.157
 21
-0.235
  0
LINE
  8
0
 10
2.489
 11
2.48
 20
-0.235
 21
-0.313
  0
LINE
  8
0
 10
2.48
 11
2.469
 20
-0.313
 21
-0.391
  0
LINE
  8
0
 10
2.469
 11
2.456
 20
-0.391
 21
-0.468
  0
LINE
  8
0
 10
2.456
 11
2.44
 20
-0.468
 21
-0.545
  0
LINE
  8
0
 10
2.44
 11
2.421
 20
-0.545
 21
-0.622
  0
LINE
  8
0
 10
2.421
 11
2.401
 20
-0.622
 21
-0.697
  0
LINE
  8
0
 10
2.401
 11
2.378
 20
-0.697
 21
-0.773
  0
LINE
  8
0
 10
2.378
 11
2.352
 20
-0.773
 21
-0.847
  0
LINE
  8
0
 10
2.352
 11
2.324
 20
-0.847
 21
-0.92
  0
LINE
  8
0
 10
2.324
 11
2.294
 20
-0.92
 21
-0.993
  0
LINE
  8
0
 10
2.294
 11
2.262
 20
-0.993
 21
-1.064
  0
LINE
  8
0
 10
2.262
 11
2.228
 20
-1.064
 21
-1.135
  0
LINE
  8
0
 10
2.228
 11
2.191
 20
-1.135
 21
-1.204
  0
LINE
  8
0
 10
2.191
 11
2.152
 20
-1.204
 21
-1.273
  0
LINE
  8
0
 10
2.152
 11
2.111
 20
-1.273
 21
-1.34
  0
LINE
  8
0
 10
2.111
 11
2.068
 20
-1.34
 21
-1.405
  0
LINE
  8
0
 10
2.068
 11
2.023
 20
-1.405
 21
-1.469
  0
LINE
  8
0
 10
2.023
 11
2
 20
-1.469
 21
-1.5
  0
LINE
  8
0
 10
2
 11
-2
 20
-1.5
 21
-1.5
  0
LINE
  8
0
 10
-2
 11
-2.023
 20
-1.5
 21
-1.469
  0
LINE
  8
0
 10
-2.023
 11
-2.068
 20
-1.469
 21
-1.405
  0
LINE
  8
0
 10
-2.068
 11
-2.111
 20
-1.405
 21
-1.34
  0
LINE
  8
0
 10
-2.111
 11
-2.152
 20
-1.34
 21
-1.273
  0
LINE
  8
0
 10
-2.152
 11
-2.191
 20
-1.273
 21
-1.204
  0
LINE
  8
0
 10
-2.191
 11
-2.228
 20
-1.204
 21
-1.135
  0
LINE
  8
0
 10
-2.228
 11
-2.262
 20
-1.135
 21
-1.064
  0
LINE
  8
0
 10
-2.262
 11
-2.294
 20
-1.064
 21
-0.993
  0
LINE
  8
0
 10
-2.294
 11
-2.324
 20
-0.993
 21
-0.92
  0
LINE
  8
0
 10
-2.324
 11
-2.352
 20
-0.92
 21
-0.847
  0
LINE
  8
0
 10
-2.352
 11
-2.378
 20
-0.847
 21
-0.773
  0
LINE
  8
0
 10
-2.378
 11
-2.401
 20
-0.773
 21
-0.697
  0
LINE
  8
0
 10
-2.401
 11
-2.421
 20
-0.697
 21
-0.622
  0
LINE
  8
0
 10
-2.421
 11
-2.44
 20
-0.622
 21
-0.545
  0
LINE
  8
0
 10
-2.44
 11
-2.456
 20
-0.545
 21
-0.468
  0
LINE
  8
0
 10
-2.456
 11
-2.469
 20
-0.468
 21
-0.391
  0
LINE
  8
0
 10
-2.469
 11
-2.48
 20
-0.391
 21
-0.313
  0
LINE
  8
0
 10
-2.48
 11
-2.489
 20
-0.313
 21
-0.235
  0
LINE
  8
0
 10
-2.489
 11
-2.495
 20
-0.235
 21
-0.157
  0
LINE
  8
0
 10
-2.495
 11
-2.499
 20
-0.157
 21
-0.079
  0
LINE
  8
0
 10
-2.499
 11
-2.5
 20
-0.079
 21
0
  0
LINE
  8
0
 10
10.7
 11
10.749
 20
0
 21
0.309
  0
LINE
  8
0
 10
10.749
 11
10.891
 20
0.309
 21
0.588
  0
LINE
  8
0
 10
10.891
 11
11.112
 20
0.588
 21
0.809
  0
LINE
  8
0
 10
11.112
 11
11.391
 20
0.809
 21
0.951
  0
LINE
  8
0
 10
11.391
 11
11.7
 20
0.951
 21
1
  0
LINE
  8
0
 10
11.7
 11
12.009
 20
1
 21
0.951
  0
LINE
  8
0
 10
12.009
 11
12.288
 20
0.951
 21
0.809
  0
LINE
  8
0
 10
12.288
 11
12.509
 20
0.809
 21
0.588
  0
LINE
  8
0
 10
12.509
 11
12.651
 20
0.588
 21
0.309
  0
LINE
  8
0
 10
12.651
 11
12.7
 20
0.309
 21
0
  0
LINE
  8
0
 10
12.7
 11
12.651
 20
0
 21
-0.309
  0
LINE
  8
0
 10
12.651
 11
12.509
 20
-0.309
 21
-0.588
  0
LINE
  8
0
 10
12.509
 11
12.288
 20
-0.588
 21
-0.809
  0
LINE
  8
0
 10
12.288
 11
12.009
 20
-0.809
 21
-0.951
  0
LINE
  8
0
 10
12.009
 11
11.7
 20
-0.951
 21
-1
  0
LINE
  8
0
 10
11.7
 11
11.391
 20
-1
 21
-0.951
  0
LINE
  8
0
 10
11.391
 11
11.112
 20
-0.951
 21
-0.809
  0
LINE
  8
0
 10
11.112
 11
10.891
 20
-0.809
 21
-0.588
  0
LINE
  8
0
 10
10.891
 11
10.749
 20
-0.588
 21
-0.309
  0
LINE
  8
0
 10
10.749
 11
10.7
 20
-0.309
 21
0
  0
LINE
  8
0
 10
23.025
 11
23.025
 20
-0.997
 21
0.997
  0
LINE
  8
0
 10
23.025
 11
23.223
 20
0.997
 21
2.981
  0
LINE
  8
0
 10
23.223
 11
23.618
 20
2.981
 21
4.935
  0
LINE
  8
0
 10
23.618
 11
24.206
 20
4.935
 21
6.84
  0
LINE
  8
0
 10
24.206
 11
24.981
 20
6.84
 21
8.678
  0
LINE
  8
0
 10
24.981
 11
25.934
 20
8.678
 21
10.429
  0
LINE
  8
0
 10
25.934
 11
27.057
 20
10.429
 21
12.076
  0
LINE
  8
0
 10
27.057
 11
28.339
 20
12.076
 21
13.603
  0
LINE
  8
0
 10
28.339
 11
29.766
 20
13.603
 21
14.996
  0
LINE
  8
0
 10
29.766
 11
31.325
 20
14.996
 21
16.239
  0
LINE
  8
0
 10
31.325
 11
33
 20
16.239
 21
17.321
  0
LINE
  8
0
 10
33
 11
34.774
 20
17.321
 21
18.23
  0
LINE
  8
0
 10
34.774
 11
36.63
 20
18.23
 21
18.959
  0
LINE
  8
0
 10
36.63
 11
38.55
 20
18.959
 21
19.499
  0
LINE
  8
0
 10
38.55
 11
40.513
 20
19.499
 21
19.845
  0
LINE
  8
0
 10
40.513
 11
42.501
 20
19.845
 21
19.994
  0
LINE
  8
0
 10
42.501
 11
44.495
 20
19.994
 21
19.944
  0
LINE
  8
0
 10
44.495
 11
46.473
 20
19.944
 21
19.696
  0
LINE
  8
0
 10
46.473
 11
48.417
 20
19.696
 21
19.252
  0
LINE
  8
0
 10
48.417
 11
50.307
 20
19.252
 21
18.617
  0
LINE
  8
0
 10
50.307
 11
52.124
 20
18.617
 21
17.797
  0
LINE
  8
0
 10
52.124
 11
53.851
 20
17.797
 21
16.801
  0
LINE
  8
0
 10
53.851
 11
55.47
 20
16.801
 21
15.637
  0
LINE
  8
0
 10
55.47
 11
56.965
 20
15.637
 21
14.317
  0
LINE
  8
0
 10
56.965
 11
58.321
 20
14.317
 21
12.856
  0
LINE
  8
0
 10
58.321
 11
59.525
 20
12.856
 21
11.266
  0
LINE
  8
0
 10
59.525
 11
60.564
 20
11.266
 21
9.565
  0
LINE
  8
0
 10
60.564
 11
61.43
 20
9.565
 21
7.769
  0
LINE
  8
0
 10
61.43
 11
62.111
 20
7.769
 21
5.895
  0
LINE
  8
0
 10
62.111
 11
62.603
 20
5.895
 21
3.963
  0
LINE
  8
0
 10
62.603
 11
62.901
 20
3.963
 21
1.991
  0
LINE
  8
0
 10
62.901
 11
63
 20
1.991
 21
0
  0
LINE
  8
0
 10
63
 11
62.901
 20
0
 21
-1.991
  0
LINE
  8
0
 10
62.901
 11
62.603
 20
-1.991
 21
-3.963
  0
LINE
  8
0
 10
62.603
 11
62.111
 20
-3.963
 21
-5.895
  0
LINE
  8
0
 10
62.111
 11
61.43
 20
-5.895
 21
-7.769
  0
LINE
  8
0
 10
61.43
 11
60.564
 20
-7.769
 21
-9.565
  0
LINE
  8
0
 10
60.564
 11
59.525
 20
-9.565
 21
-11.266
  0
LINE
  8
0
 10
59.525
 11
58.321
 20
-11.266
 21
-12.856
  0
LINE
  8
0
 10
58.321
 11
56.965
 20
-12.856
 21
-14.317
  0
LINE
  8
0
 10
56.965
 11
55.47
 20
-14.317
 21
-15.637
  0
LINE
  8
0
 10
55.47
 11
53.851
 20
-15.637
 21
-16.801
  0
LINE
  8
0
 10
53.851
 11
52.124
 20
-16.801
 21
-17.797
  0
LINE
  8
0
 10
52.124
 11
50.307
 20
-17.797
 21
-18.617
  0
LINE
  8
0
 10
50.307
 11
48.417
 20
-18.617
 21
-19.252
  0
LINE
  8
0
 10
48.417
 11
46.473
 20
-19.252
 21
-19.696
  0
LINE
  8
0
 10
46.473
 11
44.495
 20
-19.696
 21
-19.944
  0
LINE
  8
0
 10
44.495
 11
42.501
 20
-19.944
 21
-19.994
  0
LINE
  8
0
 10
42.501
 11
40.513
 20
-19.994
 21
-19.845
  0
LINE
  8
0
 10
40.513
 11
38.55
 20
-19.845
 21
-19.499
  0
LINE
  8
0
 10
38.55
 11
36.63
 20
-19.499
 21
-18.959
  0
LINE
  8
0
 10
36.63
 11
34.774
 20
-18.959
 21
-18.23
  0
LINE
  8
0
 10
34.774
 11
33
 20
-18.23
 21
-17.321
  0
LINE
  8
0
 10
33
 11
31.325
 20
-17.321
 21
-16.239
  0
LINE
  8
0
 10
31.325
 11
29.766
 20
-16.239
 21
-14.996
  0
LINE
  8
0
 10
29.766
 11
28.339
 20
-14.996
 21
-13.603
  0
LINE
  8
0
 10
28.339
 11
27.057
 20
-13.603
 21
-12.076
  0
LINE
  8
0
 10
27.057
 11
25.934
 20
-12.076
 21
-10.429
  0
LINE
  8
0
 10
25.934
 11
24.981
 20
-10.429
 21
-8.678
  0
LINE
  8
0
 10
24.981
 11
24.206
 20
-8.678
 21
-6.84
  0
LINE
  8
0
 10
24.206
 11
23.618
 20
-6.84
 21
-4.935
  0
LINE
  8
0
 10
23.618
 11
23.223
 20
-4.935
 21
-2.981
  0
LINE
  8
0
 10
23.223
 11
23.025
 20
-2.981
 21
-0.997
  0
LINE
  8
0
 10
36.155
 11
36.172
 20
-10.237
 21
-9.925
  0
LINE
  8
0
 10
36.172
 11
36.284
 20
-9.925
 21
-9.632
  0
LINE
  8
0
 10
36.284
 11
36.481
 20
-9.632
 21
-9.389
  0
LINE
  8
0
 10
36.481
 11
36.743
 20
-9.389
 21
-9.219
  0
LINE
  8
0
 10
36.743
 11
37.045
 20
-9.219
 21
-9.138
  0
LINE
  8
0
 10
37.045
 11
37.358
 20
-9.138
 21
-9.154
  0
LINE
  8
0
 10
37.358
 11
37.65
 20
-9.154
 21
-9.266
  0
LINE
  8
0
 10
37.65
 11
37.893
 20
-9.266
 21
-9.463
  0
LINE
  8
0
 10
37.893
 11
38.064
 20
-9.463
 21
-9.726
  0
LINE
  8
0
 10
38.064
 11
38.145
 20
-9.726
 21
-10.028
  0
LINE
  8
0
 10
38.145
 11
38.128
 20
-10.028
 21
-10.34
  0
LINE
  8
0
 10
38.128
 11
38.016
 20
-10.34
 21
-10.632
  0
LINE
  8
0
 10
38.016
 11
37.819
 20
-10.632
 21
-10.876
  0
LINE
  8
0
 10
37.819
 11
37.557
 20
-10.876
 21
-11.046
  0
LINE
  8
0
 10
37.557
 11
37.255
 20
-11.046
 21
-11.127
  0
LINE
  8
0
 10
37.255
 11
36.942
 20
-11.127
 21
-11.111
  0
LINE
  8
0
 10
36.942
 11
36.65
 20
-11.111
 21
-10.999
  0
LINE
  8
0
 10
36.65
 11
36.407
 20
-10.999
 21
-10.802
  0
LINE
  8
0
 10
36.407
 11
36.236
 20
-10.802
 21
-10.539
  0
LINE
  8
0
 10
36.236
 11
36.155
 20
-10.539
 21
-10.237
  0
LINE
  8
0
 10
36.155
 11
36.236
 20
10.237
 21
10.539
  0
LINE
  8
0
 10
36.236
 11
36.407
 20
10.539
 21
10.802
  0
LINE
  8
0
 10
36.407
 11
36.65
 20
10.802
 21
10.999
  0
LINE
  8
0
 10
36.65
 11
36.942
 20
10.999
 21
11.111
  0
LINE
  8
0
 10
36.942
 11
37.255
 20
11.111
 21
11.127
  0
LINE
  8
0
 10
37.255
 11
37.557
 20
11.127
 21
11.046
  0
LINE
  8
0
 10
37.557
 11
37.819
 20
11.046
 21
10.876
  0
LINE
  8
0
 10
37.819
 11
38.016
 20
10.876
 21
10.632
  0
LINE
  8
0
 10
38.016
 11
38.128
 20
10.632
 21
10.34
  0
LINE
  8
0
 10
38.128
 11
38.145
 20
10.34
 21
10.028
  0
LINE
  8
0
 10
38.145
 11
38.064
 20
10.028
 21
9.726
  0
LINE
  8
0
 10
38.064
 11
37.893
 20
9.726
 21
9.463
  0
LINE
  8
0
 10
37.893
 11
37.65
 20
9.463
 21
9.266
  0
LINE
  8
0
 10
37.65
 11
37.358
 20
9.266
 21
9.154
  0
LINE
  8
0
 10
37.358
 11
37.045
 20
9.154
 21
9.138
  0
LINE
  8
0
 10
37.045
 11
36.743
 20
9.138
 21
9.219
  0
LINE
  8
0
 10
36.743
 11
36.481
 20
9.219
 21
9.389
  0
LINE
  8
0
 10
36.481
 11
36.284
 20
9.389
 21
9.632
  0
LINE
  8
0
 10
36.284
 11
36.172
 20
9.632
 21
9.925
  0
LINE
  8
0
 10
36.172
 11
36.155
 20
9.925
 21
10.237
  0
LINE
  8
0
 10
40.5
 11
40.501
 20
0
 21
0.079
  0
LINE
  8
0
 10
40.501
 11
40.505
 20
0.079
 21
0.157
  0
LINE
  8
0
 10
40.505
 11
40.511
 20
0.157
 21
0.235
  0
LINE
  8
0
 10
40.511
 11
40.52
 20
0.235
 21
0.313
  0
LINE
  8
0
 10
40.52
 11
40.531
 20
0.313
 21
0.391
  0
LINE
  8
0
 10
40.531
 11
40.544
 20
0.391
 21
0.468
  0
LINE
  8
0
 10
40.544
 11
40.56
 20
0.468
 21
0.545
  0
LINE
  8
0
 10
40.56
 11
40.579
 20
0.545
 21
0.622
  0
LINE
  8
0
 10
40.579
 11
40.599
 20
0.622
 21
0.697
  0
LINE
  8
0
 10
40.599
 11
40.622
 20
0.697
 21
0.773
  0
LINE
  8
0
 10
40.622
 11
40.648
 20
0.773
 21
0.847
  0
LINE
  8
0
 10
40.648
 11
40.676
 20
0.847
 21
0.92
  0
LINE
  8
0
 10
40.676
 11
40.706
 20
0.92
 21
0.993
  0
LINE
  8
0
 10
40.706
 11
40.738
 20
0.993
 21
1.064
  0
LINE
  8
0
 10
40.738
 11
40.772
 20
1.064
 21
1.135
  0
LINE
  8
0
 10
40.772
 11
40.809
 20
1.135
 21
1.204
  0
LINE
  8
0
 10
40.809
 11
40.848
 20
1.204
 21
1.273
  0
LINE
  8
0
 10
40.848
 11
40.889
 20
1.273
 21
1.34
  0
LINE
  8
0
 10
40.889
 11
40.932
 20
1.34
 21
1.405
  0
LINE
  8
0
 10
40.932
 11
40.977
 20
1.405
 21
1.469
  0
LINE
  8
0
 10
40.977
 11
41.025
 20
1.469
 21
1.532
  0
LINE
  8
0
 10
41.025
 11
41.074
 20
1.532
 21
1.594
  0
LINE
  8
0
 10
41.074
 11
41.125
 20
1.594
 21
1.653
  0
LINE
  8
0
 10
41.125
 11
41.178
 20
1.653
 21
1.711
  0
LINE
  8
0
 10
41.178
 11
41.232
 20
1.711
 21
1.768
  0
LINE
  8
0
 10
41.232
 11
41.289
 20
1.768
 21
1.822
  0
LINE
  8
0
 10
41.289
 11
41.347
 20
1.822
 21
1.875
  0
LINE
  8
0
 10
41.347
 11
41.406
 20
1.875
 21
1.926
  0
LINE
  8
0
 10
41.406
 11
41.468
 20
1.926
 21
1.975
  0
LINE
  8
0
 10
41.468
 11
41.531
 20
1.975
 21
2.023
  0
LINE
  8
0
 10
41.531
 11
41.595
 20
2.023
 21
2.068
  0
LINE
  8
0
 10
41.595
 11
41.66
 20
2.068
 21
2.111
  0
LINE
  8
0
 10
41.66
 11
41.727
 20
2.111
 21
2.152
  0
LINE
  8
0
 10
41.727
 11
41.796
 20
2.152
 21
2.191
  0
LINE
  8
0
 10
41.796
 11
41.865
 20
2.191
 21
2.228
  0
LINE
  8
0
 10
41.865
 11
41.936
 20
2.228
 21
2.262
  0
LINE
  8
0
 10
41.936
 11
42.007
 20
2.262
 21
2.294
  0
LINE
  8
0
 10
42.007
 11
42.08
 20
2.294
 21
2.324
  0
LINE
  8
0
 10
42.08
 11
42.153
 20
2.324
 21
2.352
  0
LINE
  8
0
 10
42.153
 11
42.227
 20
2.352
 21
2.378
  0
LINE
  8
0
 10
42.227
 11
42.303
 20
2.378
 21
2.401
  0
LINE
  8
0
 10
42.303
 11
42.378
 20
2.401
 21
2.421
  0
LINE
  8
0
 10
42.378
 11
42.455
 20
2.421
 21
2.44
  0
LINE
  8
0
 10
42.455
 11
42.532
 20
2.44
 21
2.456
  0
LINE
  8
0
 10
42.532
 11
42.609
 20
2.456
 21
2.469
  0
LINE
  8
0
 10
42.609
 11
42.687
 20
2.469
 21
2.48
  0
LINE
  8
0
 10
42.687
 11
42.765
 20
2.48
 21
2.489
  0
LINE
  8
0
 10
42.765
 11
42.843
 20
2.489
 21
2.495
  0
LINE
  8
0
 10
42.843
 11
42.921
 20
2.495
 21
2.499
  0
LINE
  8
0
 10
42.921
 11
43
 20
2.499
 21
2.5
  0
LINE
  8
0
 10
43
 11
43.079
 20
2.5
 21
2.499
  0
LINE
  8
0
 10
43.079
 11
43.157
 20
2.499
 21
2.495
  0
LINE
  8
0
 10
43.157
 11
43.235
 20
2.495
 21
2.489
  0
LINE
  8
0
 10
43.235
 11
43.313
 20
2.489
 21
2.48
  0
LINE
  8
0
 10
43.313
 11
43.391
 20
2.48
 21
2.469
  0
LINE
  8
0
 10
43.391
 11
43.468
 20
2.469
 21
2.456
  0
LINE
  8
0
 10
43.468
 11
43.545
 20
2.456
 21
2.44
  0
LINE
  8
0
 10
43.545
 11
43.622
 20
2.44
 21
2.421
  0
LINE
  8
0
 10
43.622
 11
43.697
 20
2.421
 21
2.401
  0
LINE
  8
0
 10
43.697
 11
43.773
 20
2.401
 21
2.378
  0
LINE
  8
0
 10
43.773
 11
43.847
 20
2.378
 21
2.352
  0
LINE
  8
0
 10
43.847
 11
43.92
 20
2.352
 21
2.324
  0
LINE
  8
0
 10
43.92
 11
43.993
 20
2.324
 21
2.294
  0
LINE
  8
0
 10
43.993
 11
44.064
 20
2.294
 21
2.262
  0
LINE
  8
0
 10
44.064
 11
44.135
 20
2.262
 21
2.228
  0
LINE
  8
0
 10
44.135
 11
44.204
 20
2.228
 21
2.191
  0
LINE
  8
0
 10
44.204
 11
44.273
 20
2.191
 21
2.152
  0
LINE
  8
0
 10
44.273
 11
44.34
 20
2.152
 21
2.111
  0
LINE
  8
0
 10
44.34
 11
44.405
 20
2.111
 21
2.068
  0
LINE
  8
0
 10
44.405
 11
44.469
 20
2.068
 21
2.023
  0
LINE
  8
0
 10
44.469
 11
44.532
 20
2.023
 21
1.975
  0
LINE
  8
0
 10
44.532
 11
44.594
 20
1.975
 21
1.926
  0
LINE
  8
0
 10
44.594
 11
44.653
 20
1.926
 21
1.875
  0
LINE
  8
0
 10
44.653
 11
44.711
 20
1.875
 21
1.822
  0
LINE
  8
0
 10
44.711
 11
44.768
 20
1.822
 21
1.768
  0
LINE
  8
0
 10
44.768
 11
44.822
 20
1.768
 21
1.711
  0
LINE
  8
0
 10
44.822
 11
44.875
 20
1.711
 21
1.653
  0
LINE
  8
0
 10
44.875
 11
44.926
 20
1.653
 21
1.594
  0
LINE
  8
0
 10
44.926
 11
44.975
 20
1.594
 21
1.532
  0
LINE
  8
0
 10
44.975
 11
45.023
 20
1.532
 21
1.469
  0
LINE
  8
0
 10
45.023
 11
45.068
 20
1.469
 21
1.405
  0
LINE
  8
0
 10
45.068
 11
45.111
 20
1.405
 21
1.34
  0
LINE
  8
0
 10
45.111
 11
45.152
 20
1.34
 21
1.273
  0
LINE
  8
0
 10
45.152
 11
45.191
 20
1.273
 21
1.204
  0
LINE
  8
0
 10
45.191
 11
45.228
 20
1.204
 21
1.135
  0
LINE
  8
0
 10
45.228
 11
45.262
 20
1.135
 21
1.064
  0
LINE
  8
0
 10
45.262
 11
45.294
 20
1.064
 21
0.993
  0
LINE
  8
0
 10
45.294
 11
45.324
 20
0.993
 21
0.92
  0
LINE
  8
0
 10
45.324
 11
45.352
 20
0.92
 21
0.847
  0
LINE
  8
0
 10
45.352
 11
45.378
 20
0.847
 21
0.773
  0
LINE
  8
0
 10
45.378
 11
45.401
 20
0.773
 21
0.697
  0
LINE
  8
0
 10
45.401
 11
45.421
 20
0.697
 21
0.622
  0
LINE
  8
0
 10
45.421
 11
45.44
 20
0.622
 21
0.545
  0
LINE
  8
0
 10
45.44
 11
45.456
 20
0.545
 21
0.468
  0
LINE
  8
0
 10
45.456
 11
45.469
 20
0.468
 21
0.391
  0
LINE
  8
0
 10
45.469
 11
45.48
 20
0.391
 21
0.313
  0
LINE
  8
0
 10
45.48
 11
45.489
 20
0.313
 21
0.235
  0
LINE
  8
0
 10
45.489
 11
45.495
 20
0.235
 21
0.157
  0
LINE
  8
0
 10
45.495
 11
45.499
 20
0.157
 21
0.079
  0
LINE
  8
0
 10
45.499
 11
45.5
 20
0.079
 21
0
  0
LINE
  8
0
 10
45.5
 11
45.499
 20
0
 21
-0.079
  0
LINE
  8
0
 10
45.499
 11
45.495
 20
-0.079
 21
-0.157
  0
LINE
  8
0
 10
45.495
 11
45.489
 20
-0.157
 21
-0.235
  0
LINE
  8
0
 10
45.489
 11
45.48
 20
-0.235
 21
-0.313
  0
LINE
  8
0
 10
45.48
 11
45.469
 20
-0.313
 21
-0.391
  0
LINE
  8
0
 10
45.469
 11
45.456
 20
-0.391
 21
-0.468
  0
LINE
  8
0
 10
45.456
 11
45.44
 20
-0.468
 21
-0.545
  0
LINE
  8
0
 10
45.44
 11
45.421
 20
-0.545
 21
-0.622
  0
LINE
  8
0
 10
45.421
 11
45.401
 20
-0.622
 21
-0.697
  0
LINE
  8
0
 10
45.401
 11
45.378
 20
-0.697
 21
-0.773
  0
LINE
  8
0
 10
45.378
 11
45.352
 20
-0.773
 21
-0.847
  0
LINE
  8
0
 10
45.352
 11
45.324
 20
-0.847
 21
-0.92
  0
LINE
  8
0
 10
45.324
 11
45.294
 20
-0.92
 21
-0.993
  0
LINE
  8
0
 10
45.294
 11
45.262
 20
-0.993
 21
-1.064
  0
LINE
  8
0
 10
45.262
 11
45.228
 20
-1.064
 21
-1.135
  0
LINE
  8
0
 10
45.228
 11
45.191
 20
-1.135
 21
-1.204
  0
LINE
  8
0
 10
45.191
 11
45.152
 20
-1.204
 21
-1.273
  0
LINE
  8
0
 10
45.152
 11
45.111
 20
-1.273
 21
-1.34
  0
LINE
  8
0
 10
45.111
 11
45.068
 20
-1.34
 21
-1.405
  0
LINE
  8
0
 10
45.068
 11
45.023
 20
-1.405
 21
-1.469
  0
LINE
  8
0
 10
45.023
 11
44.975
 20
-1.469
 21
-1.532
  0
LINE
  8
0
 10
44.975
 11
44.926
 20
-1.532
 21
-1.594
  0
LINE
  8
0
 10
44.926
 11
44.875
 20
-1.594
 21
-1.653
  0
LINE
  8
0
 10
44.875
 11
44.822
 20
-1.653
 21
-1.711
  0
LINE
  8
0
 10
44.822
 11
44.768
 20
-1.711
 21
-1.768
  0
LINE
  8
0
 10
44.768
 11
44.711
 20
-1.768
 21
-1.822
  0
LINE
  8
0
 10
44.711
 11
44.653
 20
-1.822
 21
-1.875
  0
LINE
  8
0
 10
44.653
 11
44.594
 20
-1.875
 21
-1.926
  0
LINE
  8
0
 10
44.594
 11
44.532
 20
-1.926
 21
-1.975
  0
LINE
  8
0
 10
44.532
 11
44.469
 20
-1.975
 21
-2.023
  0
LINE
  8
0
 10
44.469
 11
44.405
 20
-2.023
 21
-2.068
  0
LINE
  8
0
 10
44.405
 11
44.34
 20
-2.068
 21
-2.111
  0
LINE
  8
0
 10
44.34
 11
44.273
 20
-2.111
 21
-2.152
  0
LINE
  8
0
 10
44.273
 11
44.204
 20
-2.152
 21
-2.191
  0
LINE
  8
0
 10
44.204
 11
44.135
 20
-2.191
 21
-2.228
  0
LINE
  8
0
 10
44.135
 11
44.064
 20
-2.228
 21
-2.262
  0
LINE
  8
0
 10
44.064
 11
43.993
 20
-2.262
 21
-2.294
  0
LINE
  8
0
 10
43.993
 11
43.92
 20
-2.294
 21
-2.324
  0
LINE
  8
0
 10
43.92
 11
43.847
 20
-2.324
 21
-2.352
  0
LINE
  8
0
 10
43.847
 11
43.773
 20
-2.352
 21
-2.378
  0
LINE
  8
0
 10
43.773
 11
43.697
 20
-2.378
 21
-2.401
  0
LINE
  8
0
 10
43.697
 11
43.622
 20
-2.401
 21
-2.421
  0
LINE
  8
0
 10
43.622
 11
43.545
 20
-2.421
 21
-2.44
  0
LINE
  8
0
 10
43.545
 11
43.468
 20
-2.44
 21
-2.456
  0
LINE
  8
0
 10
43.468
 11
43.391
 20
-2.456
 21
-2.469
  0
LINE
  8
0
 10
43.391
 11
43.313
 20
-2.469
 21
-2.48
  0
LINE
  8
0
 10
43.313
 11
43.235
 20
-2.48
 21
-2.489
  0
LINE
  8
0
 10
43.235
 11
43.157
 20
-2.489
 21
-2.495
  0
LINE
  8
0
 10
43.157
 11
43.079
 20
-2.495
 21
-2.499
  0
LINE
  8
0
 10
43.079
 11
43
 20
-2.499
 21
-2.5
  0
LINE
  8
0
 10
43
 11
42.921
 20
-2.5
 21
-2.499
  0
LINE
  8
0
 10
42.921
 11
42.843
 20
-2.499
 21
-2.495
  0
LINE
  8
0
 10
42.843
 11
42.765
 20
-2.495
 21
-2.489
  0
LINE
  8
0
 10
42.765
 11
42.687
 20
-2.489
 21
-2.48
  0
LINE
  8
0
 10
42.687
 11
42.609
 20
-2.48
 21
-2.469
  0
LINE
  8
0
 10
42.609
 11
42.532
 20
-2.469
 21
-2.456
  0
LINE
  8
0
 10
42.532
 11
42.455
 20
-2.456
 21
-2.44
  0
LINE
  8
0
 10
42.455
 11
42.378
 20
-2.44
 21
-2.421
  0
LINE
  8
0
 10
42.378
 11
42.303
 20
-2.421
 21
-2.401
  0
LINE
  8
0
 10
42.303
 11
42.227
 20
-2.401
 21
-2.378
  0
LINE
  8
0
 10
42.227
 11
42.153
 20
-2.378
 21
-2.352
  0
LINE
  8
0
 10
42.153
 11
42.08
 20
-2.352
 21
-2.324
  0
LINE
  8
0
 10
42.08
 11
42.007
 20
-2.324
 21
-2.294
  0
LINE
  8
0
 10
42.007
 11
41.936
 20
-2.294
 21
-2.262
  0
LINE
  8
0
 10
41.936
 11
41.865
 20
-2.262
 21
-2.228
  0
LINE
  8
0
 10
41.865
 11
41.796
 20
-2.228
 21
-2.191
  0
LINE
  8
0
 10
41.796
 11
41.727
 20
-2.191
 21
-2.152
  0
LINE
  8
0
 10
41.727
 11
41.66
 20
-2.152
 21
-2.111
  0
LINE
  8
0
 10
41.66
 11
41.595
 20
-2.111
 21
-2.068
  0
LINE
  8
0
 10
41.595
 11
41.531
 20
-2.068
 21
-2.023
  0
LINE
  8
0
 10
41.531
 11
41.468
 20
-2.023
 21
-1.975
  0
LINE
  8
0
 10
41.468
 11
41.406
 20
-1.975
 21
-1.926
  0
LINE
  8
0
 10
41.406
 11
41.347
 20
-1.926
 21
-1.875
  0
LINE
  8
0
 10
41.347
 11
41.289
 20
-1.875
 21
-1.822
  0
LINE
  8
0
 10
41.289
 11
41.232
 20
-1.822
 21
-1.768
  0
LINE
  8
0
 10
41.232
 11
41.178
 20
-1.768
 21
-1.711
  0
LINE
  8
0
 10
41.178
 11
41.125
 20
-1.711
 21
-1.653
  0
LINE
  8
0
 10
41.125
 11
41.074
 20
-1.653
 21
-1.594
  0
LINE
  8
0
 10
41.074
 11
41.025
 20
-1.594
 21
-1.532
  0
LINE
  8
0
 10
41.025
 11
40.977
 20
-1.532
 21
-1.469
  0
LINE
  8
0
 10
40.977
 11
40.932
 20
-1.469
 21
-1.405
  0
LINE
  8
0
 10
40.932
 11
40.889
 20
-1.405
 21
-1.34
  0
LINE
  8
0
 10
40.889
 11
40.848
 20
-1.34
 21
-1.273
  0
LINE
  8
0
 10
40.848
 11
40.809
 20
-1.273
 21
-1.204
  0
LINE
  8
0
 10
40.809
 11
40.772
 20
-1.204
 21
-1.135
  0
LINE
  8
0
 10
40.772
 11
40.738
 20
-1.135
 21
-1.064
  0
LINE
  8
0
 10
40.738
 11
40.706
 20
-1.064
 21
-0.993
  0
LINE
  8
0
 10
40.706
 11
40.676
 20
-0.993
 21
-0.92
  0
LINE
  8
0
 10
40.676
 11
40.648
 20
-0.92
 21
-0.847
  0
LINE
  8
0
 10
40.648
 11
40.622
 20
-0.847
 21
-0.773
  0
LINE
  8
0
 10
40.622
 11
40.599
 20
-0.773
 21
-0.697
  0
LINE
  8
0
 10
40.599
 11
40.579
 20
-0.697
 21
-0.622
  0
LINE
  8
0
 10
40.579
 11
40.56
 20
-0.622
 21
-0.545
  0
LINE
  8
0
 10
40.56
 11
40.544
 20
-0.545
 21
-0.468
  0
LINE
  8
0
 10
40.544
 11
40.531
 20
-0.468
 21
-0.391
  0
LINE
  8
0
 10
40.531
 11
40.52
 20
-0.391
 21
-0.313
  0
LINE
  8
0
 10
40.52
 11
40.511
 20
-0.313
 21
-0.235
  0
LINE
  8
0
 10
40.511
 11
40.505
 20
-0.235
 21
-0.157
  0
LINE
  8
0
 10
40.505
 11
40.501
 20
-0.157
 21
-0.079
  0
LINE
  8
0
 10
40.501
 11
40.5
 20
-0.079
 21
0
  0
LINE
  8
0
 10
53.7
 11
53.749
 20
0
 21
0.309
  0
LINE
  8
0
 10
53.749
 11
53.891
 20
0.309
 21
0.588
  0
LINE
  8
0
 10
53.891
 11
54.112
 20
0.588
 21
0.809
  0
LINE
  8
0
 10
54.112
 11
54.391
 20
0.809
 21
0.951
  0
LINE
  8
0
 10
54.391
 11
54.7
 20
0.951
 21
1
  0
LINE
  8
0
 10
54.7
 11
55.009
 20
1
 21
0.951
  0
LINE
  8
0
 10
55.009
 11
55.288
 20
0.951
 21
0.809
  0
LINE
  8
0
 10
55.288
 11
55.509
 20
0.809
 21
0.588
  0
LINE
  8
0
 10
55.509
 11
55.651
 20
0.588
 21
0.309
  0
LINE
  8
0
 10
55.651
 11
55.7
 20
0.309
 21
0
  0
LINE
  8
0
 10
55.7
 11
55.651
 20
0
 21
-0.309
  0
LINE
  8
0
 10
55.651
 11
55.509
 20
-0.309
 21
-0.588
  0
LINE
  8
0
 10
55.509
 11
55.288
 20
-0.588
 21
-0.809
  0
LINE
  8
0
 10
55.288
 11
55.009
 20
-0.809
 21
-0.951
  0
LINE
  8
0
 10
55.009
 11
54.7
 20
-0.951
 21
-1
  0
LINE
  8
0
 10
54.7
 11
54.391
 20
-1
 21
-0.951
  0
LINE
  8
0
 10
54.391
 11
54.112
 20
-0.951
 21
-0.809
  0
LINE
  8
0
 10
54.112
 11
53.891
 20
-0.809
 21
-0.588
  0
LINE
  8
0
 10
53.891
 11
53.749
 20
-0.588
 21
-0.309
  0
LINE
  8
0
 10
53.749
 11
53.7
 20
-0.309
 21
0
  0
ENDSEC
  0
SECTION
  2
OBJECTS
  0
DICTIONARY
  0
ENDSEC
  0
EOF
