  0
SECTION
  2
BLOCKS
  0
ENDSEC
  0
SECTION
  2
ENTITIES
  0
LINE
  8
0
 10
-96
 11
-92.448
 20
-55.428
 21
-49.272
  0
LINE
  8
0
 10
-92.448
 11
-96
 20
-49.272
 21
-43.104
  0
LINE
  8
0
 10
-96
 11
-88.884
 20
-43.104
 21
-43.104
  0
LINE
  8
0
 10
-88.884
 11
-85.332
 20
-43.104
 21
-36.948
  0
LINE
  8
0
 10
-85.332
 11
-88.884
 20
-36.948
 21
-30.792
  0
LINE
  8
0
 10
-88.884
 11
-96
 20
-30.792
 21
-30.792
  0
LINE
  8
0
 10
-96
 11
-92.448
 20
-30.792
 21
-24.636
  0
LINE
  8
0
 10
-92.448
 11
-96
 20
-24.636
 21
-18.48
  0
LINE
  8
0
 10
-96
 11
-88.884
 20
-18.48
 21
-18.48
  0
LINE
  8
0
 10
-88.884
 11
-85.332
 20
-18.48
 21
-12.312
  0
LINE
  8
0
 10
-85.332
 11
-81.78
 20
-12.312
 21
-18.48
  0
LINE
  8
0
 10
-81.78
 11
-74.664
 20
-18.48
 21
-18.48
  0
LINE
  8
0
 10
-74.664
 11
-71.112
 20
-18.48
 21
-12.312
  0
LINE
  8
0
 10
-71.112
 11
-74.664
 20
-12.312
 21
-6.156
  0
LINE
  8
0
 10
-74.664
 11
-67.56
 20
-6.156
 21
-6.156
  0
LINE
  8
0
 10
-67.56
 11
-63.996
 20
-6.156
 21
0
  0
LINE
  8
0
 10
-63.996
 11
-67.56
 20
0
 21
6.156
  0
LINE
  8
0
 10
-67.56
 11
-74.664
 20
6.156
 21
6.156
  0
LINE
  8
0
 10
-74.664
 11
-71.112
 20
6.156
 21
12.312
  0
LINE
  8
0
 10
-71.112
 11
-74.664
 20
12.312
 21
18.48
  0
LINE
  8
0
 10
-74.664
 11
-81.78
 20
18.48
 21
18.48
  0
LINE
  8
0
 10
-81.78
 11
-85.332
 20
18.48
 21
12.312
  0
LINE
  8
0
 10
-85.332
 11
-88.884
 20
12.312
 21
18.48
  0
LINE
  8
0
 10
-88.884
 11
-96
 20
18.48
 21
18.48
  0
LINE
  8
0
 10
-96
 11
-92.448
 20
18.48
 21
24.636
  0
LINE
  8
0
 10
-92.448
 11
-96
 20
24.636
 21
30.792
  0
LINE
  8
0
 10
-96
 11
-88.884
 20
30.792
 21
30.792
  0
LINE
  8
0
 10
-88.884
 11
-85.332
 20
30.792
 21
36.948
  0
LINE
  8
0
 10
-85.332
 11
-88.884
 20
36.948
 21
43.104
  0
LINE
  8
0
 10
-88.884
 11
-96
 20
43.104
 21
43.104
  0
LINE
  8
0
 10
-96
 11
-92.448
 20
43.104
 21
49.272
  0
LINE
  8
0
 10
-92.448
 11
-96
 20
49.272
 21
55.428
  0
LINE
  8
0
 10
-96
 11
-88.884
 20
55.428
 21
55.428
  0
LINE
  8
0
 10
-88.884
 11
-85.332
 20
55.428
 21
61.584
  0
LINE
  8
0
 10
-85.332
 11
-81.78
 20
61.584
 21
55.428
  0
LINE
  8
0
 10
-81.78
 11
-74.664
 20
55.428
 21
55.428
  0
LINE
  8
0
 10
-74.664
 11
-71.112
 20
55.428
 21
61.584
  0
LINE
  8
0
 10
-71.112
 11
-74.664
 20
61.584
 21
67.74
  0
LINE
  8
0
 10
-74.664
 11
-67.56
 20
67.74
 21
67.74
  0
LINE
  8
0
 10
-67.56
 11
-63.996
 20
67.74
 21
73.896
  0
LINE
  8
0
 10
-63.996
 11
-60.444
 20
73.896
 21
67.74
  0
LINE
  8
0
 10
-60.444
 11
-53.328
 20
67.74
 21
67.74
  0
LINE
  8
0
 10
-53.328
 11
-56.892
 20
67.74
 21
61.584
  0
LINE
  8
0
 10
-56.892
 11
-53.328
 20
61.584
 21
55.428
  0
LINE
  8
0
 10
-53.328
 11
-46.224
 20
55.428
 21
55.428
  0
LINE
  8
0
 10
-46.224
 11
-42.672
 20
55.428
 21
61.584
  0
LINE
  8
0
 10
-42.672
 11
-39.108
 20
61.584
 21
55.428
  0
LINE
  8
0
 10
-39.108
 11
-32.004
 20
55.428
 21
55.428
  0
LINE
  8
0
 10
-32.004
 11
-28.44
 20
55.428
 21
61.584
  0
LINE
  8
0
 10
-28.44
 11
-32.004
 20
61.584
 21
67.74
  0
LINE
  8
0
 10
-32.004
 11
-24.888
 20
67.74
 21
67.74
  0
LINE
  8
0
 10
-24.888
 11
-21.336
 20
67.74
 21
73.896
  0
LINE
  8
0
 10
-21.336
 11
-24.888
 20
73.896
 21
80.064
  0
LINE
  8
0
 10
-24.888
 11
-32.004
 20
80.064
 21
80.064
  0
LINE
  8
0
 10
-32.004
 11
-28.44
 20
80.064
 21
86.22
  0
LINE
  8
0
 10
-28.44
 11
-32.004
 20
86.22
 21
92.376
  0
LINE
  8
0
 10
-32.004
 11
-24.888
 20
92.376
 21
92.376
  0
LINE
  8
0
 10
-24.888
 11
-21.336
 20
92.376
 21
98.532
  0
LINE
  8
0
 10
-21.336
 11
-17.772
 20
98.532
 21
92.376
  0
LINE
  8
0
 10
-17.772
 11
-10.668
 20
92.376
 21
92.376
  0
LINE
  8
0
 10
-10.668
 11
-7.116
 20
92.376
 21
98.532
  0
LINE
  8
0
 10
-7.116
 11
-10.668
 20
98.532
 21
104.688
  0
LINE
  8
0
 10
-10.668
 11
-3.552
 20
104.688
 21
104.688
  0
LINE
  8
0
 10
-3.552
 11
0
 20
104.688
 21
110.856
  0
LINE
  8
0
 10
0
 11
3.552
 20
110.856
 21
104.688
  0
LINE
  8
0
 10
3.552
 11
10.668
 20
104.688
 21
104.688
  0
LINE
  8
0
 10
10.668
 11
7.116
 20
104.688
 21
98.532
  0
LINE
  8
0
 10
7.116
 11
10.668
 20
98.532
 21
92.376
  0
LINE
  8
0
 10
10.668
 11
17.772
 20
92.376
 21
92.376
  0
LINE
  8
0
 10
17.772
 11
21.336
 20
92.376
 21
98.532
  0
LINE
  8
0
 10
21.336
 11
24.888
 20
98.532
 21
92.376
  0
LINE
  8
0
 10
24.888
 11
32.004
 20
92.376
 21
92.376
  0
LINE
  8
0
 10
32.004
 11
28.44
 20
92.376
 21
86.22
  0
LINE
  8
0
 10
28.44
 11
32.004
 20
86.22
 21
80.064
  0
LINE
  8
0
 10
32.004
 11
24.888
 20
80.064
 21
80.064
  0
LINE
  8
0
 10
24.888
 11
21.336
 20
80.064
 21
73.896
  0
LINE
  8
0
 10
21.336
 11
24.888
 20
73.896
 21
67.74
  0
LINE
  8
0
 10
24.888
 11
32.004
 20
67.74
 21
67.74
  0
LINE
  8
0
 10
32.004
 11
28.44
 20
67.74
 21
61.584
  0
LINE
  8
0
 10
28.44
 11
32.004
 20
61.584
 21
55.428
  0
LINE
  8
0
 10
32.004
 11
39.108
 20
55.428
 21
55.428
  0
LINE
  8
0
 10
39.108
 11
42.672
 20
55.428
 21
61.584
  0
LINE
  8
0
 10
42.672
 11
46.224
 20
61.584
 21
55.428
  0
LINE
  8
0
 10
46.224
 11
53.328
 20
55.428
 21
55.428
  0
LINE
  8
0
 10
53.328
 11
56.892
 20
55.428
 21
61.584
  0
LINE
  8
0
 10
56.892
 11
53.328
 20
61.584
 21
67.74
  0
LINE
  8
0
 10
53.328
 11
60.444
 20
67.74
 21
67.74
  0
LINE
  8
0
 10
60.444
 11
63.996
 20
67.74
 21
73.896
  0
LINE
  8
0
 10
63.996
 11
67.56
 20
73.896
 21
67.74
  0
LINE
  8
0
 10
67.56
 11
74.664
 20
67.74
 21
67.74
  0
LINE
  8
0
 10
74.664
 11
71.112
 20
67.74
 21
61.584
  0
LINE
  8
0
 10
71.112
 11
74.664
 20
61.584
 21
55.428
  0
LINE
  8
0
 10
74.664
 11
81.78
 20
55.428
 21
55.428
  0
LINE
  8
0
 10
81.78
 11
85.332
 20
55.428
 21
61.584
  0
LINE
  8
0
 10
85.332
 11
88.884
 20
61.584
 21
55.428
  0
LINE
  8
0
 10
88.884
 11
96
 20
55.428
 21
55.428
  0
LINE
  8
0
 10
96
 11
92.448
 20
55.428
 21
49.272
  0
LINE
  8
0
 10
92.448
 11
96
 20
49.272
 21
43.104
  0
LINE
  8
0
 10
96
 11
88.884
 20
43.104
 21
43.104
  0
LINE
  8
0
 10
88.884
 11
85.332
 20
43.104
 21
36.948
  0
LINE
  8
0
 10
85.332
 11
88.884
 20
36.948
 21
30.792
  0
LINE
  8
0
 10
88.884
 11
96
 20
30.792
 21
30.792
  0
LINE
  8
0
 10
96
 11
92.448
 20
30.792
 21
24.636
  0
LINE
  8
0
 10
92.448
 11
96
 20
24.636
 21
18.48
  0
LINE
  8
0
 10
96
 11
88.884
 20
18.48
 21
18.48
  0
LINE
  8
0
 10
88.884
 11
85.332
 20
18.48
 21
12.312
  0
LINE
  8
0
 10
85.332
 11
81.78
 20
12.312
 21
18.48
  0
LINE
  8
0
 10
81.78
 11
74.664
 20
18.48
 21
18.48
  0
LINE
  8
0
 10
74.664
 11
71.112
 20
18.48
 21
12.312
  0
LINE
  8
0
 10
71.112
 11
74.664
 20
12.312
 21
6.156
  0
LINE
  8
0
 10
74.664
 11
67.56
 20
6.156
 21
6.156
  0
LINE
  8
0
 10
67.56
 11
63.996
 20
6.156
 21
0
  0
LINE
  8
0
 10
63.996
 11
67.56
 20
0
 21
-6.156
  0
LINE
  8
0
 10
67.56
 11
74.664
 20
-6.156
 21
-6.156
  0
LINE
  8
0
 10
74.664
 11
71.112
 20
-6.156
 21
-12.312
  0
LINE
  8
0
 10
71.112
 11
74.664
 20
-12.312
 21
-18.48
  0
LINE
  8
0
 10
74.664
 11
81.78
 20
-18.48
 21
-18.48
  0
LINE
  8
0
 10
81.78
 11
85.332
 20
-18.48
 21
-12.312
  0
LINE
  8
0
 10
85.332
 11
88.884
 20
-12.312
 21
-18.48
  0
LINE
  8
0
 10
88.884
 11
96
 20
-18.48
 21
-18.48
  0
LINE
  8
0
 10
96
 11
92.448
 20
-18.48
 21
-24.636
  0
LINE
  8
0
 10
92.448
 11
96
 20
-24.636
 21
-30.792
  0
LINE
  8
0
 10
96
 11
88.884
 20
-30.792
 21
-30.792
  0
LINE
  8
0
 10
88.884
 11
85.332
 20
-30.792
 21
-36.948
  0
LINE
  8
0
 10
85.332
 11
88.884
 20
-36.948
 21
-43.104
  0
LINE
  8
0
 10
88.884
 11
96
 20
-43.104
 21
-43.104
  0
LINE
  8
0
 10
96
 11
92.448
 20
-43.104
 21
-49.272
  0
LINE
  8
0
 10
92.448
 11
96
 20
-49.272
 21
-55.428
  0
LINE
  8
0
 10
96
 11
88.884
 20
-55.428
 21
-55.428
  0
LINE
  8
0
 10
88.884
 11
85.332
 20
-55.428
 21
-61.584
  0
LINE
  8
0
 10
85.332
 11
81.78
 20
-61.584
 21
-55.428
  0
LINE
  8
0
 10
81.78
 11
74.664
 20
-55.428
 21
-55.428
  0
LINE
  8
0
 10
74.664
 11
71.112
 20
-55.428
 21
-61.584
  0
LINE
  8
0
 10
71.112
 11
74.664
 20
-61.584
 21
-67.74
  0
LINE
  8
0
 10
74.664
 11
67.56
 20
-67.74
 21
-67.74
  0
LINE
  8
0
 10
67.56
 11
63.996
 20
-67.74
 21
-73.896
  0
LINE
  8
0
 10
63.996
 11
60.444
 20
-73.896
 21
-67.74
  0
LINE
  8
0
 10
60.444
 11
53.328
 20
-67.74
 21
-67.74
  0
LINE
  8
0
 10
53.328
 11
56.892
 20
-67.74
 21
-61.584
  0
LINE
  8
0
 10
56.892
 11
53.328
 20
-61.584
 21
-55.428
  0
LINE
  8
0
 10
53.328
 11
46.224
 20
-55.428
 21
-55.428
  0
LINE
  8
0
 10
46.224
 11
42.672
 20
-55.428
 21
-61.584
  0
LINE
  8
0
 10
42.672
 11
39.108
 20
-61.584
 21
-55.428
  0
LINE
  8
0
 10
39.108
 11
32.004
 20
-55.428
 21
-55.428
  0
LINE
  8
0
 10
32.004
 11
28.44
 20
-55.428
 21
-61.584
  0
LINE
  8
0
 10
28.44
 11
32.004
 20
-61.584
 21
-67.74
  0
LINE
  8
0
 10
32.004
 11
24.888
 20
-67.74
 21
-67.74
  0
LINE
  8
0
 10
24.888
 11
21.336
 20
-67.74
 21
-73.896
  0
LINE
  8
0
 10
21.336
 11
24.888
 20
-73.896
 21
-80.064
  0
LINE
  8
0
 10
24.888
 11
32.004
 20
-80.064
 21
-80.064
  0
LINE
  8
0
 10
32.004
 11
28.44
 20
-80.064
 21
-86.22
  0
LINE
  8
0
 10
28.44
 11
32.004
 20
-86.22
 21
-92.376
  0
LINE
  8
0
 10
32.004
 11
24.888
 20
-92.376
 21
-92.376
  0
LINE
  8
0
 10
24.888
 11
21.336
 20
-92.376
 21
-98.532
  0
LINE
  8
0
 10
21.336
 11
17.772
 20
-98.532
 21
-92.376
  0
LINE
  8
0
 10
17.772
 11
10.668
 20
-92.376
 21
-92.376
  0
LINE
  8
0
 10
10.668
 11
7.116
 20
-92.376
 21
-98.532
  0
LINE
  8
0
 10
7.116
 11
10.668
 20
-98.532
 21
-104.688
  0
LINE
  8
0
 10
10.668
 11
3.552
 20
-104.688
 21
-104.688
  0
LINE
  8
0
 10
3.552
 11
0
 20
-104.688
 21
-110.856
  0
LINE
  8
0
 10
0
 11
-3.552
 20
-110.856
 21
-104.688
  0
LINE
  8
0
 10
-3.552
 11
-10.668
 20
-104.688
 21
-104.688
  0
LINE
  8
0
 10
-10.668
 11
-7.116
 20
-104.688
 21
-98.532
  0
LINE
  8
0
 10
-7.116
 11
-10.668
 20
-98.532
 21
-92.376
  0
LINE
  8
0
 10
-10.668
 11
-17.772
 20
-92.376
 21
-92.376
  0
LINE
  8
0
 10
-17.772
 11
-21.336
 20
-92.376
 21
-98.532
  0
LINE
  8
0
 10
-21.336
 11
-24.888
 20
-98.532
 21
-92.376
  0
LINE
  8
0
 10
-24.888
 11
-32.004
 20
-92.376
 21
-92.376
  0
LINE
  8
0
 10
-32.004
 11
-28.44
 20
-92.376
 21
-86.22
  0
LINE
  8
0
 10
-28.44
 11
-32.004
 20
-86.22
 21
-80.064
  0
LINE
  8
0
 10
-32.004
 11
-24.888
 20
-80.064
 21
-80.064
  0
LINE
  8
0
 10
-24.888
 11
-21.336
 20
-80.064
 21
-73.896
  0
LINE
  8
0
 10
-21.336
 11
-24.888
 20
-73.896
 21
-67.74
  0
LINE
  8
0
 10
-24.888
 11
-32.004
 20
-67.74
 21
-67.74
  0
LINE
  8
0
 10
-32.004
 11
-28.44
 20
-67.74
 21
-61.584
  0
LINE
  8
0
 10
-28.44
 11
-32.004
 20
-61.584
 21
-55.428
  0
LINE
  8
0
 10
-32.004
 11
-39.108
 20
-55.428
 21
-55.428
  0
LINE
  8
0
 10
-39.108
 11
-42.672
 20
-55.428
 21
-61.584
  0
LINE
  8
0
 10
-42.672
 11
-46.224
 20
-61.584
 21
-55.428
  0
LINE
  8
0
 10
-46.224
 11
-53.328
 20
-55.428
 21
-55.428
  0
LINE
  8
0
 10
-53.328
 11
-56.892
 20
-55.428
 21
-61.584
  0
LINE
  8
0
 10
-56.892
 11
-53.328
 20
-61.584
 21
-67.74
  0
LINE
  8
0
 10
-53.328
 11
-60.444
 20
-67.74
 21
-67.74
  0
LINE
  8
0
 10
-60.444
 11
-63.996
 20
-67.74
 21
-73.896
  0
LINE
  8
0
 10
-63.996
 11
-67.56
 20
-73.896
 21
-67.74
  0
LINE
  8
0
 10
-67.56
 11
-74.664
 20
-67.74
 21
-67.74
  0
LINE
  8
0
 10
-74.664
 11
-71.112
 20
-67.74
 21
-61.584
  0
LINE
  8
0
 10
-71.112
 11
-74.664
 20
-61.584
 21
-55.428
  0
LINE
  8
0
 10
-74.664
 11
-81.78
 20
-55.428
 21
-55.428
  0
LINE
  8
0
 10
-81.78
 11
-85.332
 20
-55.428
 21
-61.584
  0
LINE
  8
0
 10
-85.332
 11
-88.884
 20
-61.584
 21
-55.428
  0
LINE
  8
0
 10
-88.884
 11
-96
 20
-55.428
 21
-55.428
  0
LINE
  8
0
 10
-78.52
 11
-78.006
 20
-40
 21
-39.703
  0
LINE
  8
0
 10
-78.006
 11
-78.006
 20
-39.703
 21
-39.111
  0
LINE
  8
0
 10
-78.006
 11
-77.493
 20
-39.111
 21
-39.407
  0
LINE
  8
0
 10
-77.493
 11
-76.98
 20
-39.407
 21
-39.111
  0
LINE
  8
0
 10
-76.98
 11
-76.98
 20
-39.111
 21
-38.519
  0
LINE
  8
0
 10
-76.98
 11
-77.493
 20
-38.519
 21
-38.222
  0
LINE
  8
0
 10
-77.493
 11
-76.98
 20
-38.222
 21
-37.926
  0
LINE
  8
0
 10
-76.98
 11
-76.98
 20
-37.926
 21
-37.334
  0
LINE
  8
0
 10
-76.98
 11
-76.467
 20
-37.334
 21
-37.63
  0
LINE
  8
0
 10
-76.467
 11
-75.953
 20
-37.63
 21
-37.333
  0
LINE
  8
0
 10
-75.953
 11
-75.954
 20
-37.333
 21
-37.926
  0
LINE
  8
0
 10
-75.954
 11
-75.44
 20
-37.926
 21
-38.222
  0
LINE
  8
0
 10
-75.44
 11
-74.927
 20
-38.222
 21
-37.926
  0
LINE
  8
0
 10
-74.927
 11
-74.928
 20
-37.926
 21
-37.334
  0
LINE
  8
0
 10
-74.928
 11
-74.414
 20
-37.334
 21
-37.629
  0
LINE
  8
0
 10
-74.414
 11
-73.901
 20
-37.629
 21
-37.333
  0
LINE
  8
0
 10
-73.901
 11
-73.901
 20
-37.333
 21
-36.741
  0
LINE
  8
0
 10
-73.901
 11
-74.414
 20
-36.741
 21
-36.445
  0
LINE
  8
0
 10
-74.414
 11
-73.901
 20
-36.445
 21
-36.148
  0
LINE
  8
0
 10
-73.901
 11
-73.901
 20
-36.148
 21
-35.556
  0
LINE
  8
0
 10
-73.901
 11
-74.414
 20
-35.556
 21
-35.259
  0
LINE
  8
0
 10
-74.414
 11
-74.928
 20
-35.259
 21
-35.555
  0
LINE
  8
0
 10
-74.928
 11
-74.927
 20
-35.555
 21
-34.963
  0
LINE
  8
0
 10
-74.927
 11
-75.441
 20
-34.963
 21
-34.667
  0
LINE
  8
0
 10
-75.441
 11
-74.927
 20
-34.667
 21
-34.37
  0
LINE
  8
0
 10
-74.927
 11
-74.927
 20
-34.37
 21
-33.778
  0
LINE
  8
0
 10
-74.927
 11
-74.414
 20
-33.778
 21
-34.074
  0
LINE
  8
0
 10
-74.414
 11
-73.901
 20
-34.074
 21
-33.778
  0
LINE
  8
0
 10
-73.901
 11
-73.901
 20
-33.778
 21
-33.186
  0
LINE
  8
0
 10
-73.901
 11
-74.414
 20
-33.186
 21
-32.889
  0
LINE
  8
0
 10
-74.414
 11
-73.9
 20
-32.889
 21
-32.593
  0
LINE
  8
0
 10
-73.9
 11
-73.901
 20
-32.593
 21
-32
  0
LINE
  8
0
 10
-73.901
 11
-73.388
 20
-32
 21
-32.297
  0
LINE
  8
0
 10
-73.388
 11
-72.874
 20
-32.297
 21
-32
  0
LINE
  8
0
 10
-72.874
 11
-72.874
 20
-32
 21
-32.593
  0
LINE
  8
0
 10
-72.874
 11
-72.361
 20
-32.593
 21
-32.889
  0
LINE
  8
0
 10
-72.361
 11
-71.848
 20
-32.889
 21
-32.593
  0
LINE
  8
0
 10
-71.848
 11
-71.848
 20
-32.593
 21
-32
  0
LINE
  8
0
 10
-71.848
 11
-71.335
 20
-32
 21
-32.296
  0
LINE
  8
0
 10
-71.335
 11
-70.821
 20
-32.296
 21
-32
  0
LINE
  8
0
 10
-70.821
 11
-70.822
 20
-32
 21
-32.593
  0
LINE
  8
0
 10
-70.822
 11
-70.308
 20
-32.593
 21
-32.888
  0
LINE
  8
0
 10
-70.308
 11
-70.822
 20
-32.888
 21
-33.185
  0
LINE
  8
0
 10
-70.822
 11
-70.821
 20
-33.185
 21
-33.778
  0
LINE
  8
0
 10
-70.821
 11
-70.308
 20
-33.778
 21
-34.074
  0
LINE
  8
0
 10
-70.308
 11
-69.795
 20
-34.074
 21
-33.778
  0
LINE
  8
0
 10
-69.795
 11
-69.796
 20
-33.778
 21
-34.371
  0
LINE
  8
0
 10
-69.796
 11
-69.282
 20
-34.371
 21
-34.666
  0
LINE
  8
0
 10
-69.282
 11
-68.769
 20
-34.666
 21
-34.37
  0
LINE
  8
0
 10
-68.769
 11
-68.768
 20
-34.37
 21
-33.778
  0
LINE
  8
0
 10
-68.768
 11
-68.256
 20
-33.778
 21
-34.074
  0
LINE
  8
0
 10
-68.256
 11
-67.743
 20
-34.074
 21
-33.778
  0
LINE
  8
0
 10
-67.743
 11
-67.742
 20
-33.778
 21
-33.185
  0
LINE
  8
0
 10
-67.742
 11
-68.256
 20
-33.185
 21
-32.889
  0
LINE
  8
0
 10
-68.256
 11
-67.742
 20
-32.889
 21
-32.593
  0
LINE
  8
0
 10
-67.742
 11
-67.743
 20
-32.593
 21
-32.001
  0
LINE
  8
0
 10
-67.743
 11
-67.229
 20
-32.001
 21
-32.296
  0
LINE
  8
0
 10
-67.229
 11
-66.716
 20
-32.296
 21
-32
  0
LINE
  8
0
 10
-66.716
 11
-66.716
 20
-32
 21
-32.593
  0
LINE
  8
0
 10
-66.716
 11
-66.203
 20
-32.593
 21
-32.889
  0
LINE
  8
0
 10
-66.203
 11
-65.69
 20
-32.889
 21
-32.592
  0
LINE
  8
0
 10
-65.69
 11
-65.69
 20
-32.592
 21
-32
  0
LINE
  8
0
 10
-65.69
 11
-65.177
 20
-32
 21
-32.296
  0
LINE
  8
0
 10
-65.177
 11
-64.663
 20
-32.296
 21
-32
  0
LINE
  8
0
 10
-64.663
 11
-64.663
 20
-32
 21
-32.592
  0
LINE
  8
0
 10
-64.663
 11
-64.15
 20
-32.592
 21
-32.889
  0
LINE
  8
0
 10
-64.15
 11
-64.663
 20
-32.889
 21
-33.186
  0
LINE
  8
0
 10
-64.663
 11
-64.663
 20
-33.186
 21
-33.778
  0
LINE
  8
0
 10
-64.663
 11
-64.15
 20
-33.778
 21
-34.074
  0
LINE
  8
0
 10
-64.15
 11
-63.637
 20
-34.074
 21
-33.778
  0
LINE
  8
0
 10
-63.637
 11
-63.637
 20
-33.778
 21
-34.37
  0
LINE
  8
0
 10
-63.637
 11
-63.124
 20
-34.37
 21
-34.666
  0
LINE
  8
0
 10
-63.124
 11
-63.637
 20
-34.666
 21
-34.963
  0
LINE
  8
0
 10
-63.637
 11
-63.637
 20
-34.963
 21
-35.556
  0
LINE
  8
0
 10
-63.637
 11
-64.15
 20
-35.556
 21
-35.259
  0
LINE
  8
0
 10
-64.15
 11
-64.664
 20
-35.259
 21
-35.555
  0
LINE
  8
0
 10
-64.664
 11
-64.663
 20
-35.555
 21
-36.148
  0
LINE
  8
0
 10
-64.663
 11
-64.15
 20
-36.148
 21
-36.445
  0
LINE
  8
0
 10
-64.15
 11
-64.663
 20
-36.445
 21
-36.741
  0
LINE
  8
0
 10
-64.663
 11
-64.664
 20
-36.741
 21
-37.334
  0
LINE
  8
0
 10
-64.664
 11
-64.15
 20
-37.334
 21
-37.629
  0
LINE
  8
0
 10
-64.15
 11
-63.637
 20
-37.629
 21
-37.333
  0
LINE
  8
0
 10
-63.637
 11
-63.637
 20
-37.333
 21
-37.926
  0
LINE
  8
0
 10
-63.637
 11
-63.124
 20
-37.926
 21
-38.223
  0
LINE
  8
0
 10
-63.124
 11
-62.61
 20
-38.223
 21
-37.926
  0
LINE
  8
0
 10
-62.61
 11
-62.611
 20
-37.926
 21
-37.333
  0
LINE
  8
0
 10
-62.611
 11
-62.097
 20
-37.333
 21
-37.63
  0
LINE
  8
0
 10
-62.097
 11
-61.584
 20
-37.63
 21
-37.334
  0
LINE
  8
0
 10
-61.584
 11
-61.584
 20
-37.334
 21
-37.926
  0
LINE
  8
0
 10
-61.584
 11
-61.071
 20
-37.926
 21
-38.222
  0
LINE
  8
0
 10
-61.071
 11
-61.584
 20
-38.222
 21
-38.519
  0
LINE
  8
0
 10
-61.584
 11
-61.584
 20
-38.519
 21
-39.111
  0
LINE
  8
0
 10
-61.584
 11
-61.071
 20
-39.111
 21
-39.407
  0
LINE
  8
0
 10
-61.071
 11
-60.558
 20
-39.407
 21
-39.111
  0
LINE
  8
0
 10
-60.558
 11
-60.557
 20
-39.111
 21
-39.704
  0
LINE
  8
0
 10
-60.557
 11
-60.044
 20
-39.704
 21
-40
  0
LINE
  8
0
 10
-60.044
 11
-60.558
 20
-40
 21
-40.297
  0
LINE
  8
0
 10
-60.558
 11
-60.558
 20
-40.297
 21
-40.889
  0
LINE
  8
0
 10
-60.558
 11
-61.071
 20
-40.889
 21
-40.593
  0
LINE
  8
0
 10
-61.071
 11
-61.584
 20
-40.593
 21
-40.889
  0
LINE
  8
0
 10
-61.584
 11
-61.584
 20
-40.889
 21
-41.481
  0
LINE
  8
0
 10
-61.584
 11
-61.071
 20
-41.481
 21
-41.778
  0
LINE
  8
0
 10
-61.071
 11
-61.584
 20
-41.778
 21
-42.074
  0
LINE
  8
0
 10
-61.584
 11
-61.585
 20
-42.074
 21
-42.666
  0
LINE
  8
0
 10
-61.585
 11
-62.097
 20
-42.666
 21
-42.37
  0
LINE
  8
0
 10
-62.097
 11
-62.611
 20
-42.37
 21
-42.667
  0
LINE
  8
0
 10
-62.611
 11
-62.61
 20
-42.667
 21
-42.074
  0
LINE
  8
0
 10
-62.61
 11
-63.124
 20
-42.074
 21
-41.778
  0
LINE
  8
0
 10
-63.124
 11
-63.637
 20
-41.778
 21
-42.074
  0
LINE
  8
0
 10
-63.637
 11
-63.636
 20
-42.074
 21
-42.666
  0
LINE
  8
0
 10
-63.636
 11
-64.15
 20
-42.666
 21
-42.371
  0
LINE
  8
0
 10
-64.15
 11
-64.663
 20
-42.371
 21
-42.667
  0
LINE
  8
0
 10
-64.663
 11
-64.664
 20
-42.667
 21
-43.259
  0
LINE
  8
0
 10
-64.664
 11
-64.15
 20
-43.259
 21
-43.555
  0
LINE
  8
0
 10
-64.15
 11
-64.663
 20
-43.555
 21
-43.852
  0
LINE
  8
0
 10
-64.663
 11
-64.663
 20
-43.852
 21
-44.444
  0
LINE
  8
0
 10
-64.663
 11
-64.15
 20
-44.444
 21
-44.741
  0
LINE
  8
0
 10
-64.15
 11
-63.636
 20
-44.741
 21
-44.445
  0
LINE
  8
0
 10
-63.636
 11
-63.637
 20
-44.445
 21
-45.037
  0
LINE
  8
0
 10
-63.637
 11
-63.123
 20
-45.037
 21
-45.333
  0
LINE
  8
0
 10
-63.123
 11
-63.637
 20
-45.333
 21
-45.63
  0
LINE
  8
0
 10
-63.637
 11
-63.637
 20
-45.63
 21
-46.222
  0
LINE
  8
0
 10
-63.637
 11
-64.15
 20
-46.222
 21
-45.926
  0
LINE
  8
0
 10
-64.15
 11
-64.663
 20
-45.926
 21
-46.222
  0
LINE
  8
0
 10
-64.663
 11
-64.663
 20
-46.222
 21
-46.814
  0
LINE
  8
0
 10
-64.663
 11
-64.15
 20
-46.814
 21
-47.111
  0
LINE
  8
0
 10
-64.15
 11
-64.664
 20
-47.111
 21
-47.407
  0
LINE
  8
0
 10
-64.664
 11
-64.663
 20
-47.407
 21
-48
  0
LINE
  8
0
 10
-64.663
 11
-65.176
 20
-48
 21
-47.703
  0
LINE
  8
0
 10
-65.176
 11
-65.69
 20
-47.703
 21
-48
  0
LINE
  8
0
 10
-65.69
 11
-65.69
 20
-48
 21
-47.407
  0
LINE
  8
0
 10
-65.69
 11
-66.203
 20
-47.407
 21
-47.111
  0
LINE
  8
0
 10
-66.203
 11
-66.716
 20
-47.111
 21
-47.407
  0
LINE
  8
0
 10
-66.716
 11
-66.716
 20
-47.407
 21
-48
  0
LINE
  8
0
 10
-66.716
 11
-67.229
 20
-48
 21
-47.704
  0
LINE
  8
0
 10
-67.229
 11
-67.743
 20
-47.704
 21
-48
  0
LINE
  8
0
 10
-67.743
 11
-67.742
 20
-48
 21
-47.407
  0
LINE
  8
0
 10
-67.742
 11
-68.256
 20
-47.407
 21
-47.112
  0
LINE
  8
0
 10
-68.256
 11
-67.742
 20
-47.112
 21
-46.815
  0
LINE
  8
0
 10
-67.742
 11
-67.743
 20
-46.815
 21
-46.222
  0
LINE
  8
0
 10
-67.743
 11
-68.256
 20
-46.222
 21
-45.926
  0
LINE
  8
0
 10
-68.256
 11
-68.769
 20
-45.926
 21
-46.222
  0
LINE
  8
0
 10
-68.769
 11
-68.769
 20
-46.222
 21
-45.629
  0
LINE
  8
0
 10
-68.769
 11
-69.282
 20
-45.629
 21
-45.334
  0
LINE
  8
0
 10
-69.282
 11
-69.795
 20
-45.334
 21
-45.63
  0
LINE
  8
0
 10
-69.795
 11
-69.796
 20
-45.63
 21
-46.222
  0
LINE
  8
0
 10
-69.796
 11
-70.308
 20
-46.222
 21
-45.926
  0
LINE
  8
0
 10
-70.308
 11
-70.821
 20
-45.926
 21
-46.222
  0
LINE
  8
0
 10
-70.821
 11
-70.822
 20
-46.222
 21
-46.815
  0
LINE
  8
0
 10
-70.822
 11
-70.308
 20
-46.815
 21
-47.111
  0
LINE
  8
0
 10
-70.308
 11
-70.822
 20
-47.111
 21
-47.407
  0
LINE
  8
0
 10
-70.822
 11
-70.822
 20
-47.407
 21
-47.999
  0
LINE
  8
0
 10
-70.822
 11
-71.335
 20
-47.999
 21
-47.704
  0
LINE
  8
0
 10
-71.335
 11
-71.848
 20
-47.704
 21
-48
  0
LINE
  8
0
 10
-71.848
 11
-71.848
 20
-48
 21
-47.407
  0
LINE
  8
0
 10
-71.848
 11
-72.361
 20
-47.407
 21
-47.111
  0
LINE
  8
0
 10
-72.361
 11
-72.874
 20
-47.111
 21
-47.408
  0
LINE
  8
0
 10
-72.874
 11
-72.874
 20
-47.408
 21
-48
  0
LINE
  8
0
 10
-72.874
 11
-73.387
 20
-48
 21
-47.704
  0
LINE
  8
0
 10
-73.387
 11
-73.901
 20
-47.704
 21
-48
  0
LINE
  8
0
 10
-73.901
 11
-73.901
 20
-48
 21
-47.408
  0
LINE
  8
0
 10
-73.901
 11
-74.414
 20
-47.408
 21
-47.111
  0
LINE
  8
0
 10
-74.414
 11
-73.901
 20
-47.111
 21
-46.814
  0
LINE
  8
0
 10
-73.901
 11
-73.901
 20
-46.814
 21
-46.222
  0
LINE
  8
0
 10
-73.901
 11
-74.414
 20
-46.222
 21
-45.926
  0
LINE
  8
0
 10
-74.414
 11
-74.927
 20
-45.926
 21
-46.222
  0
LINE
  8
0
 10
-74.927
 11
-74.927
 20
-46.222
 21
-45.63
  0
LINE
  8
0
 10
-74.927
 11
-75.44
 20
-45.63
 21
-45.334
  0
LINE
  8
0
 10
-75.44
 11
-74.927
 20
-45.334
 21
-45.037
  0
LINE
  8
0
 10
-74.927
 11
-74.927
 20
-45.037
 21
-44.444
  0
LINE
  8
0
 10
-74.927
 11
-74.414
 20
-44.444
 21
-44.741
  0
LINE
  8
0
 10
-74.414
 11
-73.9
 20
-44.741
 21
-44.445
  0
LINE
  8
0
 10
-73.9
 11
-73.901
 20
-44.445
 21
-43.852
  0
LINE
  8
0
 10
-73.901
 11
-74.414
 20
-43.852
 21
-43.555
  0
LINE
  8
0
 10
-74.414
 11
-73.901
 20
-43.555
 21
-43.259
  0
LINE
  8
0
 10
-73.901
 11
-73.901
 20
-43.259
 21
-42.667
  0
LINE
  8
0
 10
-73.901
 11
-74.414
 20
-42.667
 21
-42.371
  0
LINE
  8
0
 10
-74.414
 11
-74.927
 20
-42.371
 21
-42.667
  0
LINE
  8
0
 10
-74.927
 11
-74.927
 20
-42.667
 21
-42.074
  0
LINE
  8
0
 10
-74.927
 11
-75.44
 20
-42.074
 21
-41.777
  0
LINE
  8
0
 10
-75.44
 11
-75.954
 20
-41.777
 21
-42.074
  0
LINE
  8
0
 10
-75.954
 11
-75.953
 20
-42.074
 21
-42.667
  0
LINE
  8
0
 10
-75.953
 11
-76.467
 20
-42.667
 21
-42.37
  0
LINE
  8
0
 10
-76.467
 11
-76.98
 20
-42.37
 21
-42.666
  0
LINE
  8
0
 10
-76.98
 11
-76.98
 20
-42.666
 21
-42.074
  0
LINE
  8
0
 10
-76.98
 11
-77.493
 20
-42.074
 21
-41.778
  0
LINE
  8
0
 10
-77.493
 11
-76.98
 20
-41.778
 21
-41.481
  0
LINE
  8
0
 10
-76.98
 11
-76.98
 20
-41.481
 21
-40.889
  0
LINE
  8
0
 10
-76.98
 11
-77.493
 20
-40.889
 21
-40.593
  0
LINE
  8
0
 10
-77.493
 11
-78.006
 20
-40.593
 21
-40.889
  0
LINE
  8
0
 10
-78.006
 11
-78.007
 20
-40.889
 21
-40.296
  0
LINE
  8
0
 10
-78.007
 11
-78.52
 20
-40.296
 21
-40
  0
LINE
  8
0
 10
-78.52
 11
-78.006
 20
40
 21
40.297
  0
LINE
  8
0
 10
-78.006
 11
-78.006
 20
40.297
 21
40.889
  0
LINE
  8
0
 10
-78.006
 11
-77.493
 20
40.889
 21
40.593
  0
LINE
  8
0
 10
-77.493
 11
-76.98
 20
40.593
 21
40.889
  0
LINE
  8
0
 10
-76.98
 11
-76.98
 20
40.889
 21
41.481
  0
LINE
  8
0
 10
-76.98
 11
-77.493
 20
41.481
 21
41.778
  0
LINE
  8
0
 10
-77.493
 11
-76.98
 20
41.778
 21
42.074
  0
LINE
  8
0
 10
-76.98
 11
-76.98
 20
42.074
 21
42.666
  0
LINE
  8
0
 10
-76.98
 11
-76.467
 20
42.666
 21
42.37
  0
LINE
  8
0
 10
-76.467
 11
-75.953
 20
42.37
 21
42.667
  0
LINE
  8
0
 10
-75.953
 11
-75.954
 20
42.667
 21
42.074
  0
LINE
  8
0
 10
-75.954
 11
-75.44
 20
42.074
 21
41.778
  0
LINE
  8
0
 10
-75.44
 11
-74.927
 20
41.778
 21
42.074
  0
LINE
  8
0
 10
-74.927
 11
-74.928
 20
42.074
 21
42.666
  0
LINE
  8
0
 10
-74.928
 11
-74.414
 20
42.666
 21
42.371
  0
LINE
  8
0
 10
-74.414
 11
-73.901
 20
42.371
 21
42.667
  0
LINE
  8
0
 10
-73.901
 11
-73.9
 20
42.667
 21
43.259
  0
LINE
  8
0
 10
-73.9
 11
-74.414
 20
43.259
 21
43.555
  0
LINE
  8
0
 10
-74.414
 11
-73.901
 20
43.555
 21
43.852
  0
LINE
  8
0
 10
-73.901
 11
-73.901
 20
43.852
 21
44.444
  0
LINE
  8
0
 10
-73.901
 11
-74.414
 20
44.444
 21
44.741
  0
LINE
  8
0
 10
-74.414
 11
-74.928
 20
44.741
 21
44.445
  0
LINE
  8
0
 10
-74.928
 11
-74.927
 20
44.445
 21
45.037
  0
LINE
  8
0
 10
-74.927
 11
-75.441
 20
45.037
 21
45.333
  0
LINE
  8
0
 10
-75.441
 11
-74.927
 20
45.333
 21
45.63
  0
LINE
  8
0
 10
-74.927
 11
-74.927
 20
45.63
 21
46.222
  0
LINE
  8
0
 10
-74.927
 11
-74.414
 20
46.222
 21
45.926
  0
LINE
  8
0
 10
-74.414
 11
-73.901
 20
45.926
 21
46.222
  0
LINE
  8
0
 10
-73.901
 11
-73.901
 20
46.222
 21
46.814
  0
LINE
  8
0
 10
-73.901
 11
-74.414
 20
46.814
 21
47.111
  0
LINE
  8
0
 10
-74.414
 11
-73.9
 20
47.111
 21
47.407
  0
LINE
  8
0
 10
-73.9
 11
-73.901
 20
47.407
 21
48
  0
LINE
  8
0
 10
-73.901
 11
-73.388
 20
48
 21
47.703
  0
LINE
  8
0
 10
-73.388
 11
-72.874
 20
47.703
 21
48
  0
LINE
  8
0
 10
-72.874
 11
-72.874
 20
48
 21
47.407
  0
LINE
  8
0
 10
-72.874
 11
-72.361
 20
47.407
 21
47.111
  0
LINE
  8
0
 10
-72.361
 11
-71.848
 20
47.111
 21
47.407
  0
LINE
  8
0
 10
-71.848
 11
-71.848
 20
47.407
 21
48
  0
LINE
  8
0
 10
-71.848
 11
-71.335
 20
48
 21
47.704
  0
LINE
  8
0
 10
-71.335
 11
-70.821
 20
47.704
 21
48
  0
LINE
  8
0
 10
-70.821
 11
-70.822
 20
48
 21
47.407
  0
LINE
  8
0
 10
-70.822
 11
-70.308
 20
47.407
 21
47.112
  0
LINE
  8
0
 10
-70.308
 11
-70.822
 20
47.112
 21
46.815
  0
LINE
  8
0
 10
-70.822
 11
-70.821
 20
46.815
 21
46.222
  0
LINE
  8
0
 10
-70.821
 11
-70.308
 20
46.222
 21
45.926
  0
LINE
  8
0
 10
-70.308
 11
-69.795
 20
45.926
 21
46.222
  0
LINE
  8
0
 10
-69.795
 11
-69.796
 20
46.222
 21
45.629
  0
LINE
  8
0
 10
-69.796
 11
-69.282
 20
45.629
 21
45.334
  0
LINE
  8
0
 10
-69.282
 11
-68.769
 20
45.334
 21
45.63
  0
LINE
  8
0
 10
-68.769
 11
-68.768
 20
45.63
 21
46.222
  0
LINE
  8
0
 10
-68.768
 11
-68.256
 20
46.222
 21
45.926
  0
LINE
  8
0
 10
-68.256
 11
-67.743
 20
45.926
 21
46.222
  0
LINE
  8
0
 10
-67.743
 11
-67.742
 20
46.222
 21
46.815
  0
LINE
  8
0
 10
-67.742
 11
-68.256
 20
46.815
 21
47.111
  0
LINE
  8
0
 10
-68.256
 11
-67.742
 20
47.111
 21
47.407
  0
LINE
  8
0
 10
-67.742
 11
-67.743
 20
47.407
 21
47.999
  0
LINE
  8
0
 10
-67.743
 11
-67.229
 20
47.999
 21
47.704
  0
LINE
  8
0
 10
-67.229
 11
-66.716
 20
47.704
 21
48
  0
LINE
  8
0
 10
-66.716
 11
-66.716
 20
48
 21
47.407
  0
LINE
  8
0
 10
-66.716
 11
-66.203
 20
47.407
 21
47.111
  0
LINE
  8
0
 10
-66.203
 11
-65.69
 20
47.111
 21
47.408
  0
LINE
  8
0
 10
-65.69
 11
-65.69
 20
47.408
 21
48
  0
LINE
  8
0
 10
-65.69
 11
-65.177
 20
48
 21
47.704
  0
LINE
  8
0
 10
-65.177
 11
-64.663
 20
47.704
 21
48
  0
LINE
  8
0
 10
-64.663
 11
-64.663
 20
48
 21
47.408
  0
LINE
  8
0
 10
-64.663
 11
-64.15
 20
47.408
 21
47.111
  0
LINE
  8
0
 10
-64.15
 11
-64.663
 20
47.111
 21
46.814
  0
LINE
  8
0
 10
-64.663
 11
-64.663
 20
46.814
 21
46.222
  0
LINE
  8
0
 10
-64.663
 11
-64.15
 20
46.222
 21
45.926
  0
LINE
  8
0
 10
-64.15
 11
-63.637
 20
45.926
 21
46.222
  0
LINE
  8
0
 10
-63.637
 11
-63.637
 20
46.222
 21
45.63
  0
LINE
  8
0
 10
-63.637
 11
-63.124
 20
45.63
 21
45.334
  0
LINE
  8
0
 10
-63.124
 11
-63.637
 20
45.334
 21
45.037
  0
LINE
  8
0
 10
-63.637
 11
-63.637
 20
45.037
 21
44.444
  0
LINE
  8
0
 10
-63.637
 11
-64.15
 20
44.444
 21
44.741
  0
LINE
  8
0
 10
-64.15
 11
-64.664
 20
44.741
 21
44.445
  0
LINE
  8
0
 10
-64.664
 11
-64.663
 20
44.445
 21
43.852
  0
LINE
  8
0
 10
-64.663
 11
-64.15
 20
43.852
 21
43.555
  0
LINE
  8
0
 10
-64.15
 11
-64.663
 20
43.555
 21
43.259
  0
LINE
  8
0
 10
-64.663
 11
-64.664
 20
43.259
 21
42.666
  0
LINE
  8
0
 10
-64.664
 11
-64.15
 20
42.666
 21
42.371
  0
LINE
  8
0
 10
-64.15
 11
-63.637
 20
42.371
 21
42.667
  0
LINE
  8
0
 10
-63.637
 11
-63.637
 20
42.667
 21
42.074
  0
LINE
  8
0
 10
-63.637
 11
-63.124
 20
42.074
 21
41.777
  0
LINE
  8
0
 10
-63.124
 11
-62.61
 20
41.777
 21
42.074
  0
LINE
  8
0
 10
-62.61
 11
-62.611
 20
42.074
 21
42.667
  0
LINE
  8
0
 10
-62.611
 11
-62.097
 20
42.667
 21
42.37
  0
LINE
  8
0
 10
-62.097
 11
-61.584
 20
42.37
 21
42.666
  0
LINE
  8
0
 10
-61.584
 11
-61.584
 20
42.666
 21
42.074
  0
LINE
  8
0
 10
-61.584
 11
-61.071
 20
42.074
 21
41.778
  0
LINE
  8
0
 10
-61.071
 11
-61.584
 20
41.778
 21
41.481
  0
LINE
  8
0
 10
-61.584
 11
-61.584
 20
41.481
 21
40.889
  0
LINE
  8
0
 10
-61.584
 11
-61.071
 20
40.889
 21
40.593
  0
LINE
  8
0
 10
-61.071
 11
-60.558
 20
40.593
 21
40.889
  0
LINE
  8
0
 10
-60.558
 11
-60.557
 20
40.889
 21
40.296
  0
LINE
  8
0
 10
-60.557
 11
-60.044
 20
40.296
 21
40
  0
LINE
  8
0
 10
-60.044
 11
-60.558
 20
40
 21
39.703
  0
LINE
  8
0
 10
-60.558
 11
-60.558
 20
39.703
 21
39.111
  0
LINE
  8
0
 10
-60.558
 11
-61.071
 20
39.111
 21
39.407
  0
LINE
  8
0
 10
-61.071
 11
-61.584
 20
39.407
 21
39.111
  0
LINE
  8
0
 10
-61.584
 11
-61.584
 20
39.111
 21
38.519
  0
LINE
  8
0
 10
-61.584
 11
-61.071
 20
38.519
 21
38.222
  0
LINE
  8
0
 10
-61.071
 11
-61.584
 20
38.222
 21
37.926
  0
LINE
  8
0
 10
-61.584
 11
-61.585
 20
37.926
 21
37.333
  0
LINE
  8
0
 10
-61.585
 11
-62.097
 20
37.333
 21
37.63
  0
LINE
  8
0
 10
-62.097
 11
-62.611
 20
37.63
 21
37.333
  0
LINE
  8
0
 10
-62.611
 11
-62.61
 20
37.333
 21
37.926
  0
LINE
  8
0
 10
-62.61
 11
-63.124
 20
37.926
 21
38.222
  0
LINE
  8
0
 10
-63.124
 11
-63.637
 20
38.222
 21
37.926
  0
LINE
  8
0
 10
-63.637
 11
-63.636
 20
37.926
 21
37.334
  0
LINE
  8
0
 10
-63.636
 11
-64.15
 20
37.334
 21
37.629
  0
LINE
  8
0
 10
-64.15
 11
-64.663
 20
37.629
 21
37.333
  0
LINE
  8
0
 10
-64.663
 11
-64.664
 20
37.333
 21
36.741
  0
LINE
  8
0
 10
-64.664
 11
-64.15
 20
36.741
 21
36.445
  0
LINE
  8
0
 10
-64.15
 11
-64.663
 20
36.445
 21
36.148
  0
LINE
  8
0
 10
-64.663
 11
-64.663
 20
36.148
 21
35.556
  0
LINE
  8
0
 10
-64.663
 11
-64.15
 20
35.556
 21
35.259
  0
LINE
  8
0
 10
-64.15
 11
-63.636
 20
35.259
 21
35.555
  0
LINE
  8
0
 10
-63.636
 11
-63.637
 20
35.555
 21
34.963
  0
LINE
  8
0
 10
-63.637
 11
-63.123
 20
34.963
 21
34.667
  0
LINE
  8
0
 10
-63.123
 11
-63.637
 20
34.667
 21
34.37
  0
LINE
  8
0
 10
-63.637
 11
-63.637
 20
34.37
 21
33.778
  0
LINE
  8
0
 10
-63.637
 11
-64.15
 20
33.778
 21
34.074
  0
LINE
  8
0
 10
-64.15
 11
-64.663
 20
34.074
 21
33.778
  0
LINE
  8
0
 10
-64.663
 11
-64.663
 20
33.778
 21
33.186
  0
LINE
  8
0
 10
-64.663
 11
-64.15
 20
33.186
 21
32.889
  0
LINE
  8
0
 10
-64.15
 11
-64.664
 20
32.889
 21
32.593
  0
LINE
  8
0
 10
-64.664
 11
-64.663
 20
32.593
 21
32
  0
LINE
  8
0
 10
-64.663
 11
-65.176
 20
32
 21
32.297
  0
LINE
  8
0
 10
-65.176
 11
-65.69
 20
32.297
 21
32
  0
LINE
  8
0
 10
-65.69
 11
-65.69
 20
32
 21
32.593
  0
LINE
  8
0
 10
-65.69
 11
-66.203
 20
32.593
 21
32.889
  0
LINE
  8
0
 10
-66.203
 11
-66.716
 20
32.889
 21
32.593
  0
LINE
  8
0
 10
-66.716
 11
-66.716
 20
32.593
 21
32
  0
LINE
  8
0
 10
-66.716
 11
-67.229
 20
32
 21
32.296
  0
LINE
  8
0
 10
-67.229
 11
-67.743
 20
32.296
 21
32
  0
LINE
  8
0
 10
-67.743
 11
-67.742
 20
32
 21
32.593
  0
LINE
  8
0
 10
-67.742
 11
-68.256
 20
32.593
 21
32.888
  0
LINE
  8
0
 10
-68.256
 11
-67.742
 20
32.888
 21
33.185
  0
LINE
  8
0
 10
-67.742
 11
-67.743
 20
33.185
 21
33.778
  0
LINE
  8
0
 10
-67.743
 11
-68.256
 20
33.778
 21
34.074
  0
LINE
  8
0
 10
-68.256
 11
-68.769
 20
34.074
 21
33.778
  0
LINE
  8
0
 10
-68.769
 11
-68.768
 20
33.778
 21
34.371
  0
LINE
  8
0
 10
-68.768
 11
-69.282
 20
34.371
 21
34.666
  0
LINE
  8
0
 10
-69.282
 11
-69.795
 20
34.666
 21
34.37
  0
LINE
  8
0
 10
-69.795
 11
-69.796
 20
34.37
 21
33.778
  0
LINE
  8
0
 10
-69.796
 11
-70.308
 20
33.778
 21
34.074
  0
LINE
  8
0
 10
-70.308
 11
-70.821
 20
34.074
 21
33.778
  0
LINE
  8
0
 10
-70.821
 11
-70.822
 20
33.778
 21
33.185
  0
LINE
  8
0
 10
-70.822
 11
-70.308
 20
33.185
 21
32.889
  0
LINE
  8
0
 10
-70.308
 11
-70.822
 20
32.889
 21
32.593
  0
LINE
  8
0
 10
-70.822
 11
-70.822
 20
32.593
 21
32
  0
LINE
  8
0
 10
-70.822
 11
-71.335
 20
32
 21
32.296
  0
LINE
  8
0
 10
-71.335
 11
-71.848
 20
32.296
 21
32
  0
LINE
  8
0
 10
-71.848
 11
-71.848
 20
32
 21
32.593
  0
LINE
  8
0
 10
-71.848
 11
-72.361
 20
32.593
 21
32.889
  0
LINE
  8
0
 10
-72.361
 11
-72.874
 20
32.889
 21
32.592
  0
LINE
  8
0
 10
-72.874
 11
-72.874
 20
32.592
 21
32
  0
LINE
  8
0
 10
-72.874
 11
-73.387
 20
32
 21
32.296
  0
LINE
  8
0
 10
-73.387
 11
-73.901
 20
32.296
 21
32
  0
LINE
  8
0
 10
-73.901
 11
-73.901
 20
32
 21
32.592
  0
LINE
  8
0
 10
-73.901
 11
-74.414
 20
32.592
 21
32.889
  0
LINE
  8
0
 10
-74.414
 11
-73.901
 20
32.889
 21
33.186
  0
LINE
  8
0
 10
-73.901
 11
-73.901
 20
33.186
 21
33.778
  0
LINE
  8
0
 10
-73.901
 11
-74.414
 20
33.778
 21
34.074
  0
LINE
  8
0
 10
-74.414
 11
-74.927
 20
34.074
 21
33.778
  0
LINE
  8
0
 10
-74.927
 11
-74.927
 20
33.778
 21
34.37
  0
LINE
  8
0
 10
-74.927
 11
-75.44
 20
34.37
 21
34.666
  0
LINE
  8
0
 10
-75.44
 11
-74.927
 20
34.666
 21
34.963
  0
LINE
  8
0
 10
-74.927
 11
-74.927
 20
34.963
 21
35.556
  0
LINE
  8
0
 10
-74.927
 11
-74.414
 20
35.556
 21
35.259
  0
LINE
  8
0
 10
-74.414
 11
-73.9
 20
35.259
 21
35.555
  0
LINE
  8
0
 10
-73.9
 11
-73.901
 20
35.555
 21
36.148
  0
LINE
  8
0
 10
-73.901
 11
-74.414
 20
36.148
 21
36.445
  0
LINE
  8
0
 10
-74.414
 11
-73.901
 20
36.445
 21
36.741
  0
LINE
  8
0
 10
-73.901
 11
-73.901
 20
36.741
 21
37.333
  0
LINE
  8
0
 10
-73.901
 11
-74.414
 20
37.333
 21
37.629
  0
LINE
  8
0
 10
-74.414
 11
-74.927
 20
37.629
 21
37.333
  0
LINE
  8
0
 10
-74.927
 11
-74.927
 20
37.333
 21
37.926
  0
LINE
  8
0
 10
-74.927
 11
-75.44
 20
37.926
 21
38.223
  0
LINE
  8
0
 10
-75.44
 11
-75.954
 20
38.223
 21
37.926
  0
LINE
  8
0
 10
-75.954
 11
-75.953
 20
37.926
 21
37.333
  0
LINE
  8
0
 10
-75.953
 11
-76.467
 20
37.333
 21
37.63
  0
LINE
  8
0
 10
-76.467
 11
-76.98
 20
37.63
 21
37.334
  0
LINE
  8
0
 10
-76.98
 11
-76.98
 20
37.334
 21
37.926
  0
LINE
  8
0
 10
-76.98
 11
-77.493
 20
37.926
 21
38.222
  0
LINE
  8
0
 10
-77.493
 11
-76.98
 20
38.222
 21
38.519
  0
LINE
  8
0
 10
-76.98
 11
-76.98
 20
38.519
 21
39.111
  0
LINE
  8
0
 10
-76.98
 11
-77.493
 20
39.111
 21
39.407
  0
LINE
  8
0
 10
-77.493
 11
-78.006
 20
39.407
 21
39.111
  0
LINE
  8
0
 10
-78.006
 11
-78.007
 20
39.111
 21
39.704
  0
LINE
  8
0
 10
-78.007
 11
-78.52
 20
39.704
 21
40
  0
LINE
  8
0
 10
-56
 11
-51.849
 20
-25.144
 21
-25.144
  0
LINE
  8
0
 10
-51.849
 11
-49.777
 20
-25.144
 21
-21.553
  0
LINE
  8
0
 10
-49.777
 11
-51.849
 20
-21.553
 21
-17.962
  0
LINE
  8
0
 10
-51.849
 11
-56
 20
-17.962
 21
-17.962
  0
LINE
  8
0
 10
-56
 11
-53.928
 20
-17.962
 21
-14.371
  0
LINE
  8
0
 10
-53.928
 11
-56
 20
-14.371
 21
-10.78
  0
LINE
  8
0
 10
-56
 11
-51.849
 20
-10.78
 21
-10.78
  0
LINE
  8
0
 10
-51.849
 11
-49.777
 20
-10.78
 21
-7.182
  0
LINE
  8
0
 10
-49.777
 11
-47.705
 20
-7.182
 21
-10.78
  0
LINE
  8
0
 10
-47.705
 11
-43.554
 20
-10.78
 21
-10.78
  0
LINE
  8
0
 10
-43.554
 11
-41.482
 20
-10.78
 21
-7.182
  0
LINE
  8
0
 10
-41.482
 11
-43.554
 20
-7.182
 21
-3.591
  0
LINE
  8
0
 10
-43.554
 11
-39.41
 20
-3.591
 21
-3.591
  0
LINE
  8
0
 10
-39.41
 11
-37.331
 20
-3.591
 21
0
  0
LINE
  8
0
 10
-37.331
 11
-39.41
 20
0
 21
3.591
  0
LINE
  8
0
 10
-39.41
 11
-43.554
 20
3.591
 21
3.591
  0
LINE
  8
0
 10
-43.554
 11
-41.482
 20
3.591
 21
7.182
  0
LINE
  8
0
 10
-41.482
 11
-43.554
 20
7.182
 21
10.78
  0
LINE
  8
0
 10
-43.554
 11
-47.705
 20
10.78
 21
10.78
  0
LINE
  8
0
 10
-47.705
 11
-49.777
 20
10.78
 21
7.182
  0
LINE
  8
0
 10
-49.777
 11
-51.849
 20
7.182
 21
10.78
  0
LINE
  8
0
 10
-51.849
 11
-56
 20
10.78
 21
10.78
  0
LINE
  8
0
 10
-56
 11
-53.928
 20
10.78
 21
14.371
  0
LINE
  8
0
 10
-53.928
 11
-56
 20
14.371
 21
17.962
  0
LINE
  8
0
 10
-56
 11
-51.849
 20
17.962
 21
17.962
  0
LINE
  8
0
 10
-51.849
 11
-49.777
 20
17.962
 21
21.553
  0
LINE
  8
0
 10
-49.777
 11
-51.849
 20
21.553
 21
25.144
  0
LINE
  8
0
 10
-51.849
 11
-56
 20
25.144
 21
25.144
  0
LINE
  8
0
 10
-56
 11
-53.958
 20
25.144
 21
28.69
  0
LINE
  8
0
 10
-53.958
 11
-38.541
 20
28.69
 21
20.493
  0
LINE
  8
0
 10
-38.541
 11
-40
 20
20.493
 21
17.96
  0
LINE
  8
0
 10
-40
 11
-37.035
 20
17.96
 21
17.96
  0
LINE
  8
0
 10
-37.035
 11
-35.555
 20
17.96
 21
15.395
  0
LINE
  8
0
 10
-35.555
 11
-37.035
 20
15.395
 21
12.83
  0
LINE
  8
0
 10
-37.035
 11
-40
 20
12.83
 21
12.83
  0
LINE
  8
0
 10
-40
 11
-38.52
 20
12.83
 21
10.265
  0
LINE
  8
0
 10
-38.52
 11
-40
 20
10.265
 21
7.7
  0
LINE
  8
0
 10
-40
 11
-37.035
 20
7.7
 21
7.7
  0
LINE
  8
0
 10
-37.035
 11
-35.555
 20
7.7
 21
5.13
  0
LINE
  8
0
 10
-35.555
 11
-34.075
 20
5.13
 21
7.7
  0
LINE
  8
0
 10
-34.075
 11
-31.11
 20
7.7
 21
7.7
  0
LINE
  8
0
 10
-31.11
 11
-29.63
 20
7.7
 21
5.13
  0
LINE
  8
0
 10
-29.63
 11
-31.11
 20
5.13
 21
2.565
  0
LINE
  8
0
 10
-31.11
 11
-28.15
 20
2.565
 21
2.565
  0
LINE
  8
0
 10
-28.15
 11
-26.665
 20
2.565
 21
0
  0
LINE
  8
0
 10
-26.665
 11
-28.15
 20
0
 21
-2.565
  0
LINE
  8
0
 10
-28.15
 11
-31.11
 20
-2.565
 21
-2.565
  0
LINE
  8
0
 10
-31.11
 11
-29.63
 20
-2.565
 21
-5.13
  0
LINE
  8
0
 10
-29.63
 11
-31.11
 20
-5.13
 21
-7.7
  0
LINE
  8
0
 10
-31.11
 11
-34.075
 20
-7.7
 21
-7.7
  0
LINE
  8
0
 10
-34.075
 11
-35.555
 20
-7.7
 21
-5.13
  0
LINE
  8
0
 10
-35.555
 11
-37.035
 20
-5.13
 21
-7.7
  0
LINE
  8
0
 10
-37.035
 11
-40
 20
-7.7
 21
-7.7
  0
LINE
  8
0
 10
-40
 11
-38.52
 20
-7.7
 21
-10.265
  0
LINE
  8
0
 10
-38.52
 11
-40
 20
-10.265
 21
-12.83
  0
LINE
  8
0
 10
-40
 11
-37.035
 20
-12.83
 21
-12.83
  0
LINE
  8
0
 10
-37.035
 11
-35.555
 20
-12.83
 21
-15.395
  0
LINE
  8
0
 10
-35.555
 11
-37.035
 20
-15.395
 21
-17.96
  0
LINE
  8
0
 10
-37.035
 11
-40
 20
-17.96
 21
-17.96
  0
LINE
  8
0
 10
-40
 11
-39.018
 20
-17.96
 21
-19.665
  0
LINE
  8
0
 10
-39.018
 11
-54.144
 20
-19.665
 21
-29.117
  0
LINE
  8
0
 10
-54.144
 11
-53.928
 20
-29.117
 21
-28.742
  0
LINE
  8
0
 10
-53.928
 11
-56
 20
-28.742
 21
-25.144
  0
LINE
  8
0
 10
-52.289
 11
-51.849
 20
32.333
 21
32.333
  0
LINE
  8
0
 10
-51.849
 11
-49.777
 20
32.333
 21
35.924
  0
LINE
  8
0
 10
-49.777
 11
-47.705
 20
35.924
 21
32.333
  0
LINE
  8
0
 10
-47.705
 11
-43.554
 20
32.333
 21
32.333
  0
LINE
  8
0
 10
-43.554
 11
-41.482
 20
32.333
 21
35.924
  0
LINE
  8
0
 10
-41.482
 11
-43.554
 20
35.924
 21
39.515
  0
LINE
  8
0
 10
-43.554
 11
-39.41
 20
39.515
 21
39.515
  0
LINE
  8
0
 10
-39.41
 11
-37.331
 20
39.515
 21
43.106
  0
LINE
  8
0
 10
-37.331
 11
-35.259
 20
43.106
 21
39.515
  0
LINE
  8
0
 10
-35.259
 11
-31.108
 20
39.515
 21
39.515
  0
LINE
  8
0
 10
-31.108
 11
-33.187
 20
39.515
 21
35.924
  0
LINE
  8
0
 10
-33.187
 11
-31.108
 20
35.924
 21
32.333
  0
LINE
  8
0
 10
-31.108
 11
-26.964
 20
32.333
 21
32.333
  0
LINE
  8
0
 10
-26.964
 11
-24.892
 20
32.333
 21
35.924
  0
LINE
  8
0
 10
-24.892
 11
-22.813
 20
35.924
 21
32.333
  0
LINE
  8
0
 10
-22.813
 11
-18.669
 20
32.333
 21
32.333
  0
LINE
  8
0
 10
-18.669
 11
-16.59
 20
32.333
 21
35.924
  0
LINE
  8
0
 10
-16.59
 11
-18.669
 20
35.924
 21
39.515
  0
LINE
  8
0
 10
-18.669
 11
-14.518
 20
39.515
 21
39.515
  0
LINE
  8
0
 10
-14.518
 11
-12.446
 20
39.515
 21
43.106
  0
LINE
  8
0
 10
-12.446
 11
-14.518
 20
43.106
 21
46.704
  0
LINE
  8
0
 10
-14.518
 11
-18.669
 20
46.704
 21
46.704
  0
LINE
  8
0
 10
-18.669
 11
-16.59
 20
46.704
 21
50.295
  0
LINE
  8
0
 10
-16.59
 11
-18.669
 20
50.295
 21
53.886
  0
LINE
  8
0
 10
-18.669
 11
-14.518
 20
53.886
 21
53.886
  0
LINE
  8
0
 10
-14.518
 11
-12.446
 20
53.886
 21
57.477
  0
LINE
  8
0
 10
-12.446
 11
-10.367
 20
57.477
 21
53.886
  0
LINE
  8
0
 10
-10.367
 11
-6.223
 20
53.886
 21
53.886
  0
LINE
  8
0
 10
-6.223
 11
-4.151
 20
53.886
 21
57.477
  0
LINE
  8
0
 10
-4.151
 11
-6.223
 20
57.477
 21
61.068
  0
LINE
  8
0
 10
-6.223
 11
-2.133
 20
61.068
 21
61.068
  0
LINE
  8
0
 10
-2.133
 11
-1.523
 20
61.068
 21
43.62
  0
LINE
  8
0
 10
-1.523
 11
-4.445
 20
43.62
 21
43.62
  0
LINE
  8
0
 10
-4.445
 11
-2.965
 20
43.62
 21
41.055
  0
LINE
  8
0
 10
-2.965
 11
-4.445
 20
41.055
 21
38.49
  0
LINE
  8
0
 10
-4.445
 11
-7.405
 20
38.49
 21
38.49
  0
LINE
  8
0
 10
-7.405
 11
-8.89
 20
38.49
 21
41.055
  0
LINE
  8
0
 10
-8.89
 11
-10.37
 20
41.055
 21
38.49
  0
LINE
  8
0
 10
-10.37
 11
-13.335
 20
38.49
 21
38.49
  0
LINE
  8
0
 10
-13.335
 11
-11.85
 20
38.49
 21
35.925
  0
LINE
  8
0
 10
-11.85
 11
-13.335
 20
35.925
 21
33.36
  0
LINE
  8
0
 10
-13.335
 11
-10.37
 20
33.36
 21
33.36
  0
LINE
  8
0
 10
-10.37
 11
-8.89
 20
33.36
 21
30.79
  0
LINE
  8
0
 10
-8.89
 11
-10.37
 20
30.79
 21
28.225
  0
LINE
  8
0
 10
-10.37
 11
-13.335
 20
28.225
 21
28.225
  0
LINE
  8
0
 10
-13.335
 11
-11.85
 20
28.225
 21
25.66
  0
LINE
  8
0
 10
-11.85
 11
-13.335
 20
25.66
 21
23.095
  0
LINE
  8
0
 10
-13.335
 11
-16.295
 20
23.095
 21
23.095
  0
LINE
  8
0
 10
-16.295
 11
-17.78
 20
23.095
 21
25.66
  0
LINE
  8
0
 10
-17.78
 11
-19.26
 20
25.66
 21
23.095
  0
LINE
  8
0
 10
-19.26
 11
-22.22
 20
23.095
 21
23.095
  0
LINE
  8
0
 10
-22.22
 11
-23.705
 20
23.095
 21
25.66
  0
LINE
  8
0
 10
-23.705
 11
-22.22
 20
25.66
 21
28.225
  0
LINE
  8
0
 10
-22.22
 11
-25.185
 20
28.225
 21
28.225
  0
LINE
  8
0
 10
-25.185
 11
-26.665
 20
28.225
 21
30.79
  0
LINE
  8
0
 10
-26.665
 11
-28.15
 20
30.79
 21
28.225
  0
LINE
  8
0
 10
-28.15
 11
-31.11
 20
28.225
 21
28.225
  0
LINE
  8
0
 10
-31.11
 11
-29.63
 20
28.225
 21
25.66
  0
LINE
  8
0
 10
-29.63
 11
-31.11
 20
25.66
 21
23.095
  0
LINE
  8
0
 10
-31.11
 11
-34.075
 20
23.095
 21
23.095
  0
LINE
  8
0
 10
-34.075
 11
-35.555
 20
23.095
 21
25.66
  0
LINE
  8
0
 10
-35.555
 11
-36.537
 20
25.66
 21
23.958
  0
LINE
  8
0
 10
-36.537
 11
-52.289
 20
23.958
 21
32.333
  0
LINE
  8
0
 10
-51.821
 11
-37.015
 20
-32.382
 21
-23.13
  0
LINE
  8
0
 10
-37.015
 11
-35.555
 20
-23.13
 21
-25.66
  0
LINE
  8
0
 10
-35.555
 11
-34.075
 20
-25.66
 21
-23.095
  0
LINE
  8
0
 10
-34.075
 11
-31.11
 20
-23.095
 21
-23.095
  0
LINE
  8
0
 10
-31.11
 11
-29.63
 20
-23.095
 21
-25.66
  0
LINE
  8
0
 10
-29.63
 11
-31.11
 20
-25.66
 21
-28.225
  0
LINE
  8
0
 10
-31.11
 11
-28.15
 20
-28.225
 21
-28.225
  0
LINE
  8
0
 10
-28.15
 11
-26.665
 20
-28.225
 21
-30.79
  0
LINE
  8
0
 10
-26.665
 11
-25.185
 20
-30.79
 21
-28.225
  0
LINE
  8
0
 10
-25.185
 11
-22.22
 20
-28.225
 21
-28.225
  0
LINE
  8
0
 10
-22.22
 11
-23.705
 20
-28.225
 21
-25.66
  0
LINE
  8
0
 10
-23.705
 11
-22.22
 20
-25.66
 21
-23.095
  0
LINE
  8
0
 10
-22.22
 11
-19.26
 20
-23.095
 21
-23.095
  0
LINE
  8
0
 10
-19.26
 11
-17.78
 20
-23.095
 21
-25.66
  0
LINE
  8
0
 10
-17.78
 11
-16.295
 20
-25.66
 21
-23.095
  0
LINE
  8
0
 10
-16.295
 11
-13.335
 20
-23.095
 21
-23.095
  0
LINE
  8
0
 10
-13.335
 11
-11.85
 20
-23.095
 21
-25.66
  0
LINE
  8
0
 10
-11.85
 11
-13.335
 20
-25.66
 21
-28.225
  0
LINE
  8
0
 10
-13.335
 11
-10.37
 20
-28.225
 21
-28.225
  0
LINE
  8
0
 10
-10.37
 11
-8.89
 20
-28.225
 21
-30.79
  0
LINE
  8
0
 10
-8.89
 11
-10.37
 20
-30.79
 21
-33.36
  0
LINE
  8
0
 10
-10.37
 11
-13.335
 20
-33.36
 21
-33.36
  0
LINE
  8
0
 10
-13.335
 11
-11.85
 20
-33.36
 21
-35.925
  0
LINE
  8
0
 10
-11.85
 11
-13.335
 20
-35.925
 21
-38.49
  0
LINE
  8
0
 10
-13.335
 11
-10.37
 20
-38.49
 21
-38.49
  0
LINE
  8
0
 10
-10.37
 11
-8.89
 20
-38.49
 21
-41.055
  0
LINE
  8
0
 10
-8.89
 11
-7.405
 20
-41.055
 21
-38.49
  0
LINE
  8
0
 10
-7.405
 11
-4.445
 20
-38.49
 21
-38.49
  0
LINE
  8
0
 10
-4.445
 11
-2.965
 20
-38.49
 21
-41.055
  0
LINE
  8
0
 10
-2.965
 11
-4.445
 20
-41.055
 21
-43.62
  0
LINE
  8
0
 10
-4.445
 11
-2.48
 20
-43.62
 21
-43.62
  0
LINE
  8
0
 10
-2.48
 11
-1.857
 20
-43.62
 21
-61.441
  0
LINE
  8
0
 10
-1.857
 11
-2.072
 20
-61.441
 21
-61.068
  0
LINE
  8
0
 10
-2.072
 11
-6.223
 20
-61.068
 21
-61.068
  0
LINE
  8
0
 10
-6.223
 11
-4.151
 20
-61.068
 21
-57.477
  0
LINE
  8
0
 10
-4.151
 11
-6.223
 20
-57.477
 21
-53.886
  0
LINE
  8
0
 10
-6.223
 11
-10.367
 20
-53.886
 21
-53.886
  0
LINE
  8
0
 10
-10.367
 11
-12.446
 20
-53.886
 21
-57.477
  0
LINE
  8
0
 10
-12.446
 11
-14.518
 20
-57.477
 21
-53.886
  0
LINE
  8
0
 10
-14.518
 11
-18.669
 20
-53.886
 21
-53.886
  0
LINE
  8
0
 10
-18.669
 11
-16.59
 20
-53.886
 21
-50.295
  0
LINE
  8
0
 10
-16.59
 11
-18.669
 20
-50.295
 21
-46.704
  0
LINE
  8
0
 10
-18.669
 11
-14.518
 20
-46.704
 21
-46.704
  0
LINE
  8
0
 10
-14.518
 11
-12.446
 20
-46.704
 21
-43.106
  0
LINE
  8
0
 10
-12.446
 11
-14.518
 20
-43.106
 21
-39.515
  0
LINE
  8
0
 10
-14.518
 11
-18.669
 20
-39.515
 21
-39.515
  0
LINE
  8
0
 10
-18.669
 11
-16.59
 20
-39.515
 21
-35.924
  0
LINE
  8
0
 10
-16.59
 11
-18.669
 20
-35.924
 21
-32.333
  0
LINE
  8
0
 10
-18.669
 11
-22.813
 20
-32.333
 21
-32.333
  0
LINE
  8
0
 10
-22.813
 11
-24.892
 20
-32.333
 21
-35.924
  0
LINE
  8
0
 10
-24.892
 11
-26.964
 20
-35.924
 21
-32.333
  0
LINE
  8
0
 10
-26.964
 11
-31.108
 20
-32.333
 21
-32.333
  0
LINE
  8
0
 10
-31.108
 11
-33.187
 20
-32.333
 21
-35.924
  0
LINE
  8
0
 10
-33.187
 11
-31.108
 20
-35.924
 21
-39.515
  0
LINE
  8
0
 10
-31.108
 11
-35.259
 20
-39.515
 21
-39.515
  0
LINE
  8
0
 10
-35.259
 11
-37.331
 20
-39.515
 21
-43.106
  0
LINE
  8
0
 10
-37.331
 11
-39.41
 20
-43.106
 21
-39.515
  0
LINE
  8
0
 10
-39.41
 11
-43.554
 20
-39.515
 21
-39.515
  0
LINE
  8
0
 10
-43.554
 11
-41.482
 20
-39.515
 21
-35.924
  0
LINE
  8
0
 10
-41.482
 11
-43.554
 20
-35.924
 21
-32.333
  0
LINE
  8
0
 10
-43.554
 11
-47.705
 20
-32.333
 21
-32.333
  0
LINE
  8
0
 10
-47.705
 11
-49.777
 20
-32.333
 21
-35.924
  0
LINE
  8
0
 10
-49.777
 11
-51.821
 20
-35.924
 21
-32.382
  0
LINE
  8
0
 10
-24
 11
-23.112
 20
-7.698
 21
-6.159
  0
LINE
  8
0
 10
-23.112
 11
-24
 20
-6.159
 21
-4.62
  0
LINE
  8
0
 10
-24
 11
-22.221
 20
-4.62
 21
-4.62
  0
LINE
  8
0
 10
-22.221
 11
-21.333
 20
-4.62
 21
-3.078
  0
LINE
  8
0
 10
-21.333
 11
-20.445
 20
-3.078
 21
-4.62
  0
LINE
  8
0
 10
-20.445
 11
-18.666
 20
-4.62
 21
-4.62
  0
LINE
  8
0
 10
-18.666
 11
-17.778
 20
-4.62
 21
-3.078
  0
LINE
  8
0
 10
-17.778
 11
-18.666
 20
-3.078
 21
-1.539
  0
LINE
  8
0
 10
-18.666
 11
-16.89
 20
-1.539
 21
-1.539
  0
LINE
  8
0
 10
-16.89
 11
-15.999
 20
-1.539
 21
0
  0
LINE
  8
0
 10
-15.999
 11
-16.89
 20
0
 21
1.539
  0
LINE
  8
0
 10
-16.89
 11
-18.666
 20
1.539
 21
1.539
  0
LINE
  8
0
 10
-18.666
 11
-17.778
 20
1.539
 21
3.078
  0
LINE
  8
0
 10
-17.778
 11
-18.666
 20
3.078
 21
4.62
  0
LINE
  8
0
 10
-18.666
 11
-20.445
 20
4.62
 21
4.62
  0
LINE
  8
0
 10
-20.445
 11
-21.333
 20
4.62
 21
3.078
  0
LINE
  8
0
 10
-21.333
 11
-22.221
 20
3.078
 21
4.62
  0
LINE
  8
0
 10
-22.221
 11
-24
 20
4.62
 21
4.62
  0
LINE
  8
0
 10
-24
 11
-23.112
 20
4.62
 21
6.159
  0
LINE
  8
0
 10
-23.112
 11
-24
 20
6.159
 21
7.698
  0
LINE
  8
0
 10
-24
 11
-22.221
 20
7.698
 21
7.698
  0
LINE
  8
0
 10
-22.221
 11
-21.333
 20
7.698
 21
9.237
  0
LINE
  8
0
 10
-21.333
 11
-22.221
 20
9.237
 21
10.776
  0
LINE
  8
0
 10
-22.221
 11
-24
 20
10.776
 21
10.776
  0
LINE
  8
0
 10
-24
 11
-23.125
 20
10.776
 21
12.296
  0
LINE
  8
0
 10
-23.125
 11
-15.417
 20
12.296
 21
8.197
  0
LINE
  8
0
 10
-15.417
 11
-16
 20
8.197
 21
7.184
  0
LINE
  8
0
 10
-16
 11
-14.814
 20
7.184
 21
7.184
  0
LINE
  8
0
 10
-14.814
 11
-14.222
 20
7.184
 21
6.158
  0
LINE
  8
0
 10
-14.222
 11
-14.814
 20
6.158
 21
5.132
  0
LINE
  8
0
 10
-14.814
 11
-16
 20
5.132
 21
5.132
  0
LINE
  8
0
 10
-16
 11
-15.408
 20
5.132
 21
4.106
  0
LINE
  8
0
 10
-15.408
 11
-16
 20
4.106
 21
3.08
  0
LINE
  8
0
 10
-16
 11
-14.814
 20
3.08
 21
3.08
  0
LINE
  8
0
 10
-14.814
 11
-14.222
 20
3.08
 21
2.052
  0
LINE
  8
0
 10
-14.222
 11
-13.63
 20
2.052
 21
3.08
  0
LINE
  8
0
 10
-13.63
 11
-12.444
 20
3.08
 21
3.08
  0
LINE
  8
0
 10
-12.444
 11
-11.852
 20
3.08
 21
2.052
  0
LINE
  8
0
 10
-11.852
 11
-12.444
 20
2.052
 21
1.026
  0
LINE
  8
0
 10
-12.444
 11
-11.26
 20
1.026
 21
1.026
  0
LINE
  8
0
 10
-11.26
 11
-10.666
 20
1.026
 21
0
  0
LINE
  8
0
 10
-10.666
 11
-11.26
 20
0
 21
-1.026
  0
LINE
  8
0
 10
-11.26
 11
-12.444
 20
-1.026
 21
-1.026
  0
LINE
  8
0
 10
-12.444
 11
-11.852
 20
-1.026
 21
-2.052
  0
LINE
  8
0
 10
-11.852
 11
-12.425
 20
-2.052
 21
-3.048
  0
LINE
  8
0
 10
-12.425
 11
-12.477
 20
-3.048
 21
-3.08
  0
LINE
  8
0
 10
-12.477
 11
-13.63
 20
-3.08
 21
-3.08
  0
LINE
  8
0
 10
-13.63
 11
-14.222
 20
-3.08
 21
-2.052
  0
LINE
  8
0
 10
-14.222
 11
-14.814
 20
-2.052
 21
-3.08
  0
LINE
  8
0
 10
-14.814
 11
-16
 20
-3.08
 21
-3.08
  0
LINE
  8
0
 10
-16
 11
-15.408
 20
-3.08
 21
-4.106
  0
LINE
  8
0
 10
-15.408
 11
-16
 20
-4.106
 21
-5.132
  0
LINE
  8
0
 10
-16
 11
-15.761
 20
-5.132
 21
-5.132
  0
LINE
  8
0
 10
-15.761
 11
-21.597
 20
-5.132
 21
-8.779
  0
LINE
  8
0
 10
-21.597
 11
-22.221
 20
-8.779
 21
-7.698
  0
LINE
  8
0
 10
-22.221
 11
-24
 20
-7.698
 21
-7.698
  0
LINE
  8
0
 10
-22.209
 11
-14.806
 20
-13.878
 21
-9.252
  0
LINE
  8
0
 10
-14.806
 11
-14.222
 20
-9.252
 21
-10.264
  0
LINE
  8
0
 10
-14.222
 11
-13.63
 20
-10.264
 21
-9.238
  0
LINE
  8
0
 10
-13.63
 11
-12.444
 20
-9.238
 21
-9.238
  0
LINE
  8
0
 10
-12.444
 11
-11.852
 20
-9.238
 21
-10.264
  0
LINE
  8
0
 10
-11.852
 11
-12.444
 20
-10.264
 21
-11.29
  0
LINE
  8
0
 10
-12.444
 11
-11.26
 20
-11.29
 21
-11.29
  0
LINE
  8
0
 10
-11.26
 11
-10.666
 20
-11.29
 21
-12.316
  0
LINE
  8
0
 10
-10.666
 11
-10.074
 20
-12.316
 21
-11.29
  0
LINE
  8
0
 10
-10.074
 11
-8.888
 20
-11.29
 21
-11.29
  0
LINE
  8
0
 10
-8.888
 11
-9.482
 20
-11.29
 21
-10.264
  0
LINE
  8
0
 10
-9.482
 11
-8.888
 20
-10.264
 21
-9.238
  0
LINE
  8
0
 10
-8.888
 11
-7.704
 20
-9.238
 21
-9.238
  0
LINE
  8
0
 10
-7.704
 11
-7.112
 20
-9.238
 21
-10.264
  0
LINE
  8
0
 10
-7.112
 11
-6.518
 20
-10.264
 21
-9.238
  0
LINE
  8
0
 10
-6.518
 11
-5.334
 20
-9.238
 21
-9.238
  0
LINE
  8
0
 10
-5.334
 11
-4.74
 20
-9.238
 21
-10.264
  0
LINE
  8
0
 10
-4.74
 11
-5.334
 20
-10.264
 21
-11.29
  0
LINE
  8
0
 10
-5.334
 11
-4.148
 20
-11.29
 21
-11.29
  0
LINE
  8
0
 10
-4.148
 11
-3.574
 20
-11.29
 21
-12.285
  0
LINE
  8
0
 10
-3.574
 11
-3.572
 20
-12.285
 21
-12.344
  0
LINE
  8
0
 10
-3.572
 11
-4.148
 20
-12.344
 21
-13.344
  0
LINE
  8
0
 10
-4.148
 11
-5.334
 20
-13.344
 21
-13.344
  0
LINE
  8
0
 10
-5.334
 11
-4.74
 20
-13.344
 21
-14.37
  0
LINE
  8
0
 10
-4.74
 11
-5.334
 20
-14.37
 21
-15.396
  0
LINE
  8
0
 10
-5.334
 11
-4.148
 20
-15.396
 21
-15.396
  0
LINE
  8
0
 10
-4.148
 11
-3.556
 20
-15.396
 21
-16.422
  0
LINE
  8
0
 10
-3.556
 11
-3.437
 20
-16.422
 21
-16.216
  0
LINE
  8
0
 10
-3.437
 11
-3.196
 20
-16.216
 21
-23.094
  0
LINE
  8
0
 10
-3.196
 11
-4.443
 20
-23.094
 21
-23.094
  0
LINE
  8
0
 10
-4.443
 11
-5.334
 20
-23.094
 21
-24.633
  0
LINE
  8
0
 10
-5.334
 11
-6.222
 20
-24.633
 21
-23.094
  0
LINE
  8
0
 10
-6.222
 11
-8.001
 20
-23.094
 21
-23.094
  0
LINE
  8
0
 10
-8.001
 11
-7.11
 20
-23.094
 21
-21.555
  0
LINE
  8
0
 10
-7.11
 11
-8.001
 20
-21.555
 21
-20.016
  0
LINE
  8
0
 10
-8.001
 11
-6.222
 20
-20.016
 21
-20.016
  0
LINE
  8
0
 10
-6.222
 11
-5.334
 20
-20.016
 21
-18.474
  0
LINE
  8
0
 10
-5.334
 11
-6.222
 20
-18.474
 21
-16.935
  0
LINE
  8
0
 10
-6.222
 11
-8.001
 20
-16.935
 21
-16.935
  0
LINE
  8
0
 10
-8.001
 11
-7.11
 20
-16.935
 21
-15.396
  0
LINE
  8
0
 10
-7.11
 11
-8.001
 20
-15.396
 21
-13.857
  0
LINE
  8
0
 10
-8.001
 11
-9.777
 20
-13.857
 21
-13.857
  0
LINE
  8
0
 10
-9.777
 11
-10.668
 20
-13.857
 21
-15.396
  0
LINE
  8
0
 10
-10.668
 11
-11.556
 20
-15.396
 21
-13.857
  0
LINE
  8
0
 10
-11.556
 11
-13.332
 20
-13.857
 21
-13.857
  0
LINE
  8
0
 10
-13.332
 11
-14.223
 20
-13.857
 21
-15.396
  0
LINE
  8
0
 10
-14.223
 11
-13.332
 20
-15.396
 21
-16.935
  0
LINE
  8
0
 10
-13.332
 11
-15.111
 20
-16.935
 21
-16.935
  0
LINE
  8
0
 10
-15.111
 11
-15.999
 20
-16.935
 21
-18.474
  0
LINE
  8
0
 10
-15.999
 11
-16.89
 20
-18.474
 21
-16.935
  0
LINE
  8
0
 10
-16.89
 11
-18.666
 20
-16.935
 21
-16.935
  0
LINE
  8
0
 10
-18.666
 11
-17.778
 20
-16.935
 21
-15.396
  0
LINE
  8
0
 10
-17.778
 11
-18.666
 20
-15.396
 21
-13.857
  0
LINE
  8
0
 10
-18.666
 11
-20.445
 20
-13.857
 21
-13.857
  0
LINE
  8
0
 10
-20.445
 11
-21.333
 20
-13.857
 21
-15.396
  0
LINE
  8
0
 10
-21.333
 11
-22.209
 20
-15.396
 21
-13.878
  0
LINE
  8
0
 10
-18.666
 11
-16.89
 20
16.935
 21
16.935
  0
LINE
  8
0
 10
-16.89
 11
-15.999
 20
16.935
 21
18.474
  0
LINE
  8
0
 10
-15.999
 11
-15.111
 20
18.474
 21
16.935
  0
LINE
  8
0
 10
-15.111
 11
-13.332
 20
16.935
 21
16.935
  0
LINE
  8
0
 10
-13.332
 11
-14.223
 20
16.935
 21
15.396
  0
LINE
  8
0
 10
-14.223
 11
-13.332
 20
15.396
 21
13.857
  0
LINE
  8
0
 10
-13.332
 11
-11.556
 20
13.857
 21
13.857
  0
LINE
  8
0
 10
-11.556
 11
-10.668
 20
13.857
 21
15.396
  0
LINE
  8
0
 10
-10.668
 11
-9.777
 20
15.396
 21
13.857
  0
LINE
  8
0
 10
-9.777
 11
-8.001
 20
13.857
 21
13.857
  0
LINE
  8
0
 10
-8.001
 11
-7.11
 20
13.857
 21
15.396
  0
LINE
  8
0
 10
-7.11
 11
-8.001
 20
15.396
 21
16.935
  0
LINE
  8
0
 10
-8.001
 11
-6.222
 20
16.935
 21
16.935
  0
LINE
  8
0
 10
-6.222
 11
-5.334
 20
16.935
 21
18.474
  0
LINE
  8
0
 10
-5.334
 11
-6.222
 20
18.474
 21
20.016
  0
LINE
  8
0
 10
-6.222
 11
-8.001
 20
20.016
 21
20.016
  0
LINE
  8
0
 10
-8.001
 11
-7.11
 20
20.016
 21
21.555
  0
LINE
  8
0
 10
-7.11
 11
-8.001
 20
21.555
 21
23.094
  0
LINE
  8
0
 10
-8.001
 11
-6.222
 20
23.094
 21
23.094
  0
LINE
  8
0
 10
-6.222
 11
-5.334
 20
23.094
 21
24.633
  0
LINE
  8
0
 10
-5.334
 11
-4.443
 20
24.633
 21
23.094
  0
LINE
  8
0
 10
-4.443
 11
-2.667
 20
23.094
 21
23.094
  0
LINE
  8
0
 10
-2.667
 11
-1.779
 20
23.094
 21
24.633
  0
LINE
  8
0
 10
-1.779
 11
-2.667
 20
24.633
 21
26.172
  0
LINE
  8
0
 10
-2.667
 11
-0.914
 20
26.172
 21
26.172
  0
LINE
  8
0
 10
-0.914
 11
-0.609
 20
26.172
 21
17.448
  0
LINE
  8
0
 10
-0.609
 11
-1.778
 20
17.448
 21
17.448
  0
LINE
  8
0
 10
-1.778
 11
-1.186
 20
17.448
 21
16.422
  0
LINE
  8
0
 10
-1.186
 11
-1.778
 20
16.422
 21
15.396
  0
LINE
  8
0
 10
-1.778
 11
-2.962
 20
15.396
 21
15.396
  0
LINE
  8
0
 10
-2.962
 11
-3.556
 20
15.396
 21
16.422
  0
LINE
  8
0
 10
-3.556
 11
-4.148
 20
16.422
 21
15.396
  0
LINE
  8
0
 10
-4.148
 11
-5.334
 20
15.396
 21
15.396
  0
LINE
  8
0
 10
-5.334
 11
-4.74
 20
15.396
 21
14.37
  0
LINE
  8
0
 10
-4.74
 11
-5.334
 20
14.37
 21
13.344
  0
LINE
  8
0
 10
-5.334
 11
-4.148
 20
13.344
 21
13.344
  0
LINE
  8
0
 10
-4.148
 11
-3.556
 20
13.344
 21
12.316
  0
LINE
  8
0
 10
-3.556
 11
-4.148
 20
12.316
 21
11.29
  0
LINE
  8
0
 10
-4.148
 11
-5.334
 20
11.29
 21
11.29
  0
LINE
  8
0
 10
-5.334
 11
-4.74
 20
11.29
 21
10.264
  0
LINE
  8
0
 10
-4.74
 11
-5.334
 20
10.264
 21
9.238
  0
LINE
  8
0
 10
-5.334
 11
-6.518
 20
9.238
 21
9.238
  0
LINE
  8
0
 10
-6.518
 11
-7.112
 20
9.238
 21
10.264
  0
LINE
  8
0
 10
-7.112
 11
-7.704
 20
10.264
 21
9.238
  0
LINE
  8
0
 10
-7.704
 11
-8.853
 20
9.238
 21
9.238
  0
LINE
  8
0
 10
-8.853
 11
-8.903
 20
9.238
 21
9.265
  0
LINE
  8
0
 10
-8.903
 11
-9.482
 20
9.265
 21
10.264
  0
LINE
  8
0
 10
-9.482
 11
-8.888
 20
10.264
 21
11.29
  0
LINE
  8
0
 10
-8.888
 11
-10.074
 20
11.29
 21
11.29
  0
LINE
  8
0
 10
-10.074
 11
-10.666
 20
11.29
 21
12.316
  0
LINE
  8
0
 10
-10.666
 11
-11.26
 20
12.316
 21
11.29
  0
LINE
  8
0
 10
-11.26
 11
-12.444
 20
11.29
 21
11.29
  0
LINE
  8
0
 10
-12.444
 11
-12.325
 20
11.29
 21
11.084
  0
LINE
  8
0
 10
-12.325
 11
-18.402
 20
11.084
 21
14.315
  0
LINE
  8
0
 10
-18.402
 11
-17.778
 20
14.315
 21
15.396
  0
LINE
  8
0
 10
-17.778
 11
-18.666
 20
15.396
 21
16.935
  0
LINE
  8
0
 10
-9.238
 11
-8.724
 20
-80
 21
-79.703
  0
LINE
  8
0
 10
-8.724
 11
-8.724
 20
-79.703
 21
-79.111
  0
LINE
  8
0
 10
-8.724
 11
-8.211
 20
-79.111
 21
-79.407
  0
LINE
  8
0
 10
-8.211
 11
-7.698
 20
-79.407
 21
-79.111
  0
LINE
  8
0
 10
-7.698
 11
-7.698
 20
-79.111
 21
-78.519
  0
LINE
  8
0
 10
-7.698
 11
-8.211
 20
-78.519
 21
-78.222
  0
LINE
  8
0
 10
-8.211
 11
-7.698
 20
-78.222
 21
-77.926
  0
LINE
  8
0
 10
-7.698
 11
-7.698
 20
-77.926
 21
-77.333
  0
LINE
  8
0
 10
-7.698
 11
-7.185
 20
-77.333
 21
-77.63
  0
LINE
  8
0
 10
-7.185
 11
-6.671
 20
-77.63
 21
-77.333
  0
LINE
  8
0
 10
-6.671
 11
-6.672
 20
-77.333
 21
-77.926
  0
LINE
  8
0
 10
-6.672
 11
-6.158
 20
-77.926
 21
-78.222
  0
LINE
  8
0
 10
-6.158
 11
-5.645
 20
-78.222
 21
-77.926
  0
LINE
  8
0
 10
-5.645
 11
-5.646
 20
-77.926
 21
-77.334
  0
LINE
  8
0
 10
-5.646
 11
-5.132
 20
-77.334
 21
-77.629
  0
LINE
  8
0
 10
-5.132
 11
-4.619
 20
-77.629
 21
-77.333
  0
LINE
  8
0
 10
-4.619
 11
-4.618
 20
-77.333
 21
-76.741
  0
LINE
  8
0
 10
-4.618
 11
-5.132
 20
-76.741
 21
-76.445
  0
LINE
  8
0
 10
-5.132
 11
-4.619
 20
-76.445
 21
-76.148
  0
LINE
  8
0
 10
-4.619
 11
-4.619
 20
-76.148
 21
-75.556
  0
LINE
  8
0
 10
-4.619
 11
-5.132
 20
-75.556
 21
-75.259
  0
LINE
  8
0
 10
-5.132
 11
-5.646
 20
-75.259
 21
-75.555
  0
LINE
  8
0
 10
-5.646
 11
-5.645
 20
-75.555
 21
-74.963
  0
LINE
  8
0
 10
-5.645
 11
-6.159
 20
-74.963
 21
-74.667
  0
LINE
  8
0
 10
-6.159
 11
-5.645
 20
-74.667
 21
-74.37
  0
LINE
  8
0
 10
-5.645
 11
-5.645
 20
-74.37
 21
-73.778
  0
LINE
  8
0
 10
-5.645
 11
-5.132
 20
-73.778
 21
-74.074
  0
LINE
  8
0
 10
-5.132
 11
-4.619
 20
-74.074
 21
-73.778
  0
LINE
  8
0
 10
-4.619
 11
-4.619
 20
-73.778
 21
-73.186
  0
LINE
  8
0
 10
-4.619
 11
-5.132
 20
-73.186
 21
-72.889
  0
LINE
  8
0
 10
-5.132
 11
-4.618
 20
-72.889
 21
-72.593
  0
LINE
  8
0
 10
-4.618
 11
-4.619
 20
-72.593
 21
-72
  0
LINE
  8
0
 10
-4.619
 11
-4.106
 20
-72
 21
-72.297
  0
LINE
  8
0
 10
-4.106
 11
-3.592
 20
-72.297
 21
-72
  0
LINE
  8
0
 10
-3.592
 11
-3.592
 20
-72
 21
-72.593
  0
LINE
  8
0
 10
-3.592
 11
-3.079
 20
-72.593
 21
-72.889
  0
LINE
  8
0
 10
-3.079
 11
-2.566
 20
-72.889
 21
-72.593
  0
LINE
  8
0
 10
-2.566
 11
-2.566
 20
-72.593
 21
-72
  0
LINE
  8
0
 10
-2.566
 11
-2.053
 20
-72
 21
-72.296
  0
LINE
  8
0
 10
-2.053
 11
-1.539
 20
-72.296
 21
-72
  0
LINE
  8
0
 10
-1.539
 11
-1.54
 20
-72
 21
-72.593
  0
LINE
  8
0
 10
-1.54
 11
-1.026
 20
-72.593
 21
-72.888
  0
LINE
  8
0
 10
-1.026
 11
-1.54
 20
-72.888
 21
-73.185
  0
LINE
  8
0
 10
-1.54
 11
-1.539
 20
-73.185
 21
-73.778
  0
LINE
  8
0
 10
-1.539
 11
-1.026
 20
-73.778
 21
-74.074
  0
LINE
  8
0
 10
-1.026
 11
-0.513
 20
-74.074
 21
-73.778
  0
LINE
  8
0
 10
-0.513
 11
-0.514
 20
-73.778
 21
-74.371
  0
LINE
  8
0
 10
-0.514
 11
0
 20
-74.371
 21
-74.666
  0
LINE
  8
0
 10
0
 11
0.513
 20
-74.666
 21
-74.37
  0
LINE
  8
0
 10
0.513
 11
0.514
 20
-74.37
 21
-73.778
  0
LINE
  8
0
 10
0.514
 11
1.026
 20
-73.778
 21
-74.074
  0
LINE
  8
0
 10
1.026
 11
1.539
 20
-74.074
 21
-73.778
  0
LINE
  8
0
 10
1.539
 11
1.54
 20
-73.778
 21
-73.185
  0
LINE
  8
0
 10
1.54
 11
1.026
 20
-73.185
 21
-72.889
  0
LINE
  8
0
 10
1.026
 11
1.54
 20
-72.889
 21
-72.593
  0
LINE
  8
0
 10
1.54
 11
1.539
 20
-72.593
 21
-72
  0
LINE
  8
0
 10
1.539
 11
2.053
 20
-72
 21
-72.296
  0
LINE
  8
0
 10
2.053
 11
2.566
 20
-72.296
 21
-72
  0
LINE
  8
0
 10
2.566
 11
2.566
 20
-72
 21
-72.593
  0
LINE
  8
0
 10
2.566
 11
3.079
 20
-72.593
 21
-72.889
  0
LINE
  8
0
 10
3.079
 11
3.592
 20
-72.889
 21
-72.592
  0
LINE
  8
0
 10
3.592
 11
3.592
 20
-72.592
 21
-72
  0
LINE
  8
0
 10
3.592
 11
4.105
 20
-72
 21
-72.296
  0
LINE
  8
0
 10
4.105
 11
4.619
 20
-72.296
 21
-72
  0
LINE
  8
0
 10
4.619
 11
4.619
 20
-72
 21
-72.592
  0
LINE
  8
0
 10
4.619
 11
5.132
 20
-72.592
 21
-72.889
  0
LINE
  8
0
 10
5.132
 11
4.619
 20
-72.889
 21
-73.186
  0
LINE
  8
0
 10
4.619
 11
4.619
 20
-73.186
 21
-73.778
  0
LINE
  8
0
 10
4.619
 11
5.132
 20
-73.778
 21
-74.074
  0
LINE
  8
0
 10
5.132
 11
5.645
 20
-74.074
 21
-73.778
  0
LINE
  8
0
 10
5.645
 11
5.645
 20
-73.778
 21
-74.37
  0
LINE
  8
0
 10
5.645
 11
6.158
 20
-74.37
 21
-74.666
  0
LINE
  8
0
 10
6.158
 11
5.645
 20
-74.666
 21
-74.963
  0
LINE
  8
0
 10
5.645
 11
5.645
 20
-74.963
 21
-75.556
  0
LINE
  8
0
 10
5.645
 11
5.132
 20
-75.556
 21
-75.259
  0
LINE
  8
0
 10
5.132
 11
4.618
 20
-75.259
 21
-75.555
  0
LINE
  8
0
 10
4.618
 11
4.619
 20
-75.555
 21
-76.148
  0
LINE
  8
0
 10
4.619
 11
5.132
 20
-76.148
 21
-76.445
  0
LINE
  8
0
 10
5.132
 11
4.619
 20
-76.445
 21
-76.741
  0
LINE
  8
0
 10
4.619
 11
4.618
 20
-76.741
 21
-77.333
  0
LINE
  8
0
 10
4.618
 11
5.132
 20
-77.333
 21
-77.629
  0
LINE
  8
0
 10
5.132
 11
5.645
 20
-77.629
 21
-77.333
  0
LINE
  8
0
 10
5.645
 11
5.645
 20
-77.333
 21
-77.926
  0
LINE
  8
0
 10
5.645
 11
6.158
 20
-77.926
 21
-78.223
  0
LINE
  8
0
 10
6.158
 11
6.672
 20
-78.223
 21
-77.926
  0
LINE
  8
0
 10
6.672
 11
6.671
 20
-77.926
 21
-77.333
  0
LINE
  8
0
 10
6.671
 11
7.185
 20
-77.333
 21
-77.63
  0
LINE
  8
0
 10
7.185
 11
7.698
 20
-77.63
 21
-77.334
  0
LINE
  8
0
 10
7.698
 11
7.698
 20
-77.334
 21
-77.926
  0
LINE
  8
0
 10
7.698
 11
8.211
 20
-77.926
 21
-78.222
  0
LINE
  8
0
 10
8.211
 11
7.698
 20
-78.222
 21
-78.519
  0
LINE
  8
0
 10
7.698
 11
7.698
 20
-78.519
 21
-79.111
  0
LINE
  8
0
 10
7.698
 11
8.211
 20
-79.111
 21
-79.407
  0
LINE
  8
0
 10
8.211
 11
8.724
 20
-79.407
 21
-79.111
  0
LINE
  8
0
 10
8.724
 11
8.725
 20
-79.111
 21
-79.704
  0
LINE
  8
0
 10
8.725
 11
9.238
 20
-79.704
 21
-80
  0
LINE
  8
0
 10
9.238
 11
8.724
 20
-80
 21
-80.297
  0
LINE
  8
0
 10
8.724
 11
8.724
 20
-80.297
 21
-80.889
  0
LINE
  8
0
 10
8.724
 11
8.211
 20
-80.889
 21
-80.593
  0
LINE
  8
0
 10
8.211
 11
7.698
 20
-80.593
 21
-80.889
  0
LINE
  8
0
 10
7.698
 11
7.698
 20
-80.889
 21
-81.481
  0
LINE
  8
0
 10
7.698
 11
8.211
 20
-81.481
 21
-81.778
  0
LINE
  8
0
 10
8.211
 11
7.698
 20
-81.778
 21
-82.074
  0
LINE
  8
0
 10
7.698
 11
7.697
 20
-82.074
 21
-82.666
  0
LINE
  8
0
 10
7.697
 11
7.185
 20
-82.666
 21
-82.37
  0
LINE
  8
0
 10
7.185
 11
6.671
 20
-82.37
 21
-82.667
  0
LINE
  8
0
 10
6.671
 11
6.672
 20
-82.667
 21
-82.074
  0
LINE
  8
0
 10
6.672
 11
6.158
 20
-82.074
 21
-81.778
  0
LINE
  8
0
 10
6.158
 11
5.645
 20
-81.778
 21
-82.074
  0
LINE
  8
0
 10
5.645
 11
5.646
 20
-82.074
 21
-82.666
  0
LINE
  8
0
 10
5.646
 11
5.132
 20
-82.666
 21
-82.371
  0
LINE
  8
0
 10
5.132
 11
4.619
 20
-82.371
 21
-82.667
  0
LINE
  8
0
 10
4.619
 11
4.618
 20
-82.667
 21
-83.259
  0
LINE
  8
0
 10
4.618
 11
5.132
 20
-83.259
 21
-83.555
  0
LINE
  8
0
 10
5.132
 11
4.619
 20
-83.555
 21
-83.852
  0
LINE
  8
0
 10
4.619
 11
4.619
 20
-83.852
 21
-84.444
  0
LINE
  8
0
 10
4.619
 11
5.132
 20
-84.444
 21
-84.741
  0
LINE
  8
0
 10
5.132
 11
5.646
 20
-84.741
 21
-84.445
  0
LINE
  8
0
 10
5.646
 11
5.645
 20
-84.445
 21
-85.037
  0
LINE
  8
0
 10
5.645
 11
6.159
 20
-85.037
 21
-85.333
  0
LINE
  8
0
 10
6.159
 11
5.645
 20
-85.333
 21
-85.63
  0
LINE
  8
0
 10
5.645
 11
5.645
 20
-85.63
 21
-86.222
  0
LINE
  8
0
 10
5.645
 11
5.132
 20
-86.222
 21
-85.926
  0
LINE
  8
0
 10
5.132
 11
4.619
 20
-85.926
 21
-86.222
  0
LINE
  8
0
 10
4.619
 11
4.619
 20
-86.222
 21
-86.814
  0
LINE
  8
0
 10
4.619
 11
5.132
 20
-86.814
 21
-87.111
  0
LINE
  8
0
 10
5.132
 11
4.618
 20
-87.111
 21
-87.407
  0
LINE
  8
0
 10
4.618
 11
4.619
 20
-87.407
 21
-88
  0
LINE
  8
0
 10
4.619
 11
4.106
 20
-88
 21
-87.703
  0
LINE
  8
0
 10
4.106
 11
3.592
 20
-87.703
 21
-88
  0
LINE
  8
0
 10
3.592
 11
3.592
 20
-88
 21
-87.407
  0
LINE
  8
0
 10
3.592
 11
3.079
 20
-87.407
 21
-87.111
  0
LINE
  8
0
 10
3.079
 11
2.566
 20
-87.111
 21
-87.407
  0
LINE
  8
0
 10
2.566
 11
2.566
 20
-87.407
 21
-88
  0
LINE
  8
0
 10
2.566
 11
2.053
 20
-88
 21
-87.704
  0
LINE
  8
0
 10
2.053
 11
1.539
 20
-87.704
 21
-88
  0
LINE
  8
0
 10
1.539
 11
1.54
 20
-88
 21
-87.407
  0
LINE
  8
0
 10
1.54
 11
1.026
 20
-87.407
 21
-87.112
  0
LINE
  8
0
 10
1.026
 11
1.54
 20
-87.112
 21
-86.815
  0
LINE
  8
0
 10
1.54
 11
1.539
 20
-86.815
 21
-86.222
  0
LINE
  8
0
 10
1.539
 11
1.026
 20
-86.222
 21
-85.926
  0
LINE
  8
0
 10
1.026
 11
0.513
 20
-85.926
 21
-86.222
  0
LINE
  8
0
 10
0.513
 11
0.514
 20
-86.222
 21
-85.629
  0
LINE
  8
0
 10
0.514
 11
0
 20
-85.629
 21
-85.334
  0
LINE
  8
0
 10
0
 11
-0.513
 20
-85.334
 21
-85.63
  0
LINE
  8
0
 10
-0.513
 11
-0.514
 20
-85.63
 21
-86.222
  0
LINE
  8
0
 10
-0.514
 11
-1.026
 20
-86.222
 21
-85.926
  0
LINE
  8
0
 10
-1.026
 11
-1.539
 20
-85.926
 21
-86.222
  0
LINE
  8
0
 10
-1.539
 11
-1.54
 20
-86.222
 21
-86.815
  0
LINE
  8
0
 10
-1.54
 11
-1.026
 20
-86.815
 21
-87.111
  0
LINE
  8
0
 10
-1.026
 11
-1.54
 20
-87.111
 21
-87.407
  0
LINE
  8
0
 10
-1.54
 11
-1.54
 20
-87.407
 21
-87.999
  0
LINE
  8
0
 10
-1.54
 11
-2.053
 20
-87.999
 21
-87.704
  0
LINE
  8
0
 10
-2.053
 11
-2.566
 20
-87.704
 21
-88
  0
LINE
  8
0
 10
-2.566
 11
-2.566
 20
-88
 21
-87.407
  0
LINE
  8
0
 10
-2.566
 11
-3.079
 20
-87.407
 21
-87.111
  0
LINE
  8
0
 10
-3.079
 11
-3.592
 20
-87.111
 21
-87.408
  0
LINE
  8
0
 10
-3.592
 11
-3.592
 20
-87.408
 21
-88
  0
LINE
  8
0
 10
-3.592
 11
-4.105
 20
-88
 21
-87.704
  0
LINE
  8
0
 10
-4.105
 11
-4.619
 20
-87.704
 21
-88
  0
LINE
  8
0
 10
-4.619
 11
-4.619
 20
-88
 21
-87.408
  0
LINE
  8
0
 10
-4.619
 11
-5.132
 20
-87.408
 21
-87.111
  0
LINE
  8
0
 10
-5.132
 11
-4.619
 20
-87.111
 21
-86.814
  0
LINE
  8
0
 10
-4.619
 11
-4.619
 20
-86.814
 21
-86.222
  0
LINE
  8
0
 10
-4.619
 11
-5.132
 20
-86.222
 21
-85.926
  0
LINE
  8
0
 10
-5.132
 11
-5.645
 20
-85.926
 21
-86.222
  0
LINE
  8
0
 10
-5.645
 11
-5.645
 20
-86.222
 21
-85.63
  0
LINE
  8
0
 10
-5.645
 11
-6.158
 20
-85.63
 21
-85.334
  0
LINE
  8
0
 10
-6.158
 11
-5.645
 20
-85.334
 21
-85.037
  0
LINE
  8
0
 10
-5.645
 11
-5.645
 20
-85.037
 21
-84.444
  0
LINE
  8
0
 10
-5.645
 11
-5.132
 20
-84.444
 21
-84.741
  0
LINE
  8
0
 10
-5.132
 11
-4.618
 20
-84.741
 21
-84.445
  0
LINE
  8
0
 10
-4.618
 11
-4.619
 20
-84.445
 21
-83.852
  0
LINE
  8
0
 10
-4.619
 11
-5.132
 20
-83.852
 21
-83.555
  0
LINE
  8
0
 10
-5.132
 11
-4.619
 20
-83.555
 21
-83.259
  0
LINE
  8
0
 10
-4.619
 11
-4.619
 20
-83.259
 21
-82.666
  0
LINE
  8
0
 10
-4.619
 11
-5.132
 20
-82.666
 21
-82.371
  0
LINE
  8
0
 10
-5.132
 11
-5.645
 20
-82.371
 21
-82.667
  0
LINE
  8
0
 10
-5.645
 11
-5.645
 20
-82.667
 21
-82.074
  0
LINE
  8
0
 10
-5.645
 11
-6.158
 20
-82.074
 21
-81.777
  0
LINE
  8
0
 10
-6.158
 11
-6.672
 20
-81.777
 21
-82.074
  0
LINE
  8
0
 10
-6.672
 11
-6.671
 20
-82.074
 21
-82.667
  0
LINE
  8
0
 10
-6.671
 11
-7.185
 20
-82.667
 21
-82.37
  0
LINE
  8
0
 10
-7.185
 11
-7.698
 20
-82.37
 21
-82.666
  0
LINE
  8
0
 10
-7.698
 11
-7.698
 20
-82.666
 21
-82.074
  0
LINE
  8
0
 10
-7.698
 11
-8.211
 20
-82.074
 21
-81.778
  0
LINE
  8
0
 10
-8.211
 11
-7.698
 20
-81.778
 21
-81.481
  0
LINE
  8
0
 10
-7.698
 11
-7.698
 20
-81.481
 21
-80.889
  0
LINE
  8
0
 10
-7.698
 11
-8.211
 20
-80.889
 21
-80.593
  0
LINE
  8
0
 10
-8.211
 11
-8.724
 20
-80.593
 21
-80.889
  0
LINE
  8
0
 10
-8.724
 11
-8.725
 20
-80.889
 21
-80.296
  0
LINE
  8
0
 10
-8.725
 11
-9.238
 20
-80.296
 21
-80
  0
LINE
  8
0
 10
-9.238
 11
-8.724
 20
80
 21
80.297
  0
LINE
  8
0
 10
-8.724
 11
-8.724
 20
80.297
 21
80.889
  0
LINE
  8
0
 10
-8.724
 11
-8.211
 20
80.889
 21
80.593
  0
LINE
  8
0
 10
-8.211
 11
-7.698
 20
80.593
 21
80.889
  0
LINE
  8
0
 10
-7.698
 11
-7.698
 20
80.889
 21
81.481
  0
LINE
  8
0
 10
-7.698
 11
-8.211
 20
81.481
 21
81.778
  0
LINE
  8
0
 10
-8.211
 11
-7.698
 20
81.778
 21
82.074
  0
LINE
  8
0
 10
-7.698
 11
-7.697
 20
82.074
 21
82.666
  0
LINE
  8
0
 10
-7.697
 11
-7.185
 20
82.666
 21
82.37
  0
LINE
  8
0
 10
-7.185
 11
-6.671
 20
82.37
 21
82.667
  0
LINE
  8
0
 10
-6.671
 11
-6.672
 20
82.667
 21
82.074
  0
LINE
  8
0
 10
-6.672
 11
-6.158
 20
82.074
 21
81.778
  0
LINE
  8
0
 10
-6.158
 11
-5.645
 20
81.778
 21
82.074
  0
LINE
  8
0
 10
-5.645
 11
-5.646
 20
82.074
 21
82.666
  0
LINE
  8
0
 10
-5.646
 11
-5.132
 20
82.666
 21
82.371
  0
LINE
  8
0
 10
-5.132
 11
-4.619
 20
82.371
 21
82.667
  0
LINE
  8
0
 10
-4.619
 11
-4.618
 20
82.667
 21
83.259
  0
LINE
  8
0
 10
-4.618
 11
-5.132
 20
83.259
 21
83.555
  0
LINE
  8
0
 10
-5.132
 11
-4.619
 20
83.555
 21
83.852
  0
LINE
  8
0
 10
-4.619
 11
-4.619
 20
83.852
 21
84.444
  0
LINE
  8
0
 10
-4.619
 11
-5.132
 20
84.444
 21
84.741
  0
LINE
  8
0
 10
-5.132
 11
-5.646
 20
84.741
 21
84.445
  0
LINE
  8
0
 10
-5.646
 11
-5.645
 20
84.445
 21
85.037
  0
LINE
  8
0
 10
-5.645
 11
-6.159
 20
85.037
 21
85.333
  0
LINE
  8
0
 10
-6.159
 11
-5.645
 20
85.333
 21
85.63
  0
LINE
  8
0
 10
-5.645
 11
-5.645
 20
85.63
 21
86.222
  0
LINE
  8
0
 10
-5.645
 11
-5.132
 20
86.222
 21
85.926
  0
LINE
  8
0
 10
-5.132
 11
-4.619
 20
85.926
 21
86.222
  0
LINE
  8
0
 10
-4.619
 11
-4.619
 20
86.222
 21
86.814
  0
LINE
  8
0
 10
-4.619
 11
-5.132
 20
86.814
 21
87.111
  0
LINE
  8
0
 10
-5.132
 11
-4.618
 20
87.111
 21
87.407
  0
LINE
  8
0
 10
-4.618
 11
-4.619
 20
87.407
 21
88
  0
LINE
  8
0
 10
-4.619
 11
-4.106
 20
88
 21
87.703
  0
LINE
  8
0
 10
-4.106
 11
-3.592
 20
87.703
 21
88
  0
LINE
  8
0
 10
-3.592
 11
-3.592
 20
88
 21
87.407
  0
LINE
  8
0
 10
-3.592
 11
-3.079
 20
87.407
 21
87.111
  0
LINE
  8
0
 10
-3.079
 11
-2.566
 20
87.111
 21
87.407
  0
LINE
  8
0
 10
-2.566
 11
-2.566
 20
87.407
 21
88
  0
LINE
  8
0
 10
-2.566
 11
-2.053
 20
88
 21
87.704
  0
LINE
  8
0
 10
-2.053
 11
-1.539
 20
87.704
 21
88
  0
LINE
  8
0
 10
-1.539
 11
-1.54
 20
88
 21
87.407
  0
LINE
  8
0
 10
-1.54
 11
-1.026
 20
87.407
 21
87.112
  0
LINE
  8
0
 10
-1.026
 11
-1.54
 20
87.112
 21
86.815
  0
LINE
  8
0
 10
-1.54
 11
-1.539
 20
86.815
 21
86.222
  0
LINE
  8
0
 10
-1.539
 11
-1.026
 20
86.222
 21
85.926
  0
LINE
  8
0
 10
-1.026
 11
-0.513
 20
85.926
 21
86.222
  0
LINE
  8
0
 10
-0.513
 11
-0.514
 20
86.222
 21
85.629
  0
LINE
  8
0
 10
-0.514
 11
0
 20
85.629
 21
85.334
  0
LINE
  8
0
 10
0
 11
0.513
 20
85.334
 21
85.63
  0
LINE
  8
0
 10
0.513
 11
0.514
 20
85.63
 21
86.222
  0
LINE
  8
0
 10
0.514
 11
1.026
 20
86.222
 21
85.926
  0
LINE
  8
0
 10
1.026
 11
1.539
 20
85.926
 21
86.222
  0
LINE
  8
0
 10
1.539
 11
1.54
 20
86.222
 21
86.815
  0
LINE
  8
0
 10
1.54
 11
1.026
 20
86.815
 21
87.111
  0
LINE
  8
0
 10
1.026
 11
1.54
 20
87.111
 21
87.407
  0
LINE
  8
0
 10
1.54
 11
1.54
 20
87.407
 21
87.999
  0
LINE
  8
0
 10
1.54
 11
2.053
 20
87.999
 21
87.704
  0
LINE
  8
0
 10
2.053
 11
2.566
 20
87.704
 21
88
  0
LINE
  8
0
 10
2.566
 11
2.566
 20
88
 21
87.407
  0
LINE
  8
0
 10
2.566
 11
3.079
 20
87.407
 21
87.111
  0
LINE
  8
0
 10
3.079
 11
3.592
 20
87.111
 21
87.408
  0
LINE
  8
0
 10
3.592
 11
3.592
 20
87.408
 21
88
  0
LINE
  8
0
 10
3.592
 11
4.105
 20
88
 21
87.704
  0
LINE
  8
0
 10
4.105
 11
4.619
 20
87.704
 21
88
  0
LINE
  8
0
 10
4.619
 11
4.619
 20
88
 21
87.408
  0
LINE
  8
0
 10
4.619
 11
5.132
 20
87.408
 21
87.111
  0
LINE
  8
0
 10
5.132
 11
4.619
 20
87.111
 21
86.814
  0
LINE
  8
0
 10
4.619
 11
4.619
 20
86.814
 21
86.222
  0
LINE
  8
0
 10
4.619
 11
5.132
 20
86.222
 21
85.926
  0
LINE
  8
0
 10
5.132
 11
5.645
 20
85.926
 21
86.222
  0
LINE
  8
0
 10
5.645
 11
5.645
 20
86.222
 21
85.63
  0
LINE
  8
0
 10
5.645
 11
6.158
 20
85.63
 21
85.334
  0
LINE
  8
0
 10
6.158
 11
5.645
 20
85.334
 21
85.037
  0
LINE
  8
0
 10
5.645
 11
5.645
 20
85.037
 21
84.444
  0
LINE
  8
0
 10
5.645
 11
5.132
 20
84.444
 21
84.741
  0
LINE
  8
0
 10
5.132
 11
4.618
 20
84.741
 21
84.445
  0
LINE
  8
0
 10
4.618
 11
4.619
 20
84.445
 21
83.852
  0
LINE
  8
0
 10
4.619
 11
5.132
 20
83.852
 21
83.555
  0
LINE
  8
0
 10
5.132
 11
4.619
 20
83.555
 21
83.259
  0
LINE
  8
0
 10
4.619
 11
4.619
 20
83.259
 21
82.666
  0
LINE
  8
0
 10
4.619
 11
5.132
 20
82.666
 21
82.371
  0
LINE
  8
0
 10
5.132
 11
5.645
 20
82.371
 21
82.667
  0
LINE
  8
0
 10
5.645
 11
5.645
 20
82.667
 21
82.074
  0
LINE
  8
0
 10
5.645
 11
6.158
 20
82.074
 21
81.777
  0
LINE
  8
0
 10
6.158
 11
6.672
 20
81.777
 21
82.074
  0
LINE
  8
0
 10
6.672
 11
6.671
 20
82.074
 21
82.667
  0
LINE
  8
0
 10
6.671
 11
7.185
 20
82.667
 21
82.37
  0
LINE
  8
0
 10
7.185
 11
7.698
 20
82.37
 21
82.666
  0
LINE
  8
0
 10
7.698
 11
7.698
 20
82.666
 21
82.074
  0
LINE
  8
0
 10
7.698
 11
8.211
 20
82.074
 21
81.778
  0
LINE
  8
0
 10
8.211
 11
7.698
 20
81.778
 21
81.481
  0
LINE
  8
0
 10
7.698
 11
7.698
 20
81.481
 21
80.889
  0
LINE
  8
0
 10
7.698
 11
8.211
 20
80.889
 21
80.593
  0
LINE
  8
0
 10
8.211
 11
8.724
 20
80.593
 21
80.889
  0
LINE
  8
0
 10
8.724
 11
8.725
 20
80.889
 21
80.296
  0
LINE
  8
0
 10
8.725
 11
9.238
 20
80.296
 21
80
  0
LINE
  8
0
 10
9.238
 11
8.724
 20
80
 21
79.703
  0
LINE
  8
0
 10
8.724
 11
8.724
 20
79.703
 21
79.111
  0
LINE
  8
0
 10
8.724
 11
8.211
 20
79.111
 21
79.407
  0
LINE
  8
0
 10
8.211
 11
7.698
 20
79.407
 21
79.111
  0
LINE
  8
0
 10
7.698
 11
7.698
 20
79.111
 21
78.519
  0
LINE
  8
0
 10
7.698
 11
8.211
 20
78.519
 21
78.222
  0
LINE
  8
0
 10
8.211
 11
7.698
 20
78.222
 21
77.926
  0
LINE
  8
0
 10
7.698
 11
7.698
 20
77.926
 21
77.333
  0
LINE
  8
0
 10
7.698
 11
7.185
 20
77.333
 21
77.63
  0
LINE
  8
0
 10
7.185
 11
6.671
 20
77.63
 21
77.333
  0
LINE
  8
0
 10
6.671
 11
6.672
 20
77.333
 21
77.926
  0
LINE
  8
0
 10
6.672
 11
6.158
 20
77.926
 21
78.222
  0
LINE
  8
0
 10
6.158
 11
5.645
 20
78.222
 21
77.926
  0
LINE
  8
0
 10
5.645
 11
5.646
 20
77.926
 21
77.334
  0
LINE
  8
0
 10
5.646
 11
5.132
 20
77.334
 21
77.629
  0
LINE
  8
0
 10
5.132
 11
4.619
 20
77.629
 21
77.333
  0
LINE
  8
0
 10
4.619
 11
4.618
 20
77.333
 21
76.741
  0
LINE
  8
0
 10
4.618
 11
5.132
 20
76.741
 21
76.445
  0
LINE
  8
0
 10
5.132
 11
4.619
 20
76.445
 21
76.148
  0
LINE
  8
0
 10
4.619
 11
4.619
 20
76.148
 21
75.556
  0
LINE
  8
0
 10
4.619
 11
5.132
 20
75.556
 21
75.259
  0
LINE
  8
0
 10
5.132
 11
5.646
 20
75.259
 21
75.555
  0
LINE
  8
0
 10
5.646
 11
5.645
 20
75.555
 21
74.963
  0
LINE
  8
0
 10
5.645
 11
6.159
 20
74.963
 21
74.667
  0
LINE
  8
0
 10
6.159
 11
5.645
 20
74.667
 21
74.37
  0
LINE
  8
0
 10
5.645
 11
5.645
 20
74.37
 21
73.778
  0
LINE
  8
0
 10
5.645
 11
5.132
 20
73.778
 21
74.074
  0
LINE
  8
0
 10
5.132
 11
4.619
 20
74.074
 21
73.778
  0
LINE
  8
0
 10
4.619
 11
4.619
 20
73.778
 21
73.186
  0
LINE
  8
0
 10
4.619
 11
5.132
 20
73.186
 21
72.889
  0
LINE
  8
0
 10
5.132
 11
4.618
 20
72.889
 21
72.593
  0
LINE
  8
0
 10
4.618
 11
4.619
 20
72.593
 21
72
  0
LINE
  8
0
 10
4.619
 11
4.106
 20
72
 21
72.297
  0
LINE
  8
0
 10
4.106
 11
3.592
 20
72.297
 21
72
  0
LINE
  8
0
 10
3.592
 11
3.592
 20
72
 21
72.593
  0
LINE
  8
0
 10
3.592
 11
3.079
 20
72.593
 21
72.889
  0
LINE
  8
0
 10
3.079
 11
2.566
 20
72.889
 21
72.593
  0
LINE
  8
0
 10
2.566
 11
2.566
 20
72.593
 21
72
  0
LINE
  8
0
 10
2.566
 11
2.053
 20
72
 21
72.296
  0
LINE
  8
0
 10
2.053
 11
1.539
 20
72.296
 21
72
  0
LINE
  8
0
 10
1.539
 11
1.54
 20
72
 21
72.593
  0
LINE
  8
0
 10
1.54
 11
1.026
 20
72.593
 21
72.888
  0
LINE
  8
0
 10
1.026
 11
1.54
 20
72.888
 21
73.185
  0
LINE
  8
0
 10
1.54
 11
1.539
 20
73.185
 21
73.778
  0
LINE
  8
0
 10
1.539
 11
1.026
 20
73.778
 21
74.074
  0
LINE
  8
0
 10
1.026
 11
0.513
 20
74.074
 21
73.778
  0
LINE
  8
0
 10
0.513
 11
0.514
 20
73.778
 21
74.371
  0
LINE
  8
0
 10
0.514
 11
0
 20
74.371
 21
74.666
  0
LINE
  8
0
 10
0
 11
-0.513
 20
74.666
 21
74.37
  0
LINE
  8
0
 10
-0.513
 11
-0.514
 20
74.37
 21
73.778
  0
LINE
  8
0
 10
-0.514
 11
-1.026
 20
73.778
 21
74.074
  0
LINE
  8
0
 10
-1.026
 11
-1.539
 20
74.074
 21
73.778
  0
LINE
  8
0
 10
-1.539
 11
-1.54
 20
73.778
 21
73.185
  0
LINE
  8
0
 10
-1.54
 11
-1.026
 20
73.185
 21
72.889
  0
LINE
  8
0
 10
-1.026
 11
-1.54
 20
72.889
 21
72.593
  0
LINE
  8
0
 10
-1.54
 11
-1.539
 20
72.593
 21
72
  0
LINE
  8
0
 10
-1.539
 11
-2.053
 20
72
 21
72.296
  0
LINE
  8
0
 10
-2.053
 11
-2.566
 20
72.296
 21
72
  0
LINE
  8
0
 10
-2.566
 11
-2.566
 20
72
 21
72.593
  0
LINE
  8
0
 10
-2.566
 11
-3.079
 20
72.593
 21
72.889
  0
LINE
  8
0
 10
-3.079
 11
-3.592
 20
72.889
 21
72.592
  0
LINE
  8
0
 10
-3.592
 11
-3.592
 20
72.592
 21
72
  0
LINE
  8
0
 10
-3.592
 11
-4.105
 20
72
 21
72.296
  0
LINE
  8
0
 10
-4.105
 11
-4.619
 20
72.296
 21
72
  0
LINE
  8
0
 10
-4.619
 11
-4.619
 20
72
 21
72.592
  0
LINE
  8
0
 10
-4.619
 11
-5.132
 20
72.592
 21
72.889
  0
LINE
  8
0
 10
-5.132
 11
-4.619
 20
72.889
 21
73.186
  0
LINE
  8
0
 10
-4.619
 11
-4.619
 20
73.186
 21
73.778
  0
LINE
  8
0
 10
-4.619
 11
-5.132
 20
73.778
 21
74.074
  0
LINE
  8
0
 10
-5.132
 11
-5.645
 20
74.074
 21
73.778
  0
LINE
  8
0
 10
-5.645
 11
-5.645
 20
73.778
 21
74.37
  0
LINE
  8
0
 10
-5.645
 11
-6.158
 20
74.37
 21
74.666
  0
LINE
  8
0
 10
-6.158
 11
-5.645
 20
74.666
 21
74.963
  0
LINE
  8
0
 10
-5.645
 11
-5.645
 20
74.963
 21
75.556
  0
LINE
  8
0
 10
-5.645
 11
-5.132
 20
75.556
 21
75.259
  0
LINE
  8
0
 10
-5.132
 11
-4.618
 20
75.259
 21
75.555
  0
LINE
  8
0
 10
-4.618
 11
-4.619
 20
75.555
 21
76.148
  0
LINE
  8
0
 10
-4.619
 11
-5.132
 20
76.148
 21
76.445
  0
LINE
  8
0
 10
-5.132
 11
-4.619
 20
76.445
 21
76.741
  0
LINE
  8
0
 10
-4.619
 11
-4.618
 20
76.741
 21
77.333
  0
LINE
  8
0
 10
-4.618
 11
-5.132
 20
77.333
 21
77.629
  0
LINE
  8
0
 10
-5.132
 11
-5.645
 20
77.629
 21
77.333
  0
LINE
  8
0
 10
-5.645
 11
-5.645
 20
77.333
 21
77.926
  0
LINE
  8
0
 10
-5.645
 11
-6.158
 20
77.926
 21
78.223
  0
LINE
  8
0
 10
-6.158
 11
-6.672
 20
78.223
 21
77.926
  0
LINE
  8
0
 10
-6.672
 11
-6.671
 20
77.926
 21
77.333
  0
LINE
  8
0
 10
-6.671
 11
-7.185
 20
77.333
 21
77.63
  0
LINE
  8
0
 10
-7.185
 11
-7.698
 20
77.63
 21
77.334
  0
LINE
  8
0
 10
-7.698
 11
-7.698
 20
77.334
 21
77.926
  0
LINE
  8
0
 10
-7.698
 11
-8.211
 20
77.926
 21
78.222
  0
LINE
  8
0
 10
-8.211
 11
-7.698
 20
78.222
 21
78.519
  0
LINE
  8
0
 10
-7.698
 11
-7.698
 20
78.519
 21
79.111
  0
LINE
  8
0
 10
-7.698
 11
-8.211
 20
79.111
 21
79.407
  0
LINE
  8
0
 10
-8.211
 11
-8.724
 20
79.407
 21
79.111
  0
LINE
  8
0
 10
-8.724
 11
-8.725
 20
79.111
 21
79.704
  0
LINE
  8
0
 10
-8.725
 11
-9.238
 20
79.704
 21
80
  0
LINE
  8
0
 10
-8
 11
-7.704
 20
-4.619
 21
-4.106
  0
LINE
  8
0
 10
-7.704
 11
-8
 20
-4.106
 21
-3.592
  0
LINE
  8
0
 10
-8
 11
-7.407
 20
-3.592
 21
-3.592
  0
LINE
  8
0
 10
-7.407
 11
-7.111
 20
-3.592
 21
-3.079
  0
LINE
  8
0
 10
-7.111
 11
-7.407
 20
-3.079
 21
-2.566
  0
LINE
  8
0
 10
-7.407
 11
-8
 20
-2.566
 21
-2.566
  0
LINE
  8
0
 10
-8
 11
-7.704
 20
-2.566
 21
-2.053
  0
LINE
  8
0
 10
-7.704
 11
-8
 20
-2.053
 21
-1.54
  0
LINE
  8
0
 10
-8
 11
-7.407
 20
-1.54
 21
-1.54
  0
LINE
  8
0
 10
-7.407
 11
-7.111
 20
-1.54
 21
-1.026
  0
LINE
  8
0
 10
-7.111
 11
-6.815
 20
-1.026
 21
-1.54
  0
LINE
  8
0
 10
-6.815
 11
-6.222
 20
-1.54
 21
-1.54
  0
LINE
  8
0
 10
-6.222
 11
-5.926
 20
-1.54
 21
-1.026
  0
LINE
  8
0
 10
-5.926
 11
-6.222
 20
-1.026
 21
-0.513
  0
LINE
  8
0
 10
-6.222
 11
-5.63
 20
-0.513
 21
-0.513
  0
LINE
  8
0
 10
-5.63
 11
-5.333
 20
-0.513
 21
0
  0
LINE
  8
0
 10
-5.333
 11
-5.63
 20
0
 21
0.513
  0
LINE
  8
0
 10
-5.63
 11
-6.222
 20
0.513
 21
0.513
  0
LINE
  8
0
 10
-6.222
 11
-5.926
 20
0.513
 21
1.026
  0
LINE
  8
0
 10
-5.926
 11
-6.222
 20
1.026
 21
1.54
  0
LINE
  8
0
 10
-6.222
 11
-6.815
 20
1.54
 21
1.54
  0
LINE
  8
0
 10
-6.815
 11
-7.111
 20
1.54
 21
1.026
  0
LINE
  8
0
 10
-7.111
 11
-7.407
 20
1.026
 21
1.54
  0
LINE
  8
0
 10
-7.407
 11
-8
 20
1.54
 21
1.54
  0
LINE
  8
0
 10
-8
 11
-7.704
 20
1.54
 21
2.053
  0
LINE
  8
0
 10
-7.704
 11
-8
 20
2.053
 21
2.566
  0
LINE
  8
0
 10
-8
 11
-7.407
 20
2.566
 21
2.566
  0
LINE
  8
0
 10
-7.407
 11
-7.111
 20
2.566
 21
3.079
  0
LINE
  8
0
 10
-7.111
 11
-7.407
 20
3.079
 21
3.592
  0
LINE
  8
0
 10
-7.407
 11
-8
 20
3.592
 21
3.592
  0
LINE
  8
0
 10
-8
 11
-7.704
 20
3.592
 21
4.106
  0
LINE
  8
0
 10
-7.704
 11
-8
 20
4.106
 21
4.619
  0
LINE
  8
0
 10
-8
 11
-7.407
 20
4.619
 21
4.619
  0
LINE
  8
0
 10
-7.407
 11
-7.111
 20
4.619
 21
5.132
  0
LINE
  8
0
 10
-7.111
 11
-6.815
 20
5.132
 21
4.619
  0
LINE
  8
0
 10
-6.815
 11
-6.222
 20
4.619
 21
4.619
  0
LINE
  8
0
 10
-6.222
 11
-5.926
 20
4.619
 21
5.132
  0
LINE
  8
0
 10
-5.926
 11
-6.222
 20
5.132
 21
5.645
  0
LINE
  8
0
 10
-6.222
 11
-5.63
 20
5.645
 21
5.645
  0
LINE
  8
0
 10
-5.63
 11
-5.333
 20
5.645
 21
6.158
  0
LINE
  8
0
 10
-5.333
 11
-5.037
 20
6.158
 21
5.645
  0
LINE
  8
0
 10
-5.037
 11
-4.444
 20
5.645
 21
5.645
  0
LINE
  8
0
 10
-4.444
 11
-4.741
 20
5.645
 21
5.132
  0
LINE
  8
0
 10
-4.741
 11
-4.444
 20
5.132
 21
4.619
  0
LINE
  8
0
 10
-4.444
 11
-3.852
 20
4.619
 21
4.619
  0
LINE
  8
0
 10
-3.852
 11
-3.556
 20
4.619
 21
5.132
  0
LINE
  8
0
 10
-3.556
 11
-3.259
 20
5.132
 21
4.619
  0
LINE
  8
0
 10
-3.259
 11
-2.667
 20
4.619
 21
4.619
  0
LINE
  8
0
 10
-2.667
 11
-2.37
 20
4.619
 21
5.132
  0
LINE
  8
0
 10
-2.37
 11
-2.667
 20
5.132
 21
5.645
  0
LINE
  8
0
 10
-2.667
 11
-2.074
 20
5.645
 21
5.645
  0
LINE
  8
0
 10
-2.074
 11
-1.778
 20
5.645
 21
6.158
  0
LINE
  8
0
 10
-1.778
 11
-2.074
 20
6.158
 21
6.672
  0
LINE
  8
0
 10
-2.074
 11
-2.667
 20
6.672
 21
6.672
  0
LINE
  8
0
 10
-2.667
 11
-2.37
 20
6.672
 21
7.185
  0
LINE
  8
0
 10
-2.37
 11
-2.667
 20
7.185
 21
7.698
  0
LINE
  8
0
 10
-2.667
 11
-2.074
 20
7.698
 21
7.698
  0
LINE
  8
0
 10
-2.074
 11
-1.778
 20
7.698
 21
8.211
  0
LINE
  8
0
 10
-1.778
 11
-1.481
 20
8.211
 21
7.698
  0
LINE
  8
0
 10
-1.481
 11
-0.889
 20
7.698
 21
7.698
  0
LINE
  8
0
 10
-0.889
 11
-0.593
 20
7.698
 21
8.211
  0
LINE
  8
0
 10
-0.593
 11
-0.889
 20
8.211
 21
8.724
  0
LINE
  8
0
 10
-0.889
 11
-0.296
 20
8.724
 21
8.724
  0
LINE
  8
0
 10
-0.296
 11
0
 20
8.724
 21
9.238
  0
LINE
  8
0
 10
0
 11
0.296
 20
9.238
 21
8.724
  0
LINE
  8
0
 10
0.296
 11
0.889
 20
8.724
 21
8.724
  0
LINE
  8
0
 10
0.889
 11
0.593
 20
8.724
 21
8.211
  0
LINE
  8
0
 10
0.593
 11
0.889
 20
8.211
 21
7.698
  0
LINE
  8
0
 10
0.889
 11
1.481
 20
7.698
 21
7.698
  0
LINE
  8
0
 10
1.481
 11
1.778
 20
7.698
 21
8.211
  0
LINE
  8
0
 10
1.778
 11
2.074
 20
8.211
 21
7.698
  0
LINE
  8
0
 10
2.074
 11
2.667
 20
7.698
 21
7.698
  0
LINE
  8
0
 10
2.667
 11
2.37
 20
7.698
 21
7.185
  0
LINE
  8
0
 10
2.37
 11
2.667
 20
7.185
 21
6.672
  0
LINE
  8
0
 10
2.667
 11
2.074
 20
6.672
 21
6.672
  0
LINE
  8
0
 10
2.074
 11
1.778
 20
6.672
 21
6.158
  0
LINE
  8
0
 10
1.778
 11
2.074
 20
6.158
 21
5.645
  0
LINE
  8
0
 10
2.074
 11
2.667
 20
5.645
 21
5.645
  0
LINE
  8
0
 10
2.667
 11
2.37
 20
5.645
 21
5.132
  0
LINE
  8
0
 10
2.37
 11
2.667
 20
5.132
 21
4.619
  0
LINE
  8
0
 10
2.667
 11
3.259
 20
4.619
 21
4.619
  0
LINE
  8
0
 10
3.259
 11
3.556
 20
4.619
 21
5.132
  0
LINE
  8
0
 10
3.556
 11
3.852
 20
5.132
 21
4.619
  0
LINE
  8
0
 10
3.852
 11
4.444
 20
4.619
 21
4.619
  0
LINE
  8
0
 10
4.444
 11
4.741
 20
4.619
 21
5.132
  0
LINE
  8
0
 10
4.741
 11
4.444
 20
5.132
 21
5.645
  0
LINE
  8
0
 10
4.444
 11
5.037
 20
5.645
 21
5.645
  0
LINE
  8
0
 10
5.037
 11
5.333
 20
5.645
 21
6.158
  0
LINE
  8
0
 10
5.333
 11
5.63
 20
6.158
 21
5.645
  0
LINE
  8
0
 10
5.63
 11
6.222
 20
5.645
 21
5.645
  0
LINE
  8
0
 10
6.222
 11
5.926
 20
5.645
 21
5.132
  0
LINE
  8
0
 10
5.926
 11
6.222
 20
5.132
 21
4.619
  0
LINE
  8
0
 10
6.222
 11
6.815
 20
4.619
 21
4.619
  0
LINE
  8
0
 10
6.815
 11
7.111
 20
4.619
 21
5.132
  0
LINE
  8
0
 10
7.111
 11
7.407
 20
5.132
 21
4.619
  0
LINE
  8
0
 10
7.407
 11
8
 20
4.619
 21
4.619
  0
LINE
  8
0
 10
8
 11
7.704
 20
4.619
 21
4.106
  0
LINE
  8
0
 10
7.704
 11
8
 20
4.106
 21
3.592
  0
LINE
  8
0
 10
8
 11
7.407
 20
3.592
 21
3.592
  0
LINE
  8
0
 10
7.407
 11
7.111
 20
3.592
 21
3.079
  0
LINE
  8
0
 10
7.111
 11
7.407
 20
3.079
 21
2.566
  0
LINE
  8
0
 10
7.407
 11
8
 20
2.566
 21
2.566
  0
LINE
  8
0
 10
8
 11
7.704
 20
2.566
 21
2.053
  0
LINE
  8
0
 10
7.704
 11
8
 20
2.053
 21
1.54
  0
LINE
  8
0
 10
8
 11
7.407
 20
1.54
 21
1.54
  0
LINE
  8
0
 10
7.407
 11
7.111
 20
1.54
 21
1.026
  0
LINE
  8
0
 10
7.111
 11
6.815
 20
1.026
 21
1.54
  0
LINE
  8
0
 10
6.815
 11
6.222
 20
1.54
 21
1.54
  0
LINE
  8
0
 10
6.222
 11
5.926
 20
1.54
 21
1.026
  0
LINE
  8
0
 10
5.926
 11
6.222
 20
1.026
 21
0.513
  0
LINE
  8
0
 10
6.222
 11
5.63
 20
0.513
 21
0.513
  0
LINE
  8
0
 10
5.63
 11
5.333
 20
0.513
 21
0
  0
LINE
  8
0
 10
5.333
 11
5.63
 20
0
 21
-0.513
  0
LINE
  8
0
 10
5.63
 11
6.222
 20
-0.513
 21
-0.513
  0
LINE
  8
0
 10
6.222
 11
5.926
 20
-0.513
 21
-1.026
  0
LINE
  8
0
 10
5.926
 11
6.222
 20
-1.026
 21
-1.54
  0
LINE
  8
0
 10
6.222
 11
6.815
 20
-1.54
 21
-1.54
  0
LINE
  8
0
 10
6.815
 11
7.111
 20
-1.54
 21
-1.026
  0
LINE
  8
0
 10
7.111
 11
7.407
 20
-1.026
 21
-1.54
  0
LINE
  8
0
 10
7.407
 11
8
 20
-1.54
 21
-1.54
  0
LINE
  8
0
 10
8
 11
7.704
 20
-1.54
 21
-2.053
  0
LINE
  8
0
 10
7.704
 11
8
 20
-2.053
 21
-2.566
  0
LINE
  8
0
 10
8
 11
7.407
 20
-2.566
 21
-2.566
  0
LINE
  8
0
 10
7.407
 11
7.111
 20
-2.566
 21
-3.079
  0
LINE
  8
0
 10
7.111
 11
7.407
 20
-3.079
 21
-3.592
  0
LINE
  8
0
 10
7.407
 11
8
 20
-3.592
 21
-3.592
  0
LINE
  8
0
 10
8
 11
7.704
 20
-3.592
 21
-4.106
  0
LINE
  8
0
 10
7.704
 11
8
 20
-4.106
 21
-4.619
  0
LINE
  8
0
 10
8
 11
7.407
 20
-4.619
 21
-4.619
  0
LINE
  8
0
 10
7.407
 11
7.111
 20
-4.619
 21
-5.132
  0
LINE
  8
0
 10
7.111
 11
6.815
 20
-5.132
 21
-4.619
  0
LINE
  8
0
 10
6.815
 11
6.222
 20
-4.619
 21
-4.619
  0
LINE
  8
0
 10
6.222
 11
5.926
 20
-4.619
 21
-5.132
  0
LINE
  8
0
 10
5.926
 11
6.222
 20
-5.132
 21
-5.645
  0
LINE
  8
0
 10
6.222
 11
5.63
 20
-5.645
 21
-5.645
  0
LINE
  8
0
 10
5.63
 11
5.333
 20
-5.645
 21
-6.158
  0
LINE
  8
0
 10
5.333
 11
5.037
 20
-6.158
 21
-5.645
  0
LINE
  8
0
 10
5.037
 11
4.444
 20
-5.645
 21
-5.645
  0
LINE
  8
0
 10
4.444
 11
4.741
 20
-5.645
 21
-5.132
  0
LINE
  8
0
 10
4.741
 11
4.444
 20
-5.132
 21
-4.619
  0
LINE
  8
0
 10
4.444
 11
3.852
 20
-4.619
 21
-4.619
  0
LINE
  8
0
 10
3.852
 11
3.556
 20
-4.619
 21
-5.132
  0
LINE
  8
0
 10
3.556
 11
3.259
 20
-5.132
 21
-4.619
  0
LINE
  8
0
 10
3.259
 11
2.667
 20
-4.619
 21
-4.619
  0
LINE
  8
0
 10
2.667
 11
2.37
 20
-4.619
 21
-5.132
  0
LINE
  8
0
 10
2.37
 11
2.667
 20
-5.132
 21
-5.645
  0
LINE
  8
0
 10
2.667
 11
2.074
 20
-5.645
 21
-5.645
  0
LINE
  8
0
 10
2.074
 11
1.778
 20
-5.645
 21
-6.158
  0
LINE
  8
0
 10
1.778
 11
2.074
 20
-6.158
 21
-6.672
  0
LINE
  8
0
 10
2.074
 11
2.667
 20
-6.672
 21
-6.672
  0
LINE
  8
0
 10
2.667
 11
2.37
 20
-6.672
 21
-7.185
  0
LINE
  8
0
 10
2.37
 11
2.667
 20
-7.185
 21
-7.698
  0
LINE
  8
0
 10
2.667
 11
2.074
 20
-7.698
 21
-7.698
  0
LINE
  8
0
 10
2.074
 11
1.778
 20
-7.698
 21
-8.211
  0
LINE
  8
0
 10
1.778
 11
1.481
 20
-8.211
 21
-7.698
  0
LINE
  8
0
 10
1.481
 11
0.889
 20
-7.698
 21
-7.698
  0
LINE
  8
0
 10
0.889
 11
0.593
 20
-7.698
 21
-8.211
  0
LINE
  8
0
 10
0.593
 11
0.889
 20
-8.211
 21
-8.724
  0
LINE
  8
0
 10
0.889
 11
0.296
 20
-8.724
 21
-8.724
  0
LINE
  8
0
 10
0.296
 11
0
 20
-8.724
 21
-9.238
  0
LINE
  8
0
 10
0
 11
-0.296
 20
-9.238
 21
-8.724
  0
LINE
  8
0
 10
-0.296
 11
-0.889
 20
-8.724
 21
-8.724
  0
LINE
  8
0
 10
-0.889
 11
-0.593
 20
-8.724
 21
-8.211
  0
LINE
  8
0
 10
-0.593
 11
-0.889
 20
-8.211
 21
-7.698
  0
LINE
  8
0
 10
-0.889
 11
-1.481
 20
-7.698
 21
-7.698
  0
LINE
  8
0
 10
-1.481
 11
-1.778
 20
-7.698
 21
-8.211
  0
LINE
  8
0
 10
-1.778
 11
-2.074
 20
-8.211
 21
-7.698
  0
LINE
  8
0
 10
-2.074
 11
-2.667
 20
-7.698
 21
-7.698
  0
LINE
  8
0
 10
-2.667
 11
-2.37
 20
-7.698
 21
-7.185
  0
LINE
  8
0
 10
-2.37
 11
-2.667
 20
-7.185
 21
-6.672
  0
LINE
  8
0
 10
-2.667
 11
-2.074
 20
-6.672
 21
-6.672
  0
LINE
  8
0
 10
-2.074
 11
-1.778
 20
-6.672
 21
-6.158
  0
LINE
  8
0
 10
-1.778
 11
-2.074
 20
-6.158
 21
-5.645
  0
LINE
  8
0
 10
-2.074
 11
-2.667
 20
-5.645
 21
-5.645
  0
LINE
  8
0
 10
-2.667
 11
-2.37
 20
-5.645
 21
-5.132
  0
LINE
  8
0
 10
-2.37
 11
-2.667
 20
-5.132
 21
-4.619
  0
LINE
  8
0
 10
-2.667
 11
-3.259
 20
-4.619
 21
-4.619
  0
LINE
  8
0
 10
-3.259
 11
-3.556
 20
-4.619
 21
-5.132
  0
LINE
  8
0
 10
-3.556
 11
-3.852
 20
-5.132
 21
-4.619
  0
LINE
  8
0
 10
-3.852
 11
-4.444
 20
-4.619
 21
-4.619
  0
LINE
  8
0
 10
-4.444
 11
-4.741
 20
-4.619
 21
-5.132
  0
LINE
  8
0
 10
-4.741
 11
-4.444
 20
-5.132
 21
-5.645
  0
LINE
  8
0
 10
-4.444
 11
-5.037
 20
-5.645
 21
-5.645
  0
LINE
  8
0
 10
-5.037
 11
-5.333
 20
-5.645
 21
-6.158
  0
LINE
  8
0
 10
-5.333
 11
-5.63
 20
-6.158
 21
-5.645
  0
LINE
  8
0
 10
-5.63
 11
-6.222
 20
-5.645
 21
-5.645
  0
LINE
  8
0
 10
-6.222
 11
-5.926
 20
-5.645
 21
-5.132
  0
LINE
  8
0
 10
-5.926
 11
-6.222
 20
-5.132
 21
-4.619
  0
LINE
  8
0
 10
-6.222
 11
-6.815
 20
-4.619
 21
-4.619
  0
LINE
  8
0
 10
-6.815
 11
-7.111
 20
-4.619
 21
-5.132
  0
LINE
  8
0
 10
-7.111
 11
-7.407
 20
-5.132
 21
-4.619
  0
LINE
  8
0
 10
-7.407
 11
-8
 20
-4.619
 21
-4.619
  0
LINE
  8
0
 10
0.609
 11
1.778
 20
-17.448
 21
-17.448
  0
LINE
  8
0
 10
1.778
 11
1.186
 20
-17.448
 21
-16.422
  0
LINE
  8
0
 10
1.186
 11
1.778
 20
-16.422
 21
-15.396
  0
LINE
  8
0
 10
1.778
 11
2.962
 20
-15.396
 21
-15.396
  0
LINE
  8
0
 10
2.962
 11
3.556
 20
-15.396
 21
-16.422
  0
LINE
  8
0
 10
3.556
 11
4.148
 20
-16.422
 21
-15.396
  0
LINE
  8
0
 10
4.148
 11
5.334
 20
-15.396
 21
-15.396
  0
LINE
  8
0
 10
5.334
 11
4.74
 20
-15.396
 21
-14.37
  0
LINE
  8
0
 10
4.74
 11
5.334
 20
-14.37
 21
-13.344
  0
LINE
  8
0
 10
5.334
 11
4.148
 20
-13.344
 21
-13.344
  0
LINE
  8
0
 10
4.148
 11
3.556
 20
-13.344
 21
-12.316
  0
LINE
  8
0
 10
3.556
 11
4.148
 20
-12.316
 21
-11.29
  0
LINE
  8
0
 10
4.148
 11
5.334
 20
-11.29
 21
-11.29
  0
LINE
  8
0
 10
5.334
 11
4.74
 20
-11.29
 21
-10.264
  0
LINE
  8
0
 10
4.74
 11
5.334
 20
-10.264
 21
-9.238
  0
LINE
  8
0
 10
5.334
 11
6.518
 20
-9.238
 21
-9.238
  0
LINE
  8
0
 10
6.518
 11
7.112
 20
-9.238
 21
-10.264
  0
LINE
  8
0
 10
7.112
 11
7.704
 20
-10.264
 21
-9.238
  0
LINE
  8
0
 10
7.704
 11
8.853
 20
-9.238
 21
-9.238
  0
LINE
  8
0
 10
8.853
 11
8.903
 20
-9.238
 21
-9.265
  0
LINE
  8
0
 10
8.903
 11
9.482
 20
-9.265
 21
-10.264
  0
LINE
  8
0
 10
9.482
 11
8.888
 20
-10.264
 21
-11.29
  0
LINE
  8
0
 10
8.888
 11
10.074
 20
-11.29
 21
-11.29
  0
LINE
  8
0
 10
10.074
 11
10.666
 20
-11.29
 21
-12.316
  0
LINE
  8
0
 10
10.666
 11
11.26
 20
-12.316
 21
-11.29
  0
LINE
  8
0
 10
11.26
 11
12.444
 20
-11.29
 21
-11.29
  0
LINE
  8
0
 10
12.444
 11
12.325
 20
-11.29
 21
-11.084
  0
LINE
  8
0
 10
12.325
 11
18.402
 20
-11.084
 21
-14.315
  0
LINE
  8
0
 10
18.402
 11
17.778
 20
-14.315
 21
-15.396
  0
LINE
  8
0
 10
17.778
 11
18.666
 20
-15.396
 21
-16.935
  0
LINE
  8
0
 10
18.666
 11
16.89
 20
-16.935
 21
-16.935
  0
LINE
  8
0
 10
16.89
 11
15.999
 20
-16.935
 21
-18.474
  0
LINE
  8
0
 10
15.999
 11
15.111
 20
-18.474
 21
-16.935
  0
LINE
  8
0
 10
15.111
 11
13.332
 20
-16.935
 21
-16.935
  0
LINE
  8
0
 10
13.332
 11
14.223
 20
-16.935
 21
-15.396
  0
LINE
  8
0
 10
14.223
 11
13.332
 20
-15.396
 21
-13.857
  0
LINE
  8
0
 10
13.332
 11
11.556
 20
-13.857
 21
-13.857
  0
LINE
  8
0
 10
11.556
 11
10.668
 20
-13.857
 21
-15.396
  0
LINE
  8
0
 10
10.668
 11
9.777
 20
-15.396
 21
-13.857
  0
LINE
  8
0
 10
9.777
 11
8.001
 20
-13.857
 21
-13.857
  0
LINE
  8
0
 10
8.001
 11
7.11
 20
-13.857
 21
-15.396
  0
LINE
  8
0
 10
7.11
 11
8.001
 20
-15.396
 21
-16.935
  0
LINE
  8
0
 10
8.001
 11
6.222
 20
-16.935
 21
-16.935
  0
LINE
  8
0
 10
6.222
 11
5.334
 20
-16.935
 21
-18.474
  0
LINE
  8
0
 10
5.334
 11
6.222
 20
-18.474
 21
-20.016
  0
LINE
  8
0
 10
6.222
 11
8.001
 20
-20.016
 21
-20.016
  0
LINE
  8
0
 10
8.001
 11
7.11
 20
-20.016
 21
-21.555
  0
LINE
  8
0
 10
7.11
 11
8.001
 20
-21.555
 21
-23.094
  0
LINE
  8
0
 10
8.001
 11
6.222
 20
-23.094
 21
-23.094
  0
LINE
  8
0
 10
6.222
 11
5.334
 20
-23.094
 21
-24.633
  0
LINE
  8
0
 10
5.334
 11
4.443
 20
-24.633
 21
-23.094
  0
LINE
  8
0
 10
4.443
 11
2.667
 20
-23.094
 21
-23.094
  0
LINE
  8
0
 10
2.667
 11
1.779
 20
-23.094
 21
-24.633
  0
LINE
  8
0
 10
1.779
 11
2.667
 20
-24.633
 21
-26.172
  0
LINE
  8
0
 10
2.667
 11
0.914
 20
-26.172
 21
-26.172
  0
LINE
  8
0
 10
0.914
 11
0.609
 20
-26.172
 21
-17.448
  0
LINE
  8
0
 10
1.523
 11
4.445
 20
-43.62
 21
-43.62
  0
LINE
  8
0
 10
4.445
 11
2.965
 20
-43.62
 21
-41.055
  0
LINE
  8
0
 10
2.965
 11
4.445
 20
-41.055
 21
-38.49
  0
LINE
  8
0
 10
4.445
 11
7.405
 20
-38.49
 21
-38.49
  0
LINE
  8
0
 10
7.405
 11
8.89
 20
-38.49
 21
-41.055
  0
LINE
  8
0
 10
8.89
 11
10.37
 20
-41.055
 21
-38.49
  0
LINE
  8
0
 10
10.37
 11
13.335
 20
-38.49
 21
-38.49
  0
LINE
  8
0
 10
13.335
 11
11.85
 20
-38.49
 21
-35.925
  0
LINE
  8
0
 10
11.85
 11
13.335
 20
-35.925
 21
-33.36
  0
LINE
  8
0
 10
13.335
 11
10.37
 20
-33.36
 21
-33.36
  0
LINE
  8
0
 10
10.37
 11
8.89
 20
-33.36
 21
-30.79
  0
LINE
  8
0
 10
8.89
 11
10.37
 20
-30.79
 21
-28.225
  0
LINE
  8
0
 10
10.37
 11
13.335
 20
-28.225
 21
-28.225
  0
LINE
  8
0
 10
13.335
 11
11.85
 20
-28.225
 21
-25.66
  0
LINE
  8
0
 10
11.85
 11
13.335
 20
-25.66
 21
-23.095
  0
LINE
  8
0
 10
13.335
 11
16.295
 20
-23.095
 21
-23.095
  0
LINE
  8
0
 10
16.295
 11
17.78
 20
-23.095
 21
-25.66
  0
LINE
  8
0
 10
17.78
 11
19.26
 20
-25.66
 21
-23.095
  0
LINE
  8
0
 10
19.26
 11
22.22
 20
-23.095
 21
-23.095
  0
LINE
  8
0
 10
22.22
 11
23.705
 20
-23.095
 21
-25.66
  0
LINE
  8
0
 10
23.705
 11
22.22
 20
-25.66
 21
-28.225
  0
LINE
  8
0
 10
22.22
 11
25.185
 20
-28.225
 21
-28.225
  0
LINE
  8
0
 10
25.185
 11
26.665
 20
-28.225
 21
-30.79
  0
LINE
  8
0
 10
26.665
 11
28.15
 20
-30.79
 21
-28.225
  0
LINE
  8
0
 10
28.15
 11
31.11
 20
-28.225
 21
-28.225
  0
LINE
  8
0
 10
31.11
 11
29.63
 20
-28.225
 21
-25.66
  0
LINE
  8
0
 10
29.63
 11
31.11
 20
-25.66
 21
-23.095
  0
LINE
  8
0
 10
31.11
 11
34.075
 20
-23.095
 21
-23.095
  0
LINE
  8
0
 10
34.075
 11
35.555
 20
-23.095
 21
-25.66
  0
LINE
  8
0
 10
35.555
 11
36.537
 20
-25.66
 21
-23.958
  0
LINE
  8
0
 10
36.537
 11
52.289
 20
-23.958
 21
-32.333
  0
LINE
  8
0
 10
52.289
 11
51.849
 20
-32.333
 21
-32.333
  0
LINE
  8
0
 10
51.849
 11
49.777
 20
-32.333
 21
-35.924
  0
LINE
  8
0
 10
49.777
 11
47.705
 20
-35.924
 21
-32.333
  0
LINE
  8
0
 10
47.705
 11
43.554
 20
-32.333
 21
-32.333
  0
LINE
  8
0
 10
43.554
 11
41.482
 20
-32.333
 21
-35.924
  0
LINE
  8
0
 10
41.482
 11
43.554
 20
-35.924
 21
-39.515
  0
LINE
  8
0
 10
43.554
 11
39.41
 20
-39.515
 21
-39.515
  0
LINE
  8
0
 10
39.41
 11
37.331
 20
-39.515
 21
-43.106
  0
LINE
  8
0
 10
37.331
 11
35.259
 20
-43.106
 21
-39.515
  0
LINE
  8
0
 10
35.259
 11
31.108
 20
-39.515
 21
-39.515
  0
LINE
  8
0
 10
31.108
 11
33.187
 20
-39.515
 21
-35.924
  0
LINE
  8
0
 10
33.187
 11
31.108
 20
-35.924
 21
-32.333
  0
LINE
  8
0
 10
31.108
 11
26.964
 20
-32.333
 21
-32.333
  0
LINE
  8
0
 10
26.964
 11
24.892
 20
-32.333
 21
-35.924
  0
LINE
  8
0
 10
24.892
 11
22.813
 20
-35.924
 21
-32.333
  0
LINE
  8
0
 10
22.813
 11
18.669
 20
-32.333
 21
-32.333
  0
LINE
  8
0
 10
18.669
 11
16.59
 20
-32.333
 21
-35.924
  0
LINE
  8
0
 10
16.59
 11
18.669
 20
-35.924
 21
-39.515
  0
LINE
  8
0
 10
18.669
 11
14.518
 20
-39.515
 21
-39.515
  0
LINE
  8
0
 10
14.518
 11
12.446
 20
-39.515
 21
-43.106
  0
LINE
  8
0
 10
12.446
 11
14.518
 20
-43.106
 21
-46.704
  0
LINE
  8
0
 10
14.518
 11
18.669
 20
-46.704
 21
-46.704
  0
LINE
  8
0
 10
18.669
 11
16.59
 20
-46.704
 21
-50.295
  0
LINE
  8
0
 10
16.59
 11
18.669
 20
-50.295
 21
-53.886
  0
LINE
  8
0
 10
18.669
 11
14.518
 20
-53.886
 21
-53.886
  0
LINE
  8
0
 10
14.518
 11
12.446
 20
-53.886
 21
-57.477
  0
LINE
  8
0
 10
12.446
 11
10.367
 20
-57.477
 21
-53.886
  0
LINE
  8
0
 10
10.367
 11
6.223
 20
-53.886
 21
-53.886
  0
LINE
  8
0
 10
6.223
 11
4.151
 20
-53.886
 21
-57.477
  0
LINE
  8
0
 10
4.151
 11
6.223
 20
-57.477
 21
-61.068
  0
LINE
  8
0
 10
6.223
 11
2.133
 20
-61.068
 21
-61.068
  0
LINE
  8
0
 10
2.133
 11
1.523
 20
-61.068
 21
-43.62
  0
LINE
  8
0
 10
1.857
 11
2.072
 20
61.441
 21
61.068
  0
LINE
  8
0
 10
2.072
 11
6.223
 20
61.068
 21
61.068
  0
LINE
  8
0
 10
6.223
 11
4.151
 20
61.068
 21
57.477
  0
LINE
  8
0
 10
4.151
 11
6.223
 20
57.477
 21
53.886
  0
LINE
  8
0
 10
6.223
 11
10.367
 20
53.886
 21
53.886
  0
LINE
  8
0
 10
10.367
 11
12.446
 20
53.886
 21
57.477
  0
LINE
  8
0
 10
12.446
 11
14.518
 20
57.477
 21
53.886
  0
LINE
  8
0
 10
14.518
 11
18.669
 20
53.886
 21
53.886
  0
LINE
  8
0
 10
18.669
 11
16.59
 20
53.886
 21
50.295
  0
LINE
  8
0
 10
16.59
 11
18.669
 20
50.295
 21
46.704
  0
LINE
  8
0
 10
18.669
 11
14.518
 20
46.704
 21
46.704
  0
LINE
  8
0
 10
14.518
 11
12.446
 20
46.704
 21
43.106
  0
LINE
  8
0
 10
12.446
 11
14.518
 20
43.106
 21
39.515
  0
LINE
  8
0
 10
14.518
 11
18.669
 20
39.515
 21
39.515
  0
LINE
  8
0
 10
18.669
 11
16.59
 20
39.515
 21
35.924
  0
LINE
  8
0
 10
16.59
 11
18.669
 20
35.924
 21
32.333
  0
LINE
  8
0
 10
18.669
 11
22.813
 20
32.333
 21
32.333
  0
LINE
  8
0
 10
22.813
 11
24.892
 20
32.333
 21
35.924
  0
LINE
  8
0
 10
24.892
 11
26.964
 20
35.924
 21
32.333
  0
LINE
  8
0
 10
26.964
 11
31.108
 20
32.333
 21
32.333
  0
LINE
  8
0
 10
31.108
 11
33.187
 20
32.333
 21
35.924
  0
LINE
  8
0
 10
33.187
 11
31.108
 20
35.924
 21
39.515
  0
LINE
  8
0
 10
31.108
 11
35.259
 20
39.515
 21
39.515
  0
LINE
  8
0
 10
35.259
 11
37.331
 20
39.515
 21
43.106
  0
LINE
  8
0
 10
37.331
 11
39.41
 20
43.106
 21
39.515
  0
LINE
  8
0
 10
39.41
 11
43.554
 20
39.515
 21
39.515
  0
LINE
  8
0
 10
43.554
 11
41.482
 20
39.515
 21
35.924
  0
LINE
  8
0
 10
41.482
 11
43.554
 20
35.924
 21
32.333
  0
LINE
  8
0
 10
43.554
 11
47.705
 20
32.333
 21
32.333
  0
LINE
  8
0
 10
47.705
 11
49.777
 20
32.333
 21
35.924
  0
LINE
  8
0
 10
49.777
 11
51.821
 20
35.924
 21
32.382
  0
LINE
  8
0
 10
51.821
 11
37.015
 20
32.382
 21
23.13
  0
LINE
  8
0
 10
37.015
 11
35.555
 20
23.13
 21
25.66
  0
LINE
  8
0
 10
35.555
 11
34.075
 20
25.66
 21
23.095
  0
LINE
  8
0
 10
34.075
 11
31.11
 20
23.095
 21
23.095
  0
LINE
  8
0
 10
31.11
 11
29.63
 20
23.095
 21
25.66
  0
LINE
  8
0
 10
29.63
 11
31.11
 20
25.66
 21
28.225
  0
LINE
  8
0
 10
31.11
 11
28.15
 20
28.225
 21
28.225
  0
LINE
  8
0
 10
28.15
 11
26.665
 20
28.225
 21
30.79
  0
LINE
  8
0
 10
26.665
 11
25.185
 20
30.79
 21
28.225
  0
LINE
  8
0
 10
25.185
 11
22.22
 20
28.225
 21
28.225
  0
LINE
  8
0
 10
22.22
 11
23.705
 20
28.225
 21
25.66
  0
LINE
  8
0
 10
23.705
 11
22.22
 20
25.66
 21
23.095
  0
LINE
  8
0
 10
22.22
 11
19.26
 20
23.095
 21
23.095
  0
LINE
  8
0
 10
19.26
 11
17.78
 20
23.095
 21
25.66
  0
LINE
  8
0
 10
17.78
 11
16.295
 20
25.66
 21
23.095
  0
LINE
  8
0
 10
16.295
 11
13.335
 20
23.095
 21
23.095
  0
LINE
  8
0
 10
13.335
 11
11.85
 20
23.095
 21
25.66
  0
LINE
  8
0
 10
11.85
 11
13.335
 20
25.66
 21
28.225
  0
LINE
  8
0
 10
13.335
 11
10.37
 20
28.225
 21
28.225
  0
LINE
  8
0
 10
10.37
 11
8.89
 20
28.225
 21
30.79
  0
LINE
  8
0
 10
8.89
 11
10.37
 20
30.79
 21
33.36
  0
LINE
  8
0
 10
10.37
 11
13.335
 20
33.36
 21
33.36
  0
LINE
  8
0
 10
13.335
 11
11.85
 20
33.36
 21
35.925
  0
LINE
  8
0
 10
11.85
 11
13.335
 20
35.925
 21
38.49
  0
LINE
  8
0
 10
13.335
 11
10.37
 20
38.49
 21
38.49
  0
LINE
  8
0
 10
10.37
 11
8.89
 20
38.49
 21
41.055
  0
LINE
  8
0
 10
8.89
 11
7.405
 20
41.055
 21
38.49
  0
LINE
  8
0
 10
7.405
 11
4.445
 20
38.49
 21
38.49
  0
LINE
  8
0
 10
4.445
 11
2.965
 20
38.49
 21
41.055
  0
LINE
  8
0
 10
2.965
 11
4.445
 20
41.055
 21
43.62
  0
LINE
  8
0
 10
4.445
 11
2.48
 20
43.62
 21
43.62
  0
LINE
  8
0
 10
2.48
 11
1.857
 20
43.62
 21
61.441
  0
LINE
  8
0
 10
3.196
 11
4.443
 20
23.094
 21
23.094
  0
LINE
  8
0
 10
4.443
 11
5.334
 20
23.094
 21
24.633
  0
LINE
  8
0
 10
5.334
 11
6.222
 20
24.633
 21
23.094
  0
LINE
  8
0
 10
6.222
 11
8.001
 20
23.094
 21
23.094
  0
LINE
  8
0
 10
8.001
 11
7.11
 20
23.094
 21
21.555
  0
LINE
  8
0
 10
7.11
 11
8.001
 20
21.555
 21
20.016
  0
LINE
  8
0
 10
8.001
 11
6.222
 20
20.016
 21
20.016
  0
LINE
  8
0
 10
6.222
 11
5.334
 20
20.016
 21
18.474
  0
LINE
  8
0
 10
5.334
 11
6.222
 20
18.474
 21
16.935
  0
LINE
  8
0
 10
6.222
 11
8.001
 20
16.935
 21
16.935
  0
LINE
  8
0
 10
8.001
 11
7.11
 20
16.935
 21
15.396
  0
LINE
  8
0
 10
7.11
 11
8.001
 20
15.396
 21
13.857
  0
LINE
  8
0
 10
8.001
 11
9.777
 20
13.857
 21
13.857
  0
LINE
  8
0
 10
9.777
 11
10.668
 20
13.857
 21
15.396
  0
LINE
  8
0
 10
10.668
 11
11.556
 20
15.396
 21
13.857
  0
LINE
  8
0
 10
11.556
 11
13.332
 20
13.857
 21
13.857
  0
LINE
  8
0
 10
13.332
 11
14.223
 20
13.857
 21
15.396
  0
LINE
  8
0
 10
14.223
 11
13.332
 20
15.396
 21
16.935
  0
LINE
  8
0
 10
13.332
 11
15.111
 20
16.935
 21
16.935
  0
LINE
  8
0
 10
15.111
 11
15.999
 20
16.935
 21
18.474
  0
LINE
  8
0
 10
15.999
 11
16.89
 20
18.474
 21
16.935
  0
LINE
  8
0
 10
16.89
 11
18.666
 20
16.935
 21
16.935
  0
LINE
  8
0
 10
18.666
 11
17.778
 20
16.935
 21
15.396
  0
LINE
  8
0
 10
17.778
 11
18.666
 20
15.396
 21
13.857
  0
LINE
  8
0
 10
18.666
 11
20.445
 20
13.857
 21
13.857
  0
LINE
  8
0
 10
20.445
 11
21.333
 20
13.857
 21
15.396
  0
LINE
  8
0
 10
21.333
 11
22.209
 20
15.396
 21
13.878
  0
LINE
  8
0
 10
22.209
 11
14.806
 20
13.878
 21
9.252
  0
LINE
  8
0
 10
14.806
 11
14.222
 20
9.252
 21
10.264
  0
LINE
  8
0
 10
14.222
 11
13.63
 20
10.264
 21
9.238
  0
LINE
  8
0
 10
13.63
 11
12.444
 20
9.238
 21
9.238
  0
LINE
  8
0
 10
12.444
 11
11.852
 20
9.238
 21
10.264
  0
LINE
  8
0
 10
11.852
 11
12.444
 20
10.264
 21
11.29
  0
LINE
  8
0
 10
12.444
 11
11.26
 20
11.29
 21
11.29
  0
LINE
  8
0
 10
11.26
 11
10.666
 20
11.29
 21
12.316
  0
LINE
  8
0
 10
10.666
 11
10.074
 20
12.316
 21
11.29
  0
LINE
  8
0
 10
10.074
 11
8.888
 20
11.29
 21
11.29
  0
LINE
  8
0
 10
8.888
 11
9.482
 20
11.29
 21
10.264
  0
LINE
  8
0
 10
9.482
 11
8.888
 20
10.264
 21
9.238
  0
LINE
  8
0
 10
8.888
 11
7.704
 20
9.238
 21
9.238
  0
LINE
  8
0
 10
7.704
 11
7.112
 20
9.238
 21
10.264
  0
LINE
  8
0
 10
7.112
 11
6.518
 20
10.264
 21
9.238
  0
LINE
  8
0
 10
6.518
 11
5.334
 20
9.238
 21
9.238
  0
LINE
  8
0
 10
5.334
 11
4.74
 20
9.238
 21
10.264
  0
LINE
  8
0
 10
4.74
 11
5.334
 20
10.264
 21
11.29
  0
LINE
  8
0
 10
5.334
 11
4.148
 20
11.29
 21
11.29
  0
LINE
  8
0
 10
4.148
 11
3.574
 20
11.29
 21
12.285
  0
LINE
  8
0
 10
3.574
 11
3.572
 20
12.285
 21
12.344
  0
LINE
  8
0
 10
3.572
 11
4.148
 20
12.344
 21
13.344
  0
LINE
  8
0
 10
4.148
 11
5.334
 20
13.344
 21
13.344
  0
LINE
  8
0
 10
5.334
 11
4.74
 20
13.344
 21
14.37
  0
LINE
  8
0
 10
4.74
 11
5.334
 20
14.37
 21
15.396
  0
LINE
  8
0
 10
5.334
 11
4.148
 20
15.396
 21
15.396
  0
LINE
  8
0
 10
4.148
 11
3.556
 20
15.396
 21
16.422
  0
LINE
  8
0
 10
3.556
 11
3.437
 20
16.422
 21
16.216
  0
LINE
  8
0
 10
3.437
 11
3.196
 20
16.216
 21
23.094
  0
LINE
  8
0
 10
10.666
 11
11.26
 20
0
 21
1.026
  0
LINE
  8
0
 10
11.26
 11
12.444
 20
1.026
 21
1.026
  0
LINE
  8
0
 10
12.444
 11
11.852
 20
1.026
 21
2.052
  0
LINE
  8
0
 10
11.852
 11
12.425
 20
2.052
 21
3.048
  0
LINE
  8
0
 10
12.425
 11
12.477
 20
3.048
 21
3.08
  0
LINE
  8
0
 10
12.477
 11
13.63
 20
3.08
 21
3.08
  0
LINE
  8
0
 10
13.63
 11
14.222
 20
3.08
 21
2.052
  0
LINE
  8
0
 10
14.222
 11
14.814
 20
2.052
 21
3.08
  0
LINE
  8
0
 10
14.814
 11
16
 20
3.08
 21
3.08
  0
LINE
  8
0
 10
16
 11
15.408
 20
3.08
 21
4.106
  0
LINE
  8
0
 10
15.408
 11
16
 20
4.106
 21
5.132
  0
LINE
  8
0
 10
16
 11
15.761
 20
5.132
 21
5.132
  0
LINE
  8
0
 10
15.761
 11
21.597
 20
5.132
 21
8.779
  0
LINE
  8
0
 10
21.597
 11
22.221
 20
8.779
 21
7.698
  0
LINE
  8
0
 10
22.221
 11
24
 20
7.698
 21
7.698
  0
LINE
  8
0
 10
24
 11
23.112
 20
7.698
 21
6.159
  0
LINE
  8
0
 10
23.112
 11
24
 20
6.159
 21
4.62
  0
LINE
  8
0
 10
24
 11
22.221
 20
4.62
 21
4.62
  0
LINE
  8
0
 10
22.221
 11
21.333
 20
4.62
 21
3.078
  0
LINE
  8
0
 10
21.333
 11
20.445
 20
3.078
 21
4.62
  0
LINE
  8
0
 10
20.445
 11
18.666
 20
4.62
 21
4.62
  0
LINE
  8
0
 10
18.666
 11
17.778
 20
4.62
 21
3.078
  0
LINE
  8
0
 10
17.778
 11
18.666
 20
3.078
 21
1.539
  0
LINE
  8
0
 10
18.666
 11
16.89
 20
1.539
 21
1.539
  0
LINE
  8
0
 10
16.89
 11
15.999
 20
1.539
 21
0
  0
LINE
  8
0
 10
15.999
 11
16.89
 20
0
 21
-1.539
  0
LINE
  8
0
 10
16.89
 11
18.666
 20
-1.539
 21
-1.539
  0
LINE
  8
0
 10
18.666
 11
17.778
 20
-1.539
 21
-3.078
  0
LINE
  8
0
 10
17.778
 11
18.666
 20
-3.078
 21
-4.62
  0
LINE
  8
0
 10
18.666
 11
20.445
 20
-4.62
 21
-4.62
  0
LINE
  8
0
 10
20.445
 11
21.333
 20
-4.62
 21
-3.078
  0
LINE
  8
0
 10
21.333
 11
22.221
 20
-3.078
 21
-4.62
  0
LINE
  8
0
 10
22.221
 11
24
 20
-4.62
 21
-4.62
  0
LINE
  8
0
 10
24
 11
23.112
 20
-4.62
 21
-6.159
  0
LINE
  8
0
 10
23.112
 11
24
 20
-6.159
 21
-7.698
  0
LINE
  8
0
 10
24
 11
22.221
 20
-7.698
 21
-7.698
  0
LINE
  8
0
 10
22.221
 11
21.333
 20
-7.698
 21
-9.237
  0
LINE
  8
0
 10
21.333
 11
22.221
 20
-9.237
 21
-10.776
  0
LINE
  8
0
 10
22.221
 11
24
 20
-10.776
 21
-10.776
  0
LINE
  8
0
 10
24
 11
23.125
 20
-10.776
 21
-12.296
  0
LINE
  8
0
 10
23.125
 11
15.417
 20
-12.296
 21
-8.197
  0
LINE
  8
0
 10
15.417
 11
16
 20
-8.197
 21
-7.184
  0
LINE
  8
0
 10
16
 11
14.814
 20
-7.184
 21
-7.184
  0
LINE
  8
0
 10
14.814
 11
14.222
 20
-7.184
 21
-6.158
  0
LINE
  8
0
 10
14.222
 11
14.814
 20
-6.158
 21
-5.132
  0
LINE
  8
0
 10
14.814
 11
16
 20
-5.132
 21
-5.132
  0
LINE
  8
0
 10
16
 11
15.408
 20
-5.132
 21
-4.106
  0
LINE
  8
0
 10
15.408
 11
16
 20
-4.106
 21
-3.08
  0
LINE
  8
0
 10
16
 11
14.814
 20
-3.08
 21
-3.08
  0
LINE
  8
0
 10
14.814
 11
14.222
 20
-3.08
 21
-2.052
  0
LINE
  8
0
 10
14.222
 11
13.63
 20
-2.052
 21
-3.08
  0
LINE
  8
0
 10
13.63
 11
12.444
 20
-3.08
 21
-3.08
  0
LINE
  8
0
 10
12.444
 11
11.852
 20
-3.08
 21
-2.052
  0
LINE
  8
0
 10
11.852
 11
12.444
 20
-2.052
 21
-1.026
  0
LINE
  8
0
 10
12.444
 11
11.26
 20
-1.026
 21
-1.026
  0
LINE
  8
0
 10
11.26
 11
10.666
 20
-1.026
 21
0
  0
LINE
  8
0
 10
26.665
 11
28.15
 20
0
 21
2.565
  0
LINE
  8
0
 10
28.15
 11
31.11
 20
2.565
 21
2.565
  0
LINE
  8
0
 10
31.11
 11
29.63
 20
2.565
 21
5.13
  0
LINE
  8
0
 10
29.63
 11
31.11
 20
5.13
 21
7.7
  0
LINE
  8
0
 10
31.11
 11
34.075
 20
7.7
 21
7.7
  0
LINE
  8
0
 10
34.075
 11
35.555
 20
7.7
 21
5.13
  0
LINE
  8
0
 10
35.555
 11
37.035
 20
5.13
 21
7.7
  0
LINE
  8
0
 10
37.035
 11
40
 20
7.7
 21
7.7
  0
LINE
  8
0
 10
40
 11
38.52
 20
7.7
 21
10.265
  0
LINE
  8
0
 10
38.52
 11
40
 20
10.265
 21
12.83
  0
LINE
  8
0
 10
40
 11
37.035
 20
12.83
 21
12.83
  0
LINE
  8
0
 10
37.035
 11
35.555
 20
12.83
 21
15.395
  0
LINE
  8
0
 10
35.555
 11
37.035
 20
15.395
 21
17.96
  0
LINE
  8
0
 10
37.035
 11
40
 20
17.96
 21
17.96
  0
LINE
  8
0
 10
40
 11
39.018
 20
17.96
 21
19.665
  0
LINE
  8
0
 10
39.018
 11
54.144
 20
19.665
 21
29.117
  0
LINE
  8
0
 10
54.144
 11
53.928
 20
29.117
 21
28.742
  0
LINE
  8
0
 10
53.928
 11
56
 20
28.742
 21
25.144
  0
LINE
  8
0
 10
56
 11
51.849
 20
25.144
 21
25.144
  0
LINE
  8
0
 10
51.849
 11
49.777
 20
25.144
 21
21.553
  0
LINE
  8
0
 10
49.777
 11
51.849
 20
21.553
 21
17.962
  0
LINE
  8
0
 10
51.849
 11
56
 20
17.962
 21
17.962
  0
LINE
  8
0
 10
56
 11
53.928
 20
17.962
 21
14.371
  0
LINE
  8
0
 10
53.928
 11
56
 20
14.371
 21
10.78
  0
LINE
  8
0
 10
56
 11
51.849
 20
10.78
 21
10.78
  0
LINE
  8
0
 10
51.849
 11
49.777
 20
10.78
 21
7.182
  0
LINE
  8
0
 10
49.777
 11
47.705
 20
7.182
 21
10.78
  0
LINE
  8
0
 10
47.705
 11
43.554
 20
10.78
 21
10.78
  0
LINE
  8
0
 10
43.554
 11
41.482
 20
10.78
 21
7.182
  0
LINE
  8
0
 10
41.482
 11
43.554
 20
7.182
 21
3.591
  0
LINE
  8
0
 10
43.554
 11
39.41
 20
3.591
 21
3.591
  0
LINE
  8
0
 10
39.41
 11
37.331
 20
3.591
 21
0
  0
LINE
  8
0
 10
37.331
 11
39.41
 20
0
 21
-3.591
  0
LINE
  8
0
 10
39.41
 11
43.554
 20
-3.591
 21
-3.591
  0
LINE
  8
0
 10
43.554
 11
41.482
 20
-3.591
 21
-7.182
  0
LINE
  8
0
 10
41.482
 11
43.554
 20
-7.182
 21
-10.78
  0
LINE
  8
0
 10
43.554
 11
47.705
 20
-10.78
 21
-10.78
  0
LINE
  8
0
 10
47.705
 11
49.777
 20
-10.78
 21
-7.182
  0
LINE
  8
0
 10
49.777
 11
51.849
 20
-7.182
 21
-10.78
  0
LINE
  8
0
 10
51.849
 11
56
 20
-10.78
 21
-10.78
  0
LINE
  8
0
 10
56
 11
53.928
 20
-10.78
 21
-14.371
  0
LINE
  8
0
 10
53.928
 11
56
 20
-14.371
 21
-17.962
  0
LINE
  8
0
 10
56
 11
51.849
 20
-17.962
 21
-17.962
  0
LINE
  8
0
 10
51.849
 11
49.777
 20
-17.962
 21
-21.553
  0
LINE
  8
0
 10
49.777
 11
51.849
 20
-21.553
 21
-25.144
  0
LINE
  8
0
 10
51.849
 11
56
 20
-25.144
 21
-25.144
  0
LINE
  8
0
 10
56
 11
53.958
 20
-25.144
 21
-28.69
  0
LINE
  8
0
 10
53.958
 11
38.541
 20
-28.69
 21
-20.493
  0
LINE
  8
0
 10
38.541
 11
40
 20
-20.493
 21
-17.96
  0
LINE
  8
0
 10
40
 11
37.035
 20
-17.96
 21
-17.96
  0
LINE
  8
0
 10
37.035
 11
35.555
 20
-17.96
 21
-15.395
  0
LINE
  8
0
 10
35.555
 11
37.035
 20
-15.395
 21
-12.83
  0
LINE
  8
0
 10
37.035
 11
40
 20
-12.83
 21
-12.83
  0
LINE
  8
0
 10
40
 11
38.52
 20
-12.83
 21
-10.265
  0
LINE
  8
0
 10
38.52
 11
40
 20
-10.265
 21
-7.7
  0
LINE
  8
0
 10
40
 11
37.035
 20
-7.7
 21
-7.7
  0
LINE
  8
0
 10
37.035
 11
35.555
 20
-7.7
 21
-5.13
  0
LINE
  8
0
 10
35.555
 11
34.075
 20
-5.13
 21
-7.7
  0
LINE
  8
0
 10
34.075
 11
31.11
 20
-7.7
 21
-7.7
  0
LINE
  8
0
 10
31.11
 11
29.63
 20
-7.7
 21
-5.13
  0
LINE
  8
0
 10
29.63
 11
31.11
 20
-5.13
 21
-2.565
  0
LINE
  8
0
 10
31.11
 11
28.15
 20
-2.565
 21
-2.565
  0
LINE
  8
0
 10
28.15
 11
26.665
 20
-2.565
 21
0
  0
LINE
  8
0
 10
60.044
 11
60.558
 20
-40
 21
-39.703
  0
LINE
  8
0
 10
60.558
 11
60.558
 20
-39.703
 21
-39.111
  0
LINE
  8
0
 10
60.558
 11
61.071
 20
-39.111
 21
-39.407
  0
LINE
  8
0
 10
61.071
 11
61.584
 20
-39.407
 21
-39.111
  0
LINE
  8
0
 10
61.584
 11
61.584
 20
-39.111
 21
-38.519
  0
LINE
  8
0
 10
61.584
 11
61.071
 20
-38.519
 21
-38.222
  0
LINE
  8
0
 10
61.071
 11
61.584
 20
-38.222
 21
-37.926
  0
LINE
  8
0
 10
61.584
 11
61.585
 20
-37.926
 21
-37.333
  0
LINE
  8
0
 10
61.585
 11
62.097
 20
-37.333
 21
-37.63
  0
LINE
  8
0
 10
62.097
 11
62.611
 20
-37.63
 21
-37.333
  0
LINE
  8
0
 10
62.611
 11
62.61
 20
-37.333
 21
-37.926
  0
LINE
  8
0
 10
62.61
 11
63.124
 20
-37.926
 21
-38.222
  0
LINE
  8
0
 10
63.124
 11
63.637
 20
-38.222
 21
-37.926
  0
LINE
  8
0
 10
63.637
 11
63.636
 20
-37.926
 21
-37.334
  0
LINE
  8
0
 10
63.636
 11
64.15
 20
-37.334
 21
-37.629
  0
LINE
  8
0
 10
64.15
 11
64.663
 20
-37.629
 21
-37.333
  0
LINE
  8
0
 10
64.663
 11
64.664
 20
-37.333
 21
-36.741
  0
LINE
  8
0
 10
64.664
 11
64.15
 20
-36.741
 21
-36.445
  0
LINE
  8
0
 10
64.15
 11
64.663
 20
-36.445
 21
-36.148
  0
LINE
  8
0
 10
64.663
 11
64.663
 20
-36.148
 21
-35.556
  0
LINE
  8
0
 10
64.663
 11
64.15
 20
-35.556
 21
-35.259
  0
LINE
  8
0
 10
64.15
 11
63.636
 20
-35.259
 21
-35.555
  0
LINE
  8
0
 10
63.636
 11
63.637
 20
-35.555
 21
-34.963
  0
LINE
  8
0
 10
63.637
 11
63.123
 20
-34.963
 21
-34.667
  0
LINE
  8
0
 10
63.123
 11
63.637
 20
-34.667
 21
-34.37
  0
LINE
  8
0
 10
63.637
 11
63.637
 20
-34.37
 21
-33.778
  0
LINE
  8
0
 10
63.637
 11
64.15
 20
-33.778
 21
-34.074
  0
LINE
  8
0
 10
64.15
 11
64.663
 20
-34.074
 21
-33.778
  0
LINE
  8
0
 10
64.663
 11
64.663
 20
-33.778
 21
-33.186
  0
LINE
  8
0
 10
64.663
 11
64.15
 20
-33.186
 21
-32.889
  0
LINE
  8
0
 10
64.15
 11
64.664
 20
-32.889
 21
-32.593
  0
LINE
  8
0
 10
64.664
 11
64.663
 20
-32.593
 21
-32
  0
LINE
  8
0
 10
64.663
 11
65.176
 20
-32
 21
-32.297
  0
LINE
  8
0
 10
65.176
 11
65.69
 20
-32.297
 21
-32
  0
LINE
  8
0
 10
65.69
 11
65.69
 20
-32
 21
-32.593
  0
LINE
  8
0
 10
65.69
 11
66.203
 20
-32.593
 21
-32.889
  0
LINE
  8
0
 10
66.203
 11
66.716
 20
-32.889
 21
-32.593
  0
LINE
  8
0
 10
66.716
 11
66.716
 20
-32.593
 21
-32
  0
LINE
  8
0
 10
66.716
 11
67.229
 20
-32
 21
-32.296
  0
LINE
  8
0
 10
67.229
 11
67.743
 20
-32.296
 21
-32
  0
LINE
  8
0
 10
67.743
 11
67.742
 20
-32
 21
-32.593
  0
LINE
  8
0
 10
67.742
 11
68.256
 20
-32.593
 21
-32.888
  0
LINE
  8
0
 10
68.256
 11
67.742
 20
-32.888
 21
-33.185
  0
LINE
  8
0
 10
67.742
 11
67.743
 20
-33.185
 21
-33.778
  0
LINE
  8
0
 10
67.743
 11
68.256
 20
-33.778
 21
-34.074
  0
LINE
  8
0
 10
68.256
 11
68.769
 20
-34.074
 21
-33.778
  0
LINE
  8
0
 10
68.769
 11
68.768
 20
-33.778
 21
-34.371
  0
LINE
  8
0
 10
68.768
 11
69.282
 20
-34.371
 21
-34.666
  0
LINE
  8
0
 10
69.282
 11
69.795
 20
-34.666
 21
-34.37
  0
LINE
  8
0
 10
69.795
 11
69.796
 20
-34.37
 21
-33.778
  0
LINE
  8
0
 10
69.796
 11
70.308
 20
-33.778
 21
-34.074
  0
LINE
  8
0
 10
70.308
 11
70.821
 20
-34.074
 21
-33.778
  0
LINE
  8
0
 10
70.821
 11
70.822
 20
-33.778
 21
-33.185
  0
LINE
  8
0
 10
70.822
 11
70.308
 20
-33.185
 21
-32.889
  0
LINE
  8
0
 10
70.308
 11
70.822
 20
-32.889
 21
-32.593
  0
LINE
  8
0
 10
70.822
 11
70.822
 20
-32.593
 21
-32
  0
LINE
  8
0
 10
70.822
 11
71.335
 20
-32
 21
-32.296
  0
LINE
  8
0
 10
71.335
 11
71.848
 20
-32.296
 21
-32
  0
LINE
  8
0
 10
71.848
 11
71.848
 20
-32
 21
-32.593
  0
LINE
  8
0
 10
71.848
 11
72.361
 20
-32.593
 21
-32.889
  0
LINE
  8
0
 10
72.361
 11
72.874
 20
-32.889
 21
-32.592
  0
LINE
  8
0
 10
72.874
 11
72.874
 20
-32.592
 21
-32
  0
LINE
  8
0
 10
72.874
 11
73.387
 20
-32
 21
-32.296
  0
LINE
  8
0
 10
73.387
 11
73.901
 20
-32.296
 21
-32
  0
LINE
  8
0
 10
73.901
 11
73.901
 20
-32
 21
-32.592
  0
LINE
  8
0
 10
73.901
 11
74.414
 20
-32.592
 21
-32.889
  0
LINE
  8
0
 10
74.414
 11
73.901
 20
-32.889
 21
-33.186
  0
LINE
  8
0
 10
73.901
 11
73.901
 20
-33.186
 21
-33.778
  0
LINE
  8
0
 10
73.901
 11
74.414
 20
-33.778
 21
-34.074
  0
LINE
  8
0
 10
74.414
 11
74.927
 20
-34.074
 21
-33.778
  0
LINE
  8
0
 10
74.927
 11
74.927
 20
-33.778
 21
-34.37
  0
LINE
  8
0
 10
74.927
 11
75.44
 20
-34.37
 21
-34.666
  0
LINE
  8
0
 10
75.44
 11
74.927
 20
-34.666
 21
-34.963
  0
LINE
  8
0
 10
74.927
 11
74.927
 20
-34.963
 21
-35.556
  0
LINE
  8
0
 10
74.927
 11
74.414
 20
-35.556
 21
-35.259
  0
LINE
  8
0
 10
74.414
 11
73.9
 20
-35.259
 21
-35.555
  0
LINE
  8
0
 10
73.9
 11
73.901
 20
-35.555
 21
-36.148
  0
LINE
  8
0
 10
73.901
 11
74.414
 20
-36.148
 21
-36.445
  0
LINE
  8
0
 10
74.414
 11
73.901
 20
-36.445
 21
-36.741
  0
LINE
  8
0
 10
73.901
 11
73.901
 20
-36.741
 21
-37.333
  0
LINE
  8
0
 10
73.901
 11
74.414
 20
-37.333
 21
-37.629
  0
LINE
  8
0
 10
74.414
 11
74.927
 20
-37.629
 21
-37.333
  0
LINE
  8
0
 10
74.927
 11
74.927
 20
-37.333
 21
-37.926
  0
LINE
  8
0
 10
74.927
 11
75.44
 20
-37.926
 21
-38.223
  0
LINE
  8
0
 10
75.44
 11
75.954
 20
-38.223
 21
-37.926
  0
LINE
  8
0
 10
75.954
 11
75.953
 20
-37.926
 21
-37.333
  0
LINE
  8
0
 10
75.953
 11
76.467
 20
-37.333
 21
-37.63
  0
LINE
  8
0
 10
76.467
 11
76.98
 20
-37.63
 21
-37.334
  0
LINE
  8
0
 10
76.98
 11
76.98
 20
-37.334
 21
-37.926
  0
LINE
  8
0
 10
76.98
 11
77.493
 20
-37.926
 21
-38.222
  0
LINE
  8
0
 10
77.493
 11
76.98
 20
-38.222
 21
-38.519
  0
LINE
  8
0
 10
76.98
 11
76.98
 20
-38.519
 21
-39.111
  0
LINE
  8
0
 10
76.98
 11
77.493
 20
-39.111
 21
-39.407
  0
LINE
  8
0
 10
77.493
 11
78.006
 20
-39.407
 21
-39.111
  0
LINE
  8
0
 10
78.006
 11
78.007
 20
-39.111
 21
-39.704
  0
LINE
  8
0
 10
78.007
 11
78.52
 20
-39.704
 21
-40
  0
LINE
  8
0
 10
78.52
 11
78.006
 20
-40
 21
-40.297
  0
LINE
  8
0
 10
78.006
 11
78.006
 20
-40.297
 21
-40.889
  0
LINE
  8
0
 10
78.006
 11
77.493
 20
-40.889
 21
-40.593
  0
LINE
  8
0
 10
77.493
 11
76.98
 20
-40.593
 21
-40.889
  0
LINE
  8
0
 10
76.98
 11
76.98
 20
-40.889
 21
-41.481
  0
LINE
  8
0
 10
76.98
 11
77.493
 20
-41.481
 21
-41.778
  0
LINE
  8
0
 10
77.493
 11
76.98
 20
-41.778
 21
-42.074
  0
LINE
  8
0
 10
76.98
 11
76.98
 20
-42.074
 21
-42.666
  0
LINE
  8
0
 10
76.98
 11
76.467
 20
-42.666
 21
-42.37
  0
LINE
  8
0
 10
76.467
 11
75.953
 20
-42.37
 21
-42.667
  0
LINE
  8
0
 10
75.953
 11
75.954
 20
-42.667
 21
-42.074
  0
LINE
  8
0
 10
75.954
 11
75.44
 20
-42.074
 21
-41.778
  0
LINE
  8
0
 10
75.44
 11
74.927
 20
-41.778
 21
-42.074
  0
LINE
  8
0
 10
74.927
 11
74.928
 20
-42.074
 21
-42.666
  0
LINE
  8
0
 10
74.928
 11
74.414
 20
-42.666
 21
-42.371
  0
LINE
  8
0
 10
74.414
 11
73.901
 20
-42.371
 21
-42.667
  0
LINE
  8
0
 10
73.901
 11
73.9
 20
-42.667
 21
-43.259
  0
LINE
  8
0
 10
73.9
 11
74.414
 20
-43.259
 21
-43.555
  0
LINE
  8
0
 10
74.414
 11
73.901
 20
-43.555
 21
-43.852
  0
LINE
  8
0
 10
73.901
 11
73.901
 20
-43.852
 21
-44.444
  0
LINE
  8
0
 10
73.901
 11
74.414
 20
-44.444
 21
-44.741
  0
LINE
  8
0
 10
74.414
 11
74.928
 20
-44.741
 21
-44.445
  0
LINE
  8
0
 10
74.928
 11
74.927
 20
-44.445
 21
-45.037
  0
LINE
  8
0
 10
74.927
 11
75.441
 20
-45.037
 21
-45.333
  0
LINE
  8
0
 10
75.441
 11
74.927
 20
-45.333
 21
-45.63
  0
LINE
  8
0
 10
74.927
 11
74.927
 20
-45.63
 21
-46.222
  0
LINE
  8
0
 10
74.927
 11
74.414
 20
-46.222
 21
-45.926
  0
LINE
  8
0
 10
74.414
 11
73.901
 20
-45.926
 21
-46.222
  0
LINE
  8
0
 10
73.901
 11
73.901
 20
-46.222
 21
-46.814
  0
LINE
  8
0
 10
73.901
 11
74.414
 20
-46.814
 21
-47.111
  0
LINE
  8
0
 10
74.414
 11
73.9
 20
-47.111
 21
-47.407
  0
LINE
  8
0
 10
73.9
 11
73.901
 20
-47.407
 21
-48
  0
LINE
  8
0
 10
73.901
 11
73.388
 20
-48
 21
-47.703
  0
LINE
  8
0
 10
73.388
 11
72.874
 20
-47.703
 21
-48
  0
LINE
  8
0
 10
72.874
 11
72.874
 20
-48
 21
-47.407
  0
LINE
  8
0
 10
72.874
 11
72.361
 20
-47.407
 21
-47.111
  0
LINE
  8
0
 10
72.361
 11
71.848
 20
-47.111
 21
-47.407
  0
LINE
  8
0
 10
71.848
 11
71.848
 20
-47.407
 21
-48
  0
LINE
  8
0
 10
71.848
 11
71.335
 20
-48
 21
-47.704
  0
LINE
  8
0
 10
71.335
 11
70.821
 20
-47.704
 21
-48
  0
LINE
  8
0
 10
70.821
 11
70.822
 20
-48
 21
-47.407
  0
LINE
  8
0
 10
70.822
 11
70.308
 20
-47.407
 21
-47.112
  0
LINE
  8
0
 10
70.308
 11
70.822
 20
-47.112
 21
-46.815
  0
LINE
  8
0
 10
70.822
 11
70.821
 20
-46.815
 21
-46.222
  0
LINE
  8
0
 10
70.821
 11
70.308
 20
-46.222
 21
-45.926
  0
LINE
  8
0
 10
70.308
 11
69.795
 20
-45.926
 21
-46.222
  0
LINE
  8
0
 10
69.795
 11
69.796
 20
-46.222
 21
-45.629
  0
LINE
  8
0
 10
69.796
 11
69.282
 20
-45.629
 21
-45.334
  0
LINE
  8
0
 10
69.282
 11
68.769
 20
-45.334
 21
-45.63
  0
LINE
  8
0
 10
68.769
 11
68.768
 20
-45.63
 21
-46.222
  0
LINE
  8
0
 10
68.768
 11
68.256
 20
-46.222
 21
-45.926
  0
LINE
  8
0
 10
68.256
 11
67.743
 20
-45.926
 21
-46.222
  0
LINE
  8
0
 10
67.743
 11
67.742
 20
-46.222
 21
-46.815
  0
LINE
  8
0
 10
67.742
 11
68.256
 20
-46.815
 21
-47.111
  0
LINE
  8
0
 10
68.256
 11
67.742
 20
-47.111
 21
-47.407
  0
LINE
  8
0
 10
67.742
 11
67.743
 20
-47.407
 21
-47.999
  0
LINE
  8
0
 10
67.743
 11
67.229
 20
-47.999
 21
-47.704
  0
LINE
  8
0
 10
67.229
 11
66.716
 20
-47.704
 21
-48
  0
LINE
  8
0
 10
66.716
 11
66.716
 20
-48
 21
-47.407
  0
LINE
  8
0
 10
66.716
 11
66.203
 20
-47.407
 21
-47.111
  0
LINE
  8
0
 10
66.203
 11
65.69
 20
-47.111
 21
-47.408
  0
LINE
  8
0
 10
65.69
 11
65.69
 20
-47.408
 21
-48
  0
LINE
  8
0
 10
65.69
 11
65.177
 20
-48
 21
-47.704
  0
LINE
  8
0
 10
65.177
 11
64.663
 20
-47.704
 21
-48
  0
LINE
  8
0
 10
64.663
 11
64.663
 20
-48
 21
-47.408
  0
LINE
  8
0
 10
64.663
 11
64.15
 20
-47.408
 21
-47.111
  0
LINE
  8
0
 10
64.15
 11
64.663
 20
-47.111
 21
-46.814
  0
LINE
  8
0
 10
64.663
 11
64.663
 20
-46.814
 21
-46.222
  0
LINE
  8
0
 10
64.663
 11
64.15
 20
-46.222
 21
-45.926
  0
LINE
  8
0
 10
64.15
 11
63.637
 20
-45.926
 21
-46.222
  0
LINE
  8
0
 10
63.637
 11
63.637
 20
-46.222
 21
-45.63
  0
LINE
  8
0
 10
63.637
 11
63.124
 20
-45.63
 21
-45.334
  0
LINE
  8
0
 10
63.124
 11
63.637
 20
-45.334
 21
-45.037
  0
LINE
  8
0
 10
63.637
 11
63.637
 20
-45.037
 21
-44.444
  0
LINE
  8
0
 10
63.637
 11
64.15
 20
-44.444
 21
-44.741
  0
LINE
  8
0
 10
64.15
 11
64.664
 20
-44.741
 21
-44.445
  0
LINE
  8
0
 10
64.664
 11
64.663
 20
-44.445
 21
-43.852
  0
LINE
  8
0
 10
64.663
 11
64.15
 20
-43.852
 21
-43.555
  0
LINE
  8
0
 10
64.15
 11
64.663
 20
-43.555
 21
-43.259
  0
LINE
  8
0
 10
64.663
 11
64.664
 20
-43.259
 21
-42.666
  0
LINE
  8
0
 10
64.664
 11
64.15
 20
-42.666
 21
-42.371
  0
LINE
  8
0
 10
64.15
 11
63.637
 20
-42.371
 21
-42.667
  0
LINE
  8
0
 10
63.637
 11
63.637
 20
-42.667
 21
-42.074
  0
LINE
  8
0
 10
63.637
 11
63.124
 20
-42.074
 21
-41.777
  0
LINE
  8
0
 10
63.124
 11
62.61
 20
-41.777
 21
-42.074
  0
LINE
  8
0
 10
62.61
 11
62.611
 20
-42.074
 21
-42.667
  0
LINE
  8
0
 10
62.611
 11
62.097
 20
-42.667
 21
-42.37
  0
LINE
  8
0
 10
62.097
 11
61.584
 20
-42.37
 21
-42.666
  0
LINE
  8
0
 10
61.584
 11
61.584
 20
-42.666
 21
-42.074
  0
LINE
  8
0
 10
61.584
 11
61.071
 20
-42.074
 21
-41.778
  0
LINE
  8
0
 10
61.071
 11
61.584
 20
-41.778
 21
-41.481
  0
LINE
  8
0
 10
61.584
 11
61.584
 20
-41.481
 21
-40.889
  0
LINE
  8
0
 10
61.584
 11
61.071
 20
-40.889
 21
-40.593
  0
LINE
  8
0
 10
61.071
 11
60.558
 20
-40.593
 21
-40.889
  0
LINE
  8
0
 10
60.558
 11
60.557
 20
-40.889
 21
-40.296
  0
LINE
  8
0
 10
60.557
 11
60.044
 20
-40.296
 21
-40
  0
LINE
  8
0
 10
60.044
 11
60.558
 20
40
 21
40.297
  0
LINE
  8
0
 10
60.558
 11
60.558
 20
40.297
 21
40.889
  0
LINE
  8
0
 10
60.558
 11
61.071
 20
40.889
 21
40.593
  0
LINE
  8
0
 10
61.071
 11
61.584
 20
40.593
 21
40.889
  0
LINE
  8
0
 10
61.584
 11
61.584
 20
40.889
 21
41.481
  0
LINE
  8
0
 10
61.584
 11
61.071
 20
41.481
 21
41.778
  0
LINE
  8
0
 10
61.071
 11
61.584
 20
41.778
 21
42.074
  0
LINE
  8
0
 10
61.584
 11
61.585
 20
42.074
 21
42.666
  0
LINE
  8
0
 10
61.585
 11
62.097
 20
42.666
 21
42.37
  0
LINE
  8
0
 10
62.097
 11
62.611
 20
42.37
 21
42.667
  0
LINE
  8
0
 10
62.611
 11
62.61
 20
42.667
 21
42.074
  0
LINE
  8
0
 10
62.61
 11
63.124
 20
42.074
 21
41.778
  0
LINE
  8
0
 10
63.124
 11
63.637
 20
41.778
 21
42.074
  0
LINE
  8
0
 10
63.637
 11
63.636
 20
42.074
 21
42.666
  0
LINE
  8
0
 10
63.636
 11
64.15
 20
42.666
 21
42.371
  0
LINE
  8
0
 10
64.15
 11
64.663
 20
42.371
 21
42.667
  0
LINE
  8
0
 10
64.663
 11
64.664
 20
42.667
 21
43.259
  0
LINE
  8
0
 10
64.664
 11
64.15
 20
43.259
 21
43.555
  0
LINE
  8
0
 10
64.15
 11
64.663
 20
43.555
 21
43.852
  0
LINE
  8
0
 10
64.663
 11
64.663
 20
43.852
 21
44.444
  0
LINE
  8
0
 10
64.663
 11
64.15
 20
44.444
 21
44.741
  0
LINE
  8
0
 10
64.15
 11
63.636
 20
44.741
 21
44.445
  0
LINE
  8
0
 10
63.636
 11
63.637
 20
44.445
 21
45.037
  0
LINE
  8
0
 10
63.637
 11
63.123
 20
45.037
 21
45.333
  0
LINE
  8
0
 10
63.123
 11
63.637
 20
45.333
 21
45.63
  0
LINE
  8
0
 10
63.637
 11
63.637
 20
45.63
 21
46.222
  0
LINE
  8
0
 10
63.637
 11
64.15
 20
46.222
 21
45.926
  0
LINE
  8
0
 10
64.15
 11
64.663
 20
45.926
 21
46.222
  0
LINE
  8
0
 10
64.663
 11
64.663
 20
46.222
 21
46.814
  0
LINE
  8
0
 10
64.663
 11
64.15
 20
46.814
 21
47.111
  0
LINE
  8
0
 10
64.15
 11
64.664
 20
47.111
 21
47.407
  0
LINE
  8
0
 10
64.664
 11
64.663
 20
47.407
 21
48
  0
LINE
  8
0
 10
64.663
 11
65.176
 20
48
 21
47.703
  0
LINE
  8
0
 10
65.176
 11
65.69
 20
47.703
 21
48
  0
LINE
  8
0
 10
65.69
 11
65.69
 20
48
 21
47.407
  0
LINE
  8
0
 10
65.69
 11
66.203
 20
47.407
 21
47.111
  0
LINE
  8
0
 10
66.203
 11
66.716
 20
47.111
 21
47.407
  0
LINE
  8
0
 10
66.716
 11
66.716
 20
47.407
 21
48
  0
LINE
  8
0
 10
66.716
 11
67.229
 20
48
 21
47.704
  0
LINE
  8
0
 10
67.229
 11
67.743
 20
47.704
 21
48
  0
LINE
  8
0
 10
67.743
 11
67.742
 20
48
 21
47.407
  0
LINE
  8
0
 10
67.742
 11
68.256
 20
47.407
 21
47.112
  0
LINE
  8
0
 10
68.256
 11
67.742
 20
47.112
 21
46.815
  0
LINE
  8
0
 10
67.742
 11
67.743
 20
46.815
 21
46.222
  0
LINE
  8
0
 10
67.743
 11
68.256
 20
46.222
 21
45.926
  0
LINE
  8
0
 10
68.256
 11
68.769
 20
45.926
 21
46.222
  0
LINE
  8
0
 10
68.769
 11
68.769
 20
46.222
 21
45.629
  0
LINE
  8
0
 10
68.769
 11
69.282
 20
45.629
 21
45.334
  0
LINE
  8
0
 10
69.282
 11
69.795
 20
45.334
 21
45.63
  0
LINE
  8
0
 10
69.795
 11
69.796
 20
45.63
 21
46.222
  0
LINE
  8
0
 10
69.796
 11
70.308
 20
46.222
 21
45.926
  0
LINE
  8
0
 10
70.308
 11
70.821
 20
45.926
 21
46.222
  0
LINE
  8
0
 10
70.821
 11
70.822
 20
46.222
 21
46.815
  0
LINE
  8
0
 10
70.822
 11
70.308
 20
46.815
 21
47.111
  0
LINE
  8
0
 10
70.308
 11
70.822
 20
47.111
 21
47.407
  0
LINE
  8
0
 10
70.822
 11
70.822
 20
47.407
 21
47.999
  0
LINE
  8
0
 10
70.822
 11
71.335
 20
47.999
 21
47.704
  0
LINE
  8
0
 10
71.335
 11
71.848
 20
47.704
 21
48
  0
LINE
  8
0
 10
71.848
 11
71.848
 20
48
 21
47.407
  0
LINE
  8
0
 10
71.848
 11
72.361
 20
47.407
 21
47.111
  0
LINE
  8
0
 10
72.361
 11
72.874
 20
47.111
 21
47.408
  0
LINE
  8
0
 10
72.874
 11
72.874
 20
47.408
 21
48
  0
LINE
  8
0
 10
72.874
 11
73.387
 20
48
 21
47.704
  0
LINE
  8
0
 10
73.387
 11
73.901
 20
47.704
 21
48
  0
LINE
  8
0
 10
73.901
 11
73.901
 20
48
 21
47.408
  0
LINE
  8
0
 10
73.901
 11
74.414
 20
47.408
 21
47.111
  0
LINE
  8
0
 10
74.414
 11
73.901
 20
47.111
 21
46.814
  0
LINE
  8
0
 10
73.901
 11
73.901
 20
46.814
 21
46.222
  0
LINE
  8
0
 10
73.901
 11
74.414
 20
46.222
 21
45.926
  0
LINE
  8
0
 10
74.414
 11
74.927
 20
45.926
 21
46.222
  0
LINE
  8
0
 10
74.927
 11
74.927
 20
46.222
 21
45.63
  0
LINE
  8
0
 10
74.927
 11
75.44
 20
45.63
 21
45.334
  0
LINE
  8
0
 10
75.44
 11
74.927
 20
45.334
 21
45.037
  0
LINE
  8
0
 10
74.927
 11
74.927
 20
45.037
 21
44.444
  0
LINE
  8
0
 10
74.927
 11
74.414
 20
44.444
 21
44.741
  0
LINE
  8
0
 10
74.414
 11
73.9
 20
44.741
 21
44.445
  0
LINE
  8
0
 10
73.9
 11
73.901
 20
44.445
 21
43.852
  0
LINE
  8
0
 10
73.901
 11
74.414
 20
43.852
 21
43.555
  0
LINE
  8
0
 10
74.414
 11
73.901
 20
43.555
 21
43.259
  0
LINE
  8
0
 10
73.901
 11
73.901
 20
43.259
 21
42.667
  0
LINE
  8
0
 10
73.901
 11
74.414
 20
42.667
 21
42.371
  0
LINE
  8
0
 10
74.414
 11
74.927
 20
42.371
 21
42.667
  0
LINE
  8
0
 10
74.927
 11
74.927
 20
42.667
 21
42.074
  0
LINE
  8
0
 10
74.927
 11
75.44
 20
42.074
 21
41.777
  0
LINE
  8
0
 10
75.44
 11
75.954
 20
41.777
 21
42.074
  0
LINE
  8
0
 10
75.954
 11
75.953
 20
42.074
 21
42.667
  0
LINE
  8
0
 10
75.953
 11
76.467
 20
42.667
 21
42.37
  0
LINE
  8
0
 10
76.467
 11
76.98
 20
42.37
 21
42.666
  0
LINE
  8
0
 10
76.98
 11
76.98
 20
42.666
 21
42.074
  0
LINE
  8
0
 10
76.98
 11
77.493
 20
42.074
 21
41.778
  0
LINE
  8
0
 10
77.493
 11
76.98
 20
41.778
 21
41.481
  0
LINE
  8
0
 10
76.98
 11
76.98
 20
41.481
 21
40.889
  0
LINE
  8
0
 10
76.98
 11
77.493
 20
40.889
 21
40.593
  0
LINE
  8
0
 10
77.493
 11
78.006
 20
40.593
 21
40.889
  0
LINE
  8
0
 10
78.006
 11
78.007
 20
40.889
 21
40.296
  0
LINE
  8
0
 10
78.007
 11
78.52
 20
40.296
 21
40
  0
LINE
  8
0
 10
78.52
 11
78.006
 20
40
 21
39.703
  0
LINE
  8
0
 10
78.006
 11
78.006
 20
39.703
 21
39.111
  0
LINE
  8
0
 10
78.006
 11
77.493
 20
39.111
 21
39.407
  0
LINE
  8
0
 10
77.493
 11
76.98
 20
39.407
 21
39.111
  0
LINE
  8
0
 10
76.98
 11
76.98
 20
39.111
 21
38.519
  0
LINE
  8
0
 10
76.98
 11
77.493
 20
38.519
 21
38.222
  0
LINE
  8
0
 10
77.493
 11
76.98
 20
38.222
 21
37.926
  0
LINE
  8
0
 10
76.98
 11
76.98
 20
37.926
 21
37.334
  0
LINE
  8
0
 10
76.98
 11
76.467
 20
37.334
 21
37.63
  0
LINE
  8
0
 10
76.467
 11
75.953
 20
37.63
 21
37.333
  0
LINE
  8
0
 10
75.953
 11
75.954
 20
37.333
 21
37.926
  0
LINE
  8
0
 10
75.954
 11
75.44
 20
37.926
 21
38.222
  0
LINE
  8
0
 10
75.44
 11
74.927
 20
38.222
 21
37.926
  0
LINE
  8
0
 10
74.927
 11
74.928
 20
37.926
 21
37.334
  0
LINE
  8
0
 10
74.928
 11
74.414
 20
37.334
 21
37.629
  0
LINE
  8
0
 10
74.414
 11
73.901
 20
37.629
 21
37.333
  0
LINE
  8
0
 10
73.901
 11
73.901
 20
37.333
 21
36.741
  0
LINE
  8
0
 10
73.901
 11
74.414
 20
36.741
 21
36.445
  0
LINE
  8
0
 10
74.414
 11
73.901
 20
36.445
 21
36.148
  0
LINE
  8
0
 10
73.901
 11
73.901
 20
36.148
 21
35.556
  0
LINE
  8
0
 10
73.901
 11
74.414
 20
35.556
 21
35.259
  0
LINE
  8
0
 10
74.414
 11
74.928
 20
35.259
 21
35.555
  0
LINE
  8
0
 10
74.928
 11
74.927
 20
35.555
 21
34.963
  0
LINE
  8
0
 10
74.927
 11
75.441
 20
34.963
 21
34.667
  0
LINE
  8
0
 10
75.441
 11
74.927
 20
34.667
 21
34.37
  0
LINE
  8
0
 10
74.927
 11
74.927
 20
34.37
 21
33.778
  0
LINE
  8
0
 10
74.927
 11
74.414
 20
33.778
 21
34.074
  0
LINE
  8
0
 10
74.414
 11
73.901
 20
34.074
 21
33.778
  0
LINE
  8
0
 10
73.901
 11
73.901
 20
33.778
 21
33.186
  0
LINE
  8
0
 10
73.901
 11
74.414
 20
33.186
 21
32.889
  0
LINE
  8
0
 10
74.414
 11
73.9
 20
32.889
 21
32.593
  0
LINE
  8
0
 10
73.9
 11
73.901
 20
32.593
 21
32
  0
LINE
  8
0
 10
73.901
 11
73.388
 20
32
 21
32.297
  0
LINE
  8
0
 10
73.388
 11
72.874
 20
32.297
 21
32
  0
LINE
  8
0
 10
72.874
 11
72.874
 20
32
 21
32.593
  0
LINE
  8
0
 10
72.874
 11
72.361
 20
32.593
 21
32.889
  0
LINE
  8
0
 10
72.361
 11
71.848
 20
32.889
 21
32.593
  0
LINE
  8
0
 10
71.848
 11
71.848
 20
32.593
 21
32
  0
LINE
  8
0
 10
71.848
 11
71.335
 20
32
 21
32.296
  0
LINE
  8
0
 10
71.335
 11
70.821
 20
32.296
 21
32
  0
LINE
  8
0
 10
70.821
 11
70.822
 20
32
 21
32.593
  0
LINE
  8
0
 10
70.822
 11
70.308
 20
32.593
 21
32.888
  0
LINE
  8
0
 10
70.308
 11
70.822
 20
32.888
 21
33.185
  0
LINE
  8
0
 10
70.822
 11
70.821
 20
33.185
 21
33.778
  0
LINE
  8
0
 10
70.821
 11
70.308
 20
33.778
 21
34.074
  0
LINE
  8
0
 10
70.308
 11
69.795
 20
34.074
 21
33.778
  0
LINE
  8
0
 10
69.795
 11
69.796
 20
33.778
 21
34.371
  0
LINE
  8
0
 10
69.796
 11
69.282
 20
34.371
 21
34.666
  0
LINE
  8
0
 10
69.282
 11
68.769
 20
34.666
 21
34.37
  0
LINE
  8
0
 10
68.769
 11
68.768
 20
34.37
 21
33.778
  0
LINE
  8
0
 10
68.768
 11
68.256
 20
33.778
 21
34.074
  0
LINE
  8
0
 10
68.256
 11
67.743
 20
34.074
 21
33.778
  0
LINE
  8
0
 10
67.743
 11
67.742
 20
33.778
 21
33.185
  0
LINE
  8
0
 10
67.742
 11
68.256
 20
33.185
 21
32.889
  0
LINE
  8
0
 10
68.256
 11
67.742
 20
32.889
 21
32.593
  0
LINE
  8
0
 10
67.742
 11
67.743
 20
32.593
 21
32.001
  0
LINE
  8
0
 10
67.743
 11
67.229
 20
32.001
 21
32.296
  0
LINE
  8
0
 10
67.229
 11
66.716
 20
32.296
 21
32
  0
LINE
  8
0
 10
66.716
 11
66.716
 20
32
 21
32.593
  0
LINE
  8
0
 10
66.716
 11
66.203
 20
32.593
 21
32.889
  0
LINE
  8
0
 10
66.203
 11
65.69
 20
32.889
 21
32.592
  0
LINE
  8
0
 10
65.69
 11
65.69
 20
32.592
 21
32
  0
LINE
  8
0
 10
65.69
 11
65.177
 20
32
 21
32.296
  0
LINE
  8
0
 10
65.177
 11
64.663
 20
32.296
 21
32
  0
LINE
  8
0
 10
64.663
 11
64.663
 20
32
 21
32.592
  0
LINE
  8
0
 10
64.663
 11
64.15
 20
32.592
 21
32.889
  0
LINE
  8
0
 10
64.15
 11
64.663
 20
32.889
 21
33.186
  0
LINE
  8
0
 10
64.663
 11
64.663
 20
33.186
 21
33.778
  0
LINE
  8
0
 10
64.663
 11
64.15
 20
33.778
 21
34.074
  0
LINE
  8
0
 10
64.15
 11
63.637
 20
34.074
 21
33.778
  0
LINE
  8
0
 10
63.637
 11
63.637
 20
33.778
 21
34.37
  0
LINE
  8
0
 10
63.637
 11
63.124
 20
34.37
 21
34.666
  0
LINE
  8
0
 10
63.124
 11
63.637
 20
34.666
 21
34.963
  0
LINE
  8
0
 10
63.637
 11
63.637
 20
34.963
 21
35.556
  0
LINE
  8
0
 10
63.637
 11
64.15
 20
35.556
 21
35.259
  0
LINE
  8
0
 10
64.15
 11
64.664
 20
35.259
 21
35.555
  0
LINE
  8
0
 10
64.664
 11
64.663
 20
35.555
 21
36.148
  0
LINE
  8
0
 10
64.663
 11
64.15
 20
36.148
 21
36.445
  0
LINE
  8
0
 10
64.15
 11
64.663
 20
36.445
 21
36.741
  0
LINE
  8
0
 10
64.663
 11
64.664
 20
36.741
 21
37.334
  0
LINE
  8
0
 10
64.664
 11
64.15
 20
37.334
 21
37.629
  0
LINE
  8
0
 10
64.15
 11
63.637
 20
37.629
 21
37.333
  0
LINE
  8
0
 10
63.637
 11
63.637
 20
37.333
 21
37.926
  0
LINE
  8
0
 10
63.637
 11
63.124
 20
37.926
 21
38.223
  0
LINE
  8
0
 10
63.124
 11
62.61
 20
38.223
 21
37.926
  0
LINE
  8
0
 10
62.61
 11
62.611
 20
37.926
 21
37.333
  0
LINE
  8
0
 10
62.611
 11
62.097
 20
37.333
 21
37.63
  0
LINE
  8
0
 10
62.097
 11
61.584
 20
37.63
 21
37.334
  0
LINE
  8
0
 10
61.584
 11
61.584
 20
37.334
 21
37.926
  0
LINE
  8
0
 10
61.584
 11
61.071
 20
37.926
 21
38.222
  0
LINE
  8
0
 10
61.071
 11
61.584
 20
38.222
 21
38.519
  0
LINE
  8
0
 10
61.584
 11
61.584
 20
38.519
 21
39.111
  0
LINE
  8
0
 10
61.584
 11
61.071
 20
39.111
 21
39.407
  0
LINE
  8
0
 10
61.071
 11
60.558
 20
39.407
 21
39.111
  0
LINE
  8
0
 10
60.558
 11
60.557
 20
39.111
 21
39.704
  0
LINE
  8
0
 10
60.557
 11
60.044
 20
39.704
 21
40
  0
ENDSEC
  0
SECTION
  2
OBJECTS
  0
DICTIONARY
  0
ENDSEC
  0
EOF
