  0
SECTION
  2
BLOCKS
  0
ENDSEC
  0
SECTION
  2
ENTITIES
  0
LINE
  8
0
 10
-32
 11
-31.604
 20
-18.476
 21
-17.792
  0
LINE
  8
0
 10
-31.604
 11
-32
 20
-17.792
 21
-17.108
  0
LINE
  8
0
 10
-32
 11
-31.208
 20
-17.108
 21
-17.108
  0
LINE
  8
0
 10
-31.208
 11
-30.816
 20
-17.108
 21
-16.424
  0
LINE
  8
0
 10
-30.816
 11
-31.208
 20
-16.424
 21
-15.74
  0
LINE
  8
0
 10
-31.208
 11
-32
 20
-15.74
 21
-15.74
  0
LINE
  8
0
 10
-32
 11
-31.604
 20
-15.74
 21
-15.052
  0
LINE
  8
0
 10
-31.604
 11
-32
 20
-15.052
 21
-14.368
  0
LINE
  8
0
 10
-32
 11
-31.208
 20
-14.368
 21
-14.368
  0
LINE
  8
0
 10
-31.208
 11
-30.816
 20
-14.368
 21
-13.684
  0
LINE
  8
0
 10
-30.816
 11
-30.42
 20
-13.684
 21
-14.368
  0
LINE
  8
0
 10
-30.42
 11
-29.628
 20
-14.368
 21
-14.368
  0
LINE
  8
0
 10
-29.628
 11
-29.236
 20
-14.368
 21
-13.684
  0
LINE
  8
0
 10
-29.236
 11
-29.628
 20
-13.684
 21
-13
  0
LINE
  8
0
 10
-29.628
 11
-28.84
 20
-13
 21
-13
  0
LINE
  8
0
 10
-28.84
 11
-28.444
 20
-13
 21
-12.316
  0
LINE
  8
0
 10
-28.444
 11
-28.84
 20
-12.316
 21
-11.632
  0
LINE
  8
0
 10
-28.84
 11
-29.628
 20
-11.632
 21
-11.632
  0
LINE
  8
0
 10
-29.628
 11
-29.236
 20
-11.632
 21
-10.948
  0
LINE
  8
0
 10
-29.236
 11
-29.628
 20
-10.948
 21
-10.264
  0
LINE
  8
0
 10
-29.628
 11
-30.42
 20
-10.264
 21
-10.264
  0
LINE
  8
0
 10
-30.42
 11
-30.816
 20
-10.264
 21
-10.948
  0
LINE
  8
0
 10
-30.816
 11
-31.208
 20
-10.948
 21
-10.264
  0
LINE
  8
0
 10
-31.208
 11
-32
 20
-10.264
 21
-10.264
  0
LINE
  8
0
 10
-32
 11
-31.604
 20
-10.264
 21
-9.58
  0
LINE
  8
0
 10
-31.604
 11
-32
 20
-9.58
 21
-8.896
  0
LINE
  8
0
 10
-32
 11
-31.208
 20
-8.896
 21
-8.896
  0
LINE
  8
0
 10
-31.208
 11
-30.816
 20
-8.896
 21
-8.212
  0
LINE
  8
0
 10
-30.816
 11
-31.208
 20
-8.212
 21
-7.528
  0
LINE
  8
0
 10
-31.208
 11
-32
 20
-7.528
 21
-7.528
  0
LINE
  8
0
 10
-32
 11
-31.604
 20
-7.528
 21
-6.844
  0
LINE
  8
0
 10
-31.604
 11
-32
 20
-6.844
 21
-6.16
  0
LINE
  8
0
 10
-32
 11
-31.208
 20
-6.16
 21
-6.16
  0
LINE
  8
0
 10
-31.208
 11
-30.816
 20
-6.16
 21
-5.476
  0
LINE
  8
0
 10
-30.816
 11
-30.42
 20
-5.476
 21
-6.16
  0
LINE
  8
0
 10
-30.42
 11
-29.628
 20
-6.16
 21
-6.16
  0
LINE
  8
0
 10
-29.628
 11
-29.236
 20
-6.16
 21
-5.476
  0
LINE
  8
0
 10
-29.236
 11
-29.628
 20
-5.476
 21
-4.788
  0
LINE
  8
0
 10
-29.628
 11
-28.84
 20
-4.788
 21
-4.788
  0
LINE
  8
0
 10
-28.84
 11
-28.444
 20
-4.788
 21
-4.104
  0
LINE
  8
0
 10
-28.444
 11
-28.048
 20
-4.104
 21
-4.788
  0
LINE
  8
0
 10
-28.048
 11
-27.26
 20
-4.788
 21
-4.788
  0
LINE
  8
0
 10
-27.26
 11
-27.656
 20
-4.788
 21
-5.476
  0
LINE
  8
0
 10
-27.656
 11
-27.26
 20
-5.476
 21
-6.16
  0
LINE
  8
0
 10
-27.26
 11
-26.468
 20
-6.16
 21
-6.16
  0
LINE
  8
0
 10
-26.468
 11
-26.076
 20
-6.16
 21
-5.476
  0
LINE
  8
0
 10
-26.076
 11
-25.68
 20
-5.476
 21
-6.16
  0
LINE
  8
0
 10
-25.68
 11
-24.888
 20
-6.16
 21
-6.16
  0
LINE
  8
0
 10
-24.888
 11
-24.492
 20
-6.16
 21
-5.476
  0
LINE
  8
0
 10
-24.492
 11
-24.888
 20
-5.476
 21
-4.788
  0
LINE
  8
0
 10
-24.888
 11
-24.1
 20
-4.788
 21
-4.788
  0
LINE
  8
0
 10
-24.1
 11
-23.704
 20
-4.788
 21
-4.104
  0
LINE
  8
0
 10
-23.704
 11
-24.1
 20
-4.104
 21
-3.42
  0
LINE
  8
0
 10
-24.1
 11
-24.888
 20
-3.42
 21
-3.42
  0
LINE
  8
0
 10
-24.888
 11
-24.492
 20
-3.42
 21
-2.736
  0
LINE
  8
0
 10
-24.492
 11
-24.888
 20
-2.736
 21
-2.052
  0
LINE
  8
0
 10
-24.888
 11
-24.1
 20
-2.052
 21
-2.052
  0
LINE
  8
0
 10
-24.1
 11
-23.704
 20
-2.052
 21
-1.368
  0
LINE
  8
0
 10
-23.704
 11
-23.308
 20
-1.368
 21
-2.052
  0
LINE
  8
0
 10
-23.308
 11
-22.52
 20
-2.052
 21
-2.052
  0
LINE
  8
0
 10
-22.52
 11
-22.124
 20
-2.052
 21
-1.368
  0
LINE
  8
0
 10
-22.124
 11
-22.52
 20
-1.368
 21
-0.684
  0
LINE
  8
0
 10
-22.52
 11
-21.728
 20
-0.684
 21
-0.684
  0
LINE
  8
0
 10
-21.728
 11
-21.332
 20
-0.684
 21
0
  0
LINE
  8
0
 10
-21.332
 11
-21.728
 20
0
 21
0.684
  0
LINE
  8
0
 10
-21.728
 11
-22.52
 20
0.684
 21
0.684
  0
LINE
  8
0
 10
-22.52
 11
-22.124
 20
0.684
 21
1.368
  0
LINE
  8
0
 10
-22.124
 11
-22.52
 20
1.368
 21
2.052
  0
LINE
  8
0
 10
-22.52
 11
-23.308
 20
2.052
 21
2.052
  0
LINE
  8
0
 10
-23.308
 11
-23.704
 20
2.052
 21
1.368
  0
LINE
  8
0
 10
-23.704
 11
-24.1
 20
1.368
 21
2.052
  0
LINE
  8
0
 10
-24.1
 11
-24.888
 20
2.052
 21
2.052
  0
LINE
  8
0
 10
-24.888
 11
-24.492
 20
2.052
 21
2.736
  0
LINE
  8
0
 10
-24.492
 11
-24.888
 20
2.736
 21
3.42
  0
LINE
  8
0
 10
-24.888
 11
-24.1
 20
3.42
 21
3.42
  0
LINE
  8
0
 10
-24.1
 11
-23.704
 20
3.42
 21
4.104
  0
LINE
  8
0
 10
-23.704
 11
-24.1
 20
4.104
 21
4.788
  0
LINE
  8
0
 10
-24.1
 11
-24.888
 20
4.788
 21
4.788
  0
LINE
  8
0
 10
-24.888
 11
-24.492
 20
4.788
 21
5.476
  0
LINE
  8
0
 10
-24.492
 11
-24.888
 20
5.476
 21
6.16
  0
LINE
  8
0
 10
-24.888
 11
-25.68
 20
6.16
 21
6.16
  0
LINE
  8
0
 10
-25.68
 11
-26.076
 20
6.16
 21
5.476
  0
LINE
  8
0
 10
-26.076
 11
-26.468
 20
5.476
 21
6.16
  0
LINE
  8
0
 10
-26.468
 11
-27.26
 20
6.16
 21
6.16
  0
LINE
  8
0
 10
-27.26
 11
-27.656
 20
6.16
 21
5.476
  0
LINE
  8
0
 10
-27.656
 11
-27.26
 20
5.476
 21
4.788
  0
LINE
  8
0
 10
-27.26
 11
-28.048
 20
4.788
 21
4.788
  0
LINE
  8
0
 10
-28.048
 11
-28.444
 20
4.788
 21
4.104
  0
LINE
  8
0
 10
-28.444
 11
-28.84
 20
4.104
 21
4.788
  0
LINE
  8
0
 10
-28.84
 11
-29.628
 20
4.788
 21
4.788
  0
LINE
  8
0
 10
-29.628
 11
-29.236
 20
4.788
 21
5.476
  0
LINE
  8
0
 10
-29.236
 11
-29.628
 20
5.476
 21
6.16
  0
LINE
  8
0
 10
-29.628
 11
-30.42
 20
6.16
 21
6.16
  0
LINE
  8
0
 10
-30.42
 11
-30.816
 20
6.16
 21
5.476
  0
LINE
  8
0
 10
-30.816
 11
-31.208
 20
5.476
 21
6.16
  0
LINE
  8
0
 10
-31.208
 11
-32
 20
6.16
 21
6.16
  0
LINE
  8
0
 10
-32
 11
-31.604
 20
6.16
 21
6.844
  0
LINE
  8
0
 10
-31.604
 11
-32
 20
6.844
 21
7.528
  0
LINE
  8
0
 10
-32
 11
-31.208
 20
7.528
 21
7.528
  0
LINE
  8
0
 10
-31.208
 11
-30.816
 20
7.528
 21
8.212
  0
LINE
  8
0
 10
-30.816
 11
-31.208
 20
8.212
 21
8.896
  0
LINE
  8
0
 10
-31.208
 11
-32
 20
8.896
 21
8.896
  0
LINE
  8
0
 10
-32
 11
-31.604
 20
8.896
 21
9.58
  0
LINE
  8
0
 10
-31.604
 11
-32
 20
9.58
 21
10.264
  0
LINE
  8
0
 10
-32
 11
-31.208
 20
10.264
 21
10.264
  0
LINE
  8
0
 10
-31.208
 11
-30.816
 20
10.264
 21
10.948
  0
LINE
  8
0
 10
-30.816
 11
-30.42
 20
10.948
 21
10.264
  0
LINE
  8
0
 10
-30.42
 11
-29.628
 20
10.264
 21
10.264
  0
LINE
  8
0
 10
-29.628
 11
-29.236
 20
10.264
 21
10.948
  0
LINE
  8
0
 10
-29.236
 11
-29.628
 20
10.948
 21
11.632
  0
LINE
  8
0
 10
-29.628
 11
-28.84
 20
11.632
 21
11.632
  0
LINE
  8
0
 10
-28.84
 11
-28.444
 20
11.632
 21
12.316
  0
LINE
  8
0
 10
-28.444
 11
-28.84
 20
12.316
 21
13
  0
LINE
  8
0
 10
-28.84
 11
-29.628
 20
13
 21
13
  0
LINE
  8
0
 10
-29.628
 11
-29.236
 20
13
 21
13.684
  0
LINE
  8
0
 10
-29.236
 11
-29.628
 20
13.684
 21
14.368
  0
LINE
  8
0
 10
-29.628
 11
-30.42
 20
14.368
 21
14.368
  0
LINE
  8
0
 10
-30.42
 11
-30.816
 20
14.368
 21
13.684
  0
LINE
  8
0
 10
-30.816
 11
-31.208
 20
13.684
 21
14.368
  0
LINE
  8
0
 10
-31.208
 11
-32
 20
14.368
 21
14.368
  0
LINE
  8
0
 10
-32
 11
-31.604
 20
14.368
 21
15.052
  0
LINE
  8
0
 10
-31.604
 11
-32
 20
15.052
 21
15.74
  0
LINE
  8
0
 10
-32
 11
-31.208
 20
15.74
 21
15.74
  0
LINE
  8
0
 10
-31.208
 11
-30.816
 20
15.74
 21
16.424
  0
LINE
  8
0
 10
-30.816
 11
-31.208
 20
16.424
 21
17.108
  0
LINE
  8
0
 10
-31.208
 11
-32
 20
17.108
 21
17.108
  0
LINE
  8
0
 10
-32
 11
-31.604
 20
17.108
 21
17.792
  0
LINE
  8
0
 10
-31.604
 11
-32
 20
17.792
 21
18.476
  0
LINE
  8
0
 10
-32
 11
-31.208
 20
18.476
 21
18.476
  0
LINE
  8
0
 10
-31.208
 11
-30.816
 20
18.476
 21
19.16
  0
LINE
  8
0
 10
-30.816
 11
-30.42
 20
19.16
 21
18.476
  0
LINE
  8
0
 10
-30.42
 11
-29.628
 20
18.476
 21
18.476
  0
LINE
  8
0
 10
-29.628
 11
-29.236
 20
18.476
 21
19.16
  0
LINE
  8
0
 10
-29.236
 11
-29.628
 20
19.16
 21
19.844
  0
LINE
  8
0
 10
-29.628
 11
-28.84
 20
19.844
 21
19.844
  0
LINE
  8
0
 10
-28.84
 11
-28.444
 20
19.844
 21
20.528
  0
LINE
  8
0
 10
-28.444
 11
-28.048
 20
20.528
 21
19.844
  0
LINE
  8
0
 10
-28.048
 11
-27.26
 20
19.844
 21
19.844
  0
LINE
  8
0
 10
-27.26
 11
-27.656
 20
19.844
 21
19.16
  0
LINE
  8
0
 10
-27.656
 11
-27.26
 20
19.16
 21
18.476
  0
LINE
  8
0
 10
-27.26
 11
-26.468
 20
18.476
 21
18.476
  0
LINE
  8
0
 10
-26.468
 11
-26.076
 20
18.476
 21
19.16
  0
LINE
  8
0
 10
-26.076
 11
-25.68
 20
19.16
 21
18.476
  0
LINE
  8
0
 10
-25.68
 11
-24.888
 20
18.476
 21
18.476
  0
LINE
  8
0
 10
-24.888
 11
-24.492
 20
18.476
 21
19.16
  0
LINE
  8
0
 10
-24.492
 11
-24.888
 20
19.16
 21
19.844
  0
LINE
  8
0
 10
-24.888
 11
-24.1
 20
19.844
 21
19.844
  0
LINE
  8
0
 10
-24.1
 11
-23.704
 20
19.844
 21
20.528
  0
LINE
  8
0
 10
-23.704
 11
-24.1
 20
20.528
 21
21.212
  0
LINE
  8
0
 10
-24.1
 11
-24.888
 20
21.212
 21
21.212
  0
LINE
  8
0
 10
-24.888
 11
-24.492
 20
21.212
 21
21.896
  0
LINE
  8
0
 10
-24.492
 11
-24.888
 20
21.896
 21
22.58
  0
LINE
  8
0
 10
-24.888
 11
-24.1
 20
22.58
 21
22.58
  0
LINE
  8
0
 10
-24.1
 11
-23.704
 20
22.58
 21
23.264
  0
LINE
  8
0
 10
-23.704
 11
-23.308
 20
23.264
 21
22.58
  0
LINE
  8
0
 10
-23.308
 11
-22.52
 20
22.58
 21
22.58
  0
LINE
  8
0
 10
-22.52
 11
-22.124
 20
22.58
 21
23.264
  0
LINE
  8
0
 10
-22.124
 11
-22.52
 20
23.264
 21
23.948
  0
LINE
  8
0
 10
-22.52
 11
-21.728
 20
23.948
 21
23.948
  0
LINE
  8
0
 10
-21.728
 11
-21.332
 20
23.948
 21
24.632
  0
LINE
  8
0
 10
-21.332
 11
-20.94
 20
24.632
 21
23.948
  0
LINE
  8
0
 10
-20.94
 11
-20.148
 20
23.948
 21
23.948
  0
LINE
  8
0
 10
-20.148
 11
-20.544
 20
23.948
 21
23.264
  0
LINE
  8
0
 10
-20.544
 11
-20.148
 20
23.264
 21
22.58
  0
LINE
  8
0
 10
-20.148
 11
-19.36
 20
22.58
 21
22.58
  0
LINE
  8
0
 10
-19.36
 11
-18.964
 20
22.58
 21
23.264
  0
LINE
  8
0
 10
-18.964
 11
-18.568
 20
23.264
 21
22.58
  0
LINE
  8
0
 10
-18.568
 11
-17.776
 20
22.58
 21
22.58
  0
LINE
  8
0
 10
-17.776
 11
-18.172
 20
22.58
 21
21.896
  0
LINE
  8
0
 10
-18.172
 11
-17.776
 20
21.896
 21
21.212
  0
LINE
  8
0
 10
-17.776
 11
-18.568
 20
21.212
 21
21.212
  0
LINE
  8
0
 10
-18.568
 11
-18.964
 20
21.212
 21
20.528
  0
LINE
  8
0
 10
-18.964
 11
-18.568
 20
20.528
 21
19.844
  0
LINE
  8
0
 10
-18.568
 11
-17.776
 20
19.844
 21
19.844
  0
LINE
  8
0
 10
-17.776
 11
-18.172
 20
19.844
 21
19.16
  0
LINE
  8
0
 10
-18.172
 11
-17.776
 20
19.16
 21
18.476
  0
LINE
  8
0
 10
-17.776
 11
-16.988
 20
18.476
 21
18.476
  0
LINE
  8
0
 10
-16.988
 11
-16.592
 20
18.476
 21
19.16
  0
LINE
  8
0
 10
-16.592
 11
-16.196
 20
19.16
 21
18.476
  0
LINE
  8
0
 10
-16.196
 11
-15.408
 20
18.476
 21
18.476
  0
LINE
  8
0
 10
-15.408
 11
-15.012
 20
18.476
 21
19.16
  0
LINE
  8
0
 10
-15.012
 11
-15.408
 20
19.16
 21
19.844
  0
LINE
  8
0
 10
-15.408
 11
-14.616
 20
19.844
 21
19.844
  0
LINE
  8
0
 10
-14.616
 11
-14.224
 20
19.844
 21
20.528
  0
LINE
  8
0
 10
-14.224
 11
-13.828
 20
20.528
 21
19.844
  0
LINE
  8
0
 10
-13.828
 11
-13.036
 20
19.844
 21
19.844
  0
LINE
  8
0
 10
-13.036
 11
-13.432
 20
19.844
 21
19.16
  0
LINE
  8
0
 10
-13.432
 11
-13.036
 20
19.16
 21
18.476
  0
LINE
  8
0
 10
-13.036
 11
-12.248
 20
18.476
 21
18.476
  0
LINE
  8
0
 10
-12.248
 11
-11.852
 20
18.476
 21
19.16
  0
LINE
  8
0
 10
-11.852
 11
-11.456
 20
19.16
 21
18.476
  0
LINE
  8
0
 10
-11.456
 11
-10.668
 20
18.476
 21
18.476
  0
LINE
  8
0
 10
-10.668
 11
-10.272
 20
18.476
 21
19.16
  0
LINE
  8
0
 10
-10.272
 11
-10.668
 20
19.16
 21
19.844
  0
LINE
  8
0
 10
-10.668
 11
-9.876
 20
19.844
 21
19.844
  0
LINE
  8
0
 10
-9.876
 11
-9.48
 20
19.844
 21
20.528
  0
LINE
  8
0
 10
-9.48
 11
-9.876
 20
20.528
 21
21.212
  0
LINE
  8
0
 10
-9.876
 11
-10.668
 20
21.212
 21
21.212
  0
LINE
  8
0
 10
-10.668
 11
-10.272
 20
21.212
 21
21.896
  0
LINE
  8
0
 10
-10.272
 11
-10.668
 20
21.896
 21
22.58
  0
LINE
  8
0
 10
-10.668
 11
-9.876
 20
22.58
 21
22.58
  0
LINE
  8
0
 10
-9.876
 11
-9.48
 20
22.58
 21
23.264
  0
LINE
  8
0
 10
-9.48
 11
-9.088
 20
23.264
 21
22.58
  0
LINE
  8
0
 10
-9.088
 11
-8.296
 20
22.58
 21
22.58
  0
LINE
  8
0
 10
-8.296
 11
-7.9
 20
22.58
 21
23.264
  0
LINE
  8
0
 10
-7.9
 11
-8.296
 20
23.264
 21
23.948
  0
LINE
  8
0
 10
-8.296
 11
-7.508
 20
23.948
 21
23.948
  0
LINE
  8
0
 10
-7.508
 11
-7.112
 20
23.948
 21
24.632
  0
LINE
  8
0
 10
-7.112
 11
-7.508
 20
24.632
 21
25.316
  0
LINE
  8
0
 10
-7.508
 11
-8.296
 20
25.316
 21
25.316
  0
LINE
  8
0
 10
-8.296
 11
-7.9
 20
25.316
 21
26.004
  0
LINE
  8
0
 10
-7.9
 11
-8.296
 20
26.004
 21
26.688
  0
LINE
  8
0
 10
-8.296
 11
-9.088
 20
26.688
 21
26.688
  0
LINE
  8
0
 10
-9.088
 11
-9.48
 20
26.688
 21
26.004
  0
LINE
  8
0
 10
-9.48
 11
-9.876
 20
26.004
 21
26.688
  0
LINE
  8
0
 10
-9.876
 11
-10.668
 20
26.688
 21
26.688
  0
LINE
  8
0
 10
-10.668
 11
-10.272
 20
26.688
 21
27.372
  0
LINE
  8
0
 10
-10.272
 11
-10.668
 20
27.372
 21
28.056
  0
LINE
  8
0
 10
-10.668
 11
-9.876
 20
28.056
 21
28.056
  0
LINE
  8
0
 10
-9.876
 11
-9.48
 20
28.056
 21
28.74
  0
LINE
  8
0
 10
-9.48
 11
-9.876
 20
28.74
 21
29.424
  0
LINE
  8
0
 10
-9.876
 11
-10.668
 20
29.424
 21
29.424
  0
LINE
  8
0
 10
-10.668
 11
-10.272
 20
29.424
 21
30.108
  0
LINE
  8
0
 10
-10.272
 11
-10.668
 20
30.108
 21
30.792
  0
LINE
  8
0
 10
-10.668
 11
-9.876
 20
30.792
 21
30.792
  0
LINE
  8
0
 10
-9.876
 11
-9.48
 20
30.792
 21
31.476
  0
LINE
  8
0
 10
-9.48
 11
-9.088
 20
31.476
 21
30.792
  0
LINE
  8
0
 10
-9.088
 11
-8.296
 20
30.792
 21
30.792
  0
LINE
  8
0
 10
-8.296
 11
-7.9
 20
30.792
 21
31.476
  0
LINE
  8
0
 10
-7.9
 11
-8.296
 20
31.476
 21
32.16
  0
LINE
  8
0
 10
-8.296
 11
-7.508
 20
32.16
 21
32.16
  0
LINE
  8
0
 10
-7.508
 11
-7.112
 20
32.16
 21
32.844
  0
LINE
  8
0
 10
-7.112
 11
-6.716
 20
32.844
 21
32.16
  0
LINE
  8
0
 10
-6.716
 11
-5.924
 20
32.16
 21
32.16
  0
LINE
  8
0
 10
-5.924
 11
-6.32
 20
32.16
 21
31.476
  0
LINE
  8
0
 10
-6.32
 11
-5.924
 20
31.476
 21
30.792
  0
LINE
  8
0
 10
-5.924
 11
-5.136
 20
30.792
 21
30.792
  0
LINE
  8
0
 10
-5.136
 11
-4.74
 20
30.792
 21
31.476
  0
LINE
  8
0
 10
-4.74
 11
-4.344
 20
31.476
 21
30.792
  0
LINE
  8
0
 10
-4.344
 11
-3.556
 20
30.792
 21
30.792
  0
LINE
  8
0
 10
-3.556
 11
-3.16
 20
30.792
 21
31.476
  0
LINE
  8
0
 10
-3.16
 11
-3.556
 20
31.476
 21
32.16
  0
LINE
  8
0
 10
-3.556
 11
-2.764
 20
32.16
 21
32.16
  0
LINE
  8
0
 10
-2.764
 11
-2.372
 20
32.16
 21
32.844
  0
LINE
  8
0
 10
-2.372
 11
-2.764
 20
32.844
 21
33.528
  0
LINE
  8
0
 10
-2.764
 11
-3.556
 20
33.528
 21
33.528
  0
LINE
  8
0
 10
-3.556
 11
-3.16
 20
33.528
 21
34.212
  0
LINE
  8
0
 10
-3.16
 11
-3.556
 20
34.212
 21
34.896
  0
LINE
  8
0
 10
-3.556
 11
-2.764
 20
34.896
 21
34.896
  0
LINE
  8
0
 10
-2.764
 11
-2.372
 20
34.896
 21
35.58
  0
LINE
  8
0
 10
-2.372
 11
-1.976
 20
35.58
 21
34.896
  0
LINE
  8
0
 10
-1.976
 11
-1.184
 20
34.896
 21
34.896
  0
LINE
  8
0
 10
-1.184
 11
-0.792
 20
34.896
 21
35.58
  0
LINE
  8
0
 10
-0.792
 11
-1.184
 20
35.58
 21
36.268
  0
LINE
  8
0
 10
-1.184
 11
-0.396
 20
36.268
 21
36.268
  0
LINE
  8
0
 10
-0.396
 11
0
 20
36.268
 21
36.952
  0
LINE
  8
0
 10
0
 11
0.396
 20
36.952
 21
36.268
  0
LINE
  8
0
 10
0.396
 11
1.184
 20
36.268
 21
36.268
  0
LINE
  8
0
 10
1.184
 11
0.792
 20
36.268
 21
35.58
  0
LINE
  8
0
 10
0.792
 11
1.184
 20
35.58
 21
34.896
  0
LINE
  8
0
 10
1.184
 11
1.976
 20
34.896
 21
34.896
  0
LINE
  8
0
 10
1.976
 11
2.372
 20
34.896
 21
35.58
  0
LINE
  8
0
 10
2.372
 11
2.764
 20
35.58
 21
34.896
  0
LINE
  8
0
 10
2.764
 11
3.556
 20
34.896
 21
34.896
  0
LINE
  8
0
 10
3.556
 11
3.16
 20
34.896
 21
34.212
  0
LINE
  8
0
 10
3.16
 11
3.556
 20
34.212
 21
33.528
  0
LINE
  8
0
 10
3.556
 11
2.764
 20
33.528
 21
33.528
  0
LINE
  8
0
 10
2.764
 11
2.372
 20
33.528
 21
32.844
  0
LINE
  8
0
 10
2.372
 11
2.764
 20
32.844
 21
32.16
  0
LINE
  8
0
 10
2.764
 11
3.556
 20
32.16
 21
32.16
  0
LINE
  8
0
 10
3.556
 11
3.16
 20
32.16
 21
31.476
  0
LINE
  8
0
 10
3.16
 11
3.556
 20
31.476
 21
30.792
  0
LINE
  8
0
 10
3.556
 11
4.344
 20
30.792
 21
30.792
  0
LINE
  8
0
 10
4.344
 11
4.74
 20
30.792
 21
31.476
  0
LINE
  8
0
 10
4.74
 11
5.136
 20
31.476
 21
30.792
  0
LINE
  8
0
 10
5.136
 11
5.924
 20
30.792
 21
30.792
  0
LINE
  8
0
 10
5.924
 11
6.32
 20
30.792
 21
31.476
  0
LINE
  8
0
 10
6.32
 11
5.924
 20
31.476
 21
32.16
  0
LINE
  8
0
 10
5.924
 11
6.716
 20
32.16
 21
32.16
  0
LINE
  8
0
 10
6.716
 11
7.112
 20
32.16
 21
32.844
  0
LINE
  8
0
 10
7.112
 11
7.508
 20
32.844
 21
32.16
  0
LINE
  8
0
 10
7.508
 11
8.296
 20
32.16
 21
32.16
  0
LINE
  8
0
 10
8.296
 11
7.9
 20
32.16
 21
31.476
  0
LINE
  8
0
 10
7.9
 11
8.296
 20
31.476
 21
30.792
  0
LINE
  8
0
 10
8.296
 11
9.088
 20
30.792
 21
30.792
  0
LINE
  8
0
 10
9.088
 11
9.48
 20
30.792
 21
31.476
  0
LINE
  8
0
 10
9.48
 11
9.876
 20
31.476
 21
30.792
  0
LINE
  8
0
 10
9.876
 11
10.668
 20
30.792
 21
30.792
  0
LINE
  8
0
 10
10.668
 11
10.272
 20
30.792
 21
30.108
  0
LINE
  8
0
 10
10.272
 11
10.668
 20
30.108
 21
29.424
  0
LINE
  8
0
 10
10.668
 11
9.876
 20
29.424
 21
29.424
  0
LINE
  8
0
 10
9.876
 11
9.48
 20
29.424
 21
28.74
  0
LINE
  8
0
 10
9.48
 11
9.876
 20
28.74
 21
28.056
  0
LINE
  8
0
 10
9.876
 11
10.668
 20
28.056
 21
28.056
  0
LINE
  8
0
 10
10.668
 11
10.272
 20
28.056
 21
27.372
  0
LINE
  8
0
 10
10.272
 11
10.668
 20
27.372
 21
26.688
  0
LINE
  8
0
 10
10.668
 11
9.876
 20
26.688
 21
26.688
  0
LINE
  8
0
 10
9.876
 11
9.48
 20
26.688
 21
26.004
  0
LINE
  8
0
 10
9.48
 11
9.088
 20
26.004
 21
26.688
  0
LINE
  8
0
 10
9.088
 11
8.296
 20
26.688
 21
26.688
  0
LINE
  8
0
 10
8.296
 11
7.9
 20
26.688
 21
26.004
  0
LINE
  8
0
 10
7.9
 11
8.296
 20
26.004
 21
25.316
  0
LINE
  8
0
 10
8.296
 11
7.508
 20
25.316
 21
25.316
  0
LINE
  8
0
 10
7.508
 11
7.112
 20
25.316
 21
24.632
  0
LINE
  8
0
 10
7.112
 11
7.508
 20
24.632
 21
23.948
  0
LINE
  8
0
 10
7.508
 11
8.296
 20
23.948
 21
23.948
  0
LINE
  8
0
 10
8.296
 11
7.9
 20
23.948
 21
23.264
  0
LINE
  8
0
 10
7.9
 11
8.296
 20
23.264
 21
22.58
  0
LINE
  8
0
 10
8.296
 11
9.088
 20
22.58
 21
22.58
  0
LINE
  8
0
 10
9.088
 11
9.48
 20
22.58
 21
23.264
  0
LINE
  8
0
 10
9.48
 11
9.876
 20
23.264
 21
22.58
  0
LINE
  8
0
 10
9.876
 11
10.668
 20
22.58
 21
22.58
  0
LINE
  8
0
 10
10.668
 11
10.272
 20
22.58
 21
21.896
  0
LINE
  8
0
 10
10.272
 11
10.668
 20
21.896
 21
21.212
  0
LINE
  8
0
 10
10.668
 11
9.876
 20
21.212
 21
21.212
  0
LINE
  8
0
 10
9.876
 11
9.48
 20
21.212
 21
20.528
  0
LINE
  8
0
 10
9.48
 11
9.876
 20
20.528
 21
19.844
  0
LINE
  8
0
 10
9.876
 11
10.668
 20
19.844
 21
19.844
  0
LINE
  8
0
 10
10.668
 11
10.272
 20
19.844
 21
19.16
  0
LINE
  8
0
 10
10.272
 11
10.668
 20
19.16
 21
18.476
  0
LINE
  8
0
 10
10.668
 11
11.456
 20
18.476
 21
18.476
  0
LINE
  8
0
 10
11.456
 11
11.852
 20
18.476
 21
19.16
  0
LINE
  8
0
 10
11.852
 11
12.248
 20
19.16
 21
18.476
  0
LINE
  8
0
 10
12.248
 11
13.036
 20
18.476
 21
18.476
  0
LINE
  8
0
 10
13.036
 11
13.432
 20
18.476
 21
19.16
  0
LINE
  8
0
 10
13.432
 11
13.036
 20
19.16
 21
19.844
  0
LINE
  8
0
 10
13.036
 11
13.828
 20
19.844
 21
19.844
  0
LINE
  8
0
 10
13.828
 11
14.224
 20
19.844
 21
20.528
  0
LINE
  8
0
 10
14.224
 11
14.616
 20
20.528
 21
19.844
  0
LINE
  8
0
 10
14.616
 11
15.408
 20
19.844
 21
19.844
  0
LINE
  8
0
 10
15.408
 11
15.012
 20
19.844
 21
19.16
  0
LINE
  8
0
 10
15.012
 11
15.408
 20
19.16
 21
18.476
  0
LINE
  8
0
 10
15.408
 11
16.196
 20
18.476
 21
18.476
  0
LINE
  8
0
 10
16.196
 11
16.592
 20
18.476
 21
19.16
  0
LINE
  8
0
 10
16.592
 11
16.988
 20
19.16
 21
18.476
  0
LINE
  8
0
 10
16.988
 11
17.776
 20
18.476
 21
18.476
  0
LINE
  8
0
 10
17.776
 11
18.172
 20
18.476
 21
19.16
  0
LINE
  8
0
 10
18.172
 11
17.776
 20
19.16
 21
19.844
  0
LINE
  8
0
 10
17.776
 11
18.568
 20
19.844
 21
19.844
  0
LINE
  8
0
 10
18.568
 11
18.964
 20
19.844
 21
20.528
  0
LINE
  8
0
 10
18.964
 11
18.568
 20
20.528
 21
21.212
  0
LINE
  8
0
 10
18.568
 11
17.776
 20
21.212
 21
21.212
  0
LINE
  8
0
 10
17.776
 11
18.172
 20
21.212
 21
21.896
  0
LINE
  8
0
 10
18.172
 11
17.776
 20
21.896
 21
22.58
  0
LINE
  8
0
 10
17.776
 11
18.568
 20
22.58
 21
22.58
  0
LINE
  8
0
 10
18.568
 11
18.964
 20
22.58
 21
23.264
  0
LINE
  8
0
 10
18.964
 11
19.36
 20
23.264
 21
22.58
  0
LINE
  8
0
 10
19.36
 11
20.148
 20
22.58
 21
22.58
  0
LINE
  8
0
 10
20.148
 11
20.544
 20
22.58
 21
23.264
  0
LINE
  8
0
 10
20.544
 11
20.148
 20
23.264
 21
23.948
  0
LINE
  8
0
 10
20.148
 11
20.94
 20
23.948
 21
23.948
  0
LINE
  8
0
 10
20.94
 11
21.332
 20
23.948
 21
24.632
  0
LINE
  8
0
 10
21.332
 11
21.728
 20
24.632
 21
23.948
  0
LINE
  8
0
 10
21.728
 11
22.52
 20
23.948
 21
23.948
  0
LINE
  8
0
 10
22.52
 11
22.124
 20
23.948
 21
23.264
  0
LINE
  8
0
 10
22.124
 11
22.52
 20
23.264
 21
22.58
  0
LINE
  8
0
 10
22.52
 11
23.308
 20
22.58
 21
22.58
  0
LINE
  8
0
 10
23.308
 11
23.704
 20
22.58
 21
23.264
  0
LINE
  8
0
 10
23.704
 11
24.1
 20
23.264
 21
22.58
  0
LINE
  8
0
 10
24.1
 11
24.888
 20
22.58
 21
22.58
  0
LINE
  8
0
 10
24.888
 11
24.492
 20
22.58
 21
21.896
  0
LINE
  8
0
 10
24.492
 11
24.888
 20
21.896
 21
21.212
  0
LINE
  8
0
 10
24.888
 11
24.1
 20
21.212
 21
21.212
  0
LINE
  8
0
 10
24.1
 11
23.704
 20
21.212
 21
20.528
  0
LINE
  8
0
 10
23.704
 11
24.1
 20
20.528
 21
19.844
  0
LINE
  8
0
 10
24.1
 11
24.888
 20
19.844
 21
19.844
  0
LINE
  8
0
 10
24.888
 11
24.492
 20
19.844
 21
19.16
  0
LINE
  8
0
 10
24.492
 11
24.888
 20
19.16
 21
18.476
  0
LINE
  8
0
 10
24.888
 11
25.68
 20
18.476
 21
18.476
  0
LINE
  8
0
 10
25.68
 11
26.076
 20
18.476
 21
19.16
  0
LINE
  8
0
 10
26.076
 11
26.468
 20
19.16
 21
18.476
  0
LINE
  8
0
 10
26.468
 11
27.26
 20
18.476
 21
18.476
  0
LINE
  8
0
 10
27.26
 11
27.656
 20
18.476
 21
19.16
  0
LINE
  8
0
 10
27.656
 11
27.26
 20
19.16
 21
19.844
  0
LINE
  8
0
 10
27.26
 11
28.048
 20
19.844
 21
19.844
  0
LINE
  8
0
 10
28.048
 11
28.444
 20
19.844
 21
20.528
  0
LINE
  8
0
 10
28.444
 11
28.84
 20
20.528
 21
19.844
  0
LINE
  8
0
 10
28.84
 11
29.628
 20
19.844
 21
19.844
  0
LINE
  8
0
 10
29.628
 11
29.236
 20
19.844
 21
19.16
  0
LINE
  8
0
 10
29.236
 11
29.628
 20
19.16
 21
18.476
  0
LINE
  8
0
 10
29.628
 11
30.42
 20
18.476
 21
18.476
  0
LINE
  8
0
 10
30.42
 11
30.816
 20
18.476
 21
19.16
  0
LINE
  8
0
 10
30.816
 11
31.208
 20
19.16
 21
18.476
  0
LINE
  8
0
 10
31.208
 11
32
 20
18.476
 21
18.476
  0
LINE
  8
0
 10
32
 11
31.604
 20
18.476
 21
17.792
  0
LINE
  8
0
 10
31.604
 11
32
 20
17.792
 21
17.108
  0
LINE
  8
0
 10
32
 11
31.208
 20
17.108
 21
17.108
  0
LINE
  8
0
 10
31.208
 11
30.816
 20
17.108
 21
16.424
  0
LINE
  8
0
 10
30.816
 11
31.208
 20
16.424
 21
15.74
  0
LINE
  8
0
 10
31.208
 11
32
 20
15.74
 21
15.74
  0
LINE
  8
0
 10
32
 11
31.604
 20
15.74
 21
15.052
  0
LINE
  8
0
 10
31.604
 11
32
 20
15.052
 21
14.368
  0
LINE
  8
0
 10
32
 11
31.208
 20
14.368
 21
14.368
  0
LINE
  8
0
 10
31.208
 11
30.816
 20
14.368
 21
13.684
  0
LINE
  8
0
 10
30.816
 11
30.42
 20
13.684
 21
14.368
  0
LINE
  8
0
 10
30.42
 11
29.628
 20
14.368
 21
14.368
  0
LINE
  8
0
 10
29.628
 11
29.236
 20
14.368
 21
13.684
  0
LINE
  8
0
 10
29.236
 11
29.628
 20
13.684
 21
13
  0
LINE
  8
0
 10
29.628
 11
28.84
 20
13
 21
13
  0
LINE
  8
0
 10
28.84
 11
28.444
 20
13
 21
12.316
  0
LINE
  8
0
 10
28.444
 11
28.84
 20
12.316
 21
11.632
  0
LINE
  8
0
 10
28.84
 11
29.628
 20
11.632
 21
11.632
  0
LINE
  8
0
 10
29.628
 11
29.236
 20
11.632
 21
10.948
  0
LINE
  8
0
 10
29.236
 11
29.628
 20
10.948
 21
10.264
  0
LINE
  8
0
 10
29.628
 11
30.42
 20
10.264
 21
10.264
  0
LINE
  8
0
 10
30.42
 11
30.816
 20
10.264
 21
10.948
  0
LINE
  8
0
 10
30.816
 11
31.208
 20
10.948
 21
10.264
  0
LINE
  8
0
 10
31.208
 11
32
 20
10.264
 21
10.264
  0
LINE
  8
0
 10
32
 11
31.604
 20
10.264
 21
9.58
  0
LINE
  8
0
 10
31.604
 11
32
 20
9.58
 21
8.896
  0
LINE
  8
0
 10
32
 11
31.208
 20
8.896
 21
8.896
  0
LINE
  8
0
 10
31.208
 11
30.816
 20
8.896
 21
8.212
  0
LINE
  8
0
 10
30.816
 11
31.208
 20
8.212
 21
7.528
  0
LINE
  8
0
 10
31.208
 11
32
 20
7.528
 21
7.528
  0
LINE
  8
0
 10
32
 11
31.604
 20
7.528
 21
6.844
  0
LINE
  8
0
 10
31.604
 11
32
 20
6.844
 21
6.16
  0
LINE
  8
0
 10
32
 11
31.208
 20
6.16
 21
6.16
  0
LINE
  8
0
 10
31.208
 11
30.816
 20
6.16
 21
5.476
  0
LINE
  8
0
 10
30.816
 11
30.42
 20
5.476
 21
6.16
  0
LINE
  8
0
 10
30.42
 11
29.628
 20
6.16
 21
6.16
  0
LINE
  8
0
 10
29.628
 11
29.236
 20
6.16
 21
5.476
  0
LINE
  8
0
 10
29.236
 11
29.628
 20
5.476
 21
4.788
  0
LINE
  8
0
 10
29.628
 11
28.84
 20
4.788
 21
4.788
  0
LINE
  8
0
 10
28.84
 11
28.444
 20
4.788
 21
4.104
  0
LINE
  8
0
 10
28.444
 11
28.048
 20
4.104
 21
4.788
  0
LINE
  8
0
 10
28.048
 11
27.26
 20
4.788
 21
4.788
  0
LINE
  8
0
 10
27.26
 11
27.656
 20
4.788
 21
5.476
  0
LINE
  8
0
 10
27.656
 11
27.26
 20
5.476
 21
6.16
  0
LINE
  8
0
 10
27.26
 11
26.468
 20
6.16
 21
6.16
  0
LINE
  8
0
 10
26.468
 11
26.076
 20
6.16
 21
5.476
  0
LINE
  8
0
 10
26.076
 11
25.68
 20
5.476
 21
6.16
  0
LINE
  8
0
 10
25.68
 11
24.888
 20
6.16
 21
6.16
  0
LINE
  8
0
 10
24.888
 11
24.492
 20
6.16
 21
5.476
  0
LINE
  8
0
 10
24.492
 11
24.888
 20
5.476
 21
4.788
  0
LINE
  8
0
 10
24.888
 11
24.1
 20
4.788
 21
4.788
  0
LINE
  8
0
 10
24.1
 11
23.704
 20
4.788
 21
4.104
  0
LINE
  8
0
 10
23.704
 11
24.1
 20
4.104
 21
3.42
  0
LINE
  8
0
 10
24.1
 11
24.888
 20
3.42
 21
3.42
  0
LINE
  8
0
 10
24.888
 11
24.492
 20
3.42
 21
2.736
  0
LINE
  8
0
 10
24.492
 11
24.888
 20
2.736
 21
2.052
  0
LINE
  8
0
 10
24.888
 11
24.1
 20
2.052
 21
2.052
  0
LINE
  8
0
 10
24.1
 11
23.704
 20
2.052
 21
1.368
  0
LINE
  8
0
 10
23.704
 11
23.308
 20
1.368
 21
2.052
  0
LINE
  8
0
 10
23.308
 11
22.52
 20
2.052
 21
2.052
  0
LINE
  8
0
 10
22.52
 11
22.124
 20
2.052
 21
1.368
  0
LINE
  8
0
 10
22.124
 11
22.52
 20
1.368
 21
0.684
  0
LINE
  8
0
 10
22.52
 11
21.728
 20
0.684
 21
0.684
  0
LINE
  8
0
 10
21.728
 11
21.332
 20
0.684
 21
0
  0
LINE
  8
0
 10
21.332
 11
21.728
 20
0
 21
-0.684
  0
LINE
  8
0
 10
21.728
 11
22.52
 20
-0.684
 21
-0.684
  0
LINE
  8
0
 10
22.52
 11
22.124
 20
-0.684
 21
-1.368
  0
LINE
  8
0
 10
22.124
 11
22.52
 20
-1.368
 21
-2.052
  0
LINE
  8
0
 10
22.52
 11
23.308
 20
-2.052
 21
-2.052
  0
LINE
  8
0
 10
23.308
 11
23.704
 20
-2.052
 21
-1.368
  0
LINE
  8
0
 10
23.704
 11
24.1
 20
-1.368
 21
-2.052
  0
LINE
  8
0
 10
24.1
 11
24.888
 20
-2.052
 21
-2.052
  0
LINE
  8
0
 10
24.888
 11
24.492
 20
-2.052
 21
-2.736
  0
LINE
  8
0
 10
24.492
 11
24.888
 20
-2.736
 21
-3.42
  0
LINE
  8
0
 10
24.888
 11
24.1
 20
-3.42
 21
-3.42
  0
LINE
  8
0
 10
24.1
 11
23.704
 20
-3.42
 21
-4.104
  0
LINE
  8
0
 10
23.704
 11
24.1
 20
-4.104
 21
-4.788
  0
LINE
  8
0
 10
24.1
 11
24.888
 20
-4.788
 21
-4.788
  0
LINE
  8
0
 10
24.888
 11
24.492
 20
-4.788
 21
-5.476
  0
LINE
  8
0
 10
24.492
 11
24.888
 20
-5.476
 21
-6.16
  0
LINE
  8
0
 10
24.888
 11
25.68
 20
-6.16
 21
-6.16
  0
LINE
  8
0
 10
25.68
 11
26.076
 20
-6.16
 21
-5.476
  0
LINE
  8
0
 10
26.076
 11
26.468
 20
-5.476
 21
-6.16
  0
LINE
  8
0
 10
26.468
 11
27.26
 20
-6.16
 21
-6.16
  0
LINE
  8
0
 10
27.26
 11
27.656
 20
-6.16
 21
-5.476
  0
LINE
  8
0
 10
27.656
 11
27.26
 20
-5.476
 21
-4.788
  0
LINE
  8
0
 10
27.26
 11
28.048
 20
-4.788
 21
-4.788
  0
LINE
  8
0
 10
28.048
 11
28.444
 20
-4.788
 21
-4.104
  0
LINE
  8
0
 10
28.444
 11
28.84
 20
-4.104
 21
-4.788
  0
LINE
  8
0
 10
28.84
 11
29.628
 20
-4.788
 21
-4.788
  0
LINE
  8
0
 10
29.628
 11
29.236
 20
-4.788
 21
-5.476
  0
LINE
  8
0
 10
29.236
 11
29.628
 20
-5.476
 21
-6.16
  0
LINE
  8
0
 10
29.628
 11
30.42
 20
-6.16
 21
-6.16
  0
LINE
  8
0
 10
30.42
 11
30.816
 20
-6.16
 21
-5.476
  0
LINE
  8
0
 10
30.816
 11
31.208
 20
-5.476
 21
-6.16
  0
LINE
  8
0
 10
31.208
 11
32
 20
-6.16
 21
-6.16
  0
LINE
  8
0
 10
32
 11
31.604
 20
-6.16
 21
-6.844
  0
LINE
  8
0
 10
31.604
 11
32
 20
-6.844
 21
-7.528
  0
LINE
  8
0
 10
32
 11
31.208
 20
-7.528
 21
-7.528
  0
LINE
  8
0
 10
31.208
 11
30.816
 20
-7.528
 21
-8.212
  0
LINE
  8
0
 10
30.816
 11
31.208
 20
-8.212
 21
-8.896
  0
LINE
  8
0
 10
31.208
 11
32
 20
-8.896
 21
-8.896
  0
LINE
  8
0
 10
32
 11
31.604
 20
-8.896
 21
-9.58
  0
LINE
  8
0
 10
31.604
 11
32
 20
-9.58
 21
-10.264
  0
LINE
  8
0
 10
32
 11
31.208
 20
-10.264
 21
-10.264
  0
LINE
  8
0
 10
31.208
 11
30.816
 20
-10.264
 21
-10.948
  0
LINE
  8
0
 10
30.816
 11
30.42
 20
-10.948
 21
-10.264
  0
LINE
  8
0
 10
30.42
 11
29.628
 20
-10.264
 21
-10.264
  0
LINE
  8
0
 10
29.628
 11
29.236
 20
-10.264
 21
-10.948
  0
LINE
  8
0
 10
29.236
 11
29.628
 20
-10.948
 21
-11.632
  0
LINE
  8
0
 10
29.628
 11
28.84
 20
-11.632
 21
-11.632
  0
LINE
  8
0
 10
28.84
 11
28.444
 20
-11.632
 21
-12.316
  0
LINE
  8
0
 10
28.444
 11
28.84
 20
-12.316
 21
-13
  0
LINE
  8
0
 10
28.84
 11
29.628
 20
-13
 21
-13
  0
LINE
  8
0
 10
29.628
 11
29.236
 20
-13
 21
-13.684
  0
LINE
  8
0
 10
29.236
 11
29.628
 20
-13.684
 21
-14.368
  0
LINE
  8
0
 10
29.628
 11
30.42
 20
-14.368
 21
-14.368
  0
LINE
  8
0
 10
30.42
 11
30.816
 20
-14.368
 21
-13.684
  0
LINE
  8
0
 10
30.816
 11
31.208
 20
-13.684
 21
-14.368
  0
LINE
  8
0
 10
31.208
 11
32
 20
-14.368
 21
-14.368
  0
LINE
  8
0
 10
32
 11
31.604
 20
-14.368
 21
-15.052
  0
LINE
  8
0
 10
31.604
 11
32
 20
-15.052
 21
-15.74
  0
LINE
  8
0
 10
32
 11
31.208
 20
-15.74
 21
-15.74
  0
LINE
  8
0
 10
31.208
 11
30.816
 20
-15.74
 21
-16.424
  0
LINE
  8
0
 10
30.816
 11
31.208
 20
-16.424
 21
-17.108
  0
LINE
  8
0
 10
31.208
 11
32
 20
-17.108
 21
-17.108
  0
LINE
  8
0
 10
32
 11
31.604
 20
-17.108
 21
-17.792
  0
LINE
  8
0
 10
31.604
 11
32
 20
-17.792
 21
-18.476
  0
LINE
  8
0
 10
32
 11
31.208
 20
-18.476
 21
-18.476
  0
LINE
  8
0
 10
31.208
 11
30.816
 20
-18.476
 21
-19.16
  0
LINE
  8
0
 10
30.816
 11
30.42
 20
-19.16
 21
-18.476
  0
LINE
  8
0
 10
30.42
 11
29.628
 20
-18.476
 21
-18.476
  0
LINE
  8
0
 10
29.628
 11
29.236
 20
-18.476
 21
-19.16
  0
LINE
  8
0
 10
29.236
 11
29.628
 20
-19.16
 21
-19.844
  0
LINE
  8
0
 10
29.628
 11
28.84
 20
-19.844
 21
-19.844
  0
LINE
  8
0
 10
28.84
 11
28.444
 20
-19.844
 21
-20.528
  0
LINE
  8
0
 10
28.444
 11
28.048
 20
-20.528
 21
-19.844
  0
LINE
  8
0
 10
28.048
 11
27.26
 20
-19.844
 21
-19.844
  0
LINE
  8
0
 10
27.26
 11
27.656
 20
-19.844
 21
-19.16
  0
LINE
  8
0
 10
27.656
 11
27.26
 20
-19.16
 21
-18.476
  0
LINE
  8
0
 10
27.26
 11
26.468
 20
-18.476
 21
-18.476
  0
LINE
  8
0
 10
26.468
 11
26.076
 20
-18.476
 21
-19.16
  0
LINE
  8
0
 10
26.076
 11
25.68
 20
-19.16
 21
-18.476
  0
LINE
  8
0
 10
25.68
 11
24.888
 20
-18.476
 21
-18.476
  0
LINE
  8
0
 10
24.888
 11
24.492
 20
-18.476
 21
-19.16
  0
LINE
  8
0
 10
24.492
 11
24.888
 20
-19.16
 21
-19.844
  0
LINE
  8
0
 10
24.888
 11
24.1
 20
-19.844
 21
-19.844
  0
LINE
  8
0
 10
24.1
 11
23.704
 20
-19.844
 21
-20.528
  0
LINE
  8
0
 10
23.704
 11
24.1
 20
-20.528
 21
-21.212
  0
LINE
  8
0
 10
24.1
 11
24.888
 20
-21.212
 21
-21.212
  0
LINE
  8
0
 10
24.888
 11
24.492
 20
-21.212
 21
-21.896
  0
LINE
  8
0
 10
24.492
 11
24.888
 20
-21.896
 21
-22.58
  0
LINE
  8
0
 10
24.888
 11
24.1
 20
-22.58
 21
-22.58
  0
LINE
  8
0
 10
24.1
 11
23.704
 20
-22.58
 21
-23.264
  0
LINE
  8
0
 10
23.704
 11
23.308
 20
-23.264
 21
-22.58
  0
LINE
  8
0
 10
23.308
 11
22.52
 20
-22.58
 21
-22.58
  0
LINE
  8
0
 10
22.52
 11
22.124
 20
-22.58
 21
-23.264
  0
LINE
  8
0
 10
22.124
 11
22.52
 20
-23.264
 21
-23.948
  0
LINE
  8
0
 10
22.52
 11
21.728
 20
-23.948
 21
-23.948
  0
LINE
  8
0
 10
21.728
 11
21.332
 20
-23.948
 21
-24.632
  0
LINE
  8
0
 10
21.332
 11
20.94
 20
-24.632
 21
-23.948
  0
LINE
  8
0
 10
20.94
 11
20.148
 20
-23.948
 21
-23.948
  0
LINE
  8
0
 10
20.148
 11
20.544
 20
-23.948
 21
-23.264
  0
LINE
  8
0
 10
20.544
 11
20.148
 20
-23.264
 21
-22.58
  0
LINE
  8
0
 10
20.148
 11
19.36
 20
-22.58
 21
-22.58
  0
LINE
  8
0
 10
19.36
 11
18.964
 20
-22.58
 21
-23.264
  0
LINE
  8
0
 10
18.964
 11
18.568
 20
-23.264
 21
-22.58
  0
LINE
  8
0
 10
18.568
 11
17.776
 20
-22.58
 21
-22.58
  0
LINE
  8
0
 10
17.776
 11
18.172
 20
-22.58
 21
-21.896
  0
LINE
  8
0
 10
18.172
 11
17.776
 20
-21.896
 21
-21.212
  0
LINE
  8
0
 10
17.776
 11
18.568
 20
-21.212
 21
-21.212
  0
LINE
  8
0
 10
18.568
 11
18.964
 20
-21.212
 21
-20.528
  0
LINE
  8
0
 10
18.964
 11
18.568
 20
-20.528
 21
-19.844
  0
LINE
  8
0
 10
18.568
 11
17.776
 20
-19.844
 21
-19.844
  0
LINE
  8
0
 10
17.776
 11
18.172
 20
-19.844
 21
-19.16
  0
LINE
  8
0
 10
18.172
 11
17.776
 20
-19.16
 21
-18.476
  0
LINE
  8
0
 10
17.776
 11
16.988
 20
-18.476
 21
-18.476
  0
LINE
  8
0
 10
16.988
 11
16.592
 20
-18.476
 21
-19.16
  0
LINE
  8
0
 10
16.592
 11
16.196
 20
-19.16
 21
-18.476
  0
LINE
  8
0
 10
16.196
 11
15.408
 20
-18.476
 21
-18.476
  0
LINE
  8
0
 10
15.408
 11
15.012
 20
-18.476
 21
-19.16
  0
LINE
  8
0
 10
15.012
 11
15.408
 20
-19.16
 21
-19.844
  0
LINE
  8
0
 10
15.408
 11
14.616
 20
-19.844
 21
-19.844
  0
LINE
  8
0
 10
14.616
 11
14.224
 20
-19.844
 21
-20.528
  0
LINE
  8
0
 10
14.224
 11
13.828
 20
-20.528
 21
-19.844
  0
LINE
  8
0
 10
13.828
 11
13.036
 20
-19.844
 21
-19.844
  0
LINE
  8
0
 10
13.036
 11
13.432
 20
-19.844
 21
-19.16
  0
LINE
  8
0
 10
13.432
 11
13.036
 20
-19.16
 21
-18.476
  0
LINE
  8
0
 10
13.036
 11
12.248
 20
-18.476
 21
-18.476
  0
LINE
  8
0
 10
12.248
 11
11.852
 20
-18.476
 21
-19.16
  0
LINE
  8
0
 10
11.852
 11
11.456
 20
-19.16
 21
-18.476
  0
LINE
  8
0
 10
11.456
 11
10.668
 20
-18.476
 21
-18.476
  0
LINE
  8
0
 10
10.668
 11
10.272
 20
-18.476
 21
-19.16
  0
LINE
  8
0
 10
10.272
 11
10.668
 20
-19.16
 21
-19.844
  0
LINE
  8
0
 10
10.668
 11
9.876
 20
-19.844
 21
-19.844
  0
LINE
  8
0
 10
9.876
 11
9.48
 20
-19.844
 21
-20.528
  0
LINE
  8
0
 10
9.48
 11
9.876
 20
-20.528
 21
-21.212
  0
LINE
  8
0
 10
9.876
 11
10.668
 20
-21.212
 21
-21.212
  0
LINE
  8
0
 10
10.668
 11
10.272
 20
-21.212
 21
-21.896
  0
LINE
  8
0
 10
10.272
 11
10.668
 20
-21.896
 21
-22.58
  0
LINE
  8
0
 10
10.668
 11
9.876
 20
-22.58
 21
-22.58
  0
LINE
  8
0
 10
9.876
 11
9.48
 20
-22.58
 21
-23.264
  0
LINE
  8
0
 10
9.48
 11
9.088
 20
-23.264
 21
-22.58
  0
LINE
  8
0
 10
9.088
 11
8.296
 20
-22.58
 21
-22.58
  0
LINE
  8
0
 10
8.296
 11
7.9
 20
-22.58
 21
-23.264
  0
LINE
  8
0
 10
7.9
 11
8.296
 20
-23.264
 21
-23.948
  0
LINE
  8
0
 10
8.296
 11
7.508
 20
-23.948
 21
-23.948
  0
LINE
  8
0
 10
7.508
 11
7.112
 20
-23.948
 21
-24.632
  0
LINE
  8
0
 10
7.112
 11
7.508
 20
-24.632
 21
-25.316
  0
LINE
  8
0
 10
7.508
 11
8.296
 20
-25.316
 21
-25.316
  0
LINE
  8
0
 10
8.296
 11
7.9
 20
-25.316
 21
-26.004
  0
LINE
  8
0
 10
7.9
 11
8.296
 20
-26.004
 21
-26.688
  0
LINE
  8
0
 10
8.296
 11
9.088
 20
-26.688
 21
-26.688
  0
LINE
  8
0
 10
9.088
 11
9.48
 20
-26.688
 21
-26.004
  0
LINE
  8
0
 10
9.48
 11
9.876
 20
-26.004
 21
-26.688
  0
LINE
  8
0
 10
9.876
 11
10.668
 20
-26.688
 21
-26.688
  0
LINE
  8
0
 10
10.668
 11
10.272
 20
-26.688
 21
-27.372
  0
LINE
  8
0
 10
10.272
 11
10.668
 20
-27.372
 21
-28.056
  0
LINE
  8
0
 10
10.668
 11
9.876
 20
-28.056
 21
-28.056
  0
LINE
  8
0
 10
9.876
 11
9.48
 20
-28.056
 21
-28.74
  0
LINE
  8
0
 10
9.48
 11
9.876
 20
-28.74
 21
-29.424
  0
LINE
  8
0
 10
9.876
 11
10.668
 20
-29.424
 21
-29.424
  0
LINE
  8
0
 10
10.668
 11
10.272
 20
-29.424
 21
-30.108
  0
LINE
  8
0
 10
10.272
 11
10.668
 20
-30.108
 21
-30.792
  0
LINE
  8
0
 10
10.668
 11
9.876
 20
-30.792
 21
-30.792
  0
LINE
  8
0
 10
9.876
 11
9.48
 20
-30.792
 21
-31.476
  0
LINE
  8
0
 10
9.48
 11
9.088
 20
-31.476
 21
-30.792
  0
LINE
  8
0
 10
9.088
 11
8.296
 20
-30.792
 21
-30.792
  0
LINE
  8
0
 10
8.296
 11
7.9
 20
-30.792
 21
-31.476
  0
LINE
  8
0
 10
7.9
 11
8.296
 20
-31.476
 21
-32.16
  0
LINE
  8
0
 10
8.296
 11
7.508
 20
-32.16
 21
-32.16
  0
LINE
  8
0
 10
7.508
 11
7.112
 20
-32.16
 21
-32.844
  0
LINE
  8
0
 10
7.112
 11
6.716
 20
-32.844
 21
-32.16
  0
LINE
  8
0
 10
6.716
 11
5.924
 20
-32.16
 21
-32.16
  0
LINE
  8
0
 10
5.924
 11
6.32
 20
-32.16
 21
-31.476
  0
LINE
  8
0
 10
6.32
 11
5.924
 20
-31.476
 21
-30.792
  0
LINE
  8
0
 10
5.924
 11
5.136
 20
-30.792
 21
-30.792
  0
LINE
  8
0
 10
5.136
 11
4.74
 20
-30.792
 21
-31.476
  0
LINE
  8
0
 10
4.74
 11
4.344
 20
-31.476
 21
-30.792
  0
LINE
  8
0
 10
4.344
 11
3.556
 20
-30.792
 21
-30.792
  0
LINE
  8
0
 10
3.556
 11
3.16
 20
-30.792
 21
-31.476
  0
LINE
  8
0
 10
3.16
 11
3.556
 20
-31.476
 21
-32.16
  0
LINE
  8
0
 10
3.556
 11
2.764
 20
-32.16
 21
-32.16
  0
LINE
  8
0
 10
2.764
 11
2.372
 20
-32.16
 21
-32.844
  0
LINE
  8
0
 10
2.372
 11
2.764
 20
-32.844
 21
-33.528
  0
LINE
  8
0
 10
2.764
 11
3.556
 20
-33.528
 21
-33.528
  0
LINE
  8
0
 10
3.556
 11
3.16
 20
-33.528
 21
-34.212
  0
LINE
  8
0
 10
3.16
 11
3.556
 20
-34.212
 21
-34.896
  0
LINE
  8
0
 10
3.556
 11
2.764
 20
-34.896
 21
-34.896
  0
LINE
  8
0
 10
2.764
 11
2.372
 20
-34.896
 21
-35.58
  0
LINE
  8
0
 10
2.372
 11
1.976
 20
-35.58
 21
-34.896
  0
LINE
  8
0
 10
1.976
 11
1.184
 20
-34.896
 21
-34.896
  0
LINE
  8
0
 10
1.184
 11
0.792
 20
-34.896
 21
-35.58
  0
LINE
  8
0
 10
0.792
 11
1.184
 20
-35.58
 21
-36.268
  0
LINE
  8
0
 10
1.184
 11
0.396
 20
-36.268
 21
-36.268
  0
LINE
  8
0
 10
0.396
 11
0
 20
-36.268
 21
-36.952
  0
LINE
  8
0
 10
0
 11
-0.396
 20
-36.952
 21
-36.268
  0
LINE
  8
0
 10
-0.396
 11
-1.184
 20
-36.268
 21
-36.268
  0
LINE
  8
0
 10
-1.184
 11
-0.792
 20
-36.268
 21
-35.58
  0
LINE
  8
0
 10
-0.792
 11
-1.184
 20
-35.58
 21
-34.896
  0
LINE
  8
0
 10
-1.184
 11
-1.976
 20
-34.896
 21
-34.896
  0
LINE
  8
0
 10
-1.976
 11
-2.372
 20
-34.896
 21
-35.58
  0
LINE
  8
0
 10
-2.372
 11
-2.764
 20
-35.58
 21
-34.896
  0
LINE
  8
0
 10
-2.764
 11
-3.556
 20
-34.896
 21
-34.896
  0
LINE
  8
0
 10
-3.556
 11
-3.16
 20
-34.896
 21
-34.212
  0
LINE
  8
0
 10
-3.16
 11
-3.556
 20
-34.212
 21
-33.528
  0
LINE
  8
0
 10
-3.556
 11
-2.764
 20
-33.528
 21
-33.528
  0
LINE
  8
0
 10
-2.764
 11
-2.372
 20
-33.528
 21
-32.844
  0
LINE
  8
0
 10
-2.372
 11
-2.764
 20
-32.844
 21
-32.16
  0
LINE
  8
0
 10
-2.764
 11
-3.556
 20
-32.16
 21
-32.16
  0
LINE
  8
0
 10
-3.556
 11
-3.16
 20
-32.16
 21
-31.476
  0
LINE
  8
0
 10
-3.16
 11
-3.556
 20
-31.476
 21
-30.792
  0
LINE
  8
0
 10
-3.556
 11
-4.344
 20
-30.792
 21
-30.792
  0
LINE
  8
0
 10
-4.344
 11
-4.74
 20
-30.792
 21
-31.476
  0
LINE
  8
0
 10
-4.74
 11
-5.136
 20
-31.476
 21
-30.792
  0
LINE
  8
0
 10
-5.136
 11
-5.924
 20
-30.792
 21
-30.792
  0
LINE
  8
0
 10
-5.924
 11
-6.32
 20
-30.792
 21
-31.476
  0
LINE
  8
0
 10
-6.32
 11
-5.924
 20
-31.476
 21
-32.16
  0
LINE
  8
0
 10
-5.924
 11
-6.716
 20
-32.16
 21
-32.16
  0
LINE
  8
0
 10
-6.716
 11
-7.112
 20
-32.16
 21
-32.844
  0
LINE
  8
0
 10
-7.112
 11
-7.508
 20
-32.844
 21
-32.16
  0
LINE
  8
0
 10
-7.508
 11
-8.296
 20
-32.16
 21
-32.16
  0
LINE
  8
0
 10
-8.296
 11
-7.9
 20
-32.16
 21
-31.476
  0
LINE
  8
0
 10
-7.9
 11
-8.296
 20
-31.476
 21
-30.792
  0
LINE
  8
0
 10
-8.296
 11
-9.088
 20
-30.792
 21
-30.792
  0
LINE
  8
0
 10
-9.088
 11
-9.48
 20
-30.792
 21
-31.476
  0
LINE
  8
0
 10
-9.48
 11
-9.876
 20
-31.476
 21
-30.792
  0
LINE
  8
0
 10
-9.876
 11
-10.668
 20
-30.792
 21
-30.792
  0
LINE
  8
0
 10
-10.668
 11
-10.272
 20
-30.792
 21
-30.108
  0
LINE
  8
0
 10
-10.272
 11
-10.668
 20
-30.108
 21
-29.424
  0
LINE
  8
0
 10
-10.668
 11
-9.876
 20
-29.424
 21
-29.424
  0
LINE
  8
0
 10
-9.876
 11
-9.48
 20
-29.424
 21
-28.74
  0
LINE
  8
0
 10
-9.48
 11
-9.876
 20
-28.74
 21
-28.056
  0
LINE
  8
0
 10
-9.876
 11
-10.668
 20
-28.056
 21
-28.056
  0
LINE
  8
0
 10
-10.668
 11
-10.272
 20
-28.056
 21
-27.372
  0
LINE
  8
0
 10
-10.272
 11
-10.668
 20
-27.372
 21
-26.688
  0
LINE
  8
0
 10
-10.668
 11
-9.876
 20
-26.688
 21
-26.688
  0
LINE
  8
0
 10
-9.876
 11
-9.48
 20
-26.688
 21
-26.004
  0
LINE
  8
0
 10
-9.48
 11
-9.088
 20
-26.004
 21
-26.688
  0
LINE
  8
0
 10
-9.088
 11
-8.296
 20
-26.688
 21
-26.688
  0
LINE
  8
0
 10
-8.296
 11
-7.9
 20
-26.688
 21
-26.004
  0
LINE
  8
0
 10
-7.9
 11
-8.296
 20
-26.004
 21
-25.316
  0
LINE
  8
0
 10
-8.296
 11
-7.508
 20
-25.316
 21
-25.316
  0
LINE
  8
0
 10
-7.508
 11
-7.112
 20
-25.316
 21
-24.632
  0
LINE
  8
0
 10
-7.112
 11
-7.508
 20
-24.632
 21
-23.948
  0
LINE
  8
0
 10
-7.508
 11
-8.296
 20
-23.948
 21
-23.948
  0
LINE
  8
0
 10
-8.296
 11
-7.9
 20
-23.948
 21
-23.264
  0
LINE
  8
0
 10
-7.9
 11
-8.296
 20
-23.264
 21
-22.58
  0
LINE
  8
0
 10
-8.296
 11
-9.088
 20
-22.58
 21
-22.58
  0
LINE
  8
0
 10
-9.088
 11
-9.48
 20
-22.58
 21
-23.264
  0
LINE
  8
0
 10
-9.48
 11
-9.876
 20
-23.264
 21
-22.58
  0
LINE
  8
0
 10
-9.876
 11
-10.668
 20
-22.58
 21
-22.58
  0
LINE
  8
0
 10
-10.668
 11
-10.272
 20
-22.58
 21
-21.896
  0
LINE
  8
0
 10
-10.272
 11
-10.668
 20
-21.896
 21
-21.212
  0
LINE
  8
0
 10
-10.668
 11
-9.876
 20
-21.212
 21
-21.212
  0
LINE
  8
0
 10
-9.876
 11
-9.48
 20
-21.212
 21
-20.528
  0
LINE
  8
0
 10
-9.48
 11
-9.876
 20
-20.528
 21
-19.844
  0
LINE
  8
0
 10
-9.876
 11
-10.668
 20
-19.844
 21
-19.844
  0
LINE
  8
0
 10
-10.668
 11
-10.272
 20
-19.844
 21
-19.16
  0
LINE
  8
0
 10
-10.272
 11
-10.668
 20
-19.16
 21
-18.476
  0
LINE
  8
0
 10
-10.668
 11
-11.456
 20
-18.476
 21
-18.476
  0
LINE
  8
0
 10
-11.456
 11
-11.852
 20
-18.476
 21
-19.16
  0
LINE
  8
0
 10
-11.852
 11
-12.248
 20
-19.16
 21
-18.476
  0
LINE
  8
0
 10
-12.248
 11
-13.036
 20
-18.476
 21
-18.476
  0
LINE
  8
0
 10
-13.036
 11
-13.432
 20
-18.476
 21
-19.16
  0
LINE
  8
0
 10
-13.432
 11
-13.036
 20
-19.16
 21
-19.844
  0
LINE
  8
0
 10
-13.036
 11
-13.828
 20
-19.844
 21
-19.844
  0
LINE
  8
0
 10
-13.828
 11
-14.224
 20
-19.844
 21
-20.528
  0
LINE
  8
0
 10
-14.224
 11
-14.616
 20
-20.528
 21
-19.844
  0
LINE
  8
0
 10
-14.616
 11
-15.408
 20
-19.844
 21
-19.844
  0
LINE
  8
0
 10
-15.408
 11
-15.012
 20
-19.844
 21
-19.16
  0
LINE
  8
0
 10
-15.012
 11
-15.408
 20
-19.16
 21
-18.476
  0
LINE
  8
0
 10
-15.408
 11
-16.196
 20
-18.476
 21
-18.476
  0
LINE
  8
0
 10
-16.196
 11
-16.592
 20
-18.476
 21
-19.16
  0
LINE
  8
0
 10
-16.592
 11
-16.988
 20
-19.16
 21
-18.476
  0
LINE
  8
0
 10
-16.988
 11
-17.776
 20
-18.476
 21
-18.476
  0
LINE
  8
0
 10
-17.776
 11
-18.172
 20
-18.476
 21
-19.16
  0
LINE
  8
0
 10
-18.172
 11
-17.776
 20
-19.16
 21
-19.844
  0
LINE
  8
0
 10
-17.776
 11
-18.568
 20
-19.844
 21
-19.844
  0
LINE
  8
0
 10
-18.568
 11
-18.964
 20
-19.844
 21
-20.528
  0
LINE
  8
0
 10
-18.964
 11
-18.568
 20
-20.528
 21
-21.212
  0
LINE
  8
0
 10
-18.568
 11
-17.776
 20
-21.212
 21
-21.212
  0
LINE
  8
0
 10
-17.776
 11
-18.172
 20
-21.212
 21
-21.896
  0
LINE
  8
0
 10
-18.172
 11
-17.776
 20
-21.896
 21
-22.58
  0
LINE
  8
0
 10
-17.776
 11
-18.568
 20
-22.58
 21
-22.58
  0
LINE
  8
0
 10
-18.568
 11
-18.964
 20
-22.58
 21
-23.264
  0
LINE
  8
0
 10
-18.964
 11
-19.36
 20
-23.264
 21
-22.58
  0
LINE
  8
0
 10
-19.36
 11
-20.148
 20
-22.58
 21
-22.58
  0
LINE
  8
0
 10
-20.148
 11
-20.544
 20
-22.58
 21
-23.264
  0
LINE
  8
0
 10
-20.544
 11
-20.148
 20
-23.264
 21
-23.948
  0
LINE
  8
0
 10
-20.148
 11
-20.94
 20
-23.948
 21
-23.948
  0
LINE
  8
0
 10
-20.94
 11
-21.332
 20
-23.948
 21
-24.632
  0
LINE
  8
0
 10
-21.332
 11
-21.728
 20
-24.632
 21
-23.948
  0
LINE
  8
0
 10
-21.728
 11
-22.52
 20
-23.948
 21
-23.948
  0
LINE
  8
0
 10
-22.52
 11
-22.124
 20
-23.948
 21
-23.264
  0
LINE
  8
0
 10
-22.124
 11
-22.52
 20
-23.264
 21
-22.58
  0
LINE
  8
0
 10
-22.52
 11
-23.308
 20
-22.58
 21
-22.58
  0
LINE
  8
0
 10
-23.308
 11
-23.704
 20
-22.58
 21
-23.264
  0
LINE
  8
0
 10
-23.704
 11
-24.1
 20
-23.264
 21
-22.58
  0
LINE
  8
0
 10
-24.1
 11
-24.888
 20
-22.58
 21
-22.58
  0
LINE
  8
0
 10
-24.888
 11
-24.492
 20
-22.58
 21
-21.896
  0
LINE
  8
0
 10
-24.492
 11
-24.888
 20
-21.896
 21
-21.212
  0
LINE
  8
0
 10
-24.888
 11
-24.1
 20
-21.212
 21
-21.212
  0
LINE
  8
0
 10
-24.1
 11
-23.704
 20
-21.212
 21
-20.528
  0
LINE
  8
0
 10
-23.704
 11
-24.1
 20
-20.528
 21
-19.844
  0
LINE
  8
0
 10
-24.1
 11
-24.888
 20
-19.844
 21
-19.844
  0
LINE
  8
0
 10
-24.888
 11
-24.492
 20
-19.844
 21
-19.16
  0
LINE
  8
0
 10
-24.492
 11
-24.888
 20
-19.16
 21
-18.476
  0
LINE
  8
0
 10
-24.888
 11
-25.68
 20
-18.476
 21
-18.476
  0
LINE
  8
0
 10
-25.68
 11
-26.076
 20
-18.476
 21
-19.16
  0
LINE
  8
0
 10
-26.076
 11
-26.468
 20
-19.16
 21
-18.476
  0
LINE
  8
0
 10
-26.468
 11
-27.26
 20
-18.476
 21
-18.476
  0
LINE
  8
0
 10
-27.26
 11
-27.656
 20
-18.476
 21
-19.16
  0
LINE
  8
0
 10
-27.656
 11
-27.26
 20
-19.16
 21
-19.844
  0
LINE
  8
0
 10
-27.26
 11
-28.048
 20
-19.844
 21
-19.844
  0
LINE
  8
0
 10
-28.048
 11
-28.444
 20
-19.844
 21
-20.528
  0
LINE
  8
0
 10
-28.444
 11
-28.84
 20
-20.528
 21
-19.844
  0
LINE
  8
0
 10
-28.84
 11
-29.628
 20
-19.844
 21
-19.844
  0
LINE
  8
0
 10
-29.628
 11
-29.236
 20
-19.844
 21
-19.16
  0
LINE
  8
0
 10
-29.236
 11
-29.628
 20
-19.16
 21
-18.476
  0
LINE
  8
0
 10
-29.628
 11
-30.42
 20
-18.476
 21
-18.476
  0
LINE
  8
0
 10
-30.42
 11
-30.816
 20
-18.476
 21
-19.16
  0
LINE
  8
0
 10
-30.816
 11
-31.208
 20
-19.16
 21
-18.476
  0
LINE
  8
0
 10
-31.208
 11
-32
 20
-18.476
 21
-18.476
  0
LINE
  8
0
 10
-24.076
 11
-24.003
 20
-13.9
 21
-13.845
  0
LINE
  8
0
 10
-24.003
 11
-23.816
 20
-13.845
 21
-13.655
  0
LINE
  8
0
 10
-23.816
 11
-23.576
 20
-13.655
 21
-13.308
  0
LINE
  8
0
 10
-23.576
 11
-23.344
 20
-13.308
 21
-12.808
  0
LINE
  8
0
 10
-23.344
 11
-23.178
 20
-12.808
 21
-12.187
  0
LINE
  8
0
 10
-23.178
 11
-23.118
 20
-12.187
 21
-11.5
  0
LINE
  8
0
 10
-23.118
 11
-23.179
 20
-11.5
 21
-10.813
  0
LINE
  8
0
 10
-23.179
 11
-23.343
 20
-10.813
 21
-10.192
  0
LINE
  8
0
 10
-23.343
 11
-23.575
 20
-10.192
 21
-9.692
  0
LINE
  8
0
 10
-23.575
 11
-23.817
 20
-9.692
 21
-9.344
  0
LINE
  8
0
 10
-23.817
 11
-24.003
 20
-9.344
 21
-9.154
  0
LINE
  8
0
 10
-24.003
 11
-24.076
 20
-9.154
 21
-9.1
  0
LINE
  8
0
 10
-24.076
 11
-23.992
 20
-9.1
 21
-9.136
  0
LINE
  8
0
 10
-23.992
 11
-23.735
 20
-9.136
 21
-9.202
  0
LINE
  8
0
 10
-23.735
 11
-23.313
 20
-9.202
 21
-9.237
  0
LINE
  8
0
 10
-23.313
 11
-22.763
 20
-9.237
 21
-9.187
  0
LINE
  8
0
 10
-22.763
 11
-22.144
 20
-9.187
 21
-9.02
  0
LINE
  8
0
 10
-22.144
 11
-21.519
 20
-9.02
 21
-8.729
  0
LINE
  8
0
 10
-21.519
 11
-20.954
 20
-8.729
 21
-8.333
  0
LINE
  8
0
 10
-20.954
 11
-20.499
 20
-8.333
 21
-7.88
  0
LINE
  8
0
 10
-20.499
 11
-20.181
 20
-7.88
 21
-7.429
  0
LINE
  8
0
 10
-20.181
 11
-20
 20
-7.429
 21
-7.046
  0
LINE
  8
0
 10
-20
 11
-19.929
 20
-7.046
 21
-6.79
  0
LINE
  8
0
 10
-19.929
 11
-19.919
 20
-6.79
 21
-6.7
  0
LINE
  8
0
 10
-19.919
 11
-19.908
 20
-6.7
 21
-6.79
  0
LINE
  8
0
 10
-19.908
 11
-19.836
 20
-6.79
 21
-7.046
  0
LINE
  8
0
 10
-19.836
 11
-19.656
 20
-7.046
 21
-7.429
  0
LINE
  8
0
 10
-19.656
 11
-19.339
 20
-7.429
 21
-7.88
  0
LINE
  8
0
 10
-19.339
 11
-18.883
 20
-7.88
 21
-8.333
  0
LINE
  8
0
 10
-18.883
 11
-18.319
 20
-8.333
 21
-8.729
  0
LINE
  8
0
 10
-18.319
 11
-17.694
 20
-8.729
 21
-9.021
  0
LINE
  8
0
 10
-17.694
 11
-17.074
 20
-9.021
 21
-9.188
  0
LINE
  8
0
 10
-17.074
 11
-16.524
 20
-9.188
 21
-9.237
  0
LINE
  8
0
 10
-16.524
 11
-16.103
 20
-9.237
 21
-9.202
  0
LINE
  8
0
 10
-16.103
 11
-15.845
 20
-9.202
 21
-9.135
  0
LINE
  8
0
 10
-15.845
 11
-15.762
 20
-9.135
 21
-9.1
  0
LINE
  8
0
 10
-15.762
 11
-15.834
 20
-9.1
 21
-9.155
  0
LINE
  8
0
 10
-15.834
 11
-16.021
 20
-9.155
 21
-9.345
  0
LINE
  8
0
 10
-16.021
 11
-16.261
 20
-9.345
 21
-9.692
  0
LINE
  8
0
 10
-16.261
 11
-16.494
 20
-9.692
 21
-10.192
  0
LINE
  8
0
 10
-16.494
 11
-16.659
 20
-10.192
 21
-10.813
  0
LINE
  8
0
 10
-16.659
 11
-16.719
 20
-10.813
 21
-11.5
  0
LINE
  8
0
 10
-16.719
 11
-16.658
 20
-11.5
 21
-12.187
  0
LINE
  8
0
 10
-16.658
 11
-16.494
 20
-12.187
 21
-12.808
  0
LINE
  8
0
 10
-16.494
 11
-16.262
 20
-12.808
 21
-13.308
  0
LINE
  8
0
 10
-16.262
 11
-16.02
 20
-13.308
 21
-13.656
  0
LINE
  8
0
 10
-16.02
 11
-15.834
 20
-13.656
 21
-13.846
  0
LINE
  8
0
 10
-15.834
 11
-15.762
 20
-13.846
 21
-13.9
  0
LINE
  8
0
 10
-15.762
 11
-15.845
 20
-13.9
 21
-13.864
  0
LINE
  8
0
 10
-15.845
 11
-16.102
 20
-13.864
 21
-13.798
  0
LINE
  8
0
 10
-16.102
 11
-16.524
 20
-13.798
 21
-13.763
  0
LINE
  8
0
 10
-16.524
 11
-17.074
 20
-13.763
 21
-13.813
  0
LINE
  8
0
 10
-17.074
 11
-17.694
 20
-13.813
 21
-13.98
  0
LINE
  8
0
 10
-17.694
 11
-18.319
 20
-13.98
 21
-14.271
  0
LINE
  8
0
 10
-18.319
 11
-18.884
 20
-14.271
 21
-14.667
  0
LINE
  8
0
 10
-18.884
 11
-19.338
 20
-14.667
 21
-15.12
  0
LINE
  8
0
 10
-19.338
 11
-19.656
 20
-15.12
 21
-15.571
  0
LINE
  8
0
 10
-19.656
 11
-19.837
 20
-15.571
 21
-15.954
  0
LINE
  8
0
 10
-19.837
 11
-19.908
 20
-15.954
 21
-16.21
  0
LINE
  8
0
 10
-19.908
 11
-19.919
 20
-16.21
 21
-16.3
  0
LINE
  8
0
 10
-19.919
 11
-19.929
 20
-16.3
 21
-16.21
  0
LINE
  8
0
 10
-19.929
 11
-20.001
 20
-16.21
 21
-15.954
  0
LINE
  8
0
 10
-20.001
 11
-20.181
 20
-15.954
 21
-15.571
  0
LINE
  8
0
 10
-20.181
 11
-20.498
 20
-15.571
 21
-15.12
  0
LINE
  8
0
 10
-20.498
 11
-20.954
 20
-15.12
 21
-14.667
  0
LINE
  8
0
 10
-20.954
 11
-21.518
 20
-14.667
 21
-14.271
  0
LINE
  8
0
 10
-21.518
 11
-22.143
 20
-14.271
 21
-13.979
  0
LINE
  8
0
 10
-22.143
 11
-22.764
 20
-13.979
 21
-13.812
  0
LINE
  8
0
 10
-22.764
 11
-23.313
 20
-13.812
 21
-13.763
  0
LINE
  8
0
 10
-23.313
 11
-23.734
 20
-13.763
 21
-13.798
  0
LINE
  8
0
 10
-23.734
 11
-23.992
 20
-13.798
 21
-13.865
  0
LINE
  8
0
 10
-23.992
 11
-24.076
 20
-13.865
 21
-13.9
  0
LINE
  8
0
 10
-24.076
 11
-24.003
 20
9.1
 21
9.155
  0
LINE
  8
0
 10
-24.003
 11
-23.816
 20
9.155
 21
9.345
  0
LINE
  8
0
 10
-23.816
 11
-23.576
 20
9.345
 21
9.693
  0
LINE
  8
0
 10
-23.576
 11
-23.344
 20
9.693
 21
10.193
  0
LINE
  8
0
 10
-23.344
 11
-23.178
 20
10.193
 21
10.814
  0
LINE
  8
0
 10
-23.178
 11
-23.119
 20
10.814
 21
11.501
  0
LINE
  8
0
 10
-23.119
 11
-23.179
 20
11.501
 21
12.187
  0
LINE
  8
0
 10
-23.179
 11
-23.344
 20
12.187
 21
12.808
  0
LINE
  8
0
 10
-23.344
 11
-23.576
 20
12.808
 21
13.308
  0
LINE
  8
0
 10
-23.576
 11
-23.817
 20
13.308
 21
13.656
  0
LINE
  8
0
 10
-23.817
 11
-24.003
 20
13.656
 21
13.847
  0
LINE
  8
0
 10
-24.003
 11
-24.076
 20
13.847
 21
13.9
  0
LINE
  8
0
 10
-24.076
 11
-23.992
 20
13.9
 21
13.864
  0
LINE
  8
0
 10
-23.992
 11
-23.735
 20
13.864
 21
13.798
  0
LINE
  8
0
 10
-23.735
 11
-23.313
 20
13.798
 21
13.763
  0
LINE
  8
0
 10
-23.313
 11
-22.763
 20
13.763
 21
13.813
  0
LINE
  8
0
 10
-22.763
 11
-22.144
 20
13.813
 21
13.98
  0
LINE
  8
0
 10
-22.144
 11
-21.519
 20
13.98
 21
14.272
  0
LINE
  8
0
 10
-21.519
 11
-20.954
 20
14.272
 21
14.667
  0
LINE
  8
0
 10
-20.954
 11
-20.499
 20
14.667
 21
15.12
  0
LINE
  8
0
 10
-20.499
 11
-20.182
 20
15.12
 21
15.571
  0
LINE
  8
0
 10
-20.182
 11
-20.001
 20
15.571
 21
15.954
  0
LINE
  8
0
 10
-20.001
 11
-19.929
 20
15.954
 21
16.21
  0
LINE
  8
0
 10
-19.929
 11
-19.919
 20
16.21
 21
16.3
  0
LINE
  8
0
 10
-19.919
 11
-19.909
 20
16.3
 21
16.211
  0
LINE
  8
0
 10
-19.909
 11
-19.837
 20
16.211
 21
15.954
  0
LINE
  8
0
 10
-19.837
 11
-19.656
 20
15.954
 21
15.571
  0
LINE
  8
0
 10
-19.656
 11
-19.339
 20
15.571
 21
15.12
  0
LINE
  8
0
 10
-19.339
 11
-18.884
 20
15.12
 21
14.667
  0
LINE
  8
0
 10
-18.884
 11
-18.319
 20
14.667
 21
14.272
  0
LINE
  8
0
 10
-18.319
 11
-17.694
 20
14.272
 21
13.98
  0
LINE
  8
0
 10
-17.694
 11
-17.074
 20
13.98
 21
13.813
  0
LINE
  8
0
 10
-17.074
 11
-16.525
 20
13.813
 21
13.764
  0
LINE
  8
0
 10
-16.525
 11
-16.103
 20
13.764
 21
13.798
  0
LINE
  8
0
 10
-16.103
 11
-15.845
 20
13.798
 21
13.865
  0
LINE
  8
0
 10
-15.845
 11
-15.762
 20
13.865
 21
13.9
  0
LINE
  8
0
 10
-15.762
 11
-15.834
 20
13.9
 21
13.846
  0
LINE
  8
0
 10
-15.834
 11
-16.021
 20
13.846
 21
13.656
  0
LINE
  8
0
 10
-16.021
 11
-16.262
 20
13.656
 21
13.308
  0
LINE
  8
0
 10
-16.262
 11
-16.494
 20
13.308
 21
12.808
  0
LINE
  8
0
 10
-16.494
 11
-16.659
 20
12.808
 21
12.187
  0
LINE
  8
0
 10
-16.659
 11
-16.719
 20
12.187
 21
11.5
  0
LINE
  8
0
 10
-16.719
 11
-16.659
 20
11.5
 21
10.813
  0
LINE
  8
0
 10
-16.659
 11
-16.494
 20
10.813
 21
10.193
  0
LINE
  8
0
 10
-16.494
 11
-16.262
 20
10.193
 21
9.693
  0
LINE
  8
0
 10
-16.262
 11
-16.021
 20
9.693
 21
9.345
  0
LINE
  8
0
 10
-16.021
 11
-15.835
 20
9.345
 21
9.154
  0
LINE
  8
0
 10
-15.835
 11
-15.762
 20
9.154
 21
9.1
  0
LINE
  8
0
 10
-15.762
 11
-15.845
 20
9.1
 21
9.137
  0
LINE
  8
0
 10
-15.845
 11
-16.103
 20
9.137
 21
9.203
  0
LINE
  8
0
 10
-16.103
 11
-16.525
 20
9.203
 21
9.237
  0
LINE
  8
0
 10
-16.525
 11
-17.074
 20
9.237
 21
9.188
  0
LINE
  8
0
 10
-17.074
 11
-17.694
 20
9.188
 21
9.021
  0
LINE
  8
0
 10
-17.694
 11
-18.319
 20
9.021
 21
8.729
  0
LINE
  8
0
 10
-18.319
 11
-18.884
 20
8.729
 21
8.334
  0
LINE
  8
0
 10
-18.884
 11
-19.338
 20
8.334
 21
7.881
  0
LINE
  8
0
 10
-19.338
 11
-19.656
 20
7.881
 21
7.429
  0
LINE
  8
0
 10
-19.656
 11
-19.837
 20
7.429
 21
7.047
  0
LINE
  8
0
 10
-19.837
 11
-19.908
 20
7.047
 21
6.791
  0
LINE
  8
0
 10
-19.908
 11
-19.919
 20
6.791
 21
6.7
  0
LINE
  8
0
 10
-19.919
 11
-19.929
 20
6.7
 21
6.79
  0
LINE
  8
0
 10
-19.929
 11
-20.001
 20
6.79
 21
7.047
  0
LINE
  8
0
 10
-20.001
 11
-20.182
 20
7.047
 21
7.43
  0
LINE
  8
0
 10
-20.182
 11
-20.499
 20
7.43
 21
7.881
  0
LINE
  8
0
 10
-20.499
 11
-20.954
 20
7.881
 21
8.333
  0
LINE
  8
0
 10
-20.954
 11
-21.519
 20
8.333
 21
8.729
  0
LINE
  8
0
 10
-21.519
 11
-22.143
 20
8.729
 21
9.021
  0
LINE
  8
0
 10
-22.143
 11
-22.764
 20
9.021
 21
9.188
  0
LINE
  8
0
 10
-22.764
 11
-23.313
 20
9.188
 21
9.237
  0
LINE
  8
0
 10
-23.313
 11
-23.734
 20
9.237
 21
9.203
  0
LINE
  8
0
 10
-23.734
 11
-23.992
 20
9.203
 21
9.136
  0
LINE
  8
0
 10
-23.992
 11
-24.076
 20
9.136
 21
9.1
  0
LINE
  8
0
 10
-19.32
 11
-19.239
 20
0
 21
0.009
  0
LINE
  8
0
 10
-19.239
 11
-19.008
 20
0.009
 21
0.074
  0
LINE
  8
0
 10
-19.008
 11
-18.664
 20
0.074
 21
0.236
  0
LINE
  8
0
 10
-18.664
 11
-18.258
 20
0.236
 21
0.522
  0
LINE
  8
0
 10
-18.258
 11
-17.85
 20
0.522
 21
0.932
  0
LINE
  8
0
 10
-17.85
 11
-17.494
 20
0.932
 21
1.44
  0
LINE
  8
0
 10
-17.494
 11
-17.232
 20
1.44
 21
2.002
  0
LINE
  8
0
 10
-17.232
 11
-17.081
 20
2.002
 21
2.56
  0
LINE
  8
0
 10
-17.081
 11
-17.036
 20
2.56
 21
3.055
  0
LINE
  8
0
 10
-17.036
 11
-17.068
 20
3.055
 21
3.434
  0
LINE
  8
0
 10
-17.068
 11
-17.128
 20
3.434
 21
3.666
  0
LINE
  8
0
 10
-17.128
 11
-17.16
 20
3.666
 21
3.741
  0
LINE
  8
0
 10
-17.16
 11
-17.111
 20
3.741
 21
3.676
  0
LINE
  8
0
 10
-17.111
 11
-16.94
 20
3.676
 21
3.508
  0
LINE
  8
0
 10
-16.94
 11
-16.627
 20
3.508
 21
3.291
  0
LINE
  8
0
 10
-16.627
 11
-16.177
 20
3.291
 21
3.083
  0
LINE
  8
0
 10
-16.177
 11
-15.618
 20
3.083
 21
2.934
  0
LINE
  8
0
 10
-15.618
 11
-15
 20
2.934
 21
2.88
  0
LINE
  8
0
 10
-15
 11
-14.382
 20
2.88
 21
2.934
  0
LINE
  8
0
 10
-14.382
 11
-13.823
 20
2.934
 21
3.083
  0
LINE
  8
0
 10
-13.823
 11
-13.373
 20
3.083
 21
3.291
  0
LINE
  8
0
 10
-13.373
 11
-13.06
 20
3.291
 21
3.508
  0
LINE
  8
0
 10
-13.06
 11
-12.889
 20
3.508
 21
3.676
  0
LINE
  8
0
 10
-12.889
 11
-12.84
 20
3.676
 21
3.741
  0
LINE
  8
0
 10
-12.84
 11
-12.872
 20
3.741
 21
3.666
  0
LINE
  8
0
 10
-12.872
 11
-12.932
 20
3.666
 21
3.434
  0
LINE
  8
0
 10
-12.932
 11
-12.964
 20
3.434
 21
3.055
  0
LINE
  8
0
 10
-12.964
 11
-12.919
 20
3.055
 21
2.56
  0
LINE
  8
0
 10
-12.919
 11
-12.768
 20
2.56
 21
2.002
  0
LINE
  8
0
 10
-12.768
 11
-12.506
 20
2.002
 21
1.44
  0
LINE
  8
0
 10
-12.506
 11
-12.15
 20
1.44
 21
0.932
  0
LINE
  8
0
 10
-12.15
 11
-11.742
 20
0.932
 21
0.522
  0
LINE
  8
0
 10
-11.742
 11
-11.336
 20
0.522
 21
0.236
  0
LINE
  8
0
 10
-11.336
 11
-10.992
 20
0.236
 21
0.074
  0
LINE
  8
0
 10
-10.992
 11
-10.761
 20
0.074
 21
0.009
  0
LINE
  8
0
 10
-10.761
 11
-10.68
 20
0.009
 21
0
  0
LINE
  8
0
 10
-10.68
 11
-10.761
 20
0
 21
-0.009
  0
LINE
  8
0
 10
-10.761
 11
-10.992
 20
-0.009
 21
-0.074
  0
LINE
  8
0
 10
-10.992
 11
-11.336
 20
-0.074
 21
-0.236
  0
LINE
  8
0
 10
-11.336
 11
-11.742
 20
-0.236
 21
-0.522
  0
LINE
  8
0
 10
-11.742
 11
-12.15
 20
-0.522
 21
-0.932
  0
LINE
  8
0
 10
-12.15
 11
-12.506
 20
-0.932
 21
-1.44
  0
LINE
  8
0
 10
-12.506
 11
-12.768
 20
-1.44
 21
-2.002
  0
LINE
  8
0
 10
-12.768
 11
-12.919
 20
-2.002
 21
-2.56
  0
LINE
  8
0
 10
-12.919
 11
-12.964
 20
-2.56
 21
-3.055
  0
LINE
  8
0
 10
-12.964
 11
-12.932
 20
-3.055
 21
-3.434
  0
LINE
  8
0
 10
-12.932
 11
-12.872
 20
-3.434
 21
-3.666
  0
LINE
  8
0
 10
-12.872
 11
-12.84
 20
-3.666
 21
-3.741
  0
LINE
  8
0
 10
-12.84
 11
-12.889
 20
-3.741
 21
-3.676
  0
LINE
  8
0
 10
-12.889
 11
-13.06
 20
-3.676
 21
-3.508
  0
LINE
  8
0
 10
-13.06
 11
-13.373
 20
-3.508
 21
-3.291
  0
LINE
  8
0
 10
-13.373
 11
-13.823
 20
-3.291
 21
-3.083
  0
LINE
  8
0
 10
-13.823
 11
-14.382
 20
-3.083
 21
-2.934
  0
LINE
  8
0
 10
-14.382
 11
-15
 20
-2.934
 21
-2.88
  0
LINE
  8
0
 10
-15
 11
-15.618
 20
-2.88
 21
-2.934
  0
LINE
  8
0
 10
-15.618
 11
-16.177
 20
-2.934
 21
-3.083
  0
LINE
  8
0
 10
-16.177
 11
-16.627
 20
-3.083
 21
-3.291
  0
LINE
  8
0
 10
-16.627
 11
-16.94
 20
-3.291
 21
-3.508
  0
LINE
  8
0
 10
-16.94
 11
-17.111
 20
-3.508
 21
-3.676
  0
LINE
  8
0
 10
-17.111
 11
-17.16
 20
-3.676
 21
-3.741
  0
LINE
  8
0
 10
-17.16
 11
-17.128
 20
-3.741
 21
-3.666
  0
LINE
  8
0
 10
-17.128
 11
-17.068
 20
-3.666
 21
-3.434
  0
LINE
  8
0
 10
-17.068
 11
-17.036
 20
-3.434
 21
-3.055
  0
LINE
  8
0
 10
-17.036
 11
-17.081
 20
-3.055
 21
-2.56
  0
LINE
  8
0
 10
-17.081
 11
-17.232
 20
-2.56
 21
-2.002
  0
LINE
  8
0
 10
-17.232
 11
-17.494
 20
-2.002
 21
-1.44
  0
LINE
  8
0
 10
-17.494
 11
-17.85
 20
-1.44
 21
-0.932
  0
LINE
  8
0
 10
-17.85
 11
-18.258
 20
-0.932
 21
-0.522
  0
LINE
  8
0
 10
-18.258
 11
-18.664
 20
-0.522
 21
-0.236
  0
LINE
  8
0
 10
-18.664
 11
-19.008
 20
-0.236
 21
-0.074
  0
LINE
  8
0
 10
-19.008
 11
-19.239
 20
-0.074
 21
-0.009
  0
LINE
  8
0
 10
-19.239
 11
-19.32
 20
-0.009
 21
0
  0
LINE
  8
0
 10
-11.82
 11
-11.739
 20
-12.99
 21
-12.981
  0
LINE
  8
0
 10
-11.739
 11
-11.508
 20
-12.981
 21
-12.916
  0
LINE
  8
0
 10
-11.508
 11
-11.164
 20
-12.916
 21
-12.754
  0
LINE
  8
0
 10
-11.164
 11
-10.758
 20
-12.754
 21
-12.468
  0
LINE
  8
0
 10
-10.758
 11
-10.35
 20
-12.468
 21
-12.058
  0
LINE
  8
0
 10
-10.35
 11
-9.994
 20
-12.058
 21
-11.55
  0
LINE
  8
0
 10
-9.994
 11
-9.732
 20
-11.55
 21
-10.988
  0
LINE
  8
0
 10
-9.732
 11
-9.581
 20
-10.988
 21
-10.43
  0
LINE
  8
0
 10
-9.581
 11
-9.536
 20
-10.43
 21
-9.935
  0
LINE
  8
0
 10
-9.536
 11
-9.568
 20
-9.935
 21
-9.556
  0
LINE
  8
0
 10
-9.568
 11
-9.628
 20
-9.556
 21
-9.324
  0
LINE
  8
0
 10
-9.628
 11
-9.66
 20
-9.324
 21
-9.249
  0
LINE
  8
0
 10
-9.66
 11
-9.611
 20
-9.249
 21
-9.314
  0
LINE
  8
0
 10
-9.611
 11
-9.44
 20
-9.314
 21
-9.482
  0
LINE
  8
0
 10
-9.44
 11
-9.127
 20
-9.482
 21
-9.699
  0
LINE
  8
0
 10
-9.127
 11
-8.677
 20
-9.699
 21
-9.907
  0
LINE
  8
0
 10
-8.677
 11
-8.118
 20
-9.907
 21
-10.056
  0
LINE
  8
0
 10
-8.118
 11
-7.5
 20
-10.056
 21
-10.11
  0
LINE
  8
0
 10
-7.5
 11
-6.882
 20
-10.11
 21
-10.056
  0
LINE
  8
0
 10
-6.882
 11
-6.323
 20
-10.056
 21
-9.907
  0
LINE
  8
0
 10
-6.323
 11
-5.873
 20
-9.907
 21
-9.699
  0
LINE
  8
0
 10
-5.873
 11
-5.56
 20
-9.699
 21
-9.482
  0
LINE
  8
0
 10
-5.56
 11
-5.389
 20
-9.482
 21
-9.314
  0
LINE
  8
0
 10
-5.389
 11
-5.34
 20
-9.314
 21
-9.249
  0
LINE
  8
0
 10
-5.34
 11
-5.372
 20
-9.249
 21
-9.324
  0
LINE
  8
0
 10
-5.372
 11
-5.432
 20
-9.324
 21
-9.556
  0
LINE
  8
0
 10
-5.432
 11
-5.464
 20
-9.556
 21
-9.935
  0
LINE
  8
0
 10
-5.464
 11
-5.419
 20
-9.935
 21
-10.43
  0
LINE
  8
0
 10
-5.419
 11
-5.268
 20
-10.43
 21
-10.988
  0
LINE
  8
0
 10
-5.268
 11
-5.006
 20
-10.988
 21
-11.55
  0
LINE
  8
0
 10
-5.006
 11
-4.65
 20
-11.55
 21
-12.058
  0
LINE
  8
0
 10
-4.65
 11
-4.242
 20
-12.058
 21
-12.468
  0
LINE
  8
0
 10
-4.242
 11
-3.836
 20
-12.468
 21
-12.754
  0
LINE
  8
0
 10
-3.836
 11
-3.492
 20
-12.754
 21
-12.916
  0
LINE
  8
0
 10
-3.492
 11
-3.261
 20
-12.916
 21
-12.981
  0
LINE
  8
0
 10
-3.261
 11
-3.18
 20
-12.981
 21
-12.99
  0
LINE
  8
0
 10
-3.18
 11
-3.261
 20
-12.99
 21
-12.999
  0
LINE
  8
0
 10
-3.261
 11
-3.492
 20
-12.999
 21
-13.064
  0
LINE
  8
0
 10
-3.492
 11
-3.836
 20
-13.064
 21
-13.226
  0
LINE
  8
0
 10
-3.836
 11
-4.242
 20
-13.226
 21
-13.512
  0
LINE
  8
0
 10
-4.242
 11
-4.65
 20
-13.512
 21
-13.922
  0
LINE
  8
0
 10
-4.65
 11
-5.006
 20
-13.922
 21
-14.43
  0
LINE
  8
0
 10
-5.006
 11
-5.268
 20
-14.43
 21
-14.992
  0
LINE
  8
0
 10
-5.268
 11
-5.419
 20
-14.992
 21
-15.55
  0
LINE
  8
0
 10
-5.419
 11
-5.464
 20
-15.55
 21
-16.045
  0
LINE
  8
0
 10
-5.464
 11
-5.432
 20
-16.045
 21
-16.424
  0
LINE
  8
0
 10
-5.432
 11
-5.372
 20
-16.424
 21
-16.656
  0
LINE
  8
0
 10
-5.372
 11
-5.34
 20
-16.656
 21
-16.731
  0
LINE
  8
0
 10
-5.34
 11
-5.389
 20
-16.731
 21
-16.666
  0
LINE
  8
0
 10
-5.389
 11
-5.56
 20
-16.666
 21
-16.498
  0
LINE
  8
0
 10
-5.56
 11
-5.873
 20
-16.498
 21
-16.281
  0
LINE
  8
0
 10
-5.873
 11
-6.323
 20
-16.281
 21
-16.073
  0
LINE
  8
0
 10
-6.323
 11
-6.882
 20
-16.073
 21
-15.924
  0
LINE
  8
0
 10
-6.882
 11
-7.5
 20
-15.924
 21
-15.87
  0
LINE
  8
0
 10
-7.5
 11
-8.118
 20
-15.87
 21
-15.924
  0
LINE
  8
0
 10
-8.118
 11
-8.677
 20
-15.924
 21
-16.073
  0
LINE
  8
0
 10
-8.677
 11
-9.127
 20
-16.073
 21
-16.281
  0
LINE
  8
0
 10
-9.127
 11
-9.44
 20
-16.281
 21
-16.498
  0
LINE
  8
0
 10
-9.44
 11
-9.611
 20
-16.498
 21
-16.666
  0
LINE
  8
0
 10
-9.611
 11
-9.66
 20
-16.666
 21
-16.731
  0
LINE
  8
0
 10
-9.66
 11
-9.628
 20
-16.731
 21
-16.656
  0
LINE
  8
0
 10
-9.628
 11
-9.568
 20
-16.656
 21
-16.424
  0
LINE
  8
0
 10
-9.568
 11
-9.536
 20
-16.424
 21
-16.045
  0
LINE
  8
0
 10
-9.536
 11
-9.581
 20
-16.045
 21
-15.55
  0
LINE
  8
0
 10
-9.581
 11
-9.732
 20
-15.55
 21
-14.992
  0
LINE
  8
0
 10
-9.732
 11
-9.994
 20
-14.992
 21
-14.43
  0
LINE
  8
0
 10
-9.994
 11
-10.35
 20
-14.43
 21
-13.922
  0
LINE
  8
0
 10
-10.35
 11
-10.758
 20
-13.922
 21
-13.512
  0
LINE
  8
0
 10
-10.758
 11
-11.164
 20
-13.512
 21
-13.226
  0
LINE
  8
0
 10
-11.164
 11
-11.508
 20
-13.226
 21
-13.064
  0
LINE
  8
0
 10
-11.508
 11
-11.739
 20
-13.064
 21
-12.999
  0
LINE
  8
0
 10
-11.739
 11
-11.82
 20
-12.999
 21
-12.99
  0
LINE
  8
0
 10
-11.82
 11
-11.739
 20
12.99
 21
12.999
  0
LINE
  8
0
 10
-11.739
 11
-11.508
 20
12.999
 21
13.064
  0
LINE
  8
0
 10
-11.508
 11
-11.164
 20
13.064
 21
13.226
  0
LINE
  8
0
 10
-11.164
 11
-10.758
 20
13.226
 21
13.512
  0
LINE
  8
0
 10
-10.758
 11
-10.35
 20
13.512
 21
13.922
  0
LINE
  8
0
 10
-10.35
 11
-9.994
 20
13.922
 21
14.43
  0
LINE
  8
0
 10
-9.994
 11
-9.732
 20
14.43
 21
14.992
  0
LINE
  8
0
 10
-9.732
 11
-9.581
 20
14.992
 21
15.55
  0
LINE
  8
0
 10
-9.581
 11
-9.536
 20
15.55
 21
16.045
  0
LINE
  8
0
 10
-9.536
 11
-9.568
 20
16.045
 21
16.424
  0
LINE
  8
0
 10
-9.568
 11
-9.628
 20
16.424
 21
16.656
  0
LINE
  8
0
 10
-9.628
 11
-9.66
 20
16.656
 21
16.731
  0
LINE
  8
0
 10
-9.66
 11
-9.611
 20
16.731
 21
16.666
  0
LINE
  8
0
 10
-9.611
 11
-9.44
 20
16.666
 21
16.498
  0
LINE
  8
0
 10
-9.44
 11
-9.127
 20
16.498
 21
16.281
  0
LINE
  8
0
 10
-9.127
 11
-8.677
 20
16.281
 21
16.073
  0
LINE
  8
0
 10
-8.677
 11
-8.118
 20
16.073
 21
15.924
  0
LINE
  8
0
 10
-8.118
 11
-7.5
 20
15.924
 21
15.87
  0
LINE
  8
0
 10
-7.5
 11
-6.882
 20
15.87
 21
15.924
  0
LINE
  8
0
 10
-6.882
 11
-6.323
 20
15.924
 21
16.073
  0
LINE
  8
0
 10
-6.323
 11
-5.873
 20
16.073
 21
16.281
  0
LINE
  8
0
 10
-5.873
 11
-5.56
 20
16.281
 21
16.498
  0
LINE
  8
0
 10
-5.56
 11
-5.389
 20
16.498
 21
16.666
  0
LINE
  8
0
 10
-5.389
 11
-5.34
 20
16.666
 21
16.731
  0
LINE
  8
0
 10
-5.34
 11
-5.372
 20
16.731
 21
16.656
  0
LINE
  8
0
 10
-5.372
 11
-5.432
 20
16.656
 21
16.424
  0
LINE
  8
0
 10
-5.432
 11
-5.464
 20
16.424
 21
16.045
  0
LINE
  8
0
 10
-5.464
 11
-5.419
 20
16.045
 21
15.55
  0
LINE
  8
0
 10
-5.419
 11
-5.268
 20
15.55
 21
14.992
  0
LINE
  8
0
 10
-5.268
 11
-5.006
 20
14.992
 21
14.43
  0
LINE
  8
0
 10
-5.006
 11
-4.65
 20
14.43
 21
13.922
  0
LINE
  8
0
 10
-4.65
 11
-4.242
 20
13.922
 21
13.512
  0
LINE
  8
0
 10
-4.242
 11
-3.836
 20
13.512
 21
13.226
  0
LINE
  8
0
 10
-3.836
 11
-3.492
 20
13.226
 21
13.064
  0
LINE
  8
0
 10
-3.492
 11
-3.261
 20
13.064
 21
12.999
  0
LINE
  8
0
 10
-3.261
 11
-3.18
 20
12.999
 21
12.99
  0
LINE
  8
0
 10
-3.18
 11
-3.261
 20
12.99
 21
12.981
  0
LINE
  8
0
 10
-3.261
 11
-3.492
 20
12.981
 21
12.916
  0
LINE
  8
0
 10
-3.492
 11
-3.836
 20
12.916
 21
12.754
  0
LINE
  8
0
 10
-3.836
 11
-4.242
 20
12.754
 21
12.468
  0
LINE
  8
0
 10
-4.242
 11
-4.65
 20
12.468
 21
12.058
  0
LINE
  8
0
 10
-4.65
 11
-5.006
 20
12.058
 21
11.55
  0
LINE
  8
0
 10
-5.006
 11
-5.268
 20
11.55
 21
10.988
  0
LINE
  8
0
 10
-5.268
 11
-5.419
 20
10.988
 21
10.43
  0
LINE
  8
0
 10
-5.419
 11
-5.464
 20
10.43
 21
9.935
  0
LINE
  8
0
 10
-5.464
 11
-5.432
 20
9.935
 21
9.556
  0
LINE
  8
0
 10
-5.432
 11
-5.372
 20
9.556
 21
9.324
  0
LINE
  8
0
 10
-5.372
 11
-5.34
 20
9.324
 21
9.249
  0
LINE
  8
0
 10
-5.34
 11
-5.389
 20
9.249
 21
9.314
  0
LINE
  8
0
 10
-5.389
 11
-5.56
 20
9.314
 21
9.482
  0
LINE
  8
0
 10
-5.56
 11
-5.873
 20
9.482
 21
9.699
  0
LINE
  8
0
 10
-5.873
 11
-6.323
 20
9.699
 21
9.907
  0
LINE
  8
0
 10
-6.323
 11
-6.882
 20
9.907
 21
10.056
  0
LINE
  8
0
 10
-6.882
 11
-7.5
 20
10.056
 21
10.11
  0
LINE
  8
0
 10
-7.5
 11
-8.118
 20
10.11
 21
10.056
  0
LINE
  8
0
 10
-8.118
 11
-8.677
 20
10.056
 21
9.907
  0
LINE
  8
0
 10
-8.677
 11
-9.127
 20
9.907
 21
9.699
  0
LINE
  8
0
 10
-9.127
 11
-9.44
 20
9.699
 21
9.482
  0
LINE
  8
0
 10
-9.44
 11
-9.611
 20
9.482
 21
9.314
  0
LINE
  8
0
 10
-9.611
 11
-9.66
 20
9.314
 21
9.249
  0
LINE
  8
0
 10
-9.66
 11
-9.628
 20
9.249
 21
9.324
  0
LINE
  8
0
 10
-9.628
 11
-9.568
 20
9.324
 21
9.556
  0
LINE
  8
0
 10
-9.568
 11
-9.536
 20
9.556
 21
9.935
  0
LINE
  8
0
 10
-9.536
 11
-9.581
 20
9.935
 21
10.43
  0
LINE
  8
0
 10
-9.581
 11
-9.732
 20
10.43
 21
10.988
  0
LINE
  8
0
 10
-9.732
 11
-9.994
 20
10.988
 21
11.55
  0
LINE
  8
0
 10
-9.994
 11
-10.35
 20
11.55
 21
12.058
  0
LINE
  8
0
 10
-10.35
 11
-10.758
 20
12.058
 21
12.468
  0
LINE
  8
0
 10
-10.758
 11
-11.164
 20
12.468
 21
12.754
  0
LINE
  8
0
 10
-11.164
 11
-11.508
 20
12.754
 21
12.916
  0
LINE
  8
0
 10
-11.508
 11
-11.739
 20
12.916
 21
12.981
  0
LINE
  8
0
 10
-11.739
 11
-11.82
 20
12.981
 21
12.99
  0
LINE
  8
0
 10
-8
 11
-7.901
 20
-4.619
 21
-4.448
  0
LINE
  8
0
 10
-7.901
 11
-8
 20
-4.448
 21
-4.277
  0
LINE
  8
0
 10
-8
 11
-7.802
 20
-4.277
 21
-4.277
  0
LINE
  8
0
 10
-7.802
 11
-7.704
 20
-4.277
 21
-4.106
  0
LINE
  8
0
 10
-7.704
 11
-7.802
 20
-4.106
 21
-3.935
  0
LINE
  8
0
 10
-7.802
 11
-8
 20
-3.935
 21
-3.935
  0
LINE
  8
0
 10
-8
 11
-7.901
 20
-3.935
 21
-3.763
  0
LINE
  8
0
 10
-7.901
 11
-8
 20
-3.763
 21
-3.592
  0
LINE
  8
0
 10
-8
 11
-7.802
 20
-3.592
 21
-3.592
  0
LINE
  8
0
 10
-7.802
 11
-7.704
 20
-3.592
 21
-3.421
  0
LINE
  8
0
 10
-7.704
 11
-7.605
 20
-3.421
 21
-3.592
  0
LINE
  8
0
 10
-7.605
 11
-7.407
 20
-3.592
 21
-3.592
  0
LINE
  8
0
 10
-7.407
 11
-7.309
 20
-3.592
 21
-3.421
  0
LINE
  8
0
 10
-7.309
 11
-7.407
 20
-3.421
 21
-3.25
  0
LINE
  8
0
 10
-7.407
 11
-7.21
 20
-3.25
 21
-3.25
  0
LINE
  8
0
 10
-7.21
 11
-7.111
 20
-3.25
 21
-3.079
  0
LINE
  8
0
 10
-7.111
 11
-7.21
 20
-3.079
 21
-2.908
  0
LINE
  8
0
 10
-7.21
 11
-7.407
 20
-2.908
 21
-2.908
  0
LINE
  8
0
 10
-7.407
 11
-7.309
 20
-2.908
 21
-2.737
  0
LINE
  8
0
 10
-7.309
 11
-7.407
 20
-2.737
 21
-2.566
  0
LINE
  8
0
 10
-7.407
 11
-7.605
 20
-2.566
 21
-2.566
  0
LINE
  8
0
 10
-7.605
 11
-7.704
 20
-2.566
 21
-2.737
  0
LINE
  8
0
 10
-7.704
 11
-7.802
 20
-2.737
 21
-2.566
  0
LINE
  8
0
 10
-7.802
 11
-8
 20
-2.566
 21
-2.566
  0
LINE
  8
0
 10
-8
 11
-7.901
 20
-2.566
 21
-2.395
  0
LINE
  8
0
 10
-7.901
 11
-8
 20
-2.395
 21
-2.224
  0
LINE
  8
0
 10
-8
 11
-7.802
 20
-2.224
 21
-2.224
  0
LINE
  8
0
 10
-7.802
 11
-7.704
 20
-2.224
 21
-2.053
  0
LINE
  8
0
 10
-7.704
 11
-7.802
 20
-2.053
 21
-1.882
  0
LINE
  8
0
 10
-7.802
 11
-8
 20
-1.882
 21
-1.882
  0
LINE
  8
0
 10
-8
 11
-7.901
 20
-1.882
 21
-1.711
  0
LINE
  8
0
 10
-7.901
 11
-8
 20
-1.711
 21
-1.54
  0
LINE
  8
0
 10
-8
 11
-7.802
 20
-1.54
 21
-1.54
  0
LINE
  8
0
 10
-7.802
 11
-7.704
 20
-1.54
 21
-1.369
  0
LINE
  8
0
 10
-7.704
 11
-7.605
 20
-1.369
 21
-1.54
  0
LINE
  8
0
 10
-7.605
 11
-7.407
 20
-1.54
 21
-1.54
  0
LINE
  8
0
 10
-7.407
 11
-7.309
 20
-1.54
 21
-1.369
  0
LINE
  8
0
 10
-7.309
 11
-7.407
 20
-1.369
 21
-1.197
  0
LINE
  8
0
 10
-7.407
 11
-7.21
 20
-1.197
 21
-1.197
  0
LINE
  8
0
 10
-7.21
 11
-7.111
 20
-1.197
 21
-1.026
  0
LINE
  8
0
 10
-7.111
 11
-7.012
 20
-1.026
 21
-1.197
  0
LINE
  8
0
 10
-7.012
 11
-6.815
 20
-1.197
 21
-1.197
  0
LINE
  8
0
 10
-6.815
 11
-6.914
 20
-1.197
 21
-1.369
  0
LINE
  8
0
 10
-6.914
 11
-6.815
 20
-1.369
 21
-1.54
  0
LINE
  8
0
 10
-6.815
 11
-6.617
 20
-1.54
 21
-1.54
  0
LINE
  8
0
 10
-6.617
 11
-6.519
 20
-1.54
 21
-1.369
  0
LINE
  8
0
 10
-6.519
 11
-6.42
 20
-1.369
 21
-1.54
  0
LINE
  8
0
 10
-6.42
 11
-6.222
 20
-1.54
 21
-1.54
  0
LINE
  8
0
 10
-6.222
 11
-6.123
 20
-1.54
 21
-1.369
  0
LINE
  8
0
 10
-6.123
 11
-6.222
 20
-1.369
 21
-1.197
  0
LINE
  8
0
 10
-6.222
 11
-6.025
 20
-1.197
 21
-1.197
  0
LINE
  8
0
 10
-6.025
 11
-5.926
 20
-1.197
 21
-1.026
  0
LINE
  8
0
 10
-5.926
 11
-6.025
 20
-1.026
 21
-0.855
  0
LINE
  8
0
 10
-6.025
 11
-6.222
 20
-0.855
 21
-0.855
  0
LINE
  8
0
 10
-6.222
 11
-6.123
 20
-0.855
 21
-0.684
  0
LINE
  8
0
 10
-6.123
 11
-6.222
 20
-0.684
 21
-0.513
  0
LINE
  8
0
 10
-6.222
 11
-6.025
 20
-0.513
 21
-0.513
  0
LINE
  8
0
 10
-6.025
 11
-5.926
 20
-0.513
 21
-0.342
  0
LINE
  8
0
 10
-5.926
 11
-5.827
 20
-0.342
 21
-0.513
  0
LINE
  8
0
 10
-5.827
 11
-5.63
 20
-0.513
 21
-0.513
  0
LINE
  8
0
 10
-5.63
 11
-5.531
 20
-0.513
 21
-0.342
  0
LINE
  8
0
 10
-5.531
 11
-5.63
 20
-0.342
 21
-0.171
  0
LINE
  8
0
 10
-5.63
 11
-5.432
 20
-0.171
 21
-0.171
  0
LINE
  8
0
 10
-5.432
 11
-5.333
 20
-0.171
 21
0
  0
LINE
  8
0
 10
-5.333
 11
-5.432
 20
0
 21
0.171
  0
LINE
  8
0
 10
-5.432
 11
-5.63
 20
0.171
 21
0.171
  0
LINE
  8
0
 10
-5.63
 11
-5.531
 20
0.171
 21
0.342
  0
LINE
  8
0
 10
-5.531
 11
-5.63
 20
0.342
 21
0.513
  0
LINE
  8
0
 10
-5.63
 11
-5.827
 20
0.513
 21
0.513
  0
LINE
  8
0
 10
-5.827
 11
-5.926
 20
0.513
 21
0.342
  0
LINE
  8
0
 10
-5.926
 11
-6.025
 20
0.342
 21
0.513
  0
LINE
  8
0
 10
-6.025
 11
-6.222
 20
0.513
 21
0.513
  0
LINE
  8
0
 10
-6.222
 11
-6.123
 20
0.513
 21
0.684
  0
LINE
  8
0
 10
-6.123
 11
-6.222
 20
0.684
 21
0.855
  0
LINE
  8
0
 10
-6.222
 11
-6.025
 20
0.855
 21
0.855
  0
LINE
  8
0
 10
-6.025
 11
-5.926
 20
0.855
 21
1.026
  0
LINE
  8
0
 10
-5.926
 11
-6.025
 20
1.026
 21
1.197
  0
LINE
  8
0
 10
-6.025
 11
-6.222
 20
1.197
 21
1.197
  0
LINE
  8
0
 10
-6.222
 11
-6.123
 20
1.197
 21
1.369
  0
LINE
  8
0
 10
-6.123
 11
-6.222
 20
1.369
 21
1.54
  0
LINE
  8
0
 10
-6.222
 11
-6.42
 20
1.54
 21
1.54
  0
LINE
  8
0
 10
-6.42
 11
-6.519
 20
1.54
 21
1.369
  0
LINE
  8
0
 10
-6.519
 11
-6.617
 20
1.369
 21
1.54
  0
LINE
  8
0
 10
-6.617
 11
-6.815
 20
1.54
 21
1.54
  0
LINE
  8
0
 10
-6.815
 11
-6.914
 20
1.54
 21
1.369
  0
LINE
  8
0
 10
-6.914
 11
-6.815
 20
1.369
 21
1.197
  0
LINE
  8
0
 10
-6.815
 11
-7.012
 20
1.197
 21
1.197
  0
LINE
  8
0
 10
-7.012
 11
-7.111
 20
1.197
 21
1.026
  0
LINE
  8
0
 10
-7.111
 11
-7.21
 20
1.026
 21
1.197
  0
LINE
  8
0
 10
-7.21
 11
-7.407
 20
1.197
 21
1.197
  0
LINE
  8
0
 10
-7.407
 11
-7.309
 20
1.197
 21
1.369
  0
LINE
  8
0
 10
-7.309
 11
-7.407
 20
1.369
 21
1.54
  0
LINE
  8
0
 10
-7.407
 11
-7.605
 20
1.54
 21
1.54
  0
LINE
  8
0
 10
-7.605
 11
-7.704
 20
1.54
 21
1.369
  0
LINE
  8
0
 10
-7.704
 11
-7.802
 20
1.369
 21
1.54
  0
LINE
  8
0
 10
-7.802
 11
-8
 20
1.54
 21
1.54
  0
LINE
  8
0
 10
-8
 11
-7.901
 20
1.54
 21
1.711
  0
LINE
  8
0
 10
-7.901
 11
-8
 20
1.711
 21
1.882
  0
LINE
  8
0
 10
-8
 11
-7.802
 20
1.882
 21
1.882
  0
LINE
  8
0
 10
-7.802
 11
-7.704
 20
1.882
 21
2.053
  0
LINE
  8
0
 10
-7.704
 11
-7.802
 20
2.053
 21
2.224
  0
LINE
  8
0
 10
-7.802
 11
-8
 20
2.224
 21
2.224
  0
LINE
  8
0
 10
-8
 11
-7.901
 20
2.224
 21
2.395
  0
LINE
  8
0
 10
-7.901
 11
-8
 20
2.395
 21
2.566
  0
LINE
  8
0
 10
-8
 11
-7.802
 20
2.566
 21
2.566
  0
LINE
  8
0
 10
-7.802
 11
-7.704
 20
2.566
 21
2.737
  0
LINE
  8
0
 10
-7.704
 11
-7.605
 20
2.737
 21
2.566
  0
LINE
  8
0
 10
-7.605
 11
-7.407
 20
2.566
 21
2.566
  0
LINE
  8
0
 10
-7.407
 11
-7.309
 20
2.566
 21
2.737
  0
LINE
  8
0
 10
-7.309
 11
-7.407
 20
2.737
 21
2.908
  0
LINE
  8
0
 10
-7.407
 11
-7.21
 20
2.908
 21
2.908
  0
LINE
  8
0
 10
-7.21
 11
-7.111
 20
2.908
 21
3.079
  0
LINE
  8
0
 10
-7.111
 11
-7.21
 20
3.079
 21
3.25
  0
LINE
  8
0
 10
-7.21
 11
-7.407
 20
3.25
 21
3.25
  0
LINE
  8
0
 10
-7.407
 11
-7.309
 20
3.25
 21
3.421
  0
LINE
  8
0
 10
-7.309
 11
-7.407
 20
3.421
 21
3.592
  0
LINE
  8
0
 10
-7.407
 11
-7.605
 20
3.592
 21
3.592
  0
LINE
  8
0
 10
-7.605
 11
-7.704
 20
3.592
 21
3.421
  0
LINE
  8
0
 10
-7.704
 11
-7.802
 20
3.421
 21
3.592
  0
LINE
  8
0
 10
-7.802
 11
-8
 20
3.592
 21
3.592
  0
LINE
  8
0
 10
-8
 11
-7.901
 20
3.592
 21
3.763
  0
LINE
  8
0
 10
-7.901
 11
-8
 20
3.763
 21
3.935
  0
LINE
  8
0
 10
-8
 11
-7.802
 20
3.935
 21
3.935
  0
LINE
  8
0
 10
-7.802
 11
-7.704
 20
3.935
 21
4.106
  0
LINE
  8
0
 10
-7.704
 11
-7.802
 20
4.106
 21
4.277
  0
LINE
  8
0
 10
-7.802
 11
-8
 20
4.277
 21
4.277
  0
LINE
  8
0
 10
-8
 11
-7.901
 20
4.277
 21
4.448
  0
LINE
  8
0
 10
-7.901
 11
-8
 20
4.448
 21
4.619
  0
LINE
  8
0
 10
-8
 11
-7.802
 20
4.619
 21
4.619
  0
LINE
  8
0
 10
-7.802
 11
-7.704
 20
4.619
 21
4.79
  0
LINE
  8
0
 10
-7.704
 11
-7.605
 20
4.79
 21
4.619
  0
LINE
  8
0
 10
-7.605
 11
-7.407
 20
4.619
 21
4.619
  0
LINE
  8
0
 10
-7.407
 11
-7.309
 20
4.619
 21
4.79
  0
LINE
  8
0
 10
-7.309
 11
-7.407
 20
4.79
 21
4.961
  0
LINE
  8
0
 10
-7.407
 11
-7.21
 20
4.961
 21
4.961
  0
LINE
  8
0
 10
-7.21
 11
-7.111
 20
4.961
 21
5.132
  0
LINE
  8
0
 10
-7.111
 11
-7.012
 20
5.132
 21
4.961
  0
LINE
  8
0
 10
-7.012
 11
-6.815
 20
4.961
 21
4.961
  0
LINE
  8
0
 10
-6.815
 11
-6.914
 20
4.961
 21
4.79
  0
LINE
  8
0
 10
-6.914
 11
-6.815
 20
4.79
 21
4.619
  0
LINE
  8
0
 10
-6.815
 11
-6.617
 20
4.619
 21
4.619
  0
LINE
  8
0
 10
-6.617
 11
-6.519
 20
4.619
 21
4.79
  0
LINE
  8
0
 10
-6.519
 11
-6.42
 20
4.79
 21
4.619
  0
LINE
  8
0
 10
-6.42
 11
-6.222
 20
4.619
 21
4.619
  0
LINE
  8
0
 10
-6.222
 11
-6.123
 20
4.619
 21
4.79
  0
LINE
  8
0
 10
-6.123
 11
-6.222
 20
4.79
 21
4.961
  0
LINE
  8
0
 10
-6.222
 11
-6.025
 20
4.961
 21
4.961
  0
LINE
  8
0
 10
-6.025
 11
-5.926
 20
4.961
 21
5.132
  0
LINE
  8
0
 10
-5.926
 11
-6.025
 20
5.132
 21
5.303
  0
LINE
  8
0
 10
-6.025
 11
-6.222
 20
5.303
 21
5.303
  0
LINE
  8
0
 10
-6.222
 11
-6.123
 20
5.303
 21
5.474
  0
LINE
  8
0
 10
-6.123
 11
-6.222
 20
5.474
 21
5.645
  0
LINE
  8
0
 10
-6.222
 11
-6.025
 20
5.645
 21
5.645
  0
LINE
  8
0
 10
-6.025
 11
-5.926
 20
5.645
 21
5.816
  0
LINE
  8
0
 10
-5.926
 11
-5.827
 20
5.816
 21
5.645
  0
LINE
  8
0
 10
-5.827
 11
-5.63
 20
5.645
 21
5.645
  0
LINE
  8
0
 10
-5.63
 11
-5.531
 20
5.645
 21
5.816
  0
LINE
  8
0
 10
-5.531
 11
-5.63
 20
5.816
 21
5.987
  0
LINE
  8
0
 10
-5.63
 11
-5.432
 20
5.987
 21
5.987
  0
LINE
  8
0
 10
-5.432
 11
-5.333
 20
5.987
 21
6.158
  0
LINE
  8
0
 10
-5.333
 11
-5.235
 20
6.158
 21
5.987
  0
LINE
  8
0
 10
-5.235
 11
-5.037
 20
5.987
 21
5.987
  0
LINE
  8
0
 10
-5.037
 11
-5.136
 20
5.987
 21
5.816
  0
LINE
  8
0
 10
-5.136
 11
-5.037
 20
5.816
 21
5.645
  0
LINE
  8
0
 10
-5.037
 11
-4.84
 20
5.645
 21
5.645
  0
LINE
  8
0
 10
-4.84
 11
-4.741
 20
5.645
 21
5.816
  0
LINE
  8
0
 10
-4.741
 11
-4.642
 20
5.816
 21
5.645
  0
LINE
  8
0
 10
-4.642
 11
-4.444
 20
5.645
 21
5.645
  0
LINE
  8
0
 10
-4.444
 11
-4.543
 20
5.645
 21
5.474
  0
LINE
  8
0
 10
-4.543
 11
-4.444
 20
5.474
 21
5.303
  0
LINE
  8
0
 10
-4.444
 11
-4.642
 20
5.303
 21
5.303
  0
LINE
  8
0
 10
-4.642
 11
-4.741
 20
5.303
 21
5.132
  0
LINE
  8
0
 10
-4.741
 11
-4.642
 20
5.132
 21
4.961
  0
LINE
  8
0
 10
-4.642
 11
-4.444
 20
4.961
 21
4.961
  0
LINE
  8
0
 10
-4.444
 11
-4.543
 20
4.961
 21
4.79
  0
LINE
  8
0
 10
-4.543
 11
-4.444
 20
4.79
 21
4.619
  0
LINE
  8
0
 10
-4.444
 11
-4.247
 20
4.619
 21
4.619
  0
LINE
  8
0
 10
-4.247
 11
-4.148
 20
4.619
 21
4.79
  0
LINE
  8
0
 10
-4.148
 11
-4.049
 20
4.79
 21
4.619
  0
LINE
  8
0
 10
-4.049
 11
-3.852
 20
4.619
 21
4.619
  0
LINE
  8
0
 10
-3.852
 11
-3.753
 20
4.619
 21
4.79
  0
LINE
  8
0
 10
-3.753
 11
-3.852
 20
4.79
 21
4.961
  0
LINE
  8
0
 10
-3.852
 11
-3.654
 20
4.961
 21
4.961
  0
LINE
  8
0
 10
-3.654
 11
-3.556
 20
4.961
 21
5.132
  0
LINE
  8
0
 10
-3.556
 11
-3.457
 20
5.132
 21
4.961
  0
LINE
  8
0
 10
-3.457
 11
-3.259
 20
4.961
 21
4.961
  0
LINE
  8
0
 10
-3.259
 11
-3.358
 20
4.961
 21
4.79
  0
LINE
  8
0
 10
-3.358
 11
-3.259
 20
4.79
 21
4.619
  0
LINE
  8
0
 10
-3.259
 11
-3.062
 20
4.619
 21
4.619
  0
LINE
  8
0
 10
-3.062
 11
-2.963
 20
4.619
 21
4.79
  0
LINE
  8
0
 10
-2.963
 11
-2.864
 20
4.79
 21
4.619
  0
LINE
  8
0
 10
-2.864
 11
-2.667
 20
4.619
 21
4.619
  0
LINE
  8
0
 10
-2.667
 11
-2.568
 20
4.619
 21
4.79
  0
LINE
  8
0
 10
-2.568
 11
-2.667
 20
4.79
 21
4.961
  0
LINE
  8
0
 10
-2.667
 11
-2.469
 20
4.961
 21
4.961
  0
LINE
  8
0
 10
-2.469
 11
-2.37
 20
4.961
 21
5.132
  0
LINE
  8
0
 10
-2.37
 11
-2.469
 20
5.132
 21
5.303
  0
LINE
  8
0
 10
-2.469
 11
-2.667
 20
5.303
 21
5.303
  0
LINE
  8
0
 10
-2.667
 11
-2.568
 20
5.303
 21
5.474
  0
LINE
  8
0
 10
-2.568
 11
-2.667
 20
5.474
 21
5.645
  0
LINE
  8
0
 10
-2.667
 11
-2.469
 20
5.645
 21
5.645
  0
LINE
  8
0
 10
-2.469
 11
-2.37
 20
5.645
 21
5.816
  0
LINE
  8
0
 10
-2.37
 11
-2.272
 20
5.816
 21
5.645
  0
LINE
  8
0
 10
-2.272
 11
-2.074
 20
5.645
 21
5.645
  0
LINE
  8
0
 10
-2.074
 11
-1.975
 20
5.645
 21
5.816
  0
LINE
  8
0
 10
-1.975
 11
-2.074
 20
5.816
 21
5.987
  0
LINE
  8
0
 10
-2.074
 11
-1.877
 20
5.987
 21
5.987
  0
LINE
  8
0
 10
-1.877
 11
-1.778
 20
5.987
 21
6.158
  0
LINE
  8
0
 10
-1.778
 11
-1.877
 20
6.158
 21
6.329
  0
LINE
  8
0
 10
-1.877
 11
-2.074
 20
6.329
 21
6.329
  0
LINE
  8
0
 10
-2.074
 11
-1.975
 20
6.329
 21
6.501
  0
LINE
  8
0
 10
-1.975
 11
-2.074
 20
6.501
 21
6.672
  0
LINE
  8
0
 10
-2.074
 11
-2.272
 20
6.672
 21
6.672
  0
LINE
  8
0
 10
-2.272
 11
-2.37
 20
6.672
 21
6.501
  0
LINE
  8
0
 10
-2.37
 11
-2.469
 20
6.501
 21
6.672
  0
LINE
  8
0
 10
-2.469
 11
-2.667
 20
6.672
 21
6.672
  0
LINE
  8
0
 10
-2.667
 11
-2.568
 20
6.672
 21
6.843
  0
LINE
  8
0
 10
-2.568
 11
-2.667
 20
6.843
 21
7.014
  0
LINE
  8
0
 10
-2.667
 11
-2.469
 20
7.014
 21
7.014
  0
LINE
  8
0
 10
-2.469
 11
-2.37
 20
7.014
 21
7.185
  0
LINE
  8
0
 10
-2.37
 11
-2.469
 20
7.185
 21
7.356
  0
LINE
  8
0
 10
-2.469
 11
-2.667
 20
7.356
 21
7.356
  0
LINE
  8
0
 10
-2.667
 11
-2.568
 20
7.356
 21
7.527
  0
LINE
  8
0
 10
-2.568
 11
-2.667
 20
7.527
 21
7.698
  0
LINE
  8
0
 10
-2.667
 11
-2.469
 20
7.698
 21
7.698
  0
LINE
  8
0
 10
-2.469
 11
-2.37
 20
7.698
 21
7.869
  0
LINE
  8
0
 10
-2.37
 11
-2.272
 20
7.869
 21
7.698
  0
LINE
  8
0
 10
-2.272
 11
-2.074
 20
7.698
 21
7.698
  0
LINE
  8
0
 10
-2.074
 11
-1.975
 20
7.698
 21
7.869
  0
LINE
  8
0
 10
-1.975
 11
-2.074
 20
7.869
 21
8.04
  0
LINE
  8
0
 10
-2.074
 11
-1.877
 20
8.04
 21
8.04
  0
LINE
  8
0
 10
-1.877
 11
-1.778
 20
8.04
 21
8.211
  0
LINE
  8
0
 10
-1.778
 11
-1.679
 20
8.211
 21
8.04
  0
LINE
  8
0
 10
-1.679
 11
-1.481
 20
8.04
 21
8.04
  0
LINE
  8
0
 10
-1.481
 11
-1.58
 20
8.04
 21
7.869
  0
LINE
  8
0
 10
-1.58
 11
-1.481
 20
7.869
 21
7.698
  0
LINE
  8
0
 10
-1.481
 11
-1.284
 20
7.698
 21
7.698
  0
LINE
  8
0
 10
-1.284
 11
-1.185
 20
7.698
 21
7.869
  0
LINE
  8
0
 10
-1.185
 11
-1.086
 20
7.869
 21
7.698
  0
LINE
  8
0
 10
-1.086
 11
-0.889
 20
7.698
 21
7.698
  0
LINE
  8
0
 10
-0.889
 11
-0.79
 20
7.698
 21
7.869
  0
LINE
  8
0
 10
-0.79
 11
-0.889
 20
7.869
 21
8.04
  0
LINE
  8
0
 10
-0.889
 11
-0.691
 20
8.04
 21
8.04
  0
LINE
  8
0
 10
-0.691
 11
-0.593
 20
8.04
 21
8.211
  0
LINE
  8
0
 10
-0.593
 11
-0.691
 20
8.211
 21
8.382
  0
LINE
  8
0
 10
-0.691
 11
-0.889
 20
8.382
 21
8.382
  0
LINE
  8
0
 10
-0.889
 11
-0.79
 20
8.382
 21
8.553
  0
LINE
  8
0
 10
-0.79
 11
-0.889
 20
8.553
 21
8.724
  0
LINE
  8
0
 10
-0.889
 11
-0.691
 20
8.724
 21
8.724
  0
LINE
  8
0
 10
-0.691
 11
-0.593
 20
8.724
 21
8.895
  0
LINE
  8
0
 10
-0.593
 11
-0.494
 20
8.895
 21
8.724
  0
LINE
  8
0
 10
-0.494
 11
-0.296
 20
8.724
 21
8.724
  0
LINE
  8
0
 10
-0.296
 11
-0.198
 20
8.724
 21
8.895
  0
LINE
  8
0
 10
-0.198
 11
-0.296
 20
8.895
 21
9.067
  0
LINE
  8
0
 10
-0.296
 11
-0.099
 20
9.067
 21
9.067
  0
LINE
  8
0
 10
-0.099
 11
0
 20
9.067
 21
9.238
  0
LINE
  8
0
 10
0
 11
0.099
 20
9.238
 21
9.067
  0
LINE
  8
0
 10
0.099
 11
0.296
 20
9.067
 21
9.067
  0
LINE
  8
0
 10
0.296
 11
0.198
 20
9.067
 21
8.895
  0
LINE
  8
0
 10
0.198
 11
0.296
 20
8.895
 21
8.724
  0
LINE
  8
0
 10
0.296
 11
0.494
 20
8.724
 21
8.724
  0
LINE
  8
0
 10
0.494
 11
0.593
 20
8.724
 21
8.895
  0
LINE
  8
0
 10
0.593
 11
0.691
 20
8.895
 21
8.724
  0
LINE
  8
0
 10
0.691
 11
0.889
 20
8.724
 21
8.724
  0
LINE
  8
0
 10
0.889
 11
0.79
 20
8.724
 21
8.553
  0
LINE
  8
0
 10
0.79
 11
0.889
 20
8.553
 21
8.382
  0
LINE
  8
0
 10
0.889
 11
0.691
 20
8.382
 21
8.382
  0
LINE
  8
0
 10
0.691
 11
0.593
 20
8.382
 21
8.211
  0
LINE
  8
0
 10
0.593
 11
0.691
 20
8.211
 21
8.04
  0
LINE
  8
0
 10
0.691
 11
0.889
 20
8.04
 21
8.04
  0
LINE
  8
0
 10
0.889
 11
0.79
 20
8.04
 21
7.869
  0
LINE
  8
0
 10
0.79
 11
0.889
 20
7.869
 21
7.698
  0
LINE
  8
0
 10
0.889
 11
1.086
 20
7.698
 21
7.698
  0
LINE
  8
0
 10
1.086
 11
1.185
 20
7.698
 21
7.869
  0
LINE
  8
0
 10
1.185
 11
1.284
 20
7.869
 21
7.698
  0
LINE
  8
0
 10
1.284
 11
1.481
 20
7.698
 21
7.698
  0
LINE
  8
0
 10
1.481
 11
1.58
 20
7.698
 21
7.869
  0
LINE
  8
0
 10
1.58
 11
1.481
 20
7.869
 21
8.04
  0
LINE
  8
0
 10
1.481
 11
1.679
 20
8.04
 21
8.04
  0
LINE
  8
0
 10
1.679
 11
1.778
 20
8.04
 21
8.211
  0
LINE
  8
0
 10
1.778
 11
1.877
 20
8.211
 21
8.04
  0
LINE
  8
0
 10
1.877
 11
2.074
 20
8.04
 21
8.04
  0
LINE
  8
0
 10
2.074
 11
1.975
 20
8.04
 21
7.869
  0
LINE
  8
0
 10
1.975
 11
2.074
 20
7.869
 21
7.698
  0
LINE
  8
0
 10
2.074
 11
2.272
 20
7.698
 21
7.698
  0
LINE
  8
0
 10
2.272
 11
2.37
 20
7.698
 21
7.869
  0
LINE
  8
0
 10
2.37
 11
2.469
 20
7.869
 21
7.698
  0
LINE
  8
0
 10
2.469
 11
2.667
 20
7.698
 21
7.698
  0
LINE
  8
0
 10
2.667
 11
2.568
 20
7.698
 21
7.527
  0
LINE
  8
0
 10
2.568
 11
2.667
 20
7.527
 21
7.356
  0
LINE
  8
0
 10
2.667
 11
2.469
 20
7.356
 21
7.356
  0
LINE
  8
0
 10
2.469
 11
2.37
 20
7.356
 21
7.185
  0
LINE
  8
0
 10
2.37
 11
2.469
 20
7.185
 21
7.014
  0
LINE
  8
0
 10
2.469
 11
2.667
 20
7.014
 21
7.014
  0
LINE
  8
0
 10
2.667
 11
2.568
 20
7.014
 21
6.843
  0
LINE
  8
0
 10
2.568
 11
2.667
 20
6.843
 21
6.672
  0
LINE
  8
0
 10
2.667
 11
2.469
 20
6.672
 21
6.672
  0
LINE
  8
0
 10
2.469
 11
2.37
 20
6.672
 21
6.501
  0
LINE
  8
0
 10
2.37
 11
2.272
 20
6.501
 21
6.672
  0
LINE
  8
0
 10
2.272
 11
2.074
 20
6.672
 21
6.672
  0
LINE
  8
0
 10
2.074
 11
1.975
 20
6.672
 21
6.501
  0
LINE
  8
0
 10
1.975
 11
2.074
 20
6.501
 21
6.329
  0
LINE
  8
0
 10
2.074
 11
1.877
 20
6.329
 21
6.329
  0
LINE
  8
0
 10
1.877
 11
1.778
 20
6.329
 21
6.158
  0
LINE
  8
0
 10
1.778
 11
1.877
 20
6.158
 21
5.987
  0
LINE
  8
0
 10
1.877
 11
2.074
 20
5.987
 21
5.987
  0
LINE
  8
0
 10
2.074
 11
1.975
 20
5.987
 21
5.816
  0
LINE
  8
0
 10
1.975
 11
2.074
 20
5.816
 21
5.645
  0
LINE
  8
0
 10
2.074
 11
2.272
 20
5.645
 21
5.645
  0
LINE
  8
0
 10
2.272
 11
2.37
 20
5.645
 21
5.816
  0
LINE
  8
0
 10
2.37
 11
2.469
 20
5.816
 21
5.645
  0
LINE
  8
0
 10
2.469
 11
2.667
 20
5.645
 21
5.645
  0
LINE
  8
0
 10
2.667
 11
2.568
 20
5.645
 21
5.474
  0
LINE
  8
0
 10
2.568
 11
2.667
 20
5.474
 21
5.303
  0
LINE
  8
0
 10
2.667
 11
2.469
 20
5.303
 21
5.303
  0
LINE
  8
0
 10
2.469
 11
2.37
 20
5.303
 21
5.132
  0
LINE
  8
0
 10
2.37
 11
2.469
 20
5.132
 21
4.961
  0
LINE
  8
0
 10
2.469
 11
2.667
 20
4.961
 21
4.961
  0
LINE
  8
0
 10
2.667
 11
2.568
 20
4.961
 21
4.79
  0
LINE
  8
0
 10
2.568
 11
2.667
 20
4.79
 21
4.619
  0
LINE
  8
0
 10
2.667
 11
2.864
 20
4.619
 21
4.619
  0
LINE
  8
0
 10
2.864
 11
2.963
 20
4.619
 21
4.79
  0
LINE
  8
0
 10
2.963
 11
3.062
 20
4.79
 21
4.619
  0
LINE
  8
0
 10
3.062
 11
3.259
 20
4.619
 21
4.619
  0
LINE
  8
0
 10
3.259
 11
3.358
 20
4.619
 21
4.79
  0
LINE
  8
0
 10
3.358
 11
3.259
 20
4.79
 21
4.961
  0
LINE
  8
0
 10
3.259
 11
3.457
 20
4.961
 21
4.961
  0
LINE
  8
0
 10
3.457
 11
3.556
 20
4.961
 21
5.132
  0
LINE
  8
0
 10
3.556
 11
3.654
 20
5.132
 21
4.961
  0
LINE
  8
0
 10
3.654
 11
3.852
 20
4.961
 21
4.961
  0
LINE
  8
0
 10
3.852
 11
3.753
 20
4.961
 21
4.79
  0
LINE
  8
0
 10
3.753
 11
3.852
 20
4.79
 21
4.619
  0
LINE
  8
0
 10
3.852
 11
4.049
 20
4.619
 21
4.619
  0
LINE
  8
0
 10
4.049
 11
4.148
 20
4.619
 21
4.79
  0
LINE
  8
0
 10
4.148
 11
4.247
 20
4.79
 21
4.619
  0
LINE
  8
0
 10
4.247
 11
4.444
 20
4.619
 21
4.619
  0
LINE
  8
0
 10
4.444
 11
4.543
 20
4.619
 21
4.79
  0
LINE
  8
0
 10
4.543
 11
4.444
 20
4.79
 21
4.961
  0
LINE
  8
0
 10
4.444
 11
4.642
 20
4.961
 21
4.961
  0
LINE
  8
0
 10
4.642
 11
4.741
 20
4.961
 21
5.132
  0
LINE
  8
0
 10
4.741
 11
4.642
 20
5.132
 21
5.303
  0
LINE
  8
0
 10
4.642
 11
4.444
 20
5.303
 21
5.303
  0
LINE
  8
0
 10
4.444
 11
4.543
 20
5.303
 21
5.474
  0
LINE
  8
0
 10
4.543
 11
4.444
 20
5.474
 21
5.645
  0
LINE
  8
0
 10
4.444
 11
4.642
 20
5.645
 21
5.645
  0
LINE
  8
0
 10
4.642
 11
4.741
 20
5.645
 21
5.816
  0
LINE
  8
0
 10
4.741
 11
4.84
 20
5.816
 21
5.645
  0
LINE
  8
0
 10
4.84
 11
5.037
 20
5.645
 21
5.645
  0
LINE
  8
0
 10
5.037
 11
5.136
 20
5.645
 21
5.816
  0
LINE
  8
0
 10
5.136
 11
5.037
 20
5.816
 21
5.987
  0
LINE
  8
0
 10
5.037
 11
5.235
 20
5.987
 21
5.987
  0
LINE
  8
0
 10
5.235
 11
5.333
 20
5.987
 21
6.158
  0
LINE
  8
0
 10
5.333
 11
5.432
 20
6.158
 21
5.987
  0
LINE
  8
0
 10
5.432
 11
5.63
 20
5.987
 21
5.987
  0
LINE
  8
0
 10
5.63
 11
5.531
 20
5.987
 21
5.816
  0
LINE
  8
0
 10
5.531
 11
5.63
 20
5.816
 21
5.645
  0
LINE
  8
0
 10
5.63
 11
5.827
 20
5.645
 21
5.645
  0
LINE
  8
0
 10
5.827
 11
5.926
 20
5.645
 21
5.816
  0
LINE
  8
0
 10
5.926
 11
6.025
 20
5.816
 21
5.645
  0
LINE
  8
0
 10
6.025
 11
6.222
 20
5.645
 21
5.645
  0
LINE
  8
0
 10
6.222
 11
6.123
 20
5.645
 21
5.474
  0
LINE
  8
0
 10
6.123
 11
6.222
 20
5.474
 21
5.303
  0
LINE
  8
0
 10
6.222
 11
6.025
 20
5.303
 21
5.303
  0
LINE
  8
0
 10
6.025
 11
5.926
 20
5.303
 21
5.132
  0
LINE
  8
0
 10
5.926
 11
6.025
 20
5.132
 21
4.961
  0
LINE
  8
0
 10
6.025
 11
6.222
 20
4.961
 21
4.961
  0
LINE
  8
0
 10
6.222
 11
6.123
 20
4.961
 21
4.79
  0
LINE
  8
0
 10
6.123
 11
6.222
 20
4.79
 21
4.619
  0
LINE
  8
0
 10
6.222
 11
6.42
 20
4.619
 21
4.619
  0
LINE
  8
0
 10
6.42
 11
6.519
 20
4.619
 21
4.79
  0
LINE
  8
0
 10
6.519
 11
6.617
 20
4.79
 21
4.619
  0
LINE
  8
0
 10
6.617
 11
6.815
 20
4.619
 21
4.619
  0
LINE
  8
0
 10
6.815
 11
6.914
 20
4.619
 21
4.79
  0
LINE
  8
0
 10
6.914
 11
6.815
 20
4.79
 21
4.961
  0
LINE
  8
0
 10
6.815
 11
7.012
 20
4.961
 21
4.961
  0
LINE
  8
0
 10
7.012
 11
7.111
 20
4.961
 21
5.132
  0
LINE
  8
0
 10
7.111
 11
7.21
 20
5.132
 21
4.961
  0
LINE
  8
0
 10
7.21
 11
7.407
 20
4.961
 21
4.961
  0
LINE
  8
0
 10
7.407
 11
7.309
 20
4.961
 21
4.79
  0
LINE
  8
0
 10
7.309
 11
7.407
 20
4.79
 21
4.619
  0
LINE
  8
0
 10
7.407
 11
7.605
 20
4.619
 21
4.619
  0
LINE
  8
0
 10
7.605
 11
7.704
 20
4.619
 21
4.79
  0
LINE
  8
0
 10
7.704
 11
7.802
 20
4.79
 21
4.619
  0
LINE
  8
0
 10
7.802
 11
8
 20
4.619
 21
4.619
  0
LINE
  8
0
 10
8
 11
7.901
 20
4.619
 21
4.448
  0
LINE
  8
0
 10
7.901
 11
8
 20
4.448
 21
4.277
  0
LINE
  8
0
 10
8
 11
7.802
 20
4.277
 21
4.277
  0
LINE
  8
0
 10
7.802
 11
7.704
 20
4.277
 21
4.106
  0
LINE
  8
0
 10
7.704
 11
7.802
 20
4.106
 21
3.935
  0
LINE
  8
0
 10
7.802
 11
8
 20
3.935
 21
3.935
  0
LINE
  8
0
 10
8
 11
7.901
 20
3.935
 21
3.763
  0
LINE
  8
0
 10
7.901
 11
8
 20
3.763
 21
3.592
  0
LINE
  8
0
 10
8
 11
7.802
 20
3.592
 21
3.592
  0
LINE
  8
0
 10
7.802
 11
7.704
 20
3.592
 21
3.421
  0
LINE
  8
0
 10
7.704
 11
7.605
 20
3.421
 21
3.592
  0
LINE
  8
0
 10
7.605
 11
7.407
 20
3.592
 21
3.592
  0
LINE
  8
0
 10
7.407
 11
7.309
 20
3.592
 21
3.421
  0
LINE
  8
0
 10
7.309
 11
7.407
 20
3.421
 21
3.25
  0
LINE
  8
0
 10
7.407
 11
7.21
 20
3.25
 21
3.25
  0
LINE
  8
0
 10
7.21
 11
7.111
 20
3.25
 21
3.079
  0
LINE
  8
0
 10
7.111
 11
7.21
 20
3.079
 21
2.908
  0
LINE
  8
0
 10
7.21
 11
7.407
 20
2.908
 21
2.908
  0
LINE
  8
0
 10
7.407
 11
7.309
 20
2.908
 21
2.737
  0
LINE
  8
0
 10
7.309
 11
7.407
 20
2.737
 21
2.566
  0
LINE
  8
0
 10
7.407
 11
7.605
 20
2.566
 21
2.566
  0
LINE
  8
0
 10
7.605
 11
7.704
 20
2.566
 21
2.737
  0
LINE
  8
0
 10
7.704
 11
7.802
 20
2.737
 21
2.566
  0
LINE
  8
0
 10
7.802
 11
8
 20
2.566
 21
2.566
  0
LINE
  8
0
 10
8
 11
7.901
 20
2.566
 21
2.395
  0
LINE
  8
0
 10
7.901
 11
8
 20
2.395
 21
2.224
  0
LINE
  8
0
 10
8
 11
7.802
 20
2.224
 21
2.224
  0
LINE
  8
0
 10
7.802
 11
7.704
 20
2.224
 21
2.053
  0
LINE
  8
0
 10
7.704
 11
7.802
 20
2.053
 21
1.882
  0
LINE
  8
0
 10
7.802
 11
8
 20
1.882
 21
1.882
  0
LINE
  8
0
 10
8
 11
7.901
 20
1.882
 21
1.711
  0
LINE
  8
0
 10
7.901
 11
8
 20
1.711
 21
1.54
  0
LINE
  8
0
 10
8
 11
7.802
 20
1.54
 21
1.54
  0
LINE
  8
0
 10
7.802
 11
7.704
 20
1.54
 21
1.369
  0
LINE
  8
0
 10
7.704
 11
7.605
 20
1.369
 21
1.54
  0
LINE
  8
0
 10
7.605
 11
7.407
 20
1.54
 21
1.54
  0
LINE
  8
0
 10
7.407
 11
7.309
 20
1.54
 21
1.369
  0
LINE
  8
0
 10
7.309
 11
7.407
 20
1.369
 21
1.197
  0
LINE
  8
0
 10
7.407
 11
7.21
 20
1.197
 21
1.197
  0
LINE
  8
0
 10
7.21
 11
7.111
 20
1.197
 21
1.026
  0
LINE
  8
0
 10
7.111
 11
7.012
 20
1.026
 21
1.197
  0
LINE
  8
0
 10
7.012
 11
6.815
 20
1.197
 21
1.197
  0
LINE
  8
0
 10
6.815
 11
6.914
 20
1.197
 21
1.369
  0
LINE
  8
0
 10
6.914
 11
6.815
 20
1.369
 21
1.54
  0
LINE
  8
0
 10
6.815
 11
6.617
 20
1.54
 21
1.54
  0
LINE
  8
0
 10
6.617
 11
6.519
 20
1.54
 21
1.369
  0
LINE
  8
0
 10
6.519
 11
6.42
 20
1.369
 21
1.54
  0
LINE
  8
0
 10
6.42
 11
6.222
 20
1.54
 21
1.54
  0
LINE
  8
0
 10
6.222
 11
6.123
 20
1.54
 21
1.369
  0
LINE
  8
0
 10
6.123
 11
6.222
 20
1.369
 21
1.197
  0
LINE
  8
0
 10
6.222
 11
6.025
 20
1.197
 21
1.197
  0
LINE
  8
0
 10
6.025
 11
5.926
 20
1.197
 21
1.026
  0
LINE
  8
0
 10
5.926
 11
6.025
 20
1.026
 21
0.855
  0
LINE
  8
0
 10
6.025
 11
6.222
 20
0.855
 21
0.855
  0
LINE
  8
0
 10
6.222
 11
6.123
 20
0.855
 21
0.684
  0
LINE
  8
0
 10
6.123
 11
6.222
 20
0.684
 21
0.513
  0
LINE
  8
0
 10
6.222
 11
6.025
 20
0.513
 21
0.513
  0
LINE
  8
0
 10
6.025
 11
5.926
 20
0.513
 21
0.342
  0
LINE
  8
0
 10
5.926
 11
5.827
 20
0.342
 21
0.513
  0
LINE
  8
0
 10
5.827
 11
5.63
 20
0.513
 21
0.513
  0
LINE
  8
0
 10
5.63
 11
5.531
 20
0.513
 21
0.342
  0
LINE
  8
0
 10
5.531
 11
5.63
 20
0.342
 21
0.171
  0
LINE
  8
0
 10
5.63
 11
5.432
 20
0.171
 21
0.171
  0
LINE
  8
0
 10
5.432
 11
5.333
 20
0.171
 21
0
  0
LINE
  8
0
 10
5.333
 11
5.432
 20
0
 21
-0.171
  0
LINE
  8
0
 10
5.432
 11
5.63
 20
-0.171
 21
-0.171
  0
LINE
  8
0
 10
5.63
 11
5.531
 20
-0.171
 21
-0.342
  0
LINE
  8
0
 10
5.531
 11
5.63
 20
-0.342
 21
-0.513
  0
LINE
  8
0
 10
5.63
 11
5.827
 20
-0.513
 21
-0.513
  0
LINE
  8
0
 10
5.827
 11
5.926
 20
-0.513
 21
-0.342
  0
LINE
  8
0
 10
5.926
 11
6.025
 20
-0.342
 21
-0.513
  0
LINE
  8
0
 10
6.025
 11
6.222
 20
-0.513
 21
-0.513
  0
LINE
  8
0
 10
6.222
 11
6.123
 20
-0.513
 21
-0.684
  0
LINE
  8
0
 10
6.123
 11
6.222
 20
-0.684
 21
-0.855
  0
LINE
  8
0
 10
6.222
 11
6.025
 20
-0.855
 21
-0.855
  0
LINE
  8
0
 10
6.025
 11
5.926
 20
-0.855
 21
-1.026
  0
LINE
  8
0
 10
5.926
 11
6.025
 20
-1.026
 21
-1.197
  0
LINE
  8
0
 10
6.025
 11
6.222
 20
-1.197
 21
-1.197
  0
LINE
  8
0
 10
6.222
 11
6.123
 20
-1.197
 21
-1.369
  0
LINE
  8
0
 10
6.123
 11
6.222
 20
-1.369
 21
-1.54
  0
LINE
  8
0
 10
6.222
 11
6.42
 20
-1.54
 21
-1.54
  0
LINE
  8
0
 10
6.42
 11
6.519
 20
-1.54
 21
-1.369
  0
LINE
  8
0
 10
6.519
 11
6.617
 20
-1.369
 21
-1.54
  0
LINE
  8
0
 10
6.617
 11
6.815
 20
-1.54
 21
-1.54
  0
LINE
  8
0
 10
6.815
 11
6.914
 20
-1.54
 21
-1.369
  0
LINE
  8
0
 10
6.914
 11
6.815
 20
-1.369
 21
-1.197
  0
LINE
  8
0
 10
6.815
 11
7.012
 20
-1.197
 21
-1.197
  0
LINE
  8
0
 10
7.012
 11
7.111
 20
-1.197
 21
-1.026
  0
LINE
  8
0
 10
7.111
 11
7.21
 20
-1.026
 21
-1.197
  0
LINE
  8
0
 10
7.21
 11
7.407
 20
-1.197
 21
-1.197
  0
LINE
  8
0
 10
7.407
 11
7.309
 20
-1.197
 21
-1.369
  0
LINE
  8
0
 10
7.309
 11
7.407
 20
-1.369
 21
-1.54
  0
LINE
  8
0
 10
7.407
 11
7.605
 20
-1.54
 21
-1.54
  0
LINE
  8
0
 10
7.605
 11
7.704
 20
-1.54
 21
-1.369
  0
LINE
  8
0
 10
7.704
 11
7.802
 20
-1.369
 21
-1.54
  0
LINE
  8
0
 10
7.802
 11
8
 20
-1.54
 21
-1.54
  0
LINE
  8
0
 10
8
 11
7.901
 20
-1.54
 21
-1.711
  0
LINE
  8
0
 10
7.901
 11
8
 20
-1.711
 21
-1.882
  0
LINE
  8
0
 10
8
 11
7.802
 20
-1.882
 21
-1.882
  0
LINE
  8
0
 10
7.802
 11
7.704
 20
-1.882
 21
-2.053
  0
LINE
  8
0
 10
7.704
 11
7.802
 20
-2.053
 21
-2.224
  0
LINE
  8
0
 10
7.802
 11
8
 20
-2.224
 21
-2.224
  0
LINE
  8
0
 10
8
 11
7.901
 20
-2.224
 21
-2.395
  0
LINE
  8
0
 10
7.901
 11
8
 20
-2.395
 21
-2.566
  0
LINE
  8
0
 10
8
 11
7.802
 20
-2.566
 21
-2.566
  0
LINE
  8
0
 10
7.802
 11
7.704
 20
-2.566
 21
-2.737
  0
LINE
  8
0
 10
7.704
 11
7.605
 20
-2.737
 21
-2.566
  0
LINE
  8
0
 10
7.605
 11
7.407
 20
-2.566
 21
-2.566
  0
LINE
  8
0
 10
7.407
 11
7.309
 20
-2.566
 21
-2.737
  0
LINE
  8
0
 10
7.309
 11
7.407
 20
-2.737
 21
-2.908
  0
LINE
  8
0
 10
7.407
 11
7.21
 20
-2.908
 21
-2.908
  0
LINE
  8
0
 10
7.21
 11
7.111
 20
-2.908
 21
-3.079
  0
LINE
  8
0
 10
7.111
 11
7.21
 20
-3.079
 21
-3.25
  0
LINE
  8
0
 10
7.21
 11
7.407
 20
-3.25
 21
-3.25
  0
LINE
  8
0
 10
7.407
 11
7.309
 20
-3.25
 21
-3.421
  0
LINE
  8
0
 10
7.309
 11
7.407
 20
-3.421
 21
-3.592
  0
LINE
  8
0
 10
7.407
 11
7.605
 20
-3.592
 21
-3.592
  0
LINE
  8
0
 10
7.605
 11
7.704
 20
-3.592
 21
-3.421
  0
LINE
  8
0
 10
7.704
 11
7.802
 20
-3.421
 21
-3.592
  0
LINE
  8
0
 10
7.802
 11
8
 20
-3.592
 21
-3.592
  0
LINE
  8
0
 10
8
 11
7.901
 20
-3.592
 21
-3.763
  0
LINE
  8
0
 10
7.901
 11
8
 20
-3.763
 21
-3.935
  0
LINE
  8
0
 10
8
 11
7.802
 20
-3.935
 21
-3.935
  0
LINE
  8
0
 10
7.802
 11
7.704
 20
-3.935
 21
-4.106
  0
LINE
  8
0
 10
7.704
 11
7.802
 20
-4.106
 21
-4.277
  0
LINE
  8
0
 10
7.802
 11
8
 20
-4.277
 21
-4.277
  0
LINE
  8
0
 10
8
 11
7.901
 20
-4.277
 21
-4.448
  0
LINE
  8
0
 10
7.901
 11
8
 20
-4.448
 21
-4.619
  0
LINE
  8
0
 10
8
 11
7.802
 20
-4.619
 21
-4.619
  0
LINE
  8
0
 10
7.802
 11
7.704
 20
-4.619
 21
-4.79
  0
LINE
  8
0
 10
7.704
 11
7.605
 20
-4.79
 21
-4.619
  0
LINE
  8
0
 10
7.605
 11
7.407
 20
-4.619
 21
-4.619
  0
LINE
  8
0
 10
7.407
 11
7.309
 20
-4.619
 21
-4.79
  0
LINE
  8
0
 10
7.309
 11
7.407
 20
-4.79
 21
-4.961
  0
LINE
  8
0
 10
7.407
 11
7.21
 20
-4.961
 21
-4.961
  0
LINE
  8
0
 10
7.21
 11
7.111
 20
-4.961
 21
-5.132
  0
LINE
  8
0
 10
7.111
 11
7.012
 20
-5.132
 21
-4.961
  0
LINE
  8
0
 10
7.012
 11
6.815
 20
-4.961
 21
-4.961
  0
LINE
  8
0
 10
6.815
 11
6.914
 20
-4.961
 21
-4.79
  0
LINE
  8
0
 10
6.914
 11
6.815
 20
-4.79
 21
-4.619
  0
LINE
  8
0
 10
6.815
 11
6.617
 20
-4.619
 21
-4.619
  0
LINE
  8
0
 10
6.617
 11
6.519
 20
-4.619
 21
-4.79
  0
LINE
  8
0
 10
6.519
 11
6.42
 20
-4.79
 21
-4.619
  0
LINE
  8
0
 10
6.42
 11
6.222
 20
-4.619
 21
-4.619
  0
LINE
  8
0
 10
6.222
 11
6.123
 20
-4.619
 21
-4.79
  0
LINE
  8
0
 10
6.123
 11
6.222
 20
-4.79
 21
-4.961
  0
LINE
  8
0
 10
6.222
 11
6.025
 20
-4.961
 21
-4.961
  0
LINE
  8
0
 10
6.025
 11
5.926
 20
-4.961
 21
-5.132
  0
LINE
  8
0
 10
5.926
 11
6.025
 20
-5.132
 21
-5.303
  0
LINE
  8
0
 10
6.025
 11
6.222
 20
-5.303
 21
-5.303
  0
LINE
  8
0
 10
6.222
 11
6.123
 20
-5.303
 21
-5.474
  0
LINE
  8
0
 10
6.123
 11
6.222
 20
-5.474
 21
-5.645
  0
LINE
  8
0
 10
6.222
 11
6.025
 20
-5.645
 21
-5.645
  0
LINE
  8
0
 10
6.025
 11
5.926
 20
-5.645
 21
-5.816
  0
LINE
  8
0
 10
5.926
 11
5.827
 20
-5.816
 21
-5.645
  0
LINE
  8
0
 10
5.827
 11
5.63
 20
-5.645
 21
-5.645
  0
LINE
  8
0
 10
5.63
 11
5.531
 20
-5.645
 21
-5.816
  0
LINE
  8
0
 10
5.531
 11
5.63
 20
-5.816
 21
-5.987
  0
LINE
  8
0
 10
5.63
 11
5.432
 20
-5.987
 21
-5.987
  0
LINE
  8
0
 10
5.432
 11
5.333
 20
-5.987
 21
-6.158
  0
LINE
  8
0
 10
5.333
 11
5.235
 20
-6.158
 21
-5.987
  0
LINE
  8
0
 10
5.235
 11
5.037
 20
-5.987
 21
-5.987
  0
LINE
  8
0
 10
5.037
 11
5.136
 20
-5.987
 21
-5.816
  0
LINE
  8
0
 10
5.136
 11
5.037
 20
-5.816
 21
-5.645
  0
LINE
  8
0
 10
5.037
 11
4.84
 20
-5.645
 21
-5.645
  0
LINE
  8
0
 10
4.84
 11
4.741
 20
-5.645
 21
-5.816
  0
LINE
  8
0
 10
4.741
 11
4.642
 20
-5.816
 21
-5.645
  0
LINE
  8
0
 10
4.642
 11
4.444
 20
-5.645
 21
-5.645
  0
LINE
  8
0
 10
4.444
 11
4.543
 20
-5.645
 21
-5.474
  0
LINE
  8
0
 10
4.543
 11
4.444
 20
-5.474
 21
-5.303
  0
LINE
  8
0
 10
4.444
 11
4.642
 20
-5.303
 21
-5.303
  0
LINE
  8
0
 10
4.642
 11
4.741
 20
-5.303
 21
-5.132
  0
LINE
  8
0
 10
4.741
 11
4.642
 20
-5.132
 21
-4.961
  0
LINE
  8
0
 10
4.642
 11
4.444
 20
-4.961
 21
-4.961
  0
LINE
  8
0
 10
4.444
 11
4.543
 20
-4.961
 21
-4.79
  0
LINE
  8
0
 10
4.543
 11
4.444
 20
-4.79
 21
-4.619
  0
LINE
  8
0
 10
4.444
 11
4.247
 20
-4.619
 21
-4.619
  0
LINE
  8
0
 10
4.247
 11
4.148
 20
-4.619
 21
-4.79
  0
LINE
  8
0
 10
4.148
 11
4.049
 20
-4.79
 21
-4.619
  0
LINE
  8
0
 10
4.049
 11
3.852
 20
-4.619
 21
-4.619
  0
LINE
  8
0
 10
3.852
 11
3.753
 20
-4.619
 21
-4.79
  0
LINE
  8
0
 10
3.753
 11
3.852
 20
-4.79
 21
-4.961
  0
LINE
  8
0
 10
3.852
 11
3.654
 20
-4.961
 21
-4.961
  0
LINE
  8
0
 10
3.654
 11
3.556
 20
-4.961
 21
-5.132
  0
LINE
  8
0
 10
3.556
 11
3.457
 20
-5.132
 21
-4.961
  0
LINE
  8
0
 10
3.457
 11
3.259
 20
-4.961
 21
-4.961
  0
LINE
  8
0
 10
3.259
 11
3.358
 20
-4.961
 21
-4.79
  0
LINE
  8
0
 10
3.358
 11
3.259
 20
-4.79
 21
-4.619
  0
LINE
  8
0
 10
3.259
 11
3.062
 20
-4.619
 21
-4.619
  0
LINE
  8
0
 10
3.062
 11
2.963
 20
-4.619
 21
-4.79
  0
LINE
  8
0
 10
2.963
 11
2.864
 20
-4.79
 21
-4.619
  0
LINE
  8
0
 10
2.864
 11
2.667
 20
-4.619
 21
-4.619
  0
LINE
  8
0
 10
2.667
 11
2.568
 20
-4.619
 21
-4.79
  0
LINE
  8
0
 10
2.568
 11
2.667
 20
-4.79
 21
-4.961
  0
LINE
  8
0
 10
2.667
 11
2.469
 20
-4.961
 21
-4.961
  0
LINE
  8
0
 10
2.469
 11
2.37
 20
-4.961
 21
-5.132
  0
LINE
  8
0
 10
2.37
 11
2.469
 20
-5.132
 21
-5.303
  0
LINE
  8
0
 10
2.469
 11
2.667
 20
-5.303
 21
-5.303
  0
LINE
  8
0
 10
2.667
 11
2.568
 20
-5.303
 21
-5.474
  0
LINE
  8
0
 10
2.568
 11
2.667
 20
-5.474
 21
-5.645
  0
LINE
  8
0
 10
2.667
 11
2.469
 20
-5.645
 21
-5.645
  0
LINE
  8
0
 10
2.469
 11
2.37
 20
-5.645
 21
-5.816
  0
LINE
  8
0
 10
2.37
 11
2.272
 20
-5.816
 21
-5.645
  0
LINE
  8
0
 10
2.272
 11
2.074
 20
-5.645
 21
-5.645
  0
LINE
  8
0
 10
2.074
 11
1.975
 20
-5.645
 21
-5.816
  0
LINE
  8
0
 10
1.975
 11
2.074
 20
-5.816
 21
-5.987
  0
LINE
  8
0
 10
2.074
 11
1.877
 20
-5.987
 21
-5.987
  0
LINE
  8
0
 10
1.877
 11
1.778
 20
-5.987
 21
-6.158
  0
LINE
  8
0
 10
1.778
 11
1.877
 20
-6.158
 21
-6.329
  0
LINE
  8
0
 10
1.877
 11
2.074
 20
-6.329
 21
-6.329
  0
LINE
  8
0
 10
2.074
 11
1.975
 20
-6.329
 21
-6.501
  0
LINE
  8
0
 10
1.975
 11
2.074
 20
-6.501
 21
-6.672
  0
LINE
  8
0
 10
2.074
 11
2.272
 20
-6.672
 21
-6.672
  0
LINE
  8
0
 10
2.272
 11
2.37
 20
-6.672
 21
-6.501
  0
LINE
  8
0
 10
2.37
 11
2.469
 20
-6.501
 21
-6.672
  0
LINE
  8
0
 10
2.469
 11
2.667
 20
-6.672
 21
-6.672
  0
LINE
  8
0
 10
2.667
 11
2.568
 20
-6.672
 21
-6.843
  0
LINE
  8
0
 10
2.568
 11
2.667
 20
-6.843
 21
-7.014
  0
LINE
  8
0
 10
2.667
 11
2.469
 20
-7.014
 21
-7.014
  0
LINE
  8
0
 10
2.469
 11
2.37
 20
-7.014
 21
-7.185
  0
LINE
  8
0
 10
2.37
 11
2.469
 20
-7.185
 21
-7.356
  0
LINE
  8
0
 10
2.469
 11
2.667
 20
-7.356
 21
-7.356
  0
LINE
  8
0
 10
2.667
 11
2.568
 20
-7.356
 21
-7.527
  0
LINE
  8
0
 10
2.568
 11
2.667
 20
-7.527
 21
-7.698
  0
LINE
  8
0
 10
2.667
 11
2.469
 20
-7.698
 21
-7.698
  0
LINE
  8
0
 10
2.469
 11
2.37
 20
-7.698
 21
-7.869
  0
LINE
  8
0
 10
2.37
 11
2.272
 20
-7.869
 21
-7.698
  0
LINE
  8
0
 10
2.272
 11
2.074
 20
-7.698
 21
-7.698
  0
LINE
  8
0
 10
2.074
 11
1.975
 20
-7.698
 21
-7.869
  0
LINE
  8
0
 10
1.975
 11
2.074
 20
-7.869
 21
-8.04
  0
LINE
  8
0
 10
2.074
 11
1.877
 20
-8.04
 21
-8.04
  0
LINE
  8
0
 10
1.877
 11
1.778
 20
-8.04
 21
-8.211
  0
LINE
  8
0
 10
1.778
 11
1.679
 20
-8.211
 21
-8.04
  0
LINE
  8
0
 10
1.679
 11
1.481
 20
-8.04
 21
-8.04
  0
LINE
  8
0
 10
1.481
 11
1.58
 20
-8.04
 21
-7.869
  0
LINE
  8
0
 10
1.58
 11
1.481
 20
-7.869
 21
-7.698
  0
LINE
  8
0
 10
1.481
 11
1.284
 20
-7.698
 21
-7.698
  0
LINE
  8
0
 10
1.284
 11
1.185
 20
-7.698
 21
-7.869
  0
LINE
  8
0
 10
1.185
 11
1.086
 20
-7.869
 21
-7.698
  0
LINE
  8
0
 10
1.086
 11
0.889
 20
-7.698
 21
-7.698
  0
LINE
  8
0
 10
0.889
 11
0.79
 20
-7.698
 21
-7.869
  0
LINE
  8
0
 10
0.79
 11
0.889
 20
-7.869
 21
-8.04
  0
LINE
  8
0
 10
0.889
 11
0.691
 20
-8.04
 21
-8.04
  0
LINE
  8
0
 10
0.691
 11
0.593
 20
-8.04
 21
-8.211
  0
LINE
  8
0
 10
0.593
 11
0.691
 20
-8.211
 21
-8.382
  0
LINE
  8
0
 10
0.691
 11
0.889
 20
-8.382
 21
-8.382
  0
LINE
  8
0
 10
0.889
 11
0.79
 20
-8.382
 21
-8.553
  0
LINE
  8
0
 10
0.79
 11
0.889
 20
-8.553
 21
-8.724
  0
LINE
  8
0
 10
0.889
 11
0.691
 20
-8.724
 21
-8.724
  0
LINE
  8
0
 10
0.691
 11
0.593
 20
-8.724
 21
-8.895
  0
LINE
  8
0
 10
0.593
 11
0.494
 20
-8.895
 21
-8.724
  0
LINE
  8
0
 10
0.494
 11
0.296
 20
-8.724
 21
-8.724
  0
LINE
  8
0
 10
0.296
 11
0.198
 20
-8.724
 21
-8.895
  0
LINE
  8
0
 10
0.198
 11
0.296
 20
-8.895
 21
-9.067
  0
LINE
  8
0
 10
0.296
 11
0.099
 20
-9.067
 21
-9.067
  0
LINE
  8
0
 10
0.099
 11
0
 20
-9.067
 21
-9.238
  0
LINE
  8
0
 10
0
 11
-0.099
 20
-9.238
 21
-9.067
  0
LINE
  8
0
 10
-0.099
 11
-0.296
 20
-9.067
 21
-9.067
  0
LINE
  8
0
 10
-0.296
 11
-0.198
 20
-9.067
 21
-8.895
  0
LINE
  8
0
 10
-0.198
 11
-0.296
 20
-8.895
 21
-8.724
  0
LINE
  8
0
 10
-0.296
 11
-0.494
 20
-8.724
 21
-8.724
  0
LINE
  8
0
 10
-0.494
 11
-0.593
 20
-8.724
 21
-8.895
  0
LINE
  8
0
 10
-0.593
 11
-0.691
 20
-8.895
 21
-8.724
  0
LINE
  8
0
 10
-0.691
 11
-0.889
 20
-8.724
 21
-8.724
  0
LINE
  8
0
 10
-0.889
 11
-0.79
 20
-8.724
 21
-8.553
  0
LINE
  8
0
 10
-0.79
 11
-0.889
 20
-8.553
 21
-8.382
  0
LINE
  8
0
 10
-0.889
 11
-0.691
 20
-8.382
 21
-8.382
  0
LINE
  8
0
 10
-0.691
 11
-0.593
 20
-8.382
 21
-8.211
  0
LINE
  8
0
 10
-0.593
 11
-0.691
 20
-8.211
 21
-8.04
  0
LINE
  8
0
 10
-0.691
 11
-0.889
 20
-8.04
 21
-8.04
  0
LINE
  8
0
 10
-0.889
 11
-0.79
 20
-8.04
 21
-7.869
  0
LINE
  8
0
 10
-0.79
 11
-0.889
 20
-7.869
 21
-7.698
  0
LINE
  8
0
 10
-0.889
 11
-1.086
 20
-7.698
 21
-7.698
  0
LINE
  8
0
 10
-1.086
 11
-1.185
 20
-7.698
 21
-7.869
  0
LINE
  8
0
 10
-1.185
 11
-1.284
 20
-7.869
 21
-7.698
  0
LINE
  8
0
 10
-1.284
 11
-1.481
 20
-7.698
 21
-7.698
  0
LINE
  8
0
 10
-1.481
 11
-1.58
 20
-7.698
 21
-7.869
  0
LINE
  8
0
 10
-1.58
 11
-1.481
 20
-7.869
 21
-8.04
  0
LINE
  8
0
 10
-1.481
 11
-1.679
 20
-8.04
 21
-8.04
  0
LINE
  8
0
 10
-1.679
 11
-1.778
 20
-8.04
 21
-8.211
  0
LINE
  8
0
 10
-1.778
 11
-1.877
 20
-8.211
 21
-8.04
  0
LINE
  8
0
 10
-1.877
 11
-2.074
 20
-8.04
 21
-8.04
  0
LINE
  8
0
 10
-2.074
 11
-1.975
 20
-8.04
 21
-7.869
  0
LINE
  8
0
 10
-1.975
 11
-2.074
 20
-7.869
 21
-7.698
  0
LINE
  8
0
 10
-2.074
 11
-2.272
 20
-7.698
 21
-7.698
  0
LINE
  8
0
 10
-2.272
 11
-2.37
 20
-7.698
 21
-7.869
  0
LINE
  8
0
 10
-2.37
 11
-2.469
 20
-7.869
 21
-7.698
  0
LINE
  8
0
 10
-2.469
 11
-2.667
 20
-7.698
 21
-7.698
  0
LINE
  8
0
 10
-2.667
 11
-2.568
 20
-7.698
 21
-7.527
  0
LINE
  8
0
 10
-2.568
 11
-2.667
 20
-7.527
 21
-7.356
  0
LINE
  8
0
 10
-2.667
 11
-2.469
 20
-7.356
 21
-7.356
  0
LINE
  8
0
 10
-2.469
 11
-2.37
 20
-7.356
 21
-7.185
  0
LINE
  8
0
 10
-2.37
 11
-2.469
 20
-7.185
 21
-7.014
  0
LINE
  8
0
 10
-2.469
 11
-2.667
 20
-7.014
 21
-7.014
  0
LINE
  8
0
 10
-2.667
 11
-2.568
 20
-7.014
 21
-6.843
  0
LINE
  8
0
 10
-2.568
 11
-2.667
 20
-6.843
 21
-6.672
  0
LINE
  8
0
 10
-2.667
 11
-2.469
 20
-6.672
 21
-6.672
  0
LINE
  8
0
 10
-2.469
 11
-2.37
 20
-6.672
 21
-6.501
  0
LINE
  8
0
 10
-2.37
 11
-2.272
 20
-6.501
 21
-6.672
  0
LINE
  8
0
 10
-2.272
 11
-2.074
 20
-6.672
 21
-6.672
  0
LINE
  8
0
 10
-2.074
 11
-1.975
 20
-6.672
 21
-6.501
  0
LINE
  8
0
 10
-1.975
 11
-2.074
 20
-6.501
 21
-6.329
  0
LINE
  8
0
 10
-2.074
 11
-1.877
 20
-6.329
 21
-6.329
  0
LINE
  8
0
 10
-1.877
 11
-1.778
 20
-6.329
 21
-6.158
  0
LINE
  8
0
 10
-1.778
 11
-1.877
 20
-6.158
 21
-5.987
  0
LINE
  8
0
 10
-1.877
 11
-2.074
 20
-5.987
 21
-5.987
  0
LINE
  8
0
 10
-2.074
 11
-1.975
 20
-5.987
 21
-5.816
  0
LINE
  8
0
 10
-1.975
 11
-2.074
 20
-5.816
 21
-5.645
  0
LINE
  8
0
 10
-2.074
 11
-2.272
 20
-5.645
 21
-5.645
  0
LINE
  8
0
 10
-2.272
 11
-2.37
 20
-5.645
 21
-5.816
  0
LINE
  8
0
 10
-2.37
 11
-2.469
 20
-5.816
 21
-5.645
  0
LINE
  8
0
 10
-2.469
 11
-2.667
 20
-5.645
 21
-5.645
  0
LINE
  8
0
 10
-2.667
 11
-2.568
 20
-5.645
 21
-5.474
  0
LINE
  8
0
 10
-2.568
 11
-2.667
 20
-5.474
 21
-5.303
  0
LINE
  8
0
 10
-2.667
 11
-2.469
 20
-5.303
 21
-5.303
  0
LINE
  8
0
 10
-2.469
 11
-2.37
 20
-5.303
 21
-5.132
  0
LINE
  8
0
 10
-2.37
 11
-2.469
 20
-5.132
 21
-4.961
  0
LINE
  8
0
 10
-2.469
 11
-2.667
 20
-4.961
 21
-4.961
  0
LINE
  8
0
 10
-2.667
 11
-2.568
 20
-4.961
 21
-4.79
  0
LINE
  8
0
 10
-2.568
 11
-2.667
 20
-4.79
 21
-4.619
  0
LINE
  8
0
 10
-2.667
 11
-2.864
 20
-4.619
 21
-4.619
  0
LINE
  8
0
 10
-2.864
 11
-2.963
 20
-4.619
 21
-4.79
  0
LINE
  8
0
 10
-2.963
 11
-3.062
 20
-4.79
 21
-4.619
  0
LINE
  8
0
 10
-3.062
 11
-3.259
 20
-4.619
 21
-4.619
  0
LINE
  8
0
 10
-3.259
 11
-3.358
 20
-4.619
 21
-4.79
  0
LINE
  8
0
 10
-3.358
 11
-3.259
 20
-4.79
 21
-4.961
  0
LINE
  8
0
 10
-3.259
 11
-3.457
 20
-4.961
 21
-4.961
  0
LINE
  8
0
 10
-3.457
 11
-3.556
 20
-4.961
 21
-5.132
  0
LINE
  8
0
 10
-3.556
 11
-3.654
 20
-5.132
 21
-4.961
  0
LINE
  8
0
 10
-3.654
 11
-3.852
 20
-4.961
 21
-4.961
  0
LINE
  8
0
 10
-3.852
 11
-3.753
 20
-4.961
 21
-4.79
  0
LINE
  8
0
 10
-3.753
 11
-3.852
 20
-4.79
 21
-4.619
  0
LINE
  8
0
 10
-3.852
 11
-4.049
 20
-4.619
 21
-4.619
  0
LINE
  8
0
 10
-4.049
 11
-4.148
 20
-4.619
 21
-4.79
  0
LINE
  8
0
 10
-4.148
 11
-4.247
 20
-4.79
 21
-4.619
  0
LINE
  8
0
 10
-4.247
 11
-4.444
 20
-4.619
 21
-4.619
  0
LINE
  8
0
 10
-4.444
 11
-4.543
 20
-4.619
 21
-4.79
  0
LINE
  8
0
 10
-4.543
 11
-4.444
 20
-4.79
 21
-4.961
  0
LINE
  8
0
 10
-4.444
 11
-4.642
 20
-4.961
 21
-4.961
  0
LINE
  8
0
 10
-4.642
 11
-4.741
 20
-4.961
 21
-5.132
  0
LINE
  8
0
 10
-4.741
 11
-4.642
 20
-5.132
 21
-5.303
  0
LINE
  8
0
 10
-4.642
 11
-4.444
 20
-5.303
 21
-5.303
  0
LINE
  8
0
 10
-4.444
 11
-4.543
 20
-5.303
 21
-5.474
  0
LINE
  8
0
 10
-4.543
 11
-4.444
 20
-5.474
 21
-5.645
  0
LINE
  8
0
 10
-4.444
 11
-4.642
 20
-5.645
 21
-5.645
  0
LINE
  8
0
 10
-4.642
 11
-4.741
 20
-5.645
 21
-5.816
  0
LINE
  8
0
 10
-4.741
 11
-4.84
 20
-5.816
 21
-5.645
  0
LINE
  8
0
 10
-4.84
 11
-5.037
 20
-5.645
 21
-5.645
  0
LINE
  8
0
 10
-5.037
 11
-5.136
 20
-5.645
 21
-5.816
  0
LINE
  8
0
 10
-5.136
 11
-5.037
 20
-5.816
 21
-5.987
  0
LINE
  8
0
 10
-5.037
 11
-5.235
 20
-5.987
 21
-5.987
  0
LINE
  8
0
 10
-5.235
 11
-5.333
 20
-5.987
 21
-6.158
  0
LINE
  8
0
 10
-5.333
 11
-5.432
 20
-6.158
 21
-5.987
  0
LINE
  8
0
 10
-5.432
 11
-5.63
 20
-5.987
 21
-5.987
  0
LINE
  8
0
 10
-5.63
 11
-5.531
 20
-5.987
 21
-5.816
  0
LINE
  8
0
 10
-5.531
 11
-5.63
 20
-5.816
 21
-5.645
  0
LINE
  8
0
 10
-5.63
 11
-5.827
 20
-5.645
 21
-5.645
  0
LINE
  8
0
 10
-5.827
 11
-5.926
 20
-5.645
 21
-5.816
  0
LINE
  8
0
 10
-5.926
 11
-6.025
 20
-5.816
 21
-5.645
  0
LINE
  8
0
 10
-6.025
 11
-6.222
 20
-5.645
 21
-5.645
  0
LINE
  8
0
 10
-6.222
 11
-6.123
 20
-5.645
 21
-5.474
  0
LINE
  8
0
 10
-6.123
 11
-6.222
 20
-5.474
 21
-5.303
  0
LINE
  8
0
 10
-6.222
 11
-6.025
 20
-5.303
 21
-5.303
  0
LINE
  8
0
 10
-6.025
 11
-5.926
 20
-5.303
 21
-5.132
  0
LINE
  8
0
 10
-5.926
 11
-6.025
 20
-5.132
 21
-4.961
  0
LINE
  8
0
 10
-6.025
 11
-6.222
 20
-4.961
 21
-4.961
  0
LINE
  8
0
 10
-6.222
 11
-6.123
 20
-4.961
 21
-4.79
  0
LINE
  8
0
 10
-6.123
 11
-6.222
 20
-4.79
 21
-4.619
  0
LINE
  8
0
 10
-6.222
 11
-6.42
 20
-4.619
 21
-4.619
  0
LINE
  8
0
 10
-6.42
 11
-6.519
 20
-4.619
 21
-4.79
  0
LINE
  8
0
 10
-6.519
 11
-6.617
 20
-4.79
 21
-4.619
  0
LINE
  8
0
 10
-6.617
 11
-6.815
 20
-4.619
 21
-4.619
  0
LINE
  8
0
 10
-6.815
 11
-6.914
 20
-4.619
 21
-4.79
  0
LINE
  8
0
 10
-6.914
 11
-6.815
 20
-4.79
 21
-4.961
  0
LINE
  8
0
 10
-6.815
 11
-7.012
 20
-4.961
 21
-4.961
  0
LINE
  8
0
 10
-7.012
 11
-7.111
 20
-4.961
 21
-5.132
  0
LINE
  8
0
 10
-7.111
 11
-7.21
 20
-5.132
 21
-4.961
  0
LINE
  8
0
 10
-7.21
 11
-7.407
 20
-4.961
 21
-4.961
  0
LINE
  8
0
 10
-7.407
 11
-7.309
 20
-4.961
 21
-4.79
  0
LINE
  8
0
 10
-7.309
 11
-7.407
 20
-4.79
 21
-4.619
  0
LINE
  8
0
 10
-7.407
 11
-7.605
 20
-4.619
 21
-4.619
  0
LINE
  8
0
 10
-7.605
 11
-7.704
 20
-4.619
 21
-4.79
  0
LINE
  8
0
 10
-7.704
 11
-7.802
 20
-4.79
 21
-4.619
  0
LINE
  8
0
 10
-7.802
 11
-8
 20
-4.619
 21
-4.619
  0
LINE
  8
0
 10
-4.157
 11
-4.084
 20
-25.4
 21
-25.346
  0
LINE
  8
0
 10
-4.084
 11
-3.897
 20
-25.346
 21
-25.156
  0
LINE
  8
0
 10
-3.897
 11
-3.657
 20
-25.156
 21
-24.808
  0
LINE
  8
0
 10
-3.657
 11
-3.425
 20
-24.808
 21
-24.308
  0
LINE
  8
0
 10
-3.425
 11
-3.259
 20
-24.308
 21
-23.687
  0
LINE
  8
0
 10
-3.259
 11
-3.2
 20
-23.687
 21
-23
  0
LINE
  8
0
 10
-3.2
 11
-3.26
 20
-23
 21
-22.313
  0
LINE
  8
0
 10
-3.26
 11
-3.425
 20
-22.313
 21
-21.693
  0
LINE
  8
0
 10
-3.425
 11
-3.657
 20
-21.693
 21
-21.193
  0
LINE
  8
0
 10
-3.657
 11
-3.898
 20
-21.193
 21
-20.845
  0
LINE
  8
0
 10
-3.898
 11
-4.084
 20
-20.845
 21
-20.654
  0
LINE
  8
0
 10
-4.084
 11
-4.157
 20
-20.654
 21
-20.6
  0
LINE
  8
0
 10
-4.157
 11
-4.073
 20
-20.6
 21
-20.637
  0
LINE
  8
0
 10
-4.073
 11
-3.816
 20
-20.637
 21
-20.703
  0
LINE
  8
0
 10
-3.816
 11
-3.394
 20
-20.703
 21
-20.737
  0
LINE
  8
0
 10
-3.394
 11
-2.844
 20
-20.737
 21
-20.688
  0
LINE
  8
0
 10
-2.844
 11
-2.225
 20
-20.688
 21
-20.521
  0
LINE
  8
0
 10
-2.225
 11
-1.6
 20
-20.521
 21
-20.229
  0
LINE
  8
0
 10
-1.6
 11
-1.035
 20
-20.229
 21
-19.834
  0
LINE
  8
0
 10
-1.035
 11
-0.58
 20
-19.834
 21
-19.381
  0
LINE
  8
0
 10
-0.58
 11
-0.263
 20
-19.381
 21
-18.929
  0
LINE
  8
0
 10
-0.263
 11
-0.082
 20
-18.929
 21
-18.547
  0
LINE
  8
0
 10
-0.082
 11
-0.01
 20
-18.547
 21
-18.291
  0
LINE
  8
0
 10
-0.01
 11
0
 20
-18.291
 21
-18.2
  0
LINE
  8
0
 10
0
 11
0.01
 20
-18.2
 21
-18.29
  0
LINE
  8
0
 10
0.01
 11
0.082
 20
-18.29
 21
-18.547
  0
LINE
  8
0
 10
0.082
 11
0.263
 20
-18.547
 21
-18.93
  0
LINE
  8
0
 10
0.263
 11
0.58
 20
-18.93
 21
-19.381
  0
LINE
  8
0
 10
0.58
 11
1.035
 20
-19.381
 21
-19.833
  0
LINE
  8
0
 10
1.035
 11
1.6
 20
-19.833
 21
-20.229
  0
LINE
  8
0
 10
1.6
 11
2.225
 20
-20.229
 21
-20.521
  0
LINE
  8
0
 10
2.225
 11
2.845
 20
-20.521
 21
-20.688
  0
LINE
  8
0
 10
2.845
 11
3.394
 20
-20.688
 21
-20.737
  0
LINE
  8
0
 10
3.394
 11
3.816
 20
-20.737
 21
-20.703
  0
LINE
  8
0
 10
3.816
 11
4.074
 20
-20.703
 21
-20.636
  0
LINE
  8
0
 10
4.074
 11
4.157
 20
-20.636
 21
-20.6
  0
LINE
  8
0
 10
4.157
 11
4.085
 20
-20.6
 21
-20.655
  0
LINE
  8
0
 10
4.085
 11
3.898
 20
-20.655
 21
-20.845
  0
LINE
  8
0
 10
3.898
 11
3.657
 20
-20.845
 21
-21.193
  0
LINE
  8
0
 10
3.657
 11
3.425
 20
-21.193
 21
-21.693
  0
LINE
  8
0
 10
3.425
 11
3.26
 20
-21.693
 21
-22.314
  0
LINE
  8
0
 10
3.26
 11
3.2
 20
-22.314
 21
-23.001
  0
LINE
  8
0
 10
3.2
 11
3.26
 20
-23.001
 21
-23.687
  0
LINE
  8
0
 10
3.26
 11
3.425
 20
-23.687
 21
-24.308
  0
LINE
  8
0
 10
3.425
 11
3.657
 20
-24.308
 21
-24.808
  0
LINE
  8
0
 10
3.657
 11
3.898
 20
-24.808
 21
-25.156
  0
LINE
  8
0
 10
3.898
 11
4.084
 20
-25.156
 21
-25.347
  0
LINE
  8
0
 10
4.084
 11
4.157
 20
-25.347
 21
-25.4
  0
LINE
  8
0
 10
4.157
 11
4.074
 20
-25.4
 21
-25.364
  0
LINE
  8
0
 10
4.074
 11
3.816
 20
-25.364
 21
-25.298
  0
LINE
  8
0
 10
3.816
 11
3.394
 20
-25.298
 21
-25.263
  0
LINE
  8
0
 10
3.394
 11
2.845
 20
-25.263
 21
-25.313
  0
LINE
  8
0
 10
2.845
 11
2.225
 20
-25.313
 21
-25.48
  0
LINE
  8
0
 10
2.225
 11
1.6
 20
-25.48
 21
-25.772
  0
LINE
  8
0
 10
1.6
 11
1.035
 20
-25.772
 21
-26.167
  0
LINE
  8
0
 10
1.035
 11
0.581
 20
-26.167
 21
-26.62
  0
LINE
  8
0
 10
0.581
 11
0.263
 20
-26.62
 21
-27.071
  0
LINE
  8
0
 10
0.263
 11
0.082
 20
-27.071
 21
-27.454
  0
LINE
  8
0
 10
0.082
 11
0.011
 20
-27.454
 21
-27.71
  0
LINE
  8
0
 10
0.011
 11
0
 20
-27.71
 21
-27.8
  0
LINE
  8
0
 10
0
 11
-0.01
 20
-27.8
 21
-27.711
  0
LINE
  8
0
 10
-0.01
 11
-0.082
 20
-27.711
 21
-27.454
  0
LINE
  8
0
 10
-0.082
 11
-0.263
 20
-27.454
 21
-27.071
  0
LINE
  8
0
 10
-0.263
 11
-0.58
 20
-27.071
 21
-26.62
  0
LINE
  8
0
 10
-0.58
 11
-1.035
 20
-26.62
 21
-26.167
  0
LINE
  8
0
 10
-1.035
 11
-1.6
 20
-26.167
 21
-25.772
  0
LINE
  8
0
 10
-1.6
 11
-2.224
 20
-25.772
 21
-25.48
  0
LINE
  8
0
 10
-2.224
 11
-2.845
 20
-25.48
 21
-25.313
  0
LINE
  8
0
 10
-2.845
 11
-3.394
 20
-25.313
 21
-25.264
  0
LINE
  8
0
 10
-3.394
 11
-3.815
 20
-25.264
 21
-25.298
  0
LINE
  8
0
 10
-3.815
 11
-4.073
 20
-25.298
 21
-25.365
  0
LINE
  8
0
 10
-4.073
 11
-4.157
 20
-25.365
 21
-25.4
  0
LINE
  8
0
 10
-4.157
 11
-4.085
 20
20.6
 21
20.655
  0
LINE
  8
0
 10
-4.085
 11
-3.898
 20
20.655
 21
20.845
  0
LINE
  8
0
 10
-3.898
 11
-3.657
 20
20.845
 21
21.193
  0
LINE
  8
0
 10
-3.657
 11
-3.425
 20
21.193
 21
21.693
  0
LINE
  8
0
 10
-3.425
 11
-3.26
 20
21.693
 21
22.314
  0
LINE
  8
0
 10
-3.26
 11
-3.2
 20
22.314
 21
23.001
  0
LINE
  8
0
 10
-3.2
 11
-3.26
 20
23.001
 21
23.687
  0
LINE
  8
0
 10
-3.26
 11
-3.425
 20
23.687
 21
24.308
  0
LINE
  8
0
 10
-3.425
 11
-3.657
 20
24.308
 21
24.808
  0
LINE
  8
0
 10
-3.657
 11
-3.898
 20
24.808
 21
25.156
  0
LINE
  8
0
 10
-3.898
 11
-4.084
 20
25.156
 21
25.347
  0
LINE
  8
0
 10
-4.084
 11
-4.157
 20
25.347
 21
25.4
  0
LINE
  8
0
 10
-4.157
 11
-4.074
 20
25.4
 21
25.364
  0
LINE
  8
0
 10
-4.074
 11
-3.816
 20
25.364
 21
25.298
  0
LINE
  8
0
 10
-3.816
 11
-3.394
 20
25.298
 21
25.263
  0
LINE
  8
0
 10
-3.394
 11
-2.845
 20
25.263
 21
25.313
  0
LINE
  8
0
 10
-2.845
 11
-2.225
 20
25.313
 21
25.48
  0
LINE
  8
0
 10
-2.225
 11
-1.6
 20
25.48
 21
25.772
  0
LINE
  8
0
 10
-1.6
 11
-1.035
 20
25.772
 21
26.167
  0
LINE
  8
0
 10
-1.035
 11
-0.581
 20
26.167
 21
26.62
  0
LINE
  8
0
 10
-0.581
 11
-0.263
 20
26.62
 21
27.071
  0
LINE
  8
0
 10
-0.263
 11
-0.082
 20
27.071
 21
27.454
  0
LINE
  8
0
 10
-0.082
 11
-0.011
 20
27.454
 21
27.71
  0
LINE
  8
0
 10
-0.011
 11
0
 20
27.71
 21
27.8
  0
LINE
  8
0
 10
0
 11
0.01
 20
27.8
 21
27.711
  0
LINE
  8
0
 10
0.01
 11
0.082
 20
27.711
 21
27.454
  0
LINE
  8
0
 10
0.082
 11
0.263
 20
27.454
 21
27.071
  0
LINE
  8
0
 10
0.263
 11
0.58
 20
27.071
 21
26.62
  0
LINE
  8
0
 10
0.58
 11
1.035
 20
26.62
 21
26.167
  0
LINE
  8
0
 10
1.035
 11
1.6
 20
26.167
 21
25.772
  0
LINE
  8
0
 10
1.6
 11
2.224
 20
25.772
 21
25.48
  0
LINE
  8
0
 10
2.224
 11
2.845
 20
25.48
 21
25.313
  0
LINE
  8
0
 10
2.845
 11
3.394
 20
25.313
 21
25.264
  0
LINE
  8
0
 10
3.394
 11
3.815
 20
25.264
 21
25.298
  0
LINE
  8
0
 10
3.815
 11
4.073
 20
25.298
 21
25.365
  0
LINE
  8
0
 10
4.073
 11
4.157
 20
25.365
 21
25.4
  0
LINE
  8
0
 10
4.157
 11
4.084
 20
25.4
 21
25.346
  0
LINE
  8
0
 10
4.084
 11
3.897
 20
25.346
 21
25.156
  0
LINE
  8
0
 10
3.897
 11
3.657
 20
25.156
 21
24.808
  0
LINE
  8
0
 10
3.657
 11
3.425
 20
24.808
 21
24.308
  0
LINE
  8
0
 10
3.425
 11
3.259
 20
24.308
 21
23.687
  0
LINE
  8
0
 10
3.259
 11
3.2
 20
23.687
 21
23
  0
LINE
  8
0
 10
3.2
 11
3.26
 20
23
 21
22.313
  0
LINE
  8
0
 10
3.26
 11
3.425
 20
22.313
 21
21.693
  0
LINE
  8
0
 10
3.425
 11
3.657
 20
21.693
 21
21.193
  0
LINE
  8
0
 10
3.657
 11
3.898
 20
21.193
 21
20.845
  0
LINE
  8
0
 10
3.898
 11
4.084
 20
20.845
 21
20.654
  0
LINE
  8
0
 10
4.084
 11
4.157
 20
20.654
 21
20.6
  0
LINE
  8
0
 10
4.157
 11
4.073
 20
20.6
 21
20.637
  0
LINE
  8
0
 10
4.073
 11
3.816
 20
20.637
 21
20.703
  0
LINE
  8
0
 10
3.816
 11
3.394
 20
20.703
 21
20.737
  0
LINE
  8
0
 10
3.394
 11
2.844
 20
20.737
 21
20.688
  0
LINE
  8
0
 10
2.844
 11
2.225
 20
20.688
 21
20.521
  0
LINE
  8
0
 10
2.225
 11
1.6
 20
20.521
 21
20.229
  0
LINE
  8
0
 10
1.6
 11
1.035
 20
20.229
 21
19.834
  0
LINE
  8
0
 10
1.035
 11
0.58
 20
19.834
 21
19.381
  0
LINE
  8
0
 10
0.58
 11
0.263
 20
19.381
 21
18.929
  0
LINE
  8
0
 10
0.263
 11
0.082
 20
18.929
 21
18.547
  0
LINE
  8
0
 10
0.082
 11
0.01
 20
18.547
 21
18.291
  0
LINE
  8
0
 10
0.01
 11
0
 20
18.291
 21
18.2
  0
LINE
  8
0
 10
0
 11
-0.01
 20
18.2
 21
18.29
  0
LINE
  8
0
 10
-0.01
 11
-0.082
 20
18.29
 21
18.547
  0
LINE
  8
0
 10
-0.082
 11
-0.263
 20
18.547
 21
18.93
  0
LINE
  8
0
 10
-0.263
 11
-0.58
 20
18.93
 21
19.381
  0
LINE
  8
0
 10
-0.58
 11
-1.035
 20
19.381
 21
19.833
  0
LINE
  8
0
 10
-1.035
 11
-1.6
 20
19.833
 21
20.229
  0
LINE
  8
0
 10
-1.6
 11
-2.225
 20
20.229
 21
20.521
  0
LINE
  8
0
 10
-2.225
 11
-2.845
 20
20.521
 21
20.688
  0
LINE
  8
0
 10
-2.845
 11
-3.394
 20
20.688
 21
20.737
  0
LINE
  8
0
 10
-3.394
 11
-3.816
 20
20.737
 21
20.703
  0
LINE
  8
0
 10
-3.816
 11
-4.074
 20
20.703
 21
20.636
  0
LINE
  8
0
 10
-4.074
 11
-4.157
 20
20.636
 21
20.6
  0
LINE
  8
0
 10
3.18
 11
3.261
 20
-12.99
 21
-12.981
  0
LINE
  8
0
 10
3.261
 11
3.492
 20
-12.981
 21
-12.916
  0
LINE
  8
0
 10
3.492
 11
3.836
 20
-12.916
 21
-12.754
  0
LINE
  8
0
 10
3.836
 11
4.242
 20
-12.754
 21
-12.468
  0
LINE
  8
0
 10
4.242
 11
4.65
 20
-12.468
 21
-12.058
  0
LINE
  8
0
 10
4.65
 11
5.006
 20
-12.058
 21
-11.55
  0
LINE
  8
0
 10
5.006
 11
5.268
 20
-11.55
 21
-10.988
  0
LINE
  8
0
 10
5.268
 11
5.419
 20
-10.988
 21
-10.43
  0
LINE
  8
0
 10
5.419
 11
5.464
 20
-10.43
 21
-9.935
  0
LINE
  8
0
 10
5.464
 11
5.432
 20
-9.935
 21
-9.556
  0
LINE
  8
0
 10
5.432
 11
5.372
 20
-9.556
 21
-9.324
  0
LINE
  8
0
 10
5.372
 11
5.34
 20
-9.324
 21
-9.249
  0
LINE
  8
0
 10
5.34
 11
5.389
 20
-9.249
 21
-9.314
  0
LINE
  8
0
 10
5.389
 11
5.56
 20
-9.314
 21
-9.482
  0
LINE
  8
0
 10
5.56
 11
5.873
 20
-9.482
 21
-9.699
  0
LINE
  8
0
 10
5.873
 11
6.323
 20
-9.699
 21
-9.907
  0
LINE
  8
0
 10
6.323
 11
6.882
 20
-9.907
 21
-10.056
  0
LINE
  8
0
 10
6.882
 11
7.5
 20
-10.056
 21
-10.11
  0
LINE
  8
0
 10
7.5
 11
8.118
 20
-10.11
 21
-10.056
  0
LINE
  8
0
 10
8.118
 11
8.677
 20
-10.056
 21
-9.907
  0
LINE
  8
0
 10
8.677
 11
9.127
 20
-9.907
 21
-9.699
  0
LINE
  8
0
 10
9.127
 11
9.44
 20
-9.699
 21
-9.482
  0
LINE
  8
0
 10
9.44
 11
9.611
 20
-9.482
 21
-9.314
  0
LINE
  8
0
 10
9.611
 11
9.66
 20
-9.314
 21
-9.249
  0
LINE
  8
0
 10
9.66
 11
9.628
 20
-9.249
 21
-9.324
  0
LINE
  8
0
 10
9.628
 11
9.568
 20
-9.324
 21
-9.556
  0
LINE
  8
0
 10
9.568
 11
9.536
 20
-9.556
 21
-9.935
  0
LINE
  8
0
 10
9.536
 11
9.581
 20
-9.935
 21
-10.43
  0
LINE
  8
0
 10
9.581
 11
9.732
 20
-10.43
 21
-10.988
  0
LINE
  8
0
 10
9.732
 11
9.994
 20
-10.988
 21
-11.55
  0
LINE
  8
0
 10
9.994
 11
10.35
 20
-11.55
 21
-12.058
  0
LINE
  8
0
 10
10.35
 11
10.758
 20
-12.058
 21
-12.468
  0
LINE
  8
0
 10
10.758
 11
11.164
 20
-12.468
 21
-12.754
  0
LINE
  8
0
 10
11.164
 11
11.508
 20
-12.754
 21
-12.916
  0
LINE
  8
0
 10
11.508
 11
11.739
 20
-12.916
 21
-12.981
  0
LINE
  8
0
 10
11.739
 11
11.82
 20
-12.981
 21
-12.99
  0
LINE
  8
0
 10
11.82
 11
11.739
 20
-12.99
 21
-12.999
  0
LINE
  8
0
 10
11.739
 11
11.508
 20
-12.999
 21
-13.064
  0
LINE
  8
0
 10
11.508
 11
11.164
 20
-13.064
 21
-13.226
  0
LINE
  8
0
 10
11.164
 11
10.758
 20
-13.226
 21
-13.512
  0
LINE
  8
0
 10
10.758
 11
10.35
 20
-13.512
 21
-13.922
  0
LINE
  8
0
 10
10.35
 11
9.994
 20
-13.922
 21
-14.43
  0
LINE
  8
0
 10
9.994
 11
9.732
 20
-14.43
 21
-14.992
  0
LINE
  8
0
 10
9.732
 11
9.581
 20
-14.992
 21
-15.55
  0
LINE
  8
0
 10
9.581
 11
9.536
 20
-15.55
 21
-16.045
  0
LINE
  8
0
 10
9.536
 11
9.568
 20
-16.045
 21
-16.424
  0
LINE
  8
0
 10
9.568
 11
9.628
 20
-16.424
 21
-16.656
  0
LINE
  8
0
 10
9.628
 11
9.66
 20
-16.656
 21
-16.731
  0
LINE
  8
0
 10
9.66
 11
9.611
 20
-16.731
 21
-16.666
  0
LINE
  8
0
 10
9.611
 11
9.44
 20
-16.666
 21
-16.498
  0
LINE
  8
0
 10
9.44
 11
9.127
 20
-16.498
 21
-16.281
  0
LINE
  8
0
 10
9.127
 11
8.677
 20
-16.281
 21
-16.073
  0
LINE
  8
0
 10
8.677
 11
8.118
 20
-16.073
 21
-15.924
  0
LINE
  8
0
 10
8.118
 11
7.5
 20
-15.924
 21
-15.87
  0
LINE
  8
0
 10
7.5
 11
6.882
 20
-15.87
 21
-15.924
  0
LINE
  8
0
 10
6.882
 11
6.323
 20
-15.924
 21
-16.073
  0
LINE
  8
0
 10
6.323
 11
5.873
 20
-16.073
 21
-16.281
  0
LINE
  8
0
 10
5.873
 11
5.56
 20
-16.281
 21
-16.498
  0
LINE
  8
0
 10
5.56
 11
5.389
 20
-16.498
 21
-16.666
  0
LINE
  8
0
 10
5.389
 11
5.34
 20
-16.666
 21
-16.731
  0
LINE
  8
0
 10
5.34
 11
5.372
 20
-16.731
 21
-16.656
  0
LINE
  8
0
 10
5.372
 11
5.432
 20
-16.656
 21
-16.424
  0
LINE
  8
0
 10
5.432
 11
5.464
 20
-16.424
 21
-16.045
  0
LINE
  8
0
 10
5.464
 11
5.419
 20
-16.045
 21
-15.55
  0
LINE
  8
0
 10
5.419
 11
5.268
 20
-15.55
 21
-14.992
  0
LINE
  8
0
 10
5.268
 11
5.006
 20
-14.992
 21
-14.43
  0
LINE
  8
0
 10
5.006
 11
4.65
 20
-14.43
 21
-13.922
  0
LINE
  8
0
 10
4.65
 11
4.242
 20
-13.922
 21
-13.512
  0
LINE
  8
0
 10
4.242
 11
3.836
 20
-13.512
 21
-13.226
  0
LINE
  8
0
 10
3.836
 11
3.492
 20
-13.226
 21
-13.064
  0
LINE
  8
0
 10
3.492
 11
3.261
 20
-13.064
 21
-12.999
  0
LINE
  8
0
 10
3.261
 11
3.18
 20
-12.999
 21
-12.99
  0
LINE
  8
0
 10
3.18
 11
3.261
 20
12.99
 21
12.999
  0
LINE
  8
0
 10
3.261
 11
3.492
 20
12.999
 21
13.064
  0
LINE
  8
0
 10
3.492
 11
3.836
 20
13.064
 21
13.226
  0
LINE
  8
0
 10
3.836
 11
4.242
 20
13.226
 21
13.512
  0
LINE
  8
0
 10
4.242
 11
4.65
 20
13.512
 21
13.922
  0
LINE
  8
0
 10
4.65
 11
5.006
 20
13.922
 21
14.43
  0
LINE
  8
0
 10
5.006
 11
5.268
 20
14.43
 21
14.992
  0
LINE
  8
0
 10
5.268
 11
5.419
 20
14.992
 21
15.55
  0
LINE
  8
0
 10
5.419
 11
5.464
 20
15.55
 21
16.045
  0
LINE
  8
0
 10
5.464
 11
5.432
 20
16.045
 21
16.424
  0
LINE
  8
0
 10
5.432
 11
5.372
 20
16.424
 21
16.656
  0
LINE
  8
0
 10
5.372
 11
5.34
 20
16.656
 21
16.731
  0
LINE
  8
0
 10
5.34
 11
5.389
 20
16.731
 21
16.666
  0
LINE
  8
0
 10
5.389
 11
5.56
 20
16.666
 21
16.498
  0
LINE
  8
0
 10
5.56
 11
5.873
 20
16.498
 21
16.281
  0
LINE
  8
0
 10
5.873
 11
6.323
 20
16.281
 21
16.073
  0
LINE
  8
0
 10
6.323
 11
6.882
 20
16.073
 21
15.924
  0
LINE
  8
0
 10
6.882
 11
7.5
 20
15.924
 21
15.87
  0
LINE
  8
0
 10
7.5
 11
8.118
 20
15.87
 21
15.924
  0
LINE
  8
0
 10
8.118
 11
8.677
 20
15.924
 21
16.073
  0
LINE
  8
0
 10
8.677
 11
9.127
 20
16.073
 21
16.281
  0
LINE
  8
0
 10
9.127
 11
9.44
 20
16.281
 21
16.498
  0
LINE
  8
0
 10
9.44
 11
9.611
 20
16.498
 21
16.666
  0
LINE
  8
0
 10
9.611
 11
9.66
 20
16.666
 21
16.731
  0
LINE
  8
0
 10
9.66
 11
9.628
 20
16.731
 21
16.656
  0
LINE
  8
0
 10
9.628
 11
9.568
 20
16.656
 21
16.424
  0
LINE
  8
0
 10
9.568
 11
9.536
 20
16.424
 21
16.045
  0
LINE
  8
0
 10
9.536
 11
9.581
 20
16.045
 21
15.55
  0
LINE
  8
0
 10
9.581
 11
9.732
 20
15.55
 21
14.992
  0
LINE
  8
0
 10
9.732
 11
9.994
 20
14.992
 21
14.43
  0
LINE
  8
0
 10
9.994
 11
10.35
 20
14.43
 21
13.922
  0
LINE
  8
0
 10
10.35
 11
10.758
 20
13.922
 21
13.512
  0
LINE
  8
0
 10
10.758
 11
11.164
 20
13.512
 21
13.226
  0
LINE
  8
0
 10
11.164
 11
11.508
 20
13.226
 21
13.064
  0
LINE
  8
0
 10
11.508
 11
11.739
 20
13.064
 21
12.999
  0
LINE
  8
0
 10
11.739
 11
11.82
 20
12.999
 21
12.99
  0
LINE
  8
0
 10
11.82
 11
11.739
 20
12.99
 21
12.981
  0
LINE
  8
0
 10
11.739
 11
11.508
 20
12.981
 21
12.916
  0
LINE
  8
0
 10
11.508
 11
11.164
 20
12.916
 21
12.754
  0
LINE
  8
0
 10
11.164
 11
10.758
 20
12.754
 21
12.468
  0
LINE
  8
0
 10
10.758
 11
10.35
 20
12.468
 21
12.058
  0
LINE
  8
0
 10
10.35
 11
9.994
 20
12.058
 21
11.55
  0
LINE
  8
0
 10
9.994
 11
9.732
 20
11.55
 21
10.988
  0
LINE
  8
0
 10
9.732
 11
9.581
 20
10.988
 21
10.43
  0
LINE
  8
0
 10
9.581
 11
9.536
 20
10.43
 21
9.935
  0
LINE
  8
0
 10
9.536
 11
9.568
 20
9.935
 21
9.556
  0
LINE
  8
0
 10
9.568
 11
9.628
 20
9.556
 21
9.324
  0
LINE
  8
0
 10
9.628
 11
9.66
 20
9.324
 21
9.249
  0
LINE
  8
0
 10
9.66
 11
9.611
 20
9.249
 21
9.314
  0
LINE
  8
0
 10
9.611
 11
9.44
 20
9.314
 21
9.482
  0
LINE
  8
0
 10
9.44
 11
9.127
 20
9.482
 21
9.699
  0
LINE
  8
0
 10
9.127
 11
8.677
 20
9.699
 21
9.907
  0
LINE
  8
0
 10
8.677
 11
8.118
 20
9.907
 21
10.056
  0
LINE
  8
0
 10
8.118
 11
7.5
 20
10.056
 21
10.11
  0
LINE
  8
0
 10
7.5
 11
6.882
 20
10.11
 21
10.056
  0
LINE
  8
0
 10
6.882
 11
6.323
 20
10.056
 21
9.907
  0
LINE
  8
0
 10
6.323
 11
5.873
 20
9.907
 21
9.699
  0
LINE
  8
0
 10
5.873
 11
5.56
 20
9.699
 21
9.482
  0
LINE
  8
0
 10
5.56
 11
5.389
 20
9.482
 21
9.314
  0
LINE
  8
0
 10
5.389
 11
5.34
 20
9.314
 21
9.249
  0
LINE
  8
0
 10
5.34
 11
5.372
 20
9.249
 21
9.324
  0
LINE
  8
0
 10
5.372
 11
5.432
 20
9.324
 21
9.556
  0
LINE
  8
0
 10
5.432
 11
5.464
 20
9.556
 21
9.935
  0
LINE
  8
0
 10
5.464
 11
5.419
 20
9.935
 21
10.43
  0
LINE
  8
0
 10
5.419
 11
5.268
 20
10.43
 21
10.988
  0
LINE
  8
0
 10
5.268
 11
5.006
 20
10.988
 21
11.55
  0
LINE
  8
0
 10
5.006
 11
4.65
 20
11.55
 21
12.058
  0
LINE
  8
0
 10
4.65
 11
4.242
 20
12.058
 21
12.468
  0
LINE
  8
0
 10
4.242
 11
3.836
 20
12.468
 21
12.754
  0
LINE
  8
0
 10
3.836
 11
3.492
 20
12.754
 21
12.916
  0
LINE
  8
0
 10
3.492
 11
3.261
 20
12.916
 21
12.981
  0
LINE
  8
0
 10
3.261
 11
3.18
 20
12.981
 21
12.99
  0
LINE
  8
0
 10
10.68
 11
10.761
 20
0
 21
0.009
  0
LINE
  8
0
 10
10.761
 11
10.992
 20
0.009
 21
0.074
  0
LINE
  8
0
 10
10.992
 11
11.336
 20
0.074
 21
0.236
  0
LINE
  8
0
 10
11.336
 11
11.742
 20
0.236
 21
0.522
  0
LINE
  8
0
 10
11.742
 11
12.15
 20
0.522
 21
0.932
  0
LINE
  8
0
 10
12.15
 11
12.506
 20
0.932
 21
1.44
  0
LINE
  8
0
 10
12.506
 11
12.768
 20
1.44
 21
2.002
  0
LINE
  8
0
 10
12.768
 11
12.919
 20
2.002
 21
2.56
  0
LINE
  8
0
 10
12.919
 11
12.964
 20
2.56
 21
3.055
  0
LINE
  8
0
 10
12.964
 11
12.932
 20
3.055
 21
3.434
  0
LINE
  8
0
 10
12.932
 11
12.872
 20
3.434
 21
3.666
  0
LINE
  8
0
 10
12.872
 11
12.84
 20
3.666
 21
3.741
  0
LINE
  8
0
 10
12.84
 11
12.889
 20
3.741
 21
3.676
  0
LINE
  8
0
 10
12.889
 11
13.06
 20
3.676
 21
3.508
  0
LINE
  8
0
 10
13.06
 11
13.373
 20
3.508
 21
3.291
  0
LINE
  8
0
 10
13.373
 11
13.823
 20
3.291
 21
3.083
  0
LINE
  8
0
 10
13.823
 11
14.382
 20
3.083
 21
2.934
  0
LINE
  8
0
 10
14.382
 11
15
 20
2.934
 21
2.88
  0
LINE
  8
0
 10
15
 11
15.618
 20
2.88
 21
2.934
  0
LINE
  8
0
 10
15.618
 11
16.177
 20
2.934
 21
3.083
  0
LINE
  8
0
 10
16.177
 11
16.627
 20
3.083
 21
3.291
  0
LINE
  8
0
 10
16.627
 11
16.94
 20
3.291
 21
3.508
  0
LINE
  8
0
 10
16.94
 11
17.111
 20
3.508
 21
3.676
  0
LINE
  8
0
 10
17.111
 11
17.16
 20
3.676
 21
3.741
  0
LINE
  8
0
 10
17.16
 11
17.128
 20
3.741
 21
3.666
  0
LINE
  8
0
 10
17.128
 11
17.068
 20
3.666
 21
3.434
  0
LINE
  8
0
 10
17.068
 11
17.036
 20
3.434
 21
3.055
  0
LINE
  8
0
 10
17.036
 11
17.081
 20
3.055
 21
2.56
  0
LINE
  8
0
 10
17.081
 11
17.232
 20
2.56
 21
2.002
  0
LINE
  8
0
 10
17.232
 11
17.494
 20
2.002
 21
1.44
  0
LINE
  8
0
 10
17.494
 11
17.85
 20
1.44
 21
0.932
  0
LINE
  8
0
 10
17.85
 11
18.258
 20
0.932
 21
0.522
  0
LINE
  8
0
 10
18.258
 11
18.664
 20
0.522
 21
0.236
  0
LINE
  8
0
 10
18.664
 11
19.008
 20
0.236
 21
0.074
  0
LINE
  8
0
 10
19.008
 11
19.239
 20
0.074
 21
0.009
  0
LINE
  8
0
 10
19.239
 11
19.32
 20
0.009
 21
0
  0
LINE
  8
0
 10
19.32
 11
19.239
 20
0
 21
-0.009
  0
LINE
  8
0
 10
19.239
 11
19.008
 20
-0.009
 21
-0.074
  0
LINE
  8
0
 10
19.008
 11
18.664
 20
-0.074
 21
-0.236
  0
LINE
  8
0
 10
18.664
 11
18.258
 20
-0.236
 21
-0.522
  0
LINE
  8
0
 10
18.258
 11
17.85
 20
-0.522
 21
-0.932
  0
LINE
  8
0
 10
17.85
 11
17.494
 20
-0.932
 21
-1.44
  0
LINE
  8
0
 10
17.494
 11
17.232
 20
-1.44
 21
-2.002
  0
LINE
  8
0
 10
17.232
 11
17.081
 20
-2.002
 21
-2.56
  0
LINE
  8
0
 10
17.081
 11
17.036
 20
-2.56
 21
-3.055
  0
LINE
  8
0
 10
17.036
 11
17.068
 20
-3.055
 21
-3.434
  0
LINE
  8
0
 10
17.068
 11
17.128
 20
-3.434
 21
-3.666
  0
LINE
  8
0
 10
17.128
 11
17.16
 20
-3.666
 21
-3.741
  0
LINE
  8
0
 10
17.16
 11
17.111
 20
-3.741
 21
-3.676
  0
LINE
  8
0
 10
17.111
 11
16.94
 20
-3.676
 21
-3.508
  0
LINE
  8
0
 10
16.94
 11
16.627
 20
-3.508
 21
-3.291
  0
LINE
  8
0
 10
16.627
 11
16.177
 20
-3.291
 21
-3.083
  0
LINE
  8
0
 10
16.177
 11
15.618
 20
-3.083
 21
-2.934
  0
LINE
  8
0
 10
15.618
 11
15
 20
-2.934
 21
-2.88
  0
LINE
  8
0
 10
15
 11
14.382
 20
-2.88
 21
-2.934
  0
LINE
  8
0
 10
14.382
 11
13.823
 20
-2.934
 21
-3.083
  0
LINE
  8
0
 10
13.823
 11
13.373
 20
-3.083
 21
-3.291
  0
LINE
  8
0
 10
13.373
 11
13.06
 20
-3.291
 21
-3.508
  0
LINE
  8
0
 10
13.06
 11
12.889
 20
-3.508
 21
-3.676
  0
LINE
  8
0
 10
12.889
 11
12.84
 20
-3.676
 21
-3.741
  0
LINE
  8
0
 10
12.84
 11
12.872
 20
-3.741
 21
-3.666
  0
LINE
  8
0
 10
12.872
 11
12.932
 20
-3.666
 21
-3.434
  0
LINE
  8
0
 10
12.932
 11
12.964
 20
-3.434
 21
-3.055
  0
LINE
  8
0
 10
12.964
 11
12.919
 20
-3.055
 21
-2.56
  0
LINE
  8
0
 10
12.919
 11
12.768
 20
-2.56
 21
-2.002
  0
LINE
  8
0
 10
12.768
 11
12.506
 20
-2.002
 21
-1.44
  0
LINE
  8
0
 10
12.506
 11
12.15
 20
-1.44
 21
-0.932
  0
LINE
  8
0
 10
12.15
 11
11.742
 20
-0.932
 21
-0.522
  0
LINE
  8
0
 10
11.742
 11
11.336
 20
-0.522
 21
-0.236
  0
LINE
  8
0
 10
11.336
 11
10.992
 20
-0.236
 21
-0.074
  0
LINE
  8
0
 10
10.992
 11
10.761
 20
-0.074
 21
-0.009
  0
LINE
  8
0
 10
10.761
 11
10.68
 20
-0.009
 21
0
  0
LINE
  8
0
 10
15.762
 11
15.834
 20
-13.9
 21
-13.846
  0
LINE
  8
0
 10
15.834
 11
16.021
 20
-13.846
 21
-13.656
  0
LINE
  8
0
 10
16.021
 11
16.262
 20
-13.656
 21
-13.308
  0
LINE
  8
0
 10
16.262
 11
16.494
 20
-13.308
 21
-12.808
  0
LINE
  8
0
 10
16.494
 11
16.659
 20
-12.808
 21
-12.187
  0
LINE
  8
0
 10
16.659
 11
16.719
 20
-12.187
 21
-11.5
  0
LINE
  8
0
 10
16.719
 11
16.659
 20
-11.5
 21
-10.813
  0
LINE
  8
0
 10
16.659
 11
16.494
 20
-10.813
 21
-10.193
  0
LINE
  8
0
 10
16.494
 11
16.262
 20
-10.193
 21
-9.693
  0
LINE
  8
0
 10
16.262
 11
16.021
 20
-9.693
 21
-9.345
  0
LINE
  8
0
 10
16.021
 11
15.835
 20
-9.345
 21
-9.154
  0
LINE
  8
0
 10
15.835
 11
15.762
 20
-9.154
 21
-9.1
  0
LINE
  8
0
 10
15.762
 11
15.845
 20
-9.1
 21
-9.137
  0
LINE
  8
0
 10
15.845
 11
16.103
 20
-9.137
 21
-9.203
  0
LINE
  8
0
 10
16.103
 11
16.525
 20
-9.203
 21
-9.237
  0
LINE
  8
0
 10
16.525
 11
17.074
 20
-9.237
 21
-9.188
  0
LINE
  8
0
 10
17.074
 11
17.694
 20
-9.188
 21
-9.021
  0
LINE
  8
0
 10
17.694
 11
18.319
 20
-9.021
 21
-8.729
  0
LINE
  8
0
 10
18.319
 11
18.884
 20
-8.729
 21
-8.334
  0
LINE
  8
0
 10
18.884
 11
19.338
 20
-8.334
 21
-7.881
  0
LINE
  8
0
 10
19.338
 11
19.656
 20
-7.881
 21
-7.429
  0
LINE
  8
0
 10
19.656
 11
19.837
 20
-7.429
 21
-7.047
  0
LINE
  8
0
 10
19.837
 11
19.908
 20
-7.047
 21
-6.791
  0
LINE
  8
0
 10
19.908
 11
19.919
 20
-6.791
 21
-6.7
  0
LINE
  8
0
 10
19.919
 11
19.929
 20
-6.7
 21
-6.79
  0
LINE
  8
0
 10
19.929
 11
20.001
 20
-6.79
 21
-7.047
  0
LINE
  8
0
 10
20.001
 11
20.182
 20
-7.047
 21
-7.43
  0
LINE
  8
0
 10
20.182
 11
20.499
 20
-7.43
 21
-7.881
  0
LINE
  8
0
 10
20.499
 11
20.954
 20
-7.881
 21
-8.333
  0
LINE
  8
0
 10
20.954
 11
21.519
 20
-8.333
 21
-8.729
  0
LINE
  8
0
 10
21.519
 11
22.143
 20
-8.729
 21
-9.021
  0
LINE
  8
0
 10
22.143
 11
22.764
 20
-9.021
 21
-9.188
  0
LINE
  8
0
 10
22.764
 11
23.313
 20
-9.188
 21
-9.237
  0
LINE
  8
0
 10
23.313
 11
23.734
 20
-9.237
 21
-9.203
  0
LINE
  8
0
 10
23.734
 11
23.992
 20
-9.203
 21
-9.136
  0
LINE
  8
0
 10
23.992
 11
24.076
 20
-9.136
 21
-9.1
  0
LINE
  8
0
 10
24.076
 11
24.003
 20
-9.1
 21
-9.155
  0
LINE
  8
0
 10
24.003
 11
23.816
 20
-9.155
 21
-9.345
  0
LINE
  8
0
 10
23.816
 11
23.576
 20
-9.345
 21
-9.693
  0
LINE
  8
0
 10
23.576
 11
23.344
 20
-9.693
 21
-10.193
  0
LINE
  8
0
 10
23.344
 11
23.178
 20
-10.193
 21
-10.814
  0
LINE
  8
0
 10
23.178
 11
23.119
 20
-10.814
 21
-11.501
  0
LINE
  8
0
 10
23.119
 11
23.179
 20
-11.501
 21
-12.187
  0
LINE
  8
0
 10
23.179
 11
23.344
 20
-12.187
 21
-12.808
  0
LINE
  8
0
 10
23.344
 11
23.576
 20
-12.808
 21
-13.308
  0
LINE
  8
0
 10
23.576
 11
23.817
 20
-13.308
 21
-13.656
  0
LINE
  8
0
 10
23.817
 11
24.003
 20
-13.656
 21
-13.847
  0
LINE
  8
0
 10
24.003
 11
24.076
 20
-13.847
 21
-13.9
  0
LINE
  8
0
 10
24.076
 11
23.992
 20
-13.9
 21
-13.864
  0
LINE
  8
0
 10
23.992
 11
23.735
 20
-13.864
 21
-13.798
  0
LINE
  8
0
 10
23.735
 11
23.313
 20
-13.798
 21
-13.763
  0
LINE
  8
0
 10
23.313
 11
22.763
 20
-13.763
 21
-13.813
  0
LINE
  8
0
 10
22.763
 11
22.144
 20
-13.813
 21
-13.98
  0
LINE
  8
0
 10
22.144
 11
21.519
 20
-13.98
 21
-14.272
  0
LINE
  8
0
 10
21.519
 11
20.954
 20
-14.272
 21
-14.667
  0
LINE
  8
0
 10
20.954
 11
20.499
 20
-14.667
 21
-15.12
  0
LINE
  8
0
 10
20.499
 11
20.182
 20
-15.12
 21
-15.571
  0
LINE
  8
0
 10
20.182
 11
20.001
 20
-15.571
 21
-15.954
  0
LINE
  8
0
 10
20.001
 11
19.929
 20
-15.954
 21
-16.21
  0
LINE
  8
0
 10
19.929
 11
19.919
 20
-16.21
 21
-16.3
  0
LINE
  8
0
 10
19.919
 11
19.909
 20
-16.3
 21
-16.211
  0
LINE
  8
0
 10
19.909
 11
19.837
 20
-16.211
 21
-15.954
  0
LINE
  8
0
 10
19.837
 11
19.656
 20
-15.954
 21
-15.571
  0
LINE
  8
0
 10
19.656
 11
19.339
 20
-15.571
 21
-15.12
  0
LINE
  8
0
 10
19.339
 11
18.884
 20
-15.12
 21
-14.667
  0
LINE
  8
0
 10
18.884
 11
18.319
 20
-14.667
 21
-14.272
  0
LINE
  8
0
 10
18.319
 11
17.694
 20
-14.272
 21
-13.98
  0
LINE
  8
0
 10
17.694
 11
17.074
 20
-13.98
 21
-13.813
  0
LINE
  8
0
 10
17.074
 11
16.525
 20
-13.813
 21
-13.764
  0
LINE
  8
0
 10
16.525
 11
16.103
 20
-13.764
 21
-13.798
  0
LINE
  8
0
 10
16.103
 11
15.845
 20
-13.798
 21
-13.865
  0
LINE
  8
0
 10
15.845
 11
15.762
 20
-13.865
 21
-13.9
  0
LINE
  8
0
 10
15.762
 11
15.834
 20
9.1
 21
9.155
  0
LINE
  8
0
 10
15.834
 11
16.021
 20
9.155
 21
9.345
  0
LINE
  8
0
 10
16.021
 11
16.261
 20
9.345
 21
9.692
  0
LINE
  8
0
 10
16.261
 11
16.494
 20
9.692
 21
10.192
  0
LINE
  8
0
 10
16.494
 11
16.659
 20
10.192
 21
10.813
  0
LINE
  8
0
 10
16.659
 11
16.719
 20
10.813
 21
11.5
  0
LINE
  8
0
 10
16.719
 11
16.658
 20
11.5
 21
12.187
  0
LINE
  8
0
 10
16.658
 11
16.494
 20
12.187
 21
12.808
  0
LINE
  8
0
 10
16.494
 11
16.262
 20
12.808
 21
13.308
  0
LINE
  8
0
 10
16.262
 11
16.02
 20
13.308
 21
13.656
  0
LINE
  8
0
 10
16.02
 11
15.834
 20
13.656
 21
13.846
  0
LINE
  8
0
 10
15.834
 11
15.762
 20
13.846
 21
13.9
  0
LINE
  8
0
 10
15.762
 11
15.845
 20
13.9
 21
13.864
  0
LINE
  8
0
 10
15.845
 11
16.102
 20
13.864
 21
13.798
  0
LINE
  8
0
 10
16.102
 11
16.524
 20
13.798
 21
13.763
  0
LINE
  8
0
 10
16.524
 11
17.074
 20
13.763
 21
13.813
  0
LINE
  8
0
 10
17.074
 11
17.694
 20
13.813
 21
13.98
  0
LINE
  8
0
 10
17.694
 11
18.319
 20
13.98
 21
14.271
  0
LINE
  8
0
 10
18.319
 11
18.884
 20
14.271
 21
14.667
  0
LINE
  8
0
 10
18.884
 11
19.338
 20
14.667
 21
15.12
  0
LINE
  8
0
 10
19.338
 11
19.656
 20
15.12
 21
15.571
  0
LINE
  8
0
 10
19.656
 11
19.837
 20
15.571
 21
15.954
  0
LINE
  8
0
 10
19.837
 11
19.908
 20
15.954
 21
16.21
  0
LINE
  8
0
 10
19.908
 11
19.919
 20
16.21
 21
16.3
  0
LINE
  8
0
 10
19.919
 11
19.929
 20
16.3
 21
16.21
  0
LINE
  8
0
 10
19.929
 11
20.001
 20
16.21
 21
15.954
  0
LINE
  8
0
 10
20.001
 11
20.181
 20
15.954
 21
15.571
  0
LINE
  8
0
 10
20.181
 11
20.498
 20
15.571
 21
15.12
  0
LINE
  8
0
 10
20.498
 11
20.954
 20
15.12
 21
14.667
  0
LINE
  8
0
 10
20.954
 11
21.518
 20
14.667
 21
14.271
  0
LINE
  8
0
 10
21.518
 11
22.143
 20
14.271
 21
13.979
  0
LINE
  8
0
 10
22.143
 11
22.764
 20
13.979
 21
13.812
  0
LINE
  8
0
 10
22.764
 11
23.313
 20
13.812
 21
13.763
  0
LINE
  8
0
 10
23.313
 11
23.734
 20
13.763
 21
13.798
  0
LINE
  8
0
 10
23.734
 11
23.992
 20
13.798
 21
13.865
  0
LINE
  8
0
 10
23.992
 11
24.076
 20
13.865
 21
13.9
  0
LINE
  8
0
 10
24.076
 11
24.003
 20
13.9
 21
13.845
  0
LINE
  8
0
 10
24.003
 11
23.816
 20
13.845
 21
13.655
  0
LINE
  8
0
 10
23.816
 11
23.576
 20
13.655
 21
13.308
  0
LINE
  8
0
 10
23.576
 11
23.344
 20
13.308
 21
12.808
  0
LINE
  8
0
 10
23.344
 11
23.178
 20
12.808
 21
12.187
  0
LINE
  8
0
 10
23.178
 11
23.118
 20
12.187
 21
11.5
  0
LINE
  8
0
 10
23.118
 11
23.179
 20
11.5
 21
10.813
  0
LINE
  8
0
 10
23.179
 11
23.343
 20
10.813
 21
10.192
  0
LINE
  8
0
 10
23.343
 11
23.575
 20
10.192
 21
9.692
  0
LINE
  8
0
 10
23.575
 11
23.817
 20
9.692
 21
9.344
  0
LINE
  8
0
 10
23.817
 11
24.003
 20
9.344
 21
9.154
  0
LINE
  8
0
 10
24.003
 11
24.076
 20
9.154
 21
9.1
  0
LINE
  8
0
 10
24.076
 11
23.992
 20
9.1
 21
9.136
  0
LINE
  8
0
 10
23.992
 11
23.735
 20
9.136
 21
9.202
  0
LINE
  8
0
 10
23.735
 11
23.313
 20
9.202
 21
9.237
  0
LINE
  8
0
 10
23.313
 11
22.763
 20
9.237
 21
9.187
  0
LINE
  8
0
 10
22.763
 11
22.144
 20
9.187
 21
9.02
  0
LINE
  8
0
 10
22.144
 11
21.519
 20
9.02
 21
8.729
  0
LINE
  8
0
 10
21.519
 11
20.954
 20
8.729
 21
8.333
  0
LINE
  8
0
 10
20.954
 11
20.499
 20
8.333
 21
7.88
  0
LINE
  8
0
 10
20.499
 11
20.181
 20
7.88
 21
7.429
  0
LINE
  8
0
 10
20.181
 11
20
 20
7.429
 21
7.046
  0
LINE
  8
0
 10
20
 11
19.929
 20
7.046
 21
6.79
  0
LINE
  8
0
 10
19.929
 11
19.919
 20
6.79
 21
6.7
  0
LINE
  8
0
 10
19.919
 11
19.908
 20
6.7
 21
6.79
  0
LINE
  8
0
 10
19.908
 11
19.836
 20
6.79
 21
7.046
  0
LINE
  8
0
 10
19.836
 11
19.656
 20
7.046
 21
7.429
  0
LINE
  8
0
 10
19.656
 11
19.339
 20
7.429
 21
7.88
  0
LINE
  8
0
 10
19.339
 11
18.883
 20
7.88
 21
8.333
  0
LINE
  8
0
 10
18.883
 11
18.319
 20
8.333
 21
8.729
  0
LINE
  8
0
 10
18.319
 11
17.694
 20
8.729
 21
9.021
  0
LINE
  8
0
 10
17.694
 11
17.074
 20
9.021
 21
9.188
  0
LINE
  8
0
 10
17.074
 11
16.524
 20
9.188
 21
9.237
  0
LINE
  8
0
 10
16.524
 11
16.103
 20
9.237
 21
9.202
  0
LINE
  8
0
 10
16.103
 11
15.845
 20
9.202
 21
9.135
  0
LINE
  8
0
 10
15.845
 11
15.762
 20
9.135
 21
9.1
  0
ENDSEC
  0
SECTION
  2
OBJECTS
  0
DICTIONARY
  0
ENDSEC
  0
EOF
