0
SECTION
2
HEADER
9
$ACADVER
1
AC1009
0
ENDSEC
0
SECTION
2
TABLES
0
TABLE
2
LAYER
70
1
0
LAYER
2
13_39000
70
0
62
7
6
CONTINUOUS
0
ENDTAB
0
ENDSEC
0
SECTION
2
BLOCKS
0
ENDSEC
0
SECTION
2
ENTITIES
0
POLYLINE
8
13_39000
62
5
0
VERTEX
8
13_39000
10
20.39800
20
183.58601
30
39.00000
0
VERTEX
8
13_39000
10
156.49001
20
183.37401
30
39.00000
0
VERTEX
8
13_39000
10
20.39800
20
183.58601
30
39.00000
0
SEQEND
8
13_39000
0
POLYLINE
8
13_39000
62
5
0
VERTEX
8
13_39000
10
49.28600
20
183.89801
30
39.00000
0
VERTEX
8
13_39000
10
15.17800
20
184.06601
30
39.00000
0
VERTEX
8
13_39000
10
49.28600
20
183.89801
30
39.00000
0
SEQEND
8
13_39000
0
POLYLINE
8
13_39000
62
5
0
VERTEX
8
13_39000
10
121.44000
20
183.52400
30
39.00000
0
VERTEX
8
13_39000
10
16.29400
20
183.97401
30
39.00000
0
VERTEX
8
13_39000
10
16.23600
20
183.98201
30
39.00000
0
VERTEX
8
13_39000
10
121.44000
20
183.52400
30
39.00000
0
SEQEND
8
13_39000
0
POLYLINE
8
13_39000
62
5
0
VERTEX
8
13_39000
10
55.00300
20
182.12901
30
39.00000
0
VERTEX
8
13_39000
10
156.49001
20
183.37401
30
39.00000
0
VERTEX
8
13_39000
10
30.02200
20
181.81201
30
39.00000
0
VERTEX
8
13_39000
10
29.98200
20
181.82001
30
39.00000
0
VERTEX
8
13_39000
10
55.00300
20
182.12901
30
39.00000
0
SEQEND
8
13_39000
0
POLYLINE
8
13_39000
62
5
0
VERTEX
8
13_39000
10
120.91200
20
183.56001
30
39.00000
0
VERTEX
8
13_39000
10
14.18000
20
184.12001
30
39.00000
0
VERTEX
8
13_39000
10
14.01400
20
184.12801
30
39.00000
0
VERTEX
8
13_39000
10
120.91200
20
183.56001
30
39.00000
0
SEQEND
8
13_39000
0
POLYLINE
8
13_39000
62
5
0
VERTEX
8
13_39000
10
98.19601
20
181.70001
30
39.00000
0
VERTEX
8
13_39000
10
39.88800
20
180.02600
30
39.00000
0
VERTEX
8
13_39000
10
98.19601
20
181.70001
30
39.00000
0
SEQEND
8
13_39000
0
POLYLINE
8
13_39000
62
5
0
VERTEX
8
13_39000
10
9.80200
20
35.00400
30
39.00000
0
VERTEX
8
13_39000
10
10.06800
20
32.85600
30
39.00000
0
VERTEX
8
13_39000
10
10.16600
20
32.19600
30
39.00000
0
VERTEX
8
13_39000
10
10.97400
20
25.96900
30
39.00000
0
VERTEX
8
13_39000
10
11.12000
20
24.75600
30
39.00000
0
VERTEX
8
13_39000
10
11.18800
20
24.29200
30
39.00000
0
VERTEX
8
13_39000
10
11.61200
20
20.88000
30
39.00000
0
VERTEX
8
13_39000
10
11.78200
20
19.44200
30
39.00000
0
VERTEX
8
13_39000
10
11.97100
20
18.00700
30
39.00000
0
VERTEX
8
13_39000
10
12.08100
20
17.06000
30
39.00000
0
VERTEX
8
13_39000
10
12.59600
20
12.96700
30
39.00000
0
VERTEX
8
13_39000
10
12.98500
20
9.73500
30
39.00000
0
VERTEX
8
13_39000
10
13.40500
20
6.14500
30
39.00000
0
VERTEX
8
13_39000
10
13.54500
20
4.91800
30
39.00000
0
VERTEX
8
13_39000
10
13.59200
20
4.43800
30
39.00000
0
VERTEX
8
13_39000
10
13.99600
20
0.92600
30
39.00000
0
VERTEX
8
13_39000
10
14.09200
20
0.00600
30
39.00000
0
VERTEX
8
13_39000
10
158.53401
20
0.00600
30
39.00000
0
VERTEX
8
13_39000
10
158.60600
20
1.23800
30
39.00000
0
VERTEX
8
13_39000
10
158.65800
20
1.95200
30
39.00000
0
VERTEX
8
13_39000
10
158.71600
20
3.05000
30
39.00000
0
VERTEX
8
13_39000
10
158.80801
20
4.49800
30
39.00000
0
VERTEX
8
13_39000
10
158.83601
20
5.24400
30
39.00000
0
VERTEX
8
13_39000
10
159.03401
20
9.36600
30
39.00000
0
VERTEX
8
13_39000
10
159.17001
20
13.46000
30
39.00000
0
VERTEX
8
13_39000
10
159.17201
20
13.79500
30
39.00000
0
VERTEX
8
13_39000
10
159.22601
20
15.35400
30
39.00000
0
VERTEX
8
13_39000
10
159.24800
20
16.41000
30
39.00000
0
VERTEX
8
13_39000
10
159.28700
20
19.15600
30
39.00000
0
VERTEX
8
13_39000
10
159.32301
20
20.77500
30
39.00000
0
VERTEX
8
13_39000
10
159.33000
20
21.46500
30
39.00000
0
VERTEX
8
13_39000
10
159.32401
20
22.29600
30
39.00000
0
VERTEX
8
13_39000
10
159.32800
20
24.20500
30
39.00000
0
VERTEX
8
13_39000
10
159.31401
20
25.82400
30
39.00000
0
VERTEX
8
13_39000
10
159.25900
20
29.72900
30
39.00000
0
VERTEX
8
13_39000
10
159.19000
20
32.17400
30
39.00000
0
VERTEX
8
13_39000
10
159.15800
20
32.93000
30
39.00000
0
VERTEX
8
13_39000
10
159.11101
20
34.91500
30
39.00000
0
VERTEX
8
13_39000
10
159.04800
20
36.57400
30
39.00000
0
VERTEX
8
13_39000
10
158.98201
20
38.62300
30
39.00000
0
VERTEX
8
13_39000
10
158.93001
20
39.77200
30
39.00000
0
VERTEX
8
13_39000
10
158.85600
20
41.76800
30
39.00000
0
VERTEX
8
13_39000
10
158.71400
20
44.57600
30
39.00000
0
VERTEX
8
13_39000
10
158.56401
20
48.22800
30
39.00000
0
VERTEX
8
13_39000
10
158.55602
20
48.54800
30
39.00000
0
VERTEX
8
13_39000
10
158.55801
20
50.09600
30
39.00000
0
VERTEX
8
13_39000
10
158.62201
20
51.99800
30
39.00000
0
VERTEX
8
13_39000
10
158.62801
20
52.45500
30
39.00000
0
VERTEX
8
13_39000
10
158.63000
20
53.08600
30
39.00000
0
VERTEX
8
13_39000
10
158.59601
20
54.33600
30
39.00000
0
VERTEX
8
13_39000
10
158.54800
20
55.06100
30
39.00000
0
VERTEX
8
13_39000
10
158.50401
20
55.54400
30
39.00000
0
VERTEX
8
13_39000
10
158.45601
20
56.73000
30
39.00000
0
VERTEX
8
13_39000
10
158.40800
20
57.14000
30
39.00000
0
VERTEX
8
13_39000
10
158.33000
20
57.56200
30
39.00000
0
VERTEX
8
13_39000
10
158.33000
20
58.33400
30
39.00000
0
VERTEX
8
13_39000
10
158.31601
20
58.72800
30
39.00000
0
VERTEX
8
13_39000
10
158.23901
20
59.44900
30
39.00000
0
VERTEX
8
13_39000
10
158.17401
20
59.94800
30
39.00000
0
VERTEX
8
13_39000
10
158.10400
20
60.36400
30
39.00000
0
VERTEX
8
13_39000
10
158.04800
20
60.77200
30
39.00000
0
VERTEX
8
13_39000
10
158.02200
20
61.16800
30
39.00000
0
VERTEX
8
13_39000
10
157.97801
20
61.57200
30
39.00000
0
VERTEX
8
13_39000
10
157.94801
20
61.96800
30
39.00000
0
VERTEX
8
13_39000
10
157.88200
20
63.43600
30
39.00000
0
VERTEX
8
13_39000
10
157.84401
20
63.93200
30
39.00000
0
VERTEX
8
13_39000
10
157.79800
20
64.33400
30
39.00000
0
VERTEX
8
13_39000
10
157.69200
20
65.52200
30
39.00000
0
VERTEX
8
13_39000
10
157.65201
20
66.68600
30
39.00000
0
VERTEX
8
13_39000
10
157.61601
20
67.08400
30
39.00000
0
VERTEX
8
13_39000
10
157.62201
20
67.46201
30
39.00000
0
VERTEX
8
13_39000
10
157.60001
20
67.85400
30
39.00000
0
VERTEX
8
13_39000
10
157.53801
20
68.64001
30
39.00000
0
VERTEX
8
13_39000
10
157.50900
20
69.30701
30
39.00000
0
VERTEX
8
13_39000
10
157.45801
20
70.19601
30
39.00000
0
VERTEX
8
13_39000
10
157.42001
20
71.35201
30
39.00000
0
VERTEX
8
13_39000
10
157.37801
20
71.74600
30
39.00000
0
VERTEX
8
13_39000
10
157.35400
20
72.13400
30
39.00000
0
VERTEX
8
13_39000
10
157.34601
20
72.51801
30
39.00000
0
VERTEX
8
13_39000
10
157.32401
20
72.90401
30
39.00000
0
VERTEX
8
13_39000
10
157.30000
20
73.67400
30
39.00000
0
VERTEX
8
13_39000
10
157.22801
20
75.21600
30
39.00000
0
VERTEX
8
13_39000
10
157.18401
20
77.13200
30
39.00000
0
VERTEX
8
13_39000
10
157.15800
20
77.51801
30
39.00000
0
VERTEX
8
13_39000
10
157.18001
20
78.27400
30
39.00000
0
VERTEX
8
13_39000
10
157.17601
20
78.54000
30
39.00000
0
VERTEX
8
13_39000
10
157.14401
20
79.42600
30
39.00000
0
VERTEX
8
13_39000
10
157.09401
20
80.19601
30
39.00000
0
VERTEX
8
13_39000
10
157.10201
20
81.33200
30
39.00000
0
VERTEX
8
13_39000
10
157.06201
20
82.48000
30
39.00000
0
VERTEX
8
13_39000
10
157.00900
20
83.50900
30
39.00000
0
VERTEX
8
13_39000
10
156.95201
20
84.39600
30
39.00000
0
VERTEX
8
13_39000
10
156.96800
20
85.15200
30
39.00000
0
VERTEX
8
13_39000
10
156.96301
20
85.41400
30
39.00000
0
VERTEX
8
13_39000
10
156.93401
20
86.41500
30
39.00000
0
VERTEX
8
13_39000
10
156.90001
20
87.05601
30
39.00000
0
VERTEX
8
13_39000
10
156.86601
20
88.07700
30
39.00000
0
VERTEX
8
13_39000
10
156.86601
20
88.57800
30
39.00000
0
VERTEX
8
13_39000
10
156.90800
20
89.33401
30
39.00000
0
VERTEX
8
13_39000
10
156.90201
20
90.47201
30
39.00000
0
VERTEX
8
13_39000
10
156.94000
20
91.22800
30
39.00000
0
VERTEX
8
13_39000
10
156.94400
20
92.24700
30
39.00000
0
VERTEX
8
13_39000
10
156.93401
20
92.74600
30
39.00000
0
VERTEX
8
13_39000
10
156.93800
20
93.50600
30
39.00000
0
VERTEX
8
13_39000
10
156.92700
20
94.28101
30
39.00000
0
VERTEX
8
13_39000
10
156.90201
20
95.78201
30
39.00000
0
VERTEX
8
13_39000
10
156.86601
20
97.29800
30
39.00000
0
VERTEX
8
13_39000
10
156.90601
20
98.05801
30
39.00000
0
VERTEX
8
13_39000
10
156.89001
20
98.81600
30
39.00000
0
VERTEX
8
13_39000
10
156.90201
20
100.71201
30
39.00000
0
VERTEX
8
13_39000
10
156.91400
20
101.73100
30
39.00000
0
VERTEX
8
13_39000
10
156.94601
20
102.99200
30
39.00000
0
VERTEX
8
13_39000
10
156.95201
20
104.13200
30
39.00000
0
VERTEX
8
13_39000
10
156.94400
20
104.89001
30
39.00000
0
VERTEX
8
13_39000
10
156.95801
20
106.29001
30
39.00000
0
VERTEX
8
13_39000
10
156.96301
20
108.19000
30
39.00000
0
VERTEX
8
13_39000
10
156.99600
20
109.83201
30
39.00000
0
VERTEX
8
13_39000
10
156.98801
20
111.23300
30
39.00000
0
VERTEX
8
13_39000
10
157.03001
20
113.28700
30
39.00000
0
VERTEX
8
13_39000
10
157.04800
20
115.54401
30
39.00000
0
VERTEX
8
13_39000
10
157.15001
20
116.71400
30
39.00000
0
VERTEX
8
13_39000
10
157.16801
20
117.09601
30
39.00000
0
VERTEX
8
13_39000
10
157.16801
20
117.47800
30
39.00000
0
VERTEX
8
13_39000
10
157.13301
20
118.11401
30
39.00000
0
VERTEX
8
13_39000
10
157.11801
20
118.60400
30
39.00000
0
VERTEX
8
13_39000
10
157.13400
20
119.75201
30
39.00000
0
VERTEX
8
13_39000
10
157.13000
20
120.51201
30
39.00000
0
VERTEX
8
13_39000
10
157.14201
20
121.27601
30
39.00000
0
VERTEX
8
13_39000
10
157.18001
20
122.05201
30
39.00000
0
VERTEX
8
13_39000
10
157.20001
20
123.20000
30
39.00000
0
VERTEX
8
13_39000
10
157.29800
20
125.90401
30
39.00000
0
VERTEX
8
13_39000
10
157.35001
20
127.06801
30
39.00000
0
VERTEX
8
13_39000
10
157.41801
20
127.85801
30
39.00000
0
VERTEX
8
13_39000
10
157.42601
20
128.24400
30
39.00000
0
VERTEX
8
13_39000
10
157.47200
20
129.02800
30
39.00000
0
VERTEX
8
13_39000
10
157.46800
20
129.40800
30
39.00000
0
VERTEX
8
13_39000
10
157.51201
20
130.19200
30
39.00000
0
VERTEX
8
13_39000
10
157.52200
20
130.96201
30
39.00000
0
VERTEX
8
13_39000
10
157.56100
20
131.84700
30
39.00000
0
VERTEX
8
13_39000
10
157.62801
20
134.45401
30
39.00000
0
VERTEX
8
13_39000
10
157.72601
20
136.03801
30
39.00000
0
VERTEX
8
13_39000
10
157.74301
20
136.71201
30
39.00000
0
VERTEX
8
13_39000
10
157.76601
20
137.21001
30
39.00000
0
VERTEX
8
13_39000
10
157.80400
20
137.61200
30
39.00000
0
VERTEX
8
13_39000
10
157.80801
20
138.48001
30
39.00000
0
VERTEX
8
13_39000
10
157.80400
20
138.76201
30
39.00000
0
VERTEX
8
13_39000
10
157.74600
20
139.88200
30
39.00000
0
VERTEX
8
13_39000
10
157.66400
20
140.98401
30
39.00000
0
VERTEX
8
13_39000
10
157.54401
20
143.21001
30
39.00000
0
VERTEX
8
13_39000
10
157.39001
20
144.64201
30
39.00000
0
VERTEX
8
13_39000
10
157.32600
20
145.36401
30
39.00000
0
VERTEX
8
13_39000
10
157.22801
20
147.20401
30
39.00000
0
VERTEX
8
13_39000
10
157.18201
20
147.93600
30
39.00000
0
VERTEX
8
13_39000
10
157.17601
20
148.31201
30
39.00000
0
VERTEX
8
13_39000
10
157.09300
20
150.42001
30
39.00000
0
VERTEX
8
13_39000
10
157.07001
20
151.66000
30
39.00000
0
VERTEX
8
13_39000
10
157.00201
20
152.75201
30
39.00000
0
VERTEX
8
13_39000
10
157.00801
20
153.13400
30
39.00000
0
VERTEX
8
13_39000
10
156.99400
20
153.50401
30
39.00000
0
VERTEX
8
13_39000
10
156.96001
20
153.85800
30
39.00000
0
VERTEX
8
13_39000
10
156.95601
20
154.23401
30
39.00000
0
VERTEX
8
13_39000
10
156.88400
20
154.94000
30
39.00000
0
VERTEX
8
13_39000
10
156.85001
20
155.67201
30
39.00000
0
VERTEX
8
13_39000
10
156.78001
20
156.75401
30
39.00000
0
VERTEX
8
13_39000
10
156.73201
20
158.10501
30
39.00000
0
VERTEX
8
13_39000
10
156.65401
20
159.29601
30
39.00000
0
VERTEX
8
13_39000
10
156.62500
20
160.15601
30
39.00000
0
VERTEX
8
13_39000
10
156.59401
20
160.76401
30
39.00000
0
VERTEX
8
13_39000
10
156.58601
20
161.13600
30
39.00000
0
VERTEX
8
13_39000
10
156.53201
20
162.22000
30
39.00000
0
VERTEX
8
13_39000
10
156.49701
20
163.19301
30
39.00000
0
VERTEX
8
13_39000
10
156.47000
20
163.67601
30
39.00000
0
VERTEX
8
13_39000
10
156.41200
20
165.13400
30
39.00000
0
VERTEX
8
13_39000
10
156.38200
20
166.61401
30
39.00000
0
VERTEX
8
13_39000
10
156.34201
20
167.70601
30
39.00000
0
VERTEX
8
13_39000
10
156.35101
20
168.71301
30
39.00000
0
VERTEX
8
13_39000
10
156.34401
20
169.59201
30
39.00000
0
VERTEX
8
13_39000
10
156.37201
20
171.88000
30
39.00000
0
VERTEX
8
13_39000
10
156.40201
20
172.66000
30
39.00000
0
VERTEX
8
13_39000
10
156.42001
20
174.18800
30
39.00000
0
VERTEX
8
13_39000
10
156.45401
20
174.97801
30
39.00000
0
VERTEX
8
13_39000
10
156.46201
20
175.36401
30
39.00000
0
VERTEX
8
13_39000
10
156.46101
20
176.73801
30
39.00000
0
VERTEX
8
13_39000
10
156.44701
20
177.85501
30
39.00000
0
VERTEX
8
13_39000
10
156.45100
20
181.13701
30
39.00000
0
VERTEX
8
13_39000
10
156.45901
20
181.64001
30
39.00000
0
VERTEX
8
13_39000
10
156.48201
20
182.17401
30
39.00000
0
VERTEX
8
13_39000
10
156.47701
20
182.79401
30
39.00000
0
VERTEX
8
13_39000
10
156.49001
20
183.37401
30
39.00000
0
VERTEX
8
13_39000
10
10.57000
20
184.24600
30
39.00000
0
VERTEX
8
13_39000
10
10.51600
20
183.30801
30
39.00000
0
VERTEX
8
13_39000
10
10.45800
20
181.85800
30
39.00000
0
VERTEX
8
13_39000
10
10.32600
20
180.11201
30
39.00000
0
VERTEX
8
13_39000
10
10.26400
20
179.03601
30
39.00000
0
VERTEX
8
13_39000
10
10.05600
20
176.60001
30
39.00000
0
VERTEX
8
13_39000
10
9.86800
20
174.89401
30
39.00000
0
VERTEX
8
13_39000
10
9.81200
20
174.18800
30
39.00000
0
VERTEX
8
13_39000
10
9.69400
20
173.16602
30
39.00000
0
VERTEX
8
13_39000
10
9.28200
20
173.20401
30
39.00000
0
VERTEX
8
13_39000
10
9.23400
20
172.48201
30
39.00000
0
VERTEX
8
13_39000
10
9.16400
20
171.71501
30
39.00000
0
VERTEX
8
13_39000
10
9.00400
20
170.41000
30
39.00000
0
VERTEX
8
13_39000
10
8.90400
20
169.73801
30
39.00000
0
VERTEX
8
13_39000
10
8.68000
20
168.07901
30
39.00000
0
VERTEX
8
13_39000
10
8.39700
20
166.32800
30
39.00000
0
VERTEX
8
13_39000
10
8.27900
20
165.67001
30
39.00000
0
VERTEX
8
13_39000
10
8.09400
20
164.70601
30
39.00000
0
VERTEX
8
13_39000
10
8.02300
20
164.39900
30
39.00000
0
VERTEX
8
13_39000
10
7.88600
20
163.73001
30
39.00000
0
VERTEX
8
13_39000
10
7.79900
20
163.38200
30
39.00000
0
VERTEX
8
13_39000
10
9.01800
20
162.85301
30
39.00000
0
VERTEX
8
13_39000
10
10.03200
20
162.32401
30
39.00000
0
VERTEX
8
13_39000
10
10.18600
20
162.20601
30
39.00000
0
VERTEX
8
13_39000
10
10.72200
20
161.86401
30
39.00000
0
VERTEX
8
13_39000
10
11.54300
20
161.01300
30
39.00000
0
VERTEX
8
13_39000
10
11.71200
20
160.81801
30
39.00000
0
VERTEX
8
13_39000
10
12.22100
20
160.17300
30
39.00000
0
VERTEX
8
13_39000
10
12.41800
20
159.86301
30
39.00000
0
VERTEX
8
13_39000
10
12.75300
20
159.29701
30
39.00000
0
VERTEX
8
13_39000
10
13.15300
20
158.67500
30
39.00000
0
VERTEX
8
13_39000
10
13.76000
20
157.38400
30
39.00000
0
VERTEX
8
13_39000
10
14.07400
20
156.83701
30
39.00000
0
VERTEX
8
13_39000
10
14.43000
20
155.85400
30
39.00000
0
VERTEX
8
13_39000
10
14.82200
20
154.99901
30
39.00000
0
VERTEX
8
13_39000
10
14.95800
20
154.74901
30
39.00000
0
VERTEX
8
13_39000
10
15.01400
20
154.61601
30
39.00000
0
VERTEX
8
13_39000
10
15.21500
20
153.96800
30
39.00000
0
VERTEX
8
13_39000
10
15.40700
20
153.18701
30
39.00000
0
VERTEX
8
13_39000
10
15.51900
20
152.25201
30
39.00000
0
VERTEX
8
13_39000
10
15.54000
20
151.71101
30
39.00000
0
VERTEX
8
13_39000
10
15.52400
20
151.39700
30
39.00000
0
VERTEX
8
13_39000
10
15.56600
20
150.76801
30
39.00000
0
VERTEX
8
13_39000
10
15.59500
20
150.16000
30
39.00000
0
VERTEX
8
13_39000
10
15.58500
20
149.69701
30
39.00000
0
VERTEX
8
13_39000
10
15.65500
20
149.34601
30
39.00000
0
VERTEX
8
13_39000
10
15.79200
20
148.42801
30
39.00000
0
VERTEX
8
13_39000
10
15.81100
20
147.97200
30
39.00000
0
VERTEX
8
13_39000
10
15.86900
20
147.22101
30
39.00000
0
VERTEX
8
13_39000
10
15.84400
20
146.05501
30
39.00000
0
VERTEX
8
13_39000
10
15.82800
20
144.77200
30
39.00000
0
VERTEX
8
13_39000
10
15.84700
20
144.64500
30
39.00000
0
VERTEX
8
13_39000
10
15.74700
20
143.08301
30
39.00000
0
VERTEX
8
13_39000
10
15.61800
20
141.26601
30
39.00000
0
VERTEX
8
13_39000
10
15.49000
20
140.28401
30
39.00000
0
VERTEX
8
13_39000
10
15.02500
20
137.29201
30
39.00000
0
VERTEX
8
13_39000
10
14.16300
20
132.58400
30
39.00000
0
VERTEX
8
13_39000
10
13.90800
20
131.43300
30
39.00000
0
VERTEX
8
13_39000
10
12.79100
20
126.16200
30
39.00000
0
VERTEX
8
13_39000
10
12.69200
20
125.76900
30
39.00000
0
VERTEX
8
13_39000
10
12.10000
20
123.57001
30
39.00000
0
VERTEX
8
13_39000
10
11.89600
20
123.00401
30
39.00000
0
VERTEX
8
13_39000
10
11.78200
20
122.53001
30
39.00000
0
VERTEX
8
13_39000
10
11.57500
20
121.90501
30
39.00000
0
VERTEX
8
13_39000
10
11.47700
20
121.68001
30
39.00000
0
VERTEX
8
13_39000
10
11.35200
20
121.43900
30
39.00000
0
VERTEX
8
13_39000
10
10.88200
20
120.58401
30
39.00000
0
VERTEX
8
13_39000
10
10.76400
20
120.32900
30
39.00000
0
VERTEX
8
13_39000
10
10.45500
20
119.91701
30
39.00000
0
VERTEX
8
13_39000
10
10.25000
20
119.53700
30
39.00000
0
VERTEX
8
13_39000
10
10.03600
20
119.20901
30
39.00000
0
VERTEX
8
13_39000
10
9.99800
20
119.08201
30
39.00000
0
VERTEX
8
13_39000
10
9.64400
20
118.45701
30
39.00000
0
VERTEX
8
13_39000
10
9.53500
20
118.22501
30
39.00000
0
VERTEX
8
13_39000
10
9.45500
20
118.10001
30
39.00000
0
VERTEX
8
13_39000
10
8.89100
20
116.99300
30
39.00000
0
VERTEX
8
13_39000
10
8.71700
20
116.69201
30
39.00000
0
VERTEX
8
13_39000
10
8.70100
20
116.63200
30
39.00000
0
VERTEX
8
13_39000
10
8.56600
20
116.44801
30
39.00000
0
VERTEX
8
13_39000
10
8.39300
20
116.15501
30
39.00000
0
VERTEX
8
13_39000
10
8.16200
20
115.84100
30
39.00000
0
VERTEX
8
13_39000
10
7.66300
20
115.19901
30
39.00000
0
VERTEX
8
13_39000
10
7.19600
20
114.80601
30
39.00000
0
VERTEX
8
13_39000
10
6.94200
20
114.49001
30
39.00000
0
VERTEX
8
13_39000
10
6.75200
20
114.37301
30
39.00000
0
VERTEX
8
13_39000
10
6.54900
20
114.20300
30
39.00000
0
VERTEX
8
13_39000
10
6.26300
20
114.02300
30
39.00000
0
VERTEX
8
13_39000
10
6.37000
20
113.58000
30
39.00000
0
VERTEX
8
13_39000
10
6.69600
20
111.92600
30
39.00000
0
VERTEX
8
13_39000
10
6.82200
20
111.11001
30
39.00000
0
VERTEX
8
13_39000
10
6.99000
20
109.89800
30
39.00000
0
VERTEX
8
13_39000
10
7.22000
20
108.34200
30
39.00000
0
VERTEX
8
13_39000
10
7.35400
20
107.48601
30
39.00000
0
VERTEX
8
13_39000
10
7.40000
20
107.08801
30
39.00000
0
VERTEX
8
13_39000
10
7.43200
20
106.69401
30
39.00000
0
VERTEX
8
13_39000
10
7.56800
20
105.57401
30
39.00000
0
VERTEX
8
13_39000
10
7.63400
20
105.11001
30
39.00000
0
VERTEX
8
13_39000
10
7.71600
20
104.32401
30
39.00000
0
VERTEX
8
13_39000
10
7.74400
20
103.93201
30
39.00000
0
VERTEX
8
13_39000
10
7.77000
20
103.15401
30
39.00000
0
VERTEX
8
13_39000
10
7.79200
20
102.76401
30
39.00000
0
VERTEX
8
13_39000
10
7.98500
20
99.95901
30
39.00000
0
VERTEX
8
13_39000
10
8.04400
20
98.11001
30
39.00000
0
VERTEX
8
13_39000
10
8.08600
20
97.33601
30
39.00000
0
VERTEX
8
13_39000
10
8.10600
20
96.18001
30
39.00000
0
VERTEX
8
13_39000
10
8.13400
20
95.79601
30
39.00000
0
VERTEX
8
13_39000
10
8.18200
20
94.64001
30
39.00000
0
VERTEX
8
13_39000
10
8.24100
20
92.62401
30
39.00000
0
VERTEX
8
13_39000
10
8.25600
20
92.33200
30
39.00000
0
VERTEX
8
13_39000
10
8.31300
20
91.66300
30
39.00000
0
VERTEX
8
13_39000
10
8.34400
20
91.09100
30
39.00000
0
VERTEX
8
13_39000
10
8.41600
20
90.04000
30
39.00000
0
VERTEX
8
13_39000
10
8.42800
20
89.65601
30
39.00000
0
VERTEX
8
13_39000
10
8.41400
20
88.88800
30
39.00000
0
VERTEX
8
13_39000
10
8.44400
20
87.45700
30
39.00000
0
VERTEX
8
13_39000
10
8.49600
20
86.21201
30
39.00000
0
VERTEX
8
13_39000
10
8.48600
20
84.49700
30
39.00000
0
VERTEX
8
13_39000
10
8.45400
20
82.37400
30
39.00000
0
VERTEX
8
13_39000
10
8.40000
20
80.83000
30
39.00000
0
VERTEX
8
13_39000
10
8.41600
20
80.45000
30
39.00000
0
VERTEX
8
13_39000
10
8.41800
20
80.06600
30
39.00000
0
VERTEX
8
13_39000
10
8.39200
20
79.29401
30
39.00000
0
VERTEX
8
13_39000
10
8.40500
20
78.15501
30
39.00000
0
VERTEX
8
13_39000
10
8.40800
20
76.99800
30
39.00000
0
VERTEX
8
13_39000
10
8.38400
20
76.22200
30
39.00000
0
VERTEX
8
13_39000
10
8.41000
20
75.46400
30
39.00000
0
VERTEX
8
13_39000
10
8.41000
20
73.93000
30
39.00000
0
VERTEX
8
13_39000
10
8.42200
20
73.16400
30
39.00000
0
VERTEX
8
13_39000
10
8.40000
20
71.62200
30
39.00000
0
VERTEX
8
13_39000
10
8.43800
20
70.48400
30
39.00000
0
VERTEX
8
13_39000
10
8.44600
20
68.95600
30
39.00000
0
VERTEX
8
13_39000
10
8.43800
20
67.41801
30
39.00000
0
VERTEX
8
13_39000
10
8.40500
20
64.91500
30
39.00000
0
VERTEX
8
13_39000
10
8.37800
20
61.63800
30
39.00000
0
VERTEX
8
13_39000
10
8.33400
20
60.08200
30
39.00000
0
VERTEX
8
13_39000
10
8.33600
20
59.31600
30
39.00000
0
VERTEX
8
13_39000
10
8.36200
20
58.55800
30
39.00000
0
VERTEX
8
13_39000
10
8.36000
20
58.17600
30
39.00000
0
VERTEX
8
13_39000
10
8.37400
20
57.12800
30
39.00000
0
VERTEX
8
13_39000
10
8.40200
20
55.89600
30
39.00000
0
VERTEX
8
13_39000
10
8.40200
20
55.13000
30
39.00000
0
VERTEX
8
13_39000
10
8.41900
20
53.88900
30
39.00000
0
VERTEX
8
13_39000
10
8.47600
20
52.10600
30
39.00000
0
VERTEX
8
13_39000
10
8.49200
20
51.34800
30
39.00000
0
VERTEX
8
13_39000
10
8.58800
20
48.73000
30
39.00000
0
VERTEX
8
13_39000
10
8.63300
20
47.71700
30
39.00000
0
VERTEX
8
13_39000
10
8.71600
20
46.14200
30
39.00000
0
VERTEX
8
13_39000
10
8.80800
20
44.68000
30
39.00000
0
VERTEX
8
13_39000
10
9.03000
20
42.06400
30
39.00000
0
VERTEX
8
13_39000
10
9.32200
20
38.99400
30
39.00000
0
VERTEX
8
13_39000
10
9.62800
20
36.35700
30
39.00000
0
VERTEX
8
13_39000
10
9.72000
20
35.68700
30
39.00000
0
VERTEX
8
13_39000
10
9.80200
20
35.00400
30
39.00000
0
SEQEND
8
13_39000
0
ENDSEC
0
EOF
