0
SECTION
2
HEADER
9
$ACADVER
1
AC1009
0
ENDSEC
0
SECTION
2
TABLES
0
TABLE
2
LAYER
70
1
0
LAYER
2
22_66000
70
0
62
7
6
CONTINUOUS
0
ENDTAB
0
ENDSEC
0
SECTION
2
BLOCKS
0
ENDSEC
0
SECTION
2
ENTITIES
0
POLYLINE
8
22_66000
62
5
0
VERTEX
8
22_66000
10
109.66100
20
182.28900
30
66.00000
0
VERTEX
8
22_66000
10
68.93401
20
182.29201
30
66.00000
0
VERTEX
8
22_66000
10
30.02200
20
181.81201
30
66.00000
0
VERTEX
8
22_66000
10
29.98200
20
181.82001
30
66.00000
0
VERTEX
8
22_66000
10
68.50301
20
182.29501
30
66.00000
0
VERTEX
8
22_66000
10
27.81300
20
182.29102
30
66.00000
0
VERTEX
8
22_66000
10
27.77600
20
182.05602
30
66.00000
0
VERTEX
8
22_66000
10
27.62000
20
180.62502
30
66.00000
0
VERTEX
8
22_66000
10
27.41300
20
179.58401
30
66.00000
0
VERTEX
8
22_66000
10
27.12900
20
177.76401
30
66.00000
0
VERTEX
8
22_66000
10
27.01800
20
176.67500
30
66.00000
0
VERTEX
8
22_66000
10
26.81500
20
175.22701
30
66.00000
0
VERTEX
8
22_66000
10
26.65700
20
173.80200
30
66.00000
0
VERTEX
8
22_66000
10
26.56200
20
173.10600
30
66.00000
0
VERTEX
8
22_66000
10
26.49300
20
172.39101
30
66.00000
0
VERTEX
8
22_66000
10
26.36000
20
170.31601
30
66.00000
0
VERTEX
8
22_66000
10
26.27400
20
168.80801
30
66.00000
0
VERTEX
8
22_66000
10
26.25600
20
167.04201
30
66.00000
0
VERTEX
8
22_66000
10
26.27400
20
166.63400
30
66.00000
0
VERTEX
8
22_66000
10
26.59100
20
163.91200
30
66.00000
0
VERTEX
8
22_66000
10
26.76600
20
162.89001
30
66.00000
0
VERTEX
8
22_66000
10
26.93300
20
161.47200
30
66.00000
0
VERTEX
8
22_66000
10
27.29900
20
159.31201
30
66.00000
0
VERTEX
8
22_66000
10
27.56400
20
158.05901
30
66.00000
0
VERTEX
8
22_66000
10
28.01700
20
155.52701
30
66.00000
0
VERTEX
8
22_66000
10
28.84100
20
151.93100
30
66.00000
0
VERTEX
8
22_66000
10
29.08700
20
150.50801
30
66.00000
0
VERTEX
8
22_66000
10
29.89300
20
146.12401
30
66.00000
0
VERTEX
8
22_66000
10
30.01500
20
144.99200
30
66.00000
0
VERTEX
8
22_66000
10
30.12200
20
144.58601
30
66.00000
0
VERTEX
8
22_66000
10
30.23900
20
143.86301
30
66.00000
0
VERTEX
8
22_66000
10
30.62700
20
142.81401
30
66.00000
0
VERTEX
8
22_66000
10
30.73800
20
140.82901
30
66.00000
0
VERTEX
8
22_66000
10
30.82300
20
140.20300
30
66.00000
0
VERTEX
8
22_66000
10
30.81400
20
138.85501
30
66.00000
0
VERTEX
8
22_66000
10
30.77100
20
138.56500
30
66.00000
0
VERTEX
8
22_66000
10
30.75900
20
137.40201
30
66.00000
0
VERTEX
8
22_66000
10
30.36300
20
134.45401
30
66.00000
0
VERTEX
8
22_66000
10
30.27100
20
134.07201
30
66.00000
0
VERTEX
8
22_66000
10
30.00400
20
132.59500
30
66.00000
0
VERTEX
8
22_66000
10
28.97400
20
129.19901
30
66.00000
0
VERTEX
8
22_66000
10
28.91300
20
128.95300
30
66.00000
0
VERTEX
8
22_66000
10
28.02500
20
125.19601
30
66.00000
0
VERTEX
8
22_66000
10
27.67700
20
123.63701
30
66.00000
0
VERTEX
8
22_66000
10
26.95200
20
120.18001
30
66.00000
0
VERTEX
8
22_66000
10
26.30100
20
117.63601
30
66.00000
0
VERTEX
8
22_66000
10
26.22700
20
117.31600
30
66.00000
0
VERTEX
8
22_66000
10
26.16200
20
116.97501
30
66.00000
0
VERTEX
8
22_66000
10
25.72500
20
114.07500
30
66.00000
0
VERTEX
8
22_66000
10
25.37700
20
111.89700
30
66.00000
0
VERTEX
8
22_66000
10
24.64900
20
108.31700
30
66.00000
0
VERTEX
8
22_66000
10
23.65200
20
102.58900
30
66.00000
0
VERTEX
8
22_66000
10
23.53300
20
101.85201
30
66.00000
0
VERTEX
8
22_66000
10
23.39700
20
100.84601
30
66.00000
0
VERTEX
8
22_66000
10
23.25800
20
99.52100
30
66.00000
0
VERTEX
8
22_66000
10
23.08900
20
98.16701
30
66.00000
0
VERTEX
8
22_66000
10
22.94600
20
95.93401
30
66.00000
0
VERTEX
8
22_66000
10
22.91800
20
95.23400
30
66.00000
0
VERTEX
8
22_66000
10
22.90800
20
94.54401
30
66.00000
0
VERTEX
8
22_66000
10
22.91100
20
93.04101
30
66.00000
0
VERTEX
8
22_66000
10
22.81400
20
91.28800
30
66.00000
0
VERTEX
8
22_66000
10
22.82000
20
90.81400
30
66.00000
0
VERTEX
8
22_66000
10
22.89500
20
88.98500
30
66.00000
0
VERTEX
8
22_66000
10
22.88600
20
88.66300
30
66.00000
0
VERTEX
8
22_66000
10
23.02300
20
87.12100
30
66.00000
0
VERTEX
8
22_66000
10
23.09900
20
86.17101
30
66.00000
0
VERTEX
8
22_66000
10
23.20400
20
83.56900
30
66.00000
0
VERTEX
8
22_66000
10
23.24300
20
83.31800
30
66.00000
0
VERTEX
8
22_66000
10
23.42500
20
81.71301
30
66.00000
0
VERTEX
8
22_66000
10
23.42600
20
81.51701
30
66.00000
0
VERTEX
8
22_66000
10
23.54700
20
79.37400
30
66.00000
0
VERTEX
8
22_66000
10
23.78000
20
77.29100
30
66.00000
0
VERTEX
8
22_66000
10
23.89200
20
76.15800
30
66.00000
0
VERTEX
8
22_66000
10
24.03500
20
75.44100
30
66.00000
0
VERTEX
8
22_66000
10
24.09800
20
74.49700
30
66.00000
0
VERTEX
8
22_66000
10
24.32500
20
73.45901
30
66.00000
0
VERTEX
8
22_66000
10
24.56600
20
72.29700
30
66.00000
0
VERTEX
8
22_66000
10
24.68600
20
70.73100
30
66.00000
0
VERTEX
8
22_66000
10
24.68300
20
69.77800
30
66.00000
0
VERTEX
8
22_66000
10
24.71300
20
69.00800
30
66.00000
0
VERTEX
8
22_66000
10
24.77800
20
68.52500
30
66.00000
0
VERTEX
8
22_66000
10
24.77700
20
68.02300
30
66.00000
0
VERTEX
8
22_66000
10
24.79000
20
67.52200
30
66.00000
0
VERTEX
8
22_66000
10
24.96100
20
66.26500
30
66.00000
0
VERTEX
8
22_66000
10
25.30100
20
65.84901
30
66.00000
0
VERTEX
8
22_66000
10
25.42000
20
65.68401
30
66.00000
0
VERTEX
8
22_66000
10
25.45200
20
65.55600
30
66.00000
0
VERTEX
8
22_66000
10
25.60600
20
64.64700
30
66.00000
0
VERTEX
8
22_66000
10
26.12800
20
62.69800
30
66.00000
0
VERTEX
8
22_66000
10
26.13300
20
62.31900
30
66.00000
0
VERTEX
8
22_66000
10
26.15400
20
61.92700
30
66.00000
0
VERTEX
8
22_66000
10
26.21400
20
61.43400
30
66.00000
0
VERTEX
8
22_66000
10
26.29900
20
60.41100
30
66.00000
0
VERTEX
8
22_66000
10
26.35500
20
59.55200
30
66.00000
0
VERTEX
8
22_66000
10
26.27200
20
58.81000
30
66.00000
0
VERTEX
8
22_66000
10
26.29300
20
58.45600
30
66.00000
0
VERTEX
8
22_66000
10
26.27800
20
58.34900
30
66.00000
0
VERTEX
8
22_66000
10
26.30400
20
58.16300
30
66.00000
0
VERTEX
8
22_66000
10
26.32400
20
57.08700
30
66.00000
0
VERTEX
8
22_66000
10
26.35700
20
56.18200
30
66.00000
0
VERTEX
8
22_66000
10
26.45300
20
55.25700
30
66.00000
0
VERTEX
8
22_66000
10
26.47200
20
55.13300
30
66.00000
0
VERTEX
8
22_66000
10
26.60400
20
54.54800
30
66.00000
0
VERTEX
8
22_66000
10
26.64300
20
54.18700
30
66.00000
0
VERTEX
8
22_66000
10
26.65400
20
53.77100
30
66.00000
0
VERTEX
8
22_66000
10
26.64700
20
53.63900
30
66.00000
0
VERTEX
8
22_66000
10
26.70600
20
53.20000
30
66.00000
0
VERTEX
8
22_66000
10
26.83400
20
52.54900
30
66.00000
0
VERTEX
8
22_66000
10
27.00700
20
51.82300
30
66.00000
0
VERTEX
8
22_66000
10
27.19400
20
50.98300
30
66.00000
0
VERTEX
8
22_66000
10
27.23600
20
50.63300
30
66.00000
0
VERTEX
8
22_66000
10
27.22500
20
50.22500
30
66.00000
0
VERTEX
8
22_66000
10
27.28600
20
49.91600
30
66.00000
0
VERTEX
8
22_66000
10
27.29200
20
49.64900
30
66.00000
0
VERTEX
8
22_66000
10
27.35000
20
49.20500
30
66.00000
0
VERTEX
8
22_66000
10
27.44000
20
48.65300
30
66.00000
0
VERTEX
8
22_66000
10
27.62700
20
47.67700
30
66.00000
0
VERTEX
8
22_66000
10
27.73800
20
46.89800
30
66.00000
0
VERTEX
8
22_66000
10
27.78300
20
46.66600
30
66.00000
0
VERTEX
8
22_66000
10
27.81200
20
46.34000
30
66.00000
0
VERTEX
8
22_66000
10
28.10100
20
45.17800
30
66.00000
0
VERTEX
8
22_66000
10
28.22600
20
44.58800
30
66.00000
0
VERTEX
8
22_66000
10
28.34800
20
43.93600
30
66.00000
0
VERTEX
8
22_66000
10
28.49300
20
43.29100
30
66.00000
0
VERTEX
8
22_66000
10
28.73100
20
42.54400
30
66.00000
0
VERTEX
8
22_66000
10
28.78600
20
42.23000
30
66.00000
0
VERTEX
8
22_66000
10
28.94700
20
41.50900
30
66.00000
0
VERTEX
8
22_66000
10
28.92500
20
41.40600
30
66.00000
0
VERTEX
8
22_66000
10
28.98200
20
40.93800
30
66.00000
0
VERTEX
8
22_66000
10
29.13800
20
40.21700
30
66.00000
0
VERTEX
8
22_66000
10
29.25400
20
39.38700
30
66.00000
0
VERTEX
8
22_66000
10
29.20400
20
38.64000
30
66.00000
0
VERTEX
8
22_66000
10
29.09400
20
38.33700
30
66.00000
0
VERTEX
8
22_66000
10
28.87900
20
37.91700
30
66.00000
0
VERTEX
8
22_66000
10
28.37600
20
37.22300
30
66.00000
0
VERTEX
8
22_66000
10
28.16600
20
36.88700
30
66.00000
0
VERTEX
8
22_66000
10
27.83700
20
36.48600
30
66.00000
0
VERTEX
8
22_66000
10
27.67600
20
36.09800
30
66.00000
0
VERTEX
8
22_66000
10
27.46600
20
35.84100
30
66.00000
0
VERTEX
8
22_66000
10
27.37000
20
35.68100
30
66.00000
0
VERTEX
8
22_66000
10
27.19500
20
35.34000
30
66.00000
0
VERTEX
8
22_66000
10
26.74600
20
34.75600
30
66.00000
0
VERTEX
8
22_66000
10
26.59600
20
34.44700
30
66.00000
0
VERTEX
8
22_66000
10
26.24200
20
33.94400
30
66.00000
0
VERTEX
8
22_66000
10
26.04600
20
33.73400
30
66.00000
0
VERTEX
8
22_66000
10
25.83000
20
33.29500
30
66.00000
0
VERTEX
8
22_66000
10
25.42300
20
32.20800
30
66.00000
0
VERTEX
8
22_66000
10
25.15000
20
31.62500
30
66.00000
0
VERTEX
8
22_66000
10
24.62300
20
30.19700
30
66.00000
0
VERTEX
8
22_66000
10
24.61000
20
30.09300
30
66.00000
0
VERTEX
8
22_66000
10
24.43300
20
29.54300
30
66.00000
0
VERTEX
8
22_66000
10
24.42100
20
29.47000
30
66.00000
0
VERTEX
8
22_66000
10
24.30800
20
29.30800
30
66.00000
0
VERTEX
8
22_66000
10
24.06800
20
29.12300
30
66.00000
0
VERTEX
8
22_66000
10
23.80300
20
29.04800
30
66.00000
0
VERTEX
8
22_66000
10
23.52800
20
28.93200
30
66.00000
0
VERTEX
8
22_66000
10
23.22500
20
28.86400
30
66.00000
0
VERTEX
8
22_66000
10
23.00400
20
28.84600
30
66.00000
0
VERTEX
8
22_66000
10
22.83700
20
28.84500
30
66.00000
0
VERTEX
8
22_66000
10
19.86700
20
28.63200
30
66.00000
0
VERTEX
8
22_66000
10
19.61500
20
28.56300
30
66.00000
0
VERTEX
8
22_66000
10
19.29600
20
28.57700
30
66.00000
0
VERTEX
8
22_66000
10
18.40800
20
28.56300
30
66.00000
0
VERTEX
8
22_66000
10
15.87200
20
28.45000
30
66.00000
0
VERTEX
8
22_66000
10
14.06300
20
28.48900
30
66.00000
0
VERTEX
8
22_66000
10
13.33200
20
28.54600
30
66.00000
0
VERTEX
8
22_66000
10
11.12800
20
28.79400
30
66.00000
0
VERTEX
8
22_66000
10
10.58900
20
28.90900
30
66.00000
0
VERTEX
8
22_66000
10
11.06400
20
25.27000
30
66.00000
0
VERTEX
8
22_66000
10
11.13800
20
24.61400
30
66.00000
0
VERTEX
8
22_66000
10
11.18800
20
24.29200
30
66.00000
0
VERTEX
8
22_66000
10
11.66300
20
20.46900
30
66.00000
0
VERTEX
8
22_66000
10
11.78200
20
19.44200
30
66.00000
0
VERTEX
8
22_66000
10
11.98500
20
17.89100
30
66.00000
0
VERTEX
8
22_66000
10
12.06700
20
17.17400
30
66.00000
0
VERTEX
8
22_66000
10
12.21700
20
16.01900
30
66.00000
0
VERTEX
8
22_66000
10
12.60800
20
12.86000
30
66.00000
0
VERTEX
8
22_66000
10
13.23200
20
7.64900
30
66.00000
0
VERTEX
8
22_66000
10
13.50900
20
5.23700
30
66.00000
0
VERTEX
8
22_66000
10
13.59200
20
4.43800
30
66.00000
0
VERTEX
8
22_66000
10
13.98700
20
1.02000
30
66.00000
0
VERTEX
8
22_66000
10
14.09200
20
0.00600
30
66.00000
0
VERTEX
8
22_66000
10
116.87901
20
0.00600
30
66.00000
0
VERTEX
8
22_66000
10
116.85700
20
0.04700
30
66.00000
0
VERTEX
8
22_66000
10
116.39600
20
1.84300
30
66.00000
0
VERTEX
8
22_66000
10
116.08900
20
3.37500
30
66.00000
0
VERTEX
8
22_66000
10
116.02000
20
3.76100
30
66.00000
0
VERTEX
8
22_66000
10
116.06400
20
3.97600
30
66.00000
0
VERTEX
8
22_66000
10
116.55100
20
4.64400
30
66.00000
0
VERTEX
8
22_66000
10
116.81400
20
5.09000
30
66.00000
0
VERTEX
8
22_66000
10
117.41901
20
5.80600
30
66.00000
0
VERTEX
8
22_66000
10
117.98601
20
6.55800
30
66.00000
0
VERTEX
8
22_66000
10
118.43700
20
7.10400
30
66.00000
0
VERTEX
8
22_66000
10
118.67200
20
7.45200
30
66.00000
0
VERTEX
8
22_66000
10
119.58301
20
8.50900
30
66.00000
0
VERTEX
8
22_66000
10
120.32600
20
9.48300
30
66.00000
0
VERTEX
8
22_66000
10
120.90301
20
10.33000
30
66.00000
0
VERTEX
8
22_66000
10
121.79301
20
11.55400
30
66.00000
0
VERTEX
8
22_66000
10
121.96001
20
11.85400
30
66.00000
0
VERTEX
8
22_66000
10
122.30501
20
12.38000
30
66.00000
0
VERTEX
8
22_66000
10
122.59501
20
12.76400
30
66.00000
0
VERTEX
8
22_66000
10
123.42500
20
14.04600
30
66.00000
0
VERTEX
8
22_66000
10
123.74200
20
14.55800
30
66.00000
0
VERTEX
8
22_66000
10
123.91301
20
14.98000
30
66.00000
0
VERTEX
8
22_66000
10
124.52300
20
15.98200
30
66.00000
0
VERTEX
8
22_66000
10
124.63701
20
16.36100
30
66.00000
0
VERTEX
8
22_66000
10
124.72900
20
16.51300
30
66.00000
0
VERTEX
8
22_66000
10
124.83301
20
16.74200
30
66.00000
0
VERTEX
8
22_66000
10
125.24200
20
17.56000
30
66.00000
0
VERTEX
8
22_66000
10
125.54301
20
18.62600
30
66.00000
0
VERTEX
8
22_66000
10
125.70901
20
19.40200
30
66.00000
0
VERTEX
8
22_66000
10
125.80701
20
20.05000
30
66.00000
0
VERTEX
8
22_66000
10
125.98000
20
20.67200
30
66.00000
0
VERTEX
8
22_66000
10
126.10400
20
21.05600
30
66.00000
0
VERTEX
8
22_66000
10
126.25800
20
21.44000
30
66.00000
0
VERTEX
8
22_66000
10
126.28801
20
21.54600
30
66.00000
0
VERTEX
8
22_66000
10
126.39001
20
22.23500
30
66.00000
0
VERTEX
8
22_66000
10
126.44201
20
23.07600
30
66.00000
0
VERTEX
8
22_66000
10
126.42101
20
23.67200
30
66.00000
0
VERTEX
8
22_66000
10
126.46400
20
24.36600
30
66.00000
0
VERTEX
8
22_66000
10
126.55401
20
24.67000
30
66.00000
0
VERTEX
8
22_66000
10
126.51001
20
25.00700
30
66.00000
0
VERTEX
8
22_66000
10
126.51301
20
25.12000
30
66.00000
0
VERTEX
8
22_66000
10
126.49600
20
25.33500
30
66.00000
0
VERTEX
8
22_66000
10
126.48301
20
26.27000
30
66.00000
0
VERTEX
8
22_66000
10
126.89001
20
28.96600
30
66.00000
0
VERTEX
8
22_66000
10
127.01601
20
29.61600
30
66.00000
0
VERTEX
8
22_66000
10
127.53801
20
31.45600
30
66.00000
0
VERTEX
8
22_66000
10
127.94000
20
32.35300
30
66.00000
0
VERTEX
8
22_66000
10
128.08000
20
32.81800
30
66.00000
0
VERTEX
8
22_66000
10
128.41101
20
33.60100
30
66.00000
0
VERTEX
8
22_66000
10
128.90701
20
34.66400
30
66.00000
0
VERTEX
8
22_66000
10
129.32701
20
35.35200
30
66.00000
0
VERTEX
8
22_66000
10
129.38800
20
35.49000
30
66.00000
0
VERTEX
8
22_66000
10
129.40701
20
35.51000
30
66.00000
0
VERTEX
8
22_66000
10
129.60400
20
35.92400
30
66.00000
0
VERTEX
8
22_66000
10
129.79901
20
36.39300
30
66.00000
0
VERTEX
8
22_66000
10
130.43600
20
37.41100
30
66.00000
0
VERTEX
8
22_66000
10
130.95500
20
38.34600
30
66.00000
0
VERTEX
8
22_66000
10
131.03500
20
38.44500
30
66.00000
0
VERTEX
8
22_66000
10
131.47900
20
39.31500
30
66.00000
0
VERTEX
8
22_66000
10
132.06401
20
40.56800
30
66.00000
0
VERTEX
8
22_66000
10
132.31601
20
40.93400
30
66.00000
0
VERTEX
8
22_66000
10
132.51801
20
41.19700
30
66.00000
0
VERTEX
8
22_66000
10
132.64401
20
41.47500
30
66.00000
0
VERTEX
8
22_66000
10
133.33101
20
42.88500
30
66.00000
0
VERTEX
8
22_66000
10
133.35001
20
42.93900
30
66.00000
0
VERTEX
8
22_66000
10
133.89700
20
44.11000
30
66.00000
0
VERTEX
8
22_66000
10
134.01100
20
44.30100
30
66.00000
0
VERTEX
8
22_66000
10
134.25301
20
44.74400
30
66.00000
0
VERTEX
8
22_66000
10
134.43301
20
45.01000
30
66.00000
0
VERTEX
8
22_66000
10
134.88400
20
45.47300
30
66.00000
0
VERTEX
8
22_66000
10
135.46400
20
46.49700
30
66.00000
0
VERTEX
8
22_66000
10
135.63501
20
46.73000
30
66.00000
0
VERTEX
8
22_66000
10
135.75401
20
47.00800
30
66.00000
0
VERTEX
8
22_66000
10
136.01701
20
47.50900
30
66.00000
0
VERTEX
8
22_66000
10
136.33801
20
48.19800
30
66.00000
0
VERTEX
8
22_66000
10
136.37201
20
48.47900
30
66.00000
0
VERTEX
8
22_66000
10
136.41800
20
48.56800
30
66.00000
0
VERTEX
8
22_66000
10
136.46101
20
48.69900
30
66.00000
0
VERTEX
8
22_66000
10
137.15001
20
50.02500
30
66.00000
0
VERTEX
8
22_66000
10
137.16701
20
50.08900
30
66.00000
0
VERTEX
8
22_66000
10
137.62201
20
50.99600
30
66.00000
0
VERTEX
8
22_66000
10
137.99001
20
51.47900
30
66.00000
0
VERTEX
8
22_66000
10
138.14301
20
51.83200
30
66.00000
0
VERTEX
8
22_66000
10
138.18501
20
51.91100
30
66.00000
0
VERTEX
8
22_66000
10
138.62701
20
53.31200
30
66.00000
0
VERTEX
8
22_66000
10
138.67401
20
53.63400
30
66.00000
0
VERTEX
8
22_66000
10
138.92601
20
54.36500
30
66.00000
0
VERTEX
8
22_66000
10
139.20700
20
55.64900
30
66.00000
0
VERTEX
8
22_66000
10
139.33400
20
56.05900
30
66.00000
0
VERTEX
8
22_66000
10
139.53001
20
56.64500
30
66.00000
0
VERTEX
8
22_66000
10
139.79800
20
57.06400
30
66.00000
0
VERTEX
8
22_66000
10
139.81500
20
57.07100
30
66.00000
0
VERTEX
8
22_66000
10
139.88200
20
57.57500
30
66.00000
0
VERTEX
8
22_66000
10
139.91701
20
58.22900
30
66.00000
0
VERTEX
8
22_66000
10
140.12901
20
59.31800
30
66.00000
0
VERTEX
8
22_66000
10
140.24800
20
60.08800
30
66.00000
0
VERTEX
8
22_66000
10
140.27600
20
60.19200
30
66.00000
0
VERTEX
8
22_66000
10
140.43501
20
60.54200
30
66.00000
0
VERTEX
8
22_66000
10
140.70700
20
61.30300
30
66.00000
0
VERTEX
8
22_66000
10
141.60400
20
63.35500
30
66.00000
0
VERTEX
8
22_66000
10
141.92201
20
64.17600
30
66.00000
0
VERTEX
8
22_66000
10
141.95900
20
64.24400
30
66.00000
0
VERTEX
8
22_66000
10
142.20201
20
64.90701
30
66.00000
0
VERTEX
8
22_66000
10
142.36801
20
65.24100
30
66.00000
0
VERTEX
8
22_66000
10
142.75101
20
65.84600
30
66.00000
0
VERTEX
8
22_66000
10
142.85901
20
66.22100
30
66.00000
0
VERTEX
8
22_66000
10
142.96600
20
66.71301
30
66.00000
0
VERTEX
8
22_66000
10
143.04100
20
66.96201
30
66.00000
0
VERTEX
8
22_66000
10
143.51001
20
68.89600
30
66.00000
0
VERTEX
8
22_66000
10
143.52200
20
69.13100
30
66.00000
0
VERTEX
8
22_66000
10
143.61501
20
69.53300
30
66.00000
0
VERTEX
8
22_66000
10
143.79901
20
70.99800
30
66.00000
0
VERTEX
8
22_66000
10
143.85901
20
71.23801
30
66.00000
0
VERTEX
8
22_66000
10
144.02501
20
71.64800
30
66.00000
0
VERTEX
8
22_66000
10
144.38200
20
73.46700
30
66.00000
0
VERTEX
8
22_66000
10
144.84500
20
74.86401
30
66.00000
0
VERTEX
8
22_66000
10
144.98001
20
75.61401
30
66.00000
0
VERTEX
8
22_66000
10
145.42500
20
76.78900
30
66.00000
0
VERTEX
8
22_66000
10
145.88200
20
78.45700
30
66.00000
0
VERTEX
8
22_66000
10
146.29301
20
79.65800
30
66.00000
0
VERTEX
8
22_66000
10
146.38701
20
79.91300
30
66.00000
0
VERTEX
8
22_66000
10
146.43401
20
80.11800
30
66.00000
0
VERTEX
8
22_66000
10
146.60001
20
80.97800
30
66.00000
0
VERTEX
8
22_66000
10
146.78900
20
82.08601
30
66.00000
0
VERTEX
8
22_66000
10
147.09801
20
83.65501
30
66.00000
0
VERTEX
8
22_66000
10
147.17101
20
83.97900
30
66.00000
0
VERTEX
8
22_66000
10
147.31201
20
84.53101
30
66.00000
0
VERTEX
8
22_66000
10
147.52200
20
85.67001
30
66.00000
0
VERTEX
8
22_66000
10
147.74800
20
86.45000
30
66.00000
0
VERTEX
8
22_66000
10
147.85701
20
87.27901
30
66.00000
0
VERTEX
8
22_66000
10
147.97000
20
87.80200
30
66.00000
0
VERTEX
8
22_66000
10
148.06900
20
88.38200
30
66.00000
0
VERTEX
8
22_66000
10
148.20601
20
89.57301
30
66.00000
0
VERTEX
8
22_66000
10
148.30701
20
90.16500
30
66.00000
0
VERTEX
8
22_66000
10
148.32800
20
90.48300
30
66.00000
0
VERTEX
8
22_66000
10
148.57800
20
93.19200
30
66.00000
0
VERTEX
8
22_66000
10
148.61401
20
93.50201
30
66.00000
0
VERTEX
8
22_66000
10
148.70601
20
94.66000
30
66.00000
0
VERTEX
8
22_66000
10
148.78401
20
98.31200
30
66.00000
0
VERTEX
8
22_66000
10
148.75101
20
98.80501
30
66.00000
0
VERTEX
8
22_66000
10
148.79100
20
100.66400
30
66.00000
0
VERTEX
8
22_66000
10
148.77301
20
102.63100
30
66.00000
0
VERTEX
8
22_66000
10
148.78101
20
104.64700
30
66.00000
0
VERTEX
8
22_66000
10
148.86801
20
105.79800
30
66.00000
0
VERTEX
8
22_66000
10
148.94400
20
112.55501
30
66.00000
0
VERTEX
8
22_66000
10
149.01601
20
114.63400
30
66.00000
0
VERTEX
8
22_66000
10
148.95401
20
117.24901
30
66.00000
0
VERTEX
8
22_66000
10
148.78001
20
119.77601
30
66.00000
0
VERTEX
8
22_66000
10
148.74600
20
120.66300
30
66.00000
0
VERTEX
8
22_66000
10
148.43201
20
122.58301
30
66.00000
0
VERTEX
8
22_66000
10
147.92601
20
125.32001
30
66.00000
0
VERTEX
8
22_66000
10
147.49501
20
127.37701
30
66.00000
0
VERTEX
8
22_66000
10
147.32701
20
128.26100
30
66.00000
0
VERTEX
8
22_66000
10
147.14801
20
129.01201
30
66.00000
0
VERTEX
8
22_66000
10
147.14900
20
129.06900
30
66.00000
0
VERTEX
8
22_66000
10
146.47801
20
132.19501
30
66.00000
0
VERTEX
8
22_66000
10
146.44801
20
132.53601
30
66.00000
0
VERTEX
8
22_66000
10
146.25601
20
133.66800
30
66.00000
0
VERTEX
8
22_66000
10
146.20100
20
134.97101
30
66.00000
0
VERTEX
8
22_66000
10
146.18600
20
135.17001
30
66.00000
0
VERTEX
8
22_66000
10
146.19701
20
135.22900
30
66.00000
0
VERTEX
8
22_66000
10
146.10301
20
137.01701
30
66.00000
0
VERTEX
8
22_66000
10
146.11301
20
137.75700
30
66.00000
0
VERTEX
8
22_66000
10
146.21201
20
138.09700
30
66.00000
0
VERTEX
8
22_66000
10
146.26100
20
138.49800
30
66.00000
0
VERTEX
8
22_66000
10
146.53201
20
141.38800
30
66.00000
0
VERTEX
8
22_66000
10
146.55400
20
141.94701
30
66.00000
0
VERTEX
8
22_66000
10
146.61000
20
142.28001
30
66.00000
0
VERTEX
8
22_66000
10
146.74101
20
143.33101
30
66.00000
0
VERTEX
8
22_66000
10
146.79100
20
143.51300
30
66.00000
0
VERTEX
8
22_66000
10
146.96201
20
144.36700
30
66.00000
0
VERTEX
8
22_66000
10
147.18901
20
145.84001
30
66.00000
0
VERTEX
8
22_66000
10
147.39700
20
146.66600
30
66.00000
0
VERTEX
8
22_66000
10
147.66901
20
148.27000
30
66.00000
0
VERTEX
8
22_66000
10
147.93800
20
149.99800
30
66.00000
0
VERTEX
8
22_66000
10
148.19801
20
151.05301
30
66.00000
0
VERTEX
8
22_66000
10
148.57401
20
153.84201
30
66.00000
0
VERTEX
8
22_66000
10
148.59901
20
154.10600
30
66.00000
0
VERTEX
8
22_66000
10
148.72501
20
154.99001
30
66.00000
0
VERTEX
8
22_66000
10
148.83200
20
155.81900
30
66.00000
0
VERTEX
8
22_66000
10
148.86000
20
156.46501
30
66.00000
0
VERTEX
8
22_66000
10
149.02000
20
158.42001
30
66.00000
0
VERTEX
8
22_66000
10
149.13200
20
159.97701
30
66.00000
0
VERTEX
8
22_66000
10
149.15601
20
161.05801
30
66.00000
0
VERTEX
8
22_66000
10
149.21001
20
162.16200
30
66.00000
0
VERTEX
8
22_66000
10
149.30701
20
165.21201
30
66.00000
0
VERTEX
8
22_66000
10
149.30801
20
165.52701
30
66.00000
0
VERTEX
8
22_66000
10
149.29001
20
165.83401
30
66.00000
0
VERTEX
8
22_66000
10
149.31500
20
167.42300
30
66.00000
0
VERTEX
8
22_66000
10
149.14801
20
169.14001
30
66.00000
0
VERTEX
8
22_66000
10
149.08400
20
169.89601
30
66.00000
0
VERTEX
8
22_66000
10
148.97501
20
171.55801
30
66.00000
0
VERTEX
8
22_66000
10
148.96001
20
171.94601
30
66.00000
0
VERTEX
8
22_66000
10
148.87901
20
173.17300
30
66.00000
0
VERTEX
8
22_66000
10
148.72101
20
174.19200
30
66.00000
0
VERTEX
8
22_66000
10
148.56100
20
175.50101
30
66.00000
0
VERTEX
8
22_66000
10
148.49400
20
176.34801
30
66.00000
0
VERTEX
8
22_66000
10
148.26401
20
178.14601
30
66.00000
0
VERTEX
8
22_66000
10
148.26601
20
178.29301
30
66.00000
0
VERTEX
8
22_66000
10
147.90100
20
181.06500
30
66.00000
0
VERTEX
8
22_66000
10
147.86601
20
181.40501
30
66.00000
0
VERTEX
8
22_66000
10
147.70100
20
182.20300
30
66.00000
0
VERTEX
8
22_66000
10
147.68901
20
182.29401
30
66.00000
0
VERTEX
8
22_66000
10
118.79101
20
182.29102
30
66.00000
0
VERTEX
8
22_66000
10
39.88800
20
180.02600
30
66.00000
0
VERTEX
8
22_66000
10
118.78600
20
182.29102
30
66.00000
0
VERTEX
8
22_66000
10
109.66100
20
182.28900
30
66.00000
0
SEQEND
8
22_66000
0
ENDSEC
0
EOF
