0
SECTION
2
HEADER
9
$ACADVER
1
AC1009
0
ENDSEC
0
SECTION
2
TABLES
0
TABLE
2
LAYER
70
1
0
LAYER
2
14_42000
70
0
62
7
6
CONTINUOUS
0
ENDTAB
0
ENDSEC
0
SECTION
2
BLOCKS
0
ENDSEC
0
SECTION
2
ENTITIES
0
POLYLINE
8
14_42000
62
5
0
VERTEX
8
14_42000
10
20.39800
20
183.58601
30
42.00000
0
VERTEX
8
14_42000
10
156.49001
20
183.37401
30
42.00000
0
VERTEX
8
14_42000
10
20.39800
20
183.58601
30
42.00000
0
SEQEND
8
14_42000
0
POLYLINE
8
14_42000
62
5
0
VERTEX
8
14_42000
10
49.28600
20
183.89801
30
42.00000
0
VERTEX
8
14_42000
10
15.17800
20
184.06601
30
42.00000
0
VERTEX
8
14_42000
10
49.28600
20
183.89801
30
42.00000
0
SEQEND
8
14_42000
0
POLYLINE
8
14_42000
62
5
0
VERTEX
8
14_42000
10
121.44000
20
183.52400
30
42.00000
0
VERTEX
8
14_42000
10
16.29400
20
183.97401
30
42.00000
0
VERTEX
8
14_42000
10
16.23600
20
183.98201
30
42.00000
0
VERTEX
8
14_42000
10
121.44000
20
183.52400
30
42.00000
0
SEQEND
8
14_42000
0
POLYLINE
8
14_42000
62
5
0
VERTEX
8
14_42000
10
56.92900
20
182.15201
30
42.00000
0
VERTEX
8
14_42000
10
156.49001
20
183.37401
30
42.00000
0
VERTEX
8
14_42000
10
30.02200
20
181.81201
30
42.00000
0
VERTEX
8
14_42000
10
29.98200
20
181.82001
30
42.00000
0
VERTEX
8
14_42000
10
56.92900
20
182.15201
30
42.00000
0
SEQEND
8
14_42000
0
POLYLINE
8
14_42000
62
5
0
VERTEX
8
14_42000
10
120.91200
20
183.56001
30
42.00000
0
VERTEX
8
14_42000
10
14.18000
20
184.12001
30
42.00000
0
VERTEX
8
14_42000
10
14.01400
20
184.12801
30
42.00000
0
VERTEX
8
14_42000
10
120.91200
20
183.56001
30
42.00000
0
SEQEND
8
14_42000
0
POLYLINE
8
14_42000
62
5
0
VERTEX
8
14_42000
10
98.19601
20
181.70001
30
42.00000
0
VERTEX
8
14_42000
10
39.88800
20
180.02600
30
42.00000
0
VERTEX
8
14_42000
10
98.19601
20
181.70001
30
42.00000
0
SEQEND
8
14_42000
0
POLYLINE
8
14_42000
62
5
0
VERTEX
8
14_42000
10
9.80300
20
34.98700
30
42.00000
0
VERTEX
8
14_42000
10
10.06800
20
32.85600
30
42.00000
0
VERTEX
8
14_42000
10
10.16600
20
32.19600
30
42.00000
0
VERTEX
8
14_42000
10
10.97000
20
25.99800
30
42.00000
0
VERTEX
8
14_42000
10
11.12200
20
24.74200
30
42.00000
0
VERTEX
8
14_42000
10
11.18800
20
24.29200
30
42.00000
0
VERTEX
8
14_42000
10
11.63000
20
20.73000
30
42.00000
0
VERTEX
8
14_42000
10
11.78200
20
19.44200
30
42.00000
0
VERTEX
8
14_42000
10
11.97200
20
17.99400
30
42.00000
0
VERTEX
8
14_42000
10
12.11500
20
16.79100
30
42.00000
0
VERTEX
8
14_42000
10
12.59200
20
12.99900
30
42.00000
0
VERTEX
8
14_42000
10
13.21100
20
7.82900
30
42.00000
0
VERTEX
8
14_42000
10
13.99500
20
0.93600
30
42.00000
0
VERTEX
8
14_42000
10
14.09200
20
0.00600
30
42.00000
0
VERTEX
8
14_42000
10
158.53401
20
0.00600
30
42.00000
0
VERTEX
8
14_42000
10
158.60600
20
1.23800
30
42.00000
0
VERTEX
8
14_42000
10
158.65800
20
1.95200
30
42.00000
0
VERTEX
8
14_42000
10
158.71600
20
3.05000
30
42.00000
0
VERTEX
8
14_42000
10
158.80801
20
4.49800
30
42.00000
0
VERTEX
8
14_42000
10
158.83601
20
5.24400
30
42.00000
0
VERTEX
8
14_42000
10
159.03300
20
9.34100
30
42.00000
0
VERTEX
8
14_42000
10
159.17001
20
13.46000
30
42.00000
0
VERTEX
8
14_42000
10
159.17201
20
13.82100
30
42.00000
0
VERTEX
8
14_42000
10
159.22601
20
15.35400
30
42.00000
0
VERTEX
8
14_42000
10
159.24200
20
16.09800
30
42.00000
0
VERTEX
8
14_42000
10
159.27400
20
18.41500
30
42.00000
0
VERTEX
8
14_42000
10
159.32201
20
20.74900
30
42.00000
0
VERTEX
8
14_42000
10
159.33000
20
21.49200
30
42.00000
0
VERTEX
8
14_42000
10
159.32401
20
22.29600
30
42.00000
0
VERTEX
8
14_42000
10
159.33000
20
23.07400
30
42.00000
0
VERTEX
8
14_42000
10
159.31401
20
25.82400
30
42.00000
0
VERTEX
8
14_42000
10
159.25801
20
29.75600
30
42.00000
0
VERTEX
8
14_42000
10
159.19000
20
32.17400
30
42.00000
0
VERTEX
8
14_42000
10
159.15701
20
32.95700
30
42.00000
0
VERTEX
8
14_42000
10
159.11101
20
34.94100
30
42.00000
0
VERTEX
8
14_42000
10
159.07600
20
35.77200
30
42.00000
0
VERTEX
8
14_42000
10
158.98300
20
38.59700
30
42.00000
0
VERTEX
8
14_42000
10
158.93001
20
39.77200
30
42.00000
0
VERTEX
8
14_42000
10
158.85600
20
41.76800
30
42.00000
0
VERTEX
8
14_42000
10
158.71400
20
44.57600
30
42.00000
0
VERTEX
8
14_42000
10
158.59601
20
47.36200
30
42.00000
0
VERTEX
8
14_42000
10
158.55602
20
48.54800
30
42.00000
0
VERTEX
8
14_42000
10
158.55801
20
50.09600
30
42.00000
0
VERTEX
8
14_42000
10
158.62201
20
51.99800
30
42.00000
0
VERTEX
8
14_42000
10
158.62801
20
52.43000
30
42.00000
0
VERTEX
8
14_42000
10
158.63000
20
53.11000
30
42.00000
0
VERTEX
8
14_42000
10
158.59601
20
54.33600
30
42.00000
0
VERTEX
8
14_42000
10
158.54601
20
55.08600
30
42.00000
0
VERTEX
8
14_42000
10
158.50401
20
55.54400
30
42.00000
0
VERTEX
8
14_42000
10
158.45601
20
56.73000
30
42.00000
0
VERTEX
8
14_42000
10
158.40800
20
57.14000
30
42.00000
0
VERTEX
8
14_42000
10
158.33000
20
57.56200
30
42.00000
0
VERTEX
8
14_42000
10
158.33000
20
58.33400
30
42.00000
0
VERTEX
8
14_42000
10
158.31601
20
58.72800
30
42.00000
0
VERTEX
8
14_42000
10
158.27600
20
59.13000
30
42.00000
0
VERTEX
8
14_42000
10
158.17401
20
59.94800
30
42.00000
0
VERTEX
8
14_42000
10
158.10400
20
60.36400
30
42.00000
0
VERTEX
8
14_42000
10
158.04800
20
60.77200
30
42.00000
0
VERTEX
8
14_42000
10
158.02200
20
61.16800
30
42.00000
0
VERTEX
8
14_42000
10
157.97801
20
61.57200
30
42.00000
0
VERTEX
8
14_42000
10
157.94801
20
61.96800
30
42.00000
0
VERTEX
8
14_42000
10
157.88101
20
63.45900
30
42.00000
0
VERTEX
8
14_42000
10
157.84401
20
63.93200
30
42.00000
0
VERTEX
8
14_42000
10
157.79800
20
64.33400
30
42.00000
0
VERTEX
8
14_42000
10
157.69200
20
65.52200
30
42.00000
0
VERTEX
8
14_42000
10
157.65201
20
66.68600
30
42.00000
0
VERTEX
8
14_42000
10
157.61601
20
67.08400
30
42.00000
0
VERTEX
8
14_42000
10
157.62201
20
67.46201
30
42.00000
0
VERTEX
8
14_42000
10
157.60001
20
67.85400
30
42.00000
0
VERTEX
8
14_42000
10
157.53801
20
68.64001
30
42.00000
0
VERTEX
8
14_42000
10
157.50801
20
69.32900
30
42.00000
0
VERTEX
8
14_42000
10
157.45801
20
70.19601
30
42.00000
0
VERTEX
8
14_42000
10
157.42001
20
71.35201
30
42.00000
0
VERTEX
8
14_42000
10
157.37801
20
71.74600
30
42.00000
0
VERTEX
8
14_42000
10
157.35400
20
72.13400
30
42.00000
0
VERTEX
8
14_42000
10
157.34601
20
72.51801
30
42.00000
0
VERTEX
8
14_42000
10
157.32401
20
72.90401
30
42.00000
0
VERTEX
8
14_42000
10
157.30000
20
73.67400
30
42.00000
0
VERTEX
8
14_42000
10
157.22801
20
75.21600
30
42.00000
0
VERTEX
8
14_42000
10
157.18401
20
77.13200
30
42.00000
0
VERTEX
8
14_42000
10
157.15800
20
77.51801
30
42.00000
0
VERTEX
8
14_42000
10
157.18001
20
78.27400
30
42.00000
0
VERTEX
8
14_42000
10
157.17500
20
78.56001
30
42.00000
0
VERTEX
8
14_42000
10
157.14401
20
79.42600
30
42.00000
0
VERTEX
8
14_42000
10
157.09401
20
80.19601
30
42.00000
0
VERTEX
8
14_42000
10
157.10201
20
81.33200
30
42.00000
0
VERTEX
8
14_42000
10
157.06201
20
82.48000
30
42.00000
0
VERTEX
8
14_42000
10
157.00801
20
83.52901
30
42.00000
0
VERTEX
8
14_42000
10
156.95201
20
84.39600
30
42.00000
0
VERTEX
8
14_42000
10
156.96800
20
85.15200
30
42.00000
0
VERTEX
8
14_42000
10
156.96201
20
85.43401
30
42.00000
0
VERTEX
8
14_42000
10
156.92401
20
86.67600
30
42.00000
0
VERTEX
8
14_42000
10
156.90001
20
87.05601
30
42.00000
0
VERTEX
8
14_42000
10
156.86501
20
88.09701
30
42.00000
0
VERTEX
8
14_42000
10
156.86601
20
88.57800
30
42.00000
0
VERTEX
8
14_42000
10
156.90800
20
89.33401
30
42.00000
0
VERTEX
8
14_42000
10
156.90201
20
90.47201
30
42.00000
0
VERTEX
8
14_42000
10
156.94000
20
91.22800
30
42.00000
0
VERTEX
8
14_42000
10
156.94400
20
92.26701
30
42.00000
0
VERTEX
8
14_42000
10
156.93401
20
92.74600
30
42.00000
0
VERTEX
8
14_42000
10
156.93800
20
93.50600
30
42.00000
0
VERTEX
8
14_42000
10
156.92300
20
94.54201
30
42.00000
0
VERTEX
8
14_42000
10
156.86601
20
97.29800
30
42.00000
0
VERTEX
8
14_42000
10
156.90601
20
98.05801
30
42.00000
0
VERTEX
8
14_42000
10
156.89001
20
98.81600
30
42.00000
0
VERTEX
8
14_42000
10
156.90201
20
100.71201
30
42.00000
0
VERTEX
8
14_42000
10
156.91400
20
101.75101
30
42.00000
0
VERTEX
8
14_42000
10
156.94601
20
102.99200
30
42.00000
0
VERTEX
8
14_42000
10
156.95201
20
104.13200
30
42.00000
0
VERTEX
8
14_42000
10
156.94400
20
104.89001
30
42.00000
0
VERTEX
8
14_42000
10
156.95801
20
106.31001
30
42.00000
0
VERTEX
8
14_42000
10
156.96301
20
108.21001
30
42.00000
0
VERTEX
8
14_42000
10
156.99600
20
109.83201
30
42.00000
0
VERTEX
8
14_42000
10
156.98801
20
111.25301
30
42.00000
0
VERTEX
8
14_42000
10
157.03101
20
113.34801
30
42.00000
0
VERTEX
8
14_42000
10
157.04800
20
115.54401
30
42.00000
0
VERTEX
8
14_42000
10
157.15001
20
116.71400
30
42.00000
0
VERTEX
8
14_42000
10
157.16801
20
117.09601
30
42.00000
0
VERTEX
8
14_42000
10
157.16801
20
117.47800
30
42.00000
0
VERTEX
8
14_42000
10
157.13301
20
118.13400
30
42.00000
0
VERTEX
8
14_42000
10
157.11801
20
118.60400
30
42.00000
0
VERTEX
8
14_42000
10
157.13400
20
119.75201
30
42.00000
0
VERTEX
8
14_42000
10
157.13000
20
120.51201
30
42.00000
0
VERTEX
8
14_42000
10
157.14201
20
121.27601
30
42.00000
0
VERTEX
8
14_42000
10
157.18001
20
122.05201
30
42.00000
0
VERTEX
8
14_42000
10
157.20001
20
123.20000
30
42.00000
0
VERTEX
8
14_42000
10
157.29800
20
125.90401
30
42.00000
0
VERTEX
8
14_42000
10
157.35001
20
127.06801
30
42.00000
0
VERTEX
8
14_42000
10
157.41801
20
127.85801
30
42.00000
0
VERTEX
8
14_42000
10
157.42601
20
128.24400
30
42.00000
0
VERTEX
8
14_42000
10
157.47200
20
129.02800
30
42.00000
0
VERTEX
8
14_42000
10
157.46800
20
129.40800
30
42.00000
0
VERTEX
8
14_42000
10
157.51201
20
130.19200
30
42.00000
0
VERTEX
8
14_42000
10
157.52200
20
130.96201
30
42.00000
0
VERTEX
8
14_42000
10
157.56001
20
131.82600
30
42.00000
0
VERTEX
8
14_42000
10
157.62801
20
134.45401
30
42.00000
0
VERTEX
8
14_42000
10
157.72601
20
136.03801
30
42.00000
0
VERTEX
8
14_42000
10
157.74400
20
136.73401
30
42.00000
0
VERTEX
8
14_42000
10
157.76601
20
137.21001
30
42.00000
0
VERTEX
8
14_42000
10
157.80400
20
137.61200
30
42.00000
0
VERTEX
8
14_42000
10
157.80901
20
138.45801
30
42.00000
0
VERTEX
8
14_42000
10
157.80400
20
138.76201
30
42.00000
0
VERTEX
8
14_42000
10
157.74600
20
139.88200
30
42.00000
0
VERTEX
8
14_42000
10
157.66400
20
140.98401
30
42.00000
0
VERTEX
8
14_42000
10
157.54401
20
143.21001
30
42.00000
0
VERTEX
8
14_42000
10
157.39001
20
144.64201
30
42.00000
0
VERTEX
8
14_42000
10
157.32600
20
145.36401
30
42.00000
0
VERTEX
8
14_42000
10
157.22801
20
147.20401
30
42.00000
0
VERTEX
8
14_42000
10
157.18201
20
147.93600
30
42.00000
0
VERTEX
8
14_42000
10
157.17601
20
148.31201
30
42.00000
0
VERTEX
8
14_42000
10
157.09201
20
150.43901
30
42.00000
0
VERTEX
8
14_42000
10
157.07001
20
151.66000
30
42.00000
0
VERTEX
8
14_42000
10
157.00201
20
152.75201
30
42.00000
0
VERTEX
8
14_42000
10
157.00801
20
153.13400
30
42.00000
0
VERTEX
8
14_42000
10
156.99400
20
153.50401
30
42.00000
0
VERTEX
8
14_42000
10
156.96001
20
153.85800
30
42.00000
0
VERTEX
8
14_42000
10
156.95601
20
154.23401
30
42.00000
0
VERTEX
8
14_42000
10
156.88400
20
154.94000
30
42.00000
0
VERTEX
8
14_42000
10
156.85001
20
155.67201
30
42.00000
0
VERTEX
8
14_42000
10
156.78001
20
156.75401
30
42.00000
0
VERTEX
8
14_42000
10
156.74400
20
157.86201
30
42.00000
0
VERTEX
8
14_42000
10
156.65401
20
159.29601
30
42.00000
0
VERTEX
8
14_42000
10
156.62300
20
160.19400
30
42.00000
0
VERTEX
8
14_42000
10
156.59401
20
160.76401
30
42.00000
0
VERTEX
8
14_42000
10
156.58601
20
161.13600
30
42.00000
0
VERTEX
8
14_42000
10
156.53201
20
162.22000
30
42.00000
0
VERTEX
8
14_42000
10
156.41200
20
165.13400
30
42.00000
0
VERTEX
8
14_42000
10
156.38200
20
166.61401
30
42.00000
0
VERTEX
8
14_42000
10
156.34201
20
167.70601
30
42.00000
0
VERTEX
8
14_42000
10
156.35101
20
168.73100
30
42.00000
0
VERTEX
8
14_42000
10
156.34401
20
169.59201
30
42.00000
0
VERTEX
8
14_42000
10
156.37201
20
171.88000
30
42.00000
0
VERTEX
8
14_42000
10
156.40201
20
172.66000
30
42.00000
0
VERTEX
8
14_42000
10
156.42001
20
174.18800
30
42.00000
0
VERTEX
8
14_42000
10
156.45401
20
174.97801
30
42.00000
0
VERTEX
8
14_42000
10
156.46201
20
175.36401
30
42.00000
0
VERTEX
8
14_42000
10
156.45601
20
175.62401
30
42.00000
0
VERTEX
8
14_42000
10
156.46101
20
176.75700
30
42.00000
0
VERTEX
8
14_42000
10
156.44701
20
177.87300
30
42.00000
0
VERTEX
8
14_42000
10
156.45100
20
181.11700
30
42.00000
0
VERTEX
8
14_42000
10
156.45901
20
181.65901
30
42.00000
0
VERTEX
8
14_42000
10
156.48201
20
182.17401
30
42.00000
0
VERTEX
8
14_42000
10
156.47701
20
182.81300
30
42.00000
0
VERTEX
8
14_42000
10
156.49001
20
183.37401
30
42.00000
0
VERTEX
8
14_42000
10
10.57000
20
184.24600
30
42.00000
0
VERTEX
8
14_42000
10
10.51600
20
183.30801
30
42.00000
0
VERTEX
8
14_42000
10
10.45800
20
181.85800
30
42.00000
0
VERTEX
8
14_42000
10
10.36900
20
180.74200
30
42.00000
0
VERTEX
8
14_42000
10
10.28400
20
179.47101
30
42.00000
0
VERTEX
8
14_42000
10
10.26400
20
179.03601
30
42.00000
0
VERTEX
8
14_42000
10
10.05600
20
176.60001
30
42.00000
0
VERTEX
8
14_42000
10
9.86800
20
174.89401
30
42.00000
0
VERTEX
8
14_42000
10
9.81200
20
174.18800
30
42.00000
0
VERTEX
8
14_42000
10
9.69400
20
173.16602
30
42.00000
0
VERTEX
8
14_42000
10
9.28200
20
173.20401
30
42.00000
0
VERTEX
8
14_42000
10
9.23400
20
172.48201
30
42.00000
0
VERTEX
8
14_42000
10
9.16700
20
171.73701
30
42.00000
0
VERTEX
8
14_42000
10
9.00400
20
170.41000
30
42.00000
0
VERTEX
8
14_42000
10
8.90400
20
169.73801
30
42.00000
0
VERTEX
8
14_42000
10
8.67700
20
168.05602
30
42.00000
0
VERTEX
8
14_42000
10
8.40100
20
166.35101
30
42.00000
0
VERTEX
8
14_42000
10
8.27000
20
165.62401
30
42.00000
0
VERTEX
8
14_42000
10
8.93100
20
165.35701
30
42.00000
0
VERTEX
8
14_42000
10
9.31400
20
165.23500
30
42.00000
0
VERTEX
8
14_42000
10
9.59500
20
165.09401
30
42.00000
0
VERTEX
8
14_42000
10
9.89800
20
164.97101
30
42.00000
0
VERTEX
8
14_42000
10
10.19600
20
164.78201
30
42.00000
0
VERTEX
8
14_42000
10
12.07200
20
163.33701
30
42.00000
0
VERTEX
8
14_42000
10
13.50400
20
161.60800
30
42.00000
0
VERTEX
8
14_42000
10
14.37200
20
160.15201
30
42.00000
0
VERTEX
8
14_42000
10
14.69800
20
159.48401
30
42.00000
0
VERTEX
8
14_42000
10
15.26800
20
158.27400
30
42.00000
0
VERTEX
8
14_42000
10
15.74800
20
157.31201
30
42.00000
0
VERTEX
8
14_42000
10
15.92800
20
156.73100
30
42.00000
0
VERTEX
8
14_42000
10
16.07300
20
156.30501
30
42.00000
0
VERTEX
8
14_42000
10
16.20900
20
155.77800
30
42.00000
0
VERTEX
8
14_42000
10
16.34400
20
155.39201
30
42.00000
0
VERTEX
8
14_42000
10
16.46500
20
154.52200
30
42.00000
0
VERTEX
8
14_42000
10
16.51400
20
154.08101
30
42.00000
0
VERTEX
8
14_42000
10
16.63600
20
153.74701
30
42.00000
0
VERTEX
8
14_42000
10
16.65400
20
153.67101
30
42.00000
0
VERTEX
8
14_42000
10
16.69000
20
153.12300
30
42.00000
0
VERTEX
8
14_42000
10
16.99100
20
151.31300
30
42.00000
0
VERTEX
8
14_42000
10
17.07700
20
149.94301
30
42.00000
0
VERTEX
8
14_42000
10
17.18400
20
149.22200
30
42.00000
0
VERTEX
8
14_42000
10
17.23000
20
148.13400
30
42.00000
0
VERTEX
8
14_42000
10
17.25000
20
147.86101
30
42.00000
0
VERTEX
8
14_42000
10
17.17400
20
144.25201
30
42.00000
0
VERTEX
8
14_42000
10
16.96300
20
141.23001
30
42.00000
0
VERTEX
8
14_42000
10
16.88500
20
140.62901
30
42.00000
0
VERTEX
8
14_42000
10
16.71800
20
139.05400
30
42.00000
0
VERTEX
8
14_42000
10
16.61600
20
138.56801
30
42.00000
0
VERTEX
8
14_42000
10
16.35800
20
136.86900
30
42.00000
0
VERTEX
8
14_42000
10
16.05300
20
134.99400
30
42.00000
0
VERTEX
8
14_42000
10
15.55600
20
132.24600
30
42.00000
0
VERTEX
8
14_42000
10
15.14200
20
130.36101
30
42.00000
0
VERTEX
8
14_42000
10
14.70800
20
128.31201
30
42.00000
0
VERTEX
8
14_42000
10
13.90000
20
124.39600
30
42.00000
0
VERTEX
8
14_42000
10
13.69700
20
123.49500
30
42.00000
0
VERTEX
8
14_42000
10
13.27600
20
121.79001
30
42.00000
0
VERTEX
8
14_42000
10
13.15900
20
121.44401
30
42.00000
0
VERTEX
8
14_42000
10
13.13200
20
121.26301
30
42.00000
0
VERTEX
8
14_42000
10
12.84500
20
120.33701
30
42.00000
0
VERTEX
8
14_42000
10
12.57800
20
119.67400
30
42.00000
0
VERTEX
8
14_42000
10
12.15100
20
118.45100
30
42.00000
0
VERTEX
8
14_42000
10
11.90900
20
118.08900
30
42.00000
0
VERTEX
8
14_42000
10
11.79100
20
117.80200
30
42.00000
0
VERTEX
8
14_42000
10
11.75900
20
117.75700
30
42.00000
0
VERTEX
8
14_42000
10
11.70100
20
117.54101
30
42.00000
0
VERTEX
8
14_42000
10
11.59900
20
117.22701
30
42.00000
0
VERTEX
8
14_42000
10
11.54500
20
117.11301
30
42.00000
0
VERTEX
8
14_42000
10
11.51400
20
117.06500
30
42.00000
0
VERTEX
8
14_42000
10
11.51500
20
117.01701
30
42.00000
0
VERTEX
8
14_42000
10
11.36700
20
116.79700
30
42.00000
0
VERTEX
8
14_42000
10
11.30000
20
116.64500
30
42.00000
0
VERTEX
8
14_42000
10
11.00500
20
116.11800
30
42.00000
0
VERTEX
8
14_42000
10
10.56100
20
115.52400
30
42.00000
0
VERTEX
8
14_42000
10
10.40800
20
115.20801
30
42.00000
0
VERTEX
8
14_42000
10
9.98200
20
114.63801
30
42.00000
0
VERTEX
8
14_42000
10
9.67300
20
114.19201
30
42.00000
0
VERTEX
8
14_42000
10
9.45700
20
113.99300
30
42.00000
0
VERTEX
8
14_42000
10
9.39600
20
113.88701
30
42.00000
0
VERTEX
8
14_42000
10
8.83900
20
113.49600
30
42.00000
0
VERTEX
8
14_42000
10
8.57500
20
113.16801
30
42.00000
0
VERTEX
8
14_42000
10
8.46500
20
113.08701
30
42.00000
0
VERTEX
8
14_42000
10
8.24900
20
112.96800
30
42.00000
0
VERTEX
8
14_42000
10
8.00100
20
112.74500
30
42.00000
0
VERTEX
8
14_42000
10
7.31800
20
112.15800
30
42.00000
0
VERTEX
8
14_42000
10
7.09800
20
111.94100
30
42.00000
0
VERTEX
8
14_42000
10
6.93400
20
111.81600
30
42.00000
0
VERTEX
8
14_42000
10
6.74300
20
111.63200
30
42.00000
0
VERTEX
8
14_42000
10
6.93500
20
110.32301
30
42.00000
0
VERTEX
8
14_42000
10
6.99000
20
109.89800
30
42.00000
0
VERTEX
8
14_42000
10
7.35400
20
107.48601
30
42.00000
0
VERTEX
8
14_42000
10
7.40000
20
107.08801
30
42.00000
0
VERTEX
8
14_42000
10
7.43200
20
106.69401
30
42.00000
0
VERTEX
8
14_42000
10
7.57100
20
105.54900
30
42.00000
0
VERTEX
8
14_42000
10
7.63400
20
105.11001
30
42.00000
0
VERTEX
8
14_42000
10
7.71600
20
104.32401
30
42.00000
0
VERTEX
8
14_42000
10
7.74400
20
103.93201
30
42.00000
0
VERTEX
8
14_42000
10
7.77000
20
103.15401
30
42.00000
0
VERTEX
8
14_42000
10
7.79200
20
102.76401
30
42.00000
0
VERTEX
8
14_42000
10
7.98400
20
99.98200
30
42.00000
0
VERTEX
8
14_42000
10
8.04400
20
98.11001
30
42.00000
0
VERTEX
8
14_42000
10
8.08600
20
97.33601
30
42.00000
0
VERTEX
8
14_42000
10
8.10600
20
96.18001
30
42.00000
0
VERTEX
8
14_42000
10
8.13400
20
95.79601
30
42.00000
0
VERTEX
8
14_42000
10
8.18200
20
94.64001
30
42.00000
0
VERTEX
8
14_42000
10
8.19000
20
94.18800
30
42.00000
0
VERTEX
8
14_42000
10
8.24000
20
92.64600
30
42.00000
0
VERTEX
8
14_42000
10
8.25600
20
92.33200
30
42.00000
0
VERTEX
8
14_42000
10
8.31500
20
91.64101
30
42.00000
0
VERTEX
8
14_42000
10
8.34800
20
91.02500
30
42.00000
0
VERTEX
8
14_42000
10
8.41600
20
90.04000
30
42.00000
0
VERTEX
8
14_42000
10
8.42800
20
89.65601
30
42.00000
0
VERTEX
8
14_42000
10
8.41400
20
88.88800
30
42.00000
0
VERTEX
8
14_42000
10
8.44500
20
87.43501
30
42.00000
0
VERTEX
8
14_42000
10
8.49600
20
86.21201
30
42.00000
0
VERTEX
8
14_42000
10
8.49400
20
85.36900
30
42.00000
0
VERTEX
8
14_42000
10
8.45400
20
82.37400
30
42.00000
0
VERTEX
8
14_42000
10
8.40000
20
80.83000
30
42.00000
0
VERTEX
8
14_42000
10
8.41600
20
80.45000
30
42.00000
0
VERTEX
8
14_42000
10
8.41800
20
80.14201
30
42.00000
0
VERTEX
8
14_42000
10
8.39200
20
79.29401
30
42.00000
0
VERTEX
8
14_42000
10
8.41000
20
77.61201
30
42.00000
0
VERTEX
8
14_42000
10
8.40800
20
76.99800
30
42.00000
0
VERTEX
8
14_42000
10
8.38400
20
76.22200
30
42.00000
0
VERTEX
8
14_42000
10
8.41000
20
75.46400
30
42.00000
0
VERTEX
8
14_42000
10
8.41000
20
73.93000
30
42.00000
0
VERTEX
8
14_42000
10
8.42200
20
73.16400
30
42.00000
0
VERTEX
8
14_42000
10
8.40000
20
71.62200
30
42.00000
0
VERTEX
8
14_42000
10
8.43800
20
70.48400
30
42.00000
0
VERTEX
8
14_42000
10
8.44600
20
68.95600
30
42.00000
0
VERTEX
8
14_42000
10
8.43800
20
67.41801
30
42.00000
0
VERTEX
8
14_42000
10
8.40400
20
64.87000
30
42.00000
0
VERTEX
8
14_42000
10
8.37800
20
61.63800
30
42.00000
0
VERTEX
8
14_42000
10
8.33400
20
60.08200
30
42.00000
0
VERTEX
8
14_42000
10
8.33400
20
59.77100
30
42.00000
0
VERTEX
8
14_42000
10
8.33600
20
59.31600
30
42.00000
0
VERTEX
8
14_42000
10
8.36200
20
58.55800
30
42.00000
0
VERTEX
8
14_42000
10
8.36000
20
58.17600
30
42.00000
0
VERTEX
8
14_42000
10
8.37400
20
57.10700
30
42.00000
0
VERTEX
8
14_42000
10
8.40200
20
55.89600
30
42.00000
0
VERTEX
8
14_42000
10
8.40200
20
55.13000
30
42.00000
0
VERTEX
8
14_42000
10
8.41800
20
53.91100
30
42.00000
0
VERTEX
8
14_42000
10
8.47600
20
52.10600
30
42.00000
0
VERTEX
8
14_42000
10
8.49200
20
51.34800
30
42.00000
0
VERTEX
8
14_42000
10
8.58800
20
48.73000
30
42.00000
0
VERTEX
8
14_42000
10
8.63400
20
47.69600
30
42.00000
0
VERTEX
8
14_42000
10
8.68200
20
46.88200
30
42.00000
0
VERTEX
8
14_42000
10
8.71600
20
46.14200
30
42.00000
0
VERTEX
8
14_42000
10
8.80800
20
44.68000
30
42.00000
0
VERTEX
8
14_42000
10
9.02900
20
42.08300
30
42.00000
0
VERTEX
8
14_42000
10
9.32200
20
38.99400
30
42.00000
0
VERTEX
8
14_42000
10
9.63000
20
36.33900
30
42.00000
0
VERTEX
8
14_42000
10
9.72200
20
35.67000
30
42.00000
0
VERTEX
8
14_42000
10
9.80300
20
34.98700
30
42.00000
0
SEQEND
8
14_42000
0
ENDSEC
0
EOF
