0
SECTION
2
HEADER
9
$ACADVER
1
AC1009
0
ENDSEC
0
SECTION
2
TABLES
0
TABLE
2
LAYER
70
1
0
LAYER
2
37_111000
70
0
62
7
6
CONTINUOUS
0
ENDTAB
0
ENDSEC
0
SECTION
2
BLOCKS
0
ENDSEC
0
SECTION
2
ENTITIES
0
POLYLINE
8
37_111000
62
5
0
VERTEX
8
37_111000
10
90.41601
20
105.30300
30
111.00000
0
VERTEX
8
37_111000
10
90.73400
20
105.93900
30
111.00000
0
VERTEX
8
37_111000
10
91.06400
20
106.98000
30
111.00000
0
VERTEX
8
37_111000
10
91.13100
20
107.59300
30
111.00000
0
VERTEX
8
37_111000
10
91.12901
20
107.73401
30
111.00000
0
VERTEX
8
37_111000
10
91.06100
20
108.99400
30
111.00000
0
VERTEX
8
37_111000
10
90.72501
20
110.01801
30
111.00000
0
VERTEX
8
37_111000
10
89.92800
20
111.17700
30
111.00000
0
VERTEX
8
37_111000
10
89.79101
20
111.41200
30
111.00000
0
VERTEX
8
37_111000
10
88.90501
20
112.22601
30
111.00000
0
VERTEX
8
37_111000
10
88.78500
20
112.32700
30
111.00000
0
VERTEX
8
37_111000
10
88.57700
20
112.41401
30
111.00000
0
VERTEX
8
37_111000
10
87.80100
20
112.65601
30
111.00000
0
VERTEX
8
37_111000
10
87.46201
20
112.73501
30
111.00000
0
VERTEX
8
37_111000
10
86.70700
20
112.83801
30
111.00000
0
VERTEX
8
37_111000
10
85.99600
20
112.94601
30
111.00000
0
VERTEX
8
37_111000
10
85.64900
20
112.87100
30
111.00000
0
VERTEX
8
37_111000
10
85.05901
20
112.77801
30
111.00000
0
VERTEX
8
37_111000
10
84.25201
20
112.44501
30
111.00000
0
VERTEX
8
37_111000
10
83.86501
20
112.14700
30
111.00000
0
VERTEX
8
37_111000
10
83.09000
20
111.54700
30
111.00000
0
VERTEX
8
37_111000
10
82.85500
20
111.28201
30
111.00000
0
VERTEX
8
37_111000
10
82.48000
20
110.78500
30
111.00000
0
VERTEX
8
37_111000
10
82.08900
20
110.04900
30
111.00000
0
VERTEX
8
37_111000
10
81.81300
20
109.33801
30
111.00000
0
VERTEX
8
37_111000
10
81.67300
20
108.62601
30
111.00000
0
VERTEX
8
37_111000
10
81.62000
20
107.94301
30
111.00000
0
VERTEX
8
37_111000
10
81.60600
20
107.37701
30
111.00000
0
VERTEX
8
37_111000
10
81.64900
20
106.93900
30
111.00000
0
VERTEX
8
37_111000
10
81.81500
20
106.64500
30
111.00000
0
VERTEX
8
37_111000
10
82.78400
20
104.07500
30
111.00000
0
VERTEX
8
37_111000
10
82.90301
20
103.88600
30
111.00000
0
VERTEX
8
37_111000
10
83.30901
20
103.33801
30
111.00000
0
VERTEX
8
37_111000
10
83.46800
20
103.21400
30
111.00000
0
VERTEX
8
37_111000
10
83.89800
20
102.61301
30
111.00000
0
VERTEX
8
37_111000
10
84.03800
20
102.53600
30
111.00000
0
VERTEX
8
37_111000
10
84.79601
20
102.20901
30
111.00000
0
VERTEX
8
37_111000
10
85.38100
20
102.12200
30
111.00000
0
VERTEX
8
37_111000
10
86.51000
20
101.92800
30
111.00000
0
VERTEX
8
37_111000
10
87.58501
20
102.20400
30
111.00000
0
VERTEX
8
37_111000
10
87.80100
20
102.26701
30
111.00000
0
VERTEX
8
37_111000
10
87.90900
20
102.33701
30
111.00000
0
VERTEX
8
37_111000
10
89.20000
20
103.31300
30
111.00000
0
VERTEX
8
37_111000
10
89.71500
20
103.88600
30
111.00000
0
VERTEX
8
37_111000
10
89.80100
20
104.00800
30
111.00000
0
VERTEX
8
37_111000
10
90.21101
20
104.83501
30
111.00000
0
VERTEX
8
37_111000
10
90.41601
20
105.30300
30
111.00000
0
SEQEND
8
37_111000
0
ENDSEC
0
EOF
