0
SECTION
2
HEADER
9
$ACADVER
1
AC1009
0
ENDSEC
0
SECTION
2
TABLES
0
TABLE
2
LAYER
70
1
0
LAYER
2
34_102000
70
0
62
7
6
CONTINUOUS
0
ENDTAB
0
ENDSEC
0
SECTION
2
BLOCKS
0
ENDSEC
0
SECTION
2
ENTITIES
0
POLYLINE
8
34_102000
62
5
0
VERTEX
8
34_102000
10
73.78700
20
105.85400
30
102.00000
0
VERTEX
8
34_102000
10
73.82401
20
105.77901
30
102.00000
0
VERTEX
8
34_102000
10
73.95500
20
105.34901
30
102.00000
0
VERTEX
8
34_102000
10
74.04301
20
105.21101
30
102.00000
0
VERTEX
8
34_102000
10
74.27700
20
104.64700
30
102.00000
0
VERTEX
8
34_102000
10
74.57201
20
104.28600
30
102.00000
0
VERTEX
8
34_102000
10
74.70800
20
104.07700
30
102.00000
0
VERTEX
8
34_102000
10
75.30801
20
103.34300
30
102.00000
0
VERTEX
8
34_102000
10
76.18000
20
102.30701
30
102.00000
0
VERTEX
8
34_102000
10
78.06200
20
99.51000
30
102.00000
0
VERTEX
8
34_102000
10
78.44601
20
98.88200
30
102.00000
0
VERTEX
8
34_102000
10
78.67200
20
98.57600
30
102.00000
0
VERTEX
8
34_102000
10
79.27200
20
97.73100
30
102.00000
0
VERTEX
8
34_102000
10
80.06700
20
96.80501
30
102.00000
0
VERTEX
8
34_102000
10
81.41901
20
95.49001
30
102.00000
0
VERTEX
8
34_102000
10
82.08000
20
94.97601
30
102.00000
0
VERTEX
8
34_102000
10
82.48500
20
94.77000
30
102.00000
0
VERTEX
8
34_102000
10
83.22501
20
94.43900
30
102.00000
0
VERTEX
8
34_102000
10
84.11900
20
94.17700
30
102.00000
0
VERTEX
8
34_102000
10
84.78500
20
94.00301
30
102.00000
0
VERTEX
8
34_102000
10
84.92001
20
93.99001
30
102.00000
0
VERTEX
8
34_102000
10
85.71001
20
93.95500
30
102.00000
0
VERTEX
8
34_102000
10
86.54100
20
94.03500
30
102.00000
0
VERTEX
8
34_102000
10
86.78900
20
94.10700
30
102.00000
0
VERTEX
8
34_102000
10
87.48300
20
94.26701
30
102.00000
0
VERTEX
8
34_102000
10
87.67500
20
94.35700
30
102.00000
0
VERTEX
8
34_102000
10
88.09000
20
94.66901
30
102.00000
0
VERTEX
8
34_102000
10
88.65301
20
95.17101
30
102.00000
0
VERTEX
8
34_102000
10
88.73300
20
95.21900
30
102.00000
0
VERTEX
8
34_102000
10
88.93001
20
95.43600
30
102.00000
0
VERTEX
8
34_102000
10
89.85800
20
96.25800
30
102.00000
0
VERTEX
8
34_102000
10
90.46201
20
96.86900
30
102.00000
0
VERTEX
8
34_102000
10
91.25101
20
97.58000
30
102.00000
0
VERTEX
8
34_102000
10
91.76701
20
98.06600
30
102.00000
0
VERTEX
8
34_102000
10
92.06500
20
98.41200
30
102.00000
0
VERTEX
8
34_102000
10
92.70000
20
99.01501
30
102.00000
0
VERTEX
8
34_102000
10
92.92500
20
99.26701
30
102.00000
0
VERTEX
8
34_102000
10
93.08200
20
99.53101
30
102.00000
0
VERTEX
8
34_102000
10
93.27701
20
99.81300
30
102.00000
0
VERTEX
8
34_102000
10
93.56400
20
100.18600
30
102.00000
0
VERTEX
8
34_102000
10
94.95801
20
101.77000
30
102.00000
0
VERTEX
8
34_102000
10
95.91601
20
102.19801
30
102.00000
0
VERTEX
8
34_102000
10
95.94601
20
102.22501
30
102.00000
0
VERTEX
8
34_102000
10
96.51701
20
102.53800
30
102.00000
0
VERTEX
8
34_102000
10
97.13500
20
103.15601
30
102.00000
0
VERTEX
8
34_102000
10
97.29201
20
103.39001
30
102.00000
0
VERTEX
8
34_102000
10
97.45000
20
103.66100
30
102.00000
0
VERTEX
8
34_102000
10
97.87200
20
104.91400
30
102.00000
0
VERTEX
8
34_102000
10
98.04000
20
105.35201
30
102.00000
0
VERTEX
8
34_102000
10
98.07001
20
105.60001
30
102.00000
0
VERTEX
8
34_102000
10
98.17200
20
105.98100
30
102.00000
0
VERTEX
8
34_102000
10
98.18700
20
107.60101
30
102.00000
0
VERTEX
8
34_102000
10
98.21700
20
107.84601
30
102.00000
0
VERTEX
8
34_102000
10
98.22101
20
107.96900
30
102.00000
0
VERTEX
8
34_102000
10
98.13901
20
108.72001
30
102.00000
0
VERTEX
8
34_102000
10
97.79201
20
110.99300
30
102.00000
0
VERTEX
8
34_102000
10
97.70300
20
111.29700
30
102.00000
0
VERTEX
8
34_102000
10
97.13100
20
113.91000
30
102.00000
0
VERTEX
8
34_102000
10
96.92300
20
114.60700
30
102.00000
0
VERTEX
8
34_102000
10
96.75900
20
115.01201
30
102.00000
0
VERTEX
8
34_102000
10
96.14500
20
116.43101
30
102.00000
0
VERTEX
8
34_102000
10
95.31100
20
118.12901
30
102.00000
0
VERTEX
8
34_102000
10
95.26501
20
118.20300
30
102.00000
0
VERTEX
8
34_102000
10
93.25401
20
121.02901
30
102.00000
0
VERTEX
8
34_102000
10
91.27400
20
123.38901
30
102.00000
0
VERTEX
8
34_102000
10
90.61900
20
123.91301
30
102.00000
0
VERTEX
8
34_102000
10
90.37100
20
124.15201
30
102.00000
0
VERTEX
8
34_102000
10
89.82001
20
124.82201
30
102.00000
0
VERTEX
8
34_102000
10
89.25401
20
125.18101
30
102.00000
0
VERTEX
8
34_102000
10
88.95500
20
125.43501
30
102.00000
0
VERTEX
8
34_102000
10
88.54201
20
125.61301
30
102.00000
0
VERTEX
8
34_102000
10
87.49500
20
126.16000
30
102.00000
0
VERTEX
8
34_102000
10
87.21900
20
126.20601
30
102.00000
0
VERTEX
8
34_102000
10
86.65900
20
126.20601
30
102.00000
0
VERTEX
8
34_102000
10
86.21400
20
126.15501
30
102.00000
0
VERTEX
8
34_102000
10
86.00401
20
126.06901
30
102.00000
0
VERTEX
8
34_102000
10
85.78800
20
126.01401
30
102.00000
0
VERTEX
8
34_102000
10
85.44601
20
125.95400
30
102.00000
0
VERTEX
8
34_102000
10
85.26801
20
125.88801
30
102.00000
0
VERTEX
8
34_102000
10
84.67001
20
125.56001
30
102.00000
0
VERTEX
8
34_102000
10
84.15800
20
125.33201
30
102.00000
0
VERTEX
8
34_102000
10
84.01900
20
125.23200
30
102.00000
0
VERTEX
8
34_102000
10
83.97000
20
125.16501
30
102.00000
0
VERTEX
8
34_102000
10
82.99700
20
124.35901
30
102.00000
0
VERTEX
8
34_102000
10
82.28300
20
123.50301
30
102.00000
0
VERTEX
8
34_102000
10
82.01501
20
123.24400
30
102.00000
0
VERTEX
8
34_102000
10
81.47100
20
122.63200
30
102.00000
0
VERTEX
8
34_102000
10
81.15601
20
122.17801
30
102.00000
0
VERTEX
8
34_102000
10
80.85600
20
121.87301
30
102.00000
0
VERTEX
8
34_102000
10
80.42800
20
121.46600
30
102.00000
0
VERTEX
8
34_102000
10
78.95400
20
119.91701
30
102.00000
0
VERTEX
8
34_102000
10
78.36100
20
119.12000
30
102.00000
0
VERTEX
8
34_102000
10
77.95000
20
118.64700
30
102.00000
0
VERTEX
8
34_102000
10
77.56800
20
118.12100
30
102.00000
0
VERTEX
8
34_102000
10
76.22100
20
116.12801
30
102.00000
0
VERTEX
8
34_102000
10
75.88200
20
115.41200
30
102.00000
0
VERTEX
8
34_102000
10
75.29301
20
114.30000
30
102.00000
0
VERTEX
8
34_102000
10
74.44901
20
112.14800
30
102.00000
0
VERTEX
8
34_102000
10
74.20500
20
111.49300
30
102.00000
0
VERTEX
8
34_102000
10
74.02500
20
110.88901
30
102.00000
0
VERTEX
8
34_102000
10
73.93201
20
110.50001
30
102.00000
0
VERTEX
8
34_102000
10
73.67300
20
109.29700
30
102.00000
0
VERTEX
8
34_102000
10
73.58401
20
107.93101
30
102.00000
0
VERTEX
8
34_102000
10
73.54200
20
107.48401
30
102.00000
0
VERTEX
8
34_102000
10
73.55300
20
107.21201
30
102.00000
0
VERTEX
8
34_102000
10
73.59100
20
107.01301
30
102.00000
0
VERTEX
8
34_102000
10
73.71101
20
106.50101
30
102.00000
0
VERTEX
8
34_102000
10
73.72200
20
106.33601
30
102.00000
0
VERTEX
8
34_102000
10
73.78700
20
105.85400
30
102.00000
0
SEQEND
8
34_102000
0
ENDSEC
0
EOF
