0
SECTION
2
HEADER
9
$ACADVER
1
AC1009
0
ENDSEC
0
SECTION
2
TABLES
0
TABLE
2
LAYER
70
1
0
LAYER
2
5_15000
70
0
62
7
6
CONTINUOUS
0
ENDTAB
0
ENDSEC
0
SECTION
2
BLOCKS
0
ENDSEC
0
SECTION
2
ENTITIES
0
POLYLINE
8
5_15000
62
5
0
VERTEX
8
5_15000
10
50.78300
20
183.89101
30
15.00000
0
VERTEX
8
5_15000
10
15.17800
20
184.06601
30
15.00000
0
VERTEX
8
5_15000
10
50.78300
20
183.89101
30
15.00000
0
SEQEND
8
5_15000
0
POLYLINE
8
5_15000
62
5
0
VERTEX
8
5_15000
10
20.39800
20
183.58601
30
15.00000
0
VERTEX
8
5_15000
10
156.49001
20
183.37401
30
15.00000
0
VERTEX
8
5_15000
10
20.39800
20
183.58601
30
15.00000
0
SEQEND
8
5_15000
0
POLYLINE
8
5_15000
62
5
0
VERTEX
8
5_15000
10
121.44000
20
183.52400
30
15.00000
0
VERTEX
8
5_15000
10
16.29400
20
183.97401
30
15.00000
0
VERTEX
8
5_15000
10
16.23600
20
183.98201
30
15.00000
0
VERTEX
8
5_15000
10
121.44000
20
183.52400
30
15.00000
0
SEQEND
8
5_15000
0
POLYLINE
8
5_15000
62
5
0
VERTEX
8
5_15000
10
39.59400
20
181.93901
30
15.00000
0
VERTEX
8
5_15000
10
156.49001
20
183.37401
30
15.00000
0
VERTEX
8
5_15000
10
30.02200
20
181.81201
30
15.00000
0
VERTEX
8
5_15000
10
29.98200
20
181.82001
30
15.00000
0
VERTEX
8
5_15000
10
39.59400
20
181.93901
30
15.00000
0
SEQEND
8
5_15000
0
POLYLINE
8
5_15000
62
5
0
VERTEX
8
5_15000
10
120.91200
20
183.56001
30
15.00000
0
VERTEX
8
5_15000
10
14.18000
20
184.12001
30
15.00000
0
VERTEX
8
5_15000
10
14.01400
20
184.12801
30
15.00000
0
VERTEX
8
5_15000
10
120.91200
20
183.56001
30
15.00000
0
SEQEND
8
5_15000
0
POLYLINE
8
5_15000
62
5
0
VERTEX
8
5_15000
10
98.19601
20
181.70001
30
15.00000
0
VERTEX
8
5_15000
10
39.88800
20
180.02600
30
15.00000
0
VERTEX
8
5_15000
10
98.19601
20
181.70001
30
15.00000
0
SEQEND
8
5_15000
0
POLYLINE
8
5_15000
62
5
0
VERTEX
8
5_15000
10
9.78500
20
35.13700
30
15.00000
0
VERTEX
8
5_15000
10
10.06800
20
32.85600
30
15.00000
0
VERTEX
8
5_15000
10
10.16600
20
32.19600
30
15.00000
0
VERTEX
8
5_15000
10
11.03000
20
25.52500
30
15.00000
0
VERTEX
8
5_15000
10
11.10700
20
24.86800
30
15.00000
0
VERTEX
8
5_15000
10
11.18800
20
24.29200
30
15.00000
0
VERTEX
8
5_15000
10
11.43200
20
22.34600
30
15.00000
0
VERTEX
8
5_15000
10
11.78200
20
19.44200
30
15.00000
0
VERTEX
8
5_15000
10
11.95800
20
18.10900
30
15.00000
0
VERTEX
8
5_15000
10
12.09400
20
16.95900
30
15.00000
0
VERTEX
8
5_15000
10
12.58400
20
13.06300
30
15.00000
0
VERTEX
8
5_15000
10
13.18600
20
8.02900
30
15.00000
0
VERTEX
8
5_15000
10
13.80600
20
2.61000
30
15.00000
0
VERTEX
8
5_15000
10
14.09200
20
0.00600
30
15.00000
0
VERTEX
8
5_15000
10
158.53401
20
0.00600
30
15.00000
0
VERTEX
8
5_15000
10
158.60600
20
1.23800
30
15.00000
0
VERTEX
8
5_15000
10
158.65800
20
1.95200
30
15.00000
0
VERTEX
8
5_15000
10
158.71600
20
3.05000
30
15.00000
0
VERTEX
8
5_15000
10
158.80801
20
4.49800
30
15.00000
0
VERTEX
8
5_15000
10
158.83601
20
5.24400
30
15.00000
0
VERTEX
8
5_15000
10
159.04100
20
9.56300
30
15.00000
0
VERTEX
8
5_15000
10
159.17001
20
13.46000
30
15.00000
0
VERTEX
8
5_15000
10
159.18600
20
14.22200
30
15.00000
0
VERTEX
8
5_15000
10
159.23701
20
15.86400
30
15.00000
0
VERTEX
8
5_15000
10
159.28401
20
18.94600
30
15.00000
0
VERTEX
8
5_15000
10
159.32600
20
20.98800
30
15.00000
0
VERTEX
8
5_15000
10
159.33000
20
23.07400
30
15.00000
0
VERTEX
8
5_15000
10
159.31401
20
25.82400
30
15.00000
0
VERTEX
8
5_15000
10
159.26300
20
29.51300
30
15.00000
0
VERTEX
8
5_15000
10
159.11501
20
34.70400
30
15.00000
0
VERTEX
8
5_15000
10
158.97801
20
38.70400
30
15.00000
0
VERTEX
8
5_15000
10
158.93001
20
39.77200
30
15.00000
0
VERTEX
8
5_15000
10
158.85600
20
41.76800
30
15.00000
0
VERTEX
8
5_15000
10
158.71400
20
44.57600
30
15.00000
0
VERTEX
8
5_15000
10
158.59601
20
47.36200
30
15.00000
0
VERTEX
8
5_15000
10
158.55901
20
48.42500
30
15.00000
0
VERTEX
8
5_15000
10
158.55801
20
50.09600
30
15.00000
0
VERTEX
8
5_15000
10
158.62201
20
51.99800
30
15.00000
0
VERTEX
8
5_15000
10
158.62801
20
52.64900
30
15.00000
0
VERTEX
8
5_15000
10
158.62201
20
53.54800
30
15.00000
0
VERTEX
8
5_15000
10
158.59601
20
54.33600
30
15.00000
0
VERTEX
8
5_15000
10
158.56300
20
54.86100
30
15.00000
0
VERTEX
8
5_15000
10
158.50401
20
55.54400
30
15.00000
0
VERTEX
8
5_15000
10
158.45601
20
56.73000
30
15.00000
0
VERTEX
8
5_15000
10
158.40800
20
57.14000
30
15.00000
0
VERTEX
8
5_15000
10
158.33000
20
57.56200
30
15.00000
0
VERTEX
8
5_15000
10
158.33000
20
58.33400
30
15.00000
0
VERTEX
8
5_15000
10
158.31601
20
58.72800
30
15.00000
0
VERTEX
8
5_15000
10
158.26201
20
59.25200
30
15.00000
0
VERTEX
8
5_15000
10
158.17401
20
59.94800
30
15.00000
0
VERTEX
8
5_15000
10
158.10400
20
60.36400
30
15.00000
0
VERTEX
8
5_15000
10
158.04800
20
60.77200
30
15.00000
0
VERTEX
8
5_15000
10
158.02200
20
61.16800
30
15.00000
0
VERTEX
8
5_15000
10
157.97801
20
61.57200
30
15.00000
0
VERTEX
8
5_15000
10
157.94801
20
61.96800
30
15.00000
0
VERTEX
8
5_15000
10
157.90001
20
63.14000
30
15.00000
0
VERTEX
8
5_15000
10
157.84401
20
63.93200
30
15.00000
0
VERTEX
8
5_15000
10
157.79800
20
64.33400
30
15.00000
0
VERTEX
8
5_15000
10
157.69200
20
65.52200
30
15.00000
0
VERTEX
8
5_15000
10
157.65201
20
66.68600
30
15.00000
0
VERTEX
8
5_15000
10
157.61601
20
67.08400
30
15.00000
0
VERTEX
8
5_15000
10
157.62201
20
67.46201
30
15.00000
0
VERTEX
8
5_15000
10
157.60001
20
67.85400
30
15.00000
0
VERTEX
8
5_15000
10
157.53801
20
68.64001
30
15.00000
0
VERTEX
8
5_15000
10
157.45801
20
70.19601
30
15.00000
0
VERTEX
8
5_15000
10
157.42001
20
71.35201
30
15.00000
0
VERTEX
8
5_15000
10
157.37801
20
71.74600
30
15.00000
0
VERTEX
8
5_15000
10
157.35400
20
72.13400
30
15.00000
0
VERTEX
8
5_15000
10
157.34601
20
72.51801
30
15.00000
0
VERTEX
8
5_15000
10
157.32401
20
72.90401
30
15.00000
0
VERTEX
8
5_15000
10
157.30000
20
73.67400
30
15.00000
0
VERTEX
8
5_15000
10
157.22801
20
75.21600
30
15.00000
0
VERTEX
8
5_15000
10
157.18401
20
77.13200
30
15.00000
0
VERTEX
8
5_15000
10
157.15800
20
77.51801
30
15.00000
0
VERTEX
8
5_15000
10
157.17801
20
78.37601
30
15.00000
0
VERTEX
8
5_15000
10
157.14401
20
79.42600
30
15.00000
0
VERTEX
8
5_15000
10
157.09401
20
80.19601
30
15.00000
0
VERTEX
8
5_15000
10
157.10201
20
81.33200
30
15.00000
0
VERTEX
8
5_15000
10
157.06201
20
82.48000
30
15.00000
0
VERTEX
8
5_15000
10
157.01801
20
83.34801
30
15.00000
0
VERTEX
8
5_15000
10
156.95201
20
84.39600
30
15.00000
0
VERTEX
8
5_15000
10
156.96600
20
85.25201
30
15.00000
0
VERTEX
8
5_15000
10
156.92801
20
86.57600
30
15.00000
0
VERTEX
8
5_15000
10
156.90001
20
87.05601
30
15.00000
0
VERTEX
8
5_15000
10
156.87100
20
87.91801
30
15.00000
0
VERTEX
8
5_15000
10
156.86601
20
88.57800
30
15.00000
0
VERTEX
8
5_15000
10
156.90800
20
89.33401
30
15.00000
0
VERTEX
8
5_15000
10
156.90201
20
90.47201
30
15.00000
0
VERTEX
8
5_15000
10
156.94000
20
91.22800
30
15.00000
0
VERTEX
8
5_15000
10
156.94400
20
92.08601
30
15.00000
0
VERTEX
8
5_15000
10
156.93401
20
92.74600
30
15.00000
0
VERTEX
8
5_15000
10
156.93401
20
93.80400
30
15.00000
0
VERTEX
8
5_15000
10
156.90201
20
95.78201
30
15.00000
0
VERTEX
8
5_15000
10
156.86601
20
97.29800
30
15.00000
0
VERTEX
8
5_15000
10
156.90601
20
98.05801
30
15.00000
0
VERTEX
8
5_15000
10
156.89001
20
98.81600
30
15.00000
0
VERTEX
8
5_15000
10
156.90201
20
100.71201
30
15.00000
0
VERTEX
8
5_15000
10
156.91200
20
101.57201
30
15.00000
0
VERTEX
8
5_15000
10
156.94601
20
102.99200
30
15.00000
0
VERTEX
8
5_15000
10
156.95201
20
104.13200
30
15.00000
0
VERTEX
8
5_15000
10
156.94400
20
104.89001
30
15.00000
0
VERTEX
8
5_15000
10
156.95201
20
105.27000
30
15.00000
0
VERTEX
8
5_15000
10
156.96301
20
108.02901
30
15.00000
0
VERTEX
8
5_15000
10
156.99600
20
109.83201
30
15.00000
0
VERTEX
8
5_15000
10
156.98801
20
110.97201
30
15.00000
0
VERTEX
8
5_15000
10
156.99400
20
111.73200
30
15.00000
0
VERTEX
8
5_15000
10
157.02301
20
112.80000
30
15.00000
0
VERTEX
8
5_15000
10
157.04800
20
115.54401
30
15.00000
0
VERTEX
8
5_15000
10
157.15001
20
116.71400
30
15.00000
0
VERTEX
8
5_15000
10
157.16801
20
117.09601
30
15.00000
0
VERTEX
8
5_15000
10
157.16801
20
117.47800
30
15.00000
0
VERTEX
8
5_15000
10
157.14101
20
117.95400
30
15.00000
0
VERTEX
8
5_15000
10
157.11801
20
118.60400
30
15.00000
0
VERTEX
8
5_15000
10
157.13400
20
119.75201
30
15.00000
0
VERTEX
8
5_15000
10
157.13000
20
120.51201
30
15.00000
0
VERTEX
8
5_15000
10
157.14201
20
121.27601
30
15.00000
0
VERTEX
8
5_15000
10
157.18001
20
122.05201
30
15.00000
0
VERTEX
8
5_15000
10
157.20001
20
123.20000
30
15.00000
0
VERTEX
8
5_15000
10
157.29800
20
125.90401
30
15.00000
0
VERTEX
8
5_15000
10
157.35001
20
127.06801
30
15.00000
0
VERTEX
8
5_15000
10
157.41801
20
127.85801
30
15.00000
0
VERTEX
8
5_15000
10
157.42601
20
128.24400
30
15.00000
0
VERTEX
8
5_15000
10
157.47200
20
129.02800
30
15.00000
0
VERTEX
8
5_15000
10
157.46800
20
129.40800
30
15.00000
0
VERTEX
8
5_15000
10
157.51201
20
130.19200
30
15.00000
0
VERTEX
8
5_15000
10
157.52200
20
130.96201
30
15.00000
0
VERTEX
8
5_15000
10
157.56500
20
132.02000
30
15.00000
0
VERTEX
8
5_15000
10
157.62801
20
134.45401
30
15.00000
0
VERTEX
8
5_15000
10
157.72601
20
136.03801
30
15.00000
0
VERTEX
8
5_15000
10
157.73701
20
136.53500
30
15.00000
0
VERTEX
8
5_15000
10
157.76601
20
137.21001
30
15.00000
0
VERTEX
8
5_15000
10
157.80400
20
137.61200
30
15.00000
0
VERTEX
8
5_15000
10
157.80602
20
138.65401
30
15.00000
0
VERTEX
8
5_15000
10
157.74600
20
139.88200
30
15.00000
0
VERTEX
8
5_15000
10
157.66400
20
140.98401
30
15.00000
0
VERTEX
8
5_15000
10
157.54401
20
143.21001
30
15.00000
0
VERTEX
8
5_15000
10
157.39001
20
144.64201
30
15.00000
0
VERTEX
8
5_15000
10
157.32600
20
145.36401
30
15.00000
0
VERTEX
8
5_15000
10
157.22801
20
147.20401
30
15.00000
0
VERTEX
8
5_15000
10
157.18201
20
147.93600
30
15.00000
0
VERTEX
8
5_15000
10
157.17601
20
148.31201
30
15.00000
0
VERTEX
8
5_15000
10
157.08000
20
150.90800
30
15.00000
0
VERTEX
8
5_15000
10
157.07001
20
151.66000
30
15.00000
0
VERTEX
8
5_15000
10
157.00201
20
152.75201
30
15.00000
0
VERTEX
8
5_15000
10
157.00801
20
153.13400
30
15.00000
0
VERTEX
8
5_15000
10
156.99400
20
153.50401
30
15.00000
0
VERTEX
8
5_15000
10
156.96001
20
153.85800
30
15.00000
0
VERTEX
8
5_15000
10
156.95601
20
154.23401
30
15.00000
0
VERTEX
8
5_15000
10
156.88400
20
154.94000
30
15.00000
0
VERTEX
8
5_15000
10
156.85001
20
155.67201
30
15.00000
0
VERTEX
8
5_15000
10
156.78001
20
156.75401
30
15.00000
0
VERTEX
8
5_15000
10
156.74400
20
157.86201
30
15.00000
0
VERTEX
8
5_15000
10
156.65401
20
159.29601
30
15.00000
0
VERTEX
8
5_15000
10
156.59401
20
160.76401
30
15.00000
0
VERTEX
8
5_15000
10
156.58601
20
161.13600
30
15.00000
0
VERTEX
8
5_15000
10
156.53201
20
162.22000
30
15.00000
0
VERTEX
8
5_15000
10
156.41200
20
165.13400
30
15.00000
0
VERTEX
8
5_15000
10
156.38200
20
166.61401
30
15.00000
0
VERTEX
8
5_15000
10
156.34201
20
167.70601
30
15.00000
0
VERTEX
8
5_15000
10
156.35001
20
168.46800
30
15.00000
0
VERTEX
8
5_15000
10
156.34401
20
169.59201
30
15.00000
0
VERTEX
8
5_15000
10
156.37201
20
171.88000
30
15.00000
0
VERTEX
8
5_15000
10
156.40201
20
172.66000
30
15.00000
0
VERTEX
8
5_15000
10
156.42001
20
174.18800
30
15.00000
0
VERTEX
8
5_15000
10
156.45401
20
174.97801
30
15.00000
0
VERTEX
8
5_15000
10
156.46201
20
175.36401
30
15.00000
0
VERTEX
8
5_15000
10
156.46201
20
176.58601
30
15.00000
0
VERTEX
8
5_15000
10
156.44901
20
177.70500
30
15.00000
0
VERTEX
8
5_15000
10
156.45201
20
181.38600
30
15.00000
0
VERTEX
8
5_15000
10
156.48201
20
182.17401
30
15.00000
0
VERTEX
8
5_15000
10
156.47601
20
182.64001
30
15.00000
0
VERTEX
8
5_15000
10
156.49001
20
183.37401
30
15.00000
0
VERTEX
8
5_15000
10
10.57000
20
184.24600
30
15.00000
0
VERTEX
8
5_15000
10
10.51600
20
183.30801
30
15.00000
0
VERTEX
8
5_15000
10
10.45800
20
181.85800
30
15.00000
0
VERTEX
8
5_15000
10
10.32600
20
180.11201
30
15.00000
0
VERTEX
8
5_15000
10
10.26400
20
179.03601
30
15.00000
0
VERTEX
8
5_15000
10
10.05600
20
176.60001
30
15.00000
0
VERTEX
8
5_15000
10
9.86800
20
174.89401
30
15.00000
0
VERTEX
8
5_15000
10
9.81200
20
174.18800
30
15.00000
0
VERTEX
8
5_15000
10
9.69400
20
173.16602
30
15.00000
0
VERTEX
8
5_15000
10
9.28200
20
173.20401
30
15.00000
0
VERTEX
8
5_15000
10
9.21500
20
172.26100
30
15.00000
0
VERTEX
8
5_15000
10
9.14300
20
171.54301
30
15.00000
0
VERTEX
8
5_15000
10
9.00400
20
170.41000
30
15.00000
0
VERTEX
8
5_15000
10
8.90400
20
169.73801
30
15.00000
0
VERTEX
8
5_15000
10
8.70600
20
168.26201
30
15.00000
0
VERTEX
8
5_15000
10
8.50900
20
167.01201
30
15.00000
0
VERTEX
8
5_15000
10
8.32300
20
165.90800
30
15.00000
0
VERTEX
8
5_15000
10
8.09400
20
164.70601
30
15.00000
0
VERTEX
8
5_15000
10
7.88600
20
163.73001
30
15.00000
0
VERTEX
8
5_15000
10
7.65200
20
162.76801
30
15.00000
0
VERTEX
8
5_15000
10
7.40600
20
161.81201
30
15.00000
0
VERTEX
8
5_15000
10
7.13200
20
160.87401
30
15.00000
0
VERTEX
8
5_15000
10
7.02400
20
160.57001
30
15.00000
0
VERTEX
8
5_15000
10
6.78800
20
159.98601
30
15.00000
0
VERTEX
8
5_15000
10
6.65200
20
159.71001
30
15.00000
0
VERTEX
8
5_15000
10
6.47600
20
159.46201
30
15.00000
0
VERTEX
8
5_15000
10
6.24800
20
159.26401
30
15.00000
0
VERTEX
8
5_15000
10
5.64800
20
159.44801
30
15.00000
0
VERTEX
8
5_15000
10
5.13000
20
159.56001
30
15.00000
0
VERTEX
8
5_15000
10
4.65800
20
159.62801
30
15.00000
0
VERTEX
8
5_15000
10
4.21600
20
159.67001
30
15.00000
0
VERTEX
8
5_15000
10
4.19200
20
159.28201
30
15.00000
0
VERTEX
8
5_15000
10
4.14400
20
158.91801
30
15.00000
0
VERTEX
8
5_15000
10
4.07600
20
158.57001
30
15.00000
0
VERTEX
8
5_15000
10
3.98800
20
158.23601
30
15.00000
0
VERTEX
8
5_15000
10
3.88000
20
157.92001
30
15.00000
0
VERTEX
8
5_15000
10
3.67800
20
157.40901
30
15.00000
0
VERTEX
8
5_15000
10
3.50000
20
157.00801
30
15.00000
0
VERTEX
8
5_15000
10
3.21200
20
156.42401
30
15.00000
0
VERTEX
8
5_15000
10
3.08200
20
156.11801
30
15.00000
0
VERTEX
8
5_15000
10
2.61400
20
154.83601
30
15.00000
0
VERTEX
8
5_15000
10
2.41300
20
154.32600
30
15.00000
0
VERTEX
8
5_15000
10
2.55700
20
154.28101
30
15.00000
0
VERTEX
8
5_15000
10
2.99400
20
154.11101
30
15.00000
0
VERTEX
8
5_15000
10
3.26200
20
153.94701
30
15.00000
0
VERTEX
8
5_15000
10
3.30500
20
153.88701
30
15.00000
0
VERTEX
8
5_15000
10
3.42800
20
153.74600
30
15.00000
0
VERTEX
8
5_15000
10
3.93000
20
153.22601
30
15.00000
0
VERTEX
8
5_15000
10
4.41600
20
152.44601
30
15.00000
0
VERTEX
8
5_15000
10
4.83000
20
151.64301
30
15.00000
0
VERTEX
8
5_15000
10
5.19900
20
150.73801
30
15.00000
0
VERTEX
8
5_15000
10
5.33100
20
150.31900
30
15.00000
0
VERTEX
8
5_15000
10
5.49400
20
149.59901
30
15.00000
0
VERTEX
8
5_15000
10
5.53000
20
149.16400
30
15.00000
0
VERTEX
8
5_15000
10
5.71600
20
147.98300
30
15.00000
0
VERTEX
8
5_15000
10
5.71100
20
146.92700
30
15.00000
0
VERTEX
8
5_15000
10
5.68000
20
146.25101
30
15.00000
0
VERTEX
8
5_15000
10
5.58700
20
145.71501
30
15.00000
0
VERTEX
8
5_15000
10
5.47100
20
145.16501
30
15.00000
0
VERTEX
8
5_15000
10
5.34200
20
144.48500
30
15.00000
0
VERTEX
8
5_15000
10
5.14600
20
143.73700
30
15.00000
0
VERTEX
8
5_15000
10
4.30500
20
141.11601
30
15.00000
0
VERTEX
8
5_15000
10
4.24400
20
140.83601
30
15.00000
0
VERTEX
8
5_15000
10
3.82600
20
139.33400
30
15.00000
0
VERTEX
8
5_15000
10
3.79600
20
139.17001
30
15.00000
0
VERTEX
8
5_15000
10
3.51700
20
138.07701
30
15.00000
0
VERTEX
8
5_15000
10
3.46600
20
137.67101
30
15.00000
0
VERTEX
8
5_15000
10
3.22000
20
136.25401
30
15.00000
0
VERTEX
8
5_15000
10
2.97800
20
134.17401
30
15.00000
0
VERTEX
8
5_15000
10
2.93500
20
134.01201
30
15.00000
0
VERTEX
8
5_15000
10
2.81800
20
133.67500
30
15.00000
0
VERTEX
8
5_15000
10
2.60500
20
133.16501
30
15.00000
0
VERTEX
8
5_15000
10
2.55100
20
133.05801
30
15.00000
0
VERTEX
8
5_15000
10
2.41100
20
132.91901
30
15.00000
0
VERTEX
8
5_15000
10
2.51200
20
132.46201
30
15.00000
0
VERTEX
8
5_15000
10
2.90400
20
131.02600
30
15.00000
0
VERTEX
8
5_15000
10
3.24000
20
129.62801
30
15.00000
0
VERTEX
8
5_15000
10
3.38600
20
128.86000
30
15.00000
0
VERTEX
8
5_15000
10
3.69200
20
127.37401
30
15.00000
0
VERTEX
8
5_15000
10
4.34100
20
123.62301
30
15.00000
0
VERTEX
8
5_15000
10
4.43600
20
122.99801
30
15.00000
0
VERTEX
8
5_15000
10
4.54200
20
122.14800
30
15.00000
0
VERTEX
8
5_15000
10
4.77600
20
120.44801
30
15.00000
0
VERTEX
8
5_15000
10
4.99400
20
119.16401
30
15.00000
0
VERTEX
8
5_15000
10
5.08400
20
118.73401
30
15.00000
0
VERTEX
8
5_15000
10
5.45300
20
117.24100
30
15.00000
0
VERTEX
8
5_15000
10
5.90900
20
115.52701
30
15.00000
0
VERTEX
8
5_15000
10
6.08000
20
114.84400
30
15.00000
0
VERTEX
8
5_15000
10
6.16600
20
114.42600
30
15.00000
0
VERTEX
8
5_15000
10
6.37000
20
113.58000
30
15.00000
0
VERTEX
8
5_15000
10
6.69600
20
111.92600
30
15.00000
0
VERTEX
8
5_15000
10
6.82200
20
111.11001
30
15.00000
0
VERTEX
8
5_15000
10
7.06900
20
109.36201
30
15.00000
0
VERTEX
8
5_15000
10
7.35400
20
107.48601
30
15.00000
0
VERTEX
8
5_15000
10
7.40000
20
107.08801
30
15.00000
0
VERTEX
8
5_15000
10
7.43200
20
106.69401
30
15.00000
0
VERTEX
8
5_15000
10
7.54300
20
105.77500
30
15.00000
0
VERTEX
8
5_15000
10
7.63400
20
105.11001
30
15.00000
0
VERTEX
8
5_15000
10
7.71600
20
104.32401
30
15.00000
0
VERTEX
8
5_15000
10
7.74400
20
103.93201
30
15.00000
0
VERTEX
8
5_15000
10
7.77000
20
103.15401
30
15.00000
0
VERTEX
8
5_15000
10
7.79200
20
102.76401
30
15.00000
0
VERTEX
8
5_15000
10
7.89000
20
101.39900
30
15.00000
0
VERTEX
8
5_15000
10
7.99300
20
99.77200
30
15.00000
0
VERTEX
8
5_15000
10
8.04400
20
98.11001
30
15.00000
0
VERTEX
8
5_15000
10
8.09000
20
97.22201
30
15.00000
0
VERTEX
8
5_15000
10
8.10600
20
96.18001
30
15.00000
0
VERTEX
8
5_15000
10
8.13400
20
95.79601
30
15.00000
0
VERTEX
8
5_15000
10
8.18200
20
94.64001
30
15.00000
0
VERTEX
8
5_15000
10
8.19600
20
93.98300
30
15.00000
0
VERTEX
8
5_15000
10
8.25000
20
92.44401
30
15.00000
0
VERTEX
8
5_15000
10
8.30000
20
91.84100
30
15.00000
0
VERTEX
8
5_15000
10
8.41600
20
90.04000
30
15.00000
0
VERTEX
8
5_15000
10
8.42800
20
89.65601
30
15.00000
0
VERTEX
8
5_15000
10
8.41400
20
88.88800
30
15.00000
0
VERTEX
8
5_15000
10
8.46000
20
86.97601
30
15.00000
0
VERTEX
8
5_15000
10
8.49600
20
86.21201
30
15.00000
0
VERTEX
8
5_15000
10
8.49000
20
84.84600
30
15.00000
0
VERTEX
8
5_15000
10
8.45400
20
82.37400
30
15.00000
0
VERTEX
8
5_15000
10
8.40000
20
80.83000
30
15.00000
0
VERTEX
8
5_15000
10
8.41600
20
80.45000
30
15.00000
0
VERTEX
8
5_15000
10
8.41800
20
80.06600
30
15.00000
0
VERTEX
8
5_15000
10
8.39200
20
79.29401
30
15.00000
0
VERTEX
8
5_15000
10
8.40900
20
77.21700
30
15.00000
0
VERTEX
8
5_15000
10
8.38400
20
76.22200
30
15.00000
0
VERTEX
8
5_15000
10
8.41000
20
75.46400
30
15.00000
0
VERTEX
8
5_15000
10
8.41000
20
73.93000
30
15.00000
0
VERTEX
8
5_15000
10
8.42200
20
73.16400
30
15.00000
0
VERTEX
8
5_15000
10
8.40000
20
71.62200
30
15.00000
0
VERTEX
8
5_15000
10
8.43800
20
70.48400
30
15.00000
0
VERTEX
8
5_15000
10
8.44600
20
68.95600
30
15.00000
0
VERTEX
8
5_15000
10
8.43600
20
67.19901
30
15.00000
0
VERTEX
8
5_15000
10
8.40200
20
64.44500
30
15.00000
0
VERTEX
8
5_15000
10
8.37800
20
61.63800
30
15.00000
0
VERTEX
8
5_15000
10
8.33400
20
60.08200
30
15.00000
0
VERTEX
8
5_15000
10
8.33600
20
59.31600
30
15.00000
0
VERTEX
8
5_15000
10
8.36200
20
58.55800
30
15.00000
0
VERTEX
8
5_15000
10
8.36000
20
58.17600
30
15.00000
0
VERTEX
8
5_15000
10
8.38200
20
56.65200
30
15.00000
0
VERTEX
8
5_15000
10
8.40200
20
55.89600
30
15.00000
0
VERTEX
8
5_15000
10
8.40200
20
55.13000
30
15.00000
0
VERTEX
8
5_15000
10
8.42500
20
53.71600
30
15.00000
0
VERTEX
8
5_15000
10
8.47600
20
52.10600
30
15.00000
0
VERTEX
8
5_15000
10
8.49200
20
51.34800
30
15.00000
0
VERTEX
8
5_15000
10
8.62000
20
47.98800
30
15.00000
0
VERTEX
8
5_15000
10
8.71600
20
46.14200
30
15.00000
0
VERTEX
8
5_15000
10
8.80800
20
44.68000
30
15.00000
0
VERTEX
8
5_15000
10
9.04500
20
41.91200
30
15.00000
0
VERTEX
8
5_15000
10
9.32200
20
38.99400
30
15.00000
0
VERTEX
8
5_15000
10
9.61200
20
36.49400
30
15.00000
0
VERTEX
8
5_15000
10
9.78500
20
35.13700
30
15.00000
0
SEQEND
8
5_15000
0
ENDSEC
0
EOF
