0
SECTION
2
HEADER
9
$ACADVER
1
AC1009
0
ENDSEC
0
SECTION
2
TABLES
0
TABLE
2
LAYER
70
1
0
LAYER
2
30_90000
70
0
62
7
6
CONTINUOUS
0
ENDTAB
0
ENDSEC
0
SECTION
2
BLOCKS
0
ENDSEC
0
SECTION
2
ENTITIES
0
POLYLINE
8
30_90000
62
5
0
VERTEX
8
30_90000
10
91.92500
20
178.28601
30
90.00000
0
VERTEX
8
30_90000
10
56.95700
20
178.28601
30
90.00000
0
VERTEX
8
30_90000
10
56.15400
20
177.11700
30
90.00000
0
VERTEX
8
30_90000
10
55.62500
20
176.44000
30
90.00000
0
VERTEX
8
30_90000
10
53.56500
20
173.54102
30
90.00000
0
VERTEX
8
30_90000
10
51.30900
20
170.78300
30
90.00000
0
VERTEX
8
30_90000
10
51.17100
20
170.60501
30
90.00000
0
VERTEX
8
30_90000
10
50.91700
20
170.34300
30
90.00000
0
VERTEX
8
30_90000
10
50.18100
20
169.37502
30
90.00000
0
VERTEX
8
30_90000
10
49.99200
20
169.10400
30
90.00000
0
VERTEX
8
30_90000
10
49.40600
20
167.64101
30
90.00000
0
VERTEX
8
30_90000
10
49.31200
20
166.81801
30
90.00000
0
VERTEX
8
30_90000
10
49.15400
20
166.60400
30
90.00000
0
VERTEX
8
30_90000
10
49.13700
20
165.69701
30
90.00000
0
VERTEX
8
30_90000
10
48.99700
20
164.94801
30
90.00000
0
VERTEX
8
30_90000
10
48.99700
20
164.77400
30
90.00000
0
VERTEX
8
30_90000
10
48.97100
20
164.42700
30
90.00000
0
VERTEX
8
30_90000
10
48.97200
20
164.22701
30
90.00000
0
VERTEX
8
30_90000
10
49.12600
20
163.50301
30
90.00000
0
VERTEX
8
30_90000
10
50.02000
20
161.79201
30
90.00000
0
VERTEX
8
30_90000
10
50.10500
20
161.53001
30
90.00000
0
VERTEX
8
30_90000
10
50.38700
20
160.82600
30
90.00000
0
VERTEX
8
30_90000
10
50.43400
20
160.21600
30
90.00000
0
VERTEX
8
30_90000
10
50.73200
20
159.30501
30
90.00000
0
VERTEX
8
30_90000
10
50.75700
20
158.89001
30
90.00000
0
VERTEX
8
30_90000
10
50.53100
20
157.17700
30
90.00000
0
VERTEX
8
30_90000
10
50.43700
20
156.36101
30
90.00000
0
VERTEX
8
30_90000
10
50.81300
20
155.60201
30
90.00000
0
VERTEX
8
30_90000
10
50.90500
20
155.36401
30
90.00000
0
VERTEX
8
30_90000
10
51.22500
20
154.71600
30
90.00000
0
VERTEX
8
30_90000
10
51.72100
20
154.43201
30
90.00000
0
VERTEX
8
30_90000
10
52.43200
20
153.82301
30
90.00000
0
VERTEX
8
30_90000
10
52.60300
20
153.77800
30
90.00000
0
VERTEX
8
30_90000
10
52.91300
20
153.67201
30
90.00000
0
VERTEX
8
30_90000
10
53.82100
20
153.75000
30
90.00000
0
VERTEX
8
30_90000
10
55.68400
20
153.93201
30
90.00000
0
VERTEX
8
30_90000
10
56.27600
20
154.05101
30
90.00000
0
VERTEX
8
30_90000
10
58.39100
20
154.32101
30
90.00000
0
VERTEX
8
30_90000
10
58.87100
20
154.43301
30
90.00000
0
VERTEX
8
30_90000
10
59.16000
20
154.51701
30
90.00000
0
VERTEX
8
30_90000
10
59.57800
20
154.69000
30
90.00000
0
VERTEX
8
30_90000
10
59.78200
20
154.75401
30
90.00000
0
VERTEX
8
30_90000
10
60.09800
20
154.86700
30
90.00000
0
VERTEX
8
30_90000
10
61.35300
20
155.64001
30
90.00000
0
VERTEX
8
30_90000
10
61.93500
20
155.79001
30
90.00000
0
VERTEX
8
30_90000
10
62.55900
20
156.04201
30
90.00000
0
VERTEX
8
30_90000
10
63.13900
20
156.13501
30
90.00000
0
VERTEX
8
30_90000
10
64.67700
20
156.08900
30
90.00000
0
VERTEX
8
30_90000
10
65.77600
20
155.94701
30
90.00000
0
VERTEX
8
30_90000
10
66.49600
20
155.86601
30
90.00000
0
VERTEX
8
30_90000
10
67.22601
20
155.72401
30
90.00000
0
VERTEX
8
30_90000
10
68.38900
20
155.39301
30
90.00000
0
VERTEX
8
30_90000
10
69.37400
20
155.09700
30
90.00000
0
VERTEX
8
30_90000
10
70.98500
20
154.67900
30
90.00000
0
VERTEX
8
30_90000
10
71.53400
20
154.43600
30
90.00000
0
VERTEX
8
30_90000
10
72.53101
20
154.08200
30
90.00000
0
VERTEX
8
30_90000
10
73.32301
20
153.65001
30
90.00000
0
VERTEX
8
30_90000
10
74.01900
20
153.20500
30
90.00000
0
VERTEX
8
30_90000
10
74.78400
20
152.67700
30
90.00000
0
VERTEX
8
30_90000
10
75.11301
20
152.30701
30
90.00000
0
VERTEX
8
30_90000
10
75.34200
20
151.99901
30
90.00000
0
VERTEX
8
30_90000
10
75.80601
20
151.45201
30
90.00000
0
VERTEX
8
30_90000
10
76.40300
20
150.47101
30
90.00000
0
VERTEX
8
30_90000
10
76.76300
20
149.73300
30
90.00000
0
VERTEX
8
30_90000
10
77.55901
20
147.79201
30
90.00000
0
VERTEX
8
30_90000
10
77.63700
20
147.40501
30
90.00000
0
VERTEX
8
30_90000
10
77.80601
20
146.89601
30
90.00000
0
VERTEX
8
30_90000
10
78.16400
20
144.91600
30
90.00000
0
VERTEX
8
30_90000
10
78.18201
20
144.77701
30
90.00000
0
VERTEX
8
30_90000
10
78.17900
20
144.71501
30
90.00000
0
VERTEX
8
30_90000
10
78.30500
20
142.99001
30
90.00000
0
VERTEX
8
30_90000
10
78.25101
20
142.13901
30
90.00000
0
VERTEX
8
30_90000
10
78.14400
20
140.86301
30
90.00000
0
VERTEX
8
30_90000
10
78.00201
20
140.12001
30
90.00000
0
VERTEX
8
30_90000
10
77.95800
20
139.82800
30
90.00000
0
VERTEX
8
30_90000
10
77.60800
20
138.48300
30
90.00000
0
VERTEX
8
30_90000
10
77.30100
20
137.53201
30
90.00000
0
VERTEX
8
30_90000
10
76.95500
20
136.54901
30
90.00000
0
VERTEX
8
30_90000
10
76.71301
20
135.95300
30
90.00000
0
VERTEX
8
30_90000
10
76.42101
20
135.36501
30
90.00000
0
VERTEX
8
30_90000
10
76.21001
20
134.86200
30
90.00000
0
VERTEX
8
30_90000
10
75.69701
20
133.77200
30
90.00000
0
VERTEX
8
30_90000
10
75.12801
20
132.89000
30
90.00000
0
VERTEX
8
30_90000
10
74.83501
20
132.46600
30
90.00000
0
VERTEX
8
30_90000
10
74.60500
20
132.01601
30
90.00000
0
VERTEX
8
30_90000
10
74.36301
20
131.71701
30
90.00000
0
VERTEX
8
30_90000
10
73.50700
20
130.41901
30
90.00000
0
VERTEX
8
30_90000
10
72.61000
20
129.08101
30
90.00000
0
VERTEX
8
30_90000
10
72.27901
20
128.60101
30
90.00000
0
VERTEX
8
30_90000
10
71.87601
20
127.97501
30
90.00000
0
VERTEX
8
30_90000
10
71.00800
20
126.71400
30
90.00000
0
VERTEX
8
30_90000
10
70.19701
20
125.16301
30
90.00000
0
VERTEX
8
30_90000
10
69.76400
20
124.42600
30
90.00000
0
VERTEX
8
30_90000
10
69.25401
20
123.23601
30
90.00000
0
VERTEX
8
30_90000
10
68.09500
20
120.84300
30
90.00000
0
VERTEX
8
30_90000
10
67.89301
20
120.36800
30
90.00000
0
VERTEX
8
30_90000
10
67.70200
20
119.71001
30
90.00000
0
VERTEX
8
30_90000
10
67.19100
20
118.51101
30
90.00000
0
VERTEX
8
30_90000
10
66.96001
20
117.67001
30
90.00000
0
VERTEX
8
30_90000
10
66.40800
20
115.75301
30
90.00000
0
VERTEX
8
30_90000
10
66.35101
20
115.36301
30
90.00000
0
VERTEX
8
30_90000
10
66.12801
20
114.04001
30
90.00000
0
VERTEX
8
30_90000
10
66.09000
20
113.45000
30
90.00000
0
VERTEX
8
30_90000
10
65.99500
20
113.09300
30
90.00000
0
VERTEX
8
30_90000
10
65.96301
20
112.54101
30
90.00000
0
VERTEX
8
30_90000
10
66.02000
20
112.36501
30
90.00000
0
VERTEX
8
30_90000
10
66.00700
20
111.67700
30
90.00000
0
VERTEX
8
30_90000
10
66.01000
20
111.18501
30
90.00000
0
VERTEX
8
30_90000
10
65.78500
20
109.73601
30
90.00000
0
VERTEX
8
30_90000
10
65.78201
20
109.66601
30
90.00000
0
VERTEX
8
30_90000
10
65.56300
20
108.83201
30
90.00000
0
VERTEX
8
30_90000
10
65.45800
20
108.14900
30
90.00000
0
VERTEX
8
30_90000
10
65.29000
20
107.28400
30
90.00000
0
VERTEX
8
30_90000
10
65.26601
20
106.78201
30
90.00000
0
VERTEX
8
30_90000
10
65.16700
20
105.53101
30
90.00000
0
VERTEX
8
30_90000
10
65.18501
20
104.84701
30
90.00000
0
VERTEX
8
30_90000
10
65.25301
20
104.26000
30
90.00000
0
VERTEX
8
30_90000
10
65.40800
20
103.40900
30
90.00000
0
VERTEX
8
30_90000
10
65.80600
20
102.00201
30
90.00000
0
VERTEX
8
30_90000
10
66.25401
20
100.94100
30
90.00000
0
VERTEX
8
30_90000
10
66.81200
20
99.98100
30
90.00000
0
VERTEX
8
30_90000
10
66.83900
20
99.92200
30
90.00000
0
VERTEX
8
30_90000
10
68.06900
20
98.24001
30
90.00000
0
VERTEX
8
30_90000
10
68.50401
20
97.68001
30
90.00000
0
VERTEX
8
30_90000
10
68.68501
20
97.35300
30
90.00000
0
VERTEX
8
30_90000
10
68.71700
20
97.24400
30
90.00000
0
VERTEX
8
30_90000
10
68.74900
20
97.16601
30
90.00000
0
VERTEX
8
30_90000
10
68.75700
20
96.99100
30
90.00000
0
VERTEX
8
30_90000
10
68.36600
20
94.77000
30
90.00000
0
VERTEX
8
30_90000
10
68.26400
20
94.41901
30
90.00000
0
VERTEX
8
30_90000
10
68.17400
20
94.15000
30
90.00000
0
VERTEX
8
30_90000
10
67.79700
20
93.14900
30
90.00000
0
VERTEX
8
30_90000
10
67.62701
20
92.74100
30
90.00000
0
VERTEX
8
30_90000
10
67.21800
20
92.00500
30
90.00000
0
VERTEX
8
30_90000
10
66.65900
20
90.80701
30
90.00000
0
VERTEX
8
30_90000
10
66.43501
20
90.34901
30
90.00000
0
VERTEX
8
30_90000
10
66.08100
20
89.78900
30
90.00000
0
VERTEX
8
30_90000
10
65.85001
20
89.40701
30
90.00000
0
VERTEX
8
30_90000
10
65.68800
20
89.10600
30
90.00000
0
VERTEX
8
30_90000
10
65.02100
20
88.00301
30
90.00000
0
VERTEX
8
30_90000
10
64.66500
20
87.54800
30
90.00000
0
VERTEX
8
30_90000
10
64.25401
20
86.87901
30
90.00000
0
VERTEX
8
30_90000
10
64.19300
20
86.75900
30
90.00000
0
VERTEX
8
30_90000
10
63.91800
20
86.32900
30
90.00000
0
VERTEX
8
30_90000
10
63.46600
20
85.55100
30
90.00000
0
VERTEX
8
30_90000
10
63.34700
20
85.36401
30
90.00000
0
VERTEX
8
30_90000
10
63.08800
20
85.00500
30
90.00000
0
VERTEX
8
30_90000
10
62.70600
20
84.14800
30
90.00000
0
VERTEX
8
30_90000
10
62.19700
20
83.35001
30
90.00000
0
VERTEX
8
30_90000
10
61.76300
20
82.74600
30
90.00000
0
VERTEX
8
30_90000
10
61.41400
20
82.12400
30
90.00000
0
VERTEX
8
30_90000
10
61.24200
20
81.74100
30
90.00000
0
VERTEX
8
30_90000
10
61.00400
20
80.77700
30
90.00000
0
VERTEX
8
30_90000
10
60.98600
20
80.39201
30
90.00000
0
VERTEX
8
30_90000
10
61.00300
20
80.27100
30
90.00000
0
VERTEX
8
30_90000
10
61.00300
20
78.95000
30
90.00000
0
VERTEX
8
30_90000
10
61.01200
20
78.77700
30
90.00000
0
VERTEX
8
30_90000
10
61.08300
20
78.62500
30
90.00000
0
VERTEX
8
30_90000
10
61.21900
20
78.25800
30
90.00000
0
VERTEX
8
30_90000
10
61.59300
20
77.57401
30
90.00000
0
VERTEX
8
30_90000
10
61.76300
20
77.35800
30
90.00000
0
VERTEX
8
30_90000
10
62.32100
20
76.21101
30
90.00000
0
VERTEX
8
30_90000
10
62.30900
20
76.08401
30
90.00000
0
VERTEX
8
30_90000
10
62.36000
20
76.03900
30
90.00000
0
VERTEX
8
30_90000
10
62.48400
20
75.73300
30
90.00000
0
VERTEX
8
30_90000
10
63.19800
20
74.90100
30
90.00000
0
VERTEX
8
30_90000
10
63.38400
20
74.64900
30
90.00000
0
VERTEX
8
30_90000
10
63.97100
20
73.95400
30
90.00000
0
VERTEX
8
30_90000
10
64.59100
20
73.33601
30
90.00000
0
VERTEX
8
30_90000
10
67.11600
20
70.88400
30
90.00000
0
VERTEX
8
30_90000
10
67.51300
20
70.62200
30
90.00000
0
VERTEX
8
30_90000
10
68.29700
20
69.99200
30
90.00000
0
VERTEX
8
30_90000
10
68.34500
20
69.75900
30
90.00000
0
VERTEX
8
30_90000
10
68.19400
20
69.54200
30
90.00000
0
VERTEX
8
30_90000
10
67.43600
20
68.23500
30
90.00000
0
VERTEX
8
30_90000
10
67.31600
20
67.99200
30
90.00000
0
VERTEX
8
30_90000
10
66.89800
20
67.40800
30
90.00000
0
VERTEX
8
30_90000
10
66.81300
20
67.26900
30
90.00000
0
VERTEX
8
30_90000
10
66.29401
20
66.79800
30
90.00000
0
VERTEX
8
30_90000
10
65.82600
20
66.27000
30
90.00000
0
VERTEX
8
30_90000
10
64.39500
20
64.35600
30
90.00000
0
VERTEX
8
30_90000
10
64.14800
20
63.96500
30
90.00000
0
VERTEX
8
30_90000
10
63.58100
20
62.73500
30
90.00000
0
VERTEX
8
30_90000
10
63.09400
20
61.61700
30
90.00000
0
VERTEX
8
30_90000
10
62.95600
20
61.27400
30
90.00000
0
VERTEX
8
30_90000
10
62.67000
20
60.50500
30
90.00000
0
VERTEX
8
30_90000
10
62.41600
20
58.87900
30
90.00000
0
VERTEX
8
30_90000
10
62.37100
20
56.87900
30
90.00000
0
VERTEX
8
30_90000
10
62.38500
20
55.75200
30
90.00000
0
VERTEX
8
30_90000
10
62.21300
20
55.10800
30
90.00000
0
VERTEX
8
30_90000
10
62.20500
20
54.97400
30
90.00000
0
VERTEX
8
30_90000
10
62.21300
20
54.00100
30
90.00000
0
VERTEX
8
30_90000
10
62.36700
20
53.43600
30
90.00000
0
VERTEX
8
30_90000
10
62.36700
20
53.09700
30
90.00000
0
VERTEX
8
30_90000
10
62.61300
20
51.54500
30
90.00000
0
VERTEX
8
30_90000
10
62.71500
20
50.44200
30
90.00000
0
VERTEX
8
30_90000
10
62.86700
20
49.79400
30
90.00000
0
VERTEX
8
30_90000
10
63.17100
20
48.97600
30
90.00000
0
VERTEX
8
30_90000
10
63.24600
20
48.65900
30
90.00000
0
VERTEX
8
30_90000
10
63.31000
20
48.58000
30
90.00000
0
VERTEX
8
30_90000
10
63.80700
20
47.77000
30
90.00000
0
VERTEX
8
30_90000
10
64.86000
20
46.68200
30
90.00000
0
VERTEX
8
30_90000
10
66.55701
20
45.09300
30
90.00000
0
VERTEX
8
30_90000
10
67.58601
20
44.21900
30
90.00000
0
VERTEX
8
30_90000
10
67.89101
20
44.08200
30
90.00000
0
VERTEX
8
30_90000
10
68.23200
20
43.65800
30
90.00000
0
VERTEX
8
30_90000
10
68.34500
20
43.48500
30
90.00000
0
VERTEX
8
30_90000
10
68.44400
20
43.09000
30
90.00000
0
VERTEX
8
30_90000
10
68.55000
20
41.99300
30
90.00000
0
VERTEX
8
30_90000
10
68.57900
20
40.53600
30
90.00000
0
VERTEX
8
30_90000
10
68.67101
20
40.07100
30
90.00000
0
VERTEX
8
30_90000
10
68.77600
20
37.03400
30
90.00000
0
VERTEX
8
30_90000
10
68.71101
20
36.69500
30
90.00000
0
VERTEX
8
30_90000
10
68.68100
20
36.37300
30
90.00000
0
VERTEX
8
30_90000
10
67.69200
20
34.20800
30
90.00000
0
VERTEX
8
30_90000
10
66.69901
20
32.67600
30
90.00000
0
VERTEX
8
30_90000
10
66.52901
20
32.39400
30
90.00000
0
VERTEX
8
30_90000
10
66.49100
20
32.30600
30
90.00000
0
VERTEX
8
30_90000
10
66.36000
20
32.09400
30
90.00000
0
VERTEX
8
30_90000
10
65.94200
20
31.59700
30
90.00000
0
VERTEX
8
30_90000
10
65.70700
20
31.21400
30
90.00000
0
VERTEX
8
30_90000
10
65.59300
20
30.95000
30
90.00000
0
VERTEX
8
30_90000
10
65.36700
20
30.20400
30
90.00000
0
VERTEX
8
30_90000
10
64.97000
20
29.37500
30
90.00000
0
VERTEX
8
30_90000
10
64.82800
20
28.93600
30
90.00000
0
VERTEX
8
30_90000
10
64.74900
20
28.61600
30
90.00000
0
VERTEX
8
30_90000
10
64.44801
20
28.10100
30
90.00000
0
VERTEX
8
30_90000
10
64.11900
20
27.35900
30
90.00000
0
VERTEX
8
30_90000
10
64.03500
20
27.06700
30
90.00000
0
VERTEX
8
30_90000
10
63.80700
20
26.65900
30
90.00000
0
VERTEX
8
30_90000
10
63.75900
20
26.30700
30
90.00000
0
VERTEX
8
30_90000
10
63.63600
20
25.95700
30
90.00000
0
VERTEX
8
30_90000
10
63.62200
20
25.45500
30
90.00000
0
VERTEX
8
30_90000
10
63.49900
20
25.22100
30
90.00000
0
VERTEX
8
30_90000
10
63.50100
20
24.54200
30
90.00000
0
VERTEX
8
30_90000
10
63.45900
20
24.48700
30
90.00000
0
VERTEX
8
30_90000
10
63.45900
20
24.20300
30
90.00000
0
VERTEX
8
30_90000
10
63.48700
20
23.64700
30
90.00000
0
VERTEX
8
30_90000
10
63.46600
20
23.38700
30
90.00000
0
VERTEX
8
30_90000
10
63.38800
20
23.04500
30
90.00000
0
VERTEX
8
30_90000
10
63.26200
20
22.03000
30
90.00000
0
VERTEX
8
30_90000
10
63.22400
20
21.84900
30
90.00000
0
VERTEX
8
30_90000
10
63.21700
20
21.70200
30
90.00000
0
VERTEX
8
30_90000
10
62.92200
20
20.79100
30
90.00000
0
VERTEX
8
30_90000
10
63.01200
20
20.69500
30
90.00000
0
VERTEX
8
30_90000
10
62.98800
20
20.48500
30
90.00000
0
VERTEX
8
30_90000
10
62.68300
20
19.64800
30
90.00000
0
VERTEX
8
30_90000
10
62.71600
20
19.50800
30
90.00000
0
VERTEX
8
30_90000
10
62.61400
20
19.29800
30
90.00000
0
VERTEX
8
30_90000
10
62.87100
20
19.03200
30
90.00000
0
VERTEX
8
30_90000
10
63.19400
20
18.94500
30
90.00000
0
VERTEX
8
30_90000
10
63.64900
20
18.78400
30
90.00000
0
VERTEX
8
30_90000
10
63.77300
20
18.41100
30
90.00000
0
VERTEX
8
30_90000
10
63.97500
20
17.95400
30
90.00000
0
VERTEX
8
30_90000
10
64.05701
20
17.86600
30
90.00000
0
VERTEX
8
30_90000
10
64.09700
20
17.79600
30
90.00000
0
VERTEX
8
30_90000
10
64.82900
20
17.71800
30
90.00000
0
VERTEX
8
30_90000
10
65.39500
20
16.95900
30
90.00000
0
VERTEX
8
30_90000
10
65.50800
20
16.84100
30
90.00000
0
VERTEX
8
30_90000
10
65.64400
20
16.77100
30
90.00000
0
VERTEX
8
30_90000
10
65.67900
20
16.14200
30
90.00000
0
VERTEX
8
30_90000
10
65.68000
20
15.87900
30
90.00000
0
VERTEX
8
30_90000
10
65.62300
20
15.78900
30
90.00000
0
VERTEX
8
30_90000
10
65.85001
20
15.67500
30
90.00000
0
VERTEX
8
30_90000
10
65.93501
20
15.70400
30
90.00000
0
VERTEX
8
30_90000
10
66.44400
20
15.70200
30
90.00000
0
VERTEX
8
30_90000
10
66.52800
20
15.49000
30
90.00000
0
VERTEX
8
30_90000
10
66.66500
20
15.36900
30
90.00000
0
VERTEX
8
30_90000
10
66.87100
20
14.88800
30
90.00000
0
VERTEX
8
30_90000
10
66.95600
20
14.91400
30
90.00000
0
VERTEX
8
30_90000
10
67.62100
20
14.59800
30
90.00000
0
VERTEX
8
30_90000
10
68.14800
20
14.29800
30
90.00000
0
VERTEX
8
30_90000
10
68.34500
20
13.80200
30
90.00000
0
VERTEX
8
30_90000
10
68.74200
20
13.68500
30
90.00000
0
VERTEX
8
30_90000
10
69.25301
20
13.76700
30
90.00000
0
VERTEX
8
30_90000
10
69.74800
20
13.59200
30
90.00000
0
VERTEX
8
30_90000
10
70.34200
20
13.33600
30
90.00000
0
VERTEX
8
30_90000
10
70.16000
20
13.02700
30
90.00000
0
VERTEX
8
30_90000
10
70.27300
20
12.87100
30
90.00000
0
VERTEX
8
30_90000
10
70.61401
20
12.63700
30
90.00000
0
VERTEX
8
30_90000
10
70.87000
20
12.54800
30
90.00000
0
VERTEX
8
30_90000
10
70.95500
20
12.57700
30
90.00000
0
VERTEX
8
30_90000
10
71.18201
20
12.51800
30
90.00000
0
VERTEX
8
30_90000
10
71.33400
20
12.59600
30
90.00000
0
VERTEX
8
30_90000
10
71.63600
20
12.63500
30
90.00000
0
VERTEX
8
30_90000
10
71.81800
20
12.80000
30
90.00000
0
VERTEX
8
30_90000
10
71.83100
20
12.88700
30
90.00000
0
VERTEX
8
30_90000
10
72.07401
20
13.13500
30
90.00000
0
VERTEX
8
30_90000
10
72.62901
20
13.59400
30
90.00000
0
VERTEX
8
30_90000
10
72.89500
20
13.91600
30
90.00000
0
VERTEX
8
30_90000
10
73.09200
20
13.93900
30
90.00000
0
VERTEX
8
30_90000
10
73.16801
20
14.03800
30
90.00000
0
VERTEX
8
30_90000
10
73.33701
20
14.29100
30
90.00000
0
VERTEX
8
30_90000
10
73.50800
20
14.38900
30
90.00000
0
VERTEX
8
30_90000
10
73.89600
20
14.45100
30
90.00000
0
VERTEX
8
30_90000
10
73.93600
20
14.51800
30
90.00000
0
VERTEX
8
30_90000
10
74.18100
20
14.57600
30
90.00000
0
VERTEX
8
30_90000
10
74.87200
20
14.90900
30
90.00000
0
VERTEX
8
30_90000
10
75.04200
20
15.00500
30
90.00000
0
VERTEX
8
30_90000
10
75.12601
20
14.90800
30
90.00000
0
VERTEX
8
30_90000
10
75.38100
20
14.66500
30
90.00000
0
VERTEX
8
30_90000
10
75.45300
20
14.53500
30
90.00000
0
VERTEX
8
30_90000
10
75.63600
20
13.72800
30
90.00000
0
VERTEX
8
30_90000
10
75.83000
20
12.47600
30
90.00000
0
VERTEX
8
30_90000
10
75.90000
20
12.38500
30
90.00000
0
VERTEX
8
30_90000
10
76.06100
20
11.88200
30
90.00000
0
VERTEX
8
30_90000
10
76.17500
20
11.69800
30
90.00000
0
VERTEX
8
30_90000
10
76.17400
20
11.52300
30
90.00000
0
VERTEX
8
30_90000
10
76.06001
20
11.34700
30
90.00000
0
VERTEX
8
30_90000
10
76.02000
20
11.25100
30
90.00000
0
VERTEX
8
30_90000
10
76.02600
20
11.19500
30
90.00000
0
VERTEX
8
30_90000
10
76.11700
20
11.11300
30
90.00000
0
VERTEX
8
30_90000
10
76.66400
20
10.39500
30
90.00000
0
VERTEX
8
30_90000
10
76.96800
20
9.82900
30
90.00000
0
VERTEX
8
30_90000
10
77.23701
20
9.63800
30
90.00000
0
VERTEX
8
30_90000
10
77.92400
20
9.10900
30
90.00000
0
VERTEX
8
30_90000
10
78.10400
20
9.02900
30
90.00000
0
VERTEX
8
30_90000
10
78.34100
20
8.75400
30
90.00000
0
VERTEX
8
30_90000
10
78.61600
20
8.69000
30
90.00000
0
VERTEX
8
30_90000
10
78.91400
20
8.51500
30
90.00000
0
VERTEX
8
30_90000
10
79.09200
20
8.42800
30
90.00000
0
VERTEX
8
30_90000
10
79.29800
20
8.16500
30
90.00000
0
VERTEX
8
30_90000
10
79.38200
20
8.07800
30
90.00000
0
VERTEX
8
30_90000
10
79.46800
20
8.04600
30
90.00000
0
VERTEX
8
30_90000
10
79.80701
20
8.22500
30
90.00000
0
VERTEX
8
30_90000
10
80.08801
20
8.28600
30
90.00000
0
VERTEX
8
30_90000
10
80.40100
20
8.51500
30
90.00000
0
VERTEX
8
30_90000
10
80.73901
20
8.48800
30
90.00000
0
VERTEX
8
30_90000
10
81.23000
20
8.58800
30
90.00000
0
VERTEX
8
30_90000
10
81.38200
20
8.77700
30
90.00000
0
VERTEX
8
30_90000
10
81.53700
20
9.09900
30
90.00000
0
VERTEX
8
30_90000
10
81.67900
20
9.30700
30
90.00000
0
VERTEX
8
30_90000
10
81.84901
20
9.65800
30
90.00000
0
VERTEX
8
30_90000
10
82.16901
20
10.05900
30
90.00000
0
VERTEX
8
30_90000
10
82.40900
20
10.30600
30
90.00000
0
VERTEX
8
30_90000
10
82.44501
20
10.39600
30
90.00000
0
VERTEX
8
30_90000
10
82.47800
20
10.39200
30
90.00000
0
VERTEX
8
30_90000
10
82.52901
20
10.42800
30
90.00000
0
VERTEX
8
30_90000
10
82.73901
20
10.45500
30
90.00000
0
VERTEX
8
30_90000
10
82.87200
20
10.64900
30
90.00000
0
VERTEX
8
30_90000
10
83.12400
20
10.84400
30
90.00000
0
VERTEX
8
30_90000
10
83.33701
20
10.84300
30
90.00000
0
VERTEX
8
30_90000
10
83.42200
20
10.90600
30
90.00000
0
VERTEX
8
30_90000
10
83.53500
20
11.01000
30
90.00000
0
VERTEX
8
30_90000
10
83.94400
20
11.72300
30
90.00000
0
VERTEX
8
30_90000
10
84.07500
20
11.81100
30
90.00000
0
VERTEX
8
30_90000
10
84.42600
20
12.08700
30
90.00000
0
VERTEX
8
30_90000
10
84.61900
20
12.32300
30
90.00000
0
VERTEX
8
30_90000
10
84.79401
20
12.60300
30
90.00000
0
VERTEX
8
30_90000
10
84.98300
20
12.84600
30
90.00000
0
VERTEX
8
30_90000
10
85.08301
20
13.16000
30
90.00000
0
VERTEX
8
30_90000
10
85.44801
20
13.48600
30
90.00000
0
VERTEX
8
30_90000
10
85.59300
20
13.75600
30
90.00000
0
VERTEX
8
30_90000
10
85.83900
20
14.26200
30
90.00000
0
VERTEX
8
30_90000
10
86.07401
20
14.65700
30
90.00000
0
VERTEX
8
30_90000
10
86.27600
20
15.02800
30
90.00000
0
VERTEX
8
30_90000
10
86.70500
20
15.56900
30
90.00000
0
VERTEX
8
30_90000
10
86.95600
20
15.66200
30
90.00000
0
VERTEX
8
30_90000
10
87.21600
20
15.72100
30
90.00000
0
VERTEX
8
30_90000
10
87.56200
20
15.94400
30
90.00000
0
VERTEX
8
30_90000
10
88.31800
20
16.34500
30
90.00000
0
VERTEX
8
30_90000
10
88.50600
20
16.53200
30
90.00000
0
VERTEX
8
30_90000
10
88.72601
20
16.63500
30
90.00000
0
VERTEX
8
30_90000
10
89.20100
20
16.56300
30
90.00000
0
VERTEX
8
30_90000
10
89.37100
20
16.56200
30
90.00000
0
VERTEX
8
30_90000
10
89.92500
20
16.93800
30
90.00000
0
VERTEX
8
30_90000
10
90.10001
20
17.02400
30
90.00000
0
VERTEX
8
30_90000
10
90.18101
20
17.10700
30
90.00000
0
VERTEX
8
30_90000
10
90.12701
20
17.28300
30
90.00000
0
VERTEX
8
30_90000
10
90.26000
20
17.29300
30
90.00000
0
VERTEX
8
30_90000
10
90.32600
20
17.42000
30
90.00000
0
VERTEX
8
30_90000
10
90.48701
20
17.65300
30
90.00000
0
VERTEX
8
30_90000
10
90.60900
20
17.78900
30
90.00000
0
VERTEX
8
30_90000
10
90.75001
20
17.83900
30
90.00000
0
VERTEX
8
30_90000
10
90.76200
20
17.89100
30
90.00000
0
VERTEX
8
30_90000
10
91.24300
20
18.84300
30
90.00000
0
VERTEX
8
30_90000
10
91.29201
20
19.03700
30
90.00000
0
VERTEX
8
30_90000
10
91.51301
20
19.23700
30
90.00000
0
VERTEX
8
30_90000
10
91.72100
20
19.50300
30
90.00000
0
VERTEX
8
30_90000
10
91.77200
20
19.54200
30
90.00000
0
VERTEX
8
30_90000
10
91.80601
20
19.64600
30
90.00000
0
VERTEX
8
30_90000
10
91.89201
20
19.82000
30
90.00000
0
VERTEX
8
30_90000
10
92.04401
20
20.16300
30
90.00000
0
VERTEX
8
30_90000
10
92.09400
20
20.34900
30
90.00000
0
VERTEX
8
30_90000
10
92.09400
20
20.98500
30
90.00000
0
VERTEX
8
30_90000
10
92.15900
20
21.35000
30
90.00000
0
VERTEX
8
30_90000
10
92.40401
20
21.51700
30
90.00000
0
VERTEX
8
30_90000
10
92.45500
20
21.67300
30
90.00000
0
VERTEX
8
30_90000
10
92.75600
20
22.04600
30
90.00000
0
VERTEX
8
30_90000
10
92.79201
20
22.10000
30
90.00000
0
VERTEX
8
30_90000
10
92.74400
20
22.27600
30
90.00000
0
VERTEX
8
30_90000
10
92.57401
20
22.45100
30
90.00000
0
VERTEX
8
30_90000
10
92.74400
20
22.62300
30
90.00000
0
VERTEX
8
30_90000
10
92.91500
20
22.62700
30
90.00000
0
VERTEX
8
30_90000
10
93.08501
20
22.70200
30
90.00000
0
VERTEX
8
30_90000
10
93.11800
20
22.75200
30
90.00000
0
VERTEX
8
30_90000
10
93.14201
20
22.92000
30
90.00000
0
VERTEX
8
30_90000
10
92.85700
20
23.50300
30
90.00000
0
VERTEX
8
30_90000
10
93.30901
20
24.20500
30
90.00000
0
VERTEX
8
30_90000
10
93.12801
20
24.43900
30
90.00000
0
VERTEX
8
30_90000
10
92.95901
20
26.19500
30
90.00000
0
VERTEX
8
30_90000
10
92.68501
20
26.96900
30
90.00000
0
VERTEX
8
30_90000
10
92.62100
20
27.18900
30
90.00000
0
VERTEX
8
30_90000
10
92.58100
20
27.45200
30
90.00000
0
VERTEX
8
30_90000
10
92.40401
20
27.94200
30
90.00000
0
VERTEX
8
30_90000
10
92.21700
20
28.60300
30
90.00000
0
VERTEX
8
30_90000
10
92.06100
20
29.11300
30
90.00000
0
VERTEX
8
30_90000
10
91.92200
20
29.77200
30
90.00000
0
VERTEX
8
30_90000
10
91.72201
20
30.86500
30
90.00000
0
VERTEX
8
30_90000
10
91.24600
20
31.84600
30
90.00000
0
VERTEX
8
30_90000
10
91.05701
20
32.26800
30
90.00000
0
VERTEX
8
30_90000
10
90.90501
20
33.16000
30
90.00000
0
VERTEX
8
30_90000
10
90.89101
20
33.36700
30
90.00000
0
VERTEX
8
30_90000
10
90.09600
20
35.26500
30
90.00000
0
VERTEX
8
30_90000
10
89.94000
20
35.69200
30
90.00000
0
VERTEX
8
30_90000
10
89.75600
20
37.98700
30
90.00000
0
VERTEX
8
30_90000
10
89.74900
20
38.20600
30
90.00000
0
VERTEX
8
30_90000
10
89.75401
20
38.29500
30
90.00000
0
VERTEX
8
30_90000
10
90.05100
20
39.81400
30
90.00000
0
VERTEX
8
30_90000
10
90.16901
20
40.00500
30
90.00000
0
VERTEX
8
30_90000
10
90.49700
20
40.96000
30
90.00000
0
VERTEX
8
30_90000
10
90.63700
20
41.22700
30
90.00000
0
VERTEX
8
30_90000
10
90.75800
20
41.32200
30
90.00000
0
VERTEX
8
30_90000
10
91.59400
20
42.35500
30
90.00000
0
VERTEX
8
30_90000
10
92.21001
20
42.96600
30
90.00000
0
VERTEX
8
30_90000
10
92.30901
20
43.05200
30
90.00000
0
VERTEX
8
30_90000
10
92.50301
20
43.15700
30
90.00000
0
VERTEX
8
30_90000
10
92.59400
20
43.24400
30
90.00000
0
VERTEX
8
30_90000
10
92.80100
20
43.32000
30
90.00000
0
VERTEX
8
30_90000
10
93.13600
20
43.64500
30
90.00000
0
VERTEX
8
30_90000
10
93.60700
20
43.97000
30
90.00000
0
VERTEX
8
30_90000
10
94.14001
20
44.53700
30
90.00000
0
VERTEX
8
30_90000
10
94.83501
20
45.18600
30
90.00000
0
VERTEX
8
30_90000
10
95.17600
20
45.83700
30
90.00000
0
VERTEX
8
30_90000
10
95.37000
20
46.57000
30
90.00000
0
VERTEX
8
30_90000
10
95.44300
20
46.72800
30
90.00000
0
VERTEX
8
30_90000
10
95.44601
20
46.87900
30
90.00000
0
VERTEX
8
30_90000
10
95.82201
20
47.64300
30
90.00000
0
VERTEX
8
30_90000
10
96.03400
20
47.92300
30
90.00000
0
VERTEX
8
30_90000
10
96.42600
20
48.51900
30
90.00000
0
VERTEX
8
30_90000
10
96.82900
20
49.26900
30
90.00000
0
VERTEX
8
30_90000
10
96.85500
20
49.33400
30
90.00000
0
VERTEX
8
30_90000
10
97.03900
20
49.50900
30
90.00000
0
VERTEX
8
30_90000
10
97.16901
20
49.71900
30
90.00000
0
VERTEX
8
30_90000
10
97.20300
20
49.75400
30
90.00000
0
VERTEX
8
30_90000
10
97.21800
20
49.78900
30
90.00000
0
VERTEX
8
30_90000
10
97.40800
20
50.02000
30
90.00000
0
VERTEX
8
30_90000
10
97.62801
20
50.70400
30
90.00000
0
VERTEX
8
30_90000
10
97.76701
20
51.26200
30
90.00000
0
VERTEX
8
30_90000
10
97.92200
20
52.27900
30
90.00000
0
VERTEX
8
30_90000
10
98.00301
20
52.45100
30
90.00000
0
VERTEX
8
30_90000
10
98.05000
20
52.70800
30
90.00000
0
VERTEX
8
30_90000
10
98.14101
20
53.24800
30
90.00000
0
VERTEX
8
30_90000
10
98.20701
20
53.78200
30
90.00000
0
VERTEX
8
30_90000
10
98.36001
20
54.34900
30
90.00000
0
VERTEX
8
30_90000
10
98.66701
20
55.89200
30
90.00000
0
VERTEX
8
30_90000
10
98.90601
20
56.72500
30
90.00000
0
VERTEX
8
30_90000
10
98.93301
20
56.99600
30
90.00000
0
VERTEX
8
30_90000
10
98.93201
20
58.10200
30
90.00000
0
VERTEX
8
30_90000
10
98.98501
20
58.79000
30
90.00000
0
VERTEX
8
30_90000
10
98.96800
20
60.05000
30
90.00000
0
VERTEX
8
30_90000
10
98.35400
20
62.48600
30
90.00000
0
VERTEX
8
30_90000
10
97.79501
20
64.19901
30
90.00000
0
VERTEX
8
30_90000
10
97.02600
20
66.11600
30
90.00000
0
VERTEX
8
30_90000
10
96.55601
20
67.32000
30
90.00000
0
VERTEX
8
30_90000
10
96.45901
20
67.83100
30
90.00000
0
VERTEX
8
30_90000
10
96.38200
20
68.02200
30
90.00000
0
VERTEX
8
30_90000
10
96.38000
20
68.72401
30
90.00000
0
VERTEX
8
30_90000
10
96.43800
20
68.80400
30
90.00000
0
VERTEX
8
30_90000
10
96.66300
20
68.95200
30
90.00000
0
VERTEX
8
30_90000
10
96.76701
20
69.13600
30
90.00000
0
VERTEX
8
30_90000
10
97.14201
20
69.43900
30
90.00000
0
VERTEX
8
30_90000
10
98.32101
20
70.29700
30
90.00000
0
VERTEX
8
30_90000
10
98.64800
20
70.54301
30
90.00000
0
VERTEX
8
30_90000
10
99.28500
20
71.15300
30
90.00000
0
VERTEX
8
30_90000
10
99.69601
20
71.56200
30
90.00000
0
VERTEX
8
30_90000
10
99.97701
20
71.87901
30
90.00000
0
VERTEX
8
30_90000
10
100.94301
20
72.93100
30
90.00000
0
VERTEX
8
30_90000
10
101.79800
20
73.63600
30
90.00000
0
VERTEX
8
30_90000
10
102.08401
20
74.00201
30
90.00000
0
VERTEX
8
30_90000
10
102.67600
20
74.55901
30
90.00000
0
VERTEX
8
30_90000
10
102.89800
20
74.80400
30
90.00000
0
VERTEX
8
30_90000
10
102.92300
20
74.86401
30
90.00000
0
VERTEX
8
30_90000
10
103.43600
20
75.73200
30
90.00000
0
VERTEX
8
30_90000
10
103.62501
20
76.08900
30
90.00000
0
VERTEX
8
30_90000
10
103.71500
20
76.70600
30
90.00000
0
VERTEX
8
30_90000
10
104.04101
20
77.48801
30
90.00000
0
VERTEX
8
30_90000
10
104.11201
20
78.08100
30
90.00000
0
VERTEX
8
30_90000
10
104.11800
20
78.18600
30
90.00000
0
VERTEX
8
30_90000
10
104.31801
20
79.06400
30
90.00000
0
VERTEX
8
30_90000
10
104.48801
20
79.59000
30
90.00000
0
VERTEX
8
30_90000
10
104.46800
20
80.00101
30
90.00000
0
VERTEX
8
30_90000
10
104.35400
20
80.64201
30
90.00000
0
VERTEX
8
30_90000
10
104.33301
20
80.81001
30
90.00000
0
VERTEX
8
30_90000
10
104.31901
20
81.16801
30
90.00000
0
VERTEX
8
30_90000
10
104.19901
20
81.63700
30
90.00000
0
VERTEX
8
30_90000
10
104.02000
20
83.03800
30
90.00000
0
VERTEX
8
30_90000
10
104.00201
20
83.11800
30
90.00000
0
VERTEX
8
30_90000
10
103.94000
20
83.32700
30
90.00000
0
VERTEX
8
30_90000
10
103.34300
20
85.12200
30
90.00000
0
VERTEX
8
30_90000
10
103.18401
20
85.50900
30
90.00000
0
VERTEX
8
30_90000
10
102.92600
20
86.53800
30
90.00000
0
VERTEX
8
30_90000
10
102.79800
20
87.38901
30
90.00000
0
VERTEX
8
30_90000
10
102.65501
20
87.89500
30
90.00000
0
VERTEX
8
30_90000
10
102.52601
20
88.13700
30
90.00000
0
VERTEX
8
30_90000
10
102.30901
20
88.73500
30
90.00000
0
VERTEX
8
30_90000
10
102.24001
20
88.89900
30
90.00000
0
VERTEX
8
30_90000
10
102.14101
20
89.19501
30
90.00000
0
VERTEX
8
30_90000
10
101.55200
20
90.80901
30
90.00000
0
VERTEX
8
30_90000
10
101.46900
20
91.09400
30
90.00000
0
VERTEX
8
30_90000
10
101.45300
20
91.26301
30
90.00000
0
VERTEX
8
30_90000
10
101.06300
20
92.62501
30
90.00000
0
VERTEX
8
30_90000
10
101.05000
20
93.19000
30
90.00000
0
VERTEX
8
30_90000
10
101.04101
20
94.66400
30
90.00000
0
VERTEX
8
30_90000
10
101.10400
20
95.02701
30
90.00000
0
VERTEX
8
30_90000
10
101.19301
20
95.36401
30
90.00000
0
VERTEX
8
30_90000
10
101.38200
20
95.71600
30
90.00000
0
VERTEX
8
30_90000
10
101.68800
20
96.10400
30
90.00000
0
VERTEX
8
30_90000
10
101.75301
20
96.17400
30
90.00000
0
VERTEX
8
30_90000
10
102.61501
20
97.00800
30
90.00000
0
VERTEX
8
30_90000
10
102.70000
20
97.07301
30
90.00000
0
VERTEX
8
30_90000
10
102.73701
20
97.11700
30
90.00000
0
VERTEX
8
30_90000
10
103.13300
20
97.45600
30
90.00000
0
VERTEX
8
30_90000
10
103.63500
20
98.04101
30
90.00000
0
VERTEX
8
30_90000
10
104.27300
20
98.91400
30
90.00000
0
VERTEX
8
30_90000
10
104.74300
20
99.48200
30
90.00000
0
VERTEX
8
30_90000
10
104.98601
20
99.93001
30
90.00000
0
VERTEX
8
30_90000
10
105.55200
20
101.04700
30
90.00000
0
VERTEX
8
30_90000
10
106.03300
20
102.52901
30
90.00000
0
VERTEX
8
30_90000
10
106.29800
20
104.12701
30
90.00000
0
VERTEX
8
30_90000
10
106.31200
20
104.51900
30
90.00000
0
VERTEX
8
30_90000
10
106.30000
20
104.66501
30
90.00000
0
VERTEX
8
30_90000
10
106.32700
20
106.13801
30
90.00000
0
VERTEX
8
30_90000
10
106.20600
20
106.90301
30
90.00000
0
VERTEX
8
30_90000
10
106.00500
20
108.65201
30
90.00000
0
VERTEX
8
30_90000
10
105.97800
20
108.81100
30
90.00000
0
VERTEX
8
30_90000
10
105.96900
20
110.11301
30
90.00000
0
VERTEX
8
30_90000
10
106.18101
20
110.75101
30
90.00000
0
VERTEX
8
30_90000
10
106.04501
20
112.20100
30
90.00000
0
VERTEX
8
30_90000
10
106.15800
20
112.76401
30
90.00000
0
VERTEX
8
30_90000
10
105.85101
20
114.82101
30
90.00000
0
VERTEX
8
30_90000
10
105.53300
20
115.94801
30
90.00000
0
VERTEX
8
30_90000
10
105.03800
20
117.21500
30
90.00000
0
VERTEX
8
30_90000
10
104.96101
20
117.45601
30
90.00000
0
VERTEX
8
30_90000
10
103.34400
20
121.30801
30
90.00000
0
VERTEX
8
30_90000
10
103.31100
20
121.36501
30
90.00000
0
VERTEX
8
30_90000
10
102.81001
20
122.49100
30
90.00000
0
VERTEX
8
30_90000
10
102.61700
20
122.91200
30
90.00000
0
VERTEX
8
30_90000
10
102.36201
20
123.40501
30
90.00000
0
VERTEX
8
30_90000
10
99.89201
20
128.61601
30
90.00000
0
VERTEX
8
30_90000
10
99.30000
20
129.59700
30
90.00000
0
VERTEX
8
30_90000
10
98.24300
20
132.04001
30
90.00000
0
VERTEX
8
30_90000
10
97.96700
20
132.76500
30
90.00000
0
VERTEX
8
30_90000
10
97.16901
20
135.57800
30
90.00000
0
VERTEX
8
30_90000
10
96.90501
20
136.73100
30
90.00000
0
VERTEX
8
30_90000
10
96.84901
20
137.06100
30
90.00000
0
VERTEX
8
30_90000
10
96.50001
20
138.89000
30
90.00000
0
VERTEX
8
30_90000
10
96.45300
20
139.21901
30
90.00000
0
VERTEX
8
30_90000
10
96.43600
20
139.50601
30
90.00000
0
VERTEX
8
30_90000
10
96.21600
20
141.28801
30
90.00000
0
VERTEX
8
30_90000
10
96.16701
20
142.71001
30
90.00000
0
VERTEX
8
30_90000
10
96.19100
20
143.54800
30
90.00000
0
VERTEX
8
30_90000
10
96.26100
20
143.97200
30
90.00000
0
VERTEX
8
30_90000
10
96.35500
20
145.16600
30
90.00000
0
VERTEX
8
30_90000
10
96.73601
20
146.31900
30
90.00000
0
VERTEX
8
30_90000
10
96.87000
20
146.85101
30
90.00000
0
VERTEX
8
30_90000
10
97.19301
20
147.59500
30
90.00000
0
VERTEX
8
30_90000
10
97.35700
20
148.06500
30
90.00000
0
VERTEX
8
30_90000
10
98.09701
20
149.43901
30
90.00000
0
VERTEX
8
30_90000
10
98.30400
20
149.81700
30
90.00000
0
VERTEX
8
30_90000
10
98.63000
20
150.21501
30
90.00000
0
VERTEX
8
30_90000
10
99.14201
20
150.75000
30
90.00000
0
VERTEX
8
30_90000
10
99.72501
20
151.32600
30
90.00000
0
VERTEX
8
30_90000
10
99.97501
20
151.51100
30
90.00000
0
VERTEX
8
30_90000
10
100.07600
20
151.61401
30
90.00000
0
VERTEX
8
30_90000
10
100.57301
20
151.90601
30
90.00000
0
VERTEX
8
30_90000
10
101.46700
20
152.29301
30
90.00000
0
VERTEX
8
30_90000
10
101.93401
20
152.47900
30
90.00000
0
VERTEX
8
30_90000
10
103.93101
20
152.99400
30
90.00000
0
VERTEX
8
30_90000
10
104.41501
20
153.10301
30
90.00000
0
VERTEX
8
30_90000
10
104.86101
20
153.13901
30
90.00000
0
VERTEX
8
30_90000
10
105.94701
20
153.28101
30
90.00000
0
VERTEX
8
30_90000
10
107.38600
20
153.28900
30
90.00000
0
VERTEX
8
30_90000
10
107.60500
20
153.15401
30
90.00000
0
VERTEX
8
30_90000
10
107.72401
20
153.12801
30
90.00000
0
VERTEX
8
30_90000
10
107.78400
20
153.10301
30
90.00000
0
VERTEX
8
30_90000
10
109.17300
20
152.77901
30
90.00000
0
VERTEX
8
30_90000
10
109.37100
20
152.74600
30
90.00000
0
VERTEX
8
30_90000
10
110.16601
20
152.18401
30
90.00000
0
VERTEX
8
30_90000
10
111.08501
20
151.58501
30
90.00000
0
VERTEX
8
30_90000
10
111.20801
20
151.51601
30
90.00000
0
VERTEX
8
30_90000
10
111.37000
20
151.40300
30
90.00000
0
VERTEX
8
30_90000
10
112.20500
20
151.00801
30
90.00000
0
VERTEX
8
30_90000
10
113.60001
20
150.47900
30
90.00000
0
VERTEX
8
30_90000
10
113.97800
20
150.34801
30
90.00000
0
VERTEX
8
30_90000
10
114.13300
20
150.31700
30
90.00000
0
VERTEX
8
30_90000
10
115.06100
20
150.06401
30
90.00000
0
VERTEX
8
30_90000
10
115.55200
20
149.87601
30
90.00000
0
VERTEX
8
30_90000
10
116.49500
20
149.42900
30
90.00000
0
VERTEX
8
30_90000
10
117.71901
20
149.03401
30
90.00000
0
VERTEX
8
30_90000
10
118.51900
20
148.80000
30
90.00000
0
VERTEX
8
30_90000
10
118.61600
20
148.76201
30
90.00000
0
VERTEX
8
30_90000
10
118.72501
20
148.76201
30
90.00000
0
VERTEX
8
30_90000
10
119.39900
20
148.85501
30
90.00000
0
VERTEX
8
30_90000
10
120.73701
20
149.01100
30
90.00000
0
VERTEX
8
30_90000
10
121.14001
20
149.15701
30
90.00000
0
VERTEX
8
30_90000
10
121.34000
20
149.21101
30
90.00000
0
VERTEX
8
30_90000
10
123.34901
20
149.46201
30
90.00000
0
VERTEX
8
30_90000
10
123.75900
20
149.73700
30
90.00000
0
VERTEX
8
30_90000
10
123.94301
20
149.82001
30
90.00000
0
VERTEX
8
30_90000
10
124.00900
20
149.86000
30
90.00000
0
VERTEX
8
30_90000
10
124.57001
20
150.50401
30
90.00000
0
VERTEX
8
30_90000
10
124.69401
20
150.75301
30
90.00000
0
VERTEX
8
30_90000
10
124.98401
20
152.06900
30
90.00000
0
VERTEX
8
30_90000
10
125.33501
20
153.22401
30
90.00000
0
VERTEX
8
30_90000
10
125.42500
20
153.90701
30
90.00000
0
VERTEX
8
30_90000
10
125.50101
20
154.60800
30
90.00000
0
VERTEX
8
30_90000
10
125.39800
20
156.03500
30
90.00000
0
VERTEX
8
30_90000
10
125.65301
20
157.33501
30
90.00000
0
VERTEX
8
30_90000
10
125.73401
20
157.98500
30
90.00000
0
VERTEX
8
30_90000
10
125.90800
20
158.66701
30
90.00000
0
VERTEX
8
30_90000
10
125.92801
20
158.69200
30
90.00000
0
VERTEX
8
30_90000
10
126.26001
20
160.02301
30
90.00000
0
VERTEX
8
30_90000
10
126.25900
20
160.17900
30
90.00000
0
VERTEX
8
30_90000
10
126.24300
20
160.31100
30
90.00000
0
VERTEX
8
30_90000
10
126.27801
20
160.43701
30
90.00000
0
VERTEX
8
30_90000
10
126.35700
20
161.31601
30
90.00000
0
VERTEX
8
30_90000
10
126.49300
20
162.09500
30
90.00000
0
VERTEX
8
30_90000
10
126.39001
20
162.60201
30
90.00000
0
VERTEX
8
30_90000
10
126.37801
20
163.72202
30
90.00000
0
VERTEX
8
30_90000
10
126.33401
20
164.54100
30
90.00000
0
VERTEX
8
30_90000
10
126.24200
20
164.70300
30
90.00000
0
VERTEX
8
30_90000
10
126.13200
20
165.28401
30
90.00000
0
VERTEX
8
30_90000
10
126.06200
20
166.39700
30
90.00000
0
VERTEX
8
30_90000
10
126.02901
20
166.54800
30
90.00000
0
VERTEX
8
30_90000
10
125.63100
20
167.15800
30
90.00000
0
VERTEX
8
30_90000
10
125.01701
20
168.00101
30
90.00000
0
VERTEX
8
30_90000
10
124.40301
20
168.65601
30
90.00000
0
VERTEX
8
30_90000
10
122.48200
20
170.98201
30
90.00000
0
VERTEX
8
30_90000
10
121.56901
20
172.06100
30
90.00000
0
VERTEX
8
30_90000
10
118.48501
20
175.62001
30
90.00000
0
VERTEX
8
30_90000
10
116.30200
20
177.49901
30
90.00000
0
VERTEX
8
30_90000
10
115.35400
20
178.28500
30
90.00000
0
VERTEX
8
30_90000
10
91.92500
20
178.28601
30
90.00000
0
SEQEND
8
30_90000
0
ENDSEC
0
EOF
