0
SECTION
2
HEADER
9
$ACADVER
1
AC1009
0
ENDSEC
0
SECTION
2
TABLES
0
TABLE
2
LAYER
70
1
0
LAYER
2
16_48000
70
0
62
7
6
CONTINUOUS
0
ENDTAB
0
ENDSEC
0
SECTION
2
BLOCKS
0
ENDSEC
0
SECTION
2
ENTITIES
0
POLYLINE
8
16_48000
62
5
0
VERTEX
8
16_48000
10
23.05800
20
183.94501
30
48.00000
0
VERTEX
8
16_48000
10
16.29400
20
183.97401
30
48.00000
0
VERTEX
8
16_48000
10
16.23600
20
183.98201
30
48.00000
0
VERTEX
8
16_48000
10
156.49001
20
183.37401
30
48.00000
0
VERTEX
8
16_48000
10
23.05800
20
183.94501
30
48.00000
0
SEQEND
8
16_48000
0
POLYLINE
8
16_48000
62
5
0
VERTEX
8
16_48000
10
128.94600
20
183.51801
30
48.00000
0
VERTEX
8
16_48000
10
14.18000
20
184.12001
30
48.00000
0
VERTEX
8
16_48000
10
14.01400
20
184.12801
30
48.00000
0
VERTEX
8
16_48000
10
128.94600
20
183.51801
30
48.00000
0
SEQEND
8
16_48000
0
POLYLINE
8
16_48000
62
5
0
VERTEX
8
16_48000
10
21.49200
20
184.03201
30
48.00000
0
VERTEX
8
16_48000
10
83.35600
20
183.73201
30
48.00000
0
VERTEX
8
16_48000
10
21.49200
20
184.03201
30
48.00000
0
SEQEND
8
16_48000
0
POLYLINE
8
16_48000
62
5
0
VERTEX
8
16_48000
10
28.44500
20
183.57301
30
48.00000
0
VERTEX
8
16_48000
10
156.49001
20
183.37401
30
48.00000
0
VERTEX
8
16_48000
10
28.44500
20
183.57301
30
48.00000
0
SEQEND
8
16_48000
0
POLYLINE
8
16_48000
62
5
0
VERTEX
8
16_48000
10
98.19601
20
181.70001
30
48.00000
0
VERTEX
8
16_48000
10
39.88800
20
180.02600
30
48.00000
0
VERTEX
8
16_48000
10
98.19601
20
181.70001
30
48.00000
0
SEQEND
8
16_48000
0
POLYLINE
8
16_48000
62
5
0
VERTEX
8
16_48000
10
93.25401
20
182.59201
30
48.00000
0
VERTEX
8
16_48000
10
30.02200
20
181.81201
30
48.00000
0
VERTEX
8
16_48000
10
29.98200
20
181.82001
30
48.00000
0
VERTEX
8
16_48000
10
156.49001
20
183.37401
30
48.00000
0
VERTEX
8
16_48000
10
93.25401
20
182.59201
30
48.00000
0
SEQEND
8
16_48000
0
POLYLINE
8
16_48000
62
5
0
VERTEX
8
16_48000
10
9.80700
20
34.95400
30
48.00000
0
VERTEX
8
16_48000
10
10.06800
20
32.85600
30
48.00000
0
VERTEX
8
16_48000
10
10.16600
20
32.19600
30
48.00000
0
VERTEX
8
16_48000
10
10.96300
20
26.05600
30
48.00000
0
VERTEX
8
16_48000
10
11.12600
20
24.71400
30
48.00000
0
VERTEX
8
16_48000
10
11.18800
20
24.29200
30
48.00000
0
VERTEX
8
16_48000
10
11.64300
20
20.62800
30
48.00000
0
VERTEX
8
16_48000
10
11.78200
20
19.44200
30
48.00000
0
VERTEX
8
16_48000
10
11.97600
20
17.96800
30
48.00000
0
VERTEX
8
16_48000
10
12.07600
20
17.09800
30
48.00000
0
VERTEX
8
16_48000
10
12.58300
20
13.07100
30
48.00000
0
VERTEX
8
16_48000
10
13.21600
20
7.78400
30
48.00000
0
VERTEX
8
16_48000
10
13.99300
20
0.95700
30
48.00000
0
VERTEX
8
16_48000
10
14.09200
20
0.00600
30
48.00000
0
VERTEX
8
16_48000
10
158.53401
20
0.00600
30
48.00000
0
VERTEX
8
16_48000
10
158.57901
20
0.71500
30
48.00000
0
VERTEX
8
16_48000
10
158.51601
20
0.68700
30
48.00000
0
VERTEX
8
16_48000
10
158.41101
20
0.71100
30
48.00000
0
VERTEX
8
16_48000
10
157.67801
20
0.69600
30
48.00000
0
VERTEX
8
16_48000
10
156.70700
20
0.74300
30
48.00000
0
VERTEX
8
16_48000
10
156.26001
20
0.77400
30
48.00000
0
VERTEX
8
16_48000
10
156.18501
20
0.82500
30
48.00000
0
VERTEX
8
16_48000
10
155.62801
20
0.93100
30
48.00000
0
VERTEX
8
16_48000
10
154.53001
20
1.00500
30
48.00000
0
VERTEX
8
16_48000
10
153.66901
20
1.05000
30
48.00000
0
VERTEX
8
16_48000
10
153.43501
20
1.09300
30
48.00000
0
VERTEX
8
16_48000
10
152.59401
20
1.30600
30
48.00000
0
VERTEX
8
16_48000
10
152.28700
20
1.41000
30
48.00000
0
VERTEX
8
16_48000
10
151.90201
20
1.60900
30
48.00000
0
VERTEX
8
16_48000
10
151.18100
20
1.91600
30
48.00000
0
VERTEX
8
16_48000
10
150.82301
20
2.10000
30
48.00000
0
VERTEX
8
16_48000
10
150.71501
20
2.13600
30
48.00000
0
VERTEX
8
16_48000
10
150.11601
20
2.43000
30
48.00000
0
VERTEX
8
16_48000
10
149.99001
20
2.50500
30
48.00000
0
VERTEX
8
16_48000
10
149.55101
20
2.62500
30
48.00000
0
VERTEX
8
16_48000
10
149.24901
20
2.69700
30
48.00000
0
VERTEX
8
16_48000
10
149.14201
20
2.75600
30
48.00000
0
VERTEX
8
16_48000
10
149.06601
20
2.82000
30
48.00000
0
VERTEX
8
16_48000
10
148.74301
20
3.15100
30
48.00000
0
VERTEX
8
16_48000
10
147.10400
20
3.88500
30
48.00000
0
VERTEX
8
16_48000
10
145.62701
20
5.02300
30
48.00000
0
VERTEX
8
16_48000
10
145.14201
20
5.51900
30
48.00000
0
VERTEX
8
16_48000
10
144.56100
20
6.04100
30
48.00000
0
VERTEX
8
16_48000
10
142.84401
20
7.74200
30
48.00000
0
VERTEX
8
16_48000
10
142.60701
20
7.96300
30
48.00000
0
VERTEX
8
16_48000
10
141.93901
20
8.65900
30
48.00000
0
VERTEX
8
16_48000
10
141.58301
20
9.05900
30
48.00000
0
VERTEX
8
16_48000
10
141.46800
20
9.21600
30
48.00000
0
VERTEX
8
16_48000
10
141.13701
20
9.58000
30
48.00000
0
VERTEX
8
16_48000
10
140.30501
20
10.55900
30
48.00000
0
VERTEX
8
16_48000
10
139.97000
20
11.08400
30
48.00000
0
VERTEX
8
16_48000
10
139.71501
20
11.53400
30
48.00000
0
VERTEX
8
16_48000
10
139.50201
20
11.95900
30
48.00000
0
VERTEX
8
16_48000
10
137.98001
20
14.76600
30
48.00000
0
VERTEX
8
16_48000
10
137.66501
20
15.41200
30
48.00000
0
VERTEX
8
16_48000
10
137.50700
20
15.65700
30
48.00000
0
VERTEX
8
16_48000
10
137.28001
20
16.15000
30
48.00000
0
VERTEX
8
16_48000
10
137.50900
20
17.25000
30
48.00000
0
VERTEX
8
16_48000
10
137.55701
20
17.44300
30
48.00000
0
VERTEX
8
16_48000
10
137.56300
20
17.54000
30
48.00000
0
VERTEX
8
16_48000
10
137.77200
20
17.89000
30
48.00000
0
VERTEX
8
16_48000
10
137.88400
20
18.31700
30
48.00000
0
VERTEX
8
16_48000
10
138.10001
20
18.87100
30
48.00000
0
VERTEX
8
16_48000
10
138.29501
20
19.51600
30
48.00000
0
VERTEX
8
16_48000
10
138.47701
20
19.86900
30
48.00000
0
VERTEX
8
16_48000
10
138.50700
20
20.00100
30
48.00000
0
VERTEX
8
16_48000
10
138.88400
20
20.57300
30
48.00000
0
VERTEX
8
16_48000
10
138.99301
20
20.70900
30
48.00000
0
VERTEX
8
16_48000
10
139.06100
20
20.82800
30
48.00000
0
VERTEX
8
16_48000
10
139.39101
20
21.31000
30
48.00000
0
VERTEX
8
16_48000
10
139.60101
20
21.75700
30
48.00000
0
VERTEX
8
16_48000
10
140.00801
20
22.40400
30
48.00000
0
VERTEX
8
16_48000
10
140.31601
20
22.87700
30
48.00000
0
VERTEX
8
16_48000
10
140.40201
20
23.05400
30
48.00000
0
VERTEX
8
16_48000
10
140.62401
20
23.35400
30
48.00000
0
VERTEX
8
16_48000
10
141.03601
20
24.13900
30
48.00000
0
VERTEX
8
16_48000
10
141.22701
20
24.40800
30
48.00000
0
VERTEX
8
16_48000
10
141.64500
20
25.23800
30
48.00000
0
VERTEX
8
16_48000
10
142.13400
20
26.00200
30
48.00000
0
VERTEX
8
16_48000
10
142.75500
20
27.24700
30
48.00000
0
VERTEX
8
16_48000
10
143.56201
20
28.79700
30
48.00000
0
VERTEX
8
16_48000
10
143.77301
20
29.16500
30
48.00000
0
VERTEX
8
16_48000
10
144.73100
20
31.17700
30
48.00000
0
VERTEX
8
16_48000
10
144.82001
20
31.39300
30
48.00000
0
VERTEX
8
16_48000
10
144.89601
20
31.52800
30
48.00000
0
VERTEX
8
16_48000
10
145.41901
20
32.54800
30
48.00000
0
VERTEX
8
16_48000
10
145.78601
20
33.35200
30
48.00000
0
VERTEX
8
16_48000
10
146.23100
20
34.20200
30
48.00000
0
VERTEX
8
16_48000
10
146.76601
20
35.13900
30
48.00000
0
VERTEX
8
16_48000
10
146.99001
20
35.43900
30
48.00000
0
VERTEX
8
16_48000
10
147.06601
20
35.51600
30
48.00000
0
VERTEX
8
16_48000
10
147.09001
20
35.56900
30
48.00000
0
VERTEX
8
16_48000
10
147.25201
20
35.75000
30
48.00000
0
VERTEX
8
16_48000
10
147.54701
20
36.12100
30
48.00000
0
VERTEX
8
16_48000
10
147.66701
20
36.35700
30
48.00000
0
VERTEX
8
16_48000
10
147.99001
20
36.69300
30
48.00000
0
VERTEX
8
16_48000
10
148.07501
20
36.85200
30
48.00000
0
VERTEX
8
16_48000
10
148.21701
20
36.98100
30
48.00000
0
VERTEX
8
16_48000
10
148.38200
20
37.16600
30
48.00000
0
VERTEX
8
16_48000
10
148.50500
20
37.45000
30
48.00000
0
VERTEX
8
16_48000
10
148.55101
20
37.49000
30
48.00000
0
VERTEX
8
16_48000
10
148.60101
20
37.55100
30
48.00000
0
VERTEX
8
16_48000
10
148.79501
20
37.98900
30
48.00000
0
VERTEX
8
16_48000
10
148.94101
20
38.15900
30
48.00000
0
VERTEX
8
16_48000
10
149.11700
20
38.46000
30
48.00000
0
VERTEX
8
16_48000
10
149.14500
20
38.48200
30
48.00000
0
VERTEX
8
16_48000
10
149.17601
20
38.54600
30
48.00000
0
VERTEX
8
16_48000
10
149.52901
20
38.87100
30
48.00000
0
VERTEX
8
16_48000
10
149.60400
20
38.95900
30
48.00000
0
VERTEX
8
16_48000
10
150.04601
20
39.31000
30
48.00000
0
VERTEX
8
16_48000
10
150.31100
20
39.56600
30
48.00000
0
VERTEX
8
16_48000
10
150.40201
20
39.62600
30
48.00000
0
VERTEX
8
16_48000
10
151.15300
20
40.05400
30
48.00000
0
VERTEX
8
16_48000
10
151.28001
20
40.17600
30
48.00000
0
VERTEX
8
16_48000
10
151.34801
20
40.31100
30
48.00000
0
VERTEX
8
16_48000
10
152.15401
20
41.02700
30
48.00000
0
VERTEX
8
16_48000
10
152.81801
20
41.72400
30
48.00000
0
VERTEX
8
16_48000
10
153.13301
20
41.98200
30
48.00000
0
VERTEX
8
16_48000
10
153.45801
20
42.33600
30
48.00000
0
VERTEX
8
16_48000
10
153.82600
20
42.70500
30
48.00000
0
VERTEX
8
16_48000
10
154.24001
20
43.24000
30
48.00000
0
VERTEX
8
16_48000
10
154.96400
20
44.00400
30
48.00000
0
VERTEX
8
16_48000
10
155.08301
20
44.27500
30
48.00000
0
VERTEX
8
16_48000
10
155.29201
20
44.55600
30
48.00000
0
VERTEX
8
16_48000
10
155.69801
20
44.95700
30
48.00000
0
VERTEX
8
16_48000
10
156.54100
20
45.93100
30
48.00000
0
VERTEX
8
16_48000
10
156.73201
20
46.11800
30
48.00000
0
VERTEX
8
16_48000
10
156.97101
20
46.31800
30
48.00000
0
VERTEX
8
16_48000
10
157.88501
20
47.34400
30
48.00000
0
VERTEX
8
16_48000
10
158.12801
20
47.48900
30
48.00000
0
VERTEX
8
16_48000
10
158.57800
20
47.83700
30
48.00000
0
VERTEX
8
16_48000
10
158.55602
20
48.54800
30
48.00000
0
VERTEX
8
16_48000
10
158.55200
20
49.71100
30
48.00000
0
VERTEX
8
16_48000
10
158.57901
20
50.73100
30
48.00000
0
VERTEX
8
16_48000
10
158.45300
20
51.11700
30
48.00000
0
VERTEX
8
16_48000
10
158.05101
20
51.94500
30
48.00000
0
VERTEX
8
16_48000
10
157.94901
20
51.89400
30
48.00000
0
VERTEX
8
16_48000
10
158.01300
20
52.60300
30
48.00000
0
VERTEX
8
16_48000
10
158.06201
20
53.88600
30
48.00000
0
VERTEX
8
16_48000
10
158.11601
20
54.04800
30
48.00000
0
VERTEX
8
16_48000
10
158.40501
20
54.34500
30
48.00000
0
VERTEX
8
16_48000
10
158.46301
20
54.42400
30
48.00000
0
VERTEX
8
16_48000
10
158.57800
20
54.63600
30
48.00000
0
VERTEX
8
16_48000
10
158.50401
20
55.54400
30
48.00000
0
VERTEX
8
16_48000
10
158.45601
20
56.73000
30
48.00000
0
VERTEX
8
16_48000
10
158.40800
20
57.14000
30
48.00000
0
VERTEX
8
16_48000
10
158.33000
20
57.56200
30
48.00000
0
VERTEX
8
16_48000
10
158.33000
20
58.33400
30
48.00000
0
VERTEX
8
16_48000
10
158.31601
20
58.72800
30
48.00000
0
VERTEX
8
16_48000
10
158.27600
20
59.13000
30
48.00000
0
VERTEX
8
16_48000
10
158.17900
20
59.91200
30
48.00000
0
VERTEX
8
16_48000
10
158.10400
20
60.36400
30
48.00000
0
VERTEX
8
16_48000
10
158.04800
20
60.77200
30
48.00000
0
VERTEX
8
16_48000
10
158.02200
20
61.16800
30
48.00000
0
VERTEX
8
16_48000
10
157.97801
20
61.57200
30
48.00000
0
VERTEX
8
16_48000
10
157.94801
20
61.96800
30
48.00000
0
VERTEX
8
16_48000
10
157.90001
20
63.14000
30
48.00000
0
VERTEX
8
16_48000
10
157.87801
20
63.50500
30
48.00000
0
VERTEX
8
16_48000
10
157.84401
20
63.93200
30
48.00000
0
VERTEX
8
16_48000
10
157.79800
20
64.33400
30
48.00000
0
VERTEX
8
16_48000
10
157.69200
20
65.52200
30
48.00000
0
VERTEX
8
16_48000
10
157.65201
20
66.68600
30
48.00000
0
VERTEX
8
16_48000
10
157.61601
20
67.08400
30
48.00000
0
VERTEX
8
16_48000
10
157.62201
20
67.46201
30
48.00000
0
VERTEX
8
16_48000
10
157.60001
20
67.85400
30
48.00000
0
VERTEX
8
16_48000
10
157.53801
20
68.64001
30
48.00000
0
VERTEX
8
16_48000
10
157.50601
20
69.37200
30
48.00000
0
VERTEX
8
16_48000
10
157.45801
20
70.19601
30
48.00000
0
VERTEX
8
16_48000
10
157.42001
20
71.35201
30
48.00000
0
VERTEX
8
16_48000
10
157.37801
20
71.74600
30
48.00000
0
VERTEX
8
16_48000
10
157.35400
20
72.13400
30
48.00000
0
VERTEX
8
16_48000
10
157.34601
20
72.51801
30
48.00000
0
VERTEX
8
16_48000
10
157.32401
20
72.90401
30
48.00000
0
VERTEX
8
16_48000
10
157.30000
20
73.67400
30
48.00000
0
VERTEX
8
16_48000
10
157.22801
20
75.21600
30
48.00000
0
VERTEX
8
16_48000
10
157.18401
20
77.13200
30
48.00000
0
VERTEX
8
16_48000
10
157.15800
20
77.51801
30
48.00000
0
VERTEX
8
16_48000
10
157.18001
20
78.27400
30
48.00000
0
VERTEX
8
16_48000
10
157.17500
20
78.60101
30
48.00000
0
VERTEX
8
16_48000
10
157.14401
20
79.42600
30
48.00000
0
VERTEX
8
16_48000
10
157.09401
20
80.19601
30
48.00000
0
VERTEX
8
16_48000
10
157.10201
20
81.33200
30
48.00000
0
VERTEX
8
16_48000
10
157.06201
20
82.48000
30
48.00000
0
VERTEX
8
16_48000
10
157.00500
20
83.57001
30
48.00000
0
VERTEX
8
16_48000
10
156.95201
20
84.39600
30
48.00000
0
VERTEX
8
16_48000
10
156.96800
20
85.15200
30
48.00000
0
VERTEX
8
16_48000
10
156.96101
20
85.47401
30
48.00000
0
VERTEX
8
16_48000
10
156.93600
20
86.35500
30
48.00000
0
VERTEX
8
16_48000
10
156.90001
20
87.05601
30
48.00000
0
VERTEX
8
16_48000
10
156.86401
20
88.13700
30
48.00000
0
VERTEX
8
16_48000
10
156.86601
20
88.57800
30
48.00000
0
VERTEX
8
16_48000
10
156.90800
20
89.33401
30
48.00000
0
VERTEX
8
16_48000
10
156.90201
20
90.47201
30
48.00000
0
VERTEX
8
16_48000
10
156.94000
20
91.22800
30
48.00000
0
VERTEX
8
16_48000
10
156.94400
20
92.30701
30
48.00000
0
VERTEX
8
16_48000
10
156.93401
20
92.74600
30
48.00000
0
VERTEX
8
16_48000
10
156.93800
20
93.50600
30
48.00000
0
VERTEX
8
16_48000
10
156.92500
20
94.46101
30
48.00000
0
VERTEX
8
16_48000
10
156.86601
20
97.29800
30
48.00000
0
VERTEX
8
16_48000
10
156.90601
20
98.05801
30
48.00000
0
VERTEX
8
16_48000
10
156.89001
20
98.81600
30
48.00000
0
VERTEX
8
16_48000
10
156.90201
20
100.71201
30
48.00000
0
VERTEX
8
16_48000
10
156.91501
20
101.79101
30
48.00000
0
VERTEX
8
16_48000
10
156.94601
20
102.99200
30
48.00000
0
VERTEX
8
16_48000
10
156.95201
20
104.13200
30
48.00000
0
VERTEX
8
16_48000
10
156.94400
20
104.89001
30
48.00000
0
VERTEX
8
16_48000
10
156.95901
20
106.35001
30
48.00000
0
VERTEX
8
16_48000
10
156.96400
20
108.25001
30
48.00000
0
VERTEX
8
16_48000
10
156.99600
20
109.83201
30
48.00000
0
VERTEX
8
16_48000
10
156.98801
20
111.29301
30
48.00000
0
VERTEX
8
16_48000
10
157.01801
20
112.49600
30
48.00000
0
VERTEX
8
16_48000
10
157.03300
20
113.47001
30
48.00000
0
VERTEX
8
16_48000
10
157.04800
20
115.54401
30
48.00000
0
VERTEX
8
16_48000
10
157.15001
20
116.71400
30
48.00000
0
VERTEX
8
16_48000
10
157.16801
20
117.09601
30
48.00000
0
VERTEX
8
16_48000
10
157.16801
20
117.47800
30
48.00000
0
VERTEX
8
16_48000
10
157.13101
20
118.17400
30
48.00000
0
VERTEX
8
16_48000
10
157.11801
20
118.60400
30
48.00000
0
VERTEX
8
16_48000
10
157.13400
20
119.75201
30
48.00000
0
VERTEX
8
16_48000
10
157.13000
20
120.51201
30
48.00000
0
VERTEX
8
16_48000
10
157.14201
20
121.27601
30
48.00000
0
VERTEX
8
16_48000
10
157.18001
20
122.05201
30
48.00000
0
VERTEX
8
16_48000
10
157.20001
20
123.20000
30
48.00000
0
VERTEX
8
16_48000
10
157.29800
20
125.90401
30
48.00000
0
VERTEX
8
16_48000
10
157.35001
20
127.06801
30
48.00000
0
VERTEX
8
16_48000
10
157.41801
20
127.85801
30
48.00000
0
VERTEX
8
16_48000
10
157.42601
20
128.24400
30
48.00000
0
VERTEX
8
16_48000
10
157.47200
20
129.02800
30
48.00000
0
VERTEX
8
16_48000
10
157.46800
20
129.40800
30
48.00000
0
VERTEX
8
16_48000
10
157.51201
20
130.19200
30
48.00000
0
VERTEX
8
16_48000
10
157.52200
20
130.96201
30
48.00000
0
VERTEX
8
16_48000
10
157.55901
20
131.78201
30
48.00000
0
VERTEX
8
16_48000
10
157.62801
20
134.45401
30
48.00000
0
VERTEX
8
16_48000
10
157.72601
20
136.03801
30
48.00000
0
VERTEX
8
16_48000
10
157.74501
20
136.77800
30
48.00000
0
VERTEX
8
16_48000
10
157.76601
20
137.21001
30
48.00000
0
VERTEX
8
16_48000
10
157.80400
20
137.61200
30
48.00000
0
VERTEX
8
16_48000
10
157.81001
20
138.41501
30
48.00000
0
VERTEX
8
16_48000
10
157.80400
20
138.76201
30
48.00000
0
VERTEX
8
16_48000
10
157.74800
20
139.84900
30
48.00000
0
VERTEX
8
16_48000
10
157.66400
20
140.98401
30
48.00000
0
VERTEX
8
16_48000
10
157.57201
20
142.80301
30
48.00000
0
VERTEX
8
16_48000
10
157.51401
20
143.53101
30
48.00000
0
VERTEX
8
16_48000
10
157.39001
20
144.64201
30
48.00000
0
VERTEX
8
16_48000
10
157.32600
20
145.36401
30
48.00000
0
VERTEX
8
16_48000
10
157.22801
20
147.20401
30
48.00000
0
VERTEX
8
16_48000
10
157.18201
20
147.93600
30
48.00000
0
VERTEX
8
16_48000
10
157.17601
20
148.31201
30
48.00000
0
VERTEX
8
16_48000
10
157.09001
20
150.47801
30
48.00000
0
VERTEX
8
16_48000
10
157.07001
20
151.66000
30
48.00000
0
VERTEX
8
16_48000
10
157.00201
20
152.75201
30
48.00000
0
VERTEX
8
16_48000
10
157.00801
20
153.13400
30
48.00000
0
VERTEX
8
16_48000
10
156.99400
20
153.50401
30
48.00000
0
VERTEX
8
16_48000
10
156.96001
20
153.85800
30
48.00000
0
VERTEX
8
16_48000
10
156.95601
20
154.23401
30
48.00000
0
VERTEX
8
16_48000
10
156.88400
20
154.94000
30
48.00000
0
VERTEX
8
16_48000
10
156.85001
20
155.67201
30
48.00000
0
VERTEX
8
16_48000
10
156.78001
20
156.75401
30
48.00000
0
VERTEX
8
16_48000
10
156.74400
20
157.86201
30
48.00000
0
VERTEX
8
16_48000
10
156.65401
20
159.29601
30
48.00000
0
VERTEX
8
16_48000
10
156.62100
20
160.26901
30
48.00000
0
VERTEX
8
16_48000
10
156.59401
20
160.76401
30
48.00000
0
VERTEX
8
16_48000
10
156.58601
20
161.13600
30
48.00000
0
VERTEX
8
16_48000
10
156.51901
20
162.51401
30
48.00000
0
VERTEX
8
16_48000
10
156.49501
20
163.24901
30
48.00000
0
VERTEX
8
16_48000
10
156.47000
20
163.67601
30
48.00000
0
VERTEX
8
16_48000
10
156.41200
20
165.13400
30
48.00000
0
VERTEX
8
16_48000
10
156.38200
20
166.61401
30
48.00000
0
VERTEX
8
16_48000
10
156.34201
20
167.70601
30
48.00000
0
VERTEX
8
16_48000
10
156.35201
20
168.76901
30
48.00000
0
VERTEX
8
16_48000
10
156.34401
20
169.59201
30
48.00000
0
VERTEX
8
16_48000
10
156.37201
20
171.88000
30
48.00000
0
VERTEX
8
16_48000
10
156.40201
20
172.66000
30
48.00000
0
VERTEX
8
16_48000
10
156.42001
20
174.18800
30
48.00000
0
VERTEX
8
16_48000
10
156.45401
20
174.97801
30
48.00000
0
VERTEX
8
16_48000
10
156.46201
20
175.36401
30
48.00000
0
VERTEX
8
16_48000
10
156.45601
20
175.66101
30
48.00000
0
VERTEX
8
16_48000
10
156.46001
20
176.86801
30
48.00000
0
VERTEX
8
16_48000
10
156.44701
20
177.91101
30
48.00000
0
VERTEX
8
16_48000
10
156.45001
20
181.07901
30
48.00000
0
VERTEX
8
16_48000
10
156.46001
20
181.69801
30
48.00000
0
VERTEX
8
16_48000
10
156.48201
20
182.17401
30
48.00000
0
VERTEX
8
16_48000
10
156.47801
20
182.85201
30
48.00000
0
VERTEX
8
16_48000
10
156.49001
20
183.37401
30
48.00000
0
VERTEX
8
16_48000
10
10.57000
20
184.24600
30
48.00000
0
VERTEX
8
16_48000
10
10.51600
20
183.30801
30
48.00000
0
VERTEX
8
16_48000
10
10.45800
20
181.85800
30
48.00000
0
VERTEX
8
16_48000
10
10.32800
20
180.14301
30
48.00000
0
VERTEX
8
16_48000
10
10.26400
20
179.03601
30
48.00000
0
VERTEX
8
16_48000
10
10.06000
20
176.64101
30
48.00000
0
VERTEX
8
16_48000
10
9.86800
20
174.89401
30
48.00000
0
VERTEX
8
16_48000
10
9.81200
20
174.18800
30
48.00000
0
VERTEX
8
16_48000
10
9.69400
20
173.16602
30
48.00000
0
VERTEX
8
16_48000
10
9.28200
20
173.20401
30
48.00000
0
VERTEX
8
16_48000
10
9.20900
20
172.18701
30
48.00000
0
VERTEX
8
16_48000
10
9.29000
20
172.12300
30
48.00000
0
VERTEX
8
16_48000
10
10.33900
20
171.53101
30
48.00000
0
VERTEX
8
16_48000
10
10.61200
20
171.35001
30
48.00000
0
VERTEX
8
16_48000
10
10.69000
20
171.26801
30
48.00000
0
VERTEX
8
16_48000
10
10.94300
20
171.12300
30
48.00000
0
VERTEX
8
16_48000
10
11.79300
20
170.51501
30
48.00000
0
VERTEX
8
16_48000
10
11.88300
20
170.46001
30
48.00000
0
VERTEX
8
16_48000
10
13.50300
20
168.97301
30
48.00000
0
VERTEX
8
16_48000
10
14.32200
20
167.98601
30
48.00000
0
VERTEX
8
16_48000
10
14.71900
20
167.44301
30
48.00000
0
VERTEX
8
16_48000
10
15.38200
20
166.41301
30
48.00000
0
VERTEX
8
16_48000
10
16.09400
20
165.21800
30
48.00000
0
VERTEX
8
16_48000
10
16.26800
20
164.86000
30
48.00000
0
VERTEX
8
16_48000
10
16.55200
20
164.38000
30
48.00000
0
VERTEX
8
16_48000
10
16.87700
20
163.68901
30
48.00000
0
VERTEX
8
16_48000
10
17.46800
20
162.23401
30
48.00000
0
VERTEX
8
16_48000
10
17.52300
20
162.08200
30
48.00000
0
VERTEX
8
16_48000
10
17.91400
20
161.14101
30
48.00000
0
VERTEX
8
16_48000
10
18.23700
20
160.10400
30
48.00000
0
VERTEX
8
16_48000
10
18.50000
20
158.94400
30
48.00000
0
VERTEX
8
16_48000
10
19.32500
20
155.43201
30
48.00000
0
VERTEX
8
16_48000
10
19.61100
20
153.53700
30
48.00000
0
VERTEX
8
16_48000
10
19.93600
20
150.34001
30
48.00000
0
VERTEX
8
16_48000
10
19.97600
20
148.78001
30
48.00000
0
VERTEX
8
16_48000
10
20.01600
20
147.71301
30
48.00000
0
VERTEX
8
16_48000
10
19.92700
20
143.69000
30
48.00000
0
VERTEX
8
16_48000
10
19.85700
20
142.52501
30
48.00000
0
VERTEX
8
16_48000
10
19.54700
20
138.95100
30
48.00000
0
VERTEX
8
16_48000
10
19.47300
20
138.51801
30
48.00000
0
VERTEX
8
16_48000
10
19.27400
20
137.12901
30
48.00000
0
VERTEX
8
16_48000
10
19.13400
20
135.80901
30
48.00000
0
VERTEX
8
16_48000
10
19.02400
20
135.28601
30
48.00000
0
VERTEX
8
16_48000
10
18.03900
20
129.85101
30
48.00000
0
VERTEX
8
16_48000
10
17.37800
20
126.35801
30
48.00000
0
VERTEX
8
16_48000
10
16.61300
20
122.79101
30
48.00000
0
VERTEX
8
16_48000
10
16.29400
20
121.21901
30
48.00000
0
VERTEX
8
16_48000
10
15.96700
20
119.83801
30
48.00000
0
VERTEX
8
16_48000
10
15.45800
20
117.99200
30
48.00000
0
VERTEX
8
16_48000
10
15.15500
20
116.75401
30
48.00000
0
VERTEX
8
16_48000
10
15.01600
20
116.25600
30
48.00000
0
VERTEX
8
16_48000
10
14.61700
20
114.74200
30
48.00000
0
VERTEX
8
16_48000
10
14.37800
20
114.00500
30
48.00000
0
VERTEX
8
16_48000
10
14.16200
20
113.42001
30
48.00000
0
VERTEX
8
16_48000
10
14.03000
20
112.99600
30
48.00000
0
VERTEX
8
16_48000
10
13.71000
20
112.27000
30
48.00000
0
VERTEX
8
16_48000
10
13.58400
20
111.76501
30
48.00000
0
VERTEX
8
16_48000
10
13.45000
20
111.37000
30
48.00000
0
VERTEX
8
16_48000
10
12.99400
20
110.50201
30
48.00000
0
VERTEX
8
16_48000
10
12.29900
20
109.36001
30
48.00000
0
VERTEX
8
16_48000
10
12.09200
20
109.10700
30
48.00000
0
VERTEX
8
16_48000
10
11.76600
20
108.66601
30
48.00000
0
VERTEX
8
16_48000
10
11.40400
20
108.26501
30
48.00000
0
VERTEX
8
16_48000
10
11.31100
20
108.05200
30
48.00000
0
VERTEX
8
16_48000
10
11.11500
20
107.90101
30
48.00000
0
VERTEX
8
16_48000
10
10.76000
20
107.38000
30
48.00000
0
VERTEX
8
16_48000
10
10.56600
20
107.26801
30
48.00000
0
VERTEX
8
16_48000
10
10.24700
20
106.86700
30
48.00000
0
VERTEX
8
16_48000
10
9.85600
20
106.64800
30
48.00000
0
VERTEX
8
16_48000
10
9.70600
20
106.52701
30
48.00000
0
VERTEX
8
16_48000
10
9.33700
20
106.26100
30
48.00000
0
VERTEX
8
16_48000
10
8.73800
20
105.79301
30
48.00000
0
VERTEX
8
16_48000
10
8.65600
20
105.67200
30
48.00000
0
VERTEX
8
16_48000
10
8.59300
20
105.47000
30
48.00000
0
VERTEX
8
16_48000
10
8.40000
20
105.32101
30
48.00000
0
VERTEX
8
16_48000
10
8.21600
20
105.07301
30
48.00000
0
VERTEX
8
16_48000
10
8.02800
20
104.76701
30
48.00000
0
VERTEX
8
16_48000
10
7.88000
20
104.62100
30
48.00000
0
VERTEX
8
16_48000
10
7.70600
20
104.42200
30
48.00000
0
VERTEX
8
16_48000
10
7.74400
20
103.93401
30
48.00000
0
VERTEX
8
16_48000
10
7.77000
20
103.15401
30
48.00000
0
VERTEX
8
16_48000
10
7.79200
20
102.76401
30
48.00000
0
VERTEX
8
16_48000
10
7.98300
20
100.02901
30
48.00000
0
VERTEX
8
16_48000
10
8.04200
20
98.15900
30
48.00000
0
VERTEX
8
16_48000
10
8.05900
20
97.74100
30
48.00000
0
VERTEX
8
16_48000
10
8.08600
20
97.33601
30
48.00000
0
VERTEX
8
16_48000
10
8.10600
20
96.18001
30
48.00000
0
VERTEX
8
16_48000
10
8.13400
20
95.79601
30
48.00000
0
VERTEX
8
16_48000
10
8.18200
20
94.64001
30
48.00000
0
VERTEX
8
16_48000
10
8.23700
20
92.69100
30
48.00000
0
VERTEX
8
16_48000
10
8.25600
20
92.33200
30
48.00000
0
VERTEX
8
16_48000
10
8.31800
20
91.59600
30
48.00000
0
VERTEX
8
16_48000
10
8.36000
20
90.83200
30
48.00000
0
VERTEX
8
16_48000
10
8.41600
20
90.04000
30
48.00000
0
VERTEX
8
16_48000
10
8.42800
20
89.65601
30
48.00000
0
VERTEX
8
16_48000
10
8.41400
20
88.88800
30
48.00000
0
VERTEX
8
16_48000
10
8.44500
20
87.39101
30
48.00000
0
VERTEX
8
16_48000
10
8.49600
20
86.21201
30
48.00000
0
VERTEX
8
16_48000
10
8.48500
20
84.36600
30
48.00000
0
VERTEX
8
16_48000
10
8.45400
20
82.37400
30
48.00000
0
VERTEX
8
16_48000
10
8.40000
20
80.83000
30
48.00000
0
VERTEX
8
16_48000
10
8.41600
20
80.45000
30
48.00000
0
VERTEX
8
16_48000
10
8.41800
20
80.09901
30
48.00000
0
VERTEX
8
16_48000
10
8.39200
20
79.29401
30
48.00000
0
VERTEX
8
16_48000
10
8.41000
20
77.70000
30
48.00000
0
VERTEX
8
16_48000
10
8.40800
20
76.99800
30
48.00000
0
VERTEX
8
16_48000
10
8.38400
20
76.22200
30
48.00000
0
VERTEX
8
16_48000
10
8.41000
20
75.46400
30
48.00000
0
VERTEX
8
16_48000
10
8.41000
20
73.93000
30
48.00000
0
VERTEX
8
16_48000
10
8.42200
20
73.16400
30
48.00000
0
VERTEX
8
16_48000
10
8.40000
20
71.62200
30
48.00000
0
VERTEX
8
16_48000
10
8.43800
20
70.48400
30
48.00000
0
VERTEX
8
16_48000
10
8.44600
20
68.95600
30
48.00000
0
VERTEX
8
16_48000
10
8.43800
20
67.41801
30
48.00000
0
VERTEX
8
16_48000
10
8.40200
20
64.68600
30
48.00000
0
VERTEX
8
16_48000
10
8.37800
20
61.63800
30
48.00000
0
VERTEX
8
16_48000
10
8.33400
20
60.08200
30
48.00000
0
VERTEX
8
16_48000
10
8.33600
20
59.31600
30
48.00000
0
VERTEX
8
16_48000
10
8.36200
20
58.55800
30
48.00000
0
VERTEX
8
16_48000
10
8.36000
20
58.17600
30
48.00000
0
VERTEX
8
16_48000
10
8.37400
20
57.06300
30
48.00000
0
VERTEX
8
16_48000
10
8.40200
20
55.89600
30
48.00000
0
VERTEX
8
16_48000
10
8.40200
20
55.13000
30
48.00000
0
VERTEX
8
16_48000
10
8.41700
20
53.95400
30
48.00000
0
VERTEX
8
16_48000
10
8.47600
20
52.10600
30
48.00000
0
VERTEX
8
16_48000
10
8.49200
20
51.34800
30
48.00000
0
VERTEX
8
16_48000
10
8.62000
20
47.98800
30
48.00000
0
VERTEX
8
16_48000
10
8.71600
20
46.14200
30
48.00000
0
VERTEX
8
16_48000
10
8.80800
20
44.68000
30
48.00000
0
VERTEX
8
16_48000
10
9.02500
20
42.12000
30
48.00000
0
VERTEX
8
16_48000
10
9.32200
20
38.99400
30
48.00000
0
VERTEX
8
16_48000
10
9.63400
20
36.30500
30
48.00000
0
VERTEX
8
16_48000
10
9.72600
20
35.63700
30
48.00000
0
VERTEX
8
16_48000
10
9.80700
20
34.95400
30
48.00000
0
SEQEND
8
16_48000
0
ENDSEC
0
EOF
