0
SECTION
2
HEADER
9
$ACADVER
1
AC1009
0
ENDSEC
0
SECTION
2
TABLES
0
TABLE
2
LAYER
70
1
0
LAYER
2
27_81000
70
0
62
7
6
CONTINUOUS
0
ENDTAB
0
ENDSEC
0
SECTION
2
BLOCKS
0
ENDSEC
0
SECTION
2
ENTITIES
0
POLYLINE
8
27_81000
62
5
0
VERTEX
8
27_81000
10
109.05901
20
24.78100
30
81.00000
0
VERTEX
8
27_81000
10
108.97601
20
24.50500
30
81.00000
0
VERTEX
8
27_81000
10
108.91601
20
24.40200
30
81.00000
0
VERTEX
8
27_81000
10
109.03500
20
24.08400
30
81.00000
0
VERTEX
8
27_81000
10
108.96101
20
24.04100
30
81.00000
0
VERTEX
8
27_81000
10
109.07800
20
24.00900
30
81.00000
0
VERTEX
8
27_81000
10
109.10101
20
24.02700
30
81.00000
0
VERTEX
8
27_81000
10
109.13600
20
24.09900
30
81.00000
0
VERTEX
8
27_81000
10
109.26701
20
24.40100
30
81.00000
0
VERTEX
8
27_81000
10
109.13600
20
24.70100
30
81.00000
0
VERTEX
8
27_81000
10
109.16501
20
24.76000
30
81.00000
0
VERTEX
8
27_81000
10
109.07800
20
24.80600
30
81.00000
0
VERTEX
8
27_81000
10
109.05901
20
24.78100
30
81.00000
0
SEQEND
8
27_81000
0
POLYLINE
8
27_81000
62
5
0
VERTEX
8
27_81000
10
119.92700
20
179.78700
30
81.00000
0
VERTEX
8
27_81000
10
89.89900
20
179.78601
30
81.00000
0
VERTEX
8
27_81000
10
86.70000
20
179.79301
30
81.00000
0
VERTEX
8
27_81000
10
86.54000
20
179.78700
30
81.00000
0
VERTEX
8
27_81000
10
77.84000
20
179.78500
30
81.00000
0
VERTEX
8
27_81000
10
41.87600
20
179.78801
30
81.00000
0
VERTEX
8
27_81000
10
41.06000
20
178.67601
30
81.00000
0
VERTEX
8
27_81000
10
40.15200
20
177.39301
30
81.00000
0
VERTEX
8
27_81000
10
39.27400
20
176.00301
30
81.00000
0
VERTEX
8
27_81000
10
38.44200
20
174.51501
30
81.00000
0
VERTEX
8
27_81000
10
38.32600
20
174.27802
30
81.00000
0
VERTEX
8
27_81000
10
37.35400
20
172.40601
30
81.00000
0
VERTEX
8
27_81000
10
37.28000
20
172.17101
30
81.00000
0
VERTEX
8
27_81000
10
36.76200
20
170.74301
30
81.00000
0
VERTEX
8
27_81000
10
36.62800
20
170.39601
30
81.00000
0
VERTEX
8
27_81000
10
36.58900
20
169.71201
30
81.00000
0
VERTEX
8
27_81000
10
36.48200
20
168.44801
30
81.00000
0
VERTEX
8
27_81000
10
36.50000
20
168.14001
30
81.00000
0
VERTEX
8
27_81000
10
36.41200
20
167.16701
30
81.00000
0
VERTEX
8
27_81000
10
36.41900
20
166.21101
30
81.00000
0
VERTEX
8
27_81000
10
36.59400
20
164.52000
30
81.00000
0
VERTEX
8
27_81000
10
36.64200
20
163.93001
30
81.00000
0
VERTEX
8
27_81000
10
36.67600
20
163.27501
30
81.00000
0
VERTEX
8
27_81000
10
36.72800
20
162.95201
30
81.00000
0
VERTEX
8
27_81000
10
36.77500
20
162.37100
30
81.00000
0
VERTEX
8
27_81000
10
36.82200
20
161.99600
30
81.00000
0
VERTEX
8
27_81000
10
36.81600
20
161.84901
30
81.00000
0
VERTEX
8
27_81000
10
36.83100
20
161.38600
30
81.00000
0
VERTEX
8
27_81000
10
36.88300
20
160.37801
30
81.00000
0
VERTEX
8
27_81000
10
36.98200
20
157.68001
30
81.00000
0
VERTEX
8
27_81000
10
37.31300
20
154.52000
30
81.00000
0
VERTEX
8
27_81000
10
37.35400
20
154.26201
30
81.00000
0
VERTEX
8
27_81000
10
37.52600
20
153.44501
30
81.00000
0
VERTEX
8
27_81000
10
37.56700
20
153.15401
30
81.00000
0
VERTEX
8
27_81000
10
37.66500
20
152.93201
30
81.00000
0
VERTEX
8
27_81000
10
38.07400
20
151.89801
30
81.00000
0
VERTEX
8
27_81000
10
38.34100
20
151.50500
30
81.00000
0
VERTEX
8
27_81000
10
38.44300
20
151.32301
30
81.00000
0
VERTEX
8
27_81000
10
38.59700
20
151.14201
30
81.00000
0
VERTEX
8
27_81000
10
38.87800
20
150.85001
30
81.00000
0
VERTEX
8
27_81000
10
39.42700
20
150.55101
30
81.00000
0
VERTEX
8
27_81000
10
39.84300
20
149.89801
30
81.00000
0
VERTEX
8
27_81000
10
40.25200
20
149.08900
30
81.00000
0
VERTEX
8
27_81000
10
40.32500
20
148.95900
30
81.00000
0
VERTEX
8
27_81000
10
40.78400
20
148.51901
30
81.00000
0
VERTEX
8
27_81000
10
41.05300
20
148.17601
30
81.00000
0
VERTEX
8
27_81000
10
41.14900
20
148.09601
30
81.00000
0
VERTEX
8
27_81000
10
42.20800
20
147.59500
30
81.00000
0
VERTEX
8
27_81000
10
42.83100
20
147.08701
30
81.00000
0
VERTEX
8
27_81000
10
43.03000
20
146.77901
30
81.00000
0
VERTEX
8
27_81000
10
43.13900
20
146.52901
30
81.00000
0
VERTEX
8
27_81000
10
43.25100
20
146.10301
30
81.00000
0
VERTEX
8
27_81000
10
43.34300
20
145.70700
30
81.00000
0
VERTEX
8
27_81000
10
43.34300
20
145.49101
30
81.00000
0
VERTEX
8
27_81000
10
43.11500
20
144.89000
30
81.00000
0
VERTEX
8
27_81000
10
42.96800
20
144.31100
30
81.00000
0
VERTEX
8
27_81000
10
42.96600
20
143.92101
30
81.00000
0
VERTEX
8
27_81000
10
42.93000
20
143.40501
30
81.00000
0
VERTEX
8
27_81000
10
43.01500
20
142.06601
30
81.00000
0
VERTEX
8
27_81000
10
43.19200
20
141.35101
30
81.00000
0
VERTEX
8
27_81000
10
43.22700
20
141.00500
30
81.00000
0
VERTEX
8
27_81000
10
43.56600
20
139.26100
30
81.00000
0
VERTEX
8
27_81000
10
43.89200
20
137.84401
30
81.00000
0
VERTEX
8
27_81000
10
43.99000
20
137.56201
30
81.00000
0
VERTEX
8
27_81000
10
44.44500
20
136.11900
30
81.00000
0
VERTEX
8
27_81000
10
44.57800
20
135.72701
30
81.00000
0
VERTEX
8
27_81000
10
44.80200
20
135.30400
30
81.00000
0
VERTEX
8
27_81000
10
45.02600
20
134.95700
30
81.00000
0
VERTEX
8
27_81000
10
45.76900
20
133.88000
30
81.00000
0
VERTEX
8
27_81000
10
46.23100
20
133.31300
30
81.00000
0
VERTEX
8
27_81000
10
46.76600
20
132.89301
30
81.00000
0
VERTEX
8
27_81000
10
46.90500
20
132.68901
30
81.00000
0
VERTEX
8
27_81000
10
47.25400
20
132.00900
30
81.00000
0
VERTEX
8
27_81000
10
47.93200
20
130.98801
30
81.00000
0
VERTEX
8
27_81000
10
48.05900
20
130.81100
30
81.00000
0
VERTEX
8
27_81000
10
48.50600
20
127.81500
30
81.00000
0
VERTEX
8
27_81000
10
48.62900
20
126.79301
30
81.00000
0
VERTEX
8
27_81000
10
48.70200
20
126.33201
30
81.00000
0
VERTEX
8
27_81000
10
48.44100
20
125.57600
30
81.00000
0
VERTEX
8
27_81000
10
48.30700
20
124.85500
30
81.00000
0
VERTEX
8
27_81000
10
47.77500
20
123.99600
30
81.00000
0
VERTEX
8
27_81000
10
47.20400
20
122.88601
30
81.00000
0
VERTEX
8
27_81000
10
46.98000
20
122.42200
30
81.00000
0
VERTEX
8
27_81000
10
46.86700
20
122.20701
30
81.00000
0
VERTEX
8
27_81000
10
46.53700
20
121.46400
30
81.00000
0
VERTEX
8
27_81000
10
45.70200
20
120.03500
30
81.00000
0
VERTEX
8
27_81000
10
44.57700
20
117.44601
30
81.00000
0
VERTEX
8
27_81000
10
44.28100
20
116.85600
30
81.00000
0
VERTEX
8
27_81000
10
44.06300
20
116.21900
30
81.00000
0
VERTEX
8
27_81000
10
42.93600
20
114.01900
30
81.00000
0
VERTEX
8
27_81000
10
41.37300
20
110.22601
30
81.00000
0
VERTEX
8
27_81000
10
41.19400
20
109.71400
30
81.00000
0
VERTEX
8
27_81000
10
41.04700
20
109.08601
30
81.00000
0
VERTEX
8
27_81000
10
40.63700
20
108.03101
30
81.00000
0
VERTEX
8
27_81000
10
40.37200
20
107.15900
30
81.00000
0
VERTEX
8
27_81000
10
40.06100
20
106.03600
30
81.00000
0
VERTEX
8
27_81000
10
39.80400
20
104.55901
30
81.00000
0
VERTEX
8
27_81000
10
39.56300
20
103.31700
30
81.00000
0
VERTEX
8
27_81000
10
39.37700
20
101.42800
30
81.00000
0
VERTEX
8
27_81000
10
39.32900
20
101.04501
30
81.00000
0
VERTEX
8
27_81000
10
39.25700
20
98.34500
30
81.00000
0
VERTEX
8
27_81000
10
39.28200
20
97.82401
30
81.00000
0
VERTEX
8
27_81000
10
39.76000
20
93.97601
30
81.00000
0
VERTEX
8
27_81000
10
39.97800
20
93.04501
30
81.00000
0
VERTEX
8
27_81000
10
41.04100
20
90.35700
30
81.00000
0
VERTEX
8
27_81000
10
41.29800
20
89.74600
30
81.00000
0
VERTEX
8
27_81000
10
41.36900
20
89.61800
30
81.00000
0
VERTEX
8
27_81000
10
42.00800
20
88.67101
30
81.00000
0
VERTEX
8
27_81000
10
42.97600
20
87.21101
30
81.00000
0
VERTEX
8
27_81000
10
44.57700
20
84.67101
30
81.00000
0
VERTEX
8
27_81000
10
45.05200
20
83.90401
30
81.00000
0
VERTEX
8
27_81000
10
46.26500
20
82.21301
30
81.00000
0
VERTEX
8
27_81000
10
46.63900
20
80.71101
30
81.00000
0
VERTEX
8
27_81000
10
46.85400
20
80.05200
30
81.00000
0
VERTEX
8
27_81000
10
46.86600
20
79.96201
30
81.00000
0
VERTEX
8
27_81000
10
46.90600
20
79.81900
30
81.00000
0
VERTEX
8
27_81000
10
47.05600
20
78.62701
30
81.00000
0
VERTEX
8
27_81000
10
47.20700
20
78.26601
30
81.00000
0
VERTEX
8
27_81000
10
47.52800
20
77.43101
30
81.00000
0
VERTEX
8
27_81000
10
47.56700
20
77.20300
30
81.00000
0
VERTEX
8
27_81000
10
47.59300
20
77.09500
30
81.00000
0
VERTEX
8
27_81000
10
47.73700
20
76.65900
30
81.00000
0
VERTEX
8
27_81000
10
48.03200
20
76.31100
30
81.00000
0
VERTEX
8
27_81000
10
48.15900
20
76.08900
30
81.00000
0
VERTEX
8
27_81000
10
48.87800
20
74.63000
30
81.00000
0
VERTEX
8
27_81000
10
48.91400
20
74.58501
30
81.00000
0
VERTEX
8
27_81000
10
49.20200
20
74.41400
30
81.00000
0
VERTEX
8
27_81000
10
49.65500
20
74.17800
30
81.00000
0
VERTEX
8
27_81000
10
50.56700
20
73.55801
30
81.00000
0
VERTEX
8
27_81000
10
51.49500
20
73.05200
30
81.00000
0
VERTEX
8
27_81000
10
52.24200
20
72.77500
30
81.00000
0
VERTEX
8
27_81000
10
52.27800
20
72.73500
30
81.00000
0
VERTEX
8
27_81000
10
52.33600
20
72.71500
30
81.00000
0
VERTEX
8
27_81000
10
52.73300
20
72.48600
30
81.00000
0
VERTEX
8
27_81000
10
53.11600
20
72.36301
30
81.00000
0
VERTEX
8
27_81000
10
53.67500
20
72.13200
30
81.00000
0
VERTEX
8
27_81000
10
54.42500
20
71.76100
30
81.00000
0
VERTEX
8
27_81000
10
55.17400
20
71.36000
30
81.00000
0
VERTEX
8
27_81000
10
55.35300
20
71.12000
30
81.00000
0
VERTEX
8
27_81000
10
55.52300
20
70.86800
30
81.00000
0
VERTEX
8
27_81000
10
55.51700
20
70.64201
30
81.00000
0
VERTEX
8
27_81000
10
55.49500
20
70.52000
30
81.00000
0
VERTEX
8
27_81000
10
55.49500
20
70.28300
30
81.00000
0
VERTEX
8
27_81000
10
55.42600
20
69.93900
30
81.00000
0
VERTEX
8
27_81000
10
53.69900
20
67.14500
30
81.00000
0
VERTEX
8
27_81000
10
53.22700
20
65.95800
30
81.00000
0
VERTEX
8
27_81000
10
53.07000
20
65.54401
30
81.00000
0
VERTEX
8
27_81000
10
53.04400
20
65.37600
30
81.00000
0
VERTEX
8
27_81000
10
52.95800
20
65.30300
30
81.00000
0
VERTEX
8
27_81000
10
52.94900
20
64.90701
30
81.00000
0
VERTEX
8
27_81000
10
52.79300
20
64.43700
30
81.00000
0
VERTEX
8
27_81000
10
52.52900
20
63.31500
30
81.00000
0
VERTEX
8
27_81000
10
52.17300
20
62.35400
30
81.00000
0
VERTEX
8
27_81000
10
52.16100
20
62.03900
30
81.00000
0
VERTEX
8
27_81000
10
51.84800
20
60.89200
30
81.00000
0
VERTEX
8
27_81000
10
50.90100
20
57.75100
30
81.00000
0
VERTEX
8
27_81000
10
50.73700
20
56.80800
30
81.00000
0
VERTEX
8
27_81000
10
50.53400
20
55.99500
30
81.00000
0
VERTEX
8
27_81000
10
50.32600
20
53.54300
30
81.00000
0
VERTEX
8
27_81000
10
50.30500
20
52.88200
30
81.00000
0
VERTEX
8
27_81000
10
50.26300
20
52.63700
30
81.00000
0
VERTEX
8
27_81000
10
50.33400
20
51.68900
30
81.00000
0
VERTEX
8
27_81000
10
50.20800
20
50.23600
30
81.00000
0
VERTEX
8
27_81000
10
50.46400
20
48.91400
30
81.00000
0
VERTEX
8
27_81000
10
50.51600
20
48.46000
30
81.00000
0
VERTEX
8
27_81000
10
50.58000
20
47.18100
30
81.00000
0
VERTEX
8
27_81000
10
50.58500
20
46.17600
30
81.00000
0
VERTEX
8
27_81000
10
50.61500
20
45.81900
30
81.00000
0
VERTEX
8
27_81000
10
50.79700
20
44.60200
30
81.00000
0
VERTEX
8
27_81000
10
50.78100
20
43.62200
30
81.00000
0
VERTEX
8
27_81000
10
50.79800
20
43.40100
30
81.00000
0
VERTEX
8
27_81000
10
50.79800
20
43.20300
30
81.00000
0
VERTEX
8
27_81000
10
51.02600
20
42.12400
30
81.00000
0
VERTEX
8
27_81000
10
51.10300
20
41.81700
30
81.00000
0
VERTEX
8
27_81000
10
51.23600
20
40.61300
30
81.00000
0
VERTEX
8
27_81000
10
51.32300
20
38.66600
30
81.00000
0
VERTEX
8
27_81000
10
51.35200
20
37.75400
30
81.00000
0
VERTEX
8
27_81000
10
51.32600
20
37.36200
30
81.00000
0
VERTEX
8
27_81000
10
51.11800
20
36.59100
30
81.00000
0
VERTEX
8
27_81000
10
50.84900
20
35.74400
30
81.00000
0
VERTEX
8
27_81000
10
50.65900
20
35.48300
30
81.00000
0
VERTEX
8
27_81000
10
50.38200
20
34.68800
30
81.00000
0
VERTEX
8
27_81000
10
50.25600
20
34.16100
30
81.00000
0
VERTEX
8
27_81000
10
50.11300
20
33.77800
30
81.00000
0
VERTEX
8
27_81000
10
49.98900
20
33.49800
30
81.00000
0
VERTEX
8
27_81000
10
50.02000
20
33.36500
30
81.00000
0
VERTEX
8
27_81000
10
49.98600
20
33.27500
30
81.00000
0
VERTEX
8
27_81000
10
50.02700
20
32.15700
30
81.00000
0
VERTEX
8
27_81000
10
50.00500
20
31.93100
30
81.00000
0
VERTEX
8
27_81000
10
49.93800
20
31.77100
30
81.00000
0
VERTEX
8
27_81000
10
49.76000
20
31.42800
30
81.00000
0
VERTEX
8
27_81000
10
49.63500
20
30.85500
30
81.00000
0
VERTEX
8
27_81000
10
49.41100
20
30.42400
30
81.00000
0
VERTEX
8
27_81000
10
49.38300
20
30.29800
30
81.00000
0
VERTEX
8
27_81000
10
48.83500
20
29.52600
30
81.00000
0
VERTEX
8
27_81000
10
48.36700
20
28.77400
30
81.00000
0
VERTEX
8
27_81000
10
48.21800
20
28.64100
30
81.00000
0
VERTEX
8
27_81000
10
47.73300
20
28.30400
30
81.00000
0
VERTEX
8
27_81000
10
47.64100
20
28.16000
30
81.00000
0
VERTEX
8
27_81000
10
47.59500
20
27.92200
30
81.00000
0
VERTEX
8
27_81000
10
47.43800
20
27.62800
30
81.00000
0
VERTEX
8
27_81000
10
47.30000
20
27.24100
30
81.00000
0
VERTEX
8
27_81000
10
47.21500
20
27.03600
30
81.00000
0
VERTEX
8
27_81000
10
46.80400
20
26.19300
30
81.00000
0
VERTEX
8
27_81000
10
46.73400
20
25.80400
30
81.00000
0
VERTEX
8
27_81000
10
46.63500
20
25.36800
30
81.00000
0
VERTEX
8
27_81000
10
46.57100
20
25.21800
30
81.00000
0
VERTEX
8
27_81000
10
46.25000
20
24.93700
30
81.00000
0
VERTEX
8
27_81000
10
46.02600
20
24.45000
30
81.00000
0
VERTEX
8
27_81000
10
45.98200
20
24.40400
30
81.00000
0
VERTEX
8
27_81000
10
45.85800
20
24.31900
30
81.00000
0
VERTEX
8
27_81000
10
45.82100
20
24.22500
30
81.00000
0
VERTEX
8
27_81000
10
45.79100
20
23.60100
30
81.00000
0
VERTEX
8
27_81000
10
45.75900
20
23.50000
30
81.00000
0
VERTEX
8
27_81000
10
45.47800
20
22.91000
30
81.00000
0
VERTEX
8
27_81000
10
45.33100
20
22.65600
30
81.00000
0
VERTEX
8
27_81000
10
45.29800
20
22.55100
30
81.00000
0
VERTEX
8
27_81000
10
45.02400
20
22.33500
30
81.00000
0
VERTEX
8
27_81000
10
44.95400
20
22.19700
30
81.00000
0
VERTEX
8
27_81000
10
44.95500
20
21.73400
30
81.00000
0
VERTEX
8
27_81000
10
44.58900
20
20.90600
30
81.00000
0
VERTEX
8
27_81000
10
44.37100
20
20.10200
30
81.00000
0
VERTEX
8
27_81000
10
44.30100
20
19.90400
30
81.00000
0
VERTEX
8
27_81000
10
43.81700
20
19.35500
30
81.00000
0
VERTEX
8
27_81000
10
43.72800
20
19.19100
30
81.00000
0
VERTEX
8
27_81000
10
43.63300
20
18.89000
30
81.00000
0
VERTEX
8
27_81000
10
43.31600
20
18.37500
30
81.00000
0
VERTEX
8
27_81000
10
43.09800
20
17.50800
30
81.00000
0
VERTEX
8
27_81000
10
43.13700
20
17.23400
30
81.00000
0
VERTEX
8
27_81000
10
43.12100
20
17.15900
30
81.00000
0
VERTEX
8
27_81000
10
43.30100
20
16.48800
30
81.00000
0
VERTEX
8
27_81000
10
43.89800
20
13.94700
30
81.00000
0
VERTEX
8
27_81000
10
44.36400
20
11.40000
30
81.00000
0
VERTEX
8
27_81000
10
44.42300
20
10.93700
30
81.00000
0
VERTEX
8
27_81000
10
44.71400
20
9.90300
30
81.00000
0
VERTEX
8
27_81000
10
44.45600
20
9.54500
30
81.00000
0
VERTEX
8
27_81000
10
44.05300
20
9.42600
30
81.00000
0
VERTEX
8
27_81000
10
44.00200
20
9.32700
30
81.00000
0
VERTEX
8
27_81000
10
43.22100
20
8.99300
30
81.00000
0
VERTEX
8
27_81000
10
41.78700
20
8.57800
30
81.00000
0
VERTEX
8
27_81000
10
41.12200
20
8.35000
30
81.00000
0
VERTEX
8
27_81000
10
39.82800
20
8.01700
30
81.00000
0
VERTEX
8
27_81000
10
38.80300
20
7.90800
30
81.00000
0
VERTEX
8
27_81000
10
38.53300
20
7.84700
30
81.00000
0
VERTEX
8
27_81000
10
35.78400
20
7.58900
30
81.00000
0
VERTEX
8
27_81000
10
34.02400
20
7.47800
30
81.00000
0
VERTEX
8
27_81000
10
33.06700
20
7.40700
30
81.00000
0
VERTEX
8
27_81000
10
31.49100
20
7.40900
30
81.00000
0
VERTEX
8
27_81000
10
30.75400
20
7.43800
30
81.00000
0
VERTEX
8
27_81000
10
30.40700
20
7.46800
30
81.00000
0
VERTEX
8
27_81000
10
29.48800
20
7.48900
30
81.00000
0
VERTEX
8
27_81000
10
28.11400
20
7.66600
30
81.00000
0
VERTEX
8
27_81000
10
25.22700
20
7.84600
30
81.00000
0
VERTEX
8
27_81000
10
22.01700
20
8.24300
30
81.00000
0
VERTEX
8
27_81000
10
21.28000
20
8.30200
30
81.00000
0
VERTEX
8
27_81000
10
18.71100
20
8.68800
30
81.00000
0
VERTEX
8
27_81000
10
17.63400
20
8.84200
30
81.00000
0
VERTEX
8
27_81000
10
16.64000
20
9.04200
30
81.00000
0
VERTEX
8
27_81000
10
16.49800
20
9.03600
30
81.00000
0
VERTEX
8
27_81000
10
16.45500
20
9.04100
30
81.00000
0
VERTEX
8
27_81000
10
14.79000
20
9.34900
30
81.00000
0
VERTEX
8
27_81000
10
13.73400
20
9.49900
30
81.00000
0
VERTEX
8
27_81000
10
13.00300
20
9.58900
30
81.00000
0
VERTEX
8
27_81000
10
13.49700
20
5.34700
30
81.00000
0
VERTEX
8
27_81000
10
13.59200
20
4.43800
30
81.00000
0
VERTEX
8
27_81000
10
13.98200
20
1.07300
30
81.00000
0
VERTEX
8
27_81000
10
14.09200
20
0.00600
30
81.00000
0
VERTEX
8
27_81000
10
92.18001
20
0.00600
30
81.00000
0
VERTEX
8
27_81000
10
92.24500
20
0.35800
30
81.00000
0
VERTEX
8
27_81000
10
92.38200
20
0.69400
30
81.00000
0
VERTEX
8
27_81000
10
92.54201
20
1.52800
30
81.00000
0
VERTEX
8
27_81000
10
92.78201
20
1.82100
30
81.00000
0
VERTEX
8
27_81000
10
93.06600
20
2.03400
30
81.00000
0
VERTEX
8
27_81000
10
93.54301
20
2.28900
30
81.00000
0
VERTEX
8
27_81000
10
94.82201
20
2.87700
30
81.00000
0
VERTEX
8
27_81000
10
96.48300
20
3.67500
30
81.00000
0
VERTEX
8
27_81000
10
96.85101
20
3.83000
30
81.00000
0
VERTEX
8
27_81000
10
97.40000
20
4.04500
30
81.00000
0
VERTEX
8
27_81000
10
97.82500
20
4.19700
30
81.00000
0
VERTEX
8
27_81000
10
98.80100
20
4.50000
30
81.00000
0
VERTEX
8
27_81000
10
100.07800
20
4.97000
30
81.00000
0
VERTEX
8
27_81000
10
100.57600
20
5.20800
30
81.00000
0
VERTEX
8
27_81000
10
101.04501
20
5.41800
30
81.00000
0
VERTEX
8
27_81000
10
101.17400
20
5.50200
30
81.00000
0
VERTEX
8
27_81000
10
101.76601
20
5.84800
30
81.00000
0
VERTEX
8
27_81000
10
102.40401
20
6.14000
30
81.00000
0
VERTEX
8
27_81000
10
102.91000
20
6.43100
30
81.00000
0
VERTEX
8
27_81000
10
103.17800
20
6.64800
30
81.00000
0
VERTEX
8
27_81000
10
103.65201
20
6.97400
30
81.00000
0
VERTEX
8
27_81000
10
103.93900
20
7.21200
30
81.00000
0
VERTEX
8
27_81000
10
104.24901
20
7.42300
30
81.00000
0
VERTEX
8
27_81000
10
104.34901
20
7.57700
30
81.00000
0
VERTEX
8
27_81000
10
104.93201
20
7.88200
30
81.00000
0
VERTEX
8
27_81000
10
105.62701
20
8.53500
30
81.00000
0
VERTEX
8
27_81000
10
105.77000
20
8.63200
30
81.00000
0
VERTEX
8
27_81000
10
105.82401
20
8.69300
30
81.00000
0
VERTEX
8
27_81000
10
105.84701
20
8.73200
30
81.00000
0
VERTEX
8
27_81000
10
106.24200
20
9.24500
30
81.00000
0
VERTEX
8
27_81000
10
106.64001
20
9.80300
30
81.00000
0
VERTEX
8
27_81000
10
106.97501
20
10.17900
30
81.00000
0
VERTEX
8
27_81000
10
107.05701
20
10.29500
30
81.00000
0
VERTEX
8
27_81000
10
107.36900
20
10.79900
30
81.00000
0
VERTEX
8
27_81000
10
107.73801
20
11.59500
30
81.00000
0
VERTEX
8
27_81000
10
107.83801
20
11.74100
30
81.00000
0
VERTEX
8
27_81000
10
107.94200
20
12.05500
30
81.00000
0
VERTEX
8
27_81000
10
108.07900
20
12.55100
30
81.00000
0
VERTEX
8
27_81000
10
108.17001
20
12.79100
30
81.00000
0
VERTEX
8
27_81000
10
108.45100
20
13.64900
30
81.00000
0
VERTEX
8
27_81000
10
108.53001
20
14.05900
30
81.00000
0
VERTEX
8
27_81000
10
108.61301
20
14.36600
30
81.00000
0
VERTEX
8
27_81000
10
108.98000
20
14.97800
30
81.00000
0
VERTEX
8
27_81000
10
109.01000
20
15.12800
30
81.00000
0
VERTEX
8
27_81000
10
108.96301
20
15.26000
30
81.00000
0
VERTEX
8
27_81000
10
109.00900
20
15.29600
30
81.00000
0
VERTEX
8
27_81000
10
109.00900
20
15.58400
30
81.00000
0
VERTEX
8
27_81000
10
108.90201
20
16.15900
30
81.00000
0
VERTEX
8
27_81000
10
108.96101
20
16.39900
30
81.00000
0
VERTEX
8
27_81000
10
108.84501
20
16.63900
30
81.00000
0
VERTEX
8
27_81000
10
108.65800
20
16.87800
30
81.00000
0
VERTEX
8
27_81000
10
108.67400
20
16.93200
30
81.00000
0
VERTEX
8
27_81000
10
108.72900
20
17.23300
30
81.00000
0
VERTEX
8
27_81000
10
108.90301
20
17.41100
30
81.00000
0
VERTEX
8
27_81000
10
108.76900
20
17.70800
30
81.00000
0
VERTEX
8
27_81000
10
108.63200
20
18.20500
30
81.00000
0
VERTEX
8
27_81000
10
108.57101
20
18.30700
30
81.00000
0
VERTEX
8
27_81000
10
108.19601
20
18.57000
30
81.00000
0
VERTEX
8
27_81000
10
108.00301
20
18.96600
30
81.00000
0
VERTEX
8
27_81000
10
108.00301
20
19.04100
30
81.00000
0
VERTEX
8
27_81000
10
107.98801
20
19.16000
30
81.00000
0
VERTEX
8
27_81000
10
108.09000
20
19.68400
30
81.00000
0
VERTEX
8
27_81000
10
108.09000
20
20.31100
30
81.00000
0
VERTEX
8
27_81000
10
107.92700
20
20.60400
30
81.00000
0
VERTEX
8
27_81000
10
107.94401
20
20.81800
30
81.00000
0
VERTEX
8
27_81000
10
108.01401
20
20.98900
30
81.00000
0
VERTEX
8
27_81000
10
108.04101
20
21.17800
30
81.00000
0
VERTEX
8
27_81000
10
108.16400
20
21.39900
30
81.00000
0
VERTEX
8
27_81000
10
108.16400
20
21.66800
30
81.00000
0
VERTEX
8
27_81000
10
107.97101
20
22.10600
30
81.00000
0
VERTEX
8
27_81000
10
107.92901
20
23.00400
30
81.00000
0
VERTEX
8
27_81000
10
107.88400
20
23.32600
30
81.00000
0
VERTEX
8
27_81000
10
107.85901
20
23.68500
30
81.00000
0
VERTEX
8
27_81000
10
107.78001
20
24.04300
30
81.00000
0
VERTEX
8
27_81000
10
107.81100
20
24.27100
30
81.00000
0
VERTEX
8
27_81000
10
107.96900
20
25.03900
30
81.00000
0
VERTEX
8
27_81000
10
107.98000
20
25.17400
30
81.00000
0
VERTEX
8
27_81000
10
108.12901
20
25.63900
30
81.00000
0
VERTEX
8
27_81000
10
108.47001
20
26.01300
30
81.00000
0
VERTEX
8
27_81000
10
108.47001
20
26.64000
30
81.00000
0
VERTEX
8
27_81000
10
108.49801
20
27.11900
30
81.00000
0
VERTEX
8
27_81000
10
108.37200
20
27.41400
30
81.00000
0
VERTEX
8
27_81000
10
108.43001
20
27.98500
30
81.00000
0
VERTEX
8
27_81000
10
108.48701
20
29.00000
30
81.00000
0
VERTEX
8
27_81000
10
108.46800
20
29.18000
30
81.00000
0
VERTEX
8
27_81000
10
108.66200
20
29.59200
30
81.00000
0
VERTEX
8
27_81000
10
108.96101
20
29.89700
30
81.00000
0
VERTEX
8
27_81000
10
109.11700
20
30.09500
30
81.00000
0
VERTEX
8
27_81000
10
109.12200
20
30.80800
30
81.00000
0
VERTEX
8
27_81000
10
109.14700
20
30.99800
30
81.00000
0
VERTEX
8
27_81000
10
109.14700
20
31.57200
30
81.00000
0
VERTEX
8
27_81000
10
109.12200
20
31.66100
30
81.00000
0
VERTEX
8
27_81000
10
109.20300
20
32.51600
30
81.00000
0
VERTEX
8
27_81000
10
109.34300
20
33.00500
30
81.00000
0
VERTEX
8
27_81000
10
109.37601
20
33.05600
30
81.00000
0
VERTEX
8
27_81000
10
109.42500
20
33.24300
30
81.00000
0
VERTEX
8
27_81000
10
109.55200
20
33.46000
30
81.00000
0
VERTEX
8
27_81000
10
109.53201
20
33.72000
30
81.00000
0
VERTEX
8
27_81000
10
109.55200
20
33.85100
30
81.00000
0
VERTEX
8
27_81000
10
109.49600
20
34.27700
30
81.00000
0
VERTEX
8
27_81000
10
109.47900
20
34.60400
30
81.00000
0
VERTEX
8
27_81000
10
109.51501
20
34.85400
30
81.00000
0
VERTEX
8
27_81000
10
109.48901
20
35.15400
30
81.00000
0
VERTEX
8
27_81000
10
109.07700
20
36.24900
30
81.00000
0
VERTEX
8
27_81000
10
108.94501
20
36.31300
30
81.00000
0
VERTEX
8
27_81000
10
108.54001
20
37.03000
30
81.00000
0
VERTEX
8
27_81000
10
108.55401
20
37.39600
30
81.00000
0
VERTEX
8
27_81000
10
108.45000
20
38.42000
30
81.00000
0
VERTEX
8
27_81000
10
108.64700
20
38.96300
30
81.00000
0
VERTEX
8
27_81000
10
108.73000
20
39.27800
30
81.00000
0
VERTEX
8
27_81000
10
108.72900
20
39.93600
30
81.00000
0
VERTEX
8
27_81000
10
108.81801
20
41.00600
30
81.00000
0
VERTEX
8
27_81000
10
108.92500
20
41.46200
30
81.00000
0
VERTEX
8
27_81000
10
109.01201
20
42.34600
30
81.00000
0
VERTEX
8
27_81000
10
109.20701
20
42.80400
30
81.00000
0
VERTEX
8
27_81000
10
109.43900
20
43.50700
30
81.00000
0
VERTEX
8
27_81000
10
109.49200
20
43.64500
30
81.00000
0
VERTEX
8
27_81000
10
109.58201
20
43.94000
30
81.00000
0
VERTEX
8
27_81000
10
109.66400
20
44.58800
30
81.00000
0
VERTEX
8
27_81000
10
109.77500
20
44.95300
30
81.00000
0
VERTEX
8
27_81000
10
109.87401
20
45.46800
30
81.00000
0
VERTEX
8
27_81000
10
110.14201
20
46.43800
30
81.00000
0
VERTEX
8
27_81000
10
110.39001
20
47.24000
30
81.00000
0
VERTEX
8
27_81000
10
110.49100
20
47.51000
30
81.00000
0
VERTEX
8
27_81000
10
110.51100
20
48.72400
30
81.00000
0
VERTEX
8
27_81000
10
110.52801
20
48.83400
30
81.00000
0
VERTEX
8
27_81000
10
110.70701
20
49.64900
30
81.00000
0
VERTEX
8
27_81000
10
110.75301
20
50.02400
30
81.00000
0
VERTEX
8
27_81000
10
111.06701
20
51.01900
30
81.00000
0
VERTEX
8
27_81000
10
111.08801
20
51.36700
30
81.00000
0
VERTEX
8
27_81000
10
111.20901
20
54.78600
30
81.00000
0
VERTEX
8
27_81000
10
111.26100
20
55.58700
30
81.00000
0
VERTEX
8
27_81000
10
111.16501
20
57.14200
30
81.00000
0
VERTEX
8
27_81000
10
110.90701
20
59.52600
30
81.00000
0
VERTEX
8
27_81000
10
110.89301
20
59.77900
30
81.00000
0
VERTEX
8
27_81000
10
110.77601
20
60.19800
30
81.00000
0
VERTEX
8
27_81000
10
110.20000
20
62.39800
30
81.00000
0
VERTEX
8
27_81000
10
110.08601
20
63.09400
30
81.00000
0
VERTEX
8
27_81000
10
109.74700
20
64.14201
30
81.00000
0
VERTEX
8
27_81000
10
109.48200
20
65.43401
30
81.00000
0
VERTEX
8
27_81000
10
109.42600
20
65.54700
30
81.00000
0
VERTEX
8
27_81000
10
108.73000
20
67.32401
30
81.00000
0
VERTEX
8
27_81000
10
108.53201
20
68.13400
30
81.00000
0
VERTEX
8
27_81000
10
108.52801
20
68.27100
30
81.00000
0
VERTEX
8
27_81000
10
108.68001
20
69.19200
30
81.00000
0
VERTEX
8
27_81000
10
108.79301
20
69.30701
30
81.00000
0
VERTEX
8
27_81000
10
109.14700
20
69.71201
30
81.00000
0
VERTEX
8
27_81000
10
109.31801
20
69.78800
30
81.00000
0
VERTEX
8
27_81000
10
109.42600
20
69.89500
30
81.00000
0
VERTEX
8
27_81000
10
110.25600
20
70.23000
30
81.00000
0
VERTEX
8
27_81000
10
110.47001
20
70.35600
30
81.00000
0
VERTEX
8
27_81000
10
110.73901
20
70.44200
30
81.00000
0
VERTEX
8
27_81000
10
111.64201
20
70.79000
30
81.00000
0
VERTEX
8
27_81000
10
111.86401
20
70.80500
30
81.00000
0
VERTEX
8
27_81000
10
112.14600
20
70.92300
30
81.00000
0
VERTEX
8
27_81000
10
112.59901
20
71.05500
30
81.00000
0
VERTEX
8
27_81000
10
113.31500
20
71.23100
30
81.00000
0
VERTEX
8
27_81000
10
113.47101
20
71.31400
30
81.00000
0
VERTEX
8
27_81000
10
113.86101
20
71.43900
30
81.00000
0
VERTEX
8
27_81000
10
114.08601
20
71.48500
30
81.00000
0
VERTEX
8
27_81000
10
114.21800
20
71.49700
30
81.00000
0
VERTEX
8
27_81000
10
114.60300
20
71.68301
30
81.00000
0
VERTEX
8
27_81000
10
114.86600
20
71.77300
30
81.00000
0
VERTEX
8
27_81000
10
115.28800
20
71.97900
30
81.00000
0
VERTEX
8
27_81000
10
115.66000
20
72.19100
30
81.00000
0
VERTEX
8
27_81000
10
116.43401
20
72.96400
30
81.00000
0
VERTEX
8
27_81000
10
116.76000
20
73.05500
30
81.00000
0
VERTEX
8
27_81000
10
117.50700
20
73.63700
30
81.00000
0
VERTEX
8
27_81000
10
118.07600
20
73.70200
30
81.00000
0
VERTEX
8
27_81000
10
118.15001
20
73.74001
30
81.00000
0
VERTEX
8
27_81000
10
118.20701
20
73.78700
30
81.00000
0
VERTEX
8
27_81000
10
118.25700
20
73.93201
30
81.00000
0
VERTEX
8
27_81000
10
118.40601
20
74.29800
30
81.00000
0
VERTEX
8
27_81000
10
118.51401
20
74.82500
30
81.00000
0
VERTEX
8
27_81000
10
118.58201
20
75.24100
30
81.00000
0
VERTEX
8
27_81000
10
118.64700
20
75.39500
30
81.00000
0
VERTEX
8
27_81000
10
118.67001
20
75.56900
30
81.00000
0
VERTEX
8
27_81000
10
118.83501
20
76.00800
30
81.00000
0
VERTEX
8
27_81000
10
119.04601
20
76.52200
30
81.00000
0
VERTEX
8
27_81000
10
119.12901
20
76.77901
30
81.00000
0
VERTEX
8
27_81000
10
119.24701
20
77.65200
30
81.00000
0
VERTEX
8
27_81000
10
119.27801
20
77.75600
30
81.00000
0
VERTEX
8
27_81000
10
119.46001
20
78.15501
30
81.00000
0
VERTEX
8
27_81000
10
119.67600
20
78.83200
30
81.00000
0
VERTEX
8
27_81000
10
119.86800
20
79.51300
30
81.00000
0
VERTEX
8
27_81000
10
119.95801
20
79.58601
30
81.00000
0
VERTEX
8
27_81000
10
120.09901
20
79.98400
30
81.00000
0
VERTEX
8
27_81000
10
120.72201
20
80.60500
30
81.00000
0
VERTEX
8
27_81000
10
121.88801
20
81.46400
30
81.00000
0
VERTEX
8
27_81000
10
122.81701
20
81.98601
30
81.00000
0
VERTEX
8
27_81000
10
123.61201
20
82.59500
30
81.00000
0
VERTEX
8
27_81000
10
124.55901
20
83.43800
30
81.00000
0
VERTEX
8
27_81000
10
124.74001
20
83.57500
30
81.00000
0
VERTEX
8
27_81000
10
125.34000
20
84.15501
30
81.00000
0
VERTEX
8
27_81000
10
125.77401
20
84.63300
30
81.00000
0
VERTEX
8
27_81000
10
126.37701
20
85.11600
30
81.00000
0
VERTEX
8
27_81000
10
127.31200
20
86.10001
30
81.00000
0
VERTEX
8
27_81000
10
129.19301
20
87.95300
30
81.00000
0
VERTEX
8
27_81000
10
129.34500
20
88.29201
30
81.00000
0
VERTEX
8
27_81000
10
130.47200
20
89.57201
30
81.00000
0
VERTEX
8
27_81000
10
131.21101
20
90.88600
30
81.00000
0
VERTEX
8
27_81000
10
131.70601
20
91.79101
30
81.00000
0
VERTEX
8
27_81000
10
132.24101
20
93.02901
30
81.00000
0
VERTEX
8
27_81000
10
132.50601
20
93.74300
30
81.00000
0
VERTEX
8
27_81000
10
132.85600
20
95.16100
30
81.00000
0
VERTEX
8
27_81000
10
132.96800
20
95.86001
30
81.00000
0
VERTEX
8
27_81000
10
133.20001
20
97.04800
30
81.00000
0
VERTEX
8
27_81000
10
133.27600
20
97.61900
30
81.00000
0
VERTEX
8
27_81000
10
133.33900
20
99.22900
30
81.00000
0
VERTEX
8
27_81000
10
133.34401
20
101.07201
30
81.00000
0
VERTEX
8
27_81000
10
133.31300
20
102.64101
30
81.00000
0
VERTEX
8
27_81000
10
133.14700
20
104.35101
30
81.00000
0
VERTEX
8
27_81000
10
132.94701
20
106.14301
30
81.00000
0
VERTEX
8
27_81000
10
132.87801
20
106.68600
30
81.00000
0
VERTEX
8
27_81000
10
132.32100
20
109.06200
30
81.00000
0
VERTEX
8
27_81000
10
131.85501
20
110.66701
30
81.00000
0
VERTEX
8
27_81000
10
131.15800
20
113.66501
30
81.00000
0
VERTEX
8
27_81000
10
130.82001
20
115.29800
30
81.00000
0
VERTEX
8
27_81000
10
130.63000
20
115.90601
30
81.00000
0
VERTEX
8
27_81000
10
130.46001
20
116.41501
30
81.00000
0
VERTEX
8
27_81000
10
130.35800
20
116.83301
30
81.00000
0
VERTEX
8
27_81000
10
129.83900
20
118.28700
30
81.00000
0
VERTEX
8
27_81000
10
128.54401
20
121.12901
30
81.00000
0
VERTEX
8
27_81000
10
127.87401
20
122.58101
30
81.00000
0
VERTEX
8
27_81000
10
127.58401
20
123.03600
30
81.00000
0
VERTEX
8
27_81000
10
127.49400
20
123.39001
30
81.00000
0
VERTEX
8
27_81000
10
127.31701
20
124.33601
30
81.00000
0
VERTEX
8
27_81000
10
127.43301
20
125.11401
30
81.00000
0
VERTEX
8
27_81000
10
127.46500
20
125.48601
30
81.00000
0
VERTEX
8
27_81000
10
127.61401
20
126.00800
30
81.00000
0
VERTEX
8
27_81000
10
127.74701
20
126.22101
30
81.00000
0
VERTEX
8
27_81000
10
128.00401
20
126.84300
30
81.00000
0
VERTEX
8
27_81000
10
128.17601
20
127.48200
30
81.00000
0
VERTEX
8
27_81000
10
128.37300
20
127.82101
30
81.00000
0
VERTEX
8
27_81000
10
128.75801
20
128.29800
30
81.00000
0
VERTEX
8
27_81000
10
128.86700
20
128.40701
30
81.00000
0
VERTEX
8
27_81000
10
129.75801
20
129.61700
30
81.00000
0
VERTEX
8
27_81000
10
129.96701
20
129.98801
30
81.00000
0
VERTEX
8
27_81000
10
130.60901
20
131.19301
30
81.00000
0
VERTEX
8
27_81000
10
130.96101
20
132.28000
30
81.00000
0
VERTEX
8
27_81000
10
131.00601
20
132.45401
30
81.00000
0
VERTEX
8
27_81000
10
131.18001
20
133.37001
30
81.00000
0
VERTEX
8
27_81000
10
131.33400
20
134.40401
30
81.00000
0
VERTEX
8
27_81000
10
131.39801
20
135.26901
30
81.00000
0
VERTEX
8
27_81000
10
131.45801
20
136.51401
30
81.00000
0
VERTEX
8
27_81000
10
131.49901
20
138.97400
30
81.00000
0
VERTEX
8
27_81000
10
131.36601
20
139.63800
30
81.00000
0
VERTEX
8
27_81000
10
131.37201
20
139.97200
30
81.00000
0
VERTEX
8
27_81000
10
131.15701
20
140.43701
30
81.00000
0
VERTEX
8
27_81000
10
130.79901
20
141.25601
30
81.00000
0
VERTEX
8
27_81000
10
130.91800
20
141.48401
30
81.00000
0
VERTEX
8
27_81000
10
130.96400
20
141.61501
30
81.00000
0
VERTEX
8
27_81000
10
131.15601
20
141.75900
30
81.00000
0
VERTEX
8
27_81000
10
131.35400
20
141.88200
30
81.00000
0
VERTEX
8
27_81000
10
131.87700
20
142.15201
30
81.00000
0
VERTEX
8
27_81000
10
132.05200
20
142.21901
30
81.00000
0
VERTEX
8
27_81000
10
132.12401
20
142.22101
30
81.00000
0
VERTEX
8
27_81000
10
132.14500
20
142.23700
30
81.00000
0
VERTEX
8
27_81000
10
132.27600
20
142.25500
30
81.00000
0
VERTEX
8
27_81000
10
132.95801
20
142.25801
30
81.00000
0
VERTEX
8
27_81000
10
133.65401
20
142.76300
30
81.00000
0
VERTEX
8
27_81000
10
133.68201
20
142.77400
30
81.00000
0
VERTEX
8
27_81000
10
134.21600
20
143.56001
30
81.00000
0
VERTEX
8
27_81000
10
134.31401
20
143.67700
30
81.00000
0
VERTEX
8
27_81000
10
134.57201
20
144.03801
30
81.00000
0
VERTEX
8
27_81000
10
134.85101
20
144.31100
30
81.00000
0
VERTEX
8
27_81000
10
135.25301
20
144.49200
30
81.00000
0
VERTEX
8
27_81000
10
135.40100
20
144.57501
30
81.00000
0
VERTEX
8
27_81000
10
135.57501
20
144.74001
30
81.00000
0
VERTEX
8
27_81000
10
136.03700
20
145.31801
30
81.00000
0
VERTEX
8
27_81000
10
136.24101
20
145.60501
30
81.00000
0
VERTEX
8
27_81000
10
136.35101
20
145.82301
30
81.00000
0
VERTEX
8
27_81000
10
136.47900
20
146.12001
30
81.00000
0
VERTEX
8
27_81000
10
136.92001
20
147.73201
30
81.00000
0
VERTEX
8
27_81000
10
137.14500
20
148.98001
30
81.00000
0
VERTEX
8
27_81000
10
137.36700
20
150.45700
30
81.00000
0
VERTEX
8
27_81000
10
137.44901
20
151.11501
30
81.00000
0
VERTEX
8
27_81000
10
137.73201
20
153.61601
30
81.00000
0
VERTEX
8
27_81000
10
137.80501
20
154.20401
30
81.00000
0
VERTEX
8
27_81000
10
138.18201
20
156.73601
30
81.00000
0
VERTEX
8
27_81000
10
138.24501
20
157.08601
30
81.00000
0
VERTEX
8
27_81000
10
138.36000
20
158.18201
30
81.00000
0
VERTEX
8
27_81000
10
138.68901
20
159.22701
30
81.00000
0
VERTEX
8
27_81000
10
138.72601
20
159.47401
30
81.00000
0
VERTEX
8
27_81000
10
138.82701
20
159.89101
30
81.00000
0
VERTEX
8
27_81000
10
138.99200
20
160.72101
30
81.00000
0
VERTEX
8
27_81000
10
139.04901
20
161.62601
30
81.00000
0
VERTEX
8
27_81000
10
139.04800
20
161.69701
30
81.00000
0
VERTEX
8
27_81000
10
138.95001
20
162.64301
30
81.00000
0
VERTEX
8
27_81000
10
138.69701
20
164.61101
30
81.00000
0
VERTEX
8
27_81000
10
138.27501
20
166.65800
30
81.00000
0
VERTEX
8
27_81000
10
138.02701
20
167.96400
30
81.00000
0
VERTEX
8
27_81000
10
138.01500
20
168.14301
30
81.00000
0
VERTEX
8
27_81000
10
137.94801
20
168.51201
30
81.00000
0
VERTEX
8
27_81000
10
137.59300
20
169.95500
30
81.00000
0
VERTEX
8
27_81000
10
136.61601
20
172.75002
30
81.00000
0
VERTEX
8
27_81000
10
136.41000
20
173.17300
30
81.00000
0
VERTEX
8
27_81000
10
135.53300
20
175.38301
30
81.00000
0
VERTEX
8
27_81000
10
135.15501
20
176.18800
30
81.00000
0
VERTEX
8
27_81000
10
133.29001
20
179.52101
30
81.00000
0
VERTEX
8
27_81000
10
133.11401
20
179.79001
30
81.00000
0
VERTEX
8
27_81000
10
119.92700
20
179.78700
30
81.00000
0
SEQEND
8
27_81000
0
ENDSEC
0
EOF
