0
SECTION
2
HEADER
9
$ACADVER
1
AC1009
0
ENDSEC
0
SECTION
2
TABLES
0
TABLE
2
LAYER
70
1
0
LAYER
2
21_63000
70
0
62
7
6
CONTINUOUS
0
ENDTAB
0
ENDSEC
0
SECTION
2
BLOCKS
0
ENDSEC
0
SECTION
2
ENTITIES
0
POLYLINE
8
21_63000
62
5
0
VERTEX
8
21_63000
10
130.27400
20
182.79201
30
63.00000
0
VERTEX
8
21_63000
10
109.46800
20
182.79301
30
63.00000
0
VERTEX
8
21_63000
10
30.02200
20
181.81201
30
63.00000
0
VERTEX
8
21_63000
10
29.98200
20
181.82001
30
63.00000
0
VERTEX
8
21_63000
10
109.04900
20
182.79201
30
63.00000
0
VERTEX
8
21_63000
10
25.50400
20
182.79301
30
63.00000
0
VERTEX
8
21_63000
10
25.48400
20
181.98201
30
63.00000
0
VERTEX
8
21_63000
10
25.46300
20
181.71600
30
63.00000
0
VERTEX
8
21_63000
10
25.39600
20
180.36201
30
63.00000
0
VERTEX
8
21_63000
10
24.92300
20
175.72900
30
63.00000
0
VERTEX
8
21_63000
10
24.85900
20
175.19901
30
63.00000
0
VERTEX
8
21_63000
10
24.74300
20
173.81500
30
63.00000
0
VERTEX
8
21_63000
10
24.62400
20
170.61900
30
63.00000
0
VERTEX
8
21_63000
10
24.59700
20
168.19601
30
63.00000
0
VERTEX
8
21_63000
10
24.84900
20
164.83601
30
63.00000
0
VERTEX
8
21_63000
10
24.91700
20
164.44101
30
63.00000
0
VERTEX
8
21_63000
10
24.99600
20
163.74501
30
63.00000
0
VERTEX
8
21_63000
10
25.27000
20
161.86101
30
63.00000
0
VERTEX
8
21_63000
10
25.71700
20
159.22301
30
63.00000
0
VERTEX
8
21_63000
10
25.90000
20
158.27101
30
63.00000
0
VERTEX
8
21_63000
10
25.92000
20
158.24001
30
63.00000
0
VERTEX
8
21_63000
10
25.95000
20
158.08501
30
63.00000
0
VERTEX
8
21_63000
10
26.10500
20
157.20100
30
63.00000
0
VERTEX
8
21_63000
10
26.74200
20
153.92001
30
63.00000
0
VERTEX
8
21_63000
10
26.96600
20
152.57001
30
63.00000
0
VERTEX
8
21_63000
10
27.35900
20
150.84300
30
63.00000
0
VERTEX
8
21_63000
10
27.86200
20
147.94000
30
63.00000
0
VERTEX
8
21_63000
10
28.09800
20
145.73601
30
63.00000
0
VERTEX
8
21_63000
10
28.16000
20
145.08701
30
63.00000
0
VERTEX
8
21_63000
10
28.37900
20
143.22000
30
63.00000
0
VERTEX
8
21_63000
10
28.45600
20
142.72601
30
63.00000
0
VERTEX
8
21_63000
10
28.49900
20
142.22301
30
63.00000
0
VERTEX
8
21_63000
10
28.49600
20
141.90401
30
63.00000
0
VERTEX
8
21_63000
10
28.54600
20
140.46301
30
63.00000
0
VERTEX
8
21_63000
10
28.44300
20
138.70300
30
63.00000
0
VERTEX
8
21_63000
10
28.33200
20
137.58501
30
63.00000
0
VERTEX
8
21_63000
10
27.74600
20
133.84700
30
63.00000
0
VERTEX
8
21_63000
10
27.72300
20
133.77200
30
63.00000
0
VERTEX
8
21_63000
10
27.21900
20
131.32901
30
63.00000
0
VERTEX
8
21_63000
10
26.71700
20
129.44200
30
63.00000
0
VERTEX
8
21_63000
10
26.58200
20
128.82901
30
63.00000
0
VERTEX
8
21_63000
10
26.36100
20
127.72900
30
63.00000
0
VERTEX
8
21_63000
10
25.76400
20
125.46600
30
63.00000
0
VERTEX
8
21_63000
10
25.57100
20
124.54501
30
63.00000
0
VERTEX
8
21_63000
10
25.43900
20
124.03201
30
63.00000
0
VERTEX
8
21_63000
10
24.36700
20
119.05701
30
63.00000
0
VERTEX
8
21_63000
10
23.42000
20
113.77200
30
63.00000
0
VERTEX
8
21_63000
10
23.28300
20
112.94401
30
63.00000
0
VERTEX
8
21_63000
10
21.99500
20
105.75900
30
63.00000
0
VERTEX
8
21_63000
10
21.71200
20
104.36301
30
63.00000
0
VERTEX
8
21_63000
10
21.27500
20
101.95701
30
63.00000
0
VERTEX
8
21_63000
10
21.15800
20
100.83501
30
63.00000
0
VERTEX
8
21_63000
10
20.71100
20
97.26100
30
63.00000
0
VERTEX
8
21_63000
10
20.53200
20
94.40000
30
63.00000
0
VERTEX
8
21_63000
10
20.49700
20
93.63100
30
63.00000
0
VERTEX
8
21_63000
10
20.40300
20
88.89400
30
63.00000
0
VERTEX
8
21_63000
10
20.41300
20
88.67500
30
63.00000
0
VERTEX
8
21_63000
10
20.39400
20
87.66801
30
63.00000
0
VERTEX
8
21_63000
10
20.36700
20
87.14500
30
63.00000
0
VERTEX
8
21_63000
10
20.41300
20
86.04000
30
63.00000
0
VERTEX
8
21_63000
10
20.47400
20
85.85300
30
63.00000
0
VERTEX
8
21_63000
10
20.56300
20
83.69901
30
63.00000
0
VERTEX
8
21_63000
10
20.72300
20
82.64001
30
63.00000
0
VERTEX
8
21_63000
10
20.73100
20
82.19000
30
63.00000
0
VERTEX
8
21_63000
10
20.81400
20
80.14900
30
63.00000
0
VERTEX
8
21_63000
10
20.85400
20
79.93000
30
63.00000
0
VERTEX
8
21_63000
10
21.22200
20
77.22200
30
63.00000
0
VERTEX
8
21_63000
10
21.28200
20
76.64700
30
63.00000
0
VERTEX
8
21_63000
10
21.31600
20
76.11100
30
63.00000
0
VERTEX
8
21_63000
10
21.31400
20
75.99100
30
63.00000
0
VERTEX
8
21_63000
10
21.37900
20
75.37400
30
63.00000
0
VERTEX
8
21_63000
10
21.35600
20
74.87601
30
63.00000
0
VERTEX
8
21_63000
10
21.46300
20
72.52200
30
63.00000
0
VERTEX
8
21_63000
10
21.46200
20
72.19300
30
63.00000
0
VERTEX
8
21_63000
10
21.52300
20
71.96900
30
63.00000
0
VERTEX
8
21_63000
10
21.61100
20
71.58100
30
63.00000
0
VERTEX
8
21_63000
10
21.75300
20
71.13100
30
63.00000
0
VERTEX
8
21_63000
10
21.81900
20
70.47900
30
63.00000
0
VERTEX
8
21_63000
10
21.83700
20
70.36000
30
63.00000
0
VERTEX
8
21_63000
10
21.84200
20
70.21800
30
63.00000
0
VERTEX
8
21_63000
10
21.96300
20
69.57201
30
63.00000
0
VERTEX
8
21_63000
10
21.99200
20
69.32700
30
63.00000
0
VERTEX
8
21_63000
10
22.08000
20
68.15501
30
63.00000
0
VERTEX
8
21_63000
10
22.10600
20
67.95900
30
63.00000
0
VERTEX
8
21_63000
10
22.34900
20
66.82900
30
63.00000
0
VERTEX
8
21_63000
10
22.35800
20
66.38500
30
63.00000
0
VERTEX
8
21_63000
10
22.43900
20
64.01200
30
63.00000
0
VERTEX
8
21_63000
10
22.47800
20
63.77600
30
63.00000
0
VERTEX
8
21_63000
10
22.61900
20
63.23200
30
63.00000
0
VERTEX
8
21_63000
10
22.79500
20
62.17300
30
63.00000
0
VERTEX
8
21_63000
10
23.44700
20
58.89500
30
63.00000
0
VERTEX
8
21_63000
10
23.45800
20
58.61900
30
63.00000
0
VERTEX
8
21_63000
10
23.53200
20
57.98300
30
63.00000
0
VERTEX
8
21_63000
10
23.61200
20
57.40800
30
63.00000
0
VERTEX
8
21_63000
10
23.87400
20
56.19400
30
63.00000
0
VERTEX
8
21_63000
10
23.91000
20
55.88400
30
63.00000
0
VERTEX
8
21_63000
10
24.20000
20
54.41800
30
63.00000
0
VERTEX
8
21_63000
10
24.43500
20
52.65500
30
63.00000
0
VERTEX
8
21_63000
10
24.79200
20
50.72200
30
63.00000
0
VERTEX
8
21_63000
10
24.99500
20
49.36500
30
63.00000
0
VERTEX
8
21_63000
10
25.00000
20
49.28600
30
63.00000
0
VERTEX
8
21_63000
10
25.17800
20
48.03500
30
63.00000
0
VERTEX
8
21_63000
10
25.17700
20
45.65400
30
63.00000
0
VERTEX
8
21_63000
10
25.08200
20
44.72700
30
63.00000
0
VERTEX
8
21_63000
10
25.05600
20
44.66500
30
63.00000
0
VERTEX
8
21_63000
10
25.04200
20
44.49900
30
63.00000
0
VERTEX
8
21_63000
10
25.04000
20
43.88700
30
63.00000
0
VERTEX
8
21_63000
10
25.01200
20
43.74900
30
63.00000
0
VERTEX
8
21_63000
10
25.06100
20
43.21600
30
63.00000
0
VERTEX
8
21_63000
10
24.96800
20
42.57700
30
63.00000
0
VERTEX
8
21_63000
10
25.01500
20
41.87900
30
63.00000
0
VERTEX
8
21_63000
10
24.98100
20
41.23100
30
63.00000
0
VERTEX
8
21_63000
10
24.95800
20
41.10000
30
63.00000
0
VERTEX
8
21_63000
10
24.46900
20
39.82100
30
63.00000
0
VERTEX
8
21_63000
10
24.28600
20
39.18500
30
63.00000
0
VERTEX
8
21_63000
10
24.23400
20
38.95600
30
63.00000
0
VERTEX
8
21_63000
10
23.99800
20
38.43600
30
63.00000
0
VERTEX
8
21_63000
10
23.87800
20
38.07200
30
63.00000
0
VERTEX
8
21_63000
10
23.69300
20
37.72900
30
63.00000
0
VERTEX
8
21_63000
10
23.60800
20
37.49800
30
63.00000
0
VERTEX
8
21_63000
10
23.53000
20
37.33700
30
63.00000
0
VERTEX
8
21_63000
10
23.30600
20
36.69600
30
63.00000
0
VERTEX
8
21_63000
10
23.11700
20
36.26400
30
63.00000
0
VERTEX
8
21_63000
10
22.96800
20
35.75400
30
63.00000
0
VERTEX
8
21_63000
10
22.62000
20
34.72300
30
63.00000
0
VERTEX
8
21_63000
10
22.34000
20
33.70400
30
63.00000
0
VERTEX
8
21_63000
10
21.98500
20
33.22300
30
63.00000
0
VERTEX
8
21_63000
10
21.84300
20
33.11500
30
63.00000
0
VERTEX
8
21_63000
10
21.74100
20
33.10000
30
63.00000
0
VERTEX
8
21_63000
10
20.56200
20
32.80400
30
63.00000
0
VERTEX
8
21_63000
10
20.38100
20
32.80400
30
63.00000
0
VERTEX
8
21_63000
10
19.38400
20
32.68700
30
63.00000
0
VERTEX
8
21_63000
10
18.52700
20
32.64200
30
63.00000
0
VERTEX
8
21_63000
10
17.89800
20
32.59500
30
63.00000
0
VERTEX
8
21_63000
10
16.18400
20
32.49500
30
63.00000
0
VERTEX
8
21_63000
10
15.89400
20
32.49700
30
63.00000
0
VERTEX
8
21_63000
10
15.60600
20
32.48800
30
63.00000
0
VERTEX
8
21_63000
10
14.53900
20
32.39200
30
63.00000
0
VERTEX
8
21_63000
10
11.80000
20
32.42200
30
63.00000
0
VERTEX
8
21_63000
10
11.37600
20
32.44300
30
63.00000
0
VERTEX
8
21_63000
10
10.62900
20
32.50800
30
63.00000
0
VERTEX
8
21_63000
10
10.55300
20
32.53100
30
63.00000
0
VERTEX
8
21_63000
10
10.18000
20
32.59300
30
63.00000
0
VERTEX
8
21_63000
10
10.11100
20
32.58900
30
63.00000
0
VERTEX
8
21_63000
10
10.95400
20
26.12500
30
63.00000
0
VERTEX
8
21_63000
10
11.06000
20
25.29800
30
63.00000
0
VERTEX
8
21_63000
10
11.13400
20
24.64400
30
63.00000
0
VERTEX
8
21_63000
10
11.19600
20
24.22900
30
63.00000
0
VERTEX
8
21_63000
10
11.62500
20
20.77400
30
63.00000
0
VERTEX
8
21_63000
10
11.78200
20
19.44200
30
63.00000
0
VERTEX
8
21_63000
10
11.98400
20
17.90400
30
63.00000
0
VERTEX
8
21_63000
10
12.06800
20
17.16100
30
63.00000
0
VERTEX
8
21_63000
10
12.26800
20
15.61000
30
63.00000
0
VERTEX
8
21_63000
10
12.60700
20
12.87200
30
63.00000
0
VERTEX
8
21_63000
10
13.22900
20
7.67200
30
63.00000
0
VERTEX
8
21_63000
10
13.51100
20
5.21500
30
63.00000
0
VERTEX
8
21_63000
10
13.59200
20
4.43800
30
63.00000
0
VERTEX
8
21_63000
10
13.98800
20
1.01000
30
63.00000
0
VERTEX
8
21_63000
10
14.09200
20
0.00600
30
63.00000
0
VERTEX
8
21_63000
10
121.70601
20
0.00600
30
63.00000
0
VERTEX
8
21_63000
10
121.66300
20
0.07800
30
63.00000
0
VERTEX
8
21_63000
10
120.24001
20
3.70200
30
63.00000
0
VERTEX
8
21_63000
10
119.83900
20
5.53700
30
63.00000
0
VERTEX
8
21_63000
10
119.85201
20
5.57400
30
63.00000
0
VERTEX
8
21_63000
10
120.12000
20
6.03600
30
63.00000
0
VERTEX
8
21_63000
10
120.22601
20
6.19200
30
63.00000
0
VERTEX
8
21_63000
10
121.13000
20
7.30700
30
63.00000
0
VERTEX
8
21_63000
10
121.18900
20
7.43400
30
63.00000
0
VERTEX
8
21_63000
10
121.32900
20
7.64000
30
63.00000
0
VERTEX
8
21_63000
10
121.72601
20
8.16200
30
63.00000
0
VERTEX
8
21_63000
10
122.33601
20
9.08900
30
63.00000
0
VERTEX
8
21_63000
10
122.98601
20
9.93200
30
63.00000
0
VERTEX
8
21_63000
10
123.14700
20
10.15400
30
63.00000
0
VERTEX
8
21_63000
10
123.69701
20
10.99100
30
63.00000
0
VERTEX
8
21_63000
10
123.97501
20
11.36900
30
63.00000
0
VERTEX
8
21_63000
10
124.83001
20
12.70800
30
63.00000
0
VERTEX
8
21_63000
10
126.19601
20
14.96400
30
63.00000
0
VERTEX
8
21_63000
10
126.51701
20
15.59700
30
63.00000
0
VERTEX
8
21_63000
10
126.93301
20
16.33100
30
63.00000
0
VERTEX
8
21_63000
10
127.16701
20
16.71200
30
63.00000
0
VERTEX
8
21_63000
10
127.31001
20
16.97200
30
63.00000
0
VERTEX
8
21_63000
10
128.25000
20
18.81200
30
63.00000
0
VERTEX
8
21_63000
10
128.28300
20
18.94300
30
63.00000
0
VERTEX
8
21_63000
10
128.33900
20
19.04900
30
63.00000
0
VERTEX
8
21_63000
10
128.49800
20
19.90900
30
63.00000
0
VERTEX
8
21_63000
10
128.57301
20
20.67900
30
63.00000
0
VERTEX
8
21_63000
10
128.58900
20
20.92200
30
63.00000
0
VERTEX
8
21_63000
10
128.67101
20
21.25700
30
63.00000
0
VERTEX
8
21_63000
10
128.71501
20
21.75800
30
63.00000
0
VERTEX
8
21_63000
10
128.73700
20
21.89800
30
63.00000
0
VERTEX
8
21_63000
10
128.75801
20
22.68500
30
63.00000
0
VERTEX
8
21_63000
10
128.80400
20
23.16500
30
63.00000
0
VERTEX
8
21_63000
10
128.80000
20
23.47100
30
63.00000
0
VERTEX
8
21_63000
10
128.83801
20
23.60400
30
63.00000
0
VERTEX
8
21_63000
10
128.80800
20
23.91400
30
63.00000
0
VERTEX
8
21_63000
10
128.90201
20
24.38200
30
63.00000
0
VERTEX
8
21_63000
10
129.03601
20
24.96200
30
63.00000
0
VERTEX
8
21_63000
10
129.03201
20
25.15800
30
63.00000
0
VERTEX
8
21_63000
10
129.08801
20
26.51700
30
63.00000
0
VERTEX
8
21_63000
10
129.28101
20
28.54500
30
63.00000
0
VERTEX
8
21_63000
10
129.31201
20
28.80900
30
63.00000
0
VERTEX
8
21_63000
10
129.35901
20
28.91500
30
63.00000
0
VERTEX
8
21_63000
10
129.68800
20
29.34000
30
63.00000
0
VERTEX
8
21_63000
10
129.83501
20
30.04700
30
63.00000
0
VERTEX
8
21_63000
10
130.10800
20
30.73900
30
63.00000
0
VERTEX
8
21_63000
10
130.13000
20
30.86500
30
63.00000
0
VERTEX
8
21_63000
10
130.16901
20
30.90500
30
63.00000
0
VERTEX
8
21_63000
10
130.48201
20
31.50500
30
63.00000
0
VERTEX
8
21_63000
10
130.51901
20
31.61400
30
63.00000
0
VERTEX
8
21_63000
10
130.56201
20
31.62200
30
63.00000
0
VERTEX
8
21_63000
10
130.69600
20
31.82900
30
63.00000
0
VERTEX
8
21_63000
10
130.85501
20
32.36700
30
63.00000
0
VERTEX
8
21_63000
10
131.21001
20
32.99700
30
63.00000
0
VERTEX
8
21_63000
10
131.27800
20
33.17700
30
63.00000
0
VERTEX
8
21_63000
10
131.33900
20
33.24000
30
63.00000
0
VERTEX
8
21_63000
10
131.51500
20
33.63500
30
63.00000
0
VERTEX
8
21_63000
10
131.81401
20
34.18800
30
63.00000
0
VERTEX
8
21_63000
10
132.24301
20
34.75000
30
63.00000
0
VERTEX
8
21_63000
10
132.26801
20
34.76800
30
63.00000
0
VERTEX
8
21_63000
10
132.50000
20
35.01300
30
63.00000
0
VERTEX
8
21_63000
10
132.92500
20
35.44100
30
63.00000
0
VERTEX
8
21_63000
10
132.98001
20
35.50600
30
63.00000
0
VERTEX
8
21_63000
10
133.09700
20
35.74600
30
63.00000
0
VERTEX
8
21_63000
10
133.14401
20
35.81400
30
63.00000
0
VERTEX
8
21_63000
10
133.43901
20
36.52000
30
63.00000
0
VERTEX
8
21_63000
10
133.61601
20
36.74000
30
63.00000
0
VERTEX
8
21_63000
10
134.17401
20
37.50300
30
63.00000
0
VERTEX
8
21_63000
10
134.41200
20
38.12200
30
63.00000
0
VERTEX
8
21_63000
10
134.61101
20
38.47800
30
63.00000
0
VERTEX
8
21_63000
10
135.39101
20
40.35300
30
63.00000
0
VERTEX
8
21_63000
10
135.54800
20
40.75600
30
63.00000
0
VERTEX
8
21_63000
10
135.59300
20
40.89600
30
63.00000
0
VERTEX
8
21_63000
10
135.88901
20
41.45300
30
63.00000
0
VERTEX
8
21_63000
10
136.35501
20
42.49900
30
63.00000
0
VERTEX
8
21_63000
10
136.61700
20
42.92400
30
63.00000
0
VERTEX
8
21_63000
10
137.03001
20
43.45000
30
63.00000
0
VERTEX
8
21_63000
10
137.55701
20
44.14400
30
63.00000
0
VERTEX
8
21_63000
10
138.14000
20
45.15200
30
63.00000
0
VERTEX
8
21_63000
10
138.41200
20
45.67100
30
63.00000
0
VERTEX
8
21_63000
10
138.88000
20
46.76700
30
63.00000
0
VERTEX
8
21_63000
10
139.21901
20
47.49200
30
63.00000
0
VERTEX
8
21_63000
10
139.32800
20
47.85000
30
63.00000
0
VERTEX
8
21_63000
10
139.48100
20
48.26000
30
63.00000
0
VERTEX
8
21_63000
10
139.59801
20
48.93900
30
63.00000
0
VERTEX
8
21_63000
10
139.64000
20
49.06000
30
63.00000
0
VERTEX
8
21_63000
10
139.88501
20
49.53900
30
63.00000
0
VERTEX
8
21_63000
10
140.07701
20
49.98300
30
63.00000
0
VERTEX
8
21_63000
10
140.42201
20
50.67000
30
63.00000
0
VERTEX
8
21_63000
10
141.65401
20
52.93100
30
63.00000
0
VERTEX
8
21_63000
10
141.92500
20
53.97800
30
63.00000
0
VERTEX
8
21_63000
10
142.04601
20
54.40500
30
63.00000
0
VERTEX
8
21_63000
10
142.36900
20
55.35200
30
63.00000
0
VERTEX
8
21_63000
10
142.39101
20
55.58800
30
63.00000
0
VERTEX
8
21_63000
10
142.67101
20
56.73500
30
63.00000
0
VERTEX
8
21_63000
10
142.85600
20
57.24300
30
63.00000
0
VERTEX
8
21_63000
10
142.88400
20
57.36600
30
63.00000
0
VERTEX
8
21_63000
10
143.49800
20
58.89900
30
63.00000
0
VERTEX
8
21_63000
10
143.54401
20
59.05600
30
63.00000
0
VERTEX
8
21_63000
10
143.59700
20
59.19400
30
63.00000
0
VERTEX
8
21_63000
10
143.62701
20
59.35700
30
63.00000
0
VERTEX
8
21_63000
10
143.92001
20
60.58900
30
63.00000
0
VERTEX
8
21_63000
10
143.99400
20
60.75900
30
63.00000
0
VERTEX
8
21_63000
10
144.10901
20
61.21800
30
63.00000
0
VERTEX
8
21_63000
10
144.17700
20
61.71300
30
63.00000
0
VERTEX
8
21_63000
10
144.37901
20
62.36100
30
63.00000
0
VERTEX
8
21_63000
10
144.54201
20
62.83700
30
63.00000
0
VERTEX
8
21_63000
10
144.93901
20
63.61200
30
63.00000
0
VERTEX
8
21_63000
10
145.62901
20
65.40400
30
63.00000
0
VERTEX
8
21_63000
10
145.87901
20
66.00000
30
63.00000
0
VERTEX
8
21_63000
10
145.94501
20
66.20500
30
63.00000
0
VERTEX
8
21_63000
10
145.98901
20
66.54900
30
63.00000
0
VERTEX
8
21_63000
10
146.11301
20
66.96001
30
63.00000
0
VERTEX
8
21_63000
10
146.20700
20
67.40000
30
63.00000
0
VERTEX
8
21_63000
10
146.28300
20
67.61100
30
63.00000
0
VERTEX
8
21_63000
10
146.27600
20
67.87200
30
63.00000
0
VERTEX
8
21_63000
10
146.38400
20
68.31900
30
63.00000
0
VERTEX
8
21_63000
10
146.46901
20
68.76000
30
63.00000
0
VERTEX
8
21_63000
10
146.65401
20
69.61600
30
63.00000
0
VERTEX
8
21_63000
10
146.66000
20
70.06900
30
63.00000
0
VERTEX
8
21_63000
10
146.74901
20
70.59700
30
63.00000
0
VERTEX
8
21_63000
10
146.75601
20
71.27800
30
63.00000
0
VERTEX
8
21_63000
10
146.90401
20
71.81900
30
63.00000
0
VERTEX
8
21_63000
10
146.95201
20
72.19400
30
63.00000
0
VERTEX
8
21_63000
10
147.08101
20
72.56700
30
63.00000
0
VERTEX
8
21_63000
10
147.10301
20
72.77000
30
63.00000
0
VERTEX
8
21_63000
10
147.46901
20
73.33000
30
63.00000
0
VERTEX
8
21_63000
10
147.86101
20
74.25101
30
63.00000
0
VERTEX
8
21_63000
10
148.24200
20
75.11501
30
63.00000
0
VERTEX
8
21_63000
10
148.34601
20
75.43600
30
63.00000
0
VERTEX
8
21_63000
10
148.53201
20
75.96301
30
63.00000
0
VERTEX
8
21_63000
10
148.71101
20
76.80601
30
63.00000
0
VERTEX
8
21_63000
10
149.03201
20
78.88700
30
63.00000
0
VERTEX
8
21_63000
10
149.03401
20
78.96301
30
63.00000
0
VERTEX
8
21_63000
10
149.05600
20
79.05200
30
63.00000
0
VERTEX
8
21_63000
10
149.14900
20
79.86700
30
63.00000
0
VERTEX
8
21_63000
10
149.40100
20
81.20500
30
63.00000
0
VERTEX
8
21_63000
10
149.45700
20
81.55200
30
63.00000
0
VERTEX
8
21_63000
10
149.64500
20
82.46500
30
63.00000
0
VERTEX
8
21_63000
10
149.72801
20
82.57401
30
63.00000
0
VERTEX
8
21_63000
10
149.75900
20
82.65100
30
63.00000
0
VERTEX
8
21_63000
10
150.10800
20
84.13400
30
63.00000
0
VERTEX
8
21_63000
10
150.11200
20
84.30300
30
63.00000
0
VERTEX
8
21_63000
10
150.25401
20
85.21700
30
63.00000
0
VERTEX
8
21_63000
10
150.37001
20
86.78900
30
63.00000
0
VERTEX
8
21_63000
10
150.40100
20
86.93900
30
63.00000
0
VERTEX
8
21_63000
10
150.46800
20
88.16100
30
63.00000
0
VERTEX
8
21_63000
10
150.55600
20
88.95600
30
63.00000
0
VERTEX
8
21_63000
10
150.56801
20
89.28300
30
63.00000
0
VERTEX
8
21_63000
10
150.63101
20
90.22000
30
63.00000
0
VERTEX
8
21_63000
10
150.68600
20
90.81200
30
63.00000
0
VERTEX
8
21_63000
10
150.84201
20
92.15601
30
63.00000
0
VERTEX
8
21_63000
10
151.15701
20
96.01601
30
63.00000
0
VERTEX
8
21_63000
10
151.19701
20
97.99200
30
63.00000
0
VERTEX
8
21_63000
10
151.17001
20
105.53800
30
63.00000
0
VERTEX
8
21_63000
10
151.18501
20
106.07500
30
63.00000
0
VERTEX
8
21_63000
10
151.14101
20
107.14001
30
63.00000
0
VERTEX
8
21_63000
10
151.14101
20
107.77100
30
63.00000
0
VERTEX
8
21_63000
10
151.14900
20
108.93900
30
63.00000
0
VERTEX
8
21_63000
10
151.26001
20
115.34400
30
63.00000
0
VERTEX
8
21_63000
10
151.27400
20
115.65401
30
63.00000
0
VERTEX
8
21_63000
10
151.18100
20
119.47800
30
63.00000
0
VERTEX
8
21_63000
10
151.11401
20
120.47601
30
63.00000
0
VERTEX
8
21_63000
10
151.07600
20
121.32401
30
63.00000
0
VERTEX
8
21_63000
10
150.69501
20
123.82301
30
63.00000
0
VERTEX
8
21_63000
10
150.60301
20
124.51900
30
63.00000
0
VERTEX
8
21_63000
10
150.49600
20
125.24200
30
63.00000
0
VERTEX
8
21_63000
10
150.16101
20
127.33001
30
63.00000
0
VERTEX
8
21_63000
10
149.91600
20
128.33000
30
63.00000
0
VERTEX
8
21_63000
10
149.63400
20
129.99600
30
63.00000
0
VERTEX
8
21_63000
10
149.51001
20
130.59401
30
63.00000
0
VERTEX
8
21_63000
10
149.46600
20
130.92900
30
63.00000
0
VERTEX
8
21_63000
10
149.09500
20
133.25601
30
63.00000
0
VERTEX
8
21_63000
10
149.03300
20
134.11401
30
63.00000
0
VERTEX
8
21_63000
10
148.76801
20
137.03101
30
63.00000
0
VERTEX
8
21_63000
10
148.77400
20
137.59201
30
63.00000
0
VERTEX
8
21_63000
10
148.80200
20
137.84201
30
63.00000
0
VERTEX
8
21_63000
10
148.81001
20
138.19501
30
63.00000
0
VERTEX
8
21_63000
10
148.95700
20
140.22101
30
63.00000
0
VERTEX
8
21_63000
10
149.02501
20
141.87801
30
63.00000
0
VERTEX
8
21_63000
10
149.25900
20
143.93401
30
63.00000
0
VERTEX
8
21_63000
10
149.31900
20
144.23500
30
63.00000
0
VERTEX
8
21_63000
10
149.45401
20
145.11000
30
63.00000
0
VERTEX
8
21_63000
10
149.72200
20
147.83701
30
63.00000
0
VERTEX
8
21_63000
10
150.10501
20
150.27901
30
63.00000
0
VERTEX
8
21_63000
10
150.38901
20
152.62901
30
63.00000
0
VERTEX
8
21_63000
10
150.52400
20
153.65201
30
63.00000
0
VERTEX
8
21_63000
10
150.60501
20
154.52701
30
63.00000
0
VERTEX
8
21_63000
10
150.65501
20
154.89700
30
63.00000
0
VERTEX
8
21_63000
10
150.66600
20
155.15100
30
63.00000
0
VERTEX
8
21_63000
10
150.77800
20
156.52400
30
63.00000
0
VERTEX
8
21_63000
10
151.00500
20
158.64301
30
63.00000
0
VERTEX
8
21_63000
10
151.20900
20
160.97000
30
63.00000
0
VERTEX
8
21_63000
10
151.28201
20
162.24701
30
63.00000
0
VERTEX
8
21_63000
10
151.32201
20
163.29701
30
63.00000
0
VERTEX
8
21_63000
10
151.38301
20
164.01300
30
63.00000
0
VERTEX
8
21_63000
10
151.47501
20
164.65601
30
63.00000
0
VERTEX
8
21_63000
10
151.53401
20
166.24001
30
63.00000
0
VERTEX
8
21_63000
10
151.57401
20
166.64001
30
63.00000
0
VERTEX
8
21_63000
10
151.57600
20
167.10600
30
63.00000
0
VERTEX
8
21_63000
10
151.64401
20
169.01401
30
63.00000
0
VERTEX
8
21_63000
10
151.63501
20
169.40100
30
63.00000
0
VERTEX
8
21_63000
10
151.59901
20
169.65800
30
63.00000
0
VERTEX
8
21_63000
10
151.63101
20
170.25700
30
63.00000
0
VERTEX
8
21_63000
10
151.61201
20
171.02101
30
63.00000
0
VERTEX
8
21_63000
10
151.52600
20
171.36700
30
63.00000
0
VERTEX
8
21_63000
10
151.48901
20
172.12701
30
63.00000
0
VERTEX
8
21_63000
10
151.46701
20
172.90001
30
63.00000
0
VERTEX
8
21_63000
10
151.30101
20
174.95901
30
63.00000
0
VERTEX
8
21_63000
10
151.27200
20
176.06100
30
63.00000
0
VERTEX
8
21_63000
10
151.27501
20
176.46201
30
63.00000
0
VERTEX
8
21_63000
10
151.09901
20
177.69501
30
63.00000
0
VERTEX
8
21_63000
10
151.04401
20
178.01302
30
63.00000
0
VERTEX
8
21_63000
10
151.06100
20
178.28300
30
63.00000
0
VERTEX
8
21_63000
10
150.98901
20
178.70702
30
63.00000
0
VERTEX
8
21_63000
10
150.90201
20
179.77400
30
63.00000
0
VERTEX
8
21_63000
10
150.90001
20
180.11201
30
63.00000
0
VERTEX
8
21_63000
10
150.74501
20
181.07901
30
63.00000
0
VERTEX
8
21_63000
10
150.63400
20
182.32401
30
63.00000
0
VERTEX
8
21_63000
10
150.54301
20
182.79401
30
63.00000
0
VERTEX
8
21_63000
10
136.24400
20
182.79301
30
63.00000
0
VERTEX
8
21_63000
10
39.88800
20
180.02600
30
63.00000
0
VERTEX
8
21_63000
10
136.24101
20
182.79301
30
63.00000
0
VERTEX
8
21_63000
10
130.27400
20
182.79201
30
63.00000
0
SEQEND
8
21_63000
0
ENDSEC
0
EOF
