0
SECTION
2
HEADER
9
$ACADVER
1
AC1009
0
ENDSEC
0
SECTION
2
TABLES
0
TABLE
2
LAYER
70
1
0
LAYER
2
29_87000
70
0
62
7
6
CONTINUOUS
0
ENDTAB
0
ENDSEC
0
SECTION
2
BLOCKS
0
ENDSEC
0
SECTION
2
ENTITIES
0
POLYLINE
8
29_87000
62
5
0
VERTEX
8
29_87000
10
14.01000
20
0.78500
30
87.00000
0
VERTEX
8
29_87000
10
14.09200
20
0.00600
30
87.00000
0
VERTEX
8
29_87000
10
19.52800
20
0.00600
30
87.00000
0
VERTEX
8
29_87000
10
18.36500
20
0.29400
30
87.00000
0
VERTEX
8
29_87000
10
16.77500
20
0.65900
30
87.00000
0
VERTEX
8
29_87000
10
15.20200
20
0.98800
30
87.00000
0
VERTEX
8
29_87000
10
14.38400
20
1.17500
30
87.00000
0
VERTEX
8
29_87000
10
13.96100
20
1.25400
30
87.00000
0
VERTEX
8
29_87000
10
14.01000
20
0.78500
30
87.00000
0
SEQEND
8
29_87000
0
POLYLINE
8
29_87000
62
5
0
VERTEX
8
29_87000
10
101.77801
20
178.78700
30
87.00000
0
VERTEX
8
29_87000
10
51.66100
20
178.78401
30
87.00000
0
VERTEX
8
29_87000
10
50.65200
20
177.44901
30
87.00000
0
VERTEX
8
29_87000
10
49.90000
20
176.68800
30
87.00000
0
VERTEX
8
29_87000
10
49.72600
20
176.47401
30
87.00000
0
VERTEX
8
29_87000
10
47.89600
20
174.12901
30
87.00000
0
VERTEX
8
29_87000
10
45.93500
20
172.03201
30
87.00000
0
VERTEX
8
29_87000
10
44.96700
20
170.93901
30
87.00000
0
VERTEX
8
29_87000
10
44.48700
20
170.31401
30
87.00000
0
VERTEX
8
29_87000
10
43.85300
20
168.96701
30
87.00000
0
VERTEX
8
29_87000
10
43.35300
20
167.60201
30
87.00000
0
VERTEX
8
29_87000
10
43.28600
20
167.38901
30
87.00000
0
VERTEX
8
29_87000
10
43.22900
20
167.30101
30
87.00000
0
VERTEX
8
29_87000
10
43.06400
20
166.42801
30
87.00000
0
VERTEX
8
29_87000
10
42.98000
20
166.21701
30
87.00000
0
VERTEX
8
29_87000
10
42.91200
20
166.00801
30
87.00000
0
VERTEX
8
29_87000
10
42.97900
20
165.37001
30
87.00000
0
VERTEX
8
29_87000
10
43.04000
20
164.90501
30
87.00000
0
VERTEX
8
29_87000
10
43.16000
20
162.98201
30
87.00000
0
VERTEX
8
29_87000
10
43.23100
20
162.59300
30
87.00000
0
VERTEX
8
29_87000
10
43.48400
20
161.66301
30
87.00000
0
VERTEX
8
29_87000
10
43.54300
20
159.94400
30
87.00000
0
VERTEX
8
29_87000
10
43.72600
20
156.93901
30
87.00000
0
VERTEX
8
29_87000
10
43.81100
20
156.15800
30
87.00000
0
VERTEX
8
29_87000
10
43.80100
20
155.88200
30
87.00000
0
VERTEX
8
29_87000
10
43.97300
20
154.88000
30
87.00000
0
VERTEX
8
29_87000
10
44.21800
20
154.08801
30
87.00000
0
VERTEX
8
29_87000
10
44.29800
20
153.89601
30
87.00000
0
VERTEX
8
29_87000
10
44.65100
20
153.42500
30
87.00000
0
VERTEX
8
29_87000
10
44.85700
20
153.18201
30
87.00000
0
VERTEX
8
29_87000
10
45.24700
20
152.93701
30
87.00000
0
VERTEX
8
29_87000
10
45.52300
20
152.72900
30
87.00000
0
VERTEX
8
29_87000
10
46.23900
20
151.26401
30
87.00000
0
VERTEX
8
29_87000
10
46.28000
20
151.20300
30
87.00000
0
VERTEX
8
29_87000
10
46.33500
20
151.04301
30
87.00000
0
VERTEX
8
29_87000
10
46.54600
20
150.86900
30
87.00000
0
VERTEX
8
29_87000
10
46.78900
20
150.71400
30
87.00000
0
VERTEX
8
29_87000
10
46.87000
20
150.63101
30
87.00000
0
VERTEX
8
29_87000
10
47.23300
20
150.54401
30
87.00000
0
VERTEX
8
29_87000
10
47.47100
20
150.45001
30
87.00000
0
VERTEX
8
29_87000
10
48.04800
20
150.29100
30
87.00000
0
VERTEX
8
29_87000
10
49.14700
20
150.07501
30
87.00000
0
VERTEX
8
29_87000
10
49.24500
20
150.03201
30
87.00000
0
VERTEX
8
29_87000
10
49.41300
20
149.98801
30
87.00000
0
VERTEX
8
29_87000
10
50.54200
20
149.74501
30
87.00000
0
VERTEX
8
29_87000
10
51.34800
20
149.35101
30
87.00000
0
VERTEX
8
29_87000
10
51.52000
20
149.33701
30
87.00000
0
VERTEX
8
29_87000
10
52.70800
20
149.18800
30
87.00000
0
VERTEX
8
29_87000
10
52.90000
20
149.20201
30
87.00000
0
VERTEX
8
29_87000
10
53.17800
20
149.05301
30
87.00000
0
VERTEX
8
29_87000
10
53.26400
20
148.99301
30
87.00000
0
VERTEX
8
29_87000
10
53.40600
20
148.99301
30
87.00000
0
VERTEX
8
29_87000
10
53.56500
20
149.24101
30
87.00000
0
VERTEX
8
29_87000
10
53.74800
20
149.33601
30
87.00000
0
VERTEX
8
29_87000
10
54.20400
20
149.36700
30
87.00000
0
VERTEX
8
29_87000
10
54.77800
20
149.11801
30
87.00000
0
VERTEX
8
29_87000
10
54.83500
20
149.11200
30
87.00000
0
VERTEX
8
29_87000
10
55.11900
20
148.70201
30
87.00000
0
VERTEX
8
29_87000
10
55.29100
20
148.34801
30
87.00000
0
VERTEX
8
29_87000
10
55.46200
20
148.08400
30
87.00000
0
VERTEX
8
29_87000
10
55.51800
20
148.23100
30
87.00000
0
VERTEX
8
29_87000
10
55.46500
20
148.52101
30
87.00000
0
VERTEX
8
29_87000
10
55.80800
20
148.34401
30
87.00000
0
VERTEX
8
29_87000
10
56.07100
20
148.64201
30
87.00000
0
VERTEX
8
29_87000
10
56.95000
20
148.65800
30
87.00000
0
VERTEX
8
29_87000
10
57.66900
20
148.64700
30
87.00000
0
VERTEX
8
29_87000
10
57.78500
20
148.77901
30
87.00000
0
VERTEX
8
29_87000
10
58.10400
20
148.88101
30
87.00000
0
VERTEX
8
29_87000
10
58.46000
20
149.19601
30
87.00000
0
VERTEX
8
29_87000
10
58.58200
20
149.34001
30
87.00000
0
VERTEX
8
29_87000
10
58.64900
20
149.35400
30
87.00000
0
VERTEX
8
29_87000
10
60.00600
20
149.38200
30
87.00000
0
VERTEX
8
29_87000
10
60.30100
20
149.37001
30
87.00000
0
VERTEX
8
29_87000
10
60.44600
20
149.33200
30
87.00000
0
VERTEX
8
29_87000
10
60.72300
20
149.28700
30
87.00000
0
VERTEX
8
29_87000
10
61.17000
20
149.30901
30
87.00000
0
VERTEX
8
29_87000
10
61.63600
20
149.49400
30
87.00000
0
VERTEX
8
29_87000
10
61.83300
20
149.50601
30
87.00000
0
VERTEX
8
29_87000
10
62.32300
20
149.56700
30
87.00000
0
VERTEX
8
29_87000
10
62.48000
20
149.59700
30
87.00000
0
VERTEX
8
29_87000
10
62.57400
20
149.69400
30
87.00000
0
VERTEX
8
29_87000
10
63.89200
20
150.19701
30
87.00000
0
VERTEX
8
29_87000
10
63.95200
20
150.25601
30
87.00000
0
VERTEX
8
29_87000
10
64.57301
20
150.72401
30
87.00000
0
VERTEX
8
29_87000
10
65.78700
20
151.23701
30
87.00000
0
VERTEX
8
29_87000
10
65.87000
20
151.28900
30
87.00000
0
VERTEX
8
29_87000
10
66.12600
20
151.28101
30
87.00000
0
VERTEX
8
29_87000
10
66.52600
20
151.17001
30
87.00000
0
VERTEX
8
29_87000
10
67.67700
20
150.89500
30
87.00000
0
VERTEX
8
29_87000
10
69.34700
20
150.46400
30
87.00000
0
VERTEX
8
29_87000
10
69.65900
20
150.36101
30
87.00000
0
VERTEX
8
29_87000
10
70.50000
20
150.05801
30
87.00000
0
VERTEX
8
29_87000
10
70.73500
20
149.97301
30
87.00000
0
VERTEX
8
29_87000
10
71.24300
20
149.75601
30
87.00000
0
VERTEX
8
29_87000
10
71.87300
20
149.55901
30
87.00000
0
VERTEX
8
29_87000
10
72.00201
20
149.50301
30
87.00000
0
VERTEX
8
29_87000
10
72.93700
20
148.88200
30
87.00000
0
VERTEX
8
29_87000
10
73.29900
20
148.69400
30
87.00000
0
VERTEX
8
29_87000
10
74.46201
20
147.69801
30
87.00000
0
VERTEX
8
29_87000
10
74.67200
20
147.41600
30
87.00000
0
VERTEX
8
29_87000
10
75.00600
20
146.91301
30
87.00000
0
VERTEX
8
29_87000
10
75.23200
20
146.41801
30
87.00000
0
VERTEX
8
29_87000
10
75.48600
20
145.69601
30
87.00000
0
VERTEX
8
29_87000
10
75.62601
20
145.16600
30
87.00000
0
VERTEX
8
29_87000
10
75.66600
20
144.84901
30
87.00000
0
VERTEX
8
29_87000
10
75.70000
20
144.28500
30
87.00000
0
VERTEX
8
29_87000
10
75.71800
20
143.57001
30
87.00000
0
VERTEX
8
29_87000
10
75.65501
20
142.98901
30
87.00000
0
VERTEX
8
29_87000
10
75.51900
20
141.98801
30
87.00000
0
VERTEX
8
29_87000
10
75.35800
20
141.40701
30
87.00000
0
VERTEX
8
29_87000
10
74.72000
20
139.73601
30
87.00000
0
VERTEX
8
29_87000
10
74.08200
20
137.87701
30
87.00000
0
VERTEX
8
29_87000
10
74.02500
20
137.75101
30
87.00000
0
VERTEX
8
29_87000
10
73.52700
20
136.92700
30
87.00000
0
VERTEX
8
29_87000
10
72.66200
20
135.53001
30
87.00000
0
VERTEX
8
29_87000
10
72.53400
20
135.30501
30
87.00000
0
VERTEX
8
29_87000
10
72.27100
20
134.92500
30
87.00000
0
VERTEX
8
29_87000
10
71.82201
20
134.24400
30
87.00000
0
VERTEX
8
29_87000
10
70.76601
20
132.90500
30
87.00000
0
VERTEX
8
29_87000
10
69.75600
20
131.51201
30
87.00000
0
VERTEX
8
29_87000
10
68.94300
20
130.45801
30
87.00000
0
VERTEX
8
29_87000
10
68.10201
20
129.10301
30
87.00000
0
VERTEX
8
29_87000
10
67.26701
20
127.89800
30
87.00000
0
VERTEX
8
29_87000
10
66.60500
20
126.66401
30
87.00000
0
VERTEX
8
29_87000
10
66.23600
20
126.17701
30
87.00000
0
VERTEX
8
29_87000
10
66.08200
20
125.91301
30
87.00000
0
VERTEX
8
29_87000
10
65.21201
20
124.29201
30
87.00000
0
VERTEX
8
29_87000
10
64.48100
20
123.19701
30
87.00000
0
VERTEX
8
29_87000
10
63.92300
20
122.46700
30
87.00000
0
VERTEX
8
29_87000
10
63.28900
20
121.34501
30
87.00000
0
VERTEX
8
29_87000
10
62.84200
20
120.70701
30
87.00000
0
VERTEX
8
29_87000
10
62.43000
20
120.09100
30
87.00000
0
VERTEX
8
29_87000
10
62.03900
20
119.36900
30
87.00000
0
VERTEX
8
29_87000
10
59.50100
20
115.60300
30
87.00000
0
VERTEX
8
29_87000
10
58.82900
20
114.72900
30
87.00000
0
VERTEX
8
29_87000
10
58.20700
20
113.50001
30
87.00000
0
VERTEX
8
29_87000
10
57.52100
20
112.39201
30
87.00000
0
VERTEX
8
29_87000
10
57.06400
20
111.02801
30
87.00000
0
VERTEX
8
29_87000
10
56.33400
20
109.12401
30
87.00000
0
VERTEX
8
29_87000
10
56.12800
20
108.31400
30
87.00000
0
VERTEX
8
29_87000
10
56.01100
20
107.44701
30
87.00000
0
VERTEX
8
29_87000
10
56.14900
20
105.61201
30
87.00000
0
VERTEX
8
29_87000
10
56.36400
20
104.86001
30
87.00000
0
VERTEX
8
29_87000
10
56.66300
20
104.27701
30
87.00000
0
VERTEX
8
29_87000
10
57.69300
20
102.78500
30
87.00000
0
VERTEX
8
29_87000
10
59.07200
20
101.83201
30
87.00000
0
VERTEX
8
29_87000
10
60.95300
20
100.17300
30
87.00000
0
VERTEX
8
29_87000
10
61.40900
20
99.49001
30
87.00000
0
VERTEX
8
29_87000
10
62.39900
20
98.03600
30
87.00000
0
VERTEX
8
29_87000
10
62.48400
20
97.84000
30
87.00000
0
VERTEX
8
29_87000
10
62.66600
20
96.51501
30
87.00000
0
VERTEX
8
29_87000
10
62.68700
20
96.23400
30
87.00000
0
VERTEX
8
29_87000
10
62.64100
20
95.87801
30
87.00000
0
VERTEX
8
29_87000
10
62.36100
20
94.80000
30
87.00000
0
VERTEX
8
29_87000
10
61.75400
20
93.02500
30
87.00000
0
VERTEX
8
29_87000
10
61.05100
20
91.13000
30
87.00000
0
VERTEX
8
29_87000
10
60.02900
20
89.04601
30
87.00000
0
VERTEX
8
29_87000
10
59.47900
20
87.62901
30
87.00000
0
VERTEX
8
29_87000
10
58.98800
20
86.87200
30
87.00000
0
VERTEX
8
29_87000
10
58.84800
20
86.63500
30
87.00000
0
VERTEX
8
29_87000
10
58.65300
20
86.23300
30
87.00000
0
VERTEX
8
29_87000
10
58.39400
20
85.77400
30
87.00000
0
VERTEX
8
29_87000
10
57.94700
20
85.12501
30
87.00000
0
VERTEX
8
29_87000
10
57.17800
20
83.80701
30
87.00000
0
VERTEX
8
29_87000
10
56.38400
20
82.52500
30
87.00000
0
VERTEX
8
29_87000
10
56.29900
20
82.14700
30
87.00000
0
VERTEX
8
29_87000
10
55.97800
20
81.24100
30
87.00000
0
VERTEX
8
29_87000
10
55.91000
20
81.01200
30
87.00000
0
VERTEX
8
29_87000
10
55.84900
20
80.57800
30
87.00000
0
VERTEX
8
29_87000
10
55.97600
20
80.44501
30
87.00000
0
VERTEX
8
29_87000
10
56.12000
20
80.15200
30
87.00000
0
VERTEX
8
29_87000
10
56.28400
20
79.56300
30
87.00000
0
VERTEX
8
29_87000
10
56.41500
20
79.04201
30
87.00000
0
VERTEX
8
29_87000
10
56.63100
20
78.83900
30
87.00000
0
VERTEX
8
29_87000
10
56.71000
20
78.75000
30
87.00000
0
VERTEX
8
29_87000
10
56.91700
20
78.39500
30
87.00000
0
VERTEX
8
29_87000
10
57.01300
20
77.97200
30
87.00000
0
VERTEX
8
29_87000
10
56.99000
20
77.60800
30
87.00000
0
VERTEX
8
29_87000
10
57.55500
20
76.66100
30
87.00000
0
VERTEX
8
29_87000
10
57.58500
20
76.59700
30
87.00000
0
VERTEX
8
29_87000
10
58.70100
20
74.87000
30
87.00000
0
VERTEX
8
29_87000
10
58.93900
20
74.53101
30
87.00000
0
VERTEX
8
29_87000
10
59.03300
20
74.41801
30
87.00000
0
VERTEX
8
29_87000
10
59.21800
20
74.23200
30
87.00000
0
VERTEX
8
29_87000
10
59.53700
20
73.80701
30
87.00000
0
VERTEX
8
29_87000
10
59.93300
20
73.43401
30
87.00000
0
VERTEX
8
29_87000
10
62.61500
20
71.25600
30
87.00000
0
VERTEX
8
29_87000
10
62.74300
20
71.14301
30
87.00000
0
VERTEX
8
29_87000
10
63.61100
20
70.30701
30
87.00000
0
VERTEX
8
29_87000
10
63.62300
20
70.29401
30
87.00000
0
VERTEX
8
29_87000
10
63.62700
20
70.22300
30
87.00000
0
VERTEX
8
29_87000
10
63.69500
20
69.89500
30
87.00000
0
VERTEX
8
29_87000
10
63.63800
20
69.78101
30
87.00000
0
VERTEX
8
29_87000
10
63.48400
20
69.53500
30
87.00000
0
VERTEX
8
29_87000
10
63.31400
20
69.14201
30
87.00000
0
VERTEX
8
29_87000
10
62.77300
20
68.48100
30
87.00000
0
VERTEX
8
29_87000
10
61.93700
20
67.37801
30
87.00000
0
VERTEX
8
29_87000
10
61.17600
20
66.28900
30
87.00000
0
VERTEX
8
29_87000
10
60.58100
20
65.26801
30
87.00000
0
VERTEX
8
29_87000
10
60.18300
20
64.52900
30
87.00000
0
VERTEX
8
29_87000
10
59.93300
20
63.90600
30
87.00000
0
VERTEX
8
29_87000
10
59.57900
20
63.18300
30
87.00000
0
VERTEX
8
29_87000
10
59.30500
20
62.52300
30
87.00000
0
VERTEX
8
29_87000
10
59.10000
20
61.88700
30
87.00000
0
VERTEX
8
29_87000
10
58.41300
20
58.92000
30
87.00000
0
VERTEX
8
29_87000
10
58.27600
20
58.26800
30
87.00000
0
VERTEX
8
29_87000
10
58.19600
20
57.72900
30
87.00000
0
VERTEX
8
29_87000
10
58.17400
20
57.19600
30
87.00000
0
VERTEX
8
29_87000
10
58.15200
20
55.91000
30
87.00000
0
VERTEX
8
29_87000
10
58.11300
20
55.61900
30
87.00000
0
VERTEX
8
29_87000
10
57.93400
20
53.18800
30
87.00000
0
VERTEX
8
29_87000
10
57.91200
20
52.28000
30
87.00000
0
VERTEX
8
29_87000
10
57.93200
20
51.62100
30
87.00000
0
VERTEX
8
29_87000
10
57.94900
20
51.53000
30
87.00000
0
VERTEX
8
29_87000
10
58.10600
20
51.06800
30
87.00000
0
VERTEX
8
29_87000
10
58.17200
20
50.69900
30
87.00000
0
VERTEX
8
29_87000
10
58.62000
20
49.52600
30
87.00000
0
VERTEX
8
29_87000
10
58.99100
20
47.99300
30
87.00000
0
VERTEX
8
29_87000
10
59.04000
20
47.75700
30
87.00000
0
VERTEX
8
29_87000
10
59.28800
20
47.15300
30
87.00000
0
VERTEX
8
29_87000
10
59.44500
20
46.71200
30
87.00000
0
VERTEX
8
29_87000
10
59.92300
20
44.94000
30
87.00000
0
VERTEX
8
29_87000
10
60.20100
20
44.17800
30
87.00000
0
VERTEX
8
29_87000
10
61.03800
20
42.17300
30
87.00000
0
VERTEX
8
29_87000
10
61.14900
20
41.92600
30
87.00000
0
VERTEX
8
29_87000
10
61.75900
20
39.71800
30
87.00000
0
VERTEX
8
29_87000
10
61.78900
20
39.56600
30
87.00000
0
VERTEX
8
29_87000
10
61.83800
20
39.02500
30
87.00000
0
VERTEX
8
29_87000
10
61.67600
20
38.11200
30
87.00000
0
VERTEX
8
29_87000
10
61.64900
20
37.65400
30
87.00000
0
VERTEX
8
29_87000
10
61.46300
20
37.30500
30
87.00000
0
VERTEX
8
29_87000
10
61.28200
20
36.45400
30
87.00000
0
VERTEX
8
29_87000
10
61.25800
20
36.29200
30
87.00000
0
VERTEX
8
29_87000
10
61.13300
20
36.10700
30
87.00000
0
VERTEX
8
29_87000
10
60.95300
20
35.10400
30
87.00000
0
VERTEX
8
29_87000
10
60.69600
20
33.94400
30
87.00000
0
VERTEX
8
29_87000
10
60.68600
20
33.68200
30
87.00000
0
VERTEX
8
29_87000
10
60.60700
20
33.10800
30
87.00000
0
VERTEX
8
29_87000
10
60.37300
20
32.11000
30
87.00000
0
VERTEX
8
29_87000
10
60.11900
20
31.08800
30
87.00000
0
VERTEX
8
29_87000
10
60.10500
20
30.90700
30
87.00000
0
VERTEX
8
29_87000
10
59.83100
20
29.79300
30
87.00000
0
VERTEX
8
29_87000
10
59.74300
20
29.50700
30
87.00000
0
VERTEX
8
29_87000
10
59.71700
20
29.46400
30
87.00000
0
VERTEX
8
29_87000
10
59.49400
20
28.44000
30
87.00000
0
VERTEX
8
29_87000
10
59.44300
20
28.12400
30
87.00000
0
VERTEX
8
29_87000
10
59.33600
20
27.81400
30
87.00000
0
VERTEX
8
29_87000
10
59.23800
20
27.65000
30
87.00000
0
VERTEX
8
29_87000
10
59.00800
20
27.32300
30
87.00000
0
VERTEX
8
29_87000
10
58.96200
20
26.84900
30
87.00000
0
VERTEX
8
29_87000
10
58.50700
20
26.01000
30
87.00000
0
VERTEX
8
29_87000
10
58.43700
20
25.79300
30
87.00000
0
VERTEX
8
29_87000
10
58.31100
20
25.68700
30
87.00000
0
VERTEX
8
29_87000
10
58.29400
20
25.61700
30
87.00000
0
VERTEX
8
29_87000
10
58.20800
20
25.40800
30
87.00000
0
VERTEX
8
29_87000
10
57.52300
20
24.85100
30
87.00000
0
VERTEX
8
29_87000
10
57.31600
20
24.66300
30
87.00000
0
VERTEX
8
29_87000
10
57.17800
20
24.20200
30
87.00000
0
VERTEX
8
29_87000
10
56.93300
20
24.02400
30
87.00000
0
VERTEX
8
29_87000
10
56.91200
20
23.98400
30
87.00000
0
VERTEX
8
29_87000
10
56.87400
20
23.94500
30
87.00000
0
VERTEX
8
29_87000
10
56.87300
20
23.63200
30
87.00000
0
VERTEX
8
29_87000
10
56.67300
20
23.46800
30
87.00000
0
VERTEX
8
29_87000
10
56.52700
20
23.28400
30
87.00000
0
VERTEX
8
29_87000
10
56.29700
20
22.33600
30
87.00000
0
VERTEX
8
29_87000
10
56.24400
20
22.16300
30
87.00000
0
VERTEX
8
29_87000
10
56.27900
20
21.86300
30
87.00000
0
VERTEX
8
29_87000
10
56.26300
20
21.20100
30
87.00000
0
VERTEX
8
29_87000
10
56.10900
20
20.78800
30
87.00000
0
VERTEX
8
29_87000
10
55.56900
20
20.76600
30
87.00000
0
VERTEX
8
29_87000
10
55.56600
20
20.70600
30
87.00000
0
VERTEX
8
29_87000
10
55.63600
20
20.31700
30
87.00000
0
VERTEX
8
29_87000
10
55.71300
20
19.78700
30
87.00000
0
VERTEX
8
29_87000
10
55.69800
20
19.76400
30
87.00000
0
VERTEX
8
29_87000
10
55.62200
20
19.17200
30
87.00000
0
VERTEX
8
29_87000
10
55.68700
20
18.98700
30
87.00000
0
VERTEX
8
29_87000
10
55.86500
20
18.78800
30
87.00000
0
VERTEX
8
29_87000
10
55.89900
20
18.72900
30
87.00000
0
VERTEX
8
29_87000
10
55.89900
20
18.41900
30
87.00000
0
VERTEX
8
29_87000
10
55.85600
20
18.32100
30
87.00000
0
VERTEX
8
29_87000
10
55.88800
20
18.20600
30
87.00000
0
VERTEX
8
29_87000
10
55.80700
20
17.86800
30
87.00000
0
VERTEX
8
29_87000
10
55.68500
20
17.11400
30
87.00000
0
VERTEX
8
29_87000
10
55.61700
20
16.80500
30
87.00000
0
VERTEX
8
29_87000
10
55.69100
20
16.49000
30
87.00000
0
VERTEX
8
29_87000
10
55.66800
20
16.32500
30
87.00000
0
VERTEX
8
29_87000
10
55.64900
20
16.28600
30
87.00000
0
VERTEX
8
29_87000
10
55.64900
20
16.22300
30
87.00000
0
VERTEX
8
29_87000
10
55.80700
20
16.01900
30
87.00000
0
VERTEX
8
29_87000
10
56.14900
20
15.72100
30
87.00000
0
VERTEX
8
29_87000
10
56.44200
20
15.44000
30
87.00000
0
VERTEX
8
29_87000
10
56.40800
20
14.84200
30
87.00000
0
VERTEX
8
29_87000
10
56.49300
20
14.60700
30
87.00000
0
VERTEX
8
29_87000
10
56.56200
20
14.56000
30
87.00000
0
VERTEX
8
29_87000
10
56.77300
20
14.64900
30
87.00000
0
VERTEX
8
29_87000
10
56.97400
20
14.56100
30
87.00000
0
VERTEX
8
29_87000
10
57.17900
20
14.73800
30
87.00000
0
VERTEX
8
29_87000
10
57.76500
20
13.82800
30
87.00000
0
VERTEX
8
29_87000
10
57.82600
20
13.75100
30
87.00000
0
VERTEX
8
29_87000
10
58.06100
20
12.57000
30
87.00000
0
VERTEX
8
29_87000
10
58.32300
20
12.37100
30
87.00000
0
VERTEX
8
29_87000
10
58.45800
20
12.18100
30
87.00000
0
VERTEX
8
29_87000
10
58.50200
20
11.86900
30
87.00000
0
VERTEX
8
29_87000
10
58.64100
20
11.36800
30
87.00000
0
VERTEX
8
29_87000
10
58.57000
20
10.95700
30
87.00000
0
VERTEX
8
29_87000
10
58.76400
20
10.71200
30
87.00000
0
VERTEX
8
29_87000
10
59.05200
20
9.51500
30
87.00000
0
VERTEX
8
29_87000
10
59.46600
20
8.89900
30
87.00000
0
VERTEX
8
29_87000
10
59.52300
20
8.84000
30
87.00000
0
VERTEX
8
29_87000
10
59.52100
20
8.50500
30
87.00000
0
VERTEX
8
29_87000
10
59.57900
20
8.36800
30
87.00000
0
VERTEX
8
29_87000
10
59.69300
20
8.24900
30
87.00000
0
VERTEX
8
29_87000
10
60.09500
20
7.95500
30
87.00000
0
VERTEX
8
29_87000
10
60.07200
20
7.80600
30
87.00000
0
VERTEX
8
29_87000
10
60.26600
20
7.60000
30
87.00000
0
VERTEX
8
29_87000
10
60.98600
20
7.07500
30
87.00000
0
VERTEX
8
29_87000
10
61.12200
20
6.89600
30
87.00000
0
VERTEX
8
29_87000
10
61.17000
20
6.86900
30
87.00000
0
VERTEX
8
29_87000
10
61.81700
20
6.57900
30
87.00000
0
VERTEX
8
29_87000
10
61.98000
20
6.53800
30
87.00000
0
VERTEX
8
29_87000
10
62.32300
20
6.43300
30
87.00000
0
VERTEX
8
29_87000
10
63.00900
20
6.18800
30
87.00000
0
VERTEX
8
29_87000
10
63.31600
20
6.05000
30
87.00000
0
VERTEX
8
29_87000
10
63.62900
20
5.99200
30
87.00000
0
VERTEX
8
29_87000
10
64.29501
20
5.65800
30
87.00000
0
VERTEX
8
29_87000
10
64.35201
20
5.59800
30
87.00000
0
VERTEX
8
29_87000
10
64.58701
20
5.51700
30
87.00000
0
VERTEX
8
29_87000
10
65.41000
20
5.15500
30
87.00000
0
VERTEX
8
29_87000
10
65.90100
20
4.90000
30
87.00000
0
VERTEX
8
29_87000
10
66.09800
20
4.84700
30
87.00000
0
VERTEX
8
29_87000
10
66.34600
20
4.85500
30
87.00000
0
VERTEX
8
29_87000
10
66.78300
20
4.85500
30
87.00000
0
VERTEX
8
29_87000
10
67.21900
20
4.63200
30
87.00000
0
VERTEX
8
29_87000
10
67.68401
20
4.68900
30
87.00000
0
VERTEX
8
29_87000
10
67.78400
20
4.65900
30
87.00000
0
VERTEX
8
29_87000
10
67.87000
20
4.64500
30
87.00000
0
VERTEX
8
29_87000
10
68.38500
20
4.36500
30
87.00000
0
VERTEX
8
29_87000
10
68.84200
20
4.01200
30
87.00000
0
VERTEX
8
29_87000
10
69.01300
20
3.71900
30
87.00000
0
VERTEX
8
29_87000
10
68.32600
20
3.01200
30
87.00000
0
VERTEX
8
29_87000
10
67.12600
20
2.65800
30
87.00000
0
VERTEX
8
29_87000
10
66.95400
20
2.48200
30
87.00000
0
VERTEX
8
29_87000
10
67.01200
20
2.12500
30
87.00000
0
VERTEX
8
29_87000
10
67.24100
20
1.77100
30
87.00000
0
VERTEX
8
29_87000
10
67.29800
20
1.59700
30
87.00000
0
VERTEX
8
29_87000
10
67.29800
20
1.30700
30
87.00000
0
VERTEX
8
29_87000
10
67.20600
20
1.30000
30
87.00000
0
VERTEX
8
29_87000
10
66.99800
20
1.24800
30
87.00000
0
VERTEX
8
29_87000
10
65.19601
20
1.24300
30
87.00000
0
VERTEX
8
29_87000
10
64.80400
20
0.76800
30
87.00000
0
VERTEX
8
29_87000
10
64.34200
20
0.63000
30
87.00000
0
VERTEX
8
29_87000
10
64.02700
20
0.55500
30
87.00000
0
VERTEX
8
29_87000
10
63.86000
20
0.45400
30
87.00000
0
VERTEX
8
29_87000
10
63.44800
20
0.13200
30
87.00000
0
VERTEX
8
29_87000
10
63.15100
20
0.13200
30
87.00000
0
VERTEX
8
29_87000
10
63.07300
20
0.00600
30
87.00000
0
VERTEX
8
29_87000
10
76.50500
20
0.00600
30
87.00000
0
VERTEX
8
29_87000
10
76.43301
20
0.21900
30
87.00000
0
VERTEX
8
29_87000
10
76.46500
20
0.41200
30
87.00000
0
VERTEX
8
29_87000
10
76.29800
20
0.88100
30
87.00000
0
VERTEX
8
29_87000
10
75.94200
20
1.53000
30
87.00000
0
VERTEX
8
29_87000
10
75.94701
20
1.67600
30
87.00000
0
VERTEX
8
29_87000
10
76.27300
20
1.77300
30
87.00000
0
VERTEX
8
29_87000
10
76.21500
20
2.09000
30
87.00000
0
VERTEX
8
29_87000
10
76.83100
20
2.72000
30
87.00000
0
VERTEX
8
29_87000
10
77.75800
20
2.64500
30
87.00000
0
VERTEX
8
29_87000
10
77.82700
20
2.69600
30
87.00000
0
VERTEX
8
29_87000
10
77.85201
20
2.89900
30
87.00000
0
VERTEX
8
29_87000
10
77.93000
20
2.95300
30
87.00000
0
VERTEX
8
29_87000
10
78.01601
20
3.05600
30
87.00000
0
VERTEX
8
29_87000
10
78.44601
20
3.05400
30
87.00000
0
VERTEX
8
29_87000
10
79.13100
20
3.18800
30
87.00000
0
VERTEX
8
29_87000
10
79.81600
20
3.28800
30
87.00000
0
VERTEX
8
29_87000
10
80.85300
20
3.53000
30
87.00000
0
VERTEX
8
29_87000
10
81.07001
20
3.54800
30
87.00000
0
VERTEX
8
29_87000
10
81.21900
20
3.63600
30
87.00000
0
VERTEX
8
29_87000
10
81.87501
20
3.89000
30
87.00000
0
VERTEX
8
29_87000
10
82.28800
20
3.95000
30
87.00000
0
VERTEX
8
29_87000
10
82.48200
20
4.04000
30
87.00000
0
VERTEX
8
29_87000
10
83.06500
20
4.26500
30
87.00000
0
VERTEX
8
29_87000
10
83.35001
20
4.29300
30
87.00000
0
VERTEX
8
29_87000
10
83.73801
20
4.49300
30
87.00000
0
VERTEX
8
29_87000
10
84.83401
20
4.97900
30
87.00000
0
VERTEX
8
29_87000
10
84.90401
20
5.04200
30
87.00000
0
VERTEX
8
29_87000
10
85.47800
20
4.95300
30
87.00000
0
VERTEX
8
29_87000
10
86.03700
20
5.11900
30
87.00000
0
VERTEX
8
29_87000
10
86.35700
20
5.22700
30
87.00000
0
VERTEX
8
29_87000
10
86.53600
20
5.38800
30
87.00000
0
VERTEX
8
29_87000
10
86.82401
20
5.50500
30
87.00000
0
VERTEX
8
29_87000
10
87.02000
20
5.49200
30
87.00000
0
VERTEX
8
29_87000
10
87.70400
20
5.86100
30
87.00000
0
VERTEX
8
29_87000
10
88.35700
20
5.95200
30
87.00000
0
VERTEX
8
29_87000
10
88.46101
20
5.97300
30
87.00000
0
VERTEX
8
29_87000
10
89.07600
20
6.25700
30
87.00000
0
VERTEX
8
29_87000
10
89.18001
20
6.39800
30
87.00000
0
VERTEX
8
29_87000
10
89.68201
20
6.46600
30
87.00000
0
VERTEX
8
29_87000
10
89.76401
20
6.54900
30
87.00000
0
VERTEX
8
29_87000
10
89.84600
20
6.55100
30
87.00000
0
VERTEX
8
29_87000
10
89.91100
20
6.61800
30
87.00000
0
VERTEX
8
29_87000
10
90.30300
20
6.77100
30
87.00000
0
VERTEX
8
29_87000
10
90.90401
20
7.31900
30
87.00000
0
VERTEX
8
29_87000
10
91.13600
20
7.60400
30
87.00000
0
VERTEX
8
29_87000
10
91.30701
20
7.95700
30
87.00000
0
VERTEX
8
29_87000
10
91.47900
20
8.13100
30
87.00000
0
VERTEX
8
29_87000
10
91.60400
20
8.22700
30
87.00000
0
VERTEX
8
29_87000
10
91.99500
20
8.48400
30
87.00000
0
VERTEX
8
29_87000
10
92.05100
20
8.64000
30
87.00000
0
VERTEX
8
29_87000
10
92.50800
20
9.13600
30
87.00000
0
VERTEX
8
29_87000
10
92.60800
20
9.13000
30
87.00000
0
VERTEX
8
29_87000
10
92.99800
20
9.29200
30
87.00000
0
VERTEX
8
29_87000
10
93.19501
20
9.42500
30
87.00000
0
VERTEX
8
29_87000
10
93.33100
20
9.33300
30
87.00000
0
VERTEX
8
29_87000
10
93.53700
20
9.40600
30
87.00000
0
VERTEX
8
29_87000
10
93.59200
20
9.46300
30
87.00000
0
VERTEX
8
29_87000
10
93.92900
20
9.69200
30
87.00000
0
VERTEX
8
29_87000
10
93.99001
20
9.78500
30
87.00000
0
VERTEX
8
29_87000
10
94.27000
20
10.10700
30
87.00000
0
VERTEX
8
29_87000
10
95.08200
20
10.68800
30
87.00000
0
VERTEX
8
29_87000
10
95.44601
20
11.03600
30
87.00000
0
VERTEX
8
29_87000
10
95.59300
20
11.09000
30
87.00000
0
VERTEX
8
29_87000
10
95.69300
20
11.15600
30
87.00000
0
VERTEX
8
29_87000
10
96.00401
20
11.68200
30
87.00000
0
VERTEX
8
29_87000
10
96.04301
20
11.80100
30
87.00000
0
VERTEX
8
29_87000
10
96.11700
20
11.92500
30
87.00000
0
VERTEX
8
29_87000
10
96.23601
20
12.01400
30
87.00000
0
VERTEX
8
29_87000
10
96.23601
20
12.05900
30
87.00000
0
VERTEX
8
29_87000
10
96.27901
20
12.07400
30
87.00000
0
VERTEX
8
29_87000
10
96.36900
20
12.27900
30
87.00000
0
VERTEX
8
29_87000
10
96.40601
20
12.30800
30
87.00000
0
VERTEX
8
29_87000
10
96.62200
20
12.54800
30
87.00000
0
VERTEX
8
29_87000
10
96.53700
20
12.94600
30
87.00000
0
VERTEX
8
29_87000
10
96.77500
20
13.31100
30
87.00000
0
VERTEX
8
29_87000
10
96.85300
20
13.31000
30
87.00000
0
VERTEX
8
29_87000
10
96.96600
20
13.54300
30
87.00000
0
VERTEX
8
29_87000
10
97.19501
20
13.31000
30
87.00000
0
VERTEX
8
29_87000
10
97.39500
20
13.34000
30
87.00000
0
VERTEX
8
29_87000
10
97.65201
20
13.19500
30
87.00000
0
VERTEX
8
29_87000
10
97.96900
20
13.26700
30
87.00000
0
VERTEX
8
29_87000
10
98.33801
20
13.48900
30
87.00000
0
VERTEX
8
29_87000
10
98.52801
20
13.39000
30
87.00000
0
VERTEX
8
29_87000
10
98.68101
20
13.60500
30
87.00000
0
VERTEX
8
29_87000
10
98.91100
20
13.66300
30
87.00000
0
VERTEX
8
29_87000
10
99.02500
20
13.63900
30
87.00000
0
VERTEX
8
29_87000
10
99.16901
20
14.04400
30
87.00000
0
VERTEX
8
29_87000
10
99.36800
20
14.07700
30
87.00000
0
VERTEX
8
29_87000
10
99.38200
20
14.10500
30
87.00000
0
VERTEX
8
29_87000
10
99.39600
20
14.10600
30
87.00000
0
VERTEX
8
29_87000
10
99.41701
20
14.13600
30
87.00000
0
VERTEX
8
29_87000
10
99.41701
20
14.28700
30
87.00000
0
VERTEX
8
29_87000
10
99.47401
20
14.29700
30
87.00000
0
VERTEX
8
29_87000
10
99.53900
20
14.48800
30
87.00000
0
VERTEX
8
29_87000
10
99.71001
20
14.66800
30
87.00000
0
VERTEX
8
29_87000
10
99.78600
20
14.84500
30
87.00000
0
VERTEX
8
29_87000
10
99.78600
20
15.08100
30
87.00000
0
VERTEX
8
29_87000
10
99.70901
20
15.16700
30
87.00000
0
VERTEX
8
29_87000
10
99.57500
20
16.33300
30
87.00000
0
VERTEX
8
29_87000
10
99.57500
20
16.47200
30
87.00000
0
VERTEX
8
29_87000
10
99.47201
20
16.61200
30
87.00000
0
VERTEX
8
29_87000
10
99.36600
20
16.69500
30
87.00000
0
VERTEX
8
29_87000
10
99.29000
20
16.69000
30
87.00000
0
VERTEX
8
29_87000
10
99.02500
20
16.62400
30
87.00000
0
VERTEX
8
29_87000
10
98.98701
20
16.64000
30
87.00000
0
VERTEX
8
29_87000
10
98.93900
20
16.60200
30
87.00000
0
VERTEX
8
29_87000
10
98.72101
20
16.56700
30
87.00000
0
VERTEX
8
29_87000
10
98.67901
20
16.49200
30
87.00000
0
VERTEX
8
29_87000
10
98.42400
20
16.60700
30
87.00000
0
VERTEX
8
29_87000
10
98.37701
20
16.64600
30
87.00000
0
VERTEX
8
29_87000
10
98.26000
20
17.34200
30
87.00000
0
VERTEX
8
29_87000
10
98.15201
20
17.47400
30
87.00000
0
VERTEX
8
29_87000
10
98.08201
20
17.66700
30
87.00000
0
VERTEX
8
29_87000
10
97.89800
20
17.92000
30
87.00000
0
VERTEX
8
29_87000
10
97.71001
20
19.08200
30
87.00000
0
VERTEX
8
29_87000
10
97.74300
20
19.48900
30
87.00000
0
VERTEX
8
29_87000
10
97.39900
20
20.90200
30
87.00000
0
VERTEX
8
29_87000
10
97.35800
20
21.33500
30
87.00000
0
VERTEX
8
29_87000
10
97.42200
20
22.37600
30
87.00000
0
VERTEX
8
29_87000
10
97.42200
20
22.84700
30
87.00000
0
VERTEX
8
29_87000
10
97.51401
20
23.10400
30
87.00000
0
VERTEX
8
29_87000
10
97.62701
20
23.31800
30
87.00000
0
VERTEX
8
29_87000
10
97.69601
20
23.62500
30
87.00000
0
VERTEX
8
29_87000
10
97.71600
20
23.63700
30
87.00000
0
VERTEX
8
29_87000
10
97.73901
20
23.75800
30
87.00000
0
VERTEX
8
29_87000
10
97.73901
20
24.81600
30
87.00000
0
VERTEX
8
29_87000
10
97.99600
20
24.55200
30
87.00000
0
VERTEX
8
29_87000
10
98.06400
20
24.65900
30
87.00000
0
VERTEX
8
29_87000
10
98.14201
20
24.67900
30
87.00000
0
VERTEX
8
29_87000
10
98.22401
20
24.72900
30
87.00000
0
VERTEX
8
29_87000
10
98.16601
20
25.08400
30
87.00000
0
VERTEX
8
29_87000
10
98.51000
20
25.61500
30
87.00000
0
VERTEX
8
29_87000
10
98.45300
20
26.14500
30
87.00000
0
VERTEX
8
29_87000
10
98.53400
20
26.19600
30
87.00000
0
VERTEX
8
29_87000
10
98.52600
20
26.56300
30
87.00000
0
VERTEX
8
29_87000
10
98.59601
20
27.00900
30
87.00000
0
VERTEX
8
29_87000
10
98.92500
20
27.55900
30
87.00000
0
VERTEX
8
29_87000
10
98.88600
20
27.62900
30
87.00000
0
VERTEX
8
29_87000
10
98.76000
20
27.80000
30
87.00000
0
VERTEX
8
29_87000
10
98.56700
20
28.02600
30
87.00000
0
VERTEX
8
29_87000
10
98.47601
20
28.54500
30
87.00000
0
VERTEX
8
29_87000
10
98.40800
20
28.72200
30
87.00000
0
VERTEX
8
29_87000
10
98.38500
20
28.85200
30
87.00000
0
VERTEX
8
29_87000
10
98.32500
20
29.46300
30
87.00000
0
VERTEX
8
29_87000
10
98.07900
20
30.13300
30
87.00000
0
VERTEX
8
29_87000
10
97.76301
20
30.77100
30
87.00000
0
VERTEX
8
29_87000
10
97.63300
20
31.08900
30
87.00000
0
VERTEX
8
29_87000
10
97.51501
20
31.25500
30
87.00000
0
VERTEX
8
29_87000
10
97.48100
20
31.61900
30
87.00000
0
VERTEX
8
29_87000
10
97.27000
20
33.01100
30
87.00000
0
VERTEX
8
29_87000
10
97.25201
20
33.21800
30
87.00000
0
VERTEX
8
29_87000
10
97.21400
20
34.27800
30
87.00000
0
VERTEX
8
29_87000
10
97.14500
20
34.46400
30
87.00000
0
VERTEX
8
29_87000
10
97.02200
20
35.31500
30
87.00000
0
VERTEX
8
29_87000
10
96.90000
20
36.75900
30
87.00000
0
VERTEX
8
29_87000
10
96.82001
20
38.32100
30
87.00000
0
VERTEX
8
29_87000
10
96.87401
20
38.69900
30
87.00000
0
VERTEX
8
29_87000
10
97.25401
20
40.03200
30
87.00000
0
VERTEX
8
29_87000
10
97.32201
20
40.44200
30
87.00000
0
VERTEX
8
29_87000
10
98.04101
20
42.06700
30
87.00000
0
VERTEX
8
29_87000
10
98.17500
20
42.43600
30
87.00000
0
VERTEX
8
29_87000
10
98.69601
20
43.43400
30
87.00000
0
VERTEX
8
29_87000
10
99.03300
20
44.12000
30
87.00000
0
VERTEX
8
29_87000
10
99.26301
20
44.84000
30
87.00000
0
VERTEX
8
29_87000
10
99.33100
20
44.96000
30
87.00000
0
VERTEX
8
29_87000
10
99.66100
20
45.67000
30
87.00000
0
VERTEX
8
29_87000
10
100.44100
20
47.27100
30
87.00000
0
VERTEX
8
29_87000
10
100.60201
20
47.61900
30
87.00000
0
VERTEX
8
29_87000
10
100.82500
20
48.36200
30
87.00000
0
VERTEX
8
29_87000
10
100.83301
20
48.42900
30
87.00000
0
VERTEX
8
29_87000
10
101.27701
20
49.67300
30
87.00000
0
VERTEX
8
29_87000
10
101.65501
20
50.63100
30
87.00000
0
VERTEX
8
29_87000
10
101.80901
20
51.06400
30
87.00000
0
VERTEX
8
29_87000
10
102.04900
20
51.89500
30
87.00000
0
VERTEX
8
29_87000
10
102.42101
20
53.44600
30
87.00000
0
VERTEX
8
29_87000
10
102.67001
20
54.07900
30
87.00000
0
VERTEX
8
29_87000
10
102.70400
20
54.23000
30
87.00000
0
VERTEX
8
29_87000
10
102.87701
20
55.17200
30
87.00000
0
VERTEX
8
29_87000
10
103.02200
20
56.79700
30
87.00000
0
VERTEX
8
29_87000
10
103.01900
20
56.85100
30
87.00000
0
VERTEX
8
29_87000
10
103.03201
20
57.05100
30
87.00000
0
VERTEX
8
29_87000
10
103.02200
20
58.07600
30
87.00000
0
VERTEX
8
29_87000
10
103.14900
20
59.06400
30
87.00000
0
VERTEX
8
29_87000
10
103.11301
20
59.82400
30
87.00000
0
VERTEX
8
29_87000
10
102.52601
20
62.54000
30
87.00000
0
VERTEX
8
29_87000
10
102.35700
20
63.05800
30
87.00000
0
VERTEX
8
29_87000
10
101.58000
20
65.15601
30
87.00000
0
VERTEX
8
29_87000
10
101.32700
20
65.79200
30
87.00000
0
VERTEX
8
29_87000
10
100.86700
20
67.11301
30
87.00000
0
VERTEX
8
29_87000
10
100.82500
20
67.35201
30
87.00000
0
VERTEX
8
29_87000
10
100.66501
20
68.42400
30
87.00000
0
VERTEX
8
29_87000
10
100.73000
20
68.60300
30
87.00000
0
VERTEX
8
29_87000
10
100.77200
20
68.67300
30
87.00000
0
VERTEX
8
29_87000
10
100.81600
20
68.87901
30
87.00000
0
VERTEX
8
29_87000
10
101.28400
20
69.24001
30
87.00000
0
VERTEX
8
29_87000
10
101.50101
20
69.42600
30
87.00000
0
VERTEX
8
29_87000
10
102.00700
20
69.88500
30
87.00000
0
VERTEX
8
29_87000
10
103.14201
20
70.78400
30
87.00000
0
VERTEX
8
29_87000
10
103.27601
20
70.92900
30
87.00000
0
VERTEX
8
29_87000
10
105.01301
20
72.38900
30
87.00000
0
VERTEX
8
29_87000
10
105.13100
20
72.51601
30
87.00000
0
VERTEX
8
29_87000
10
105.74801
20
72.97601
30
87.00000
0
VERTEX
8
29_87000
10
105.92400
20
73.11600
30
87.00000
0
VERTEX
8
29_87000
10
107.37000
20
74.72701
30
87.00000
0
VERTEX
8
29_87000
10
107.51401
20
74.97100
30
87.00000
0
VERTEX
8
29_87000
10
107.74600
20
75.33701
30
87.00000
0
VERTEX
8
29_87000
10
107.84300
20
75.43800
30
87.00000
0
VERTEX
8
29_87000
10
107.99500
20
75.80801
30
87.00000
0
VERTEX
8
29_87000
10
108.06600
20
76.18401
30
87.00000
0
VERTEX
8
29_87000
10
108.09601
20
76.55500
30
87.00000
0
VERTEX
8
29_87000
10
108.12501
20
76.70700
30
87.00000
0
VERTEX
8
29_87000
10
108.28400
20
77.02200
30
87.00000
0
VERTEX
8
29_87000
10
108.46900
20
77.55500
30
87.00000
0
VERTEX
8
29_87000
10
108.62901
20
77.70800
30
87.00000
0
VERTEX
8
29_87000
10
108.77000
20
77.97800
30
87.00000
0
VERTEX
8
29_87000
10
108.97201
20
78.23801
30
87.00000
0
VERTEX
8
29_87000
10
109.16801
20
78.56700
30
87.00000
0
VERTEX
8
29_87000
10
109.34300
20
79.43401
30
87.00000
0
VERTEX
8
29_87000
10
109.33401
20
79.56800
30
87.00000
0
VERTEX
8
29_87000
10
109.12000
20
79.86000
30
87.00000
0
VERTEX
8
29_87000
10
109.06701
20
80.16400
30
87.00000
0
VERTEX
8
29_87000
10
108.80000
20
80.97601
30
87.00000
0
VERTEX
8
29_87000
10
108.78201
20
81.09400
30
87.00000
0
VERTEX
8
29_87000
10
108.59200
20
81.70500
30
87.00000
0
VERTEX
8
29_87000
10
108.56901
20
81.91500
30
87.00000
0
VERTEX
8
29_87000
10
108.56100
20
82.34400
30
87.00000
0
VERTEX
8
29_87000
10
107.73300
20
84.61000
30
87.00000
0
VERTEX
8
29_87000
10
107.69801
20
84.77300
30
87.00000
0
VERTEX
8
29_87000
10
107.38100
20
85.81500
30
87.00000
0
VERTEX
8
29_87000
10
107.30501
20
86.53800
30
87.00000
0
VERTEX
8
29_87000
10
107.27901
20
86.88100
30
87.00000
0
VERTEX
8
29_87000
10
107.14101
20
87.39301
30
87.00000
0
VERTEX
8
29_87000
10
106.98601
20
87.88901
30
87.00000
0
VERTEX
8
29_87000
10
106.78400
20
88.46600
30
87.00000
0
VERTEX
8
29_87000
10
106.53900
20
88.85600
30
87.00000
0
VERTEX
8
29_87000
10
106.31400
20
89.48801
30
87.00000
0
VERTEX
8
29_87000
10
105.78101
20
90.80601
30
87.00000
0
VERTEX
8
29_87000
10
105.65101
20
91.73100
30
87.00000
0
VERTEX
8
29_87000
10
105.39301
20
92.81901
30
87.00000
0
VERTEX
8
29_87000
10
105.38200
20
92.89400
30
87.00000
0
VERTEX
8
29_87000
10
105.64900
20
94.16601
30
87.00000
0
VERTEX
8
29_87000
10
105.75001
20
94.71700
30
87.00000
0
VERTEX
8
29_87000
10
105.84100
20
95.06001
30
87.00000
0
VERTEX
8
29_87000
10
105.94100
20
95.16400
30
87.00000
0
VERTEX
8
29_87000
10
106.27200
20
96.01501
30
87.00000
0
VERTEX
8
29_87000
10
106.30200
20
96.07401
30
87.00000
0
VERTEX
8
29_87000
10
107.59901
20
97.61101
30
87.00000
0
VERTEX
8
29_87000
10
108.01801
20
98.09500
30
87.00000
0
VERTEX
8
29_87000
10
108.17800
20
98.34100
30
87.00000
0
VERTEX
8
29_87000
10
108.52500
20
98.61600
30
87.00000
0
VERTEX
8
29_87000
10
109.30200
20
99.15800
30
87.00000
0
VERTEX
8
29_87000
10
109.65601
20
99.30200
30
87.00000
0
VERTEX
8
29_87000
10
110.16601
20
99.35600
30
87.00000
0
VERTEX
8
29_87000
10
112.33601
20
99.74700
30
87.00000
0
VERTEX
8
29_87000
10
112.57700
20
99.72201
30
87.00000
0
VERTEX
8
29_87000
10
113.03300
20
99.82401
30
87.00000
0
VERTEX
8
29_87000
10
114.28600
20
100.13600
30
87.00000
0
VERTEX
8
29_87000
10
114.80200
20
100.06801
30
87.00000
0
VERTEX
8
29_87000
10
115.23200
20
100.31200
30
87.00000
0
VERTEX
8
29_87000
10
115.75301
20
100.62801
30
87.00000
0
VERTEX
8
29_87000
10
116.17500
20
100.84300
30
87.00000
0
VERTEX
8
29_87000
10
116.94601
20
101.28500
30
87.00000
0
VERTEX
8
29_87000
10
118.15001
20
102.52200
30
87.00000
0
VERTEX
8
29_87000
10
118.32600
20
102.72101
30
87.00000
0
VERTEX
8
29_87000
10
118.35600
20
102.80000
30
87.00000
0
VERTEX
8
29_87000
10
118.54700
20
106.25301
30
87.00000
0
VERTEX
8
29_87000
10
118.37000
20
107.80100
30
87.00000
0
VERTEX
8
29_87000
10
118.24901
20
108.02701
30
87.00000
0
VERTEX
8
29_87000
10
118.19201
20
108.23401
30
87.00000
0
VERTEX
8
29_87000
10
118.02000
20
108.73501
30
87.00000
0
VERTEX
8
29_87000
10
117.13000
20
110.77801
30
87.00000
0
VERTEX
8
29_87000
10
116.64700
20
111.64101
30
87.00000
0
VERTEX
8
29_87000
10
116.04401
20
112.51201
30
87.00000
0
VERTEX
8
29_87000
10
115.49001
20
113.38000
30
87.00000
0
VERTEX
8
29_87000
10
115.00201
20
113.96400
30
87.00000
0
VERTEX
8
29_87000
10
114.24100
20
114.63300
30
87.00000
0
VERTEX
8
29_87000
10
113.64001
20
115.46800
30
87.00000
0
VERTEX
8
29_87000
10
113.15701
20
116.03201
30
87.00000
0
VERTEX
8
29_87000
10
111.71500
20
117.65800
30
87.00000
0
VERTEX
8
29_87000
10
111.33401
20
118.18800
30
87.00000
0
VERTEX
8
29_87000
10
111.13600
20
118.31200
30
87.00000
0
VERTEX
8
29_87000
10
109.92200
20
119.64500
30
87.00000
0
VERTEX
8
29_87000
10
109.13000
20
120.60500
30
87.00000
0
VERTEX
8
29_87000
10
108.97101
20
120.89500
30
87.00000
0
VERTEX
8
29_87000
10
107.89400
20
122.39201
30
87.00000
0
VERTEX
8
29_87000
10
107.46700
20
123.17001
30
87.00000
0
VERTEX
8
29_87000
10
107.21500
20
123.51900
30
87.00000
0
VERTEX
8
29_87000
10
106.27701
20
124.69701
30
87.00000
0
VERTEX
8
29_87000
10
106.18201
20
124.84200
30
87.00000
0
VERTEX
8
29_87000
10
103.12401
20
130.13600
30
87.00000
0
VERTEX
8
29_87000
10
103.04101
20
130.29901
30
87.00000
0
VERTEX
8
29_87000
10
102.85300
20
130.56801
30
87.00000
0
VERTEX
8
29_87000
10
101.64800
20
132.43600
30
87.00000
0
VERTEX
8
29_87000
10
101.20100
20
133.38800
30
87.00000
0
VERTEX
8
29_87000
10
100.38600
20
135.39000
30
87.00000
0
VERTEX
8
29_87000
10
100.16000
20
136.08000
30
87.00000
0
VERTEX
8
29_87000
10
99.97401
20
137.31500
30
87.00000
0
VERTEX
8
29_87000
10
99.36700
20
139.04701
30
87.00000
0
VERTEX
8
29_87000
10
99.21400
20
139.51801
30
87.00000
0
VERTEX
8
29_87000
10
98.75201
20
140.82001
30
87.00000
0
VERTEX
8
29_87000
10
98.62200
20
141.36801
30
87.00000
0
VERTEX
8
29_87000
10
98.58601
20
141.49200
30
87.00000
0
VERTEX
8
29_87000
10
98.45300
20
142.10501
30
87.00000
0
VERTEX
8
29_87000
10
98.40800
20
142.37500
30
87.00000
0
VERTEX
8
29_87000
10
98.39600
20
142.57501
30
87.00000
0
VERTEX
8
29_87000
10
98.43501
20
143.83900
30
87.00000
0
VERTEX
8
29_87000
10
98.67300
20
144.63400
30
87.00000
0
VERTEX
8
29_87000
10
98.76401
20
145.08200
30
87.00000
0
VERTEX
8
29_87000
10
99.14301
20
145.79601
30
87.00000
0
VERTEX
8
29_87000
10
99.30300
20
146.06900
30
87.00000
0
VERTEX
8
29_87000
10
99.62401
20
146.31601
30
87.00000
0
VERTEX
8
29_87000
10
100.11401
20
146.77800
30
87.00000
0
VERTEX
8
29_87000
10
100.25900
20
146.86501
30
87.00000
0
VERTEX
8
29_87000
10
100.85400
20
147.28700
30
87.00000
0
VERTEX
8
29_87000
10
101.38600
20
147.47301
30
87.00000
0
VERTEX
8
29_87000
10
103.35700
20
148.03101
30
87.00000
0
VERTEX
8
29_87000
10
104.62501
20
148.22601
30
87.00000
0
VERTEX
8
29_87000
10
104.87701
20
148.27301
30
87.00000
0
VERTEX
8
29_87000
10
105.58900
20
148.29501
30
87.00000
0
VERTEX
8
29_87000
10
106.18301
20
148.43401
30
87.00000
0
VERTEX
8
29_87000
10
106.41300
20
148.44301
30
87.00000
0
VERTEX
8
29_87000
10
106.91200
20
148.41701
30
87.00000
0
VERTEX
8
29_87000
10
107.19801
20
148.34601
30
87.00000
0
VERTEX
8
29_87000
10
108.84200
20
147.46400
30
87.00000
0
VERTEX
8
29_87000
10
109.03700
20
147.34401
30
87.00000
0
VERTEX
8
29_87000
10
109.42001
20
147.06601
30
87.00000
0
VERTEX
8
29_87000
10
109.69000
20
146.93301
30
87.00000
0
VERTEX
8
29_87000
10
110.48200
20
146.56500
30
87.00000
0
VERTEX
8
29_87000
10
111.77701
20
146.29201
30
87.00000
0
VERTEX
8
29_87000
10
112.57401
20
145.78500
30
87.00000
0
VERTEX
8
29_87000
10
112.82001
20
145.67201
30
87.00000
0
VERTEX
8
29_87000
10
114.13701
20
145.27501
30
87.00000
0
VERTEX
8
29_87000
10
114.45901
20
145.36801
30
87.00000
0
VERTEX
8
29_87000
10
114.63801
20
145.35101
30
87.00000
0
VERTEX
8
29_87000
10
114.79101
20
145.29501
30
87.00000
0
VERTEX
8
29_87000
10
115.21101
20
144.94501
30
87.00000
0
VERTEX
8
29_87000
10
115.58101
20
144.62001
30
87.00000
0
VERTEX
8
29_87000
10
115.88801
20
144.46001
30
87.00000
0
VERTEX
8
29_87000
10
116.03700
20
144.46001
30
87.00000
0
VERTEX
8
29_87000
10
116.51701
20
144.28300
30
87.00000
0
VERTEX
8
29_87000
10
117.11201
20
144.13101
30
87.00000
0
VERTEX
8
29_87000
10
117.20200
20
144.18901
30
87.00000
0
VERTEX
8
29_87000
10
117.30801
20
143.97101
30
87.00000
0
VERTEX
8
29_87000
10
117.39800
20
143.75401
30
87.00000
0
VERTEX
8
29_87000
10
117.49801
20
143.65800
30
87.00000
0
VERTEX
8
29_87000
10
117.54501
20
143.64401
30
87.00000
0
VERTEX
8
29_87000
10
117.74300
20
143.25101
30
87.00000
0
VERTEX
8
29_87000
10
117.89101
20
143.01701
30
87.00000
0
VERTEX
8
29_87000
10
118.10600
20
142.95401
30
87.00000
0
VERTEX
8
29_87000
10
118.66801
20
143.14301
30
87.00000
0
VERTEX
8
29_87000
10
118.91801
20
143.14401
30
87.00000
0
VERTEX
8
29_87000
10
119.57800
20
143.33101
30
87.00000
0
VERTEX
8
29_87000
10
119.60101
20
143.35101
30
87.00000
0
VERTEX
8
29_87000
10
119.77400
20
143.57800
30
87.00000
0
VERTEX
8
29_87000
10
119.94601
20
143.93100
30
87.00000
0
VERTEX
8
29_87000
10
120.15201
20
144.25000
30
87.00000
0
VERTEX
8
29_87000
10
122.00500
20
144.63701
30
87.00000
0
VERTEX
8
29_87000
10
122.36301
20
144.56001
30
87.00000
0
VERTEX
8
29_87000
10
122.67701
20
144.73700
30
87.00000
0
VERTEX
8
29_87000
10
122.76501
20
144.73601
30
87.00000
0
VERTEX
8
29_87000
10
123.54601
20
144.98901
30
87.00000
0
VERTEX
8
29_87000
10
123.75500
20
145.04800
30
87.00000
0
VERTEX
8
29_87000
10
123.86201
20
145.09100
30
87.00000
0
VERTEX
8
29_87000
10
123.98100
20
145.11101
30
87.00000
0
VERTEX
8
29_87000
10
125.22900
20
145.23300
30
87.00000
0
VERTEX
8
29_87000
10
125.77100
20
145.20601
30
87.00000
0
VERTEX
8
29_87000
10
125.87000
20
145.21701
30
87.00000
0
VERTEX
8
29_87000
10
127.60700
20
145.52101
30
87.00000
0
VERTEX
8
29_87000
10
127.86800
20
145.62500
30
87.00000
0
VERTEX
8
29_87000
10
127.95601
20
145.66901
30
87.00000
0
VERTEX
8
29_87000
10
128.02200
20
145.92601
30
87.00000
0
VERTEX
8
29_87000
10
128.21901
20
146.33400
30
87.00000
0
VERTEX
8
29_87000
10
128.50601
20
146.96301
30
87.00000
0
VERTEX
8
29_87000
10
128.56300
20
147.14301
30
87.00000
0
VERTEX
8
29_87000
10
128.72801
20
147.35701
30
87.00000
0
VERTEX
8
29_87000
10
128.90001
20
147.51500
30
87.00000
0
VERTEX
8
29_87000
10
129.23401
20
147.80101
30
87.00000
0
VERTEX
8
29_87000
10
129.40601
20
148.01701
30
87.00000
0
VERTEX
8
29_87000
10
130.13101
20
148.88101
30
87.00000
0
VERTEX
8
29_87000
10
130.77701
20
150.13101
30
87.00000
0
VERTEX
8
29_87000
10
130.92201
20
150.53500
30
87.00000
0
VERTEX
8
29_87000
10
131.00301
20
150.81801
30
87.00000
0
VERTEX
8
29_87000
10
131.18600
20
152.58801
30
87.00000
0
VERTEX
8
29_87000
10
131.34601
20
153.79800
30
87.00000
0
VERTEX
8
29_87000
10
131.46301
20
155.15701
30
87.00000
0
VERTEX
8
29_87000
10
131.46400
20
155.35800
30
87.00000
0
VERTEX
8
29_87000
10
131.56100
20
156.67201
30
87.00000
0
VERTEX
8
29_87000
10
131.56601
20
156.85301
30
87.00000
0
VERTEX
8
29_87000
10
131.57600
20
156.89401
30
87.00000
0
VERTEX
8
29_87000
10
131.67801
20
158.19901
30
87.00000
0
VERTEX
8
29_87000
10
131.92700
20
159.06700
30
87.00000
0
VERTEX
8
29_87000
10
131.93300
20
159.68401
30
87.00000
0
VERTEX
8
29_87000
10
131.96800
20
160.13200
30
87.00000
0
VERTEX
8
29_87000
10
132.03401
20
160.68301
30
87.00000
0
VERTEX
8
29_87000
10
132.06900
20
161.29501
30
87.00000
0
VERTEX
8
29_87000
10
131.97701
20
161.92801
30
87.00000
0
VERTEX
8
29_87000
10
131.90300
20
162.80701
30
87.00000
0
VERTEX
8
29_87000
10
131.82301
20
163.40001
30
87.00000
0
VERTEX
8
29_87000
10
131.83000
20
163.58301
30
87.00000
0
VERTEX
8
29_87000
10
131.90901
20
164.24001
30
87.00000
0
VERTEX
8
29_87000
10
131.75601
20
164.86401
30
87.00000
0
VERTEX
8
29_87000
10
131.69200
20
165.04401
30
87.00000
0
VERTEX
8
29_87000
10
131.64801
20
165.46400
30
87.00000
0
VERTEX
8
29_87000
10
131.64801
20
166.21301
30
87.00000
0
VERTEX
8
29_87000
10
131.38000
20
166.94501
30
87.00000
0
VERTEX
8
29_87000
10
130.56500
20
168.18800
30
87.00000
0
VERTEX
8
29_87000
10
129.95700
20
169.19200
30
87.00000
0
VERTEX
8
29_87000
10
128.44301
20
171.22202
30
87.00000
0
VERTEX
8
29_87000
10
127.67001
20
172.31401
30
87.00000
0
VERTEX
8
29_87000
10
127.29700
20
172.81700
30
87.00000
0
VERTEX
8
29_87000
10
125.24300
20
175.52200
30
87.00000
0
VERTEX
8
29_87000
10
124.74801
20
176.16801
30
87.00000
0
VERTEX
8
29_87000
10
124.41301
20
176.55701
30
87.00000
0
VERTEX
8
29_87000
10
123.43001
20
177.85501
30
87.00000
0
VERTEX
8
29_87000
10
122.64400
20
178.78700
30
87.00000
0
VERTEX
8
29_87000
10
101.77801
20
178.78700
30
87.00000
0
SEQEND
8
29_87000
0
ENDSEC
0
EOF
