0
SECTION
2
HEADER
9
$ACADVER
1
AC1009
0
ENDSEC
0
SECTION
2
TABLES
0
TABLE
2
LAYER
70
1
0
LAYER
2
11_33000
70
0
62
7
6
CONTINUOUS
0
ENDTAB
0
ENDSEC
0
SECTION
2
BLOCKS
0
ENDSEC
0
SECTION
2
ENTITIES
0
POLYLINE
8
11_33000
62
5
0
VERTEX
8
11_33000
10
20.39800
20
183.58601
30
33.00000
0
VERTEX
8
11_33000
10
156.49001
20
183.37401
30
33.00000
0
VERTEX
8
11_33000
10
20.39800
20
183.58601
30
33.00000
0
SEQEND
8
11_33000
0
POLYLINE
8
11_33000
62
5
0
VERTEX
8
11_33000
10
49.28600
20
183.89801
30
33.00000
0
VERTEX
8
11_33000
10
15.17800
20
184.06601
30
33.00000
0
VERTEX
8
11_33000
10
49.28600
20
183.89801
30
33.00000
0
SEQEND
8
11_33000
0
POLYLINE
8
11_33000
62
5
0
VERTEX
8
11_33000
10
121.44000
20
183.52400
30
33.00000
0
VERTEX
8
11_33000
10
16.29400
20
183.97401
30
33.00000
0
VERTEX
8
11_33000
10
16.23600
20
183.98201
30
33.00000
0
VERTEX
8
11_33000
10
121.44000
20
183.52400
30
33.00000
0
SEQEND
8
11_33000
0
POLYLINE
8
11_33000
62
5
0
VERTEX
8
11_33000
10
51.15100
20
182.08101
30
33.00000
0
VERTEX
8
11_33000
10
156.49001
20
183.37401
30
33.00000
0
VERTEX
8
11_33000
10
30.02200
20
181.81201
30
33.00000
0
VERTEX
8
11_33000
10
29.98200
20
181.82001
30
33.00000
0
VERTEX
8
11_33000
10
51.15100
20
182.08101
30
33.00000
0
SEQEND
8
11_33000
0
POLYLINE
8
11_33000
62
5
0
VERTEX
8
11_33000
10
120.91200
20
183.56001
30
33.00000
0
VERTEX
8
11_33000
10
14.18000
20
184.12001
30
33.00000
0
VERTEX
8
11_33000
10
14.01400
20
184.12801
30
33.00000
0
VERTEX
8
11_33000
10
120.91200
20
183.56001
30
33.00000
0
SEQEND
8
11_33000
0
POLYLINE
8
11_33000
62
5
0
VERTEX
8
11_33000
10
98.19601
20
181.70001
30
33.00000
0
VERTEX
8
11_33000
10
39.88800
20
180.02600
30
33.00000
0
VERTEX
8
11_33000
10
98.19601
20
181.70001
30
33.00000
0
SEQEND
8
11_33000
0
POLYLINE
8
11_33000
62
5
0
VERTEX
8
11_33000
10
9.79800
20
35.03700
30
33.00000
0
VERTEX
8
11_33000
10
10.06800
20
32.85600
30
33.00000
0
VERTEX
8
11_33000
10
10.16600
20
32.19600
30
33.00000
0
VERTEX
8
11_33000
10
10.98100
20
25.91200
30
33.00000
0
VERTEX
8
11_33000
10
11.11700
20
24.78400
30
33.00000
0
VERTEX
8
11_33000
10
11.18800
20
24.29200
30
33.00000
0
VERTEX
8
11_33000
10
11.43200
20
22.34600
30
33.00000
0
VERTEX
8
11_33000
10
11.78200
20
19.44200
30
33.00000
0
VERTEX
8
11_33000
10
11.96800
20
18.03200
30
33.00000
0
VERTEX
8
11_33000
10
12.08400
20
17.03500
30
33.00000
0
VERTEX
8
11_33000
10
12.59300
20
12.99100
30
33.00000
0
VERTEX
8
11_33000
10
13.20200
20
7.89500
30
33.00000
0
VERTEX
8
11_33000
10
13.54200
20
4.94000
30
33.00000
0
VERTEX
8
11_33000
10
13.59200
20
4.43800
30
33.00000
0
VERTEX
8
11_33000
10
13.80600
20
2.61000
30
33.00000
0
VERTEX
8
11_33000
10
14.09200
20
0.00600
30
33.00000
0
VERTEX
8
11_33000
10
158.53401
20
0.00600
30
33.00000
0
VERTEX
8
11_33000
10
158.60600
20
1.23800
30
33.00000
0
VERTEX
8
11_33000
10
158.65800
20
1.95200
30
33.00000
0
VERTEX
8
11_33000
10
158.71600
20
3.05000
30
33.00000
0
VERTEX
8
11_33000
10
158.80801
20
4.49800
30
33.00000
0
VERTEX
8
11_33000
10
158.83601
20
5.24400
30
33.00000
0
VERTEX
8
11_33000
10
159.03601
20
9.41500
30
33.00000
0
VERTEX
8
11_33000
10
159.17001
20
13.46000
30
33.00000
0
VERTEX
8
11_33000
10
159.17101
20
13.74300
30
33.00000
0
VERTEX
8
11_33000
10
159.22601
20
15.35400
30
33.00000
0
VERTEX
8
11_33000
10
159.24600
20
16.30600
30
33.00000
0
VERTEX
8
11_33000
10
159.28601
20
19.10300
30
33.00000
0
VERTEX
8
11_33000
10
159.33000
20
21.41200
30
33.00000
0
VERTEX
8
11_33000
10
159.32401
20
22.29600
30
33.00000
0
VERTEX
8
11_33000
10
159.32701
20
24.15200
30
33.00000
0
VERTEX
8
11_33000
10
159.31401
20
25.82400
30
33.00000
0
VERTEX
8
11_33000
10
159.26001
20
29.67500
30
33.00000
0
VERTEX
8
11_33000
10
159.19000
20
32.17400
30
33.00000
0
VERTEX
8
11_33000
10
159.16000
20
32.87600
30
33.00000
0
VERTEX
8
11_33000
10
159.11201
20
34.86200
30
33.00000
0
VERTEX
8
11_33000
10
158.98001
20
38.67600
30
33.00000
0
VERTEX
8
11_33000
10
158.93001
20
39.77200
30
33.00000
0
VERTEX
8
11_33000
10
158.85600
20
41.76800
30
33.00000
0
VERTEX
8
11_33000
10
158.71400
20
44.57600
30
33.00000
0
VERTEX
8
11_33000
10
158.59601
20
47.36200
30
33.00000
0
VERTEX
8
11_33000
10
158.55602
20
48.54800
30
33.00000
0
VERTEX
8
11_33000
10
158.55801
20
50.09600
30
33.00000
0
VERTEX
8
11_33000
10
158.62201
20
51.99800
30
33.00000
0
VERTEX
8
11_33000
10
158.62801
20
52.50300
30
33.00000
0
VERTEX
8
11_33000
10
158.62201
20
53.54800
30
33.00000
0
VERTEX
8
11_33000
10
158.59601
20
54.33600
30
33.00000
0
VERTEX
8
11_33000
10
158.57201
20
54.73600
30
33.00000
0
VERTEX
8
11_33000
10
158.50401
20
55.54400
30
33.00000
0
VERTEX
8
11_33000
10
158.45601
20
56.73000
30
33.00000
0
VERTEX
8
11_33000
10
158.40800
20
57.14000
30
33.00000
0
VERTEX
8
11_33000
10
158.33000
20
57.56200
30
33.00000
0
VERTEX
8
11_33000
10
158.33000
20
58.33400
30
33.00000
0
VERTEX
8
11_33000
10
158.31601
20
58.72800
30
33.00000
0
VERTEX
8
11_33000
10
158.27600
20
59.13000
30
33.00000
0
VERTEX
8
11_33000
10
158.17401
20
59.94800
30
33.00000
0
VERTEX
8
11_33000
10
158.10400
20
60.36400
30
33.00000
0
VERTEX
8
11_33000
10
158.04800
20
60.77200
30
33.00000
0
VERTEX
8
11_33000
10
158.02200
20
61.16800
30
33.00000
0
VERTEX
8
11_33000
10
157.97801
20
61.57200
30
33.00000
0
VERTEX
8
11_33000
10
157.94801
20
61.96800
30
33.00000
0
VERTEX
8
11_33000
10
157.88501
20
63.39100
30
33.00000
0
VERTEX
8
11_33000
10
157.84401
20
63.93200
30
33.00000
0
VERTEX
8
11_33000
10
157.79800
20
64.33400
30
33.00000
0
VERTEX
8
11_33000
10
157.69200
20
65.52200
30
33.00000
0
VERTEX
8
11_33000
10
157.65201
20
66.68600
30
33.00000
0
VERTEX
8
11_33000
10
157.61601
20
67.08400
30
33.00000
0
VERTEX
8
11_33000
10
157.62201
20
67.46201
30
33.00000
0
VERTEX
8
11_33000
10
157.60001
20
67.85400
30
33.00000
0
VERTEX
8
11_33000
10
157.53801
20
68.64001
30
33.00000
0
VERTEX
8
11_33000
10
157.51100
20
69.26400
30
33.00000
0
VERTEX
8
11_33000
10
157.45801
20
70.19601
30
33.00000
0
VERTEX
8
11_33000
10
157.42001
20
71.35201
30
33.00000
0
VERTEX
8
11_33000
10
157.37801
20
71.74600
30
33.00000
0
VERTEX
8
11_33000
10
157.35400
20
72.13400
30
33.00000
0
VERTEX
8
11_33000
10
157.34601
20
72.51801
30
33.00000
0
VERTEX
8
11_33000
10
157.32401
20
72.90401
30
33.00000
0
VERTEX
8
11_33000
10
157.30000
20
73.67400
30
33.00000
0
VERTEX
8
11_33000
10
157.22801
20
75.21600
30
33.00000
0
VERTEX
8
11_33000
10
157.18401
20
77.13200
30
33.00000
0
VERTEX
8
11_33000
10
157.15800
20
77.51801
30
33.00000
0
VERTEX
8
11_33000
10
157.18001
20
78.27400
30
33.00000
0
VERTEX
8
11_33000
10
157.17601
20
78.49900
30
33.00000
0
VERTEX
8
11_33000
10
157.14401
20
79.42600
30
33.00000
0
VERTEX
8
11_33000
10
157.09401
20
80.19601
30
33.00000
0
VERTEX
8
11_33000
10
157.10201
20
81.33200
30
33.00000
0
VERTEX
8
11_33000
10
157.06201
20
82.48000
30
33.00000
0
VERTEX
8
11_33000
10
157.01100
20
83.46900
30
33.00000
0
VERTEX
8
11_33000
10
156.95201
20
84.39600
30
33.00000
0
VERTEX
8
11_33000
10
156.96800
20
85.15200
30
33.00000
0
VERTEX
8
11_33000
10
156.96301
20
85.37300
30
33.00000
0
VERTEX
8
11_33000
10
156.93201
20
86.45500
30
33.00000
0
VERTEX
8
11_33000
10
156.90001
20
87.05601
30
33.00000
0
VERTEX
8
11_33000
10
156.86700
20
88.03700
30
33.00000
0
VERTEX
8
11_33000
10
156.86601
20
88.57800
30
33.00000
0
VERTEX
8
11_33000
10
156.90800
20
89.33401
30
33.00000
0
VERTEX
8
11_33000
10
156.90201
20
90.47201
30
33.00000
0
VERTEX
8
11_33000
10
156.94000
20
91.22800
30
33.00000
0
VERTEX
8
11_33000
10
156.94400
20
92.20700
30
33.00000
0
VERTEX
8
11_33000
10
156.93401
20
92.74600
30
33.00000
0
VERTEX
8
11_33000
10
156.93800
20
93.50600
30
33.00000
0
VERTEX
8
11_33000
10
156.92900
20
94.16200
30
33.00000
0
VERTEX
8
11_33000
10
156.90201
20
95.78201
30
33.00000
0
VERTEX
8
11_33000
10
156.86601
20
97.29800
30
33.00000
0
VERTEX
8
11_33000
10
156.90601
20
98.05801
30
33.00000
0
VERTEX
8
11_33000
10
156.89001
20
98.81600
30
33.00000
0
VERTEX
8
11_33000
10
156.90201
20
100.71201
30
33.00000
0
VERTEX
8
11_33000
10
156.91301
20
101.69100
30
33.00000
0
VERTEX
8
11_33000
10
156.94601
20
102.99200
30
33.00000
0
VERTEX
8
11_33000
10
156.95201
20
104.13200
30
33.00000
0
VERTEX
8
11_33000
10
156.94400
20
104.89001
30
33.00000
0
VERTEX
8
11_33000
10
156.95201
20
105.27000
30
33.00000
0
VERTEX
8
11_33000
10
156.96301
20
108.15000
30
33.00000
0
VERTEX
8
11_33000
10
156.99600
20
109.83201
30
33.00000
0
VERTEX
8
11_33000
10
156.98801
20
111.19301
30
33.00000
0
VERTEX
8
11_33000
10
157.02800
20
113.16501
30
33.00000
0
VERTEX
8
11_33000
10
157.04800
20
115.54401
30
33.00000
0
VERTEX
8
11_33000
10
157.15001
20
116.71400
30
33.00000
0
VERTEX
8
11_33000
10
157.16801
20
117.09601
30
33.00000
0
VERTEX
8
11_33000
10
157.16801
20
117.47800
30
33.00000
0
VERTEX
8
11_33000
10
157.13501
20
118.07401
30
33.00000
0
VERTEX
8
11_33000
10
157.11801
20
118.60400
30
33.00000
0
VERTEX
8
11_33000
10
157.13400
20
119.75201
30
33.00000
0
VERTEX
8
11_33000
10
157.13000
20
120.51201
30
33.00000
0
VERTEX
8
11_33000
10
157.14201
20
121.27601
30
33.00000
0
VERTEX
8
11_33000
10
157.18001
20
122.05201
30
33.00000
0
VERTEX
8
11_33000
10
157.20001
20
123.20000
30
33.00000
0
VERTEX
8
11_33000
10
157.29800
20
125.90401
30
33.00000
0
VERTEX
8
11_33000
10
157.35001
20
127.06801
30
33.00000
0
VERTEX
8
11_33000
10
157.41801
20
127.85801
30
33.00000
0
VERTEX
8
11_33000
10
157.42601
20
128.24400
30
33.00000
0
VERTEX
8
11_33000
10
157.47200
20
129.02800
30
33.00000
0
VERTEX
8
11_33000
10
157.46800
20
129.40800
30
33.00000
0
VERTEX
8
11_33000
10
157.51201
20
130.19200
30
33.00000
0
VERTEX
8
11_33000
10
157.52200
20
130.96201
30
33.00000
0
VERTEX
8
11_33000
10
157.56201
20
131.89000
30
33.00000
0
VERTEX
8
11_33000
10
157.62801
20
134.45401
30
33.00000
0
VERTEX
8
11_33000
10
157.72601
20
136.03801
30
33.00000
0
VERTEX
8
11_33000
10
157.74200
20
136.66701
30
33.00000
0
VERTEX
8
11_33000
10
157.76601
20
137.21001
30
33.00000
0
VERTEX
8
11_33000
10
157.80400
20
137.61200
30
33.00000
0
VERTEX
8
11_33000
10
157.80801
20
138.52301
30
33.00000
0
VERTEX
8
11_33000
10
157.80400
20
138.76201
30
33.00000
0
VERTEX
8
11_33000
10
157.74600
20
139.88200
30
33.00000
0
VERTEX
8
11_33000
10
157.66400
20
140.98401
30
33.00000
0
VERTEX
8
11_33000
10
157.54401
20
143.21001
30
33.00000
0
VERTEX
8
11_33000
10
157.39001
20
144.64201
30
33.00000
0
VERTEX
8
11_33000
10
157.32600
20
145.36401
30
33.00000
0
VERTEX
8
11_33000
10
157.22801
20
147.20401
30
33.00000
0
VERTEX
8
11_33000
10
157.18201
20
147.93600
30
33.00000
0
VERTEX
8
11_33000
10
157.17601
20
148.31201
30
33.00000
0
VERTEX
8
11_33000
10
157.09500
20
150.38101
30
33.00000
0
VERTEX
8
11_33000
10
157.07001
20
151.66000
30
33.00000
0
VERTEX
8
11_33000
10
157.00201
20
152.75201
30
33.00000
0
VERTEX
8
11_33000
10
157.00801
20
153.13400
30
33.00000
0
VERTEX
8
11_33000
10
156.99400
20
153.50401
30
33.00000
0
VERTEX
8
11_33000
10
156.96001
20
153.85800
30
33.00000
0
VERTEX
8
11_33000
10
156.95601
20
154.23401
30
33.00000
0
VERTEX
8
11_33000
10
156.88400
20
154.94000
30
33.00000
0
VERTEX
8
11_33000
10
156.85001
20
155.67201
30
33.00000
0
VERTEX
8
11_33000
10
156.78001
20
156.75401
30
33.00000
0
VERTEX
8
11_33000
10
156.73401
20
158.06700
30
33.00000
0
VERTEX
8
11_33000
10
156.65401
20
159.29601
30
33.00000
0
VERTEX
8
11_33000
10
156.62701
20
160.08200
30
33.00000
0
VERTEX
8
11_33000
10
156.59401
20
160.76401
30
33.00000
0
VERTEX
8
11_33000
10
156.58601
20
161.13600
30
33.00000
0
VERTEX
8
11_33000
10
156.52301
20
162.42201
30
33.00000
0
VERTEX
8
11_33000
10
156.40601
20
165.33501
30
33.00000
0
VERTEX
8
11_33000
10
156.38200
20
166.61401
30
33.00000
0
VERTEX
8
11_33000
10
156.34201
20
167.70601
30
33.00000
0
VERTEX
8
11_33000
10
156.35101
20
168.67500
30
33.00000
0
VERTEX
8
11_33000
10
156.34401
20
169.59201
30
33.00000
0
VERTEX
8
11_33000
10
156.37201
20
171.88000
30
33.00000
0
VERTEX
8
11_33000
10
156.40201
20
172.66000
30
33.00000
0
VERTEX
8
11_33000
10
156.42001
20
174.18800
30
33.00000
0
VERTEX
8
11_33000
10
156.45401
20
174.97801
30
33.00000
0
VERTEX
8
11_33000
10
156.46201
20
175.36401
30
33.00000
0
VERTEX
8
11_33000
10
156.46101
20
176.70001
30
33.00000
0
VERTEX
8
11_33000
10
156.44801
20
177.81700
30
33.00000
0
VERTEX
8
11_33000
10
156.45100
20
181.17500
30
33.00000
0
VERTEX
8
11_33000
10
156.45801
20
181.60101
30
33.00000
0
VERTEX
8
11_33000
10
156.48201
20
182.17401
30
33.00000
0
VERTEX
8
11_33000
10
156.47701
20
182.75601
30
33.00000
0
VERTEX
8
11_33000
10
156.49001
20
183.37401
30
33.00000
0
VERTEX
8
11_33000
10
10.57000
20
184.24600
30
33.00000
0
VERTEX
8
11_33000
10
10.51600
20
183.30801
30
33.00000
0
VERTEX
8
11_33000
10
10.45800
20
181.85800
30
33.00000
0
VERTEX
8
11_33000
10
10.32600
20
180.11201
30
33.00000
0
VERTEX
8
11_33000
10
10.26400
20
179.03601
30
33.00000
0
VERTEX
8
11_33000
10
10.05600
20
176.60001
30
33.00000
0
VERTEX
8
11_33000
10
9.86800
20
174.89401
30
33.00000
0
VERTEX
8
11_33000
10
9.81200
20
174.18800
30
33.00000
0
VERTEX
8
11_33000
10
9.69400
20
173.16602
30
33.00000
0
VERTEX
8
11_33000
10
9.28200
20
173.20401
30
33.00000
0
VERTEX
8
11_33000
10
9.23400
20
172.48201
30
33.00000
0
VERTEX
8
11_33000
10
9.15900
20
171.67201
30
33.00000
0
VERTEX
8
11_33000
10
9.00400
20
170.41000
30
33.00000
0
VERTEX
8
11_33000
10
8.90400
20
169.73801
30
33.00000
0
VERTEX
8
11_33000
10
8.68600
20
168.12401
30
33.00000
0
VERTEX
8
11_33000
10
8.44000
20
166.59001
30
33.00000
0
VERTEX
8
11_33000
10
8.29700
20
165.76601
30
33.00000
0
VERTEX
8
11_33000
10
8.09400
20
164.70601
30
33.00000
0
VERTEX
8
11_33000
10
7.88600
20
163.73001
30
33.00000
0
VERTEX
8
11_33000
10
7.50600
20
162.19801
30
33.00000
0
VERTEX
8
11_33000
10
7.40600
20
161.81201
30
33.00000
0
VERTEX
8
11_33000
10
7.13200
20
160.87401
30
33.00000
0
VERTEX
8
11_33000
10
7.02400
20
160.57001
30
33.00000
0
VERTEX
8
11_33000
10
6.85700
20
160.15302
30
33.00000
0
VERTEX
8
11_33000
10
7.10400
20
160.09100
30
33.00000
0
VERTEX
8
11_33000
10
7.83500
20
159.94801
30
33.00000
0
VERTEX
8
11_33000
10
8.07700
20
159.80801
30
33.00000
0
VERTEX
8
11_33000
10
9.14700
20
159.04001
30
33.00000
0
VERTEX
8
11_33000
10
9.48600
20
158.67700
30
33.00000
0
VERTEX
8
11_33000
10
9.72900
20
158.32301
30
33.00000
0
VERTEX
8
11_33000
10
10.32500
20
157.66901
30
33.00000
0
VERTEX
8
11_33000
10
11.39900
20
156.30801
30
33.00000
0
VERTEX
8
11_33000
10
11.56500
20
156.08301
30
33.00000
0
VERTEX
8
11_33000
10
11.67200
20
155.92001
30
33.00000
0
VERTEX
8
11_33000
10
12.12800
20
155.02800
30
33.00000
0
VERTEX
8
11_33000
10
12.59500
20
153.91501
30
33.00000
0
VERTEX
8
11_33000
10
12.77400
20
153.15601
30
33.00000
0
VERTEX
8
11_33000
10
12.85000
20
151.91400
30
33.00000
0
VERTEX
8
11_33000
10
12.64900
20
148.48801
30
33.00000
0
VERTEX
8
11_33000
10
12.67800
20
147.48801
30
33.00000
0
VERTEX
8
11_33000
10
12.85500
20
146.86801
30
33.00000
0
VERTEX
8
11_33000
10
12.91700
20
146.14401
30
33.00000
0
VERTEX
8
11_33000
10
12.96200
20
144.94501
30
33.00000
0
VERTEX
8
11_33000
10
13.01200
20
144.37001
30
33.00000
0
VERTEX
8
11_33000
10
13.01000
20
144.18501
30
33.00000
0
VERTEX
8
11_33000
10
13.02600
20
144.01500
30
33.00000
0
VERTEX
8
11_33000
10
12.93600
20
142.25401
30
33.00000
0
VERTEX
8
11_33000
10
12.87300
20
141.49701
30
33.00000
0
VERTEX
8
11_33000
10
12.61400
20
139.97400
30
33.00000
0
VERTEX
8
11_33000
10
12.30300
20
138.23500
30
33.00000
0
VERTEX
8
11_33000
10
12.23300
20
137.89101
30
33.00000
0
VERTEX
8
11_33000
10
11.81700
20
136.31500
30
33.00000
0
VERTEX
8
11_33000
10
11.33100
20
133.88901
30
33.00000
0
VERTEX
8
11_33000
10
10.87600
20
132.01401
30
33.00000
0
VERTEX
8
11_33000
10
10.54500
20
130.77901
30
33.00000
0
VERTEX
8
11_33000
10
10.32900
20
130.15001
30
33.00000
0
VERTEX
8
11_33000
10
9.96800
20
128.86900
30
33.00000
0
VERTEX
8
11_33000
10
9.59800
20
127.66901
30
33.00000
0
VERTEX
8
11_33000
10
9.44700
20
127.35101
30
33.00000
0
VERTEX
8
11_33000
10
9.28000
20
126.74500
30
33.00000
0
VERTEX
8
11_33000
10
9.08800
20
126.48601
30
33.00000
0
VERTEX
8
11_33000
10
9.00200
20
126.25001
30
33.00000
0
VERTEX
8
11_33000
10
8.80100
20
125.77100
30
33.00000
0
VERTEX
8
11_33000
10
8.71300
20
125.48501
30
33.00000
0
VERTEX
8
11_33000
10
8.64300
20
125.29301
30
33.00000
0
VERTEX
8
11_33000
10
8.58300
20
125.18800
30
33.00000
0
VERTEX
8
11_33000
10
8.34100
20
124.50001
30
33.00000
0
VERTEX
8
11_33000
10
7.85000
20
122.84801
30
33.00000
0
VERTEX
8
11_33000
10
7.63500
20
122.23301
30
33.00000
0
VERTEX
8
11_33000
10
6.89500
20
120.45601
30
33.00000
0
VERTEX
8
11_33000
10
5.94300
20
118.53700
30
33.00000
0
VERTEX
8
11_33000
10
5.55200
20
118.09000
30
33.00000
0
VERTEX
8
11_33000
10
5.29900
20
117.88000
30
33.00000
0
VERTEX
8
11_33000
10
5.52700
20
116.94801
30
33.00000
0
VERTEX
8
11_33000
10
5.99000
20
115.22201
30
33.00000
0
VERTEX
8
11_33000
10
6.08000
20
114.84400
30
33.00000
0
VERTEX
8
11_33000
10
6.16600
20
114.42600
30
33.00000
0
VERTEX
8
11_33000
10
6.37000
20
113.58000
30
33.00000
0
VERTEX
8
11_33000
10
6.69600
20
111.92600
30
33.00000
0
VERTEX
8
11_33000
10
6.82200
20
111.11001
30
33.00000
0
VERTEX
8
11_33000
10
6.99000
20
109.89800
30
33.00000
0
VERTEX
8
11_33000
10
7.35400
20
107.48601
30
33.00000
0
VERTEX
8
11_33000
10
7.40000
20
107.08801
30
33.00000
0
VERTEX
8
11_33000
10
7.43200
20
106.69401
30
33.00000
0
VERTEX
8
11_33000
10
7.56200
20
105.62501
30
33.00000
0
VERTEX
8
11_33000
10
7.63400
20
105.11001
30
33.00000
0
VERTEX
8
11_33000
10
7.69000
20
104.59300
30
33.00000
0
VERTEX
8
11_33000
10
7.74400
20
103.93201
30
33.00000
0
VERTEX
8
11_33000
10
7.77000
20
103.15401
30
33.00000
0
VERTEX
8
11_33000
10
7.79200
20
102.76401
30
33.00000
0
VERTEX
8
11_33000
10
7.98700
20
99.91200
30
33.00000
0
VERTEX
8
11_33000
10
8.04400
20
98.11001
30
33.00000
0
VERTEX
8
11_33000
10
8.08600
20
97.33601
30
33.00000
0
VERTEX
8
11_33000
10
8.10600
20
96.18001
30
33.00000
0
VERTEX
8
11_33000
10
8.13400
20
95.79601
30
33.00000
0
VERTEX
8
11_33000
10
8.18200
20
94.64001
30
33.00000
0
VERTEX
8
11_33000
10
8.19200
20
94.12000
30
33.00000
0
VERTEX
8
11_33000
10
8.24300
20
92.57900
30
33.00000
0
VERTEX
8
11_33000
10
8.25600
20
92.33200
30
33.00000
0
VERTEX
8
11_33000
10
8.31000
20
91.70801
30
33.00000
0
VERTEX
8
11_33000
10
8.41600
20
90.04000
30
33.00000
0
VERTEX
8
11_33000
10
8.42800
20
89.65601
30
33.00000
0
VERTEX
8
11_33000
10
8.41400
20
88.88800
30
33.00000
0
VERTEX
8
11_33000
10
8.46000
20
86.97601
30
33.00000
0
VERTEX
8
11_33000
10
8.49600
20
86.21201
30
33.00000
0
VERTEX
8
11_33000
10
8.49000
20
84.82401
30
33.00000
0
VERTEX
8
11_33000
10
8.45400
20
82.37400
30
33.00000
0
VERTEX
8
11_33000
10
8.40000
20
80.83000
30
33.00000
0
VERTEX
8
11_33000
10
8.41600
20
80.45000
30
33.00000
0
VERTEX
8
11_33000
10
8.41800
20
80.06600
30
33.00000
0
VERTEX
8
11_33000
10
8.39200
20
79.29401
30
33.00000
0
VERTEX
8
11_33000
10
8.40800
20
76.99800
30
33.00000
0
VERTEX
8
11_33000
10
8.38400
20
76.22200
30
33.00000
0
VERTEX
8
11_33000
10
8.41000
20
75.46400
30
33.00000
0
VERTEX
8
11_33000
10
8.41000
20
73.93000
30
33.00000
0
VERTEX
8
11_33000
10
8.42200
20
73.16400
30
33.00000
0
VERTEX
8
11_33000
10
8.40000
20
71.62200
30
33.00000
0
VERTEX
8
11_33000
10
8.43800
20
70.48400
30
33.00000
0
VERTEX
8
11_33000
10
8.44600
20
68.95600
30
33.00000
0
VERTEX
8
11_33000
10
8.43800
20
67.41801
30
33.00000
0
VERTEX
8
11_33000
10
8.40600
20
65.00301
30
33.00000
0
VERTEX
8
11_33000
10
8.37800
20
61.63800
30
33.00000
0
VERTEX
8
11_33000
10
8.33400
20
60.08200
30
33.00000
0
VERTEX
8
11_33000
10
8.33600
20
59.31600
30
33.00000
0
VERTEX
8
11_33000
10
8.36200
20
58.55800
30
33.00000
0
VERTEX
8
11_33000
10
8.36000
20
58.17600
30
33.00000
0
VERTEX
8
11_33000
10
8.37400
20
57.17200
30
33.00000
0
VERTEX
8
11_33000
10
8.40200
20
55.89600
30
33.00000
0
VERTEX
8
11_33000
10
8.40200
20
55.13000
30
33.00000
0
VERTEX
8
11_33000
10
8.42000
20
53.84600
30
33.00000
0
VERTEX
8
11_33000
10
8.46800
20
52.38800
30
33.00000
0
VERTEX
8
11_33000
10
8.49200
20
51.34800
30
33.00000
0
VERTEX
8
11_33000
10
8.58800
20
48.73000
30
33.00000
0
VERTEX
8
11_33000
10
8.63100
20
47.75900
30
33.00000
0
VERTEX
8
11_33000
10
8.71600
20
46.14200
30
33.00000
0
VERTEX
8
11_33000
10
8.80800
20
44.68000
30
33.00000
0
VERTEX
8
11_33000
10
9.03400
20
42.02600
30
33.00000
0
VERTEX
8
11_33000
10
9.32200
20
38.99400
30
33.00000
0
VERTEX
8
11_33000
10
9.62400
20
36.39100
30
33.00000
0
VERTEX
8
11_33000
10
9.79800
20
35.03700
30
33.00000
0
SEQEND
8
11_33000
0
ENDSEC
0
EOF
