0
SECTION
2
HEADER
9
$ACADVER
1
AC1009
0
ENDSEC
0
SECTION
2
TABLES
0
TABLE
2
LAYER
70
1
0
LAYER
2
18_54000
70
0
62
7
6
CONTINUOUS
0
ENDTAB
0
ENDSEC
0
SECTION
2
BLOCKS
0
ENDSEC
0
SECTION
2
ENTITIES
0
POLYLINE
8
18_54000
62
5
0
VERTEX
8
18_54000
10
15.11000
20
184.11501
30
54.00000
0
VERTEX
8
18_54000
10
14.17700
20
184.12001
30
54.00000
0
VERTEX
8
18_54000
10
14.01400
20
184.12801
30
54.00000
0
VERTEX
8
18_54000
10
16.89100
20
184.11301
30
54.00000
0
VERTEX
8
18_54000
10
156.49001
20
183.37401
30
54.00000
0
VERTEX
8
18_54000
10
15.11000
20
184.11501
30
54.00000
0
SEQEND
8
18_54000
0
POLYLINE
8
18_54000
62
5
0
VERTEX
8
18_54000
10
17.93400
20
183.96701
30
54.00000
0
VERTEX
8
18_54000
10
16.29200
20
183.97401
30
54.00000
0
VERTEX
8
18_54000
10
16.23600
20
183.98201
30
54.00000
0
VERTEX
8
18_54000
10
156.49001
20
183.37401
30
54.00000
0
VERTEX
8
18_54000
10
17.93400
20
183.96701
30
54.00000
0
SEQEND
8
18_54000
0
POLYLINE
8
18_54000
62
5
0
VERTEX
8
18_54000
10
16.38800
20
184.05602
30
54.00000
0
VERTEX
8
18_54000
10
83.35600
20
183.73201
30
54.00000
0
VERTEX
8
18_54000
10
16.38800
20
184.05602
30
54.00000
0
SEQEND
8
18_54000
0
POLYLINE
8
18_54000
62
5
0
VERTEX
8
18_54000
10
23.73900
20
183.58101
30
54.00000
0
VERTEX
8
18_54000
10
156.49001
20
183.37401
30
54.00000
0
VERTEX
8
18_54000
10
23.73900
20
183.58101
30
54.00000
0
SEQEND
8
18_54000
0
POLYLINE
8
18_54000
62
5
0
VERTEX
8
18_54000
10
98.19601
20
181.70001
30
54.00000
0
VERTEX
8
18_54000
10
39.88800
20
180.02600
30
54.00000
0
VERTEX
8
18_54000
10
98.19601
20
181.70001
30
54.00000
0
SEQEND
8
18_54000
0
POLYLINE
8
18_54000
62
5
0
VERTEX
8
18_54000
10
30.02200
20
181.81201
30
54.00000
0
VERTEX
8
18_54000
10
29.98200
20
181.82001
30
54.00000
0
VERTEX
8
18_54000
10
156.49001
20
183.37401
30
54.00000
0
VERTEX
8
18_54000
10
30.02200
20
181.81201
30
54.00000
0
SEQEND
8
18_54000
0
POLYLINE
8
18_54000
62
5
0
VERTEX
8
18_54000
10
9.81100
20
34.92100
30
54.00000
0
VERTEX
8
18_54000
10
10.06800
20
32.85600
30
54.00000
0
VERTEX
8
18_54000
10
10.16600
20
32.19600
30
54.00000
0
VERTEX
8
18_54000
10
10.98200
20
25.90600
30
54.00000
0
VERTEX
8
18_54000
10
11.12900
20
24.68600
30
54.00000
0
VERTEX
8
18_54000
10
11.18800
20
24.29200
30
54.00000
0
VERTEX
8
18_54000
10
11.62000
20
20.81400
30
54.00000
0
VERTEX
8
18_54000
10
11.78200
20
19.44200
30
54.00000
0
VERTEX
8
18_54000
10
11.97900
20
17.94300
30
54.00000
0
VERTEX
8
18_54000
10
12.07300
20
17.12300
30
54.00000
0
VERTEX
8
18_54000
10
12.60300
20
12.90800
30
54.00000
0
VERTEX
8
18_54000
10
13.22100
20
7.73900
30
54.00000
0
VERTEX
8
18_54000
10
13.99100
20
0.97800
30
54.00000
0
VERTEX
8
18_54000
10
14.09200
20
0.00600
30
54.00000
0
VERTEX
8
18_54000
10
136.52200
20
0.00600
30
54.00000
0
VERTEX
8
18_54000
10
135.80301
20
1.08400
30
54.00000
0
VERTEX
8
18_54000
10
134.99800
20
2.22900
30
54.00000
0
VERTEX
8
18_54000
10
134.90001
20
2.34400
30
54.00000
0
VERTEX
8
18_54000
10
134.33801
20
3.13600
30
54.00000
0
VERTEX
8
18_54000
10
133.65201
20
4.21000
30
54.00000
0
VERTEX
8
18_54000
10
133.23401
20
4.88800
30
54.00000
0
VERTEX
8
18_54000
10
132.42601
20
6.29800
30
54.00000
0
VERTEX
8
18_54000
10
132.37100
20
6.44100
30
54.00000
0
VERTEX
8
18_54000
10
131.09601
20
9.05200
30
54.00000
0
VERTEX
8
18_54000
10
130.56900
20
10.35900
30
54.00000
0
VERTEX
8
18_54000
10
130.54901
20
10.41500
30
54.00000
0
VERTEX
8
18_54000
10
130.52701
20
10.56800
30
54.00000
0
VERTEX
8
18_54000
10
130.36700
20
11.06100
30
54.00000
0
VERTEX
8
18_54000
10
130.47900
20
11.33300
30
54.00000
0
VERTEX
8
18_54000
10
130.49400
20
11.57100
30
54.00000
0
VERTEX
8
18_54000
10
130.66301
20
11.87600
30
54.00000
0
VERTEX
8
18_54000
10
130.73300
20
12.13400
30
54.00000
0
VERTEX
8
18_54000
10
130.85201
20
12.29400
30
54.00000
0
VERTEX
8
18_54000
10
130.92900
20
12.55200
30
54.00000
0
VERTEX
8
18_54000
10
131.13800
20
12.98900
30
54.00000
0
VERTEX
8
18_54000
10
131.20500
20
13.10600
30
54.00000
0
VERTEX
8
18_54000
10
131.25601
20
13.24300
30
54.00000
0
VERTEX
8
18_54000
10
132.33000
20
15.33400
30
54.00000
0
VERTEX
8
18_54000
10
132.36101
20
15.42400
30
54.00000
0
VERTEX
8
18_54000
10
132.41101
20
15.50900
30
54.00000
0
VERTEX
8
18_54000
10
132.59500
20
15.91800
30
54.00000
0
VERTEX
8
18_54000
10
133.41800
20
17.81600
30
54.00000
0
VERTEX
8
18_54000
10
133.84900
20
18.88200
30
54.00000
0
VERTEX
8
18_54000
10
134.14500
20
19.49500
30
54.00000
0
VERTEX
8
18_54000
10
134.29901
20
19.89200
30
54.00000
0
VERTEX
8
18_54000
10
134.66101
20
20.63500
30
54.00000
0
VERTEX
8
18_54000
10
135.16101
20
21.82100
30
54.00000
0
VERTEX
8
18_54000
10
135.59401
20
22.77100
30
54.00000
0
VERTEX
8
18_54000
10
135.72801
20
23.04100
30
54.00000
0
VERTEX
8
18_54000
10
136.25801
20
23.71600
30
54.00000
0
VERTEX
8
18_54000
10
136.39700
20
23.87800
30
54.00000
0
VERTEX
8
18_54000
10
136.65800
20
24.27900
30
54.00000
0
VERTEX
8
18_54000
10
136.98601
20
24.80000
30
54.00000
0
VERTEX
8
18_54000
10
137.26201
20
25.28000
30
54.00000
0
VERTEX
8
18_54000
10
137.51701
20
25.74700
30
54.00000
0
VERTEX
8
18_54000
10
137.83301
20
26.22900
30
54.00000
0
VERTEX
8
18_54000
10
138.31500
20
27.06900
30
54.00000
0
VERTEX
8
18_54000
10
138.34700
20
27.14400
30
54.00000
0
VERTEX
8
18_54000
10
138.54701
20
27.47300
30
54.00000
0
VERTEX
8
18_54000
10
139.06500
20
28.60300
30
54.00000
0
VERTEX
8
18_54000
10
139.61900
20
29.73000
30
54.00000
0
VERTEX
8
18_54000
10
140.77901
20
32.04900
30
54.00000
0
VERTEX
8
18_54000
10
140.94901
20
32.34900
30
54.00000
0
VERTEX
8
18_54000
10
141.25201
20
32.92600
30
54.00000
0
VERTEX
8
18_54000
10
141.43001
20
33.38500
30
54.00000
0
VERTEX
8
18_54000
10
141.65001
20
34.01700
30
54.00000
0
VERTEX
8
18_54000
10
142.06201
20
34.71800
30
54.00000
0
VERTEX
8
18_54000
10
142.17300
20
35.01100
30
54.00000
0
VERTEX
8
18_54000
10
142.63400
20
35.92100
30
54.00000
0
VERTEX
8
18_54000
10
142.78300
20
36.15000
30
54.00000
0
VERTEX
8
18_54000
10
143.01500
20
36.68400
30
54.00000
0
VERTEX
8
18_54000
10
143.13901
20
36.93800
30
54.00000
0
VERTEX
8
18_54000
10
143.23700
20
37.09100
30
54.00000
0
VERTEX
8
18_54000
10
143.43100
20
37.57300
30
54.00000
0
VERTEX
8
18_54000
10
143.53300
20
37.70000
30
54.00000
0
VERTEX
8
18_54000
10
143.69601
20
37.92500
30
54.00000
0
VERTEX
8
18_54000
10
143.90901
20
38.38700
30
54.00000
0
VERTEX
8
18_54000
10
144.14401
20
38.84700
30
54.00000
0
VERTEX
8
18_54000
10
144.28601
20
39.06800
30
54.00000
0
VERTEX
8
18_54000
10
144.55200
20
39.61100
30
54.00000
0
VERTEX
8
18_54000
10
144.63000
20
39.86200
30
54.00000
0
VERTEX
8
18_54000
10
144.78801
20
39.99400
30
54.00000
0
VERTEX
8
18_54000
10
144.87100
20
40.18600
30
54.00000
0
VERTEX
8
18_54000
10
144.89900
20
40.35000
30
54.00000
0
VERTEX
8
18_54000
10
144.92801
20
40.37800
30
54.00000
0
VERTEX
8
18_54000
10
145.17801
20
41.74800
30
54.00000
0
VERTEX
8
18_54000
10
145.14801
20
41.90500
30
54.00000
0
VERTEX
8
18_54000
10
145.57101
20
42.71300
30
54.00000
0
VERTEX
8
18_54000
10
145.71701
20
42.89000
30
54.00000
0
VERTEX
8
18_54000
10
145.97301
20
43.30400
30
54.00000
0
VERTEX
8
18_54000
10
146.11401
20
43.80500
30
54.00000
0
VERTEX
8
18_54000
10
146.15800
20
44.01700
30
54.00000
0
VERTEX
8
18_54000
10
146.22601
20
44.08000
30
54.00000
0
VERTEX
8
18_54000
10
146.25801
20
44.29800
30
54.00000
0
VERTEX
8
18_54000
10
146.32901
20
44.46200
30
54.00000
0
VERTEX
8
18_54000
10
146.53401
20
44.86200
30
54.00000
0
VERTEX
8
18_54000
10
146.59201
20
45.10100
30
54.00000
0
VERTEX
8
18_54000
10
146.80701
20
45.74500
30
54.00000
0
VERTEX
8
18_54000
10
146.93201
20
46.03200
30
54.00000
0
VERTEX
8
18_54000
10
147.00801
20
46.43800
30
54.00000
0
VERTEX
8
18_54000
10
147.11501
20
46.73900
30
54.00000
0
VERTEX
8
18_54000
10
147.57701
20
47.30600
30
54.00000
0
VERTEX
8
18_54000
10
147.66400
20
47.43900
30
54.00000
0
VERTEX
8
18_54000
10
147.85501
20
47.83600
30
54.00000
0
VERTEX
8
18_54000
10
147.97000
20
48.14300
30
54.00000
0
VERTEX
8
18_54000
10
148.21001
20
49.54800
30
54.00000
0
VERTEX
8
18_54000
10
148.29001
20
49.88900
30
54.00000
0
VERTEX
8
18_54000
10
148.62201
20
50.91300
30
54.00000
0
VERTEX
8
18_54000
10
148.64801
20
50.94200
30
54.00000
0
VERTEX
8
18_54000
10
148.73100
20
51.15300
30
54.00000
0
VERTEX
8
18_54000
10
149.00700
20
51.62200
30
54.00000
0
VERTEX
8
18_54000
10
149.16101
20
51.96600
30
54.00000
0
VERTEX
8
18_54000
10
149.25500
20
52.44800
30
54.00000
0
VERTEX
8
18_54000
10
149.50000
20
53.12100
30
54.00000
0
VERTEX
8
18_54000
10
150.03101
20
54.37800
30
54.00000
0
VERTEX
8
18_54000
10
150.12701
20
54.58100
30
54.00000
0
VERTEX
8
18_54000
10
150.62300
20
55.47200
30
54.00000
0
VERTEX
8
18_54000
10
150.68600
20
55.53100
30
54.00000
0
VERTEX
8
18_54000
10
150.71701
20
55.65400
30
54.00000
0
VERTEX
8
18_54000
10
150.80701
20
55.91100
30
54.00000
0
VERTEX
8
18_54000
10
150.97501
20
56.13900
30
54.00000
0
VERTEX
8
18_54000
10
151.04701
20
56.32700
30
54.00000
0
VERTEX
8
18_54000
10
151.19000
20
56.62300
30
54.00000
0
VERTEX
8
18_54000
10
151.47501
20
57.46000
30
54.00000
0
VERTEX
8
18_54000
10
151.53201
20
57.59200
30
54.00000
0
VERTEX
8
18_54000
10
152.00000
20
58.40900
30
54.00000
0
VERTEX
8
18_54000
10
152.16301
20
58.78800
30
54.00000
0
VERTEX
8
18_54000
10
152.29501
20
59.05400
30
54.00000
0
VERTEX
8
18_54000
10
152.50301
20
59.34100
30
54.00000
0
VERTEX
8
18_54000
10
152.53300
20
59.48400
30
54.00000
0
VERTEX
8
18_54000
10
152.69301
20
59.83600
30
54.00000
0
VERTEX
8
18_54000
10
153.29601
20
61.36600
30
54.00000
0
VERTEX
8
18_54000
10
153.55400
20
61.93000
30
54.00000
0
VERTEX
8
18_54000
10
153.59700
20
61.96300
30
54.00000
0
VERTEX
8
18_54000
10
153.67700
20
62.15900
30
54.00000
0
VERTEX
8
18_54000
10
154.08900
20
63.09100
30
54.00000
0
VERTEX
8
18_54000
10
154.35600
20
63.91700
30
54.00000
0
VERTEX
8
18_54000
10
154.56401
20
64.23700
30
54.00000
0
VERTEX
8
18_54000
10
155.12601
20
65.00301
30
54.00000
0
VERTEX
8
18_54000
10
155.61601
20
65.63900
30
54.00000
0
VERTEX
8
18_54000
10
155.63600
20
65.63900
30
54.00000
0
VERTEX
8
18_54000
10
155.79501
20
65.81600
30
54.00000
0
VERTEX
8
18_54000
10
156.08601
20
66.11401
30
54.00000
0
VERTEX
8
18_54000
10
156.18701
20
66.26900
30
54.00000
0
VERTEX
8
18_54000
10
156.39201
20
66.71500
30
54.00000
0
VERTEX
8
18_54000
10
156.72401
20
67.50900
30
54.00000
0
VERTEX
8
18_54000
10
156.86501
20
68.02901
30
54.00000
0
VERTEX
8
18_54000
10
156.93401
20
68.08200
30
54.00000
0
VERTEX
8
18_54000
10
156.96001
20
68.16400
30
54.00000
0
VERTEX
8
18_54000
10
157.01701
20
68.27300
30
54.00000
0
VERTEX
8
18_54000
10
157.27301
20
68.94200
30
54.00000
0
VERTEX
8
18_54000
10
157.31300
20
69.01801
30
54.00000
0
VERTEX
8
18_54000
10
157.40201
20
69.42001
30
54.00000
0
VERTEX
8
18_54000
10
157.49001
20
69.64900
30
54.00000
0
VERTEX
8
18_54000
10
157.45801
20
70.19601
30
54.00000
0
VERTEX
8
18_54000
10
157.42001
20
71.35201
30
54.00000
0
VERTEX
8
18_54000
10
157.37801
20
71.74100
30
54.00000
0
VERTEX
8
18_54000
10
157.35400
20
72.12901
30
54.00000
0
VERTEX
8
18_54000
10
157.34601
20
72.51801
30
54.00000
0
VERTEX
8
18_54000
10
157.32401
20
72.89700
30
54.00000
0
VERTEX
8
18_54000
10
157.30000
20
73.67400
30
54.00000
0
VERTEX
8
18_54000
10
157.22801
20
75.21600
30
54.00000
0
VERTEX
8
18_54000
10
157.18401
20
77.13200
30
54.00000
0
VERTEX
8
18_54000
10
157.15800
20
77.51801
30
54.00000
0
VERTEX
8
18_54000
10
157.18001
20
78.27400
30
54.00000
0
VERTEX
8
18_54000
10
157.17401
20
78.64201
30
54.00000
0
VERTEX
8
18_54000
10
157.14500
20
79.41300
30
54.00000
0
VERTEX
8
18_54000
10
157.09401
20
80.19601
30
54.00000
0
VERTEX
8
18_54000
10
157.10201
20
81.33200
30
54.00000
0
VERTEX
8
18_54000
10
157.06201
20
82.48000
30
54.00000
0
VERTEX
8
18_54000
10
157.00000
20
83.66500
30
54.00000
0
VERTEX
8
18_54000
10
156.95201
20
84.39600
30
54.00000
0
VERTEX
8
18_54000
10
156.96800
20
85.15200
30
54.00000
0
VERTEX
8
18_54000
10
156.96001
20
85.51401
30
54.00000
0
VERTEX
8
18_54000
10
156.92401
20
86.67600
30
54.00000
0
VERTEX
8
18_54000
10
156.90001
20
87.05601
30
54.00000
0
VERTEX
8
18_54000
10
156.86201
20
88.22301
30
54.00000
0
VERTEX
8
18_54000
10
156.86601
20
88.57800
30
54.00000
0
VERTEX
8
18_54000
10
156.90800
20
89.33401
30
54.00000
0
VERTEX
8
18_54000
10
156.90201
20
90.47201
30
54.00000
0
VERTEX
8
18_54000
10
156.94000
20
91.22800
30
54.00000
0
VERTEX
8
18_54000
10
156.94400
20
92.30701
30
54.00000
0
VERTEX
8
18_54000
10
156.93401
20
92.74600
30
54.00000
0
VERTEX
8
18_54000
10
156.93800
20
93.50600
30
54.00000
0
VERTEX
8
18_54000
10
156.92300
20
94.58000
30
54.00000
0
VERTEX
8
18_54000
10
156.86601
20
97.29800
30
54.00000
0
VERTEX
8
18_54000
10
156.90601
20
98.05801
30
54.00000
0
VERTEX
8
18_54000
10
156.89001
20
98.81600
30
54.00000
0
VERTEX
8
18_54000
10
156.89001
20
99.17200
30
54.00000
0
VERTEX
8
18_54000
10
156.91501
20
101.78900
30
54.00000
0
VERTEX
8
18_54000
10
156.94601
20
102.97201
30
54.00000
0
VERTEX
8
18_54000
10
156.95201
20
104.13200
30
54.00000
0
VERTEX
8
18_54000
10
156.94400
20
104.89001
30
54.00000
0
VERTEX
8
18_54000
10
156.96001
20
106.39001
30
54.00000
0
VERTEX
8
18_54000
10
156.96400
20
108.29101
30
54.00000
0
VERTEX
8
18_54000
10
156.99600
20
109.83201
30
54.00000
0
VERTEX
8
18_54000
10
156.98801
20
111.33401
30
54.00000
0
VERTEX
8
18_54000
10
157.01801
20
112.49600
30
54.00000
0
VERTEX
8
18_54000
10
157.03601
20
113.65900
30
54.00000
0
VERTEX
8
18_54000
10
157.03201
20
114.02000
30
54.00000
0
VERTEX
8
18_54000
10
157.04800
20
115.54401
30
54.00000
0
VERTEX
8
18_54000
10
157.14700
20
116.67500
30
54.00000
0
VERTEX
8
18_54000
10
157.16801
20
117.09601
30
54.00000
0
VERTEX
8
18_54000
10
157.16801
20
117.47800
30
54.00000
0
VERTEX
8
18_54000
10
157.12901
20
118.20100
30
54.00000
0
VERTEX
8
18_54000
10
157.11801
20
118.60400
30
54.00000
0
VERTEX
8
18_54000
10
157.13400
20
119.75201
30
54.00000
0
VERTEX
8
18_54000
10
157.13000
20
120.51201
30
54.00000
0
VERTEX
8
18_54000
10
157.14201
20
121.27601
30
54.00000
0
VERTEX
8
18_54000
10
157.18001
20
122.05201
30
54.00000
0
VERTEX
8
18_54000
10
157.19901
20
123.17801
30
54.00000
0
VERTEX
8
18_54000
10
157.27600
20
125.12601
30
54.00000
0
VERTEX
8
18_54000
10
157.29701
20
125.88200
30
54.00000
0
VERTEX
8
18_54000
10
157.35001
20
127.06801
30
54.00000
0
VERTEX
8
18_54000
10
157.41801
20
127.85801
30
54.00000
0
VERTEX
8
18_54000
10
157.42601
20
128.24901
30
54.00000
0
VERTEX
8
18_54000
10
157.47200
20
129.02800
30
54.00000
0
VERTEX
8
18_54000
10
157.46800
20
129.40800
30
54.00000
0
VERTEX
8
18_54000
10
157.49301
20
129.87700
30
54.00000
0
VERTEX
8
18_54000
10
157.38400
20
130.18201
30
54.00000
0
VERTEX
8
18_54000
10
157.19701
20
130.79501
30
54.00000
0
VERTEX
8
18_54000
10
157.17601
20
130.94801
30
54.00000
0
VERTEX
8
18_54000
10
157.04401
20
131.40500
30
54.00000
0
VERTEX
8
18_54000
10
156.95901
20
131.60101
30
54.00000
0
VERTEX
8
18_54000
10
156.92201
20
131.71001
30
54.00000
0
VERTEX
8
18_54000
10
156.90501
20
131.87201
30
54.00000
0
VERTEX
8
18_54000
10
156.95401
20
132.29100
30
54.00000
0
VERTEX
8
18_54000
10
156.90100
20
132.45300
30
54.00000
0
VERTEX
8
18_54000
10
156.37601
20
134.47200
30
54.00000
0
VERTEX
8
18_54000
10
156.20500
20
135.20201
30
54.00000
0
VERTEX
8
18_54000
10
156.18901
20
135.24501
30
54.00000
0
VERTEX
8
18_54000
10
156.04001
20
136.80901
30
54.00000
0
VERTEX
8
18_54000
10
155.96800
20
137.17401
30
54.00000
0
VERTEX
8
18_54000
10
156.03500
20
137.44501
30
54.00000
0
VERTEX
8
18_54000
10
155.94901
20
138.05801
30
54.00000
0
VERTEX
8
18_54000
10
155.86900
20
138.43301
30
54.00000
0
VERTEX
8
18_54000
10
155.92601
20
139.05501
30
54.00000
0
VERTEX
8
18_54000
10
156.04100
20
139.57600
30
54.00000
0
VERTEX
8
18_54000
10
156.40501
20
140.69400
30
54.00000
0
VERTEX
8
18_54000
10
156.57501
20
141.15201
30
54.00000
0
VERTEX
8
18_54000
10
156.62300
20
141.39601
30
54.00000
0
VERTEX
8
18_54000
10
156.89900
20
142.41101
30
54.00000
0
VERTEX
8
18_54000
10
156.99501
20
142.66501
30
54.00000
0
VERTEX
8
18_54000
10
157.02901
20
142.78201
30
54.00000
0
VERTEX
8
18_54000
10
157.38600
20
143.60901
30
54.00000
0
VERTEX
8
18_54000
10
157.48801
20
143.76500
30
54.00000
0
VERTEX
8
18_54000
10
157.39001
20
144.64201
30
54.00000
0
VERTEX
8
18_54000
10
157.32600
20
145.36401
30
54.00000
0
VERTEX
8
18_54000
10
157.28201
20
146.08801
30
54.00000
0
VERTEX
8
18_54000
10
157.22801
20
147.20401
30
54.00000
0
VERTEX
8
18_54000
10
157.18301
20
147.91400
30
54.00000
0
VERTEX
8
18_54000
10
157.17601
20
148.31201
30
54.00000
0
VERTEX
8
18_54000
10
157.08900
20
150.51801
30
54.00000
0
VERTEX
8
18_54000
10
157.07001
20
151.66000
30
54.00000
0
VERTEX
8
18_54000
10
157.00201
20
152.75201
30
54.00000
0
VERTEX
8
18_54000
10
157.00801
20
153.13400
30
54.00000
0
VERTEX
8
18_54000
10
156.99501
20
153.48601
30
54.00000
0
VERTEX
8
18_54000
10
156.96001
20
153.85800
30
54.00000
0
VERTEX
8
18_54000
10
156.95601
20
154.23401
30
54.00000
0
VERTEX
8
18_54000
10
156.91600
20
154.56500
30
54.00000
0
VERTEX
8
18_54000
10
156.86301
20
155.28001
30
54.00000
0
VERTEX
8
18_54000
10
156.85001
20
155.67201
30
54.00000
0
VERTEX
8
18_54000
10
156.78001
20
156.75401
30
54.00000
0
VERTEX
8
18_54000
10
156.72701
20
158.19801
30
54.00000
0
VERTEX
8
18_54000
10
156.70001
20
158.52600
30
54.00000
0
VERTEX
8
18_54000
10
156.65401
20
159.29601
30
54.00000
0
VERTEX
8
18_54000
10
156.61801
20
160.34401
30
54.00000
0
VERTEX
8
18_54000
10
156.59401
20
160.76401
30
54.00000
0
VERTEX
8
18_54000
10
156.58601
20
161.13600
30
54.00000
0
VERTEX
8
18_54000
10
156.51701
20
162.55101
30
54.00000
0
VERTEX
8
18_54000
10
156.49600
20
163.21800
30
54.00000
0
VERTEX
8
18_54000
10
156.47000
20
163.67601
30
54.00000
0
VERTEX
8
18_54000
10
156.41200
20
165.13400
30
54.00000
0
VERTEX
8
18_54000
10
156.38200
20
166.61401
30
54.00000
0
VERTEX
8
18_54000
10
156.34201
20
167.70601
30
54.00000
0
VERTEX
8
18_54000
10
156.34001
20
168.04301
30
54.00000
0
VERTEX
8
18_54000
10
156.35201
20
168.80701
30
54.00000
0
VERTEX
8
18_54000
10
156.34401
20
169.59201
30
54.00000
0
VERTEX
8
18_54000
10
156.37201
20
171.88000
30
54.00000
0
VERTEX
8
18_54000
10
156.40201
20
172.66000
30
54.00000
0
VERTEX
8
18_54000
10
156.42001
20
174.18800
30
54.00000
0
VERTEX
8
18_54000
10
156.45401
20
174.97801
30
54.00000
0
VERTEX
8
18_54000
10
156.46201
20
175.36401
30
54.00000
0
VERTEX
8
18_54000
10
156.45500
20
175.69901
30
54.00000
0
VERTEX
8
18_54000
10
156.46001
20
176.86801
30
54.00000
0
VERTEX
8
18_54000
10
156.44601
20
177.94801
30
54.00000
0
VERTEX
8
18_54000
10
156.45001
20
181.04102
30
54.00000
0
VERTEX
8
18_54000
10
156.46101
20
181.73701
30
54.00000
0
VERTEX
8
18_54000
10
156.48201
20
182.17401
30
54.00000
0
VERTEX
8
18_54000
10
156.47801
20
182.89001
30
54.00000
0
VERTEX
8
18_54000
10
156.49001
20
183.37401
30
54.00000
0
VERTEX
8
18_54000
10
10.57000
20
184.24600
30
54.00000
0
VERTEX
8
18_54000
10
10.52200
20
183.39801
30
54.00000
0
VERTEX
8
18_54000
10
10.62200
20
183.33701
30
54.00000
0
VERTEX
8
18_54000
10
11.81600
20
182.45801
30
54.00000
0
VERTEX
8
18_54000
10
11.95000
20
182.31300
30
54.00000
0
VERTEX
8
18_54000
10
12.00900
20
182.27901
30
54.00000
0
VERTEX
8
18_54000
10
12.54000
20
181.87901
30
54.00000
0
VERTEX
8
18_54000
10
12.93600
20
181.39001
30
54.00000
0
VERTEX
8
18_54000
10
13.01400
20
181.31001
30
54.00000
0
VERTEX
8
18_54000
10
13.77700
20
180.61401
30
54.00000
0
VERTEX
8
18_54000
10
13.83800
20
180.56700
30
54.00000
0
VERTEX
8
18_54000
10
14.34000
20
179.79800
30
54.00000
0
VERTEX
8
18_54000
10
14.70100
20
179.31902
30
54.00000
0
VERTEX
8
18_54000
10
15.17600
20
178.74001
30
54.00000
0
VERTEX
8
18_54000
10
15.71900
20
177.57101
30
54.00000
0
VERTEX
8
18_54000
10
16.36400
20
176.42101
30
54.00000
0
VERTEX
8
18_54000
10
16.51400
20
176.09401
30
54.00000
0
VERTEX
8
18_54000
10
16.83300
20
175.56601
30
54.00000
0
VERTEX
8
18_54000
10
17.32600
20
174.71501
30
54.00000
0
VERTEX
8
18_54000
10
17.72700
20
173.93401
30
54.00000
0
VERTEX
8
18_54000
10
18.06400
20
173.12401
30
54.00000
0
VERTEX
8
18_54000
10
18.22900
20
172.66701
30
54.00000
0
VERTEX
8
18_54000
10
18.56500
20
171.96201
30
54.00000
0
VERTEX
8
18_54000
10
18.88100
20
171.08501
30
54.00000
0
VERTEX
8
18_54000
10
18.97100
20
170.59702
30
54.00000
0
VERTEX
8
18_54000
10
19.35600
20
169.38600
30
54.00000
0
VERTEX
8
18_54000
10
19.51800
20
168.53900
30
54.00000
0
VERTEX
8
18_54000
10
19.60200
20
167.98801
30
54.00000
0
VERTEX
8
18_54000
10
19.64100
20
167.59601
30
54.00000
0
VERTEX
8
18_54000
10
19.70400
20
167.23801
30
54.00000
0
VERTEX
8
18_54000
10
20.47500
20
163.49501
30
54.00000
0
VERTEX
8
18_54000
10
20.71100
20
162.12901
30
54.00000
0
VERTEX
8
18_54000
10
20.84600
20
161.65601
30
54.00000
0
VERTEX
8
18_54000
10
21.30200
20
159.65800
30
54.00000
0
VERTEX
8
18_54000
10
21.76800
20
157.10701
30
54.00000
0
VERTEX
8
18_54000
10
21.87800
20
156.32101
30
54.00000
0
VERTEX
8
18_54000
10
21.94800
20
155.93501
30
54.00000
0
VERTEX
8
18_54000
10
22.00800
20
155.50401
30
54.00000
0
VERTEX
8
18_54000
10
22.64000
20
151.53801
30
54.00000
0
VERTEX
8
18_54000
10
22.76100
20
150.82101
30
54.00000
0
VERTEX
8
18_54000
10
22.82700
20
149.59201
30
54.00000
0
VERTEX
8
18_54000
10
22.94700
20
148.57001
30
54.00000
0
VERTEX
8
18_54000
10
22.96700
20
147.78700
30
54.00000
0
VERTEX
8
18_54000
10
22.96600
20
144.28601
30
54.00000
0
VERTEX
8
18_54000
10
22.92700
20
143.96201
30
54.00000
0
VERTEX
8
18_54000
10
22.75100
20
141.45500
30
54.00000
0
VERTEX
8
18_54000
10
22.63400
20
139.24200
30
54.00000
0
VERTEX
8
18_54000
10
22.44200
20
137.55600
30
54.00000
0
VERTEX
8
18_54000
10
22.20800
20
136.12100
30
54.00000
0
VERTEX
8
18_54000
10
22.18500
20
135.82701
30
54.00000
0
VERTEX
8
18_54000
10
22.06000
20
135.09500
30
54.00000
0
VERTEX
8
18_54000
10
21.45200
20
131.86601
30
54.00000
0
VERTEX
8
18_54000
10
21.06600
20
129.72200
30
54.00000
0
VERTEX
8
18_54000
10
20.98900
20
129.35400
30
54.00000
0
VERTEX
8
18_54000
10
20.64200
20
127.53201
30
54.00000
0
VERTEX
8
18_54000
10
19.75400
20
122.82201
30
54.00000
0
VERTEX
8
18_54000
10
19.51500
20
121.64600
30
54.00000
0
VERTEX
8
18_54000
10
18.76700
20
117.72301
30
54.00000
0
VERTEX
8
18_54000
10
17.56000
20
112.64301
30
54.00000
0
VERTEX
8
18_54000
10
17.27900
20
111.56100
30
54.00000
0
VERTEX
8
18_54000
10
17.09700
20
110.80301
30
54.00000
0
VERTEX
8
18_54000
10
16.69000
20
109.41000
30
54.00000
0
VERTEX
8
18_54000
10
16.36400
20
108.03700
30
54.00000
0
VERTEX
8
18_54000
10
16.00800
20
106.67300
30
54.00000
0
VERTEX
8
18_54000
10
15.76800
20
105.88600
30
54.00000
0
VERTEX
8
18_54000
10
15.22200
20
103.48200
30
54.00000
0
VERTEX
8
18_54000
10
15.01700
20
102.79700
30
54.00000
0
VERTEX
8
18_54000
10
14.84300
20
102.28500
30
54.00000
0
VERTEX
8
18_54000
10
14.74300
20
101.86600
30
54.00000
0
VERTEX
8
18_54000
10
14.53200
20
100.52600
30
54.00000
0
VERTEX
8
18_54000
10
14.50600
20
100.45701
30
54.00000
0
VERTEX
8
18_54000
10
14.47700
20
100.34100
30
54.00000
0
VERTEX
8
18_54000
10
14.15800
20
98.57101
30
54.00000
0
VERTEX
8
18_54000
10
13.76700
20
97.26701
30
54.00000
0
VERTEX
8
18_54000
10
13.55700
20
96.48601
30
54.00000
0
VERTEX
8
18_54000
10
13.41100
20
95.40601
30
54.00000
0
VERTEX
8
18_54000
10
13.28400
20
94.70901
30
54.00000
0
VERTEX
8
18_54000
10
13.09100
20
94.27100
30
54.00000
0
VERTEX
8
18_54000
10
12.34100
20
91.47100
30
54.00000
0
VERTEX
8
18_54000
10
12.28700
20
91.35900
30
54.00000
0
VERTEX
8
18_54000
10
12.26400
20
91.26200
30
54.00000
0
VERTEX
8
18_54000
10
12.19700
20
91.16601
30
54.00000
0
VERTEX
8
18_54000
10
12.13300
20
90.69200
30
54.00000
0
VERTEX
8
18_54000
10
12.05700
20
90.34100
30
54.00000
0
VERTEX
8
18_54000
10
12.05700
20
90.29401
30
54.00000
0
VERTEX
8
18_54000
10
11.67200
20
88.87501
30
54.00000
0
VERTEX
8
18_54000
10
11.56400
20
88.37501
30
54.00000
0
VERTEX
8
18_54000
10
11.25100
20
87.64900
30
54.00000
0
VERTEX
8
18_54000
10
11.25600
20
87.08701
30
54.00000
0
VERTEX
8
18_54000
10
11.15900
20
86.98601
30
54.00000
0
VERTEX
8
18_54000
10
11.09500
20
86.52400
30
54.00000
0
VERTEX
8
18_54000
10
11.13600
20
86.27200
30
54.00000
0
VERTEX
8
18_54000
10
11.06800
20
85.71101
30
54.00000
0
VERTEX
8
18_54000
10
11.33600
20
84.08701
30
54.00000
0
VERTEX
8
18_54000
10
11.36500
20
83.94100
30
54.00000
0
VERTEX
8
18_54000
10
11.63800
20
83.17600
30
54.00000
0
VERTEX
8
18_54000
10
11.79100
20
82.81100
30
54.00000
0
VERTEX
8
18_54000
10
11.96700
20
81.68501
30
54.00000
0
VERTEX
8
18_54000
10
12.00800
20
81.26701
30
54.00000
0
VERTEX
8
18_54000
10
12.11100
20
80.50301
30
54.00000
0
VERTEX
8
18_54000
10
12.21200
20
79.52901
30
54.00000
0
VERTEX
8
18_54000
10
12.22500
20
78.87801
30
54.00000
0
VERTEX
8
18_54000
10
12.21000
20
78.00401
30
54.00000
0
VERTEX
8
18_54000
10
12.08000
20
77.44400
30
54.00000
0
VERTEX
8
18_54000
10
12.10200
20
77.34901
30
54.00000
0
VERTEX
8
18_54000
10
12.19600
20
77.06300
30
54.00000
0
VERTEX
8
18_54000
10
12.24800
20
76.75101
30
54.00000
0
VERTEX
8
18_54000
10
12.16500
20
76.33900
30
54.00000
0
VERTEX
8
18_54000
10
12.24500
20
75.36000
30
54.00000
0
VERTEX
8
18_54000
10
12.32200
20
75.15100
30
54.00000
0
VERTEX
8
18_54000
10
12.32200
20
75.12100
30
54.00000
0
VERTEX
8
18_54000
10
12.34900
20
75.05500
30
54.00000
0
VERTEX
8
18_54000
10
12.61900
20
73.37400
30
54.00000
0
VERTEX
8
18_54000
10
12.62600
20
73.11301
30
54.00000
0
VERTEX
8
18_54000
10
12.78700
20
72.85900
30
54.00000
0
VERTEX
8
18_54000
10
12.81300
20
72.73200
30
54.00000
0
VERTEX
8
18_54000
10
12.83000
20
71.89301
30
54.00000
0
VERTEX
8
18_54000
10
12.81300
20
70.81900
30
54.00000
0
VERTEX
8
18_54000
10
12.79300
20
70.53400
30
54.00000
0
VERTEX
8
18_54000
10
12.82500
20
70.41100
30
54.00000
0
VERTEX
8
18_54000
10
12.93600
20
69.26601
30
54.00000
0
VERTEX
8
18_54000
10
13.06200
20
68.81500
30
54.00000
0
VERTEX
8
18_54000
10
13.14300
20
68.67500
30
54.00000
0
VERTEX
8
18_54000
10
13.24700
20
67.76400
30
54.00000
0
VERTEX
8
18_54000
10
13.21800
20
67.65100
30
54.00000
0
VERTEX
8
18_54000
10
13.27500
20
67.45200
30
54.00000
0
VERTEX
8
18_54000
10
13.45000
20
66.71700
30
54.00000
0
VERTEX
8
18_54000
10
13.49000
20
66.59200
30
54.00000
0
VERTEX
8
18_54000
10
13.76500
20
65.56500
30
54.00000
0
VERTEX
8
18_54000
10
13.58600
20
65.16801
30
54.00000
0
VERTEX
8
18_54000
10
13.83000
20
64.78600
30
54.00000
0
VERTEX
8
18_54000
10
13.86000
20
64.61401
30
54.00000
0
VERTEX
8
18_54000
10
14.04700
20
64.06900
30
54.00000
0
VERTEX
8
18_54000
10
14.26300
20
63.36500
30
54.00000
0
VERTEX
8
18_54000
10
14.28200
20
63.22000
30
54.00000
0
VERTEX
8
18_54000
10
14.33100
20
61.70500
30
54.00000
0
VERTEX
8
18_54000
10
14.27300
20
61.10000
30
54.00000
0
VERTEX
8
18_54000
10
14.25400
20
61.01300
30
54.00000
0
VERTEX
8
18_54000
10
14.33700
20
60.66600
30
54.00000
0
VERTEX
8
18_54000
10
14.53600
20
59.22100
30
54.00000
0
VERTEX
8
18_54000
10
14.57700
20
59.01300
30
54.00000
0
VERTEX
8
18_54000
10
14.76200
20
57.73400
30
54.00000
0
VERTEX
8
18_54000
10
14.69800
20
56.52300
30
54.00000
0
VERTEX
8
18_54000
10
14.69800
20
55.97400
30
54.00000
0
VERTEX
8
18_54000
10
14.73300
20
55.17900
30
54.00000
0
VERTEX
8
18_54000
10
14.84800
20
54.86000
30
54.00000
0
VERTEX
8
18_54000
10
14.93000
20
54.51500
30
54.00000
0
VERTEX
8
18_54000
10
15.12800
20
53.59900
30
54.00000
0
VERTEX
8
18_54000
10
15.22700
20
53.24300
30
54.00000
0
VERTEX
8
18_54000
10
15.24100
20
52.98800
30
54.00000
0
VERTEX
8
18_54000
10
15.48000
20
52.24500
30
54.00000
0
VERTEX
8
18_54000
10
15.55600
20
51.78800
30
54.00000
0
VERTEX
8
18_54000
10
15.55800
20
51.73500
30
54.00000
0
VERTEX
8
18_54000
10
15.41600
20
50.59000
30
54.00000
0
VERTEX
8
18_54000
10
15.20200
20
50.16000
30
54.00000
0
VERTEX
8
18_54000
10
15.19800
20
49.97700
30
54.00000
0
VERTEX
8
18_54000
10
14.97800
20
48.72100
30
54.00000
0
VERTEX
8
18_54000
10
14.92800
20
48.50500
30
54.00000
0
VERTEX
8
18_54000
10
14.86600
20
48.51700
30
54.00000
0
VERTEX
8
18_54000
10
14.23700
20
48.78500
30
54.00000
0
VERTEX
8
18_54000
10
13.86500
20
48.92300
30
54.00000
0
VERTEX
8
18_54000
10
13.70000
20
48.95400
30
54.00000
0
VERTEX
8
18_54000
10
13.61700
20
48.95400
30
54.00000
0
VERTEX
8
18_54000
10
12.41200
20
48.71900
30
54.00000
0
VERTEX
8
18_54000
10
11.34100
20
48.17200
30
54.00000
0
VERTEX
8
18_54000
10
11.06500
20
47.98500
30
54.00000
0
VERTEX
8
18_54000
10
10.22700
20
47.63600
30
54.00000
0
VERTEX
8
18_54000
10
9.22400
20
47.25200
30
54.00000
0
VERTEX
8
18_54000
10
8.66700
20
47.12600
30
54.00000
0
VERTEX
8
18_54000
10
8.71600
20
46.14200
30
54.00000
0
VERTEX
8
18_54000
10
8.80700
20
44.69200
30
54.00000
0
VERTEX
8
18_54000
10
9.02100
20
42.15800
30
54.00000
0
VERTEX
8
18_54000
10
9.32200
20
38.99400
30
54.00000
0
VERTEX
8
18_54000
10
9.63800
20
36.27100
30
54.00000
0
VERTEX
8
18_54000
10
9.73100
20
35.60300
30
54.00000
0
VERTEX
8
18_54000
10
9.81100
20
34.92100
30
54.00000
0
SEQEND
8
18_54000
0
ENDSEC
0
EOF
