0
SECTION
2
HEADER
9
$ACADVER
1
AC1009
0
ENDSEC
0
SECTION
2
TABLES
0
TABLE
2
LAYER
70
1
0
LAYER
2
17_51000
70
0
62
7
6
CONTINUOUS
0
ENDTAB
0
ENDSEC
0
SECTION
2
BLOCKS
0
ENDSEC
0
SECTION
2
ENTITIES
0
POLYLINE
8
17_51000
62
5
0
VERTEX
8
17_51000
10
17.76700
20
184.10101
30
51.00000
0
VERTEX
8
17_51000
10
14.18000
20
184.12001
30
51.00000
0
VERTEX
8
17_51000
10
14.01400
20
184.12801
30
51.00000
0
VERTEX
8
17_51000
10
156.49001
20
183.37401
30
51.00000
0
VERTEX
8
17_51000
10
17.76700
20
184.10101
30
51.00000
0
SEQEND
8
17_51000
0
POLYLINE
8
17_51000
62
5
0
VERTEX
8
17_51000
10
20.49600
20
183.95601
30
51.00000
0
VERTEX
8
17_51000
10
16.29400
20
183.97401
30
51.00000
0
VERTEX
8
17_51000
10
16.23600
20
183.98201
30
51.00000
0
VERTEX
8
17_51000
10
156.49001
20
183.37401
30
51.00000
0
VERTEX
8
17_51000
10
20.49600
20
183.95601
30
51.00000
0
SEQEND
8
17_51000
0
POLYLINE
8
17_51000
62
5
0
VERTEX
8
17_51000
10
18.94000
20
184.04401
30
51.00000
0
VERTEX
8
17_51000
10
83.35600
20
183.73201
30
51.00000
0
VERTEX
8
17_51000
10
18.94000
20
184.04401
30
51.00000
0
SEQEND
8
17_51000
0
POLYLINE
8
17_51000
62
5
0
VERTEX
8
17_51000
10
26.09200
20
183.57701
30
51.00000
0
VERTEX
8
17_51000
10
156.49001
20
183.37401
30
51.00000
0
VERTEX
8
17_51000
10
26.09200
20
183.57701
30
51.00000
0
SEQEND
8
17_51000
0
POLYLINE
8
17_51000
62
5
0
VERTEX
8
17_51000
10
98.19601
20
181.70001
30
51.00000
0
VERTEX
8
17_51000
10
39.88800
20
180.02600
30
51.00000
0
VERTEX
8
17_51000
10
98.19601
20
181.70001
30
51.00000
0
SEQEND
8
17_51000
0
POLYLINE
8
17_51000
62
5
0
VERTEX
8
17_51000
10
30.02200
20
181.81201
30
51.00000
0
VERTEX
8
17_51000
10
29.98200
20
181.82001
30
51.00000
0
VERTEX
8
17_51000
10
156.49001
20
183.37401
30
51.00000
0
VERTEX
8
17_51000
10
30.02200
20
181.81201
30
51.00000
0
SEQEND
8
17_51000
0
POLYLINE
8
17_51000
62
5
0
VERTEX
8
17_51000
10
9.80900
20
34.93800
30
51.00000
0
VERTEX
8
17_51000
10
10.06800
20
32.85600
30
51.00000
0
VERTEX
8
17_51000
10
10.16600
20
32.19600
30
51.00000
0
VERTEX
8
17_51000
10
11.05300
20
25.35400
30
51.00000
0
VERTEX
8
17_51000
10
11.12700
20
24.70000
30
51.00000
0
VERTEX
8
17_51000
10
11.18800
20
24.29200
30
51.00000
0
VERTEX
8
17_51000
10
11.64600
20
20.60100
30
51.00000
0
VERTEX
8
17_51000
10
11.78200
20
19.44200
30
51.00000
0
VERTEX
8
17_51000
10
11.97700
20
17.95600
30
51.00000
0
VERTEX
8
17_51000
10
12.07500
20
17.11000
30
51.00000
0
VERTEX
8
17_51000
10
12.57800
20
13.10800
30
51.00000
0
VERTEX
8
17_51000
10
13.00000
20
9.61500
30
51.00000
0
VERTEX
8
17_51000
10
13.41000
20
6.10100
30
51.00000
0
VERTEX
8
17_51000
10
13.59200
20
4.43800
30
51.00000
0
VERTEX
8
17_51000
10
13.99200
20
0.96800
30
51.00000
0
VERTEX
8
17_51000
10
14.09200
20
0.00600
30
51.00000
0
VERTEX
8
17_51000
10
142.35201
20
0.00600
30
51.00000
0
VERTEX
8
17_51000
10
141.63200
20
0.79100
30
51.00000
0
VERTEX
8
17_51000
10
141.29201
20
1.09900
30
51.00000
0
VERTEX
8
17_51000
10
139.90901
20
2.94600
30
51.00000
0
VERTEX
8
17_51000
10
138.60101
20
4.73900
30
51.00000
0
VERTEX
8
17_51000
10
138.27200
20
5.16400
30
51.00000
0
VERTEX
8
17_51000
10
138.17001
20
5.31100
30
51.00000
0
VERTEX
8
17_51000
10
136.95801
20
6.83000
30
51.00000
0
VERTEX
8
17_51000
10
136.49800
20
7.51600
30
51.00000
0
VERTEX
8
17_51000
10
135.61601
20
9.21600
30
51.00000
0
VERTEX
8
17_51000
10
135.30200
20
9.88700
30
51.00000
0
VERTEX
8
17_51000
10
134.05701
20
12.36700
30
51.00000
0
VERTEX
8
17_51000
10
133.84601
20
12.69000
30
51.00000
0
VERTEX
8
17_51000
10
133.74701
20
13.17800
30
51.00000
0
VERTEX
8
17_51000
10
133.59801
20
13.34900
30
51.00000
0
VERTEX
8
17_51000
10
133.66400
20
13.53300
30
51.00000
0
VERTEX
8
17_51000
10
133.66301
20
13.83500
30
51.00000
0
VERTEX
8
17_51000
10
133.74200
20
14.11100
30
51.00000
0
VERTEX
8
17_51000
10
133.77701
20
14.18500
30
51.00000
0
VERTEX
8
17_51000
10
133.79201
20
14.25500
30
51.00000
0
VERTEX
8
17_51000
10
133.82501
20
14.34900
30
51.00000
0
VERTEX
8
17_51000
10
134.28601
20
15.37300
30
51.00000
0
VERTEX
8
17_51000
10
134.45801
20
15.78200
30
51.00000
0
VERTEX
8
17_51000
10
135.37201
20
17.67100
30
51.00000
0
VERTEX
8
17_51000
10
135.48001
20
17.92500
30
51.00000
0
VERTEX
8
17_51000
10
135.84601
20
18.89600
30
51.00000
0
VERTEX
8
17_51000
10
135.98500
20
19.21300
30
51.00000
0
VERTEX
8
17_51000
10
136.63000
20
20.59100
30
51.00000
0
VERTEX
8
17_51000
10
136.85301
20
21.02500
30
51.00000
0
VERTEX
8
17_51000
10
136.95900
20
21.27200
30
51.00000
0
VERTEX
8
17_51000
10
137.06601
20
21.57300
30
51.00000
0
VERTEX
8
17_51000
10
137.35201
20
21.79700
30
51.00000
0
VERTEX
8
17_51000
10
137.68501
20
22.30000
30
51.00000
0
VERTEX
8
17_51000
10
137.83101
20
22.57200
30
51.00000
0
VERTEX
8
17_51000
10
138.01300
20
22.85300
30
51.00000
0
VERTEX
8
17_51000
10
138.31500
20
23.36700
30
51.00000
0
VERTEX
8
17_51000
10
138.46901
20
23.45700
30
51.00000
0
VERTEX
8
17_51000
10
138.60101
20
23.69800
30
51.00000
0
VERTEX
8
17_51000
10
138.74400
20
24.07800
30
51.00000
0
VERTEX
8
17_51000
10
138.97601
20
24.40100
30
51.00000
0
VERTEX
8
17_51000
10
139.09201
20
24.63400
30
51.00000
0
VERTEX
8
17_51000
10
139.15601
20
24.62000
30
51.00000
0
VERTEX
8
17_51000
10
139.37500
20
24.96700
30
51.00000
0
VERTEX
8
17_51000
10
139.53201
20
25.19600
30
51.00000
0
VERTEX
8
17_51000
10
139.80901
20
25.85900
30
51.00000
0
VERTEX
8
17_51000
10
140.60701
20
27.17200
30
51.00000
0
VERTEX
8
17_51000
10
141.18301
20
28.39600
30
51.00000
0
VERTEX
8
17_51000
10
141.41600
20
28.72800
30
51.00000
0
VERTEX
8
17_51000
10
141.93301
20
29.49900
30
51.00000
0
VERTEX
8
17_51000
10
141.99600
20
29.60900
30
51.00000
0
VERTEX
8
17_51000
10
142.36900
20
30.36600
30
51.00000
0
VERTEX
8
17_51000
10
143.10001
20
31.88600
30
51.00000
0
VERTEX
8
17_51000
10
143.54601
20
32.95800
30
51.00000
0
VERTEX
8
17_51000
10
143.91000
20
33.61000
30
51.00000
0
VERTEX
8
17_51000
10
144.39401
20
34.61400
30
51.00000
0
VERTEX
8
17_51000
10
144.72200
20
35.44600
30
51.00000
0
VERTEX
8
17_51000
10
145.76001
20
37.22000
30
51.00000
0
VERTEX
8
17_51000
10
145.83200
20
37.37200
30
51.00000
0
VERTEX
8
17_51000
10
146.21800
20
38.28900
30
51.00000
0
VERTEX
8
17_51000
10
146.82401
20
39.43100
30
51.00000
0
VERTEX
8
17_51000
10
146.89801
20
39.52000
30
51.00000
0
VERTEX
8
17_51000
10
146.94501
20
39.61600
30
51.00000
0
VERTEX
8
17_51000
10
147.19701
20
40.00100
30
51.00000
0
VERTEX
8
17_51000
10
147.34300
20
40.31700
30
51.00000
0
VERTEX
8
17_51000
10
147.60701
20
40.77000
30
51.00000
0
VERTEX
8
17_51000
10
147.69000
20
41.02800
30
51.00000
0
VERTEX
8
17_51000
10
147.77800
20
41.15500
30
51.00000
0
VERTEX
8
17_51000
10
148.34401
20
42.23000
30
51.00000
0
VERTEX
8
17_51000
10
148.57600
20
42.55000
30
51.00000
0
VERTEX
8
17_51000
10
148.65601
20
42.61600
30
51.00000
0
VERTEX
8
17_51000
10
148.72701
20
42.86800
30
51.00000
0
VERTEX
8
17_51000
10
148.80301
20
42.96300
30
51.00000
0
VERTEX
8
17_51000
10
149.06900
20
43.42600
30
51.00000
0
VERTEX
8
17_51000
10
149.44101
20
43.88700
30
51.00000
0
VERTEX
8
17_51000
10
149.75900
20
44.34800
30
51.00000
0
VERTEX
8
17_51000
10
149.81500
20
44.50700
30
51.00000
0
VERTEX
8
17_51000
10
150.09300
20
44.85900
30
51.00000
0
VERTEX
8
17_51000
10
150.21901
20
45.14300
30
51.00000
0
VERTEX
8
17_51000
10
150.37100
20
45.58000
30
51.00000
0
VERTEX
8
17_51000
10
150.44101
20
45.75300
30
51.00000
0
VERTEX
8
17_51000
10
150.56001
20
46.10500
30
51.00000
0
VERTEX
8
17_51000
10
150.85701
20
46.62000
30
51.00000
0
VERTEX
8
17_51000
10
151.06900
20
46.88700
30
51.00000
0
VERTEX
8
17_51000
10
151.15901
20
47.19500
30
51.00000
0
VERTEX
8
17_51000
10
151.29501
20
47.32300
30
51.00000
0
VERTEX
8
17_51000
10
151.40100
20
47.69500
30
51.00000
0
VERTEX
8
17_51000
10
151.45201
20
47.77400
30
51.00000
0
VERTEX
8
17_51000
10
151.56300
20
48.08100
30
51.00000
0
VERTEX
8
17_51000
10
151.61401
20
48.14700
30
51.00000
0
VERTEX
8
17_51000
10
151.75201
20
48.23800
30
51.00000
0
VERTEX
8
17_51000
10
152.19701
20
49.07300
30
51.00000
0
VERTEX
8
17_51000
10
152.32001
20
49.34700
30
51.00000
0
VERTEX
8
17_51000
10
152.42900
20
49.44900
30
51.00000
0
VERTEX
8
17_51000
10
152.49001
20
49.55700
30
51.00000
0
VERTEX
8
17_51000
10
152.53900
20
49.67800
30
51.00000
0
VERTEX
8
17_51000
10
152.57800
20
49.85200
30
51.00000
0
VERTEX
8
17_51000
10
152.68001
20
50.60300
30
51.00000
0
VERTEX
8
17_51000
10
152.71800
20
51.08900
30
51.00000
0
VERTEX
8
17_51000
10
152.79301
20
51.29100
30
51.00000
0
VERTEX
8
17_51000
10
152.86700
20
51.63600
30
51.00000
0
VERTEX
8
17_51000
10
152.94200
20
51.88800
30
51.00000
0
VERTEX
8
17_51000
10
152.96001
20
52.07500
30
51.00000
0
VERTEX
8
17_51000
10
152.96001
20
52.15400
30
51.00000
0
VERTEX
8
17_51000
10
153.17900
20
52.89000
30
51.00000
0
VERTEX
8
17_51000
10
153.36501
20
53.46600
30
51.00000
0
VERTEX
8
17_51000
10
153.43100
20
53.62800
30
51.00000
0
VERTEX
8
17_51000
10
153.91400
20
55.04000
30
51.00000
0
VERTEX
8
17_51000
10
154.24800
20
55.44300
30
51.00000
0
VERTEX
8
17_51000
10
154.36101
20
55.60500
30
51.00000
0
VERTEX
8
17_51000
10
154.53401
20
55.81400
30
51.00000
0
VERTEX
8
17_51000
10
154.58101
20
55.85500
30
51.00000
0
VERTEX
8
17_51000
10
154.97501
20
56.61500
30
51.00000
0
VERTEX
8
17_51000
10
155.36900
20
57.41700
30
51.00000
0
VERTEX
8
17_51000
10
155.60501
20
57.70100
30
51.00000
0
VERTEX
8
17_51000
10
156.05000
20
58.43000
30
51.00000
0
VERTEX
8
17_51000
10
156.07800
20
58.50000
30
51.00000
0
VERTEX
8
17_51000
10
156.13501
20
58.85600
30
51.00000
0
VERTEX
8
17_51000
10
156.52600
20
59.65500
30
51.00000
0
VERTEX
8
17_51000
10
156.62601
20
59.92000
30
51.00000
0
VERTEX
8
17_51000
10
156.70601
20
60.05000
30
51.00000
0
VERTEX
8
17_51000
10
157.00801
20
60.29600
30
51.00000
0
VERTEX
8
17_51000
10
157.18901
20
60.60800
30
51.00000
0
VERTEX
8
17_51000
10
157.59201
20
60.94800
30
51.00000
0
VERTEX
8
17_51000
10
157.66200
20
60.93400
30
51.00000
0
VERTEX
8
17_51000
10
157.73201
20
61.02000
30
51.00000
0
VERTEX
8
17_51000
10
157.84700
20
60.97200
30
51.00000
0
VERTEX
8
17_51000
10
158.03201
20
61.01000
30
51.00000
0
VERTEX
8
17_51000
10
157.94801
20
61.96500
30
51.00000
0
VERTEX
8
17_51000
10
157.90001
20
63.14000
30
51.00000
0
VERTEX
8
17_51000
10
157.87601
20
63.52700
30
51.00000
0
VERTEX
8
17_51000
10
157.84401
20
63.93200
30
51.00000
0
VERTEX
8
17_51000
10
157.79800
20
64.33400
30
51.00000
0
VERTEX
8
17_51000
10
157.69200
20
65.52200
30
51.00000
0
VERTEX
8
17_51000
10
157.65201
20
66.68600
30
51.00000
0
VERTEX
8
17_51000
10
157.61601
20
67.08400
30
51.00000
0
VERTEX
8
17_51000
10
157.62201
20
67.46201
30
51.00000
0
VERTEX
8
17_51000
10
157.60001
20
67.85400
30
51.00000
0
VERTEX
8
17_51000
10
157.53801
20
68.64001
30
51.00000
0
VERTEX
8
17_51000
10
157.50201
20
69.45600
30
51.00000
0
VERTEX
8
17_51000
10
157.45801
20
70.19601
30
51.00000
0
VERTEX
8
17_51000
10
157.42001
20
71.35201
30
51.00000
0
VERTEX
8
17_51000
10
157.37801
20
71.74600
30
51.00000
0
VERTEX
8
17_51000
10
157.35400
20
72.13400
30
51.00000
0
VERTEX
8
17_51000
10
157.34700
20
72.49100
30
51.00000
0
VERTEX
8
17_51000
10
157.32401
20
72.90401
30
51.00000
0
VERTEX
8
17_51000
10
157.30000
20
73.67400
30
51.00000
0
VERTEX
8
17_51000
10
157.22801
20
75.21600
30
51.00000
0
VERTEX
8
17_51000
10
157.18401
20
77.13200
30
51.00000
0
VERTEX
8
17_51000
10
157.15800
20
77.51801
30
51.00000
0
VERTEX
8
17_51000
10
157.18001
20
78.27400
30
51.00000
0
VERTEX
8
17_51000
10
157.17401
20
78.62200
30
51.00000
0
VERTEX
8
17_51000
10
157.14401
20
79.42600
30
51.00000
0
VERTEX
8
17_51000
10
157.09401
20
80.19601
30
51.00000
0
VERTEX
8
17_51000
10
157.10201
20
81.33200
30
51.00000
0
VERTEX
8
17_51000
10
157.06201
20
82.48000
30
51.00000
0
VERTEX
8
17_51000
10
157.00401
20
83.59000
30
51.00000
0
VERTEX
8
17_51000
10
156.95201
20
84.39600
30
51.00000
0
VERTEX
8
17_51000
10
156.96800
20
85.15200
30
51.00000
0
VERTEX
8
17_51000
10
156.96101
20
85.49400
30
51.00000
0
VERTEX
8
17_51000
10
156.93701
20
86.33401
30
51.00000
0
VERTEX
8
17_51000
10
156.90001
20
87.05601
30
51.00000
0
VERTEX
8
17_51000
10
156.86301
20
88.15701
30
51.00000
0
VERTEX
8
17_51000
10
156.86601
20
88.57800
30
51.00000
0
VERTEX
8
17_51000
10
156.90800
20
89.33401
30
51.00000
0
VERTEX
8
17_51000
10
156.90201
20
90.47201
30
51.00000
0
VERTEX
8
17_51000
10
156.94000
20
91.22800
30
51.00000
0
VERTEX
8
17_51000
10
156.94400
20
92.24700
30
51.00000
0
VERTEX
8
17_51000
10
156.93401
20
92.74600
30
51.00000
0
VERTEX
8
17_51000
10
156.93800
20
93.50600
30
51.00000
0
VERTEX
8
17_51000
10
156.92401
20
94.52000
30
51.00000
0
VERTEX
8
17_51000
10
156.86601
20
97.29800
30
51.00000
0
VERTEX
8
17_51000
10
156.90601
20
98.05801
30
51.00000
0
VERTEX
8
17_51000
10
156.89001
20
99.15201
30
51.00000
0
VERTEX
8
17_51000
10
156.91501
20
101.81100
30
51.00000
0
VERTEX
8
17_51000
10
156.94601
20
102.99200
30
51.00000
0
VERTEX
8
17_51000
10
156.95201
20
104.13200
30
51.00000
0
VERTEX
8
17_51000
10
156.94400
20
104.89001
30
51.00000
0
VERTEX
8
17_51000
10
156.95901
20
106.37000
30
51.00000
0
VERTEX
8
17_51000
10
156.96400
20
108.27000
30
51.00000
0
VERTEX
8
17_51000
10
156.99600
20
109.83201
30
51.00000
0
VERTEX
8
17_51000
10
156.98801
20
111.31300
30
51.00000
0
VERTEX
8
17_51000
10
157.01801
20
112.49600
30
51.00000
0
VERTEX
8
17_51000
10
157.03401
20
113.53101
30
51.00000
0
VERTEX
8
17_51000
10
157.03201
20
114.02000
30
51.00000
0
VERTEX
8
17_51000
10
157.04800
20
115.54401
30
51.00000
0
VERTEX
8
17_51000
10
157.15001
20
116.71400
30
51.00000
0
VERTEX
8
17_51000
10
157.16801
20
117.09601
30
51.00000
0
VERTEX
8
17_51000
10
157.16801
20
117.47800
30
51.00000
0
VERTEX
8
17_51000
10
157.12701
20
118.26201
30
51.00000
0
VERTEX
8
17_51000
10
157.11801
20
118.60400
30
51.00000
0
VERTEX
8
17_51000
10
157.13400
20
119.75201
30
51.00000
0
VERTEX
8
17_51000
10
157.13000
20
120.51201
30
51.00000
0
VERTEX
8
17_51000
10
157.14201
20
121.27601
30
51.00000
0
VERTEX
8
17_51000
10
157.18001
20
122.05201
30
51.00000
0
VERTEX
8
17_51000
10
157.19801
20
123.13701
30
51.00000
0
VERTEX
8
17_51000
10
157.29800
20
125.90401
30
51.00000
0
VERTEX
8
17_51000
10
157.35001
20
127.06801
30
51.00000
0
VERTEX
8
17_51000
10
157.41801
20
127.85801
30
51.00000
0
VERTEX
8
17_51000
10
157.42601
20
128.24400
30
51.00000
0
VERTEX
8
17_51000
10
157.47200
20
129.02800
30
51.00000
0
VERTEX
8
17_51000
10
157.46800
20
129.40800
30
51.00000
0
VERTEX
8
17_51000
10
157.51201
20
130.19200
30
51.00000
0
VERTEX
8
17_51000
10
157.52200
20
130.96201
30
51.00000
0
VERTEX
8
17_51000
10
157.55801
20
131.76100
30
51.00000
0
VERTEX
8
17_51000
10
157.62801
20
134.45401
30
51.00000
0
VERTEX
8
17_51000
10
157.72601
20
136.03801
30
51.00000
0
VERTEX
8
17_51000
10
157.74600
20
136.80000
30
51.00000
0
VERTEX
8
17_51000
10
157.76601
20
137.21001
30
51.00000
0
VERTEX
8
17_51000
10
157.80400
20
137.61200
30
51.00000
0
VERTEX
8
17_51000
10
157.81001
20
138.39301
30
51.00000
0
VERTEX
8
17_51000
10
157.80400
20
138.76201
30
51.00000
0
VERTEX
8
17_51000
10
157.74701
20
139.87100
30
51.00000
0
VERTEX
8
17_51000
10
157.68800
20
140.58701
30
51.00000
0
VERTEX
8
17_51000
10
157.66400
20
140.98401
30
51.00000
0
VERTEX
8
17_51000
10
157.57101
20
142.82401
30
51.00000
0
VERTEX
8
17_51000
10
157.51201
20
143.55101
30
51.00000
0
VERTEX
8
17_51000
10
157.39001
20
144.64201
30
51.00000
0
VERTEX
8
17_51000
10
157.32600
20
145.36401
30
51.00000
0
VERTEX
8
17_51000
10
157.22801
20
147.20401
30
51.00000
0
VERTEX
8
17_51000
10
157.20201
20
147.53801
30
51.00000
0
VERTEX
8
17_51000
10
157.09001
20
150.49800
30
51.00000
0
VERTEX
8
17_51000
10
157.07001
20
151.66000
30
51.00000
0
VERTEX
8
17_51000
10
157.02200
20
152.35001
30
51.00000
0
VERTEX
8
17_51000
10
157.00201
20
152.75201
30
51.00000
0
VERTEX
8
17_51000
10
157.00801
20
153.13400
30
51.00000
0
VERTEX
8
17_51000
10
156.99400
20
153.50401
30
51.00000
0
VERTEX
8
17_51000
10
156.96001
20
153.85800
30
51.00000
0
VERTEX
8
17_51000
10
156.95601
20
154.23401
30
51.00000
0
VERTEX
8
17_51000
10
156.91901
20
154.54601
30
51.00000
0
VERTEX
8
17_51000
10
156.88400
20
154.94000
30
51.00000
0
VERTEX
8
17_51000
10
156.86401
20
155.26100
30
51.00000
0
VERTEX
8
17_51000
10
156.85001
20
155.67201
30
51.00000
0
VERTEX
8
17_51000
10
156.78001
20
156.75401
30
51.00000
0
VERTEX
8
17_51000
10
156.74400
20
157.86201
30
51.00000
0
VERTEX
8
17_51000
10
156.65401
20
159.29601
30
51.00000
0
VERTEX
8
17_51000
10
156.61900
20
160.30602
30
51.00000
0
VERTEX
8
17_51000
10
156.59401
20
160.76401
30
51.00000
0
VERTEX
8
17_51000
10
156.58601
20
161.13600
30
51.00000
0
VERTEX
8
17_51000
10
156.51801
20
162.53300
30
51.00000
0
VERTEX
8
17_51000
10
156.49400
20
163.26701
30
51.00000
0
VERTEX
8
17_51000
10
156.47000
20
163.67601
30
51.00000
0
VERTEX
8
17_51000
10
156.41200
20
165.13400
30
51.00000
0
VERTEX
8
17_51000
10
156.38200
20
166.61401
30
51.00000
0
VERTEX
8
17_51000
10
156.34201
20
167.70601
30
51.00000
0
VERTEX
8
17_51000
10
156.35201
20
168.78801
30
51.00000
0
VERTEX
8
17_51000
10
156.34401
20
169.59201
30
51.00000
0
VERTEX
8
17_51000
10
156.37201
20
171.88000
30
51.00000
0
VERTEX
8
17_51000
10
156.40201
20
172.66000
30
51.00000
0
VERTEX
8
17_51000
10
156.42001
20
174.18800
30
51.00000
0
VERTEX
8
17_51000
10
156.45401
20
174.97801
30
51.00000
0
VERTEX
8
17_51000
10
156.46201
20
175.36401
30
51.00000
0
VERTEX
8
17_51000
10
156.45500
20
175.68001
30
51.00000
0
VERTEX
8
17_51000
10
156.46001
20
176.86801
30
51.00000
0
VERTEX
8
17_51000
10
156.44701
20
177.92900
30
51.00000
0
VERTEX
8
17_51000
10
156.45001
20
181.06001
30
51.00000
0
VERTEX
8
17_51000
10
156.46101
20
181.71800
30
51.00000
0
VERTEX
8
17_51000
10
156.48201
20
182.17401
30
51.00000
0
VERTEX
8
17_51000
10
156.47801
20
182.87100
30
51.00000
0
VERTEX
8
17_51000
10
156.49001
20
183.37401
30
51.00000
0
VERTEX
8
17_51000
10
10.57000
20
184.24600
30
51.00000
0
VERTEX
8
17_51000
10
10.51600
20
183.30801
30
51.00000
0
VERTEX
8
17_51000
10
10.45800
20
181.85800
30
51.00000
0
VERTEX
8
17_51000
10
10.37300
20
180.80200
30
51.00000
0
VERTEX
8
17_51000
10
10.28100
20
179.41000
30
51.00000
0
VERTEX
8
17_51000
10
10.26400
20
179.03601
30
51.00000
0
VERTEX
8
17_51000
10
10.05200
20
176.56201
30
51.00000
0
VERTEX
8
17_51000
10
10.96400
20
176.14101
30
51.00000
0
VERTEX
8
17_51000
10
11.42700
20
175.82800
30
51.00000
0
VERTEX
8
17_51000
10
12.09300
20
175.39900
30
51.00000
0
VERTEX
8
17_51000
10
12.74100
20
174.77901
30
51.00000
0
VERTEX
8
17_51000
10
13.01700
20
174.52600
30
51.00000
0
VERTEX
8
17_51000
10
13.29100
20
174.24001
30
51.00000
0
VERTEX
8
17_51000
10
14.35100
20
172.75301
30
51.00000
0
VERTEX
8
17_51000
10
14.53900
20
172.55101
30
51.00000
0
VERTEX
8
17_51000
10
15.39700
20
171.34500
30
51.00000
0
VERTEX
8
17_51000
10
15.95100
20
170.44901
30
51.00000
0
VERTEX
8
17_51000
10
16.18800
20
170.14401
30
51.00000
0
VERTEX
8
17_51000
10
16.40900
20
169.73701
30
51.00000
0
VERTEX
8
17_51000
10
16.88400
20
168.94901
30
51.00000
0
VERTEX
8
17_51000
10
17.72700
20
166.77701
30
51.00000
0
VERTEX
8
17_51000
10
18.13200
20
165.90401
30
51.00000
0
VERTEX
8
17_51000
10
18.38300
20
165.14201
30
51.00000
0
VERTEX
8
17_51000
10
19.05800
20
162.57501
30
51.00000
0
VERTEX
8
17_51000
10
19.16800
20
162.27802
30
51.00000
0
VERTEX
8
17_51000
10
19.36400
20
161.55602
30
51.00000
0
VERTEX
8
17_51000
10
19.44300
20
161.29800
30
51.00000
0
VERTEX
8
17_51000
10
20.20700
20
157.94101
30
51.00000
0
VERTEX
8
17_51000
10
20.25900
20
157.62801
30
51.00000
0
VERTEX
8
17_51000
10
20.58700
20
155.89201
30
51.00000
0
VERTEX
8
17_51000
10
21.18400
20
151.68901
30
51.00000
0
VERTEX
8
17_51000
10
21.44100
20
149.45500
30
51.00000
0
VERTEX
8
17_51000
10
21.48600
20
147.72701
30
51.00000
0
VERTEX
8
17_51000
10
21.48500
20
146.07901
30
51.00000
0
VERTEX
8
17_51000
10
21.44000
20
145.69701
30
51.00000
0
VERTEX
8
17_51000
10
21.37500
20
143.78900
30
51.00000
0
VERTEX
8
17_51000
10
21.18300
20
140.92801
30
51.00000
0
VERTEX
8
17_51000
10
20.93900
20
138.29001
30
51.00000
0
VERTEX
8
17_51000
10
20.86600
20
137.38901
30
51.00000
0
VERTEX
8
17_51000
10
20.40300
20
134.67500
30
51.00000
0
VERTEX
8
17_51000
10
20.34200
20
134.18701
30
51.00000
0
VERTEX
8
17_51000
10
19.55100
20
129.84001
30
51.00000
0
VERTEX
8
17_51000
10
18.46100
20
124.08001
30
51.00000
0
VERTEX
8
17_51000
10
18.11400
20
122.46101
30
51.00000
0
VERTEX
8
17_51000
10
17.45700
20
119.21700
30
51.00000
0
VERTEX
8
17_51000
10
16.84300
20
116.74300
30
51.00000
0
VERTEX
8
17_51000
10
16.35700
20
114.69901
30
51.00000
0
VERTEX
8
17_51000
10
15.86100
20
112.92200
30
51.00000
0
VERTEX
8
17_51000
10
15.74300
20
112.47401
30
51.00000
0
VERTEX
8
17_51000
10
15.60800
20
112.08301
30
51.00000
0
VERTEX
8
17_51000
10
15.50500
20
111.75201
30
51.00000
0
VERTEX
8
17_51000
10
15.23200
20
110.80901
30
51.00000
0
VERTEX
8
17_51000
10
14.70600
20
109.26100
30
51.00000
0
VERTEX
8
17_51000
10
14.61300
20
108.96001
30
51.00000
0
VERTEX
8
17_51000
10
14.42900
20
108.55100
30
51.00000
0
VERTEX
8
17_51000
10
14.07300
20
107.43501
30
51.00000
0
VERTEX
8
17_51000
10
14.03400
20
107.27701
30
51.00000
0
VERTEX
8
17_51000
10
13.84200
20
106.95100
30
51.00000
0
VERTEX
8
17_51000
10
13.75700
20
106.60300
30
51.00000
0
VERTEX
8
17_51000
10
13.60400
20
106.09000
30
51.00000
0
VERTEX
8
17_51000
10
13.01200
20
104.91501
30
51.00000
0
VERTEX
8
17_51000
10
12.95600
20
104.66701
30
51.00000
0
VERTEX
8
17_51000
10
12.68700
20
104.37801
30
51.00000
0
VERTEX
8
17_51000
10
12.63100
20
104.13200
30
51.00000
0
VERTEX
8
17_51000
10
12.48600
20
103.87501
30
51.00000
0
VERTEX
8
17_51000
10
12.17500
20
102.97701
30
51.00000
0
VERTEX
8
17_51000
10
11.96700
20
102.59200
30
51.00000
0
VERTEX
8
17_51000
10
11.85000
20
102.48901
30
51.00000
0
VERTEX
8
17_51000
10
11.79900
20
102.29201
30
51.00000
0
VERTEX
8
17_51000
10
11.62300
20
102.03001
30
51.00000
0
VERTEX
8
17_51000
10
11.59200
20
101.90800
30
51.00000
0
VERTEX
8
17_51000
10
11.33900
20
101.42901
30
51.00000
0
VERTEX
8
17_51000
10
11.10300
20
100.87401
30
51.00000
0
VERTEX
8
17_51000
10
10.93600
20
100.53700
30
51.00000
0
VERTEX
8
17_51000
10
10.85700
20
100.41200
30
51.00000
0
VERTEX
8
17_51000
10
10.59200
20
99.31200
30
51.00000
0
VERTEX
8
17_51000
10
10.35200
20
98.89301
30
51.00000
0
VERTEX
8
17_51000
10
10.20100
20
98.48701
30
51.00000
0
VERTEX
8
17_51000
10
9.99000
20
98.17300
30
51.00000
0
VERTEX
8
17_51000
10
9.77800
20
97.81400
30
51.00000
0
VERTEX
8
17_51000
10
9.21600
20
96.95000
30
51.00000
0
VERTEX
8
17_51000
10
9.21600
20
96.66000
30
51.00000
0
VERTEX
8
17_51000
10
9.06100
20
96.30801
30
51.00000
0
VERTEX
8
17_51000
10
8.99000
20
96.01501
30
51.00000
0
VERTEX
8
17_51000
10
9.01000
20
95.48601
30
51.00000
0
VERTEX
8
17_51000
10
8.83100
20
95.21001
30
51.00000
0
VERTEX
8
17_51000
10
8.45400
20
94.65900
30
51.00000
0
VERTEX
8
17_51000
10
8.25300
20
94.57201
30
51.00000
0
VERTEX
8
17_51000
10
8.24900
20
94.51200
30
51.00000
0
VERTEX
8
17_51000
10
8.18500
20
94.44801
30
51.00000
0
VERTEX
8
17_51000
10
8.23600
20
92.71400
30
51.00000
0
VERTEX
8
17_51000
10
8.25600
20
92.33200
30
51.00000
0
VERTEX
8
17_51000
10
8.32000
20
91.57401
30
51.00000
0
VERTEX
8
17_51000
10
8.36200
20
90.81001
30
51.00000
0
VERTEX
8
17_51000
10
8.41600
20
90.04000
30
51.00000
0
VERTEX
8
17_51000
10
8.42800
20
89.65601
30
51.00000
0
VERTEX
8
17_51000
10
8.41400
20
88.88800
30
51.00000
0
VERTEX
8
17_51000
10
8.44600
20
87.37000
30
51.00000
0
VERTEX
8
17_51000
10
8.49600
20
86.21201
30
51.00000
0
VERTEX
8
17_51000
10
8.48400
20
84.28300
30
51.00000
0
VERTEX
8
17_51000
10
8.45400
20
82.37400
30
51.00000
0
VERTEX
8
17_51000
10
8.40000
20
80.83000
30
51.00000
0
VERTEX
8
17_51000
10
8.41600
20
80.45000
30
51.00000
0
VERTEX
8
17_51000
10
8.41800
20
80.07700
30
51.00000
0
VERTEX
8
17_51000
10
8.39200
20
79.29401
30
51.00000
0
VERTEX
8
17_51000
10
8.41000
20
77.80400
30
51.00000
0
VERTEX
8
17_51000
10
8.40800
20
76.99800
30
51.00000
0
VERTEX
8
17_51000
10
8.38400
20
76.22200
30
51.00000
0
VERTEX
8
17_51000
10
8.41000
20
75.46400
30
51.00000
0
VERTEX
8
17_51000
10
8.41000
20
73.93000
30
51.00000
0
VERTEX
8
17_51000
10
8.42200
20
73.18501
30
51.00000
0
VERTEX
8
17_51000
10
8.40000
20
71.62200
30
51.00000
0
VERTEX
8
17_51000
10
8.43800
20
70.48400
30
51.00000
0
VERTEX
8
17_51000
10
8.44600
20
68.95600
30
51.00000
0
VERTEX
8
17_51000
10
8.43800
20
67.41801
30
51.00000
0
VERTEX
8
17_51000
10
8.40200
20
64.73700
30
51.00000
0
VERTEX
8
17_51000
10
8.37800
20
61.62900
30
51.00000
0
VERTEX
8
17_51000
10
8.33400
20
60.08200
30
51.00000
0
VERTEX
8
17_51000
10
8.33600
20
59.31600
30
51.00000
0
VERTEX
8
17_51000
10
8.36200
20
58.55800
30
51.00000
0
VERTEX
8
17_51000
10
8.36000
20
58.17600
30
51.00000
0
VERTEX
8
17_51000
10
8.37400
20
57.04100
30
51.00000
0
VERTEX
8
17_51000
10
8.40200
20
55.89600
30
51.00000
0
VERTEX
8
17_51000
10
8.40200
20
55.13000
30
51.00000
0
VERTEX
8
17_51000
10
8.41600
20
53.97600
30
51.00000
0
VERTEX
8
17_51000
10
8.47600
20
52.10600
30
51.00000
0
VERTEX
8
17_51000
10
8.49100
20
51.37500
30
51.00000
0
VERTEX
8
17_51000
10
8.58800
20
48.73000
30
51.00000
0
VERTEX
8
17_51000
10
8.63700
20
47.63400
30
51.00000
0
VERTEX
8
17_51000
10
8.68200
20
46.88200
30
51.00000
0
VERTEX
8
17_51000
10
8.71600
20
46.14200
30
51.00000
0
VERTEX
8
17_51000
10
8.80800
20
44.68000
30
51.00000
0
VERTEX
8
17_51000
10
9.02300
20
42.13900
30
51.00000
0
VERTEX
8
17_51000
10
9.32200
20
38.99400
30
51.00000
0
VERTEX
8
17_51000
10
9.63600
20
36.28800
30
51.00000
0
VERTEX
8
17_51000
10
9.72900
20
35.62000
30
51.00000
0
VERTEX
8
17_51000
10
9.80900
20
34.93800
30
51.00000
0
SEQEND
8
17_51000
0
ENDSEC
0
EOF
