0
SECTION
2
HEADER
9
$ACADVER
1
AC1009
0
ENDSEC
0
SECTION
2
TABLES
0
TABLE
2
LAYER
70
1
0
LAYER
2
35_105000
70
0
62
7
6
CONTINUOUS
0
ENDTAB
0
ENDSEC
0
SECTION
2
BLOCKS
0
ENDSEC
0
SECTION
2
ENTITIES
0
POLYLINE
8
35_105000
62
5
0
VERTEX
8
35_105000
10
75.80701
20
107.62701
30
105.00000
0
VERTEX
8
35_105000
10
75.89001
20
107.10700
30
105.00000
0
VERTEX
8
35_105000
10
75.98400
20
106.29800
30
105.00000
0
VERTEX
8
35_105000
10
76.38500
20
105.10001
30
105.00000
0
VERTEX
8
35_105000
10
76.71900
20
104.37501
30
105.00000
0
VERTEX
8
35_105000
10
77.62300
20
102.51201
30
105.00000
0
VERTEX
8
35_105000
10
78.01400
20
101.75500
30
105.00000
0
VERTEX
8
35_105000
10
78.29900
20
101.26701
30
105.00000
0
VERTEX
8
35_105000
10
79.07301
20
100.13000
30
105.00000
0
VERTEX
8
35_105000
10
79.51601
20
99.51401
30
105.00000
0
VERTEX
8
35_105000
10
79.82301
20
99.12601
30
105.00000
0
VERTEX
8
35_105000
10
80.31900
20
98.57401
30
105.00000
0
VERTEX
8
35_105000
10
80.66000
20
98.21400
30
105.00000
0
VERTEX
8
35_105000
10
80.76601
20
98.12300
30
105.00000
0
VERTEX
8
35_105000
10
81.48400
20
97.63100
30
105.00000
0
VERTEX
8
35_105000
10
81.87200
20
97.34801
30
105.00000
0
VERTEX
8
35_105000
10
82.23601
20
97.13901
30
105.00000
0
VERTEX
8
35_105000
10
83.49400
20
96.59601
30
105.00000
0
VERTEX
8
35_105000
10
83.69000
20
96.50301
30
105.00000
0
VERTEX
8
35_105000
10
84.90401
20
96.24300
30
105.00000
0
VERTEX
8
35_105000
10
85.67700
20
96.18600
30
105.00000
0
VERTEX
8
35_105000
10
85.82700
20
96.20100
30
105.00000
0
VERTEX
8
35_105000
10
86.96600
20
96.40800
30
105.00000
0
VERTEX
8
35_105000
10
87.32900
20
96.62200
30
105.00000
0
VERTEX
8
35_105000
10
87.42200
20
96.63500
30
105.00000
0
VERTEX
8
35_105000
10
87.76601
20
96.87200
30
105.00000
0
VERTEX
8
35_105000
10
88.50900
20
97.29501
30
105.00000
0
VERTEX
8
35_105000
10
89.27700
20
97.79201
30
105.00000
0
VERTEX
8
35_105000
10
89.92300
20
98.38400
30
105.00000
0
VERTEX
8
35_105000
10
90.20200
20
98.58301
30
105.00000
0
VERTEX
8
35_105000
10
90.99800
20
99.24001
30
105.00000
0
VERTEX
8
35_105000
10
91.48200
20
99.69601
30
105.00000
0
VERTEX
8
35_105000
10
91.97100
20
100.24500
30
105.00000
0
VERTEX
8
35_105000
10
92.02300
20
100.33201
30
105.00000
0
VERTEX
8
35_105000
10
92.42600
20
100.91400
30
105.00000
0
VERTEX
8
35_105000
10
92.54700
20
101.07201
30
105.00000
0
VERTEX
8
35_105000
10
93.15000
20
101.75700
30
105.00000
0
VERTEX
8
35_105000
10
93.90401
20
102.71301
30
105.00000
0
VERTEX
8
35_105000
10
94.03101
20
102.81901
30
105.00000
0
VERTEX
8
35_105000
10
94.11600
20
102.91000
30
105.00000
0
VERTEX
8
35_105000
10
94.73400
20
103.50500
30
105.00000
0
VERTEX
8
35_105000
10
95.42400
20
104.58900
30
105.00000
0
VERTEX
8
35_105000
10
95.60201
20
105.04001
30
105.00000
0
VERTEX
8
35_105000
10
95.89400
20
105.97501
30
105.00000
0
VERTEX
8
35_105000
10
96.07301
20
106.44000
30
105.00000
0
VERTEX
8
35_105000
10
96.10600
20
106.71101
30
105.00000
0
VERTEX
8
35_105000
10
96.19200
20
108.03600
30
105.00000
0
VERTEX
8
35_105000
10
96.19701
20
108.50600
30
105.00000
0
VERTEX
8
35_105000
10
96.01100
20
110.23501
30
105.00000
0
VERTEX
8
35_105000
10
95.92001
20
110.86700
30
105.00000
0
VERTEX
8
35_105000
10
95.75800
20
111.41701
30
105.00000
0
VERTEX
8
35_105000
10
95.56500
20
112.30000
30
105.00000
0
VERTEX
8
35_105000
10
95.27100
20
113.24500
30
105.00000
0
VERTEX
8
35_105000
10
94.83301
20
114.31500
30
105.00000
0
VERTEX
8
35_105000
10
94.30000
20
115.30701
30
105.00000
0
VERTEX
8
35_105000
10
93.33801
20
116.90201
30
105.00000
0
VERTEX
8
35_105000
10
92.85600
20
117.52901
30
105.00000
0
VERTEX
8
35_105000
10
92.20901
20
118.34100
30
105.00000
0
VERTEX
8
35_105000
10
91.68600
20
118.82500
30
105.00000
0
VERTEX
8
35_105000
10
91.12501
20
119.37401
30
105.00000
0
VERTEX
8
35_105000
10
90.75800
20
119.64201
30
105.00000
0
VERTEX
8
35_105000
10
90.28400
20
120.07401
30
105.00000
0
VERTEX
8
35_105000
10
89.58701
20
120.56500
30
105.00000
0
VERTEX
8
35_105000
10
89.50900
20
120.61201
30
105.00000
0
VERTEX
8
35_105000
10
88.63800
20
121.01201
30
105.00000
0
VERTEX
8
35_105000
10
87.94901
20
121.21201
30
105.00000
0
VERTEX
8
35_105000
10
86.82301
20
121.33801
30
105.00000
0
VERTEX
8
35_105000
10
86.63700
20
121.36900
30
105.00000
0
VERTEX
8
35_105000
10
86.11700
20
121.26601
30
105.00000
0
VERTEX
8
35_105000
10
85.80701
20
121.24801
30
105.00000
0
VERTEX
8
35_105000
10
85.39001
20
121.13200
30
105.00000
0
VERTEX
8
35_105000
10
84.85900
20
120.86001
30
105.00000
0
VERTEX
8
35_105000
10
84.14600
20
120.53600
30
105.00000
0
VERTEX
8
35_105000
10
83.65100
20
120.35400
30
105.00000
0
VERTEX
8
35_105000
10
83.46001
20
120.29501
30
105.00000
0
VERTEX
8
35_105000
10
83.08100
20
120.07301
30
105.00000
0
VERTEX
8
35_105000
10
81.63400
20
119.06500
30
105.00000
0
VERTEX
8
35_105000
10
81.05100
20
118.53201
30
105.00000
0
VERTEX
8
35_105000
10
80.41300
20
117.96901
30
105.00000
0
VERTEX
8
35_105000
10
80.10001
20
117.72501
30
105.00000
0
VERTEX
8
35_105000
10
79.31500
20
116.88000
30
105.00000
0
VERTEX
8
35_105000
10
79.05300
20
116.57800
30
105.00000
0
VERTEX
8
35_105000
10
78.81200
20
116.24600
30
105.00000
0
VERTEX
8
35_105000
10
77.88700
20
114.91300
30
105.00000
0
VERTEX
8
35_105000
10
76.97200
20
113.19501
30
105.00000
0
VERTEX
8
35_105000
10
76.91000
20
113.01601
30
105.00000
0
VERTEX
8
35_105000
10
76.80801
20
112.79401
30
105.00000
0
VERTEX
8
35_105000
10
76.29000
20
111.43501
30
105.00000
0
VERTEX
8
35_105000
10
76.13000
20
110.87501
30
105.00000
0
VERTEX
8
35_105000
10
75.95500
20
110.06600
30
105.00000
0
VERTEX
8
35_105000
10
75.90200
20
109.25900
30
105.00000
0
VERTEX
8
35_105000
10
75.79601
20
108.27000
30
105.00000
0
VERTEX
8
35_105000
10
75.79401
20
107.83101
30
105.00000
0
VERTEX
8
35_105000
10
75.80701
20
107.62701
30
105.00000
0
SEQEND
8
35_105000
0
ENDSEC
0
EOF
