0
SECTION
2
HEADER
9
$ACADVER
1
AC1009
0
ENDSEC
0
SECTION
2
TABLES
0
TABLE
2
LAYER
70
1
0
LAYER
2
28_84000
70
0
62
7
6
CONTINUOUS
0
ENDTAB
0
ENDSEC
0
SECTION
2
BLOCKS
0
ENDSEC
0
SECTION
2
ENTITIES
0
POLYLINE
8
28_84000
62
5
0
VERTEX
8
28_84000
10
67.24700
20
145.90300
30
84.00000
0
VERTEX
8
28_84000
10
67.38600
20
145.81300
30
84.00000
0
VERTEX
8
28_84000
10
67.71301
20
145.48500
30
84.00000
0
VERTEX
8
28_84000
10
67.61800
20
145.18501
30
84.00000
0
VERTEX
8
28_84000
10
67.63100
20
145.14301
30
84.00000
0
VERTEX
8
28_84000
10
67.42600
20
145.06601
30
84.00000
0
VERTEX
8
28_84000
10
66.69601
20
145.00900
30
84.00000
0
VERTEX
8
28_84000
10
66.04800
20
145.12201
30
84.00000
0
VERTEX
8
28_84000
10
65.96400
20
145.14601
30
84.00000
0
VERTEX
8
28_84000
10
65.90300
20
145.16701
30
84.00000
0
VERTEX
8
28_84000
10
65.89000
20
145.18800
30
84.00000
0
VERTEX
8
28_84000
10
65.66000
20
145.36501
30
84.00000
0
VERTEX
8
28_84000
10
65.66000
20
145.45300
30
84.00000
0
VERTEX
8
28_84000
10
65.59100
20
145.61301
30
84.00000
0
VERTEX
8
28_84000
10
66.00500
20
146.13501
30
84.00000
0
VERTEX
8
28_84000
10
66.44400
20
146.15701
30
84.00000
0
VERTEX
8
28_84000
10
66.60300
20
146.08801
30
84.00000
0
VERTEX
8
28_84000
10
66.76300
20
146.07201
30
84.00000
0
VERTEX
8
28_84000
10
67.24700
20
145.90300
30
84.00000
0
SEQEND
8
28_84000
0
POLYLINE
8
28_84000
62
5
0
VERTEX
8
28_84000
10
105.22501
20
142.60701
30
84.00000
0
VERTEX
8
28_84000
10
104.98801
20
142.88800
30
84.00000
0
VERTEX
8
28_84000
10
105.34701
20
143.30600
30
84.00000
0
VERTEX
8
28_84000
10
105.51201
20
143.40800
30
84.00000
0
VERTEX
8
28_84000
10
105.65900
20
143.46600
30
84.00000
0
VERTEX
8
28_84000
10
105.74300
20
143.51001
30
84.00000
0
VERTEX
8
28_84000
10
106.01900
20
143.55101
30
84.00000
0
VERTEX
8
28_84000
10
106.34000
20
143.57001
30
84.00000
0
VERTEX
8
28_84000
10
106.66400
20
143.52600
30
84.00000
0
VERTEX
8
28_84000
10
107.12501
20
143.47801
30
84.00000
0
VERTEX
8
28_84000
10
107.67800
20
142.90800
30
84.00000
0
VERTEX
8
28_84000
10
107.81600
20
142.80101
30
84.00000
0
VERTEX
8
28_84000
10
107.86201
20
142.74200
30
84.00000
0
VERTEX
8
28_84000
10
107.89700
20
142.65300
30
84.00000
0
VERTEX
8
28_84000
10
107.73000
20
142.20500
30
84.00000
0
VERTEX
8
28_84000
10
107.29800
20
141.98601
30
84.00000
0
VERTEX
8
28_84000
10
107.17101
20
141.94000
30
84.00000
0
VERTEX
8
28_84000
10
106.46500
20
141.88200
30
84.00000
0
VERTEX
8
28_84000
10
106.30601
20
141.91800
30
84.00000
0
VERTEX
8
28_84000
10
105.74300
20
142.16301
30
84.00000
0
VERTEX
8
28_84000
10
105.22501
20
142.34001
30
84.00000
0
VERTEX
8
28_84000
10
105.22501
20
142.60701
30
84.00000
0
SEQEND
8
28_84000
0
POLYLINE
8
28_84000
62
5
0
VERTEX
8
28_84000
10
109.29401
20
179.28601
30
84.00000
0
VERTEX
8
28_84000
10
46.50100
20
179.28801
30
84.00000
0
VERTEX
8
28_84000
10
46.21300
20
178.92001
30
84.00000
0
VERTEX
8
28_84000
10
45.42000
20
177.96901
30
84.00000
0
VERTEX
8
28_84000
10
43.98000
20
176.09300
30
84.00000
0
VERTEX
8
28_84000
10
42.24600
20
173.88802
30
84.00000
0
VERTEX
8
28_84000
10
41.57100
20
172.93901
30
84.00000
0
VERTEX
8
28_84000
10
40.43300
20
171.50801
30
84.00000
0
VERTEX
8
28_84000
10
40.31400
20
171.33200
30
84.00000
0
VERTEX
8
28_84000
10
40.15700
20
171.04800
30
84.00000
0
VERTEX
8
28_84000
10
40.05000
20
170.76801
30
84.00000
0
VERTEX
8
28_84000
10
39.85400
20
170.15401
30
84.00000
0
VERTEX
8
28_84000
10
39.61400
20
168.74701
30
84.00000
0
VERTEX
8
28_84000
10
39.54400
20
168.16301
30
84.00000
0
VERTEX
8
28_84000
10
39.51700
20
168.01701
30
84.00000
0
VERTEX
8
28_84000
10
39.50700
20
167.88000
30
84.00000
0
VERTEX
8
28_84000
10
39.39300
20
167.19901
30
84.00000
0
VERTEX
8
28_84000
10
39.29700
20
165.77301
30
84.00000
0
VERTEX
8
28_84000
10
39.28600
20
165.49001
30
84.00000
0
VERTEX
8
28_84000
10
39.32400
20
165.24200
30
84.00000
0
VERTEX
8
28_84000
10
39.49700
20
164.39900
30
84.00000
0
VERTEX
8
28_84000
10
39.50200
20
164.05101
30
84.00000
0
VERTEX
8
28_84000
10
39.65300
20
161.92700
30
84.00000
0
VERTEX
8
28_84000
10
39.74900
20
161.20401
30
84.00000
0
VERTEX
8
28_84000
10
39.77200
20
160.10001
30
84.00000
0
VERTEX
8
28_84000
10
39.80600
20
159.60101
30
84.00000
0
VERTEX
8
28_84000
10
39.78600
20
158.91701
30
84.00000
0
VERTEX
8
28_84000
10
39.94200
20
156.63901
30
84.00000
0
VERTEX
8
28_84000
10
40.08600
20
155.15001
30
84.00000
0
VERTEX
8
28_84000
10
40.25100
20
154.32901
30
84.00000
0
VERTEX
8
28_84000
10
40.69300
20
152.98300
30
84.00000
0
VERTEX
8
28_84000
10
40.93000
20
152.65601
30
84.00000
0
VERTEX
8
28_84000
10
41.32300
20
152.19901
30
84.00000
0
VERTEX
8
28_84000
10
41.95300
20
151.59001
30
84.00000
0
VERTEX
8
28_84000
10
42.05800
20
151.40001
30
84.00000
0
VERTEX
8
28_84000
10
42.38500
20
151.04501
30
84.00000
0
VERTEX
8
28_84000
10
42.64100
20
150.41301
30
84.00000
0
VERTEX
8
28_84000
10
42.91600
20
149.97401
30
84.00000
0
VERTEX
8
28_84000
10
43.25200
20
149.54601
30
84.00000
0
VERTEX
8
28_84000
10
43.55000
20
149.29601
30
84.00000
0
VERTEX
8
28_84000
10
43.96200
20
149.10501
30
84.00000
0
VERTEX
8
28_84000
10
44.43200
20
148.79401
30
84.00000
0
VERTEX
8
28_84000
10
45.08200
20
148.55000
30
84.00000
0
VERTEX
8
28_84000
10
45.47100
20
148.33601
30
84.00000
0
VERTEX
8
28_84000
10
45.48500
20
148.26701
30
84.00000
0
VERTEX
8
28_84000
10
45.80700
20
147.71901
30
84.00000
0
VERTEX
8
28_84000
10
45.86500
20
147.66301
30
84.00000
0
VERTEX
8
28_84000
10
45.96100
20
147.41200
30
84.00000
0
VERTEX
8
28_84000
10
46.37700
20
146.61101
30
84.00000
0
VERTEX
8
28_84000
10
47.09200
20
145.16501
30
84.00000
0
VERTEX
8
28_84000
10
47.44300
20
144.51601
30
84.00000
0
VERTEX
8
28_84000
10
47.72700
20
144.11900
30
84.00000
0
VERTEX
8
28_84000
10
47.74200
20
143.46301
30
84.00000
0
VERTEX
8
28_84000
10
47.76700
20
143.40800
30
84.00000
0
VERTEX
8
28_84000
10
47.76500
20
143.38200
30
84.00000
0
VERTEX
8
28_84000
10
47.72700
20
143.25000
30
84.00000
0
VERTEX
8
28_84000
10
47.57500
20
142.45700
30
84.00000
0
VERTEX
8
28_84000
10
47.53300
20
142.11301
30
84.00000
0
VERTEX
8
28_84000
10
47.86200
20
140.84601
30
84.00000
0
VERTEX
8
28_84000
10
47.98500
20
140.30600
30
84.00000
0
VERTEX
8
28_84000
10
48.09900
20
140.09500
30
84.00000
0
VERTEX
8
28_84000
10
48.20200
20
139.83601
30
84.00000
0
VERTEX
8
28_84000
10
48.48800
20
139.30600
30
84.00000
0
VERTEX
8
28_84000
10
49.07100
20
138.46201
30
84.00000
0
VERTEX
8
28_84000
10
49.28700
20
138.10101
30
84.00000
0
VERTEX
8
28_84000
10
49.81400
20
137.35600
30
84.00000
0
VERTEX
8
28_84000
10
50.93900
20
136.14700
30
84.00000
0
VERTEX
8
28_84000
10
51.67500
20
135.63501
30
84.00000
0
VERTEX
8
28_84000
10
52.37200
20
135.18600
30
84.00000
0
VERTEX
8
28_84000
10
52.49600
20
135.13301
30
84.00000
0
VERTEX
8
28_84000
10
54.00800
20
134.76300
30
84.00000
0
VERTEX
8
28_84000
10
54.26500
20
134.64401
30
84.00000
0
VERTEX
8
28_84000
10
54.41500
20
134.63901
30
84.00000
0
VERTEX
8
28_84000
10
55.60800
20
134.46501
30
84.00000
0
VERTEX
8
28_84000
10
56.42100
20
134.13600
30
84.00000
0
VERTEX
8
28_84000
10
56.78200
20
133.96400
30
84.00000
0
VERTEX
8
28_84000
10
57.07400
20
133.36900
30
84.00000
0
VERTEX
8
28_84000
10
57.57600
20
131.69400
30
84.00000
0
VERTEX
8
28_84000
10
59.24000
20
128.97301
30
84.00000
0
VERTEX
8
28_84000
10
59.48000
20
128.48700
30
84.00000
0
VERTEX
8
28_84000
10
59.53300
20
128.40500
30
84.00000
0
VERTEX
8
28_84000
10
59.62500
20
127.10300
30
84.00000
0
VERTEX
8
28_84000
10
59.54900
20
126.79900
30
84.00000
0
VERTEX
8
28_84000
10
58.23000
20
124.57101
30
84.00000
0
VERTEX
8
28_84000
10
57.65900
20
123.86201
30
84.00000
0
VERTEX
8
28_84000
10
57.29200
20
123.31801
30
84.00000
0
VERTEX
8
28_84000
10
56.69600
20
122.70701
30
84.00000
0
VERTEX
8
28_84000
10
55.38600
20
121.15701
30
84.00000
0
VERTEX
8
28_84000
10
54.92700
20
120.46600
30
84.00000
0
VERTEX
8
28_84000
10
53.96400
20
119.56701
30
84.00000
0
VERTEX
8
28_84000
10
52.77800
20
118.08801
30
84.00000
0
VERTEX
8
28_84000
10
51.73600
20
116.82500
30
84.00000
0
VERTEX
8
28_84000
10
51.17600
20
116.10101
30
84.00000
0
VERTEX
8
28_84000
10
51.17900
20
116.03101
30
84.00000
0
VERTEX
8
28_84000
10
50.38600
20
115.06001
30
84.00000
0
VERTEX
8
28_84000
10
50.36200
20
115.01401
30
84.00000
0
VERTEX
8
28_84000
10
49.90200
20
114.37200
30
84.00000
0
VERTEX
8
28_84000
10
49.22000
20
113.36700
30
84.00000
0
VERTEX
8
28_84000
10
47.28800
20
109.42700
30
84.00000
0
VERTEX
8
28_84000
10
47.25500
20
109.29101
30
84.00000
0
VERTEX
8
28_84000
10
46.28600
20
106.42400
30
84.00000
0
VERTEX
8
28_84000
10
46.08800
20
105.71301
30
84.00000
0
VERTEX
8
28_84000
10
45.76100
20
103.99400
30
84.00000
0
VERTEX
8
28_84000
10
45.74200
20
103.77100
30
84.00000
0
VERTEX
8
28_84000
10
45.75300
20
102.13200
30
84.00000
0
VERTEX
8
28_84000
10
45.73900
20
101.69901
30
84.00000
0
VERTEX
8
28_84000
10
45.79900
20
101.14301
30
84.00000
0
VERTEX
8
28_84000
10
46.05100
20
100.31801
30
84.00000
0
VERTEX
8
28_84000
10
46.25400
20
98.87200
30
84.00000
0
VERTEX
8
28_84000
10
46.36400
20
98.57301
30
84.00000
0
VERTEX
8
28_84000
10
46.57700
20
97.78300
30
84.00000
0
VERTEX
8
28_84000
10
46.88300
20
96.85400
30
84.00000
0
VERTEX
8
28_84000
10
47.34500
20
95.74700
30
84.00000
0
VERTEX
8
28_84000
10
48.13500
20
94.05000
30
84.00000
0
VERTEX
8
28_84000
10
50.27100
20
90.97701
30
84.00000
0
VERTEX
8
28_84000
10
51.04400
20
89.80400
30
84.00000
0
VERTEX
8
28_84000
10
51.22800
20
89.44000
30
84.00000
0
VERTEX
8
28_84000
10
52.18200
20
85.18700
30
84.00000
0
VERTEX
8
28_84000
10
52.33000
20
84.23901
30
84.00000
0
VERTEX
8
28_84000
10
52.34200
20
83.62801
30
84.00000
0
VERTEX
8
28_84000
10
52.30400
20
83.44000
30
84.00000
0
VERTEX
8
28_84000
10
52.27600
20
83.24100
30
84.00000
0
VERTEX
8
28_84000
10
52.08000
20
82.43800
30
84.00000
0
VERTEX
8
28_84000
10
52.00200
20
82.07201
30
84.00000
0
VERTEX
8
28_84000
10
51.93600
20
82.00301
30
84.00000
0
VERTEX
8
28_84000
10
52.15900
20
81.63700
30
84.00000
0
VERTEX
8
28_84000
10
52.21800
20
81.40000
30
84.00000
0
VERTEX
8
28_84000
10
52.13700
20
80.51601
30
84.00000
0
VERTEX
8
28_84000
10
52.14200
20
80.38800
30
84.00000
0
VERTEX
8
28_84000
10
52.12800
20
79.49200
30
84.00000
0
VERTEX
8
28_84000
10
52.13900
20
78.99200
30
84.00000
0
VERTEX
8
28_84000
10
52.15400
20
78.97601
30
84.00000
0
VERTEX
8
28_84000
10
52.26000
20
78.75800
30
84.00000
0
VERTEX
8
28_84000
10
52.23000
20
78.54700
30
84.00000
0
VERTEX
8
28_84000
10
52.27600
20
78.04900
30
84.00000
0
VERTEX
8
28_84000
10
52.24300
20
77.22501
30
84.00000
0
VERTEX
8
28_84000
10
52.21600
20
76.88000
30
84.00000
0
VERTEX
8
28_84000
10
52.22300
20
76.85900
30
84.00000
0
VERTEX
8
28_84000
10
52.55100
20
76.09500
30
84.00000
0
VERTEX
8
28_84000
10
52.87300
20
75.80000
30
84.00000
0
VERTEX
8
28_84000
10
53.15800
20
75.44400
30
84.00000
0
VERTEX
8
28_84000
10
53.35300
20
75.22800
30
84.00000
0
VERTEX
8
28_84000
10
53.86600
20
75.03201
30
84.00000
0
VERTEX
8
28_84000
10
55.09100
20
74.52700
30
84.00000
0
VERTEX
8
28_84000
10
55.42500
20
74.32001
30
84.00000
0
VERTEX
8
28_84000
10
57.00500
20
73.00000
30
84.00000
0
VERTEX
8
28_84000
10
57.05100
20
72.95400
30
84.00000
0
VERTEX
8
28_84000
10
57.83500
20
72.30901
30
84.00000
0
VERTEX
8
28_84000
10
58.36800
20
71.81800
30
84.00000
0
VERTEX
8
28_84000
10
59.50900
20
70.58000
30
84.00000
0
VERTEX
8
28_84000
10
59.54200
20
70.52901
30
84.00000
0
VERTEX
8
28_84000
10
59.56400
20
70.34000
30
84.00000
0
VERTEX
8
28_84000
10
59.54900
20
69.80901
30
84.00000
0
VERTEX
8
28_84000
10
59.52600
20
69.70900
30
84.00000
0
VERTEX
8
28_84000
10
59.37900
20
69.39700
30
84.00000
0
VERTEX
8
28_84000
10
59.30200
20
69.25401
30
84.00000
0
VERTEX
8
28_84000
10
59.19200
20
69.09400
30
84.00000
0
VERTEX
8
28_84000
10
58.77300
20
68.42900
30
84.00000
0
VERTEX
8
28_84000
10
58.19200
20
67.62000
30
84.00000
0
VERTEX
8
28_84000
10
58.04800
20
67.35001
30
84.00000
0
VERTEX
8
28_84000
10
57.14200
20
65.95300
30
84.00000
0
VERTEX
8
28_84000
10
56.62700
20
64.97900
30
84.00000
0
VERTEX
8
28_84000
10
56.50300
20
64.59000
30
84.00000
0
VERTEX
8
28_84000
10
55.86600
20
62.28100
30
84.00000
0
VERTEX
8
28_84000
10
55.23400
20
59.86800
30
84.00000
0
VERTEX
8
28_84000
10
55.04100
20
59.05500
30
84.00000
0
VERTEX
8
28_84000
10
54.90700
20
57.85500
30
84.00000
0
VERTEX
8
28_84000
10
54.70700
20
56.65400
30
84.00000
0
VERTEX
8
28_84000
10
54.60200
20
55.34300
30
84.00000
0
VERTEX
8
28_84000
10
54.45400
20
53.64000
30
84.00000
0
VERTEX
8
28_84000
10
54.32500
20
51.73100
30
84.00000
0
VERTEX
8
28_84000
10
54.54000
20
48.91400
30
84.00000
0
VERTEX
8
28_84000
10
54.73100
20
46.97300
30
84.00000
0
VERTEX
8
28_84000
10
55.06800
20
45.41900
30
84.00000
0
VERTEX
8
28_84000
10
55.04800
20
45.15100
30
84.00000
0
VERTEX
8
28_84000
10
55.75100
20
41.02400
30
84.00000
0
VERTEX
8
28_84000
10
55.91000
20
39.34800
30
84.00000
0
VERTEX
8
28_84000
10
55.88200
20
38.90000
30
84.00000
0
VERTEX
8
28_84000
10
55.93900
20
37.73100
30
84.00000
0
VERTEX
8
28_84000
10
55.91600
20
36.02100
30
84.00000
0
VERTEX
8
28_84000
10
55.79800
20
35.55600
30
84.00000
0
VERTEX
8
28_84000
10
55.74200
20
35.19600
30
84.00000
0
VERTEX
8
28_84000
10
55.61100
20
34.13200
30
84.00000
0
VERTEX
8
28_84000
10
55.52300
20
33.81500
30
84.00000
0
VERTEX
8
28_84000
10
55.45500
20
33.51400
30
84.00000
0
VERTEX
8
28_84000
10
55.41300
20
33.39500
30
84.00000
0
VERTEX
8
28_84000
10
55.39500
20
33.29800
30
84.00000
0
VERTEX
8
28_84000
10
54.80800
20
32.09100
30
84.00000
0
VERTEX
8
28_84000
10
54.76100
20
32.03700
30
84.00000
0
VERTEX
8
28_84000
10
54.60200
20
31.14900
30
84.00000
0
VERTEX
8
28_84000
10
54.42200
20
30.39900
30
84.00000
0
VERTEX
8
28_84000
10
54.20600
20
30.05400
30
84.00000
0
VERTEX
8
28_84000
10
54.04900
20
29.68900
30
84.00000
0
VERTEX
8
28_84000
10
53.70700
20
29.15100
30
84.00000
0
VERTEX
8
28_84000
10
53.51700
20
28.37500
30
84.00000
0
VERTEX
8
28_84000
10
53.44000
20
28.15200
30
84.00000
0
VERTEX
8
28_84000
10
53.33500
20
27.88400
30
84.00000
0
VERTEX
8
28_84000
10
53.02700
20
27.20200
30
84.00000
0
VERTEX
8
28_84000
10
52.62800
20
25.99100
30
84.00000
0
VERTEX
8
28_84000
10
52.49000
20
25.77900
30
84.00000
0
VERTEX
8
28_84000
10
52.35900
20
25.17800
30
84.00000
0
VERTEX
8
28_84000
10
52.26700
20
25.09600
30
84.00000
0
VERTEX
8
28_84000
10
52.19800
20
24.90300
30
84.00000
0
VERTEX
8
28_84000
10
51.78000
20
23.85500
30
84.00000
0
VERTEX
8
28_84000
10
51.72200
20
23.61900
30
84.00000
0
VERTEX
8
28_84000
10
51.69900
20
23.57100
30
84.00000
0
VERTEX
8
28_84000
10
51.63100
20
23.50000
30
84.00000
0
VERTEX
8
28_84000
10
51.43200
20
23.06000
30
84.00000
0
VERTEX
8
28_84000
10
51.32600
20
23.03800
30
84.00000
0
VERTEX
8
28_84000
10
51.16200
20
22.76100
30
84.00000
0
VERTEX
8
28_84000
10
50.94600
20
22.18000
30
84.00000
0
VERTEX
8
28_84000
10
50.69400
20
21.20800
30
84.00000
0
VERTEX
8
28_84000
10
50.58600
20
20.87400
30
84.00000
0
VERTEX
8
28_84000
10
50.12700
20
20.09000
30
84.00000
0
VERTEX
8
28_84000
10
50.08200
20
19.84000
30
84.00000
0
VERTEX
8
28_84000
10
49.98900
20
19.58400
30
84.00000
0
VERTEX
8
28_84000
10
49.78900
20
19.29700
30
84.00000
0
VERTEX
8
28_84000
10
49.69600
20
19.10700
30
84.00000
0
VERTEX
8
28_84000
10
49.59900
20
18.83800
30
84.00000
0
VERTEX
8
28_84000
10
49.47600
20
18.45400
30
84.00000
0
VERTEX
8
28_84000
10
49.33200
20
18.30800
30
84.00000
0
VERTEX
8
28_84000
10
48.95700
20
17.80500
30
84.00000
0
VERTEX
8
28_84000
10
48.72600
20
17.18700
30
84.00000
0
VERTEX
8
28_84000
10
48.70400
20
17.15900
30
84.00000
0
VERTEX
8
28_84000
10
48.68300
20
17.10700
30
84.00000
0
VERTEX
8
28_84000
10
48.60500
20
16.50400
30
84.00000
0
VERTEX
8
28_84000
10
48.56900
20
15.80200
30
84.00000
0
VERTEX
8
28_84000
10
48.57500
20
15.28600
30
84.00000
0
VERTEX
8
28_84000
10
48.35700
20
15.03200
30
84.00000
0
VERTEX
8
28_84000
10
48.33200
20
14.99000
30
84.00000
0
VERTEX
8
28_84000
10
48.28700
20
14.69900
30
84.00000
0
VERTEX
8
28_84000
10
48.32100
20
14.50900
30
84.00000
0
VERTEX
8
28_84000
10
49.17800
20
12.27600
30
84.00000
0
VERTEX
8
28_84000
10
50.32300
20
10.47700
30
84.00000
0
VERTEX
8
28_84000
10
50.81000
20
10.02400
30
84.00000
0
VERTEX
8
28_84000
10
51.56800
20
9.11500
30
84.00000
0
VERTEX
8
28_84000
10
52.47600
20
8.10800
30
84.00000
0
VERTEX
8
28_84000
10
53.41800
20
7.38900
30
84.00000
0
VERTEX
8
28_84000
10
53.49800
20
7.29600
30
84.00000
0
VERTEX
8
28_84000
10
53.60700
20
7.21600
30
84.00000
0
VERTEX
8
28_84000
10
53.79500
20
7.12800
30
84.00000
0
VERTEX
8
28_84000
10
53.81000
20
7.02600
30
84.00000
0
VERTEX
8
28_84000
10
54.01800
20
6.74700
30
84.00000
0
VERTEX
8
28_84000
10
53.95200
20
6.68100
30
84.00000
0
VERTEX
8
28_84000
10
53.06600
20
6.14900
30
84.00000
0
VERTEX
8
28_84000
10
51.89200
20
5.46200
30
84.00000
0
VERTEX
8
28_84000
10
51.29000
20
5.06100
30
84.00000
0
VERTEX
8
28_84000
10
50.82300
20
4.81400
30
84.00000
0
VERTEX
8
28_84000
10
49.41600
20
4.28600
30
84.00000
0
VERTEX
8
28_84000
10
47.50400
20
3.86900
30
84.00000
0
VERTEX
8
28_84000
10
47.24800
20
3.85400
30
84.00000
0
VERTEX
8
28_84000
10
46.16700
20
3.46700
30
84.00000
0
VERTEX
8
28_84000
10
45.38300
20
3.40500
30
84.00000
0
VERTEX
8
28_84000
10
45.01000
20
3.32900
30
84.00000
0
VERTEX
8
28_84000
10
43.62400
20
3.14300
30
84.00000
0
VERTEX
8
28_84000
10
42.25900
20
3.06100
30
84.00000
0
VERTEX
8
28_84000
10
41.76100
20
3.05300
30
84.00000
0
VERTEX
8
28_84000
10
41.06100
20
3.01900
30
84.00000
0
VERTEX
8
28_84000
10
38.46800
20
2.91700
30
84.00000
0
VERTEX
8
28_84000
10
37.05400
20
2.81900
30
84.00000
0
VERTEX
8
28_84000
10
34.06700
20
2.70800
30
84.00000
0
VERTEX
8
28_84000
10
32.93200
20
2.76000
30
84.00000
0
VERTEX
8
28_84000
10
31.36600
20
2.76000
30
84.00000
0
VERTEX
8
28_84000
10
31.14800
20
2.77400
30
84.00000
0
VERTEX
8
28_84000
10
30.35100
20
2.78600
30
84.00000
0
VERTEX
8
28_84000
10
29.63400
20
2.86000
30
84.00000
0
VERTEX
8
28_84000
10
27.30300
20
3.07100
30
84.00000
0
VERTEX
8
28_84000
10
26.16700
20
3.27700
30
84.00000
0
VERTEX
8
28_84000
10
24.89900
20
3.41900
30
84.00000
0
VERTEX
8
28_84000
10
23.81100
20
3.63000
30
84.00000
0
VERTEX
8
28_84000
10
21.76000
20
3.92300
30
84.00000
0
VERTEX
8
28_84000
10
16.24800
20
5.03200
30
84.00000
0
VERTEX
8
28_84000
10
13.65400
20
5.44200
30
84.00000
0
VERTEX
8
28_84000
10
13.54300
20
5.48000
30
84.00000
0
VERTEX
8
28_84000
10
13.48000
20
5.49200
30
84.00000
0
VERTEX
8
28_84000
10
13.59200
20
4.43600
30
84.00000
0
VERTEX
8
28_84000
10
13.98100
20
1.08300
30
84.00000
0
VERTEX
8
28_84000
10
14.09200
20
0.00600
30
84.00000
0
VERTEX
8
28_84000
10
86.63000
20
0.00600
30
84.00000
0
VERTEX
8
28_84000
10
86.69801
20
0.67500
30
84.00000
0
VERTEX
8
28_84000
10
86.81300
20
0.79300
30
84.00000
0
VERTEX
8
28_84000
10
86.85400
20
1.19800
30
84.00000
0
VERTEX
8
28_84000
10
87.39800
20
2.14600
30
84.00000
0
VERTEX
8
28_84000
10
87.87400
20
2.34000
30
84.00000
0
VERTEX
8
28_84000
10
88.14600
20
2.50600
30
84.00000
0
VERTEX
8
28_84000
10
88.65900
20
2.66200
30
84.00000
0
VERTEX
8
28_84000
10
88.86700
20
2.73900
30
84.00000
0
VERTEX
8
28_84000
10
89.10400
20
2.80800
30
84.00000
0
VERTEX
8
28_84000
10
89.99100
20
3.09200
30
84.00000
0
VERTEX
8
28_84000
10
90.35201
20
3.27500
30
84.00000
0
VERTEX
8
28_84000
10
90.70600
20
3.54600
30
84.00000
0
VERTEX
8
28_84000
10
91.66000
20
4.04100
30
84.00000
0
VERTEX
8
28_84000
10
91.89600
20
4.14400
30
84.00000
0
VERTEX
8
28_84000
10
92.09600
20
4.27200
30
84.00000
0
VERTEX
8
28_84000
10
92.43501
20
4.46400
30
84.00000
0
VERTEX
8
28_84000
10
92.79800
20
4.61300
30
84.00000
0
VERTEX
8
28_84000
10
93.14301
20
4.72100
30
84.00000
0
VERTEX
8
28_84000
10
93.76200
20
5.00000
30
84.00000
0
VERTEX
8
28_84000
10
95.04800
20
5.68600
30
84.00000
0
VERTEX
8
28_84000
10
95.92200
20
5.91200
30
84.00000
0
VERTEX
8
28_84000
10
96.29000
20
6.06100
30
84.00000
0
VERTEX
8
28_84000
10
97.21900
20
6.53500
30
84.00000
0
VERTEX
8
28_84000
10
98.04800
20
6.98900
30
84.00000
0
VERTEX
8
28_84000
10
98.24700
20
7.02000
30
84.00000
0
VERTEX
8
28_84000
10
98.48601
20
7.12900
30
84.00000
0
VERTEX
8
28_84000
10
98.72601
20
7.18100
30
84.00000
0
VERTEX
8
28_84000
10
98.75700
20
7.20300
30
84.00000
0
VERTEX
8
28_84000
10
98.83201
20
7.22800
30
84.00000
0
VERTEX
8
28_84000
10
99.05501
20
7.37800
30
84.00000
0
VERTEX
8
28_84000
10
99.22701
20
7.43300
30
84.00000
0
VERTEX
8
28_84000
10
99.83801
20
7.86900
30
84.00000
0
VERTEX
8
28_84000
10
99.86900
20
7.91900
30
84.00000
0
VERTEX
8
28_84000
10
100.09300
20
8.17700
30
84.00000
0
VERTEX
8
28_84000
10
100.47601
20
8.51600
30
84.00000
0
VERTEX
8
28_84000
10
101.42001
20
9.13200
30
84.00000
0
VERTEX
8
28_84000
10
101.56600
20
9.48700
30
84.00000
0
VERTEX
8
28_84000
10
101.78700
20
9.69300
30
84.00000
0
VERTEX
8
28_84000
10
101.94200
20
9.98900
30
84.00000
0
VERTEX
8
28_84000
10
102.12601
20
10.26700
30
84.00000
0
VERTEX
8
28_84000
10
102.35700
20
10.54600
30
84.00000
0
VERTEX
8
28_84000
10
102.52701
20
10.79800
30
84.00000
0
VERTEX
8
28_84000
10
102.63300
20
11.20700
30
84.00000
0
VERTEX
8
28_84000
10
102.83401
20
11.69800
30
84.00000
0
VERTEX
8
28_84000
10
102.93501
20
12.11300
30
84.00000
0
VERTEX
8
28_84000
10
103.05000
20
13.06700
30
84.00000
0
VERTEX
8
28_84000
10
103.06200
20
13.09300
30
84.00000
0
VERTEX
8
28_84000
10
103.07201
20
13.18000
30
84.00000
0
VERTEX
8
28_84000
10
103.06400
20
13.26900
30
84.00000
0
VERTEX
8
28_84000
10
103.11501
20
13.46500
30
84.00000
0
VERTEX
8
28_84000
10
103.23501
20
13.80200
30
84.00000
0
VERTEX
8
28_84000
10
103.23801
20
14.06800
30
84.00000
0
VERTEX
8
28_84000
10
103.54101
20
14.73400
30
84.00000
0
VERTEX
8
28_84000
10
103.66901
20
14.95800
30
84.00000
0
VERTEX
8
28_84000
10
103.62100
20
15.36100
30
84.00000
0
VERTEX
8
28_84000
10
103.62000
20
15.56600
30
84.00000
0
VERTEX
8
28_84000
10
103.63400
20
15.94600
30
84.00000
0
VERTEX
8
28_84000
10
103.92400
20
16.74400
30
84.00000
0
VERTEX
8
28_84000
10
104.05401
20
17.28900
30
84.00000
0
VERTEX
8
28_84000
10
104.16300
20
18.26100
30
84.00000
0
VERTEX
8
28_84000
10
104.21201
20
18.77100
30
84.00000
0
VERTEX
8
28_84000
10
104.20100
20
18.91000
30
84.00000
0
VERTEX
8
28_84000
10
104.12401
20
19.50700
30
84.00000
0
VERTEX
8
28_84000
10
104.14201
20
19.58400
30
84.00000
0
VERTEX
8
28_84000
10
104.13000
20
19.82000
30
84.00000
0
VERTEX
8
28_84000
10
104.17001
20
20.00300
30
84.00000
0
VERTEX
8
28_84000
10
104.20500
20
20.01800
30
84.00000
0
VERTEX
8
28_84000
10
104.19901
20
20.10400
30
84.00000
0
VERTEX
8
28_84000
10
104.24500
20
20.53200
30
84.00000
0
VERTEX
8
28_84000
10
104.28800
20
20.64900
30
84.00000
0
VERTEX
8
28_84000
10
104.27400
20
20.73900
30
84.00000
0
VERTEX
8
28_84000
10
104.36101
20
20.88500
30
84.00000
0
VERTEX
8
28_84000
10
104.40601
20
20.98000
30
84.00000
0
VERTEX
8
28_84000
10
104.40201
20
21.13000
30
84.00000
0
VERTEX
8
28_84000
10
104.36201
20
21.25800
30
84.00000
0
VERTEX
8
28_84000
10
103.92200
20
23.34400
30
84.00000
0
VERTEX
8
28_84000
10
103.81300
20
23.75300
30
84.00000
0
VERTEX
8
28_84000
10
103.81300
20
23.90000
30
84.00000
0
VERTEX
8
28_84000
10
103.67001
20
24.32500
30
84.00000
0
VERTEX
8
28_84000
10
103.61900
20
24.51000
30
84.00000
0
VERTEX
8
28_84000
10
103.57101
20
24.86700
30
84.00000
0
VERTEX
8
28_84000
10
103.55401
20
25.39300
30
84.00000
0
VERTEX
8
28_84000
10
103.32301
20
26.42300
30
84.00000
0
VERTEX
8
28_84000
10
103.21700
20
27.05500
30
84.00000
0
VERTEX
8
28_84000
10
103.23801
20
27.58800
30
84.00000
0
VERTEX
8
28_84000
10
103.17800
20
28.09900
30
84.00000
0
VERTEX
8
28_84000
10
102.93900
20
28.47100
30
84.00000
0
VERTEX
8
28_84000
10
102.86201
20
28.83600
30
84.00000
0
VERTEX
8
28_84000
10
102.74901
20
29.66300
30
84.00000
0
VERTEX
8
28_84000
10
102.74800
20
29.97600
30
84.00000
0
VERTEX
8
28_84000
10
102.70600
20
30.12800
30
84.00000
0
VERTEX
8
28_84000
10
102.72000
20
31.23600
30
84.00000
0
VERTEX
8
28_84000
10
102.80601
20
31.50100
30
84.00000
0
VERTEX
8
28_84000
10
102.96800
20
31.78100
30
84.00000
0
VERTEX
8
28_84000
10
103.03300
20
32.07100
30
84.00000
0
VERTEX
8
28_84000
10
103.23300
20
33.10300
30
84.00000
0
VERTEX
8
28_84000
10
102.95100
20
34.40600
30
84.00000
0
VERTEX
8
28_84000
10
102.93101
20
34.55000
30
84.00000
0
VERTEX
8
28_84000
10
102.88300
20
36.97700
30
84.00000
0
VERTEX
8
28_84000
10
103.00900
20
39.00900
30
84.00000
0
VERTEX
8
28_84000
10
103.03800
20
39.72400
30
84.00000
0
VERTEX
8
28_84000
10
103.26601
20
40.96000
30
84.00000
0
VERTEX
8
28_84000
10
103.50800
20
41.94900
30
84.00000
0
VERTEX
8
28_84000
10
103.68700
20
42.48500
30
84.00000
0
VERTEX
8
28_84000
10
104.13300
20
43.91000
30
84.00000
0
VERTEX
8
28_84000
10
104.78101
20
45.47900
30
84.00000
0
VERTEX
8
28_84000
10
105.11101
20
46.14800
30
84.00000
0
VERTEX
8
28_84000
10
105.21700
20
46.45500
30
84.00000
0
VERTEX
8
28_84000
10
105.35901
20
47.31300
30
84.00000
0
VERTEX
8
28_84000
10
105.49400
20
47.85300
30
84.00000
0
VERTEX
8
28_84000
10
105.55901
20
48.04800
30
84.00000
0
VERTEX
8
28_84000
10
105.72000
20
48.64900
30
84.00000
0
VERTEX
8
28_84000
10
105.77701
20
49.00500
30
84.00000
0
VERTEX
8
28_84000
10
106.14800
20
50.22500
30
84.00000
0
VERTEX
8
28_84000
10
106.44901
20
51.11900
30
84.00000
0
VERTEX
8
28_84000
10
106.57201
20
51.40400
30
84.00000
0
VERTEX
8
28_84000
10
106.67600
20
52.27200
30
84.00000
0
VERTEX
8
28_84000
10
106.77901
20
52.85100
30
84.00000
0
VERTEX
8
28_84000
10
106.82401
20
53.53200
30
84.00000
0
VERTEX
8
28_84000
10
106.81500
20
54.06100
30
84.00000
0
VERTEX
8
28_84000
10
106.60101
20
55.75200
30
84.00000
0
VERTEX
8
28_84000
10
106.64201
20
56.30100
30
84.00000
0
VERTEX
8
28_84000
10
106.75900
20
58.24200
30
84.00000
0
VERTEX
8
28_84000
10
106.71800
20
58.66000
30
84.00000
0
VERTEX
8
28_84000
10
106.69401
20
59.96900
30
84.00000
0
VERTEX
8
28_84000
10
106.71201
20
60.22900
30
84.00000
0
VERTEX
8
28_84000
10
106.67300
20
60.43300
30
84.00000
0
VERTEX
8
28_84000
10
106.31200
20
62.91900
30
84.00000
0
VERTEX
8
28_84000
10
106.22900
20
63.39300
30
84.00000
0
VERTEX
8
28_84000
10
105.54900
20
65.47401
30
84.00000
0
VERTEX
8
28_84000
10
105.48300
20
65.64201
30
84.00000
0
VERTEX
8
28_84000
10
105.27400
20
66.01400
30
84.00000
0
VERTEX
8
28_84000
10
105.16801
20
66.34400
30
84.00000
0
VERTEX
8
28_84000
10
104.75600
20
67.51601
30
84.00000
0
VERTEX
8
28_84000
10
104.69501
20
68.29301
30
84.00000
0
VERTEX
8
28_84000
10
104.69701
20
68.43301
30
84.00000
0
VERTEX
8
28_84000
10
104.75600
20
68.88900
30
84.00000
0
VERTEX
8
28_84000
10
104.84100
20
69.04100
30
84.00000
0
VERTEX
8
28_84000
10
105.17600
20
69.35400
30
84.00000
0
VERTEX
8
28_84000
10
105.24001
20
69.43600
30
84.00000
0
VERTEX
8
28_84000
10
106.58501
20
70.55200
30
84.00000
0
VERTEX
8
28_84000
10
108.33201
20
71.82600
30
84.00000
0
VERTEX
8
28_84000
10
108.50900
20
71.97601
30
84.00000
0
VERTEX
8
28_84000
10
108.94301
20
72.29900
30
84.00000
0
VERTEX
8
28_84000
10
109.38801
20
72.69100
30
84.00000
0
VERTEX
8
28_84000
10
110.25201
20
73.12400
30
84.00000
0
VERTEX
8
28_84000
10
110.50101
20
73.36900
30
84.00000
0
VERTEX
8
28_84000
10
111.02000
20
73.70600
30
84.00000
0
VERTEX
8
28_84000
10
111.49100
20
74.08100
30
84.00000
0
VERTEX
8
28_84000
10
111.93001
20
74.30600
30
84.00000
0
VERTEX
8
28_84000
10
112.39600
20
74.90000
30
84.00000
0
VERTEX
8
28_84000
10
112.53300
20
74.98300
30
84.00000
0
VERTEX
8
28_84000
10
112.73000
20
75.41200
30
84.00000
0
VERTEX
8
28_84000
10
112.87401
20
75.57500
30
84.00000
0
VERTEX
8
28_84000
10
112.93101
20
75.73000
30
84.00000
0
VERTEX
8
28_84000
10
112.98401
20
75.91500
30
84.00000
0
VERTEX
8
28_84000
10
113.09400
20
76.36201
30
84.00000
0
VERTEX
8
28_84000
10
113.11401
20
77.14500
30
84.00000
0
VERTEX
8
28_84000
10
113.38400
20
77.68501
30
84.00000
0
VERTEX
8
28_84000
10
113.42400
20
77.99100
30
84.00000
0
VERTEX
8
28_84000
10
113.61301
20
78.64900
30
84.00000
0
VERTEX
8
28_84000
10
113.62701
20
78.77801
30
84.00000
0
VERTEX
8
28_84000
10
113.65800
20
78.90800
30
84.00000
0
VERTEX
8
28_84000
10
113.75201
20
80.65701
30
84.00000
0
VERTEX
8
28_84000
10
113.89201
20
81.49500
30
84.00000
0
VERTEX
8
28_84000
10
113.73501
20
82.16200
30
84.00000
0
VERTEX
8
28_84000
10
113.58601
20
83.41200
30
84.00000
0
VERTEX
8
28_84000
10
113.56200
20
83.67500
30
84.00000
0
VERTEX
8
28_84000
10
113.38000
20
84.49900
30
84.00000
0
VERTEX
8
28_84000
10
112.98100
20
85.68800
30
84.00000
0
VERTEX
8
28_84000
10
113.05100
20
87.13500
30
84.00000
0
VERTEX
8
28_84000
10
113.22301
20
87.52200
30
84.00000
0
VERTEX
8
28_84000
10
113.44401
20
88.30400
30
84.00000
0
VERTEX
8
28_84000
10
113.72900
20
88.45000
30
84.00000
0
VERTEX
8
28_84000
10
114.21201
20
89.05200
30
84.00000
0
VERTEX
8
28_84000
10
114.72701
20
89.32101
30
84.00000
0
VERTEX
8
28_84000
10
114.89400
20
89.50500
30
84.00000
0
VERTEX
8
28_84000
10
115.41601
20
89.59300
30
84.00000
0
VERTEX
8
28_84000
10
116.34701
20
89.65000
30
84.00000
0
VERTEX
8
28_84000
10
118.50900
20
90.14001
30
84.00000
0
VERTEX
8
28_84000
10
120.00800
20
90.70801
30
84.00000
0
VERTEX
8
28_84000
10
120.24600
20
90.85500
30
84.00000
0
VERTEX
8
28_84000
10
120.45400
20
91.06001
30
84.00000
0
VERTEX
8
28_84000
10
121.58900
20
91.60800
30
84.00000
0
VERTEX
8
28_84000
10
124.36301
20
93.68501
30
84.00000
0
VERTEX
8
28_84000
10
126.30201
20
96.43700
30
84.00000
0
VERTEX
8
28_84000
10
126.75201
20
97.55601
30
84.00000
0
VERTEX
8
28_84000
10
126.96101
20
97.71800
30
84.00000
0
VERTEX
8
28_84000
10
127.26201
20
98.67001
30
84.00000
0
VERTEX
8
28_84000
10
127.49701
20
99.31700
30
84.00000
0
VERTEX
8
28_84000
10
127.58001
20
99.73100
30
84.00000
0
VERTEX
8
28_84000
10
127.65001
20
100.16300
30
84.00000
0
VERTEX
8
28_84000
10
127.68501
20
101.24300
30
84.00000
0
VERTEX
8
28_84000
10
127.68501
20
102.84300
30
84.00000
0
VERTEX
8
28_84000
10
127.39700
20
104.97800
30
84.00000
0
VERTEX
8
28_84000
10
127.25401
20
106.31300
30
84.00000
0
VERTEX
8
28_84000
10
127.06901
20
107.01301
30
84.00000
0
VERTEX
8
28_84000
10
126.87301
20
107.52100
30
84.00000
0
VERTEX
8
28_84000
10
126.68401
20
108.06700
30
84.00000
0
VERTEX
8
28_84000
10
126.01801
20
109.56300
30
84.00000
0
VERTEX
8
28_84000
10
124.99600
20
112.00500
30
84.00000
0
VERTEX
8
28_84000
10
124.38100
20
113.11700
30
84.00000
0
VERTEX
8
28_84000
10
123.88701
20
113.87200
30
84.00000
0
VERTEX
8
28_84000
10
122.95801
20
115.34300
30
84.00000
0
VERTEX
8
28_84000
10
122.53500
20
115.76601
30
84.00000
0
VERTEX
8
28_84000
10
122.26401
20
116.13300
30
84.00000
0
VERTEX
8
28_84000
10
121.37801
20
117.05501
30
84.00000
0
VERTEX
8
28_84000
10
120.19401
20
118.43800
30
84.00000
0
VERTEX
8
28_84000
10
119.65401
20
118.85600
30
84.00000
0
VERTEX
8
28_84000
10
118.18401
20
120.23901
30
84.00000
0
VERTEX
8
28_84000
10
117.82001
20
120.63500
30
84.00000
0
VERTEX
8
28_84000
10
117.49400
20
120.96201
30
84.00000
0
VERTEX
8
28_84000
10
116.64800
20
122.05701
30
84.00000
0
VERTEX
8
28_84000
10
115.68800
20
123.54001
30
84.00000
0
VERTEX
8
28_84000
10
115.27601
20
124.94601
30
84.00000
0
VERTEX
8
28_84000
10
115.21101
20
125.14201
30
84.00000
0
VERTEX
8
28_84000
10
115.38601
20
125.61700
30
84.00000
0
VERTEX
8
28_84000
10
115.53300
20
125.85400
30
84.00000
0
VERTEX
8
28_84000
10
116.05901
20
127.34401
30
84.00000
0
VERTEX
8
28_84000
10
115.97001
20
127.68001
30
84.00000
0
VERTEX
8
28_84000
10
116.07001
20
127.89800
30
84.00000
0
VERTEX
8
28_84000
10
116.47201
20
127.93800
30
84.00000
0
VERTEX
8
28_84000
10
116.95300
20
128.18600
30
84.00000
0
VERTEX
8
28_84000
10
117.69000
20
128.61200
30
84.00000
0
VERTEX
8
28_84000
10
117.95200
20
128.81900
30
84.00000
0
VERTEX
8
28_84000
10
118.38000
20
128.92101
30
84.00000
0
VERTEX
8
28_84000
10
118.78800
20
128.93701
30
84.00000
0
VERTEX
8
28_84000
10
119.79401
20
129.12201
30
84.00000
0
VERTEX
8
28_84000
10
120.30701
20
129.12201
30
84.00000
0
VERTEX
8
28_84000
10
120.77400
20
129.28101
30
84.00000
0
VERTEX
8
28_84000
10
121.77100
20
129.34401
30
84.00000
0
VERTEX
8
28_84000
10
122.99701
20
129.76401
30
84.00000
0
VERTEX
8
28_84000
10
123.12401
20
129.81601
30
84.00000
0
VERTEX
8
28_84000
10
124.09801
20
130.40901
30
84.00000
0
VERTEX
8
28_84000
10
124.41701
20
130.69701
30
84.00000
0
VERTEX
8
28_84000
10
124.79401
20
131.18800
30
84.00000
0
VERTEX
8
28_84000
10
125.32201
20
131.98100
30
84.00000
0
VERTEX
8
28_84000
10
125.53700
20
132.57600
30
84.00000
0
VERTEX
8
28_84000
10
126.05501
20
133.33501
30
84.00000
0
VERTEX
8
28_84000
10
126.26701
20
133.79901
30
84.00000
0
VERTEX
8
28_84000
10
126.82201
20
135.63600
30
84.00000
0
VERTEX
8
28_84000
10
126.96001
20
136.00401
30
84.00000
0
VERTEX
8
28_84000
10
127.05401
20
136.29001
30
84.00000
0
VERTEX
8
28_84000
10
127.14901
20
136.72501
30
84.00000
0
VERTEX
8
28_84000
10
127.16701
20
137.47701
30
84.00000
0
VERTEX
8
28_84000
10
127.14001
20
137.71400
30
84.00000
0
VERTEX
8
28_84000
10
126.88400
20
139.09700
30
84.00000
0
VERTEX
8
28_84000
10
126.86800
20
139.14801
30
84.00000
0
VERTEX
8
28_84000
10
126.86700
20
139.18401
30
84.00000
0
VERTEX
8
28_84000
10
126.71600
20
139.71101
30
84.00000
0
VERTEX
8
28_84000
10
127.19101
20
140.51901
30
84.00000
0
VERTEX
8
28_84000
10
127.34200
20
140.85901
30
84.00000
0
VERTEX
8
28_84000
10
128.06900
20
142.42201
30
84.00000
0
VERTEX
8
28_84000
10
128.10901
20
142.48401
30
84.00000
0
VERTEX
8
28_84000
10
128.23300
20
142.77600
30
84.00000
0
VERTEX
8
28_84000
10
128.59300
20
143.05000
30
84.00000
0
VERTEX
8
28_84000
10
130.11601
20
143.84401
30
84.00000
0
VERTEX
8
28_84000
10
130.99301
20
144.10301
30
84.00000
0
VERTEX
8
28_84000
10
131.32901
20
144.59401
30
84.00000
0
VERTEX
8
28_84000
10
131.78700
20
145.18401
30
84.00000
0
VERTEX
8
28_84000
10
131.85701
20
145.33400
30
84.00000
0
VERTEX
8
28_84000
10
131.89900
20
145.37001
30
84.00000
0
VERTEX
8
28_84000
10
132.19200
20
145.79301
30
84.00000
0
VERTEX
8
28_84000
10
132.34801
20
145.90501
30
84.00000
0
VERTEX
8
28_84000
10
132.82100
20
146.36401
30
84.00000
0
VERTEX
8
28_84000
10
132.99701
20
146.56700
30
84.00000
0
VERTEX
8
28_84000
10
133.66301
20
147.40601
30
84.00000
0
VERTEX
8
28_84000
10
134.05400
20
148.06201
30
84.00000
0
VERTEX
8
28_84000
10
134.46600
20
149.56601
30
84.00000
0
VERTEX
8
28_84000
10
134.73801
20
151.21400
30
84.00000
0
VERTEX
8
28_84000
10
134.90100
20
152.42500
30
84.00000
0
VERTEX
8
28_84000
10
134.98801
20
153.47000
30
84.00000
0
VERTEX
8
28_84000
10
135.19501
20
156.68102
30
84.00000
0
VERTEX
8
28_84000
10
135.45500
20
157.92500
30
84.00000
0
VERTEX
8
28_84000
10
135.69901
20
158.94601
30
84.00000
0
VERTEX
8
28_84000
10
135.83900
20
159.70500
30
84.00000
0
VERTEX
8
28_84000
10
136.05000
20
160.69000
30
84.00000
0
VERTEX
8
28_84000
10
136.12401
20
161.10101
30
84.00000
0
VERTEX
8
28_84000
10
136.10201
20
161.81801
30
84.00000
0
VERTEX
8
28_84000
10
136.12300
20
162.00900
30
84.00000
0
VERTEX
8
28_84000
10
136.06500
20
162.35400
30
84.00000
0
VERTEX
8
28_84000
10
135.99600
20
163.80501
30
84.00000
0
VERTEX
8
28_84000
10
135.94801
20
164.32401
30
84.00000
0
VERTEX
8
28_84000
10
135.78900
20
165.32401
30
84.00000
0
VERTEX
8
28_84000
10
135.61501
20
166.28001
30
84.00000
0
VERTEX
8
28_84000
10
135.27200
20
167.50002
30
84.00000
0
VERTEX
8
28_84000
10
135.08900
20
168.03201
30
84.00000
0
VERTEX
8
28_84000
10
134.75000
20
168.91701
30
84.00000
0
VERTEX
8
28_84000
10
134.55301
20
169.35800
30
84.00000
0
VERTEX
8
28_84000
10
134.03101
20
170.13600
30
84.00000
0
VERTEX
8
28_84000
10
133.15701
20
171.87502
30
84.00000
0
VERTEX
8
28_84000
10
132.90500
20
172.32901
30
84.00000
0
VERTEX
8
28_84000
10
132.73500
20
172.57901
30
84.00000
0
VERTEX
8
28_84000
10
131.79401
20
174.32001
30
84.00000
0
VERTEX
8
28_84000
10
131.56601
20
174.62401
30
84.00000
0
VERTEX
8
28_84000
10
129.51300
20
177.52802
30
84.00000
0
VERTEX
8
28_84000
10
128.15800
20
179.28801
30
84.00000
0
VERTEX
8
28_84000
10
109.29401
20
179.28601
30
84.00000
0
SEQEND
8
28_84000
0
ENDSEC
0
EOF
