0
SECTION
2
HEADER
9
$ACADVER
1
AC1009
0
ENDSEC
0
SECTION
2
TABLES
0
TABLE
2
LAYER
70
1
0
LAYER
2
36_108000
70
0
62
7
6
CONTINUOUS
0
ENDTAB
0
ENDSEC
0
SECTION
2
BLOCKS
0
ENDSEC
0
SECTION
2
ENTITIES
0
POLYLINE
8
36_108000
62
5
0
VERTEX
8
36_108000
10
91.40701
20
101.90301
30
108.00000
0
VERTEX
8
36_108000
10
91.48400
20
102.00600
30
108.00000
0
VERTEX
8
36_108000
10
91.77600
20
102.48801
30
108.00000
0
VERTEX
8
36_108000
10
92.75201
20
104.04800
30
108.00000
0
VERTEX
8
36_108000
10
93.28101
20
105.05100
30
108.00000
0
VERTEX
8
36_108000
10
93.60101
20
105.85600
30
108.00000
0
VERTEX
8
36_108000
10
93.72501
20
106.22501
30
108.00000
0
VERTEX
8
36_108000
10
94.07201
20
108.04700
30
108.00000
0
VERTEX
8
36_108000
10
94.04101
20
109.41501
30
108.00000
0
VERTEX
8
36_108000
10
93.99200
20
109.82800
30
108.00000
0
VERTEX
8
36_108000
10
93.64201
20
111.41100
30
108.00000
0
VERTEX
8
36_108000
10
93.40201
20
112.08201
30
108.00000
0
VERTEX
8
36_108000
10
93.08401
20
112.75201
30
108.00000
0
VERTEX
8
36_108000
10
92.10201
20
114.20000
30
108.00000
0
VERTEX
8
36_108000
10
91.55000
20
114.85901
30
108.00000
0
VERTEX
8
36_108000
10
90.86501
20
115.52901
30
108.00000
0
VERTEX
8
36_108000
10
89.91701
20
116.22301
30
108.00000
0
VERTEX
8
36_108000
10
89.74800
20
116.37601
30
108.00000
0
VERTEX
8
36_108000
10
89.50101
20
116.55000
30
108.00000
0
VERTEX
8
36_108000
10
89.03700
20
116.83201
30
108.00000
0
VERTEX
8
36_108000
10
88.75401
20
116.96201
30
108.00000
0
VERTEX
8
36_108000
10
87.87501
20
117.23301
30
108.00000
0
VERTEX
8
36_108000
10
87.47100
20
117.27801
30
108.00000
0
VERTEX
8
36_108000
10
86.99500
20
117.35700
30
108.00000
0
VERTEX
8
36_108000
10
86.74600
20
117.37401
30
108.00000
0
VERTEX
8
36_108000
10
86.33000
20
117.44201
30
108.00000
0
VERTEX
8
36_108000
10
85.53800
20
117.35500
30
108.00000
0
VERTEX
8
36_108000
10
84.79601
20
117.12000
30
108.00000
0
VERTEX
8
36_108000
10
84.19200
20
116.98601
30
108.00000
0
VERTEX
8
36_108000
10
83.97401
20
116.92500
30
108.00000
0
VERTEX
8
36_108000
10
83.08000
20
116.57301
30
108.00000
0
VERTEX
8
36_108000
10
82.58100
20
116.29001
30
108.00000
0
VERTEX
8
36_108000
10
82.04900
20
115.96301
30
108.00000
0
VERTEX
8
36_108000
10
81.98801
20
115.91901
30
108.00000
0
VERTEX
8
36_108000
10
80.83900
20
114.86600
30
108.00000
0
VERTEX
8
36_108000
10
80.14700
20
114.06100
30
108.00000
0
VERTEX
8
36_108000
10
79.95000
20
113.79900
30
108.00000
0
VERTEX
8
36_108000
10
78.76100
20
111.78300
30
108.00000
0
VERTEX
8
36_108000
10
78.30300
20
110.40601
30
108.00000
0
VERTEX
8
36_108000
10
78.20800
20
109.86600
30
108.00000
0
VERTEX
8
36_108000
10
78.01601
20
108.54700
30
108.00000
0
VERTEX
8
36_108000
10
78.00600
20
107.94501
30
108.00000
0
VERTEX
8
36_108000
10
78.04501
20
107.53900
30
108.00000
0
VERTEX
8
36_108000
10
78.21301
20
106.42200
30
108.00000
0
VERTEX
8
36_108000
10
78.33701
20
106.01900
30
108.00000
0
VERTEX
8
36_108000
10
78.85900
20
104.47000
30
108.00000
0
VERTEX
8
36_108000
10
79.38200
20
103.25201
30
108.00000
0
VERTEX
8
36_108000
10
79.47900
20
103.04301
30
108.00000
0
VERTEX
8
36_108000
10
79.79601
20
102.56600
30
108.00000
0
VERTEX
8
36_108000
10
80.30901
20
101.61800
30
108.00000
0
VERTEX
8
36_108000
10
80.56001
20
101.20100
30
108.00000
0
VERTEX
8
36_108000
10
80.85300
20
100.89900
30
108.00000
0
VERTEX
8
36_108000
10
81.40601
20
100.24901
30
108.00000
0
VERTEX
8
36_108000
10
82.01000
20
99.73901
30
108.00000
0
VERTEX
8
36_108000
10
82.06001
20
99.70500
30
108.00000
0
VERTEX
8
36_108000
10
84.20300
20
98.73501
30
108.00000
0
VERTEX
8
36_108000
10
84.69000
20
98.62701
30
108.00000
0
VERTEX
8
36_108000
10
85.44000
20
98.53400
30
108.00000
0
VERTEX
8
36_108000
10
85.85101
20
98.50500
30
108.00000
0
VERTEX
8
36_108000
10
86.50900
20
98.55701
30
108.00000
0
VERTEX
8
36_108000
10
86.90100
20
98.59801
30
108.00000
0
VERTEX
8
36_108000
10
87.94000
20
98.96001
30
108.00000
0
VERTEX
8
36_108000
10
88.36700
20
99.20701
30
108.00000
0
VERTEX
8
36_108000
10
89.53001
20
99.99901
30
108.00000
0
VERTEX
8
36_108000
10
89.65800
20
100.03900
30
108.00000
0
VERTEX
8
36_108000
10
89.87100
20
100.27100
30
108.00000
0
VERTEX
8
36_108000
10
90.31400
20
100.70200
30
108.00000
0
VERTEX
8
36_108000
10
90.88801
20
101.28001
30
108.00000
0
VERTEX
8
36_108000
10
91.40701
20
101.90301
30
108.00000
0
SEQEND
8
36_108000
0
ENDSEC
0
EOF
