0
SECTION
2
HEADER
9
$ACADVER
1
AC1009
0
ENDSEC
0
SECTION
2
TABLES
0
TABLE
2
LAYER
70
1
0
LAYER
2
24_72000
70
0
62
7
6
CONTINUOUS
0
ENDTAB
0
ENDSEC
0
SECTION
2
BLOCKS
0
ENDSEC
0
SECTION
2
ENTITIES
0
POLYLINE
8
24_72000
62
5
0
VERTEX
8
24_72000
10
62.95700
20
181.29201
30
72.00000
0
VERTEX
8
24_72000
10
32.42900
20
181.28900
30
72.00000
0
VERTEX
8
24_72000
10
31.64700
20
178.20901
30
72.00000
0
VERTEX
8
24_72000
10
31.45400
20
177.69402
30
72.00000
0
VERTEX
8
24_72000
10
31.22800
20
176.94101
30
72.00000
0
VERTEX
8
24_72000
10
30.85300
20
175.22202
30
72.00000
0
VERTEX
8
24_72000
10
30.67900
20
174.51901
30
72.00000
0
VERTEX
8
24_72000
10
30.55400
20
173.85901
30
72.00000
0
VERTEX
8
24_72000
10
30.25900
20
171.82101
30
72.00000
0
VERTEX
8
24_72000
10
30.01300
20
170.04102
30
72.00000
0
VERTEX
8
24_72000
10
29.98000
20
169.68901
30
72.00000
0
VERTEX
8
24_72000
10
29.96300
20
169.34601
30
72.00000
0
VERTEX
8
24_72000
10
29.82400
20
167.77200
30
72.00000
0
VERTEX
8
24_72000
10
29.84600
20
167.25801
30
72.00000
0
VERTEX
8
24_72000
10
30.01500
20
164.68301
30
72.00000
0
VERTEX
8
24_72000
10
30.12300
20
163.58101
30
72.00000
0
VERTEX
8
24_72000
10
30.27900
20
162.16200
30
72.00000
0
VERTEX
8
24_72000
10
30.49100
20
160.79201
30
72.00000
0
VERTEX
8
24_72000
10
30.68700
20
159.35400
30
72.00000
0
VERTEX
8
24_72000
10
31.06500
20
157.35001
30
72.00000
0
VERTEX
8
24_72000
10
31.34500
20
155.93701
30
72.00000
0
VERTEX
8
24_72000
10
31.36700
20
155.86101
30
72.00000
0
VERTEX
8
24_72000
10
32.03400
20
151.38901
30
72.00000
0
VERTEX
8
24_72000
10
32.27100
20
150.08501
30
72.00000
0
VERTEX
8
24_72000
10
32.42100
20
149.41200
30
72.00000
0
VERTEX
8
24_72000
10
32.54700
20
148.91301
30
72.00000
0
VERTEX
8
24_72000
10
32.72500
20
148.32101
30
72.00000
0
VERTEX
8
24_72000
10
33.11200
20
147.14801
30
72.00000
0
VERTEX
8
24_72000
10
33.97000
20
145.47301
30
72.00000
0
VERTEX
8
24_72000
10
34.70600
20
144.39301
30
72.00000
0
VERTEX
8
24_72000
10
34.76000
20
144.32701
30
72.00000
0
VERTEX
8
24_72000
10
34.86700
20
144.15701
30
72.00000
0
VERTEX
8
24_72000
10
34.95300
20
144.00201
30
72.00000
0
VERTEX
8
24_72000
10
35.19900
20
143.38400
30
72.00000
0
VERTEX
8
24_72000
10
35.66200
20
141.63400
30
72.00000
0
VERTEX
8
24_72000
10
35.77000
20
140.42401
30
72.00000
0
VERTEX
8
24_72000
10
35.75000
20
140.08000
30
72.00000
0
VERTEX
8
24_72000
10
35.77200
20
139.75500
30
72.00000
0
VERTEX
8
24_72000
10
35.78300
20
139.31300
30
72.00000
0
VERTEX
8
24_72000
10
35.71800
20
137.27701
30
72.00000
0
VERTEX
8
24_72000
10
35.76800
20
135.60600
30
72.00000
0
VERTEX
8
24_72000
10
35.69800
20
134.68701
30
72.00000
0
VERTEX
8
24_72000
10
35.67400
20
134.14601
30
72.00000
0
VERTEX
8
24_72000
10
35.57600
20
133.44301
30
72.00000
0
VERTEX
8
24_72000
10
35.37100
20
131.68800
30
72.00000
0
VERTEX
8
24_72000
10
35.35200
20
131.32501
30
72.00000
0
VERTEX
8
24_72000
10
35.28300
20
131.05600
30
72.00000
0
VERTEX
8
24_72000
10
34.87500
20
129.20201
30
72.00000
0
VERTEX
8
24_72000
10
34.60200
20
127.64901
30
72.00000
0
VERTEX
8
24_72000
10
34.47300
20
127.06300
30
72.00000
0
VERTEX
8
24_72000
10
34.04900
20
125.50700
30
72.00000
0
VERTEX
8
24_72000
10
32.80300
20
120.74200
30
72.00000
0
VERTEX
8
24_72000
10
32.70500
20
120.01401
30
72.00000
0
VERTEX
8
24_72000
10
31.05700
20
113.53400
30
72.00000
0
VERTEX
8
24_72000
10
30.97000
20
113.15900
30
72.00000
0
VERTEX
8
24_72000
10
30.87500
20
112.83401
30
72.00000
0
VERTEX
8
24_72000
10
30.67400
20
112.00800
30
72.00000
0
VERTEX
8
24_72000
10
29.54600
20
107.22201
30
72.00000
0
VERTEX
8
24_72000
10
28.58700
20
102.11301
30
72.00000
0
VERTEX
8
24_72000
10
28.36400
20
100.97201
30
72.00000
0
VERTEX
8
24_72000
10
28.20900
20
99.92101
30
72.00000
0
VERTEX
8
24_72000
10
28.00600
20
98.08100
30
72.00000
0
VERTEX
8
24_72000
10
27.98700
20
97.84701
30
72.00000
0
VERTEX
8
24_72000
10
27.92100
20
95.75401
30
72.00000
0
VERTEX
8
24_72000
10
27.90600
20
95.00301
30
72.00000
0
VERTEX
8
24_72000
10
28.04000
20
91.56001
30
72.00000
0
VERTEX
8
24_72000
10
28.23700
20
89.36401
30
72.00000
0
VERTEX
8
24_72000
10
28.26000
20
89.02200
30
72.00000
0
VERTEX
8
24_72000
10
29.02800
20
82.68301
30
72.00000
0
VERTEX
8
24_72000
10
29.30400
20
81.21600
30
72.00000
0
VERTEX
8
24_72000
10
29.46700
20
80.38800
30
72.00000
0
VERTEX
8
24_72000
10
29.58000
20
79.87601
30
72.00000
0
VERTEX
8
24_72000
10
29.67800
20
79.20400
30
72.00000
0
VERTEX
8
24_72000
10
30.50600
20
75.95200
30
72.00000
0
VERTEX
8
24_72000
10
30.79000
20
74.95200
30
72.00000
0
VERTEX
8
24_72000
10
30.82900
20
74.56500
30
72.00000
0
VERTEX
8
24_72000
10
31.04200
20
73.75000
30
72.00000
0
VERTEX
8
24_72000
10
31.71300
20
71.72200
30
72.00000
0
VERTEX
8
24_72000
10
31.81900
20
71.45500
30
72.00000
0
VERTEX
8
24_72000
10
32.07500
20
70.23400
30
72.00000
0
VERTEX
8
24_72000
10
32.32600
20
68.42900
30
72.00000
0
VERTEX
8
24_72000
10
32.38000
20
67.84800
30
72.00000
0
VERTEX
8
24_72000
10
32.56700
20
66.71500
30
72.00000
0
VERTEX
8
24_72000
10
32.68800
20
66.41400
30
72.00000
0
VERTEX
8
24_72000
10
32.82100
20
65.27000
30
72.00000
0
VERTEX
8
24_72000
10
32.96400
20
64.46800
30
72.00000
0
VERTEX
8
24_72000
10
33.14500
20
63.76400
30
72.00000
0
VERTEX
8
24_72000
10
33.12900
20
63.44600
30
72.00000
0
VERTEX
8
24_72000
10
33.15900
20
63.30800
30
72.00000
0
VERTEX
8
24_72000
10
33.29300
20
61.71800
30
72.00000
0
VERTEX
8
24_72000
10
33.22600
20
60.71700
30
72.00000
0
VERTEX
8
24_72000
10
33.14100
20
59.84900
30
72.00000
0
VERTEX
8
24_72000
10
33.08000
20
59.02400
30
72.00000
0
VERTEX
8
24_72000
10
33.25600
20
58.52200
30
72.00000
0
VERTEX
8
24_72000
10
33.42500
20
57.94500
30
72.00000
0
VERTEX
8
24_72000
10
33.42300
20
57.84900
30
72.00000
0
VERTEX
8
24_72000
10
33.57300
20
57.28500
30
72.00000
0
VERTEX
8
24_72000
10
33.78200
20
56.70600
30
72.00000
0
VERTEX
8
24_72000
10
33.93300
20
56.51300
30
72.00000
0
VERTEX
8
24_72000
10
34.16600
20
55.08600
30
72.00000
0
VERTEX
8
24_72000
10
34.41000
20
54.22900
30
72.00000
0
VERTEX
8
24_72000
10
34.90600
20
53.28600
30
72.00000
0
VERTEX
8
24_72000
10
34.97900
20
53.02400
30
72.00000
0
VERTEX
8
24_72000
10
35.05600
20
52.35200
30
72.00000
0
VERTEX
8
24_72000
10
35.12900
20
51.92500
30
72.00000
0
VERTEX
8
24_72000
10
35.09900
20
51.58500
30
72.00000
0
VERTEX
8
24_72000
10
34.95200
20
51.31800
30
72.00000
0
VERTEX
8
24_72000
10
34.92200
20
51.17500
30
72.00000
0
VERTEX
8
24_72000
10
34.88800
20
51.10800
30
72.00000
0
VERTEX
8
24_72000
10
34.80400
20
50.73700
30
72.00000
0
VERTEX
8
24_72000
10
34.80300
20
49.44800
30
72.00000
0
VERTEX
8
24_72000
10
34.79600
20
49.16500
30
72.00000
0
VERTEX
8
24_72000
10
34.93100
20
48.27200
30
72.00000
0
VERTEX
8
24_72000
10
34.97800
20
48.06400
30
72.00000
0
VERTEX
8
24_72000
10
35.50000
20
46.97800
30
72.00000
0
VERTEX
8
24_72000
10
35.82500
20
46.19800
30
72.00000
0
VERTEX
8
24_72000
10
36.48300
20
44.87600
30
72.00000
0
VERTEX
8
24_72000
10
36.72000
20
44.46300
30
72.00000
0
VERTEX
8
24_72000
10
36.99500
20
43.18100
30
72.00000
0
VERTEX
8
24_72000
10
37.00500
20
42.36300
30
72.00000
0
VERTEX
8
24_72000
10
36.97200
20
42.22600
30
72.00000
0
VERTEX
8
24_72000
10
36.96300
20
42.15400
30
72.00000
0
VERTEX
8
24_72000
10
36.90700
20
41.98700
30
72.00000
0
VERTEX
8
24_72000
10
36.33000
20
39.63500
30
72.00000
0
VERTEX
8
24_72000
10
35.98700
20
38.48200
30
72.00000
0
VERTEX
8
24_72000
10
35.84800
20
38.23700
30
72.00000
0
VERTEX
8
24_72000
10
35.82700
20
38.13200
30
72.00000
0
VERTEX
8
24_72000
10
35.80400
20
38.09900
30
72.00000
0
VERTEX
8
24_72000
10
35.58100
20
37.30900
30
72.00000
0
VERTEX
8
24_72000
10
35.44600
20
37.18400
30
72.00000
0
VERTEX
8
24_72000
10
35.40500
20
37.12200
30
72.00000
0
VERTEX
8
24_72000
10
34.80000
20
36.03600
30
72.00000
0
VERTEX
8
24_72000
10
34.60800
20
35.67000
30
72.00000
0
VERTEX
8
24_72000
10
34.56300
20
35.54800
30
72.00000
0
VERTEX
8
24_72000
10
34.57000
20
35.30400
30
72.00000
0
VERTEX
8
24_72000
10
34.26800
20
33.77500
30
72.00000
0
VERTEX
8
24_72000
10
34.06200
20
32.49600
30
72.00000
0
VERTEX
8
24_72000
10
33.92500
20
32.03200
30
72.00000
0
VERTEX
8
24_72000
10
33.81300
20
31.86600
30
72.00000
0
VERTEX
8
24_72000
10
33.67400
20
31.57900
30
72.00000
0
VERTEX
8
24_72000
10
33.62500
20
31.44100
30
72.00000
0
VERTEX
8
24_72000
10
33.22400
20
30.90700
30
72.00000
0
VERTEX
8
24_72000
10
33.03000
20
30.58600
30
72.00000
0
VERTEX
8
24_72000
10
32.95700
20
30.48900
30
72.00000
0
VERTEX
8
24_72000
10
32.90400
20
30.34800
30
72.00000
0
VERTEX
8
24_72000
10
32.56300
20
29.65700
30
72.00000
0
VERTEX
8
24_72000
10
32.32200
20
29.37300
30
72.00000
0
VERTEX
8
24_72000
10
31.42300
20
28.42200
30
72.00000
0
VERTEX
8
24_72000
10
31.30600
20
28.15800
30
72.00000
0
VERTEX
8
24_72000
10
31.02100
20
27.61000
30
72.00000
0
VERTEX
8
24_72000
10
30.99000
20
27.38100
30
72.00000
0
VERTEX
8
24_72000
10
30.91500
20
27.22900
30
72.00000
0
VERTEX
8
24_72000
10
30.76800
20
26.59300
30
72.00000
0
VERTEX
8
24_72000
10
30.65300
20
25.96800
30
72.00000
0
VERTEX
8
24_72000
10
30.65200
20
25.89800
30
72.00000
0
VERTEX
8
24_72000
10
30.63100
20
25.86300
30
72.00000
0
VERTEX
8
24_72000
10
30.59000
20
25.41200
30
72.00000
0
VERTEX
8
24_72000
10
30.59700
20
25.17300
30
72.00000
0
VERTEX
8
24_72000
10
30.55100
20
25.01700
30
72.00000
0
VERTEX
8
24_72000
10
30.38500
20
23.29200
30
72.00000
0
VERTEX
8
24_72000
10
30.30600
20
22.34300
30
72.00000
0
VERTEX
8
24_72000
10
29.96100
20
20.68900
30
72.00000
0
VERTEX
8
24_72000
10
29.62800
20
20.43600
30
72.00000
0
VERTEX
8
24_72000
10
28.98300
20
20.33700
30
72.00000
0
VERTEX
8
24_72000
10
28.72800
20
20.31500
30
72.00000
0
VERTEX
8
24_72000
10
27.21100
20
20.33000
30
72.00000
0
VERTEX
8
24_72000
10
25.45700
20
20.25600
30
72.00000
0
VERTEX
8
24_72000
10
24.94100
20
20.25700
30
72.00000
0
VERTEX
8
24_72000
10
21.84000
20
20.40000
30
72.00000
0
VERTEX
8
24_72000
10
21.31200
20
20.43600
30
72.00000
0
VERTEX
8
24_72000
10
18.94400
20
20.45900
30
72.00000
0
VERTEX
8
24_72000
10
18.65600
20
20.48900
30
72.00000
0
VERTEX
8
24_72000
10
18.42100
20
20.47600
30
72.00000
0
VERTEX
8
24_72000
10
13.85800
20
21.06800
30
72.00000
0
VERTEX
8
24_72000
10
13.58400
20
21.06800
30
72.00000
0
VERTEX
8
24_72000
10
11.55600
20
21.29700
30
72.00000
0
VERTEX
8
24_72000
10
11.66900
20
20.41600
30
72.00000
0
VERTEX
8
24_72000
10
11.77800
20
19.47300
30
72.00000
0
VERTEX
8
24_72000
10
11.98900
20
17.86600
30
72.00000
0
VERTEX
8
24_72000
10
12.06700
20
17.17200
30
72.00000
0
VERTEX
8
24_72000
10
12.42200
20
14.37400
30
72.00000
0
VERTEX
8
24_72000
10
13.07600
20
8.98300
30
72.00000
0
VERTEX
8
24_72000
10
13.98500
20
1.04100
30
72.00000
0
VERTEX
8
24_72000
10
14.09200
20
0.00600
30
72.00000
0
VERTEX
8
24_72000
10
107.59000
20
0.00600
30
72.00000
0
VERTEX
8
24_72000
10
107.64400
20
0.71300
30
72.00000
0
VERTEX
8
24_72000
10
107.64400
20
0.92900
30
72.00000
0
VERTEX
8
24_72000
10
107.69801
20
1.51600
30
72.00000
0
VERTEX
8
24_72000
10
107.70100
20
1.63000
30
72.00000
0
VERTEX
8
24_72000
10
107.88600
20
2.02300
30
72.00000
0
VERTEX
8
24_72000
10
108.36401
20
2.47700
30
72.00000
0
VERTEX
8
24_72000
10
110.39500
20
4.26100
30
72.00000
0
VERTEX
8
24_72000
10
110.50600
20
4.34900
30
72.00000
0
VERTEX
8
24_72000
10
110.76501
20
4.61100
30
72.00000
0
VERTEX
8
24_72000
10
111.45801
20
5.25200
30
72.00000
0
VERTEX
8
24_72000
10
111.79201
20
5.58000
30
72.00000
0
VERTEX
8
24_72000
10
112.06100
20
5.81800
30
72.00000
0
VERTEX
8
24_72000
10
112.23701
20
6.00300
30
72.00000
0
VERTEX
8
24_72000
10
114.11301
20
8.19500
30
72.00000
0
VERTEX
8
24_72000
10
115.13901
20
9.38100
30
72.00000
0
VERTEX
8
24_72000
10
116.00500
20
10.48300
30
72.00000
0
VERTEX
8
24_72000
10
116.05901
20
10.56200
30
72.00000
0
VERTEX
8
24_72000
10
117.25401
20
11.95900
30
72.00000
0
VERTEX
8
24_72000
10
117.62000
20
12.56800
30
72.00000
0
VERTEX
8
24_72000
10
118.00201
20
13.11500
30
72.00000
0
VERTEX
8
24_72000
10
118.18001
20
13.32200
30
72.00000
0
VERTEX
8
24_72000
10
118.41200
20
13.80400
30
72.00000
0
VERTEX
8
24_72000
10
118.48701
20
13.85500
30
72.00000
0
VERTEX
8
24_72000
10
118.54401
20
14.05800
30
72.00000
0
VERTEX
8
24_72000
10
118.71400
20
14.49500
30
72.00000
0
VERTEX
8
24_72000
10
118.84100
20
14.85400
30
72.00000
0
VERTEX
8
24_72000
10
118.96700
20
15.26500
30
72.00000
0
VERTEX
8
24_72000
10
119.15001
20
15.67200
30
72.00000
0
VERTEX
8
24_72000
10
119.20801
20
15.92500
30
72.00000
0
VERTEX
8
24_72000
10
119.21101
20
16.11600
30
72.00000
0
VERTEX
8
24_72000
10
119.32201
20
16.64200
30
72.00000
0
VERTEX
8
24_72000
10
119.28001
20
17.20200
30
72.00000
0
VERTEX
8
24_72000
10
119.32700
20
17.55000
30
72.00000
0
VERTEX
8
24_72000
10
119.41701
20
18.08500
30
72.00000
0
VERTEX
8
24_72000
10
119.31100
20
18.60400
30
72.00000
0
VERTEX
8
24_72000
10
119.24701
20
18.81800
30
72.00000
0
VERTEX
8
24_72000
10
119.27300
20
18.99000
30
72.00000
0
VERTEX
8
24_72000
10
119.23301
20
19.31300
30
72.00000
0
VERTEX
8
24_72000
10
119.29201
20
19.54900
30
72.00000
0
VERTEX
8
24_72000
10
119.28300
20
19.62700
30
72.00000
0
VERTEX
8
24_72000
10
119.35801
20
20.37500
30
72.00000
0
VERTEX
8
24_72000
10
119.38400
20
20.59400
30
72.00000
0
VERTEX
8
24_72000
10
119.39400
20
20.61200
30
72.00000
0
VERTEX
8
24_72000
10
119.38901
20
20.68400
30
72.00000
0
VERTEX
8
24_72000
10
119.50800
20
21.43600
30
72.00000
0
VERTEX
8
24_72000
10
119.54001
20
22.48200
30
72.00000
0
VERTEX
8
24_72000
10
119.55901
20
22.64000
30
72.00000
0
VERTEX
8
24_72000
10
119.75800
20
23.47300
30
72.00000
0
VERTEX
8
24_72000
10
119.84200
20
23.89300
30
72.00000
0
VERTEX
8
24_72000
10
120.06801
20
24.35800
30
72.00000
0
VERTEX
8
24_72000
10
120.18600
20
24.43800
30
72.00000
0
VERTEX
8
24_72000
10
120.22900
20
24.68200
30
72.00000
0
VERTEX
8
24_72000
10
120.28600
20
24.78200
30
72.00000
0
VERTEX
8
24_72000
10
120.40201
20
25.06900
30
72.00000
0
VERTEX
8
24_72000
10
120.38200
20
25.25200
30
72.00000
0
VERTEX
8
24_72000
10
120.44301
20
25.56900
30
72.00000
0
VERTEX
8
24_72000
10
120.47401
20
25.93800
30
72.00000
0
VERTEX
8
24_72000
10
120.58601
20
26.38300
30
72.00000
0
VERTEX
8
24_72000
10
120.71500
20
27.17400
30
72.00000
0
VERTEX
8
24_72000
10
120.70501
20
27.32100
30
72.00000
0
VERTEX
8
24_72000
10
120.68301
20
27.44300
30
72.00000
0
VERTEX
8
24_72000
10
120.68301
20
27.97800
30
72.00000
0
VERTEX
8
24_72000
10
120.66300
20
28.46400
30
72.00000
0
VERTEX
8
24_72000
10
120.67400
20
28.96500
30
72.00000
0
VERTEX
8
24_72000
10
120.72301
20
29.22200
30
72.00000
0
VERTEX
8
24_72000
10
120.94901
20
30.22700
30
72.00000
0
VERTEX
8
24_72000
10
121.20400
20
31.29000
30
72.00000
0
VERTEX
8
24_72000
10
121.35801
20
31.75700
30
72.00000
0
VERTEX
8
24_72000
10
121.85300
20
32.73300
30
72.00000
0
VERTEX
8
24_72000
10
122.01501
20
34.82600
30
72.00000
0
VERTEX
8
24_72000
10
122.12701
20
35.38300
30
72.00000
0
VERTEX
8
24_72000
10
122.36301
20
36.02700
30
72.00000
0
VERTEX
8
24_72000
10
122.52200
20
36.40300
30
72.00000
0
VERTEX
8
24_72000
10
122.53700
20
36.50000
30
72.00000
0
VERTEX
8
24_72000
10
122.69801
20
36.77100
30
72.00000
0
VERTEX
8
24_72000
10
122.74801
20
37.04000
30
72.00000
0
VERTEX
8
24_72000
10
122.94801
20
37.50400
30
72.00000
0
VERTEX
8
24_72000
10
123.27200
20
38.41600
30
72.00000
0
VERTEX
8
24_72000
10
123.44901
20
38.87500
30
72.00000
0
VERTEX
8
24_72000
10
123.80401
20
39.33300
30
72.00000
0
VERTEX
8
24_72000
10
124.22001
20
39.82100
30
72.00000
0
VERTEX
8
24_72000
10
124.34000
20
39.93600
30
72.00000
0
VERTEX
8
24_72000
10
124.47900
20
40.14400
30
72.00000
0
VERTEX
8
24_72000
10
124.72800
20
40.61900
30
72.00000
0
VERTEX
8
24_72000
10
124.83601
20
40.87200
30
72.00000
0
VERTEX
8
24_72000
10
125.33401
20
42.70300
30
72.00000
0
VERTEX
8
24_72000
10
125.56400
20
43.32200
30
72.00000
0
VERTEX
8
24_72000
10
125.63501
20
43.55600
30
72.00000
0
VERTEX
8
24_72000
10
125.70400
20
43.84800
30
72.00000
0
VERTEX
8
24_72000
10
125.77401
20
44.29500
30
72.00000
0
VERTEX
8
24_72000
10
125.84200
20
44.41800
30
72.00000
0
VERTEX
8
24_72000
10
126.08900
20
45.43100
30
72.00000
0
VERTEX
8
24_72000
10
126.19000
20
45.63100
30
72.00000
0
VERTEX
8
24_72000
10
126.48100
20
45.87900
30
72.00000
0
VERTEX
8
24_72000
10
126.83301
20
46.22900
30
72.00000
0
VERTEX
8
24_72000
10
126.88100
20
46.30100
30
72.00000
0
VERTEX
8
24_72000
10
126.91501
20
46.89900
30
72.00000
0
VERTEX
8
24_72000
10
127.11800
20
47.24600
30
72.00000
0
VERTEX
8
24_72000
10
127.24500
20
47.39600
30
72.00000
0
VERTEX
8
24_72000
10
127.27200
20
47.71500
30
72.00000
0
VERTEX
8
24_72000
10
127.42101
20
47.76000
30
72.00000
0
VERTEX
8
24_72000
10
127.54301
20
47.94000
30
72.00000
0
VERTEX
8
24_72000
10
127.58801
20
48.10600
30
72.00000
0
VERTEX
8
24_72000
10
127.92901
20
48.82400
30
72.00000
0
VERTEX
8
24_72000
10
128.35600
20
49.38100
30
72.00000
0
VERTEX
8
24_72000
10
128.72701
20
49.59100
30
72.00000
0
VERTEX
8
24_72000
10
128.82701
20
49.73200
30
72.00000
0
VERTEX
8
24_72000
10
129.31900
20
50.21400
30
72.00000
0
VERTEX
8
24_72000
10
129.46201
20
50.37200
30
72.00000
0
VERTEX
8
24_72000
10
129.87401
20
51.04200
30
72.00000
0
VERTEX
8
24_72000
10
130.14500
20
51.44200
30
72.00000
0
VERTEX
8
24_72000
10
130.25601
20
51.55800
30
72.00000
0
VERTEX
8
24_72000
10
130.35301
20
51.67900
30
72.00000
0
VERTEX
8
24_72000
10
130.38800
20
51.91100
30
72.00000
0
VERTEX
8
24_72000
10
130.38600
20
52.52300
30
72.00000
0
VERTEX
8
24_72000
10
130.41301
20
53.00300
30
72.00000
0
VERTEX
8
24_72000
10
130.40401
20
53.13900
30
72.00000
0
VERTEX
8
24_72000
10
130.49001
20
53.51400
30
72.00000
0
VERTEX
8
24_72000
10
130.68300
20
53.98900
30
72.00000
0
VERTEX
8
24_72000
10
130.71001
20
54.02200
30
72.00000
0
VERTEX
8
24_72000
10
130.80400
20
54.45600
30
72.00000
0
VERTEX
8
24_72000
10
130.91400
20
54.73300
30
72.00000
0
VERTEX
8
24_72000
10
130.99600
20
55.08700
30
72.00000
0
VERTEX
8
24_72000
10
131.30400
20
55.76100
30
72.00000
0
VERTEX
8
24_72000
10
131.38800
20
56.03100
30
72.00000
0
VERTEX
8
24_72000
10
131.59100
20
56.91900
30
72.00000
0
VERTEX
8
24_72000
10
131.95001
20
57.70300
30
72.00000
0
VERTEX
8
24_72000
10
132.14900
20
58.26100
30
72.00000
0
VERTEX
8
24_72000
10
132.22701
20
58.62200
30
72.00000
0
VERTEX
8
24_72000
10
132.31401
20
58.65900
30
72.00000
0
VERTEX
8
24_72000
10
132.52301
20
59.11600
30
72.00000
0
VERTEX
8
24_72000
10
132.64801
20
59.41300
30
72.00000
0
VERTEX
8
24_72000
10
132.80400
20
59.97900
30
72.00000
0
VERTEX
8
24_72000
10
132.95001
20
60.89800
30
72.00000
0
VERTEX
8
24_72000
10
132.98100
20
60.97600
30
72.00000
0
VERTEX
8
24_72000
10
132.99501
20
61.25400
30
72.00000
0
VERTEX
8
24_72000
10
133.12601
20
62.46000
30
72.00000
0
VERTEX
8
24_72000
10
133.09900
20
62.65300
30
72.00000
0
VERTEX
8
24_72000
10
133.41200
20
63.69400
30
72.00000
0
VERTEX
8
24_72000
10
133.64000
20
64.40300
30
72.00000
0
VERTEX
8
24_72000
10
134.12401
20
65.22200
30
72.00000
0
VERTEX
8
24_72000
10
134.18301
20
65.34400
30
72.00000
0
VERTEX
8
24_72000
10
134.30200
20
65.61401
30
72.00000
0
VERTEX
8
24_72000
10
134.93501
20
67.25301
30
72.00000
0
VERTEX
8
24_72000
10
134.95500
20
67.27100
30
72.00000
0
VERTEX
8
24_72000
10
134.95500
20
67.28900
30
72.00000
0
VERTEX
8
24_72000
10
135.01001
20
67.37100
30
72.00000
0
VERTEX
8
24_72000
10
135.31801
20
68.00600
30
72.00000
0
VERTEX
8
24_72000
10
135.52400
20
68.46600
30
72.00000
0
VERTEX
8
24_72000
10
135.93501
20
69.59600
30
72.00000
0
VERTEX
8
24_72000
10
136.15701
20
70.18000
30
72.00000
0
VERTEX
8
24_72000
10
136.29001
20
70.40300
30
72.00000
0
VERTEX
8
24_72000
10
136.36900
20
70.56800
30
72.00000
0
VERTEX
8
24_72000
10
136.56401
20
71.05200
30
72.00000
0
VERTEX
8
24_72000
10
136.98500
20
72.27200
30
72.00000
0
VERTEX
8
24_72000
10
137.32401
20
73.22200
30
72.00000
0
VERTEX
8
24_72000
10
137.50101
20
73.77000
30
72.00000
0
VERTEX
8
24_72000
10
137.89101
20
74.67001
30
72.00000
0
VERTEX
8
24_72000
10
138.10101
20
75.09400
30
72.00000
0
VERTEX
8
24_72000
10
138.32100
20
75.85800
30
72.00000
0
VERTEX
8
24_72000
10
138.60400
20
76.64101
30
72.00000
0
VERTEX
8
24_72000
10
139.37100
20
78.63900
30
72.00000
0
VERTEX
8
24_72000
10
141.04300
20
83.26900
30
72.00000
0
VERTEX
8
24_72000
10
142.24001
20
87.12701
30
72.00000
0
VERTEX
8
24_72000
10
142.41901
20
87.86700
30
72.00000
0
VERTEX
8
24_72000
10
142.89801
20
90.25500
30
72.00000
0
VERTEX
8
24_72000
10
143.00401
20
90.82001
30
72.00000
0
VERTEX
8
24_72000
10
143.02901
20
91.01401
30
72.00000
0
VERTEX
8
24_72000
10
143.21600
20
93.22000
30
72.00000
0
VERTEX
8
24_72000
10
143.51100
20
96.86501
30
72.00000
0
VERTEX
8
24_72000
10
143.56700
20
98.17200
30
72.00000
0
VERTEX
8
24_72000
10
143.52101
20
99.84100
30
72.00000
0
VERTEX
8
24_72000
10
143.47501
20
104.85001
30
72.00000
0
VERTEX
8
24_72000
10
143.46701
20
105.03101
30
72.00000
0
VERTEX
8
24_72000
10
143.47701
20
111.32700
30
72.00000
0
VERTEX
8
24_72000
10
143.45601
20
113.86101
30
72.00000
0
VERTEX
8
24_72000
10
143.37300
20
114.79900
30
72.00000
0
VERTEX
8
24_72000
10
143.10701
20
117.10700
30
72.00000
0
VERTEX
8
24_72000
10
143.03601
20
117.42801
30
72.00000
0
VERTEX
8
24_72000
10
143.00301
20
117.74901
30
72.00000
0
VERTEX
8
24_72000
10
142.30501
20
120.71901
30
72.00000
0
VERTEX
8
24_72000
10
141.94101
20
122.17801
30
72.00000
0
VERTEX
8
24_72000
10
141.73700
20
122.73501
30
72.00000
0
VERTEX
8
24_72000
10
141.29300
20
124.19201
30
72.00000
0
VERTEX
8
24_72000
10
141.16301
20
124.68101
30
72.00000
0
VERTEX
8
24_72000
10
140.64601
20
126.52601
30
72.00000
0
VERTEX
8
24_72000
10
140.41701
20
127.76501
30
72.00000
0
VERTEX
8
24_72000
10
140.10600
20
129.75000
30
72.00000
0
VERTEX
8
24_72000
10
140.01001
20
130.18800
30
72.00000
0
VERTEX
8
24_72000
10
139.81201
20
131.43701
30
72.00000
0
VERTEX
8
24_72000
10
139.50801
20
132.82701
30
72.00000
0
VERTEX
8
24_72000
10
139.38301
20
133.65901
30
72.00000
0
VERTEX
8
24_72000
10
139.31401
20
134.93800
30
72.00000
0
VERTEX
8
24_72000
10
139.40701
20
135.48801
30
72.00000
0
VERTEX
8
24_72000
10
139.44101
20
135.64801
30
72.00000
0
VERTEX
8
24_72000
10
139.45601
20
135.68501
30
72.00000
0
VERTEX
8
24_72000
10
140.00000
20
136.59500
30
72.00000
0
VERTEX
8
24_72000
10
140.39101
20
137.10701
30
72.00000
0
VERTEX
8
24_72000
10
140.41101
20
137.15001
30
72.00000
0
VERTEX
8
24_72000
10
140.82201
20
137.63600
30
72.00000
0
VERTEX
8
24_72000
10
140.90201
20
137.79300
30
72.00000
0
VERTEX
8
24_72000
10
141.32201
20
138.47900
30
72.00000
0
VERTEX
8
24_72000
10
141.64201
20
139.48300
30
72.00000
0
VERTEX
8
24_72000
10
141.72000
20
140.08000
30
72.00000
0
VERTEX
8
24_72000
10
141.74101
20
140.15501
30
72.00000
0
VERTEX
8
24_72000
10
142.07600
20
142.17300
30
72.00000
0
VERTEX
8
24_72000
10
142.29300
20
144.01601
30
72.00000
0
VERTEX
8
24_72000
10
142.37500
20
144.63701
30
72.00000
0
VERTEX
8
24_72000
10
142.70900
20
145.97501
30
72.00000
0
VERTEX
8
24_72000
10
143.09401
20
147.44200
30
72.00000
0
VERTEX
8
24_72000
10
143.36501
20
148.73201
30
72.00000
0
VERTEX
8
24_72000
10
143.47701
20
149.15201
30
72.00000
0
VERTEX
8
24_72000
10
144.10400
20
151.33501
30
72.00000
0
VERTEX
8
24_72000
10
144.33701
20
152.69000
30
72.00000
0
VERTEX
8
24_72000
10
144.52600
20
153.36501
30
72.00000
0
VERTEX
8
24_72000
10
144.58000
20
153.91301
30
72.00000
0
VERTEX
8
24_72000
10
144.66301
20
154.51001
30
72.00000
0
VERTEX
8
24_72000
10
144.77400
20
154.90201
30
72.00000
0
VERTEX
8
24_72000
10
144.85701
20
155.59201
30
72.00000
0
VERTEX
8
24_72000
10
145.19901
20
158.89801
30
72.00000
0
VERTEX
8
24_72000
10
145.21501
20
159.16701
30
72.00000
0
VERTEX
8
24_72000
10
145.30600
20
160.24301
30
72.00000
0
VERTEX
8
24_72000
10
145.28801
20
160.73601
30
72.00000
0
VERTEX
8
24_72000
10
145.29201
20
162.07901
30
72.00000
0
VERTEX
8
24_72000
10
145.22301
20
162.90501
30
72.00000
0
VERTEX
8
24_72000
10
145.22101
20
163.52802
30
72.00000
0
VERTEX
8
24_72000
10
145.23500
20
163.80200
30
72.00000
0
VERTEX
8
24_72000
10
145.22000
20
163.94701
30
72.00000
0
VERTEX
8
24_72000
10
145.12901
20
165.81201
30
72.00000
0
VERTEX
8
24_72000
10
144.99501
20
167.47501
30
72.00000
0
VERTEX
8
24_72000
10
144.79001
20
169.39101
30
72.00000
0
VERTEX
8
24_72000
10
144.49400
20
171.44601
30
72.00000
0
VERTEX
8
24_72000
10
144.42700
20
172.19701
30
72.00000
0
VERTEX
8
24_72000
10
144.12201
20
174.32401
30
72.00000
0
VERTEX
8
24_72000
10
144.08301
20
174.66200
30
72.00000
0
VERTEX
8
24_72000
10
144.06201
20
174.99101
30
72.00000
0
VERTEX
8
24_72000
10
143.74501
20
176.79102
30
72.00000
0
VERTEX
8
24_72000
10
143.65501
20
177.34500
30
72.00000
0
VERTEX
8
24_72000
10
142.83501
20
181.01201
30
72.00000
0
VERTEX
8
24_72000
10
142.78300
20
181.28801
30
72.00000
0
VERTEX
8
24_72000
10
116.32700
20
181.29001
30
72.00000
0
VERTEX
8
24_72000
10
116.20300
20
181.29601
30
72.00000
0
VERTEX
8
24_72000
10
115.86501
20
181.28801
30
72.00000
0
VERTEX
8
24_72000
10
110.78600
20
181.28700
30
72.00000
0
VERTEX
8
24_72000
10
83.92700
20
181.29001
30
72.00000
0
VERTEX
8
24_72000
10
39.90200
20
180.02400
30
72.00000
0
VERTEX
8
24_72000
10
83.91801
20
181.29001
30
72.00000
0
VERTEX
8
24_72000
10
62.95700
20
181.29201
30
72.00000
0
SEQEND
8
24_72000
0
ENDSEC
0
EOF
