0
SECTION
2
HEADER
9
$ACADVER
1
AC1009
0
ENDSEC
0
SECTION
2
TABLES
0
TABLE
2
LAYER
70
1
0
LAYER
2
8_24000
70
0
62
7
6
CONTINUOUS
0
ENDTAB
0
ENDSEC
0
SECTION
2
BLOCKS
0
ENDSEC
0
SECTION
2
ENTITIES
0
POLYLINE
8
8_24000
62
5
0
VERTEX
8
8_24000
10
20.39800
20
183.58601
30
24.00000
0
VERTEX
8
8_24000
10
156.49001
20
183.37401
30
24.00000
0
VERTEX
8
8_24000
10
20.39800
20
183.58601
30
24.00000
0
SEQEND
8
8_24000
0
POLYLINE
8
8_24000
62
5
0
VERTEX
8
8_24000
10
15.21400
20
184.06201
30
24.00000
0
VERTEX
8
8_24000
10
83.35600
20
183.73201
30
24.00000
0
VERTEX
8
8_24000
10
15.21400
20
184.06201
30
24.00000
0
SEQEND
8
8_24000
0
POLYLINE
8
8_24000
62
5
0
VERTEX
8
8_24000
10
121.44000
20
183.52400
30
24.00000
0
VERTEX
8
8_24000
10
16.29400
20
183.97401
30
24.00000
0
VERTEX
8
8_24000
10
16.23600
20
183.98201
30
24.00000
0
VERTEX
8
8_24000
10
121.44000
20
183.52400
30
24.00000
0
SEQEND
8
8_24000
0
POLYLINE
8
8_24000
62
5
0
VERTEX
8
8_24000
10
45.37200
20
182.01001
30
24.00000
0
VERTEX
8
8_24000
10
156.49001
20
183.37401
30
24.00000
0
VERTEX
8
8_24000
10
30.02200
20
181.81201
30
24.00000
0
VERTEX
8
8_24000
10
29.98200
20
181.82001
30
24.00000
0
VERTEX
8
8_24000
10
45.37200
20
182.01001
30
24.00000
0
SEQEND
8
8_24000
0
POLYLINE
8
8_24000
62
5
0
VERTEX
8
8_24000
10
120.91200
20
183.56001
30
24.00000
0
VERTEX
8
8_24000
10
14.18000
20
184.12001
30
24.00000
0
VERTEX
8
8_24000
10
14.01400
20
184.12801
30
24.00000
0
VERTEX
8
8_24000
10
120.91200
20
183.56001
30
24.00000
0
SEQEND
8
8_24000
0
POLYLINE
8
8_24000
62
5
0
VERTEX
8
8_24000
10
98.19601
20
181.70001
30
24.00000
0
VERTEX
8
8_24000
10
39.88800
20
180.02600
30
24.00000
0
VERTEX
8
8_24000
10
98.19601
20
181.70001
30
24.00000
0
SEQEND
8
8_24000
0
POLYLINE
8
8_24000
62
5
0
VERTEX
8
8_24000
10
9.79100
20
35.08700
30
24.00000
0
VERTEX
8
8_24000
10
10.06800
20
32.85600
30
24.00000
0
VERTEX
8
8_24000
10
10.16600
20
32.19600
30
24.00000
0
VERTEX
8
8_24000
10
10.99200
20
25.82500
30
24.00000
0
VERTEX
8
8_24000
10
11.11200
20
24.82600
30
24.00000
0
VERTEX
8
8_24000
10
11.18800
20
24.29200
30
24.00000
0
VERTEX
8
8_24000
10
11.43200
20
22.34600
30
24.00000
0
VERTEX
8
8_24000
10
11.78200
20
19.44200
30
24.00000
0
VERTEX
8
8_24000
10
11.96300
20
18.07100
30
24.00000
0
VERTEX
8
8_24000
10
12.08900
20
16.99700
30
24.00000
0
VERTEX
8
8_24000
10
12.58800
20
13.02700
30
24.00000
0
VERTEX
8
8_24000
10
13.19400
20
7.96200
30
24.00000
0
VERTEX
8
8_24000
10
13.80600
20
2.61000
30
24.00000
0
VERTEX
8
8_24000
10
14.09200
20
0.00600
30
24.00000
0
VERTEX
8
8_24000
10
158.53401
20
0.00600
30
24.00000
0
VERTEX
8
8_24000
10
158.60600
20
1.23800
30
24.00000
0
VERTEX
8
8_24000
10
158.65800
20
1.95200
30
24.00000
0
VERTEX
8
8_24000
10
158.71600
20
3.05000
30
24.00000
0
VERTEX
8
8_24000
10
158.80801
20
4.49800
30
24.00000
0
VERTEX
8
8_24000
10
158.83601
20
5.24400
30
24.00000
0
VERTEX
8
8_24000
10
159.03900
20
9.48900
30
24.00000
0
VERTEX
8
8_24000
10
159.17001
20
13.46000
30
24.00000
0
VERTEX
8
8_24000
10
159.24301
20
16.15000
30
24.00000
0
VERTEX
8
8_24000
10
159.28500
20
19.02500
30
24.00000
0
VERTEX
8
8_24000
10
159.32501
20
20.90800
30
24.00000
0
VERTEX
8
8_24000
10
159.33000
20
23.07400
30
24.00000
0
VERTEX
8
8_24000
10
159.31401
20
25.82400
30
24.00000
0
VERTEX
8
8_24000
10
159.26201
20
29.59400
30
24.00000
0
VERTEX
8
8_24000
10
159.19000
20
32.17400
30
24.00000
0
VERTEX
8
8_24000
10
159.16301
20
32.79500
30
24.00000
0
VERTEX
8
8_24000
10
159.11401
20
34.78300
30
24.00000
0
VERTEX
8
8_24000
10
158.98401
20
38.54700
30
24.00000
0
VERTEX
8
8_24000
10
158.93001
20
39.77200
30
24.00000
0
VERTEX
8
8_24000
10
158.85600
20
41.76800
30
24.00000
0
VERTEX
8
8_24000
10
158.71400
20
44.57600
30
24.00000
0
VERTEX
8
8_24000
10
158.59601
20
47.36200
30
24.00000
0
VERTEX
8
8_24000
10
158.55602
20
48.54800
30
24.00000
0
VERTEX
8
8_24000
10
158.55801
20
50.09600
30
24.00000
0
VERTEX
8
8_24000
10
158.62201
20
51.99800
30
24.00000
0
VERTEX
8
8_24000
10
158.62801
20
52.57600
30
24.00000
0
VERTEX
8
8_24000
10
158.62201
20
53.54800
30
24.00000
0
VERTEX
8
8_24000
10
158.59601
20
54.33600
30
24.00000
0
VERTEX
8
8_24000
10
158.55701
20
54.93600
30
24.00000
0
VERTEX
8
8_24000
10
158.50401
20
55.54400
30
24.00000
0
VERTEX
8
8_24000
10
158.45601
20
56.73000
30
24.00000
0
VERTEX
8
8_24000
10
158.40800
20
57.14000
30
24.00000
0
VERTEX
8
8_24000
10
158.33000
20
57.56200
30
24.00000
0
VERTEX
8
8_24000
10
158.33000
20
58.33400
30
24.00000
0
VERTEX
8
8_24000
10
158.31601
20
58.72800
30
24.00000
0
VERTEX
8
8_24000
10
158.27600
20
59.13000
30
24.00000
0
VERTEX
8
8_24000
10
158.17401
20
59.94800
30
24.00000
0
VERTEX
8
8_24000
10
158.10400
20
60.36400
30
24.00000
0
VERTEX
8
8_24000
10
158.04800
20
60.77200
30
24.00000
0
VERTEX
8
8_24000
10
158.02200
20
61.16800
30
24.00000
0
VERTEX
8
8_24000
10
157.97801
20
61.57200
30
24.00000
0
VERTEX
8
8_24000
10
157.94801
20
61.96800
30
24.00000
0
VERTEX
8
8_24000
10
157.90001
20
63.14000
30
24.00000
0
VERTEX
8
8_24000
10
157.84401
20
63.93200
30
24.00000
0
VERTEX
8
8_24000
10
157.79800
20
64.33400
30
24.00000
0
VERTEX
8
8_24000
10
157.69200
20
65.52200
30
24.00000
0
VERTEX
8
8_24000
10
157.65201
20
66.68600
30
24.00000
0
VERTEX
8
8_24000
10
157.61601
20
67.08400
30
24.00000
0
VERTEX
8
8_24000
10
157.62201
20
67.46201
30
24.00000
0
VERTEX
8
8_24000
10
157.60001
20
67.85400
30
24.00000
0
VERTEX
8
8_24000
10
157.53801
20
68.64001
30
24.00000
0
VERTEX
8
8_24000
10
157.45801
20
70.19601
30
24.00000
0
VERTEX
8
8_24000
10
157.42001
20
71.35201
30
24.00000
0
VERTEX
8
8_24000
10
157.37801
20
71.74600
30
24.00000
0
VERTEX
8
8_24000
10
157.35400
20
72.13400
30
24.00000
0
VERTEX
8
8_24000
10
157.34601
20
72.51801
30
24.00000
0
VERTEX
8
8_24000
10
157.32401
20
72.90401
30
24.00000
0
VERTEX
8
8_24000
10
157.30000
20
73.67400
30
24.00000
0
VERTEX
8
8_24000
10
157.22801
20
75.21600
30
24.00000
0
VERTEX
8
8_24000
10
157.18401
20
77.13200
30
24.00000
0
VERTEX
8
8_24000
10
157.15800
20
77.51801
30
24.00000
0
VERTEX
8
8_24000
10
157.18001
20
78.27400
30
24.00000
0
VERTEX
8
8_24000
10
157.17700
20
78.43800
30
24.00000
0
VERTEX
8
8_24000
10
157.14401
20
79.42600
30
24.00000
0
VERTEX
8
8_24000
10
157.09401
20
80.19601
30
24.00000
0
VERTEX
8
8_24000
10
157.10201
20
81.33200
30
24.00000
0
VERTEX
8
8_24000
10
157.06201
20
82.48000
30
24.00000
0
VERTEX
8
8_24000
10
157.01501
20
83.40900
30
24.00000
0
VERTEX
8
8_24000
10
156.95201
20
84.39600
30
24.00000
0
VERTEX
8
8_24000
10
156.96800
20
85.15200
30
24.00000
0
VERTEX
8
8_24000
10
156.96501
20
85.31300
30
24.00000
0
VERTEX
8
8_24000
10
156.93001
20
86.51501
30
24.00000
0
VERTEX
8
8_24000
10
156.90001
20
87.05601
30
24.00000
0
VERTEX
8
8_24000
10
156.86900
20
87.97701
30
24.00000
0
VERTEX
8
8_24000
10
156.86601
20
88.57800
30
24.00000
0
VERTEX
8
8_24000
10
156.90800
20
89.33401
30
24.00000
0
VERTEX
8
8_24000
10
156.90201
20
90.47201
30
24.00000
0
VERTEX
8
8_24000
10
156.94000
20
91.22800
30
24.00000
0
VERTEX
8
8_24000
10
156.94400
20
92.14700
30
24.00000
0
VERTEX
8
8_24000
10
156.93401
20
92.74600
30
24.00000
0
VERTEX
8
8_24000
10
156.93800
20
93.50600
30
24.00000
0
VERTEX
8
8_24000
10
156.93102
20
93.98300
30
24.00000
0
VERTEX
8
8_24000
10
156.90201
20
95.78201
30
24.00000
0
VERTEX
8
8_24000
10
156.86601
20
97.29800
30
24.00000
0
VERTEX
8
8_24000
10
156.90601
20
98.05801
30
24.00000
0
VERTEX
8
8_24000
10
156.89001
20
98.81600
30
24.00000
0
VERTEX
8
8_24000
10
156.90201
20
100.71201
30
24.00000
0
VERTEX
8
8_24000
10
156.91301
20
101.63100
30
24.00000
0
VERTEX
8
8_24000
10
156.94601
20
102.99200
30
24.00000
0
VERTEX
8
8_24000
10
156.95201
20
104.13200
30
24.00000
0
VERTEX
8
8_24000
10
156.94400
20
104.89001
30
24.00000
0
VERTEX
8
8_24000
10
156.95201
20
105.27000
30
24.00000
0
VERTEX
8
8_24000
10
156.96301
20
108.08900
30
24.00000
0
VERTEX
8
8_24000
10
156.99600
20
109.83201
30
24.00000
0
VERTEX
8
8_24000
10
156.98801
20
111.13300
30
24.00000
0
VERTEX
8
8_24000
10
156.99400
20
111.73200
30
24.00000
0
VERTEX
8
8_24000
10
157.02600
20
112.98300
30
24.00000
0
VERTEX
8
8_24000
10
157.04800
20
115.54401
30
24.00000
0
VERTEX
8
8_24000
10
157.15001
20
116.71400
30
24.00000
0
VERTEX
8
8_24000
10
157.16801
20
117.09601
30
24.00000
0
VERTEX
8
8_24000
10
157.16801
20
117.47800
30
24.00000
0
VERTEX
8
8_24000
10
157.13800
20
118.01401
30
24.00000
0
VERTEX
8
8_24000
10
157.11801
20
118.60400
30
24.00000
0
VERTEX
8
8_24000
10
157.13400
20
119.75201
30
24.00000
0
VERTEX
8
8_24000
10
157.13000
20
120.51201
30
24.00000
0
VERTEX
8
8_24000
10
157.14201
20
121.27601
30
24.00000
0
VERTEX
8
8_24000
10
157.18001
20
122.05201
30
24.00000
0
VERTEX
8
8_24000
10
157.20001
20
123.20000
30
24.00000
0
VERTEX
8
8_24000
10
157.29800
20
125.90401
30
24.00000
0
VERTEX
8
8_24000
10
157.35001
20
127.06801
30
24.00000
0
VERTEX
8
8_24000
10
157.41801
20
127.85801
30
24.00000
0
VERTEX
8
8_24000
10
157.42601
20
128.24400
30
24.00000
0
VERTEX
8
8_24000
10
157.47200
20
129.02800
30
24.00000
0
VERTEX
8
8_24000
10
157.46800
20
129.40800
30
24.00000
0
VERTEX
8
8_24000
10
157.51201
20
130.19200
30
24.00000
0
VERTEX
8
8_24000
10
157.52200
20
130.96201
30
24.00000
0
VERTEX
8
8_24000
10
157.56401
20
131.95500
30
24.00000
0
VERTEX
8
8_24000
10
157.62801
20
134.45401
30
24.00000
0
VERTEX
8
8_24000
10
157.72601
20
136.03801
30
24.00000
0
VERTEX
8
8_24000
10
157.73901
20
136.60101
30
24.00000
0
VERTEX
8
8_24000
10
157.76601
20
137.21001
30
24.00000
0
VERTEX
8
8_24000
10
157.80400
20
137.61200
30
24.00000
0
VERTEX
8
8_24000
10
157.80701
20
138.58801
30
24.00000
0
VERTEX
8
8_24000
10
157.80400
20
138.76201
30
24.00000
0
VERTEX
8
8_24000
10
157.74600
20
139.88200
30
24.00000
0
VERTEX
8
8_24000
10
157.66400
20
140.98401
30
24.00000
0
VERTEX
8
8_24000
10
157.54401
20
143.21001
30
24.00000
0
VERTEX
8
8_24000
10
157.39001
20
144.64201
30
24.00000
0
VERTEX
8
8_24000
10
157.32600
20
145.36401
30
24.00000
0
VERTEX
8
8_24000
10
157.22801
20
147.20401
30
24.00000
0
VERTEX
8
8_24000
10
157.18201
20
147.93600
30
24.00000
0
VERTEX
8
8_24000
10
157.17601
20
148.31201
30
24.00000
0
VERTEX
8
8_24000
10
157.09700
20
150.32201
30
24.00000
0
VERTEX
8
8_24000
10
157.08000
20
150.90800
30
24.00000
0
VERTEX
8
8_24000
10
157.07001
20
151.66000
30
24.00000
0
VERTEX
8
8_24000
10
157.00201
20
152.75201
30
24.00000
0
VERTEX
8
8_24000
10
157.00801
20
153.13400
30
24.00000
0
VERTEX
8
8_24000
10
156.99400
20
153.50401
30
24.00000
0
VERTEX
8
8_24000
10
156.96001
20
153.85800
30
24.00000
0
VERTEX
8
8_24000
10
156.95601
20
154.23401
30
24.00000
0
VERTEX
8
8_24000
10
156.88400
20
154.94000
30
24.00000
0
VERTEX
8
8_24000
10
156.85001
20
155.67201
30
24.00000
0
VERTEX
8
8_24000
10
156.78001
20
156.75401
30
24.00000
0
VERTEX
8
8_24000
10
156.73701
20
158.01100
30
24.00000
0
VERTEX
8
8_24000
10
156.65401
20
159.29601
30
24.00000
0
VERTEX
8
8_24000
10
156.59401
20
160.76401
30
24.00000
0
VERTEX
8
8_24000
10
156.58000
20
161.28300
30
24.00000
0
VERTEX
8
8_24000
10
156.53201
20
162.22000
30
24.00000
0
VERTEX
8
8_24000
10
156.41200
20
165.13400
30
24.00000
0
VERTEX
8
8_24000
10
156.38200
20
166.61401
30
24.00000
0
VERTEX
8
8_24000
10
156.34201
20
167.70601
30
24.00000
0
VERTEX
8
8_24000
10
156.35101
20
168.61801
30
24.00000
0
VERTEX
8
8_24000
10
156.34401
20
169.59201
30
24.00000
0
VERTEX
8
8_24000
10
156.37201
20
171.88000
30
24.00000
0
VERTEX
8
8_24000
10
156.40201
20
172.66000
30
24.00000
0
VERTEX
8
8_24000
10
156.42001
20
174.18800
30
24.00000
0
VERTEX
8
8_24000
10
156.45401
20
174.97801
30
24.00000
0
VERTEX
8
8_24000
10
156.46201
20
175.36401
30
24.00000
0
VERTEX
8
8_24000
10
156.46001
20
176.86801
30
24.00000
0
VERTEX
8
8_24000
10
156.44801
20
177.76100
30
24.00000
0
VERTEX
8
8_24000
10
156.45100
20
181.23300
30
24.00000
0
VERTEX
8
8_24000
10
156.45601
20
181.54201
30
24.00000
0
VERTEX
8
8_24000
10
156.48201
20
182.17401
30
24.00000
0
VERTEX
8
8_24000
10
156.47701
20
182.69801
30
24.00000
0
VERTEX
8
8_24000
10
156.49001
20
183.37401
30
24.00000
0
VERTEX
8
8_24000
10
10.57000
20
184.24600
30
24.00000
0
VERTEX
8
8_24000
10
10.51600
20
183.30801
30
24.00000
0
VERTEX
8
8_24000
10
10.45800
20
181.85800
30
24.00000
0
VERTEX
8
8_24000
10
10.32600
20
180.11201
30
24.00000
0
VERTEX
8
8_24000
10
10.26400
20
179.03601
30
24.00000
0
VERTEX
8
8_24000
10
10.05600
20
176.60001
30
24.00000
0
VERTEX
8
8_24000
10
9.86800
20
174.89401
30
24.00000
0
VERTEX
8
8_24000
10
9.81200
20
174.18800
30
24.00000
0
VERTEX
8
8_24000
10
9.69400
20
173.16602
30
24.00000
0
VERTEX
8
8_24000
10
9.28200
20
173.20401
30
24.00000
0
VERTEX
8
8_24000
10
9.23400
20
172.48201
30
24.00000
0
VERTEX
8
8_24000
10
9.15100
20
171.60800
30
24.00000
0
VERTEX
8
8_24000
10
9.00400
20
170.41000
30
24.00000
0
VERTEX
8
8_24000
10
8.90400
20
169.73801
30
24.00000
0
VERTEX
8
8_24000
10
8.69600
20
168.19301
30
24.00000
0
VERTEX
8
8_24000
10
8.59600
20
167.54601
30
24.00000
0
VERTEX
8
8_24000
10
8.31000
20
165.83701
30
24.00000
0
VERTEX
8
8_24000
10
8.09400
20
164.70601
30
24.00000
0
VERTEX
8
8_24000
10
7.88600
20
163.73001
30
24.00000
0
VERTEX
8
8_24000
10
7.65200
20
162.76801
30
24.00000
0
VERTEX
8
8_24000
10
7.40600
20
161.81201
30
24.00000
0
VERTEX
8
8_24000
10
7.13200
20
160.87401
30
24.00000
0
VERTEX
8
8_24000
10
7.02400
20
160.57001
30
24.00000
0
VERTEX
8
8_24000
10
6.78800
20
159.98601
30
24.00000
0
VERTEX
8
8_24000
10
6.65200
20
159.71001
30
24.00000
0
VERTEX
8
8_24000
10
6.47600
20
159.46201
30
24.00000
0
VERTEX
8
8_24000
10
6.24800
20
159.26401
30
24.00000
0
VERTEX
8
8_24000
10
5.64800
20
159.44801
30
24.00000
0
VERTEX
8
8_24000
10
5.13000
20
159.56001
30
24.00000
0
VERTEX
8
8_24000
10
4.65800
20
159.62801
30
24.00000
0
VERTEX
8
8_24000
10
4.21600
20
159.67001
30
24.00000
0
VERTEX
8
8_24000
10
4.19200
20
159.28201
30
24.00000
0
VERTEX
8
8_24000
10
4.14400
20
158.91801
30
24.00000
0
VERTEX
8
8_24000
10
4.07600
20
158.57001
30
24.00000
0
VERTEX
8
8_24000
10
3.98800
20
158.23601
30
24.00000
0
VERTEX
8
8_24000
10
3.85600
20
157.85800
30
24.00000
0
VERTEX
8
8_24000
10
4.64700
20
157.51601
30
24.00000
0
VERTEX
8
8_24000
10
6.10400
20
156.31201
30
24.00000
0
VERTEX
8
8_24000
10
6.41900
20
156.03500
30
24.00000
0
VERTEX
8
8_24000
10
6.49000
20
155.96001
30
24.00000
0
VERTEX
8
8_24000
10
7.50900
20
154.69101
30
24.00000
0
VERTEX
8
8_24000
10
7.64300
20
154.48701
30
24.00000
0
VERTEX
8
8_24000
10
7.92300
20
153.95700
30
24.00000
0
VERTEX
8
8_24000
10
8.01700
20
153.74901
30
24.00000
0
VERTEX
8
8_24000
10
8.15000
20
153.37001
30
24.00000
0
VERTEX
8
8_24000
10
8.32000
20
152.32001
30
24.00000
0
VERTEX
8
8_24000
10
8.33500
20
151.69501
30
24.00000
0
VERTEX
8
8_24000
10
8.45300
20
151.23801
30
24.00000
0
VERTEX
8
8_24000
10
8.62900
20
150.31001
30
24.00000
0
VERTEX
8
8_24000
10
8.75700
20
148.66600
30
24.00000
0
VERTEX
8
8_24000
10
8.82200
20
148.26701
30
24.00000
0
VERTEX
8
8_24000
10
8.82600
20
148.13301
30
24.00000
0
VERTEX
8
8_24000
10
8.80800
20
147.92201
30
24.00000
0
VERTEX
8
8_24000
10
8.81400
20
147.52200
30
24.00000
0
VERTEX
8
8_24000
10
8.78800
20
147.28201
30
24.00000
0
VERTEX
8
8_24000
10
8.83700
20
145.83301
30
24.00000
0
VERTEX
8
8_24000
10
8.67500
20
144.92700
30
24.00000
0
VERTEX
8
8_24000
10
8.66800
20
144.81500
30
24.00000
0
VERTEX
8
8_24000
10
8.61700
20
144.51001
30
24.00000
0
VERTEX
8
8_24000
10
8.56300
20
144.07800
30
24.00000
0
VERTEX
8
8_24000
10
8.50400
20
143.82001
30
24.00000
0
VERTEX
8
8_24000
10
8.17100
20
142.00700
30
24.00000
0
VERTEX
8
8_24000
10
8.07400
20
141.55600
30
24.00000
0
VERTEX
8
8_24000
10
7.98600
20
141.06500
30
24.00000
0
VERTEX
8
8_24000
10
7.92700
20
140.67700
30
24.00000
0
VERTEX
8
8_24000
10
7.89800
20
140.55200
30
24.00000
0
VERTEX
8
8_24000
10
7.63400
20
139.13301
30
24.00000
0
VERTEX
8
8_24000
10
7.49400
20
138.17300
30
24.00000
0
VERTEX
8
8_24000
10
7.33000
20
137.40800
30
24.00000
0
VERTEX
8
8_24000
10
7.18300
20
136.32001
30
24.00000
0
VERTEX
8
8_24000
10
7.08100
20
135.77301
30
24.00000
0
VERTEX
8
8_24000
10
7.08100
20
135.06500
30
24.00000
0
VERTEX
8
8_24000
10
6.67100
20
133.14401
30
24.00000
0
VERTEX
8
8_24000
10
6.55400
20
132.32600
30
24.00000
0
VERTEX
8
8_24000
10
6.41700
20
131.64301
30
24.00000
0
VERTEX
8
8_24000
10
6.20200
20
130.81900
30
24.00000
0
VERTEX
8
8_24000
10
6.11300
20
130.41501
30
24.00000
0
VERTEX
8
8_24000
10
5.96200
20
130.03500
30
24.00000
0
VERTEX
8
8_24000
10
5.72000
20
129.34500
30
24.00000
0
VERTEX
8
8_24000
10
5.44500
20
128.61501
30
24.00000
0
VERTEX
8
8_24000
10
5.34000
20
128.39000
30
24.00000
0
VERTEX
8
8_24000
10
5.24100
20
128.22400
30
24.00000
0
VERTEX
8
8_24000
10
4.65200
20
127.00800
30
24.00000
0
VERTEX
8
8_24000
10
4.25300
20
126.54800
30
24.00000
0
VERTEX
8
8_24000
10
4.04800
20
126.47001
30
24.00000
0
VERTEX
8
8_24000
10
3.85700
20
126.40900
30
24.00000
0
VERTEX
8
8_24000
10
4.00200
20
125.60801
30
24.00000
0
VERTEX
8
8_24000
10
4.36400
20
123.47900
30
24.00000
0
VERTEX
8
8_24000
10
4.43600
20
122.99801
30
24.00000
0
VERTEX
8
8_24000
10
4.54200
20
122.14800
30
24.00000
0
VERTEX
8
8_24000
10
4.59700
20
121.78800
30
24.00000
0
VERTEX
8
8_24000
10
4.77600
20
120.44801
30
24.00000
0
VERTEX
8
8_24000
10
4.99400
20
119.16401
30
24.00000
0
VERTEX
8
8_24000
10
5.08400
20
118.73401
30
24.00000
0
VERTEX
8
8_24000
10
5.48100
20
117.12801
30
24.00000
0
VERTEX
8
8_24000
10
5.93700
20
115.42300
30
24.00000
0
VERTEX
8
8_24000
10
6.08000
20
114.84400
30
24.00000
0
VERTEX
8
8_24000
10
6.16600
20
114.42600
30
24.00000
0
VERTEX
8
8_24000
10
6.37000
20
113.58000
30
24.00000
0
VERTEX
8
8_24000
10
6.69600
20
111.92600
30
24.00000
0
VERTEX
8
8_24000
10
6.82200
20
111.11001
30
24.00000
0
VERTEX
8
8_24000
10
7.11700
20
109.04001
30
24.00000
0
VERTEX
8
8_24000
10
7.35400
20
107.48601
30
24.00000
0
VERTEX
8
8_24000
10
7.40000
20
107.08801
30
24.00000
0
VERTEX
8
8_24000
10
7.43200
20
106.69401
30
24.00000
0
VERTEX
8
8_24000
10
7.65600
20
104.91100
30
24.00000
0
VERTEX
8
8_24000
10
7.71600
20
104.32401
30
24.00000
0
VERTEX
8
8_24000
10
7.74400
20
103.93201
30
24.00000
0
VERTEX
8
8_24000
10
7.77000
20
103.15401
30
24.00000
0
VERTEX
8
8_24000
10
7.79200
20
102.76401
30
24.00000
0
VERTEX
8
8_24000
10
7.91400
20
101.04700
30
24.00000
0
VERTEX
8
8_24000
10
7.99000
20
99.84200
30
24.00000
0
VERTEX
8
8_24000
10
8.04400
20
98.11001
30
24.00000
0
VERTEX
8
8_24000
10
8.09200
20
97.15301
30
24.00000
0
VERTEX
8
8_24000
10
8.10600
20
96.18001
30
24.00000
0
VERTEX
8
8_24000
10
8.13400
20
95.79601
30
24.00000
0
VERTEX
8
8_24000
10
8.18200
20
94.64001
30
24.00000
0
VERTEX
8
8_24000
10
8.19400
20
94.05100
30
24.00000
0
VERTEX
8
8_24000
10
8.24700
20
92.51200
30
24.00000
0
VERTEX
8
8_24000
10
8.25600
20
92.33200
30
24.00000
0
VERTEX
8
8_24000
10
8.30500
20
91.77400
30
24.00000
0
VERTEX
8
8_24000
10
8.41600
20
90.04000
30
24.00000
0
VERTEX
8
8_24000
10
8.42800
20
89.65601
30
24.00000
0
VERTEX
8
8_24000
10
8.41400
20
88.88800
30
24.00000
0
VERTEX
8
8_24000
10
8.46000
20
86.97601
30
24.00000
0
VERTEX
8
8_24000
10
8.49600
20
86.21201
30
24.00000
0
VERTEX
8
8_24000
10
8.49000
20
84.89001
30
24.00000
0
VERTEX
8
8_24000
10
8.45400
20
82.37400
30
24.00000
0
VERTEX
8
8_24000
10
8.40000
20
80.83000
30
24.00000
0
VERTEX
8
8_24000
10
8.41600
20
80.45000
30
24.00000
0
VERTEX
8
8_24000
10
8.41800
20
80.06600
30
24.00000
0
VERTEX
8
8_24000
10
8.39200
20
79.29401
30
24.00000
0
VERTEX
8
8_24000
10
8.40800
20
76.99800
30
24.00000
0
VERTEX
8
8_24000
10
8.38400
20
76.22200
30
24.00000
0
VERTEX
8
8_24000
10
8.41000
20
75.46400
30
24.00000
0
VERTEX
8
8_24000
10
8.41000
20
73.93000
30
24.00000
0
VERTEX
8
8_24000
10
8.42200
20
73.16400
30
24.00000
0
VERTEX
8
8_24000
10
8.40000
20
71.62200
30
24.00000
0
VERTEX
8
8_24000
10
8.43800
20
70.48400
30
24.00000
0
VERTEX
8
8_24000
10
8.44600
20
68.95600
30
24.00000
0
VERTEX
8
8_24000
10
8.43800
20
67.41801
30
24.00000
0
VERTEX
8
8_24000
10
8.40800
20
65.13600
30
24.00000
0
VERTEX
8
8_24000
10
8.37800
20
61.63800
30
24.00000
0
VERTEX
8
8_24000
10
8.33400
20
60.08200
30
24.00000
0
VERTEX
8
8_24000
10
8.33600
20
59.31600
30
24.00000
0
VERTEX
8
8_24000
10
8.36200
20
58.55800
30
24.00000
0
VERTEX
8
8_24000
10
8.36000
20
58.17600
30
24.00000
0
VERTEX
8
8_24000
10
8.38200
20
56.65200
30
24.00000
0
VERTEX
8
8_24000
10
8.40200
20
55.89600
30
24.00000
0
VERTEX
8
8_24000
10
8.40200
20
55.13000
30
24.00000
0
VERTEX
8
8_24000
10
8.42300
20
53.78100
30
24.00000
0
VERTEX
8
8_24000
10
8.47600
20
52.10600
30
24.00000
0
VERTEX
8
8_24000
10
8.49200
20
51.34800
30
24.00000
0
VERTEX
8
8_24000
10
8.62000
20
47.98800
30
24.00000
0
VERTEX
8
8_24000
10
8.71600
20
46.14200
30
24.00000
0
VERTEX
8
8_24000
10
8.80800
20
44.68000
30
24.00000
0
VERTEX
8
8_24000
10
9.03900
20
41.96900
30
24.00000
0
VERTEX
8
8_24000
10
9.32200
20
38.99400
30
24.00000
0
VERTEX
8
8_24000
10
9.61800
20
36.44300
30
24.00000
0
VERTEX
8
8_24000
10
9.79100
20
35.08700
30
24.00000
0
SEQEND
8
8_24000
0
ENDSEC
0
EOF
