0
SECTION
2
HEADER
9
$ACADVER
1
AC1009
0
ENDSEC
0
SECTION
2
TABLES
0
TABLE
2
LAYER
70
1
0
LAYER
2
10_30000
70
0
62
7
6
CONTINUOUS
0
ENDTAB
0
ENDSEC
0
SECTION
2
BLOCKS
0
ENDSEC
0
SECTION
2
ENTITIES
0
POLYLINE
8
10_30000
62
5
0
VERTEX
8
10_30000
10
20.39800
20
183.58601
30
30.00000
0
VERTEX
8
10_30000
10
156.49001
20
183.37401
30
30.00000
0
VERTEX
8
10_30000
10
20.39800
20
183.58601
30
30.00000
0
SEQEND
8
10_30000
0
POLYLINE
8
10_30000
62
5
0
VERTEX
8
10_30000
10
15.21400
20
184.06201
30
30.00000
0
VERTEX
8
10_30000
10
83.35600
20
183.73201
30
30.00000
0
VERTEX
8
10_30000
10
15.21400
20
184.06201
30
30.00000
0
SEQEND
8
10_30000
0
POLYLINE
8
10_30000
62
5
0
VERTEX
8
10_30000
10
121.44000
20
183.52400
30
30.00000
0
VERTEX
8
10_30000
10
16.29400
20
183.97401
30
30.00000
0
VERTEX
8
10_30000
10
16.23600
20
183.98201
30
30.00000
0
VERTEX
8
10_30000
10
121.44000
20
183.52400
30
30.00000
0
SEQEND
8
10_30000
0
POLYLINE
8
10_30000
62
5
0
VERTEX
8
10_30000
10
49.22500
20
182.05701
30
30.00000
0
VERTEX
8
10_30000
10
156.49001
20
183.37401
30
30.00000
0
VERTEX
8
10_30000
10
30.02200
20
181.81201
30
30.00000
0
VERTEX
8
10_30000
10
29.98200
20
181.82001
30
30.00000
0
VERTEX
8
10_30000
10
49.22500
20
182.05701
30
30.00000
0
SEQEND
8
10_30000
0
POLYLINE
8
10_30000
62
5
0
VERTEX
8
10_30000
10
120.91200
20
183.56001
30
30.00000
0
VERTEX
8
10_30000
10
14.18000
20
184.12001
30
30.00000
0
VERTEX
8
10_30000
10
14.01400
20
184.12801
30
30.00000
0
VERTEX
8
10_30000
10
120.91200
20
183.56001
30
30.00000
0
SEQEND
8
10_30000
0
POLYLINE
8
10_30000
62
5
0
VERTEX
8
10_30000
10
98.19601
20
181.70001
30
30.00000
0
VERTEX
8
10_30000
10
39.88800
20
180.02600
30
30.00000
0
VERTEX
8
10_30000
10
98.19601
20
181.70001
30
30.00000
0
SEQEND
8
10_30000
0
POLYLINE
8
10_30000
62
5
0
VERTEX
8
10_30000
10
9.79600
20
35.05300
30
30.00000
0
VERTEX
8
10_30000
10
10.06800
20
32.85600
30
30.00000
0
VERTEX
8
10_30000
10
10.16600
20
32.19600
30
30.00000
0
VERTEX
8
10_30000
10
10.98500
20
25.88300
30
30.00000
0
VERTEX
8
10_30000
10
11.11500
20
24.79800
30
30.00000
0
VERTEX
8
10_30000
10
11.18800
20
24.29200
30
30.00000
0
VERTEX
8
10_30000
10
11.60700
20
20.92000
30
30.00000
0
VERTEX
8
10_30000
10
11.78200
20
19.44200
30
30.00000
0
VERTEX
8
10_30000
10
11.96600
20
18.04500
30
30.00000
0
VERTEX
8
10_30000
10
12.08600
20
17.02200
30
30.00000
0
VERTEX
8
10_30000
10
12.59100
20
13.00300
30
30.00000
0
VERTEX
8
10_30000
10
13.20000
20
7.91800
30
30.00000
0
VERTEX
8
10_30000
10
13.54100
20
4.95100
30
30.00000
0
VERTEX
8
10_30000
10
13.59200
20
4.43800
30
30.00000
0
VERTEX
8
10_30000
10
13.80600
20
2.61000
30
30.00000
0
VERTEX
8
10_30000
10
14.09200
20
0.00600
30
30.00000
0
VERTEX
8
10_30000
10
158.53401
20
0.00600
30
30.00000
0
VERTEX
8
10_30000
10
158.60600
20
1.23800
30
30.00000
0
VERTEX
8
10_30000
10
158.65800
20
1.95200
30
30.00000
0
VERTEX
8
10_30000
10
158.71600
20
3.05000
30
30.00000
0
VERTEX
8
10_30000
10
158.80801
20
4.49800
30
30.00000
0
VERTEX
8
10_30000
10
158.83601
20
5.24400
30
30.00000
0
VERTEX
8
10_30000
10
159.03700
20
9.44000
30
30.00000
0
VERTEX
8
10_30000
10
159.17001
20
13.46000
30
30.00000
0
VERTEX
8
10_30000
10
159.17101
20
13.71700
30
30.00000
0
VERTEX
8
10_30000
10
159.22601
20
15.35400
30
30.00000
0
VERTEX
8
10_30000
10
159.24501
20
16.25400
30
30.00000
0
VERTEX
8
10_30000
10
159.28601
20
19.07700
30
30.00000
0
VERTEX
8
10_30000
10
159.32401
20
20.85500
30
30.00000
0
VERTEX
8
10_30000
10
159.33000
20
23.07400
30
30.00000
0
VERTEX
8
10_30000
10
159.31401
20
25.82400
30
30.00000
0
VERTEX
8
10_30000
10
159.26100
20
29.64800
30
30.00000
0
VERTEX
8
10_30000
10
159.19000
20
32.17400
30
30.00000
0
VERTEX
8
10_30000
10
159.16101
20
32.84900
30
30.00000
0
VERTEX
8
10_30000
10
159.11301
20
34.83600
30
30.00000
0
VERTEX
8
10_30000
10
158.98801
20
38.44200
30
30.00000
0
VERTEX
8
10_30000
10
158.93001
20
39.77200
30
30.00000
0
VERTEX
8
10_30000
10
158.85600
20
41.76800
30
30.00000
0
VERTEX
8
10_30000
10
158.71400
20
44.57600
30
30.00000
0
VERTEX
8
10_30000
10
158.56201
20
48.30200
30
30.00000
0
VERTEX
8
10_30000
10
158.55400
20
49.27300
30
30.00000
0
VERTEX
8
10_30000
10
158.55801
20
50.09600
30
30.00000
0
VERTEX
8
10_30000
10
158.62201
20
51.99800
30
30.00000
0
VERTEX
8
10_30000
10
158.62801
20
52.52700
30
30.00000
0
VERTEX
8
10_30000
10
158.62201
20
53.54800
30
30.00000
0
VERTEX
8
10_30000
10
158.59601
20
54.33600
30
30.00000
0
VERTEX
8
10_30000
10
158.55301
20
54.98600
30
30.00000
0
VERTEX
8
10_30000
10
158.50401
20
55.54400
30
30.00000
0
VERTEX
8
10_30000
10
158.45601
20
56.73000
30
30.00000
0
VERTEX
8
10_30000
10
158.40800
20
57.14000
30
30.00000
0
VERTEX
8
10_30000
10
158.33000
20
57.56200
30
30.00000
0
VERTEX
8
10_30000
10
158.33000
20
58.33400
30
30.00000
0
VERTEX
8
10_30000
10
158.31601
20
58.72800
30
30.00000
0
VERTEX
8
10_30000
10
158.27600
20
59.13000
30
30.00000
0
VERTEX
8
10_30000
10
158.17401
20
59.94800
30
30.00000
0
VERTEX
8
10_30000
10
158.10400
20
60.36400
30
30.00000
0
VERTEX
8
10_30000
10
158.04800
20
60.77200
30
30.00000
0
VERTEX
8
10_30000
10
158.02200
20
61.16800
30
30.00000
0
VERTEX
8
10_30000
10
157.97801
20
61.57200
30
30.00000
0
VERTEX
8
10_30000
10
157.94801
20
61.96800
30
30.00000
0
VERTEX
8
10_30000
10
157.90001
20
63.14000
30
30.00000
0
VERTEX
8
10_30000
10
157.84401
20
63.93200
30
30.00000
0
VERTEX
8
10_30000
10
157.79800
20
64.33400
30
30.00000
0
VERTEX
8
10_30000
10
157.69200
20
65.52200
30
30.00000
0
VERTEX
8
10_30000
10
157.65201
20
66.68600
30
30.00000
0
VERTEX
8
10_30000
10
157.61601
20
67.08400
30
30.00000
0
VERTEX
8
10_30000
10
157.62201
20
67.46201
30
30.00000
0
VERTEX
8
10_30000
10
157.60001
20
67.85400
30
30.00000
0
VERTEX
8
10_30000
10
157.53801
20
68.64001
30
30.00000
0
VERTEX
8
10_30000
10
157.45801
20
70.19601
30
30.00000
0
VERTEX
8
10_30000
10
157.42001
20
71.35201
30
30.00000
0
VERTEX
8
10_30000
10
157.37801
20
71.74600
30
30.00000
0
VERTEX
8
10_30000
10
157.35400
20
72.13400
30
30.00000
0
VERTEX
8
10_30000
10
157.34601
20
72.51801
30
30.00000
0
VERTEX
8
10_30000
10
157.32401
20
72.90401
30
30.00000
0
VERTEX
8
10_30000
10
157.30000
20
73.67400
30
30.00000
0
VERTEX
8
10_30000
10
157.22801
20
75.21600
30
30.00000
0
VERTEX
8
10_30000
10
157.18401
20
77.13200
30
30.00000
0
VERTEX
8
10_30000
10
157.15800
20
77.51801
30
30.00000
0
VERTEX
8
10_30000
10
157.18001
20
78.27400
30
30.00000
0
VERTEX
8
10_30000
10
157.17700
20
78.47800
30
30.00000
0
VERTEX
8
10_30000
10
157.14401
20
79.42600
30
30.00000
0
VERTEX
8
10_30000
10
157.09401
20
80.19601
30
30.00000
0
VERTEX
8
10_30000
10
157.10201
20
81.33200
30
30.00000
0
VERTEX
8
10_30000
10
157.06201
20
82.48000
30
30.00000
0
VERTEX
8
10_30000
10
157.01201
20
83.44901
30
30.00000
0
VERTEX
8
10_30000
10
156.95201
20
84.39600
30
30.00000
0
VERTEX
8
10_30000
10
156.96800
20
85.15200
30
30.00000
0
VERTEX
8
10_30000
10
156.96400
20
85.35300
30
30.00000
0
VERTEX
8
10_30000
10
156.92401
20
86.67600
30
30.00000
0
VERTEX
8
10_30000
10
156.90001
20
87.05601
30
30.00000
0
VERTEX
8
10_30000
10
156.86801
20
88.01701
30
30.00000
0
VERTEX
8
10_30000
10
156.86601
20
88.57800
30
30.00000
0
VERTEX
8
10_30000
10
156.90800
20
89.33401
30
30.00000
0
VERTEX
8
10_30000
10
156.90201
20
90.47201
30
30.00000
0
VERTEX
8
10_30000
10
156.94000
20
91.22800
30
30.00000
0
VERTEX
8
10_30000
10
156.94400
20
92.18700
30
30.00000
0
VERTEX
8
10_30000
10
156.93401
20
92.74600
30
30.00000
0
VERTEX
8
10_30000
10
156.93800
20
93.50600
30
30.00000
0
VERTEX
8
10_30000
10
156.93001
20
94.10201
30
30.00000
0
VERTEX
8
10_30000
10
156.90201
20
95.78201
30
30.00000
0
VERTEX
8
10_30000
10
156.86601
20
97.29800
30
30.00000
0
VERTEX
8
10_30000
10
156.90601
20
98.05801
30
30.00000
0
VERTEX
8
10_30000
10
156.89001
20
98.81600
30
30.00000
0
VERTEX
8
10_30000
10
156.90201
20
100.71201
30
30.00000
0
VERTEX
8
10_30000
10
156.91301
20
101.67101
30
30.00000
0
VERTEX
8
10_30000
10
156.94601
20
102.99200
30
30.00000
0
VERTEX
8
10_30000
10
156.95201
20
104.13200
30
30.00000
0
VERTEX
8
10_30000
10
156.94400
20
104.89001
30
30.00000
0
VERTEX
8
10_30000
10
156.95201
20
105.27000
30
30.00000
0
VERTEX
8
10_30000
10
156.96301
20
108.12901
30
30.00000
0
VERTEX
8
10_30000
10
156.99600
20
109.83201
30
30.00000
0
VERTEX
8
10_30000
10
156.98801
20
111.17300
30
30.00000
0
VERTEX
8
10_30000
10
156.99400
20
111.73200
30
30.00000
0
VERTEX
8
10_30000
10
157.01801
20
112.49600
30
30.00000
0
VERTEX
8
10_30000
10
157.02800
20
113.10400
30
30.00000
0
VERTEX
8
10_30000
10
157.04800
20
115.54401
30
30.00000
0
VERTEX
8
10_30000
10
157.15001
20
116.71400
30
30.00000
0
VERTEX
8
10_30000
10
157.16801
20
117.09601
30
30.00000
0
VERTEX
8
10_30000
10
157.16801
20
117.47800
30
30.00000
0
VERTEX
8
10_30000
10
157.13600
20
118.05401
30
30.00000
0
VERTEX
8
10_30000
10
157.11801
20
118.60400
30
30.00000
0
VERTEX
8
10_30000
10
157.13400
20
119.75201
30
30.00000
0
VERTEX
8
10_30000
10
157.13000
20
120.51201
30
30.00000
0
VERTEX
8
10_30000
10
157.14201
20
121.27601
30
30.00000
0
VERTEX
8
10_30000
10
157.18001
20
122.05201
30
30.00000
0
VERTEX
8
10_30000
10
157.20001
20
123.20000
30
30.00000
0
VERTEX
8
10_30000
10
157.29800
20
125.90401
30
30.00000
0
VERTEX
8
10_30000
10
157.35001
20
127.06801
30
30.00000
0
VERTEX
8
10_30000
10
157.41801
20
127.85801
30
30.00000
0
VERTEX
8
10_30000
10
157.42601
20
128.24400
30
30.00000
0
VERTEX
8
10_30000
10
157.47200
20
129.02800
30
30.00000
0
VERTEX
8
10_30000
10
157.46800
20
129.40800
30
30.00000
0
VERTEX
8
10_30000
10
157.51201
20
130.19200
30
30.00000
0
VERTEX
8
10_30000
10
157.52200
20
130.96201
30
30.00000
0
VERTEX
8
10_30000
10
157.56201
20
131.91200
30
30.00000
0
VERTEX
8
10_30000
10
157.62801
20
134.45401
30
30.00000
0
VERTEX
8
10_30000
10
157.72601
20
136.03801
30
30.00000
0
VERTEX
8
10_30000
10
157.74101
20
136.64500
30
30.00000
0
VERTEX
8
10_30000
10
157.76601
20
137.21001
30
30.00000
0
VERTEX
8
10_30000
10
157.80400
20
137.61200
30
30.00000
0
VERTEX
8
10_30000
10
157.80701
20
138.54501
30
30.00000
0
VERTEX
8
10_30000
10
157.80400
20
138.76201
30
30.00000
0
VERTEX
8
10_30000
10
157.74600
20
139.88200
30
30.00000
0
VERTEX
8
10_30000
10
157.66400
20
140.98401
30
30.00000
0
VERTEX
8
10_30000
10
157.54401
20
143.21001
30
30.00000
0
VERTEX
8
10_30000
10
157.39001
20
144.64201
30
30.00000
0
VERTEX
8
10_30000
10
157.32600
20
145.36401
30
30.00000
0
VERTEX
8
10_30000
10
157.22801
20
147.20401
30
30.00000
0
VERTEX
8
10_30000
10
157.18201
20
147.93600
30
30.00000
0
VERTEX
8
10_30000
10
157.17601
20
148.31201
30
30.00000
0
VERTEX
8
10_30000
10
157.09500
20
150.36101
30
30.00000
0
VERTEX
8
10_30000
10
157.07001
20
151.66000
30
30.00000
0
VERTEX
8
10_30000
10
157.00201
20
152.75201
30
30.00000
0
VERTEX
8
10_30000
10
157.00801
20
153.13400
30
30.00000
0
VERTEX
8
10_30000
10
156.99400
20
153.50401
30
30.00000
0
VERTEX
8
10_30000
10
156.96001
20
153.85800
30
30.00000
0
VERTEX
8
10_30000
10
156.95601
20
154.23401
30
30.00000
0
VERTEX
8
10_30000
10
156.88400
20
154.94000
30
30.00000
0
VERTEX
8
10_30000
10
156.85001
20
155.67201
30
30.00000
0
VERTEX
8
10_30000
10
156.78001
20
156.75401
30
30.00000
0
VERTEX
8
10_30000
10
156.73500
20
158.04800
30
30.00000
0
VERTEX
8
10_30000
10
156.65401
20
159.29601
30
30.00000
0
VERTEX
8
10_30000
10
156.62901
20
160.04401
30
30.00000
0
VERTEX
8
10_30000
10
156.59401
20
160.76401
30
30.00000
0
VERTEX
8
10_30000
10
156.58601
20
161.13600
30
30.00000
0
VERTEX
8
10_30000
10
156.53201
20
162.22000
30
30.00000
0
VERTEX
8
10_30000
10
156.41200
20
165.13400
30
30.00000
0
VERTEX
8
10_30000
10
156.38200
20
166.61401
30
30.00000
0
VERTEX
8
10_30000
10
156.34201
20
167.70601
30
30.00000
0
VERTEX
8
10_30000
10
156.35101
20
168.65601
30
30.00000
0
VERTEX
8
10_30000
10
156.34401
20
169.59201
30
30.00000
0
VERTEX
8
10_30000
10
156.37201
20
171.88000
30
30.00000
0
VERTEX
8
10_30000
10
156.40201
20
172.66000
30
30.00000
0
VERTEX
8
10_30000
10
156.42001
20
174.18800
30
30.00000
0
VERTEX
8
10_30000
10
156.45401
20
174.97801
30
30.00000
0
VERTEX
8
10_30000
10
156.46201
20
175.36401
30
30.00000
0
VERTEX
8
10_30000
10
156.46001
20
176.86801
30
30.00000
0
VERTEX
8
10_30000
10
156.44801
20
177.79901
30
30.00000
0
VERTEX
8
10_30000
10
156.45100
20
181.19402
30
30.00000
0
VERTEX
8
10_30000
10
156.45700
20
181.58101
30
30.00000
0
VERTEX
8
10_30000
10
156.48201
20
182.17401
30
30.00000
0
VERTEX
8
10_30000
10
156.47701
20
182.73601
30
30.00000
0
VERTEX
8
10_30000
10
156.49001
20
183.37401
30
30.00000
0
VERTEX
8
10_30000
10
10.57000
20
184.24600
30
30.00000
0
VERTEX
8
10_30000
10
10.51600
20
183.30801
30
30.00000
0
VERTEX
8
10_30000
10
10.45800
20
181.85800
30
30.00000
0
VERTEX
8
10_30000
10
10.32600
20
180.11201
30
30.00000
0
VERTEX
8
10_30000
10
10.26400
20
179.03601
30
30.00000
0
VERTEX
8
10_30000
10
10.05600
20
176.60001
30
30.00000
0
VERTEX
8
10_30000
10
9.86800
20
174.89401
30
30.00000
0
VERTEX
8
10_30000
10
9.81200
20
174.18800
30
30.00000
0
VERTEX
8
10_30000
10
9.69400
20
173.16602
30
30.00000
0
VERTEX
8
10_30000
10
9.28200
20
173.20401
30
30.00000
0
VERTEX
8
10_30000
10
9.23400
20
172.48201
30
30.00000
0
VERTEX
8
10_30000
10
9.15600
20
171.65100
30
30.00000
0
VERTEX
8
10_30000
10
9.00400
20
170.41000
30
30.00000
0
VERTEX
8
10_30000
10
8.90400
20
169.73801
30
30.00000
0
VERTEX
8
10_30000
10
8.69000
20
168.14700
30
30.00000
0
VERTEX
8
10_30000
10
8.38500
20
166.25801
30
30.00000
0
VERTEX
8
10_30000
10
8.30100
20
165.78900
30
30.00000
0
VERTEX
8
10_30000
10
8.09400
20
164.70601
30
30.00000
0
VERTEX
8
10_30000
10
7.88600
20
163.73001
30
30.00000
0
VERTEX
8
10_30000
10
7.65200
20
162.76801
30
30.00000
0
VERTEX
8
10_30000
10
7.40600
20
161.81201
30
30.00000
0
VERTEX
8
10_30000
10
7.13200
20
160.87401
30
30.00000
0
VERTEX
8
10_30000
10
6.92000
20
160.30501
30
30.00000
0
VERTEX
8
10_30000
10
6.78800
20
159.98601
30
30.00000
0
VERTEX
8
10_30000
10
6.65200
20
159.71001
30
30.00000
0
VERTEX
8
10_30000
10
6.47600
20
159.46201
30
30.00000
0
VERTEX
8
10_30000
10
6.38600
20
159.38400
30
30.00000
0
VERTEX
8
10_30000
10
6.73800
20
159.18201
30
30.00000
0
VERTEX
8
10_30000
10
6.79400
20
159.16301
30
30.00000
0
VERTEX
8
10_30000
10
7.98200
20
158.37201
30
30.00000
0
VERTEX
8
10_30000
10
9.19600
20
157.03500
30
30.00000
0
VERTEX
8
10_30000
10
9.76000
20
156.32101
30
30.00000
0
VERTEX
8
10_30000
10
10.33400
20
155.54501
30
30.00000
0
VERTEX
8
10_30000
10
10.62300
20
155.11101
30
30.00000
0
VERTEX
8
10_30000
10
11.08000
20
154.10101
30
30.00000
0
VERTEX
8
10_30000
10
11.09900
20
154.04601
30
30.00000
0
VERTEX
8
10_30000
10
11.35700
20
153.07401
30
30.00000
0
VERTEX
8
10_30000
10
11.38400
20
152.90601
30
30.00000
0
VERTEX
8
10_30000
10
11.41400
20
152.28700
30
30.00000
0
VERTEX
8
10_30000
10
11.37300
20
151.59601
30
30.00000
0
VERTEX
8
10_30000
10
11.32700
20
151.28401
30
30.00000
0
VERTEX
8
10_30000
10
11.27100
20
150.67500
30
30.00000
0
VERTEX
8
10_30000
10
11.20500
20
149.00201
30
30.00000
0
VERTEX
8
10_30000
10
11.27400
20
147.85400
30
30.00000
0
VERTEX
8
10_30000
10
11.31000
20
147.50201
30
30.00000
0
VERTEX
8
10_30000
10
11.37500
20
146.38600
30
30.00000
0
VERTEX
8
10_30000
10
11.41800
20
145.89201
30
30.00000
0
VERTEX
8
10_30000
10
11.40800
20
145.23401
30
30.00000
0
VERTEX
8
10_30000
10
11.46400
20
144.65100
30
30.00000
0
VERTEX
8
10_30000
10
11.38800
20
142.91800
30
30.00000
0
VERTEX
8
10_30000
10
11.22300
20
141.47900
30
30.00000
0
VERTEX
8
10_30000
10
11.16700
20
140.77501
30
30.00000
0
VERTEX
8
10_30000
10
11.01000
20
139.88800
30
30.00000
0
VERTEX
8
10_30000
10
10.75200
20
138.87100
30
30.00000
0
VERTEX
8
10_30000
10
10.60800
20
138.17401
30
30.00000
0
VERTEX
8
10_30000
10
10.30200
20
136.99001
30
30.00000
0
VERTEX
8
10_30000
10
10.16200
20
136.33101
30
30.00000
0
VERTEX
8
10_30000
10
9.86100
20
135.30000
30
30.00000
0
VERTEX
8
10_30000
10
9.78800
20
134.94801
30
30.00000
0
VERTEX
8
10_30000
10
9.69100
20
134.31801
30
30.00000
0
VERTEX
8
10_30000
10
9.55300
20
133.73801
30
30.00000
0
VERTEX
8
10_30000
10
9.40300
20
133.21701
30
30.00000
0
VERTEX
8
10_30000
10
9.16700
20
132.23300
30
30.00000
0
VERTEX
8
10_30000
10
9.07800
20
131.99901
30
30.00000
0
VERTEX
8
10_30000
10
8.73600
20
130.85301
30
30.00000
0
VERTEX
8
10_30000
10
8.34400
20
129.10301
30
30.00000
0
VERTEX
8
10_30000
10
8.22400
20
128.46400
30
30.00000
0
VERTEX
8
10_30000
10
8.15200
20
128.26201
30
30.00000
0
VERTEX
8
10_30000
10
8.06600
20
127.85600
30
30.00000
0
VERTEX
8
10_30000
10
7.90000
20
127.32101
30
30.00000
0
VERTEX
8
10_30000
10
7.54900
20
126.36101
30
30.00000
0
VERTEX
8
10_30000
10
7.41500
20
126.12501
30
30.00000
0
VERTEX
8
10_30000
10
7.16800
20
125.20200
30
30.00000
0
VERTEX
8
10_30000
10
6.61400
20
123.82600
30
30.00000
0
VERTEX
8
10_30000
10
5.94100
20
122.22900
30
30.00000
0
VERTEX
8
10_30000
10
5.60300
20
121.45100
30
30.00000
0
VERTEX
8
10_30000
10
5.52300
20
121.33601
30
30.00000
0
VERTEX
8
10_30000
10
5.29500
20
120.83601
30
30.00000
0
VERTEX
8
10_30000
10
5.21000
20
120.68800
30
30.00000
0
VERTEX
8
10_30000
10
4.87000
20
120.27400
30
30.00000
0
VERTEX
8
10_30000
10
4.81900
20
120.18301
30
30.00000
0
VERTEX
8
10_30000
10
4.99400
20
119.16401
30
30.00000
0
VERTEX
8
10_30000
10
5.08400
20
118.73401
30
30.00000
0
VERTEX
8
10_30000
10
5.50000
20
117.05200
30
30.00000
0
VERTEX
8
10_30000
10
5.99800
20
115.18700
30
30.00000
0
VERTEX
8
10_30000
10
6.08000
20
114.84400
30
30.00000
0
VERTEX
8
10_30000
10
6.16600
20
114.42600
30
30.00000
0
VERTEX
8
10_30000
10
6.37000
20
113.58000
30
30.00000
0
VERTEX
8
10_30000
10
6.69600
20
111.92600
30
30.00000
0
VERTEX
8
10_30000
10
6.74300
20
111.63300
30
30.00000
0
VERTEX
8
10_30000
10
6.90300
20
110.54800
30
30.00000
0
VERTEX
8
10_30000
10
6.99000
20
109.89800
30
30.00000
0
VERTEX
8
10_30000
10
7.35400
20
107.48601
30
30.00000
0
VERTEX
8
10_30000
10
7.40000
20
107.08801
30
30.00000
0
VERTEX
8
10_30000
10
7.43200
20
106.69401
30
30.00000
0
VERTEX
8
10_30000
10
7.66200
20
104.86201
30
30.00000
0
VERTEX
8
10_30000
10
7.71600
20
104.32401
30
30.00000
0
VERTEX
8
10_30000
10
7.74400
20
103.93201
30
30.00000
0
VERTEX
8
10_30000
10
7.77000
20
103.15401
30
30.00000
0
VERTEX
8
10_30000
10
7.79200
20
102.76401
30
30.00000
0
VERTEX
8
10_30000
10
7.98800
20
99.88901
30
30.00000
0
VERTEX
8
10_30000
10
8.04400
20
98.11001
30
30.00000
0
VERTEX
8
10_30000
10
8.08600
20
97.33601
30
30.00000
0
VERTEX
8
10_30000
10
8.10600
20
96.18001
30
30.00000
0
VERTEX
8
10_30000
10
8.13400
20
95.79601
30
30.00000
0
VERTEX
8
10_30000
10
8.18200
20
94.64001
30
30.00000
0
VERTEX
8
10_30000
10
8.19300
20
94.09701
30
30.00000
0
VERTEX
8
10_30000
10
8.24400
20
92.55601
30
30.00000
0
VERTEX
8
10_30000
10
8.25600
20
92.33200
30
30.00000
0
VERTEX
8
10_30000
10
8.30800
20
91.73000
30
30.00000
0
VERTEX
8
10_30000
10
8.41600
20
90.04000
30
30.00000
0
VERTEX
8
10_30000
10
8.42800
20
89.65601
30
30.00000
0
VERTEX
8
10_30000
10
8.41400
20
88.88800
30
30.00000
0
VERTEX
8
10_30000
10
8.44300
20
87.52200
30
30.00000
0
VERTEX
8
10_30000
10
8.46000
20
86.97601
30
30.00000
0
VERTEX
8
10_30000
10
8.49600
20
86.21201
30
30.00000
0
VERTEX
8
10_30000
10
8.49000
20
84.84600
30
30.00000
0
VERTEX
8
10_30000
10
8.45400
20
82.37400
30
30.00000
0
VERTEX
8
10_30000
10
8.40000
20
80.83000
30
30.00000
0
VERTEX
8
10_30000
10
8.41600
20
80.45000
30
30.00000
0
VERTEX
8
10_30000
10
8.41800
20
80.06600
30
30.00000
0
VERTEX
8
10_30000
10
8.39200
20
79.29401
30
30.00000
0
VERTEX
8
10_30000
10
8.40800
20
76.99800
30
30.00000
0
VERTEX
8
10_30000
10
8.38400
20
76.22200
30
30.00000
0
VERTEX
8
10_30000
10
8.41000
20
75.46400
30
30.00000
0
VERTEX
8
10_30000
10
8.41000
20
73.93000
30
30.00000
0
VERTEX
8
10_30000
10
8.42200
20
73.16400
30
30.00000
0
VERTEX
8
10_30000
10
8.40000
20
71.62200
30
30.00000
0
VERTEX
8
10_30000
10
8.43800
20
70.48400
30
30.00000
0
VERTEX
8
10_30000
10
8.44600
20
68.95600
30
30.00000
0
VERTEX
8
10_30000
10
8.43800
20
67.41801
30
30.00000
0
VERTEX
8
10_30000
10
8.41700
20
66.03900
30
30.00000
0
VERTEX
8
10_30000
10
8.37800
20
61.63800
30
30.00000
0
VERTEX
8
10_30000
10
8.33400
20
60.08200
30
30.00000
0
VERTEX
8
10_30000
10
8.33600
20
59.31600
30
30.00000
0
VERTEX
8
10_30000
10
8.36200
20
58.55800
30
30.00000
0
VERTEX
8
10_30000
10
8.36000
20
58.17600
30
30.00000
0
VERTEX
8
10_30000
10
8.38200
20
56.65200
30
30.00000
0
VERTEX
8
10_30000
10
8.40200
20
55.89600
30
30.00000
0
VERTEX
8
10_30000
10
8.40200
20
55.13000
30
30.00000
0
VERTEX
8
10_30000
10
8.42100
20
53.82400
30
30.00000
0
VERTEX
8
10_30000
10
8.47600
20
52.10600
30
30.00000
0
VERTEX
8
10_30000
10
8.49200
20
51.34800
30
30.00000
0
VERTEX
8
10_30000
10
8.58800
20
48.73000
30
30.00000
0
VERTEX
8
10_30000
10
8.71600
20
46.14200
30
30.00000
0
VERTEX
8
10_30000
10
8.80800
20
44.68000
30
30.00000
0
VERTEX
8
10_30000
10
9.03600
20
42.00700
30
30.00000
0
VERTEX
8
10_30000
10
9.32200
20
38.99400
30
30.00000
0
VERTEX
8
10_30000
10
9.62200
20
36.40800
30
30.00000
0
VERTEX
8
10_30000
10
9.79600
20
35.05300
30
30.00000
0
SEQEND
8
10_30000
0
ENDSEC
0
EOF
