0
SECTION
2
HEADER
9
$ACADVER
1
AC1009
0
ENDSEC
0
SECTION
2
TABLES
0
TABLE
2
LAYER
70
1
0
LAYER
2
33_99000
70
0
62
7
6
CONTINUOUS
0
ENDTAB
0
ENDSEC
0
SECTION
2
BLOCKS
0
ENDSEC
0
SECTION
2
ENTITIES
0
POLYLINE
8
33_99000
62
5
0
VERTEX
8
33_99000
10
98.90401
20
114.72301
30
99.00000
0
VERTEX
8
33_99000
10
98.36201
20
116.44100
30
99.00000
0
VERTEX
8
33_99000
10
98.19801
20
116.82001
30
99.00000
0
VERTEX
8
33_99000
10
97.38600
20
118.50600
30
99.00000
0
VERTEX
8
33_99000
10
97.23501
20
118.75700
30
99.00000
0
VERTEX
8
33_99000
10
96.57101
20
119.96001
30
99.00000
0
VERTEX
8
33_99000
10
96.36700
20
120.26900
30
99.00000
0
VERTEX
8
33_99000
10
94.94701
20
122.49600
30
99.00000
0
VERTEX
8
33_99000
10
94.30901
20
123.51501
30
99.00000
0
VERTEX
8
33_99000
10
94.11201
20
123.94301
30
99.00000
0
VERTEX
8
33_99000
10
93.75401
20
124.63801
30
99.00000
0
VERTEX
8
33_99000
10
93.37100
20
125.24300
30
99.00000
0
VERTEX
8
33_99000
10
92.65100
20
126.77100
30
99.00000
0
VERTEX
8
33_99000
10
92.17200
20
127.82301
30
99.00000
0
VERTEX
8
33_99000
10
91.30300
20
129.34201
30
99.00000
0
VERTEX
8
33_99000
10
90.93201
20
130.02400
30
99.00000
0
VERTEX
8
33_99000
10
90.13600
20
131.00401
30
99.00000
0
VERTEX
8
33_99000
10
90.08100
20
131.08400
30
99.00000
0
VERTEX
8
33_99000
10
89.09400
20
132.17401
30
99.00000
0
VERTEX
8
33_99000
10
88.86900
20
132.27501
30
99.00000
0
VERTEX
8
33_99000
10
88.66601
20
132.41200
30
99.00000
0
VERTEX
8
33_99000
10
88.39400
20
132.50700
30
99.00000
0
VERTEX
8
33_99000
10
87.62400
20
132.83701
30
99.00000
0
VERTEX
8
33_99000
10
86.53500
20
132.57100
30
99.00000
0
VERTEX
8
33_99000
10
86.44801
20
132.58000
30
99.00000
0
VERTEX
8
33_99000
10
86.03400
20
132.42801
30
99.00000
0
VERTEX
8
33_99000
10
85.43501
20
132.24600
30
99.00000
0
VERTEX
8
33_99000
10
85.35201
20
132.18800
30
99.00000
0
VERTEX
8
33_99000
10
85.22701
20
132.06001
30
99.00000
0
VERTEX
8
33_99000
10
84.28201
20
131.41200
30
99.00000
0
VERTEX
8
33_99000
10
84.01200
20
131.28000
30
99.00000
0
VERTEX
8
33_99000
10
83.54501
20
130.73901
30
99.00000
0
VERTEX
8
33_99000
10
83.30701
20
130.43600
30
99.00000
0
VERTEX
8
33_99000
10
83.27500
20
130.36700
30
99.00000
0
VERTEX
8
33_99000
10
82.77200
20
129.62001
30
99.00000
0
VERTEX
8
33_99000
10
82.34400
20
129.03201
30
99.00000
0
VERTEX
8
33_99000
10
82.05400
20
128.67001
30
99.00000
0
VERTEX
8
33_99000
10
81.77300
20
128.25401
30
99.00000
0
VERTEX
8
33_99000
10
81.29301
20
127.39400
30
99.00000
0
VERTEX
8
33_99000
10
80.99001
20
126.82001
30
99.00000
0
VERTEX
8
33_99000
10
80.91100
20
126.65800
30
99.00000
0
VERTEX
8
33_99000
10
80.81300
20
126.35500
30
99.00000
0
VERTEX
8
33_99000
10
80.34801
20
125.70000
30
99.00000
0
VERTEX
8
33_99000
10
79.78400
20
124.82101
30
99.00000
0
VERTEX
8
33_99000
10
79.52000
20
124.43501
30
99.00000
0
VERTEX
8
33_99000
10
78.93600
20
123.54301
30
99.00000
0
VERTEX
8
33_99000
10
78.87100
20
123.43001
30
99.00000
0
VERTEX
8
33_99000
10
78.54401
20
123.08701
30
99.00000
0
VERTEX
8
33_99000
10
77.84801
20
122.12000
30
99.00000
0
VERTEX
8
33_99000
10
77.44801
20
121.59200
30
99.00000
0
VERTEX
8
33_99000
10
76.22100
20
119.80901
30
99.00000
0
VERTEX
8
33_99000
10
74.67001
20
117.48000
30
99.00000
0
VERTEX
8
33_99000
10
73.95300
20
116.08401
30
99.00000
0
VERTEX
8
33_99000
10
73.71101
20
115.57101
30
99.00000
0
VERTEX
8
33_99000
10
73.64700
20
115.45200
30
99.00000
0
VERTEX
8
33_99000
10
73.03500
20
113.90900
30
99.00000
0
VERTEX
8
33_99000
10
72.88500
20
113.50600
30
99.00000
0
VERTEX
8
33_99000
10
72.16200
20
111.47301
30
99.00000
0
VERTEX
8
33_99000
10
71.76200
20
110.13000
30
99.00000
0
VERTEX
8
33_99000
10
71.48500
20
108.96500
30
99.00000
0
VERTEX
8
33_99000
10
71.39101
20
108.52801
30
99.00000
0
VERTEX
8
33_99000
10
71.35800
20
108.03201
30
99.00000
0
VERTEX
8
33_99000
10
71.21301
20
106.49300
30
99.00000
0
VERTEX
8
33_99000
10
71.24800
20
105.69601
30
99.00000
0
VERTEX
8
33_99000
10
71.34801
20
105.06300
30
99.00000
0
VERTEX
8
33_99000
10
71.43201
20
104.67001
30
99.00000
0
VERTEX
8
33_99000
10
71.54800
20
104.40201
30
99.00000
0
VERTEX
8
33_99000
10
71.92300
20
103.47401
30
99.00000
0
VERTEX
8
33_99000
10
72.05701
20
103.30300
30
99.00000
0
VERTEX
8
33_99000
10
72.34200
20
102.96500
30
99.00000
0
VERTEX
8
33_99000
10
72.49500
20
102.82201
30
99.00000
0
VERTEX
8
33_99000
10
73.14800
20
102.28900
30
99.00000
0
VERTEX
8
33_99000
10
73.78700
20
102.03700
30
99.00000
0
VERTEX
8
33_99000
10
74.40501
20
101.81600
30
99.00000
0
VERTEX
8
33_99000
10
74.46500
20
101.78001
30
99.00000
0
VERTEX
8
33_99000
10
74.78600
20
101.53500
30
99.00000
0
VERTEX
8
33_99000
10
74.90900
20
101.42400
30
99.00000
0
VERTEX
8
33_99000
10
76.02700
20
100.35500
30
99.00000
0
VERTEX
8
33_99000
10
76.45000
20
99.80901
30
99.00000
0
VERTEX
8
33_99000
10
76.78300
20
99.36201
30
99.00000
0
VERTEX
8
33_99000
10
77.24400
20
98.47000
30
99.00000
0
VERTEX
8
33_99000
10
77.83801
20
97.21700
30
99.00000
0
VERTEX
8
33_99000
10
78.13900
20
96.82201
30
99.00000
0
VERTEX
8
33_99000
10
78.77801
20
95.89800
30
99.00000
0
VERTEX
8
33_99000
10
79.56900
20
94.95901
30
99.00000
0
VERTEX
8
33_99000
10
80.55400
20
93.94601
30
99.00000
0
VERTEX
8
33_99000
10
80.76200
20
93.70400
30
99.00000
0
VERTEX
8
33_99000
10
80.82001
20
93.66500
30
99.00000
0
VERTEX
8
33_99000
10
81.66300
20
92.95700
30
99.00000
0
VERTEX
8
33_99000
10
82.04000
20
92.61401
30
99.00000
0
VERTEX
8
33_99000
10
82.91200
20
92.02000
30
99.00000
0
VERTEX
8
33_99000
10
83.14600
20
91.87400
30
99.00000
0
VERTEX
8
33_99000
10
85.67101
20
91.39001
30
99.00000
0
VERTEX
8
33_99000
10
86.52801
20
91.39001
30
99.00000
0
VERTEX
8
33_99000
10
86.67500
20
91.36700
30
99.00000
0
VERTEX
8
33_99000
10
88.12000
20
91.56100
30
99.00000
0
VERTEX
8
33_99000
10
88.80701
20
91.92800
30
99.00000
0
VERTEX
8
33_99000
10
89.51300
20
92.18301
30
99.00000
0
VERTEX
8
33_99000
10
90.01000
20
92.48400
30
99.00000
0
VERTEX
8
33_99000
10
90.59701
20
93.02100
30
99.00000
0
VERTEX
8
33_99000
10
90.73300
20
93.10400
30
99.00000
0
VERTEX
8
33_99000
10
90.85201
20
93.20300
30
99.00000
0
VERTEX
8
33_99000
10
91.02701
20
93.41901
30
99.00000
0
VERTEX
8
33_99000
10
92.31700
20
95.08701
30
99.00000
0
VERTEX
8
33_99000
10
92.58301
20
95.54700
30
99.00000
0
VERTEX
8
33_99000
10
92.73000
20
95.83000
30
99.00000
0
VERTEX
8
33_99000
10
93.09901
20
96.67500
30
99.00000
0
VERTEX
8
33_99000
10
93.19501
20
97.06700
30
99.00000
0
VERTEX
8
33_99000
10
93.46201
20
97.60201
30
99.00000
0
VERTEX
8
33_99000
10
93.52801
20
97.70600
30
99.00000
0
VERTEX
8
33_99000
10
93.75401
20
98.01000
30
99.00000
0
VERTEX
8
33_99000
10
93.95000
20
98.33900
30
99.00000
0
VERTEX
8
33_99000
10
94.13300
20
98.68201
30
99.00000
0
VERTEX
8
33_99000
10
94.20300
20
98.78001
30
99.00000
0
VERTEX
8
33_99000
10
94.55000
20
99.19801
30
99.00000
0
VERTEX
8
33_99000
10
94.89800
20
99.54101
30
99.00000
0
VERTEX
8
33_99000
10
95.21600
20
99.81100
30
99.00000
0
VERTEX
8
33_99000
10
95.65100
20
99.98901
30
99.00000
0
VERTEX
8
33_99000
10
95.82800
20
100.08601
30
99.00000
0
VERTEX
8
33_99000
10
96.05200
20
100.18301
30
99.00000
0
VERTEX
8
33_99000
10
96.64400
20
100.31001
30
99.00000
0
VERTEX
8
33_99000
10
96.96400
20
100.43001
30
99.00000
0
VERTEX
8
33_99000
10
97.27901
20
100.50001
30
99.00000
0
VERTEX
8
33_99000
10
97.74700
20
100.51501
30
99.00000
0
VERTEX
8
33_99000
10
98.12401
20
100.64301
30
99.00000
0
VERTEX
8
33_99000
10
98.41300
20
100.82500
30
99.00000
0
VERTEX
8
33_99000
10
98.61501
20
100.97301
30
99.00000
0
VERTEX
8
33_99000
10
98.70400
20
101.05200
30
99.00000
0
VERTEX
8
33_99000
10
98.96201
20
101.32201
30
99.00000
0
VERTEX
8
33_99000
10
99.38700
20
101.89001
30
99.00000
0
VERTEX
8
33_99000
10
99.79601
20
102.64700
30
99.00000
0
VERTEX
8
33_99000
10
99.88600
20
102.84400
30
99.00000
0
VERTEX
8
33_99000
10
100.11301
20
103.57800
30
99.00000
0
VERTEX
8
33_99000
10
100.19801
20
103.97800
30
99.00000
0
VERTEX
8
33_99000
10
100.23200
20
104.10300
30
99.00000
0
VERTEX
8
33_99000
10
100.23501
20
104.44701
30
99.00000
0
VERTEX
8
33_99000
10
100.36301
20
105.48401
30
99.00000
0
VERTEX
8
33_99000
10
100.37000
20
105.69200
30
99.00000
0
VERTEX
8
33_99000
10
100.37100
20
106.27300
30
99.00000
0
VERTEX
8
33_99000
10
100.27200
20
107.65401
30
99.00000
0
VERTEX
8
33_99000
10
99.73901
20
110.63300
30
99.00000
0
VERTEX
8
33_99000
10
99.66501
20
111.11800
30
99.00000
0
VERTEX
8
33_99000
10
99.46400
20
112.01701
30
99.00000
0
VERTEX
8
33_99000
10
98.95400
20
114.54301
30
99.00000
0
VERTEX
8
33_99000
10
98.90401
20
114.72301
30
99.00000
0
SEQEND
8
33_99000
0
ENDSEC
0
EOF
