0
SECTION
2
HEADER
9
$ACADVER
1
AC1009
0
ENDSEC
0
SECTION
2
TABLES
0
TABLE
2
LAYER
70
1
0
LAYER
2
31_93000
70
0
62
7
6
CONTINUOUS
0
ENDTAB
0
ENDSEC
0
SECTION
2
BLOCKS
0
ENDSEC
0
SECTION
2
ENTITIES
0
POLYLINE
8
31_93000
62
5
0
VERTEX
8
31_93000
10
77.39400
20
177.78401
30
93.00000
0
VERTEX
8
31_93000
10
64.97300
20
177.78500
30
93.00000
0
VERTEX
8
31_93000
10
63.38400
20
176.58601
30
93.00000
0
VERTEX
8
31_93000
10
62.79000
20
176.00700
30
93.00000
0
VERTEX
8
31_93000
10
62.44600
20
175.68800
30
93.00000
0
VERTEX
8
31_93000
10
61.70500
20
174.79800
30
93.00000
0
VERTEX
8
31_93000
10
61.23500
20
174.33701
30
93.00000
0
VERTEX
8
31_93000
10
61.08300
20
174.12201
30
93.00000
0
VERTEX
8
31_93000
10
60.36900
20
173.29401
30
93.00000
0
VERTEX
8
31_93000
10
59.86200
20
172.64101
30
93.00000
0
VERTEX
8
31_93000
10
59.61600
20
172.37901
30
93.00000
0
VERTEX
8
31_93000
10
58.97200
20
171.38400
30
93.00000
0
VERTEX
8
31_93000
10
57.87100
20
169.89601
30
93.00000
0
VERTEX
8
31_93000
10
57.41800
20
169.22301
30
93.00000
0
VERTEX
8
31_93000
10
56.21000
20
167.89601
30
93.00000
0
VERTEX
8
31_93000
10
56.14500
20
167.79800
30
93.00000
0
VERTEX
8
31_93000
10
56.10800
20
167.63200
30
93.00000
0
VERTEX
8
31_93000
10
56.06000
20
167.29401
30
93.00000
0
VERTEX
8
31_93000
10
56.07200
20
166.97801
30
93.00000
0
VERTEX
8
31_93000
10
56.24000
20
166.73500
30
93.00000
0
VERTEX
8
31_93000
10
57.21400
20
165.16000
30
93.00000
0
VERTEX
8
31_93000
10
58.11000
20
164.36101
30
93.00000
0
VERTEX
8
31_93000
10
58.82800
20
163.81700
30
93.00000
0
VERTEX
8
31_93000
10
59.24700
20
163.52101
30
93.00000
0
VERTEX
8
31_93000
10
60.41700
20
162.84201
30
93.00000
0
VERTEX
8
31_93000
10
60.76200
20
162.70801
30
93.00000
0
VERTEX
8
31_93000
10
62.37900
20
162.13501
30
93.00000
0
VERTEX
8
31_93000
10
64.49400
20
161.33301
30
93.00000
0
VERTEX
8
31_93000
10
66.53300
20
160.66600
30
93.00000
0
VERTEX
8
31_93000
10
68.15200
20
160.18501
30
93.00000
0
VERTEX
8
31_93000
10
68.53201
20
160.10101
30
93.00000
0
VERTEX
8
31_93000
10
70.03400
20
159.71001
30
93.00000
0
VERTEX
8
31_93000
10
71.61600
20
159.10301
30
93.00000
0
VERTEX
8
31_93000
10
73.03900
20
158.61801
30
93.00000
0
VERTEX
8
31_93000
10
74.40601
20
157.91801
30
93.00000
0
VERTEX
8
31_93000
10
74.48000
20
157.86501
30
93.00000
0
VERTEX
8
31_93000
10
76.41801
20
156.73300
30
93.00000
0
VERTEX
8
31_93000
10
76.59700
20
156.57401
30
93.00000
0
VERTEX
8
31_93000
10
77.57500
20
155.88901
30
93.00000
0
VERTEX
8
31_93000
10
78.02200
20
155.46501
30
93.00000
0
VERTEX
8
31_93000
10
78.67700
20
154.59901
30
93.00000
0
VERTEX
8
31_93000
10
78.86100
20
154.41701
30
93.00000
0
VERTEX
8
31_93000
10
79.05701
20
154.03801
30
93.00000
0
VERTEX
8
31_93000
10
79.39001
20
153.32401
30
93.00000
0
VERTEX
8
31_93000
10
79.91600
20
151.63600
30
93.00000
0
VERTEX
8
31_93000
10
80.23701
20
150.01300
30
93.00000
0
VERTEX
8
31_93000
10
80.49800
20
149.09201
30
93.00000
0
VERTEX
8
31_93000
10
80.74400
20
147.67001
30
93.00000
0
VERTEX
8
31_93000
10
80.78001
20
147.52800
30
93.00000
0
VERTEX
8
31_93000
10
80.99400
20
145.54401
30
93.00000
0
VERTEX
8
31_93000
10
80.95600
20
144.06900
30
93.00000
0
VERTEX
8
31_93000
10
80.88901
20
143.42401
30
93.00000
0
VERTEX
8
31_93000
10
80.87300
20
143.31700
30
93.00000
0
VERTEX
8
31_93000
10
80.84400
20
143.21901
30
93.00000
0
VERTEX
8
31_93000
10
80.58300
20
141.48100
30
93.00000
0
VERTEX
8
31_93000
10
80.36800
20
139.78300
30
93.00000
0
VERTEX
8
31_93000
10
80.18000
20
139.02400
30
93.00000
0
VERTEX
8
31_93000
10
80.09901
20
138.48801
30
93.00000
0
VERTEX
8
31_93000
10
79.23200
20
135.21001
30
93.00000
0
VERTEX
8
31_93000
10
78.44601
20
132.94200
30
93.00000
0
VERTEX
8
31_93000
10
78.05901
20
131.90901
30
93.00000
0
VERTEX
8
31_93000
10
77.38700
20
130.41200
30
93.00000
0
VERTEX
8
31_93000
10
77.00000
20
129.64700
30
93.00000
0
VERTEX
8
31_93000
10
76.43401
20
128.61501
30
93.00000
0
VERTEX
8
31_93000
10
75.58601
20
127.23701
30
93.00000
0
VERTEX
8
31_93000
10
74.34600
20
125.37401
30
93.00000
0
VERTEX
8
31_93000
10
73.66100
20
124.44901
30
93.00000
0
VERTEX
8
31_93000
10
73.04401
20
123.42901
30
93.00000
0
VERTEX
8
31_93000
10
72.08701
20
122.08801
30
93.00000
0
VERTEX
8
31_93000
10
71.92101
20
121.78001
30
93.00000
0
VERTEX
8
31_93000
10
71.50401
20
120.91100
30
93.00000
0
VERTEX
8
31_93000
10
71.19100
20
120.12000
30
93.00000
0
VERTEX
8
31_93000
10
70.78900
20
119.20400
30
93.00000
0
VERTEX
8
31_93000
10
70.19300
20
117.09801
30
93.00000
0
VERTEX
8
31_93000
10
70.05200
20
116.50700
30
93.00000
0
VERTEX
8
31_93000
10
69.83701
20
115.49400
30
93.00000
0
VERTEX
8
31_93000
10
69.78500
20
115.32001
30
93.00000
0
VERTEX
8
31_93000
10
69.35300
20
114.08801
30
93.00000
0
VERTEX
8
31_93000
10
68.16400
20
111.17700
30
93.00000
0
VERTEX
8
31_93000
10
68.11600
20
110.89400
30
93.00000
0
VERTEX
8
31_93000
10
67.65300
20
109.62701
30
93.00000
0
VERTEX
8
31_93000
10
67.31500
20
108.43201
30
93.00000
0
VERTEX
8
31_93000
10
67.03900
20
107.27400
30
93.00000
0
VERTEX
8
31_93000
10
66.91000
20
105.82301
30
93.00000
0
VERTEX
8
31_93000
10
66.92300
20
105.61800
30
93.00000
0
VERTEX
8
31_93000
10
67.09100
20
104.25201
30
93.00000
0
VERTEX
8
31_93000
10
67.26701
20
103.46900
30
93.00000
0
VERTEX
8
31_93000
10
67.47900
20
102.91701
30
93.00000
0
VERTEX
8
31_93000
10
68.07000
20
101.46700
30
93.00000
0
VERTEX
8
31_93000
10
68.61100
20
100.54201
30
93.00000
0
VERTEX
8
31_93000
10
70.01000
20
98.97501
30
93.00000
0
VERTEX
8
31_93000
10
70.65000
20
98.39500
30
93.00000
0
VERTEX
8
31_93000
10
70.83601
20
98.25500
30
93.00000
0
VERTEX
8
31_93000
10
70.95100
20
98.14400
30
93.00000
0
VERTEX
8
31_93000
10
71.04200
20
98.01801
30
93.00000
0
VERTEX
8
31_93000
10
71.26601
20
97.79800
30
93.00000
0
VERTEX
8
31_93000
10
71.68700
20
97.10101
30
93.00000
0
VERTEX
8
31_93000
10
71.87601
20
96.80200
30
93.00000
0
VERTEX
8
31_93000
10
71.95100
20
96.34801
30
93.00000
0
VERTEX
8
31_93000
10
72.07800
20
95.71001
30
93.00000
0
VERTEX
8
31_93000
10
72.14001
20
95.11001
30
93.00000
0
VERTEX
8
31_93000
10
72.15200
20
93.88400
30
93.00000
0
VERTEX
8
31_93000
10
72.10101
20
93.68501
30
93.00000
0
VERTEX
8
31_93000
10
71.96800
20
92.83100
30
93.00000
0
VERTEX
8
31_93000
10
71.91801
20
92.69100
30
93.00000
0
VERTEX
8
31_93000
10
71.49600
20
91.75101
30
93.00000
0
VERTEX
8
31_93000
10
71.15701
20
91.09400
30
93.00000
0
VERTEX
8
31_93000
10
71.07201
20
90.96101
30
93.00000
0
VERTEX
8
31_93000
10
70.82700
20
90.42600
30
93.00000
0
VERTEX
8
31_93000
10
70.51900
20
89.60600
30
93.00000
0
VERTEX
8
31_93000
10
70.10400
20
88.78700
30
93.00000
0
VERTEX
8
31_93000
10
69.99800
20
88.49001
30
93.00000
0
VERTEX
8
31_93000
10
69.68600
20
87.86900
30
93.00000
0
VERTEX
8
31_93000
10
69.41901
20
87.55901
30
93.00000
0
VERTEX
8
31_93000
10
69.32201
20
87.24400
30
93.00000
0
VERTEX
8
31_93000
10
69.07600
20
86.50500
30
93.00000
0
VERTEX
8
31_93000
10
69.15401
20
85.79301
30
93.00000
0
VERTEX
8
31_93000
10
69.11200
20
85.66300
30
93.00000
0
VERTEX
8
31_93000
10
69.06001
20
85.54201
30
93.00000
0
VERTEX
8
31_93000
10
68.87200
20
85.38700
30
93.00000
0
VERTEX
8
31_93000
10
68.76601
20
84.98400
30
93.00000
0
VERTEX
8
31_93000
10
68.43000
20
84.26100
30
93.00000
0
VERTEX
8
31_93000
10
68.35600
20
83.98100
30
93.00000
0
VERTEX
8
31_93000
10
68.21201
20
83.33401
30
93.00000
0
VERTEX
8
31_93000
10
68.11000
20
83.00101
30
93.00000
0
VERTEX
8
31_93000
10
68.07301
20
82.95800
30
93.00000
0
VERTEX
8
31_93000
10
67.76000
20
82.15401
30
93.00000
0
VERTEX
8
31_93000
10
67.26701
20
81.87300
30
93.00000
0
VERTEX
8
31_93000
10
67.24500
20
81.84300
30
93.00000
0
VERTEX
8
31_93000
10
67.24500
20
81.52000
30
93.00000
0
VERTEX
8
31_93000
10
67.22601
20
81.48000
30
93.00000
0
VERTEX
8
31_93000
10
67.21500
20
81.47200
30
93.00000
0
VERTEX
8
31_93000
10
67.24500
20
81.37000
30
93.00000
0
VERTEX
8
31_93000
10
67.49900
20
80.70200
30
93.00000
0
VERTEX
8
31_93000
10
67.51501
20
80.62501
30
93.00000
0
VERTEX
8
31_93000
10
67.19200
20
77.93900
30
93.00000
0
VERTEX
8
31_93000
10
67.22100
20
77.65601
30
93.00000
0
VERTEX
8
31_93000
10
67.37400
20
76.71800
30
93.00000
0
VERTEX
8
31_93000
10
67.48400
20
76.30500
30
93.00000
0
VERTEX
8
31_93000
10
67.56700
20
76.08801
30
93.00000
0
VERTEX
8
31_93000
10
68.37801
20
74.69601
30
93.00000
0
VERTEX
8
31_93000
10
68.54700
20
74.48701
30
93.00000
0
VERTEX
8
31_93000
10
68.63600
20
74.40000
30
93.00000
0
VERTEX
8
31_93000
10
70.32500
20
73.04200
30
93.00000
0
VERTEX
8
31_93000
10
70.84400
20
72.74500
30
93.00000
0
VERTEX
8
31_93000
10
72.02800
20
71.87300
30
93.00000
0
VERTEX
8
31_93000
10
72.52500
20
71.36900
30
93.00000
0
VERTEX
8
31_93000
10
74.06900
20
70.32700
30
93.00000
0
VERTEX
8
31_93000
10
74.72900
20
69.93700
30
93.00000
0
VERTEX
8
31_93000
10
75.21500
20
69.70100
30
93.00000
0
VERTEX
8
31_93000
10
75.64001
20
69.39001
30
93.00000
0
VERTEX
8
31_93000
10
76.01900
20
69.27000
30
93.00000
0
VERTEX
8
31_93000
10
76.17700
20
69.07000
30
93.00000
0
VERTEX
8
31_93000
10
76.14101
20
69.01601
30
93.00000
0
VERTEX
8
31_93000
10
75.59700
20
68.87100
30
93.00000
0
VERTEX
8
31_93000
10
75.23400
20
68.57201
30
93.00000
0
VERTEX
8
31_93000
10
74.09400
20
68.10300
30
93.00000
0
VERTEX
8
31_93000
10
73.56400
20
67.79000
30
93.00000
0
VERTEX
8
31_93000
10
72.71301
20
67.10700
30
93.00000
0
VERTEX
8
31_93000
10
72.02600
20
66.31100
30
93.00000
0
VERTEX
8
31_93000
10
70.95400
20
65.21700
30
93.00000
0
VERTEX
8
31_93000
10
70.42700
20
64.76900
30
93.00000
0
VERTEX
8
31_93000
10
70.01100
20
64.34100
30
93.00000
0
VERTEX
8
31_93000
10
69.16801
20
63.38600
30
93.00000
0
VERTEX
8
31_93000
10
68.98400
20
63.14600
30
93.00000
0
VERTEX
8
31_93000
10
68.76400
20
62.67400
30
93.00000
0
VERTEX
8
31_93000
10
68.59500
20
62.39200
30
93.00000
0
VERTEX
8
31_93000
10
67.85500
20
60.50900
30
93.00000
0
VERTEX
8
31_93000
10
67.48600
20
59.01100
30
93.00000
0
VERTEX
8
31_93000
10
67.42400
20
58.54300
30
93.00000
0
VERTEX
8
31_93000
10
67.51100
20
57.49700
30
93.00000
0
VERTEX
8
31_93000
10
67.55400
20
57.41400
30
93.00000
0
VERTEX
8
31_93000
10
67.97000
20
55.97700
30
93.00000
0
VERTEX
8
31_93000
10
68.06700
20
55.69900
30
93.00000
0
VERTEX
8
31_93000
10
68.06500
20
54.95200
30
93.00000
0
VERTEX
8
31_93000
10
68.01900
20
53.71000
30
93.00000
0
VERTEX
8
31_93000
10
68.10400
20
53.27600
30
93.00000
0
VERTEX
8
31_93000
10
68.10400
20
53.03500
30
93.00000
0
VERTEX
8
31_93000
10
68.17300
20
52.42900
30
93.00000
0
VERTEX
8
31_93000
10
68.12801
20
52.17900
30
93.00000
0
VERTEX
8
31_93000
10
68.07401
20
51.72100
30
93.00000
0
VERTEX
8
31_93000
10
68.09200
20
51.55500
30
93.00000
0
VERTEX
8
31_93000
10
68.08400
20
51.17600
30
93.00000
0
VERTEX
8
31_93000
10
68.14101
20
50.65500
30
93.00000
0
VERTEX
8
31_93000
10
68.81500
20
50.48100
30
93.00000
0
VERTEX
8
31_93000
10
68.81500
20
50.18900
30
93.00000
0
VERTEX
8
31_93000
10
68.94100
20
50.09800
30
93.00000
0
VERTEX
8
31_93000
10
68.98300
20
50.03200
30
93.00000
0
VERTEX
8
31_93000
10
69.27400
20
49.73600
30
93.00000
0
VERTEX
8
31_93000
10
69.56400
20
49.58700
30
93.00000
0
VERTEX
8
31_93000
10
69.75700
20
49.46200
30
93.00000
0
VERTEX
8
31_93000
10
70.13300
20
49.18100
30
93.00000
0
VERTEX
8
31_93000
10
70.80300
20
48.70800
30
93.00000
0
VERTEX
8
31_93000
10
71.04200
20
48.67700
30
93.00000
0
VERTEX
8
31_93000
10
71.45200
20
48.32200
30
93.00000
0
VERTEX
8
31_93000
10
71.62100
20
47.83700
30
93.00000
0
VERTEX
8
31_93000
10
72.02500
20
47.23300
30
93.00000
0
VERTEX
8
31_93000
10
72.25000
20
46.92400
30
93.00000
0
VERTEX
8
31_93000
10
72.36301
20
46.37500
30
93.00000
0
VERTEX
8
31_93000
10
72.40800
20
46.09600
30
93.00000
0
VERTEX
8
31_93000
10
72.44000
20
45.97700
30
93.00000
0
VERTEX
8
31_93000
10
72.46700
20
45.90400
30
93.00000
0
VERTEX
8
31_93000
10
72.79200
20
45.35400
30
93.00000
0
VERTEX
8
31_93000
10
73.08701
20
45.06200
30
93.00000
0
VERTEX
8
31_93000
10
73.37701
20
44.70300
30
93.00000
0
VERTEX
8
31_93000
10
73.42500
20
44.66300
30
93.00000
0
VERTEX
8
31_93000
10
73.48901
20
44.56400
30
93.00000
0
VERTEX
8
31_93000
10
73.97501
20
43.92200
30
93.00000
0
VERTEX
8
31_93000
10
74.25600
20
43.80000
30
93.00000
0
VERTEX
8
31_93000
10
74.48300
20
43.45900
30
93.00000
0
VERTEX
8
31_93000
10
74.72900
20
43.27000
30
93.00000
0
VERTEX
8
31_93000
10
75.20300
20
42.82700
30
93.00000
0
VERTEX
8
31_93000
10
75.14600
20
42.68300
30
93.00000
0
VERTEX
8
31_93000
10
75.17200
20
42.52200
30
93.00000
0
VERTEX
8
31_93000
10
75.46600
20
41.55900
30
93.00000
0
VERTEX
8
31_93000
10
75.67400
20
41.57300
30
93.00000
0
VERTEX
8
31_93000
10
76.00700
20
41.33600
30
93.00000
0
VERTEX
8
31_93000
10
76.31300
20
40.57900
30
93.00000
0
VERTEX
8
31_93000
10
76.41801
20
40.50800
30
93.00000
0
VERTEX
8
31_93000
10
76.61501
20
40.10000
30
93.00000
0
VERTEX
8
31_93000
10
77.33501
20
39.94500
30
93.00000
0
VERTEX
8
31_93000
10
77.45000
20
39.69500
30
93.00000
0
VERTEX
8
31_93000
10
77.57700
20
39.44800
30
93.00000
0
VERTEX
8
31_93000
10
77.43201
20
39.17400
30
93.00000
0
VERTEX
8
31_93000
10
77.48801
20
38.36100
30
93.00000
0
VERTEX
8
31_93000
10
77.60101
20
38.30300
30
93.00000
0
VERTEX
8
31_93000
10
77.09400
20
37.26100
30
93.00000
0
VERTEX
8
31_93000
10
76.80400
20
37.06100
30
93.00000
0
VERTEX
8
31_93000
10
76.80400
20
36.61400
30
93.00000
0
VERTEX
8
31_93000
10
77.26300
20
36.56500
30
93.00000
0
VERTEX
8
31_93000
10
77.68600
20
36.21700
30
93.00000
0
VERTEX
8
31_93000
10
77.43201
20
35.80000
30
93.00000
0
VERTEX
8
31_93000
10
77.16200
20
35.52000
30
93.00000
0
VERTEX
8
31_93000
10
77.26300
20
34.73600
30
93.00000
0
VERTEX
8
31_93000
10
76.75600
20
34.99300
30
93.00000
0
VERTEX
8
31_93000
10
76.68800
20
34.88900
30
93.00000
0
VERTEX
8
31_93000
10
76.65900
20
34.86800
30
93.00000
0
VERTEX
8
31_93000
10
76.41801
20
34.47400
30
93.00000
0
VERTEX
8
31_93000
10
76.58701
20
34.13000
30
93.00000
0
VERTEX
8
31_93000
10
76.41801
20
33.78200
30
93.00000
0
VERTEX
8
31_93000
10
76.16400
20
33.86900
30
93.00000
0
VERTEX
8
31_93000
10
75.99600
20
33.95700
30
93.00000
0
VERTEX
8
31_93000
10
75.64201
20
33.85300
30
93.00000
0
VERTEX
8
31_93000
10
75.43900
20
33.74800
30
93.00000
0
VERTEX
8
31_93000
10
74.91100
20
33.91400
30
93.00000
0
VERTEX
8
31_93000
10
74.43401
20
33.87000
30
93.00000
0
VERTEX
8
31_93000
10
74.36100
20
33.87800
30
93.00000
0
VERTEX
8
31_93000
10
74.31900
20
33.80800
30
93.00000
0
VERTEX
8
31_93000
10
73.97701
20
33.44700
30
93.00000
0
VERTEX
8
31_93000
10
73.74500
20
32.97500
30
93.00000
0
VERTEX
8
31_93000
10
73.66200
20
32.87100
30
93.00000
0
VERTEX
8
31_93000
10
73.60900
20
32.49800
30
93.00000
0
VERTEX
8
31_93000
10
73.67600
20
31.93900
30
93.00000
0
VERTEX
8
31_93000
10
73.58100
20
31.48500
30
93.00000
0
VERTEX
8
31_93000
10
73.44601
20
31.20700
30
93.00000
0
VERTEX
8
31_93000
10
73.11800
20
30.67600
30
93.00000
0
VERTEX
8
31_93000
10
73.08701
20
30.59900
30
93.00000
0
VERTEX
8
31_93000
10
72.70100
20
30.59800
30
93.00000
0
VERTEX
8
31_93000
10
72.58801
20
30.45500
30
93.00000
0
VERTEX
8
31_93000
10
72.47601
20
30.41700
30
93.00000
0
VERTEX
8
31_93000
10
72.25101
20
30.41900
30
93.00000
0
VERTEX
8
31_93000
10
72.19400
20
30.04200
30
93.00000
0
VERTEX
8
31_93000
10
72.56600
20
29.46700
30
93.00000
0
VERTEX
8
31_93000
10
72.70100
20
29.46600
30
93.00000
0
VERTEX
8
31_93000
10
72.92600
20
28.79500
30
93.00000
0
VERTEX
8
31_93000
10
73.08701
20
28.36400
30
93.00000
0
VERTEX
8
31_93000
10
73.64700
20
27.17000
30
93.00000
0
VERTEX
8
31_93000
10
73.90701
20
26.87100
30
93.00000
0
VERTEX
8
31_93000
10
74.22301
20
26.76400
30
93.00000
0
VERTEX
8
31_93000
10
74.39201
20
26.71800
30
93.00000
0
VERTEX
8
31_93000
10
75.29200
20
25.60400
30
93.00000
0
VERTEX
8
31_93000
10
76.41901
20
24.07400
30
93.00000
0
VERTEX
8
31_93000
10
77.25201
20
23.45800
30
93.00000
0
VERTEX
8
31_93000
10
77.98100
20
22.34000
30
93.00000
0
VERTEX
8
31_93000
10
77.93900
20
22.12300
30
93.00000
0
VERTEX
8
31_93000
10
78.02400
20
21.95000
30
93.00000
0
VERTEX
8
31_93000
10
78.53001
20
21.42900
30
93.00000
0
VERTEX
8
31_93000
10
79.03800
20
20.64400
30
93.00000
0
VERTEX
8
31_93000
10
79.46001
20
20.90800
30
93.00000
0
VERTEX
8
31_93000
10
79.23500
20
21.36900
30
93.00000
0
VERTEX
8
31_93000
10
79.58300
20
21.34900
30
93.00000
0
VERTEX
8
31_93000
10
79.84600
20
21.55500
30
93.00000
0
VERTEX
8
31_93000
10
80.00900
20
21.77800
30
93.00000
0
VERTEX
8
31_93000
10
80.03900
20
21.80200
30
93.00000
0
VERTEX
8
31_93000
10
80.13600
20
22.30000
30
93.00000
0
VERTEX
8
31_93000
10
80.24900
20
23.57700
30
93.00000
0
VERTEX
8
31_93000
10
80.30500
20
23.69200
30
93.00000
0
VERTEX
8
31_93000
10
80.47401
20
23.92400
30
93.00000
0
VERTEX
8
31_93000
10
80.92500
20
25.31500
30
93.00000
0
VERTEX
8
31_93000
10
81.08200
20
26.05600
30
93.00000
0
VERTEX
8
31_93000
10
81.30300
20
26.85100
30
93.00000
0
VERTEX
8
31_93000
10
81.48701
20
27.40100
30
93.00000
0
VERTEX
8
31_93000
10
81.59801
20
27.63400
30
93.00000
0
VERTEX
8
31_93000
10
81.82301
20
27.77900
30
93.00000
0
VERTEX
8
31_93000
10
81.71101
20
28.44700
30
93.00000
0
VERTEX
8
31_93000
10
81.65401
20
28.91000
30
93.00000
0
VERTEX
8
31_93000
10
80.86800
20
29.71800
30
93.00000
0
VERTEX
8
31_93000
10
79.74200
20
32.03900
30
93.00000
0
VERTEX
8
31_93000
10
79.79800
20
32.56200
30
93.00000
0
VERTEX
8
31_93000
10
79.57301
20
32.61900
30
93.00000
0
VERTEX
8
31_93000
10
78.95300
20
32.73500
30
93.00000
0
VERTEX
8
31_93000
10
78.67101
20
33.54600
30
93.00000
0
VERTEX
8
31_93000
10
78.44601
20
33.95500
30
93.00000
0
VERTEX
8
31_93000
10
78.10800
20
33.89900
30
93.00000
0
VERTEX
8
31_93000
10
77.99500
20
33.89900
30
93.00000
0
VERTEX
8
31_93000
10
77.63500
20
33.57100
30
93.00000
0
VERTEX
8
31_93000
10
77.31900
20
34.12900
30
93.00000
0
VERTEX
8
31_93000
10
77.54501
20
34.36000
30
93.00000
0
VERTEX
8
31_93000
10
77.65701
20
34.36100
30
93.00000
0
VERTEX
8
31_93000
10
78.10800
20
34.59100
30
93.00000
0
VERTEX
8
31_93000
10
78.44601
20
34.47400
30
93.00000
0
VERTEX
8
31_93000
10
78.78400
20
34.40500
30
93.00000
0
VERTEX
8
31_93000
10
79.06100
20
34.98400
30
93.00000
0
VERTEX
8
31_93000
10
79.12200
20
34.98400
30
93.00000
0
VERTEX
8
31_93000
10
79.14800
20
34.96000
30
93.00000
0
VERTEX
8
31_93000
10
79.75000
20
35.37300
30
93.00000
0
VERTEX
8
31_93000
10
80.70800
20
36.24300
30
93.00000
0
VERTEX
8
31_93000
10
80.76300
20
36.31600
30
93.00000
0
VERTEX
8
31_93000
10
80.81200
20
36.44800
30
93.00000
0
VERTEX
8
31_93000
10
80.94701
20
36.63300
30
93.00000
0
VERTEX
8
31_93000
10
81.02600
20
36.80100
30
93.00000
0
VERTEX
8
31_93000
10
80.98100
20
36.97000
30
93.00000
0
VERTEX
8
31_93000
10
80.97800
20
37.04300
30
93.00000
0
VERTEX
8
31_93000
10
81.03500
20
37.26000
30
93.00000
0
VERTEX
8
31_93000
10
81.34300
20
37.80700
30
93.00000
0
VERTEX
8
31_93000
10
81.39101
20
37.98100
30
93.00000
0
VERTEX
8
31_93000
10
81.31900
20
38.47800
30
93.00000
0
VERTEX
8
31_93000
10
81.31900
20
39.00000
30
93.00000
0
VERTEX
8
31_93000
10
81.41200
20
39.03900
30
93.00000
0
VERTEX
8
31_93000
10
81.43900
20
39.14900
30
93.00000
0
VERTEX
8
31_93000
10
81.40200
20
39.52000
30
93.00000
0
VERTEX
8
31_93000
10
81.51701
20
39.85400
30
93.00000
0
VERTEX
8
31_93000
10
81.79301
20
40.24100
30
93.00000
0
VERTEX
8
31_93000
10
81.85001
20
40.21600
30
93.00000
0
VERTEX
8
31_93000
10
81.88200
20
40.21600
30
93.00000
0
VERTEX
8
31_93000
10
82.44501
20
40.50400
30
93.00000
0
VERTEX
8
31_93000
10
82.59700
20
40.68700
30
93.00000
0
VERTEX
8
31_93000
10
82.83900
20
40.73600
30
93.00000
0
VERTEX
8
31_93000
10
83.28800
20
40.96900
30
93.00000
0
VERTEX
8
31_93000
10
83.51300
20
41.06600
30
93.00000
0
VERTEX
8
31_93000
10
83.81400
20
41.27700
30
93.00000
0
VERTEX
8
31_93000
10
83.97800
20
41.52200
30
93.00000
0
VERTEX
8
31_93000
10
84.19000
20
41.73800
30
93.00000
0
VERTEX
8
31_93000
10
84.28201
20
42.00300
30
93.00000
0
VERTEX
8
31_93000
10
84.36301
20
42.09400
30
93.00000
0
VERTEX
8
31_93000
10
84.86501
20
42.58800
30
93.00000
0
VERTEX
8
31_93000
10
85.05901
20
42.97400
30
93.00000
0
VERTEX
8
31_93000
10
85.20400
20
43.17400
30
93.00000
0
VERTEX
8
31_93000
10
85.26200
20
43.36600
30
93.00000
0
VERTEX
8
31_93000
10
86.00600
20
44.30600
30
93.00000
0
VERTEX
8
31_93000
10
86.49500
20
44.74000
30
93.00000
0
VERTEX
8
31_93000
10
86.58501
20
44.81000
30
93.00000
0
VERTEX
8
31_93000
10
86.61301
20
44.85100
30
93.00000
0
VERTEX
8
31_93000
10
86.74500
20
44.91400
30
93.00000
0
VERTEX
8
31_93000
10
86.93201
20
45.11800
30
93.00000
0
VERTEX
8
31_93000
10
87.11800
20
45.14500
30
93.00000
0
VERTEX
8
31_93000
10
87.23100
20
45.14600
30
93.00000
0
VERTEX
8
31_93000
10
87.48400
20
45.23100
30
93.00000
0
VERTEX
8
31_93000
10
87.70100
20
45.27300
30
93.00000
0
VERTEX
8
31_93000
10
87.89800
20
45.39200
30
93.00000
0
VERTEX
8
31_93000
10
88.40100
20
45.53000
30
93.00000
0
VERTEX
8
31_93000
10
88.89201
20
45.76400
30
93.00000
0
VERTEX
8
31_93000
10
89.55100
20
46.16600
30
93.00000
0
VERTEX
8
31_93000
10
89.68401
20
46.30500
30
93.00000
0
VERTEX
8
31_93000
10
89.76401
20
46.47900
30
93.00000
0
VERTEX
8
31_93000
10
89.82001
20
46.65300
30
93.00000
0
VERTEX
8
31_93000
10
89.80701
20
46.67900
30
93.00000
0
VERTEX
8
31_93000
10
89.88800
20
46.79200
30
93.00000
0
VERTEX
8
31_93000
10
89.93201
20
46.88500
30
93.00000
0
VERTEX
8
31_93000
10
90.04000
20
47.18100
30
93.00000
0
VERTEX
8
31_93000
10
90.29900
20
47.33400
30
93.00000
0
VERTEX
8
31_93000
10
90.36800
20
47.59800
30
93.00000
0
VERTEX
8
31_93000
10
90.56100
20
47.79700
30
93.00000
0
VERTEX
8
31_93000
10
91.10001
20
47.82200
30
93.00000
0
VERTEX
8
31_93000
10
91.21700
20
47.83400
30
93.00000
0
VERTEX
8
31_93000
10
91.24400
20
47.85900
30
93.00000
0
VERTEX
8
31_93000
10
91.28400
20
47.84100
30
93.00000
0
VERTEX
8
31_93000
10
91.32401
20
47.85900
30
93.00000
0
VERTEX
8
31_93000
10
92.01401
20
48.48500
30
93.00000
0
VERTEX
8
31_93000
10
92.16500
20
48.53100
30
93.00000
0
VERTEX
8
31_93000
10
92.31001
20
48.54800
30
93.00000
0
VERTEX
8
31_93000
10
92.63600
20
48.90600
30
93.00000
0
VERTEX
8
31_93000
10
92.78600
20
48.97100
30
93.00000
0
VERTEX
8
31_93000
10
92.97301
20
49.19500
30
93.00000
0
VERTEX
8
31_93000
10
93.03700
20
49.30500
30
93.00000
0
VERTEX
8
31_93000
10
93.04601
20
49.39100
30
93.00000
0
VERTEX
8
31_93000
10
93.13400
20
49.60100
30
93.00000
0
VERTEX
8
31_93000
10
93.35300
20
50.80600
30
93.00000
0
VERTEX
8
31_93000
10
93.11800
20
52.07200
30
93.00000
0
VERTEX
8
31_93000
10
93.20000
20
52.37500
30
93.00000
0
VERTEX
8
31_93000
10
93.07700
20
52.87200
30
93.00000
0
VERTEX
8
31_93000
10
92.94401
20
53.26400
30
93.00000
0
VERTEX
8
31_93000
10
92.85300
20
53.67500
30
93.00000
0
VERTEX
8
31_93000
10
92.86000
20
53.96000
30
93.00000
0
VERTEX
8
31_93000
10
93.17900
20
55.18100
30
93.00000
0
VERTEX
8
31_93000
10
93.26401
20
55.45000
30
93.00000
0
VERTEX
8
31_93000
10
93.76301
20
56.62700
30
93.00000
0
VERTEX
8
31_93000
10
93.93201
20
57.09200
30
93.00000
0
VERTEX
8
31_93000
10
94.02000
20
57.63400
30
93.00000
0
VERTEX
8
31_93000
10
94.04501
20
58.03000
30
93.00000
0
VERTEX
8
31_93000
10
94.04301
20
59.41100
30
93.00000
0
VERTEX
8
31_93000
10
93.99400
20
60.32400
30
93.00000
0
VERTEX
8
31_93000
10
94.00800
20
60.51700
30
93.00000
0
VERTEX
8
31_93000
10
93.84300
20
61.19200
30
93.00000
0
VERTEX
8
31_93000
10
93.13600
20
63.29900
30
93.00000
0
VERTEX
8
31_93000
10
92.95200
20
63.77400
30
93.00000
0
VERTEX
8
31_93000
10
92.59000
20
64.27100
30
93.00000
0
VERTEX
8
31_93000
10
91.34200
20
65.55701
30
93.00000
0
VERTEX
8
31_93000
10
91.19401
20
65.69400
30
93.00000
0
VERTEX
8
31_93000
10
90.98901
20
65.93800
30
93.00000
0
VERTEX
8
31_93000
10
90.02100
20
66.67800
30
93.00000
0
VERTEX
8
31_93000
10
89.92101
20
66.73000
30
93.00000
0
VERTEX
8
31_93000
10
89.13600
20
67.19200
30
93.00000
0
VERTEX
8
31_93000
10
88.37801
20
67.35101
30
93.00000
0
VERTEX
8
31_93000
10
87.95700
20
67.49001
30
93.00000
0
VERTEX
8
31_93000
10
86.40200
20
67.66600
30
93.00000
0
VERTEX
8
31_93000
10
85.04301
20
67.76601
30
93.00000
0
VERTEX
8
31_93000
10
83.60001
20
67.73400
30
93.00000
0
VERTEX
8
31_93000
10
82.83900
20
67.78700
30
93.00000
0
VERTEX
8
31_93000
10
82.31500
20
67.91000
30
93.00000
0
VERTEX
8
31_93000
10
82.06800
20
67.93201
30
93.00000
0
VERTEX
8
31_93000
10
81.37501
20
68.22401
30
93.00000
0
VERTEX
8
31_93000
10
81.42001
20
68.36200
30
93.00000
0
VERTEX
8
31_93000
10
81.31900
20
68.57000
30
93.00000
0
VERTEX
8
31_93000
10
81.55500
20
68.71001
30
93.00000
0
VERTEX
8
31_93000
10
81.82500
20
68.70200
30
93.00000
0
VERTEX
8
31_93000
10
82.92400
20
69.02700
30
93.00000
0
VERTEX
8
31_93000
10
83.10201
20
69.02600
30
93.00000
0
VERTEX
8
31_93000
10
83.74700
20
69.10101
30
93.00000
0
VERTEX
8
31_93000
10
83.92101
20
69.09700
30
93.00000
0
VERTEX
8
31_93000
10
86.24500
20
69.29700
30
93.00000
0
VERTEX
8
31_93000
10
87.72000
20
69.55100
30
93.00000
0
VERTEX
8
31_93000
10
90.27300
20
69.96201
30
93.00000
0
VERTEX
8
31_93000
10
90.63000
20
70.08501
30
93.00000
0
VERTEX
8
31_93000
10
92.29900
20
70.62601
30
93.00000
0
VERTEX
8
31_93000
10
92.44901
20
70.69901
30
93.00000
0
VERTEX
8
31_93000
10
94.14101
20
71.76601
30
93.00000
0
VERTEX
8
31_93000
10
94.44501
20
71.98901
30
93.00000
0
VERTEX
8
31_93000
10
94.51801
20
72.05100
30
93.00000
0
VERTEX
8
31_93000
10
95.08801
20
72.60101
30
93.00000
0
VERTEX
8
31_93000
10
96.23100
20
73.94100
30
93.00000
0
VERTEX
8
31_93000
10
96.40900
20
74.18600
30
93.00000
0
VERTEX
8
31_93000
10
96.69200
20
74.41600
30
93.00000
0
VERTEX
8
31_93000
10
97.09701
20
74.83501
30
93.00000
0
VERTEX
8
31_93000
10
97.76401
20
75.98000
30
93.00000
0
VERTEX
8
31_93000
10
98.04501
20
76.13200
30
93.00000
0
VERTEX
8
31_93000
10
98.07001
20
76.17500
30
93.00000
0
VERTEX
8
31_93000
10
98.13700
20
76.23801
30
93.00000
0
VERTEX
8
31_93000
10
98.19501
20
76.34100
30
93.00000
0
VERTEX
8
31_93000
10
98.79601
20
78.19701
30
93.00000
0
VERTEX
8
31_93000
10
98.81100
20
78.26601
30
93.00000
0
VERTEX
8
31_93000
10
98.79900
20
78.36600
30
93.00000
0
VERTEX
8
31_93000
10
99.10800
20
79.33000
30
93.00000
0
VERTEX
8
31_93000
10
99.22401
20
79.79201
30
93.00000
0
VERTEX
8
31_93000
10
99.32500
20
80.33200
30
93.00000
0
VERTEX
8
31_93000
10
99.49800
20
81.09700
30
93.00000
0
VERTEX
8
31_93000
10
99.48400
20
81.29900
30
93.00000
0
VERTEX
8
31_93000
10
99.44200
20
81.57800
30
93.00000
0
VERTEX
8
31_93000
10
99.47101
20
81.99800
30
93.00000
0
VERTEX
8
31_93000
10
99.50500
20
82.98901
30
93.00000
0
VERTEX
8
31_93000
10
99.35201
20
83.56700
30
93.00000
0
VERTEX
8
31_93000
10
99.36101
20
83.80300
30
93.00000
0
VERTEX
8
31_93000
10
99.15301
20
84.38800
30
93.00000
0
VERTEX
8
31_93000
10
99.01601
20
84.91400
30
93.00000
0
VERTEX
8
31_93000
10
98.90601
20
86.43301
30
93.00000
0
VERTEX
8
31_93000
10
98.84200
20
86.59100
30
93.00000
0
VERTEX
8
31_93000
10
98.84000
20
86.72000
30
93.00000
0
VERTEX
8
31_93000
10
98.86301
20
86.86301
30
93.00000
0
VERTEX
8
31_93000
10
98.71900
20
87.53400
30
93.00000
0
VERTEX
8
31_93000
10
98.63901
20
88.00600
30
93.00000
0
VERTEX
8
31_93000
10
98.57600
20
88.24400
30
93.00000
0
VERTEX
8
31_93000
10
98.51701
20
88.40401
30
93.00000
0
VERTEX
8
31_93000
10
98.49400
20
88.51900
30
93.00000
0
VERTEX
8
31_93000
10
98.26701
20
89.21400
30
93.00000
0
VERTEX
8
31_93000
10
98.04301
20
90.37400
30
93.00000
0
VERTEX
8
31_93000
10
97.88200
20
90.94501
30
93.00000
0
VERTEX
8
31_93000
10
97.85700
20
91.10900
30
93.00000
0
VERTEX
8
31_93000
10
97.82900
20
91.22900
30
93.00000
0
VERTEX
8
31_93000
10
97.84100
20
91.66400
30
93.00000
0
VERTEX
8
31_93000
10
97.96600
20
92.11600
30
93.00000
0
VERTEX
8
31_93000
10
97.98901
20
92.57800
30
93.00000
0
VERTEX
8
31_93000
10
98.00800
20
92.63300
30
93.00000
0
VERTEX
8
31_93000
10
98.16000
20
93.34901
30
93.00000
0
VERTEX
8
31_93000
10
98.22201
20
93.74800
30
93.00000
0
VERTEX
8
31_93000
10
98.42500
20
94.41901
30
93.00000
0
VERTEX
8
31_93000
10
98.48801
20
94.80100
30
93.00000
0
VERTEX
8
31_93000
10
99.07101
20
96.03800
30
93.00000
0
VERTEX
8
31_93000
10
99.41601
20
96.62801
30
93.00000
0
VERTEX
8
31_93000
10
99.71900
20
96.94300
30
93.00000
0
VERTEX
8
31_93000
10
100.07001
20
97.13801
30
93.00000
0
VERTEX
8
31_93000
10
100.28800
20
97.35001
30
93.00000
0
VERTEX
8
31_93000
10
100.35600
20
97.43001
30
93.00000
0
VERTEX
8
31_93000
10
101.42200
20
98.15100
30
93.00000
0
VERTEX
8
31_93000
10
101.67800
20
98.40000
30
93.00000
0
VERTEX
8
31_93000
10
102.23300
20
98.90601
30
93.00000
0
VERTEX
8
31_93000
10
102.48601
20
99.18800
30
93.00000
0
VERTEX
8
31_93000
10
102.88400
20
99.76701
30
93.00000
0
VERTEX
8
31_93000
10
103.22800
20
100.42300
30
93.00000
0
VERTEX
8
31_93000
10
103.35700
20
100.71001
30
93.00000
0
VERTEX
8
31_93000
10
103.62000
20
101.24100
30
93.00000
0
VERTEX
8
31_93000
10
103.76601
20
101.63400
30
93.00000
0
VERTEX
8
31_93000
10
104.00500
20
102.22301
30
93.00000
0
VERTEX
8
31_93000
10
104.22701
20
103.01501
30
93.00000
0
VERTEX
8
31_93000
10
104.26801
20
103.26301
30
93.00000
0
VERTEX
8
31_93000
10
104.39900
20
103.78500
30
93.00000
0
VERTEX
8
31_93000
10
104.46201
20
104.29301
30
93.00000
0
VERTEX
8
31_93000
10
104.51000
20
105.75900
30
93.00000
0
VERTEX
8
31_93000
10
104.21600
20
107.88600
30
93.00000
0
VERTEX
8
31_93000
10
103.86401
20
109.17700
30
93.00000
0
VERTEX
8
31_93000
10
103.69601
20
109.72001
30
93.00000
0
VERTEX
8
31_93000
10
103.61600
20
110.01401
30
93.00000
0
VERTEX
8
31_93000
10
102.93501
20
112.31901
30
93.00000
0
VERTEX
8
31_93000
10
102.71201
20
113.23000
30
93.00000
0
VERTEX
8
31_93000
10
102.30200
20
115.13000
30
93.00000
0
VERTEX
8
31_93000
10
101.91801
20
116.60500
30
93.00000
0
VERTEX
8
31_93000
10
101.81300
20
117.04401
30
93.00000
0
VERTEX
8
31_93000
10
101.43301
20
118.31300
30
93.00000
0
VERTEX
8
31_93000
10
101.29201
20
118.81400
30
93.00000
0
VERTEX
8
31_93000
10
101.08501
20
119.27601
30
93.00000
0
VERTEX
8
31_93000
10
100.90000
20
119.79101
30
93.00000
0
VERTEX
8
31_93000
10
100.31001
20
121.03901
30
93.00000
0
VERTEX
8
31_93000
10
99.63400
20
122.32900
30
93.00000
0
VERTEX
8
31_93000
10
99.35500
20
122.78801
30
93.00000
0
VERTEX
8
31_93000
10
98.64600
20
124.09100
30
93.00000
0
VERTEX
8
31_93000
10
97.93001
20
125.65900
30
93.00000
0
VERTEX
8
31_93000
10
97.36700
20
126.94201
30
93.00000
0
VERTEX
8
31_93000
10
97.21400
20
127.30701
30
93.00000
0
VERTEX
8
31_93000
10
96.86101
20
128.24001
30
93.00000
0
VERTEX
8
31_93000
10
96.46700
20
129.45801
30
93.00000
0
VERTEX
8
31_93000
10
95.52100
20
133.02200
30
93.00000
0
VERTEX
8
31_93000
10
95.39900
20
133.55701
30
93.00000
0
VERTEX
8
31_93000
10
95.16200
20
134.73801
30
93.00000
0
VERTEX
8
31_93000
10
94.35500
20
138.53601
30
93.00000
0
VERTEX
8
31_93000
10
94.12501
20
139.77400
30
93.00000
0
VERTEX
8
31_93000
10
93.98901
20
140.76300
30
93.00000
0
VERTEX
8
31_93000
10
93.96800
20
141.02701
30
93.00000
0
VERTEX
8
31_93000
10
93.75900
20
142.60101
30
93.00000
0
VERTEX
8
31_93000
10
93.74600
20
143.37300
30
93.00000
0
VERTEX
8
31_93000
10
93.65100
20
144.99800
30
93.00000
0
VERTEX
8
31_93000
10
93.77100
20
145.99501
30
93.00000
0
VERTEX
8
31_93000
10
93.94100
20
147.25101
30
93.00000
0
VERTEX
8
31_93000
10
93.93101
20
147.83701
30
93.00000
0
VERTEX
8
31_93000
10
93.96201
20
148.24400
30
93.00000
0
VERTEX
8
31_93000
10
94.44901
20
150.29901
30
93.00000
0
VERTEX
8
31_93000
10
94.51000
20
150.47301
30
93.00000
0
VERTEX
8
31_93000
10
94.84200
20
151.80701
30
93.00000
0
VERTEX
8
31_93000
10
95.31001
20
152.70500
30
93.00000
0
VERTEX
8
31_93000
10
95.41200
20
152.98701
30
93.00000
0
VERTEX
8
31_93000
10
95.67800
20
153.35101
30
93.00000
0
VERTEX
8
31_93000
10
96.08301
20
153.81201
30
93.00000
0
VERTEX
8
31_93000
10
96.41901
20
154.27000
30
93.00000
0
VERTEX
8
31_93000
10
97.02901
20
154.82701
30
93.00000
0
VERTEX
8
31_93000
10
97.10800
20
154.92801
30
93.00000
0
VERTEX
8
31_93000
10
97.64400
20
155.20300
30
93.00000
0
VERTEX
8
31_93000
10
98.04301
20
155.43600
30
93.00000
0
VERTEX
8
31_93000
10
98.52500
20
155.65001
30
93.00000
0
VERTEX
8
31_93000
10
99.27400
20
156.03101
30
93.00000
0
VERTEX
8
31_93000
10
102.50001
20
157.26100
30
93.00000
0
VERTEX
8
31_93000
10
103.27901
20
157.63600
30
93.00000
0
VERTEX
8
31_93000
10
104.18101
20
157.81401
30
93.00000
0
VERTEX
8
31_93000
10
104.94401
20
158.03801
30
93.00000
0
VERTEX
8
31_93000
10
107.53400
20
158.84300
30
93.00000
0
VERTEX
8
31_93000
10
108.89301
20
159.01801
30
93.00000
0
VERTEX
8
31_93000
10
109.43401
20
159.12701
30
93.00000
0
VERTEX
8
31_93000
10
111.18700
20
159.53500
30
93.00000
0
VERTEX
8
31_93000
10
111.43201
20
159.55901
30
93.00000
0
VERTEX
8
31_93000
10
111.77500
20
159.62701
30
93.00000
0
VERTEX
8
31_93000
10
113.37301
20
160.18401
30
93.00000
0
VERTEX
8
31_93000
10
113.60800
20
160.21001
30
93.00000
0
VERTEX
8
31_93000
10
114.60001
20
160.66200
30
93.00000
0
VERTEX
8
31_93000
10
115.56400
20
161.16701
30
93.00000
0
VERTEX
8
31_93000
10
116.36600
20
161.54501
30
93.00000
0
VERTEX
8
31_93000
10
117.59200
20
162.36000
30
93.00000
0
VERTEX
8
31_93000
10
117.74600
20
162.50900
30
93.00000
0
VERTEX
8
31_93000
10
118.31600
20
163.28801
30
93.00000
0
VERTEX
8
31_93000
10
118.61201
20
163.82701
30
93.00000
0
VERTEX
8
31_93000
10
118.87901
20
164.88701
30
93.00000
0
VERTEX
8
31_93000
10
118.67300
20
165.38600
30
93.00000
0
VERTEX
8
31_93000
10
118.67300
20
165.55501
30
93.00000
0
VERTEX
8
31_93000
10
118.42801
20
166.33701
30
93.00000
0
VERTEX
8
31_93000
10
118.36401
20
166.48701
30
93.00000
0
VERTEX
8
31_93000
10
118.09000
20
166.97501
30
93.00000
0
VERTEX
8
31_93000
10
117.52701
20
167.49600
30
93.00000
0
VERTEX
8
31_93000
10
115.30801
20
169.96800
30
93.00000
0
VERTEX
8
31_93000
10
114.61401
20
170.67401
30
93.00000
0
VERTEX
8
31_93000
10
114.12200
20
171.16101
30
93.00000
0
VERTEX
8
31_93000
10
113.08601
20
171.95401
30
93.00000
0
VERTEX
8
31_93000
10
110.78400
20
173.56700
30
93.00000
0
VERTEX
8
31_93000
10
110.52400
20
173.72900
30
93.00000
0
VERTEX
8
31_93000
10
108.57700
20
174.60301
30
93.00000
0
VERTEX
8
31_93000
10
107.62701
20
175.20601
30
93.00000
0
VERTEX
8
31_93000
10
105.46800
20
176.44402
30
93.00000
0
VERTEX
8
31_93000
10
104.71001
20
176.79301
30
93.00000
0
VERTEX
8
31_93000
10
102.63600
20
177.69601
30
93.00000
0
VERTEX
8
31_93000
10
102.21700
20
177.78300
30
93.00000
0
VERTEX
8
31_93000
10
99.96600
20
177.79001
30
93.00000
0
VERTEX
8
31_93000
10
99.47701
20
177.48901
30
93.00000
0
VERTEX
8
31_93000
10
98.33501
20
177.07701
30
93.00000
0
VERTEX
8
31_93000
10
97.73000
20
176.77600
30
93.00000
0
VERTEX
8
31_93000
10
97.02801
20
176.46201
30
93.00000
0
VERTEX
8
31_93000
10
94.95801
20
175.38802
30
93.00000
0
VERTEX
8
31_93000
10
94.61401
20
175.27400
30
93.00000
0
VERTEX
8
31_93000
10
93.77801
20
175.12100
30
93.00000
0
VERTEX
8
31_93000
10
93.61301
20
175.07301
30
93.00000
0
VERTEX
8
31_93000
10
91.99100
20
174.85600
30
93.00000
0
VERTEX
8
31_93000
10
90.42101
20
174.99701
30
93.00000
0
VERTEX
8
31_93000
10
89.47900
20
174.97701
30
93.00000
0
VERTEX
8
31_93000
10
88.91901
20
175.00401
30
93.00000
0
VERTEX
8
31_93000
10
88.58000
20
175.12401
30
93.00000
0
VERTEX
8
31_93000
10
88.28300
20
175.20001
30
93.00000
0
VERTEX
8
31_93000
10
86.55500
20
175.90501
30
93.00000
0
VERTEX
8
31_93000
10
85.83000
20
176.52701
30
93.00000
0
VERTEX
8
31_93000
10
85.64201
20
176.70601
30
93.00000
0
VERTEX
8
31_93000
10
85.28800
20
176.99200
30
93.00000
0
VERTEX
8
31_93000
10
84.84100
20
177.78700
30
93.00000
0
VERTEX
8
31_93000
10
77.39400
20
177.78401
30
93.00000
0
SEQEND
8
31_93000
0
ENDSEC
0
EOF
