0
SECTION
2
HEADER
9
$ACADVER
1
AC1009
0
ENDSEC
0
SECTION
2
TABLES
0
TABLE
2
LAYER
70
1
0
LAYER
2
26_78000
70
0
62
7
6
CONTINUOUS
0
ENDTAB
0
ENDSEC
0
SECTION
2
BLOCKS
0
ENDSEC
0
SECTION
2
ENTITIES
0
POLYLINE
8
26_78000
62
5
0
VERTEX
8
26_78000
10
130.55901
20
180.28801
30
78.00000
0
VERTEX
8
26_78000
10
96.63801
20
180.28801
30
78.00000
0
VERTEX
8
26_78000
10
96.51301
20
180.29501
30
78.00000
0
VERTEX
8
26_78000
10
96.30000
20
180.28700
30
78.00000
0
VERTEX
8
26_78000
10
88.82500
20
180.28601
30
78.00000
0
VERTEX
8
26_78000
10
49.12500
20
180.28900
30
78.00000
0
VERTEX
8
26_78000
10
39.90200
20
180.02400
30
78.00000
0
VERTEX
8
26_78000
10
49.11200
20
180.29102
30
78.00000
0
VERTEX
8
26_78000
10
37.91800
20
180.28900
30
78.00000
0
VERTEX
8
26_78000
10
37.36300
20
179.25601
30
78.00000
0
VERTEX
8
26_78000
10
37.12300
20
178.75700
30
78.00000
0
VERTEX
8
26_78000
10
36.78300
20
178.11201
30
78.00000
0
VERTEX
8
26_78000
10
35.86900
20
175.97501
30
78.00000
0
VERTEX
8
26_78000
10
35.66800
20
175.58801
30
78.00000
0
VERTEX
8
26_78000
10
35.31300
20
174.45300
30
78.00000
0
VERTEX
8
26_78000
10
34.99400
20
173.57501
30
78.00000
0
VERTEX
8
26_78000
10
34.52100
20
171.78401
30
78.00000
0
VERTEX
8
26_78000
10
34.29600
20
170.97401
30
78.00000
0
VERTEX
8
26_78000
10
34.18000
20
170.37401
30
78.00000
0
VERTEX
8
26_78000
10
34.04200
20
169.54901
30
78.00000
0
VERTEX
8
26_78000
10
33.89000
20
168.30801
30
78.00000
0
VERTEX
8
26_78000
10
33.99600
20
164.79701
30
78.00000
0
VERTEX
8
26_78000
10
34.03800
20
164.25301
30
78.00000
0
VERTEX
8
26_78000
10
34.26000
20
162.74001
30
78.00000
0
VERTEX
8
26_78000
10
34.34300
20
162.22701
30
78.00000
0
VERTEX
8
26_78000
10
34.35900
20
161.97601
30
78.00000
0
VERTEX
8
26_78000
10
34.55400
20
160.20401
30
78.00000
0
VERTEX
8
26_78000
10
34.67100
20
159.49200
30
78.00000
0
VERTEX
8
26_78000
10
34.75200
20
157.33701
30
78.00000
0
VERTEX
8
26_78000
10
34.86600
20
156.40201
30
78.00000
0
VERTEX
8
26_78000
10
34.88900
20
155.60501
30
78.00000
0
VERTEX
8
26_78000
10
34.94900
20
155.26100
30
78.00000
0
VERTEX
8
26_78000
10
34.97600
20
154.94301
30
78.00000
0
VERTEX
8
26_78000
10
35.14800
20
153.65100
30
78.00000
0
VERTEX
8
26_78000
10
35.36300
20
152.48001
30
78.00000
0
VERTEX
8
26_78000
10
35.50000
20
151.84001
30
78.00000
0
VERTEX
8
26_78000
10
35.66400
20
151.31401
30
78.00000
0
VERTEX
8
26_78000
10
35.91200
20
150.79100
30
78.00000
0
VERTEX
8
26_78000
10
36.06300
20
150.40601
30
78.00000
0
VERTEX
8
26_78000
10
36.12700
20
150.29901
30
78.00000
0
VERTEX
8
26_78000
10
36.54800
20
149.74101
30
78.00000
0
VERTEX
8
26_78000
10
37.06400
20
149.24600
30
78.00000
0
VERTEX
8
26_78000
10
37.70200
20
148.77501
30
78.00000
0
VERTEX
8
26_78000
10
37.72600
20
148.74600
30
78.00000
0
VERTEX
8
26_78000
10
38.54500
20
147.19501
30
78.00000
0
VERTEX
8
26_78000
10
38.93000
20
146.50601
30
78.00000
0
VERTEX
8
26_78000
10
39.06100
20
146.34601
30
78.00000
0
VERTEX
8
26_78000
10
39.15400
20
146.27501
30
78.00000
0
VERTEX
8
26_78000
10
39.31900
20
145.87701
30
78.00000
0
VERTEX
8
26_78000
10
39.42200
20
145.78001
30
78.00000
0
VERTEX
8
26_78000
10
39.61400
20
144.76401
30
78.00000
0
VERTEX
8
26_78000
10
39.63600
20
144.55301
30
78.00000
0
VERTEX
8
26_78000
10
40.60100
20
137.58601
30
78.00000
0
VERTEX
8
26_78000
10
40.64100
20
137.35301
30
78.00000
0
VERTEX
8
26_78000
10
40.90900
20
136.07100
30
78.00000
0
VERTEX
8
26_78000
10
41.49900
20
134.14301
30
78.00000
0
VERTEX
8
26_78000
10
41.77400
20
133.19801
30
78.00000
0
VERTEX
8
26_78000
10
42.07300
20
131.97801
30
78.00000
0
VERTEX
8
26_78000
10
42.07300
20
131.84700
30
78.00000
0
VERTEX
8
26_78000
10
42.21700
20
130.18100
30
78.00000
0
VERTEX
8
26_78000
10
42.36300
20
129.41600
30
78.00000
0
VERTEX
8
26_78000
10
42.42200
20
128.95900
30
78.00000
0
VERTEX
8
26_78000
10
42.47300
20
127.87601
30
78.00000
0
VERTEX
8
26_78000
10
42.40300
20
127.44801
30
78.00000
0
VERTEX
8
26_78000
10
42.35300
20
126.85700
30
78.00000
0
VERTEX
8
26_78000
10
42.16400
20
126.36501
30
78.00000
0
VERTEX
8
26_78000
10
41.97400
20
125.53101
30
78.00000
0
VERTEX
8
26_78000
10
41.27400
20
123.73601
30
78.00000
0
VERTEX
8
26_78000
10
40.99800
20
122.95701
30
78.00000
0
VERTEX
8
26_78000
10
40.73400
20
122.18201
30
78.00000
0
VERTEX
8
26_78000
10
40.60700
20
121.73801
30
78.00000
0
VERTEX
8
26_78000
10
40.15500
20
119.84000
30
78.00000
0
VERTEX
8
26_78000
10
39.85200
20
118.78201
30
78.00000
0
VERTEX
8
26_78000
10
39.15200
20
116.19501
30
78.00000
0
VERTEX
8
26_78000
10
38.87600
20
115.47101
30
78.00000
0
VERTEX
8
26_78000
10
38.61400
20
114.69301
30
78.00000
0
VERTEX
8
26_78000
10
38.22300
20
113.66901
30
78.00000
0
VERTEX
8
26_78000
10
37.23700
20
110.72201
30
78.00000
0
VERTEX
8
26_78000
10
36.70700
20
109.20701
30
78.00000
0
VERTEX
8
26_78000
10
35.94500
20
106.67800
30
78.00000
0
VERTEX
8
26_78000
10
35.81700
20
106.09601
30
78.00000
0
VERTEX
8
26_78000
10
35.40200
20
103.89301
30
78.00000
0
VERTEX
8
26_78000
10
35.28800
20
103.37501
30
78.00000
0
VERTEX
8
26_78000
10
35.02100
20
101.67500
30
78.00000
0
VERTEX
8
26_78000
10
34.75200
20
99.20600
30
78.00000
0
VERTEX
8
26_78000
10
34.59300
20
97.16801
30
78.00000
0
VERTEX
8
26_78000
10
34.64500
20
95.99700
30
78.00000
0
VERTEX
8
26_78000
10
34.72700
20
92.97301
30
78.00000
0
VERTEX
8
26_78000
10
34.80300
20
92.41801
30
78.00000
0
VERTEX
8
26_78000
10
34.96100
20
91.57101
30
78.00000
0
VERTEX
8
26_78000
10
35.58300
20
88.69000
30
78.00000
0
VERTEX
8
26_78000
10
35.77200
20
88.15601
30
78.00000
0
VERTEX
8
26_78000
10
36.62700
20
85.85500
30
78.00000
0
VERTEX
8
26_78000
10
37.01000
20
84.90701
30
78.00000
0
VERTEX
8
26_78000
10
37.03200
20
84.86501
30
78.00000
0
VERTEX
8
26_78000
10
38.18700
20
83.29100
30
78.00000
0
VERTEX
8
26_78000
10
39.08000
20
81.82101
30
78.00000
0
VERTEX
8
26_78000
10
39.88100
20
80.26000
30
78.00000
0
VERTEX
8
26_78000
10
40.35100
20
79.45300
30
78.00000
0
VERTEX
8
26_78000
10
40.51700
20
79.11000
30
78.00000
0
VERTEX
8
26_78000
10
40.78200
20
78.40601
30
78.00000
0
VERTEX
8
26_78000
10
41.04000
20
78.10600
30
78.00000
0
VERTEX
8
26_78000
10
41.50500
20
77.31900
30
78.00000
0
VERTEX
8
26_78000
10
42.11500
20
76.61900
30
78.00000
0
VERTEX
8
26_78000
10
42.39900
20
76.18101
30
78.00000
0
VERTEX
8
26_78000
10
42.57000
20
75.77100
30
78.00000
0
VERTEX
8
26_78000
10
42.87900
20
74.78500
30
78.00000
0
VERTEX
8
26_78000
10
43.05700
20
73.97701
30
78.00000
0
VERTEX
8
26_78000
10
43.29800
20
73.55400
30
78.00000
0
VERTEX
8
26_78000
10
44.07600
20
72.27000
30
78.00000
0
VERTEX
8
26_78000
10
44.17200
20
72.04000
30
78.00000
0
VERTEX
8
26_78000
10
44.89600
20
71.18501
30
78.00000
0
VERTEX
8
26_78000
10
45.13000
20
71.00401
30
78.00000
0
VERTEX
8
26_78000
10
45.16200
20
70.88900
30
78.00000
0
VERTEX
8
26_78000
10
45.18400
20
70.87901
30
78.00000
0
VERTEX
8
26_78000
10
45.21800
20
70.80100
30
78.00000
0
VERTEX
8
26_78000
10
44.95400
20
70.46400
30
78.00000
0
VERTEX
8
26_78000
10
45.17900
20
69.94701
30
78.00000
0
VERTEX
8
26_78000
10
45.28800
20
69.60900
30
78.00000
0
VERTEX
8
26_78000
10
45.02100
20
69.01900
30
78.00000
0
VERTEX
8
26_78000
10
44.92000
20
68.46500
30
78.00000
0
VERTEX
8
26_78000
10
44.94600
20
67.76501
30
78.00000
0
VERTEX
8
26_78000
10
44.73700
20
67.66500
30
78.00000
0
VERTEX
8
26_78000
10
44.40200
20
67.10300
30
78.00000
0
VERTEX
8
26_78000
10
43.84300
20
66.37200
30
78.00000
0
VERTEX
8
26_78000
10
44.07800
20
64.97701
30
78.00000
0
VERTEX
8
26_78000
10
44.21900
20
64.76000
30
78.00000
0
VERTEX
8
26_78000
10
44.77900
20
64.32401
30
78.00000
0
VERTEX
8
26_78000
10
45.06000
20
64.47000
30
78.00000
0
VERTEX
8
26_78000
10
45.19400
20
64.45700
30
78.00000
0
VERTEX
8
26_78000
10
45.28600
20
64.40601
30
78.00000
0
VERTEX
8
26_78000
10
45.21800
20
64.23600
30
78.00000
0
VERTEX
8
26_78000
10
44.99500
20
63.85200
30
78.00000
0
VERTEX
8
26_78000
10
44.85700
20
63.48200
30
78.00000
0
VERTEX
8
26_78000
10
44.75300
20
62.77200
30
78.00000
0
VERTEX
8
26_78000
10
44.65800
20
61.79800
30
78.00000
0
VERTEX
8
26_78000
10
44.28700
20
61.07600
30
78.00000
0
VERTEX
8
26_78000
10
44.28800
20
60.86100
30
78.00000
0
VERTEX
8
26_78000
10
44.20900
20
60.80500
30
78.00000
0
VERTEX
8
26_78000
10
44.17700
20
60.52400
30
78.00000
0
VERTEX
8
26_78000
10
44.03400
20
60.05500
30
78.00000
0
VERTEX
8
26_78000
10
44.01700
20
60.02200
30
78.00000
0
VERTEX
8
26_78000
10
44.02600
20
59.86200
30
78.00000
0
VERTEX
8
26_78000
10
44.13600
20
59.75000
30
78.00000
0
VERTEX
8
26_78000
10
44.68000
20
59.06300
30
78.00000
0
VERTEX
8
26_78000
10
45.01500
20
59.15100
30
78.00000
0
VERTEX
8
26_78000
10
45.08800
20
59.09100
30
78.00000
0
VERTEX
8
26_78000
10
45.13200
20
59.03100
30
78.00000
0
VERTEX
8
26_78000
10
45.48300
20
58.91100
30
78.00000
0
VERTEX
8
26_78000
10
45.65700
20
58.73000
30
78.00000
0
VERTEX
8
26_78000
10
45.61200
20
58.50400
30
78.00000
0
VERTEX
8
26_78000
10
46.01600
20
58.05500
30
78.00000
0
VERTEX
8
26_78000
10
46.16400
20
57.80800
30
78.00000
0
VERTEX
8
26_78000
10
46.19100
20
57.62600
30
78.00000
0
VERTEX
8
26_78000
10
46.23800
20
57.07500
30
78.00000
0
VERTEX
8
26_78000
10
46.32000
20
55.31500
30
78.00000
0
VERTEX
8
26_78000
10
46.30500
20
54.91400
30
78.00000
0
VERTEX
8
26_78000
10
46.29300
20
54.79400
30
78.00000
0
VERTEX
8
26_78000
10
46.27900
20
54.24900
30
78.00000
0
VERTEX
8
26_78000
10
46.20900
20
52.96400
30
78.00000
0
VERTEX
8
26_78000
10
46.12900
20
52.43700
30
78.00000
0
VERTEX
8
26_78000
10
46.12900
20
52.39700
30
78.00000
0
VERTEX
8
26_78000
10
46.22100
20
52.16700
30
78.00000
0
VERTEX
8
26_78000
10
46.23000
20
50.98800
30
78.00000
0
VERTEX
8
26_78000
10
46.25600
20
50.66600
30
78.00000
0
VERTEX
8
26_78000
10
46.24100
20
50.22900
30
78.00000
0
VERTEX
8
26_78000
10
46.16600
20
49.88300
30
78.00000
0
VERTEX
8
26_78000
10
46.17300
20
48.71700
30
78.00000
0
VERTEX
8
26_78000
10
46.35800
20
47.89600
30
78.00000
0
VERTEX
8
26_78000
10
46.43600
20
47.12400
30
78.00000
0
VERTEX
8
26_78000
10
46.35900
20
46.81400
30
78.00000
0
VERTEX
8
26_78000
10
46.26400
20
46.27300
30
78.00000
0
VERTEX
8
26_78000
10
46.33300
20
45.34200
30
78.00000
0
VERTEX
8
26_78000
10
46.31800
20
45.08200
30
78.00000
0
VERTEX
8
26_78000
10
46.12100
20
44.10600
30
78.00000
0
VERTEX
8
26_78000
10
46.03200
20
43.74300
30
78.00000
0
VERTEX
8
26_78000
10
46.09700
20
43.10900
30
78.00000
0
VERTEX
8
26_78000
10
46.16100
20
42.81000
30
78.00000
0
VERTEX
8
26_78000
10
46.20000
20
42.41400
30
78.00000
0
VERTEX
8
26_78000
10
46.13800
20
42.02700
30
78.00000
0
VERTEX
8
26_78000
10
45.93300
20
41.22600
30
78.00000
0
VERTEX
8
26_78000
10
45.92200
20
40.98900
30
78.00000
0
VERTEX
8
26_78000
10
45.87500
20
40.67800
30
78.00000
0
VERTEX
8
26_78000
10
45.74300
20
40.13300
30
78.00000
0
VERTEX
8
26_78000
10
45.71300
20
39.77200
30
78.00000
0
VERTEX
8
26_78000
10
45.75900
20
39.05000
30
78.00000
0
VERTEX
8
26_78000
10
45.67500
20
37.76800
30
78.00000
0
VERTEX
8
26_78000
10
45.58700
20
37.44600
30
78.00000
0
VERTEX
8
26_78000
10
45.40100
20
37.20100
30
78.00000
0
VERTEX
8
26_78000
10
45.31800
20
36.75100
30
78.00000
0
VERTEX
8
26_78000
10
45.20800
20
36.34800
30
78.00000
0
VERTEX
8
26_78000
10
45.06700
20
35.57100
30
78.00000
0
VERTEX
8
26_78000
10
45.03100
20
35.54300
30
78.00000
0
VERTEX
8
26_78000
10
44.75900
20
34.84300
30
78.00000
0
VERTEX
8
26_78000
10
44.42900
20
34.35500
30
78.00000
0
VERTEX
8
26_78000
10
44.29700
20
33.96500
30
78.00000
0
VERTEX
8
26_78000
10
44.02200
20
33.29800
30
78.00000
0
VERTEX
8
26_78000
10
43.83700
20
32.64000
30
78.00000
0
VERTEX
8
26_78000
10
43.64000
20
32.10100
30
78.00000
0
VERTEX
8
26_78000
10
43.55200
20
31.83000
30
78.00000
0
VERTEX
8
26_78000
10
43.23500
20
31.39400
30
78.00000
0
VERTEX
8
26_78000
10
42.86300
20
30.82500
30
78.00000
0
VERTEX
8
26_78000
10
42.70200
20
30.61600
30
78.00000
0
VERTEX
8
26_78000
10
42.57800
20
30.18600
30
78.00000
0
VERTEX
8
26_78000
10
42.48000
20
29.98200
30
78.00000
0
VERTEX
8
26_78000
10
41.87500
20
29.05300
30
78.00000
0
VERTEX
8
26_78000
10
41.75600
20
28.63900
30
78.00000
0
VERTEX
8
26_78000
10
41.59400
20
28.30900
30
78.00000
0
VERTEX
8
26_78000
10
41.31000
20
27.61500
30
78.00000
0
VERTEX
8
26_78000
10
41.27800
20
27.42800
30
78.00000
0
VERTEX
8
26_78000
10
41.20500
20
27.13200
30
78.00000
0
VERTEX
8
26_78000
10
41.03100
20
26.05200
30
78.00000
0
VERTEX
8
26_78000
10
40.98900
20
25.94000
30
78.00000
0
VERTEX
8
26_78000
10
40.65700
20
24.58200
30
78.00000
0
VERTEX
8
26_78000
10
40.42700
20
24.24500
30
78.00000
0
VERTEX
8
26_78000
10
40.32900
20
24.07800
30
78.00000
0
VERTEX
8
26_78000
10
40.22100
20
23.98300
30
78.00000
0
VERTEX
8
26_78000
10
39.98700
20
23.64400
30
78.00000
0
VERTEX
8
26_78000
10
39.20800
20
22.76100
30
78.00000
0
VERTEX
8
26_78000
10
39.05300
20
22.44100
30
78.00000
0
VERTEX
8
26_78000
10
38.97500
20
22.32700
30
78.00000
0
VERTEX
8
26_78000
10
38.82200
20
21.71100
30
78.00000
0
VERTEX
8
26_78000
10
38.58500
20
21.50600
30
78.00000
0
VERTEX
8
26_78000
10
38.43200
20
20.87000
30
78.00000
0
VERTEX
8
26_78000
10
38.38900
20
20.16200
30
78.00000
0
VERTEX
8
26_78000
10
38.30900
20
19.36200
30
78.00000
0
VERTEX
8
26_78000
10
38.38800
20
18.70900
30
78.00000
0
VERTEX
8
26_78000
10
38.35800
20
18.44000
30
78.00000
0
VERTEX
8
26_78000
10
38.44400
20
18.13000
30
78.00000
0
VERTEX
8
26_78000
10
38.64200
20
16.18800
30
78.00000
0
VERTEX
8
26_78000
10
38.64600
20
16.02500
30
78.00000
0
VERTEX
8
26_78000
10
38.55200
20
14.52700
30
78.00000
0
VERTEX
8
26_78000
10
38.53700
20
14.39600
30
78.00000
0
VERTEX
8
26_78000
10
38.46600
20
13.01500
30
78.00000
0
VERTEX
8
26_78000
10
38.41700
20
12.96700
30
78.00000
0
VERTEX
8
26_78000
10
37.58800
20
12.51400
30
78.00000
0
VERTEX
8
26_78000
10
37.33300
20
12.44300
30
78.00000
0
VERTEX
8
26_78000
10
34.54200
20
11.95500
30
78.00000
0
VERTEX
8
26_78000
10
33.09000
20
11.85300
30
78.00000
0
VERTEX
8
26_78000
10
31.99700
20
11.79800
30
78.00000
0
VERTEX
8
26_78000
10
31.13500
20
11.79500
30
78.00000
0
VERTEX
8
26_78000
10
30.35000
20
11.85000
30
78.00000
0
VERTEX
8
26_78000
10
28.30300
20
11.92600
30
78.00000
0
VERTEX
8
26_78000
10
27.79200
20
11.90800
30
78.00000
0
VERTEX
8
26_78000
10
23.98600
20
12.10400
30
78.00000
0
VERTEX
8
26_78000
10
23.12400
20
12.23200
30
78.00000
0
VERTEX
8
26_78000
10
22.83600
20
12.25500
30
78.00000
0
VERTEX
8
26_78000
10
20.89200
20
12.51800
30
78.00000
0
VERTEX
8
26_78000
10
19.35600
20
12.71500
30
78.00000
0
VERTEX
8
26_78000
10
16.55300
20
13.01500
30
78.00000
0
VERTEX
8
26_78000
10
16.05900
20
13.05000
30
78.00000
0
VERTEX
8
26_78000
10
15.29100
20
13.18000
30
78.00000
0
VERTEX
8
26_78000
10
14.28200
20
13.31700
30
78.00000
0
VERTEX
8
26_78000
10
12.51700
20
13.58200
30
78.00000
0
VERTEX
8
26_78000
10
12.95400
20
10.00400
30
78.00000
0
VERTEX
8
26_78000
10
13.25200
20
7.47400
30
78.00000
0
VERTEX
8
26_78000
10
13.49900
20
5.32500
30
78.00000
0
VERTEX
8
26_78000
10
13.59200
20
4.43800
30
78.00000
0
VERTEX
8
26_78000
10
13.98300
20
1.06200
30
78.00000
0
VERTEX
8
26_78000
10
14.09200
20
0.00600
30
78.00000
0
VERTEX
8
26_78000
10
97.20100
20
0.00600
30
78.00000
0
VERTEX
8
26_78000
10
97.19100
20
0.15400
30
78.00000
0
VERTEX
8
26_78000
10
97.19000
20
0.74300
30
78.00000
0
VERTEX
8
26_78000
10
97.28001
20
1.00200
30
78.00000
0
VERTEX
8
26_78000
10
97.31700
20
1.13400
30
78.00000
0
VERTEX
8
26_78000
10
97.63500
20
1.49800
30
78.00000
0
VERTEX
8
26_78000
10
98.26601
20
1.83300
30
78.00000
0
VERTEX
8
26_78000
10
98.35001
20
1.88800
30
78.00000
0
VERTEX
8
26_78000
10
99.89900
20
2.56700
30
78.00000
0
VERTEX
8
26_78000
10
101.08401
20
2.99600
30
78.00000
0
VERTEX
8
26_78000
10
101.76301
20
3.30500
30
78.00000
0
VERTEX
8
26_78000
10
102.39600
20
3.60600
30
78.00000
0
VERTEX
8
26_78000
10
102.63901
20
3.74100
30
78.00000
0
VERTEX
8
26_78000
10
102.79900
20
3.80600
30
78.00000
0
VERTEX
8
26_78000
10
102.96600
20
3.91200
30
78.00000
0
VERTEX
8
26_78000
10
103.04900
20
3.97800
30
78.00000
0
VERTEX
8
26_78000
10
104.26000
20
4.74500
30
78.00000
0
VERTEX
8
26_78000
10
104.39400
20
4.85800
30
78.00000
0
VERTEX
8
26_78000
10
104.44601
20
4.87900
30
78.00000
0
VERTEX
8
26_78000
10
106.06200
20
6.05400
30
78.00000
0
VERTEX
8
26_78000
10
106.19901
20
6.13500
30
78.00000
0
VERTEX
8
26_78000
10
106.35101
20
6.27800
30
78.00000
0
VERTEX
8
26_78000
10
106.49700
20
6.36600
30
78.00000
0
VERTEX
8
26_78000
10
107.62801
20
7.40500
30
78.00000
0
VERTEX
8
26_78000
10
108.89201
20
8.69700
30
78.00000
0
VERTEX
8
26_78000
10
109.44401
20
9.30600
30
78.00000
0
VERTEX
8
26_78000
10
109.83201
20
9.78800
30
78.00000
0
VERTEX
8
26_78000
10
110.29900
20
10.30400
30
78.00000
0
VERTEX
8
26_78000
10
110.53400
20
10.62000
30
78.00000
0
VERTEX
8
26_78000
10
110.87301
20
11.24700
30
78.00000
0
VERTEX
8
26_78000
10
111.42101
20
12.31500
30
78.00000
0
VERTEX
8
26_78000
10
111.43301
20
12.34700
30
78.00000
0
VERTEX
8
26_78000
10
111.47301
20
12.77700
30
78.00000
0
VERTEX
8
26_78000
10
112.03001
20
13.81400
30
78.00000
0
VERTEX
8
26_78000
10
112.05200
20
13.83200
30
78.00000
0
VERTEX
8
26_78000
10
112.06100
20
13.87000
30
78.00000
0
VERTEX
8
26_78000
10
112.22800
20
14.24700
30
78.00000
0
VERTEX
8
26_78000
10
112.29900
20
14.43100
30
78.00000
0
VERTEX
8
26_78000
10
112.33900
20
14.73700
30
78.00000
0
VERTEX
8
26_78000
10
112.35901
20
14.95700
30
78.00000
0
VERTEX
8
26_78000
10
112.45601
20
15.00800
30
78.00000
0
VERTEX
8
26_78000
10
112.62100
20
15.21900
30
78.00000
0
VERTEX
8
26_78000
10
112.66801
20
15.36200
30
78.00000
0
VERTEX
8
26_78000
10
112.80901
20
15.42500
30
78.00000
0
VERTEX
8
26_78000
10
112.89001
20
15.53700
30
78.00000
0
VERTEX
8
26_78000
10
112.92200
20
15.61800
30
78.00000
0
VERTEX
8
26_78000
10
113.00001
20
16.36900
30
78.00000
0
VERTEX
8
26_78000
10
113.02000
20
16.88200
30
78.00000
0
VERTEX
8
26_78000
10
113.06200
20
17.07600
30
78.00000
0
VERTEX
8
26_78000
10
113.07600
20
17.19800
30
78.00000
0
VERTEX
8
26_78000
10
113.19601
20
17.54800
30
78.00000
0
VERTEX
8
26_78000
10
113.25700
20
18.16600
30
78.00000
0
VERTEX
8
26_78000
10
113.25800
20
18.46600
30
78.00000
0
VERTEX
8
26_78000
10
113.27501
20
18.58400
30
78.00000
0
VERTEX
8
26_78000
10
113.20701
20
19.24100
30
78.00000
0
VERTEX
8
26_78000
10
113.37000
20
21.14100
30
78.00000
0
VERTEX
8
26_78000
10
113.38200
20
21.98200
30
78.00000
0
VERTEX
8
26_78000
10
113.30901
20
22.95600
30
78.00000
0
VERTEX
8
26_78000
10
113.23100
20
23.73300
30
78.00000
0
VERTEX
8
26_78000
10
113.22800
20
24.17400
30
78.00000
0
VERTEX
8
26_78000
10
113.15900
20
25.24000
30
78.00000
0
VERTEX
8
26_78000
10
113.13000
20
25.57100
30
78.00000
0
VERTEX
8
26_78000
10
113.12901
20
25.69100
30
78.00000
0
VERTEX
8
26_78000
10
113.13600
20
25.71600
30
78.00000
0
VERTEX
8
26_78000
10
113.13200
20
25.77400
30
78.00000
0
VERTEX
8
26_78000
10
113.20901
20
26.77400
30
78.00000
0
VERTEX
8
26_78000
10
113.17500
20
26.96200
30
78.00000
0
VERTEX
8
26_78000
10
113.27100
20
28.14200
30
78.00000
0
VERTEX
8
26_78000
10
113.26601
20
28.18200
30
78.00000
0
VERTEX
8
26_78000
10
113.29601
20
28.67500
30
78.00000
0
VERTEX
8
26_78000
10
113.21700
20
29.68100
30
78.00000
0
VERTEX
8
26_78000
10
113.15800
20
30.09400
30
78.00000
0
VERTEX
8
26_78000
10
113.02701
20
31.15000
30
78.00000
0
VERTEX
8
26_78000
10
113.00401
20
32.02700
30
78.00000
0
VERTEX
8
26_78000
10
112.97601
20
32.17200
30
78.00000
0
VERTEX
8
26_78000
10
113.00001
20
33.27400
30
78.00000
0
VERTEX
8
26_78000
10
112.97601
20
34.07300
30
78.00000
0
VERTEX
8
26_78000
10
112.91100
20
34.35600
30
78.00000
0
VERTEX
8
26_78000
10
112.83601
20
34.60400
30
78.00000
0
VERTEX
8
26_78000
10
112.71201
20
35.44100
30
78.00000
0
VERTEX
8
26_78000
10
112.75900
20
35.78300
30
78.00000
0
VERTEX
8
26_78000
10
112.73901
20
35.83600
30
78.00000
0
VERTEX
8
26_78000
10
112.73901
20
35.94500
30
78.00000
0
VERTEX
8
26_78000
10
112.78201
20
36.41200
30
78.00000
0
VERTEX
8
26_78000
10
113.10001
20
37.18300
30
78.00000
0
VERTEX
8
26_78000
10
113.29900
20
37.31600
30
78.00000
0
VERTEX
8
26_78000
10
113.59701
20
37.60600
30
78.00000
0
VERTEX
8
26_78000
10
113.64201
20
37.83100
30
78.00000
0
VERTEX
8
26_78000
10
114.44901
20
38.50400
30
78.00000
0
VERTEX
8
26_78000
10
114.56600
20
38.59400
30
78.00000
0
VERTEX
8
26_78000
10
114.61001
20
38.66200
30
78.00000
0
VERTEX
8
26_78000
10
114.63601
20
38.75700
30
78.00000
0
VERTEX
8
26_78000
10
114.56300
20
39.29100
30
78.00000
0
VERTEX
8
26_78000
10
114.62501
20
39.77100
30
78.00000
0
VERTEX
8
26_78000
10
114.68700
20
39.92500
30
78.00000
0
VERTEX
8
26_78000
10
114.79601
20
40.13100
30
78.00000
0
VERTEX
8
26_78000
10
114.91200
20
40.52800
30
78.00000
0
VERTEX
8
26_78000
10
115.08801
20
41.21600
30
78.00000
0
VERTEX
8
26_78000
10
115.15800
20
41.92000
30
78.00000
0
VERTEX
8
26_78000
10
115.23401
20
42.07900
30
78.00000
0
VERTEX
8
26_78000
10
115.13500
20
42.53000
30
78.00000
0
VERTEX
8
26_78000
10
115.02901
20
42.90100
30
78.00000
0
VERTEX
8
26_78000
10
115.02901
20
44.58700
30
78.00000
0
VERTEX
8
26_78000
10
115.05200
20
45.11600
30
78.00000
0
VERTEX
8
26_78000
10
115.13500
20
45.71400
30
78.00000
0
VERTEX
8
26_78000
10
115.32201
20
46.42200
30
78.00000
0
VERTEX
8
26_78000
10
115.37301
20
46.79100
30
78.00000
0
VERTEX
8
26_78000
10
115.46600
20
46.99300
30
78.00000
0
VERTEX
8
26_78000
10
115.51401
20
47.45700
30
78.00000
0
VERTEX
8
26_78000
10
115.55601
20
47.71500
30
78.00000
0
VERTEX
8
26_78000
10
115.66300
20
48.72300
30
78.00000
0
VERTEX
8
26_78000
10
115.71301
20
48.85200
30
78.00000
0
VERTEX
8
26_78000
10
115.70000
20
48.89000
30
78.00000
0
VERTEX
8
26_78000
10
115.88300
20
49.32600
30
78.00000
0
VERTEX
8
26_78000
10
116.05200
20
49.43200
30
78.00000
0
VERTEX
8
26_78000
10
116.31500
20
50.08800
30
78.00000
0
VERTEX
8
26_78000
10
116.43201
20
50.12300
30
78.00000
0
VERTEX
8
26_78000
10
116.52501
20
50.31500
30
78.00000
0
VERTEX
8
26_78000
10
117.01701
20
50.78400
30
78.00000
0
VERTEX
8
26_78000
10
117.03300
20
50.88000
30
78.00000
0
VERTEX
8
26_78000
10
117.27000
20
51.36700
30
78.00000
0
VERTEX
8
26_78000
10
117.30901
20
51.50700
30
78.00000
0
VERTEX
8
26_78000
10
117.38300
20
52.03200
30
78.00000
0
VERTEX
8
26_78000
10
117.60201
20
52.10900
30
78.00000
0
VERTEX
8
26_78000
10
117.63000
20
52.41000
30
78.00000
0
VERTEX
8
26_78000
10
117.71901
20
52.23000
30
78.00000
0
VERTEX
8
26_78000
10
117.76900
20
52.30700
30
78.00000
0
VERTEX
8
26_78000
10
118.50700
20
53.67200
30
78.00000
0
VERTEX
8
26_78000
10
118.65301
20
53.73300
30
78.00000
0
VERTEX
8
26_78000
10
118.73200
20
53.89300
30
78.00000
0
VERTEX
8
26_78000
10
118.84000
20
53.92600
30
78.00000
0
VERTEX
8
26_78000
10
118.92901
20
54.21400
30
78.00000
0
VERTEX
8
26_78000
10
119.27601
20
54.91700
30
78.00000
0
VERTEX
8
26_78000
10
119.49500
20
54.88700
30
78.00000
0
VERTEX
8
26_78000
10
119.63200
20
55.13200
30
78.00000
0
VERTEX
8
26_78000
10
119.82401
20
55.74800
30
78.00000
0
VERTEX
8
26_78000
10
119.88000
20
56.01900
30
78.00000
0
VERTEX
8
26_78000
10
119.61101
20
56.80100
30
78.00000
0
VERTEX
8
26_78000
10
119.57600
20
56.97600
30
78.00000
0
VERTEX
8
26_78000
10
119.51900
20
57.57400
30
78.00000
0
VERTEX
8
26_78000
10
119.48601
20
58.37600
30
78.00000
0
VERTEX
8
26_78000
10
119.45100
20
58.54800
30
78.00000
0
VERTEX
8
26_78000
10
119.51101
20
58.97200
30
78.00000
0
VERTEX
8
26_78000
10
119.82101
20
59.45100
30
78.00000
0
VERTEX
8
26_78000
10
119.85600
20
59.55900
30
78.00000
0
VERTEX
8
26_78000
10
120.17500
20
59.88300
30
78.00000
0
VERTEX
8
26_78000
10
120.21800
20
59.99200
30
78.00000
0
VERTEX
8
26_78000
10
120.52100
20
61.25700
30
78.00000
0
VERTEX
8
26_78000
10
120.57500
20
61.35400
30
78.00000
0
VERTEX
8
26_78000
10
120.56001
20
61.43800
30
78.00000
0
VERTEX
8
26_78000
10
120.56300
20
61.50100
30
78.00000
0
VERTEX
8
26_78000
10
119.97800
20
62.84100
30
78.00000
0
VERTEX
8
26_78000
10
119.82201
20
63.15200
30
78.00000
0
VERTEX
8
26_78000
10
119.68201
20
63.17000
30
78.00000
0
VERTEX
8
26_78000
10
119.38300
20
63.42300
30
78.00000
0
VERTEX
8
26_78000
10
119.20801
20
63.73900
30
78.00000
0
VERTEX
8
26_78000
10
119.20701
20
64.14500
30
78.00000
0
VERTEX
8
26_78000
10
119.21901
20
64.27400
30
78.00000
0
VERTEX
8
26_78000
10
119.17500
20
65.13000
30
78.00000
0
VERTEX
8
26_78000
10
119.12100
20
65.64900
30
78.00000
0
VERTEX
8
26_78000
10
119.15701
20
65.85900
30
78.00000
0
VERTEX
8
26_78000
10
119.36301
20
66.10300
30
78.00000
0
VERTEX
8
26_78000
10
119.78901
20
66.55901
30
78.00000
0
VERTEX
8
26_78000
10
120.03001
20
66.63700
30
78.00000
0
VERTEX
8
26_78000
10
120.27200
20
67.00900
30
78.00000
0
VERTEX
8
26_78000
10
120.53700
20
66.98200
30
78.00000
0
VERTEX
8
26_78000
10
120.82301
20
67.62600
30
78.00000
0
VERTEX
8
26_78000
10
120.98901
20
67.93700
30
78.00000
0
VERTEX
8
26_78000
10
121.10700
20
68.05701
30
78.00000
0
VERTEX
8
26_78000
10
121.22301
20
68.29800
30
78.00000
0
VERTEX
8
26_78000
10
121.38701
20
68.49001
30
78.00000
0
VERTEX
8
26_78000
10
122.06001
20
69.01801
30
78.00000
0
VERTEX
8
26_78000
10
122.20601
20
69.16200
30
78.00000
0
VERTEX
8
26_78000
10
122.22601
20
69.22401
30
78.00000
0
VERTEX
8
26_78000
10
122.66901
20
69.44400
30
78.00000
0
VERTEX
8
26_78000
10
122.69401
20
69.80500
30
78.00000
0
VERTEX
8
26_78000
10
122.71500
20
70.82401
30
78.00000
0
VERTEX
8
26_78000
10
122.78801
20
71.12601
30
78.00000
0
VERTEX
8
26_78000
10
123.25401
20
71.70400
30
78.00000
0
VERTEX
8
26_78000
10
123.68001
20
72.99100
30
78.00000
0
VERTEX
8
26_78000
10
123.86101
20
73.42101
30
78.00000
0
VERTEX
8
26_78000
10
123.88701
20
73.44901
30
78.00000
0
VERTEX
8
26_78000
10
123.89900
20
73.53101
30
78.00000
0
VERTEX
8
26_78000
10
124.31500
20
74.10800
30
78.00000
0
VERTEX
8
26_78000
10
124.34200
20
74.13400
30
78.00000
0
VERTEX
8
26_78000
10
126.76201
20
75.67001
30
78.00000
0
VERTEX
8
26_78000
10
126.99601
20
75.97800
30
78.00000
0
VERTEX
8
26_78000
10
127.73401
20
76.65200
30
78.00000
0
VERTEX
8
26_78000
10
128.36700
20
77.47200
30
78.00000
0
VERTEX
8
26_78000
10
129.08801
20
78.53900
30
78.00000
0
VERTEX
8
26_78000
10
129.79100
20
79.49700
30
78.00000
0
VERTEX
8
26_78000
10
129.99200
20
79.70800
30
78.00000
0
VERTEX
8
26_78000
10
130.47801
20
80.39001
30
78.00000
0
VERTEX
8
26_78000
10
130.63301
20
80.63700
30
78.00000
0
VERTEX
8
26_78000
10
131.63800
20
81.71700
30
78.00000
0
VERTEX
8
26_78000
10
132.40201
20
82.60400
30
78.00000
0
VERTEX
8
26_78000
10
132.52901
20
82.78201
30
78.00000
0
VERTEX
8
26_78000
10
133.48901
20
84.25500
30
78.00000
0
VERTEX
8
26_78000
10
133.76100
20
84.77700
30
78.00000
0
VERTEX
8
26_78000
10
134.68201
20
86.74600
30
78.00000
0
VERTEX
8
26_78000
10
135.32800
20
88.03900
30
78.00000
0
VERTEX
8
26_78000
10
135.49101
20
88.54800
30
78.00000
0
VERTEX
8
26_78000
10
136.15701
20
90.06001
30
78.00000
0
VERTEX
8
26_78000
10
136.18401
20
90.18700
30
78.00000
0
VERTEX
8
26_78000
10
136.28601
20
90.46201
30
78.00000
0
VERTEX
8
26_78000
10
136.47400
20
91.04700
30
78.00000
0
VERTEX
8
26_78000
10
136.84201
20
92.32201
30
78.00000
0
VERTEX
8
26_78000
10
137.05101
20
93.23000
30
78.00000
0
VERTEX
8
26_78000
10
137.11401
20
93.59801
30
78.00000
0
VERTEX
8
26_78000
10
137.30400
20
95.35400
30
78.00000
0
VERTEX
8
26_78000
10
137.32901
20
96.32301
30
78.00000
0
VERTEX
8
26_78000
10
137.36900
20
96.92200
30
78.00000
0
VERTEX
8
26_78000
10
137.38200
20
100.92300
30
78.00000
0
VERTEX
8
26_78000
10
137.30501
20
103.06700
30
78.00000
0
VERTEX
8
26_78000
10
137.23801
20
103.96101
30
78.00000
0
VERTEX
8
26_78000
10
137.07201
20
105.49100
30
78.00000
0
VERTEX
8
26_78000
10
136.70300
20
108.37801
30
78.00000
0
VERTEX
8
26_78000
10
136.52600
20
109.96201
30
78.00000
0
VERTEX
8
26_78000
10
136.28300
20
111.45200
30
78.00000
0
VERTEX
8
26_78000
10
136.19301
20
112.64400
30
78.00000
0
VERTEX
8
26_78000
10
135.33900
20
118.07201
30
78.00000
0
VERTEX
8
26_78000
10
135.22200
20
118.42200
30
78.00000
0
VERTEX
8
26_78000
10
134.43901
20
120.51801
30
78.00000
0
VERTEX
8
26_78000
10
133.17700
20
123.95801
30
78.00000
0
VERTEX
8
26_78000
10
132.94901
20
124.46600
30
78.00000
0
VERTEX
8
26_78000
10
132.91800
20
124.82600
30
78.00000
0
VERTEX
8
26_78000
10
132.92900
20
124.91901
30
78.00000
0
VERTEX
8
26_78000
10
132.89801
20
125.09000
30
78.00000
0
VERTEX
8
26_78000
10
132.77901
20
126.61800
30
78.00000
0
VERTEX
8
26_78000
10
132.79800
20
126.97401
30
78.00000
0
VERTEX
8
26_78000
10
132.79001
20
127.22900
30
78.00000
0
VERTEX
8
26_78000
10
133.26801
20
128.58701
30
78.00000
0
VERTEX
8
26_78000
10
133.33101
20
128.83301
30
78.00000
0
VERTEX
8
26_78000
10
133.32600
20
128.90901
30
78.00000
0
VERTEX
8
26_78000
10
133.38101
20
129.20001
30
78.00000
0
VERTEX
8
26_78000
10
133.51201
20
130.02901
30
78.00000
0
VERTEX
8
26_78000
10
133.51801
20
130.78700
30
78.00000
0
VERTEX
8
26_78000
10
133.93600
20
132.83900
30
78.00000
0
VERTEX
8
26_78000
10
134.03000
20
133.47801
30
78.00000
0
VERTEX
8
26_78000
10
134.21501
20
134.95100
30
78.00000
0
VERTEX
8
26_78000
10
134.42801
20
136.53300
30
78.00000
0
VERTEX
8
26_78000
10
134.44901
20
137.18800
30
78.00000
0
VERTEX
8
26_78000
10
134.78700
20
138.61101
30
78.00000
0
VERTEX
8
26_78000
10
134.80200
20
138.76100
30
78.00000
0
VERTEX
8
26_78000
10
134.82100
20
138.83301
30
78.00000
0
VERTEX
8
26_78000
10
134.90100
20
139.03001
30
78.00000
0
VERTEX
8
26_78000
10
135.09500
20
139.74901
30
78.00000
0
VERTEX
8
26_78000
10
135.19000
20
139.95700
30
78.00000
0
VERTEX
8
26_78000
10
135.49701
20
140.52800
30
78.00000
0
VERTEX
8
26_78000
10
136.00401
20
141.10301
30
78.00000
0
VERTEX
8
26_78000
10
136.50000
20
141.68901
30
78.00000
0
VERTEX
8
26_78000
10
136.78801
20
141.97101
30
78.00000
0
VERTEX
8
26_78000
10
136.90401
20
142.12500
30
78.00000
0
VERTEX
8
26_78000
10
137.13200
20
142.31900
30
78.00000
0
VERTEX
8
26_78000
10
137.26201
20
142.47501
30
78.00000
0
VERTEX
8
26_78000
10
137.71901
20
142.85301
30
78.00000
0
VERTEX
8
26_78000
10
138.05501
20
143.23001
30
78.00000
0
VERTEX
8
26_78000
10
138.15901
20
143.40100
30
78.00000
0
VERTEX
8
26_78000
10
138.32100
20
143.76201
30
78.00000
0
VERTEX
8
26_78000
10
138.41600
20
143.93001
30
78.00000
0
VERTEX
8
26_78000
10
138.52501
20
144.24301
30
78.00000
0
VERTEX
8
26_78000
10
138.63400
20
144.93100
30
78.00000
0
VERTEX
8
26_78000
10
138.87001
20
146.15001
30
78.00000
0
VERTEX
8
26_78000
10
139.00101
20
147.37001
30
78.00000
0
VERTEX
8
26_78000
10
139.04601
20
147.57201
30
78.00000
0
VERTEX
8
26_78000
10
139.06401
20
147.90401
30
78.00000
0
VERTEX
8
26_78000
10
139.14401
20
148.64401
30
78.00000
0
VERTEX
8
26_78000
10
139.26901
20
149.62601
30
78.00000
0
VERTEX
8
26_78000
10
139.38301
20
150.31401
30
78.00000
0
VERTEX
8
26_78000
10
139.74600
20
151.65701
30
78.00000
0
VERTEX
8
26_78000
10
139.89401
20
152.54401
30
78.00000
0
VERTEX
8
26_78000
10
140.47601
20
155.26401
30
78.00000
0
VERTEX
8
26_78000
10
140.63901
20
156.28500
30
78.00000
0
VERTEX
8
26_78000
10
140.80801
20
157.43001
30
78.00000
0
VERTEX
8
26_78000
10
140.89000
20
157.84700
30
78.00000
0
VERTEX
8
26_78000
10
140.93301
20
158.13400
30
78.00000
0
VERTEX
8
26_78000
10
141.02600
20
158.51701
30
78.00000
0
VERTEX
8
26_78000
10
141.15401
20
159.42001
30
78.00000
0
VERTEX
8
26_78000
10
141.23700
20
160.12001
30
78.00000
0
VERTEX
8
26_78000
10
141.23601
20
162.44101
30
78.00000
0
VERTEX
8
26_78000
10
141.17001
20
163.33801
30
78.00000
0
VERTEX
8
26_78000
10
141.02200
20
164.50201
30
78.00000
0
VERTEX
8
26_78000
10
140.76001
20
166.82501
30
78.00000
0
VERTEX
8
26_78000
10
140.65001
20
167.71301
30
78.00000
0
VERTEX
8
26_78000
10
140.60600
20
167.99101
30
78.00000
0
VERTEX
8
26_78000
10
140.51001
20
168.29201
30
78.00000
0
VERTEX
8
26_78000
10
140.41701
20
168.67700
30
78.00000
0
VERTEX
8
26_78000
10
140.41600
20
168.94701
30
78.00000
0
VERTEX
8
26_78000
10
140.21901
20
170.05101
30
78.00000
0
VERTEX
8
26_78000
10
139.55901
20
172.73901
30
78.00000
0
VERTEX
8
26_78000
10
139.13501
20
174.56801
30
78.00000
0
VERTEX
8
26_78000
10
138.84401
20
175.35701
30
78.00000
0
VERTEX
8
26_78000
10
137.43001
20
179.57201
30
78.00000
0
VERTEX
8
26_78000
10
137.28700
20
179.93600
30
78.00000
0
VERTEX
8
26_78000
10
137.13501
20
180.28900
30
78.00000
0
VERTEX
8
26_78000
10
130.55901
20
180.28801
30
78.00000
0
SEQEND
8
26_78000
0
ENDSEC
0
EOF
