0
SECTION
2
HEADER
9
$ACADVER
1
AC1009
0
ENDSEC
0
SECTION
2
TABLES
0
TABLE
2
LAYER
70
1
0
LAYER
2
3_9000
70
0
62
7
6
CONTINUOUS
0
ENDTAB
0
ENDSEC
0
SECTION
2
BLOCKS
0
ENDSEC
0
SECTION
2
ENTITIES
0
POLYLINE
8
3_9000
62
5
0
VERTEX
8
3_9000
10
37.46400
20
183.88301
30
9.00000
0
VERTEX
8
3_9000
10
16.29400
20
183.97401
30
9.00000
0
VERTEX
8
3_9000
10
16.23600
20
183.98201
30
9.00000
0
VERTEX
8
3_9000
10
156.49001
20
183.37401
30
9.00000
0
VERTEX
8
3_9000
10
37.46400
20
183.88301
30
9.00000
0
SEQEND
8
3_9000
0
POLYLINE
8
3_9000
62
5
0
VERTEX
8
3_9000
10
134.99901
20
183.48601
30
9.00000
0
VERTEX
8
3_9000
10
14.18000
20
184.12001
30
9.00000
0
VERTEX
8
3_9000
10
14.01400
20
184.12801
30
9.00000
0
VERTEX
8
3_9000
10
134.99901
20
183.48601
30
9.00000
0
SEQEND
8
3_9000
0
POLYLINE
8
3_9000
62
5
0
VERTEX
8
3_9000
10
36.57200
20
183.95901
30
9.00000
0
VERTEX
8
3_9000
10
83.35600
20
183.73201
30
9.00000
0
VERTEX
8
3_9000
10
36.57200
20
183.95901
30
9.00000
0
SEQEND
8
3_9000
0
POLYLINE
8
3_9000
62
5
0
VERTEX
8
3_9000
10
40.94900
20
183.55301
30
9.00000
0
VERTEX
8
3_9000
10
20.35000
20
183.59001
30
9.00000
0
VERTEX
8
3_9000
10
156.49001
20
183.37401
30
9.00000
0
VERTEX
8
3_9000
10
40.94900
20
183.55301
30
9.00000
0
SEQEND
8
3_9000
0
POLYLINE
8
3_9000
62
5
0
VERTEX
8
3_9000
10
80.59100
20
181.19402
30
9.00000
0
VERTEX
8
3_9000
10
156.49001
20
183.37401
30
9.00000
0
VERTEX
8
3_9000
10
80.59100
20
181.19402
30
9.00000
0
SEQEND
8
3_9000
0
POLYLINE
8
3_9000
62
5
0
VERTEX
8
3_9000
10
49.11900
20
182.04800
30
9.00000
0
VERTEX
8
3_9000
10
30.02200
20
181.81201
30
9.00000
0
VERTEX
8
3_9000
10
29.98200
20
181.82001
30
9.00000
0
VERTEX
8
3_9000
10
49.08700
20
182.05602
30
9.00000
0
VERTEX
8
3_9000
10
156.49001
20
183.37401
30
9.00000
0
VERTEX
8
3_9000
10
49.11900
20
182.04800
30
9.00000
0
SEQEND
8
3_9000
0
POLYLINE
8
3_9000
62
5
0
VERTEX
8
3_9000
10
9.78000
20
35.17000
30
9.00000
0
VERTEX
8
3_9000
10
10.06800
20
32.85600
30
9.00000
0
VERTEX
8
3_9000
10
10.16600
20
32.19600
30
9.00000
0
VERTEX
8
3_9000
10
11.02600
20
25.55300
30
9.00000
0
VERTEX
8
3_9000
10
11.10300
20
24.89600
30
9.00000
0
VERTEX
8
3_9000
10
11.18800
20
24.29200
30
9.00000
0
VERTEX
8
3_9000
10
11.44200
20
22.26500
30
9.00000
0
VERTEX
8
3_9000
10
11.78200
20
19.44200
30
9.00000
0
VERTEX
8
3_9000
10
11.95500
20
18.13400
30
9.00000
0
VERTEX
8
3_9000
10
12.09700
20
16.93400
30
9.00000
0
VERTEX
8
3_9000
10
12.58100
20
13.08600
30
9.00000
0
VERTEX
8
3_9000
10
13.18000
20
8.07300
30
9.00000
0
VERTEX
8
3_9000
10
13.53200
20
5.02900
30
9.00000
0
VERTEX
8
3_9000
10
13.59200
20
4.43800
30
9.00000
0
VERTEX
8
3_9000
10
13.80600
20
2.61000
30
9.00000
0
VERTEX
8
3_9000
10
14.09200
20
0.00600
30
9.00000
0
VERTEX
8
3_9000
10
158.53401
20
0.00600
30
9.00000
0
VERTEX
8
3_9000
10
158.60600
20
1.23800
30
9.00000
0
VERTEX
8
3_9000
10
158.65800
20
1.95200
30
9.00000
0
VERTEX
8
3_9000
10
158.71600
20
3.05000
30
9.00000
0
VERTEX
8
3_9000
10
158.80801
20
4.49800
30
9.00000
0
VERTEX
8
3_9000
10
158.83601
20
5.24400
30
9.00000
0
VERTEX
8
3_9000
10
159.04301
20
9.61200
30
9.00000
0
VERTEX
8
3_9000
10
159.17001
20
13.46000
30
9.00000
0
VERTEX
8
3_9000
10
159.18800
20
14.29800
30
9.00000
0
VERTEX
8
3_9000
10
159.23601
20
15.81200
30
9.00000
0
VERTEX
8
3_9000
10
159.28300
20
18.89400
30
9.00000
0
VERTEX
8
3_9000
10
159.32701
20
21.04100
30
9.00000
0
VERTEX
8
3_9000
10
159.33000
20
23.07400
30
9.00000
0
VERTEX
8
3_9000
10
159.31601
20
25.66200
30
9.00000
0
VERTEX
8
3_9000
10
159.26601
20
28.99000
30
9.00000
0
VERTEX
8
3_9000
10
159.26601
20
29.37800
30
9.00000
0
VERTEX
8
3_9000
10
159.11601
20
34.65100
30
9.00000
0
VERTEX
8
3_9000
10
158.97701
20
38.73000
30
9.00000
0
VERTEX
8
3_9000
10
158.93001
20
39.77200
30
9.00000
0
VERTEX
8
3_9000
10
158.85600
20
41.76800
30
9.00000
0
VERTEX
8
3_9000
10
158.71400
20
44.57600
30
9.00000
0
VERTEX
8
3_9000
10
158.59601
20
47.36200
30
9.00000
0
VERTEX
8
3_9000
10
158.55602
20
48.54800
30
9.00000
0
VERTEX
8
3_9000
10
158.55801
20
50.09600
30
9.00000
0
VERTEX
8
3_9000
10
158.62201
20
51.99800
30
9.00000
0
VERTEX
8
3_9000
10
158.62801
20
52.69700
30
9.00000
0
VERTEX
8
3_9000
10
158.62201
20
53.54800
30
9.00000
0
VERTEX
8
3_9000
10
158.59601
20
54.33600
30
9.00000
0
VERTEX
8
3_9000
10
158.57201
20
54.73600
30
9.00000
0
VERTEX
8
3_9000
10
158.50401
20
55.54400
30
9.00000
0
VERTEX
8
3_9000
10
158.45601
20
56.73000
30
9.00000
0
VERTEX
8
3_9000
10
158.40800
20
57.14000
30
9.00000
0
VERTEX
8
3_9000
10
158.33000
20
57.56200
30
9.00000
0
VERTEX
8
3_9000
10
158.33000
20
58.33400
30
9.00000
0
VERTEX
8
3_9000
10
158.31601
20
58.72800
30
9.00000
0
VERTEX
8
3_9000
10
158.27600
20
59.13000
30
9.00000
0
VERTEX
8
3_9000
10
158.17401
20
59.94800
30
9.00000
0
VERTEX
8
3_9000
10
158.10400
20
60.36400
30
9.00000
0
VERTEX
8
3_9000
10
158.04800
20
60.77200
30
9.00000
0
VERTEX
8
3_9000
10
158.02200
20
61.16800
30
9.00000
0
VERTEX
8
3_9000
10
157.97801
20
61.57200
30
9.00000
0
VERTEX
8
3_9000
10
157.94801
20
61.96800
30
9.00000
0
VERTEX
8
3_9000
10
157.90001
20
63.14000
30
9.00000
0
VERTEX
8
3_9000
10
157.84401
20
63.93200
30
9.00000
0
VERTEX
8
3_9000
10
157.79800
20
64.33400
30
9.00000
0
VERTEX
8
3_9000
10
157.69200
20
65.52200
30
9.00000
0
VERTEX
8
3_9000
10
157.65201
20
66.68600
30
9.00000
0
VERTEX
8
3_9000
10
157.61601
20
67.08400
30
9.00000
0
VERTEX
8
3_9000
10
157.62201
20
67.46201
30
9.00000
0
VERTEX
8
3_9000
10
157.60001
20
67.85400
30
9.00000
0
VERTEX
8
3_9000
10
157.53801
20
68.64001
30
9.00000
0
VERTEX
8
3_9000
10
157.45801
20
70.19601
30
9.00000
0
VERTEX
8
3_9000
10
157.42001
20
71.35201
30
9.00000
0
VERTEX
8
3_9000
10
157.37801
20
71.74600
30
9.00000
0
VERTEX
8
3_9000
10
157.35400
20
72.13400
30
9.00000
0
VERTEX
8
3_9000
10
157.34601
20
72.51801
30
9.00000
0
VERTEX
8
3_9000
10
157.32401
20
72.90401
30
9.00000
0
VERTEX
8
3_9000
10
157.30000
20
73.67400
30
9.00000
0
VERTEX
8
3_9000
10
157.22801
20
75.21600
30
9.00000
0
VERTEX
8
3_9000
10
157.18401
20
77.13200
30
9.00000
0
VERTEX
8
3_9000
10
157.15800
20
77.51801
30
9.00000
0
VERTEX
8
3_9000
10
157.17900
20
78.33501
30
9.00000
0
VERTEX
8
3_9000
10
157.14401
20
79.42600
30
9.00000
0
VERTEX
8
3_9000
10
157.09401
20
80.19601
30
9.00000
0
VERTEX
8
3_9000
10
157.10201
20
81.33200
30
9.00000
0
VERTEX
8
3_9000
10
157.06201
20
82.48000
30
9.00000
0
VERTEX
8
3_9000
10
157.02101
20
83.30801
30
9.00000
0
VERTEX
8
3_9000
10
156.95201
20
84.39600
30
9.00000
0
VERTEX
8
3_9000
10
156.96701
20
85.21201
30
9.00000
0
VERTEX
8
3_9000
10
156.92401
20
86.67600
30
9.00000
0
VERTEX
8
3_9000
10
156.90001
20
87.05601
30
9.00000
0
VERTEX
8
3_9000
10
156.87201
20
87.87801
30
9.00000
0
VERTEX
8
3_9000
10
156.86601
20
88.57800
30
9.00000
0
VERTEX
8
3_9000
10
156.90800
20
89.33401
30
9.00000
0
VERTEX
8
3_9000
10
156.90201
20
90.47201
30
9.00000
0
VERTEX
8
3_9000
10
156.94000
20
91.22800
30
9.00000
0
VERTEX
8
3_9000
10
156.94400
20
92.04601
30
9.00000
0
VERTEX
8
3_9000
10
156.93401
20
92.74600
30
9.00000
0
VERTEX
8
3_9000
10
156.93600
20
93.68401
30
9.00000
0
VERTEX
8
3_9000
10
156.90001
20
95.90000
30
9.00000
0
VERTEX
8
3_9000
10
156.86601
20
97.29800
30
9.00000
0
VERTEX
8
3_9000
10
156.90601
20
98.05801
30
9.00000
0
VERTEX
8
3_9000
10
156.89001
20
98.81600
30
9.00000
0
VERTEX
8
3_9000
10
156.90201
20
100.71201
30
9.00000
0
VERTEX
8
3_9000
10
156.91101
20
101.53201
30
9.00000
0
VERTEX
8
3_9000
10
156.94601
20
102.99200
30
9.00000
0
VERTEX
8
3_9000
10
156.95201
20
104.13200
30
9.00000
0
VERTEX
8
3_9000
10
156.94400
20
104.89001
30
9.00000
0
VERTEX
8
3_9000
10
156.95201
20
105.27000
30
9.00000
0
VERTEX
8
3_9000
10
156.96201
20
107.98801
30
9.00000
0
VERTEX
8
3_9000
10
156.99600
20
109.83201
30
9.00000
0
VERTEX
8
3_9000
10
156.98801
20
110.97201
30
9.00000
0
VERTEX
8
3_9000
10
156.99400
20
111.73200
30
9.00000
0
VERTEX
8
3_9000
10
157.02101
20
112.67801
30
9.00000
0
VERTEX
8
3_9000
10
157.04701
20
115.48300
30
9.00000
0
VERTEX
8
3_9000
10
157.15001
20
116.71400
30
9.00000
0
VERTEX
8
3_9000
10
157.16801
20
117.09601
30
9.00000
0
VERTEX
8
3_9000
10
157.16801
20
117.47800
30
9.00000
0
VERTEX
8
3_9000
10
157.14301
20
117.91401
30
9.00000
0
VERTEX
8
3_9000
10
157.11801
20
118.60400
30
9.00000
0
VERTEX
8
3_9000
10
157.13400
20
119.75201
30
9.00000
0
VERTEX
8
3_9000
10
157.13000
20
120.51201
30
9.00000
0
VERTEX
8
3_9000
10
157.14201
20
121.27601
30
9.00000
0
VERTEX
8
3_9000
10
157.18001
20
122.05201
30
9.00000
0
VERTEX
8
3_9000
10
157.20001
20
123.20000
30
9.00000
0
VERTEX
8
3_9000
10
157.29800
20
125.90401
30
9.00000
0
VERTEX
8
3_9000
10
157.35001
20
127.06801
30
9.00000
0
VERTEX
8
3_9000
10
157.41801
20
127.85801
30
9.00000
0
VERTEX
8
3_9000
10
157.42601
20
128.24400
30
9.00000
0
VERTEX
8
3_9000
10
157.47200
20
129.02800
30
9.00000
0
VERTEX
8
3_9000
10
157.46800
20
129.40800
30
9.00000
0
VERTEX
8
3_9000
10
157.51201
20
130.19200
30
9.00000
0
VERTEX
8
3_9000
10
157.52200
20
130.96201
30
9.00000
0
VERTEX
8
3_9000
10
157.56801
20
132.12801
30
9.00000
0
VERTEX
8
3_9000
10
157.62801
20
134.45401
30
9.00000
0
VERTEX
8
3_9000
10
157.72601
20
136.03801
30
9.00000
0
VERTEX
8
3_9000
10
157.73601
20
136.49001
30
9.00000
0
VERTEX
8
3_9000
10
157.76601
20
137.21001
30
9.00000
0
VERTEX
8
3_9000
10
157.80400
20
137.61200
30
9.00000
0
VERTEX
8
3_9000
10
157.80501
20
138.69701
30
9.00000
0
VERTEX
8
3_9000
10
157.74600
20
139.88200
30
9.00000
0
VERTEX
8
3_9000
10
157.66400
20
140.98401
30
9.00000
0
VERTEX
8
3_9000
10
157.54401
20
143.21001
30
9.00000
0
VERTEX
8
3_9000
10
157.38400
20
144.70100
30
9.00000
0
VERTEX
8
3_9000
10
157.32600
20
145.36401
30
9.00000
0
VERTEX
8
3_9000
10
157.22801
20
147.20401
30
9.00000
0
VERTEX
8
3_9000
10
157.18201
20
147.93600
30
9.00000
0
VERTEX
8
3_9000
10
157.17401
20
148.37201
30
9.00000
0
VERTEX
8
3_9000
10
157.08000
20
150.90800
30
9.00000
0
VERTEX
8
3_9000
10
157.07001
20
151.66000
30
9.00000
0
VERTEX
8
3_9000
10
157.00201
20
152.75201
30
9.00000
0
VERTEX
8
3_9000
10
157.00801
20
153.13400
30
9.00000
0
VERTEX
8
3_9000
10
156.99400
20
153.50401
30
9.00000
0
VERTEX
8
3_9000
10
156.96001
20
153.85800
30
9.00000
0
VERTEX
8
3_9000
10
156.95601
20
154.23401
30
9.00000
0
VERTEX
8
3_9000
10
156.88400
20
154.94000
30
9.00000
0
VERTEX
8
3_9000
10
156.85001
20
155.67201
30
9.00000
0
VERTEX
8
3_9000
10
156.78001
20
156.75401
30
9.00000
0
VERTEX
8
3_9000
10
156.74400
20
157.86201
30
9.00000
0
VERTEX
8
3_9000
10
156.65401
20
159.29601
30
9.00000
0
VERTEX
8
3_9000
10
156.59401
20
160.76401
30
9.00000
0
VERTEX
8
3_9000
10
156.58401
20
161.19101
30
9.00000
0
VERTEX
8
3_9000
10
156.53201
20
162.22000
30
9.00000
0
VERTEX
8
3_9000
10
156.41000
20
165.18901
30
9.00000
0
VERTEX
8
3_9000
10
156.38200
20
166.61401
30
9.00000
0
VERTEX
8
3_9000
10
156.34201
20
167.70601
30
9.00000
0
VERTEX
8
3_9000
10
156.35001
20
168.46800
30
9.00000
0
VERTEX
8
3_9000
10
156.34401
20
169.59201
30
9.00000
0
VERTEX
8
3_9000
10
156.37201
20
171.88000
30
9.00000
0
VERTEX
8
3_9000
10
156.40201
20
172.66000
30
9.00000
0
VERTEX
8
3_9000
10
156.42001
20
174.18800
30
9.00000
0
VERTEX
8
3_9000
10
156.45401
20
174.97801
30
9.00000
0
VERTEX
8
3_9000
10
156.46201
20
175.36401
30
9.00000
0
VERTEX
8
3_9000
10
156.46201
20
176.54901
30
9.00000
0
VERTEX
8
3_9000
10
156.44901
20
177.66801
30
9.00000
0
VERTEX
8
3_9000
10
156.45201
20
181.38600
30
9.00000
0
VERTEX
8
3_9000
10
156.48201
20
182.17401
30
9.00000
0
VERTEX
8
3_9000
10
156.47601
20
182.60201
30
9.00000
0
VERTEX
8
3_9000
10
156.49001
20
183.37401
30
9.00000
0
VERTEX
8
3_9000
10
10.57000
20
184.24600
30
9.00000
0
VERTEX
8
3_9000
10
10.51600
20
183.30801
30
9.00000
0
VERTEX
8
3_9000
10
10.45800
20
181.85800
30
9.00000
0
VERTEX
8
3_9000
10
10.32600
20
180.11201
30
9.00000
0
VERTEX
8
3_9000
10
10.26400
20
179.03601
30
9.00000
0
VERTEX
8
3_9000
10
10.05600
20
176.60001
30
9.00000
0
VERTEX
8
3_9000
10
9.86800
20
174.89401
30
9.00000
0
VERTEX
8
3_9000
10
9.81200
20
174.18800
30
9.00000
0
VERTEX
8
3_9000
10
9.69400
20
173.16602
30
9.00000
0
VERTEX
8
3_9000
10
9.28200
20
173.20401
30
9.00000
0
VERTEX
8
3_9000
10
9.23400
20
172.48201
30
9.00000
0
VERTEX
8
3_9000
10
9.13800
20
171.50002
30
9.00000
0
VERTEX
8
3_9000
10
9.00400
20
170.41000
30
9.00000
0
VERTEX
8
3_9000
10
8.90400
20
169.73801
30
9.00000
0
VERTEX
8
3_9000
10
8.72200
20
168.37601
30
9.00000
0
VERTEX
8
3_9000
10
8.53200
20
167.15302
30
9.00000
0
VERTEX
8
3_9000
10
8.33100
20
165.95500
30
9.00000
0
VERTEX
8
3_9000
10
8.09400
20
164.70601
30
9.00000
0
VERTEX
8
3_9000
10
7.88600
20
163.73001
30
9.00000
0
VERTEX
8
3_9000
10
7.65200
20
162.76801
30
9.00000
0
VERTEX
8
3_9000
10
7.38400
20
161.73401
30
9.00000
0
VERTEX
8
3_9000
10
7.13200
20
160.87401
30
9.00000
0
VERTEX
8
3_9000
10
7.02400
20
160.57001
30
9.00000
0
VERTEX
8
3_9000
10
6.78800
20
159.98601
30
9.00000
0
VERTEX
8
3_9000
10
6.65200
20
159.71001
30
9.00000
0
VERTEX
8
3_9000
10
6.47600
20
159.46201
30
9.00000
0
VERTEX
8
3_9000
10
6.24800
20
159.26401
30
9.00000
0
VERTEX
8
3_9000
10
5.64800
20
159.44801
30
9.00000
0
VERTEX
8
3_9000
10
5.13000
20
159.56001
30
9.00000
0
VERTEX
8
3_9000
10
4.65800
20
159.62801
30
9.00000
0
VERTEX
8
3_9000
10
4.21600
20
159.67001
30
9.00000
0
VERTEX
8
3_9000
10
4.19200
20
159.28201
30
9.00000
0
VERTEX
8
3_9000
10
4.14400
20
158.91801
30
9.00000
0
VERTEX
8
3_9000
10
4.07600
20
158.57001
30
9.00000
0
VERTEX
8
3_9000
10
3.98800
20
158.23601
30
9.00000
0
VERTEX
8
3_9000
10
3.88000
20
157.92001
30
9.00000
0
VERTEX
8
3_9000
10
3.71100
20
157.49001
30
9.00000
0
VERTEX
8
3_9000
10
3.50000
20
157.00801
30
9.00000
0
VERTEX
8
3_9000
10
3.21200
20
156.42401
30
9.00000
0
VERTEX
8
3_9000
10
3.08200
20
156.11801
30
9.00000
0
VERTEX
8
3_9000
10
2.61400
20
154.83601
30
9.00000
0
VERTEX
8
3_9000
10
2.10400
20
153.56601
30
9.00000
0
VERTEX
8
3_9000
10
1.45000
20
152.10301
30
9.00000
0
VERTEX
8
3_9000
10
1.67000
20
152.01901
30
9.00000
0
VERTEX
8
3_9000
10
1.86000
20
151.95900
30
9.00000
0
VERTEX
8
3_9000
10
2.21400
20
151.73001
30
9.00000
0
VERTEX
8
3_9000
10
2.27000
20
151.68501
30
9.00000
0
VERTEX
8
3_9000
10
2.49400
20
151.42900
30
9.00000
0
VERTEX
8
3_9000
10
2.64800
20
151.18201
30
9.00000
0
VERTEX
8
3_9000
10
2.77900
20
150.92801
30
9.00000
0
VERTEX
8
3_9000
10
3.02800
20
150.56500
30
9.00000
0
VERTEX
8
3_9000
10
3.33700
20
149.85101
30
9.00000
0
VERTEX
8
3_9000
10
3.41400
20
149.58701
30
9.00000
0
VERTEX
8
3_9000
10
3.73900
20
147.56601
30
9.00000
0
VERTEX
8
3_9000
10
3.73400
20
147.26001
30
9.00000
0
VERTEX
8
3_9000
10
3.70400
20
146.89900
30
9.00000
0
VERTEX
8
3_9000
10
3.55900
20
146.17401
30
9.00000
0
VERTEX
8
3_9000
10
3.52500
20
145.83200
30
9.00000
0
VERTEX
8
3_9000
10
3.39400
20
145.50401
30
9.00000
0
VERTEX
8
3_9000
10
2.53300
20
142.78201
30
9.00000
0
VERTEX
8
3_9000
10
2.44700
20
142.61801
30
9.00000
0
VERTEX
8
3_9000
10
2.26900
20
142.20300
30
9.00000
0
VERTEX
8
3_9000
10
2.09700
20
141.88000
30
9.00000
0
VERTEX
8
3_9000
10
1.67400
20
141.30200
30
9.00000
0
VERTEX
8
3_9000
10
1.59400
20
141.12300
30
9.00000
0
VERTEX
8
3_9000
10
1.45200
20
140.91501
30
9.00000
0
VERTEX
8
3_9000
10
1.54400
20
140.52000
30
9.00000
0
VERTEX
8
3_9000
10
1.63800
20
140.04201
30
9.00000
0
VERTEX
8
3_9000
10
1.79900
20
139.02901
30
9.00000
0
VERTEX
8
3_9000
10
1.90600
20
138.21001
30
9.00000
0
VERTEX
8
3_9000
10
1.98200
20
137.32800
30
9.00000
0
VERTEX
8
3_9000
10
2.05400
20
136.03401
30
9.00000
0
VERTEX
8
3_9000
10
2.10500
20
135.45801
30
9.00000
0
VERTEX
8
3_9000
10
2.14400
20
134.73001
30
9.00000
0
VERTEX
8
3_9000
10
2.17800
20
134.29601
30
9.00000
0
VERTEX
8
3_9000
10
2.23000
20
133.85001
30
9.00000
0
VERTEX
8
3_9000
10
2.30600
20
133.39801
30
9.00000
0
VERTEX
8
3_9000
10
2.51200
20
132.46201
30
9.00000
0
VERTEX
8
3_9000
10
2.90400
20
131.02600
30
9.00000
0
VERTEX
8
3_9000
10
3.24000
20
129.62801
30
9.00000
0
VERTEX
8
3_9000
10
3.36300
20
128.98801
30
9.00000
0
VERTEX
8
3_9000
10
3.69200
20
127.37401
30
9.00000
0
VERTEX
8
3_9000
10
4.32500
20
123.71901
30
9.00000
0
VERTEX
8
3_9000
10
4.43600
20
122.99801
30
9.00000
0
VERTEX
8
3_9000
10
4.54200
20
122.14800
30
9.00000
0
VERTEX
8
3_9000
10
4.77600
20
120.44801
30
9.00000
0
VERTEX
8
3_9000
10
4.99400
20
119.16401
30
9.00000
0
VERTEX
8
3_9000
10
5.08400
20
118.73401
30
9.00000
0
VERTEX
8
3_9000
10
5.43400
20
117.31701
30
9.00000
0
VERTEX
8
3_9000
10
5.89000
20
115.59601
30
9.00000
0
VERTEX
8
3_9000
10
6.08000
20
114.84400
30
9.00000
0
VERTEX
8
3_9000
10
6.16600
20
114.42600
30
9.00000
0
VERTEX
8
3_9000
10
6.37000
20
113.58000
30
9.00000
0
VERTEX
8
3_9000
10
6.69600
20
111.92600
30
9.00000
0
VERTEX
8
3_9000
10
6.82200
20
111.11001
30
9.00000
0
VERTEX
8
3_9000
10
7.03700
20
109.57700
30
9.00000
0
VERTEX
8
3_9000
10
7.35400
20
107.48601
30
9.00000
0
VERTEX
8
3_9000
10
7.40000
20
107.08801
30
9.00000
0
VERTEX
8
3_9000
10
7.43200
20
106.69401
30
9.00000
0
VERTEX
8
3_9000
10
7.53700
20
105.82500
30
9.00000
0
VERTEX
8
3_9000
10
7.63400
20
105.11001
30
9.00000
0
VERTEX
8
3_9000
10
7.71600
20
104.32401
30
9.00000
0
VERTEX
8
3_9000
10
7.74400
20
103.93201
30
9.00000
0
VERTEX
8
3_9000
10
7.77000
20
103.15401
30
9.00000
0
VERTEX
8
3_9000
10
7.79200
20
102.76401
30
9.00000
0
VERTEX
8
3_9000
10
7.87400
20
101.63300
30
9.00000
0
VERTEX
8
3_9000
10
7.99500
20
99.72601
30
9.00000
0
VERTEX
8
3_9000
10
8.04400
20
98.11001
30
9.00000
0
VERTEX
8
3_9000
10
8.08600
20
97.33601
30
9.00000
0
VERTEX
8
3_9000
10
8.10600
20
96.18001
30
9.00000
0
VERTEX
8
3_9000
10
8.13400
20
95.79601
30
9.00000
0
VERTEX
8
3_9000
10
8.18200
20
94.64001
30
9.00000
0
VERTEX
8
3_9000
10
8.20600
20
93.66801
30
9.00000
0
VERTEX
8
3_9000
10
8.25600
20
92.33200
30
9.00000
0
VERTEX
8
3_9000
10
8.29700
20
91.88600
30
9.00000
0
VERTEX
8
3_9000
10
8.41600
20
90.04000
30
9.00000
0
VERTEX
8
3_9000
10
8.42800
20
89.65601
30
9.00000
0
VERTEX
8
3_9000
10
8.41400
20
88.88800
30
9.00000
0
VERTEX
8
3_9000
10
8.46000
20
86.97601
30
9.00000
0
VERTEX
8
3_9000
10
8.49600
20
86.21201
30
9.00000
0
VERTEX
8
3_9000
10
8.49100
20
84.93401
30
9.00000
0
VERTEX
8
3_9000
10
8.45400
20
82.37400
30
9.00000
0
VERTEX
8
3_9000
10
8.40000
20
80.83000
30
9.00000
0
VERTEX
8
3_9000
10
8.41600
20
80.45000
30
9.00000
0
VERTEX
8
3_9000
10
8.41800
20
80.06600
30
9.00000
0
VERTEX
8
3_9000
10
8.39200
20
79.29401
30
9.00000
0
VERTEX
8
3_9000
10
8.40800
20
76.99800
30
9.00000
0
VERTEX
8
3_9000
10
8.38400
20
76.22200
30
9.00000
0
VERTEX
8
3_9000
10
8.41100
20
75.39800
30
9.00000
0
VERTEX
8
3_9000
10
8.41000
20
73.93000
30
9.00000
0
VERTEX
8
3_9000
10
8.42200
20
73.16400
30
9.00000
0
VERTEX
8
3_9000
10
8.40000
20
71.62200
30
9.00000
0
VERTEX
8
3_9000
10
8.43800
20
70.48400
30
9.00000
0
VERTEX
8
3_9000
10
8.44600
20
68.89001
30
9.00000
0
VERTEX
8
3_9000
10
8.43700
20
67.28700
30
9.00000
0
VERTEX
8
3_9000
10
8.37800
20
61.63800
30
9.00000
0
VERTEX
8
3_9000
10
8.33400
20
60.08200
30
9.00000
0
VERTEX
8
3_9000
10
8.33600
20
59.31600
30
9.00000
0
VERTEX
8
3_9000
10
8.36200
20
58.55800
30
9.00000
0
VERTEX
8
3_9000
10
8.36000
20
58.17600
30
9.00000
0
VERTEX
8
3_9000
10
8.38200
20
56.65200
30
9.00000
0
VERTEX
8
3_9000
10
8.40200
20
55.89600
30
9.00000
0
VERTEX
8
3_9000
10
8.40200
20
55.13000
30
9.00000
0
VERTEX
8
3_9000
10
8.42600
20
53.67300
30
9.00000
0
VERTEX
8
3_9000
10
8.47600
20
52.10600
30
9.00000
0
VERTEX
8
3_9000
10
8.49200
20
51.34800
30
9.00000
0
VERTEX
8
3_9000
10
8.62000
20
47.98800
30
9.00000
0
VERTEX
8
3_9000
10
8.71600
20
46.14200
30
9.00000
0
VERTEX
8
3_9000
10
8.80800
20
44.68000
30
9.00000
0
VERTEX
8
3_9000
10
9.04900
20
41.87500
30
9.00000
0
VERTEX
8
3_9000
10
9.32200
20
38.99400
30
9.00000
0
VERTEX
8
3_9000
10
9.60800
20
36.52900
30
9.00000
0
VERTEX
8
3_9000
10
9.78000
20
35.17000
30
9.00000
0
SEQEND
8
3_9000
0
ENDSEC
0
EOF
