0
SECTION
2
HEADER
9
$ACADVER
1
AC1009
0
ENDSEC
0
SECTION
2
TABLES
0
TABLE
2
LAYER
70
1
0
LAYER
2
12_36000
70
0
62
7
6
CONTINUOUS
0
ENDTAB
0
ENDSEC
0
SECTION
2
BLOCKS
0
ENDSEC
0
SECTION
2
ENTITIES
0
POLYLINE
8
12_36000
62
5
0
VERTEX
8
12_36000
10
20.39800
20
183.58601
30
36.00000
0
VERTEX
8
12_36000
10
156.49001
20
183.37401
30
36.00000
0
VERTEX
8
12_36000
10
20.39800
20
183.58601
30
36.00000
0
SEQEND
8
12_36000
0
POLYLINE
8
12_36000
62
5
0
VERTEX
8
12_36000
10
49.28600
20
183.89801
30
36.00000
0
VERTEX
8
12_36000
10
15.17800
20
184.06601
30
36.00000
0
VERTEX
8
12_36000
10
49.28600
20
183.89801
30
36.00000
0
SEQEND
8
12_36000
0
POLYLINE
8
12_36000
62
5
0
VERTEX
8
12_36000
10
121.44000
20
183.52400
30
36.00000
0
VERTEX
8
12_36000
10
16.29400
20
183.97401
30
36.00000
0
VERTEX
8
12_36000
10
16.23600
20
183.98201
30
36.00000
0
VERTEX
8
12_36000
10
121.44000
20
183.52400
30
36.00000
0
SEQEND
8
12_36000
0
POLYLINE
8
12_36000
62
5
0
VERTEX
8
12_36000
10
53.07700
20
182.10501
30
36.00000
0
VERTEX
8
12_36000
10
156.49001
20
183.37401
30
36.00000
0
VERTEX
8
12_36000
10
30.02200
20
181.81201
30
36.00000
0
VERTEX
8
12_36000
10
29.98200
20
181.82001
30
36.00000
0
VERTEX
8
12_36000
10
53.07700
20
182.10501
30
36.00000
0
SEQEND
8
12_36000
0
POLYLINE
8
12_36000
62
5
0
VERTEX
8
12_36000
10
120.91200
20
183.56001
30
36.00000
0
VERTEX
8
12_36000
10
14.18000
20
184.12001
30
36.00000
0
VERTEX
8
12_36000
10
14.01400
20
184.12801
30
36.00000
0
VERTEX
8
12_36000
10
120.91200
20
183.56001
30
36.00000
0
SEQEND
8
12_36000
0
POLYLINE
8
12_36000
62
5
0
VERTEX
8
12_36000
10
98.19601
20
181.70001
30
36.00000
0
VERTEX
8
12_36000
10
39.88800
20
180.02600
30
36.00000
0
VERTEX
8
12_36000
10
98.19601
20
181.70001
30
36.00000
0
SEQEND
8
12_36000
0
POLYLINE
8
12_36000
62
5
0
VERTEX
8
12_36000
10
9.80000
20
35.02000
30
36.00000
0
VERTEX
8
12_36000
10
10.06800
20
32.85600
30
36.00000
0
VERTEX
8
12_36000
10
10.16600
20
32.19600
30
36.00000
0
VERTEX
8
12_36000
10
10.97800
20
25.94000
30
36.00000
0
VERTEX
8
12_36000
10
11.11700
20
24.78200
30
36.00000
0
VERTEX
8
12_36000
10
11.18800
20
24.29200
30
36.00000
0
VERTEX
8
12_36000
10
11.63000
20
20.73300
30
36.00000
0
VERTEX
8
12_36000
10
11.78200
20
19.44200
30
36.00000
0
VERTEX
8
12_36000
10
11.96900
20
18.02000
30
36.00000
0
VERTEX
8
12_36000
10
12.08300
20
17.04700
30
36.00000
0
VERTEX
8
12_36000
10
12.59400
20
12.97900
30
36.00000
0
VERTEX
8
12_36000
10
13.20500
20
7.87300
30
36.00000
0
VERTEX
8
12_36000
10
13.54300
20
4.92900
30
36.00000
0
VERTEX
8
12_36000
10
13.59200
20
4.43800
30
36.00000
0
VERTEX
8
12_36000
10
13.80600
20
2.61000
30
36.00000
0
VERTEX
8
12_36000
10
14.09200
20
0.00600
30
36.00000
0
VERTEX
8
12_36000
10
158.53401
20
0.00600
30
36.00000
0
VERTEX
8
12_36000
10
158.60600
20
1.23800
30
36.00000
0
VERTEX
8
12_36000
10
158.65800
20
1.95200
30
36.00000
0
VERTEX
8
12_36000
10
158.71600
20
3.05000
30
36.00000
0
VERTEX
8
12_36000
10
158.80801
20
4.49800
30
36.00000
0
VERTEX
8
12_36000
10
158.83601
20
5.24400
30
36.00000
0
VERTEX
8
12_36000
10
159.03500
20
9.39000
30
36.00000
0
VERTEX
8
12_36000
10
159.17001
20
13.46000
30
36.00000
0
VERTEX
8
12_36000
10
159.17201
20
13.76900
30
36.00000
0
VERTEX
8
12_36000
10
159.22601
20
15.35400
30
36.00000
0
VERTEX
8
12_36000
10
159.23901
20
15.97400
30
36.00000
0
VERTEX
8
12_36000
10
159.28700
20
19.12900
30
36.00000
0
VERTEX
8
12_36000
10
159.32301
20
20.80200
30
36.00000
0
VERTEX
8
12_36000
10
159.33000
20
21.43800
30
36.00000
0
VERTEX
8
12_36000
10
159.32401
20
22.29600
30
36.00000
0
VERTEX
8
12_36000
10
159.33000
20
23.07400
30
36.00000
0
VERTEX
8
12_36000
10
159.31401
20
25.82400
30
36.00000
0
VERTEX
8
12_36000
10
159.25900
20
29.70200
30
36.00000
0
VERTEX
8
12_36000
10
159.19000
20
32.17400
30
36.00000
0
VERTEX
8
12_36000
10
159.15901
20
32.90300
30
36.00000
0
VERTEX
8
12_36000
10
159.11201
20
34.88800
30
36.00000
0
VERTEX
8
12_36000
10
159.05901
20
36.25600
30
36.00000
0
VERTEX
8
12_36000
10
158.98100
20
38.65000
30
36.00000
0
VERTEX
8
12_36000
10
158.93001
20
39.77200
30
36.00000
0
VERTEX
8
12_36000
10
158.85600
20
41.76800
30
36.00000
0
VERTEX
8
12_36000
10
158.71400
20
44.57600
30
36.00000
0
VERTEX
8
12_36000
10
158.59601
20
47.36200
30
36.00000
0
VERTEX
8
12_36000
10
158.55602
20
48.54800
30
36.00000
0
VERTEX
8
12_36000
10
158.55801
20
50.09600
30
36.00000
0
VERTEX
8
12_36000
10
158.62701
20
52.28900
30
36.00000
0
VERTEX
8
12_36000
10
158.63000
20
53.06100
30
36.00000
0
VERTEX
8
12_36000
10
158.59601
20
54.33600
30
36.00000
0
VERTEX
8
12_36000
10
158.55000
20
55.03600
30
36.00000
0
VERTEX
8
12_36000
10
158.50401
20
55.54400
30
36.00000
0
VERTEX
8
12_36000
10
158.45601
20
56.73000
30
36.00000
0
VERTEX
8
12_36000
10
158.40800
20
57.14000
30
36.00000
0
VERTEX
8
12_36000
10
158.33000
20
57.56200
30
36.00000
0
VERTEX
8
12_36000
10
158.33000
20
58.33400
30
36.00000
0
VERTEX
8
12_36000
10
158.31601
20
58.72800
30
36.00000
0
VERTEX
8
12_36000
10
158.27600
20
59.13000
30
36.00000
0
VERTEX
8
12_36000
10
158.17401
20
59.94800
30
36.00000
0
VERTEX
8
12_36000
10
158.10400
20
60.36400
30
36.00000
0
VERTEX
8
12_36000
10
158.04800
20
60.77200
30
36.00000
0
VERTEX
8
12_36000
10
158.02200
20
61.16800
30
36.00000
0
VERTEX
8
12_36000
10
157.97801
20
61.57200
30
36.00000
0
VERTEX
8
12_36000
10
157.94801
20
61.96800
30
36.00000
0
VERTEX
8
12_36000
10
157.88301
20
63.41300
30
36.00000
0
VERTEX
8
12_36000
10
157.84401
20
63.93200
30
36.00000
0
VERTEX
8
12_36000
10
157.79800
20
64.33400
30
36.00000
0
VERTEX
8
12_36000
10
157.69200
20
65.52200
30
36.00000
0
VERTEX
8
12_36000
10
157.65201
20
66.68600
30
36.00000
0
VERTEX
8
12_36000
10
157.61601
20
67.08400
30
36.00000
0
VERTEX
8
12_36000
10
157.62201
20
67.46201
30
36.00000
0
VERTEX
8
12_36000
10
157.60001
20
67.85400
30
36.00000
0
VERTEX
8
12_36000
10
157.53801
20
68.64001
30
36.00000
0
VERTEX
8
12_36000
10
157.51001
20
69.28600
30
36.00000
0
VERTEX
8
12_36000
10
157.45801
20
70.19601
30
36.00000
0
VERTEX
8
12_36000
10
157.42001
20
71.35201
30
36.00000
0
VERTEX
8
12_36000
10
157.37801
20
71.74600
30
36.00000
0
VERTEX
8
12_36000
10
157.35400
20
72.13400
30
36.00000
0
VERTEX
8
12_36000
10
157.34601
20
72.51801
30
36.00000
0
VERTEX
8
12_36000
10
157.32401
20
72.90401
30
36.00000
0
VERTEX
8
12_36000
10
157.30000
20
73.67400
30
36.00000
0
VERTEX
8
12_36000
10
157.22801
20
75.21600
30
36.00000
0
VERTEX
8
12_36000
10
157.18401
20
77.13200
30
36.00000
0
VERTEX
8
12_36000
10
157.15800
20
77.51801
30
36.00000
0
VERTEX
8
12_36000
10
157.18001
20
78.27400
30
36.00000
0
VERTEX
8
12_36000
10
157.17601
20
78.51900
30
36.00000
0
VERTEX
8
12_36000
10
157.14401
20
79.42600
30
36.00000
0
VERTEX
8
12_36000
10
157.09401
20
80.19601
30
36.00000
0
VERTEX
8
12_36000
10
157.10201
20
81.33200
30
36.00000
0
VERTEX
8
12_36000
10
157.06201
20
82.48000
30
36.00000
0
VERTEX
8
12_36000
10
157.01001
20
83.48901
30
36.00000
0
VERTEX
8
12_36000
10
156.95201
20
84.39600
30
36.00000
0
VERTEX
8
12_36000
10
156.96800
20
85.15200
30
36.00000
0
VERTEX
8
12_36000
10
156.96301
20
85.39301
30
36.00000
0
VERTEX
8
12_36000
10
156.93301
20
86.43501
30
36.00000
0
VERTEX
8
12_36000
10
156.90001
20
87.05601
30
36.00000
0
VERTEX
8
12_36000
10
156.86601
20
88.05701
30
36.00000
0
VERTEX
8
12_36000
10
156.86601
20
88.57800
30
36.00000
0
VERTEX
8
12_36000
10
156.90800
20
89.33401
30
36.00000
0
VERTEX
8
12_36000
10
156.90201
20
90.47201
30
36.00000
0
VERTEX
8
12_36000
10
156.94000
20
91.22800
30
36.00000
0
VERTEX
8
12_36000
10
156.94400
20
92.22701
30
36.00000
0
VERTEX
8
12_36000
10
156.93401
20
92.74600
30
36.00000
0
VERTEX
8
12_36000
10
156.93800
20
93.50600
30
36.00000
0
VERTEX
8
12_36000
10
156.92801
20
94.22201
30
36.00000
0
VERTEX
8
12_36000
10
156.90201
20
95.78201
30
36.00000
0
VERTEX
8
12_36000
10
156.86601
20
97.29800
30
36.00000
0
VERTEX
8
12_36000
10
156.90601
20
98.05801
30
36.00000
0
VERTEX
8
12_36000
10
156.89001
20
98.81600
30
36.00000
0
VERTEX
8
12_36000
10
156.90201
20
100.71201
30
36.00000
0
VERTEX
8
12_36000
10
156.91400
20
101.71101
30
36.00000
0
VERTEX
8
12_36000
10
156.94601
20
102.99200
30
36.00000
0
VERTEX
8
12_36000
10
156.95201
20
104.13200
30
36.00000
0
VERTEX
8
12_36000
10
156.94400
20
104.89001
30
36.00000
0
VERTEX
8
12_36000
10
156.95801
20
106.27000
30
36.00000
0
VERTEX
8
12_36000
10
156.96301
20
108.17001
30
36.00000
0
VERTEX
8
12_36000
10
156.99600
20
109.83201
30
36.00000
0
VERTEX
8
12_36000
10
156.98801
20
111.21301
30
36.00000
0
VERTEX
8
12_36000
10
157.02901
20
113.22601
30
36.00000
0
VERTEX
8
12_36000
10
157.04800
20
115.54401
30
36.00000
0
VERTEX
8
12_36000
10
157.15001
20
116.71400
30
36.00000
0
VERTEX
8
12_36000
10
157.16801
20
117.09601
30
36.00000
0
VERTEX
8
12_36000
10
157.16801
20
117.47800
30
36.00000
0
VERTEX
8
12_36000
10
157.13400
20
118.09401
30
36.00000
0
VERTEX
8
12_36000
10
157.11801
20
118.60400
30
36.00000
0
VERTEX
8
12_36000
10
157.13400
20
119.75201
30
36.00000
0
VERTEX
8
12_36000
10
157.13000
20
120.51201
30
36.00000
0
VERTEX
8
12_36000
10
157.14201
20
121.27601
30
36.00000
0
VERTEX
8
12_36000
10
157.18001
20
122.05201
30
36.00000
0
VERTEX
8
12_36000
10
157.20001
20
123.20000
30
36.00000
0
VERTEX
8
12_36000
10
157.29800
20
125.90401
30
36.00000
0
VERTEX
8
12_36000
10
157.35001
20
127.06801
30
36.00000
0
VERTEX
8
12_36000
10
157.41801
20
127.85801
30
36.00000
0
VERTEX
8
12_36000
10
157.42601
20
128.24400
30
36.00000
0
VERTEX
8
12_36000
10
157.47200
20
129.02800
30
36.00000
0
VERTEX
8
12_36000
10
157.46800
20
129.40800
30
36.00000
0
VERTEX
8
12_36000
10
157.51201
20
130.19200
30
36.00000
0
VERTEX
8
12_36000
10
157.52200
20
130.96201
30
36.00000
0
VERTEX
8
12_36000
10
157.56100
20
131.86900
30
36.00000
0
VERTEX
8
12_36000
10
157.62801
20
134.45401
30
36.00000
0
VERTEX
8
12_36000
10
157.72601
20
136.03801
30
36.00000
0
VERTEX
8
12_36000
10
157.74200
20
136.69000
30
36.00000
0
VERTEX
8
12_36000
10
157.76601
20
137.21001
30
36.00000
0
VERTEX
8
12_36000
10
157.80400
20
137.61200
30
36.00000
0
VERTEX
8
12_36000
10
157.80801
20
138.50201
30
36.00000
0
VERTEX
8
12_36000
10
157.80400
20
138.76201
30
36.00000
0
VERTEX
8
12_36000
10
157.74600
20
139.88200
30
36.00000
0
VERTEX
8
12_36000
10
157.66400
20
140.98401
30
36.00000
0
VERTEX
8
12_36000
10
157.54401
20
143.21001
30
36.00000
0
VERTEX
8
12_36000
10
157.39001
20
144.64201
30
36.00000
0
VERTEX
8
12_36000
10
157.32600
20
145.36401
30
36.00000
0
VERTEX
8
12_36000
10
157.22801
20
147.20401
30
36.00000
0
VERTEX
8
12_36000
10
157.18201
20
147.93600
30
36.00000
0
VERTEX
8
12_36000
10
157.17601
20
148.31201
30
36.00000
0
VERTEX
8
12_36000
10
157.09401
20
150.40001
30
36.00000
0
VERTEX
8
12_36000
10
157.07001
20
151.66000
30
36.00000
0
VERTEX
8
12_36000
10
157.00201
20
152.75201
30
36.00000
0
VERTEX
8
12_36000
10
157.00801
20
153.13400
30
36.00000
0
VERTEX
8
12_36000
10
156.99400
20
153.50401
30
36.00000
0
VERTEX
8
12_36000
10
156.96001
20
153.85800
30
36.00000
0
VERTEX
8
12_36000
10
156.95601
20
154.23401
30
36.00000
0
VERTEX
8
12_36000
10
156.88400
20
154.94000
30
36.00000
0
VERTEX
8
12_36000
10
156.85001
20
155.67201
30
36.00000
0
VERTEX
8
12_36000
10
156.78001
20
156.75401
30
36.00000
0
VERTEX
8
12_36000
10
156.73300
20
158.08601
30
36.00000
0
VERTEX
8
12_36000
10
156.65401
20
159.29601
30
36.00000
0
VERTEX
8
12_36000
10
156.62601
20
160.11900
30
36.00000
0
VERTEX
8
12_36000
10
156.59401
20
160.76401
30
36.00000
0
VERTEX
8
12_36000
10
156.58601
20
161.13600
30
36.00000
0
VERTEX
8
12_36000
10
156.52200
20
162.44101
30
36.00000
0
VERTEX
8
12_36000
10
156.49800
20
163.17500
30
36.00000
0
VERTEX
8
12_36000
10
156.47000
20
163.67601
30
36.00000
0
VERTEX
8
12_36000
10
156.41200
20
165.13400
30
36.00000
0
VERTEX
8
12_36000
10
156.38200
20
166.61401
30
36.00000
0
VERTEX
8
12_36000
10
156.34201
20
167.70601
30
36.00000
0
VERTEX
8
12_36000
10
156.35101
20
168.69402
30
36.00000
0
VERTEX
8
12_36000
10
156.34401
20
169.59201
30
36.00000
0
VERTEX
8
12_36000
10
156.37201
20
171.88000
30
36.00000
0
VERTEX
8
12_36000
10
156.40201
20
172.66000
30
36.00000
0
VERTEX
8
12_36000
10
156.42001
20
174.18800
30
36.00000
0
VERTEX
8
12_36000
10
156.45401
20
174.97801
30
36.00000
0
VERTEX
8
12_36000
10
156.46201
20
175.36401
30
36.00000
0
VERTEX
8
12_36000
10
156.46101
20
176.71901
30
36.00000
0
VERTEX
8
12_36000
10
156.44801
20
177.83601
30
36.00000
0
VERTEX
8
12_36000
10
156.45100
20
181.15601
30
36.00000
0
VERTEX
8
12_36000
10
156.45801
20
181.62001
30
36.00000
0
VERTEX
8
12_36000
10
156.48201
20
182.17401
30
36.00000
0
VERTEX
8
12_36000
10
156.47701
20
182.77501
30
36.00000
0
VERTEX
8
12_36000
10
156.49001
20
183.37401
30
36.00000
0
VERTEX
8
12_36000
10
10.57000
20
184.24600
30
36.00000
0
VERTEX
8
12_36000
10
10.51600
20
183.30801
30
36.00000
0
VERTEX
8
12_36000
10
10.45800
20
181.85800
30
36.00000
0
VERTEX
8
12_36000
10
10.31800
20
179.99800
30
36.00000
0
VERTEX
8
12_36000
10
10.26400
20
179.03601
30
36.00000
0
VERTEX
8
12_36000
10
10.05600
20
176.60001
30
36.00000
0
VERTEX
8
12_36000
10
9.86800
20
174.89401
30
36.00000
0
VERTEX
8
12_36000
10
9.81200
20
174.18800
30
36.00000
0
VERTEX
8
12_36000
10
9.69400
20
173.16602
30
36.00000
0
VERTEX
8
12_36000
10
9.28200
20
173.20401
30
36.00000
0
VERTEX
8
12_36000
10
9.23400
20
172.48201
30
36.00000
0
VERTEX
8
12_36000
10
9.16200
20
171.69402
30
36.00000
0
VERTEX
8
12_36000
10
9.00400
20
170.41000
30
36.00000
0
VERTEX
8
12_36000
10
8.90400
20
169.73801
30
36.00000
0
VERTEX
8
12_36000
10
8.68300
20
168.10101
30
36.00000
0
VERTEX
8
12_36000
10
8.39300
20
166.30501
30
36.00000
0
VERTEX
8
12_36000
10
8.29300
20
165.74200
30
36.00000
0
VERTEX
8
12_36000
10
8.09400
20
164.70601
30
36.00000
0
VERTEX
8
12_36000
10
8.02800
20
164.42300
30
36.00000
0
VERTEX
8
12_36000
10
7.88600
20
163.73001
30
36.00000
0
VERTEX
8
12_36000
10
7.65200
20
162.76801
30
36.00000
0
VERTEX
8
12_36000
10
7.40600
20
161.81201
30
36.00000
0
VERTEX
8
12_36000
10
7.33000
20
161.54800
30
36.00000
0
VERTEX
8
12_36000
10
8.21200
20
161.20201
30
36.00000
0
VERTEX
8
12_36000
10
8.96900
20
160.89001
30
36.00000
0
VERTEX
8
12_36000
10
9.11900
20
160.77600
30
36.00000
0
VERTEX
8
12_36000
10
9.25700
20
160.68901
30
36.00000
0
VERTEX
8
12_36000
10
9.51500
20
160.55602
30
36.00000
0
VERTEX
8
12_36000
10
10.03200
20
160.14001
30
36.00000
0
VERTEX
8
12_36000
10
10.45500
20
159.71600
30
36.00000
0
VERTEX
8
12_36000
10
10.74300
20
159.31300
30
36.00000
0
VERTEX
8
12_36000
10
11.15000
20
158.87801
30
36.00000
0
VERTEX
8
12_36000
10
11.39300
20
158.52301
30
36.00000
0
VERTEX
8
12_36000
10
12.21900
20
157.20100
30
36.00000
0
VERTEX
8
12_36000
10
12.33700
20
157.04001
30
36.00000
0
VERTEX
8
12_36000
10
12.77100
20
156.35301
30
36.00000
0
VERTEX
8
12_36000
10
12.93000
20
156.12100
30
36.00000
0
VERTEX
8
12_36000
10
13.32500
20
155.39801
30
36.00000
0
VERTEX
8
12_36000
10
13.89000
20
154.05101
30
36.00000
0
VERTEX
8
12_36000
10
14.09200
20
153.39601
30
36.00000
0
VERTEX
8
12_36000
10
14.13400
20
153.22501
30
36.00000
0
VERTEX
8
12_36000
10
14.15900
20
153.02101
30
36.00000
0
VERTEX
8
12_36000
10
14.20600
20
151.77701
30
36.00000
0
VERTEX
8
12_36000
10
14.15700
20
150.88101
30
36.00000
0
VERTEX
8
12_36000
10
14.11200
20
148.97900
30
36.00000
0
VERTEX
8
12_36000
10
14.29100
20
148.08601
30
36.00000
0
VERTEX
8
12_36000
10
14.32700
20
147.77901
30
36.00000
0
VERTEX
8
12_36000
10
14.36700
20
147.64000
30
36.00000
0
VERTEX
8
12_36000
10
14.45400
20
146.61501
30
36.00000
0
VERTEX
8
12_36000
10
14.49200
20
145.99800
30
36.00000
0
VERTEX
8
12_36000
10
14.48500
20
145.48300
30
36.00000
0
VERTEX
8
12_36000
10
14.50700
20
145.33801
30
36.00000
0
VERTEX
8
12_36000
10
14.50900
20
144.83900
30
36.00000
0
VERTEX
8
12_36000
10
14.31100
20
141.83101
30
36.00000
0
VERTEX
8
12_36000
10
14.27300
20
141.30301
30
36.00000
0
VERTEX
8
12_36000
10
14.23600
20
141.01701
30
36.00000
0
VERTEX
8
12_36000
10
14.10100
20
140.14700
30
36.00000
0
VERTEX
8
12_36000
10
13.84500
20
138.62701
30
36.00000
0
VERTEX
8
12_36000
10
13.60600
20
137.43001
30
36.00000
0
VERTEX
8
12_36000
10
13.45000
20
136.70801
30
36.00000
0
VERTEX
8
12_36000
10
12.74700
20
132.83400
30
36.00000
0
VERTEX
8
12_36000
10
12.35400
20
130.99901
30
36.00000
0
VERTEX
8
12_36000
10
12.19300
20
130.35600
30
36.00000
0
VERTEX
8
12_36000
10
11.61300
20
128.19400
30
36.00000
0
VERTEX
8
12_36000
10
11.53600
20
127.96800
30
36.00000
0
VERTEX
8
12_36000
10
11.27500
20
127.04301
30
36.00000
0
VERTEX
8
12_36000
10
10.99000
20
126.36201
30
36.00000
0
VERTEX
8
12_36000
10
10.73000
20
125.42801
30
36.00000
0
VERTEX
8
12_36000
10
10.66100
20
125.27200
30
36.00000
0
VERTEX
8
12_36000
10
10.60600
20
125.17001
30
36.00000
0
VERTEX
8
12_36000
10
10.34300
20
124.55501
30
36.00000
0
VERTEX
8
12_36000
10
9.69100
20
123.11600
30
36.00000
0
VERTEX
8
12_36000
10
9.62000
20
122.92600
30
36.00000
0
VERTEX
8
12_36000
10
9.38700
20
122.23301
30
36.00000
0
VERTEX
8
12_36000
10
9.15500
20
121.75201
30
36.00000
0
VERTEX
8
12_36000
10
8.98400
20
121.20901
30
36.00000
0
VERTEX
8
12_36000
10
8.58200
20
120.26501
30
36.00000
0
VERTEX
8
12_36000
10
8.38200
20
119.95501
30
36.00000
0
VERTEX
8
12_36000
10
7.33200
20
117.71600
30
36.00000
0
VERTEX
8
12_36000
10
7.12600
20
117.24901
30
36.00000
0
VERTEX
8
12_36000
10
7.07500
20
117.17400
30
36.00000
0
VERTEX
8
12_36000
10
6.77200
20
116.84000
30
36.00000
0
VERTEX
8
12_36000
10
6.63300
20
116.66300
30
36.00000
0
VERTEX
8
12_36000
10
6.51800
20
116.59000
30
36.00000
0
VERTEX
8
12_36000
10
5.78300
20
116.00301
30
36.00000
0
VERTEX
8
12_36000
10
5.98100
20
115.25600
30
36.00000
0
VERTEX
8
12_36000
10
6.08000
20
114.84400
30
36.00000
0
VERTEX
8
12_36000
10
6.16600
20
114.42600
30
36.00000
0
VERTEX
8
12_36000
10
6.37000
20
113.58000
30
36.00000
0
VERTEX
8
12_36000
10
6.69600
20
111.92600
30
36.00000
0
VERTEX
8
12_36000
10
6.82200
20
111.11001
30
36.00000
0
VERTEX
8
12_36000
10
6.99000
20
109.89800
30
36.00000
0
VERTEX
8
12_36000
10
7.18000
20
108.61101
30
36.00000
0
VERTEX
8
12_36000
10
7.35400
20
107.48601
30
36.00000
0
VERTEX
8
12_36000
10
7.40000
20
107.08801
30
36.00000
0
VERTEX
8
12_36000
10
7.43200
20
106.69401
30
36.00000
0
VERTEX
8
12_36000
10
7.56500
20
105.59901
30
36.00000
0
VERTEX
8
12_36000
10
7.63400
20
105.11001
30
36.00000
0
VERTEX
8
12_36000
10
7.71600
20
104.32401
30
36.00000
0
VERTEX
8
12_36000
10
7.74400
20
103.93201
30
36.00000
0
VERTEX
8
12_36000
10
7.77000
20
103.15401
30
36.00000
0
VERTEX
8
12_36000
10
7.79200
20
102.76401
30
36.00000
0
VERTEX
8
12_36000
10
7.98600
20
99.93501
30
36.00000
0
VERTEX
8
12_36000
10
8.04400
20
98.11001
30
36.00000
0
VERTEX
8
12_36000
10
8.09500
20
97.06200
30
36.00000
0
VERTEX
8
12_36000
10
8.10600
20
96.18001
30
36.00000
0
VERTEX
8
12_36000
10
8.13400
20
95.79601
30
36.00000
0
VERTEX
8
12_36000
10
8.18200
20
94.64001
30
36.00000
0
VERTEX
8
12_36000
10
8.24200
20
92.60101
30
36.00000
0
VERTEX
8
12_36000
10
8.25600
20
92.33200
30
36.00000
0
VERTEX
8
12_36000
10
8.31100
20
91.68501
30
36.00000
0
VERTEX
8
12_36000
10
8.41600
20
90.04000
30
36.00000
0
VERTEX
8
12_36000
10
8.42800
20
89.65601
30
36.00000
0
VERTEX
8
12_36000
10
8.41400
20
88.88800
30
36.00000
0
VERTEX
8
12_36000
10
8.44400
20
87.47900
30
36.00000
0
VERTEX
8
12_36000
10
8.49600
20
86.21201
30
36.00000
0
VERTEX
8
12_36000
10
8.48700
20
84.54100
30
36.00000
0
VERTEX
8
12_36000
10
8.45400
20
82.37400
30
36.00000
0
VERTEX
8
12_36000
10
8.40000
20
80.83000
30
36.00000
0
VERTEX
8
12_36000
10
8.41600
20
80.45000
30
36.00000
0
VERTEX
8
12_36000
10
8.41800
20
80.06600
30
36.00000
0
VERTEX
8
12_36000
10
8.39200
20
79.29401
30
36.00000
0
VERTEX
8
12_36000
10
8.40800
20
76.99800
30
36.00000
0
VERTEX
8
12_36000
10
8.38400
20
76.22200
30
36.00000
0
VERTEX
8
12_36000
10
8.41000
20
75.46400
30
36.00000
0
VERTEX
8
12_36000
10
8.41000
20
73.93000
30
36.00000
0
VERTEX
8
12_36000
10
8.42200
20
73.16400
30
36.00000
0
VERTEX
8
12_36000
10
8.40000
20
71.62200
30
36.00000
0
VERTEX
8
12_36000
10
8.43800
20
70.48400
30
36.00000
0
VERTEX
8
12_36000
10
8.44600
20
68.95600
30
36.00000
0
VERTEX
8
12_36000
10
8.43800
20
67.41801
30
36.00000
0
VERTEX
8
12_36000
10
8.40200
20
64.59901
30
36.00000
0
VERTEX
8
12_36000
10
8.37800
20
61.63800
30
36.00000
0
VERTEX
8
12_36000
10
8.33400
20
60.08200
30
36.00000
0
VERTEX
8
12_36000
10
8.33600
20
59.31600
30
36.00000
0
VERTEX
8
12_36000
10
8.36200
20
58.55800
30
36.00000
0
VERTEX
8
12_36000
10
8.36000
20
58.17600
30
36.00000
0
VERTEX
8
12_36000
10
8.37400
20
57.15000
30
36.00000
0
VERTEX
8
12_36000
10
8.40200
20
55.89600
30
36.00000
0
VERTEX
8
12_36000
10
8.40200
20
55.13000
30
36.00000
0
VERTEX
8
12_36000
10
8.42000
20
53.86700
30
36.00000
0
VERTEX
8
12_36000
10
8.47600
20
52.10600
30
36.00000
0
VERTEX
8
12_36000
10
8.49200
20
51.34800
30
36.00000
0
VERTEX
8
12_36000
10
8.58800
20
48.73000
30
36.00000
0
VERTEX
8
12_36000
10
8.63200
20
47.73800
30
36.00000
0
VERTEX
8
12_36000
10
8.71600
20
46.14200
30
36.00000
0
VERTEX
8
12_36000
10
8.80800
20
44.68000
30
36.00000
0
VERTEX
8
12_36000
10
9.03200
20
42.04500
30
36.00000
0
VERTEX
8
12_36000
10
9.32200
20
38.99400
30
36.00000
0
VERTEX
8
12_36000
10
9.62600
20
36.37400
30
36.00000
0
VERTEX
8
12_36000
10
9.80000
20
35.02000
30
36.00000
0
SEQEND
8
12_36000
0
ENDSEC
0
EOF
