0
SECTION
2
HEADER
9
$ACADVER
1
AC1009
0
ENDSEC
0
SECTION
2
TABLES
0
TABLE
2
LAYER
70
1
0
LAYER
2
19_57000
70
0
62
7
6
CONTINUOUS
0
ENDTAB
0
ENDSEC
0
SECTION
2
BLOCKS
0
ENDSEC
0
SECTION
2
ENTITIES
0
POLYLINE
8
19_57000
62
5
0
VERTEX
8
19_57000
10
21.38600
20
183.58401
30
57.00000
0
VERTEX
8
19_57000
10
156.49001
20
183.37401
30
57.00000
0
VERTEX
8
19_57000
10
21.38600
20
183.58401
30
57.00000
0
SEQEND
8
19_57000
0
POLYLINE
8
19_57000
62
5
0
VERTEX
8
19_57000
10
98.19601
20
181.70001
30
57.00000
0
VERTEX
8
19_57000
10
39.88800
20
180.02600
30
57.00000
0
VERTEX
8
19_57000
10
98.19601
20
181.70001
30
57.00000
0
SEQEND
8
19_57000
0
POLYLINE
8
19_57000
62
5
0
VERTEX
8
19_57000
10
30.02200
20
181.81201
30
57.00000
0
VERTEX
8
19_57000
10
29.98200
20
181.82001
30
57.00000
0
VERTEX
8
19_57000
10
156.49001
20
183.37401
30
57.00000
0
VERTEX
8
19_57000
10
30.02200
20
181.81201
30
57.00000
0
SEQEND
8
19_57000
0
POLYLINE
8
19_57000
62
5
0
VERTEX
8
19_57000
10
9.81300
20
34.90500
30
57.00000
0
VERTEX
8
19_57000
10
10.06800
20
32.85600
30
57.00000
0
VERTEX
8
19_57000
10
10.16600
20
32.19600
30
57.00000
0
VERTEX
8
19_57000
10
10.43100
20
30.11500
30
57.00000
0
VERTEX
8
19_57000
10
10.51200
20
29.53800
30
57.00000
0
VERTEX
8
19_57000
10
10.95200
20
26.14300
30
57.00000
0
VERTEX
8
19_57000
10
11.13100
20
24.67200
30
57.00000
0
VERTEX
8
19_57000
10
11.18800
20
24.29200
30
57.00000
0
VERTEX
8
19_57000
10
11.65300
20
20.54800
30
57.00000
0
VERTEX
8
19_57000
10
11.78200
20
19.44200
30
57.00000
0
VERTEX
8
19_57000
10
11.98100
20
17.93000
30
57.00000
0
VERTEX
8
19_57000
10
12.09100
20
16.98100
30
57.00000
0
VERTEX
8
19_57000
10
12.24500
20
15.79500
30
57.00000
0
VERTEX
8
19_57000
10
12.60400
20
12.89600
30
57.00000
0
VERTEX
8
19_57000
10
13.22400
20
7.71700
30
57.00000
0
VERTEX
8
19_57000
10
13.54000
20
4.96100
30
57.00000
0
VERTEX
8
19_57000
10
13.59200
20
4.43800
30
57.00000
0
VERTEX
8
19_57000
10
13.99000
20
0.98900
30
57.00000
0
VERTEX
8
19_57000
10
14.09200
20
0.00600
30
57.00000
0
VERTEX
8
19_57000
10
131.54800
20
0.00600
30
57.00000
0
VERTEX
8
19_57000
10
131.36101
20
0.26800
30
57.00000
0
VERTEX
8
19_57000
10
130.65401
20
1.36600
30
57.00000
0
VERTEX
8
19_57000
10
130.19701
20
2.18600
30
57.00000
0
VERTEX
8
19_57000
10
129.98401
20
2.52000
30
57.00000
0
VERTEX
8
19_57000
10
129.71400
20
2.99800
30
57.00000
0
VERTEX
8
19_57000
10
129.50601
20
3.38500
30
57.00000
0
VERTEX
8
19_57000
10
129.06500
20
4.13900
30
57.00000
0
VERTEX
8
19_57000
10
128.23100
20
5.61900
30
57.00000
0
VERTEX
8
19_57000
10
127.78700
20
6.59500
30
57.00000
0
VERTEX
8
19_57000
10
127.32700
20
7.80900
30
57.00000
0
VERTEX
8
19_57000
10
127.15900
20
8.41500
30
57.00000
0
VERTEX
8
19_57000
10
127.18401
20
8.49200
30
57.00000
0
VERTEX
8
19_57000
10
127.15900
20
8.64700
30
57.00000
0
VERTEX
8
19_57000
10
127.17001
20
8.87000
30
57.00000
0
VERTEX
8
19_57000
10
127.12601
20
9.25600
30
57.00000
0
VERTEX
8
19_57000
10
127.13200
20
9.28200
30
57.00000
0
VERTEX
8
19_57000
10
127.83001
20
10.52300
30
57.00000
0
VERTEX
8
19_57000
10
128.48401
20
11.71500
30
57.00000
0
VERTEX
8
19_57000
10
128.59001
20
11.86100
30
57.00000
0
VERTEX
8
19_57000
10
128.71201
20
12.07000
30
57.00000
0
VERTEX
8
19_57000
10
129.65001
20
13.90600
30
57.00000
0
VERTEX
8
19_57000
10
129.87801
20
14.38800
30
57.00000
0
VERTEX
8
19_57000
10
130.97000
20
16.49600
30
57.00000
0
VERTEX
8
19_57000
10
131.01701
20
16.63300
30
57.00000
0
VERTEX
8
19_57000
10
131.09100
20
16.81000
30
57.00000
0
VERTEX
8
19_57000
10
131.25200
20
17.27000
30
57.00000
0
VERTEX
8
19_57000
10
132.13301
20
19.29800
30
57.00000
0
VERTEX
8
19_57000
10
132.28900
20
19.75500
30
57.00000
0
VERTEX
8
19_57000
10
132.35101
20
19.86700
30
57.00000
0
VERTEX
8
19_57000
10
132.84201
20
21.16800
30
57.00000
0
VERTEX
8
19_57000
10
133.04800
20
21.61100
30
57.00000
0
VERTEX
8
19_57000
10
133.24600
20
22.26900
30
57.00000
0
VERTEX
8
19_57000
10
133.74901
20
23.17800
30
57.00000
0
VERTEX
8
19_57000
10
133.79201
20
23.27100
30
57.00000
0
VERTEX
8
19_57000
10
133.85001
20
23.42000
30
57.00000
0
VERTEX
8
19_57000
10
133.97101
20
23.80200
30
57.00000
0
VERTEX
8
19_57000
10
134.02000
20
23.90500
30
57.00000
0
VERTEX
8
19_57000
10
134.25200
20
24.63200
30
57.00000
0
VERTEX
8
19_57000
10
134.50200
20
25.11300
30
57.00000
0
VERTEX
8
19_57000
10
134.69501
20
25.42700
30
57.00000
0
VERTEX
8
19_57000
10
134.77600
20
25.58100
30
57.00000
0
VERTEX
8
19_57000
10
134.78500
20
25.61900
30
57.00000
0
VERTEX
8
19_57000
10
134.83400
20
25.73200
30
57.00000
0
VERTEX
8
19_57000
10
135.02600
20
26.13000
30
57.00000
0
VERTEX
8
19_57000
10
135.56801
20
26.63600
30
57.00000
0
VERTEX
8
19_57000
10
135.60201
20
26.70900
30
57.00000
0
VERTEX
8
19_57000
10
135.62801
20
27.34200
30
57.00000
0
VERTEX
8
19_57000
10
135.66301
20
27.46900
30
57.00000
0
VERTEX
8
19_57000
10
136.01201
20
28.23000
30
57.00000
0
VERTEX
8
19_57000
10
136.09700
20
28.37200
30
57.00000
0
VERTEX
8
19_57000
10
136.16400
20
28.51900
30
57.00000
0
VERTEX
8
19_57000
10
136.28500
20
28.62900
30
57.00000
0
VERTEX
8
19_57000
10
136.43800
20
28.98700
30
57.00000
0
VERTEX
8
19_57000
10
136.56201
20
29.22000
30
57.00000
0
VERTEX
8
19_57000
10
136.61801
20
29.28300
30
57.00000
0
VERTEX
8
19_57000
10
136.89900
20
29.66400
30
57.00000
0
VERTEX
8
19_57000
10
137.14700
20
30.13400
30
57.00000
0
VERTEX
8
19_57000
10
137.31001
20
30.50400
30
57.00000
0
VERTEX
8
19_57000
10
137.34300
20
30.64500
30
57.00000
0
VERTEX
8
19_57000
10
137.57301
20
31.08300
30
57.00000
0
VERTEX
8
19_57000
10
137.78201
20
31.64300
30
57.00000
0
VERTEX
8
19_57000
10
137.96701
20
32.21300
30
57.00000
0
VERTEX
8
19_57000
10
138.25101
20
32.57300
30
57.00000
0
VERTEX
8
19_57000
10
138.51701
20
33.03300
30
57.00000
0
VERTEX
8
19_57000
10
138.73700
20
33.38800
30
57.00000
0
VERTEX
8
19_57000
10
139.09100
20
34.00400
30
57.00000
0
VERTEX
8
19_57000
10
139.50500
20
34.63800
30
57.00000
0
VERTEX
8
19_57000
10
139.51601
20
34.67900
30
57.00000
0
VERTEX
8
19_57000
10
139.51201
20
34.79300
30
57.00000
0
VERTEX
8
19_57000
10
139.62401
20
34.96300
30
57.00000
0
VERTEX
8
19_57000
10
139.80701
20
35.43800
30
57.00000
0
VERTEX
8
19_57000
10
139.84201
20
35.70400
30
57.00000
0
VERTEX
8
19_57000
10
139.81900
20
35.81800
30
57.00000
0
VERTEX
8
19_57000
10
139.81300
20
35.91500
30
57.00000
0
VERTEX
8
19_57000
10
139.91501
20
36.34900
30
57.00000
0
VERTEX
8
19_57000
10
140.13600
20
36.80300
30
57.00000
0
VERTEX
8
19_57000
10
140.25000
20
37.12100
30
57.00000
0
VERTEX
8
19_57000
10
140.32600
20
37.37200
30
57.00000
0
VERTEX
8
19_57000
10
140.48100
20
37.72600
30
57.00000
0
VERTEX
8
19_57000
10
140.59901
20
37.97200
30
57.00000
0
VERTEX
8
19_57000
10
140.82301
20
38.56100
30
57.00000
0
VERTEX
8
19_57000
10
141.46400
20
39.55600
30
57.00000
0
VERTEX
8
19_57000
10
141.47900
20
39.56800
30
57.00000
0
VERTEX
8
19_57000
10
141.49301
20
39.61200
30
57.00000
0
VERTEX
8
19_57000
10
141.89601
20
40.24600
30
57.00000
0
VERTEX
8
19_57000
10
141.93600
20
40.34700
30
57.00000
0
VERTEX
8
19_57000
10
142.01001
20
40.55400
30
57.00000
0
VERTEX
8
19_57000
10
142.29601
20
41.51000
30
57.00000
0
VERTEX
8
19_57000
10
142.32401
20
41.76600
30
57.00000
0
VERTEX
8
19_57000
10
142.82701
20
43.05900
30
57.00000
0
VERTEX
8
19_57000
10
142.80701
20
43.40900
30
57.00000
0
VERTEX
8
19_57000
10
142.84401
20
43.48400
30
57.00000
0
VERTEX
8
19_57000
10
142.87001
20
43.62900
30
57.00000
0
VERTEX
8
19_57000
10
142.93301
20
43.80100
30
57.00000
0
VERTEX
8
19_57000
10
142.97101
20
44.33900
30
57.00000
0
VERTEX
8
19_57000
10
143.05801
20
44.50700
30
57.00000
0
VERTEX
8
19_57000
10
143.64201
20
46.11000
30
57.00000
0
VERTEX
8
19_57000
10
143.97501
20
46.89600
30
57.00000
0
VERTEX
8
19_57000
10
144.36301
20
47.58300
30
57.00000
0
VERTEX
8
19_57000
10
144.90100
20
48.61200
30
57.00000
0
VERTEX
8
19_57000
10
145.01601
20
48.86100
30
57.00000
0
VERTEX
8
19_57000
10
145.16600
20
49.10100
30
57.00000
0
VERTEX
8
19_57000
10
145.41701
20
49.42500
30
57.00000
0
VERTEX
8
19_57000
10
145.59700
20
49.86100
30
57.00000
0
VERTEX
8
19_57000
10
145.82800
20
50.30100
30
57.00000
0
VERTEX
8
19_57000
10
145.87601
20
50.43500
30
57.00000
0
VERTEX
8
19_57000
10
145.90100
20
50.60600
30
57.00000
0
VERTEX
8
19_57000
10
146.02101
20
50.72300
30
57.00000
0
VERTEX
8
19_57000
10
146.30701
20
51.42900
30
57.00000
0
VERTEX
8
19_57000
10
146.38301
20
51.75700
30
57.00000
0
VERTEX
8
19_57000
10
146.41701
20
51.97300
30
57.00000
0
VERTEX
8
19_57000
10
146.66400
20
52.77200
30
57.00000
0
VERTEX
8
19_57000
10
146.87100
20
53.33800
30
57.00000
0
VERTEX
8
19_57000
10
146.99101
20
53.71000
30
57.00000
0
VERTEX
8
19_57000
10
147.09801
20
53.92600
30
57.00000
0
VERTEX
8
19_57000
10
147.09401
20
53.98300
30
57.00000
0
VERTEX
8
19_57000
10
147.40501
20
54.66100
30
57.00000
0
VERTEX
8
19_57000
10
147.59300
20
54.79300
30
57.00000
0
VERTEX
8
19_57000
10
147.68401
20
54.89100
30
57.00000
0
VERTEX
8
19_57000
10
148.03300
20
55.55100
30
57.00000
0
VERTEX
8
19_57000
10
148.05101
20
55.60200
30
57.00000
0
VERTEX
8
19_57000
10
148.10001
20
55.64100
30
57.00000
0
VERTEX
8
19_57000
10
148.47501
20
56.50700
30
57.00000
0
VERTEX
8
19_57000
10
148.73201
20
57.12800
30
57.00000
0
VERTEX
8
19_57000
10
148.93501
20
57.88000
30
57.00000
0
VERTEX
8
19_57000
10
149.26801
20
58.52600
30
57.00000
0
VERTEX
8
19_57000
10
149.36401
20
58.75100
30
57.00000
0
VERTEX
8
19_57000
10
149.84700
20
59.61600
30
57.00000
0
VERTEX
8
19_57000
10
150.04601
20
60.03800
30
57.00000
0
VERTEX
8
19_57000
10
150.35701
20
60.86700
30
57.00000
0
VERTEX
8
19_57000
10
150.57901
20
61.33800
30
57.00000
0
VERTEX
8
19_57000
10
150.81900
20
62.24200
30
57.00000
0
VERTEX
8
19_57000
10
151.04100
20
62.76300
30
57.00000
0
VERTEX
8
19_57000
10
151.49701
20
64.25401
30
57.00000
0
VERTEX
8
19_57000
10
151.60101
20
64.62300
30
57.00000
0
VERTEX
8
19_57000
10
151.74901
20
65.00301
30
57.00000
0
VERTEX
8
19_57000
10
152.32101
20
66.84800
30
57.00000
0
VERTEX
8
19_57000
10
152.60201
20
67.70000
30
57.00000
0
VERTEX
8
19_57000
10
152.73401
20
68.02000
30
57.00000
0
VERTEX
8
19_57000
10
153.18001
20
69.19000
30
57.00000
0
VERTEX
8
19_57000
10
153.31001
20
69.49300
30
57.00000
0
VERTEX
8
19_57000
10
153.32600
20
69.55100
30
57.00000
0
VERTEX
8
19_57000
10
153.42601
20
69.80300
30
57.00000
0
VERTEX
8
19_57000
10
153.84001
20
71.27700
30
57.00000
0
VERTEX
8
19_57000
10
154.16000
20
72.56001
30
57.00000
0
VERTEX
8
19_57000
10
154.42201
20
73.54501
30
57.00000
0
VERTEX
8
19_57000
10
154.47601
20
73.63600
30
57.00000
0
VERTEX
8
19_57000
10
154.50900
20
73.74100
30
57.00000
0
VERTEX
8
19_57000
10
154.53101
20
73.85500
30
57.00000
0
VERTEX
8
19_57000
10
154.86000
20
74.73000
30
57.00000
0
VERTEX
8
19_57000
10
155.07401
20
75.66901
30
57.00000
0
VERTEX
8
19_57000
10
155.10201
20
75.95400
30
57.00000
0
VERTEX
8
19_57000
10
155.22501
20
76.74300
30
57.00000
0
VERTEX
8
19_57000
10
155.19400
20
76.80601
30
57.00000
0
VERTEX
8
19_57000
10
155.27600
20
77.30801
30
57.00000
0
VERTEX
8
19_57000
10
155.41301
20
78.70400
30
57.00000
0
VERTEX
8
19_57000
10
155.43301
20
78.75800
30
57.00000
0
VERTEX
8
19_57000
10
155.44101
20
78.81200
30
57.00000
0
VERTEX
8
19_57000
10
155.62100
20
79.15301
30
57.00000
0
VERTEX
8
19_57000
10
155.94601
20
80.60101
30
57.00000
0
VERTEX
8
19_57000
10
155.98300
20
80.71900
30
57.00000
0
VERTEX
8
19_57000
10
155.92201
20
80.89900
30
57.00000
0
VERTEX
8
19_57000
10
155.91301
20
81.21001
30
57.00000
0
VERTEX
8
19_57000
10
156.02200
20
81.55000
30
57.00000
0
VERTEX
8
19_57000
10
156.05602
20
81.73901
30
57.00000
0
VERTEX
8
19_57000
10
156.02600
20
81.83401
30
57.00000
0
VERTEX
8
19_57000
10
156.08701
20
82.11800
30
57.00000
0
VERTEX
8
19_57000
10
156.20801
20
82.37200
30
57.00000
0
VERTEX
8
19_57000
10
156.23300
20
82.44701
30
57.00000
0
VERTEX
8
19_57000
10
156.24101
20
82.49900
30
57.00000
0
VERTEX
8
19_57000
10
156.19801
20
82.75500
30
57.00000
0
VERTEX
8
19_57000
10
156.31801
20
83.35900
30
57.00000
0
VERTEX
8
19_57000
10
156.53500
20
83.65900
30
57.00000
0
VERTEX
8
19_57000
10
156.68201
20
84.01601
30
57.00000
0
VERTEX
8
19_57000
10
156.88101
20
84.37400
30
57.00000
0
VERTEX
8
19_57000
10
156.91101
20
84.44601
30
57.00000
0
VERTEX
8
19_57000
10
156.91301
20
84.53500
30
57.00000
0
VERTEX
8
19_57000
10
156.84100
20
85.37200
30
57.00000
0
VERTEX
8
19_57000
10
156.88701
20
85.59901
30
57.00000
0
VERTEX
8
19_57000
10
156.94501
20
86.04100
30
57.00000
0
VERTEX
8
19_57000
10
156.92401
20
86.67600
30
57.00000
0
VERTEX
8
19_57000
10
156.90001
20
87.05400
30
57.00000
0
VERTEX
8
19_57000
10
156.86201
20
88.20300
30
57.00000
0
VERTEX
8
19_57000
10
156.86601
20
88.57800
30
57.00000
0
VERTEX
8
19_57000
10
156.90800
20
89.33401
30
57.00000
0
VERTEX
8
19_57000
10
156.90201
20
90.47201
30
57.00000
0
VERTEX
8
19_57000
10
156.94000
20
91.22800
30
57.00000
0
VERTEX
8
19_57000
10
156.94400
20
92.36800
30
57.00000
0
VERTEX
8
19_57000
10
156.93401
20
92.74500
30
57.00000
0
VERTEX
8
19_57000
10
156.93800
20
93.50600
30
57.00000
0
VERTEX
8
19_57000
10
156.90201
20
95.78201
30
57.00000
0
VERTEX
8
19_57000
10
156.88600
20
96.53800
30
57.00000
0
VERTEX
8
19_57000
10
156.87001
20
96.91500
30
57.00000
0
VERTEX
8
19_57000
10
156.86601
20
97.29800
30
57.00000
0
VERTEX
8
19_57000
10
156.90601
20
98.05501
30
57.00000
0
VERTEX
8
19_57000
10
156.89001
20
98.81200
30
57.00000
0
VERTEX
8
19_57000
10
156.90201
20
100.71201
30
57.00000
0
VERTEX
8
19_57000
10
156.91600
20
101.85400
30
57.00000
0
VERTEX
8
19_57000
10
156.94601
20
102.99200
30
57.00000
0
VERTEX
8
19_57000
10
156.94801
20
103.75301
30
57.00000
0
VERTEX
8
19_57000
10
156.89001
20
104.16000
30
57.00000
0
VERTEX
8
19_57000
10
156.94801
20
104.32101
30
57.00000
0
VERTEX
8
19_57000
10
156.94801
20
105.08000
30
57.00000
0
VERTEX
8
19_57000
10
156.90601
20
105.26900
30
57.00000
0
VERTEX
8
19_57000
10
156.95001
20
105.46101
30
57.00000
0
VERTEX
8
19_57000
10
156.95201
20
105.90501
30
57.00000
0
VERTEX
8
19_57000
10
156.84300
20
106.35500
30
57.00000
0
VERTEX
8
19_57000
10
156.79701
20
106.63801
30
57.00000
0
VERTEX
8
19_57000
10
156.82701
20
107.02901
30
57.00000
0
VERTEX
8
19_57000
10
156.82701
20
107.66701
30
57.00000
0
VERTEX
8
19_57000
10
156.79501
20
108.30601
30
57.00000
0
VERTEX
8
19_57000
10
156.75101
20
108.50401
30
57.00000
0
VERTEX
8
19_57000
10
156.61801
20
109.44401
30
57.00000
0
VERTEX
8
19_57000
10
156.50700
20
110.81801
30
57.00000
0
VERTEX
8
19_57000
10
156.49501
20
111.08801
30
57.00000
0
VERTEX
8
19_57000
10
156.57600
20
111.34100
30
57.00000
0
VERTEX
8
19_57000
10
156.57600
20
111.59501
30
57.00000
0
VERTEX
8
19_57000
10
156.34300
20
112.96301
30
57.00000
0
VERTEX
8
19_57000
10
156.30000
20
113.14400
30
57.00000
0
VERTEX
8
19_57000
10
156.25000
20
114.05901
30
57.00000
0
VERTEX
8
19_57000
10
156.26100
20
114.66701
30
57.00000
0
VERTEX
8
19_57000
10
156.32501
20
115.13701
30
57.00000
0
VERTEX
8
19_57000
10
156.18401
20
115.49300
30
57.00000
0
VERTEX
8
19_57000
10
156.17801
20
115.61301
30
57.00000
0
VERTEX
8
19_57000
10
156.17900
20
116.42200
30
57.00000
0
VERTEX
8
19_57000
10
156.07201
20
116.65501
30
57.00000
0
VERTEX
8
19_57000
10
156.08601
20
116.90800
30
57.00000
0
VERTEX
8
19_57000
10
155.95401
20
117.73601
30
57.00000
0
VERTEX
8
19_57000
10
155.96400
20
117.85801
30
57.00000
0
VERTEX
8
19_57000
10
156.05101
20
118.35500
30
57.00000
0
VERTEX
8
19_57000
10
156.05200
20
118.98801
30
57.00000
0
VERTEX
8
19_57000
10
156.06900
20
119.15701
30
57.00000
0
VERTEX
8
19_57000
10
156.05701
20
119.31300
30
57.00000
0
VERTEX
8
19_57000
10
156.05701
20
119.92300
30
57.00000
0
VERTEX
8
19_57000
10
156.04701
20
120.00101
30
57.00000
0
VERTEX
8
19_57000
10
156.05200
20
120.14400
30
57.00000
0
VERTEX
8
19_57000
10
156.00401
20
120.57800
30
57.00000
0
VERTEX
8
19_57000
10
155.98601
20
121.21001
30
57.00000
0
VERTEX
8
19_57000
10
155.86401
20
122.35001
30
57.00000
0
VERTEX
8
19_57000
10
155.47701
20
124.25301
30
57.00000
0
VERTEX
8
19_57000
10
155.05301
20
126.85801
30
57.00000
0
VERTEX
8
19_57000
10
154.74800
20
127.89700
30
57.00000
0
VERTEX
8
19_57000
10
154.05101
20
131.68100
30
57.00000
0
VERTEX
8
19_57000
10
153.64301
20
134.49200
30
57.00000
0
VERTEX
8
19_57000
10
153.44501
20
136.61301
30
57.00000
0
VERTEX
8
19_57000
10
153.35101
20
137.37001
30
57.00000
0
VERTEX
8
19_57000
10
153.34201
20
137.99501
30
57.00000
0
VERTEX
8
19_57000
10
153.34901
20
138.87300
30
57.00000
0
VERTEX
8
19_57000
10
153.45500
20
140.54201
30
57.00000
0
VERTEX
8
19_57000
10
153.57701
20
141.16200
30
57.00000
0
VERTEX
8
19_57000
10
153.82901
20
142.80801
30
57.00000
0
VERTEX
8
19_57000
10
153.97900
20
143.24101
30
57.00000
0
VERTEX
8
19_57000
10
154.09300
20
143.96600
30
57.00000
0
VERTEX
8
19_57000
10
154.22101
20
144.24501
30
57.00000
0
VERTEX
8
19_57000
10
154.24200
20
144.73901
30
57.00000
0
VERTEX
8
19_57000
10
154.29001
20
144.81401
30
57.00000
0
VERTEX
8
19_57000
10
154.26201
20
145.39401
30
57.00000
0
VERTEX
8
19_57000
10
154.36401
20
146.06801
30
57.00000
0
VERTEX
8
19_57000
10
154.52901
20
146.77000
30
57.00000
0
VERTEX
8
19_57000
10
154.57201
20
147.33400
30
57.00000
0
VERTEX
8
19_57000
10
154.76001
20
148.50700
30
57.00000
0
VERTEX
8
19_57000
10
154.81201
20
148.64201
30
57.00000
0
VERTEX
8
19_57000
10
155.24001
20
150.05301
30
57.00000
0
VERTEX
8
19_57000
10
155.44101
20
150.60101
30
57.00000
0
VERTEX
8
19_57000
10
155.48300
20
150.80101
30
57.00000
0
VERTEX
8
19_57000
10
155.73001
20
151.57101
30
57.00000
0
VERTEX
8
19_57000
10
155.85800
20
152.16600
30
57.00000
0
VERTEX
8
19_57000
10
155.98001
20
152.49600
30
57.00000
0
VERTEX
8
19_57000
10
156.23901
20
153.02200
30
57.00000
0
VERTEX
8
19_57000
10
156.33401
20
153.12401
30
57.00000
0
VERTEX
8
19_57000
10
156.36201
20
153.26300
30
57.00000
0
VERTEX
8
19_57000
10
156.51401
20
153.68600
30
57.00000
0
VERTEX
8
19_57000
10
156.60800
20
153.78700
30
57.00000
0
VERTEX
8
19_57000
10
156.61401
20
153.81201
30
57.00000
0
VERTEX
8
19_57000
10
156.66901
20
153.84901
30
57.00000
0
VERTEX
8
19_57000
10
156.70001
20
153.97501
30
57.00000
0
VERTEX
8
19_57000
10
156.82901
20
154.26601
30
57.00000
0
VERTEX
8
19_57000
10
156.87401
20
154.29901
30
57.00000
0
VERTEX
8
19_57000
10
156.94601
20
154.32201
30
57.00000
0
VERTEX
8
19_57000
10
156.91400
20
154.58301
30
57.00000
0
VERTEX
8
19_57000
10
156.86201
20
155.29901
30
57.00000
0
VERTEX
8
19_57000
10
156.85001
20
155.67201
30
57.00000
0
VERTEX
8
19_57000
10
156.78001
20
156.75401
30
57.00000
0
VERTEX
8
19_57000
10
156.74501
20
157.84100
30
57.00000
0
VERTEX
8
19_57000
10
156.72601
20
158.21701
30
57.00000
0
VERTEX
8
19_57000
10
156.69701
20
158.56300
30
57.00000
0
VERTEX
8
19_57000
10
156.65401
20
159.29601
30
57.00000
0
VERTEX
8
19_57000
10
156.61700
20
160.38101
30
57.00000
0
VERTEX
8
19_57000
10
156.59401
20
160.76401
30
57.00000
0
VERTEX
8
19_57000
10
156.58601
20
161.13600
30
57.00000
0
VERTEX
8
19_57000
10
156.53201
20
162.22000
30
57.00000
0
VERTEX
8
19_57000
10
156.49301
20
163.30501
30
57.00000
0
VERTEX
8
19_57000
10
156.47000
20
163.67601
30
57.00000
0
VERTEX
8
19_57000
10
156.41200
20
165.13400
30
57.00000
0
VERTEX
8
19_57000
10
156.38200
20
166.61401
30
57.00000
0
VERTEX
8
19_57000
10
156.34201
20
167.70601
30
57.00000
0
VERTEX
8
19_57000
10
156.34001
20
168.06100
30
57.00000
0
VERTEX
8
19_57000
10
156.35201
20
168.82501
30
57.00000
0
VERTEX
8
19_57000
10
156.34401
20
169.59201
30
57.00000
0
VERTEX
8
19_57000
10
156.36501
20
171.43600
30
57.00000
0
VERTEX
8
19_57000
10
156.37201
20
171.88000
30
57.00000
0
VERTEX
8
19_57000
10
156.40201
20
172.66000
30
57.00000
0
VERTEX
8
19_57000
10
156.42001
20
174.18800
30
57.00000
0
VERTEX
8
19_57000
10
156.45401
20
174.97801
30
57.00000
0
VERTEX
8
19_57000
10
156.46201
20
175.34702
30
57.00000
0
VERTEX
8
19_57000
10
156.45401
20
175.71701
30
57.00000
0
VERTEX
8
19_57000
10
156.46001
20
176.86801
30
57.00000
0
VERTEX
8
19_57000
10
156.44601
20
177.96701
30
57.00000
0
VERTEX
8
19_57000
10
156.45001
20
181.02101
30
57.00000
0
VERTEX
8
19_57000
10
156.46201
20
181.75700
30
57.00000
0
VERTEX
8
19_57000
10
156.48201
20
182.17401
30
57.00000
0
VERTEX
8
19_57000
10
156.47801
20
182.91000
30
57.00000
0
VERTEX
8
19_57000
10
156.49001
20
183.37401
30
57.00000
0
VERTEX
8
19_57000
10
86.07301
20
183.79501
30
57.00000
0
VERTEX
8
19_57000
10
76.81400
20
183.79301
30
57.00000
0
VERTEX
8
19_57000
10
156.49001
20
183.37401
30
57.00000
0
VERTEX
8
19_57000
10
75.97200
20
183.79501
30
57.00000
0
VERTEX
8
19_57000
10
70.96001
20
183.79201
30
57.00000
0
VERTEX
8
19_57000
10
83.35600
20
183.73201
30
57.00000
0
VERTEX
8
19_57000
10
70.27000
20
183.79601
30
57.00000
0
VERTEX
8
19_57000
10
59.48000
20
183.79401
30
57.00000
0
VERTEX
8
19_57000
10
156.49001
20
183.37401
30
57.00000
0
VERTEX
8
19_57000
10
58.35200
20
183.79401
30
57.00000
0
VERTEX
8
19_57000
10
18.34900
20
183.79501
30
57.00000
0
VERTEX
8
19_57000
10
18.37800
20
183.72501
30
57.00000
0
VERTEX
8
19_57000
10
18.49600
20
183.51801
30
57.00000
0
VERTEX
8
19_57000
10
18.49300
20
183.50002
30
57.00000
0
VERTEX
8
19_57000
10
18.57100
20
183.33601
30
57.00000
0
VERTEX
8
19_57000
10
18.92800
20
182.02200
30
57.00000
0
VERTEX
8
19_57000
10
18.97000
20
181.89001
30
57.00000
0
VERTEX
8
19_57000
10
19.03300
20
181.73201
30
57.00000
0
VERTEX
8
19_57000
10
19.46900
20
179.84201
30
57.00000
0
VERTEX
8
19_57000
10
19.73400
20
178.82001
30
57.00000
0
VERTEX
8
19_57000
10
19.92700
20
177.62601
30
57.00000
0
VERTEX
8
19_57000
10
20.26100
20
176.67101
30
57.00000
0
VERTEX
8
19_57000
10
20.27800
20
176.50801
30
57.00000
0
VERTEX
8
19_57000
10
20.46600
20
175.31500
30
57.00000
0
VERTEX
8
19_57000
10
20.62600
20
174.82201
30
57.00000
0
VERTEX
8
19_57000
10
20.73500
20
173.95901
30
57.00000
0
VERTEX
8
19_57000
10
20.82700
20
173.46800
30
57.00000
0
VERTEX
8
19_57000
10
21.09100
20
170.32001
30
57.00000
0
VERTEX
8
19_57000
10
21.16100
20
169.85701
30
57.00000
0
VERTEX
8
19_57000
10
21.46500
20
166.85101
30
57.00000
0
VERTEX
8
19_57000
10
21.77700
20
165.05101
30
57.00000
0
VERTEX
8
19_57000
10
21.85700
20
164.42801
30
57.00000
0
VERTEX
8
19_57000
10
22.38000
20
161.44601
30
57.00000
0
VERTEX
8
19_57000
10
22.91400
20
158.57701
30
57.00000
0
VERTEX
8
19_57000
10
23.66800
20
154.45100
30
57.00000
0
VERTEX
8
19_57000
10
24.00100
20
152.06100
30
57.00000
0
VERTEX
8
19_57000
10
24.33900
20
150.02600
30
57.00000
0
VERTEX
8
19_57000
10
24.44300
20
148.08801
30
57.00000
0
VERTEX
8
19_57000
10
24.49700
20
147.40800
30
57.00000
0
VERTEX
8
19_57000
10
24.51000
20
147.08900
30
57.00000
0
VERTEX
8
19_57000
10
24.57400
20
143.92201
30
57.00000
0
VERTEX
8
19_57000
10
24.65300
20
143.35201
30
57.00000
0
VERTEX
8
19_57000
10
24.60400
20
142.34500
30
57.00000
0
VERTEX
8
19_57000
10
24.41900
20
140.24600
30
57.00000
0
VERTEX
8
19_57000
10
24.37600
20
139.37500
30
57.00000
0
VERTEX
8
19_57000
10
24.17900
20
137.36101
30
57.00000
0
VERTEX
8
19_57000
10
23.83700
20
135.25301
30
57.00000
0
VERTEX
8
19_57000
10
22.78600
20
129.91600
30
57.00000
0
VERTEX
8
19_57000
10
22.60200
20
128.89401
30
57.00000
0
VERTEX
8
19_57000
10
21.93800
20
125.69601
30
57.00000
0
VERTEX
8
19_57000
10
21.55900
20
123.73901
30
57.00000
0
VERTEX
8
19_57000
10
21.43100
20
123.00900
30
57.00000
0
VERTEX
8
19_57000
10
21.34800
20
122.60901
30
57.00000
0
VERTEX
8
19_57000
10
21.06800
20
120.95200
30
57.00000
0
VERTEX
8
19_57000
10
20.78900
20
119.55701
30
57.00000
0
VERTEX
8
19_57000
10
20.29900
20
116.99001
30
57.00000
0
VERTEX
8
19_57000
10
20.13900
20
116.32600
30
57.00000
0
VERTEX
8
19_57000
10
19.94000
20
115.25101
30
57.00000
0
VERTEX
8
19_57000
10
19.53800
20
113.43401
30
57.00000
0
VERTEX
8
19_57000
10
19.20500
20
111.98401
30
57.00000
0
VERTEX
8
19_57000
10
19.11300
20
111.62801
30
57.00000
0
VERTEX
8
19_57000
10
18.34000
20
108.41400
30
57.00000
0
VERTEX
8
19_57000
10
18.08400
20
107.24500
30
57.00000
0
VERTEX
8
19_57000
10
17.69100
20
105.24801
30
57.00000
0
VERTEX
8
19_57000
10
16.94600
20
101.22401
30
57.00000
0
VERTEX
8
19_57000
10
16.86600
20
100.71600
30
57.00000
0
VERTEX
8
19_57000
10
16.83700
20
100.39101
30
57.00000
0
VERTEX
8
19_57000
10
16.75000
20
100.04501
30
57.00000
0
VERTEX
8
19_57000
10
16.40700
20
97.76601
30
57.00000
0
VERTEX
8
19_57000
10
16.22700
20
96.54101
30
57.00000
0
VERTEX
8
19_57000
10
16.21000
20
96.34500
30
57.00000
0
VERTEX
8
19_57000
10
15.96000
20
94.75101
30
57.00000
0
VERTEX
8
19_57000
10
15.79600
20
93.49901
30
57.00000
0
VERTEX
8
19_57000
10
15.65700
20
92.53001
30
57.00000
0
VERTEX
8
19_57000
10
15.60900
20
92.36700
30
57.00000
0
VERTEX
8
19_57000
10
15.58600
20
92.02901
30
57.00000
0
VERTEX
8
19_57000
10
15.55800
20
91.94901
30
57.00000
0
VERTEX
8
19_57000
10
15.51500
20
91.43501
30
57.00000
0
VERTEX
8
19_57000
10
15.31900
20
89.91000
30
57.00000
0
VERTEX
8
19_57000
10
15.29300
20
89.64700
30
57.00000
0
VERTEX
8
19_57000
10
15.31200
20
89.49300
30
57.00000
0
VERTEX
8
19_57000
10
15.13400
20
88.52700
30
57.00000
0
VERTEX
8
19_57000
10
15.11600
20
87.50401
30
57.00000
0
VERTEX
8
19_57000
10
15.10400
20
87.37501
30
57.00000
0
VERTEX
8
19_57000
10
14.89100
20
86.07500
30
57.00000
0
VERTEX
8
19_57000
10
14.85100
20
85.30801
30
57.00000
0
VERTEX
8
19_57000
10
14.84000
20
84.69400
30
57.00000
0
VERTEX
8
19_57000
10
14.79000
20
84.52500
30
57.00000
0
VERTEX
8
19_57000
10
14.78500
20
84.15100
30
57.00000
0
VERTEX
8
19_57000
10
14.79900
20
83.23200
30
57.00000
0
VERTEX
8
19_57000
10
14.88700
20
82.48901
30
57.00000
0
VERTEX
8
19_57000
10
14.93500
20
82.19801
30
57.00000
0
VERTEX
8
19_57000
10
14.92000
20
82.18700
30
57.00000
0
VERTEX
8
19_57000
10
15.04800
20
81.41901
30
57.00000
0
VERTEX
8
19_57000
10
15.27700
20
79.68301
30
57.00000
0
VERTEX
8
19_57000
10
15.41600
20
78.89400
30
57.00000
0
VERTEX
8
19_57000
10
15.54900
20
77.70100
30
57.00000
0
VERTEX
8
19_57000
10
15.76800
20
76.72401
30
57.00000
0
VERTEX
8
19_57000
10
16.09100
20
74.21400
30
57.00000
0
VERTEX
8
19_57000
10
16.15100
20
73.64500
30
57.00000
0
VERTEX
8
19_57000
10
16.14000
20
73.40401
30
57.00000
0
VERTEX
8
19_57000
10
16.27300
20
72.63500
30
57.00000
0
VERTEX
8
19_57000
10
16.33300
20
71.94701
30
57.00000
0
VERTEX
8
19_57000
10
16.46300
20
70.86600
30
57.00000
0
VERTEX
8
19_57000
10
16.48900
20
70.55300
30
57.00000
0
VERTEX
8
19_57000
10
16.68400
20
69.62000
30
57.00000
0
VERTEX
8
19_57000
10
16.91700
20
68.75000
30
57.00000
0
VERTEX
8
19_57000
10
17.05100
20
68.45600
30
57.00000
0
VERTEX
8
19_57000
10
17.21300
20
67.10101
30
57.00000
0
VERTEX
8
19_57000
10
17.27800
20
66.69200
30
57.00000
0
VERTEX
8
19_57000
10
17.29200
20
66.22601
30
57.00000
0
VERTEX
8
19_57000
10
17.60000
20
64.36600
30
57.00000
0
VERTEX
8
19_57000
10
17.67700
20
63.60500
30
57.00000
0
VERTEX
8
19_57000
10
17.76500
20
63.06600
30
57.00000
0
VERTEX
8
19_57000
10
17.77500
20
62.86100
30
57.00000
0
VERTEX
8
19_57000
10
17.99600
20
61.88000
30
57.00000
0
VERTEX
8
19_57000
10
18.05300
20
61.53900
30
57.00000
0
VERTEX
8
19_57000
10
18.21200
20
60.30800
30
57.00000
0
VERTEX
8
19_57000
10
18.43700
20
58.96600
30
57.00000
0
VERTEX
8
19_57000
10
18.47700
20
58.67500
30
57.00000
0
VERTEX
8
19_57000
10
18.57300
20
58.37000
30
57.00000
0
VERTEX
8
19_57000
10
18.64000
20
58.02000
30
57.00000
0
VERTEX
8
19_57000
10
18.69400
20
57.07300
30
57.00000
0
VERTEX
8
19_57000
10
18.85600
20
56.56600
30
57.00000
0
VERTEX
8
19_57000
10
18.86500
20
55.89700
30
57.00000
0
VERTEX
8
19_57000
10
18.99000
20
55.06900
30
57.00000
0
VERTEX
8
19_57000
10
19.08200
20
54.10200
30
57.00000
0
VERTEX
8
19_57000
10
19.11800
20
53.42500
30
57.00000
0
VERTEX
8
19_57000
10
19.25200
20
52.46900
30
57.00000
0
VERTEX
8
19_57000
10
19.42400
20
51.58200
30
57.00000
0
VERTEX
8
19_57000
10
19.36900
20
51.16200
30
57.00000
0
VERTEX
8
19_57000
10
19.36900
20
50.83500
30
57.00000
0
VERTEX
8
19_57000
10
19.38100
20
50.76200
30
57.00000
0
VERTEX
8
19_57000
10
19.37800
20
50.49700
30
57.00000
0
VERTEX
8
19_57000
10
19.50000
20
49.52700
30
57.00000
0
VERTEX
8
19_57000
10
19.50700
20
49.41200
30
57.00000
0
VERTEX
8
19_57000
10
19.43600
20
47.72100
30
57.00000
0
VERTEX
8
19_57000
10
19.39600
20
47.65800
30
57.00000
0
VERTEX
8
19_57000
10
19.42600
20
47.58300
30
57.00000
0
VERTEX
8
19_57000
10
19.38800
20
46.91000
30
57.00000
0
VERTEX
8
19_57000
10
19.39600
20
46.82600
30
57.00000
0
VERTEX
8
19_57000
10
19.38800
20
46.74100
30
57.00000
0
VERTEX
8
19_57000
10
19.36400
20
45.89100
30
57.00000
0
VERTEX
8
19_57000
10
19.02400
20
44.67100
30
57.00000
0
VERTEX
8
19_57000
10
18.71000
20
44.21100
30
57.00000
0
VERTEX
8
19_57000
10
18.70100
20
44.06100
30
57.00000
0
VERTEX
8
19_57000
10
18.51700
20
43.33000
30
57.00000
0
VERTEX
8
19_57000
10
18.47500
20
43.27300
30
57.00000
0
VERTEX
8
19_57000
10
18.41100
20
43.15900
30
57.00000
0
VERTEX
8
19_57000
10
18.23600
20
43.04600
30
57.00000
0
VERTEX
8
19_57000
10
17.99400
20
42.74000
30
57.00000
0
VERTEX
8
19_57000
10
17.37500
20
42.36700
30
57.00000
0
VERTEX
8
19_57000
10
17.16400
20
42.14900
30
57.00000
0
VERTEX
8
19_57000
10
16.52100
20
41.91600
30
57.00000
0
VERTEX
8
19_57000
10
16.17500
20
41.77500
30
57.00000
0
VERTEX
8
19_57000
10
14.40300
20
41.72500
30
57.00000
0
VERTEX
8
19_57000
10
14.34600
20
41.71400
30
57.00000
0
VERTEX
8
19_57000
10
13.61000
20
41.64700
30
57.00000
0
VERTEX
8
19_57000
10
13.13600
20
41.62700
30
57.00000
0
VERTEX
8
19_57000
10
12.39500
20
41.43700
30
57.00000
0
VERTEX
8
19_57000
10
12.10000
20
41.37500
30
57.00000
0
VERTEX
8
19_57000
10
11.78800
20
41.29200
30
57.00000
0
VERTEX
8
19_57000
10
9.14900
20
40.80700
30
57.00000
0
VERTEX
8
19_57000
10
9.32200
20
38.99400
30
57.00000
0
VERTEX
8
19_57000
10
9.43400
20
37.98400
30
57.00000
0
VERTEX
8
19_57000
10
9.64000
20
36.25400
30
57.00000
0
VERTEX
8
19_57000
10
9.73600
20
35.56600
30
57.00000
0
VERTEX
8
19_57000
10
9.81300
20
34.90500
30
57.00000
0
SEQEND
8
19_57000
0
ENDSEC
0
EOF
