0
SECTION
2
HEADER
9
$ACADVER
1
AC1009
0
ENDSEC
0
SECTION
2
TABLES
0
TABLE
2
LAYER
70
1
0
LAYER
2
23_69000
70
0
62
7
6
CONTINUOUS
0
ENDTAB
0
ENDSEC
0
SECTION
2
BLOCKS
0
ENDSEC
0
SECTION
2
ENTITIES
0
POLYLINE
8
23_69000
62
5
0
VERTEX
8
23_69000
10
85.07401
20
181.79201
30
69.00000
0
VERTEX
8
23_69000
10
52.29000
20
181.78801
30
69.00000
0
VERTEX
8
23_69000
10
30.50900
20
181.79501
30
69.00000
0
VERTEX
8
23_69000
10
30.10500
20
181.79401
30
69.00000
0
VERTEX
8
23_69000
10
30.09800
20
181.78300
30
69.00000
0
VERTEX
8
23_69000
10
29.97300
20
181.20201
30
69.00000
0
VERTEX
8
23_69000
10
29.89100
20
180.76201
30
69.00000
0
VERTEX
8
23_69000
10
29.59700
20
179.61501
30
69.00000
0
VERTEX
8
23_69000
10
29.29800
20
178.11201
30
69.00000
0
VERTEX
8
23_69000
10
29.15900
20
177.20500
30
69.00000
0
VERTEX
8
23_69000
10
28.85600
20
175.79201
30
69.00000
0
VERTEX
8
23_69000
10
28.73400
20
174.92401
30
69.00000
0
VERTEX
8
23_69000
10
28.67400
20
174.37901
30
69.00000
0
VERTEX
8
23_69000
10
28.28800
20
171.57301
30
69.00000
0
VERTEX
8
23_69000
10
28.13700
20
170.00900
30
69.00000
0
VERTEX
8
23_69000
10
28.06200
20
168.48300
30
69.00000
0
VERTEX
8
23_69000
10
28.01200
20
167.91801
30
69.00000
0
VERTEX
8
23_69000
10
28.08900
20
166.11900
30
69.00000
0
VERTEX
8
23_69000
10
28.13600
20
165.41000
30
69.00000
0
VERTEX
8
23_69000
10
28.23700
20
164.37901
30
69.00000
0
VERTEX
8
23_69000
10
28.31300
20
163.87901
30
69.00000
0
VERTEX
8
23_69000
10
28.58100
20
161.54401
30
69.00000
0
VERTEX
8
23_69000
10
28.61600
20
161.34001
30
69.00000
0
VERTEX
8
23_69000
10
28.68600
20
160.75601
30
69.00000
0
VERTEX
8
23_69000
10
28.91200
20
159.59401
30
69.00000
0
VERTEX
8
23_69000
10
29.38900
20
157.33801
30
69.00000
0
VERTEX
8
23_69000
10
29.62100
20
156.03101
30
69.00000
0
VERTEX
8
23_69000
10
30.03900
20
153.95201
30
69.00000
0
VERTEX
8
23_69000
10
30.21100
20
153.24400
30
69.00000
0
VERTEX
8
23_69000
10
30.36600
20
152.54901
30
69.00000
0
VERTEX
8
23_69000
10
30.61200
20
151.24200
30
69.00000
0
VERTEX
8
23_69000
10
31.49900
20
146.37601
30
69.00000
0
VERTEX
8
23_69000
10
31.81600
20
145.16101
30
69.00000
0
VERTEX
8
23_69000
10
32.27400
20
144.01601
30
69.00000
0
VERTEX
8
23_69000
10
32.50900
20
143.58301
30
69.00000
0
VERTEX
8
23_69000
10
32.65100
20
143.24501
30
69.00000
0
VERTEX
8
23_69000
10
32.95900
20
142.23500
30
69.00000
0
VERTEX
8
23_69000
10
33.24600
20
140.51100
30
69.00000
0
VERTEX
8
23_69000
10
33.24000
20
140.40501
30
69.00000
0
VERTEX
8
23_69000
10
33.25900
20
139.62001
30
69.00000
0
VERTEX
8
23_69000
10
33.26700
20
137.05801
30
69.00000
0
VERTEX
8
23_69000
10
33.21600
20
135.90601
30
69.00000
0
VERTEX
8
23_69000
10
33.13300
20
135.31300
30
69.00000
0
VERTEX
8
23_69000
10
33.03500
20
134.39801
30
69.00000
0
VERTEX
8
23_69000
10
32.93200
20
133.88701
30
69.00000
0
VERTEX
8
23_69000
10
32.75900
20
133.10001
30
69.00000
0
VERTEX
8
23_69000
10
32.28300
20
131.11301
30
69.00000
0
VERTEX
8
23_69000
10
31.72800
20
128.88800
30
69.00000
0
VERTEX
8
23_69000
10
31.64500
20
128.50000
30
69.00000
0
VERTEX
8
23_69000
10
31.40200
20
127.57101
30
69.00000
0
VERTEX
8
23_69000
10
30.04900
20
121.97401
30
69.00000
0
VERTEX
8
23_69000
10
29.41900
20
119.28700
30
69.00000
0
VERTEX
8
23_69000
10
28.66800
20
115.94201
30
69.00000
0
VERTEX
8
23_69000
10
28.25900
20
114.22101
30
69.00000
0
VERTEX
8
23_69000
10
27.60600
20
111.04601
30
69.00000
0
VERTEX
8
23_69000
10
27.41200
20
110.01701
30
69.00000
0
VERTEX
8
23_69000
10
27.08800
20
108.53300
30
69.00000
0
VERTEX
8
23_69000
10
26.39000
20
104.76201
30
69.00000
0
VERTEX
8
23_69000
10
26.20400
20
103.69100
30
69.00000
0
VERTEX
8
23_69000
10
25.81600
20
101.15301
30
69.00000
0
VERTEX
8
23_69000
10
25.58600
20
99.28600
30
69.00000
0
VERTEX
8
23_69000
10
25.45500
20
97.92200
30
69.00000
0
VERTEX
8
23_69000
10
25.39100
20
96.30200
30
69.00000
0
VERTEX
8
23_69000
10
25.37700
20
94.55601
30
69.00000
0
VERTEX
8
23_69000
10
25.32600
20
92.04000
30
69.00000
0
VERTEX
8
23_69000
10
25.34200
20
90.59801
30
69.00000
0
VERTEX
8
23_69000
10
25.68900
20
86.63600
30
69.00000
0
VERTEX
8
23_69000
10
25.72800
20
85.87701
30
69.00000
0
VERTEX
8
23_69000
10
26.14600
20
80.52200
30
69.00000
0
VERTEX
8
23_69000
10
26.38600
20
78.46700
30
69.00000
0
VERTEX
8
23_69000
10
26.38400
20
78.41701
30
69.00000
0
VERTEX
8
23_69000
10
26.48300
20
77.84801
30
69.00000
0
VERTEX
8
23_69000
10
26.76700
20
76.46301
30
69.00000
0
VERTEX
8
23_69000
10
27.25300
20
73.93501
30
69.00000
0
VERTEX
8
23_69000
10
27.53300
20
72.02000
30
69.00000
0
VERTEX
8
23_69000
10
27.69700
20
71.08000
30
69.00000
0
VERTEX
8
23_69000
10
28.10300
20
69.36700
30
69.00000
0
VERTEX
8
23_69000
10
28.14600
20
69.09200
30
69.00000
0
VERTEX
8
23_69000
10
28.27400
20
68.52000
30
69.00000
0
VERTEX
8
23_69000
10
28.47800
20
67.71500
30
69.00000
0
VERTEX
8
23_69000
10
28.55000
20
67.21600
30
69.00000
0
VERTEX
8
23_69000
10
29.03300
20
65.13200
30
69.00000
0
VERTEX
8
23_69000
10
29.16700
20
64.29501
30
69.00000
0
VERTEX
8
23_69000
10
29.31200
20
63.83100
30
69.00000
0
VERTEX
8
23_69000
10
29.70200
20
62.08300
30
69.00000
0
VERTEX
8
23_69000
10
29.70900
20
61.68900
30
69.00000
0
VERTEX
8
23_69000
10
29.77700
20
61.03400
30
69.00000
0
VERTEX
8
23_69000
10
29.77000
20
60.91100
30
69.00000
0
VERTEX
8
23_69000
10
29.79000
20
60.58300
30
69.00000
0
VERTEX
8
23_69000
10
29.84800
20
58.97200
30
69.00000
0
VERTEX
8
23_69000
10
29.49200
20
57.09900
30
69.00000
0
VERTEX
8
23_69000
10
29.66100
20
55.63800
30
69.00000
0
VERTEX
8
23_69000
10
29.66200
20
55.55500
30
69.00000
0
VERTEX
8
23_69000
10
29.88800
20
53.78600
30
69.00000
0
VERTEX
8
23_69000
10
29.93800
20
53.65000
30
69.00000
0
VERTEX
8
23_69000
10
29.95700
20
53.35400
30
69.00000
0
VERTEX
8
23_69000
10
30.05300
20
52.70700
30
69.00000
0
VERTEX
8
23_69000
10
30.11000
20
52.58900
30
69.00000
0
VERTEX
8
23_69000
10
30.06600
20
52.46600
30
69.00000
0
VERTEX
8
23_69000
10
30.17100
20
52.21900
30
69.00000
0
VERTEX
8
23_69000
10
30.20800
20
51.97800
30
69.00000
0
VERTEX
8
23_69000
10
30.16500
20
51.81600
30
69.00000
0
VERTEX
8
23_69000
10
30.18800
20
51.23500
30
69.00000
0
VERTEX
8
23_69000
10
30.16300
20
50.80800
30
69.00000
0
VERTEX
8
23_69000
10
30.18600
20
50.65900
30
69.00000
0
VERTEX
8
23_69000
10
30.23400
20
50.06700
30
69.00000
0
VERTEX
8
23_69000
10
30.30100
20
49.81100
30
69.00000
0
VERTEX
8
23_69000
10
30.67500
20
48.89800
30
69.00000
0
VERTEX
8
23_69000
10
30.78500
20
48.71500
30
69.00000
0
VERTEX
8
23_69000
10
31.01000
20
48.05000
30
69.00000
0
VERTEX
8
23_69000
10
31.47100
20
46.80900
30
69.00000
0
VERTEX
8
23_69000
10
31.90600
20
45.41500
30
69.00000
0
VERTEX
8
23_69000
10
32.01200
20
45.15400
30
69.00000
0
VERTEX
8
23_69000
10
32.21600
20
44.83800
30
69.00000
0
VERTEX
8
23_69000
10
32.42200
20
44.45400
30
69.00000
0
VERTEX
8
23_69000
10
32.57300
20
44.19200
30
69.00000
0
VERTEX
8
23_69000
10
32.86400
20
43.92800
30
69.00000
0
VERTEX
8
23_69000
10
33.05600
20
43.73000
30
69.00000
0
VERTEX
8
23_69000
10
33.56100
20
43.05600
30
69.00000
0
VERTEX
8
23_69000
10
33.64900
20
42.80800
30
69.00000
0
VERTEX
8
23_69000
10
33.68200
20
42.61300
30
69.00000
0
VERTEX
8
23_69000
10
33.69200
20
42.53000
30
69.00000
0
VERTEX
8
23_69000
10
33.69500
20
42.07100
30
69.00000
0
VERTEX
8
23_69000
10
33.80100
20
41.14900
30
69.00000
0
VERTEX
8
23_69000
10
33.64800
20
40.22500
30
69.00000
0
VERTEX
8
23_69000
10
33.45700
20
39.52000
30
69.00000
0
VERTEX
8
23_69000
10
33.37000
20
38.99600
30
69.00000
0
VERTEX
8
23_69000
10
33.34400
20
38.92900
30
69.00000
0
VERTEX
8
23_69000
10
33.10000
20
38.56400
30
69.00000
0
VERTEX
8
23_69000
10
33.06200
20
38.48500
30
69.00000
0
VERTEX
8
23_69000
10
32.96300
20
38.31900
30
69.00000
0
VERTEX
8
23_69000
10
32.57300
20
37.83300
30
69.00000
0
VERTEX
8
23_69000
10
32.21600
20
37.06300
30
69.00000
0
VERTEX
8
23_69000
10
32.12200
20
36.88200
30
69.00000
0
VERTEX
8
23_69000
10
32.03900
20
36.75800
30
69.00000
0
VERTEX
8
23_69000
10
31.64100
20
36.08900
30
69.00000
0
VERTEX
8
23_69000
10
31.10900
20
34.88200
30
69.00000
0
VERTEX
8
23_69000
10
30.93500
20
34.39200
30
69.00000
0
VERTEX
8
23_69000
10
30.37800
20
33.55100
30
69.00000
0
VERTEX
8
23_69000
10
30.17200
20
33.27700
30
69.00000
0
VERTEX
8
23_69000
10
29.88600
20
32.84600
30
69.00000
0
VERTEX
8
23_69000
10
29.61300
20
32.52300
30
69.00000
0
VERTEX
8
23_69000
10
29.11200
20
32.03100
30
69.00000
0
VERTEX
8
23_69000
10
28.80300
20
31.67200
30
69.00000
0
VERTEX
8
23_69000
10
28.27900
20
30.90400
30
69.00000
0
VERTEX
8
23_69000
10
27.79800
20
29.83800
30
69.00000
0
VERTEX
8
23_69000
10
27.58000
20
29.45900
30
69.00000
0
VERTEX
8
23_69000
10
27.44100
20
29.09300
30
69.00000
0
VERTEX
8
23_69000
10
27.31600
20
28.42500
30
69.00000
0
VERTEX
8
23_69000
10
27.23100
20
27.78000
30
69.00000
0
VERTEX
8
23_69000
10
27.15200
20
27.33900
30
69.00000
0
VERTEX
8
23_69000
10
27.14100
20
26.69900
30
69.00000
0
VERTEX
8
23_69000
10
27.09700
20
25.99600
30
69.00000
0
VERTEX
8
23_69000
10
27.02200
20
25.65400
30
69.00000
0
VERTEX
8
23_69000
10
26.89300
20
25.33600
30
69.00000
0
VERTEX
8
23_69000
10
26.52800
20
25.14200
30
69.00000
0
VERTEX
8
23_69000
10
26.33200
20
24.99300
30
69.00000
0
VERTEX
8
23_69000
10
26.16400
20
24.97000
30
69.00000
0
VERTEX
8
23_69000
10
24.03000
20
24.57100
30
69.00000
0
VERTEX
8
23_69000
10
23.72500
20
24.56000
30
69.00000
0
VERTEX
8
23_69000
10
23.27700
20
24.58300
30
69.00000
0
VERTEX
8
23_69000
10
20.31500
20
24.47400
30
69.00000
0
VERTEX
8
23_69000
10
18.92900
20
24.50200
30
69.00000
0
VERTEX
8
23_69000
10
18.33100
20
24.52800
30
69.00000
0
VERTEX
8
23_69000
10
16.66400
20
24.50200
30
69.00000
0
VERTEX
8
23_69000
10
16.47800
20
24.51600
30
69.00000
0
VERTEX
8
23_69000
10
16.14200
20
24.50400
30
69.00000
0
VERTEX
8
23_69000
10
15.58000
20
24.57100
30
69.00000
0
VERTEX
8
23_69000
10
15.39000
20
24.57400
30
69.00000
0
VERTEX
8
23_69000
10
15.08800
20
24.61700
30
69.00000
0
VERTEX
8
23_69000
10
14.25000
20
24.70500
30
69.00000
0
VERTEX
8
23_69000
10
12.38100
20
24.97400
30
69.00000
0
VERTEX
8
23_69000
10
12.18700
20
25.01300
30
69.00000
0
VERTEX
8
23_69000
10
11.26200
20
25.16400
30
69.00000
0
VERTEX
8
23_69000
10
11.07400
20
25.17500
30
69.00000
0
VERTEX
8
23_69000
10
11.13800
20
24.61400
30
69.00000
0
VERTEX
8
23_69000
10
11.18800
20
24.29300
30
69.00000
0
VERTEX
8
23_69000
10
11.43000
20
22.36600
30
69.00000
0
VERTEX
8
23_69000
10
11.46600
20
22.02000
30
69.00000
0
VERTEX
8
23_69000
10
11.66600
20
20.44300
30
69.00000
0
VERTEX
8
23_69000
10
11.78200
20
19.44200
30
69.00000
0
VERTEX
8
23_69000
10
11.98700
20
17.87800
30
69.00000
0
VERTEX
8
23_69000
10
12.06500
20
17.18600
30
69.00000
0
VERTEX
8
23_69000
10
12.42200
20
14.37400
30
69.00000
0
VERTEX
8
23_69000
10
12.94300
20
10.09400
30
69.00000
0
VERTEX
8
23_69000
10
13.50000
20
5.31400
30
69.00000
0
VERTEX
8
23_69000
10
13.59200
20
4.43800
30
69.00000
0
VERTEX
8
23_69000
10
13.98600
20
1.03100
30
69.00000
0
VERTEX
8
23_69000
10
14.09200
20
0.00600
30
69.00000
0
VERTEX
8
23_69000
10
112.28300
20
0.00600
30
69.00000
0
VERTEX
8
23_69000
10
112.22301
20
0.65900
30
69.00000
0
VERTEX
8
23_69000
10
112.12901
20
1.11100
30
69.00000
0
VERTEX
8
23_69000
10
112.11301
20
1.28100
30
69.00000
0
VERTEX
8
23_69000
10
112.07900
20
2.16600
30
69.00000
0
VERTEX
8
23_69000
10
112.08501
20
2.36600
30
69.00000
0
VERTEX
8
23_69000
10
112.11201
20
2.65000
30
69.00000
0
VERTEX
8
23_69000
10
112.33301
20
2.93000
30
69.00000
0
VERTEX
8
23_69000
10
112.44000
20
3.14300
30
69.00000
0
VERTEX
8
23_69000
10
112.81001
20
3.54500
30
69.00000
0
VERTEX
8
23_69000
10
113.09601
20
3.83600
30
69.00000
0
VERTEX
8
23_69000
10
113.61900
20
4.41800
30
69.00000
0
VERTEX
8
23_69000
10
115.11900
20
6.13500
30
69.00000
0
VERTEX
8
23_69000
10
115.25401
20
6.33000
30
69.00000
0
VERTEX
8
23_69000
10
115.62100
20
6.78900
30
69.00000
0
VERTEX
8
23_69000
10
116.21301
20
7.57000
30
69.00000
0
VERTEX
8
23_69000
10
116.56001
20
7.97100
30
69.00000
0
VERTEX
8
23_69000
10
116.79900
20
8.27900
30
69.00000
0
VERTEX
8
23_69000
10
117.22101
20
8.79400
30
69.00000
0
VERTEX
8
23_69000
10
117.36600
20
9.00700
30
69.00000
0
VERTEX
8
23_69000
10
118.38400
20
10.19800
30
69.00000
0
VERTEX
8
23_69000
10
118.86401
20
10.74300
30
69.00000
0
VERTEX
8
23_69000
10
119.11401
20
11.07500
30
69.00000
0
VERTEX
8
23_69000
10
120.64900
20
13.25100
30
69.00000
0
VERTEX
8
23_69000
10
120.89500
20
13.67000
30
69.00000
0
VERTEX
8
23_69000
10
121.08401
20
13.96800
30
69.00000
0
VERTEX
8
23_69000
10
121.29001
20
14.36700
30
69.00000
0
VERTEX
8
23_69000
10
121.37501
20
14.50500
30
69.00000
0
VERTEX
8
23_69000
10
121.85101
20
15.58800
30
69.00000
0
VERTEX
8
23_69000
10
121.93700
20
15.75700
30
69.00000
0
VERTEX
8
23_69000
10
122.09501
20
16.20100
30
69.00000
0
VERTEX
8
23_69000
10
122.14700
20
16.31100
30
69.00000
0
VERTEX
8
23_69000
10
122.48401
20
17.16400
30
69.00000
0
VERTEX
8
23_69000
10
122.77300
20
18.11600
30
69.00000
0
VERTEX
8
23_69000
10
122.79800
20
18.23400
30
69.00000
0
VERTEX
8
23_69000
10
122.89800
20
18.98900
30
69.00000
0
VERTEX
8
23_69000
10
122.92600
20
19.06500
30
69.00000
0
VERTEX
8
23_69000
10
123.03801
20
19.51400
30
69.00000
0
VERTEX
8
23_69000
10
123.04601
20
19.76500
30
69.00000
0
VERTEX
8
23_69000
10
123.12701
20
20.22900
30
69.00000
0
VERTEX
8
23_69000
10
123.09000
20
20.66000
30
69.00000
0
VERTEX
8
23_69000
10
123.16000
20
21.51300
30
69.00000
0
VERTEX
8
23_69000
10
123.19701
20
21.63000
30
69.00000
0
VERTEX
8
23_69000
10
123.31801
20
22.60400
30
69.00000
0
VERTEX
8
23_69000
10
123.35400
20
22.69900
30
69.00000
0
VERTEX
8
23_69000
10
123.59300
20
24.05900
30
69.00000
0
VERTEX
8
23_69000
10
123.61600
20
24.13700
30
69.00000
0
VERTEX
8
23_69000
10
123.61401
20
24.16200
30
69.00000
0
VERTEX
8
23_69000
10
123.71101
20
24.21500
30
69.00000
0
VERTEX
8
23_69000
10
123.74500
20
24.54200
30
69.00000
0
VERTEX
8
23_69000
10
123.86800
20
24.99800
30
69.00000
0
VERTEX
8
23_69000
10
123.92600
20
25.33500
30
69.00000
0
VERTEX
8
23_69000
10
124.02000
20
25.72800
30
69.00000
0
VERTEX
8
23_69000
10
124.06200
20
26.52800
30
69.00000
0
VERTEX
8
23_69000
10
124.09000
20
26.75800
30
69.00000
0
VERTEX
8
23_69000
10
124.13500
20
26.88400
30
69.00000
0
VERTEX
8
23_69000
10
124.17801
20
27.66000
30
69.00000
0
VERTEX
8
23_69000
10
124.21700
20
28.00900
30
69.00000
0
VERTEX
8
23_69000
10
124.39800
20
28.51100
30
69.00000
0
VERTEX
8
23_69000
10
124.40401
20
28.55400
30
69.00000
0
VERTEX
8
23_69000
10
124.59701
20
28.90000
30
69.00000
0
VERTEX
8
23_69000
10
124.63300
20
28.99300
30
69.00000
0
VERTEX
8
23_69000
10
124.64500
20
29.04800
30
69.00000
0
VERTEX
8
23_69000
10
124.67701
20
30.45700
30
69.00000
0
VERTEX
8
23_69000
10
124.78101
20
30.97800
30
69.00000
0
VERTEX
8
23_69000
10
124.89500
20
32.56300
30
69.00000
0
VERTEX
8
23_69000
10
125.02601
20
32.88700
30
69.00000
0
VERTEX
8
23_69000
10
125.15301
20
33.33300
30
69.00000
0
VERTEX
8
23_69000
10
125.40001
20
34.45100
30
69.00000
0
VERTEX
8
23_69000
10
125.77501
20
35.31300
30
69.00000
0
VERTEX
8
23_69000
10
126.47900
20
36.68200
30
69.00000
0
VERTEX
8
23_69000
10
126.50301
20
36.71400
30
69.00000
0
VERTEX
8
23_69000
10
126.81701
20
37.35300
30
69.00000
0
VERTEX
8
23_69000
10
126.97101
20
37.75000
30
69.00000
0
VERTEX
8
23_69000
10
127.00401
20
37.92600
30
69.00000
0
VERTEX
8
23_69000
10
127.23000
20
38.51100
30
69.00000
0
VERTEX
8
23_69000
10
127.38901
20
38.79300
30
69.00000
0
VERTEX
8
23_69000
10
127.65601
20
39.17700
30
69.00000
0
VERTEX
8
23_69000
10
127.84200
20
39.51300
30
69.00000
0
VERTEX
8
23_69000
10
128.33200
20
40.58700
30
69.00000
0
VERTEX
8
23_69000
10
128.36801
20
40.77800
30
69.00000
0
VERTEX
8
23_69000
10
128.43901
20
40.95500
30
69.00000
0
VERTEX
8
23_69000
10
128.58101
20
41.53000
30
69.00000
0
VERTEX
8
23_69000
10
128.91301
20
41.94200
30
69.00000
0
VERTEX
8
23_69000
10
128.99301
20
42.08700
30
69.00000
0
VERTEX
8
23_69000
10
129.31401
20
42.89300
30
69.00000
0
VERTEX
8
23_69000
10
129.54701
20
43.50500
30
69.00000
0
VERTEX
8
23_69000
10
130.08000
20
44.35000
30
69.00000
0
VERTEX
8
23_69000
10
130.20300
20
44.52600
30
69.00000
0
VERTEX
8
23_69000
10
130.88501
20
45.56100
30
69.00000
0
VERTEX
8
23_69000
10
131.00101
20
45.69800
30
69.00000
0
VERTEX
8
23_69000
10
130.97601
20
45.83400
30
69.00000
0
VERTEX
8
23_69000
10
131.29701
20
46.31300
30
69.00000
0
VERTEX
8
23_69000
10
131.80200
20
46.92500
30
69.00000
0
VERTEX
8
23_69000
10
131.83400
20
46.94400
30
69.00000
0
VERTEX
8
23_69000
10
131.86700
20
46.99600
30
69.00000
0
VERTEX
8
23_69000
10
132.57301
20
47.63400
30
69.00000
0
VERTEX
8
23_69000
10
132.69501
20
47.78900
30
69.00000
0
VERTEX
8
23_69000
10
133.06300
20
48.21000
30
69.00000
0
VERTEX
8
23_69000
10
133.26801
20
48.32700
30
69.00000
0
VERTEX
8
23_69000
10
133.58400
20
48.77600
30
69.00000
0
VERTEX
8
23_69000
10
133.63501
20
48.82900
30
69.00000
0
VERTEX
8
23_69000
10
133.65500
20
48.83500
30
69.00000
0
VERTEX
8
23_69000
10
134.12801
20
50.52000
30
69.00000
0
VERTEX
8
23_69000
10
134.18600
20
51.84800
30
69.00000
0
VERTEX
8
23_69000
10
134.22501
20
52.34100
30
69.00000
0
VERTEX
8
23_69000
10
134.27701
20
52.69400
30
69.00000
0
VERTEX
8
23_69000
10
134.34401
20
52.86300
30
69.00000
0
VERTEX
8
23_69000
10
134.47101
20
53.12500
30
69.00000
0
VERTEX
8
23_69000
10
134.47000
20
53.19200
30
69.00000
0
VERTEX
8
23_69000
10
134.59900
20
53.45500
30
69.00000
0
VERTEX
8
23_69000
10
135.06100
20
54.71600
30
69.00000
0
VERTEX
8
23_69000
10
135.13200
20
54.87500
30
69.00000
0
VERTEX
8
23_69000
10
135.24001
20
54.98600
30
69.00000
0
VERTEX
8
23_69000
10
135.44400
20
55.45600
30
69.00000
0
VERTEX
8
23_69000
10
135.47601
20
55.60300
30
69.00000
0
VERTEX
8
23_69000
10
135.91301
20
57.09100
30
69.00000
0
VERTEX
8
23_69000
10
136.13400
20
58.12200
30
69.00000
0
VERTEX
8
23_69000
10
136.26300
20
58.47700
30
69.00000
0
VERTEX
8
23_69000
10
136.27000
20
59.01800
30
69.00000
0
VERTEX
8
23_69000
10
136.35800
20
59.46000
30
69.00000
0
VERTEX
8
23_69000
10
136.49200
20
59.79700
30
69.00000
0
VERTEX
8
23_69000
10
136.93501
20
60.68400
30
69.00000
0
VERTEX
8
23_69000
10
137.44301
20
61.45500
30
69.00000
0
VERTEX
8
23_69000
10
137.67801
20
62.18000
30
69.00000
0
VERTEX
8
23_69000
10
137.76401
20
62.37000
30
69.00000
0
VERTEX
8
23_69000
10
137.86301
20
62.91900
30
69.00000
0
VERTEX
8
23_69000
10
138.03101
20
63.73900
30
69.00000
0
VERTEX
8
23_69000
10
138.08000
20
64.02500
30
69.00000
0
VERTEX
8
23_69000
10
138.15800
20
64.64900
30
69.00000
0
VERTEX
8
23_69000
10
138.63200
20
65.88200
30
69.00000
0
VERTEX
8
23_69000
10
139.00301
20
66.73000
30
69.00000
0
VERTEX
8
23_69000
10
139.15701
20
67.05500
30
69.00000
0
VERTEX
8
23_69000
10
139.40300
20
67.83400
30
69.00000
0
VERTEX
8
23_69000
10
139.48700
20
67.94200
30
69.00000
0
VERTEX
8
23_69000
10
139.71600
20
68.82101
30
69.00000
0
VERTEX
8
23_69000
10
140.00900
20
69.76601
30
69.00000
0
VERTEX
8
23_69000
10
140.38600
20
71.10201
30
69.00000
0
VERTEX
8
23_69000
10
140.57901
20
72.09300
30
69.00000
0
VERTEX
8
23_69000
10
140.92101
20
73.28600
30
69.00000
0
VERTEX
8
23_69000
10
140.95401
20
73.45200
30
69.00000
0
VERTEX
8
23_69000
10
141.28500
20
74.21700
30
69.00000
0
VERTEX
8
23_69000
10
142.23601
20
77.05400
30
69.00000
0
VERTEX
8
23_69000
10
142.53101
20
77.84400
30
69.00000
0
VERTEX
8
23_69000
10
142.73500
20
78.26000
30
69.00000
0
VERTEX
8
23_69000
10
142.94301
20
78.81700
30
69.00000
0
VERTEX
8
23_69000
10
143.67500
20
80.98300
30
69.00000
0
VERTEX
8
23_69000
10
143.77200
20
81.45200
30
69.00000
0
VERTEX
8
23_69000
10
143.76801
20
81.47100
30
69.00000
0
VERTEX
8
23_69000
10
144.73401
20
84.78001
30
69.00000
0
VERTEX
8
23_69000
10
145.01100
20
86.00101
30
69.00000
0
VERTEX
8
23_69000
10
145.54701
20
88.82401
30
69.00000
0
VERTEX
8
23_69000
10
145.68301
20
90.22601
30
69.00000
0
VERTEX
8
23_69000
10
145.86200
20
91.29201
30
69.00000
0
VERTEX
8
23_69000
10
145.94101
20
92.26200
30
69.00000
0
VERTEX
8
23_69000
10
146.16400
20
95.57600
30
69.00000
0
VERTEX
8
23_69000
10
146.21701
20
97.99700
30
69.00000
0
VERTEX
8
23_69000
10
146.23901
20
98.53400
30
69.00000
0
VERTEX
8
23_69000
10
146.23001
20
100.86001
30
69.00000
0
VERTEX
8
23_69000
10
146.28601
20
105.86700
30
69.00000
0
VERTEX
8
23_69000
10
146.29201
20
107.28300
30
69.00000
0
VERTEX
8
23_69000
10
146.37801
20
108.17300
30
69.00000
0
VERTEX
8
23_69000
10
146.46101
20
111.26701
30
69.00000
0
VERTEX
8
23_69000
10
146.48001
20
113.15201
30
69.00000
0
VERTEX
8
23_69000
10
146.48401
20
113.94901
30
69.00000
0
VERTEX
8
23_69000
10
146.36601
20
116.89500
30
69.00000
0
VERTEX
8
23_69000
10
146.29701
20
117.62801
30
69.00000
0
VERTEX
8
23_69000
10
146.23100
20
118.13200
30
69.00000
0
VERTEX
8
23_69000
10
145.86101
20
120.47900
30
69.00000
0
VERTEX
8
23_69000
10
145.32001
20
122.55201
30
69.00000
0
VERTEX
8
23_69000
10
145.17700
20
123.38801
30
69.00000
0
VERTEX
8
23_69000
10
144.67500
20
125.39600
30
69.00000
0
VERTEX
8
23_69000
10
144.04201
20
128.25101
30
69.00000
0
VERTEX
8
23_69000
10
143.51801
20
130.55501
30
69.00000
0
VERTEX
8
23_69000
10
143.36900
20
131.29601
30
69.00000
0
VERTEX
8
23_69000
10
143.06700
20
133.90001
30
69.00000
0
VERTEX
8
23_69000
10
143.03101
20
134.06801
30
69.00000
0
VERTEX
8
23_69000
10
142.99200
20
134.47801
30
69.00000
0
VERTEX
8
23_69000
10
143.08301
20
135.11801
30
69.00000
0
VERTEX
8
23_69000
10
143.07600
20
135.22101
30
69.00000
0
VERTEX
8
23_69000
10
143.36700
20
136.75500
30
69.00000
0
VERTEX
8
23_69000
10
143.33900
20
137.18701
30
69.00000
0
VERTEX
8
23_69000
10
143.38800
20
137.45300
30
69.00000
0
VERTEX
8
23_69000
10
143.48300
20
137.82201
30
69.00000
0
VERTEX
8
23_69000
10
143.70601
20
138.53500
30
69.00000
0
VERTEX
8
23_69000
10
143.77501
20
139.62901
30
69.00000
0
VERTEX
8
23_69000
10
143.88101
20
140.73700
30
69.00000
0
VERTEX
8
23_69000
10
144.01601
20
141.88101
30
69.00000
0
VERTEX
8
23_69000
10
144.05101
20
142.12300
30
69.00000
0
VERTEX
8
23_69000
10
144.42300
20
143.71201
30
69.00000
0
VERTEX
8
23_69000
10
145.27701
20
147.13701
30
69.00000
0
VERTEX
8
23_69000
10
145.65001
20
149.25900
30
69.00000
0
VERTEX
8
23_69000
10
146.09401
20
150.61601
30
69.00000
0
VERTEX
8
23_69000
10
146.21400
20
151.09300
30
69.00000
0
VERTEX
8
23_69000
10
146.44901
20
152.70500
30
69.00000
0
VERTEX
8
23_69000
10
146.54201
20
153.69501
30
69.00000
0
VERTEX
8
23_69000
10
147.04601
20
157.59401
30
69.00000
0
VERTEX
8
23_69000
10
147.05400
20
157.77800
30
69.00000
0
VERTEX
8
23_69000
10
147.23300
20
160.05602
30
69.00000
0
VERTEX
8
23_69000
10
147.28601
20
161.89301
30
69.00000
0
VERTEX
8
23_69000
10
147.26401
20
163.00700
30
69.00000
0
VERTEX
8
23_69000
10
147.27000
20
164.34801
30
69.00000
0
VERTEX
8
23_69000
10
147.13701
20
166.58601
30
69.00000
0
VERTEX
8
23_69000
10
146.92001
20
169.33701
30
69.00000
0
VERTEX
8
23_69000
10
146.65100
20
172.35501
30
69.00000
0
VERTEX
8
23_69000
10
146.54301
20
173.11000
30
69.00000
0
VERTEX
8
23_69000
10
146.31100
20
175.09201
30
69.00000
0
VERTEX
8
23_69000
10
146.15100
20
176.51302
30
69.00000
0
VERTEX
8
23_69000
10
146.14101
20
176.67101
30
69.00000
0
VERTEX
8
23_69000
10
145.98901
20
177.53300
30
69.00000
0
VERTEX
8
23_69000
10
145.72301
20
179.17401
30
69.00000
0
VERTEX
8
23_69000
10
145.54401
20
179.97601
30
69.00000
0
VERTEX
8
23_69000
10
145.19801
20
181.78801
30
69.00000
0
VERTEX
8
23_69000
10
127.21901
20
181.79001
30
69.00000
0
VERTEX
8
23_69000
10
126.08001
20
181.79601
30
69.00000
0
VERTEX
8
23_69000
10
125.58201
20
181.78801
30
69.00000
0
VERTEX
8
23_69000
10
101.33801
20
181.79001
30
69.00000
0
VERTEX
8
23_69000
10
39.90000
20
180.02400
30
69.00000
0
VERTEX
8
23_69000
10
101.33000
20
181.79001
30
69.00000
0
VERTEX
8
23_69000
10
85.07401
20
181.79201
30
69.00000
0
SEQEND
8
23_69000
0
ENDSEC
0
EOF
