0
SECTION
2
HEADER
9
$ACADVER
1
AC1009
0
ENDSEC
0
SECTION
2
TABLES
0
TABLE
2
LAYER
70
1
0
LAYER
2
25_75000
70
0
62
7
6
CONTINUOUS
0
ENDTAB
0
ENDSEC
0
SECTION
2
BLOCKS
0
ENDSEC
0
SECTION
2
ENTITIES
0
POLYLINE
8
25_75000
62
5
0
VERTEX
8
25_75000
10
43.80400
20
180.79102
30
75.00000
0
VERTEX
8
25_75000
10
34.83500
20
180.79001
30
75.00000
0
VERTEX
8
25_75000
10
34.76300
20
180.48901
30
75.00000
0
VERTEX
8
25_75000
10
34.41400
20
179.66301
30
75.00000
0
VERTEX
8
25_75000
10
34.17100
20
178.83900
30
75.00000
0
VERTEX
8
25_75000
10
33.75000
20
177.62701
30
75.00000
0
VERTEX
8
25_75000
10
33.55800
20
177.10701
30
75.00000
0
VERTEX
8
25_75000
10
33.25400
20
176.12701
30
75.00000
0
VERTEX
8
25_75000
10
33.02800
20
175.27301
30
75.00000
0
VERTEX
8
25_75000
10
32.58000
20
173.42201
30
75.00000
0
VERTEX
8
25_75000
10
32.43400
20
172.72401
30
75.00000
0
VERTEX
8
25_75000
10
32.21100
20
171.55200
30
75.00000
0
VERTEX
8
25_75000
10
31.99600
20
170.06700
30
75.00000
0
VERTEX
8
25_75000
10
31.72100
20
167.72501
30
75.00000
0
VERTEX
8
25_75000
10
31.80200
20
165.91901
30
75.00000
0
VERTEX
8
25_75000
10
32.15500
20
161.94000
30
75.00000
0
VERTEX
8
25_75000
10
32.42000
20
160.73500
30
75.00000
0
VERTEX
8
25_75000
10
32.48300
20
160.34801
30
75.00000
0
VERTEX
8
25_75000
10
32.50500
20
159.77701
30
75.00000
0
VERTEX
8
25_75000
10
32.69400
20
158.23401
30
75.00000
0
VERTEX
8
25_75000
10
32.83200
20
157.22301
30
75.00000
0
VERTEX
8
25_75000
10
32.93100
20
156.69701
30
75.00000
0
VERTEX
8
25_75000
10
33.03500
20
155.49701
30
75.00000
0
VERTEX
8
25_75000
10
33.22900
20
154.16701
30
75.00000
0
VERTEX
8
25_75000
10
33.61900
20
151.64001
30
75.00000
0
VERTEX
8
25_75000
10
33.96600
20
150.02400
30
75.00000
0
VERTEX
8
25_75000
10
33.98400
20
149.97301
30
75.00000
0
VERTEX
8
25_75000
10
34.55100
20
148.76601
30
75.00000
0
VERTEX
8
25_75000
10
34.71900
20
148.43100
30
75.00000
0
VERTEX
8
25_75000
10
35.33500
20
147.57701
30
75.00000
0
VERTEX
8
25_75000
10
36.06900
20
146.69101
30
75.00000
0
VERTEX
8
25_75000
10
36.77300
20
145.61900
30
75.00000
0
VERTEX
8
25_75000
10
37.23800
20
144.60501
30
75.00000
0
VERTEX
8
25_75000
10
37.63200
20
142.87401
30
75.00000
0
VERTEX
8
25_75000
10
37.92800
20
139.93600
30
75.00000
0
VERTEX
8
25_75000
10
38.00100
20
139.34700
30
75.00000
0
VERTEX
8
25_75000
10
38.03400
20
138.95700
30
75.00000
0
VERTEX
8
25_75000
10
38.08900
20
137.66600
30
75.00000
0
VERTEX
8
25_75000
10
38.11400
20
136.76601
30
75.00000
0
VERTEX
8
25_75000
10
38.20500
20
135.18100
30
75.00000
0
VERTEX
8
25_75000
10
38.28100
20
134.68701
30
75.00000
0
VERTEX
8
25_75000
10
38.52300
20
133.35600
30
75.00000
0
VERTEX
8
25_75000
10
38.53700
20
132.97200
30
75.00000
0
VERTEX
8
25_75000
10
38.46500
20
131.05800
30
75.00000
0
VERTEX
8
25_75000
10
38.46700
20
129.83301
30
75.00000
0
VERTEX
8
25_75000
10
38.48300
20
129.36101
30
75.00000
0
VERTEX
8
25_75000
10
38.43400
20
128.63901
30
75.00000
0
VERTEX
8
25_75000
10
38.18400
20
127.30401
30
75.00000
0
VERTEX
8
25_75000
10
37.95100
20
126.70400
30
75.00000
0
VERTEX
8
25_75000
10
37.80500
20
125.97101
30
75.00000
0
VERTEX
8
25_75000
10
37.58800
20
125.50101
30
75.00000
0
VERTEX
8
25_75000
10
37.39000
20
124.91200
30
75.00000
0
VERTEX
8
25_75000
10
36.28100
20
120.82500
30
75.00000
0
VERTEX
8
25_75000
10
35.37100
20
116.86301
30
75.00000
0
VERTEX
8
25_75000
10
35.26800
20
116.35700
30
75.00000
0
VERTEX
8
25_75000
10
35.14000
20
115.99001
30
75.00000
0
VERTEX
8
25_75000
10
34.43000
20
113.51000
30
75.00000
0
VERTEX
8
25_75000
10
34.29000
20
113.06600
30
75.00000
0
VERTEX
8
25_75000
10
33.37400
20
109.99200
30
75.00000
0
VERTEX
8
25_75000
10
32.78600
20
107.57301
30
75.00000
0
VERTEX
8
25_75000
10
31.94200
20
103.98601
30
75.00000
0
VERTEX
8
25_75000
10
31.77900
20
103.14001
30
75.00000
0
VERTEX
8
25_75000
10
31.46400
20
101.38300
30
75.00000
0
VERTEX
8
25_75000
10
31.05300
20
98.25001
30
75.00000
0
VERTEX
8
25_75000
10
31.10900
20
96.67001
30
75.00000
0
VERTEX
8
25_75000
10
30.94700
20
95.83000
30
75.00000
0
VERTEX
8
25_75000
10
30.94700
20
95.53900
30
75.00000
0
VERTEX
8
25_75000
10
31.00300
20
92.77000
30
75.00000
0
VERTEX
8
25_75000
10
31.05300
20
92.29101
30
75.00000
0
VERTEX
8
25_75000
10
31.32900
20
90.05100
30
75.00000
0
VERTEX
8
25_75000
10
31.39800
20
89.65601
30
75.00000
0
VERTEX
8
25_75000
10
32.57300
20
83.48200
30
75.00000
0
VERTEX
8
25_75000
10
33.69700
20
80.44200
30
75.00000
0
VERTEX
8
25_75000
10
33.75700
20
80.23200
30
75.00000
0
VERTEX
8
25_75000
10
33.93600
20
79.84500
30
75.00000
0
VERTEX
8
25_75000
10
34.33900
20
79.08300
30
75.00000
0
VERTEX
8
25_75000
10
35.62900
20
76.26801
30
75.00000
0
VERTEX
8
25_75000
10
35.81400
20
75.68501
30
75.00000
0
VERTEX
8
25_75000
10
36.43200
20
73.15000
30
75.00000
0
VERTEX
8
25_75000
10
36.63000
20
72.42800
30
75.00000
0
VERTEX
8
25_75000
10
36.67100
20
72.13500
30
75.00000
0
VERTEX
8
25_75000
10
37.14300
20
69.55000
30
75.00000
0
VERTEX
8
25_75000
10
37.36900
20
68.08801
30
75.00000
0
VERTEX
8
25_75000
10
37.39300
20
67.68301
30
75.00000
0
VERTEX
8
25_75000
10
37.50500
20
67.09300
30
75.00000
0
VERTEX
8
25_75000
10
37.41900
20
66.85800
30
75.00000
0
VERTEX
8
25_75000
10
37.18400
20
66.43000
30
75.00000
0
VERTEX
8
25_75000
10
36.97400
20
65.77500
30
75.00000
0
VERTEX
8
25_75000
10
36.82500
20
65.27900
30
75.00000
0
VERTEX
8
25_75000
10
36.83300
20
64.90200
30
75.00000
0
VERTEX
8
25_75000
10
36.90300
20
64.61100
30
75.00000
0
VERTEX
8
25_75000
10
37.00700
20
64.08601
30
75.00000
0
VERTEX
8
25_75000
10
37.14600
20
63.12400
30
75.00000
0
VERTEX
8
25_75000
10
37.15800
20
63.10600
30
75.00000
0
VERTEX
8
25_75000
10
37.17800
20
62.98200
30
75.00000
0
VERTEX
8
25_75000
10
37.11800
20
62.92100
30
75.00000
0
VERTEX
8
25_75000
10
36.94000
20
62.46400
30
75.00000
0
VERTEX
8
25_75000
10
36.98400
20
62.37500
30
75.00000
0
VERTEX
8
25_75000
10
37.29200
20
61.91900
30
75.00000
0
VERTEX
8
25_75000
10
37.54300
20
61.50300
30
75.00000
0
VERTEX
8
25_75000
10
37.69500
20
61.19200
30
75.00000
0
VERTEX
8
25_75000
10
37.73200
20
60.64600
30
75.00000
0
VERTEX
8
25_75000
10
37.75500
20
60.48600
30
75.00000
0
VERTEX
8
25_75000
10
37.78600
20
60.42700
30
75.00000
0
VERTEX
8
25_75000
10
38.10600
20
60.10200
30
75.00000
0
VERTEX
8
25_75000
10
38.14500
20
60.01900
30
75.00000
0
VERTEX
8
25_75000
10
38.39800
20
59.23800
30
75.00000
0
VERTEX
8
25_75000
10
38.28500
20
58.50700
30
75.00000
0
VERTEX
8
25_75000
10
38.27700
20
58.28300
30
75.00000
0
VERTEX
8
25_75000
10
38.28900
20
58.19600
30
75.00000
0
VERTEX
8
25_75000
10
38.26400
20
58.10200
30
75.00000
0
VERTEX
8
25_75000
10
38.17500
20
57.07000
30
75.00000
0
VERTEX
8
25_75000
10
38.14100
20
56.48100
30
75.00000
0
VERTEX
8
25_75000
10
38.58300
20
54.58900
30
75.00000
0
VERTEX
8
25_75000
10
38.56800
20
54.00000
30
75.00000
0
VERTEX
8
25_75000
10
38.57800
20
53.60800
30
75.00000
0
VERTEX
8
25_75000
10
38.52900
20
53.19200
30
75.00000
0
VERTEX
8
25_75000
10
38.64700
20
52.70700
30
75.00000
0
VERTEX
8
25_75000
10
38.67000
20
52.53600
30
75.00000
0
VERTEX
8
25_75000
10
38.88300
20
51.97900
30
75.00000
0
VERTEX
8
25_75000
10
38.94800
20
51.86900
30
75.00000
0
VERTEX
8
25_75000
10
39.68900
20
51.52800
30
75.00000
0
VERTEX
8
25_75000
10
40.23400
20
51.16000
30
75.00000
0
VERTEX
8
25_75000
10
40.82400
20
50.55400
30
75.00000
0
VERTEX
8
25_75000
10
40.93000
20
50.42800
30
75.00000
0
VERTEX
8
25_75000
10
41.14200
20
50.20900
30
75.00000
0
VERTEX
8
25_75000
10
41.27000
20
49.57700
30
75.00000
0
VERTEX
8
25_75000
10
41.28600
20
49.53500
30
75.00000
0
VERTEX
8
25_75000
10
41.28800
20
48.48600
30
75.00000
0
VERTEX
8
25_75000
10
41.31000
20
48.36800
30
75.00000
0
VERTEX
8
25_75000
10
41.38200
20
47.34400
30
75.00000
0
VERTEX
8
25_75000
10
41.47300
20
46.76500
30
75.00000
0
VERTEX
8
25_75000
10
41.32400
20
45.93900
30
75.00000
0
VERTEX
8
25_75000
10
41.30200
20
45.92100
30
75.00000
0
VERTEX
8
25_75000
10
41.26400
20
45.82000
30
75.00000
0
VERTEX
8
25_75000
10
40.95700
20
45.18900
30
75.00000
0
VERTEX
8
25_75000
10
40.85500
20
45.08300
30
75.00000
0
VERTEX
8
25_75000
10
40.33600
20
44.25900
30
75.00000
0
VERTEX
8
25_75000
10
40.24500
20
43.78800
30
75.00000
0
VERTEX
8
25_75000
10
40.20200
20
43.63700
30
75.00000
0
VERTEX
8
25_75000
10
40.21500
20
43.00600
30
75.00000
0
VERTEX
8
25_75000
10
40.19400
20
42.63400
30
75.00000
0
VERTEX
8
25_75000
10
40.14600
20
42.43500
30
75.00000
0
VERTEX
8
25_75000
10
40.15600
20
41.55300
30
75.00000
0
VERTEX
8
25_75000
10
40.23800
20
40.94900
30
75.00000
0
VERTEX
8
25_75000
10
40.16400
20
40.75800
30
75.00000
0
VERTEX
8
25_75000
10
40.04900
20
39.46800
30
75.00000
0
VERTEX
8
25_75000
10
39.69500
20
38.91100
30
75.00000
0
VERTEX
8
25_75000
10
39.73900
20
38.53900
30
75.00000
0
VERTEX
8
25_75000
10
39.61600
20
38.58600
30
75.00000
0
VERTEX
8
25_75000
10
39.65100
20
38.21300
30
75.00000
0
VERTEX
8
25_75000
10
39.51000
20
38.03300
30
75.00000
0
VERTEX
8
25_75000
10
39.51400
20
37.87400
30
75.00000
0
VERTEX
8
25_75000
10
39.53000
20
37.73100
30
75.00000
0
VERTEX
8
25_75000
10
39.72200
20
36.44900
30
75.00000
0
VERTEX
8
25_75000
10
39.59800
20
36.16500
30
75.00000
0
VERTEX
8
25_75000
10
39.38200
20
35.77500
30
75.00000
0
VERTEX
8
25_75000
10
39.31800
20
34.59300
30
75.00000
0
VERTEX
8
25_75000
10
39.29600
20
34.52100
30
75.00000
0
VERTEX
8
25_75000
10
39.21300
20
33.93800
30
75.00000
0
VERTEX
8
25_75000
10
39.15300
20
33.86100
30
75.00000
0
VERTEX
8
25_75000
10
38.71700
20
33.07400
30
75.00000
0
VERTEX
8
25_75000
10
38.69800
20
33.06100
30
75.00000
0
VERTEX
8
25_75000
10
38.52900
20
32.58100
30
75.00000
0
VERTEX
8
25_75000
10
38.45100
20
32.41900
30
75.00000
0
VERTEX
8
25_75000
10
38.11100
20
31.97400
30
75.00000
0
VERTEX
8
25_75000
10
38.08600
20
31.89000
30
75.00000
0
VERTEX
8
25_75000
10
38.00000
20
31.73000
30
75.00000
0
VERTEX
8
25_75000
10
37.35600
20
30.74400
30
75.00000
0
VERTEX
8
25_75000
10
37.16200
20
30.27800
30
75.00000
0
VERTEX
8
25_75000
10
36.78500
20
28.94100
30
75.00000
0
VERTEX
8
25_75000
10
36.73400
20
28.68700
30
75.00000
0
VERTEX
8
25_75000
10
36.57700
20
28.44900
30
75.00000
0
VERTEX
8
25_75000
10
36.38200
20
27.99800
30
75.00000
0
VERTEX
8
25_75000
10
36.32200
20
27.82200
30
75.00000
0
VERTEX
8
25_75000
10
36.30700
20
27.63600
30
75.00000
0
VERTEX
8
25_75000
10
36.17400
20
27.33500
30
75.00000
0
VERTEX
8
25_75000
10
35.76500
20
26.91100
30
75.00000
0
VERTEX
8
25_75000
10
35.70400
20
26.88400
30
75.00000
0
VERTEX
8
25_75000
10
35.42100
20
26.42400
30
75.00000
0
VERTEX
8
25_75000
10
34.95600
20
25.71900
30
75.00000
0
VERTEX
8
25_75000
10
34.86900
20
25.59500
30
75.00000
0
VERTEX
8
25_75000
10
34.68900
20
25.39700
30
75.00000
0
VERTEX
8
25_75000
10
34.49000
20
25.05400
30
75.00000
0
VERTEX
8
25_75000
10
34.23700
20
24.06800
30
75.00000
0
VERTEX
8
25_75000
10
34.17300
20
23.91300
30
75.00000
0
VERTEX
8
25_75000
10
34.03400
20
23.20200
30
75.00000
0
VERTEX
8
25_75000
10
33.95400
20
22.65600
30
75.00000
0
VERTEX
8
25_75000
10
33.87500
20
22.27600
30
75.00000
0
VERTEX
8
25_75000
10
33.89300
20
22.11700
30
75.00000
0
VERTEX
8
25_75000
10
33.89300
20
21.83300
30
75.00000
0
VERTEX
8
25_75000
10
33.92100
20
21.23500
30
75.00000
0
VERTEX
8
25_75000
10
34.08300
20
19.86400
30
75.00000
0
VERTEX
8
25_75000
10
34.07500
20
19.43900
30
75.00000
0
VERTEX
8
25_75000
10
34.04300
20
19.00100
30
75.00000
0
VERTEX
8
25_75000
10
34.05500
20
18.70000
30
75.00000
0
VERTEX
8
25_75000
10
34.05600
20
18.39800
30
75.00000
0
VERTEX
8
25_75000
10
33.84900
20
16.76000
30
75.00000
0
VERTEX
8
25_75000
10
33.70200
20
16.45800
30
75.00000
0
VERTEX
8
25_75000
10
33.44200
20
16.34800
30
75.00000
0
VERTEX
8
25_75000
10
33.25900
20
16.30900
30
75.00000
0
VERTEX
8
25_75000
10
30.42900
20
16.04600
30
75.00000
0
VERTEX
8
25_75000
10
27.45400
20
16.03600
30
75.00000
0
VERTEX
8
25_75000
10
26.75500
20
16.08500
30
75.00000
0
VERTEX
8
25_75000
10
24.73700
20
16.20200
30
75.00000
0
VERTEX
8
25_75000
10
23.55300
20
16.25100
30
75.00000
0
VERTEX
8
25_75000
10
20.32100
20
16.43000
30
75.00000
0
VERTEX
8
25_75000
10
16.75000
20
16.92100
30
75.00000
0
VERTEX
8
25_75000
10
15.43300
20
17.05800
30
75.00000
0
VERTEX
8
25_75000
10
14.17600
20
17.22500
30
75.00000
0
VERTEX
8
25_75000
10
12.33300
20
17.38600
30
75.00000
0
VERTEX
8
25_75000
10
12.03800
20
17.42600
30
75.00000
0
VERTEX
8
25_75000
10
12.42200
20
14.37400
30
75.00000
0
VERTEX
8
25_75000
10
13.08400
20
8.91500
30
75.00000
0
VERTEX
8
25_75000
10
13.98400
20
1.05200
30
75.00000
0
VERTEX
8
25_75000
10
14.09200
20
0.00600
30
75.00000
0
VERTEX
8
25_75000
10
102.49600
20
0.00600
30
75.00000
0
VERTEX
8
25_75000
10
102.52701
20
0.15000
30
75.00000
0
VERTEX
8
25_75000
10
102.55000
20
0.43700
30
75.00000
0
VERTEX
8
25_75000
10
102.83701
20
1.06000
30
75.00000
0
VERTEX
8
25_75000
10
102.91801
20
1.17700
30
75.00000
0
VERTEX
8
25_75000
10
103.22601
20
1.40200
30
75.00000
0
VERTEX
8
25_75000
10
103.28600
20
1.54600
30
75.00000
0
VERTEX
8
25_75000
10
103.72501
20
1.85200
30
75.00000
0
VERTEX
8
25_75000
10
103.85900
20
1.92800
30
75.00000
0
VERTEX
8
25_75000
10
104.95600
20
2.62600
30
75.00000
0
VERTEX
8
25_75000
10
105.49700
20
3.05700
30
75.00000
0
VERTEX
8
25_75000
10
105.72900
20
3.20300
30
75.00000
0
VERTEX
8
25_75000
10
106.15701
20
3.50700
30
75.00000
0
VERTEX
8
25_75000
10
107.92600
20
4.86700
30
75.00000
0
VERTEX
8
25_75000
10
110.05601
20
6.85700
30
75.00000
0
VERTEX
8
25_75000
10
111.29601
20
8.07500
30
75.00000
0
VERTEX
8
25_75000
10
112.28101
20
9.12600
30
75.00000
0
VERTEX
8
25_75000
10
113.29501
20
10.27400
30
75.00000
0
VERTEX
8
25_75000
10
113.66200
20
10.83000
30
75.00000
0
VERTEX
8
25_75000
10
113.98501
20
11.19900
30
75.00000
0
VERTEX
8
25_75000
10
114.09000
20
11.36300
30
75.00000
0
VERTEX
8
25_75000
10
114.16401
20
11.52200
30
75.00000
0
VERTEX
8
25_75000
10
114.28300
20
11.72600
30
75.00000
0
VERTEX
8
25_75000
10
114.47201
20
12.21000
30
75.00000
0
VERTEX
8
25_75000
10
114.61101
20
12.60200
30
75.00000
0
VERTEX
8
25_75000
10
114.75500
20
12.81700
30
75.00000
0
VERTEX
8
25_75000
10
114.86501
20
13.01900
30
75.00000
0
VERTEX
8
25_75000
10
115.17801
20
13.72800
30
75.00000
0
VERTEX
8
25_75000
10
115.35500
20
14.09300
30
75.00000
0
VERTEX
8
25_75000
10
115.33501
20
14.14200
30
75.00000
0
VERTEX
8
25_75000
10
115.43700
20
14.39000
30
75.00000
0
VERTEX
8
25_75000
10
115.40501
20
14.44400
30
75.00000
0
VERTEX
8
25_75000
10
115.49400
20
14.63800
30
75.00000
0
VERTEX
8
25_75000
10
115.48601
20
14.72900
30
75.00000
0
VERTEX
8
25_75000
10
115.53101
20
14.99800
30
75.00000
0
VERTEX
8
25_75000
10
115.56600
20
15.34700
30
75.00000
0
VERTEX
8
25_75000
10
115.70801
20
16.09400
30
75.00000
0
VERTEX
8
25_75000
10
116.02100
20
16.38500
30
75.00000
0
VERTEX
8
25_75000
10
116.02100
20
16.67900
30
75.00000
0
VERTEX
8
25_75000
10
116.15001
20
16.82000
30
75.00000
0
VERTEX
8
25_75000
10
116.15001
20
17.09200
30
75.00000
0
VERTEX
8
25_75000
10
116.19401
20
17.22800
30
75.00000
0
VERTEX
8
25_75000
10
116.19901
20
17.26400
30
75.00000
0
VERTEX
8
25_75000
10
116.24901
20
18.10000
30
75.00000
0
VERTEX
8
25_75000
10
116.26301
20
18.60800
30
75.00000
0
VERTEX
8
25_75000
10
116.28001
20
18.67100
30
75.00000
0
VERTEX
8
25_75000
10
116.26601
20
18.70900
30
75.00000
0
VERTEX
8
25_75000
10
116.21600
20
19.73300
30
75.00000
0
VERTEX
8
25_75000
10
116.27400
20
20.05600
30
75.00000
0
VERTEX
8
25_75000
10
116.36301
20
21.28900
30
75.00000
0
VERTEX
8
25_75000
10
116.42300
20
21.68600
30
75.00000
0
VERTEX
8
25_75000
10
116.51701
20
22.06600
30
75.00000
0
VERTEX
8
25_75000
10
116.55301
20
22.31400
30
75.00000
0
VERTEX
8
25_75000
10
116.65501
20
22.78200
30
75.00000
0
VERTEX
8
25_75000
10
116.65401
20
23.22300
30
75.00000
0
VERTEX
8
25_75000
10
116.69501
20
23.83800
30
75.00000
0
VERTEX
8
25_75000
10
116.75201
20
24.29300
30
75.00000
0
VERTEX
8
25_75000
10
116.94701
20
24.71200
30
75.00000
0
VERTEX
8
25_75000
10
116.97001
20
24.74300
30
75.00000
0
VERTEX
8
25_75000
10
117.03400
20
24.90700
30
75.00000
0
VERTEX
8
25_75000
10
117.03201
20
25.45700
30
75.00000
0
VERTEX
8
25_75000
10
116.91200
20
25.91300
30
75.00000
0
VERTEX
8
25_75000
10
117.03201
20
27.27600
30
75.00000
0
VERTEX
8
25_75000
10
117.01701
20
27.60500
30
75.00000
0
VERTEX
8
25_75000
10
117.02701
20
27.68800
30
75.00000
0
VERTEX
8
25_75000
10
117.01401
20
27.73000
30
75.00000
0
VERTEX
8
25_75000
10
117.01701
20
28.16600
30
75.00000
0
VERTEX
8
25_75000
10
117.09801
20
29.15200
30
75.00000
0
VERTEX
8
25_75000
10
117.23801
20
29.54900
30
75.00000
0
VERTEX
8
25_75000
10
117.19601
20
29.80900
30
75.00000
0
VERTEX
8
25_75000
10
117.26401
20
30.04600
30
75.00000
0
VERTEX
8
25_75000
10
117.36101
20
30.11200
30
75.00000
0
VERTEX
8
25_75000
10
117.65101
20
30.34800
30
75.00000
0
VERTEX
8
25_75000
10
117.83701
20
30.81300
30
75.00000
0
VERTEX
8
25_75000
10
117.87601
20
31.70900
30
75.00000
0
VERTEX
8
25_75000
10
117.84100
20
31.93300
30
75.00000
0
VERTEX
8
25_75000
10
117.90401
20
32.19900
30
75.00000
0
VERTEX
8
25_75000
10
117.96700
20
32.29700
30
75.00000
0
VERTEX
8
25_75000
10
118.13100
20
32.79200
30
75.00000
0
VERTEX
8
25_75000
10
118.17101
20
33.01300
30
75.00000
0
VERTEX
8
25_75000
10
118.29301
20
33.18400
30
75.00000
0
VERTEX
8
25_75000
10
118.32201
20
33.51400
30
75.00000
0
VERTEX
8
25_75000
10
118.35700
20
33.75800
30
75.00000
0
VERTEX
8
25_75000
10
118.51900
20
34.50200
30
75.00000
0
VERTEX
8
25_75000
10
118.82900
20
34.76100
30
75.00000
0
VERTEX
8
25_75000
10
118.96001
20
35.00600
30
75.00000
0
VERTEX
8
25_75000
10
118.71001
20
35.18600
30
75.00000
0
VERTEX
8
25_75000
10
118.82900
20
35.60900
30
75.00000
0
VERTEX
8
25_75000
10
118.88801
20
36.09600
30
75.00000
0
VERTEX
8
25_75000
10
119.01301
20
36.35500
30
75.00000
0
VERTEX
8
25_75000
10
119.06500
20
36.38500
30
75.00000
0
VERTEX
8
25_75000
10
119.10001
20
36.38500
30
75.00000
0
VERTEX
8
25_75000
10
119.11501
20
36.43200
30
75.00000
0
VERTEX
8
25_75000
10
119.10901
20
36.45800
30
75.00000
0
VERTEX
8
25_75000
10
119.25700
20
36.78800
30
75.00000
0
VERTEX
8
25_75000
10
119.41601
20
37.30800
30
75.00000
0
VERTEX
8
25_75000
10
119.51301
20
37.40900
30
75.00000
0
VERTEX
8
25_75000
10
119.59200
20
37.55300
30
75.00000
0
VERTEX
8
25_75000
10
119.76900
20
37.91500
30
75.00000
0
VERTEX
8
25_75000
10
119.94601
20
38.46000
30
75.00000
0
VERTEX
8
25_75000
10
120.12501
20
39.42900
30
75.00000
0
VERTEX
8
25_75000
10
120.16401
20
39.85300
30
75.00000
0
VERTEX
8
25_75000
10
120.25800
20
41.09600
30
75.00000
0
VERTEX
8
25_75000
10
120.30801
20
41.23800
30
75.00000
0
VERTEX
8
25_75000
10
120.34000
20
41.86300
30
75.00000
0
VERTEX
8
25_75000
10
120.66100
20
42.75400
30
75.00000
0
VERTEX
8
25_75000
10
120.85600
20
43.00800
30
75.00000
0
VERTEX
8
25_75000
10
120.99100
20
43.40300
30
75.00000
0
VERTEX
8
25_75000
10
121.41901
20
43.73200
30
75.00000
0
VERTEX
8
25_75000
10
121.60500
20
43.95500
30
75.00000
0
VERTEX
8
25_75000
10
121.90501
20
44.76000
30
75.00000
0
VERTEX
8
25_75000
10
122.27801
20
45.15200
30
75.00000
0
VERTEX
8
25_75000
10
122.59601
20
45.42000
30
75.00000
0
VERTEX
8
25_75000
10
122.64500
20
45.50200
30
75.00000
0
VERTEX
8
25_75000
10
122.72401
20
46.01700
30
75.00000
0
VERTEX
8
25_75000
10
122.97301
20
46.51900
30
75.00000
0
VERTEX
8
25_75000
10
123.00401
20
46.63100
30
75.00000
0
VERTEX
8
25_75000
10
122.97800
20
47.72000
30
75.00000
0
VERTEX
8
25_75000
10
123.00401
20
48.26700
30
75.00000
0
VERTEX
8
25_75000
10
123.15201
20
48.82700
30
75.00000
0
VERTEX
8
25_75000
10
123.22701
20
49.05700
30
75.00000
0
VERTEX
8
25_75000
10
123.26000
20
49.59700
30
75.00000
0
VERTEX
8
25_75000
10
123.39001
20
49.91700
30
75.00000
0
VERTEX
8
25_75000
10
123.65401
20
50.38400
30
75.00000
0
VERTEX
8
25_75000
10
123.80801
20
50.56500
30
75.00000
0
VERTEX
8
25_75000
10
123.89500
20
50.72800
30
75.00000
0
VERTEX
8
25_75000
10
123.94901
20
50.94800
30
75.00000
0
VERTEX
8
25_75000
10
124.20400
20
51.56300
30
75.00000
0
VERTEX
8
25_75000
10
124.32201
20
52.00800
30
75.00000
0
VERTEX
8
25_75000
10
124.38701
20
52.18800
30
75.00000
0
VERTEX
8
25_75000
10
124.71600
20
52.91800
30
75.00000
0
VERTEX
8
25_75000
10
124.80100
20
53.06000
30
75.00000
0
VERTEX
8
25_75000
10
124.82201
20
53.13600
30
75.00000
0
VERTEX
8
25_75000
10
124.86700
20
53.19100
30
75.00000
0
VERTEX
8
25_75000
10
125.24400
20
54.10000
30
75.00000
0
VERTEX
8
25_75000
10
125.30801
20
54.19900
30
75.00000
0
VERTEX
8
25_75000
10
125.49600
20
54.40700
30
75.00000
0
VERTEX
8
25_75000
10
125.81300
20
54.98900
30
75.00000
0
VERTEX
8
25_75000
10
126.19601
20
56.17400
30
75.00000
0
VERTEX
8
25_75000
10
126.24400
20
56.95100
30
75.00000
0
VERTEX
8
25_75000
10
126.22301
20
57.15900
30
75.00000
0
VERTEX
8
25_75000
10
126.28400
20
57.43500
30
75.00000
0
VERTEX
8
25_75000
10
126.44601
20
58.28200
30
75.00000
0
VERTEX
8
25_75000
10
126.49100
20
58.40100
30
75.00000
0
VERTEX
8
25_75000
10
126.52200
20
58.56000
30
75.00000
0
VERTEX
8
25_75000
10
126.58900
20
58.66300
30
75.00000
0
VERTEX
8
25_75000
10
126.73200
20
58.91800
30
75.00000
0
VERTEX
8
25_75000
10
127.12601
20
59.58000
30
75.00000
0
VERTEX
8
25_75000
10
127.31601
20
60.12000
30
75.00000
0
VERTEX
8
25_75000
10
127.63801
20
61.17800
30
75.00000
0
VERTEX
8
25_75000
10
127.82001
20
61.64400
30
75.00000
0
VERTEX
8
25_75000
10
128.17300
20
62.41800
30
75.00000
0
VERTEX
8
25_75000
10
128.36801
20
63.25300
30
75.00000
0
VERTEX
8
25_75000
10
128.68300
20
64.87200
30
75.00000
0
VERTEX
8
25_75000
10
128.72400
20
65.25700
30
75.00000
0
VERTEX
8
25_75000
10
129.13101
20
66.28101
30
75.00000
0
VERTEX
8
25_75000
10
129.22200
20
66.68600
30
75.00000
0
VERTEX
8
25_75000
10
129.25000
20
66.76701
30
75.00000
0
VERTEX
8
25_75000
10
129.66400
20
67.61700
30
75.00000
0
VERTEX
8
25_75000
10
130.65001
20
70.12901
30
75.00000
0
VERTEX
8
25_75000
10
130.97501
20
70.75401
30
75.00000
0
VERTEX
8
25_75000
10
131.96501
20
72.74400
30
75.00000
0
VERTEX
8
25_75000
10
132.48901
20
73.73801
30
75.00000
0
VERTEX
8
25_75000
10
133.16501
20
74.87400
30
75.00000
0
VERTEX
8
25_75000
10
133.86101
20
76.07001
30
75.00000
0
VERTEX
8
25_75000
10
134.17700
20
76.54700
30
75.00000
0
VERTEX
8
25_75000
10
134.25000
20
76.61900
30
75.00000
0
VERTEX
8
25_75000
10
134.54601
20
77.04501
30
75.00000
0
VERTEX
8
25_75000
10
134.60501
20
77.21600
30
75.00000
0
VERTEX
8
25_75000
10
134.70100
20
77.39301
30
75.00000
0
VERTEX
8
25_75000
10
134.76801
20
77.57800
30
75.00000
0
VERTEX
8
25_75000
10
135.00700
20
77.97401
30
75.00000
0
VERTEX
8
25_75000
10
135.31001
20
78.51900
30
75.00000
0
VERTEX
8
25_75000
10
136.11501
20
80.23701
30
75.00000
0
VERTEX
8
25_75000
10
136.16000
20
80.38500
30
75.00000
0
VERTEX
8
25_75000
10
137.24701
20
82.86600
30
75.00000
0
VERTEX
8
25_75000
10
137.92401
20
84.45500
30
75.00000
0
VERTEX
8
25_75000
10
138.69301
20
86.29401
30
75.00000
0
VERTEX
8
25_75000
10
138.84601
20
86.74300
30
75.00000
0
VERTEX
8
25_75000
10
139.39601
20
88.52500
30
75.00000
0
VERTEX
8
25_75000
10
140.02101
20
91.11600
30
75.00000
0
VERTEX
8
25_75000
10
140.20100
20
92.01401
30
75.00000
0
VERTEX
8
25_75000
10
140.50101
20
94.32800
30
75.00000
0
VERTEX
8
25_75000
10
140.61601
20
95.71400
30
75.00000
0
VERTEX
8
25_75000
10
140.69501
20
97.65301
30
75.00000
0
VERTEX
8
25_75000
10
140.57901
20
101.86800
30
75.00000
0
VERTEX
8
25_75000
10
140.35901
20
104.95801
30
75.00000
0
VERTEX
8
25_75000
10
140.27501
20
106.74001
30
75.00000
0
VERTEX
8
25_75000
10
140.14700
20
109.79800
30
75.00000
0
VERTEX
8
25_75000
10
140.11301
20
111.55801
30
75.00000
0
VERTEX
8
25_75000
10
140.05400
20
112.11401
30
75.00000
0
VERTEX
8
25_75000
10
139.89401
20
114.58801
30
75.00000
0
VERTEX
8
25_75000
10
139.84401
20
115.19601
30
75.00000
0
VERTEX
8
25_75000
10
139.80101
20
115.57001
30
75.00000
0
VERTEX
8
25_75000
10
139.53300
20
117.20500
30
75.00000
0
VERTEX
8
25_75000
10
139.22701
20
118.52000
30
75.00000
0
VERTEX
8
25_75000
10
138.96301
20
119.45701
30
75.00000
0
VERTEX
8
25_75000
10
138.32401
20
121.56901
30
75.00000
0
VERTEX
8
25_75000
10
138.13800
20
122.11401
30
75.00000
0
VERTEX
8
25_75000
10
137.02701
20
125.01201
30
75.00000
0
VERTEX
8
25_75000
10
136.71400
20
126.51301
30
75.00000
0
VERTEX
8
25_75000
10
136.70900
20
126.74300
30
75.00000
0
VERTEX
8
25_75000
10
136.78801
20
126.99500
30
75.00000
0
VERTEX
8
25_75000
10
136.69400
20
128.32301
30
75.00000
0
VERTEX
8
25_75000
10
136.73100
20
128.51601
30
75.00000
0
VERTEX
8
25_75000
10
136.65901
20
129.46701
30
75.00000
0
VERTEX
8
25_75000
10
136.65001
20
129.90500
30
75.00000
0
VERTEX
8
25_75000
10
136.67300
20
130.94400
30
75.00000
0
VERTEX
8
25_75000
10
136.55701
20
132.30701
30
75.00000
0
VERTEX
8
25_75000
10
136.54901
20
133.75700
30
75.00000
0
VERTEX
8
25_75000
10
136.59500
20
135.50601
30
75.00000
0
VERTEX
8
25_75000
10
136.68201
20
136.77000
30
75.00000
0
VERTEX
8
25_75000
10
136.69200
20
136.86301
30
75.00000
0
VERTEX
8
25_75000
10
136.72501
20
137.00700
30
75.00000
0
VERTEX
8
25_75000
10
136.90501
20
137.51001
30
75.00000
0
VERTEX
8
25_75000
10
137.29100
20
138.09801
30
75.00000
0
VERTEX
8
25_75000
10
137.78401
20
138.54800
30
75.00000
0
VERTEX
8
25_75000
10
138.18001
20
139.01401
30
75.00000
0
VERTEX
8
25_75000
10
138.84900
20
139.56900
30
75.00000
0
VERTEX
8
25_75000
10
139.22900
20
139.91800
30
75.00000
0
VERTEX
8
25_75000
10
139.43701
20
140.23401
30
75.00000
0
VERTEX
8
25_75000
10
139.59900
20
140.38800
30
75.00000
0
VERTEX
8
25_75000
10
140.00101
20
141.62901
30
75.00000
0
VERTEX
8
25_75000
10
140.07800
20
141.84700
30
75.00000
0
VERTEX
8
25_75000
10
140.26300
20
142.28801
30
75.00000
0
VERTEX
8
25_75000
10
140.42101
20
143.67001
30
75.00000
0
VERTEX
8
25_75000
10
140.57800
20
144.76100
30
75.00000
0
VERTEX
8
25_75000
10
140.80501
20
146.69200
30
75.00000
0
VERTEX
8
25_75000
10
140.99800
20
147.56801
30
75.00000
0
VERTEX
8
25_75000
10
141.01601
20
147.89801
30
75.00000
0
VERTEX
8
25_75000
10
141.10201
20
148.41901
30
75.00000
0
VERTEX
8
25_75000
10
141.94301
20
151.53001
30
75.00000
0
VERTEX
8
25_75000
10
141.97200
20
151.70700
30
75.00000
0
VERTEX
8
25_75000
10
142.30000
20
153.28001
30
75.00000
0
VERTEX
8
25_75000
10
142.77101
20
155.23100
30
75.00000
0
VERTEX
8
25_75000
10
142.82800
20
155.64801
30
75.00000
0
VERTEX
8
25_75000
10
143.03201
20
157.46101
30
75.00000
0
VERTEX
8
25_75000
10
143.07201
20
157.74301
30
75.00000
0
VERTEX
8
25_75000
10
143.22000
20
158.98401
30
75.00000
0
VERTEX
8
25_75000
10
143.31001
20
159.88800
30
75.00000
0
VERTEX
8
25_75000
10
143.34100
20
160.39101
30
75.00000
0
VERTEX
8
25_75000
10
143.33900
20
160.79501
30
75.00000
0
VERTEX
8
25_75000
10
143.29501
20
162.01501
30
75.00000
0
VERTEX
8
25_75000
10
143.29601
20
162.37801
30
75.00000
0
VERTEX
8
25_75000
10
143.26100
20
162.80701
30
75.00000
0
VERTEX
8
25_75000
10
143.23300
20
163.44601
30
75.00000
0
VERTEX
8
25_75000
10
143.15800
20
164.26501
30
75.00000
0
VERTEX
8
25_75000
10
143.12001
20
165.03900
30
75.00000
0
VERTEX
8
25_75000
10
143.06500
20
165.72900
30
75.00000
0
VERTEX
8
25_75000
10
142.65401
20
169.52000
30
75.00000
0
VERTEX
8
25_75000
10
142.28900
20
171.56601
30
75.00000
0
VERTEX
8
25_75000
10
142.16901
20
172.42300
30
75.00000
0
VERTEX
8
25_75000
10
141.99001
20
173.20100
30
75.00000
0
VERTEX
8
25_75000
10
141.98201
20
173.31100
30
75.00000
0
VERTEX
8
25_75000
10
141.80000
20
174.34901
30
75.00000
0
VERTEX
8
25_75000
10
141.35301
20
176.27501
30
75.00000
0
VERTEX
8
25_75000
10
140.80000
20
178.79901
30
75.00000
0
VERTEX
8
25_75000
10
140.74001
20
178.94101
30
75.00000
0
VERTEX
8
25_75000
10
140.22401
20
180.63802
30
75.00000
0
VERTEX
8
25_75000
10
140.15701
20
180.78900
30
75.00000
0
VERTEX
8
25_75000
10
106.48300
20
180.78900
30
75.00000
0
VERTEX
8
25_75000
10
106.32700
20
180.79701
30
75.00000
0
VERTEX
8
25_75000
10
106.06100
20
180.78700
30
75.00000
0
VERTEX
8
25_75000
10
66.52600
20
180.78900
30
75.00000
0
VERTEX
8
25_75000
10
39.90100
20
180.02400
30
75.00000
0
VERTEX
8
25_75000
10
66.51500
20
180.79102
30
75.00000
0
VERTEX
8
25_75000
10
43.80400
20
180.79102
30
75.00000
0
SEQEND
8
25_75000
0
ENDSEC
0
EOF
