0
SECTION
2
HEADER
9
$ACADVER
1
AC1009
0
ENDSEC
0
SECTION
2
TABLES
0
TABLE
2
LAYER
70
1
0
LAYER
2
20_60000
70
0
62
7
6
CONTINUOUS
0
ENDTAB
0
ENDSEC
0
SECTION
2
BLOCKS
0
ENDSEC
0
SECTION
2
ENTITIES
0
POLYLINE
8
20_60000
62
5
0
VERTEX
8
20_60000
10
152.87401
20
183.29401
30
60.00000
0
VERTEX
8
20_60000
10
150.00401
20
183.29401
30
60.00000
0
VERTEX
8
20_60000
10
30.02200
20
181.81201
30
60.00000
0
VERTEX
8
20_60000
10
29.98200
20
181.82001
30
60.00000
0
VERTEX
8
20_60000
10
149.91801
20
183.29301
30
60.00000
0
VERTEX
8
20_60000
10
22.57400
20
183.29301
30
60.00000
0
VERTEX
8
20_60000
10
22.72600
20
182.36501
30
60.00000
0
VERTEX
8
20_60000
10
22.79200
20
181.72202
30
60.00000
0
VERTEX
8
20_60000
10
22.82400
20
181.25401
30
60.00000
0
VERTEX
8
20_60000
10
22.94200
20
180.13701
30
60.00000
0
VERTEX
8
20_60000
10
22.96000
20
179.68001
30
60.00000
0
VERTEX
8
20_60000
10
22.94600
20
179.23100
30
60.00000
0
VERTEX
8
20_60000
10
22.89200
20
178.53700
30
60.00000
0
VERTEX
8
20_60000
10
22.96200
20
177.11801
30
60.00000
0
VERTEX
8
20_60000
10
22.89700
20
176.14001
30
60.00000
0
VERTEX
8
20_60000
10
22.84100
20
174.51100
30
60.00000
0
VERTEX
8
20_60000
10
22.87700
20
173.55602
30
60.00000
0
VERTEX
8
20_60000
10
22.82100
20
171.15201
30
60.00000
0
VERTEX
8
20_60000
10
22.85300
20
169.97601
30
60.00000
0
VERTEX
8
20_60000
10
22.89400
20
169.40302
30
60.00000
0
VERTEX
8
20_60000
10
23.05100
20
167.92601
30
60.00000
0
VERTEX
8
20_60000
10
23.20500
20
165.78201
30
60.00000
0
VERTEX
8
20_60000
10
23.28100
20
165.26601
30
60.00000
0
VERTEX
8
20_60000
10
23.49200
20
163.62502
30
60.00000
0
VERTEX
8
20_60000
10
23.78200
20
161.97801
30
60.00000
0
VERTEX
8
20_60000
10
23.98700
20
160.49001
30
60.00000
0
VERTEX
8
20_60000
10
24.16700
20
159.57800
30
60.00000
0
VERTEX
8
20_60000
10
24.35500
20
158.55000
30
60.00000
0
VERTEX
8
20_60000
10
24.39400
20
158.48701
30
60.00000
0
VERTEX
8
20_60000
10
24.60900
20
157.36501
30
60.00000
0
VERTEX
8
20_60000
10
25.38700
20
152.96600
30
60.00000
0
VERTEX
8
20_60000
10
25.47600
20
152.32701
30
60.00000
0
VERTEX
8
20_60000
10
25.81700
20
150.26801
30
60.00000
0
VERTEX
8
20_60000
10
26.00000
20
148.74800
30
60.00000
0
VERTEX
8
20_60000
10
26.25000
20
145.53001
30
60.00000
0
VERTEX
8
20_60000
10
26.28300
20
145.17900
30
60.00000
0
VERTEX
8
20_60000
10
26.43500
20
143.91400
30
60.00000
0
VERTEX
8
20_60000
10
26.54800
20
143.24301
30
60.00000
0
VERTEX
8
20_60000
10
26.40100
20
140.16101
30
60.00000
0
VERTEX
8
20_60000
10
26.30700
20
139.42201
30
60.00000
0
VERTEX
8
20_60000
10
26.28500
20
139.12100
30
60.00000
0
VERTEX
8
20_60000
10
26.16300
20
137.84700
30
60.00000
0
VERTEX
8
20_60000
10
25.80900
20
135.53401
30
60.00000
0
VERTEX
8
20_60000
10
25.36800
20
133.37001
30
60.00000
0
VERTEX
8
20_60000
10
25.18000
20
132.18001
30
60.00000
0
VERTEX
8
20_60000
10
24.90200
20
130.91701
30
60.00000
0
VERTEX
8
20_60000
10
24.55700
20
129.13400
30
60.00000
0
VERTEX
8
20_60000
10
24.10000
20
127.03700
30
60.00000
0
VERTEX
8
20_60000
10
23.64100
20
125.19701
30
60.00000
0
VERTEX
8
20_60000
10
23.54100
20
124.72900
30
60.00000
0
VERTEX
8
20_60000
10
23.14300
20
122.63100
30
60.00000
0
VERTEX
8
20_60000
10
23.00600
20
121.84300
30
60.00000
0
VERTEX
8
20_60000
10
22.15000
20
117.71400
30
60.00000
0
VERTEX
8
20_60000
10
22.10400
20
117.46201
30
60.00000
0
VERTEX
8
20_60000
10
21.81100
20
115.54401
30
60.00000
0
VERTEX
8
20_60000
10
21.57300
20
114.25301
30
60.00000
0
VERTEX
8
20_60000
10
20.74300
20
110.45200
30
60.00000
0
VERTEX
8
20_60000
10
19.57100
20
104.49100
30
60.00000
0
VERTEX
8
20_60000
10
19.40800
20
103.58100
30
60.00000
0
VERTEX
8
20_60000
10
19.26000
20
102.85001
30
60.00000
0
VERTEX
8
20_60000
10
18.96400
20
100.95801
30
60.00000
0
VERTEX
8
20_60000
10
18.87700
20
100.18700
30
60.00000
0
VERTEX
8
20_60000
10
18.45400
20
96.68800
30
60.00000
0
VERTEX
8
20_60000
10
18.35200
20
94.46500
30
60.00000
0
VERTEX
8
20_60000
10
18.28800
20
93.52701
30
60.00000
0
VERTEX
8
20_60000
10
18.18200
20
92.50401
30
60.00000
0
VERTEX
8
20_60000
10
18.15300
20
92.03300
30
60.00000
0
VERTEX
8
20_60000
10
18.02300
20
90.41701
30
60.00000
0
VERTEX
8
20_60000
10
17.97100
20
89.36900
30
60.00000
0
VERTEX
8
20_60000
10
17.99900
20
88.71600
30
60.00000
0
VERTEX
8
20_60000
10
17.94000
20
88.31100
30
60.00000
0
VERTEX
8
20_60000
10
17.82400
20
86.31001
30
60.00000
0
VERTEX
8
20_60000
10
17.82000
20
86.09100
30
60.00000
0
VERTEX
8
20_60000
10
17.77400
20
85.64001
30
60.00000
0
VERTEX
8
20_60000
10
17.70500
20
85.13901
30
60.00000
0
VERTEX
8
20_60000
10
17.76800
20
84.56700
30
60.00000
0
VERTEX
8
20_60000
10
17.88300
20
83.37200
30
60.00000
0
VERTEX
8
20_60000
10
17.91400
20
82.44701
30
60.00000
0
VERTEX
8
20_60000
10
18.12100
20
80.83000
30
60.00000
0
VERTEX
8
20_60000
10
18.18100
20
80.18900
30
60.00000
0
VERTEX
8
20_60000
10
18.44700
20
78.26701
30
60.00000
0
VERTEX
8
20_60000
10
18.48300
20
78.06400
30
60.00000
0
VERTEX
8
20_60000
10
18.55000
20
76.95300
30
60.00000
0
VERTEX
8
20_60000
10
18.53300
20
76.16300
30
60.00000
0
VERTEX
8
20_60000
10
18.77500
20
74.67101
30
60.00000
0
VERTEX
8
20_60000
10
18.96700
20
72.97601
30
60.00000
0
VERTEX
8
20_60000
10
18.94000
20
72.33801
30
60.00000
0
VERTEX
8
20_60000
10
18.96700
20
72.03300
30
60.00000
0
VERTEX
8
20_60000
10
19.09200
20
71.10600
30
60.00000
0
VERTEX
8
20_60000
10
19.35500
20
69.95200
30
60.00000
0
VERTEX
8
20_60000
10
19.54500
20
69.02600
30
60.00000
0
VERTEX
8
20_60000
10
19.56500
20
68.81400
30
60.00000
0
VERTEX
8
20_60000
10
19.82900
20
66.81001
30
60.00000
0
VERTEX
8
20_60000
10
19.88600
20
65.57500
30
60.00000
0
VERTEX
8
20_60000
10
20.02400
20
64.11900
30
60.00000
0
VERTEX
8
20_60000
10
20.17100
20
63.36400
30
60.00000
0
VERTEX
8
20_60000
10
20.21000
20
63.12500
30
60.00000
0
VERTEX
8
20_60000
10
20.41300
20
61.65600
30
60.00000
0
VERTEX
8
20_60000
10
20.64400
20
60.68800
30
60.00000
0
VERTEX
8
20_60000
10
20.81400
20
59.85400
30
60.00000
0
VERTEX
8
20_60000
10
20.87300
20
59.43300
30
60.00000
0
VERTEX
8
20_60000
10
21.08900
20
58.08600
30
60.00000
0
VERTEX
8
20_60000
10
21.18800
20
57.35000
30
60.00000
0
VERTEX
8
20_60000
10
21.35300
20
56.32800
30
60.00000
0
VERTEX
8
20_60000
10
21.58500
20
55.19300
30
60.00000
0
VERTEX
8
20_60000
10
21.96600
20
53.43500
30
60.00000
0
VERTEX
8
20_60000
10
21.98700
20
53.19000
30
60.00000
0
VERTEX
8
20_60000
10
22.23200
20
51.53200
30
60.00000
0
VERTEX
8
20_60000
10
22.63200
20
49.64100
30
60.00000
0
VERTEX
8
20_60000
10
22.80700
20
48.12700
30
60.00000
0
VERTEX
8
20_60000
10
22.82700
20
47.90200
30
60.00000
0
VERTEX
8
20_60000
10
22.80700
20
46.78400
30
60.00000
0
VERTEX
8
20_60000
10
22.77600
20
46.02900
30
60.00000
0
VERTEX
8
20_60000
10
22.65400
20
45.38100
30
60.00000
0
VERTEX
8
20_60000
10
22.64000
20
45.36200
30
60.00000
0
VERTEX
8
20_60000
10
22.53000
20
44.80400
30
60.00000
0
VERTEX
8
20_60000
10
22.06100
20
43.06300
30
60.00000
0
VERTEX
8
20_60000
10
22.02200
20
42.95500
30
60.00000
0
VERTEX
8
20_60000
10
21.85800
20
42.59600
30
60.00000
0
VERTEX
8
20_60000
10
21.83800
20
42.46900
30
60.00000
0
VERTEX
8
20_60000
10
21.38100
20
41.67600
30
60.00000
0
VERTEX
8
20_60000
10
21.19800
20
41.09000
30
60.00000
0
VERTEX
8
20_60000
10
20.99200
20
40.75000
30
60.00000
0
VERTEX
8
20_60000
10
20.81900
20
40.21200
30
60.00000
0
VERTEX
8
20_60000
10
20.53800
20
39.51900
30
60.00000
0
VERTEX
8
20_60000
10
20.44100
20
39.11600
30
60.00000
0
VERTEX
8
20_60000
10
20.31900
20
38.87000
30
60.00000
0
VERTEX
8
20_60000
10
20.19100
20
38.66200
30
60.00000
0
VERTEX
8
20_60000
10
19.87000
20
38.37700
30
60.00000
0
VERTEX
8
20_60000
10
19.77100
20
38.20500
30
60.00000
0
VERTEX
8
20_60000
10
19.27700
20
37.88800
30
60.00000
0
VERTEX
8
20_60000
10
19.09600
20
37.68500
30
60.00000
0
VERTEX
8
20_60000
10
18.95600
20
37.62600
30
60.00000
0
VERTEX
8
20_60000
10
18.82800
20
37.60900
30
60.00000
0
VERTEX
8
20_60000
10
18.69700
20
37.44500
30
60.00000
0
VERTEX
8
20_60000
10
18.20300
20
37.38000
30
60.00000
0
VERTEX
8
20_60000
10
17.76000
20
37.26300
30
60.00000
0
VERTEX
8
20_60000
10
17.38600
20
37.12100
30
60.00000
0
VERTEX
8
20_60000
10
17.31900
20
37.07800
30
60.00000
0
VERTEX
8
20_60000
10
17.09500
20
37.06800
30
60.00000
0
VERTEX
8
20_60000
10
16.18100
20
36.95300
30
60.00000
0
VERTEX
8
20_60000
10
14.28600
20
36.66700
30
60.00000
0
VERTEX
8
20_60000
10
13.15400
20
36.55100
30
60.00000
0
VERTEX
8
20_60000
10
12.07300
20
36.48200
30
60.00000
0
VERTEX
8
20_60000
10
11.24700
20
36.34500
30
60.00000
0
VERTEX
8
20_60000
10
10.35700
20
36.34200
30
60.00000
0
VERTEX
8
20_60000
10
10.28400
20
36.37200
30
60.00000
0
VERTEX
8
20_60000
10
9.76200
20
36.31700
30
60.00000
0
VERTEX
8
20_60000
10
9.63200
20
36.31800
30
60.00000
0
VERTEX
8
20_60000
10
9.73600
20
35.57000
30
60.00000
0
VERTEX
8
20_60000
10
10.06800
20
32.85600
30
60.00000
0
VERTEX
8
20_60000
10
10.16600
20
32.19600
30
60.00000
0
VERTEX
8
20_60000
10
10.43000
20
30.12100
30
60.00000
0
VERTEX
8
20_60000
10
10.51200
20
29.53800
30
60.00000
0
VERTEX
8
20_60000
10
10.94800
20
26.17100
30
60.00000
0
VERTEX
8
20_60000
10
11.13300
20
24.65800
30
60.00000
0
VERTEX
8
20_60000
10
11.18800
20
24.29200
30
60.00000
0
VERTEX
8
20_60000
10
11.65600
20
20.52200
30
60.00000
0
VERTEX
8
20_60000
10
11.78200
20
19.44200
30
60.00000
0
VERTEX
8
20_60000
10
11.98200
20
17.91700
30
60.00000
0
VERTEX
8
20_60000
10
12.07000
20
17.14800
30
60.00000
0
VERTEX
8
20_60000
10
12.42200
20
14.37400
30
60.00000
0
VERTEX
8
20_60000
10
12.93500
20
10.16300
30
60.00000
0
VERTEX
8
20_60000
10
13.22600
20
7.69400
30
60.00000
0
VERTEX
8
20_60000
10
13.51400
20
5.19300
30
60.00000
0
VERTEX
8
20_60000
10
13.59200
20
4.43800
30
60.00000
0
VERTEX
8
20_60000
10
13.98900
20
0.99900
30
60.00000
0
VERTEX
8
20_60000
10
14.09200
20
0.00600
30
60.00000
0
VERTEX
8
20_60000
10
126.62901
20
0.00600
30
60.00000
0
VERTEX
8
20_60000
10
126.29900
20
0.53300
30
60.00000
0
VERTEX
8
20_60000
10
126.09801
20
0.90400
30
60.00000
0
VERTEX
8
20_60000
10
125.98100
20
1.22200
30
60.00000
0
VERTEX
8
20_60000
10
125.79501
20
1.62800
30
60.00000
0
VERTEX
8
20_60000
10
125.65601
20
1.75600
30
60.00000
0
VERTEX
8
20_60000
10
125.41100
20
2.05800
30
60.00000
0
VERTEX
8
20_60000
10
125.28901
20
2.16800
30
60.00000
0
VERTEX
8
20_60000
10
125.20400
20
2.30900
30
60.00000
0
VERTEX
8
20_60000
10
125.03700
20
2.62700
30
60.00000
0
VERTEX
8
20_60000
10
124.97001
20
2.82700
30
60.00000
0
VERTEX
8
20_60000
10
124.93700
20
3.09000
30
60.00000
0
VERTEX
8
20_60000
10
124.76801
20
3.49500
30
60.00000
0
VERTEX
8
20_60000
10
124.70701
20
3.66800
30
60.00000
0
VERTEX
8
20_60000
10
123.89201
20
5.58600
30
60.00000
0
VERTEX
8
20_60000
10
123.78400
20
6.01800
30
60.00000
0
VERTEX
8
20_60000
10
123.80100
20
6.07800
30
60.00000
0
VERTEX
8
20_60000
10
123.73100
20
6.19700
30
60.00000
0
VERTEX
8
20_60000
10
123.70100
20
6.45200
30
60.00000
0
VERTEX
8
20_60000
10
123.64001
20
6.63700
30
60.00000
0
VERTEX
8
20_60000
10
123.56901
20
7.12400
30
60.00000
0
VERTEX
8
20_60000
10
123.57301
20
7.20000
30
60.00000
0
VERTEX
8
20_60000
10
123.92801
20
7.96300
30
60.00000
0
VERTEX
8
20_60000
10
123.95200
20
8.02800
30
60.00000
0
VERTEX
8
20_60000
10
124.77601
20
9.24600
30
60.00000
0
VERTEX
8
20_60000
10
124.82301
20
9.33300
30
60.00000
0
VERTEX
8
20_60000
10
125.01501
20
9.62700
30
60.00000
0
VERTEX
8
20_60000
10
125.33801
20
10.06600
30
60.00000
0
VERTEX
8
20_60000
10
125.49500
20
10.30700
30
60.00000
0
VERTEX
8
20_60000
10
125.84501
20
10.85500
30
60.00000
0
VERTEX
8
20_60000
10
127.12801
20
12.97000
30
60.00000
0
VERTEX
8
20_60000
10
127.24901
20
13.21000
30
60.00000
0
VERTEX
8
20_60000
10
127.52801
20
13.70600
30
60.00000
0
VERTEX
8
20_60000
10
127.58801
20
13.78700
30
60.00000
0
VERTEX
8
20_60000
10
127.79800
20
14.16000
30
60.00000
0
VERTEX
8
20_60000
10
127.94000
20
14.39100
30
60.00000
0
VERTEX
8
20_60000
10
129.67700
20
17.76800
30
60.00000
0
VERTEX
8
20_60000
10
129.71701
20
17.89600
30
60.00000
0
VERTEX
8
20_60000
10
129.80701
20
18.11100
30
60.00000
0
VERTEX
8
20_60000
10
130.14801
20
19.08600
30
60.00000
0
VERTEX
8
20_60000
10
130.23500
20
19.36100
30
60.00000
0
VERTEX
8
20_60000
10
130.25900
20
19.50800
30
60.00000
0
VERTEX
8
20_60000
10
130.30400
20
19.61000
30
60.00000
0
VERTEX
8
20_60000
10
130.81201
20
21.13100
30
60.00000
0
VERTEX
8
20_60000
10
130.88901
20
21.26900
30
60.00000
0
VERTEX
8
20_60000
10
131.02301
20
21.78200
30
60.00000
0
VERTEX
8
20_60000
10
131.14601
20
22.19100
30
60.00000
0
VERTEX
8
20_60000
10
131.25301
20
22.92800
30
60.00000
0
VERTEX
8
20_60000
10
131.31601
20
23.03900
30
60.00000
0
VERTEX
8
20_60000
10
131.32800
20
23.22600
30
60.00000
0
VERTEX
8
20_60000
10
131.51201
20
23.43900
30
60.00000
0
VERTEX
8
20_60000
10
131.67300
20
23.79200
30
60.00000
0
VERTEX
8
20_60000
10
131.71301
20
24.13200
30
60.00000
0
VERTEX
8
20_60000
10
131.76701
20
24.24600
30
60.00000
0
VERTEX
8
20_60000
10
131.90401
20
25.03000
30
60.00000
0
VERTEX
8
20_60000
10
131.94101
20
25.18900
30
60.00000
0
VERTEX
8
20_60000
10
132.15201
20
25.63000
30
60.00000
0
VERTEX
8
20_60000
10
132.16501
20
25.71700
30
60.00000
0
VERTEX
8
20_60000
10
132.15201
20
25.77000
30
60.00000
0
VERTEX
8
20_60000
10
132.24501
20
25.86300
30
60.00000
0
VERTEX
8
20_60000
10
132.31500
20
26.05000
30
60.00000
0
VERTEX
8
20_60000
10
132.24501
20
26.33200
30
60.00000
0
VERTEX
8
20_60000
10
132.20801
20
26.38900
30
60.00000
0
VERTEX
8
20_60000
10
132.17801
20
27.08200
30
60.00000
0
VERTEX
8
20_60000
10
132.35001
20
27.45100
30
60.00000
0
VERTEX
8
20_60000
10
132.45601
20
28.09800
30
60.00000
0
VERTEX
8
20_60000
10
132.48401
20
28.48500
30
60.00000
0
VERTEX
8
20_60000
10
132.49701
20
29.01300
30
60.00000
0
VERTEX
8
20_60000
10
132.54300
20
29.20700
30
60.00000
0
VERTEX
8
20_60000
10
132.87401
20
30.06200
30
60.00000
0
VERTEX
8
20_60000
10
132.95201
20
30.20600
30
60.00000
0
VERTEX
8
20_60000
10
133.49301
20
31.55000
30
60.00000
0
VERTEX
8
20_60000
10
133.59900
20
31.70600
30
60.00000
0
VERTEX
8
20_60000
10
133.77501
20
32.01400
30
60.00000
0
VERTEX
8
20_60000
10
133.83801
20
32.04000
30
60.00000
0
VERTEX
8
20_60000
10
133.82800
20
32.08500
30
60.00000
0
VERTEX
8
20_60000
10
134.18901
20
32.34200
30
60.00000
0
VERTEX
8
20_60000
10
134.43901
20
32.89100
30
60.00000
0
VERTEX
8
20_60000
10
134.75401
20
33.21300
30
60.00000
0
VERTEX
8
20_60000
10
134.79501
20
33.23600
30
60.00000
0
VERTEX
8
20_60000
10
134.80600
20
33.26600
30
60.00000
0
VERTEX
8
20_60000
10
135.06300
20
33.43900
30
60.00000
0
VERTEX
8
20_60000
10
135.14801
20
33.73100
30
60.00000
0
VERTEX
8
20_60000
10
135.48201
20
34.08600
30
60.00000
0
VERTEX
8
20_60000
10
135.64500
20
34.39700
30
60.00000
0
VERTEX
8
20_60000
10
135.74400
20
34.77800
30
60.00000
0
VERTEX
8
20_60000
10
135.74501
20
34.88300
30
60.00000
0
VERTEX
8
20_60000
10
135.79401
20
35.01000
30
60.00000
0
VERTEX
8
20_60000
10
136.07600
20
35.29800
30
60.00000
0
VERTEX
8
20_60000
10
136.33301
20
35.81000
30
60.00000
0
VERTEX
8
20_60000
10
136.42101
20
35.83100
30
60.00000
0
VERTEX
8
20_60000
10
136.88101
20
36.60500
30
60.00000
0
VERTEX
8
20_60000
10
137.09500
20
37.09900
30
60.00000
0
VERTEX
8
20_60000
10
137.43501
20
38.13900
30
60.00000
0
VERTEX
8
20_60000
10
137.54501
20
38.39900
30
60.00000
0
VERTEX
8
20_60000
10
137.57600
20
38.59900
30
60.00000
0
VERTEX
8
20_60000
10
138.08601
20
40.02300
30
60.00000
0
VERTEX
8
20_60000
10
138.72301
20
41.35500
30
60.00000
0
VERTEX
8
20_60000
10
138.81500
20
41.52300
30
60.00000
0
VERTEX
8
20_60000
10
139.05701
20
41.88000
30
60.00000
0
VERTEX
8
20_60000
10
139.52400
20
42.41000
30
60.00000
0
VERTEX
8
20_60000
10
139.63000
20
42.72300
30
60.00000
0
VERTEX
8
20_60000
10
139.70700
20
42.89700
30
60.00000
0
VERTEX
8
20_60000
10
140.22401
20
43.72700
30
60.00000
0
VERTEX
8
20_60000
10
140.47200
20
44.16800
30
60.00000
0
VERTEX
8
20_60000
10
140.59801
20
44.43000
30
60.00000
0
VERTEX
8
20_60000
10
140.84100
20
45.08800
30
60.00000
0
VERTEX
8
20_60000
10
140.97601
20
45.37100
30
60.00000
0
VERTEX
8
20_60000
10
141.33601
20
46.25300
30
60.00000
0
VERTEX
8
20_60000
10
141.40201
20
46.39700
30
60.00000
0
VERTEX
8
20_60000
10
141.55000
20
46.67200
30
60.00000
0
VERTEX
8
20_60000
10
141.70500
20
47.03000
30
60.00000
0
VERTEX
8
20_60000
10
142.04800
20
47.91600
30
60.00000
0
VERTEX
8
20_60000
10
142.30501
20
48.29500
30
60.00000
0
VERTEX
8
20_60000
10
142.35901
20
48.42400
30
60.00000
0
VERTEX
8
20_60000
10
142.76801
20
49.13600
30
60.00000
0
VERTEX
8
20_60000
10
142.81900
20
49.23800
30
60.00000
0
VERTEX
8
20_60000
10
143.25101
20
49.80000
30
60.00000
0
VERTEX
8
20_60000
10
143.41901
20
50.54600
30
60.00000
0
VERTEX
8
20_60000
10
143.39700
20
50.69500
30
60.00000
0
VERTEX
8
20_60000
10
143.53801
20
50.98200
30
60.00000
0
VERTEX
8
20_60000
10
143.63501
20
51.14700
30
60.00000
0
VERTEX
8
20_60000
10
143.68201
20
51.20800
30
60.00000
0
VERTEX
8
20_60000
10
143.83200
20
51.47300
30
60.00000
0
VERTEX
8
20_60000
10
144.10101
20
52.22500
30
60.00000
0
VERTEX
8
20_60000
10
144.51300
20
53.09700
30
60.00000
0
VERTEX
8
20_60000
10
144.59100
20
53.33800
30
60.00000
0
VERTEX
8
20_60000
10
144.64401
20
53.46400
30
60.00000
0
VERTEX
8
20_60000
10
144.91701
20
54.53000
30
60.00000
0
VERTEX
8
20_60000
10
144.98401
20
54.83200
30
60.00000
0
VERTEX
8
20_60000
10
145.16901
20
55.80200
30
60.00000
0
VERTEX
8
20_60000
10
145.32301
20
56.30400
30
60.00000
0
VERTEX
8
20_60000
10
145.33101
20
56.46300
30
60.00000
0
VERTEX
8
20_60000
10
145.52301
20
57.38800
30
60.00000
0
VERTEX
8
20_60000
10
145.64301
20
57.79000
30
60.00000
0
VERTEX
8
20_60000
10
146.01201
20
58.73800
30
60.00000
0
VERTEX
8
20_60000
10
146.27501
20
59.33100
30
60.00000
0
VERTEX
8
20_60000
10
146.48300
20
59.63200
30
60.00000
0
VERTEX
8
20_60000
10
146.95201
20
60.58600
30
60.00000
0
VERTEX
8
20_60000
10
146.98801
20
60.61900
30
60.00000
0
VERTEX
8
20_60000
10
147.09401
20
61.10200
30
60.00000
0
VERTEX
8
20_60000
10
147.14201
20
61.21600
30
60.00000
0
VERTEX
8
20_60000
10
147.18800
20
61.36800
30
60.00000
0
VERTEX
8
20_60000
10
147.37300
20
61.60500
30
60.00000
0
VERTEX
8
20_60000
10
147.54601
20
62.26900
30
60.00000
0
VERTEX
8
20_60000
10
147.58200
20
62.61000
30
60.00000
0
VERTEX
8
20_60000
10
147.65800
20
62.77700
30
60.00000
0
VERTEX
8
20_60000
10
147.76901
20
63.26600
30
60.00000
0
VERTEX
8
20_60000
10
147.82701
20
63.40300
30
60.00000
0
VERTEX
8
20_60000
10
147.95900
20
63.78900
30
60.00000
0
VERTEX
8
20_60000
10
148.26001
20
64.49600
30
60.00000
0
VERTEX
8
20_60000
10
148.26300
20
64.53900
30
60.00000
0
VERTEX
8
20_60000
10
148.34700
20
64.65800
30
60.00000
0
VERTEX
8
20_60000
10
148.46101
20
64.87300
30
60.00000
0
VERTEX
8
20_60000
10
148.72401
20
65.23901
30
60.00000
0
VERTEX
8
20_60000
10
148.86700
20
65.52500
30
60.00000
0
VERTEX
8
20_60000
10
149.05600
20
66.00201
30
60.00000
0
VERTEX
8
20_60000
10
149.13301
20
66.32401
30
60.00000
0
VERTEX
8
20_60000
10
149.17801
20
66.55500
30
60.00000
0
VERTEX
8
20_60000
10
149.64101
20
67.75000
30
60.00000
0
VERTEX
8
20_60000
10
149.87201
20
68.20100
30
60.00000
0
VERTEX
8
20_60000
10
150.17801
20
68.77100
30
60.00000
0
VERTEX
8
20_60000
10
150.26300
20
68.95200
30
60.00000
0
VERTEX
8
20_60000
10
150.63600
20
69.96001
30
60.00000
0
VERTEX
8
20_60000
10
150.83801
20
70.57500
30
60.00000
0
VERTEX
8
20_60000
10
150.91101
20
70.77000
30
60.00000
0
VERTEX
8
20_60000
10
151.11201
20
71.57101
30
60.00000
0
VERTEX
8
20_60000
10
151.20300
20
72.00500
30
60.00000
0
VERTEX
8
20_60000
10
151.36900
20
72.52800
30
60.00000
0
VERTEX
8
20_60000
10
151.48001
20
73.01801
30
60.00000
0
VERTEX
8
20_60000
10
151.62100
20
73.95400
30
60.00000
0
VERTEX
8
20_60000
10
151.92101
20
75.51400
30
60.00000
0
VERTEX
8
20_60000
10
151.96400
20
75.91300
30
60.00000
0
VERTEX
8
20_60000
10
152.03401
20
76.42101
30
60.00000
0
VERTEX
8
20_60000
10
152.18401
20
77.39201
30
60.00000
0
VERTEX
8
20_60000
10
152.23201
20
77.90401
30
60.00000
0
VERTEX
8
20_60000
10
152.39500
20
78.77901
30
60.00000
0
VERTEX
8
20_60000
10
152.41301
20
78.83900
30
60.00000
0
VERTEX
8
20_60000
10
152.40300
20
79.60400
30
60.00000
0
VERTEX
8
20_60000
10
152.55901
20
80.13600
30
60.00000
0
VERTEX
8
20_60000
10
152.53001
20
80.48200
30
60.00000
0
VERTEX
8
20_60000
10
152.56601
20
80.94200
30
60.00000
0
VERTEX
8
20_60000
10
152.96800
20
82.89001
30
60.00000
0
VERTEX
8
20_60000
10
152.97101
20
83.00900
30
60.00000
0
VERTEX
8
20_60000
10
153.01201
20
83.16100
30
60.00000
0
VERTEX
8
20_60000
10
153.10301
20
83.90200
30
60.00000
0
VERTEX
8
20_60000
10
153.18401
20
85.72800
30
60.00000
0
VERTEX
8
20_60000
10
153.38301
20
88.02801
30
60.00000
0
VERTEX
8
20_60000
10
153.37201
20
89.48601
30
60.00000
0
VERTEX
8
20_60000
10
153.37201
20
89.74600
30
60.00000
0
VERTEX
8
20_60000
10
153.38000
20
89.79301
30
60.00000
0
VERTEX
8
20_60000
10
153.36801
20
90.17700
30
60.00000
0
VERTEX
8
20_60000
10
153.31201
20
91.04501
30
60.00000
0
VERTEX
8
20_60000
10
153.32901
20
91.48400
30
60.00000
0
VERTEX
8
20_60000
10
153.35101
20
91.75800
30
60.00000
0
VERTEX
8
20_60000
10
153.36801
20
93.13901
30
60.00000
0
VERTEX
8
20_60000
10
153.41501
20
94.19300
30
60.00000
0
VERTEX
8
20_60000
10
153.53601
20
95.48200
30
60.00000
0
VERTEX
8
20_60000
10
153.52800
20
96.35300
30
60.00000
0
VERTEX
8
20_60000
10
153.54800
20
98.63200
30
60.00000
0
VERTEX
8
20_60000
10
153.55801
20
98.70200
30
60.00000
0
VERTEX
8
20_60000
10
153.51501
20
100.04800
30
60.00000
0
VERTEX
8
20_60000
10
153.54800
20
101.05100
30
60.00000
0
VERTEX
8
20_60000
10
153.54001
20
101.66901
30
60.00000
0
VERTEX
8
20_60000
10
153.57501
20
102.39900
30
60.00000
0
VERTEX
8
20_60000
10
153.49800
20
104.82301
30
60.00000
0
VERTEX
8
20_60000
10
153.54800
20
106.62901
30
60.00000
0
VERTEX
8
20_60000
10
153.48500
20
108.16601
30
60.00000
0
VERTEX
8
20_60000
10
153.45601
20
109.93900
30
60.00000
0
VERTEX
8
20_60000
10
153.45700
20
111.96800
30
60.00000
0
VERTEX
8
20_60000
10
153.50201
20
113.09601
30
60.00000
0
VERTEX
8
20_60000
10
153.49501
20
114.11001
30
60.00000
0
VERTEX
8
20_60000
10
153.50700
20
115.59100
30
60.00000
0
VERTEX
8
20_60000
10
153.54401
20
116.40301
30
60.00000
0
VERTEX
8
20_60000
10
153.44400
20
119.33900
30
60.00000
0
VERTEX
8
20_60000
10
153.43401
20
120.38701
30
60.00000
0
VERTEX
8
20_60000
10
153.34700
20
121.50600
30
60.00000
0
VERTEX
8
20_60000
10
153.32001
20
122.10400
30
60.00000
0
VERTEX
8
20_60000
10
153.26601
20
122.47900
30
60.00000
0
VERTEX
8
20_60000
10
153.14801
20
123.48100
30
60.00000
0
VERTEX
8
20_60000
10
152.89700
20
125.20200
30
60.00000
0
VERTEX
8
20_60000
10
152.79001
20
125.56701
30
60.00000
0
VERTEX
8
20_60000
10
152.54301
20
126.89400
30
60.00000
0
VERTEX
8
20_60000
10
152.14101
20
129.37500
30
60.00000
0
VERTEX
8
20_60000
10
151.79701
20
131.03000
30
60.00000
0
VERTEX
8
20_60000
10
151.38400
20
134.21800
30
60.00000
0
VERTEX
8
20_60000
10
151.36201
20
134.44901
30
60.00000
0
VERTEX
8
20_60000
10
151.16301
20
137.30400
30
60.00000
0
VERTEX
8
20_60000
10
151.27501
20
138.84700
30
60.00000
0
VERTEX
8
20_60000
10
151.49701
20
142.55000
30
60.00000
0
VERTEX
8
20_60000
10
151.56001
20
143.03300
30
60.00000
0
VERTEX
8
20_60000
10
151.62901
20
144.02200
30
60.00000
0
VERTEX
8
20_60000
10
151.69901
20
145.34601
30
60.00000
0
VERTEX
8
20_60000
10
151.90001
20
147.36900
30
60.00000
0
VERTEX
8
20_60000
10
151.94701
20
147.74001
30
60.00000
0
VERTEX
8
20_60000
10
151.95700
20
147.89101
30
60.00000
0
VERTEX
8
20_60000
10
152.09001
20
148.79301
30
60.00000
0
VERTEX
8
20_60000
10
152.39900
20
151.83501
30
60.00000
0
VERTEX
8
20_60000
10
152.42601
20
152.00401
30
60.00000
0
VERTEX
8
20_60000
10
152.69301
20
153.23901
30
60.00000
0
VERTEX
8
20_60000
10
152.89001
20
155.53700
30
60.00000
0
VERTEX
8
20_60000
10
153.19101
20
157.18102
30
60.00000
0
VERTEX
8
20_60000
10
153.47200
20
158.13901
30
60.00000
0
VERTEX
8
20_60000
10
153.60201
20
158.66400
30
60.00000
0
VERTEX
8
20_60000
10
153.78900
20
158.98100
30
60.00000
0
VERTEX
8
20_60000
10
153.89500
20
159.36101
30
60.00000
0
VERTEX
8
20_60000
10
154.01801
20
159.66400
30
60.00000
0
VERTEX
8
20_60000
10
154.17801
20
159.98300
30
60.00000
0
VERTEX
8
20_60000
10
154.22501
20
160.20300
30
60.00000
0
VERTEX
8
20_60000
10
154.30801
20
160.50201
30
60.00000
0
VERTEX
8
20_60000
10
154.44901
20
161.54401
30
60.00000
0
VERTEX
8
20_60000
10
154.51901
20
161.89301
30
60.00000
0
VERTEX
8
20_60000
10
155.00900
20
162.78500
30
60.00000
0
VERTEX
8
20_60000
10
155.19901
20
163.15100
30
60.00000
0
VERTEX
8
20_60000
10
155.21301
20
163.23801
30
60.00000
0
VERTEX
8
20_60000
10
155.47401
20
163.85800
30
60.00000
0
VERTEX
8
20_60000
10
156.12100
20
165.05602
30
60.00000
0
VERTEX
8
20_60000
10
156.15701
20
165.12201
30
60.00000
0
VERTEX
8
20_60000
10
156.40501
20
165.37801
30
60.00000
0
VERTEX
8
20_60000
10
156.38200
20
166.61401
30
60.00000
0
VERTEX
8
20_60000
10
156.34201
20
167.70001
30
60.00000
0
VERTEX
8
20_60000
10
156.34001
20
168.08000
30
60.00000
0
VERTEX
8
20_60000
10
156.35201
20
168.84401
30
60.00000
0
VERTEX
8
20_60000
10
156.34401
20
169.59201
30
60.00000
0
VERTEX
8
20_60000
10
156.36601
20
171.49301
30
60.00000
0
VERTEX
8
20_60000
10
156.40501
20
172.91501
30
60.00000
0
VERTEX
8
20_60000
10
156.25500
20
173.26302
30
60.00000
0
VERTEX
8
20_60000
10
156.21800
20
173.53900
30
60.00000
0
VERTEX
8
20_60000
10
155.63501
20
175.19601
30
60.00000
0
VERTEX
8
20_60000
10
155.60201
20
175.50401
30
60.00000
0
VERTEX
8
20_60000
10
155.58501
20
176.45201
30
60.00000
0
VERTEX
8
20_60000
10
155.46400
20
177.43501
30
60.00000
0
VERTEX
8
20_60000
10
155.47000
20
177.76302
30
60.00000
0
VERTEX
8
20_60000
10
155.51100
20
177.93800
30
60.00000
0
VERTEX
8
20_60000
10
155.48500
20
178.87901
30
60.00000
0
VERTEX
8
20_60000
10
155.53601
20
179.54601
30
60.00000
0
VERTEX
8
20_60000
10
155.50700
20
179.82001
30
60.00000
0
VERTEX
8
20_60000
10
155.52301
20
180.19701
30
60.00000
0
VERTEX
8
20_60000
10
155.62601
20
180.81601
30
60.00000
0
VERTEX
8
20_60000
10
155.58601
20
181.03401
30
60.00000
0
VERTEX
8
20_60000
10
155.62601
20
181.17300
30
60.00000
0
VERTEX
8
20_60000
10
155.62601
20
181.34901
30
60.00000
0
VERTEX
8
20_60000
10
155.60701
20
181.68401
30
60.00000
0
VERTEX
8
20_60000
10
155.16901
20
182.87901
30
60.00000
0
VERTEX
8
20_60000
10
155.17401
20
183.29301
30
60.00000
0
VERTEX
8
20_60000
10
153.69801
20
183.29401
30
60.00000
0
VERTEX
8
20_60000
10
39.88800
20
180.02600
30
60.00000
0
VERTEX
8
20_60000
10
153.69701
20
183.29401
30
60.00000
0
VERTEX
8
20_60000
10
152.87401
20
183.29401
30
60.00000
0
SEQEND
8
20_60000
0
ENDSEC
0
EOF
