0
SECTION
2
HEADER
9
$ACADVER
1
AC1009
0
ENDSEC
0
SECTION
2
TABLES
0
TABLE
2
LAYER
70
1
0
LAYER
2
15_45000
70
0
62
7
6
CONTINUOUS
0
ENDTAB
0
ENDSEC
0
SECTION
2
BLOCKS
0
ENDSEC
0
SECTION
2
ENTITIES
0
POLYLINE
8
15_45000
62
5
0
VERTEX
8
15_45000
10
25.62000
20
183.93401
30
45.00000
0
VERTEX
8
15_45000
10
16.29400
20
183.97401
30
45.00000
0
VERTEX
8
15_45000
10
16.23600
20
183.98201
30
45.00000
0
VERTEX
8
15_45000
10
156.49001
20
183.37401
30
45.00000
0
VERTEX
8
15_45000
10
25.62000
20
183.93401
30
45.00000
0
SEQEND
8
15_45000
0
POLYLINE
8
15_45000
62
5
0
VERTEX
8
15_45000
10
121.77300
20
183.55602
30
45.00000
0
VERTEX
8
15_45000
10
14.18000
20
184.12001
30
45.00000
0
VERTEX
8
15_45000
10
14.01400
20
184.12801
30
45.00000
0
VERTEX
8
15_45000
10
121.77300
20
183.55602
30
45.00000
0
SEQEND
8
15_45000
0
POLYLINE
8
15_45000
62
5
0
VERTEX
8
15_45000
10
24.04500
20
184.01901
30
45.00000
0
VERTEX
8
15_45000
10
83.35600
20
183.73201
30
45.00000
0
VERTEX
8
15_45000
10
24.04500
20
184.01901
30
45.00000
0
SEQEND
8
15_45000
0
POLYLINE
8
15_45000
62
5
0
VERTEX
8
15_45000
10
30.79800
20
183.57001
30
45.00000
0
VERTEX
8
15_45000
10
156.49001
20
183.37401
30
45.00000
0
VERTEX
8
15_45000
10
30.79800
20
183.57001
30
45.00000
0
SEQEND
8
15_45000
0
POLYLINE
8
15_45000
62
5
0
VERTEX
8
15_45000
10
98.19601
20
181.70001
30
45.00000
0
VERTEX
8
15_45000
10
39.88800
20
180.02600
30
45.00000
0
VERTEX
8
15_45000
10
98.19601
20
181.70001
30
45.00000
0
SEQEND
8
15_45000
0
POLYLINE
8
15_45000
62
5
0
VERTEX
8
15_45000
10
93.25401
20
182.59201
30
45.00000
0
VERTEX
8
15_45000
10
30.02200
20
181.81201
30
45.00000
0
VERTEX
8
15_45000
10
29.98200
20
181.82001
30
45.00000
0
VERTEX
8
15_45000
10
156.49001
20
183.37401
30
45.00000
0
VERTEX
8
15_45000
10
93.25401
20
182.59201
30
45.00000
0
SEQEND
8
15_45000
0
POLYLINE
8
15_45000
62
5
0
VERTEX
8
15_45000
10
9.80500
20
34.97100
30
45.00000
0
VERTEX
8
15_45000
10
10.06800
20
32.85600
30
45.00000
0
VERTEX
8
15_45000
10
10.16600
20
32.19600
30
45.00000
0
VERTEX
8
15_45000
10
10.96700
20
26.02700
30
45.00000
0
VERTEX
8
15_45000
10
11.12400
20
24.72800
30
45.00000
0
VERTEX
8
15_45000
10
11.18800
20
24.29200
30
45.00000
0
VERTEX
8
15_45000
10
11.64000
20
20.65400
30
45.00000
0
VERTEX
8
15_45000
10
11.78200
20
19.44200
30
45.00000
0
VERTEX
8
15_45000
10
11.97400
20
17.98100
30
45.00000
0
VERTEX
8
15_45000
10
12.07800
20
17.08500
30
45.00000
0
VERTEX
8
15_45000
10
12.59900
20
12.94300
30
45.00000
0
VERTEX
8
15_45000
10
13.20700
20
7.86200
30
45.00000
0
VERTEX
8
15_45000
10
13.99400
20
0.94700
30
45.00000
0
VERTEX
8
15_45000
10
14.09200
20
0.00600
30
45.00000
0
VERTEX
8
15_45000
10
158.53401
20
0.00600
30
45.00000
0
VERTEX
8
15_45000
10
158.60600
20
1.23800
30
45.00000
0
VERTEX
8
15_45000
10
158.65800
20
1.95200
30
45.00000
0
VERTEX
8
15_45000
10
158.71600
20
3.05000
30
45.00000
0
VERTEX
8
15_45000
10
158.80801
20
4.49800
30
45.00000
0
VERTEX
8
15_45000
10
158.83601
20
5.24400
30
45.00000
0
VERTEX
8
15_45000
10
159.03201
20
9.31600
30
45.00000
0
VERTEX
8
15_45000
10
159.12701
20
12.13800
30
45.00000
0
VERTEX
8
15_45000
10
159.04301
20
12.11600
30
45.00000
0
VERTEX
8
15_45000
10
158.36700
20
12.11800
30
45.00000
0
VERTEX
8
15_45000
10
158.24101
20
12.07400
30
45.00000
0
VERTEX
8
15_45000
10
157.35600
20
11.94500
30
45.00000
0
VERTEX
8
15_45000
10
155.49600
20
11.78000
30
45.00000
0
VERTEX
8
15_45000
10
154.90100
20
11.83500
30
45.00000
0
VERTEX
8
15_45000
10
154.47701
20
11.84400
30
45.00000
0
VERTEX
8
15_45000
10
153.31500
20
12.16300
30
45.00000
0
VERTEX
8
15_45000
10
152.68401
20
12.26900
30
45.00000
0
VERTEX
8
15_45000
10
152.55801
20
12.33400
30
45.00000
0
VERTEX
8
15_45000
10
150.66200
20
12.98400
30
45.00000
0
VERTEX
8
15_45000
10
150.57101
20
12.83500
30
45.00000
0
VERTEX
8
15_45000
10
150.20500
20
12.78500
30
45.00000
0
VERTEX
8
15_45000
10
149.15701
20
13.32500
30
45.00000
0
VERTEX
8
15_45000
10
148.71600
20
13.56600
30
45.00000
0
VERTEX
8
15_45000
10
147.82600
20
13.75500
30
45.00000
0
VERTEX
8
15_45000
10
147.72601
20
13.80000
30
45.00000
0
VERTEX
8
15_45000
10
146.72301
20
14.73900
30
45.00000
0
VERTEX
8
15_45000
10
146.07301
20
14.99600
30
45.00000
0
VERTEX
8
15_45000
10
145.61301
20
15.63900
30
45.00000
0
VERTEX
8
15_45000
10
145.35901
20
15.97800
30
45.00000
0
VERTEX
8
15_45000
10
145.29601
20
16.33400
30
45.00000
0
VERTEX
8
15_45000
10
144.61301
20
17.56300
30
45.00000
0
VERTEX
8
15_45000
10
144.42601
20
17.95200
30
45.00000
0
VERTEX
8
15_45000
10
144.34901
20
18.44600
30
45.00000
0
VERTEX
8
15_45000
10
144.07501
20
19.74600
30
45.00000
0
VERTEX
8
15_45000
10
143.97101
20
20.13600
30
45.00000
0
VERTEX
8
15_45000
10
144.00101
20
21.04100
30
45.00000
0
VERTEX
8
15_45000
10
143.88701
20
22.77700
30
45.00000
0
VERTEX
8
15_45000
10
144.00500
20
23.68600
30
45.00000
0
VERTEX
8
15_45000
10
144.12201
20
24.42700
30
45.00000
0
VERTEX
8
15_45000
10
144.18800
20
24.64900
30
45.00000
0
VERTEX
8
15_45000
10
144.88901
20
26.15600
30
45.00000
0
VERTEX
8
15_45000
10
145.03300
20
26.37900
30
45.00000
0
VERTEX
8
15_45000
10
145.10600
20
26.55300
30
45.00000
0
VERTEX
8
15_45000
10
145.99200
20
27.46100
30
45.00000
0
VERTEX
8
15_45000
10
146.11900
20
27.67600
30
45.00000
0
VERTEX
8
15_45000
10
146.33400
20
27.91400
30
45.00000
0
VERTEX
8
15_45000
10
148.01401
20
29.10600
30
45.00000
0
VERTEX
8
15_45000
10
148.95900
20
29.76300
30
45.00000
0
VERTEX
8
15_45000
10
149.03401
20
29.83000
30
45.00000
0
VERTEX
8
15_45000
10
149.08801
20
29.85000
30
45.00000
0
VERTEX
8
15_45000
10
151.61401
20
31.34300
30
45.00000
0
VERTEX
8
15_45000
10
152.45201
20
31.62600
30
45.00000
0
VERTEX
8
15_45000
10
153.01701
20
31.98300
30
45.00000
0
VERTEX
8
15_45000
10
153.44301
20
32.22700
30
45.00000
0
VERTEX
8
15_45000
10
155.15300
20
33.09500
30
45.00000
0
VERTEX
8
15_45000
10
156.25900
20
33.50700
30
45.00000
0
VERTEX
8
15_45000
10
156.55400
20
33.70100
30
45.00000
0
VERTEX
8
15_45000
10
157.50301
20
34.14300
30
45.00000
0
VERTEX
8
15_45000
10
158.23901
20
34.39400
30
45.00000
0
VERTEX
8
15_45000
10
158.44101
20
34.37300
30
45.00000
0
VERTEX
8
15_45000
10
158.47401
20
34.34500
30
45.00000
0
VERTEX
8
15_45000
10
158.49200
20
34.37300
30
45.00000
0
VERTEX
8
15_45000
10
159.02701
20
34.37300
30
45.00000
0
VERTEX
8
15_45000
10
159.12100
20
34.43900
30
45.00000
0
VERTEX
8
15_45000
10
159.11000
20
34.96900
30
45.00000
0
VERTEX
8
15_45000
10
159.06201
20
36.17100
30
45.00000
0
VERTEX
8
15_45000
10
158.98401
20
38.57100
30
45.00000
0
VERTEX
8
15_45000
10
158.93001
20
39.77200
30
45.00000
0
VERTEX
8
15_45000
10
158.85600
20
41.76800
30
45.00000
0
VERTEX
8
15_45000
10
158.71400
20
44.57600
30
45.00000
0
VERTEX
8
15_45000
10
158.56500
20
48.17900
30
45.00000
0
VERTEX
8
15_45000
10
158.55602
20
48.54800
30
45.00000
0
VERTEX
8
15_45000
10
158.55200
20
49.63600
30
45.00000
0
VERTEX
8
15_45000
10
158.55801
20
50.09600
30
45.00000
0
VERTEX
8
15_45000
10
158.62201
20
51.99800
30
45.00000
0
VERTEX
8
15_45000
10
158.62801
20
52.36200
30
45.00000
0
VERTEX
8
15_45000
10
158.63000
20
53.13400
30
45.00000
0
VERTEX
8
15_45000
10
158.59601
20
54.33600
30
45.00000
0
VERTEX
8
15_45000
10
158.54401
20
55.11100
30
45.00000
0
VERTEX
8
15_45000
10
158.50401
20
55.54400
30
45.00000
0
VERTEX
8
15_45000
10
158.45601
20
56.73000
30
45.00000
0
VERTEX
8
15_45000
10
158.40800
20
57.14000
30
45.00000
0
VERTEX
8
15_45000
10
158.33000
20
57.56200
30
45.00000
0
VERTEX
8
15_45000
10
158.33000
20
58.33400
30
45.00000
0
VERTEX
8
15_45000
10
158.31601
20
58.72800
30
45.00000
0
VERTEX
8
15_45000
10
158.27600
20
59.13000
30
45.00000
0
VERTEX
8
15_45000
10
158.17401
20
59.94800
30
45.00000
0
VERTEX
8
15_45000
10
158.10400
20
60.36400
30
45.00000
0
VERTEX
8
15_45000
10
158.04800
20
60.77200
30
45.00000
0
VERTEX
8
15_45000
10
158.02200
20
61.16800
30
45.00000
0
VERTEX
8
15_45000
10
157.97801
20
61.57200
30
45.00000
0
VERTEX
8
15_45000
10
157.94801
20
61.96800
30
45.00000
0
VERTEX
8
15_45000
10
157.90001
20
63.14000
30
45.00000
0
VERTEX
8
15_45000
10
157.87901
20
63.48200
30
45.00000
0
VERTEX
8
15_45000
10
157.84401
20
63.93200
30
45.00000
0
VERTEX
8
15_45000
10
157.79800
20
64.33400
30
45.00000
0
VERTEX
8
15_45000
10
157.69200
20
65.52200
30
45.00000
0
VERTEX
8
15_45000
10
157.65201
20
66.68600
30
45.00000
0
VERTEX
8
15_45000
10
157.61601
20
67.08400
30
45.00000
0
VERTEX
8
15_45000
10
157.62201
20
67.46201
30
45.00000
0
VERTEX
8
15_45000
10
157.60001
20
67.85400
30
45.00000
0
VERTEX
8
15_45000
10
157.53801
20
68.64001
30
45.00000
0
VERTEX
8
15_45000
10
157.50700
20
69.35001
30
45.00000
0
VERTEX
8
15_45000
10
157.45801
20
70.19601
30
45.00000
0
VERTEX
8
15_45000
10
157.42001
20
71.35201
30
45.00000
0
VERTEX
8
15_45000
10
157.37801
20
71.74600
30
45.00000
0
VERTEX
8
15_45000
10
157.35400
20
72.13400
30
45.00000
0
VERTEX
8
15_45000
10
157.34601
20
72.51801
30
45.00000
0
VERTEX
8
15_45000
10
157.32401
20
72.90401
30
45.00000
0
VERTEX
8
15_45000
10
157.30000
20
73.67400
30
45.00000
0
VERTEX
8
15_45000
10
157.22801
20
75.21600
30
45.00000
0
VERTEX
8
15_45000
10
157.18401
20
77.13200
30
45.00000
0
VERTEX
8
15_45000
10
157.15800
20
77.51801
30
45.00000
0
VERTEX
8
15_45000
10
157.18001
20
78.27400
30
45.00000
0
VERTEX
8
15_45000
10
157.17500
20
78.58100
30
45.00000
0
VERTEX
8
15_45000
10
157.14401
20
79.42600
30
45.00000
0
VERTEX
8
15_45000
10
157.09401
20
80.19601
30
45.00000
0
VERTEX
8
15_45000
10
157.10201
20
81.33200
30
45.00000
0
VERTEX
8
15_45000
10
157.06201
20
82.48000
30
45.00000
0
VERTEX
8
15_45000
10
157.00700
20
83.55000
30
45.00000
0
VERTEX
8
15_45000
10
156.95201
20
84.39600
30
45.00000
0
VERTEX
8
15_45000
10
156.96800
20
85.15200
30
45.00000
0
VERTEX
8
15_45000
10
156.96201
20
85.45400
30
45.00000
0
VERTEX
8
15_45000
10
156.93501
20
86.37501
30
45.00000
0
VERTEX
8
15_45000
10
156.90001
20
87.05601
30
45.00000
0
VERTEX
8
15_45000
10
156.86501
20
88.11700
30
45.00000
0
VERTEX
8
15_45000
10
156.86601
20
88.57800
30
45.00000
0
VERTEX
8
15_45000
10
156.90800
20
89.33401
30
45.00000
0
VERTEX
8
15_45000
10
156.90201
20
90.47201
30
45.00000
0
VERTEX
8
15_45000
10
156.94000
20
91.22800
30
45.00000
0
VERTEX
8
15_45000
10
156.94400
20
92.28700
30
45.00000
0
VERTEX
8
15_45000
10
156.93401
20
92.74600
30
45.00000
0
VERTEX
8
15_45000
10
156.93800
20
93.50600
30
45.00000
0
VERTEX
8
15_45000
10
156.92300
20
94.56200
30
45.00000
0
VERTEX
8
15_45000
10
156.86601
20
97.29800
30
45.00000
0
VERTEX
8
15_45000
10
156.90601
20
98.05801
30
45.00000
0
VERTEX
8
15_45000
10
156.89001
20
98.81600
30
45.00000
0
VERTEX
8
15_45000
10
156.90201
20
100.71201
30
45.00000
0
VERTEX
8
15_45000
10
156.91501
20
101.77100
30
45.00000
0
VERTEX
8
15_45000
10
156.94601
20
102.99200
30
45.00000
0
VERTEX
8
15_45000
10
156.95201
20
104.13200
30
45.00000
0
VERTEX
8
15_45000
10
156.94400
20
104.89001
30
45.00000
0
VERTEX
8
15_45000
10
156.95901
20
106.33000
30
45.00000
0
VERTEX
8
15_45000
10
156.96400
20
108.23000
30
45.00000
0
VERTEX
8
15_45000
10
156.99600
20
109.83201
30
45.00000
0
VERTEX
8
15_45000
10
156.98801
20
111.27300
30
45.00000
0
VERTEX
8
15_45000
10
157.03201
20
113.40900
30
45.00000
0
VERTEX
8
15_45000
10
157.04800
20
115.54401
30
45.00000
0
VERTEX
8
15_45000
10
157.15001
20
116.71400
30
45.00000
0
VERTEX
8
15_45000
10
157.16801
20
117.09601
30
45.00000
0
VERTEX
8
15_45000
10
157.16801
20
117.47800
30
45.00000
0
VERTEX
8
15_45000
10
157.13200
20
118.15401
30
45.00000
0
VERTEX
8
15_45000
10
157.11801
20
118.60400
30
45.00000
0
VERTEX
8
15_45000
10
157.13400
20
119.75201
30
45.00000
0
VERTEX
8
15_45000
10
157.13000
20
120.51201
30
45.00000
0
VERTEX
8
15_45000
10
157.14201
20
121.27601
30
45.00000
0
VERTEX
8
15_45000
10
157.18001
20
122.05201
30
45.00000
0
VERTEX
8
15_45000
10
157.20001
20
123.20000
30
45.00000
0
VERTEX
8
15_45000
10
157.29800
20
125.90401
30
45.00000
0
VERTEX
8
15_45000
10
157.35001
20
127.06801
30
45.00000
0
VERTEX
8
15_45000
10
157.41801
20
127.85801
30
45.00000
0
VERTEX
8
15_45000
10
157.42601
20
128.24400
30
45.00000
0
VERTEX
8
15_45000
10
157.47200
20
129.02800
30
45.00000
0
VERTEX
8
15_45000
10
157.46800
20
129.40800
30
45.00000
0
VERTEX
8
15_45000
10
157.51201
20
130.19200
30
45.00000
0
VERTEX
8
15_45000
10
157.52200
20
130.96201
30
45.00000
0
VERTEX
8
15_45000
10
157.56001
20
131.80400
30
45.00000
0
VERTEX
8
15_45000
10
157.62801
20
134.45401
30
45.00000
0
VERTEX
8
15_45000
10
157.72601
20
136.03801
30
45.00000
0
VERTEX
8
15_45000
10
157.74400
20
136.75601
30
45.00000
0
VERTEX
8
15_45000
10
157.76601
20
137.21001
30
45.00000
0
VERTEX
8
15_45000
10
157.80400
20
137.61200
30
45.00000
0
VERTEX
8
15_45000
10
157.80901
20
138.43600
30
45.00000
0
VERTEX
8
15_45000
10
157.80400
20
138.76201
30
45.00000
0
VERTEX
8
15_45000
10
157.74901
20
139.82800
30
45.00000
0
VERTEX
8
15_45000
10
157.66400
20
140.98401
30
45.00000
0
VERTEX
8
15_45000
10
157.57301
20
142.78300
30
45.00000
0
VERTEX
8
15_45000
10
157.51601
20
143.51100
30
45.00000
0
VERTEX
8
15_45000
10
157.39001
20
144.64201
30
45.00000
0
VERTEX
8
15_45000
10
157.32600
20
145.36401
30
45.00000
0
VERTEX
8
15_45000
10
157.22801
20
147.20401
30
45.00000
0
VERTEX
8
15_45000
10
157.18201
20
147.93600
30
45.00000
0
VERTEX
8
15_45000
10
157.17601
20
148.31201
30
45.00000
0
VERTEX
8
15_45000
10
157.09100
20
150.45900
30
45.00000
0
VERTEX
8
15_45000
10
157.07001
20
151.66000
30
45.00000
0
VERTEX
8
15_45000
10
157.00201
20
152.75201
30
45.00000
0
VERTEX
8
15_45000
10
157.00801
20
153.13400
30
45.00000
0
VERTEX
8
15_45000
10
156.99400
20
153.50401
30
45.00000
0
VERTEX
8
15_45000
10
156.96001
20
153.85800
30
45.00000
0
VERTEX
8
15_45000
10
156.95601
20
154.23401
30
45.00000
0
VERTEX
8
15_45000
10
156.88400
20
154.94000
30
45.00000
0
VERTEX
8
15_45000
10
156.85001
20
155.67201
30
45.00000
0
VERTEX
8
15_45000
10
156.78001
20
156.75401
30
45.00000
0
VERTEX
8
15_45000
10
156.74400
20
157.86201
30
45.00000
0
VERTEX
8
15_45000
10
156.65401
20
159.29601
30
45.00000
0
VERTEX
8
15_45000
10
156.62201
20
160.23100
30
45.00000
0
VERTEX
8
15_45000
10
156.59401
20
160.76401
30
45.00000
0
VERTEX
8
15_45000
10
156.58601
20
161.13600
30
45.00000
0
VERTEX
8
15_45000
10
156.53201
20
162.22000
30
45.00000
0
VERTEX
8
15_45000
10
156.41200
20
165.13400
30
45.00000
0
VERTEX
8
15_45000
10
156.38200
20
166.61401
30
45.00000
0
VERTEX
8
15_45000
10
156.34201
20
167.70601
30
45.00000
0
VERTEX
8
15_45000
10
156.35201
20
168.75002
30
45.00000
0
VERTEX
8
15_45000
10
156.34401
20
169.59201
30
45.00000
0
VERTEX
8
15_45000
10
156.37201
20
171.88000
30
45.00000
0
VERTEX
8
15_45000
10
156.40201
20
172.66000
30
45.00000
0
VERTEX
8
15_45000
10
156.42001
20
174.18800
30
45.00000
0
VERTEX
8
15_45000
10
156.45401
20
174.97801
30
45.00000
0
VERTEX
8
15_45000
10
156.46201
20
175.36401
30
45.00000
0
VERTEX
8
15_45000
10
156.45601
20
175.64301
30
45.00000
0
VERTEX
8
15_45000
10
156.46001
20
176.86801
30
45.00000
0
VERTEX
8
15_45000
10
156.44701
20
177.89201
30
45.00000
0
VERTEX
8
15_45000
10
156.45001
20
181.09801
30
45.00000
0
VERTEX
8
15_45000
10
156.46001
20
181.67902
30
45.00000
0
VERTEX
8
15_45000
10
156.48201
20
182.17401
30
45.00000
0
VERTEX
8
15_45000
10
156.47601
20
182.54401
30
45.00000
0
VERTEX
8
15_45000
10
156.49001
20
183.37401
30
45.00000
0
VERTEX
8
15_45000
10
10.57000
20
184.24600
30
45.00000
0
VERTEX
8
15_45000
10
10.51600
20
183.30801
30
45.00000
0
VERTEX
8
15_45000
10
10.45800
20
181.85800
30
45.00000
0
VERTEX
8
15_45000
10
10.32200
20
180.06001
30
45.00000
0
VERTEX
8
15_45000
10
10.26400
20
179.03601
30
45.00000
0
VERTEX
8
15_45000
10
10.05600
20
176.60001
30
45.00000
0
VERTEX
8
15_45000
10
9.86800
20
174.89401
30
45.00000
0
VERTEX
8
15_45000
10
9.81200
20
174.18800
30
45.00000
0
VERTEX
8
15_45000
10
9.73100
20
173.47701
30
45.00000
0
VERTEX
8
15_45000
10
9.69400
20
173.16602
30
45.00000
0
VERTEX
8
15_45000
10
9.28200
20
173.20401
30
45.00000
0
VERTEX
8
15_45000
10
9.23400
20
172.48201
30
45.00000
0
VERTEX
8
15_45000
10
9.17000
20
171.75801
30
45.00000
0
VERTEX
8
15_45000
10
9.00900
20
170.44701
30
45.00000
0
VERTEX
8
15_45000
10
8.90600
20
169.75301
30
45.00000
0
VERTEX
8
15_45000
10
8.74000
20
168.51401
30
45.00000
0
VERTEX
8
15_45000
10
9.19300
20
168.27901
30
45.00000
0
VERTEX
8
15_45000
10
9.74200
20
168.06401
30
45.00000
0
VERTEX
8
15_45000
10
10.03100
20
167.94200
30
45.00000
0
VERTEX
8
15_45000
10
10.43400
20
167.72202
30
45.00000
0
VERTEX
8
15_45000
10
11.77300
20
166.86900
30
45.00000
0
VERTEX
8
15_45000
10
12.38100
20
166.33401
30
45.00000
0
VERTEX
8
15_45000
10
13.68000
20
164.93201
30
45.00000
0
VERTEX
8
15_45000
10
14.71100
20
163.49301
30
45.00000
0
VERTEX
8
15_45000
10
14.82700
20
163.31201
30
45.00000
0
VERTEX
8
15_45000
10
14.96300
20
163.00601
30
45.00000
0
VERTEX
8
15_45000
10
15.16800
20
162.69101
30
45.00000
0
VERTEX
8
15_45000
10
15.41300
20
162.18901
30
45.00000
0
VERTEX
8
15_45000
10
16.04500
20
160.79800
30
45.00000
0
VERTEX
8
15_45000
10
16.93600
20
158.95901
30
45.00000
0
VERTEX
8
15_45000
10
17.22800
20
158.16400
30
45.00000
0
VERTEX
8
15_45000
10
17.72400
20
156.41600
30
45.00000
0
VERTEX
8
15_45000
10
18.02000
20
155.22200
30
45.00000
0
VERTEX
8
15_45000
10
18.06500
20
154.97401
30
45.00000
0
VERTEX
8
15_45000
10
18.32700
20
152.81401
30
45.00000
0
VERTEX
8
15_45000
10
18.44000
20
151.73801
30
45.00000
0
VERTEX
8
15_45000
10
18.57600
20
150.01601
30
45.00000
0
VERTEX
8
15_45000
10
18.63300
20
148.07201
30
45.00000
0
VERTEX
8
15_45000
10
18.55000
20
144.42500
30
45.00000
0
VERTEX
8
15_45000
10
18.53200
20
144.12300
30
45.00000
0
VERTEX
8
15_45000
10
18.43900
20
143.04201
30
45.00000
0
VERTEX
8
15_45000
10
18.26900
20
140.45300
30
45.00000
0
VERTEX
8
15_45000
10
18.18000
20
139.83301
30
45.00000
0
VERTEX
8
15_45000
10
17.92600
20
137.43100
30
45.00000
0
VERTEX
8
15_45000
10
17.72600
20
136.48001
30
45.00000
0
VERTEX
8
15_45000
10
17.45200
20
134.96201
30
45.00000
0
VERTEX
8
15_45000
10
17.09900
20
132.78801
30
45.00000
0
VERTEX
8
15_45000
10
16.92000
20
131.80101
30
45.00000
0
VERTEX
8
15_45000
10
16.67900
20
130.69501
30
45.00000
0
VERTEX
8
15_45000
10
16.29500
20
128.63701
30
45.00000
0
VERTEX
8
15_45000
10
15.12800
20
123.17300
30
45.00000
0
VERTEX
8
15_45000
10
14.68600
20
121.21201
30
45.00000
0
VERTEX
8
15_45000
10
14.58800
20
120.82401
30
45.00000
0
VERTEX
8
15_45000
10
14.32800
20
119.98601
30
45.00000
0
VERTEX
8
15_45000
10
14.10100
20
119.08201
30
45.00000
0
VERTEX
8
15_45000
10
13.79900
20
117.97101
30
45.00000
0
VERTEX
8
15_45000
10
13.66500
20
117.50600
30
45.00000
0
VERTEX
8
15_45000
10
13.44800
20
116.81200
30
45.00000
0
VERTEX
8
15_45000
10
13.36900
20
116.70500
30
45.00000
0
VERTEX
8
15_45000
10
13.25000
20
116.26701
30
45.00000
0
VERTEX
8
15_45000
10
13.08400
20
115.75301
30
45.00000
0
VERTEX
8
15_45000
10
12.90500
20
115.27100
30
45.00000
0
VERTEX
8
15_45000
10
12.76700
20
114.95601
30
45.00000
0
VERTEX
8
15_45000
10
12.07600
20
113.51301
30
45.00000
0
VERTEX
8
15_45000
10
11.77200
20
113.18600
30
45.00000
0
VERTEX
8
15_45000
10
11.46700
20
112.81300
30
45.00000
0
VERTEX
8
15_45000
10
11.22200
20
112.57800
30
45.00000
0
VERTEX
8
15_45000
10
11.16400
20
112.50001
30
45.00000
0
VERTEX
8
15_45000
10
11.08300
20
112.36101
30
45.00000
0
VERTEX
8
15_45000
10
10.59400
20
111.68201
30
45.00000
0
VERTEX
8
15_45000
10
10.37600
20
111.41801
30
45.00000
0
VERTEX
8
15_45000
10
9.83100
20
110.90301
30
45.00000
0
VERTEX
8
15_45000
10
9.71000
20
110.68800
30
45.00000
0
VERTEX
8
15_45000
10
9.63500
20
110.66200
30
45.00000
0
VERTEX
8
15_45000
10
9.27700
20
110.32800
30
45.00000
0
VERTEX
8
15_45000
10
8.74100
20
110.04001
30
45.00000
0
VERTEX
8
15_45000
10
8.54600
20
109.85800
30
45.00000
0
VERTEX
8
15_45000
10
8.31600
20
109.56701
30
45.00000
0
VERTEX
8
15_45000
10
7.90100
20
109.15501
30
45.00000
0
VERTEX
8
15_45000
10
7.22300
20
108.32001
30
45.00000
0
VERTEX
8
15_45000
10
7.29700
20
107.88200
30
45.00000
0
VERTEX
8
15_45000
10
7.35400
20
107.48601
30
45.00000
0
VERTEX
8
15_45000
10
7.47600
20
106.31100
30
45.00000
0
VERTEX
8
15_45000
10
7.57400
20
105.52400
30
45.00000
0
VERTEX
8
15_45000
10
7.63400
20
105.11001
30
45.00000
0
VERTEX
8
15_45000
10
7.67500
20
104.73701
30
45.00000
0
VERTEX
8
15_45000
10
7.71600
20
104.32401
30
45.00000
0
VERTEX
8
15_45000
10
7.74400
20
103.93201
30
45.00000
0
VERTEX
8
15_45000
10
7.77000
20
103.15401
30
45.00000
0
VERTEX
8
15_45000
10
7.79000
20
102.79201
30
45.00000
0
VERTEX
8
15_45000
10
7.98400
20
100.00500
30
45.00000
0
VERTEX
8
15_45000
10
8.04400
20
98.11001
30
45.00000
0
VERTEX
8
15_45000
10
8.08600
20
97.33601
30
45.00000
0
VERTEX
8
15_45000
10
8.09700
20
96.99300
30
45.00000
0
VERTEX
8
15_45000
10
8.10600
20
96.18001
30
45.00000
0
VERTEX
8
15_45000
10
8.13400
20
95.79601
30
45.00000
0
VERTEX
8
15_45000
10
8.18200
20
94.64001
30
45.00000
0
VERTEX
8
15_45000
10
8.18900
20
94.21001
30
45.00000
0
VERTEX
8
15_45000
10
8.23800
20
92.66901
30
45.00000
0
VERTEX
8
15_45000
10
8.25600
20
92.33200
30
45.00000
0
VERTEX
8
15_45000
10
8.31600
20
91.61900
30
45.00000
0
VERTEX
8
15_45000
10
8.35200
20
90.95801
30
45.00000
0
VERTEX
8
15_45000
10
8.41600
20
90.04000
30
45.00000
0
VERTEX
8
15_45000
10
8.42800
20
89.65601
30
45.00000
0
VERTEX
8
15_45000
10
8.41400
20
88.88800
30
45.00000
0
VERTEX
8
15_45000
10
8.44500
20
87.41300
30
45.00000
0
VERTEX
8
15_45000
10
8.49600
20
86.21201
30
45.00000
0
VERTEX
8
15_45000
10
8.48300
20
84.23901
30
45.00000
0
VERTEX
8
15_45000
10
8.45400
20
82.37400
30
45.00000
0
VERTEX
8
15_45000
10
8.40000
20
80.83000
30
45.00000
0
VERTEX
8
15_45000
10
8.41600
20
80.45000
30
45.00000
0
VERTEX
8
15_45000
10
8.41800
20
80.06600
30
45.00000
0
VERTEX
8
15_45000
10
8.39200
20
79.29401
30
45.00000
0
VERTEX
8
15_45000
10
8.41000
20
77.65601
30
45.00000
0
VERTEX
8
15_45000
10
8.40800
20
76.99800
30
45.00000
0
VERTEX
8
15_45000
10
8.38400
20
76.22200
30
45.00000
0
VERTEX
8
15_45000
10
8.41000
20
75.46400
30
45.00000
0
VERTEX
8
15_45000
10
8.41000
20
73.93000
30
45.00000
0
VERTEX
8
15_45000
10
8.42200
20
73.16400
30
45.00000
0
VERTEX
8
15_45000
10
8.40000
20
71.62200
30
45.00000
0
VERTEX
8
15_45000
10
8.43800
20
70.48400
30
45.00000
0
VERTEX
8
15_45000
10
8.44600
20
68.95600
30
45.00000
0
VERTEX
8
15_45000
10
8.43800
20
67.41801
30
45.00000
0
VERTEX
8
15_45000
10
8.41500
20
65.92900
30
45.00000
0
VERTEX
8
15_45000
10
8.37800
20
61.63800
30
45.00000
0
VERTEX
8
15_45000
10
8.33400
20
60.08200
30
45.00000
0
VERTEX
8
15_45000
10
8.33400
20
59.74900
30
45.00000
0
VERTEX
8
15_45000
10
8.33600
20
59.31600
30
45.00000
0
VERTEX
8
15_45000
10
8.36200
20
58.55800
30
45.00000
0
VERTEX
8
15_45000
10
8.36000
20
58.17600
30
45.00000
0
VERTEX
8
15_45000
10
8.37400
20
57.08500
30
45.00000
0
VERTEX
8
15_45000
10
8.40200
20
55.89600
30
45.00000
0
VERTEX
8
15_45000
10
8.40200
20
55.13000
30
45.00000
0
VERTEX
8
15_45000
10
8.41800
20
53.93200
30
45.00000
0
VERTEX
8
15_45000
10
8.51800
20
50.60000
30
45.00000
0
VERTEX
8
15_45000
10
8.63500
20
47.67500
30
45.00000
0
VERTEX
8
15_45000
10
8.68200
20
46.88200
30
45.00000
0
VERTEX
8
15_45000
10
8.71600
20
46.14200
30
45.00000
0
VERTEX
8
15_45000
10
8.80800
20
44.68000
30
45.00000
0
VERTEX
8
15_45000
10
9.02700
20
42.10100
30
45.00000
0
VERTEX
8
15_45000
10
9.32200
20
38.99400
30
45.00000
0
VERTEX
8
15_45000
10
9.63200
20
36.32200
30
45.00000
0
VERTEX
8
15_45000
10
9.72400
20
35.65300
30
45.00000
0
VERTEX
8
15_45000
10
9.80500
20
34.97100
30
45.00000
0
SEQEND
8
15_45000
0
ENDSEC
0
EOF
