0
SECTION
2
HEADER
9
$ACADVER
1
AC1009
0
ENDSEC
0
SECTION
2
TABLES
0
TABLE
2
LAYER
70
1
0
LAYER
2
1_3000
70
0
62
7
6
CONTINUOUS
0
ENDTAB
0
ENDSEC
0
SECTION
2
BLOCKS
0
ENDSEC
0
SECTION
2
ENTITIES
0
POLYLINE
8
1_3000
62
5
0
VERTEX
8
1_3000
10
23.30400
20
183.94402
30
3.00000
0
VERTEX
8
1_3000
10
16.29400
20
183.97401
30
3.00000
0
VERTEX
8
1_3000
10
16.23900
20
183.98201
30
3.00000
0
VERTEX
8
1_3000
10
156.49001
20
183.37401
30
3.00000
0
VERTEX
8
1_3000
10
23.30400
20
183.94402
30
3.00000
0
SEQEND
8
1_3000
0
POLYLINE
8
1_3000
62
5
0
VERTEX
8
1_3000
10
149.37401
20
183.41101
30
3.00000
0
VERTEX
8
1_3000
10
21.29600
20
184.08202
30
3.00000
0
VERTEX
8
1_3000
10
14.18000
20
184.12001
30
3.00000
0
VERTEX
8
1_3000
10
14.01400
20
184.12801
30
3.00000
0
VERTEX
8
1_3000
10
149.37401
20
183.41101
30
3.00000
0
SEQEND
8
1_3000
0
POLYLINE
8
1_3000
62
5
0
VERTEX
8
1_3000
10
22.28600
20
184.02802
30
3.00000
0
VERTEX
8
1_3000
10
83.35600
20
183.73201
30
3.00000
0
VERTEX
8
1_3000
10
22.28600
20
184.02802
30
3.00000
0
SEQEND
8
1_3000
0
POLYLINE
8
1_3000
62
5
0
VERTEX
8
1_3000
10
27.20200
20
183.57501
30
3.00000
0
VERTEX
8
1_3000
10
156.49001
20
183.37401
30
3.00000
0
VERTEX
8
1_3000
10
27.20200
20
183.57501
30
3.00000
0
SEQEND
8
1_3000
0
POLYLINE
8
1_3000
62
5
0
VERTEX
8
1_3000
10
92.36700
20
181.53201
30
3.00000
0
VERTEX
8
1_3000
10
156.49001
20
183.37401
30
3.00000
0
VERTEX
8
1_3000
10
92.36700
20
181.53201
30
3.00000
0
SEQEND
8
1_3000
0
POLYLINE
8
1_3000
62
5
0
VERTEX
8
1_3000
10
36.34500
20
181.89001
30
3.00000
0
VERTEX
8
1_3000
10
30.02200
20
181.81201
30
3.00000
0
VERTEX
8
1_3000
10
29.98200
20
181.82001
30
3.00000
0
VERTEX
8
1_3000
10
31.88900
20
181.84401
30
3.00000
0
VERTEX
8
1_3000
10
156.49001
20
183.37401
30
3.00000
0
VERTEX
8
1_3000
10
36.34500
20
181.89001
30
3.00000
0
SEQEND
8
1_3000
0
POLYLINE
8
1_3000
62
5
0
VERTEX
8
1_3000
10
9.77600
20
35.20300
30
3.00000
0
VERTEX
8
1_3000
10
10.06800
20
32.85600
30
3.00000
0
VERTEX
8
1_3000
10
10.16600
20
32.19600
30
3.00000
0
VERTEX
8
1_3000
10
11.01700
20
25.62400
30
3.00000
0
VERTEX
8
1_3000
10
11.09800
20
24.93800
30
3.00000
0
VERTEX
8
1_3000
10
11.18800
20
24.29200
30
3.00000
0
VERTEX
8
1_3000
10
11.42900
20
22.37300
30
3.00000
0
VERTEX
8
1_3000
10
11.78200
20
19.44200
30
3.00000
0
VERTEX
8
1_3000
10
11.95200
20
18.15900
30
3.00000
0
VERTEX
8
1_3000
10
12.10000
20
16.90800
30
3.00000
0
VERTEX
8
1_3000
10
12.57800
20
13.11000
30
3.00000
0
VERTEX
8
1_3000
10
13.17500
20
8.11800
30
3.00000
0
VERTEX
8
1_3000
10
13.52700
20
5.07300
30
3.00000
0
VERTEX
8
1_3000
10
13.59300
20
4.42800
30
3.00000
0
VERTEX
8
1_3000
10
13.79900
20
2.67300
30
3.00000
0
VERTEX
8
1_3000
10
14.09200
20
0.00600
30
3.00000
0
VERTEX
8
1_3000
10
158.53401
20
0.00600
30
3.00000
0
VERTEX
8
1_3000
10
158.60600
20
1.23800
30
3.00000
0
VERTEX
8
1_3000
10
158.65800
20
1.95200
30
3.00000
0
VERTEX
8
1_3000
10
158.71600
20
3.05000
30
3.00000
0
VERTEX
8
1_3000
10
158.80801
20
4.49800
30
3.00000
0
VERTEX
8
1_3000
10
158.83900
20
5.31500
30
3.00000
0
VERTEX
8
1_3000
10
159.04800
20
9.73500
30
3.00000
0
VERTEX
8
1_3000
10
159.17001
20
13.46000
30
3.00000
0
VERTEX
8
1_3000
10
159.18600
20
14.22200
30
3.00000
0
VERTEX
8
1_3000
10
159.23500
20
15.76000
30
3.00000
0
VERTEX
8
1_3000
10
159.28201
20
18.84200
30
3.00000
0
VERTEX
8
1_3000
10
159.32800
20
21.09400
30
3.00000
0
VERTEX
8
1_3000
10
159.32401
20
22.34900
30
3.00000
0
VERTEX
8
1_3000
10
159.33000
20
23.12700
30
3.00000
0
VERTEX
8
1_3000
10
159.31500
20
25.77100
30
3.00000
0
VERTEX
8
1_3000
10
159.26601
20
28.99000
30
3.00000
0
VERTEX
8
1_3000
10
159.26601
20
29.37800
30
3.00000
0
VERTEX
8
1_3000
10
159.11900
20
34.54600
30
3.00000
0
VERTEX
8
1_3000
10
158.97301
20
38.83500
30
3.00000
0
VERTEX
8
1_3000
10
158.93001
20
39.77200
30
3.00000
0
VERTEX
8
1_3000
10
158.85501
20
41.79400
30
3.00000
0
VERTEX
8
1_3000
10
158.71400
20
44.57600
30
3.00000
0
VERTEX
8
1_3000
10
158.59601
20
47.36200
30
3.00000
0
VERTEX
8
1_3000
10
158.55602
20
48.54800
30
3.00000
0
VERTEX
8
1_3000
10
158.55801
20
50.09600
30
3.00000
0
VERTEX
8
1_3000
10
158.62201
20
51.99800
30
3.00000
0
VERTEX
8
1_3000
10
158.62801
20
52.74600
30
3.00000
0
VERTEX
8
1_3000
10
158.62201
20
53.54800
30
3.00000
0
VERTEX
8
1_3000
10
158.59801
20
54.28700
30
3.00000
0
VERTEX
8
1_3000
10
158.57201
20
54.73600
30
3.00000
0
VERTEX
8
1_3000
10
158.50401
20
55.54400
30
3.00000
0
VERTEX
8
1_3000
10
158.45601
20
56.73000
30
3.00000
0
VERTEX
8
1_3000
10
158.40800
20
57.14000
30
3.00000
0
VERTEX
8
1_3000
10
158.33000
20
57.56200
30
3.00000
0
VERTEX
8
1_3000
10
158.33000
20
58.33400
30
3.00000
0
VERTEX
8
1_3000
10
158.31601
20
58.72800
30
3.00000
0
VERTEX
8
1_3000
10
158.27600
20
59.13000
30
3.00000
0
VERTEX
8
1_3000
10
158.17401
20
59.94800
30
3.00000
0
VERTEX
8
1_3000
10
158.10400
20
60.36400
30
3.00000
0
VERTEX
8
1_3000
10
158.04800
20
60.77200
30
3.00000
0
VERTEX
8
1_3000
10
158.02200
20
61.16800
30
3.00000
0
VERTEX
8
1_3000
10
157.97801
20
61.57200
30
3.00000
0
VERTEX
8
1_3000
10
157.94801
20
61.96800
30
3.00000
0
VERTEX
8
1_3000
10
157.89900
20
63.16300
30
3.00000
0
VERTEX
8
1_3000
10
157.84401
20
63.93200
30
3.00000
0
VERTEX
8
1_3000
10
157.79800
20
64.33400
30
3.00000
0
VERTEX
8
1_3000
10
157.69200
20
65.52200
30
3.00000
0
VERTEX
8
1_3000
10
157.65201
20
66.68600
30
3.00000
0
VERTEX
8
1_3000
10
157.61601
20
67.08400
30
3.00000
0
VERTEX
8
1_3000
10
157.62100
20
67.48400
30
3.00000
0
VERTEX
8
1_3000
10
157.59700
20
67.89700
30
3.00000
0
VERTEX
8
1_3000
10
157.53801
20
68.64001
30
3.00000
0
VERTEX
8
1_3000
10
157.45700
20
70.21700
30
3.00000
0
VERTEX
8
1_3000
10
157.42001
20
71.35201
30
3.00000
0
VERTEX
8
1_3000
10
157.37801
20
71.74600
30
3.00000
0
VERTEX
8
1_3000
10
157.35400
20
72.13400
30
3.00000
0
VERTEX
8
1_3000
10
157.34601
20
72.51801
30
3.00000
0
VERTEX
8
1_3000
10
157.32301
20
72.92500
30
3.00000
0
VERTEX
8
1_3000
10
157.30000
20
73.67400
30
3.00000
0
VERTEX
8
1_3000
10
157.22801
20
75.21600
30
3.00000
0
VERTEX
8
1_3000
10
157.18401
20
77.13200
30
3.00000
0
VERTEX
8
1_3000
10
157.15800
20
77.51801
30
3.00000
0
VERTEX
8
1_3000
10
157.18001
20
78.27400
30
3.00000
0
VERTEX
8
1_3000
10
157.16000
20
79.03800
30
3.00000
0
VERTEX
8
1_3000
10
157.14301
20
79.44601
30
3.00000
0
VERTEX
8
1_3000
10
157.09401
20
80.19601
30
3.00000
0
VERTEX
8
1_3000
10
157.10201
20
81.33200
30
3.00000
0
VERTEX
8
1_3000
10
157.06201
20
82.48000
30
3.00000
0
VERTEX
8
1_3000
10
157.02301
20
83.26801
30
3.00000
0
VERTEX
8
1_3000
10
156.95201
20
84.39600
30
3.00000
0
VERTEX
8
1_3000
10
156.96800
20
85.17200
30
3.00000
0
VERTEX
8
1_3000
10
156.92500
20
86.65601
30
3.00000
0
VERTEX
8
1_3000
10
156.90001
20
87.05601
30
3.00000
0
VERTEX
8
1_3000
10
156.87300
20
87.83801
30
3.00000
0
VERTEX
8
1_3000
10
156.86601
20
88.57800
30
3.00000
0
VERTEX
8
1_3000
10
156.90800
20
89.33401
30
3.00000
0
VERTEX
8
1_3000
10
156.90201
20
90.47201
30
3.00000
0
VERTEX
8
1_3000
10
156.94000
20
91.22800
30
3.00000
0
VERTEX
8
1_3000
10
156.94400
20
92.00600
30
3.00000
0
VERTEX
8
1_3000
10
156.93401
20
92.74600
30
3.00000
0
VERTEX
8
1_3000
10
156.93800
20
93.50600
30
3.00000
0
VERTEX
8
1_3000
10
156.90201
20
95.78201
30
3.00000
0
VERTEX
8
1_3000
10
156.86601
20
97.29800
30
3.00000
0
VERTEX
8
1_3000
10
156.90601
20
98.05801
30
3.00000
0
VERTEX
8
1_3000
10
156.89001
20
98.81600
30
3.00000
0
VERTEX
8
1_3000
10
156.90201
20
100.71201
30
3.00000
0
VERTEX
8
1_3000
10
156.91000
20
101.49200
30
3.00000
0
VERTEX
8
1_3000
10
156.94601
20
102.99200
30
3.00000
0
VERTEX
8
1_3000
10
156.95201
20
104.17200
30
3.00000
0
VERTEX
8
1_3000
10
156.94400
20
104.91000
30
3.00000
0
VERTEX
8
1_3000
10
156.95201
20
105.27000
30
3.00000
0
VERTEX
8
1_3000
10
156.96201
20
107.94801
30
3.00000
0
VERTEX
8
1_3000
10
156.99600
20
109.83201
30
3.00000
0
VERTEX
8
1_3000
10
156.98801
20
110.95200
30
3.00000
0
VERTEX
8
1_3000
10
156.99400
20
111.73200
30
3.00000
0
VERTEX
8
1_3000
10
157.01901
20
112.55601
30
3.00000
0
VERTEX
8
1_3000
10
157.04800
20
115.54401
30
3.00000
0
VERTEX
8
1_3000
10
157.15001
20
116.71400
30
3.00000
0
VERTEX
8
1_3000
10
157.16801
20
117.09601
30
3.00000
0
VERTEX
8
1_3000
10
157.16801
20
117.47800
30
3.00000
0
VERTEX
8
1_3000
10
157.14500
20
117.87401
30
3.00000
0
VERTEX
8
1_3000
10
157.11801
20
118.60400
30
3.00000
0
VERTEX
8
1_3000
10
157.13400
20
119.75201
30
3.00000
0
VERTEX
8
1_3000
10
157.13000
20
120.53201
30
3.00000
0
VERTEX
8
1_3000
10
157.14201
20
121.27601
30
3.00000
0
VERTEX
8
1_3000
10
157.18001
20
122.05201
30
3.00000
0
VERTEX
8
1_3000
10
157.20001
20
123.20000
30
3.00000
0
VERTEX
8
1_3000
10
157.29800
20
125.90401
30
3.00000
0
VERTEX
8
1_3000
10
157.35001
20
127.06801
30
3.00000
0
VERTEX
8
1_3000
10
157.41801
20
127.85801
30
3.00000
0
VERTEX
8
1_3000
10
157.42601
20
128.24400
30
3.00000
0
VERTEX
8
1_3000
10
157.47200
20
129.02800
30
3.00000
0
VERTEX
8
1_3000
10
157.46800
20
129.40800
30
3.00000
0
VERTEX
8
1_3000
10
157.51201
20
130.19200
30
3.00000
0
VERTEX
8
1_3000
10
157.52200
20
130.96201
30
3.00000
0
VERTEX
8
1_3000
10
157.56801
20
132.12801
30
3.00000
0
VERTEX
8
1_3000
10
157.62801
20
134.45401
30
3.00000
0
VERTEX
8
1_3000
10
157.72501
20
136.01601
30
3.00000
0
VERTEX
8
1_3000
10
157.76601
20
137.21001
30
3.00000
0
VERTEX
8
1_3000
10
157.80400
20
137.61200
30
3.00000
0
VERTEX
8
1_3000
10
157.80400
20
138.76201
30
3.00000
0
VERTEX
8
1_3000
10
157.74600
20
139.88200
30
3.00000
0
VERTEX
8
1_3000
10
157.66400
20
140.98401
30
3.00000
0
VERTEX
8
1_3000
10
157.54401
20
143.21001
30
3.00000
0
VERTEX
8
1_3000
10
157.39001
20
144.64201
30
3.00000
0
VERTEX
8
1_3000
10
157.32600
20
145.36401
30
3.00000
0
VERTEX
8
1_3000
10
157.22601
20
147.24301
30
3.00000
0
VERTEX
8
1_3000
10
157.18201
20
147.93600
30
3.00000
0
VERTEX
8
1_3000
10
157.17601
20
148.31201
30
3.00000
0
VERTEX
8
1_3000
10
157.08000
20
150.90800
30
3.00000
0
VERTEX
8
1_3000
10
157.07001
20
151.66000
30
3.00000
0
VERTEX
8
1_3000
10
157.00201
20
152.75201
30
3.00000
0
VERTEX
8
1_3000
10
157.00801
20
153.13400
30
3.00000
0
VERTEX
8
1_3000
10
156.99400
20
153.50401
30
3.00000
0
VERTEX
8
1_3000
10
156.96001
20
153.85800
30
3.00000
0
VERTEX
8
1_3000
10
156.95601
20
154.23401
30
3.00000
0
VERTEX
8
1_3000
10
156.88400
20
154.94000
30
3.00000
0
VERTEX
8
1_3000
10
156.85001
20
155.67201
30
3.00000
0
VERTEX
8
1_3000
10
156.77901
20
156.77301
30
3.00000
0
VERTEX
8
1_3000
10
156.74400
20
157.86201
30
3.00000
0
VERTEX
8
1_3000
10
156.65401
20
159.29601
30
3.00000
0
VERTEX
8
1_3000
10
156.59401
20
160.76401
30
3.00000
0
VERTEX
8
1_3000
10
156.58601
20
161.13600
30
3.00000
0
VERTEX
8
1_3000
10
156.53101
20
162.23801
30
3.00000
0
VERTEX
8
1_3000
10
156.41200
20
165.13400
30
3.00000
0
VERTEX
8
1_3000
10
156.38200
20
166.61401
30
3.00000
0
VERTEX
8
1_3000
10
156.34201
20
167.70601
30
3.00000
0
VERTEX
8
1_3000
10
156.35001
20
168.46800
30
3.00000
0
VERTEX
8
1_3000
10
156.34401
20
169.59201
30
3.00000
0
VERTEX
8
1_3000
10
156.37201
20
171.88000
30
3.00000
0
VERTEX
8
1_3000
10
156.40201
20
172.66000
30
3.00000
0
VERTEX
8
1_3000
10
156.42001
20
174.18800
30
3.00000
0
VERTEX
8
1_3000
10
156.45401
20
174.97801
30
3.00000
0
VERTEX
8
1_3000
10
156.46201
20
175.36401
30
3.00000
0
VERTEX
8
1_3000
10
156.46001
20
176.88600
30
3.00000
0
VERTEX
8
1_3000
10
156.45001
20
177.59300
30
3.00000
0
VERTEX
8
1_3000
10
156.45201
20
181.40501
30
3.00000
0
VERTEX
8
1_3000
10
156.48201
20
182.17401
30
3.00000
0
VERTEX
8
1_3000
10
156.47601
20
182.56300
30
3.00000
0
VERTEX
8
1_3000
10
156.49001
20
183.37401
30
3.00000
0
VERTEX
8
1_3000
10
10.57000
20
184.24600
30
3.00000
0
VERTEX
8
1_3000
10
10.51400
20
183.26801
30
3.00000
0
VERTEX
8
1_3000
10
10.45800
20
181.85800
30
3.00000
0
VERTEX
8
1_3000
10
10.32600
20
180.11201
30
3.00000
0
VERTEX
8
1_3000
10
10.26400
20
179.03601
30
3.00000
0
VERTEX
8
1_3000
10
10.05600
20
176.60001
30
3.00000
0
VERTEX
8
1_3000
10
9.87200
20
174.93501
30
3.00000
0
VERTEX
8
1_3000
10
9.81200
20
174.18800
30
3.00000
0
VERTEX
8
1_3000
10
9.69400
20
173.16602
30
3.00000
0
VERTEX
8
1_3000
10
9.28200
20
173.20401
30
3.00000
0
VERTEX
8
1_3000
10
9.23400
20
172.48201
30
3.00000
0
VERTEX
8
1_3000
10
9.13300
20
171.45700
30
3.00000
0
VERTEX
8
1_3000
10
9.00400
20
170.41000
30
3.00000
0
VERTEX
8
1_3000
10
8.90400
20
169.73801
30
3.00000
0
VERTEX
8
1_3000
10
8.71900
20
168.35301
30
3.00000
0
VERTEX
8
1_3000
10
8.55500
20
167.29401
30
3.00000
0
VERTEX
8
1_3000
10
8.34000
20
166.00301
30
3.00000
0
VERTEX
8
1_3000
10
8.09400
20
164.70601
30
3.00000
0
VERTEX
8
1_3000
10
7.88600
20
163.73001
30
3.00000
0
VERTEX
8
1_3000
10
7.65200
20
162.76801
30
3.00000
0
VERTEX
8
1_3000
10
7.39900
20
161.78601
30
3.00000
0
VERTEX
8
1_3000
10
7.12300
20
160.84700
30
3.00000
0
VERTEX
8
1_3000
10
7.01400
20
160.54401
30
3.00000
0
VERTEX
8
1_3000
10
6.78800
20
159.98601
30
3.00000
0
VERTEX
8
1_3000
10
6.65200
20
159.71001
30
3.00000
0
VERTEX
8
1_3000
10
6.47600
20
159.46201
30
3.00000
0
VERTEX
8
1_3000
10
6.24800
20
159.26401
30
3.00000
0
VERTEX
8
1_3000
10
5.64800
20
159.44801
30
3.00000
0
VERTEX
8
1_3000
10
5.13000
20
159.56001
30
3.00000
0
VERTEX
8
1_3000
10
4.65800
20
159.62801
30
3.00000
0
VERTEX
8
1_3000
10
4.21600
20
159.67001
30
3.00000
0
VERTEX
8
1_3000
10
4.19200
20
159.28201
30
3.00000
0
VERTEX
8
1_3000
10
4.14400
20
158.91801
30
3.00000
0
VERTEX
8
1_3000
10
4.07600
20
158.57001
30
3.00000
0
VERTEX
8
1_3000
10
3.98800
20
158.23601
30
3.00000
0
VERTEX
8
1_3000
10
3.88000
20
157.92001
30
3.00000
0
VERTEX
8
1_3000
10
3.74400
20
157.57201
30
3.00000
0
VERTEX
8
1_3000
10
3.50000
20
157.00801
30
3.00000
0
VERTEX
8
1_3000
10
3.21200
20
156.42401
30
3.00000
0
VERTEX
8
1_3000
10
3.08200
20
156.11801
30
3.00000
0
VERTEX
8
1_3000
10
2.61400
20
154.83601
30
3.00000
0
VERTEX
8
1_3000
10
2.10400
20
153.56601
30
3.00000
0
VERTEX
8
1_3000
10
1.49400
20
152.20401
30
3.00000
0
VERTEX
8
1_3000
10
0.99200
20
151.02600
30
3.00000
0
VERTEX
8
1_3000
10
0.73200
20
150.36401
30
3.00000
0
VERTEX
8
1_3000
10
0.49000
20
149.63600
30
3.00000
0
VERTEX
8
1_3000
10
0.63800
20
149.56500
30
3.00000
0
VERTEX
8
1_3000
10
0.71100
20
149.51701
30
3.00000
0
VERTEX
8
1_3000
10
0.90200
20
149.32901
30
3.00000
0
VERTEX
8
1_3000
10
1.22900
20
148.76601
30
3.00000
0
VERTEX
8
1_3000
10
1.31800
20
148.64201
30
3.00000
0
VERTEX
8
1_3000
10
1.35000
20
148.56700
30
3.00000
0
VERTEX
8
1_3000
10
1.43200
20
148.28401
30
3.00000
0
VERTEX
8
1_3000
10
1.50200
20
147.85800
30
3.00000
0
VERTEX
8
1_3000
10
1.53700
20
147.37901
30
3.00000
0
VERTEX
8
1_3000
10
1.54000
20
146.92401
30
3.00000
0
VERTEX
8
1_3000
10
1.50800
20
146.69400
30
3.00000
0
VERTEX
8
1_3000
10
1.31900
20
145.98300
30
3.00000
0
VERTEX
8
1_3000
10
1.28200
20
145.87901
30
3.00000
0
VERTEX
8
1_3000
10
1.21000
20
145.73001
30
3.00000
0
VERTEX
8
1_3000
10
0.90200
20
145.16000
30
3.00000
0
VERTEX
8
1_3000
10
0.48500
20
144.57800
30
3.00000
0
VERTEX
8
1_3000
10
0.62600
20
144.04601
30
3.00000
0
VERTEX
8
1_3000
10
0.92000
20
143.01201
30
3.00000
0
VERTEX
8
1_3000
10
1.19200
20
141.99800
30
3.00000
0
VERTEX
8
1_3000
10
1.54400
20
140.52000
30
3.00000
0
VERTEX
8
1_3000
10
1.63800
20
140.04201
30
3.00000
0
VERTEX
8
1_3000
10
1.85200
20
138.65800
30
3.00000
0
VERTEX
8
1_3000
10
1.90600
20
138.21001
30
3.00000
0
VERTEX
8
1_3000
10
1.98200
20
137.32800
30
3.00000
0
VERTEX
8
1_3000
10
2.05400
20
136.03401
30
3.00000
0
VERTEX
8
1_3000
10
2.12600
20
135.15800
30
3.00000
0
VERTEX
8
1_3000
10
2.15100
20
134.63501
30
3.00000
0
VERTEX
8
1_3000
10
2.17800
20
134.29601
30
3.00000
0
VERTEX
8
1_3000
10
2.23000
20
133.85001
30
3.00000
0
VERTEX
8
1_3000
10
2.30600
20
133.39801
30
3.00000
0
VERTEX
8
1_3000
10
2.51200
20
132.46201
30
3.00000
0
VERTEX
8
1_3000
10
2.90400
20
131.02600
30
3.00000
0
VERTEX
8
1_3000
10
3.24000
20
129.62801
30
3.00000
0
VERTEX
8
1_3000
10
3.69200
20
127.37401
30
3.00000
0
VERTEX
8
1_3000
10
4.31000
20
123.81500
30
3.00000
0
VERTEX
8
1_3000
10
4.43600
20
122.99801
30
3.00000
0
VERTEX
8
1_3000
10
4.54200
20
122.14800
30
3.00000
0
VERTEX
8
1_3000
10
4.77600
20
120.44801
30
3.00000
0
VERTEX
8
1_3000
10
4.98600
20
119.20601
30
3.00000
0
VERTEX
8
1_3000
10
5.08400
20
118.73401
30
3.00000
0
VERTEX
8
1_3000
10
5.41500
20
117.39301
30
3.00000
0
VERTEX
8
1_3000
10
5.85300
20
115.73601
30
3.00000
0
VERTEX
8
1_3000
10
6.08000
20
114.84400
30
3.00000
0
VERTEX
8
1_3000
10
6.16600
20
114.42600
30
3.00000
0
VERTEX
8
1_3000
10
6.37000
20
113.58000
30
3.00000
0
VERTEX
8
1_3000
10
6.69600
20
111.92600
30
3.00000
0
VERTEX
8
1_3000
10
6.82200
20
111.11001
30
3.00000
0
VERTEX
8
1_3000
10
6.99000
20
109.89800
30
3.00000
0
VERTEX
8
1_3000
10
7.35400
20
107.48601
30
3.00000
0
VERTEX
8
1_3000
10
7.40000
20
107.08801
30
3.00000
0
VERTEX
8
1_3000
10
7.43200
20
106.69401
30
3.00000
0
VERTEX
8
1_3000
10
7.53100
20
105.87501
30
3.00000
0
VERTEX
8
1_3000
10
7.63700
20
105.08501
30
3.00000
0
VERTEX
8
1_3000
10
7.71800
20
104.30000
30
3.00000
0
VERTEX
8
1_3000
10
7.74400
20
103.93201
30
3.00000
0
VERTEX
8
1_3000
10
7.77000
20
103.15401
30
3.00000
0
VERTEX
8
1_3000
10
7.79200
20
102.76401
30
3.00000
0
VERTEX
8
1_3000
10
7.85500
20
101.91400
30
3.00000
0
VERTEX
8
1_3000
10
7.99700
20
99.67901
30
3.00000
0
VERTEX
8
1_3000
10
8.00600
20
99.20100
30
3.00000
0
VERTEX
8
1_3000
10
8.04400
20
98.11001
30
3.00000
0
VERTEX
8
1_3000
10
8.08700
20
97.31300
30
3.00000
0
VERTEX
8
1_3000
10
8.10600
20
96.18001
30
3.00000
0
VERTEX
8
1_3000
10
8.13400
20
95.79601
30
3.00000
0
VERTEX
8
1_3000
10
8.18200
20
94.64001
30
3.00000
0
VERTEX
8
1_3000
10
8.19900
20
93.89201
30
3.00000
0
VERTEX
8
1_3000
10
8.25500
20
92.35400
30
3.00000
0
VERTEX
8
1_3000
10
8.29400
20
91.93001
30
3.00000
0
VERTEX
8
1_3000
10
8.41700
20
90.01801
30
3.00000
0
VERTEX
8
1_3000
10
8.42800
20
89.63400
30
3.00000
0
VERTEX
8
1_3000
10
8.41400
20
88.88800
30
3.00000
0
VERTEX
8
1_3000
10
8.46000
20
86.97601
30
3.00000
0
VERTEX
8
1_3000
10
8.49600
20
86.21201
30
3.00000
0
VERTEX
8
1_3000
10
8.49200
20
85.02100
30
3.00000
0
VERTEX
8
1_3000
10
8.45400
20
82.37400
30
3.00000
0
VERTEX
8
1_3000
10
8.40000
20
80.83000
30
3.00000
0
VERTEX
8
1_3000
10
8.41600
20
80.45000
30
3.00000
0
VERTEX
8
1_3000
10
8.41800
20
80.06600
30
3.00000
0
VERTEX
8
1_3000
10
8.39200
20
79.29401
30
3.00000
0
VERTEX
8
1_3000
10
8.40800
20
76.99800
30
3.00000
0
VERTEX
8
1_3000
10
8.38400
20
76.22200
30
3.00000
0
VERTEX
8
1_3000
10
8.41000
20
75.46400
30
3.00000
0
VERTEX
8
1_3000
10
8.41000
20
73.90800
30
3.00000
0
VERTEX
8
1_3000
10
8.42200
20
73.16400
30
3.00000
0
VERTEX
8
1_3000
10
8.40000
20
71.60001
30
3.00000
0
VERTEX
8
1_3000
10
8.43800
20
70.48400
30
3.00000
0
VERTEX
8
1_3000
10
8.44600
20
68.91200
30
3.00000
0
VERTEX
8
1_3000
10
8.43800
20
67.37500
30
3.00000
0
VERTEX
8
1_3000
10
8.37800
20
61.63800
30
3.00000
0
VERTEX
8
1_3000
10
8.33400
20
60.08200
30
3.00000
0
VERTEX
8
1_3000
10
8.33600
20
59.31600
30
3.00000
0
VERTEX
8
1_3000
10
8.36200
20
58.55800
30
3.00000
0
VERTEX
8
1_3000
10
8.36000
20
58.15400
30
3.00000
0
VERTEX
8
1_3000
10
8.38200
20
56.65200
30
3.00000
0
VERTEX
8
1_3000
10
8.40200
20
55.89600
30
3.00000
0
VERTEX
8
1_3000
10
8.40200
20
55.10800
30
3.00000
0
VERTEX
8
1_3000
10
8.42700
20
53.62900
30
3.00000
0
VERTEX
8
1_3000
10
8.47600
20
52.10600
30
3.00000
0
VERTEX
8
1_3000
10
8.49200
20
51.34800
30
3.00000
0
VERTEX
8
1_3000
10
8.61900
20
48.00900
30
3.00000
0
VERTEX
8
1_3000
10
8.71800
20
46.10200
30
3.00000
0
VERTEX
8
1_3000
10
8.81100
20
44.64100
30
3.00000
0
VERTEX
8
1_3000
10
9.05200
20
41.83700
30
3.00000
0
VERTEX
8
1_3000
10
9.32000
20
39.01200
30
3.00000
0
VERTEX
8
1_3000
10
9.60400
20
36.56300
30
3.00000
0
VERTEX
8
1_3000
10
9.77600
20
35.20300
30
3.00000
0
SEQEND
8
1_3000
0
ENDSEC
0
EOF
