0
SECTION
2
HEADER
9
$ACADVER
1
AC1009
0
ENDSEC
0
SECTION
2
TABLES
0
TABLE
2
LAYER
70
1
0
LAYER
2
32_96000
70
0
62
7
6
CONTINUOUS
0
ENDTAB
0
ENDSEC
0
SECTION
2
BLOCKS
0
ENDSEC
0
SECTION
2
ENTITIES
0
POLYLINE
8
32_96000
62
5
0
VERTEX
8
32_96000
10
77.10400
20
176.57901
30
96.00000
0
VERTEX
8
32_96000
10
77.23300
20
177.20300
30
96.00000
0
VERTEX
8
32_96000
10
77.26601
20
177.28900
30
96.00000
0
VERTEX
8
32_96000
10
75.47000
20
177.28900
30
96.00000
0
VERTEX
8
32_96000
10
75.39800
20
177.09201
30
96.00000
0
VERTEX
8
32_96000
10
75.88600
20
175.41501
30
96.00000
0
VERTEX
8
32_96000
10
75.91000
20
176.57901
30
96.00000
0
VERTEX
8
32_96000
10
77.10400
20
176.57901
30
96.00000
0
SEQEND
8
32_96000
0
POLYLINE
8
32_96000
62
5
0
VERTEX
8
32_96000
10
88.64001
20
165.24301
30
96.00000
0
VERTEX
8
32_96000
10
87.83601
20
165.64101
30
96.00000
0
VERTEX
8
32_96000
10
87.34701
20
165.66901
30
96.00000
0
VERTEX
8
32_96000
10
85.97201
20
166.25500
30
96.00000
0
VERTEX
8
32_96000
10
85.48701
20
166.34201
30
96.00000
0
VERTEX
8
32_96000
10
85.24800
20
166.43600
30
96.00000
0
VERTEX
8
32_96000
10
84.67400
20
166.14001
30
96.00000
0
VERTEX
8
32_96000
10
84.29900
20
166.20300
30
96.00000
0
VERTEX
8
32_96000
10
84.31400
20
165.88200
30
96.00000
0
VERTEX
8
32_96000
10
84.39800
20
165.44901
30
96.00000
0
VERTEX
8
32_96000
10
84.14600
20
163.69801
30
96.00000
0
VERTEX
8
32_96000
10
84.42101
20
162.79100
30
96.00000
0
VERTEX
8
32_96000
10
84.57301
20
161.87201
30
96.00000
0
VERTEX
8
32_96000
10
84.98400
20
160.61601
30
96.00000
0
VERTEX
8
32_96000
10
85.82301
20
158.31401
30
96.00000
0
VERTEX
8
32_96000
10
86.42700
20
158.13000
30
96.00000
0
VERTEX
8
32_96000
10
87.53300
20
157.50801
30
96.00000
0
VERTEX
8
32_96000
10
88.58900
20
158.11101
30
96.00000
0
VERTEX
8
32_96000
10
88.72900
20
158.14001
30
96.00000
0
VERTEX
8
32_96000
10
88.93201
20
158.32301
30
96.00000
0
VERTEX
8
32_96000
10
89.09200
20
158.62901
30
96.00000
0
VERTEX
8
32_96000
10
90.55901
20
161.95601
30
96.00000
0
VERTEX
8
32_96000
10
90.67200
20
162.26501
30
96.00000
0
VERTEX
8
32_96000
10
90.74100
20
162.43102
30
96.00000
0
VERTEX
8
32_96000
10
90.03800
20
163.37601
30
96.00000
0
VERTEX
8
32_96000
10
90.02701
20
163.61601
30
96.00000
0
VERTEX
8
32_96000
10
89.39900
20
164.41301
30
96.00000
0
VERTEX
8
32_96000
10
88.64001
20
165.24301
30
96.00000
0
SEQEND
8
32_96000
0
POLYLINE
8
32_96000
62
5
0
VERTEX
8
32_96000
10
76.89001
20
75.55100
30
96.00000
0
VERTEX
8
32_96000
10
78.71700
20
74.79301
30
96.00000
0
VERTEX
8
32_96000
10
79.53400
20
74.46800
30
96.00000
0
VERTEX
8
32_96000
10
80.05400
20
74.29601
30
96.00000
0
VERTEX
8
32_96000
10
81.12901
20
74.02000
30
96.00000
0
VERTEX
8
32_96000
10
81.54800
20
74.03600
30
96.00000
0
VERTEX
8
32_96000
10
85.00101
20
73.92001
30
96.00000
0
VERTEX
8
32_96000
10
85.19601
20
73.90601
30
96.00000
0
VERTEX
8
32_96000
10
85.85400
20
74.10800
30
96.00000
0
VERTEX
8
32_96000
10
86.29201
20
74.15701
30
96.00000
0
VERTEX
8
32_96000
10
86.53800
20
74.23200
30
96.00000
0
VERTEX
8
32_96000
10
86.64900
20
74.29401
30
96.00000
0
VERTEX
8
32_96000
10
87.27801
20
74.75500
30
96.00000
0
VERTEX
8
32_96000
10
88.65401
20
75.64800
30
96.00000
0
VERTEX
8
32_96000
10
89.18900
20
76.01000
30
96.00000
0
VERTEX
8
32_96000
10
89.91300
20
76.36700
30
96.00000
0
VERTEX
8
32_96000
10
90.12801
20
76.49400
30
96.00000
0
VERTEX
8
32_96000
10
90.41500
20
76.60400
30
96.00000
0
VERTEX
8
32_96000
10
90.57800
20
76.77300
30
96.00000
0
VERTEX
8
32_96000
10
90.89301
20
76.89600
30
96.00000
0
VERTEX
8
32_96000
10
90.94200
20
76.93900
30
96.00000
0
VERTEX
8
32_96000
10
91.24700
20
77.56900
30
96.00000
0
VERTEX
8
32_96000
10
91.32201
20
77.64500
30
96.00000
0
VERTEX
8
32_96000
10
91.30000
20
77.74900
30
96.00000
0
VERTEX
8
32_96000
10
91.30000
20
78.09400
30
96.00000
0
VERTEX
8
32_96000
10
91.18900
20
78.55400
30
96.00000
0
VERTEX
8
32_96000
10
91.12100
20
78.78400
30
96.00000
0
VERTEX
8
32_96000
10
91.52400
20
80.16400
30
96.00000
0
VERTEX
8
32_96000
10
91.62701
20
80.69601
30
96.00000
0
VERTEX
8
32_96000
10
91.69100
20
80.74100
30
96.00000
0
VERTEX
8
32_96000
10
91.97100
20
80.74100
30
96.00000
0
VERTEX
8
32_96000
10
92.14600
20
81.39900
30
96.00000
0
VERTEX
8
32_96000
10
92.26100
20
81.89201
30
96.00000
0
VERTEX
8
32_96000
10
92.20901
20
82.16100
30
96.00000
0
VERTEX
8
32_96000
10
92.02701
20
82.92900
30
96.00000
0
VERTEX
8
32_96000
10
91.73000
20
83.51401
30
96.00000
0
VERTEX
8
32_96000
10
91.52300
20
84.17001
30
96.00000
0
VERTEX
8
32_96000
10
91.31800
20
85.21101
30
96.00000
0
VERTEX
8
32_96000
10
91.41901
20
85.49600
30
96.00000
0
VERTEX
8
32_96000
10
91.46700
20
85.88100
30
96.00000
0
VERTEX
8
32_96000
10
91.62400
20
86.07101
30
96.00000
0
VERTEX
8
32_96000
10
91.84100
20
86.21800
30
96.00000
0
VERTEX
8
32_96000
10
91.91500
20
86.43900
30
96.00000
0
VERTEX
8
32_96000
10
92.53001
20
87.15800
30
96.00000
0
VERTEX
8
32_96000
10
92.80200
20
87.46001
30
96.00000
0
VERTEX
8
32_96000
10
92.83401
20
87.50301
30
96.00000
0
VERTEX
8
32_96000
10
92.86501
20
87.61401
30
96.00000
0
VERTEX
8
32_96000
10
93.11600
20
88.02000
30
96.00000
0
VERTEX
8
32_96000
10
93.15301
20
88.64900
30
96.00000
0
VERTEX
8
32_96000
10
93.11600
20
88.88400
30
96.00000
0
VERTEX
8
32_96000
10
93.23801
20
89.79501
30
96.00000
0
VERTEX
8
32_96000
10
93.25800
20
89.85300
30
96.00000
0
VERTEX
8
32_96000
10
93.96900
20
91.37701
30
96.00000
0
VERTEX
8
32_96000
10
94.12401
20
91.56001
30
96.00000
0
VERTEX
8
32_96000
10
94.78001
20
92.64600
30
96.00000
0
VERTEX
8
32_96000
10
95.06001
20
93.07401
30
96.00000
0
VERTEX
8
32_96000
10
95.08401
20
93.12401
30
96.00000
0
VERTEX
8
32_96000
10
95.63901
20
94.63600
30
96.00000
0
VERTEX
8
32_96000
10
95.83900
20
95.35800
30
96.00000
0
VERTEX
8
32_96000
10
96.01501
20
96.80601
30
96.00000
0
VERTEX
8
32_96000
10
96.08801
20
97.34901
30
96.00000
0
VERTEX
8
32_96000
10
96.13100
20
97.58000
30
96.00000
0
VERTEX
8
32_96000
10
96.36401
20
97.91701
30
96.00000
0
VERTEX
8
32_96000
10
96.38500
20
97.98100
30
96.00000
0
VERTEX
8
32_96000
10
96.44701
20
98.06700
30
96.00000
0
VERTEX
8
32_96000
10
97.46600
20
98.64301
30
96.00000
0
VERTEX
8
32_96000
10
97.58900
20
98.68501
30
96.00000
0
VERTEX
8
32_96000
10
98.26200
20
98.87200
30
96.00000
0
VERTEX
8
32_96000
10
98.65501
20
98.96001
30
96.00000
0
VERTEX
8
32_96000
10
99.08100
20
99.00900
30
96.00000
0
VERTEX
8
32_96000
10
99.14900
20
99.03300
30
96.00000
0
VERTEX
8
32_96000
10
99.49200
20
99.20600
30
96.00000
0
VERTEX
8
32_96000
10
99.90601
20
99.38600
30
96.00000
0
VERTEX
8
32_96000
10
100.22501
20
99.60101
30
96.00000
0
VERTEX
8
32_96000
10
100.92101
20
100.17200
30
96.00000
0
VERTEX
8
32_96000
10
101.46201
20
100.94301
30
96.00000
0
VERTEX
8
32_96000
10
101.58201
20
101.16601
30
96.00000
0
VERTEX
8
32_96000
10
101.75301
20
101.53800
30
96.00000
0
VERTEX
8
32_96000
10
102.05901
20
102.36401
30
96.00000
0
VERTEX
8
32_96000
10
102.24901
20
102.83701
30
96.00000
0
VERTEX
8
32_96000
10
102.27100
20
102.95400
30
96.00000
0
VERTEX
8
32_96000
10
102.32301
20
103.29800
30
96.00000
0
VERTEX
8
32_96000
10
102.47501
20
105.31400
30
96.00000
0
VERTEX
8
32_96000
10
102.47501
20
105.41200
30
96.00000
0
VERTEX
8
32_96000
10
102.39900
20
106.67800
30
96.00000
0
VERTEX
8
32_96000
10
102.40201
20
106.73601
30
96.00000
0
VERTEX
8
32_96000
10
102.31200
20
107.31300
30
96.00000
0
VERTEX
8
32_96000
10
101.90000
20
109.68700
30
96.00000
0
VERTEX
8
32_96000
10
101.70100
20
110.48901
30
96.00000
0
VERTEX
8
32_96000
10
101.38801
20
111.53700
30
96.00000
0
VERTEX
8
32_96000
10
101.29700
20
111.96600
30
96.00000
0
VERTEX
8
32_96000
10
100.68800
20
114.50800
30
96.00000
0
VERTEX
8
32_96000
10
100.22101
20
116.21600
30
96.00000
0
VERTEX
8
32_96000
10
100.04601
20
116.76701
30
96.00000
0
VERTEX
8
32_96000
10
99.78001
20
117.65800
30
96.00000
0
VERTEX
8
32_96000
10
99.05401
20
119.28800
30
96.00000
0
VERTEX
8
32_96000
10
98.51000
20
120.41801
30
96.00000
0
VERTEX
8
32_96000
10
97.87000
20
121.47501
30
96.00000
0
VERTEX
8
32_96000
10
97.48601
20
122.17801
30
96.00000
0
VERTEX
8
32_96000
10
96.88801
20
123.32001
30
96.00000
0
VERTEX
8
32_96000
10
96.48100
20
123.96901
30
96.00000
0
VERTEX
8
32_96000
10
95.55501
20
125.98401
30
96.00000
0
VERTEX
8
32_96000
10
95.44100
20
126.20601
30
96.00000
0
VERTEX
8
32_96000
10
94.97701
20
127.36600
30
96.00000
0
VERTEX
8
32_96000
10
94.84400
20
127.65800
30
96.00000
0
VERTEX
8
32_96000
10
94.71400
20
128.05200
30
96.00000
0
VERTEX
8
32_96000
10
93.73400
20
131.06300
30
96.00000
0
VERTEX
8
32_96000
10
93.52300
20
131.83501
30
96.00000
0
VERTEX
8
32_96000
10
93.20000
20
133.08200
30
96.00000
0
VERTEX
8
32_96000
10
92.99600
20
133.74200
30
96.00000
0
VERTEX
8
32_96000
10
92.54401
20
135.05000
30
96.00000
0
VERTEX
8
32_96000
10
92.34901
20
135.65201
30
96.00000
0
VERTEX
8
32_96000
10
92.28101
20
135.91101
30
96.00000
0
VERTEX
8
32_96000
10
91.92500
20
136.79100
30
96.00000
0
VERTEX
8
32_96000
10
90.66300
20
139.60901
30
96.00000
0
VERTEX
8
32_96000
10
90.22501
20
140.21101
30
96.00000
0
VERTEX
8
32_96000
10
88.90100
20
141.69901
30
96.00000
0
VERTEX
8
32_96000
10
88.45700
20
141.97101
30
96.00000
0
VERTEX
8
32_96000
10
87.73901
20
142.46400
30
96.00000
0
VERTEX
8
32_96000
10
87.38700
20
142.43100
30
96.00000
0
VERTEX
8
32_96000
10
86.33100
20
142.41501
30
96.00000
0
VERTEX
8
32_96000
10
86.21301
20
142.20201
30
96.00000
0
VERTEX
8
32_96000
10
85.10201
20
141.44501
30
96.00000
0
VERTEX
8
32_96000
10
84.64800
20
140.76801
30
96.00000
0
VERTEX
8
32_96000
10
84.26701
20
139.94200
30
96.00000
0
VERTEX
8
32_96000
10
83.81900
20
139.47701
30
96.00000
0
VERTEX
8
32_96000
10
83.05901
20
137.89201
30
96.00000
0
VERTEX
8
32_96000
10
82.88400
20
137.62701
30
96.00000
0
VERTEX
8
32_96000
10
82.58300
20
136.90701
30
96.00000
0
VERTEX
8
32_96000
10
82.32700
20
136.24901
30
96.00000
0
VERTEX
8
32_96000
10
82.18301
20
135.80400
30
96.00000
0
VERTEX
8
32_96000
10
81.60400
20
134.37300
30
96.00000
0
VERTEX
8
32_96000
10
81.11800
20
133.20300
30
96.00000
0
VERTEX
8
32_96000
10
81.07401
20
133.11601
30
96.00000
0
VERTEX
8
32_96000
10
80.79301
20
132.41101
30
96.00000
0
VERTEX
8
32_96000
10
80.58401
20
131.86900
30
96.00000
0
VERTEX
8
32_96000
10
80.13600
20
130.57701
30
96.00000
0
VERTEX
8
32_96000
10
79.67900
20
129.56201
30
96.00000
0
VERTEX
8
32_96000
10
79.26900
20
128.69501
30
96.00000
0
VERTEX
8
32_96000
10
78.84100
20
127.81500
30
96.00000
0
VERTEX
8
32_96000
10
77.41300
20
125.31200
30
96.00000
0
VERTEX
8
32_96000
10
75.59300
20
122.69000
30
96.00000
0
VERTEX
8
32_96000
10
73.99600
20
120.28101
30
96.00000
0
VERTEX
8
32_96000
10
73.89600
20
120.06901
30
96.00000
0
VERTEX
8
32_96000
10
73.01701
20
118.34300
30
96.00000
0
VERTEX
8
32_96000
10
72.87601
20
117.98901
30
96.00000
0
VERTEX
8
32_96000
10
72.25101
20
116.69000
30
96.00000
0
VERTEX
8
32_96000
10
71.87400
20
115.72900
30
96.00000
0
VERTEX
8
32_96000
10
70.27901
20
111.80901
30
96.00000
0
VERTEX
8
32_96000
10
69.93900
20
110.85400
30
96.00000
0
VERTEX
8
32_96000
10
69.76300
20
110.26000
30
96.00000
0
VERTEX
8
32_96000
10
69.54301
20
109.65701
30
96.00000
0
VERTEX
8
32_96000
10
69.39500
20
108.94100
30
96.00000
0
VERTEX
8
32_96000
10
69.17200
20
108.00201
30
96.00000
0
VERTEX
8
32_96000
10
69.12901
20
107.38500
30
96.00000
0
VERTEX
8
32_96000
10
69.00201
20
105.94100
30
96.00000
0
VERTEX
8
32_96000
10
69.03400
20
105.21400
30
96.00000
0
VERTEX
8
32_96000
10
69.06001
20
104.91100
30
96.00000
0
VERTEX
8
32_96000
10
69.16901
20
104.10600
30
96.00000
0
VERTEX
8
32_96000
10
69.19200
20
103.99001
30
96.00000
0
VERTEX
8
32_96000
10
69.70100
20
102.56801
30
96.00000
0
VERTEX
8
32_96000
10
70.37701
20
101.53300
30
96.00000
0
VERTEX
8
32_96000
10
71.30500
20
100.72301
30
96.00000
0
VERTEX
8
32_96000
10
71.90800
20
100.45200
30
96.00000
0
VERTEX
8
32_96000
10
72.14301
20
100.33201
30
96.00000
0
VERTEX
8
32_96000
10
72.24600
20
100.31100
30
96.00000
0
VERTEX
8
32_96000
10
73.45600
20
99.88600
30
96.00000
0
VERTEX
8
32_96000
10
74.38600
20
99.14201
30
96.00000
0
VERTEX
8
32_96000
10
74.83300
20
98.46400
30
96.00000
0
VERTEX
8
32_96000
10
75.05100
20
97.77400
30
96.00000
0
VERTEX
8
32_96000
10
75.07900
20
97.51701
30
96.00000
0
VERTEX
8
32_96000
10
75.12801
20
97.29800
30
96.00000
0
VERTEX
8
32_96000
10
75.22501
20
96.69401
30
96.00000
0
VERTEX
8
32_96000
10
75.49800
20
94.39600
30
96.00000
0
VERTEX
8
32_96000
10
75.52800
20
94.29900
30
96.00000
0
VERTEX
8
32_96000
10
75.54700
20
94.12100
30
96.00000
0
VERTEX
8
32_96000
10
75.68800
20
93.17200
30
96.00000
0
VERTEX
8
32_96000
10
75.54700
20
92.29101
30
96.00000
0
VERTEX
8
32_96000
10
75.54700
20
92.16901
30
96.00000
0
VERTEX
8
32_96000
10
75.42800
20
91.79000
30
96.00000
0
VERTEX
8
32_96000
10
75.29401
20
91.28400
30
96.00000
0
VERTEX
8
32_96000
10
74.96900
20
89.92900
30
96.00000
0
VERTEX
8
32_96000
10
74.89001
20
89.73000
30
96.00000
0
VERTEX
8
32_96000
10
74.89001
20
88.34801
30
96.00000
0
VERTEX
8
32_96000
10
75.09200
20
87.93501
30
96.00000
0
VERTEX
8
32_96000
10
75.40200
20
87.49700
30
96.00000
0
VERTEX
8
32_96000
10
75.09200
20
86.38000
30
96.00000
0
VERTEX
8
32_96000
10
75.02500
20
85.96400
30
96.00000
0
VERTEX
8
32_96000
10
74.85201
20
85.04900
30
96.00000
0
VERTEX
8
32_96000
10
74.63800
20
84.67800
30
96.00000
0
VERTEX
8
32_96000
10
74.33900
20
84.09300
30
96.00000
0
VERTEX
8
32_96000
10
74.31100
20
83.96500
30
96.00000
0
VERTEX
8
32_96000
10
73.75101
20
83.13600
30
96.00000
0
VERTEX
8
32_96000
10
73.52700
20
82.69901
30
96.00000
0
VERTEX
8
32_96000
10
73.52800
20
82.27600
30
96.00000
0
VERTEX
8
32_96000
10
73.41600
20
82.23801
30
96.00000
0
VERTEX
8
32_96000
10
73.41700
20
81.89301
30
96.00000
0
VERTEX
8
32_96000
10
73.34100
20
81.12601
30
96.00000
0
VERTEX
8
32_96000
10
73.12701
20
80.41200
30
96.00000
0
VERTEX
8
32_96000
10
73.11000
20
80.25900
30
96.00000
0
VERTEX
8
32_96000
10
73.28101
20
79.65800
30
96.00000
0
VERTEX
8
32_96000
10
73.32401
20
79.38000
30
96.00000
0
VERTEX
8
32_96000
10
73.52800
20
79.01300
30
96.00000
0
VERTEX
8
32_96000
10
73.75201
20
78.20901
30
96.00000
0
VERTEX
8
32_96000
10
73.97501
20
77.74700
30
96.00000
0
VERTEX
8
32_96000
10
74.08601
20
77.63200
30
96.00000
0
VERTEX
8
32_96000
10
74.31800
20
77.07800
30
96.00000
0
VERTEX
8
32_96000
10
75.04601
20
76.46600
30
96.00000
0
VERTEX
8
32_96000
10
76.26801
20
75.84901
30
96.00000
0
VERTEX
8
32_96000
10
76.89001
20
75.55100
30
96.00000
0
SEQEND
8
32_96000
0
ENDSEC
0
EOF
