0
SECTION
2
HEADER
9
$ACADVER
1
AC1009
0
ENDSEC
0
SECTION
2
TABLES
0
TABLE
2
LAYER
70
1
0
LAYER
2
9_27000
70
0
62
7
6
CONTINUOUS
0
ENDTAB
0
ENDSEC
0
SECTION
2
BLOCKS
0
ENDSEC
0
SECTION
2
ENTITIES
0
POLYLINE
8
9_27000
62
5
0
VERTEX
8
9_27000
10
20.39800
20
183.58601
30
27.00000
0
VERTEX
8
9_27000
10
156.49001
20
183.37401
30
27.00000
0
VERTEX
8
9_27000
10
20.39800
20
183.58601
30
27.00000
0
SEQEND
8
9_27000
0
POLYLINE
8
9_27000
62
5
0
VERTEX
8
9_27000
10
15.21400
20
184.06201
30
27.00000
0
VERTEX
8
9_27000
10
83.35600
20
183.73201
30
27.00000
0
VERTEX
8
9_27000
10
15.21400
20
184.06201
30
27.00000
0
SEQEND
8
9_27000
0
POLYLINE
8
9_27000
62
5
0
VERTEX
8
9_27000
10
121.44000
20
183.52400
30
27.00000
0
VERTEX
8
9_27000
10
16.29400
20
183.97401
30
27.00000
0
VERTEX
8
9_27000
10
16.23600
20
183.98201
30
27.00000
0
VERTEX
8
9_27000
10
121.44000
20
183.52400
30
27.00000
0
SEQEND
8
9_27000
0
POLYLINE
8
9_27000
62
5
0
VERTEX
8
9_27000
10
47.29800
20
182.03401
30
27.00000
0
VERTEX
8
9_27000
10
156.49001
20
183.37401
30
27.00000
0
VERTEX
8
9_27000
10
30.02200
20
181.81201
30
27.00000
0
VERTEX
8
9_27000
10
29.98200
20
181.82001
30
27.00000
0
VERTEX
8
9_27000
10
47.29800
20
182.03401
30
27.00000
0
SEQEND
8
9_27000
0
POLYLINE
8
9_27000
62
5
0
VERTEX
8
9_27000
10
120.91200
20
183.56001
30
27.00000
0
VERTEX
8
9_27000
10
14.18000
20
184.12001
30
27.00000
0
VERTEX
8
9_27000
10
14.01400
20
184.12801
30
27.00000
0
VERTEX
8
9_27000
10
120.91200
20
183.56001
30
27.00000
0
SEQEND
8
9_27000
0
POLYLINE
8
9_27000
62
5
0
VERTEX
8
9_27000
10
98.19601
20
181.70001
30
27.00000
0
VERTEX
8
9_27000
10
39.88800
20
180.02600
30
27.00000
0
VERTEX
8
9_27000
10
98.19601
20
181.70001
30
27.00000
0
SEQEND
8
9_27000
0
POLYLINE
8
9_27000
62
5
0
VERTEX
8
9_27000
10
9.79300
20
35.07000
30
27.00000
0
VERTEX
8
9_27000
10
10.06800
20
32.85600
30
27.00000
0
VERTEX
8
9_27000
10
10.16600
20
32.19600
30
27.00000
0
VERTEX
8
9_27000
10
10.98800
20
25.85400
30
27.00000
0
VERTEX
8
9_27000
10
11.11400
20
24.81200
30
27.00000
0
VERTEX
8
9_27000
10
11.18800
20
24.29200
30
27.00000
0
VERTEX
8
9_27000
10
11.40200
20
22.59300
30
27.00000
0
VERTEX
8
9_27000
10
11.78200
20
19.44200
30
27.00000
0
VERTEX
8
9_27000
10
11.96400
20
18.05800
30
27.00000
0
VERTEX
8
9_27000
10
12.11600
20
16.78300
30
27.00000
0
VERTEX
8
9_27000
10
12.59000
20
13.01500
30
27.00000
0
VERTEX
8
9_27000
10
13.19700
20
7.94000
30
27.00000
0
VERTEX
8
9_27000
10
13.54000
20
4.96200
30
27.00000
0
VERTEX
8
9_27000
10
13.59200
20
4.43800
30
27.00000
0
VERTEX
8
9_27000
10
13.80600
20
2.61000
30
27.00000
0
VERTEX
8
9_27000
10
14.09200
20
0.00600
30
27.00000
0
VERTEX
8
9_27000
10
158.53401
20
0.00600
30
27.00000
0
VERTEX
8
9_27000
10
158.60600
20
1.23800
30
27.00000
0
VERTEX
8
9_27000
10
158.65800
20
1.95200
30
27.00000
0
VERTEX
8
9_27000
10
158.71600
20
3.05000
30
27.00000
0
VERTEX
8
9_27000
10
158.80801
20
4.49800
30
27.00000
0
VERTEX
8
9_27000
10
158.83601
20
5.24400
30
27.00000
0
VERTEX
8
9_27000
10
159.03801
20
9.46400
30
27.00000
0
VERTEX
8
9_27000
10
159.17001
20
13.46000
30
27.00000
0
VERTEX
8
9_27000
10
159.17101
20
13.69200
30
27.00000
0
VERTEX
8
9_27000
10
159.22601
20
15.35400
30
27.00000
0
VERTEX
8
9_27000
10
159.24400
20
16.20200
30
27.00000
0
VERTEX
8
9_27000
10
159.28601
20
19.05100
30
27.00000
0
VERTEX
8
9_27000
10
159.32401
20
20.88100
30
27.00000
0
VERTEX
8
9_27000
10
159.33000
20
23.07400
30
27.00000
0
VERTEX
8
9_27000
10
159.31401
20
25.82400
30
27.00000
0
VERTEX
8
9_27000
10
159.26100
20
29.62100
30
27.00000
0
VERTEX
8
9_27000
10
159.19000
20
32.17400
30
27.00000
0
VERTEX
8
9_27000
10
159.16200
20
32.82200
30
27.00000
0
VERTEX
8
9_27000
10
159.11301
20
34.80900
30
27.00000
0
VERTEX
8
9_27000
10
158.98601
20
38.49500
30
27.00000
0
VERTEX
8
9_27000
10
158.93001
20
39.77200
30
27.00000
0
VERTEX
8
9_27000
10
158.85600
20
41.76800
30
27.00000
0
VERTEX
8
9_27000
10
158.71400
20
44.57600
30
27.00000
0
VERTEX
8
9_27000
10
158.59601
20
47.36200
30
27.00000
0
VERTEX
8
9_27000
10
158.55602
20
48.54800
30
27.00000
0
VERTEX
8
9_27000
10
158.55801
20
50.09600
30
27.00000
0
VERTEX
8
9_27000
10
158.62201
20
51.99800
30
27.00000
0
VERTEX
8
9_27000
10
158.62801
20
52.55200
30
27.00000
0
VERTEX
8
9_27000
10
158.62201
20
53.54800
30
27.00000
0
VERTEX
8
9_27000
10
158.59601
20
54.33600
30
27.00000
0
VERTEX
8
9_27000
10
158.55501
20
54.96100
30
27.00000
0
VERTEX
8
9_27000
10
158.50401
20
55.54400
30
27.00000
0
VERTEX
8
9_27000
10
158.45601
20
56.73000
30
27.00000
0
VERTEX
8
9_27000
10
158.40800
20
57.14000
30
27.00000
0
VERTEX
8
9_27000
10
158.33000
20
57.56200
30
27.00000
0
VERTEX
8
9_27000
10
158.33000
20
58.33400
30
27.00000
0
VERTEX
8
9_27000
10
158.31601
20
58.72800
30
27.00000
0
VERTEX
8
9_27000
10
158.27600
20
59.13000
30
27.00000
0
VERTEX
8
9_27000
10
158.17401
20
59.94800
30
27.00000
0
VERTEX
8
9_27000
10
158.10400
20
60.36400
30
27.00000
0
VERTEX
8
9_27000
10
158.04800
20
60.77200
30
27.00000
0
VERTEX
8
9_27000
10
158.02200
20
61.16800
30
27.00000
0
VERTEX
8
9_27000
10
157.97801
20
61.57200
30
27.00000
0
VERTEX
8
9_27000
10
157.94801
20
61.96800
30
27.00000
0
VERTEX
8
9_27000
10
157.88800
20
63.34500
30
27.00000
0
VERTEX
8
9_27000
10
157.84401
20
63.93200
30
27.00000
0
VERTEX
8
9_27000
10
157.79800
20
64.33400
30
27.00000
0
VERTEX
8
9_27000
10
157.69200
20
65.52200
30
27.00000
0
VERTEX
8
9_27000
10
157.65201
20
66.68600
30
27.00000
0
VERTEX
8
9_27000
10
157.61601
20
67.08400
30
27.00000
0
VERTEX
8
9_27000
10
157.62201
20
67.46201
30
27.00000
0
VERTEX
8
9_27000
10
157.60001
20
67.85400
30
27.00000
0
VERTEX
8
9_27000
10
157.53801
20
68.64001
30
27.00000
0
VERTEX
8
9_27000
10
157.45801
20
70.19601
30
27.00000
0
VERTEX
8
9_27000
10
157.42001
20
71.35201
30
27.00000
0
VERTEX
8
9_27000
10
157.37801
20
71.74600
30
27.00000
0
VERTEX
8
9_27000
10
157.35400
20
72.13400
30
27.00000
0
VERTEX
8
9_27000
10
157.34601
20
72.51801
30
27.00000
0
VERTEX
8
9_27000
10
157.32401
20
72.90401
30
27.00000
0
VERTEX
8
9_27000
10
157.30000
20
73.67400
30
27.00000
0
VERTEX
8
9_27000
10
157.22801
20
75.21600
30
27.00000
0
VERTEX
8
9_27000
10
157.18401
20
77.13200
30
27.00000
0
VERTEX
8
9_27000
10
157.15800
20
77.51801
30
27.00000
0
VERTEX
8
9_27000
10
157.18001
20
78.27400
30
27.00000
0
VERTEX
8
9_27000
10
157.17700
20
78.45800
30
27.00000
0
VERTEX
8
9_27000
10
157.14401
20
79.42600
30
27.00000
0
VERTEX
8
9_27000
10
157.09401
20
80.19601
30
27.00000
0
VERTEX
8
9_27000
10
157.10201
20
81.33200
30
27.00000
0
VERTEX
8
9_27000
10
157.06201
20
82.48000
30
27.00000
0
VERTEX
8
9_27000
10
157.01401
20
83.42900
30
27.00000
0
VERTEX
8
9_27000
10
156.95201
20
84.39600
30
27.00000
0
VERTEX
8
9_27000
10
156.96800
20
85.15200
30
27.00000
0
VERTEX
8
9_27000
10
156.96400
20
85.33301
30
27.00000
0
VERTEX
8
9_27000
10
156.93102
20
86.49500
30
27.00000
0
VERTEX
8
9_27000
10
156.90001
20
87.05601
30
27.00000
0
VERTEX
8
9_27000
10
156.86801
20
87.99700
30
27.00000
0
VERTEX
8
9_27000
10
156.86601
20
88.57800
30
27.00000
0
VERTEX
8
9_27000
10
156.90800
20
89.33401
30
27.00000
0
VERTEX
8
9_27000
10
156.90201
20
90.47201
30
27.00000
0
VERTEX
8
9_27000
10
156.94000
20
91.22800
30
27.00000
0
VERTEX
8
9_27000
10
156.94400
20
92.16701
30
27.00000
0
VERTEX
8
9_27000
10
156.93401
20
92.74600
30
27.00000
0
VERTEX
8
9_27000
10
156.93800
20
93.50600
30
27.00000
0
VERTEX
8
9_27000
10
156.92401
20
94.44300
30
27.00000
0
VERTEX
8
9_27000
10
156.90201
20
95.78201
30
27.00000
0
VERTEX
8
9_27000
10
156.86601
20
97.29800
30
27.00000
0
VERTEX
8
9_27000
10
156.90601
20
98.05801
30
27.00000
0
VERTEX
8
9_27000
10
156.89001
20
98.81600
30
27.00000
0
VERTEX
8
9_27000
10
156.90201
20
100.71201
30
27.00000
0
VERTEX
8
9_27000
10
156.91301
20
101.65101
30
27.00000
0
VERTEX
8
9_27000
10
156.94601
20
102.99200
30
27.00000
0
VERTEX
8
9_27000
10
156.95201
20
104.13200
30
27.00000
0
VERTEX
8
9_27000
10
156.94400
20
104.89001
30
27.00000
0
VERTEX
8
9_27000
10
156.95201
20
105.27000
30
27.00000
0
VERTEX
8
9_27000
10
156.96301
20
108.10901
30
27.00000
0
VERTEX
8
9_27000
10
156.99600
20
109.83201
30
27.00000
0
VERTEX
8
9_27000
10
156.98801
20
111.15301
30
27.00000
0
VERTEX
8
9_27000
10
156.99400
20
111.73200
30
27.00000
0
VERTEX
8
9_27000
10
157.02701
20
113.04301
30
27.00000
0
VERTEX
8
9_27000
10
157.04800
20
115.54401
30
27.00000
0
VERTEX
8
9_27000
10
157.15001
20
116.71400
30
27.00000
0
VERTEX
8
9_27000
10
157.16801
20
117.09601
30
27.00000
0
VERTEX
8
9_27000
10
157.16801
20
117.47800
30
27.00000
0
VERTEX
8
9_27000
10
157.13701
20
118.03400
30
27.00000
0
VERTEX
8
9_27000
10
157.11801
20
118.60400
30
27.00000
0
VERTEX
8
9_27000
10
157.13400
20
119.75201
30
27.00000
0
VERTEX
8
9_27000
10
157.13000
20
120.51201
30
27.00000
0
VERTEX
8
9_27000
10
157.14201
20
121.27601
30
27.00000
0
VERTEX
8
9_27000
10
157.18001
20
122.05201
30
27.00000
0
VERTEX
8
9_27000
10
157.20001
20
123.20000
30
27.00000
0
VERTEX
8
9_27000
10
157.29800
20
125.90401
30
27.00000
0
VERTEX
8
9_27000
10
157.35001
20
127.06801
30
27.00000
0
VERTEX
8
9_27000
10
157.41801
20
127.85801
30
27.00000
0
VERTEX
8
9_27000
10
157.42601
20
128.24400
30
27.00000
0
VERTEX
8
9_27000
10
157.47200
20
129.02800
30
27.00000
0
VERTEX
8
9_27000
10
157.46800
20
129.40800
30
27.00000
0
VERTEX
8
9_27000
10
157.51201
20
130.19200
30
27.00000
0
VERTEX
8
9_27000
10
157.52200
20
130.96201
30
27.00000
0
VERTEX
8
9_27000
10
157.56300
20
131.93401
30
27.00000
0
VERTEX
8
9_27000
10
157.62801
20
134.45401
30
27.00000
0
VERTEX
8
9_27000
10
157.72601
20
136.03801
30
27.00000
0
VERTEX
8
9_27000
10
157.74001
20
136.62300
30
27.00000
0
VERTEX
8
9_27000
10
157.76601
20
137.21001
30
27.00000
0
VERTEX
8
9_27000
10
157.80400
20
137.61200
30
27.00000
0
VERTEX
8
9_27000
10
157.80701
20
138.56700
30
27.00000
0
VERTEX
8
9_27000
10
157.80400
20
138.76201
30
27.00000
0
VERTEX
8
9_27000
10
157.74600
20
139.88200
30
27.00000
0
VERTEX
8
9_27000
10
157.66400
20
140.98401
30
27.00000
0
VERTEX
8
9_27000
10
157.54401
20
143.21001
30
27.00000
0
VERTEX
8
9_27000
10
157.39001
20
144.64201
30
27.00000
0
VERTEX
8
9_27000
10
157.32600
20
145.36401
30
27.00000
0
VERTEX
8
9_27000
10
157.22801
20
147.20401
30
27.00000
0
VERTEX
8
9_27000
10
157.18201
20
147.93600
30
27.00000
0
VERTEX
8
9_27000
10
157.17601
20
148.31201
30
27.00000
0
VERTEX
8
9_27000
10
157.09601
20
150.34201
30
27.00000
0
VERTEX
8
9_27000
10
157.07001
20
151.66000
30
27.00000
0
VERTEX
8
9_27000
10
157.00201
20
152.75201
30
27.00000
0
VERTEX
8
9_27000
10
157.00801
20
153.13400
30
27.00000
0
VERTEX
8
9_27000
10
156.99400
20
153.50401
30
27.00000
0
VERTEX
8
9_27000
10
156.96001
20
153.85800
30
27.00000
0
VERTEX
8
9_27000
10
156.95601
20
154.23401
30
27.00000
0
VERTEX
8
9_27000
10
156.88400
20
154.94000
30
27.00000
0
VERTEX
8
9_27000
10
156.85001
20
155.67201
30
27.00000
0
VERTEX
8
9_27000
10
156.78001
20
156.75401
30
27.00000
0
VERTEX
8
9_27000
10
156.73601
20
158.03001
30
27.00000
0
VERTEX
8
9_27000
10
156.65401
20
159.29601
30
27.00000
0
VERTEX
8
9_27000
10
156.63000
20
160.00700
30
27.00000
0
VERTEX
8
9_27000
10
156.59401
20
160.76401
30
27.00000
0
VERTEX
8
9_27000
10
156.58601
20
161.13600
30
27.00000
0
VERTEX
8
9_27000
10
156.53201
20
162.22000
30
27.00000
0
VERTEX
8
9_27000
10
156.50000
20
163.11900
30
27.00000
0
VERTEX
8
9_27000
10
156.47000
20
163.67601
30
27.00000
0
VERTEX
8
9_27000
10
156.41200
20
165.13400
30
27.00000
0
VERTEX
8
9_27000
10
156.38200
20
166.61401
30
27.00000
0
VERTEX
8
9_27000
10
156.34201
20
167.70601
30
27.00000
0
VERTEX
8
9_27000
10
156.35101
20
168.63701
30
27.00000
0
VERTEX
8
9_27000
10
156.34401
20
169.59201
30
27.00000
0
VERTEX
8
9_27000
10
156.37201
20
171.88000
30
27.00000
0
VERTEX
8
9_27000
10
156.40201
20
172.66000
30
27.00000
0
VERTEX
8
9_27000
10
156.42001
20
174.18800
30
27.00000
0
VERTEX
8
9_27000
10
156.45401
20
174.97801
30
27.00000
0
VERTEX
8
9_27000
10
156.46201
20
175.36401
30
27.00000
0
VERTEX
8
9_27000
10
156.46001
20
176.86801
30
27.00000
0
VERTEX
8
9_27000
10
156.44801
20
177.78001
30
27.00000
0
VERTEX
8
9_27000
10
156.45100
20
181.21301
30
27.00000
0
VERTEX
8
9_27000
10
156.45700
20
181.56201
30
27.00000
0
VERTEX
8
9_27000
10
156.48201
20
182.17401
30
27.00000
0
VERTEX
8
9_27000
10
156.47701
20
182.71701
30
27.00000
0
VERTEX
8
9_27000
10
156.49001
20
183.37401
30
27.00000
0
VERTEX
8
9_27000
10
10.57000
20
184.24600
30
27.00000
0
VERTEX
8
9_27000
10
10.51600
20
183.30801
30
27.00000
0
VERTEX
8
9_27000
10
10.45800
20
181.85800
30
27.00000
0
VERTEX
8
9_27000
10
10.32600
20
180.11201
30
27.00000
0
VERTEX
8
9_27000
10
10.26400
20
179.03601
30
27.00000
0
VERTEX
8
9_27000
10
10.05600
20
176.60001
30
27.00000
0
VERTEX
8
9_27000
10
9.86800
20
174.89401
30
27.00000
0
VERTEX
8
9_27000
10
9.81200
20
174.18800
30
27.00000
0
VERTEX
8
9_27000
10
9.69400
20
173.16602
30
27.00000
0
VERTEX
8
9_27000
10
9.28200
20
173.20401
30
27.00000
0
VERTEX
8
9_27000
10
9.23400
20
172.48201
30
27.00000
0
VERTEX
8
9_27000
10
9.15400
20
171.62901
30
27.00000
0
VERTEX
8
9_27000
10
9.00400
20
170.41000
30
27.00000
0
VERTEX
8
9_27000
10
8.90400
20
169.73801
30
27.00000
0
VERTEX
8
9_27000
10
8.69300
20
168.17001
30
27.00000
0
VERTEX
8
9_27000
10
8.46300
20
166.73100
30
27.00000
0
VERTEX
8
9_27000
10
8.30600
20
165.81300
30
27.00000
0
VERTEX
8
9_27000
10
8.09400
20
164.70601
30
27.00000
0
VERTEX
8
9_27000
10
7.88600
20
163.73001
30
27.00000
0
VERTEX
8
9_27000
10
7.65200
20
162.76801
30
27.00000
0
VERTEX
8
9_27000
10
7.40600
20
161.81201
30
27.00000
0
VERTEX
8
9_27000
10
7.13200
20
160.87401
30
27.00000
0
VERTEX
8
9_27000
10
7.02400
20
160.57001
30
27.00000
0
VERTEX
8
9_27000
10
6.88500
20
160.22101
30
27.00000
0
VERTEX
8
9_27000
10
6.78800
20
159.98601
30
27.00000
0
VERTEX
8
9_27000
10
6.65200
20
159.71001
30
27.00000
0
VERTEX
8
9_27000
10
6.47600
20
159.46201
30
27.00000
0
VERTEX
8
9_27000
10
6.24800
20
159.26401
30
27.00000
0
VERTEX
8
9_27000
10
5.64800
20
159.44801
30
27.00000
0
VERTEX
8
9_27000
10
5.10200
20
159.56401
30
27.00000
0
VERTEX
8
9_27000
10
5.10200
20
159.37100
30
27.00000
0
VERTEX
8
9_27000
10
5.31000
20
158.94101
30
27.00000
0
VERTEX
8
9_27000
10
5.82700
20
158.38901
30
27.00000
0
VERTEX
8
9_27000
10
5.92600
20
158.29701
30
27.00000
0
VERTEX
8
9_27000
10
6.30700
20
157.86801
30
27.00000
0
VERTEX
8
9_27000
10
6.79000
20
157.55101
30
27.00000
0
VERTEX
8
9_27000
10
7.65100
20
156.72200
30
27.00000
0
VERTEX
8
9_27000
10
7.94500
20
156.46501
30
27.00000
0
VERTEX
8
9_27000
10
8.27900
20
156.10701
30
27.00000
0
VERTEX
8
9_27000
10
8.47600
20
155.84100
30
27.00000
0
VERTEX
8
9_27000
10
9.00600
20
155.03201
30
27.00000
0
VERTEX
8
9_27000
10
9.28600
20
154.51001
30
27.00000
0
VERTEX
8
9_27000
10
9.54900
20
153.92500
30
27.00000
0
VERTEX
8
9_27000
10
9.61900
20
153.71701
30
27.00000
0
VERTEX
8
9_27000
10
9.74300
20
153.25101
30
27.00000
0
VERTEX
8
9_27000
10
9.84800
20
152.49200
30
27.00000
0
VERTEX
8
9_27000
10
9.88700
20
152.27000
30
27.00000
0
VERTEX
8
9_27000
10
9.89600
20
151.89301
30
27.00000
0
VERTEX
8
9_27000
10
9.81800
20
151.04001
30
27.00000
0
VERTEX
8
9_27000
10
9.78800
20
150.29800
30
27.00000
0
VERTEX
8
9_27000
10
9.90700
20
149.67001
30
27.00000
0
VERTEX
8
9_27000
10
9.99700
20
148.52301
30
27.00000
0
VERTEX
8
9_27000
10
10.06000
20
147.17500
30
27.00000
0
VERTEX
8
9_27000
10
10.06700
20
146.86900
30
27.00000
0
VERTEX
8
9_27000
10
10.06200
20
146.36301
30
27.00000
0
VERTEX
8
9_27000
10
9.94100
20
145.18301
30
27.00000
0
VERTEX
8
9_27000
10
9.92500
20
144.54501
30
27.00000
0
VERTEX
8
9_27000
10
9.90600
20
144.36700
30
27.00000
0
VERTEX
8
9_27000
10
9.87600
20
143.28801
30
27.00000
0
VERTEX
8
9_27000
10
9.73400
20
142.51801
30
27.00000
0
VERTEX
8
9_27000
10
9.68000
20
141.84201
30
27.00000
0
VERTEX
8
9_27000
10
9.47200
20
140.50500
30
27.00000
0
VERTEX
8
9_27000
10
9.28700
20
139.45001
30
27.00000
0
VERTEX
8
9_27000
10
9.18300
20
139.08501
30
27.00000
0
VERTEX
8
9_27000
10
9.05900
20
138.47701
30
27.00000
0
VERTEX
8
9_27000
10
8.87700
20
137.64700
30
27.00000
0
VERTEX
8
9_27000
10
8.74500
20
137.19801
30
27.00000
0
VERTEX
8
9_27000
10
8.39400
20
135.55701
30
27.00000
0
VERTEX
8
9_27000
10
8.29900
20
134.94600
30
27.00000
0
VERTEX
8
9_27000
10
8.20300
20
134.47601
30
27.00000
0
VERTEX
8
9_27000
10
8.04900
20
133.95201
30
27.00000
0
VERTEX
8
9_27000
10
7.81400
20
132.77400
30
27.00000
0
VERTEX
8
9_27000
10
7.72600
20
132.53300
30
27.00000
0
VERTEX
8
9_27000
10
7.54100
20
131.27600
30
27.00000
0
VERTEX
8
9_27000
10
7.30400
20
130.09801
30
27.00000
0
VERTEX
8
9_27000
10
7.24000
20
129.85001
30
27.00000
0
VERTEX
8
9_27000
10
7.08500
20
129.14500
30
27.00000
0
VERTEX
8
9_27000
10
6.44000
20
127.36301
30
27.00000
0
VERTEX
8
9_27000
10
5.91500
20
125.98901
30
27.00000
0
VERTEX
8
9_27000
10
5.49600
20
125.11501
30
27.00000
0
VERTEX
8
9_27000
10
5.12600
20
124.39500
30
27.00000
0
VERTEX
8
9_27000
10
5.08200
20
124.34401
30
27.00000
0
VERTEX
8
9_27000
10
4.73400
20
123.82900
30
27.00000
0
VERTEX
8
9_27000
10
4.47700
20
123.70601
30
27.00000
0
VERTEX
8
9_27000
10
4.33900
20
123.63100
30
27.00000
0
VERTEX
8
9_27000
10
4.43600
20
122.99801
30
27.00000
0
VERTEX
8
9_27000
10
4.54200
20
122.14800
30
27.00000
0
VERTEX
8
9_27000
10
4.60400
20
121.74300
30
27.00000
0
VERTEX
8
9_27000
10
4.77600
20
120.44801
30
27.00000
0
VERTEX
8
9_27000
10
4.99400
20
119.16401
30
27.00000
0
VERTEX
8
9_27000
10
5.08400
20
118.73401
30
27.00000
0
VERTEX
8
9_27000
10
5.49100
20
117.09000
30
27.00000
0
VERTEX
8
9_27000
10
5.94600
20
115.38801
30
27.00000
0
VERTEX
8
9_27000
10
6.08000
20
114.84400
30
27.00000
0
VERTEX
8
9_27000
10
6.16600
20
114.42600
30
27.00000
0
VERTEX
8
9_27000
10
6.37000
20
113.58000
30
27.00000
0
VERTEX
8
9_27000
10
6.69600
20
111.92600
30
27.00000
0
VERTEX
8
9_27000
10
6.82200
20
111.11001
30
27.00000
0
VERTEX
8
9_27000
10
6.99000
20
109.89800
30
27.00000
0
VERTEX
8
9_27000
10
7.13300
20
108.93301
30
27.00000
0
VERTEX
8
9_27000
10
7.35400
20
107.48601
30
27.00000
0
VERTEX
8
9_27000
10
7.40000
20
107.08801
30
27.00000
0
VERTEX
8
9_27000
10
7.43200
20
106.69401
30
27.00000
0
VERTEX
8
9_27000
10
7.65900
20
104.88701
30
27.00000
0
VERTEX
8
9_27000
10
7.71600
20
104.32401
30
27.00000
0
VERTEX
8
9_27000
10
7.74400
20
103.93201
30
27.00000
0
VERTEX
8
9_27000
10
7.77000
20
103.15401
30
27.00000
0
VERTEX
8
9_27000
10
7.79200
20
102.76401
30
27.00000
0
VERTEX
8
9_27000
10
7.92200
20
100.93001
30
27.00000
0
VERTEX
8
9_27000
10
7.98900
20
99.86600
30
27.00000
0
VERTEX
8
9_27000
10
8.04400
20
98.11001
30
27.00000
0
VERTEX
8
9_27000
10
8.08600
20
97.33601
30
27.00000
0
VERTEX
8
9_27000
10
8.10600
20
96.18001
30
27.00000
0
VERTEX
8
9_27000
10
8.13400
20
95.79601
30
27.00000
0
VERTEX
8
9_27000
10
8.18200
20
94.64001
30
27.00000
0
VERTEX
8
9_27000
10
8.20600
20
93.66701
30
27.00000
0
VERTEX
8
9_27000
10
8.24500
20
92.53400
30
27.00000
0
VERTEX
8
9_27000
10
8.30700
20
91.75201
30
27.00000
0
VERTEX
8
9_27000
10
8.41600
20
90.04000
30
27.00000
0
VERTEX
8
9_27000
10
8.42800
20
89.65601
30
27.00000
0
VERTEX
8
9_27000
10
8.41400
20
88.88800
30
27.00000
0
VERTEX
8
9_27000
10
8.46000
20
86.97601
30
27.00000
0
VERTEX
8
9_27000
10
8.49600
20
86.21201
30
27.00000
0
VERTEX
8
9_27000
10
8.48800
20
84.67200
30
27.00000
0
VERTEX
8
9_27000
10
8.45400
20
82.37400
30
27.00000
0
VERTEX
8
9_27000
10
8.40000
20
80.83000
30
27.00000
0
VERTEX
8
9_27000
10
8.41600
20
80.45000
30
27.00000
0
VERTEX
8
9_27000
10
8.41800
20
80.06600
30
27.00000
0
VERTEX
8
9_27000
10
8.39200
20
79.29401
30
27.00000
0
VERTEX
8
9_27000
10
8.40800
20
76.99800
30
27.00000
0
VERTEX
8
9_27000
10
8.38400
20
76.22200
30
27.00000
0
VERTEX
8
9_27000
10
8.41000
20
75.46400
30
27.00000
0
VERTEX
8
9_27000
10
8.41000
20
73.93000
30
27.00000
0
VERTEX
8
9_27000
10
8.42200
20
73.16400
30
27.00000
0
VERTEX
8
9_27000
10
8.40000
20
71.62200
30
27.00000
0
VERTEX
8
9_27000
10
8.43800
20
70.48400
30
27.00000
0
VERTEX
8
9_27000
10
8.44600
20
68.95600
30
27.00000
0
VERTEX
8
9_27000
10
8.43800
20
67.41801
30
27.00000
0
VERTEX
8
9_27000
10
8.40200
20
64.53300
30
27.00000
0
VERTEX
8
9_27000
10
8.37800
20
61.63800
30
27.00000
0
VERTEX
8
9_27000
10
8.33400
20
60.08200
30
27.00000
0
VERTEX
8
9_27000
10
8.33600
20
59.31600
30
27.00000
0
VERTEX
8
9_27000
10
8.36200
20
58.55800
30
27.00000
0
VERTEX
8
9_27000
10
8.36000
20
58.17600
30
27.00000
0
VERTEX
8
9_27000
10
8.38200
20
56.65200
30
27.00000
0
VERTEX
8
9_27000
10
8.40200
20
55.89600
30
27.00000
0
VERTEX
8
9_27000
10
8.40200
20
55.13000
30
27.00000
0
VERTEX
8
9_27000
10
8.42200
20
53.80300
30
27.00000
0
VERTEX
8
9_27000
10
8.47600
20
52.10600
30
27.00000
0
VERTEX
8
9_27000
10
8.49200
20
51.34800
30
27.00000
0
VERTEX
8
9_27000
10
8.62000
20
47.98800
30
27.00000
0
VERTEX
8
9_27000
10
8.71600
20
46.14200
30
27.00000
0
VERTEX
8
9_27000
10
8.80800
20
44.68000
30
27.00000
0
VERTEX
8
9_27000
10
9.03800
20
41.98800
30
27.00000
0
VERTEX
8
9_27000
10
9.32200
20
38.99400
30
27.00000
0
VERTEX
8
9_27000
10
9.62000
20
36.42500
30
27.00000
0
VERTEX
8
9_27000
10
9.79300
20
35.07000
30
27.00000
0
SEQEND
8
9_27000
0
ENDSEC
0
EOF
