  0
SECTION
  2
BLOCKS
  0
ENDSEC
  0
SECTION
  2
ENTITIES
  0
LINE
  8
0
 10
76.499
 20
44.7567
 11
77.4721
 21
45.0065
  0
LINE
  8
0
 10
77.4721
 20
45.0065
 11
78.4062
 21
45.3764
  0
LINE
  8
0
 10
78.4062
 20
45.3764
 11
79.2866
 21
45.8604
  0
LINE
  8
0
 10
79.2866
 20
45.8604
 11
80.0994
 21
46.4509
  0
LINE
  8
0
 10
80.0994
 20
46.4509
 11
80.8317
 21
47.1386
  0
LINE
  8
0
 10
80.8317
 20
47.1386
 11
81.4721
 21
47.9127
  0
LINE
  8
0
 10
81.4721
 20
47.9127
 11
82.0105
 21
48.761
  0
LINE
  8
0
 10
82.0105
 20
48.761
 11
82.4382
 21
49.67
  0
LINE
  8
0
 10
82.4382
 20
49.67
 11
82.7487
 21
50.6255
  0
LINE
  8
0
 10
82.7487
 20
50.6255
 11
82.9369
 21
51.6123
  0
LINE
  8
0
 10
82.9369
 20
51.6123
 11
83
 21
52.615
  0
LINE
  8
0
 10
83
 20
52.615
 11
82.9369
 21
53.6176
  0
LINE
  8
0
 10
82.9369
 20
53.6176
 11
82.7487
 21
54.6045
  0
LINE
  8
0
 10
82.7487
 20
54.6045
 11
82.4382
 21
55.56
  0
LINE
  8
0
 10
82.4382
 20
55.56
 11
82.0105
 21
56.469
  0
LINE
  8
0
 10
82.0105
 20
56.469
 11
81.4721
 21
57.3173
  0
LINE
  8
0
 10
81.4721
 20
57.3173
 11
80.8317
 21
58.0914
  0
LINE
  8
0
 10
80.8317
 20
58.0914
 11
80.0994
 21
58.7791
  0
LINE
  8
0
 10
80.0994
 20
58.7791
 11
80
 21
58.8513
  0
LINE
  8
0
 10
80
 20
58.8513
 11
80
 21
60
  0
LINE
  8
0
 10
80
 20
60
 11
85
 21
60
  0
LINE
  8
0
 10
85
 20
60
 11
85
 21
65
  0
LINE
  8
0
 10
85
 20
65
 11
77.5
 21
65
  0
LINE
  8
0
 10
77.5
 20
65
 11
77.5
 21
68
  0
LINE
  8
0
 10
77.5
 20
68
 11
85
 21
68
  0
LINE
  8
0
 10
85
 20
68
 11
85
 21
95.5
  0
LINE
  8
0
 10
85
 20
95.5
 11
125
 21
95.5
  0
LINE
  8
0
 10
125
 20
95.5
 11
125
 21
68
  0
LINE
  8
0
 10
125
 20
68
 11
132.5
 21
68
  0
LINE
  8
0
 10
132.5
 20
68
 11
132.5
 21
65
  0
LINE
  8
0
 10
132.5
 20
65
 11
125
 21
65
  0
LINE
  8
0
 10
125
 20
65
 11
125
 21
60
  0
LINE
  8
0
 10
125
 20
60
 11
137.5
 21
60
  0
LINE
  8
0
 10
137.5
 20
60
 11
137.5
 21
73
  0
LINE
  8
0
 10
137.5
 20
73
 11
130
 21
73
  0
LINE
  8
0
 10
130
 20
73
 11
130
 21
100
  0
LINE
  8
0
 10
130
 20
100
 11
80
 21
100
  0
LINE
  8
0
 10
80
 20
100
 11
80
 21
73
  0
LINE
  8
0
 10
80
 20
73
 11
70
 21
73
  0
LINE
  8
0
 10
70
 20
73
 11
70
 21
58.8513
  0
LINE
  8
0
 10
70
 20
58.8513
 11
69.9006
 21
58.7791
  0
LINE
  8
0
 10
69.9006
 20
58.7791
 11
69.1683
 21
58.0914
  0
LINE
  8
0
 10
69.1683
 20
58.0914
 11
68.5279
 21
57.3173
  0
LINE
  8
0
 10
68.5279
 20
57.3173
 11
67.9895
 21
56.469
  0
LINE
  8
0
 10
67.9895
 20
56.469
 11
67.5618
 21
55.56
  0
LINE
  8
0
 10
67.5618
 20
55.56
 11
67.2513
 21
54.6045
  0
LINE
  8
0
 10
67.2513
 20
54.6045
 11
67.0631
 21
53.6176
  0
LINE
  8
0
 10
67.0631
 20
53.6176
 11
67
 21
52.615
  0
LINE
  8
0
 10
67
 20
52.615
 11
67.0631
 21
51.6123
  0
LINE
  8
0
 10
67.0631
 20
51.6123
 11
67.2513
 21
50.6255
  0
LINE
  8
0
 10
67.2513
 20
50.6255
 11
67.5618
 21
49.67
  0
LINE
  8
0
 10
67.5618
 20
49.67
 11
67.9895
 21
48.761
  0
LINE
  8
0
 10
67.9895
 20
48.761
 11
68.5279
 21
47.9127
  0
LINE
  8
0
 10
68.5279
 20
47.9127
 11
69.1683
 21
47.1386
  0
LINE
  8
0
 10
69.1683
 20
47.1386
 11
69.9006
 21
46.4509
  0
LINE
  8
0
 10
69.9006
 20
46.4509
 11
70.7134
 21
45.8604
  0
LINE
  8
0
 10
70.7134
 20
45.8604
 11
71.5938
 21
45.3764
  0
LINE
  8
0
 10
71.5938
 20
45.3764
 11
72.5279
 21
45.0065
  0
LINE
  8
0
 10
72.5279
 20
45.0065
 11
73.501
 21
44.7567
  0
LINE
  8
0
 10
73.501
 20
44.7567
 11
74.4977
 21
44.6308
  0
LINE
  8
0
 10
74.4977
 20
44.6308
 11
75.5023
 21
44.6308
  0
LINE
  8
0
 10
75.5023
 20
44.6308
 11
76.499
 21
44.7567
  0
LINE
  8
0
 10
74.7237
 20
48.2237
 11
74.1755
 21
48.2929
  0
LINE
  8
0
 10
74.1755
 20
48.2929
 11
73.6403
 21
48.4303
  0
LINE
  8
0
 10
73.6403
 20
48.4303
 11
73.1266
 21
48.6338
  0
LINE
  8
0
 10
73.1266
 20
48.6338
 11
72.6424
 21
48.8999
  0
LINE
  8
0
 10
72.6424
 20
48.8999
 11
72.1953
 21
49.2247
  0
LINE
  8
0
 10
72.1953
 20
49.2247
 11
71.7925
 21
49.603
  0
LINE
  8
0
 10
71.7925
 20
49.603
 11
71.4403
 21
50.0287
  0
LINE
  8
0
 10
71.4403
 20
50.0287
 11
71.1443
 21
50.4953
  0
LINE
  8
0
 10
71.1443
 20
50.4953
 11
70.909
 21
50.9952
  0
LINE
  8
0
 10
70.909
 20
50.9952
 11
70.7382
 21
51.5208
  0
LINE
  8
0
 10
70.7382
 20
51.5208
 11
70.6347
 21
52.0635
  0
LINE
  8
0
 10
70.6347
 20
52.0635
 11
70.6
 21
52.615
  0
LINE
  8
0
 10
70.6
 20
52.615
 11
70.6347
 21
53.1664
  0
LINE
  8
0
 10
70.6347
 20
53.1664
 11
70.7382
 21
53.7092
  0
LINE
  8
0
 10
70.7382
 20
53.7092
 11
70.909
 21
54.2347
  0
LINE
  8
0
 10
70.909
 20
54.2347
 11
71.1443
 21
54.7347
  0
LINE
  8
0
 10
71.1443
 20
54.7347
 11
71.4403
 21
55.2012
  0
LINE
  8
0
 10
71.4403
 20
55.2012
 11
71.7925
 21
55.627
  0
LINE
  8
0
 10
71.7925
 20
55.627
 11
72.1953
 21
56.0052
  0
LINE
  8
0
 10
72.1953
 20
56.0052
 11
72.6424
 21
56.33
  0
LINE
  8
0
 10
72.6424
 20
56.33
 11
73.1266
 21
56.5962
  0
LINE
  8
0
 10
73.1266
 20
56.5962
 11
73.6403
 21
56.7996
  0
LINE
  8
0
 10
73.6403
 20
56.7996
 11
74.1755
 21
56.937
  0
LINE
  8
0
 10
74.1755
 20
56.937
 11
74.6738
 21
57
  0
LINE
  8
0
 10
74.6738
 20
57
 11
75.3262
 21
57
  0
LINE
  8
0
 10
75.3262
 20
57
 11
75.8245
 21
56.937
  0
LINE
  8
0
 10
75.8245
 20
56.937
 11
76.3597
 21
56.7996
  0
LINE
  8
0
 10
76.3597
 20
56.7996
 11
76.8734
 21
56.5962
  0
LINE
  8
0
 10
76.8734
 20
56.5962
 11
77.3576
 21
56.33
  0
LINE
  8
0
 10
77.3576
 20
56.33
 11
77.8047
 21
56.0052
  0
LINE
  8
0
 10
77.8047
 20
56.0052
 11
78.2075
 21
55.627
  0
LINE
  8
0
 10
78.2075
 20
55.627
 11
78.5597
 21
55.2012
  0
LINE
  8
0
 10
78.5597
 20
55.2012
 11
78.8557
 21
54.7347
  0
LINE
  8
0
 10
78.8557
 20
54.7347
 11
79.091
 21
54.2347
  0
LINE
  8
0
 10
79.091
 20
54.2347
 11
79.2618
 21
53.7092
  0
LINE
  8
0
 10
79.2618
 20
53.7092
 11
79.3653
 21
53.1664
  0
LINE
  8
0
 10
79.3653
 20
53.1664
 11
79.4
 21
52.615
  0
LINE
  8
0
 10
79.4
 20
52.615
 11
79.3653
 21
52.0635
  0
LINE
  8
0
 10
79.3653
 20
52.0635
 11
79.2618
 21
51.5208
  0
LINE
  8
0
 10
79.2618
 20
51.5208
 11
79.091
 21
50.9952
  0
LINE
  8
0
 10
79.091
 20
50.9952
 11
78.8557
 21
50.4953
  0
LINE
  8
0
 10
78.8557
 20
50.4953
 11
78.5597
 21
50.0287
  0
LINE
  8
0
 10
78.5597
 20
50.0287
 11
78.2075
 21
49.603
  0
LINE
  8
0
 10
78.2075
 20
49.603
 11
77.8047
 21
49.2247
  0
LINE
  8
0
 10
77.8047
 20
49.2247
 11
77.3576
 21
48.8999
  0
LINE
  8
0
 10
77.3576
 20
48.8999
 11
76.8734
 21
48.6338
  0
LINE
  8
0
 10
76.8734
 20
48.6338
 11
76.3597
 21
48.4303
  0
LINE
  8
0
 10
76.3597
 20
48.4303
 11
75.8245
 21
48.2929
  0
LINE
  8
0
 10
75.8245
 20
48.2929
 11
75.2763
 21
48.2237
  0
LINE
  8
0
 10
75.2763
 20
48.2237
 11
74.7237
 21
48.2237
  0
LINE
  8
0
 10
56.499
 20
44.7567
 11
57.4721
 21
45.0065
  0
LINE
  8
0
 10
57.4721
 20
45.0065
 11
58.4062
 21
45.3764
  0
LINE
  8
0
 10
58.4062
 20
45.3764
 11
59.2866
 21
45.8604
  0
LINE
  8
0
 10
59.2866
 20
45.8604
 11
60.0994
 21
46.4509
  0
LINE
  8
0
 10
60.0994
 20
46.4509
 11
60.8317
 21
47.1386
  0
LINE
  8
0
 10
60.8317
 20
47.1386
 11
61.4721
 21
47.9127
  0
LINE
  8
0
 10
61.4721
 20
47.9127
 11
62.0105
 21
48.761
  0
LINE
  8
0
 10
62.0105
 20
48.761
 11
62.4382
 21
49.67
  0
LINE
  8
0
 10
62.4382
 20
49.67
 11
62.7487
 21
50.6255
  0
LINE
  8
0
 10
62.7487
 20
50.6255
 11
62.9369
 21
51.6123
  0
LINE
  8
0
 10
62.9369
 20
51.6123
 11
63
 21
52.615
  0
LINE
  8
0
 10
63
 20
52.615
 11
62.9369
 21
53.6176
  0
LINE
  8
0
 10
62.9369
 20
53.6176
 11
62.7487
 21
54.6045
  0
LINE
  8
0
 10
62.7487
 20
54.6045
 11
62.4382
 21
55.56
  0
LINE
  8
0
 10
62.4382
 20
55.56
 11
62.0105
 21
56.469
  0
LINE
  8
0
 10
62.0105
 20
56.469
 11
61.4721
 21
57.3173
  0
LINE
  8
0
 10
61.4721
 20
57.3173
 11
60.8317
 21
58.0914
  0
LINE
  8
0
 10
60.8317
 20
58.0914
 11
60.0994
 21
58.7791
  0
LINE
  8
0
 10
60.0994
 20
58.7791
 11
60
 21
58.8513
  0
LINE
  8
0
 10
60
 20
58.8513
 11
60
 21
73
  0
LINE
  8
0
 10
60
 20
73
 11
50
 21
73
  0
LINE
  8
0
 10
50
 20
73
 11
50
 21
100
  0
LINE
  8
0
 10
50
 20
100
 11
0
 21
100
  0
LINE
  8
0
 10
0
 20
100
 11
0
 21
73
  0
LINE
  8
0
 10
0
 20
73
 11
-7.5
 21
73
  0
LINE
  8
0
 10
-7.5
 20
73
 11
-7.5
 21
60
  0
LINE
  8
0
 10
-7.5
 20
60
 11
5
 21
60
  0
LINE
  8
0
 10
5
 20
60
 11
5
 21
65
  0
LINE
  8
0
 10
5
 20
65
 11
-2.5
 21
65
  0
LINE
  8
0
 10
-2.5
 20
65
 11
-2.5
 21
68
  0
LINE
  8
0
 10
-2.5
 20
68
 11
5
 21
68
  0
LINE
  8
0
 10
5
 20
68
 11
5
 21
95.5
  0
LINE
  8
0
 10
5
 20
95.5
 11
45
 21
95.5
  0
LINE
  8
0
 10
45
 20
95.5
 11
45
 21
68
  0
LINE
  8
0
 10
45
 20
68
 11
52.5
 21
68
  0
LINE
  8
0
 10
52.5
 20
68
 11
52.5
 21
65
  0
LINE
  8
0
 10
52.5
 20
65
 11
45
 21
65
  0
LINE
  8
0
 10
45
 20
65
 11
45
 21
60
  0
LINE
  8
0
 10
45
 20
60
 11
50
 21
60
  0
LINE
  8
0
 10
50
 20
60
 11
50
 21
58.8513
  0
LINE
  8
0
 10
50
 20
58.8513
 11
49.9006
 21
58.7791
  0
LINE
  8
0
 10
49.9006
 20
58.7791
 11
49.1683
 21
58.0914
  0
LINE
  8
0
 10
49.1683
 20
58.0914
 11
48.5279
 21
57.3173
  0
LINE
  8
0
 10
48.5279
 20
57.3173
 11
47.9895
 21
56.469
  0
LINE
  8
0
 10
47.9895
 20
56.469
 11
47.5618
 21
55.56
  0
LINE
  8
0
 10
47.5618
 20
55.56
 11
47.2513
 21
54.6045
  0
LINE
  8
0
 10
47.2513
 20
54.6045
 11
47.0631
 21
53.6176
  0
LINE
  8
0
 10
47.0631
 20
53.6176
 11
47
 21
52.615
  0
LINE
  8
0
 10
47
 20
52.615
 11
47.0631
 21
51.6123
  0
LINE
  8
0
 10
47.0631
 20
51.6123
 11
47.2513
 21
50.6255
  0
LINE
  8
0
 10
47.2513
 20
50.6255
 11
47.5618
 21
49.67
  0
LINE
  8
0
 10
47.5618
 20
49.67
 11
47.9895
 21
48.761
  0
LINE
  8
0
 10
47.9895
 20
48.761
 11
48.5279
 21
47.9127
  0
LINE
  8
0
 10
48.5279
 20
47.9127
 11
49.1683
 21
47.1386
  0
LINE
  8
0
 10
49.1683
 20
47.1386
 11
49.9006
 21
46.4509
  0
LINE
  8
0
 10
49.9006
 20
46.4509
 11
50.7134
 21
45.8604
  0
LINE
  8
0
 10
50.7134
 20
45.8604
 11
51.5938
 21
45.3764
  0
LINE
  8
0
 10
51.5938
 20
45.3764
 11
52.5279
 21
45.0065
  0
LINE
  8
0
 10
52.5279
 20
45.0065
 11
53.501
 21
44.7567
  0
LINE
  8
0
 10
53.501
 20
44.7567
 11
54.4977
 21
44.6308
  0
LINE
  8
0
 10
54.4977
 20
44.6308
 11
55.5023
 21
44.6308
  0
LINE
  8
0
 10
55.5023
 20
44.6308
 11
56.499
 21
44.7567
  0
LINE
  8
0
 10
54.7237
 20
48.2237
 11
54.1755
 21
48.2929
  0
LINE
  8
0
 10
54.1755
 20
48.2929
 11
53.6403
 21
48.4303
  0
LINE
  8
0
 10
53.6403
 20
48.4303
 11
53.1266
 21
48.6338
  0
LINE
  8
0
 10
53.1266
 20
48.6338
 11
52.6424
 21
48.8999
  0
LINE
  8
0
 10
52.6424
 20
48.8999
 11
52.1953
 21
49.2247
  0
LINE
  8
0
 10
52.1953
 20
49.2247
 11
51.7925
 21
49.603
  0
LINE
  8
0
 10
51.7925
 20
49.603
 11
51.4403
 21
50.0287
  0
LINE
  8
0
 10
51.4403
 20
50.0287
 11
51.1443
 21
50.4953
  0
LINE
  8
0
 10
51.1443
 20
50.4953
 11
50.909
 21
50.9952
  0
LINE
  8
0
 10
50.909
 20
50.9952
 11
50.7382
 21
51.5208
  0
LINE
  8
0
 10
50.7382
 20
51.5208
 11
50.6347
 21
52.0635
  0
LINE
  8
0
 10
50.6347
 20
52.0635
 11
50.6
 21
52.615
  0
LINE
  8
0
 10
50.6
 20
52.615
 11
50.6347
 21
53.1664
  0
LINE
  8
0
 10
50.6347
 20
53.1664
 11
50.7382
 21
53.7092
  0
LINE
  8
0
 10
50.7382
 20
53.7092
 11
50.909
 21
54.2347
  0
LINE
  8
0
 10
50.909
 20
54.2347
 11
51.1443
 21
54.7347
  0
LINE
  8
0
 10
51.1443
 20
54.7347
 11
51.4403
 21
55.2012
  0
LINE
  8
0
 10
51.4403
 20
55.2012
 11
51.7925
 21
55.627
  0
LINE
  8
0
 10
51.7925
 20
55.627
 11
52.1953
 21
56.0052
  0
LINE
  8
0
 10
52.1953
 20
56.0052
 11
52.6424
 21
56.33
  0
LINE
  8
0
 10
52.6424
 20
56.33
 11
53.1266
 21
56.5962
  0
LINE
  8
0
 10
53.1266
 20
56.5962
 11
53.6403
 21
56.7996
  0
LINE
  8
0
 10
53.6403
 20
56.7996
 11
54.1755
 21
56.937
  0
LINE
  8
0
 10
54.1755
 20
56.937
 11
54.6738
 21
57
  0
LINE
  8
0
 10
54.6738
 20
57
 11
55.3262
 21
57
  0
LINE
  8
0
 10
55.3262
 20
57
 11
55.8245
 21
56.937
  0
LINE
  8
0
 10
55.8245
 20
56.937
 11
56.3597
 21
56.7996
  0
LINE
  8
0
 10
56.3597
 20
56.7996
 11
56.8734
 21
56.5962
  0
LINE
  8
0
 10
56.8734
 20
56.5962
 11
57.3576
 21
56.33
  0
LINE
  8
0
 10
57.3576
 20
56.33
 11
57.8047
 21
56.0052
  0
LINE
  8
0
 10
57.8047
 20
56.0052
 11
58.2075
 21
55.627
  0
LINE
  8
0
 10
58.2075
 20
55.627
 11
58.5597
 21
55.2012
  0
LINE
  8
0
 10
58.5597
 20
55.2012
 11
58.8557
 21
54.7347
  0
LINE
  8
0
 10
58.8557
 20
54.7347
 11
59.091
 21
54.2347
  0
LINE
  8
0
 10
59.091
 20
54.2347
 11
59.2618
 21
53.7092
  0
LINE
  8
0
 10
59.2618
 20
53.7092
 11
59.3653
 21
53.1664
  0
LINE
  8
0
 10
59.3653
 20
53.1664
 11
59.4
 21
52.615
  0
LINE
  8
0
 10
59.4
 20
52.615
 11
59.3653
 21
52.0635
  0
LINE
  8
0
 10
59.3653
 20
52.0635
 11
59.2618
 21
51.5208
  0
LINE
  8
0
 10
59.2618
 20
51.5208
 11
59.091
 21
50.9952
  0
LINE
  8
0
 10
59.091
 20
50.9952
 11
58.8557
 21
50.4953
  0
LINE
  8
0
 10
58.8557
 20
50.4953
 11
58.5597
 21
50.0287
  0
LINE
  8
0
 10
58.5597
 20
50.0287
 11
58.2075
 21
49.603
  0
LINE
  8
0
 10
58.2075
 20
49.603
 11
57.8047
 21
49.2247
  0
LINE
  8
0
 10
57.8047
 20
49.2247
 11
57.3576
 21
48.8999
  0
LINE
  8
0
 10
57.3576
 20
48.8999
 11
56.8734
 21
48.6338
  0
LINE
  8
0
 10
56.8734
 20
48.6338
 11
56.3597
 21
48.4303
  0
LINE
  8
0
 10
56.3597
 20
48.4303
 11
55.8245
 21
48.2929
  0
LINE
  8
0
 10
55.8245
 20
48.2929
 11
55.2763
 21
48.2237
  0
LINE
  8
0
 10
55.2763
 20
48.2237
 11
54.7237
 21
48.2237
  0
LINE
  8
0
 10
83.625
 20
5
 11
111.353
 21
5
  0
LINE
  8
0
 10
111.353
 20
5
 11
111.91
 21
4.12215
  0
LINE
  8
0
 10
111.91
 20
4.12215
 11
112.71
 21
3.15453
  0
LINE
  8
0
 10
112.71
 20
3.15453
 11
113.626
 21
2.29486
  0
LINE
  8
0
 10
113.626
 20
2.29486
 11
114.642
 21
1.55672
  0
LINE
  8
0
 10
114.642
 20
1.55672
 11
115.742
 21
0.951721
  0
LINE
  8
0
 10
115.742
 20
0.951721
 11
116.91
 21
0.489426
  0
LINE
  8
0
 10
116.91
 20
0.489426
 11
118.126
 21
0.177124
  0
LINE
  8
0
 10
118.126
 20
0.177124
 11
119.372
 21
0.0197296
  0
LINE
  8
0
 10
119.372
 20
0.0197296
 11
120.628
 21
0.0197296
  0
LINE
  8
0
 10
120.628
 20
0.0197296
 11
121.874
 21
0.177124
  0
LINE
  8
0
 10
121.874
 20
0.177124
 11
123.09
 21
0.489426
  0
LINE
  8
0
 10
123.09
 20
0.489426
 11
124.258
 21
0.951721
  0
LINE
  8
0
 10
124.258
 20
0.951721
 11
125.358
 21
1.55672
  0
LINE
  8
0
 10
125.358
 20
1.55672
 11
126.374
 21
2.29486
  0
LINE
  8
0
 10
126.374
 20
2.29486
 11
127.29
 21
3.15453
  0
LINE
  8
0
 10
127.29
 20
3.15453
 11
128.09
 21
4.12215
  0
LINE
  8
0
 10
128.09
 20
4.12215
 11
128.763
 21
5.18245
  0
LINE
  8
0
 10
128.763
 20
5.18245
 11
129.298
 21
6.31874
  0
LINE
  8
0
 10
129.298
 20
6.31874
 11
129.686
 21
7.51309
  0
LINE
  8
0
 10
129.686
 20
7.51309
 11
129.921
 21
8.74666
  0
LINE
  8
0
 10
129.921
 20
8.74666
 11
130
 21
10
  0
LINE
  8
0
 10
130
 20
10
 11
129.921
 21
11.2533
  0
LINE
  8
0
 10
129.921
 20
11.2533
 11
129.686
 21
12.4869
  0
LINE
  8
0
 10
129.686
 20
12.4869
 11
129.298
 21
13.6812
  0
LINE
  8
0
 10
129.298
 20
13.6812
 11
128.763
 21
14.8175
  0
LINE
  8
0
 10
128.763
 20
14.8175
 11
128.09
 21
15.8778
  0
LINE
  8
0
 10
128.09
 20
15.8778
 11
127.29
 21
16.8455
  0
LINE
  8
0
 10
127.29
 20
16.8455
 11
126.374
 21
17.7051
  0
LINE
  8
0
 10
126.374
 20
17.7051
 11
125.358
 21
18.4433
  0
LINE
  8
0
 10
125.358
 20
18.4433
 11
124.258
 21
19.0483
  0
LINE
  8
0
 10
124.258
 20
19.0483
 11
123.09
 21
19.5106
  0
LINE
  8
0
 10
123.09
 20
19.5106
 11
121.874
 21
19.8229
  0
LINE
  8
0
 10
121.874
 20
19.8229
 11
120.628
 21
19.9803
  0
LINE
  8
0
 10
120.628
 20
19.9803
 11
119.372
 21
19.9803
  0
LINE
  8
0
 10
119.372
 20
19.9803
 11
118.126
 21
19.8229
  0
LINE
  8
0
 10
118.126
 20
19.8229
 11
116.91
 21
19.5106
  0
LINE
  8
0
 10
116.91
 20
19.5106
 11
115.742
 21
19.0483
  0
LINE
  8
0
 10
115.742
 20
19.0483
 11
114.642
 21
18.4433
  0
LINE
  8
0
 10
114.642
 20
18.4433
 11
113.626
 21
17.7051
  0
LINE
  8
0
 10
113.626
 20
17.7051
 11
112.71
 21
16.8455
  0
LINE
  8
0
 10
112.71
 20
16.8455
 11
111.91
 21
15.8778
  0
LINE
  8
0
 10
111.91
 20
15.8778
 11
111.353
 21
15
  0
LINE
  8
0
 10
111.353
 20
15
 11
83.625
 21
15
  0
LINE
  8
0
 10
83.625
 20
15
 11
83.625
 21
30
  0
LINE
  8
0
 10
83.625
 20
30
 11
76.375
 21
30
  0
LINE
  8
0
 10
76.375
 20
30
 11
76.375
 21
-10
  0
LINE
  8
0
 10
76.375
 20
-10
 11
83.625
 21
-10
  0
LINE
  8
0
 10
83.625
 20
-10
 11
83.625
 21
5
  0
LINE
  8
0
 10
119.84
 20
7.45502
 11
119.522
 21
7.49516
  0
LINE
  8
0
 10
119.522
 20
7.49516
 11
119.212
 21
7.5748
  0
LINE
  8
0
 10
119.212
 20
7.5748
 11
118.914
 21
7.69269
  0
LINE
  8
0
 10
118.914
 20
7.69269
 11
118.634
 21
7.84695
  0
LINE
  8
0
 10
118.634
 20
7.84695
 11
118.375
 21
8.03519
  0
LINE
  8
0
 10
118.375
 20
8.03519
 11
118.141
 21
8.25439
  0
LINE
  8
0
 10
118.141
 20
8.25439
 11
117.937
 21
8.50114
  0
LINE
  8
0
 10
117.937
 20
8.50114
 11
117.765
 21
8.77151
  0
LINE
  8
0
 10
117.765
 20
8.77151
 11
117.629
 21
9.06128
  0
LINE
  8
0
 10
117.629
 20
9.06128
 11
117.53
 21
9.36583
  0
LINE
  8
0
 10
117.53
 20
9.36583
 11
117.47
 21
9.68039
  0
LINE
  8
0
 10
117.47
 20
9.68039
 11
117.45
 21
10
  0
LINE
  8
0
 10
117.45
 20
10
 11
117.47
 21
10.3196
  0
LINE
  8
0
 10
117.47
 20
10.3196
 11
117.53
 21
10.6342
  0
LINE
  8
0
 10
117.53
 20
10.6342
 11
117.629
 21
10.9387
  0
LINE
  8
0
 10
117.629
 20
10.9387
 11
117.765
 21
11.2285
  0
LINE
  8
0
 10
117.765
 20
11.2285
 11
117.937
 21
11.4988
  0
LINE
  8
0
 10
117.937
 20
11.4988
 11
118.141
 21
11.7456
  0
LINE
  8
0
 10
118.141
 20
11.7456
 11
118.375
 21
11.9648
  0
LINE
  8
0
 10
118.375
 20
11.9648
 11
118.634
 21
12.153
  0
LINE
  8
0
 10
118.634
 20
12.153
 11
118.914
 21
12.3073
  0
LINE
  8
0
 10
118.914
 20
12.3073
 11
119.212
 21
12.4252
  0
LINE
  8
0
 10
119.212
 20
12.4252
 11
119.522
 21
12.5048
  0
LINE
  8
0
 10
119.522
 20
12.5048
 11
119.84
 21
12.545
  0
LINE
  8
0
 10
119.84
 20
12.545
 11
120.16
 21
12.545
  0
LINE
  8
0
 10
120.16
 20
12.545
 11
120.478
 21
12.5048
  0
LINE
  8
0
 10
120.478
 20
12.5048
 11
120.788
 21
12.4252
  0
LINE
  8
0
 10
120.788
 20
12.4252
 11
121.086
 21
12.3073
  0
LINE
  8
0
 10
121.086
 20
12.3073
 11
121.366
 21
12.153
  0
LINE
  8
0
 10
121.366
 20
12.153
 11
121.625
 21
11.9648
  0
LINE
  8
0
 10
121.625
 20
11.9648
 11
121.859
 21
11.7456
  0
LINE
  8
0
 10
121.859
 20
11.7456
 11
122.063
 21
11.4988
  0
LINE
  8
0
 10
122.063
 20
11.4988
 11
122.235
 21
11.2285
  0
LINE
  8
0
 10
122.235
 20
11.2285
 11
122.371
 21
10.9387
  0
LINE
  8
0
 10
122.371
 20
10.9387
 11
122.47
 21
10.6342
  0
LINE
  8
0
 10
122.47
 20
10.6342
 11
122.53
 21
10.3196
  0
LINE
  8
0
 10
122.53
 20
10.3196
 11
122.55
 21
10
  0
LINE
  8
0
 10
122.55
 20
10
 11
122.53
 21
9.68039
  0
LINE
  8
0
 10
122.53
 20
9.68039
 11
122.47
 21
9.36583
  0
LINE
  8
0
 10
122.47
 20
9.36583
 11
122.371
 21
9.06128
  0
LINE
  8
0
 10
122.371
 20
9.06128
 11
122.235
 21
8.77151
  0
LINE
  8
0
 10
122.235
 20
8.77151
 11
122.063
 21
8.50114
  0
LINE
  8
0
 10
122.063
 20
8.50114
 11
121.859
 21
8.25439
  0
LINE
  8
0
 10
121.859
 20
8.25439
 11
121.625
 21
8.03519
  0
LINE
  8
0
 10
121.625
 20
8.03519
 11
121.366
 21
7.84695
  0
LINE
  8
0
 10
121.366
 20
7.84695
 11
121.086
 21
7.69269
  0
LINE
  8
0
 10
121.086
 20
7.69269
 11
120.788
 21
7.5748
  0
LINE
  8
0
 10
120.788
 20
7.5748
 11
120.478
 21
7.49516
  0
LINE
  8
0
 10
120.478
 20
7.49516
 11
120.16
 21
7.45502
  0
LINE
  8
0
 10
120.16
 20
7.45502
 11
119.84
 21
7.45502
  0
LINE
  8
0
 10
60
 20
25
 11
0
 21
25
  0
LINE
  8
0
 10
0
 20
25
 11
0
 21
0
  0
LINE
  8
0
 10
0
 20
0
 11
60
 21
0
  0
LINE
  8
0
 10
60
 20
0
 11
60
 21
25
  0
LINE
  8
0
 10
5
 20
2.5
 11
5
 21
7.5
  0
LINE
  8
0
 10
5
 20
7.5
 11
9
 21
7.5
  0
LINE
  8
0
 10
9
 20
7.5
 11
9
 21
10
  0
LINE
  8
0
 10
9
 20
10
 11
5
 21
10
  0
LINE
  8
0
 10
5
 20
10
 11
5
 21
15
  0
LINE
  8
0
 10
5
 20
15
 11
9
 21
15
  0
LINE
  8
0
 10
9
 20
15
 11
9
 21
17.5
  0
LINE
  8
0
 10
9
 20
17.5
 11
5
 21
17.5
  0
LINE
  8
0
 10
5
 20
17.5
 11
5
 21
22.5
  0
LINE
  8
0
 10
5
 20
22.5
 11
55
 21
22.5
  0
LINE
  8
0
 10
55
 20
22.5
 11
55
 21
17.5
  0
LINE
  8
0
 10
55
 20
17.5
 11
50
 21
17.5
  0
LINE
  8
0
 10
50
 20
17.5
 11
50
 21
7.5
  0
LINE
  8
0
 10
50
 20
7.5
 11
55
 21
7.5
  0
LINE
  8
0
 10
55
 20
7.5
 11
55
 21
2.5
  0
LINE
  8
0
 10
55
 20
2.5
 11
5
 21
2.5
  0
ENDSEC
  0
SECTION
  2
OBJECTS
  0
DICTIONARY
  0
ENDSEC
  0
EOF
