  0
SECTION
  2
BLOCKS
  0
ENDSEC
  0
SECTION
  2
ENTITIES
  0
LINE
  8
0
 10
115
 20
100
 11
100
 21
100
  0
LINE
  8
0
 10
100
 20
100
 11
100
 21
80
  0
LINE
  8
0
 10
100
 20
80
 11
115
 21
80
  0
LINE
  8
0
 10
115
 20
80
 11
115
 21
100
  0
LINE
  8
0
 10
104.868
 20
92.9041
 11
104.606
 21
92.9372
  0
LINE
  8
0
 10
104.606
 20
92.9372
 11
104.351
 21
93.0028
  0
LINE
  8
0
 10
104.351
 20
93.0028
 11
104.106
 21
93.0999
  0
LINE
  8
0
 10
104.106
 20
93.0999
 11
103.875
 21
93.2269
  0
LINE
  8
0
 10
103.875
 20
93.2269
 11
103.661
 21
93.3819
  0
LINE
  8
0
 10
103.661
 20
93.3819
 11
103.469
 21
93.5624
  0
LINE
  8
0
 10
103.469
 20
93.5624
 11
103.301
 21
93.7656
  0
LINE
  8
0
 10
103.301
 20
93.7656
 11
103.16
 21
93.9883
  0
LINE
  8
0
 10
103.16
 20
93.9883
 11
103.047
 21
94.2269
  0
LINE
  8
0
 10
103.047
 20
94.2269
 11
102.966
 21
94.4777
  0
LINE
  8
0
 10
102.966
 20
94.4777
 11
102.917
 21
94.7368
  0
LINE
  8
0
 10
102.917
 20
94.7368
 11
102.9
 21
95
  0
LINE
  8
0
 10
102.9
 20
95
 11
102.917
 21
95.2632
  0
LINE
  8
0
 10
102.917
 20
95.2632
 11
102.966
 21
95.5222
  0
LINE
  8
0
 10
102.966
 20
95.5222
 11
103.047
 21
95.7731
  0
LINE
  8
0
 10
103.047
 20
95.7731
 11
103.16
 21
96.0117
  0
LINE
  8
0
 10
103.16
 20
96.0117
 11
103.301
 21
96.2343
  0
LINE
  8
0
 10
103.301
 20
96.2343
 11
103.469
 21
96.4375
  0
LINE
  8
0
 10
103.469
 20
96.4375
 11
103.661
 21
96.6181
  0
LINE
  8
0
 10
103.661
 20
96.6181
 11
103.875
 21
96.7731
  0
LINE
  8
0
 10
103.875
 20
96.7731
 11
104.106
 21
96.9001
  0
LINE
  8
0
 10
104.106
 20
96.9001
 11
104.351
 21
96.9972
  0
LINE
  8
0
 10
104.351
 20
96.9972
 11
104.606
 21
97.0628
  0
LINE
  8
0
 10
104.606
 20
97.0628
 11
104.868
 21
97.0959
  0
LINE
  8
0
 10
104.868
 20
97.0959
 11
105.132
 21
97.0959
  0
LINE
  8
0
 10
105.132
 20
97.0959
 11
105.393
 21
97.0628
  0
LINE
  8
0
 10
105.393
 20
97.0628
 11
105.649
 21
96.9972
  0
LINE
  8
0
 10
105.649
 20
96.9972
 11
105.894
 21
96.9001
  0
LINE
  8
0
 10
105.894
 20
96.9001
 11
106.125
 21
96.7731
  0
LINE
  8
0
 10
106.125
 20
96.7731
 11
106.339
 21
96.6181
  0
LINE
  8
0
 10
106.339
 20
96.6181
 11
106.531
 21
96.4375
  0
LINE
  8
0
 10
106.531
 20
96.4375
 11
106.699
 21
96.2343
  0
LINE
  8
0
 10
106.699
 20
96.2343
 11
106.84
 21
96.0117
  0
LINE
  8
0
 10
106.84
 20
96.0117
 11
106.953
 21
95.7731
  0
LINE
  8
0
 10
106.953
 20
95.7731
 11
107.034
 21
95.5222
  0
LINE
  8
0
 10
107.034
 20
95.5222
 11
107.083
 21
95.2632
  0
LINE
  8
0
 10
107.083
 20
95.2632
 11
107.1
 21
95
  0
LINE
  8
0
 10
107.1
 20
95
 11
107.083
 21
94.7368
  0
LINE
  8
0
 10
107.083
 20
94.7368
 11
107.034
 21
94.4777
  0
LINE
  8
0
 10
107.034
 20
94.4777
 11
106.953
 21
94.2269
  0
LINE
  8
0
 10
106.953
 20
94.2269
 11
106.84
 21
93.9883
  0
LINE
  8
0
 10
106.84
 20
93.9883
 11
106.699
 21
93.7656
  0
LINE
  8
0
 10
106.699
 20
93.7656
 11
106.531
 21
93.5624
  0
LINE
  8
0
 10
106.531
 20
93.5624
 11
106.339
 21
93.3819
  0
LINE
  8
0
 10
106.339
 20
93.3819
 11
106.125
 21
93.2269
  0
LINE
  8
0
 10
106.125
 20
93.2269
 11
105.894
 21
93.0999
  0
LINE
  8
0
 10
105.894
 20
93.0999
 11
105.649
 21
93.0028
  0
LINE
  8
0
 10
105.649
 20
93.0028
 11
105.393
 21
92.9372
  0
LINE
  8
0
 10
105.393
 20
92.9372
 11
105.132
 21
92.9041
  0
LINE
  8
0
 10
105.132
 20
92.9041
 11
104.868
 21
92.9041
  0
LINE
  8
0
 10
104.868
 20
82.9041
 11
104.606
 21
82.9372
  0
LINE
  8
0
 10
104.606
 20
82.9372
 11
104.351
 21
83.0028
  0
LINE
  8
0
 10
104.351
 20
83.0028
 11
104.106
 21
83.0999
  0
LINE
  8
0
 10
104.106
 20
83.0999
 11
103.875
 21
83.2269
  0
LINE
  8
0
 10
103.875
 20
83.2269
 11
103.661
 21
83.3819
  0
LINE
  8
0
 10
103.661
 20
83.3819
 11
103.469
 21
83.5624
  0
LINE
  8
0
 10
103.469
 20
83.5624
 11
103.301
 21
83.7656
  0
LINE
  8
0
 10
103.301
 20
83.7656
 11
103.16
 21
83.9883
  0
LINE
  8
0
 10
103.16
 20
83.9883
 11
103.047
 21
84.2269
  0
LINE
  8
0
 10
103.047
 20
84.2269
 11
102.966
 21
84.4777
  0
LINE
  8
0
 10
102.966
 20
84.4777
 11
102.917
 21
84.7368
  0
LINE
  8
0
 10
102.917
 20
84.7368
 11
102.9
 21
85
  0
LINE
  8
0
 10
102.9
 20
85
 11
102.917
 21
85.2632
  0
LINE
  8
0
 10
102.917
 20
85.2632
 11
102.966
 21
85.5222
  0
LINE
  8
0
 10
102.966
 20
85.5222
 11
103.047
 21
85.7731
  0
LINE
  8
0
 10
103.047
 20
85.7731
 11
103.16
 21
86.0117
  0
LINE
  8
0
 10
103.16
 20
86.0117
 11
103.301
 21
86.2343
  0
LINE
  8
0
 10
103.301
 20
86.2343
 11
103.469
 21
86.4375
  0
LINE
  8
0
 10
103.469
 20
86.4375
 11
103.661
 21
86.6181
  0
LINE
  8
0
 10
103.661
 20
86.6181
 11
103.875
 21
86.7731
  0
LINE
  8
0
 10
103.875
 20
86.7731
 11
104.106
 21
86.9001
  0
LINE
  8
0
 10
104.106
 20
86.9001
 11
104.351
 21
86.9972
  0
LINE
  8
0
 10
104.351
 20
86.9972
 11
104.606
 21
87.0628
  0
LINE
  8
0
 10
104.606
 20
87.0628
 11
104.868
 21
87.0959
  0
LINE
  8
0
 10
104.868
 20
87.0959
 11
105.132
 21
87.0959
  0
LINE
  8
0
 10
105.132
 20
87.0959
 11
105.393
 21
87.0628
  0
LINE
  8
0
 10
105.393
 20
87.0628
 11
105.649
 21
86.9972
  0
LINE
  8
0
 10
105.649
 20
86.9972
 11
105.894
 21
86.9001
  0
LINE
  8
0
 10
105.894
 20
86.9001
 11
106.125
 21
86.7731
  0
LINE
  8
0
 10
106.125
 20
86.7731
 11
106.339
 21
86.6181
  0
LINE
  8
0
 10
106.339
 20
86.6181
 11
106.531
 21
86.4375
  0
LINE
  8
0
 10
106.531
 20
86.4375
 11
106.699
 21
86.2343
  0
LINE
  8
0
 10
106.699
 20
86.2343
 11
106.84
 21
86.0117
  0
LINE
  8
0
 10
106.84
 20
86.0117
 11
106.953
 21
85.7731
  0
LINE
  8
0
 10
106.953
 20
85.7731
 11
107.034
 21
85.5222
  0
LINE
  8
0
 10
107.034
 20
85.5222
 11
107.083
 21
85.2632
  0
LINE
  8
0
 10
107.083
 20
85.2632
 11
107.1
 21
85
  0
LINE
  8
0
 10
107.1
 20
85
 11
107.083
 21
84.7368
  0
LINE
  8
0
 10
107.083
 20
84.7368
 11
107.034
 21
84.4777
  0
LINE
  8
0
 10
107.034
 20
84.4777
 11
106.953
 21
84.2269
  0
LINE
  8
0
 10
106.953
 20
84.2269
 11
106.84
 21
83.9883
  0
LINE
  8
0
 10
106.84
 20
83.9883
 11
106.699
 21
83.7656
  0
LINE
  8
0
 10
106.699
 20
83.7656
 11
106.531
 21
83.5624
  0
LINE
  8
0
 10
106.531
 20
83.5624
 11
106.339
 21
83.3819
  0
LINE
  8
0
 10
106.339
 20
83.3819
 11
106.125
 21
83.2269
  0
LINE
  8
0
 10
106.125
 20
83.2269
 11
105.894
 21
83.0999
  0
LINE
  8
0
 10
105.894
 20
83.0999
 11
105.649
 21
83.0028
  0
LINE
  8
0
 10
105.649
 20
83.0028
 11
105.393
 21
82.9372
  0
LINE
  8
0
 10
105.393
 20
82.9372
 11
105.132
 21
82.9041
  0
LINE
  8
0
 10
105.132
 20
82.9041
 11
104.868
 21
82.9041
  0
LINE
  8
0
 10
115
 20
60
 11
100
 21
60
  0
LINE
  8
0
 10
100
 20
60
 11
100
 21
40
  0
LINE
  8
0
 10
100
 20
40
 11
115
 21
40
  0
LINE
  8
0
 10
115
 20
40
 11
115
 21
60
  0
LINE
  8
0
 10
104.868
 20
52.9041
 11
104.606
 21
52.9372
  0
LINE
  8
0
 10
104.606
 20
52.9372
 11
104.351
 21
53.0028
  0
LINE
  8
0
 10
104.351
 20
53.0028
 11
104.106
 21
53.0999
  0
LINE
  8
0
 10
104.106
 20
53.0999
 11
103.875
 21
53.2269
  0
LINE
  8
0
 10
103.875
 20
53.2269
 11
103.661
 21
53.3819
  0
LINE
  8
0
 10
103.661
 20
53.3819
 11
103.469
 21
53.5624
  0
LINE
  8
0
 10
103.469
 20
53.5624
 11
103.301
 21
53.7656
  0
LINE
  8
0
 10
103.301
 20
53.7656
 11
103.16
 21
53.9883
  0
LINE
  8
0
 10
103.16
 20
53.9883
 11
103.047
 21
54.2269
  0
LINE
  8
0
 10
103.047
 20
54.2269
 11
102.966
 21
54.4777
  0
LINE
  8
0
 10
102.966
 20
54.4777
 11
102.917
 21
54.7368
  0
LINE
  8
0
 10
102.917
 20
54.7368
 11
102.9
 21
55
  0
LINE
  8
0
 10
102.9
 20
55
 11
102.917
 21
55.2632
  0
LINE
  8
0
 10
102.917
 20
55.2632
 11
102.966
 21
55.5222
  0
LINE
  8
0
 10
102.966
 20
55.5222
 11
103.047
 21
55.7731
  0
LINE
  8
0
 10
103.047
 20
55.7731
 11
103.16
 21
56.0117
  0
LINE
  8
0
 10
103.16
 20
56.0117
 11
103.301
 21
56.2343
  0
LINE
  8
0
 10
103.301
 20
56.2343
 11
103.469
 21
56.4375
  0
LINE
  8
0
 10
103.469
 20
56.4375
 11
103.661
 21
56.6181
  0
LINE
  8
0
 10
103.661
 20
56.6181
 11
103.875
 21
56.7731
  0
LINE
  8
0
 10
103.875
 20
56.7731
 11
104.106
 21
56.9001
  0
LINE
  8
0
 10
104.106
 20
56.9001
 11
104.351
 21
56.9972
  0
LINE
  8
0
 10
104.351
 20
56.9972
 11
104.606
 21
57.0628
  0
LINE
  8
0
 10
104.606
 20
57.0628
 11
104.868
 21
57.0959
  0
LINE
  8
0
 10
104.868
 20
57.0959
 11
105.132
 21
57.0959
  0
LINE
  8
0
 10
105.132
 20
57.0959
 11
105.393
 21
57.0628
  0
LINE
  8
0
 10
105.393
 20
57.0628
 11
105.649
 21
56.9972
  0
LINE
  8
0
 10
105.649
 20
56.9972
 11
105.894
 21
56.9001
  0
LINE
  8
0
 10
105.894
 20
56.9001
 11
106.125
 21
56.7731
  0
LINE
  8
0
 10
106.125
 20
56.7731
 11
106.339
 21
56.6181
  0
LINE
  8
0
 10
106.339
 20
56.6181
 11
106.531
 21
56.4375
  0
LINE
  8
0
 10
106.531
 20
56.4375
 11
106.699
 21
56.2343
  0
LINE
  8
0
 10
106.699
 20
56.2343
 11
106.84
 21
56.0117
  0
LINE
  8
0
 10
106.84
 20
56.0117
 11
106.953
 21
55.7731
  0
LINE
  8
0
 10
106.953
 20
55.7731
 11
107.034
 21
55.5222
  0
LINE
  8
0
 10
107.034
 20
55.5222
 11
107.083
 21
55.2632
  0
LINE
  8
0
 10
107.083
 20
55.2632
 11
107.1
 21
55
  0
LINE
  8
0
 10
107.1
 20
55
 11
107.083
 21
54.7368
  0
LINE
  8
0
 10
107.083
 20
54.7368
 11
107.034
 21
54.4777
  0
LINE
  8
0
 10
107.034
 20
54.4777
 11
106.953
 21
54.2269
  0
LINE
  8
0
 10
106.953
 20
54.2269
 11
106.84
 21
53.9883
  0
LINE
  8
0
 10
106.84
 20
53.9883
 11
106.699
 21
53.7656
  0
LINE
  8
0
 10
106.699
 20
53.7656
 11
106.531
 21
53.5624
  0
LINE
  8
0
 10
106.531
 20
53.5624
 11
106.339
 21
53.3819
  0
LINE
  8
0
 10
106.339
 20
53.3819
 11
106.125
 21
53.2269
  0
LINE
  8
0
 10
106.125
 20
53.2269
 11
105.894
 21
53.0999
  0
LINE
  8
0
 10
105.894
 20
53.0999
 11
105.649
 21
53.0028
  0
LINE
  8
0
 10
105.649
 20
53.0028
 11
105.393
 21
52.9372
  0
LINE
  8
0
 10
105.393
 20
52.9372
 11
105.132
 21
52.9041
  0
LINE
  8
0
 10
105.132
 20
52.9041
 11
104.868
 21
52.9041
  0
LINE
  8
0
 10
104.868
 20
42.9041
 11
104.606
 21
42.9372
  0
LINE
  8
0
 10
104.606
 20
42.9372
 11
104.351
 21
43.0028
  0
LINE
  8
0
 10
104.351
 20
43.0028
 11
104.106
 21
43.0999
  0
LINE
  8
0
 10
104.106
 20
43.0999
 11
103.875
 21
43.2269
  0
LINE
  8
0
 10
103.875
 20
43.2269
 11
103.661
 21
43.3819
  0
LINE
  8
0
 10
103.661
 20
43.3819
 11
103.469
 21
43.5624
  0
LINE
  8
0
 10
103.469
 20
43.5624
 11
103.301
 21
43.7656
  0
LINE
  8
0
 10
103.301
 20
43.7656
 11
103.16
 21
43.9883
  0
LINE
  8
0
 10
103.16
 20
43.9883
 11
103.047
 21
44.2269
  0
LINE
  8
0
 10
103.047
 20
44.2269
 11
102.966
 21
44.4777
  0
LINE
  8
0
 10
102.966
 20
44.4777
 11
102.917
 21
44.7368
  0
LINE
  8
0
 10
102.917
 20
44.7368
 11
102.9
 21
45
  0
LINE
  8
0
 10
102.9
 20
45
 11
102.917
 21
45.2632
  0
LINE
  8
0
 10
102.917
 20
45.2632
 11
102.966
 21
45.5222
  0
LINE
  8
0
 10
102.966
 20
45.5222
 11
103.047
 21
45.7731
  0
LINE
  8
0
 10
103.047
 20
45.7731
 11
103.16
 21
46.0117
  0
LINE
  8
0
 10
103.16
 20
46.0117
 11
103.301
 21
46.2343
  0
LINE
  8
0
 10
103.301
 20
46.2343
 11
103.469
 21
46.4375
  0
LINE
  8
0
 10
103.469
 20
46.4375
 11
103.661
 21
46.6181
  0
LINE
  8
0
 10
103.661
 20
46.6181
 11
103.875
 21
46.7731
  0
LINE
  8
0
 10
103.875
 20
46.7731
 11
104.106
 21
46.9001
  0
LINE
  8
0
 10
104.106
 20
46.9001
 11
104.351
 21
46.9972
  0
LINE
  8
0
 10
104.351
 20
46.9972
 11
104.606
 21
47.0628
  0
LINE
  8
0
 10
104.606
 20
47.0628
 11
104.868
 21
47.0959
  0
LINE
  8
0
 10
104.868
 20
47.0959
 11
105.132
 21
47.0959
  0
LINE
  8
0
 10
105.132
 20
47.0959
 11
105.393
 21
47.0628
  0
LINE
  8
0
 10
105.393
 20
47.0628
 11
105.649
 21
46.9972
  0
LINE
  8
0
 10
105.649
 20
46.9972
 11
105.894
 21
46.9001
  0
LINE
  8
0
 10
105.894
 20
46.9001
 11
106.125
 21
46.7731
  0
LINE
  8
0
 10
106.125
 20
46.7731
 11
106.339
 21
46.6181
  0
LINE
  8
0
 10
106.339
 20
46.6181
 11
106.531
 21
46.4375
  0
LINE
  8
0
 10
106.531
 20
46.4375
 11
106.699
 21
46.2343
  0
LINE
  8
0
 10
106.699
 20
46.2343
 11
106.84
 21
46.0117
  0
LINE
  8
0
 10
106.84
 20
46.0117
 11
106.953
 21
45.7731
  0
LINE
  8
0
 10
106.953
 20
45.7731
 11
107.034
 21
45.5222
  0
LINE
  8
0
 10
107.034
 20
45.5222
 11
107.083
 21
45.2632
  0
LINE
  8
0
 10
107.083
 20
45.2632
 11
107.1
 21
45
  0
LINE
  8
0
 10
107.1
 20
45
 11
107.083
 21
44.7368
  0
LINE
  8
0
 10
107.083
 20
44.7368
 11
107.034
 21
44.4777
  0
LINE
  8
0
 10
107.034
 20
44.4777
 11
106.953
 21
44.2269
  0
LINE
  8
0
 10
106.953
 20
44.2269
 11
106.84
 21
43.9883
  0
LINE
  8
0
 10
106.84
 20
43.9883
 11
106.699
 21
43.7656
  0
LINE
  8
0
 10
106.699
 20
43.7656
 11
106.531
 21
43.5624
  0
LINE
  8
0
 10
106.531
 20
43.5624
 11
106.339
 21
43.3819
  0
LINE
  8
0
 10
106.339
 20
43.3819
 11
106.125
 21
43.2269
  0
LINE
  8
0
 10
106.125
 20
43.2269
 11
105.894
 21
43.0999
  0
LINE
  8
0
 10
105.894
 20
43.0999
 11
105.649
 21
43.0028
  0
LINE
  8
0
 10
105.649
 20
43.0028
 11
105.393
 21
42.9372
  0
LINE
  8
0
 10
105.393
 20
42.9372
 11
105.132
 21
42.9041
  0
LINE
  8
0
 10
105.132
 20
42.9041
 11
104.868
 21
42.9041
  0
LINE
  8
0
 10
127.25
 20
0
 11
160
 21
0
  0
LINE
  8
0
 10
160
 20
0
 11
160
 21
0.0197296
  0
LINE
  8
0
 10
160
 20
0.0197296
 11
160.628
 21
0.0197296
  0
LINE
  8
0
 10
160.628
 20
0.0197296
 11
161.874
 21
0.177124
  0
LINE
  8
0
 10
161.874
 20
0.177124
 11
163.09
 21
0.489426
  0
LINE
  8
0
 10
163.09
 20
0.489426
 11
164.258
 21
0.951721
  0
LINE
  8
0
 10
164.258
 20
0.951721
 11
165.358
 21
1.55672
  0
LINE
  8
0
 10
165.358
 20
1.55672
 11
166.374
 21
2.29486
  0
LINE
  8
0
 10
166.374
 20
2.29486
 11
167.29
 21
3.15453
  0
LINE
  8
0
 10
167.29
 20
3.15453
 11
168.09
 21
4.12215
  0
LINE
  8
0
 10
168.09
 20
4.12215
 11
168.763
 21
5.18245
  0
LINE
  8
0
 10
168.763
 20
5.18245
 11
169.298
 21
6.31874
  0
LINE
  8
0
 10
169.298
 20
6.31874
 11
169.686
 21
7.51309
  0
LINE
  8
0
 10
169.686
 20
7.51309
 11
169.921
 21
8.74666
  0
LINE
  8
0
 10
169.921
 20
8.74666
 11
170
 21
10
  0
LINE
  8
0
 10
170
 20
10
 11
169.921
 21
11.2533
  0
LINE
  8
0
 10
169.921
 20
11.2533
 11
169.686
 21
12.4869
  0
LINE
  8
0
 10
169.686
 20
12.4869
 11
169.298
 21
13.6812
  0
LINE
  8
0
 10
169.298
 20
13.6812
 11
168.763
 21
14.8175
  0
LINE
  8
0
 10
168.763
 20
14.8175
 11
168.09
 21
15.8778
  0
LINE
  8
0
 10
168.09
 20
15.8778
 11
167.29
 21
16.8455
  0
LINE
  8
0
 10
167.29
 20
16.8455
 11
166.374
 21
17.7051
  0
LINE
  8
0
 10
166.374
 20
17.7051
 11
165.358
 21
18.4433
  0
LINE
  8
0
 10
165.358
 20
18.4433
 11
164.258
 21
19.0483
  0
LINE
  8
0
 10
164.258
 20
19.0483
 11
163.09
 21
19.5106
  0
LINE
  8
0
 10
163.09
 20
19.5106
 11
161.874
 21
19.8229
  0
LINE
  8
0
 10
161.874
 20
19.8229
 11
160.628
 21
19.9803
  0
LINE
  8
0
 10
160.628
 20
19.9803
 11
160
 21
19.9803
  0
LINE
  8
0
 10
160
 20
19.9803
 11
160
 21
20
  0
LINE
  8
0
 10
160
 20
20
 11
127.25
 21
20
  0
LINE
  8
0
 10
127.25
 20
20
 11
127.25
 21
30
  0
LINE
  8
0
 10
127.25
 20
30
 11
120
 21
30
  0
LINE
  8
0
 10
120
 20
30
 11
120
 21
20
  0
LINE
  8
0
 10
120
 20
20
 11
100
 21
20
  0
LINE
  8
0
 10
100
 20
20
 11
100
 21
0
  0
LINE
  8
0
 10
100
 20
0
 11
120
 21
0
  0
LINE
  8
0
 10
120
 20
0
 11
120
 21
-10
  0
LINE
  8
0
 10
120
 20
-10
 11
127.25
 21
-10
  0
LINE
  8
0
 10
127.25
 20
-10
 11
127.25
 21
0
  0
LINE
  8
0
 10
109.868
 20
12.9041
 11
109.606
 21
12.9372
  0
LINE
  8
0
 10
109.606
 20
12.9372
 11
109.351
 21
13.0028
  0
LINE
  8
0
 10
109.351
 20
13.0028
 11
109.106
 21
13.0999
  0
LINE
  8
0
 10
109.106
 20
13.0999
 11
108.875
 21
13.2269
  0
LINE
  8
0
 10
108.875
 20
13.2269
 11
108.661
 21
13.3819
  0
LINE
  8
0
 10
108.661
 20
13.3819
 11
108.469
 21
13.5624
  0
LINE
  8
0
 10
108.469
 20
13.5624
 11
108.301
 21
13.7656
  0
LINE
  8
0
 10
108.301
 20
13.7656
 11
108.16
 21
13.9883
  0
LINE
  8
0
 10
108.16
 20
13.9883
 11
108.047
 21
14.2269
  0
LINE
  8
0
 10
108.047
 20
14.2269
 11
107.966
 21
14.4777
  0
LINE
  8
0
 10
107.966
 20
14.4777
 11
107.917
 21
14.7368
  0
LINE
  8
0
 10
107.917
 20
14.7368
 11
107.9
 21
15
  0
LINE
  8
0
 10
107.9
 20
15
 11
107.917
 21
15.2632
  0
LINE
  8
0
 10
107.917
 20
15.2632
 11
107.966
 21
15.5222
  0
LINE
  8
0
 10
107.966
 20
15.5222
 11
108.047
 21
15.7731
  0
LINE
  8
0
 10
108.047
 20
15.7731
 11
108.16
 21
16.0117
  0
LINE
  8
0
 10
108.16
 20
16.0117
 11
108.301
 21
16.2343
  0
LINE
  8
0
 10
108.301
 20
16.2343
 11
108.469
 21
16.4375
  0
LINE
  8
0
 10
108.469
 20
16.4375
 11
108.661
 21
16.6181
  0
LINE
  8
0
 10
108.661
 20
16.6181
 11
108.875
 21
16.7731
  0
LINE
  8
0
 10
108.875
 20
16.7731
 11
109.106
 21
16.9001
  0
LINE
  8
0
 10
109.106
 20
16.9001
 11
109.351
 21
16.9972
  0
LINE
  8
0
 10
109.351
 20
16.9972
 11
109.606
 21
17.0628
  0
LINE
  8
0
 10
109.606
 20
17.0628
 11
109.868
 21
17.0959
  0
LINE
  8
0
 10
109.868
 20
17.0959
 11
110.132
 21
17.0959
  0
LINE
  8
0
 10
110.132
 20
17.0959
 11
110.393
 21
17.0628
  0
LINE
  8
0
 10
110.393
 20
17.0628
 11
110.649
 21
16.9972
  0
LINE
  8
0
 10
110.649
 20
16.9972
 11
110.894
 21
16.9001
  0
LINE
  8
0
 10
110.894
 20
16.9001
 11
111.125
 21
16.7731
  0
LINE
  8
0
 10
111.125
 20
16.7731
 11
111.339
 21
16.6181
  0
LINE
  8
0
 10
111.339
 20
16.6181
 11
111.531
 21
16.4375
  0
LINE
  8
0
 10
111.531
 20
16.4375
 11
111.699
 21
16.2343
  0
LINE
  8
0
 10
111.699
 20
16.2343
 11
111.84
 21
16.0117
  0
LINE
  8
0
 10
111.84
 20
16.0117
 11
111.953
 21
15.7731
  0
LINE
  8
0
 10
111.953
 20
15.7731
 11
112.034
 21
15.5222
  0
LINE
  8
0
 10
112.034
 20
15.5222
 11
112.083
 21
15.2632
  0
LINE
  8
0
 10
112.083
 20
15.2632
 11
112.1
 21
15
  0
LINE
  8
0
 10
112.1
 20
15
 11
112.083
 21
14.7368
  0
LINE
  8
0
 10
112.083
 20
14.7368
 11
112.034
 21
14.4777
  0
LINE
  8
0
 10
112.034
 20
14.4777
 11
111.953
 21
14.2269
  0
LINE
  8
0
 10
111.953
 20
14.2269
 11
111.84
 21
13.9883
  0
LINE
  8
0
 10
111.84
 20
13.9883
 11
111.699
 21
13.7656
  0
LINE
  8
0
 10
111.699
 20
13.7656
 11
111.531
 21
13.5624
  0
LINE
  8
0
 10
111.531
 20
13.5624
 11
111.339
 21
13.3819
  0
LINE
  8
0
 10
111.339
 20
13.3819
 11
111.125
 21
13.2269
  0
LINE
  8
0
 10
111.125
 20
13.2269
 11
110.894
 21
13.0999
  0
LINE
  8
0
 10
110.894
 20
13.0999
 11
110.649
 21
13.0028
  0
LINE
  8
0
 10
110.649
 20
13.0028
 11
110.393
 21
12.9372
  0
LINE
  8
0
 10
110.393
 20
12.9372
 11
110.132
 21
12.9041
  0
LINE
  8
0
 10
110.132
 20
12.9041
 11
109.868
 21
12.9041
  0
LINE
  8
0
 10
159.84
 20
7.45502
 11
159.522
 21
7.49516
  0
LINE
  8
0
 10
159.522
 20
7.49516
 11
159.212
 21
7.5748
  0
LINE
  8
0
 10
159.212
 20
7.5748
 11
158.914
 21
7.69269
  0
LINE
  8
0
 10
158.914
 20
7.69269
 11
158.634
 21
7.84695
  0
LINE
  8
0
 10
158.634
 20
7.84695
 11
158.375
 21
8.03519
  0
LINE
  8
0
 10
158.375
 20
8.03519
 11
158.141
 21
8.25439
  0
LINE
  8
0
 10
158.141
 20
8.25439
 11
157.937
 21
8.50114
  0
LINE
  8
0
 10
157.937
 20
8.50114
 11
157.765
 21
8.77151
  0
LINE
  8
0
 10
157.765
 20
8.77151
 11
157.629
 21
9.06128
  0
LINE
  8
0
 10
157.629
 20
9.06128
 11
157.53
 21
9.36583
  0
LINE
  8
0
 10
157.53
 20
9.36583
 11
157.47
 21
9.68039
  0
LINE
  8
0
 10
157.47
 20
9.68039
 11
157.45
 21
10
  0
LINE
  8
0
 10
157.45
 20
10
 11
157.47
 21
10.3196
  0
LINE
  8
0
 10
157.47
 20
10.3196
 11
157.53
 21
10.6342
  0
LINE
  8
0
 10
157.53
 20
10.6342
 11
157.629
 21
10.9387
  0
LINE
  8
0
 10
157.629
 20
10.9387
 11
157.765
 21
11.2285
  0
LINE
  8
0
 10
157.765
 20
11.2285
 11
157.937
 21
11.4988
  0
LINE
  8
0
 10
157.937
 20
11.4988
 11
158.141
 21
11.7456
  0
LINE
  8
0
 10
158.141
 20
11.7456
 11
158.375
 21
11.9648
  0
LINE
  8
0
 10
158.375
 20
11.9648
 11
158.634
 21
12.153
  0
LINE
  8
0
 10
158.634
 20
12.153
 11
158.914
 21
12.3073
  0
LINE
  8
0
 10
158.914
 20
12.3073
 11
159.212
 21
12.4252
  0
LINE
  8
0
 10
159.212
 20
12.4252
 11
159.522
 21
12.5048
  0
LINE
  8
0
 10
159.522
 20
12.5048
 11
159.84
 21
12.545
  0
LINE
  8
0
 10
159.84
 20
12.545
 11
160.16
 21
12.545
  0
LINE
  8
0
 10
160.16
 20
12.545
 11
160.478
 21
12.5048
  0
LINE
  8
0
 10
160.478
 20
12.5048
 11
160.788
 21
12.4252
  0
LINE
  8
0
 10
160.788
 20
12.4252
 11
161.086
 21
12.3073
  0
LINE
  8
0
 10
161.086
 20
12.3073
 11
161.366
 21
12.153
  0
LINE
  8
0
 10
161.366
 20
12.153
 11
161.625
 21
11.9648
  0
LINE
  8
0
 10
161.625
 20
11.9648
 11
161.859
 21
11.7456
  0
LINE
  8
0
 10
161.859
 20
11.7456
 11
162.063
 21
11.4988
  0
LINE
  8
0
 10
162.063
 20
11.4988
 11
162.235
 21
11.2285
  0
LINE
  8
0
 10
162.235
 20
11.2285
 11
162.371
 21
10.9387
  0
LINE
  8
0
 10
162.371
 20
10.9387
 11
162.47
 21
10.6342
  0
LINE
  8
0
 10
162.47
 20
10.6342
 11
162.53
 21
10.3196
  0
LINE
  8
0
 10
162.53
 20
10.3196
 11
162.55
 21
10
  0
LINE
  8
0
 10
162.55
 20
10
 11
162.53
 21
9.68039
  0
LINE
  8
0
 10
162.53
 20
9.68039
 11
162.47
 21
9.36583
  0
LINE
  8
0
 10
162.47
 20
9.36583
 11
162.371
 21
9.06128
  0
LINE
  8
0
 10
162.371
 20
9.06128
 11
162.235
 21
8.77151
  0
LINE
  8
0
 10
162.235
 20
8.77151
 11
162.063
 21
8.50114
  0
LINE
  8
0
 10
162.063
 20
8.50114
 11
161.859
 21
8.25439
  0
LINE
  8
0
 10
161.859
 20
8.25439
 11
161.625
 21
8.03519
  0
LINE
  8
0
 10
161.625
 20
8.03519
 11
161.366
 21
7.84695
  0
LINE
  8
0
 10
161.366
 20
7.84695
 11
161.086
 21
7.69269
  0
LINE
  8
0
 10
161.086
 20
7.69269
 11
160.788
 21
7.5748
  0
LINE
  8
0
 10
160.788
 20
7.5748
 11
160.478
 21
7.49516
  0
LINE
  8
0
 10
160.478
 20
7.49516
 11
160.16
 21
7.45502
  0
LINE
  8
0
 10
160.16
 20
7.45502
 11
159.84
 21
7.45502
  0
LINE
  8
0
 10
109.868
 20
2.90413
 11
109.606
 21
2.93719
  0
LINE
  8
0
 10
109.606
 20
2.93719
 11
109.351
 21
3.00278
  0
LINE
  8
0
 10
109.351
 20
3.00278
 11
109.106
 21
3.09985
  0
LINE
  8
0
 10
109.106
 20
3.09985
 11
108.875
 21
3.2269
  0
LINE
  8
0
 10
108.875
 20
3.2269
 11
108.661
 21
3.38191
  0
LINE
  8
0
 10
108.661
 20
3.38191
 11
108.469
 21
3.56244
  0
LINE
  8
0
 10
108.469
 20
3.56244
 11
108.301
 21
3.76564
  0
LINE
  8
0
 10
108.301
 20
3.76564
 11
108.16
 21
3.98831
  0
LINE
  8
0
 10
108.16
 20
3.98831
 11
108.047
 21
4.22693
  0
LINE
  8
0
 10
108.047
 20
4.22693
 11
107.966
 21
4.47774
  0
LINE
  8
0
 10
107.966
 20
4.47774
 11
107.917
 21
4.73679
  0
LINE
  8
0
 10
107.917
 20
4.73679
 11
107.9
 21
5
  0
LINE
  8
0
 10
107.9
 20
5
 11
107.917
 21
5.2632
  0
LINE
  8
0
 10
107.917
 20
5.2632
 11
107.966
 21
5.52225
  0
LINE
  8
0
 10
107.966
 20
5.52225
 11
108.047
 21
5.77306
  0
LINE
  8
0
 10
108.047
 20
5.77306
 11
108.16
 21
6.01167
  0
LINE
  8
0
 10
108.16
 20
6.01167
 11
108.301
 21
6.23434
  0
LINE
  8
0
 10
108.301
 20
6.23434
 11
108.469
 21
6.43755
  0
LINE
  8
0
 10
108.469
 20
6.43755
 11
108.661
 21
6.61807
  0
LINE
  8
0
 10
108.661
 20
6.61807
 11
108.875
 21
6.77309
  0
LINE
  8
0
 10
108.875
 20
6.77309
 11
109.106
 21
6.90013
  0
LINE
  8
0
 10
109.106
 20
6.90013
 11
109.351
 21
6.99721
  0
LINE
  8
0
 10
109.351
 20
6.99721
 11
109.606
 21
7.06279
  0
LINE
  8
0
 10
109.606
 20
7.06279
 11
109.868
 21
7.09586
  0
LINE
  8
0
 10
109.868
 20
7.09586
 11
110.132
 21
7.09586
  0
LINE
  8
0
 10
110.132
 20
7.09586
 11
110.393
 21
7.06279
  0
LINE
  8
0
 10
110.393
 20
7.06279
 11
110.649
 21
6.99721
  0
LINE
  8
0
 10
110.649
 20
6.99721
 11
110.894
 21
6.90013
  0
LINE
  8
0
 10
110.894
 20
6.90013
 11
111.125
 21
6.77309
  0
LINE
  8
0
 10
111.125
 20
6.77309
 11
111.339
 21
6.61807
  0
LINE
  8
0
 10
111.339
 20
6.61807
 11
111.531
 21
6.43755
  0
LINE
  8
0
 10
111.531
 20
6.43755
 11
111.699
 21
6.23434
  0
LINE
  8
0
 10
111.699
 20
6.23434
 11
111.84
 21
6.01167
  0
LINE
  8
0
 10
111.84
 20
6.01167
 11
111.953
 21
5.77306
  0
LINE
  8
0
 10
111.953
 20
5.77306
 11
112.034
 21
5.52225
  0
LINE
  8
0
 10
112.034
 20
5.52225
 11
112.083
 21
5.2632
  0
LINE
  8
0
 10
112.083
 20
5.2632
 11
112.1
 21
5
  0
LINE
  8
0
 10
112.1
 20
5
 11
112.083
 21
4.73679
  0
LINE
  8
0
 10
112.083
 20
4.73679
 11
112.034
 21
4.47774
  0
LINE
  8
0
 10
112.034
 20
4.47774
 11
111.953
 21
4.22693
  0
LINE
  8
0
 10
111.953
 20
4.22693
 11
111.84
 21
3.98831
  0
LINE
  8
0
 10
111.84
 20
3.98831
 11
111.699
 21
3.76564
  0
LINE
  8
0
 10
111.699
 20
3.76564
 11
111.531
 21
3.56244
  0
LINE
  8
0
 10
111.531
 20
3.56244
 11
111.339
 21
3.38191
  0
LINE
  8
0
 10
111.339
 20
3.38191
 11
111.125
 21
3.2269
  0
LINE
  8
0
 10
111.125
 20
3.2269
 11
110.894
 21
3.09985
  0
LINE
  8
0
 10
110.894
 20
3.09985
 11
110.649
 21
3.00278
  0
LINE
  8
0
 10
110.649
 20
3.00278
 11
110.393
 21
2.93719
  0
LINE
  8
0
 10
110.393
 20
2.93719
 11
110.132
 21
2.90413
  0
LINE
  8
0
 10
110.132
 20
2.90413
 11
109.868
 21
2.90413
  0
LINE
  8
0
 10
60
 20
25
 11
0
 21
25
  0
LINE
  8
0
 10
0
 20
25
 11
0
 21
0
  0
LINE
  8
0
 10
0
 20
0
 11
60
 21
0
  0
LINE
  8
0
 10
60
 20
0
 11
60
 21
25
  0
LINE
  8
0
 10
10
 20
2.5
 11
10
 21
11.75
  0
LINE
  8
0
 10
10
 20
11.75
 11
4
 21
11.75
  0
LINE
  8
0
 10
4
 20
11.75
 11
4
 21
13.25
  0
LINE
  8
0
 10
4
 20
13.25
 11
10
 21
13.25
  0
LINE
  8
0
 10
10
 20
13.25
 11
10
 21
22.5
  0
LINE
  8
0
 10
10
 20
22.5
 11
50
 21
22.5
  0
LINE
  8
0
 10
50
 20
22.5
 11
50
 21
13.25
  0
LINE
  8
0
 10
50
 20
13.25
 11
56
 21
13.25
  0
LINE
  8
0
 10
56
 20
13.25
 11
56
 21
11.75
  0
LINE
  8
0
 10
56
 20
11.75
 11
50
 21
11.75
  0
LINE
  8
0
 10
50
 20
11.75
 11
50
 21
2.5
  0
LINE
  8
0
 10
50
 20
2.5
 11
10
 21
2.5
  0
LINE
  8
0
 10
4.86813
 20
15.4041
 11
4.60649
 21
15.4372
  0
LINE
  8
0
 10
4.60649
 20
15.4372
 11
4.35106
 21
15.5028
  0
LINE
  8
0
 10
4.35106
 20
15.5028
 11
4.10585
 21
15.5999
  0
LINE
  8
0
 10
4.10585
 20
15.5999
 11
3.87476
 21
15.7269
  0
LINE
  8
0
 10
3.87476
 20
15.7269
 11
3.66141
 21
15.8819
  0
LINE
  8
0
 10
3.66141
 20
15.8819
 11
3.46916
 21
16.0624
  0
LINE
  8
0
 10
3.46916
 20
16.0624
 11
3.30106
 21
16.2656
  0
LINE
  8
0
 10
3.30106
 20
16.2656
 11
3.15974
 21
16.4883
  0
LINE
  8
0
 10
3.15974
 20
16.4883
 11
3.04745
 21
16.7269
  0
LINE
  8
0
 10
3.04745
 20
16.7269
 11
2.96597
 21
16.9777
  0
LINE
  8
0
 10
2.96597
 20
16.9777
 11
2.91655
 21
17.2368
  0
LINE
  8
0
 10
2.91655
 20
17.2368
 11
2.89999
 21
17.5
  0
LINE
  8
0
 10
2.89999
 20
17.5
 11
2.91655
 21
17.7632
  0
LINE
  8
0
 10
2.91655
 20
17.7632
 11
2.96597
 21
18.0222
  0
LINE
  8
0
 10
2.96597
 20
18.0222
 11
3.04745
 21
18.2731
  0
LINE
  8
0
 10
3.04745
 20
18.2731
 11
3.15974
 21
18.5117
  0
LINE
  8
0
 10
3.15974
 20
18.5117
 11
3.30106
 21
18.7343
  0
LINE
  8
0
 10
3.30106
 20
18.7343
 11
3.46916
 21
18.9375
  0
LINE
  8
0
 10
3.46916
 20
18.9375
 11
3.66141
 21
19.1181
  0
LINE
  8
0
 10
3.66141
 20
19.1181
 11
3.87476
 21
19.2731
  0
LINE
  8
0
 10
3.87476
 20
19.2731
 11
4.10585
 21
19.4001
  0
LINE
  8
0
 10
4.10585
 20
19.4001
 11
4.35106
 21
19.4972
  0
LINE
  8
0
 10
4.35106
 20
19.4972
 11
4.60649
 21
19.5628
  0
LINE
  8
0
 10
4.60649
 20
19.5628
 11
4.86813
 21
19.5959
  0
LINE
  8
0
 10
4.86813
 20
19.5959
 11
5.13185
 21
19.5959
  0
LINE
  8
0
 10
5.13185
 20
19.5959
 11
5.39349
 21
19.5628
  0
LINE
  8
0
 10
5.39349
 20
19.5628
 11
5.64893
 21
19.4972
  0
LINE
  8
0
 10
5.64893
 20
19.4972
 11
5.89413
 21
19.4001
  0
LINE
  8
0
 10
5.89413
 20
19.4001
 11
6.12523
 21
19.2731
  0
LINE
  8
0
 10
6.12523
 20
19.2731
 11
6.33858
 21
19.1181
  0
LINE
  8
0
 10
6.33858
 20
19.1181
 11
6.53082
 21
18.9375
  0
LINE
  8
0
 10
6.53082
 20
18.9375
 11
6.69893
 21
18.7343
  0
LINE
  8
0
 10
6.69893
 20
18.7343
 11
6.84024
 21
18.5117
  0
LINE
  8
0
 10
6.84024
 20
18.5117
 11
6.95253
 21
18.2731
  0
LINE
  8
0
 10
6.95253
 20
18.2731
 11
7.03401
 21
18.0222
  0
LINE
  8
0
 10
7.03401
 20
18.0222
 11
7.08344
 21
17.7632
  0
LINE
  8
0
 10
7.08344
 20
17.7632
 11
7.09999
 21
17.5
  0
LINE
  8
0
 10
7.09999
 20
17.5
 11
7.08344
 21
17.2368
  0
LINE
  8
0
 10
7.08344
 20
17.2368
 11
7.03401
 21
16.9777
  0
LINE
  8
0
 10
7.03401
 20
16.9777
 11
6.95253
 21
16.7269
  0
LINE
  8
0
 10
6.95253
 20
16.7269
 11
6.84024
 21
16.4883
  0
LINE
  8
0
 10
6.84024
 20
16.4883
 11
6.69893
 21
16.2656
  0
LINE
  8
0
 10
6.69893
 20
16.2656
 11
6.53082
 21
16.0624
  0
LINE
  8
0
 10
6.53082
 20
16.0624
 11
6.33858
 21
15.8819
  0
LINE
  8
0
 10
6.33858
 20
15.8819
 11
6.12523
 21
15.7269
  0
LINE
  8
0
 10
6.12523
 20
15.7269
 11
5.89413
 21
15.5999
  0
LINE
  8
0
 10
5.89413
 20
15.5999
 11
5.64893
 21
15.5028
  0
LINE
  8
0
 10
5.64893
 20
15.5028
 11
5.39349
 21
15.4372
  0
LINE
  8
0
 10
5.39349
 20
15.4372
 11
5.13185
 21
15.4041
  0
LINE
  8
0
 10
5.13185
 20
15.4041
 11
4.86813
 21
15.4041
  0
LINE
  8
0
 10
54.8681
 20
15.4041
 11
54.6065
 21
15.4372
  0
LINE
  8
0
 10
54.6065
 20
15.4372
 11
54.3511
 21
15.5028
  0
LINE
  8
0
 10
54.3511
 20
15.5028
 11
54.1059
 21
15.5999
  0
LINE
  8
0
 10
54.1059
 20
15.5999
 11
53.8748
 21
15.7269
  0
LINE
  8
0
 10
53.8748
 20
15.7269
 11
53.6614
 21
15.8819
  0
LINE
  8
0
 10
53.6614
 20
15.8819
 11
53.4692
 21
16.0624
  0
LINE
  8
0
 10
53.4692
 20
16.0624
 11
53.3011
 21
16.2656
  0
LINE
  8
0
 10
53.3011
 20
16.2656
 11
53.1597
 21
16.4883
  0
LINE
  8
0
 10
53.1597
 20
16.4883
 11
53.0475
 21
16.7269
  0
LINE
  8
0
 10
53.0475
 20
16.7269
 11
52.966
 21
16.9777
  0
LINE
  8
0
 10
52.966
 20
16.9777
 11
52.9165
 21
17.2368
  0
LINE
  8
0
 10
52.9165
 20
17.2368
 11
52.9
 21
17.5
  0
LINE
  8
0
 10
52.9
 20
17.5
 11
52.9165
 21
17.7632
  0
LINE
  8
0
 10
52.9165
 20
17.7632
 11
52.966
 21
18.0222
  0
LINE
  8
0
 10
52.966
 20
18.0222
 11
53.0475
 21
18.2731
  0
LINE
  8
0
 10
53.0475
 20
18.2731
 11
53.1597
 21
18.5117
  0
LINE
  8
0
 10
53.1597
 20
18.5117
 11
53.3011
 21
18.7343
  0
LINE
  8
0
 10
53.3011
 20
18.7343
 11
53.4692
 21
18.9375
  0
LINE
  8
0
 10
53.4692
 20
18.9375
 11
53.6614
 21
19.1181
  0
LINE
  8
0
 10
53.6614
 20
19.1181
 11
53.8748
 21
19.2731
  0
LINE
  8
0
 10
53.8748
 20
19.2731
 11
54.1059
 21
19.4001
  0
LINE
  8
0
 10
54.1059
 20
19.4001
 11
54.3511
 21
19.4972
  0
LINE
  8
0
 10
54.3511
 20
19.4972
 11
54.6065
 21
19.5628
  0
LINE
  8
0
 10
54.6065
 20
19.5628
 11
54.8681
 21
19.5959
  0
LINE
  8
0
 10
54.8681
 20
19.5959
 11
55.1319
 21
19.5959
  0
LINE
  8
0
 10
55.1319
 20
19.5959
 11
55.3935
 21
19.5628
  0
LINE
  8
0
 10
55.3935
 20
19.5628
 11
55.6489
 21
19.4972
  0
LINE
  8
0
 10
55.6489
 20
19.4972
 11
55.8941
 21
19.4001
  0
LINE
  8
0
 10
55.8941
 20
19.4001
 11
56.1252
 21
19.2731
  0
LINE
  8
0
 10
56.1252
 20
19.2731
 11
56.3386
 21
19.1181
  0
LINE
  8
0
 10
56.3386
 20
19.1181
 11
56.5308
 21
18.9375
  0
LINE
  8
0
 10
56.5308
 20
18.9375
 11
56.6989
 21
18.7343
  0
LINE
  8
0
 10
56.6989
 20
18.7343
 11
56.8402
 21
18.5117
  0
LINE
  8
0
 10
56.8402
 20
18.5117
 11
56.9525
 21
18.2731
  0
LINE
  8
0
 10
56.9525
 20
18.2731
 11
57.034
 21
18.0222
  0
LINE
  8
0
 10
57.034
 20
18.0222
 11
57.0834
 21
17.7632
  0
LINE
  8
0
 10
57.0834
 20
17.7632
 11
57.1
 21
17.5
  0
LINE
  8
0
 10
57.1
 20
17.5
 11
57.0834
 21
17.2368
  0
LINE
  8
0
 10
57.0834
 20
17.2368
 11
57.034
 21
16.9777
  0
LINE
  8
0
 10
57.034
 20
16.9777
 11
56.9525
 21
16.7269
  0
LINE
  8
0
 10
56.9525
 20
16.7269
 11
56.8402
 21
16.4883
  0
LINE
  8
0
 10
56.8402
 20
16.4883
 11
56.6989
 21
16.2656
  0
LINE
  8
0
 10
56.6989
 20
16.2656
 11
56.5308
 21
16.0624
  0
LINE
  8
0
 10
56.5308
 20
16.0624
 11
56.3386
 21
15.8819
  0
LINE
  8
0
 10
56.3386
 20
15.8819
 11
56.1252
 21
15.7269
  0
LINE
  8
0
 10
56.1252
 20
15.7269
 11
55.8941
 21
15.5999
  0
LINE
  8
0
 10
55.8941
 20
15.5999
 11
55.6489
 21
15.5028
  0
LINE
  8
0
 10
55.6489
 20
15.5028
 11
55.3935
 21
15.4372
  0
LINE
  8
0
 10
55.3935
 20
15.4372
 11
55.1319
 21
15.4041
  0
LINE
  8
0
 10
55.1319
 20
15.4041
 11
54.8681
 21
15.4041
  0
LINE
  8
0
 10
4.86813
 20
5.40413
 11
4.60649
 21
5.43719
  0
LINE
  8
0
 10
4.60649
 20
5.43719
 11
4.35106
 21
5.50278
  0
LINE
  8
0
 10
4.35106
 20
5.50278
 11
4.10585
 21
5.59985
  0
LINE
  8
0
 10
4.10585
 20
5.59985
 11
3.87476
 21
5.7269
  0
LINE
  8
0
 10
3.87476
 20
5.7269
 11
3.66141
 21
5.88191
  0
LINE
  8
0
 10
3.66141
 20
5.88191
 11
3.46916
 21
6.06244
  0
LINE
  8
0
 10
3.46916
 20
6.06244
 11
3.30106
 21
6.26564
  0
LINE
  8
0
 10
3.30106
 20
6.26564
 11
3.15974
 21
6.48831
  0
LINE
  8
0
 10
3.15974
 20
6.48831
 11
3.04745
 21
6.72693
  0
LINE
  8
0
 10
3.04745
 20
6.72693
 11
2.96597
 21
6.97774
  0
LINE
  8
0
 10
2.96597
 20
6.97774
 11
2.91655
 21
7.23679
  0
LINE
  8
0
 10
2.91655
 20
7.23679
 11
2.89999
 21
7.5
  0
LINE
  8
0
 10
2.89999
 20
7.5
 11
2.91655
 21
7.7632
  0
LINE
  8
0
 10
2.91655
 20
7.7632
 11
2.96597
 21
8.02225
  0
LINE
  8
0
 10
2.96597
 20
8.02225
 11
3.04745
 21
8.27306
  0
LINE
  8
0
 10
3.04745
 20
8.27306
 11
3.15974
 21
8.51167
  0
LINE
  8
0
 10
3.15974
 20
8.51167
 11
3.30106
 21
8.73434
  0
LINE
  8
0
 10
3.30106
 20
8.73434
 11
3.46916
 21
8.93755
  0
LINE
  8
0
 10
3.46916
 20
8.93755
 11
3.66141
 21
9.11807
  0
LINE
  8
0
 10
3.66141
 20
9.11807
 11
3.87476
 21
9.27309
  0
LINE
  8
0
 10
3.87476
 20
9.27309
 11
4.10585
 21
9.40013
  0
LINE
  8
0
 10
4.10585
 20
9.40013
 11
4.35106
 21
9.49721
  0
LINE
  8
0
 10
4.35106
 20
9.49721
 11
4.60649
 21
9.56279
  0
LINE
  8
0
 10
4.60649
 20
9.56279
 11
4.86813
 21
9.59586
  0
LINE
  8
0
 10
4.86813
 20
9.59586
 11
5.13185
 21
9.59586
  0
LINE
  8
0
 10
5.13185
 20
9.59586
 11
5.39349
 21
9.56279
  0
LINE
  8
0
 10
5.39349
 20
9.56279
 11
5.64893
 21
9.49721
  0
LINE
  8
0
 10
5.64893
 20
9.49721
 11
5.89413
 21
9.40013
  0
LINE
  8
0
 10
5.89413
 20
9.40013
 11
6.12523
 21
9.27309
  0
LINE
  8
0
 10
6.12523
 20
9.27309
 11
6.33858
 21
9.11807
  0
LINE
  8
0
 10
6.33858
 20
9.11807
 11
6.53082
 21
8.93755
  0
LINE
  8
0
 10
6.53082
 20
8.93755
 11
6.69893
 21
8.73434
  0
LINE
  8
0
 10
6.69893
 20
8.73434
 11
6.84024
 21
8.51167
  0
LINE
  8
0
 10
6.84024
 20
8.51167
 11
6.95253
 21
8.27306
  0
LINE
  8
0
 10
6.95253
 20
8.27306
 11
7.03401
 21
8.02225
  0
LINE
  8
0
 10
7.03401
 20
8.02225
 11
7.08344
 21
7.7632
  0
LINE
  8
0
 10
7.08344
 20
7.7632
 11
7.09999
 21
7.5
  0
LINE
  8
0
 10
7.09999
 20
7.5
 11
7.08344
 21
7.23679
  0
LINE
  8
0
 10
7.08344
 20
7.23679
 11
7.03401
 21
6.97774
  0
LINE
  8
0
 10
7.03401
 20
6.97774
 11
6.95253
 21
6.72693
  0
LINE
  8
0
 10
6.95253
 20
6.72693
 11
6.84024
 21
6.48831
  0
LINE
  8
0
 10
6.84024
 20
6.48831
 11
6.69893
 21
6.26564
  0
LINE
  8
0
 10
6.69893
 20
6.26564
 11
6.53082
 21
6.06244
  0
LINE
  8
0
 10
6.53082
 20
6.06244
 11
6.33858
 21
5.88191
  0
LINE
  8
0
 10
6.33858
 20
5.88191
 11
6.12523
 21
5.7269
  0
LINE
  8
0
 10
6.12523
 20
5.7269
 11
5.89413
 21
5.59985
  0
LINE
  8
0
 10
5.89413
 20
5.59985
 11
5.64893
 21
5.50278
  0
LINE
  8
0
 10
5.64893
 20
5.50278
 11
5.39349
 21
5.43719
  0
LINE
  8
0
 10
5.39349
 20
5.43719
 11
5.13185
 21
5.40413
  0
LINE
  8
0
 10
5.13185
 20
5.40413
 11
4.86813
 21
5.40413
  0
LINE
  8
0
 10
54.8681
 20
5.40413
 11
54.6065
 21
5.43719
  0
LINE
  8
0
 10
54.6065
 20
5.43719
 11
54.3511
 21
5.50278
  0
LINE
  8
0
 10
54.3511
 20
5.50278
 11
54.1059
 21
5.59985
  0
LINE
  8
0
 10
54.1059
 20
5.59985
 11
53.8748
 21
5.7269
  0
LINE
  8
0
 10
53.8748
 20
5.7269
 11
53.6614
 21
5.88191
  0
LINE
  8
0
 10
53.6614
 20
5.88191
 11
53.4692
 21
6.06244
  0
LINE
  8
0
 10
53.4692
 20
6.06244
 11
53.3011
 21
6.26564
  0
LINE
  8
0
 10
53.3011
 20
6.26564
 11
53.1597
 21
6.48831
  0
LINE
  8
0
 10
53.1597
 20
6.48831
 11
53.0475
 21
6.72693
  0
LINE
  8
0
 10
53.0475
 20
6.72693
 11
52.966
 21
6.97774
  0
LINE
  8
0
 10
52.966
 20
6.97774
 11
52.9165
 21
7.23679
  0
LINE
  8
0
 10
52.9165
 20
7.23679
 11
52.9
 21
7.5
  0
LINE
  8
0
 10
52.9
 20
7.5
 11
52.9165
 21
7.7632
  0
LINE
  8
0
 10
52.9165
 20
7.7632
 11
52.966
 21
8.02225
  0
LINE
  8
0
 10
52.966
 20
8.02225
 11
53.0475
 21
8.27306
  0
LINE
  8
0
 10
53.0475
 20
8.27306
 11
53.1597
 21
8.51167
  0
LINE
  8
0
 10
53.1597
 20
8.51167
 11
53.3011
 21
8.73434
  0
LINE
  8
0
 10
53.3011
 20
8.73434
 11
53.4692
 21
8.93755
  0
LINE
  8
0
 10
53.4692
 20
8.93755
 11
53.6614
 21
9.11807
  0
LINE
  8
0
 10
53.6614
 20
9.11807
 11
53.8748
 21
9.27309
  0
LINE
  8
0
 10
53.8748
 20
9.27309
 11
54.1059
 21
9.40013
  0
LINE
  8
0
 10
54.1059
 20
9.40013
 11
54.3511
 21
9.49721
  0
LINE
  8
0
 10
54.3511
 20
9.49721
 11
54.6065
 21
9.56279
  0
LINE
  8
0
 10
54.6065
 20
9.56279
 11
54.8681
 21
9.59586
  0
LINE
  8
0
 10
54.8681
 20
9.59586
 11
55.1319
 21
9.59586
  0
LINE
  8
0
 10
55.1319
 20
9.59586
 11
55.3935
 21
9.56279
  0
LINE
  8
0
 10
55.3935
 20
9.56279
 11
55.6489
 21
9.49721
  0
LINE
  8
0
 10
55.6489
 20
9.49721
 11
55.8941
 21
9.40013
  0
LINE
  8
0
 10
55.8941
 20
9.40013
 11
56.1252
 21
9.27309
  0
LINE
  8
0
 10
56.1252
 20
9.27309
 11
56.3386
 21
9.11807
  0
LINE
  8
0
 10
56.3386
 20
9.11807
 11
56.5308
 21
8.93755
  0
LINE
  8
0
 10
56.5308
 20
8.93755
 11
56.6989
 21
8.73434
  0
LINE
  8
0
 10
56.6989
 20
8.73434
 11
56.8402
 21
8.51167
  0
LINE
  8
0
 10
56.8402
 20
8.51167
 11
56.9525
 21
8.27306
  0
LINE
  8
0
 10
56.9525
 20
8.27306
 11
57.034
 21
8.02225
  0
LINE
  8
0
 10
57.034
 20
8.02225
 11
57.0834
 21
7.7632
  0
LINE
  8
0
 10
57.0834
 20
7.7632
 11
57.1
 21
7.5
  0
LINE
  8
0
 10
57.1
 20
7.5
 11
57.0834
 21
7.23679
  0
LINE
  8
0
 10
57.0834
 20
7.23679
 11
57.034
 21
6.97774
  0
LINE
  8
0
 10
57.034
 20
6.97774
 11
56.9525
 21
6.72693
  0
LINE
  8
0
 10
56.9525
 20
6.72693
 11
56.8402
 21
6.48831
  0
LINE
  8
0
 10
56.8402
 20
6.48831
 11
56.6989
 21
6.26564
  0
LINE
  8
0
 10
56.6989
 20
6.26564
 11
56.5308
 21
6.06244
  0
LINE
  8
0
 10
56.5308
 20
6.06244
 11
56.3386
 21
5.88191
  0
LINE
  8
0
 10
56.3386
 20
5.88191
 11
56.1252
 21
5.7269
  0
LINE
  8
0
 10
56.1252
 20
5.7269
 11
55.8941
 21
5.59985
  0
LINE
  8
0
 10
55.8941
 20
5.59985
 11
55.6489
 21
5.50278
  0
LINE
  8
0
 10
55.6489
 20
5.50278
 11
55.3935
 21
5.43719
  0
LINE
  8
0
 10
55.3935
 20
5.43719
 11
55.1319
 21
5.40413
  0
LINE
  8
0
 10
55.1319
 20
5.40413
 11
54.8681
 21
5.40413
  0
ENDSEC
  0
SECTION
  2
OBJECTS
  0
DICTIONARY
  0
ENDSEC
  0
EOF
