  0
SECTION
  2
BLOCKS
  0
ENDSEC
  0
SECTION
  2
ENTITIES
  0
LINE
  8
0
 10
0
 11
0
 20
5
 21
41.35
  0
LINE
  8
0
 10
0
 11
5
 20
41.35
 21
41.35
  0
LINE
  8
0
 10
5
 11
5
 20
41.35
 21
46.35
  0
LINE
  8
0
 10
5
 11
10
 20
46.35
 21
46.35
  0
LINE
  8
0
 10
10
 11
10
 20
46.35
 21
41.35
  0
LINE
  8
0
 10
10
 11
15
 20
41.35
 21
41.35
  0
LINE
  8
0
 10
15
 11
15
 20
41.35
 21
5
  0
LINE
  8
0
 10
15
 11
10
 20
5
 21
5
  0
LINE
  8
0
 10
10
 11
10
 20
5
 21
0
  0
LINE
  8
0
 10
10
 11
5
 20
0
 21
0
  0
LINE
  8
0
 10
5
 11
5
 20
0
 21
5
  0
LINE
  8
0
 10
5
 11
0
 20
5
 21
5
  0
LINE
  8
0
 10
0
 11
0
 20
50
 21
65
  0
LINE
  8
0
 10
0
 11
10
 20
65
 21
65
  0
LINE
  8
0
 10
10
 11
10
 20
65
 21
70
  0
LINE
  8
0
 10
10
 11
0
 20
70
 21
70
  0
LINE
  8
0
 10
0
 11
0
 20
70
 21
76.35
  0
LINE
  8
0
 10
0
 11
10
 20
76.35
 21
76.35
  0
LINE
  8
0
 10
10
 11
10
 20
76.35
 21
81.35
  0
LINE
  8
0
 10
10
 11
0
 20
81.35
 21
81.35
  0
LINE
  8
0
 10
0
 11
0
 20
81.35
 21
96.35
  0
LINE
  8
0
 10
0
 11
20
 20
96.35
 21
96.35
  0
LINE
  8
0
 10
20
 11
20
 20
96.35
 21
91.35
  0
LINE
  8
0
 10
20
 11
15
 20
91.35
 21
91.35
  0
LINE
  8
0
 10
15
 11
15
 20
91.35
 21
55
  0
LINE
  8
0
 10
15
 11
20
 20
55
 21
55
  0
LINE
  8
0
 10
20
 11
20
 20
55
 21
50
  0
LINE
  8
0
 10
20
 11
0
 20
50
 21
50
  0
LINE
  8
0
 10
0
 11
0
 20
100
 21
115
  0
LINE
  8
0
 10
0
 11
10
 20
115
 21
115
  0
LINE
  8
0
 10
10
 11
10
 20
115
 21
120
  0
LINE
  8
0
 10
10
 11
0
 20
120
 21
120
  0
LINE
  8
0
 10
0
 11
0
 20
120
 21
126.35
  0
LINE
  8
0
 10
0
 11
10
 20
126.35
 21
126.35
  0
LINE
  8
0
 10
10
 11
10
 20
126.35
 21
131.35
  0
LINE
  8
0
 10
10
 11
0
 20
131.35
 21
131.35
  0
LINE
  8
0
 10
0
 11
0
 20
131.35
 21
146.35
  0
LINE
  8
0
 10
0
 11
20
 20
146.35
 21
146.35
  0
LINE
  8
0
 10
20
 11
20
 20
146.35
 21
141.35
  0
LINE
  8
0
 10
20
 11
15
 20
141.35
 21
141.35
  0
LINE
  8
0
 10
15
 11
15
 20
141.35
 21
105
  0
LINE
  8
0
 10
15
 11
20
 20
105
 21
105
  0
LINE
  8
0
 10
20
 11
20
 20
105
 21
100
  0
LINE
  8
0
 10
20
 11
0
 20
100
 21
100
  0
LINE
  8
0
 10
5.75
 11
5.836
 20
10
 21
10.541
  0
LINE
  8
0
 10
5.836
 11
6.084
 20
10.541
 21
11.029
  0
LINE
  8
0
 10
6.084
 11
6.471
 20
11.029
 21
11.416
  0
LINE
  8
0
 10
6.471
 11
6.959
 20
11.416
 21
11.664
  0
LINE
  8
0
 10
6.959
 11
7.5
 20
11.664
 21
11.75
  0
LINE
  8
0
 10
7.5
 11
8.041
 20
11.75
 21
11.664
  0
LINE
  8
0
 10
8.041
 11
8.529
 20
11.664
 21
11.416
  0
LINE
  8
0
 10
8.529
 11
8.916
 20
11.416
 21
11.029
  0
LINE
  8
0
 10
8.916
 11
9.164
 20
11.029
 21
10.541
  0
LINE
  8
0
 10
9.164
 11
9.25
 20
10.541
 21
10
  0
LINE
  8
0
 10
9.25
 11
9.164
 20
10
 21
9.459
  0
LINE
  8
0
 10
9.164
 11
8.916
 20
9.459
 21
8.971
  0
LINE
  8
0
 10
8.916
 11
8.529
 20
8.971
 21
8.584
  0
LINE
  8
0
 10
8.529
 11
8.041
 20
8.584
 21
8.336
  0
LINE
  8
0
 10
8.041
 11
7.5
 20
8.336
 21
8.25
  0
LINE
  8
0
 10
7.5
 11
6.959
 20
8.25
 21
8.336
  0
LINE
  8
0
 10
6.959
 11
6.471
 20
8.336
 21
8.584
  0
LINE
  8
0
 10
6.471
 11
6.084
 20
8.584
 21
8.971
  0
LINE
  8
0
 10
6.084
 11
5.836
 20
8.971
 21
9.459
  0
LINE
  8
0
 10
5.836
 11
5.75
 20
9.459
 21
10
  0
LINE
  8
0
 10
5.75
 11
5.836
 20
36.35
 21
36.891
  0
LINE
  8
0
 10
5.836
 11
6.084
 20
36.891
 21
37.379
  0
LINE
  8
0
 10
6.084
 11
6.471
 20
37.379
 21
37.766
  0
LINE
  8
0
 10
6.471
 11
6.959
 20
37.766
 21
38.014
  0
LINE
  8
0
 10
6.959
 11
7.5
 20
38.014
 21
38.1
  0
LINE
  8
0
 10
7.5
 11
8.041
 20
38.1
 21
38.014
  0
LINE
  8
0
 10
8.041
 11
8.529
 20
38.014
 21
37.766
  0
LINE
  8
0
 10
8.529
 11
8.916
 20
37.766
 21
37.379
  0
LINE
  8
0
 10
8.916
 11
9.164
 20
37.379
 21
36.891
  0
LINE
  8
0
 10
9.164
 11
9.25
 20
36.891
 21
36.35
  0
LINE
  8
0
 10
9.25
 11
9.164
 20
36.35
 21
35.809
  0
LINE
  8
0
 10
9.164
 11
8.916
 20
35.809
 21
35.321
  0
LINE
  8
0
 10
8.916
 11
8.529
 20
35.321
 21
34.934
  0
LINE
  8
0
 10
8.529
 11
8.041
 20
34.934
 21
34.686
  0
LINE
  8
0
 10
8.041
 11
7.5
 20
34.686
 21
34.6
  0
LINE
  8
0
 10
7.5
 11
6.959
 20
34.6
 21
34.686
  0
LINE
  8
0
 10
6.959
 11
6.471
 20
34.686
 21
34.934
  0
LINE
  8
0
 10
6.471
 11
6.084
 20
34.934
 21
35.321
  0
LINE
  8
0
 10
6.084
 11
5.836
 20
35.321
 21
35.809
  0
LINE
  8
0
 10
5.836
 11
5.75
 20
35.809
 21
36.35
  0
ENDSEC
  0
SECTION
  2
OBJECTS
  0
DICTIONARY
  0
ENDSEC
  0
EOF
