  0
SECTION
  2
BLOCKS
  0
ENDSEC
  0
SECTION
  2
ENTITIES
  0
LINE
  8
0
 10
-914.4
 11
-914.4
 20
0
 21
63.5
  0
LINE
  8
0
 10
-914.4
 11
0
 20
63.5
 21
63.5
  0
LINE
  8
0
 10
0
 11
0
 20
63.5
 21
0
  0
LINE
  8
0
 10
0
 11
-914.4
 20
0
 21
0
  0
LINE
  8
0
 10
-914.4
 11
-914.4
 20
68.58
 21
132.08
  0
LINE
  8
0
 10
-914.4
 11
0
 20
132.08
 21
132.08
  0
LINE
  8
0
 10
0
 11
0
 20
132.08
 21
68.58
  0
LINE
  8
0
 10
0
 11
-914.4
 20
68.58
 21
68.58
  0
LINE
  8
0
 10
-883.8
 11
-883.8
 20
43.5
 21
53.5
  0
LINE
  8
0
 10
-883.8
 11
-878.8
 20
53.5
 21
53.5
  0
LINE
  8
0
 10
-878.8
 11
-878.8
 20
53.5
 21
48.5
  0
LINE
  8
0
 10
-878.8
 11
-873.8
 20
48.5
 21
48.5
  0
LINE
  8
0
 10
-873.8
 11
-873.8
 20
48.5
 21
53.5
  0
LINE
  8
0
 10
-873.8
 11
-868.8
 20
53.5
 21
53.5
  0
LINE
  8
0
 10
-868.8
 11
-868.8
 20
53.5
 21
43.5
  0
LINE
  8
0
 10
-868.8
 11
-883.8
 20
43.5
 21
43.5
  0
LINE
  8
0
 10
-883.8
 11
-883.8
 20
112.08
 21
122.08
  0
LINE
  8
0
 10
-883.8
 11
-878.8
 20
122.08
 21
122.08
  0
LINE
  8
0
 10
-878.8
 11
-878.8
 20
122.08
 21
117.08
  0
LINE
  8
0
 10
-878.8
 11
-873.8
 20
117.08
 21
117.08
  0
LINE
  8
0
 10
-873.8
 11
-873.8
 20
117.08
 21
122.08
  0
LINE
  8
0
 10
-873.8
 11
-868.8
 20
122.08
 21
122.08
  0
LINE
  8
0
 10
-868.8
 11
-868.8
 20
122.08
 21
112.08
  0
LINE
  8
0
 10
-868.8
 11
-883.8
 20
112.08
 21
112.08
  0
LINE
  8
0
 10
-878.05
 11
-877.964
 20
12.7
 21
13.241
  0
LINE
  8
0
 10
-877.964
 11
-877.716
 20
13.241
 21
13.729
  0
LINE
  8
0
 10
-877.716
 11
-877.329
 20
13.729
 21
14.116
  0
LINE
  8
0
 10
-877.329
 11
-876.841
 20
14.116
 21
14.364
  0
LINE
  8
0
 10
-876.841
 11
-876.3
 20
14.364
 21
14.45
  0
LINE
  8
0
 10
-876.3
 11
-875.759
 20
14.45
 21
14.364
  0
LINE
  8
0
 10
-875.759
 11
-875.271
 20
14.364
 21
14.116
  0
LINE
  8
0
 10
-875.271
 11
-874.884
 20
14.116
 21
13.729
  0
LINE
  8
0
 10
-874.884
 11
-874.636
 20
13.729
 21
13.241
  0
LINE
  8
0
 10
-874.636
 11
-874.55
 20
13.241
 21
12.7
  0
LINE
  8
0
 10
-874.55
 11
-874.636
 20
12.7
 21
12.159
  0
LINE
  8
0
 10
-874.636
 11
-874.884
 20
12.159
 21
11.671
  0
LINE
  8
0
 10
-874.884
 11
-875.271
 20
11.671
 21
11.284
  0
LINE
  8
0
 10
-875.271
 11
-875.759
 20
11.284
 21
11.036
  0
LINE
  8
0
 10
-875.759
 11
-876.3
 20
11.036
 21
10.95
  0
LINE
  8
0
 10
-876.3
 11
-876.841
 20
10.95
 21
11.036
  0
LINE
  8
0
 10
-876.841
 11
-877.329
 20
11.036
 21
11.284
  0
LINE
  8
0
 10
-877.329
 11
-877.716
 20
11.284
 21
11.671
  0
LINE
  8
0
 10
-877.716
 11
-877.964
 20
11.671
 21
12.159
  0
LINE
  8
0
 10
-877.964
 11
-878.05
 20
12.159
 21
12.7
  0
LINE
  8
0
 10
-878.05
 11
-877.964
 20
81.28
 21
81.821
  0
LINE
  8
0
 10
-877.964
 11
-877.716
 20
81.821
 21
82.309
  0
LINE
  8
0
 10
-877.716
 11
-877.329
 20
82.309
 21
82.696
  0
LINE
  8
0
 10
-877.329
 11
-876.841
 20
82.696
 21
82.944
  0
LINE
  8
0
 10
-876.841
 11
-876.3
 20
82.944
 21
83.03
  0
LINE
  8
0
 10
-876.3
 11
-875.759
 20
83.03
 21
82.944
  0
LINE
  8
0
 10
-875.759
 11
-875.271
 20
82.944
 21
82.696
  0
LINE
  8
0
 10
-875.271
 11
-874.884
 20
82.696
 21
82.309
  0
LINE
  8
0
 10
-874.884
 11
-874.636
 20
82.309
 21
81.821
  0
LINE
  8
0
 10
-874.636
 11
-874.55
 20
81.821
 21
81.28
  0
LINE
  8
0
 10
-874.55
 11
-874.636
 20
81.28
 21
80.739
  0
LINE
  8
0
 10
-874.636
 11
-874.884
 20
80.739
 21
80.251
  0
LINE
  8
0
 10
-874.884
 11
-875.271
 20
80.251
 21
79.864
  0
LINE
  8
0
 10
-875.271
 11
-875.759
 20
79.864
 21
79.616
  0
LINE
  8
0
 10
-875.759
 11
-876.3
 20
79.616
 21
79.53
  0
LINE
  8
0
 10
-876.3
 11
-876.841
 20
79.53
 21
79.616
  0
LINE
  8
0
 10
-876.841
 11
-877.329
 20
79.616
 21
79.864
  0
LINE
  8
0
 10
-877.329
 11
-877.716
 20
79.864
 21
80.251
  0
LINE
  8
0
 10
-877.716
 11
-877.964
 20
80.251
 21
80.739
  0
LINE
  8
0
 10
-877.964
 11
-878.05
 20
80.739
 21
81.28
  0
LINE
  8
0
 10
-807.6
 11
-807.6
 20
43.5
 21
53.5
  0
LINE
  8
0
 10
-807.6
 11
-802.6
 20
53.5
 21
53.5
  0
LINE
  8
0
 10
-802.6
 11
-802.6
 20
53.5
 21
48.5
  0
LINE
  8
0
 10
-802.6
 11
-797.6
 20
48.5
 21
48.5
  0
LINE
  8
0
 10
-797.6
 11
-797.6
 20
48.5
 21
53.5
  0
LINE
  8
0
 10
-797.6
 11
-792.6
 20
53.5
 21
53.5
  0
LINE
  8
0
 10
-792.6
 11
-792.6
 20
53.5
 21
43.5
  0
LINE
  8
0
 10
-792.6
 11
-807.6
 20
43.5
 21
43.5
  0
LINE
  8
0
 10
-807.6
 11
-807.6
 20
112.08
 21
122.08
  0
LINE
  8
0
 10
-807.6
 11
-802.6
 20
122.08
 21
122.08
  0
LINE
  8
0
 10
-802.6
 11
-802.6
 20
122.08
 21
117.08
  0
LINE
  8
0
 10
-802.6
 11
-797.6
 20
117.08
 21
117.08
  0
LINE
  8
0
 10
-797.6
 11
-797.6
 20
117.08
 21
122.08
  0
LINE
  8
0
 10
-797.6
 11
-792.6
 20
122.08
 21
122.08
  0
LINE
  8
0
 10
-792.6
 11
-792.6
 20
122.08
 21
112.08
  0
LINE
  8
0
 10
-792.6
 11
-807.6
 20
112.08
 21
112.08
  0
LINE
  8
0
 10
-801.85
 11
-801.764
 20
12.7
 21
13.241
  0
LINE
  8
0
 10
-801.764
 11
-801.516
 20
13.241
 21
13.729
  0
LINE
  8
0
 10
-801.516
 11
-801.129
 20
13.729
 21
14.116
  0
LINE
  8
0
 10
-801.129
 11
-800.641
 20
14.116
 21
14.364
  0
LINE
  8
0
 10
-800.641
 11
-800.1
 20
14.364
 21
14.45
  0
LINE
  8
0
 10
-800.1
 11
-799.559
 20
14.45
 21
14.364
  0
LINE
  8
0
 10
-799.559
 11
-799.071
 20
14.364
 21
14.116
  0
LINE
  8
0
 10
-799.071
 11
-798.684
 20
14.116
 21
13.729
  0
LINE
  8
0
 10
-798.684
 11
-798.436
 20
13.729
 21
13.241
  0
LINE
  8
0
 10
-798.436
 11
-798.35
 20
13.241
 21
12.7
  0
LINE
  8
0
 10
-798.35
 11
-798.436
 20
12.7
 21
12.159
  0
LINE
  8
0
 10
-798.436
 11
-798.684
 20
12.159
 21
11.671
  0
LINE
  8
0
 10
-798.684
 11
-799.071
 20
11.671
 21
11.284
  0
LINE
  8
0
 10
-799.071
 11
-799.559
 20
11.284
 21
11.036
  0
LINE
  8
0
 10
-799.559
 11
-800.1
 20
11.036
 21
10.95
  0
LINE
  8
0
 10
-800.1
 11
-800.641
 20
10.95
 21
11.036
  0
LINE
  8
0
 10
-800.641
 11
-801.129
 20
11.036
 21
11.284
  0
LINE
  8
0
 10
-801.129
 11
-801.516
 20
11.284
 21
11.671
  0
LINE
  8
0
 10
-801.516
 11
-801.764
 20
11.671
 21
12.159
  0
LINE
  8
0
 10
-801.764
 11
-801.85
 20
12.159
 21
12.7
  0
LINE
  8
0
 10
-801.85
 11
-801.764
 20
81.28
 21
81.821
  0
LINE
  8
0
 10
-801.764
 11
-801.516
 20
81.821
 21
82.309
  0
LINE
  8
0
 10
-801.516
 11
-801.129
 20
82.309
 21
82.696
  0
LINE
  8
0
 10
-801.129
 11
-800.641
 20
82.696
 21
82.944
  0
LINE
  8
0
 10
-800.641
 11
-800.1
 20
82.944
 21
83.03
  0
LINE
  8
0
 10
-800.1
 11
-799.559
 20
83.03
 21
82.944
  0
LINE
  8
0
 10
-799.559
 11
-799.071
 20
82.944
 21
82.696
  0
LINE
  8
0
 10
-799.071
 11
-798.684
 20
82.696
 21
82.309
  0
LINE
  8
0
 10
-798.684
 11
-798.436
 20
82.309
 21
81.821
  0
LINE
  8
0
 10
-798.436
 11
-798.35
 20
81.821
 21
81.28
  0
LINE
  8
0
 10
-798.35
 11
-798.436
 20
81.28
 21
80.739
  0
LINE
  8
0
 10
-798.436
 11
-798.684
 20
80.739
 21
80.251
  0
LINE
  8
0
 10
-798.684
 11
-799.071
 20
80.251
 21
79.864
  0
LINE
  8
0
 10
-799.071
 11
-799.559
 20
79.864
 21
79.616
  0
LINE
  8
0
 10
-799.559
 11
-800.1
 20
79.616
 21
79.53
  0
LINE
  8
0
 10
-800.1
 11
-800.641
 20
79.53
 21
79.616
  0
LINE
  8
0
 10
-800.641
 11
-801.129
 20
79.616
 21
79.864
  0
LINE
  8
0
 10
-801.129
 11
-801.516
 20
79.864
 21
80.251
  0
LINE
  8
0
 10
-801.516
 11
-801.764
 20
80.251
 21
80.739
  0
LINE
  8
0
 10
-801.764
 11
-801.85
 20
80.739
 21
81.28
  0
LINE
  8
0
 10
-731.4
 11
-731.4
 20
43.5
 21
53.5
  0
LINE
  8
0
 10
-731.4
 11
-726.4
 20
53.5
 21
53.5
  0
LINE
  8
0
 10
-726.4
 11
-726.4
 20
53.5
 21
48.5
  0
LINE
  8
0
 10
-726.4
 11
-721.4
 20
48.5
 21
48.5
  0
LINE
  8
0
 10
-721.4
 11
-721.4
 20
48.5
 21
53.5
  0
LINE
  8
0
 10
-721.4
 11
-716.4
 20
53.5
 21
53.5
  0
LINE
  8
0
 10
-716.4
 11
-716.4
 20
53.5
 21
43.5
  0
LINE
  8
0
 10
-716.4
 11
-731.4
 20
43.5
 21
43.5
  0
LINE
  8
0
 10
-731.4
 11
-731.4
 20
112.08
 21
122.08
  0
LINE
  8
0
 10
-731.4
 11
-726.4
 20
122.08
 21
122.08
  0
LINE
  8
0
 10
-726.4
 11
-726.4
 20
122.08
 21
117.08
  0
LINE
  8
0
 10
-726.4
 11
-721.4
 20
117.08
 21
117.08
  0
LINE
  8
0
 10
-721.4
 11
-721.4
 20
117.08
 21
122.08
  0
LINE
  8
0
 10
-721.4
 11
-716.4
 20
122.08
 21
122.08
  0
LINE
  8
0
 10
-716.4
 11
-716.4
 20
122.08
 21
112.08
  0
LINE
  8
0
 10
-716.4
 11
-731.4
 20
112.08
 21
112.08
  0
LINE
  8
0
 10
-725.65
 11
-725.564
 20
12.7
 21
13.241
  0
LINE
  8
0
 10
-725.564
 11
-725.316
 20
13.241
 21
13.729
  0
LINE
  8
0
 10
-725.316
 11
-724.929
 20
13.729
 21
14.116
  0
LINE
  8
0
 10
-724.929
 11
-724.441
 20
14.116
 21
14.364
  0
LINE
  8
0
 10
-724.441
 11
-723.9
 20
14.364
 21
14.45
  0
LINE
  8
0
 10
-723.9
 11
-723.359
 20
14.45
 21
14.364
  0
LINE
  8
0
 10
-723.359
 11
-722.871
 20
14.364
 21
14.116
  0
LINE
  8
0
 10
-722.871
 11
-722.484
 20
14.116
 21
13.729
  0
LINE
  8
0
 10
-722.484
 11
-722.236
 20
13.729
 21
13.241
  0
LINE
  8
0
 10
-722.236
 11
-722.15
 20
13.241
 21
12.7
  0
LINE
  8
0
 10
-722.15
 11
-722.236
 20
12.7
 21
12.159
  0
LINE
  8
0
 10
-722.236
 11
-722.484
 20
12.159
 21
11.671
  0
LINE
  8
0
 10
-722.484
 11
-722.871
 20
11.671
 21
11.284
  0
LINE
  8
0
 10
-722.871
 11
-723.359
 20
11.284
 21
11.036
  0
LINE
  8
0
 10
-723.359
 11
-723.9
 20
11.036
 21
10.95
  0
LINE
  8
0
 10
-723.9
 11
-724.441
 20
10.95
 21
11.036
  0
LINE
  8
0
 10
-724.441
 11
-724.929
 20
11.036
 21
11.284
  0
LINE
  8
0
 10
-724.929
 11
-725.316
 20
11.284
 21
11.671
  0
LINE
  8
0
 10
-725.316
 11
-725.564
 20
11.671
 21
12.159
  0
LINE
  8
0
 10
-725.564
 11
-725.65
 20
12.159
 21
12.7
  0
LINE
  8
0
 10
-725.65
 11
-725.564
 20
81.28
 21
81.821
  0
LINE
  8
0
 10
-725.564
 11
-725.316
 20
81.821
 21
82.309
  0
LINE
  8
0
 10
-725.316
 11
-724.929
 20
82.309
 21
82.696
  0
LINE
  8
0
 10
-724.929
 11
-724.441
 20
82.696
 21
82.944
  0
LINE
  8
0
 10
-724.441
 11
-723.9
 20
82.944
 21
83.03
  0
LINE
  8
0
 10
-723.9
 11
-723.359
 20
83.03
 21
82.944
  0
LINE
  8
0
 10
-723.359
 11
-722.871
 20
82.944
 21
82.696
  0
LINE
  8
0
 10
-722.871
 11
-722.484
 20
82.696
 21
82.309
  0
LINE
  8
0
 10
-722.484
 11
-722.236
 20
82.309
 21
81.821
  0
LINE
  8
0
 10
-722.236
 11
-722.15
 20
81.821
 21
81.28
  0
LINE
  8
0
 10
-722.15
 11
-722.236
 20
81.28
 21
80.739
  0
LINE
  8
0
 10
-722.236
 11
-722.484
 20
80.739
 21
80.251
  0
LINE
  8
0
 10
-722.484
 11
-722.871
 20
80.251
 21
79.864
  0
LINE
  8
0
 10
-722.871
 11
-723.359
 20
79.864
 21
79.616
  0
LINE
  8
0
 10
-723.359
 11
-723.9
 20
79.616
 21
79.53
  0
LINE
  8
0
 10
-723.9
 11
-724.441
 20
79.53
 21
79.616
  0
LINE
  8
0
 10
-724.441
 11
-724.929
 20
79.616
 21
79.864
  0
LINE
  8
0
 10
-724.929
 11
-725.316
 20
79.864
 21
80.251
  0
LINE
  8
0
 10
-725.316
 11
-725.564
 20
80.251
 21
80.739
  0
LINE
  8
0
 10
-725.564
 11
-725.65
 20
80.739
 21
81.28
  0
LINE
  8
0
 10
-655.2
 11
-655.2
 20
43.5
 21
53.5
  0
LINE
  8
0
 10
-655.2
 11
-650.2
 20
53.5
 21
53.5
  0
LINE
  8
0
 10
-650.2
 11
-650.2
 20
53.5
 21
48.5
  0
LINE
  8
0
 10
-650.2
 11
-645.2
 20
48.5
 21
48.5
  0
LINE
  8
0
 10
-645.2
 11
-645.2
 20
48.5
 21
53.5
  0
LINE
  8
0
 10
-645.2
 11
-640.2
 20
53.5
 21
53.5
  0
LINE
  8
0
 10
-640.2
 11
-640.2
 20
53.5
 21
43.5
  0
LINE
  8
0
 10
-640.2
 11
-655.2
 20
43.5
 21
43.5
  0
LINE
  8
0
 10
-655.2
 11
-655.2
 20
112.08
 21
122.08
  0
LINE
  8
0
 10
-655.2
 11
-650.2
 20
122.08
 21
122.08
  0
LINE
  8
0
 10
-650.2
 11
-650.2
 20
122.08
 21
117.08
  0
LINE
  8
0
 10
-650.2
 11
-645.2
 20
117.08
 21
117.08
  0
LINE
  8
0
 10
-645.2
 11
-645.2
 20
117.08
 21
122.08
  0
LINE
  8
0
 10
-645.2
 11
-640.2
 20
122.08
 21
122.08
  0
LINE
  8
0
 10
-640.2
 11
-640.2
 20
122.08
 21
112.08
  0
LINE
  8
0
 10
-640.2
 11
-655.2
 20
112.08
 21
112.08
  0
LINE
  8
0
 10
-649.45
 11
-649.364
 20
12.7
 21
13.241
  0
LINE
  8
0
 10
-649.364
 11
-649.116
 20
13.241
 21
13.729
  0
LINE
  8
0
 10
-649.116
 11
-648.729
 20
13.729
 21
14.116
  0
LINE
  8
0
 10
-648.729
 11
-648.241
 20
14.116
 21
14.364
  0
LINE
  8
0
 10
-648.241
 11
-647.7
 20
14.364
 21
14.45
  0
LINE
  8
0
 10
-647.7
 11
-647.159
 20
14.45
 21
14.364
  0
LINE
  8
0
 10
-647.159
 11
-646.671
 20
14.364
 21
14.116
  0
LINE
  8
0
 10
-646.671
 11
-646.284
 20
14.116
 21
13.729
  0
LINE
  8
0
 10
-646.284
 11
-646.036
 20
13.729
 21
13.241
  0
LINE
  8
0
 10
-646.036
 11
-645.95
 20
13.241
 21
12.7
  0
LINE
  8
0
 10
-645.95
 11
-646.036
 20
12.7
 21
12.159
  0
LINE
  8
0
 10
-646.036
 11
-646.284
 20
12.159
 21
11.671
  0
LINE
  8
0
 10
-646.284
 11
-646.671
 20
11.671
 21
11.284
  0
LINE
  8
0
 10
-646.671
 11
-647.159
 20
11.284
 21
11.036
  0
LINE
  8
0
 10
-647.159
 11
-647.7
 20
11.036
 21
10.95
  0
LINE
  8
0
 10
-647.7
 11
-648.241
 20
10.95
 21
11.036
  0
LINE
  8
0
 10
-648.241
 11
-648.729
 20
11.036
 21
11.284
  0
LINE
  8
0
 10
-648.729
 11
-649.116
 20
11.284
 21
11.671
  0
LINE
  8
0
 10
-649.116
 11
-649.364
 20
11.671
 21
12.159
  0
LINE
  8
0
 10
-649.364
 11
-649.45
 20
12.159
 21
12.7
  0
LINE
  8
0
 10
-649.45
 11
-649.364
 20
81.28
 21
81.821
  0
LINE
  8
0
 10
-649.364
 11
-649.116
 20
81.821
 21
82.309
  0
LINE
  8
0
 10
-649.116
 11
-648.729
 20
82.309
 21
82.696
  0
LINE
  8
0
 10
-648.729
 11
-648.241
 20
82.696
 21
82.944
  0
LINE
  8
0
 10
-648.241
 11
-647.7
 20
82.944
 21
83.03
  0
LINE
  8
0
 10
-647.7
 11
-647.159
 20
83.03
 21
82.944
  0
LINE
  8
0
 10
-647.159
 11
-646.671
 20
82.944
 21
82.696
  0
LINE
  8
0
 10
-646.671
 11
-646.284
 20
82.696
 21
82.309
  0
LINE
  8
0
 10
-646.284
 11
-646.036
 20
82.309
 21
81.821
  0
LINE
  8
0
 10
-646.036
 11
-645.95
 20
81.821
 21
81.28
  0
LINE
  8
0
 10
-645.95
 11
-646.036
 20
81.28
 21
80.739
  0
LINE
  8
0
 10
-646.036
 11
-646.284
 20
80.739
 21
80.251
  0
LINE
  8
0
 10
-646.284
 11
-646.671
 20
80.251
 21
79.864
  0
LINE
  8
0
 10
-646.671
 11
-647.159
 20
79.864
 21
79.616
  0
LINE
  8
0
 10
-647.159
 11
-647.7
 20
79.616
 21
79.53
  0
LINE
  8
0
 10
-647.7
 11
-648.241
 20
79.53
 21
79.616
  0
LINE
  8
0
 10
-648.241
 11
-648.729
 20
79.616
 21
79.864
  0
LINE
  8
0
 10
-648.729
 11
-649.116
 20
79.864
 21
80.251
  0
LINE
  8
0
 10
-649.116
 11
-649.364
 20
80.251
 21
80.739
  0
LINE
  8
0
 10
-649.364
 11
-649.45
 20
80.739
 21
81.28
  0
LINE
  8
0
 10
-579
 11
-579
 20
43.5
 21
53.5
  0
LINE
  8
0
 10
-579
 11
-574
 20
53.5
 21
53.5
  0
LINE
  8
0
 10
-574
 11
-574
 20
53.5
 21
48.5
  0
LINE
  8
0
 10
-574
 11
-569
 20
48.5
 21
48.5
  0
LINE
  8
0
 10
-569
 11
-569
 20
48.5
 21
53.5
  0
LINE
  8
0
 10
-569
 11
-564
 20
53.5
 21
53.5
  0
LINE
  8
0
 10
-564
 11
-564
 20
53.5
 21
43.5
  0
LINE
  8
0
 10
-564
 11
-579
 20
43.5
 21
43.5
  0
LINE
  8
0
 10
-579
 11
-579
 20
112.08
 21
122.08
  0
LINE
  8
0
 10
-579
 11
-574
 20
122.08
 21
122.08
  0
LINE
  8
0
 10
-574
 11
-574
 20
122.08
 21
117.08
  0
LINE
  8
0
 10
-574
 11
-569
 20
117.08
 21
117.08
  0
LINE
  8
0
 10
-569
 11
-569
 20
117.08
 21
122.08
  0
LINE
  8
0
 10
-569
 11
-564
 20
122.08
 21
122.08
  0
LINE
  8
0
 10
-564
 11
-564
 20
122.08
 21
112.08
  0
LINE
  8
0
 10
-564
 11
-579
 20
112.08
 21
112.08
  0
LINE
  8
0
 10
-573.25
 11
-573.164
 20
12.7
 21
13.241
  0
LINE
  8
0
 10
-573.164
 11
-572.916
 20
13.241
 21
13.729
  0
LINE
  8
0
 10
-572.916
 11
-572.529
 20
13.729
 21
14.116
  0
LINE
  8
0
 10
-572.529
 11
-572.041
 20
14.116
 21
14.364
  0
LINE
  8
0
 10
-572.041
 11
-571.5
 20
14.364
 21
14.45
  0
LINE
  8
0
 10
-571.5
 11
-570.959
 20
14.45
 21
14.364
  0
LINE
  8
0
 10
-570.959
 11
-570.471
 20
14.364
 21
14.116
  0
LINE
  8
0
 10
-570.471
 11
-570.084
 20
14.116
 21
13.729
  0
LINE
  8
0
 10
-570.084
 11
-569.836
 20
13.729
 21
13.241
  0
LINE
  8
0
 10
-569.836
 11
-569.75
 20
13.241
 21
12.7
  0
LINE
  8
0
 10
-569.75
 11
-569.836
 20
12.7
 21
12.159
  0
LINE
  8
0
 10
-569.836
 11
-570.084
 20
12.159
 21
11.671
  0
LINE
  8
0
 10
-570.084
 11
-570.471
 20
11.671
 21
11.284
  0
LINE
  8
0
 10
-570.471
 11
-570.959
 20
11.284
 21
11.036
  0
LINE
  8
0
 10
-570.959
 11
-571.5
 20
11.036
 21
10.95
  0
LINE
  8
0
 10
-571.5
 11
-572.041
 20
10.95
 21
11.036
  0
LINE
  8
0
 10
-572.041
 11
-572.529
 20
11.036
 21
11.284
  0
LINE
  8
0
 10
-572.529
 11
-572.916
 20
11.284
 21
11.671
  0
LINE
  8
0
 10
-572.916
 11
-573.164
 20
11.671
 21
12.159
  0
LINE
  8
0
 10
-573.164
 11
-573.25
 20
12.159
 21
12.7
  0
LINE
  8
0
 10
-573.25
 11
-573.164
 20
81.28
 21
81.821
  0
LINE
  8
0
 10
-573.164
 11
-572.916
 20
81.821
 21
82.309
  0
LINE
  8
0
 10
-572.916
 11
-572.529
 20
82.309
 21
82.696
  0
LINE
  8
0
 10
-572.529
 11
-572.041
 20
82.696
 21
82.944
  0
LINE
  8
0
 10
-572.041
 11
-571.5
 20
82.944
 21
83.03
  0
LINE
  8
0
 10
-571.5
 11
-570.959
 20
83.03
 21
82.944
  0
LINE
  8
0
 10
-570.959
 11
-570.471
 20
82.944
 21
82.696
  0
LINE
  8
0
 10
-570.471
 11
-570.084
 20
82.696
 21
82.309
  0
LINE
  8
0
 10
-570.084
 11
-569.836
 20
82.309
 21
81.821
  0
LINE
  8
0
 10
-569.836
 11
-569.75
 20
81.821
 21
81.28
  0
LINE
  8
0
 10
-569.75
 11
-569.836
 20
81.28
 21
80.739
  0
LINE
  8
0
 10
-569.836
 11
-570.084
 20
80.739
 21
80.251
  0
LINE
  8
0
 10
-570.084
 11
-570.471
 20
80.251
 21
79.864
  0
LINE
  8
0
 10
-570.471
 11
-570.959
 20
79.864
 21
79.616
  0
LINE
  8
0
 10
-570.959
 11
-571.5
 20
79.616
 21
79.53
  0
LINE
  8
0
 10
-571.5
 11
-572.041
 20
79.53
 21
79.616
  0
LINE
  8
0
 10
-572.041
 11
-572.529
 20
79.616
 21
79.864
  0
LINE
  8
0
 10
-572.529
 11
-572.916
 20
79.864
 21
80.251
  0
LINE
  8
0
 10
-572.916
 11
-573.164
 20
80.251
 21
80.739
  0
LINE
  8
0
 10
-573.164
 11
-573.25
 20
80.739
 21
81.28
  0
LINE
  8
0
 10
-502.8
 11
-502.8
 20
43.5
 21
53.5
  0
LINE
  8
0
 10
-502.8
 11
-497.8
 20
53.5
 21
53.5
  0
LINE
  8
0
 10
-497.8
 11
-497.8
 20
53.5
 21
48.5
  0
LINE
  8
0
 10
-497.8
 11
-492.8
 20
48.5
 21
48.5
  0
LINE
  8
0
 10
-492.8
 11
-492.8
 20
48.5
 21
53.5
  0
LINE
  8
0
 10
-492.8
 11
-487.8
 20
53.5
 21
53.5
  0
LINE
  8
0
 10
-487.8
 11
-487.8
 20
53.5
 21
43.5
  0
LINE
  8
0
 10
-487.8
 11
-502.8
 20
43.5
 21
43.5
  0
LINE
  8
0
 10
-502.8
 11
-502.8
 20
112.08
 21
122.08
  0
LINE
  8
0
 10
-502.8
 11
-497.8
 20
122.08
 21
122.08
  0
LINE
  8
0
 10
-497.8
 11
-497.8
 20
122.08
 21
117.08
  0
LINE
  8
0
 10
-497.8
 11
-492.8
 20
117.08
 21
117.08
  0
LINE
  8
0
 10
-492.8
 11
-492.8
 20
117.08
 21
122.08
  0
LINE
  8
0
 10
-492.8
 11
-487.8
 20
122.08
 21
122.08
  0
LINE
  8
0
 10
-487.8
 11
-487.8
 20
122.08
 21
112.08
  0
LINE
  8
0
 10
-487.8
 11
-502.8
 20
112.08
 21
112.08
  0
LINE
  8
0
 10
-497.05
 11
-496.964
 20
12.7
 21
13.241
  0
LINE
  8
0
 10
-496.964
 11
-496.716
 20
13.241
 21
13.729
  0
LINE
  8
0
 10
-496.716
 11
-496.329
 20
13.729
 21
14.116
  0
LINE
  8
0
 10
-496.329
 11
-495.841
 20
14.116
 21
14.364
  0
LINE
  8
0
 10
-495.841
 11
-495.3
 20
14.364
 21
14.45
  0
LINE
  8
0
 10
-495.3
 11
-494.759
 20
14.45
 21
14.364
  0
LINE
  8
0
 10
-494.759
 11
-494.271
 20
14.364
 21
14.116
  0
LINE
  8
0
 10
-494.271
 11
-493.884
 20
14.116
 21
13.729
  0
LINE
  8
0
 10
-493.884
 11
-493.636
 20
13.729
 21
13.241
  0
LINE
  8
0
 10
-493.636
 11
-493.55
 20
13.241
 21
12.7
  0
LINE
  8
0
 10
-493.55
 11
-493.636
 20
12.7
 21
12.159
  0
LINE
  8
0
 10
-493.636
 11
-493.884
 20
12.159
 21
11.671
  0
LINE
  8
0
 10
-493.884
 11
-494.271
 20
11.671
 21
11.284
  0
LINE
  8
0
 10
-494.271
 11
-494.759
 20
11.284
 21
11.036
  0
LINE
  8
0
 10
-494.759
 11
-495.3
 20
11.036
 21
10.95
  0
LINE
  8
0
 10
-495.3
 11
-495.841
 20
10.95
 21
11.036
  0
LINE
  8
0
 10
-495.841
 11
-496.329
 20
11.036
 21
11.284
  0
LINE
  8
0
 10
-496.329
 11
-496.716
 20
11.284
 21
11.671
  0
LINE
  8
0
 10
-496.716
 11
-496.964
 20
11.671
 21
12.159
  0
LINE
  8
0
 10
-496.964
 11
-497.05
 20
12.159
 21
12.7
  0
LINE
  8
0
 10
-497.05
 11
-496.964
 20
81.28
 21
81.821
  0
LINE
  8
0
 10
-496.964
 11
-496.716
 20
81.821
 21
82.309
  0
LINE
  8
0
 10
-496.716
 11
-496.329
 20
82.309
 21
82.696
  0
LINE
  8
0
 10
-496.329
 11
-495.841
 20
82.696
 21
82.944
  0
LINE
  8
0
 10
-495.841
 11
-495.3
 20
82.944
 21
83.03
  0
LINE
  8
0
 10
-495.3
 11
-494.759
 20
83.03
 21
82.944
  0
LINE
  8
0
 10
-494.759
 11
-494.271
 20
82.944
 21
82.696
  0
LINE
  8
0
 10
-494.271
 11
-493.884
 20
82.696
 21
82.309
  0
LINE
  8
0
 10
-493.884
 11
-493.636
 20
82.309
 21
81.821
  0
LINE
  8
0
 10
-493.636
 11
-493.55
 20
81.821
 21
81.28
  0
LINE
  8
0
 10
-493.55
 11
-493.636
 20
81.28
 21
80.739
  0
LINE
  8
0
 10
-493.636
 11
-493.884
 20
80.739
 21
80.251
  0
LINE
  8
0
 10
-493.884
 11
-494.271
 20
80.251
 21
79.864
  0
LINE
  8
0
 10
-494.271
 11
-494.759
 20
79.864
 21
79.616
  0
LINE
  8
0
 10
-494.759
 11
-495.3
 20
79.616
 21
79.53
  0
LINE
  8
0
 10
-495.3
 11
-495.841
 20
79.53
 21
79.616
  0
LINE
  8
0
 10
-495.841
 11
-496.329
 20
79.616
 21
79.864
  0
LINE
  8
0
 10
-496.329
 11
-496.716
 20
79.864
 21
80.251
  0
LINE
  8
0
 10
-496.716
 11
-496.964
 20
80.251
 21
80.739
  0
LINE
  8
0
 10
-496.964
 11
-497.05
 20
80.739
 21
81.28
  0
LINE
  8
0
 10
-426.6
 11
-426.6
 20
43.5
 21
53.5
  0
LINE
  8
0
 10
-426.6
 11
-421.6
 20
53.5
 21
53.5
  0
LINE
  8
0
 10
-421.6
 11
-421.6
 20
53.5
 21
48.5
  0
LINE
  8
0
 10
-421.6
 11
-416.6
 20
48.5
 21
48.5
  0
LINE
  8
0
 10
-416.6
 11
-416.6
 20
48.5
 21
53.5
  0
LINE
  8
0
 10
-416.6
 11
-411.6
 20
53.5
 21
53.5
  0
LINE
  8
0
 10
-411.6
 11
-411.6
 20
53.5
 21
43.5
  0
LINE
  8
0
 10
-411.6
 11
-426.6
 20
43.5
 21
43.5
  0
LINE
  8
0
 10
-426.6
 11
-426.6
 20
112.08
 21
122.08
  0
LINE
  8
0
 10
-426.6
 11
-421.6
 20
122.08
 21
122.08
  0
LINE
  8
0
 10
-421.6
 11
-421.6
 20
122.08
 21
117.08
  0
LINE
  8
0
 10
-421.6
 11
-416.6
 20
117.08
 21
117.08
  0
LINE
  8
0
 10
-416.6
 11
-416.6
 20
117.08
 21
122.08
  0
LINE
  8
0
 10
-416.6
 11
-411.6
 20
122.08
 21
122.08
  0
LINE
  8
0
 10
-411.6
 11
-411.6
 20
122.08
 21
112.08
  0
LINE
  8
0
 10
-411.6
 11
-426.6
 20
112.08
 21
112.08
  0
LINE
  8
0
 10
-420.85
 11
-420.764
 20
12.7
 21
13.241
  0
LINE
  8
0
 10
-420.764
 11
-420.516
 20
13.241
 21
13.729
  0
LINE
  8
0
 10
-420.516
 11
-420.129
 20
13.729
 21
14.116
  0
LINE
  8
0
 10
-420.129
 11
-419.641
 20
14.116
 21
14.364
  0
LINE
  8
0
 10
-419.641
 11
-419.1
 20
14.364
 21
14.45
  0
LINE
  8
0
 10
-419.1
 11
-418.559
 20
14.45
 21
14.364
  0
LINE
  8
0
 10
-418.559
 11
-418.071
 20
14.364
 21
14.116
  0
LINE
  8
0
 10
-418.071
 11
-417.684
 20
14.116
 21
13.729
  0
LINE
  8
0
 10
-417.684
 11
-417.436
 20
13.729
 21
13.241
  0
LINE
  8
0
 10
-417.436
 11
-417.35
 20
13.241
 21
12.7
  0
LINE
  8
0
 10
-417.35
 11
-417.436
 20
12.7
 21
12.159
  0
LINE
  8
0
 10
-417.436
 11
-417.684
 20
12.159
 21
11.671
  0
LINE
  8
0
 10
-417.684
 11
-418.071
 20
11.671
 21
11.284
  0
LINE
  8
0
 10
-418.071
 11
-418.559
 20
11.284
 21
11.036
  0
LINE
  8
0
 10
-418.559
 11
-419.1
 20
11.036
 21
10.95
  0
LINE
  8
0
 10
-419.1
 11
-419.641
 20
10.95
 21
11.036
  0
LINE
  8
0
 10
-419.641
 11
-420.129
 20
11.036
 21
11.284
  0
LINE
  8
0
 10
-420.129
 11
-420.516
 20
11.284
 21
11.671
  0
LINE
  8
0
 10
-420.516
 11
-420.764
 20
11.671
 21
12.159
  0
LINE
  8
0
 10
-420.764
 11
-420.85
 20
12.159
 21
12.7
  0
LINE
  8
0
 10
-420.85
 11
-420.764
 20
81.28
 21
81.821
  0
LINE
  8
0
 10
-420.764
 11
-420.516
 20
81.821
 21
82.309
  0
LINE
  8
0
 10
-420.516
 11
-420.129
 20
82.309
 21
82.696
  0
LINE
  8
0
 10
-420.129
 11
-419.641
 20
82.696
 21
82.944
  0
LINE
  8
0
 10
-419.641
 11
-419.1
 20
82.944
 21
83.03
  0
LINE
  8
0
 10
-419.1
 11
-418.559
 20
83.03
 21
82.944
  0
LINE
  8
0
 10
-418.559
 11
-418.071
 20
82.944
 21
82.696
  0
LINE
  8
0
 10
-418.071
 11
-417.684
 20
82.696
 21
82.309
  0
LINE
  8
0
 10
-417.684
 11
-417.436
 20
82.309
 21
81.821
  0
LINE
  8
0
 10
-417.436
 11
-417.35
 20
81.821
 21
81.28
  0
LINE
  8
0
 10
-417.35
 11
-417.436
 20
81.28
 21
80.739
  0
LINE
  8
0
 10
-417.436
 11
-417.684
 20
80.739
 21
80.251
  0
LINE
  8
0
 10
-417.684
 11
-418.071
 20
80.251
 21
79.864
  0
LINE
  8
0
 10
-418.071
 11
-418.559
 20
79.864
 21
79.616
  0
LINE
  8
0
 10
-418.559
 11
-419.1
 20
79.616
 21
79.53
  0
LINE
  8
0
 10
-419.1
 11
-419.641
 20
79.53
 21
79.616
  0
LINE
  8
0
 10
-419.641
 11
-420.129
 20
79.616
 21
79.864
  0
LINE
  8
0
 10
-420.129
 11
-420.516
 20
79.864
 21
80.251
  0
LINE
  8
0
 10
-420.516
 11
-420.764
 20
80.251
 21
80.739
  0
LINE
  8
0
 10
-420.764
 11
-420.85
 20
80.739
 21
81.28
  0
LINE
  8
0
 10
-350.4
 11
-350.4
 20
43.5
 21
53.5
  0
LINE
  8
0
 10
-350.4
 11
-345.4
 20
53.5
 21
53.5
  0
LINE
  8
0
 10
-345.4
 11
-345.4
 20
53.5
 21
48.5
  0
LINE
  8
0
 10
-345.4
 11
-340.4
 20
48.5
 21
48.5
  0
LINE
  8
0
 10
-340.4
 11
-340.4
 20
48.5
 21
53.5
  0
LINE
  8
0
 10
-340.4
 11
-335.4
 20
53.5
 21
53.5
  0
LINE
  8
0
 10
-335.4
 11
-335.4
 20
53.5
 21
43.5
  0
LINE
  8
0
 10
-335.4
 11
-350.4
 20
43.5
 21
43.5
  0
LINE
  8
0
 10
-350.4
 11
-350.4
 20
112.08
 21
122.08
  0
LINE
  8
0
 10
-350.4
 11
-345.4
 20
122.08
 21
122.08
  0
LINE
  8
0
 10
-345.4
 11
-345.4
 20
122.08
 21
117.08
  0
LINE
  8
0
 10
-345.4
 11
-340.4
 20
117.08
 21
117.08
  0
LINE
  8
0
 10
-340.4
 11
-340.4
 20
117.08
 21
122.08
  0
LINE
  8
0
 10
-340.4
 11
-335.4
 20
122.08
 21
122.08
  0
LINE
  8
0
 10
-335.4
 11
-335.4
 20
122.08
 21
112.08
  0
LINE
  8
0
 10
-335.4
 11
-350.4
 20
112.08
 21
112.08
  0
LINE
  8
0
 10
-344.65
 11
-344.564
 20
12.7
 21
13.241
  0
LINE
  8
0
 10
-344.564
 11
-344.316
 20
13.241
 21
13.729
  0
LINE
  8
0
 10
-344.316
 11
-343.929
 20
13.729
 21
14.116
  0
LINE
  8
0
 10
-343.929
 11
-343.441
 20
14.116
 21
14.364
  0
LINE
  8
0
 10
-343.441
 11
-342.9
 20
14.364
 21
14.45
  0
LINE
  8
0
 10
-342.9
 11
-342.359
 20
14.45
 21
14.364
  0
LINE
  8
0
 10
-342.359
 11
-341.871
 20
14.364
 21
14.116
  0
LINE
  8
0
 10
-341.871
 11
-341.484
 20
14.116
 21
13.729
  0
LINE
  8
0
 10
-341.484
 11
-341.236
 20
13.729
 21
13.241
  0
LINE
  8
0
 10
-341.236
 11
-341.15
 20
13.241
 21
12.7
  0
LINE
  8
0
 10
-341.15
 11
-341.236
 20
12.7
 21
12.159
  0
LINE
  8
0
 10
-341.236
 11
-341.484
 20
12.159
 21
11.671
  0
LINE
  8
0
 10
-341.484
 11
-341.871
 20
11.671
 21
11.284
  0
LINE
  8
0
 10
-341.871
 11
-342.359
 20
11.284
 21
11.036
  0
LINE
  8
0
 10
-342.359
 11
-342.9
 20
11.036
 21
10.95
  0
LINE
  8
0
 10
-342.9
 11
-343.441
 20
10.95
 21
11.036
  0
LINE
  8
0
 10
-343.441
 11
-343.929
 20
11.036
 21
11.284
  0
LINE
  8
0
 10
-343.929
 11
-344.316
 20
11.284
 21
11.671
  0
LINE
  8
0
 10
-344.316
 11
-344.564
 20
11.671
 21
12.159
  0
LINE
  8
0
 10
-344.564
 11
-344.65
 20
12.159
 21
12.7
  0
LINE
  8
0
 10
-344.65
 11
-344.564
 20
81.28
 21
81.821
  0
LINE
  8
0
 10
-344.564
 11
-344.316
 20
81.821
 21
82.309
  0
LINE
  8
0
 10
-344.316
 11
-343.929
 20
82.309
 21
82.696
  0
LINE
  8
0
 10
-343.929
 11
-343.441
 20
82.696
 21
82.944
  0
LINE
  8
0
 10
-343.441
 11
-342.9
 20
82.944
 21
83.03
  0
LINE
  8
0
 10
-342.9
 11
-342.359
 20
83.03
 21
82.944
  0
LINE
  8
0
 10
-342.359
 11
-341.871
 20
82.944
 21
82.696
  0
LINE
  8
0
 10
-341.871
 11
-341.484
 20
82.696
 21
82.309
  0
LINE
  8
0
 10
-341.484
 11
-341.236
 20
82.309
 21
81.821
  0
LINE
  8
0
 10
-341.236
 11
-341.15
 20
81.821
 21
81.28
  0
LINE
  8
0
 10
-341.15
 11
-341.236
 20
81.28
 21
80.739
  0
LINE
  8
0
 10
-341.236
 11
-341.484
 20
80.739
 21
80.251
  0
LINE
  8
0
 10
-341.484
 11
-341.871
 20
80.251
 21
79.864
  0
LINE
  8
0
 10
-341.871
 11
-342.359
 20
79.864
 21
79.616
  0
LINE
  8
0
 10
-342.359
 11
-342.9
 20
79.616
 21
79.53
  0
LINE
  8
0
 10
-342.9
 11
-343.441
 20
79.53
 21
79.616
  0
LINE
  8
0
 10
-343.441
 11
-343.929
 20
79.616
 21
79.864
  0
LINE
  8
0
 10
-343.929
 11
-344.316
 20
79.864
 21
80.251
  0
LINE
  8
0
 10
-344.316
 11
-344.564
 20
80.251
 21
80.739
  0
LINE
  8
0
 10
-344.564
 11
-344.65
 20
80.739
 21
81.28
  0
LINE
  8
0
 10
-274.2
 11
-274.2
 20
43.5
 21
53.5
  0
LINE
  8
0
 10
-274.2
 11
-269.2
 20
53.5
 21
53.5
  0
LINE
  8
0
 10
-269.2
 11
-269.2
 20
53.5
 21
48.5
  0
LINE
  8
0
 10
-269.2
 11
-264.2
 20
48.5
 21
48.5
  0
LINE
  8
0
 10
-264.2
 11
-264.2
 20
48.5
 21
53.5
  0
LINE
  8
0
 10
-264.2
 11
-259.2
 20
53.5
 21
53.5
  0
LINE
  8
0
 10
-259.2
 11
-259.2
 20
53.5
 21
43.5
  0
LINE
  8
0
 10
-259.2
 11
-274.2
 20
43.5
 21
43.5
  0
LINE
  8
0
 10
-274.2
 11
-274.2
 20
112.08
 21
122.08
  0
LINE
  8
0
 10
-274.2
 11
-269.2
 20
122.08
 21
122.08
  0
LINE
  8
0
 10
-269.2
 11
-269.2
 20
122.08
 21
117.08
  0
LINE
  8
0
 10
-269.2
 11
-264.2
 20
117.08
 21
117.08
  0
LINE
  8
0
 10
-264.2
 11
-264.2
 20
117.08
 21
122.08
  0
LINE
  8
0
 10
-264.2
 11
-259.2
 20
122.08
 21
122.08
  0
LINE
  8
0
 10
-259.2
 11
-259.2
 20
122.08
 21
112.08
  0
LINE
  8
0
 10
-259.2
 11
-274.2
 20
112.08
 21
112.08
  0
LINE
  8
0
 10
-268.45
 11
-268.364
 20
12.7
 21
13.241
  0
LINE
  8
0
 10
-268.364
 11
-268.116
 20
13.241
 21
13.729
  0
LINE
  8
0
 10
-268.116
 11
-267.729
 20
13.729
 21
14.116
  0
LINE
  8
0
 10
-267.729
 11
-267.241
 20
14.116
 21
14.364
  0
LINE
  8
0
 10
-267.241
 11
-266.7
 20
14.364
 21
14.45
  0
LINE
  8
0
 10
-266.7
 11
-266.159
 20
14.45
 21
14.364
  0
LINE
  8
0
 10
-266.159
 11
-265.671
 20
14.364
 21
14.116
  0
LINE
  8
0
 10
-265.671
 11
-265.284
 20
14.116
 21
13.729
  0
LINE
  8
0
 10
-265.284
 11
-265.036
 20
13.729
 21
13.241
  0
LINE
  8
0
 10
-265.036
 11
-264.95
 20
13.241
 21
12.7
  0
LINE
  8
0
 10
-264.95
 11
-265.036
 20
12.7
 21
12.159
  0
LINE
  8
0
 10
-265.036
 11
-265.284
 20
12.159
 21
11.671
  0
LINE
  8
0
 10
-265.284
 11
-265.671
 20
11.671
 21
11.284
  0
LINE
  8
0
 10
-265.671
 11
-266.159
 20
11.284
 21
11.036
  0
LINE
  8
0
 10
-266.159
 11
-266.7
 20
11.036
 21
10.95
  0
LINE
  8
0
 10
-266.7
 11
-267.241
 20
10.95
 21
11.036
  0
LINE
  8
0
 10
-267.241
 11
-267.729
 20
11.036
 21
11.284
  0
LINE
  8
0
 10
-267.729
 11
-268.116
 20
11.284
 21
11.671
  0
LINE
  8
0
 10
-268.116
 11
-268.364
 20
11.671
 21
12.159
  0
LINE
  8
0
 10
-268.364
 11
-268.45
 20
12.159
 21
12.7
  0
LINE
  8
0
 10
-268.45
 11
-268.364
 20
81.28
 21
81.821
  0
LINE
  8
0
 10
-268.364
 11
-268.116
 20
81.821
 21
82.309
  0
LINE
  8
0
 10
-268.116
 11
-267.729
 20
82.309
 21
82.696
  0
LINE
  8
0
 10
-267.729
 11
-267.241
 20
82.696
 21
82.944
  0
LINE
  8
0
 10
-267.241
 11
-266.7
 20
82.944
 21
83.03
  0
LINE
  8
0
 10
-266.7
 11
-266.159
 20
83.03
 21
82.944
  0
LINE
  8
0
 10
-266.159
 11
-265.671
 20
82.944
 21
82.696
  0
LINE
  8
0
 10
-265.671
 11
-265.284
 20
82.696
 21
82.309
  0
LINE
  8
0
 10
-265.284
 11
-265.036
 20
82.309
 21
81.821
  0
LINE
  8
0
 10
-265.036
 11
-264.95
 20
81.821
 21
81.28
  0
LINE
  8
0
 10
-264.95
 11
-265.036
 20
81.28
 21
80.739
  0
LINE
  8
0
 10
-265.036
 11
-265.284
 20
80.739
 21
80.251
  0
LINE
  8
0
 10
-265.284
 11
-265.671
 20
80.251
 21
79.864
  0
LINE
  8
0
 10
-265.671
 11
-266.159
 20
79.864
 21
79.616
  0
LINE
  8
0
 10
-266.159
 11
-266.7
 20
79.616
 21
79.53
  0
LINE
  8
0
 10
-266.7
 11
-267.241
 20
79.53
 21
79.616
  0
LINE
  8
0
 10
-267.241
 11
-267.729
 20
79.616
 21
79.864
  0
LINE
  8
0
 10
-267.729
 11
-268.116
 20
79.864
 21
80.251
  0
LINE
  8
0
 10
-268.116
 11
-268.364
 20
80.251
 21
80.739
  0
LINE
  8
0
 10
-268.364
 11
-268.45
 20
80.739
 21
81.28
  0
LINE
  8
0
 10
-198
 11
-198
 20
43.5
 21
53.5
  0
LINE
  8
0
 10
-198
 11
-193
 20
53.5
 21
53.5
  0
LINE
  8
0
 10
-193
 11
-193
 20
53.5
 21
48.5
  0
LINE
  8
0
 10
-193
 11
-188
 20
48.5
 21
48.5
  0
LINE
  8
0
 10
-188
 11
-188
 20
48.5
 21
53.5
  0
LINE
  8
0
 10
-188
 11
-183
 20
53.5
 21
53.5
  0
LINE
  8
0
 10
-183
 11
-183
 20
53.5
 21
43.5
  0
LINE
  8
0
 10
-183
 11
-198
 20
43.5
 21
43.5
  0
LINE
  8
0
 10
-198
 11
-198
 20
112.08
 21
122.08
  0
LINE
  8
0
 10
-198
 11
-193
 20
122.08
 21
122.08
  0
LINE
  8
0
 10
-193
 11
-193
 20
122.08
 21
117.08
  0
LINE
  8
0
 10
-193
 11
-188
 20
117.08
 21
117.08
  0
LINE
  8
0
 10
-188
 11
-188
 20
117.08
 21
122.08
  0
LINE
  8
0
 10
-188
 11
-183
 20
122.08
 21
122.08
  0
LINE
  8
0
 10
-183
 11
-183
 20
122.08
 21
112.08
  0
LINE
  8
0
 10
-183
 11
-198
 20
112.08
 21
112.08
  0
LINE
  8
0
 10
-192.25
 11
-192.164
 20
12.7
 21
13.241
  0
LINE
  8
0
 10
-192.164
 11
-191.916
 20
13.241
 21
13.729
  0
LINE
  8
0
 10
-191.916
 11
-191.529
 20
13.729
 21
14.116
  0
LINE
  8
0
 10
-191.529
 11
-191.041
 20
14.116
 21
14.364
  0
LINE
  8
0
 10
-191.041
 11
-190.5
 20
14.364
 21
14.45
  0
LINE
  8
0
 10
-190.5
 11
-189.959
 20
14.45
 21
14.364
  0
LINE
  8
0
 10
-189.959
 11
-189.471
 20
14.364
 21
14.116
  0
LINE
  8
0
 10
-189.471
 11
-189.084
 20
14.116
 21
13.729
  0
LINE
  8
0
 10
-189.084
 11
-188.836
 20
13.729
 21
13.241
  0
LINE
  8
0
 10
-188.836
 11
-188.75
 20
13.241
 21
12.7
  0
LINE
  8
0
 10
-188.75
 11
-188.836
 20
12.7
 21
12.159
  0
LINE
  8
0
 10
-188.836
 11
-189.084
 20
12.159
 21
11.671
  0
LINE
  8
0
 10
-189.084
 11
-189.471
 20
11.671
 21
11.284
  0
LINE
  8
0
 10
-189.471
 11
-189.959
 20
11.284
 21
11.036
  0
LINE
  8
0
 10
-189.959
 11
-190.5
 20
11.036
 21
10.95
  0
LINE
  8
0
 10
-190.5
 11
-191.041
 20
10.95
 21
11.036
  0
LINE
  8
0
 10
-191.041
 11
-191.529
 20
11.036
 21
11.284
  0
LINE
  8
0
 10
-191.529
 11
-191.916
 20
11.284
 21
11.671
  0
LINE
  8
0
 10
-191.916
 11
-192.164
 20
11.671
 21
12.159
  0
LINE
  8
0
 10
-192.164
 11
-192.25
 20
12.159
 21
12.7
  0
LINE
  8
0
 10
-192.25
 11
-192.164
 20
81.28
 21
81.821
  0
LINE
  8
0
 10
-192.164
 11
-191.916
 20
81.821
 21
82.309
  0
LINE
  8
0
 10
-191.916
 11
-191.529
 20
82.309
 21
82.696
  0
LINE
  8
0
 10
-191.529
 11
-191.041
 20
82.696
 21
82.944
  0
LINE
  8
0
 10
-191.041
 11
-190.5
 20
82.944
 21
83.03
  0
LINE
  8
0
 10
-190.5
 11
-189.959
 20
83.03
 21
82.944
  0
LINE
  8
0
 10
-189.959
 11
-189.471
 20
82.944
 21
82.696
  0
LINE
  8
0
 10
-189.471
 11
-189.084
 20
82.696
 21
82.309
  0
LINE
  8
0
 10
-189.084
 11
-188.836
 20
82.309
 21
81.821
  0
LINE
  8
0
 10
-188.836
 11
-188.75
 20
81.821
 21
81.28
  0
LINE
  8
0
 10
-188.75
 11
-188.836
 20
81.28
 21
80.739
  0
LINE
  8
0
 10
-188.836
 11
-189.084
 20
80.739
 21
80.251
  0
LINE
  8
0
 10
-189.084
 11
-189.471
 20
80.251
 21
79.864
  0
LINE
  8
0
 10
-189.471
 11
-189.959
 20
79.864
 21
79.616
  0
LINE
  8
0
 10
-189.959
 11
-190.5
 20
79.616
 21
79.53
  0
LINE
  8
0
 10
-190.5
 11
-191.041
 20
79.53
 21
79.616
  0
LINE
  8
0
 10
-191.041
 11
-191.529
 20
79.616
 21
79.864
  0
LINE
  8
0
 10
-191.529
 11
-191.916
 20
79.864
 21
80.251
  0
LINE
  8
0
 10
-191.916
 11
-192.164
 20
80.251
 21
80.739
  0
LINE
  8
0
 10
-192.164
 11
-192.25
 20
80.739
 21
81.28
  0
LINE
  8
0
 10
-121.8
 11
-121.8
 20
43.5
 21
53.5
  0
LINE
  8
0
 10
-121.8
 11
-116.8
 20
53.5
 21
53.5
  0
LINE
  8
0
 10
-116.8
 11
-116.8
 20
53.5
 21
48.5
  0
LINE
  8
0
 10
-116.8
 11
-111.8
 20
48.5
 21
48.5
  0
LINE
  8
0
 10
-111.8
 11
-111.8
 20
48.5
 21
53.5
  0
LINE
  8
0
 10
-111.8
 11
-106.8
 20
53.5
 21
53.5
  0
LINE
  8
0
 10
-106.8
 11
-106.8
 20
53.5
 21
43.5
  0
LINE
  8
0
 10
-106.8
 11
-121.8
 20
43.5
 21
43.5
  0
LINE
  8
0
 10
-121.8
 11
-121.8
 20
112.08
 21
122.08
  0
LINE
  8
0
 10
-121.8
 11
-116.8
 20
122.08
 21
122.08
  0
LINE
  8
0
 10
-116.8
 11
-116.8
 20
122.08
 21
117.08
  0
LINE
  8
0
 10
-116.8
 11
-111.8
 20
117.08
 21
117.08
  0
LINE
  8
0
 10
-111.8
 11
-111.8
 20
117.08
 21
122.08
  0
LINE
  8
0
 10
-111.8
 11
-106.8
 20
122.08
 21
122.08
  0
LINE
  8
0
 10
-106.8
 11
-106.8
 20
122.08
 21
112.08
  0
LINE
  8
0
 10
-106.8
 11
-121.8
 20
112.08
 21
112.08
  0
LINE
  8
0
 10
-116.05
 11
-115.964
 20
12.7
 21
13.241
  0
LINE
  8
0
 10
-115.964
 11
-115.716
 20
13.241
 21
13.729
  0
LINE
  8
0
 10
-115.716
 11
-115.329
 20
13.729
 21
14.116
  0
LINE
  8
0
 10
-115.329
 11
-114.841
 20
14.116
 21
14.364
  0
LINE
  8
0
 10
-114.841
 11
-114.3
 20
14.364
 21
14.45
  0
LINE
  8
0
 10
-114.3
 11
-113.759
 20
14.45
 21
14.364
  0
LINE
  8
0
 10
-113.759
 11
-113.271
 20
14.364
 21
14.116
  0
LINE
  8
0
 10
-113.271
 11
-112.884
 20
14.116
 21
13.729
  0
LINE
  8
0
 10
-112.884
 11
-112.636
 20
13.729
 21
13.241
  0
LINE
  8
0
 10
-112.636
 11
-112.55
 20
13.241
 21
12.7
  0
LINE
  8
0
 10
-112.55
 11
-112.636
 20
12.7
 21
12.159
  0
LINE
  8
0
 10
-112.636
 11
-112.884
 20
12.159
 21
11.671
  0
LINE
  8
0
 10
-112.884
 11
-113.271
 20
11.671
 21
11.284
  0
LINE
  8
0
 10
-113.271
 11
-113.759
 20
11.284
 21
11.036
  0
LINE
  8
0
 10
-113.759
 11
-114.3
 20
11.036
 21
10.95
  0
LINE
  8
0
 10
-114.3
 11
-114.841
 20
10.95
 21
11.036
  0
LINE
  8
0
 10
-114.841
 11
-115.329
 20
11.036
 21
11.284
  0
LINE
  8
0
 10
-115.329
 11
-115.716
 20
11.284
 21
11.671
  0
LINE
  8
0
 10
-115.716
 11
-115.964
 20
11.671
 21
12.159
  0
LINE
  8
0
 10
-115.964
 11
-116.05
 20
12.159
 21
12.7
  0
LINE
  8
0
 10
-116.05
 11
-115.964
 20
81.28
 21
81.821
  0
LINE
  8
0
 10
-115.964
 11
-115.716
 20
81.821
 21
82.309
  0
LINE
  8
0
 10
-115.716
 11
-115.329
 20
82.309
 21
82.696
  0
LINE
  8
0
 10
-115.329
 11
-114.841
 20
82.696
 21
82.944
  0
LINE
  8
0
 10
-114.841
 11
-114.3
 20
82.944
 21
83.03
  0
LINE
  8
0
 10
-114.3
 11
-113.759
 20
83.03
 21
82.944
  0
LINE
  8
0
 10
-113.759
 11
-113.271
 20
82.944
 21
82.696
  0
LINE
  8
0
 10
-113.271
 11
-112.884
 20
82.696
 21
82.309
  0
LINE
  8
0
 10
-112.884
 11
-112.636
 20
82.309
 21
81.821
  0
LINE
  8
0
 10
-112.636
 11
-112.55
 20
81.821
 21
81.28
  0
LINE
  8
0
 10
-112.55
 11
-112.636
 20
81.28
 21
80.739
  0
LINE
  8
0
 10
-112.636
 11
-112.884
 20
80.739
 21
80.251
  0
LINE
  8
0
 10
-112.884
 11
-113.271
 20
80.251
 21
79.864
  0
LINE
  8
0
 10
-113.271
 11
-113.759
 20
79.864
 21
79.616
  0
LINE
  8
0
 10
-113.759
 11
-114.3
 20
79.616
 21
79.53
  0
LINE
  8
0
 10
-114.3
 11
-114.841
 20
79.53
 21
79.616
  0
LINE
  8
0
 10
-114.841
 11
-115.329
 20
79.616
 21
79.864
  0
LINE
  8
0
 10
-115.329
 11
-115.716
 20
79.864
 21
80.251
  0
LINE
  8
0
 10
-115.716
 11
-115.964
 20
80.251
 21
80.739
  0
LINE
  8
0
 10
-115.964
 11
-116.05
 20
80.739
 21
81.28
  0
LINE
  8
0
 10
-45.6
 11
-45.6
 20
43.5
 21
53.5
  0
LINE
  8
0
 10
-45.6
 11
-40.6
 20
53.5
 21
53.5
  0
LINE
  8
0
 10
-40.6
 11
-40.6
 20
53.5
 21
48.5
  0
LINE
  8
0
 10
-40.6
 11
-35.6
 20
48.5
 21
48.5
  0
LINE
  8
0
 10
-35.6
 11
-35.6
 20
48.5
 21
53.5
  0
LINE
  8
0
 10
-35.6
 11
-30.6
 20
53.5
 21
53.5
  0
LINE
  8
0
 10
-30.6
 11
-30.6
 20
53.5
 21
43.5
  0
LINE
  8
0
 10
-30.6
 11
-45.6
 20
43.5
 21
43.5
  0
LINE
  8
0
 10
-45.6
 11
-45.6
 20
112.08
 21
122.08
  0
LINE
  8
0
 10
-45.6
 11
-40.6
 20
122.08
 21
122.08
  0
LINE
  8
0
 10
-40.6
 11
-40.6
 20
122.08
 21
117.08
  0
LINE
  8
0
 10
-40.6
 11
-35.6
 20
117.08
 21
117.08
  0
LINE
  8
0
 10
-35.6
 11
-35.6
 20
117.08
 21
122.08
  0
LINE
  8
0
 10
-35.6
 11
-30.6
 20
122.08
 21
122.08
  0
LINE
  8
0
 10
-30.6
 11
-30.6
 20
122.08
 21
112.08
  0
LINE
  8
0
 10
-30.6
 11
-45.6
 20
112.08
 21
112.08
  0
LINE
  8
0
 10
-39.85
 11
-39.764
 20
12.7
 21
13.241
  0
LINE
  8
0
 10
-39.764
 11
-39.516
 20
13.241
 21
13.729
  0
LINE
  8
0
 10
-39.516
 11
-39.129
 20
13.729
 21
14.116
  0
LINE
  8
0
 10
-39.129
 11
-38.641
 20
14.116
 21
14.364
  0
LINE
  8
0
 10
-38.641
 11
-38.1
 20
14.364
 21
14.45
  0
LINE
  8
0
 10
-38.1
 11
-37.559
 20
14.45
 21
14.364
  0
LINE
  8
0
 10
-37.559
 11
-37.071
 20
14.364
 21
14.116
  0
LINE
  8
0
 10
-37.071
 11
-36.684
 20
14.116
 21
13.729
  0
LINE
  8
0
 10
-36.684
 11
-36.436
 20
13.729
 21
13.241
  0
LINE
  8
0
 10
-36.436
 11
-36.35
 20
13.241
 21
12.7
  0
LINE
  8
0
 10
-36.35
 11
-36.436
 20
12.7
 21
12.159
  0
LINE
  8
0
 10
-36.436
 11
-36.684
 20
12.159
 21
11.671
  0
LINE
  8
0
 10
-36.684
 11
-37.071
 20
11.671
 21
11.284
  0
LINE
  8
0
 10
-37.071
 11
-37.559
 20
11.284
 21
11.036
  0
LINE
  8
0
 10
-37.559
 11
-38.1
 20
11.036
 21
10.95
  0
LINE
  8
0
 10
-38.1
 11
-38.641
 20
10.95
 21
11.036
  0
LINE
  8
0
 10
-38.641
 11
-39.129
 20
11.036
 21
11.284
  0
LINE
  8
0
 10
-39.129
 11
-39.516
 20
11.284
 21
11.671
  0
LINE
  8
0
 10
-39.516
 11
-39.764
 20
11.671
 21
12.159
  0
LINE
  8
0
 10
-39.764
 11
-39.85
 20
12.159
 21
12.7
  0
LINE
  8
0
 10
-39.85
 11
-39.764
 20
81.28
 21
81.821
  0
LINE
  8
0
 10
-39.764
 11
-39.516
 20
81.821
 21
82.309
  0
LINE
  8
0
 10
-39.516
 11
-39.129
 20
82.309
 21
82.696
  0
LINE
  8
0
 10
-39.129
 11
-38.641
 20
82.696
 21
82.944
  0
LINE
  8
0
 10
-38.641
 11
-38.1
 20
82.944
 21
83.03
  0
LINE
  8
0
 10
-38.1
 11
-37.559
 20
83.03
 21
82.944
  0
LINE
  8
0
 10
-37.559
 11
-37.071
 20
82.944
 21
82.696
  0
LINE
  8
0
 10
-37.071
 11
-36.684
 20
82.696
 21
82.309
  0
LINE
  8
0
 10
-36.684
 11
-36.436
 20
82.309
 21
81.821
  0
LINE
  8
0
 10
-36.436
 11
-36.35
 20
81.821
 21
81.28
  0
LINE
  8
0
 10
-36.35
 11
-36.436
 20
81.28
 21
80.739
  0
LINE
  8
0
 10
-36.436
 11
-36.684
 20
80.739
 21
80.251
  0
LINE
  8
0
 10
-36.684
 11
-37.071
 20
80.251
 21
79.864
  0
LINE
  8
0
 10
-37.071
 11
-37.559
 20
79.864
 21
79.616
  0
LINE
  8
0
 10
-37.559
 11
-38.1
 20
79.616
 21
79.53
  0
LINE
  8
0
 10
-38.1
 11
-38.641
 20
79.53
 21
79.616
  0
LINE
  8
0
 10
-38.641
 11
-39.129
 20
79.616
 21
79.864
  0
LINE
  8
0
 10
-39.129
 11
-39.516
 20
79.864
 21
80.251
  0
LINE
  8
0
 10
-39.516
 11
-39.764
 20
80.251
 21
80.739
  0
LINE
  8
0
 10
-39.764
 11
-39.85
 20
80.739
 21
81.28
  0
ENDSEC
  0
SECTION
  2
OBJECTS
  0
DICTIONARY
  0
ENDSEC
  0
EOF
