  0
SECTION
  2
BLOCKS
  0
ENDSEC
  0
SECTION
  2
ENTITIES
  0
LINE
  8
0
 10
-87.411
 11
-87.126
 20
-50.467
 21
-49.485
  0
LINE
  8
0
 10
-87.126
 11
-87.025
 20
-49.485
 21
-48.847
  0
LINE
  8
0
 10
-87.025
 11
-86.886
 20
-48.847
 21
-48.568
  0
LINE
  8
0
 10
-86.886
 11
-85.87
 20
-48.568
 21
-45.649
  0
LINE
  8
0
 10
-85.87
 11
-85.774
 20
-45.649
 21
-45.196
  0
LINE
  8
0
 10
-85.774
 11
-85.629
 20
-45.196
 21
-44.94
  0
LINE
  8
0
 10
-85.629
 11
-84.461
 20
-44.94
 21
-42.079
  0
LINE
  8
0
 10
-84.461
 11
-84.389
 20
-42.079
 21
-41.808
  0
LINE
  8
0
 10
-84.389
 11
-84.24
 20
-41.808
 21
-41.574
  0
LINE
  8
0
 10
-84.24
 11
-82.924
 20
-41.574
 21
-38.778
  0
LINE
  8
0
 10
-82.924
 11
-82.893
 20
-38.778
 21
-38.685
  0
LINE
  8
0
 10
-82.893
 11
-82.743
 20
-38.685
 21
-38.474
  0
LINE
  8
0
 10
-82.743
 11
-81.352
 20
-38.474
 21
-35.879
  0
LINE
  8
0
 10
-81.352
 11
-81.163
 20
-35.879
 21
-35.64
  0
LINE
  8
0
 10
-81.163
 11
-79.796
 20
-35.64
 21
-33.383
  0
LINE
  8
0
 10
-79.796
 11
-79.523
 20
-33.383
 21
-33.074
  0
LINE
  8
0
 10
-79.523
 11
-78.214
 20
-33.074
 21
-31.148
  0
LINE
  8
0
 10
-78.214
 11
-77.845
 20
-31.148
 21
-30.771
  0
LINE
  8
0
 10
-77.845
 11
-76.621
 20
-30.771
 21
-29.16
  0
LINE
  8
0
 10
-76.621
 11
-76.153
 20
-29.16
 21
-28.729
  0
LINE
  8
0
 10
-76.153
 11
-75.05
 20
-28.729
 21
-27.424
  0
LINE
  8
0
 10
-75.05
 11
-74.537
 20
-27.424
 21
-27.001
  0
LINE
  8
0
 10
-74.537
 11
-73.732
 20
-27.001
 21
-27.181
  0
LINE
  8
0
 10
-73.732
 11
-71.342
 20
-27.181
 21
-27.406
  0
LINE
  8
0
 10
-71.342
 11
-70.659
 20
-27.406
 21
-27.522
  0
LINE
  8
0
 10
-70.659
 11
-67.571
 20
-27.522
 21
-27.651
  0
LINE
  8
0
 10
-67.571
 11
-67.188
 20
-27.651
 21
-27.619
  0
LINE
  8
0
 10
-67.188
 11
-64.666
 20
-27.619
 21
-27.592
  0
LINE
  8
0
 10
-64.666
 11
-63.225
 20
-27.592
 21
-27.395
  0
LINE
  8
0
 10
-63.225
 11
-61.956
 20
-27.395
 21
-27.315
  0
LINE
  8
0
 10
-61.956
 11
-59.471
 20
-27.315
 21
-26.842
  0
LINE
  8
0
 10
-59.471
 11
-59.456
 20
-26.842
 21
-26.84
  0
LINE
  8
0
 10
-59.456
 11
-59.436
 20
-26.84
 21
-26.835
  0
LINE
  8
0
 10
-59.436
 11
-58.921
 20
-26.835
 21
-26.737
  0
LINE
  8
0
 10
-58.921
 11
-58.569
 20
-26.737
 21
-26.622
  0
LINE
  8
0
 10
-58.569
 11
-56.455
 20
-26.622
 21
-26.104
  0
LINE
  8
0
 10
-56.455
 11
-54.834
 20
-26.104
 21
-25.481
  0
LINE
  8
0
 10
-54.834
 11
-54.219
 20
-25.481
 21
-25.296
  0
LINE
  8
0
 10
-54.219
 11
-51.396
 20
-25.296
 21
-24.038
  0
LINE
  8
0
 10
-51.396
 11
-50.092
 20
-24.038
 21
-23.249
  0
LINE
  8
0
 10
-50.092
 11
-49.471
 20
-23.249
 21
-22.932
  0
LINE
  8
0
 10
-49.471
 11
-46.916
 20
-22.932
 21
-21.196
  0
LINE
  8
0
 10
-46.916
 11
-45.533
 20
-21.196
 21
-19.976
  0
LINE
  8
0
 10
-45.533
 11
-45.344
 20
-19.976
 21
-19.833
  0
LINE
  8
0
 10
-45.344
 11
-45.106
 20
-19.833
 21
-19.6
  0
LINE
  8
0
 10
-45.106
 11
-44.598
 20
-19.6
 21
-19.152
  0
LINE
  8
0
 10
-44.598
 11
-44.279
 20
-19.152
 21
-18.79
  0
LINE
  8
0
 10
-44.279
 11
-43.136
 20
-18.79
 21
-17.671
  0
LINE
  8
0
 10
-43.136
 11
-41.217
 20
-17.671
 21
-15.249
  0
LINE
  8
0
 10
-41.217
 11
-40.461
 20
-15.249
 21
-14
  0
LINE
  8
0
 10
-40.461
 11
-40.163
 20
-14
 21
-13.581
  0
LINE
  8
0
 10
-40.163
 11
-39.821
 20
-13.581
 21
-12.944
  0
LINE
  8
0
 10
-39.821
 11
-39.617
 20
-12.944
 21
-12.606
  0
LINE
  8
0
 10
-39.617
 11
-39.502
 20
-12.606
 21
-12.348
  0
LINE
  8
0
 10
-39.502
 11
-38.703
 20
-12.348
 21
-10.857
  0
LINE
  8
0
 10
-38.703
 11
-37.596
 20
-10.857
 21
-7.972
  0
LINE
  8
0
 10
-37.596
 11
-37.183
 20
-7.972
 21
-6.293
  0
LINE
  8
0
 10
-37.183
 11
-37.127
 20
-6.293
 21
-6.119
  0
LINE
  8
0
 10
-37.127
 11
-37.079
 20
-6.119
 21
-5.868
  0
LINE
  8
0
 10
-37.079
 11
-36.859
 20
-5.868
 21
-4.972
  0
LINE
  8
0
 10
-36.859
 11
-36.783
 20
-4.972
 21
-4.317
  0
LINE
  8
0
 10
-36.783
 11
-36.548
 20
-4.317
 21
-3.084
  0
LINE
  8
0
 10
-36.548
 11
-36.354
 20
-3.084
 21
0
  0
LINE
  8
0
 10
-36.354
 11
-36.548
 20
0
 21
3.084
  0
LINE
  8
0
 10
-36.548
 11
-36.783
 20
3.084
 21
4.317
  0
LINE
  8
0
 10
-36.783
 11
-36.859
 20
4.317
 21
4.972
  0
LINE
  8
0
 10
-36.859
 11
-37.079
 20
4.972
 21
5.868
  0
LINE
  8
0
 10
-37.079
 11
-37.127
 20
5.868
 21
6.119
  0
LINE
  8
0
 10
-37.127
 11
-37.183
 20
6.119
 21
6.293
  0
LINE
  8
0
 10
-37.183
 11
-37.596
 20
6.293
 21
7.972
  0
LINE
  8
0
 10
-37.596
 11
-38.703
 20
7.972
 21
10.857
  0
LINE
  8
0
 10
-38.703
 11
-39.502
 20
10.857
 21
12.348
  0
LINE
  8
0
 10
-39.502
 11
-39.617
 20
12.348
 21
12.606
  0
LINE
  8
0
 10
-39.617
 11
-39.821
 20
12.606
 21
12.944
  0
LINE
  8
0
 10
-39.821
 11
-40.163
 20
12.944
 21
13.581
  0
LINE
  8
0
 10
-40.163
 11
-40.461
 20
13.581
 21
14
  0
LINE
  8
0
 10
-40.461
 11
-41.217
 20
14
 21
15.249
  0
LINE
  8
0
 10
-41.217
 11
-43.136
 20
15.249
 21
17.671
  0
LINE
  8
0
 10
-43.136
 11
-44.279
 20
17.671
 21
18.79
  0
LINE
  8
0
 10
-44.279
 11
-44.598
 20
18.79
 21
19.152
  0
LINE
  8
0
 10
-44.598
 11
-45.106
 20
19.152
 21
19.6
  0
LINE
  8
0
 10
-45.106
 11
-45.344
 20
19.6
 21
19.833
  0
LINE
  8
0
 10
-45.344
 11
-45.533
 20
19.833
 21
19.976
  0
LINE
  8
0
 10
-45.533
 11
-46.916
 20
19.976
 21
21.196
  0
LINE
  8
0
 10
-46.916
 11
-49.471
 20
21.196
 21
22.932
  0
LINE
  8
0
 10
-49.471
 11
-50.092
 20
22.932
 21
23.249
  0
LINE
  8
0
 10
-50.092
 11
-51.396
 20
23.249
 21
24.038
  0
LINE
  8
0
 10
-51.396
 11
-54.219
 20
24.038
 21
25.296
  0
LINE
  8
0
 10
-54.219
 11
-54.834
 20
25.296
 21
25.481
  0
LINE
  8
0
 10
-54.834
 11
-56.455
 20
25.481
 21
26.104
  0
LINE
  8
0
 10
-56.455
 11
-58.569
 20
26.104
 21
26.622
  0
LINE
  8
0
 10
-58.569
 11
-58.921
 20
26.622
 21
26.737
  0
LINE
  8
0
 10
-58.921
 11
-59.436
 20
26.737
 21
26.835
  0
LINE
  8
0
 10
-59.436
 11
-59.456
 20
26.835
 21
26.84
  0
LINE
  8
0
 10
-59.456
 11
-59.471
 20
26.84
 21
26.842
  0
LINE
  8
0
 10
-59.471
 11
-61.956
 20
26.842
 21
27.315
  0
LINE
  8
0
 10
-61.956
 11
-63.225
 20
27.315
 21
27.395
  0
LINE
  8
0
 10
-63.225
 11
-64.666
 20
27.395
 21
27.592
  0
LINE
  8
0
 10
-64.666
 11
-67.188
 20
27.592
 21
27.619
  0
LINE
  8
0
 10
-67.188
 11
-67.571
 20
27.619
 21
27.651
  0
LINE
  8
0
 10
-67.571
 11
-70.659
 20
27.651
 21
27.522
  0
LINE
  8
0
 10
-70.659
 11
-71.342
 20
27.522
 21
27.406
  0
LINE
  8
0
 10
-71.342
 11
-73.732
 20
27.406
 21
27.181
  0
LINE
  8
0
 10
-73.732
 11
-74.537
 20
27.181
 21
27.001
  0
LINE
  8
0
 10
-74.537
 11
-75.05
 20
27.001
 21
27.424
  0
LINE
  8
0
 10
-75.05
 11
-76.153
 20
27.424
 21
28.729
  0
LINE
  8
0
 10
-76.153
 11
-76.621
 20
28.729
 21
29.16
  0
LINE
  8
0
 10
-76.621
 11
-77.845
 20
29.16
 21
30.771
  0
LINE
  8
0
 10
-77.845
 11
-78.214
 20
30.771
 21
31.148
  0
LINE
  8
0
 10
-78.214
 11
-79.523
 20
31.148
 21
33.074
  0
LINE
  8
0
 10
-79.523
 11
-79.796
 20
33.074
 21
33.383
  0
LINE
  8
0
 10
-79.796
 11
-81.163
 20
33.383
 21
35.64
  0
LINE
  8
0
 10
-81.163
 11
-81.352
 20
35.64
 21
35.879
  0
LINE
  8
0
 10
-81.352
 11
-82.743
 20
35.879
 21
38.474
  0
LINE
  8
0
 10
-82.743
 11
-82.893
 20
38.474
 21
38.685
  0
LINE
  8
0
 10
-82.893
 11
-82.924
 20
38.685
 21
38.778
  0
LINE
  8
0
 10
-82.924
 11
-84.24
 20
38.778
 21
41.574
  0
LINE
  8
0
 10
-84.24
 11
-84.389
 20
41.574
 21
41.808
  0
LINE
  8
0
 10
-84.389
 11
-84.461
 20
41.808
 21
42.079
  0
LINE
  8
0
 10
-84.461
 11
-85.629
 20
42.079
 21
44.94
  0
LINE
  8
0
 10
-85.629
 11
-85.774
 20
44.94
 21
45.196
  0
LINE
  8
0
 10
-85.774
 11
-85.87
 20
45.196
 21
45.649
  0
LINE
  8
0
 10
-85.87
 11
-86.886
 20
45.649
 21
48.568
  0
LINE
  8
0
 10
-86.886
 11
-87.025
 20
48.568
 21
48.847
  0
LINE
  8
0
 10
-87.025
 11
-87.126
 20
48.847
 21
49.485
  0
LINE
  8
0
 10
-87.126
 11
-87.411
 20
49.485
 21
50.467
  0
LINE
  8
0
 10
-87.411
 11
-86.418
 20
50.467
 21
50.711
  0
LINE
  8
0
 10
-86.418
 11
-85.815
 20
50.711
 21
50.942
  0
LINE
  8
0
 10
-85.815
 11
-85.504
 20
50.942
 21
50.962
  0
LINE
  8
0
 10
-85.504
 11
-82.468
 20
50.962
 21
51.541
  0
LINE
  8
0
 10
-82.468
 11
-82.028
 20
51.541
 21
51.684
  0
LINE
  8
0
 10
-82.028
 11
-81.734
 20
51.684
 21
51.687
  0
LINE
  8
0
 10
-81.734
 11
-78.672
 20
51.687
 21
52.106
  0
LINE
  8
0
 10
-78.672
 11
-78.401
 20
52.106
 21
52.179
  0
LINE
  8
0
 10
-78.401
 11
-78.124
 20
52.179
 21
52.167
  0
LINE
  8
0
 10
-78.124
 11
-75.045
 20
52.167
 21
52.425
  0
LINE
  8
0
 10
-75.045
 11
-74.949
 20
52.425
 21
52.445
  0
LINE
  8
0
 10
-74.949
 11
-74.691
 20
52.445
 21
52.421
  0
LINE
  8
0
 10
-74.691
 11
-71.748
 20
52.421
 21
52.513
  0
LINE
  8
0
 10
-71.748
 11
-71.447
 20
52.513
 21
52.469
  0
LINE
  8
0
 10
-71.447
 11
-68.809
 20
52.469
 21
52.414
  0
LINE
  8
0
 10
-68.809
 11
-68.404
 20
52.414
 21
52.332
  0
LINE
  8
0
 10
-68.404
 11
-66.082
 20
52.332
 21
52.161
  0
LINE
  8
0
 10
-66.082
 11
-65.571
 20
52.161
 21
52.03
  0
LINE
  8
0
 10
-65.571
 11
-63.564
 20
52.03
 21
51.776
  0
LINE
  8
0
 10
-63.564
 11
-62.957
 20
51.776
 21
51.586
  0
LINE
  8
0
 10
-62.957
 11
-61.275
 20
51.586
 21
51.283
  0
LINE
  8
0
 10
-61.275
 11
-60.652
 20
51.283
 21
51.051
  0
LINE
  8
0
 10
-60.652
 11
-60.405
 20
51.051
 21
50.263
  0
LINE
  8
0
 10
-60.405
 11
-59.405
 20
50.263
 21
48.081
  0
LINE
  8
0
 10
-59.405
 11
-59.164
 20
48.081
 21
47.431
  0
LINE
  8
0
 10
-59.164
 11
-57.732
 20
47.431
 21
44.693
  0
LINE
  8
0
 10
-57.732
 11
-57.513
 20
44.693
 21
44.377
  0
LINE
  8
0
 10
-57.513
 11
-56.228
 20
44.377
 21
42.206
  0
LINE
  8
0
 10
-56.228
 11
-55.337
 20
42.206
 21
41.057
  0
LINE
  8
0
 10
-55.337
 11
-54.633
 20
41.057
 21
39.998
  0
LINE
  8
0
 10
-54.633
 11
-52.981
 20
39.998
 21
38.082
  0
LINE
  8
0
 10
-52.981
 11
-52.972
 20
38.082
 21
38.07
  0
LINE
  8
0
 10
-52.972
 11
-52.958
 20
38.07
 21
38.056
  0
LINE
  8
0
 10
-52.958
 11
-52.615
 20
38.056
 21
37.659
  0
LINE
  8
0
 10
-52.615
 11
-52.34
 20
37.659
 21
37.411
  0
LINE
  8
0
 10
-52.34
 11
-50.834
 20
37.411
 21
35.839
  0
LINE
  8
0
 10
-50.834
 11
-49.484
 20
35.839
 21
34.747
  0
LINE
  8
0
 10
-49.484
 11
-49.016
 20
34.747
 21
34.307
  0
LINE
  8
0
 10
-49.016
 11
-46.516
 20
34.307
 21
32.491
  0
LINE
  8
0
 10
-46.516
 11
-45.18
 20
32.491
 21
31.756
  0
LINE
  8
0
 10
-45.18
 11
-44.595
 20
31.756
 21
31.377
  0
LINE
  8
0
 10
-44.595
 11
-41.814
 20
31.377
 21
30.032
  0
LINE
  8
0
 10
-41.814
 11
-40.066
 20
30.032
 21
29.445
  0
LINE
  8
0
 10
-40.066
 11
-39.848
 20
29.445
 21
29.353
  0
LINE
  8
0
 10
-39.848
 11
-39.527
 20
29.353
 21
29.263
  0
LINE
  8
0
 10
-39.527
 11
-38.885
 20
29.263
 21
29.047
  0
LINE
  8
0
 10
-38.885
 11
-38.412
 20
29.047
 21
28.952
  0
LINE
  8
0
 10
-38.412
 11
-36.872
 20
28.952
 21
28.521
  0
LINE
  8
0
 10
-36.872
 11
-33.815
 20
28.521
 21
28.07
  0
LINE
  8
0
 10
-33.815
 11
-32.355
 20
28.07
 21
28.04
  0
LINE
  8
0
 10
-32.355
 11
-31.843
 20
28.04
 21
27.992
  0
LINE
  8
0
 10
-31.843
 11
-31.12
 20
27.992
 21
28.014
  0
LINE
  8
0
 10
-31.12
 11
-30.726
 20
28.014
 21
28.006
  0
LINE
  8
0
 10
-30.726
 11
-30.445
 20
28.006
 21
28.036
  0
LINE
  8
0
 10
-30.445
 11
-28.754
 20
28.036
 21
28.089
  0
LINE
  8
0
 10
-28.754
 11
-25.702
 20
28.089
 21
28.573
  0
LINE
  8
0
 10
-25.702
 11
-24.041
 20
28.573
 21
29.055
  0
LINE
  8
0
 10
-24.041
 11
-23.863
 20
29.055
 21
29.093
  0
LINE
  8
0
 10
-23.863
 11
-23.621
 20
29.093
 21
29.177
  0
LINE
  8
0
 10
-23.621
 11
-22.735
 20
29.177
 21
29.435
  0
LINE
  8
0
 10
-22.735
 11
-22.13
 20
29.435
 21
29.697
  0
LINE
  8
0
 10
-22.13
 11
-20.945
 20
29.697
 21
30.109
  0
LINE
  8
0
 10
-20.945
 11
-18.177
 20
30.109
 21
31.483
  0
LINE
  8
0
 10
-18.177
 11
-15.603
 20
31.483
 21
33.193
  0
LINE
  8
0
 10
-15.603
 11
-14.653
 20
33.193
 21
34.014
  0
LINE
  8
0
 10
-14.653
 11
-14.124
 20
34.014
 21
34.407
  0
LINE
  8
0
 10
-14.124
 11
-13.458
 20
34.407
 21
35.045
  0
LINE
  8
0
 10
-13.458
 11
-13.264
 20
35.045
 21
35.212
  0
LINE
  8
0
 10
-13.264
 11
-13.142
 20
35.212
 21
35.348
  0
LINE
  8
0
 10
-13.142
 11
-11.894
 20
35.348
 21
36.545
  0
LINE
  8
0
 10
-11.894
 11
-9.949
 20
36.545
 21
38.946
  0
LINE
  8
0
 10
-9.949
 11
-9.057
 20
38.946
 21
40.384
  0
LINE
  8
0
 10
-9.057
 11
-8.891
 20
40.384
 21
40.612
  0
LINE
  8
0
 10
-8.891
 11
-8.701
 20
40.612
 21
40.958
  0
LINE
  8
0
 10
-8.701
 11
-8.32
 20
40.958
 21
41.573
  0
LINE
  8
0
 10
-8.32
 11
-8.106
 20
41.573
 21
42.04
  0
LINE
  8
0
 10
-8.106
 11
-7.402
 20
42.04
 21
43.319
  0
LINE
  8
0
 10
-7.402
 11
-6.264
 20
43.319
 21
46.192
  0
LINE
  8
0
 10
-6.264
 11
-5.867
 20
46.192
 21
47.742
  0
LINE
  8
0
 10
-5.867
 11
-5.713
 20
47.742
 21
48.199
  0
LINE
  8
0
 10
-5.713
 11
-5.579
 20
48.199
 21
48.863
  0
LINE
  8
0
 10
-5.579
 11
-5.496
 20
48.863
 21
49.186
  0
LINE
  8
0
 10
-5.496
 11
-5.467
 20
49.186
 21
49.421
  0
LINE
  8
0
 10
-5.467
 11
-5.102
 20
49.421
 21
51.228
  0
LINE
  8
0
 10
-5.102
 11
-4.876
 20
51.228
 21
54.309
  0
LINE
  8
0
 10
-4.876
 11
-4.912
 20
54.309
 21
55.005
  0
LINE
  8
0
 10
-4.912
 11
-4.88
 20
55.005
 21
56.529
  0
LINE
  8
0
 10
-4.88
 11
-5.203
 20
56.529
 21
59.603
  0
LINE
  8
0
 10
-5.203
 11
-5.35
 20
59.603
 21
60.228
  0
LINE
  8
0
 10
-5.35
 11
-5.621
 20
60.228
 21
61.943
  0
LINE
  8
0
 10
-5.621
 11
-6.229
 20
61.943
 21
64.033
  0
LINE
  8
0
 10
-6.229
 11
-6.306
 20
64.033
 21
64.396
  0
LINE
  8
0
 10
-6.306
 11
-6.478
 20
64.396
 21
64.891
  0
LINE
  8
0
 10
-6.478
 11
-6.484
 20
64.891
 21
64.91
  0
LINE
  8
0
 10
-6.484
 11
-6.49
 20
64.91
 21
64.924
  0
LINE
  8
0
 10
-6.49
 11
-7.323
 20
64.924
 21
67.313
  0
LINE
  8
0
 10
-7.323
 11
-7.888
 20
67.313
 21
68.452
  0
LINE
  8
0
 10
-7.888
 11
-8.438
 20
68.452
 21
69.798
  0
LINE
  8
0
 10
-8.438
 11
-9.675
 20
69.798
 21
71.996
  0
LINE
  8
0
 10
-9.675
 11
-9.839
 20
71.996
 21
72.344
  0
LINE
  8
0
 10
-9.839
 11
-11.495
 20
72.344
 21
74.953
  0
LINE
  8
0
 10
-11.495
 11
-11.937
 20
74.953
 21
75.487
  0
LINE
  8
0
 10
-11.937
 11
-13.327
 20
75.487
 21
77.444
  0
LINE
  8
0
 10
-13.327
 11
-13.886
 20
77.444
 21
78.051
  0
LINE
  8
0
 10
-13.886
 11
-13.775
 20
78.051
 21
78.707
  0
LINE
  8
0
 10
-13.775
 11
-13.196
 20
78.707
 21
80.315
  0
LINE
  8
0
 10
-13.196
 11
-13.057
 20
80.315
 21
80.936
  0
LINE
  8
0
 10
-13.057
 11
-12.274
 20
80.936
 21
82.801
  0
LINE
  8
0
 10
-12.274
 11
-12.132
 20
82.801
 21
83.309
  0
LINE
  8
0
 10
-12.132
 11
-11.119
 20
83.309
 21
85.406
  0
LINE
  8
0
 10
-11.119
 11
-10.987
 20
85.406
 21
85.797
  0
LINE
  8
0
 10
-10.987
 11
-9.716
 20
85.797
 21
88.109
  0
LINE
  8
0
 10
-9.716
 11
-9.604
 20
88.109
 21
88.392
  0
LINE
  8
0
 10
-9.604
 11
-8.052
 20
88.392
 21
90.895
  0
LINE
  8
0
 10
-8.052
 11
-7.944
 20
90.895
 21
91.13
  0
LINE
  8
0
 10
-7.944
 11
-7.879
 20
91.13
 21
91.203
  0
LINE
  8
0
 10
-7.879
 11
-6.116
 20
91.203
 21
93.741
  0
LINE
  8
0
 10
-6.116
 11
-5.988
 20
93.741
 21
93.987
  0
LINE
  8
0
 10
-5.988
 11
-5.789
 20
93.987
 21
94.185
  0
LINE
  8
0
 10
-5.789
 11
-3.895
 20
94.185
 21
96.627
  0
LINE
  8
0
 10
-3.895
 11
-3.746
 20
96.627
 21
96.88
  0
LINE
  8
0
 10
-3.746
 11
-3.402
 20
96.88
 21
97.19
  0
LINE
  8
0
 10
-3.402
 11
-1.382
 20
97.19
 21
99.53
  0
LINE
  8
0
 10
-1.382
 11
-1.21
 20
99.53
 21
99.789
  0
LINE
  8
0
 10
-1.21
 11
-0.708
 20
99.789
 21
100.196
  0
LINE
  8
0
 10
-0.708
 11
0
 20
100.196
 21
100.934
  0
LINE
  8
0
 10
0
 11
0.708
 20
100.934
 21
100.196
  0
LINE
  8
0
 10
0.708
 11
1.21
 20
100.196
 21
99.789
  0
LINE
  8
0
 10
1.21
 11
1.382
 20
99.789
 21
99.53
  0
LINE
  8
0
 10
1.382
 11
3.402
 20
99.53
 21
97.19
  0
LINE
  8
0
 10
3.402
 11
3.746
 20
97.19
 21
96.88
  0
LINE
  8
0
 10
3.746
 11
3.895
 20
96.88
 21
96.627
  0
LINE
  8
0
 10
3.895
 11
5.789
 20
96.627
 21
94.185
  0
LINE
  8
0
 10
5.789
 11
5.988
 20
94.185
 21
93.987
  0
LINE
  8
0
 10
5.988
 11
6.116
 20
93.987
 21
93.741
  0
LINE
  8
0
 10
6.116
 11
7.879
 20
93.741
 21
91.203
  0
LINE
  8
0
 10
7.879
 11
7.944
 20
91.203
 21
91.13
  0
LINE
  8
0
 10
7.944
 11
8.052
 20
91.13
 21
90.895
  0
LINE
  8
0
 10
8.052
 11
9.604
 20
90.895
 21
88.392
  0
LINE
  8
0
 10
9.604
 11
9.716
 20
88.392
 21
88.109
  0
LINE
  8
0
 10
9.716
 11
10.987
 20
88.109
 21
85.797
  0
LINE
  8
0
 10
10.987
 11
11.119
 20
85.797
 21
85.406
  0
LINE
  8
0
 10
11.119
 11
12.132
 20
85.406
 21
83.309
  0
LINE
  8
0
 10
12.132
 11
12.274
 20
83.309
 21
82.801
  0
LINE
  8
0
 10
12.274
 11
13.057
 20
82.801
 21
80.936
  0
LINE
  8
0
 10
13.057
 11
13.196
 20
80.936
 21
80.315
  0
LINE
  8
0
 10
13.196
 11
13.775
 20
80.315
 21
78.707
  0
LINE
  8
0
 10
13.775
 11
13.886
 20
78.707
 21
78.051
  0
LINE
  8
0
 10
13.886
 11
13.327
 20
78.051
 21
77.444
  0
LINE
  8
0
 10
13.327
 11
11.937
 20
77.444
 21
75.487
  0
LINE
  8
0
 10
11.937
 11
11.495
 20
75.487
 21
74.953
  0
LINE
  8
0
 10
11.495
 11
9.839
 20
74.953
 21
72.344
  0
LINE
  8
0
 10
9.839
 11
9.675
 20
72.344
 21
71.996
  0
LINE
  8
0
 10
9.675
 11
8.438
 20
71.996
 21
69.798
  0
LINE
  8
0
 10
8.438
 11
7.888
 20
69.798
 21
68.452
  0
LINE
  8
0
 10
7.888
 11
7.323
 20
68.452
 21
67.313
  0
LINE
  8
0
 10
7.323
 11
6.49
 20
67.313
 21
64.924
  0
LINE
  8
0
 10
6.49
 11
6.484
 20
64.924
 21
64.91
  0
LINE
  8
0
 10
6.484
 11
6.478
 20
64.91
 21
64.891
  0
LINE
  8
0
 10
6.478
 11
6.306
 20
64.891
 21
64.396
  0
LINE
  8
0
 10
6.306
 11
6.229
 20
64.396
 21
64.033
  0
LINE
  8
0
 10
6.229
 11
5.621
 20
64.033
 21
61.943
  0
LINE
  8
0
 10
5.621
 11
5.35
 20
61.943
 21
60.228
  0
LINE
  8
0
 10
5.35
 11
5.203
 20
60.228
 21
59.603
  0
LINE
  8
0
 10
5.203
 11
4.88
 20
59.603
 21
56.529
  0
LINE
  8
0
 10
4.88
 11
4.912
 20
56.529
 21
55.005
  0
LINE
  8
0
 10
4.912
 11
4.876
 20
55.005
 21
54.309
  0
LINE
  8
0
 10
4.876
 11
5.102
 20
54.309
 21
51.228
  0
LINE
  8
0
 10
5.102
 11
5.467
 20
51.228
 21
49.421
  0
LINE
  8
0
 10
5.467
 11
5.496
 20
49.421
 21
49.186
  0
LINE
  8
0
 10
5.496
 11
5.579
 20
49.186
 21
48.863
  0
LINE
  8
0
 10
5.579
 11
5.713
 20
48.863
 21
48.199
  0
LINE
  8
0
 10
5.713
 11
5.867
 20
48.199
 21
47.742
  0
LINE
  8
0
 10
5.867
 11
6.264
 20
47.742
 21
46.192
  0
LINE
  8
0
 10
6.264
 11
7.402
 20
46.192
 21
43.319
  0
LINE
  8
0
 10
7.402
 11
8.106
 20
43.319
 21
42.04
  0
LINE
  8
0
 10
8.106
 11
8.32
 20
42.04
 21
41.573
  0
LINE
  8
0
 10
8.32
 11
8.701
 20
41.573
 21
40.958
  0
LINE
  8
0
 10
8.701
 11
8.891
 20
40.958
 21
40.612
  0
LINE
  8
0
 10
8.891
 11
9.057
 20
40.612
 21
40.384
  0
LINE
  8
0
 10
9.057
 11
9.949
 20
40.384
 21
38.946
  0
LINE
  8
0
 10
9.949
 11
11.894
 20
38.946
 21
36.545
  0
LINE
  8
0
 10
11.894
 11
13.142
 20
36.545
 21
35.348
  0
LINE
  8
0
 10
13.142
 11
13.264
 20
35.348
 21
35.212
  0
LINE
  8
0
 10
13.264
 11
13.458
 20
35.212
 21
35.045
  0
LINE
  8
0
 10
13.458
 11
14.124
 20
35.045
 21
34.407
  0
LINE
  8
0
 10
14.124
 11
14.653
 20
34.407
 21
34.014
  0
LINE
  8
0
 10
14.653
 11
15.603
 20
34.014
 21
33.193
  0
LINE
  8
0
 10
15.603
 11
18.177
 20
33.193
 21
31.483
  0
LINE
  8
0
 10
18.177
 11
20.945
 20
31.483
 21
30.109
  0
LINE
  8
0
 10
20.945
 11
22.13
 20
30.109
 21
29.697
  0
LINE
  8
0
 10
22.13
 11
22.735
 20
29.697
 21
29.435
  0
LINE
  8
0
 10
22.735
 11
23.621
 20
29.435
 21
29.177
  0
LINE
  8
0
 10
23.621
 11
23.863
 20
29.177
 21
29.093
  0
LINE
  8
0
 10
23.863
 11
24.041
 20
29.093
 21
29.055
  0
LINE
  8
0
 10
24.041
 11
25.702
 20
29.055
 21
28.573
  0
LINE
  8
0
 10
25.702
 11
28.754
 20
28.573
 21
28.089
  0
LINE
  8
0
 10
28.754
 11
30.445
 20
28.089
 21
28.036
  0
LINE
  8
0
 10
30.445
 11
30.726
 20
28.036
 21
28.006
  0
LINE
  8
0
 10
30.726
 11
31.12
 20
28.006
 21
28.014
  0
LINE
  8
0
 10
31.12
 11
31.843
 20
28.014
 21
27.992
  0
LINE
  8
0
 10
31.843
 11
32.355
 20
27.992
 21
28.04
  0
LINE
  8
0
 10
32.355
 11
33.815
 20
28.04
 21
28.07
  0
LINE
  8
0
 10
33.815
 11
36.872
 20
28.07
 21
28.521
  0
LINE
  8
0
 10
36.872
 11
38.412
 20
28.521
 21
28.952
  0
LINE
  8
0
 10
38.412
 11
38.885
 20
28.952
 21
29.047
  0
LINE
  8
0
 10
38.885
 11
39.527
 20
29.047
 21
29.263
  0
LINE
  8
0
 10
39.527
 11
39.848
 20
29.263
 21
29.353
  0
LINE
  8
0
 10
39.848
 11
40.066
 20
29.353
 21
29.445
  0
LINE
  8
0
 10
40.066
 11
41.814
 20
29.445
 21
30.032
  0
LINE
  8
0
 10
41.814
 11
44.595
 20
30.032
 21
31.377
  0
LINE
  8
0
 10
44.595
 11
45.18
 20
31.377
 21
31.756
  0
LINE
  8
0
 10
45.18
 11
46.516
 20
31.756
 21
32.491
  0
LINE
  8
0
 10
46.516
 11
49.016
 20
32.491
 21
34.307
  0
LINE
  8
0
 10
49.016
 11
49.484
 20
34.307
 21
34.747
  0
LINE
  8
0
 10
49.484
 11
50.834
 20
34.747
 21
35.839
  0
LINE
  8
0
 10
50.834
 11
52.34
 20
35.839
 21
37.411
  0
LINE
  8
0
 10
52.34
 11
52.615
 20
37.411
 21
37.659
  0
LINE
  8
0
 10
52.615
 11
52.958
 20
37.659
 21
38.056
  0
LINE
  8
0
 10
52.958
 11
52.972
 20
38.056
 21
38.07
  0
LINE
  8
0
 10
52.972
 11
52.981
 20
38.07
 21
38.082
  0
LINE
  8
0
 10
52.981
 11
54.633
 20
38.082
 21
39.998
  0
LINE
  8
0
 10
54.633
 11
55.337
 20
39.998
 21
41.057
  0
LINE
  8
0
 10
55.337
 11
56.228
 20
41.057
 21
42.206
  0
LINE
  8
0
 10
56.228
 11
57.513
 20
42.206
 21
44.377
  0
LINE
  8
0
 10
57.513
 11
57.732
 20
44.377
 21
44.693
  0
LINE
  8
0
 10
57.732
 11
59.164
 20
44.693
 21
47.431
  0
LINE
  8
0
 10
59.164
 11
59.405
 20
47.431
 21
48.081
  0
LINE
  8
0
 10
59.405
 11
60.405
 20
48.081
 21
50.263
  0
LINE
  8
0
 10
60.405
 11
60.652
 20
50.263
 21
51.051
  0
LINE
  8
0
 10
60.652
 11
61.275
 20
51.051
 21
51.283
  0
LINE
  8
0
 10
61.275
 11
62.957
 20
51.283
 21
51.586
  0
LINE
  8
0
 10
62.957
 11
63.564
 20
51.586
 21
51.776
  0
LINE
  8
0
 10
63.564
 11
65.571
 20
51.776
 21
52.03
  0
LINE
  8
0
 10
65.571
 11
66.082
 20
52.03
 21
52.161
  0
LINE
  8
0
 10
66.082
 11
68.404
 20
52.161
 21
52.332
  0
LINE
  8
0
 10
68.404
 11
68.809
 20
52.332
 21
52.414
  0
LINE
  8
0
 10
68.809
 11
71.447
 20
52.414
 21
52.469
  0
LINE
  8
0
 10
71.447
 11
71.748
 20
52.469
 21
52.513
  0
LINE
  8
0
 10
71.748
 11
74.691
 20
52.513
 21
52.421
  0
LINE
  8
0
 10
74.691
 11
74.949
 20
52.421
 21
52.445
  0
LINE
  8
0
 10
74.949
 11
75.045
 20
52.445
 21
52.425
  0
LINE
  8
0
 10
75.045
 11
78.124
 20
52.425
 21
52.167
  0
LINE
  8
0
 10
78.124
 11
78.401
 20
52.167
 21
52.179
  0
LINE
  8
0
 10
78.401
 11
78.672
 20
52.179
 21
52.106
  0
LINE
  8
0
 10
78.672
 11
81.734
 20
52.106
 21
51.687
  0
LINE
  8
0
 10
81.734
 11
82.028
 20
51.687
 21
51.684
  0
LINE
  8
0
 10
82.028
 11
82.468
 20
51.684
 21
51.541
  0
LINE
  8
0
 10
82.468
 11
85.504
 20
51.541
 21
50.962
  0
LINE
  8
0
 10
85.504
 11
85.815
 20
50.962
 21
50.942
  0
LINE
  8
0
 10
85.815
 11
86.418
 20
50.942
 21
50.711
  0
LINE
  8
0
 10
86.418
 11
87.411
 20
50.711
 21
50.467
  0
LINE
  8
0
 10
87.411
 11
87.126
 20
50.467
 21
49.485
  0
LINE
  8
0
 10
87.126
 11
87.025
 20
49.485
 21
48.847
  0
LINE
  8
0
 10
87.025
 11
86.886
 20
48.847
 21
48.568
  0
LINE
  8
0
 10
86.886
 11
85.87
 20
48.568
 21
45.649
  0
LINE
  8
0
 10
85.87
 11
85.774
 20
45.649
 21
45.196
  0
LINE
  8
0
 10
85.774
 11
85.629
 20
45.196
 21
44.94
  0
LINE
  8
0
 10
85.629
 11
84.461
 20
44.94
 21
42.079
  0
LINE
  8
0
 10
84.461
 11
84.389
 20
42.079
 21
41.808
  0
LINE
  8
0
 10
84.389
 11
84.24
 20
41.808
 21
41.574
  0
LINE
  8
0
 10
84.24
 11
82.924
 20
41.574
 21
38.778
  0
LINE
  8
0
 10
82.924
 11
82.893
 20
38.778
 21
38.685
  0
LINE
  8
0
 10
82.893
 11
82.743
 20
38.685
 21
38.474
  0
LINE
  8
0
 10
82.743
 11
81.352
 20
38.474
 21
35.879
  0
LINE
  8
0
 10
81.352
 11
81.163
 20
35.879
 21
35.64
  0
LINE
  8
0
 10
81.163
 11
79.796
 20
35.64
 21
33.383
  0
LINE
  8
0
 10
79.796
 11
79.523
 20
33.383
 21
33.074
  0
LINE
  8
0
 10
79.523
 11
78.214
 20
33.074
 21
31.148
  0
LINE
  8
0
 10
78.214
 11
77.845
 20
31.148
 21
30.771
  0
LINE
  8
0
 10
77.845
 11
76.621
 20
30.771
 21
29.16
  0
LINE
  8
0
 10
76.621
 11
76.153
 20
29.16
 21
28.729
  0
LINE
  8
0
 10
76.153
 11
75.05
 20
28.729
 21
27.424
  0
LINE
  8
0
 10
75.05
 11
74.537
 20
27.424
 21
27.001
  0
LINE
  8
0
 10
74.537
 11
73.732
 20
27.001
 21
27.181
  0
LINE
  8
0
 10
73.732
 11
71.342
 20
27.181
 21
27.406
  0
LINE
  8
0
 10
71.342
 11
70.659
 20
27.406
 21
27.522
  0
LINE
  8
0
 10
70.659
 11
67.571
 20
27.522
 21
27.651
  0
LINE
  8
0
 10
67.571
 11
67.188
 20
27.651
 21
27.619
  0
LINE
  8
0
 10
67.188
 11
64.666
 20
27.619
 21
27.592
  0
LINE
  8
0
 10
64.666
 11
63.225
 20
27.592
 21
27.395
  0
LINE
  8
0
 10
63.225
 11
61.956
 20
27.395
 21
27.315
  0
LINE
  8
0
 10
61.956
 11
59.471
 20
27.315
 21
26.842
  0
LINE
  8
0
 10
59.471
 11
59.456
 20
26.842
 21
26.84
  0
LINE
  8
0
 10
59.456
 11
59.436
 20
26.84
 21
26.835
  0
LINE
  8
0
 10
59.436
 11
58.921
 20
26.835
 21
26.737
  0
LINE
  8
0
 10
58.921
 11
58.569
 20
26.737
 21
26.622
  0
LINE
  8
0
 10
58.569
 11
56.455
 20
26.622
 21
26.104
  0
LINE
  8
0
 10
56.455
 11
54.834
 20
26.104
 21
25.481
  0
LINE
  8
0
 10
54.834
 11
54.219
 20
25.481
 21
25.296
  0
LINE
  8
0
 10
54.219
 11
51.396
 20
25.296
 21
24.038
  0
LINE
  8
0
 10
51.396
 11
50.092
 20
24.038
 21
23.249
  0
LINE
  8
0
 10
50.092
 11
49.471
 20
23.249
 21
22.932
  0
LINE
  8
0
 10
49.471
 11
46.916
 20
22.932
 21
21.196
  0
LINE
  8
0
 10
46.916
 11
45.533
 20
21.196
 21
19.976
  0
LINE
  8
0
 10
45.533
 11
45.344
 20
19.976
 21
19.833
  0
LINE
  8
0
 10
45.344
 11
45.106
 20
19.833
 21
19.6
  0
LINE
  8
0
 10
45.106
 11
44.598
 20
19.6
 21
19.152
  0
LINE
  8
0
 10
44.598
 11
44.279
 20
19.152
 21
18.79
  0
LINE
  8
0
 10
44.279
 11
43.136
 20
18.79
 21
17.671
  0
LINE
  8
0
 10
43.136
 11
41.217
 20
17.671
 21
15.249
  0
LINE
  8
0
 10
41.217
 11
40.461
 20
15.249
 21
14
  0
LINE
  8
0
 10
40.461
 11
40.163
 20
14
 21
13.581
  0
LINE
  8
0
 10
40.163
 11
39.821
 20
13.581
 21
12.944
  0
LINE
  8
0
 10
39.821
 11
39.617
 20
12.944
 21
12.606
  0
LINE
  8
0
 10
39.617
 11
39.502
 20
12.606
 21
12.348
  0
LINE
  8
0
 10
39.502
 11
38.703
 20
12.348
 21
10.857
  0
LINE
  8
0
 10
38.703
 11
37.596
 20
10.857
 21
7.972
  0
LINE
  8
0
 10
37.596
 11
37.183
 20
7.972
 21
6.293
  0
LINE
  8
0
 10
37.183
 11
37.127
 20
6.293
 21
6.119
  0
LINE
  8
0
 10
37.127
 11
37.079
 20
6.119
 21
5.868
  0
LINE
  8
0
 10
37.079
 11
36.859
 20
5.868
 21
4.972
  0
LINE
  8
0
 10
36.859
 11
36.783
 20
4.972
 21
4.317
  0
LINE
  8
0
 10
36.783
 11
36.548
 20
4.317
 21
3.084
  0
LINE
  8
0
 10
36.548
 11
36.354
 20
3.084
 21
0
  0
LINE
  8
0
 10
36.354
 11
36.548
 20
0
 21
-3.084
  0
LINE
  8
0
 10
36.548
 11
36.783
 20
-3.084
 21
-4.317
  0
LINE
  8
0
 10
36.783
 11
36.859
 20
-4.317
 21
-4.972
  0
LINE
  8
0
 10
36.859
 11
37.079
 20
-4.972
 21
-5.868
  0
LINE
  8
0
 10
37.079
 11
37.127
 20
-5.868
 21
-6.119
  0
LINE
  8
0
 10
37.127
 11
37.183
 20
-6.119
 21
-6.293
  0
LINE
  8
0
 10
37.183
 11
37.596
 20
-6.293
 21
-7.972
  0
LINE
  8
0
 10
37.596
 11
38.703
 20
-7.972
 21
-10.857
  0
LINE
  8
0
 10
38.703
 11
39.502
 20
-10.857
 21
-12.348
  0
LINE
  8
0
 10
39.502
 11
39.617
 20
-12.348
 21
-12.606
  0
LINE
  8
0
 10
39.617
 11
39.821
 20
-12.606
 21
-12.944
  0
LINE
  8
0
 10
39.821
 11
40.163
 20
-12.944
 21
-13.581
  0
LINE
  8
0
 10
40.163
 11
40.461
 20
-13.581
 21
-14
  0
LINE
  8
0
 10
40.461
 11
41.217
 20
-14
 21
-15.249
  0
LINE
  8
0
 10
41.217
 11
43.136
 20
-15.249
 21
-17.671
  0
LINE
  8
0
 10
43.136
 11
44.279
 20
-17.671
 21
-18.79
  0
LINE
  8
0
 10
44.279
 11
44.598
 20
-18.79
 21
-19.152
  0
LINE
  8
0
 10
44.598
 11
45.106
 20
-19.152
 21
-19.6
  0
LINE
  8
0
 10
45.106
 11
45.344
 20
-19.6
 21
-19.833
  0
LINE
  8
0
 10
45.344
 11
45.533
 20
-19.833
 21
-19.976
  0
LINE
  8
0
 10
45.533
 11
46.916
 20
-19.976
 21
-21.196
  0
LINE
  8
0
 10
46.916
 11
49.471
 20
-21.196
 21
-22.932
  0
LINE
  8
0
 10
49.471
 11
50.092
 20
-22.932
 21
-23.249
  0
LINE
  8
0
 10
50.092
 11
51.396
 20
-23.249
 21
-24.038
  0
LINE
  8
0
 10
51.396
 11
54.219
 20
-24.038
 21
-25.296
  0
LINE
  8
0
 10
54.219
 11
54.834
 20
-25.296
 21
-25.481
  0
LINE
  8
0
 10
54.834
 11
56.455
 20
-25.481
 21
-26.104
  0
LINE
  8
0
 10
56.455
 11
58.569
 20
-26.104
 21
-26.622
  0
LINE
  8
0
 10
58.569
 11
58.921
 20
-26.622
 21
-26.737
  0
LINE
  8
0
 10
58.921
 11
59.436
 20
-26.737
 21
-26.835
  0
LINE
  8
0
 10
59.436
 11
59.456
 20
-26.835
 21
-26.84
  0
LINE
  8
0
 10
59.456
 11
59.471
 20
-26.84
 21
-26.842
  0
LINE
  8
0
 10
59.471
 11
61.956
 20
-26.842
 21
-27.315
  0
LINE
  8
0
 10
61.956
 11
63.225
 20
-27.315
 21
-27.395
  0
LINE
  8
0
 10
63.225
 11
64.666
 20
-27.395
 21
-27.592
  0
LINE
  8
0
 10
64.666
 11
67.188
 20
-27.592
 21
-27.619
  0
LINE
  8
0
 10
67.188
 11
67.571
 20
-27.619
 21
-27.651
  0
LINE
  8
0
 10
67.571
 11
70.659
 20
-27.651
 21
-27.522
  0
LINE
  8
0
 10
70.659
 11
71.342
 20
-27.522
 21
-27.406
  0
LINE
  8
0
 10
71.342
 11
73.732
 20
-27.406
 21
-27.181
  0
LINE
  8
0
 10
73.732
 11
74.537
 20
-27.181
 21
-27.001
  0
LINE
  8
0
 10
74.537
 11
75.05
 20
-27.001
 21
-27.424
  0
LINE
  8
0
 10
75.05
 11
76.153
 20
-27.424
 21
-28.729
  0
LINE
  8
0
 10
76.153
 11
76.621
 20
-28.729
 21
-29.16
  0
LINE
  8
0
 10
76.621
 11
77.845
 20
-29.16
 21
-30.771
  0
LINE
  8
0
 10
77.845
 11
78.214
 20
-30.771
 21
-31.148
  0
LINE
  8
0
 10
78.214
 11
79.523
 20
-31.148
 21
-33.074
  0
LINE
  8
0
 10
79.523
 11
79.796
 20
-33.074
 21
-33.383
  0
LINE
  8
0
 10
79.796
 11
81.163
 20
-33.383
 21
-35.64
  0
LINE
  8
0
 10
81.163
 11
81.352
 20
-35.64
 21
-35.879
  0
LINE
  8
0
 10
81.352
 11
82.743
 20
-35.879
 21
-38.474
  0
LINE
  8
0
 10
82.743
 11
82.893
 20
-38.474
 21
-38.685
  0
LINE
  8
0
 10
82.893
 11
82.924
 20
-38.685
 21
-38.778
  0
LINE
  8
0
 10
82.924
 11
84.24
 20
-38.778
 21
-41.574
  0
LINE
  8
0
 10
84.24
 11
84.389
 20
-41.574
 21
-41.808
  0
LINE
  8
0
 10
84.389
 11
84.461
 20
-41.808
 21
-42.079
  0
LINE
  8
0
 10
84.461
 11
85.629
 20
-42.079
 21
-44.94
  0
LINE
  8
0
 10
85.629
 11
85.774
 20
-44.94
 21
-45.196
  0
LINE
  8
0
 10
85.774
 11
85.87
 20
-45.196
 21
-45.649
  0
LINE
  8
0
 10
85.87
 11
86.886
 20
-45.649
 21
-48.568
  0
LINE
  8
0
 10
86.886
 11
87.025
 20
-48.568
 21
-48.847
  0
LINE
  8
0
 10
87.025
 11
87.126
 20
-48.847
 21
-49.485
  0
LINE
  8
0
 10
87.126
 11
87.411
 20
-49.485
 21
-50.467
  0
LINE
  8
0
 10
87.411
 11
86.418
 20
-50.467
 21
-50.711
  0
LINE
  8
0
 10
86.418
 11
85.815
 20
-50.711
 21
-50.942
  0
LINE
  8
0
 10
85.815
 11
85.504
 20
-50.942
 21
-50.962
  0
LINE
  8
0
 10
85.504
 11
82.468
 20
-50.962
 21
-51.541
  0
LINE
  8
0
 10
82.468
 11
82.028
 20
-51.541
 21
-51.684
  0
LINE
  8
0
 10
82.028
 11
81.734
 20
-51.684
 21
-51.687
  0
LINE
  8
0
 10
81.734
 11
78.672
 20
-51.687
 21
-52.106
  0
LINE
  8
0
 10
78.672
 11
78.401
 20
-52.106
 21
-52.179
  0
LINE
  8
0
 10
78.401
 11
78.124
 20
-52.179
 21
-52.167
  0
LINE
  8
0
 10
78.124
 11
75.045
 20
-52.167
 21
-52.425
  0
LINE
  8
0
 10
75.045
 11
74.949
 20
-52.425
 21
-52.445
  0
LINE
  8
0
 10
74.949
 11
74.691
 20
-52.445
 21
-52.421
  0
LINE
  8
0
 10
74.691
 11
71.748
 20
-52.421
 21
-52.513
  0
LINE
  8
0
 10
71.748
 11
71.447
 20
-52.513
 21
-52.469
  0
LINE
  8
0
 10
71.447
 11
68.809
 20
-52.469
 21
-52.414
  0
LINE
  8
0
 10
68.809
 11
68.404
 20
-52.414
 21
-52.332
  0
LINE
  8
0
 10
68.404
 11
66.082
 20
-52.332
 21
-52.161
  0
LINE
  8
0
 10
66.082
 11
65.571
 20
-52.161
 21
-52.03
  0
LINE
  8
0
 10
65.571
 11
63.564
 20
-52.03
 21
-51.776
  0
LINE
  8
0
 10
63.564
 11
62.957
 20
-51.776
 21
-51.586
  0
LINE
  8
0
 10
62.957
 11
61.275
 20
-51.586
 21
-51.283
  0
LINE
  8
0
 10
61.275
 11
60.652
 20
-51.283
 21
-51.051
  0
LINE
  8
0
 10
60.652
 11
60.405
 20
-51.051
 21
-50.263
  0
LINE
  8
0
 10
60.405
 11
59.405
 20
-50.263
 21
-48.081
  0
LINE
  8
0
 10
59.405
 11
59.164
 20
-48.081
 21
-47.431
  0
LINE
  8
0
 10
59.164
 11
57.732
 20
-47.431
 21
-44.693
  0
LINE
  8
0
 10
57.732
 11
57.513
 20
-44.693
 21
-44.377
  0
LINE
  8
0
 10
57.513
 11
56.228
 20
-44.377
 21
-42.206
  0
LINE
  8
0
 10
56.228
 11
55.337
 20
-42.206
 21
-41.057
  0
LINE
  8
0
 10
55.337
 11
54.633
 20
-41.057
 21
-39.998
  0
LINE
  8
0
 10
54.633
 11
52.981
 20
-39.998
 21
-38.082
  0
LINE
  8
0
 10
52.981
 11
52.972
 20
-38.082
 21
-38.07
  0
LINE
  8
0
 10
52.972
 11
52.958
 20
-38.07
 21
-38.056
  0
LINE
  8
0
 10
52.958
 11
52.615
 20
-38.056
 21
-37.659
  0
LINE
  8
0
 10
52.615
 11
52.34
 20
-37.659
 21
-37.411
  0
LINE
  8
0
 10
52.34
 11
50.834
 20
-37.411
 21
-35.839
  0
LINE
  8
0
 10
50.834
 11
49.484
 20
-35.839
 21
-34.747
  0
LINE
  8
0
 10
49.484
 11
49.016
 20
-34.747
 21
-34.307
  0
LINE
  8
0
 10
49.016
 11
46.516
 20
-34.307
 21
-32.491
  0
LINE
  8
0
 10
46.516
 11
45.18
 20
-32.491
 21
-31.756
  0
LINE
  8
0
 10
45.18
 11
44.595
 20
-31.756
 21
-31.377
  0
LINE
  8
0
 10
44.595
 11
41.814
 20
-31.377
 21
-30.032
  0
LINE
  8
0
 10
41.814
 11
40.066
 20
-30.032
 21
-29.445
  0
LINE
  8
0
 10
40.066
 11
39.848
 20
-29.445
 21
-29.353
  0
LINE
  8
0
 10
39.848
 11
39.527
 20
-29.353
 21
-29.263
  0
LINE
  8
0
 10
39.527
 11
38.885
 20
-29.263
 21
-29.047
  0
LINE
  8
0
 10
38.885
 11
38.412
 20
-29.047
 21
-28.952
  0
LINE
  8
0
 10
38.412
 11
36.872
 20
-28.952
 21
-28.521
  0
LINE
  8
0
 10
36.872
 11
33.815
 20
-28.521
 21
-28.07
  0
LINE
  8
0
 10
33.815
 11
32.355
 20
-28.07
 21
-28.04
  0
LINE
  8
0
 10
32.355
 11
31.843
 20
-28.04
 21
-27.992
  0
LINE
  8
0
 10
31.843
 11
31.12
 20
-27.992
 21
-28.014
  0
LINE
  8
0
 10
31.12
 11
30.726
 20
-28.014
 21
-28.006
  0
LINE
  8
0
 10
30.726
 11
30.445
 20
-28.006
 21
-28.036
  0
LINE
  8
0
 10
30.445
 11
28.754
 20
-28.036
 21
-28.089
  0
LINE
  8
0
 10
28.754
 11
25.702
 20
-28.089
 21
-28.573
  0
LINE
  8
0
 10
25.702
 11
24.041
 20
-28.573
 21
-29.055
  0
LINE
  8
0
 10
24.041
 11
23.863
 20
-29.055
 21
-29.093
  0
LINE
  8
0
 10
23.863
 11
23.621
 20
-29.093
 21
-29.177
  0
LINE
  8
0
 10
23.621
 11
22.735
 20
-29.177
 21
-29.435
  0
LINE
  8
0
 10
22.735
 11
22.13
 20
-29.435
 21
-29.697
  0
LINE
  8
0
 10
22.13
 11
20.945
 20
-29.697
 21
-30.109
  0
LINE
  8
0
 10
20.945
 11
18.177
 20
-30.109
 21
-31.483
  0
LINE
  8
0
 10
18.177
 11
15.603
 20
-31.483
 21
-33.193
  0
LINE
  8
0
 10
15.603
 11
14.653
 20
-33.193
 21
-34.014
  0
LINE
  8
0
 10
14.653
 11
14.124
 20
-34.014
 21
-34.407
  0
LINE
  8
0
 10
14.124
 11
13.458
 20
-34.407
 21
-35.045
  0
LINE
  8
0
 10
13.458
 11
13.264
 20
-35.045
 21
-35.212
  0
LINE
  8
0
 10
13.264
 11
13.142
 20
-35.212
 21
-35.348
  0
LINE
  8
0
 10
13.142
 11
11.894
 20
-35.348
 21
-36.545
  0
LINE
  8
0
 10
11.894
 11
9.949
 20
-36.545
 21
-38.946
  0
LINE
  8
0
 10
9.949
 11
9.057
 20
-38.946
 21
-40.384
  0
LINE
  8
0
 10
9.057
 11
8.891
 20
-40.384
 21
-40.612
  0
LINE
  8
0
 10
8.891
 11
8.701
 20
-40.612
 21
-40.958
  0
LINE
  8
0
 10
8.701
 11
8.32
 20
-40.958
 21
-41.573
  0
LINE
  8
0
 10
8.32
 11
8.106
 20
-41.573
 21
-42.04
  0
LINE
  8
0
 10
8.106
 11
7.402
 20
-42.04
 21
-43.319
  0
LINE
  8
0
 10
7.402
 11
6.264
 20
-43.319
 21
-46.192
  0
LINE
  8
0
 10
6.264
 11
5.867
 20
-46.192
 21
-47.742
  0
LINE
  8
0
 10
5.867
 11
5.713
 20
-47.742
 21
-48.199
  0
LINE
  8
0
 10
5.713
 11
5.579
 20
-48.199
 21
-48.863
  0
LINE
  8
0
 10
5.579
 11
5.496
 20
-48.863
 21
-49.186
  0
LINE
  8
0
 10
5.496
 11
5.467
 20
-49.186
 21
-49.421
  0
LINE
  8
0
 10
5.467
 11
5.102
 20
-49.421
 21
-51.228
  0
LINE
  8
0
 10
5.102
 11
4.876
 20
-51.228
 21
-54.309
  0
LINE
  8
0
 10
4.876
 11
4.912
 20
-54.309
 21
-55.005
  0
LINE
  8
0
 10
4.912
 11
4.88
 20
-55.005
 21
-56.529
  0
LINE
  8
0
 10
4.88
 11
5.203
 20
-56.529
 21
-59.603
  0
LINE
  8
0
 10
5.203
 11
5.35
 20
-59.603
 21
-60.228
  0
LINE
  8
0
 10
5.35
 11
5.621
 20
-60.228
 21
-61.943
  0
LINE
  8
0
 10
5.621
 11
6.229
 20
-61.943
 21
-64.033
  0
LINE
  8
0
 10
6.229
 11
6.306
 20
-64.033
 21
-64.396
  0
LINE
  8
0
 10
6.306
 11
6.478
 20
-64.396
 21
-64.891
  0
LINE
  8
0
 10
6.478
 11
6.484
 20
-64.891
 21
-64.91
  0
LINE
  8
0
 10
6.484
 11
6.49
 20
-64.91
 21
-64.924
  0
LINE
  8
0
 10
6.49
 11
7.323
 20
-64.924
 21
-67.313
  0
LINE
  8
0
 10
7.323
 11
7.888
 20
-67.313
 21
-68.452
  0
LINE
  8
0
 10
7.888
 11
8.438
 20
-68.452
 21
-69.798
  0
LINE
  8
0
 10
8.438
 11
9.675
 20
-69.798
 21
-71.996
  0
LINE
  8
0
 10
9.675
 11
9.839
 20
-71.996
 21
-72.344
  0
LINE
  8
0
 10
9.839
 11
11.495
 20
-72.344
 21
-74.953
  0
LINE
  8
0
 10
11.495
 11
11.937
 20
-74.953
 21
-75.487
  0
LINE
  8
0
 10
11.937
 11
13.327
 20
-75.487
 21
-77.444
  0
LINE
  8
0
 10
13.327
 11
13.886
 20
-77.444
 21
-78.051
  0
LINE
  8
0
 10
13.886
 11
13.775
 20
-78.051
 21
-78.707
  0
LINE
  8
0
 10
13.775
 11
13.196
 20
-78.707
 21
-80.315
  0
LINE
  8
0
 10
13.196
 11
13.057
 20
-80.315
 21
-80.936
  0
LINE
  8
0
 10
13.057
 11
12.274
 20
-80.936
 21
-82.801
  0
LINE
  8
0
 10
12.274
 11
12.132
 20
-82.801
 21
-83.309
  0
LINE
  8
0
 10
12.132
 11
11.119
 20
-83.309
 21
-85.406
  0
LINE
  8
0
 10
11.119
 11
10.987
 20
-85.406
 21
-85.797
  0
LINE
  8
0
 10
10.987
 11
9.716
 20
-85.797
 21
-88.109
  0
LINE
  8
0
 10
9.716
 11
9.604
 20
-88.109
 21
-88.392
  0
LINE
  8
0
 10
9.604
 11
8.052
 20
-88.392
 21
-90.895
  0
LINE
  8
0
 10
8.052
 11
7.944
 20
-90.895
 21
-91.13
  0
LINE
  8
0
 10
7.944
 11
7.879
 20
-91.13
 21
-91.203
  0
LINE
  8
0
 10
7.879
 11
6.116
 20
-91.203
 21
-93.741
  0
LINE
  8
0
 10
6.116
 11
5.988
 20
-93.741
 21
-93.987
  0
LINE
  8
0
 10
5.988
 11
5.789
 20
-93.987
 21
-94.185
  0
LINE
  8
0
 10
5.789
 11
3.895
 20
-94.185
 21
-96.627
  0
LINE
  8
0
 10
3.895
 11
3.746
 20
-96.627
 21
-96.88
  0
LINE
  8
0
 10
3.746
 11
3.402
 20
-96.88
 21
-97.19
  0
LINE
  8
0
 10
3.402
 11
1.382
 20
-97.19
 21
-99.53
  0
LINE
  8
0
 10
1.382
 11
1.21
 20
-99.53
 21
-99.789
  0
LINE
  8
0
 10
1.21
 11
0.708
 20
-99.789
 21
-100.196
  0
LINE
  8
0
 10
0.708
 11
0
 20
-100.196
 21
-100.934
  0
LINE
  8
0
 10
0
 11
-0.708
 20
-100.934
 21
-100.196
  0
LINE
  8
0
 10
-0.708
 11
-1.21
 20
-100.196
 21
-99.789
  0
LINE
  8
0
 10
-1.21
 11
-1.382
 20
-99.789
 21
-99.53
  0
LINE
  8
0
 10
-1.382
 11
-3.402
 20
-99.53
 21
-97.19
  0
LINE
  8
0
 10
-3.402
 11
-3.746
 20
-97.19
 21
-96.88
  0
LINE
  8
0
 10
-3.746
 11
-3.895
 20
-96.88
 21
-96.627
  0
LINE
  8
0
 10
-3.895
 11
-5.789
 20
-96.627
 21
-94.185
  0
LINE
  8
0
 10
-5.789
 11
-5.988
 20
-94.185
 21
-93.987
  0
LINE
  8
0
 10
-5.988
 11
-6.116
 20
-93.987
 21
-93.741
  0
LINE
  8
0
 10
-6.116
 11
-7.879
 20
-93.741
 21
-91.203
  0
LINE
  8
0
 10
-7.879
 11
-7.944
 20
-91.203
 21
-91.13
  0
LINE
  8
0
 10
-7.944
 11
-8.052
 20
-91.13
 21
-90.895
  0
LINE
  8
0
 10
-8.052
 11
-9.604
 20
-90.895
 21
-88.392
  0
LINE
  8
0
 10
-9.604
 11
-9.716
 20
-88.392
 21
-88.109
  0
LINE
  8
0
 10
-9.716
 11
-10.987
 20
-88.109
 21
-85.797
  0
LINE
  8
0
 10
-10.987
 11
-11.119
 20
-85.797
 21
-85.406
  0
LINE
  8
0
 10
-11.119
 11
-12.132
 20
-85.406
 21
-83.309
  0
LINE
  8
0
 10
-12.132
 11
-12.274
 20
-83.309
 21
-82.801
  0
LINE
  8
0
 10
-12.274
 11
-13.057
 20
-82.801
 21
-80.936
  0
LINE
  8
0
 10
-13.057
 11
-13.196
 20
-80.936
 21
-80.315
  0
LINE
  8
0
 10
-13.196
 11
-13.775
 20
-80.315
 21
-78.707
  0
LINE
  8
0
 10
-13.775
 11
-13.886
 20
-78.707
 21
-78.051
  0
LINE
  8
0
 10
-13.886
 11
-13.327
 20
-78.051
 21
-77.444
  0
LINE
  8
0
 10
-13.327
 11
-11.937
 20
-77.444
 21
-75.487
  0
LINE
  8
0
 10
-11.937
 11
-11.495
 20
-75.487
 21
-74.953
  0
LINE
  8
0
 10
-11.495
 11
-9.839
 20
-74.953
 21
-72.344
  0
LINE
  8
0
 10
-9.839
 11
-9.675
 20
-72.344
 21
-71.996
  0
LINE
  8
0
 10
-9.675
 11
-8.438
 20
-71.996
 21
-69.798
  0
LINE
  8
0
 10
-8.438
 11
-7.888
 20
-69.798
 21
-68.452
  0
LINE
  8
0
 10
-7.888
 11
-7.323
 20
-68.452
 21
-67.313
  0
LINE
  8
0
 10
-7.323
 11
-6.49
 20
-67.313
 21
-64.924
  0
LINE
  8
0
 10
-6.49
 11
-6.484
 20
-64.924
 21
-64.91
  0
LINE
  8
0
 10
-6.484
 11
-6.478
 20
-64.91
 21
-64.891
  0
LINE
  8
0
 10
-6.478
 11
-6.306
 20
-64.891
 21
-64.396
  0
LINE
  8
0
 10
-6.306
 11
-6.229
 20
-64.396
 21
-64.033
  0
LINE
  8
0
 10
-6.229
 11
-5.621
 20
-64.033
 21
-61.943
  0
LINE
  8
0
 10
-5.621
 11
-5.35
 20
-61.943
 21
-60.228
  0
LINE
  8
0
 10
-5.35
 11
-5.203
 20
-60.228
 21
-59.603
  0
LINE
  8
0
 10
-5.203
 11
-4.88
 20
-59.603
 21
-56.529
  0
LINE
  8
0
 10
-4.88
 11
-4.912
 20
-56.529
 21
-55.005
  0
LINE
  8
0
 10
-4.912
 11
-4.876
 20
-55.005
 21
-54.309
  0
LINE
  8
0
 10
-4.876
 11
-5.102
 20
-54.309
 21
-51.228
  0
LINE
  8
0
 10
-5.102
 11
-5.467
 20
-51.228
 21
-49.421
  0
LINE
  8
0
 10
-5.467
 11
-5.496
 20
-49.421
 21
-49.186
  0
LINE
  8
0
 10
-5.496
 11
-5.579
 20
-49.186
 21
-48.863
  0
LINE
  8
0
 10
-5.579
 11
-5.713
 20
-48.863
 21
-48.199
  0
LINE
  8
0
 10
-5.713
 11
-5.867
 20
-48.199
 21
-47.742
  0
LINE
  8
0
 10
-5.867
 11
-6.264
 20
-47.742
 21
-46.192
  0
LINE
  8
0
 10
-6.264
 11
-7.402
 20
-46.192
 21
-43.319
  0
LINE
  8
0
 10
-7.402
 11
-8.106
 20
-43.319
 21
-42.04
  0
LINE
  8
0
 10
-8.106
 11
-8.32
 20
-42.04
 21
-41.573
  0
LINE
  8
0
 10
-8.32
 11
-8.701
 20
-41.573
 21
-40.958
  0
LINE
  8
0
 10
-8.701
 11
-8.891
 20
-40.958
 21
-40.612
  0
LINE
  8
0
 10
-8.891
 11
-9.057
 20
-40.612
 21
-40.384
  0
LINE
  8
0
 10
-9.057
 11
-9.949
 20
-40.384
 21
-38.946
  0
LINE
  8
0
 10
-9.949
 11
-11.894
 20
-38.946
 21
-36.545
  0
LINE
  8
0
 10
-11.894
 11
-13.142
 20
-36.545
 21
-35.348
  0
LINE
  8
0
 10
-13.142
 11
-13.264
 20
-35.348
 21
-35.212
  0
LINE
  8
0
 10
-13.264
 11
-13.458
 20
-35.212
 21
-35.045
  0
LINE
  8
0
 10
-13.458
 11
-14.124
 20
-35.045
 21
-34.407
  0
LINE
  8
0
 10
-14.124
 11
-14.653
 20
-34.407
 21
-34.014
  0
LINE
  8
0
 10
-14.653
 11
-15.603
 20
-34.014
 21
-33.193
  0
LINE
  8
0
 10
-15.603
 11
-18.177
 20
-33.193
 21
-31.483
  0
LINE
  8
0
 10
-18.177
 11
-20.945
 20
-31.483
 21
-30.109
  0
LINE
  8
0
 10
-20.945
 11
-22.13
 20
-30.109
 21
-29.697
  0
LINE
  8
0
 10
-22.13
 11
-22.735
 20
-29.697
 21
-29.435
  0
LINE
  8
0
 10
-22.735
 11
-23.621
 20
-29.435
 21
-29.177
  0
LINE
  8
0
 10
-23.621
 11
-23.863
 20
-29.177
 21
-29.093
  0
LINE
  8
0
 10
-23.863
 11
-24.041
 20
-29.093
 21
-29.055
  0
LINE
  8
0
 10
-24.041
 11
-25.702
 20
-29.055
 21
-28.573
  0
LINE
  8
0
 10
-25.702
 11
-28.754
 20
-28.573
 21
-28.089
  0
LINE
  8
0
 10
-28.754
 11
-30.445
 20
-28.089
 21
-28.036
  0
LINE
  8
0
 10
-30.445
 11
-30.726
 20
-28.036
 21
-28.006
  0
LINE
  8
0
 10
-30.726
 11
-31.12
 20
-28.006
 21
-28.014
  0
LINE
  8
0
 10
-31.12
 11
-31.843
 20
-28.014
 21
-27.992
  0
LINE
  8
0
 10
-31.843
 11
-32.355
 20
-27.992
 21
-28.04
  0
LINE
  8
0
 10
-32.355
 11
-33.815
 20
-28.04
 21
-28.07
  0
LINE
  8
0
 10
-33.815
 11
-36.872
 20
-28.07
 21
-28.521
  0
LINE
  8
0
 10
-36.872
 11
-38.412
 20
-28.521
 21
-28.952
  0
LINE
  8
0
 10
-38.412
 11
-38.885
 20
-28.952
 21
-29.047
  0
LINE
  8
0
 10
-38.885
 11
-39.527
 20
-29.047
 21
-29.263
  0
LINE
  8
0
 10
-39.527
 11
-39.848
 20
-29.263
 21
-29.353
  0
LINE
  8
0
 10
-39.848
 11
-40.066
 20
-29.353
 21
-29.445
  0
LINE
  8
0
 10
-40.066
 11
-41.814
 20
-29.445
 21
-30.032
  0
LINE
  8
0
 10
-41.814
 11
-44.595
 20
-30.032
 21
-31.377
  0
LINE
  8
0
 10
-44.595
 11
-45.18
 20
-31.377
 21
-31.756
  0
LINE
  8
0
 10
-45.18
 11
-46.516
 20
-31.756
 21
-32.491
  0
LINE
  8
0
 10
-46.516
 11
-49.016
 20
-32.491
 21
-34.307
  0
LINE
  8
0
 10
-49.016
 11
-49.484
 20
-34.307
 21
-34.747
  0
LINE
  8
0
 10
-49.484
 11
-50.834
 20
-34.747
 21
-35.839
  0
LINE
  8
0
 10
-50.834
 11
-52.34
 20
-35.839
 21
-37.411
  0
LINE
  8
0
 10
-52.34
 11
-52.615
 20
-37.411
 21
-37.659
  0
LINE
  8
0
 10
-52.615
 11
-52.958
 20
-37.659
 21
-38.056
  0
LINE
  8
0
 10
-52.958
 11
-52.972
 20
-38.056
 21
-38.07
  0
LINE
  8
0
 10
-52.972
 11
-52.981
 20
-38.07
 21
-38.082
  0
LINE
  8
0
 10
-52.981
 11
-54.633
 20
-38.082
 21
-39.998
  0
LINE
  8
0
 10
-54.633
 11
-55.337
 20
-39.998
 21
-41.057
  0
LINE
  8
0
 10
-55.337
 11
-56.228
 20
-41.057
 21
-42.206
  0
LINE
  8
0
 10
-56.228
 11
-57.513
 20
-42.206
 21
-44.377
  0
LINE
  8
0
 10
-57.513
 11
-57.732
 20
-44.377
 21
-44.693
  0
LINE
  8
0
 10
-57.732
 11
-59.164
 20
-44.693
 21
-47.431
  0
LINE
  8
0
 10
-59.164
 11
-59.405
 20
-47.431
 21
-48.081
  0
LINE
  8
0
 10
-59.405
 11
-60.405
 20
-48.081
 21
-50.263
  0
LINE
  8
0
 10
-60.405
 11
-60.652
 20
-50.263
 21
-51.051
  0
LINE
  8
0
 10
-60.652
 11
-61.275
 20
-51.051
 21
-51.283
  0
LINE
  8
0
 10
-61.275
 11
-62.957
 20
-51.283
 21
-51.586
  0
LINE
  8
0
 10
-62.957
 11
-63.564
 20
-51.586
 21
-51.776
  0
LINE
  8
0
 10
-63.564
 11
-65.571
 20
-51.776
 21
-52.03
  0
LINE
  8
0
 10
-65.571
 11
-66.082
 20
-52.03
 21
-52.161
  0
LINE
  8
0
 10
-66.082
 11
-68.404
 20
-52.161
 21
-52.332
  0
LINE
  8
0
 10
-68.404
 11
-68.809
 20
-52.332
 21
-52.414
  0
LINE
  8
0
 10
-68.809
 11
-71.447
 20
-52.414
 21
-52.469
  0
LINE
  8
0
 10
-71.447
 11
-71.748
 20
-52.469
 21
-52.513
  0
LINE
  8
0
 10
-71.748
 11
-74.691
 20
-52.513
 21
-52.421
  0
LINE
  8
0
 10
-74.691
 11
-74.949
 20
-52.421
 21
-52.445
  0
LINE
  8
0
 10
-74.949
 11
-75.045
 20
-52.445
 21
-52.425
  0
LINE
  8
0
 10
-75.045
 11
-78.124
 20
-52.425
 21
-52.167
  0
LINE
  8
0
 10
-78.124
 11
-78.401
 20
-52.167
 21
-52.179
  0
LINE
  8
0
 10
-78.401
 11
-78.672
 20
-52.179
 21
-52.106
  0
LINE
  8
0
 10
-78.672
 11
-81.734
 20
-52.106
 21
-51.687
  0
LINE
  8
0
 10
-81.734
 11
-82.028
 20
-51.687
 21
-51.684
  0
LINE
  8
0
 10
-82.028
 11
-82.468
 20
-51.684
 21
-51.541
  0
LINE
  8
0
 10
-82.468
 11
-85.504
 20
-51.541
 21
-50.962
  0
LINE
  8
0
 10
-85.504
 11
-85.815
 20
-50.962
 21
-50.942
  0
LINE
  8
0
 10
-85.815
 11
-86.418
 20
-50.942
 21
-50.711
  0
LINE
  8
0
 10
-86.418
 11
-87.411
 20
-50.711
 21
-50.467
  0
LINE
  8
0
 10
-3.175
 11
-3.149
 20
0
 21
0.163
  0
LINE
  8
0
 10
-3.149
 11
-3.158
 20
0.163
 21
0.332
  0
LINE
  8
0
 10
-3.158
 11
-3.115
 20
0.332
 21
0.494
  0
LINE
  8
0
 10
-3.115
 11
-3.106
 20
0.494
 21
0.66
  0
LINE
  8
0
 10
-3.106
 11
-3.046
 20
0.66
 21
0.816
  0
LINE
  8
0
 10
-3.046
 11
-3.02
 20
0.816
 21
0.981
  0
LINE
  8
0
 10
-3.02
 11
-2.945
 20
0.981
 21
1.129
  0
LINE
  8
0
 10
-2.945
 11
-2.901
 20
1.129
 21
1.292
  0
LINE
  8
0
 10
-2.901
 11
-2.809
 20
1.292
 21
1.434
  0
LINE
  8
0
 10
-2.809
 11
-2.75
 20
1.434
 21
1.587
  0
LINE
  8
0
 10
-2.75
 11
-2.645
 20
1.587
 21
1.717
  0
LINE
  8
0
 10
-2.645
 11
-2.569
 20
1.717
 21
1.866
  0
LINE
  8
0
 10
-2.569
 11
-2.453
 20
1.866
 21
1.982
  0
LINE
  8
0
 10
-2.453
 11
-2.36
 20
1.982
 21
2.125
  0
LINE
  8
0
 10
-2.36
 11
-2.23
 20
2.125
 21
2.23
  0
LINE
  8
0
 10
-2.23
 11
-2.125
 20
2.23
 21
2.36
  0
LINE
  8
0
 10
-2.125
 11
-1.982
 20
2.36
 21
2.453
  0
LINE
  8
0
 10
-1.982
 11
-1.866
 20
2.453
 21
2.569
  0
LINE
  8
0
 10
-1.866
 11
-1.717
 20
2.569
 21
2.645
  0
LINE
  8
0
 10
-1.717
 11
-1.587
 20
2.645
 21
2.75
  0
LINE
  8
0
 10
-1.587
 11
-1.434
 20
2.75
 21
2.809
  0
LINE
  8
0
 10
-1.434
 11
-1.292
 20
2.809
 21
2.901
  0
LINE
  8
0
 10
-1.292
 11
-1.129
 20
2.901
 21
2.945
  0
LINE
  8
0
 10
-1.129
 11
-0.981
 20
2.945
 21
3.02
  0
LINE
  8
0
 10
-0.981
 11
-0.816
 20
3.02
 21
3.046
  0
LINE
  8
0
 10
-0.816
 11
-0.66
 20
3.046
 21
3.106
  0
LINE
  8
0
 10
-0.66
 11
-0.494
 20
3.106
 21
3.115
  0
LINE
  8
0
 10
-0.494
 11
-0.332
 20
3.115
 21
3.158
  0
LINE
  8
0
 10
-0.332
 11
-0.163
 20
3.158
 21
3.149
  0
LINE
  8
0
 10
-0.163
 11
0
 20
3.149
 21
3.175
  0
LINE
  8
0
 10
0
 11
0.163
 20
3.175
 21
3.149
  0
LINE
  8
0
 10
0.163
 11
0.332
 20
3.149
 21
3.158
  0
LINE
  8
0
 10
0.332
 11
0.494
 20
3.158
 21
3.115
  0
LINE
  8
0
 10
0.494
 11
0.66
 20
3.115
 21
3.106
  0
LINE
  8
0
 10
0.66
 11
0.816
 20
3.106
 21
3.046
  0
LINE
  8
0
 10
0.816
 11
0.981
 20
3.046
 21
3.02
  0
LINE
  8
0
 10
0.981
 11
1.129
 20
3.02
 21
2.945
  0
LINE
  8
0
 10
1.129
 11
1.292
 20
2.945
 21
2.901
  0
LINE
  8
0
 10
1.292
 11
1.434
 20
2.901
 21
2.809
  0
LINE
  8
0
 10
1.434
 11
1.587
 20
2.809
 21
2.75
  0
LINE
  8
0
 10
1.587
 11
1.717
 20
2.75
 21
2.645
  0
LINE
  8
0
 10
1.717
 11
1.866
 20
2.645
 21
2.569
  0
LINE
  8
0
 10
1.866
 11
1.982
 20
2.569
 21
2.453
  0
LINE
  8
0
 10
1.982
 11
2.125
 20
2.453
 21
2.36
  0
LINE
  8
0
 10
2.125
 11
2.23
 20
2.36
 21
2.23
  0
LINE
  8
0
 10
2.23
 11
2.36
 20
2.23
 21
2.125
  0
LINE
  8
0
 10
2.36
 11
2.453
 20
2.125
 21
1.982
  0
LINE
  8
0
 10
2.453
 11
2.569
 20
1.982
 21
1.866
  0
LINE
  8
0
 10
2.569
 11
2.645
 20
1.866
 21
1.717
  0
LINE
  8
0
 10
2.645
 11
2.75
 20
1.717
 21
1.587
  0
LINE
  8
0
 10
2.75
 11
2.809
 20
1.587
 21
1.434
  0
LINE
  8
0
 10
2.809
 11
2.901
 20
1.434
 21
1.292
  0
LINE
  8
0
 10
2.901
 11
2.945
 20
1.292
 21
1.129
  0
LINE
  8
0
 10
2.945
 11
3.02
 20
1.129
 21
0.981
  0
LINE
  8
0
 10
3.02
 11
3.046
 20
0.981
 21
0.816
  0
LINE
  8
0
 10
3.046
 11
3.106
 20
0.816
 21
0.66
  0
LINE
  8
0
 10
3.106
 11
3.115
 20
0.66
 21
0.494
  0
LINE
  8
0
 10
3.115
 11
3.158
 20
0.494
 21
0.332
  0
LINE
  8
0
 10
3.158
 11
3.149
 20
0.332
 21
0.163
  0
LINE
  8
0
 10
3.149
 11
3.175
 20
0.163
 21
0
  0
LINE
  8
0
 10
3.175
 11
3.149
 20
0
 21
-0.163
  0
LINE
  8
0
 10
3.149
 11
3.158
 20
-0.163
 21
-0.332
  0
LINE
  8
0
 10
3.158
 11
3.115
 20
-0.332
 21
-0.494
  0
LINE
  8
0
 10
3.115
 11
3.106
 20
-0.494
 21
-0.66
  0
LINE
  8
0
 10
3.106
 11
3.046
 20
-0.66
 21
-0.816
  0
LINE
  8
0
 10
3.046
 11
3.02
 20
-0.816
 21
-0.981
  0
LINE
  8
0
 10
3.02
 11
2.945
 20
-0.981
 21
-1.129
  0
LINE
  8
0
 10
2.945
 11
2.901
 20
-1.129
 21
-1.292
  0
LINE
  8
0
 10
2.901
 11
2.809
 20
-1.292
 21
-1.434
  0
LINE
  8
0
 10
2.809
 11
2.75
 20
-1.434
 21
-1.587
  0
LINE
  8
0
 10
2.75
 11
2.645
 20
-1.587
 21
-1.717
  0
LINE
  8
0
 10
2.645
 11
2.569
 20
-1.717
 21
-1.866
  0
LINE
  8
0
 10
2.569
 11
2.453
 20
-1.866
 21
-1.982
  0
LINE
  8
0
 10
2.453
 11
2.36
 20
-1.982
 21
-2.125
  0
LINE
  8
0
 10
2.36
 11
2.23
 20
-2.125
 21
-2.23
  0
LINE
  8
0
 10
2.23
 11
2.125
 20
-2.23
 21
-2.36
  0
LINE
  8
0
 10
2.125
 11
1.982
 20
-2.36
 21
-2.453
  0
LINE
  8
0
 10
1.982
 11
1.866
 20
-2.453
 21
-2.569
  0
LINE
  8
0
 10
1.866
 11
1.717
 20
-2.569
 21
-2.645
  0
LINE
  8
0
 10
1.717
 11
1.587
 20
-2.645
 21
-2.75
  0
LINE
  8
0
 10
1.587
 11
1.434
 20
-2.75
 21
-2.809
  0
LINE
  8
0
 10
1.434
 11
1.292
 20
-2.809
 21
-2.901
  0
LINE
  8
0
 10
1.292
 11
1.129
 20
-2.901
 21
-2.945
  0
LINE
  8
0
 10
1.129
 11
0.981
 20
-2.945
 21
-3.02
  0
LINE
  8
0
 10
0.981
 11
0.816
 20
-3.02
 21
-3.046
  0
LINE
  8
0
 10
0.816
 11
0.66
 20
-3.046
 21
-3.106
  0
LINE
  8
0
 10
0.66
 11
0.494
 20
-3.106
 21
-3.115
  0
LINE
  8
0
 10
0.494
 11
0.332
 20
-3.115
 21
-3.158
  0
LINE
  8
0
 10
0.332
 11
0.163
 20
-3.158
 21
-3.149
  0
LINE
  8
0
 10
0.163
 11
0
 20
-3.149
 21
-3.175
  0
LINE
  8
0
 10
0
 11
-0.163
 20
-3.175
 21
-3.149
  0
LINE
  8
0
 10
-0.163
 11
-0.332
 20
-3.149
 21
-3.158
  0
LINE
  8
0
 10
-0.332
 11
-0.494
 20
-3.158
 21
-3.115
  0
LINE
  8
0
 10
-0.494
 11
-0.66
 20
-3.115
 21
-3.106
  0
LINE
  8
0
 10
-0.66
 11
-0.816
 20
-3.106
 21
-3.046
  0
LINE
  8
0
 10
-0.816
 11
-0.981
 20
-3.046
 21
-3.02
  0
LINE
  8
0
 10
-0.981
 11
-1.129
 20
-3.02
 21
-2.945
  0
LINE
  8
0
 10
-1.129
 11
-1.292
 20
-2.945
 21
-2.901
  0
LINE
  8
0
 10
-1.292
 11
-1.434
 20
-2.901
 21
-2.809
  0
LINE
  8
0
 10
-1.434
 11
-1.587
 20
-2.809
 21
-2.75
  0
LINE
  8
0
 10
-1.587
 11
-1.717
 20
-2.75
 21
-2.645
  0
LINE
  8
0
 10
-1.717
 11
-1.866
 20
-2.645
 21
-2.569
  0
LINE
  8
0
 10
-1.866
 11
-1.982
 20
-2.569
 21
-2.453
  0
LINE
  8
0
 10
-1.982
 11
-2.125
 20
-2.453
 21
-2.36
  0
LINE
  8
0
 10
-2.125
 11
-2.23
 20
-2.36
 21
-2.23
  0
LINE
  8
0
 10
-2.23
 11
-2.36
 20
-2.23
 21
-2.125
  0
LINE
  8
0
 10
-2.36
 11
-2.453
 20
-2.125
 21
-1.982
  0
LINE
  8
0
 10
-2.453
 11
-2.569
 20
-1.982
 21
-1.866
  0
LINE
  8
0
 10
-2.569
 11
-2.645
 20
-1.866
 21
-1.717
  0
LINE
  8
0
 10
-2.645
 11
-2.75
 20
-1.717
 21
-1.587
  0
LINE
  8
0
 10
-2.75
 11
-2.809
 20
-1.587
 21
-1.434
  0
LINE
  8
0
 10
-2.809
 11
-2.901
 20
-1.434
 21
-1.292
  0
LINE
  8
0
 10
-2.901
 11
-2.945
 20
-1.292
 21
-1.129
  0
LINE
  8
0
 10
-2.945
 11
-3.02
 20
-1.129
 21
-0.981
  0
LINE
  8
0
 10
-3.02
 11
-3.046
 20
-0.981
 21
-0.816
  0
LINE
  8
0
 10
-3.046
 11
-3.106
 20
-0.816
 21
-0.66
  0
LINE
  8
0
 10
-3.106
 11
-3.115
 20
-0.66
 21
-0.494
  0
LINE
  8
0
 10
-3.115
 11
-3.158
 20
-0.494
 21
-0.332
  0
LINE
  8
0
 10
-3.158
 11
-3.149
 20
-0.332
 21
-0.163
  0
LINE
  8
0
 10
-3.149
 11
-3.175
 20
-0.163
 21
0
  0
ENDSEC
  0
SECTION
  2
OBJECTS
  0
DICTIONARY
  0
ENDSEC
  0
EOF
