  0
SECTION
  2
BLOCKS
  0
ENDSEC
  0
SECTION
  2
ENTITIES
  0
LINE
  8
0
 10
-130.06
 11
-129.801
 20
-334.544
 21
-331.466
  0
LINE
  8
0
 10
-129.801
 11
-129.158
 20
-331.466
 21
-328.443
  0
LINE
  8
0
 10
-129.158
 11
-128.142
 20
-328.443
 21
-325.525
  0
LINE
  8
0
 10
-128.142
 11
-126.768
 20
-325.525
 21
-322.757
  0
LINE
  8
0
 10
-126.768
 11
-125.058
 20
-322.757
 21
-320.183
  0
LINE
  8
0
 10
-125.058
 11
-123.039
 20
-320.183
 21
-317.844
  0
LINE
  8
0
 10
-123.039
 11
-120.743
 20
-317.844
 21
-315.777
  0
LINE
  8
0
 10
-120.743
 11
-118.206
 20
-315.777
 21
-314.013
  0
LINE
  8
0
 10
-118.206
 11
-115.467
 20
-314.013
 21
-312.581
  0
LINE
  8
0
 10
-115.467
 11
-112.571
 20
-312.581
 21
-311.504
  0
LINE
  8
0
 10
-112.571
 11
-109.563
 20
-311.504
 21
-310.799
  0
LINE
  8
0
 10
-109.563
 11
-106.489
 20
-310.799
 21
-310.475
  0
LINE
  8
0
 10
-106.489
 11
-103.4
 20
-310.475
 21
-310.54
  0
LINE
  8
0
 10
-103.4
 11
-100.343
 20
-310.54
 21
-310.991
  0
LINE
  8
0
 10
-100.343
 11
-97.367
 20
-310.991
 21
-311.823
  0
LINE
  8
0
 10
-97.367
 11
-94.518
 20
-311.823
 21
-313.02
  0
LINE
  8
0
 10
-94.518
 11
-91.842
 20
-313.02
 21
-314.565
  0
LINE
  8
0
 10
-91.842
 11
-89.381
 20
-314.565
 21
-316.434
  0
LINE
  8
0
 10
-89.381
 11
-87.173
 20
-316.434
 21
-318.595
  0
LINE
  8
0
 10
-87.173
 11
-86.768
 20
-318.595
 21
-319.107
  0
LINE
  8
0
 10
-86.768
 11
-85.659
 20
-319.107
 21
-319.211
  0
LINE
  8
0
 10
-85.659
 11
-82.644
 20
-319.211
 21
-319.886
  0
LINE
  8
0
 10
-82.644
 11
-79.736
 20
-319.886
 21
-320.932
  0
LINE
  8
0
 10
-79.736
 11
-76.983
 20
-320.932
 21
-322.335
  0
LINE
  8
0
 10
-76.983
 11
-74.427
 20
-322.335
 21
-324.073
  0
LINE
  8
0
 10
-74.427
 11
-72.109
 20
-324.073
 21
-326.116
  0
LINE
  8
0
 10
-72.109
 11
-71.606
 20
-326.116
 21
-326.687
  0
LINE
  8
0
 10
-71.606
 11
-70.385
 20
-326.687
 21
-326.738
  0
LINE
  8
0
 10
-70.385
 11
-67.339
 20
-326.738
 21
-327.253
  0
LINE
  8
0
 10
-67.339
 11
-64.38
 20
-327.253
 21
-328.146
  0
LINE
  8
0
 10
-64.38
 11
-61.557
 20
-328.146
 21
-329.403
  0
LINE
  8
0
 10
-61.557
 11
-58.914
 20
-329.403
 21
-331.004
  0
LINE
  8
0
 10
-58.914
 11
-56.492
 20
-331.004
 21
-332.923
  0
LINE
  8
0
 10
-56.492
 11
-55.883
 20
-332.923
 21
-333.545
  0
LINE
  8
0
 10
-55.883
 11
-54.554
 20
-333.545
 21
-333.531
  0
LINE
  8
0
 10
-54.554
 11
-51.485
 20
-333.531
 21
-333.886
  0
LINE
  8
0
 10
-51.485
 11
-48.483
 20
-333.886
 21
-334.623
  0
LINE
  8
0
 10
-48.483
 11
-45.599
 20
-334.623
 21
-335.73
  0
LINE
  8
0
 10
-45.599
 11
-42.875
 20
-335.73
 21
-337.191
  0
LINE
  8
0
 10
-42.875
 11
-40.356
 20
-337.191
 21
-338.981
  0
LINE
  8
0
 10
-40.356
 11
-39.637
 20
-338.981
 21
-339.643
  0
LINE
  8
0
 10
-39.637
 11
-38.201
 20
-339.643
 21
-339.552
  0
LINE
  8
0
 10
-38.201
 11
-35.117
 20
-339.552
 21
-339.747
  0
LINE
  8
0
 10
-35.117
 11
-32.081
 20
-339.747
 21
-340.325
  0
LINE
  8
0
 10
-32.081
 11
-29.143
 20
-340.325
 21
-341.28
  0
LINE
  8
0
 10
-29.143
 11
-26.347
 20
-341.28
 21
-342.596
  0
LINE
  8
0
 10
-26.347
 11
-23.737
 20
-342.596
 21
-344.252
  0
LINE
  8
0
 10
-23.737
 11
-22.901
 20
-344.252
 21
-344.944
  0
LINE
  8
0
 10
-22.901
 11
-21.364
 20
-344.944
 21
-344.766
  0
LINE
  8
0
 10
-21.364
 11
-18.274
 20
-344.766
 21
-344.799
  0
LINE
  8
0
 10
-18.274
 11
-15.212
 20
-344.799
 21
-345.218
  0
LINE
  8
0
 10
-15.212
 11
-12.228
 20
-345.218
 21
-346.018
  0
LINE
  8
0
 10
-12.228
 11
-9.366
 20
-346.018
 21
-347.186
  0
LINE
  8
0
 10
-9.366
 11
-6.674
 20
-347.186
 21
-348.702
  0
LINE
  8
0
 10
-6.674
 11
-5.715
 20
-348.702
 21
-349.415
  0
LINE
  8
0
 10
-5.715
 11
-4.083
 20
-349.415
 21
-349.139
  0
LINE
  8
0
 10
-4.083
 11
-0.996
 20
-349.139
 21
-349.01
  0
LINE
  8
0
 10
-0.996
 11
2.084
 20
-349.01
 21
-349.268
  0
LINE
  8
0
 10
2.084
 11
5.106
 20
-349.268
 21
-349.91
  0
LINE
  8
0
 10
5.106
 11
8.025
 20
-349.91
 21
-350.927
  0
LINE
  8
0
 10
8.025
 11
10.792
 20
-350.927
 21
-352.3
  0
LINE
  8
0
 10
10.792
 11
11.878
 20
-352.3
 21
-353.022
  0
LINE
  8
0
 10
11.878
 11
13.599
 20
-353.022
 21
-352.637
  0
LINE
  8
0
 10
13.599
 11
16.675
 20
-352.637
 21
-352.347
  0
LINE
  8
0
 10
16.675
 11
19.764
 20
-352.347
 21
-352.443
  0
LINE
  8
0
 10
19.764
 11
22.816
 20
-352.443
 21
-352.926
  0
LINE
  8
0
 10
22.816
 11
25.784
 20
-352.926
 21
-353.789
  0
LINE
  8
0
 10
25.784
 11
28.62
 20
-353.789
 21
-355.016
  0
LINE
  8
0
 10
28.62
 11
29.834
 20
-355.016
 21
-355.734
  0
LINE
  8
0
 10
29.834
 11
31.638
 20
-355.734
 21
-355.231
  0
LINE
  8
0
 10
31.638
 11
34.694
 20
-355.231
 21
-354.78
  0
LINE
  8
0
 10
34.694
 11
37.784
 20
-354.78
 21
-354.715
  0
LINE
  8
0
 10
37.784
 11
40.857
 20
-354.715
 21
-355.038
  0
LINE
  8
0
 10
40.857
 11
43.866
 20
-355.038
 21
-355.744
  0
LINE
  8
0
 10
43.866
 11
46.762
 20
-355.744
 21
-356.821
  0
LINE
  8
0
 10
46.762
 11
48.109
 20
-356.821
 21
-357.525
  0
LINE
  8
0
 10
48.109
 11
49.986
 20
-357.525
 21
-356.893
  0
LINE
  8
0
 10
49.986
 11
53.015
 20
-356.893
 21
-356.283
  0
LINE
  8
0
 10
53.015
 11
56.097
 20
-356.283
 21
-356.056
  0
LINE
  8
0
 10
56.097
 11
59.183
 20
-356.056
 21
-356.218
  0
LINE
  8
0
 10
59.183
 11
62.225
 20
-356.218
 21
-356.766
  0
LINE
  8
0
 10
62.225
 11
65.173
 20
-356.766
 21
-357.689
  0
LINE
  8
0
 10
65.173
 11
66.654
 20
-357.689
 21
-358.367
  0
LINE
  8
0
 10
66.654
 11
68.596
 20
-358.367
 21
-357.598
  0
LINE
  8
0
 10
68.596
 11
71.589
 20
-357.598
 21
-356.83
  0
LINE
  8
0
 10
71.589
 11
74.655
 20
-356.83
 21
-356.442
  0
LINE
  8
0
 10
74.655
 11
77.745
 20
-356.442
 21
-356.442
  0
LINE
  8
0
 10
77.745
 11
80.811
 20
-356.442
 21
-356.83
  0
LINE
  8
0
 10
80.811
 11
83.804
 20
-356.83
 21
-357.598
  0
LINE
  8
0
 10
83.804
 11
85.419
 20
-357.598
 21
-358.238
  0
LINE
  8
0
 10
85.419
 11
87.417
 20
-358.238
 21
-357.323
  0
LINE
  8
0
 10
87.417
 11
90.365
 20
-357.323
 21
-356.399
  0
LINE
  8
0
 10
90.365
 11
93.407
 20
-356.399
 21
-355.851
  0
LINE
  8
0
 10
93.407
 11
96.493
 20
-355.851
 21
-355.689
  0
LINE
  8
0
 10
96.493
 11
99.575
 20
-355.689
 21
-355.916
  0
LINE
  8
0
 10
99.575
 11
102.604
 20
-355.916
 21
-356.527
  0
LINE
  8
0
 10
102.604
 11
104.352
 20
-356.527
 21
-357.116
  0
LINE
  8
0
 10
104.352
 11
106.396
 20
-357.116
 21
-356.047
  0
LINE
  8
0
 10
106.396
 11
109.292
 20
-356.047
 21
-354.97
  0
LINE
  8
0
 10
109.292
 11
112.301
 20
-354.97
 21
-354.264
  0
LINE
  8
0
 10
112.301
 11
115.374
 20
-354.264
 21
-353.941
  0
LINE
  8
0
 10
115.374
 11
118.464
 20
-353.941
 21
-354.006
  0
LINE
  8
0
 10
118.464
 11
121.521
 20
-354.006
 21
-354.457
  0
LINE
  8
0
 10
121.521
 11
123.402
 20
-354.457
 21
-354.983
  0
LINE
  8
0
 10
123.402
 11
125.48
 20
-354.983
 21
-353.754
  0
LINE
  8
0
 10
125.48
 11
128.316
 20
-353.754
 21
-352.527
  0
LINE
  8
0
 10
128.316
 11
131.284
 20
-352.527
 21
-351.664
  0
LINE
  8
0
 10
131.284
 11
134.336
 20
-351.664
 21
-351.181
  0
LINE
  8
0
 10
134.336
 11
137.425
 20
-351.181
 21
-351.084
  0
LINE
  8
0
 10
137.425
 11
140.501
 20
-351.084
 21
-351.375
  0
LINE
  8
0
 10
140.501
 11
142.514
 20
-351.375
 21
-351.825
  0
LINE
  8
0
 10
142.514
 11
144.614
 20
-351.825
 21
-350.429
  0
LINE
  8
0
 10
144.614
 11
147.382
 20
-350.429
 21
-349.055
  0
LINE
  8
0
 10
147.382
 11
150.301
 20
-349.055
 21
-348.038
  0
LINE
  8
0
 10
150.301
 11
153.323
 20
-348.038
 21
-347.396
  0
LINE
  8
0
 10
153.323
 11
156.403
 20
-347.396
 21
-347.138
  0
LINE
  8
0
 10
156.403
 11
159.49
 20
-347.138
 21
-347.267
  0
LINE
  8
0
 10
159.49
 11
161.63
 20
-347.267
 21
-347.629
  0
LINE
  8
0
 10
161.63
 11
163.742
 20
-347.629
 21
-346.06
  0
LINE
  8
0
 10
163.742
 11
166.435
 20
-346.06
 21
-344.544
  0
LINE
  8
0
 10
166.435
 11
169.296
 20
-344.544
 21
-343.375
  0
LINE
  8
0
 10
169.296
 11
172.28
 20
-343.375
 21
-342.576
  0
LINE
  8
0
 10
172.28
 11
175.342
 20
-342.576
 21
-342.157
  0
LINE
  8
0
 10
175.342
 11
178.432
 20
-342.157
 21
-342.124
  0
LINE
  8
0
 10
178.432
 11
180.696
 20
-342.124
 21
-342.387
  0
LINE
  8
0
 10
180.696
 11
182.807
 20
-342.387
 21
-340.64
  0
LINE
  8
0
 10
182.807
 11
185.416
 20
-340.64
 21
-338.984
  0
LINE
  8
0
 10
185.416
 11
188.212
 20
-338.984
 21
-337.668
  0
LINE
  8
0
 10
188.212
 11
191.151
 20
-337.668
 21
-336.713
  0
LINE
  8
0
 10
191.151
 11
194.186
 20
-336.713
 21
-336.135
  0
LINE
  8
0
 10
194.186
 11
197.27
 20
-336.135
 21
-335.94
  0
LINE
  8
0
 10
197.27
 11
199.653
 20
-335.94
 21
-336.091
  0
LINE
  8
0
 10
199.653
 11
201.749
 20
-336.091
 21
-334.162
  0
LINE
  8
0
 10
201.749
 11
204.268
 20
-334.162
 21
-332.373
  0
LINE
  8
0
 10
204.268
 11
206.992
 20
-332.373
 21
-330.912
  0
LINE
  8
0
 10
206.992
 11
209.876
 20
-330.912
 21
-329.805
  0
LINE
  8
0
 10
209.876
 11
212.878
 20
-329.805
 21
-329.068
  0
LINE
  8
0
 10
212.878
 11
215.947
 20
-329.068
 21
-328.712
  0
LINE
  8
0
 10
215.947
 11
218.443
 20
-328.712
 21
-328.739
  0
LINE
  8
0
 10
218.443
 11
220.511
 20
-328.739
 21
-326.626
  0
LINE
  8
0
 10
220.511
 11
222.933
 20
-326.626
 21
-324.707
  0
LINE
  8
0
 10
222.933
 11
225.576
 20
-324.707
 21
-323.106
  0
LINE
  8
0
 10
225.576
 11
228.399
 20
-323.106
 21
-321.849
  0
LINE
  8
0
 10
228.399
 11
231.358
 20
-321.849
 21
-320.956
  0
LINE
  8
0
 10
231.358
 11
234.404
 20
-320.956
 21
-320.441
  0
LINE
  8
0
 10
234.404
 11
237.006
 20
-320.441
 21
-320.332
  0
LINE
  8
0
 10
237.006
 11
239.033
 20
-320.332
 21
-318.033
  0
LINE
  8
0
 10
239.033
 11
241.351
 20
-318.033
 21
-315.99
  0
LINE
  8
0
 10
241.351
 11
243.907
 20
-315.99
 21
-314.252
  0
LINE
  8
0
 10
243.907
 11
246.66
 20
-314.252
 21
-312.849
  0
LINE
  8
0
 10
246.66
 11
249.568
 20
-312.849
 21
-311.803
  0
LINE
  8
0
 10
249.568
 11
252.583
 20
-311.803
 21
-311.129
  0
LINE
  8
0
 10
252.583
 11
255.298
 20
-311.129
 21
-310.872
  0
LINE
  8
0
 10
255.298
 11
255.336
 20
-310.872
 21
-310.809
  0
LINE
  8
0
 10
255.336
 11
257.255
 20
-310.809
 21
-308.387
  0
LINE
  8
0
 10
257.255
 11
259.463
 20
-308.387
 21
-306.225
  0
LINE
  8
0
 10
259.463
 11
261.924
 20
-306.225
 21
-304.356
  0
LINE
  8
0
 10
261.924
 11
264.6
 20
-304.356
 21
-302.811
  0
LINE
  8
0
 10
264.6
 11
267.449
 20
-302.811
 21
-301.614
  0
LINE
  8
0
 10
267.449
 11
270.425
 20
-301.614
 21
-300.783
  0
LINE
  8
0
 10
270.425
 11
273.482
 20
-300.783
 21
-300.332
  0
LINE
  8
0
 10
273.482
 11
276.572
 20
-300.332
 21
-300.266
  0
LINE
  8
0
 10
276.572
 11
279.645
 20
-300.266
 21
-300.59
  0
LINE
  8
0
 10
279.645
 11
282.653
 20
-300.59
 21
-301.295
  0
LINE
  8
0
 10
282.653
 11
285.55
 20
-301.295
 21
-302.372
  0
LINE
  8
0
 10
285.55
 11
288.288
 20
-302.372
 21
-303.804
  0
LINE
  8
0
 10
288.288
 11
290.825
 20
-303.804
 21
-305.568
  0
LINE
  8
0
 10
290.825
 11
293.122
 20
-305.568
 21
-307.636
  0
LINE
  8
0
 10
293.122
 11
295.141
 20
-307.636
 21
-309.974
  0
LINE
  8
0
 10
295.141
 11
296.851
 20
-309.974
 21
-312.548
  0
LINE
  8
0
 10
296.851
 11
298.225
 20
-312.548
 21
-315.316
  0
LINE
  8
0
 10
298.225
 11
299.241
 20
-315.316
 21
-318.234
  0
LINE
  8
0
 10
299.241
 11
299.883
 20
-318.234
 21
-321.257
  0
LINE
  8
0
 10
299.883
 11
300.142
 20
-321.257
 21
-324.336
  0
LINE
  8
0
 10
300.142
 11
300.013
 20
-324.336
 21
-327.423
  0
LINE
  8
0
 10
300.013
 11
299.497
 20
-327.423
 21
-330.47
  0
LINE
  8
0
 10
299.497
 11
298.604
 20
-330.47
 21
-333.428
  0
LINE
  8
0
 10
298.604
 11
297.348
 20
-333.428
 21
-336.251
  0
LINE
  8
0
 10
297.348
 11
295.746
 20
-336.251
 21
-338.894
  0
LINE
  8
0
 10
295.746
 11
293.827
 20
-338.894
 21
-341.316
  0
LINE
  8
0
 10
293.827
 11
291.619
 20
-341.316
 21
-343.478
  0
LINE
  8
0
 10
291.619
 11
289.158
 20
-343.478
 21
-345.347
  0
LINE
  8
0
 10
289.158
 11
286.482
 20
-345.347
 21
-346.892
  0
LINE
  8
0
 10
286.482
 11
283.633
 20
-346.892
 21
-348.089
  0
LINE
  8
0
 10
283.633
 11
280.657
 20
-348.089
 21
-348.92
  0
LINE
  8
0
 10
280.657
 11
277.6
 20
-348.92
 21
-349.371
  0
LINE
  8
0
 10
277.6
 11
276.638
 20
-349.371
 21
-349.391
  0
LINE
  8
0
 10
276.638
 11
275.875
 20
-349.391
 21
-350.513
  0
LINE
  8
0
 10
275.875
 11
273.832
 20
-350.513
 21
-352.831
  0
LINE
  8
0
 10
273.832
 11
271.514
 20
-352.831
 21
-354.874
  0
LINE
  8
0
 10
271.514
 11
268.958
 20
-354.874
 21
-356.612
  0
LINE
  8
0
 10
268.958
 11
266.205
 20
-356.612
 21
-358.015
  0
LINE
  8
0
 10
266.205
 11
263.297
 20
-358.015
 21
-359.061
  0
LINE
  8
0
 10
263.297
 11
260.281
 20
-359.061
 21
-359.736
  0
LINE
  8
0
 10
260.281
 11
257.205
 20
-359.736
 21
-360.026
  0
LINE
  8
0
 10
257.205
 11
256.355
 20
-360.026
 21
-359.999
  0
LINE
  8
0
 10
256.355
 11
255.603
 20
-359.999
 21
-360.99
  0
LINE
  8
0
 10
255.603
 11
253.441
 20
-360.99
 21
-363.198
  0
LINE
  8
0
 10
253.441
 11
251.019
 20
-363.198
 21
-365.117
  0
LINE
  8
0
 10
251.019
 11
248.376
 20
-365.117
 21
-366.719
  0
LINE
  8
0
 10
248.376
 11
245.553
 20
-366.719
 21
-367.976
  0
LINE
  8
0
 10
245.553
 11
242.595
 20
-367.976
 21
-368.868
  0
LINE
  8
0
 10
242.595
 11
239.548
 20
-368.868
 21
-369.384
  0
LINE
  8
0
 10
239.548
 11
236.461
 20
-369.384
 21
-369.513
  0
LINE
  8
0
 10
236.461
 11
235.726
 20
-369.513
 21
-369.451
  0
LINE
  8
0
 10
235.726
 11
234.995
 20
-369.451
 21
-370.316
  0
LINE
  8
0
 10
234.995
 11
232.72
 20
-370.316
 21
-372.408
  0
LINE
  8
0
 10
232.72
 11
230.201
 20
-372.408
 21
-374.197
  0
LINE
  8
0
 10
230.201
 11
227.478
 20
-374.197
 21
-375.658
  0
LINE
  8
0
 10
227.478
 11
224.593
 20
-375.658
 21
-376.766
  0
LINE
  8
0
 10
224.593
 11
221.592
 20
-376.766
 21
-377.502
  0
LINE
  8
0
 10
221.592
 11
218.522
 20
-377.502
 21
-377.858
  0
LINE
  8
0
 10
218.522
 11
215.432
 20
-377.858
 21
-377.825
  0
LINE
  8
0
 10
215.432
 11
214.812
 20
-377.825
 21
-377.74
  0
LINE
  8
0
 10
214.812
 11
214.114
 20
-377.74
 21
-378.483
  0
LINE
  8
0
 10
214.114
 11
211.734
 20
-378.483
 21
-380.453
  0
LINE
  8
0
 10
211.734
 11
209.124
 20
-380.453
 21
-382.109
  0
LINE
  8
0
 10
209.124
 11
206.328
 20
-382.109
 21
-383.425
  0
LINE
  8
0
 10
206.328
 11
203.39
 20
-383.425
 21
-384.38
  0
LINE
  8
0
 10
203.39
 11
200.354
 20
-384.38
 21
-384.959
  0
LINE
  8
0
 10
200.354
 11
197.27
 20
-384.959
 21
-385.153
  0
LINE
  8
0
 10
197.27
 11
194.186
 20
-385.153
 21
-384.958
  0
LINE
  8
0
 10
194.186
 11
193.681
 20
-384.958
 21
-384.862
  0
LINE
  8
0
 10
193.681
 11
193.026
 20
-384.862
 21
-385.49
  0
LINE
  8
0
 10
193.026
 11
190.546
 20
-385.49
 21
-387.333
  0
LINE
  8
0
 10
190.546
 11
187.854
 20
-387.333
 21
-388.85
  0
LINE
  8
0
 10
187.854
 11
184.993
 20
-388.85
 21
-390.018
  0
LINE
  8
0
 10
184.993
 11
182.008
 20
-390.018
 21
-390.818
  0
LINE
  8
0
 10
182.008
 11
178.946
 20
-390.818
 21
-391.236
  0
LINE
  8
0
 10
178.946
 11
175.856
 20
-391.236
 21
-391.269
  0
LINE
  8
0
 10
175.856
 11
172.786
 20
-391.269
 21
-390.914
  0
LINE
  8
0
 10
172.786
 11
172.397
 20
-390.914
 21
-390.818
  0
LINE
  8
0
 10
172.397
 11
171.795
 20
-390.818
 21
-391.338
  0
LINE
  8
0
 10
171.795
 11
169.221
 20
-391.338
 21
-393.048
  0
LINE
  8
0
 10
169.221
 11
166.453
 20
-393.048
 21
-394.421
  0
LINE
  8
0
 10
166.453
 11
163.535
 20
-394.421
 21
-395.438
  0
LINE
  8
0
 10
163.535
 11
160.512
 20
-395.438
 21
-396.081
  0
LINE
  8
0
 10
160.512
 11
157.433
 20
-396.081
 21
-396.339
  0
LINE
  8
0
 10
157.433
 11
154.345
 20
-396.339
 21
-396.21
  0
LINE
  8
0
 10
154.345
 11
151.299
 20
-396.21
 21
-395.694
  0
LINE
  8
0
 10
151.299
 11
151.022
 20
-395.694
 21
-395.61
  0
LINE
  8
0
 10
151.022
 11
150.482
 20
-395.61
 21
-396.029
  0
LINE
  8
0
 10
150.482
 11
147.823
 20
-396.029
 21
-397.603
  0
LINE
  8
0
 10
147.823
 11
144.987
 20
-397.603
 21
-398.829
  0
LINE
  8
0
 10
144.987
 11
142.019
 20
-398.829
 21
-399.692
  0
LINE
  8
0
 10
142.019
 11
138.967
 20
-399.692
 21
-400.176
  0
LINE
  8
0
 10
138.967
 11
135.878
 20
-400.176
 21
-400.272
  0
LINE
  8
0
 10
135.878
 11
132.802
 20
-400.272
 21
-399.982
  0
LINE
  8
0
 10
132.802
 11
129.786
 20
-399.982
 21
-399.307
  0
LINE
  8
0
 10
129.786
 11
129.62
 20
-399.307
 21
-399.247
  0
LINE
  8
0
 10
129.62
 11
129.151
 20
-399.247
 21
-399.573
  0
LINE
  8
0
 10
129.151
 11
126.413
 20
-399.573
 21
-401.005
  0
LINE
  8
0
 10
126.413
 11
123.517
 20
-401.005
 21
-402.082
  0
LINE
  8
0
 10
123.517
 11
120.508
 20
-402.082
 21
-402.788
  0
LINE
  8
0
 10
120.508
 11
117.435
 20
-402.788
 21
-403.111
  0
LINE
  8
0
 10
117.435
 11
114.345
 20
-403.111
 21
-403.046
  0
LINE
  8
0
 10
114.345
 11
111.288
 20
-403.046
 21
-402.595
  0
LINE
  8
0
 10
111.288
 11
108.312
 20
-402.595
 21
-401.763
  0
LINE
  8
0
 10
108.312
 11
108.253
 20
-401.763
 21
-401.738
  0
LINE
  8
0
 10
108.253
 11
107.863
 20
-401.738
 21
-401.98
  0
LINE
  8
0
 10
107.863
 11
105.053
 20
-401.98
 21
-403.267
  0
LINE
  8
0
 10
105.053
 11
102.105
 20
-403.267
 21
-404.19
  0
LINE
  8
0
 10
102.105
 11
99.063
 20
-404.19
 21
-404.738
  0
LINE
  8
0
 10
99.063
 11
95.977
 20
-404.738
 21
-404.9
  0
LINE
  8
0
 10
95.977
 11
92.895
 20
-404.9
 21
-404.673
  0
LINE
  8
0
 10
92.895
 11
89.866
 20
-404.673
 21
-404.063
  0
LINE
  8
0
 10
89.866
 11
86.988
 20
-404.063
 21
-403.093
  0
LINE
  8
0
 10
86.988
 11
86.677
 20
-403.093
 21
-403.264
  0
LINE
  8
0
 10
86.677
 11
83.804
 20
-403.264
 21
-404.402
  0
LINE
  8
0
 10
83.804
 11
80.811
 20
-404.402
 21
-405.17
  0
LINE
  8
0
 10
80.811
 11
77.745
 20
-405.17
 21
-405.558
  0
LINE
  8
0
 10
77.745
 11
74.655
 20
-405.558
 21
-405.558
  0
LINE
  8
0
 10
74.655
 11
71.589
 20
-405.558
 21
-405.17
  0
LINE
  8
0
 10
71.589
 11
68.596
 20
-405.17
 21
-404.402
  0
LINE
  8
0
 10
68.596
 11
65.888
 20
-404.402
 21
-403.329
  0
LINE
  8
0
 10
65.888
 11
65.652
 20
-403.329
 21
-403.443
  0
LINE
  8
0
 10
65.652
 11
62.724
 20
-403.443
 21
-404.429
  0
LINE
  8
0
 10
62.724
 11
59.695
 20
-404.429
 21
-405.039
  0
LINE
  8
0
 10
59.695
 11
56.613
 20
-405.039
 21
-405.266
  0
LINE
  8
0
 10
56.613
 11
53.527
 20
-405.266
 21
-405.105
  0
LINE
  8
0
 10
53.527
 11
50.485
 20
-405.105
 21
-404.557
  0
LINE
  8
0
 10
50.485
 11
47.537
 20
-404.557
 21
-403.633
  0
LINE
  8
0
 10
47.537
 11
45.001
 20
-403.633
 21
-402.472
  0
LINE
  8
0
 10
45.001
 11
44.846
 20
-402.472
 21
-402.537
  0
LINE
  8
0
 10
44.846
 11
41.87
 20
-402.537
 21
-403.368
  0
LINE
  8
0
 10
41.87
 11
38.813
 20
-403.368
 21
-403.819
  0
LINE
  8
0
 10
38.813
 11
35.723
 20
-403.819
 21
-403.885
  0
LINE
  8
0
 10
35.723
 11
32.65
 20
-403.885
 21
-403.562
  0
LINE
  8
0
 10
32.65
 11
29.642
 20
-403.562
 21
-402.855
  0
LINE
  8
0
 10
29.642
 11
26.745
 20
-402.855
 21
-401.779
  0
LINE
  8
0
 10
26.745
 11
24.384
 20
-401.779
 21
-400.544
  0
LINE
  8
0
 10
24.384
 11
24.314
 20
-400.544
 21
-400.569
  0
LINE
  8
0
 10
24.314
 11
21.298
 20
-400.569
 21
-401.244
  0
LINE
  8
0
 10
21.298
 11
18.222
 20
-401.244
 21
-401.534
  0
LINE
  8
0
 10
18.222
 11
15.133
 20
-401.534
 21
-401.438
  0
LINE
  8
0
 10
15.133
 11
12.081
 20
-401.438
 21
-400.954
  0
LINE
  8
0
 10
12.081
 11
9.113
 20
-400.954
 21
-400.091
  0
LINE
  8
0
 10
9.113
 11
6.277
 20
-400.091
 21
-398.865
  0
LINE
  8
0
 10
6.277
 11
4.088
 20
-398.865
 21
-397.569
  0
LINE
  8
0
 10
4.088
 11
1.061
 20
-397.569
 21
-398.082
  0
LINE
  8
0
 10
1.061
 11
-2.026
 20
-398.082
 21
-398.211
  0
LINE
  8
0
 10
-2.026
 11
-5.106
 20
-398.211
 21
-397.953
  0
LINE
  8
0
 10
-5.106
 11
-8.128
 20
-397.953
 21
-397.31
  0
LINE
  8
0
 10
-8.128
 11
-11.046
 20
-397.31
 21
-396.293
  0
LINE
  8
0
 10
-11.046
 11
-13.814
 20
-396.293
 21
-394.92
  0
LINE
  8
0
 10
-13.814
 11
-15.844
 20
-394.92
 21
-393.571
  0
LINE
  8
0
 10
-15.844
 11
-18.788
 20
-393.571
 21
-393.912
  0
LINE
  8
0
 10
-18.788
 11
-21.878
 20
-393.912
 21
-393.879
  0
LINE
  8
0
 10
-21.878
 11
-24.94
 20
-393.879
 21
-393.46
  0
LINE
  8
0
 10
-24.94
 11
-27.924
 20
-393.46
 21
-392.66
  0
LINE
  8
0
 10
-27.924
 11
-30.786
 20
-392.66
 21
-391.492
  0
LINE
  8
0
 10
-30.786
 11
-33.478
 20
-391.492
 21
-389.975
  0
LINE
  8
0
 10
-33.478
 11
-35.35
 20
-389.975
 21
-388.585
  0
LINE
  8
0
 10
-35.35
 11
-38.201
 20
-388.585
 21
-388.765
  0
LINE
  8
0
 10
-38.201
 11
-41.284
 20
-388.765
 21
-388.57
  0
LINE
  8
0
 10
-41.284
 11
-44.32
 20
-388.57
 21
-387.992
  0
LINE
  8
0
 10
-44.32
 11
-47.259
 20
-387.992
 21
-387.037
  0
LINE
  8
0
 10
-47.259
 11
-50.055
 20
-387.037
 21
-385.721
  0
LINE
  8
0
 10
-50.055
 11
-52.664
 20
-385.721
 21
-384.065
  0
LINE
  8
0
 10
-52.664
 11
-54.378
 20
-384.065
 21
-382.647
  0
LINE
  8
0
 10
-54.378
 11
-57.129
 20
-382.647
 21
-382.676
  0
LINE
  8
0
 10
-57.129
 11
-60.199
 20
-382.676
 21
-382.32
  0
LINE
  8
0
 10
-60.199
 11
-63.2
 20
-382.32
 21
-381.584
  0
LINE
  8
0
 10
-63.2
 11
-66.085
 20
-381.584
 21
-380.476
  0
LINE
  8
0
 10
-66.085
 11
-68.808
 20
-380.476
 21
-379.015
  0
LINE
  8
0
 10
-68.808
 11
-71.327
 20
-379.015
 21
-377.226
  0
LINE
  8
0
 10
-71.327
 11
-72.887
 20
-377.226
 21
-375.791
  0
LINE
  8
0
 10
-72.887
 11
-75.529
 20
-375.791
 21
-375.681
  0
LINE
  8
0
 10
-75.529
 11
-78.576
 20
-375.681
 21
-375.165
  0
LINE
  8
0
 10
-78.576
 11
-81.534
 20
-375.165
 21
-374.273
  0
LINE
  8
0
 10
-81.534
 11
-84.357
 20
-374.273
 21
-373.016
  0
LINE
  8
0
 10
-84.357
 11
-87
 20
-373.016
 21
-371.414
  0
LINE
  8
0
 10
-87
 11
-89.422
 20
-371.414
 21
-369.495
  0
LINE
  8
0
 10
-89.422
 11
-90.83
 20
-369.495
 21
-368.057
  0
LINE
  8
0
 10
-90.83
 11
-93.357
 20
-368.057
 21
-367.818
  0
LINE
  8
0
 10
-93.357
 11
-96.373
 20
-367.818
 21
-367.144
  0
LINE
  8
0
 10
-96.373
 11
-99.281
 20
-367.144
 21
-366.098
  0
LINE
  8
0
 10
-99.281
 11
-102.034
 20
-366.098
 21
-364.695
  0
LINE
  8
0
 10
-102.034
 11
-104.59
 20
-364.695
 21
-362.957
  0
LINE
  8
0
 10
-104.59
 11
-106.908
 20
-362.957
 21
-360.914
  0
LINE
  8
0
 10
-106.908
 11
-108.168
 20
-360.914
 21
-359.484
  0
LINE
  8
0
 10
-108.168
 11
-110.575
 20
-359.484
 21
-359.129
  0
LINE
  8
0
 10
-110.575
 11
-113.551
 20
-359.129
 21
-358.297
  0
LINE
  8
0
 10
-113.551
 11
-116.4
 20
-358.297
 21
-357.1
  0
LINE
  8
0
 10
-116.4
 11
-119.076
 20
-357.1
 21
-355.555
  0
LINE
  8
0
 10
-119.076
 11
-121.537
 20
-355.555
 21
-353.686
  0
LINE
  8
0
 10
-121.537
 11
-123.745
 20
-353.686
 21
-351.525
  0
LINE
  8
0
 10
-123.745
 11
-125.664
 20
-351.525
 21
-349.103
  0
LINE
  8
0
 10
-125.664
 11
-127.265
 20
-349.103
 21
-346.46
  0
LINE
  8
0
 10
-127.265
 11
-128.522
 20
-346.46
 21
-343.637
  0
LINE
  8
0
 10
-128.522
 11
-129.415
 20
-343.637
 21
-340.679
  0
LINE
  8
0
 10
-129.415
 11
-129.93
 20
-340.679
 21
-337.632
  0
LINE
  8
0
 10
-129.93
 11
-130.06
 20
-337.632
 21
-334.544
  0
LINE
  8
0
 10
-130.06
 11
-129.93
 20
334.544
 21
337.632
  0
LINE
  8
0
 10
-129.93
 11
-129.415
 20
337.632
 21
340.679
  0
LINE
  8
0
 10
-129.415
 11
-128.522
 20
340.679
 21
343.637
  0
LINE
  8
0
 10
-128.522
 11
-127.265
 20
343.637
 21
346.46
  0
LINE
  8
0
 10
-127.265
 11
-125.664
 20
346.46
 21
349.103
  0
LINE
  8
0
 10
-125.664
 11
-123.745
 20
349.103
 21
351.525
  0
LINE
  8
0
 10
-123.745
 11
-121.537
 20
351.525
 21
353.686
  0
LINE
  8
0
 10
-121.537
 11
-119.076
 20
353.686
 21
355.555
  0
LINE
  8
0
 10
-119.076
 11
-116.4
 20
355.555
 21
357.1
  0
LINE
  8
0
 10
-116.4
 11
-113.551
 20
357.1
 21
358.297
  0
LINE
  8
0
 10
-113.551
 11
-110.575
 20
358.297
 21
359.129
  0
LINE
  8
0
 10
-110.575
 11
-108.168
 20
359.129
 21
359.484
  0
LINE
  8
0
 10
-108.168
 11
-106.908
 20
359.484
 21
360.914
  0
LINE
  8
0
 10
-106.908
 11
-104.59
 20
360.914
 21
362.957
  0
LINE
  8
0
 10
-104.59
 11
-102.034
 20
362.957
 21
364.695
  0
LINE
  8
0
 10
-102.034
 11
-99.281
 20
364.695
 21
366.098
  0
LINE
  8
0
 10
-99.281
 11
-96.373
 20
366.098
 21
367.144
  0
LINE
  8
0
 10
-96.373
 11
-93.357
 20
367.144
 21
367.818
  0
LINE
  8
0
 10
-93.357
 11
-90.83
 20
367.818
 21
368.057
  0
LINE
  8
0
 10
-90.83
 11
-89.422
 20
368.057
 21
369.495
  0
LINE
  8
0
 10
-89.422
 11
-87
 20
369.495
 21
371.414
  0
LINE
  8
0
 10
-87
 11
-84.357
 20
371.414
 21
373.016
  0
LINE
  8
0
 10
-84.357
 11
-81.534
 20
373.016
 21
374.273
  0
LINE
  8
0
 10
-81.534
 11
-78.576
 20
374.273
 21
375.165
  0
LINE
  8
0
 10
-78.576
 11
-75.529
 20
375.165
 21
375.681
  0
LINE
  8
0
 10
-75.529
 11
-72.887
 20
375.681
 21
375.791
  0
LINE
  8
0
 10
-72.887
 11
-71.327
 20
375.791
 21
377.226
  0
LINE
  8
0
 10
-71.327
 11
-68.808
 20
377.226
 21
379.015
  0
LINE
  8
0
 10
-68.808
 11
-66.085
 20
379.015
 21
380.476
  0
LINE
  8
0
 10
-66.085
 11
-63.2
 20
380.476
 21
381.584
  0
LINE
  8
0
 10
-63.2
 11
-60.199
 20
381.584
 21
382.32
  0
LINE
  8
0
 10
-60.199
 11
-57.129
 20
382.32
 21
382.676
  0
LINE
  8
0
 10
-57.129
 11
-54.378
 20
382.676
 21
382.647
  0
LINE
  8
0
 10
-54.378
 11
-52.664
 20
382.647
 21
384.065
  0
LINE
  8
0
 10
-52.664
 11
-50.055
 20
384.065
 21
385.721
  0
LINE
  8
0
 10
-50.055
 11
-47.259
 20
385.721
 21
387.037
  0
LINE
  8
0
 10
-47.259
 11
-44.32
 20
387.037
 21
387.992
  0
LINE
  8
0
 10
-44.32
 11
-41.284
 20
387.992
 21
388.57
  0
LINE
  8
0
 10
-41.284
 11
-38.201
 20
388.57
 21
388.765
  0
LINE
  8
0
 10
-38.201
 11
-35.35
 20
388.765
 21
388.585
  0
LINE
  8
0
 10
-35.35
 11
-33.478
 20
388.585
 21
389.975
  0
LINE
  8
0
 10
-33.478
 11
-30.786
 20
389.975
 21
391.492
  0
LINE
  8
0
 10
-30.786
 11
-27.924
 20
391.492
 21
392.66
  0
LINE
  8
0
 10
-27.924
 11
-24.94
 20
392.66
 21
393.46
  0
LINE
  8
0
 10
-24.94
 11
-21.878
 20
393.46
 21
393.879
  0
LINE
  8
0
 10
-21.878
 11
-18.788
 20
393.879
 21
393.912
  0
LINE
  8
0
 10
-18.788
 11
-15.844
 20
393.912
 21
393.571
  0
LINE
  8
0
 10
-15.844
 11
-13.814
 20
393.571
 21
394.92
  0
LINE
  8
0
 10
-13.814
 11
-11.046
 20
394.92
 21
396.293
  0
LINE
  8
0
 10
-11.046
 11
-8.128
 20
396.293
 21
397.31
  0
LINE
  8
0
 10
-8.128
 11
-5.106
 20
397.31
 21
397.953
  0
LINE
  8
0
 10
-5.106
 11
-2.026
 20
397.953
 21
398.211
  0
LINE
  8
0
 10
-2.026
 11
1.061
 20
398.211
 21
398.082
  0
LINE
  8
0
 10
1.061
 11
4.088
 20
398.082
 21
397.569
  0
LINE
  8
0
 10
4.088
 11
6.277
 20
397.569
 21
398.865
  0
LINE
  8
0
 10
6.277
 11
9.113
 20
398.865
 21
400.091
  0
LINE
  8
0
 10
9.113
 11
12.081
 20
400.091
 21
400.954
  0
LINE
  8
0
 10
12.081
 11
15.133
 20
400.954
 21
401.438
  0
LINE
  8
0
 10
15.133
 11
18.222
 20
401.438
 21
401.534
  0
LINE
  8
0
 10
18.222
 11
21.298
 20
401.534
 21
401.244
  0
LINE
  8
0
 10
21.298
 11
24.314
 20
401.244
 21
400.569
  0
LINE
  8
0
 10
24.314
 11
24.384
 20
400.569
 21
400.544
  0
LINE
  8
0
 10
24.384
 11
26.745
 20
400.544
 21
401.779
  0
LINE
  8
0
 10
26.745
 11
29.642
 20
401.779
 21
402.855
  0
LINE
  8
0
 10
29.642
 11
32.65
 20
402.855
 21
403.562
  0
LINE
  8
0
 10
32.65
 11
35.723
 20
403.562
 21
403.885
  0
LINE
  8
0
 10
35.723
 11
38.813
 20
403.885
 21
403.819
  0
LINE
  8
0
 10
38.813
 11
41.87
 20
403.819
 21
403.368
  0
LINE
  8
0
 10
41.87
 11
44.846
 20
403.368
 21
402.537
  0
LINE
  8
0
 10
44.846
 11
45.001
 20
402.537
 21
402.472
  0
LINE
  8
0
 10
45.001
 11
47.537
 20
402.472
 21
403.633
  0
LINE
  8
0
 10
47.537
 11
50.485
 20
403.633
 21
404.557
  0
LINE
  8
0
 10
50.485
 11
53.527
 20
404.557
 21
405.105
  0
LINE
  8
0
 10
53.527
 11
56.613
 20
405.105
 21
405.266
  0
LINE
  8
0
 10
56.613
 11
59.695
 20
405.266
 21
405.039
  0
LINE
  8
0
 10
59.695
 11
62.724
 20
405.039
 21
404.429
  0
LINE
  8
0
 10
62.724
 11
65.652
 20
404.429
 21
403.443
  0
LINE
  8
0
 10
65.652
 11
65.888
 20
403.443
 21
403.329
  0
LINE
  8
0
 10
65.888
 11
68.596
 20
403.329
 21
404.402
  0
LINE
  8
0
 10
68.596
 11
71.589
 20
404.402
 21
405.17
  0
LINE
  8
0
 10
71.589
 11
74.655
 20
405.17
 21
405.558
  0
LINE
  8
0
 10
74.655
 11
77.745
 20
405.558
 21
405.558
  0
LINE
  8
0
 10
77.745
 11
80.811
 20
405.558
 21
405.17
  0
LINE
  8
0
 10
80.811
 11
83.804
 20
405.17
 21
404.402
  0
LINE
  8
0
 10
83.804
 11
86.677
 20
404.402
 21
403.264
  0
LINE
  8
0
 10
86.677
 11
86.988
 20
403.264
 21
403.093
  0
LINE
  8
0
 10
86.988
 11
89.866
 20
403.093
 21
404.063
  0
LINE
  8
0
 10
89.866
 11
92.895
 20
404.063
 21
404.673
  0
LINE
  8
0
 10
92.895
 11
95.977
 20
404.673
 21
404.9
  0
LINE
  8
0
 10
95.977
 11
99.063
 20
404.9
 21
404.738
  0
LINE
  8
0
 10
99.063
 11
102.105
 20
404.738
 21
404.19
  0
LINE
  8
0
 10
102.105
 11
105.053
 20
404.19
 21
403.267
  0
LINE
  8
0
 10
105.053
 11
107.863
 20
403.267
 21
401.98
  0
LINE
  8
0
 10
107.863
 11
108.253
 20
401.98
 21
401.738
  0
LINE
  8
0
 10
108.253
 11
108.312
 20
401.738
 21
401.763
  0
LINE
  8
0
 10
108.312
 11
111.288
 20
401.763
 21
402.595
  0
LINE
  8
0
 10
111.288
 11
114.345
 20
402.595
 21
403.046
  0
LINE
  8
0
 10
114.345
 11
117.435
 20
403.046
 21
403.111
  0
LINE
  8
0
 10
117.435
 11
120.508
 20
403.111
 21
402.788
  0
LINE
  8
0
 10
120.508
 11
123.517
 20
402.788
 21
402.082
  0
LINE
  8
0
 10
123.517
 11
126.413
 20
402.082
 21
401.005
  0
LINE
  8
0
 10
126.413
 11
129.151
 20
401.005
 21
399.573
  0
LINE
  8
0
 10
129.151
 11
129.62
 20
399.573
 21
399.247
  0
LINE
  8
0
 10
129.62
 11
129.786
 20
399.247
 21
399.307
  0
LINE
  8
0
 10
129.786
 11
132.802
 20
399.307
 21
399.982
  0
LINE
  8
0
 10
132.802
 11
135.878
 20
399.982
 21
400.272
  0
LINE
  8
0
 10
135.878
 11
138.967
 20
400.272
 21
400.176
  0
LINE
  8
0
 10
138.967
 11
142.019
 20
400.176
 21
399.692
  0
LINE
  8
0
 10
142.019
 11
144.987
 20
399.692
 21
398.829
  0
LINE
  8
0
 10
144.987
 11
147.823
 20
398.829
 21
397.603
  0
LINE
  8
0
 10
147.823
 11
150.482
 20
397.603
 21
396.029
  0
LINE
  8
0
 10
150.482
 11
151.022
 20
396.029
 21
395.61
  0
LINE
  8
0
 10
151.022
 11
151.299
 20
395.61
 21
395.694
  0
LINE
  8
0
 10
151.299
 11
154.345
 20
395.694
 21
396.21
  0
LINE
  8
0
 10
154.345
 11
157.433
 20
396.21
 21
396.339
  0
LINE
  8
0
 10
157.433
 11
160.512
 20
396.339
 21
396.081
  0
LINE
  8
0
 10
160.512
 11
163.535
 20
396.081
 21
395.438
  0
LINE
  8
0
 10
163.535
 11
166.453
 20
395.438
 21
394.421
  0
LINE
  8
0
 10
166.453
 11
169.221
 20
394.421
 21
393.048
  0
LINE
  8
0
 10
169.221
 11
171.795
 20
393.048
 21
391.338
  0
LINE
  8
0
 10
171.795
 11
172.397
 20
391.338
 21
390.818
  0
LINE
  8
0
 10
172.397
 11
172.786
 20
390.818
 21
390.914
  0
LINE
  8
0
 10
172.786
 11
175.856
 20
390.914
 21
391.269
  0
LINE
  8
0
 10
175.856
 11
178.946
 20
391.269
 21
391.236
  0
LINE
  8
0
 10
178.946
 11
182.008
 20
391.236
 21
390.818
  0
LINE
  8
0
 10
182.008
 11
184.993
 20
390.818
 21
390.018
  0
LINE
  8
0
 10
184.993
 11
187.854
 20
390.018
 21
388.85
  0
LINE
  8
0
 10
187.854
 11
190.546
 20
388.85
 21
387.333
  0
LINE
  8
0
 10
190.546
 11
193.026
 20
387.333
 21
385.49
  0
LINE
  8
0
 10
193.026
 11
193.681
 20
385.49
 21
384.862
  0
LINE
  8
0
 10
193.681
 11
194.186
 20
384.862
 21
384.958
  0
LINE
  8
0
 10
194.186
 11
197.27
 20
384.958
 21
385.153
  0
LINE
  8
0
 10
197.27
 11
200.354
 20
385.153
 21
384.959
  0
LINE
  8
0
 10
200.354
 11
203.39
 20
384.959
 21
384.38
  0
LINE
  8
0
 10
203.39
 11
206.328
 20
384.38
 21
383.425
  0
LINE
  8
0
 10
206.328
 11
209.124
 20
383.425
 21
382.109
  0
LINE
  8
0
 10
209.124
 11
211.734
 20
382.109
 21
380.453
  0
LINE
  8
0
 10
211.734
 11
214.114
 20
380.453
 21
378.483
  0
LINE
  8
0
 10
214.114
 11
214.812
 20
378.483
 21
377.74
  0
LINE
  8
0
 10
214.812
 11
215.432
 20
377.74
 21
377.825
  0
LINE
  8
0
 10
215.432
 11
218.522
 20
377.825
 21
377.858
  0
LINE
  8
0
 10
218.522
 11
221.592
 20
377.858
 21
377.502
  0
LINE
  8
0
 10
221.592
 11
224.593
 20
377.502
 21
376.766
  0
LINE
  8
0
 10
224.593
 11
227.478
 20
376.766
 21
375.658
  0
LINE
  8
0
 10
227.478
 11
230.201
 20
375.658
 21
374.197
  0
LINE
  8
0
 10
230.201
 11
232.72
 20
374.197
 21
372.408
  0
LINE
  8
0
 10
232.72
 11
234.995
 20
372.408
 21
370.316
  0
LINE
  8
0
 10
234.995
 11
235.726
 20
370.316
 21
369.451
  0
LINE
  8
0
 10
235.726
 11
236.461
 20
369.451
 21
369.513
  0
LINE
  8
0
 10
236.461
 11
239.548
 20
369.513
 21
369.384
  0
LINE
  8
0
 10
239.548
 11
242.595
 20
369.384
 21
368.868
  0
LINE
  8
0
 10
242.595
 11
245.553
 20
368.868
 21
367.976
  0
LINE
  8
0
 10
245.553
 11
248.376
 20
367.976
 21
366.719
  0
LINE
  8
0
 10
248.376
 11
251.019
 20
366.719
 21
365.117
  0
LINE
  8
0
 10
251.019
 11
253.441
 20
365.117
 21
363.198
  0
LINE
  8
0
 10
253.441
 11
255.603
 20
363.198
 21
360.99
  0
LINE
  8
0
 10
255.603
 11
256.355
 20
360.99
 21
359.999
  0
LINE
  8
0
 10
256.355
 11
257.205
 20
359.999
 21
360.026
  0
LINE
  8
0
 10
257.205
 11
260.281
 20
360.026
 21
359.736
  0
LINE
  8
0
 10
260.281
 11
263.297
 20
359.736
 21
359.061
  0
LINE
  8
0
 10
263.297
 11
266.205
 20
359.061
 21
358.015
  0
LINE
  8
0
 10
266.205
 11
268.958
 20
358.015
 21
356.612
  0
LINE
  8
0
 10
268.958
 11
271.514
 20
356.612
 21
354.874
  0
LINE
  8
0
 10
271.514
 11
273.832
 20
354.874
 21
352.831
  0
LINE
  8
0
 10
273.832
 11
275.875
 20
352.831
 21
350.513
  0
LINE
  8
0
 10
275.875
 11
276.638
 20
350.513
 21
349.391
  0
LINE
  8
0
 10
276.638
 11
277.6
 20
349.391
 21
349.371
  0
LINE
  8
0
 10
277.6
 11
280.657
 20
349.371
 21
348.92
  0
LINE
  8
0
 10
280.657
 11
283.633
 20
348.92
 21
348.089
  0
LINE
  8
0
 10
283.633
 11
286.482
 20
348.089
 21
346.892
  0
LINE
  8
0
 10
286.482
 11
289.158
 20
346.892
 21
345.347
  0
LINE
  8
0
 10
289.158
 11
291.619
 20
345.347
 21
343.478
  0
LINE
  8
0
 10
291.619
 11
293.827
 20
343.478
 21
341.316
  0
LINE
  8
0
 10
293.827
 11
295.746
 20
341.316
 21
338.894
  0
LINE
  8
0
 10
295.746
 11
297.348
 20
338.894
 21
336.251
  0
LINE
  8
0
 10
297.348
 11
298.604
 20
336.251
 21
333.428
  0
LINE
  8
0
 10
298.604
 11
299.497
 20
333.428
 21
330.47
  0
LINE
  8
0
 10
299.497
 11
300.013
 20
330.47
 21
327.423
  0
LINE
  8
0
 10
300.013
 11
300.142
 20
327.423
 21
324.336
  0
LINE
  8
0
 10
300.142
 11
299.883
 20
324.336
 21
321.257
  0
LINE
  8
0
 10
299.883
 11
299.241
 20
321.257
 21
318.234
  0
LINE
  8
0
 10
299.241
 11
298.225
 20
318.234
 21
315.316
  0
LINE
  8
0
 10
298.225
 11
296.851
 20
315.316
 21
312.548
  0
LINE
  8
0
 10
296.851
 11
295.141
 20
312.548
 21
309.974
  0
LINE
  8
0
 10
295.141
 11
293.122
 20
309.974
 21
307.636
  0
LINE
  8
0
 10
293.122
 11
290.825
 20
307.636
 21
305.568
  0
LINE
  8
0
 10
290.825
 11
288.288
 20
305.568
 21
303.804
  0
LINE
  8
0
 10
288.288
 11
285.55
 20
303.804
 21
302.372
  0
LINE
  8
0
 10
285.55
 11
282.653
 20
302.372
 21
301.295
  0
LINE
  8
0
 10
282.653
 11
279.645
 20
301.295
 21
300.59
  0
LINE
  8
0
 10
279.645
 11
276.572
 20
300.59
 21
300.266
  0
LINE
  8
0
 10
276.572
 11
273.482
 20
300.266
 21
300.332
  0
LINE
  8
0
 10
273.482
 11
270.425
 20
300.332
 21
300.783
  0
LINE
  8
0
 10
270.425
 11
267.449
 20
300.783
 21
301.614
  0
LINE
  8
0
 10
267.449
 11
264.6
 20
301.614
 21
302.811
  0
LINE
  8
0
 10
264.6
 11
261.924
 20
302.811
 21
304.356
  0
LINE
  8
0
 10
261.924
 11
259.463
 20
304.356
 21
306.225
  0
LINE
  8
0
 10
259.463
 11
257.255
 20
306.225
 21
308.387
  0
LINE
  8
0
 10
257.255
 11
255.336
 20
308.387
 21
310.809
  0
LINE
  8
0
 10
255.336
 11
255.298
 20
310.809
 21
310.872
  0
LINE
  8
0
 10
255.298
 11
252.583
 20
310.872
 21
311.129
  0
LINE
  8
0
 10
252.583
 11
249.568
 20
311.129
 21
311.803
  0
LINE
  8
0
 10
249.568
 11
246.66
 20
311.803
 21
312.849
  0
LINE
  8
0
 10
246.66
 11
243.907
 20
312.849
 21
314.252
  0
LINE
  8
0
 10
243.907
 11
241.351
 20
314.252
 21
315.99
  0
LINE
  8
0
 10
241.351
 11
239.033
 20
315.99
 21
318.033
  0
LINE
  8
0
 10
239.033
 11
237.006
 20
318.033
 21
320.332
  0
LINE
  8
0
 10
237.006
 11
234.404
 20
320.332
 21
320.441
  0
LINE
  8
0
 10
234.404
 11
231.358
 20
320.441
 21
320.956
  0
LINE
  8
0
 10
231.358
 11
228.399
 20
320.956
 21
321.849
  0
LINE
  8
0
 10
228.399
 11
225.576
 20
321.849
 21
323.106
  0
LINE
  8
0
 10
225.576
 11
222.933
 20
323.106
 21
324.707
  0
LINE
  8
0
 10
222.933
 11
220.511
 20
324.707
 21
326.626
  0
LINE
  8
0
 10
220.511
 11
218.443
 20
326.626
 21
328.739
  0
LINE
  8
0
 10
218.443
 11
215.947
 20
328.739
 21
328.712
  0
LINE
  8
0
 10
215.947
 11
212.878
 20
328.712
 21
329.068
  0
LINE
  8
0
 10
212.878
 11
209.876
 20
329.068
 21
329.805
  0
LINE
  8
0
 10
209.876
 11
206.992
 20
329.805
 21
330.912
  0
LINE
  8
0
 10
206.992
 11
204.268
 20
330.912
 21
332.373
  0
LINE
  8
0
 10
204.268
 11
201.749
 20
332.373
 21
334.162
  0
LINE
  8
0
 10
201.749
 11
199.653
 20
334.162
 21
336.091
  0
LINE
  8
0
 10
199.653
 11
197.27
 20
336.091
 21
335.94
  0
LINE
  8
0
 10
197.27
 11
194.186
 20
335.94
 21
336.135
  0
LINE
  8
0
 10
194.186
 11
191.151
 20
336.135
 21
336.713
  0
LINE
  8
0
 10
191.151
 11
188.212
 20
336.713
 21
337.668
  0
LINE
  8
0
 10
188.212
 11
185.416
 20
337.668
 21
338.984
  0
LINE
  8
0
 10
185.416
 11
182.807
 20
338.984
 21
340.64
  0
LINE
  8
0
 10
182.807
 11
180.696
 20
340.64
 21
342.387
  0
LINE
  8
0
 10
180.696
 11
178.432
 20
342.387
 21
342.124
  0
LINE
  8
0
 10
178.432
 11
175.342
 20
342.124
 21
342.157
  0
LINE
  8
0
 10
175.342
 11
172.28
 20
342.157
 21
342.576
  0
LINE
  8
0
 10
172.28
 11
169.296
 20
342.576
 21
343.375
  0
LINE
  8
0
 10
169.296
 11
166.435
 20
343.375
 21
344.544
  0
LINE
  8
0
 10
166.435
 11
163.742
 20
344.544
 21
346.06
  0
LINE
  8
0
 10
163.742
 11
161.63
 20
346.06
 21
347.629
  0
LINE
  8
0
 10
161.63
 11
159.49
 20
347.629
 21
347.267
  0
LINE
  8
0
 10
159.49
 11
156.403
 20
347.267
 21
347.138
  0
LINE
  8
0
 10
156.403
 11
153.323
 20
347.138
 21
347.396
  0
LINE
  8
0
 10
153.323
 11
150.301
 20
347.396
 21
348.038
  0
LINE
  8
0
 10
150.301
 11
147.382
 20
348.038
 21
349.055
  0
LINE
  8
0
 10
147.382
 11
144.614
 20
349.055
 21
350.429
  0
LINE
  8
0
 10
144.614
 11
142.514
 20
350.429
 21
351.825
  0
LINE
  8
0
 10
142.514
 11
140.501
 20
351.825
 21
351.375
  0
LINE
  8
0
 10
140.501
 11
137.425
 20
351.375
 21
351.084
  0
LINE
  8
0
 10
137.425
 11
134.336
 20
351.084
 21
351.181
  0
LINE
  8
0
 10
134.336
 11
131.284
 20
351.181
 21
351.664
  0
LINE
  8
0
 10
131.284
 11
128.316
 20
351.664
 21
352.527
  0
LINE
  8
0
 10
128.316
 11
125.48
 20
352.527
 21
353.754
  0
LINE
  8
0
 10
125.48
 11
123.402
 20
353.754
 21
354.983
  0
LINE
  8
0
 10
123.402
 11
121.521
 20
354.983
 21
354.457
  0
LINE
  8
0
 10
121.521
 11
118.464
 20
354.457
 21
354.006
  0
LINE
  8
0
 10
118.464
 11
115.374
 20
354.006
 21
353.941
  0
LINE
  8
0
 10
115.374
 11
112.301
 20
353.941
 21
354.264
  0
LINE
  8
0
 10
112.301
 11
109.292
 20
354.264
 21
354.97
  0
LINE
  8
0
 10
109.292
 11
106.396
 20
354.97
 21
356.047
  0
LINE
  8
0
 10
106.396
 11
104.352
 20
356.047
 21
357.116
  0
LINE
  8
0
 10
104.352
 11
102.604
 20
357.116
 21
356.527
  0
LINE
  8
0
 10
102.604
 11
99.575
 20
356.527
 21
355.916
  0
LINE
  8
0
 10
99.575
 11
96.493
 20
355.916
 21
355.689
  0
LINE
  8
0
 10
96.493
 11
93.407
 20
355.689
 21
355.851
  0
LINE
  8
0
 10
93.407
 11
90.365
 20
355.851
 21
356.399
  0
LINE
  8
0
 10
90.365
 11
87.417
 20
356.399
 21
357.323
  0
LINE
  8
0
 10
87.417
 11
85.419
 20
357.323
 21
358.238
  0
LINE
  8
0
 10
85.419
 11
83.804
 20
358.238
 21
357.598
  0
LINE
  8
0
 10
83.804
 11
80.811
 20
357.598
 21
356.83
  0
LINE
  8
0
 10
80.811
 11
77.745
 20
356.83
 21
356.442
  0
LINE
  8
0
 10
77.745
 11
74.655
 20
356.442
 21
356.442
  0
LINE
  8
0
 10
74.655
 11
71.589
 20
356.442
 21
356.83
  0
LINE
  8
0
 10
71.589
 11
68.596
 20
356.83
 21
357.598
  0
LINE
  8
0
 10
68.596
 11
66.654
 20
357.598
 21
358.367
  0
LINE
  8
0
 10
66.654
 11
65.173
 20
358.367
 21
357.689
  0
LINE
  8
0
 10
65.173
 11
62.225
 20
357.689
 21
356.766
  0
LINE
  8
0
 10
62.225
 11
59.183
 20
356.766
 21
356.218
  0
LINE
  8
0
 10
59.183
 11
56.097
 20
356.218
 21
356.056
  0
LINE
  8
0
 10
56.097
 11
53.015
 20
356.056
 21
356.283
  0
LINE
  8
0
 10
53.015
 11
49.986
 20
356.283
 21
356.893
  0
LINE
  8
0
 10
49.986
 11
48.109
 20
356.893
 21
357.525
  0
LINE
  8
0
 10
48.109
 11
46.762
 20
357.525
 21
356.821
  0
LINE
  8
0
 10
46.762
 11
43.866
 20
356.821
 21
355.744
  0
LINE
  8
0
 10
43.866
 11
40.857
 20
355.744
 21
355.038
  0
LINE
  8
0
 10
40.857
 11
37.784
 20
355.038
 21
354.715
  0
LINE
  8
0
 10
37.784
 11
34.694
 20
354.715
 21
354.78
  0
LINE
  8
0
 10
34.694
 11
31.638
 20
354.78
 21
355.231
  0
LINE
  8
0
 10
31.638
 11
29.834
 20
355.231
 21
355.734
  0
LINE
  8
0
 10
29.834
 11
28.62
 20
355.734
 21
355.016
  0
LINE
  8
0
 10
28.62
 11
25.784
 20
355.016
 21
353.789
  0
LINE
  8
0
 10
25.784
 11
22.816
 20
353.789
 21
352.926
  0
LINE
  8
0
 10
22.816
 11
19.764
 20
352.926
 21
352.443
  0
LINE
  8
0
 10
19.764
 11
16.675
 20
352.443
 21
352.347
  0
LINE
  8
0
 10
16.675
 11
13.599
 20
352.347
 21
352.637
  0
LINE
  8
0
 10
13.599
 11
11.878
 20
352.637
 21
353.022
  0
LINE
  8
0
 10
11.878
 11
10.792
 20
353.022
 21
352.3
  0
LINE
  8
0
 10
10.792
 11
8.025
 20
352.3
 21
350.927
  0
LINE
  8
0
 10
8.025
 11
5.106
 20
350.927
 21
349.91
  0
LINE
  8
0
 10
5.106
 11
2.084
 20
349.91
 21
349.268
  0
LINE
  8
0
 10
2.084
 11
-0.996
 20
349.268
 21
349.01
  0
LINE
  8
0
 10
-0.996
 11
-4.083
 20
349.01
 21
349.139
  0
LINE
  8
0
 10
-4.083
 11
-5.715
 20
349.139
 21
349.415
  0
LINE
  8
0
 10
-5.715
 11
-6.674
 20
349.415
 21
348.702
  0
LINE
  8
0
 10
-6.674
 11
-9.366
 20
348.702
 21
347.186
  0
LINE
  8
0
 10
-9.366
 11
-12.228
 20
347.186
 21
346.018
  0
LINE
  8
0
 10
-12.228
 11
-15.212
 20
346.018
 21
345.218
  0
LINE
  8
0
 10
-15.212
 11
-18.274
 20
345.218
 21
344.799
  0
LINE
  8
0
 10
-18.274
 11
-21.364
 20
344.799
 21
344.766
  0
LINE
  8
0
 10
-21.364
 11
-22.901
 20
344.766
 21
344.944
  0
LINE
  8
0
 10
-22.901
 11
-23.737
 20
344.944
 21
344.252
  0
LINE
  8
0
 10
-23.737
 11
-26.347
 20
344.252
 21
342.596
  0
LINE
  8
0
 10
-26.347
 11
-29.143
 20
342.596
 21
341.28
  0
LINE
  8
0
 10
-29.143
 11
-32.081
 20
341.28
 21
340.325
  0
LINE
  8
0
 10
-32.081
 11
-35.117
 20
340.325
 21
339.747
  0
LINE
  8
0
 10
-35.117
 11
-38.201
 20
339.747
 21
339.552
  0
LINE
  8
0
 10
-38.201
 11
-39.637
 20
339.552
 21
339.643
  0
LINE
  8
0
 10
-39.637
 11
-40.356
 20
339.643
 21
338.981
  0
LINE
  8
0
 10
-40.356
 11
-42.875
 20
338.981
 21
337.191
  0
LINE
  8
0
 10
-42.875
 11
-45.599
 20
337.191
 21
335.73
  0
LINE
  8
0
 10
-45.599
 11
-48.483
 20
335.73
 21
334.623
  0
LINE
  8
0
 10
-48.483
 11
-51.485
 20
334.623
 21
333.886
  0
LINE
  8
0
 10
-51.485
 11
-54.554
 20
333.886
 21
333.531
  0
LINE
  8
0
 10
-54.554
 11
-55.883
 20
333.531
 21
333.545
  0
LINE
  8
0
 10
-55.883
 11
-56.492
 20
333.545
 21
332.923
  0
LINE
  8
0
 10
-56.492
 11
-58.914
 20
332.923
 21
331.004
  0
LINE
  8
0
 10
-58.914
 11
-61.557
 20
331.004
 21
329.403
  0
LINE
  8
0
 10
-61.557
 11
-64.38
 20
329.403
 21
328.146
  0
LINE
  8
0
 10
-64.38
 11
-67.339
 20
328.146
 21
327.253
  0
LINE
  8
0
 10
-67.339
 11
-70.385
 20
327.253
 21
326.738
  0
LINE
  8
0
 10
-70.385
 11
-71.606
 20
326.738
 21
326.687
  0
LINE
  8
0
 10
-71.606
 11
-72.109
 20
326.687
 21
326.116
  0
LINE
  8
0
 10
-72.109
 11
-74.427
 20
326.116
 21
324.073
  0
LINE
  8
0
 10
-74.427
 11
-76.983
 20
324.073
 21
322.335
  0
LINE
  8
0
 10
-76.983
 11
-79.736
 20
322.335
 21
320.932
  0
LINE
  8
0
 10
-79.736
 11
-82.644
 20
320.932
 21
319.886
  0
LINE
  8
0
 10
-82.644
 11
-85.659
 20
319.886
 21
319.211
  0
LINE
  8
0
 10
-85.659
 11
-86.768
 20
319.211
 21
319.107
  0
LINE
  8
0
 10
-86.768
 11
-87.173
 20
319.107
 21
318.595
  0
LINE
  8
0
 10
-87.173
 11
-89.381
 20
318.595
 21
316.434
  0
LINE
  8
0
 10
-89.381
 11
-91.842
 20
316.434
 21
314.565
  0
LINE
  8
0
 10
-91.842
 11
-94.518
 20
314.565
 21
313.02
  0
LINE
  8
0
 10
-94.518
 11
-97.367
 20
313.02
 21
311.823
  0
LINE
  8
0
 10
-97.367
 11
-100.343
 20
311.823
 21
310.991
  0
LINE
  8
0
 10
-100.343
 11
-103.4
 20
310.991
 21
310.54
  0
LINE
  8
0
 10
-103.4
 11
-106.489
 20
310.54
 21
310.475
  0
LINE
  8
0
 10
-106.489
 11
-109.563
 20
310.475
 21
310.799
  0
LINE
  8
0
 10
-109.563
 11
-112.571
 20
310.799
 21
311.504
  0
LINE
  8
0
 10
-112.571
 11
-115.467
 20
311.504
 21
312.581
  0
LINE
  8
0
 10
-115.467
 11
-118.206
 20
312.581
 21
314.013
  0
LINE
  8
0
 10
-118.206
 11
-120.743
 20
314.013
 21
315.777
  0
LINE
  8
0
 10
-120.743
 11
-123.039
 20
315.777
 21
317.844
  0
LINE
  8
0
 10
-123.039
 11
-125.058
 20
317.844
 21
320.183
  0
LINE
  8
0
 10
-125.058
 11
-126.768
 20
320.183
 21
322.757
  0
LINE
  8
0
 10
-126.768
 11
-128.142
 20
322.757
 21
325.525
  0
LINE
  8
0
 10
-128.142
 11
-129.158
 20
325.525
 21
328.443
  0
LINE
  8
0
 10
-129.158
 11
-129.801
 20
328.443
 21
331.466
  0
LINE
  8
0
 10
-129.801
 11
-130.06
 20
331.466
 21
334.544
  0
LINE
  8
0
 10
-91.96
 11
-91.701
 20
-268.553
 21
-265.474
  0
LINE
  8
0
 10
-91.701
 11
-91.058
 20
-265.474
 21
-262.452
  0
LINE
  8
0
 10
-91.058
 11
-90.042
 20
-262.452
 21
-259.534
  0
LINE
  8
0
 10
-90.042
 11
-88.668
 20
-259.534
 21
-256.766
  0
LINE
  8
0
 10
-88.668
 11
-86.958
 20
-256.766
 21
-254.192
  0
LINE
  8
0
 10
-86.958
 11
-84.939
 20
-254.192
 21
-251.853
  0
LINE
  8
0
 10
-84.939
 11
-82.643
 20
-251.853
 21
-249.786
  0
LINE
  8
0
 10
-82.643
 11
-80.106
 20
-249.786
 21
-248.022
  0
LINE
  8
0
 10
-80.106
 11
-77.367
 20
-248.022
 21
-246.59
  0
LINE
  8
0
 10
-77.367
 11
-74.471
 20
-246.59
 21
-245.513
  0
LINE
  8
0
 10
-74.471
 11
-71.463
 20
-245.513
 21
-244.807
  0
LINE
  8
0
 10
-71.463
 11
-68.389
 20
-244.807
 21
-244.484
  0
LINE
  8
0
 10
-68.389
 11
-65.3
 20
-244.484
 21
-244.549
  0
LINE
  8
0
 10
-65.3
 11
-62.243
 20
-244.549
 21
-245
  0
LINE
  8
0
 10
-62.243
 11
-59.267
 20
-245
 21
-245.832
  0
LINE
  8
0
 10
-59.267
 11
-56.418
 20
-245.832
 21
-247.029
  0
LINE
  8
0
 10
-56.418
 11
-53.742
 20
-247.029
 21
-248.574
  0
LINE
  8
0
 10
-53.742
 11
-51.281
 20
-248.574
 21
-250.443
  0
LINE
  8
0
 10
-51.281
 11
-50.188
 20
-250.443
 21
-251.513
  0
LINE
  8
0
 10
-50.188
 11
-48.05
 20
-251.513
 21
-251.991
  0
LINE
  8
0
 10
-48.05
 11
-45.142
 20
-251.991
 21
-253.037
  0
LINE
  8
0
 10
-45.142
 11
-42.389
 20
-253.037
 21
-254.44
  0
LINE
  8
0
 10
-42.389
 11
-39.833
 20
-254.44
 21
-256.178
  0
LINE
  8
0
 10
-39.833
 11
-38.607
 20
-256.178
 21
-257.259
  0
LINE
  8
0
 10
-38.607
 11
-36.345
 20
-257.259
 21
-257.641
  0
LINE
  8
0
 10
-36.345
 11
-33.387
 20
-257.641
 21
-258.534
  0
LINE
  8
0
 10
-33.387
 11
-30.564
 20
-258.534
 21
-259.791
  0
LINE
  8
0
 10
-30.564
 11
-27.921
 20
-259.791
 21
-261.392
  0
LINE
  8
0
 10
-27.921
 11
-26.559
 20
-261.392
 21
-262.472
  0
LINE
  8
0
 10
-26.559
 11
-24.177
 20
-262.472
 21
-262.747
  0
LINE
  8
0
 10
-24.177
 11
-21.176
 20
-262.747
 21
-263.484
  0
LINE
  8
0
 10
-21.176
 11
-18.291
 20
-263.484
 21
-264.591
  0
LINE
  8
0
 10
-18.291
 11
-15.568
 20
-264.591
 21
-266.052
  0
LINE
  8
0
 10
-15.568
 11
-14.067
 20
-266.052
 21
-267.119
  0
LINE
  8
0
 10
-14.067
 11
-11.57
 20
-267.119
 21
-267.276
  0
LINE
  8
0
 10
-11.57
 11
-8.534
 20
-267.276
 21
-267.854
  0
LINE
  8
0
 10
-8.534
 11
-5.596
 20
-267.854
 21
-268.809
  0
LINE
  8
0
 10
-5.596
 11
-2.799
 20
-268.809
 21
-270.126
  0
LINE
  8
0
 10
-2.799
 11
-1.156
 20
-270.126
 21
-271.168
  0
LINE
  8
0
 10
-1.156
 11
1.448
 20
-271.168
 21
-271.195
  0
LINE
  8
0
 10
1.448
 11
4.51
 20
-271.195
 21
-271.614
  0
LINE
  8
0
 10
4.51
 11
7.494
 20
-271.614
 21
-272.414
  0
LINE
  8
0
 10
7.494
 11
10.356
 20
-272.414
 21
-273.582
  0
LINE
  8
0
 10
10.356
 11
12.141
 20
-273.582
 21
-274.588
  0
LINE
  8
0
 10
12.141
 11
14.847
 20
-274.588
 21
-274.475
  0
LINE
  8
0
 10
14.847
 11
17.927
 20
-274.475
 21
-274.733
  0
LINE
  8
0
 10
17.927
 11
20.949
 20
-274.733
 21
-275.375
  0
LINE
  8
0
 10
20.949
 11
23.867
 20
-275.375
 21
-276.392
  0
LINE
  8
0
 10
23.867
 11
25.795
 20
-276.392
 21
-277.349
  0
LINE
  8
0
 10
25.795
 11
28.595
 20
-277.349
 21
-277.085
  0
LINE
  8
0
 10
28.595
 11
31.684
 20
-277.085
 21
-277.181
  0
LINE
  8
0
 10
31.684
 11
34.736
 20
-277.181
 21
-277.664
  0
LINE
  8
0
 10
34.736
 11
37.704
 20
-277.664
 21
-278.527
  0
LINE
  8
0
 10
37.704
 11
39.774
 20
-278.527
 21
-279.423
  0
LINE
  8
0
 10
39.774
 11
42.66
 20
-279.423
 21
-278.998
  0
LINE
  8
0
 10
42.66
 11
45.749
 20
-278.998
 21
-278.932
  0
LINE
  8
0
 10
45.749
 11
48.822
 20
-278.932
 21
-279.255
  0
LINE
  8
0
 10
48.822
 11
51.831
 20
-279.255
 21
-279.961
  0
LINE
  8
0
 10
51.831
 11
54.044
 20
-279.961
 21
-280.784
  0
LINE
  8
0
 10
54.044
 11
57.003
 20
-280.784
 21
-280.187
  0
LINE
  8
0
 10
57.003
 11
60.085
 20
-280.187
 21
-279.96
  0
LINE
  8
0
 10
60.085
 11
63.171
 20
-279.96
 21
-280.122
  0
LINE
  8
0
 10
63.171
 11
66.213
 20
-280.122
 21
-280.67
  0
LINE
  8
0
 10
66.213
 11
68.569
 20
-280.67
 21
-281.409
  0
LINE
  8
0
 10
68.569
 11
68.596
 20
-281.409
 21
-281.398
  0
LINE
  8
0
 10
68.596
 11
71.589
 20
-281.398
 21
-280.63
  0
LINE
  8
0
 10
71.589
 11
74.655
 20
-280.63
 21
-280.242
  0
LINE
  8
0
 10
74.655
 11
77.745
 20
-280.242
 21
-280.242
  0
LINE
  8
0
 10
77.745
 11
80.811
 20
-280.242
 21
-280.63
  0
LINE
  8
0
 10
80.811
 11
83.324
 20
-280.63
 21
-281.275
  0
LINE
  8
0
 10
83.324
 11
83.429
 20
-281.275
 21
-281.227
  0
LINE
  8
0
 10
83.429
 11
86.377
 20
-281.227
 21
-280.304
  0
LINE
  8
0
 10
86.377
 11
89.419
 20
-280.304
 21
-279.756
  0
LINE
  8
0
 10
89.419
 11
92.505
 20
-279.756
 21
-279.594
  0
LINE
  8
0
 10
92.505
 11
95.587
 20
-279.594
 21
-279.821
  0
LINE
  8
0
 10
95.587
 11
98.252
 20
-279.821
 21
-280.358
  0
LINE
  8
0
 10
98.252
 11
98.431
 20
-280.358
 21
-280.264
  0
LINE
  8
0
 10
98.431
 11
101.327
 20
-280.264
 21
-279.188
  0
LINE
  8
0
 10
101.327
 11
104.336
 20
-279.188
 21
-278.481
  0
LINE
  8
0
 10
104.336
 11
107.409
 20
-278.481
 21
-278.158
  0
LINE
  8
0
 10
107.409
 11
110.499
 20
-278.158
 21
-278.224
  0
LINE
  8
0
 10
110.499
 11
113.312
 20
-278.224
 21
-278.639
  0
LINE
  8
0
 10
113.312
 11
113.56
 20
-278.639
 21
-278.492
  0
LINE
  8
0
 10
113.56
 11
116.396
 20
-278.492
 21
-277.265
  0
LINE
  8
0
 10
116.396
 11
119.363
 20
-277.265
 21
-276.402
  0
LINE
  8
0
 10
119.363
 11
122.415
 20
-276.402
 21
-275.919
  0
LINE
  8
0
 10
122.415
 11
125.504
 20
-275.919
 21
-275.823
  0
LINE
  8
0
 10
125.504
 11
128.46
 20
-275.823
 21
-276.102
  0
LINE
  8
0
 10
128.46
 11
128.772
 20
-276.102
 21
-275.894
  0
LINE
  8
0
 10
128.772
 11
131.539
 20
-275.894
 21
-274.52
  0
LINE
  8
0
 10
131.539
 11
134.458
 20
-274.52
 21
-273.503
  0
LINE
  8
0
 10
134.458
 11
137.48
 20
-273.503
 21
-272.861
  0
LINE
  8
0
 10
137.48
 11
140.56
 20
-272.861
 21
-272.603
  0
LINE
  8
0
 10
140.56
 11
143.647
 20
-272.603
 21
-272.732
  0
LINE
  8
0
 10
143.647
 11
143.649
 20
-272.732
 21
-272.732
  0
LINE
  8
0
 10
143.649
 11
144.02
 20
-272.732
 21
-272.457
  0
LINE
  8
0
 10
144.02
 11
146.713
 20
-272.457
 21
-270.94
  0
LINE
  8
0
 10
146.713
 11
149.574
 20
-270.94
 21
-269.772
  0
LINE
  8
0
 10
149.574
 11
152.558
 20
-269.772
 21
-268.972
  0
LINE
  8
0
 10
152.558
 11
155.62
 20
-268.972
 21
-268.553
  0
LINE
  8
0
 10
155.62
 11
158.71
 20
-268.553
 21
-268.52
  0
LINE
  8
0
 10
158.71
 11
158.82
 20
-268.52
 21
-268.533
  0
LINE
  8
0
 10
158.82
 11
159.26
 20
-268.533
 21
-268.169
  0
LINE
  8
0
 10
159.26
 11
161.869
 20
-268.169
 21
-266.514
  0
LINE
  8
0
 10
161.869
 11
164.665
 20
-266.514
 21
-265.197
  0
LINE
  8
0
 10
164.665
 11
167.604
 20
-265.197
 21
-264.243
  0
LINE
  8
0
 10
167.604
 11
170.639
 20
-264.243
 21
-263.664
  0
LINE
  8
0
 10
170.639
 11
173.723
 20
-263.664
 21
-263.47
  0
LINE
  8
0
 10
173.723
 11
173.942
 20
-263.47
 21
-263.484
  0
LINE
  8
0
 10
173.942
 11
174.442
 20
-263.484
 21
-263.024
  0
LINE
  8
0
 10
174.442
 11
176.961
 20
-263.024
 21
-261.234
  0
LINE
  8
0
 10
176.961
 11
179.684
 20
-261.234
 21
-259.773
  0
LINE
  8
0
 10
179.684
 11
182.569
 20
-259.773
 21
-258.666
  0
LINE
  8
0
 10
182.569
 11
185.57
 20
-258.666
 21
-257.929
  0
LINE
  8
0
 10
185.57
 11
188.639
 20
-257.929
 21
-257.574
  0
LINE
  8
0
 10
188.639
 11
188.966
 20
-257.574
 21
-257.577
  0
LINE
  8
0
 10
188.966
 11
189.518
 20
-257.577
 21
-257.014
  0
LINE
  8
0
 10
189.518
 11
191.94
 20
-257.014
 21
-255.095
  0
LINE
  8
0
 10
191.94
 11
194.583
 20
-255.095
 21
-253.494
  0
LINE
  8
0
 10
194.583
 11
197.406
 20
-253.494
 21
-252.237
  0
LINE
  8
0
 10
197.406
 11
200.364
 20
-252.237
 21
-251.344
  0
LINE
  8
0
 10
200.364
 11
203.411
 20
-251.344
 21
-250.829
  0
LINE
  8
0
 10
203.411
 11
203.846
 20
-250.829
 21
-250.811
  0
LINE
  8
0
 10
203.846
 11
204.439
 20
-250.811
 21
-250.138
  0
LINE
  8
0
 10
204.439
 11
206.757
 20
-250.138
 21
-248.095
  0
LINE
  8
0
 10
206.757
 11
209.313
 20
-248.095
 21
-246.357
  0
LINE
  8
0
 10
209.313
 11
212.066
 20
-246.357
 21
-244.955
  0
LINE
  8
0
 10
212.066
 11
214.974
 20
-244.955
 21
-243.908
  0
LINE
  8
0
 10
214.974
 11
217.989
 20
-243.908
 21
-243.234
  0
LINE
  8
0
 10
217.989
 11
218.531
 20
-243.234
 21
-243.183
  0
LINE
  8
0
 10
218.531
 11
219.155
 20
-243.183
 21
-242.395
  0
LINE
  8
0
 10
219.155
 11
221.363
 20
-242.395
 21
-240.234
  0
LINE
  8
0
 10
221.363
 11
223.824
 20
-240.234
 21
-238.365
  0
LINE
  8
0
 10
223.824
 11
226.5
 20
-238.365
 21
-236.82
  0
LINE
  8
0
 10
226.5
 11
229.349
 20
-236.82
 21
-235.623
  0
LINE
  8
0
 10
229.349
 11
232.325
 20
-235.623
 21
-234.791
  0
LINE
  8
0
 10
232.325
 11
235.382
 20
-234.791
 21
-234.34
  0
LINE
  8
0
 10
235.382
 11
238.472
 20
-234.34
 21
-234.275
  0
LINE
  8
0
 10
238.472
 11
241.545
 20
-234.275
 21
-234.599
  0
LINE
  8
0
 10
241.545
 11
244.553
 20
-234.599
 21
-235.304
  0
LINE
  8
0
 10
244.553
 11
247.45
 20
-235.304
 21
-236.381
  0
LINE
  8
0
 10
247.45
 11
250.188
 20
-236.381
 21
-237.813
  0
LINE
  8
0
 10
250.188
 11
252.725
 20
-237.813
 21
-239.577
  0
LINE
  8
0
 10
252.725
 11
255.022
 20
-239.577
 21
-241.644
  0
LINE
  8
0
 10
255.022
 11
257.041
 20
-241.644
 21
-243.983
  0
LINE
  8
0
 10
257.041
 11
258.751
 20
-243.983
 21
-246.557
  0
LINE
  8
0
 10
258.751
 11
260.125
 20
-246.557
 21
-249.325
  0
LINE
  8
0
 10
260.125
 11
261.141
 20
-249.325
 21
-252.243
  0
LINE
  8
0
 10
261.141
 11
261.783
 20
-252.243
 21
-255.266
  0
LINE
  8
0
 10
261.783
 11
262.042
 20
-255.266
 21
-258.344
  0
LINE
  8
0
 10
262.042
 11
261.913
 20
-258.344
 21
-261.432
  0
LINE
  8
0
 10
261.913
 11
261.397
 20
-261.432
 21
-264.479
  0
LINE
  8
0
 10
261.397
 11
260.504
 20
-264.479
 21
-267.437
  0
LINE
  8
0
 10
260.504
 11
259.248
 20
-267.437
 21
-270.26
  0
LINE
  8
0
 10
259.248
 11
257.646
 20
-270.26
 21
-272.903
  0
LINE
  8
0
 10
257.646
 11
255.727
 20
-272.903
 21
-275.325
  0
LINE
  8
0
 10
255.727
 11
253.519
 20
-275.325
 21
-277.486
  0
LINE
  8
0
 10
253.519
 11
251.058
 20
-277.486
 21
-279.355
  0
LINE
  8
0
 10
251.058
 11
248.382
 20
-279.355
 21
-280.9
  0
LINE
  8
0
 10
248.382
 11
245.533
 20
-280.9
 21
-282.097
  0
LINE
  8
0
 10
245.533
 11
242.557
 20
-282.097
 21
-282.929
  0
LINE
  8
0
 10
242.557
 11
240.775
 20
-282.929
 21
-283.192
  0
LINE
  8
0
 10
240.775
 11
239.238
 20
-283.192
 21
-284.937
  0
LINE
  8
0
 10
239.238
 11
236.92
 20
-284.937
 21
-286.98
  0
LINE
  8
0
 10
236.92
 11
234.364
 20
-286.98
 21
-288.717
  0
LINE
  8
0
 10
234.364
 11
231.611
 20
-288.717
 21
-290.12
  0
LINE
  8
0
 10
231.611
 11
228.703
 20
-290.12
 21
-291.166
  0
LINE
  8
0
 10
228.703
 11
225.687
 20
-291.166
 21
-291.841
  0
LINE
  8
0
 10
225.687
 11
224.001
 20
-291.841
 21
-292
  0
LINE
  8
0
 10
224.001
 11
222.448
 20
-292
 21
-293.586
  0
LINE
  8
0
 10
222.448
 11
220.026
 20
-293.586
 21
-295.505
  0
LINE
  8
0
 10
220.026
 11
217.383
 20
-295.505
 21
-297.107
  0
LINE
  8
0
 10
217.383
 11
214.56
 20
-297.107
 21
-298.363
  0
LINE
  8
0
 10
214.56
 11
211.601
 20
-298.363
 21
-299.256
  0
LINE
  8
0
 10
211.601
 11
208.555
 20
-299.256
 21
-299.772
  0
LINE
  8
0
 10
208.555
 11
206.968
 20
-299.772
 21
-299.838
  0
LINE
  8
0
 10
206.968
 11
205.413
 20
-299.838
 21
-301.269
  0
LINE
  8
0
 10
205.413
 11
202.894
 20
-301.269
 21
-303.058
  0
LINE
  8
0
 10
202.894
 11
200.17
 20
-303.058
 21
-304.519
  0
LINE
  8
0
 10
200.17
 11
197.285
 20
-304.519
 21
-305.627
  0
LINE
  8
0
 10
197.285
 11
194.284
 20
-305.627
 21
-306.363
  0
LINE
  8
0
 10
194.284
 11
191.215
 20
-306.363
 21
-306.719
  0
LINE
  8
0
 10
191.215
 11
189.733
 20
-306.719
 21
-306.703
  0
LINE
  8
0
 10
189.733
 11
188.186
 20
-306.703
 21
-307.983
  0
LINE
  8
0
 10
188.186
 11
185.577
 20
-307.983
 21
-309.638
  0
LINE
  8
0
 10
185.577
 11
182.781
 20
-309.638
 21
-310.955
  0
LINE
  8
0
 10
182.781
 11
179.842
 20
-310.955
 21
-311.91
  0
LINE
  8
0
 10
179.842
 11
176.807
 20
-311.91
 21
-312.488
  0
LINE
  8
0
 10
176.807
 11
173.723
 20
-312.488
 21
-312.682
  0
LINE
  8
0
 10
173.723
 11
172.35
 20
-312.682
 21
-312.596
  0
LINE
  8
0
 10
172.35
 11
170.824
 20
-312.596
 21
-313.73
  0
LINE
  8
0
 10
170.824
 11
168.132
 20
-313.73
 21
-315.246
  0
LINE
  8
0
 10
168.132
 11
165.271
 20
-315.246
 21
-316.414
  0
LINE
  8
0
 10
165.271
 11
162.286
 20
-316.414
 21
-317.214
  0
LINE
  8
0
 10
162.286
 11
159.224
 20
-317.214
 21
-317.633
  0
LINE
  8
0
 10
159.224
 11
156.134
 20
-317.633
 21
-317.666
  0
LINE
  8
0
 10
156.134
 11
154.873
 20
-317.666
 21
-317.52
  0
LINE
  8
0
 10
154.873
 11
153.378
 20
-317.52
 21
-318.513
  0
LINE
  8
0
 10
153.378
 11
150.61
 20
-318.513
 21
-319.887
  0
LINE
  8
0
 10
150.61
 11
147.692
 20
-319.887
 21
-320.904
  0
LINE
  8
0
 10
147.692
 11
144.67
 20
-320.904
 21
-321.546
  0
LINE
  8
0
 10
144.67
 11
141.59
 20
-321.546
 21
-321.804
  0
LINE
  8
0
 10
141.59
 11
138.503
 20
-321.804
 21
-321.675
  0
LINE
  8
0
 10
138.503
 11
137.356
 20
-321.675
 21
-321.481
  0
LINE
  8
0
 10
137.356
 11
135.902
 20
-321.481
 21
-322.341
  0
LINE
  8
0
 10
135.902
 11
133.066
 20
-322.341
 21
-323.567
  0
LINE
  8
0
 10
133.066
 11
130.099
 20
-323.567
 21
-324.43
  0
LINE
  8
0
 10
130.099
 11
127.047
 20
-324.43
 21
-324.914
  0
LINE
  8
0
 10
127.047
 11
123.958
 20
-324.914
 21
-325.01
  0
LINE
  8
0
 10
123.958
 11
120.882
 20
-325.01
 21
-324.72
  0
LINE
  8
0
 10
120.882
 11
119.85
 20
-324.72
 21
-324.489
  0
LINE
  8
0
 10
119.85
 11
118.448
 20
-324.489
 21
-325.222
  0
LINE
  8
0
 10
118.448
 11
115.552
 20
-325.222
 21
-326.299
  0
LINE
  8
0
 10
115.552
 11
112.543
 20
-326.299
 21
-327.005
  0
LINE
  8
0
 10
112.543
 11
109.47
 20
-327.005
 21
-327.328
  0
LINE
  8
0
 10
109.47
 11
106.38
 20
-327.328
 21
-327.263
  0
LINE
  8
0
 10
106.38
 11
103.323
 20
-327.263
 21
-326.812
  0
LINE
  8
0
 10
103.323
 11
102.407
 20
-326.812
 21
-326.556
  0
LINE
  8
0
 10
102.407
 11
101.065
 20
-326.556
 21
-327.171
  0
LINE
  8
0
 10
101.065
 11
98.117
 20
-327.171
 21
-328.095
  0
LINE
  8
0
 10
98.117
 11
95.075
 20
-328.095
 21
-328.643
  0
LINE
  8
0
 10
95.075
 11
91.989
 20
-328.643
 21
-328.804
  0
LINE
  8
0
 10
91.989
 11
88.907
 20
-328.804
 21
-328.577
  0
LINE
  8
0
 10
88.907
 11
85.878
 20
-328.577
 21
-327.967
  0
LINE
  8
0
 10
85.878
 11
85.078
 20
-327.967
 21
-327.697
  0
LINE
  8
0
 10
85.078
 11
83.804
 20
-327.697
 21
-328.202
  0
LINE
  8
0
 10
83.804
 11
80.811
 20
-328.202
 21
-328.97
  0
LINE
  8
0
 10
80.811
 11
77.745
 20
-328.97
 21
-329.358
  0
LINE
  8
0
 10
77.745
 11
74.655
 20
-329.358
 21
-329.358
  0
LINE
  8
0
 10
74.655
 11
71.589
 20
-329.358
 21
-328.97
  0
LINE
  8
0
 10
71.589
 11
68.596
 20
-328.97
 21
-328.202
  0
LINE
  8
0
 10
68.596
 11
67.909
 20
-328.202
 21
-327.93
  0
LINE
  8
0
 10
67.909
 11
66.712
 20
-327.93
 21
-328.333
  0
LINE
  8
0
 10
66.712
 11
63.683
 20
-328.333
 21
-328.944
  0
LINE
  8
0
 10
63.683
 11
60.601
 20
-328.944
 21
-329.171
  0
LINE
  8
0
 10
60.601
 11
57.515
 20
-329.171
 21
-329.009
  0
LINE
  8
0
 10
57.515
 11
54.473
 20
-329.009
 21
-328.461
  0
LINE
  8
0
 10
54.473
 11
51.525
 20
-328.461
 21
-327.537
  0
LINE
  8
0
 10
51.525
 11
50.951
 20
-327.537
 21
-327.274
  0
LINE
  8
0
 10
50.951
 11
49.835
 20
-327.274
 21
-327.586
  0
LINE
  8
0
 10
49.835
 11
46.778
 20
-327.586
 21
-328.037
  0
LINE
  8
0
 10
46.778
 11
43.688
 20
-328.037
 21
-328.102
  0
LINE
  8
0
 10
43.688
 11
40.615
 20
-328.102
 21
-327.779
  0
LINE
  8
0
 10
40.615
 11
37.607
 20
-327.779
 21
-327.073
  0
LINE
  8
0
 10
37.607
 11
34.71
 20
-327.073
 21
-325.996
  0
LINE
  8
0
 10
34.71
 11
34.244
 20
-325.996
 21
-325.752
  0
LINE
  8
0
 10
34.244
 11
33.218
 20
-325.752
 21
-325.982
  0
LINE
  8
0
 10
33.218
 11
30.142
 20
-325.982
 21
-326.272
  0
LINE
  8
0
 10
30.142
 11
27.053
 20
-326.272
 21
-326.176
  0
LINE
  8
0
 10
27.053
 11
24.001
 20
-326.176
 21
-325.692
  0
LINE
  8
0
 10
24.001
 11
21.033
 20
-325.692
 21
-324.83
  0
LINE
  8
0
 10
21.033
 11
18.197
 20
-324.83
 21
-323.603
  0
LINE
  8
0
 10
18.197
 11
17.836
 20
-323.603
 21
-323.389
  0
LINE
  8
0
 10
17.836
 11
16.904
 20
-323.389
 21
-323.547
  0
LINE
  8
0
 10
16.904
 11
13.817
 20
-323.547
 21
-323.676
  0
LINE
  8
0
 10
13.817
 11
10.737
 20
-323.676
 21
-323.418
  0
LINE
  8
0
 10
10.737
 11
7.715
 20
-323.418
 21
-322.775
  0
LINE
  8
0
 10
7.715
 11
4.796
 20
-322.775
 21
-321.758
  0
LINE
  8
0
 10
4.796
 11
2.029
 20
-321.758
 21
-320.385
  0
LINE
  8
0
 10
2.029
 11
1.768
 20
-320.385
 21
-320.211
  0
LINE
  8
0
 10
1.768
 11
0.934
 20
-320.211
 21
-320.308
  0
LINE
  8
0
 10
0.934
 11
-2.156
 20
-320.308
 21
-320.275
  0
LINE
  8
0
 10
-2.156
 11
-5.218
 20
-320.275
 21
-319.856
  0
LINE
  8
0
 10
-5.218
 11
-8.202
 20
-319.856
 21
-319.057
  0
LINE
  8
0
 10
-8.202
 11
-11.064
 20
-319.057
 21
-317.888
  0
LINE
  8
0
 10
-11.064
 11
-13.756
 20
-317.888
 21
-316.372
  0
LINE
  8
0
 10
-13.756
 11
-13.923
 20
-316.372
 21
-316.248
  0
LINE
  8
0
 10
-13.923
 11
-14.654
 20
-316.248
 21
-316.294
  0
LINE
  8
0
 10
-14.654
 11
-17.737
 20
-316.294
 21
-316.1
  0
LINE
  8
0
 10
-17.737
 11
-20.773
 20
-316.1
 21
-315.521
  0
LINE
  8
0
 10
-20.773
 11
-23.712
 20
-315.521
 21
-314.567
  0
LINE
  8
0
 10
-23.712
 11
-26.508
 20
-314.567
 21
-313.25
  0
LINE
  8
0
 10
-26.508
 11
-29.117
 20
-313.25
 21
-311.595
  0
LINE
  8
0
 10
-29.117
 11
-29.195
 20
-311.595
 21
-311.53
  0
LINE
  8
0
 10
-29.195
 11
-29.822
 20
-311.53
 21
-311.537
  0
LINE
  8
0
 10
-29.822
 11
-32.891
 20
-311.537
 21
-311.181
  0
LINE
  8
0
 10
-32.891
 11
-35.892
 20
-311.181
 21
-310.445
  0
LINE
  8
0
 10
-35.892
 11
-38.777
 20
-310.445
 21
-309.338
  0
LINE
  8
0
 10
-38.777
 11
-41.501
 20
-309.338
 21
-307.877
  0
LINE
  8
0
 10
-41.501
 11
-44.015
 20
-307.877
 21
-306.091
  0
LINE
  8
0
 10
-44.015
 11
-44.536
 20
-306.091
 21
-306.069
  0
LINE
  8
0
 10
-44.536
 11
-47.582
 20
-306.069
 21
-305.553
  0
LINE
  8
0
 10
-47.582
 11
-50.541
 20
-305.553
 21
-304.66
  0
LINE
  8
0
 10
-50.541
 11
-53.364
 20
-304.66
 21
-303.404
  0
LINE
  8
0
 10
-53.364
 11
-56.007
 20
-303.404
 21
-301.802
  0
LINE
  8
0
 10
-56.007
 11
-58.325
 20
-301.802
 21
-299.965
  0
LINE
  8
0
 10
-58.325
 11
-58.763
 20
-299.965
 21
-299.924
  0
LINE
  8
0
 10
-58.763
 11
-61.779
 20
-299.924
 21
-299.249
  0
LINE
  8
0
 10
-61.779
 11
-64.687
 20
-299.249
 21
-298.203
  0
LINE
  8
0
 10
-64.687
 11
-67.44
 20
-298.203
 21
-296.8
  0
LINE
  8
0
 10
-67.44
 11
-69.996
 20
-296.8
 21
-295.063
  0
LINE
  8
0
 10
-69.996
 11
-72.12
 20
-295.063
 21
-293.19
  0
LINE
  8
0
 10
-72.12
 11
-72.475
 20
-293.19
 21
-293.138
  0
LINE
  8
0
 10
-72.475
 11
-75.451
 20
-293.138
 21
-292.306
  0
LINE
  8
0
 10
-75.451
 11
-78.3
 20
-292.306
 21
-291.109
  0
LINE
  8
0
 10
-78.3
 11
-80.976
 20
-291.109
 21
-289.564
  0
LINE
  8
0
 10
-80.976
 11
-83.437
 20
-289.564
 21
-287.695
  0
LINE
  8
0
 10
-83.437
 11
-85.645
 20
-287.695
 21
-285.534
  0
LINE
  8
0
 10
-85.645
 11
-87.564
 20
-285.534
 21
-283.112
  0
LINE
  8
0
 10
-87.564
 11
-89.165
 20
-283.112
 21
-280.469
  0
LINE
  8
0
 10
-89.165
 11
-90.422
 20
-280.469
 21
-277.645
  0
LINE
  8
0
 10
-90.422
 11
-91.315
 20
-277.645
 21
-274.688
  0
LINE
  8
0
 10
-91.315
 11
-91.83
 20
-274.688
 21
-271.641
  0
LINE
  8
0
 10
-91.83
 11
-91.96
 20
-271.641
 21
-268.553
  0
LINE
  8
0
 10
-91.96
 11
-91.83
 20
268.553
 21
271.641
  0
LINE
  8
0
 10
-91.83
 11
-91.315
 20
271.641
 21
274.688
  0
LINE
  8
0
 10
-91.315
 11
-90.422
 20
274.688
 21
277.645
  0
LINE
  8
0
 10
-90.422
 11
-89.165
 20
277.645
 21
280.469
  0
LINE
  8
0
 10
-89.165
 11
-87.564
 20
280.469
 21
283.112
  0
LINE
  8
0
 10
-87.564
 11
-85.645
 20
283.112
 21
285.534
  0
LINE
  8
0
 10
-85.645
 11
-83.437
 20
285.534
 21
287.695
  0
LINE
  8
0
 10
-83.437
 11
-80.976
 20
287.695
 21
289.564
  0
LINE
  8
0
 10
-80.976
 11
-78.3
 20
289.564
 21
291.109
  0
LINE
  8
0
 10
-78.3
 11
-75.451
 20
291.109
 21
292.306
  0
LINE
  8
0
 10
-75.451
 11
-72.475
 20
292.306
 21
293.138
  0
LINE
  8
0
 10
-72.475
 11
-72.12
 20
293.138
 21
293.19
  0
LINE
  8
0
 10
-72.12
 11
-69.996
 20
293.19
 21
295.063
  0
LINE
  8
0
 10
-69.996
 11
-67.44
 20
295.063
 21
296.8
  0
LINE
  8
0
 10
-67.44
 11
-64.687
 20
296.8
 21
298.203
  0
LINE
  8
0
 10
-64.687
 11
-61.779
 20
298.203
 21
299.249
  0
LINE
  8
0
 10
-61.779
 11
-58.763
 20
299.249
 21
299.924
  0
LINE
  8
0
 10
-58.763
 11
-58.325
 20
299.924
 21
299.965
  0
LINE
  8
0
 10
-58.325
 11
-56.007
 20
299.965
 21
301.802
  0
LINE
  8
0
 10
-56.007
 11
-53.364
 20
301.802
 21
303.404
  0
LINE
  8
0
 10
-53.364
 11
-50.541
 20
303.404
 21
304.66
  0
LINE
  8
0
 10
-50.541
 11
-47.582
 20
304.66
 21
305.553
  0
LINE
  8
0
 10
-47.582
 11
-44.536
 20
305.553
 21
306.069
  0
LINE
  8
0
 10
-44.536
 11
-44.015
 20
306.069
 21
306.091
  0
LINE
  8
0
 10
-44.015
 11
-41.501
 20
306.091
 21
307.877
  0
LINE
  8
0
 10
-41.501
 11
-38.777
 20
307.877
 21
309.338
  0
LINE
  8
0
 10
-38.777
 11
-35.892
 20
309.338
 21
310.445
  0
LINE
  8
0
 10
-35.892
 11
-32.891
 20
310.445
 21
311.181
  0
LINE
  8
0
 10
-32.891
 11
-29.822
 20
311.181
 21
311.537
  0
LINE
  8
0
 10
-29.822
 11
-29.195
 20
311.537
 21
311.53
  0
LINE
  8
0
 10
-29.195
 11
-29.117
 20
311.53
 21
311.595
  0
LINE
  8
0
 10
-29.117
 11
-26.508
 20
311.595
 21
313.25
  0
LINE
  8
0
 10
-26.508
 11
-23.712
 20
313.25
 21
314.567
  0
LINE
  8
0
 10
-23.712
 11
-20.773
 20
314.567
 21
315.521
  0
LINE
  8
0
 10
-20.773
 11
-17.737
 20
315.521
 21
316.1
  0
LINE
  8
0
 10
-17.737
 11
-14.654
 20
316.1
 21
316.294
  0
LINE
  8
0
 10
-14.654
 11
-13.923
 20
316.294
 21
316.248
  0
LINE
  8
0
 10
-13.923
 11
-13.756
 20
316.248
 21
316.372
  0
LINE
  8
0
 10
-13.756
 11
-11.064
 20
316.372
 21
317.888
  0
LINE
  8
0
 10
-11.064
 11
-8.202
 20
317.888
 21
319.057
  0
LINE
  8
0
 10
-8.202
 11
-5.218
 20
319.057
 21
319.856
  0
LINE
  8
0
 10
-5.218
 11
-2.156
 20
319.856
 21
320.275
  0
LINE
  8
0
 10
-2.156
 11
0.934
 20
320.275
 21
320.308
  0
LINE
  8
0
 10
0.934
 11
1.768
 20
320.308
 21
320.211
  0
LINE
  8
0
 10
1.768
 11
2.029
 20
320.211
 21
320.385
  0
LINE
  8
0
 10
2.029
 11
4.796
 20
320.385
 21
321.758
  0
LINE
  8
0
 10
4.796
 11
7.715
 20
321.758
 21
322.775
  0
LINE
  8
0
 10
7.715
 11
10.737
 20
322.775
 21
323.418
  0
LINE
  8
0
 10
10.737
 11
13.817
 20
323.418
 21
323.676
  0
LINE
  8
0
 10
13.817
 11
16.904
 20
323.676
 21
323.547
  0
LINE
  8
0
 10
16.904
 11
17.836
 20
323.547
 21
323.389
  0
LINE
  8
0
 10
17.836
 11
18.197
 20
323.389
 21
323.603
  0
LINE
  8
0
 10
18.197
 11
21.033
 20
323.603
 21
324.83
  0
LINE
  8
0
 10
21.033
 11
24.001
 20
324.83
 21
325.692
  0
LINE
  8
0
 10
24.001
 11
27.053
 20
325.692
 21
326.176
  0
LINE
  8
0
 10
27.053
 11
30.142
 20
326.176
 21
326.272
  0
LINE
  8
0
 10
30.142
 11
33.218
 20
326.272
 21
325.982
  0
LINE
  8
0
 10
33.218
 11
34.244
 20
325.982
 21
325.752
  0
LINE
  8
0
 10
34.244
 11
34.71
 20
325.752
 21
325.996
  0
LINE
  8
0
 10
34.71
 11
37.607
 20
325.996
 21
327.073
  0
LINE
  8
0
 10
37.607
 11
40.615
 20
327.073
 21
327.779
  0
LINE
  8
0
 10
40.615
 11
43.688
 20
327.779
 21
328.102
  0
LINE
  8
0
 10
43.688
 11
46.778
 20
328.102
 21
328.037
  0
LINE
  8
0
 10
46.778
 11
49.835
 20
328.037
 21
327.586
  0
LINE
  8
0
 10
49.835
 11
50.951
 20
327.586
 21
327.274
  0
LINE
  8
0
 10
50.951
 11
51.525
 20
327.274
 21
327.537
  0
LINE
  8
0
 10
51.525
 11
54.473
 20
327.537
 21
328.461
  0
LINE
  8
0
 10
54.473
 11
57.515
 20
328.461
 21
329.009
  0
LINE
  8
0
 10
57.515
 11
60.601
 20
329.009
 21
329.171
  0
LINE
  8
0
 10
60.601
 11
63.683
 20
329.171
 21
328.944
  0
LINE
  8
0
 10
63.683
 11
66.712
 20
328.944
 21
328.333
  0
LINE
  8
0
 10
66.712
 11
67.909
 20
328.333
 21
327.93
  0
LINE
  8
0
 10
67.909
 11
68.596
 20
327.93
 21
328.202
  0
LINE
  8
0
 10
68.596
 11
71.589
 20
328.202
 21
328.97
  0
LINE
  8
0
 10
71.589
 11
74.655
 20
328.97
 21
329.358
  0
LINE
  8
0
 10
74.655
 11
77.745
 20
329.358
 21
329.358
  0
LINE
  8
0
 10
77.745
 11
80.811
 20
329.358
 21
328.97
  0
LINE
  8
0
 10
80.811
 11
83.804
 20
328.97
 21
328.202
  0
LINE
  8
0
 10
83.804
 11
85.078
 20
328.202
 21
327.697
  0
LINE
  8
0
 10
85.078
 11
85.878
 20
327.697
 21
327.967
  0
LINE
  8
0
 10
85.878
 11
88.907
 20
327.967
 21
328.577
  0
LINE
  8
0
 10
88.907
 11
91.989
 20
328.577
 21
328.804
  0
LINE
  8
0
 10
91.989
 11
95.075
 20
328.804
 21
328.643
  0
LINE
  8
0
 10
95.075
 11
98.117
 20
328.643
 21
328.095
  0
LINE
  8
0
 10
98.117
 11
101.065
 20
328.095
 21
327.171
  0
LINE
  8
0
 10
101.065
 11
102.407
 20
327.171
 21
326.556
  0
LINE
  8
0
 10
102.407
 11
103.323
 20
326.556
 21
326.812
  0
LINE
  8
0
 10
103.323
 11
106.38
 20
326.812
 21
327.263
  0
LINE
  8
0
 10
106.38
 11
109.47
 20
327.263
 21
327.328
  0
LINE
  8
0
 10
109.47
 11
112.543
 20
327.328
 21
327.005
  0
LINE
  8
0
 10
112.543
 11
115.552
 20
327.005
 21
326.299
  0
LINE
  8
0
 10
115.552
 11
118.448
 20
326.299
 21
325.222
  0
LINE
  8
0
 10
118.448
 11
119.85
 20
325.222
 21
324.489
  0
LINE
  8
0
 10
119.85
 11
120.882
 20
324.489
 21
324.72
  0
LINE
  8
0
 10
120.882
 11
123.958
 20
324.72
 21
325.01
  0
LINE
  8
0
 10
123.958
 11
127.047
 20
325.01
 21
324.914
  0
LINE
  8
0
 10
127.047
 11
130.099
 20
324.914
 21
324.43
  0
LINE
  8
0
 10
130.099
 11
133.066
 20
324.43
 21
323.567
  0
LINE
  8
0
 10
133.066
 11
135.902
 20
323.567
 21
322.341
  0
LINE
  8
0
 10
135.902
 11
137.356
 20
322.341
 21
321.481
  0
LINE
  8
0
 10
137.356
 11
138.503
 20
321.481
 21
321.675
  0
LINE
  8
0
 10
138.503
 11
141.59
 20
321.675
 21
321.804
  0
LINE
  8
0
 10
141.59
 11
144.67
 20
321.804
 21
321.546
  0
LINE
  8
0
 10
144.67
 11
147.692
 20
321.546
 21
320.904
  0
LINE
  8
0
 10
147.692
 11
150.61
 20
320.904
 21
319.887
  0
LINE
  8
0
 10
150.61
 11
153.378
 20
319.887
 21
318.513
  0
LINE
  8
0
 10
153.378
 11
154.873
 20
318.513
 21
317.52
  0
LINE
  8
0
 10
154.873
 11
156.134
 20
317.52
 21
317.666
  0
LINE
  8
0
 10
156.134
 11
159.224
 20
317.666
 21
317.633
  0
LINE
  8
0
 10
159.224
 11
162.286
 20
317.633
 21
317.214
  0
LINE
  8
0
 10
162.286
 11
165.271
 20
317.214
 21
316.414
  0
LINE
  8
0
 10
165.271
 11
168.132
 20
316.414
 21
315.246
  0
LINE
  8
0
 10
168.132
 11
170.824
 20
315.246
 21
313.73
  0
LINE
  8
0
 10
170.824
 11
172.35
 20
313.73
 21
312.596
  0
LINE
  8
0
 10
172.35
 11
173.723
 20
312.596
 21
312.682
  0
LINE
  8
0
 10
173.723
 11
176.807
 20
312.682
 21
312.488
  0
LINE
  8
0
 10
176.807
 11
179.842
 20
312.488
 21
311.91
  0
LINE
  8
0
 10
179.842
 11
182.781
 20
311.91
 21
310.955
  0
LINE
  8
0
 10
182.781
 11
185.577
 20
310.955
 21
309.638
  0
LINE
  8
0
 10
185.577
 11
188.186
 20
309.638
 21
307.983
  0
LINE
  8
0
 10
188.186
 11
189.733
 20
307.983
 21
306.703
  0
LINE
  8
0
 10
189.733
 11
191.215
 20
306.703
 21
306.719
  0
LINE
  8
0
 10
191.215
 11
194.284
 20
306.719
 21
306.363
  0
LINE
  8
0
 10
194.284
 11
197.285
 20
306.363
 21
305.627
  0
LINE
  8
0
 10
197.285
 11
200.17
 20
305.627
 21
304.519
  0
LINE
  8
0
 10
200.17
 11
202.894
 20
304.519
 21
303.058
  0
LINE
  8
0
 10
202.894
 11
205.413
 20
303.058
 21
301.269
  0
LINE
  8
0
 10
205.413
 11
206.968
 20
301.269
 21
299.838
  0
LINE
  8
0
 10
206.968
 11
208.555
 20
299.838
 21
299.772
  0
LINE
  8
0
 10
208.555
 11
211.601
 20
299.772
 21
299.256
  0
LINE
  8
0
 10
211.601
 11
214.56
 20
299.256
 21
298.363
  0
LINE
  8
0
 10
214.56
 11
217.383
 20
298.363
 21
297.107
  0
LINE
  8
0
 10
217.383
 11
220.026
 20
297.107
 21
295.505
  0
LINE
  8
0
 10
220.026
 11
222.448
 20
295.505
 21
293.586
  0
LINE
  8
0
 10
222.448
 11
224.001
 20
293.586
 21
292
  0
LINE
  8
0
 10
224.001
 11
225.687
 20
292
 21
291.841
  0
LINE
  8
0
 10
225.687
 11
228.703
 20
291.841
 21
291.166
  0
LINE
  8
0
 10
228.703
 11
231.611
 20
291.166
 21
290.12
  0
LINE
  8
0
 10
231.611
 11
234.364
 20
290.12
 21
288.717
  0
LINE
  8
0
 10
234.364
 11
236.92
 20
288.717
 21
286.98
  0
LINE
  8
0
 10
236.92
 11
239.238
 20
286.98
 21
284.937
  0
LINE
  8
0
 10
239.238
 11
240.775
 20
284.937
 21
283.192
  0
LINE
  8
0
 10
240.775
 11
242.557
 20
283.192
 21
282.929
  0
LINE
  8
0
 10
242.557
 11
245.533
 20
282.929
 21
282.097
  0
LINE
  8
0
 10
245.533
 11
248.382
 20
282.097
 21
280.9
  0
LINE
  8
0
 10
248.382
 11
251.058
 20
280.9
 21
279.355
  0
LINE
  8
0
 10
251.058
 11
253.519
 20
279.355
 21
277.486
  0
LINE
  8
0
 10
253.519
 11
255.727
 20
277.486
 21
275.325
  0
LINE
  8
0
 10
255.727
 11
257.646
 20
275.325
 21
272.903
  0
LINE
  8
0
 10
257.646
 11
259.248
 20
272.903
 21
270.26
  0
LINE
  8
0
 10
259.248
 11
260.504
 20
270.26
 21
267.437
  0
LINE
  8
0
 10
260.504
 11
261.397
 20
267.437
 21
264.479
  0
LINE
  8
0
 10
261.397
 11
261.913
 20
264.479
 21
261.432
  0
LINE
  8
0
 10
261.913
 11
262.042
 20
261.432
 21
258.344
  0
LINE
  8
0
 10
262.042
 11
261.783
 20
258.344
 21
255.266
  0
LINE
  8
0
 10
261.783
 11
261.141
 20
255.266
 21
252.243
  0
LINE
  8
0
 10
261.141
 11
260.125
 20
252.243
 21
249.325
  0
LINE
  8
0
 10
260.125
 11
258.751
 20
249.325
 21
246.557
  0
LINE
  8
0
 10
258.751
 11
257.041
 20
246.557
 21
243.983
  0
LINE
  8
0
 10
257.041
 11
255.022
 20
243.983
 21
241.644
  0
LINE
  8
0
 10
255.022
 11
252.725
 20
241.644
 21
239.577
  0
LINE
  8
0
 10
252.725
 11
250.188
 20
239.577
 21
237.813
  0
LINE
  8
0
 10
250.188
 11
247.45
 20
237.813
 21
236.381
  0
LINE
  8
0
 10
247.45
 11
244.553
 20
236.381
 21
235.304
  0
LINE
  8
0
 10
244.553
 11
241.545
 20
235.304
 21
234.599
  0
LINE
  8
0
 10
241.545
 11
238.472
 20
234.599
 21
234.275
  0
LINE
  8
0
 10
238.472
 11
235.382
 20
234.275
 21
234.34
  0
LINE
  8
0
 10
235.382
 11
232.325
 20
234.34
 21
234.791
  0
LINE
  8
0
 10
232.325
 11
229.349
 20
234.791
 21
235.623
  0
LINE
  8
0
 10
229.349
 11
226.5
 20
235.623
 21
236.82
  0
LINE
  8
0
 10
226.5
 11
223.824
 20
236.82
 21
238.365
  0
LINE
  8
0
 10
223.824
 11
221.363
 20
238.365
 21
240.234
  0
LINE
  8
0
 10
221.363
 11
219.155
 20
240.234
 21
242.395
  0
LINE
  8
0
 10
219.155
 11
218.531
 20
242.395
 21
243.183
  0
LINE
  8
0
 10
218.531
 11
217.989
 20
243.183
 21
243.234
  0
LINE
  8
0
 10
217.989
 11
214.974
 20
243.234
 21
243.908
  0
LINE
  8
0
 10
214.974
 11
212.066
 20
243.908
 21
244.955
  0
LINE
  8
0
 10
212.066
 11
209.313
 20
244.955
 21
246.357
  0
LINE
  8
0
 10
209.313
 11
206.757
 20
246.357
 21
248.095
  0
LINE
  8
0
 10
206.757
 11
204.439
 20
248.095
 21
250.138
  0
LINE
  8
0
 10
204.439
 11
203.846
 20
250.138
 21
250.811
  0
LINE
  8
0
 10
203.846
 11
203.411
 20
250.811
 21
250.829
  0
LINE
  8
0
 10
203.411
 11
200.364
 20
250.829
 21
251.344
  0
LINE
  8
0
 10
200.364
 11
197.406
 20
251.344
 21
252.237
  0
LINE
  8
0
 10
197.406
 11
194.583
 20
252.237
 21
253.494
  0
LINE
  8
0
 10
194.583
 11
191.94
 20
253.494
 21
255.095
  0
LINE
  8
0
 10
191.94
 11
189.518
 20
255.095
 21
257.014
  0
LINE
  8
0
 10
189.518
 11
188.966
 20
257.014
 21
257.577
  0
LINE
  8
0
 10
188.966
 11
188.639
 20
257.577
 21
257.574
  0
LINE
  8
0
 10
188.639
 11
185.57
 20
257.574
 21
257.929
  0
LINE
  8
0
 10
185.57
 11
182.569
 20
257.929
 21
258.666
  0
LINE
  8
0
 10
182.569
 11
179.684
 20
258.666
 21
259.773
  0
LINE
  8
0
 10
179.684
 11
176.961
 20
259.773
 21
261.234
  0
LINE
  8
0
 10
176.961
 11
174.442
 20
261.234
 21
263.024
  0
LINE
  8
0
 10
174.442
 11
173.942
 20
263.024
 21
263.484
  0
LINE
  8
0
 10
173.942
 11
173.723
 20
263.484
 21
263.47
  0
LINE
  8
0
 10
173.723
 11
170.639
 20
263.47
 21
263.664
  0
LINE
  8
0
 10
170.639
 11
167.604
 20
263.664
 21
264.243
  0
LINE
  8
0
 10
167.604
 11
164.665
 20
264.243
 21
265.197
  0
LINE
  8
0
 10
164.665
 11
161.869
 20
265.197
 21
266.514
  0
LINE
  8
0
 10
161.869
 11
159.26
 20
266.514
 21
268.169
  0
LINE
  8
0
 10
159.26
 11
158.82
 20
268.169
 21
268.533
  0
LINE
  8
0
 10
158.82
 11
158.71
 20
268.533
 21
268.52
  0
LINE
  8
0
 10
158.71
 11
155.62
 20
268.52
 21
268.553
  0
LINE
  8
0
 10
155.62
 11
152.558
 20
268.553
 21
268.972
  0
LINE
  8
0
 10
152.558
 11
149.574
 20
268.972
 21
269.772
  0
LINE
  8
0
 10
149.574
 11
146.713
 20
269.772
 21
270.94
  0
LINE
  8
0
 10
146.713
 11
144.02
 20
270.94
 21
272.457
  0
LINE
  8
0
 10
144.02
 11
143.649
 20
272.457
 21
272.732
  0
LINE
  8
0
 10
143.649
 11
143.647
 20
272.732
 21
272.732
  0
LINE
  8
0
 10
143.647
 11
140.56
 20
272.732
 21
272.603
  0
LINE
  8
0
 10
140.56
 11
137.48
 20
272.603
 21
272.861
  0
LINE
  8
0
 10
137.48
 11
134.458
 20
272.861
 21
273.503
  0
LINE
  8
0
 10
134.458
 11
131.539
 20
273.503
 21
274.52
  0
LINE
  8
0
 10
131.539
 11
128.772
 20
274.52
 21
275.894
  0
LINE
  8
0
 10
128.772
 11
128.46
 20
275.894
 21
276.102
  0
LINE
  8
0
 10
128.46
 11
125.504
 20
276.102
 21
275.823
  0
LINE
  8
0
 10
125.504
 11
122.415
 20
275.823
 21
275.919
  0
LINE
  8
0
 10
122.415
 11
119.363
 20
275.919
 21
276.402
  0
LINE
  8
0
 10
119.363
 11
116.396
 20
276.402
 21
277.265
  0
LINE
  8
0
 10
116.396
 11
113.56
 20
277.265
 21
278.492
  0
LINE
  8
0
 10
113.56
 11
113.312
 20
278.492
 21
278.639
  0
LINE
  8
0
 10
113.312
 11
110.499
 20
278.639
 21
278.224
  0
LINE
  8
0
 10
110.499
 11
107.409
 20
278.224
 21
278.158
  0
LINE
  8
0
 10
107.409
 11
104.336
 20
278.158
 21
278.481
  0
LINE
  8
0
 10
104.336
 11
101.327
 20
278.481
 21
279.188
  0
LINE
  8
0
 10
101.327
 11
98.431
 20
279.188
 21
280.264
  0
LINE
  8
0
 10
98.431
 11
98.252
 20
280.264
 21
280.358
  0
LINE
  8
0
 10
98.252
 11
95.587
 20
280.358
 21
279.821
  0
LINE
  8
0
 10
95.587
 11
92.505
 20
279.821
 21
279.594
  0
LINE
  8
0
 10
92.505
 11
89.419
 20
279.594
 21
279.756
  0
LINE
  8
0
 10
89.419
 11
86.377
 20
279.756
 21
280.304
  0
LINE
  8
0
 10
86.377
 11
83.429
 20
280.304
 21
281.227
  0
LINE
  8
0
 10
83.429
 11
83.324
 20
281.227
 21
281.275
  0
LINE
  8
0
 10
83.324
 11
80.811
 20
281.275
 21
280.63
  0
LINE
  8
0
 10
80.811
 11
77.745
 20
280.63
 21
280.242
  0
LINE
  8
0
 10
77.745
 11
74.655
 20
280.242
 21
280.242
  0
LINE
  8
0
 10
74.655
 11
71.589
 20
280.242
 21
280.63
  0
LINE
  8
0
 10
71.589
 11
68.596
 20
280.63
 21
281.398
  0
LINE
  8
0
 10
68.596
 11
68.569
 20
281.398
 21
281.409
  0
LINE
  8
0
 10
68.569
 11
66.213
 20
281.409
 21
280.67
  0
LINE
  8
0
 10
66.213
 11
63.171
 20
280.67
 21
280.122
  0
LINE
  8
0
 10
63.171
 11
60.085
 20
280.122
 21
279.96
  0
LINE
  8
0
 10
60.085
 11
57.003
 20
279.96
 21
280.187
  0
LINE
  8
0
 10
57.003
 11
54.044
 20
280.187
 21
280.784
  0
LINE
  8
0
 10
54.044
 11
51.831
 20
280.784
 21
279.961
  0
LINE
  8
0
 10
51.831
 11
48.822
 20
279.961
 21
279.255
  0
LINE
  8
0
 10
48.822
 11
45.749
 20
279.255
 21
278.932
  0
LINE
  8
0
 10
45.749
 11
42.66
 20
278.932
 21
278.998
  0
LINE
  8
0
 10
42.66
 11
39.774
 20
278.998
 21
279.423
  0
LINE
  8
0
 10
39.774
 11
37.704
 20
279.423
 21
278.527
  0
LINE
  8
0
 10
37.704
 11
34.736
 20
278.527
 21
277.664
  0
LINE
  8
0
 10
34.736
 11
31.684
 20
277.664
 21
277.181
  0
LINE
  8
0
 10
31.684
 11
28.595
 20
277.181
 21
277.085
  0
LINE
  8
0
 10
28.595
 11
25.795
 20
277.085
 21
277.349
  0
LINE
  8
0
 10
25.795
 11
23.867
 20
277.349
 21
276.392
  0
LINE
  8
0
 10
23.867
 11
20.949
 20
276.392
 21
275.375
  0
LINE
  8
0
 10
20.949
 11
17.927
 20
275.375
 21
274.733
  0
LINE
  8
0
 10
17.927
 11
14.847
 20
274.733
 21
274.475
  0
LINE
  8
0
 10
14.847
 11
12.141
 20
274.475
 21
274.588
  0
LINE
  8
0
 10
12.141
 11
10.356
 20
274.588
 21
273.582
  0
LINE
  8
0
 10
10.356
 11
7.494
 20
273.582
 21
272.414
  0
LINE
  8
0
 10
7.494
 11
4.51
 20
272.414
 21
271.614
  0
LINE
  8
0
 10
4.51
 11
1.448
 20
271.614
 21
271.195
  0
LINE
  8
0
 10
1.448
 11
-1.156
 20
271.195
 21
271.168
  0
LINE
  8
0
 10
-1.156
 11
-2.799
 20
271.168
 21
270.126
  0
LINE
  8
0
 10
-2.799
 11
-5.596
 20
270.126
 21
268.809
  0
LINE
  8
0
 10
-5.596
 11
-8.534
 20
268.809
 21
267.854
  0
LINE
  8
0
 10
-8.534
 11
-11.57
 20
267.854
 21
267.276
  0
LINE
  8
0
 10
-11.57
 11
-14.067
 20
267.276
 21
267.119
  0
LINE
  8
0
 10
-14.067
 11
-15.568
 20
267.119
 21
266.052
  0
LINE
  8
0
 10
-15.568
 11
-18.291
 20
266.052
 21
264.591
  0
LINE
  8
0
 10
-18.291
 11
-21.176
 20
264.591
 21
263.484
  0
LINE
  8
0
 10
-21.176
 11
-24.177
 20
263.484
 21
262.747
  0
LINE
  8
0
 10
-24.177
 11
-26.559
 20
262.747
 21
262.472
  0
LINE
  8
0
 10
-26.559
 11
-27.921
 20
262.472
 21
261.392
  0
LINE
  8
0
 10
-27.921
 11
-30.564
 20
261.392
 21
259.791
  0
LINE
  8
0
 10
-30.564
 11
-33.387
 20
259.791
 21
258.534
  0
LINE
  8
0
 10
-33.387
 11
-36.345
 20
258.534
 21
257.641
  0
LINE
  8
0
 10
-36.345
 11
-38.607
 20
257.641
 21
257.259
  0
LINE
  8
0
 10
-38.607
 11
-39.833
 20
257.259
 21
256.178
  0
LINE
  8
0
 10
-39.833
 11
-42.389
 20
256.178
 21
254.44
  0
LINE
  8
0
 10
-42.389
 11
-45.142
 20
254.44
 21
253.037
  0
LINE
  8
0
 10
-45.142
 11
-48.05
 20
253.037
 21
251.991
  0
LINE
  8
0
 10
-48.05
 11
-50.188
 20
251.991
 21
251.513
  0
LINE
  8
0
 10
-50.188
 11
-51.281
 20
251.513
 21
250.443
  0
LINE
  8
0
 10
-51.281
 11
-53.742
 20
250.443
 21
248.574
  0
LINE
  8
0
 10
-53.742
 11
-56.418
 20
248.574
 21
247.029
  0
LINE
  8
0
 10
-56.418
 11
-59.267
 20
247.029
 21
245.832
  0
LINE
  8
0
 10
-59.267
 11
-62.243
 20
245.832
 21
245
  0
LINE
  8
0
 10
-62.243
 11
-65.3
 20
245
 21
244.549
  0
LINE
  8
0
 10
-65.3
 11
-68.389
 20
244.549
 21
244.484
  0
LINE
  8
0
 10
-68.389
 11
-71.463
 20
244.484
 21
244.807
  0
LINE
  8
0
 10
-71.463
 11
-74.471
 20
244.807
 21
245.513
  0
LINE
  8
0
 10
-74.471
 11
-77.367
 20
245.513
 21
246.59
  0
LINE
  8
0
 10
-77.367
 11
-80.106
 20
246.59
 21
248.022
  0
LINE
  8
0
 10
-80.106
 11
-82.643
 20
248.022
 21
249.786
  0
LINE
  8
0
 10
-82.643
 11
-84.939
 20
249.786
 21
251.853
  0
LINE
  8
0
 10
-84.939
 11
-86.958
 20
251.853
 21
254.192
  0
LINE
  8
0
 10
-86.958
 11
-88.668
 20
254.192
 21
256.766
  0
LINE
  8
0
 10
-88.668
 11
-90.042
 20
256.766
 21
259.534
  0
LINE
  8
0
 10
-90.042
 11
-91.058
 20
259.534
 21
262.452
  0
LINE
  8
0
 10
-91.058
 11
-91.701
 20
262.452
 21
265.474
  0
LINE
  8
0
 10
-91.701
 11
-91.96
 20
265.474
 21
268.553
  0
LINE
  8
0
 10
-53.86
 11
-53.601
 20
-202.562
 21
-199.483
  0
LINE
  8
0
 10
-53.601
 11
-52.958
 20
-199.483
 21
-196.461
  0
LINE
  8
0
 10
-52.958
 11
-51.942
 20
-196.461
 21
-193.543
  0
LINE
  8
0
 10
-51.942
 11
-50.568
 20
-193.543
 21
-190.775
  0
LINE
  8
0
 10
-50.568
 11
-48.858
 20
-190.775
 21
-188.201
  0
LINE
  8
0
 10
-48.858
 11
-46.839
 20
-188.201
 21
-185.862
  0
LINE
  8
0
 10
-46.839
 11
-44.543
 20
-185.862
 21
-183.794
  0
LINE
  8
0
 10
-44.543
 11
-42.006
 20
-183.794
 21
-182.03
  0
LINE
  8
0
 10
-42.006
 11
-39.267
 20
-182.03
 21
-180.599
  0
LINE
  8
0
 10
-39.267
 11
-36.371
 20
-180.599
 21
-179.522
  0
LINE
  8
0
 10
-36.371
 11
-33.363
 20
-179.522
 21
-178.816
  0
LINE
  8
0
 10
-33.363
 11
-30.289
 20
-178.816
 21
-178.493
  0
LINE
  8
0
 10
-30.289
 11
-27.2
 20
-178.493
 21
-178.558
  0
LINE
  8
0
 10
-27.2
 11
-24.143
 20
-178.558
 21
-179.009
  0
LINE
  8
0
 10
-24.143
 11
-21.167
 20
-179.009
 21
-179.841
  0
LINE
  8
0
 10
-21.167
 11
-18.318
 20
-179.841
 21
-181.037
  0
LINE
  8
0
 10
-18.318
 11
-15.642
 20
-181.037
 21
-182.582
  0
LINE
  8
0
 10
-15.642
 11
-13.728
 20
-182.582
 21
-184.036
  0
LINE
  8
0
 10
-13.728
 11
-13.456
 20
-184.036
 21
-184.097
  0
LINE
  8
0
 10
-13.456
 11
-10.548
 20
-184.097
 21
-185.143
  0
LINE
  8
0
 10
-10.548
 11
-7.794
 20
-185.143
 21
-186.546
  0
LINE
  8
0
 10
-7.794
 11
-5.699
 20
-186.546
 21
-187.97
  0
LINE
  8
0
 10
-5.699
 11
-5.352
 20
-187.97
 21
-188.029
  0
LINE
  8
0
 10
-5.352
 11
-2.393
 20
-188.029
 21
-188.922
  0
LINE
  8
0
 10
-2.393
 11
0.43
 20
-188.922
 21
-190.179
  0
LINE
  8
0
 10
0.43
 11
2.708
 20
-190.179
 21
-191.559
  0
LINE
  8
0
 10
2.708
 11
3.131
 20
-191.559
 21
-191.608
  0
LINE
  8
0
 10
3.131
 11
6.132
 20
-191.608
 21
-192.345
  0
LINE
  8
0
 10
6.132
 11
9.017
 20
-192.345
 21
-193.452
  0
LINE
  8
0
 10
9.017
 11
11.482
 20
-193.452
 21
-194.775
  0
LINE
  8
0
 10
11.482
 11
11.977
 20
-194.775
 21
-194.806
  0
LINE
  8
0
 10
11.977
 11
15.013
 20
-194.806
 21
-195.384
  0
LINE
  8
0
 10
15.013
 11
17.952
 20
-195.384
 21
-196.339
  0
LINE
  8
0
 10
17.952
 11
20.601
 20
-196.339
 21
-197.586
  0
LINE
  8
0
 10
20.601
 11
21.17
 20
-197.586
 21
-197.592
  0
LINE
  8
0
 10
21.17
 11
24.232
 20
-197.592
 21
-198.011
  0
LINE
  8
0
 10
24.232
 11
27.216
 20
-198.011
 21
-198.81
  0
LINE
  8
0
 10
27.216
 11
30.048
 20
-198.81
 21
-199.967
  0
LINE
  8
0
 10
30.048
 11
30.69
 20
-199.967
 21
-199.94
  0
LINE
  8
0
 10
30.69
 11
33.769
 20
-199.94
 21
-200.198
  0
LINE
  8
0
 10
33.769
 11
36.792
 20
-200.198
 21
-200.84
  0
LINE
  8
0
 10
36.792
 11
39.71
 20
-200.84
 21
-201.857
  0
LINE
  8
0
 10
39.71
 11
39.781
 20
-201.857
 21
-201.892
  0
LINE
  8
0
 10
39.781
 11
40.516
 20
-201.892
 21
-201.823
  0
LINE
  8
0
 10
40.516
 11
43.605
 20
-201.823
 21
-201.919
  0
LINE
  8
0
 10
43.605
 11
46.657
 20
-201.919
 21
-202.403
  0
LINE
  8
0
 10
46.657
 11
49.624
 20
-202.403
 21
-203.265
  0
LINE
  8
0
 10
49.624
 11
49.792
 20
-203.265
 21
-203.338
  0
LINE
  8
0
 10
49.792
 11
50.625
 20
-203.338
 21
-203.215
  0
LINE
  8
0
 10
50.625
 11
53.714
 20
-203.215
 21
-203.15
  0
LINE
  8
0
 10
53.714
 11
56.787
 20
-203.15
 21
-203.473
  0
LINE
  8
0
 10
56.787
 11
59.796
 20
-203.473
 21
-204.179
  0
LINE
  8
0
 10
59.796
 11
60.064
 20
-204.179
 21
-204.279
  0
LINE
  8
0
 10
60.064
 11
60.991
 20
-204.279
 21
-204.092
  0
LINE
  8
0
 10
60.991
 11
64.073
 20
-204.092
 21
-203.865
  0
LINE
  8
0
 10
64.073
 11
67.159
 20
-203.865
 21
-204.026
  0
LINE
  8
0
 10
67.159
 11
70.201
 20
-204.026
 21
-204.574
  0
LINE
  8
0
 10
70.201
 11
70.573
 20
-204.574
 21
-204.691
  0
LINE
  8
0
 10
70.573
 11
71.589
 20
-204.691
 21
-204.43
  0
LINE
  8
0
 10
71.589
 11
74.655
 20
-204.43
 21
-204.042
  0
LINE
  8
0
 10
74.655
 11
77.745
 20
-204.042
 21
-204.042
  0
LINE
  8
0
 10
77.745
 11
80.811
 20
-204.042
 21
-204.43
  0
LINE
  8
0
 10
80.811
 11
81.289
 20
-204.43
 21
-204.553
  0
LINE
  8
0
 10
81.289
 11
82.389
 20
-204.553
 21
-204.208
  0
LINE
  8
0
 10
82.389
 11
85.431
 20
-204.208
 21
-203.66
  0
LINE
  8
0
 10
85.431
 11
88.517
 20
-203.66
 21
-203.498
  0
LINE
  8
0
 10
88.517
 11
91.599
 20
-203.498
 21
-203.725
  0
LINE
  8
0
 10
91.599
 11
92.184
 20
-203.725
 21
-203.843
  0
LINE
  8
0
 10
92.184
 11
93.362
 20
-203.843
 21
-203.405
  0
LINE
  8
0
 10
93.362
 11
96.371
 20
-203.405
 21
-202.699
  0
LINE
  8
0
 10
96.371
 11
99.444
 20
-202.699
 21
-202.376
  0
LINE
  8
0
 10
99.444
 11
102.534
 20
-202.376
 21
-202.441
  0
LINE
  8
0
 10
102.534
 11
103.227
 20
-202.441
 21
-202.543
  0
LINE
  8
0
 10
103.227
 11
104.476
 20
-202.543
 21
-202.003
  0
LINE
  8
0
 10
104.476
 11
107.443
 20
-202.003
 21
-201.141
  0
LINE
  8
0
 10
107.443
 11
110.495
 20
-201.141
 21
-200.657
  0
LINE
  8
0
 10
110.495
 11
113.584
 20
-200.657
 21
-200.561
  0
LINE
  8
0
 10
113.584
 11
114.385
 20
-200.561
 21
-200.636
  0
LINE
  8
0
 10
114.385
 11
115.697
 20
-200.636
 21
-199.985
  0
LINE
  8
0
 10
115.697
 11
118.615
 20
-199.985
 21
-198.969
  0
LINE
  8
0
 10
118.615
 11
121.637
 20
-198.969
 21
-198.326
  0
LINE
  8
0
 10
121.637
 11
124.717
 20
-198.326
 21
-198.068
  0
LINE
  8
0
 10
124.717
 11
125.625
 20
-198.068
 21
-198.106
  0
LINE
  8
0
 10
125.625
 11
126.991
 20
-198.106
 21
-197.337
  0
LINE
  8
0
 10
126.991
 11
129.852
 20
-197.337
 21
-196.168
  0
LINE
  8
0
 10
129.852
 11
132.836
 20
-196.168
 21
-195.368
  0
LINE
  8
0
 10
132.836
 11
135.898
 20
-195.368
 21
-194.95
  0
LINE
  8
0
 10
135.898
 11
136.91
 20
-194.95
 21
-194.939
  0
LINE
  8
0
 10
136.91
 11
138.322
 20
-194.939
 21
-194.043
  0
LINE
  8
0
 10
138.322
 11
141.118
 20
-194.043
 21
-192.727
  0
LINE
  8
0
 10
141.118
 11
144.056
 20
-192.727
 21
-191.772
  0
LINE
  8
0
 10
144.056
 11
147.092
 20
-191.772
 21
-191.194
  0
LINE
  8
0
 10
147.092
 11
148.205
 20
-191.194
 21
-191.124
  0
LINE
  8
0
 10
148.205
 11
149.653
 20
-191.124
 21
-190.095
  0
LINE
  8
0
 10
149.653
 11
152.376
 20
-190.095
 21
-188.634
  0
LINE
  8
0
 10
152.376
 11
155.261
 20
-188.634
 21
-187.527
  0
LINE
  8
0
 10
155.261
 11
158.262
 20
-187.527
 21
-186.79
  0
LINE
  8
0
 10
158.262
 11
159.473
 20
-186.79
 21
-186.65
  0
LINE
  8
0
 10
159.473
 11
160.946
 20
-186.65
 21
-185.483
  0
LINE
  8
0
 10
160.946
 11
163.589
 20
-185.483
 21
-183.882
  0
LINE
  8
0
 10
163.589
 11
166.412
 20
-183.882
 21
-182.625
  0
LINE
  8
0
 10
166.412
 11
169.371
 20
-182.625
 21
-181.732
  0
LINE
  8
0
 10
169.371
 11
170.675
 20
-181.732
 21
-181.511
  0
LINE
  8
0
 10
170.675
 11
172.163
 20
-181.511
 21
-180.2
  0
LINE
  8
0
 10
172.163
 11
174.719
 20
-180.2
 21
-178.463
  0
LINE
  8
0
 10
174.719
 11
177.472
 20
-178.463
 21
-177.06
  0
LINE
  8
0
 10
177.472
 11
180.38
 20
-177.06
 21
-176.014
  0
LINE
  8
0
 10
180.38
 11
181.772
 20
-176.014
 21
-175.702
  0
LINE
  8
0
 10
181.772
 11
183.263
 20
-175.702
 21
-174.243
  0
LINE
  8
0
 10
183.263
 11
185.724
 20
-174.243
 21
-172.374
  0
LINE
  8
0
 10
185.724
 11
188.4
 20
-172.374
 21
-170.829
  0
LINE
  8
0
 10
188.4
 11
191.249
 20
-170.829
 21
-169.632
  0
LINE
  8
0
 10
191.249
 11
194.225
 20
-169.632
 21
-168.8
  0
LINE
  8
0
 10
194.225
 11
197.282
 20
-168.8
 21
-168.349
  0
LINE
  8
0
 10
197.282
 11
200.372
 20
-168.349
 21
-168.284
  0
LINE
  8
0
 10
200.372
 11
203.445
 20
-168.284
 21
-168.607
  0
LINE
  8
0
 10
203.445
 11
206.453
 20
-168.607
 21
-169.313
  0
LINE
  8
0
 10
206.453
 11
209.35
 20
-169.313
 21
-170.39
  0
LINE
  8
0
 10
209.35
 11
212.088
 20
-170.39
 21
-171.822
  0
LINE
  8
0
 10
212.088
 11
214.625
 20
-171.822
 21
-173.586
  0
LINE
  8
0
 10
214.625
 11
216.922
 20
-173.586
 21
-175.653
  0
LINE
  8
0
 10
216.922
 11
218.941
 20
-175.653
 21
-177.992
  0
LINE
  8
0
 10
218.941
 11
220.651
 20
-177.992
 21
-180.566
  0
LINE
  8
0
 10
220.651
 11
222.025
 20
-180.566
 21
-183.334
  0
LINE
  8
0
 10
222.025
 11
223.041
 20
-183.334
 21
-186.252
  0
LINE
  8
0
 10
223.041
 11
223.683
 20
-186.252
 21
-189.274
  0
LINE
  8
0
 10
223.683
 11
223.942
 20
-189.274
 21
-192.353
  0
LINE
  8
0
 10
223.942
 11
223.813
 20
-192.353
 21
-195.441
  0
LINE
  8
0
 10
223.813
 11
223.297
 20
-195.441
 21
-198.488
  0
LINE
  8
0
 10
223.297
 11
222.404
 20
-198.488
 21
-201.445
  0
LINE
  8
0
 10
222.404
 11
221.148
 20
-201.445
 21
-204.269
  0
LINE
  8
0
 10
221.148
 11
219.546
 20
-204.269
 21
-206.912
  0
LINE
  8
0
 10
219.546
 11
217.627
 20
-206.912
 21
-209.334
  0
LINE
  8
0
 10
217.627
 11
215.419
 20
-209.334
 21
-211.495
  0
LINE
  8
0
 10
215.419
 11
212.958
 20
-211.495
 21
-213.364
  0
LINE
  8
0
 10
212.958
 11
210.282
 20
-213.364
 21
-214.909
  0
LINE
  8
0
 10
210.282
 11
207.433
 20
-214.909
 21
-216.106
  0
LINE
  8
0
 10
207.433
 11
204.827
 20
-216.106
 21
-216.835
  0
LINE
  8
0
 10
204.827
 11
204.644
 20
-216.835
 21
-217.042
  0
LINE
  8
0
 10
204.644
 11
202.326
 20
-217.042
 21
-219.085
  0
LINE
  8
0
 10
202.326
 11
199.77
 20
-219.085
 21
-220.823
  0
LINE
  8
0
 10
199.77
 11
197.017
 20
-220.823
 21
-222.225
  0
LINE
  8
0
 10
197.017
 11
194.109
 20
-222.225
 21
-223.272
  0
LINE
  8
0
 10
194.109
 11
191.591
 20
-223.272
 21
-223.835
  0
LINE
  8
0
 10
191.591
 11
191.455
 20
-223.835
 21
-223.974
  0
LINE
  8
0
 10
191.455
 11
189.033
 20
-223.974
 21
-225.893
  0
LINE
  8
0
 10
189.033
 11
186.39
 20
-225.893
 21
-227.494
  0
LINE
  8
0
 10
186.39
 11
183.567
 20
-227.494
 21
-228.751
  0
LINE
  8
0
 10
183.567
 11
180.608
 20
-228.751
 21
-229.644
  0
LINE
  8
0
 10
180.608
 11
178.188
 20
-229.644
 21
-230.054
  0
LINE
  8
0
 10
178.188
 11
178.105
 20
-230.054
 21
-230.13
  0
LINE
  8
0
 10
178.105
 11
175.586
 20
-230.13
 21
-231.92
  0
LINE
  8
0
 10
175.586
 11
172.863
 20
-231.92
 21
-233.381
  0
LINE
  8
0
 10
172.863
 11
169.978
 20
-233.381
 21
-234.488
  0
LINE
  8
0
 10
169.978
 11
166.976
 20
-234.488
 21
-235.225
  0
LINE
  8
0
 10
166.976
 11
164.662
 20
-235.225
 21
-235.493
  0
LINE
  8
0
 10
164.662
 11
164.639
 20
-235.493
 21
-235.512
  0
LINE
  8
0
 10
164.639
 11
162.03
 20
-235.512
 21
-237.168
  0
LINE
  8
0
 10
162.03
 11
159.234
 20
-237.168
 21
-238.484
  0
LINE
  8
0
 10
159.234
 11
156.295
 20
-238.484
 21
-239.439
  0
LINE
  8
0
 10
156.295
 11
153.26
 20
-239.439
 21
-240.017
  0
LINE
  8
0
 10
153.26
 11
151.047
 20
-240.017
 21
-240.157
  0
LINE
  8
0
 10
151.047
 11
148.41
 20
-240.157
 21
-241.643
  0
LINE
  8
0
 10
148.41
 11
145.549
 20
-241.643
 21
-242.811
  0
LINE
  8
0
 10
145.549
 11
142.564
 20
-242.811
 21
-243.611
  0
LINE
  8
0
 10
142.564
 11
139.502
 20
-243.611
 21
-244.029
  0
LINE
  8
0
 10
139.502
 11
137.387
 20
-244.029
 21
-244.052
  0
LINE
  8
0
 10
137.387
 11
134.767
 20
-244.052
 21
-245.352
  0
LINE
  8
0
 10
134.767
 11
131.849
 20
-245.352
 21
-246.369
  0
LINE
  8
0
 10
131.849
 11
128.827
 20
-246.369
 21
-247.011
  0
LINE
  8
0
 10
128.827
 11
125.747
 20
-247.011
 21
-247.269
  0
LINE
  8
0
 10
125.747
 11
123.737
 20
-247.269
 21
-247.185
  0
LINE
  8
0
 10
123.737
 11
121.146
 20
-247.185
 21
-248.306
  0
LINE
  8
0
 10
121.146
 11
118.179
 20
-248.306
 21
-249.168
  0
LINE
  8
0
 10
118.179
 11
115.127
 20
-249.168
 21
-249.652
  0
LINE
  8
0
 10
115.127
 11
112.038
 20
-249.652
 21
-249.748
  0
LINE
  8
0
 10
112.038
 11
110.137
 20
-249.748
 21
-249.569
  0
LINE
  8
0
 10
110.137
 11
107.586
 20
-249.569
 21
-250.517
  0
LINE
  8
0
 10
107.586
 11
104.578
 20
-250.517
 21
-251.223
  0
LINE
  8
0
 10
104.578
 11
101.505
 20
-251.223
 21
-251.546
  0
LINE
  8
0
 10
101.505
 11
98.415
 20
-251.546
 21
-251.48
  0
LINE
  8
0
 10
98.415
 11
96.625
 20
-251.48
 21
-251.217
  0
LINE
  8
0
 10
96.625
 11
94.129
 20
-251.217
 21
-251.999
  0
LINE
  8
0
 10
94.129
 11
91.087
 20
-251.999
 21
-252.547
  0
LINE
  8
0
 10
91.087
 11
88.001
 20
-252.547
 21
-252.709
  0
LINE
  8
0
 10
88.001
 11
84.919
 20
-252.709
 21
-252.482
  0
LINE
  8
0
 10
84.919
 11
83.247
 20
-252.482
 21
-252.145
  0
LINE
  8
0
 10
83.247
 11
80.811
 20
-252.145
 21
-252.77
  0
LINE
  8
0
 10
80.811
 11
77.745
 20
-252.77
 21
-253.158
  0
LINE
  8
0
 10
77.745
 11
74.655
 20
-253.158
 21
-253.158
  0
LINE
  8
0
 10
74.655
 11
71.589
 20
-253.158
 21
-252.77
  0
LINE
  8
0
 10
71.589
 11
70.036
 20
-252.77
 21
-252.372
  0
LINE
  8
0
 10
70.036
 11
67.671
 20
-252.372
 21
-252.848
  0
LINE
  8
0
 10
67.671
 11
64.589
 20
-252.848
 21
-253.075
  0
LINE
  8
0
 10
64.589
 11
61.503
 20
-253.075
 21
-252.913
  0
LINE
  8
0
 10
61.503
 11
58.461
 20
-252.913
 21
-252.365
  0
LINE
  8
0
 10
58.461
 11
57.029
 20
-252.365
 21
-251.917
  0
LINE
  8
0
 10
57.029
 11
54.743
 20
-251.917
 21
-252.254
  0
LINE
  8
0
 10
54.743
 11
51.653
 20
-252.254
 21
-252.319
  0
LINE
  8
0
 10
51.653
 11
48.58
 20
-252.319
 21
-251.996
  0
LINE
  8
0
 10
48.58
 11
45.572
 20
-251.996
 21
-251.29
  0
LINE
  8
0
 10
45.572
 11
44.261
 20
-251.29
 21
-250.803
  0
LINE
  8
0
 10
44.261
 11
42.062
 20
-250.803
 21
-251.01
  0
LINE
  8
0
 10
42.062
 11
38.973
 20
-251.01
 21
-250.914
  0
LINE
  8
0
 10
38.973
 11
35.921
 20
-250.914
 21
-250.431
  0
LINE
  8
0
 10
35.921
 11
32.954
 20
-250.431
 21
-249.568
  0
LINE
  8
0
 10
32.954
 11
31.764
 20
-249.568
 21
-249.053
  0
LINE
  8
0
 10
31.764
 11
29.66
 20
-249.053
 21
-249.141
  0
LINE
  8
0
 10
29.66
 11
26.58
 20
-249.141
 21
-248.883
  0
LINE
  8
0
 10
26.58
 11
23.558
 20
-248.883
 21
-248.241
  0
LINE
  8
0
 10
23.558
 11
20.639
 20
-248.241
 21
-247.224
  0
LINE
  8
0
 10
20.639
 11
19.569
 20
-247.224
 21
-246.693
  0
LINE
  8
0
 10
19.569
 11
17.566
 20
-246.693
 21
-246.672
  0
LINE
  8
0
 10
17.566
 11
14.504
 20
-246.672
 21
-246.253
  0
LINE
  8
0
 10
14.504
 11
11.52
 20
-246.253
 21
-245.453
  0
LINE
  8
0
 10
11.52
 11
8.658
 20
-245.453
 21
-244.285
  0
LINE
  8
0
 10
8.658
 11
7.707
 20
-244.285
 21
-243.749
  0
LINE
  8
0
 10
7.707
 11
5.81
 20
-243.749
 21
-243.629
  0
LINE
  8
0
 10
5.81
 11
2.774
 20
-243.629
 21
-243.051
  0
LINE
  8
0
 10
2.774
 11
-0.165
 20
-243.051
 21
-242.096
  0
LINE
  8
0
 10
-0.165
 11
-2.961
 20
-242.096
 21
-240.78
  0
LINE
  8
0
 10
-2.961
 11
-3.797
 20
-240.78
 21
-240.25
  0
LINE
  8
0
 10
-3.797
 11
-5.583
 20
-240.25
 21
-240.043
  0
LINE
  8
0
 10
-5.583
 11
-8.585
 20
-240.043
 21
-239.306
  0
LINE
  8
0
 10
-8.585
 11
-11.47
 20
-239.306
 21
-238.199
  0
LINE
  8
0
 10
-11.47
 11
-14.193
 20
-238.199
 21
-236.738
  0
LINE
  8
0
 10
-14.193
 11
-14.916
 20
-236.738
 21
-236.224
  0
LINE
  8
0
 10
-14.916
 11
-16.589
 20
-236.224
 21
-235.941
  0
LINE
  8
0
 10
-16.589
 11
-19.548
 20
-235.941
 21
-235.048
  0
LINE
  8
0
 10
-19.548
 11
-22.371
 20
-235.048
 21
-233.791
  0
LINE
  8
0
 10
-22.371
 11
-25.014
 20
-233.791
 21
-232.19
  0
LINE
  8
0
 10
-25.014
 11
-25.629
 20
-232.19
 21
-231.703
  0
LINE
  8
0
 10
-25.629
 11
-27.185
 20
-231.703
 21
-231.355
  0
LINE
  8
0
 10
-27.185
 11
-30.093
 20
-231.355
 21
-230.308
  0
LINE
  8
0
 10
-30.093
 11
-32.846
 20
-230.308
 21
-228.905
  0
LINE
  8
0
 10
-32.846
 11
-35.402
 20
-228.905
 21
-227.168
  0
LINE
  8
0
 10
-35.402
 11
-35.914
 20
-227.168
 21
-226.717
  0
LINE
  8
0
 10
-35.914
 11
-37.351
 20
-226.717
 21
-226.315
  0
LINE
  8
0
 10
-37.351
 11
-40.2
 20
-226.315
 21
-225.118
  0
LINE
  8
0
 10
-40.2
 11
-42.876
 20
-225.118
 21
-223.573
  0
LINE
  8
0
 10
-42.876
 11
-45.337
 20
-223.573
 21
-221.704
  0
LINE
  8
0
 10
-45.337
 11
-47.545
 20
-221.704
 21
-219.543
  0
LINE
  8
0
 10
-47.545
 11
-49.464
 20
-219.543
 21
-217.121
  0
LINE
  8
0
 10
-49.464
 11
-51.065
 20
-217.121
 21
-214.478
  0
LINE
  8
0
 10
-51.065
 11
-52.322
 20
-214.478
 21
-211.654
  0
LINE
  8
0
 10
-52.322
 11
-53.215
 20
-211.654
 21
-208.697
  0
LINE
  8
0
 10
-53.215
 11
-53.73
 20
-208.697
 21
-205.65
  0
LINE
  8
0
 10
-53.73
 11
-53.86
 20
-205.65
 21
-202.562
  0
LINE
  8
0
 10
-53.86
 11
-53.73
 20
202.562
 21
205.65
  0
LINE
  8
0
 10
-53.73
 11
-53.215
 20
205.65
 21
208.697
  0
LINE
  8
0
 10
-53.215
 11
-52.322
 20
208.697
 21
211.654
  0
LINE
  8
0
 10
-52.322
 11
-51.065
 20
211.654
 21
214.478
  0
LINE
  8
0
 10
-51.065
 11
-49.464
 20
214.478
 21
217.121
  0
LINE
  8
0
 10
-49.464
 11
-47.545
 20
217.121
 21
219.543
  0
LINE
  8
0
 10
-47.545
 11
-45.337
 20
219.543
 21
221.704
  0
LINE
  8
0
 10
-45.337
 11
-42.876
 20
221.704
 21
223.573
  0
LINE
  8
0
 10
-42.876
 11
-40.2
 20
223.573
 21
225.118
  0
LINE
  8
0
 10
-40.2
 11
-37.351
 20
225.118
 21
226.315
  0
LINE
  8
0
 10
-37.351
 11
-35.914
 20
226.315
 21
226.717
  0
LINE
  8
0
 10
-35.914
 11
-35.402
 20
226.717
 21
227.168
  0
LINE
  8
0
 10
-35.402
 11
-32.846
 20
227.168
 21
228.905
  0
LINE
  8
0
 10
-32.846
 11
-30.093
 20
228.905
 21
230.308
  0
LINE
  8
0
 10
-30.093
 11
-27.185
 20
230.308
 21
231.355
  0
LINE
  8
0
 10
-27.185
 11
-25.629
 20
231.355
 21
231.703
  0
LINE
  8
0
 10
-25.629
 11
-25.014
 20
231.703
 21
232.19
  0
LINE
  8
0
 10
-25.014
 11
-22.371
 20
232.19
 21
233.791
  0
LINE
  8
0
 10
-22.371
 11
-19.548
 20
233.791
 21
235.048
  0
LINE
  8
0
 10
-19.548
 11
-16.589
 20
235.048
 21
235.941
  0
LINE
  8
0
 10
-16.589
 11
-14.916
 20
235.941
 21
236.224
  0
LINE
  8
0
 10
-14.916
 11
-14.193
 20
236.224
 21
236.738
  0
LINE
  8
0
 10
-14.193
 11
-11.47
 20
236.738
 21
238.199
  0
LINE
  8
0
 10
-11.47
 11
-8.585
 20
238.199
 21
239.306
  0
LINE
  8
0
 10
-8.585
 11
-5.583
 20
239.306
 21
240.043
  0
LINE
  8
0
 10
-5.583
 11
-3.797
 20
240.043
 21
240.25
  0
LINE
  8
0
 10
-3.797
 11
-2.961
 20
240.25
 21
240.78
  0
LINE
  8
0
 10
-2.961
 11
-0.165
 20
240.78
 21
242.096
  0
LINE
  8
0
 10
-0.165
 11
2.774
 20
242.096
 21
243.051
  0
LINE
  8
0
 10
2.774
 11
5.81
 20
243.051
 21
243.629
  0
LINE
  8
0
 10
5.81
 11
7.707
 20
243.629
 21
243.749
  0
LINE
  8
0
 10
7.707
 11
8.658
 20
243.749
 21
244.285
  0
LINE
  8
0
 10
8.658
 11
11.52
 20
244.285
 21
245.453
  0
LINE
  8
0
 10
11.52
 11
14.504
 20
245.453
 21
246.253
  0
LINE
  8
0
 10
14.504
 11
17.566
 20
246.253
 21
246.672
  0
LINE
  8
0
 10
17.566
 11
19.569
 20
246.672
 21
246.693
  0
LINE
  8
0
 10
19.569
 11
20.639
 20
246.693
 21
247.224
  0
LINE
  8
0
 10
20.639
 11
23.558
 20
247.224
 21
248.241
  0
LINE
  8
0
 10
23.558
 11
26.58
 20
248.241
 21
248.883
  0
LINE
  8
0
 10
26.58
 11
29.66
 20
248.883
 21
249.141
  0
LINE
  8
0
 10
29.66
 11
31.764
 20
249.141
 21
249.053
  0
LINE
  8
0
 10
31.764
 11
32.954
 20
249.053
 21
249.568
  0
LINE
  8
0
 10
32.954
 11
35.921
 20
249.568
 21
250.431
  0
LINE
  8
0
 10
35.921
 11
38.973
 20
250.431
 21
250.914
  0
LINE
  8
0
 10
38.973
 11
42.062
 20
250.914
 21
251.01
  0
LINE
  8
0
 10
42.062
 11
44.261
 20
251.01
 21
250.803
  0
LINE
  8
0
 10
44.261
 11
45.572
 20
250.803
 21
251.29
  0
LINE
  8
0
 10
45.572
 11
48.58
 20
251.29
 21
251.996
  0
LINE
  8
0
 10
48.58
 11
51.653
 20
251.996
 21
252.319
  0
LINE
  8
0
 10
51.653
 11
54.743
 20
252.319
 21
252.254
  0
LINE
  8
0
 10
54.743
 11
57.029
 20
252.254
 21
251.917
  0
LINE
  8
0
 10
57.029
 11
58.461
 20
251.917
 21
252.365
  0
LINE
  8
0
 10
58.461
 11
61.503
 20
252.365
 21
252.913
  0
LINE
  8
0
 10
61.503
 11
64.589
 20
252.913
 21
253.075
  0
LINE
  8
0
 10
64.589
 11
67.671
 20
253.075
 21
252.848
  0
LINE
  8
0
 10
67.671
 11
70.036
 20
252.848
 21
252.372
  0
LINE
  8
0
 10
70.036
 11
71.589
 20
252.372
 21
252.77
  0
LINE
  8
0
 10
71.589
 11
74.655
 20
252.77
 21
253.158
  0
LINE
  8
0
 10
74.655
 11
77.745
 20
253.158
 21
253.158
  0
LINE
  8
0
 10
77.745
 11
80.811
 20
253.158
 21
252.77
  0
LINE
  8
0
 10
80.811
 11
83.247
 20
252.77
 21
252.145
  0
LINE
  8
0
 10
83.247
 11
84.919
 20
252.145
 21
252.482
  0
LINE
  8
0
 10
84.919
 11
88.001
 20
252.482
 21
252.709
  0
LINE
  8
0
 10
88.001
 11
91.087
 20
252.709
 21
252.547
  0
LINE
  8
0
 10
91.087
 11
94.129
 20
252.547
 21
251.999
  0
LINE
  8
0
 10
94.129
 11
96.625
 20
251.999
 21
251.217
  0
LINE
  8
0
 10
96.625
 11
98.415
 20
251.217
 21
251.48
  0
LINE
  8
0
 10
98.415
 11
101.505
 20
251.48
 21
251.546
  0
LINE
  8
0
 10
101.505
 11
104.578
 20
251.546
 21
251.223
  0
LINE
  8
0
 10
104.578
 11
107.586
 20
251.223
 21
250.517
  0
LINE
  8
0
 10
107.586
 11
110.137
 20
250.517
 21
249.569
  0
LINE
  8
0
 10
110.137
 11
112.038
 20
249.569
 21
249.748
  0
LINE
  8
0
 10
112.038
 11
115.127
 20
249.748
 21
249.652
  0
LINE
  8
0
 10
115.127
 11
118.179
 20
249.652
 21
249.168
  0
LINE
  8
0
 10
118.179
 11
121.146
 20
249.168
 21
248.306
  0
LINE
  8
0
 10
121.146
 11
123.737
 20
248.306
 21
247.185
  0
LINE
  8
0
 10
123.737
 11
125.747
 20
247.185
 21
247.269
  0
LINE
  8
0
 10
125.747
 11
128.827
 20
247.269
 21
247.011
  0
LINE
  8
0
 10
128.827
 11
131.849
 20
247.011
 21
246.369
  0
LINE
  8
0
 10
131.849
 11
134.767
 20
246.369
 21
245.352
  0
LINE
  8
0
 10
134.767
 11
137.387
 20
245.352
 21
244.052
  0
LINE
  8
0
 10
137.387
 11
139.502
 20
244.052
 21
244.029
  0
LINE
  8
0
 10
139.502
 11
142.564
 20
244.029
 21
243.611
  0
LINE
  8
0
 10
142.564
 11
145.549
 20
243.611
 21
242.811
  0
LINE
  8
0
 10
145.549
 11
148.41
 20
242.811
 21
241.643
  0
LINE
  8
0
 10
148.41
 11
151.047
 20
241.643
 21
240.157
  0
LINE
  8
0
 10
151.047
 11
153.26
 20
240.157
 21
240.017
  0
LINE
  8
0
 10
153.26
 11
156.295
 20
240.017
 21
239.439
  0
LINE
  8
0
 10
156.295
 11
159.234
 20
239.439
 21
238.484
  0
LINE
  8
0
 10
159.234
 11
162.03
 20
238.484
 21
237.168
  0
LINE
  8
0
 10
162.03
 11
164.639
 20
237.168
 21
235.512
  0
LINE
  8
0
 10
164.639
 11
164.662
 20
235.512
 21
235.493
  0
LINE
  8
0
 10
164.662
 11
166.976
 20
235.493
 21
235.225
  0
LINE
  8
0
 10
166.976
 11
169.978
 20
235.225
 21
234.488
  0
LINE
  8
0
 10
169.978
 11
172.863
 20
234.488
 21
233.381
  0
LINE
  8
0
 10
172.863
 11
175.586
 20
233.381
 21
231.92
  0
LINE
  8
0
 10
175.586
 11
178.105
 20
231.92
 21
230.13
  0
LINE
  8
0
 10
178.105
 11
178.188
 20
230.13
 21
230.054
  0
LINE
  8
0
 10
178.188
 11
180.608
 20
230.054
 21
229.644
  0
LINE
  8
0
 10
180.608
 11
183.567
 20
229.644
 21
228.751
  0
LINE
  8
0
 10
183.567
 11
186.39
 20
228.751
 21
227.494
  0
LINE
  8
0
 10
186.39
 11
189.033
 20
227.494
 21
225.893
  0
LINE
  8
0
 10
189.033
 11
191.455
 20
225.893
 21
223.974
  0
LINE
  8
0
 10
191.455
 11
191.591
 20
223.974
 21
223.835
  0
LINE
  8
0
 10
191.591
 11
194.109
 20
223.835
 21
223.272
  0
LINE
  8
0
 10
194.109
 11
197.017
 20
223.272
 21
222.225
  0
LINE
  8
0
 10
197.017
 11
199.77
 20
222.225
 21
220.823
  0
LINE
  8
0
 10
199.77
 11
202.326
 20
220.823
 21
219.085
  0
LINE
  8
0
 10
202.326
 11
204.644
 20
219.085
 21
217.042
  0
LINE
  8
0
 10
204.644
 11
204.827
 20
217.042
 21
216.835
  0
LINE
  8
0
 10
204.827
 11
207.433
 20
216.835
 21
216.106
  0
LINE
  8
0
 10
207.433
 11
210.282
 20
216.106
 21
214.909
  0
LINE
  8
0
 10
210.282
 11
212.958
 20
214.909
 21
213.364
  0
LINE
  8
0
 10
212.958
 11
215.419
 20
213.364
 21
211.495
  0
LINE
  8
0
 10
215.419
 11
217.627
 20
211.495
 21
209.334
  0
LINE
  8
0
 10
217.627
 11
219.546
 20
209.334
 21
206.912
  0
LINE
  8
0
 10
219.546
 11
221.148
 20
206.912
 21
204.269
  0
LINE
  8
0
 10
221.148
 11
222.404
 20
204.269
 21
201.445
  0
LINE
  8
0
 10
222.404
 11
223.297
 20
201.445
 21
198.488
  0
LINE
  8
0
 10
223.297
 11
223.813
 20
198.488
 21
195.441
  0
LINE
  8
0
 10
223.813
 11
223.942
 20
195.441
 21
192.353
  0
LINE
  8
0
 10
223.942
 11
223.683
 20
192.353
 21
189.274
  0
LINE
  8
0
 10
223.683
 11
223.041
 20
189.274
 21
186.252
  0
LINE
  8
0
 10
223.041
 11
222.025
 20
186.252
 21
183.334
  0
LINE
  8
0
 10
222.025
 11
220.651
 20
183.334
 21
180.566
  0
LINE
  8
0
 10
220.651
 11
218.941
 20
180.566
 21
177.992
  0
LINE
  8
0
 10
218.941
 11
216.922
 20
177.992
 21
175.653
  0
LINE
  8
0
 10
216.922
 11
214.625
 20
175.653
 21
173.586
  0
LINE
  8
0
 10
214.625
 11
212.088
 20
173.586
 21
171.822
  0
LINE
  8
0
 10
212.088
 11
209.35
 20
171.822
 21
170.39
  0
LINE
  8
0
 10
209.35
 11
206.453
 20
170.39
 21
169.313
  0
LINE
  8
0
 10
206.453
 11
203.445
 20
169.313
 21
168.607
  0
LINE
  8
0
 10
203.445
 11
200.372
 20
168.607
 21
168.284
  0
LINE
  8
0
 10
200.372
 11
197.282
 20
168.284
 21
168.349
  0
LINE
  8
0
 10
197.282
 11
194.225
 20
168.349
 21
168.8
  0
LINE
  8
0
 10
194.225
 11
191.249
 20
168.8
 21
169.632
  0
LINE
  8
0
 10
191.249
 11
188.4
 20
169.632
 21
170.829
  0
LINE
  8
0
 10
188.4
 11
185.724
 20
170.829
 21
172.374
  0
LINE
  8
0
 10
185.724
 11
183.263
 20
172.374
 21
174.243
  0
LINE
  8
0
 10
183.263
 11
181.772
 20
174.243
 21
175.702
  0
LINE
  8
0
 10
181.772
 11
180.38
 20
175.702
 21
176.014
  0
LINE
  8
0
 10
180.38
 11
177.472
 20
176.014
 21
177.06
  0
LINE
  8
0
 10
177.472
 11
174.719
 20
177.06
 21
178.463
  0
LINE
  8
0
 10
174.719
 11
172.163
 20
178.463
 21
180.2
  0
LINE
  8
0
 10
172.163
 11
170.675
 20
180.2
 21
181.511
  0
LINE
  8
0
 10
170.675
 11
169.371
 20
181.511
 21
181.732
  0
LINE
  8
0
 10
169.371
 11
166.412
 20
181.732
 21
182.625
  0
LINE
  8
0
 10
166.412
 11
163.589
 20
182.625
 21
183.882
  0
LINE
  8
0
 10
163.589
 11
160.946
 20
183.882
 21
185.483
  0
LINE
  8
0
 10
160.946
 11
159.473
 20
185.483
 21
186.65
  0
LINE
  8
0
 10
159.473
 11
158.262
 20
186.65
 21
186.79
  0
LINE
  8
0
 10
158.262
 11
155.261
 20
186.79
 21
187.527
  0
LINE
  8
0
 10
155.261
 11
152.376
 20
187.527
 21
188.634
  0
LINE
  8
0
 10
152.376
 11
149.653
 20
188.634
 21
190.095
  0
LINE
  8
0
 10
149.653
 11
148.205
 20
190.095
 21
191.124
  0
LINE
  8
0
 10
148.205
 11
147.092
 20
191.124
 21
191.194
  0
LINE
  8
0
 10
147.092
 11
144.056
 20
191.194
 21
191.772
  0
LINE
  8
0
 10
144.056
 11
141.118
 20
191.772
 21
192.727
  0
LINE
  8
0
 10
141.118
 11
138.322
 20
192.727
 21
194.043
  0
LINE
  8
0
 10
138.322
 11
136.91
 20
194.043
 21
194.939
  0
LINE
  8
0
 10
136.91
 11
135.898
 20
194.939
 21
194.95
  0
LINE
  8
0
 10
135.898
 11
132.836
 20
194.95
 21
195.368
  0
LINE
  8
0
 10
132.836
 11
129.852
 20
195.368
 21
196.168
  0
LINE
  8
0
 10
129.852
 11
126.991
 20
196.168
 21
197.337
  0
LINE
  8
0
 10
126.991
 11
125.625
 20
197.337
 21
198.106
  0
LINE
  8
0
 10
125.625
 11
124.717
 20
198.106
 21
198.068
  0
LINE
  8
0
 10
124.717
 11
121.637
 20
198.068
 21
198.326
  0
LINE
  8
0
 10
121.637
 11
118.615
 20
198.326
 21
198.969
  0
LINE
  8
0
 10
118.615
 11
115.697
 20
198.969
 21
199.985
  0
LINE
  8
0
 10
115.697
 11
114.385
 20
199.985
 21
200.636
  0
LINE
  8
0
 10
114.385
 11
113.584
 20
200.636
 21
200.561
  0
LINE
  8
0
 10
113.584
 11
110.495
 20
200.561
 21
200.657
  0
LINE
  8
0
 10
110.495
 11
107.443
 20
200.657
 21
201.141
  0
LINE
  8
0
 10
107.443
 11
104.476
 20
201.141
 21
202.003
  0
LINE
  8
0
 10
104.476
 11
103.227
 20
202.003
 21
202.543
  0
LINE
  8
0
 10
103.227
 11
102.534
 20
202.543
 21
202.441
  0
LINE
  8
0
 10
102.534
 11
99.444
 20
202.441
 21
202.376
  0
LINE
  8
0
 10
99.444
 11
96.371
 20
202.376
 21
202.699
  0
LINE
  8
0
 10
96.371
 11
93.362
 20
202.699
 21
203.405
  0
LINE
  8
0
 10
93.362
 11
92.184
 20
203.405
 21
203.843
  0
LINE
  8
0
 10
92.184
 11
91.599
 20
203.843
 21
203.725
  0
LINE
  8
0
 10
91.599
 11
88.517
 20
203.725
 21
203.498
  0
LINE
  8
0
 10
88.517
 11
85.431
 20
203.498
 21
203.66
  0
LINE
  8
0
 10
85.431
 11
82.389
 20
203.66
 21
204.208
  0
LINE
  8
0
 10
82.389
 11
81.289
 20
204.208
 21
204.553
  0
LINE
  8
0
 10
81.289
 11
80.811
 20
204.553
 21
204.43
  0
LINE
  8
0
 10
80.811
 11
77.745
 20
204.43
 21
204.042
  0
LINE
  8
0
 10
77.745
 11
74.655
 20
204.042
 21
204.042
  0
LINE
  8
0
 10
74.655
 11
71.589
 20
204.042
 21
204.43
  0
LINE
  8
0
 10
71.589
 11
70.573
 20
204.43
 21
204.691
  0
LINE
  8
0
 10
70.573
 11
70.201
 20
204.691
 21
204.574
  0
LINE
  8
0
 10
70.201
 11
67.159
 20
204.574
 21
204.026
  0
LINE
  8
0
 10
67.159
 11
64.073
 20
204.026
 21
203.865
  0
LINE
  8
0
 10
64.073
 11
60.991
 20
203.865
 21
204.092
  0
LINE
  8
0
 10
60.991
 11
60.064
 20
204.092
 21
204.279
  0
LINE
  8
0
 10
60.064
 11
59.796
 20
204.279
 21
204.179
  0
LINE
  8
0
 10
59.796
 11
56.787
 20
204.179
 21
203.473
  0
LINE
  8
0
 10
56.787
 11
53.714
 20
203.473
 21
203.15
  0
LINE
  8
0
 10
53.714
 11
50.625
 20
203.15
 21
203.215
  0
LINE
  8
0
 10
50.625
 11
49.792
 20
203.215
 21
203.338
  0
LINE
  8
0
 10
49.792
 11
49.624
 20
203.338
 21
203.265
  0
LINE
  8
0
 10
49.624
 11
46.657
 20
203.265
 21
202.403
  0
LINE
  8
0
 10
46.657
 11
43.605
 20
202.403
 21
201.919
  0
LINE
  8
0
 10
43.605
 11
40.516
 20
201.919
 21
201.823
  0
LINE
  8
0
 10
40.516
 11
39.781
 20
201.823
 21
201.892
  0
LINE
  8
0
 10
39.781
 11
39.71
 20
201.892
 21
201.857
  0
LINE
  8
0
 10
39.71
 11
36.792
 20
201.857
 21
200.84
  0
LINE
  8
0
 10
36.792
 11
33.769
 20
200.84
 21
200.198
  0
LINE
  8
0
 10
33.769
 11
30.69
 20
200.198
 21
199.94
  0
LINE
  8
0
 10
30.69
 11
30.048
 20
199.94
 21
199.967
  0
LINE
  8
0
 10
30.048
 11
27.216
 20
199.967
 21
198.81
  0
LINE
  8
0
 10
27.216
 11
24.232
 20
198.81
 21
198.011
  0
LINE
  8
0
 10
24.232
 11
21.17
 20
198.011
 21
197.592
  0
LINE
  8
0
 10
21.17
 11
20.601
 20
197.592
 21
197.586
  0
LINE
  8
0
 10
20.601
 11
17.952
 20
197.586
 21
196.339
  0
LINE
  8
0
 10
17.952
 11
15.013
 20
196.339
 21
195.384
  0
LINE
  8
0
 10
15.013
 11
11.977
 20
195.384
 21
194.806
  0
LINE
  8
0
 10
11.977
 11
11.482
 20
194.806
 21
194.775
  0
LINE
  8
0
 10
11.482
 11
9.017
 20
194.775
 21
193.452
  0
LINE
  8
0
 10
9.017
 11
6.132
 20
193.452
 21
192.345
  0
LINE
  8
0
 10
6.132
 11
3.131
 20
192.345
 21
191.608
  0
LINE
  8
0
 10
3.131
 11
2.708
 20
191.608
 21
191.559
  0
LINE
  8
0
 10
2.708
 11
0.43
 20
191.559
 21
190.179
  0
LINE
  8
0
 10
0.43
 11
-2.393
 20
190.179
 21
188.922
  0
LINE
  8
0
 10
-2.393
 11
-5.352
 20
188.922
 21
188.029
  0
LINE
  8
0
 10
-5.352
 11
-5.699
 20
188.029
 21
187.97
  0
LINE
  8
0
 10
-5.699
 11
-7.794
 20
187.97
 21
186.546
  0
LINE
  8
0
 10
-7.794
 11
-10.548
 20
186.546
 21
185.143
  0
LINE
  8
0
 10
-10.548
 11
-13.456
 20
185.143
 21
184.097
  0
LINE
  8
0
 10
-13.456
 11
-13.728
 20
184.097
 21
184.036
  0
LINE
  8
0
 10
-13.728
 11
-15.642
 20
184.036
 21
182.582
  0
LINE
  8
0
 10
-15.642
 11
-18.318
 20
182.582
 21
181.037
  0
LINE
  8
0
 10
-18.318
 11
-21.167
 20
181.037
 21
179.841
  0
LINE
  8
0
 10
-21.167
 11
-24.143
 20
179.841
 21
179.009
  0
LINE
  8
0
 10
-24.143
 11
-27.2
 20
179.009
 21
178.558
  0
LINE
  8
0
 10
-27.2
 11
-30.289
 20
178.558
 21
178.493
  0
LINE
  8
0
 10
-30.289
 11
-33.363
 20
178.493
 21
178.816
  0
LINE
  8
0
 10
-33.363
 11
-36.371
 20
178.816
 21
179.522
  0
LINE
  8
0
 10
-36.371
 11
-39.267
 20
179.522
 21
180.599
  0
LINE
  8
0
 10
-39.267
 11
-42.006
 20
180.599
 21
182.03
  0
LINE
  8
0
 10
-42.006
 11
-44.543
 20
182.03
 21
183.794
  0
LINE
  8
0
 10
-44.543
 11
-46.839
 20
183.794
 21
185.862
  0
LINE
  8
0
 10
-46.839
 11
-48.858
 20
185.862
 21
188.201
  0
LINE
  8
0
 10
-48.858
 11
-50.568
 20
188.201
 21
190.775
  0
LINE
  8
0
 10
-50.568
 11
-51.942
 20
190.775
 21
193.543
  0
LINE
  8
0
 10
-51.942
 11
-52.958
 20
193.543
 21
196.461
  0
LINE
  8
0
 10
-52.958
 11
-53.601
 20
196.461
 21
199.483
  0
LINE
  8
0
 10
-53.601
 11
-53.86
 20
199.483
 21
202.562
  0
LINE
  8
0
 10
-15.76
 11
-15.501
 20
-136.571
 21
-133.492
  0
LINE
  8
0
 10
-15.501
 11
-14.858
 20
-133.492
 21
-130.469
  0
LINE
  8
0
 10
-14.858
 11
-13.842
 20
-130.469
 21
-127.552
  0
LINE
  8
0
 10
-13.842
 11
-12.468
 20
-127.552
 21
-124.784
  0
LINE
  8
0
 10
-12.468
 11
-10.758
 20
-124.784
 21
-122.21
  0
LINE
  8
0
 10
-10.758
 11
-8.739
 20
-122.21
 21
-119.871
  0
LINE
  8
0
 10
-8.739
 11
-6.443
 20
-119.871
 21
-117.803
  0
LINE
  8
0
 10
-6.443
 11
-3.906
 20
-117.803
 21
-116.039
  0
LINE
  8
0
 10
-3.906
 11
-1.167
 20
-116.039
 21
-114.608
  0
LINE
  8
0
 10
-1.167
 11
1.729
 20
-114.608
 21
-113.531
  0
LINE
  8
0
 10
1.729
 11
4.737
 20
-113.531
 21
-112.825
  0
LINE
  8
0
 10
4.737
 11
7.811
 20
-112.825
 21
-112.502
  0
LINE
  8
0
 10
7.811
 11
10.9
 20
-112.502
 21
-112.567
  0
LINE
  8
0
 10
10.9
 11
13.957
 20
-112.567
 21
-113.018
  0
LINE
  8
0
 10
13.957
 11
16.933
 20
-113.018
 21
-113.849
  0
LINE
  8
0
 10
16.933
 11
19.782
 20
-113.849
 21
-115.046
  0
LINE
  8
0
 10
19.782
 11
22.458
 20
-115.046
 21
-116.591
  0
LINE
  8
0
 10
22.458
 11
22.673
 20
-116.591
 21
-116.754
  0
LINE
  8
0
 10
22.673
 11
24.046
 20
-116.754
 21
-117.248
  0
LINE
  8
0
 10
24.046
 11
26.8
 20
-117.248
 21
-118.651
  0
LINE
  8
0
 10
26.8
 11
27.106
 20
-118.651
 21
-118.859
  0
LINE
  8
0
 10
27.106
 11
28.6
 20
-118.859
 21
-119.31
  0
LINE
  8
0
 10
28.6
 11
31.423
 20
-119.31
 21
-120.566
  0
LINE
  8
0
 10
31.423
 11
31.826
 20
-120.566
 21
-120.81
  0
LINE
  8
0
 10
31.826
 11
33.44
 20
-120.81
 21
-121.206
  0
LINE
  8
0
 10
33.44
 11
36.324
 20
-121.206
 21
-122.314
  0
LINE
  8
0
 10
36.324
 11
36.825
 20
-122.314
 21
-122.583
  0
LINE
  8
0
 10
36.825
 11
38.56
 20
-122.583
 21
-122.913
  0
LINE
  8
0
 10
38.56
 11
41.499
 20
-122.913
 21
-123.868
  0
LINE
  8
0
 10
41.499
 11
42.107
 20
-123.868
 21
-124.154
  0
LINE
  8
0
 10
42.107
 11
43.954
 20
-124.154
 21
-124.407
  0
LINE
  8
0
 10
43.954
 11
46.938
 20
-124.407
 21
-125.207
  0
LINE
  8
0
 10
46.938
 11
47.653
 20
-125.207
 21
-125.499
  0
LINE
  8
0
 10
47.653
 11
49.612
 20
-125.499
 21
-125.663
  0
LINE
  8
0
 10
49.612
 11
52.635
 20
-125.663
 21
-126.305
  0
LINE
  8
0
 10
52.635
 11
53.461
 20
-126.305
 21
-126.593
  0
LINE
  8
0
 10
53.461
 11
55.525
 20
-126.593
 21
-126.657
  0
LINE
  8
0
 10
55.525
 11
58.577
 20
-126.657
 21
-127.141
  0
LINE
  8
0
 10
58.577
 11
59.511
 20
-127.141
 21
-127.413
  0
LINE
  8
0
 10
59.511
 11
61.679
 20
-127.413
 21
-127.367
  0
LINE
  8
0
 10
61.679
 11
64.752
 20
-127.367
 21
-127.69
  0
LINE
  8
0
 10
64.752
 11
65.799
 20
-127.69
 21
-127.936
  0
LINE
  8
0
 10
65.799
 11
68.061
 20
-127.936
 21
-127.769
  0
LINE
  8
0
 10
68.061
 11
71.147
 20
-127.769
 21
-127.931
  0
LINE
  8
0
 10
71.147
 11
72.304
 20
-127.931
 21
-128.139
  0
LINE
  8
0
 10
72.304
 11
74.655
 20
-128.139
 21
-127.842
  0
LINE
  8
0
 10
74.655
 11
77.745
 20
-127.842
 21
-127.842
  0
LINE
  8
0
 10
77.745
 11
79.011
 20
-127.842
 21
-128.002
  0
LINE
  8
0
 10
79.011
 11
81.443
 20
-128.002
 21
-127.564
  0
LINE
  8
0
 10
81.443
 11
84.529
 20
-127.564
 21
-127.403
  0
LINE
  8
0
 10
84.529
 11
85.903
 20
-127.403
 21
-127.504
  0
LINE
  8
0
 10
85.903
 11
88.406
 20
-127.504
 21
-126.916
  0
LINE
  8
0
 10
88.406
 11
91.479
 20
-126.916
 21
-126.593
  0
LINE
  8
0
 10
91.479
 11
92.959
 20
-126.593
 21
-126.625
  0
LINE
  8
0
 10
92.959
 11
95.523
 20
-126.625
 21
-125.879
  0
LINE
  8
0
 10
95.523
 11
98.575
 20
-125.879
 21
-125.395
  0
LINE
  8
0
 10
98.575
 11
100.156
 20
-125.395
 21
-125.346
  0
LINE
  8
0
 10
100.156
 11
102.772
 20
-125.346
 21
-124.434
  0
LINE
  8
0
 10
102.772
 11
105.795
 20
-124.434
 21
-123.791
  0
LINE
  8
0
 10
105.795
 11
107.471
 20
-123.791
 21
-123.651
  0
LINE
  8
0
 10
107.471
 11
110.13
 20
-123.651
 21
-122.565
  0
LINE
  8
0
 10
110.13
 11
113.114
 20
-122.565
 21
-121.765
  0
LINE
  8
0
 10
113.114
 11
114.881
 20
-121.765
 21
-121.523
  0
LINE
  8
0
 10
114.881
 11
117.571
 20
-121.523
 21
-120.256
  0
LINE
  8
0
 10
117.571
 11
120.509
 20
-120.256
 21
-119.302
  0
LINE
  8
0
 10
120.509
 11
122.357
 20
-119.302
 21
-118.95
  0
LINE
  8
0
 10
122.357
 11
125.069
 20
-118.95
 21
-117.495
  0
LINE
  8
0
 10
125.069
 11
127.953
 20
-117.495
 21
-116.388
  0
LINE
  8
0
 10
127.953
 11
129.904
 20
-116.388
 21
-115.91
  0
LINE
  8
0
 10
129.904
 11
129.953
 20
-115.91
 21
-115.871
  0
LINE
  8
0
 10
129.953
 11
132.596
 20
-115.871
 21
-114.269
  0
LINE
  8
0
 10
132.596
 11
135.419
 20
-114.269
 21
-113.013
  0
LINE
  8
0
 10
135.419
 11
137.469
 20
-113.013
 21
-112.394
  0
LINE
  8
0
 10
137.469
 11
137.569
 20
-112.394
 21
-112.306
  0
LINE
  8
0
 10
137.569
 11
140.124
 20
-112.306
 21
-110.568
  0
LINE
  8
0
 10
140.124
 11
142.878
 20
-110.568
 21
-109.165
  0
LINE
  8
0
 10
142.878
 11
145.016
 20
-109.165
 21
-108.396
  0
LINE
  8
0
 10
145.016
 11
145.163
 20
-108.396
 21
-108.252
  0
LINE
  8
0
 10
145.163
 11
147.624
 20
-108.252
 21
-106.382
  0
LINE
  8
0
 10
147.624
 11
150.3
 20
-106.382
 21
-104.837
  0
LINE
  8
0
 10
150.3
 11
153.149
 20
-104.837
 21
-103.641
  0
LINE
  8
0
 10
153.149
 11
156.125
 20
-103.641
 21
-102.809
  0
LINE
  8
0
 10
156.125
 11
159.182
 20
-102.809
 21
-102.358
  0
LINE
  8
0
 10
159.182
 11
162.272
 20
-102.358
 21
-102.293
  0
LINE
  8
0
 10
162.272
 11
165.345
 20
-102.293
 21
-102.616
  0
LINE
  8
0
 10
165.345
 11
168.353
 20
-102.616
 21
-103.322
  0
LINE
  8
0
 10
168.353
 11
171.25
 20
-103.322
 21
-104.399
  0
LINE
  8
0
 10
171.25
 11
173.988
 20
-104.399
 21
-105.83
  0
LINE
  8
0
 10
173.988
 11
176.525
 20
-105.83
 21
-107.594
  0
LINE
  8
0
 10
176.525
 11
178.822
 20
-107.594
 21
-109.662
  0
LINE
  8
0
 10
178.822
 11
180.841
 20
-109.662
 21
-112.001
  0
LINE
  8
0
 10
180.841
 11
182.551
 20
-112.001
 21
-114.575
  0
LINE
  8
0
 10
182.551
 11
183.925
 20
-114.575
 21
-117.343
  0
LINE
  8
0
 10
183.925
 11
184.941
 20
-117.343
 21
-120.261
  0
LINE
  8
0
 10
184.941
 11
185.583
 20
-120.261
 21
-123.283
  0
LINE
  8
0
 10
185.583
 11
185.842
 20
-123.283
 21
-126.362
  0
LINE
  8
0
 10
185.842
 11
185.713
 20
-126.362
 21
-129.45
  0
LINE
  8
0
 10
185.713
 11
185.197
 20
-129.45
 21
-132.497
  0
LINE
  8
0
 10
185.197
 11
184.304
 20
-132.497
 21
-135.454
  0
LINE
  8
0
 10
184.304
 11
183.048
 20
-135.454
 21
-138.278
  0
LINE
  8
0
 10
183.048
 11
181.446
 20
-138.278
 21
-140.921
  0
LINE
  8
0
 10
181.446
 11
179.527
 20
-140.921
 21
-143.343
  0
LINE
  8
0
 10
179.527
 11
177.319
 20
-143.343
 21
-145.504
  0
LINE
  8
0
 10
177.319
 11
174.858
 20
-145.504
 21
-147.373
  0
LINE
  8
0
 10
174.858
 11
172.182
 20
-147.373
 21
-148.918
  0
LINE
  8
0
 10
172.182
 11
169.333
 20
-148.918
 21
-150.115
  0
LINE
  8
0
 10
169.333
 11
168.775
 20
-150.115
 21
-150.271
  0
LINE
  8
0
 10
168.775
 11
167.732
 20
-150.271
 21
-151.19
  0
LINE
  8
0
 10
167.732
 11
165.176
 20
-151.19
 21
-152.928
  0
LINE
  8
0
 10
165.176
 11
162.423
 20
-152.928
 21
-154.331
  0
LINE
  8
0
 10
162.423
 11
159.515
 20
-154.331
 21
-155.377
  0
LINE
  8
0
 10
159.515
 11
159.048
 20
-155.377
 21
-155.481
  0
LINE
  8
0
 10
159.048
 11
158.039
 20
-155.481
 21
-156.281
  0
LINE
  8
0
 10
158.039
 11
155.396
 20
-156.281
 21
-157.882
  0
LINE
  8
0
 10
155.396
 11
152.573
 20
-157.882
 21
-159.139
  0
LINE
  8
0
 10
152.573
 11
149.615
 20
-159.139
 21
-160.032
  0
LINE
  8
0
 10
149.615
 11
149.244
 20
-160.032
 21
-160.095
  0
LINE
  8
0
 10
149.244
 11
148.278
 20
-160.095
 21
-160.781
  0
LINE
  8
0
 10
148.278
 11
145.555
 20
-160.781
 21
-162.242
  0
LINE
  8
0
 10
145.555
 11
142.67
 20
-162.242
 21
-163.349
  0
LINE
  8
0
 10
142.67
 11
139.669
 20
-163.349
 21
-164.086
  0
LINE
  8
0
 10
139.669
 11
139.397
 20
-164.086
 21
-164.118
  0
LINE
  8
0
 10
139.397
 11
138.483
 20
-164.118
 21
-164.697
  0
LINE
  8
0
 10
138.483
 11
135.687
 20
-164.697
 21
-166.014
  0
LINE
  8
0
 10
135.687
 11
132.748
 20
-166.014
 21
-166.969
  0
LINE
  8
0
 10
132.748
 11
129.712
 20
-166.969
 21
-167.547
  0
LINE
  8
0
 10
129.712
 11
129.543
 20
-167.547
 21
-167.558
  0
LINE
  8
0
 10
129.543
 11
128.688
 20
-167.558
 21
-168.039
  0
LINE
  8
0
 10
128.688
 11
125.827
 20
-168.039
 21
-169.207
  0
LINE
  8
0
 10
125.827
 11
122.842
 20
-169.207
 21
-170.007
  0
LINE
  8
0
 10
122.842
 11
119.78
 20
-170.007
 21
-170.426
  0
LINE
  8
0
 10
119.78
 11
119.711
 20
-170.426
 21
-170.427
  0
LINE
  8
0
 10
119.711
 11
118.925
 20
-170.427
 21
-170.817
  0
LINE
  8
0
 10
118.925
 11
116.006
 20
-170.817
 21
-171.834
  0
LINE
  8
0
 10
116.006
 11
112.984
 20
-171.834
 21
-172.476
  0
LINE
  8
0
 10
112.984
 11
109.952
 20
-172.476
 21
-172.73
  0
LINE
  8
0
 10
109.952
 11
109.226
 20
-172.73
 21
-173.044
  0
LINE
  8
0
 10
109.226
 11
106.258
 20
-173.044
 21
-173.907
  0
LINE
  8
0
 10
106.258
 11
103.206
 20
-173.907
 21
-174.39
  0
LINE
  8
0
 10
103.206
 11
100.304
 20
-174.39
 21
-174.48
  0
LINE
  8
0
 10
100.304
 11
99.621
 20
-174.48
 21
-174.734
  0
LINE
  8
0
 10
99.621
 11
96.613
 20
-174.734
 21
-175.44
  0
LINE
  8
0
 10
96.613
 11
93.54
 20
-175.44
 21
-175.763
  0
LINE
  8
0
 10
93.54
 11
90.774
 20
-175.763
 21
-175.705
  0
LINE
  8
0
 10
90.774
 11
90.141
 20
-175.705
 21
-175.903
  0
LINE
  8
0
 10
90.141
 11
87.099
 20
-175.903
 21
-176.451
  0
LINE
  8
0
 10
87.099
 11
84.013
 20
-176.451
 21
-176.613
  0
LINE
  8
0
 10
84.013
 11
81.395
 20
-176.613
 21
-176.42
  0
LINE
  8
0
 10
81.395
 11
80.811
 20
-176.42
 21
-176.57
  0
LINE
  8
0
 10
80.811
 11
77.745
 20
-176.57
 21
-176.958
  0
LINE
  8
0
 10
77.745
 11
74.655
 20
-176.958
 21
-176.958
  0
LINE
  8
0
 10
74.655
 11
72.189
 20
-176.958
 21
-176.646
  0
LINE
  8
0
 10
72.189
 11
71.659
 20
-176.646
 21
-176.753
  0
LINE
  8
0
 10
71.659
 11
68.577
 20
-176.753
 21
-176.98
  0
LINE
  8
0
 10
68.577
 11
65.491
 20
-176.98
 21
-176.818
  0
LINE
  8
0
 10
65.491
 11
63.182
 20
-176.818
 21
-176.402
  0
LINE
  8
0
 10
63.182
 11
62.708
 20
-176.402
 21
-176.472
  0
LINE
  8
0
 10
62.708
 11
59.618
 20
-176.472
 21
-176.537
  0
LINE
  8
0
 10
59.618
 11
56.545
 20
-176.537
 21
-176.214
  0
LINE
  8
0
 10
56.545
 11
54.394
 20
-176.214
 21
-175.709
  0
LINE
  8
0
 10
54.394
 11
53.982
 20
-175.709
 21
-175.748
  0
LINE
  8
0
 10
53.982
 11
50.894
 20
-175.748
 21
-175.652
  0
LINE
  8
0
 10
50.894
 11
47.842
 20
-175.652
 21
-175.169
  0
LINE
  8
0
 10
47.842
 11
45.855
 20
-175.169
 21
-174.591
  0
LINE
  8
0
 10
45.855
 11
45.503
 20
-174.591
 21
-174.606
  0
LINE
  8
0
 10
45.503
 11
42.423
 20
-174.606
 21
-174.348
  0
LINE
  8
0
 10
42.423
 11
39.401
 20
-174.348
 21
-173.706
  0
LINE
  8
0
 10
39.401
 11
37.579
 20
-173.706
 21
-173.071
  0
LINE
  8
0
 10
37.579
 11
37.288
 20
-173.071
 21
-173.068
  0
LINE
  8
0
 10
37.288
 11
34.226
 20
-173.068
 21
-172.649
  0
LINE
  8
0
 10
34.226
 11
31.242
 20
-172.649
 21
-171.85
  0
LINE
  8
0
 10
31.242
 11
29.585
 20
-171.85
 21
-171.173
  0
LINE
  8
0
 10
29.585
 11
29.357
 20
-171.173
 21
-171.159
  0
LINE
  8
0
 10
29.357
 11
26.321
 20
-171.159
 21
-170.58
  0
LINE
  8
0
 10
26.321
 11
23.382
 20
-170.58
 21
-169.626
  0
LINE
  8
0
 10
23.382
 11
21.89
 20
-169.626
 21
-168.923
  0
LINE
  8
0
 10
21.89
 11
21.724
 20
-168.923
 21
-168.904
  0
LINE
  8
0
 10
21.724
 11
18.723
 20
-168.904
 21
-168.167
  0
LINE
  8
0
 10
18.723
 11
15.838
 20
-168.167
 21
-167.06
  0
LINE
  8
0
 10
15.838
 11
14.508
 20
-167.06
 21
-166.347
  0
LINE
  8
0
 10
14.508
 11
14.404
 20
-166.347
 21
-166.329
  0
LINE
  8
0
 10
14.404
 11
11.446
 20
-166.329
 21
-165.436
  0
LINE
  8
0
 10
11.446
 11
8.623
 20
-165.436
 21
-164.179
  0
LINE
  8
0
 10
8.623
 11
7.452
 20
-164.179
 21
-163.47
  0
LINE
  8
0
 10
7.452
 11
7.409
 20
-163.47
 21
-163.46
  0
LINE
  8
0
 10
7.409
 11
4.501
 20
-163.46
 21
-162.414
  0
LINE
  8
0
 10
4.501
 11
1.748
 20
-162.414
 21
-161.011
  0
LINE
  8
0
 10
1.748
 11
0.719
 20
-161.011
 21
-160.312
  0
LINE
  8
0
 10
0.719
 11
-2.1
 20
-160.312
 21
-159.127
  0
LINE
  8
0
 10
-2.1
 11
-4.776
 20
-159.127
 21
-157.582
  0
LINE
  8
0
 10
-4.776
 11
-7.237
 20
-157.582
 21
-155.713
  0
LINE
  8
0
 10
-7.237
 11
-9.445
 20
-155.713
 21
-153.551
  0
LINE
  8
0
 10
-9.445
 11
-11.364
 20
-153.551
 21
-151.129
  0
LINE
  8
0
 10
-11.364
 11
-12.965
 20
-151.129
 21
-148.487
  0
LINE
  8
0
 10
-12.965
 11
-14.222
 20
-148.487
 21
-145.663
  0
LINE
  8
0
 10
-14.222
 11
-15.115
 20
-145.663
 21
-142.706
  0
LINE
  8
0
 10
-15.115
 11
-15.63
 20
-142.706
 21
-139.659
  0
LINE
  8
0
 10
-15.63
 11
-15.76
 20
-139.659
 21
-136.571
  0
LINE
  8
0
 10
-15.76
 11
-15.63
 20
136.571
 21
139.659
  0
LINE
  8
0
 10
-15.63
 11
-15.115
 20
139.659
 21
142.706
  0
LINE
  8
0
 10
-15.115
 11
-14.222
 20
142.706
 21
145.663
  0
LINE
  8
0
 10
-14.222
 11
-12.965
 20
145.663
 21
148.487
  0
LINE
  8
0
 10
-12.965
 11
-11.364
 20
148.487
 21
151.129
  0
LINE
  8
0
 10
-11.364
 11
-9.445
 20
151.129
 21
153.551
  0
LINE
  8
0
 10
-9.445
 11
-7.237
 20
153.551
 21
155.713
  0
LINE
  8
0
 10
-7.237
 11
-4.776
 20
155.713
 21
157.582
  0
LINE
  8
0
 10
-4.776
 11
-2.1
 20
157.582
 21
159.127
  0
LINE
  8
0
 10
-2.1
 11
0.719
 20
159.127
 21
160.312
  0
LINE
  8
0
 10
0.719
 11
1.748
 20
160.312
 21
161.011
  0
LINE
  8
0
 10
1.748
 11
4.501
 20
161.011
 21
162.414
  0
LINE
  8
0
 10
4.501
 11
7.409
 20
162.414
 21
163.46
  0
LINE
  8
0
 10
7.409
 11
7.452
 20
163.46
 21
163.47
  0
LINE
  8
0
 10
7.452
 11
8.623
 20
163.47
 21
164.179
  0
LINE
  8
0
 10
8.623
 11
11.446
 20
164.179
 21
165.436
  0
LINE
  8
0
 10
11.446
 11
14.404
 20
165.436
 21
166.329
  0
LINE
  8
0
 10
14.404
 11
14.508
 20
166.329
 21
166.347
  0
LINE
  8
0
 10
14.508
 11
15.838
 20
166.347
 21
167.06
  0
LINE
  8
0
 10
15.838
 11
18.723
 20
167.06
 21
168.167
  0
LINE
  8
0
 10
18.723
 11
21.724
 20
168.167
 21
168.904
  0
LINE
  8
0
 10
21.724
 11
21.89
 20
168.904
 21
168.923
  0
LINE
  8
0
 10
21.89
 11
23.382
 20
168.923
 21
169.626
  0
LINE
  8
0
 10
23.382
 11
26.321
 20
169.626
 21
170.58
  0
LINE
  8
0
 10
26.321
 11
29.357
 20
170.58
 21
171.159
  0
LINE
  8
0
 10
29.357
 11
29.585
 20
171.159
 21
171.173
  0
LINE
  8
0
 10
29.585
 11
31.242
 20
171.173
 21
171.85
  0
LINE
  8
0
 10
31.242
 11
34.226
 20
171.85
 21
172.649
  0
LINE
  8
0
 10
34.226
 11
37.288
 20
172.649
 21
173.068
  0
LINE
  8
0
 10
37.288
 11
37.579
 20
173.068
 21
173.071
  0
LINE
  8
0
 10
37.579
 11
39.401
 20
173.071
 21
173.706
  0
LINE
  8
0
 10
39.401
 11
42.423
 20
173.706
 21
174.348
  0
LINE
  8
0
 10
42.423
 11
45.503
 20
174.348
 21
174.606
  0
LINE
  8
0
 10
45.503
 11
45.855
 20
174.606
 21
174.591
  0
LINE
  8
0
 10
45.855
 11
47.842
 20
174.591
 21
175.169
  0
LINE
  8
0
 10
47.842
 11
50.894
 20
175.169
 21
175.652
  0
LINE
  8
0
 10
50.894
 11
53.982
 20
175.652
 21
175.748
  0
LINE
  8
0
 10
53.982
 11
54.394
 20
175.748
 21
175.709
  0
LINE
  8
0
 10
54.394
 11
56.545
 20
175.709
 21
176.214
  0
LINE
  8
0
 10
56.545
 11
59.618
 20
176.214
 21
176.537
  0
LINE
  8
0
 10
59.618
 11
62.708
 20
176.537
 21
176.472
  0
LINE
  8
0
 10
62.708
 11
63.182
 20
176.472
 21
176.402
  0
LINE
  8
0
 10
63.182
 11
65.491
 20
176.402
 21
176.818
  0
LINE
  8
0
 10
65.491
 11
68.577
 20
176.818
 21
176.98
  0
LINE
  8
0
 10
68.577
 11
71.659
 20
176.98
 21
176.753
  0
LINE
  8
0
 10
71.659
 11
72.189
 20
176.753
 21
176.646
  0
LINE
  8
0
 10
72.189
 11
74.655
 20
176.646
 21
176.958
  0
LINE
  8
0
 10
74.655
 11
77.745
 20
176.958
 21
176.958
  0
LINE
  8
0
 10
77.745
 11
80.811
 20
176.958
 21
176.57
  0
LINE
  8
0
 10
80.811
 11
81.395
 20
176.57
 21
176.42
  0
LINE
  8
0
 10
81.395
 11
84.013
 20
176.42
 21
176.613
  0
LINE
  8
0
 10
84.013
 11
87.099
 20
176.613
 21
176.451
  0
LINE
  8
0
 10
87.099
 11
90.141
 20
176.451
 21
175.903
  0
LINE
  8
0
 10
90.141
 11
90.774
 20
175.903
 21
175.705
  0
LINE
  8
0
 10
90.774
 11
93.54
 20
175.705
 21
175.763
  0
LINE
  8
0
 10
93.54
 11
96.613
 20
175.763
 21
175.44
  0
LINE
  8
0
 10
96.613
 11
99.621
 20
175.44
 21
174.734
  0
LINE
  8
0
 10
99.621
 11
100.304
 20
174.734
 21
174.48
  0
LINE
  8
0
 10
100.304
 11
103.206
 20
174.48
 21
174.39
  0
LINE
  8
0
 10
103.206
 11
106.258
 20
174.39
 21
173.907
  0
LINE
  8
0
 10
106.258
 11
109.226
 20
173.907
 21
173.044
  0
LINE
  8
0
 10
109.226
 11
109.952
 20
173.044
 21
172.73
  0
LINE
  8
0
 10
109.952
 11
112.984
 20
172.73
 21
172.476
  0
LINE
  8
0
 10
112.984
 11
116.006
 20
172.476
 21
171.834
  0
LINE
  8
0
 10
116.006
 11
118.925
 20
171.834
 21
170.817
  0
LINE
  8
0
 10
118.925
 11
119.711
 20
170.817
 21
170.427
  0
LINE
  8
0
 10
119.711
 11
119.78
 20
170.427
 21
170.426
  0
LINE
  8
0
 10
119.78
 11
122.842
 20
170.426
 21
170.007
  0
LINE
  8
0
 10
122.842
 11
125.827
 20
170.007
 21
169.207
  0
LINE
  8
0
 10
125.827
 11
128.688
 20
169.207
 21
168.039
  0
LINE
  8
0
 10
128.688
 11
129.543
 20
168.039
 21
167.558
  0
LINE
  8
0
 10
129.543
 11
129.712
 20
167.558
 21
167.547
  0
LINE
  8
0
 10
129.712
 11
132.748
 20
167.547
 21
166.969
  0
LINE
  8
0
 10
132.748
 11
135.687
 20
166.969
 21
166.014
  0
LINE
  8
0
 10
135.687
 11
138.483
 20
166.014
 21
164.697
  0
LINE
  8
0
 10
138.483
 11
139.397
 20
164.697
 21
164.118
  0
LINE
  8
0
 10
139.397
 11
139.669
 20
164.118
 21
164.086
  0
LINE
  8
0
 10
139.669
 11
142.67
 20
164.086
 21
163.349
  0
LINE
  8
0
 10
142.67
 11
145.555
 20
163.349
 21
162.242
  0
LINE
  8
0
 10
145.555
 11
148.278
 20
162.242
 21
160.781
  0
LINE
  8
0
 10
148.278
 11
149.244
 20
160.781
 21
160.095
  0
LINE
  8
0
 10
149.244
 11
149.615
 20
160.095
 21
160.032
  0
LINE
  8
0
 10
149.615
 11
152.573
 20
160.032
 21
159.139
  0
LINE
  8
0
 10
152.573
 11
155.396
 20
159.139
 21
157.882
  0
LINE
  8
0
 10
155.396
 11
158.039
 20
157.882
 21
156.281
  0
LINE
  8
0
 10
158.039
 11
159.048
 20
156.281
 21
155.481
  0
LINE
  8
0
 10
159.048
 11
159.515
 20
155.481
 21
155.377
  0
LINE
  8
0
 10
159.515
 11
162.423
 20
155.377
 21
154.331
  0
LINE
  8
0
 10
162.423
 11
165.176
 20
154.331
 21
152.928
  0
LINE
  8
0
 10
165.176
 11
167.732
 20
152.928
 21
151.19
  0
LINE
  8
0
 10
167.732
 11
168.775
 20
151.19
 21
150.271
  0
LINE
  8
0
 10
168.775
 11
169.333
 20
150.271
 21
150.115
  0
LINE
  8
0
 10
169.333
 11
172.182
 20
150.115
 21
148.918
  0
LINE
  8
0
 10
172.182
 11
174.858
 20
148.918
 21
147.373
  0
LINE
  8
0
 10
174.858
 11
177.319
 20
147.373
 21
145.504
  0
LINE
  8
0
 10
177.319
 11
179.527
 20
145.504
 21
143.343
  0
LINE
  8
0
 10
179.527
 11
181.446
 20
143.343
 21
140.921
  0
LINE
  8
0
 10
181.446
 11
183.048
 20
140.921
 21
138.278
  0
LINE
  8
0
 10
183.048
 11
184.304
 20
138.278
 21
135.454
  0
LINE
  8
0
 10
184.304
 11
185.197
 20
135.454
 21
132.497
  0
LINE
  8
0
 10
185.197
 11
185.713
 20
132.497
 21
129.45
  0
LINE
  8
0
 10
185.713
 11
185.842
 20
129.45
 21
126.362
  0
LINE
  8
0
 10
185.842
 11
185.583
 20
126.362
 21
123.283
  0
LINE
  8
0
 10
185.583
 11
184.941
 20
123.283
 21
120.261
  0
LINE
  8
0
 10
184.941
 11
183.925
 20
120.261
 21
117.343
  0
LINE
  8
0
 10
183.925
 11
182.551
 20
117.343
 21
114.575
  0
LINE
  8
0
 10
182.551
 11
180.841
 20
114.575
 21
112.001
  0
LINE
  8
0
 10
180.841
 11
178.822
 20
112.001
 21
109.662
  0
LINE
  8
0
 10
178.822
 11
176.525
 20
109.662
 21
107.594
  0
LINE
  8
0
 10
176.525
 11
173.988
 20
107.594
 21
105.83
  0
LINE
  8
0
 10
173.988
 11
171.25
 20
105.83
 21
104.399
  0
LINE
  8
0
 10
171.25
 11
168.353
 20
104.399
 21
103.322
  0
LINE
  8
0
 10
168.353
 11
165.345
 20
103.322
 21
102.616
  0
LINE
  8
0
 10
165.345
 11
162.272
 20
102.616
 21
102.293
  0
LINE
  8
0
 10
162.272
 11
159.182
 20
102.293
 21
102.358
  0
LINE
  8
0
 10
159.182
 11
156.125
 20
102.358
 21
102.809
  0
LINE
  8
0
 10
156.125
 11
153.149
 20
102.809
 21
103.641
  0
LINE
  8
0
 10
153.149
 11
150.3
 20
103.641
 21
104.837
  0
LINE
  8
0
 10
150.3
 11
147.624
 20
104.837
 21
106.382
  0
LINE
  8
0
 10
147.624
 11
145.163
 20
106.382
 21
108.252
  0
LINE
  8
0
 10
145.163
 11
145.016
 20
108.252
 21
108.396
  0
LINE
  8
0
 10
145.016
 11
142.878
 20
108.396
 21
109.165
  0
LINE
  8
0
 10
142.878
 11
140.124
 20
109.165
 21
110.568
  0
LINE
  8
0
 10
140.124
 11
137.569
 20
110.568
 21
112.306
  0
LINE
  8
0
 10
137.569
 11
137.469
 20
112.306
 21
112.394
  0
LINE
  8
0
 10
137.469
 11
135.419
 20
112.394
 21
113.013
  0
LINE
  8
0
 10
135.419
 11
132.596
 20
113.013
 21
114.269
  0
LINE
  8
0
 10
132.596
 11
129.953
 20
114.269
 21
115.871
  0
LINE
  8
0
 10
129.953
 11
129.904
 20
115.871
 21
115.91
  0
LINE
  8
0
 10
129.904
 11
127.953
 20
115.91
 21
116.388
  0
LINE
  8
0
 10
127.953
 11
125.069
 20
116.388
 21
117.495
  0
LINE
  8
0
 10
125.069
 11
122.357
 20
117.495
 21
118.95
  0
LINE
  8
0
 10
122.357
 11
120.509
 20
118.95
 21
119.302
  0
LINE
  8
0
 10
120.509
 11
117.571
 20
119.302
 21
120.256
  0
LINE
  8
0
 10
117.571
 11
114.881
 20
120.256
 21
121.523
  0
LINE
  8
0
 10
114.881
 11
113.114
 20
121.523
 21
121.765
  0
LINE
  8
0
 10
113.114
 11
110.13
 20
121.765
 21
122.565
  0
LINE
  8
0
 10
110.13
 11
107.471
 20
122.565
 21
123.651
  0
LINE
  8
0
 10
107.471
 11
105.795
 20
123.651
 21
123.791
  0
LINE
  8
0
 10
105.795
 11
102.772
 20
123.791
 21
124.434
  0
LINE
  8
0
 10
102.772
 11
100.156
 20
124.434
 21
125.346
  0
LINE
  8
0
 10
100.156
 11
98.575
 20
125.346
 21
125.395
  0
LINE
  8
0
 10
98.575
 11
95.523
 20
125.395
 21
125.879
  0
LINE
  8
0
 10
95.523
 11
92.959
 20
125.879
 21
126.625
  0
LINE
  8
0
 10
92.959
 11
91.479
 20
126.625
 21
126.593
  0
LINE
  8
0
 10
91.479
 11
88.406
 20
126.593
 21
126.916
  0
LINE
  8
0
 10
88.406
 11
85.903
 20
126.916
 21
127.504
  0
LINE
  8
0
 10
85.903
 11
84.529
 20
127.504
 21
127.403
  0
LINE
  8
0
 10
84.529
 11
81.443
 20
127.403
 21
127.564
  0
LINE
  8
0
 10
81.443
 11
79.011
 20
127.564
 21
128.002
  0
LINE
  8
0
 10
79.011
 11
77.745
 20
128.002
 21
127.842
  0
LINE
  8
0
 10
77.745
 11
74.655
 20
127.842
 21
127.842
  0
LINE
  8
0
 10
74.655
 11
72.304
 20
127.842
 21
128.139
  0
LINE
  8
0
 10
72.304
 11
71.147
 20
128.139
 21
127.931
  0
LINE
  8
0
 10
71.147
 11
68.061
 20
127.931
 21
127.769
  0
LINE
  8
0
 10
68.061
 11
65.799
 20
127.769
 21
127.936
  0
LINE
  8
0
 10
65.799
 11
64.752
 20
127.936
 21
127.69
  0
LINE
  8
0
 10
64.752
 11
61.679
 20
127.69
 21
127.367
  0
LINE
  8
0
 10
61.679
 11
59.511
 20
127.367
 21
127.413
  0
LINE
  8
0
 10
59.511
 11
58.577
 20
127.413
 21
127.141
  0
LINE
  8
0
 10
58.577
 11
55.525
 20
127.141
 21
126.657
  0
LINE
  8
0
 10
55.525
 11
53.461
 20
126.657
 21
126.593
  0
LINE
  8
0
 10
53.461
 11
52.635
 20
126.593
 21
126.305
  0
LINE
  8
0
 10
52.635
 11
49.612
 20
126.305
 21
125.663
  0
LINE
  8
0
 10
49.612
 11
47.653
 20
125.663
 21
125.499
  0
LINE
  8
0
 10
47.653
 11
46.938
 20
125.499
 21
125.207
  0
LINE
  8
0
 10
46.938
 11
43.954
 20
125.207
 21
124.407
  0
LINE
  8
0
 10
43.954
 11
42.107
 20
124.407
 21
124.154
  0
LINE
  8
0
 10
42.107
 11
41.499
 20
124.154
 21
123.868
  0
LINE
  8
0
 10
41.499
 11
38.56
 20
123.868
 21
122.913
  0
LINE
  8
0
 10
38.56
 11
36.825
 20
122.913
 21
122.583
  0
LINE
  8
0
 10
36.825
 11
36.324
 20
122.583
 21
122.314
  0
LINE
  8
0
 10
36.324
 11
33.44
 20
122.314
 21
121.206
  0
LINE
  8
0
 10
33.44
 11
31.826
 20
121.206
 21
120.81
  0
LINE
  8
0
 10
31.826
 11
31.423
 20
120.81
 21
120.566
  0
LINE
  8
0
 10
31.423
 11
28.6
 20
120.566
 21
119.31
  0
LINE
  8
0
 10
28.6
 11
27.106
 20
119.31
 21
118.859
  0
LINE
  8
0
 10
27.106
 11
26.8
 20
118.859
 21
118.651
  0
LINE
  8
0
 10
26.8
 11
24.046
 20
118.651
 21
117.248
  0
LINE
  8
0
 10
24.046
 11
22.673
 20
117.248
 21
116.754
  0
LINE
  8
0
 10
22.673
 11
22.458
 20
116.754
 21
116.591
  0
LINE
  8
0
 10
22.458
 11
19.782
 20
116.591
 21
115.046
  0
LINE
  8
0
 10
19.782
 11
16.933
 20
115.046
 21
113.849
  0
LINE
  8
0
 10
16.933
 11
13.957
 20
113.849
 21
113.018
  0
LINE
  8
0
 10
13.957
 11
10.9
 20
113.018
 21
112.567
  0
LINE
  8
0
 10
10.9
 11
7.811
 20
112.567
 21
112.502
  0
LINE
  8
0
 10
7.811
 11
4.737
 20
112.502
 21
112.825
  0
LINE
  8
0
 10
4.737
 11
1.729
 20
112.825
 21
113.531
  0
LINE
  8
0
 10
1.729
 11
-1.167
 20
113.531
 21
114.608
  0
LINE
  8
0
 10
-1.167
 11
-3.906
 20
114.608
 21
116.039
  0
LINE
  8
0
 10
-3.906
 11
-6.443
 20
116.039
 21
117.803
  0
LINE
  8
0
 10
-6.443
 11
-8.739
 20
117.803
 21
119.871
  0
LINE
  8
0
 10
-8.739
 11
-10.758
 20
119.871
 21
122.21
  0
LINE
  8
0
 10
-10.758
 11
-12.468
 20
122.21
 21
124.784
  0
LINE
  8
0
 10
-12.468
 11
-13.842
 20
124.784
 21
127.552
  0
LINE
  8
0
 10
-13.842
 11
-14.858
 20
127.552
 21
130.469
  0
LINE
  8
0
 10
-14.858
 11
-15.501
 20
130.469
 21
133.492
  0
LINE
  8
0
 10
-15.501
 11
-15.76
 20
133.492
 21
136.571
  0
LINE
  8
0
 10
-3.175
 11
-3.02
 20
0
 21
0.981
  0
LINE
  8
0
 10
-3.02
 11
-2.569
 20
0.981
 21
1.866
  0
LINE
  8
0
 10
-2.569
 11
-1.866
 20
1.866
 21
2.569
  0
LINE
  8
0
 10
-1.866
 11
-0.981
 20
2.569
 21
3.02
  0
LINE
  8
0
 10
-0.981
 11
0
 20
3.02
 21
3.175
  0
LINE
  8
0
 10
0
 11
0.981
 20
3.175
 21
3.02
  0
LINE
  8
0
 10
0.981
 11
1.866
 20
3.02
 21
2.569
  0
LINE
  8
0
 10
1.866
 11
2.569
 20
2.569
 21
1.866
  0
LINE
  8
0
 10
2.569
 11
3.02
 20
1.866
 21
0.981
  0
LINE
  8
0
 10
3.02
 11
3.175
 20
0.981
 21
0
  0
LINE
  8
0
 10
3.175
 11
3.02
 20
0
 21
-0.981
  0
LINE
  8
0
 10
3.02
 11
2.569
 20
-0.981
 21
-1.866
  0
LINE
  8
0
 10
2.569
 11
1.866
 20
-1.866
 21
-2.569
  0
LINE
  8
0
 10
1.866
 11
0.981
 20
-2.569
 21
-3.02
  0
LINE
  8
0
 10
0.981
 11
0
 20
-3.02
 21
-3.175
  0
LINE
  8
0
 10
0
 11
-0.981
 20
-3.175
 21
-3.02
  0
LINE
  8
0
 10
-0.981
 11
-1.866
 20
-3.02
 21
-2.569
  0
LINE
  8
0
 10
-1.866
 11
-2.569
 20
-2.569
 21
-1.866
  0
LINE
  8
0
 10
-2.569
 11
-3.02
 20
-1.866
 21
-0.981
  0
LINE
  8
0
 10
-3.02
 11
-3.175
 20
-0.981
 21
0
  0
LINE
  8
0
 10
22.34
 11
22.599
 20
-70.58
 21
-67.501
  0
LINE
  8
0
 10
22.599
 11
23.242
 20
-67.501
 21
-64.478
  0
LINE
  8
0
 10
23.242
 11
24.258
 20
-64.478
 21
-61.56
  0
LINE
  8
0
 10
24.258
 11
25.632
 20
-61.56
 21
-58.793
  0
LINE
  8
0
 10
25.632
 11
27.342
 20
-58.793
 21
-56.219
  0
LINE
  8
0
 10
27.342
 11
29.361
 20
-56.219
 21
-53.88
  0
LINE
  8
0
 10
29.361
 11
31.657
 20
-53.88
 21
-51.812
  0
LINE
  8
0
 10
31.657
 11
34.194
 20
-51.812
 21
-50.048
  0
LINE
  8
0
 10
34.194
 11
36.933
 20
-50.048
 21
-48.617
  0
LINE
  8
0
 10
36.933
 11
39.829
 20
-48.617
 21
-47.54
  0
LINE
  8
0
 10
39.829
 11
42.837
 20
-47.54
 21
-46.834
  0
LINE
  8
0
 10
42.837
 11
45.911
 20
-46.834
 21
-46.511
  0
LINE
  8
0
 10
45.911
 11
49
 20
-46.511
 21
-46.576
  0
LINE
  8
0
 10
49
 11
52.057
 20
-46.576
 21
-47.027
  0
LINE
  8
0
 10
52.057
 11
55.033
 20
-47.027
 21
-47.858
  0
LINE
  8
0
 10
55.033
 11
57.882
 20
-47.858
 21
-49.055
  0
LINE
  8
0
 10
57.882
 11
57.998
 20
-49.055
 21
-49.122
  0
LINE
  8
0
 10
57.998
 11
58.64
 20
-49.122
 21
-49.353
  0
LINE
  8
0
 10
58.64
 11
58.912
 20
-49.353
 21
-49.492
  0
LINE
  8
0
 10
58.912
 11
59.593
 20
-49.492
 21
-49.697
  0
LINE
  8
0
 10
59.593
 11
60.028
 20
-49.697
 21
-49.891
  0
LINE
  8
0
 10
60.028
 11
60.747
 20
-49.891
 21
-50.067
  0
LINE
  8
0
 10
60.747
 11
61.352
 20
-50.067
 21
-50.299
  0
LINE
  8
0
 10
61.352
 11
62.107
 20
-50.299
 21
-50.443
  0
LINE
  8
0
 10
62.107
 11
62.885
 20
-50.443
 21
-50.696
  0
LINE
  8
0
 10
62.885
 11
63.676
 20
-50.696
 21
-50.804
  0
LINE
  8
0
 10
63.676
 11
64.627
 20
-50.804
 21
-51.059
  0
LINE
  8
0
 10
64.627
 11
65.455
 20
-51.059
 21
-51.128
  0
LINE
  8
0
 10
65.455
 11
66.589
 20
-51.128
 21
-51.369
  0
LINE
  8
0
 10
66.589
 11
67.445
 20
-51.369
 21
-51.396
  0
LINE
  8
0
 10
67.445
 11
68.753
 20
-51.396
 21
-51.603
  0
LINE
  8
0
 10
68.753
 11
69.644
 20
-51.603
 21
-51.584
  0
LINE
  8
0
 10
69.644
 11
71.139
 20
-51.584
 21
-51.741
  0
LINE
  8
0
 10
71.139
 11
72.049
 20
-51.741
 21
-51.674
  0
LINE
  8
0
 10
72.049
 11
73.715
 20
-51.674
 21
-51.761
  0
LINE
  8
0
 10
73.715
 11
74.655
 20
-51.761
 21
-51.642
  0
LINE
  8
0
 10
74.655
 11
76.495
 20
-51.642
 21
-51.642
  0
LINE
  8
0
 10
76.495
 11
77.455
 20
-51.642
 21
-51.469
  0
LINE
  8
0
 10
77.455
 11
79.462
 20
-51.469
 21
-51.364
  0
LINE
  8
0
 10
79.462
 11
80.441
 20
-51.364
 21
-51.134
  0
LINE
  8
0
 10
80.441
 11
82.608
 20
-51.134
 21
-50.906
  0
LINE
  8
0
 10
82.608
 11
83.603
 20
-50.906
 21
-50.617
  0
LINE
  8
0
 10
83.603
 11
85.926
 20
-50.617
 21
-50.248
  0
LINE
  8
0
 10
85.926
 11
86.929
 20
-50.248
 21
-49.899
  0
LINE
  8
0
 10
86.929
 11
89.395
 20
-49.899
 21
-49.374
  0
LINE
  8
0
 10
89.395
 11
90.408
 20
-49.374
 21
-48.961
  0
LINE
  8
0
 10
90.408
 11
93.008
 20
-48.961
 21
-48.264
  0
LINE
  8
0
 10
93.008
 11
94.024
 20
-48.264
 21
-47.786
  0
LINE
  8
0
 10
94.024
 11
96.748
 20
-47.786
 21
-46.901
  0
LINE
  8
0
 10
96.748
 11
97.761
 20
-46.901
 21
-46.357
  0
LINE
  8
0
 10
97.761
 11
100.592
 20
-46.357
 21
-45.27
  0
LINE
  8
0
 10
100.592
 11
101.603
 20
-45.27
 21
-44.657
  0
LINE
  8
0
 10
101.603
 11
104.426
 20
-44.657
 21
-43.4
  0
LINE
  8
0
 10
104.426
 11
104.489
 20
-43.4
 21
-43.381
  0
LINE
  8
0
 10
104.489
 11
105.53
 20
-43.381
 21
-42.673
  0
LINE
  8
0
 10
105.53
 11
108.284
 20
-42.673
 21
-41.27
  0
LINE
  8
0
 10
108.284
 11
108.441
 20
-41.27
 21
-41.214
  0
LINE
  8
0
 10
108.441
 11
109.524
 20
-41.214
 21
-40.391
  0
LINE
  8
0
 10
109.524
 11
112.2
 20
-40.391
 21
-38.846
  0
LINE
  8
0
 10
112.2
 11
115.049
 20
-38.846
 21
-37.649
  0
LINE
  8
0
 10
115.049
 11
118.025
 20
-37.649
 21
-36.818
  0
LINE
  8
0
 10
118.025
 11
121.082
 20
-36.818
 21
-36.367
  0
LINE
  8
0
 10
121.082
 11
124.172
 20
-36.367
 21
-36.302
  0
LINE
  8
0
 10
124.172
 11
127.245
 20
-36.302
 21
-36.625
  0
LINE
  8
0
 10
127.245
 11
130.253
 20
-36.625
 21
-37.331
  0
LINE
  8
0
 10
130.253
 11
133.15
 20
-37.331
 21
-38.408
  0
LINE
  8
0
 10
133.15
 11
135.888
 20
-38.408
 21
-39.839
  0
LINE
  8
0
 10
135.888
 11
138.425
 20
-39.839
 21
-41.603
  0
LINE
  8
0
 10
138.425
 11
140.722
 20
-41.603
 21
-43.671
  0
LINE
  8
0
 10
140.722
 11
142.741
 20
-43.671
 21
-46.01
  0
LINE
  8
0
 10
142.741
 11
144.451
 20
-46.01
 21
-48.584
  0
LINE
  8
0
 10
144.451
 11
145.825
 20
-48.584
 21
-51.352
  0
LINE
  8
0
 10
145.825
 11
146.841
 20
-51.352
 21
-54.269
  0
LINE
  8
0
 10
146.841
 11
147.483
 20
-54.269
 21
-57.292
  0
LINE
  8
0
 10
147.483
 11
147.742
 20
-57.292
 21
-60.371
  0
LINE
  8
0
 10
147.742
 11
147.613
 20
-60.371
 21
-63.459
  0
LINE
  8
0
 10
147.613
 11
147.097
 20
-63.459
 21
-66.506
  0
LINE
  8
0
 10
147.097
 11
146.204
 20
-66.506
 21
-69.463
  0
LINE
  8
0
 10
146.204
 11
144.948
 20
-69.463
 21
-72.287
  0
LINE
  8
0
 10
144.948
 11
143.346
 20
-72.287
 21
-74.929
  0
LINE
  8
0
 10
143.346
 11
141.427
 20
-74.929
 21
-77.351
  0
LINE
  8
0
 10
141.427
 11
139.219
 20
-77.351
 21
-79.513
  0
LINE
  8
0
 10
139.219
 11
136.758
 20
-79.513
 21
-81.382
  0
LINE
  8
0
 10
136.758
 11
134.082
 20
-81.382
 21
-82.927
  0
LINE
  8
0
 10
134.082
 11
133.029
 20
-82.927
 21
-83.369
  0
LINE
  8
0
 10
133.029
 11
130.582
 20
-83.369
 21
-85.033
  0
LINE
  8
0
 10
130.582
 11
127.829
 20
-85.033
 21
-86.436
  0
LINE
  8
0
 10
127.829
 11
126.848
 20
-86.436
 21
-86.789
  0
LINE
  8
0
 10
126.848
 11
124.403
 20
-86.789
 21
-88.27
  0
LINE
  8
0
 10
124.403
 11
121.58
 20
-88.27
 21
-89.527
  0
LINE
  8
0
 10
121.58
 11
120.678
 20
-89.527
 21
-89.799
  0
LINE
  8
0
 10
120.678
 11
118.247
 20
-89.799
 21
-91.103
  0
LINE
  8
0
 10
118.247
 11
115.363
 20
-91.103
 21
-92.21
  0
LINE
  8
0
 10
115.363
 11
114.546
 20
-92.21
 21
-92.411
  0
LINE
  8
0
 10
114.546
 11
112.14
 20
-92.411
 21
-93.543
  0
LINE
  8
0
 10
112.14
 11
109.201
 20
-93.543
 21
-94.498
  0
LINE
  8
0
 10
109.201
 11
108.472
 20
-94.498
 21
-94.637
  0
LINE
  8
0
 10
108.472
 11
106.104
 20
-94.637
 21
-95.604
  0
LINE
  8
0
 10
106.104
 11
103.12
 20
-95.604
 21
-96.404
  0
LINE
  8
0
 10
103.12
 11
102.482
 20
-96.404
 21
-96.491
  0
LINE
  8
0
 10
102.482
 11
100.163
 20
-96.491
 21
-97.299
  0
LINE
  8
0
 10
100.163
 11
97.141
 20
-97.299
 21
-97.942
  0
LINE
  8
0
 10
97.141
 11
96.6
 20
-97.942
 21
-97.987
  0
LINE
  8
0
 10
96.6
 11
94.338
 20
-97.987
 21
-98.645
  0
LINE
  8
0
 10
94.338
 11
91.286
 20
-98.645
 21
-99.128
  0
LINE
  8
0
 10
91.286
 11
90.844
 20
-99.128
 21
-99.142
  0
LINE
  8
0
 10
90.844
 11
88.648
 20
-99.142
 21
-99.658
  0
LINE
  8
0
 10
88.648
 11
85.575
 20
-99.658
 21
-99.981
  0
LINE
  8
0
 10
85.575
 11
85.233
 20
-99.981
 21
-99.974
  0
LINE
  8
0
 10
85.233
 11
83.111
 20
-99.974
 21
-100.356
  0
LINE
  8
0
 10
83.111
 11
80.025
 20
-100.356
 21
-100.518
  0
LINE
  8
0
 10
80.025
 11
79.783
 20
-100.518
 21
-100.5
  0
LINE
  8
0
 10
79.783
 11
77.745
 20
-100.5
 21
-100.758
  0
LINE
  8
0
 10
77.745
 11
74.655
 20
-100.758
 21
-100.758
  0
LINE
  8
0
 10
74.655
 11
74.515
 20
-100.758
 21
-100.74
  0
LINE
  8
0
 10
74.515
 11
72.565
 20
-100.74
 21
-100.884
  0
LINE
  8
0
 10
72.565
 11
69.479
 20
-100.884
 21
-100.722
  0
LINE
  8
0
 10
69.479
 11
69.44
 20
-100.722
 21
-100.715
  0
LINE
  8
0
 10
69.44
 11
67.584
 20
-100.715
 21
-100.754
  0
LINE
  8
0
 10
67.584
 11
64.676
 20
-100.754
 21
-100.448
  0
LINE
  8
0
 10
64.676
 11
62.814
 20
-100.448
 21
-100.39
  0
LINE
  8
0
 10
62.814
 11
60.182
 20
-100.39
 21
-99.974
  0
LINE
  8
0
 10
60.182
 11
58.266
 20
-99.974
 21
-99.813
  0
LINE
  8
0
 10
58.266
 11
55.934
 20
-99.813
 21
-99.318
  0
LINE
  8
0
 10
55.934
 11
53.948
 20
-99.318
 21
-99.046
  0
LINE
  8
0
 10
53.948
 11
51.899
 20
-99.046
 21
-98.497
  0
LINE
  8
0
 10
51.899
 11
49.868
 20
-98.497
 21
-98.11
  0
LINE
  8
0
 10
49.868
 11
48.109
 20
-98.11
 21
-97.538
  0
LINE
  8
0
 10
48.109
 11
46.03
 20
-97.538
 21
-97.028
  0
LINE
  8
0
 10
46.03
 11
44.556
 20
-97.028
 21
-96.462
  0
LINE
  8
0
 10
44.556
 11
42.439
 20
-96.462
 21
-95.824
  0
LINE
  8
0
 10
42.439
 11
41.245
 20
-95.824
 21
-95.292
  0
LINE
  8
0
 10
41.245
 11
39.095
 20
-95.292
 21
-94.519
  0
LINE
  8
0
 10
39.095
 11
38.171
 20
-94.519
 21
-94.048
  0
LINE
  8
0
 10
38.171
 11
36
 20
-94.048
 21
-93.136
  0
LINE
  8
0
 10
36
 11
33.324
 20
-93.136
 21
-91.591
  0
LINE
  8
0
 10
33.324
 11
30.863
 20
-91.591
 21
-89.722
  0
LINE
  8
0
 10
30.863
 11
28.655
 20
-89.722
 21
-87.56
  0
LINE
  8
0
 10
28.655
 11
26.736
 20
-87.56
 21
-85.138
  0
LINE
  8
0
 10
26.736
 11
25.135
 20
-85.138
 21
-82.496
  0
LINE
  8
0
 10
25.135
 11
23.878
 20
-82.496
 21
-79.672
  0
LINE
  8
0
 10
23.878
 11
22.985
 20
-79.672
 21
-76.714
  0
LINE
  8
0
 10
22.985
 11
22.47
 20
-76.714
 21
-73.667
  0
LINE
  8
0
 10
22.47
 11
22.34
 20
-73.667
 21
-70.58
  0
LINE
  8
0
 10
22.34
 11
22.47
 20
70.58
 21
73.667
  0
LINE
  8
0
 10
22.47
 11
22.985
 20
73.667
 21
76.714
  0
LINE
  8
0
 10
22.985
 11
23.878
 20
76.714
 21
79.672
  0
LINE
  8
0
 10
23.878
 11
25.135
 20
79.672
 21
82.496
  0
LINE
  8
0
 10
25.135
 11
26.736
 20
82.496
 21
85.138
  0
LINE
  8
0
 10
26.736
 11
28.655
 20
85.138
 21
87.56
  0
LINE
  8
0
 10
28.655
 11
30.863
 20
87.56
 21
89.722
  0
LINE
  8
0
 10
30.863
 11
33.324
 20
89.722
 21
91.591
  0
LINE
  8
0
 10
33.324
 11
36
 20
91.591
 21
93.136
  0
LINE
  8
0
 10
36
 11
38.171
 20
93.136
 21
94.048
  0
LINE
  8
0
 10
38.171
 11
39.095
 20
94.048
 21
94.519
  0
LINE
  8
0
 10
39.095
 11
41.245
 20
94.519
 21
95.292
  0
LINE
  8
0
 10
41.245
 11
42.439
 20
95.292
 21
95.824
  0
LINE
  8
0
 10
42.439
 11
44.556
 20
95.824
 21
96.462
  0
LINE
  8
0
 10
44.556
 11
46.03
 20
96.462
 21
97.028
  0
LINE
  8
0
 10
46.03
 11
48.109
 20
97.028
 21
97.538
  0
LINE
  8
0
 10
48.109
 11
49.868
 20
97.538
 21
98.11
  0
LINE
  8
0
 10
49.868
 11
51.899
 20
98.11
 21
98.497
  0
LINE
  8
0
 10
51.899
 11
53.948
 20
98.497
 21
99.046
  0
LINE
  8
0
 10
53.948
 11
55.934
 20
99.046
 21
99.318
  0
LINE
  8
0
 10
55.934
 11
58.266
 20
99.318
 21
99.813
  0
LINE
  8
0
 10
58.266
 11
60.182
 20
99.813
 21
99.974
  0
LINE
  8
0
 10
60.182
 11
62.814
 20
99.974
 21
100.39
  0
LINE
  8
0
 10
62.814
 11
64.676
 20
100.39
 21
100.448
  0
LINE
  8
0
 10
64.676
 11
67.584
 20
100.448
 21
100.754
  0
LINE
  8
0
 10
67.584
 11
69.44
 20
100.754
 21
100.715
  0
LINE
  8
0
 10
69.44
 11
69.479
 20
100.715
 21
100.722
  0
LINE
  8
0
 10
69.479
 11
72.565
 20
100.722
 21
100.884
  0
LINE
  8
0
 10
72.565
 11
74.515
 20
100.884
 21
100.74
  0
LINE
  8
0
 10
74.515
 11
74.655
 20
100.74
 21
100.758
  0
LINE
  8
0
 10
74.655
 11
77.745
 20
100.758
 21
100.758
  0
LINE
  8
0
 10
77.745
 11
79.783
 20
100.758
 21
100.5
  0
LINE
  8
0
 10
79.783
 11
80.025
 20
100.5
 21
100.518
  0
LINE
  8
0
 10
80.025
 11
83.111
 20
100.518
 21
100.356
  0
LINE
  8
0
 10
83.111
 11
85.233
 20
100.356
 21
99.974
  0
LINE
  8
0
 10
85.233
 11
85.575
 20
99.974
 21
99.981
  0
LINE
  8
0
 10
85.575
 11
88.648
 20
99.981
 21
99.658
  0
LINE
  8
0
 10
88.648
 11
90.844
 20
99.658
 21
99.142
  0
LINE
  8
0
 10
90.844
 11
91.286
 20
99.142
 21
99.128
  0
LINE
  8
0
 10
91.286
 11
94.338
 20
99.128
 21
98.645
  0
LINE
  8
0
 10
94.338
 11
96.6
 20
98.645
 21
97.987
  0
LINE
  8
0
 10
96.6
 11
97.141
 20
97.987
 21
97.942
  0
LINE
  8
0
 10
97.141
 11
100.163
 20
97.942
 21
97.299
  0
LINE
  8
0
 10
100.163
 11
102.482
 20
97.299
 21
96.491
  0
LINE
  8
0
 10
102.482
 11
103.12
 20
96.491
 21
96.404
  0
LINE
  8
0
 10
103.12
 11
106.104
 20
96.404
 21
95.604
  0
LINE
  8
0
 10
106.104
 11
108.472
 20
95.604
 21
94.637
  0
LINE
  8
0
 10
108.472
 11
109.201
 20
94.637
 21
94.498
  0
LINE
  8
0
 10
109.201
 11
112.14
 20
94.498
 21
93.543
  0
LINE
  8
0
 10
112.14
 11
114.546
 20
93.543
 21
92.411
  0
LINE
  8
0
 10
114.546
 11
115.363
 20
92.411
 21
92.21
  0
LINE
  8
0
 10
115.363
 11
118.247
 20
92.21
 21
91.103
  0
LINE
  8
0
 10
118.247
 11
120.678
 20
91.103
 21
89.799
  0
LINE
  8
0
 10
120.678
 11
121.58
 20
89.799
 21
89.527
  0
LINE
  8
0
 10
121.58
 11
124.403
 20
89.527
 21
88.27
  0
LINE
  8
0
 10
124.403
 11
126.848
 20
88.27
 21
86.789
  0
LINE
  8
0
 10
126.848
 11
127.829
 20
86.789
 21
86.436
  0
LINE
  8
0
 10
127.829
 11
130.582
 20
86.436
 21
85.033
  0
LINE
  8
0
 10
130.582
 11
133.029
 20
85.033
 21
83.369
  0
LINE
  8
0
 10
133.029
 11
134.082
 20
83.369
 21
82.927
  0
LINE
  8
0
 10
134.082
 11
136.758
 20
82.927
 21
81.382
  0
LINE
  8
0
 10
136.758
 11
139.219
 20
81.382
 21
79.513
  0
LINE
  8
0
 10
139.219
 11
141.427
 20
79.513
 21
77.351
  0
LINE
  8
0
 10
141.427
 11
143.346
 20
77.351
 21
74.929
  0
LINE
  8
0
 10
143.346
 11
144.948
 20
74.929
 21
72.287
  0
LINE
  8
0
 10
144.948
 11
146.204
 20
72.287
 21
69.463
  0
LINE
  8
0
 10
146.204
 11
147.097
 20
69.463
 21
66.506
  0
LINE
  8
0
 10
147.097
 11
147.613
 20
66.506
 21
63.459
  0
LINE
  8
0
 10
147.613
 11
147.742
 20
63.459
 21
60.371
  0
LINE
  8
0
 10
147.742
 11
147.483
 20
60.371
 21
57.292
  0
LINE
  8
0
 10
147.483
 11
146.841
 20
57.292
 21
54.269
  0
LINE
  8
0
 10
146.841
 11
145.825
 20
54.269
 21
51.352
  0
LINE
  8
0
 10
145.825
 11
144.451
 20
51.352
 21
48.584
  0
LINE
  8
0
 10
144.451
 11
142.741
 20
48.584
 21
46.01
  0
LINE
  8
0
 10
142.741
 11
140.722
 20
46.01
 21
43.671
  0
LINE
  8
0
 10
140.722
 11
138.425
 20
43.671
 21
41.603
  0
LINE
  8
0
 10
138.425
 11
135.888
 20
41.603
 21
39.839
  0
LINE
  8
0
 10
135.888
 11
133.15
 20
39.839
 21
38.408
  0
LINE
  8
0
 10
133.15
 11
130.253
 20
38.408
 21
37.331
  0
LINE
  8
0
 10
130.253
 11
127.245
 20
37.331
 21
36.625
  0
LINE
  8
0
 10
127.245
 11
124.172
 20
36.625
 21
36.302
  0
LINE
  8
0
 10
124.172
 11
121.082
 20
36.302
 21
36.367
  0
LINE
  8
0
 10
121.082
 11
118.025
 20
36.367
 21
36.818
  0
LINE
  8
0
 10
118.025
 11
115.049
 20
36.818
 21
37.649
  0
LINE
  8
0
 10
115.049
 11
112.2
 20
37.649
 21
38.846
  0
LINE
  8
0
 10
112.2
 11
109.524
 20
38.846
 21
40.391
  0
LINE
  8
0
 10
109.524
 11
108.441
 20
40.391
 21
41.214
  0
LINE
  8
0
 10
108.441
 11
108.284
 20
41.214
 21
41.27
  0
LINE
  8
0
 10
108.284
 11
105.53
 20
41.27
 21
42.673
  0
LINE
  8
0
 10
105.53
 11
104.489
 20
42.673
 21
43.381
  0
LINE
  8
0
 10
104.489
 11
104.426
 20
43.381
 21
43.4
  0
LINE
  8
0
 10
104.426
 11
101.603
 20
43.4
 21
44.657
  0
LINE
  8
0
 10
101.603
 11
100.592
 20
44.657
 21
45.27
  0
LINE
  8
0
 10
100.592
 11
97.761
 20
45.27
 21
46.357
  0
LINE
  8
0
 10
97.761
 11
96.748
 20
46.357
 21
46.901
  0
LINE
  8
0
 10
96.748
 11
94.024
 20
46.901
 21
47.786
  0
LINE
  8
0
 10
94.024
 11
93.008
 20
47.786
 21
48.264
  0
LINE
  8
0
 10
93.008
 11
90.408
 20
48.264
 21
48.961
  0
LINE
  8
0
 10
90.408
 11
89.395
 20
48.961
 21
49.374
  0
LINE
  8
0
 10
89.395
 11
86.929
 20
49.374
 21
49.899
  0
LINE
  8
0
 10
86.929
 11
85.926
 20
49.899
 21
50.248
  0
LINE
  8
0
 10
85.926
 11
83.603
 20
50.248
 21
50.617
  0
LINE
  8
0
 10
83.603
 11
82.608
 20
50.617
 21
50.906
  0
LINE
  8
0
 10
82.608
 11
80.441
 20
50.906
 21
51.134
  0
LINE
  8
0
 10
80.441
 11
79.462
 20
51.134
 21
51.364
  0
LINE
  8
0
 10
79.462
 11
77.455
 20
51.364
 21
51.469
  0
LINE
  8
0
 10
77.455
 11
76.495
 20
51.469
 21
51.642
  0
LINE
  8
0
 10
76.495
 11
74.655
 20
51.642
 21
51.642
  0
LINE
  8
0
 10
74.655
 11
73.715
 20
51.642
 21
51.761
  0
LINE
  8
0
 10
73.715
 11
72.049
 20
51.761
 21
51.674
  0
LINE
  8
0
 10
72.049
 11
71.139
 20
51.674
 21
51.741
  0
LINE
  8
0
 10
71.139
 11
69.644
 20
51.741
 21
51.584
  0
LINE
  8
0
 10
69.644
 11
68.753
 20
51.584
 21
51.603
  0
LINE
  8
0
 10
68.753
 11
67.445
 20
51.603
 21
51.396
  0
LINE
  8
0
 10
67.445
 11
66.589
 20
51.396
 21
51.369
  0
LINE
  8
0
 10
66.589
 11
65.455
 20
51.369
 21
51.128
  0
LINE
  8
0
 10
65.455
 11
64.627
 20
51.128
 21
51.059
  0
LINE
  8
0
 10
64.627
 11
63.676
 20
51.059
 21
50.804
  0
LINE
  8
0
 10
63.676
 11
62.885
 20
50.804
 21
50.696
  0
LINE
  8
0
 10
62.885
 11
62.107
 20
50.696
 21
50.443
  0
LINE
  8
0
 10
62.107
 11
61.352
 20
50.443
 21
50.299
  0
LINE
  8
0
 10
61.352
 11
60.747
 20
50.299
 21
50.067
  0
LINE
  8
0
 10
60.747
 11
60.028
 20
50.067
 21
49.891
  0
LINE
  8
0
 10
60.028
 11
59.593
 20
49.891
 21
49.697
  0
LINE
  8
0
 10
59.593
 11
58.912
 20
49.697
 21
49.492
  0
LINE
  8
0
 10
58.912
 11
58.64
 20
49.492
 21
49.353
  0
LINE
  8
0
 10
58.64
 11
57.998
 20
49.353
 21
49.122
  0
LINE
  8
0
 10
57.998
 11
57.882
 20
49.122
 21
49.055
  0
LINE
  8
0
 10
57.882
 11
55.033
 20
49.055
 21
47.858
  0
LINE
  8
0
 10
55.033
 11
52.057
 20
47.858
 21
47.027
  0
LINE
  8
0
 10
52.057
 11
49
 20
47.027
 21
46.576
  0
LINE
  8
0
 10
49
 11
45.911
 20
46.576
 21
46.511
  0
LINE
  8
0
 10
45.911
 11
42.837
 20
46.511
 21
46.834
  0
LINE
  8
0
 10
42.837
 11
39.829
 20
46.834
 21
47.54
  0
LINE
  8
0
 10
39.829
 11
36.933
 20
47.54
 21
48.617
  0
LINE
  8
0
 10
36.933
 11
34.194
 20
48.617
 21
50.048
  0
LINE
  8
0
 10
34.194
 11
31.657
 20
50.048
 21
51.812
  0
LINE
  8
0
 10
31.657
 11
29.361
 20
51.812
 21
53.88
  0
LINE
  8
0
 10
29.361
 11
27.342
 20
53.88
 21
56.219
  0
LINE
  8
0
 10
27.342
 11
25.632
 20
56.219
 21
58.793
  0
LINE
  8
0
 10
25.632
 11
24.258
 20
58.793
 21
61.56
  0
LINE
  8
0
 10
24.258
 11
23.242
 20
61.56
 21
64.478
  0
LINE
  8
0
 10
23.242
 11
22.599
 20
64.478
 21
67.501
  0
LINE
  8
0
 10
22.599
 11
22.34
 20
67.501
 21
70.58
  0
LINE
  8
0
 10
51.594
 11
51.788
 20
0
 21
3.084
  0
LINE
  8
0
 10
51.788
 11
52.367
 20
3.084
 21
6.119
  0
LINE
  8
0
 10
52.367
 11
52.907
 20
6.119
 21
7.78
  0
LINE
  8
0
 10
52.907
 11
52.974
 20
7.78
 21
8.031
  0
LINE
  8
0
 10
52.974
 11
53.044
 20
8.031
 21
8.203
  0
LINE
  8
0
 10
53.044
 11
53.322
 20
8.203
 21
9.058
  0
LINE
  8
0
 10
53.322
 11
53.856
 20
9.058
 21
10.194
  0
LINE
  8
0
 10
53.856
 11
54.141
 20
10.194
 21
10.892
  0
LINE
  8
0
 10
54.141
 11
54.405
 20
10.892
 21
11.36
  0
LINE
  8
0
 10
54.405
 11
54.637
 20
11.36
 21
11.854
  0
LINE
  8
0
 10
54.637
 11
55.045
 20
11.854
 21
12.497
  0
LINE
  8
0
 10
55.045
 11
55.658
 20
12.497
 21
13.585
  0
LINE
  8
0
 10
55.658
 11
56.191
 20
13.585
 21
14.302
  0
LINE
  8
0
 10
56.191
 11
56.293
 20
14.302
 21
14.463
  0
LINE
  8
0
 10
56.293
 11
56.465
 20
14.463
 21
14.671
  0
LINE
  8
0
 10
56.465
 11
57.501
 20
14.671
 21
16.065
  0
LINE
  8
0
 10
57.501
 11
59.639
 20
16.065
 21
18.295
  0
LINE
  8
0
 10
59.639
 11
60.915
 20
18.295
 21
19.329
  0
LINE
  8
0
 10
60.915
 11
61.295
 20
19.329
 21
19.671
  0
LINE
  8
0
 10
61.295
 11
61.593
 20
19.671
 21
19.878
  0
LINE
  8
0
 10
61.593
 11
62.041
 20
19.878
 21
20.241
  0
LINE
  8
0
 10
62.041
 11
62.726
 20
20.241
 21
20.665
  0
LINE
  8
0
 10
62.726
 11
63.832
 20
20.665
 21
21.434
  0
LINE
  8
0
 10
63.832
 11
65.138
 20
21.434
 21
22.117
  0
LINE
  8
0
 10
65.138
 11
65.879
 20
22.117
 21
22.555
  0
LINE
  8
0
 10
65.879
 11
66.442
 20
22.555
 21
22.799
  0
LINE
  8
0
 10
66.442
 11
66.571
 20
22.799
 21
22.866
  0
LINE
  8
0
 10
66.571
 11
66.761
 20
22.866
 21
22.937
  0
LINE
  8
0
 10
66.761
 11
67.006
 20
22.937
 21
23.042
  0
LINE
  8
0
 10
67.006
 11
67.449
 20
23.042
 21
23.263
  0
LINE
  8
0
 10
67.449
 11
67.825
 20
23.263
 21
23.474
  0
LINE
  8
0
 10
67.825
 11
68.111
 20
23.474
 21
23.591
  0
LINE
  8
0
 10
68.111
 11
68.168
 20
23.591
 21
23.619
  0
LINE
  8
0
 10
68.168
 11
68.251
 20
23.619
 21
23.648
  0
LINE
  8
0
 10
68.251
 11
68.426
 20
23.648
 21
23.719
  0
LINE
  8
0
 10
68.426
 11
68.807
 20
23.719
 21
23.899
  0
LINE
  8
0
 10
68.807
 11
69.326
 20
23.899
 21
24.177
  0
LINE
  8
0
 10
69.326
 11
70.016
 20
24.177
 21
24.596
  0
LINE
  8
0
 10
70.016
 11
70.831
 20
24.596
 21
25.149
  0
LINE
  8
0
 10
70.831
 11
71.424
 20
25.149
 21
25.6
  0
LINE
  8
0
 10
71.424
 11
74.1
 20
25.6
 21
27.145
  0
LINE
  8
0
 10
74.1
 11
76.949
 20
27.145
 21
28.342
  0
LINE
  8
0
 10
76.949
 11
79.925
 20
28.342
 21
29.173
  0
LINE
  8
0
 10
79.925
 11
82.982
 20
29.173
 21
29.624
  0
LINE
  8
0
 10
82.982
 11
86.072
 20
29.624
 21
29.689
  0
LINE
  8
0
 10
86.072
 11
89.145
 20
29.689
 21
29.366
  0
LINE
  8
0
 10
89.145
 11
92.153
 20
29.366
 21
28.66
  0
LINE
  8
0
 10
92.153
 11
95.05
 20
28.66
 21
27.583
  0
LINE
  8
0
 10
95.05
 11
97.788
 20
27.583
 21
26.152
  0
LINE
  8
0
 10
97.788
 11
100.325
 20
26.152
 21
24.388
  0
LINE
  8
0
 10
100.325
 11
102.622
 20
24.388
 21
22.32
  0
LINE
  8
0
 10
102.622
 11
104.641
 20
22.32
 21
19.981
  0
LINE
  8
0
 10
104.641
 11
106.351
 20
19.981
 21
17.407
  0
LINE
  8
0
 10
106.351
 11
107.725
 20
17.407
 21
14.64
  0
LINE
  8
0
 10
107.725
 11
108.741
 20
14.64
 21
11.722
  0
LINE
  8
0
 10
108.741
 11
109.383
 20
11.722
 21
8.699
  0
LINE
  8
0
 10
109.383
 11
109.642
 20
8.699
 21
5.62
  0
LINE
  8
0
 10
109.642
 11
109.513
 20
5.62
 21
2.533
  0
LINE
  8
0
 10
109.513
 11
109.084
 20
2.533
 21
0
  0
LINE
  8
0
 10
109.084
 11
109.513
 20
0
 21
-2.533
  0
LINE
  8
0
 10
109.513
 11
109.642
 20
-2.533
 21
-5.62
  0
LINE
  8
0
 10
109.642
 11
109.383
 20
-5.62
 21
-8.699
  0
LINE
  8
0
 10
109.383
 11
108.741
 20
-8.699
 21
-11.722
  0
LINE
  8
0
 10
108.741
 11
107.725
 20
-11.722
 21
-14.64
  0
LINE
  8
0
 10
107.725
 11
106.351
 20
-14.64
 21
-17.407
  0
LINE
  8
0
 10
106.351
 11
104.641
 20
-17.407
 21
-19.981
  0
LINE
  8
0
 10
104.641
 11
102.622
 20
-19.981
 21
-22.32
  0
LINE
  8
0
 10
102.622
 11
100.325
 20
-22.32
 21
-24.388
  0
LINE
  8
0
 10
100.325
 11
97.788
 20
-24.388
 21
-26.152
  0
LINE
  8
0
 10
97.788
 11
95.05
 20
-26.152
 21
-27.583
  0
LINE
  8
0
 10
95.05
 11
92.153
 20
-27.583
 21
-28.66
  0
LINE
  8
0
 10
92.153
 11
89.145
 20
-28.66
 21
-29.366
  0
LINE
  8
0
 10
89.145
 11
86.072
 20
-29.366
 21
-29.689
  0
LINE
  8
0
 10
86.072
 11
82.982
 20
-29.689
 21
-29.624
  0
LINE
  8
0
 10
82.982
 11
79.925
 20
-29.624
 21
-29.173
  0
LINE
  8
0
 10
79.925
 11
76.949
 20
-29.173
 21
-28.342
  0
LINE
  8
0
 10
76.949
 11
74.1
 20
-28.342
 21
-27.145
  0
LINE
  8
0
 10
74.1
 11
71.424
 20
-27.145
 21
-25.6
  0
LINE
  8
0
 10
71.424
 11
70.831
 20
-25.6
 21
-25.149
  0
LINE
  8
0
 10
70.831
 11
70.016
 20
-25.149
 21
-24.596
  0
LINE
  8
0
 10
70.016
 11
69.326
 20
-24.596
 21
-24.177
  0
LINE
  8
0
 10
69.326
 11
68.807
 20
-24.177
 21
-23.899
  0
LINE
  8
0
 10
68.807
 11
68.426
 20
-23.899
 21
-23.719
  0
LINE
  8
0
 10
68.426
 11
68.251
 20
-23.719
 21
-23.648
  0
LINE
  8
0
 10
68.251
 11
68.168
 20
-23.648
 21
-23.619
  0
LINE
  8
0
 10
68.168
 11
68.111
 20
-23.619
 21
-23.591
  0
LINE
  8
0
 10
68.111
 11
67.825
 20
-23.591
 21
-23.474
  0
LINE
  8
0
 10
67.825
 11
67.449
 20
-23.474
 21
-23.263
  0
LINE
  8
0
 10
67.449
 11
67.006
 20
-23.263
 21
-23.042
  0
LINE
  8
0
 10
67.006
 11
66.761
 20
-23.042
 21
-22.937
  0
LINE
  8
0
 10
66.761
 11
66.571
 20
-22.937
 21
-22.866
  0
LINE
  8
0
 10
66.571
 11
66.442
 20
-22.866
 21
-22.799
  0
LINE
  8
0
 10
66.442
 11
65.879
 20
-22.799
 21
-22.555
  0
LINE
  8
0
 10
65.879
 11
65.138
 20
-22.555
 21
-22.117
  0
LINE
  8
0
 10
65.138
 11
63.832
 20
-22.117
 21
-21.434
  0
LINE
  8
0
 10
63.832
 11
62.726
 20
-21.434
 21
-20.665
  0
LINE
  8
0
 10
62.726
 11
62.041
 20
-20.665
 21
-20.241
  0
LINE
  8
0
 10
62.041
 11
61.593
 20
-20.241
 21
-19.878
  0
LINE
  8
0
 10
61.593
 11
61.295
 20
-19.878
 21
-19.671
  0
LINE
  8
0
 10
61.295
 11
60.915
 20
-19.671
 21
-19.329
  0
LINE
  8
0
 10
60.915
 11
59.639
 20
-19.329
 21
-18.295
  0
LINE
  8
0
 10
59.639
 11
57.501
 20
-18.295
 21
-16.065
  0
LINE
  8
0
 10
57.501
 11
56.465
 20
-16.065
 21
-14.671
  0
LINE
  8
0
 10
56.465
 11
56.293
 20
-14.671
 21
-14.463
  0
LINE
  8
0
 10
56.293
 11
56.191
 20
-14.463
 21
-14.302
  0
LINE
  8
0
 10
56.191
 11
55.658
 20
-14.302
 21
-13.585
  0
LINE
  8
0
 10
55.658
 11
55.045
 20
-13.585
 21
-12.497
  0
LINE
  8
0
 10
55.045
 11
54.637
 20
-12.497
 21
-11.854
  0
LINE
  8
0
 10
54.637
 11
54.405
 20
-11.854
 21
-11.36
  0
LINE
  8
0
 10
54.405
 11
54.141
 20
-11.36
 21
-10.892
  0
LINE
  8
0
 10
54.141
 11
53.856
 20
-10.892
 21
-10.194
  0
LINE
  8
0
 10
53.856
 11
53.322
 20
-10.194
 21
-9.058
  0
LINE
  8
0
 10
53.322
 11
53.044
 20
-9.058
 21
-8.203
  0
LINE
  8
0
 10
53.044
 11
52.974
 20
-8.203
 21
-8.031
  0
LINE
  8
0
 10
52.974
 11
52.907
 20
-8.031
 21
-7.78
  0
LINE
  8
0
 10
52.907
 11
52.367
 20
-7.78
 21
-6.119
  0
LINE
  8
0
 10
52.367
 11
51.788
 20
-6.119
 21
-3.084
  0
LINE
  8
0
 10
51.788
 11
51.594
 20
-3.084
 21
0
  0
ENDSEC
  0
SECTION
  2
OBJECTS
  0
DICTIONARY
  0
ENDSEC
  0
EOF
