  0
SECTION
  2
BLOCKS
  0
ENDSEC
  0
SECTION
  2
ENTITIES
  0
LINE
  8
0
 10
-143.258
 11
-142.999
 20
-326.924
 21
-323.846
  0
LINE
  8
0
 10
-142.999
 11
-142.357
 20
-323.846
 21
-320.823
  0
LINE
  8
0
 10
-142.357
 11
-141.341
 20
-320.823
 21
-317.905
  0
LINE
  8
0
 10
-141.341
 11
-139.967
 20
-317.905
 21
-315.137
  0
LINE
  8
0
 10
-139.967
 11
-138.257
 20
-315.137
 21
-312.563
  0
LINE
  8
0
 10
-138.257
 11
-136.238
 20
-312.563
 21
-310.224
  0
LINE
  8
0
 10
-136.238
 11
-133.941
 20
-310.224
 21
-308.157
  0
LINE
  8
0
 10
-133.941
 11
-131.404
 20
-308.157
 21
-306.393
  0
LINE
  8
0
 10
-131.404
 11
-128.666
 20
-306.393
 21
-304.961
  0
LINE
  8
0
 10
-128.666
 11
-125.769
 20
-304.961
 21
-303.884
  0
LINE
  8
0
 10
-125.769
 11
-122.761
 20
-303.884
 21
-303.179
  0
LINE
  8
0
 10
-122.761
 11
-119.688
 20
-303.179
 21
-302.855
  0
LINE
  8
0
 10
-119.688
 11
-116.598
 20
-302.855
 21
-302.92
  0
LINE
  8
0
 10
-116.598
 11
-113.541
 20
-302.92
 21
-303.371
  0
LINE
  8
0
 10
-113.541
 11
-110.565
 20
-303.371
 21
-304.203
  0
LINE
  8
0
 10
-110.565
 11
-107.716
 20
-304.203
 21
-305.4
  0
LINE
  8
0
 10
-107.716
 11
-105.04
 20
-305.4
 21
-306.945
  0
LINE
  8
0
 10
-105.04
 11
-102.579
 20
-306.945
 21
-308.814
  0
LINE
  8
0
 10
-102.579
 11
-100.371
 20
-308.814
 21
-310.975
  0
LINE
  8
0
 10
-100.371
 11
-99.334
 20
-310.975
 21
-312.284
  0
LINE
  8
0
 10
-99.334
 11
-99.238
 20
-312.284
 21
-312.293
  0
LINE
  8
0
 10
-99.238
 11
-96.223
 20
-312.293
 21
-312.967
  0
LINE
  8
0
 10
-96.223
 11
-93.315
 20
-312.967
 21
-314.013
  0
LINE
  8
0
 10
-93.315
 11
-90.562
 20
-314.013
 21
-315.416
  0
LINE
  8
0
 10
-90.562
 11
-88.006
 20
-315.416
 21
-317.154
  0
LINE
  8
0
 10
-88.006
 11
-85.688
 20
-317.154
 21
-319.197
  0
LINE
  8
0
 10
-85.688
 11
-84.513
 20
-319.197
 21
-320.53
  0
LINE
  8
0
 10
-84.513
 11
-84.308
 20
-320.53
 21
-320.539
  0
LINE
  8
0
 10
-84.308
 11
-81.261
 20
-320.539
 21
-321.055
  0
LINE
  8
0
 10
-81.261
 11
-78.302
 20
-321.055
 21
-321.947
  0
LINE
  8
0
 10
-78.302
 11
-75.48
 20
-321.947
 21
-323.204
  0
LINE
  8
0
 10
-75.48
 11
-72.836
 20
-323.204
 21
-324.806
  0
LINE
  8
0
 10
-72.836
 11
-70.415
 20
-324.806
 21
-326.725
  0
LINE
  8
0
 10
-70.415
 11
-69.096
 20
-326.725
 21
-328.072
  0
LINE
  8
0
 10
-69.096
 11
-68.782
 20
-328.072
 21
-328.069
  0
LINE
  8
0
 10
-68.782
 11
-65.712
 20
-328.069
 21
-328.425
  0
LINE
  8
0
 10
-65.712
 11
-62.711
 20
-328.425
 21
-329.161
  0
LINE
  8
0
 10
-62.711
 11
-59.826
 20
-329.161
 21
-330.268
  0
LINE
  8
0
 10
-59.826
 11
-57.103
 20
-330.268
 21
-331.729
  0
LINE
  8
0
 10
-57.103
 11
-54.584
 20
-331.729
 21
-333.519
  0
LINE
  8
0
 10
-54.584
 11
-53.116
 20
-333.519
 21
-334.869
  0
LINE
  8
0
 10
-53.116
 11
-52.695
 20
-334.869
 21
-334.843
  0
LINE
  8
0
 10
-52.695
 11
-49.611
 20
-334.843
 21
-335.037
  0
LINE
  8
0
 10
-49.611
 11
-46.575
 20
-335.037
 21
-335.616
  0
LINE
  8
0
 10
-46.575
 11
-43.637
 20
-335.616
 21
-336.57
  0
LINE
  8
0
 10
-43.637
 11
-40.841
 20
-336.57
 21
-337.887
  0
LINE
  8
0
 10
-40.841
 11
-38.231
 20
-337.887
 21
-339.542
  0
LINE
  8
0
 10
-38.231
 11
-36.611
 20
-339.542
 21
-340.883
  0
LINE
  8
0
 10
-36.611
 11
-36.085
 20
-340.883
 21
-340.822
  0
LINE
  8
0
 10
-36.085
 11
-32.995
 20
-340.822
 21
-340.855
  0
LINE
  8
0
 10
-32.995
 11
-29.933
 20
-340.855
 21
-341.273
  0
LINE
  8
0
 10
-29.933
 11
-26.948
 20
-341.273
 21
-342.073
  0
LINE
  8
0
 10
-26.948
 11
-24.087
 20
-342.073
 21
-343.241
  0
LINE
  8
0
 10
-24.087
 11
-21.395
 20
-343.241
 21
-344.758
  0
LINE
  8
0
 10
-21.395
 11
-19.62
 20
-344.758
 21
-346.077
  0
LINE
  8
0
 10
-19.62
 11
-18.99
 20
-346.077
 21
-345.97
  0
LINE
  8
0
 10
-18.99
 11
-15.903
 20
-345.97
 21
-345.841
  0
LINE
  8
0
 10
-15.903
 11
-12.823
 20
-345.841
 21
-346.099
  0
LINE
  8
0
 10
-12.823
 11
-9.801
 20
-346.099
 21
-346.741
  0
LINE
  8
0
 10
-9.801
 11
-6.882
 20
-346.741
 21
-347.758
  0
LINE
  8
0
 10
-6.882
 11
-4.115
 20
-347.758
 21
-349.132
  0
LINE
  8
0
 10
-4.115
 11
-2.182
 20
-349.132
 21
-350.416
  0
LINE
  8
0
 10
-2.182
 11
-1.454
 20
-350.416
 21
-350.253
  0
LINE
  8
0
 10
-1.454
 11
1.623
 20
-350.253
 21
-349.962
  0
LINE
  8
0
 10
1.623
 11
4.712
 20
-349.962
 21
-350.059
  0
LINE
  8
0
 10
4.712
 11
7.764
 20
-350.059
 21
-350.542
  0
LINE
  8
0
 10
7.764
 11
10.731
 20
-350.542
 21
-351.405
  0
LINE
  8
0
 10
10.731
 11
13.567
 20
-351.405
 21
-352.632
  0
LINE
  8
0
 10
13.567
 11
15.657
 20
-352.632
 21
-353.868
  0
LINE
  8
0
 10
15.657
 11
16.481
 20
-353.868
 21
-353.638
  0
LINE
  8
0
 10
16.481
 11
19.538
 20
-353.638
 21
-353.187
  0
LINE
  8
0
 10
19.538
 11
22.628
 20
-353.187
 21
-353.122
  0
LINE
  8
0
 10
22.628
 11
25.701
 20
-353.122
 21
-353.445
  0
LINE
  8
0
 10
25.701
 11
28.709
 20
-353.445
 21
-354.151
  0
LINE
  8
0
 10
28.709
 11
31.606
 20
-354.151
 21
-355.228
  0
LINE
  8
0
 10
31.606
 11
33.854
 20
-355.228
 21
-356.403
  0
LINE
  8
0
 10
33.854
 11
34.767
 20
-356.403
 21
-356.096
  0
LINE
  8
0
 10
34.767
 11
37.796
 20
-356.096
 21
-355.485
  0
LINE
  8
0
 10
37.796
 11
40.878
 20
-355.485
 21
-355.258
  0
LINE
  8
0
 10
40.878
 11
43.964
 20
-355.258
 21
-355.42
  0
LINE
  8
0
 10
43.964
 11
47.005
 20
-355.42
 21
-355.968
  0
LINE
  8
0
 10
47.005
 11
49.954
 20
-355.968
 21
-356.892
  0
LINE
  8
0
 10
49.954
 11
52.359
 20
-356.892
 21
-357.993
  0
LINE
  8
0
 10
52.359
 11
53.356
 20
-357.993
 21
-357.598
  0
LINE
  8
0
 10
53.356
 11
56.349
 20
-357.598
 21
-356.83
  0
LINE
  8
0
 10
56.349
 11
59.415
 20
-356.83
 21
-356.442
  0
LINE
  8
0
 10
59.415
 11
62.505
 20
-356.442
 21
-356.442
  0
LINE
  8
0
 10
62.505
 11
65.571
 20
-356.442
 21
-356.83
  0
LINE
  8
0
 10
65.571
 11
68.564
 20
-356.83
 21
-357.598
  0
LINE
  8
0
 10
68.564
 11
71.124
 20
-357.598
 21
-358.612
  0
LINE
  8
0
 10
71.124
 11
72.198
 20
-358.612
 21
-358.12
  0
LINE
  8
0
 10
72.198
 11
75.146
 20
-358.12
 21
-357.197
  0
LINE
  8
0
 10
75.146
 11
78.188
 20
-357.197
 21
-356.649
  0
LINE
  8
0
 10
78.188
 11
81.273
 20
-356.649
 21
-356.487
  0
LINE
  8
0
 10
81.273
 11
84.356
 20
-356.487
 21
-356.714
  0
LINE
  8
0
 10
84.356
 11
87.385
 20
-356.714
 21
-357.324
  0
LINE
  8
0
 10
87.385
 11
90.097
 20
-357.324
 21
-358.237
  0
LINE
  8
0
 10
90.097
 11
91.239
 20
-358.237
 21
-357.64
  0
LINE
  8
0
 10
91.239
 11
94.136
 20
-357.64
 21
-356.563
  0
LINE
  8
0
 10
94.136
 11
97.144
 20
-356.563
 21
-355.857
  0
LINE
  8
0
 10
97.144
 11
100.217
 20
-355.857
 21
-355.534
  0
LINE
  8
0
 10
100.217
 11
103.307
 20
-355.534
 21
-355.599
  0
LINE
  8
0
 10
103.307
 11
106.364
 20
-355.599
 21
-356.05
  0
LINE
  8
0
 10
106.364
 11
109.224
 20
-356.05
 21
-356.85
  0
LINE
  8
0
 10
109.224
 11
110.428
 20
-356.85
 21
-356.138
  0
LINE
  8
0
 10
110.428
 11
113.264
 20
-356.138
 21
-354.911
  0
LINE
  8
0
 10
113.264
 11
116.231
 20
-354.911
 21
-354.048
  0
LINE
  8
0
 10
116.231
 11
119.283
 20
-354.048
 21
-353.565
  0
LINE
  8
0
 10
119.283
 11
122.372
 20
-353.565
 21
-353.469
  0
LINE
  8
0
 10
122.372
 11
125.449
 20
-353.469
 21
-353.759
  0
LINE
  8
0
 10
125.449
 11
128.453
 20
-353.759
 21
-354.431
  0
LINE
  8
0
 10
128.453
 11
129.707
 20
-354.431
 21
-353.597
  0
LINE
  8
0
 10
129.707
 11
132.475
 20
-353.597
 21
-352.224
  0
LINE
  8
0
 10
132.475
 11
135.394
 20
-352.224
 21
-351.207
  0
LINE
  8
0
 10
135.394
 11
138.416
 20
-351.207
 21
-350.564
  0
LINE
  8
0
 10
138.416
 11
141.496
 20
-350.564
 21
-350.306
  0
LINE
  8
0
 10
141.496
 11
144.583
 20
-350.306
 21
-350.435
  0
LINE
  8
0
 10
144.583
 11
147.63
 20
-350.435
 21
-350.951
  0
LINE
  8
0
 10
147.63
 11
147.713
 20
-350.951
 21
-350.976
  0
LINE
  8
0
 10
147.713
 11
149.022
 20
-350.976
 21
-350.004
  0
LINE
  8
0
 10
149.022
 11
151.714
 20
-350.004
 21
-348.488
  0
LINE
  8
0
 10
151.714
 11
154.575
 20
-348.488
 21
-347.32
  0
LINE
  8
0
 10
154.575
 11
157.56
 20
-347.32
 21
-346.52
  0
LINE
  8
0
 10
157.56
 11
160.622
 20
-346.52
 21
-346.101
  0
LINE
  8
0
 10
160.622
 11
163.711
 20
-346.101
 21
-346.068
  0
LINE
  8
0
 10
163.711
 11
166.781
 20
-346.068
 21
-346.424
  0
LINE
  8
0
 10
166.781
 11
166.961
 20
-346.424
 21
-346.468
  0
LINE
  8
0
 10
166.961
 11
168.313
 20
-346.468
 21
-345.349
  0
LINE
  8
0
 10
168.313
 11
170.922
 20
-345.349
 21
-343.694
  0
LINE
  8
0
 10
170.922
 11
173.718
 20
-343.694
 21
-342.377
  0
LINE
  8
0
 10
173.718
 11
176.657
 20
-342.377
 21
-341.423
  0
LINE
  8
0
 10
176.657
 11
179.692
 20
-341.423
 21
-340.844
  0
LINE
  8
0
 10
179.692
 11
182.776
 20
-340.844
 21
-340.65
  0
LINE
  8
0
 10
182.776
 11
185.86
 20
-340.65
 21
-340.844
  0
LINE
  8
0
 10
185.86
 11
186.137
 20
-340.844
 21
-340.897
  0
LINE
  8
0
 10
186.137
 11
187.521
 20
-340.897
 21
-339.624
  0
LINE
  8
0
 10
187.521
 11
190.04
 20
-339.624
 21
-337.834
  0
LINE
  8
0
 10
190.04
 11
192.764
 20
-337.834
 21
-336.373
  0
LINE
  8
0
 10
192.764
 11
195.649
 20
-336.373
 21
-335.266
  0
LINE
  8
0
 10
195.649
 11
198.65
 20
-335.266
 21
-334.53
  0
LINE
  8
0
 10
198.65
 11
201.719
 20
-334.53
 21
-334.174
  0
LINE
  8
0
 10
201.719
 11
204.809
 20
-334.174
 21
-334.207
  0
LINE
  8
0
 10
204.809
 11
205.185
 20
-334.207
 21
-334.258
  0
LINE
  8
0
 10
205.185
 11
206.589
 20
-334.258
 21
-332.825
  0
LINE
  8
0
 10
206.589
 11
209.011
 20
-332.825
 21
-330.906
  0
LINE
  8
0
 10
209.011
 11
211.654
 20
-330.906
 21
-329.305
  0
LINE
  8
0
 10
211.654
 11
214.477
 20
-329.305
 21
-328.048
  0
LINE
  8
0
 10
214.477
 11
217.435
 20
-328.048
 21
-327.155
  0
LINE
  8
0
 10
217.435
 11
220.482
 20
-327.155
 21
-326.639
  0
LINE
  8
0
 10
220.482
 11
223.569
 20
-326.639
 21
-326.51
  0
LINE
  8
0
 10
223.569
 11
224.046
 20
-326.51
 21
-326.55
  0
LINE
  8
0
 10
224.046
 11
225.454
 20
-326.55
 21
-324.952
  0
LINE
  8
0
 10
225.454
 11
227.772
 20
-324.952
 21
-322.909
  0
LINE
  8
0
 10
227.772
 11
230.328
 20
-322.909
 21
-321.171
  0
LINE
  8
0
 10
230.328
 11
233.081
 20
-321.171
 21
-319.768
  0
LINE
  8
0
 10
233.081
 11
235.989
 20
-319.768
 21
-318.722
  0
LINE
  8
0
 10
235.989
 11
239.004
 20
-318.722
 21
-318.047
  0
LINE
  8
0
 10
239.004
 11
242.081
 20
-318.047
 21
-317.757
  0
LINE
  8
0
 10
242.081
 11
242.656
 20
-317.757
 21
-317.775
  0
LINE
  8
0
 10
242.656
 11
244.057
 20
-317.775
 21
-316.007
  0
LINE
  8
0
 10
244.057
 11
246.265
 20
-316.007
 21
-313.845
  0
LINE
  8
0
 10
246.265
 11
248.726
 20
-313.845
 21
-311.976
  0
LINE
  8
0
 10
248.726
 11
251.402
 20
-311.976
 21
-310.431
  0
LINE
  8
0
 10
251.402
 11
254.251
 20
-310.431
 21
-309.234
  0
LINE
  8
0
 10
254.251
 11
257.227
 20
-309.234
 21
-308.403
  0
LINE
  8
0
 10
257.227
 11
260.284
 20
-308.403
 21
-307.952
  0
LINE
  8
0
 10
260.284
 11
263.373
 20
-307.952
 21
-307.886
  0
LINE
  8
0
 10
263.373
 11
266.447
 20
-307.886
 21
-308.21
  0
LINE
  8
0
 10
266.447
 11
269.455
 20
-308.21
 21
-308.915
  0
LINE
  8
0
 10
269.455
 11
272.351
 20
-308.915
 21
-309.992
  0
LINE
  8
0
 10
272.351
 11
275.09
 20
-309.992
 21
-311.424
  0
LINE
  8
0
 10
275.09
 11
277.627
 20
-311.424
 21
-313.188
  0
LINE
  8
0
 10
277.627
 11
279.923
 20
-313.188
 21
-315.256
  0
LINE
  8
0
 10
279.923
 11
281.942
 20
-315.256
 21
-317.594
  0
LINE
  8
0
 10
281.942
 11
283.652
 20
-317.594
 21
-320.168
  0
LINE
  8
0
 10
283.652
 11
285.026
 20
-320.168
 21
-322.936
  0
LINE
  8
0
 10
285.026
 11
286.042
 20
-322.936
 21
-325.854
  0
LINE
  8
0
 10
286.042
 11
286.685
 20
-325.854
 21
-328.877
  0
LINE
  8
0
 10
286.685
 11
286.944
 20
-328.877
 21
-331.956
  0
LINE
  8
0
 10
286.944
 11
286.814
 20
-331.956
 21
-335.043
  0
LINE
  8
0
 10
286.814
 11
286.299
 20
-335.043
 21
-338.09
  0
LINE
  8
0
 10
286.299
 11
285.406
 20
-338.09
 21
-341.048
  0
LINE
  8
0
 10
285.406
 11
284.149
 20
-341.048
 21
-343.871
  0
LINE
  8
0
 10
284.149
 11
282.548
 20
-343.871
 21
-346.514
  0
LINE
  8
0
 10
282.548
 11
280.629
 20
-346.514
 21
-348.936
  0
LINE
  8
0
 10
280.629
 11
278.421
 20
-348.936
 21
-351.098
  0
LINE
  8
0
 10
278.421
 11
275.96
 20
-351.098
 21
-352.967
  0
LINE
  8
0
 10
275.96
 11
273.284
 20
-352.967
 21
-354.512
  0
LINE
  8
0
 10
273.284
 11
270.435
 20
-354.512
 21
-355.709
  0
LINE
  8
0
 10
270.435
 11
267.459
 20
-355.709
 21
-356.54
  0
LINE
  8
0
 10
267.459
 11
264.402
 20
-356.54
 21
-356.991
  0
LINE
  8
0
 10
264.402
 11
262.57
 20
-356.991
 21
-357.03
  0
LINE
  8
0
 10
262.57
 11
262.296
 20
-357.03
 21
-357.432
  0
LINE
  8
0
 10
262.296
 11
260.253
 20
-357.432
 21
-359.75
  0
LINE
  8
0
 10
260.253
 11
257.935
 20
-359.75
 21
-361.793
  0
LINE
  8
0
 10
257.935
 11
255.379
 20
-361.793
 21
-363.531
  0
LINE
  8
0
 10
255.379
 11
252.626
 20
-363.531
 21
-364.934
  0
LINE
  8
0
 10
252.626
 11
249.718
 20
-364.934
 21
-365.98
  0
LINE
  8
0
 10
249.718
 11
246.703
 20
-365.98
 21
-366.654
  0
LINE
  8
0
 10
246.703
 11
243.626
 20
-366.654
 21
-366.945
  0
LINE
  8
0
 10
243.626
 11
241.907
 20
-366.945
 21
-366.891
  0
LINE
  8
0
 10
241.907
 11
241.681
 20
-366.891
 21
-367.189
  0
LINE
  8
0
 10
241.681
 11
239.519
 20
-367.189
 21
-369.397
  0
LINE
  8
0
 10
239.519
 11
237.097
 20
-369.397
 21
-371.316
  0
LINE
  8
0
 10
237.097
 11
234.454
 20
-371.316
 21
-372.917
  0
LINE
  8
0
 10
234.454
 11
231.631
 20
-372.917
 21
-374.174
  0
LINE
  8
0
 10
231.631
 11
228.672
 20
-374.174
 21
-375.067
  0
LINE
  8
0
 10
228.672
 11
225.626
 20
-375.067
 21
-375.583
  0
LINE
  8
0
 10
225.626
 11
222.538
 20
-375.583
 21
-375.712
  0
LINE
  8
0
 10
222.538
 11
220.936
 20
-375.712
 21
-375.578
  0
LINE
  8
0
 10
220.936
 11
220.767
 20
-375.578
 21
-375.777
  0
LINE
  8
0
 10
220.767
 11
218.492
 20
-375.777
 21
-377.869
  0
LINE
  8
0
 10
218.492
 11
215.973
 20
-377.869
 21
-379.659
  0
LINE
  8
0
 10
215.973
 11
213.25
 20
-379.659
 21
-381.12
  0
LINE
  8
0
 10
213.25
 11
210.365
 20
-381.12
 21
-382.227
  0
LINE
  8
0
 10
210.365
 11
207.364
 20
-382.227
 21
-382.964
  0
LINE
  8
0
 10
207.364
 11
204.295
 20
-382.964
 21
-383.319
  0
LINE
  8
0
 10
204.295
 11
201.205
 20
-383.319
 21
-383.286
  0
LINE
  8
0
 10
201.205
 11
199.723
 20
-383.286
 21
-383.084
  0
LINE
  8
0
 10
199.723
 11
199.62
 20
-383.084
 21
-383.193
  0
LINE
  8
0
 10
199.62
 11
197.239
 20
-383.193
 21
-385.163
  0
LINE
  8
0
 10
197.239
 11
194.63
 20
-385.163
 21
-386.818
  0
LINE
  8
0
 10
194.63
 11
191.834
 20
-386.818
 21
-388.135
  0
LINE
  8
0
 10
191.834
 11
188.895
 20
-388.135
 21
-389.089
  0
LINE
  8
0
 10
188.895
 11
185.86
 20
-389.089
 21
-389.668
  0
LINE
  8
0
 10
185.86
 11
182.776
 20
-389.668
 21
-389.862
  0
LINE
  8
0
 10
182.776
 11
179.692
 20
-389.862
 21
-389.668
  0
LINE
  8
0
 10
179.692
 11
178.333
 20
-389.668
 21
-389.409
  0
LINE
  8
0
 10
178.333
 11
178.306
 20
-389.409
 21
-389.435
  0
LINE
  8
0
 10
178.306
 11
175.825
 20
-389.435
 21
-391.278
  0
LINE
  8
0
 10
175.825
 11
173.133
 20
-391.278
 21
-392.794
  0
LINE
  8
0
 10
173.133
 11
170.272
 20
-392.794
 21
-393.962
  0
LINE
  8
0
 10
170.272
 11
167.287
 20
-393.962
 21
-394.762
  0
LINE
  8
0
 10
167.287
 11
164.225
 20
-394.762
 21
-395.181
  0
LINE
  8
0
 10
164.225
 11
161.135
 20
-395.181
 21
-395.214
  0
LINE
  8
0
 10
161.135
 11
158.066
 20
-395.214
 21
-394.858
  0
LINE
  8
0
 10
158.066
 11
156.819
 20
-394.858
 21
-394.552
  0
LINE
  8
0
 10
156.819
 11
154.314
 20
-394.552
 21
-396.217
  0
LINE
  8
0
 10
154.314
 11
151.546
 20
-396.217
 21
-397.59
  0
LINE
  8
0
 10
151.546
 11
148.628
 20
-397.59
 21
-398.607
  0
LINE
  8
0
 10
148.628
 11
145.605
 20
-398.607
 21
-399.249
  0
LINE
  8
0
 10
145.605
 11
142.526
 20
-399.249
 21
-399.507
  0
LINE
  8
0
 10
142.526
 11
139.439
 20
-399.507
 21
-399.378
  0
LINE
  8
0
 10
139.439
 11
136.392
 20
-399.378
 21
-398.863
  0
LINE
  8
0
 10
136.392
 11
135.251
 20
-398.863
 21
-398.519
  0
LINE
  8
0
 10
135.251
 11
132.77
 20
-398.519
 21
-399.987
  0
LINE
  8
0
 10
132.77
 11
129.934
 20
-399.987
 21
-401.213
  0
LINE
  8
0
 10
129.934
 11
126.967
 20
-401.213
 21
-402.076
  0
LINE
  8
0
 10
126.967
 11
123.915
 20
-402.076
 21
-402.56
  0
LINE
  8
0
 10
123.915
 11
120.826
 20
-402.56
 21
-402.656
  0
LINE
  8
0
 10
120.826
 11
117.75
 20
-402.656
 21
-402.366
  0
LINE
  8
0
 10
117.75
 11
114.734
 20
-402.366
 21
-401.691
  0
LINE
  8
0
 10
114.734
 11
113.701
 20
-401.691
 21
-401.32
  0
LINE
  8
0
 10
113.701
 11
111.256
 20
-401.32
 21
-402.598
  0
LINE
  8
0
 10
111.256
 11
108.36
 20
-402.598
 21
-403.675
  0
LINE
  8
0
 10
108.36
 11
105.351
 20
-403.675
 21
-404.381
  0
LINE
  8
0
 10
105.351
 11
102.278
 20
-404.381
 21
-404.704
  0
LINE
  8
0
 10
102.278
 11
99.189
 20
-404.704
 21
-404.639
  0
LINE
  8
0
 10
99.189
 11
96.132
 20
-404.639
 21
-404.188
  0
LINE
  8
0
 10
96.132
 11
93.156
 20
-404.188
 21
-403.356
  0
LINE
  8
0
 10
93.156
 11
92.23
 20
-403.356
 21
-402.967
  0
LINE
  8
0
 10
92.23
 11
89.834
 20
-402.967
 21
-404.064
  0
LINE
  8
0
 10
89.834
 11
86.885
 20
-404.064
 21
-404.988
  0
LINE
  8
0
 10
86.885
 11
83.844
 20
-404.988
 21
-405.536
  0
LINE
  8
0
 10
83.844
 11
80.758
 20
-405.536
 21
-405.697
  0
LINE
  8
0
 10
80.758
 11
77.676
 20
-405.697
 21
-405.47
  0
LINE
  8
0
 10
77.676
 11
74.647
 20
-405.47
 21
-404.86
  0
LINE
  8
0
 10
74.647
 11
71.718
 20
-404.86
 21
-403.874
  0
LINE
  8
0
 10
71.718
 11
70.898
 20
-403.874
 21
-403.478
  0
LINE
  8
0
 10
70.898
 11
68.564
 20
-403.478
 21
-404.402
  0
LINE
  8
0
 10
68.564
 11
65.571
 20
-404.402
 21
-405.17
  0
LINE
  8
0
 10
65.571
 11
62.505
 20
-405.17
 21
-405.558
  0
LINE
  8
0
 10
62.505
 11
59.415
 20
-405.558
 21
-405.558
  0
LINE
  8
0
 10
59.415
 11
56.349
 20
-405.558
 21
-405.17
  0
LINE
  8
0
 10
56.349
 11
53.356
 20
-405.17
 21
-404.402
  0
LINE
  8
0
 10
53.356
 11
50.483
 20
-404.402
 21
-403.264
  0
LINE
  8
0
 10
50.483
 11
49.766
 20
-403.264
 21
-402.87
  0
LINE
  8
0
 10
49.766
 11
47.505
 20
-402.87
 21
-403.631
  0
LINE
  8
0
 10
47.505
 11
44.476
 20
-403.631
 21
-404.242
  0
LINE
  8
0
 10
44.476
 11
41.393
 20
-404.242
 21
-404.469
  0
LINE
  8
0
 10
41.393
 11
38.308
 20
-404.469
 21
-404.307
  0
LINE
  8
0
 10
38.308
 11
35.266
 20
-404.307
 21
-403.759
  0
LINE
  8
0
 10
35.266
 11
32.318
 20
-403.759
 21
-402.835
  0
LINE
  8
0
 10
32.318
 11
29.508
 20
-402.835
 21
-401.549
  0
LINE
  8
0
 10
29.508
 11
28.892
 20
-401.549
 21
-401.167
  0
LINE
  8
0
 10
28.892
 11
26.713
 20
-401.167
 21
-401.775
  0
LINE
  8
0
 10
26.713
 11
23.657
 20
-401.775
 21
-402.226
  0
LINE
  8
0
 10
23.657
 11
20.567
 20
-402.226
 21
-402.292
  0
LINE
  8
0
 10
20.567
 11
17.494
 20
-402.292
 21
-401.969
  0
LINE
  8
0
 10
17.494
 11
14.485
 20
-401.969
 21
-401.262
  0
LINE
  8
0
 10
14.485
 11
11.589
 20
-401.262
 21
-400.186
  0
LINE
  8
0
 10
11.589
 11
8.85
 20
-400.186
 21
-398.754
  0
LINE
  8
0
 10
8.85
 11
8.331
 20
-398.754
 21
-398.393
  0
LINE
  8
0
 10
8.331
 11
6.245
 20
-398.393
 21
-398.86
  0
LINE
  8
0
 10
6.245
 11
3.169
 20
-398.86
 21
-399.15
  0
LINE
  8
0
 10
3.169
 11
0.08
 20
-399.15
 21
-399.054
  0
LINE
  8
0
 10
0.08
 11
-2.972
 20
-399.054
 21
-398.57
  0
LINE
  8
0
 10
-2.972
 11
-5.939
 20
-398.57
 21
-397.707
  0
LINE
  8
0
 10
-5.939
 11
-8.775
 20
-397.707
 21
-396.481
  0
LINE
  8
0
 10
-8.775
 11
-11.435
 20
-396.481
 21
-394.907
  0
LINE
  8
0
 10
-11.435
 11
-11.861
 20
-394.907
 21
-394.577
  0
LINE
  8
0
 10
-11.861
 11
-13.846
 20
-394.577
 21
-394.913
  0
LINE
  8
0
 10
-13.846
 11
-16.933
 20
-394.913
 21
-395.042
  0
LINE
  8
0
 10
-16.933
 11
-20.013
 20
-395.042
 21
-394.784
  0
LINE
  8
0
 10
-20.013
 11
-23.035
 20
-394.784
 21
-394.142
  0
LINE
  8
0
 10
-23.035
 11
-25.953
 20
-394.142
 21
-393.125
  0
LINE
  8
0
 10
-25.953
 11
-28.721
 20
-393.125
 21
-391.751
  0
LINE
  8
0
 10
-28.721
 11
-31.295
 20
-391.751
 21
-390.041
  0
LINE
  8
0
 10
-31.295
 11
-31.633
 20
-390.041
 21
-389.749
  0
LINE
  8
0
 10
-31.633
 11
-33.509
 20
-389.749
 21
-389.967
  0
LINE
  8
0
 10
-33.509
 11
-36.598
 20
-389.967
 21
-389.934
  0
LINE
  8
0
 10
-36.598
 11
-39.66
 20
-389.934
 21
-389.516
  0
LINE
  8
0
 10
-39.66
 11
-42.645
 20
-389.516
 21
-388.716
  0
LINE
  8
0
 10
-42.645
 11
-45.506
 20
-388.716
 21
-387.547
  0
LINE
  8
0
 10
-45.506
 11
-48.198
 20
-387.547
 21
-386.031
  0
LINE
  8
0
 10
-48.198
 11
-50.679
 20
-386.031
 21
-384.188
  0
LINE
  8
0
 10
-50.679
 11
-50.933
 20
-384.188
 21
-383.944
  0
LINE
  8
0
 10
-50.933
 11
-52.695
 20
-383.944
 21
-384.055
  0
LINE
  8
0
 10
-52.695
 11
-55.779
 20
-384.055
 21
-383.861
  0
LINE
  8
0
 10
-55.779
 11
-58.814
 20
-383.861
 21
-383.283
  0
LINE
  8
0
 10
-58.814
 11
-61.753
 20
-383.283
 21
-382.328
  0
LINE
  8
0
 10
-61.753
 11
-64.549
 20
-382.328
 21
-381.011
  0
LINE
  8
0
 10
-64.549
 11
-67.158
 20
-381.011
 21
-379.356
  0
LINE
  8
0
 10
-67.158
 11
-69.539
 20
-379.356
 21
-377.386
  0
LINE
  8
0
 10
-69.539
 11
-69.717
 20
-377.386
 21
-377.197
  0
LINE
  8
0
 10
-69.717
 11
-71.357
 20
-377.197
 21
-377.214
  0
LINE
  8
0
 10
-71.357
 11
-74.426
 20
-377.214
 21
-376.859
  0
LINE
  8
0
 10
-74.426
 11
-77.428
 20
-376.859
 21
-376.122
  0
LINE
  8
0
 10
-77.428
 11
-80.313
 20
-376.122
 21
-375.015
  0
LINE
  8
0
 10
-80.313
 11
-83.036
 20
-375.015
 21
-373.554
  0
LINE
  8
0
 10
-83.036
 11
-85.555
 20
-373.554
 21
-371.764
  0
LINE
  8
0
 10
-85.555
 11
-87.829
 20
-371.764
 21
-369.672
  0
LINE
  8
0
 10
-87.829
 11
-87.936
 20
-369.672
 21
-369.545
  0
LINE
  8
0
 10
-87.936
 11
-89.451
 20
-369.545
 21
-369.482
  0
LINE
  8
0
 10
-89.451
 11
-92.498
 20
-369.482
 21
-368.966
  0
LINE
  8
0
 10
-92.498
 11
-95.457
 20
-368.966
 21
-368.074
  0
LINE
  8
0
 10
-95.457
 11
-98.28
 20
-368.074
 21
-366.817
  0
LINE
  8
0
 10
-98.28
 11
-100.923
 20
-366.817
 21
-365.216
  0
LINE
  8
0
 10
-100.923
 11
-103.345
 20
-365.216
 21
-363.297
  0
LINE
  8
0
 10
-103.345
 11
-105.506
 20
-363.297
 21
-361.088
  0
LINE
  8
0
 10
-105.506
 11
-105.55
 20
-361.088
 21
-361.031
  0
LINE
  8
0
 10
-105.55
 11
-106.936
 20
-361.031
 21
-360.9
  0
LINE
  8
0
 10
-106.936
 11
-109.952
 20
-360.9
 21
-360.225
  0
LINE
  8
0
 10
-109.952
 11
-112.86
 20
-360.225
 21
-359.179
  0
LINE
  8
0
 10
-112.86
 11
-115.613
 20
-359.179
 21
-357.776
  0
LINE
  8
0
 10
-115.613
 11
-118.169
 20
-357.776
 21
-356.038
  0
LINE
  8
0
 10
-118.169
 11
-120.487
 20
-356.038
 21
-353.995
  0
LINE
  8
0
 10
-120.487
 11
-122.514
 20
-353.995
 21
-351.695
  0
LINE
  8
0
 10
-122.514
 11
-123.773
 20
-351.695
 21
-351.509
  0
LINE
  8
0
 10
-123.773
 11
-126.749
 20
-351.509
 21
-350.677
  0
LINE
  8
0
 10
-126.749
 11
-129.598
 20
-350.677
 21
-349.48
  0
LINE
  8
0
 10
-129.598
 11
-132.274
 20
-349.48
 21
-347.935
  0
LINE
  8
0
 10
-132.274
 11
-134.735
 20
-347.935
 21
-346.066
  0
LINE
  8
0
 10
-134.735
 11
-136.943
 20
-346.066
 21
-343.905
  0
LINE
  8
0
 10
-136.943
 11
-138.862
 20
-343.905
 21
-341.483
  0
LINE
  8
0
 10
-138.862
 11
-140.464
 20
-341.483
 21
-338.84
  0
LINE
  8
0
 10
-140.464
 11
-141.72
 20
-338.84
 21
-336.017
  0
LINE
  8
0
 10
-141.72
 11
-142.613
 20
-336.017
 21
-333.059
  0
LINE
  8
0
 10
-142.613
 11
-143.129
 20
-333.059
 21
-330.012
  0
LINE
  8
0
 10
-143.129
 11
-143.258
 20
-330.012
 21
-326.924
  0
LINE
  8
0
 10
-143.258
 11
-143.129
 20
326.924
 21
330.012
  0
LINE
  8
0
 10
-143.129
 11
-142.613
 20
330.012
 21
333.059
  0
LINE
  8
0
 10
-142.613
 11
-141.72
 20
333.059
 21
336.017
  0
LINE
  8
0
 10
-141.72
 11
-140.464
 20
336.017
 21
338.84
  0
LINE
  8
0
 10
-140.464
 11
-138.862
 20
338.84
 21
341.483
  0
LINE
  8
0
 10
-138.862
 11
-136.943
 20
341.483
 21
343.905
  0
LINE
  8
0
 10
-136.943
 11
-134.735
 20
343.905
 21
346.066
  0
LINE
  8
0
 10
-134.735
 11
-132.274
 20
346.066
 21
347.935
  0
LINE
  8
0
 10
-132.274
 11
-129.598
 20
347.935
 21
349.48
  0
LINE
  8
0
 10
-129.598
 11
-126.749
 20
349.48
 21
350.677
  0
LINE
  8
0
 10
-126.749
 11
-123.773
 20
350.677
 21
351.509
  0
LINE
  8
0
 10
-123.773
 11
-122.514
 20
351.509
 21
351.695
  0
LINE
  8
0
 10
-122.514
 11
-120.487
 20
351.695
 21
353.995
  0
LINE
  8
0
 10
-120.487
 11
-118.169
 20
353.995
 21
356.038
  0
LINE
  8
0
 10
-118.169
 11
-115.613
 20
356.038
 21
357.776
  0
LINE
  8
0
 10
-115.613
 11
-112.86
 20
357.776
 21
359.179
  0
LINE
  8
0
 10
-112.86
 11
-109.952
 20
359.179
 21
360.225
  0
LINE
  8
0
 10
-109.952
 11
-106.936
 20
360.225
 21
360.9
  0
LINE
  8
0
 10
-106.936
 11
-105.55
 20
360.9
 21
361.031
  0
LINE
  8
0
 10
-105.55
 11
-105.506
 20
361.031
 21
361.088
  0
LINE
  8
0
 10
-105.506
 11
-103.345
 20
361.088
 21
363.297
  0
LINE
  8
0
 10
-103.345
 11
-100.923
 20
363.297
 21
365.216
  0
LINE
  8
0
 10
-100.923
 11
-98.28
 20
365.216
 21
366.817
  0
LINE
  8
0
 10
-98.28
 11
-95.457
 20
366.817
 21
368.074
  0
LINE
  8
0
 10
-95.457
 11
-92.498
 20
368.074
 21
368.966
  0
LINE
  8
0
 10
-92.498
 11
-89.451
 20
368.966
 21
369.482
  0
LINE
  8
0
 10
-89.451
 11
-87.936
 20
369.482
 21
369.545
  0
LINE
  8
0
 10
-87.936
 11
-87.829
 20
369.545
 21
369.672
  0
LINE
  8
0
 10
-87.829
 11
-85.555
 20
369.672
 21
371.764
  0
LINE
  8
0
 10
-85.555
 11
-83.036
 20
371.764
 21
373.554
  0
LINE
  8
0
 10
-83.036
 11
-80.313
 20
373.554
 21
375.015
  0
LINE
  8
0
 10
-80.313
 11
-77.428
 20
375.015
 21
376.122
  0
LINE
  8
0
 10
-77.428
 11
-74.426
 20
376.122
 21
376.859
  0
LINE
  8
0
 10
-74.426
 11
-71.357
 20
376.859
 21
377.214
  0
LINE
  8
0
 10
-71.357
 11
-69.717
 20
377.214
 21
377.197
  0
LINE
  8
0
 10
-69.717
 11
-69.539
 20
377.197
 21
377.386
  0
LINE
  8
0
 10
-69.539
 11
-67.158
 20
377.386
 21
379.356
  0
LINE
  8
0
 10
-67.158
 11
-64.549
 20
379.356
 21
381.011
  0
LINE
  8
0
 10
-64.549
 11
-61.753
 20
381.011
 21
382.328
  0
LINE
  8
0
 10
-61.753
 11
-58.814
 20
382.328
 21
383.283
  0
LINE
  8
0
 10
-58.814
 11
-55.779
 20
383.283
 21
383.861
  0
LINE
  8
0
 10
-55.779
 11
-52.695
 20
383.861
 21
384.055
  0
LINE
  8
0
 10
-52.695
 11
-50.933
 20
384.055
 21
383.944
  0
LINE
  8
0
 10
-50.933
 11
-50.679
 20
383.944
 21
384.188
  0
LINE
  8
0
 10
-50.679
 11
-48.198
 20
384.188
 21
386.031
  0
LINE
  8
0
 10
-48.198
 11
-45.506
 20
386.031
 21
387.547
  0
LINE
  8
0
 10
-45.506
 11
-42.645
 20
387.547
 21
388.716
  0
LINE
  8
0
 10
-42.645
 11
-39.66
 20
388.716
 21
389.516
  0
LINE
  8
0
 10
-39.66
 11
-36.598
 20
389.516
 21
389.934
  0
LINE
  8
0
 10
-36.598
 11
-33.509
 20
389.934
 21
389.967
  0
LINE
  8
0
 10
-33.509
 11
-31.633
 20
389.967
 21
389.749
  0
LINE
  8
0
 10
-31.633
 11
-31.295
 20
389.749
 21
390.041
  0
LINE
  8
0
 10
-31.295
 11
-28.721
 20
390.041
 21
391.751
  0
LINE
  8
0
 10
-28.721
 11
-25.953
 20
391.751
 21
393.125
  0
LINE
  8
0
 10
-25.953
 11
-23.035
 20
393.125
 21
394.142
  0
LINE
  8
0
 10
-23.035
 11
-20.013
 20
394.142
 21
394.784
  0
LINE
  8
0
 10
-20.013
 11
-16.933
 20
394.784
 21
395.042
  0
LINE
  8
0
 10
-16.933
 11
-13.846
 20
395.042
 21
394.913
  0
LINE
  8
0
 10
-13.846
 11
-11.861
 20
394.913
 21
394.577
  0
LINE
  8
0
 10
-11.861
 11
-11.435
 20
394.577
 21
394.907
  0
LINE
  8
0
 10
-11.435
 11
-8.775
 20
394.907
 21
396.481
  0
LINE
  8
0
 10
-8.775
 11
-5.939
 20
396.481
 21
397.707
  0
LINE
  8
0
 10
-5.939
 11
-2.972
 20
397.707
 21
398.57
  0
LINE
  8
0
 10
-2.972
 11
0.08
 20
398.57
 21
399.054
  0
LINE
  8
0
 10
0.08
 11
3.169
 20
399.054
 21
399.15
  0
LINE
  8
0
 10
3.169
 11
6.245
 20
399.15
 21
398.86
  0
LINE
  8
0
 10
6.245
 11
8.331
 20
398.86
 21
398.393
  0
LINE
  8
0
 10
8.331
 11
8.85
 20
398.393
 21
398.754
  0
LINE
  8
0
 10
8.85
 11
11.589
 20
398.754
 21
400.186
  0
LINE
  8
0
 10
11.589
 11
14.485
 20
400.186
 21
401.262
  0
LINE
  8
0
 10
14.485
 11
17.494
 20
401.262
 21
401.969
  0
LINE
  8
0
 10
17.494
 11
20.567
 20
401.969
 21
402.292
  0
LINE
  8
0
 10
20.567
 11
23.657
 20
402.292
 21
402.226
  0
LINE
  8
0
 10
23.657
 11
26.713
 20
402.226
 21
401.775
  0
LINE
  8
0
 10
26.713
 11
28.892
 20
401.775
 21
401.167
  0
LINE
  8
0
 10
28.892
 11
29.508
 20
401.167
 21
401.549
  0
LINE
  8
0
 10
29.508
 11
32.318
 20
401.549
 21
402.835
  0
LINE
  8
0
 10
32.318
 11
35.266
 20
402.835
 21
403.759
  0
LINE
  8
0
 10
35.266
 11
38.308
 20
403.759
 21
404.307
  0
LINE
  8
0
 10
38.308
 11
41.393
 20
404.307
 21
404.469
  0
LINE
  8
0
 10
41.393
 11
44.476
 20
404.469
 21
404.242
  0
LINE
  8
0
 10
44.476
 11
47.505
 20
404.242
 21
403.631
  0
LINE
  8
0
 10
47.505
 11
49.766
 20
403.631
 21
402.87
  0
LINE
  8
0
 10
49.766
 11
50.483
 20
402.87
 21
403.264
  0
LINE
  8
0
 10
50.483
 11
53.356
 20
403.264
 21
404.402
  0
LINE
  8
0
 10
53.356
 11
56.349
 20
404.402
 21
405.17
  0
LINE
  8
0
 10
56.349
 11
59.415
 20
405.17
 21
405.558
  0
LINE
  8
0
 10
59.415
 11
62.505
 20
405.558
 21
405.558
  0
LINE
  8
0
 10
62.505
 11
65.571
 20
405.558
 21
405.17
  0
LINE
  8
0
 10
65.571
 11
68.564
 20
405.17
 21
404.402
  0
LINE
  8
0
 10
68.564
 11
70.898
 20
404.402
 21
403.478
  0
LINE
  8
0
 10
70.898
 11
71.718
 20
403.478
 21
403.874
  0
LINE
  8
0
 10
71.718
 11
74.647
 20
403.874
 21
404.86
  0
LINE
  8
0
 10
74.647
 11
77.676
 20
404.86
 21
405.47
  0
LINE
  8
0
 10
77.676
 11
80.758
 20
405.47
 21
405.697
  0
LINE
  8
0
 10
80.758
 11
83.844
 20
405.697
 21
405.536
  0
LINE
  8
0
 10
83.844
 11
86.885
 20
405.536
 21
404.988
  0
LINE
  8
0
 10
86.885
 11
89.834
 20
404.988
 21
404.064
  0
LINE
  8
0
 10
89.834
 11
92.23
 20
404.064
 21
402.967
  0
LINE
  8
0
 10
92.23
 11
93.156
 20
402.967
 21
403.356
  0
LINE
  8
0
 10
93.156
 11
96.132
 20
403.356
 21
404.188
  0
LINE
  8
0
 10
96.132
 11
99.189
 20
404.188
 21
404.639
  0
LINE
  8
0
 10
99.189
 11
102.278
 20
404.639
 21
404.704
  0
LINE
  8
0
 10
102.278
 11
105.351
 20
404.704
 21
404.381
  0
LINE
  8
0
 10
105.351
 11
108.36
 20
404.381
 21
403.675
  0
LINE
  8
0
 10
108.36
 11
111.256
 20
403.675
 21
402.598
  0
LINE
  8
0
 10
111.256
 11
113.701
 20
402.598
 21
401.32
  0
LINE
  8
0
 10
113.701
 11
114.734
 20
401.32
 21
401.691
  0
LINE
  8
0
 10
114.734
 11
117.75
 20
401.691
 21
402.366
  0
LINE
  8
0
 10
117.75
 11
120.826
 20
402.366
 21
402.656
  0
LINE
  8
0
 10
120.826
 11
123.915
 20
402.656
 21
402.56
  0
LINE
  8
0
 10
123.915
 11
126.967
 20
402.56
 21
402.076
  0
LINE
  8
0
 10
126.967
 11
129.934
 20
402.076
 21
401.213
  0
LINE
  8
0
 10
129.934
 11
132.77
 20
401.213
 21
399.987
  0
LINE
  8
0
 10
132.77
 11
135.251
 20
399.987
 21
398.519
  0
LINE
  8
0
 10
135.251
 11
136.392
 20
398.519
 21
398.863
  0
LINE
  8
0
 10
136.392
 11
139.439
 20
398.863
 21
399.378
  0
LINE
  8
0
 10
139.439
 11
142.526
 20
399.378
 21
399.507
  0
LINE
  8
0
 10
142.526
 11
145.605
 20
399.507
 21
399.249
  0
LINE
  8
0
 10
145.605
 11
148.628
 20
399.249
 21
398.607
  0
LINE
  8
0
 10
148.628
 11
151.546
 20
398.607
 21
397.59
  0
LINE
  8
0
 10
151.546
 11
154.314
 20
397.59
 21
396.217
  0
LINE
  8
0
 10
154.314
 11
156.819
 20
396.217
 21
394.552
  0
LINE
  8
0
 10
156.819
 11
158.066
 20
394.552
 21
394.858
  0
LINE
  8
0
 10
158.066
 11
161.135
 20
394.858
 21
395.214
  0
LINE
  8
0
 10
161.135
 11
164.225
 20
395.214
 21
395.181
  0
LINE
  8
0
 10
164.225
 11
167.287
 20
395.181
 21
394.762
  0
LINE
  8
0
 10
167.287
 11
170.272
 20
394.762
 21
393.962
  0
LINE
  8
0
 10
170.272
 11
173.133
 20
393.962
 21
392.794
  0
LINE
  8
0
 10
173.133
 11
175.825
 20
392.794
 21
391.278
  0
LINE
  8
0
 10
175.825
 11
178.306
 20
391.278
 21
389.435
  0
LINE
  8
0
 10
178.306
 11
178.333
 20
389.435
 21
389.409
  0
LINE
  8
0
 10
178.333
 11
179.692
 20
389.409
 21
389.668
  0
LINE
  8
0
 10
179.692
 11
182.776
 20
389.668
 21
389.862
  0
LINE
  8
0
 10
182.776
 11
185.86
 20
389.862
 21
389.668
  0
LINE
  8
0
 10
185.86
 11
188.895
 20
389.668
 21
389.089
  0
LINE
  8
0
 10
188.895
 11
191.834
 20
389.089
 21
388.135
  0
LINE
  8
0
 10
191.834
 11
194.63
 20
388.135
 21
386.818
  0
LINE
  8
0
 10
194.63
 11
197.239
 20
386.818
 21
385.163
  0
LINE
  8
0
 10
197.239
 11
199.62
 20
385.163
 21
383.193
  0
LINE
  8
0
 10
199.62
 11
199.723
 20
383.193
 21
383.084
  0
LINE
  8
0
 10
199.723
 11
201.205
 20
383.084
 21
383.286
  0
LINE
  8
0
 10
201.205
 11
204.295
 20
383.286
 21
383.319
  0
LINE
  8
0
 10
204.295
 11
207.364
 20
383.319
 21
382.964
  0
LINE
  8
0
 10
207.364
 11
210.365
 20
382.964
 21
382.227
  0
LINE
  8
0
 10
210.365
 11
213.25
 20
382.227
 21
381.12
  0
LINE
  8
0
 10
213.25
 11
215.973
 20
381.12
 21
379.659
  0
LINE
  8
0
 10
215.973
 11
218.492
 20
379.659
 21
377.869
  0
LINE
  8
0
 10
218.492
 11
220.767
 20
377.869
 21
375.777
  0
LINE
  8
0
 10
220.767
 11
220.936
 20
375.777
 21
375.578
  0
LINE
  8
0
 10
220.936
 11
222.538
 20
375.578
 21
375.712
  0
LINE
  8
0
 10
222.538
 11
225.626
 20
375.712
 21
375.583
  0
LINE
  8
0
 10
225.626
 11
228.672
 20
375.583
 21
375.067
  0
LINE
  8
0
 10
228.672
 11
231.631
 20
375.067
 21
374.174
  0
LINE
  8
0
 10
231.631
 11
234.454
 20
374.174
 21
372.917
  0
LINE
  8
0
 10
234.454
 11
237.097
 20
372.917
 21
371.316
  0
LINE
  8
0
 10
237.097
 11
239.519
 20
371.316
 21
369.397
  0
LINE
  8
0
 10
239.519
 11
241.681
 20
369.397
 21
367.189
  0
LINE
  8
0
 10
241.681
 11
241.907
 20
367.189
 21
366.891
  0
LINE
  8
0
 10
241.907
 11
243.626
 20
366.891
 21
366.945
  0
LINE
  8
0
 10
243.626
 11
246.703
 20
366.945
 21
366.654
  0
LINE
  8
0
 10
246.703
 11
249.718
 20
366.654
 21
365.98
  0
LINE
  8
0
 10
249.718
 11
252.626
 20
365.98
 21
364.934
  0
LINE
  8
0
 10
252.626
 11
255.379
 20
364.934
 21
363.531
  0
LINE
  8
0
 10
255.379
 11
257.935
 20
363.531
 21
361.793
  0
LINE
  8
0
 10
257.935
 11
260.253
 20
361.793
 21
359.75
  0
LINE
  8
0
 10
260.253
 11
262.296
 20
359.75
 21
357.432
  0
LINE
  8
0
 10
262.296
 11
262.57
 20
357.432
 21
357.03
  0
LINE
  8
0
 10
262.57
 11
264.402
 20
357.03
 21
356.991
  0
LINE
  8
0
 10
264.402
 11
267.459
 20
356.991
 21
356.54
  0
LINE
  8
0
 10
267.459
 11
270.435
 20
356.54
 21
355.709
  0
LINE
  8
0
 10
270.435
 11
273.284
 20
355.709
 21
354.512
  0
LINE
  8
0
 10
273.284
 11
275.96
 20
354.512
 21
352.967
  0
LINE
  8
0
 10
275.96
 11
278.421
 20
352.967
 21
351.098
  0
LINE
  8
0
 10
278.421
 11
280.629
 20
351.098
 21
348.936
  0
LINE
  8
0
 10
280.629
 11
282.548
 20
348.936
 21
346.514
  0
LINE
  8
0
 10
282.548
 11
284.149
 20
346.514
 21
343.871
  0
LINE
  8
0
 10
284.149
 11
285.406
 20
343.871
 21
341.048
  0
LINE
  8
0
 10
285.406
 11
286.299
 20
341.048
 21
338.09
  0
LINE
  8
0
 10
286.299
 11
286.814
 20
338.09
 21
335.043
  0
LINE
  8
0
 10
286.814
 11
286.944
 20
335.043
 21
331.956
  0
LINE
  8
0
 10
286.944
 11
286.685
 20
331.956
 21
328.877
  0
LINE
  8
0
 10
286.685
 11
286.042
 20
328.877
 21
325.854
  0
LINE
  8
0
 10
286.042
 11
285.026
 20
325.854
 21
322.936
  0
LINE
  8
0
 10
285.026
 11
283.652
 20
322.936
 21
320.168
  0
LINE
  8
0
 10
283.652
 11
281.942
 20
320.168
 21
317.594
  0
LINE
  8
0
 10
281.942
 11
279.923
 20
317.594
 21
315.256
  0
LINE
  8
0
 10
279.923
 11
277.627
 20
315.256
 21
313.188
  0
LINE
  8
0
 10
277.627
 11
275.09
 20
313.188
 21
311.424
  0
LINE
  8
0
 10
275.09
 11
272.351
 20
311.424
 21
309.992
  0
LINE
  8
0
 10
272.351
 11
269.455
 20
309.992
 21
308.915
  0
LINE
  8
0
 10
269.455
 11
266.447
 20
308.915
 21
308.21
  0
LINE
  8
0
 10
266.447
 11
263.373
 20
308.21
 21
307.886
  0
LINE
  8
0
 10
263.373
 11
260.284
 20
307.886
 21
307.952
  0
LINE
  8
0
 10
260.284
 11
257.227
 20
307.952
 21
308.403
  0
LINE
  8
0
 10
257.227
 11
254.251
 20
308.403
 21
309.234
  0
LINE
  8
0
 10
254.251
 11
251.402
 20
309.234
 21
310.431
  0
LINE
  8
0
 10
251.402
 11
248.726
 20
310.431
 21
311.976
  0
LINE
  8
0
 10
248.726
 11
246.265
 20
311.976
 21
313.845
  0
LINE
  8
0
 10
246.265
 11
244.057
 20
313.845
 21
316.007
  0
LINE
  8
0
 10
244.057
 11
242.656
 20
316.007
 21
317.775
  0
LINE
  8
0
 10
242.656
 11
242.081
 20
317.775
 21
317.757
  0
LINE
  8
0
 10
242.081
 11
239.004
 20
317.757
 21
318.047
  0
LINE
  8
0
 10
239.004
 11
235.989
 20
318.047
 21
318.722
  0
LINE
  8
0
 10
235.989
 11
233.081
 20
318.722
 21
319.768
  0
LINE
  8
0
 10
233.081
 11
230.328
 20
319.768
 21
321.171
  0
LINE
  8
0
 10
230.328
 11
227.772
 20
321.171
 21
322.909
  0
LINE
  8
0
 10
227.772
 11
225.454
 20
322.909
 21
324.952
  0
LINE
  8
0
 10
225.454
 11
224.046
 20
324.952
 21
326.55
  0
LINE
  8
0
 10
224.046
 11
223.569
 20
326.55
 21
326.51
  0
LINE
  8
0
 10
223.569
 11
220.482
 20
326.51
 21
326.639
  0
LINE
  8
0
 10
220.482
 11
217.435
 20
326.639
 21
327.155
  0
LINE
  8
0
 10
217.435
 11
214.477
 20
327.155
 21
328.048
  0
LINE
  8
0
 10
214.477
 11
211.654
 20
328.048
 21
329.305
  0
LINE
  8
0
 10
211.654
 11
209.011
 20
329.305
 21
330.906
  0
LINE
  8
0
 10
209.011
 11
206.589
 20
330.906
 21
332.825
  0
LINE
  8
0
 10
206.589
 11
205.185
 20
332.825
 21
334.258
  0
LINE
  8
0
 10
205.185
 11
204.809
 20
334.258
 21
334.207
  0
LINE
  8
0
 10
204.809
 11
201.719
 20
334.207
 21
334.174
  0
LINE
  8
0
 10
201.719
 11
198.65
 20
334.174
 21
334.53
  0
LINE
  8
0
 10
198.65
 11
195.649
 20
334.53
 21
335.266
  0
LINE
  8
0
 10
195.649
 11
192.764
 20
335.266
 21
336.373
  0
LINE
  8
0
 10
192.764
 11
190.04
 20
336.373
 21
337.834
  0
LINE
  8
0
 10
190.04
 11
187.521
 20
337.834
 21
339.624
  0
LINE
  8
0
 10
187.521
 11
186.137
 20
339.624
 21
340.897
  0
LINE
  8
0
 10
186.137
 11
185.86
 20
340.897
 21
340.844
  0
LINE
  8
0
 10
185.86
 11
182.776
 20
340.844
 21
340.65
  0
LINE
  8
0
 10
182.776
 11
179.692
 20
340.65
 21
340.844
  0
LINE
  8
0
 10
179.692
 11
176.657
 20
340.844
 21
341.423
  0
LINE
  8
0
 10
176.657
 11
173.718
 20
341.423
 21
342.377
  0
LINE
  8
0
 10
173.718
 11
170.922
 20
342.377
 21
343.694
  0
LINE
  8
0
 10
170.922
 11
168.313
 20
343.694
 21
345.349
  0
LINE
  8
0
 10
168.313
 11
166.961
 20
345.349
 21
346.468
  0
LINE
  8
0
 10
166.961
 11
166.781
 20
346.468
 21
346.424
  0
LINE
  8
0
 10
166.781
 11
163.711
 20
346.424
 21
346.068
  0
LINE
  8
0
 10
163.711
 11
160.622
 20
346.068
 21
346.101
  0
LINE
  8
0
 10
160.622
 11
157.56
 20
346.101
 21
346.52
  0
LINE
  8
0
 10
157.56
 11
154.575
 20
346.52
 21
347.32
  0
LINE
  8
0
 10
154.575
 11
151.714
 20
347.32
 21
348.488
  0
LINE
  8
0
 10
151.714
 11
149.022
 20
348.488
 21
350.004
  0
LINE
  8
0
 10
149.022
 11
147.713
 20
350.004
 21
350.976
  0
LINE
  8
0
 10
147.713
 11
147.63
 20
350.976
 21
350.951
  0
LINE
  8
0
 10
147.63
 11
144.583
 20
350.951
 21
350.435
  0
LINE
  8
0
 10
144.583
 11
141.496
 20
350.435
 21
350.306
  0
LINE
  8
0
 10
141.496
 11
138.416
 20
350.306
 21
350.564
  0
LINE
  8
0
 10
138.416
 11
135.394
 20
350.564
 21
351.207
  0
LINE
  8
0
 10
135.394
 11
132.475
 20
351.207
 21
352.224
  0
LINE
  8
0
 10
132.475
 11
129.707
 20
352.224
 21
353.597
  0
LINE
  8
0
 10
129.707
 11
128.453
 20
353.597
 21
354.431
  0
LINE
  8
0
 10
128.453
 11
125.449
 20
354.431
 21
353.759
  0
LINE
  8
0
 10
125.449
 11
122.372
 20
353.759
 21
353.469
  0
LINE
  8
0
 10
122.372
 11
119.283
 20
353.469
 21
353.565
  0
LINE
  8
0
 10
119.283
 11
116.231
 20
353.565
 21
354.048
  0
LINE
  8
0
 10
116.231
 11
113.264
 20
354.048
 21
354.911
  0
LINE
  8
0
 10
113.264
 11
110.428
 20
354.911
 21
356.138
  0
LINE
  8
0
 10
110.428
 11
109.224
 20
356.138
 21
356.85
  0
LINE
  8
0
 10
109.224
 11
106.364
 20
356.85
 21
356.05
  0
LINE
  8
0
 10
106.364
 11
103.307
 20
356.05
 21
355.599
  0
LINE
  8
0
 10
103.307
 11
100.217
 20
355.599
 21
355.534
  0
LINE
  8
0
 10
100.217
 11
97.144
 20
355.534
 21
355.857
  0
LINE
  8
0
 10
97.144
 11
94.136
 20
355.857
 21
356.563
  0
LINE
  8
0
 10
94.136
 11
91.239
 20
356.563
 21
357.64
  0
LINE
  8
0
 10
91.239
 11
90.097
 20
357.64
 21
358.237
  0
LINE
  8
0
 10
90.097
 11
87.385
 20
358.237
 21
357.324
  0
LINE
  8
0
 10
87.385
 11
84.356
 20
357.324
 21
356.714
  0
LINE
  8
0
 10
84.356
 11
81.273
 20
356.714
 21
356.487
  0
LINE
  8
0
 10
81.273
 11
78.188
 20
356.487
 21
356.649
  0
LINE
  8
0
 10
78.188
 11
75.146
 20
356.649
 21
357.197
  0
LINE
  8
0
 10
75.146
 11
72.198
 20
357.197
 21
358.12
  0
LINE
  8
0
 10
72.198
 11
71.124
 20
358.12
 21
358.612
  0
LINE
  8
0
 10
71.124
 11
68.564
 20
358.612
 21
357.598
  0
LINE
  8
0
 10
68.564
 11
65.571
 20
357.598
 21
356.83
  0
LINE
  8
0
 10
65.571
 11
62.505
 20
356.83
 21
356.442
  0
LINE
  8
0
 10
62.505
 11
59.415
 20
356.442
 21
356.442
  0
LINE
  8
0
 10
59.415
 11
56.349
 20
356.442
 21
356.83
  0
LINE
  8
0
 10
56.349
 11
53.356
 20
356.83
 21
357.598
  0
LINE
  8
0
 10
53.356
 11
52.359
 20
357.598
 21
357.993
  0
LINE
  8
0
 10
52.359
 11
49.954
 20
357.993
 21
356.892
  0
LINE
  8
0
 10
49.954
 11
47.005
 20
356.892
 21
355.968
  0
LINE
  8
0
 10
47.005
 11
43.964
 20
355.968
 21
355.42
  0
LINE
  8
0
 10
43.964
 11
40.878
 20
355.42
 21
355.258
  0
LINE
  8
0
 10
40.878
 11
37.796
 20
355.258
 21
355.485
  0
LINE
  8
0
 10
37.796
 11
34.767
 20
355.485
 21
356.096
  0
LINE
  8
0
 10
34.767
 11
33.854
 20
356.096
 21
356.403
  0
LINE
  8
0
 10
33.854
 11
31.606
 20
356.403
 21
355.228
  0
LINE
  8
0
 10
31.606
 11
28.709
 20
355.228
 21
354.151
  0
LINE
  8
0
 10
28.709
 11
25.701
 20
354.151
 21
353.445
  0
LINE
  8
0
 10
25.701
 11
22.628
 20
353.445
 21
353.122
  0
LINE
  8
0
 10
22.628
 11
19.538
 20
353.122
 21
353.187
  0
LINE
  8
0
 10
19.538
 11
16.481
 20
353.187
 21
353.638
  0
LINE
  8
0
 10
16.481
 11
15.657
 20
353.638
 21
353.868
  0
LINE
  8
0
 10
15.657
 11
13.567
 20
353.868
 21
352.632
  0
LINE
  8
0
 10
13.567
 11
10.731
 20
352.632
 21
351.405
  0
LINE
  8
0
 10
10.731
 11
7.764
 20
351.405
 21
350.542
  0
LINE
  8
0
 10
7.764
 11
4.712
 20
350.542
 21
350.059
  0
LINE
  8
0
 10
4.712
 11
1.623
 20
350.059
 21
349.962
  0
LINE
  8
0
 10
1.623
 11
-1.454
 20
349.962
 21
350.253
  0
LINE
  8
0
 10
-1.454
 11
-2.182
 20
350.253
 21
350.416
  0
LINE
  8
0
 10
-2.182
 11
-4.115
 20
350.416
 21
349.132
  0
LINE
  8
0
 10
-4.115
 11
-6.882
 20
349.132
 21
347.758
  0
LINE
  8
0
 10
-6.882
 11
-9.801
 20
347.758
 21
346.741
  0
LINE
  8
0
 10
-9.801
 11
-12.823
 20
346.741
 21
346.099
  0
LINE
  8
0
 10
-12.823
 11
-15.903
 20
346.099
 21
345.841
  0
LINE
  8
0
 10
-15.903
 11
-18.99
 20
345.841
 21
345.97
  0
LINE
  8
0
 10
-18.99
 11
-19.62
 20
345.97
 21
346.077
  0
LINE
  8
0
 10
-19.62
 11
-21.395
 20
346.077
 21
344.758
  0
LINE
  8
0
 10
-21.395
 11
-24.087
 20
344.758
 21
343.241
  0
LINE
  8
0
 10
-24.087
 11
-26.948
 20
343.241
 21
342.073
  0
LINE
  8
0
 10
-26.948
 11
-29.933
 20
342.073
 21
341.273
  0
LINE
  8
0
 10
-29.933
 11
-32.995
 20
341.273
 21
340.855
  0
LINE
  8
0
 10
-32.995
 11
-36.085
 20
340.855
 21
340.822
  0
LINE
  8
0
 10
-36.085
 11
-36.611
 20
340.822
 21
340.883
  0
LINE
  8
0
 10
-36.611
 11
-38.231
 20
340.883
 21
339.542
  0
LINE
  8
0
 10
-38.231
 11
-40.841
 20
339.542
 21
337.887
  0
LINE
  8
0
 10
-40.841
 11
-43.637
 20
337.887
 21
336.57
  0
LINE
  8
0
 10
-43.637
 11
-46.575
 20
336.57
 21
335.616
  0
LINE
  8
0
 10
-46.575
 11
-49.611
 20
335.616
 21
335.037
  0
LINE
  8
0
 10
-49.611
 11
-52.695
 20
335.037
 21
334.843
  0
LINE
  8
0
 10
-52.695
 11
-53.116
 20
334.843
 21
334.869
  0
LINE
  8
0
 10
-53.116
 11
-54.584
 20
334.869
 21
333.519
  0
LINE
  8
0
 10
-54.584
 11
-57.103
 20
333.519
 21
331.729
  0
LINE
  8
0
 10
-57.103
 11
-59.826
 20
331.729
 21
330.268
  0
LINE
  8
0
 10
-59.826
 11
-62.711
 20
330.268
 21
329.161
  0
LINE
  8
0
 10
-62.711
 11
-65.712
 20
329.161
 21
328.425
  0
LINE
  8
0
 10
-65.712
 11
-68.782
 20
328.425
 21
328.069
  0
LINE
  8
0
 10
-68.782
 11
-69.096
 20
328.069
 21
328.072
  0
LINE
  8
0
 10
-69.096
 11
-70.415
 20
328.072
 21
326.725
  0
LINE
  8
0
 10
-70.415
 11
-72.836
 20
326.725
 21
324.806
  0
LINE
  8
0
 10
-72.836
 11
-75.48
 20
324.806
 21
323.204
  0
LINE
  8
0
 10
-75.48
 11
-78.302
 20
323.204
 21
321.947
  0
LINE
  8
0
 10
-78.302
 11
-81.261
 20
321.947
 21
321.055
  0
LINE
  8
0
 10
-81.261
 11
-84.308
 20
321.055
 21
320.539
  0
LINE
  8
0
 10
-84.308
 11
-84.513
 20
320.539
 21
320.53
  0
LINE
  8
0
 10
-84.513
 11
-85.688
 20
320.53
 21
319.197
  0
LINE
  8
0
 10
-85.688
 11
-88.006
 20
319.197
 21
317.154
  0
LINE
  8
0
 10
-88.006
 11
-90.562
 20
317.154
 21
315.416
  0
LINE
  8
0
 10
-90.562
 11
-93.315
 20
315.416
 21
314.013
  0
LINE
  8
0
 10
-93.315
 11
-96.223
 20
314.013
 21
312.967
  0
LINE
  8
0
 10
-96.223
 11
-99.238
 20
312.967
 21
312.293
  0
LINE
  8
0
 10
-99.238
 11
-99.334
 20
312.293
 21
312.284
  0
LINE
  8
0
 10
-99.334
 11
-100.371
 20
312.284
 21
310.975
  0
LINE
  8
0
 10
-100.371
 11
-102.579
 20
310.975
 21
308.814
  0
LINE
  8
0
 10
-102.579
 11
-105.04
 20
308.814
 21
306.945
  0
LINE
  8
0
 10
-105.04
 11
-107.716
 20
306.945
 21
305.4
  0
LINE
  8
0
 10
-107.716
 11
-110.565
 20
305.4
 21
304.203
  0
LINE
  8
0
 10
-110.565
 11
-113.541
 20
304.203
 21
303.371
  0
LINE
  8
0
 10
-113.541
 11
-116.598
 20
303.371
 21
302.92
  0
LINE
  8
0
 10
-116.598
 11
-119.688
 20
302.92
 21
302.855
  0
LINE
  8
0
 10
-119.688
 11
-122.761
 20
302.855
 21
303.179
  0
LINE
  8
0
 10
-122.761
 11
-125.769
 20
303.179
 21
303.884
  0
LINE
  8
0
 10
-125.769
 11
-128.666
 20
303.884
 21
304.961
  0
LINE
  8
0
 10
-128.666
 11
-131.404
 20
304.961
 21
306.393
  0
LINE
  8
0
 10
-131.404
 11
-133.941
 20
306.393
 21
308.157
  0
LINE
  8
0
 10
-133.941
 11
-136.238
 20
308.157
 21
310.224
  0
LINE
  8
0
 10
-136.238
 11
-138.257
 20
310.224
 21
312.563
  0
LINE
  8
0
 10
-138.257
 11
-139.967
 20
312.563
 21
315.137
  0
LINE
  8
0
 10
-139.967
 11
-141.341
 20
315.137
 21
317.905
  0
LINE
  8
0
 10
-141.341
 11
-142.357
 20
317.905
 21
320.823
  0
LINE
  8
0
 10
-142.357
 11
-142.999
 20
320.823
 21
323.846
  0
LINE
  8
0
 10
-142.999
 11
-143.258
 20
323.846
 21
326.924
  0
LINE
  8
0
 10
-105.158
 11
-104.899
 20
-260.933
 21
-257.854
  0
LINE
  8
0
 10
-104.899
 11
-104.257
 20
-257.854
 21
-254.832
  0
LINE
  8
0
 10
-104.257
 11
-103.241
 20
-254.832
 21
-251.914
  0
LINE
  8
0
 10
-103.241
 11
-101.867
 20
-251.914
 21
-249.146
  0
LINE
  8
0
 10
-101.867
 11
-100.157
 20
-249.146
 21
-246.572
  0
LINE
  8
0
 10
-100.157
 11
-98.138
 20
-246.572
 21
-244.233
  0
LINE
  8
0
 10
-98.138
 11
-95.841
 20
-244.233
 21
-242.166
  0
LINE
  8
0
 10
-95.841
 11
-93.304
 20
-242.166
 21
-240.402
  0
LINE
  8
0
 10
-93.304
 11
-90.566
 20
-240.402
 21
-238.97
  0
LINE
  8
0
 10
-90.566
 11
-87.669
 20
-238.97
 21
-237.893
  0
LINE
  8
0
 10
-87.669
 11
-84.661
 20
-237.893
 21
-237.188
  0
LINE
  8
0
 10
-84.661
 11
-81.588
 20
-237.188
 21
-236.864
  0
LINE
  8
0
 10
-81.588
 11
-78.498
 20
-236.864
 21
-236.929
  0
LINE
  8
0
 10
-78.498
 11
-75.441
 20
-236.929
 21
-237.38
  0
LINE
  8
0
 10
-75.441
 11
-72.465
 20
-237.38
 21
-238.212
  0
LINE
  8
0
 10
-72.465
 11
-69.616
 20
-238.212
 21
-239.409
  0
LINE
  8
0
 10
-69.616
 11
-66.94
 20
-239.409
 21
-240.954
  0
LINE
  8
0
 10
-66.94
 11
-64.479
 20
-240.954
 21
-242.823
  0
LINE
  8
0
 10
-64.479
 11
-62.345
 20
-242.823
 21
-244.912
  0
LINE
  8
0
 10
-62.345
 11
-61.629
 20
-244.912
 21
-245.072
  0
LINE
  8
0
 10
-61.629
 11
-58.721
 20
-245.072
 21
-246.119
  0
LINE
  8
0
 10
-58.721
 11
-55.968
 20
-246.119
 21
-247.522
  0
LINE
  8
0
 10
-55.968
 11
-53.412
 20
-247.522
 21
-249.259
  0
LINE
  8
0
 10
-53.412
 11
-51.093
 20
-249.259
 21
-251.303
  0
LINE
  8
0
 10
-51.093
 11
-50.268
 20
-251.303
 21
-251.443
  0
LINE
  8
0
 10
-50.268
 11
-47.309
 20
-251.443
 21
-252.335
  0
LINE
  8
0
 10
-47.309
 11
-44.486
 20
-252.335
 21
-253.592
  0
LINE
  8
0
 10
-44.486
 11
-41.843
 20
-253.592
 21
-255.194
  0
LINE
  8
0
 10
-41.843
 11
-39.421
 20
-255.194
 21
-257.112
  0
LINE
  8
0
 10
-39.421
 11
-39.359
 20
-257.112
 21
-257.175
  0
LINE
  8
0
 10
-39.359
 11
-38.405
 20
-257.175
 21
-257.286
  0
LINE
  8
0
 10
-38.405
 11
-35.403
 20
-257.286
 21
-258.022
  0
LINE
  8
0
 10
-35.403
 11
-32.519
 20
-258.022
 21
-259.13
  0
LINE
  8
0
 10
-32.519
 11
-29.795
 20
-259.13
 21
-260.591
  0
LINE
  8
0
 10
-29.795
 11
-27.276
 20
-260.591
 21
-262.38
  0
LINE
  8
0
 10
-27.276
 11
-27.147
 20
-262.38
 21
-262.499
  0
LINE
  8
0
 10
-27.147
 11
-26.064
 20
-262.499
 21
-262.567
  0
LINE
  8
0
 10
-26.064
 11
-23.028
 20
-262.567
 21
-263.145
  0
LINE
  8
0
 10
-23.028
 11
-20.09
 20
-263.145
 21
-264.1
  0
LINE
  8
0
 10
-20.09
 11
-17.294
 20
-264.1
 21
-265.416
  0
LINE
  8
0
 10
-17.294
 11
-14.684
 20
-265.416
 21
-267.072
  0
LINE
  8
0
 10
-14.684
 11
-14.483
 20
-267.072
 21
-267.238
  0
LINE
  8
0
 10
-14.483
 11
-13.273
 20
-267.238
 21
-267.251
  0
LINE
  8
0
 10
-13.273
 11
-10.211
 20
-267.251
 21
-267.67
  0
LINE
  8
0
 10
-10.211
 11
-7.226
 20
-267.67
 21
-268.47
  0
LINE
  8
0
 10
-7.226
 11
-4.365
 20
-268.47
 21
-269.638
  0
LINE
  8
0
 10
-4.365
 11
-1.673
 20
-269.638
 21
-271.154
  0
LINE
  8
0
 10
-1.673
 11
-1.393
 20
-271.154
 21
-271.362
  0
LINE
  8
0
 10
-1.393
 11
-0.06
 20
-271.362
 21
-271.306
  0
LINE
  8
0
 10
-0.06
 11
3.02
 20
-271.306
 21
-271.564
  0
LINE
  8
0
 10
3.02
 11
6.042
 20
-271.564
 21
-272.207
  0
LINE
  8
0
 10
6.042
 11
8.96
 20
-272.207
 21
-273.224
  0
LINE
  8
0
 10
8.96
 11
11.728
 20
-273.224
 21
-274.597
  0
LINE
  8
0
 10
11.728
 11
12.09
 20
-274.597
 21
-274.838
  0
LINE
  8
0
 10
12.09
 11
13.543
 20
-274.838
 21
-274.701
  0
LINE
  8
0
 10
13.543
 11
16.632
 20
-274.701
 21
-274.797
  0
LINE
  8
0
 10
16.632
 11
19.684
 20
-274.797
 21
-275.28
  0
LINE
  8
0
 10
19.684
 11
22.652
 20
-275.28
 21
-276.143
  0
LINE
  8
0
 10
22.652
 11
25.488
 20
-276.143
 21
-277.37
  0
LINE
  8
0
 10
25.488
 11
25.936
 20
-277.37
 21
-277.635
  0
LINE
  8
0
 10
25.936
 11
27.503
 20
-277.635
 21
-277.404
  0
LINE
  8
0
 10
27.503
 11
30.593
 20
-277.404
 21
-277.339
  0
LINE
  8
0
 10
30.593
 11
33.666
 20
-277.339
 21
-277.662
  0
LINE
  8
0
 10
33.666
 11
36.674
 20
-277.662
 21
-278.368
  0
LINE
  8
0
 10
36.674
 11
39.571
 20
-278.368
 21
-279.445
  0
LINE
  8
0
 10
39.571
 11
40.11
 20
-279.445
 21
-279.727
  0
LINE
  8
0
 10
40.11
 11
41.784
 20
-279.727
 21
-279.39
  0
LINE
  8
0
 10
41.784
 11
44.866
 20
-279.39
 21
-279.163
  0
LINE
  8
0
 10
44.866
 11
47.952
 20
-279.163
 21
-279.324
  0
LINE
  8
0
 10
47.952
 11
50.993
 20
-279.324
 21
-279.872
  0
LINE
  8
0
 10
50.993
 11
53.942
 20
-279.872
 21
-280.796
  0
LINE
  8
0
 10
53.942
 11
54.574
 20
-280.796
 21
-281.085
  0
LINE
  8
0
 10
54.574
 11
56.349
 20
-281.085
 21
-280.63
  0
LINE
  8
0
 10
56.349
 11
59.415
 20
-280.63
 21
-280.242
  0
LINE
  8
0
 10
59.415
 11
62.505
 20
-280.242
 21
-280.242
  0
LINE
  8
0
 10
62.505
 11
65.571
 20
-280.242
 21
-280.63
  0
LINE
  8
0
 10
65.571
 11
68.564
 20
-280.63
 21
-281.398
  0
LINE
  8
0
 10
68.564
 11
69.291
 20
-281.398
 21
-281.686
  0
LINE
  8
0
 10
69.291
 11
71.158
 20
-281.686
 21
-281.101
  0
LINE
  8
0
 10
71.158
 11
74.2
 20
-281.101
 21
-280.553
  0
LINE
  8
0
 10
74.2
 11
77.285
 20
-280.553
 21
-280.391
  0
LINE
  8
0
 10
77.285
 11
80.368
 20
-280.391
 21
-280.618
  0
LINE
  8
0
 10
80.368
 11
83.397
 20
-280.618
 21
-281.229
  0
LINE
  8
0
 10
83.397
 11
84.22
 20
-281.229
 21
-281.506
  0
LINE
  8
0
 10
84.22
 11
86.171
 20
-281.506
 21
-280.781
  0
LINE
  8
0
 10
86.171
 11
89.179
 20
-280.781
 21
-280.075
  0
LINE
  8
0
 10
89.179
 11
92.252
 20
-280.075
 21
-279.752
  0
LINE
  8
0
 10
92.252
 11
95.342
 20
-279.752
 21
-279.817
  0
LINE
  8
0
 10
95.342
 11
98.399
 20
-279.817
 21
-280.268
  0
LINE
  8
0
 10
98.399
 11
99.319
 20
-280.268
 21
-280.525
  0
LINE
  8
0
 10
99.319
 11
101.343
 20
-280.525
 21
-279.649
  0
LINE
  8
0
 10
101.343
 11
104.311
 20
-279.649
 21
-278.786
  0
LINE
  8
0
 10
104.311
 11
107.363
 20
-278.786
 21
-278.303
  0
LINE
  8
0
 10
107.363
 11
110.452
 20
-278.303
 21
-278.207
  0
LINE
  8
0
 10
110.452
 11
113.528
 20
-278.207
 21
-278.497
  0
LINE
  8
0
 10
113.528
 11
114.545
 20
-278.497
 21
-278.725
  0
LINE
  8
0
 10
114.545
 11
116.632
 20
-278.725
 21
-277.689
  0
LINE
  8
0
 10
116.632
 11
119.551
 20
-277.689
 21
-276.672
  0
LINE
  8
0
 10
119.551
 11
122.573
 20
-276.672
 21
-276.029
  0
LINE
  8
0
 10
122.573
 11
125.653
 20
-276.029
 21
-275.772
  0
LINE
  8
0
 10
125.653
 11
128.74
 20
-275.772
 21
-275.9
  0
LINE
  8
0
 10
128.74
 11
129.854
 20
-275.9
 21
-276.089
  0
LINE
  8
0
 10
129.854
 11
131.992
 20
-276.089
 21
-274.884
  0
LINE
  8
0
 10
131.992
 11
134.853
 20
-274.884
 21
-273.716
  0
LINE
  8
0
 10
134.853
 11
137.838
 20
-273.716
 21
-272.916
  0
LINE
  8
0
 10
137.838
 11
140.9
 20
-272.916
 21
-272.498
  0
LINE
  8
0
 10
140.9
 11
143.989
 20
-272.498
 21
-272.465
  0
LINE
  8
0
 10
143.989
 11
145.197
 20
-272.465
 21
-272.605
  0
LINE
  8
0
 10
145.197
 11
147.375
 20
-272.605
 21
-271.223
  0
LINE
  8
0
 10
147.375
 11
150.171
 20
-271.223
 21
-269.907
  0
LINE
  8
0
 10
150.171
 11
153.109
 20
-269.907
 21
-268.952
  0
LINE
  8
0
 10
153.109
 11
156.145
 20
-268.952
 21
-268.374
  0
LINE
  8
0
 10
156.145
 11
159.229
 20
-268.374
 21
-268.179
  0
LINE
  8
0
 10
159.229
 11
160.529
 20
-268.179
 21
-268.261
  0
LINE
  8
0
 10
160.529
 11
162.733
 20
-268.261
 21
-266.696
  0
LINE
  8
0
 10
162.733
 11
165.456
 20
-266.696
 21
-265.235
  0
LINE
  8
0
 10
165.456
 11
168.341
 20
-265.235
 21
-264.127
  0
LINE
  8
0
 10
168.341
 11
171.342
 20
-264.127
 21
-263.391
  0
LINE
  8
0
 10
171.342
 11
174.412
 20
-263.391
 21
-263.035
  0
LINE
  8
0
 10
174.412
 11
175.801
 20
-263.035
 21
-263.05
  0
LINE
  8
0
 10
175.801
 11
178.017
 20
-263.05
 21
-261.294
  0
LINE
  8
0
 10
178.017
 11
180.66
 20
-261.294
 21
-259.692
  0
LINE
  8
0
 10
180.66
 11
183.483
 20
-259.692
 21
-258.436
  0
LINE
  8
0
 10
183.483
 11
186.442
 20
-258.436
 21
-257.543
  0
LINE
  8
0
 10
186.442
 11
189.489
 20
-257.543
 21
-257.027
  0
LINE
  8
0
 10
189.489
 11
190.964
 20
-257.027
 21
-256.965
  0
LINE
  8
0
 10
190.964
 11
193.178
 20
-256.965
 21
-255.014
  0
LINE
  8
0
 10
193.178
 11
195.734
 20
-255.014
 21
-253.276
  0
LINE
  8
0
 10
195.734
 11
198.487
 20
-253.276
 21
-251.873
  0
LINE
  8
0
 10
198.487
 11
201.395
 20
-251.873
 21
-250.827
  0
LINE
  8
0
 10
201.395
 11
204.41
 20
-250.827
 21
-250.153
  0
LINE
  8
0
 10
204.41
 11
205.966
 20
-250.153
 21
-250.006
  0
LINE
  8
0
 10
205.966
 11
208.165
 20
-250.006
 21
-247.854
  0
LINE
  8
0
 10
208.165
 11
210.626
 20
-247.854
 21
-245.985
  0
LINE
  8
0
 10
210.626
 11
213.302
 20
-245.985
 21
-244.44
  0
LINE
  8
0
 10
213.302
 11
216.151
 20
-244.44
 21
-243.243
  0
LINE
  8
0
 10
216.151
 11
219.127
 20
-243.243
 21
-242.411
  0
LINE
  8
0
 10
219.127
 11
222.184
 20
-242.411
 21
-241.96
  0
LINE
  8
0
 10
222.184
 11
225.273
 20
-241.96
 21
-241.895
  0
LINE
  8
0
 10
225.273
 11
228.347
 20
-241.895
 21
-242.219
  0
LINE
  8
0
 10
228.347
 11
231.355
 20
-242.219
 21
-242.924
  0
LINE
  8
0
 10
231.355
 11
234.251
 20
-242.924
 21
-244.001
  0
LINE
  8
0
 10
234.251
 11
236.99
 20
-244.001
 21
-245.433
  0
LINE
  8
0
 10
236.99
 11
239.527
 20
-245.433
 21
-247.197
  0
LINE
  8
0
 10
239.527
 11
241.823
 20
-247.197
 21
-249.264
  0
LINE
  8
0
 10
241.823
 11
243.842
 20
-249.264
 21
-251.603
  0
LINE
  8
0
 10
243.842
 11
245.552
 20
-251.603
 21
-254.177
  0
LINE
  8
0
 10
245.552
 11
246.926
 20
-254.177
 21
-256.945
  0
LINE
  8
0
 10
246.926
 11
247.942
 20
-256.945
 21
-259.863
  0
LINE
  8
0
 10
247.942
 11
248.585
 20
-259.863
 21
-262.886
  0
LINE
  8
0
 10
248.585
 11
248.844
 20
-262.886
 21
-265.964
  0
LINE
  8
0
 10
248.844
 11
248.714
 20
-265.964
 21
-269.052
  0
LINE
  8
0
 10
248.714
 11
248.199
 20
-269.052
 21
-272.099
  0
LINE
  8
0
 10
248.199
 11
247.306
 20
-272.099
 21
-275.057
  0
LINE
  8
0
 10
247.306
 11
246.049
 20
-275.057
 21
-277.88
  0
LINE
  8
0
 10
246.049
 11
244.448
 20
-277.88
 21
-280.523
  0
LINE
  8
0
 10
244.448
 11
242.529
 20
-280.523
 21
-282.945
  0
LINE
  8
0
 10
242.529
 11
240.321
 20
-282.945
 21
-285.106
  0
LINE
  8
0
 10
240.321
 11
237.86
 20
-285.106
 21
-286.975
  0
LINE
  8
0
 10
237.86
 11
235.184
 20
-286.975
 21
-288.52
  0
LINE
  8
0
 10
235.184
 11
232.335
 20
-288.52
 21
-289.717
  0
LINE
  8
0
 10
232.335
 11
229.359
 20
-289.717
 21
-290.549
  0
LINE
  8
0
 10
229.359
 11
226.429
 20
-290.549
 21
-290.981
  0
LINE
  8
0
 10
226.429
 11
225.659
 20
-290.981
 21
-291.855
  0
LINE
  8
0
 10
225.659
 11
223.341
 20
-291.855
 21
-293.898
  0
LINE
  8
0
 10
223.341
 11
220.785
 20
-293.898
 21
-295.636
  0
LINE
  8
0
 10
220.785
 11
218.032
 20
-295.636
 21
-297.039
  0
LINE
  8
0
 10
218.032
 11
215.124
 20
-297.039
 21
-298.085
  0
LINE
  8
0
 10
215.124
 11
212.108
 20
-298.085
 21
-298.76
  0
LINE
  8
0
 10
212.108
 11
209.266
 20
-298.76
 21
-299.028
  0
LINE
  8
0
 10
209.266
 11
208.525
 20
-299.028
 21
-299.785
  0
LINE
  8
0
 10
208.525
 11
206.104
 20
-299.785
 21
-301.704
  0
LINE
  8
0
 10
206.104
 11
203.46
 20
-301.704
 21
-303.305
  0
LINE
  8
0
 10
203.46
 11
200.638
 20
-303.305
 21
-304.562
  0
LINE
  8
0
 10
200.638
 11
197.679
 20
-304.562
 21
-305.455
  0
LINE
  8
0
 10
197.679
 11
194.632
 20
-305.455
 21
-305.97
  0
LINE
  8
0
 10
194.632
 11
191.886
 20
-305.97
 21
-306.085
  0
LINE
  8
0
 10
191.886
 11
191.185
 20
-306.085
 21
-306.73
  0
LINE
  8
0
 10
191.185
 11
188.666
 20
-306.73
 21
-308.52
  0
LINE
  8
0
 10
188.666
 11
185.942
 20
-308.52
 21
-309.981
  0
LINE
  8
0
 10
185.942
 11
183.058
 20
-309.981
 21
-311.088
  0
LINE
  8
0
 10
183.058
 11
180.056
 20
-311.088
 21
-311.825
  0
LINE
  8
0
 10
180.056
 11
176.987
 20
-311.825
 21
-312.18
  0
LINE
  8
0
 10
176.987
 11
174.344
 20
-312.18
 21
-312.153
  0
LINE
  8
0
 10
174.344
 11
173.692
 20
-312.153
 21
-312.692
  0
LINE
  8
0
 10
173.692
 11
171.083
 20
-312.692
 21
-314.348
  0
LINE
  8
0
 10
171.083
 11
168.287
 20
-314.348
 21
-315.664
  0
LINE
  8
0
 10
168.287
 11
165.348
 20
-315.664
 21
-316.619
  0
LINE
  8
0
 10
165.348
 11
162.313
 20
-316.619
 21
-317.197
  0
LINE
  8
0
 10
162.313
 11
159.229
 20
-317.197
 21
-317.392
  0
LINE
  8
0
 10
159.229
 11
156.698
 20
-317.392
 21
-317.232
  0
LINE
  8
0
 10
156.698
 11
156.103
 20
-317.232
 21
-317.674
  0
LINE
  8
0
 10
156.103
 11
153.411
 20
-317.674
 21
-319.19
  0
LINE
  8
0
 10
153.411
 11
150.55
 20
-319.19
 21
-320.359
  0
LINE
  8
0
 10
150.55
 11
147.565
 20
-320.359
 21
-321.159
  0
LINE
  8
0
 10
147.565
 11
144.503
 20
-321.159
 21
-321.577
  0
LINE
  8
0
 10
144.503
 11
141.413
 20
-321.577
 21
-321.61
  0
LINE
  8
0
 10
141.413
 11
139
 20
-321.61
 21
-321.33
  0
LINE
  8
0
 10
139
 11
138.471
 20
-321.33
 21
-321.682
  0
LINE
  8
0
 10
138.471
 11
135.703
 20
-321.682
 21
-323.055
  0
LINE
  8
0
 10
135.703
 11
132.785
 20
-323.055
 21
-324.072
  0
LINE
  8
0
 10
132.785
 11
129.763
 20
-324.072
 21
-324.715
  0
LINE
  8
0
 10
129.763
 11
126.683
 20
-324.715
 21
-324.973
  0
LINE
  8
0
 10
126.683
 11
123.596
 20
-324.973
 21
-324.844
  0
LINE
  8
0
 10
123.596
 11
121.305
 20
-324.844
 21
-324.456
  0
LINE
  8
0
 10
121.305
 11
120.85
 20
-324.456
 21
-324.725
  0
LINE
  8
0
 10
120.85
 11
118.014
 20
-324.725
 21
-325.952
  0
LINE
  8
0
 10
118.014
 11
115.046
 20
-325.952
 21
-326.814
  0
LINE
  8
0
 10
115.046
 11
111.994
 20
-326.814
 21
-327.298
  0
LINE
  8
0
 10
111.994
 11
108.906
 20
-327.298
 21
-327.394
  0
LINE
  8
0
 10
108.906
 11
105.829
 20
-327.394
 21
-327.104
  0
LINE
  8
0
 10
105.829
 11
103.665
 20
-327.104
 21
-326.62
  0
LINE
  8
0
 10
103.665
 11
103.291
 20
-326.62
 21
-326.815
  0
LINE
  8
0
 10
103.291
 11
100.395
 20
-326.815
 21
-327.892
  0
LINE
  8
0
 10
100.395
 11
97.386
 20
-327.892
 21
-328.598
  0
LINE
  8
0
 10
97.386
 11
94.313
 20
-328.598
 21
-328.921
  0
LINE
  8
0
 10
94.313
 11
91.224
 20
-328.921
 21
-328.856
  0
LINE
  8
0
 10
91.224
 11
88.167
 20
-328.856
 21
-328.405
  0
LINE
  8
0
 10
88.167
 11
86.133
 20
-328.405
 21
-327.837
  0
LINE
  8
0
 10
86.133
 11
85.846
 20
-327.837
 21
-327.969
  0
LINE
  8
0
 10
85.846
 11
82.897
 20
-327.969
 21
-328.892
  0
LINE
  8
0
 10
82.897
 11
79.856
 20
-328.892
 21
-329.44
  0
LINE
  8
0
 10
79.856
 11
76.77
 20
-329.44
 21
-329.602
  0
LINE
  8
0
 10
76.77
 11
73.688
 20
-329.602
 21
-329.375
  0
LINE
  8
0
 10
73.688
 11
70.659
 20
-329.375
 21
-328.765
  0
LINE
  8
0
 10
70.659
 11
68.759
 20
-328.765
 21
-328.125
  0
LINE
  8
0
 10
68.759
 11
68.564
 20
-328.125
 21
-328.202
  0
LINE
  8
0
 10
68.564
 11
65.571
 20
-328.202
 21
-328.97
  0
LINE
  8
0
 10
65.571
 11
62.505
 20
-328.97
 21
-329.358
  0
LINE
  8
0
 10
62.505
 11
59.415
 20
-329.358
 21
-329.358
  0
LINE
  8
0
 10
59.415
 11
56.349
 20
-329.358
 21
-328.97
  0
LINE
  8
0
 10
56.349
 11
53.356
 20
-328.97
 21
-328.202
  0
LINE
  8
0
 10
53.356
 11
51.591
 20
-328.202
 21
-327.503
  0
LINE
  8
0
 10
51.591
 11
51.493
 20
-327.503
 21
-327.536
  0
LINE
  8
0
 10
51.493
 11
48.464
 20
-327.536
 21
-328.146
  0
LINE
  8
0
 10
48.464
 11
45.381
 20
-328.146
 21
-328.373
  0
LINE
  8
0
 10
45.381
 11
42.296
 20
-328.373
 21
-328.211
  0
LINE
  8
0
 10
42.296
 11
39.254
 20
-328.211
 21
-327.663
  0
LINE
  8
0
 10
39.254
 11
36.306
 20
-327.663
 21
-326.74
  0
LINE
  8
0
 10
36.306
 11
34.676
 20
-326.74
 21
-325.993
  0
LINE
  8
0
 10
34.676
 11
31.622
 20
-325.993
 21
-326.444
  0
LINE
  8
0
 10
31.622
 11
28.532
 20
-326.444
 21
-326.509
  0
LINE
  8
0
 10
28.532
 11
25.459
 20
-326.509
 21
-326.186
  0
LINE
  8
0
 10
25.459
 11
22.45
 20
-326.186
 21
-325.48
  0
LINE
  8
0
 10
22.45
 11
19.554
 20
-325.48
 21
-324.403
  0
LINE
  8
0
 10
19.554
 11
18.037
 20
-324.403
 21
-323.61
  0
LINE
  8
0
 10
18.037
 11
15.09
 20
-323.61
 21
-323.888
  0
LINE
  8
0
 10
15.09
 11
12.001
 20
-323.888
 21
-323.792
  0
LINE
  8
0
 10
12.001
 11
8.949
 20
-323.792
 21
-323.308
  0
LINE
  8
0
 10
8.949
 11
5.981
 20
-323.308
 21
-322.445
  0
LINE
  8
0
 10
5.981
 11
3.145
 20
-322.445
 21
-321.219
  0
LINE
  8
0
 10
3.145
 11
1.742
 20
-321.219
 21
-320.389
  0
LINE
  8
0
 10
1.742
 11
-1.09
 20
-320.389
 21
-320.507
  0
LINE
  8
0
 10
-1.09
 11
-4.17
 20
-320.507
 21
-320.249
  0
LINE
  8
0
 10
-4.17
 11
-7.192
 20
-320.249
 21
-319.607
  0
LINE
  8
0
 10
-7.192
 11
-10.11
 20
-319.607
 21
-318.59
  0
LINE
  8
0
 10
-10.11
 11
-12.878
 20
-318.59
 21
-317.216
  0
LINE
  8
0
 10
-12.878
 11
-14.167
 20
-317.216
 21
-316.36
  0
LINE
  8
0
 10
-14.167
 11
-16.876
 20
-316.36
 21
-316.331
  0
LINE
  8
0
 10
-16.876
 11
-19.938
 20
-316.331
 21
-315.912
  0
LINE
  8
0
 10
-19.938
 11
-22.923
 20
-315.912
 21
-315.112
  0
LINE
  8
0
 10
-22.923
 11
-25.784
 20
-315.112
 21
-313.944
  0
LINE
  8
0
 10
-25.784
 11
-28.476
 20
-313.944
 21
-312.427
  0
LINE
  8
0
 10
-28.476
 11
-29.653
 20
-312.427
 21
-311.553
  0
LINE
  8
0
 10
-29.653
 11
-32.231
 20
-311.553
 21
-311.39
  0
LINE
  8
0
 10
-32.231
 11
-35.267
 20
-311.39
 21
-310.812
  0
LINE
  8
0
 10
-35.267
 11
-38.206
 20
-310.812
 21
-309.857
  0
LINE
  8
0
 10
-38.206
 11
-41.002
 20
-309.857
 21
-308.541
  0
LINE
  8
0
 10
-41.002
 11
-43.611
 20
-308.541
 21
-306.885
  0
LINE
  8
0
 10
-43.611
 11
-44.677
 20
-306.885
 21
-306.003
  0
LINE
  8
0
 10
-44.677
 11
-47.119
 20
-306.003
 21
-305.72
  0
LINE
  8
0
 10
-47.119
 11
-50.12
 20
-305.72
 21
-304.983
  0
LINE
  8
0
 10
-50.12
 11
-53.005
 20
-304.983
 21
-303.876
  0
LINE
  8
0
 10
-53.005
 11
-55.728
 20
-303.876
 21
-302.415
  0
LINE
  8
0
 10
-55.728
 11
-58.247
 20
-302.415
 21
-300.625
  0
LINE
  8
0
 10
-58.247
 11
-59.206
 20
-300.625
 21
-299.743
  0
LINE
  8
0
 10
-59.206
 11
-61.505
 20
-299.743
 21
-299.354
  0
LINE
  8
0
 10
-61.505
 11
-64.463
 20
-299.354
 21
-298.462
  0
LINE
  8
0
 10
-64.463
 11
-67.286
 20
-298.462
 21
-297.205
  0
LINE
  8
0
 10
-67.286
 11
-69.929
 20
-297.205
 21
-295.603
  0
LINE
  8
0
 10
-69.929
 11
-72.351
 20
-295.603
 21
-293.684
  0
LINE
  8
0
 10
-72.351
 11
-73.205
 20
-293.684
 21
-292.812
  0
LINE
  8
0
 10
-73.205
 11
-75.358
 20
-292.812
 21
-292.33
  0
LINE
  8
0
 10
-75.358
 11
-78.266
 20
-292.33
 21
-291.284
  0
LINE
  8
0
 10
-78.266
 11
-81.019
 20
-291.284
 21
-289.881
  0
LINE
  8
0
 10
-81.019
 11
-83.575
 20
-289.881
 21
-288.144
  0
LINE
  8
0
 10
-83.575
 11
-85.893
 20
-288.144
 21
-286.101
  0
LINE
  8
0
 10
-85.893
 11
-86.646
 20
-286.101
 21
-285.246
  0
LINE
  8
0
 10
-86.646
 11
-88.649
 20
-285.246
 21
-284.686
  0
LINE
  8
0
 10
-88.649
 11
-91.498
 20
-284.686
 21
-283.489
  0
LINE
  8
0
 10
-91.498
 11
-94.174
 20
-283.489
 21
-281.944
  0
LINE
  8
0
 10
-94.174
 11
-96.635
 20
-281.944
 21
-280.075
  0
LINE
  8
0
 10
-96.635
 11
-98.843
 20
-280.075
 21
-277.914
  0
LINE
  8
0
 10
-98.843
 11
-100.762
 20
-277.914
 21
-275.492
  0
LINE
  8
0
 10
-100.762
 11
-102.364
 20
-275.492
 21
-272.849
  0
LINE
  8
0
 10
-102.364
 11
-103.62
 20
-272.849
 21
-270.025
  0
LINE
  8
0
 10
-103.62
 11
-104.513
 20
-270.025
 21
-267.068
  0
LINE
  8
0
 10
-104.513
 11
-105.029
 20
-267.068
 21
-264.021
  0
LINE
  8
0
 10
-105.029
 11
-105.158
 20
-264.021
 21
-260.933
  0
LINE
  8
0
 10
-105.158
 11
-105.029
 20
260.933
 21
264.021
  0
LINE
  8
0
 10
-105.029
 11
-104.513
 20
264.021
 21
267.068
  0
LINE
  8
0
 10
-104.513
 11
-103.62
 20
267.068
 21
270.025
  0
LINE
  8
0
 10
-103.62
 11
-102.364
 20
270.025
 21
272.849
  0
LINE
  8
0
 10
-102.364
 11
-100.762
 20
272.849
 21
275.492
  0
LINE
  8
0
 10
-100.762
 11
-98.843
 20
275.492
 21
277.914
  0
LINE
  8
0
 10
-98.843
 11
-96.635
 20
277.914
 21
280.075
  0
LINE
  8
0
 10
-96.635
 11
-94.174
 20
280.075
 21
281.944
  0
LINE
  8
0
 10
-94.174
 11
-91.498
 20
281.944
 21
283.489
  0
LINE
  8
0
 10
-91.498
 11
-88.649
 20
283.489
 21
284.686
  0
LINE
  8
0
 10
-88.649
 11
-86.646
 20
284.686
 21
285.246
  0
LINE
  8
0
 10
-86.646
 11
-85.893
 20
285.246
 21
286.101
  0
LINE
  8
0
 10
-85.893
 11
-83.575
 20
286.101
 21
288.144
  0
LINE
  8
0
 10
-83.575
 11
-81.019
 20
288.144
 21
289.881
  0
LINE
  8
0
 10
-81.019
 11
-78.266
 20
289.881
 21
291.284
  0
LINE
  8
0
 10
-78.266
 11
-75.358
 20
291.284
 21
292.33
  0
LINE
  8
0
 10
-75.358
 11
-73.205
 20
292.33
 21
292.812
  0
LINE
  8
0
 10
-73.205
 11
-72.351
 20
292.812
 21
293.684
  0
LINE
  8
0
 10
-72.351
 11
-69.929
 20
293.684
 21
295.603
  0
LINE
  8
0
 10
-69.929
 11
-67.286
 20
295.603
 21
297.205
  0
LINE
  8
0
 10
-67.286
 11
-64.463
 20
297.205
 21
298.462
  0
LINE
  8
0
 10
-64.463
 11
-61.505
 20
298.462
 21
299.354
  0
LINE
  8
0
 10
-61.505
 11
-59.206
 20
299.354
 21
299.743
  0
LINE
  8
0
 10
-59.206
 11
-58.247
 20
299.743
 21
300.625
  0
LINE
  8
0
 10
-58.247
 11
-55.728
 20
300.625
 21
302.415
  0
LINE
  8
0
 10
-55.728
 11
-53.005
 20
302.415
 21
303.876
  0
LINE
  8
0
 10
-53.005
 11
-50.12
 20
303.876
 21
304.983
  0
LINE
  8
0
 10
-50.12
 11
-47.119
 20
304.983
 21
305.72
  0
LINE
  8
0
 10
-47.119
 11
-44.677
 20
305.72
 21
306.003
  0
LINE
  8
0
 10
-44.677
 11
-43.611
 20
306.003
 21
306.885
  0
LINE
  8
0
 10
-43.611
 11
-41.002
 20
306.885
 21
308.541
  0
LINE
  8
0
 10
-41.002
 11
-38.206
 20
308.541
 21
309.857
  0
LINE
  8
0
 10
-38.206
 11
-35.267
 20
309.857
 21
310.812
  0
LINE
  8
0
 10
-35.267
 11
-32.231
 20
310.812
 21
311.39
  0
LINE
  8
0
 10
-32.231
 11
-29.653
 20
311.39
 21
311.553
  0
LINE
  8
0
 10
-29.653
 11
-28.476
 20
311.553
 21
312.427
  0
LINE
  8
0
 10
-28.476
 11
-25.784
 20
312.427
 21
313.944
  0
LINE
  8
0
 10
-25.784
 11
-22.923
 20
313.944
 21
315.112
  0
LINE
  8
0
 10
-22.923
 11
-19.938
 20
315.112
 21
315.912
  0
LINE
  8
0
 10
-19.938
 11
-16.876
 20
315.912
 21
316.331
  0
LINE
  8
0
 10
-16.876
 11
-14.167
 20
316.331
 21
316.36
  0
LINE
  8
0
 10
-14.167
 11
-12.878
 20
316.36
 21
317.216
  0
LINE
  8
0
 10
-12.878
 11
-10.11
 20
317.216
 21
318.59
  0
LINE
  8
0
 10
-10.11
 11
-7.192
 20
318.59
 21
319.607
  0
LINE
  8
0
 10
-7.192
 11
-4.17
 20
319.607
 21
320.249
  0
LINE
  8
0
 10
-4.17
 11
-1.09
 20
320.249
 21
320.507
  0
LINE
  8
0
 10
-1.09
 11
1.742
 20
320.507
 21
320.389
  0
LINE
  8
0
 10
1.742
 11
3.145
 20
320.389
 21
321.219
  0
LINE
  8
0
 10
3.145
 11
5.981
 20
321.219
 21
322.445
  0
LINE
  8
0
 10
5.981
 11
8.949
 20
322.445
 21
323.308
  0
LINE
  8
0
 10
8.949
 11
12.001
 20
323.308
 21
323.792
  0
LINE
  8
0
 10
12.001
 11
15.09
 20
323.792
 21
323.888
  0
LINE
  8
0
 10
15.09
 11
18.037
 20
323.888
 21
323.61
  0
LINE
  8
0
 10
18.037
 11
19.554
 20
323.61
 21
324.403
  0
LINE
  8
0
 10
19.554
 11
22.45
 20
324.403
 21
325.48
  0
LINE
  8
0
 10
22.45
 11
25.459
 20
325.48
 21
326.186
  0
LINE
  8
0
 10
25.459
 11
28.532
 20
326.186
 21
326.509
  0
LINE
  8
0
 10
28.532
 11
31.622
 20
326.509
 21
326.444
  0
LINE
  8
0
 10
31.622
 11
34.676
 20
326.444
 21
325.993
  0
LINE
  8
0
 10
34.676
 11
36.306
 20
325.993
 21
326.74
  0
LINE
  8
0
 10
36.306
 11
39.254
 20
326.74
 21
327.663
  0
LINE
  8
0
 10
39.254
 11
42.296
 20
327.663
 21
328.211
  0
LINE
  8
0
 10
42.296
 11
45.381
 20
328.211
 21
328.373
  0
LINE
  8
0
 10
45.381
 11
48.464
 20
328.373
 21
328.146
  0
LINE
  8
0
 10
48.464
 11
51.493
 20
328.146
 21
327.536
  0
LINE
  8
0
 10
51.493
 11
51.591
 20
327.536
 21
327.503
  0
LINE
  8
0
 10
51.591
 11
53.356
 20
327.503
 21
328.202
  0
LINE
  8
0
 10
53.356
 11
56.349
 20
328.202
 21
328.97
  0
LINE
  8
0
 10
56.349
 11
59.415
 20
328.97
 21
329.358
  0
LINE
  8
0
 10
59.415
 11
62.505
 20
329.358
 21
329.358
  0
LINE
  8
0
 10
62.505
 11
65.571
 20
329.358
 21
328.97
  0
LINE
  8
0
 10
65.571
 11
68.564
 20
328.97
 21
328.202
  0
LINE
  8
0
 10
68.564
 11
68.759
 20
328.202
 21
328.125
  0
LINE
  8
0
 10
68.759
 11
70.659
 20
328.125
 21
328.765
  0
LINE
  8
0
 10
70.659
 11
73.688
 20
328.765
 21
329.375
  0
LINE
  8
0
 10
73.688
 11
76.77
 20
329.375
 21
329.602
  0
LINE
  8
0
 10
76.77
 11
79.856
 20
329.602
 21
329.44
  0
LINE
  8
0
 10
79.856
 11
82.897
 20
329.44
 21
328.892
  0
LINE
  8
0
 10
82.897
 11
85.846
 20
328.892
 21
327.969
  0
LINE
  8
0
 10
85.846
 11
86.133
 20
327.969
 21
327.837
  0
LINE
  8
0
 10
86.133
 11
88.167
 20
327.837
 21
328.405
  0
LINE
  8
0
 10
88.167
 11
91.224
 20
328.405
 21
328.856
  0
LINE
  8
0
 10
91.224
 11
94.313
 20
328.856
 21
328.921
  0
LINE
  8
0
 10
94.313
 11
97.386
 20
328.921
 21
328.598
  0
LINE
  8
0
 10
97.386
 11
100.395
 20
328.598
 21
327.892
  0
LINE
  8
0
 10
100.395
 11
103.291
 20
327.892
 21
326.815
  0
LINE
  8
0
 10
103.291
 11
103.665
 20
326.815
 21
326.62
  0
LINE
  8
0
 10
103.665
 11
105.829
 20
326.62
 21
327.104
  0
LINE
  8
0
 10
105.829
 11
108.906
 20
327.104
 21
327.394
  0
LINE
  8
0
 10
108.906
 11
111.994
 20
327.394
 21
327.298
  0
LINE
  8
0
 10
111.994
 11
115.046
 20
327.298
 21
326.814
  0
LINE
  8
0
 10
115.046
 11
118.014
 20
326.814
 21
325.952
  0
LINE
  8
0
 10
118.014
 11
120.85
 20
325.952
 21
324.725
  0
LINE
  8
0
 10
120.85
 11
121.305
 20
324.725
 21
324.456
  0
LINE
  8
0
 10
121.305
 11
123.596
 20
324.456
 21
324.844
  0
LINE
  8
0
 10
123.596
 11
126.683
 20
324.844
 21
324.973
  0
LINE
  8
0
 10
126.683
 11
129.763
 20
324.973
 21
324.715
  0
LINE
  8
0
 10
129.763
 11
132.785
 20
324.715
 21
324.072
  0
LINE
  8
0
 10
132.785
 11
135.703
 20
324.072
 21
323.055
  0
LINE
  8
0
 10
135.703
 11
138.471
 20
323.055
 21
321.682
  0
LINE
  8
0
 10
138.471
 11
139
 20
321.682
 21
321.33
  0
LINE
  8
0
 10
139
 11
141.413
 20
321.33
 21
321.61
  0
LINE
  8
0
 10
141.413
 11
144.503
 20
321.61
 21
321.577
  0
LINE
  8
0
 10
144.503
 11
147.565
 20
321.577
 21
321.159
  0
LINE
  8
0
 10
147.565
 11
150.55
 20
321.159
 21
320.359
  0
LINE
  8
0
 10
150.55
 11
153.411
 20
320.359
 21
319.19
  0
LINE
  8
0
 10
153.411
 11
156.103
 20
319.19
 21
317.674
  0
LINE
  8
0
 10
156.103
 11
156.698
 20
317.674
 21
317.232
  0
LINE
  8
0
 10
156.698
 11
159.229
 20
317.232
 21
317.392
  0
LINE
  8
0
 10
159.229
 11
162.313
 20
317.392
 21
317.197
  0
LINE
  8
0
 10
162.313
 11
165.348
 20
317.197
 21
316.619
  0
LINE
  8
0
 10
165.348
 11
168.287
 20
316.619
 21
315.664
  0
LINE
  8
0
 10
168.287
 11
171.083
 20
315.664
 21
314.348
  0
LINE
  8
0
 10
171.083
 11
173.692
 20
314.348
 21
312.692
  0
LINE
  8
0
 10
173.692
 11
174.344
 20
312.692
 21
312.153
  0
LINE
  8
0
 10
174.344
 11
176.987
 20
312.153
 21
312.18
  0
LINE
  8
0
 10
176.987
 11
180.056
 20
312.18
 21
311.825
  0
LINE
  8
0
 10
180.056
 11
183.058
 20
311.825
 21
311.088
  0
LINE
  8
0
 10
183.058
 11
185.942
 20
311.088
 21
309.981
  0
LINE
  8
0
 10
185.942
 11
188.666
 20
309.981
 21
308.52
  0
LINE
  8
0
 10
188.666
 11
191.185
 20
308.52
 21
306.73
  0
LINE
  8
0
 10
191.185
 11
191.886
 20
306.73
 21
306.085
  0
LINE
  8
0
 10
191.886
 11
194.632
 20
306.085
 21
305.97
  0
LINE
  8
0
 10
194.632
 11
197.679
 20
305.97
 21
305.455
  0
LINE
  8
0
 10
197.679
 11
200.638
 20
305.455
 21
304.562
  0
LINE
  8
0
 10
200.638
 11
203.46
 20
304.562
 21
303.305
  0
LINE
  8
0
 10
203.46
 11
206.104
 20
303.305
 21
301.704
  0
LINE
  8
0
 10
206.104
 11
208.525
 20
301.704
 21
299.785
  0
LINE
  8
0
 10
208.525
 11
209.266
 20
299.785
 21
299.028
  0
LINE
  8
0
 10
209.266
 11
212.108
 20
299.028
 21
298.76
  0
LINE
  8
0
 10
212.108
 11
215.124
 20
298.76
 21
298.085
  0
LINE
  8
0
 10
215.124
 11
218.032
 20
298.085
 21
297.039
  0
LINE
  8
0
 10
218.032
 11
220.785
 20
297.039
 21
295.636
  0
LINE
  8
0
 10
220.785
 11
223.341
 20
295.636
 21
293.898
  0
LINE
  8
0
 10
223.341
 11
225.659
 20
293.898
 21
291.855
  0
LINE
  8
0
 10
225.659
 11
226.429
 20
291.855
 21
290.981
  0
LINE
  8
0
 10
226.429
 11
229.359
 20
290.981
 21
290.549
  0
LINE
  8
0
 10
229.359
 11
232.335
 20
290.549
 21
289.717
  0
LINE
  8
0
 10
232.335
 11
235.184
 20
289.717
 21
288.52
  0
LINE
  8
0
 10
235.184
 11
237.86
 20
288.52
 21
286.975
  0
LINE
  8
0
 10
237.86
 11
240.321
 20
286.975
 21
285.106
  0
LINE
  8
0
 10
240.321
 11
242.529
 20
285.106
 21
282.945
  0
LINE
  8
0
 10
242.529
 11
244.448
 20
282.945
 21
280.523
  0
LINE
  8
0
 10
244.448
 11
246.049
 20
280.523
 21
277.88
  0
LINE
  8
0
 10
246.049
 11
247.306
 20
277.88
 21
275.057
  0
LINE
  8
0
 10
247.306
 11
248.199
 20
275.057
 21
272.099
  0
LINE
  8
0
 10
248.199
 11
248.714
 20
272.099
 21
269.052
  0
LINE
  8
0
 10
248.714
 11
248.844
 20
269.052
 21
265.964
  0
LINE
  8
0
 10
248.844
 11
248.585
 20
265.964
 21
262.886
  0
LINE
  8
0
 10
248.585
 11
247.942
 20
262.886
 21
259.863
  0
LINE
  8
0
 10
247.942
 11
246.926
 20
259.863
 21
256.945
  0
LINE
  8
0
 10
246.926
 11
245.552
 20
256.945
 21
254.177
  0
LINE
  8
0
 10
245.552
 11
243.842
 20
254.177
 21
251.603
  0
LINE
  8
0
 10
243.842
 11
241.823
 20
251.603
 21
249.264
  0
LINE
  8
0
 10
241.823
 11
239.527
 20
249.264
 21
247.197
  0
LINE
  8
0
 10
239.527
 11
236.99
 20
247.197
 21
245.433
  0
LINE
  8
0
 10
236.99
 11
234.251
 20
245.433
 21
244.001
  0
LINE
  8
0
 10
234.251
 11
231.355
 20
244.001
 21
242.924
  0
LINE
  8
0
 10
231.355
 11
228.347
 20
242.924
 21
242.219
  0
LINE
  8
0
 10
228.347
 11
225.273
 20
242.219
 21
241.895
  0
LINE
  8
0
 10
225.273
 11
222.184
 20
241.895
 21
241.96
  0
LINE
  8
0
 10
222.184
 11
219.127
 20
241.96
 21
242.411
  0
LINE
  8
0
 10
219.127
 11
216.151
 20
242.411
 21
243.243
  0
LINE
  8
0
 10
216.151
 11
213.302
 20
243.243
 21
244.44
  0
LINE
  8
0
 10
213.302
 11
210.626
 20
244.44
 21
245.985
  0
LINE
  8
0
 10
210.626
 11
208.165
 20
245.985
 21
247.854
  0
LINE
  8
0
 10
208.165
 11
205.966
 20
247.854
 21
250.006
  0
LINE
  8
0
 10
205.966
 11
204.41
 20
250.006
 21
250.153
  0
LINE
  8
0
 10
204.41
 11
201.395
 20
250.153
 21
250.827
  0
LINE
  8
0
 10
201.395
 11
198.487
 20
250.827
 21
251.873
  0
LINE
  8
0
 10
198.487
 11
195.734
 20
251.873
 21
253.276
  0
LINE
  8
0
 10
195.734
 11
193.178
 20
253.276
 21
255.014
  0
LINE
  8
0
 10
193.178
 11
190.964
 20
255.014
 21
256.965
  0
LINE
  8
0
 10
190.964
 11
189.489
 20
256.965
 21
257.027
  0
LINE
  8
0
 10
189.489
 11
186.442
 20
257.027
 21
257.543
  0
LINE
  8
0
 10
186.442
 11
183.483
 20
257.543
 21
258.436
  0
LINE
  8
0
 10
183.483
 11
180.66
 20
258.436
 21
259.692
  0
LINE
  8
0
 10
180.66
 11
178.017
 20
259.692
 21
261.294
  0
LINE
  8
0
 10
178.017
 11
175.801
 20
261.294
 21
263.05
  0
LINE
  8
0
 10
175.801
 11
174.412
 20
263.05
 21
263.035
  0
LINE
  8
0
 10
174.412
 11
171.342
 20
263.035
 21
263.391
  0
LINE
  8
0
 10
171.342
 11
168.341
 20
263.391
 21
264.127
  0
LINE
  8
0
 10
168.341
 11
165.456
 20
264.127
 21
265.235
  0
LINE
  8
0
 10
165.456
 11
162.733
 20
265.235
 21
266.696
  0
LINE
  8
0
 10
162.733
 11
160.529
 20
266.696
 21
268.261
  0
LINE
  8
0
 10
160.529
 11
159.229
 20
268.261
 21
268.179
  0
LINE
  8
0
 10
159.229
 11
156.145
 20
268.179
 21
268.374
  0
LINE
  8
0
 10
156.145
 11
153.109
 20
268.374
 21
268.952
  0
LINE
  8
0
 10
153.109
 11
150.171
 20
268.952
 21
269.907
  0
LINE
  8
0
 10
150.171
 11
147.375
 20
269.907
 21
271.223
  0
LINE
  8
0
 10
147.375
 11
145.197
 20
271.223
 21
272.605
  0
LINE
  8
0
 10
145.197
 11
143.989
 20
272.605
 21
272.465
  0
LINE
  8
0
 10
143.989
 11
140.9
 20
272.465
 21
272.498
  0
LINE
  8
0
 10
140.9
 11
137.838
 20
272.498
 21
272.916
  0
LINE
  8
0
 10
137.838
 11
134.853
 20
272.916
 21
273.716
  0
LINE
  8
0
 10
134.853
 11
131.992
 20
273.716
 21
274.884
  0
LINE
  8
0
 10
131.992
 11
129.854
 20
274.884
 21
276.089
  0
LINE
  8
0
 10
129.854
 11
128.74
 20
276.089
 21
275.9
  0
LINE
  8
0
 10
128.74
 11
125.653
 20
275.9
 21
275.772
  0
LINE
  8
0
 10
125.653
 11
122.573
 20
275.772
 21
276.029
  0
LINE
  8
0
 10
122.573
 11
119.551
 20
276.029
 21
276.672
  0
LINE
  8
0
 10
119.551
 11
116.632
 20
276.672
 21
277.689
  0
LINE
  8
0
 10
116.632
 11
114.545
 20
277.689
 21
278.725
  0
LINE
  8
0
 10
114.545
 11
113.528
 20
278.725
 21
278.497
  0
LINE
  8
0
 10
113.528
 11
110.452
 20
278.497
 21
278.207
  0
LINE
  8
0
 10
110.452
 11
107.363
 20
278.207
 21
278.303
  0
LINE
  8
0
 10
107.363
 11
104.311
 20
278.303
 21
278.786
  0
LINE
  8
0
 10
104.311
 11
101.343
 20
278.786
 21
279.649
  0
LINE
  8
0
 10
101.343
 11
99.319
 20
279.649
 21
280.525
  0
LINE
  8
0
 10
99.319
 11
98.399
 20
280.525
 21
280.268
  0
LINE
  8
0
 10
98.399
 11
95.342
 20
280.268
 21
279.817
  0
LINE
  8
0
 10
95.342
 11
92.252
 20
279.817
 21
279.752
  0
LINE
  8
0
 10
92.252
 11
89.179
 20
279.752
 21
280.075
  0
LINE
  8
0
 10
89.179
 11
86.171
 20
280.075
 21
280.781
  0
LINE
  8
0
 10
86.171
 11
84.22
 20
280.781
 21
281.506
  0
LINE
  8
0
 10
84.22
 11
83.397
 20
281.506
 21
281.229
  0
LINE
  8
0
 10
83.397
 11
80.368
 20
281.229
 21
280.618
  0
LINE
  8
0
 10
80.368
 11
77.285
 20
280.618
 21
280.391
  0
LINE
  8
0
 10
77.285
 11
74.2
 20
280.391
 21
280.553
  0
LINE
  8
0
 10
74.2
 11
71.158
 20
280.553
 21
281.101
  0
LINE
  8
0
 10
71.158
 11
69.291
 20
281.101
 21
281.686
  0
LINE
  8
0
 10
69.291
 11
68.564
 20
281.686
 21
281.398
  0
LINE
  8
0
 10
68.564
 11
65.571
 20
281.398
 21
280.63
  0
LINE
  8
0
 10
65.571
 11
62.505
 20
280.63
 21
280.242
  0
LINE
  8
0
 10
62.505
 11
59.415
 20
280.242
 21
280.242
  0
LINE
  8
0
 10
59.415
 11
56.349
 20
280.242
 21
280.63
  0
LINE
  8
0
 10
56.349
 11
54.574
 20
280.63
 21
281.085
  0
LINE
  8
0
 10
54.574
 11
53.942
 20
281.085
 21
280.796
  0
LINE
  8
0
 10
53.942
 11
50.993
 20
280.796
 21
279.872
  0
LINE
  8
0
 10
50.993
 11
47.952
 20
279.872
 21
279.324
  0
LINE
  8
0
 10
47.952
 11
44.866
 20
279.324
 21
279.163
  0
LINE
  8
0
 10
44.866
 11
41.784
 20
279.163
 21
279.39
  0
LINE
  8
0
 10
41.784
 11
40.11
 20
279.39
 21
279.727
  0
LINE
  8
0
 10
40.11
 11
39.571
 20
279.727
 21
279.445
  0
LINE
  8
0
 10
39.571
 11
36.674
 20
279.445
 21
278.368
  0
LINE
  8
0
 10
36.674
 11
33.666
 20
278.368
 21
277.662
  0
LINE
  8
0
 10
33.666
 11
30.593
 20
277.662
 21
277.339
  0
LINE
  8
0
 10
30.593
 11
27.503
 20
277.339
 21
277.404
  0
LINE
  8
0
 10
27.503
 11
25.936
 20
277.404
 21
277.635
  0
LINE
  8
0
 10
25.936
 11
25.488
 20
277.635
 21
277.37
  0
LINE
  8
0
 10
25.488
 11
22.652
 20
277.37
 21
276.143
  0
LINE
  8
0
 10
22.652
 11
19.684
 20
276.143
 21
275.28
  0
LINE
  8
0
 10
19.684
 11
16.632
 20
275.28
 21
274.797
  0
LINE
  8
0
 10
16.632
 11
13.543
 20
274.797
 21
274.701
  0
LINE
  8
0
 10
13.543
 11
12.09
 20
274.701
 21
274.838
  0
LINE
  8
0
 10
12.09
 11
11.728
 20
274.838
 21
274.597
  0
LINE
  8
0
 10
11.728
 11
8.96
 20
274.597
 21
273.224
  0
LINE
  8
0
 10
8.96
 11
6.042
 20
273.224
 21
272.207
  0
LINE
  8
0
 10
6.042
 11
3.02
 20
272.207
 21
271.564
  0
LINE
  8
0
 10
3.02
 11
-0.06
 20
271.564
 21
271.306
  0
LINE
  8
0
 10
-0.06
 11
-1.393
 20
271.306
 21
271.362
  0
LINE
  8
0
 10
-1.393
 11
-1.673
 20
271.362
 21
271.154
  0
LINE
  8
0
 10
-1.673
 11
-4.365
 20
271.154
 21
269.638
  0
LINE
  8
0
 10
-4.365
 11
-7.226
 20
269.638
 21
268.47
  0
LINE
  8
0
 10
-7.226
 11
-10.211
 20
268.47
 21
267.67
  0
LINE
  8
0
 10
-10.211
 11
-13.273
 20
267.67
 21
267.251
  0
LINE
  8
0
 10
-13.273
 11
-14.483
 20
267.251
 21
267.238
  0
LINE
  8
0
 10
-14.483
 11
-14.684
 20
267.238
 21
267.072
  0
LINE
  8
0
 10
-14.684
 11
-17.294
 20
267.072
 21
265.416
  0
LINE
  8
0
 10
-17.294
 11
-20.09
 20
265.416
 21
264.1
  0
LINE
  8
0
 10
-20.09
 11
-23.028
 20
264.1
 21
263.145
  0
LINE
  8
0
 10
-23.028
 11
-26.064
 20
263.145
 21
262.567
  0
LINE
  8
0
 10
-26.064
 11
-27.147
 20
262.567
 21
262.499
  0
LINE
  8
0
 10
-27.147
 11
-27.276
 20
262.499
 21
262.38
  0
LINE
  8
0
 10
-27.276
 11
-29.795
 20
262.38
 21
260.591
  0
LINE
  8
0
 10
-29.795
 11
-32.519
 20
260.591
 21
259.13
  0
LINE
  8
0
 10
-32.519
 11
-35.403
 20
259.13
 21
258.022
  0
LINE
  8
0
 10
-35.403
 11
-38.405
 20
258.022
 21
257.286
  0
LINE
  8
0
 10
-38.405
 11
-39.359
 20
257.286
 21
257.175
  0
LINE
  8
0
 10
-39.359
 11
-39.421
 20
257.175
 21
257.112
  0
LINE
  8
0
 10
-39.421
 11
-41.843
 20
257.112
 21
255.194
  0
LINE
  8
0
 10
-41.843
 11
-44.486
 20
255.194
 21
253.592
  0
LINE
  8
0
 10
-44.486
 11
-47.309
 20
253.592
 21
252.335
  0
LINE
  8
0
 10
-47.309
 11
-50.268
 20
252.335
 21
251.443
  0
LINE
  8
0
 10
-50.268
 11
-51.094
 20
251.443
 21
251.302
  0
LINE
  8
0
 10
-51.094
 11
-53.412
 20
251.302
 21
249.259
  0
LINE
  8
0
 10
-53.412
 11
-55.968
 20
249.259
 21
247.522
  0
LINE
  8
0
 10
-55.968
 11
-58.721
 20
247.522
 21
246.119
  0
LINE
  8
0
 10
-58.721
 11
-61.629
 20
246.119
 21
245.072
  0
LINE
  8
0
 10
-61.629
 11
-62.345
 20
245.072
 21
244.912
  0
LINE
  8
0
 10
-62.345
 11
-64.479
 20
244.912
 21
242.823
  0
LINE
  8
0
 10
-64.479
 11
-66.94
 20
242.823
 21
240.954
  0
LINE
  8
0
 10
-66.94
 11
-69.616
 20
240.954
 21
239.409
  0
LINE
  8
0
 10
-69.616
 11
-72.465
 20
239.409
 21
238.212
  0
LINE
  8
0
 10
-72.465
 11
-75.441
 20
238.212
 21
237.38
  0
LINE
  8
0
 10
-75.441
 11
-78.498
 20
237.38
 21
236.929
  0
LINE
  8
0
 10
-78.498
 11
-81.588
 20
236.929
 21
236.864
  0
LINE
  8
0
 10
-81.588
 11
-84.661
 20
236.864
 21
237.188
  0
LINE
  8
0
 10
-84.661
 11
-87.669
 20
237.188
 21
237.893
  0
LINE
  8
0
 10
-87.669
 11
-90.566
 20
237.893
 21
238.97
  0
LINE
  8
0
 10
-90.566
 11
-93.304
 20
238.97
 21
240.402
  0
LINE
  8
0
 10
-93.304
 11
-95.841
 20
240.402
 21
242.166
  0
LINE
  8
0
 10
-95.841
 11
-98.138
 20
242.166
 21
244.233
  0
LINE
  8
0
 10
-98.138
 11
-100.157
 20
244.233
 21
246.572
  0
LINE
  8
0
 10
-100.157
 11
-101.867
 20
246.572
 21
249.146
  0
LINE
  8
0
 10
-101.867
 11
-103.241
 20
249.146
 21
251.914
  0
LINE
  8
0
 10
-103.241
 11
-104.257
 20
251.914
 21
254.832
  0
LINE
  8
0
 10
-104.257
 11
-104.899
 20
254.832
 21
257.854
  0
LINE
  8
0
 10
-104.899
 11
-105.158
 20
257.854
 21
260.933
  0
LINE
  8
0
 10
-67.058
 11
-66.799
 20
-194.942
 21
-191.863
  0
LINE
  8
0
 10
-66.799
 11
-66.157
 20
-191.863
 21
-188.841
  0
LINE
  8
0
 10
-66.157
 11
-65.141
 20
-188.841
 21
-185.923
  0
LINE
  8
0
 10
-65.141
 11
-63.767
 20
-185.923
 21
-183.155
  0
LINE
  8
0
 10
-63.767
 11
-62.057
 20
-183.155
 21
-180.581
  0
LINE
  8
0
 10
-62.057
 11
-60.038
 20
-180.581
 21
-178.242
  0
LINE
  8
0
 10
-60.038
 11
-57.741
 20
-178.242
 21
-176.174
  0
LINE
  8
0
 10
-57.741
 11
-55.204
 20
-176.174
 21
-174.41
  0
LINE
  8
0
 10
-55.204
 11
-52.466
 20
-174.41
 21
-172.979
  0
LINE
  8
0
 10
-52.466
 11
-49.569
 20
-172.979
 21
-171.902
  0
LINE
  8
0
 10
-49.569
 11
-46.561
 20
-171.902
 21
-171.196
  0
LINE
  8
0
 10
-46.561
 11
-43.488
 20
-171.196
 21
-170.873
  0
LINE
  8
0
 10
-43.488
 11
-40.398
 20
-170.873
 21
-170.938
  0
LINE
  8
0
 10
-40.398
 11
-37.341
 20
-170.938
 21
-171.389
  0
LINE
  8
0
 10
-37.341
 11
-34.365
 20
-171.389
 21
-172.221
  0
LINE
  8
0
 10
-34.365
 11
-31.516
 20
-172.221
 21
-173.417
  0
LINE
  8
0
 10
-31.516
 11
-28.84
 20
-173.417
 21
-174.962
  0
LINE
  8
0
 10
-28.84
 11
-26.379
 20
-174.962
 21
-176.832
  0
LINE
  8
0
 10
-26.379
 11
-25.439
 20
-176.832
 21
-177.752
  0
LINE
  8
0
 10
-25.439
 11
-24.127
 20
-177.752
 21
-178.224
  0
LINE
  8
0
 10
-24.127
 11
-21.373
 20
-178.224
 21
-179.627
  0
LINE
  8
0
 10
-21.373
 11
-18.818
 20
-179.627
 21
-181.364
  0
LINE
  8
0
 10
-18.818
 11
-17.777
 20
-181.364
 21
-182.282
  0
LINE
  8
0
 10
-17.777
 11
-16.316
 20
-182.282
 21
-182.723
  0
LINE
  8
0
 10
-16.316
 11
-13.493
 20
-182.723
 21
-183.98
  0
LINE
  8
0
 10
-13.493
 11
-10.85
 20
-183.98
 21
-185.581
  0
LINE
  8
0
 10
-10.85
 11
-9.705
 20
-185.581
 21
-186.488
  0
LINE
  8
0
 10
-9.705
 11
-8.096
 20
-186.488
 21
-186.883
  0
LINE
  8
0
 10
-8.096
 11
-5.211
 20
-186.883
 21
-187.991
  0
LINE
  8
0
 10
-5.211
 11
-2.488
 20
-187.991
 21
-189.452
  0
LINE
  8
0
 10
-2.488
 11
-1.238
 20
-189.452
 21
-190.34
  0
LINE
  8
0
 10
-1.238
 11
0.519
 20
-190.34
 21
-190.675
  0
LINE
  8
0
 10
0.519
 11
3.457
 20
-190.675
 21
-191.629
  0
LINE
  8
0
 10
3.457
 11
6.254
 20
-191.629
 21
-192.946
  0
LINE
  8
0
 10
6.254
 11
7.611
 20
-192.946
 21
-193.807
  0
LINE
  8
0
 10
7.611
 11
9.511
 20
-193.807
 21
-194.066
  0
LINE
  8
0
 10
9.511
 11
12.496
 20
-194.066
 21
-194.866
  0
LINE
  8
0
 10
12.496
 11
15.357
 20
-194.866
 21
-196.034
  0
LINE
  8
0
 10
15.357
 11
16.819
 20
-196.034
 21
-196.858
  0
LINE
  8
0
 10
16.819
 11
18.862
 20
-196.858
 21
-197.029
  0
LINE
  8
0
 10
18.862
 11
21.885
 20
-197.029
 21
-197.672
  0
LINE
  8
0
 10
21.885
 11
24.803
 20
-197.672
 21
-198.689
  0
LINE
  8
0
 10
24.803
 11
26.372
 20
-198.689
 21
-199.467
  0
LINE
  8
0
 10
26.372
 11
28.552
 20
-199.467
 21
-199.535
  0
LINE
  8
0
 10
28.552
 11
31.604
 20
-199.535
 21
-200.019
  0
LINE
  8
0
 10
31.604
 11
34.572
 20
-200.019
 21
-200.881
  0
LINE
  8
0
 10
34.572
 11
36.247
 20
-200.881
 21
-201.606
  0
LINE
  8
0
 10
36.247
 11
38.558
 20
-201.606
 21
-201.557
  0
LINE
  8
0
 10
38.558
 11
41.631
 20
-201.557
 21
-201.88
  0
LINE
  8
0
 10
41.631
 11
44.64
 20
-201.88
 21
-202.586
  0
LINE
  8
0
 10
44.64
 11
46.416
 20
-202.586
 21
-203.247
  0
LINE
  8
0
 10
46.416
 11
48.854
 20
-203.247
 21
-203.067
  0
LINE
  8
0
 10
48.854
 11
51.94
 20
-203.067
 21
-203.229
  0
LINE
  8
0
 10
51.94
 11
54.981
 20
-203.229
 21
-203.777
  0
LINE
  8
0
 10
54.981
 11
56.861
 20
-203.777
 21
-204.365
  0
LINE
  8
0
 10
56.861
 11
59.415
 20
-204.365
 21
-204.042
  0
LINE
  8
0
 10
59.415
 11
62.505
 20
-204.042
 21
-204.042
  0
LINE
  8
0
 10
62.505
 11
65.571
 20
-204.042
 21
-204.43
  0
LINE
  8
0
 10
65.571
 11
67.549
 20
-204.43
 21
-204.938
  0
LINE
  8
0
 10
67.549
 11
70.212
 20
-204.938
 21
-204.458
  0
LINE
  8
0
 10
70.212
 11
73.297
 20
-204.458
 21
-204.296
  0
LINE
  8
0
 10
73.297
 11
76.38
 20
-204.296
 21
-204.523
  0
LINE
  8
0
 10
76.38
 11
78.452
 20
-204.523
 21
-204.94
  0
LINE
  8
0
 10
78.452
 11
81.214
 20
-204.94
 21
-204.292
  0
LINE
  8
0
 10
81.214
 11
84.287
 20
-204.292
 21
-203.969
  0
LINE
  8
0
 10
84.287
 11
87.377
 20
-203.969
 21
-204.034
  0
LINE
  8
0
 10
87.377
 11
89.54
 20
-204.034
 21
-204.353
  0
LINE
  8
0
 10
89.54
 11
92.391
 20
-204.353
 21
-203.525
  0
LINE
  8
0
 10
92.391
 11
95.443
 20
-203.525
 21
-203.041
  0
LINE
  8
0
 10
95.443
 11
98.532
 20
-203.041
 21
-202.945
  0
LINE
  8
0
 10
98.532
 11
100.783
 20
-202.945
 21
-203.157
  0
LINE
  8
0
 10
100.783
 11
100.79
 20
-203.157
 21
-203.154
  0
LINE
  8
0
 10
100.79
 11
103.708
 20
-203.154
 21
-202.137
  0
LINE
  8
0
 10
103.708
 11
106.73
 20
-202.137
 21
-201.495
  0
LINE
  8
0
 10
106.73
 11
109.81
 20
-201.495
 21
-201.237
  0
LINE
  8
0
 10
109.81
 11
112.173
 20
-201.237
 21
-201.336
  0
LINE
  8
0
 10
112.173
 11
112.27
 20
-201.336
 21
-201.281
  0
LINE
  8
0
 10
112.27
 11
115.131
 20
-201.281
 21
-200.113
  0
LINE
  8
0
 10
115.131
 11
118.116
 20
-200.113
 21
-199.313
  0
LINE
  8
0
 10
118.116
 11
121.178
 20
-199.313
 21
-198.894
  0
LINE
  8
0
 10
121.178
 11
123.647
 20
-198.894
 21
-198.868
  0
LINE
  8
0
 10
123.647
 11
123.828
 20
-198.868
 21
-198.753
  0
LINE
  8
0
 10
123.828
 11
126.624
 20
-198.753
 21
-197.436
  0
LINE
  8
0
 10
126.624
 11
129.562
 20
-197.436
 21
-196.482
  0
LINE
  8
0
 10
129.562
 11
132.598
 20
-196.482
 21
-195.903
  0
LINE
  8
0
 10
132.598
 11
135.165
 20
-195.903
 21
-195.742
  0
LINE
  8
0
 10
135.165
 11
135.425
 20
-195.742
 21
-195.557
  0
LINE
  8
0
 10
135.425
 11
138.148
 20
-195.557
 21
-194.096
  0
LINE
  8
0
 10
138.148
 11
141.033
 20
-194.096
 21
-192.988
  0
LINE
  8
0
 10
141.033
 11
144.035
 20
-192.988
 21
-192.252
  0
LINE
  8
0
 10
144.035
 11
146.694
 20
-192.252
 21
-191.944
  0
LINE
  8
0
 10
146.694
 11
147.024
 20
-191.944
 21
-191.682
  0
LINE
  8
0
 10
147.024
 11
149.667
 20
-191.682
 21
-190.08
  0
LINE
  8
0
 10
149.667
 11
152.49
 20
-190.08
 21
-188.823
  0
LINE
  8
0
 10
152.49
 11
155.449
 20
-188.823
 21
-187.931
  0
LINE
  8
0
 10
155.449
 11
158.189
 20
-187.931
 21
-187.467
  0
LINE
  8
0
 10
158.189
 11
158.584
 20
-187.467
 21
-187.119
  0
LINE
  8
0
 10
158.584
 11
161.14
 20
-187.119
 21
-185.382
  0
LINE
  8
0
 10
161.14
 11
163.893
 20
-185.382
 21
-183.979
  0
LINE
  8
0
 10
163.893
 11
166.801
 20
-183.979
 21
-182.932
  0
LINE
  8
0
 10
166.801
 11
169.616
 20
-182.932
 21
-182.303
  0
LINE
  8
0
 10
169.616
 11
170.065
 20
-182.303
 21
-181.863
  0
LINE
  8
0
 10
170.065
 11
172.526
 20
-181.863
 21
-179.994
  0
LINE
  8
0
 10
172.526
 11
175.202
 20
-179.994
 21
-178.449
  0
LINE
  8
0
 10
175.202
 11
178.051
 20
-178.449
 21
-177.252
  0
LINE
  8
0
 10
178.051
 11
181.027
 20
-177.252
 21
-176.42
  0
LINE
  8
0
 10
181.027
 11
184.084
 20
-176.42
 21
-175.969
  0
LINE
  8
0
 10
184.084
 11
187.173
 20
-175.969
 21
-175.904
  0
LINE
  8
0
 10
187.173
 11
190.247
 20
-175.904
 21
-176.228
  0
LINE
  8
0
 10
190.247
 11
193.255
 20
-176.228
 21
-176.933
  0
LINE
  8
0
 10
193.255
 11
196.151
 20
-176.933
 21
-178.01
  0
LINE
  8
0
 10
196.151
 11
198.89
 20
-178.01
 21
-179.442
  0
LINE
  8
0
 10
198.89
 11
201.427
 20
-179.442
 21
-181.206
  0
LINE
  8
0
 10
201.427
 11
203.723
 20
-181.206
 21
-183.273
  0
LINE
  8
0
 10
203.723
 11
205.742
 20
-183.273
 21
-185.612
  0
LINE
  8
0
 10
205.742
 11
207.452
 20
-185.612
 21
-188.186
  0
LINE
  8
0
 10
207.452
 11
208.826
 20
-188.186
 21
-190.954
  0
LINE
  8
0
 10
208.826
 11
209.842
 20
-190.954
 21
-193.872
  0
LINE
  8
0
 10
209.842
 11
210.485
 20
-193.872
 21
-196.894
  0
LINE
  8
0
 10
210.485
 11
210.744
 20
-196.894
 21
-199.973
  0
LINE
  8
0
 10
210.744
 11
210.614
 20
-199.973
 21
-203.061
  0
LINE
  8
0
 10
210.614
 11
210.099
 20
-203.061
 21
-206.108
  0
LINE
  8
0
 10
210.099
 11
209.206
 20
-206.108
 21
-209.065
  0
LINE
  8
0
 10
209.206
 11
207.949
 20
-209.065
 21
-211.889
  0
LINE
  8
0
 10
207.949
 11
206.348
 20
-211.889
 21
-214.532
  0
LINE
  8
0
 10
206.348
 11
204.429
 20
-214.532
 21
-216.954
  0
LINE
  8
0
 10
204.429
 11
202.221
 20
-216.954
 21
-219.115
  0
LINE
  8
0
 10
202.221
 11
199.76
 20
-219.115
 21
-220.984
  0
LINE
  8
0
 10
199.76
 11
197.084
 20
-220.984
 21
-222.529
  0
LINE
  8
0
 10
197.084
 11
194.235
 20
-222.529
 21
-223.726
  0
LINE
  8
0
 10
194.235
 11
191.259
 20
-223.726
 21
-224.558
  0
LINE
  8
0
 10
191.259
 11
190.212
 20
-224.558
 21
-224.712
  0
LINE
  8
0
 10
190.212
 11
188.747
 20
-224.712
 21
-226.004
  0
LINE
  8
0
 10
188.747
 11
186.191
 20
-226.004
 21
-227.741
  0
LINE
  8
0
 10
186.191
 11
183.438
 20
-227.741
 21
-229.144
  0
LINE
  8
0
 10
183.438
 11
180.53
 20
-229.144
 21
-230.19
  0
LINE
  8
0
 10
180.53
 11
177.514
 20
-230.19
 21
-230.865
  0
LINE
  8
0
 10
177.514
 11
176.543
 20
-230.865
 21
-230.957
  0
LINE
  8
0
 10
176.543
 11
175.11
 20
-230.957
 21
-232.092
  0
LINE
  8
0
 10
175.11
 11
172.467
 20
-232.092
 21
-233.693
  0
LINE
  8
0
 10
172.467
 11
169.644
 20
-233.693
 21
-234.95
  0
LINE
  8
0
 10
169.644
 11
166.686
 20
-234.95
 21
-235.843
  0
LINE
  8
0
 10
166.686
 11
163.639
 20
-235.843
 21
-236.358
  0
LINE
  8
0
 10
163.639
 11
162.746
 20
-236.358
 21
-236.395
  0
LINE
  8
0
 10
162.746
 11
161.358
 20
-236.395
 21
-237.381
  0
LINE
  8
0
 10
161.358
 11
158.635
 20
-237.381
 21
-238.842
  0
LINE
  8
0
 10
158.635
 11
155.75
 20
-238.842
 21
-239.95
  0
LINE
  8
0
 10
155.75
 11
152.749
 20
-239.95
 21
-240.686
  0
LINE
  8
0
 10
152.749
 11
149.679
 20
-240.686
 21
-241.042
  0
LINE
  8
0
 10
149.679
 11
148.866
 20
-241.042
 21
-241.033
  0
LINE
  8
0
 10
148.866
 11
147.536
 20
-241.033
 21
-241.877
  0
LINE
  8
0
 10
147.536
 11
144.74
 20
-241.877
 21
-243.194
  0
LINE
  8
0
 10
144.74
 11
141.801
 20
-243.194
 21
-244.148
  0
LINE
  8
0
 10
141.801
 11
138.765
 20
-244.148
 21
-244.727
  0
LINE
  8
0
 10
138.765
 11
135.682
 20
-244.727
 21
-244.921
  0
LINE
  8
0
 10
135.682
 11
134.952
 20
-244.921
 21
-244.875
  0
LINE
  8
0
 10
134.952
 11
133.689
 20
-244.875
 21
-245.587
  0
LINE
  8
0
 10
133.689
 11
130.828
 20
-245.587
 21
-246.755
  0
LINE
  8
0
 10
130.828
 11
127.843
 20
-246.755
 21
-247.555
  0
LINE
  8
0
 10
127.843
 11
124.781
 20
-247.555
 21
-247.974
  0
LINE
  8
0
 10
124.781
 11
121.691
 20
-247.974
 21
-248.007
  0
LINE
  8
0
 10
121.691
 11
121.046
 20
-248.007
 21
-247.932
  0
LINE
  8
0
 10
121.046
 11
119.861
 20
-247.932
 21
-248.52
  0
LINE
  8
0
 10
119.861
 11
116.942
 20
-248.52
 21
-249.537
  0
LINE
  8
0
 10
116.942
 11
113.92
 20
-249.537
 21
-250.18
  0
LINE
  8
0
 10
113.92
 11
110.84
 20
-250.18
 21
-250.438
  0
LINE
  8
0
 10
110.84
 11
107.753
 20
-250.438
 21
-250.309
  0
LINE
  8
0
 10
107.753
 11
107.194
 20
-250.309
 21
-250.214
  0
LINE
  8
0
 10
107.194
 11
106.094
 20
-250.214
 21
-250.69
  0
LINE
  8
0
 10
106.094
 11
103.126
 20
-250.69
 21
-251.553
  0
LINE
  8
0
 10
103.126
 11
100.074
 20
-251.553
 21
-252.036
  0
LINE
  8
0
 10
100.074
 11
96.985
 20
-252.036
 21
-252.132
  0
LINE
  8
0
 10
96.985
 11
93.909
 20
-252.132
 21
-251.842
  0
LINE
  8
0
 10
93.909
 11
93.436
 20
-251.842
 21
-251.736
  0
LINE
  8
0
 10
93.436
 11
92.43
 20
-251.736
 21
-252.11
  0
LINE
  8
0
 10
92.43
 11
89.421
 20
-252.11
 21
-252.816
  0
LINE
  8
0
 10
89.421
 11
86.348
 20
-252.816
 21
-253.139
  0
LINE
  8
0
 10
86.348
 11
83.258
 20
-253.139
 21
-253.073
  0
LINE
  8
0
 10
83.258
 11
80.202
 20
-253.073
 21
-252.623
  0
LINE
  8
0
 10
80.202
 11
79.812
 20
-252.623
 21
-252.514
  0
LINE
  8
0
 10
79.812
 11
78.909
 20
-252.514
 21
-252.797
  0
LINE
  8
0
 10
78.909
 11
75.868
 20
-252.797
 21
-253.345
  0
LINE
  8
0
 10
75.868
 11
72.782
 20
-253.345
 21
-253.506
  0
LINE
  8
0
 10
72.782
 11
69.7
 20
-253.506
 21
-253.279
  0
LINE
  8
0
 10
69.7
 11
66.671
 20
-253.279
 21
-252.669
  0
LINE
  8
0
 10
66.671
 11
66.365
 20
-252.669
 21
-252.566
  0
LINE
  8
0
 10
66.365
 11
65.571
 20
-252.566
 21
-252.77
  0
LINE
  8
0
 10
65.571
 11
62.505
 20
-252.77
 21
-253.158
  0
LINE
  8
0
 10
62.505
 11
59.415
 20
-253.158
 21
-253.158
  0
LINE
  8
0
 10
59.415
 11
56.349
 20
-253.158
 21
-252.77
  0
LINE
  8
0
 10
56.349
 11
53.356
 20
-252.77
 21
-252.002
  0
LINE
  8
0
 10
53.356
 11
53.133
 20
-252.002
 21
-251.914
  0
LINE
  8
0
 10
53.133
 11
52.452
 20
-251.914
 21
-252.051
  0
LINE
  8
0
 10
52.452
 11
49.369
 20
-252.051
 21
-252.278
  0
LINE
  8
0
 10
49.369
 11
46.284
 20
-252.278
 21
-252.116
  0
LINE
  8
0
 10
46.284
 11
43.242
 20
-252.116
 21
-251.568
  0
LINE
  8
0
 10
43.242
 11
40.294
 20
-251.568
 21
-250.644
  0
LINE
  8
0
 10
40.294
 11
40.15
 20
-250.644
 21
-250.578
  0
LINE
  8
0
 10
40.15
 11
39.587
 20
-250.578
 21
-250.661
  0
LINE
  8
0
 10
39.587
 11
36.497
 20
-250.661
 21
-250.726
  0
LINE
  8
0
 10
36.497
 11
33.424
 20
-250.726
 21
-250.403
  0
LINE
  8
0
 10
33.424
 11
30.415
 20
-250.403
 21
-249.697
  0
LINE
  8
0
 10
30.415
 11
27.519
 20
-249.697
 21
-248.62
  0
LINE
  8
0
 10
27.519
 11
27.451
 20
-248.62
 21
-248.584
  0
LINE
  8
0
 10
27.451
 11
27.01
 20
-248.584
 21
-248.626
  0
LINE
  8
0
 10
27.01
 11
23.921
 20
-248.626
 21
-248.53
  0
LINE
  8
0
 10
23.921
 11
20.869
 20
-248.53
 21
-248.046
  0
LINE
  8
0
 10
20.869
 11
17.901
 20
-248.046
 21
-247.184
  0
LINE
  8
0
 10
17.901
 11
15.069
 20
-247.184
 21
-245.959
  0
LINE
  8
0
 10
15.069
 11
14.753
 20
-245.959
 21
-245.972
  0
LINE
  8
0
 10
14.753
 11
11.673
 20
-245.972
 21
-245.714
  0
LINE
  8
0
 10
11.673
 11
8.651
 20
-245.714
 21
-245.072
  0
LINE
  8
0
 10
8.651
 11
5.732
 20
-245.072
 21
-244.055
  0
LINE
  8
0
 10
5.732
 11
3.059
 20
-244.055
 21
-242.729
  0
LINE
  8
0
 10
3.059
 11
2.846
 20
-242.729
 21
-242.727
  0
LINE
  8
0
 10
2.846
 11
-0.216
 20
-242.727
 21
-242.308
  0
LINE
  8
0
 10
-0.216
 11
-3.201
 20
-242.308
 21
-241.509
  0
LINE
  8
0
 10
-3.201
 11
-6.062
 20
-241.509
 21
-240.34
  0
LINE
  8
0
 10
-6.062
 11
-8.571
 20
-240.34
 21
-238.927
  0
LINE
  8
0
 10
-8.571
 11
-8.684
 20
-238.927
 21
-238.92
  0
LINE
  8
0
 10
-8.684
 11
-11.72
 20
-238.92
 21
-238.342
  0
LINE
  8
0
 10
-11.72
 11
-14.659
 20
-238.342
 21
-237.387
  0
LINE
  8
0
 10
-14.659
 11
-17.455
 20
-237.387
 21
-236.07
  0
LINE
  8
0
 10
-17.455
 11
-19.8
 20
-236.07
 21
-234.582
  0
LINE
  8
0
 10
-19.8
 11
-19.811
 20
-234.582
 21
-234.581
  0
LINE
  8
0
 10
-19.811
 11
-22.813
 20
-234.581
 21
-233.845
  0
LINE
  8
0
 10
-22.813
 11
-25.697
 20
-233.845
 21
-232.737
  0
LINE
  8
0
 10
-25.697
 11
-28.421
 20
-232.737
 21
-231.276
  0
LINE
  8
0
 10
-28.421
 11
-30.633
 20
-231.276
 21
-229.705
  0
LINE
  8
0
 10
-30.633
 11
-33.47
 20
-229.705
 21
-228.85
  0
LINE
  8
0
 10
-33.47
 11
-36.293
 20
-228.85
 21
-227.593
  0
LINE
  8
0
 10
-36.293
 11
-38.936
 20
-227.593
 21
-225.991
  0
LINE
  8
0
 10
-38.936
 11
-41.011
 20
-225.991
 21
-224.347
  0
LINE
  8
0
 10
-41.011
 11
-43.672
 20
-224.347
 21
-223.389
  0
LINE
  8
0
 10
-43.672
 11
-46.425
 20
-223.389
 21
-221.987
  0
LINE
  8
0
 10
-46.425
 11
-48.981
 20
-221.987
 21
-220.249
  0
LINE
  8
0
 10
-48.981
 11
-50.922
 20
-220.249
 21
-218.538
  0
LINE
  8
0
 10
-50.922
 11
-53.398
 20
-218.538
 21
-217.498
  0
LINE
  8
0
 10
-53.398
 11
-56.074
 20
-217.498
 21
-215.953
  0
LINE
  8
0
 10
-56.074
 11
-58.535
 20
-215.953
 21
-214.084
  0
LINE
  8
0
 10
-58.535
 11
-60.743
 20
-214.084
 21
-211.923
  0
LINE
  8
0
 10
-60.743
 11
-62.662
 20
-211.923
 21
-209.501
  0
LINE
  8
0
 10
-62.662
 11
-64.264
 20
-209.501
 21
-206.858
  0
LINE
  8
0
 10
-64.264
 11
-65.52
 20
-206.858
 21
-204.034
  0
LINE
  8
0
 10
-65.52
 11
-66.413
 20
-204.034
 21
-201.077
  0
LINE
  8
0
 10
-66.413
 11
-66.929
 20
-201.077
 21
-198.03
  0
LINE
  8
0
 10
-66.929
 11
-67.058
 20
-198.03
 21
-194.942
  0
LINE
  8
0
 10
-67.058
 11
-66.929
 20
194.942
 21
198.03
  0
LINE
  8
0
 10
-66.929
 11
-66.413
 20
198.03
 21
201.077
  0
LINE
  8
0
 10
-66.413
 11
-65.52
 20
201.077
 21
204.034
  0
LINE
  8
0
 10
-65.52
 11
-64.264
 20
204.034
 21
206.858
  0
LINE
  8
0
 10
-64.264
 11
-62.662
 20
206.858
 21
209.501
  0
LINE
  8
0
 10
-62.662
 11
-60.743
 20
209.501
 21
211.923
  0
LINE
  8
0
 10
-60.743
 11
-58.535
 20
211.923
 21
214.084
  0
LINE
  8
0
 10
-58.535
 11
-56.074
 20
214.084
 21
215.953
  0
LINE
  8
0
 10
-56.074
 11
-53.398
 20
215.953
 21
217.498
  0
LINE
  8
0
 10
-53.398
 11
-50.922
 20
217.498
 21
218.538
  0
LINE
  8
0
 10
-50.922
 11
-48.981
 20
218.538
 21
220.249
  0
LINE
  8
0
 10
-48.981
 11
-46.425
 20
220.249
 21
221.987
  0
LINE
  8
0
 10
-46.425
 11
-43.672
 20
221.987
 21
223.389
  0
LINE
  8
0
 10
-43.672
 11
-41.011
 20
223.389
 21
224.347
  0
LINE
  8
0
 10
-41.011
 11
-38.936
 20
224.347
 21
225.991
  0
LINE
  8
0
 10
-38.936
 11
-36.293
 20
225.991
 21
227.593
  0
LINE
  8
0
 10
-36.293
 11
-33.47
 20
227.593
 21
228.85
  0
LINE
  8
0
 10
-33.47
 11
-30.633
 20
228.85
 21
229.705
  0
LINE
  8
0
 10
-30.633
 11
-28.421
 20
229.705
 21
231.276
  0
LINE
  8
0
 10
-28.421
 11
-25.697
 20
231.276
 21
232.737
  0
LINE
  8
0
 10
-25.697
 11
-22.813
 20
232.737
 21
233.845
  0
LINE
  8
0
 10
-22.813
 11
-19.811
 20
233.845
 21
234.581
  0
LINE
  8
0
 10
-19.811
 11
-19.8
 20
234.581
 21
234.582
  0
LINE
  8
0
 10
-19.8
 11
-17.455
 20
234.582
 21
236.07
  0
LINE
  8
0
 10
-17.455
 11
-14.659
 20
236.07
 21
237.387
  0
LINE
  8
0
 10
-14.659
 11
-11.72
 20
237.387
 21
238.342
  0
LINE
  8
0
 10
-11.72
 11
-8.684
 20
238.342
 21
238.92
  0
LINE
  8
0
 10
-8.684
 11
-8.571
 20
238.92
 21
238.927
  0
LINE
  8
0
 10
-8.571
 11
-6.062
 20
238.927
 21
240.34
  0
LINE
  8
0
 10
-6.062
 11
-3.201
 20
240.34
 21
241.509
  0
LINE
  8
0
 10
-3.201
 11
-0.216
 20
241.509
 21
242.308
  0
LINE
  8
0
 10
-0.216
 11
2.846
 20
242.308
 21
242.727
  0
LINE
  8
0
 10
2.846
 11
3.059
 20
242.727
 21
242.729
  0
LINE
  8
0
 10
3.059
 11
5.732
 20
242.729
 21
244.055
  0
LINE
  8
0
 10
5.732
 11
8.651
 20
244.055
 21
245.072
  0
LINE
  8
0
 10
8.651
 11
11.673
 20
245.072
 21
245.714
  0
LINE
  8
0
 10
11.673
 11
14.753
 20
245.714
 21
245.972
  0
LINE
  8
0
 10
14.753
 11
15.069
 20
245.972
 21
245.959
  0
LINE
  8
0
 10
15.069
 11
17.901
 20
245.959
 21
247.184
  0
LINE
  8
0
 10
17.901
 11
20.869
 20
247.184
 21
248.046
  0
LINE
  8
0
 10
20.869
 11
23.921
 20
248.046
 21
248.53
  0
LINE
  8
0
 10
23.921
 11
27.01
 20
248.53
 21
248.626
  0
LINE
  8
0
 10
27.01
 11
27.451
 20
248.626
 21
248.584
  0
LINE
  8
0
 10
27.451
 11
27.519
 20
248.584
 21
248.62
  0
LINE
  8
0
 10
27.519
 11
30.415
 20
248.62
 21
249.697
  0
LINE
  8
0
 10
30.415
 11
33.424
 20
249.697
 21
250.403
  0
LINE
  8
0
 10
33.424
 11
36.497
 20
250.403
 21
250.726
  0
LINE
  8
0
 10
36.497
 11
39.587
 20
250.726
 21
250.661
  0
LINE
  8
0
 10
39.587
 11
40.15
 20
250.661
 21
250.578
  0
LINE
  8
0
 10
40.15
 11
40.294
 20
250.578
 21
250.644
  0
LINE
  8
0
 10
40.294
 11
43.242
 20
250.644
 21
251.568
  0
LINE
  8
0
 10
43.242
 11
46.284
 20
251.568
 21
252.116
  0
LINE
  8
0
 10
46.284
 11
49.369
 20
252.116
 21
252.278
  0
LINE
  8
0
 10
49.369
 11
52.452
 20
252.278
 21
252.051
  0
LINE
  8
0
 10
52.452
 11
53.133
 20
252.051
 21
251.914
  0
LINE
  8
0
 10
53.133
 11
53.356
 20
251.914
 21
252.002
  0
LINE
  8
0
 10
53.356
 11
56.349
 20
252.002
 21
252.77
  0
LINE
  8
0
 10
56.349
 11
59.415
 20
252.77
 21
253.158
  0
LINE
  8
0
 10
59.415
 11
62.505
 20
253.158
 21
253.158
  0
LINE
  8
0
 10
62.505
 11
65.571
 20
253.158
 21
252.77
  0
LINE
  8
0
 10
65.571
 11
66.365
 20
252.77
 21
252.566
  0
LINE
  8
0
 10
66.365
 11
66.671
 20
252.566
 21
252.669
  0
LINE
  8
0
 10
66.671
 11
69.7
 20
252.669
 21
253.279
  0
LINE
  8
0
 10
69.7
 11
72.782
 20
253.279
 21
253.506
  0
LINE
  8
0
 10
72.782
 11
75.868
 20
253.506
 21
253.345
  0
LINE
  8
0
 10
75.868
 11
78.909
 20
253.345
 21
252.797
  0
LINE
  8
0
 10
78.909
 11
79.812
 20
252.797
 21
252.514
  0
LINE
  8
0
 10
79.812
 11
80.202
 20
252.514
 21
252.623
  0
LINE
  8
0
 10
80.202
 11
83.258
 20
252.623
 21
253.073
  0
LINE
  8
0
 10
83.258
 11
86.348
 20
253.073
 21
253.139
  0
LINE
  8
0
 10
86.348
 11
89.421
 20
253.139
 21
252.816
  0
LINE
  8
0
 10
89.421
 11
92.43
 20
252.816
 21
252.11
  0
LINE
  8
0
 10
92.43
 11
93.436
 20
252.11
 21
251.736
  0
LINE
  8
0
 10
93.436
 11
93.909
 20
251.736
 21
251.842
  0
LINE
  8
0
 10
93.909
 11
96.985
 20
251.842
 21
252.132
  0
LINE
  8
0
 10
96.985
 11
100.074
 20
252.132
 21
252.036
  0
LINE
  8
0
 10
100.074
 11
103.126
 20
252.036
 21
251.553
  0
LINE
  8
0
 10
103.126
 11
106.094
 20
251.553
 21
250.69
  0
LINE
  8
0
 10
106.094
 11
107.194
 20
250.69
 21
250.214
  0
LINE
  8
0
 10
107.194
 11
107.753
 20
250.214
 21
250.309
  0
LINE
  8
0
 10
107.753
 11
110.84
 20
250.309
 21
250.438
  0
LINE
  8
0
 10
110.84
 11
113.92
 20
250.438
 21
250.18
  0
LINE
  8
0
 10
113.92
 11
116.942
 20
250.18
 21
249.537
  0
LINE
  8
0
 10
116.942
 11
119.861
 20
249.537
 21
248.52
  0
LINE
  8
0
 10
119.861
 11
121.046
 20
248.52
 21
247.932
  0
LINE
  8
0
 10
121.046
 11
121.691
 20
247.932
 21
248.007
  0
LINE
  8
0
 10
121.691
 11
124.781
 20
248.007
 21
247.974
  0
LINE
  8
0
 10
124.781
 11
127.843
 20
247.974
 21
247.555
  0
LINE
  8
0
 10
127.843
 11
130.828
 20
247.555
 21
246.755
  0
LINE
  8
0
 10
130.828
 11
133.689
 20
246.755
 21
245.587
  0
LINE
  8
0
 10
133.689
 11
134.952
 20
245.587
 21
244.875
  0
LINE
  8
0
 10
134.952
 11
135.682
 20
244.875
 21
244.921
  0
LINE
  8
0
 10
135.682
 11
138.765
 20
244.921
 21
244.727
  0
LINE
  8
0
 10
138.765
 11
141.801
 20
244.727
 21
244.148
  0
LINE
  8
0
 10
141.801
 11
144.74
 20
244.148
 21
243.194
  0
LINE
  8
0
 10
144.74
 11
147.536
 20
243.194
 21
241.877
  0
LINE
  8
0
 10
147.536
 11
148.866
 20
241.877
 21
241.033
  0
LINE
  8
0
 10
148.866
 11
149.679
 20
241.033
 21
241.042
  0
LINE
  8
0
 10
149.679
 11
152.749
 20
241.042
 21
240.686
  0
LINE
  8
0
 10
152.749
 11
155.75
 20
240.686
 21
239.95
  0
LINE
  8
0
 10
155.75
 11
158.635
 20
239.95
 21
238.842
  0
LINE
  8
0
 10
158.635
 11
161.358
 20
238.842
 21
237.381
  0
LINE
  8
0
 10
161.358
 11
162.746
 20
237.381
 21
236.395
  0
LINE
  8
0
 10
162.746
 11
163.639
 20
236.395
 21
236.358
  0
LINE
  8
0
 10
163.639
 11
166.686
 20
236.358
 21
235.843
  0
LINE
  8
0
 10
166.686
 11
169.644
 20
235.843
 21
234.95
  0
LINE
  8
0
 10
169.644
 11
172.467
 20
234.95
 21
233.693
  0
LINE
  8
0
 10
172.467
 11
175.11
 20
233.693
 21
232.092
  0
LINE
  8
0
 10
175.11
 11
176.543
 20
232.092
 21
230.957
  0
LINE
  8
0
 10
176.543
 11
177.514
 20
230.957
 21
230.865
  0
LINE
  8
0
 10
177.514
 11
180.53
 20
230.865
 21
230.19
  0
LINE
  8
0
 10
180.53
 11
183.438
 20
230.19
 21
229.144
  0
LINE
  8
0
 10
183.438
 11
186.191
 20
229.144
 21
227.741
  0
LINE
  8
0
 10
186.191
 11
188.747
 20
227.741
 21
226.004
  0
LINE
  8
0
 10
188.747
 11
190.212
 20
226.004
 21
224.712
  0
LINE
  8
0
 10
190.212
 11
191.259
 20
224.712
 21
224.558
  0
LINE
  8
0
 10
191.259
 11
194.235
 20
224.558
 21
223.726
  0
LINE
  8
0
 10
194.235
 11
197.084
 20
223.726
 21
222.529
  0
LINE
  8
0
 10
197.084
 11
199.76
 20
222.529
 21
220.984
  0
LINE
  8
0
 10
199.76
 11
202.221
 20
220.984
 21
219.115
  0
LINE
  8
0
 10
202.221
 11
204.429
 20
219.115
 21
216.954
  0
LINE
  8
0
 10
204.429
 11
206.348
 20
216.954
 21
214.532
  0
LINE
  8
0
 10
206.348
 11
207.949
 20
214.532
 21
211.889
  0
LINE
  8
0
 10
207.949
 11
209.206
 20
211.889
 21
209.065
  0
LINE
  8
0
 10
209.206
 11
210.099
 20
209.065
 21
206.108
  0
LINE
  8
0
 10
210.099
 11
210.614
 20
206.108
 21
203.061
  0
LINE
  8
0
 10
210.614
 11
210.744
 20
203.061
 21
199.973
  0
LINE
  8
0
 10
210.744
 11
210.485
 20
199.973
 21
196.894
  0
LINE
  8
0
 10
210.485
 11
209.842
 20
196.894
 21
193.872
  0
LINE
  8
0
 10
209.842
 11
208.826
 20
193.872
 21
190.954
  0
LINE
  8
0
 10
208.826
 11
207.452
 20
190.954
 21
188.186
  0
LINE
  8
0
 10
207.452
 11
205.742
 20
188.186
 21
185.612
  0
LINE
  8
0
 10
205.742
 11
203.723
 20
185.612
 21
183.273
  0
LINE
  8
0
 10
203.723
 11
201.427
 20
183.273
 21
181.206
  0
LINE
  8
0
 10
201.427
 11
198.89
 20
181.206
 21
179.442
  0
LINE
  8
0
 10
198.89
 11
196.151
 20
179.442
 21
178.01
  0
LINE
  8
0
 10
196.151
 11
193.255
 20
178.01
 21
176.933
  0
LINE
  8
0
 10
193.255
 11
190.247
 20
176.933
 21
176.228
  0
LINE
  8
0
 10
190.247
 11
187.173
 20
176.228
 21
175.904
  0
LINE
  8
0
 10
187.173
 11
184.084
 20
175.904
 21
175.969
  0
LINE
  8
0
 10
184.084
 11
181.027
 20
175.969
 21
176.42
  0
LINE
  8
0
 10
181.027
 11
178.051
 20
176.42
 21
177.252
  0
LINE
  8
0
 10
178.051
 11
175.202
 20
177.252
 21
178.449
  0
LINE
  8
0
 10
175.202
 11
172.526
 20
178.449
 21
179.994
  0
LINE
  8
0
 10
172.526
 11
170.065
 20
179.994
 21
181.863
  0
LINE
  8
0
 10
170.065
 11
169.616
 20
181.863
 21
182.303
  0
LINE
  8
0
 10
169.616
 11
166.801
 20
182.303
 21
182.932
  0
LINE
  8
0
 10
166.801
 11
163.893
 20
182.932
 21
183.979
  0
LINE
  8
0
 10
163.893
 11
161.14
 20
183.979
 21
185.382
  0
LINE
  8
0
 10
161.14
 11
158.584
 20
185.382
 21
187.119
  0
LINE
  8
0
 10
158.584
 11
158.189
 20
187.119
 21
187.467
  0
LINE
  8
0
 10
158.189
 11
155.449
 20
187.467
 21
187.931
  0
LINE
  8
0
 10
155.449
 11
152.49
 20
187.931
 21
188.823
  0
LINE
  8
0
 10
152.49
 11
149.667
 20
188.823
 21
190.08
  0
LINE
  8
0
 10
149.667
 11
147.024
 20
190.08
 21
191.682
  0
LINE
  8
0
 10
147.024
 11
146.694
 20
191.682
 21
191.944
  0
LINE
  8
0
 10
146.694
 11
144.035
 20
191.944
 21
192.252
  0
LINE
  8
0
 10
144.035
 11
141.033
 20
192.252
 21
192.988
  0
LINE
  8
0
 10
141.033
 11
138.148
 20
192.988
 21
194.096
  0
LINE
  8
0
 10
138.148
 11
135.425
 20
194.096
 21
195.557
  0
LINE
  8
0
 10
135.425
 11
135.165
 20
195.557
 21
195.742
  0
LINE
  8
0
 10
135.165
 11
132.598
 20
195.742
 21
195.903
  0
LINE
  8
0
 10
132.598
 11
129.562
 20
195.903
 21
196.482
  0
LINE
  8
0
 10
129.562
 11
126.624
 20
196.482
 21
197.436
  0
LINE
  8
0
 10
126.624
 11
123.828
 20
197.436
 21
198.753
  0
LINE
  8
0
 10
123.828
 11
123.647
 20
198.753
 21
198.868
  0
LINE
  8
0
 10
123.647
 11
121.178
 20
198.868
 21
198.894
  0
LINE
  8
0
 10
121.178
 11
118.116
 20
198.894
 21
199.313
  0
LINE
  8
0
 10
118.116
 11
115.131
 20
199.313
 21
200.113
  0
LINE
  8
0
 10
115.131
 11
112.27
 20
200.113
 21
201.281
  0
LINE
  8
0
 10
112.27
 11
112.173
 20
201.281
 21
201.336
  0
LINE
  8
0
 10
112.173
 11
109.81
 20
201.336
 21
201.237
  0
LINE
  8
0
 10
109.81
 11
106.73
 20
201.237
 21
201.495
  0
LINE
  8
0
 10
106.73
 11
103.708
 20
201.495
 21
202.137
  0
LINE
  8
0
 10
103.708
 11
100.79
 20
202.137
 21
203.154
  0
LINE
  8
0
 10
100.79
 11
100.783
 20
203.154
 21
203.157
  0
LINE
  8
0
 10
100.783
 11
98.532
 20
203.157
 21
202.945
  0
LINE
  8
0
 10
98.532
 11
95.443
 20
202.945
 21
203.041
  0
LINE
  8
0
 10
95.443
 11
92.391
 20
203.041
 21
203.525
  0
LINE
  8
0
 10
92.391
 11
89.54
 20
203.525
 21
204.353
  0
LINE
  8
0
 10
89.54
 11
87.377
 20
204.353
 21
204.034
  0
LINE
  8
0
 10
87.377
 11
84.287
 20
204.034
 21
203.969
  0
LINE
  8
0
 10
84.287
 11
81.214
 20
203.969
 21
204.292
  0
LINE
  8
0
 10
81.214
 11
78.452
 20
204.292
 21
204.94
  0
LINE
  8
0
 10
78.452
 11
76.38
 20
204.94
 21
204.523
  0
LINE
  8
0
 10
76.38
 11
73.297
 20
204.523
 21
204.296
  0
LINE
  8
0
 10
73.297
 11
70.212
 20
204.296
 21
204.458
  0
LINE
  8
0
 10
70.212
 11
67.549
 20
204.458
 21
204.938
  0
LINE
  8
0
 10
67.549
 11
65.571
 20
204.938
 21
204.43
  0
LINE
  8
0
 10
65.571
 11
62.505
 20
204.43
 21
204.042
  0
LINE
  8
0
 10
62.505
 11
59.415
 20
204.042
 21
204.042
  0
LINE
  8
0
 10
59.415
 11
56.861
 20
204.042
 21
204.365
  0
LINE
  8
0
 10
56.861
 11
54.981
 20
204.365
 21
203.777
  0
LINE
  8
0
 10
54.981
 11
51.94
 20
203.777
 21
203.229
  0
LINE
  8
0
 10
51.94
 11
48.854
 20
203.229
 21
203.067
  0
LINE
  8
0
 10
48.854
 11
46.416
 20
203.067
 21
203.247
  0
LINE
  8
0
 10
46.416
 11
44.64
 20
203.247
 21
202.586
  0
LINE
  8
0
 10
44.64
 11
41.631
 20
202.586
 21
201.88
  0
LINE
  8
0
 10
41.631
 11
38.558
 20
201.88
 21
201.557
  0
LINE
  8
0
 10
38.558
 11
36.247
 20
201.557
 21
201.606
  0
LINE
  8
0
 10
36.247
 11
34.572
 20
201.606
 21
200.881
  0
LINE
  8
0
 10
34.572
 11
31.604
 20
200.881
 21
200.019
  0
LINE
  8
0
 10
31.604
 11
28.552
 20
200.019
 21
199.535
  0
LINE
  8
0
 10
28.552
 11
26.372
 20
199.535
 21
199.467
  0
LINE
  8
0
 10
26.372
 11
24.803
 20
199.467
 21
198.689
  0
LINE
  8
0
 10
24.803
 11
21.885
 20
198.689
 21
197.672
  0
LINE
  8
0
 10
21.885
 11
18.862
 20
197.672
 21
197.029
  0
LINE
  8
0
 10
18.862
 11
16.819
 20
197.029
 21
196.858
  0
LINE
  8
0
 10
16.819
 11
15.357
 20
196.858
 21
196.034
  0
LINE
  8
0
 10
15.357
 11
12.496
 20
196.034
 21
194.866
  0
LINE
  8
0
 10
12.496
 11
9.511
 20
194.866
 21
194.066
  0
LINE
  8
0
 10
9.511
 11
7.611
 20
194.066
 21
193.807
  0
LINE
  8
0
 10
7.611
 11
6.254
 20
193.807
 21
192.946
  0
LINE
  8
0
 10
6.254
 11
3.457
 20
192.946
 21
191.629
  0
LINE
  8
0
 10
3.457
 11
0.519
 20
191.629
 21
190.675
  0
LINE
  8
0
 10
0.519
 11
-1.238
 20
190.675
 21
190.34
  0
LINE
  8
0
 10
-1.238
 11
-2.488
 20
190.34
 21
189.452
  0
LINE
  8
0
 10
-2.488
 11
-5.211
 20
189.452
 21
187.991
  0
LINE
  8
0
 10
-5.211
 11
-8.096
 20
187.991
 21
186.883
  0
LINE
  8
0
 10
-8.096
 11
-9.705
 20
186.883
 21
186.488
  0
LINE
  8
0
 10
-9.705
 11
-10.85
 20
186.488
 21
185.581
  0
LINE
  8
0
 10
-10.85
 11
-13.493
 20
185.581
 21
183.98
  0
LINE
  8
0
 10
-13.493
 11
-16.316
 20
183.98
 21
182.723
  0
LINE
  8
0
 10
-16.316
 11
-17.777
 20
182.723
 21
182.282
  0
LINE
  8
0
 10
-17.777
 11
-18.818
 20
182.282
 21
181.364
  0
LINE
  8
0
 10
-18.818
 11
-21.373
 20
181.364
 21
179.627
  0
LINE
  8
0
 10
-21.373
 11
-24.127
 20
179.627
 21
178.224
  0
LINE
  8
0
 10
-24.127
 11
-25.439
 20
178.224
 21
177.752
  0
LINE
  8
0
 10
-25.439
 11
-26.379
 20
177.752
 21
176.832
  0
LINE
  8
0
 10
-26.379
 11
-28.84
 20
176.832
 21
174.962
  0
LINE
  8
0
 10
-28.84
 11
-31.516
 20
174.962
 21
173.417
  0
LINE
  8
0
 10
-31.516
 11
-34.365
 20
173.417
 21
172.221
  0
LINE
  8
0
 10
-34.365
 11
-37.341
 20
172.221
 21
171.389
  0
LINE
  8
0
 10
-37.341
 11
-40.398
 20
171.389
 21
170.938
  0
LINE
  8
0
 10
-40.398
 11
-43.488
 20
170.938
 21
170.873
  0
LINE
  8
0
 10
-43.488
 11
-46.561
 20
170.873
 21
171.196
  0
LINE
  8
0
 10
-46.561
 11
-49.569
 20
171.196
 21
171.902
  0
LINE
  8
0
 10
-49.569
 11
-52.466
 20
171.902
 21
172.979
  0
LINE
  8
0
 10
-52.466
 11
-55.204
 20
172.979
 21
174.41
  0
LINE
  8
0
 10
-55.204
 11
-57.741
 20
174.41
 21
176.174
  0
LINE
  8
0
 10
-57.741
 11
-60.038
 20
176.174
 21
178.242
  0
LINE
  8
0
 10
-60.038
 11
-62.057
 20
178.242
 21
180.581
  0
LINE
  8
0
 10
-62.057
 11
-63.767
 20
180.581
 21
183.155
  0
LINE
  8
0
 10
-63.767
 11
-65.141
 20
183.155
 21
185.923
  0
LINE
  8
0
 10
-65.141
 11
-66.157
 20
185.923
 21
188.841
  0
LINE
  8
0
 10
-66.157
 11
-66.799
 20
188.841
 21
191.863
  0
LINE
  8
0
 10
-66.799
 11
-67.058
 20
191.863
 21
194.942
  0
LINE
  8
0
 10
-28.958
 11
-28.699
 20
-128.951
 21
-125.872
  0
LINE
  8
0
 10
-28.699
 11
-28.057
 20
-125.872
 21
-122.849
  0
LINE
  8
0
 10
-28.057
 11
-27.041
 20
-122.849
 21
-119.932
  0
LINE
  8
0
 10
-27.041
 11
-25.667
 20
-119.932
 21
-117.164
  0
LINE
  8
0
 10
-25.667
 11
-23.957
 20
-117.164
 21
-114.59
  0
LINE
  8
0
 10
-23.957
 11
-21.938
 20
-114.59
 21
-112.251
  0
LINE
  8
0
 10
-21.938
 11
-19.641
 20
-112.251
 21
-110.183
  0
LINE
  8
0
 10
-19.641
 11
-17.104
 20
-110.183
 21
-108.419
  0
LINE
  8
0
 10
-17.104
 11
-14.366
 20
-108.419
 21
-106.988
  0
LINE
  8
0
 10
-14.366
 11
-11.469
 20
-106.988
 21
-105.911
  0
LINE
  8
0
 10
-11.469
 11
-8.461
 20
-105.911
 21
-105.205
  0
LINE
  8
0
 10
-8.461
 11
-5.388
 20
-105.205
 21
-104.882
  0
LINE
  8
0
 10
-5.388
 11
-2.298
 20
-104.882
 21
-104.947
  0
LINE
  8
0
 10
-2.298
 11
0.759
 20
-104.947
 21
-105.398
  0
LINE
  8
0
 10
0.759
 11
3.735
 20
-105.398
 21
-106.229
  0
LINE
  8
0
 10
3.735
 11
6.584
 20
-106.229
 21
-107.426
  0
LINE
  8
0
 10
6.584
 11
9.26
 20
-107.426
 21
-108.971
  0
LINE
  8
0
 10
9.26
 11
11.721
 20
-108.971
 21
-110.84
  0
LINE
  8
0
 10
11.721
 11
11.993
 20
-110.84
 21
-111.106
  0
LINE
  8
0
 10
11.993
 11
13.221
 20
-111.106
 21
-111.732
  0
LINE
  8
0
 10
13.221
 11
15.776
 20
-111.732
 21
-113.47
  0
LINE
  8
0
 10
15.776
 11
16.074
 20
-113.47
 21
-113.733
  0
LINE
  8
0
 10
16.074
 11
17.5
 20
-113.733
 21
-114.368
  0
LINE
  8
0
 10
17.5
 11
20.144
 20
-114.368
 21
-115.969
  0
LINE
  8
0
 10
20.144
 11
20.471
 20
-115.969
 21
-116.228
  0
LINE
  8
0
 10
20.471
 11
22.097
 20
-116.228
 21
-116.852
  0
LINE
  8
0
 10
22.097
 11
24.82
 20
-116.852
 21
-118.313
  0
LINE
  8
0
 10
24.82
 11
25.173
 20
-118.313
 21
-118.564
  0
LINE
  8
0
 10
25.173
 11
27.005
 20
-118.564
 21
-119.159
  0
LINE
  8
0
 10
27.005
 11
29.801
 20
-119.159
 21
-120.475
  0
LINE
  8
0
 10
29.801
 11
30.183
 20
-120.475
 21
-120.717
  0
LINE
  8
0
 10
30.183
 11
32.218
 20
-120.717
 21
-121.262
  0
LINE
  8
0
 10
32.218
 11
35.079
 20
-121.262
 21
-122.431
  0
LINE
  8
0
 10
35.079
 11
35.486
 20
-122.431
 21
-122.66
  0
LINE
  8
0
 10
35.486
 11
37.728
 20
-122.66
 21
-123.137
  0
LINE
  8
0
 10
37.728
 11
40.646
 20
-123.137
 21
-124.154
  0
LINE
  8
0
 10
40.646
 11
41.08
 20
-124.154
 21
-124.369
  0
LINE
  8
0
 10
41.08
 11
43.525
 20
-124.369
 21
-124.757
  0
LINE
  8
0
 10
43.525
 11
46.492
 20
-124.757
 21
-125.62
  0
LINE
  8
0
 10
46.492
 11
46.953
 20
-125.62
 21
-125.819
  0
LINE
  8
0
 10
46.953
 11
49.596
 20
-125.819
 21
-126.097
  0
LINE
  8
0
 10
49.596
 11
52.605
 20
-126.097
 21
-126.803
  0
LINE
  8
0
 10
52.605
 11
53.095
 20
-126.803
 21
-126.985
  0
LINE
  8
0
 10
53.095
 11
55.928
 20
-126.985
 21
-127.133
  0
LINE
  8
0
 10
55.928
 11
58.969
 20
-127.133
 21
-127.681
  0
LINE
  8
0
 10
58.969
 11
59.483
 20
-127.681
 21
-127.842
  0
LINE
  8
0
 10
59.483
 11
62.505
 20
-127.842
 21
-127.842
  0
LINE
  8
0
 10
62.505
 11
65.571
 20
-127.842
 21
-128.23
  0
LINE
  8
0
 10
65.571
 11
66.143
 20
-128.23
 21
-128.377
  0
LINE
  8
0
 10
66.143
 11
66.224
 20
-128.377
 21
-128.362
  0
LINE
  8
0
 10
66.224
 11
69.309
 20
-128.362
 21
-128.2
  0
LINE
  8
0
 10
69.309
 11
72.392
 20
-128.2
 21
-128.427
  0
LINE
  8
0
 10
72.392
 11
73.041
 20
-128.427
 21
-128.558
  0
LINE
  8
0
 10
73.041
 11
73.249
 20
-128.558
 21
-128.509
  0
LINE
  8
0
 10
73.249
 11
76.322
 20
-128.509
 21
-128.186
  0
LINE
  8
0
 10
76.322
 11
79.412
 20
-128.186
 21
-128.252
  0
LINE
  8
0
 10
79.412
 11
80.139
 20
-128.252
 21
-128.359
  0
LINE
  8
0
 10
80.139
 11
80.47
 20
-128.359
 21
-128.263
  0
LINE
  8
0
 10
80.47
 11
83.522
 20
-128.263
 21
-127.779
  0
LINE
  8
0
 10
83.522
 11
86.611
 20
-127.779
 21
-127.683
  0
LINE
  8
0
 10
86.611
 11
87.415
 20
-127.683
 21
-127.759
  0
LINE
  8
0
 10
87.415
 11
87.865
 20
-127.759
 21
-127.602
  0
LINE
  8
0
 10
87.865
 11
90.888
 20
-127.602
 21
-126.96
  0
LINE
  8
0
 10
90.888
 11
93.967
 20
-126.96
 21
-126.702
  0
LINE
  8
0
 10
93.967
 11
94.846
 20
-126.702
 21
-126.739
  0
LINE
  8
0
 10
94.846
 11
95.409
 20
-126.739
 21
-126.509
  0
LINE
  8
0
 10
95.409
 11
98.394
 20
-126.509
 21
-125.709
  0
LINE
  8
0
 10
98.394
 11
101.456
 20
-125.709
 21
-125.291
  0
LINE
  8
0
 10
101.456
 11
102.408
 20
-125.291
 21
-125.281
  0
LINE
  8
0
 10
102.408
 11
103.077
 20
-125.281
 21
-124.966
  0
LINE
  8
0
 10
103.077
 11
106.015
 20
-124.966
 21
-124.011
  0
LINE
  8
0
 10
106.015
 11
109.051
 20
-124.011
 21
-123.433
  0
LINE
  8
0
 10
109.051
 11
110.074
 20
-123.433
 21
-123.368
  0
LINE
  8
0
 10
110.074
 11
110.841
 20
-123.368
 21
-122.957
  0
LINE
  8
0
 10
110.841
 11
113.726
 20
-122.957
 21
-121.85
  0
LINE
  8
0
 10
113.726
 11
116.727
 20
-121.85
 21
-121.113
  0
LINE
  8
0
 10
116.727
 11
117.819
 20
-121.113
 21
-120.986
  0
LINE
  8
0
 10
117.819
 11
118.674
 20
-120.986
 21
-120.468
  0
LINE
  8
0
 10
118.674
 11
121.497
 20
-120.468
 21
-119.211
  0
LINE
  8
0
 10
121.497
 11
124.455
 20
-119.211
 21
-118.319
  0
LINE
  8
0
 10
124.455
 11
125.609
 20
-118.319
 21
-118.124
  0
LINE
  8
0
 10
125.609
 11
126.546
 20
-118.124
 21
-117.487
  0
LINE
  8
0
 10
126.546
 11
129.299
 20
-117.487
 21
-116.084
  0
LINE
  8
0
 10
129.299
 11
132.207
 20
-116.084
 21
-115.038
  0
LINE
  8
0
 10
132.207
 11
133.42
 20
-115.038
 21
-114.766
  0
LINE
  8
0
 10
133.42
 11
134.426
 20
-114.766
 21
-114.002
  0
LINE
  8
0
 10
134.426
 11
137.102
 20
-114.002
 21
-112.457
  0
LINE
  8
0
 10
137.102
 11
139.951
 20
-112.457
 21
-111.261
  0
LINE
  8
0
 10
139.951
 11
142.927
 20
-111.261
 21
-110.429
  0
LINE
  8
0
 10
142.927
 11
145.984
 20
-110.429
 21
-109.978
  0
LINE
  8
0
 10
145.984
 11
149.073
 20
-109.978
 21
-109.913
  0
LINE
  8
0
 10
149.073
 11
152.147
 20
-109.913
 21
-110.236
  0
LINE
  8
0
 10
152.147
 11
155.155
 20
-110.236
 21
-110.942
  0
LINE
  8
0
 10
155.155
 11
158.051
 20
-110.942
 21
-112.019
  0
LINE
  8
0
 10
158.051
 11
160.79
 20
-112.019
 21
-113.45
  0
LINE
  8
0
 10
160.79
 11
163.327
 20
-113.45
 21
-115.214
  0
LINE
  8
0
 10
163.327
 11
165.623
 20
-115.214
 21
-117.282
  0
LINE
  8
0
 10
165.623
 11
167.642
 20
-117.282
 21
-119.621
  0
LINE
  8
0
 10
167.642
 11
169.352
 20
-119.621
 21
-122.195
  0
LINE
  8
0
 10
169.352
 11
170.726
 20
-122.195
 21
-124.963
  0
LINE
  8
0
 10
170.726
 11
171.742
 20
-124.963
 21
-127.881
  0
LINE
  8
0
 10
171.742
 11
172.385
 20
-127.881
 21
-130.903
  0
LINE
  8
0
 10
172.385
 11
172.644
 20
-130.903
 21
-133.982
  0
LINE
  8
0
 10
172.644
 11
172.514
 20
-133.982
 21
-137.07
  0
LINE
  8
0
 10
172.514
 11
171.999
 20
-137.07
 21
-140.117
  0
LINE
  8
0
 10
171.999
 11
171.106
 20
-140.117
 21
-143.074
  0
LINE
  8
0
 10
171.106
 11
169.849
 20
-143.074
 21
-145.898
  0
LINE
  8
0
 10
169.849
 11
168.248
 20
-145.898
 21
-148.541
  0
LINE
  8
0
 10
168.248
 11
166.329
 20
-148.541
 21
-150.963
  0
LINE
  8
0
 10
166.329
 11
164.121
 20
-150.963
 21
-153.124
  0
LINE
  8
0
 10
164.121
 11
161.66
 20
-153.124
 21
-154.993
  0
LINE
  8
0
 10
161.66
 11
158.984
 20
-154.993
 21
-156.538
  0
LINE
  8
0
 10
158.984
 11
156.135
 20
-156.538
 21
-157.735
  0
LINE
  8
0
 10
156.135
 11
153.703
 20
-157.735
 21
-158.415
  0
LINE
  8
0
 10
153.703
 11
151.597
 20
-158.415
 21
-159.847
  0
LINE
  8
0
 10
151.597
 11
148.844
 20
-159.847
 21
-161.25
  0
LINE
  8
0
 10
148.844
 11
145.936
 20
-161.25
 21
-162.296
  0
LINE
  8
0
 10
145.936
 11
143.533
 20
-162.296
 21
-162.833
  0
LINE
  8
0
 10
143.533
 11
141.474
 20
-162.833
 21
-164.081
  0
LINE
  8
0
 10
141.474
 11
138.651
 20
-164.081
 21
-165.338
  0
LINE
  8
0
 10
138.651
 11
135.692
 20
-165.338
 21
-166.23
  0
LINE
  8
0
 10
135.692
 11
133.326
 20
-166.23
 21
-166.631
  0
LINE
  8
0
 10
133.326
 11
131.327
 20
-166.631
 21
-167.703
  0
LINE
  8
0
 10
131.327
 11
128.442
 20
-167.703
 21
-168.811
  0
LINE
  8
0
 10
128.442
 11
125.441
 20
-168.811
 21
-169.547
  0
LINE
  8
0
 10
125.441
 11
123.119
 20
-169.547
 21
-169.816
  0
LINE
  8
0
 10
123.119
 11
121.193
 20
-169.816
 21
-170.723
  0
LINE
  8
0
 10
121.193
 11
118.254
 20
-170.723
 21
-171.678
  0
LINE
  8
0
 10
118.254
 11
115.218
 20
-171.678
 21
-172.256
  0
LINE
  8
0
 10
115.218
 11
112.947
 20
-172.256
 21
-172.4
  0
LINE
  8
0
 10
112.947
 11
111.106
 20
-172.4
 21
-173.152
  0
LINE
  8
0
 10
111.106
 11
108.121
 20
-173.152
 21
-173.951
  0
LINE
  8
0
 10
108.121
 11
105.059
 20
-173.951
 21
-174.37
  0
LINE
  8
0
 10
105.059
 11
102.847
 20
-174.37
 21
-174.394
  0
LINE
  8
0
 10
102.847
 11
101.099
 20
-174.394
 21
-175.002
  0
LINE
  8
0
 10
101.099
 11
98.077
 20
-175.002
 21
-175.645
  0
LINE
  8
0
 10
98.077
 11
94.997
 20
-175.645
 21
-175.903
  0
LINE
  8
0
 10
94.997
 11
92.849
 20
-175.903
 21
-175.813
  0
LINE
  8
0
 10
92.849
 11
91.206
 20
-175.813
 21
-176.291
  0
LINE
  8
0
 10
91.206
 11
88.154
 20
-176.291
 21
-176.774
  0
LINE
  8
0
 10
88.154
 11
85.065
 20
-176.774
 21
-176.87
  0
LINE
  8
0
 10
85.065
 11
82.986
 20
-176.87
 21
-176.674
  0
LINE
  8
0
 10
82.986
 11
81.456
 20
-176.674
 21
-177.033
  0
LINE
  8
0
 10
81.456
 11
78.383
 20
-177.033
 21
-177.356
  0
LINE
  8
0
 10
78.383
 11
75.293
 20
-177.356
 21
-177.291
  0
LINE
  8
0
 10
75.293
 11
73.289
 20
-177.291
 21
-176.995
  0
LINE
  8
0
 10
73.289
 11
71.88
 20
-176.995
 21
-177.249
  0
LINE
  8
0
 10
71.88
 11
68.794
 20
-177.249
 21
-177.411
  0
LINE
  8
0
 10
68.794
 11
65.712
 20
-177.411
 21
-177.184
  0
LINE
  8
0
 10
65.712
 11
63.787
 20
-177.184
 21
-176.796
  0
LINE
  8
0
 10
63.787
 11
62.505
 20
-176.796
 21
-176.958
  0
LINE
  8
0
 10
62.505
 11
59.415
 20
-176.958
 21
-176.958
  0
LINE
  8
0
 10
59.415
 11
56.349
 20
-176.958
 21
-176.57
  0
LINE
  8
0
 10
56.349
 11
54.507
 20
-176.57
 21
-176.097
  0
LINE
  8
0
 10
54.507
 11
53.357
 20
-176.097
 21
-176.182
  0
LINE
  8
0
 10
53.357
 11
50.272
 20
-176.182
 21
-176.02
  0
LINE
  8
0
 10
50.272
 11
47.23
 20
-176.02
 21
-175.472
  0
LINE
  8
0
 10
47.23
 11
45.476
 20
-175.472
 21
-174.923
  0
LINE
  8
0
 10
45.476
 11
44.462
 20
-174.923
 21
-174.944
  0
LINE
  8
0
 10
44.462
 11
41.389
 20
-174.944
 21
-174.621
  0
LINE
  8
0
 10
41.389
 11
38.38
 20
-174.621
 21
-173.915
  0
LINE
  8
0
 10
38.38
 11
36.713
 20
-173.915
 21
-173.295
  0
LINE
  8
0
 10
36.713
 11
35.841
 20
-173.295
 21
-173.268
  0
LINE
  8
0
 10
35.841
 11
32.789
 20
-173.268
 21
-172.785
  0
LINE
  8
0
 10
32.789
 11
29.822
 20
-172.785
 21
-171.922
  0
LINE
  8
0
 10
29.822
 11
28.249
 20
-171.922
 21
-171.241
  0
LINE
  8
0
 10
28.249
 11
27.516
 20
-171.241
 21
-171.18
  0
LINE
  8
0
 10
27.516
 11
24.494
 20
-171.18
 21
-170.537
  0
LINE
  8
0
 10
24.494
 11
21.575
 20
-170.537
 21
-169.52
  0
LINE
  8
0
 10
21.575
 11
20.094
 20
-169.52
 21
-168.785
  0
LINE
  8
0
 10
20.094
 11
19.506
 20
-168.785
 21
-168.705
  0
LINE
  8
0
 10
19.506
 11
16.521
 20
-168.705
 21
-167.905
  0
LINE
  8
0
 10
16.521
 11
13.66
 20
-167.905
 21
-166.737
  0
LINE
  8
0
 10
13.66
 11
12.274
 20
-166.737
 21
-165.956
  0
LINE
  8
0
 10
12.274
 11
11.827
 20
-165.956
 21
-165.871
  0
LINE
  8
0
 10
11.827
 11
8.888
 20
-165.871
 21
-164.916
  0
LINE
  8
0
 10
8.888
 11
6.092
 20
-164.916
 21
-163.6
  0
LINE
  8
0
 10
6.092
 11
4.802
 20
-163.6
 21
-162.781
  0
LINE
  8
0
 10
4.802
 11
4.495
 20
-162.781
 21
-162.706
  0
LINE
  8
0
 10
4.495
 11
1.61
 20
-162.706
 21
-161.598
  0
LINE
  8
0
 10
1.61
 11
-1.113
 20
-161.598
 21
-160.137
  0
LINE
  8
0
 10
-1.113
 11
-2.309
 20
-160.137
 21
-159.288
  0
LINE
  8
0
 10
-2.309
 11
-2.477
 20
-159.288
 21
-159.237
  0
LINE
  8
0
 10
-2.477
 11
-5.3
 20
-159.237
 21
-157.981
  0
LINE
  8
0
 10
-5.3
 11
-7.943
 20
-157.981
 21
-156.379
  0
LINE
  8
0
 10
-7.943
 11
-9.043
 20
-156.379
 21
-155.508
  0
LINE
  8
0
 10
-9.043
 11
-9.078
 20
-155.508
 21
-155.495
  0
LINE
  8
0
 10
-9.078
 11
-11.831
 20
-155.495
 21
-154.092
  0
LINE
  8
0
 10
-11.831
 11
-14.386
 20
-154.092
 21
-152.354
  0
LINE
  8
0
 10
-14.386
 11
-15.441
 20
-152.354
 21
-151.424
  0
LINE
  8
0
 10
-15.441
 11
-17.974
 20
-151.424
 21
-149.962
  0
LINE
  8
0
 10
-17.974
 11
-20.435
 20
-149.962
 21
-148.093
  0
LINE
  8
0
 10
-20.435
 11
-22.643
 20
-148.093
 21
-145.931
  0
LINE
  8
0
 10
-22.643
 11
-24.562
 20
-145.931
 21
-143.509
  0
LINE
  8
0
 10
-24.562
 11
-26.164
 20
-143.509
 21
-140.867
  0
LINE
  8
0
 10
-26.164
 11
-27.42
 20
-140.867
 21
-138.043
  0
LINE
  8
0
 10
-27.42
 11
-28.313
 20
-138.043
 21
-135.086
  0
LINE
  8
0
 10
-28.313
 11
-28.829
 20
-135.086
 21
-132.039
  0
LINE
  8
0
 10
-28.829
 11
-28.958
 20
-132.039
 21
-128.951
  0
LINE
  8
0
 10
-28.958
 11
-28.829
 20
128.951
 21
132.039
  0
LINE
  8
0
 10
-28.829
 11
-28.313
 20
132.039
 21
135.086
  0
LINE
  8
0
 10
-28.313
 11
-27.42
 20
135.086
 21
138.043
  0
LINE
  8
0
 10
-27.42
 11
-26.164
 20
138.043
 21
140.867
  0
LINE
  8
0
 10
-26.164
 11
-24.562
 20
140.867
 21
143.509
  0
LINE
  8
0
 10
-24.562
 11
-22.643
 20
143.509
 21
145.931
  0
LINE
  8
0
 10
-22.643
 11
-20.435
 20
145.931
 21
148.093
  0
LINE
  8
0
 10
-20.435
 11
-17.974
 20
148.093
 21
149.962
  0
LINE
  8
0
 10
-17.974
 11
-15.441
 20
149.962
 21
151.424
  0
LINE
  8
0
 10
-15.441
 11
-14.386
 20
151.424
 21
152.354
  0
LINE
  8
0
 10
-14.386
 11
-11.831
 20
152.354
 21
154.092
  0
LINE
  8
0
 10
-11.831
 11
-9.078
 20
154.092
 21
155.495
  0
LINE
  8
0
 10
-9.078
 11
-9.043
 20
155.495
 21
155.508
  0
LINE
  8
0
 10
-9.043
 11
-7.943
 20
155.508
 21
156.379
  0
LINE
  8
0
 10
-7.943
 11
-5.3
 20
156.379
 21
157.981
  0
LINE
  8
0
 10
-5.3
 11
-2.477
 20
157.981
 21
159.237
  0
LINE
  8
0
 10
-2.477
 11
-2.309
 20
159.237
 21
159.288
  0
LINE
  8
0
 10
-2.309
 11
-1.113
 20
159.288
 21
160.137
  0
LINE
  8
0
 10
-1.113
 11
1.61
 20
160.137
 21
161.598
  0
LINE
  8
0
 10
1.61
 11
4.495
 20
161.598
 21
162.706
  0
LINE
  8
0
 10
4.495
 11
4.802
 20
162.706
 21
162.781
  0
LINE
  8
0
 10
4.802
 11
6.092
 20
162.781
 21
163.6
  0
LINE
  8
0
 10
6.092
 11
8.888
 20
163.6
 21
164.916
  0
LINE
  8
0
 10
8.888
 11
11.827
 20
164.916
 21
165.871
  0
LINE
  8
0
 10
11.827
 11
12.274
 20
165.871
 21
165.956
  0
LINE
  8
0
 10
12.274
 11
13.66
 20
165.956
 21
166.737
  0
LINE
  8
0
 10
13.66
 11
16.521
 20
166.737
 21
167.905
  0
LINE
  8
0
 10
16.521
 11
19.506
 20
167.905
 21
168.705
  0
LINE
  8
0
 10
19.506
 11
20.094
 20
168.705
 21
168.785
  0
LINE
  8
0
 10
20.094
 11
21.575
 20
168.785
 21
169.52
  0
LINE
  8
0
 10
21.575
 11
24.494
 20
169.52
 21
170.537
  0
LINE
  8
0
 10
24.494
 11
27.516
 20
170.537
 21
171.18
  0
LINE
  8
0
 10
27.516
 11
28.249
 20
171.18
 21
171.241
  0
LINE
  8
0
 10
28.249
 11
29.822
 20
171.241
 21
171.922
  0
LINE
  8
0
 10
29.822
 11
32.789
 20
171.922
 21
172.785
  0
LINE
  8
0
 10
32.789
 11
35.841
 20
172.785
 21
173.268
  0
LINE
  8
0
 10
35.841
 11
36.713
 20
173.268
 21
173.295
  0
LINE
  8
0
 10
36.713
 11
38.38
 20
173.295
 21
173.915
  0
LINE
  8
0
 10
38.38
 11
41.389
 20
173.915
 21
174.621
  0
LINE
  8
0
 10
41.389
 11
44.462
 20
174.621
 21
174.944
  0
LINE
  8
0
 10
44.462
 11
45.476
 20
174.944
 21
174.923
  0
LINE
  8
0
 10
45.476
 11
47.23
 20
174.923
 21
175.472
  0
LINE
  8
0
 10
47.23
 11
50.272
 20
175.472
 21
176.02
  0
LINE
  8
0
 10
50.272
 11
53.357
 20
176.02
 21
176.182
  0
LINE
  8
0
 10
53.357
 11
54.507
 20
176.182
 21
176.097
  0
LINE
  8
0
 10
54.507
 11
56.349
 20
176.097
 21
176.57
  0
LINE
  8
0
 10
56.349
 11
59.415
 20
176.57
 21
176.958
  0
LINE
  8
0
 10
59.415
 11
62.505
 20
176.958
 21
176.958
  0
LINE
  8
0
 10
62.505
 11
63.787
 20
176.958
 21
176.796
  0
LINE
  8
0
 10
63.787
 11
65.712
 20
176.796
 21
177.184
  0
LINE
  8
0
 10
65.712
 11
68.794
 20
177.184
 21
177.411
  0
LINE
  8
0
 10
68.794
 11
71.88
 20
177.411
 21
177.249
  0
LINE
  8
0
 10
71.88
 11
73.289
 20
177.249
 21
176.995
  0
LINE
  8
0
 10
73.289
 11
75.293
 20
176.995
 21
177.291
  0
LINE
  8
0
 10
75.293
 11
78.383
 20
177.291
 21
177.356
  0
LINE
  8
0
 10
78.383
 11
81.456
 20
177.356
 21
177.033
  0
LINE
  8
0
 10
81.456
 11
82.986
 20
177.033
 21
176.674
  0
LINE
  8
0
 10
82.986
 11
85.065
 20
176.674
 21
176.87
  0
LINE
  8
0
 10
85.065
 11
88.154
 20
176.87
 21
176.774
  0
LINE
  8
0
 10
88.154
 11
91.206
 20
176.774
 21
176.291
  0
LINE
  8
0
 10
91.206
 11
92.849
 20
176.291
 21
175.813
  0
LINE
  8
0
 10
92.849
 11
94.997
 20
175.813
 21
175.903
  0
LINE
  8
0
 10
94.997
 11
98.077
 20
175.903
 21
175.645
  0
LINE
  8
0
 10
98.077
 11
101.099
 20
175.645
 21
175.002
  0
LINE
  8
0
 10
101.099
 11
102.847
 20
175.002
 21
174.394
  0
LINE
  8
0
 10
102.847
 11
105.059
 20
174.394
 21
174.37
  0
LINE
  8
0
 10
105.059
 11
108.121
 20
174.37
 21
173.951
  0
LINE
  8
0
 10
108.121
 11
111.106
 20
173.951
 21
173.152
  0
LINE
  8
0
 10
111.106
 11
112.947
 20
173.152
 21
172.4
  0
LINE
  8
0
 10
112.947
 11
115.218
 20
172.4
 21
172.256
  0
LINE
  8
0
 10
115.218
 11
118.254
 20
172.256
 21
171.678
  0
LINE
  8
0
 10
118.254
 11
121.193
 20
171.678
 21
170.723
  0
LINE
  8
0
 10
121.193
 11
123.119
 20
170.723
 21
169.816
  0
LINE
  8
0
 10
123.119
 11
125.441
 20
169.816
 21
169.547
  0
LINE
  8
0
 10
125.441
 11
128.442
 20
169.547
 21
168.811
  0
LINE
  8
0
 10
128.442
 11
131.327
 20
168.811
 21
167.703
  0
LINE
  8
0
 10
131.327
 11
133.326
 20
167.703
 21
166.631
  0
LINE
  8
0
 10
133.326
 11
135.692
 20
166.631
 21
166.23
  0
LINE
  8
0
 10
135.692
 11
138.651
 20
166.23
 21
165.338
  0
LINE
  8
0
 10
138.651
 11
141.474
 20
165.338
 21
164.081
  0
LINE
  8
0
 10
141.474
 11
143.533
 20
164.081
 21
162.833
  0
LINE
  8
0
 10
143.533
 11
145.936
 20
162.833
 21
162.296
  0
LINE
  8
0
 10
145.936
 11
148.844
 20
162.296
 21
161.25
  0
LINE
  8
0
 10
148.844
 11
151.597
 20
161.25
 21
159.847
  0
LINE
  8
0
 10
151.597
 11
153.703
 20
159.847
 21
158.415
  0
LINE
  8
0
 10
153.703
 11
156.135
 20
158.415
 21
157.735
  0
LINE
  8
0
 10
156.135
 11
158.984
 20
157.735
 21
156.538
  0
LINE
  8
0
 10
158.984
 11
161.66
 20
156.538
 21
154.993
  0
LINE
  8
0
 10
161.66
 11
164.121
 20
154.993
 21
153.124
  0
LINE
  8
0
 10
164.121
 11
166.329
 20
153.124
 21
150.963
  0
LINE
  8
0
 10
166.329
 11
168.248
 20
150.963
 21
148.541
  0
LINE
  8
0
 10
168.248
 11
169.849
 20
148.541
 21
145.898
  0
LINE
  8
0
 10
169.849
 11
171.106
 20
145.898
 21
143.074
  0
LINE
  8
0
 10
171.106
 11
171.999
 20
143.074
 21
140.117
  0
LINE
  8
0
 10
171.999
 11
172.514
 20
140.117
 21
137.07
  0
LINE
  8
0
 10
172.514
 11
172.644
 20
137.07
 21
133.982
  0
LINE
  8
0
 10
172.644
 11
172.385
 20
133.982
 21
130.903
  0
LINE
  8
0
 10
172.385
 11
171.742
 20
130.903
 21
127.881
  0
LINE
  8
0
 10
171.742
 11
170.726
 20
127.881
 21
124.963
  0
LINE
  8
0
 10
170.726
 11
169.352
 20
124.963
 21
122.195
  0
LINE
  8
0
 10
169.352
 11
167.642
 20
122.195
 21
119.621
  0
LINE
  8
0
 10
167.642
 11
165.623
 20
119.621
 21
117.282
  0
LINE
  8
0
 10
165.623
 11
163.327
 20
117.282
 21
115.214
  0
LINE
  8
0
 10
163.327
 11
160.79
 20
115.214
 21
113.45
  0
LINE
  8
0
 10
160.79
 11
158.051
 20
113.45
 21
112.019
  0
LINE
  8
0
 10
158.051
 11
155.155
 20
112.019
 21
110.942
  0
LINE
  8
0
 10
155.155
 11
152.147
 20
110.942
 21
110.236
  0
LINE
  8
0
 10
152.147
 11
149.073
 20
110.236
 21
109.913
  0
LINE
  8
0
 10
149.073
 11
145.984
 20
109.913
 21
109.978
  0
LINE
  8
0
 10
145.984
 11
142.927
 20
109.978
 21
110.429
  0
LINE
  8
0
 10
142.927
 11
139.951
 20
110.429
 21
111.261
  0
LINE
  8
0
 10
139.951
 11
137.102
 20
111.261
 21
112.457
  0
LINE
  8
0
 10
137.102
 11
134.426
 20
112.457
 21
114.002
  0
LINE
  8
0
 10
134.426
 11
133.42
 20
114.002
 21
114.766
  0
LINE
  8
0
 10
133.42
 11
132.207
 20
114.766
 21
115.038
  0
LINE
  8
0
 10
132.207
 11
129.299
 20
115.038
 21
116.084
  0
LINE
  8
0
 10
129.299
 11
126.546
 20
116.084
 21
117.487
  0
LINE
  8
0
 10
126.546
 11
125.609
 20
117.487
 21
118.124
  0
LINE
  8
0
 10
125.609
 11
124.455
 20
118.124
 21
118.319
  0
LINE
  8
0
 10
124.455
 11
121.497
 20
118.319
 21
119.211
  0
LINE
  8
0
 10
121.497
 11
118.674
 20
119.211
 21
120.468
  0
LINE
  8
0
 10
118.674
 11
117.819
 20
120.468
 21
120.986
  0
LINE
  8
0
 10
117.819
 11
116.727
 20
120.986
 21
121.113
  0
LINE
  8
0
 10
116.727
 11
113.726
 20
121.113
 21
121.85
  0
LINE
  8
0
 10
113.726
 11
110.841
 20
121.85
 21
122.957
  0
LINE
  8
0
 10
110.841
 11
110.074
 20
122.957
 21
123.368
  0
LINE
  8
0
 10
110.074
 11
109.051
 20
123.368
 21
123.433
  0
LINE
  8
0
 10
109.051
 11
106.015
 20
123.433
 21
124.011
  0
LINE
  8
0
 10
106.015
 11
103.077
 20
124.011
 21
124.966
  0
LINE
  8
0
 10
103.077
 11
102.408
 20
124.966
 21
125.281
  0
LINE
  8
0
 10
102.408
 11
101.456
 20
125.281
 21
125.291
  0
LINE
  8
0
 10
101.456
 11
98.394
 20
125.291
 21
125.709
  0
LINE
  8
0
 10
98.394
 11
95.409
 20
125.709
 21
126.509
  0
LINE
  8
0
 10
95.409
 11
94.846
 20
126.509
 21
126.739
  0
LINE
  8
0
 10
94.846
 11
93.967
 20
126.739
 21
126.702
  0
LINE
  8
0
 10
93.967
 11
90.888
 20
126.702
 21
126.96
  0
LINE
  8
0
 10
90.888
 11
87.865
 20
126.96
 21
127.602
  0
LINE
  8
0
 10
87.865
 11
87.415
 20
127.602
 21
127.759
  0
LINE
  8
0
 10
87.415
 11
86.611
 20
127.759
 21
127.683
  0
LINE
  8
0
 10
86.611
 11
83.522
 20
127.683
 21
127.779
  0
LINE
  8
0
 10
83.522
 11
80.47
 20
127.779
 21
128.263
  0
LINE
  8
0
 10
80.47
 11
80.139
 20
128.263
 21
128.359
  0
LINE
  8
0
 10
80.139
 11
79.412
 20
128.359
 21
128.252
  0
LINE
  8
0
 10
79.412
 11
76.322
 20
128.252
 21
128.186
  0
LINE
  8
0
 10
76.322
 11
73.249
 20
128.186
 21
128.509
  0
LINE
  8
0
 10
73.249
 11
73.041
 20
128.509
 21
128.558
  0
LINE
  8
0
 10
73.041
 11
72.392
 20
128.558
 21
128.427
  0
LINE
  8
0
 10
72.392
 11
69.309
 20
128.427
 21
128.2
  0
LINE
  8
0
 10
69.309
 11
66.224
 20
128.2
 21
128.362
  0
LINE
  8
0
 10
66.224
 11
66.143
 20
128.362
 21
128.377
  0
LINE
  8
0
 10
66.143
 11
65.571
 20
128.377
 21
128.23
  0
LINE
  8
0
 10
65.571
 11
62.505
 20
128.23
 21
127.842
  0
LINE
  8
0
 10
62.505
 11
59.483
 20
127.842
 21
127.842
  0
LINE
  8
0
 10
59.483
 11
58.969
 20
127.842
 21
127.681
  0
LINE
  8
0
 10
58.969
 11
55.928
 20
127.681
 21
127.133
  0
LINE
  8
0
 10
55.928
 11
53.095
 20
127.133
 21
126.985
  0
LINE
  8
0
 10
53.095
 11
52.605
 20
126.985
 21
126.803
  0
LINE
  8
0
 10
52.605
 11
49.596
 20
126.803
 21
126.097
  0
LINE
  8
0
 10
49.596
 11
46.953
 20
126.097
 21
125.819
  0
LINE
  8
0
 10
46.953
 11
46.492
 20
125.819
 21
125.62
  0
LINE
  8
0
 10
46.492
 11
43.525
 20
125.62
 21
124.757
  0
LINE
  8
0
 10
43.525
 11
41.08
 20
124.757
 21
124.369
  0
LINE
  8
0
 10
41.08
 11
40.646
 20
124.369
 21
124.154
  0
LINE
  8
0
 10
40.646
 11
37.728
 20
124.154
 21
123.137
  0
LINE
  8
0
 10
37.728
 11
35.486
 20
123.137
 21
122.66
  0
LINE
  8
0
 10
35.486
 11
35.079
 20
122.66
 21
122.431
  0
LINE
  8
0
 10
35.079
 11
32.218
 20
122.431
 21
121.262
  0
LINE
  8
0
 10
32.218
 11
30.183
 20
121.262
 21
120.717
  0
LINE
  8
0
 10
30.183
 11
29.801
 20
120.717
 21
120.475
  0
LINE
  8
0
 10
29.801
 11
27.005
 20
120.475
 21
119.159
  0
LINE
  8
0
 10
27.005
 11
25.173
 20
119.159
 21
118.564
  0
LINE
  8
0
 10
25.173
 11
24.82
 20
118.564
 21
118.313
  0
LINE
  8
0
 10
24.82
 11
22.097
 20
118.313
 21
116.852
  0
LINE
  8
0
 10
22.097
 11
20.471
 20
116.852
 21
116.228
  0
LINE
  8
0
 10
20.471
 11
20.144
 20
116.228
 21
115.969
  0
LINE
  8
0
 10
20.144
 11
17.5
 20
115.969
 21
114.368
  0
LINE
  8
0
 10
17.5
 11
16.074
 20
114.368
 21
113.733
  0
LINE
  8
0
 10
16.074
 11
15.776
 20
113.733
 21
113.47
  0
LINE
  8
0
 10
15.776
 11
13.221
 20
113.47
 21
111.732
  0
LINE
  8
0
 10
13.221
 11
11.993
 20
111.732
 21
111.106
  0
LINE
  8
0
 10
11.993
 11
11.721
 20
111.106
 21
110.84
  0
LINE
  8
0
 10
11.721
 11
9.26
 20
110.84
 21
108.971
  0
LINE
  8
0
 10
9.26
 11
6.584
 20
108.971
 21
107.426
  0
LINE
  8
0
 10
6.584
 11
3.735
 20
107.426
 21
106.229
  0
LINE
  8
0
 10
3.735
 11
0.759
 20
106.229
 21
105.398
  0
LINE
  8
0
 10
0.759
 11
-2.298
 20
105.398
 21
104.947
  0
LINE
  8
0
 10
-2.298
 11
-5.388
 20
104.947
 21
104.882
  0
LINE
  8
0
 10
-5.388
 11
-8.461
 20
104.882
 21
105.205
  0
LINE
  8
0
 10
-8.461
 11
-11.469
 20
105.205
 21
105.911
  0
LINE
  8
0
 10
-11.469
 11
-14.366
 20
105.911
 21
106.988
  0
LINE
  8
0
 10
-14.366
 11
-17.104
 20
106.988
 21
108.419
  0
LINE
  8
0
 10
-17.104
 11
-19.641
 20
108.419
 21
110.183
  0
LINE
  8
0
 10
-19.641
 11
-21.938
 20
110.183
 21
112.251
  0
LINE
  8
0
 10
-21.938
 11
-23.957
 20
112.251
 21
114.59
  0
LINE
  8
0
 10
-23.957
 11
-25.667
 20
114.59
 21
117.164
  0
LINE
  8
0
 10
-25.667
 11
-27.041
 20
117.164
 21
119.932
  0
LINE
  8
0
 10
-27.041
 11
-28.057
 20
119.932
 21
122.849
  0
LINE
  8
0
 10
-28.057
 11
-28.699
 20
122.849
 21
125.872
  0
LINE
  8
0
 10
-28.699
 11
-28.958
 20
125.872
 21
128.951
  0
LINE
  8
0
 10
-3.175
 11
-3.02
 20
0
 21
0.981
  0
LINE
  8
0
 10
-3.02
 11
-2.569
 20
0.981
 21
1.866
  0
LINE
  8
0
 10
-2.569
 11
-1.866
 20
1.866
 21
2.569
  0
LINE
  8
0
 10
-1.866
 11
-0.981
 20
2.569
 21
3.02
  0
LINE
  8
0
 10
-0.981
 11
0
 20
3.02
 21
3.175
  0
LINE
  8
0
 10
0
 11
0.981
 20
3.175
 21
3.02
  0
LINE
  8
0
 10
0.981
 11
1.866
 20
3.02
 21
2.569
  0
LINE
  8
0
 10
1.866
 11
2.569
 20
2.569
 21
1.866
  0
LINE
  8
0
 10
2.569
 11
3.02
 20
1.866
 21
0.981
  0
LINE
  8
0
 10
3.02
 11
3.175
 20
0.981
 21
0
  0
LINE
  8
0
 10
3.175
 11
3.02
 20
0
 21
-0.981
  0
LINE
  8
0
 10
3.02
 11
2.569
 20
-0.981
 21
-1.866
  0
LINE
  8
0
 10
2.569
 11
1.866
 20
-1.866
 21
-2.569
  0
LINE
  8
0
 10
1.866
 11
0.981
 20
-2.569
 21
-3.02
  0
LINE
  8
0
 10
0.981
 11
0
 20
-3.02
 21
-3.175
  0
LINE
  8
0
 10
0
 11
-0.981
 20
-3.175
 21
-3.02
  0
LINE
  8
0
 10
-0.981
 11
-1.866
 20
-3.02
 21
-2.569
  0
LINE
  8
0
 10
-1.866
 11
-2.569
 20
-2.569
 21
-1.866
  0
LINE
  8
0
 10
-2.569
 11
-3.02
 20
-1.866
 21
-0.981
  0
LINE
  8
0
 10
-3.02
 11
-3.175
 20
-0.981
 21
0
  0
LINE
  8
0
 10
9.142
 11
9.401
 20
-62.96
 21
-59.881
  0
LINE
  8
0
 10
9.401
 11
10.043
 20
-59.881
 21
-56.858
  0
LINE
  8
0
 10
10.043
 11
11.059
 20
-56.858
 21
-53.94
  0
LINE
  8
0
 10
11.059
 11
12.433
 20
-53.94
 21
-51.173
  0
LINE
  8
0
 10
12.433
 11
14.143
 20
-51.173
 21
-48.599
  0
LINE
  8
0
 10
14.143
 11
16.162
 20
-48.599
 21
-46.26
  0
LINE
  8
0
 10
16.162
 11
18.459
 20
-46.26
 21
-44.192
  0
LINE
  8
0
 10
18.459
 11
20.996
 20
-44.192
 21
-42.428
  0
LINE
  8
0
 10
20.996
 11
23.734
 20
-42.428
 21
-40.997
  0
LINE
  8
0
 10
23.734
 11
26.631
 20
-40.997
 21
-39.92
  0
LINE
  8
0
 10
26.631
 11
29.639
 20
-39.92
 21
-39.214
  0
LINE
  8
0
 10
29.639
 11
32.712
 20
-39.214
 21
-38.891
  0
LINE
  8
0
 10
32.712
 11
35.802
 20
-38.891
 21
-38.956
  0
LINE
  8
0
 10
35.802
 11
38.859
 20
-38.956
 21
-39.407
  0
LINE
  8
0
 10
38.859
 11
41.835
 20
-39.407
 21
-40.238
  0
LINE
  8
0
 10
41.835
 11
44.684
 20
-40.238
 21
-41.435
  0
LINE
  8
0
 10
44.684
 11
47.36
 20
-41.435
 21
-42.98
  0
LINE
  8
0
 10
47.36
 11
49.821
 20
-42.98
 21
-44.849
  0
LINE
  8
0
 10
49.821
 11
52.029
 20
-44.849
 21
-47.011
  0
LINE
  8
0
 10
52.029
 11
52.096
 20
-47.011
 21
-47.096
  0
LINE
  8
0
 10
52.096
 11
52.336
 20
-47.096
 21
-47.307
  0
LINE
  8
0
 10
52.336
 11
52.517
 20
-47.307
 21
-47.451
  0
LINE
  8
0
 10
52.517
 11
53.198
 20
-47.451
 21
-47.934
  0
LINE
  8
0
 10
53.198
 11
53.348
 20
-47.934
 21
-48.005
  0
LINE
  8
0
 10
53.348
 11
54.36
 20
-48.005
 21
-48.647
  0
LINE
  8
0
 10
54.36
 11
54.801
 20
-48.647
 21
-48.827
  0
LINE
  8
0
 10
54.801
 11
55.748
 20
-48.827
 21
-49.361
  0
LINE
  8
0
 10
55.748
 11
56.489
 20
-49.361
 21
-49.619
  0
LINE
  8
0
 10
56.489
 11
57.363
 20
-49.619
 21
-50.053
  0
LINE
  8
0
 10
57.363
 11
58.412
 20
-50.053
 21
-50.358
  0
LINE
  8
0
 10
58.412
 11
59.202
 20
-50.358
 21
-50.7
  0
LINE
  8
0
 10
59.202
 11
60.57
 20
-50.7
 21
-51.021
  0
LINE
  8
0
 10
60.57
 11
61.275
 20
-51.021
 21
-51.283
  0
LINE
  8
0
 10
61.275
 11
62.957
 20
-51.283
 21
-51.586
  0
LINE
  8
0
 10
62.957
 11
63.564
 20
-51.586
 21
-51.776
  0
LINE
  8
0
 10
63.564
 11
65.571
 20
-51.776
 21
-52.03
  0
LINE
  8
0
 10
65.571
 11
66.082
 20
-52.03
 21
-52.161
  0
LINE
  8
0
 10
66.082
 11
68.404
 20
-52.161
 21
-52.332
  0
LINE
  8
0
 10
68.404
 11
68.809
 20
-52.332
 21
-52.414
  0
LINE
  8
0
 10
68.809
 11
71.447
 20
-52.414
 21
-52.469
  0
LINE
  8
0
 10
71.447
 11
71.748
 20
-52.469
 21
-52.513
  0
LINE
  8
0
 10
71.748
 11
74.691
 20
-52.513
 21
-52.421
  0
LINE
  8
0
 10
74.691
 11
74.949
 20
-52.421
 21
-52.445
  0
LINE
  8
0
 10
74.949
 11
75.045
 20
-52.445
 21
-52.425
  0
LINE
  8
0
 10
75.045
 11
78.124
 20
-52.425
 21
-52.167
  0
LINE
  8
0
 10
78.124
 11
78.401
 20
-52.167
 21
-52.179
  0
LINE
  8
0
 10
78.401
 11
78.672
 20
-52.179
 21
-52.106
  0
LINE
  8
0
 10
78.672
 11
81.734
 20
-52.106
 21
-51.687
  0
LINE
  8
0
 10
81.734
 11
82.028
 20
-51.687
 21
-51.684
  0
LINE
  8
0
 10
82.028
 11
82.468
 20
-51.684
 21
-51.541
  0
LINE
  8
0
 10
82.468
 11
85.504
 20
-51.541
 21
-50.962
  0
LINE
  8
0
 10
85.504
 11
85.815
 20
-50.962
 21
-50.942
  0
LINE
  8
0
 10
85.815
 11
86.418
 20
-50.942
 21
-50.711
  0
LINE
  8
0
 10
86.418
 11
89.419
 20
-50.711
 21
-49.974
  0
LINE
  8
0
 10
89.419
 11
89.746
 20
-49.974
 21
-49.936
  0
LINE
  8
0
 10
89.746
 11
90.503
 20
-49.936
 21
-49.599
  0
LINE
  8
0
 10
90.503
 11
93.462
 20
-49.599
 21
-48.707
  0
LINE
  8
0
 10
93.462
 11
93.801
 20
-48.707
 21
-48.65
  0
LINE
  8
0
 10
93.801
 11
94.705
 20
-48.65
 21
-48.189
  0
LINE
  8
0
 10
94.705
 11
97.613
 20
-48.189
 21
-47.143
  0
LINE
  8
0
 10
97.613
 11
97.966
 20
-47.143
 21
-47.064
  0
LINE
  8
0
 10
97.966
 11
99.002
 20
-47.064
 21
-46.466
  0
LINE
  8
0
 10
99.002
 11
101.851
 20
-46.466
 21
-45.269
  0
LINE
  8
0
 10
101.851
 11
104.827
 20
-45.269
 21
-44.438
  0
LINE
  8
0
 10
104.827
 11
107.884
 20
-44.438
 21
-43.987
  0
LINE
  8
0
 10
107.884
 11
110.973
 20
-43.987
 21
-43.922
  0
LINE
  8
0
 10
110.973
 11
114.047
 20
-43.922
 21
-44.245
  0
LINE
  8
0
 10
114.047
 11
117.055
 20
-44.245
 21
-44.951
  0
LINE
  8
0
 10
117.055
 11
119.951
 20
-44.951
 21
-46.028
  0
LINE
  8
0
 10
119.951
 11
122.69
 20
-46.028
 21
-47.459
  0
LINE
  8
0
 10
122.69
 11
125.227
 20
-47.459
 21
-49.223
  0
LINE
  8
0
 10
125.227
 11
127.523
 20
-49.223
 21
-51.291
  0
LINE
  8
0
 10
127.523
 11
129.542
 20
-51.291
 21
-53.63
  0
LINE
  8
0
 10
129.542
 11
131.252
 20
-53.63
 21
-56.204
  0
LINE
  8
0
 10
131.252
 11
132.626
 20
-56.204
 21
-58.972
  0
LINE
  8
0
 10
132.626
 11
133.642
 20
-58.972
 21
-61.889
  0
LINE
  8
0
 10
133.642
 11
134.285
 20
-61.889
 21
-64.912
  0
LINE
  8
0
 10
134.285
 11
134.544
 20
-64.912
 21
-67.991
  0
LINE
  8
0
 10
134.544
 11
134.414
 20
-67.991
 21
-71.079
  0
LINE
  8
0
 10
134.414
 11
133.899
 20
-71.079
 21
-74.126
  0
LINE
  8
0
 10
133.899
 11
133.006
 20
-74.126
 21
-77.083
  0
LINE
  8
0
 10
133.006
 11
131.749
 20
-77.083
 21
-79.907
  0
LINE
  8
0
 10
131.749
 11
130.148
 20
-79.907
 21
-82.549
  0
LINE
  8
0
 10
130.148
 11
128.229
 20
-82.549
 21
-84.971
  0
LINE
  8
0
 10
128.229
 11
126.021
 20
-84.971
 21
-87.133
  0
LINE
  8
0
 10
126.021
 11
123.56
 20
-87.133
 21
-89.002
  0
LINE
  8
0
 10
123.56
 11
120.884
 20
-89.002
 21
-90.547
  0
LINE
  8
0
 10
120.884
 11
118.035
 20
-90.547
 21
-91.744
  0
LINE
  8
0
 10
118.035
 11
116.655
 20
-91.744
 21
-92.129
  0
LINE
  8
0
 10
116.655
 11
114.25
 20
-92.129
 21
-93.355
  0
LINE
  8
0
 10
114.25
 11
111.342
 20
-93.355
 21
-94.401
  0
LINE
  8
0
 10
111.342
 11
109.916
 20
-94.401
 21
-94.72
  0
LINE
  8
0
 10
109.916
 11
107.658
 20
-94.72
 21
-95.726
  0
LINE
  8
0
 10
107.658
 11
104.699
 20
-95.726
 21
-96.618
  0
LINE
  8
0
 10
104.699
 11
103.233
 20
-96.618
 21
-96.866
  0
LINE
  8
0
 10
103.233
 11
101.135
 20
-96.866
 21
-97.672
  0
LINE
  8
0
 10
101.135
 11
98.133
 20
-97.672
 21
-98.408
  0
LINE
  8
0
 10
98.133
 11
96.632
 20
-98.408
 21
-98.582
  0
LINE
  8
0
 10
96.632
 11
94.707
 20
-98.582
 21
-99.207
  0
LINE
  8
0
 10
94.707
 11
91.671
 20
-99.207
 21
-99.786
  0
LINE
  8
0
 10
91.671
 11
90.136
 20
-99.786
 21
-99.883
  0
LINE
  8
0
 10
90.136
 11
88.399
 20
-99.883
 21
-100.348
  0
LINE
  8
0
 10
88.399
 11
85.337
 20
-100.348
 21
-100.767
  0
LINE
  8
0
 10
85.337
 11
83.772
 20
-100.767
 21
-100.783
  0
LINE
  8
0
 10
83.772
 11
82.234
 20
-100.783
 21
-101.11
  0
LINE
  8
0
 10
82.234
 11
79.154
 20
-101.11
 21
-101.368
  0
LINE
  8
0
 10
79.154
 11
77.564
 20
-101.368
 21
-101.302
  0
LINE
  8
0
 10
77.564
 11
76.234
 20
-101.302
 21
-101.512
  0
LINE
  8
0
 10
76.234
 11
73.145
 20
-101.512
 21
-101.609
  0
LINE
  8
0
 10
73.145
 11
71.534
 20
-101.609
 21
-101.457
  0
LINE
  8
0
 10
71.534
 11
70.418
 20
-101.457
 21
-101.574
  0
LINE
  8
0
 10
70.418
 11
67.328
 20
-101.574
 21
-101.508
  0
LINE
  8
0
 10
67.328
 11
65.701
 20
-101.508
 21
-101.268
  0
LINE
  8
0
 10
65.701
 11
64.806
 20
-101.268
 21
-101.315
  0
LINE
  8
0
 10
64.806
 11
61.724
 20
-101.315
 21
-101.088
  0
LINE
  8
0
 10
61.724
 11
60.085
 20
-101.088
 21
-100.758
  0
LINE
  8
0
 10
60.085
 11
59.415
 20
-100.758
 21
-100.758
  0
LINE
  8
0
 10
59.415
 11
56.349
 20
-100.758
 21
-100.37
  0
LINE
  8
0
 10
56.349
 11
54.705
 20
-100.37
 21
-99.948
  0
LINE
  8
0
 10
54.705
 11
54.26
 20
-99.948
 21
-99.925
  0
LINE
  8
0
 10
54.26
 11
51.218
 20
-99.925
 21
-99.377
  0
LINE
  8
0
 10
51.218
 11
49.571
 20
-99.377
 21
-98.861
  0
LINE
  8
0
 10
49.571
 11
49.354
 20
-98.861
 21
-98.838
  0
LINE
  8
0
 10
49.354
 11
46.345
 20
-98.838
 21
-98.132
  0
LINE
  8
0
 10
46.345
 11
44.698
 20
-98.132
 21
-97.52
  0
LINE
  8
0
 10
44.698
 11
41.742
 20
-97.52
 21
-96.66
  0
LINE
  8
0
 10
41.742
 11
39.745
 20
-96.66
 21
-95.796
  0
LINE
  8
0
 10
39.745
 11
37.418
 20
-95.796
 21
-94.985
  0
LINE
  8
0
 10
37.418
 11
35.097
 20
-94.985
 21
-93.834
  0
LINE
  8
0
 10
35.097
 11
33.382
 20
-93.834
 21
-93.133
  0
LINE
  8
0
 10
33.382
 11
30.767
 20
-93.133
 21
-91.66
  0
LINE
  8
0
 10
30.767
 11
29.639
 20
-91.66
 21
-91.129
  0
LINE
  8
0
 10
29.639
 11
27.03
 20
-91.129
 21
-89.474
  0
LINE
  8
0
 10
27.03
 11
26.937
 20
-89.474
 21
-89.397
  0
LINE
  8
0
 10
26.937
 11
26.195
 20
-89.397
 21
-88.999
  0
LINE
  8
0
 10
26.195
 11
23.676
 20
-88.999
 21
-87.209
  0
LINE
  8
0
 10
23.676
 11
23.474
 20
-87.209
 21
-87.023
  0
LINE
  8
0
 10
23.474
 11
23.051
 20
-87.023
 21
-86.767
  0
LINE
  8
0
 10
23.051
 11
20.629
 20
-86.767
 21
-84.848
  0
LINE
  8
0
 10
20.629
 11
20.331
 20
-84.848
 21
-84.544
  0
LINE
  8
0
 10
20.331
 11
20.208
 20
-84.544
 21
-84.46
  0
LINE
  8
0
 10
20.208
 11
17.89
 20
-84.46
 21
-82.417
  0
LINE
  8
0
 10
17.89
 11
17.281
 20
-82.417
 21
-81.726
  0
LINE
  8
0
 10
17.281
 11
15.457
 20
-81.726
 21
-79.94
  0
LINE
  8
0
 10
15.457
 11
13.538
 20
-79.94
 21
-77.518
  0
LINE
  8
0
 10
13.538
 11
11.936
 20
-77.518
 21
-74.876
  0
LINE
  8
0
 10
11.936
 11
10.68
 20
-74.876
 21
-72.052
  0
LINE
  8
0
 10
10.68
 11
9.787
 20
-72.052
 21
-69.094
  0
LINE
  8
0
 10
9.787
 11
9.271
 20
-69.094
 21
-66.047
  0
LINE
  8
0
 10
9.271
 11
9.142
 20
-66.047
 21
-62.96
  0
LINE
  8
0
 10
9.142
 11
9.271
 20
62.96
 21
66.047
  0
LINE
  8
0
 10
9.271
 11
9.787
 20
66.047
 21
69.094
  0
LINE
  8
0
 10
9.787
 11
10.68
 20
69.094
 21
72.052
  0
LINE
  8
0
 10
10.68
 11
11.936
 20
72.052
 21
74.876
  0
LINE
  8
0
 10
11.936
 11
13.538
 20
74.876
 21
77.518
  0
LINE
  8
0
 10
13.538
 11
15.457
 20
77.518
 21
79.94
  0
LINE
  8
0
 10
15.457
 11
17.281
 20
79.94
 21
81.726
  0
LINE
  8
0
 10
17.281
 11
17.89
 20
81.726
 21
82.417
  0
LINE
  8
0
 10
17.89
 11
20.208
 20
82.417
 21
84.46
  0
LINE
  8
0
 10
20.208
 11
20.331
 20
84.46
 21
84.544
  0
LINE
  8
0
 10
20.331
 11
20.629
 20
84.544
 21
84.848
  0
LINE
  8
0
 10
20.629
 11
23.051
 20
84.848
 21
86.767
  0
LINE
  8
0
 10
23.051
 11
23.474
 20
86.767
 21
87.023
  0
LINE
  8
0
 10
23.474
 11
23.676
 20
87.023
 21
87.209
  0
LINE
  8
0
 10
23.676
 11
26.195
 20
87.209
 21
88.999
  0
LINE
  8
0
 10
26.195
 11
26.937
 20
88.999
 21
89.397
  0
LINE
  8
0
 10
26.937
 11
27.03
 20
89.397
 21
89.474
  0
LINE
  8
0
 10
27.03
 11
29.639
 20
89.474
 21
91.129
  0
LINE
  8
0
 10
29.639
 11
30.767
 20
91.129
 21
91.66
  0
LINE
  8
0
 10
30.767
 11
33.382
 20
91.66
 21
93.133
  0
LINE
  8
0
 10
33.382
 11
35.097
 20
93.133
 21
93.834
  0
LINE
  8
0
 10
35.097
 11
37.418
 20
93.834
 21
94.985
  0
LINE
  8
0
 10
37.418
 11
39.745
 20
94.985
 21
95.796
  0
LINE
  8
0
 10
39.745
 11
41.742
 20
95.796
 21
96.66
  0
LINE
  8
0
 10
41.742
 11
44.698
 20
96.66
 21
97.52
  0
LINE
  8
0
 10
44.698
 11
46.345
 20
97.52
 21
98.132
  0
LINE
  8
0
 10
46.345
 11
49.354
 20
98.132
 21
98.838
  0
LINE
  8
0
 10
49.354
 11
49.571
 20
98.838
 21
98.861
  0
LINE
  8
0
 10
49.571
 11
51.218
 20
98.861
 21
99.377
  0
LINE
  8
0
 10
51.218
 11
54.26
 20
99.377
 21
99.925
  0
LINE
  8
0
 10
54.26
 11
54.705
 20
99.925
 21
99.948
  0
LINE
  8
0
 10
54.705
 11
56.349
 20
99.948
 21
100.37
  0
LINE
  8
0
 10
56.349
 11
59.415
 20
100.37
 21
100.758
  0
LINE
  8
0
 10
59.415
 11
60.085
 20
100.758
 21
100.758
  0
LINE
  8
0
 10
60.085
 11
61.724
 20
100.758
 21
101.088
  0
LINE
  8
0
 10
61.724
 11
64.806
 20
101.088
 21
101.315
  0
LINE
  8
0
 10
64.806
 11
65.701
 20
101.315
 21
101.268
  0
LINE
  8
0
 10
65.701
 11
67.328
 20
101.268
 21
101.508
  0
LINE
  8
0
 10
67.328
 11
70.418
 20
101.508
 21
101.574
  0
LINE
  8
0
 10
70.418
 11
71.534
 20
101.574
 21
101.457
  0
LINE
  8
0
 10
71.534
 11
73.145
 20
101.457
 21
101.609
  0
LINE
  8
0
 10
73.145
 11
76.234
 20
101.609
 21
101.512
  0
LINE
  8
0
 10
76.234
 11
77.564
 20
101.512
 21
101.302
  0
LINE
  8
0
 10
77.564
 11
79.154
 20
101.302
 21
101.368
  0
LINE
  8
0
 10
79.154
 11
82.234
 20
101.368
 21
101.11
  0
LINE
  8
0
 10
82.234
 11
83.772
 20
101.11
 21
100.783
  0
LINE
  8
0
 10
83.772
 11
85.337
 20
100.783
 21
100.767
  0
LINE
  8
0
 10
85.337
 11
88.399
 20
100.767
 21
100.348
  0
LINE
  8
0
 10
88.399
 11
90.136
 20
100.348
 21
99.883
  0
LINE
  8
0
 10
90.136
 11
91.671
 20
99.883
 21
99.786
  0
LINE
  8
0
 10
91.671
 11
94.707
 20
99.786
 21
99.207
  0
LINE
  8
0
 10
94.707
 11
96.632
 20
99.207
 21
98.582
  0
LINE
  8
0
 10
96.632
 11
98.133
 20
98.582
 21
98.408
  0
LINE
  8
0
 10
98.133
 11
101.135
 20
98.408
 21
97.672
  0
LINE
  8
0
 10
101.135
 11
103.233
 20
97.672
 21
96.866
  0
LINE
  8
0
 10
103.233
 11
104.699
 20
96.866
 21
96.618
  0
LINE
  8
0
 10
104.699
 11
107.658
 20
96.618
 21
95.726
  0
LINE
  8
0
 10
107.658
 11
109.916
 20
95.726
 21
94.72
  0
LINE
  8
0
 10
109.916
 11
111.342
 20
94.72
 21
94.401
  0
LINE
  8
0
 10
111.342
 11
114.25
 20
94.401
 21
93.355
  0
LINE
  8
0
 10
114.25
 11
116.655
 20
93.355
 21
92.129
  0
LINE
  8
0
 10
116.655
 11
118.035
 20
92.129
 21
91.744
  0
LINE
  8
0
 10
118.035
 11
120.884
 20
91.744
 21
90.547
  0
LINE
  8
0
 10
120.884
 11
123.56
 20
90.547
 21
89.002
  0
LINE
  8
0
 10
123.56
 11
126.021
 20
89.002
 21
87.133
  0
LINE
  8
0
 10
126.021
 11
128.229
 20
87.133
 21
84.971
  0
LINE
  8
0
 10
128.229
 11
130.148
 20
84.971
 21
82.549
  0
LINE
  8
0
 10
130.148
 11
131.749
 20
82.549
 21
79.907
  0
LINE
  8
0
 10
131.749
 11
133.006
 20
79.907
 21
77.083
  0
LINE
  8
0
 10
133.006
 11
133.899
 20
77.083
 21
74.126
  0
LINE
  8
0
 10
133.899
 11
134.414
 20
74.126
 21
71.079
  0
LINE
  8
0
 10
134.414
 11
134.544
 20
71.079
 21
67.991
  0
LINE
  8
0
 10
134.544
 11
134.285
 20
67.991
 21
64.912
  0
LINE
  8
0
 10
134.285
 11
133.642
 20
64.912
 21
61.889
  0
LINE
  8
0
 10
133.642
 11
132.626
 20
61.889
 21
58.972
  0
LINE
  8
0
 10
132.626
 11
131.252
 20
58.972
 21
56.204
  0
LINE
  8
0
 10
131.252
 11
129.542
 20
56.204
 21
53.63
  0
LINE
  8
0
 10
129.542
 11
127.523
 20
53.63
 21
51.291
  0
LINE
  8
0
 10
127.523
 11
125.227
 20
51.291
 21
49.223
  0
LINE
  8
0
 10
125.227
 11
122.69
 20
49.223
 21
47.459
  0
LINE
  8
0
 10
122.69
 11
119.951
 20
47.459
 21
46.028
  0
LINE
  8
0
 10
119.951
 11
117.055
 20
46.028
 21
44.951
  0
LINE
  8
0
 10
117.055
 11
114.047
 20
44.951
 21
44.245
  0
LINE
  8
0
 10
114.047
 11
110.973
 20
44.245
 21
43.922
  0
LINE
  8
0
 10
110.973
 11
107.884
 20
43.922
 21
43.987
  0
LINE
  8
0
 10
107.884
 11
104.827
 20
43.987
 21
44.438
  0
LINE
  8
0
 10
104.827
 11
101.851
 20
44.438
 21
45.269
  0
LINE
  8
0
 10
101.851
 11
99.002
 20
45.269
 21
46.466
  0
LINE
  8
0
 10
99.002
 11
97.966
 20
46.466
 21
47.064
  0
LINE
  8
0
 10
97.966
 11
97.613
 20
47.064
 21
47.143
  0
LINE
  8
0
 10
97.613
 11
94.705
 20
47.143
 21
48.189
  0
LINE
  8
0
 10
94.705
 11
93.801
 20
48.189
 21
48.65
  0
LINE
  8
0
 10
93.801
 11
93.462
 20
48.65
 21
48.707
  0
LINE
  8
0
 10
93.462
 11
90.503
 20
48.707
 21
49.599
  0
LINE
  8
0
 10
90.503
 11
89.746
 20
49.599
 21
49.936
  0
LINE
  8
0
 10
89.746
 11
89.419
 20
49.936
 21
49.974
  0
LINE
  8
0
 10
89.419
 11
86.418
 20
49.974
 21
50.711
  0
LINE
  8
0
 10
86.418
 11
85.815
 20
50.711
 21
50.942
  0
LINE
  8
0
 10
85.815
 11
85.504
 20
50.942
 21
50.962
  0
LINE
  8
0
 10
85.504
 11
82.468
 20
50.962
 21
51.541
  0
LINE
  8
0
 10
82.468
 11
82.028
 20
51.541
 21
51.684
  0
LINE
  8
0
 10
82.028
 11
81.734
 20
51.684
 21
51.687
  0
LINE
  8
0
 10
81.734
 11
78.672
 20
51.687
 21
52.106
  0
LINE
  8
0
 10
78.672
 11
78.401
 20
52.106
 21
52.179
  0
LINE
  8
0
 10
78.401
 11
78.124
 20
52.179
 21
52.167
  0
LINE
  8
0
 10
78.124
 11
75.045
 20
52.167
 21
52.425
  0
LINE
  8
0
 10
75.045
 11
74.949
 20
52.425
 21
52.445
  0
LINE
  8
0
 10
74.949
 11
74.691
 20
52.445
 21
52.421
  0
LINE
  8
0
 10
74.691
 11
71.748
 20
52.421
 21
52.513
  0
LINE
  8
0
 10
71.748
 11
71.447
 20
52.513
 21
52.469
  0
LINE
  8
0
 10
71.447
 11
68.809
 20
52.469
 21
52.414
  0
LINE
  8
0
 10
68.809
 11
68.404
 20
52.414
 21
52.332
  0
LINE
  8
0
 10
68.404
 11
66.082
 20
52.332
 21
52.161
  0
LINE
  8
0
 10
66.082
 11
65.571
 20
52.161
 21
52.03
  0
LINE
  8
0
 10
65.571
 11
63.564
 20
52.03
 21
51.776
  0
LINE
  8
0
 10
63.564
 11
62.957
 20
51.776
 21
51.586
  0
LINE
  8
0
 10
62.957
 11
61.275
 20
51.586
 21
51.283
  0
LINE
  8
0
 10
61.275
 11
60.57
 20
51.283
 21
51.021
  0
LINE
  8
0
 10
60.57
 11
59.202
 20
51.021
 21
50.7
  0
LINE
  8
0
 10
59.202
 11
58.412
 20
50.7
 21
50.358
  0
LINE
  8
0
 10
58.412
 11
57.363
 20
50.358
 21
50.053
  0
LINE
  8
0
 10
57.363
 11
56.489
 20
50.053
 21
49.619
  0
LINE
  8
0
 10
56.489
 11
55.748
 20
49.619
 21
49.361
  0
LINE
  8
0
 10
55.748
 11
54.801
 20
49.361
 21
48.827
  0
LINE
  8
0
 10
54.801
 11
54.36
 20
48.827
 21
48.647
  0
LINE
  8
0
 10
54.36
 11
53.348
 20
48.647
 21
48.005
  0
LINE
  8
0
 10
53.348
 11
53.198
 20
48.005
 21
47.934
  0
LINE
  8
0
 10
53.198
 11
52.517
 20
47.934
 21
47.451
  0
LINE
  8
0
 10
52.517
 11
52.336
 20
47.451
 21
47.307
  0
LINE
  8
0
 10
52.336
 11
52.096
 20
47.307
 21
47.096
  0
LINE
  8
0
 10
52.096
 11
52.029
 20
47.096
 21
47.011
  0
LINE
  8
0
 10
52.029
 11
49.821
 20
47.011
 21
44.849
  0
LINE
  8
0
 10
49.821
 11
47.36
 20
44.849
 21
42.98
  0
LINE
  8
0
 10
47.36
 11
44.684
 20
42.98
 21
41.435
  0
LINE
  8
0
 10
44.684
 11
41.835
 20
41.435
 21
40.238
  0
LINE
  8
0
 10
41.835
 11
38.859
 20
40.238
 21
39.407
  0
LINE
  8
0
 10
38.859
 11
35.802
 20
39.407
 21
38.956
  0
LINE
  8
0
 10
35.802
 11
32.712
 20
38.956
 21
38.891
  0
LINE
  8
0
 10
32.712
 11
29.639
 20
38.891
 21
39.214
  0
LINE
  8
0
 10
29.639
 11
26.631
 20
39.214
 21
39.92
  0
LINE
  8
0
 10
26.631
 11
23.734
 20
39.92
 21
40.997
  0
LINE
  8
0
 10
23.734
 11
20.996
 20
40.997
 21
42.428
  0
LINE
  8
0
 10
20.996
 11
18.459
 20
42.428
 21
44.192
  0
LINE
  8
0
 10
18.459
 11
16.162
 20
44.192
 21
46.26
  0
LINE
  8
0
 10
16.162
 11
14.143
 20
46.26
 21
48.599
  0
LINE
  8
0
 10
14.143
 11
12.433
 20
48.599
 21
51.173
  0
LINE
  8
0
 10
12.433
 11
11.059
 20
51.173
 21
53.94
  0
LINE
  8
0
 10
11.059
 11
10.043
 20
53.94
 21
56.858
  0
LINE
  8
0
 10
10.043
 11
9.401
 20
56.858
 21
59.881
  0
LINE
  8
0
 10
9.401
 11
9.142
 20
59.881
 21
62.96
  0
LINE
  8
0
 10
36.354
 11
36.548
 20
0
 21
3.084
  0
LINE
  8
0
 10
36.548
 11
36.783
 20
3.084
 21
4.317
  0
LINE
  8
0
 10
36.783
 11
36.859
 20
4.317
 21
4.972
  0
LINE
  8
0
 10
36.859
 11
37.079
 20
4.972
 21
5.868
  0
LINE
  8
0
 10
37.079
 11
37.127
 20
5.868
 21
6.119
  0
LINE
  8
0
 10
37.127
 11
37.183
 20
6.119
 21
6.293
  0
LINE
  8
0
 10
37.183
 11
37.596
 20
6.293
 21
7.972
  0
LINE
  8
0
 10
37.596
 11
38.703
 20
7.972
 21
10.857
  0
LINE
  8
0
 10
38.703
 11
39.502
 20
10.857
 21
12.348
  0
LINE
  8
0
 10
39.502
 11
39.617
 20
12.348
 21
12.606
  0
LINE
  8
0
 10
39.617
 11
39.821
 20
12.606
 21
12.944
  0
LINE
  8
0
 10
39.821
 11
40.163
 20
12.944
 21
13.581
  0
LINE
  8
0
 10
40.163
 11
40.461
 20
13.581
 21
14
  0
LINE
  8
0
 10
40.461
 11
41.217
 20
14
 21
15.249
  0
LINE
  8
0
 10
41.217
 11
43.136
 20
15.249
 21
17.671
  0
LINE
  8
0
 10
43.136
 11
44.279
 20
17.671
 21
18.79
  0
LINE
  8
0
 10
44.279
 11
44.598
 20
18.79
 21
19.152
  0
LINE
  8
0
 10
44.598
 11
45.106
 20
19.152
 21
19.6
  0
LINE
  8
0
 10
45.106
 11
45.344
 20
19.6
 21
19.833
  0
LINE
  8
0
 10
45.344
 11
45.533
 20
19.833
 21
19.976
  0
LINE
  8
0
 10
45.533
 11
46.916
 20
19.976
 21
21.196
  0
LINE
  8
0
 10
46.916
 11
49.471
 20
21.196
 21
22.932
  0
LINE
  8
0
 10
49.471
 11
50.092
 20
22.932
 21
23.249
  0
LINE
  8
0
 10
50.092
 11
51.396
 20
23.249
 21
24.038
  0
LINE
  8
0
 10
51.396
 11
54.219
 20
24.038
 21
25.296
  0
LINE
  8
0
 10
54.219
 11
54.834
 20
25.296
 21
25.481
  0
LINE
  8
0
 10
54.834
 11
56.455
 20
25.481
 21
26.104
  0
LINE
  8
0
 10
56.455
 11
58.569
 20
26.104
 21
26.622
  0
LINE
  8
0
 10
58.569
 11
58.921
 20
26.622
 21
26.737
  0
LINE
  8
0
 10
58.921
 11
59.436
 20
26.737
 21
26.835
  0
LINE
  8
0
 10
59.436
 11
59.456
 20
26.835
 21
26.84
  0
LINE
  8
0
 10
59.456
 11
59.471
 20
26.84
 21
26.842
  0
LINE
  8
0
 10
59.471
 11
61.956
 20
26.842
 21
27.315
  0
LINE
  8
0
 10
61.956
 11
63.225
 20
27.315
 21
27.395
  0
LINE
  8
0
 10
63.225
 11
64.666
 20
27.395
 21
27.592
  0
LINE
  8
0
 10
64.666
 11
67.188
 20
27.592
 21
27.619
  0
LINE
  8
0
 10
67.188
 11
67.571
 20
27.619
 21
27.651
  0
LINE
  8
0
 10
67.571
 11
70.659
 20
27.651
 21
27.522
  0
LINE
  8
0
 10
70.659
 11
71.342
 20
27.522
 21
27.406
  0
LINE
  8
0
 10
71.342
 11
73.732
 20
27.406
 21
27.181
  0
LINE
  8
0
 10
73.732
 11
75.317
 20
27.181
 21
26.826
  0
LINE
  8
0
 10
75.317
 11
76.959
 20
26.826
 21
26.584
  0
LINE
  8
0
 10
76.959
 11
79.935
 20
26.584
 21
25.753
  0
LINE
  8
0
 10
79.935
 11
82.784
 20
25.753
 21
24.556
  0
LINE
  8
0
 10
82.784
 11
85.46
 20
24.556
 21
23.011
  0
LINE
  8
0
 10
85.46
 11
87.921
 20
23.011
 21
21.142
  0
LINE
  8
0
 10
87.921
 11
90.129
 20
21.142
 21
18.98
  0
LINE
  8
0
 10
90.129
 11
92.048
 20
18.98
 21
16.558
  0
LINE
  8
0
 10
92.048
 11
93.649
 20
16.558
 21
13.916
  0
LINE
  8
0
 10
93.649
 11
94.906
 20
13.916
 21
11.092
  0
LINE
  8
0
 10
94.906
 11
95.799
 20
11.092
 21
8.134
  0
LINE
  8
0
 10
95.799
 11
96.314
 20
8.134
 21
5.087
  0
LINE
  8
0
 10
96.314
 11
96.444
 20
5.087
 21
2
  0
LINE
  8
0
 10
96.444
 11
96.276
 20
2
 21
0
  0
LINE
  8
0
 10
96.276
 11
96.444
 20
0
 21
-2
  0
LINE
  8
0
 10
96.444
 11
96.314
 20
-2
 21
-5.087
  0
LINE
  8
0
 10
96.314
 11
95.799
 20
-5.087
 21
-8.134
  0
LINE
  8
0
 10
95.799
 11
94.906
 20
-8.134
 21
-11.092
  0
LINE
  8
0
 10
94.906
 11
93.649
 20
-11.092
 21
-13.916
  0
LINE
  8
0
 10
93.649
 11
92.048
 20
-13.916
 21
-16.558
  0
LINE
  8
0
 10
92.048
 11
90.129
 20
-16.558
 21
-18.98
  0
LINE
  8
0
 10
90.129
 11
87.921
 20
-18.98
 21
-21.142
  0
LINE
  8
0
 10
87.921
 11
85.46
 20
-21.142
 21
-23.011
  0
LINE
  8
0
 10
85.46
 11
82.784
 20
-23.011
 21
-24.556
  0
LINE
  8
0
 10
82.784
 11
79.935
 20
-24.556
 21
-25.753
  0
LINE
  8
0
 10
79.935
 11
76.959
 20
-25.753
 21
-26.584
  0
LINE
  8
0
 10
76.959
 11
75.317
 20
-26.584
 21
-26.826
  0
LINE
  8
0
 10
75.317
 11
73.732
 20
-26.826
 21
-27.181
  0
LINE
  8
0
 10
73.732
 11
71.342
 20
-27.181
 21
-27.406
  0
LINE
  8
0
 10
71.342
 11
70.659
 20
-27.406
 21
-27.522
  0
LINE
  8
0
 10
70.659
 11
67.571
 20
-27.522
 21
-27.651
  0
LINE
  8
0
 10
67.571
 11
67.188
 20
-27.651
 21
-27.619
  0
LINE
  8
0
 10
67.188
 11
64.666
 20
-27.619
 21
-27.592
  0
LINE
  8
0
 10
64.666
 11
63.225
 20
-27.592
 21
-27.395
  0
LINE
  8
0
 10
63.225
 11
61.956
 20
-27.395
 21
-27.315
  0
LINE
  8
0
 10
61.956
 11
59.471
 20
-27.315
 21
-26.842
  0
LINE
  8
0
 10
59.471
 11
59.456
 20
-26.842
 21
-26.84
  0
LINE
  8
0
 10
59.456
 11
59.436
 20
-26.84
 21
-26.835
  0
LINE
  8
0
 10
59.436
 11
58.921
 20
-26.835
 21
-26.737
  0
LINE
  8
0
 10
58.921
 11
58.569
 20
-26.737
 21
-26.622
  0
LINE
  8
0
 10
58.569
 11
56.455
 20
-26.622
 21
-26.104
  0
LINE
  8
0
 10
56.455
 11
54.834
 20
-26.104
 21
-25.481
  0
LINE
  8
0
 10
54.834
 11
54.219
 20
-25.481
 21
-25.296
  0
LINE
  8
0
 10
54.219
 11
51.396
 20
-25.296
 21
-24.038
  0
LINE
  8
0
 10
51.396
 11
50.092
 20
-24.038
 21
-23.249
  0
LINE
  8
0
 10
50.092
 11
49.471
 20
-23.249
 21
-22.932
  0
LINE
  8
0
 10
49.471
 11
46.916
 20
-22.932
 21
-21.196
  0
LINE
  8
0
 10
46.916
 11
45.533
 20
-21.196
 21
-19.976
  0
LINE
  8
0
 10
45.533
 11
45.344
 20
-19.976
 21
-19.833
  0
LINE
  8
0
 10
45.344
 11
45.106
 20
-19.833
 21
-19.6
  0
LINE
  8
0
 10
45.106
 11
44.598
 20
-19.6
 21
-19.152
  0
LINE
  8
0
 10
44.598
 11
44.279
 20
-19.152
 21
-18.79
  0
LINE
  8
0
 10
44.279
 11
43.136
 20
-18.79
 21
-17.671
  0
LINE
  8
0
 10
43.136
 11
41.217
 20
-17.671
 21
-15.249
  0
LINE
  8
0
 10
41.217
 11
40.461
 20
-15.249
 21
-14
  0
LINE
  8
0
 10
40.461
 11
40.163
 20
-14
 21
-13.581
  0
LINE
  8
0
 10
40.163
 11
39.821
 20
-13.581
 21
-12.944
  0
LINE
  8
0
 10
39.821
 11
39.617
 20
-12.944
 21
-12.606
  0
LINE
  8
0
 10
39.617
 11
39.502
 20
-12.606
 21
-12.348
  0
LINE
  8
0
 10
39.502
 11
38.703
 20
-12.348
 21
-10.857
  0
LINE
  8
0
 10
38.703
 11
37.596
 20
-10.857
 21
-7.972
  0
LINE
  8
0
 10
37.596
 11
37.183
 20
-7.972
 21
-6.293
  0
LINE
  8
0
 10
37.183
 11
37.127
 20
-6.293
 21
-6.119
  0
LINE
  8
0
 10
37.127
 11
37.079
 20
-6.119
 21
-5.868
  0
LINE
  8
0
 10
37.079
 11
36.859
 20
-5.868
 21
-4.972
  0
LINE
  8
0
 10
36.859
 11
36.783
 20
-4.972
 21
-4.317
  0
LINE
  8
0
 10
36.783
 11
36.548
 20
-4.317
 21
-3.084
  0
LINE
  8
0
 10
36.548
 11
36.354
 20
-3.084
 21
0
  0
ENDSEC
  0
SECTION
  2
OBJECTS
  0
DICTIONARY
  0
ENDSEC
  0
EOF
