  0
SECTION
  2
BLOCKS
  0
ENDSEC
  0
SECTION
  2
ENTITIES
  0
LINE
  8
0
 10
-0.405
 11
-0.405
 20
-0.294
 21
0.294
  0
LINE
  8
0
 10
-0.405
 11
0.155
 20
0.294
 21
0.476
  0
LINE
  8
0
 10
0.155
 11
0.5
 20
0.476
 21
0
  0
LINE
  8
0
 10
0.5
 11
0.155
 20
0
 21
-0.476
  0
LINE
  8
0
 10
0.155
 11
-0.405
 20
-0.476
 21
-0.294
  0
LINE
  8
0
 10
-0.405
 11
-0.405
 20
25.106
 21
25.694
  0
LINE
  8
0
 10
-0.405
 11
0.155
 20
25.694
 21
25.876
  0
LINE
  8
0
 10
0.155
 11
0.5
 20
25.876
 21
25.4
  0
LINE
  8
0
 10
0.5
 11
0.155
 20
25.4
 21
24.924
  0
LINE
  8
0
 10
0.155
 11
-0.405
 20
24.924
 21
25.106
  0
LINE
  8
0
 10
-0.405
 11
-0.405
 20
50.506
 21
51.094
  0
LINE
  8
0
 10
-0.405
 11
0.155
 20
51.094
 21
51.276
  0
LINE
  8
0
 10
0.155
 11
0.5
 20
51.276
 21
50.8
  0
LINE
  8
0
 10
0.5
 11
0.155
 20
50.8
 21
50.324
  0
LINE
  8
0
 10
0.155
 11
-0.405
 20
50.324
 21
50.506
  0
LINE
  8
0
 10
-0.405
 11
-0.405
 20
75.906
 21
76.494
  0
LINE
  8
0
 10
-0.405
 11
0.155
 20
76.494
 21
76.676
  0
LINE
  8
0
 10
0.155
 11
0.5
 20
76.676
 21
76.2
  0
LINE
  8
0
 10
0.5
 11
0.155
 20
76.2
 21
75.724
  0
LINE
  8
0
 10
0.155
 11
-0.405
 20
75.724
 21
75.906
  0
LINE
  8
0
 10
-0.405
 11
-0.405
 20
101.306
 21
101.894
  0
LINE
  8
0
 10
-0.405
 11
0.155
 20
101.894
 21
102.076
  0
LINE
  8
0
 10
0.155
 11
0.5
 20
102.076
 21
101.6
  0
LINE
  8
0
 10
0.5
 11
0.155
 20
101.6
 21
101.124
  0
LINE
  8
0
 10
0.155
 11
-0.405
 20
101.124
 21
101.306
  0
LINE
  8
0
 10
-0.405
 11
-0.405
 20
126.706
 21
127.294
  0
LINE
  8
0
 10
-0.405
 11
0.155
 20
127.294
 21
127.476
  0
LINE
  8
0
 10
0.155
 11
0.5
 20
127.476
 21
127
  0
LINE
  8
0
 10
0.5
 11
0.155
 20
127
 21
126.524
  0
LINE
  8
0
 10
0.155
 11
-0.405
 20
126.524
 21
126.706
  0
LINE
  8
0
 10
-0.405
 11
-0.405
 20
152.106
 21
152.694
  0
LINE
  8
0
 10
-0.405
 11
0.155
 20
152.694
 21
152.876
  0
LINE
  8
0
 10
0.155
 11
0.5
 20
152.876
 21
152.4
  0
LINE
  8
0
 10
0.5
 11
0.155
 20
152.4
 21
151.924
  0
LINE
  8
0
 10
0.155
 11
-0.405
 20
151.924
 21
152.106
  0
LINE
  8
0
 10
-0.405
 11
-0.405
 20
177.506
 21
178.094
  0
LINE
  8
0
 10
-0.405
 11
0.155
 20
178.094
 21
178.276
  0
LINE
  8
0
 10
0.155
 11
0.5
 20
178.276
 21
177.8
  0
LINE
  8
0
 10
0.5
 11
0.155
 20
177.8
 21
177.324
  0
LINE
  8
0
 10
0.155
 11
-0.405
 20
177.324
 21
177.506
  0
LINE
  8
0
 10
-0.405
 11
-0.405
 20
202.906
 21
203.494
  0
LINE
  8
0
 10
-0.405
 11
0.155
 20
203.494
 21
203.676
  0
LINE
  8
0
 10
0.155
 11
0.5
 20
203.676
 21
203.2
  0
LINE
  8
0
 10
0.5
 11
0.155
 20
203.2
 21
202.724
  0
LINE
  8
0
 10
0.155
 11
-0.405
 20
202.724
 21
202.906
  0
LINE
  8
0
 10
-0.405
 11
-0.405
 20
228.306
 21
228.894
  0
LINE
  8
0
 10
-0.405
 11
0.155
 20
228.894
 21
229.076
  0
LINE
  8
0
 10
0.155
 11
0.5
 20
229.076
 21
228.6
  0
LINE
  8
0
 10
0.5
 11
0.155
 20
228.6
 21
228.124
  0
LINE
  8
0
 10
0.155
 11
-0.405
 20
228.124
 21
228.306
  0
LINE
  8
0
 10
-0.405
 11
-0.405
 20
253.706
 21
254.294
  0
LINE
  8
0
 10
-0.405
 11
0.155
 20
254.294
 21
254.476
  0
LINE
  8
0
 10
0.155
 11
0.5
 20
254.476
 21
254
  0
LINE
  8
0
 10
0.5
 11
0.155
 20
254
 21
253.524
  0
LINE
  8
0
 10
0.155
 11
-0.405
 20
253.524
 21
253.706
  0
LINE
  8
0
 10
-0.405
 11
-0.405
 20
279.106
 21
279.694
  0
LINE
  8
0
 10
-0.405
 11
0.155
 20
279.694
 21
279.876
  0
LINE
  8
0
 10
0.155
 11
0.5
 20
279.876
 21
279.4
  0
LINE
  8
0
 10
0.5
 11
0.155
 20
279.4
 21
278.924
  0
LINE
  8
0
 10
0.155
 11
-0.405
 20
278.924
 21
279.106
  0
LINE
  8
0
 10
-0.405
 11
-0.405
 20
304.506
 21
305.094
  0
LINE
  8
0
 10
-0.405
 11
0.155
 20
305.094
 21
305.276
  0
LINE
  8
0
 10
0.155
 11
0.5
 20
305.276
 21
304.8
  0
LINE
  8
0
 10
0.5
 11
0.155
 20
304.8
 21
304.324
  0
LINE
  8
0
 10
0.155
 11
-0.405
 20
304.324
 21
304.506
  0
LINE
  8
0
 10
-0.405
 11
-0.405
 20
329.906
 21
330.494
  0
LINE
  8
0
 10
-0.405
 11
0.155
 20
330.494
 21
330.676
  0
LINE
  8
0
 10
0.155
 11
0.5
 20
330.676
 21
330.2
  0
LINE
  8
0
 10
0.5
 11
0.155
 20
330.2
 21
329.724
  0
LINE
  8
0
 10
0.155
 11
-0.405
 20
329.724
 21
329.906
  0
LINE
  8
0
 10
-0.405
 11
-0.405
 20
355.306
 21
355.894
  0
LINE
  8
0
 10
-0.405
 11
0.155
 20
355.894
 21
356.076
  0
LINE
  8
0
 10
0.155
 11
0.5
 20
356.076
 21
355.6
  0
LINE
  8
0
 10
0.5
 11
0.155
 20
355.6
 21
355.124
  0
LINE
  8
0
 10
0.155
 11
-0.405
 20
355.124
 21
355.306
  0
LINE
  8
0
 10
-0.405
 11
-0.405
 20
380.706
 21
381.294
  0
LINE
  8
0
 10
-0.405
 11
0.155
 20
381.294
 21
381.476
  0
LINE
  8
0
 10
0.155
 11
0.5
 20
381.476
 21
381
  0
LINE
  8
0
 10
0.5
 11
0.155
 20
381
 21
380.524
  0
LINE
  8
0
 10
0.155
 11
-0.405
 20
380.524
 21
380.706
  0
LINE
  8
0
 10
-0.405
 11
-0.405
 20
406.106
 21
406.694
  0
LINE
  8
0
 10
-0.405
 11
0.155
 20
406.694
 21
406.876
  0
LINE
  8
0
 10
0.155
 11
0.5
 20
406.876
 21
406.4
  0
LINE
  8
0
 10
0.5
 11
0.155
 20
406.4
 21
405.924
  0
LINE
  8
0
 10
0.155
 11
-0.405
 20
405.924
 21
406.106
  0
LINE
  8
0
 10
-0.405
 11
-0.405
 20
431.506
 21
432.094
  0
LINE
  8
0
 10
-0.405
 11
0.155
 20
432.094
 21
432.276
  0
LINE
  8
0
 10
0.155
 11
0.5
 20
432.276
 21
431.8
  0
LINE
  8
0
 10
0.5
 11
0.155
 20
431.8
 21
431.324
  0
LINE
  8
0
 10
0.155
 11
-0.405
 20
431.324
 21
431.506
  0
LINE
  8
0
 10
-0.405
 11
-0.405
 20
456.906
 21
457.494
  0
LINE
  8
0
 10
-0.405
 11
0.155
 20
457.494
 21
457.676
  0
LINE
  8
0
 10
0.155
 11
0.5
 20
457.676
 21
457.2
  0
LINE
  8
0
 10
0.5
 11
0.155
 20
457.2
 21
456.724
  0
LINE
  8
0
 10
0.155
 11
-0.405
 20
456.724
 21
456.906
  0
LINE
  8
0
 10
-0.405
 11
-0.405
 20
482.306
 21
482.894
  0
LINE
  8
0
 10
-0.405
 11
0.155
 20
482.894
 21
483.076
  0
LINE
  8
0
 10
0.155
 11
0.5
 20
483.076
 21
482.6
  0
LINE
  8
0
 10
0.5
 11
0.155
 20
482.6
 21
482.124
  0
LINE
  8
0
 10
0.155
 11
-0.405
 20
482.124
 21
482.306
  0
LINE
  8
0
 10
-0.405
 11
-0.405
 20
507.706
 21
508.294
  0
LINE
  8
0
 10
-0.405
 11
0.155
 20
508.294
 21
508.476
  0
LINE
  8
0
 10
0.155
 11
0.5
 20
508.476
 21
508
  0
LINE
  8
0
 10
0.5
 11
0.155
 20
508
 21
507.524
  0
LINE
  8
0
 10
0.155
 11
-0.405
 20
507.524
 21
507.706
  0
LINE
  8
0
 10
-0.405
 11
-0.405
 20
533.106
 21
533.694
  0
LINE
  8
0
 10
-0.405
 11
0.155
 20
533.694
 21
533.876
  0
LINE
  8
0
 10
0.155
 11
0.5
 20
533.876
 21
533.4
  0
LINE
  8
0
 10
0.5
 11
0.155
 20
533.4
 21
532.924
  0
LINE
  8
0
 10
0.155
 11
-0.405
 20
532.924
 21
533.106
  0
LINE
  8
0
 10
-0.405
 11
-0.405
 20
558.506
 21
559.094
  0
LINE
  8
0
 10
-0.405
 11
0.155
 20
559.094
 21
559.276
  0
LINE
  8
0
 10
0.155
 11
0.5
 20
559.276
 21
558.8
  0
LINE
  8
0
 10
0.5
 11
0.155
 20
558.8
 21
558.324
  0
LINE
  8
0
 10
0.155
 11
-0.405
 20
558.324
 21
558.506
  0
LINE
  8
0
 10
-0.405
 11
-0.405
 20
583.906
 21
584.494
  0
LINE
  8
0
 10
-0.405
 11
0.155
 20
584.494
 21
584.676
  0
LINE
  8
0
 10
0.155
 11
0.5
 20
584.676
 21
584.2
  0
LINE
  8
0
 10
0.5
 11
0.155
 20
584.2
 21
583.724
  0
LINE
  8
0
 10
0.155
 11
-0.405
 20
583.724
 21
583.906
  0
LINE
  8
0
 10
-0.405
 11
-0.405
 20
609.306
 21
609.894
  0
LINE
  8
0
 10
-0.405
 11
0.155
 20
609.894
 21
610.076
  0
LINE
  8
0
 10
0.155
 11
0.5
 20
610.076
 21
609.6
  0
LINE
  8
0
 10
0.5
 11
0.155
 20
609.6
 21
609.124
  0
LINE
  8
0
 10
0.155
 11
-0.405
 20
609.124
 21
609.306
  0
LINE
  8
0
 10
-0.405
 11
-0.405
 20
634.706
 21
635.294
  0
LINE
  8
0
 10
-0.405
 11
0.155
 20
635.294
 21
635.476
  0
LINE
  8
0
 10
0.155
 11
0.5
 20
635.476
 21
635
  0
LINE
  8
0
 10
0.5
 11
0.155
 20
635
 21
634.524
  0
LINE
  8
0
 10
0.155
 11
-0.405
 20
634.524
 21
634.706
  0
LINE
  8
0
 10
-0.405
 11
-0.405
 20
660.106
 21
660.694
  0
LINE
  8
0
 10
-0.405
 11
0.155
 20
660.694
 21
660.876
  0
LINE
  8
0
 10
0.155
 11
0.5
 20
660.876
 21
660.4
  0
LINE
  8
0
 10
0.5
 11
0.155
 20
660.4
 21
659.924
  0
LINE
  8
0
 10
0.155
 11
-0.405
 20
659.924
 21
660.106
  0
LINE
  8
0
 10
-0.405
 11
-0.405
 20
685.506
 21
686.094
  0
LINE
  8
0
 10
-0.405
 11
0.155
 20
686.094
 21
686.276
  0
LINE
  8
0
 10
0.155
 11
0.5
 20
686.276
 21
685.8
  0
LINE
  8
0
 10
0.5
 11
0.155
 20
685.8
 21
685.324
  0
LINE
  8
0
 10
0.155
 11
-0.405
 20
685.324
 21
685.506
  0
LINE
  8
0
 10
-0.405
 11
-0.405
 20
710.906
 21
711.494
  0
LINE
  8
0
 10
-0.405
 11
0.155
 20
711.494
 21
711.676
  0
LINE
  8
0
 10
0.155
 11
0.5
 20
711.676
 21
711.2
  0
LINE
  8
0
 10
0.5
 11
0.155
 20
711.2
 21
710.724
  0
LINE
  8
0
 10
0.155
 11
-0.405
 20
710.724
 21
710.906
  0
LINE
  8
0
 10
-0.405
 11
-0.405
 20
736.306
 21
736.894
  0
LINE
  8
0
 10
-0.405
 11
0.155
 20
736.894
 21
737.076
  0
LINE
  8
0
 10
0.155
 11
0.5
 20
737.076
 21
736.6
  0
LINE
  8
0
 10
0.5
 11
0.155
 20
736.6
 21
736.124
  0
LINE
  8
0
 10
0.155
 11
-0.405
 20
736.124
 21
736.306
  0
LINE
  8
0
 10
-0.405
 11
-0.405
 20
761.706
 21
762.294
  0
LINE
  8
0
 10
-0.405
 11
0.155
 20
762.294
 21
762.476
  0
LINE
  8
0
 10
0.155
 11
0.5
 20
762.476
 21
762
  0
LINE
  8
0
 10
0.5
 11
0.155
 20
762
 21
761.524
  0
LINE
  8
0
 10
0.155
 11
-0.405
 20
761.524
 21
761.706
  0
LINE
  8
0
 10
-0.405
 11
-0.405
 20
787.106
 21
787.694
  0
LINE
  8
0
 10
-0.405
 11
0.155
 20
787.694
 21
787.876
  0
LINE
  8
0
 10
0.155
 11
0.5
 20
787.876
 21
787.4
  0
LINE
  8
0
 10
0.5
 11
0.155
 20
787.4
 21
786.924
  0
LINE
  8
0
 10
0.155
 11
-0.405
 20
786.924
 21
787.106
  0
LINE
  8
0
 10
-0.405
 11
-0.405
 20
812.506
 21
813.094
  0
LINE
  8
0
 10
-0.405
 11
0.155
 20
813.094
 21
813.276
  0
LINE
  8
0
 10
0.155
 11
0.5
 20
813.276
 21
812.8
  0
LINE
  8
0
 10
0.5
 11
0.155
 20
812.8
 21
812.324
  0
LINE
  8
0
 10
0.155
 11
-0.405
 20
812.324
 21
812.506
  0
LINE
  8
0
 10
-0.405
 11
-0.405
 20
837.906
 21
838.494
  0
LINE
  8
0
 10
-0.405
 11
0.155
 20
838.494
 21
838.676
  0
LINE
  8
0
 10
0.155
 11
0.5
 20
838.676
 21
838.2
  0
LINE
  8
0
 10
0.5
 11
0.155
 20
838.2
 21
837.724
  0
LINE
  8
0
 10
0.155
 11
-0.405
 20
837.724
 21
837.906
  0
LINE
  8
0
 10
-0.405
 11
-0.405
 20
863.306
 21
863.894
  0
LINE
  8
0
 10
-0.405
 11
0.155
 20
863.894
 21
864.076
  0
LINE
  8
0
 10
0.155
 11
0.5
 20
864.076
 21
863.6
  0
LINE
  8
0
 10
0.5
 11
0.155
 20
863.6
 21
863.124
  0
LINE
  8
0
 10
0.155
 11
-0.405
 20
863.124
 21
863.306
  0
LINE
  8
0
 10
-0.405
 11
-0.405
 20
888.706
 21
889.294
  0
LINE
  8
0
 10
-0.405
 11
0.155
 20
889.294
 21
889.476
  0
LINE
  8
0
 10
0.155
 11
0.5
 20
889.476
 21
889
  0
LINE
  8
0
 10
0.5
 11
0.155
 20
889
 21
888.524
  0
LINE
  8
0
 10
0.155
 11
-0.405
 20
888.524
 21
888.706
  0
LINE
  8
0
 10
-0.405
 11
-0.405
 20
914.106
 21
914.694
  0
LINE
  8
0
 10
-0.405
 11
0.155
 20
914.694
 21
914.876
  0
LINE
  8
0
 10
0.155
 11
0.5
 20
914.876
 21
914.4
  0
LINE
  8
0
 10
0.5
 11
0.155
 20
914.4
 21
913.924
  0
LINE
  8
0
 10
0.155
 11
-0.405
 20
913.924
 21
914.106
  0
ENDSEC
  0
SECTION
  2
OBJECTS
  0
DICTIONARY
  0
ENDSEC
  0
EOF
