0
SECTION
2
HEADER
9
$ACADVER
1
AC1006
9
$INSBASE
10
0.0
20
0.0
30
0.0
9
$EXTMIN
10
0.0
20
0.0
9
$EXTMAX
10
0.0
20
0.0
0
ENDSEC
0
SECTION
2
TABLES
0
TABLE
2
LTYPE
70
1
0
LTYPE
2
CONTINUOUS
70
64
3
Solid line
72
65
73
0
40
0.0
0
ENDTAB
0
TABLE
2
LAYER
70
5
0
LAYER
2
PYDXF
70
64
62
7
6
continuous
0
LAYER
2
TEXT
70
64
62
2
6
continuous
0
LAYER
2
CAM
70
64
62
1
6
continuous
0
LAYER
2
ROLLER
70
64
62
5
6
continuous
0
LAYER
2
PRESSURE
70
64
62
3
6
continuous
0
ENDTAB
0
TABLE
2
STYLE
70
1
0
STYLE
2
STANDARD
70
0
40
0
41
40
50
50
71
0
42
1
3
ARIAL.TTF
4

0
ENDTAB
0
TABLE
2
VIEW
70
0
0
ENDTAB
0
ENDSEC
0
SECTION
2
BLOCKS
0
ENDSEC
0
SECTION
2
ENTITIES
0
TEXT
8
text
10
2.472440945
20
0.7
40
0.1
1
pitch=0.368503937
0
TEXT
8
text
10
2.472440945
20
0.5
40
0.1
1
pin diameter=0.62992126
0
TEXT
8
text
10
2.472440945
20
0.3
40
0.1
1
eccentricity=0.157480315
0
TEXT
8
text
10
2.472440945
20
0.1
40
0.1
1
# of teeth=5
0
TEXT
8
text
10
2.472440945
20
-0.1
40
0.1
1
pressure angle limit=50.0
0
TEXT
8
text
10
2.472440945
20
-0.3
40
0.1
1
pressure angle offset=0.01
0
TEXT
8
text
10
2.472440945
20
-0.5
40
0.1
1
min angle=13.0
0
TEXT
8
text
10
2.472440945
20
-0.7
40
0.1
1
max angle=112.0
0
CIRCLE
8
pressure
10
-0.157480315
20
0
40
1.41279361063
0
CIRCLE
8
pressure
10
-0.157480315
20
0
40
1.62188296308
0
LINE
8
cam
10
1.517559055
20
0.0
11
1.51691655631
21
0.0302536132842
0
LINE
8
cam
10
1.51691655631
20
0.0302536132842
11
1.51499386927
21
0.0604037913379
0
LINE
8
cam
10
1.51499386927
20
0.0604037913379
11
1.51180536256
21
0.0903481407074
0
LINE
8
cam
10
1.51180536256
20
0.0903481407074
11
1.50737478978
21
0.119986341622
0
LINE
8
cam
10
1.50737478978
20
0.119986341622
11
1.50173499905
21
0.149221160275
0
LINE
8
cam
10
1.50173499905
20
0.149221160275
11
1.49492752865
21
0.177959431948
0
LINE
8
cam
10
1.49492752865
20
0.177959431948
11
1.48700209052
21
0.206113005813
0
LINE
8
cam
10
1.48700209052
20
0.206113005813
11
1.47801594409
21
0.233599642693
0
LINE
8
cam
10
1.47801594409
20
0.233599642693
11
1.46803316308
21
0.260343857698
0
LINE
8
cam
10
1.46803316308
20
0.260343857698
11
1.45712379834
21
0.286277700385
0
LINE
8
cam
10
1.45712379834
20
0.286277700385
11
1.44536293949
21
0.311341466015
0
LINE
8
cam
10
1.44536293949
20
0.311341466015
11
1.43282967826
21
0.335484332592
0
LINE
8
cam
10
1.43282967826
20
0.335484332592
11
1.41960597592
21
0.358664919706
0
LINE
8
cam
10
1.41960597592
20
0.358664919706
11
1.41549125501
21
0.383218805406
0
LINE
8
cam
10
1.41549125501
20
0.383218805406
11
1.40110126243
21
0.404536025267
0
LINE
8
cam
10
1.40110126243
20
0.404536025267
11
1.38627004915
21
0.424823566466
0
LINE
8
cam
10
1.38627004915
20
0.424823566466
11
1.37107804251
21
0.444081742828
0
LINE
8
cam
10
1.37107804251
20
0.444081742828
11
1.35560144467
21
0.462321981257
0
LINE
8
cam
10
1.35560144467
20
0.462321981257
11
1.33991051253
21
0.47956695993
0
LINE
8
cam
10
1.33991051253
20
0.47956695993
11
1.32406772452
21
0.495850719992
0
LINE
8
cam
10
1.32406772452
20
0.495850719992
11
1.30812582572
21
0.511218782043
0
LINE
8
cam
10
1.30812582572
20
0.511218782043
11
1.29212574388
21
0.525728311223
0
LINE
8
cam
10
1.29212574388
20
0.525728311223
11
1.27609437335
21
0.539448391212
0
LINE
8
cam
10
1.27609437335
20
0.539448391212
11
1.26004223545
21
0.55246048912
0
LINE
8
cam
10
1.26004223545
20
0.55246048912
11
1.24396104835
21
0.56485922078
0
LINE
8
cam
10
1.24396104835
20
0.56485922078
11
1.22782128538
21
0.576753559134
0
LINE
8
cam
10
1.22782128538
20
0.576753559134
11
1.21156988349
21
0.588268664101
0
LINE
8
cam
10
1.21156988349
20
0.588268664101
11
1.19512840622
21
0.599548541177
0
LINE
8
cam
10
1.19512840622
20
0.599548541177
11
1.17839219941
21
0.610759734984
0
LINE
8
cam
10
1.17839219941
20
0.610759734984
11
1.16123144556
21
0.622096184386
0
LINE
8
cam
10
1.16123144556
20
0.622096184386
11
1.14349555779
21
0.633785113686
0
LINE
8
cam
10
1.14349555779
20
0.633785113686
11
1.12502304753
21
0.64609324799
0
LINE
8
cam
10
1.12502304753
20
0.64609324799
11
1.10565969569
21
0.659331485375
0
LINE
8
cam
10
1.10565969569
20
0.659331485375
11
1.08528807019
21
0.673854202919
0
LINE
8
cam
10
1.08528807019
20
0.673854202919
11
1.05516362077
21
0.685127636311
0
LINE
8
cam
10
1.05516362077
20
0.685127636311
11
1.03289008952
21
0.703205556142
0
LINE
8
cam
10
1.03289008952
20
0.703205556142
11
1.00995569026
21
0.723639457657
0
LINE
8
cam
10
1.00995569026
20
0.723639457657
11
0.986847744231
21
0.74659516888
0
LINE
8
cam
10
0.986847744231
20
0.74659516888
11
0.96423134155
21
0.771990215431
0
LINE
8
cam
10
0.96423134155
20
0.771990215431
11
0.942846499348
21
0.799434225329
0
LINE
8
cam
10
0.942846499348
20
0.799434225329
11
0.923353974564
21
0.828253084307
0
LINE
8
cam
10
0.923353974564
20
0.828253084307
11
0.90619070284
21
0.857610062409
0
LINE
8
cam
10
0.90619070284
20
0.857610062409
11
0.891499272124
21
0.886680729945
0
LINE
8
cam
10
0.891499272124
20
0.886680729945
11
0.879152596061
21
0.914807062635
0
LINE
8
cam
10
0.879152596061
20
0.914807062635
11
0.868842372285
21
0.941576834122
0
LINE
8
cam
10
0.868842372285
20
0.941576834122
11
0.867429666815
21
0.973710570547
0
LINE
8
cam
10
0.867429666815
20
0.973710570547
11
0.859912920142
21
0.997572904253
0
LINE
8
cam
10
0.859912920142
20
0.997572904253
11
0.853306213
21
1.02007938652
0
LINE
8
cam
10
0.853306213
20
1.02007938652
11
0.847308801265
21
1.04145121045
0
LINE
8
cam
10
0.847308801265
20
1.04145121045
11
0.841672659619
21
1.06193111989
0
LINE
8
cam
10
0.841672659619
20
1.06193111989
11
0.836194020118
21
1.08175512218
0
LINE
8
cam
10
0.836194020118
20
1.08175512218
11
0.830703313518
21
1.10113665014
0
LINE
8
cam
10
0.830703313518
20
1.10113665014
11
0.825056208811
21
1.12025909794
0
LINE
8
cam
10
0.825056208811
20
1.12025909794
11
0.819126652561
21
1.13927346273
0
LINE
8
cam
10
0.819126652561
20
1.13927346273
11
0.812801925608
21
1.15829884217
0
LINE
8
cam
10
0.812801925608
20
1.15829884217
11
0.805979391172
21
1.17742437874
0
LINE
8
cam
10
0.805979391172
20
1.17742437874
11
0.798564534074
21
1.19671182848
0
LINE
8
cam
10
0.798564534074
20
1.19671182848
11
0.790469928534
21
1.21619830577
0
LINE
8
cam
10
0.790469928534
20
1.21619830577
11
0.781614843457
21
1.23589897896
0
LINE
8
cam
10
0.781614843457
20
1.23589897896
11
0.771925265554
21
1.25580961804
0
LINE
8
cam
10
0.771925265554
20
1.25580961804
11
0.761334180171
21
1.27590896341
0
LINE
8
cam
10
0.761334180171
20
1.27590896341
11
0.749781995517
21
1.29616091814
0
LINE
8
cam
10
0.749781995517
20
1.29616091814
11
0.737217029649
21
1.31651658102
0
LINE
8
cam
10
0.737217029649
20
1.31651658102
11
0.723596003759
21
1.33691614171
0
LINE
8
cam
10
0.723596003759
20
1.33691614171
11
0.708884502452
21
1.35729065875
0
LINE
8
cam
10
0.708884502452
20
1.35729065875
11
0.693057373851
21
1.37756373817
0
LINE
8
cam
10
0.693057373851
20
1.37756373817
11
0.670976759544
21
1.38906463827
0
LINE
8
cam
10
0.670976759544
20
1.38906463827
11
0.653017059866
21
1.4088043219
0
LINE
8
cam
10
0.653017059866
20
1.4088043219
11
0.633928820003
21
1.42818471773
0
LINE
8
cam
10
0.633928820003
20
1.42818471773
11
0.613726067632
21
1.4471150887
0
LINE
8
cam
10
0.613726067632
20
1.4471150887
11
0.592432696654
21
1.46550450925
0
LINE
8
cam
10
0.592432696654
20
1.46550450925
11
0.570082285682
21
1.48326311511
0
LINE
8
cam
10
0.570082285682
20
1.48326311511
11
0.546717812528
21
1.50030328615
0
LINE
8
cam
10
0.546717812528
20
1.50030328615
11
0.522391267717
21
1.5165407585
0
LINE
8
cam
10
0.522391267717
20
1.5165407585
11
0.497163171217
21
1.53189566192
0
LINE
8
cam
10
0.497163171217
20
1.53189566192
11
0.471101997616
21
1.54629347744
0
LINE
8
cam
10
0.471101997616
20
1.54629347744
11
0.444283515789
21
1.55966591032
0
LINE
8
cam
10
0.444283515789
20
1.55966591032
11
0.416790049952
21
1.57195167323
0
LINE
8
cam
10
0.416790049952
20
1.57195167323
11
0.388709669619
21
1.58309717468
0
LINE
8
cam
10
0.388709669619
20
1.58309717468
11
0.360135316577
21
1.59305710789
0
LINE
8
cam
10
0.360135316577
20
1.59305710789
11
0.331163877508
21
1.60179493597
0
LINE
8
cam
10
0.331163877508
20
1.60179493597
11
0.301895211231
21
1.60928326933
0
LINE
8
cam
10
0.301895211231
20
1.60928326933
11
0.272431139879
21
1.61550413209
0
LINE
8
cam
10
0.272431139879
20
1.61550413209
11
0.242874413484
21
1.62044911475
0
LINE
8
cam
10
0.242874413484
20
1.62044911475
11
0.213327657521
21
1.62411941081
0
LINE
8
cam
10
0.213327657521
20
1.62411941081
11
0.183892312936
21
1.62652573606
0
LINE
8
cam
10
0.183892312936
20
1.62652573606
11
0.154667577985
21
1.62768812926
0
LINE
8
cam
10
0.154667577985
20
1.62768812926
11
0.125749360907
21
1.62763563405
0
LINE
8
cam
10
0.125749360907
20
1.62763563405
11
0.0972292519719
21
1.62640586207
0
LINE
8
cam
10
0.0972292519719
20
1.62640586207
11
0.06919352279
21
1.62404443776
0
LINE
8
cam
10
0.06919352279
20
1.62404443776
11
0.0417221599096
21
1.62060432583
0
LINE
8
cam
10
0.0417221599096
20
1.62060432583
11
0.0148879386137
21
1.61614504213
0
LINE
8
cam
10
0.0148879386137
20
1.61614504213
11
-0.0112444585616
21
1.61073174922
0
LINE
8
cam
10
-0.0112444585616
20
1.61073174922
11
-0.0358681102466
21
1.61440598504
0
LINE
8
cam
10
-0.0358681102466
20
1.61440598504
11
-0.0605887433598
21
1.60730767204
0
LINE
8
cam
10
-0.0605887433598
20
1.60730767204
11
-0.0844664385674
21
1.59947154501
0
LINE
8
cam
10
-0.0844664385674
20
1.59947154501
11
-0.10747664092
21
1.59097419187
0
LINE
8
cam
10
-0.10747664092
20
1.59097419187
11
-0.129606670284
21
1.5818916163
0
LINE
8
cam
10
-0.129606670284
20
1.5818916163
11
-0.150856384313
21
1.57229764453
0
LINE
8
cam
10
-0.150856384313
20
1.57229764453
11
-0.171238851163
21
1.56226221634
0
LINE
8
cam
10
-0.171238851163
20
1.56226221634
11
-0.190781064372
21
1.55184956195
0
LINE
8
cam
10
-0.190781064372
20
1.55184956195
11
-0.209524743846
21
1.54111627095
0
LINE
8
cam
10
-0.209524743846
20
1.54111627095
11
-0.227527281261
21
1.53010926943
0
LINE
8
cam
10
-0.227527281261
20
1.53010926943
11
-0.244862905174
21
1.51886373846
0
LINE
8
cam
10
-0.244862905174
20
1.51886373846
11
-0.261624159815
21
1.50740103947
0
LINE
8
cam
10
-0.261624159815
20
1.50740103947
11
-0.277923808859
21
1.49572676541
0
LINE
8
cam
10
-0.277923808859
20
1.49572676541
11
-0.293897283839
21
1.48382912687
0
LINE
8
cam
10
-0.293897283839
20
1.48382912687
11
-0.309705780326
21
1.47167802649
0
LINE
8
cam
10
-0.309705780326
20
1.47167802649
11
-0.325540031576
21
1.45922539736
0
LINE
8
cam
10
-0.325540031576
20
1.45922539736
11
-0.341624600226
21
1.44640770611
0
LINE
8
cam
10
-0.341624600226
20
1.44640770611
11
-0.358222123339
21
1.43315195227
0
LINE
8
cam
10
-0.358222123339
20
1.43315195227
11
-0.375636174271
21
1.41938697368
0
LINE
8
cam
10
-0.375636174271
20
1.41938697368
11
-0.394210090986
21
1.40506217207
0
LINE
8
cam
10
-0.394210090986
20
1.40506217207
11
-0.414317194624
21
1.39017537141
0
LINE
8
cam
10
-0.414317194624
20
1.39017537141
11
-0.434347833729
21
1.36500899999
0
LINE
8
cam
10
-0.434347833729
20
1.36500899999
11
-0.458423856867
21
1.34941199741
0
LINE
8
cam
10
-0.458423856867
20
1.34941199741
11
-0.484944771182
21
1.33391451038
0
LINE
8
cam
10
-0.484944771182
20
1.33391451038
11
-0.513917697956
21
1.31903125261
0
LINE
8
cam
10
-0.513917697956
20
1.31903125261
11
-0.545058675239
21
1.30536927643
0
LINE
8
cam
10
-0.545058675239
20
1.30536927643
11
-0.577767759348
21
1.29351174835
0
LINE
8
cam
10
-0.577767759348
20
1.29351174835
11
-0.611199644394
21
1.28387877282
0
LINE
8
cam
10
-0.611199644394
20
1.28387877282
11
-0.644423532357
21
1.27662733654
0
LINE
8
cam
10
-0.644423532357
20
1.27662733654
11
-0.676611281914
21
1.27163828593
0
LINE
8
cam
10
-0.676611281914
20
1.27163828593
11
-0.707176346625
21
1.268587414
0
LINE
8
cam
10
-0.707176346625
20
1.268587414
11
-0.735821946601
21
1.26705412282
0
LINE
8
cam
10
-0.735821946601
20
1.26705412282
11
-0.766819496019
21
1.27564043072
0
LINE
8
cam
10
-0.766819496019
20
1.27564043072
11
-0.791836726448
21
1.27586544646
0
LINE
8
cam
10
-0.791836726448
20
1.27586544646
11
-0.815283247854
21
1.27653698008
0
LINE
8
cam
10
-0.815283247854
20
1.27653698008
11
-0.83746236241
21
1.27743735937
0
LINE
8
cam
10
-0.83746236241
20
1.27743735937
11
-0.858681577289
21
1.27840571019
0
LINE
8
cam
10
-0.858681577289
20
1.27840571019
11
-0.879228316559
21
1.27932116799
0
LINE
8
cam
10
-0.879228316559
20
1.27932116799
11
-0.899357966668
21
1.28008841722
0
LINE
8
cam
10
-0.899357966668
20
1.28008841722
11
-0.919289546586
21
1.28062686284
0
LINE
8
cam
10
-0.919289546586
20
1.28062686284
11
-0.939205615773
21
1.28086328158
0
LINE
8
cam
10
-0.939205615773
20
1.28086328158
11
-0.959254274978
21
1.28072727437
0
LINE
8
cam
10
-0.959254274978
20
1.28072727437
11
-0.979552020246
21
1.28014877437
0
LINE
8
cam
10
-0.979552020246
20
1.28014877437
11
-1.00018679186
21
1.27905697595
0
LINE
8
cam
10
-1.00018679186
20
1.27905697595
11
-1.02122090374
21
1.27738020125
0
LINE
8
cam
10
-1.02122090374
20
1.27738020125
11
-1.04269372912
21
1.2750463577
0
LINE
8
cam
10
-1.04269372912
20
1.2750463577
11
-1.06462411641
21
1.27198374734
0
LINE
8
cam
10
-1.06462411641
20
1.27198374734
11
-1.08701255516
21
1.26812206587
0
LINE
8
cam
10
-1.08701255516
20
1.26812206587
11
-1.10984313006
21
1.26339348356
0
LINE
8
cam
10
-1.10984313006
20
1.26339348356
11
-1.13308530387
21
1.25773373665
0
LINE
8
cam
10
-1.13308530387
20
1.25773373665
11
-1.15669556748
21
1.25108318215
0
LINE
8
cam
10
-1.15669556748
20
1.25108318215
11
-1.18061898859
21
1.24338778499
0
LINE
8
cam
10
-1.18061898859
20
1.24338778499
11
-1.20479068459
21
1.23460001727
0
LINE
8
cam
10
-1.20479068459
20
1.23460001727
11
-1.22255197564
21
1.21715407873
0
LINE
8
cam
10
-1.22255197564
20
1.21715407873
11
-1.24687538279
21
1.20617328702
0
LINE
8
cam
10
-1.24687538279
20
1.20617328702
11
-1.27120582505
21
1.19400816378
0
LINE
8
cam
10
-1.27120582505
20
1.19400816378
11
-1.29545267154
21
1.18064401084
0
LINE
8
cam
10
-1.29545267154
20
1.18064401084
11
-1.31952206327
21
1.16607545508
0
LINE
8
cam
10
-1.31952206327
20
1.16607545508
11
-1.34331815792
21
1.15030666209
0
LINE
8
cam
10
-1.34331815792
20
1.15030666209
11
-1.36674434289
21
1.13335143008
0
LINE
8
cam
10
-1.36674434289
20
1.13335143008
11
-1.38970441255
21
1.11523316602
0
LINE
8
cam
10
-1.38970441255
20
1.11523316602
11
-1.41210370406
21
1.09598474656
0
LINE
8
cam
10
-1.41210370406
20
1.09598474656
11
-1.43385018586
21
1.07564826726
0
LINE
8
cam
10
-1.43385018586
20
1.07564826726
11
-1.45485549194
21
1.05427468438
0
LINE
8
cam
10
-1.45485549194
20
1.05427468438
11
-1.47503589499
21
1.03192335407
0
LINE
8
cam
10
-1.47503589499
20
1.03192335407
11
-1.4943132115
21
1.00866147473
0
LINE
8
cam
10
-1.4943132115
20
1.00866147473
11
-1.51261563158
21
0.984563438695
0
LINE
8
cam
10
-1.51261563158
20
0.984563438695
11
-1.52987846694
21
0.959710100153
0
LINE
8
cam
10
-1.52987846694
20
0.959710100153
11
-1.54604481046
21
0.934187966634
0
LINE
8
cam
10
-1.54604481046
20
0.934187966634
11
-1.5610661013
21
0.908088321893
0
LINE
8
cam
10
-1.5610661013
20
0.908088321893
11
-1.57490259002
21
0.881506288331
0
LINE
8
cam
10
-1.57490259002
20
0.881506288331
11
-1.58752369873
21
0.854539837395
0
LINE
8
cam
10
-1.58752369873
20
0.854539837395
11
-1.59890827176
21
0.827288756514
0
LINE
8
cam
10
-1.59890827176
20
0.827288756514
11
-1.60904471314
21
0.799853581156
0
LINE
8
cam
10
-1.60904471314
20
0.799853581156
11
-1.61793100775
21
0.772334500452
0
LINE
8
cam
10
-1.61793100775
20
0.772334500452
11
-1.62557462343
21
0.744830244561
0
LINE
8
cam
10
-1.62557462343
20
0.744830244561
11
-1.63199229223
21
0.717436961392
0
LINE
8
cam
10
-1.63199229223
20
0.717436961392
11
-1.63720966935
21
0.690247089665
0
LINE
8
cam
10
-1.63720966935
20
0.690247089665
11
-1.64126086894
21
0.663348234195
0
LINE
8
cam
10
-1.64126086894
20
0.663348234195
11
-1.64418787627
21
0.636822048069
0
LINE
8
cam
10
-1.64418787627
20
0.636822048069
11
-1.65529140903
21
0.61453896499
0
LINE
8
cam
10
-1.65529140903
20
0.61453896499
11
-1.65617960793
21
0.588834746432
0
LINE
8
cam
10
-1.65617960793
20
0.588834746432
11
-1.65610562187
21
0.563704212388
0
LINE
8
cam
10
-1.65610562187
20
0.563704212388
11
-1.65513470237
21
0.539194382974
0
LINE
8
cam
10
-1.65513470237
20
0.539194382974
11
-1.65333521484
21
0.515340804136
0
LINE
8
cam
10
-1.65333521484
20
0.515340804136
11
-1.65077732823
21
0.492166424818
0
LINE
8
cam
10
-1.65077732823
20
0.492166424818
11
-1.64753159751
21
0.469680429048
0
LINE
8
cam
10
-1.64753159751
20
0.469680429048
11
-1.64366745068
21
0.447876992667
0
LINE
8
cam
10
-1.64366745068
20
0.447876992667
11
-1.63925159984
21
0.426733924842
0
LINE
8
cam
10
-1.63925159984
20
0.426733924842
11
-1.63434640931
21
0.406211143794
0
LINE
8
cam
10
-1.63434640931
20
0.406211143794
11
-1.6290082762
21
0.386248925528
0
LINE
8
cam
10
-1.6290082762
20
0.386248925528
11
-1.62328611417
21
0.366765856293
0
LINE
8
cam
10
-1.62328611417
20
0.366765856293
11
-1.61722008831
21
0.347656419773
0
LINE
8
cam
10
-1.61722008831
20
0.347656419773
11
-1.61084083687
21
0.328788169805
0
LINE
8
cam
10
-1.61084083687
20
0.328788169805
11
-1.60416954774
21
0.309998499689
0
LINE
8
cam
10
-1.60416954774
20
0.309998499689
11
-1.59721944639
21
0.291091157831
0
LINE
8
cam
10
-1.59721944639
20
0.291091157831
11
-1.58999950267
21
0.27183293958
0
LINE
8
cam
10
-1.58999950267
20
0.27183293958
11
-1.5825214483
21
0.251951503859
0
LINE
8
cam
10
-1.5825214483
20
0.251951503859
11
-1.5748114134
21
0.231136144935
0
LINE
8
cam
10
-1.5748114134
20
0.231136144935
11
-1.5669273734
21
0.209044693269
0
LINE
8
cam
10
-1.5669273734
20
0.209044693269
11
-1.55898262136
21
0.185321426937
0
LINE
8
cam
10
-1.55898262136
20
0.185321426937
11
-1.54123778772
21
0.158494320635
0
LINE
8
cam
10
-1.54123778772
20
0.158494320635
11
-1.53384405709
21
0.130776923083
0
LINE
8
cam
10
-1.53384405709
20
0.130776923083
11
-1.52730048429
21
0.100765047843
0
LINE
8
cam
10
-1.52730048429
20
0.100765047843
11
-1.52209879176
21
0.068610977458
0
LINE
8
cam
10
-1.52209879176
20
0.068610977458
11
-1.51872857148
21
0.0347723652705
0
LINE
8
cam
10
-1.51872857148
20
0.0347723652705
11
-1.517559055
21
-1.66561607553e-16
0
LINE
8
cam
10
-1.517559055
20
-1.66561607553e-16
11
-1.51872857148
21
-0.0347723652705
0
LINE
8
cam
10
-1.51872857148
20
-0.0347723652705
11
-1.52209879176
21
-0.068610977458
0
LINE
8
cam
10
-1.52209879176
20
-0.068610977458
11
-1.52730048429
21
-0.100765047843
0
LINE
8
cam
10
-1.52730048429
20
-0.100765047843
11
-1.53384405709
21
-0.130776923083
0
LINE
8
cam
10
-1.53384405709
20
-0.130776923083
11
-1.54123778772
21
-0.158494320635
0
LINE
8
cam
10
-1.54123778772
20
-0.158494320635
11
-1.55898262136
21
-0.185321426937
0
LINE
8
cam
10
-1.55898262136
20
-0.185321426937
11
-1.5669273734
21
-0.209044693269
0
LINE
8
cam
10
-1.5669273734
20
-0.209044693269
11
-1.5748114134
21
-0.231136144935
0
LINE
8
cam
10
-1.5748114134
20
-0.231136144935
11
-1.5825214483
21
-0.251951503859
0
LINE
8
cam
10
-1.5825214483
20
-0.251951503859
11
-1.58999950267
21
-0.27183293958
0
LINE
8
cam
10
-1.58999950267
20
-0.27183293958
11
-1.59721944639
21
-0.291091157831
0
LINE
8
cam
10
-1.59721944639
20
-0.291091157831
11
-1.60416954774
21
-0.309998499689
0
LINE
8
cam
10
-1.60416954774
20
-0.309998499689
11
-1.61084083687
21
-0.328788169805
0
LINE
8
cam
10
-1.61084083687
20
-0.328788169805
11
-1.61722008831
21
-0.347656419773
0
LINE
8
cam
10
-1.61722008831
20
-0.347656419773
11
-1.62328611417
21
-0.366765856293
0
LINE
8
cam
10
-1.62328611417
20
-0.366765856293
11
-1.6290082762
21
-0.386248925528
0
LINE
8
cam
10
-1.6290082762
20
-0.386248925528
11
-1.63434640931
21
-0.406211143794
0
LINE
8
cam
10
-1.63434640931
20
-0.406211143794
11
-1.63925159984
21
-0.426733924842
0
LINE
8
cam
10
-1.63925159984
20
-0.426733924842
11
-1.64366745068
21
-0.447876992667
0
LINE
8
cam
10
-1.64366745068
20
-0.447876992667
11
-1.64753159751
21
-0.469680429048
0
LINE
8
cam
10
-1.64753159751
20
-0.469680429048
11
-1.65077732823
21
-0.492166424818
0
LINE
8
cam
10
-1.65077732823
20
-0.492166424818
11
-1.65333521484
21
-0.515340804136
0
LINE
8
cam
10
-1.65333521484
20
-0.515340804136
11
-1.65513470237
21
-0.539194382974
0
LINE
8
cam
10
-1.65513470237
20
-0.539194382974
11
-1.65610562187
21
-0.563704212388
0
LINE
8
cam
10
-1.65610562187
20
-0.563704212388
11
-1.65617960793
21
-0.588834746432
0
LINE
8
cam
10
-1.65617960793
20
-0.588834746432
11
-1.65529140903
21
-0.61453896499
0
LINE
8
cam
10
-1.65529140903
20
-0.61453896499
11
-1.64418787627
21
-0.636822048069
0
LINE
8
cam
10
-1.64418787627
20
-0.636822048069
11
-1.64126086894
21
-0.663348234195
0
LINE
8
cam
10
-1.64126086894
20
-0.663348234195
11
-1.63720966935
21
-0.690247089665
0
LINE
8
cam
10
-1.63720966935
20
-0.690247089665
11
-1.63199229223
21
-0.717436961392
0
LINE
8
cam
10
-1.63199229223
20
-0.717436961392
11
-1.62557462343
21
-0.744830244561
0
LINE
8
cam
10
-1.62557462343
20
-0.744830244561
11
-1.61793100775
21
-0.772334500452
0
LINE
8
cam
10
-1.61793100775
20
-0.772334500452
11
-1.60904471314
21
-0.799853581156
0
LINE
8
cam
10
-1.60904471314
20
-0.799853581156
11
-1.59890827176
21
-0.827288756514
0
LINE
8
cam
10
-1.59890827176
20
-0.827288756514
11
-1.58752369873
21
-0.854539837395
0
LINE
8
cam
10
-1.58752369873
20
-0.854539837395
11
-1.57490259002
21
-0.881506288331
0
LINE
8
cam
10
-1.57490259002
20
-0.881506288331
11
-1.5610661013
21
-0.908088321893
0
LINE
8
cam
10
-1.5610661013
20
-0.908088321893
11
-1.54604481046
21
-0.934187966634
0
LINE
8
cam
10
-1.54604481046
20
-0.934187966634
11
-1.52987846694
21
-0.959710100153
0
LINE
8
cam
10
-1.52987846694
20
-0.959710100153
11
-1.51261563158
21
-0.984563438695
0
LINE
8
cam
10
-1.51261563158
20
-0.984563438695
11
-1.4943132115
21
-1.00866147473
0
LINE
8
cam
10
-1.4943132115
20
-1.00866147473
11
-1.47503589499
21
-1.03192335407
0
LINE
8
cam
10
-1.47503589499
20
-1.03192335407
11
-1.45485549194
21
-1.05427468438
0
LINE
8
cam
10
-1.45485549194
20
-1.05427468438
11
-1.43385018586
21
-1.07564826726
0
LINE
8
cam
10
-1.43385018586
20
-1.07564826726
11
-1.41210370406
21
-1.09598474656
0
LINE
8
cam
10
-1.41210370406
20
-1.09598474656
11
-1.38970441255
21
-1.11523316602
0
LINE
8
cam
10
-1.38970441255
20
-1.11523316602
11
-1.36674434289
21
-1.13335143008
0
LINE
8
cam
10
-1.36674434289
20
-1.13335143008
11
-1.34331815792
21
-1.15030666209
0
LINE
8
cam
10
-1.34331815792
20
-1.15030666209
11
-1.31952206327
21
-1.16607545508
0
LINE
8
cam
10
-1.31952206327
20
-1.16607545508
11
-1.29545267154
21
-1.18064401084
0
LINE
8
cam
10
-1.29545267154
20
-1.18064401084
11
-1.27120582505
21
-1.19400816378
0
LINE
8
cam
10
-1.27120582505
20
-1.19400816378
11
-1.24687538279
21
-1.20617328702
0
LINE
8
cam
10
-1.24687538279
20
-1.20617328702
11
-1.22255197564
21
-1.21715407873
0
LINE
8
cam
10
-1.22255197564
20
-1.21715407873
11
-1.20479068459
21
-1.23460001727
0
LINE
8
cam
10
-1.20479068459
20
-1.23460001727
11
-1.18061898859
21
-1.24338778499
0
LINE
8
cam
10
-1.18061898859
20
-1.24338778499
11
-1.15669556748
21
-1.25108318215
0
LINE
8
cam
10
-1.15669556748
20
-1.25108318215
11
-1.13308530387
21
-1.25773373665
0
LINE
8
cam
10
-1.13308530387
20
-1.25773373665
11
-1.10984313006
21
-1.26339348356
0
LINE
8
cam
10
-1.10984313006
20
-1.26339348356
11
-1.08701255516
21
-1.26812206587
0
LINE
8
cam
10
-1.08701255516
20
-1.26812206587
11
-1.06462411641
21
-1.27198374734
0
LINE
8
cam
10
-1.06462411641
20
-1.27198374734
11
-1.04269372912
21
-1.2750463577
0
LINE
8
cam
10
-1.04269372912
20
-1.2750463577
11
-1.02122090374
21
-1.27738020125
0
LINE
8
cam
10
-1.02122090374
20
-1.27738020125
11
-1.00018679186
21
-1.27905697595
0
LINE
8
cam
10
-1.00018679186
20
-1.27905697595
11
-0.979552020246
21
-1.28014877437
0
LINE
8
cam
10
-0.979552020246
20
-1.28014877437
11
-0.959254274978
21
-1.28072727437
0
LINE
8
cam
10
-0.959254274978
20
-1.28072727437
11
-0.939205615773
21
-1.28086328158
0
LINE
8
cam
10
-0.939205615773
20
-1.28086328158
11
-0.919289546586
21
-1.28062686284
0
LINE
8
cam
10
-0.919289546586
20
-1.28062686284
11
-0.899357966668
21
-1.28008841722
0
LINE
8
cam
10
-0.899357966668
20
-1.28008841722
11
-0.879228316559
21
-1.27932116799
0
LINE
8
cam
10
-0.879228316559
20
-1.27932116799
11
-0.858681577289
21
-1.27840571019
0
LINE
8
cam
10
-0.858681577289
20
-1.27840571019
11
-0.83746236241
21
-1.27743735937
0
LINE
8
cam
10
-0.83746236241
20
-1.27743735937
11
-0.815283247854
21
-1.27653698008
0
LINE
8
cam
10
-0.815283247854
20
-1.27653698008
11
-0.791836726448
21
-1.27586544646
0
LINE
8
cam
10
-0.791836726448
20
-1.27586544646
11
-0.766819496019
21
-1.27564043072
0
LINE
8
cam
10
-0.766819496019
20
-1.27564043072
11
-0.735821946601
21
-1.26705412282
0
LINE
8
cam
10
-0.735821946601
20
-1.26705412282
11
-0.707176346625
21
-1.268587414
0
LINE
8
cam
10
-0.707176346625
20
-1.268587414
11
-0.676611281914
21
-1.27163828593
0
LINE
8
cam
10
-0.676611281914
20
-1.27163828593
11
-0.644423532357
21
-1.27662733654
0
LINE
8
cam
10
-0.644423532357
20
-1.27662733654
11
-0.611199644394
21
-1.28387877282
0
LINE
8
cam
10
-0.611199644394
20
-1.28387877282
11
-0.577767759348
21
-1.29351174835
0
LINE
8
cam
10
-0.577767759348
20
-1.29351174835
11
-0.545058675239
21
-1.30536927643
0
LINE
8
cam
10
-0.545058675239
20
-1.30536927643
11
-0.513917697956
21
-1.31903125261
0
LINE
8
cam
10
-0.513917697956
20
-1.31903125261
11
-0.484944771182
21
-1.33391451038
0
LINE
8
cam
10
-0.484944771182
20
-1.33391451038
11
-0.458423856867
21
-1.34941199741
0
LINE
8
cam
10
-0.458423856867
20
-1.34941199741
11
-0.434347833729
21
-1.36500899999
0
LINE
8
cam
10
-0.434347833729
20
-1.36500899999
11
-0.414317194624
21
-1.39017537141
0
LINE
8
cam
10
-0.414317194624
20
-1.39017537141
11
-0.394210090986
21
-1.40506217207
0
LINE
8
cam
10
-0.394210090986
20
-1.40506217207
11
-0.375636174271
21
-1.41938697368
0
LINE
8
cam
10
-0.375636174271
20
-1.41938697368
11
-0.358222123339
21
-1.43315195227
0
LINE
8
cam
10
-0.358222123339
20
-1.43315195227
11
-0.341624600226
21
-1.44640770611
0
LINE
8
cam
10
-0.341624600226
20
-1.44640770611
11
-0.325540031576
21
-1.45922539736
0
LINE
8
cam
10
-0.325540031576
20
-1.45922539736
11
-0.309705780326
21
-1.47167802649
0
LINE
8
cam
10
-0.309705780326
20
-1.47167802649
11
-0.293897283839
21
-1.48382912687
0
LINE
8
cam
10
-0.293897283839
20
-1.48382912687
11
-0.277923808859
21
-1.49572676541
0
LINE
8
cam
10
-0.277923808859
20
-1.49572676541
11
-0.261624159815
21
-1.50740103947
0
LINE
8
cam
10
-0.261624159815
20
-1.50740103947
11
-0.244862905174
21
-1.51886373846
0
LINE
8
cam
10
-0.244862905174
20
-1.51886373846
11
-0.227527281261
21
-1.53010926943
0
LINE
8
cam
10
-0.227527281261
20
-1.53010926943
11
-0.209524743846
21
-1.54111627095
0
LINE
8
cam
10
-0.209524743846
20
-1.54111627095
11
-0.190781064372
21
-1.55184956195
0
LINE
8
cam
10
-0.190781064372
20
-1.55184956195
11
-0.171238851163
21
-1.56226221634
0
LINE
8
cam
10
-0.171238851163
20
-1.56226221634
11
-0.150856384313
21
-1.57229764453
0
LINE
8
cam
10
-0.150856384313
20
-1.57229764453
11
-0.129606670284
21
-1.5818916163
0
LINE
8
cam
10
-0.129606670284
20
-1.5818916163
11
-0.10747664092
21
-1.59097419187
0
LINE
8
cam
10
-0.10747664092
20
-1.59097419187
11
-0.0844664385674
21
-1.59947154501
0
LINE
8
cam
10
-0.0844664385674
20
-1.59947154501
11
-0.0605887433598
21
-1.60730767204
0
LINE
8
cam
10
-0.0605887433598
20
-1.60730767204
11
-0.0358681102466
21
-1.61440598504
0
LINE
8
cam
10
-0.0358681102466
20
-1.61440598504
11
-0.0112444585616
21
-1.61073174922
0
LINE
8
cam
10
-0.0112444585616
20
-1.61073174922
11
0.0148879386137
21
-1.61614504213
0
LINE
8
cam
10
0.0148879386137
20
-1.61614504213
11
0.0417221599096
21
-1.62060432583
0
LINE
8
cam
10
0.0417221599096
20
-1.62060432583
11
0.06919352279
21
-1.62404443776
0
LINE
8
cam
10
0.06919352279
20
-1.62404443776
11
0.0972292519719
21
-1.62640586207
0
LINE
8
cam
10
0.0972292519719
20
-1.62640586207
11
0.125749360907
21
-1.62763563405
0
LINE
8
cam
10
0.125749360907
20
-1.62763563405
11
0.154667577985
21
-1.62768812926
0
LINE
8
cam
10
0.154667577985
20
-1.62768812926
11
0.183892312936
21
-1.62652573606
0
LINE
8
cam
10
0.183892312936
20
-1.62652573606
11
0.213327657521
21
-1.62411941081
0
LINE
8
cam
10
0.213327657521
20
-1.62411941081
11
0.242874413484
21
-1.62044911475
0
LINE
8
cam
10
0.242874413484
20
-1.62044911475
11
0.272431139879
21
-1.61550413209
0
LINE
8
cam
10
0.272431139879
20
-1.61550413209
11
0.301895211231
21
-1.60928326933
0
LINE
8
cam
10
0.301895211231
20
-1.60928326933
11
0.331163877508
21
-1.60179493597
0
LINE
8
cam
10
0.331163877508
20
-1.60179493597
11
0.360135316577
21
-1.59305710789
0
LINE
8
cam
10
0.360135316577
20
-1.59305710789
11
0.388709669619
21
-1.58309717468
0
LINE
8
cam
10
0.388709669619
20
-1.58309717468
11
0.416790049952
21
-1.57195167323
0
LINE
8
cam
10
0.416790049952
20
-1.57195167323
11
0.444283515789
21
-1.55966591032
0
LINE
8
cam
10
0.444283515789
20
-1.55966591032
11
0.471101997616
21
-1.54629347744
0
LINE
8
cam
10
0.471101997616
20
-1.54629347744
11
0.497163171217
21
-1.53189566192
0
LINE
8
cam
10
0.497163171217
20
-1.53189566192
11
0.522391267717
21
-1.5165407585
0
LINE
8
cam
10
0.522391267717
20
-1.5165407585
11
0.546717812528
21
-1.50030328615
0
LINE
8
cam
10
0.546717812528
20
-1.50030328615
11
0.570082285682
21
-1.48326311511
0
LINE
8
cam
10
0.570082285682
20
-1.48326311511
11
0.592432696654
21
-1.46550450925
0
LINE
8
cam
10
0.592432696654
20
-1.46550450925
11
0.613726067632
21
-1.4471150887
0
LINE
8
cam
10
0.613726067632
20
-1.4471150887
11
0.633928820003
21
-1.42818471773
0
LINE
8
cam
10
0.633928820003
20
-1.42818471773
11
0.653017059866
21
-1.4088043219
0
LINE
8
cam
10
0.653017059866
20
-1.4088043219
11
0.670976759544
21
-1.38906463827
0
LINE
8
cam
10
0.670976759544
20
-1.38906463827
11
0.693057373851
21
-1.37756373817
0
LINE
8
cam
10
0.693057373851
20
-1.37756373817
11
0.708884502452
21
-1.35729065875
0
LINE
8
cam
10
0.708884502452
20
-1.35729065875
11
0.723596003759
21
-1.33691614171
0
LINE
8
cam
10
0.723596003759
20
-1.33691614171
11
0.737217029649
21
-1.31651658102
0
LINE
8
cam
10
0.737217029649
20
-1.31651658102
11
0.749781995517
21
-1.29616091814
0
LINE
8
cam
10
0.749781995517
20
-1.29616091814
11
0.761334180171
21
-1.27590896341
0
LINE
8
cam
10
0.761334180171
20
-1.27590896341
11
0.771925265554
21
-1.25580961804
0
LINE
8
cam
10
0.771925265554
20
-1.25580961804
11
0.781614843457
21
-1.23589897896
0
LINE
8
cam
10
0.781614843457
20
-1.23589897896
11
0.790469928534
21
-1.21619830577
0
LINE
8
cam
10
0.790469928534
20
-1.21619830577
11
0.798564534074
21
-1.19671182848
0
LINE
8
cam
10
0.798564534074
20
-1.19671182848
11
0.805979391172
21
-1.17742437874
0
LINE
8
cam
10
0.805979391172
20
-1.17742437874
11
0.812801925608
21
-1.15829884217
0
LINE
8
cam
10
0.812801925608
20
-1.15829884217
11
0.819126652561
21
-1.13927346273
0
LINE
8
cam
10
0.819126652561
20
-1.13927346273
11
0.825056208811
21
-1.12025909794
0
LINE
8
cam
10
0.825056208811
20
-1.12025909794
11
0.830703313518
21
-1.10113665014
0
LINE
8
cam
10
0.830703313518
20
-1.10113665014
11
0.836194020118
21
-1.08175512218
0
LINE
8
cam
10
0.836194020118
20
-1.08175512218
11
0.841672659619
21
-1.06193111989
0
LINE
8
cam
10
0.841672659619
20
-1.06193111989
11
0.847308801265
21
-1.04145121045
0
LINE
8
cam
10
0.847308801265
20
-1.04145121045
11
0.853306213
21
-1.02007938652
0
LINE
8
cam
10
0.853306213
20
-1.02007938652
11
0.859912920142
21
-0.997572904253
0
LINE
8
cam
10
0.859912920142
20
-0.997572904253
11
0.867429666815
21
-0.973710570547
0
LINE
8
cam
10
0.867429666815
20
-0.973710570547
11
0.868842372285
21
-0.941576834122
0
LINE
8
cam
10
0.868842372285
20
-0.941576834122
11
0.879152596061
21
-0.914807062635
0
LINE
8
cam
10
0.879152596061
20
-0.914807062635
11
0.891499272124
21
-0.886680729945
0
LINE
8
cam
10
0.891499272124
20
-0.886680729945
11
0.90619070284
21
-0.857610062409
0
LINE
8
cam
10
0.90619070284
20
-0.857610062409
11
0.923353974564
21
-0.828253084307
0
LINE
8
cam
10
0.923353974564
20
-0.828253084307
11
0.942846499348
21
-0.799434225329
0
LINE
8
cam
10
0.942846499348
20
-0.799434225329
11
0.96423134155
21
-0.771990215431
0
LINE
8
cam
10
0.96423134155
20
-0.771990215431
11
0.986847744231
21
-0.74659516888
0
LINE
8
cam
10
0.986847744231
20
-0.74659516888
11
1.00995569026
21
-0.723639457657
0
LINE
8
cam
10
1.00995569026
20
-0.723639457657
11
1.03289008952
21
-0.703205556142
0
LINE
8
cam
10
1.03289008952
20
-0.703205556142
11
1.05516362077
21
-0.685127636311
0
LINE
8
cam
10
1.05516362077
20
-0.685127636311
11
1.08528807019
21
-0.673854202919
0
LINE
8
cam
10
1.08528807019
20
-0.673854202919
11
1.10565969569
21
-0.659331485375
0
LINE
8
cam
10
1.10565969569
20
-0.659331485375
11
1.12502304753
21
-0.64609324799
0
LINE
8
cam
10
1.12502304753
20
-0.64609324799
11
1.14349555779
21
-0.633785113686
0
LINE
8
cam
10
1.14349555779
20
-0.633785113686
11
1.16123144556
21
-0.622096184386
0
LINE
8
cam
10
1.16123144556
20
-0.622096184386
11
1.17839219941
21
-0.610759734984
0
LINE
8
cam
10
1.17839219941
20
-0.610759734984
11
1.19512840622
21
-0.599548541177
0
LINE
8
cam
10
1.19512840622
20
-0.599548541177
11
1.21156988349
21
-0.588268664101
0
LINE
8
cam
10
1.21156988349
20
-0.588268664101
11
1.22782128538
21
-0.576753559134
0
LINE
8
cam
10
1.22782128538
20
-0.576753559134
11
1.24396104835
21
-0.56485922078
0
LINE
8
cam
10
1.24396104835
20
-0.56485922078
11
1.26004223545
21
-0.55246048912
0
LINE
8
cam
10
1.26004223545
20
-0.55246048912
11
1.27609437335
21
-0.539448391212
0
LINE
8
cam
10
1.27609437335
20
-0.539448391212
11
1.29212574388
21
-0.525728311223
0
LINE
8
cam
10
1.29212574388
20
-0.525728311223
11
1.30812582572
21
-0.511218782043
0
LINE
8
cam
10
1.30812582572
20
-0.511218782043
11
1.32406772452
21
-0.495850719992
0
LINE
8
cam
10
1.32406772452
20
-0.495850719992
11
1.33991051253
21
-0.47956695993
0
LINE
8
cam
10
1.33991051253
20
-0.47956695993
11
1.35560144467
21
-0.462321981257
0
LINE
8
cam
10
1.35560144467
20
-0.462321981257
11
1.37107804251
21
-0.444081742828
0
LINE
8
cam
10
1.37107804251
20
-0.444081742828
11
1.38627004915
21
-0.424823566466
0
LINE
8
cam
10
1.38627004915
20
-0.424823566466
11
1.40110126243
21
-0.404536025267
0
LINE
8
cam
10
1.40110126243
20
-0.404536025267
11
1.41549125501
21
-0.383218805406
0
LINE
8
cam
10
1.41549125501
20
-0.383218805406
11
1.41960597592
21
-0.358664919706
0
LINE
8
cam
10
1.41960597592
20
-0.358664919706
11
1.43282967826
21
-0.335484332592
0
LINE
8
cam
10
1.43282967826
20
-0.335484332592
11
1.44536293949
21
-0.311341466015
0
LINE
8
cam
10
1.44536293949
20
-0.311341466015
11
1.45712379834
21
-0.286277700385
0
LINE
8
cam
10
1.45712379834
20
-0.286277700385
11
1.46803316308
21
-0.260343857698
0
LINE
8
cam
10
1.46803316308
20
-0.260343857698
11
1.47801594409
21
-0.233599642693
0
LINE
8
cam
10
1.47801594409
20
-0.233599642693
11
1.48700209052
21
-0.206113005813
0
LINE
8
cam
10
1.48700209052
20
-0.206113005813
11
1.49492752865
21
-0.177959431948
0
LINE
8
cam
10
1.49492752865
20
-0.177959431948
11
1.50173499905
21
-0.149221160275
0
LINE
8
cam
10
1.50173499905
20
-0.149221160275
11
1.50737478978
21
-0.119986341622
0
LINE
8
cam
10
1.50737478978
20
-0.119986341622
11
1.51180536256
21
-0.0903481407074
0
LINE
8
cam
10
1.51180536256
20
-0.0903481407074
11
1.51499386927
21
-0.0604037913379
0
LINE
8
cam
10
1.51499386927
20
-0.0604037913379
11
1.51691655631
21
-0.0302536132842
0
LINE
8
cam
10
1.51691655631
20
-0.0302536132842
11
1.517559055
21
1.58095698613e-15
0
CIRCLE
8
cam
10
-0.157480315
20
0
40
0.31496063
0
CIRCLE
8
roller
10
1.842519685
20
0.0
40
0.31496063
0
CIRCLE
8
roller
10
0.9212598425
20
1.59566885418
40
0.31496063
0
CIRCLE
8
roller
10
-0.9212598425
20
1.59566885418
40
0.31496063
0
CIRCLE
8
roller
10
-1.842519685
20
2.2564358346e-16
40
0.31496063
0
CIRCLE
8
roller
10
-0.9212598425
20
-1.59566885418
40
0.31496063
0
CIRCLE
8
roller
10
0.9212598425
20
-1.59566885418
40
0.31496063
0
CIRCLE
8
roller
10
0
20
0
40
0.31496063
0
ENDSEC
0
EOF
