0
SECTION
2
HEADER
9
$ACADVER
1
AC1006
9
$INSBASE
10
0.0
20
0.0
30
0.0
9
$EXTMIN
10
0.0
20
0.0
9
$EXTMAX
10
0.0
20
0.0
0
ENDSEC
0
SECTION
2
TABLES
0
TABLE
2
LTYPE
70
1
0
LTYPE
2
CONTINUOUS
70
64
3
Solid line
72
65
73
0
40
0.0
0
ENDTAB
0
TABLE
2
LAYER
70
5
0
LAYER
2
PYDXF
70
64
62
7
6
continuous
0
LAYER
2
TEXT
70
64
62
2
6
continuous
0
LAYER
2
CAM
70
64
62
1
6
continuous
0
LAYER
2
ROLLER
70
64
62
5
6
continuous
0
LAYER
2
PRESSURE
70
64
62
3
6
continuous
0
ENDTAB
0
TABLE
2
STYLE
70
1
0
STYLE
2
STANDARD
70
0
40
0
41
40
50
50
71
0
42
1
3
ARIAL.TTF
4

0
ENDTAB
0
TABLE
2
VIEW
70
0
0
ENDTAB
0
ENDSEC
0
SECTION
2
BLOCKS
0
ENDSEC
0
SECTION
2
ENTITIES
0
TEXT
8
text
10
2.972440945
20
0.7
40
0.1
1
pitch=0.3904199475
0
TEXT
8
text
10
2.972440945
20
0.5
40
0.1
1
pin diameter=0.62992126
0
TEXT
8
text
10
2.972440945
20
0.3
40
0.1
1
eccentricity=0.157480315
0
TEXT
8
text
10
2.972440945
20
0.1
40
0.1
1
# of teeth=6
0
TEXT
8
text
10
2.972440945
20
-0.1
40
0.1
1
pressure angle limit=50.0
0
TEXT
8
text
10
2.972440945
20
-0.3
40
0.1
1
pressure angle offset=0.01
0
TEXT
8
text
10
2.972440945
20
-0.5
40
0.1
1
min angle=13.0
0
TEXT
8
text
10
2.972440945
20
-0.7
40
0.1
1
max angle=112.0
0
CIRCLE
8
pressure
10
-0.157480315
20
0
40
1.91171290583
0
CIRCLE
8
pressure
10
-0.157480315
20
0
40
2.12188287916
0
LINE
8
cam
10
2.017559055
20
0.0
11
2.01665177172
21
0.0394563701681
0
LINE
8
cam
10
2.01665177172
20
0.0394563701681
11
2.01393886973
21
0.0787464283197
0
LINE
8
cam
10
2.01393886973
20
0.0787464283197
11
2.00944704142
21
0.117706179103
0
LINE
8
cam
10
2.00944704142
20
0.117706179103
11
2.00322027135
21
0.15617623284
0
LINE
8
cam
10
2.00322027135
20
0.15617623284
11
1.99531908545
21
0.194004039785
0
LINE
8
cam
10
1.99531908545
20
0.194004039785
11
1.98581950672
21
0.231046043644
0
LINE
8
cam
10
1.98581950672
20
0.231046043644
11
1.97481172367
21
0.267169730124
0
LINE
8
cam
10
1.97481172367
20
0.267169730124
11
1.9623984791
21
0.302255548632
0
LINE
8
cam
10
1.9623984791
20
0.302255548632
11
1.94869318773
21
0.336198688408
0
LINE
8
cam
10
1.94869318773
20
0.336198688408
11
1.93381779139
21
0.368910694395
0
LINE
8
cam
10
1.93381779139
20
0.368910694395
11
1.91790036047
21
0.400320913213
0
LINE
8
cam
10
1.91790036047
20
0.400320913213
11
1.91086081545
21
0.432424201372
0
LINE
8
cam
10
1.91086081545
20
0.432424201372
11
1.89322247996
21
0.461244233741
0
LINE
8
cam
10
1.89322247996
20
0.461244233741
11
1.8749342104
21
0.488664643071
0
LINE
8
cam
10
1.8749342104
20
0.488664643071
11
1.85611998513
21
0.514697109792
0
LINE
8
cam
10
1.85611998513
20
0.514697109792
11
1.83689433397
21
0.539376116161
0
LINE
8
cam
10
1.83689433397
20
0.539376116161
11
1.81735855737
21
0.562759705023
0
LINE
8
cam
10
1.81735855737
20
0.562759705023
11
1.79759676487
21
0.584930334061
0
LINE
8
cam
10
1.79759676487
20
0.584930334061
11
1.77767179238
21
0.605995962894
0
LINE
8
cam
10
1.77767179238
20
0.605995962894
11
1.75762111937
21
0.626091554242
0
LINE
8
cam
10
1.75762111937
20
0.626091554242
11
1.73745302039
21
0.645381215526
0
LINE
8
cam
10
1.73745302039
20
0.645381215526
11
1.71714338501
21
0.66406123771
0
LINE
8
cam
10
1.71714338501
20
0.66406123771
11
1.69663397568
21
0.682364265529
0
LINE
8
cam
10
1.69663397568
20
0.682364265529
11
1.67583342682
21
0.700564675328
0
LINE
8
cam
10
1.67583342682
20
0.700564675328
11
1.65462307173
21
0.718984784289
0
LINE
8
cam
10
1.65462307173
20
0.718984784289
11
1.63287067689
21
0.738000495524
0
LINE
8
cam
10
1.63287067689
20
0.738000495524
11
1.61045604998
21
0.758043020609
0
LINE
8
cam
10
1.61045604998
20
0.758043020609
11
1.57818224259
21
0.775510722335
0
LINE
8
cam
10
1.57818224259
20
0.775510722335
11
1.55442177337
21
0.798907523371
0
LINE
8
cam
10
1.55442177337
20
0.798907523371
11
1.53020580973
21
0.824739814493
0
LINE
8
cam
10
1.53020580973
20
0.824739814493
11
1.50598220751
21
0.853307045089
0
LINE
8
cam
10
1.50598220751
20
0.853307045089
11
1.48241910233
21
0.884634609601
0
LINE
8
cam
10
1.48241910233
20
0.884634609601
11
1.4603091162
21
0.918373620649
0
LINE
8
cam
10
1.4603091162
20
0.918373620649
11
1.44039028048
21
0.953798477252
0
LINE
8
cam
10
1.44039028048
20
0.953798477252
11
1.42315425271
21
0.989942133678
0
LINE
8
cam
10
1.42315425271
20
0.989942133678
11
1.40873830272
21
1.0258258698
0
LINE
8
cam
10
1.40873830272
20
1.0258258698
11
1.39694700075
21
1.06067597549
0
LINE
8
cam
10
1.39694700075
20
1.06067597549
11
1.38736701539
21
1.09403773268
0
LINE
8
cam
10
1.38736701539
20
1.09403773268
11
1.38756730935
21
1.13168123565
0
LINE
8
cam
10
1.38756730935
20
1.13168123565
11
1.38083836388
21
1.16200741766
0
LINE
8
cam
10
1.38083836388
20
1.16200741766
11
1.3749131254
21
1.19104282478
0
LINE
8
cam
10
1.3749131254
20
1.19104282478
11
1.36943467694
21
1.21909778019
0
LINE
8
cam
10
1.36943467694
20
1.21909778019
11
1.36410928291
21
1.24648962415
0
LINE
8
cam
10
1.36410928291
20
1.24648962415
11
1.35869223089
21
1.27350961698
0
LINE
8
cam
10
1.35869223089
20
1.27350961698
11
1.35297414544
21
1.30040638272
0
LINE
8
cam
10
1.35297414544
20
1.30040638272
11
1.34677037143
21
1.32737969178
0
LINE
8
cam
10
1.34677037143
20
1.32737969178
11
1.33991379591
21
1.35458007053
0
LINE
8
cam
10
1.33991379591
20
1.35458007053
11
1.33225058108
21
1.38211138319
0
LINE
8
cam
10
1.33225058108
20
1.38211138319
11
1.32363806457
21
1.41003474045
0
LINE
8
cam
10
1.32363806457
20
1.41003474045
11
1.31394414595
21
1.4383728586
0
LINE
8
cam
10
1.31394414595
20
1.4383728586
11
1.30304762219
21
1.46711444153
0
LINE
8
cam
10
1.30304762219
20
1.46711444153
11
1.29083907799
21
1.4962184032
0
LINE
8
cam
10
1.29083907799
20
1.4962184032
11
1.27722205297
21
1.52561787243
0
LINE
8
cam
10
1.27722205297
20
1.52561787243
11
1.26211429389
21
1.55522398014
0
LINE
8
cam
10
1.26211429389
20
1.55522398014
11
1.24544896114
21
1.58492945066
0
LINE
8
cam
10
1.24544896114
20
1.58492945066
11
1.2206658831
21
1.60702109044
0
LINE
8
cam
10
1.2206658831
20
1.60702109044
11
1.20087453623
21
1.63644316232
0
LINE
8
cam
10
1.20087453623
20
1.63644316232
11
1.17943179668
21
1.66556553044
0
LINE
8
cam
10
1.17943179668
20
1.66556553044
11
1.15634096616
21
1.69424043905
0
LINE
8
cam
10
1.15634096616
20
1.69424043905
11
1.13162384022
21
1.72231748684
0
LINE
8
cam
10
1.13162384022
20
1.72231748684
11
1.10532056373
21
1.7496463833
0
LINE
8
cam
10
1.10532056373
20
1.7496463833
11
1.07748921329
21
1.77607956662
0
LINE
8
cam
10
1.07748921329
20
1.77607956662
11
1.04820511187
21
1.80147466968
0
LINE
8
cam
10
1.04820511187
20
1.80147466968
11
1.01755988546
21
1.82569681859
0
LINE
8
cam
10
1.01755988546
20
1.82569681859
11
0.985660274773
21
1.84862074664
0
LINE
8
cam
10
0.985660274773
20
1.84862074664
11
0.952626718029
21
1.87013270617
0
LINE
8
cam
10
0.952626718029
20
1.87013270617
11
0.918591723574
21
1.89013216067
0
LINE
8
cam
10
0.918591723574
20
1.89013216067
11
0.883698053014
21
1.90853324052
0
LINE
8
cam
10
0.883698053014
20
1.90853324052
11
0.848096737452
21
1.92526594644
0
LINE
8
cam
10
0.848096737452
20
1.92526594644
11
0.811944950643
21
1.94027708677
0
LINE
8
cam
10
0.811944950643
20
1.94027708677
11
0.775403763754
21
1.95353093596
0
LINE
8
cam
10
0.775403763754
20
1.95353093596
11
0.738635806696
21
1.96500960428
0
LINE
8
cam
10
0.738635806696
20
1.96500960428
11
0.701802860759
21
1.97471311035
0
LINE
8
cam
10
0.701802860759
20
1.97471311035
11
0.66506340632
21
1.98265915073
0
LINE
8
cam
10
0.66506340632
20
1.98265915073
11
0.628570147688
21
1.98888256303
0
LINE
8
cam
10
0.628570147688
20
1.98888256303
11
0.592467534549
21
1.99343448115
0
LINE
8
cam
10
0.592467534549
20
1.99343448115
11
0.556889295802
21
1.99638118377
0
LINE
8
cam
10
0.556889295802
20
1.99638118377
11
0.525175803075
21
2.0072701022
0
LINE
8
cam
10
0.525175803075
20
2.0072701022
11
0.490846120842
21
2.00730672242
0
LINE
8
cam
10
0.490846120842
20
2.00730672242
11
0.457356614052
21
2.00600833557
0
LINE
8
cam
10
0.457356614052
20
2.00600833557
11
0.424774107113
21
2.00348448464
0
LINE
8
cam
10
0.424774107113
20
2.00348448464
11
0.393142592157
21
1.99984976252
0
LINE
8
cam
10
0.393142592157
20
1.99984976252
11
0.362480755265
21
1.99522103278
0
LINE
8
cam
10
0.362480755265
20
1.99522103278
11
0.332779380244
21
1.98971448834
0
LINE
8
cam
10
0.332779380244
20
1.98971448834
11
0.303998551204
21
1.9834426354
0
LINE
8
cam
10
0.303998551204
20
1.9834426354
11
0.276064560767
21
1.97651134362
0
LINE
8
cam
10
0.276064560767
20
1.97651134362
11
0.248866429474
21
1.96901719247
0
LINE
8
cam
10
0.248866429474
20
1.96901719247
11
0.222251973717
21
1.96104548393
0
LINE
8
cam
10
0.222251973717
20
1.96104548393
11
0.196023462612
21
1.95266950768
0
LINE
8
cam
10
0.196023462612
20
1.95266950768
11
0.16993314964
21
1.94395195869
0
LINE
8
cam
10
0.16993314964
20
1.94395195869
11
0.14367947373
21
1.93494982158
0
LINE
8
cam
10
0.14367947373
20
1.93494982158
11
0.116905681233
21
1.92572448358
0
LINE
8
cam
10
0.116905681233
20
1.92572448358
11
0.0892042444319
21
1.91635907209
0
LINE
8
cam
10
0.0892042444319
20
1.91635907209
11
0.0601328370519
21
1.90698442774
0
LINE
8
cam
10
0.0601328370519
20
1.90698442774
11
0.0282710694433
21
1.88786062751
0
LINE
8
cam
10
0.0282710694433
20
1.88786062751
11
-0.00462909563933
21
1.87920342412
0
LINE
8
cam
10
-0.00462909563933
20
1.87920342412
11
-0.0399106594797
21
1.87153708359
0
LINE
8
cam
10
-0.0399106594797
20
1.87153708359
11
-0.0775031480859
21
1.86542813251
0
LINE
8
cam
10
-0.0775031480859
20
1.86542813251
11
-0.116964664572
21
1.86145876301
0
LINE
8
cam
10
-0.116964664572
20
1.86145876301
11
-0.157480315
21
1.86007874
0
LINE
8
cam
10
-0.157480315
20
1.86007874
11
-0.197995965428
21
1.86145876301
0
LINE
8
cam
10
-0.197995965428
20
1.86145876301
11
-0.237457481914
21
1.86542813251
0
LINE
8
cam
10
-0.237457481914
20
1.86542813251
11
-0.27504997052
21
1.87153708359
0
LINE
8
cam
10
-0.27504997052
20
1.87153708359
11
-0.310331534361
21
1.87920342412
0
LINE
8
cam
10
-0.310331534361
20
1.87920342412
11
-0.343231699443
21
1.88786062751
0
LINE
8
cam
10
-0.343231699443
20
1.88786062751
11
-0.375093467052
21
1.90698442774
0
LINE
8
cam
10
-0.375093467052
20
1.90698442774
11
-0.404164874432
21
1.91635907209
0
LINE
8
cam
10
-0.404164874432
20
1.91635907209
11
-0.431866311233
21
1.92572448358
0
LINE
8
cam
10
-0.431866311233
20
1.92572448358
11
-0.45864010373
21
1.93494982158
0
LINE
8
cam
10
-0.45864010373
20
1.93494982158
11
-0.48489377964
21
1.94395195869
0
LINE
8
cam
10
-0.48489377964
20
1.94395195869
11
-0.510984092612
21
1.95266950768
0
LINE
8
cam
10
-0.510984092612
20
1.95266950768
11
-0.537212603717
21
1.96104548393
0
LINE
8
cam
10
-0.537212603717
20
1.96104548393
11
-0.563827059474
21
1.96901719247
0
LINE
8
cam
10
-0.563827059474
20
1.96901719247
11
-0.591025190767
21
1.97651134362
0
LINE
8
cam
10
-0.591025190767
20
1.97651134362
11
-0.618959181204
21
1.9834426354
0
LINE
8
cam
10
-0.618959181204
20
1.9834426354
11
-0.647740010244
21
1.98971448834
0
LINE
8
cam
10
-0.647740010244
20
1.98971448834
11
-0.677441385265
21
1.99522103278
0
LINE
8
cam
10
-0.677441385265
20
1.99522103278
11
-0.708103222157
21
1.99984976252
0
LINE
8
cam
10
-0.708103222157
20
1.99984976252
11
-0.739734737113
21
2.00348448464
0
LINE
8
cam
10
-0.739734737113
20
2.00348448464
11
-0.772317244052
21
2.00600833557
0
LINE
8
cam
10
-0.772317244052
20
2.00600833557
11
-0.805806750842
21
2.00730672242
0
LINE
8
cam
10
-0.805806750842
20
2.00730672242
11
-0.840136433075
21
2.0072701022
0
LINE
8
cam
10
-0.840136433075
20
2.0072701022
11
-0.871849925802
21
1.99638118377
0
LINE
8
cam
10
-0.871849925802
20
1.99638118377
11
-0.907428164549
21
1.99343448115
0
LINE
8
cam
10
-0.907428164549
20
1.99343448115
11
-0.943530777688
21
1.98888256303
0
LINE
8
cam
10
-0.943530777688
20
1.98888256303
11
-0.98002403632
21
1.98265915073
0
LINE
8
cam
10
-0.98002403632
20
1.98265915073
11
-1.01676349076
21
1.97471311035
0
LINE
8
cam
10
-1.01676349076
20
1.97471311035
11
-1.0535964367
21
1.96500960428
0
LINE
8
cam
10
-1.0535964367
20
1.96500960428
11
-1.09036439375
21
1.95353093596
0
LINE
8
cam
10
-1.09036439375
20
1.95353093596
11
-1.12690558064
21
1.94027708677
0
LINE
8
cam
10
-1.12690558064
20
1.94027708677
11
-1.16305736745
21
1.92526594644
0
LINE
8
cam
10
-1.16305736745
20
1.92526594644
11
-1.19865868301
21
1.90853324052
0
LINE
8
cam
10
-1.19865868301
20
1.90853324052
11
-1.23355235357
21
1.89013216067
0
LINE
8
cam
10
-1.23355235357
20
1.89013216067
11
-1.26758734803
21
1.87013270617
0
LINE
8
cam
10
-1.26758734803
20
1.87013270617
11
-1.30062090477
21
1.84862074664
0
LINE
8
cam
10
-1.30062090477
20
1.84862074664
11
-1.33252051546
21
1.82569681859
0
LINE
8
cam
10
-1.33252051546
20
1.82569681859
11
-1.36316574187
21
1.80147466968
0
LINE
8
cam
10
-1.36316574187
20
1.80147466968
11
-1.39244984329
21
1.77607956662
0
LINE
8
cam
10
-1.39244984329
20
1.77607956662
11
-1.42028119373
21
1.7496463833
0
LINE
8
cam
10
-1.42028119373
20
1.7496463833
11
-1.44658447022
21
1.72231748684
0
LINE
8
cam
10
-1.44658447022
20
1.72231748684
11
-1.47130159616
21
1.69424043905
0
LINE
8
cam
10
-1.47130159616
20
1.69424043905
11
-1.49439242668
21
1.66556553044
0
LINE
8
cam
10
-1.49439242668
20
1.66556553044
11
-1.51583516623
21
1.63644316232
0
LINE
8
cam
10
-1.51583516623
20
1.63644316232
11
-1.5356265131
21
1.60702109044
0
LINE
8
cam
10
-1.5356265131
20
1.60702109044
11
-1.56040959114
21
1.58492945066
0
LINE
8
cam
10
-1.56040959114
20
1.58492945066
11
-1.57707492389
21
1.55522398014
0
LINE
8
cam
10
-1.57707492389
20
1.55522398014
11
-1.59218268297
21
1.52561787243
0
LINE
8
cam
10
-1.59218268297
20
1.52561787243
11
-1.60579970799
21
1.4962184032
0
LINE
8
cam
10
-1.60579970799
20
1.4962184032
11
-1.61800825219
21
1.46711444153
0
LINE
8
cam
10
-1.61800825219
20
1.46711444153
11
-1.62890477595
21
1.4383728586
0
LINE
8
cam
10
-1.62890477595
20
1.4383728586
11
-1.63859869457
21
1.41003474045
0
LINE
8
cam
10
-1.63859869457
20
1.41003474045
11
-1.64721121108
21
1.38211138319
0
LINE
8
cam
10
-1.64721121108
20
1.38211138319
11
-1.65487442591
21
1.35458007053
0
LINE
8
cam
10
-1.65487442591
20
1.35458007053
11
-1.66173100143
21
1.32737969178
0
LINE
8
cam
10
-1.66173100143
20
1.32737969178
11
-1.66793477544
21
1.30040638272
0
LINE
8
cam
10
-1.66793477544
20
1.30040638272
11
-1.67365286089
21
1.27350961698
0
LINE
8
cam
10
-1.67365286089
20
1.27350961698
11
-1.67906991291
21
1.24648962415
0
LINE
8
cam
10
-1.67906991291
20
1.24648962415
11
-1.68439530694
21
1.21909778019
0
LINE
8
cam
10
-1.68439530694
20
1.21909778019
11
-1.6898737554
21
1.19104282478
0
LINE
8
cam
10
-1.6898737554
20
1.19104282478
11
-1.69579899388
21
1.16200741766
0
LINE
8
cam
10
-1.69579899388
20
1.16200741766
11
-1.70252793935
21
1.13168123565
0
LINE
8
cam
10
-1.70252793935
20
1.13168123565
11
-1.70232764539
21
1.09403773268
0
LINE
8
cam
10
-1.70232764539
20
1.09403773268
11
-1.71190763075
21
1.06067597549
0
LINE
8
cam
10
-1.71190763075
20
1.06067597549
11
-1.72369893272
21
1.0258258698
0
LINE
8
cam
10
-1.72369893272
20
1.0258258698
11
-1.73811488271
21
0.989942133678
0
LINE
8
cam
10
-1.73811488271
20
0.989942133678
11
-1.75535091048
21
0.953798477252
0
LINE
8
cam
10
-1.75535091048
20
0.953798477252
11
-1.7752697462
21
0.918373620649
0
LINE
8
cam
10
-1.7752697462
20
0.918373620649
11
-1.79737973233
21
0.884634609601
0
LINE
8
cam
10
-1.79737973233
20
0.884634609601
11
-1.82094283751
21
0.853307045089
0
LINE
8
cam
10
-1.82094283751
20
0.853307045089
11
-1.84516643973
21
0.824739814493
0
LINE
8
cam
10
-1.84516643973
20
0.824739814493
11
-1.86938240337
21
0.798907523371
0
LINE
8
cam
10
-1.86938240337
20
0.798907523371
11
-1.89314287259
21
0.775510722335
0
LINE
8
cam
10
-1.89314287259
20
0.775510722335
11
-1.92541667998
21
0.758043020609
0
LINE
8
cam
10
-1.92541667998
20
0.758043020609
11
-1.94783130689
21
0.738000495524
0
LINE
8
cam
10
-1.94783130689
20
0.738000495524
11
-1.96958370173
21
0.718984784289
0
LINE
8
cam
10
-1.96958370173
20
0.718984784289
11
-1.99079405682
21
0.700564675328
0
LINE
8
cam
10
-1.99079405682
20
0.700564675328
11
-2.01159460568
21
0.682364265529
0
LINE
8
cam
10
-2.01159460568
20
0.682364265529
11
-2.03210401501
21
0.66406123771
0
LINE
8
cam
10
-2.03210401501
20
0.66406123771
11
-2.05241365039
21
0.645381215526
0
LINE
8
cam
10
-2.05241365039
20
0.645381215526
11
-2.07258174937
21
0.626091554242
0
LINE
8
cam
10
-2.07258174937
20
0.626091554242
11
-2.09263242238
21
0.605995962894
0
LINE
8
cam
10
-2.09263242238
20
0.605995962894
11
-2.11255739487
21
0.584930334061
0
LINE
8
cam
10
-2.11255739487
20
0.584930334061
11
-2.13231918737
21
0.562759705023
0
LINE
8
cam
10
-2.13231918737
20
0.562759705023
11
-2.15185496397
21
0.539376116161
0
LINE
8
cam
10
-2.15185496397
20
0.539376116161
11
-2.17108061513
21
0.514697109792
0
LINE
8
cam
10
-2.17108061513
20
0.514697109792
11
-2.1898948404
21
0.488664643071
0
LINE
8
cam
10
-2.1898948404
20
0.488664643071
11
-2.20818310996
21
0.461244233741
0
LINE
8
cam
10
-2.20818310996
20
0.461244233741
11
-2.22582144545
21
0.432424201372
0
LINE
8
cam
10
-2.22582144545
20
0.432424201372
11
-2.23286099047
21
0.400320913213
0
LINE
8
cam
10
-2.23286099047
20
0.400320913213
11
-2.24877842139
21
0.368910694395
0
LINE
8
cam
10
-2.24877842139
20
0.368910694395
11
-2.26365381773
21
0.336198688408
0
LINE
8
cam
10
-2.26365381773
20
0.336198688408
11
-2.2773591091
21
0.302255548632
0
LINE
8
cam
10
-2.2773591091
20
0.302255548632
11
-2.28977235367
21
0.267169730124
0
LINE
8
cam
10
-2.28977235367
20
0.267169730124
11
-2.30078013672
21
0.231046043644
0
LINE
8
cam
10
-2.30078013672
20
0.231046043644
11
-2.31027971545
21
0.194004039785
0
LINE
8
cam
10
-2.31027971545
20
0.194004039785
11
-2.31818090135
21
0.15617623284
0
LINE
8
cam
10
-2.31818090135
20
0.15617623284
11
-2.32440767142
21
0.117706179103
0
LINE
8
cam
10
-2.32440767142
20
0.117706179103
11
-2.32889949973
21
0.0787464283197
0
LINE
8
cam
10
-2.32889949973
20
0.0787464283197
11
-2.33161240172
21
0.0394563701681
0
LINE
8
cam
10
-2.33161240172
20
0.0394563701681
11
-2.332519685
21
-1.23227701547e-15
0
LINE
8
cam
10
-2.332519685
20
-1.23227701547e-15
11
-2.33161240172
21
-0.0394563701681
0
LINE
8
cam
10
-2.33161240172
20
-0.0394563701681
11
-2.32889949973
21
-0.0787464283197
0
LINE
8
cam
10
-2.32889949973
20
-0.0787464283197
11
-2.32440767142
21
-0.117706179103
0
LINE
8
cam
10
-2.32440767142
20
-0.117706179103
11
-2.31818090135
21
-0.15617623284
0
LINE
8
cam
10
-2.31818090135
20
-0.15617623284
11
-2.31027971545
21
-0.194004039785
0
LINE
8
cam
10
-2.31027971545
20
-0.194004039785
11
-2.30078013672
21
-0.231046043644
0
LINE
8
cam
10
-2.30078013672
20
-0.231046043644
11
-2.28977235367
21
-0.267169730124
0
LINE
8
cam
10
-2.28977235367
20
-0.267169730124
11
-2.2773591091
21
-0.302255548632
0
LINE
8
cam
10
-2.2773591091
20
-0.302255548632
11
-2.26365381773
21
-0.336198688408
0
LINE
8
cam
10
-2.26365381773
20
-0.336198688408
11
-2.24877842139
21
-0.368910694395
0
LINE
8
cam
10
-2.24877842139
20
-0.368910694395
11
-2.23286099047
21
-0.400320913213
0
LINE
8
cam
10
-2.23286099047
20
-0.400320913213
11
-2.22582144545
21
-0.432424201372
0
LINE
8
cam
10
-2.22582144545
20
-0.432424201372
11
-2.20818310996
21
-0.461244233741
0
LINE
8
cam
10
-2.20818310996
20
-0.461244233741
11
-2.1898948404
21
-0.488664643071
0
LINE
8
cam
10
-2.1898948404
20
-0.488664643071
11
-2.17108061513
21
-0.514697109792
0
LINE
8
cam
10
-2.17108061513
20
-0.514697109792
11
-2.15185496397
21
-0.539376116161
0
LINE
8
cam
10
-2.15185496397
20
-0.539376116161
11
-2.13231918737
21
-0.562759705023
0
LINE
8
cam
10
-2.13231918737
20
-0.562759705023
11
-2.11255739487
21
-0.584930334061
0
LINE
8
cam
10
-2.11255739487
20
-0.584930334061
11
-2.09263242238
21
-0.605995962894
0
LINE
8
cam
10
-2.09263242238
20
-0.605995962894
11
-2.07258174937
21
-0.626091554242
0
LINE
8
cam
10
-2.07258174937
20
-0.626091554242
11
-2.05241365039
21
-0.645381215526
0
LINE
8
cam
10
-2.05241365039
20
-0.645381215526
11
-2.03210401501
21
-0.66406123771
0
LINE
8
cam
10
-2.03210401501
20
-0.66406123771
11
-2.01159460568
21
-0.682364265529
0
LINE
8
cam
10
-2.01159460568
20
-0.682364265529
11
-1.99079405682
21
-0.700564675328
0
LINE
8
cam
10
-1.99079405682
20
-0.700564675328
11
-1.96958370173
21
-0.718984784289
0
LINE
8
cam
10
-1.96958370173
20
-0.718984784289
11
-1.94783130689
21
-0.738000495524
0
LINE
8
cam
10
-1.94783130689
20
-0.738000495524
11
-1.92541667998
21
-0.758043020609
0
LINE
8
cam
10
-1.92541667998
20
-0.758043020609
11
-1.89314287259
21
-0.775510722335
0
LINE
8
cam
10
-1.89314287259
20
-0.775510722335
11
-1.86938240337
21
-0.798907523371
0
LINE
8
cam
10
-1.86938240337
20
-0.798907523371
11
-1.84516643973
21
-0.824739814493
0
LINE
8
cam
10
-1.84516643973
20
-0.824739814493
11
-1.82094283751
21
-0.853307045089
0
LINE
8
cam
10
-1.82094283751
20
-0.853307045089
11
-1.79737973233
21
-0.884634609601
0
LINE
8
cam
10
-1.79737973233
20
-0.884634609601
11
-1.7752697462
21
-0.918373620649
0
LINE
8
cam
10
-1.7752697462
20
-0.918373620649
11
-1.75535091048
21
-0.953798477252
0
LINE
8
cam
10
-1.75535091048
20
-0.953798477252
11
-1.73811488271
21
-0.989942133678
0
LINE
8
cam
10
-1.73811488271
20
-0.989942133678
11
-1.72369893272
21
-1.0258258698
0
LINE
8
cam
10
-1.72369893272
20
-1.0258258698
11
-1.71190763075
21
-1.06067597549
0
LINE
8
cam
10
-1.71190763075
20
-1.06067597549
11
-1.70232764539
21
-1.09403773268
0
LINE
8
cam
10
-1.70232764539
20
-1.09403773268
11
-1.70252793935
21
-1.13168123565
0
LINE
8
cam
10
-1.70252793935
20
-1.13168123565
11
-1.69579899388
21
-1.16200741766
0
LINE
8
cam
10
-1.69579899388
20
-1.16200741766
11
-1.6898737554
21
-1.19104282478
0
LINE
8
cam
10
-1.6898737554
20
-1.19104282478
11
-1.68439530694
21
-1.21909778019
0
LINE
8
cam
10
-1.68439530694
20
-1.21909778019
11
-1.67906991291
21
-1.24648962415
0
LINE
8
cam
10
-1.67906991291
20
-1.24648962415
11
-1.67365286089
21
-1.27350961698
0
LINE
8
cam
10
-1.67365286089
20
-1.27350961698
11
-1.66793477544
21
-1.30040638272
0
LINE
8
cam
10
-1.66793477544
20
-1.30040638272
11
-1.66173100143
21
-1.32737969178
0
LINE
8
cam
10
-1.66173100143
20
-1.32737969178
11
-1.65487442591
21
-1.35458007053
0
LINE
8
cam
10
-1.65487442591
20
-1.35458007053
11
-1.64721121108
21
-1.38211138319
0
LINE
8
cam
10
-1.64721121108
20
-1.38211138319
11
-1.63859869457
21
-1.41003474045
0
LINE
8
cam
10
-1.63859869457
20
-1.41003474045
11
-1.62890477595
21
-1.4383728586
0
LINE
8
cam
10
-1.62890477595
20
-1.4383728586
11
-1.61800825219
21
-1.46711444153
0
LINE
8
cam
10
-1.61800825219
20
-1.46711444153
11
-1.60579970799
21
-1.4962184032
0
LINE
8
cam
10
-1.60579970799
20
-1.4962184032
11
-1.59218268297
21
-1.52561787243
0
LINE
8
cam
10
-1.59218268297
20
-1.52561787243
11
-1.57707492389
21
-1.55522398014
0
LINE
8
cam
10
-1.57707492389
20
-1.55522398014
11
-1.56040959114
21
-1.58492945066
0
LINE
8
cam
10
-1.56040959114
20
-1.58492945066
11
-1.5356265131
21
-1.60702109044
0
LINE
8
cam
10
-1.5356265131
20
-1.60702109044
11
-1.51583516623
21
-1.63644316232
0
LINE
8
cam
10
-1.51583516623
20
-1.63644316232
11
-1.49439242668
21
-1.66556553044
0
LINE
8
cam
10
-1.49439242668
20
-1.66556553044
11
-1.47130159616
21
-1.69424043905
0
LINE
8
cam
10
-1.47130159616
20
-1.69424043905
11
-1.44658447022
21
-1.72231748684
0
LINE
8
cam
10
-1.44658447022
20
-1.72231748684
11
-1.42028119373
21
-1.7496463833
0
LINE
8
cam
10
-1.42028119373
20
-1.7496463833
11
-1.39244984329
21
-1.77607956662
0
LINE
8
cam
10
-1.39244984329
20
-1.77607956662
11
-1.36316574187
21
-1.80147466968
0
LINE
8
cam
10
-1.36316574187
20
-1.80147466968
11
-1.33252051546
21
-1.82569681859
0
LINE
8
cam
10
-1.33252051546
20
-1.82569681859
11
-1.30062090477
21
-1.84862074664
0
LINE
8
cam
10
-1.30062090477
20
-1.84862074664
11
-1.26758734803
21
-1.87013270617
0
LINE
8
cam
10
-1.26758734803
20
-1.87013270617
11
-1.23355235357
21
-1.89013216067
0
LINE
8
cam
10
-1.23355235357
20
-1.89013216067
11
-1.19865868301
21
-1.90853324052
0
LINE
8
cam
10
-1.19865868301
20
-1.90853324052
11
-1.16305736745
21
-1.92526594644
0
LINE
8
cam
10
-1.16305736745
20
-1.92526594644
11
-1.12690558064
21
-1.94027708677
0
LINE
8
cam
10
-1.12690558064
20
-1.94027708677
11
-1.09036439375
21
-1.95353093596
0
LINE
8
cam
10
-1.09036439375
20
-1.95353093596
11
-1.0535964367
21
-1.96500960428
0
LINE
8
cam
10
-1.0535964367
20
-1.96500960428
11
-1.01676349076
21
-1.97471311035
0
LINE
8
cam
10
-1.01676349076
20
-1.97471311035
11
-0.98002403632
21
-1.98265915073
0
LINE
8
cam
10
-0.98002403632
20
-1.98265915073
11
-0.943530777688
21
-1.98888256303
0
LINE
8
cam
10
-0.943530777688
20
-1.98888256303
11
-0.907428164549
21
-1.99343448115
0
LINE
8
cam
10
-0.907428164549
20
-1.99343448115
11
-0.871849925802
21
-1.99638118377
0
LINE
8
cam
10
-0.871849925802
20
-1.99638118377
11
-0.840136433075
21
-2.0072701022
0
LINE
8
cam
10
-0.840136433075
20
-2.0072701022
11
-0.805806750842
21
-2.00730672242
0
LINE
8
cam
10
-0.805806750842
20
-2.00730672242
11
-0.772317244052
21
-2.00600833557
0
LINE
8
cam
10
-0.772317244052
20
-2.00600833557
11
-0.739734737113
21
-2.00348448464
0
LINE
8
cam
10
-0.739734737113
20
-2.00348448464
11
-0.708103222157
21
-1.99984976252
0
LINE
8
cam
10
-0.708103222157
20
-1.99984976252
11
-0.677441385265
21
-1.99522103278
0
LINE
8
cam
10
-0.677441385265
20
-1.99522103278
11
-0.647740010244
21
-1.98971448834
0
LINE
8
cam
10
-0.647740010244
20
-1.98971448834
11
-0.618959181204
21
-1.9834426354
0
LINE
8
cam
10
-0.618959181204
20
-1.9834426354
11
-0.591025190767
21
-1.97651134362
0
LINE
8
cam
10
-0.591025190767
20
-1.97651134362
11
-0.563827059474
21
-1.96901719247
0
LINE
8
cam
10
-0.563827059474
20
-1.96901719247
11
-0.537212603717
21
-1.96104548393
0
LINE
8
cam
10
-0.537212603717
20
-1.96104548393
11
-0.510984092612
21
-1.95266950768
0
LINE
8
cam
10
-0.510984092612
20
-1.95266950768
11
-0.48489377964
21
-1.94395195869
0
LINE
8
cam
10
-0.48489377964
20
-1.94395195869
11
-0.45864010373
21
-1.93494982158
0
LINE
8
cam
10
-0.45864010373
20
-1.93494982158
11
-0.431866311233
21
-1.92572448358
0
LINE
8
cam
10
-0.431866311233
20
-1.92572448358
11
-0.404164874432
21
-1.91635907209
0
LINE
8
cam
10
-0.404164874432
20
-1.91635907209
11
-0.375093467052
21
-1.90698442774
0
LINE
8
cam
10
-0.375093467052
20
-1.90698442774
11
-0.343231699443
21
-1.88786062751
0
LINE
8
cam
10
-0.343231699443
20
-1.88786062751
11
-0.310331534361
21
-1.87920342412
0
LINE
8
cam
10
-0.310331534361
20
-1.87920342412
11
-0.27504997052
21
-1.87153708359
0
LINE
8
cam
10
-0.27504997052
20
-1.87153708359
11
-0.237457481914
21
-1.86542813251
0
LINE
8
cam
10
-0.237457481914
20
-1.86542813251
11
-0.197995965428
21
-1.86145876301
0
LINE
8
cam
10
-0.197995965428
20
-1.86145876301
11
-0.157480315
21
-1.86007874
0
LINE
8
cam
10
-0.157480315
20
-1.86007874
11
-0.116964664572
21
-1.86145876301
0
LINE
8
cam
10
-0.116964664572
20
-1.86145876301
11
-0.0775031480859
21
-1.86542813251
0
LINE
8
cam
10
-0.0775031480859
20
-1.86542813251
11
-0.0399106594797
21
-1.87153708359
0
LINE
8
cam
10
-0.0399106594797
20
-1.87153708359
11
-0.00462909563933
21
-1.87920342412
0
LINE
8
cam
10
-0.00462909563933
20
-1.87920342412
11
0.0282710694433
21
-1.88786062751
0
LINE
8
cam
10
0.0282710694433
20
-1.88786062751
11
0.0601328370519
21
-1.90698442774
0
LINE
8
cam
10
0.0601328370519
20
-1.90698442774
11
0.0892042444319
21
-1.91635907209
0
LINE
8
cam
10
0.0892042444319
20
-1.91635907209
11
0.116905681233
21
-1.92572448358
0
LINE
8
cam
10
0.116905681233
20
-1.92572448358
11
0.14367947373
21
-1.93494982158
0
LINE
8
cam
10
0.14367947373
20
-1.93494982158
11
0.16993314964
21
-1.94395195869
0
LINE
8
cam
10
0.16993314964
20
-1.94395195869
11
0.196023462612
21
-1.95266950768
0
LINE
8
cam
10
0.196023462612
20
-1.95266950768
11
0.222251973717
21
-1.96104548393
0
LINE
8
cam
10
0.222251973717
20
-1.96104548393
11
0.248866429474
21
-1.96901719247
0
LINE
8
cam
10
0.248866429474
20
-1.96901719247
11
0.276064560767
21
-1.97651134362
0
LINE
8
cam
10
0.276064560767
20
-1.97651134362
11
0.303998551204
21
-1.9834426354
0
LINE
8
cam
10
0.303998551204
20
-1.9834426354
11
0.332779380244
21
-1.98971448834
0
LINE
8
cam
10
0.332779380244
20
-1.98971448834
11
0.362480755265
21
-1.99522103278
0
LINE
8
cam
10
0.362480755265
20
-1.99522103278
11
0.393142592157
21
-1.99984976252
0
LINE
8
cam
10
0.393142592157
20
-1.99984976252
11
0.424774107113
21
-2.00348448464
0
LINE
8
cam
10
0.424774107113
20
-2.00348448464
11
0.457356614052
21
-2.00600833557
0
LINE
8
cam
10
0.457356614052
20
-2.00600833557
11
0.490846120842
21
-2.00730672242
0
LINE
8
cam
10
0.490846120842
20
-2.00730672242
11
0.525175803075
21
-2.0072701022
0
LINE
8
cam
10
0.525175803075
20
-2.0072701022
11
0.556889295802
21
-1.99638118377
0
LINE
8
cam
10
0.556889295802
20
-1.99638118377
11
0.592467534549
21
-1.99343448115
0
LINE
8
cam
10
0.592467534549
20
-1.99343448115
11
0.628570147688
21
-1.98888256303
0
LINE
8
cam
10
0.628570147688
20
-1.98888256303
11
0.66506340632
21
-1.98265915073
0
LINE
8
cam
10
0.66506340632
20
-1.98265915073
11
0.701802860759
21
-1.97471311035
0
LINE
8
cam
10
0.701802860759
20
-1.97471311035
11
0.738635806696
21
-1.96500960428
0
LINE
8
cam
10
0.738635806696
20
-1.96500960428
11
0.775403763754
21
-1.95353093596
0
LINE
8
cam
10
0.775403763754
20
-1.95353093596
11
0.811944950643
21
-1.94027708677
0
LINE
8
cam
10
0.811944950643
20
-1.94027708677
11
0.848096737452
21
-1.92526594644
0
LINE
8
cam
10
0.848096737452
20
-1.92526594644
11
0.883698053014
21
-1.90853324052
0
LINE
8
cam
10
0.883698053014
20
-1.90853324052
11
0.918591723574
21
-1.89013216067
0
LINE
8
cam
10
0.918591723574
20
-1.89013216067
11
0.952626718029
21
-1.87013270617
0
LINE
8
cam
10
0.952626718029
20
-1.87013270617
11
0.985660274773
21
-1.84862074664
0
LINE
8
cam
10
0.985660274773
20
-1.84862074664
11
1.01755988546
21
-1.82569681859
0
LINE
8
cam
10
1.01755988546
20
-1.82569681859
11
1.04820511187
21
-1.80147466968
0
LINE
8
cam
10
1.04820511187
20
-1.80147466968
11
1.07748921329
21
-1.77607956662
0
LINE
8
cam
10
1.07748921329
20
-1.77607956662
11
1.10532056373
21
-1.7496463833
0
LINE
8
cam
10
1.10532056373
20
-1.7496463833
11
1.13162384022
21
-1.72231748684
0
LINE
8
cam
10
1.13162384022
20
-1.72231748684
11
1.15634096616
21
-1.69424043905
0
LINE
8
cam
10
1.15634096616
20
-1.69424043905
11
1.17943179668
21
-1.66556553044
0
LINE
8
cam
10
1.17943179668
20
-1.66556553044
11
1.20087453623
21
-1.63644316232
0
LINE
8
cam
10
1.20087453623
20
-1.63644316232
11
1.2206658831
21
-1.60702109044
0
LINE
8
cam
10
1.2206658831
20
-1.60702109044
11
1.24544896114
21
-1.58492945066
0
LINE
8
cam
10
1.24544896114
20
-1.58492945066
11
1.26211429389
21
-1.55522398014
0
LINE
8
cam
10
1.26211429389
20
-1.55522398014
11
1.27722205297
21
-1.52561787243
0
LINE
8
cam
10
1.27722205297
20
-1.52561787243
11
1.29083907799
21
-1.4962184032
0
LINE
8
cam
10
1.29083907799
20
-1.4962184032
11
1.30304762219
21
-1.46711444153
0
LINE
8
cam
10
1.30304762219
20
-1.46711444153
11
1.31394414595
21
-1.4383728586
0
LINE
8
cam
10
1.31394414595
20
-1.4383728586
11
1.32363806457
21
-1.41003474045
0
LINE
8
cam
10
1.32363806457
20
-1.41003474045
11
1.33225058108
21
-1.38211138319
0
LINE
8
cam
10
1.33225058108
20
-1.38211138319
11
1.33991379591
21
-1.35458007053
0
LINE
8
cam
10
1.33991379591
20
-1.35458007053
11
1.34677037143
21
-1.32737969178
0
LINE
8
cam
10
1.34677037143
20
-1.32737969178
11
1.35297414544
21
-1.30040638272
0
LINE
8
cam
10
1.35297414544
20
-1.30040638272
11
1.35869223089
21
-1.27350961698
0
LINE
8
cam
10
1.35869223089
20
-1.27350961698
11
1.36410928291
21
-1.24648962415
0
LINE
8
cam
10
1.36410928291
20
-1.24648962415
11
1.36943467694
21
-1.21909778019
0
LINE
8
cam
10
1.36943467694
20
-1.21909778019
11
1.3749131254
21
-1.19104282478
0
LINE
8
cam
10
1.3749131254
20
-1.19104282478
11
1.38083836388
21
-1.16200741766
0
LINE
8
cam
10
1.38083836388
20
-1.16200741766
11
1.38756730935
21
-1.13168123565
0
LINE
8
cam
10
1.38756730935
20
-1.13168123565
11
1.38736701539
21
-1.09403773268
0
LINE
8
cam
10
1.38736701539
20
-1.09403773268
11
1.39694700075
21
-1.06067597549
0
LINE
8
cam
10
1.39694700075
20
-1.06067597549
11
1.40873830272
21
-1.0258258698
0
LINE
8
cam
10
1.40873830272
20
-1.0258258698
11
1.42315425271
21
-0.989942133678
0
LINE
8
cam
10
1.42315425271
20
-0.989942133678
11
1.44039028048
21
-0.953798477252
0
LINE
8
cam
10
1.44039028048
20
-0.953798477252
11
1.4603091162
21
-0.918373620649
0
LINE
8
cam
10
1.4603091162
20
-0.918373620649
11
1.48241910233
21
-0.884634609601
0
LINE
8
cam
10
1.48241910233
20
-0.884634609601
11
1.50598220751
21
-0.853307045089
0
LINE
8
cam
10
1.50598220751
20
-0.853307045089
11
1.53020580973
21
-0.824739814493
0
LINE
8
cam
10
1.53020580973
20
-0.824739814493
11
1.55442177337
21
-0.798907523371
0
LINE
8
cam
10
1.55442177337
20
-0.798907523371
11
1.57818224259
21
-0.775510722335
0
LINE
8
cam
10
1.57818224259
20
-0.775510722335
11
1.61045604998
21
-0.758043020609
0
LINE
8
cam
10
1.61045604998
20
-0.758043020609
11
1.63287067689
21
-0.738000495524
0
LINE
8
cam
10
1.63287067689
20
-0.738000495524
11
1.65462307173
21
-0.718984784289
0
LINE
8
cam
10
1.65462307173
20
-0.718984784289
11
1.67583342682
21
-0.700564675328
0
LINE
8
cam
10
1.67583342682
20
-0.700564675328
11
1.69663397568
21
-0.682364265529
0
LINE
8
cam
10
1.69663397568
20
-0.682364265529
11
1.71714338501
21
-0.66406123771
0
LINE
8
cam
10
1.71714338501
20
-0.66406123771
11
1.73745302039
21
-0.645381215526
0
LINE
8
cam
10
1.73745302039
20
-0.645381215526
11
1.75762111937
21
-0.626091554242
0
LINE
8
cam
10
1.75762111937
20
-0.626091554242
11
1.77767179238
21
-0.605995962894
0
LINE
8
cam
10
1.77767179238
20
-0.605995962894
11
1.79759676487
21
-0.584930334061
0
LINE
8
cam
10
1.79759676487
20
-0.584930334061
11
1.81735855737
21
-0.562759705023
0
LINE
8
cam
10
1.81735855737
20
-0.562759705023
11
1.83689433397
21
-0.539376116161
0
LINE
8
cam
10
1.83689433397
20
-0.539376116161
11
1.85611998513
21
-0.514697109792
0
LINE
8
cam
10
1.85611998513
20
-0.514697109792
11
1.8749342104
21
-0.488664643071
0
LINE
8
cam
10
1.8749342104
20
-0.488664643071
11
1.89322247996
21
-0.461244233741
0
LINE
8
cam
10
1.89322247996
20
-0.461244233741
11
1.91086081545
21
-0.432424201372
0
LINE
8
cam
10
1.91086081545
20
-0.432424201372
11
1.91790036047
21
-0.400320913213
0
LINE
8
cam
10
1.91790036047
20
-0.400320913213
11
1.93381779139
21
-0.368910694395
0
LINE
8
cam
10
1.93381779139
20
-0.368910694395
11
1.94869318773
21
-0.336198688408
0
LINE
8
cam
10
1.94869318773
20
-0.336198688408
11
1.9623984791
21
-0.302255548632
0
LINE
8
cam
10
1.9623984791
20
-0.302255548632
11
1.97481172367
21
-0.267169730124
0
LINE
8
cam
10
1.97481172367
20
-0.267169730124
11
1.98581950672
21
-0.231046043644
0
LINE
8
cam
10
1.98581950672
20
-0.231046043644
11
1.99531908545
21
-0.194004039785
0
LINE
8
cam
10
1.99531908545
20
-0.194004039785
11
2.00322027135
21
-0.15617623284
0
LINE
8
cam
10
2.00322027135
20
-0.15617623284
11
2.00944704142
21
-0.117706179103
0
LINE
8
cam
10
2.00944704142
20
-0.117706179103
11
2.01393886973
21
-0.0787464283197
0
LINE
8
cam
10
2.01393886973
20
-0.0787464283197
11
2.01665177172
21
-0.0394563701681
0
LINE
8
cam
10
2.01665177172
20
-0.0394563701681
11
2.017559055
21
1.58641333365e-15
0
CIRCLE
8
cam
10
-0.157480315
20
0
40
0.31496063
0
CIRCLE
8
roller
10
2.342519685
20
0.0
40
0.31496063
0
CIRCLE
8
roller
10
1.46053713425
20
1.83145563803
40
0.31496063
0
CIRCLE
8
roller
10
-0.521259668117
20
2.28378782574
40
0.31496063
0
CIRCLE
8
roller
10
-2.11053730863
20
1.01638119988
40
0.31496063
0
CIRCLE
8
roller
10
-2.11053730863
20
-1.01638119988
40
0.31496063
0
CIRCLE
8
roller
10
-0.521259668117
20
-2.28378782574
40
0.31496063
0
CIRCLE
8
roller
10
1.46053713425
20
-1.83145563803
40
0.31496063
0
CIRCLE
8
roller
10
0
20
0
40
0.31496063
0
ENDSEC
0
EOF
