0
SECTION
2
HEADER
9
$ACADVER
1
AC1009
0
ENDSEC
0
SECTION
2
TABLES
0
TABLE
2
LAYER
70
1
0
LAYER
2
12_36000
70
0
62
7
6
CONTINUOUS
0
ENDTAB
0
ENDSEC
0
SECTION
2
BLOCKS
0
ENDSEC
0
SECTION
2
ENTITIES
0
POLYLINE
8
12_36000
62
5
0
VERTEX
8
12_36000
10
-42.32000
20
91.42900
30
36.00000
0
VERTEX
8
12_36000
10
2.29800
20
91.42900
30
36.00000
0
VERTEX
8
12_36000
10
2.15900
20
91.45200
30
36.00000
0
VERTEX
8
12_36000
10
-56.17000
20
91.45200
30
36.00000
0
VERTEX
8
12_36000
10
-56.17000
20
91.42900
30
36.00000
0
VERTEX
8
12_36000
10
-42.32000
20
91.42900
30
36.00000
0
SEQEND
8
12_36000
0
POLYLINE
8
12_36000
62
5
0
VERTEX
8
12_36000
10
-42.30800
20
91.42700
30
36.00000
0
VERTEX
8
12_36000
10
-56.17000
20
91.42700
30
36.00000
0
VERTEX
8
12_36000
10
-56.17000
20
91.39600
30
36.00000
0
VERTEX
8
12_36000
10
2.48600
20
91.39600
30
36.00000
0
VERTEX
8
12_36000
10
2.30800
20
91.42700
30
36.00000
0
VERTEX
8
12_36000
10
-42.30800
20
91.42700
30
36.00000
0
SEQEND
8
12_36000
0
POLYLINE
8
12_36000
62
5
0
VERTEX
8
12_36000
10
-41.68500
20
91.30701
30
36.00000
0
VERTEX
8
12_36000
10
3.03100
20
91.30701
30
36.00000
0
VERTEX
8
12_36000
10
2.49300
20
91.39600
30
36.00000
0
VERTEX
8
12_36000
10
-56.17000
20
91.39600
30
36.00000
0
VERTEX
8
12_36000
10
-56.17000
20
91.30701
30
36.00000
0
VERTEX
8
12_36000
10
-41.68500
20
91.30701
30
36.00000
0
SEQEND
8
12_36000
0
POLYLINE
8
12_36000
62
5
0
VERTEX
8
12_36000
10
-40.57200
20
90.84701
30
36.00000
0
VERTEX
8
12_36000
10
5.78500
20
90.84701
30
36.00000
0
VERTEX
8
12_36000
10
3.03800
20
91.30501
30
36.00000
0
VERTEX
8
12_36000
10
-56.17000
20
91.30501
30
36.00000
0
VERTEX
8
12_36000
10
-56.17000
20
90.84701
30
36.00000
0
VERTEX
8
12_36000
10
-40.57200
20
90.84701
30
36.00000
0
SEQEND
8
12_36000
0
POLYLINE
8
12_36000
62
5
0
VERTEX
8
12_36000
10
5.78000
20
-91.95801
30
36.00000
0
VERTEX
8
12_36000
10
5.69900
20
-91.73000
30
36.00000
0
VERTEX
8
12_36000
10
5.23900
20
-90.23000
30
36.00000
0
VERTEX
8
12_36000
10
4.86000
20
-89.19601
30
36.00000
0
VERTEX
8
12_36000
10
4.75600
20
-88.58501
30
36.00000
0
VERTEX
8
12_36000
10
4.39100
20
-87.25001
30
36.00000
0
VERTEX
8
12_36000
10
4.16700
20
-86.09300
30
36.00000
0
VERTEX
8
12_36000
10
4.20100
20
-85.96500
30
36.00000
0
VERTEX
8
12_36000
10
4.10300
20
-85.77300
30
36.00000
0
VERTEX
8
12_36000
10
4.06200
20
-85.61800
30
36.00000
0
VERTEX
8
12_36000
10
4.07500
20
-85.57201
30
36.00000
0
VERTEX
8
12_36000
10
4.06000
20
-85.53201
30
36.00000
0
VERTEX
8
12_36000
10
4.01700
20
-85.08100
30
36.00000
0
VERTEX
8
12_36000
10
4.02000
20
-85.04000
30
36.00000
0
VERTEX
8
12_36000
10
4.16000
20
-84.78600
30
36.00000
0
VERTEX
8
12_36000
10
4.26700
20
-84.53101
30
36.00000
0
VERTEX
8
12_36000
10
4.61000
20
-84.13500
30
36.00000
0
VERTEX
8
12_36000
10
5.73700
20
-82.79100
30
36.00000
0
VERTEX
8
12_36000
10
6.39700
20
-82.14001
30
36.00000
0
VERTEX
8
12_36000
10
7.85900
20
-80.51300
30
36.00000
0
VERTEX
8
12_36000
10
8.26500
20
-80.08200
30
36.00000
0
VERTEX
8
12_36000
10
9.28600
20
-78.92900
30
36.00000
0
VERTEX
8
12_36000
10
9.90800
20
-78.11501
30
36.00000
0
VERTEX
8
12_36000
10
10.62000
20
-77.08501
30
36.00000
0
VERTEX
8
12_36000
10
11.61600
20
-75.18101
30
36.00000
0
VERTEX
8
12_36000
10
11.86400
20
-74.58100
30
36.00000
0
VERTEX
8
12_36000
10
12.06700
20
-74.24600
30
36.00000
0
VERTEX
8
12_36000
10
12.26400
20
-73.65701
30
36.00000
0
VERTEX
8
12_36000
10
12.28500
20
-73.61401
30
36.00000
0
VERTEX
8
12_36000
10
12.56300
20
-72.75700
30
36.00000
0
VERTEX
8
12_36000
10
12.59900
20
-72.52700
30
36.00000
0
VERTEX
8
12_36000
10
12.66500
20
-71.94701
30
36.00000
0
VERTEX
8
12_36000
10
12.63600
20
-71.57401
30
36.00000
0
VERTEX
8
12_36000
10
12.69500
20
-70.29601
30
36.00000
0
VERTEX
8
12_36000
10
12.81600
20
-69.51400
30
36.00000
0
VERTEX
8
12_36000
10
12.85900
20
-69.41700
30
36.00000
0
VERTEX
8
12_36000
10
12.89700
20
-69.16400
30
36.00000
0
VERTEX
8
12_36000
10
13.01400
20
-68.59600
30
36.00000
0
VERTEX
8
12_36000
10
13.15900
20
-68.11000
30
36.00000
0
VERTEX
8
12_36000
10
13.18100
20
-67.99200
30
36.00000
0
VERTEX
8
12_36000
10
13.28200
20
-67.66000
30
36.00000
0
VERTEX
8
12_36000
10
13.34500
20
-67.59600
30
36.00000
0
VERTEX
8
12_36000
10
13.36300
20
-67.48700
30
36.00000
0
VERTEX
8
12_36000
10
13.48400
20
-67.09800
30
36.00000
0
VERTEX
8
12_36000
10
13.51200
20
-66.89400
30
36.00000
0
VERTEX
8
12_36000
10
13.54400
20
-66.37901
30
36.00000
0
VERTEX
8
12_36000
10
13.66200
20
-65.96301
30
36.00000
0
VERTEX
8
12_36000
10
13.59600
20
-65.60700
30
36.00000
0
VERTEX
8
12_36000
10
13.55300
20
-65.24600
30
36.00000
0
VERTEX
8
12_36000
10
13.72100
20
-64.27200
30
36.00000
0
VERTEX
8
12_36000
10
13.88900
20
-62.98200
30
36.00000
0
VERTEX
8
12_36000
10
13.96800
20
-62.57500
30
36.00000
0
VERTEX
8
12_36000
10
14.03700
20
-61.59900
30
36.00000
0
VERTEX
8
12_36000
10
14.07300
20
-61.42600
30
36.00000
0
VERTEX
8
12_36000
10
14.14600
20
-59.42700
30
36.00000
0
VERTEX
8
12_36000
10
14.18400
20
-58.99600
30
36.00000
0
VERTEX
8
12_36000
10
14.33500
20
-58.26000
30
36.00000
0
VERTEX
8
12_36000
10
14.70600
20
-57.00500
30
36.00000
0
VERTEX
8
12_36000
10
14.97800
20
-56.17500
30
36.00000
0
VERTEX
8
12_36000
10
15.16400
20
-55.51600
30
36.00000
0
VERTEX
8
12_36000
10
15.51000
20
-54.64200
30
36.00000
0
VERTEX
8
12_36000
10
15.92300
20
-53.18300
30
36.00000
0
VERTEX
8
12_36000
10
16.10300
20
-52.81700
30
36.00000
0
VERTEX
8
12_36000
10
16.40400
20
-52.30400
30
36.00000
0
VERTEX
8
12_36000
10
16.51700
20
-51.96400
30
36.00000
0
VERTEX
8
12_36000
10
16.54900
20
-51.82500
30
36.00000
0
VERTEX
8
12_36000
10
16.57900
20
-51.73900
30
36.00000
0
VERTEX
8
12_36000
10
16.94800
20
-50.81300
30
36.00000
0
VERTEX
8
12_36000
10
17.32800
20
-49.81800
30
36.00000
0
VERTEX
8
12_36000
10
17.68800
20
-48.71100
30
36.00000
0
VERTEX
8
12_36000
10
18.05700
20
-47.38900
30
36.00000
0
VERTEX
8
12_36000
10
18.07900
20
-47.33200
30
36.00000
0
VERTEX
8
12_36000
10
18.44900
20
-45.91700
30
36.00000
0
VERTEX
8
12_36000
10
18.51100
20
-45.60400
30
36.00000
0
VERTEX
8
12_36000
10
18.48300
20
-44.60600
30
36.00000
0
VERTEX
8
12_36000
10
18.50300
20
-44.30100
30
36.00000
0
VERTEX
8
12_36000
10
18.69600
20
-43.31800
30
36.00000
0
VERTEX
8
12_36000
10
18.71000
20
-43.21700
30
36.00000
0
VERTEX
8
12_36000
10
18.75400
20
-42.54400
30
36.00000
0
VERTEX
8
12_36000
10
18.86900
20
-42.19900
30
36.00000
0
VERTEX
8
12_36000
10
19.10200
20
-41.73700
30
36.00000
0
VERTEX
8
12_36000
10
19.27000
20
-41.24600
30
36.00000
0
VERTEX
8
12_36000
10
19.39200
20
-40.75300
30
36.00000
0
VERTEX
8
12_36000
10
19.43600
20
-40.42300
30
36.00000
0
VERTEX
8
12_36000
10
19.58300
20
-39.94300
30
36.00000
0
VERTEX
8
12_36000
10
19.77400
20
-38.89000
30
36.00000
0
VERTEX
8
12_36000
10
19.85500
20
-38.61500
30
36.00000
0
VERTEX
8
12_36000
10
20.04000
20
-37.78600
30
36.00000
0
VERTEX
8
12_36000
10
20.21000
20
-37.15400
30
36.00000
0
VERTEX
8
12_36000
10
20.27500
20
-36.80400
30
36.00000
0
VERTEX
8
12_36000
10
20.30800
20
-36.21600
30
36.00000
0
VERTEX
8
12_36000
10
20.29100
20
-35.92700
30
36.00000
0
VERTEX
8
12_36000
10
20.28400
20
-35.62400
30
36.00000
0
VERTEX
8
12_36000
10
20.31800
20
-35.04400
30
36.00000
0
VERTEX
8
12_36000
10
20.32000
20
-34.42200
30
36.00000
0
VERTEX
8
12_36000
10
20.35800
20
-34.20000
30
36.00000
0
VERTEX
8
12_36000
10
20.50100
20
-32.77500
30
36.00000
0
VERTEX
8
12_36000
10
20.53300
20
-32.35400
30
36.00000
0
VERTEX
8
12_36000
10
20.57000
20
-32.07800
30
36.00000
0
VERTEX
8
12_36000
10
20.64500
20
-31.26300
30
36.00000
0
VERTEX
8
12_36000
10
20.68800
20
-30.65900
30
36.00000
0
VERTEX
8
12_36000
10
20.96000
20
-29.33600
30
36.00000
0
VERTEX
8
12_36000
10
21.12500
20
-27.84600
30
36.00000
0
VERTEX
8
12_36000
10
21.13600
20
-26.58000
30
36.00000
0
VERTEX
8
12_36000
10
21.12200
20
-25.67600
30
36.00000
0
VERTEX
8
12_36000
10
21.24900
20
-24.94600
30
36.00000
0
VERTEX
8
12_36000
10
21.30400
20
-24.68400
30
36.00000
0
VERTEX
8
12_36000
10
21.48100
20
-23.64300
30
36.00000
0
VERTEX
8
12_36000
10
21.52000
20
-23.23700
30
36.00000
0
VERTEX
8
12_36000
10
21.54500
20
-22.29600
30
36.00000
0
VERTEX
8
12_36000
10
21.61100
20
-21.43800
30
36.00000
0
VERTEX
8
12_36000
10
21.76500
20
-20.59500
30
36.00000
0
VERTEX
8
12_36000
10
21.90800
20
-19.45400
30
36.00000
0
VERTEX
8
12_36000
10
22.08700
20
-18.48400
30
36.00000
0
VERTEX
8
12_36000
10
22.14400
20
-18.30400
30
36.00000
0
VERTEX
8
12_36000
10
22.18800
20
-17.85300
30
36.00000
0
VERTEX
8
12_36000
10
22.27800
20
-17.50700
30
36.00000
0
VERTEX
8
12_36000
10
22.59500
20
-16.45300
30
36.00000
0
VERTEX
8
12_36000
10
23.93900
20
-12.58200
30
36.00000
0
VERTEX
8
12_36000
10
24.09400
20
-12.07400
30
36.00000
0
VERTEX
8
12_36000
10
24.60800
20
-10.52100
30
36.00000
0
VERTEX
8
12_36000
10
25.15400
20
-8.66400
30
36.00000
0
VERTEX
8
12_36000
10
25.58800
20
-7.11900
30
36.00000
0
VERTEX
8
12_36000
10
26.38800
20
-4.47700
30
36.00000
0
VERTEX
8
12_36000
10
26.64200
20
-3.58600
30
36.00000
0
VERTEX
8
12_36000
10
26.74400
20
-3.27400
30
36.00000
0
VERTEX
8
12_36000
10
27.15100
20
-1.84600
30
36.00000
0
VERTEX
8
12_36000
10
27.56000
20
-0.28500
30
36.00000
0
VERTEX
8
12_36000
10
27.91100
20
1.10800
30
36.00000
0
VERTEX
8
12_36000
10
28.52500
20
3.70600
30
36.00000
0
VERTEX
8
12_36000
10
28.89000
20
5.49600
30
36.00000
0
VERTEX
8
12_36000
10
29.13500
20
7.02000
30
36.00000
0
VERTEX
8
12_36000
10
29.23200
20
7.95700
30
36.00000
0
VERTEX
8
12_36000
10
29.23400
20
8.22500
30
36.00000
0
VERTEX
8
12_36000
10
29.42600
20
10.18500
30
36.00000
0
VERTEX
8
12_36000
10
29.44300
20
10.72400
30
36.00000
0
VERTEX
8
12_36000
10
29.44100
20
12.28400
30
36.00000
0
VERTEX
8
12_36000
10
29.37300
20
13.45000
30
36.00000
0
VERTEX
8
12_36000
10
29.33300
20
14.75900
30
36.00000
0
VERTEX
8
12_36000
10
29.22700
20
15.76500
30
36.00000
0
VERTEX
8
12_36000
10
29.03700
20
17.05800
30
36.00000
0
VERTEX
8
12_36000
10
28.95700
20
17.53400
30
36.00000
0
VERTEX
8
12_36000
10
28.86900
20
17.92100
30
36.00000
0
VERTEX
8
12_36000
10
28.46600
20
19.85300
30
36.00000
0
VERTEX
8
12_36000
10
28.02200
20
21.74300
30
36.00000
0
VERTEX
8
12_36000
10
27.61500
20
23.55300
30
36.00000
0
VERTEX
8
12_36000
10
27.53400
20
23.82100
30
36.00000
0
VERTEX
8
12_36000
10
27.20600
20
25.18400
30
36.00000
0
VERTEX
8
12_36000
10
27.01800
20
26.16200
30
36.00000
0
VERTEX
8
12_36000
10
26.40000
20
29.02800
30
36.00000
0
VERTEX
8
12_36000
10
26.31900
20
29.72000
30
36.00000
0
VERTEX
8
12_36000
10
26.31200
20
29.98100
30
36.00000
0
VERTEX
8
12_36000
10
26.24200
20
31.11400
30
36.00000
0
VERTEX
8
12_36000
10
26.33000
20
32.65800
30
36.00000
0
VERTEX
8
12_36000
10
26.35300
20
32.84300
30
36.00000
0
VERTEX
8
12_36000
10
26.41900
20
33.92300
30
36.00000
0
VERTEX
8
12_36000
10
26.50500
20
34.38200
30
36.00000
0
VERTEX
8
12_36000
10
26.67600
20
35.49500
30
36.00000
0
VERTEX
8
12_36000
10
26.89100
20
36.06300
30
36.00000
0
VERTEX
8
12_36000
10
27.54900
20
37.28800
30
36.00000
0
VERTEX
8
12_36000
10
27.70900
20
37.56500
30
36.00000
0
VERTEX
8
12_36000
10
27.82600
20
37.83300
30
36.00000
0
VERTEX
8
12_36000
10
28.08600
20
38.44800
30
36.00000
0
VERTEX
8
12_36000
10
28.42700
20
39.61200
30
36.00000
0
VERTEX
8
12_36000
10
28.63900
20
40.59100
30
36.00000
0
VERTEX
8
12_36000
10
28.87800
20
42.09800
30
36.00000
0
VERTEX
8
12_36000
10
28.91500
20
42.21500
30
36.00000
0
VERTEX
8
12_36000
10
29.29700
20
43.80500
30
36.00000
0
VERTEX
8
12_36000
10
29.33500
20
44.05900
30
36.00000
0
VERTEX
8
12_36000
10
29.32900
20
44.17500
30
36.00000
0
VERTEX
8
12_36000
10
29.35700
20
44.83800
30
36.00000
0
VERTEX
8
12_36000
10
29.26800
20
45.61000
30
36.00000
0
VERTEX
8
12_36000
10
29.17000
20
46.14000
30
36.00000
0
VERTEX
8
12_36000
10
29.14300
20
46.47900
30
36.00000
0
VERTEX
8
12_36000
10
29.15100
20
46.58000
30
36.00000
0
VERTEX
8
12_36000
10
29.21100
20
46.77000
30
36.00000
0
VERTEX
8
12_36000
10
29.36700
20
47.48000
30
36.00000
0
VERTEX
8
12_36000
10
29.57200
20
48.25200
30
36.00000
0
VERTEX
8
12_36000
10
29.83000
20
49.42300
30
36.00000
0
VERTEX
8
12_36000
10
29.88700
20
49.73100
30
36.00000
0
VERTEX
8
12_36000
10
29.92400
20
49.83700
30
36.00000
0
VERTEX
8
12_36000
10
29.99500
20
50.17400
30
36.00000
0
VERTEX
8
12_36000
10
30.06600
20
50.56800
30
36.00000
0
VERTEX
8
12_36000
10
30.30200
20
51.34400
30
36.00000
0
VERTEX
8
12_36000
10
30.36600
20
51.63200
30
36.00000
0
VERTEX
8
12_36000
10
30.56900
20
52.27400
30
36.00000
0
VERTEX
8
12_36000
10
30.99200
20
53.10000
30
36.00000
0
VERTEX
8
12_36000
10
31.29800
20
53.48500
30
36.00000
0
VERTEX
8
12_36000
10
31.39500
20
53.62700
30
36.00000
0
VERTEX
8
12_36000
10
31.88100
20
54.24000
30
36.00000
0
VERTEX
8
12_36000
10
32.53400
20
54.94400
30
36.00000
0
VERTEX
8
12_36000
10
32.72500
20
55.21100
30
36.00000
0
VERTEX
8
12_36000
10
33.02100
20
55.73000
30
36.00000
0
VERTEX
8
12_36000
10
33.09300
20
55.89000
30
36.00000
0
VERTEX
8
12_36000
10
33.29500
20
56.47700
30
36.00000
0
VERTEX
8
12_36000
10
33.54100
20
56.91700
30
36.00000
0
VERTEX
8
12_36000
10
33.82500
20
57.34300
30
36.00000
0
VERTEX
8
12_36000
10
34.25400
20
58.69100
30
36.00000
0
VERTEX
8
12_36000
10
34.39900
20
60.58300
30
36.00000
0
VERTEX
8
12_36000
10
34.44100
20
61.29100
30
36.00000
0
VERTEX
8
12_36000
10
34.44700
20
61.68000
30
36.00000
0
VERTEX
8
12_36000
10
34.43500
20
62.96100
30
36.00000
0
VERTEX
8
12_36000
10
34.43800
20
64.04300
30
36.00000
0
VERTEX
8
12_36000
10
34.50100
20
65.17300
30
36.00000
0
VERTEX
8
12_36000
10
34.85800
20
67.96400
30
36.00000
0
VERTEX
8
12_36000
10
35.08800
20
69.56600
30
36.00000
0
VERTEX
8
12_36000
10
35.10600
20
70.31200
30
36.00000
0
VERTEX
8
12_36000
10
35.07200
20
71.96400
30
36.00000
0
VERTEX
8
12_36000
10
35.10300
20
73.45901
30
36.00000
0
VERTEX
8
12_36000
10
35.07700
20
73.60400
30
36.00000
0
VERTEX
8
12_36000
10
35.07000
20
73.72800
30
36.00000
0
VERTEX
8
12_36000
10
34.97800
20
74.28800
30
36.00000
0
VERTEX
8
12_36000
10
34.35100
20
76.40501
30
36.00000
0
VERTEX
8
12_36000
10
33.28600
20
79.29900
30
36.00000
0
VERTEX
8
12_36000
10
32.55900
20
81.19801
30
36.00000
0
VERTEX
8
12_36000
10
30.86200
20
85.73901
30
36.00000
0
VERTEX
8
12_36000
10
30.45900
20
86.72800
30
36.00000
0
VERTEX
8
12_36000
10
9.05500
20
90.30200
30
36.00000
0
VERTEX
8
12_36000
10
-56.17000
20
90.30200
30
36.00000
0
VERTEX
8
12_36000
10
-56.17000
20
-92.11401
30
36.00000
0
VERTEX
8
12_36000
10
5.82700
20
-92.11401
30
36.00000
0
VERTEX
8
12_36000
10
5.78000
20
-91.95801
30
36.00000
0
SEQEND
8
12_36000
0
POLYLINE
8
12_36000
62
5
0
VERTEX
8
12_36000
10
7.93400
20
90.48701
30
36.00000
0
VERTEX
8
12_36000
10
5.80000
20
90.84500
30
36.00000
0
VERTEX
8
12_36000
10
-56.17000
20
90.84500
30
36.00000
0
VERTEX
8
12_36000
10
-56.17000
20
90.30200
30
36.00000
0
VERTEX
8
12_36000
10
9.05100
20
90.30200
30
36.00000
0
VERTEX
8
12_36000
10
7.93400
20
90.48701
30
36.00000
0
SEQEND
8
12_36000
0
ENDSEC
0
EOF
