0
SECTION
2
HEADER
9
$ACADVER
1
AC1009
0
ENDSEC
0
SECTION
2
TABLES
0
TABLE
2
LAYER
70
1
0
LAYER
2
20_60000
70
0
62
7
6
CONTINUOUS
0
ENDTAB
0
ENDSEC
0
SECTION
2
BLOCKS
0
ENDSEC
0
SECTION
2
ENTITIES
0
POLYLINE
8
20_60000
62
5
0
VERTEX
8
20_60000
10
-32.29900
20
91.55400
30
60.00000
0
VERTEX
8
20_60000
10
1.53800
20
91.55400
30
60.00000
0
VERTEX
8
20_60000
10
1.30100
20
91.59600
30
60.00000
0
VERTEX
8
20_60000
10
-56.17000
20
91.59600
30
60.00000
0
VERTEX
8
20_60000
10
-56.17000
20
91.55400
30
60.00000
0
VERTEX
8
20_60000
10
-32.29900
20
91.55400
30
60.00000
0
SEQEND
8
20_60000
0
POLYLINE
8
20_60000
62
5
0
VERTEX
8
20_60000
10
-31.92400
20
91.50001
30
60.00000
0
VERTEX
8
20_60000
10
1.86400
20
91.50001
30
60.00000
0
VERTEX
8
20_60000
10
1.55500
20
91.55300
30
60.00000
0
VERTEX
8
20_60000
10
-56.17000
20
91.55300
30
60.00000
0
VERTEX
8
20_60000
10
-56.17000
20
91.50001
30
60.00000
0
VERTEX
8
20_60000
10
-31.92400
20
91.50001
30
60.00000
0
SEQEND
8
20_60000
0
POLYLINE
8
20_60000
62
5
0
VERTEX
8
20_60000
10
-31.18800
20
91.34600
30
60.00000
0
VERTEX
8
20_60000
10
2.80100
20
91.34600
30
60.00000
0
VERTEX
8
20_60000
10
1.87700
20
91.49900
30
60.00000
0
VERTEX
8
20_60000
10
-56.17000
20
91.49900
30
60.00000
0
VERTEX
8
20_60000
10
-56.17000
20
91.34600
30
60.00000
0
VERTEX
8
20_60000
10
-31.18800
20
91.34600
30
60.00000
0
SEQEND
8
20_60000
0
POLYLINE
8
20_60000
62
5
0
VERTEX
8
20_60000
10
-29.27800
20
90.55300
30
60.00000
0
VERTEX
8
20_60000
10
7.55200
20
90.55300
30
60.00000
0
VERTEX
8
20_60000
10
2.81400
20
91.34300
30
60.00000
0
VERTEX
8
20_60000
10
-56.17000
20
91.34300
30
60.00000
0
VERTEX
8
20_60000
10
-56.17000
20
90.55300
30
60.00000
0
VERTEX
8
20_60000
10
-29.27800
20
90.55300
30
60.00000
0
SEQEND
8
20_60000
0
POLYLINE
8
20_60000
62
5
0
VERTEX
8
20_60000
10
-56.17000
20
-13.01600
30
60.00000
0
VERTEX
8
20_60000
10
-56.17000
20
-92.11401
30
60.00000
0
VERTEX
8
20_60000
10
20.60000
20
-92.11401
30
60.00000
0
VERTEX
8
20_60000
10
20.60000
20
-92.02400
30
60.00000
0
VERTEX
8
20_60000
10
20.75100
20
-90.86800
30
60.00000
0
VERTEX
8
20_60000
10
21.00800
20
-90.62601
30
60.00000
0
VERTEX
8
20_60000
10
21.15400
20
-90.41500
30
60.00000
0
VERTEX
8
20_60000
10
21.30300
20
-90.25500
30
60.00000
0
VERTEX
8
20_60000
10
22.38900
20
-89.31901
30
60.00000
0
VERTEX
8
20_60000
10
25.47000
20
-86.93401
30
60.00000
0
VERTEX
8
20_60000
10
27.00800
20
-85.42500
30
60.00000
0
VERTEX
8
20_60000
10
27.24200
20
-85.21500
30
60.00000
0
VERTEX
8
20_60000
10
27.63800
20
-84.83301
30
60.00000
0
VERTEX
8
20_60000
10
28.15000
20
-84.21101
30
60.00000
0
VERTEX
8
20_60000
10
28.46300
20
-83.88800
30
60.00000
0
VERTEX
8
20_60000
10
28.69800
20
-83.60101
30
60.00000
0
VERTEX
8
20_60000
10
28.89800
20
-83.33900
30
60.00000
0
VERTEX
8
20_60000
10
28.95900
20
-83.19000
30
60.00000
0
VERTEX
8
20_60000
10
29.18300
20
-82.92500
30
60.00000
0
VERTEX
8
20_60000
10
29.17500
20
-82.80701
30
60.00000
0
VERTEX
8
20_60000
10
29.29700
20
-82.54601
30
60.00000
0
VERTEX
8
20_60000
10
29.34600
20
-82.08501
30
60.00000
0
VERTEX
8
20_60000
10
29.49000
20
-81.53800
30
60.00000
0
VERTEX
8
20_60000
10
29.70900
20
-81.13000
30
60.00000
0
VERTEX
8
20_60000
10
29.88800
20
-80.56200
30
60.00000
0
VERTEX
8
20_60000
10
30.06300
20
-80.26000
30
60.00000
0
VERTEX
8
20_60000
10
30.26900
20
-79.35001
30
60.00000
0
VERTEX
8
20_60000
10
30.30700
20
-79.20901
30
60.00000
0
VERTEX
8
20_60000
10
30.52500
20
-78.75101
30
60.00000
0
VERTEX
8
20_60000
10
30.55000
20
-78.65800
30
60.00000
0
VERTEX
8
20_60000
10
30.86700
20
-77.94501
30
60.00000
0
VERTEX
8
20_60000
10
30.87800
20
-77.78400
30
60.00000
0
VERTEX
8
20_60000
10
30.93300
20
-77.71001
30
60.00000
0
VERTEX
8
20_60000
10
31.02400
20
-77.23801
30
60.00000
0
VERTEX
8
20_60000
10
31.04400
20
-77.20700
30
60.00000
0
VERTEX
8
20_60000
10
31.03200
20
-77.06100
30
60.00000
0
VERTEX
8
20_60000
10
31.04600
20
-76.90900
30
60.00000
0
VERTEX
8
20_60000
10
31.22300
20
-76.22301
30
60.00000
0
VERTEX
8
20_60000
10
31.20100
20
-76.09500
30
60.00000
0
VERTEX
8
20_60000
10
31.20100
20
-75.76601
30
60.00000
0
VERTEX
8
20_60000
10
31.10700
20
-75.63300
30
60.00000
0
VERTEX
8
20_60000
10
30.95200
20
-75.48600
30
60.00000
0
VERTEX
8
20_60000
10
30.91300
20
-75.46201
30
60.00000
0
VERTEX
8
20_60000
10
30.42500
20
-75.23500
30
60.00000
0
VERTEX
8
20_60000
10
30.41500
20
-75.17800
30
60.00000
0
VERTEX
8
20_60000
10
30.16900
20
-74.93301
30
60.00000
0
VERTEX
8
20_60000
10
30.39200
20
-74.53600
30
60.00000
0
VERTEX
8
20_60000
10
30.27300
20
-73.67500
30
60.00000
0
VERTEX
8
20_60000
10
30.23700
20
-73.48500
30
60.00000
0
VERTEX
8
20_60000
10
30.20100
20
-73.38300
30
60.00000
0
VERTEX
8
20_60000
10
29.96200
20
-72.84901
30
60.00000
0
VERTEX
8
20_60000
10
29.95300
20
-72.80500
30
60.00000
0
VERTEX
8
20_60000
10
29.95300
20
-72.72800
30
60.00000
0
VERTEX
8
20_60000
10
29.96600
20
-72.66400
30
60.00000
0
VERTEX
8
20_60000
10
30.04500
20
-71.68000
30
60.00000
0
VERTEX
8
20_60000
10
30.33900
20
-70.65501
30
60.00000
0
VERTEX
8
20_60000
10
30.60100
20
-69.93401
30
60.00000
0
VERTEX
8
20_60000
10
30.66600
20
-69.05600
30
60.00000
0
VERTEX
8
20_60000
10
30.53300
20
-67.05300
30
60.00000
0
VERTEX
8
20_60000
10
30.60100
20
-66.56800
30
60.00000
0
VERTEX
8
20_60000
10
30.57200
20
-65.32500
30
60.00000
0
VERTEX
8
20_60000
10
30.58300
20
-65.25401
30
60.00000
0
VERTEX
8
20_60000
10
30.72100
20
-64.69300
30
60.00000
0
VERTEX
8
20_60000
10
30.70000
20
-64.58501
30
60.00000
0
VERTEX
8
20_60000
10
30.57300
20
-64.20700
30
60.00000
0
VERTEX
8
20_60000
10
30.31200
20
-62.93100
30
60.00000
0
VERTEX
8
20_60000
10
30.16400
20
-62.55100
30
60.00000
0
VERTEX
8
20_60000
10
30.16700
20
-62.26900
30
60.00000
0
VERTEX
8
20_60000
10
30.07000
20
-61.71800
30
60.00000
0
VERTEX
8
20_60000
10
29.82200
20
-60.64100
30
60.00000
0
VERTEX
8
20_60000
10
29.82500
20
-59.84900
30
60.00000
0
VERTEX
8
20_60000
10
29.76000
20
-59.07400
30
60.00000
0
VERTEX
8
20_60000
10
29.76500
20
-56.86600
30
60.00000
0
VERTEX
8
20_60000
10
29.74100
20
-56.43100
30
60.00000
0
VERTEX
8
20_60000
10
29.73400
20
-55.88200
30
60.00000
0
VERTEX
8
20_60000
10
29.73700
20
-55.09600
30
60.00000
0
VERTEX
8
20_60000
10
29.72600
20
-54.43700
30
60.00000
0
VERTEX
8
20_60000
10
29.71600
20
-52.77600
30
60.00000
0
VERTEX
8
20_60000
10
29.72300
20
-52.67700
30
60.00000
0
VERTEX
8
20_60000
10
29.81300
20
-52.17900
30
60.00000
0
VERTEX
8
20_60000
10
30.25500
20
-49.46500
30
60.00000
0
VERTEX
8
20_60000
10
30.62500
20
-48.10800
30
60.00000
0
VERTEX
8
20_60000
10
30.78700
20
-47.27000
30
60.00000
0
VERTEX
8
20_60000
10
31.72600
20
-44.32500
30
60.00000
0
VERTEX
8
20_60000
10
31.87900
20
-43.96600
30
60.00000
0
VERTEX
8
20_60000
10
31.99000
20
-43.31800
30
60.00000
0
VERTEX
8
20_60000
10
32.44000
20
-41.75900
30
60.00000
0
VERTEX
8
20_60000
10
32.68900
20
-40.66000
30
60.00000
0
VERTEX
8
20_60000
10
32.69300
20
-40.55600
30
60.00000
0
VERTEX
8
20_60000
10
32.80200
20
-40.15700
30
60.00000
0
VERTEX
8
20_60000
10
32.91300
20
-39.25400
30
60.00000
0
VERTEX
8
20_60000
10
32.98500
20
-38.91000
30
60.00000
0
VERTEX
8
20_60000
10
33.15000
20
-38.01300
30
60.00000
0
VERTEX
8
20_60000
10
33.24500
20
-37.30200
30
60.00000
0
VERTEX
8
20_60000
10
33.36000
20
-36.14100
30
60.00000
0
VERTEX
8
20_60000
10
33.52800
20
-35.33400
30
60.00000
0
VERTEX
8
20_60000
10
33.59300
20
-33.69400
30
60.00000
0
VERTEX
8
20_60000
10
33.59300
20
-32.01800
30
60.00000
0
VERTEX
8
20_60000
10
33.37900
20
-30.79800
30
60.00000
0
VERTEX
8
20_60000
10
33.11100
20
-29.63200
30
60.00000
0
VERTEX
8
20_60000
10
32.70400
20
-27.79600
30
60.00000
0
VERTEX
8
20_60000
10
32.51800
20
-27.23300
30
60.00000
0
VERTEX
8
20_60000
10
32.17000
20
-25.94200
30
60.00000
0
VERTEX
8
20_60000
10
32.07800
20
-25.65500
30
60.00000
0
VERTEX
8
20_60000
10
31.90000
20
-24.93300
30
60.00000
0
VERTEX
8
20_60000
10
31.76700
20
-23.75300
30
60.00000
0
VERTEX
8
20_60000
10
31.85100
20
-23.35400
30
60.00000
0
VERTEX
8
20_60000
10
31.95500
20
-23.16700
30
60.00000
0
VERTEX
8
20_60000
10
33.43400
20
-21.50100
30
60.00000
0
VERTEX
8
20_60000
10
33.82600
20
-20.93700
30
60.00000
0
VERTEX
8
20_60000
10
34.10600
20
-20.48200
30
60.00000
0
VERTEX
8
20_60000
10
34.62700
20
-19.52100
30
60.00000
0
VERTEX
8
20_60000
10
35.34700
20
-18.26300
30
60.00000
0
VERTEX
8
20_60000
10
35.59200
20
-17.88400
30
60.00000
0
VERTEX
8
20_60000
10
36.14700
20
-16.48200
30
60.00000
0
VERTEX
8
20_60000
10
36.43000
20
-15.72500
30
60.00000
0
VERTEX
8
20_60000
10
36.60900
20
-14.87500
30
60.00000
0
VERTEX
8
20_60000
10
36.63900
20
-14.13300
30
60.00000
0
VERTEX
8
20_60000
10
36.60900
20
-13.39800
30
60.00000
0
VERTEX
8
20_60000
10
36.74000
20
-12.50500
30
60.00000
0
VERTEX
8
20_60000
10
36.81100
20
-11.76800
30
60.00000
0
VERTEX
8
20_60000
10
36.91800
20
-11.02000
30
60.00000
0
VERTEX
8
20_60000
10
36.91300
20
-10.77100
30
60.00000
0
VERTEX
8
20_60000
10
36.89900
20
-10.57300
30
60.00000
0
VERTEX
8
20_60000
10
36.93000
20
-9.18200
30
60.00000
0
VERTEX
8
20_60000
10
36.84300
20
-8.56900
30
60.00000
0
VERTEX
8
20_60000
10
36.84600
20
-8.32300
30
60.00000
0
VERTEX
8
20_60000
10
36.67500
20
-7.59300
30
60.00000
0
VERTEX
8
20_60000
10
36.66000
20
-7.48600
30
60.00000
0
VERTEX
8
20_60000
10
36.67400
20
-6.92800
30
60.00000
0
VERTEX
8
20_60000
10
36.62400
20
-6.65500
30
60.00000
0
VERTEX
8
20_60000
10
36.56200
20
-5.59700
30
60.00000
0
VERTEX
8
20_60000
10
36.51600
20
-5.17500
30
60.00000
0
VERTEX
8
20_60000
10
36.35800
20
-4.49400
30
60.00000
0
VERTEX
8
20_60000
10
36.13900
20
-3.72700
30
60.00000
0
VERTEX
8
20_60000
10
36.11800
20
-3.52900
30
60.00000
0
VERTEX
8
20_60000
10
35.92400
20
-2.93000
30
60.00000
0
VERTEX
8
20_60000
10
35.73800
20
-2.14400
30
60.00000
0
VERTEX
8
20_60000
10
35.68500
20
-1.75500
30
60.00000
0
VERTEX
8
20_60000
10
35.61700
20
-1.35300
30
60.00000
0
VERTEX
8
20_60000
10
35.57900
20
-1.01900
30
60.00000
0
VERTEX
8
20_60000
10
35.55800
20
0.25600
30
60.00000
0
VERTEX
8
20_60000
10
35.52400
20
0.63000
30
60.00000
0
VERTEX
8
20_60000
10
35.47000
20
0.79900
30
60.00000
0
VERTEX
8
20_60000
10
35.49800
20
0.96200
30
60.00000
0
VERTEX
8
20_60000
10
35.43800
20
1.61500
30
60.00000
0
VERTEX
8
20_60000
10
35.47700
20
1.78000
30
60.00000
0
VERTEX
8
20_60000
10
35.55800
20
2.00200
30
60.00000
0
VERTEX
8
20_60000
10
35.75400
20
2.81800
30
60.00000
0
VERTEX
8
20_60000
10
36.22400
20
3.56200
30
60.00000
0
VERTEX
8
20_60000
10
36.43600
20
3.87100
30
60.00000
0
VERTEX
8
20_60000
10
36.60300
20
4.02700
30
60.00000
0
VERTEX
8
20_60000
10
36.92400
20
4.53500
30
60.00000
0
VERTEX
8
20_60000
10
37.58500
20
5.28400
30
60.00000
0
VERTEX
8
20_60000
10
38.43000
20
5.99800
30
60.00000
0
VERTEX
8
20_60000
10
39.58500
20
6.84000
30
60.00000
0
VERTEX
8
20_60000
10
41.21000
20
7.96600
30
60.00000
0
VERTEX
8
20_60000
10
41.46400
20
8.19900
30
60.00000
0
VERTEX
8
20_60000
10
42.54600
20
9.29900
30
60.00000
0
VERTEX
8
20_60000
10
42.90900
20
9.82100
30
60.00000
0
VERTEX
8
20_60000
10
43.37100
20
10.66000
30
60.00000
0
VERTEX
8
20_60000
10
43.76700
20
11.48400
30
60.00000
0
VERTEX
8
20_60000
10
44.12000
20
12.78600
30
60.00000
0
VERTEX
8
20_60000
10
44.13900
20
13.69000
30
60.00000
0
VERTEX
8
20_60000
10
44.25500
20
14.48600
30
60.00000
0
VERTEX
8
20_60000
10
44.27700
20
14.83600
30
60.00000
0
VERTEX
8
20_60000
10
44.24400
20
15.00800
30
60.00000
0
VERTEX
8
20_60000
10
44.12400
20
15.97900
30
60.00000
0
VERTEX
8
20_60000
10
43.59400
20
17.96700
30
60.00000
0
VERTEX
8
20_60000
10
43.36000
20
18.97600
30
60.00000
0
VERTEX
8
20_60000
10
43.31800
20
19.07600
30
60.00000
0
VERTEX
8
20_60000
10
42.97500
20
20.07200
30
60.00000
0
VERTEX
8
20_60000
10
42.49200
20
21.63300
30
60.00000
0
VERTEX
8
20_60000
10
42.30500
20
22.15300
30
60.00000
0
VERTEX
8
20_60000
10
42.19000
20
22.42700
30
60.00000
0
VERTEX
8
20_60000
10
42.01100
20
22.79000
30
60.00000
0
VERTEX
8
20_60000
10
41.04600
20
24.57800
30
60.00000
0
VERTEX
8
20_60000
10
40.74200
20
25.20000
30
60.00000
0
VERTEX
8
20_60000
10
38.72800
20
28.11200
30
60.00000
0
VERTEX
8
20_60000
10
38.66800
20
28.21000
30
60.00000
0
VERTEX
8
20_60000
10
37.64900
20
29.69100
30
60.00000
0
VERTEX
8
20_60000
10
36.85700
20
30.68800
30
60.00000
0
VERTEX
8
20_60000
10
36.57500
20
31.11400
30
60.00000
0
VERTEX
8
20_60000
10
36.33900
20
31.55400
30
60.00000
0
VERTEX
8
20_60000
10
35.58100
20
33.19700
30
60.00000
0
VERTEX
8
20_60000
10
35.12100
20
34.25500
30
60.00000
0
VERTEX
8
20_60000
10
34.43800
20
36.06500
30
60.00000
0
VERTEX
8
20_60000
10
33.75800
20
37.56900
30
60.00000
0
VERTEX
8
20_60000
10
31.76200
20
42.71200
30
60.00000
0
VERTEX
8
20_60000
10
31.30000
20
44.37600
30
60.00000
0
VERTEX
8
20_60000
10
31.26900
20
44.50400
30
60.00000
0
VERTEX
8
20_60000
10
31.26500
20
44.55500
30
60.00000
0
VERTEX
8
20_60000
10
30.48400
20
48.90700
30
60.00000
0
VERTEX
8
20_60000
10
30.05800
20
50.96200
30
60.00000
0
VERTEX
8
20_60000
10
30.06400
20
51.25700
30
60.00000
0
VERTEX
8
20_60000
10
30.05500
20
51.94600
30
60.00000
0
VERTEX
8
20_60000
10
30.18400
20
52.47900
30
60.00000
0
VERTEX
8
20_60000
10
30.67000
20
53.67800
30
60.00000
0
VERTEX
8
20_60000
10
30.74900
20
53.84600
30
60.00000
0
VERTEX
8
20_60000
10
31.11200
20
54.42900
30
60.00000
0
VERTEX
8
20_60000
10
31.62900
20
55.33200
30
60.00000
0
VERTEX
8
20_60000
10
31.88500
20
55.75400
30
60.00000
0
VERTEX
8
20_60000
10
32.90300
20
57.34500
30
60.00000
0
VERTEX
8
20_60000
10
33.19700
20
57.74900
30
60.00000
0
VERTEX
8
20_60000
10
34.24200
20
59.51300
30
60.00000
0
VERTEX
8
20_60000
10
34.31000
20
59.66000
30
60.00000
0
VERTEX
8
20_60000
10
34.54700
20
60.11700
30
60.00000
0
VERTEX
8
20_60000
10
35.40900
20
61.38400
30
60.00000
0
VERTEX
8
20_60000
10
35.94800
20
62.43100
30
60.00000
0
VERTEX
8
20_60000
10
36.41400
20
63.14700
30
60.00000
0
VERTEX
8
20_60000
10
36.80600
20
63.89100
30
60.00000
0
VERTEX
8
20_60000
10
37.03300
20
64.27100
30
60.00000
0
VERTEX
8
20_60000
10
37.21000
20
64.64101
30
60.00000
0
VERTEX
8
20_60000
10
37.85400
20
66.13700
30
60.00000
0
VERTEX
8
20_60000
10
38.25800
20
67.19100
30
60.00000
0
VERTEX
8
20_60000
10
38.45800
20
67.77100
30
60.00000
0
VERTEX
8
20_60000
10
38.48000
20
67.86200
30
60.00000
0
VERTEX
8
20_60000
10
38.77700
20
68.81600
30
60.00000
0
VERTEX
8
20_60000
10
38.89000
20
69.25500
30
60.00000
0
VERTEX
8
20_60000
10
39.10100
20
70.49800
30
60.00000
0
VERTEX
8
20_60000
10
39.23200
20
71.42900
30
60.00000
0
VERTEX
8
20_60000
10
39.29500
20
72.17001
30
60.00000
0
VERTEX
8
20_60000
10
39.39500
20
73.76100
30
60.00000
0
VERTEX
8
20_60000
10
39.38400
20
74.90200
30
60.00000
0
VERTEX
8
20_60000
10
39.35300
20
75.47601
30
60.00000
0
VERTEX
8
20_60000
10
39.25500
20
76.80100
30
60.00000
0
VERTEX
8
20_60000
10
39.09700
20
78.04900
30
60.00000
0
VERTEX
8
20_60000
10
38.73900
20
79.85700
30
60.00000
0
VERTEX
8
20_60000
10
38.66700
20
80.16400
30
60.00000
0
VERTEX
8
20_60000
10
38.55000
20
80.56500
30
60.00000
0
VERTEX
8
20_60000
10
38.35200
20
81.09200
30
60.00000
0
VERTEX
8
20_60000
10
37.29800
20
84.17300
30
60.00000
0
VERTEX
8
20_60000
10
36.67800
20
85.69000
30
60.00000
0
VERTEX
8
20_60000
10
13.18800
20
89.61301
30
60.00000
0
VERTEX
8
20_60000
10
-56.17000
20
89.61301
30
60.00000
0
VERTEX
8
20_60000
10
-56.17000
20
-13.01600
30
60.00000
0
SEQEND
8
20_60000
0
POLYLINE
8
20_60000
62
5
0
VERTEX
8
20_60000
10
11.26500
20
89.93001
30
60.00000
0
VERTEX
8
20_60000
10
7.57500
20
90.54800
30
60.00000
0
VERTEX
8
20_60000
10
-56.17000
20
90.54800
30
60.00000
0
VERTEX
8
20_60000
10
-56.17000
20
89.61301
30
60.00000
0
VERTEX
8
20_60000
10
13.18200
20
89.61301
30
60.00000
0
VERTEX
8
20_60000
10
11.26500
20
89.93001
30
60.00000
0
SEQEND
8
20_60000
0
ENDSEC
0
EOF
