0
SECTION
2
HEADER
9
$ACADVER
1
AC1009
0
ENDSEC
0
SECTION
2
TABLES
0
TABLE
2
LAYER
70
1
0
LAYER
2
31_93000
70
0
62
7
6
CONTINUOUS
0
ENDTAB
0
ENDSEC
0
SECTION
2
BLOCKS
0
ENDSEC
0
SECTION
2
ENTITIES
0
POLYLINE
8
31_93000
62
5
0
VERTEX
8
31_93000
10
-56.17000
20
91.73400
30
93.00000
0
VERTEX
8
31_93000
10
-56.17000
20
91.72900
30
93.00000
0
VERTEX
8
31_93000
10
0.49400
20
91.72900
30
93.00000
0
VERTEX
8
31_93000
10
0.12100
20
91.79301
30
93.00000
0
VERTEX
8
31_93000
10
-56.17000
20
91.79301
30
93.00000
0
VERTEX
8
31_93000
10
-56.17000
20
91.73400
30
93.00000
0
SEQEND
8
31_93000
0
POLYLINE
8
31_93000
62
5
0
VERTEX
8
31_93000
10
-49.00700
20
91.69501
30
93.00000
0
VERTEX
8
31_93000
10
0.70400
20
91.69501
30
93.00000
0
VERTEX
8
31_93000
10
0.52100
20
91.72501
30
93.00000
0
VERTEX
8
31_93000
10
-56.17000
20
91.72501
30
93.00000
0
VERTEX
8
31_93000
10
-56.17000
20
91.69501
30
93.00000
0
VERTEX
8
31_93000
10
-49.00700
20
91.69501
30
93.00000
0
SEQEND
8
31_93000
0
POLYLINE
8
31_93000
62
5
0
VERTEX
8
31_93000
10
-56.17000
20
91.68800
30
93.00000
0
VERTEX
8
31_93000
10
-56.17000
20
91.64400
30
93.00000
0
VERTEX
8
31_93000
10
1.00800
20
91.64400
30
93.00000
0
VERTEX
8
31_93000
10
0.71000
20
91.69501
30
93.00000
0
VERTEX
8
31_93000
10
-56.17000
20
91.69501
30
93.00000
0
VERTEX
8
31_93000
10
-56.17000
20
91.68800
30
93.00000
0
SEQEND
8
31_93000
0
POLYLINE
8
31_93000
62
5
0
VERTEX
8
31_93000
10
-56.17000
20
91.48801
30
93.00000
0
VERTEX
8
31_93000
10
-56.17000
20
91.39800
30
93.00000
0
VERTEX
8
31_93000
10
2.48600
20
91.39800
30
93.00000
0
VERTEX
8
31_93000
10
1.03000
20
91.64001
30
93.00000
0
VERTEX
8
31_93000
10
-56.17000
20
91.64001
30
93.00000
0
VERTEX
8
31_93000
10
-56.17000
20
91.48801
30
93.00000
0
SEQEND
8
31_93000
0
POLYLINE
8
31_93000
62
5
0
VERTEX
8
31_93000
10
-56.17000
20
74.90300
30
93.00000
0
VERTEX
8
31_93000
10
-56.17000
20
-92.11401
30
93.00000
0
VERTEX
8
31_93000
10
31.05700
20
-92.11401
30
93.00000
0
VERTEX
8
31_93000
10
30.98200
20
-91.74400
30
93.00000
0
VERTEX
8
31_93000
10
30.70800
20
-90.12701
30
93.00000
0
VERTEX
8
31_93000
10
30.70800
20
-90.06901
30
93.00000
0
VERTEX
8
31_93000
10
30.77400
20
-89.66701
30
93.00000
0
VERTEX
8
31_93000
10
30.79200
20
-89.39301
30
93.00000
0
VERTEX
8
31_93000
10
30.70100
20
-88.60900
30
93.00000
0
VERTEX
8
31_93000
10
30.69700
20
-88.32101
30
93.00000
0
VERTEX
8
31_93000
10
30.66500
20
-87.81300
30
93.00000
0
VERTEX
8
31_93000
10
30.70000
20
-87.55000
30
93.00000
0
VERTEX
8
31_93000
10
31.16300
20
-86.50900
30
93.00000
0
VERTEX
8
31_93000
10
31.29400
20
-86.27700
30
93.00000
0
VERTEX
8
31_93000
10
31.71800
20
-85.35101
30
93.00000
0
VERTEX
8
31_93000
10
31.76000
20
-85.23300
30
93.00000
0
VERTEX
8
31_93000
10
31.76500
20
-85.19501
30
93.00000
0
VERTEX
8
31_93000
10
31.86600
20
-85.03300
30
93.00000
0
VERTEX
8
31_93000
10
31.93700
20
-84.79401
30
93.00000
0
VERTEX
8
31_93000
10
32.08600
20
-84.42101
30
93.00000
0
VERTEX
8
31_93000
10
32.17500
20
-83.94200
30
93.00000
0
VERTEX
8
31_93000
10
32.20300
20
-83.85700
30
93.00000
0
VERTEX
8
31_93000
10
32.27700
20
-83.43101
30
93.00000
0
VERTEX
8
31_93000
10
32.32000
20
-83.31600
30
93.00000
0
VERTEX
8
31_93000
10
32.37400
20
-83.02100
30
93.00000
0
VERTEX
8
31_93000
10
32.37200
20
-82.95100
30
93.00000
0
VERTEX
8
31_93000
10
32.39500
20
-82.74100
30
93.00000
0
VERTEX
8
31_93000
10
32.48600
20
-82.57500
30
93.00000
0
VERTEX
8
31_93000
10
32.47600
20
-82.41701
30
93.00000
0
VERTEX
8
31_93000
10
32.58000
20
-82.20300
30
93.00000
0
VERTEX
8
31_93000
10
32.54800
20
-82.05100
30
93.00000
0
VERTEX
8
31_93000
10
32.57100
20
-81.76300
30
93.00000
0
VERTEX
8
31_93000
10
32.67400
20
-81.44901
30
93.00000
0
VERTEX
8
31_93000
10
32.85400
20
-81.09100
30
93.00000
0
VERTEX
8
31_93000
10
32.87600
20
-80.84700
30
93.00000
0
VERTEX
8
31_93000
10
32.95100
20
-80.28900
30
93.00000
0
VERTEX
8
31_93000
10
33.01800
20
-80.11600
30
93.00000
0
VERTEX
8
31_93000
10
33.10400
20
-79.54301
30
93.00000
0
VERTEX
8
31_93000
10
33.20600
20
-79.26100
30
93.00000
0
VERTEX
8
31_93000
10
33.26100
20
-79.06600
30
93.00000
0
VERTEX
8
31_93000
10
33.33600
20
-78.85201
30
93.00000
0
VERTEX
8
31_93000
10
33.48000
20
-78.34600
30
93.00000
0
VERTEX
8
31_93000
10
33.57700
20
-77.94300
30
93.00000
0
VERTEX
8
31_93000
10
33.59000
20
-77.36700
30
93.00000
0
VERTEX
8
31_93000
10
33.66500
20
-77.03300
30
93.00000
0
VERTEX
8
31_93000
10
33.75500
20
-76.53600
30
93.00000
0
VERTEX
8
31_93000
10
33.89200
20
-76.31700
30
93.00000
0
VERTEX
8
31_93000
10
33.97900
20
-75.72701
30
93.00000
0
VERTEX
8
31_93000
10
34.05900
20
-75.38500
30
93.00000
0
VERTEX
8
31_93000
10
34.09400
20
-75.15000
30
93.00000
0
VERTEX
8
31_93000
10
34.22400
20
-74.57700
30
93.00000
0
VERTEX
8
31_93000
10
34.25700
20
-74.34901
30
93.00000
0
VERTEX
8
31_93000
10
34.23400
20
-74.21800
30
93.00000
0
VERTEX
8
31_93000
10
34.30500
20
-74.02800
30
93.00000
0
VERTEX
8
31_93000
10
34.36300
20
-73.45600
30
93.00000
0
VERTEX
8
31_93000
10
34.39500
20
-73.25900
30
93.00000
0
VERTEX
8
31_93000
10
34.39900
20
-73.06700
30
93.00000
0
VERTEX
8
31_93000
10
34.45400
20
-72.80200
30
93.00000
0
VERTEX
8
31_93000
10
34.70500
20
-71.97501
30
93.00000
0
VERTEX
8
31_93000
10
34.79500
20
-71.72000
30
93.00000
0
VERTEX
8
31_93000
10
35.02500
20
-71.01000
30
93.00000
0
VERTEX
8
31_93000
10
35.23300
20
-70.52400
30
93.00000
0
VERTEX
8
31_93000
10
35.25100
20
-70.22701
30
93.00000
0
VERTEX
8
31_93000
10
35.26600
20
-69.76000
30
93.00000
0
VERTEX
8
31_93000
10
35.34800
20
-68.83200
30
93.00000
0
VERTEX
8
31_93000
10
35.40400
20
-68.70000
30
93.00000
0
VERTEX
8
31_93000
10
35.39400
20
-68.33801
30
93.00000
0
VERTEX
8
31_93000
10
35.46400
20
-67.87100
30
93.00000
0
VERTEX
8
31_93000
10
35.43600
20
-67.75500
30
93.00000
0
VERTEX
8
31_93000
10
35.48400
20
-67.54200
30
93.00000
0
VERTEX
8
31_93000
10
35.56900
20
-67.35600
30
93.00000
0
VERTEX
8
31_93000
10
35.57400
20
-67.16400
30
93.00000
0
VERTEX
8
31_93000
10
35.57400
20
-66.90800
30
93.00000
0
VERTEX
8
31_93000
10
35.47100
20
-66.67400
30
93.00000
0
VERTEX
8
31_93000
10
35.47200
20
-66.48400
30
93.00000
0
VERTEX
8
31_93000
10
35.50000
20
-66.06100
30
93.00000
0
VERTEX
8
31_93000
10
35.47800
20
-65.53201
30
93.00000
0
VERTEX
8
31_93000
10
35.32900
20
-65.31400
30
93.00000
0
VERTEX
8
31_93000
10
35.23600
20
-65.02700
30
93.00000
0
VERTEX
8
31_93000
10
35.11700
20
-64.89400
30
93.00000
0
VERTEX
8
31_93000
10
35.11600
20
-64.81500
30
93.00000
0
VERTEX
8
31_93000
10
35.00500
20
-64.44701
30
93.00000
0
VERTEX
8
31_93000
10
34.92800
20
-64.22701
30
93.00000
0
VERTEX
8
31_93000
10
34.85100
20
-63.85700
30
93.00000
0
VERTEX
8
31_93000
10
34.50100
20
-62.63500
30
93.00000
0
VERTEX
8
31_93000
10
34.38200
20
-62.29100
30
93.00000
0
VERTEX
8
31_93000
10
34.26700
20
-61.63700
30
93.00000
0
VERTEX
8
31_93000
10
34.03500
20
-60.62900
30
93.00000
0
VERTEX
8
31_93000
10
33.71900
20
-59.67900
30
93.00000
0
VERTEX
8
31_93000
10
33.10100
20
-57.14100
30
93.00000
0
VERTEX
8
31_93000
10
33.02600
20
-56.63600
30
93.00000
0
VERTEX
8
31_93000
10
32.96500
20
-56.12600
30
93.00000
0
VERTEX
8
31_93000
10
32.99000
20
-55.59500
30
93.00000
0
VERTEX
8
31_93000
10
32.98300
20
-54.72700
30
93.00000
0
VERTEX
8
31_93000
10
32.90200
20
-54.05500
30
93.00000
0
VERTEX
8
31_93000
10
32.79200
20
-52.98700
30
93.00000
0
VERTEX
8
31_93000
10
32.77200
20
-51.60800
30
93.00000
0
VERTEX
8
31_93000
10
32.80500
20
-51.38900
30
93.00000
0
VERTEX
8
31_93000
10
32.99600
20
-49.79800
30
93.00000
0
VERTEX
8
31_93000
10
33.11700
20
-48.90300
30
93.00000
0
VERTEX
8
31_93000
10
33.44800
20
-47.88400
30
93.00000
0
VERTEX
8
31_93000
10
34.37600
20
-45.31500
30
93.00000
0
VERTEX
8
31_93000
10
34.57400
20
-44.85900
30
93.00000
0
VERTEX
8
31_93000
10
35.20600
20
-43.32700
30
93.00000
0
VERTEX
8
31_93000
10
35.48900
20
-42.48800
30
93.00000
0
VERTEX
8
31_93000
10
35.78000
20
-41.25500
30
93.00000
0
VERTEX
8
31_93000
10
35.78100
20
-41.19800
30
93.00000
0
VERTEX
8
31_93000
10
35.80200
20
-41.09600
30
93.00000
0
VERTEX
8
31_93000
10
35.85500
20
-40.39900
30
93.00000
0
VERTEX
8
31_93000
10
35.87200
20
-40.35200
30
93.00000
0
VERTEX
8
31_93000
10
35.90200
20
-38.51200
30
93.00000
0
VERTEX
8
31_93000
10
35.92400
20
-38.34100
30
93.00000
0
VERTEX
8
31_93000
10
36.13900
20
-37.39900
30
93.00000
0
VERTEX
8
31_93000
10
36.18100
20
-37.13700
30
93.00000
0
VERTEX
8
31_93000
10
36.11900
20
-36.84100
30
93.00000
0
VERTEX
8
31_93000
10
35.98900
20
-36.64800
30
93.00000
0
VERTEX
8
31_93000
10
35.97600
20
-36.50600
30
93.00000
0
VERTEX
8
31_93000
10
36.04900
20
-35.96900
30
93.00000
0
VERTEX
8
31_93000
10
36.10400
20
-35.20400
30
93.00000
0
VERTEX
8
31_93000
10
36.22400
20
-33.95200
30
93.00000
0
VERTEX
8
31_93000
10
36.24100
20
-33.58900
30
93.00000
0
VERTEX
8
31_93000
10
36.23700
20
-33.22200
30
93.00000
0
VERTEX
8
31_93000
10
36.02100
20
-31.54300
30
93.00000
0
VERTEX
8
31_93000
10
35.99100
20
-31.33300
30
93.00000
0
VERTEX
8
31_93000
10
35.95300
20
-31.14800
30
93.00000
0
VERTEX
8
31_93000
10
35.31400
20
-28.73900
30
93.00000
0
VERTEX
8
31_93000
10
35.18700
20
-28.23300
30
93.00000
0
VERTEX
8
31_93000
10
34.35000
20
-26.36700
30
93.00000
0
VERTEX
8
31_93000
10
34.30500
20
-26.23200
30
93.00000
0
VERTEX
8
31_93000
10
34.12900
20
-25.82800
30
93.00000
0
VERTEX
8
31_93000
10
33.89000
20
-25.36600
30
93.00000
0
VERTEX
8
31_93000
10
33.43200
20
-24.60000
30
93.00000
0
VERTEX
8
31_93000
10
33.33400
20
-24.32000
30
93.00000
0
VERTEX
8
31_93000
10
33.05700
20
-23.66000
30
93.00000
0
VERTEX
8
31_93000
10
32.62200
20
-22.42300
30
93.00000
0
VERTEX
8
31_93000
10
32.65400
20
-22.32900
30
93.00000
0
VERTEX
8
31_93000
10
32.70900
20
-22.00600
30
93.00000
0
VERTEX
8
31_93000
10
32.81100
20
-21.88800
30
93.00000
0
VERTEX
8
31_93000
10
34.02500
20
-20.21800
30
93.00000
0
VERTEX
8
31_93000
10
34.60600
20
-19.28500
30
93.00000
0
VERTEX
8
31_93000
10
34.75600
20
-19.07700
30
93.00000
0
VERTEX
8
31_93000
10
35.54300
20
-17.70000
30
93.00000
0
VERTEX
8
31_93000
10
35.74200
20
-17.23400
30
93.00000
0
VERTEX
8
31_93000
10
35.86600
20
-16.93000
30
93.00000
0
VERTEX
8
31_93000
10
35.90300
20
-16.81800
30
93.00000
0
VERTEX
8
31_93000
10
35.99900
20
-16.34400
30
93.00000
0
VERTEX
8
31_93000
10
36.27200
20
-15.36600
30
93.00000
0
VERTEX
8
31_93000
10
36.32300
20
-14.95400
30
93.00000
0
VERTEX
8
31_93000
10
36.34300
20
-14.41800
30
93.00000
0
VERTEX
8
31_93000
10
36.28200
20
-13.22100
30
93.00000
0
VERTEX
8
31_93000
10
36.40100
20
-12.10300
30
93.00000
0
VERTEX
8
31_93000
10
36.40800
20
-11.73400
30
93.00000
0
VERTEX
8
31_93000
10
36.46100
20
-10.59300
30
93.00000
0
VERTEX
8
31_93000
10
36.48300
20
-10.36000
30
93.00000
0
VERTEX
8
31_93000
10
36.48100
20
-10.33900
30
93.00000
0
VERTEX
8
31_93000
10
36.42700
20
-10.20400
30
93.00000
0
VERTEX
8
31_93000
10
36.35000
20
-9.78300
30
93.00000
0
VERTEX
8
31_93000
10
36.26000
20
-9.59600
30
93.00000
0
VERTEX
8
31_93000
10
36.18400
20
-9.29300
30
93.00000
0
VERTEX
8
31_93000
10
36.01700
20
-8.85300
30
93.00000
0
VERTEX
8
31_93000
10
35.90600
20
-8.46300
30
93.00000
0
VERTEX
8
31_93000
10
35.87300
20
-8.00900
30
93.00000
0
VERTEX
8
31_93000
10
35.84600
20
-7.91800
30
93.00000
0
VERTEX
8
31_93000
10
35.85100
20
-7.72900
30
93.00000
0
VERTEX
8
31_93000
10
35.83000
20
-7.46800
30
93.00000
0
VERTEX
8
31_93000
10
35.79200
20
-7.14100
30
93.00000
0
VERTEX
8
31_93000
10
35.72000
20
-6.81300
30
93.00000
0
VERTEX
8
31_93000
10
35.49900
20
-5.48500
30
93.00000
0
VERTEX
8
31_93000
10
35.03900
20
-4.56100
30
93.00000
0
VERTEX
8
31_93000
10
34.95200
20
-4.32900
30
93.00000
0
VERTEX
8
31_93000
10
34.82000
20
-4.11900
30
93.00000
0
VERTEX
8
31_93000
10
34.46300
20
-3.40500
30
93.00000
0
VERTEX
8
31_93000
10
34.16600
20
-2.67000
30
93.00000
0
VERTEX
8
31_93000
10
33.79100
20
-1.80800
30
93.00000
0
VERTEX
8
31_93000
10
33.63100
20
-1.31500
30
93.00000
0
VERTEX
8
31_93000
10
33.46500
20
-0.75800
30
93.00000
0
VERTEX
8
31_93000
10
32.94300
20
1.13700
30
93.00000
0
VERTEX
8
31_93000
10
32.71100
20
2.38900
30
93.00000
0
VERTEX
8
31_93000
10
32.54700
20
3.40900
30
93.00000
0
VERTEX
8
31_93000
10
32.49700
20
4.08600
30
93.00000
0
VERTEX
8
31_93000
10
32.52100
20
5.00500
30
93.00000
0
VERTEX
8
31_93000
10
32.51000
20
5.64600
30
93.00000
0
VERTEX
8
31_93000
10
32.53200
20
5.80700
30
93.00000
0
VERTEX
8
31_93000
10
32.74600
20
6.67200
30
93.00000
0
VERTEX
8
31_93000
10
33.19900
20
7.62700
30
93.00000
0
VERTEX
8
31_93000
10
33.32200
20
7.80800
30
93.00000
0
VERTEX
8
31_93000
10
33.55800
20
8.35500
30
93.00000
0
VERTEX
8
31_93000
10
33.91900
20
8.77700
30
93.00000
0
VERTEX
8
31_93000
10
34.13100
20
9.24000
30
93.00000
0
VERTEX
8
31_93000
10
34.39900
20
9.57600
30
93.00000
0
VERTEX
8
31_93000
10
35.16300
20
10.91400
30
93.00000
0
VERTEX
8
31_93000
10
35.38400
20
11.27400
30
93.00000
0
VERTEX
8
31_93000
10
35.46000
20
11.48700
30
93.00000
0
VERTEX
8
31_93000
10
35.59300
20
11.96700
30
93.00000
0
VERTEX
8
31_93000
10
35.63400
20
12.22800
30
93.00000
0
VERTEX
8
31_93000
10
35.73300
20
13.53600
30
93.00000
0
VERTEX
8
31_93000
10
35.78400
20
14.01400
30
93.00000
0
VERTEX
8
31_93000
10
35.76700
20
14.19400
30
93.00000
0
VERTEX
8
31_93000
10
35.34000
20
15.89500
30
93.00000
0
VERTEX
8
31_93000
10
34.70000
20
17.26600
30
93.00000
0
VERTEX
8
31_93000
10
34.39500
20
18.20900
30
93.00000
0
VERTEX
8
31_93000
10
34.22300
20
18.69000
30
93.00000
0
VERTEX
8
31_93000
10
34.16000
20
18.80500
30
93.00000
0
VERTEX
8
31_93000
10
34.04400
20
19.79900
30
93.00000
0
VERTEX
8
31_93000
10
34.03800
20
20.34200
30
93.00000
0
VERTEX
8
31_93000
10
34.05100
20
20.41200
30
93.00000
0
VERTEX
8
31_93000
10
34.04300
20
20.62200
30
93.00000
0
VERTEX
8
31_93000
10
34.02200
20
20.82200
30
93.00000
0
VERTEX
8
31_93000
10
33.98400
20
21.98700
30
93.00000
0
VERTEX
8
31_93000
10
33.78200
20
23.61700
30
93.00000
0
VERTEX
8
31_93000
10
33.48900
20
25.03000
30
93.00000
0
VERTEX
8
31_93000
10
33.20200
20
26.55500
30
93.00000
0
VERTEX
8
31_93000
10
33.16400
20
26.71100
30
93.00000
0
VERTEX
8
31_93000
10
32.53300
20
29.09200
30
93.00000
0
VERTEX
8
31_93000
10
30.97500
20
33.79100
30
93.00000
0
VERTEX
8
31_93000
10
30.18100
20
35.88800
30
93.00000
0
VERTEX
8
31_93000
10
29.81800
20
36.93000
30
93.00000
0
VERTEX
8
31_93000
10
29.57800
20
37.53900
30
93.00000
0
VERTEX
8
31_93000
10
29.29900
20
38.67200
30
93.00000
0
VERTEX
8
31_93000
10
29.23500
20
39.06200
30
93.00000
0
VERTEX
8
31_93000
10
29.15100
20
39.41600
30
93.00000
0
VERTEX
8
31_93000
10
29.08500
20
40.30900
30
93.00000
0
VERTEX
8
31_93000
10
28.99800
20
41.82200
30
93.00000
0
VERTEX
8
31_93000
10
28.98700
20
42.32400
30
93.00000
0
VERTEX
8
31_93000
10
28.97800
20
44.48900
30
93.00000
0
VERTEX
8
31_93000
10
29.06600
20
45.88000
30
93.00000
0
VERTEX
8
31_93000
10
29.15600
20
47.11500
30
93.00000
0
VERTEX
8
31_93000
10
29.13300
20
47.94000
30
93.00000
0
VERTEX
8
31_93000
10
29.02400
20
49.04600
30
93.00000
0
VERTEX
8
31_93000
10
28.79400
20
50.09600
30
93.00000
0
VERTEX
8
31_93000
10
28.61900
20
51.02300
30
93.00000
0
VERTEX
8
31_93000
10
28.51400
20
51.43100
30
93.00000
0
VERTEX
8
31_93000
10
28.39200
20
51.68100
30
93.00000
0
VERTEX
8
31_93000
10
28.28800
20
52.03700
30
93.00000
0
VERTEX
8
31_93000
10
28.02200
20
52.53300
30
93.00000
0
VERTEX
8
31_93000
10
27.76300
20
53.07500
30
93.00000
0
VERTEX
8
31_93000
10
27.74800
20
53.69600
30
93.00000
0
VERTEX
8
31_93000
10
27.77000
20
53.90800
30
93.00000
0
VERTEX
8
31_93000
10
27.88300
20
54.14300
30
93.00000
0
VERTEX
8
31_93000
10
28.19400
20
54.50700
30
93.00000
0
VERTEX
8
31_93000
10
28.66900
20
55.17000
30
93.00000
0
VERTEX
8
31_93000
10
29.16300
20
55.81200
30
93.00000
0
VERTEX
8
31_93000
10
29.64800
20
56.61000
30
93.00000
0
VERTEX
8
31_93000
10
29.97800
20
57.30600
30
93.00000
0
VERTEX
8
31_93000
10
30.38400
20
58.32000
30
93.00000
0
VERTEX
8
31_93000
10
30.54700
20
58.71400
30
93.00000
0
VERTEX
8
31_93000
10
30.60200
20
58.82600
30
93.00000
0
VERTEX
8
31_93000
10
30.68900
20
58.94500
30
93.00000
0
VERTEX
8
31_93000
10
30.79900
20
59.05500
30
93.00000
0
VERTEX
8
31_93000
10
31.51000
20
59.89500
30
93.00000
0
VERTEX
8
31_93000
10
31.88600
20
60.31300
30
93.00000
0
VERTEX
8
31_93000
10
32.02500
20
60.54800
30
93.00000
0
VERTEX
8
31_93000
10
33.88300
20
63.87300
30
93.00000
0
VERTEX
8
31_93000
10
34.47200
20
64.82500
30
93.00000
0
VERTEX
8
31_93000
10
36.10100
20
67.26200
30
93.00000
0
VERTEX
8
31_93000
10
37.06300
20
69.04800
30
93.00000
0
VERTEX
8
31_93000
10
37.73200
20
70.64900
30
93.00000
0
VERTEX
8
31_93000
10
38.14300
20
71.82500
30
93.00000
0
VERTEX
8
31_93000
10
38.34700
20
72.54301
30
93.00000
0
VERTEX
8
31_93000
10
38.61000
20
73.71001
30
93.00000
0
VERTEX
8
31_93000
10
38.68000
20
74.59901
30
93.00000
0
VERTEX
8
31_93000
10
38.74900
20
76.19601
30
93.00000
0
VERTEX
8
31_93000
10
38.76100
20
76.96900
30
93.00000
0
VERTEX
8
31_93000
10
38.74500
20
77.68000
30
93.00000
0
VERTEX
8
31_93000
10
38.71700
20
78.24500
30
93.00000
0
VERTEX
8
31_93000
10
38.62000
20
79.61100
30
93.00000
0
VERTEX
8
31_93000
10
38.42600
20
80.85900
30
93.00000
0
VERTEX
8
31_93000
10
38.21900
20
82.07700
30
93.00000
0
VERTEX
8
31_93000
10
37.48100
20
84.91801
30
93.00000
0
VERTEX
8
31_93000
10
37.22900
20
85.60001
30
93.00000
0
VERTEX
8
31_93000
10
18.86900
20
88.66400
30
93.00000
0
VERTEX
8
31_93000
10
-56.17000
20
88.66400
30
93.00000
0
VERTEX
8
31_93000
10
-56.17000
20
74.90300
30
93.00000
0
SEQEND
8
31_93000
0
POLYLINE
8
31_93000
62
5
0
VERTEX
8
31_93000
10
-56.17000
20
90.75101
30
93.00000
0
VERTEX
8
31_93000
10
-56.17000
20
90.14800
30
93.00000
0
VERTEX
8
31_93000
10
9.97900
20
90.14800
30
93.00000
0
VERTEX
8
31_93000
10
2.50800
20
91.39400
30
93.00000
0
VERTEX
8
31_93000
10
-56.17000
20
91.39400
30
93.00000
0
VERTEX
8
31_93000
10
-56.17000
20
90.75101
30
93.00000
0
SEQEND
8
31_93000
0
POLYLINE
8
31_93000
62
5
0
VERTEX
8
31_93000
10
15.30400
20
89.25700
30
93.00000
0
VERTEX
8
31_93000
10
10.01900
20
90.14001
30
93.00000
0
VERTEX
8
31_93000
10
-56.17000
20
90.14001
30
93.00000
0
VERTEX
8
31_93000
10
-56.17000
20
88.66601
30
93.00000
0
VERTEX
8
31_93000
10
18.85700
20
88.66601
30
93.00000
0
VERTEX
8
31_93000
10
15.30400
20
89.25700
30
93.00000
0
SEQEND
8
31_93000
0
ENDSEC
0
EOF
