0
SECTION
2
HEADER
9
$ACADVER
1
AC1009
0
ENDSEC
0
SECTION
2
TABLES
0
TABLE
2
LAYER
70
1
0
LAYER
2
14_42000
70
0
62
7
6
CONTINUOUS
0
ENDTAB
0
ENDSEC
0
SECTION
2
BLOCKS
0
ENDSEC
0
SECTION
2
ENTITIES
0
POLYLINE
8
14_42000
62
5
0
VERTEX
8
14_42000
10
-39.81400
20
91.46001
30
42.00000
0
VERTEX
8
14_42000
10
2.10800
20
91.46001
30
42.00000
0
VERTEX
8
14_42000
10
1.94400
20
91.48801
30
42.00000
0
VERTEX
8
14_42000
10
-56.17000
20
91.48801
30
42.00000
0
VERTEX
8
14_42000
10
-56.17000
20
91.46001
30
42.00000
0
VERTEX
8
14_42000
10
-39.81400
20
91.46001
30
42.00000
0
SEQEND
8
14_42000
0
POLYLINE
8
14_42000
62
5
0
VERTEX
8
14_42000
10
-39.56100
20
91.42200
30
42.00000
0
VERTEX
8
14_42000
10
2.33000
20
91.42200
30
42.00000
0
VERTEX
8
14_42000
10
2.12000
20
91.45901
30
42.00000
0
VERTEX
8
14_42000
10
-56.17000
20
91.45901
30
42.00000
0
VERTEX
8
14_42000
10
-56.17000
20
91.42200
30
42.00000
0
VERTEX
8
14_42000
10
-39.56100
20
91.42200
30
42.00000
0
SEQEND
8
14_42000
0
POLYLINE
8
14_42000
62
5
0
VERTEX
8
14_42000
10
-39.06100
20
91.31600
30
42.00000
0
VERTEX
8
14_42000
10
2.97300
20
91.31600
30
42.00000
0
VERTEX
8
14_42000
10
2.33900
20
91.42200
30
42.00000
0
VERTEX
8
14_42000
10
-56.17000
20
91.42200
30
42.00000
0
VERTEX
8
14_42000
10
-56.17000
20
91.31600
30
42.00000
0
VERTEX
8
14_42000
10
-39.06100
20
91.31600
30
42.00000
0
SEQEND
8
14_42000
0
POLYLINE
8
14_42000
62
5
0
VERTEX
8
14_42000
10
-21.07200
20
-92.11401
30
42.00000
0
VERTEX
8
14_42000
10
9.53600
20
-92.11401
30
42.00000
0
VERTEX
8
14_42000
10
8.93700
20
-88.98901
30
42.00000
0
VERTEX
8
14_42000
10
8.89400
20
-88.66200
30
42.00000
0
VERTEX
8
14_42000
10
8.84300
20
-88.35800
30
42.00000
0
VERTEX
8
14_42000
10
8.87600
20
-88.00600
30
42.00000
0
VERTEX
8
14_42000
10
8.89300
20
-87.60001
30
42.00000
0
VERTEX
8
14_42000
10
8.97400
20
-87.36700
30
42.00000
0
VERTEX
8
14_42000
10
9.11000
20
-87.18401
30
42.00000
0
VERTEX
8
14_42000
10
11.17600
20
-84.92700
30
42.00000
0
VERTEX
8
14_42000
10
12.54400
20
-83.48300
30
42.00000
0
VERTEX
8
14_42000
10
12.90700
20
-83.07401
30
42.00000
0
VERTEX
8
14_42000
10
15.74700
20
-80.16000
30
42.00000
0
VERTEX
8
14_42000
10
16.28800
20
-79.33601
30
42.00000
0
VERTEX
8
14_42000
10
16.68300
20
-78.80801
30
42.00000
0
VERTEX
8
14_42000
10
16.88800
20
-78.59000
30
42.00000
0
VERTEX
8
14_42000
10
16.98800
20
-78.42001
30
42.00000
0
VERTEX
8
14_42000
10
17.04600
20
-78.25101
30
42.00000
0
VERTEX
8
14_42000
10
17.29200
20
-77.26200
30
42.00000
0
VERTEX
8
14_42000
10
17.52300
20
-76.18600
30
42.00000
0
VERTEX
8
14_42000
10
17.57700
20
-75.76200
30
42.00000
0
VERTEX
8
14_42000
10
17.75800
20
-75.28700
30
42.00000
0
VERTEX
8
14_42000
10
17.83600
20
-75.12300
30
42.00000
0
VERTEX
8
14_42000
10
17.81300
20
-75.07101
30
42.00000
0
VERTEX
8
14_42000
10
17.92200
20
-74.74300
30
42.00000
0
VERTEX
8
14_42000
10
17.83700
20
-74.45200
30
42.00000
0
VERTEX
8
14_42000
10
17.83900
20
-74.36700
30
42.00000
0
VERTEX
8
14_42000
10
17.75400
20
-74.04401
30
42.00000
0
VERTEX
8
14_42000
10
17.79100
20
-73.88200
30
42.00000
0
VERTEX
8
14_42000
10
17.80000
20
-73.56600
30
42.00000
0
VERTEX
8
14_42000
10
17.92000
20
-72.60800
30
42.00000
0
VERTEX
8
14_42000
10
17.90200
20
-72.50301
30
42.00000
0
VERTEX
8
14_42000
10
17.93800
20
-71.79700
30
42.00000
0
VERTEX
8
14_42000
10
18.07500
20
-70.67900
30
42.00000
0
VERTEX
8
14_42000
10
18.30000
20
-69.16901
30
42.00000
0
VERTEX
8
14_42000
10
18.39800
20
-68.45100
30
42.00000
0
VERTEX
8
14_42000
10
18.71900
20
-66.95500
30
42.00000
0
VERTEX
8
14_42000
10
18.62000
20
-66.24200
30
42.00000
0
VERTEX
8
14_42000
10
18.59600
20
-65.05100
30
42.00000
0
VERTEX
8
14_42000
10
18.63500
20
-64.61100
30
42.00000
0
VERTEX
8
14_42000
10
18.57800
20
-64.43100
30
42.00000
0
VERTEX
8
14_42000
10
18.56600
20
-64.20200
30
42.00000
0
VERTEX
8
14_42000
10
18.60200
20
-63.58700
30
42.00000
0
VERTEX
8
14_42000
10
18.77400
20
-62.58000
30
42.00000
0
VERTEX
8
14_42000
10
18.76200
20
-62.23300
30
42.00000
0
VERTEX
8
14_42000
10
19.29000
20
-60.77200
30
42.00000
0
VERTEX
8
14_42000
10
19.27400
20
-60.60000
30
42.00000
0
VERTEX
8
14_42000
10
19.57700
20
-59.18500
30
42.00000
0
VERTEX
8
14_42000
10
19.89500
20
-57.90800
30
42.00000
0
VERTEX
8
14_42000
10
19.81200
20
-57.25100
30
42.00000
0
VERTEX
8
14_42000
10
19.81000
20
-56.97200
30
42.00000
0
VERTEX
8
14_42000
10
19.87200
20
-56.84900
30
42.00000
0
VERTEX
8
14_42000
10
19.87600
20
-56.61600
30
42.00000
0
VERTEX
8
14_42000
10
19.98300
20
-56.12000
30
42.00000
0
VERTEX
8
14_42000
10
20.00000
20
-55.71900
30
42.00000
0
VERTEX
8
14_42000
10
20.05600
20
-55.48700
30
42.00000
0
VERTEX
8
14_42000
10
20.15200
20
-54.92300
30
42.00000
0
VERTEX
8
14_42000
10
20.17500
20
-54.57200
30
42.00000
0
VERTEX
8
14_42000
10
20.16300
20
-54.29800
30
42.00000
0
VERTEX
8
14_42000
10
20.19300
20
-54.01700
30
42.00000
0
VERTEX
8
14_42000
10
20.28100
20
-53.47700
30
42.00000
0
VERTEX
8
14_42000
10
20.30000
20
-53.27900
30
42.00000
0
VERTEX
8
14_42000
10
20.35900
20
-53.13300
30
42.00000
0
VERTEX
8
14_42000
10
20.61600
20
-51.56900
30
42.00000
0
VERTEX
8
14_42000
10
20.62300
20
-51.37500
30
42.00000
0
VERTEX
8
14_42000
10
20.60200
20
-51.20000
30
42.00000
0
VERTEX
8
14_42000
10
20.57000
20
-50.63000
30
42.00000
0
VERTEX
8
14_42000
10
20.83800
20
-49.18500
30
42.00000
0
VERTEX
8
14_42000
10
20.80400
20
-49.10200
30
42.00000
0
VERTEX
8
14_42000
10
20.89500
20
-48.21200
30
42.00000
0
VERTEX
8
14_42000
10
20.89600
20
-48.07300
30
42.00000
0
VERTEX
8
14_42000
10
20.88100
20
-47.77100
30
42.00000
0
VERTEX
8
14_42000
10
20.94300
20
-46.85400
30
42.00000
0
VERTEX
8
14_42000
10
20.93700
20
-46.79500
30
42.00000
0
VERTEX
8
14_42000
10
20.98800
20
-45.91200
30
42.00000
0
VERTEX
8
14_42000
10
21.02300
20
-45.49400
30
42.00000
0
VERTEX
8
14_42000
10
20.94100
20
-45.09000
30
42.00000
0
VERTEX
8
14_42000
10
20.91700
20
-44.83200
30
42.00000
0
VERTEX
8
14_42000
10
20.99500
20
-44.25500
30
42.00000
0
VERTEX
8
14_42000
10
20.99100
20
-43.90700
30
42.00000
0
VERTEX
8
14_42000
10
21.06300
20
-43.63400
30
42.00000
0
VERTEX
8
14_42000
10
21.19500
20
-43.28200
30
42.00000
0
VERTEX
8
14_42000
10
21.30300
20
-42.94100
30
42.00000
0
VERTEX
8
14_42000
10
21.62100
20
-41.82000
30
42.00000
0
VERTEX
8
14_42000
10
21.71400
20
-41.55900
30
42.00000
0
VERTEX
8
14_42000
10
21.72200
20
-41.51200
30
42.00000
0
VERTEX
8
14_42000
10
21.82100
20
-40.78300
30
42.00000
0
VERTEX
8
14_42000
10
21.84000
20
-40.04100
30
42.00000
0
VERTEX
8
14_42000
10
21.89400
20
-39.86900
30
42.00000
0
VERTEX
8
14_42000
10
21.94100
20
-38.60200
30
42.00000
0
VERTEX
8
14_42000
10
22.11200
20
-37.86300
30
42.00000
0
VERTEX
8
14_42000
10
22.21700
20
-37.15900
30
42.00000
0
VERTEX
8
14_42000
10
22.31400
20
-36.28000
30
42.00000
0
VERTEX
8
14_42000
10
22.44200
20
-35.29100
30
42.00000
0
VERTEX
8
14_42000
10
22.46400
20
-34.73500
30
42.00000
0
VERTEX
8
14_42000
10
22.45200
20
-34.29900
30
42.00000
0
VERTEX
8
14_42000
10
22.47700
20
-33.53300
30
42.00000
0
VERTEX
8
14_42000
10
22.40000
20
-33.10100
30
42.00000
0
VERTEX
8
14_42000
10
22.40900
20
-32.61300
30
42.00000
0
VERTEX
8
14_42000
10
22.27000
20
-31.37000
30
42.00000
0
VERTEX
8
14_42000
10
22.34400
20
-30.40400
30
42.00000
0
VERTEX
8
14_42000
10
22.43900
20
-29.68300
30
42.00000
0
VERTEX
8
14_42000
10
22.51500
20
-29.34300
30
42.00000
0
VERTEX
8
14_42000
10
22.52900
20
-29.12300
30
42.00000
0
VERTEX
8
14_42000
10
22.52800
20
-28.99900
30
42.00000
0
VERTEX
8
14_42000
10
22.46100
20
-28.56300
30
42.00000
0
VERTEX
8
14_42000
10
22.37500
20
-28.23200
30
42.00000
0
VERTEX
8
14_42000
10
22.31300
20
-27.76000
30
42.00000
0
VERTEX
8
14_42000
10
22.26700
20
-27.23300
30
42.00000
0
VERTEX
8
14_42000
10
22.08900
20
-26.31200
30
42.00000
0
VERTEX
8
14_42000
10
22.04600
20
-25.95900
30
42.00000
0
VERTEX
8
14_42000
10
22.03800
20
-25.23900
30
42.00000
0
VERTEX
8
14_42000
10
22.17200
20
-24.50700
30
42.00000
0
VERTEX
8
14_42000
10
22.20100
20
-24.42200
30
42.00000
0
VERTEX
8
14_42000
10
22.46900
20
-23.42100
30
42.00000
0
VERTEX
8
14_42000
10
23.04900
20
-22.27500
30
42.00000
0
VERTEX
8
14_42000
10
23.55800
20
-21.23800
30
42.00000
0
VERTEX
8
14_42000
10
24.10800
20
-20.16200
30
42.00000
0
VERTEX
8
14_42000
10
24.65300
20
-19.21700
30
42.00000
0
VERTEX
8
14_42000
10
24.90900
20
-18.30900
30
42.00000
0
VERTEX
8
14_42000
10
24.97100
20
-18.17600
30
42.00000
0
VERTEX
8
14_42000
10
25.40600
20
-17.14300
30
42.00000
0
VERTEX
8
14_42000
10
25.42200
20
-17.09100
30
42.00000
0
VERTEX
8
14_42000
10
25.66900
20
-16.05200
30
42.00000
0
VERTEX
8
14_42000
10
25.72100
20
-15.22500
30
42.00000
0
VERTEX
8
14_42000
10
25.71500
20
-14.98700
30
42.00000
0
VERTEX
8
14_42000
10
25.72900
20
-14.72200
30
42.00000
0
VERTEX
8
14_42000
10
25.85300
20
-13.77600
30
42.00000
0
VERTEX
8
14_42000
10
25.89800
20
-12.83400
30
42.00000
0
VERTEX
8
14_42000
10
26.21900
20
-10.02400
30
42.00000
0
VERTEX
8
14_42000
10
26.25900
20
-9.44400
30
42.00000
0
VERTEX
8
14_42000
10
26.26200
20
-8.96800
30
42.00000
0
VERTEX
8
14_42000
10
26.64700
20
-6.89400
30
42.00000
0
VERTEX
8
14_42000
10
26.84200
20
-6.08500
30
42.00000
0
VERTEX
8
14_42000
10
26.93500
20
-5.76300
30
42.00000
0
VERTEX
8
14_42000
10
27.46300
20
-3.42000
30
42.00000
0
VERTEX
8
14_42000
10
27.98400
20
-1.72900
30
42.00000
0
VERTEX
8
14_42000
10
28.08600
20
-1.30200
30
42.00000
0
VERTEX
8
14_42000
10
28.36300
20
-0.34500
30
42.00000
0
VERTEX
8
14_42000
10
29.03900
20
2.19700
30
42.00000
0
VERTEX
8
14_42000
10
29.72600
20
4.62500
30
42.00000
0
VERTEX
8
14_42000
10
30.05700
20
5.86200
30
42.00000
0
VERTEX
8
14_42000
10
30.12300
20
6.23400
30
42.00000
0
VERTEX
8
14_42000
10
30.48100
20
7.87200
30
42.00000
0
VERTEX
8
14_42000
10
30.65400
20
8.58000
30
42.00000
0
VERTEX
8
14_42000
10
30.69500
20
8.78400
30
42.00000
0
VERTEX
8
14_42000
10
30.89700
20
10.11700
30
42.00000
0
VERTEX
8
14_42000
10
31.05800
20
11.41100
30
42.00000
0
VERTEX
8
14_42000
10
31.07000
20
11.72600
30
42.00000
0
VERTEX
8
14_42000
10
31.13300
20
15.24700
30
42.00000
0
VERTEX
8
14_42000
10
31.08400
20
15.74900
30
42.00000
0
VERTEX
8
14_42000
10
31.03800
20
16.43500
30
42.00000
0
VERTEX
8
14_42000
10
30.94100
20
17.38900
30
42.00000
0
VERTEX
8
14_42000
10
30.76200
20
18.63200
30
42.00000
0
VERTEX
8
14_42000
10
30.41200
20
20.53800
30
42.00000
0
VERTEX
8
14_42000
10
30.29700
20
21.09600
30
42.00000
0
VERTEX
8
14_42000
10
29.62100
20
23.45100
30
42.00000
0
VERTEX
8
14_42000
10
28.79500
20
25.84000
30
42.00000
0
VERTEX
8
14_42000
10
28.67400
20
26.29100
30
42.00000
0
VERTEX
8
14_42000
10
28.26600
20
27.53800
30
42.00000
0
VERTEX
8
14_42000
10
27.85100
20
28.91700
30
42.00000
0
VERTEX
8
14_42000
10
27.76900
20
29.31100
30
42.00000
0
VERTEX
8
14_42000
10
27.56300
20
30.93100
30
42.00000
0
VERTEX
8
14_42000
10
27.52900
20
31.84000
30
42.00000
0
VERTEX
8
14_42000
10
27.65700
20
34.50900
30
42.00000
0
VERTEX
8
14_42000
10
27.64600
20
34.74100
30
42.00000
0
VERTEX
8
14_42000
10
27.64600
20
35.21300
30
42.00000
0
VERTEX
8
14_42000
10
27.93700
20
36.95400
30
42.00000
0
VERTEX
8
14_42000
10
27.95100
20
37.00100
30
42.00000
0
VERTEX
8
14_42000
10
28.14600
20
37.38300
30
42.00000
0
VERTEX
8
14_42000
10
28.58500
20
38.34000
30
42.00000
0
VERTEX
8
14_42000
10
28.91700
20
39.17600
30
42.00000
0
VERTEX
8
14_42000
10
29.08900
20
39.71400
30
42.00000
0
VERTEX
8
14_42000
10
29.37500
20
40.94200
30
42.00000
0
VERTEX
8
14_42000
10
29.68300
20
42.65200
30
42.00000
0
VERTEX
8
14_42000
10
29.89700
20
43.58600
30
42.00000
0
VERTEX
8
14_42000
10
29.94700
20
44.66200
30
42.00000
0
VERTEX
8
14_42000
10
29.87900
20
44.98400
30
42.00000
0
VERTEX
8
14_42000
10
29.83600
20
45.38200
30
42.00000
0
VERTEX
8
14_42000
10
29.47700
20
46.36500
30
42.00000
0
VERTEX
8
14_42000
10
29.46300
20
46.50400
30
42.00000
0
VERTEX
8
14_42000
10
29.45100
20
47.49800
30
42.00000
0
VERTEX
8
14_42000
10
29.67000
20
48.67900
30
42.00000
0
VERTEX
8
14_42000
10
29.76800
20
48.93000
30
42.00000
0
VERTEX
8
14_42000
10
29.85800
20
49.08500
30
42.00000
0
VERTEX
8
14_42000
10
30.06200
20
49.81300
30
42.00000
0
VERTEX
8
14_42000
10
30.19400
20
50.38600
30
42.00000
0
VERTEX
8
14_42000
10
30.28700
20
50.64000
30
42.00000
0
VERTEX
8
14_42000
10
30.29700
20
50.94400
30
42.00000
0
VERTEX
8
14_42000
10
30.28200
20
50.99400
30
42.00000
0
VERTEX
8
14_42000
10
30.45800
20
51.18400
30
42.00000
0
VERTEX
8
14_42000
10
30.79300
20
51.63900
30
42.00000
0
VERTEX
8
14_42000
10
31.09500
20
52.69400
30
42.00000
0
VERTEX
8
14_42000
10
31.17300
20
53.00500
30
42.00000
0
VERTEX
8
14_42000
10
31.44400
20
53.41100
30
42.00000
0
VERTEX
8
14_42000
10
31.58600
20
53.59800
30
42.00000
0
VERTEX
8
14_42000
10
31.86700
20
54.31100
30
42.00000
0
VERTEX
8
14_42000
10
31.97500
20
54.48900
30
42.00000
0
VERTEX
8
14_42000
10
32.24700
20
54.98100
30
42.00000
0
VERTEX
8
14_42000
10
33.33000
20
56.20800
30
42.00000
0
VERTEX
8
14_42000
10
33.54100
20
56.47100
30
42.00000
0
VERTEX
8
14_42000
10
34.01500
20
57.40200
30
42.00000
0
VERTEX
8
14_42000
10
34.18400
20
57.69800
30
42.00000
0
VERTEX
8
14_42000
10
34.27700
20
57.80800
30
42.00000
0
VERTEX
8
14_42000
10
34.34400
20
57.90400
30
42.00000
0
VERTEX
8
14_42000
10
34.52100
20
58.18600
30
42.00000
0
VERTEX
8
14_42000
10
34.73300
20
58.63700
30
42.00000
0
VERTEX
8
14_42000
10
34.85200
20
59.29300
30
42.00000
0
VERTEX
8
14_42000
10
34.92500
20
60.07400
30
42.00000
0
VERTEX
8
14_42000
10
34.95500
20
60.65200
30
42.00000
0
VERTEX
8
14_42000
10
35.01500
20
61.40500
30
42.00000
0
VERTEX
8
14_42000
10
35.03400
20
61.93100
30
42.00000
0
VERTEX
8
14_42000
10
35.04100
20
63.21800
30
42.00000
0
VERTEX
8
14_42000
10
35.16200
20
64.03600
30
42.00000
0
VERTEX
8
14_42000
10
35.23900
20
64.48700
30
42.00000
0
VERTEX
8
14_42000
10
35.44300
20
65.29800
30
42.00000
0
VERTEX
8
14_42000
10
35.48100
20
65.56600
30
42.00000
0
VERTEX
8
14_42000
10
36.19800
20
67.97200
30
42.00000
0
VERTEX
8
14_42000
10
36.35100
20
68.40900
30
42.00000
0
VERTEX
8
14_42000
10
36.63200
20
69.34500
30
42.00000
0
VERTEX
8
14_42000
10
36.89400
20
70.33000
30
42.00000
0
VERTEX
8
14_42000
10
36.93500
20
70.43700
30
42.00000
0
VERTEX
8
14_42000
10
36.99600
20
70.65401
30
42.00000
0
VERTEX
8
14_42000
10
37.25900
20
71.82301
30
42.00000
0
VERTEX
8
14_42000
10
37.30800
20
72.10001
30
42.00000
0
VERTEX
8
14_42000
10
37.33800
20
72.48500
30
42.00000
0
VERTEX
8
14_42000
10
37.31400
20
72.68301
30
42.00000
0
VERTEX
8
14_42000
10
37.31400
20
73.18401
30
42.00000
0
VERTEX
8
14_42000
10
37.23200
20
73.87100
30
42.00000
0
VERTEX
8
14_42000
10
37.13300
20
74.40501
30
42.00000
0
VERTEX
8
14_42000
10
36.77100
20
75.77901
30
42.00000
0
VERTEX
8
14_42000
10
36.31400
20
77.57700
30
42.00000
0
VERTEX
8
14_42000
10
36.01800
20
78.62500
30
42.00000
0
VERTEX
8
14_42000
10
35.74900
20
79.53500
30
42.00000
0
VERTEX
8
14_42000
10
35.13800
20
81.23300
30
42.00000
0
VERTEX
8
14_42000
10
34.62900
20
82.48601
30
42.00000
0
VERTEX
8
14_42000
10
33.59900
20
85.07301
30
42.00000
0
VERTEX
8
14_42000
10
33.08000
20
86.29000
30
42.00000
0
VERTEX
8
14_42000
10
10.08800
20
90.13000
30
42.00000
0
VERTEX
8
14_42000
10
-56.17000
20
90.13000
30
42.00000
0
VERTEX
8
14_42000
10
-56.17000
20
-92.11401
30
42.00000
0
VERTEX
8
14_42000
10
-21.07200
20
-92.11401
30
42.00000
0
SEQEND
8
14_42000
0
POLYLINE
8
14_42000
62
5
0
VERTEX
8
14_42000
10
-37.74800
20
90.77400
30
42.00000
0
VERTEX
8
14_42000
10
6.22600
20
90.77400
30
42.00000
0
VERTEX
8
14_42000
10
2.98200
20
91.31400
30
42.00000
0
VERTEX
8
14_42000
10
-56.17000
20
91.31400
30
42.00000
0
VERTEX
8
14_42000
10
-56.17000
20
90.77400
30
42.00000
0
VERTEX
8
14_42000
10
-37.74800
20
90.77400
30
42.00000
0
SEQEND
8
14_42000
0
POLYLINE
8
14_42000
62
5
0
VERTEX
8
14_42000
10
8.76700
20
90.34801
30
42.00000
0
VERTEX
8
14_42000
10
6.24300
20
90.77100
30
42.00000
0
VERTEX
8
14_42000
10
-56.17000
20
90.77100
30
42.00000
0
VERTEX
8
14_42000
10
-56.17000
20
90.13000
30
42.00000
0
VERTEX
8
14_42000
10
10.08400
20
90.13000
30
42.00000
0
VERTEX
8
14_42000
10
8.76700
20
90.34801
30
42.00000
0
SEQEND
8
14_42000
0
ENDSEC
0
EOF
