0
SECTION
2
HEADER
9
$ACADVER
1
AC1009
0
ENDSEC
0
SECTION
2
TABLES
0
TABLE
2
LAYER
70
1
0
LAYER
2
52_156000
70
0
62
7
6
CONTINUOUS
0
ENDTAB
0
ENDSEC
0
SECTION
2
BLOCKS
0
ENDSEC
0
SECTION
2
ENTITIES
0
POLYLINE
8
52_156000
62
5
0
VERTEX
8
52_156000
10
-56.17000
20
64.56400
30
156.00000
0
VERTEX
8
52_156000
10
-56.17000
20
36.91900
30
156.00000
0
VERTEX
8
52_156000
10
-53.05200
20
36.92900
30
156.00000
0
VERTEX
8
52_156000
10
-49.09600
20
36.90800
30
156.00000
0
VERTEX
8
52_156000
10
-43.43400
20
36.96800
30
156.00000
0
VERTEX
8
52_156000
10
-35.37300
20
36.96800
30
156.00000
0
VERTEX
8
52_156000
10
-35.97200
20
37.50500
30
156.00000
0
VERTEX
8
52_156000
10
-37.91600
20
38.95200
30
156.00000
0
VERTEX
8
52_156000
10
-38.23700
20
39.23100
30
156.00000
0
VERTEX
8
52_156000
10
-38.32800
20
39.33700
30
156.00000
0
VERTEX
8
52_156000
10
-39.05700
20
40.02000
30
156.00000
0
VERTEX
8
52_156000
10
-39.22400
20
40.23400
30
156.00000
0
VERTEX
8
52_156000
10
-40.11000
20
41.48900
30
156.00000
0
VERTEX
8
52_156000
10
-40.39000
20
41.99000
30
156.00000
0
VERTEX
8
52_156000
10
-40.68100
20
43.21800
30
156.00000
0
VERTEX
8
52_156000
10
-40.92400
20
44.19600
30
156.00000
0
VERTEX
8
52_156000
10
-41.47300
20
45.65100
30
156.00000
0
VERTEX
8
52_156000
10
-41.55100
20
45.93700
30
156.00000
0
VERTEX
8
52_156000
10
-41.99200
20
46.65900
30
156.00000
0
VERTEX
8
52_156000
10
-42.24100
20
47.15100
30
156.00000
0
VERTEX
8
52_156000
10
-42.99700
20
48.13500
30
156.00000
0
VERTEX
8
52_156000
10
-43.55800
20
48.94800
30
156.00000
0
VERTEX
8
52_156000
10
-43.57800
20
48.98700
30
156.00000
0
VERTEX
8
52_156000
10
-44.03600
20
49.56100
30
156.00000
0
VERTEX
8
52_156000
10
-47.31700
20
53.39200
30
156.00000
0
VERTEX
8
52_156000
10
-47.78800
20
53.82300
30
156.00000
0
VERTEX
8
52_156000
10
-47.91200
20
54.28400
30
156.00000
0
VERTEX
8
52_156000
10
-48.19500
20
54.74800
30
156.00000
0
VERTEX
8
52_156000
10
-48.27400
20
54.89800
30
156.00000
0
VERTEX
8
52_156000
10
-48.35500
20
55.36300
30
156.00000
0
VERTEX
8
52_156000
10
-47.37100
20
57.40100
30
156.00000
0
VERTEX
8
52_156000
10
-47.12800
20
57.72600
30
156.00000
0
VERTEX
8
52_156000
10
-46.09300
20
58.63600
30
156.00000
0
VERTEX
8
52_156000
10
-45.53700
20
59.00400
30
156.00000
0
VERTEX
8
52_156000
10
-44.82100
20
59.55700
30
156.00000
0
VERTEX
8
52_156000
10
-43.62800
20
60.37300
30
156.00000
0
VERTEX
8
52_156000
10
-43.07200
20
60.68000
30
156.00000
0
VERTEX
8
52_156000
10
-42.09600
20
61.18900
30
156.00000
0
VERTEX
8
52_156000
10
-41.30400
20
61.64300
30
156.00000
0
VERTEX
8
52_156000
10
-41.07500
20
61.78600
30
156.00000
0
VERTEX
8
52_156000
10
-40.86600
20
61.93300
30
156.00000
0
VERTEX
8
52_156000
10
-40.22300
20
62.26900
30
156.00000
0
VERTEX
8
52_156000
10
-40.04600
20
62.34900
30
156.00000
0
VERTEX
8
52_156000
10
-37.72400
20
63.58200
30
156.00000
0
VERTEX
8
52_156000
10
-37.44500
20
63.71700
30
156.00000
0
VERTEX
8
52_156000
10
-36.11400
20
64.26400
30
156.00000
0
VERTEX
8
52_156000
10
-35.85000
20
64.39600
30
156.00000
0
VERTEX
8
52_156000
10
-35.39400
20
64.56400
30
156.00000
0
VERTEX
8
52_156000
10
-56.17000
20
64.56400
30
156.00000
0
SEQEND
8
52_156000
0
ENDSEC
0
EOF
