0
SECTION
2
HEADER
9
$ACADVER
1
AC1009
0
ENDSEC
0
SECTION
2
TABLES
0
TABLE
2
LAYER
70
1
0
LAYER
2
48_144000
70
0
62
7
6
CONTINUOUS
0
ENDTAB
0
ENDSEC
0
SECTION
2
BLOCKS
0
ENDSEC
0
SECTION
2
ENTITIES
0
POLYLINE
8
48_144000
62
5
0
VERTEX
8
48_144000
10
-55.61800
20
92.00101
30
144.00000
0
VERTEX
8
48_144000
10
-1.11800
20
92.00101
30
144.00000
0
VERTEX
8
48_144000
10
-1.70500
20
92.09701
30
144.00000
0
VERTEX
8
48_144000
10
-56.17000
20
92.09701
30
144.00000
0
VERTEX
8
48_144000
10
-56.17000
20
92.00101
30
144.00000
0
VERTEX
8
48_144000
10
-55.61800
20
92.00101
30
144.00000
0
SEQEND
8
48_144000
0
POLYLINE
8
48_144000
62
5
0
VERTEX
8
48_144000
10
-56.10700
20
91.94501
30
144.00000
0
VERTEX
8
48_144000
10
-0.79200
20
91.94501
30
144.00000
0
VERTEX
8
48_144000
10
-1.07500
20
91.99400
30
144.00000
0
VERTEX
8
48_144000
10
-56.17000
20
91.99400
30
144.00000
0
VERTEX
8
48_144000
10
-56.17000
20
91.94501
30
144.00000
0
VERTEX
8
48_144000
10
-56.10700
20
91.94501
30
144.00000
0
SEQEND
8
48_144000
0
POLYLINE
8
48_144000
62
5
0
VERTEX
8
48_144000
10
-56.17000
20
91.83601
30
144.00000
0
VERTEX
8
48_144000
10
-56.17000
20
-92.11401
30
144.00000
0
VERTEX
8
48_144000
10
31.47800
20
-92.11401
30
144.00000
0
VERTEX
8
48_144000
10
30.55400
20
-90.77300
30
144.00000
0
VERTEX
8
48_144000
10
28.73800
20
-88.22501
30
144.00000
0
VERTEX
8
48_144000
10
28.48300
20
-87.85300
30
144.00000
0
VERTEX
8
48_144000
10
27.46400
20
-86.48400
30
144.00000
0
VERTEX
8
48_144000
10
25.94700
20
-84.41300
30
144.00000
0
VERTEX
8
48_144000
10
25.53700
20
-83.85101
30
144.00000
0
VERTEX
8
48_144000
10
25.00300
20
-83.09500
30
144.00000
0
VERTEX
8
48_144000
10
23.83000
20
-81.57001
30
144.00000
0
VERTEX
8
48_144000
10
23.59000
20
-81.24600
30
144.00000
0
VERTEX
8
48_144000
10
21.67800
20
-78.74800
30
144.00000
0
VERTEX
8
48_144000
10
20.87300
20
-77.70700
30
144.00000
0
VERTEX
8
48_144000
10
20.24000
20
-76.84700
30
144.00000
0
VERTEX
8
48_144000
10
18.26000
20
-74.31500
30
144.00000
0
VERTEX
8
48_144000
10
15.91900
20
-71.36700
30
144.00000
0
VERTEX
8
48_144000
10
14.69000
20
-69.85201
30
144.00000
0
VERTEX
8
48_144000
10
12.95100
20
-67.68600
30
144.00000
0
VERTEX
8
48_144000
10
12.41100
20
-66.99600
30
144.00000
0
VERTEX
8
48_144000
10
11.89100
20
-66.38100
30
144.00000
0
VERTEX
8
48_144000
10
8.98400
20
-62.52500
30
144.00000
0
VERTEX
8
48_144000
10
7.77100
20
-60.95100
30
144.00000
0
VERTEX
8
48_144000
10
6.58300
20
-59.32300
30
144.00000
0
VERTEX
8
48_144000
10
6.49000
20
-59.18000
30
144.00000
0
VERTEX
8
48_144000
10
5.52000
20
-57.81100
30
144.00000
0
VERTEX
8
48_144000
10
4.91300
20
-56.88800
30
144.00000
0
VERTEX
8
48_144000
10
4.11000
20
-55.73900
30
144.00000
0
VERTEX
8
48_144000
10
3.40200
20
-54.60300
30
144.00000
0
VERTEX
8
48_144000
10
2.17800
20
-52.68300
30
144.00000
0
VERTEX
8
48_144000
10
1.92300
20
-52.33800
30
144.00000
0
VERTEX
8
48_144000
10
1.63600
20
-51.78600
30
144.00000
0
VERTEX
8
48_144000
10
1.19000
20
-51.02400
30
144.00000
0
VERTEX
8
48_144000
10
0.75900
20
-50.23900
30
144.00000
0
VERTEX
8
48_144000
10
0.42100
20
-49.50200
30
144.00000
0
VERTEX
8
48_144000
10
0.16200
20
-48.84400
30
144.00000
0
VERTEX
8
48_144000
10
-0.06100
20
-48.34800
30
144.00000
0
VERTEX
8
48_144000
10
-0.13500
20
-48.06600
30
144.00000
0
VERTEX
8
48_144000
10
-0.26800
20
-47.76400
30
144.00000
0
VERTEX
8
48_144000
10
-0.62900
20
-47.05300
30
144.00000
0
VERTEX
8
48_144000
10
-0.72100
20
-46.83200
30
144.00000
0
VERTEX
8
48_144000
10
-0.91700
20
-46.25100
30
144.00000
0
VERTEX
8
48_144000
10
-1.15700
20
-45.59300
30
144.00000
0
VERTEX
8
48_144000
10
-1.32100
20
-45.26200
30
144.00000
0
VERTEX
8
48_144000
10
-1.45300
20
-45.04400
30
144.00000
0
VERTEX
8
48_144000
10
-1.90400
20
-44.01700
30
144.00000
0
VERTEX
8
48_144000
10
-1.97900
20
-43.34500
30
144.00000
0
VERTEX
8
48_144000
10
-2.06100
20
-42.34800
30
144.00000
0
VERTEX
8
48_144000
10
-2.06900
20
-42.04000
30
144.00000
0
VERTEX
8
48_144000
10
-2.21500
20
-41.46900
30
144.00000
0
VERTEX
8
48_144000
10
-2.32100
20
-40.30100
30
144.00000
0
VERTEX
8
48_144000
10
-2.31100
20
-40.21600
30
144.00000
0
VERTEX
8
48_144000
10
-2.10800
20
-39.12600
30
144.00000
0
VERTEX
8
48_144000
10
-2.09200
20
-38.75700
30
144.00000
0
VERTEX
8
48_144000
10
-1.93400
20
-37.54400
30
144.00000
0
VERTEX
8
48_144000
10
-1.80900
20
-37.02200
30
144.00000
0
VERTEX
8
48_144000
10
-1.79400
20
-36.57100
30
144.00000
0
VERTEX
8
48_144000
10
-1.78600
20
-35.52500
30
144.00000
0
VERTEX
8
48_144000
10
-1.72200
20
-35.04000
30
144.00000
0
VERTEX
8
48_144000
10
-1.75800
20
-34.81700
30
144.00000
0
VERTEX
8
48_144000
10
-1.76900
20
-34.20600
30
144.00000
0
VERTEX
8
48_144000
10
-1.70000
20
-33.51800
30
144.00000
0
VERTEX
8
48_144000
10
-1.67500
20
-32.80800
30
144.00000
0
VERTEX
8
48_144000
10
-1.67500
20
-31.96000
30
144.00000
0
VERTEX
8
48_144000
10
-1.65500
20
-31.74300
30
144.00000
0
VERTEX
8
48_144000
10
-1.56000
20
-31.27900
30
144.00000
0
VERTEX
8
48_144000
10
-1.56800
20
-31.08100
30
144.00000
0
VERTEX
8
48_144000
10
-1.56200
20
-30.59900
30
144.00000
0
VERTEX
8
48_144000
10
-1.48500
20
-30.00900
30
144.00000
0
VERTEX
8
48_144000
10
-1.41800
20
-29.29500
30
144.00000
0
VERTEX
8
48_144000
10
-1.37000
20
-28.20700
30
144.00000
0
VERTEX
8
48_144000
10
-1.28200
20
-27.57700
30
144.00000
0
VERTEX
8
48_144000
10
-1.17500
20
-27.00100
30
144.00000
0
VERTEX
8
48_144000
10
-1.12800
20
-26.19900
30
144.00000
0
VERTEX
8
48_144000
10
-1.02300
20
-25.20700
30
144.00000
0
VERTEX
8
48_144000
10
-0.94000
20
-24.68000
30
144.00000
0
VERTEX
8
48_144000
10
-0.76300
20
-23.67300
30
144.00000
0
VERTEX
8
48_144000
10
-0.70400
20
-23.42300
30
144.00000
0
VERTEX
8
48_144000
10
-0.65600
20
-23.23800
30
144.00000
0
VERTEX
8
48_144000
10
-0.51300
20
-22.98400
30
144.00000
0
VERTEX
8
48_144000
10
-0.47000
20
-22.71800
30
144.00000
0
VERTEX
8
48_144000
10
-0.35500
20
-22.29000
30
144.00000
0
VERTEX
8
48_144000
10
-0.18000
20
-21.24200
30
144.00000
0
VERTEX
8
48_144000
10
-0.14700
20
-20.67300
30
144.00000
0
VERTEX
8
48_144000
10
-0.04200
20
-19.91400
30
144.00000
0
VERTEX
8
48_144000
10
0.07600
20
-18.94100
30
144.00000
0
VERTEX
8
48_144000
10
0.20200
20
-17.32200
30
144.00000
0
VERTEX
8
48_144000
10
0.22500
20
-17.12100
30
144.00000
0
VERTEX
8
48_144000
10
0.41400
20
-15.72400
30
144.00000
0
VERTEX
8
48_144000
10
0.48500
20
-15.32800
30
144.00000
0
VERTEX
8
48_144000
10
0.63400
20
-14.60800
30
144.00000
0
VERTEX
8
48_144000
10
0.78000
20
-13.05200
30
144.00000
0
VERTEX
8
48_144000
10
0.89000
20
-12.47000
30
144.00000
0
VERTEX
8
48_144000
10
1.15500
20
-10.65500
30
144.00000
0
VERTEX
8
48_144000
10
1.22200
20
-9.98900
30
144.00000
0
VERTEX
8
48_144000
10
1.37600
20
-8.68700
30
144.00000
0
VERTEX
8
48_144000
10
1.37300
20
-8.19300
30
144.00000
0
VERTEX
8
48_144000
10
1.38600
20
-7.67900
30
144.00000
0
VERTEX
8
48_144000
10
1.37600
20
-7.63200
30
144.00000
0
VERTEX
8
48_144000
10
1.37000
20
-7.10400
30
144.00000
0
VERTEX
8
48_144000
10
1.33100
20
-5.96000
30
144.00000
0
VERTEX
8
48_144000
10
1.13100
20
-4.93400
30
144.00000
0
VERTEX
8
48_144000
10
1.06600
20
-4.42200
30
144.00000
0
VERTEX
8
48_144000
10
1.05700
20
-3.68000
30
144.00000
0
VERTEX
8
48_144000
10
1.00500
20
-3.44500
30
144.00000
0
VERTEX
8
48_144000
10
0.85300
20
-2.62000
30
144.00000
0
VERTEX
8
48_144000
10
0.88800
20
-2.44900
30
144.00000
0
VERTEX
8
48_144000
10
0.86700
20
-2.25800
30
144.00000
0
VERTEX
8
48_144000
10
0.68600
20
-1.00200
30
144.00000
0
VERTEX
8
48_144000
10
0.61800
20
-0.20400
30
144.00000
0
VERTEX
8
48_144000
10
0.56600
20
-0.05000
30
144.00000
0
VERTEX
8
48_144000
10
0.55500
20
0.24500
30
144.00000
0
VERTEX
8
48_144000
10
0.50900
20
0.41000
30
144.00000
0
VERTEX
8
48_144000
10
0.44500
20
0.56600
30
144.00000
0
VERTEX
8
48_144000
10
0.39700
20
0.74500
30
144.00000
0
VERTEX
8
48_144000
10
0.25600
20
1.57300
30
144.00000
0
VERTEX
8
48_144000
10
0.02900
20
3.12400
30
144.00000
0
VERTEX
8
48_144000
10
-0.28200
20
4.69700
30
144.00000
0
VERTEX
8
48_144000
10
-0.47000
20
5.24500
30
144.00000
0
VERTEX
8
48_144000
10
-0.77300
20
6.54700
30
144.00000
0
VERTEX
8
48_144000
10
-0.89500
20
7.16600
30
144.00000
0
VERTEX
8
48_144000
10
-1.05400
20
8.14100
30
144.00000
0
VERTEX
8
48_144000
10
-1.12500
20
8.39300
30
144.00000
0
VERTEX
8
48_144000
10
-1.32700
20
9.34100
30
144.00000
0
VERTEX
8
48_144000
10
-1.56000
20
10.15400
30
144.00000
0
VERTEX
8
48_144000
10
-1.78900
20
10.75800
30
144.00000
0
VERTEX
8
48_144000
10
-2.77700
20
13.71100
30
144.00000
0
VERTEX
8
48_144000
10
-3.08400
20
14.37800
30
144.00000
0
VERTEX
8
48_144000
10
-3.21700
20
14.77900
30
144.00000
0
VERTEX
8
48_144000
10
-3.26000
20
14.84000
30
144.00000
0
VERTEX
8
48_144000
10
-3.38300
20
15.21000
30
144.00000
0
VERTEX
8
48_144000
10
-3.67100
20
15.99700
30
144.00000
0
VERTEX
8
48_144000
10
-4.20500
20
17.11000
30
144.00000
0
VERTEX
8
48_144000
10
-4.89200
20
18.45100
30
144.00000
0
VERTEX
8
48_144000
10
-5.46000
20
19.68500
30
144.00000
0
VERTEX
8
48_144000
10
-5.71600
20
20.21000
30
144.00000
0
VERTEX
8
48_144000
10
-5.92800
20
20.58200
30
144.00000
0
VERTEX
8
48_144000
10
-6.23900
20
21.16400
30
144.00000
0
VERTEX
8
48_144000
10
-6.99900
20
22.83300
30
144.00000
0
VERTEX
8
48_144000
10
-7.70700
20
24.31200
30
144.00000
0
VERTEX
8
48_144000
10
-8.07200
20
25.18700
30
144.00000
0
VERTEX
8
48_144000
10
-8.35100
20
25.80800
30
144.00000
0
VERTEX
8
48_144000
10
-9.54100
20
28.23800
30
144.00000
0
VERTEX
8
48_144000
10
-10.61600
20
30.72300
30
144.00000
0
VERTEX
8
48_144000
10
-11.52700
20
32.97100
30
144.00000
0
VERTEX
8
48_144000
10
-13.28400
20
37.18800
30
144.00000
0
VERTEX
8
48_144000
10
-13.66700
20
38.06200
30
144.00000
0
VERTEX
8
48_144000
10
-14.65400
20
40.19800
30
144.00000
0
VERTEX
8
48_144000
10
-16.22400
20
44.39100
30
144.00000
0
VERTEX
8
48_144000
10
-16.35600
20
44.76800
30
144.00000
0
VERTEX
8
48_144000
10
-16.55900
20
45.40700
30
144.00000
0
VERTEX
8
48_144000
10
-17.51600
20
48.24700
30
144.00000
0
VERTEX
8
48_144000
10
-17.79300
20
49.15400
30
144.00000
0
VERTEX
8
48_144000
10
-18.03500
20
50.60600
30
144.00000
0
VERTEX
8
48_144000
10
-18.32700
20
52.74300
30
144.00000
0
VERTEX
8
48_144000
10
-18.27800
20
52.91500
30
144.00000
0
VERTEX
8
48_144000
10
-18.34400
20
54.85200
30
144.00000
0
VERTEX
8
48_144000
10
-18.17300
20
55.79800
30
144.00000
0
VERTEX
8
48_144000
10
-18.15200
20
56.04600
30
144.00000
0
VERTEX
8
48_144000
10
-17.97100
20
56.67200
30
144.00000
0
VERTEX
8
48_144000
10
-17.68900
20
57.45600
30
144.00000
0
VERTEX
8
48_144000
10
-17.70700
20
58.22700
30
144.00000
0
VERTEX
8
48_144000
10
-17.66900
20
58.70900
30
144.00000
0
VERTEX
8
48_144000
10
-17.56800
20
59.23200
30
144.00000
0
VERTEX
8
48_144000
10
-17.61900
20
59.60100
30
144.00000
0
VERTEX
8
48_144000
10
-17.56100
20
60.23500
30
144.00000
0
VERTEX
8
48_144000
10
-17.32700
20
61.06900
30
144.00000
0
VERTEX
8
48_144000
10
-16.86900
20
61.90800
30
144.00000
0
VERTEX
8
48_144000
10
-16.80200
20
62.00400
30
144.00000
0
VERTEX
8
48_144000
10
-16.47300
20
62.42800
30
144.00000
0
VERTEX
8
48_144000
10
-15.87300
20
63.14500
30
144.00000
0
VERTEX
8
48_144000
10
-15.85300
20
63.23900
30
144.00000
0
VERTEX
8
48_144000
10
-15.27600
20
64.25301
30
144.00000
0
VERTEX
8
48_144000
10
-14.98000
20
65.02800
30
144.00000
0
VERTEX
8
48_144000
10
-14.92000
20
65.11600
30
144.00000
0
VERTEX
8
48_144000
10
-14.12600
20
66.07600
30
144.00000
0
VERTEX
8
48_144000
10
-13.23100
20
67.31600
30
144.00000
0
VERTEX
8
48_144000
10
-11.53200
20
69.63100
30
144.00000
0
VERTEX
8
48_144000
10
-10.92000
20
70.60101
30
144.00000
0
VERTEX
8
48_144000
10
-10.67800
20
70.87400
30
144.00000
0
VERTEX
8
48_144000
10
-10.33900
20
71.46400
30
144.00000
0
VERTEX
8
48_144000
10
-9.85200
20
72.08100
30
144.00000
0
VERTEX
8
48_144000
10
-9.31900
20
72.72301
30
144.00000
0
VERTEX
8
48_144000
10
-8.76100
20
73.45600
30
144.00000
0
VERTEX
8
48_144000
10
-8.13900
20
74.41901
30
144.00000
0
VERTEX
8
48_144000
10
-7.55800
20
75.23100
30
144.00000
0
VERTEX
8
48_144000
10
-6.90400
20
76.44501
30
144.00000
0
VERTEX
8
48_144000
10
-5.87500
20
78.02600
30
144.00000
0
VERTEX
8
48_144000
10
-5.27900
20
79.12400
30
144.00000
0
VERTEX
8
48_144000
10
-4.74000
20
80.05601
30
144.00000
0
VERTEX
8
48_144000
10
-4.50600
20
80.53800
30
144.00000
0
VERTEX
8
48_144000
10
-4.38200
20
80.84300
30
144.00000
0
VERTEX
8
48_144000
10
-4.09400
20
81.45000
30
144.00000
0
VERTEX
8
48_144000
10
-4.03900
20
81.58200
30
144.00000
0
VERTEX
8
48_144000
10
-3.68000
20
82.26900
30
144.00000
0
VERTEX
8
48_144000
10
-3.26000
20
83.30100
30
144.00000
0
VERTEX
8
48_144000
10
-3.22800
20
83.35101
30
144.00000
0
VERTEX
8
48_144000
10
-2.98100
20
84.14001
30
144.00000
0
VERTEX
8
48_144000
10
-2.87900
20
84.43401
30
144.00000
0
VERTEX
8
48_144000
10
-2.29400
20
85.85001
30
144.00000
0
VERTEX
8
48_144000
10
-1.98500
20
86.88600
30
144.00000
0
VERTEX
8
48_144000
10
-1.94500
20
86.99600
30
144.00000
0
VERTEX
8
48_144000
10
-1.61800
20
88.05901
30
144.00000
0
VERTEX
8
48_144000
10
-1.39900
20
88.74100
30
144.00000
0
VERTEX
8
48_144000
10
-1.19700
20
89.72000
30
144.00000
0
VERTEX
8
48_144000
10
-1.10300
20
90.09901
30
144.00000
0
VERTEX
8
48_144000
10
-1.03000
20
90.56800
30
144.00000
0
VERTEX
8
48_144000
10
-0.83300
20
91.51801
30
144.00000
0
VERTEX
8
48_144000
10
-0.73000
20
91.93301
30
144.00000
0
VERTEX
8
48_144000
10
-0.78000
20
91.94100
30
144.00000
0
VERTEX
8
48_144000
10
-56.17000
20
91.94100
30
144.00000
0
VERTEX
8
48_144000
10
-56.17000
20
91.83601
30
144.00000
0
SEQEND
8
48_144000
0
ENDSEC
0
EOF
