0
SECTION
2
HEADER
9
$ACADVER
1
AC1009
0
ENDSEC
0
SECTION
2
TABLES
0
TABLE
2
LAYER
70
1
0
LAYER
2
10_30000
70
0
62
7
6
CONTINUOUS
0
ENDTAB
0
ENDSEC
0
SECTION
2
BLOCKS
0
ENDSEC
0
SECTION
2
ENTITIES
0
POLYLINE
8
10_30000
62
5
0
VERTEX
8
10_30000
10
-44.82700
20
91.39700
30
30.00000
0
VERTEX
8
10_30000
10
2.48800
20
91.39700
30
30.00000
0
VERTEX
8
10_30000
10
2.37400
20
91.41601
30
30.00000
0
VERTEX
8
10_30000
10
-56.17000
20
91.41601
30
30.00000
0
VERTEX
8
10_30000
10
-56.17000
20
91.39700
30
30.00000
0
VERTEX
8
10_30000
10
-44.82700
20
91.39700
30
30.00000
0
SEQEND
8
10_30000
0
POLYLINE
8
10_30000
62
5
0
VERTEX
8
10_30000
10
-44.81700
20
91.39600
30
30.00000
0
VERTEX
8
10_30000
10
-56.17000
20
91.39600
30
30.00000
0
VERTEX
8
10_30000
10
-56.17000
20
91.37000
30
30.00000
0
VERTEX
8
10_30000
10
2.64200
20
91.37000
30
30.00000
0
VERTEX
8
10_30000
10
2.49600
20
91.39600
30
30.00000
0
VERTEX
8
10_30000
10
-44.81700
20
91.39600
30
30.00000
0
SEQEND
8
10_30000
0
POLYLINE
8
10_30000
62
5
0
VERTEX
8
10_30000
10
-44.30700
20
91.29700
30
30.00000
0
VERTEX
8
10_30000
10
3.08800
20
91.29700
30
30.00000
0
VERTEX
8
10_30000
10
2.64700
20
91.37000
30
30.00000
0
VERTEX
8
10_30000
10
-56.17000
20
91.37000
30
30.00000
0
VERTEX
8
10_30000
10
-56.17000
20
91.29700
30
30.00000
0
VERTEX
8
10_30000
10
-44.30700
20
91.29700
30
30.00000
0
SEQEND
8
10_30000
0
POLYLINE
8
10_30000
62
5
0
VERTEX
8
10_30000
10
-38.21500
20
90.47401
30
30.00000
0
VERTEX
8
10_30000
10
-56.17000
20
90.47401
30
30.00000
0
VERTEX
8
10_30000
10
-56.17000
20
-92.11401
30
30.00000
0
VERTEX
8
10_30000
10
2.18800
20
-92.11401
30
30.00000
0
VERTEX
8
10_30000
10
1.50100
20
-90.33601
30
30.00000
0
VERTEX
8
10_30000
10
-0.12700
20
-85.79401
30
30.00000
0
VERTEX
8
10_30000
10
-0.55800
20
-84.29301
30
30.00000
0
VERTEX
8
10_30000
10
-1.04400
20
-82.66500
30
30.00000
0
VERTEX
8
10_30000
10
-1.14400
20
-82.25001
30
30.00000
0
VERTEX
8
10_30000
10
-1.19400
20
-81.58000
30
30.00000
0
VERTEX
8
10_30000
10
-0.96700
20
-81.12000
30
30.00000
0
VERTEX
8
10_30000
10
3.70900
20
-75.12701
30
30.00000
0
VERTEX
8
10_30000
10
3.96300
20
-74.85400
30
30.00000
0
VERTEX
8
10_30000
10
4.66900
20
-73.95700
30
30.00000
0
VERTEX
8
10_30000
10
5.10200
20
-73.26100
30
30.00000
0
VERTEX
8
10_30000
10
5.40600
20
-72.66700
30
30.00000
0
VERTEX
8
10_30000
10
5.66700
20
-72.02700
30
30.00000
0
VERTEX
8
10_30000
10
5.87000
20
-71.47301
30
30.00000
0
VERTEX
8
10_30000
10
5.88200
20
-71.36301
30
30.00000
0
VERTEX
8
10_30000
10
5.89700
20
-71.30901
30
30.00000
0
VERTEX
8
10_30000
10
5.91500
20
-71.15800
30
30.00000
0
VERTEX
8
10_30000
10
5.90200
20
-70.88700
30
30.00000
0
VERTEX
8
10_30000
10
5.99300
20
-70.40200
30
30.00000
0
VERTEX
8
10_30000
10
5.99100
20
-70.02600
30
30.00000
0
VERTEX
8
10_30000
10
6.02400
20
-69.32301
30
30.00000
0
VERTEX
8
10_30000
10
6.05900
20
-69.08501
30
30.00000
0
VERTEX
8
10_30000
10
6.06200
20
-68.93201
30
30.00000
0
VERTEX
8
10_30000
10
6.20800
20
-68.51300
30
30.00000
0
VERTEX
8
10_30000
10
6.16800
20
-68.31700
30
30.00000
0
VERTEX
8
10_30000
10
6.24700
20
-67.95400
30
30.00000
0
VERTEX
8
10_30000
10
6.44800
20
-67.15200
30
30.00000
0
VERTEX
8
10_30000
10
6.48700
20
-66.30901
30
30.00000
0
VERTEX
8
10_30000
10
6.63600
20
-64.88100
30
30.00000
0
VERTEX
8
10_30000
10
6.74800
20
-63.42700
30
30.00000
0
VERTEX
8
10_30000
10
6.75700
20
-63.37800
30
30.00000
0
VERTEX
8
10_30000
10
6.78600
20
-63.31800
30
30.00000
0
VERTEX
8
10_30000
10
6.82000
20
-63.20500
30
30.00000
0
VERTEX
8
10_30000
10
7.29800
20
-62.06000
30
30.00000
0
VERTEX
8
10_30000
10
7.52200
20
-61.63500
30
30.00000
0
VERTEX
8
10_30000
10
8.34200
20
-59.74900
30
30.00000
0
VERTEX
8
10_30000
10
9.33500
20
-57.84500
30
30.00000
0
VERTEX
8
10_30000
10
9.38500
20
-57.71100
30
30.00000
0
VERTEX
8
10_30000
10
9.92200
20
-56.56100
30
30.00000
0
VERTEX
8
10_30000
10
10.29300
20
-55.69500
30
30.00000
0
VERTEX
8
10_30000
10
10.40600
20
-55.36400
30
30.00000
0
VERTEX
8
10_30000
10
10.45500
20
-55.28400
30
30.00000
0
VERTEX
8
10_30000
10
10.56700
20
-54.92000
30
30.00000
0
VERTEX
8
10_30000
10
10.84300
20
-54.31600
30
30.00000
0
VERTEX
8
10_30000
10
10.99100
20
-53.83000
30
30.00000
0
VERTEX
8
10_30000
10
11.55500
20
-52.47500
30
30.00000
0
VERTEX
8
10_30000
10
11.78300
20
-52.09500
30
30.00000
0
VERTEX
8
10_30000
10
12.12500
20
-51.43200
30
30.00000
0
VERTEX
8
10_30000
10
12.14400
20
-51.34800
30
30.00000
0
VERTEX
8
10_30000
10
12.36300
20
-50.66200
30
30.00000
0
VERTEX
8
10_30000
10
12.40200
20
-50.57100
30
30.00000
0
VERTEX
8
10_30000
10
12.80700
20
-49.24000
30
30.00000
0
VERTEX
8
10_30000
10
13.07800
20
-48.39700
30
30.00000
0
VERTEX
8
10_30000
10
13.42400
20
-47.57900
30
30.00000
0
VERTEX
8
10_30000
10
13.52700
20
-47.14700
30
30.00000
0
VERTEX
8
10_30000
10
13.86400
20
-46.35000
30
30.00000
0
VERTEX
8
10_30000
10
14.18800
20
-45.64700
30
30.00000
0
VERTEX
8
10_30000
10
14.28900
20
-45.37000
30
30.00000
0
VERTEX
8
10_30000
10
14.40100
20
-45.14200
30
30.00000
0
VERTEX
8
10_30000
10
14.75400
20
-44.35600
30
30.00000
0
VERTEX
8
10_30000
10
15.01000
20
-43.64000
30
30.00000
0
VERTEX
8
10_30000
10
15.32000
20
-42.92300
30
30.00000
0
VERTEX
8
10_30000
10
15.87600
20
-41.78200
30
30.00000
0
VERTEX
8
10_30000
10
16.22800
20
-40.62600
30
30.00000
0
VERTEX
8
10_30000
10
16.37500
20
-39.95100
30
30.00000
0
VERTEX
8
10_30000
10
16.37600
20
-39.73900
30
30.00000
0
VERTEX
8
10_30000
10
16.44500
20
-39.17000
30
30.00000
0
VERTEX
8
10_30000
10
16.60100
20
-38.63100
30
30.00000
0
VERTEX
8
10_30000
10
16.65200
20
-38.41600
30
30.00000
0
VERTEX
8
10_30000
10
16.66400
20
-37.94500
30
30.00000
0
VERTEX
8
10_30000
10
16.79200
20
-37.51900
30
30.00000
0
VERTEX
8
10_30000
10
16.81600
20
-37.21200
30
30.00000
0
VERTEX
8
10_30000
10
16.98000
20
-36.36000
30
30.00000
0
VERTEX
8
10_30000
10
17.11300
20
-35.99800
30
30.00000
0
VERTEX
8
10_30000
10
17.15900
20
-35.62900
30
30.00000
0
VERTEX
8
10_30000
10
17.12700
20
-35.08200
30
30.00000
0
VERTEX
8
10_30000
10
17.14500
20
-34.91200
30
30.00000
0
VERTEX
8
10_30000
10
17.24300
20
-34.60300
30
30.00000
0
VERTEX
8
10_30000
10
17.36700
20
-34.30300
30
30.00000
0
VERTEX
8
10_30000
10
17.45400
20
-33.95900
30
30.00000
0
VERTEX
8
10_30000
10
17.49100
20
-33.73100
30
30.00000
0
VERTEX
8
10_30000
10
17.55900
20
-33.44500
30
30.00000
0
VERTEX
8
10_30000
10
17.80400
20
-31.63900
30
30.00000
0
VERTEX
8
10_30000
10
17.83000
20
-31.30800
30
30.00000
0
VERTEX
8
10_30000
10
18.16200
20
-29.83200
30
30.00000
0
VERTEX
8
10_30000
10
18.18000
20
-29.60000
30
30.00000
0
VERTEX
8
10_30000
10
18.21400
20
-29.35900
30
30.00000
0
VERTEX
8
10_30000
10
18.30300
20
-28.23600
30
30.00000
0
VERTEX
8
10_30000
10
18.52900
20
-26.95200
30
30.00000
0
VERTEX
8
10_30000
10
18.73100
20
-25.53600
30
30.00000
0
VERTEX
8
10_30000
10
18.95700
20
-24.53200
30
30.00000
0
VERTEX
8
10_30000
10
19.06200
20
-23.90400
30
30.00000
0
VERTEX
8
10_30000
10
19.48000
20
-21.75500
30
30.00000
0
VERTEX
8
10_30000
10
19.94000
20
-19.79600
30
30.00000
0
VERTEX
8
10_30000
10
20.08600
20
-19.18800
30
30.00000
0
VERTEX
8
10_30000
10
20.49100
20
-17.75100
30
30.00000
0
VERTEX
8
10_30000
10
21.61500
20
-13.94700
30
30.00000
0
VERTEX
8
10_30000
10
22.04700
20
-12.51800
30
30.00000
0
VERTEX
8
10_30000
10
22.14500
20
-12.25600
30
30.00000
0
VERTEX
8
10_30000
10
22.25600
20
-11.87400
30
30.00000
0
VERTEX
8
10_30000
10
22.55200
20
-10.94500
30
30.00000
0
VERTEX
8
10_30000
10
22.76600
20
-10.24100
30
30.00000
0
VERTEX
8
10_30000
10
23.08100
20
-9.32700
30
30.00000
0
VERTEX
8
10_30000
10
24.07300
20
-6.34600
30
30.00000
0
VERTEX
8
10_30000
10
24.37700
20
-5.34900
30
30.00000
0
VERTEX
8
10_30000
10
24.74100
20
-4.27100
30
30.00000
0
VERTEX
8
10_30000
10
24.82800
20
-3.82500
30
30.00000
0
VERTEX
8
10_30000
10
25.38900
20
-2.14000
30
30.00000
0
VERTEX
8
10_30000
10
25.64700
20
-1.21500
30
30.00000
0
VERTEX
8
10_30000
10
25.88700
20
-0.12300
30
30.00000
0
VERTEX
8
10_30000
10
26.71500
20
3.95500
30
30.00000
0
VERTEX
8
10_30000
10
26.83100
20
4.86800
30
30.00000
0
VERTEX
8
10_30000
10
26.86700
20
5.57600
30
30.00000
0
VERTEX
8
10_30000
10
26.93200
20
5.96000
30
30.00000
0
VERTEX
8
10_30000
10
27.01000
20
6.96600
30
30.00000
0
VERTEX
8
10_30000
10
27.04300
20
8.95300
30
30.00000
0
VERTEX
8
10_30000
10
27.05200
20
11.41700
30
30.00000
0
VERTEX
8
10_30000
10
26.92400
20
13.31200
30
30.00000
0
VERTEX
8
10_30000
10
26.72800
20
14.79300
30
30.00000
0
VERTEX
8
10_30000
10
26.62600
20
15.74300
30
30.00000
0
VERTEX
8
10_30000
10
26.24100
20
18.15300
30
30.00000
0
VERTEX
8
10_30000
10
26.04200
20
19.50600
30
30.00000
0
VERTEX
8
10_30000
10
25.73700
20
21.15700
30
30.00000
0
VERTEX
8
10_30000
10
25.49800
20
22.92900
30
30.00000
0
VERTEX
8
10_30000
10
25.23000
20
24.75900
30
30.00000
0
VERTEX
8
10_30000
10
25.17200
20
25.45900
30
30.00000
0
VERTEX
8
10_30000
10
24.47000
20
29.16400
30
30.00000
0
VERTEX
8
10_30000
10
24.08600
20
30.79400
30
30.00000
0
VERTEX
8
10_30000
10
24.03300
20
31.48700
30
30.00000
0
VERTEX
8
10_30000
10
23.97400
20
32.05200
30
30.00000
0
VERTEX
8
10_30000
10
23.90500
20
32.52400
30
30.00000
0
VERTEX
8
10_30000
10
23.88100
20
32.77000
30
30.00000
0
VERTEX
8
10_30000
10
23.87900
20
33.30600
30
30.00000
0
VERTEX
8
10_30000
10
23.89800
20
33.73200
30
30.00000
0
VERTEX
8
10_30000
10
24.07400
20
34.86300
30
30.00000
0
VERTEX
8
10_30000
10
24.20000
20
35.27200
30
30.00000
0
VERTEX
8
10_30000
10
24.21200
20
35.42600
30
30.00000
0
VERTEX
8
10_30000
10
24.45400
20
36.01900
30
30.00000
0
VERTEX
8
10_30000
10
24.47500
20
36.18400
30
30.00000
0
VERTEX
8
10_30000
10
25.37900
20
38.06500
30
30.00000
0
VERTEX
8
10_30000
10
25.52000
20
38.40900
30
30.00000
0
VERTEX
8
10_30000
10
25.83000
20
39.55800
30
30.00000
0
VERTEX
8
10_30000
10
26.19200
20
41.24300
30
30.00000
0
VERTEX
8
10_30000
10
26.24300
20
41.62600
30
30.00000
0
VERTEX
8
10_30000
10
26.24800
20
42.34900
30
30.00000
0
VERTEX
8
10_30000
10
26.35500
20
43.19400
30
30.00000
0
VERTEX
8
10_30000
10
26.45800
20
43.65400
30
30.00000
0
VERTEX
8
10_30000
10
26.46300
20
45.81000
30
30.00000
0
VERTEX
8
10_30000
10
26.44100
20
46.45400
30
30.00000
0
VERTEX
8
10_30000
10
26.29600
20
46.97500
30
30.00000
0
VERTEX
8
10_30000
10
26.23500
20
47.54800
30
30.00000
0
VERTEX
8
10_30000
10
26.08200
20
48.17200
30
30.00000
0
VERTEX
8
10_30000
10
26.04600
20
48.48200
30
30.00000
0
VERTEX
8
10_30000
10
26.12900
20
48.98900
30
30.00000
0
VERTEX
8
10_30000
10
26.45400
20
49.74200
30
30.00000
0
VERTEX
8
10_30000
10
26.50100
20
49.87200
30
30.00000
0
VERTEX
8
10_30000
10
26.77200
20
50.38200
30
30.00000
0
VERTEX
8
10_30000
10
26.92700
20
50.54300
30
30.00000
0
VERTEX
8
10_30000
10
27.28700
20
50.89100
30
30.00000
0
VERTEX
8
10_30000
10
27.75000
20
51.26000
30
30.00000
0
VERTEX
8
10_30000
10
28.58900
20
51.97900
30
30.00000
0
VERTEX
8
10_30000
10
29.26200
20
52.42100
30
30.00000
0
VERTEX
8
10_30000
10
29.40500
20
52.61300
30
30.00000
0
VERTEX
8
10_30000
10
29.56200
20
52.85100
30
30.00000
0
VERTEX
8
10_30000
10
29.91100
20
53.49000
30
30.00000
0
VERTEX
8
10_30000
10
30.10300
20
54.25300
30
30.00000
0
VERTEX
8
10_30000
10
30.40000
20
55.01000
30
30.00000
0
VERTEX
8
10_30000
10
30.75500
20
55.64000
30
30.00000
0
VERTEX
8
10_30000
10
31.30200
20
56.86500
30
30.00000
0
VERTEX
8
10_30000
10
31.67200
20
58.09300
30
30.00000
0
VERTEX
8
10_30000
10
31.72600
20
58.35700
30
30.00000
0
VERTEX
8
10_30000
10
31.83600
20
58.98200
30
30.00000
0
VERTEX
8
10_30000
10
31.92900
20
59.71300
30
30.00000
0
VERTEX
8
10_30000
10
32.01600
20
60.96800
30
30.00000
0
VERTEX
8
10_30000
10
32.08200
20
62.24900
30
30.00000
0
VERTEX
8
10_30000
10
32.08600
20
63.00100
30
30.00000
0
VERTEX
8
10_30000
10
32.05300
20
64.18301
30
30.00000
0
VERTEX
8
10_30000
10
32.23800
20
65.87600
30
30.00000
0
VERTEX
8
10_30000
10
32.40300
20
67.51400
30
30.00000
0
VERTEX
8
10_30000
10
32.38400
20
67.63100
30
30.00000
0
VERTEX
8
10_30000
10
32.41000
20
67.96900
30
30.00000
0
VERTEX
8
10_30000
10
32.40900
20
68.82500
30
30.00000
0
VERTEX
8
10_30000
10
32.33000
20
69.48801
30
30.00000
0
VERTEX
8
10_30000
10
32.34300
20
70.09800
30
30.00000
0
VERTEX
8
10_30000
10
32.40400
20
71.33701
30
30.00000
0
VERTEX
8
10_30000
10
32.37400
20
71.56600
30
30.00000
0
VERTEX
8
10_30000
10
32.35800
20
72.09600
30
30.00000
0
VERTEX
8
10_30000
10
32.35000
20
72.16700
30
30.00000
0
VERTEX
8
10_30000
10
32.18600
20
73.10700
30
30.00000
0
VERTEX
8
10_30000
10
32.09500
20
73.54301
30
30.00000
0
VERTEX
8
10_30000
10
31.98200
20
74.80600
30
30.00000
0
VERTEX
8
10_30000
10
31.45700
20
76.29301
30
30.00000
0
VERTEX
8
10_30000
10
30.85800
20
77.80300
30
30.00000
0
VERTEX
8
10_30000
10
29.53300
20
81.19901
30
30.00000
0
VERTEX
8
10_30000
10
27.90400
20
85.45100
30
30.00000
0
VERTEX
8
10_30000
10
27.12400
20
87.28400
30
30.00000
0
VERTEX
8
10_30000
10
8.02100
20
90.47401
30
30.00000
0
VERTEX
8
10_30000
10
-38.21500
20
90.47401
30
30.00000
0
SEQEND
8
10_30000
0
POLYLINE
8
10_30000
62
5
0
VERTEX
8
10_30000
10
-43.39500
20
90.92101
30
30.00000
0
VERTEX
8
10_30000
10
5.34300
20
90.92101
30
30.00000
0
VERTEX
8
10_30000
10
3.09400
20
91.29501
30
30.00000
0
VERTEX
8
10_30000
10
-56.17000
20
91.29501
30
30.00000
0
VERTEX
8
10_30000
10
-56.17000
20
90.92101
30
30.00000
0
VERTEX
8
10_30000
10
-43.39500
20
90.92101
30
30.00000
0
SEQEND
8
10_30000
0
POLYLINE
8
10_30000
62
5
0
VERTEX
8
10_30000
10
6.94800
20
90.65100
30
30.00000
0
VERTEX
8
10_30000
10
5.35500
20
90.91901
30
30.00000
0
VERTEX
8
10_30000
10
-56.17000
20
90.91901
30
30.00000
0
VERTEX
8
10_30000
10
-56.17000
20
90.47401
30
30.00000
0
VERTEX
8
10_30000
10
8.01900
20
90.47401
30
30.00000
0
VERTEX
8
10_30000
10
6.94800
20
90.65100
30
30.00000
0
SEQEND
8
10_30000
0
ENDSEC
0
EOF
