0
SECTION
2
HEADER
9
$ACADVER
1
AC1009
0
ENDSEC
0
SECTION
2
TABLES
0
TABLE
2
LAYER
70
1
0
LAYER
2
50_150000
70
0
62
7
6
CONTINUOUS
0
ENDTAB
0
ENDSEC
0
SECTION
2
BLOCKS
0
ENDSEC
0
SECTION
2
ENTITIES
0
POLYLINE
8
50_150000
62
5
0
VERTEX
8
50_150000
10
-56.17000
20
80.53300
30
150.00000
0
VERTEX
8
50_150000
10
-56.17000
20
-53.36700
30
150.00000
0
VERTEX
8
50_150000
10
-41.47200
20
-53.38600
30
150.00000
0
VERTEX
8
50_150000
10
-27.00800
20
-53.29900
30
150.00000
0
VERTEX
8
50_150000
10
2.02600
20
-53.29900
30
150.00000
0
VERTEX
8
50_150000
10
1.90900
20
-53.12600
30
150.00000
0
VERTEX
8
50_150000
10
1.67700
20
-52.74600
30
150.00000
0
VERTEX
8
50_150000
10
1.28800
20
-52.06800
30
150.00000
0
VERTEX
8
50_150000
10
1.08500
20
-51.75200
30
150.00000
0
VERTEX
8
50_150000
10
0.92100
20
-51.44300
30
150.00000
0
VERTEX
8
50_150000
10
0.09500
20
-50.02100
30
150.00000
0
VERTEX
8
50_150000
10
-0.55300
20
-48.76600
30
150.00000
0
VERTEX
8
50_150000
10
-0.67500
20
-48.51000
30
150.00000
0
VERTEX
8
50_150000
10
-0.94200
20
-48.02800
30
150.00000
0
VERTEX
8
50_150000
10
-1.26700
20
-47.35800
30
150.00000
0
VERTEX
8
50_150000
10
-1.50700
20
-46.78000
30
150.00000
0
VERTEX
8
50_150000
10
-1.59100
20
-46.49700
30
150.00000
0
VERTEX
8
50_150000
10
-1.70500
20
-46.22300
30
150.00000
0
VERTEX
8
50_150000
10
-1.79000
20
-45.93800
30
150.00000
0
VERTEX
8
50_150000
10
-1.88300
20
-45.70300
30
150.00000
0
VERTEX
8
50_150000
10
-1.95500
20
-45.44200
30
150.00000
0
VERTEX
8
50_150000
10
-2.14600
20
-44.93200
30
150.00000
0
VERTEX
8
50_150000
10
-2.28200
20
-44.49700
30
150.00000
0
VERTEX
8
50_150000
10
-2.59400
20
-43.38000
30
150.00000
0
VERTEX
8
50_150000
10
-2.63400
20
-43.19400
30
150.00000
0
VERTEX
8
50_150000
10
-2.69300
20
-43.00100
30
150.00000
0
VERTEX
8
50_150000
10
-2.85200
20
-42.28400
30
150.00000
0
VERTEX
8
50_150000
10
-3.01000
20
-41.48100
30
150.00000
0
VERTEX
8
50_150000
10
-3.05400
20
-41.30800
30
150.00000
0
VERTEX
8
50_150000
10
-3.19000
20
-40.66600
30
150.00000
0
VERTEX
8
50_150000
10
-3.20400
20
-40.56700
30
150.00000
0
VERTEX
8
50_150000
10
-3.23000
20
-40.47700
30
150.00000
0
VERTEX
8
50_150000
10
-3.25400
20
-40.29500
30
150.00000
0
VERTEX
8
50_150000
10
-3.55200
20
-38.72500
30
150.00000
0
VERTEX
8
50_150000
10
-3.61500
20
-38.12200
30
150.00000
0
VERTEX
8
50_150000
10
-3.62700
20
-37.82200
30
150.00000
0
VERTEX
8
50_150000
10
-3.77600
20
-36.64700
30
150.00000
0
VERTEX
8
50_150000
10
-3.81200
20
-36.12600
30
150.00000
0
VERTEX
8
50_150000
10
-3.85800
20
-35.84300
30
150.00000
0
VERTEX
8
50_150000
10
-3.86200
20
-35.67600
30
150.00000
0
VERTEX
8
50_150000
10
-3.89100
20
-35.48300
30
150.00000
0
VERTEX
8
50_150000
10
-3.99300
20
-33.93600
30
150.00000
0
VERTEX
8
50_150000
10
-3.99100
20
-33.75400
30
150.00000
0
VERTEX
8
50_150000
10
-4.10600
20
-32.73300
30
150.00000
0
VERTEX
8
50_150000
10
-4.09700
20
-32.40800
30
150.00000
0
VERTEX
8
50_150000
10
-4.06200
20
-32.27200
30
150.00000
0
VERTEX
8
50_150000
10
-4.09300
20
-31.87700
30
150.00000
0
VERTEX
8
50_150000
10
-4.04700
20
-31.40100
30
150.00000
0
VERTEX
8
50_150000
10
-3.99800
20
-31.25000
30
150.00000
0
VERTEX
8
50_150000
10
-3.98100
20
-31.14400
30
150.00000
0
VERTEX
8
50_150000
10
-3.99800
20
-30.98500
30
150.00000
0
VERTEX
8
50_150000
10
-3.90700
20
-30.47600
30
150.00000
0
VERTEX
8
50_150000
10
-3.89900
20
-30.05700
30
150.00000
0
VERTEX
8
50_150000
10
-3.92700
20
-29.83200
30
150.00000
0
VERTEX
8
50_150000
10
-3.91700
20
-29.64900
30
150.00000
0
VERTEX
8
50_150000
10
-3.94000
20
-29.32800
30
150.00000
0
VERTEX
8
50_150000
10
-3.93000
20
-29.16700
30
150.00000
0
VERTEX
8
50_150000
10
-3.97500
20
-28.84000
30
150.00000
0
VERTEX
8
50_150000
10
-3.91000
20
-27.54700
30
150.00000
0
VERTEX
8
50_150000
10
-3.91300
20
-27.40700
30
150.00000
0
VERTEX
8
50_150000
10
-3.89500
20
-27.26500
30
150.00000
0
VERTEX
8
50_150000
10
-3.88700
20
-26.98200
30
150.00000
0
VERTEX
8
50_150000
10
-3.73800
20
-25.47500
30
150.00000
0
VERTEX
8
50_150000
10
-3.72900
20
-25.28300
30
150.00000
0
VERTEX
8
50_150000
10
-3.64300
20
-24.69200
30
150.00000
0
VERTEX
8
50_150000
10
-3.64300
20
-24.49300
30
150.00000
0
VERTEX
8
50_150000
10
-3.57000
20
-23.47500
30
150.00000
0
VERTEX
8
50_150000
10
-3.58000
20
-23.33100
30
150.00000
0
VERTEX
8
50_150000
10
-3.52600
20
-21.93600
30
150.00000
0
VERTEX
8
50_150000
10
-3.44000
20
-21.06300
30
150.00000
0
VERTEX
8
50_150000
10
-3.49100
20
-20.60100
30
150.00000
0
VERTEX
8
50_150000
10
-3.62100
20
-20.04700
30
150.00000
0
VERTEX
8
50_150000
10
-3.61200
20
-19.88300
30
150.00000
0
VERTEX
8
50_150000
10
-3.70700
20
-19.54600
30
150.00000
0
VERTEX
8
50_150000
10
-3.57700
20
-17.77000
30
150.00000
0
VERTEX
8
50_150000
10
-3.62600
20
-17.41900
30
150.00000
0
VERTEX
8
50_150000
10
-3.57100
20
-17.25900
30
150.00000
0
VERTEX
8
50_150000
10
-3.59000
20
-17.18700
30
150.00000
0
VERTEX
8
50_150000
10
-3.49300
20
-16.81000
30
150.00000
0
VERTEX
8
50_150000
10
-3.62800
20
-16.10600
30
150.00000
0
VERTEX
8
50_150000
10
-3.57600
20
-15.10000
30
150.00000
0
VERTEX
8
50_150000
10
-3.57200
20
-14.58300
30
150.00000
0
VERTEX
8
50_150000
10
-3.52300
20
-14.26700
30
150.00000
0
VERTEX
8
50_150000
10
-3.53000
20
-14.18800
30
150.00000
0
VERTEX
8
50_150000
10
-3.48700
20
-12.96800
30
150.00000
0
VERTEX
8
50_150000
10
-3.49300
20
-12.81200
30
150.00000
0
VERTEX
8
50_150000
10
-3.46100
20
-12.65300
30
150.00000
0
VERTEX
8
50_150000
10
-3.50100
20
-12.27500
30
150.00000
0
VERTEX
8
50_150000
10
-3.51000
20
-12.12000
30
150.00000
0
VERTEX
8
50_150000
10
-3.54900
20
-11.96600
30
150.00000
0
VERTEX
8
50_150000
10
-3.52900
20
-11.64500
30
150.00000
0
VERTEX
8
50_150000
10
-3.35600
20
-11.01200
30
150.00000
0
VERTEX
8
50_150000
10
-3.33300
20
-10.86200
30
150.00000
0
VERTEX
8
50_150000
10
-3.35400
20
-10.65500
30
150.00000
0
VERTEX
8
50_150000
10
-3.38000
20
-10.12500
30
150.00000
0
VERTEX
8
50_150000
10
-3.34700
20
-9.94200
30
150.00000
0
VERTEX
8
50_150000
10
-3.19700
20
-9.35300
30
150.00000
0
VERTEX
8
50_150000
10
-3.17300
20
-8.68600
30
150.00000
0
VERTEX
8
50_150000
10
-3.15600
20
-8.58800
30
150.00000
0
VERTEX
8
50_150000
10
-3.14100
20
-8.39100
30
150.00000
0
VERTEX
8
50_150000
10
-3.16200
20
-8.14500
30
150.00000
0
VERTEX
8
50_150000
10
-3.12000
20
-7.40800
30
150.00000
0
VERTEX
8
50_150000
10
-3.08800
20
-6.99700
30
150.00000
0
VERTEX
8
50_150000
10
-2.97300
20
-5.89200
30
150.00000
0
VERTEX
8
50_150000
10
-3.01300
20
-4.89000
30
150.00000
0
VERTEX
8
50_150000
10
-3.07500
20
-4.71800
30
150.00000
0
VERTEX
8
50_150000
10
-3.11000
20
-4.54200
30
150.00000
0
VERTEX
8
50_150000
10
-3.12500
20
-4.37200
30
150.00000
0
VERTEX
8
50_150000
10
-3.30100
20
-3.71800
30
150.00000
0
VERTEX
8
50_150000
10
-3.45100
20
-2.91400
30
150.00000
0
VERTEX
8
50_150000
10
-3.57500
20
-2.01900
30
150.00000
0
VERTEX
8
50_150000
10
-3.58600
20
-1.76700
30
150.00000
0
VERTEX
8
50_150000
10
-3.64300
20
-1.63000
30
150.00000
0
VERTEX
8
50_150000
10
-3.68100
20
-1.31400
30
150.00000
0
VERTEX
8
50_150000
10
-3.99900
20
-0.38600
30
150.00000
0
VERTEX
8
50_150000
10
-4.06900
20
-0.04900
30
150.00000
0
VERTEX
8
50_150000
10
-4.41800
20
0.69200
30
150.00000
0
VERTEX
8
50_150000
10
-4.63300
20
0.98200
30
150.00000
0
VERTEX
8
50_150000
10
-4.99000
20
2.91800
30
150.00000
0
VERTEX
8
50_150000
10
-5.10400
20
4.47400
30
150.00000
0
VERTEX
8
50_150000
10
-5.10100
20
4.84500
30
150.00000
0
VERTEX
8
50_150000
10
-5.25600
20
5.25400
30
150.00000
0
VERTEX
8
50_150000
10
-5.47600
20
5.98500
30
150.00000
0
VERTEX
8
50_150000
10
-5.57600
20
6.27400
30
150.00000
0
VERTEX
8
50_150000
10
-5.57800
20
6.37100
30
150.00000
0
VERTEX
8
50_150000
10
-5.80600
20
7.40100
30
150.00000
0
VERTEX
8
50_150000
10
-5.91800
20
7.98700
30
150.00000
0
VERTEX
8
50_150000
10
-6.15800
20
8.74500
30
150.00000
0
VERTEX
8
50_150000
10
-6.24500
20
9.14100
30
150.00000
0
VERTEX
8
50_150000
10
-6.44200
20
9.55800
30
150.00000
0
VERTEX
8
50_150000
10
-6.74800
20
10.31300
30
150.00000
0
VERTEX
8
50_150000
10
-7.27200
20
11.82500
30
150.00000
0
VERTEX
8
50_150000
10
-7.37900
20
12.57300
30
150.00000
0
VERTEX
8
50_150000
10
-7.48800
20
12.82400
30
150.00000
0
VERTEX
8
50_150000
10
-7.58500
20
13.07600
30
150.00000
0
VERTEX
8
50_150000
10
-7.61000
20
13.30000
30
150.00000
0
VERTEX
8
50_150000
10
-7.66400
20
13.41600
30
150.00000
0
VERTEX
8
50_150000
10
-8.43800
20
14.53500
30
150.00000
0
VERTEX
8
50_150000
10
-8.53400
20
14.66100
30
150.00000
0
VERTEX
8
50_150000
10
-8.82600
20
14.98100
30
150.00000
0
VERTEX
8
50_150000
10
-8.97200
20
15.28100
30
150.00000
0
VERTEX
8
50_150000
10
-9.57200
20
16.32800
30
150.00000
0
VERTEX
8
50_150000
10
-9.88500
20
16.67700
30
150.00000
0
VERTEX
8
50_150000
10
-10.24700
20
17.18900
30
150.00000
0
VERTEX
8
50_150000
10
-11.07300
20
18.13600
30
150.00000
0
VERTEX
8
50_150000
10
-11.63200
20
18.91400
30
150.00000
0
VERTEX
8
50_150000
10
-11.69600
20
18.99000
30
150.00000
0
VERTEX
8
50_150000
10
-12.24100
20
19.72000
30
150.00000
0
VERTEX
8
50_150000
10
-12.83200
20
20.42800
30
150.00000
0
VERTEX
8
50_150000
10
-13.64600
20
21.23100
30
150.00000
0
VERTEX
8
50_150000
10
-14.23800
20
21.79700
30
150.00000
0
VERTEX
8
50_150000
10
-14.29900
20
21.91300
30
150.00000
0
VERTEX
8
50_150000
10
-15.00500
20
22.65800
30
150.00000
0
VERTEX
8
50_150000
10
-15.72700
20
23.60200
30
150.00000
0
VERTEX
8
50_150000
10
-16.03000
20
23.98200
30
150.00000
0
VERTEX
8
50_150000
10
-16.17100
20
24.28800
30
150.00000
0
VERTEX
8
50_150000
10
-16.79100
20
25.11600
30
150.00000
0
VERTEX
8
50_150000
10
-17.43000
20
26.16100
30
150.00000
0
VERTEX
8
50_150000
10
-18.21100
20
27.35100
30
150.00000
0
VERTEX
8
50_150000
10
-18.27600
20
27.47800
30
150.00000
0
VERTEX
8
50_150000
10
-18.79700
20
28.03600
30
150.00000
0
VERTEX
8
50_150000
10
-19.07100
20
28.28400
30
150.00000
0
VERTEX
8
50_150000
10
-19.21900
20
28.50600
30
150.00000
0
VERTEX
8
50_150000
10
-19.40200
20
28.80900
30
150.00000
0
VERTEX
8
50_150000
10
-19.47300
20
28.94300
30
150.00000
0
VERTEX
8
50_150000
10
-20.28900
20
30.21400
30
150.00000
0
VERTEX
8
50_150000
10
-20.80000
20
31.13500
30
150.00000
0
VERTEX
8
50_150000
10
-21.62100
20
32.52400
30
150.00000
0
VERTEX
8
50_150000
10
-21.78800
20
32.86300
30
150.00000
0
VERTEX
8
50_150000
10
-21.92100
20
33.22100
30
150.00000
0
VERTEX
8
50_150000
10
-22.24900
20
33.69200
30
150.00000
0
VERTEX
8
50_150000
10
-22.56000
20
34.11200
30
150.00000
0
VERTEX
8
50_150000
10
-23.05200
20
34.59000
30
150.00000
0
VERTEX
8
50_150000
10
-23.42300
20
35.38800
30
150.00000
0
VERTEX
8
50_150000
10
-23.61500
20
35.67700
30
150.00000
0
VERTEX
8
50_150000
10
-24.35000
20
37.18300
30
150.00000
0
VERTEX
8
50_150000
10
-25.59800
20
39.57900
30
150.00000
0
VERTEX
8
50_150000
10
-25.83100
20
40.00100
30
150.00000
0
VERTEX
8
50_150000
10
-26.27400
20
41.04600
30
150.00000
0
VERTEX
8
50_150000
10
-26.55200
20
41.65200
30
150.00000
0
VERTEX
8
50_150000
10
-26.68000
20
41.97000
30
150.00000
0
VERTEX
8
50_150000
10
-26.87800
20
42.66300
30
150.00000
0
VERTEX
8
50_150000
10
-27.10200
20
43.17100
30
150.00000
0
VERTEX
8
50_150000
10
-27.93400
20
44.75300
30
150.00000
0
VERTEX
8
50_150000
10
-28.31100
20
45.44700
30
150.00000
0
VERTEX
8
50_150000
10
-28.71300
20
46.50000
30
150.00000
0
VERTEX
8
50_150000
10
-29.06800
20
47.28900
30
150.00000
0
VERTEX
8
50_150000
10
-29.33400
20
48.17900
30
150.00000
0
VERTEX
8
50_150000
10
-29.86700
20
50.41100
30
150.00000
0
VERTEX
8
50_150000
10
-29.87400
20
50.47000
30
150.00000
0
VERTEX
8
50_150000
10
-30.43500
20
51.99500
30
150.00000
0
VERTEX
8
50_150000
10
-30.45100
20
52.19500
30
150.00000
0
VERTEX
8
50_150000
10
-30.57700
20
52.57600
30
150.00000
0
VERTEX
8
50_150000
10
-30.62500
20
53.07700
30
150.00000
0
VERTEX
8
50_150000
10
-30.80600
20
53.48900
30
150.00000
0
VERTEX
8
50_150000
10
-30.74700
20
54.15300
30
150.00000
0
VERTEX
8
50_150000
10
-30.91200
20
54.91200
30
150.00000
0
VERTEX
8
50_150000
10
-30.91500
20
55.18700
30
150.00000
0
VERTEX
8
50_150000
10
-30.81200
20
56.03800
30
150.00000
0
VERTEX
8
50_150000
10
-30.50700
20
57.83400
30
150.00000
0
VERTEX
8
50_150000
10
-30.14100
20
58.61300
30
150.00000
0
VERTEX
8
50_150000
10
-30.18200
20
59.04300
30
150.00000
0
VERTEX
8
50_150000
10
-30.25500
20
59.49400
30
150.00000
0
VERTEX
8
50_150000
10
-30.19700
20
60.07800
30
150.00000
0
VERTEX
8
50_150000
10
-30.17300
20
60.20000
30
150.00000
0
VERTEX
8
50_150000
10
-29.92400
20
61.17600
30
150.00000
0
VERTEX
8
50_150000
10
-29.72400
20
61.53500
30
150.00000
0
VERTEX
8
50_150000
10
-29.57400
20
61.78100
30
150.00000
0
VERTEX
8
50_150000
10
-29.06400
20
62.41100
30
150.00000
0
VERTEX
8
50_150000
10
-28.45600
20
63.04000
30
150.00000
0
VERTEX
8
50_150000
10
-28.10700
20
63.34200
30
150.00000
0
VERTEX
8
50_150000
10
-26.81500
20
64.28700
30
150.00000
0
VERTEX
8
50_150000
10
-25.77400
20
65.00000
30
150.00000
0
VERTEX
8
50_150000
10
-24.02000
20
66.10101
30
150.00000
0
VERTEX
8
50_150000
10
-23.72500
20
66.27901
30
150.00000
0
VERTEX
8
50_150000
10
-23.43900
20
66.53900
30
150.00000
0
VERTEX
8
50_150000
10
-22.64700
20
67.06700
30
150.00000
0
VERTEX
8
50_150000
10
-21.40500
20
67.73000
30
150.00000
0
VERTEX
8
50_150000
10
-20.50800
20
68.35201
30
150.00000
0
VERTEX
8
50_150000
10
-20.07000
20
68.58501
30
150.00000
0
VERTEX
8
50_150000
10
-19.29600
20
69.11900
30
150.00000
0
VERTEX
8
50_150000
10
-19.07900
20
69.24300
30
150.00000
0
VERTEX
8
50_150000
10
-18.65700
20
69.54000
30
150.00000
0
VERTEX
8
50_150000
10
-16.90000
20
70.74500
30
150.00000
0
VERTEX
8
50_150000
10
-16.26500
20
71.29200
30
150.00000
0
VERTEX
8
50_150000
10
-15.88900
20
71.59200
30
150.00000
0
VERTEX
8
50_150000
10
-14.87700
20
72.43900
30
150.00000
0
VERTEX
8
50_150000
10
-12.41000
20
74.79700
30
150.00000
0
VERTEX
8
50_150000
10
-11.19100
20
76.08300
30
150.00000
0
VERTEX
8
50_150000
10
-10.91900
20
76.39001
30
150.00000
0
VERTEX
8
50_150000
10
-10.28900
20
77.19501
30
150.00000
0
VERTEX
8
50_150000
10
-10.18900
20
77.30701
30
150.00000
0
VERTEX
8
50_150000
10
-9.96400
20
77.59100
30
150.00000
0
VERTEX
8
50_150000
10
-9.37200
20
78.26900
30
150.00000
0
VERTEX
8
50_150000
10
-9.03400
20
78.71201
30
150.00000
0
VERTEX
8
50_150000
10
-8.84100
20
79.00201
30
150.00000
0
VERTEX
8
50_150000
10
-8.83000
20
79.02901
30
150.00000
0
VERTEX
8
50_150000
10
-8.40500
20
79.59500
30
150.00000
0
VERTEX
8
50_150000
10
-8.22000
20
79.90800
30
150.00000
0
VERTEX
8
50_150000
10
-8.15400
20
79.99900
30
150.00000
0
VERTEX
8
50_150000
10
-7.89700
20
80.53300
30
150.00000
0
VERTEX
8
50_150000
10
-7.68700
20
81.07900
30
150.00000
0
VERTEX
8
50_150000
10
-56.17000
20
81.07900
30
150.00000
0
VERTEX
8
50_150000
10
-56.17000
20
80.53300
30
150.00000
0
SEQEND
8
50_150000
0
ENDSEC
0
EOF
