0
SECTION
2
HEADER
9
$ACADVER
1
AC1009
0
ENDSEC
0
SECTION
2
TABLES
0
TABLE
2
LAYER
70
1
0
LAYER
2
13_39000
70
0
62
7
6
CONTINUOUS
0
ENDTAB
0
ENDSEC
0
SECTION
2
BLOCKS
0
ENDSEC
0
SECTION
2
ENTITIES
0
POLYLINE
8
13_39000
62
5
0
VERTEX
8
13_39000
10
-41.06700
20
91.44501
30
39.00000
0
VERTEX
8
13_39000
10
2.20300
20
91.44501
30
39.00000
0
VERTEX
8
13_39000
10
2.05200
20
91.47000
30
39.00000
0
VERTEX
8
13_39000
10
-56.17000
20
91.47000
30
39.00000
0
VERTEX
8
13_39000
10
-56.17000
20
91.44501
30
39.00000
0
VERTEX
8
13_39000
10
-41.06700
20
91.44501
30
39.00000
0
SEQEND
8
13_39000
0
POLYLINE
8
13_39000
62
5
0
VERTEX
8
13_39000
10
-40.83400
20
91.40900
30
39.00000
0
VERTEX
8
13_39000
10
2.40800
20
91.40900
30
39.00000
0
VERTEX
8
13_39000
10
2.21600
20
91.44300
30
39.00000
0
VERTEX
8
13_39000
10
-56.17000
20
91.44300
30
39.00000
0
VERTEX
8
13_39000
10
-56.17000
20
91.40900
30
39.00000
0
VERTEX
8
13_39000
10
-40.83400
20
91.40900
30
39.00000
0
SEQEND
8
13_39000
0
POLYLINE
8
13_39000
62
5
0
VERTEX
8
13_39000
10
-40.37300
20
91.31100
30
39.00000
0
VERTEX
8
13_39000
10
3.00200
20
91.31100
30
39.00000
0
VERTEX
8
13_39000
10
2.41600
20
91.40900
30
39.00000
0
VERTEX
8
13_39000
10
-56.17000
20
91.40900
30
39.00000
0
VERTEX
8
13_39000
10
-56.17000
20
91.31100
30
39.00000
0
VERTEX
8
13_39000
10
-40.37300
20
91.31100
30
39.00000
0
SEQEND
8
13_39000
0
POLYLINE
8
13_39000
62
5
0
VERTEX
8
13_39000
10
7.65100
20
-92.11401
30
39.00000
0
VERTEX
8
13_39000
10
7.61700
20
-92.03500
30
39.00000
0
VERTEX
8
13_39000
10
7.56900
20
-91.79301
30
39.00000
0
VERTEX
8
13_39000
10
7.50600
20
-91.57201
30
39.00000
0
VERTEX
8
13_39000
10
7.01500
20
-89.36301
30
39.00000
0
VERTEX
8
13_39000
10
6.76200
20
-88.43001
30
39.00000
0
VERTEX
8
13_39000
10
6.55000
20
-86.96900
30
39.00000
0
VERTEX
8
13_39000
10
6.44300
20
-86.41000
30
39.00000
0
VERTEX
8
13_39000
10
6.45500
20
-86.33501
30
39.00000
0
VERTEX
8
13_39000
10
6.63000
20
-86.06200
30
39.00000
0
VERTEX
8
13_39000
10
6.76000
20
-85.87701
30
39.00000
0
VERTEX
8
13_39000
10
9.72300
20
-82.71001
30
39.00000
0
VERTEX
8
13_39000
10
13.13000
20
-78.94300
30
39.00000
0
VERTEX
8
13_39000
10
14.15700
20
-77.53900
30
39.00000
0
VERTEX
8
13_39000
10
14.49600
20
-76.78101
30
39.00000
0
VERTEX
8
13_39000
10
14.54400
20
-76.63000
30
39.00000
0
VERTEX
8
13_39000
10
14.62600
20
-76.42101
30
39.00000
0
VERTEX
8
13_39000
10
14.71300
20
-76.27600
30
39.00000
0
VERTEX
8
13_39000
10
14.88300
20
-75.67600
30
39.00000
0
VERTEX
8
13_39000
10
14.87600
20
-75.31300
30
39.00000
0
VERTEX
8
13_39000
10
14.95800
20
-74.84901
30
39.00000
0
VERTEX
8
13_39000
10
14.98700
20
-74.75500
30
39.00000
0
VERTEX
8
13_39000
10
15.00000
20
-74.65401
30
39.00000
0
VERTEX
8
13_39000
10
15.05900
20
-74.44100
30
39.00000
0
VERTEX
8
13_39000
10
15.04500
20
-74.18100
30
39.00000
0
VERTEX
8
13_39000
10
15.11700
20
-73.64500
30
39.00000
0
VERTEX
8
13_39000
10
15.18300
20
-73.39101
30
39.00000
0
VERTEX
8
13_39000
10
15.16900
20
-72.99800
30
39.00000
0
VERTEX
8
13_39000
10
15.21000
20
-72.45500
30
39.00000
0
VERTEX
8
13_39000
10
15.14700
20
-72.22301
30
39.00000
0
VERTEX
8
13_39000
10
15.09500
20
-71.74200
30
39.00000
0
VERTEX
8
13_39000
10
15.06500
20
-71.23901
30
39.00000
0
VERTEX
8
13_39000
10
15.12900
20
-70.52200
30
39.00000
0
VERTEX
8
13_39000
10
15.29100
20
-69.88400
30
39.00000
0
VERTEX
8
13_39000
10
15.37600
20
-68.86100
30
39.00000
0
VERTEX
8
13_39000
10
15.50700
20
-68.34901
30
39.00000
0
VERTEX
8
13_39000
10
15.66300
20
-67.99100
30
39.00000
0
VERTEX
8
13_39000
10
15.73600
20
-67.45600
30
39.00000
0
VERTEX
8
13_39000
10
15.89400
20
-66.99600
30
39.00000
0
VERTEX
8
13_39000
10
15.88800
20
-66.84300
30
39.00000
0
VERTEX
8
13_39000
10
15.99200
20
-66.38000
30
39.00000
0
VERTEX
8
13_39000
10
16.00500
20
-66.09400
30
39.00000
0
VERTEX
8
13_39000
10
16.24800
20
-65.28800
30
39.00000
0
VERTEX
8
13_39000
10
16.27100
20
-65.09100
30
39.00000
0
VERTEX
8
13_39000
10
16.21300
20
-64.41901
30
39.00000
0
VERTEX
8
13_39000
10
16.21900
20
-64.36301
30
39.00000
0
VERTEX
8
13_39000
10
16.15800
20
-64.03600
30
39.00000
0
VERTEX
8
13_39000
10
16.17100
20
-63.98300
30
39.00000
0
VERTEX
8
13_39000
10
16.12900
20
-63.28500
30
39.00000
0
VERTEX
8
13_39000
10
16.15300
20
-63.04600
30
39.00000
0
VERTEX
8
13_39000
10
16.35200
20
-61.94700
30
39.00000
0
VERTEX
8
13_39000
10
16.58100
20
-60.86600
30
39.00000
0
VERTEX
8
13_39000
10
16.89100
20
-59.60800
30
39.00000
0
VERTEX
8
13_39000
10
17.43500
20
-58.32700
30
39.00000
0
VERTEX
8
13_39000
10
17.55800
20
-57.88700
30
39.00000
0
VERTEX
8
13_39000
10
17.50600
20
-57.75400
30
39.00000
0
VERTEX
8
13_39000
10
17.51900
20
-57.57700
30
39.00000
0
VERTEX
8
13_39000
10
17.86900
20
-56.55100
30
39.00000
0
VERTEX
8
13_39000
10
17.99200
20
-56.07200
30
39.00000
0
VERTEX
8
13_39000
10
18.08100
20
-55.38200
30
39.00000
0
VERTEX
8
13_39000
10
18.30200
20
-54.88600
30
39.00000
0
VERTEX
8
13_39000
10
18.44500
20
-54.25800
30
39.00000
0
VERTEX
8
13_39000
10
18.59800
20
-52.65400
30
39.00000
0
VERTEX
8
13_39000
10
18.62600
20
-52.55200
30
39.00000
0
VERTEX
8
13_39000
10
18.73800
20
-51.16800
30
39.00000
0
VERTEX
8
13_39000
10
18.75100
20
-51.08700
30
39.00000
0
VERTEX
8
13_39000
10
18.81100
20
-50.87600
30
39.00000
0
VERTEX
8
13_39000
10
18.84000
20
-50.25900
30
39.00000
0
VERTEX
8
13_39000
10
19.04300
20
-49.44900
30
39.00000
0
VERTEX
8
13_39000
10
19.12700
20
-48.85100
30
39.00000
0
VERTEX
8
13_39000
10
19.17800
20
-48.34200
30
39.00000
0
VERTEX
8
13_39000
10
19.15800
20
-48.09400
30
39.00000
0
VERTEX
8
13_39000
10
19.18500
20
-47.86700
30
39.00000
0
VERTEX
8
13_39000
10
19.32700
20
-47.32400
30
39.00000
0
VERTEX
8
13_39000
10
19.33600
20
-47.14200
30
39.00000
0
VERTEX
8
13_39000
10
19.36600
20
-46.95800
30
39.00000
0
VERTEX
8
13_39000
10
19.82600
20
-45.75500
30
39.00000
0
VERTEX
8
13_39000
10
20.12400
20
-45.08900
30
39.00000
0
VERTEX
8
13_39000
10
20.28200
20
-44.62500
30
39.00000
0
VERTEX
8
13_39000
10
20.57200
20
-43.82500
30
39.00000
0
VERTEX
8
13_39000
10
20.56800
20
-43.65900
30
39.00000
0
VERTEX
8
13_39000
10
20.63600
20
-43.49400
30
39.00000
0
VERTEX
8
13_39000
10
20.69700
20
-42.98700
30
39.00000
0
VERTEX
8
13_39000
10
20.89900
20
-42.22900
30
39.00000
0
VERTEX
8
13_39000
10
20.90200
20
-42.14500
30
39.00000
0
VERTEX
8
13_39000
10
20.98000
20
-41.78800
30
39.00000
0
VERTEX
8
13_39000
10
21.00800
20
-40.94000
30
39.00000
0
VERTEX
8
13_39000
10
21.11500
20
-40.35300
30
39.00000
0
VERTEX
8
13_39000
10
21.17500
20
-39.88500
30
39.00000
0
VERTEX
8
13_39000
10
21.17900
20
-39.41500
30
39.00000
0
VERTEX
8
13_39000
10
21.21800
20
-39.10200
30
39.00000
0
VERTEX
8
13_39000
10
21.29900
20
-38.60600
30
39.00000
0
VERTEX
8
13_39000
10
21.31500
20
-38.20300
30
39.00000
0
VERTEX
8
13_39000
10
21.35000
20
-37.96900
30
39.00000
0
VERTEX
8
13_39000
10
21.49700
20
-37.21600
30
39.00000
0
VERTEX
8
13_39000
10
21.58400
20
-36.12200
30
39.00000
0
VERTEX
8
13_39000
10
21.54300
20
-35.77200
30
39.00000
0
VERTEX
8
13_39000
10
21.52900
20
-35.70800
30
39.00000
0
VERTEX
8
13_39000
10
21.47200
20
-34.76000
30
39.00000
0
VERTEX
8
13_39000
10
21.48400
20
-33.38700
30
39.00000
0
VERTEX
8
13_39000
10
21.58300
20
-32.78100
30
39.00000
0
VERTEX
8
13_39000
10
21.74300
20
-32.13400
30
39.00000
0
VERTEX
8
13_39000
10
21.85500
20
-31.40300
30
39.00000
0
VERTEX
8
13_39000
10
21.93600
20
-30.67400
30
39.00000
0
VERTEX
8
13_39000
10
21.87500
20
-30.30300
30
39.00000
0
VERTEX
8
13_39000
10
21.69000
20
-29.37600
30
39.00000
0
VERTEX
8
13_39000
10
21.54000
20
-28.68900
30
39.00000
0
VERTEX
8
13_39000
10
21.48600
20
-28.18100
30
39.00000
0
VERTEX
8
13_39000
10
21.48000
20
-27.93600
30
39.00000
0
VERTEX
8
13_39000
10
21.50000
20
-27.28200
30
39.00000
0
VERTEX
8
13_39000
10
21.57200
20
-26.82000
30
39.00000
0
VERTEX
8
13_39000
10
21.62400
20
-26.36400
30
39.00000
0
VERTEX
8
13_39000
10
21.80100
20
-25.23900
30
39.00000
0
VERTEX
8
13_39000
10
22.01500
20
-24.49200
30
39.00000
0
VERTEX
8
13_39000
10
22.09700
20
-24.01100
30
39.00000
0
VERTEX
8
13_39000
10
22.14100
20
-23.80300
30
39.00000
0
VERTEX
8
13_39000
10
22.40900
20
-22.81400
30
39.00000
0
VERTEX
8
13_39000
10
22.54400
20
-22.49300
30
39.00000
0
VERTEX
8
13_39000
10
22.69800
20
-21.97600
30
39.00000
0
VERTEX
8
13_39000
10
22.80200
20
-21.47300
30
39.00000
0
VERTEX
8
13_39000
10
23.16700
20
-20.04900
30
39.00000
0
VERTEX
8
13_39000
10
23.37900
20
-18.93600
30
39.00000
0
VERTEX
8
13_39000
10
23.66300
20
-17.96200
30
39.00000
0
VERTEX
8
13_39000
10
24.04800
20
-16.54100
30
39.00000
0
VERTEX
8
13_39000
10
24.20000
20
-15.01900
30
39.00000
0
VERTEX
8
13_39000
10
24.30500
20
-14.39900
30
39.00000
0
VERTEX
8
13_39000
10
24.49600
20
-13.17600
30
39.00000
0
VERTEX
8
13_39000
10
24.61300
20
-12.84600
30
39.00000
0
VERTEX
8
13_39000
10
24.68100
20
-12.41900
30
39.00000
0
VERTEX
8
13_39000
10
25.05000
20
-11.14600
30
39.00000
0
VERTEX
8
13_39000
10
25.27000
20
-10.25700
30
39.00000
0
VERTEX
8
13_39000
10
25.98600
20
-7.75300
30
39.00000
0
VERTEX
8
13_39000
10
26.38500
20
-6.27700
30
39.00000
0
VERTEX
8
13_39000
10
26.93200
20
-4.50500
30
39.00000
0
VERTEX
8
13_39000
10
27.05800
20
-4.06500
30
39.00000
0
VERTEX
8
13_39000
10
27.11100
20
-3.83300
30
39.00000
0
VERTEX
8
13_39000
10
27.18600
20
-3.58800
30
39.00000
0
VERTEX
8
13_39000
10
27.43800
20
-2.66800
30
39.00000
0
VERTEX
8
13_39000
10
27.88200
20
-0.95900
30
39.00000
0
VERTEX
8
13_39000
10
28.26900
20
0.40700
30
39.00000
0
VERTEX
8
13_39000
10
28.40500
20
0.93800
30
39.00000
0
VERTEX
8
13_39000
10
28.81500
20
2.45900
30
39.00000
0
VERTEX
8
13_39000
10
29.28400
20
4.42100
30
39.00000
0
VERTEX
8
13_39000
10
29.79700
20
6.61800
30
39.00000
0
VERTEX
8
13_39000
10
29.86600
20
7.03300
30
39.00000
0
VERTEX
8
13_39000
10
30.02800
20
8.32700
30
39.00000
0
VERTEX
8
13_39000
10
30.17400
20
9.16900
30
39.00000
0
VERTEX
8
13_39000
10
30.32400
20
10.91100
30
39.00000
0
VERTEX
8
13_39000
10
30.34900
20
12.17700
30
39.00000
0
VERTEX
8
13_39000
10
30.31600
20
13.14100
30
39.00000
0
VERTEX
8
13_39000
10
30.31600
20
14.03300
30
39.00000
0
VERTEX
8
13_39000
10
30.28300
20
15.28500
30
39.00000
0
VERTEX
8
13_39000
10
29.85800
20
18.26700
30
39.00000
0
VERTEX
8
13_39000
10
29.73400
20
18.94200
30
39.00000
0
VERTEX
8
13_39000
10
29.15100
20
21.52400
30
39.00000
0
VERTEX
8
13_39000
10
27.74000
20
26.45200
30
39.00000
0
VERTEX
8
13_39000
10
27.63800
20
26.74700
30
39.00000
0
VERTEX
8
13_39000
10
27.57100
20
26.97100
30
39.00000
0
VERTEX
8
13_39000
10
27.11500
20
28.86400
30
39.00000
0
VERTEX
8
13_39000
10
27.07600
20
29.17600
30
39.00000
0
VERTEX
8
13_39000
10
26.98400
20
30.19500
30
39.00000
0
VERTEX
8
13_39000
10
26.99400
20
30.40500
30
39.00000
0
VERTEX
8
13_39000
10
26.97700
20
31.51500
30
39.00000
0
VERTEX
8
13_39000
10
27.12200
20
33.98500
30
39.00000
0
VERTEX
8
13_39000
10
27.15900
20
34.32100
30
39.00000
0
VERTEX
8
13_39000
10
27.24700
20
34.92100
30
39.00000
0
VERTEX
8
13_39000
10
27.32100
20
35.59800
30
39.00000
0
VERTEX
8
13_39000
10
27.44000
20
36.28700
30
39.00000
0
VERTEX
8
13_39000
10
27.54200
20
36.47600
30
39.00000
0
VERTEX
8
13_39000
10
27.65300
20
36.71800
30
39.00000
0
VERTEX
8
13_39000
10
27.81300
20
36.97400
30
39.00000
0
VERTEX
8
13_39000
10
28.00400
20
37.39900
30
39.00000
0
VERTEX
8
13_39000
10
28.23300
20
37.74300
30
39.00000
0
VERTEX
8
13_39000
10
28.45900
20
38.24200
30
39.00000
0
VERTEX
8
13_39000
10
28.55200
20
38.41500
30
39.00000
0
VERTEX
8
13_39000
10
28.93000
20
39.44400
30
39.00000
0
VERTEX
8
13_39000
10
29.30300
20
41.26600
30
39.00000
0
VERTEX
8
13_39000
10
29.43600
20
42.03500
30
39.00000
0
VERTEX
8
13_39000
10
29.59600
20
42.57300
30
39.00000
0
VERTEX
8
13_39000
10
29.69400
20
42.98700
30
39.00000
0
VERTEX
8
13_39000
10
29.72800
20
43.19500
30
39.00000
0
VERTEX
8
13_39000
10
29.84100
20
44.06000
30
39.00000
0
VERTEX
8
13_39000
10
29.84800
20
44.32000
30
39.00000
0
VERTEX
8
13_39000
10
29.78800
20
44.60500
30
39.00000
0
VERTEX
8
13_39000
10
29.67600
20
45.39800
30
39.00000
0
VERTEX
8
13_39000
10
29.56800
20
45.63000
30
39.00000
0
VERTEX
8
13_39000
10
29.37300
20
46.13900
30
39.00000
0
VERTEX
8
13_39000
10
29.35400
20
46.26000
30
39.00000
0
VERTEX
8
13_39000
10
29.37800
20
46.96300
30
39.00000
0
VERTEX
8
13_39000
10
29.58700
20
47.88900
30
39.00000
0
VERTEX
8
13_39000
10
29.59800
20
48.04500
30
39.00000
0
VERTEX
8
13_39000
10
30.05400
20
49.28200
30
39.00000
0
VERTEX
8
13_39000
10
30.32300
20
50.46600
30
39.00000
0
VERTEX
8
13_39000
10
30.34400
20
50.98000
30
39.00000
0
VERTEX
8
13_39000
10
30.75500
20
51.97300
30
39.00000
0
VERTEX
8
13_39000
10
30.96400
20
52.52800
30
39.00000
0
VERTEX
8
13_39000
10
31.26000
20
53.47500
30
39.00000
0
VERTEX
8
13_39000
10
31.50300
20
53.90300
30
39.00000
0
VERTEX
8
13_39000
10
31.60700
20
54.06800
30
39.00000
0
VERTEX
8
13_39000
10
32.12200
20
54.69600
30
39.00000
0
VERTEX
8
13_39000
10
32.21600
20
54.83000
30
39.00000
0
VERTEX
8
13_39000
10
32.81400
20
55.45400
30
39.00000
0
VERTEX
8
13_39000
10
33.30300
20
55.99200
30
39.00000
0
VERTEX
8
13_39000
10
33.43300
20
56.17100
30
39.00000
0
VERTEX
8
13_39000
10
33.64100
20
56.55500
30
39.00000
0
VERTEX
8
13_39000
10
34.16200
20
57.35400
30
39.00000
0
VERTEX
8
13_39000
10
34.27400
20
57.56200
30
39.00000
0
VERTEX
8
13_39000
10
34.45300
20
57.84400
30
39.00000
0
VERTEX
8
13_39000
10
34.76100
20
58.85100
30
39.00000
0
VERTEX
8
13_39000
10
34.91400
20
60.14200
30
39.00000
0
VERTEX
8
13_39000
10
34.92700
20
60.30200
30
39.00000
0
VERTEX
8
13_39000
10
34.93800
20
62.16900
30
39.00000
0
VERTEX
8
13_39000
10
34.93300
20
62.30300
30
39.00000
0
VERTEX
8
13_39000
10
34.96100
20
63.04600
30
39.00000
0
VERTEX
8
13_39000
10
34.98500
20
64.06200
30
39.00000
0
VERTEX
8
13_39000
10
35.02000
20
64.33601
30
39.00000
0
VERTEX
8
13_39000
10
35.07000
20
65.23400
30
39.00000
0
VERTEX
8
13_39000
10
35.33200
20
66.34300
30
39.00000
0
VERTEX
8
13_39000
10
35.37400
20
66.66100
30
39.00000
0
VERTEX
8
13_39000
10
35.90000
20
68.68900
30
39.00000
0
VERTEX
8
13_39000
10
35.98700
20
69.17800
30
39.00000
0
VERTEX
8
13_39000
10
36.07600
20
70.15701
30
39.00000
0
VERTEX
8
13_39000
10
36.19200
20
70.80901
30
39.00000
0
VERTEX
8
13_39000
10
36.20400
20
71.00900
30
39.00000
0
VERTEX
8
13_39000
10
36.20500
20
71.41901
30
39.00000
0
VERTEX
8
13_39000
10
36.27500
20
72.31100
30
39.00000
0
VERTEX
8
13_39000
10
36.28700
20
73.00301
30
39.00000
0
VERTEX
8
13_39000
10
36.08100
20
74.15601
30
39.00000
0
VERTEX
8
13_39000
10
36.05500
20
74.37701
30
39.00000
0
VERTEX
8
13_39000
10
35.97500
20
74.83000
30
39.00000
0
VERTEX
8
13_39000
10
35.63100
20
76.21001
30
39.00000
0
VERTEX
8
13_39000
10
35.42400
20
76.99600
30
39.00000
0
VERTEX
8
13_39000
10
35.08000
20
78.03201
30
39.00000
0
VERTEX
8
13_39000
10
34.14600
20
80.54201
30
39.00000
0
VERTEX
8
13_39000
10
33.39800
20
82.49500
30
39.00000
0
VERTEX
8
13_39000
10
32.07500
20
86.09400
30
39.00000
0
VERTEX
8
13_39000
10
31.90900
20
86.48701
30
39.00000
0
VERTEX
8
13_39000
10
9.57100
20
90.21600
30
39.00000
0
VERTEX
8
13_39000
10
-56.17000
20
90.21600
30
39.00000
0
VERTEX
8
13_39000
10
-56.17000
20
-92.11401
30
39.00000
0
VERTEX
8
13_39000
10
7.65100
20
-92.11401
30
39.00000
0
SEQEND
8
13_39000
0
POLYLINE
8
13_39000
62
5
0
VERTEX
8
13_39000
10
-39.16000
20
90.81001
30
39.00000
0
VERTEX
8
13_39000
10
6.00600
20
90.81001
30
39.00000
0
VERTEX
8
13_39000
10
3.01000
20
91.30901
30
39.00000
0
VERTEX
8
13_39000
10
-56.17000
20
91.30901
30
39.00000
0
VERTEX
8
13_39000
10
-56.17000
20
90.81001
30
39.00000
0
VERTEX
8
13_39000
10
-39.16000
20
90.81001
30
39.00000
0
SEQEND
8
13_39000
0
POLYLINE
8
13_39000
62
5
0
VERTEX
8
13_39000
10
8.35100
20
90.41801
30
39.00000
0
VERTEX
8
13_39000
10
6.02400
20
90.80801
30
39.00000
0
VERTEX
8
13_39000
10
-56.17000
20
90.80801
30
39.00000
0
VERTEX
8
13_39000
10
-56.17000
20
90.21600
30
39.00000
0
VERTEX
8
13_39000
10
9.56800
20
90.21600
30
39.00000
0
VERTEX
8
13_39000
10
8.35100
20
90.41801
30
39.00000
0
SEQEND
8
13_39000
0
ENDSEC
0
EOF
