0
SECTION
2
HEADER
9
$ACADVER
1
AC1009
0
ENDSEC
0
SECTION
2
TABLES
0
TABLE
2
LAYER
70
1
0
LAYER
2
47_141000
70
0
62
7
6
CONTINUOUS
0
ENDTAB
0
ENDSEC
0
SECTION
2
BLOCKS
0
ENDSEC
0
SECTION
2
ENTITIES
0
POLYLINE
8
47_141000
62
5
0
VERTEX
8
47_141000
10
-54.36500
20
91.98500
30
141.00000
0
VERTEX
8
47_141000
10
-1.02300
20
91.98500
30
141.00000
0
VERTEX
8
47_141000
10
-1.59800
20
92.08000
30
141.00000
0
VERTEX
8
47_141000
10
-56.17000
20
92.08000
30
141.00000
0
VERTEX
8
47_141000
10
-56.17000
20
91.98500
30
141.00000
0
VERTEX
8
47_141000
10
-54.36500
20
91.98500
30
141.00000
0
SEQEND
8
47_141000
0
POLYLINE
8
47_141000
62
5
0
VERTEX
8
47_141000
10
-56.17000
20
91.67500
30
141.00000
0
VERTEX
8
47_141000
10
-56.17000
20
-92.11401
30
141.00000
0
VERTEX
8
47_141000
10
31.03300
20
-92.11401
30
141.00000
0
VERTEX
8
47_141000
10
30.58300
20
-91.45600
30
141.00000
0
VERTEX
8
47_141000
10
30.19000
20
-90.86201
30
141.00000
0
VERTEX
8
47_141000
10
28.89000
20
-89.02100
30
141.00000
0
VERTEX
8
47_141000
10
28.01100
20
-87.79601
30
141.00000
0
VERTEX
8
47_141000
10
25.33700
20
-84.12701
30
141.00000
0
VERTEX
8
47_141000
10
24.28800
20
-82.61600
30
141.00000
0
VERTEX
8
47_141000
10
23.80500
20
-82.00101
30
141.00000
0
VERTEX
8
47_141000
10
23.30500
20
-81.29201
30
141.00000
0
VERTEX
8
47_141000
10
21.31200
20
-78.60201
30
141.00000
0
VERTEX
8
47_141000
10
20.17100
20
-77.08900
30
141.00000
0
VERTEX
8
47_141000
10
19.62400
20
-76.42001
30
141.00000
0
VERTEX
8
47_141000
10
18.61800
20
-75.14301
30
141.00000
0
VERTEX
8
47_141000
10
15.67200
20
-71.43600
30
141.00000
0
VERTEX
8
47_141000
10
15.16700
20
-70.78001
30
141.00000
0
VERTEX
8
47_141000
10
13.96700
20
-69.13600
30
141.00000
0
VERTEX
8
47_141000
10
12.76300
20
-67.50700
30
141.00000
0
VERTEX
8
47_141000
10
9.86000
20
-63.60900
30
141.00000
0
VERTEX
8
47_141000
10
8.52700
20
-61.86600
30
141.00000
0
VERTEX
8
47_141000
10
8.36700
20
-61.61200
30
141.00000
0
VERTEX
8
47_141000
10
8.02300
20
-61.22200
30
141.00000
0
VERTEX
8
47_141000
10
7.70300
20
-60.80100
30
141.00000
0
VERTEX
8
47_141000
10
6.68800
20
-59.28400
30
141.00000
0
VERTEX
8
47_141000
10
5.95300
20
-58.22600
30
141.00000
0
VERTEX
8
47_141000
10
5.02800
20
-56.79200
30
141.00000
0
VERTEX
8
47_141000
10
4.87100
20
-56.53100
30
141.00000
0
VERTEX
8
47_141000
10
3.90600
20
-54.81900
30
141.00000
0
VERTEX
8
47_141000
10
3.58100
20
-54.36800
30
141.00000
0
VERTEX
8
47_141000
10
3.53400
20
-54.20200
30
141.00000
0
VERTEX
8
47_141000
10
3.24300
20
-53.83300
30
141.00000
0
VERTEX
8
47_141000
10
2.67700
20
-52.94500
30
141.00000
0
VERTEX
8
47_141000
10
2.18400
20
-52.05200
30
141.00000
0
VERTEX
8
47_141000
10
1.66000
20
-50.81600
30
141.00000
0
VERTEX
8
47_141000
10
1.57500
20
-50.64400
30
141.00000
0
VERTEX
8
47_141000
10
1.42600
20
-50.29200
30
141.00000
0
VERTEX
8
47_141000
10
0.98400
20
-49.30700
30
141.00000
0
VERTEX
8
47_141000
10
0.72700
20
-48.82200
30
141.00000
0
VERTEX
8
47_141000
10
0.69200
20
-48.74000
30
141.00000
0
VERTEX
8
47_141000
10
0.38800
20
-47.30000
30
141.00000
0
VERTEX
8
47_141000
10
0.16600
20
-46.62800
30
141.00000
0
VERTEX
8
47_141000
10
0.13900
20
-46.49600
30
141.00000
0
VERTEX
8
47_141000
10
0.12600
20
-46.27000
30
141.00000
0
VERTEX
8
47_141000
10
0.02800
20
-45.38400
30
141.00000
0
VERTEX
8
47_141000
10
-0.00100
20
-44.78900
30
141.00000
0
VERTEX
8
47_141000
10
0.00900
20
-44.62600
30
141.00000
0
VERTEX
8
47_141000
10
0.12700
20
-44.30300
30
141.00000
0
VERTEX
8
47_141000
10
0.07900
20
-43.12500
30
141.00000
0
VERTEX
8
47_141000
10
0.07800
20
-42.88100
30
141.00000
0
VERTEX
8
47_141000
10
0.06300
20
-42.72000
30
141.00000
0
VERTEX
8
47_141000
10
-0.05800
20
-42.31300
30
141.00000
0
VERTEX
8
47_141000
10
-0.01100
20
-41.84700
30
141.00000
0
VERTEX
8
47_141000
10
-0.01300
20
-41.28400
30
141.00000
0
VERTEX
8
47_141000
10
0.00800
20
-41.20500
30
141.00000
0
VERTEX
8
47_141000
10
0.03800
20
-40.85600
30
141.00000
0
VERTEX
8
47_141000
10
0.02000
20
-40.49900
30
141.00000
0
VERTEX
8
47_141000
10
-0.03000
20
-40.02500
30
141.00000
0
VERTEX
8
47_141000
10
-0.01100
20
-39.74200
30
141.00000
0
VERTEX
8
47_141000
10
0.12700
20
-38.62500
30
141.00000
0
VERTEX
8
47_141000
10
0.13100
20
-38.35100
30
141.00000
0
VERTEX
8
47_141000
10
0.28700
20
-36.51200
30
141.00000
0
VERTEX
8
47_141000
10
0.61500
20
-35.06600
30
141.00000
0
VERTEX
8
47_141000
10
0.65400
20
-33.60100
30
141.00000
0
VERTEX
8
47_141000
10
0.67400
20
-33.52600
30
141.00000
0
VERTEX
8
47_141000
10
0.92000
20
-32.04500
30
141.00000
0
VERTEX
8
47_141000
10
1.00300
20
-31.75900
30
141.00000
0
VERTEX
8
47_141000
10
1.10900
20
-30.96000
30
141.00000
0
VERTEX
8
47_141000
10
1.29100
20
-30.06400
30
141.00000
0
VERTEX
8
47_141000
10
1.50700
20
-28.92500
30
141.00000
0
VERTEX
8
47_141000
10
1.64100
20
-28.32500
30
141.00000
0
VERTEX
8
47_141000
10
2.00400
20
-26.54000
30
141.00000
0
VERTEX
8
47_141000
10
2.03300
20
-25.55800
30
141.00000
0
VERTEX
8
47_141000
10
2.05700
20
-25.14000
30
141.00000
0
VERTEX
8
47_141000
10
2.32200
20
-23.44400
30
141.00000
0
VERTEX
8
47_141000
10
2.68800
20
-21.93800
30
141.00000
0
VERTEX
8
47_141000
10
2.85600
20
-21.32400
30
141.00000
0
VERTEX
8
47_141000
10
3.05800
20
-20.12800
30
141.00000
0
VERTEX
8
47_141000
10
3.06900
20
-19.99300
30
141.00000
0
VERTEX
8
47_141000
10
3.05900
20
-19.72100
30
141.00000
0
VERTEX
8
47_141000
10
3.39700
20
-17.47000
30
141.00000
0
VERTEX
8
47_141000
10
3.60600
20
-15.93400
30
141.00000
0
VERTEX
8
47_141000
10
3.61200
20
-15.87300
30
141.00000
0
VERTEX
8
47_141000
10
3.59600
20
-15.10200
30
141.00000
0
VERTEX
8
47_141000
10
3.66200
20
-14.06200
30
141.00000
0
VERTEX
8
47_141000
10
3.69700
20
-13.90600
30
141.00000
0
VERTEX
8
47_141000
10
3.99100
20
-12.06000
30
141.00000
0
VERTEX
8
47_141000
10
4.21100
20
-10.02700
30
141.00000
0
VERTEX
8
47_141000
10
4.30800
20
-9.27600
30
141.00000
0
VERTEX
8
47_141000
10
4.31500
20
-9.04500
30
141.00000
0
VERTEX
8
47_141000
10
4.42900
20
-7.84800
30
141.00000
0
VERTEX
8
47_141000
10
4.47600
20
-7.25800
30
141.00000
0
VERTEX
8
47_141000
10
4.47800
20
-7.18400
30
141.00000
0
VERTEX
8
47_141000
10
4.46000
20
-7.04000
30
141.00000
0
VERTEX
8
47_141000
10
4.41200
20
-6.32600
30
141.00000
0
VERTEX
8
47_141000
10
4.35100
20
-5.62500
30
141.00000
0
VERTEX
8
47_141000
10
4.32500
20
-5.15300
30
141.00000
0
VERTEX
8
47_141000
10
4.28100
20
-4.85300
30
141.00000
0
VERTEX
8
47_141000
10
4.24800
20
-4.02400
30
141.00000
0
VERTEX
8
47_141000
10
4.22100
20
-3.61400
30
141.00000
0
VERTEX
8
47_141000
10
4.22200
20
-3.49900
30
141.00000
0
VERTEX
8
47_141000
10
4.20500
20
-3.34200
30
141.00000
0
VERTEX
8
47_141000
10
4.26100
20
-2.74500
30
141.00000
0
VERTEX
8
47_141000
10
4.12800
20
-0.87900
30
141.00000
0
VERTEX
8
47_141000
10
4.06800
20
-0.30700
30
141.00000
0
VERTEX
8
47_141000
10
4.04400
20
0.31700
30
141.00000
0
VERTEX
8
47_141000
10
3.90800
20
1.33700
30
141.00000
0
VERTEX
8
47_141000
10
3.81300
20
2.37500
30
141.00000
0
VERTEX
8
47_141000
10
3.67100
20
4.55000
30
141.00000
0
VERTEX
8
47_141000
10
3.22400
20
7.24500
30
141.00000
0
VERTEX
8
47_141000
10
3.00900
20
8.34900
30
141.00000
0
VERTEX
8
47_141000
10
2.99100
20
8.56700
30
141.00000
0
VERTEX
8
47_141000
10
2.55500
20
10.47100
30
141.00000
0
VERTEX
8
47_141000
10
2.04800
20
12.23700
30
141.00000
0
VERTEX
8
47_141000
10
1.10000
20
15.42200
30
141.00000
0
VERTEX
8
47_141000
10
0.82200
20
16.28300
30
141.00000
0
VERTEX
8
47_141000
10
0.20800
20
17.79000
30
141.00000
0
VERTEX
8
47_141000
10
-0.42500
20
19.48000
30
141.00000
0
VERTEX
8
47_141000
10
-0.74200
20
20.19500
30
141.00000
0
VERTEX
8
47_141000
10
-1.66000
20
22.61000
30
141.00000
0
VERTEX
8
47_141000
10
-2.26500
20
24.05600
30
141.00000
0
VERTEX
8
47_141000
10
-2.53200
20
24.65000
30
141.00000
0
VERTEX
8
47_141000
10
-2.80000
20
25.32200
30
141.00000
0
VERTEX
8
47_141000
10
-3.00800
20
25.80900
30
141.00000
0
VERTEX
8
47_141000
10
-3.20300
20
26.37800
30
141.00000
0
VERTEX
8
47_141000
10
-4.72000
20
30.29100
30
141.00000
0
VERTEX
8
47_141000
10
-5.50100
20
32.20800
30
141.00000
0
VERTEX
8
47_141000
10
-8.05200
20
39.07500
30
141.00000
0
VERTEX
8
47_141000
10
-9.35700
20
42.70700
30
141.00000
0
VERTEX
8
47_141000
10
-9.76000
20
43.79700
30
141.00000
0
VERTEX
8
47_141000
10
-10.14500
20
44.75600
30
141.00000
0
VERTEX
8
47_141000
10
-10.73800
20
47.32000
30
141.00000
0
VERTEX
8
47_141000
10
-11.00100
20
48.25000
30
141.00000
0
VERTEX
8
47_141000
10
-11.46400
20
51.36900
30
141.00000
0
VERTEX
8
47_141000
10
-11.62300
20
52.23700
30
141.00000
0
VERTEX
8
47_141000
10
-11.64800
20
52.41900
30
141.00000
0
VERTEX
8
47_141000
10
-11.80000
20
56.02800
30
141.00000
0
VERTEX
8
47_141000
10
-11.73200
20
57.10500
30
141.00000
0
VERTEX
8
47_141000
10
-11.67600
20
57.76600
30
141.00000
0
VERTEX
8
47_141000
10
-11.64000
20
57.89100
30
141.00000
0
VERTEX
8
47_141000
10
-11.49500
20
58.98700
30
141.00000
0
VERTEX
8
47_141000
10
-11.37100
20
59.72300
30
141.00000
0
VERTEX
8
47_141000
10
-11.14600
20
60.71700
30
141.00000
0
VERTEX
8
47_141000
10
-10.80900
20
62.06000
30
141.00000
0
VERTEX
8
47_141000
10
-10.63300
20
62.68000
30
141.00000
0
VERTEX
8
47_141000
10
-10.41600
20
63.15400
30
141.00000
0
VERTEX
8
47_141000
10
-8.97700
20
65.84000
30
141.00000
0
VERTEX
8
47_141000
10
-7.92700
20
68.08100
30
141.00000
0
VERTEX
8
47_141000
10
-7.37300
20
69.02000
30
141.00000
0
VERTEX
8
47_141000
10
-7.22000
20
69.32401
30
141.00000
0
VERTEX
8
47_141000
10
-6.79400
20
69.98600
30
141.00000
0
VERTEX
8
47_141000
10
-6.55200
20
70.32101
30
141.00000
0
VERTEX
8
47_141000
10
-6.28600
20
70.76100
30
141.00000
0
VERTEX
8
47_141000
10
-4.97300
20
73.50600
30
141.00000
0
VERTEX
8
47_141000
10
-4.75700
20
73.93600
30
141.00000
0
VERTEX
8
47_141000
10
-4.69000
20
74.12100
30
141.00000
0
VERTEX
8
47_141000
10
-3.51500
20
76.87100
30
141.00000
0
VERTEX
8
47_141000
10
-3.27500
20
77.55300
30
141.00000
0
VERTEX
8
47_141000
10
-3.06200
20
78.10800
30
141.00000
0
VERTEX
8
47_141000
10
-3.02900
20
78.24500
30
141.00000
0
VERTEX
8
47_141000
10
-2.80400
20
78.83000
30
141.00000
0
VERTEX
8
47_141000
10
-2.05300
20
80.59300
30
141.00000
0
VERTEX
8
47_141000
10
-1.81600
20
81.34000
30
141.00000
0
VERTEX
8
47_141000
10
-0.84300
20
83.94400
30
141.00000
0
VERTEX
8
47_141000
10
-0.64700
20
84.77801
30
141.00000
0
VERTEX
8
47_141000
10
-0.44000
20
85.50001
30
141.00000
0
VERTEX
8
47_141000
10
-0.42100
20
85.58701
30
141.00000
0
VERTEX
8
47_141000
10
-0.26200
20
86.35400
30
141.00000
0
VERTEX
8
47_141000
10
-0.14600
20
87.10400
30
141.00000
0
VERTEX
8
47_141000
10
-0.02200
20
87.71600
30
141.00000
0
VERTEX
8
47_141000
10
0.01300
20
87.93101
30
141.00000
0
VERTEX
8
47_141000
10
0.41500
20
89.65501
30
141.00000
0
VERTEX
8
47_141000
10
0.53400
20
90.24500
30
141.00000
0
VERTEX
8
47_141000
10
0.67900
20
91.10201
30
141.00000
0
VERTEX
8
47_141000
10
0.76000
20
91.45600
30
141.00000
0
VERTEX
8
47_141000
10
0.82200
20
91.67500
30
141.00000
0
VERTEX
8
47_141000
10
-0.20400
20
91.84500
30
141.00000
0
VERTEX
8
47_141000
10
-56.17000
20
91.84500
30
141.00000
0
VERTEX
8
47_141000
10
-56.17000
20
91.67500
30
141.00000
0
SEQEND
8
47_141000
0
POLYLINE
8
47_141000
62
5
0
VERTEX
8
47_141000
10
-54.84300
20
91.93001
30
141.00000
0
VERTEX
8
47_141000
10
-0.70400
20
91.93001
30
141.00000
0
VERTEX
8
47_141000
10
-0.98100
20
91.97800
30
141.00000
0
VERTEX
8
47_141000
10
-56.17000
20
91.97800
30
141.00000
0
VERTEX
8
47_141000
10
-56.17000
20
91.93001
30
141.00000
0
VERTEX
8
47_141000
10
-54.84300
20
91.93001
30
141.00000
0
SEQEND
8
47_141000
0
POLYLINE
8
47_141000
62
5
0
VERTEX
8
47_141000
10
-56.17000
20
91.90401
30
141.00000
0
VERTEX
8
47_141000
10
-56.17000
20
91.85300
30
141.00000
0
VERTEX
8
47_141000
10
-0.23800
20
91.85300
30
141.00000
0
VERTEX
8
47_141000
10
-0.69300
20
91.92700
30
141.00000
0
VERTEX
8
47_141000
10
-56.17000
20
91.92700
30
141.00000
0
VERTEX
8
47_141000
10
-56.17000
20
91.90401
30
141.00000
0
SEQEND
8
47_141000
0
ENDSEC
0
EOF
