0
SECTION
2
HEADER
9
$ACADVER
1
AC1009
0
ENDSEC
0
SECTION
2
TABLES
0
TABLE
2
LAYER
70
1
0
LAYER
2
28_84000
70
0
62
7
6
CONTINUOUS
0
ENDTAB
0
ENDSEC
0
SECTION
2
BLOCKS
0
ENDSEC
0
SECTION
2
ENTITIES
0
POLYLINE
8
28_84000
62
5
0
VERTEX
8
28_84000
10
-56.17000
20
91.68900
30
84.00000
0
VERTEX
8
28_84000
10
-56.17000
20
91.68101
30
84.00000
0
VERTEX
8
28_84000
10
0.77900
20
91.68101
30
84.00000
0
VERTEX
8
28_84000
10
0.44300
20
91.73901
30
84.00000
0
VERTEX
8
28_84000
10
-56.17000
20
91.73901
30
84.00000
0
VERTEX
8
28_84000
10
-56.17000
20
91.68900
30
84.00000
0
SEQEND
8
28_84000
0
POLYLINE
8
28_84000
62
5
0
VERTEX
8
28_84000
10
-52.79700
20
91.65100
30
84.00000
0
VERTEX
8
28_84000
10
0.96700
20
91.65100
30
84.00000
0
VERTEX
8
28_84000
10
0.80300
20
91.67800
30
84.00000
0
VERTEX
8
28_84000
10
-56.17000
20
91.67800
30
84.00000
0
VERTEX
8
28_84000
10
-56.17000
20
91.65100
30
84.00000
0
VERTEX
8
28_84000
10
-52.79700
20
91.65100
30
84.00000
0
SEQEND
8
28_84000
0
POLYLINE
8
28_84000
62
5
0
VERTEX
8
28_84000
10
-56.17000
20
91.64800
30
84.00000
0
VERTEX
8
28_84000
10
-56.17000
20
91.60400
30
84.00000
0
VERTEX
8
28_84000
10
1.24200
20
91.60400
30
84.00000
0
VERTEX
8
28_84000
10
0.97300
20
91.65100
30
84.00000
0
VERTEX
8
28_84000
10
-56.17000
20
91.64800
30
84.00000
0
SEQEND
8
28_84000
0
POLYLINE
8
28_84000
62
5
0
VERTEX
8
28_84000
10
-56.17000
20
91.46500
30
84.00000
0
VERTEX
8
28_84000
10
-56.17000
20
91.38400
30
84.00000
0
VERTEX
8
28_84000
10
2.57200
20
91.38400
30
84.00000
0
VERTEX
8
28_84000
10
1.26100
20
91.60101
30
84.00000
0
VERTEX
8
28_84000
10
-56.17000
20
91.60101
30
84.00000
0
VERTEX
8
28_84000
10
-56.17000
20
91.46500
30
84.00000
0
SEQEND
8
28_84000
0
POLYLINE
8
28_84000
62
5
0
VERTEX
8
28_84000
10
-56.17000
20
68.31200
30
84.00000
0
VERTEX
8
28_84000
10
-56.17000
20
-92.11401
30
84.00000
0
VERTEX
8
28_84000
10
31.01000
20
-92.11401
30
84.00000
0
VERTEX
8
28_84000
10
30.95500
20
-91.53800
30
84.00000
0
VERTEX
8
28_84000
10
31.02500
20
-90.86000
30
84.00000
0
VERTEX
8
28_84000
10
31.00100
20
-90.46101
30
84.00000
0
VERTEX
8
28_84000
10
30.93600
20
-90.09901
30
84.00000
0
VERTEX
8
28_84000
10
30.97300
20
-89.68301
30
84.00000
0
VERTEX
8
28_84000
10
31.13600
20
-89.18501
30
84.00000
0
VERTEX
8
28_84000
10
31.18500
20
-88.95600
30
84.00000
0
VERTEX
8
28_84000
10
31.30700
20
-88.63901
30
84.00000
0
VERTEX
8
28_84000
10
31.67600
20
-88.06400
30
84.00000
0
VERTEX
8
28_84000
10
31.82200
20
-87.70801
30
84.00000
0
VERTEX
8
28_84000
10
31.85900
20
-87.64201
30
84.00000
0
VERTEX
8
28_84000
10
32.19900
20
-86.54100
30
84.00000
0
VERTEX
8
28_84000
10
32.22900
20
-86.40701
30
84.00000
0
VERTEX
8
28_84000
10
32.28500
20
-85.75301
30
84.00000
0
VERTEX
8
28_84000
10
32.31600
20
-85.53001
30
84.00000
0
VERTEX
8
28_84000
10
32.49400
20
-84.42900
30
84.00000
0
VERTEX
8
28_84000
10
32.51600
20
-84.29601
30
84.00000
0
VERTEX
8
28_84000
10
32.66500
20
-83.62300
30
84.00000
0
VERTEX
8
28_84000
10
32.66100
20
-83.59200
30
84.00000
0
VERTEX
8
28_84000
10
32.73800
20
-83.22301
30
84.00000
0
VERTEX
8
28_84000
10
32.94300
20
-82.47900
30
84.00000
0
VERTEX
8
28_84000
10
33.26300
20
-81.69300
30
84.00000
0
VERTEX
8
28_84000
10
33.35300
20
-80.60300
30
84.00000
0
VERTEX
8
28_84000
10
33.51800
20
-80.04601
30
84.00000
0
VERTEX
8
28_84000
10
33.71400
20
-77.75600
30
84.00000
0
VERTEX
8
28_84000
10
34.14700
20
-76.33000
30
84.00000
0
VERTEX
8
28_84000
10
34.31800
20
-75.88400
30
84.00000
0
VERTEX
8
28_84000
10
34.32600
20
-75.83501
30
84.00000
0
VERTEX
8
28_84000
10
35.34600
20
-73.26501
30
84.00000
0
VERTEX
8
28_84000
10
35.38300
20
-73.19701
30
84.00000
0
VERTEX
8
28_84000
10
35.94800
20
-71.75800
30
84.00000
0
VERTEX
8
28_84000
10
35.99200
20
-71.46500
30
84.00000
0
VERTEX
8
28_84000
10
36.12100
20
-70.72701
30
84.00000
0
VERTEX
8
28_84000
10
36.23000
20
-69.99400
30
84.00000
0
VERTEX
8
28_84000
10
36.28200
20
-69.84000
30
84.00000
0
VERTEX
8
28_84000
10
36.35400
20
-69.42600
30
84.00000
0
VERTEX
8
28_84000
10
36.39600
20
-69.00301
30
84.00000
0
VERTEX
8
28_84000
10
36.37100
20
-68.91000
30
84.00000
0
VERTEX
8
28_84000
10
36.71000
20
-67.13000
30
84.00000
0
VERTEX
8
28_84000
10
36.83700
20
-66.55000
30
84.00000
0
VERTEX
8
28_84000
10
36.92700
20
-66.26300
30
84.00000
0
VERTEX
8
28_84000
10
37.02300
20
-65.14000
30
84.00000
0
VERTEX
8
28_84000
10
37.00600
20
-64.63500
30
84.00000
0
VERTEX
8
28_84000
10
37.07700
20
-63.76900
30
84.00000
0
VERTEX
8
28_84000
10
37.09800
20
-63.28100
30
84.00000
0
VERTEX
8
28_84000
10
37.18400
20
-62.17300
30
84.00000
0
VERTEX
8
28_84000
10
37.17800
20
-62.06900
30
84.00000
0
VERTEX
8
28_84000
10
37.21200
20
-61.55600
30
84.00000
0
VERTEX
8
28_84000
10
37.18400
20
-60.40300
30
84.00000
0
VERTEX
8
28_84000
10
37.07000
20
-59.69300
30
84.00000
0
VERTEX
8
28_84000
10
37.13200
20
-59.35700
30
84.00000
0
VERTEX
8
28_84000
10
37.11300
20
-59.21300
30
84.00000
0
VERTEX
8
28_84000
10
36.99700
20
-58.80400
30
84.00000
0
VERTEX
8
28_84000
10
36.97800
20
-58.66400
30
84.00000
0
VERTEX
8
28_84000
10
36.80900
20
-58.27800
30
84.00000
0
VERTEX
8
28_84000
10
36.62200
20
-57.32900
30
84.00000
0
VERTEX
8
28_84000
10
36.61700
20
-57.26600
30
84.00000
0
VERTEX
8
28_84000
10
36.67300
20
-56.62400
30
84.00000
0
VERTEX
8
28_84000
10
36.58800
20
-55.87700
30
84.00000
0
VERTEX
8
28_84000
10
36.44200
20
-55.32900
30
84.00000
0
VERTEX
8
28_84000
10
36.42800
20
-55.20400
30
84.00000
0
VERTEX
8
28_84000
10
36.45600
20
-54.91500
30
84.00000
0
VERTEX
8
28_84000
10
36.46300
20
-53.90000
30
84.00000
0
VERTEX
8
28_84000
10
36.45200
20
-53.83900
30
84.00000
0
VERTEX
8
28_84000
10
36.40600
20
-52.97500
30
84.00000
0
VERTEX
8
28_84000
10
36.32700
20
-52.55800
30
84.00000
0
VERTEX
8
28_84000
10
36.32600
20
-52.49500
30
84.00000
0
VERTEX
8
28_84000
10
36.33600
20
-52.43000
30
84.00000
0
VERTEX
8
28_84000
10
36.59600
20
-51.44500
30
84.00000
0
VERTEX
8
28_84000
10
36.60100
20
-51.35100
30
84.00000
0
VERTEX
8
28_84000
10
36.73300
20
-50.67900
30
84.00000
0
VERTEX
8
28_84000
10
36.74600
20
-50.57100
30
84.00000
0
VERTEX
8
28_84000
10
36.90500
20
-49.70500
30
84.00000
0
VERTEX
8
28_84000
10
36.92500
20
-49.49200
30
84.00000
0
VERTEX
8
28_84000
10
36.89100
20
-49.28500
30
84.00000
0
VERTEX
8
28_84000
10
36.92100
20
-49.21800
30
84.00000
0
VERTEX
8
28_84000
10
37.38900
20
-47.83100
30
84.00000
0
VERTEX
8
28_84000
10
37.47200
20
-47.53500
30
84.00000
0
VERTEX
8
28_84000
10
37.50200
20
-47.46800
30
84.00000
0
VERTEX
8
28_84000
10
37.56000
20
-47.39700
30
84.00000
0
VERTEX
8
28_84000
10
37.85100
20
-46.94100
30
84.00000
0
VERTEX
8
28_84000
10
37.89500
20
-46.72400
30
84.00000
0
VERTEX
8
28_84000
10
37.95800
20
-46.53400
30
84.00000
0
VERTEX
8
28_84000
10
38.23100
20
-45.99100
30
84.00000
0
VERTEX
8
28_84000
10
38.43200
20
-45.71200
30
84.00000
0
VERTEX
8
28_84000
10
38.53500
20
-45.42300
30
84.00000
0
VERTEX
8
28_84000
10
38.52800
20
-45.16900
30
84.00000
0
VERTEX
8
28_84000
10
38.53900
20
-44.85100
30
84.00000
0
VERTEX
8
28_84000
10
38.55400
20
-44.82300
30
84.00000
0
VERTEX
8
28_84000
10
38.49600
20
-44.05100
30
84.00000
0
VERTEX
8
28_84000
10
38.46200
20
-43.85200
30
84.00000
0
VERTEX
8
28_84000
10
38.43200
20
-43.11700
30
84.00000
0
VERTEX
8
28_84000
10
38.38500
20
-42.58000
30
84.00000
0
VERTEX
8
28_84000
10
38.43900
20
-41.19400
30
84.00000
0
VERTEX
8
28_84000
10
38.44200
20
-40.50600
30
84.00000
0
VERTEX
8
28_84000
10
38.42800
20
-39.42100
30
84.00000
0
VERTEX
8
28_84000
10
38.44600
20
-38.84200
30
84.00000
0
VERTEX
8
28_84000
10
38.51600
20
-38.37200
30
84.00000
0
VERTEX
8
28_84000
10
38.63300
20
-37.76300
30
84.00000
0
VERTEX
8
28_84000
10
38.65900
20
-37.57900
30
84.00000
0
VERTEX
8
28_84000
10
39.28500
20
-35.36200
30
84.00000
0
VERTEX
8
28_84000
10
39.36100
20
-34.12000
30
84.00000
0
VERTEX
8
28_84000
10
39.35200
20
-33.13600
30
84.00000
0
VERTEX
8
28_84000
10
39.32400
20
-32.11000
30
84.00000
0
VERTEX
8
28_84000
10
39.25100
20
-31.73200
30
84.00000
0
VERTEX
8
28_84000
10
39.09100
20
-30.44100
30
84.00000
0
VERTEX
8
28_84000
10
38.96400
20
-29.98000
30
84.00000
0
VERTEX
8
28_84000
10
38.83300
20
-29.45500
30
84.00000
0
VERTEX
8
28_84000
10
38.24800
20
-27.39500
30
84.00000
0
VERTEX
8
28_84000
10
37.80000
20
-25.77600
30
84.00000
0
VERTEX
8
28_84000
10
37.73400
20
-25.56100
30
84.00000
0
VERTEX
8
28_84000
10
36.83800
20
-23.54700
30
84.00000
0
VERTEX
8
28_84000
10
36.70600
20
-22.85900
30
84.00000
0
VERTEX
8
28_84000
10
36.87300
20
-22.39600
30
84.00000
0
VERTEX
8
28_84000
10
37.41000
20
-21.38900
30
84.00000
0
VERTEX
8
28_84000
10
38.07100
20
-20.09300
30
84.00000
0
VERTEX
8
28_84000
10
38.28600
20
-19.59100
30
84.00000
0
VERTEX
8
28_84000
10
39.66600
20
-16.15200
30
84.00000
0
VERTEX
8
28_84000
10
39.95900
20
-15.54800
30
84.00000
0
VERTEX
8
28_84000
10
40.08400
20
-15.18200
30
84.00000
0
VERTEX
8
28_84000
10
40.23300
20
-14.70000
30
84.00000
0
VERTEX
8
28_84000
10
40.37300
20
-14.03500
30
84.00000
0
VERTEX
8
28_84000
10
40.43500
20
-13.78100
30
84.00000
0
VERTEX
8
28_84000
10
40.42200
20
-13.48300
30
84.00000
0
VERTEX
8
28_84000
10
40.48400
20
-12.86900
30
84.00000
0
VERTEX
8
28_84000
10
40.43000
20
-12.07800
30
84.00000
0
VERTEX
8
28_84000
10
40.24900
20
-11.06100
30
84.00000
0
VERTEX
8
28_84000
10
40.18900
20
-10.50000
30
84.00000
0
VERTEX
8
28_84000
10
40.18100
20
-9.93100
30
84.00000
0
VERTEX
8
28_84000
10
40.15100
20
-9.62000
30
84.00000
0
VERTEX
8
28_84000
10
40.21500
20
-8.86500
30
84.00000
0
VERTEX
8
28_84000
10
40.19400
20
-8.69400
30
84.00000
0
VERTEX
8
28_84000
10
40.17000
20
-7.50400
30
84.00000
0
VERTEX
8
28_84000
10
40.14400
20
-7.39700
30
84.00000
0
VERTEX
8
28_84000
10
39.94400
20
-6.08300
30
84.00000
0
VERTEX
8
28_84000
10
39.88700
20
-5.77800
30
84.00000
0
VERTEX
8
28_84000
10
39.81300
20
-4.64100
30
84.00000
0
VERTEX
8
28_84000
10
39.94900
20
-3.78800
30
84.00000
0
VERTEX
8
28_84000
10
40.03200
20
-2.91100
30
84.00000
0
VERTEX
8
28_84000
10
40.03900
20
-2.53400
30
84.00000
0
VERTEX
8
28_84000
10
40.00200
20
-2.03200
30
84.00000
0
VERTEX
8
28_84000
10
39.82500
20
-0.52800
30
84.00000
0
VERTEX
8
28_84000
10
39.71400
20
0.22000
30
84.00000
0
VERTEX
8
28_84000
10
39.69800
20
0.50700
30
84.00000
0
VERTEX
8
28_84000
10
39.61300
20
1.32800
30
84.00000
0
VERTEX
8
28_84000
10
39.69000
20
2.01500
30
84.00000
0
VERTEX
8
28_84000
10
39.70900
20
2.30900
30
84.00000
0
VERTEX
8
28_84000
10
39.92500
20
4.53500
30
84.00000
0
VERTEX
8
28_84000
10
40.00200
20
5.22200
30
84.00000
0
VERTEX
8
28_84000
10
40.06100
20
5.65200
30
84.00000
0
VERTEX
8
28_84000
10
40.12000
20
5.94400
30
84.00000
0
VERTEX
8
28_84000
10
40.23000
20
6.34200
30
84.00000
0
VERTEX
8
28_84000
10
40.31200
20
6.48300
30
84.00000
0
VERTEX
8
28_84000
10
40.99800
20
7.36700
30
84.00000
0
VERTEX
8
28_84000
10
43.16200
20
9.17800
30
84.00000
0
VERTEX
8
28_84000
10
43.83900
20
9.70200
30
84.00000
0
VERTEX
8
28_84000
10
44.29600
20
10.12300
30
84.00000
0
VERTEX
8
28_84000
10
45.82800
20
11.19200
30
84.00000
0
VERTEX
8
28_84000
10
46.31700
20
11.62300
30
84.00000
0
VERTEX
8
28_84000
10
46.90100
20
12.35200
30
84.00000
0
VERTEX
8
28_84000
10
47.17900
20
12.65400
30
84.00000
0
VERTEX
8
28_84000
10
47.27400
20
12.79300
30
84.00000
0
VERTEX
8
28_84000
10
47.37200
20
13.06800
30
84.00000
0
VERTEX
8
28_84000
10
47.65300
20
13.51000
30
84.00000
0
VERTEX
8
28_84000
10
47.94000
20
14.14900
30
84.00000
0
VERTEX
8
28_84000
10
48.10900
20
15.16400
30
84.00000
0
VERTEX
8
28_84000
10
48.17800
20
15.48000
30
84.00000
0
VERTEX
8
28_84000
10
48.20300
20
15.73200
30
84.00000
0
VERTEX
8
28_84000
10
48.20900
20
16.01600
30
84.00000
0
VERTEX
8
28_84000
10
48.11700
20
16.59000
30
84.00000
0
VERTEX
8
28_84000
10
48.01800
20
17.73900
30
84.00000
0
VERTEX
8
28_84000
10
47.59500
20
19.07500
30
84.00000
0
VERTEX
8
28_84000
10
47.55600
20
19.17500
30
84.00000
0
VERTEX
8
28_84000
10
47.45600
20
19.36300
30
84.00000
0
VERTEX
8
28_84000
10
45.91800
20
22.14800
30
84.00000
0
VERTEX
8
28_84000
10
45.07500
20
23.33200
30
84.00000
0
VERTEX
8
28_84000
10
44.33400
20
24.49200
30
84.00000
0
VERTEX
8
28_84000
10
43.64300
20
25.33300
30
84.00000
0
VERTEX
8
28_84000
10
41.66000
20
27.85200
30
84.00000
0
VERTEX
8
28_84000
10
40.54300
20
29.21200
30
84.00000
0
VERTEX
8
28_84000
10
39.41900
20
30.77000
30
84.00000
0
VERTEX
8
28_84000
10
38.01900
20
32.68200
30
84.00000
0
VERTEX
8
28_84000
10
37.06100
20
34.30700
30
84.00000
0
VERTEX
8
28_84000
10
36.32400
20
35.65900
30
84.00000
0
VERTEX
8
28_84000
10
35.61100
20
37.08700
30
84.00000
0
VERTEX
8
28_84000
10
34.43900
20
39.72300
30
84.00000
0
VERTEX
8
28_84000
10
34.25000
20
40.21500
30
84.00000
0
VERTEX
8
28_84000
10
34.04200
20
40.63300
30
84.00000
0
VERTEX
8
28_84000
10
33.14900
20
42.52000
30
84.00000
0
VERTEX
8
28_84000
10
32.73600
20
43.51900
30
84.00000
0
VERTEX
8
28_84000
10
32.63500
20
43.78000
30
84.00000
0
VERTEX
8
28_84000
10
31.71100
20
45.87300
30
84.00000
0
VERTEX
8
28_84000
10
31.20500
20
47.31700
30
84.00000
0
VERTEX
8
28_84000
10
30.69600
20
49.91500
30
84.00000
0
VERTEX
8
28_84000
10
30.49900
20
51.70500
30
84.00000
0
VERTEX
8
28_84000
10
30.53800
20
53.09300
30
84.00000
0
VERTEX
8
28_84000
10
30.93900
20
54.32200
30
84.00000
0
VERTEX
8
28_84000
10
31.34900
20
55.39100
30
84.00000
0
VERTEX
8
28_84000
10
31.39000
20
55.47700
30
84.00000
0
VERTEX
8
28_84000
10
33.73600
20
59.74200
30
84.00000
0
VERTEX
8
28_84000
10
33.82700
20
59.87900
30
84.00000
0
VERTEX
8
28_84000
10
34.19200
20
60.59800
30
84.00000
0
VERTEX
8
28_84000
10
34.50000
20
61.15000
30
84.00000
0
VERTEX
8
28_84000
10
35.04200
20
61.95700
30
84.00000
0
VERTEX
8
28_84000
10
35.44100
20
62.63700
30
84.00000
0
VERTEX
8
28_84000
10
35.62900
20
62.99300
30
84.00000
0
VERTEX
8
28_84000
10
36.54000
20
64.60101
30
84.00000
0
VERTEX
8
28_84000
10
36.89700
20
65.36600
30
84.00000
0
VERTEX
8
28_84000
10
37.07200
20
65.67800
30
84.00000
0
VERTEX
8
28_84000
10
38.05600
20
68.07500
30
84.00000
0
VERTEX
8
28_84000
10
38.51800
20
69.62400
30
84.00000
0
VERTEX
8
28_84000
10
38.58100
20
69.88200
30
84.00000
0
VERTEX
8
28_84000
10
38.76300
20
70.47100
30
84.00000
0
VERTEX
8
28_84000
10
38.93900
20
71.19901
30
84.00000
0
VERTEX
8
28_84000
10
39.36400
20
73.76100
30
84.00000
0
VERTEX
8
28_84000
10
39.58500
20
75.96400
30
84.00000
0
VERTEX
8
28_84000
10
39.63600
20
77.01300
30
84.00000
0
VERTEX
8
28_84000
10
39.69700
20
79.29100
30
84.00000
0
VERTEX
8
28_84000
10
39.75300
20
82.72601
30
84.00000
0
VERTEX
8
28_84000
10
39.80500
20
84.91801
30
84.00000
0
VERTEX
8
28_84000
10
39.77700
20
85.17300
30
84.00000
0
VERTEX
8
28_84000
10
17.32000
20
88.92300
30
84.00000
0
VERTEX
8
28_84000
10
-56.17000
20
88.92300
30
84.00000
0
VERTEX
8
28_84000
10
-56.17000
20
68.31200
30
84.00000
0
SEQEND
8
28_84000
0
POLYLINE
8
28_84000
62
5
0
VERTEX
8
28_84000
10
-56.17000
20
90.93201
30
84.00000
0
VERTEX
8
28_84000
10
-56.17000
20
90.25800
30
84.00000
0
VERTEX
8
28_84000
10
9.31700
20
90.25800
30
84.00000
0
VERTEX
8
28_84000
10
2.59100
20
91.38000
30
84.00000
0
VERTEX
8
28_84000
10
-56.17000
20
91.38000
30
84.00000
0
VERTEX
8
28_84000
10
-56.17000
20
90.93201
30
84.00000
0
SEQEND
8
28_84000
0
POLYLINE
8
28_84000
62
5
0
VERTEX
8
28_84000
10
14.11000
20
89.45600
30
84.00000
0
VERTEX
8
28_84000
10
9.35300
20
90.25101
30
84.00000
0
VERTEX
8
28_84000
10
-56.17000
20
90.25101
30
84.00000
0
VERTEX
8
28_84000
10
-56.17000
20
88.92400
30
84.00000
0
VERTEX
8
28_84000
10
17.31000
20
88.92400
30
84.00000
0
VERTEX
8
28_84000
10
14.11000
20
89.45600
30
84.00000
0
SEQEND
8
28_84000
0
ENDSEC
0
EOF
