0
SECTION
2
HEADER
9
$ACADVER
1
AC1009
0
ENDSEC
0
SECTION
2
TABLES
0
TABLE
2
LAYER
70
1
0
LAYER
2
43_129000
70
0
62
7
6
CONTINUOUS
0
ENDTAB
0
ENDSEC
0
SECTION
2
BLOCKS
0
ENDSEC
0
SECTION
2
ENTITIES
0
POLYLINE
8
43_129000
62
5
0
VERTEX
8
43_129000
10
-49.35100
20
91.92101
30
129.00000
0
VERTEX
8
43_129000
10
-0.64400
20
91.92101
30
129.00000
0
VERTEX
8
43_129000
10
-1.16800
20
92.00800
30
129.00000
0
VERTEX
8
43_129000
10
-56.17000
20
92.00800
30
129.00000
0
VERTEX
8
43_129000
10
-56.17000
20
91.92101
30
129.00000
0
VERTEX
8
43_129000
10
-49.35100
20
91.92101
30
129.00000
0
SEQEND
8
43_129000
0
POLYLINE
8
43_129000
62
5
0
VERTEX
8
43_129000
10
-49.78800
20
91.87100
30
129.00000
0
VERTEX
8
43_129000
10
-0.35100
20
91.87100
30
129.00000
0
VERTEX
8
43_129000
10
-0.60600
20
91.91500
30
129.00000
0
VERTEX
8
43_129000
10
-56.17000
20
91.91500
30
129.00000
0
VERTEX
8
43_129000
10
-56.17000
20
91.87100
30
129.00000
0
VERTEX
8
43_129000
10
-49.78800
20
91.87100
30
129.00000
0
SEQEND
8
43_129000
0
POLYLINE
8
43_129000
62
5
0
VERTEX
8
43_129000
10
-56.17000
20
91.85001
30
129.00000
0
VERTEX
8
43_129000
10
-56.17000
20
91.80100
30
129.00000
0
VERTEX
8
43_129000
10
0.07400
20
91.80100
30
129.00000
0
VERTEX
8
43_129000
10
-0.34200
20
91.86900
30
129.00000
0
VERTEX
8
43_129000
10
-56.17000
20
91.86900
30
129.00000
0
VERTEX
8
43_129000
10
-56.17000
20
91.85001
30
129.00000
0
SEQEND
8
43_129000
0
POLYLINE
8
43_129000
62
5
0
VERTEX
8
43_129000
10
-56.17000
20
91.57600
30
129.00000
0
VERTEX
8
43_129000
10
-56.17000
20
91.45400
30
129.00000
0
VERTEX
8
43_129000
10
2.14300
20
91.45400
30
129.00000
0
VERTEX
8
43_129000
10
0.10500
20
91.79401
30
129.00000
0
VERTEX
8
43_129000
10
-56.17000
20
91.79401
30
129.00000
0
VERTEX
8
43_129000
10
-56.17000
20
91.57600
30
129.00000
0
SEQEND
8
43_129000
0
POLYLINE
8
43_129000
62
5
0
VERTEX
8
43_129000
10
-56.17000
20
89.62400
30
129.00000
0
VERTEX
8
43_129000
10
-56.17000
20
-92.11401
30
129.00000
0
VERTEX
8
43_129000
10
29.67200
20
-92.11401
30
129.00000
0
VERTEX
8
43_129000
10
29.19100
20
-91.43301
30
129.00000
0
VERTEX
8
43_129000
10
28.02300
20
-89.63800
30
129.00000
0
VERTEX
8
43_129000
10
27.06100
20
-88.05901
30
129.00000
0
VERTEX
8
43_129000
10
25.98800
20
-86.39001
30
129.00000
0
VERTEX
8
43_129000
10
24.94500
20
-84.81300
30
129.00000
0
VERTEX
8
43_129000
10
24.49400
20
-84.15100
30
129.00000
0
VERTEX
8
43_129000
10
24.41900
20
-84.02000
30
129.00000
0
VERTEX
8
43_129000
10
24.25700
20
-83.79100
30
129.00000
0
VERTEX
8
43_129000
10
23.11600
20
-82.05300
30
129.00000
0
VERTEX
8
43_129000
10
21.81500
20
-80.25500
30
129.00000
0
VERTEX
8
43_129000
10
21.17600
20
-79.40401
30
129.00000
0
VERTEX
8
43_129000
10
18.79200
20
-76.01000
30
129.00000
0
VERTEX
8
43_129000
10
16.59200
20
-72.78800
30
129.00000
0
VERTEX
8
43_129000
10
16.37200
20
-72.44701
30
129.00000
0
VERTEX
8
43_129000
10
16.23900
20
-72.07000
30
129.00000
0
VERTEX
8
43_129000
10
16.18700
20
-71.95500
30
129.00000
0
VERTEX
8
43_129000
10
16.02000
20
-70.83601
30
129.00000
0
VERTEX
8
43_129000
10
15.85600
20
-69.80901
30
129.00000
0
VERTEX
8
43_129000
10
15.79000
20
-68.82900
30
129.00000
0
VERTEX
8
43_129000
10
15.78800
20
-68.70800
30
129.00000
0
VERTEX
8
43_129000
10
15.60100
20
-66.13000
30
129.00000
0
VERTEX
8
43_129000
10
15.54100
20
-65.97401
30
129.00000
0
VERTEX
8
43_129000
10
15.53600
20
-65.73200
30
129.00000
0
VERTEX
8
43_129000
10
15.33100
20
-64.35500
30
129.00000
0
VERTEX
8
43_129000
10
15.26900
20
-64.13700
30
129.00000
0
VERTEX
8
43_129000
10
15.05600
20
-63.18500
30
129.00000
0
VERTEX
8
43_129000
10
14.82400
20
-62.54400
30
129.00000
0
VERTEX
8
43_129000
10
14.77100
20
-62.41800
30
129.00000
0
VERTEX
8
43_129000
10
14.07300
20
-60.99100
30
129.00000
0
VERTEX
8
43_129000
10
13.65900
20
-60.23700
30
129.00000
0
VERTEX
8
43_129000
10
12.95900
20
-58.86200
30
129.00000
0
VERTEX
8
43_129000
10
12.78700
20
-58.55600
30
129.00000
0
VERTEX
8
43_129000
10
12.54200
20
-58.06800
30
129.00000
0
VERTEX
8
43_129000
10
12.25500
20
-57.43600
30
129.00000
0
VERTEX
8
43_129000
10
12.17200
20
-57.15000
30
129.00000
0
VERTEX
8
43_129000
10
12.00600
20
-56.77300
30
129.00000
0
VERTEX
8
43_129000
10
11.35700
20
-55.45500
30
129.00000
0
VERTEX
8
43_129000
10
11.29800
20
-55.30600
30
129.00000
0
VERTEX
8
43_129000
10
11.27500
20
-55.26100
30
129.00000
0
VERTEX
8
43_129000
10
11.20400
20
-55.16200
30
129.00000
0
VERTEX
8
43_129000
10
10.90200
20
-54.56600
30
129.00000
0
VERTEX
8
43_129000
10
10.56000
20
-53.85900
30
129.00000
0
VERTEX
8
43_129000
10
10.48700
20
-53.58700
30
129.00000
0
VERTEX
8
43_129000
10
10.47400
20
-53.41400
30
129.00000
0
VERTEX
8
43_129000
10
10.61300
20
-52.04000
30
129.00000
0
VERTEX
8
43_129000
10
10.75500
20
-51.02500
30
129.00000
0
VERTEX
8
43_129000
10
10.79300
20
-50.59500
30
129.00000
0
VERTEX
8
43_129000
10
10.95400
20
-49.97700
30
129.00000
0
VERTEX
8
43_129000
10
10.98600
20
-49.68400
30
129.00000
0
VERTEX
8
43_129000
10
11.18400
20
-48.86800
30
129.00000
0
VERTEX
8
43_129000
10
11.21800
20
-48.63000
30
129.00000
0
VERTEX
8
43_129000
10
11.25600
20
-48.53800
30
129.00000
0
VERTEX
8
43_129000
10
11.46700
20
-47.53000
30
129.00000
0
VERTEX
8
43_129000
10
11.54900
20
-47.32100
30
129.00000
0
VERTEX
8
43_129000
10
11.59800
20
-46.97600
30
129.00000
0
VERTEX
8
43_129000
10
11.89200
20
-45.53400
30
129.00000
0
VERTEX
8
43_129000
10
12.07100
20
-44.81400
30
129.00000
0
VERTEX
8
43_129000
10
12.38600
20
-43.66600
30
129.00000
0
VERTEX
8
43_129000
10
12.56100
20
-43.25300
30
129.00000
0
VERTEX
8
43_129000
10
12.88400
20
-42.23600
30
129.00000
0
VERTEX
8
43_129000
10
12.92300
20
-42.08000
30
129.00000
0
VERTEX
8
43_129000
10
12.96200
20
-41.33600
30
129.00000
0
VERTEX
8
43_129000
10
12.95700
20
-41.13700
30
129.00000
0
VERTEX
8
43_129000
10
12.96400
20
-40.91000
30
129.00000
0
VERTEX
8
43_129000
10
12.90200
20
-40.33100
30
129.00000
0
VERTEX
8
43_129000
10
12.96000
20
-39.88800
30
129.00000
0
VERTEX
8
43_129000
10
13.02200
20
-39.72000
30
129.00000
0
VERTEX
8
43_129000
10
12.97900
20
-39.51700
30
129.00000
0
VERTEX
8
43_129000
10
13.03700
20
-39.30400
30
129.00000
0
VERTEX
8
43_129000
10
13.11500
20
-38.65400
30
129.00000
0
VERTEX
8
43_129000
10
13.10700
20
-38.40000
30
129.00000
0
VERTEX
8
43_129000
10
13.24200
20
-37.91100
30
129.00000
0
VERTEX
8
43_129000
10
13.30800
20
-37.49900
30
129.00000
0
VERTEX
8
43_129000
10
13.36500
20
-36.81500
30
129.00000
0
VERTEX
8
43_129000
10
13.37000
20
-36.53100
30
129.00000
0
VERTEX
8
43_129000
10
13.39500
20
-36.13800
30
129.00000
0
VERTEX
8
43_129000
10
13.39300
20
-35.80100
30
129.00000
0
VERTEX
8
43_129000
10
13.47600
20
-34.83000
30
129.00000
0
VERTEX
8
43_129000
10
13.27000
20
-33.51700
30
129.00000
0
VERTEX
8
43_129000
10
13.34200
20
-32.55200
30
129.00000
0
VERTEX
8
43_129000
10
13.31800
20
-31.59100
30
129.00000
0
VERTEX
8
43_129000
10
13.29000
20
-31.36000
30
129.00000
0
VERTEX
8
43_129000
10
13.37100
20
-30.71700
30
129.00000
0
VERTEX
8
43_129000
10
13.42400
20
-29.55300
30
129.00000
0
VERTEX
8
43_129000
10
13.55900
20
-28.82200
30
129.00000
0
VERTEX
8
43_129000
10
13.94100
20
-27.24900
30
129.00000
0
VERTEX
8
43_129000
10
14.03700
20
-26.73300
30
129.00000
0
VERTEX
8
43_129000
10
14.11900
20
-25.91800
30
129.00000
0
VERTEX
8
43_129000
10
14.11500
20
-25.71800
30
129.00000
0
VERTEX
8
43_129000
10
14.23700
20
-25.16600
30
129.00000
0
VERTEX
8
43_129000
10
14.27100
20
-24.86500
30
129.00000
0
VERTEX
8
43_129000
10
14.37700
20
-24.22100
30
129.00000
0
VERTEX
8
43_129000
10
14.64900
20
-22.18400
30
129.00000
0
VERTEX
8
43_129000
10
14.85400
20
-21.17400
30
129.00000
0
VERTEX
8
43_129000
10
15.00700
20
-20.19100
30
129.00000
0
VERTEX
8
43_129000
10
15.12500
20
-19.52800
30
129.00000
0
VERTEX
8
43_129000
10
15.28900
20
-18.86700
30
129.00000
0
VERTEX
8
43_129000
10
15.35600
20
-18.56100
30
129.00000
0
VERTEX
8
43_129000
10
15.44000
20
-18.03300
30
129.00000
0
VERTEX
8
43_129000
10
15.50900
20
-17.35100
30
129.00000
0
VERTEX
8
43_129000
10
15.67800
20
-16.44000
30
129.00000
0
VERTEX
8
43_129000
10
16.12700
20
-13.76400
30
129.00000
0
VERTEX
8
43_129000
10
16.46000
20
-12.24000
30
129.00000
0
VERTEX
8
43_129000
10
16.49500
20
-12.04200
30
129.00000
0
VERTEX
8
43_129000
10
17.72200
20
-4.04000
30
129.00000
0
VERTEX
8
43_129000
10
17.95100
20
-2.06300
30
129.00000
0
VERTEX
8
43_129000
10
18.18000
20
0.28200
30
129.00000
0
VERTEX
8
43_129000
10
18.22300
20
1.00200
30
129.00000
0
VERTEX
8
43_129000
10
18.26800
20
2.76300
30
129.00000
0
VERTEX
8
43_129000
10
18.25600
20
3.98700
30
129.00000
0
VERTEX
8
43_129000
10
18.12600
20
4.60800
30
129.00000
0
VERTEX
8
43_129000
10
18.16300
20
5.69500
30
129.00000
0
VERTEX
8
43_129000
10
18.10300
20
6.41400
30
129.00000
0
VERTEX
8
43_129000
10
17.90500
20
7.90500
30
129.00000
0
VERTEX
8
43_129000
10
17.79500
20
9.02700
30
129.00000
0
VERTEX
8
43_129000
10
17.73600
20
9.46200
30
129.00000
0
VERTEX
8
43_129000
10
17.03400
20
13.33200
30
129.00000
0
VERTEX
8
43_129000
10
16.48100
20
15.70500
30
129.00000
0
VERTEX
8
43_129000
10
15.10000
20
21.45000
30
129.00000
0
VERTEX
8
43_129000
10
13.50900
20
28.31900
30
129.00000
0
VERTEX
8
43_129000
10
11.92400
20
34.63500
30
129.00000
0
VERTEX
8
43_129000
10
11.37300
20
36.76500
30
129.00000
0
VERTEX
8
43_129000
10
10.80800
20
38.55600
30
129.00000
0
VERTEX
8
43_129000
10
10.51800
20
39.63200
30
129.00000
0
VERTEX
8
43_129000
10
10.27600
20
40.28600
30
129.00000
0
VERTEX
8
43_129000
10
9.92800
20
41.83600
30
129.00000
0
VERTEX
8
43_129000
10
9.79100
20
42.33300
30
129.00000
0
VERTEX
8
43_129000
10
9.26600
20
45.84100
30
129.00000
0
VERTEX
8
43_129000
10
9.26000
20
47.24700
30
129.00000
0
VERTEX
8
43_129000
10
9.23900
20
47.41300
30
129.00000
0
VERTEX
8
43_129000
10
9.23100
20
48.02600
30
129.00000
0
VERTEX
8
43_129000
10
9.28700
20
48.34500
30
129.00000
0
VERTEX
8
43_129000
10
9.43900
20
50.35400
30
129.00000
0
VERTEX
8
43_129000
10
9.46200
20
50.76400
30
129.00000
0
VERTEX
8
43_129000
10
10.01700
20
51.80700
30
129.00000
0
VERTEX
8
43_129000
10
10.17200
20
52.38900
30
129.00000
0
VERTEX
8
43_129000
10
10.35300
20
52.85500
30
129.00000
0
VERTEX
8
43_129000
10
10.48700
20
53.64900
30
129.00000
0
VERTEX
8
43_129000
10
11.59800
20
57.09200
30
129.00000
0
VERTEX
8
43_129000
10
12.81300
20
60.42700
30
129.00000
0
VERTEX
8
43_129000
10
13.16100
20
61.28900
30
129.00000
0
VERTEX
8
43_129000
10
13.29500
20
61.58800
30
129.00000
0
VERTEX
8
43_129000
10
14.14700
20
64.08000
30
129.00000
0
VERTEX
8
43_129000
10
14.39600
20
64.84100
30
129.00000
0
VERTEX
8
43_129000
10
14.75100
20
65.78300
30
129.00000
0
VERTEX
8
43_129000
10
15.00200
20
66.54501
30
129.00000
0
VERTEX
8
43_129000
10
15.33000
20
67.58200
30
129.00000
0
VERTEX
8
43_129000
10
15.59300
20
68.68900
30
129.00000
0
VERTEX
8
43_129000
10
15.92600
20
70.03400
30
129.00000
0
VERTEX
8
43_129000
10
16.29600
20
72.01100
30
129.00000
0
VERTEX
8
43_129000
10
16.36700
20
72.43201
30
129.00000
0
VERTEX
8
43_129000
10
16.66200
20
75.45800
30
129.00000
0
VERTEX
8
43_129000
10
16.67200
20
75.61100
30
129.00000
0
VERTEX
8
43_129000
10
16.42900
20
77.39400
30
129.00000
0
VERTEX
8
43_129000
10
16.40200
20
77.63600
30
129.00000
0
VERTEX
8
43_129000
10
15.43900
20
82.03201
30
129.00000
0
VERTEX
8
43_129000
10
15.31000
20
82.49600
30
129.00000
0
VERTEX
8
43_129000
10
15.19700
20
82.83601
30
129.00000
0
VERTEX
8
43_129000
10
14.47300
20
85.21600
30
129.00000
0
VERTEX
8
43_129000
10
14.43200
20
85.30901
30
129.00000
0
VERTEX
8
43_129000
10
14.30700
20
85.69401
30
129.00000
0
VERTEX
8
43_129000
10
13.38200
20
88.62901
30
129.00000
0
VERTEX
8
43_129000
10
13.32100
20
88.90301
30
129.00000
0
VERTEX
8
43_129000
10
13.16700
20
89.39600
30
129.00000
0
VERTEX
8
43_129000
10
13.11200
20
89.62400
30
129.00000
0
VERTEX
8
43_129000
10
12.68600
20
89.69601
30
129.00000
0
VERTEX
8
43_129000
10
-56.17000
20
89.69601
30
129.00000
0
VERTEX
8
43_129000
10
-56.17000
20
89.62400
30
129.00000
0
SEQEND
8
43_129000
0
POLYLINE
8
43_129000
62
5
0
VERTEX
8
43_129000
10
-56.17000
20
90.29601
30
129.00000
0
VERTEX
8
43_129000
10
-56.17000
20
89.70400
30
129.00000
0
VERTEX
8
43_129000
10
12.62900
20
89.70400
30
129.00000
0
VERTEX
8
43_129000
10
2.17400
20
91.45000
30
129.00000
0
VERTEX
8
43_129000
10
-56.17000
20
91.45000
30
129.00000
0
VERTEX
8
43_129000
10
-56.17000
20
90.29601
30
129.00000
0
SEQEND
8
43_129000
0
ENDSEC
0
EOF
