0
SECTION
2
HEADER
9
$ACADVER
1
AC1009
0
ENDSEC
0
SECTION
2
TABLES
0
TABLE
2
LAYER
70
1
0
LAYER
2
27_81000
70
0
62
7
6
CONTINUOUS
0
ENDTAB
0
ENDSEC
0
SECTION
2
BLOCKS
0
ENDSEC
0
SECTION
2
ENTITIES
0
POLYLINE
8
27_81000
62
5
0
VERTEX
8
27_81000
10
-56.17000
20
91.67400
30
81.00000
0
VERTEX
8
27_81000
10
-56.17000
20
91.66500
30
81.00000
0
VERTEX
8
27_81000
10
0.87400
20
91.66500
30
81.00000
0
VERTEX
8
27_81000
10
0.55000
20
91.72100
30
81.00000
0
VERTEX
8
27_81000
10
-56.17000
20
91.72100
30
81.00000
0
VERTEX
8
27_81000
10
-56.17000
20
91.67400
30
81.00000
0
SEQEND
8
27_81000
0
POLYLINE
8
27_81000
62
5
0
VERTEX
8
27_81000
10
-54.06000
20
91.63600
30
81.00000
0
VERTEX
8
27_81000
10
1.05500
20
91.63600
30
81.00000
0
VERTEX
8
27_81000
10
0.89700
20
91.66300
30
81.00000
0
VERTEX
8
27_81000
10
-56.17000
20
91.66300
30
81.00000
0
VERTEX
8
27_81000
10
-56.17000
20
91.63600
30
81.00000
0
VERTEX
8
27_81000
10
-54.06000
20
91.63600
30
81.00000
0
SEQEND
8
27_81000
0
POLYLINE
8
27_81000
62
5
0
VERTEX
8
27_81000
10
-56.17000
20
91.63400
30
81.00000
0
VERTEX
8
27_81000
10
-56.17000
20
91.59100
30
81.00000
0
VERTEX
8
27_81000
10
1.32000
20
91.59100
30
81.00000
0
VERTEX
8
27_81000
10
1.06100
20
91.63700
30
81.00000
0
VERTEX
8
27_81000
10
-56.17000
20
91.63400
30
81.00000
0
SEQEND
8
27_81000
0
POLYLINE
8
27_81000
62
5
0
VERTEX
8
27_81000
10
-56.17000
20
91.45801
30
81.00000
0
VERTEX
8
27_81000
10
-56.17000
20
91.37901
30
81.00000
0
VERTEX
8
27_81000
10
2.60000
20
91.37901
30
81.00000
0
VERTEX
8
27_81000
10
1.33800
20
91.58801
30
81.00000
0
VERTEX
8
27_81000
10
-56.17000
20
91.58801
30
81.00000
0
VERTEX
8
27_81000
10
-56.17000
20
91.45801
30
81.00000
0
SEQEND
8
27_81000
0
POLYLINE
8
27_81000
62
5
0
VERTEX
8
27_81000
10
-56.17000
20
90.99200
30
81.00000
0
VERTEX
8
27_81000
10
-56.17000
20
90.29501
30
81.00000
0
VERTEX
8
27_81000
10
9.09700
20
90.29501
30
81.00000
0
VERTEX
8
27_81000
10
2.61900
20
91.37501
30
81.00000
0
VERTEX
8
27_81000
10
-56.17000
20
91.37501
30
81.00000
0
VERTEX
8
27_81000
10
-56.17000
20
90.99200
30
81.00000
0
SEQEND
8
27_81000
0
POLYLINE
8
27_81000
62
5
0
VERTEX
8
27_81000
10
-56.17000
20
-9.23700
30
81.00000
0
VERTEX
8
27_81000
10
-56.17000
20
-92.11401
30
81.00000
0
VERTEX
8
27_81000
10
30.49100
20
-92.11401
30
81.00000
0
VERTEX
8
27_81000
10
30.49100
20
-91.13100
30
81.00000
0
VERTEX
8
27_81000
10
30.47700
20
-90.65701
30
81.00000
0
VERTEX
8
27_81000
10
30.51600
20
-90.18900
30
81.00000
0
VERTEX
8
27_81000
10
30.62400
20
-89.77100
30
81.00000
0
VERTEX
8
27_81000
10
30.72500
20
-89.24900
30
81.00000
0
VERTEX
8
27_81000
10
30.91100
20
-88.91300
30
81.00000
0
VERTEX
8
27_81000
10
31.65600
20
-87.77100
30
81.00000
0
VERTEX
8
27_81000
10
32.24500
20
-86.65301
30
81.00000
0
VERTEX
8
27_81000
10
32.36400
20
-86.47100
30
81.00000
0
VERTEX
8
27_81000
10
32.51500
20
-86.20901
30
81.00000
0
VERTEX
8
27_81000
10
32.71100
20
-85.80901
30
81.00000
0
VERTEX
8
27_81000
10
33.07600
20
-85.25900
30
81.00000
0
VERTEX
8
27_81000
10
33.16500
20
-84.99600
30
81.00000
0
VERTEX
8
27_81000
10
33.68600
20
-83.72201
30
81.00000
0
VERTEX
8
27_81000
10
33.70900
20
-83.60101
30
81.00000
0
VERTEX
8
27_81000
10
33.85100
20
-83.33701
30
81.00000
0
VERTEX
8
27_81000
10
33.97500
20
-82.97501
30
81.00000
0
VERTEX
8
27_81000
10
34.15400
20
-82.62000
30
81.00000
0
VERTEX
8
27_81000
10
34.17100
20
-82.56700
30
81.00000
0
VERTEX
8
27_81000
10
34.37300
20
-82.29000
30
81.00000
0
VERTEX
8
27_81000
10
34.45000
20
-82.15601
30
81.00000
0
VERTEX
8
27_81000
10
34.44400
20
-82.09600
30
81.00000
0
VERTEX
8
27_81000
10
34.55800
20
-81.78400
30
81.00000
0
VERTEX
8
27_81000
10
34.57700
20
-81.66400
30
81.00000
0
VERTEX
8
27_81000
10
34.63200
20
-81.41901
30
81.00000
0
VERTEX
8
27_81000
10
34.78100
20
-80.44501
30
81.00000
0
VERTEX
8
27_81000
10
34.79300
20
-80.19901
30
81.00000
0
VERTEX
8
27_81000
10
34.90700
20
-79.49600
30
81.00000
0
VERTEX
8
27_81000
10
35.13000
20
-78.99100
30
81.00000
0
VERTEX
8
27_81000
10
35.17600
20
-78.81700
30
81.00000
0
VERTEX
8
27_81000
10
35.33100
20
-78.36100
30
81.00000
0
VERTEX
8
27_81000
10
35.60100
20
-77.37500
30
81.00000
0
VERTEX
8
27_81000
10
35.89100
20
-75.92200
30
81.00000
0
VERTEX
8
27_81000
10
36.01100
20
-75.20000
30
81.00000
0
VERTEX
8
27_81000
10
36.07400
20
-75.02400
30
81.00000
0
VERTEX
8
27_81000
10
36.12500
20
-74.71500
30
81.00000
0
VERTEX
8
27_81000
10
36.32400
20
-74.05400
30
81.00000
0
VERTEX
8
27_81000
10
36.34000
20
-73.85900
30
81.00000
0
VERTEX
8
27_81000
10
36.31400
20
-73.52100
30
81.00000
0
VERTEX
8
27_81000
10
36.35300
20
-72.92700
30
81.00000
0
VERTEX
8
27_81000
10
36.40900
20
-72.68301
30
81.00000
0
VERTEX
8
27_81000
10
36.44900
20
-72.32700
30
81.00000
0
VERTEX
8
27_81000
10
36.51100
20
-71.95200
30
81.00000
0
VERTEX
8
27_81000
10
36.80200
20
-70.74900
30
81.00000
0
VERTEX
8
27_81000
10
36.85700
20
-70.16400
30
81.00000
0
VERTEX
8
27_81000
10
36.85800
20
-69.93501
30
81.00000
0
VERTEX
8
27_81000
10
36.97300
20
-69.43100
30
81.00000
0
VERTEX
8
27_81000
10
37.19700
20
-68.25800
30
81.00000
0
VERTEX
8
27_81000
10
37.18800
20
-68.10001
30
81.00000
0
VERTEX
8
27_81000
10
37.12400
20
-67.53800
30
81.00000
0
VERTEX
8
27_81000
10
37.04300
20
-66.56001
30
81.00000
0
VERTEX
8
27_81000
10
36.92500
20
-65.71201
30
81.00000
0
VERTEX
8
27_81000
10
36.88500
20
-65.51701
30
81.00000
0
VERTEX
8
27_81000
10
36.90200
20
-64.37901
30
81.00000
0
VERTEX
8
27_81000
10
36.92500
20
-63.89100
30
81.00000
0
VERTEX
8
27_81000
10
36.90500
20
-63.66200
30
81.00000
0
VERTEX
8
27_81000
10
36.96500
20
-63.20300
30
81.00000
0
VERTEX
8
27_81000
10
37.01400
20
-62.97900
30
81.00000
0
VERTEX
8
27_81000
10
36.99900
20
-62.62600
30
81.00000
0
VERTEX
8
27_81000
10
37.00000
20
-62.13900
30
81.00000
0
VERTEX
8
27_81000
10
36.93100
20
-61.92400
30
81.00000
0
VERTEX
8
27_81000
10
36.87800
20
-60.42100
30
81.00000
0
VERTEX
8
27_81000
10
36.87400
20
-59.26100
30
81.00000
0
VERTEX
8
27_81000
10
36.84100
20
-58.21600
30
81.00000
0
VERTEX
8
27_81000
10
36.78500
20
-57.99800
30
81.00000
0
VERTEX
8
27_81000
10
36.81700
20
-57.53900
30
81.00000
0
VERTEX
8
27_81000
10
36.87400
20
-57.04600
30
81.00000
0
VERTEX
8
27_81000
10
36.94600
20
-56.58300
30
81.00000
0
VERTEX
8
27_81000
10
36.97500
20
-56.12500
30
81.00000
0
VERTEX
8
27_81000
10
37.07500
20
-55.63700
30
81.00000
0
VERTEX
8
27_81000
10
37.11300
20
-55.39900
30
81.00000
0
VERTEX
8
27_81000
10
37.12900
20
-54.92300
30
81.00000
0
VERTEX
8
27_81000
10
37.01400
20
-54.03100
30
81.00000
0
VERTEX
8
27_81000
10
37.04500
20
-53.32100
30
81.00000
0
VERTEX
8
27_81000
10
37.08500
20
-53.14400
30
81.00000
0
VERTEX
8
27_81000
10
37.07000
20
-53.02500
30
81.00000
0
VERTEX
8
27_81000
10
37.20700
20
-52.33200
30
81.00000
0
VERTEX
8
27_81000
10
37.17700
20
-52.02900
30
81.00000
0
VERTEX
8
27_81000
10
37.19700
20
-52.00200
30
81.00000
0
VERTEX
8
27_81000
10
37.21800
20
-51.84200
30
81.00000
0
VERTEX
8
27_81000
10
37.25100
20
-51.78700
30
81.00000
0
VERTEX
8
27_81000
10
37.23600
20
-51.55800
30
81.00000
0
VERTEX
8
27_81000
10
37.33600
20
-51.31300
30
81.00000
0
VERTEX
8
27_81000
10
37.23000
20
-50.69200
30
81.00000
0
VERTEX
8
27_81000
10
37.30900
20
-50.32800
30
81.00000
0
VERTEX
8
27_81000
10
37.29100
20
-49.92900
30
81.00000
0
VERTEX
8
27_81000
10
37.23600
20
-49.73400
30
81.00000
0
VERTEX
8
27_81000
10
37.22100
20
-49.58900
30
81.00000
0
VERTEX
8
27_81000
10
37.26600
20
-49.40200
30
81.00000
0
VERTEX
8
27_81000
10
37.35900
20
-48.42700
30
81.00000
0
VERTEX
8
27_81000
10
37.43600
20
-48.06600
30
81.00000
0
VERTEX
8
27_81000
10
37.43400
20
-47.94600
30
81.00000
0
VERTEX
8
27_81000
10
37.53200
20
-47.70600
30
81.00000
0
VERTEX
8
27_81000
10
37.51800
20
-47.46600
30
81.00000
0
VERTEX
8
27_81000
10
37.56400
20
-47.34000
30
81.00000
0
VERTEX
8
27_81000
10
37.68400
20
-47.09900
30
81.00000
0
VERTEX
8
27_81000
10
37.71700
20
-46.86300
30
81.00000
0
VERTEX
8
27_81000
10
38.07900
20
-46.23400
30
81.00000
0
VERTEX
8
27_81000
10
38.16000
20
-45.99700
30
81.00000
0
VERTEX
8
27_81000
10
38.19200
20
-45.84100
30
81.00000
0
VERTEX
8
27_81000
10
38.21400
20
-45.46400
30
81.00000
0
VERTEX
8
27_81000
10
38.16900
20
-45.18200
30
81.00000
0
VERTEX
8
27_81000
10
38.26200
20
-44.98600
30
81.00000
0
VERTEX
8
27_81000
10
38.32500
20
-44.60700
30
81.00000
0
VERTEX
8
27_81000
10
38.32300
20
-44.48600
30
81.00000
0
VERTEX
8
27_81000
10
38.41700
20
-43.96800
30
81.00000
0
VERTEX
8
27_81000
10
38.59700
20
-43.28800
30
81.00000
0
VERTEX
8
27_81000
10
38.52300
20
-42.60900
30
81.00000
0
VERTEX
8
27_81000
10
38.52500
20
-42.48800
30
81.00000
0
VERTEX
8
27_81000
10
38.72700
20
-41.89500
30
81.00000
0
VERTEX
8
27_81000
10
38.73000
20
-41.47300
30
81.00000
0
VERTEX
8
27_81000
10
38.66000
20
-40.82300
30
81.00000
0
VERTEX
8
27_81000
10
38.69100
20
-40.43300
30
81.00000
0
VERTEX
8
27_81000
10
38.62000
20
-39.84300
30
81.00000
0
VERTEX
8
27_81000
10
38.56800
20
-39.13500
30
81.00000
0
VERTEX
8
27_81000
10
38.65600
20
-38.66500
30
81.00000
0
VERTEX
8
27_81000
10
38.94700
20
-37.56100
30
81.00000
0
VERTEX
8
27_81000
10
39.17200
20
-36.91900
30
81.00000
0
VERTEX
8
27_81000
10
39.33300
20
-36.52000
30
81.00000
0
VERTEX
8
27_81000
10
39.62800
20
-35.10700
30
81.00000
0
VERTEX
8
27_81000
10
39.68700
20
-32.98900
30
81.00000
0
VERTEX
8
27_81000
10
39.59600
20
-31.80300
30
81.00000
0
VERTEX
8
27_81000
10
39.42100
20
-30.76100
30
81.00000
0
VERTEX
8
27_81000
10
39.07300
20
-29.40700
30
81.00000
0
VERTEX
8
27_81000
10
38.01000
20
-25.72400
30
81.00000
0
VERTEX
8
27_81000
10
37.96800
20
-25.55400
30
81.00000
0
VERTEX
8
27_81000
10
37.44700
20
-24.44100
30
81.00000
0
VERTEX
8
27_81000
10
37.00400
20
-23.53500
30
81.00000
0
VERTEX
8
27_81000
10
36.97900
20
-23.31000
30
81.00000
0
VERTEX
8
27_81000
10
36.97400
20
-23.19000
30
81.00000
0
VERTEX
8
27_81000
10
37.04500
20
-23.06200
30
81.00000
0
VERTEX
8
27_81000
10
37.21600
20
-22.64100
30
81.00000
0
VERTEX
8
27_81000
10
37.69400
20
-21.87800
30
81.00000
0
VERTEX
8
27_81000
10
38.09300
20
-21.12800
30
81.00000
0
VERTEX
8
27_81000
10
38.55400
20
-20.20100
30
81.00000
0
VERTEX
8
27_81000
10
38.89300
20
-19.33200
30
81.00000
0
VERTEX
8
27_81000
10
39.44500
20
-18.11600
30
81.00000
0
VERTEX
8
27_81000
10
39.90300
20
-16.97500
30
81.00000
0
VERTEX
8
27_81000
10
40.07200
20
-16.51200
30
81.00000
0
VERTEX
8
27_81000
10
40.49900
20
-14.86800
30
81.00000
0
VERTEX
8
27_81000
10
40.55600
20
-14.63600
30
81.00000
0
VERTEX
8
27_81000
10
40.66400
20
-13.99000
30
81.00000
0
VERTEX
8
27_81000
10
40.72400
20
-13.78500
30
81.00000
0
VERTEX
8
27_81000
10
41.01700
20
-12.55700
30
81.00000
0
VERTEX
8
27_81000
10
41.03800
20
-12.41700
30
81.00000
0
VERTEX
8
27_81000
10
41.22000
20
-11.84400
30
81.00000
0
VERTEX
8
27_81000
10
41.28400
20
-11.55600
30
81.00000
0
VERTEX
8
27_81000
10
41.35700
20
-10.98600
30
81.00000
0
VERTEX
8
27_81000
10
41.35700
20
-10.86700
30
81.00000
0
VERTEX
8
27_81000
10
41.31400
20
-10.29000
30
81.00000
0
VERTEX
8
27_81000
10
41.18900
20
-9.68600
30
81.00000
0
VERTEX
8
27_81000
10
41.14400
20
-9.35100
30
81.00000
0
VERTEX
8
27_81000
10
40.99300
20
-8.63000
30
81.00000
0
VERTEX
8
27_81000
10
40.88600
20
-8.22900
30
81.00000
0
VERTEX
8
27_81000
10
40.79500
20
-7.17600
30
81.00000
0
VERTEX
8
27_81000
10
40.80800
20
-6.73600
30
81.00000
0
VERTEX
8
27_81000
10
40.77800
20
-5.16600
30
81.00000
0
VERTEX
8
27_81000
10
40.76000
20
-4.62500
30
81.00000
0
VERTEX
8
27_81000
10
40.69300
20
-3.77200
30
81.00000
0
VERTEX
8
27_81000
10
40.70600
20
-2.50000
30
81.00000
0
VERTEX
8
27_81000
10
40.89800
20
-0.74600
30
81.00000
0
VERTEX
8
27_81000
10
40.94200
20
-0.26600
30
81.00000
0
VERTEX
8
27_81000
10
41.21600
20
1.05100
30
81.00000
0
VERTEX
8
27_81000
10
41.23200
20
1.22300
30
81.00000
0
VERTEX
8
27_81000
10
41.27700
20
1.41900
30
81.00000
0
VERTEX
8
27_81000
10
41.34600
20
1.57800
30
81.00000
0
VERTEX
8
27_81000
10
41.75800
20
2.95200
30
81.00000
0
VERTEX
8
27_81000
10
42.13500
20
3.69400
30
81.00000
0
VERTEX
8
27_81000
10
42.40400
20
3.99200
30
81.00000
0
VERTEX
8
27_81000
10
42.97100
20
4.56400
30
81.00000
0
VERTEX
8
27_81000
10
43.89300
20
5.32300
30
81.00000
0
VERTEX
8
27_81000
10
45.10300
20
6.33900
30
81.00000
0
VERTEX
8
27_81000
10
45.36300
20
6.60400
30
81.00000
0
VERTEX
8
27_81000
10
45.47600
20
6.70700
30
81.00000
0
VERTEX
8
27_81000
10
46.34000
20
7.32900
30
81.00000
0
VERTEX
8
27_81000
10
48.35100
20
8.69500
30
81.00000
0
VERTEX
8
27_81000
10
48.89900
20
9.17500
30
81.00000
0
VERTEX
8
27_81000
10
49.12200
20
9.38700
30
81.00000
0
VERTEX
8
27_81000
10
49.17700
20
9.45100
30
81.00000
0
VERTEX
8
27_81000
10
50.96700
20
12.00600
30
81.00000
0
VERTEX
8
27_81000
10
51.82400
20
13.90500
30
81.00000
0
VERTEX
8
27_81000
10
51.98400
20
14.33900
30
81.00000
0
VERTEX
8
27_81000
10
52.14900
20
15.18000
30
81.00000
0
VERTEX
8
27_81000
10
52.24100
20
16.14200
30
81.00000
0
VERTEX
8
27_81000
10
52.24000
20
16.30400
30
81.00000
0
VERTEX
8
27_81000
10
51.87700
20
18.28500
30
81.00000
0
VERTEX
8
27_81000
10
51.69600
20
18.73900
30
81.00000
0
VERTEX
8
27_81000
10
50.77700
20
20.70500
30
81.00000
0
VERTEX
8
27_81000
10
50.49600
20
21.12300
30
81.00000
0
VERTEX
8
27_81000
10
48.63700
20
23.69500
30
81.00000
0
VERTEX
8
27_81000
10
46.91600
20
25.77400
30
81.00000
0
VERTEX
8
27_81000
10
45.79500
20
27.01100
30
81.00000
0
VERTEX
8
27_81000
10
44.41200
20
28.69500
30
81.00000
0
VERTEX
8
27_81000
10
41.88100
20
31.84300
30
81.00000
0
VERTEX
8
27_81000
10
41.03100
20
32.98200
30
81.00000
0
VERTEX
8
27_81000
10
39.91900
20
34.67900
30
81.00000
0
VERTEX
8
27_81000
10
39.20000
20
35.74700
30
81.00000
0
VERTEX
8
27_81000
10
39.00000
20
36.10000
30
81.00000
0
VERTEX
8
27_81000
10
37.86700
20
38.15200
30
81.00000
0
VERTEX
8
27_81000
10
37.63300
20
38.60600
30
81.00000
0
VERTEX
8
27_81000
10
37.45400
20
39.00000
30
81.00000
0
VERTEX
8
27_81000
10
35.72600
20
43.16000
30
81.00000
0
VERTEX
8
27_81000
10
35.49900
20
43.78600
30
81.00000
0
VERTEX
8
27_81000
10
34.70400
20
46.39500
30
81.00000
0
VERTEX
8
27_81000
10
34.35900
20
47.46800
30
81.00000
0
VERTEX
8
27_81000
10
34.11600
20
48.59400
30
81.00000
0
VERTEX
8
27_81000
10
33.96100
20
50.10700
30
81.00000
0
VERTEX
8
27_81000
10
33.90100
20
50.87800
30
81.00000
0
VERTEX
8
27_81000
10
34.02900
20
52.40000
30
81.00000
0
VERTEX
8
27_81000
10
34.01500
20
52.60100
30
81.00000
0
VERTEX
8
27_81000
10
34.05500
20
52.89300
30
81.00000
0
VERTEX
8
27_81000
10
34.41000
20
54.70000
30
81.00000
0
VERTEX
8
27_81000
10
34.51900
20
54.95400
30
81.00000
0
VERTEX
8
27_81000
10
34.71400
20
55.87600
30
81.00000
0
VERTEX
8
27_81000
10
34.90400
20
56.34500
30
81.00000
0
VERTEX
8
27_81000
10
35.06100
20
56.83100
30
81.00000
0
VERTEX
8
27_81000
10
35.71100
20
59.53100
30
81.00000
0
VERTEX
8
27_81000
10
35.86700
20
59.97400
30
81.00000
0
VERTEX
8
27_81000
10
36.09500
20
60.51700
30
81.00000
0
VERTEX
8
27_81000
10
36.54200
20
62.16400
30
81.00000
0
VERTEX
8
27_81000
10
36.71800
20
62.56700
30
81.00000
0
VERTEX
8
27_81000
10
37.04400
20
63.63300
30
81.00000
0
VERTEX
8
27_81000
10
37.48600
20
64.77500
30
81.00000
0
VERTEX
8
27_81000
10
37.62900
20
65.28101
30
81.00000
0
VERTEX
8
27_81000
10
38.05300
20
66.29700
30
81.00000
0
VERTEX
8
27_81000
10
38.36200
20
67.45300
30
81.00000
0
VERTEX
8
27_81000
10
38.48700
20
67.88300
30
81.00000
0
VERTEX
8
27_81000
10
38.60800
20
68.47200
30
81.00000
0
VERTEX
8
27_81000
10
38.89600
20
69.68900
30
81.00000
0
VERTEX
8
27_81000
10
38.94300
20
70.05000
30
81.00000
0
VERTEX
8
27_81000
10
39.40200
20
72.82500
30
81.00000
0
VERTEX
8
27_81000
10
39.51000
20
73.86600
30
81.00000
0
VERTEX
8
27_81000
10
39.58400
20
74.87300
30
81.00000
0
VERTEX
8
27_81000
10
39.68500
20
78.94000
30
81.00000
0
VERTEX
8
27_81000
10
39.61500
20
80.81100
30
81.00000
0
VERTEX
8
27_81000
10
39.54600
20
81.55901
30
81.00000
0
VERTEX
8
27_81000
10
39.52900
20
82.31300
30
81.00000
0
VERTEX
8
27_81000
10
39.52900
20
83.44801
30
81.00000
0
VERTEX
8
27_81000
10
39.55800
20
84.39201
30
81.00000
0
VERTEX
8
27_81000
10
39.60600
20
85.01501
30
81.00000
0
VERTEX
8
27_81000
10
39.60800
20
85.20100
30
81.00000
0
VERTEX
8
27_81000
10
16.80300
20
89.00900
30
81.00000
0
VERTEX
8
27_81000
10
-56.17000
20
89.00900
30
81.00000
0
VERTEX
8
27_81000
10
-56.17000
20
-9.23700
30
81.00000
0
SEQEND
8
27_81000
0
POLYLINE
8
27_81000
62
5
0
VERTEX
8
27_81000
10
13.71200
20
89.52300
30
81.00000
0
VERTEX
8
27_81000
10
9.13000
20
90.28800
30
81.00000
0
VERTEX
8
27_81000
10
-56.17000
20
90.28800
30
81.00000
0
VERTEX
8
27_81000
10
-56.17000
20
89.01000
30
81.00000
0
VERTEX
8
27_81000
10
16.79400
20
89.01000
30
81.00000
0
VERTEX
8
27_81000
10
13.71200
20
89.52300
30
81.00000
0
SEQEND
8
27_81000
0
ENDSEC
0
EOF
