0
SECTION
2
HEADER
9
$ACADVER
1
AC1009
0
ENDSEC
0
SECTION
2
TABLES
0
TABLE
2
LAYER
70
1
0
LAYER
2
6_18000
70
0
62
7
6
CONTINUOUS
0
ENDTAB
0
ENDSEC
0
SECTION
2
BLOCKS
0
ENDSEC
0
SECTION
2
ENTITIES
0
POLYLINE
8
6_18000
62
5
0
VERTEX
8
6_18000
10
-49.84000
20
91.33401
30
18.00000
0
VERTEX
8
6_18000
10
2.86700
20
91.33401
30
18.00000
0
VERTEX
8
6_18000
10
2.80400
20
91.34500
30
18.00000
0
VERTEX
8
6_18000
10
-56.17000
20
91.34500
30
18.00000
0
VERTEX
8
6_18000
10
-56.17000
20
91.33401
30
18.00000
0
VERTEX
8
6_18000
10
-49.84000
20
91.33401
30
18.00000
0
SEQEND
8
6_18000
0
POLYLINE
8
6_18000
62
5
0
VERTEX
8
6_18000
10
-49.83500
20
91.33301
30
18.00000
0
VERTEX
8
6_18000
10
-56.17000
20
91.33301
30
18.00000
0
VERTEX
8
6_18000
10
-56.17000
20
91.31901
30
18.00000
0
VERTEX
8
6_18000
10
2.95300
20
91.31901
30
18.00000
0
VERTEX
8
6_18000
10
2.87200
20
91.33301
30
18.00000
0
VERTEX
8
6_18000
10
-49.83500
20
91.33301
30
18.00000
0
SEQEND
8
6_18000
0
POLYLINE
8
6_18000
62
5
0
VERTEX
8
6_18000
10
-49.55000
20
91.27801
30
18.00000
0
VERTEX
8
6_18000
10
3.20200
20
91.27801
30
18.00000
0
VERTEX
8
6_18000
10
2.95600
20
91.31901
30
18.00000
0
VERTEX
8
6_18000
10
-56.17000
20
91.31901
30
18.00000
0
VERTEX
8
6_18000
10
-56.17000
20
91.27801
30
18.00000
0
VERTEX
8
6_18000
10
-49.55000
20
91.27801
30
18.00000
0
SEQEND
8
6_18000
0
POLYLINE
8
6_18000
62
5
0
VERTEX
8
6_18000
10
-19.84600
20
90.81901
30
18.00000
0
VERTEX
8
6_18000
10
-56.17000
20
90.81901
30
18.00000
0
VERTEX
8
6_18000
10
-56.17000
20
-92.11401
30
18.00000
0
VERTEX
8
6_18000
10
-4.76800
20
-92.11401
30
18.00000
0
VERTEX
8
6_18000
10
-4.85800
20
-91.91100
30
18.00000
0
VERTEX
8
6_18000
10
-6.30100
20
-88.05300
30
18.00000
0
VERTEX
8
6_18000
10
-6.53600
20
-87.29601
30
18.00000
0
VERTEX
8
6_18000
10
-7.76700
20
-83.92300
30
18.00000
0
VERTEX
8
6_18000
10
-8.09000
20
-83.00101
30
18.00000
0
VERTEX
8
6_18000
10
-8.23800
20
-82.61800
30
18.00000
0
VERTEX
8
6_18000
10
-8.68800
20
-81.39101
30
18.00000
0
VERTEX
8
6_18000
10
-8.88800
20
-80.71800
30
18.00000
0
VERTEX
8
6_18000
10
-9.30100
20
-79.21500
30
18.00000
0
VERTEX
8
6_18000
10
-9.43300
20
-78.64900
30
18.00000
0
VERTEX
8
6_18000
10
-9.74100
20
-77.01900
30
18.00000
0
VERTEX
8
6_18000
10
-9.96400
20
-75.90300
30
18.00000
0
VERTEX
8
6_18000
10
-10.02400
20
-75.53500
30
18.00000
0
VERTEX
8
6_18000
10
-10.18700
20
-74.77600
30
18.00000
0
VERTEX
8
6_18000
10
-10.25000
20
-74.55300
30
18.00000
0
VERTEX
8
6_18000
10
-10.29700
20
-74.32201
30
18.00000
0
VERTEX
8
6_18000
10
-10.30100
20
-71.95400
30
18.00000
0
VERTEX
8
6_18000
10
-10.26100
20
-71.53201
30
18.00000
0
VERTEX
8
6_18000
10
-10.03400
20
-70.44701
30
18.00000
0
VERTEX
8
6_18000
10
-9.88700
20
-70.17200
30
18.00000
0
VERTEX
8
6_18000
10
-9.73200
20
-69.79601
30
18.00000
0
VERTEX
8
6_18000
10
-9.64800
20
-69.53300
30
18.00000
0
VERTEX
8
6_18000
10
-9.48300
20
-69.21800
30
18.00000
0
VERTEX
8
6_18000
10
-9.33900
20
-68.99001
30
18.00000
0
VERTEX
8
6_18000
10
-9.29800
20
-68.94901
30
18.00000
0
VERTEX
8
6_18000
10
-8.52200
20
-67.87701
30
18.00000
0
VERTEX
8
6_18000
10
-8.34900
20
-67.71800
30
18.00000
0
VERTEX
8
6_18000
10
-7.42500
20
-66.53900
30
18.00000
0
VERTEX
8
6_18000
10
-7.31300
20
-66.34800
30
18.00000
0
VERTEX
8
6_18000
10
-6.45400
20
-65.29100
30
18.00000
0
VERTEX
8
6_18000
10
-5.66100
20
-64.12000
30
18.00000
0
VERTEX
8
6_18000
10
-4.98800
20
-63.28400
30
18.00000
0
VERTEX
8
6_18000
10
-4.29200
20
-62.37800
30
18.00000
0
VERTEX
8
6_18000
10
-3.59300
20
-61.16800
30
18.00000
0
VERTEX
8
6_18000
10
-3.08300
20
-60.37400
30
18.00000
0
VERTEX
8
6_18000
10
-2.38800
20
-59.34800
30
18.00000
0
VERTEX
8
6_18000
10
-1.97400
20
-58.65200
30
18.00000
0
VERTEX
8
6_18000
10
-1.41000
20
-57.56400
30
18.00000
0
VERTEX
8
6_18000
10
-1.05900
20
-57.05300
30
18.00000
0
VERTEX
8
6_18000
10
-0.87400
20
-56.54900
30
18.00000
0
VERTEX
8
6_18000
10
-0.55700
20
-56.05700
30
18.00000
0
VERTEX
8
6_18000
10
-0.35800
20
-55.70200
30
18.00000
0
VERTEX
8
6_18000
10
-0.40400
20
-55.55100
30
18.00000
0
VERTEX
8
6_18000
10
-0.09600
20
-55.03900
30
18.00000
0
VERTEX
8
6_18000
10
0.01900
20
-54.64800
30
18.00000
0
VERTEX
8
6_18000
10
0.03700
20
-54.50800
30
18.00000
0
VERTEX
8
6_18000
10
0.90400
20
-52.57600
30
18.00000
0
VERTEX
8
6_18000
10
1.58900
20
-51.24900
30
18.00000
0
VERTEX
8
6_18000
10
2.07200
20
-49.68000
30
18.00000
0
VERTEX
8
6_18000
10
2.15300
20
-49.38500
30
18.00000
0
VERTEX
8
6_18000
10
2.19200
20
-49.28600
30
18.00000
0
VERTEX
8
6_18000
10
2.37700
20
-48.90600
30
18.00000
0
VERTEX
8
6_18000
10
2.46300
20
-48.54800
30
18.00000
0
VERTEX
8
6_18000
10
2.46000
20
-48.51600
30
18.00000
0
VERTEX
8
6_18000
10
3.03200
20
-47.46400
30
18.00000
0
VERTEX
8
6_18000
10
3.06300
20
-47.31400
30
18.00000
0
VERTEX
8
6_18000
10
3.27300
20
-46.93200
30
18.00000
0
VERTEX
8
6_18000
10
3.79900
20
-45.88800
30
18.00000
0
VERTEX
8
6_18000
10
3.92300
20
-45.67200
30
18.00000
0
VERTEX
8
6_18000
10
4.42500
20
-44.90700
30
18.00000
0
VERTEX
8
6_18000
10
4.48100
20
-44.78800
30
18.00000
0
VERTEX
8
6_18000
10
4.71500
20
-44.02400
30
18.00000
0
VERTEX
8
6_18000
10
5.10000
20
-43.36600
30
18.00000
0
VERTEX
8
6_18000
10
5.84100
20
-41.97900
30
18.00000
0
VERTEX
8
6_18000
10
5.87900
20
-41.81300
30
18.00000
0
VERTEX
8
6_18000
10
5.93700
20
-41.72700
30
18.00000
0
VERTEX
8
6_18000
10
6.25400
20
-41.04300
30
18.00000
0
VERTEX
8
6_18000
10
6.38000
20
-40.67100
30
18.00000
0
VERTEX
8
6_18000
10
6.60000
20
-40.17000
30
18.00000
0
VERTEX
8
6_18000
10
7.24600
20
-39.01300
30
18.00000
0
VERTEX
8
6_18000
10
7.33600
20
-38.68600
30
18.00000
0
VERTEX
8
6_18000
10
7.50300
20
-37.90700
30
18.00000
0
VERTEX
8
6_18000
10
7.78100
20
-37.20800
30
18.00000
0
VERTEX
8
6_18000
10
7.96500
20
-36.66400
30
18.00000
0
VERTEX
8
6_18000
10
8.13300
20
-35.95900
30
18.00000
0
VERTEX
8
6_18000
10
8.37300
20
-34.38700
30
18.00000
0
VERTEX
8
6_18000
10
8.43400
20
-34.22300
30
18.00000
0
VERTEX
8
6_18000
10
8.45300
20
-34.13800
30
18.00000
0
VERTEX
8
6_18000
10
8.56200
20
-33.78100
30
18.00000
0
VERTEX
8
6_18000
10
8.73800
20
-32.73800
30
18.00000
0
VERTEX
8
6_18000
10
9.06300
20
-31.55800
30
18.00000
0
VERTEX
8
6_18000
10
9.43700
20
-30.51000
30
18.00000
0
VERTEX
8
6_18000
10
10.00100
20
-28.84200
30
18.00000
0
VERTEX
8
6_18000
10
10.08800
20
-28.43800
30
18.00000
0
VERTEX
8
6_18000
10
10.23400
20
-27.91300
30
18.00000
0
VERTEX
8
6_18000
10
10.56200
20
-27.11200
30
18.00000
0
VERTEX
8
6_18000
10
10.65900
20
-26.70100
30
18.00000
0
VERTEX
8
6_18000
10
10.96600
20
-25.92900
30
18.00000
0
VERTEX
8
6_18000
10
11.01300
20
-25.70000
30
18.00000
0
VERTEX
8
6_18000
10
11.41500
20
-24.47000
30
18.00000
0
VERTEX
8
6_18000
10
11.51900
20
-23.81800
30
18.00000
0
VERTEX
8
6_18000
10
11.57400
20
-23.62200
30
18.00000
0
VERTEX
8
6_18000
10
11.82800
20
-22.59000
30
18.00000
0
VERTEX
8
6_18000
10
12.08600
20
-21.39700
30
18.00000
0
VERTEX
8
6_18000
10
12.10200
20
-20.57000
30
18.00000
0
VERTEX
8
6_18000
10
12.15200
20
-20.29300
30
18.00000
0
VERTEX
8
6_18000
10
12.27900
20
-19.74100
30
18.00000
0
VERTEX
8
6_18000
10
12.40700
20
-19.01300
30
18.00000
0
VERTEX
8
6_18000
10
12.74600
20
-18.00600
30
18.00000
0
VERTEX
8
6_18000
10
13.40800
20
-15.73400
30
18.00000
0
VERTEX
8
6_18000
10
14.16900
20
-13.28600
30
18.00000
0
VERTEX
8
6_18000
10
15.45300
20
-9.22100
30
18.00000
0
VERTEX
8
6_18000
10
16.77700
20
-4.55300
30
18.00000
0
VERTEX
8
6_18000
10
17.17000
20
-2.79800
30
18.00000
0
VERTEX
8
6_18000
10
17.61300
20
-0.55400
30
18.00000
0
VERTEX
8
6_18000
10
17.82300
20
1.00100
30
18.00000
0
VERTEX
8
6_18000
10
18.07400
20
3.88200
30
18.00000
0
VERTEX
8
6_18000
10
18.14400
20
5.65100
30
18.00000
0
VERTEX
8
6_18000
10
18.01200
20
11.07400
30
18.00000
0
VERTEX
8
6_18000
10
17.98600
20
11.45300
30
18.00000
0
VERTEX
8
6_18000
10
17.79000
20
15.56400
30
18.00000
0
VERTEX
8
6_18000
10
17.74200
20
18.05000
30
18.00000
0
VERTEX
8
6_18000
10
17.73100
20
18.99900
30
18.00000
0
VERTEX
8
6_18000
10
17.76600
20
19.77900
30
18.00000
0
VERTEX
8
6_18000
10
17.76500
20
20.25000
30
18.00000
0
VERTEX
8
6_18000
10
17.62100
20
22.29300
30
18.00000
0
VERTEX
8
6_18000
10
17.41000
20
24.49700
30
18.00000
0
VERTEX
8
6_18000
10
17.31800
20
25.16500
30
18.00000
0
VERTEX
8
6_18000
10
16.99900
20
26.84000
30
18.00000
0
VERTEX
8
6_18000
10
16.68000
20
28.41400
30
18.00000
0
VERTEX
8
6_18000
10
16.64600
20
28.63000
30
18.00000
0
VERTEX
8
6_18000
10
16.42600
20
29.65200
30
18.00000
0
VERTEX
8
6_18000
10
16.17700
20
30.45800
30
18.00000
0
VERTEX
8
6_18000
10
15.78600
20
32.06300
30
18.00000
0
VERTEX
8
6_18000
10
15.65900
20
32.69200
30
18.00000
0
VERTEX
8
6_18000
10
15.27500
20
34.44700
30
18.00000
0
VERTEX
8
6_18000
10
15.13400
20
35.37500
30
18.00000
0
VERTEX
8
6_18000
10
14.98600
20
36.67500
30
18.00000
0
VERTEX
8
6_18000
10
14.71100
20
38.16300
30
18.00000
0
VERTEX
8
6_18000
10
14.60700
20
38.86600
30
18.00000
0
VERTEX
8
6_18000
10
14.33400
20
40.38700
30
18.00000
0
VERTEX
8
6_18000
10
14.20400
20
41.70500
30
18.00000
0
VERTEX
8
6_18000
10
14.15500
20
42.29700
30
18.00000
0
VERTEX
8
6_18000
10
14.18800
20
42.62100
30
18.00000
0
VERTEX
8
6_18000
10
14.24800
20
42.91700
30
18.00000
0
VERTEX
8
6_18000
10
14.28400
20
43.29800
30
18.00000
0
VERTEX
8
6_18000
10
14.41000
20
43.70300
30
18.00000
0
VERTEX
8
6_18000
10
14.54800
20
44.00600
30
18.00000
0
VERTEX
8
6_18000
10
14.71300
20
44.29000
30
18.00000
0
VERTEX
8
6_18000
10
14.94100
20
44.82500
30
18.00000
0
VERTEX
8
6_18000
10
15.03100
20
45.11000
30
18.00000
0
VERTEX
8
6_18000
10
15.79500
20
46.34400
30
18.00000
0
VERTEX
8
6_18000
10
16.10200
20
47.06500
30
18.00000
0
VERTEX
8
6_18000
10
16.30000
20
47.55300
30
18.00000
0
VERTEX
8
6_18000
10
16.36600
20
47.90200
30
18.00000
0
VERTEX
8
6_18000
10
16.67500
20
48.65000
30
18.00000
0
VERTEX
8
6_18000
10
16.98200
20
49.78100
30
18.00000
0
VERTEX
8
6_18000
10
17.51700
20
52.61200
30
18.00000
0
VERTEX
8
6_18000
10
17.62500
20
53.03100
30
18.00000
0
VERTEX
8
6_18000
10
17.82400
20
54.02900
30
18.00000
0
VERTEX
8
6_18000
10
18.29600
20
55.44700
30
18.00000
0
VERTEX
8
6_18000
10
18.31800
20
55.65400
30
18.00000
0
VERTEX
8
6_18000
10
18.40900
20
56.04000
30
18.00000
0
VERTEX
8
6_18000
10
19.63200
20
59.44400
30
18.00000
0
VERTEX
8
6_18000
10
19.73400
20
59.84000
30
18.00000
0
VERTEX
8
6_18000
10
20.01400
20
60.78400
30
18.00000
0
VERTEX
8
6_18000
10
20.99700
20
64.37600
30
18.00000
0
VERTEX
8
6_18000
10
21.25000
20
65.78400
30
18.00000
0
VERTEX
8
6_18000
10
21.56500
20
67.14600
30
18.00000
0
VERTEX
8
6_18000
10
21.70700
20
67.99600
30
18.00000
0
VERTEX
8
6_18000
10
21.69900
20
69.09400
30
18.00000
0
VERTEX
8
6_18000
10
21.67800
20
70.32500
30
18.00000
0
VERTEX
8
6_18000
10
21.55600
20
71.59500
30
18.00000
0
VERTEX
8
6_18000
10
21.29900
20
73.26601
30
18.00000
0
VERTEX
8
6_18000
10
20.62300
20
77.13800
30
18.00000
0
VERTEX
8
6_18000
10
20.25400
20
78.69701
30
18.00000
0
VERTEX
8
6_18000
10
20.11900
20
79.31400
30
18.00000
0
VERTEX
8
6_18000
10
19.76100
20
80.64301
30
18.00000
0
VERTEX
8
6_18000
10
19.67700
20
81.04301
30
18.00000
0
VERTEX
8
6_18000
10
18.84900
20
84.15301
30
18.00000
0
VERTEX
8
6_18000
10
17.89100
20
87.91300
30
18.00000
0
VERTEX
8
6_18000
10
17.77500
20
88.28500
30
18.00000
0
VERTEX
8
6_18000
10
17.52100
20
88.88800
30
18.00000
0
VERTEX
8
6_18000
10
5.95500
20
90.81901
30
18.00000
0
VERTEX
8
6_18000
10
-19.84600
20
90.81901
30
18.00000
0
SEQEND
8
6_18000
0
POLYLINE
8
6_18000
62
5
0
VERTEX
8
6_18000
10
-49.04200
20
91.06800
30
18.00000
0
VERTEX
8
6_18000
10
4.46000
20
91.06800
30
18.00000
0
VERTEX
8
6_18000
10
3.20500
20
91.27701
30
18.00000
0
VERTEX
8
6_18000
10
-56.17000
20
91.27701
30
18.00000
0
VERTEX
8
6_18000
10
-56.17000
20
91.06800
30
18.00000
0
VERTEX
8
6_18000
10
-49.04200
20
91.06800
30
18.00000
0
SEQEND
8
6_18000
0
POLYLINE
8
6_18000
62
5
0
VERTEX
8
6_18000
10
5.35600
20
90.91801
30
18.00000
0
VERTEX
8
6_18000
10
4.46700
20
91.06700
30
18.00000
0
VERTEX
8
6_18000
10
-56.17000
20
91.06700
30
18.00000
0
VERTEX
8
6_18000
10
-56.17000
20
90.81901
30
18.00000
0
VERTEX
8
6_18000
10
5.95300
20
90.81901
30
18.00000
0
VERTEX
8
6_18000
10
5.35600
20
90.91801
30
18.00000
0
SEQEND
8
6_18000
0
ENDSEC
0
EOF
