0
SECTION
2
HEADER
9
$ACADVER
1
AC1009
0
ENDSEC
0
SECTION
2
TABLES
0
TABLE
2
LAYER
70
1
0
LAYER
2
45_135000
70
0
62
7
6
CONTINUOUS
0
ENDTAB
0
ENDSEC
0
SECTION
2
BLOCKS
0
ENDSEC
0
SECTION
2
ENTITIES
0
POLYLINE
8
45_135000
62
5
0
VERTEX
8
45_135000
10
-51.85800
20
91.95300
30
135.00000
0
VERTEX
8
45_135000
10
-0.83400
20
91.95300
30
135.00000
0
VERTEX
8
45_135000
10
-1.38300
20
92.04401
30
135.00000
0
VERTEX
8
45_135000
10
-56.17000
20
92.04401
30
135.00000
0
VERTEX
8
45_135000
10
-56.17000
20
91.95300
30
135.00000
0
VERTEX
8
45_135000
10
-51.85800
20
91.95300
30
135.00000
0
SEQEND
8
45_135000
0
POLYLINE
8
45_135000
62
5
0
VERTEX
8
45_135000
10
-52.31600
20
91.90100
30
135.00000
0
VERTEX
8
45_135000
10
-0.52800
20
91.90100
30
135.00000
0
VERTEX
8
45_135000
10
-0.79400
20
91.94601
30
135.00000
0
VERTEX
8
45_135000
10
-56.17000
20
91.94601
30
135.00000
0
VERTEX
8
45_135000
10
-56.17000
20
91.90100
30
135.00000
0
VERTEX
8
45_135000
10
-52.31600
20
91.90100
30
135.00000
0
SEQEND
8
45_135000
0
POLYLINE
8
45_135000
62
5
0
VERTEX
8
45_135000
10
-56.17000
20
91.87701
30
135.00000
0
VERTEX
8
45_135000
10
-56.17000
20
91.82700
30
135.00000
0
VERTEX
8
45_135000
10
-0.08200
20
91.82700
30
135.00000
0
VERTEX
8
45_135000
10
-0.51700
20
91.89800
30
135.00000
0
VERTEX
8
45_135000
10
-56.17000
20
91.89800
30
135.00000
0
VERTEX
8
45_135000
10
-56.17000
20
91.87701
30
135.00000
0
SEQEND
8
45_135000
0
POLYLINE
8
45_135000
62
5
0
VERTEX
8
45_135000
10
-56.17000
20
91.59000
30
135.00000
0
VERTEX
8
45_135000
10
-56.17000
20
91.46400
30
135.00000
0
VERTEX
8
45_135000
10
2.08600
20
91.46400
30
135.00000
0
VERTEX
8
45_135000
10
-0.04900
20
91.82001
30
135.00000
0
VERTEX
8
45_135000
10
-56.17000
20
91.82001
30
135.00000
0
VERTEX
8
45_135000
10
-56.17000
20
91.59000
30
135.00000
0
SEQEND
8
45_135000
0
POLYLINE
8
45_135000
62
5
0
VERTEX
8
45_135000
10
3.78800
20
91.17900
30
135.00000
0
VERTEX
8
45_135000
10
2.11900
20
91.46001
30
135.00000
0
VERTEX
8
45_135000
10
-56.17000
20
91.46001
30
135.00000
0
VERTEX
8
45_135000
10
-56.17000
20
-92.11401
30
135.00000
0
VERTEX
8
45_135000
10
30.08900
20
-92.11401
30
135.00000
0
VERTEX
8
45_135000
10
28.61100
20
-89.82800
30
135.00000
0
VERTEX
8
45_135000
10
27.59200
20
-88.22201
30
135.00000
0
VERTEX
8
45_135000
10
26.47200
20
-86.60500
30
135.00000
0
VERTEX
8
45_135000
10
25.41800
20
-84.97900
30
135.00000
0
VERTEX
8
45_135000
10
23.68400
20
-82.57401
30
135.00000
0
VERTEX
8
45_135000
10
22.83400
20
-81.35900
30
135.00000
0
VERTEX
8
45_135000
10
22.12800
20
-80.44701
30
135.00000
0
VERTEX
8
45_135000
10
21.08000
20
-78.97000
30
135.00000
0
VERTEX
8
45_135000
10
18.60400
20
-75.60600
30
135.00000
0
VERTEX
8
45_135000
10
16.91500
20
-73.34300
30
135.00000
0
VERTEX
8
45_135000
10
15.38000
20
-71.22200
30
135.00000
0
VERTEX
8
45_135000
10
14.46700
20
-69.91801
30
135.00000
0
VERTEX
8
45_135000
10
13.12200
20
-67.96201
30
135.00000
0
VERTEX
8
45_135000
10
12.46500
20
-66.90000
30
135.00000
0
VERTEX
8
45_135000
10
10.75000
20
-64.36501
30
135.00000
0
VERTEX
8
45_135000
10
10.49100
20
-63.97100
30
135.00000
0
VERTEX
8
45_135000
10
10.44400
20
-63.85300
30
135.00000
0
VERTEX
8
45_135000
10
10.08100
20
-63.24700
30
135.00000
0
VERTEX
8
45_135000
10
10.07800
20
-63.22800
30
135.00000
0
VERTEX
8
45_135000
10
9.75200
20
-62.58200
30
135.00000
0
VERTEX
8
45_135000
10
9.53700
20
-61.87300
30
135.00000
0
VERTEX
8
45_135000
10
9.53400
20
-61.84500
30
135.00000
0
VERTEX
8
45_135000
10
8.93300
20
-60.11600
30
135.00000
0
VERTEX
8
45_135000
10
8.86500
20
-59.88700
30
135.00000
0
VERTEX
8
45_135000
10
8.82200
20
-59.62500
30
135.00000
0
VERTEX
8
45_135000
10
8.44400
20
-58.28300
30
135.00000
0
VERTEX
8
45_135000
10
8.08800
20
-56.95900
30
135.00000
0
VERTEX
8
45_135000
10
7.68100
20
-55.61800
30
135.00000
0
VERTEX
8
45_135000
10
7.60500
20
-55.38900
30
135.00000
0
VERTEX
8
45_135000
10
7.45300
20
-55.02200
30
135.00000
0
VERTEX
8
45_135000
10
7.41500
20
-54.85200
30
135.00000
0
VERTEX
8
45_135000
10
7.15800
20
-54.09300
30
135.00000
0
VERTEX
8
45_135000
10
7.01000
20
-53.44200
30
135.00000
0
VERTEX
8
45_135000
10
6.91200
20
-53.16900
30
135.00000
0
VERTEX
8
45_135000
10
6.87600
20
-52.96500
30
135.00000
0
VERTEX
8
45_135000
10
6.62400
20
-51.76600
30
135.00000
0
VERTEX
8
45_135000
10
6.52500
20
-51.36100
30
135.00000
0
VERTEX
8
45_135000
10
6.51400
20
-51.21900
30
135.00000
0
VERTEX
8
45_135000
10
6.40200
20
-50.75600
30
135.00000
0
VERTEX
8
45_135000
10
6.16400
20
-49.35000
30
135.00000
0
VERTEX
8
45_135000
10
6.13700
20
-49.05300
30
135.00000
0
VERTEX
8
45_135000
10
6.06100
20
-48.57000
30
135.00000
0
VERTEX
8
45_135000
10
6.06900
20
-48.46200
30
135.00000
0
VERTEX
8
45_135000
10
5.96200
20
-48.08800
30
135.00000
0
VERTEX
8
45_135000
10
5.97000
20
-47.72300
30
135.00000
0
VERTEX
8
45_135000
10
5.93200
20
-47.24800
30
135.00000
0
VERTEX
8
45_135000
10
5.83000
20
-47.03300
30
135.00000
0
VERTEX
8
45_135000
10
5.82600
20
-46.81000
30
135.00000
0
VERTEX
8
45_135000
10
5.83300
20
-46.62500
30
135.00000
0
VERTEX
8
45_135000
10
5.82900
20
-44.65000
30
135.00000
0
VERTEX
8
45_135000
10
5.90200
20
-43.20900
30
135.00000
0
VERTEX
8
45_135000
10
5.95200
20
-42.73300
30
135.00000
0
VERTEX
8
45_135000
10
6.17200
20
-41.69400
30
135.00000
0
VERTEX
8
45_135000
10
6.36000
20
-40.92700
30
135.00000
0
VERTEX
8
45_135000
10
6.43500
20
-40.54700
30
135.00000
0
VERTEX
8
45_135000
10
6.69600
20
-39.43100
30
135.00000
0
VERTEX
8
45_135000
10
7.02000
20
-37.60500
30
135.00000
0
VERTEX
8
45_135000
10
7.29000
20
-36.50100
30
135.00000
0
VERTEX
8
45_135000
10
7.35200
20
-36.04000
30
135.00000
0
VERTEX
8
45_135000
10
7.51500
20
-35.41500
30
135.00000
0
VERTEX
8
45_135000
10
7.67600
20
-34.33900
30
135.00000
0
VERTEX
8
45_135000
10
7.72300
20
-33.86100
30
135.00000
0
VERTEX
8
45_135000
10
7.79200
20
-33.40000
30
135.00000
0
VERTEX
8
45_135000
10
8.16300
20
-31.42300
30
135.00000
0
VERTEX
8
45_135000
10
8.28600
20
-30.68800
30
135.00000
0
VERTEX
8
45_135000
10
8.30100
20
-30.36800
30
135.00000
0
VERTEX
8
45_135000
10
8.34600
20
-30.05900
30
135.00000
0
VERTEX
8
45_135000
10
8.34100
20
-29.91500
30
135.00000
0
VERTEX
8
45_135000
10
8.35500
20
-29.82300
30
135.00000
0
VERTEX
8
45_135000
10
8.44900
20
-29.46000
30
135.00000
0
VERTEX
8
45_135000
10
8.70500
20
-28.02500
30
135.00000
0
VERTEX
8
45_135000
10
8.87200
20
-27.64100
30
135.00000
0
VERTEX
8
45_135000
10
8.93600
20
-27.30500
30
135.00000
0
VERTEX
8
45_135000
10
9.15500
20
-26.50300
30
135.00000
0
VERTEX
8
45_135000
10
9.42000
20
-24.53200
30
135.00000
0
VERTEX
8
45_135000
10
9.48100
20
-24.00100
30
135.00000
0
VERTEX
8
45_135000
10
9.48900
20
-23.21600
30
135.00000
0
VERTEX
8
45_135000
10
9.50100
20
-23.13300
30
135.00000
0
VERTEX
8
45_135000
10
9.50400
20
-22.97300
30
135.00000
0
VERTEX
8
45_135000
10
9.48100
20
-21.20200
30
135.00000
0
VERTEX
8
45_135000
10
9.56700
20
-20.16400
30
135.00000
0
VERTEX
8
45_135000
10
9.83800
20
-18.66600
30
135.00000
0
VERTEX
8
45_135000
10
10.10100
20
-17.34000
30
135.00000
0
VERTEX
8
45_135000
10
10.15500
20
-16.59700
30
135.00000
0
VERTEX
8
45_135000
10
10.47400
20
-14.94700
30
135.00000
0
VERTEX
8
45_135000
10
10.67200
20
-13.33800
30
135.00000
0
VERTEX
8
45_135000
10
10.65800
20
-13.04700
30
135.00000
0
VERTEX
8
45_135000
10
10.80300
20
-11.95400
30
135.00000
0
VERTEX
8
45_135000
10
10.84600
20
-11.39800
30
135.00000
0
VERTEX
8
45_135000
10
10.83900
20
-10.96000
30
135.00000
0
VERTEX
8
45_135000
10
11.07500
20
-9.14100
30
135.00000
0
VERTEX
8
45_135000
10
11.15200
20
-8.21100
30
135.00000
0
VERTEX
8
45_135000
10
11.26000
20
-5.80000
30
135.00000
0
VERTEX
8
45_135000
10
11.29600
20
-5.23800
30
135.00000
0
VERTEX
8
45_135000
10
11.58000
20
-2.47800
30
135.00000
0
VERTEX
8
45_135000
10
11.66500
20
-0.37300
30
135.00000
0
VERTEX
8
45_135000
10
11.61800
20
0.36700
30
135.00000
0
VERTEX
8
45_135000
10
11.61900
20
1.01200
30
135.00000
0
VERTEX
8
45_135000
10
11.57000
20
2.59900
30
135.00000
0
VERTEX
8
45_135000
10
11.55700
20
3.72800
30
135.00000
0
VERTEX
8
45_135000
10
11.41000
20
6.23500
30
135.00000
0
VERTEX
8
45_135000
10
11.38400
20
6.52000
30
135.00000
0
VERTEX
8
45_135000
10
11.31500
20
6.98800
30
135.00000
0
VERTEX
8
45_135000
10
10.90900
20
9.48500
30
135.00000
0
VERTEX
8
45_135000
10
10.63100
20
10.83000
30
135.00000
0
VERTEX
8
45_135000
10
9.73100
20
14.82700
30
135.00000
0
VERTEX
8
45_135000
10
9.15000
20
17.16200
30
135.00000
0
VERTEX
8
45_135000
10
8.79600
20
18.71300
30
135.00000
0
VERTEX
8
45_135000
10
8.32100
20
20.60500
30
135.00000
0
VERTEX
8
45_135000
10
8.11600
20
21.65000
30
135.00000
0
VERTEX
8
45_135000
10
7.77800
20
23.06600
30
135.00000
0
VERTEX
8
45_135000
10
6.77600
20
26.99900
30
135.00000
0
VERTEX
8
45_135000
10
6.55700
20
27.75600
30
135.00000
0
VERTEX
8
45_135000
10
5.62000
20
30.80500
30
135.00000
0
VERTEX
8
45_135000
10
4.85600
20
33.15100
30
135.00000
0
VERTEX
8
45_135000
10
4.32900
20
34.57600
30
135.00000
0
VERTEX
8
45_135000
10
3.50400
20
36.96600
30
135.00000
0
VERTEX
8
45_135000
10
1.71600
20
43.05100
30
135.00000
0
VERTEX
8
45_135000
10
1.09400
20
45.24100
30
135.00000
0
VERTEX
8
45_135000
10
0.76800
20
47.29300
30
135.00000
0
VERTEX
8
45_135000
10
0.66600
20
48.46900
30
135.00000
0
VERTEX
8
45_135000
10
0.39100
20
50.53500
30
135.00000
0
VERTEX
8
45_135000
10
0.34600
20
51.24500
30
135.00000
0
VERTEX
8
45_135000
10
0.43200
20
51.66000
30
135.00000
0
VERTEX
8
45_135000
10
0.56500
20
55.35800
30
135.00000
0
VERTEX
8
45_135000
10
0.57600
20
55.50300
30
135.00000
0
VERTEX
8
45_135000
10
0.62800
20
55.86700
30
135.00000
0
VERTEX
8
45_135000
10
0.83200
20
57.90700
30
135.00000
0
VERTEX
8
45_135000
10
1.34100
20
59.34300
30
135.00000
0
VERTEX
8
45_135000
10
1.99000
20
61.75600
30
135.00000
0
VERTEX
8
45_135000
10
2.33100
20
62.64600
30
135.00000
0
VERTEX
8
45_135000
10
3.21500
20
65.09800
30
135.00000
0
VERTEX
8
45_135000
10
3.70300
20
66.37701
30
135.00000
0
VERTEX
8
45_135000
10
3.79600
20
66.43100
30
135.00000
0
VERTEX
8
45_135000
10
4.12900
20
67.26100
30
135.00000
0
VERTEX
8
45_135000
10
4.47500
20
68.16200
30
135.00000
0
VERTEX
8
45_135000
10
5.04900
20
70.08900
30
135.00000
0
VERTEX
8
45_135000
10
5.39600
20
71.08900
30
135.00000
0
VERTEX
8
45_135000
10
5.60000
20
71.87300
30
135.00000
0
VERTEX
8
45_135000
10
5.86600
20
72.78500
30
135.00000
0
VERTEX
8
45_135000
10
6.00000
20
73.78800
30
135.00000
0
VERTEX
8
45_135000
10
6.36100
20
76.31500
30
135.00000
0
VERTEX
8
45_135000
10
6.32700
20
77.94400
30
135.00000
0
VERTEX
8
45_135000
10
6.35300
20
78.58501
30
135.00000
0
VERTEX
8
45_135000
10
6.32500
20
79.29501
30
135.00000
0
VERTEX
8
45_135000
10
6.18400
20
81.76200
30
135.00000
0
VERTEX
8
45_135000
10
5.99600
20
83.18201
30
135.00000
0
VERTEX
8
45_135000
10
5.96200
20
83.73000
30
135.00000
0
VERTEX
8
45_135000
10
5.92900
20
84.11900
30
135.00000
0
VERTEX
8
45_135000
10
5.57000
20
86.91400
30
135.00000
0
VERTEX
8
45_135000
10
5.53900
20
87.89301
30
135.00000
0
VERTEX
8
45_135000
10
5.45900
20
89.05701
30
135.00000
0
VERTEX
8
45_135000
10
5.47600
20
89.83601
30
135.00000
0
VERTEX
8
45_135000
10
5.48000
20
90.89600
30
135.00000
0
VERTEX
8
45_135000
10
3.78800
20
91.17900
30
135.00000
0
SEQEND
8
45_135000
0
ENDSEC
0
EOF
