0
SECTION
2
HEADER
9
$ACADVER
1
AC1009
0
ENDSEC
0
SECTION
2
TABLES
0
TABLE
2
LAYER
70
1
0
LAYER
2
40_120000
70
0
62
7
6
CONTINUOUS
0
ENDTAB
0
ENDSEC
0
SECTION
2
BLOCKS
0
ENDSEC
0
SECTION
2
ENTITIES
0
POLYLINE
8
40_120000
62
5
0
VERTEX
8
40_120000
10
-45.59100
20
91.87300
30
120.00000
0
VERTEX
8
40_120000
10
-0.35900
20
91.87300
30
120.00000
0
VERTEX
8
40_120000
10
-0.84600
20
91.95400
30
120.00000
0
VERTEX
8
40_120000
10
-56.17000
20
91.95400
30
120.00000
0
VERTEX
8
40_120000
10
-56.17000
20
91.87300
30
120.00000
0
VERTEX
8
40_120000
10
-45.59100
20
91.87300
30
120.00000
0
SEQEND
8
40_120000
0
POLYLINE
8
40_120000
62
5
0
VERTEX
8
40_120000
10
-45.99700
20
91.82700
30
120.00000
0
VERTEX
8
40_120000
10
-0.08700
20
91.82700
30
120.00000
0
VERTEX
8
40_120000
10
-0.32400
20
91.86700
30
120.00000
0
VERTEX
8
40_120000
10
-56.17000
20
91.86700
30
120.00000
0
VERTEX
8
40_120000
10
-56.17000
20
91.82700
30
120.00000
0
VERTEX
8
40_120000
10
-45.99700
20
91.82700
30
120.00000
0
SEQEND
8
40_120000
0
POLYLINE
8
40_120000
62
5
0
VERTEX
8
40_120000
10
-56.17000
20
91.80901
30
120.00000
0
VERTEX
8
40_120000
10
-56.17000
20
91.76200
30
120.00000
0
VERTEX
8
40_120000
10
0.30700
20
91.76200
30
120.00000
0
VERTEX
8
40_120000
10
-0.07900
20
91.82600
30
120.00000
0
VERTEX
8
40_120000
10
-56.17000
20
91.82600
30
120.00000
0
VERTEX
8
40_120000
10
-56.17000
20
91.80901
30
120.00000
0
SEQEND
8
40_120000
0
POLYLINE
8
40_120000
62
5
0
VERTEX
8
40_120000
10
-56.17000
20
91.55501
30
120.00000
0
VERTEX
8
40_120000
10
-56.17000
20
91.44000
30
120.00000
0
VERTEX
8
40_120000
10
2.22900
20
91.44000
30
120.00000
0
VERTEX
8
40_120000
10
0.33600
20
91.75500
30
120.00000
0
VERTEX
8
40_120000
10
-56.17000
20
91.75500
30
120.00000
0
VERTEX
8
40_120000
10
-56.17000
20
91.55501
30
120.00000
0
SEQEND
8
40_120000
0
POLYLINE
8
40_120000
62
5
0
VERTEX
8
40_120000
10
-56.17000
20
90.39301
30
120.00000
0
VERTEX
8
40_120000
10
-56.17000
20
89.81500
30
120.00000
0
VERTEX
8
40_120000
10
11.96700
20
89.81500
30
120.00000
0
VERTEX
8
40_120000
10
2.25800
20
91.43600
30
120.00000
0
VERTEX
8
40_120000
10
-56.17000
20
91.43600
30
120.00000
0
VERTEX
8
40_120000
10
-56.17000
20
90.39301
30
120.00000
0
SEQEND
8
40_120000
0
POLYLINE
8
40_120000
62
5
0
VERTEX
8
40_120000
10
19.52100
20
88.55501
30
120.00000
0
VERTEX
8
40_120000
10
12.01900
20
89.80701
30
120.00000
0
VERTEX
8
40_120000
10
-56.17000
20
89.80701
30
120.00000
0
VERTEX
8
40_120000
10
-56.17000
20
-92.11401
30
120.00000
0
VERTEX
8
40_120000
10
29.82100
20
-92.11401
30
120.00000
0
VERTEX
8
40_120000
10
28.42200
20
-90.08401
30
120.00000
0
VERTEX
8
40_120000
10
28.03300
20
-89.49900
30
120.00000
0
VERTEX
8
40_120000
10
27.16500
20
-88.12300
30
120.00000
0
VERTEX
8
40_120000
10
26.70600
20
-87.36501
30
120.00000
0
VERTEX
8
40_120000
10
26.18000
20
-86.48300
30
120.00000
0
VERTEX
8
40_120000
10
25.41000
20
-85.16400
30
120.00000
0
VERTEX
8
40_120000
10
25.33200
20
-85.01401
30
120.00000
0
VERTEX
8
40_120000
10
24.10400
20
-82.88000
30
120.00000
0
VERTEX
8
40_120000
10
23.76900
20
-82.26701
30
120.00000
0
VERTEX
8
40_120000
10
23.38700
20
-81.51601
30
120.00000
0
VERTEX
8
40_120000
10
22.88700
20
-80.70100
30
120.00000
0
VERTEX
8
40_120000
10
22.66500
20
-80.23701
30
120.00000
0
VERTEX
8
40_120000
10
22.43900
20
-79.79800
30
120.00000
0
VERTEX
8
40_120000
10
22.33500
20
-79.57700
30
120.00000
0
VERTEX
8
40_120000
10
22.36300
20
-79.32301
30
120.00000
0
VERTEX
8
40_120000
10
22.33900
20
-78.36700
30
120.00000
0
VERTEX
8
40_120000
10
22.33400
20
-77.81001
30
120.00000
0
VERTEX
8
40_120000
10
22.29600
20
-76.45800
30
120.00000
0
VERTEX
8
40_120000
10
22.28200
20
-76.25800
30
120.00000
0
VERTEX
8
40_120000
10
22.33700
20
-75.96001
30
120.00000
0
VERTEX
8
40_120000
10
22.41400
20
-74.74800
30
120.00000
0
VERTEX
8
40_120000
10
22.48600
20
-74.40701
30
120.00000
0
VERTEX
8
40_120000
10
22.52400
20
-74.13300
30
120.00000
0
VERTEX
8
40_120000
10
22.62700
20
-73.18700
30
120.00000
0
VERTEX
8
40_120000
10
22.52300
20
-72.08601
30
120.00000
0
VERTEX
8
40_120000
10
22.44700
20
-71.82700
30
120.00000
0
VERTEX
8
40_120000
10
22.34700
20
-71.08100
30
120.00000
0
VERTEX
8
40_120000
10
22.22500
20
-70.82401
30
120.00000
0
VERTEX
8
40_120000
10
22.16200
20
-70.33000
30
120.00000
0
VERTEX
8
40_120000
10
22.10400
20
-70.00000
30
120.00000
0
VERTEX
8
40_120000
10
21.97800
20
-69.65401
30
120.00000
0
VERTEX
8
40_120000
10
21.92400
20
-69.46101
30
120.00000
0
VERTEX
8
40_120000
10
21.41200
20
-68.07500
30
120.00000
0
VERTEX
8
40_120000
10
21.15200
20
-67.26801
30
120.00000
0
VERTEX
8
40_120000
10
21.02400
20
-66.59400
30
120.00000
0
VERTEX
8
40_120000
10
21.02500
20
-66.46301
30
120.00000
0
VERTEX
8
40_120000
10
20.97600
20
-66.34200
30
120.00000
0
VERTEX
8
40_120000
10
20.92600
20
-65.94801
30
120.00000
0
VERTEX
8
40_120000
10
20.88500
20
-65.77700
30
120.00000
0
VERTEX
8
40_120000
10
20.83300
20
-65.46900
30
120.00000
0
VERTEX
8
40_120000
10
20.79900
20
-65.15601
30
120.00000
0
VERTEX
8
40_120000
10
20.56200
20
-63.35500
30
120.00000
0
VERTEX
8
40_120000
10
20.54900
20
-63.32900
30
120.00000
0
VERTEX
8
40_120000
10
20.38800
20
-62.73900
30
120.00000
0
VERTEX
8
40_120000
10
20.29100
20
-62.48900
30
120.00000
0
VERTEX
8
40_120000
10
20.23200
20
-62.13200
30
120.00000
0
VERTEX
8
40_120000
10
19.90400
20
-60.97800
30
120.00000
0
VERTEX
8
40_120000
10
19.89500
20
-60.92400
30
120.00000
0
VERTEX
8
40_120000
10
19.77000
20
-60.46900
30
120.00000
0
VERTEX
8
40_120000
10
19.43500
20
-59.76100
30
120.00000
0
VERTEX
8
40_120000
10
19.35800
20
-59.43000
30
120.00000
0
VERTEX
8
40_120000
10
19.28700
20
-59.33100
30
120.00000
0
VERTEX
8
40_120000
10
19.00900
20
-58.48500
30
120.00000
0
VERTEX
8
40_120000
10
18.93400
20
-58.28600
30
120.00000
0
VERTEX
8
40_120000
10
18.88500
20
-57.69400
30
120.00000
0
VERTEX
8
40_120000
10
18.85900
20
-57.54300
30
120.00000
0
VERTEX
8
40_120000
10
18.78600
20
-56.28400
30
120.00000
0
VERTEX
8
40_120000
10
18.68400
20
-55.87000
30
120.00000
0
VERTEX
8
40_120000
10
18.60400
20
-55.41500
30
120.00000
0
VERTEX
8
40_120000
10
18.70300
20
-54.34100
30
120.00000
0
VERTEX
8
40_120000
10
18.69900
20
-54.10800
30
120.00000
0
VERTEX
8
40_120000
10
18.70800
20
-53.87400
30
120.00000
0
VERTEX
8
40_120000
10
18.64100
20
-53.62700
30
120.00000
0
VERTEX
8
40_120000
10
18.67800
20
-53.00400
30
120.00000
0
VERTEX
8
40_120000
10
18.50100
20
-52.48600
30
120.00000
0
VERTEX
8
40_120000
10
18.50800
20
-52.41400
30
120.00000
0
VERTEX
8
40_120000
10
18.45500
20
-52.18100
30
120.00000
0
VERTEX
8
40_120000
10
18.44000
20
-51.78300
30
120.00000
0
VERTEX
8
40_120000
10
18.23500
20
-50.64300
30
120.00000
0
VERTEX
8
40_120000
10
18.23300
20
-50.35900
30
120.00000
0
VERTEX
8
40_120000
10
18.28100
20
-49.31700
30
120.00000
0
VERTEX
8
40_120000
10
18.20300
20
-48.79900
30
120.00000
0
VERTEX
8
40_120000
10
18.13500
20
-48.47100
30
120.00000
0
VERTEX
8
40_120000
10
17.88500
20
-47.60300
30
120.00000
0
VERTEX
8
40_120000
10
17.86500
20
-47.50800
30
120.00000
0
VERTEX
8
40_120000
10
17.79800
20
-47.36700
30
120.00000
0
VERTEX
8
40_120000
10
17.74500
20
-46.43300
30
120.00000
0
VERTEX
8
40_120000
10
17.71700
20
-46.33500
30
120.00000
0
VERTEX
8
40_120000
10
17.71400
20
-46.12300
30
120.00000
0
VERTEX
8
40_120000
10
17.73500
20
-45.90900
30
120.00000
0
VERTEX
8
40_120000
10
17.89700
20
-44.98400
30
120.00000
0
VERTEX
8
40_120000
10
17.88800
20
-44.68000
30
120.00000
0
VERTEX
8
40_120000
10
17.89200
20
-43.67400
30
120.00000
0
VERTEX
8
40_120000
10
17.88300
20
-43.52300
30
120.00000
0
VERTEX
8
40_120000
10
17.92400
20
-43.19800
30
120.00000
0
VERTEX
8
40_120000
10
18.21500
20
-42.23900
30
120.00000
0
VERTEX
8
40_120000
10
18.51900
20
-41.14600
30
120.00000
0
VERTEX
8
40_120000
10
18.73300
20
-40.70600
30
120.00000
0
VERTEX
8
40_120000
10
19.14300
20
-39.59500
30
120.00000
0
VERTEX
8
40_120000
10
19.15500
20
-39.54000
30
120.00000
0
VERTEX
8
40_120000
10
19.29900
20
-38.33800
30
120.00000
0
VERTEX
8
40_120000
10
19.33600
20
-38.09700
30
120.00000
0
VERTEX
8
40_120000
10
19.44700
20
-36.85400
30
120.00000
0
VERTEX
8
40_120000
10
19.46600
20
-36.71400
30
120.00000
0
VERTEX
8
40_120000
10
19.43800
20
-35.29900
30
120.00000
0
VERTEX
8
40_120000
10
19.44700
20
-35.13000
30
120.00000
0
VERTEX
8
40_120000
10
19.37400
20
-34.77300
30
120.00000
0
VERTEX
8
40_120000
10
19.35800
20
-34.63900
30
120.00000
0
VERTEX
8
40_120000
10
19.37300
20
-34.39800
30
120.00000
0
VERTEX
8
40_120000
10
19.34300
20
-33.99900
30
120.00000
0
VERTEX
8
40_120000
10
19.42700
20
-32.97000
30
120.00000
0
VERTEX
8
40_120000
10
19.42000
20
-32.33200
30
120.00000
0
VERTEX
8
40_120000
10
19.48400
20
-31.89400
30
120.00000
0
VERTEX
8
40_120000
10
19.51800
20
-30.96700
30
120.00000
0
VERTEX
8
40_120000
10
19.55200
20
-30.50600
30
120.00000
0
VERTEX
8
40_120000
10
19.96100
20
-28.92000
30
120.00000
0
VERTEX
8
40_120000
10
20.02900
20
-28.29100
30
120.00000
0
VERTEX
8
40_120000
10
20.03100
20
-27.94200
30
120.00000
0
VERTEX
8
40_120000
10
20.08800
20
-26.99500
30
120.00000
0
VERTEX
8
40_120000
10
20.10400
20
-26.56000
30
120.00000
0
VERTEX
8
40_120000
10
20.04700
20
-25.57000
30
120.00000
0
VERTEX
8
40_120000
10
20.05100
20
-25.33200
30
120.00000
0
VERTEX
8
40_120000
10
19.96000
20
-24.66900
30
120.00000
0
VERTEX
8
40_120000
10
19.95300
20
-22.88500
30
120.00000
0
VERTEX
8
40_120000
10
19.99900
20
-21.03000
30
120.00000
0
VERTEX
8
40_120000
10
20.18800
20
-18.86400
30
120.00000
0
VERTEX
8
40_120000
10
20.40300
20
-17.54400
30
120.00000
0
VERTEX
8
40_120000
10
20.66900
20
-16.42900
30
120.00000
0
VERTEX
8
40_120000
10
21.21000
20
-13.35100
30
120.00000
0
VERTEX
8
40_120000
10
22.00800
20
-10.07700
30
120.00000
0
VERTEX
8
40_120000
10
22.33000
20
-8.90300
30
120.00000
0
VERTEX
8
40_120000
10
22.51500
20
-8.33700
30
120.00000
0
VERTEX
8
40_120000
10
23.07100
20
-6.21200
30
120.00000
0
VERTEX
8
40_120000
10
23.40000
20
-5.01700
30
120.00000
0
VERTEX
8
40_120000
10
23.68500
20
-3.93200
30
120.00000
0
VERTEX
8
40_120000
10
23.73300
20
-3.69800
30
120.00000
0
VERTEX
8
40_120000
10
24.19500
20
-1.12800
30
120.00000
0
VERTEX
8
40_120000
10
24.51400
20
0.79900
30
120.00000
0
VERTEX
8
40_120000
10
24.55900
20
1.11600
30
120.00000
0
VERTEX
8
40_120000
10
24.87900
20
5.85100
30
120.00000
0
VERTEX
8
40_120000
10
24.88700
20
6.18100
30
120.00000
0
VERTEX
8
40_120000
10
24.84100
20
8.95400
30
120.00000
0
VERTEX
8
40_120000
10
24.76600
20
9.97400
30
120.00000
0
VERTEX
8
40_120000
10
24.65600
20
11.83200
30
120.00000
0
VERTEX
8
40_120000
10
24.38300
20
13.74900
30
120.00000
0
VERTEX
8
40_120000
10
24.24800
20
14.81700
30
120.00000
0
VERTEX
8
40_120000
10
23.91700
20
16.53900
30
120.00000
0
VERTEX
8
40_120000
10
23.07800
20
19.86900
30
120.00000
0
VERTEX
8
40_120000
10
22.47100
20
22.11800
30
120.00000
0
VERTEX
8
40_120000
10
22.30500
20
22.81700
30
120.00000
0
VERTEX
8
40_120000
10
21.95800
20
24.13200
30
120.00000
0
VERTEX
8
40_120000
10
21.24900
20
28.02600
30
120.00000
0
VERTEX
8
40_120000
10
21.04400
20
29.07300
30
120.00000
0
VERTEX
8
40_120000
10
20.82700
20
30.43600
30
120.00000
0
VERTEX
8
40_120000
10
20.43900
20
32.34600
30
120.00000
0
VERTEX
8
40_120000
10
20.26000
20
33.03800
30
120.00000
0
VERTEX
8
40_120000
10
20.21800
20
33.14900
30
120.00000
0
VERTEX
8
40_120000
10
20.18800
20
33.33600
30
120.00000
0
VERTEX
8
40_120000
10
19.83400
20
34.61600
30
120.00000
0
VERTEX
8
40_120000
10
19.50200
20
36.64100
30
120.00000
0
VERTEX
8
40_120000
10
19.59600
20
38.38100
30
120.00000
0
VERTEX
8
40_120000
10
19.59200
20
40.81900
30
120.00000
0
VERTEX
8
40_120000
10
19.61500
20
41.01700
30
120.00000
0
VERTEX
8
40_120000
10
19.82800
20
41.86200
30
120.00000
0
VERTEX
8
40_120000
10
20.22800
20
44.06300
30
120.00000
0
VERTEX
8
40_120000
10
20.31600
20
45.52500
30
120.00000
0
VERTEX
8
40_120000
10
20.60700
20
46.63900
30
120.00000
0
VERTEX
8
40_120000
10
20.67300
20
47.04500
30
120.00000
0
VERTEX
8
40_120000
10
21.45600
20
52.30600
30
120.00000
0
VERTEX
8
40_120000
10
21.74300
20
53.57200
30
120.00000
0
VERTEX
8
40_120000
10
21.85300
20
53.77800
30
120.00000
0
VERTEX
8
40_120000
10
22.06300
20
54.29400
30
120.00000
0
VERTEX
8
40_120000
10
22.29300
20
54.56600
30
120.00000
0
VERTEX
8
40_120000
10
22.89200
20
55.48000
30
120.00000
0
VERTEX
8
40_120000
10
22.96900
20
55.57300
30
120.00000
0
VERTEX
8
40_120000
10
24.15300
20
57.52600
30
120.00000
0
VERTEX
8
40_120000
10
24.34500
20
57.80600
30
120.00000
0
VERTEX
8
40_120000
10
24.68500
20
58.36700
30
120.00000
0
VERTEX
8
40_120000
10
25.34100
20
58.90500
30
120.00000
0
VERTEX
8
40_120000
10
25.78900
20
59.48100
30
120.00000
0
VERTEX
8
40_120000
10
25.83400
20
59.51700
30
120.00000
0
VERTEX
8
40_120000
10
26.11200
20
59.95200
30
120.00000
0
VERTEX
8
40_120000
10
26.45200
20
60.45800
30
120.00000
0
VERTEX
8
40_120000
10
26.60800
20
60.80700
30
120.00000
0
VERTEX
8
40_120000
10
26.98300
20
62.16300
30
120.00000
0
VERTEX
8
40_120000
10
27.10800
20
62.83300
30
120.00000
0
VERTEX
8
40_120000
10
27.30600
20
64.88800
30
120.00000
0
VERTEX
8
40_120000
10
27.40200
20
66.54800
30
120.00000
0
VERTEX
8
40_120000
10
27.37300
20
67.68301
30
120.00000
0
VERTEX
8
40_120000
10
27.42700
20
68.45300
30
120.00000
0
VERTEX
8
40_120000
10
27.43500
20
68.95500
30
120.00000
0
VERTEX
8
40_120000
10
27.48900
20
69.36200
30
120.00000
0
VERTEX
8
40_120000
10
27.69100
20
72.07000
30
120.00000
0
VERTEX
8
40_120000
10
27.69000
20
72.30400
30
120.00000
0
VERTEX
8
40_120000
10
27.86700
20
73.17700
30
120.00000
0
VERTEX
8
40_120000
10
27.89500
20
73.34801
30
120.00000
0
VERTEX
8
40_120000
10
27.78300
20
75.10900
30
120.00000
0
VERTEX
8
40_120000
10
27.68300
20
75.73300
30
120.00000
0
VERTEX
8
40_120000
10
27.67100
20
75.96600
30
120.00000
0
VERTEX
8
40_120000
10
27.62700
20
76.26601
30
120.00000
0
VERTEX
8
40_120000
10
27.43300
20
78.02801
30
120.00000
0
VERTEX
8
40_120000
10
27.24200
20
78.72501
30
120.00000
0
VERTEX
8
40_120000
10
27.02100
20
79.19200
30
120.00000
0
VERTEX
8
40_120000
10
26.35700
20
80.68201
30
120.00000
0
VERTEX
8
40_120000
10
25.91400
20
81.56300
30
120.00000
0
VERTEX
8
40_120000
10
24.93600
20
83.73601
30
120.00000
0
VERTEX
8
40_120000
10
22.97700
20
87.97701
30
120.00000
0
VERTEX
8
40_120000
10
19.52100
20
88.55501
30
120.00000
0
SEQEND
8
40_120000
0
ENDSEC
0
EOF
