0
SECTION
2
HEADER
9
$ACADVER
1
AC1009
0
ENDSEC
0
SECTION
2
TABLES
0
TABLE
2
LAYER
70
1
0
LAYER
2
9_27000
70
0
62
7
6
CONTINUOUS
0
ENDTAB
0
ENDSEC
0
SECTION
2
BLOCKS
0
ENDSEC
0
SECTION
2
ENTITIES
0
POLYLINE
8
9_27000
62
5
0
VERTEX
8
9_27000
10
-46.08000
20
91.38200
30
27.00000
0
VERTEX
8
9_27000
10
2.58200
20
91.38200
30
27.00000
0
VERTEX
8
9_27000
10
2.48100
20
91.39800
30
27.00000
0
VERTEX
8
9_27000
10
-56.17000
20
91.39800
30
27.00000
0
VERTEX
8
9_27000
10
-56.17000
20
91.38200
30
27.00000
0
VERTEX
8
9_27000
10
-46.08000
20
91.38200
30
27.00000
0
SEQEND
8
9_27000
0
POLYLINE
8
9_27000
62
5
0
VERTEX
8
9_27000
10
-46.07200
20
91.38000
30
27.00000
0
VERTEX
8
9_27000
10
-56.17000
20
91.38000
30
27.00000
0
VERTEX
8
9_27000
10
-56.17000
20
91.35700
30
27.00000
0
VERTEX
8
9_27000
10
2.71900
20
91.35700
30
27.00000
0
VERTEX
8
9_27000
10
2.59000
20
91.38000
30
27.00000
0
VERTEX
8
9_27000
10
-46.07200
20
91.38000
30
27.00000
0
SEQEND
8
9_27000
0
POLYLINE
8
9_27000
62
5
0
VERTEX
8
9_27000
10
-45.61800
20
91.29201
30
27.00000
0
VERTEX
8
9_27000
10
3.11600
20
91.29201
30
27.00000
0
VERTEX
8
9_27000
10
2.72400
20
91.35700
30
27.00000
0
VERTEX
8
9_27000
10
-56.17000
20
91.35700
30
27.00000
0
VERTEX
8
9_27000
10
-56.17000
20
91.29201
30
27.00000
0
VERTEX
8
9_27000
10
-45.61800
20
91.29201
30
27.00000
0
SEQEND
8
9_27000
0
POLYLINE
8
9_27000
62
5
0
VERTEX
8
9_27000
10
-33.62300
20
90.56001
30
27.00000
0
VERTEX
8
9_27000
10
-56.17000
20
90.56001
30
27.00000
0
VERTEX
8
9_27000
10
-56.17000
20
-92.11401
30
27.00000
0
VERTEX
8
9_27000
10
0.34200
20
-92.11401
30
27.00000
0
VERTEX
8
9_27000
10
0.15500
20
-91.71101
30
27.00000
0
VERTEX
8
9_27000
10
-0.93200
20
-88.98701
30
27.00000
0
VERTEX
8
9_27000
10
-1.51000
20
-87.45700
30
27.00000
0
VERTEX
8
9_27000
10
-2.10600
20
-85.83701
30
27.00000
0
VERTEX
8
9_27000
10
-2.15200
20
-85.66901
30
27.00000
0
VERTEX
8
9_27000
10
-3.17700
20
-82.51401
30
27.00000
0
VERTEX
8
9_27000
10
-3.94600
20
-80.19200
30
27.00000
0
VERTEX
8
9_27000
10
-3.99700
20
-79.91100
30
27.00000
0
VERTEX
8
9_27000
10
-4.03500
20
-79.52200
30
27.00000
0
VERTEX
8
9_27000
10
-3.97400
20
-79.21500
30
27.00000
0
VERTEX
8
9_27000
10
-3.76900
20
-78.96400
30
27.00000
0
VERTEX
8
9_27000
10
-3.65800
20
-78.68201
30
27.00000
0
VERTEX
8
9_27000
10
-2.90600
20
-77.67400
30
27.00000
0
VERTEX
8
9_27000
10
-2.21900
20
-76.80000
30
27.00000
0
VERTEX
8
9_27000
10
-2.14100
20
-76.67900
30
27.00000
0
VERTEX
8
9_27000
10
-2.01900
20
-76.54900
30
27.00000
0
VERTEX
8
9_27000
10
-1.71800
20
-76.12000
30
27.00000
0
VERTEX
8
9_27000
10
0.52300
20
-72.80600
30
27.00000
0
VERTEX
8
9_27000
10
0.73600
20
-72.41200
30
27.00000
0
VERTEX
8
9_27000
10
0.85900
20
-72.24001
30
27.00000
0
VERTEX
8
9_27000
10
1.43400
20
-71.23400
30
27.00000
0
VERTEX
8
9_27000
10
1.93500
20
-70.38000
30
27.00000
0
VERTEX
8
9_27000
10
2.06200
20
-70.18401
30
27.00000
0
VERTEX
8
9_27000
10
2.70800
20
-68.84000
30
27.00000
0
VERTEX
8
9_27000
10
2.96500
20
-68.47100
30
27.00000
0
VERTEX
8
9_27000
10
3.13100
20
-68.06600
30
27.00000
0
VERTEX
8
9_27000
10
3.25600
20
-67.43000
30
27.00000
0
VERTEX
8
9_27000
10
3.34500
20
-67.09600
30
27.00000
0
VERTEX
8
9_27000
10
3.60900
20
-66.55400
30
27.00000
0
VERTEX
8
9_27000
10
3.77600
20
-66.12801
30
27.00000
0
VERTEX
8
9_27000
10
3.80900
20
-66.07101
30
27.00000
0
VERTEX
8
9_27000
10
3.71500
20
-65.79000
30
27.00000
0
VERTEX
8
9_27000
10
3.73300
20
-65.70600
30
27.00000
0
VERTEX
8
9_27000
10
3.71100
20
-65.66801
30
27.00000
0
VERTEX
8
9_27000
10
3.69800
20
-65.11401
30
27.00000
0
VERTEX
8
9_27000
10
3.82900
20
-64.66901
30
27.00000
0
VERTEX
8
9_27000
10
3.89900
20
-64.17200
30
27.00000
0
VERTEX
8
9_27000
10
3.94700
20
-63.89500
30
27.00000
0
VERTEX
8
9_27000
10
3.98100
20
-63.56700
30
27.00000
0
VERTEX
8
9_27000
10
3.98300
20
-63.15300
30
27.00000
0
VERTEX
8
9_27000
10
4.04400
20
-62.89900
30
27.00000
0
VERTEX
8
9_27000
10
4.06400
20
-62.78000
30
27.00000
0
VERTEX
8
9_27000
10
4.12600
20
-62.54000
30
27.00000
0
VERTEX
8
9_27000
10
4.39100
20
-61.73200
30
27.00000
0
VERTEX
8
9_27000
10
4.64600
20
-60.99700
30
27.00000
0
VERTEX
8
9_27000
10
5.34000
20
-59.77200
30
27.00000
0
VERTEX
8
9_27000
10
5.46800
20
-59.42300
30
27.00000
0
VERTEX
8
9_27000
10
5.58300
20
-59.21400
30
27.00000
0
VERTEX
8
9_27000
10
6.00500
20
-58.54200
30
27.00000
0
VERTEX
8
9_27000
10
6.63000
20
-57.51700
30
27.00000
0
VERTEX
8
9_27000
10
6.77500
20
-57.36100
30
27.00000
0
VERTEX
8
9_27000
10
7.68100
20
-55.95100
30
27.00000
0
VERTEX
8
9_27000
10
7.87600
20
-55.44800
30
27.00000
0
VERTEX
8
9_27000
10
7.93200
20
-55.34600
30
27.00000
0
VERTEX
8
9_27000
10
8.04900
20
-55.03100
30
27.00000
0
VERTEX
8
9_27000
10
8.39600
20
-54.45600
30
27.00000
0
VERTEX
8
9_27000
10
9.05500
20
-53.01200
30
27.00000
0
VERTEX
8
9_27000
10
9.09000
20
-52.95300
30
27.00000
0
VERTEX
8
9_27000
10
9.54200
20
-51.67400
30
27.00000
0
VERTEX
8
9_27000
10
9.77100
20
-51.24000
30
27.00000
0
VERTEX
8
9_27000
10
10.06200
20
-50.73400
30
27.00000
0
VERTEX
8
9_27000
10
10.46500
20
-49.72300
30
27.00000
0
VERTEX
8
9_27000
10
10.77500
20
-49.19600
30
27.00000
0
VERTEX
8
9_27000
10
10.91300
20
-48.85700
30
27.00000
0
VERTEX
8
9_27000
10
11.05900
20
-48.56500
30
27.00000
0
VERTEX
8
9_27000
10
11.40900
20
-47.65900
30
27.00000
0
VERTEX
8
9_27000
10
11.59800
20
-47.21700
30
27.00000
0
VERTEX
8
9_27000
10
11.69200
20
-47.04800
30
27.00000
0
VERTEX
8
9_27000
10
11.68700
20
-46.80400
30
27.00000
0
VERTEX
8
9_27000
10
12.14800
20
-45.86200
30
27.00000
0
VERTEX
8
9_27000
10
13.12100
20
-44.23400
30
27.00000
0
VERTEX
8
9_27000
10
13.24200
20
-43.93000
30
27.00000
0
VERTEX
8
9_27000
10
14.03700
20
-42.72300
30
27.00000
0
VERTEX
8
9_27000
10
14.10700
20
-42.10100
30
27.00000
0
VERTEX
8
9_27000
10
14.17000
20
-41.91900
30
27.00000
0
VERTEX
8
9_27000
10
14.66600
20
-40.13500
30
27.00000
0
VERTEX
8
9_27000
10
14.67400
20
-40.08300
30
27.00000
0
VERTEX
8
9_27000
10
14.66400
20
-39.72800
30
27.00000
0
VERTEX
8
9_27000
10
14.67100
20
-39.67800
30
27.00000
0
VERTEX
8
9_27000
10
14.57400
20
-39.06700
30
27.00000
0
VERTEX
8
9_27000
10
14.61500
20
-38.56100
30
27.00000
0
VERTEX
8
9_27000
10
14.72500
20
-37.84300
30
27.00000
0
VERTEX
8
9_27000
10
14.85200
20
-37.35500
30
27.00000
0
VERTEX
8
9_27000
10
14.92700
20
-36.89500
30
27.00000
0
VERTEX
8
9_27000
10
15.26600
20
-35.78000
30
27.00000
0
VERTEX
8
9_27000
10
15.33900
20
-35.24600
30
27.00000
0
VERTEX
8
9_27000
10
15.55700
20
-34.43100
30
27.00000
0
VERTEX
8
9_27000
10
15.71000
20
-33.69400
30
27.00000
0
VERTEX
8
9_27000
10
15.79500
20
-33.51900
30
27.00000
0
VERTEX
8
9_27000
10
16.00100
20
-32.86800
30
27.00000
0
VERTEX
8
9_27000
10
16.11500
20
-32.20200
30
27.00000
0
VERTEX
8
9_27000
10
16.15600
20
-31.90500
30
27.00000
0
VERTEX
8
9_27000
10
16.14600
20
-31.56800
30
27.00000
0
VERTEX
8
9_27000
10
16.16000
20
-31.05900
30
27.00000
0
VERTEX
8
9_27000
10
16.19600
20
-30.57800
30
27.00000
0
VERTEX
8
9_27000
10
16.27300
20
-29.91500
30
27.00000
0
VERTEX
8
9_27000
10
16.26300
20
-29.61400
30
27.00000
0
VERTEX
8
9_27000
10
16.34200
20
-29.17700
30
27.00000
0
VERTEX
8
9_27000
10
16.48000
20
-28.01300
30
27.00000
0
VERTEX
8
9_27000
10
16.77600
20
-26.74300
30
27.00000
0
VERTEX
8
9_27000
10
17.21500
20
-24.93900
30
27.00000
0
VERTEX
8
9_27000
10
18.19200
20
-21.18200
30
27.00000
0
VERTEX
8
9_27000
10
18.67600
20
-19.19800
30
27.00000
0
VERTEX
8
9_27000
10
18.95600
20
-18.18500
30
27.00000
0
VERTEX
8
9_27000
10
19.41200
20
-16.62700
30
27.00000
0
VERTEX
8
9_27000
10
19.91900
20
-15.06300
30
27.00000
0
VERTEX
8
9_27000
10
20.30000
20
-13.82500
30
27.00000
0
VERTEX
8
9_27000
10
20.51300
20
-13.30600
30
27.00000
0
VERTEX
8
9_27000
10
20.56600
20
-13.12000
30
27.00000
0
VERTEX
8
9_27000
10
21.10100
20
-11.67900
30
27.00000
0
VERTEX
8
9_27000
10
21.79000
20
-9.70600
30
27.00000
0
VERTEX
8
9_27000
10
21.95900
20
-9.18700
30
27.00000
0
VERTEX
8
9_27000
10
22.67200
20
-6.83600
30
27.00000
0
VERTEX
8
9_27000
10
23.26700
20
-5.10200
30
27.00000
0
VERTEX
8
9_27000
10
24.52900
20
-0.33100
30
27.00000
0
VERTEX
8
9_27000
10
24.76100
20
0.81300
30
27.00000
0
VERTEX
8
9_27000
10
24.90700
20
1.64800
30
27.00000
0
VERTEX
8
9_27000
10
25.23200
20
4.25200
30
27.00000
0
VERTEX
8
9_27000
10
25.28900
20
4.80300
30
27.00000
0
VERTEX
8
9_27000
10
25.40500
20
5.75300
30
27.00000
0
VERTEX
8
9_27000
10
25.46000
20
8.09900
30
27.00000
0
VERTEX
8
9_27000
10
25.42200
20
10.75900
30
27.00000
0
VERTEX
8
9_27000
10
25.30600
20
12.65000
30
27.00000
0
VERTEX
8
9_27000
10
25.25900
20
13.09300
30
27.00000
0
VERTEX
8
9_27000
10
25.13800
20
14.60800
30
27.00000
0
VERTEX
8
9_27000
10
25.08200
20
15.13400
30
27.00000
0
VERTEX
8
9_27000
10
24.82900
20
16.95200
30
27.00000
0
VERTEX
8
9_27000
10
24.66500
20
17.87200
30
27.00000
0
VERTEX
8
9_27000
10
24.10100
20
22.50500
30
27.00000
0
VERTEX
8
9_27000
10
24.06600
20
22.82000
30
27.00000
0
VERTEX
8
9_27000
10
23.98800
20
23.83700
30
27.00000
0
VERTEX
8
9_27000
10
23.77800
20
25.34100
30
27.00000
0
VERTEX
8
9_27000
10
23.71000
20
25.75200
30
27.00000
0
VERTEX
8
9_27000
10
23.42500
20
26.87100
30
27.00000
0
VERTEX
8
9_27000
10
23.16600
20
27.93100
30
27.00000
0
VERTEX
8
9_27000
10
22.98100
20
28.91500
30
27.00000
0
VERTEX
8
9_27000
10
22.30500
20
31.75000
30
27.00000
0
VERTEX
8
9_27000
10
22.22500
20
32.15500
30
27.00000
0
VERTEX
8
9_27000
10
22.17900
20
32.86000
30
27.00000
0
VERTEX
8
9_27000
10
22.18700
20
33.17700
30
27.00000
0
VERTEX
8
9_27000
10
22.17900
20
33.88100
30
27.00000
0
VERTEX
8
9_27000
10
22.13900
20
34.57200
30
27.00000
0
VERTEX
8
9_27000
10
22.14500
20
35.24700
30
27.00000
0
VERTEX
8
9_27000
10
22.27400
20
35.78800
30
27.00000
0
VERTEX
8
9_27000
10
22.58400
20
36.77600
30
27.00000
0
VERTEX
8
9_27000
10
22.76700
20
37.45600
30
27.00000
0
VERTEX
8
9_27000
10
22.77300
20
37.51000
30
27.00000
0
VERTEX
8
9_27000
10
23.32100
20
39.40800
30
27.00000
0
VERTEX
8
9_27000
10
23.61900
20
40.53500
30
27.00000
0
VERTEX
8
9_27000
10
23.71200
20
40.94200
30
27.00000
0
VERTEX
8
9_27000
10
23.91200
20
42.43100
30
27.00000
0
VERTEX
8
9_27000
10
24.05000
20
44.22500
30
27.00000
0
VERTEX
8
9_27000
10
24.15600
20
46.55800
30
27.00000
0
VERTEX
8
9_27000
10
24.15700
20
47.03900
30
27.00000
0
VERTEX
8
9_27000
10
24.14400
20
47.13100
30
27.00000
0
VERTEX
8
9_27000
10
24.17000
20
47.95900
30
27.00000
0
VERTEX
8
9_27000
10
24.16900
20
48.29200
30
27.00000
0
VERTEX
8
9_27000
10
24.04800
20
48.77100
30
27.00000
0
VERTEX
8
9_27000
10
24.19000
20
49.20900
30
27.00000
0
VERTEX
8
9_27000
10
24.25000
20
49.44600
30
27.00000
0
VERTEX
8
9_27000
10
24.59200
20
49.84100
30
27.00000
0
VERTEX
8
9_27000
10
24.66100
20
49.96000
30
27.00000
0
VERTEX
8
9_27000
10
24.80400
20
50.11800
30
27.00000
0
VERTEX
8
9_27000
10
25.94200
20
50.97000
30
27.00000
0
VERTEX
8
9_27000
10
26.04400
20
51.08900
30
27.00000
0
VERTEX
8
9_27000
10
26.30300
20
51.31400
30
27.00000
0
VERTEX
8
9_27000
10
26.43000
20
51.51200
30
27.00000
0
VERTEX
8
9_27000
10
26.78400
20
52.11200
30
27.00000
0
VERTEX
8
9_27000
10
27.44000
20
53.11400
30
27.00000
0
VERTEX
8
9_27000
10
27.64300
20
53.54200
30
27.00000
0
VERTEX
8
9_27000
10
27.83400
20
53.79000
30
27.00000
0
VERTEX
8
9_27000
10
28.32900
20
54.51800
30
27.00000
0
VERTEX
8
9_27000
10
28.85900
20
55.39600
30
27.00000
0
VERTEX
8
9_27000
10
29.32000
20
56.46800
30
27.00000
0
VERTEX
8
9_27000
10
29.47900
20
56.97200
30
27.00000
0
VERTEX
8
9_27000
10
29.70500
20
57.79300
30
27.00000
0
VERTEX
8
9_27000
10
29.84900
20
58.62900
30
27.00000
0
VERTEX
8
9_27000
10
29.97500
20
59.66600
30
27.00000
0
VERTEX
8
9_27000
10
30.11800
20
61.32700
30
27.00000
0
VERTEX
8
9_27000
10
30.11800
20
61.73500
30
27.00000
0
VERTEX
8
9_27000
10
30.18000
20
63.23000
30
27.00000
0
VERTEX
8
9_27000
10
30.23100
20
63.99700
30
27.00000
0
VERTEX
8
9_27000
10
30.27400
20
64.83900
30
27.00000
0
VERTEX
8
9_27000
10
30.31100
20
65.85101
30
27.00000
0
VERTEX
8
9_27000
10
30.51300
20
66.88000
30
27.00000
0
VERTEX
8
9_27000
10
30.56500
20
67.83900
30
27.00000
0
VERTEX
8
9_27000
10
30.64900
20
68.81500
30
27.00000
0
VERTEX
8
9_27000
10
30.66600
20
69.23400
30
27.00000
0
VERTEX
8
9_27000
10
30.63200
20
69.66801
30
27.00000
0
VERTEX
8
9_27000
10
30.60800
20
70.24600
30
27.00000
0
VERTEX
8
9_27000
10
30.54700
20
70.64800
30
27.00000
0
VERTEX
8
9_27000
10
30.55300
20
71.11600
30
27.00000
0
VERTEX
8
9_27000
10
30.50000
20
71.58900
30
27.00000
0
VERTEX
8
9_27000
10
30.54400
20
72.15601
30
27.00000
0
VERTEX
8
9_27000
10
30.45500
20
72.83401
30
27.00000
0
VERTEX
8
9_27000
10
30.41800
20
74.29301
30
27.00000
0
VERTEX
8
9_27000
10
30.40700
20
74.36000
30
27.00000
0
VERTEX
8
9_27000
10
30.24600
20
75.04900
30
27.00000
0
VERTEX
8
9_27000
10
29.97200
20
75.80701
30
27.00000
0
VERTEX
8
9_27000
10
29.63600
20
76.45600
30
27.00000
0
VERTEX
8
9_27000
10
29.00300
20
78.14800
30
27.00000
0
VERTEX
8
9_27000
10
28.25500
20
79.98600
30
27.00000
0
VERTEX
8
9_27000
10
27.20800
20
82.99200
30
27.00000
0
VERTEX
8
9_27000
10
26.85000
20
83.80801
30
27.00000
0
VERTEX
8
9_27000
10
26.31500
20
85.07401
30
27.00000
0
VERTEX
8
9_27000
10
25.32700
20
87.58501
30
27.00000
0
VERTEX
8
9_27000
10
7.50500
20
90.56001
30
27.00000
0
VERTEX
8
9_27000
10
-33.62300
20
90.56001
30
27.00000
0
SEQEND
8
9_27000
0
POLYLINE
8
9_27000
62
5
0
VERTEX
8
9_27000
10
-44.80700
20
90.95801
30
27.00000
0
VERTEX
8
9_27000
10
5.12200
20
90.95801
30
27.00000
0
VERTEX
8
9_27000
10
3.12200
20
91.29101
30
27.00000
0
VERTEX
8
9_27000
10
-56.17000
20
91.29101
30
27.00000
0
VERTEX
8
9_27000
10
-56.17000
20
90.95801
30
27.00000
0
VERTEX
8
9_27000
10
-44.80700
20
90.95801
30
27.00000
0
SEQEND
8
9_27000
0
POLYLINE
8
9_27000
62
5
0
VERTEX
8
9_27000
10
6.55000
20
90.71800
30
27.00000
0
VERTEX
8
9_27000
10
5.13300
20
90.95600
30
27.00000
0
VERTEX
8
9_27000
10
-56.17000
20
90.95600
30
27.00000
0
VERTEX
8
9_27000
10
-56.17000
20
90.56001
30
27.00000
0
VERTEX
8
9_27000
10
7.50200
20
90.56001
30
27.00000
0
VERTEX
8
9_27000
10
6.55000
20
90.71800
30
27.00000
0
SEQEND
8
9_27000
0
ENDSEC
0
EOF
