0
SECTION
2
HEADER
9
$ACADVER
1
AC1009
0
ENDSEC
0
SECTION
2
TABLES
0
TABLE
2
LAYER
70
1
0
LAYER
2
18_54000
70
0
62
7
6
CONTINUOUS
0
ENDTAB
0
ENDSEC
0
SECTION
2
BLOCKS
0
ENDSEC
0
SECTION
2
ENTITIES
0
POLYLINE
8
18_54000
62
5
0
VERTEX
8
18_54000
10
-34.80400
20
91.52300
30
54.00000
0
VERTEX
8
18_54000
10
1.72800
20
91.52300
30
54.00000
0
VERTEX
8
18_54000
10
1.51600
20
91.56001
30
54.00000
0
VERTEX
8
18_54000
10
-56.17000
20
91.56001
30
54.00000
0
VERTEX
8
18_54000
10
-56.17000
20
91.52300
30
54.00000
0
VERTEX
8
18_54000
10
-34.80400
20
91.52300
30
54.00000
0
SEQEND
8
18_54000
0
POLYLINE
8
18_54000
62
5
0
VERTEX
8
18_54000
10
-34.46900
20
91.47401
30
54.00000
0
VERTEX
8
18_54000
10
2.02000
20
91.47401
30
54.00000
0
VERTEX
8
18_54000
10
1.74400
20
91.52100
30
54.00000
0
VERTEX
8
18_54000
10
-56.17000
20
91.52100
30
54.00000
0
VERTEX
8
18_54000
10
-56.17000
20
91.47401
30
54.00000
0
VERTEX
8
18_54000
10
-34.46900
20
91.47401
30
54.00000
0
SEQEND
8
18_54000
0
POLYLINE
8
18_54000
62
5
0
VERTEX
8
18_54000
10
-33.81300
20
91.33601
30
54.00000
0
VERTEX
8
18_54000
10
2.85800
20
91.33601
30
54.00000
0
VERTEX
8
18_54000
10
2.03100
20
91.47301
30
54.00000
0
VERTEX
8
18_54000
10
-56.17000
20
91.47301
30
54.00000
0
VERTEX
8
18_54000
10
-56.17000
20
91.33601
30
54.00000
0
VERTEX
8
18_54000
10
-33.81300
20
91.33601
30
54.00000
0
SEQEND
8
18_54000
0
POLYLINE
8
18_54000
62
5
0
VERTEX
8
18_54000
10
-32.10100
20
90.62601
30
54.00000
0
VERTEX
8
18_54000
10
7.11000
20
90.62601
30
54.00000
0
VERTEX
8
18_54000
10
2.87000
20
91.33301
30
54.00000
0
VERTEX
8
18_54000
10
-56.17000
20
91.33301
30
54.00000
0
VERTEX
8
18_54000
10
-56.17000
20
90.62601
30
54.00000
0
VERTEX
8
18_54000
10
-32.10100
20
90.62601
30
54.00000
0
SEQEND
8
18_54000
0
POLYLINE
8
18_54000
62
5
0
VERTEX
8
18_54000
10
-56.17000
20
-14.09600
30
54.00000
0
VERTEX
8
18_54000
10
-56.17000
20
-92.11401
30
54.00000
0
VERTEX
8
18_54000
10
17.18200
20
-92.11401
30
54.00000
0
VERTEX
8
18_54000
10
17.24800
20
-91.29900
30
54.00000
0
VERTEX
8
18_54000
10
17.39800
20
-90.66200
30
54.00000
0
VERTEX
8
18_54000
10
17.51900
20
-90.50800
30
54.00000
0
VERTEX
8
18_54000
10
17.66800
20
-90.23701
30
54.00000
0
VERTEX
8
18_54000
10
18.26300
20
-89.73701
30
54.00000
0
VERTEX
8
18_54000
10
19.02100
20
-89.00600
30
54.00000
0
VERTEX
8
18_54000
10
19.66400
20
-88.47501
30
54.00000
0
VERTEX
8
18_54000
10
21.36900
20
-87.00001
30
54.00000
0
VERTEX
8
18_54000
10
23.07300
20
-85.46600
30
54.00000
0
VERTEX
8
18_54000
10
23.84900
20
-84.81001
30
54.00000
0
VERTEX
8
18_54000
10
24.97800
20
-83.70600
30
54.00000
0
VERTEX
8
18_54000
10
25.51200
20
-83.05801
30
54.00000
0
VERTEX
8
18_54000
10
25.69400
20
-82.72800
30
54.00000
0
VERTEX
8
18_54000
10
25.85000
20
-82.48300
30
54.00000
0
VERTEX
8
18_54000
10
25.89700
20
-82.39201
30
54.00000
0
VERTEX
8
18_54000
10
26.24300
20
-81.24200
30
54.00000
0
VERTEX
8
18_54000
10
26.37500
20
-80.85300
30
54.00000
0
VERTEX
8
18_54000
10
26.40600
20
-80.51000
30
54.00000
0
VERTEX
8
18_54000
10
26.61800
20
-79.75800
30
54.00000
0
VERTEX
8
18_54000
10
26.68600
20
-79.40200
30
54.00000
0
VERTEX
8
18_54000
10
26.93100
20
-78.64900
30
54.00000
0
VERTEX
8
18_54000
10
26.87800
20
-78.29100
30
54.00000
0
VERTEX
8
18_54000
10
26.76900
20
-78.08501
30
54.00000
0
VERTEX
8
18_54000
10
26.68400
20
-77.68600
30
54.00000
0
VERTEX
8
18_54000
10
26.68800
20
-77.24001
30
54.00000
0
VERTEX
8
18_54000
10
26.62600
20
-76.68600
30
54.00000
0
VERTEX
8
18_54000
10
26.64500
20
-75.81900
30
54.00000
0
VERTEX
8
18_54000
10
26.69000
20
-75.67400
30
54.00000
0
VERTEX
8
18_54000
10
26.65000
20
-75.40100
30
54.00000
0
VERTEX
8
18_54000
10
26.67200
20
-74.98100
30
54.00000
0
VERTEX
8
18_54000
10
26.74400
20
-74.57101
30
54.00000
0
VERTEX
8
18_54000
10
26.81700
20
-73.79601
30
54.00000
0
VERTEX
8
18_54000
10
26.82100
20
-73.40800
30
54.00000
0
VERTEX
8
18_54000
10
26.77600
20
-73.00800
30
54.00000
0
VERTEX
8
18_54000
10
26.79800
20
-72.84400
30
54.00000
0
VERTEX
8
18_54000
10
26.71100
20
-71.23500
30
54.00000
0
VERTEX
8
18_54000
10
26.72800
20
-70.81500
30
54.00000
0
VERTEX
8
18_54000
10
26.77400
20
-70.67600
30
54.00000
0
VERTEX
8
18_54000
10
26.88500
20
-70.10201
30
54.00000
0
VERTEX
8
18_54000
10
26.85400
20
-69.62200
30
54.00000
0
VERTEX
8
18_54000
10
26.88200
20
-69.50201
30
54.00000
0
VERTEX
8
18_54000
10
26.84100
20
-69.45000
30
54.00000
0
VERTEX
8
18_54000
10
26.78700
20
-69.26000
30
54.00000
0
VERTEX
8
18_54000
10
26.72300
20
-68.81800
30
54.00000
0
VERTEX
8
18_54000
10
26.70800
20
-68.56100
30
54.00000
0
VERTEX
8
18_54000
10
26.72600
20
-67.65000
30
54.00000
0
VERTEX
8
18_54000
10
26.75800
20
-67.26300
30
54.00000
0
VERTEX
8
18_54000
10
26.70900
20
-66.63900
30
54.00000
0
VERTEX
8
18_54000
10
26.68000
20
-66.56100
30
54.00000
0
VERTEX
8
18_54000
10
26.67200
20
-66.42700
30
54.00000
0
VERTEX
8
18_54000
10
26.66200
20
-65.97501
30
54.00000
0
VERTEX
8
18_54000
10
26.68100
20
-65.52600
30
54.00000
0
VERTEX
8
18_54000
10
26.60600
20
-64.20000
30
54.00000
0
VERTEX
8
18_54000
10
26.57600
20
-63.91700
30
54.00000
0
VERTEX
8
18_54000
10
26.62300
20
-63.21500
30
54.00000
0
VERTEX
8
18_54000
10
26.62200
20
-62.69500
30
54.00000
0
VERTEX
8
18_54000
10
26.61300
20
-62.17600
30
54.00000
0
VERTEX
8
18_54000
10
26.58000
20
-61.66300
30
54.00000
0
VERTEX
8
18_54000
10
26.56600
20
-61.14300
30
54.00000
0
VERTEX
8
18_54000
10
26.59300
20
-60.91400
30
54.00000
0
VERTEX
8
18_54000
10
26.60900
20
-60.83800
30
54.00000
0
VERTEX
8
18_54000
10
26.59700
20
-60.69100
30
54.00000
0
VERTEX
8
18_54000
10
26.56500
20
-59.54400
30
54.00000
0
VERTEX
8
18_54000
10
26.56600
20
-58.39100
30
54.00000
0
VERTEX
8
18_54000
10
26.48100
20
-57.98300
30
54.00000
0
VERTEX
8
18_54000
10
26.48600
20
-57.51100
30
54.00000
0
VERTEX
8
18_54000
10
26.49800
20
-57.30700
30
54.00000
0
VERTEX
8
18_54000
10
26.47900
20
-57.14000
30
54.00000
0
VERTEX
8
18_54000
10
26.47800
20
-56.71700
30
54.00000
0
VERTEX
8
18_54000
10
26.44300
20
-56.01500
30
54.00000
0
VERTEX
8
18_54000
10
26.38200
20
-55.68300
30
54.00000
0
VERTEX
8
18_54000
10
26.41300
20
-54.03500
30
54.00000
0
VERTEX
8
18_54000
10
26.47000
20
-53.61600
30
54.00000
0
VERTEX
8
18_54000
10
26.53900
20
-52.58300
30
54.00000
0
VERTEX
8
18_54000
10
26.83500
20
-50.46700
30
54.00000
0
VERTEX
8
18_54000
10
26.87700
20
-50.24600
30
54.00000
0
VERTEX
8
18_54000
10
27.21800
20
-48.15200
30
54.00000
0
VERTEX
8
18_54000
10
27.60000
20
-46.44800
30
54.00000
0
VERTEX
8
18_54000
10
27.73300
20
-45.79100
30
54.00000
0
VERTEX
8
18_54000
10
27.84800
20
-44.74400
30
54.00000
0
VERTEX
8
18_54000
10
28.05700
20
-43.31600
30
54.00000
0
VERTEX
8
18_54000
10
28.43300
20
-41.50800
30
54.00000
0
VERTEX
8
18_54000
10
28.72000
20
-40.42500
30
54.00000
0
VERTEX
8
18_54000
10
28.77300
20
-38.93200
30
54.00000
0
VERTEX
8
18_54000
10
28.83300
20
-38.63100
30
54.00000
0
VERTEX
8
18_54000
10
28.85700
20
-38.42000
30
54.00000
0
VERTEX
8
18_54000
10
28.84400
20
-36.99500
30
54.00000
0
VERTEX
8
18_54000
10
28.86300
20
-36.65500
30
54.00000
0
VERTEX
8
18_54000
10
28.90300
20
-35.44100
30
54.00000
0
VERTEX
8
18_54000
10
29.05100
20
-33.65000
30
54.00000
0
VERTEX
8
18_54000
10
29.01600
20
-33.16600
30
54.00000
0
VERTEX
8
18_54000
10
28.89600
20
-31.07900
30
54.00000
0
VERTEX
8
18_54000
10
28.70800
20
-29.75300
30
54.00000
0
VERTEX
8
18_54000
10
28.60400
20
-29.14600
30
54.00000
0
VERTEX
8
18_54000
10
28.00100
20
-26.71400
30
54.00000
0
VERTEX
8
18_54000
10
27.93100
20
-26.49700
30
54.00000
0
VERTEX
8
18_54000
10
27.77000
20
-26.08200
30
54.00000
0
VERTEX
8
18_54000
10
27.70800
20
-25.83000
30
54.00000
0
VERTEX
8
18_54000
10
27.33400
20
-24.44900
30
54.00000
0
VERTEX
8
18_54000
10
27.30900
20
-24.00000
30
54.00000
0
VERTEX
8
18_54000
10
27.31300
20
-23.81300
30
54.00000
0
VERTEX
8
18_54000
10
27.36800
20
-23.19800
30
54.00000
0
VERTEX
8
18_54000
10
27.41400
20
-23.10500
30
54.00000
0
VERTEX
8
18_54000
10
27.65200
20
-22.82900
30
54.00000
0
VERTEX
8
18_54000
10
27.76200
20
-22.66900
30
54.00000
0
VERTEX
8
18_54000
10
28.17100
20
-22.29900
30
54.00000
0
VERTEX
8
18_54000
10
30.50200
20
-19.83700
30
54.00000
0
VERTEX
8
18_54000
10
30.72700
20
-19.58500
30
54.00000
0
VERTEX
8
18_54000
10
31.25000
20
-18.84800
30
54.00000
0
VERTEX
8
18_54000
10
31.54500
20
-18.27800
30
54.00000
0
VERTEX
8
18_54000
10
31.86300
20
-17.81600
30
54.00000
0
VERTEX
8
18_54000
10
32.20100
20
-16.73200
30
54.00000
0
VERTEX
8
18_54000
10
32.40400
20
-16.25200
30
54.00000
0
VERTEX
8
18_54000
10
32.61900
20
-15.52100
30
54.00000
0
VERTEX
8
18_54000
10
32.93000
20
-14.70100
30
54.00000
0
VERTEX
8
18_54000
10
33.19600
20
-13.67000
30
54.00000
0
VERTEX
8
18_54000
10
33.22000
20
-13.51700
30
54.00000
0
VERTEX
8
18_54000
10
33.27500
20
-12.86700
30
54.00000
0
VERTEX
8
18_54000
10
33.30400
20
-12.23000
30
54.00000
0
VERTEX
8
18_54000
10
33.28100
20
-12.10600
30
54.00000
0
VERTEX
8
18_54000
10
33.12800
20
-11.45600
30
54.00000
0
VERTEX
8
18_54000
10
32.97600
20
-11.05800
30
54.00000
0
VERTEX
8
18_54000
10
32.96100
20
-10.86600
30
54.00000
0
VERTEX
8
18_54000
10
32.94000
20
-10.73400
30
54.00000
0
VERTEX
8
18_54000
10
32.47900
20
-8.73200
30
54.00000
0
VERTEX
8
18_54000
10
32.36200
20
-8.01200
30
54.00000
0
VERTEX
8
18_54000
10
32.36100
20
-7.48400
30
54.00000
0
VERTEX
8
18_54000
10
32.32400
20
-6.49400
30
54.00000
0
VERTEX
8
18_54000
10
32.29200
20
-6.33900
30
54.00000
0
VERTEX
8
18_54000
10
32.26600
20
-4.84700
30
54.00000
0
VERTEX
8
18_54000
10
32.24700
20
-4.77200
30
54.00000
0
VERTEX
8
18_54000
10
31.87200
20
-3.89200
30
54.00000
0
VERTEX
8
18_54000
10
31.61500
20
-3.10400
30
54.00000
0
VERTEX
8
18_54000
10
31.54200
20
-2.68100
30
54.00000
0
VERTEX
8
18_54000
10
31.36800
20
-2.35800
30
54.00000
0
VERTEX
8
18_54000
10
31.15700
20
-1.43300
30
54.00000
0
VERTEX
8
18_54000
10
31.02300
20
-0.95200
30
54.00000
0
VERTEX
8
18_54000
10
30.97400
20
-0.29600
30
54.00000
0
VERTEX
8
18_54000
10
30.86500
20
0.67200
30
54.00000
0
VERTEX
8
18_54000
10
30.85900
20
0.77500
30
54.00000
0
VERTEX
8
18_54000
10
30.97600
20
1.79700
30
54.00000
0
VERTEX
8
18_54000
10
31.11900
20
3.22400
30
54.00000
0
VERTEX
8
18_54000
10
31.14300
20
3.34000
30
54.00000
0
VERTEX
8
18_54000
10
31.17800
20
3.42600
30
54.00000
0
VERTEX
8
18_54000
10
31.43000
20
4.24000
30
54.00000
0
VERTEX
8
18_54000
10
31.89800
20
5.50100
30
54.00000
0
VERTEX
8
18_54000
10
32.47400
20
6.47700
30
54.00000
0
VERTEX
8
18_54000
10
32.63500
20
6.71000
30
54.00000
0
VERTEX
8
18_54000
10
32.75200
20
6.84300
30
54.00000
0
VERTEX
8
18_54000
10
32.84700
20
6.98600
30
54.00000
0
VERTEX
8
18_54000
10
33.57200
20
8.14100
30
54.00000
0
VERTEX
8
18_54000
10
34.06500
20
8.86000
30
54.00000
0
VERTEX
8
18_54000
10
34.40700
20
9.39500
30
54.00000
0
VERTEX
8
18_54000
10
35.07600
20
10.93100
30
54.00000
0
VERTEX
8
18_54000
10
35.20900
20
11.29100
30
54.00000
0
VERTEX
8
18_54000
10
35.40700
20
11.97300
30
54.00000
0
VERTEX
8
18_54000
10
35.43900
20
12.90900
30
54.00000
0
VERTEX
8
18_54000
10
35.45900
20
13.07100
30
54.00000
0
VERTEX
8
18_54000
10
35.26700
20
14.25400
30
54.00000
0
VERTEX
8
18_54000
10
35.23100
20
14.35900
30
54.00000
0
VERTEX
8
18_54000
10
34.90800
20
15.82900
30
54.00000
0
VERTEX
8
18_54000
10
34.76800
20
16.11700
30
54.00000
0
VERTEX
8
18_54000
10
34.70900
20
16.27300
30
54.00000
0
VERTEX
8
18_54000
10
34.64200
20
16.75600
30
54.00000
0
VERTEX
8
18_54000
10
34.34600
20
17.66400
30
54.00000
0
VERTEX
8
18_54000
10
34.24500
20
18.39600
30
54.00000
0
VERTEX
8
18_54000
10
34.23700
20
19.08800
30
54.00000
0
VERTEX
8
18_54000
10
34.29900
20
19.55500
30
54.00000
0
VERTEX
8
18_54000
10
34.18100
20
21.81700
30
54.00000
0
VERTEX
8
18_54000
10
34.05100
20
23.18600
30
54.00000
0
VERTEX
8
18_54000
10
33.73700
20
24.83200
30
54.00000
0
VERTEX
8
18_54000
10
32.95900
20
27.70000
30
54.00000
0
VERTEX
8
18_54000
10
32.52300
20
29.27200
30
54.00000
0
VERTEX
8
18_54000
10
32.31000
20
29.86400
30
54.00000
0
VERTEX
8
18_54000
10
32.16100
20
30.34700
30
54.00000
0
VERTEX
8
18_54000
10
32.03200
20
30.82800
30
54.00000
0
VERTEX
8
18_54000
10
31.35500
20
32.78400
30
54.00000
0
VERTEX
8
18_54000
10
30.83800
20
34.16900
30
54.00000
0
VERTEX
8
18_54000
10
30.23900
20
35.94800
30
54.00000
0
VERTEX
8
18_54000
10
29.88000
20
37.12000
30
54.00000
0
VERTEX
8
18_54000
10
29.28900
20
39.37600
30
54.00000
0
VERTEX
8
18_54000
10
29.24400
20
40.23200
30
54.00000
0
VERTEX
8
18_54000
10
29.06700
20
41.87000
30
54.00000
0
VERTEX
8
18_54000
10
29.05700
20
42.61400
30
54.00000
0
VERTEX
8
18_54000
10
29.06600
20
42.79400
30
54.00000
0
VERTEX
8
18_54000
10
29.09200
20
42.92400
30
54.00000
0
VERTEX
8
18_54000
10
29.18100
20
44.00400
30
54.00000
0
VERTEX
8
18_54000
10
29.21100
20
44.51700
30
54.00000
0
VERTEX
8
18_54000
10
29.11100
20
45.58200
30
54.00000
0
VERTEX
8
18_54000
10
29.01200
20
46.76500
30
54.00000
0
VERTEX
8
18_54000
10
28.89500
20
47.26400
30
54.00000
0
VERTEX
8
18_54000
10
28.83700
20
47.61700
30
54.00000
0
VERTEX
8
18_54000
10
28.51600
20
48.61400
30
54.00000
0
VERTEX
8
18_54000
10
28.26600
20
49.26500
30
54.00000
0
VERTEX
8
18_54000
10
27.81000
20
50.22300
30
54.00000
0
VERTEX
8
18_54000
10
27.80700
20
50.43500
30
54.00000
0
VERTEX
8
18_54000
10
27.75500
20
50.69000
30
54.00000
0
VERTEX
8
18_54000
10
27.82800
20
51.18200
30
54.00000
0
VERTEX
8
18_54000
10
27.86900
20
51.28200
30
54.00000
0
VERTEX
8
18_54000
10
28.17200
20
51.72900
30
54.00000
0
VERTEX
8
18_54000
10
28.54900
20
52.14500
30
54.00000
0
VERTEX
8
18_54000
10
28.96600
20
52.78700
30
54.00000
0
VERTEX
8
18_54000
10
29.31300
20
53.46000
30
54.00000
0
VERTEX
8
18_54000
10
29.55400
20
54.05700
30
54.00000
0
VERTEX
8
18_54000
10
29.61300
20
54.26200
30
54.00000
0
VERTEX
8
18_54000
10
29.83300
20
54.87200
30
54.00000
0
VERTEX
8
18_54000
10
29.95800
20
55.19200
30
54.00000
0
VERTEX
8
18_54000
10
30.02400
20
55.32900
30
54.00000
0
VERTEX
8
18_54000
10
30.05100
20
55.36500
30
54.00000
0
VERTEX
8
18_54000
10
31.42500
20
56.78500
30
54.00000
0
VERTEX
8
18_54000
10
31.58500
20
57.08400
30
54.00000
0
VERTEX
8
18_54000
10
32.25100
20
58.16400
30
54.00000
0
VERTEX
8
18_54000
10
33.22700
20
60.03000
30
54.00000
0
VERTEX
8
18_54000
10
34.29700
20
61.88800
30
54.00000
0
VERTEX
8
18_54000
10
35.56400
20
63.82200
30
54.00000
0
VERTEX
8
18_54000
10
36.11600
20
64.74100
30
54.00000
0
VERTEX
8
18_54000
10
36.46600
20
65.35700
30
54.00000
0
VERTEX
8
18_54000
10
37.48700
20
67.35001
30
54.00000
0
VERTEX
8
18_54000
10
38.23300
20
69.38200
30
54.00000
0
VERTEX
8
18_54000
10
38.37000
20
69.71800
30
54.00000
0
VERTEX
8
18_54000
10
38.75100
20
71.09100
30
54.00000
0
VERTEX
8
18_54000
10
38.88100
20
71.88600
30
54.00000
0
VERTEX
8
18_54000
10
38.94800
20
73.67600
30
54.00000
0
VERTEX
8
18_54000
10
38.93300
20
74.00600
30
54.00000
0
VERTEX
8
18_54000
10
38.82200
20
75.24300
30
54.00000
0
VERTEX
8
18_54000
10
38.73600
20
76.06300
30
54.00000
0
VERTEX
8
18_54000
10
38.54900
20
77.40800
30
54.00000
0
VERTEX
8
18_54000
10
38.22200
20
79.18600
30
54.00000
0
VERTEX
8
18_54000
10
37.50900
20
82.21400
30
54.00000
0
VERTEX
8
18_54000
10
36.91000
20
84.14500
30
54.00000
0
VERTEX
8
18_54000
10
36.38200
20
85.73901
30
54.00000
0
VERTEX
8
18_54000
10
12.15400
20
89.78500
30
54.00000
0
VERTEX
8
18_54000
10
-56.17000
20
89.78500
30
54.00000
0
VERTEX
8
18_54000
10
-56.17000
20
-14.09600
30
54.00000
0
SEQEND
8
18_54000
0
POLYLINE
8
18_54000
62
5
0
VERTEX
8
18_54000
10
10.43200
20
90.07001
30
54.00000
0
VERTEX
8
18_54000
10
7.13100
20
90.62200
30
54.00000
0
VERTEX
8
18_54000
10
-56.17000
20
90.62200
30
54.00000
0
VERTEX
8
18_54000
10
-56.17000
20
89.78500
30
54.00000
0
VERTEX
8
18_54000
10
12.14900
20
89.78500
30
54.00000
0
VERTEX
8
18_54000
10
10.43200
20
90.07001
30
54.00000
0
SEQEND
8
18_54000
0
ENDSEC
0
EOF
