0
SECTION
2
HEADER
9
$ACADVER
1
AC1009
0
ENDSEC
0
SECTION
2
TABLES
0
TABLE
2
LAYER
70
1
0
LAYER
2
7_21000
70
0
62
7
6
CONTINUOUS
0
ENDTAB
0
ENDSEC
0
SECTION
2
BLOCKS
0
ENDSEC
0
SECTION
2
ENTITIES
0
POLYLINE
8
7_21000
62
5
0
VERTEX
8
7_21000
10
-48.58700
20
91.35001
30
21.00000
0
VERTEX
8
7_21000
10
2.77200
20
91.35001
30
21.00000
0
VERTEX
8
7_21000
10
2.69600
20
91.36201
30
21.00000
0
VERTEX
8
7_21000
10
-56.17000
20
91.36201
30
21.00000
0
VERTEX
8
7_21000
10
-56.17000
20
91.35001
30
21.00000
0
VERTEX
8
7_21000
10
-48.58700
20
91.35001
30
21.00000
0
SEQEND
8
7_21000
0
POLYLINE
8
7_21000
62
5
0
VERTEX
8
7_21000
10
-48.58000
20
91.34901
30
21.00000
0
VERTEX
8
7_21000
10
-56.17000
20
91.34901
30
21.00000
0
VERTEX
8
7_21000
10
-56.17000
20
91.33200
30
21.00000
0
VERTEX
8
7_21000
10
2.87500
20
91.33200
30
21.00000
0
VERTEX
8
7_21000
10
2.77800
20
91.34901
30
21.00000
0
VERTEX
8
7_21000
10
-48.58000
20
91.34901
30
21.00000
0
SEQEND
8
7_21000
0
POLYLINE
8
7_21000
62
5
0
VERTEX
8
7_21000
10
-48.23900
20
91.28300
30
21.00000
0
VERTEX
8
7_21000
10
3.17300
20
91.28300
30
21.00000
0
VERTEX
8
7_21000
10
2.87900
20
91.33200
30
21.00000
0
VERTEX
8
7_21000
10
-56.17000
20
91.33200
30
21.00000
0
VERTEX
8
7_21000
10
-56.17000
20
91.28300
30
21.00000
0
VERTEX
8
7_21000
10
-48.23900
20
91.28300
30
21.00000
0
SEQEND
8
7_21000
0
POLYLINE
8
7_21000
62
5
0
VERTEX
8
7_21000
10
-24.43800
20
90.73200
30
21.00000
0
VERTEX
8
7_21000
10
-56.17000
20
90.73300
30
21.00000
0
VERTEX
8
7_21000
10
-56.17000
20
-92.11401
30
21.00000
0
VERTEX
8
7_21000
10
-3.18700
20
-92.11401
30
21.00000
0
VERTEX
8
7_21000
10
-3.46300
20
-91.47601
30
21.00000
0
VERTEX
8
7_21000
10
-3.88600
20
-90.36501
30
21.00000
0
VERTEX
8
7_21000
10
-5.31600
20
-86.67400
30
21.00000
0
VERTEX
8
7_21000
10
-5.98500
20
-84.98801
30
21.00000
0
VERTEX
8
7_21000
10
-6.10500
20
-84.61401
30
21.00000
0
VERTEX
8
7_21000
10
-6.95100
20
-82.31700
30
21.00000
0
VERTEX
8
7_21000
10
-7.41500
20
-80.81200
30
21.00000
0
VERTEX
8
7_21000
10
-7.49800
20
-80.59100
30
21.00000
0
VERTEX
8
7_21000
10
-7.76500
20
-79.66500
30
21.00000
0
VERTEX
8
7_21000
10
-8.38300
20
-77.16600
30
21.00000
0
VERTEX
8
7_21000
10
-8.73400
20
-75.60600
30
21.00000
0
VERTEX
8
7_21000
10
-8.80500
20
-75.18501
30
21.00000
0
VERTEX
8
7_21000
10
-8.76400
20
-74.58401
30
21.00000
0
VERTEX
8
7_21000
10
-8.79000
20
-74.29900
30
21.00000
0
VERTEX
8
7_21000
10
-8.49400
20
-73.51000
30
21.00000
0
VERTEX
8
7_21000
10
-8.20400
20
-72.56300
30
21.00000
0
VERTEX
8
7_21000
10
-7.96000
20
-72.21700
30
21.00000
0
VERTEX
8
7_21000
10
-7.86100
20
-71.93600
30
21.00000
0
VERTEX
8
7_21000
10
-7.71600
20
-71.72200
30
21.00000
0
VERTEX
8
7_21000
10
-6.50000
20
-70.29800
30
21.00000
0
VERTEX
8
7_21000
10
-6.23300
20
-69.99600
30
21.00000
0
VERTEX
8
7_21000
10
-5.24600
20
-68.78400
30
21.00000
0
VERTEX
8
7_21000
10
-5.05500
20
-68.64500
30
21.00000
0
VERTEX
8
7_21000
10
-4.88000
20
-68.29700
30
21.00000
0
VERTEX
8
7_21000
10
-4.29300
20
-67.54401
30
21.00000
0
VERTEX
8
7_21000
10
-3.30200
20
-66.42400
30
21.00000
0
VERTEX
8
7_21000
10
-3.15400
20
-66.30000
30
21.00000
0
VERTEX
8
7_21000
10
-2.12600
20
-64.94901
30
21.00000
0
VERTEX
8
7_21000
10
-1.88600
20
-64.64800
30
21.00000
0
VERTEX
8
7_21000
10
-0.61600
20
-62.45400
30
21.00000
0
VERTEX
8
7_21000
10
0.05500
20
-61.26200
30
21.00000
0
VERTEX
8
7_21000
10
0.10400
20
-61.05700
30
21.00000
0
VERTEX
8
7_21000
10
0.40100
20
-60.07900
30
21.00000
0
VERTEX
8
7_21000
10
0.62200
20
-59.72600
30
21.00000
0
VERTEX
8
7_21000
10
0.98200
20
-59.08400
30
21.00000
0
VERTEX
8
7_21000
10
1.12600
20
-58.72800
30
21.00000
0
VERTEX
8
7_21000
10
1.63500
20
-57.70800
30
21.00000
0
VERTEX
8
7_21000
10
1.70700
20
-57.34700
30
21.00000
0
VERTEX
8
7_21000
10
1.80200
20
-57.12800
30
21.00000
0
VERTEX
8
7_21000
10
2.19800
20
-56.12400
30
21.00000
0
VERTEX
8
7_21000
10
2.28800
20
-56.01900
30
21.00000
0
VERTEX
8
7_21000
10
2.43600
20
-55.39300
30
21.00000
0
VERTEX
8
7_21000
10
2.47200
20
-55.28300
30
21.00000
0
VERTEX
8
7_21000
10
2.92200
20
-54.17100
30
21.00000
0
VERTEX
8
7_21000
10
3.06700
20
-53.48500
30
21.00000
0
VERTEX
8
7_21000
10
3.15200
20
-53.19700
30
21.00000
0
VERTEX
8
7_21000
10
3.50900
20
-52.31600
30
21.00000
0
VERTEX
8
7_21000
10
3.52900
20
-52.28600
30
21.00000
0
VERTEX
8
7_21000
10
4.25000
20
-50.56400
30
21.00000
0
VERTEX
8
7_21000
10
4.41900
20
-50.18500
30
21.00000
0
VERTEX
8
7_21000
10
4.49400
20
-50.07400
30
21.00000
0
VERTEX
8
7_21000
10
5.51300
20
-48.85700
30
21.00000
0
VERTEX
8
7_21000
10
6.17200
20
-47.87200
30
21.00000
0
VERTEX
8
7_21000
10
6.67400
20
-46.92900
30
21.00000
0
VERTEX
8
7_21000
10
7.41700
20
-45.31200
30
21.00000
0
VERTEX
8
7_21000
10
7.77100
20
-44.52300
30
21.00000
0
VERTEX
8
7_21000
10
7.86200
20
-44.24200
30
21.00000
0
VERTEX
8
7_21000
10
8.22700
20
-42.98200
30
21.00000
0
VERTEX
8
7_21000
10
8.33300
20
-42.81800
30
21.00000
0
VERTEX
8
7_21000
10
8.56900
20
-42.38600
30
21.00000
0
VERTEX
8
7_21000
10
8.73600
20
-42.02300
30
21.00000
0
VERTEX
8
7_21000
10
9.37400
20
-40.75000
30
21.00000
0
VERTEX
8
7_21000
10
9.53700
20
-40.39900
30
21.00000
0
VERTEX
8
7_21000
10
9.63800
20
-40.22800
30
21.00000
0
VERTEX
8
7_21000
10
9.87400
20
-39.63700
30
21.00000
0
VERTEX
8
7_21000
10
10.07200
20
-39.04900
30
21.00000
0
VERTEX
8
7_21000
10
10.13600
20
-38.55500
30
21.00000
0
VERTEX
8
7_21000
10
10.23800
20
-38.25900
30
21.00000
0
VERTEX
8
7_21000
10
10.32600
20
-37.70900
30
21.00000
0
VERTEX
8
7_21000
10
10.38900
20
-37.38200
30
21.00000
0
VERTEX
8
7_21000
10
10.63100
20
-36.69100
30
21.00000
0
VERTEX
8
7_21000
10
10.64900
20
-36.48300
30
21.00000
0
VERTEX
8
7_21000
10
10.68800
20
-36.20900
30
21.00000
0
VERTEX
8
7_21000
10
10.71900
20
-36.09100
30
21.00000
0
VERTEX
8
7_21000
10
10.74600
20
-36.02200
30
21.00000
0
VERTEX
8
7_21000
10
10.89400
20
-35.27900
30
21.00000
0
VERTEX
8
7_21000
10
11.00200
20
-34.95300
30
21.00000
0
VERTEX
8
7_21000
10
11.02300
20
-34.81600
30
21.00000
0
VERTEX
8
7_21000
10
11.07700
20
-34.63600
30
21.00000
0
VERTEX
8
7_21000
10
11.14800
20
-34.17500
30
21.00000
0
VERTEX
8
7_21000
10
11.31200
20
-32.99300
30
21.00000
0
VERTEX
8
7_21000
10
11.42200
20
-32.42100
30
21.00000
0
VERTEX
8
7_21000
10
11.63600
20
-31.56800
30
21.00000
0
VERTEX
8
7_21000
10
11.68900
20
-31.45600
30
21.00000
0
VERTEX
8
7_21000
10
12.14700
20
-29.99300
30
21.00000
0
VERTEX
8
7_21000
10
12.31500
20
-29.61800
30
21.00000
0
VERTEX
8
7_21000
10
12.58000
20
-28.11300
30
21.00000
0
VERTEX
8
7_21000
10
12.63500
20
-27.68200
30
21.00000
0
VERTEX
8
7_21000
10
12.97100
20
-26.47800
30
21.00000
0
VERTEX
8
7_21000
10
13.19800
20
-25.74200
30
21.00000
0
VERTEX
8
7_21000
10
13.43600
20
-24.86200
30
21.00000
0
VERTEX
8
7_21000
10
13.43900
20
-24.70800
30
21.00000
0
VERTEX
8
7_21000
10
13.58600
20
-23.99600
30
21.00000
0
VERTEX
8
7_21000
10
14.06900
20
-22.36300
30
21.00000
0
VERTEX
8
7_21000
10
14.14900
20
-22.12600
30
21.00000
0
VERTEX
8
7_21000
10
14.43600
20
-21.16600
30
21.00000
0
VERTEX
8
7_21000
10
14.82500
20
-19.47700
30
21.00000
0
VERTEX
8
7_21000
10
15.36900
20
-17.87900
30
21.00000
0
VERTEX
8
7_21000
10
15.43500
20
-17.66100
30
21.00000
0
VERTEX
8
7_21000
10
15.80300
20
-16.27700
30
21.00000
0
VERTEX
8
7_21000
10
16.05200
20
-15.50700
30
21.00000
0
VERTEX
8
7_21000
10
16.48200
20
-14.06800
30
21.00000
0
VERTEX
8
7_21000
10
16.66500
20
-13.36100
30
21.00000
0
VERTEX
8
7_21000
10
17.97500
20
-9.33900
30
21.00000
0
VERTEX
8
7_21000
10
19.13400
20
-5.71300
30
21.00000
0
VERTEX
8
7_21000
10
19.30800
20
-5.14500
30
21.00000
0
VERTEX
8
7_21000
10
19.81300
20
-3.39000
30
21.00000
0
VERTEX
8
7_21000
10
19.86900
20
-3.06900
30
21.00000
0
VERTEX
8
7_21000
10
20.10200
20
-2.29100
30
21.00000
0
VERTEX
8
7_21000
10
20.50900
20
-0.47500
30
21.00000
0
VERTEX
8
7_21000
10
20.67400
20
0.51400
30
21.00000
0
VERTEX
8
7_21000
10
20.99800
20
3.58200
30
21.00000
0
VERTEX
8
7_21000
10
21.01300
20
3.78900
30
21.00000
0
VERTEX
8
7_21000
10
21.01600
20
4.88800
30
21.00000
0
VERTEX
8
7_21000
10
21.00200
20
7.82800
30
21.00000
0
VERTEX
8
7_21000
10
21.01000
20
8.29100
30
21.00000
0
VERTEX
8
7_21000
10
20.98000
20
9.05700
30
21.00000
0
VERTEX
8
7_21000
10
20.68900
20
13.48100
30
21.00000
0
VERTEX
8
7_21000
10
20.50500
20
15.31100
30
21.00000
0
VERTEX
8
7_21000
10
20.41900
20
16.97700
30
21.00000
0
VERTEX
8
7_21000
10
20.41200
20
17.33800
30
21.00000
0
VERTEX
8
7_21000
10
20.17600
20
20.18200
30
21.00000
0
VERTEX
8
7_21000
10
20.17500
20
20.70400
30
21.00000
0
VERTEX
8
7_21000
10
20.12200
20
22.15600
30
21.00000
0
VERTEX
8
7_21000
10
19.80700
20
25.03300
30
21.00000
0
VERTEX
8
7_21000
10
19.49300
20
26.51600
30
21.00000
0
VERTEX
8
7_21000
10
18.92900
20
29.03700
30
21.00000
0
VERTEX
8
7_21000
10
18.70800
20
29.86200
30
21.00000
0
VERTEX
8
7_21000
10
18.20500
20
31.62400
30
21.00000
0
VERTEX
8
7_21000
10
17.91400
20
32.61300
30
21.00000
0
VERTEX
8
7_21000
10
17.64400
20
34.19700
30
21.00000
0
VERTEX
8
7_21000
10
17.61300
20
34.48500
30
21.00000
0
VERTEX
8
7_21000
10
17.54300
20
35.35200
30
21.00000
0
VERTEX
8
7_21000
10
17.40600
20
35.72400
30
21.00000
0
VERTEX
8
7_21000
10
17.40300
20
36.37900
30
21.00000
0
VERTEX
8
7_21000
10
17.33800
20
36.84500
30
21.00000
0
VERTEX
8
7_21000
10
17.09300
20
39.69700
30
21.00000
0
VERTEX
8
7_21000
10
17.04700
20
39.95700
30
21.00000
0
VERTEX
8
7_21000
10
16.85800
20
41.51500
30
21.00000
0
VERTEX
8
7_21000
10
16.82100
20
41.90300
30
21.00000
0
VERTEX
8
7_21000
10
16.81900
20
42.17500
30
21.00000
0
VERTEX
8
7_21000
10
16.85000
20
43.21800
30
21.00000
0
VERTEX
8
7_21000
10
16.99700
20
43.98100
30
21.00000
0
VERTEX
8
7_21000
10
17.08600
20
44.22800
30
21.00000
0
VERTEX
8
7_21000
10
17.23200
20
44.68300
30
21.00000
0
VERTEX
8
7_21000
10
17.39900
20
45.04800
30
21.00000
0
VERTEX
8
7_21000
10
17.46600
20
45.16500
30
21.00000
0
VERTEX
8
7_21000
10
17.61200
20
45.40900
30
21.00000
0
VERTEX
8
7_21000
10
18.41000
20
46.49900
30
21.00000
0
VERTEX
8
7_21000
10
20.05900
20
48.58900
30
21.00000
0
VERTEX
8
7_21000
10
20.33000
20
49.14000
30
21.00000
0
VERTEX
8
7_21000
10
20.38100
20
49.30000
30
21.00000
0
VERTEX
8
7_21000
10
21.13700
20
50.49300
30
21.00000
0
VERTEX
8
7_21000
10
21.20400
20
50.63300
30
21.00000
0
VERTEX
8
7_21000
10
21.65700
20
51.30200
30
21.00000
0
VERTEX
8
7_21000
10
21.80500
20
51.63000
30
21.00000
0
VERTEX
8
7_21000
10
21.94300
20
51.88100
30
21.00000
0
VERTEX
8
7_21000
10
22.20300
20
52.53600
30
21.00000
0
VERTEX
8
7_21000
10
22.71200
20
54.67500
30
21.00000
0
VERTEX
8
7_21000
10
22.84700
20
55.18800
30
21.00000
0
VERTEX
8
7_21000
10
23.13500
20
56.85300
30
21.00000
0
VERTEX
8
7_21000
10
23.59400
20
59.15300
30
21.00000
0
VERTEX
8
7_21000
10
23.63700
20
59.33700
30
21.00000
0
VERTEX
8
7_21000
10
23.73800
20
59.61800
30
21.00000
0
VERTEX
8
7_21000
10
23.84100
20
60.01700
30
21.00000
0
VERTEX
8
7_21000
10
24.07800
20
61.46900
30
21.00000
0
VERTEX
8
7_21000
10
24.62800
20
64.48200
30
21.00000
0
VERTEX
8
7_21000
10
24.73200
20
64.99800
30
21.00000
0
VERTEX
8
7_21000
10
24.84800
20
66.06600
30
21.00000
0
VERTEX
8
7_21000
10
25.34900
20
67.52000
30
21.00000
0
VERTEX
8
7_21000
10
25.39100
20
67.68301
30
21.00000
0
VERTEX
8
7_21000
10
25.45900
20
68.03201
30
21.00000
0
VERTEX
8
7_21000
10
25.59700
20
68.93700
30
21.00000
0
VERTEX
8
7_21000
10
25.62400
20
69.58200
30
21.00000
0
VERTEX
8
7_21000
10
25.58700
20
70.51701
30
21.00000
0
VERTEX
8
7_21000
10
25.55000
20
70.75900
30
21.00000
0
VERTEX
8
7_21000
10
25.21400
20
72.66000
30
21.00000
0
VERTEX
8
7_21000
10
24.73700
20
74.56600
30
21.00000
0
VERTEX
8
7_21000
10
24.46100
20
75.78900
30
21.00000
0
VERTEX
8
7_21000
10
24.43600
20
76.09200
30
21.00000
0
VERTEX
8
7_21000
10
24.39800
20
76.29401
30
21.00000
0
VERTEX
8
7_21000
10
23.40700
20
79.93600
30
21.00000
0
VERTEX
8
7_21000
10
21.86800
20
84.63100
30
21.00000
0
VERTEX
8
7_21000
10
20.67700
20
88.36301
30
21.00000
0
VERTEX
8
7_21000
10
6.47200
20
90.73300
30
21.00000
0
VERTEX
8
7_21000
10
-24.43800
20
90.73200
30
21.00000
0
SEQEND
8
7_21000
0
POLYLINE
8
7_21000
62
5
0
VERTEX
8
7_21000
10
-47.63000
20
91.03101
30
21.00000
0
VERTEX
8
7_21000
10
4.68100
20
91.03101
30
21.00000
0
VERTEX
8
7_21000
10
3.17700
20
91.28201
30
21.00000
0
VERTEX
8
7_21000
10
-56.17000
20
91.28201
30
21.00000
0
VERTEX
8
7_21000
10
-56.17000
20
91.03101
30
21.00000
0
VERTEX
8
7_21000
10
-47.63000
20
91.03101
30
21.00000
0
SEQEND
8
7_21000
0
POLYLINE
8
7_21000
62
5
0
VERTEX
8
7_21000
10
5.75400
20
90.85101
30
21.00000
0
VERTEX
8
7_21000
10
4.68900
20
91.03001
30
21.00000
0
VERTEX
8
7_21000
10
-56.17000
20
91.03001
30
21.00000
0
VERTEX
8
7_21000
10
-56.17000
20
90.73300
30
21.00000
0
VERTEX
8
7_21000
10
6.47000
20
90.73300
30
21.00000
0
VERTEX
8
7_21000
10
5.75400
20
90.85101
30
21.00000
0
SEQEND
8
7_21000
0
ENDSEC
0
EOF
