0
SECTION
2
HEADER
9
$ACADVER
1
AC1009
0
ENDSEC
0
SECTION
2
TABLES
0
TABLE
2
LAYER
70
1
0
LAYER
2
23_69000
70
0
62
7
6
CONTINUOUS
0
ENDTAB
0
ENDSEC
0
SECTION
2
BLOCKS
0
ENDSEC
0
SECTION
2
ENTITIES
0
POLYLINE
8
23_69000
62
5
0
VERTEX
8
23_69000
10
-28.54100
20
91.60101
30
69.00000
0
VERTEX
8
23_69000
10
1.25300
20
91.60101
30
69.00000
0
VERTEX
8
23_69000
10
0.97900
20
91.64900
30
69.00000
0
VERTEX
8
23_69000
10
-56.17000
20
91.64900
30
69.00000
0
VERTEX
8
23_69000
10
-56.17000
20
91.60101
30
69.00000
0
VERTEX
8
23_69000
10
-28.54100
20
91.60101
30
69.00000
0
SEQEND
8
23_69000
0
POLYLINE
8
23_69000
62
5
0
VERTEX
8
23_69000
10
-28.10500
20
91.53900
30
69.00000
0
VERTEX
8
23_69000
10
1.63100
20
91.53900
30
69.00000
0
VERTEX
8
23_69000
10
1.27300
20
91.60001
30
69.00000
0
VERTEX
8
23_69000
10
-56.17000
20
91.60001
30
69.00000
0
VERTEX
8
23_69000
10
-56.17000
20
91.53900
30
69.00000
0
VERTEX
8
23_69000
10
-28.10500
20
91.53900
30
69.00000
0
SEQEND
8
23_69000
0
POLYLINE
8
23_69000
62
5
0
VERTEX
8
23_69000
10
-27.25200
20
91.36101
30
69.00000
0
VERTEX
8
23_69000
10
2.71400
20
91.36101
30
69.00000
0
VERTEX
8
23_69000
10
1.64600
20
91.53700
30
69.00000
0
VERTEX
8
23_69000
10
-56.17000
20
91.53700
30
69.00000
0
VERTEX
8
23_69000
10
-56.17000
20
91.36101
30
69.00000
0
VERTEX
8
23_69000
10
-27.25200
20
91.36101
30
69.00000
0
SEQEND
8
23_69000
0
POLYLINE
8
23_69000
62
5
0
VERTEX
8
23_69000
10
-56.17000
20
90.54201
30
69.00000
0
VERTEX
8
23_69000
10
-56.17000
20
90.44200
30
69.00000
0
VERTEX
8
23_69000
10
8.21400
20
90.44200
30
69.00000
0
VERTEX
8
23_69000
10
2.73000
20
91.35700
30
69.00000
0
VERTEX
8
23_69000
10
-56.17000
20
91.35700
30
69.00000
0
VERTEX
8
23_69000
10
-56.17000
20
90.54201
30
69.00000
0
SEQEND
8
23_69000
0
POLYLINE
8
23_69000
62
5
0
VERTEX
8
23_69000
10
-56.17000
20
-11.39700
30
69.00000
0
VERTEX
8
23_69000
10
-56.17000
20
-92.11401
30
69.00000
0
VERTEX
8
23_69000
10
25.97200
20
-92.11401
30
69.00000
0
VERTEX
8
23_69000
10
26.11700
20
-91.31600
30
69.00000
0
VERTEX
8
23_69000
10
26.19400
20
-91.15900
30
69.00000
0
VERTEX
8
23_69000
10
26.25300
20
-90.85300
30
69.00000
0
VERTEX
8
23_69000
10
26.31200
20
-90.64500
30
69.00000
0
VERTEX
8
23_69000
10
26.44300
20
-90.28800
30
69.00000
0
VERTEX
8
23_69000
10
26.53500
20
-90.14900
30
69.00000
0
VERTEX
8
23_69000
10
26.69900
20
-89.87400
30
69.00000
0
VERTEX
8
23_69000
10
27.90000
20
-88.78900
30
69.00000
0
VERTEX
8
23_69000
10
29.01100
20
-87.74300
30
69.00000
0
VERTEX
8
23_69000
10
30.22000
20
-86.24300
30
69.00000
0
VERTEX
8
23_69000
10
30.40700
20
-85.87801
30
69.00000
0
VERTEX
8
23_69000
10
30.77500
20
-85.41300
30
69.00000
0
VERTEX
8
23_69000
10
31.21900
20
-84.71600
30
69.00000
0
VERTEX
8
23_69000
10
31.34700
20
-84.45901
30
69.00000
0
VERTEX
8
23_69000
10
31.57600
20
-83.73801
30
69.00000
0
VERTEX
8
23_69000
10
32.13100
20
-82.49100
30
69.00000
0
VERTEX
8
23_69000
10
32.19900
20
-82.28500
30
69.00000
0
VERTEX
8
23_69000
10
32.42000
20
-80.76601
30
69.00000
0
VERTEX
8
23_69000
10
32.75000
20
-79.54800
30
69.00000
0
VERTEX
8
23_69000
10
32.86400
20
-79.27400
30
69.00000
0
VERTEX
8
23_69000
10
33.09200
20
-78.29401
30
69.00000
0
VERTEX
8
23_69000
10
33.09500
20
-78.23000
30
69.00000
0
VERTEX
8
23_69000
10
33.00400
20
-77.81500
30
69.00000
0
VERTEX
8
23_69000
10
32.92600
20
-77.36401
30
69.00000
0
VERTEX
8
23_69000
10
32.98400
20
-77.15401
30
69.00000
0
VERTEX
8
23_69000
10
33.01700
20
-76.94601
30
69.00000
0
VERTEX
8
23_69000
10
33.31800
20
-75.82401
30
69.00000
0
VERTEX
8
23_69000
10
33.36200
20
-75.71900
30
69.00000
0
VERTEX
8
23_69000
10
33.67400
20
-75.12701
30
69.00000
0
VERTEX
8
23_69000
10
33.64500
20
-75.04100
30
69.00000
0
VERTEX
8
23_69000
10
33.72200
20
-74.94000
30
69.00000
0
VERTEX
8
23_69000
10
33.94800
20
-74.37200
30
69.00000
0
VERTEX
8
23_69000
10
34.08000
20
-74.08000
30
69.00000
0
VERTEX
8
23_69000
10
34.14500
20
-73.98300
30
69.00000
0
VERTEX
8
23_69000
10
34.23500
20
-73.79900
30
69.00000
0
VERTEX
8
23_69000
10
34.24000
20
-73.61501
30
69.00000
0
VERTEX
8
23_69000
10
34.47300
20
-73.05400
30
69.00000
0
VERTEX
8
23_69000
10
34.60800
20
-72.56700
30
69.00000
0
VERTEX
8
23_69000
10
34.63100
20
-72.44300
30
69.00000
0
VERTEX
8
23_69000
10
34.88900
20
-71.72701
30
69.00000
0
VERTEX
8
23_69000
10
35.02700
20
-71.03300
30
69.00000
0
VERTEX
8
23_69000
10
35.10100
20
-69.49600
30
69.00000
0
VERTEX
8
23_69000
10
35.09300
20
-69.43900
30
69.00000
0
VERTEX
8
23_69000
10
35.26300
20
-68.40800
30
69.00000
0
VERTEX
8
23_69000
10
35.26800
20
-68.27400
30
69.00000
0
VERTEX
8
23_69000
10
35.08700
20
-67.51400
30
69.00000
0
VERTEX
8
23_69000
10
35.03900
20
-67.18700
30
69.00000
0
VERTEX
8
23_69000
10
35.02300
20
-66.82401
30
69.00000
0
VERTEX
8
23_69000
10
35.06600
20
-66.08300
30
69.00000
0
VERTEX
8
23_69000
10
34.97500
20
-65.15300
30
69.00000
0
VERTEX
8
23_69000
10
34.92700
20
-64.21600
30
69.00000
0
VERTEX
8
23_69000
10
34.93600
20
-63.98900
30
69.00000
0
VERTEX
8
23_69000
10
34.92200
20
-63.76500
30
69.00000
0
VERTEX
8
23_69000
10
34.56800
20
-61.48800
30
69.00000
0
VERTEX
8
23_69000
10
34.31200
20
-60.37700
30
69.00000
0
VERTEX
8
23_69000
10
34.09500
20
-59.26400
30
69.00000
0
VERTEX
8
23_69000
10
34.01700
20
-58.49800
30
69.00000
0
VERTEX
8
23_69000
10
33.81000
20
-57.31200
30
69.00000
0
VERTEX
8
23_69000
10
33.60900
20
-56.06000
30
69.00000
0
VERTEX
8
23_69000
10
33.54800
20
-54.07000
30
69.00000
0
VERTEX
8
23_69000
10
33.57900
20
-53.24900
30
69.00000
0
VERTEX
8
23_69000
10
33.66300
20
-52.57100
30
69.00000
0
VERTEX
8
23_69000
10
33.70800
20
-52.36600
30
69.00000
0
VERTEX
8
23_69000
10
33.90100
20
-51.20500
30
69.00000
0
VERTEX
8
23_69000
10
34.19600
20
-50.07200
30
69.00000
0
VERTEX
8
23_69000
10
34.23600
20
-49.95700
30
69.00000
0
VERTEX
8
23_69000
10
34.58100
20
-49.23800
30
69.00000
0
VERTEX
8
23_69000
10
34.91700
20
-48.68400
30
69.00000
0
VERTEX
8
23_69000
10
35.04500
20
-48.49000
30
69.00000
0
VERTEX
8
23_69000
10
35.08700
20
-48.30800
30
69.00000
0
VERTEX
8
23_69000
10
35.69300
20
-47.38100
30
69.00000
0
VERTEX
8
23_69000
10
36.11800
20
-46.54100
30
69.00000
0
VERTEX
8
23_69000
10
36.28500
20
-46.03300
30
69.00000
0
VERTEX
8
23_69000
10
36.39400
20
-45.86800
30
69.00000
0
VERTEX
8
23_69000
10
36.43800
20
-45.71800
30
69.00000
0
VERTEX
8
23_69000
10
36.50900
20
-45.42000
30
69.00000
0
VERTEX
8
23_69000
10
36.81400
20
-44.80400
30
69.00000
0
VERTEX
8
23_69000
10
36.85500
20
-44.49000
30
69.00000
0
VERTEX
8
23_69000
10
37.01800
20
-43.87900
30
69.00000
0
VERTEX
8
23_69000
10
37.09000
20
-43.69700
30
69.00000
0
VERTEX
8
23_69000
10
37.11200
20
-43.07700
30
69.00000
0
VERTEX
8
23_69000
10
37.22600
20
-42.67800
30
69.00000
0
VERTEX
8
23_69000
10
37.22700
20
-42.28900
30
69.00000
0
VERTEX
8
23_69000
10
37.20700
20
-42.15500
30
69.00000
0
VERTEX
8
23_69000
10
37.27100
20
-42.00800
30
69.00000
0
VERTEX
8
23_69000
10
37.31600
20
-41.49800
30
69.00000
0
VERTEX
8
23_69000
10
37.35400
20
-41.29600
30
69.00000
0
VERTEX
8
23_69000
10
37.34500
20
-41.21200
30
69.00000
0
VERTEX
8
23_69000
10
37.35500
20
-41.09800
30
69.00000
0
VERTEX
8
23_69000
10
37.36400
20
-40.66400
30
69.00000
0
VERTEX
8
23_69000
10
37.43800
20
-39.32500
30
69.00000
0
VERTEX
8
23_69000
10
37.47800
20
-39.01000
30
69.00000
0
VERTEX
8
23_69000
10
37.71300
20
-37.88000
30
69.00000
0
VERTEX
8
23_69000
10
37.96300
20
-37.02200
30
69.00000
0
VERTEX
8
23_69000
10
38.13500
20
-36.10300
30
69.00000
0
VERTEX
8
23_69000
10
38.27700
20
-35.44700
30
69.00000
0
VERTEX
8
23_69000
10
38.42300
20
-34.29000
30
69.00000
0
VERTEX
8
23_69000
10
38.45400
20
-33.52000
30
69.00000
0
VERTEX
8
23_69000
10
38.45600
20
-33.06100
30
69.00000
0
VERTEX
8
23_69000
10
38.27100
20
-30.86800
30
69.00000
0
VERTEX
8
23_69000
10
38.20400
20
-30.50400
30
69.00000
0
VERTEX
8
23_69000
10
38.07500
20
-29.61100
30
69.00000
0
VERTEX
8
23_69000
10
37.90300
20
-28.93100
30
69.00000
0
VERTEX
8
23_69000
10
37.41600
20
-27.42800
30
69.00000
0
VERTEX
8
23_69000
10
37.04300
20
-26.31500
30
69.00000
0
VERTEX
8
23_69000
10
36.66900
20
-25.23800
30
69.00000
0
VERTEX
8
23_69000
10
36.26500
20
-24.20200
30
69.00000
0
VERTEX
8
23_69000
10
36.11200
20
-23.24900
30
69.00000
0
VERTEX
8
23_69000
10
36.12800
20
-23.21800
30
69.00000
0
VERTEX
8
23_69000
10
36.20900
20
-22.89200
30
69.00000
0
VERTEX
8
23_69000
10
36.74800
20
-22.23200
30
69.00000
0
VERTEX
8
23_69000
10
37.60600
20
-21.08100
30
69.00000
0
VERTEX
8
23_69000
10
38.32100
20
-19.76700
30
69.00000
0
VERTEX
8
23_69000
10
38.50500
20
-19.31600
30
69.00000
0
VERTEX
8
23_69000
10
39.26200
20
-17.25300
30
69.00000
0
VERTEX
8
23_69000
10
39.34400
20
-17.05600
30
69.00000
0
VERTEX
8
23_69000
10
39.73100
20
-15.79500
30
69.00000
0
VERTEX
8
23_69000
10
39.87700
20
-15.41300
30
69.00000
0
VERTEX
8
23_69000
10
40.01200
20
-14.91400
30
69.00000
0
VERTEX
8
23_69000
10
40.14200
20
-14.53100
30
69.00000
0
VERTEX
8
23_69000
10
40.15700
20
-14.01100
30
69.00000
0
VERTEX
8
23_69000
10
40.14700
20
-13.78100
30
69.00000
0
VERTEX
8
23_69000
10
40.16000
20
-13.52400
30
69.00000
0
VERTEX
8
23_69000
10
40.11500
20
-12.95900
30
69.00000
0
VERTEX
8
23_69000
10
40.17200
20
-12.63200
30
69.00000
0
VERTEX
8
23_69000
10
40.26300
20
-11.84600
30
69.00000
0
VERTEX
8
23_69000
10
40.31600
20
-10.61900
30
69.00000
0
VERTEX
8
23_69000
10
40.34800
20
-9.44200
30
69.00000
0
VERTEX
8
23_69000
10
40.14600
20
-7.20100
30
69.00000
0
VERTEX
8
23_69000
10
40.18300
20
-6.84100
30
69.00000
0
VERTEX
8
23_69000
10
40.27000
20
-6.24800
30
69.00000
0
VERTEX
8
23_69000
10
40.30800
20
-5.73000
30
69.00000
0
VERTEX
8
23_69000
10
40.32400
20
-5.21200
30
69.00000
0
VERTEX
8
23_69000
10
40.39200
20
-4.61900
30
69.00000
0
VERTEX
8
23_69000
10
40.45000
20
-4.31100
30
69.00000
0
VERTEX
8
23_69000
10
40.50000
20
-4.11800
30
69.00000
0
VERTEX
8
23_69000
10
40.86700
20
-2.85300
30
69.00000
0
VERTEX
8
23_69000
10
40.97800
20
-2.54700
30
69.00000
0
VERTEX
8
23_69000
10
41.59800
20
-1.26200
30
69.00000
0
VERTEX
8
23_69000
10
42.01600
20
-0.62400
30
69.00000
0
VERTEX
8
23_69000
10
42.23400
20
-0.19700
30
69.00000
0
VERTEX
8
23_69000
10
42.54200
20
0.19500
30
69.00000
0
VERTEX
8
23_69000
10
42.98500
20
0.93300
30
69.00000
0
VERTEX
8
23_69000
10
43.17000
20
1.13800
30
69.00000
0
VERTEX
8
23_69000
10
43.49600
20
1.58200
30
69.00000
0
VERTEX
8
23_69000
10
44.26500
20
2.86100
30
69.00000
0
VERTEX
8
23_69000
10
44.63400
20
3.35300
30
69.00000
0
VERTEX
8
23_69000
10
44.93600
20
3.79400
30
69.00000
0
VERTEX
8
23_69000
10
45.40000
20
4.25300
30
69.00000
0
VERTEX
8
23_69000
10
45.91200
20
4.71100
30
69.00000
0
VERTEX
8
23_69000
10
46.25000
20
4.96000
30
69.00000
0
VERTEX
8
23_69000
10
48.25800
20
6.26900
30
69.00000
0
VERTEX
8
23_69000
10
48.59400
20
6.44500
30
69.00000
0
VERTEX
8
23_69000
10
49.64400
20
7.05000
30
69.00000
0
VERTEX
8
23_69000
10
50.80100
20
7.75700
30
69.00000
0
VERTEX
8
23_69000
10
51.12500
20
8.04400
30
69.00000
0
VERTEX
8
23_69000
10
51.80800
20
8.59400
30
69.00000
0
VERTEX
8
23_69000
10
52.87800
20
9.51800
30
69.00000
0
VERTEX
8
23_69000
10
53.77900
20
10.63000
30
69.00000
0
VERTEX
8
23_69000
10
53.89400
20
10.80000
30
69.00000
0
VERTEX
8
23_69000
10
54.60000
20
12.16500
30
69.00000
0
VERTEX
8
23_69000
10
54.86800
20
13.18200
30
69.00000
0
VERTEX
8
23_69000
10
54.97400
20
13.48100
30
69.00000
0
VERTEX
8
23_69000
10
55.31000
20
15.49400
30
69.00000
0
VERTEX
8
23_69000
10
55.30100
20
15.64500
30
69.00000
0
VERTEX
8
23_69000
10
55.20000
20
16.65200
30
69.00000
0
VERTEX
8
23_69000
10
55.18100
20
17.05500
30
69.00000
0
VERTEX
8
23_69000
10
55.12100
20
17.46100
30
69.00000
0
VERTEX
8
23_69000
10
54.92000
20
18.20200
30
69.00000
0
VERTEX
8
23_69000
10
54.66600
20
18.97900
30
69.00000
0
VERTEX
8
23_69000
10
54.53700
20
19.48800
30
69.00000
0
VERTEX
8
23_69000
10
54.49100
20
19.58800
30
69.00000
0
VERTEX
8
23_69000
10
53.83600
20
20.88500
30
69.00000
0
VERTEX
8
23_69000
10
53.15100
20
22.00900
30
69.00000
0
VERTEX
8
23_69000
10
50.30900
20
25.82900
30
69.00000
0
VERTEX
8
23_69000
10
48.53500
20
28.32400
30
69.00000
0
VERTEX
8
23_69000
10
47.27200
20
30.04100
30
69.00000
0
VERTEX
8
23_69000
10
46.94200
20
30.47700
30
69.00000
0
VERTEX
8
23_69000
10
46.75200
20
30.77900
30
69.00000
0
VERTEX
8
23_69000
10
46.00600
20
31.78000
30
69.00000
0
VERTEX
8
23_69000
10
45.85300
20
32.02200
30
69.00000
0
VERTEX
8
23_69000
10
45.01800
20
33.65100
30
69.00000
0
VERTEX
8
23_69000
10
44.92900
20
33.80400
30
69.00000
0
VERTEX
8
23_69000
10
44.41500
20
34.98800
30
69.00000
0
VERTEX
8
23_69000
10
43.58000
20
36.73000
30
69.00000
0
VERTEX
8
23_69000
10
43.12400
20
37.93000
30
69.00000
0
VERTEX
8
23_69000
10
42.70000
20
38.96200
30
69.00000
0
VERTEX
8
23_69000
10
42.16700
20
40.53800
30
69.00000
0
VERTEX
8
23_69000
10
41.09700
20
43.52500
30
69.00000
0
VERTEX
8
23_69000
10
40.76800
20
44.55100
30
69.00000
0
VERTEX
8
23_69000
10
39.59400
20
48.81800
30
69.00000
0
VERTEX
8
23_69000
10
39.19100
20
50.23000
30
69.00000
0
VERTEX
8
23_69000
10
39.13500
20
50.54800
30
69.00000
0
VERTEX
8
23_69000
10
38.99000
20
51.04600
30
69.00000
0
VERTEX
8
23_69000
10
38.75900
20
53.36800
30
69.00000
0
VERTEX
8
23_69000
10
38.71800
20
53.63900
30
69.00000
0
VERTEX
8
23_69000
10
38.70100
20
55.05400
30
69.00000
0
VERTEX
8
23_69000
10
38.65800
20
57.30600
30
69.00000
0
VERTEX
8
23_69000
10
38.66300
20
57.47800
30
69.00000
0
VERTEX
8
23_69000
10
38.69200
20
57.82800
30
69.00000
0
VERTEX
8
23_69000
10
38.72600
20
59.20400
30
69.00000
0
VERTEX
8
23_69000
10
38.87800
20
60.59400
30
69.00000
0
VERTEX
8
23_69000
10
39.06200
20
61.62400
30
69.00000
0
VERTEX
8
23_69000
10
39.20700
20
62.66100
30
69.00000
0
VERTEX
8
23_69000
10
39.39100
20
64.13000
30
69.00000
0
VERTEX
8
23_69000
10
39.42800
20
64.34400
30
69.00000
0
VERTEX
8
23_69000
10
39.57300
20
65.55400
30
69.00000
0
VERTEX
8
23_69000
10
39.69500
20
66.96101
30
69.00000
0
VERTEX
8
23_69000
10
39.84200
20
69.81300
30
69.00000
0
VERTEX
8
23_69000
10
39.85100
20
70.35600
30
69.00000
0
VERTEX
8
23_69000
10
39.80800
20
71.26200
30
69.00000
0
VERTEX
8
23_69000
10
39.80400
20
71.58801
30
69.00000
0
VERTEX
8
23_69000
10
39.62500
20
74.07500
30
69.00000
0
VERTEX
8
23_69000
10
39.60700
20
74.40601
30
69.00000
0
VERTEX
8
23_69000
10
39.17000
20
76.90800
30
69.00000
0
VERTEX
8
23_69000
10
38.46500
20
79.29700
30
69.00000
0
VERTEX
8
23_69000
10
37.89000
20
80.74800
30
69.00000
0
VERTEX
8
23_69000
10
37.65700
20
81.25201
30
69.00000
0
VERTEX
8
23_69000
10
37.34200
20
81.83000
30
69.00000
0
VERTEX
8
23_69000
10
36.83700
20
82.85900
30
69.00000
0
VERTEX
8
23_69000
10
36.46200
20
83.36900
30
69.00000
0
VERTEX
8
23_69000
10
35.97500
20
84.11301
30
69.00000
0
VERTEX
8
23_69000
10
34.83800
20
85.69601
30
69.00000
0
VERTEX
8
23_69000
10
34.61600
20
86.03400
30
69.00000
0
VERTEX
8
23_69000
10
14.73700
20
89.35400
30
69.00000
0
VERTEX
8
23_69000
10
-56.17000
20
89.35400
30
69.00000
0
VERTEX
8
23_69000
10
-56.17000
20
-11.39700
30
69.00000
0
SEQEND
8
23_69000
0
POLYLINE
8
23_69000
62
5
0
VERTEX
8
23_69000
10
12.12000
20
89.78800
30
69.00000
0
VERTEX
8
23_69000
10
8.24400
20
90.43600
30
69.00000
0
VERTEX
8
23_69000
10
-56.17000
20
90.43600
30
69.00000
0
VERTEX
8
23_69000
10
-56.17000
20
89.35400
30
69.00000
0
VERTEX
8
23_69000
10
14.73000
20
89.35400
30
69.00000
0
VERTEX
8
23_69000
10
12.12000
20
89.78800
30
69.00000
0
SEQEND
8
23_69000
0
ENDSEC
0
EOF
