0
SECTION
2
HEADER
9
$ACADVER
1
AC1009
0
ENDSEC
0
SECTION
2
TABLES
0
TABLE
2
LAYER
70
1
0
LAYER
2
33_99000
70
0
62
7
6
CONTINUOUS
0
ENDTAB
0
ENDSEC
0
SECTION
2
BLOCKS
0
ENDSEC
0
SECTION
2
ENTITIES
0
POLYLINE
8
33_99000
62
5
0
VERTEX
8
33_99000
10
-56.17000
20
91.76401
30
99.00000
0
VERTEX
8
33_99000
10
0.30500
20
91.76100
30
99.00000
0
VERTEX
8
33_99000
10
-0.09400
20
91.82900
30
99.00000
0
VERTEX
8
33_99000
10
-56.17000
20
91.82900
30
99.00000
0
VERTEX
8
33_99000
10
-56.17000
20
91.76401
30
99.00000
0
SEQEND
8
33_99000
0
POLYLINE
8
33_99000
62
5
0
VERTEX
8
33_99000
10
-46.48000
20
91.72401
30
99.00000
0
VERTEX
8
33_99000
10
0.52800
20
91.72401
30
99.00000
0
VERTEX
8
33_99000
10
0.33400
20
91.75700
30
99.00000
0
VERTEX
8
33_99000
10
-56.17000
20
91.75700
30
99.00000
0
VERTEX
8
33_99000
10
-56.17000
20
91.72401
30
99.00000
0
VERTEX
8
33_99000
10
-46.48000
20
91.72401
30
99.00000
0
SEQEND
8
33_99000
0
POLYLINE
8
33_99000
62
5
0
VERTEX
8
33_99000
10
-56.17000
20
91.71500
30
99.00000
0
VERTEX
8
33_99000
10
-56.17000
20
91.67001
30
99.00000
0
VERTEX
8
33_99000
10
0.85300
20
91.67001
30
99.00000
0
VERTEX
8
33_99000
10
0.53500
20
91.72401
30
99.00000
0
VERTEX
8
33_99000
10
-56.17000
20
91.72401
30
99.00000
0
VERTEX
8
33_99000
10
-56.17000
20
91.71500
30
99.00000
0
SEQEND
8
33_99000
0
POLYLINE
8
33_99000
62
5
0
VERTEX
8
33_99000
10
-56.17000
20
91.50401
30
99.00000
0
VERTEX
8
33_99000
10
-56.17000
20
91.40701
30
99.00000
0
VERTEX
8
33_99000
10
2.42900
20
91.40701
30
99.00000
0
VERTEX
8
33_99000
10
0.87600
20
91.66500
30
99.00000
0
VERTEX
8
33_99000
10
-56.17000
20
91.66500
30
99.00000
0
VERTEX
8
33_99000
10
-56.17000
20
91.50401
30
99.00000
0
SEQEND
8
33_99000
0
POLYLINE
8
33_99000
62
5
0
VERTEX
8
33_99000
10
-56.17000
20
78.85600
30
99.00000
0
VERTEX
8
33_99000
10
-56.17000
20
-92.11401
30
99.00000
0
VERTEX
8
33_99000
10
30.54100
20
-92.11401
30
99.00000
0
VERTEX
8
33_99000
10
30.47800
20
-91.84801
30
99.00000
0
VERTEX
8
33_99000
10
30.38000
20
-91.49400
30
99.00000
0
VERTEX
8
33_99000
10
29.88100
20
-88.77901
30
99.00000
0
VERTEX
8
33_99000
10
29.77100
20
-87.89101
30
99.00000
0
VERTEX
8
33_99000
10
29.73700
20
-87.40900
30
99.00000
0
VERTEX
8
33_99000
10
29.82600
20
-86.38901
30
99.00000
0
VERTEX
8
33_99000
10
30.35400
20
-85.34400
30
99.00000
0
VERTEX
8
33_99000
10
30.45100
20
-85.17600
30
99.00000
0
VERTEX
8
33_99000
10
30.47300
20
-85.12501
30
99.00000
0
VERTEX
8
33_99000
10
30.83600
20
-84.55500
30
99.00000
0
VERTEX
8
33_99000
10
30.93100
20
-84.23500
30
99.00000
0
VERTEX
8
33_99000
10
30.92900
20
-83.96700
30
99.00000
0
VERTEX
8
33_99000
10
30.95400
20
-83.84400
30
99.00000
0
VERTEX
8
33_99000
10
31.10300
20
-83.32401
30
99.00000
0
VERTEX
8
33_99000
10
31.10500
20
-83.22301
30
99.00000
0
VERTEX
8
33_99000
10
31.17100
20
-82.90200
30
99.00000
0
VERTEX
8
33_99000
10
31.14200
20
-82.62701
30
99.00000
0
VERTEX
8
33_99000
10
31.14400
20
-82.49400
30
99.00000
0
VERTEX
8
33_99000
10
31.16800
20
-82.38600
30
99.00000
0
VERTEX
8
33_99000
10
31.26000
20
-82.08501
30
99.00000
0
VERTEX
8
33_99000
10
31.28600
20
-81.84901
30
99.00000
0
VERTEX
8
33_99000
10
31.34500
20
-80.87901
30
99.00000
0
VERTEX
8
33_99000
10
31.36300
20
-80.75800
30
99.00000
0
VERTEX
8
33_99000
10
31.34800
20
-80.64400
30
99.00000
0
VERTEX
8
33_99000
10
31.34900
20
-80.44901
30
99.00000
0
VERTEX
8
33_99000
10
31.44900
20
-80.02100
30
99.00000
0
VERTEX
8
33_99000
10
31.57900
20
-79.52901
30
99.00000
0
VERTEX
8
33_99000
10
31.85600
20
-78.83501
30
99.00000
0
VERTEX
8
33_99000
10
31.87000
20
-78.51100
30
99.00000
0
VERTEX
8
33_99000
10
32.41800
20
-76.63800
30
99.00000
0
VERTEX
8
33_99000
10
32.46400
20
-75.92800
30
99.00000
0
VERTEX
8
33_99000
10
32.47200
20
-75.89700
30
99.00000
0
VERTEX
8
33_99000
10
32.49100
20
-75.34100
30
99.00000
0
VERTEX
8
33_99000
10
32.58000
20
-74.98801
30
99.00000
0
VERTEX
8
33_99000
10
32.56300
20
-74.62400
30
99.00000
0
VERTEX
8
33_99000
10
32.65500
20
-74.10201
30
99.00000
0
VERTEX
8
33_99000
10
32.79300
20
-73.59300
30
99.00000
0
VERTEX
8
33_99000
10
32.81000
20
-73.20000
30
99.00000
0
VERTEX
8
33_99000
10
32.81600
20
-72.83200
30
99.00000
0
VERTEX
8
33_99000
10
32.73700
20
-72.31400
30
99.00000
0
VERTEX
8
33_99000
10
32.72500
20
-71.73801
30
99.00000
0
VERTEX
8
33_99000
10
32.75300
20
-71.35600
30
99.00000
0
VERTEX
8
33_99000
10
32.75600
20
-71.16100
30
99.00000
0
VERTEX
8
33_99000
10
32.71900
20
-70.92500
30
99.00000
0
VERTEX
8
33_99000
10
32.71600
20
-70.58900
30
99.00000
0
VERTEX
8
33_99000
10
32.69600
20
-70.52500
30
99.00000
0
VERTEX
8
33_99000
10
32.53000
20
-70.22900
30
99.00000
0
VERTEX
8
33_99000
10
32.44800
20
-69.92101
30
99.00000
0
VERTEX
8
33_99000
10
32.45000
20
-69.89301
30
99.00000
0
VERTEX
8
33_99000
10
32.56500
20
-69.54601
30
99.00000
0
VERTEX
8
33_99000
10
32.57500
20
-69.19400
30
99.00000
0
VERTEX
8
33_99000
10
32.37700
20
-68.76601
30
99.00000
0
VERTEX
8
33_99000
10
32.16600
20
-68.01200
30
99.00000
0
VERTEX
8
33_99000
10
32.06900
20
-67.52300
30
99.00000
0
VERTEX
8
33_99000
10
31.94400
20
-67.06100
30
99.00000
0
VERTEX
8
33_99000
10
31.97800
20
-66.89301
30
99.00000
0
VERTEX
8
33_99000
10
31.97400
20
-66.83501
30
99.00000
0
VERTEX
8
33_99000
10
31.75100
20
-66.14101
30
99.00000
0
VERTEX
8
33_99000
10
31.67900
20
-65.93900
30
99.00000
0
VERTEX
8
33_99000
10
31.66000
20
-65.59100
30
99.00000
0
VERTEX
8
33_99000
10
31.63500
20
-65.35300
30
99.00000
0
VERTEX
8
33_99000
10
31.61000
20
-64.78400
30
99.00000
0
VERTEX
8
33_99000
10
31.53300
20
-64.40501
30
99.00000
0
VERTEX
8
33_99000
10
31.29300
20
-63.40300
30
99.00000
0
VERTEX
8
33_99000
10
31.19500
20
-62.73700
30
99.00000
0
VERTEX
8
33_99000
10
31.14200
20
-62.49500
30
99.00000
0
VERTEX
8
33_99000
10
30.96100
20
-61.26800
30
99.00000
0
VERTEX
8
33_99000
10
30.96300
20
-61.01000
30
99.00000
0
VERTEX
8
33_99000
10
30.80400
20
-60.05800
30
99.00000
0
VERTEX
8
33_99000
10
30.64000
20
-58.84500
30
99.00000
0
VERTEX
8
33_99000
10
30.60900
20
-58.32200
30
99.00000
0
VERTEX
8
33_99000
10
30.59200
20
-57.69600
30
99.00000
0
VERTEX
8
33_99000
10
30.35400
20
-55.63000
30
99.00000
0
VERTEX
8
33_99000
10
30.33900
20
-55.19800
30
99.00000
0
VERTEX
8
33_99000
10
30.25600
20
-54.38200
30
99.00000
0
VERTEX
8
33_99000
10
30.19500
20
-54.15500
30
99.00000
0
VERTEX
8
33_99000
10
30.16100
20
-52.68700
30
99.00000
0
VERTEX
8
33_99000
10
30.27000
20
-51.51900
30
99.00000
0
VERTEX
8
33_99000
10
30.35800
20
-50.86600
30
99.00000
0
VERTEX
8
33_99000
10
30.59700
20
-49.63000
30
99.00000
0
VERTEX
8
33_99000
10
30.91600
20
-47.74500
30
99.00000
0
VERTEX
8
33_99000
10
30.96500
20
-47.53300
30
99.00000
0
VERTEX
8
33_99000
10
31.30900
20
-45.73100
30
99.00000
0
VERTEX
8
33_99000
10
31.39700
20
-45.42200
30
99.00000
0
VERTEX
8
33_99000
10
31.61800
20
-44.33200
30
99.00000
0
VERTEX
8
33_99000
10
31.70700
20
-44.17100
30
99.00000
0
VERTEX
8
33_99000
10
31.85200
20
-43.26800
30
99.00000
0
VERTEX
8
33_99000
10
32.07600
20
-41.98600
30
99.00000
0
VERTEX
8
33_99000
10
32.09200
20
-41.66400
30
99.00000
0
VERTEX
8
33_99000
10
32.14000
20
-41.46200
30
99.00000
0
VERTEX
8
33_99000
10
32.39400
20
-40.73000
30
99.00000
0
VERTEX
8
33_99000
10
32.61500
20
-40.02300
30
99.00000
0
VERTEX
8
33_99000
10
32.69600
20
-39.64200
30
99.00000
0
VERTEX
8
33_99000
10
32.75900
20
-39.28300
30
99.00000
0
VERTEX
8
33_99000
10
32.75900
20
-39.07800
30
99.00000
0
VERTEX
8
33_99000
10
32.65800
20
-36.83300
30
99.00000
0
VERTEX
8
33_99000
10
32.71000
20
-36.49200
30
99.00000
0
VERTEX
8
33_99000
10
32.70100
20
-36.34400
30
99.00000
0
VERTEX
8
33_99000
10
32.55100
20
-35.08600
30
99.00000
0
VERTEX
8
33_99000
10
32.51900
20
-34.50300
30
99.00000
0
VERTEX
8
33_99000
10
32.48400
20
-34.18000
30
99.00000
0
VERTEX
8
33_99000
10
32.47600
20
-33.67900
30
99.00000
0
VERTEX
8
33_99000
10
32.21300
20
-32.25600
30
99.00000
0
VERTEX
8
33_99000
10
31.93800
20
-30.92200
30
99.00000
0
VERTEX
8
33_99000
10
31.84800
20
-30.30300
30
99.00000
0
VERTEX
8
33_99000
10
31.77700
20
-30.01000
30
99.00000
0
VERTEX
8
33_99000
10
31.52300
20
-29.30000
30
99.00000
0
VERTEX
8
33_99000
10
30.98600
20
-27.68800
30
99.00000
0
VERTEX
8
33_99000
10
30.34200
20
-26.12700
30
99.00000
0
VERTEX
8
33_99000
10
30.19300
20
-25.77200
30
99.00000
0
VERTEX
8
33_99000
10
30.08500
20
-25.56300
30
99.00000
0
VERTEX
8
33_99000
10
28.94400
20
-23.46600
30
99.00000
0
VERTEX
8
33_99000
10
28.69400
20
-22.89800
30
99.00000
0
VERTEX
8
33_99000
10
28.55900
20
-22.61700
30
99.00000
0
VERTEX
8
33_99000
10
28.42000
20
-21.97700
30
99.00000
0
VERTEX
8
33_99000
10
28.44700
20
-21.91400
30
99.00000
0
VERTEX
8
33_99000
10
28.48000
20
-21.61500
30
99.00000
0
VERTEX
8
33_99000
10
28.70800
20
-21.33700
30
99.00000
0
VERTEX
8
33_99000
10
28.84200
20
-21.14900
30
99.00000
0
VERTEX
8
33_99000
10
28.89600
20
-21.10000
30
99.00000
0
VERTEX
8
33_99000
10
29.50400
20
-20.45900
30
99.00000
0
VERTEX
8
33_99000
10
30.93600
20
-18.89900
30
99.00000
0
VERTEX
8
33_99000
10
31.35500
20
-18.34600
30
99.00000
0
VERTEX
8
33_99000
10
32.13800
20
-17.53900
30
99.00000
0
VERTEX
8
33_99000
10
32.30800
20
-17.19500
30
99.00000
0
VERTEX
8
33_99000
10
32.33700
20
-17.16300
30
99.00000
0
VERTEX
8
33_99000
10
32.33900
20
-17.10900
30
99.00000
0
VERTEX
8
33_99000
10
32.44000
20
-16.45200
30
99.00000
0
VERTEX
8
33_99000
10
33.07000
20
-15.01800
30
99.00000
0
VERTEX
8
33_99000
10
33.29400
20
-14.36400
30
99.00000
0
VERTEX
8
33_99000
10
33.30500
20
-14.31500
30
99.00000
0
VERTEX
8
33_99000
10
33.34500
20
-12.69000
30
99.00000
0
VERTEX
8
33_99000
10
33.34100
20
-12.03200
30
99.00000
0
VERTEX
8
33_99000
10
33.38000
20
-11.75400
30
99.00000
0
VERTEX
8
33_99000
10
33.38900
20
-11.49300
30
99.00000
0
VERTEX
8
33_99000
10
33.36100
20
-11.20300
30
99.00000
0
VERTEX
8
33_99000
10
33.09200
20
-9.56900
30
99.00000
0
VERTEX
8
33_99000
10
32.57200
20
-8.21800
30
99.00000
0
VERTEX
8
33_99000
10
32.49400
20
-7.74600
30
99.00000
0
VERTEX
8
33_99000
10
32.32800
20
-7.34800
30
99.00000
0
VERTEX
8
33_99000
10
32.27200
20
-7.11100
30
99.00000
0
VERTEX
8
33_99000
10
32.05900
20
-6.52900
30
99.00000
0
VERTEX
8
33_99000
10
31.99700
20
-6.33900
30
99.00000
0
VERTEX
8
33_99000
10
31.19500
20
-4.20100
30
99.00000
0
VERTEX
8
33_99000
10
31.16100
20
-4.08300
30
99.00000
0
VERTEX
8
33_99000
10
30.52400
20
-0.99300
30
99.00000
0
VERTEX
8
33_99000
10
30.41700
20
-0.32100
30
99.00000
0
VERTEX
8
33_99000
10
30.18000
20
1.50400
30
99.00000
0
VERTEX
8
33_99000
10
30.12000
20
2.78100
30
99.00000
0
VERTEX
8
33_99000
10
30.12700
20
3.80500
30
99.00000
0
VERTEX
8
33_99000
10
30.21700
20
5.17200
30
99.00000
0
VERTEX
8
33_99000
10
30.41500
20
6.58100
30
99.00000
0
VERTEX
8
33_99000
10
30.93900
20
9.08600
30
99.00000
0
VERTEX
8
33_99000
10
31.35300
20
11.19300
30
99.00000
0
VERTEX
8
33_99000
10
31.59600
20
12.86400
30
99.00000
0
VERTEX
8
33_99000
10
31.64400
20
13.55300
30
99.00000
0
VERTEX
8
33_99000
10
31.79200
20
16.28500
30
99.00000
0
VERTEX
8
33_99000
10
31.81000
20
17.14000
30
99.00000
0
VERTEX
8
33_99000
10
31.80500
20
17.38900
30
99.00000
0
VERTEX
8
33_99000
10
31.81200
20
18.66300
30
99.00000
0
VERTEX
8
33_99000
10
31.63500
20
20.45600
30
99.00000
0
VERTEX
8
33_99000
10
31.61600
20
20.79200
30
99.00000
0
VERTEX
8
33_99000
10
31.50900
20
21.62100
30
99.00000
0
VERTEX
8
33_99000
10
31.28400
20
22.93800
30
99.00000
0
VERTEX
8
33_99000
10
30.26100
20
26.96900
30
99.00000
0
VERTEX
8
33_99000
10
29.75000
20
28.69300
30
99.00000
0
VERTEX
8
33_99000
10
29.58600
20
29.27400
30
99.00000
0
VERTEX
8
33_99000
10
28.80300
20
31.70400
30
99.00000
0
VERTEX
8
33_99000
10
28.53700
20
32.62100
30
99.00000
0
VERTEX
8
33_99000
10
28.36400
20
33.28500
30
99.00000
0
VERTEX
8
33_99000
10
28.13800
20
34.37500
30
99.00000
0
VERTEX
8
33_99000
10
28.01800
20
35.04000
30
99.00000
0
VERTEX
8
33_99000
10
28.00700
20
35.21300
30
99.00000
0
VERTEX
8
33_99000
10
28.00400
20
36.10800
30
99.00000
0
VERTEX
8
33_99000
10
27.98800
20
36.33100
30
99.00000
0
VERTEX
8
33_99000
10
28.14400
20
38.13100
30
99.00000
0
VERTEX
8
33_99000
10
28.15000
20
38.32000
30
99.00000
0
VERTEX
8
33_99000
10
28.40300
20
41.13100
30
99.00000
0
VERTEX
8
33_99000
10
28.43400
20
42.33200
30
99.00000
0
VERTEX
8
33_99000
10
28.47100
20
42.64900
30
99.00000
0
VERTEX
8
33_99000
10
28.57800
20
42.98800
30
99.00000
0
VERTEX
8
33_99000
10
29.06700
20
44.83000
30
99.00000
0
VERTEX
8
33_99000
10
29.23000
20
45.50700
30
99.00000
0
VERTEX
8
33_99000
10
29.32800
20
46.01100
30
99.00000
0
VERTEX
8
33_99000
10
29.43400
20
46.81800
30
99.00000
0
VERTEX
8
33_99000
10
29.55900
20
47.87500
30
99.00000
0
VERTEX
8
33_99000
10
29.56500
20
48.15500
30
99.00000
0
VERTEX
8
33_99000
10
29.63400
20
48.68400
30
99.00000
0
VERTEX
8
33_99000
10
29.65100
20
49.71600
30
99.00000
0
VERTEX
8
33_99000
10
29.65000
20
50.33500
30
99.00000
0
VERTEX
8
33_99000
10
29.61500
20
50.55400
30
99.00000
0
VERTEX
8
33_99000
10
29.32100
20
52.01700
30
99.00000
0
VERTEX
8
33_99000
10
29.49400
20
52.78100
30
99.00000
0
VERTEX
8
33_99000
10
29.56300
20
53.25900
30
99.00000
0
VERTEX
8
33_99000
10
29.78300
20
54.47700
30
99.00000
0
VERTEX
8
33_99000
10
29.83300
20
54.94300
30
99.00000
0
VERTEX
8
33_99000
10
29.92700
20
55.28500
30
99.00000
0
VERTEX
8
33_99000
10
30.04000
20
55.78300
30
99.00000
0
VERTEX
8
33_99000
10
30.24400
20
56.19900
30
99.00000
0
VERTEX
8
33_99000
10
30.31400
20
56.41900
30
99.00000
0
VERTEX
8
33_99000
10
30.80200
20
57.21600
30
99.00000
0
VERTEX
8
33_99000
10
31.47300
20
58.04300
30
99.00000
0
VERTEX
8
33_99000
10
32.00600
20
58.87000
30
99.00000
0
VERTEX
8
33_99000
10
32.26800
20
59.75600
30
99.00000
0
VERTEX
8
33_99000
10
32.31400
20
59.89800
30
99.00000
0
VERTEX
8
33_99000
10
32.35800
20
59.99000
30
99.00000
0
VERTEX
8
33_99000
10
32.62100
20
60.79200
30
99.00000
0
VERTEX
8
33_99000
10
33.20200
20
61.54100
30
99.00000
0
VERTEX
8
33_99000
10
33.52400
20
62.21300
30
99.00000
0
VERTEX
8
33_99000
10
33.61000
20
62.37200
30
99.00000
0
VERTEX
8
33_99000
10
33.77000
20
62.72300
30
99.00000
0
VERTEX
8
33_99000
10
33.97700
20
63.40600
30
99.00000
0
VERTEX
8
33_99000
10
34.35200
20
65.11800
30
99.00000
0
VERTEX
8
33_99000
10
34.37800
20
65.27700
30
99.00000
0
VERTEX
8
33_99000
10
34.85500
20
66.72100
30
99.00000
0
VERTEX
8
33_99000
10
35.59600
20
68.24800
30
99.00000
0
VERTEX
8
33_99000
10
35.83700
20
68.67001
30
99.00000
0
VERTEX
8
33_99000
10
36.33000
20
69.65501
30
99.00000
0
VERTEX
8
33_99000
10
36.77400
20
70.71101
30
99.00000
0
VERTEX
8
33_99000
10
37.16500
20
71.72301
30
99.00000
0
VERTEX
8
33_99000
10
37.56800
20
73.04200
30
99.00000
0
VERTEX
8
33_99000
10
37.85400
20
74.37801
30
99.00000
0
VERTEX
8
33_99000
10
37.91200
20
75.02800
30
99.00000
0
VERTEX
8
33_99000
10
37.86500
20
75.74600
30
99.00000
0
VERTEX
8
33_99000
10
37.85400
20
75.82800
30
99.00000
0
VERTEX
8
33_99000
10
37.38500
20
78.56500
30
99.00000
0
VERTEX
8
33_99000
10
37.05800
20
80.22601
30
99.00000
0
VERTEX
8
33_99000
10
36.84200
20
81.11100
30
99.00000
0
VERTEX
8
33_99000
10
36.19500
20
83.39201
30
99.00000
0
VERTEX
8
33_99000
10
36.00000
20
84.01200
30
99.00000
0
VERTEX
8
33_99000
10
35.86300
20
84.50401
30
99.00000
0
VERTEX
8
33_99000
10
35.44500
20
85.70801
30
99.00000
0
VERTEX
8
33_99000
10
35.36900
20
85.90800
30
99.00000
0
VERTEX
8
33_99000
10
19.90200
20
88.49100
30
99.00000
0
VERTEX
8
33_99000
10
-56.17000
20
88.49100
30
99.00000
0
VERTEX
8
33_99000
10
-56.17000
20
78.85600
30
99.00000
0
SEQEND
8
33_99000
0
POLYLINE
8
33_99000
62
5
0
VERTEX
8
33_99000
10
-56.17000
20
90.63000
30
99.00000
0
VERTEX
8
33_99000
10
-56.17000
20
90.07401
30
99.00000
0
VERTEX
8
33_99000
10
10.42100
20
90.07401
30
99.00000
0
VERTEX
8
33_99000
10
2.45300
20
91.40301
30
99.00000
0
VERTEX
8
33_99000
10
-56.17000
20
91.40301
30
99.00000
0
VERTEX
8
33_99000
10
-56.17000
20
90.63000
30
99.00000
0
SEQEND
8
33_99000
0
POLYLINE
8
33_99000
62
5
0
VERTEX
8
33_99000
10
16.22800
20
89.10300
30
99.00000
0
VERTEX
8
33_99000
10
10.46500
20
90.06600
30
99.00000
0
VERTEX
8
33_99000
10
-56.17000
20
90.06600
30
99.00000
0
VERTEX
8
33_99000
10
-56.17000
20
88.49300
30
99.00000
0
VERTEX
8
33_99000
10
19.88900
20
88.49300
30
99.00000
0
VERTEX
8
33_99000
10
16.22800
20
89.10300
30
99.00000
0
SEQEND
8
33_99000
0
ENDSEC
0
EOF
