0
SECTION
2
HEADER
9
$ACADVER
1
AC1009
0
ENDSEC
0
SECTION
2
TABLES
0
TABLE
2
LAYER
70
1
0
LAYER
2
2_6000
70
0
62
7
6
CONTINUOUS
0
ENDTAB
0
ENDSEC
0
SECTION
2
BLOCKS
0
ENDSEC
0
SECTION
2
ENTITIES
0
POLYLINE
8
2_6000
62
5
0
VERTEX
8
2_6000
10
-54.85400
20
91.27100
30
6.00000
0
VERTEX
8
2_6000
10
3.24600
20
91.27100
30
6.00000
0
VERTEX
8
2_6000
10
-54.85400
20
91.27100
30
6.00000
0
SEQEND
8
2_6000
0
POLYLINE
8
2_6000
62
5
0
VERTEX
8
2_6000
10
-54.85300
20
91.27000
30
6.00000
0
VERTEX
8
2_6000
10
3.26400
20
91.26701
30
6.00000
0
VERTEX
8
2_6000
10
-54.85300
20
91.27000
30
6.00000
0
SEQEND
8
2_6000
0
POLYLINE
8
2_6000
62
5
0
VERTEX
8
2_6000
10
-54.79400
20
91.25900
30
6.00000
0
VERTEX
8
2_6000
10
3.31600
20
91.25900
30
6.00000
0
VERTEX
8
2_6000
10
3.26500
20
91.26701
30
6.00000
0
VERTEX
8
2_6000
10
-56.17000
20
91.26701
30
6.00000
0
VERTEX
8
2_6000
10
-56.17000
20
91.25900
30
6.00000
0
VERTEX
8
2_6000
10
-54.79400
20
91.25900
30
6.00000
0
SEQEND
8
2_6000
0
POLYLINE
8
2_6000
62
5
0
VERTEX
8
2_6000
10
-1.47600
20
91.16300
30
6.00000
0
VERTEX
8
2_6000
10
-56.17000
20
91.16400
30
6.00000
0
VERTEX
8
2_6000
10
-56.17000
20
-92.11401
30
6.00000
0
VERTEX
8
2_6000
10
-7.77200
20
-92.11401
30
6.00000
0
VERTEX
8
2_6000
10
-8.47100
20
-90.15100
30
6.00000
0
VERTEX
8
2_6000
10
-8.64500
20
-89.64001
30
6.00000
0
VERTEX
8
2_6000
10
-8.78800
20
-89.15501
30
6.00000
0
VERTEX
8
2_6000
10
-9.03900
20
-88.14800
30
6.00000
0
VERTEX
8
2_6000
10
-9.35600
20
-87.10400
30
6.00000
0
VERTEX
8
2_6000
10
-9.57900
20
-86.32900
30
6.00000
0
VERTEX
8
2_6000
10
-9.91400
20
-85.26000
30
6.00000
0
VERTEX
8
2_6000
10
-9.99900
20
-84.95700
30
6.00000
0
VERTEX
8
2_6000
10
-10.20000
20
-84.12501
30
6.00000
0
VERTEX
8
2_6000
10
-10.42100
20
-83.35500
30
6.00000
0
VERTEX
8
2_6000
10
-10.61000
20
-82.47800
30
6.00000
0
VERTEX
8
2_6000
10
-10.88600
20
-81.36000
30
6.00000
0
VERTEX
8
2_6000
10
-11.41800
20
-78.81001
30
6.00000
0
VERTEX
8
2_6000
10
-11.63600
20
-77.49100
30
6.00000
0
VERTEX
8
2_6000
10
-11.94300
20
-75.50700
30
6.00000
0
VERTEX
8
2_6000
10
-11.97800
20
-75.21400
30
6.00000
0
VERTEX
8
2_6000
10
-12.25700
20
-71.87100
30
6.00000
0
VERTEX
8
2_6000
10
-12.23700
20
-70.64101
30
6.00000
0
VERTEX
8
2_6000
10
-12.26500
20
-70.06200
30
6.00000
0
VERTEX
8
2_6000
10
-12.30500
20
-68.83200
30
6.00000
0
VERTEX
8
2_6000
10
-12.30400
20
-68.53900
30
6.00000
0
VERTEX
8
2_6000
10
-12.27900
20
-68.30200
30
6.00000
0
VERTEX
8
2_6000
10
-12.31000
20
-67.44000
30
6.00000
0
VERTEX
8
2_6000
10
-12.16600
20
-65.68900
30
6.00000
0
VERTEX
8
2_6000
10
-11.95100
20
-64.12500
30
6.00000
0
VERTEX
8
2_6000
10
-11.82900
20
-63.11100
30
6.00000
0
VERTEX
8
2_6000
10
-11.16400
20
-59.89100
30
6.00000
0
VERTEX
8
2_6000
10
-10.81300
20
-58.50000
30
6.00000
0
VERTEX
8
2_6000
10
-10.57600
20
-57.60200
30
6.00000
0
VERTEX
8
2_6000
10
-10.33800
20
-56.90200
30
6.00000
0
VERTEX
8
2_6000
10
-10.08900
20
-55.95100
30
6.00000
0
VERTEX
8
2_6000
10
-9.87800
20
-55.30100
30
6.00000
0
VERTEX
8
2_6000
10
-9.72000
20
-54.84800
30
6.00000
0
VERTEX
8
2_6000
10
-8.87400
20
-52.20000
30
6.00000
0
VERTEX
8
2_6000
10
-8.85700
20
-52.08300
30
6.00000
0
VERTEX
8
2_6000
10
-8.33800
20
-50.47000
30
6.00000
0
VERTEX
8
2_6000
10
-8.14300
20
-49.77900
30
6.00000
0
VERTEX
8
2_6000
10
-7.80300
20
-48.70300
30
6.00000
0
VERTEX
8
2_6000
10
-7.69500
20
-48.31300
30
6.00000
0
VERTEX
8
2_6000
10
-7.30300
20
-47.18200
30
6.00000
0
VERTEX
8
2_6000
10
-7.10500
20
-46.70500
30
6.00000
0
VERTEX
8
2_6000
10
-6.89700
20
-46.29200
30
6.00000
0
VERTEX
8
2_6000
10
-6.78500
20
-46.14100
30
6.00000
0
VERTEX
8
2_6000
10
-6.73500
20
-46.02300
30
6.00000
0
VERTEX
8
2_6000
10
-6.43900
20
-45.71900
30
6.00000
0
VERTEX
8
2_6000
10
-6.43500
20
-45.66300
30
6.00000
0
VERTEX
8
2_6000
10
-6.23500
20
-45.30900
30
6.00000
0
VERTEX
8
2_6000
10
-6.25800
20
-44.90100
30
6.00000
0
VERTEX
8
2_6000
10
-6.29300
20
-44.54400
30
6.00000
0
VERTEX
8
2_6000
10
-6.26200
20
-43.82400
30
6.00000
0
VERTEX
8
2_6000
10
-6.24200
20
-43.71800
30
6.00000
0
VERTEX
8
2_6000
10
-6.09800
20
-43.38000
30
6.00000
0
VERTEX
8
2_6000
10
-6.11100
20
-43.24600
30
6.00000
0
VERTEX
8
2_6000
10
-5.92800
20
-42.29400
30
6.00000
0
VERTEX
8
2_6000
10
-5.76500
20
-41.62200
30
6.00000
0
VERTEX
8
2_6000
10
-5.74600
20
-41.48000
30
6.00000
0
VERTEX
8
2_6000
10
-5.70100
20
-41.39900
30
6.00000
0
VERTEX
8
2_6000
10
-5.60700
20
-41.08600
30
6.00000
0
VERTEX
8
2_6000
10
-5.62900
20
-41.00500
30
6.00000
0
VERTEX
8
2_6000
10
-5.59900
20
-40.55600
30
6.00000
0
VERTEX
8
2_6000
10
-5.59900
20
-40.32000
30
6.00000
0
VERTEX
8
2_6000
10
-5.26700
20
-39.00300
30
6.00000
0
VERTEX
8
2_6000
10
-5.15900
20
-38.65200
30
6.00000
0
VERTEX
8
2_6000
10
-5.09000
20
-38.50600
30
6.00000
0
VERTEX
8
2_6000
10
-4.88800
20
-37.83700
30
6.00000
0
VERTEX
8
2_6000
10
-4.45800
20
-36.80800
30
6.00000
0
VERTEX
8
2_6000
10
-4.11800
20
-35.84000
30
6.00000
0
VERTEX
8
2_6000
10
-3.31500
20
-34.44000
30
6.00000
0
VERTEX
8
2_6000
10
-3.28000
20
-34.26000
30
6.00000
0
VERTEX
8
2_6000
10
-3.20400
20
-34.09300
30
6.00000
0
VERTEX
8
2_6000
10
-3.13300
20
-33.48000
30
6.00000
0
VERTEX
8
2_6000
10
-3.04400
20
-33.32000
30
6.00000
0
VERTEX
8
2_6000
10
-3.00000
20
-33.03900
30
6.00000
0
VERTEX
8
2_6000
10
-2.92600
20
-32.69800
30
6.00000
0
VERTEX
8
2_6000
10
-2.81200
20
-32.42100
30
6.00000
0
VERTEX
8
2_6000
10
-1.90900
20
-29.97800
30
6.00000
0
VERTEX
8
2_6000
10
-1.53900
20
-29.12400
30
6.00000
0
VERTEX
8
2_6000
10
-1.43500
20
-28.52200
30
6.00000
0
VERTEX
8
2_6000
10
-1.34400
20
-28.28600
30
6.00000
0
VERTEX
8
2_6000
10
-1.23500
20
-27.93000
30
6.00000
0
VERTEX
8
2_6000
10
-1.06100
20
-27.59100
30
6.00000
0
VERTEX
8
2_6000
10
-0.91800
20
-27.24600
30
6.00000
0
VERTEX
8
2_6000
10
-0.41900
20
-26.19600
30
6.00000
0
VERTEX
8
2_6000
10
-0.21100
20
-25.52000
30
6.00000
0
VERTEX
8
2_6000
10
-0.06300
20
-25.07700
30
6.00000
0
VERTEX
8
2_6000
10
0.12300
20
-24.46600
30
6.00000
0
VERTEX
8
2_6000
10
0.37900
20
-23.88000
30
6.00000
0
VERTEX
8
2_6000
10
0.79900
20
-22.66800
30
6.00000
0
VERTEX
8
2_6000
10
0.92800
20
-22.24500
30
6.00000
0
VERTEX
8
2_6000
10
1.26400
20
-20.99200
30
6.00000
0
VERTEX
8
2_6000
10
1.58600
20
-19.65400
30
6.00000
0
VERTEX
8
2_6000
10
1.80600
20
-19.01600
30
6.00000
0
VERTEX
8
2_6000
10
1.96400
20
-18.07900
30
6.00000
0
VERTEX
8
2_6000
10
2.01400
20
-17.84200
30
6.00000
0
VERTEX
8
2_6000
10
2.05000
20
-17.57900
30
6.00000
0
VERTEX
8
2_6000
10
2.58200
20
-14.89700
30
6.00000
0
VERTEX
8
2_6000
10
2.59000
20
-14.82800
30
6.00000
0
VERTEX
8
2_6000
10
2.76200
20
-14.06600
30
6.00000
0
VERTEX
8
2_6000
10
2.83700
20
-13.84500
30
6.00000
0
VERTEX
8
2_6000
10
3.15100
20
-12.75400
30
6.00000
0
VERTEX
8
2_6000
10
3.11100
20
-12.03600
30
6.00000
0
VERTEX
8
2_6000
10
3.09500
20
-11.87500
30
6.00000
0
VERTEX
8
2_6000
10
3.10100
20
-11.71300
30
6.00000
0
VERTEX
8
2_6000
10
3.13400
20
-11.44200
30
6.00000
0
VERTEX
8
2_6000
10
3.20400
20
-10.68500
30
6.00000
0
VERTEX
8
2_6000
10
3.20600
20
-10.39100
30
6.00000
0
VERTEX
8
2_6000
10
3.23400
20
-10.17400
30
6.00000
0
VERTEX
8
2_6000
10
3.45800
20
-9.16800
30
6.00000
0
VERTEX
8
2_6000
10
3.60200
20
-8.12300
30
6.00000
0
VERTEX
8
2_6000
10
3.67100
20
-6.55800
30
6.00000
0
VERTEX
8
2_6000
10
3.77200
20
-5.46700
30
6.00000
0
VERTEX
8
2_6000
10
3.87600
20
-4.10100
30
6.00000
0
VERTEX
8
2_6000
10
3.86100
20
-2.69800
30
6.00000
0
VERTEX
8
2_6000
10
3.86000
20
-2.37400
30
6.00000
0
VERTEX
8
2_6000
10
3.86800
20
-2.31200
30
6.00000
0
VERTEX
8
2_6000
10
3.85000
20
-1.87100
30
6.00000
0
VERTEX
8
2_6000
10
3.78600
20
-1.10200
30
6.00000
0
VERTEX
8
2_6000
10
3.82900
20
-0.36200
30
6.00000
0
VERTEX
8
2_6000
10
3.85400
20
0.89400
30
6.00000
0
VERTEX
8
2_6000
10
3.94400
20
2.36000
30
6.00000
0
VERTEX
8
2_6000
10
4.06300
20
3.47500
30
6.00000
0
VERTEX
8
2_6000
10
4.05500
20
4.01700
30
6.00000
0
VERTEX
8
2_6000
10
4.08400
20
5.86600
30
6.00000
0
VERTEX
8
2_6000
10
4.10500
20
6.62800
30
6.00000
0
VERTEX
8
2_6000
10
4.10400
20
6.78400
30
6.00000
0
VERTEX
8
2_6000
10
4.04100
20
7.85800
30
6.00000
0
VERTEX
8
2_6000
10
4.09700
20
8.92700
30
6.00000
0
VERTEX
8
2_6000
10
4.07800
20
9.86900
30
6.00000
0
VERTEX
8
2_6000
10
4.10100
20
10.33700
30
6.00000
0
VERTEX
8
2_6000
10
3.99600
20
12.13400
30
6.00000
0
VERTEX
8
2_6000
10
3.97700
20
12.73900
30
6.00000
0
VERTEX
8
2_6000
10
4.09800
20
14.45800
30
6.00000
0
VERTEX
8
2_6000
10
3.98800
20
16.52400
30
6.00000
0
VERTEX
8
2_6000
10
3.96200
20
17.75900
30
6.00000
0
VERTEX
8
2_6000
10
3.96800
20
19.75000
30
6.00000
0
VERTEX
8
2_6000
10
4.02500
20
21.03100
30
6.00000
0
VERTEX
8
2_6000
10
4.01200
20
21.88500
30
6.00000
0
VERTEX
8
2_6000
10
4.02600
20
23.09400
30
6.00000
0
VERTEX
8
2_6000
10
4.09500
20
24.21300
30
6.00000
0
VERTEX
8
2_6000
10
3.95800
20
27.42400
30
6.00000
0
VERTEX
8
2_6000
10
3.94700
20
28.23600
30
6.00000
0
VERTEX
8
2_6000
10
3.83200
20
29.37300
30
6.00000
0
VERTEX
8
2_6000
10
3.78900
20
29.99100
30
6.00000
0
VERTEX
8
2_6000
10
3.73900
20
30.26700
30
6.00000
0
VERTEX
8
2_6000
10
3.58900
20
31.24200
30
6.00000
0
VERTEX
8
2_6000
10
3.20100
20
33.43000
30
6.00000
0
VERTEX
8
2_6000
10
2.96800
20
34.11400
30
6.00000
0
VERTEX
8
2_6000
10
2.23500
20
37.32600
30
6.00000
0
VERTEX
8
2_6000
10
1.96400
20
38.61000
30
6.00000
0
VERTEX
8
2_6000
10
1.81000
20
39.20400
30
6.00000
0
VERTEX
8
2_6000
10
1.67900
20
39.96000
30
6.00000
0
VERTEX
8
2_6000
10
1.24100
20
42.33500
30
6.00000
0
VERTEX
8
2_6000
10
0.95700
20
44.61400
30
6.00000
0
VERTEX
8
2_6000
10
0.84800
20
45.25100
30
6.00000
0
VERTEX
8
2_6000
10
0.83900
20
45.87400
30
6.00000
0
VERTEX
8
2_6000
10
0.86000
20
46.20700
30
6.00000
0
VERTEX
8
2_6000
10
0.86600
20
46.74000
30
6.00000
0
VERTEX
8
2_6000
10
1.02200
20
48.58100
30
6.00000
0
VERTEX
8
2_6000
10
1.09000
20
48.88200
30
6.00000
0
VERTEX
8
2_6000
10
1.54900
20
51.36000
30
6.00000
0
VERTEX
8
2_6000
10
1.61700
20
51.55300
30
6.00000
0
VERTEX
8
2_6000
10
1.67700
20
51.87900
30
6.00000
0
VERTEX
8
2_6000
10
1.80400
20
52.97400
30
6.00000
0
VERTEX
8
2_6000
10
1.78700
20
53.64500
30
6.00000
0
VERTEX
8
2_6000
10
1.90100
20
54.68800
30
6.00000
0
VERTEX
8
2_6000
10
2.06200
20
55.58100
30
6.00000
0
VERTEX
8
2_6000
10
2.27400
20
57.21500
30
6.00000
0
VERTEX
8
2_6000
10
2.32000
20
57.51700
30
6.00000
0
VERTEX
8
2_6000
10
2.75600
20
59.68300
30
6.00000
0
VERTEX
8
2_6000
10
2.79000
20
60.22700
30
6.00000
0
VERTEX
8
2_6000
10
2.81800
20
60.35100
30
6.00000
0
VERTEX
8
2_6000
10
2.83300
20
60.49600
30
6.00000
0
VERTEX
8
2_6000
10
2.97100
20
61.05900
30
6.00000
0
VERTEX
8
2_6000
10
3.05500
20
61.35700
30
6.00000
0
VERTEX
8
2_6000
10
3.15100
20
62.29000
30
6.00000
0
VERTEX
8
2_6000
10
3.46900
20
63.93300
30
6.00000
0
VERTEX
8
2_6000
10
4.23600
20
67.36800
30
6.00000
0
VERTEX
8
2_6000
10
4.35700
20
68.04900
30
6.00000
0
VERTEX
8
2_6000
10
4.38300
20
68.25401
30
6.00000
0
VERTEX
8
2_6000
10
4.56000
20
69.14600
30
6.00000
0
VERTEX
8
2_6000
10
4.61000
20
70.12300
30
6.00000
0
VERTEX
8
2_6000
10
4.62100
20
70.22100
30
6.00000
0
VERTEX
8
2_6000
10
4.86500
20
71.52100
30
6.00000
0
VERTEX
8
2_6000
10
4.90300
20
72.07500
30
6.00000
0
VERTEX
8
2_6000
10
5.30900
20
74.93201
30
6.00000
0
VERTEX
8
2_6000
10
5.31200
20
75.49600
30
6.00000
0
VERTEX
8
2_6000
10
5.34700
20
75.81200
30
6.00000
0
VERTEX
8
2_6000
10
5.28100
20
76.26601
30
6.00000
0
VERTEX
8
2_6000
10
5.37800
20
76.76000
30
6.00000
0
VERTEX
8
2_6000
10
5.42300
20
77.03300
30
6.00000
0
VERTEX
8
2_6000
10
5.37900
20
77.48300
30
6.00000
0
VERTEX
8
2_6000
10
5.37500
20
78.41100
30
6.00000
0
VERTEX
8
2_6000
10
5.34600
20
79.27400
30
6.00000
0
VERTEX
8
2_6000
10
5.34400
20
80.09700
30
6.00000
0
VERTEX
8
2_6000
10
5.19100
20
81.19901
30
6.00000
0
VERTEX
8
2_6000
10
5.15400
20
81.64301
30
6.00000
0
VERTEX
8
2_6000
10
5.16800
20
82.11000
30
6.00000
0
VERTEX
8
2_6000
10
5.15900
20
82.51300
30
6.00000
0
VERTEX
8
2_6000
10
5.13300
20
82.66000
30
6.00000
0
VERTEX
8
2_6000
10
5.03900
20
84.51401
30
6.00000
0
VERTEX
8
2_6000
10
5.02200
20
85.01300
30
6.00000
0
VERTEX
8
2_6000
10
5.02800
20
85.05801
30
6.00000
0
VERTEX
8
2_6000
10
4.99100
20
85.44300
30
6.00000
0
VERTEX
8
2_6000
10
4.93900
20
86.54800
30
6.00000
0
VERTEX
8
2_6000
10
4.92600
20
86.68301
30
6.00000
0
VERTEX
8
2_6000
10
4.85800
20
88.30400
30
6.00000
0
VERTEX
8
2_6000
10
4.85800
20
88.65401
30
6.00000
0
VERTEX
8
2_6000
10
4.83900
20
88.88100
30
6.00000
0
VERTEX
8
2_6000
10
4.78400
20
90.25800
30
6.00000
0
VERTEX
8
2_6000
10
4.76100
20
90.63300
30
6.00000
0
VERTEX
8
2_6000
10
4.68700
20
91.03001
30
6.00000
0
VERTEX
8
2_6000
10
3.88800
20
91.16400
30
6.00000
0
VERTEX
8
2_6000
10
-1.47600
20
91.16300
30
6.00000
0
SEQEND
8
2_6000
0
POLYLINE
8
2_6000
62
5
0
VERTEX
8
2_6000
10
-54.68800
20
91.21500
30
6.00000
0
VERTEX
8
2_6000
10
3.57800
20
91.21500
30
6.00000
0
VERTEX
8
2_6000
10
3.31700
20
91.25900
30
6.00000
0
VERTEX
8
2_6000
10
-56.17000
20
91.25900
30
6.00000
0
VERTEX
8
2_6000
10
-56.17000
20
91.21500
30
6.00000
0
VERTEX
8
2_6000
10
-54.68800
20
91.21500
30
6.00000
0
SEQEND
8
2_6000
0
POLYLINE
8
2_6000
62
5
0
VERTEX
8
2_6000
10
3.76400
20
91.18401
30
6.00000
0
VERTEX
8
2_6000
10
3.58300
20
91.21500
30
6.00000
0
VERTEX
8
2_6000
10
-56.17000
20
91.21500
30
6.00000
0
VERTEX
8
2_6000
10
-56.17000
20
91.16400
30
6.00000
0
VERTEX
8
2_6000
10
-54.56300
20
91.16300
30
6.00000
0
VERTEX
8
2_6000
10
1.73900
20
91.16300
30
6.00000
0
VERTEX
8
2_6000
10
3.88800
20
91.16400
30
6.00000
0
VERTEX
8
2_6000
10
3.76400
20
91.18401
30
6.00000
0
SEQEND
8
2_6000
0
ENDSEC
0
EOF
