0
SECTION
2
HEADER
9
$ACADVER
1
AC1009
0
ENDSEC
0
SECTION
2
TABLES
0
TABLE
2
LAYER
70
1
0
LAYER
2
25_75000
70
0
62
7
6
CONTINUOUS
0
ENDTAB
0
ENDSEC
0
SECTION
2
BLOCKS
0
ENDSEC
0
SECTION
2
ENTITIES
0
POLYLINE
8
25_75000
62
5
0
VERTEX
8
25_75000
10
-56.17000
20
91.64301
30
75.00000
0
VERTEX
8
25_75000
10
-56.17000
20
91.63300
30
75.00000
0
VERTEX
8
25_75000
10
1.06400
20
91.63300
30
75.00000
0
VERTEX
8
25_75000
10
0.76500
20
91.68501
30
75.00000
0
VERTEX
8
25_75000
10
-56.17000
20
91.68501
30
75.00000
0
VERTEX
8
25_75000
10
-56.17000
20
91.64301
30
75.00000
0
SEQEND
8
25_75000
0
POLYLINE
8
25_75000
62
5
0
VERTEX
8
25_75000
10
-56.17000
20
91.59200
30
75.00000
0
VERTEX
8
25_75000
10
-56.17000
20
91.56500
30
75.00000
0
VERTEX
8
25_75000
10
1.47600
20
91.56500
30
75.00000
0
VERTEX
8
25_75000
10
1.08900
20
91.63100
30
75.00000
0
VERTEX
8
25_75000
10
-56.17000
20
91.63100
30
75.00000
0
VERTEX
8
25_75000
10
-56.17000
20
91.59200
30
75.00000
0
SEQEND
8
25_75000
0
POLYLINE
8
25_75000
62
5
0
VERTEX
8
25_75000
10
-56.17000
20
91.44200
30
75.00000
0
VERTEX
8
25_75000
10
-56.17000
20
91.37000
30
75.00000
0
VERTEX
8
25_75000
10
2.65700
20
91.37000
30
75.00000
0
VERTEX
8
25_75000
10
1.49200
20
91.56300
30
75.00000
0
VERTEX
8
25_75000
10
-56.17000
20
91.56300
30
75.00000
0
VERTEX
8
25_75000
10
-56.17000
20
91.44200
30
75.00000
0
SEQEND
8
25_75000
0
POLYLINE
8
25_75000
62
5
0
VERTEX
8
25_75000
10
-56.17000
20
91.11201
30
75.00000
0
VERTEX
8
25_75000
10
-56.17000
20
90.36900
30
75.00000
0
VERTEX
8
25_75000
10
8.65500
20
90.36900
30
75.00000
0
VERTEX
8
25_75000
10
2.67400
20
91.36600
30
75.00000
0
VERTEX
8
25_75000
10
-56.17000
20
91.36600
30
75.00000
0
VERTEX
8
25_75000
10
-56.17000
20
91.11201
30
75.00000
0
SEQEND
8
25_75000
0
POLYLINE
8
25_75000
62
5
0
VERTEX
8
25_75000
10
-56.17000
20
-10.31700
30
75.00000
0
VERTEX
8
25_75000
10
-56.17000
20
-92.11401
30
75.00000
0
VERTEX
8
25_75000
10
28.74100
20
-92.11401
30
75.00000
0
VERTEX
8
25_75000
10
28.76000
20
-91.51701
30
75.00000
0
VERTEX
8
25_75000
10
28.74600
20
-91.17800
30
75.00000
0
VERTEX
8
25_75000
10
28.87000
20
-90.24100
30
75.00000
0
VERTEX
8
25_75000
10
29.04200
20
-89.69501
30
75.00000
0
VERTEX
8
25_75000
10
29.15700
20
-89.49800
30
75.00000
0
VERTEX
8
25_75000
10
29.46900
20
-89.13500
30
75.00000
0
VERTEX
8
25_75000
10
30.30300
20
-88.24200
30
75.00000
0
VERTEX
8
25_75000
10
30.48500
20
-87.89900
30
75.00000
0
VERTEX
8
25_75000
10
30.98200
20
-87.13300
30
75.00000
0
VERTEX
8
25_75000
10
31.06300
20
-86.98701
30
75.00000
0
VERTEX
8
25_75000
10
31.18700
20
-86.66500
30
75.00000
0
VERTEX
8
25_75000
10
31.43500
20
-86.06400
30
75.00000
0
VERTEX
8
25_75000
10
31.47300
20
-86.00500
30
75.00000
0
VERTEX
8
25_75000
10
31.78300
20
-85.63500
30
75.00000
0
VERTEX
8
25_75000
10
31.88000
20
-85.43501
30
75.00000
0
VERTEX
8
25_75000
10
32.07100
20
-85.12801
30
75.00000
0
VERTEX
8
25_75000
10
32.02900
20
-84.87400
30
75.00000
0
VERTEX
8
25_75000
10
32.06400
20
-84.77801
30
75.00000
0
VERTEX
8
25_75000
10
32.12400
20
-84.50101
30
75.00000
0
VERTEX
8
25_75000
10
32.10400
20
-84.41701
30
75.00000
0
VERTEX
8
25_75000
10
32.11800
20
-84.32600
30
75.00000
0
VERTEX
8
25_75000
10
32.24700
20
-83.89700
30
75.00000
0
VERTEX
8
25_75000
10
32.59900
20
-83.16300
30
75.00000
0
VERTEX
8
25_75000
10
32.85300
20
-82.29601
30
75.00000
0
VERTEX
8
25_75000
10
32.95900
20
-81.80100
30
75.00000
0
VERTEX
8
25_75000
10
33.00100
20
-81.66600
30
75.00000
0
VERTEX
8
25_75000
10
33.66400
20
-80.44901
30
75.00000
0
VERTEX
8
25_75000
10
33.92400
20
-79.92200
30
75.00000
0
VERTEX
8
25_75000
10
34.23700
20
-79.13000
30
75.00000
0
VERTEX
8
25_75000
10
34.39100
20
-78.76501
30
75.00000
0
VERTEX
8
25_75000
10
34.66300
20
-78.15900
30
75.00000
0
VERTEX
8
25_75000
10
34.70900
20
-78.04201
30
75.00000
0
VERTEX
8
25_75000
10
34.95600
20
-77.31500
30
75.00000
0
VERTEX
8
25_75000
10
35.06300
20
-77.03900
30
75.00000
0
VERTEX
8
25_75000
10
35.18500
20
-76.76000
30
75.00000
0
VERTEX
8
25_75000
10
35.05000
20
-76.12000
30
75.00000
0
VERTEX
8
25_75000
10
35.07100
20
-75.98801
30
75.00000
0
VERTEX
8
25_75000
10
35.00300
20
-75.62000
30
75.00000
0
VERTEX
8
25_75000
10
35.12900
20
-74.48400
30
75.00000
0
VERTEX
8
25_75000
10
35.12900
20
-74.23000
30
75.00000
0
VERTEX
8
25_75000
10
35.17800
20
-74.02901
30
75.00000
0
VERTEX
8
25_75000
10
35.19200
20
-72.11100
30
75.00000
0
VERTEX
8
25_75000
10
35.20800
20
-71.92700
30
75.00000
0
VERTEX
8
25_75000
10
35.59200
20
-69.90900
30
75.00000
0
VERTEX
8
25_75000
10
35.65200
20
-69.52300
30
75.00000
0
VERTEX
8
25_75000
10
35.67500
20
-69.15100
30
75.00000
0
VERTEX
8
25_75000
10
35.79000
20
-68.71800
30
75.00000
0
VERTEX
8
25_75000
10
35.85700
20
-68.25600
30
75.00000
0
VERTEX
8
25_75000
10
36.20500
20
-67.00401
30
75.00000
0
VERTEX
8
25_75000
10
36.50100
20
-66.15300
30
75.00000
0
VERTEX
8
25_75000
10
36.47900
20
-65.58000
30
75.00000
0
VERTEX
8
25_75000
10
36.44500
20
-65.10900
30
75.00000
0
VERTEX
8
25_75000
10
36.45800
20
-64.97701
30
75.00000
0
VERTEX
8
25_75000
10
36.44300
20
-64.66901
30
75.00000
0
VERTEX
8
25_75000
10
36.46700
20
-64.04300
30
75.00000
0
VERTEX
8
25_75000
10
36.44600
20
-63.52900
30
75.00000
0
VERTEX
8
25_75000
10
36.47700
20
-62.09700
30
75.00000
0
VERTEX
8
25_75000
10
36.47100
20
-61.78100
30
75.00000
0
VERTEX
8
25_75000
10
36.43300
20
-61.47100
30
75.00000
0
VERTEX
8
25_75000
10
36.39100
20
-60.94900
30
75.00000
0
VERTEX
8
25_75000
10
36.42800
20
-60.05000
30
75.00000
0
VERTEX
8
25_75000
10
36.36900
20
-59.72700
30
75.00000
0
VERTEX
8
25_75000
10
36.23900
20
-59.33700
30
75.00000
0
VERTEX
8
25_75000
10
36.13900
20
-58.72400
30
75.00000
0
VERTEX
8
25_75000
10
36.13900
20
-58.26000
30
75.00000
0
VERTEX
8
25_75000
10
36.09200
20
-57.98000
30
75.00000
0
VERTEX
8
25_75000
10
36.01500
20
-57.40700
30
75.00000
0
VERTEX
8
25_75000
10
35.88100
20
-56.73200
30
75.00000
0
VERTEX
8
25_75000
10
35.70000
20
-55.61100
30
75.00000
0
VERTEX
8
25_75000
10
35.65900
20
-55.17100
30
75.00000
0
VERTEX
8
25_75000
10
35.69600
20
-54.74300
30
75.00000
0
VERTEX
8
25_75000
10
35.69500
20
-54.11800
30
75.00000
0
VERTEX
8
25_75000
10
35.74800
20
-53.83200
30
75.00000
0
VERTEX
8
25_75000
10
36.01600
20
-52.57000
30
75.00000
0
VERTEX
8
25_75000
10
36.05400
20
-52.33700
30
75.00000
0
VERTEX
8
25_75000
10
36.10100
20
-52.17800
30
75.00000
0
VERTEX
8
25_75000
10
36.40900
20
-51.52600
30
75.00000
0
VERTEX
8
25_75000
10
36.55700
20
-51.12200
30
75.00000
0
VERTEX
8
25_75000
10
36.77200
20
-50.20200
30
75.00000
0
VERTEX
8
25_75000
10
36.83000
20
-50.06500
30
75.00000
0
VERTEX
8
25_75000
10
36.86400
20
-50.00400
30
75.00000
0
VERTEX
8
25_75000
10
37.23900
20
-48.99900
30
75.00000
0
VERTEX
8
25_75000
10
37.47300
20
-48.30600
30
75.00000
0
VERTEX
8
25_75000
10
37.47600
20
-48.25900
30
75.00000
0
VERTEX
8
25_75000
10
37.55600
20
-47.97500
30
75.00000
0
VERTEX
8
25_75000
10
37.67800
20
-47.44800
30
75.00000
0
VERTEX
8
25_75000
10
37.66700
20
-47.38800
30
75.00000
0
VERTEX
8
25_75000
10
37.70600
20
-47.29900
30
75.00000
0
VERTEX
8
25_75000
10
38.11400
20
-46.00500
30
75.00000
0
VERTEX
8
25_75000
10
38.14300
20
-45.90800
30
75.00000
0
VERTEX
8
25_75000
10
38.15400
20
-45.81900
30
75.00000
0
VERTEX
8
25_75000
10
38.34000
20
-45.28400
30
75.00000
0
VERTEX
8
25_75000
10
38.31300
20
-44.76700
30
75.00000
0
VERTEX
8
25_75000
10
38.40400
20
-44.06300
30
75.00000
0
VERTEX
8
25_75000
10
38.43600
20
-42.81400
30
75.00000
0
VERTEX
8
25_75000
10
38.42400
20
-42.50100
30
75.00000
0
VERTEX
8
25_75000
10
38.42900
20
-42.46200
30
75.00000
0
VERTEX
8
25_75000
10
38.40500
20
-42.15700
30
75.00000
0
VERTEX
8
25_75000
10
38.50600
20
-41.62500
30
75.00000
0
VERTEX
8
25_75000
10
38.50900
20
-41.27800
30
75.00000
0
VERTEX
8
25_75000
10
38.65900
20
-40.05000
30
75.00000
0
VERTEX
8
25_75000
10
38.66500
20
-39.53700
30
75.00000
0
VERTEX
8
25_75000
10
38.69600
20
-39.17900
30
75.00000
0
VERTEX
8
25_75000
10
38.75100
20
-38.75500
30
75.00000
0
VERTEX
8
25_75000
10
38.79300
20
-38.56600
30
75.00000
0
VERTEX
8
25_75000
10
38.86600
20
-38.29500
30
75.00000
0
VERTEX
8
25_75000
10
39.19500
20
-37.11800
30
75.00000
0
VERTEX
8
25_75000
10
39.43800
20
-36.39700
30
75.00000
0
VERTEX
8
25_75000
10
39.52100
20
-36.12200
30
75.00000
0
VERTEX
8
25_75000
10
39.58600
20
-34.53600
30
75.00000
0
VERTEX
8
25_75000
10
39.58500
20
-33.36700
30
75.00000
0
VERTEX
8
25_75000
10
39.55100
20
-32.86500
30
75.00000
0
VERTEX
8
25_75000
10
39.46200
20
-32.12800
30
75.00000
0
VERTEX
8
25_75000
10
39.34200
20
-30.98600
30
75.00000
0
VERTEX
8
25_75000
10
39.19400
20
-30.23100
30
75.00000
0
VERTEX
8
25_75000
10
39.09600
20
-29.82900
30
75.00000
0
VERTEX
8
25_75000
10
38.79000
20
-28.76400
30
75.00000
0
VERTEX
8
25_75000
10
38.50000
20
-27.59100
30
75.00000
0
VERTEX
8
25_75000
10
38.33800
20
-27.03800
30
75.00000
0
VERTEX
8
25_75000
10
38.05800
20
-26.30000
30
75.00000
0
VERTEX
8
25_75000
10
37.95100
20
-26.04200
30
75.00000
0
VERTEX
8
25_75000
10
37.60600
20
-25.42600
30
75.00000
0
VERTEX
8
25_75000
10
37.14600
20
-24.83900
30
75.00000
0
VERTEX
8
25_75000
10
36.51600
20
-23.91800
30
75.00000
0
VERTEX
8
25_75000
10
36.50500
20
-23.73500
30
75.00000
0
VERTEX
8
25_75000
10
36.47000
20
-23.57300
30
75.00000
0
VERTEX
8
25_75000
10
36.49800
20
-23.48800
30
75.00000
0
VERTEX
8
25_75000
10
36.65000
20
-23.21200
30
75.00000
0
VERTEX
8
25_75000
10
37.74600
20
-21.87900
30
75.00000
0
VERTEX
8
25_75000
10
38.14100
20
-21.38000
30
75.00000
0
VERTEX
8
25_75000
10
38.23600
20
-21.22200
30
75.00000
0
VERTEX
8
25_75000
10
38.32200
20
-21.09800
30
75.00000
0
VERTEX
8
25_75000
10
38.70400
20
-20.45000
30
75.00000
0
VERTEX
8
25_75000
10
38.81000
20
-20.30100
30
75.00000
0
VERTEX
8
25_75000
10
39.59800
20
-18.82400
30
75.00000
0
VERTEX
8
25_75000
10
39.68900
20
-18.52100
30
75.00000
0
VERTEX
8
25_75000
10
39.98500
20
-17.76900
30
75.00000
0
VERTEX
8
25_75000
10
40.16800
20
-17.32700
30
75.00000
0
VERTEX
8
25_75000
10
40.32200
20
-16.83400
30
75.00000
0
VERTEX
8
25_75000
10
40.42000
20
-16.39600
30
75.00000
0
VERTEX
8
25_75000
10
40.46500
20
-15.82200
30
75.00000
0
VERTEX
8
25_75000
10
40.46700
20
-14.71500
30
75.00000
0
VERTEX
8
25_75000
10
40.36500
20
-12.45800
30
75.00000
0
VERTEX
8
25_75000
10
40.37000
20
-12.13600
30
75.00000
0
VERTEX
8
25_75000
10
40.34100
20
-11.85300
30
75.00000
0
VERTEX
8
25_75000
10
40.28700
20
-10.62900
30
75.00000
0
VERTEX
8
25_75000
10
40.31400
20
-10.41800
30
75.00000
0
VERTEX
8
25_75000
10
40.27100
20
-10.28800
30
75.00000
0
VERTEX
8
25_75000
10
40.28400
20
-10.13600
30
75.00000
0
VERTEX
8
25_75000
10
40.23100
20
-9.21700
30
75.00000
0
VERTEX
8
25_75000
10
40.26700
20
-8.72800
30
75.00000
0
VERTEX
8
25_75000
10
40.38200
20
-7.47200
30
75.00000
0
VERTEX
8
25_75000
10
40.64300
20
-5.97100
30
75.00000
0
VERTEX
8
25_75000
10
40.64500
20
-5.84600
30
75.00000
0
VERTEX
8
25_75000
10
40.75400
20
-5.34300
30
75.00000
0
VERTEX
8
25_75000
10
40.94000
20
-4.57400
30
75.00000
0
VERTEX
8
25_75000
10
40.98000
20
-4.46200
30
75.00000
0
VERTEX
8
25_75000
10
41.26300
20
-3.87200
30
75.00000
0
VERTEX
8
25_75000
10
41.39300
20
-3.52700
30
75.00000
0
VERTEX
8
25_75000
10
41.68800
20
-2.55200
30
75.00000
0
VERTEX
8
25_75000
10
42.15300
20
-1.68200
30
75.00000
0
VERTEX
8
25_75000
10
42.42400
20
-1.07200
30
75.00000
0
VERTEX
8
25_75000
10
42.60800
20
-0.71500
30
75.00000
0
VERTEX
8
25_75000
10
43.63600
20
0.41500
30
75.00000
0
VERTEX
8
25_75000
10
44.03900
20
0.76100
30
75.00000
0
VERTEX
8
25_75000
10
45.99700
20
2.11700
30
75.00000
0
VERTEX
8
25_75000
10
47.10800
20
2.92800
30
75.00000
0
VERTEX
8
25_75000
10
49.28100
20
4.58400
30
75.00000
0
VERTEX
8
25_75000
10
51.99000
20
6.71500
30
75.00000
0
VERTEX
8
25_75000
10
52.24900
20
6.97100
30
75.00000
0
VERTEX
8
25_75000
10
52.42200
20
7.10900
30
75.00000
0
VERTEX
8
25_75000
10
52.80800
20
7.44200
30
75.00000
0
VERTEX
8
25_75000
10
52.89900
20
7.53200
30
75.00000
0
VERTEX
8
25_75000
10
53.11000
20
7.76000
30
75.00000
0
VERTEX
8
25_75000
10
53.67900
20
8.42600
30
75.00000
0
VERTEX
8
25_75000
10
54.04800
20
8.95700
30
75.00000
0
VERTEX
8
25_75000
10
54.20600
20
9.15800
30
75.00000
0
VERTEX
8
25_75000
10
54.27000
20
9.25700
30
75.00000
0
VERTEX
8
25_75000
10
54.73900
20
10.10600
30
75.00000
0
VERTEX
8
25_75000
10
55.10000
20
10.95600
30
75.00000
0
VERTEX
8
25_75000
10
55.29400
20
11.51300
30
75.00000
0
VERTEX
8
25_75000
10
55.40300
20
11.92600
30
75.00000
0
VERTEX
8
25_75000
10
55.53800
20
12.63100
30
75.00000
0
VERTEX
8
25_75000
10
55.64600
20
13.01500
30
75.00000
0
VERTEX
8
25_75000
10
55.72100
20
13.66600
30
75.00000
0
VERTEX
8
25_75000
10
55.89800
20
15.47400
30
75.00000
0
VERTEX
8
25_75000
10
55.87400
20
15.61300
30
75.00000
0
VERTEX
8
25_75000
10
55.75500
20
16.78300
30
75.00000
0
VERTEX
8
25_75000
10
55.69600
20
17.26000
30
75.00000
0
VERTEX
8
25_75000
10
55.40100
20
18.76100
30
75.00000
0
VERTEX
8
25_75000
10
55.34700
20
18.95100
30
75.00000
0
VERTEX
8
25_75000
10
54.87700
20
20.25100
30
75.00000
0
VERTEX
8
25_75000
10
54.47400
20
21.13600
30
75.00000
0
VERTEX
8
25_75000
10
53.72000
20
22.54100
30
75.00000
0
VERTEX
8
25_75000
10
51.27600
20
25.58400
30
75.00000
0
VERTEX
8
25_75000
10
50.85200
20
26.13900
30
75.00000
0
VERTEX
8
25_75000
10
49.68300
20
27.46800
30
75.00000
0
VERTEX
8
25_75000
10
48.92500
20
28.38200
30
75.00000
0
VERTEX
8
25_75000
10
48.37400
20
29.13300
30
75.00000
0
VERTEX
8
25_75000
10
47.81500
20
29.93700
30
75.00000
0
VERTEX
8
25_75000
10
47.19600
20
30.95300
30
75.00000
0
VERTEX
8
25_75000
10
46.77200
20
31.57500
30
75.00000
0
VERTEX
8
25_75000
10
46.35900
20
32.33500
30
75.00000
0
VERTEX
8
25_75000
10
45.91900
20
33.08300
30
75.00000
0
VERTEX
8
25_75000
10
45.49400
20
33.95400
30
75.00000
0
VERTEX
8
25_75000
10
44.27000
20
36.28700
30
75.00000
0
VERTEX
8
25_75000
10
43.72200
20
37.52400
30
75.00000
0
VERTEX
8
25_75000
10
42.90000
20
39.17200
30
75.00000
0
VERTEX
8
25_75000
10
42.44600
20
40.15900
30
75.00000
0
VERTEX
8
25_75000
10
41.90700
20
41.74800
30
75.00000
0
VERTEX
8
25_75000
10
41.77000
20
42.09100
30
75.00000
0
VERTEX
8
25_75000
10
41.67400
20
42.37100
30
75.00000
0
VERTEX
8
25_75000
10
41.47600
20
43.03100
30
75.00000
0
VERTEX
8
25_75000
10
40.32700
20
46.34700
30
75.00000
0
VERTEX
8
25_75000
10
40.07800
20
47.18500
30
75.00000
0
VERTEX
8
25_75000
10
39.87800
20
47.75000
30
75.00000
0
VERTEX
8
25_75000
10
39.51900
20
49.40900
30
75.00000
0
VERTEX
8
25_75000
10
38.97600
20
51.62200
30
75.00000
0
VERTEX
8
25_75000
10
38.94100
20
52.18100
30
75.00000
0
VERTEX
8
25_75000
10
38.79800
20
52.98500
30
75.00000
0
VERTEX
8
25_75000
10
38.72700
20
54.31300
30
75.00000
0
VERTEX
8
25_75000
10
38.66900
20
54.66300
30
75.00000
0
VERTEX
8
25_75000
10
38.73300
20
56.53600
30
75.00000
0
VERTEX
8
25_75000
10
38.71600
20
56.78800
30
75.00000
0
VERTEX
8
25_75000
10
38.72300
20
56.97000
30
75.00000
0
VERTEX
8
25_75000
10
38.92500
20
59.38100
30
75.00000
0
VERTEX
8
25_75000
10
39.04600
20
60.67000
30
75.00000
0
VERTEX
8
25_75000
10
39.06300
20
61.02300
30
75.00000
0
VERTEX
8
25_75000
10
39.15200
20
61.66100
30
75.00000
0
VERTEX
8
25_75000
10
39.38000
20
64.09000
30
75.00000
0
VERTEX
8
25_75000
10
39.55200
20
65.57600
30
75.00000
0
VERTEX
8
25_75000
10
39.72800
20
68.10001
30
75.00000
0
VERTEX
8
25_75000
10
39.79700
20
69.78300
30
75.00000
0
VERTEX
8
25_75000
10
39.81500
20
70.71900
30
75.00000
0
VERTEX
8
25_75000
10
39.84600
20
71.41600
30
75.00000
0
VERTEX
8
25_75000
10
39.83400
20
73.33000
30
75.00000
0
VERTEX
8
25_75000
10
39.84400
20
74.04601
30
75.00000
0
VERTEX
8
25_75000
10
39.79700
20
74.50301
30
75.00000
0
VERTEX
8
25_75000
10
39.73100
20
75.33401
30
75.00000
0
VERTEX
8
25_75000
10
39.62600
20
76.11301
30
75.00000
0
VERTEX
8
25_75000
10
39.42300
20
77.88300
30
75.00000
0
VERTEX
8
25_75000
10
39.10100
20
79.21800
30
75.00000
0
VERTEX
8
25_75000
10
38.98400
20
79.59600
30
75.00000
0
VERTEX
8
25_75000
10
38.41000
20
81.74400
30
75.00000
0
VERTEX
8
25_75000
10
37.51300
20
83.98801
30
75.00000
0
VERTEX
8
25_75000
10
37.38400
20
84.40701
30
75.00000
0
VERTEX
8
25_75000
10
37.30200
20
84.82101
30
75.00000
0
VERTEX
8
25_75000
10
37.08400
20
85.62400
30
75.00000
0
VERTEX
8
25_75000
10
15.77000
20
89.18101
30
75.00000
0
VERTEX
8
25_75000
10
-56.17000
20
89.18101
30
75.00000
0
VERTEX
8
25_75000
10
-56.17000
20
-10.31700
30
75.00000
0
SEQEND
8
25_75000
0
POLYLINE
8
25_75000
62
5
0
VERTEX
8
25_75000
10
12.91600
20
89.65601
30
75.00000
0
VERTEX
8
25_75000
10
8.68600
20
90.36201
30
75.00000
0
VERTEX
8
25_75000
10
-56.17000
20
90.36201
30
75.00000
0
VERTEX
8
25_75000
10
-56.17000
20
89.18201
30
75.00000
0
VERTEX
8
25_75000
10
15.76200
20
89.18201
30
75.00000
0
VERTEX
8
25_75000
10
12.91600
20
89.65601
30
75.00000
0
SEQEND
8
25_75000
0
ENDSEC
0
EOF
