0
SECTION
2
HEADER
9
$ACADVER
1
AC1009
0
ENDSEC
0
SECTION
2
TABLES
0
TABLE
2
LAYER
70
1
0
LAYER
2
49_147000
70
0
62
7
6
CONTINUOUS
0
ENDTAB
0
ENDSEC
0
SECTION
2
BLOCKS
0
ENDSEC
0
SECTION
2
ENTITIES
0
POLYLINE
8
49_147000
62
5
0
VERTEX
8
49_147000
10
-56.17000
20
92.07301
30
147.00000
0
VERTEX
8
49_147000
10
-56.17000
20
-77.05801
30
147.00000
0
VERTEX
8
49_147000
10
-27.70000
20
-77.03600
30
147.00000
0
VERTEX
8
49_147000
10
20.66300
20
-77.03600
30
147.00000
0
VERTEX
8
49_147000
10
19.74400
20
-75.87100
30
147.00000
0
VERTEX
8
49_147000
10
19.49700
20
-75.58401
30
147.00000
0
VERTEX
8
49_147000
10
19.04800
20
-75.01501
30
147.00000
0
VERTEX
8
49_147000
10
18.49700
20
-74.27100
30
147.00000
0
VERTEX
8
49_147000
10
17.67800
20
-73.24900
30
147.00000
0
VERTEX
8
49_147000
10
17.48100
20
-73.02400
30
147.00000
0
VERTEX
8
49_147000
10
16.97200
20
-72.32900
30
147.00000
0
VERTEX
8
49_147000
10
16.31800
20
-71.52901
30
147.00000
0
VERTEX
8
49_147000
10
15.65600
20
-70.68301
30
147.00000
0
VERTEX
8
49_147000
10
15.49900
20
-70.49300
30
147.00000
0
VERTEX
8
49_147000
10
15.19300
20
-70.07201
30
147.00000
0
VERTEX
8
49_147000
10
13.40900
20
-67.84800
30
147.00000
0
VERTEX
8
49_147000
10
13.31100
20
-67.74100
30
147.00000
0
VERTEX
8
49_147000
10
13.16000
20
-67.53800
30
147.00000
0
VERTEX
8
49_147000
10
12.93800
20
-67.26500
30
147.00000
0
VERTEX
8
49_147000
10
11.98100
20
-66.09300
30
147.00000
0
VERTEX
8
49_147000
10
10.27600
20
-64.03800
30
147.00000
0
VERTEX
8
49_147000
10
9.32800
20
-62.79100
30
147.00000
0
VERTEX
8
49_147000
10
9.20300
20
-62.65200
30
147.00000
0
VERTEX
8
49_147000
10
8.72800
20
-62.05500
30
147.00000
0
VERTEX
8
49_147000
10
7.70100
20
-60.81500
30
147.00000
0
VERTEX
8
49_147000
10
5.76100
20
-58.30600
30
147.00000
0
VERTEX
8
49_147000
10
5.16800
20
-57.49900
30
147.00000
0
VERTEX
8
49_147000
10
4.68100
20
-56.85400
30
147.00000
0
VERTEX
8
49_147000
10
4.30400
20
-56.29300
30
147.00000
0
VERTEX
8
49_147000
10
3.38700
20
-54.97200
30
147.00000
0
VERTEX
8
49_147000
10
2.80400
20
-54.03900
30
147.00000
0
VERTEX
8
49_147000
10
2.19400
20
-53.08800
30
147.00000
0
VERTEX
8
49_147000
10
1.99800
20
-52.76300
30
147.00000
0
VERTEX
8
49_147000
10
1.24300
20
-51.44800
30
147.00000
0
VERTEX
8
49_147000
10
0.85700
20
-50.74900
30
147.00000
0
VERTEX
8
49_147000
10
-0.44400
20
-48.23200
30
147.00000
0
VERTEX
8
49_147000
10
-0.75700
20
-47.54200
30
147.00000
0
VERTEX
8
49_147000
10
-0.99700
20
-47.18600
30
147.00000
0
VERTEX
8
49_147000
10
-1.14300
20
-47.04000
30
147.00000
0
VERTEX
8
49_147000
10
-1.15800
20
-46.91500
30
147.00000
0
VERTEX
8
49_147000
10
-1.45200
20
-46.01100
30
147.00000
0
VERTEX
8
49_147000
10
-1.65000
20
-45.28800
30
147.00000
0
VERTEX
8
49_147000
10
-1.98300
20
-44.19400
30
147.00000
0
VERTEX
8
49_147000
10
-2.21300
20
-43.26500
30
147.00000
0
VERTEX
8
49_147000
10
-2.52800
20
-42.15500
30
147.00000
0
VERTEX
8
49_147000
10
-2.65300
20
-41.87700
30
147.00000
0
VERTEX
8
49_147000
10
-2.66900
20
-41.79500
30
147.00000
0
VERTEX
8
49_147000
10
-3.02500
20
-39.88600
30
147.00000
0
VERTEX
8
49_147000
10
-3.08900
20
-39.46900
30
147.00000
0
VERTEX
8
49_147000
10
-3.07300
20
-38.95600
30
147.00000
0
VERTEX
8
49_147000
10
-3.11200
20
-38.77500
30
147.00000
0
VERTEX
8
49_147000
10
-3.22300
20
-37.75700
30
147.00000
0
VERTEX
8
49_147000
10
-3.26300
20
-36.91100
30
147.00000
0
VERTEX
8
49_147000
10
-3.24700
20
-36.67300
30
147.00000
0
VERTEX
8
49_147000
10
-3.29000
20
-36.30400
30
147.00000
0
VERTEX
8
49_147000
10
-3.33500
20
-35.71600
30
147.00000
0
VERTEX
8
49_147000
10
-3.24600
20
-35.27700
30
147.00000
0
VERTEX
8
49_147000
10
-3.23200
20
-34.76500
30
147.00000
0
VERTEX
8
49_147000
10
-3.34000
20
-34.02800
30
147.00000
0
VERTEX
8
49_147000
10
-3.30600
20
-33.74100
30
147.00000
0
VERTEX
8
49_147000
10
-3.19600
20
-33.22100
30
147.00000
0
VERTEX
8
49_147000
10
-3.18000
20
-31.74500
30
147.00000
0
VERTEX
8
49_147000
10
-3.15400
20
-31.21300
30
147.00000
0
VERTEX
8
49_147000
10
-3.21300
20
-30.68800
30
147.00000
0
VERTEX
8
49_147000
10
-3.14000
20
-30.15100
30
147.00000
0
VERTEX
8
49_147000
10
-3.15000
20
-29.91500
30
147.00000
0
VERTEX
8
49_147000
10
-3.12100
20
-29.38500
30
147.00000
0
VERTEX
8
49_147000
10
-3.10600
20
-29.26700
30
147.00000
0
VERTEX
8
49_147000
10
-3.18000
20
-28.82900
30
147.00000
0
VERTEX
8
49_147000
10
-3.09900
20
-28.25700
30
147.00000
0
VERTEX
8
49_147000
10
-3.03900
20
-27.96400
30
147.00000
0
VERTEX
8
49_147000
10
-2.97900
20
-27.57200
30
147.00000
0
VERTEX
8
49_147000
10
-2.99100
20
-27.42000
30
147.00000
0
VERTEX
8
49_147000
10
-3.01000
20
-26.79100
30
147.00000
0
VERTEX
8
49_147000
10
-2.95000
20
-26.27800
30
147.00000
0
VERTEX
8
49_147000
10
-2.83500
20
-25.41800
30
147.00000
0
VERTEX
8
49_147000
10
-2.78200
20
-25.14000
30
147.00000
0
VERTEX
8
49_147000
10
-2.61200
20
-24.07500
30
147.00000
0
VERTEX
8
49_147000
10
-2.62900
20
-23.87400
30
147.00000
0
VERTEX
8
49_147000
10
-2.58600
20
-23.67400
30
147.00000
0
VERTEX
8
49_147000
10
-2.44200
20
-22.64200
30
147.00000
0
VERTEX
8
49_147000
10
-2.41500
20
-21.83000
30
147.00000
0
VERTEX
8
49_147000
10
-2.40800
20
-20.06600
30
147.00000
0
VERTEX
8
49_147000
10
-2.37000
20
-19.27000
30
147.00000
0
VERTEX
8
49_147000
10
-2.37700
20
-19.00400
30
147.00000
0
VERTEX
8
49_147000
10
-2.31400
20
-18.87900
30
147.00000
0
VERTEX
8
49_147000
10
-2.31700
20
-18.49500
30
147.00000
0
VERTEX
8
49_147000
10
-2.17400
20
-17.05100
30
147.00000
0
VERTEX
8
49_147000
10
-2.11500
20
-16.72800
30
147.00000
0
VERTEX
8
49_147000
10
-2.08300
20
-16.00900
30
147.00000
0
VERTEX
8
49_147000
10
-2.12700
20
-15.40900
30
147.00000
0
VERTEX
8
49_147000
10
-2.12200
20
-15.31900
30
147.00000
0
VERTEX
8
49_147000
10
-2.03200
20
-14.98400
30
147.00000
0
VERTEX
8
49_147000
10
-1.98300
20
-14.66800
30
147.00000
0
VERTEX
8
49_147000
10
-2.04900
20
-14.22200
30
147.00000
0
VERTEX
8
49_147000
10
-2.07100
20
-12.92500
30
147.00000
0
VERTEX
8
49_147000
10
-2.06700
20
-12.70700
30
147.00000
0
VERTEX
8
49_147000
10
-1.98700
20
-11.61000
30
147.00000
0
VERTEX
8
49_147000
10
-1.96800
20
-11.44600
30
147.00000
0
VERTEX
8
49_147000
10
-1.96900
20
-11.36500
30
147.00000
0
VERTEX
8
49_147000
10
-1.81800
20
-10.34800
30
147.00000
0
VERTEX
8
49_147000
10
-1.80100
20
-10.27400
30
147.00000
0
VERTEX
8
49_147000
10
-1.79900
20
-9.90100
30
147.00000
0
VERTEX
8
49_147000
10
-1.56900
20
-8.41000
30
147.00000
0
VERTEX
8
49_147000
10
-1.42600
20
-6.77900
30
147.00000
0
VERTEX
8
49_147000
10
-1.53800
20
-6.16500
30
147.00000
0
VERTEX
8
49_147000
10
-1.57000
20
-5.80100
30
147.00000
0
VERTEX
8
49_147000
10
-1.55000
20
-5.57800
30
147.00000
0
VERTEX
8
49_147000
10
-1.57100
20
-4.40600
30
147.00000
0
VERTEX
8
49_147000
10
-1.64500
20
-3.83300
30
147.00000
0
VERTEX
8
49_147000
10
-1.86500
20
-2.54700
30
147.00000
0
VERTEX
8
49_147000
10
-1.85900
20
-2.25900
30
147.00000
0
VERTEX
8
49_147000
10
-1.94700
20
-1.68100
30
147.00000
0
VERTEX
8
49_147000
10
-2.08000
20
-1.03400
30
147.00000
0
VERTEX
8
49_147000
10
-2.09000
20
-0.92800
30
147.00000
0
VERTEX
8
49_147000
10
-2.10800
20
-0.89000
30
147.00000
0
VERTEX
8
49_147000
10
-2.11900
20
-0.83100
30
147.00000
0
VERTEX
8
49_147000
10
-2.18000
20
-0.63500
30
147.00000
0
VERTEX
8
49_147000
10
-2.82300
20
1.90700
30
147.00000
0
VERTEX
8
49_147000
10
-2.94700
20
2.48200
30
147.00000
0
VERTEX
8
49_147000
10
-3.17100
20
3.19100
30
147.00000
0
VERTEX
8
49_147000
10
-3.19000
20
3.28600
30
147.00000
0
VERTEX
8
49_147000
10
-3.29300
20
4.18400
30
147.00000
0
VERTEX
8
49_147000
10
-3.44300
20
4.60000
30
147.00000
0
VERTEX
8
49_147000
10
-3.65800
20
5.52900
30
147.00000
0
VERTEX
8
49_147000
10
-3.73000
20
6.00600
30
147.00000
0
VERTEX
8
49_147000
10
-3.78500
20
6.13300
30
147.00000
0
VERTEX
8
49_147000
10
-4.07900
20
7.38900
30
147.00000
0
VERTEX
8
49_147000
10
-4.16600
20
7.89500
30
147.00000
0
VERTEX
8
49_147000
10
-4.27600
20
8.34000
30
147.00000
0
VERTEX
8
49_147000
10
-4.54600
20
9.27300
30
147.00000
0
VERTEX
8
49_147000
10
-4.77900
20
9.85000
30
147.00000
0
VERTEX
8
49_147000
10
-4.84300
20
10.22300
30
147.00000
0
VERTEX
8
49_147000
10
-5.30500
20
11.84500
30
147.00000
0
VERTEX
8
49_147000
10
-5.51200
20
12.38400
30
147.00000
0
VERTEX
8
49_147000
10
-5.52900
20
12.46300
30
147.00000
0
VERTEX
8
49_147000
10
-6.09700
20
13.38100
30
147.00000
0
VERTEX
8
49_147000
10
-6.12000
20
13.46900
30
147.00000
0
VERTEX
8
49_147000
10
-6.34100
20
13.93200
30
147.00000
0
VERTEX
8
49_147000
10
-7.74600
20
16.67800
30
147.00000
0
VERTEX
8
49_147000
10
-7.85100
20
16.89700
30
147.00000
0
VERTEX
8
49_147000
10
-8.43300
20
17.69300
30
147.00000
0
VERTEX
8
49_147000
10
-9.14100
20
18.70500
30
147.00000
0
VERTEX
8
49_147000
10
-9.72200
20
19.56800
30
147.00000
0
VERTEX
8
49_147000
10
-9.76600
20
19.64900
30
147.00000
0
VERTEX
8
49_147000
10
-9.88800
20
19.82400
30
147.00000
0
VERTEX
8
49_147000
10
-10.01900
20
20.05100
30
147.00000
0
VERTEX
8
49_147000
10
-10.09000
20
20.41500
30
147.00000
0
VERTEX
8
49_147000
10
-10.60100
20
21.01200
30
147.00000
0
VERTEX
8
49_147000
10
-12.19100
20
23.62000
30
147.00000
0
VERTEX
8
49_147000
10
-12.58700
20
24.22500
30
147.00000
0
VERTEX
8
49_147000
10
-12.72600
20
24.39200
30
147.00000
0
VERTEX
8
49_147000
10
-13.10300
20
25.26000
30
147.00000
0
VERTEX
8
49_147000
10
-13.45000
20
25.64600
30
147.00000
0
VERTEX
8
49_147000
10
-13.51100
20
25.76700
30
147.00000
0
VERTEX
8
49_147000
10
-13.74600
20
26.06500
30
147.00000
0
VERTEX
8
49_147000
10
-14.51500
20
27.50800
30
147.00000
0
VERTEX
8
49_147000
10
-15.23200
20
28.67000
30
147.00000
0
VERTEX
8
49_147000
10
-15.39200
20
28.94800
30
147.00000
0
VERTEX
8
49_147000
10
-15.67600
20
29.30600
30
147.00000
0
VERTEX
8
49_147000
10
-15.86200
20
29.58800
30
147.00000
0
VERTEX
8
49_147000
10
-15.88400
20
29.66200
30
147.00000
0
VERTEX
8
49_147000
10
-16.01900
20
29.86900
30
147.00000
0
VERTEX
8
49_147000
10
-16.24300
20
30.41200
30
147.00000
0
VERTEX
8
49_147000
10
-16.49800
20
30.86300
30
147.00000
0
VERTEX
8
49_147000
10
-17.20900
20
32.42100
30
147.00000
0
VERTEX
8
49_147000
10
-18.14800
20
34.37600
30
147.00000
0
VERTEX
8
49_147000
10
-20.30100
20
39.11000
30
147.00000
0
VERTEX
8
49_147000
10
-21.03800
20
40.78700
30
147.00000
0
VERTEX
8
49_147000
10
-21.81000
20
42.85100
30
147.00000
0
VERTEX
8
49_147000
10
-22.36200
20
44.42600
30
147.00000
0
VERTEX
8
49_147000
10
-22.82500
20
45.49900
30
147.00000
0
VERTEX
8
49_147000
10
-22.94600
20
45.79800
30
147.00000
0
VERTEX
8
49_147000
10
-23.78300
20
48.09300
30
147.00000
0
VERTEX
8
49_147000
10
-24.01600
20
48.78600
30
147.00000
0
VERTEX
8
49_147000
10
-24.24600
20
49.78200
30
147.00000
0
VERTEX
8
49_147000
10
-24.27600
20
50.15900
30
147.00000
0
VERTEX
8
49_147000
10
-24.46700
20
52.16000
30
147.00000
0
VERTEX
8
49_147000
10
-24.42800
20
52.50200
30
147.00000
0
VERTEX
8
49_147000
10
-24.43300
20
52.89200
30
147.00000
0
VERTEX
8
49_147000
10
-24.22300
20
53.88700
30
147.00000
0
VERTEX
8
49_147000
10
-24.19800
20
54.24800
30
147.00000
0
VERTEX
8
49_147000
10
-24.15700
20
54.49100
30
147.00000
0
VERTEX
8
49_147000
10
-24.04300
20
54.79700
30
147.00000
0
VERTEX
8
49_147000
10
-23.85300
20
56.00100
30
147.00000
0
VERTEX
8
49_147000
10
-23.82100
20
56.33000
30
147.00000
0
VERTEX
8
49_147000
10
-23.90600
20
57.45800
30
147.00000
0
VERTEX
8
49_147000
10
-23.95400
20
57.65800
30
147.00000
0
VERTEX
8
49_147000
10
-24.22600
20
59.92500
30
147.00000
0
VERTEX
8
49_147000
10
-24.21600
20
60.33300
30
147.00000
0
VERTEX
8
49_147000
10
-24.12600
20
61.00100
30
147.00000
0
VERTEX
8
49_147000
10
-23.99300
20
61.25400
30
147.00000
0
VERTEX
8
49_147000
10
-23.66700
20
61.85900
30
147.00000
0
VERTEX
8
49_147000
10
-22.34100
20
63.28600
30
147.00000
0
VERTEX
8
49_147000
10
-21.97400
20
63.63900
30
147.00000
0
VERTEX
8
49_147000
10
-21.28800
20
64.10500
30
147.00000
0
VERTEX
8
49_147000
10
-20.04500
20
64.99001
30
147.00000
0
VERTEX
8
49_147000
10
-18.55600
20
66.34600
30
147.00000
0
VERTEX
8
49_147000
10
-18.30400
20
66.71201
30
147.00000
0
VERTEX
8
49_147000
10
-17.49300
20
67.50201
30
147.00000
0
VERTEX
8
49_147000
10
-16.92700
20
68.14101
30
147.00000
0
VERTEX
8
49_147000
10
-16.23300
20
68.78900
30
147.00000
0
VERTEX
8
49_147000
10
-14.45600
20
70.59000
30
147.00000
0
VERTEX
8
49_147000
10
-13.90800
20
71.19500
30
147.00000
0
VERTEX
8
49_147000
10
-13.69300
20
71.46201
30
147.00000
0
VERTEX
8
49_147000
10
-12.45900
20
72.69601
30
147.00000
0
VERTEX
8
49_147000
10
-11.25500
20
74.14600
30
147.00000
0
VERTEX
8
49_147000
10
-10.83100
20
74.62000
30
147.00000
0
VERTEX
8
49_147000
10
-8.85300
20
77.05000
30
147.00000
0
VERTEX
8
49_147000
10
-7.90300
20
78.25201
30
147.00000
0
VERTEX
8
49_147000
10
-7.40900
20
79.09400
30
147.00000
0
VERTEX
8
49_147000
10
-7.03800
20
79.65701
30
147.00000
0
VERTEX
8
49_147000
10
-6.56500
20
80.44100
30
147.00000
0
VERTEX
8
49_147000
10
-6.24900
20
81.00700
30
147.00000
0
VERTEX
8
49_147000
10
-5.27400
20
82.81001
30
147.00000
0
VERTEX
8
49_147000
10
-4.29800
20
84.72701
30
147.00000
0
VERTEX
8
49_147000
10
-3.91000
20
85.61700
30
147.00000
0
VERTEX
8
49_147000
10
-3.42600
20
86.53900
30
147.00000
0
VERTEX
8
49_147000
10
-3.40300
20
86.62100
30
147.00000
0
VERTEX
8
49_147000
10
-3.13100
20
87.16300
30
147.00000
0
VERTEX
8
49_147000
10
-2.70100
20
88.27901
30
147.00000
0
VERTEX
8
49_147000
10
-2.62900
20
88.42900
30
147.00000
0
VERTEX
8
49_147000
10
-2.53400
20
88.79501
30
147.00000
0
VERTEX
8
49_147000
10
-2.42000
20
89.12901
30
147.00000
0
VERTEX
8
49_147000
10
-2.32800
20
89.30200
30
147.00000
0
VERTEX
8
49_147000
10
-2.02800
20
90.35700
30
147.00000
0
VERTEX
8
49_147000
10
-1.85100
20
91.08601
30
147.00000
0
VERTEX
8
49_147000
10
-1.69000
20
91.67900
30
147.00000
0
VERTEX
8
49_147000
10
-1.56500
20
92.07301
30
147.00000
0
VERTEX
8
49_147000
10
-1.81300
20
92.11501
30
147.00000
0
VERTEX
8
49_147000
10
-56.17000
20
92.11501
30
147.00000
0
VERTEX
8
49_147000
10
-56.17000
20
92.07301
30
147.00000
0
SEQEND
8
49_147000
0
ENDSEC
0
EOF
