0
SECTION
2
HEADER
9
$ACADVER
1
AC1009
0
ENDSEC
0
SECTION
2
TABLES
0
TABLE
2
LAYER
70
1
0
LAYER
2
32_96000
70
0
62
7
6
CONTINUOUS
0
ENDTAB
0
ENDSEC
0
SECTION
2
BLOCKS
0
ENDSEC
0
SECTION
2
ENTITIES
0
POLYLINE
8
32_96000
62
5
0
VERTEX
8
32_96000
10
-56.17000
20
91.74900
30
96.00000
0
VERTEX
8
32_96000
10
0.40000
20
91.74500
30
96.00000
0
VERTEX
8
32_96000
10
0.01300
20
91.81100
30
96.00000
0
VERTEX
8
32_96000
10
-56.17000
20
91.81100
30
96.00000
0
VERTEX
8
32_96000
10
-56.17000
20
91.74900
30
96.00000
0
SEQEND
8
32_96000
0
POLYLINE
8
32_96000
62
5
0
VERTEX
8
32_96000
10
-47.74300
20
91.70901
30
96.00000
0
VERTEX
8
32_96000
10
0.61600
20
91.70901
30
96.00000
0
VERTEX
8
32_96000
10
0.42700
20
91.74100
30
96.00000
0
VERTEX
8
32_96000
10
-56.17000
20
91.74100
30
96.00000
0
VERTEX
8
32_96000
10
-56.17000
20
91.70901
30
96.00000
0
VERTEX
8
32_96000
10
-47.74300
20
91.70901
30
96.00000
0
SEQEND
8
32_96000
0
POLYLINE
8
32_96000
62
5
0
VERTEX
8
32_96000
10
-56.17000
20
91.70100
30
96.00000
0
VERTEX
8
32_96000
10
-56.17000
20
91.65701
30
96.00000
0
VERTEX
8
32_96000
10
0.93000
20
91.65701
30
96.00000
0
VERTEX
8
32_96000
10
0.62200
20
91.71001
30
96.00000
0
VERTEX
8
32_96000
10
-56.17000
20
91.71001
30
96.00000
0
VERTEX
8
32_96000
10
-56.17000
20
91.70100
30
96.00000
0
SEQEND
8
32_96000
0
POLYLINE
8
32_96000
62
5
0
VERTEX
8
32_96000
10
-56.17000
20
91.49600
30
96.00000
0
VERTEX
8
32_96000
10
-56.17000
20
91.40201
30
96.00000
0
VERTEX
8
32_96000
10
2.45700
20
91.40201
30
96.00000
0
VERTEX
8
32_96000
10
0.95300
20
91.65301
30
96.00000
0
VERTEX
8
32_96000
10
-56.17000
20
91.65301
30
96.00000
0
VERTEX
8
32_96000
10
-56.17000
20
91.49600
30
96.00000
0
SEQEND
8
32_96000
0
POLYLINE
8
32_96000
62
5
0
VERTEX
8
32_96000
10
-56.17000
20
76.88000
30
96.00000
0
VERTEX
8
32_96000
10
-56.17000
20
-92.11401
30
96.00000
0
VERTEX
8
32_96000
10
30.83600
20
-92.11401
30
96.00000
0
VERTEX
8
32_96000
10
30.78000
20
-91.83000
30
96.00000
0
VERTEX
8
32_96000
10
30.66900
20
-91.08301
30
96.00000
0
VERTEX
8
32_96000
10
30.55900
20
-90.45901
30
96.00000
0
VERTEX
8
32_96000
10
30.53300
20
-90.03500
30
96.00000
0
VERTEX
8
32_96000
10
30.39900
20
-88.67500
30
96.00000
0
VERTEX
8
32_96000
10
30.36700
20
-87.79900
30
96.00000
0
VERTEX
8
32_96000
10
30.36800
20
-87.52700
30
96.00000
0
VERTEX
8
32_96000
10
30.34800
20
-87.34801
30
96.00000
0
VERTEX
8
32_96000
10
30.36100
20
-87.27200
30
96.00000
0
VERTEX
8
32_96000
10
30.45600
20
-86.89700
30
96.00000
0
VERTEX
8
32_96000
10
30.52700
20
-86.52700
30
96.00000
0
VERTEX
8
32_96000
10
30.72600
20
-86.20700
30
96.00000
0
VERTEX
8
32_96000
10
30.82200
20
-86.08900
30
96.00000
0
VERTEX
8
32_96000
10
31.67500
20
-84.57001
30
96.00000
0
VERTEX
8
32_96000
10
31.71500
20
-84.48200
30
96.00000
0
VERTEX
8
32_96000
10
31.78900
20
-84.13400
30
96.00000
0
VERTEX
8
32_96000
10
31.78500
20
-84.11401
30
96.00000
0
VERTEX
8
32_96000
10
31.83600
20
-83.80300
30
96.00000
0
VERTEX
8
32_96000
10
32.03400
20
-82.32001
30
96.00000
0
VERTEX
8
32_96000
10
32.16500
20
-81.71700
30
96.00000
0
VERTEX
8
32_96000
10
32.17200
20
-81.62801
30
96.00000
0
VERTEX
8
32_96000
10
32.19700
20
-81.49001
30
96.00000
0
VERTEX
8
32_96000
10
32.20700
20
-80.94601
30
96.00000
0
VERTEX
8
32_96000
10
32.41200
20
-80.06001
30
96.00000
0
VERTEX
8
32_96000
10
32.70700
20
-79.50800
30
96.00000
0
VERTEX
8
32_96000
10
32.70800
20
-79.21900
30
96.00000
0
VERTEX
8
32_96000
10
32.73100
20
-78.70200
30
96.00000
0
VERTEX
8
32_96000
10
32.74300
20
-78.65401
30
96.00000
0
VERTEX
8
32_96000
10
32.72300
20
-78.61201
30
96.00000
0
VERTEX
8
32_96000
10
32.74600
20
-77.99700
30
96.00000
0
VERTEX
8
32_96000
10
32.75600
20
-77.88800
30
96.00000
0
VERTEX
8
32_96000
10
33.11000
20
-76.79100
30
96.00000
0
VERTEX
8
32_96000
10
33.11300
20
-76.73000
30
96.00000
0
VERTEX
8
32_96000
10
33.05800
20
-76.64101
30
96.00000
0
VERTEX
8
32_96000
10
32.97200
20
-76.39201
30
96.00000
0
VERTEX
8
32_96000
10
32.93300
20
-76.07201
30
96.00000
0
VERTEX
8
32_96000
10
32.94400
20
-75.98701
30
96.00000
0
VERTEX
8
32_96000
10
33.14300
20
-75.41200
30
96.00000
0
VERTEX
8
32_96000
10
33.26300
20
-75.18900
30
96.00000
0
VERTEX
8
32_96000
10
33.30600
20
-74.80000
30
96.00000
0
VERTEX
8
32_96000
10
33.37000
20
-74.58501
30
96.00000
0
VERTEX
8
32_96000
10
33.60900
20
-73.99800
30
96.00000
0
VERTEX
8
32_96000
10
33.65800
20
-73.67500
30
96.00000
0
VERTEX
8
32_96000
10
33.85300
20
-73.17101
30
96.00000
0
VERTEX
8
32_96000
10
34.04400
20
-72.78201
30
96.00000
0
VERTEX
8
32_96000
10
34.12800
20
-72.56300
30
96.00000
0
VERTEX
8
32_96000
10
34.14100
20
-72.41500
30
96.00000
0
VERTEX
8
32_96000
10
34.05300
20
-71.99300
30
96.00000
0
VERTEX
8
32_96000
10
33.99800
20
-71.79900
30
96.00000
0
VERTEX
8
32_96000
10
33.96200
20
-71.46700
30
96.00000
0
VERTEX
8
32_96000
10
33.94800
20
-71.18600
30
96.00000
0
VERTEX
8
32_96000
10
34.00600
20
-71.00800
30
96.00000
0
VERTEX
8
32_96000
10
33.90100
20
-70.46400
30
96.00000
0
VERTEX
8
32_96000
10
33.89600
20
-70.14500
30
96.00000
0
VERTEX
8
32_96000
10
33.86300
20
-69.93800
30
96.00000
0
VERTEX
8
32_96000
10
33.81800
20
-69.09100
30
96.00000
0
VERTEX
8
32_96000
10
33.75000
20
-68.66300
30
96.00000
0
VERTEX
8
32_96000
10
33.71300
20
-68.25800
30
96.00000
0
VERTEX
8
32_96000
10
33.71900
20
-67.93600
30
96.00000
0
VERTEX
8
32_96000
10
33.74000
20
-67.62500
30
96.00000
0
VERTEX
8
32_96000
10
33.70900
20
-67.58801
30
96.00000
0
VERTEX
8
32_96000
10
33.73200
20
-67.45600
30
96.00000
0
VERTEX
8
32_96000
10
33.69400
20
-67.23901
30
96.00000
0
VERTEX
8
32_96000
10
33.70800
20
-66.76900
30
96.00000
0
VERTEX
8
32_96000
10
33.54000
20
-66.25301
30
96.00000
0
VERTEX
8
32_96000
10
33.53300
20
-66.02000
30
96.00000
0
VERTEX
8
32_96000
10
33.49300
20
-65.87200
30
96.00000
0
VERTEX
8
32_96000
10
33.41900
20
-65.34100
30
96.00000
0
VERTEX
8
32_96000
10
33.40200
20
-65.07401
30
96.00000
0
VERTEX
8
32_96000
10
33.32100
20
-64.84800
30
96.00000
0
VERTEX
8
32_96000
10
33.34500
20
-64.72200
30
96.00000
0
VERTEX
8
32_96000
10
33.33300
20
-63.27500
30
96.00000
0
VERTEX
8
32_96000
10
33.32200
20
-63.13400
30
96.00000
0
VERTEX
8
32_96000
10
33.19900
20
-62.87900
30
96.00000
0
VERTEX
8
32_96000
10
32.96600
20
-62.44900
30
96.00000
0
VERTEX
8
32_96000
10
32.85000
20
-62.21400
30
96.00000
0
VERTEX
8
32_96000
10
32.80800
20
-62.09500
30
96.00000
0
VERTEX
8
32_96000
10
32.59800
20
-61.41900
30
96.00000
0
VERTEX
8
32_96000
10
32.57300
20
-61.11700
30
96.00000
0
VERTEX
8
32_96000
10
32.33900
20
-60.25200
30
96.00000
0
VERTEX
8
32_96000
10
32.22700
20
-59.26400
30
96.00000
0
VERTEX
8
32_96000
10
32.13900
20
-58.71200
30
96.00000
0
VERTEX
8
32_96000
10
32.04200
20
-57.63200
30
96.00000
0
VERTEX
8
32_96000
10
31.91200
20
-56.63300
30
96.00000
0
VERTEX
8
32_96000
10
31.82300
20
-56.31100
30
96.00000
0
VERTEX
8
32_96000
10
31.79600
20
-55.76500
30
96.00000
0
VERTEX
8
32_96000
10
31.73600
20
-55.10000
30
96.00000
0
VERTEX
8
32_96000
10
31.49800
20
-53.55100
30
96.00000
0
VERTEX
8
32_96000
10
31.51000
20
-52.71000
30
96.00000
0
VERTEX
8
32_96000
10
31.49800
20
-52.25200
30
96.00000
0
VERTEX
8
32_96000
10
31.62900
20
-51.38000
30
96.00000
0
VERTEX
8
32_96000
10
31.79700
20
-49.95400
30
96.00000
0
VERTEX
8
32_96000
10
31.98500
20
-49.10500
30
96.00000
0
VERTEX
8
32_96000
10
32.08500
20
-48.71800
30
96.00000
0
VERTEX
8
32_96000
10
32.34400
20
-47.84100
30
96.00000
0
VERTEX
8
32_96000
10
32.49500
20
-47.22000
30
96.00000
0
VERTEX
8
32_96000
10
32.58300
20
-46.96300
30
96.00000
0
VERTEX
8
32_96000
10
33.46500
20
-44.63300
30
96.00000
0
VERTEX
8
32_96000
10
33.90600
20
-43.37800
30
96.00000
0
VERTEX
8
32_96000
10
33.98800
20
-42.90600
30
96.00000
0
VERTEX
8
32_96000
10
34.12700
20
-42.29200
30
96.00000
0
VERTEX
8
32_96000
10
34.42400
20
-40.16000
30
96.00000
0
VERTEX
8
32_96000
10
34.46900
20
-39.69000
30
96.00000
0
VERTEX
8
32_96000
10
34.47800
20
-38.13000
30
96.00000
0
VERTEX
8
32_96000
10
34.49100
20
-38.05300
30
96.00000
0
VERTEX
8
32_96000
10
34.43300
20
-37.00900
30
96.00000
0
VERTEX
8
32_96000
10
34.43700
20
-36.38400
30
96.00000
0
VERTEX
8
32_96000
10
34.42600
20
-36.30900
30
96.00000
0
VERTEX
8
32_96000
10
34.36000
20
-32.26600
30
96.00000
0
VERTEX
8
32_96000
10
34.33500
20
-32.01700
30
96.00000
0
VERTEX
8
32_96000
10
34.00700
20
-30.56600
30
96.00000
0
VERTEX
8
32_96000
10
33.78000
20
-29.68900
30
96.00000
0
VERTEX
8
32_96000
10
33.22400
20
-28.00200
30
96.00000
0
VERTEX
8
32_96000
10
32.63300
20
-26.46300
30
96.00000
0
VERTEX
8
32_96000
10
32.41100
20
-25.95300
30
96.00000
0
VERTEX
8
32_96000
10
31.80800
20
-24.78600
30
96.00000
0
VERTEX
8
32_96000
10
30.85700
20
-22.99600
30
96.00000
0
VERTEX
8
32_96000
10
30.61600
20
-22.19800
30
96.00000
0
VERTEX
8
32_96000
10
30.60500
20
-21.84100
30
96.00000
0
VERTEX
8
32_96000
10
31.49100
20
-20.74000
30
96.00000
0
VERTEX
8
32_96000
10
32.40900
20
-19.62600
30
96.00000
0
VERTEX
8
32_96000
10
33.44500
20
-18.15800
30
96.00000
0
VERTEX
8
32_96000
10
33.80400
20
-17.46600
30
96.00000
0
VERTEX
8
32_96000
10
34.32700
20
-16.36200
30
96.00000
0
VERTEX
8
32_96000
10
34.38100
20
-16.15300
30
96.00000
0
VERTEX
8
32_96000
10
34.65700
20
-15.24600
30
96.00000
0
VERTEX
8
32_96000
10
34.67900
20
-15.14400
30
96.00000
0
VERTEX
8
32_96000
10
34.71400
20
-15.05600
30
96.00000
0
VERTEX
8
32_96000
10
35.10000
20
-13.72100
30
96.00000
0
VERTEX
8
32_96000
10
35.16800
20
-13.39200
30
96.00000
0
VERTEX
8
32_96000
10
35.15400
20
-13.17800
30
96.00000
0
VERTEX
8
32_96000
10
35.16100
20
-12.21600
30
96.00000
0
VERTEX
8
32_96000
10
34.93500
20
-10.85900
30
96.00000
0
VERTEX
8
32_96000
10
34.53200
20
-9.47900
30
96.00000
0
VERTEX
8
32_96000
10
34.50000
20
-9.34400
30
96.00000
0
VERTEX
8
32_96000
10
34.43000
20
-9.21100
30
96.00000
0
VERTEX
8
32_96000
10
34.34400
20
-8.94000
30
96.00000
0
VERTEX
8
32_96000
10
34.23800
20
-8.40000
30
96.00000
0
VERTEX
8
32_96000
10
34.19400
20
-8.11300
30
96.00000
0
VERTEX
8
32_96000
10
34.14500
20
-7.96400
30
96.00000
0
VERTEX
8
32_96000
10
33.94400
20
-6.97800
30
96.00000
0
VERTEX
8
32_96000
10
33.84400
20
-6.75900
30
96.00000
0
VERTEX
8
32_96000
10
33.18700
20
-5.21400
30
96.00000
0
VERTEX
8
32_96000
10
32.92900
20
-4.38000
30
96.00000
0
VERTEX
8
32_96000
10
32.66800
20
-3.75400
30
96.00000
0
VERTEX
8
32_96000
10
32.05200
20
-1.78800
30
96.00000
0
VERTEX
8
32_96000
10
32.01100
20
-1.62600
30
96.00000
0
VERTEX
8
32_96000
10
31.89600
20
-1.04600
30
96.00000
0
VERTEX
8
32_96000
10
31.74300
20
-0.48200
30
96.00000
0
VERTEX
8
32_96000
10
31.50000
20
0.87200
30
96.00000
0
VERTEX
8
32_96000
10
31.27600
20
2.27300
30
96.00000
0
VERTEX
8
32_96000
10
31.20400
20
2.80500
30
96.00000
0
VERTEX
8
32_96000
10
31.15200
20
3.33400
30
96.00000
0
VERTEX
8
32_96000
10
31.09300
20
4.39700
30
96.00000
0
VERTEX
8
32_96000
10
31.11900
20
5.25800
30
96.00000
0
VERTEX
8
32_96000
10
31.14200
20
5.71900
30
96.00000
0
VERTEX
8
32_96000
10
31.28700
20
6.68000
30
96.00000
0
VERTEX
8
32_96000
10
31.41000
20
7.34800
30
96.00000
0
VERTEX
8
32_96000
10
31.69800
20
8.57700
30
96.00000
0
VERTEX
8
32_96000
10
31.80800
20
9.18900
30
96.00000
0
VERTEX
8
32_96000
10
32.01300
20
10.64300
30
96.00000
0
VERTEX
8
32_96000
10
32.13200
20
11.19500
30
96.00000
0
VERTEX
8
32_96000
10
32.17000
20
11.64500
30
96.00000
0
VERTEX
8
32_96000
10
32.19000
20
12.12400
30
96.00000
0
VERTEX
8
32_96000
10
32.36400
20
13.37400
30
96.00000
0
VERTEX
8
32_96000
10
32.41100
20
14.35000
30
96.00000
0
VERTEX
8
32_96000
10
32.43000
20
14.56400
30
96.00000
0
VERTEX
8
32_96000
10
32.51100
20
16.26100
30
96.00000
0
VERTEX
8
32_96000
10
32.61600
20
17.80700
30
96.00000
0
VERTEX
8
32_96000
10
32.60400
20
18.66600
30
96.00000
0
VERTEX
8
32_96000
10
32.64700
20
19.23100
30
96.00000
0
VERTEX
8
32_96000
10
32.60800
20
19.98200
30
96.00000
0
VERTEX
8
32_96000
10
32.62300
20
20.47500
30
96.00000
0
VERTEX
8
32_96000
10
32.57100
20
21.21600
30
96.00000
0
VERTEX
8
32_96000
10
32.34900
20
23.15600
30
96.00000
0
VERTEX
8
32_96000
10
32.21700
20
23.99200
30
96.00000
0
VERTEX
8
32_96000
10
31.72100
20
25.96700
30
96.00000
0
VERTEX
8
32_96000
10
31.24000
20
27.94500
30
96.00000
0
VERTEX
8
32_96000
10
31.13500
20
28.31500
30
96.00000
0
VERTEX
8
32_96000
10
30.87700
20
29.13300
30
96.00000
0
VERTEX
8
32_96000
10
30.39800
20
30.86100
30
96.00000
0
VERTEX
8
32_96000
10
29.15900
20
34.51200
30
96.00000
0
VERTEX
8
32_96000
10
28.87300
20
35.66700
30
96.00000
0
VERTEX
8
32_96000
10
28.78100
20
35.98200
30
96.00000
0
VERTEX
8
32_96000
10
28.70800
20
36.55400
30
96.00000
0
VERTEX
8
32_96000
10
28.58200
20
37.41200
30
96.00000
0
VERTEX
8
32_96000
10
28.56800
20
37.59700
30
96.00000
0
VERTEX
8
32_96000
10
28.58600
20
38.18200
30
96.00000
0
VERTEX
8
32_96000
10
28.71100
20
39.62000
30
96.00000
0
VERTEX
8
32_96000
10
28.69300
20
40.84800
30
96.00000
0
VERTEX
8
32_96000
10
28.73300
20
42.11100
30
96.00000
0
VERTEX
8
32_96000
10
28.72300
20
42.59400
30
96.00000
0
VERTEX
8
32_96000
10
28.78000
20
43.73300
30
96.00000
0
VERTEX
8
32_96000
10
28.95200
20
44.42600
30
96.00000
0
VERTEX
8
32_96000
10
29.08700
20
45.38900
30
96.00000
0
VERTEX
8
32_96000
10
29.12000
20
45.55700
30
96.00000
0
VERTEX
8
32_96000
10
29.17100
20
45.94300
30
96.00000
0
VERTEX
8
32_96000
10
29.27200
20
46.57000
30
96.00000
0
VERTEX
8
32_96000
10
29.29000
20
47.38700
30
96.00000
0
VERTEX
8
32_96000
10
29.32300
20
48.13300
30
96.00000
0
VERTEX
8
32_96000
10
29.24800
20
48.77600
30
96.00000
0
VERTEX
8
32_96000
10
29.22300
20
49.90800
30
96.00000
0
VERTEX
8
32_96000
10
29.10900
20
50.46900
30
96.00000
0
VERTEX
8
32_96000
10
28.97400
20
51.06600
30
96.00000
0
VERTEX
8
32_96000
10
28.93900
20
51.40000
30
96.00000
0
VERTEX
8
32_96000
10
28.83100
20
51.84500
30
96.00000
0
VERTEX
8
32_96000
10
28.50100
20
52.92700
30
96.00000
0
VERTEX
8
32_96000
10
28.52000
20
53.05200
30
96.00000
0
VERTEX
8
32_96000
10
28.57500
20
53.25600
30
96.00000
0
VERTEX
8
32_96000
10
28.81400
20
54.62400
30
96.00000
0
VERTEX
8
32_96000
10
29.10900
20
55.44200
30
96.00000
0
VERTEX
8
32_96000
10
29.17600
20
55.58200
30
96.00000
0
VERTEX
8
32_96000
10
29.34100
20
55.81700
30
96.00000
0
VERTEX
8
32_96000
10
30.17500
20
56.80800
30
96.00000
0
VERTEX
8
32_96000
10
30.23200
20
56.86100
30
96.00000
0
VERTEX
8
32_96000
10
30.66000
20
57.58900
30
96.00000
0
VERTEX
8
32_96000
10
31.00200
20
58.15000
30
96.00000
0
VERTEX
8
32_96000
10
31.66400
20
60.01100
30
96.00000
0
VERTEX
8
32_96000
10
32.42800
20
60.97700
30
96.00000
0
VERTEX
8
32_96000
10
32.94100
20
61.89400
30
96.00000
0
VERTEX
8
32_96000
10
33.48400
20
63.05700
30
96.00000
0
VERTEX
8
32_96000
10
33.58900
20
63.34300
30
96.00000
0
VERTEX
8
32_96000
10
33.63000
20
63.48900
30
96.00000
0
VERTEX
8
32_96000
10
33.73300
20
63.77700
30
96.00000
0
VERTEX
8
32_96000
10
34.08800
20
64.62901
30
96.00000
0
VERTEX
8
32_96000
10
34.40800
20
65.20300
30
96.00000
0
VERTEX
8
32_96000
10
34.58900
20
65.59700
30
96.00000
0
VERTEX
8
32_96000
10
35.07000
20
66.39900
30
96.00000
0
VERTEX
8
32_96000
10
35.29800
20
66.87300
30
96.00000
0
VERTEX
8
32_96000
10
35.94600
20
68.00800
30
96.00000
0
VERTEX
8
32_96000
10
36.32900
20
68.62100
30
96.00000
0
VERTEX
8
32_96000
10
36.69900
20
69.31500
30
96.00000
0
VERTEX
8
32_96000
10
37.55200
20
71.34400
30
96.00000
0
VERTEX
8
32_96000
10
37.75500
20
71.90900
30
96.00000
0
VERTEX
8
32_96000
10
37.92900
20
72.57401
30
96.00000
0
VERTEX
8
32_96000
10
38.31300
20
73.95300
30
96.00000
0
VERTEX
8
32_96000
10
38.38400
20
74.28300
30
96.00000
0
VERTEX
8
32_96000
10
38.44400
20
74.96600
30
96.00000
0
VERTEX
8
32_96000
10
38.20000
20
77.66200
30
96.00000
0
VERTEX
8
32_96000
10
38.19300
20
77.82500
30
96.00000
0
VERTEX
8
32_96000
10
37.84600
20
80.13800
30
96.00000
0
VERTEX
8
32_96000
10
37.76000
20
80.82700
30
96.00000
0
VERTEX
8
32_96000
10
37.60700
20
81.50401
30
96.00000
0
VERTEX
8
32_96000
10
36.83300
20
84.45901
30
96.00000
0
VERTEX
8
32_96000
10
36.35700
20
85.74500
30
96.00000
0
VERTEX
8
32_96000
10
19.38600
20
88.57800
30
96.00000
0
VERTEX
8
32_96000
10
-56.17000
20
88.57800
30
96.00000
0
VERTEX
8
32_96000
10
-56.17000
20
76.88000
30
96.00000
0
SEQEND
8
32_96000
0
POLYLINE
8
32_96000
62
5
0
VERTEX
8
32_96000
10
-56.17000
20
90.69100
30
96.00000
0
VERTEX
8
32_96000
10
-56.17000
20
90.11101
30
96.00000
0
VERTEX
8
32_96000
10
10.20000
20
90.11101
30
96.00000
0
VERTEX
8
32_96000
10
2.48000
20
91.39800
30
96.00000
0
VERTEX
8
32_96000
10
-56.17000
20
91.39800
30
96.00000
0
VERTEX
8
32_96000
10
-56.17000
20
90.69100
30
96.00000
0
SEQEND
8
32_96000
0
POLYLINE
8
32_96000
62
5
0
VERTEX
8
32_96000
10
15.75800
20
89.18201
30
96.00000
0
VERTEX
8
32_96000
10
10.24100
20
90.10300
30
96.00000
0
VERTEX
8
32_96000
10
-56.17000
20
90.10300
30
96.00000
0
VERTEX
8
32_96000
10
-56.17000
20
88.57900
30
96.00000
0
VERTEX
8
32_96000
10
19.37300
20
88.57900
30
96.00000
0
VERTEX
8
32_96000
10
15.75800
20
89.18201
30
96.00000
0
SEQEND
8
32_96000
0
ENDSEC
0
EOF
