0
SECTION
2
HEADER
9
$ACADVER
1
AC1009
0
ENDSEC
0
SECTION
2
TABLES
0
TABLE
2
LAYER
70
1
0
LAYER
2
26_78000
70
0
62
7
6
CONTINUOUS
0
ENDTAB
0
ENDSEC
0
SECTION
2
BLOCKS
0
ENDSEC
0
SECTION
2
ENTITIES
0
POLYLINE
8
26_78000
62
5
0
VERTEX
8
26_78000
10
-56.17000
20
91.65800
30
78.00000
0
VERTEX
8
26_78000
10
-56.17000
20
91.64900
30
78.00000
0
VERTEX
8
26_78000
10
0.96900
20
91.64900
30
78.00000
0
VERTEX
8
26_78000
10
0.65800
20
91.70300
30
78.00000
0
VERTEX
8
26_78000
10
-56.17000
20
91.70300
30
78.00000
0
VERTEX
8
26_78000
10
-56.17000
20
91.65800
30
78.00000
0
SEQEND
8
26_78000
0
POLYLINE
8
26_78000
62
5
0
VERTEX
8
26_78000
10
-55.32400
20
91.62200
30
78.00000
0
VERTEX
8
26_78000
10
1.14300
20
91.62200
30
78.00000
0
VERTEX
8
26_78000
10
0.99100
20
91.64700
30
78.00000
0
VERTEX
8
26_78000
10
-56.17000
20
91.64700
30
78.00000
0
VERTEX
8
26_78000
10
-56.17000
20
91.62200
30
78.00000
0
VERTEX
8
26_78000
10
-55.32400
20
91.62200
30
78.00000
0
SEQEND
8
26_78000
0
POLYLINE
8
26_78000
62
5
0
VERTEX
8
26_78000
10
-56.17000
20
91.62100
30
78.00000
0
VERTEX
8
26_78000
10
-56.17000
20
91.57800
30
78.00000
0
VERTEX
8
26_78000
10
1.39800
20
91.57800
30
78.00000
0
VERTEX
8
26_78000
10
1.14800
20
91.62200
30
78.00000
0
VERTEX
8
26_78000
10
-56.17000
20
91.62100
30
78.00000
0
SEQEND
8
26_78000
0
POLYLINE
8
26_78000
62
5
0
VERTEX
8
26_78000
10
-56.17000
20
91.45000
30
78.00000
0
VERTEX
8
26_78000
10
-56.17000
20
91.37501
30
78.00000
0
VERTEX
8
26_78000
10
2.62900
20
91.37501
30
78.00000
0
VERTEX
8
26_78000
10
1.41500
20
91.57600
30
78.00000
0
VERTEX
8
26_78000
10
-56.17000
20
91.57600
30
78.00000
0
VERTEX
8
26_78000
10
-56.17000
20
91.45000
30
78.00000
0
SEQEND
8
26_78000
0
POLYLINE
8
26_78000
62
5
0
VERTEX
8
26_78000
10
-56.17000
20
91.05200
30
78.00000
0
VERTEX
8
26_78000
10
-56.17000
20
90.33200
30
78.00000
0
VERTEX
8
26_78000
10
8.87600
20
90.33200
30
78.00000
0
VERTEX
8
26_78000
10
2.64600
20
91.37100
30
78.00000
0
VERTEX
8
26_78000
10
-56.17000
20
91.37100
30
78.00000
0
VERTEX
8
26_78000
10
-56.17000
20
91.05200
30
78.00000
0
SEQEND
8
26_78000
0
POLYLINE
8
26_78000
62
5
0
VERTEX
8
26_78000
10
-56.17000
20
-9.77700
30
78.00000
0
VERTEX
8
26_78000
10
-56.17000
20
-92.11401
30
78.00000
0
VERTEX
8
26_78000
10
29.72700
20
-92.11401
30
78.00000
0
VERTEX
8
26_78000
10
29.71500
20
-91.74200
30
78.00000
0
VERTEX
8
26_78000
10
29.73200
20
-91.28900
30
78.00000
0
VERTEX
8
26_78000
10
29.91000
20
-89.95700
30
78.00000
0
VERTEX
8
26_78000
10
29.94400
20
-89.84200
30
78.00000
0
VERTEX
8
26_78000
10
29.98700
20
-89.74700
30
78.00000
0
VERTEX
8
26_78000
10
30.11200
20
-89.40701
30
78.00000
0
VERTEX
8
26_78000
10
30.26700
20
-89.20300
30
78.00000
0
VERTEX
8
26_78000
10
30.37000
20
-89.08200
30
78.00000
0
VERTEX
8
26_78000
10
30.68500
20
-88.60201
30
78.00000
0
VERTEX
8
26_78000
10
32.05800
20
-86.88400
30
78.00000
0
VERTEX
8
26_78000
10
32.33300
20
-86.47900
30
78.00000
0
VERTEX
8
26_78000
10
32.52200
20
-86.13500
30
78.00000
0
VERTEX
8
26_78000
10
32.56100
20
-85.99500
30
78.00000
0
VERTEX
8
26_78000
10
32.66000
20
-85.73400
30
78.00000
0
VERTEX
8
26_78000
10
33.03500
20
-84.91701
30
78.00000
0
VERTEX
8
26_78000
10
33.25300
20
-84.51701
30
78.00000
0
VERTEX
8
26_78000
10
33.30000
20
-84.32401
30
78.00000
0
VERTEX
8
26_78000
10
33.55200
20
-83.92700
30
78.00000
0
VERTEX
8
26_78000
10
33.81600
20
-83.39101
30
78.00000
0
VERTEX
8
26_78000
10
33.84900
20
-83.33801
30
78.00000
0
VERTEX
8
26_78000
10
34.02500
20
-82.76401
30
78.00000
0
VERTEX
8
26_78000
10
34.24500
20
-82.37501
30
78.00000
0
VERTEX
8
26_78000
10
34.40700
20
-81.99001
30
78.00000
0
VERTEX
8
26_78000
10
34.65700
20
-81.58000
30
78.00000
0
VERTEX
8
26_78000
10
35.33600
20
-79.87300
30
78.00000
0
VERTEX
8
26_78000
10
35.50400
20
-79.58000
30
78.00000
0
VERTEX
8
26_78000
10
35.60300
20
-79.30200
30
78.00000
0
VERTEX
8
26_78000
10
35.73300
20
-79.09300
30
78.00000
0
VERTEX
8
26_78000
10
35.76900
20
-78.70500
30
78.00000
0
VERTEX
8
26_78000
10
35.69800
20
-77.70400
30
78.00000
0
VERTEX
8
26_78000
10
35.71900
20
-77.38200
30
78.00000
0
VERTEX
8
26_78000
10
35.72600
20
-77.09500
30
78.00000
0
VERTEX
8
26_78000
10
35.70400
20
-77.06600
30
78.00000
0
VERTEX
8
26_78000
10
35.79600
20
-76.41300
30
78.00000
0
VERTEX
8
26_78000
10
35.85600
20
-76.18201
30
78.00000
0
VERTEX
8
26_78000
10
35.97300
20
-75.90401
30
78.00000
0
VERTEX
8
26_78000
10
36.17700
20
-75.35900
30
78.00000
0
VERTEX
8
26_78000
10
36.29000
20
-74.95600
30
78.00000
0
VERTEX
8
26_78000
10
36.23900
20
-74.58701
30
78.00000
0
VERTEX
8
26_78000
10
36.24200
20
-73.60300
30
78.00000
0
VERTEX
8
26_78000
10
36.22700
20
-73.51100
30
78.00000
0
VERTEX
8
26_78000
10
36.20200
20
-73.04000
30
78.00000
0
VERTEX
8
26_78000
10
36.21900
20
-72.66901
30
78.00000
0
VERTEX
8
26_78000
10
36.24300
20
-72.55801
30
78.00000
0
VERTEX
8
26_78000
10
36.44700
20
-71.07600
30
78.00000
0
VERTEX
8
26_78000
10
36.44200
20
-70.93700
30
78.00000
0
VERTEX
8
26_78000
10
36.46700
20
-70.36301
30
78.00000
0
VERTEX
8
26_78000
10
36.44500
20
-69.89201
30
78.00000
0
VERTEX
8
26_78000
10
36.42000
20
-69.74500
30
78.00000
0
VERTEX
8
26_78000
10
36.49000
20
-68.64201
30
78.00000
0
VERTEX
8
26_78000
10
36.58600
20
-68.15701
30
78.00000
0
VERTEX
8
26_78000
10
36.72100
20
-66.61501
30
78.00000
0
VERTEX
8
26_78000
10
36.76600
20
-65.80901
30
78.00000
0
VERTEX
8
26_78000
10
36.80100
20
-65.34901
30
78.00000
0
VERTEX
8
26_78000
10
36.87500
20
-64.61501
30
78.00000
0
VERTEX
8
26_78000
10
36.92800
20
-64.23801
30
78.00000
0
VERTEX
8
26_78000
10
36.91400
20
-64.08601
30
78.00000
0
VERTEX
8
26_78000
10
36.89800
20
-63.20000
30
78.00000
0
VERTEX
8
26_78000
10
36.66600
20
-61.99400
30
78.00000
0
VERTEX
8
26_78000
10
36.65500
20
-61.82100
30
78.00000
0
VERTEX
8
26_78000
10
36.62000
20
-60.52300
30
78.00000
0
VERTEX
8
26_78000
10
36.59400
20
-58.33500
30
78.00000
0
VERTEX
8
26_78000
10
36.61100
20
-56.93500
30
78.00000
0
VERTEX
8
26_78000
10
36.60500
20
-56.78800
30
78.00000
0
VERTEX
8
26_78000
10
36.74200
20
-55.49900
30
78.00000
0
VERTEX
8
26_78000
10
36.71000
20
-55.00200
30
78.00000
0
VERTEX
8
26_78000
10
36.73900
20
-54.69100
30
78.00000
0
VERTEX
8
26_78000
10
36.83600
20
-54.31700
30
78.00000
0
VERTEX
8
26_78000
10
36.85300
20
-54.08500
30
78.00000
0
VERTEX
8
26_78000
10
36.83100
20
-53.69000
30
78.00000
0
VERTEX
8
26_78000
10
36.82700
20
-53.12000
30
78.00000
0
VERTEX
8
26_78000
10
36.86100
20
-53.04000
30
78.00000
0
VERTEX
8
26_78000
10
36.89800
20
-52.63600
30
78.00000
0
VERTEX
8
26_78000
10
36.88000
20
-52.45000
30
78.00000
0
VERTEX
8
26_78000
10
36.92400
20
-52.15800
30
78.00000
0
VERTEX
8
26_78000
10
37.00000
20
-51.86300
30
78.00000
0
VERTEX
8
26_78000
10
37.01100
20
-51.70400
30
78.00000
0
VERTEX
8
26_78000
10
37.03600
20
-51.65000
30
78.00000
0
VERTEX
8
26_78000
10
37.15400
20
-51.25000
30
78.00000
0
VERTEX
8
26_78000
10
37.39700
20
-50.20300
30
78.00000
0
VERTEX
8
26_78000
10
37.40900
20
-49.91200
30
78.00000
0
VERTEX
8
26_78000
10
37.42100
20
-49.83500
30
78.00000
0
VERTEX
8
26_78000
10
37.40300
20
-49.76100
30
78.00000
0
VERTEX
8
26_78000
10
37.55000
20
-48.35300
30
78.00000
0
VERTEX
8
26_78000
10
37.72500
20
-47.78900
30
78.00000
0
VERTEX
8
26_78000
10
37.76500
20
-47.49400
30
78.00000
0
VERTEX
8
26_78000
10
37.75500
20
-47.30000
30
78.00000
0
VERTEX
8
26_78000
10
37.84100
20
-47.00700
30
78.00000
0
VERTEX
8
26_78000
10
37.92000
20
-46.05700
30
78.00000
0
VERTEX
8
26_78000
10
37.97500
20
-45.18200
30
78.00000
0
VERTEX
8
26_78000
10
38.02200
20
-44.86900
30
78.00000
0
VERTEX
8
26_78000
10
38.05800
20
-43.05500
30
78.00000
0
VERTEX
8
26_78000
10
38.14100
20
-42.49300
30
78.00000
0
VERTEX
8
26_78000
10
38.19300
20
-42.07400
30
78.00000
0
VERTEX
8
26_78000
10
38.42100
20
-41.08500
30
78.00000
0
VERTEX
8
26_78000
10
38.44800
20
-40.83700
30
78.00000
0
VERTEX
8
26_78000
10
38.57500
20
-40.26700
30
78.00000
0
VERTEX
8
26_78000
10
38.73300
20
-39.69600
30
78.00000
0
VERTEX
8
26_78000
10
38.76200
20
-39.17800
30
78.00000
0
VERTEX
8
26_78000
10
38.93200
20
-38.29700
30
78.00000
0
VERTEX
8
26_78000
10
39.30300
20
-37.19800
30
78.00000
0
VERTEX
8
26_78000
10
39.41900
20
-36.80200
30
78.00000
0
VERTEX
8
26_78000
10
39.69200
20
-35.41600
30
78.00000
0
VERTEX
8
26_78000
10
39.76600
20
-34.15000
30
78.00000
0
VERTEX
8
26_78000
10
39.76800
20
-33.99600
30
78.00000
0
VERTEX
8
26_78000
10
39.70900
20
-33.49300
30
78.00000
0
VERTEX
8
26_78000
10
39.68600
20
-33.20900
30
78.00000
0
VERTEX
8
26_78000
10
39.55200
20
-31.18600
30
78.00000
0
VERTEX
8
26_78000
10
39.52900
20
-30.97100
30
78.00000
0
VERTEX
8
26_78000
10
39.26700
20
-29.84200
30
78.00000
0
VERTEX
8
26_78000
10
39.09000
20
-29.19700
30
78.00000
0
VERTEX
8
26_78000
10
38.42800
20
-26.93300
30
78.00000
0
VERTEX
8
26_78000
10
38.33500
20
-26.63700
30
78.00000
0
VERTEX
8
26_78000
10
38.12400
20
-26.15500
30
78.00000
0
VERTEX
8
26_78000
10
37.95000
20
-25.80800
30
78.00000
0
VERTEX
8
26_78000
10
37.02300
20
-24.16700
30
78.00000
0
VERTEX
8
26_78000
10
36.84100
20
-23.89500
30
78.00000
0
VERTEX
8
26_78000
10
36.84700
20
-23.80000
30
78.00000
0
VERTEX
8
26_78000
10
36.81500
20
-23.55000
30
78.00000
0
VERTEX
8
26_78000
10
36.89100
20
-23.29700
30
78.00000
0
VERTEX
8
26_78000
10
37.96100
20
-21.66200
30
78.00000
0
VERTEX
8
26_78000
10
38.17900
20
-21.31200
30
78.00000
0
VERTEX
8
26_78000
10
38.43700
20
-20.85100
30
78.00000
0
VERTEX
8
26_78000
10
38.56900
20
-20.63800
30
78.00000
0
VERTEX
8
26_78000
10
39.03400
20
-19.79200
30
78.00000
0
VERTEX
8
26_78000
10
39.58800
20
-18.68900
30
78.00000
0
VERTEX
8
26_78000
10
39.65300
20
-18.54800
30
78.00000
0
VERTEX
8
26_78000
10
39.74700
20
-18.30400
30
78.00000
0
VERTEX
8
26_78000
10
40.00800
20
-17.68600
30
78.00000
0
VERTEX
8
26_78000
10
40.45600
20
-16.11600
30
78.00000
0
VERTEX
8
26_78000
10
40.54500
20
-15.71800
30
78.00000
0
VERTEX
8
26_78000
10
40.55300
20
-15.53000
30
78.00000
0
VERTEX
8
26_78000
10
40.55400
20
-14.77900
30
78.00000
0
VERTEX
8
26_78000
10
40.53200
20
-14.31100
30
78.00000
0
VERTEX
8
26_78000
10
40.52600
20
-13.84000
30
78.00000
0
VERTEX
8
26_78000
10
40.48300
20
-13.31400
30
78.00000
0
VERTEX
8
26_78000
10
40.51800
20
-12.52300
30
78.00000
0
VERTEX
8
26_78000
10
40.55300
20
-12.05200
30
78.00000
0
VERTEX
8
26_78000
10
40.69400
20
-11.42000
30
78.00000
0
VERTEX
8
26_78000
10
41.01900
20
-10.58100
30
78.00000
0
VERTEX
8
26_78000
10
41.27800
20
-9.71000
30
78.00000
0
VERTEX
8
26_78000
10
41.33800
20
-9.24100
30
78.00000
0
VERTEX
8
26_78000
10
41.45700
20
-8.68900
30
78.00000
0
VERTEX
8
26_78000
10
41.48000
20
-7.75100
30
78.00000
0
VERTEX
8
26_78000
10
41.50000
20
-7.42300
30
78.00000
0
VERTEX
8
26_78000
10
41.46700
20
-7.26200
30
78.00000
0
VERTEX
8
26_78000
10
41.35100
20
-6.50900
30
78.00000
0
VERTEX
8
26_78000
10
41.44800
20
-5.01800
30
78.00000
0
VERTEX
8
26_78000
10
41.46100
20
-3.72100
30
78.00000
0
VERTEX
8
26_78000
10
41.63700
20
-2.38200
30
78.00000
0
VERTEX
8
26_78000
10
41.64100
20
-2.27800
30
78.00000
0
VERTEX
8
26_78000
10
41.79400
20
-1.55000
30
78.00000
0
VERTEX
8
26_78000
10
41.83300
20
-1.39500
30
78.00000
0
VERTEX
8
26_78000
10
41.87800
20
-1.27500
30
78.00000
0
VERTEX
8
26_78000
10
42.13800
20
-0.28900
30
78.00000
0
VERTEX
8
26_78000
10
42.49900
20
0.44500
30
78.00000
0
VERTEX
8
26_78000
10
42.55500
20
0.58500
30
78.00000
0
VERTEX
8
26_78000
10
42.58900
20
0.63200
30
78.00000
0
VERTEX
8
26_78000
10
42.80700
20
1.08800
30
78.00000
0
VERTEX
8
26_78000
10
43.54200
20
1.81900
30
78.00000
0
VERTEX
8
26_78000
10
43.80500
20
2.05200
30
78.00000
0
VERTEX
8
26_78000
10
47.08900
20
4.29800
30
78.00000
0
VERTEX
8
26_78000
10
47.25100
20
4.40100
30
78.00000
0
VERTEX
8
26_78000
10
47.86600
20
4.85400
30
78.00000
0
VERTEX
8
26_78000
10
49.34500
20
6.00900
30
78.00000
0
VERTEX
8
26_78000
10
50.34800
20
6.77900
30
78.00000
0
VERTEX
8
26_78000
10
50.75600
20
7.13100
30
78.00000
0
VERTEX
8
26_78000
10
51.25800
20
7.58300
30
78.00000
0
VERTEX
8
26_78000
10
51.69000
20
8.03400
30
78.00000
0
VERTEX
8
26_78000
10
52.44500
20
8.93600
30
78.00000
0
VERTEX
8
26_78000
10
52.79900
20
9.47500
30
78.00000
0
VERTEX
8
26_78000
10
53.19600
20
10.12200
30
78.00000
0
VERTEX
8
26_78000
10
53.28100
20
10.28500
30
78.00000
0
VERTEX
8
26_78000
10
53.82800
20
11.53100
30
78.00000
0
VERTEX
8
26_78000
10
54.27100
20
12.89700
30
78.00000
0
VERTEX
8
26_78000
10
54.66900
20
14.54600
30
78.00000
0
VERTEX
8
26_78000
10
54.69400
20
15.31700
30
78.00000
0
VERTEX
8
26_78000
10
54.64900
20
16.68600
30
78.00000
0
VERTEX
8
26_78000
10
54.60600
20
17.16200
30
78.00000
0
VERTEX
8
26_78000
10
54.51300
20
17.58400
30
78.00000
0
VERTEX
8
26_78000
10
54.36200
20
18.43600
30
78.00000
0
VERTEX
8
26_78000
10
54.33400
20
18.54900
30
78.00000
0
VERTEX
8
26_78000
10
53.79800
20
19.89400
30
78.00000
0
VERTEX
8
26_78000
10
53.69600
20
20.10700
30
78.00000
0
VERTEX
8
26_78000
10
53.57600
20
20.40100
30
78.00000
0
VERTEX
8
26_78000
10
52.91600
20
21.64200
30
78.00000
0
VERTEX
8
26_78000
10
52.62600
20
22.11500
30
78.00000
0
VERTEX
8
26_78000
10
52.39700
20
22.46200
30
78.00000
0
VERTEX
8
26_78000
10
51.53800
20
23.56600
30
78.00000
0
VERTEX
8
26_78000
10
49.68000
20
25.68600
30
78.00000
0
VERTEX
8
26_78000
10
47.17600
20
28.60000
30
78.00000
0
VERTEX
8
26_78000
10
46.08300
20
29.94000
30
78.00000
0
VERTEX
8
26_78000
10
45.48900
20
30.88700
30
78.00000
0
VERTEX
8
26_78000
10
44.64200
20
32.12300
30
78.00000
0
VERTEX
8
26_78000
10
44.16500
20
32.99300
30
78.00000
0
VERTEX
8
26_78000
10
43.68600
20
33.69600
30
78.00000
0
VERTEX
8
26_78000
10
43.58600
20
33.98300
30
78.00000
0
VERTEX
8
26_78000
10
42.75600
20
35.49700
30
78.00000
0
VERTEX
8
26_78000
10
41.65100
20
37.41900
30
78.00000
0
VERTEX
8
26_78000
10
41.41000
20
37.93900
30
78.00000
0
VERTEX
8
26_78000
10
40.65100
20
39.73700
30
78.00000
0
VERTEX
8
26_78000
10
40.43000
20
40.23000
30
78.00000
0
VERTEX
8
26_78000
10
39.55800
20
42.28100
30
78.00000
0
VERTEX
8
26_78000
10
39.30400
20
42.86100
30
78.00000
0
VERTEX
8
26_78000
10
38.78100
20
44.62600
30
78.00000
0
VERTEX
8
26_78000
10
38.62200
20
45.07200
30
78.00000
0
VERTEX
8
26_78000
10
37.94900
20
47.54100
30
78.00000
0
VERTEX
8
26_78000
10
37.82900
20
47.94600
30
78.00000
0
VERTEX
8
26_78000
10
37.72500
20
48.70000
30
78.00000
0
VERTEX
8
26_78000
10
37.47000
20
50.06600
30
78.00000
0
VERTEX
8
26_78000
10
37.31200
20
50.71500
30
78.00000
0
VERTEX
8
26_78000
10
37.19000
20
51.57700
30
78.00000
0
VERTEX
8
26_78000
10
37.15700
20
51.90900
30
78.00000
0
VERTEX
8
26_78000
10
37.13200
20
53.32800
30
78.00000
0
VERTEX
8
26_78000
10
37.17500
20
53.75100
30
78.00000
0
VERTEX
8
26_78000
10
37.21600
20
54.59700
30
78.00000
0
VERTEX
8
26_78000
10
37.21500
20
55.19400
30
78.00000
0
VERTEX
8
26_78000
10
37.27000
20
55.91400
30
78.00000
0
VERTEX
8
26_78000
10
37.29900
20
56.18900
30
78.00000
0
VERTEX
8
26_78000
10
37.31600
20
56.27200
30
78.00000
0
VERTEX
8
26_78000
10
37.60500
20
58.85600
30
78.00000
0
VERTEX
8
26_78000
10
37.64900
20
59.06600
30
78.00000
0
VERTEX
8
26_78000
10
37.76300
20
59.84500
30
78.00000
0
VERTEX
8
26_78000
10
37.95600
20
61.41500
30
78.00000
0
VERTEX
8
26_78000
10
38.07300
20
61.99900
30
78.00000
0
VERTEX
8
26_78000
10
38.18700
20
62.86800
30
78.00000
0
VERTEX
8
26_78000
10
38.40800
20
63.90800
30
78.00000
0
VERTEX
8
26_78000
10
38.45900
20
64.36000
30
78.00000
0
VERTEX
8
26_78000
10
38.73600
20
65.94100
30
78.00000
0
VERTEX
8
26_78000
10
38.83200
20
66.38500
30
78.00000
0
VERTEX
8
26_78000
10
39.21900
20
69.06900
30
78.00000
0
VERTEX
8
26_78000
10
39.28500
20
69.69400
30
78.00000
0
VERTEX
8
26_78000
10
39.45700
20
71.85800
30
78.00000
0
VERTEX
8
26_78000
10
39.52000
20
72.47301
30
78.00000
0
VERTEX
8
26_78000
10
39.61400
20
73.60500
30
78.00000
0
VERTEX
8
26_78000
10
39.63200
20
74.73801
30
78.00000
0
VERTEX
8
26_78000
10
39.63400
20
75.55701
30
78.00000
0
VERTEX
8
26_78000
10
39.61800
20
75.92101
30
78.00000
0
VERTEX
8
26_78000
10
39.62700
20
76.74200
30
78.00000
0
VERTEX
8
26_78000
10
39.50100
20
77.99100
30
78.00000
0
VERTEX
8
26_78000
10
39.46600
20
78.60300
30
78.00000
0
VERTEX
8
26_78000
10
39.34300
20
79.67101
30
78.00000
0
VERTEX
8
26_78000
10
39.09800
20
81.48000
30
78.00000
0
VERTEX
8
26_78000
10
38.87000
20
82.70901
30
78.00000
0
VERTEX
8
26_78000
10
38.71800
20
83.43600
30
78.00000
0
VERTEX
8
26_78000
10
38.69500
20
83.73300
30
78.00000
0
VERTEX
8
26_78000
10
38.66500
20
83.94400
30
78.00000
0
VERTEX
8
26_78000
10
38.66600
20
84.06600
30
78.00000
0
VERTEX
8
26_78000
10
38.57500
20
85.01501
30
78.00000
0
VERTEX
8
26_78000
10
38.51400
20
85.38400
30
78.00000
0
VERTEX
8
26_78000
10
16.28700
20
89.09500
30
78.00000
0
VERTEX
8
26_78000
10
-56.17000
20
89.09500
30
78.00000
0
VERTEX
8
26_78000
10
-56.17000
20
-9.77700
30
78.00000
0
SEQEND
8
26_78000
0
POLYLINE
8
26_78000
62
5
0
VERTEX
8
26_78000
10
13.31400
20
89.58900
30
78.00000
0
VERTEX
8
26_78000
10
8.90800
20
90.32500
30
78.00000
0
VERTEX
8
26_78000
10
-56.17000
20
90.32500
30
78.00000
0
VERTEX
8
26_78000
10
-56.17000
20
89.09600
30
78.00000
0
VERTEX
8
26_78000
10
16.27800
20
89.09600
30
78.00000
0
VERTEX
8
26_78000
10
13.31400
20
89.58900
30
78.00000
0
SEQEND
8
26_78000
0
ENDSEC
0
EOF
