0
SECTION
2
HEADER
9
$ACADVER
1
AC1009
0
ENDSEC
0
SECTION
2
TABLES
0
TABLE
2
LAYER
70
1
0
LAYER
2
42_126000
70
0
62
7
6
CONTINUOUS
0
ENDTAB
0
ENDSEC
0
SECTION
2
BLOCKS
0
ENDSEC
0
SECTION
2
ENTITIES
0
POLYLINE
8
42_126000
62
5
0
VERTEX
8
42_126000
10
-48.09800
20
91.90501
30
126.00000
0
VERTEX
8
42_126000
10
-0.54900
20
91.90501
30
126.00000
0
VERTEX
8
42_126000
10
-1.06100
20
91.99001
30
126.00000
0
VERTEX
8
42_126000
10
-56.17000
20
91.99001
30
126.00000
0
VERTEX
8
42_126000
10
-56.17000
20
91.90501
30
126.00000
0
VERTEX
8
42_126000
10
-48.09800
20
91.90501
30
126.00000
0
SEQEND
8
42_126000
0
POLYLINE
8
42_126000
62
5
0
VERTEX
8
42_126000
10
-48.52400
20
91.85700
30
126.00000
0
VERTEX
8
42_126000
10
-0.26300
20
91.85700
30
126.00000
0
VERTEX
8
42_126000
10
-0.51200
20
91.89900
30
126.00000
0
VERTEX
8
42_126000
10
-56.17000
20
91.89900
30
126.00000
0
VERTEX
8
42_126000
10
-56.17000
20
91.85700
30
126.00000
0
VERTEX
8
42_126000
10
-48.52400
20
91.85700
30
126.00000
0
SEQEND
8
42_126000
0
POLYLINE
8
42_126000
62
5
0
VERTEX
8
42_126000
10
-56.17000
20
91.83601
30
126.00000
0
VERTEX
8
42_126000
10
-56.17000
20
91.78800
30
126.00000
0
VERTEX
8
42_126000
10
0.15200
20
91.78800
30
126.00000
0
VERTEX
8
42_126000
10
-0.25400
20
91.85500
30
126.00000
0
VERTEX
8
42_126000
10
-56.17000
20
91.85500
30
126.00000
0
VERTEX
8
42_126000
10
-56.17000
20
91.83601
30
126.00000
0
SEQEND
8
42_126000
0
POLYLINE
8
42_126000
62
5
0
VERTEX
8
42_126000
10
-56.17000
20
91.56901
30
126.00000
0
VERTEX
8
42_126000
10
-56.17000
20
91.44901
30
126.00000
0
VERTEX
8
42_126000
10
2.17200
20
91.44901
30
126.00000
0
VERTEX
8
42_126000
10
0.18200
20
91.78101
30
126.00000
0
VERTEX
8
42_126000
10
-56.17000
20
91.78101
30
126.00000
0
VERTEX
8
42_126000
10
-56.17000
20
91.56901
30
126.00000
0
SEQEND
8
42_126000
0
POLYLINE
8
42_126000
62
5
0
VERTEX
8
42_126000
10
-56.17000
20
90.32800
30
126.00000
0
VERTEX
8
42_126000
10
-56.17000
20
89.74100
30
126.00000
0
VERTEX
8
42_126000
10
12.40900
20
89.74100
30
126.00000
0
VERTEX
8
42_126000
10
2.20200
20
91.44501
30
126.00000
0
VERTEX
8
42_126000
10
-56.17000
20
91.44501
30
126.00000
0
VERTEX
8
42_126000
10
-56.17000
20
90.32800
30
126.00000
0
SEQEND
8
42_126000
0
POLYLINE
8
42_126000
62
5
0
VERTEX
8
42_126000
10
-56.17000
20
88.96900
30
126.00000
0
VERTEX
8
42_126000
10
-56.17000
20
-92.11401
30
126.00000
0
VERTEX
8
42_126000
10
29.70900
20
-92.11401
30
126.00000
0
VERTEX
8
42_126000
10
29.55200
20
-91.86501
30
126.00000
0
VERTEX
8
42_126000
10
29.07800
20
-91.15701
30
126.00000
0
VERTEX
8
42_126000
10
28.78300
20
-90.73300
30
126.00000
0
VERTEX
8
42_126000
10
28.16800
20
-89.89400
30
126.00000
0
VERTEX
8
42_126000
10
26.96100
20
-88.04700
30
126.00000
0
VERTEX
8
42_126000
10
25.78300
20
-86.14400
30
126.00000
0
VERTEX
8
42_126000
10
23.29500
20
-82.36000
30
126.00000
0
VERTEX
8
42_126000
10
21.04900
20
-79.11700
30
126.00000
0
VERTEX
8
42_126000
10
19.02600
20
-76.08801
30
126.00000
0
VERTEX
8
42_126000
10
18.79400
20
-75.72900
30
126.00000
0
VERTEX
8
42_126000
10
18.53800
20
-75.20100
30
126.00000
0
VERTEX
8
42_126000
10
18.51000
20
-75.09200
30
126.00000
0
VERTEX
8
42_126000
10
18.48200
20
-74.71001
30
126.00000
0
VERTEX
8
42_126000
10
18.33600
20
-73.45800
30
126.00000
0
VERTEX
8
42_126000
10
18.34300
20
-73.20800
30
126.00000
0
VERTEX
8
42_126000
10
18.28600
20
-72.25101
30
126.00000
0
VERTEX
8
42_126000
10
18.27600
20
-71.30100
30
126.00000
0
VERTEX
8
42_126000
10
18.43100
20
-69.91300
30
126.00000
0
VERTEX
8
42_126000
10
18.37700
20
-69.41200
30
126.00000
0
VERTEX
8
42_126000
10
18.35300
20
-69.30400
30
126.00000
0
VERTEX
8
42_126000
10
18.06400
20
-67.26601
30
126.00000
0
VERTEX
8
42_126000
10
18.00600
20
-67.03400
30
126.00000
0
VERTEX
8
42_126000
10
17.71900
20
-66.05600
30
126.00000
0
VERTEX
8
42_126000
10
17.66000
20
-65.74400
30
126.00000
0
VERTEX
8
42_126000
10
17.17600
20
-64.53001
30
126.00000
0
VERTEX
8
42_126000
10
16.58800
20
-63.28000
30
126.00000
0
VERTEX
8
42_126000
10
16.34400
20
-62.41100
30
126.00000
0
VERTEX
8
42_126000
10
16.29200
20
-62.17500
30
126.00000
0
VERTEX
8
42_126000
10
16.21700
20
-61.92500
30
126.00000
0
VERTEX
8
42_126000
10
15.97500
20
-61.41200
30
126.00000
0
VERTEX
8
42_126000
10
15.49900
20
-60.32600
30
126.00000
0
VERTEX
8
42_126000
10
15.46000
20
-60.19800
30
126.00000
0
VERTEX
8
42_126000
10
15.31200
20
-59.89600
30
126.00000
0
VERTEX
8
42_126000
10
15.22700
20
-59.53200
30
126.00000
0
VERTEX
8
42_126000
10
15.20100
20
-59.24500
30
126.00000
0
VERTEX
8
42_126000
10
15.09700
20
-58.86400
30
126.00000
0
VERTEX
8
42_126000
10
14.87900
20
-57.22100
30
126.00000
0
VERTEX
8
42_126000
10
14.70100
20
-56.71800
30
126.00000
0
VERTEX
8
42_126000
10
14.65900
20
-56.24900
30
126.00000
0
VERTEX
8
42_126000
10
14.48800
20
-55.91200
30
126.00000
0
VERTEX
8
42_126000
10
14.24200
20
-55.53100
30
126.00000
0
VERTEX
8
42_126000
10
13.16700
20
-53.73700
30
126.00000
0
VERTEX
8
42_126000
10
13.05900
20
-53.52500
30
126.00000
0
VERTEX
8
42_126000
10
12.84400
20
-53.19100
30
126.00000
0
VERTEX
8
42_126000
10
12.82300
20
-53.14200
30
126.00000
0
VERTEX
8
42_126000
10
12.72100
20
-52.66000
30
126.00000
0
VERTEX
8
42_126000
10
12.63500
20
-52.29900
30
126.00000
0
VERTEX
8
42_126000
10
12.58100
20
-51.74200
30
126.00000
0
VERTEX
8
42_126000
10
12.51800
20
-51.22600
30
126.00000
0
VERTEX
8
42_126000
10
12.53100
20
-51.06800
30
126.00000
0
VERTEX
8
42_126000
10
12.53000
20
-50.86800
30
126.00000
0
VERTEX
8
42_126000
10
12.62300
20
-49.63600
30
126.00000
0
VERTEX
8
42_126000
10
12.61800
20
-49.52400
30
126.00000
0
VERTEX
8
42_126000
10
12.71000
20
-49.21200
30
126.00000
0
VERTEX
8
42_126000
10
12.76900
20
-48.93500
30
126.00000
0
VERTEX
8
42_126000
10
13.02400
20
-48.36700
30
126.00000
0
VERTEX
8
42_126000
10
13.40000
20
-47.67900
30
126.00000
0
VERTEX
8
42_126000
10
13.99100
20
-46.17100
30
126.00000
0
VERTEX
8
42_126000
10
14.33900
20
-45.22500
30
126.00000
0
VERTEX
8
42_126000
10
14.36600
20
-45.17400
30
126.00000
0
VERTEX
8
42_126000
10
14.47000
20
-44.88100
30
126.00000
0
VERTEX
8
42_126000
10
14.63100
20
-44.27900
30
126.00000
0
VERTEX
8
42_126000
10
14.66300
20
-44.12500
30
126.00000
0
VERTEX
8
42_126000
10
14.73000
20
-43.68300
30
126.00000
0
VERTEX
8
42_126000
10
14.75200
20
-42.91500
30
126.00000
0
VERTEX
8
42_126000
10
14.78900
20
-42.64300
30
126.00000
0
VERTEX
8
42_126000
10
14.88000
20
-42.36400
30
126.00000
0
VERTEX
8
42_126000
10
14.81300
20
-42.10300
30
126.00000
0
VERTEX
8
42_126000
10
14.62300
20
-41.17100
30
126.00000
0
VERTEX
8
42_126000
10
14.50200
20
-40.83500
30
126.00000
0
VERTEX
8
42_126000
10
14.43400
20
-40.35100
30
126.00000
0
VERTEX
8
42_126000
10
14.39500
20
-40.19500
30
126.00000
0
VERTEX
8
42_126000
10
14.36400
20
-39.98600
30
126.00000
0
VERTEX
8
42_126000
10
14.59300
20
-39.06300
30
126.00000
0
VERTEX
8
42_126000
10
14.95900
20
-38.03600
30
126.00000
0
VERTEX
8
42_126000
10
15.27200
20
-37.24000
30
126.00000
0
VERTEX
8
42_126000
10
15.31600
20
-37.08300
30
126.00000
0
VERTEX
8
42_126000
10
15.34700
20
-36.79900
30
126.00000
0
VERTEX
8
42_126000
10
15.38300
20
-36.20200
30
126.00000
0
VERTEX
8
42_126000
10
15.47100
20
-35.60000
30
126.00000
0
VERTEX
8
42_126000
10
15.65400
20
-34.85000
30
126.00000
0
VERTEX
8
42_126000
10
15.78900
20
-34.19400
30
126.00000
0
VERTEX
8
42_126000
10
15.79000
20
-34.14300
30
126.00000
0
VERTEX
8
42_126000
10
15.86300
20
-33.64100
30
126.00000
0
VERTEX
8
42_126000
10
16.05500
20
-32.71700
30
126.00000
0
VERTEX
8
42_126000
10
16.00700
20
-31.98900
30
126.00000
0
VERTEX
8
42_126000
10
15.94900
20
-31.42600
30
126.00000
0
VERTEX
8
42_126000
10
15.87300
20
-30.35000
30
126.00000
0
VERTEX
8
42_126000
10
15.89000
20
-30.20600
30
126.00000
0
VERTEX
8
42_126000
10
15.97900
20
-28.83900
30
126.00000
0
VERTEX
8
42_126000
10
15.98800
20
-28.62300
30
126.00000
0
VERTEX
8
42_126000
10
15.97000
20
-28.17400
30
126.00000
0
VERTEX
8
42_126000
10
16.04400
20
-27.75300
30
126.00000
0
VERTEX
8
42_126000
10
16.28500
20
-25.70300
30
126.00000
0
VERTEX
8
42_126000
10
16.33400
20
-25.18100
30
126.00000
0
VERTEX
8
42_126000
10
16.39700
20
-24.90600
30
126.00000
0
VERTEX
8
42_126000
10
16.36800
20
-24.56900
30
126.00000
0
VERTEX
8
42_126000
10
16.37400
20
-24.45600
30
126.00000
0
VERTEX
8
42_126000
10
16.46300
20
-23.55300
30
126.00000
0
VERTEX
8
42_126000
10
16.49100
20
-23.42900
30
126.00000
0
VERTEX
8
42_126000
10
16.66700
20
-21.47400
30
126.00000
0
VERTEX
8
42_126000
10
16.70300
20
-21.18500
30
126.00000
0
VERTEX
8
42_126000
10
16.74900
20
-20.68300
30
126.00000
0
VERTEX
8
42_126000
10
16.91300
20
-19.62500
30
126.00000
0
VERTEX
8
42_126000
10
17.23500
20
-17.82300
30
126.00000
0
VERTEX
8
42_126000
10
17.31000
20
-17.36700
30
126.00000
0
VERTEX
8
42_126000
10
17.94800
20
-14.28200
30
126.00000
0
VERTEX
8
42_126000
10
18.43600
20
-12.41600
30
126.00000
0
VERTEX
8
42_126000
10
18.56700
20
-11.72500
30
126.00000
0
VERTEX
8
42_126000
10
18.90000
20
-10.37400
30
126.00000
0
VERTEX
8
42_126000
10
19.36700
20
-8.53400
30
126.00000
0
VERTEX
8
42_126000
10
19.48600
20
-7.96800
30
126.00000
0
VERTEX
8
42_126000
10
19.66400
20
-7.25600
30
126.00000
0
VERTEX
8
42_126000
10
20.59200
20
-1.30400
30
126.00000
0
VERTEX
8
42_126000
10
20.79200
20
0.82800
30
126.00000
0
VERTEX
8
42_126000
10
20.83200
20
1.41200
30
126.00000
0
VERTEX
8
42_126000
10
20.87200
20
4.20900
30
126.00000
0
VERTEX
8
42_126000
10
20.83500
20
4.38200
30
126.00000
0
VERTEX
8
42_126000
10
20.84600
20
4.68500
30
126.00000
0
VERTEX
8
42_126000
10
20.67700
20
7.64300
30
126.00000
0
VERTEX
8
42_126000
10
20.61300
20
8.30300
30
126.00000
0
VERTEX
8
42_126000
10
20.43400
20
9.51000
30
126.00000
0
VERTEX
8
42_126000
10
20.34500
20
10.22800
30
126.00000
0
VERTEX
8
42_126000
10
20.10300
20
11.75100
30
126.00000
0
VERTEX
8
42_126000
10
19.97400
20
12.46800
30
126.00000
0
VERTEX
8
42_126000
10
19.62500
20
14.21800
30
126.00000
0
VERTEX
8
42_126000
10
19.25800
20
15.87200
30
126.00000
0
VERTEX
8
42_126000
10
18.78000
20
17.91100
30
126.00000
0
VERTEX
8
42_126000
10
17.87500
20
21.29600
30
126.00000
0
VERTEX
8
42_126000
10
17.44900
20
23.01500
30
126.00000
0
VERTEX
8
42_126000
10
16.95000
20
25.56800
30
126.00000
0
VERTEX
8
42_126000
10
16.50900
20
27.48700
30
126.00000
0
VERTEX
8
42_126000
10
16.36500
20
28.45600
30
126.00000
0
VERTEX
8
42_126000
10
16.33600
20
28.59400
30
126.00000
0
VERTEX
8
42_126000
10
14.94800
20
34.24600
30
126.00000
0
VERTEX
8
42_126000
10
14.73000
20
35.20300
30
126.00000
0
VERTEX
8
42_126000
10
14.33500
20
37.05800
30
126.00000
0
VERTEX
8
42_126000
10
14.16300
20
37.94200
30
126.00000
0
VERTEX
8
42_126000
10
13.40700
20
40.93100
30
126.00000
0
VERTEX
8
42_126000
10
13.39100
20
41.13400
30
126.00000
0
VERTEX
8
42_126000
10
13.22100
20
41.97100
30
126.00000
0
VERTEX
8
42_126000
10
13.13300
20
42.82800
30
126.00000
0
VERTEX
8
42_126000
10
13.00200
20
43.69200
30
126.00000
0
VERTEX
8
42_126000
10
12.91300
20
44.99400
30
126.00000
0
VERTEX
8
42_126000
10
12.91800
20
47.33300
30
126.00000
0
VERTEX
8
42_126000
10
12.95100
20
48.22200
30
126.00000
0
VERTEX
8
42_126000
10
12.94600
20
48.40700
30
126.00000
0
VERTEX
8
42_126000
10
13.23400
20
49.89300
30
126.00000
0
VERTEX
8
42_126000
10
13.38400
20
50.42300
30
126.00000
0
VERTEX
8
42_126000
10
13.54000
20
50.89000
30
126.00000
0
VERTEX
8
42_126000
10
14.05300
20
51.86400
30
126.00000
0
VERTEX
8
42_126000
10
15.13200
20
53.58300
30
126.00000
0
VERTEX
8
42_126000
10
16.04400
20
54.89300
30
126.00000
0
VERTEX
8
42_126000
10
16.19300
20
55.08300
30
126.00000
0
VERTEX
8
42_126000
10
16.58800
20
55.90400
30
126.00000
0
VERTEX
8
42_126000
10
17.62400
20
57.65400
30
126.00000
0
VERTEX
8
42_126000
10
17.91600
20
58.20000
30
126.00000
0
VERTEX
8
42_126000
10
18.15700
20
58.88800
30
126.00000
0
VERTEX
8
42_126000
10
19.29000
20
63.13700
30
126.00000
0
VERTEX
8
42_126000
10
19.52900
20
64.62701
30
126.00000
0
VERTEX
8
42_126000
10
19.96300
20
66.74300
30
126.00000
0
VERTEX
8
42_126000
10
20.02000
20
67.89101
30
126.00000
0
VERTEX
8
42_126000
10
20.18200
20
68.71400
30
126.00000
0
VERTEX
8
42_126000
10
20.29600
20
69.07201
30
126.00000
0
VERTEX
8
42_126000
10
20.33900
20
69.39201
30
126.00000
0
VERTEX
8
42_126000
10
20.48000
20
69.94601
30
126.00000
0
VERTEX
8
42_126000
10
20.59800
20
70.53201
30
126.00000
0
VERTEX
8
42_126000
10
20.70500
20
71.12000
30
126.00000
0
VERTEX
8
42_126000
10
20.93500
20
73.01801
30
126.00000
0
VERTEX
8
42_126000
10
21.03900
20
75.54900
30
126.00000
0
VERTEX
8
42_126000
10
21.07200
20
76.03201
30
126.00000
0
VERTEX
8
42_126000
10
20.84800
20
77.55901
30
126.00000
0
VERTEX
8
42_126000
10
20.77300
20
78.02300
30
126.00000
0
VERTEX
8
42_126000
10
20.71500
20
78.27200
30
126.00000
0
VERTEX
8
42_126000
10
20.58400
20
78.78700
30
126.00000
0
VERTEX
8
42_126000
10
20.15500
20
80.26401
30
126.00000
0
VERTEX
8
42_126000
10
19.69900
20
81.73100
30
126.00000
0
VERTEX
8
42_126000
10
18.95200
20
83.98400
30
126.00000
0
VERTEX
8
42_126000
10
18.34800
20
85.51300
30
126.00000
0
VERTEX
8
42_126000
10
17.97800
20
86.40401
30
126.00000
0
VERTEX
8
42_126000
10
17.63000
20
87.08601
30
126.00000
0
VERTEX
8
42_126000
10
17.23700
20
88.32101
30
126.00000
0
VERTEX
8
42_126000
10
17.18800
20
88.51900
30
126.00000
0
VERTEX
8
42_126000
10
17.03800
20
88.96900
30
126.00000
0
VERTEX
8
42_126000
10
12.46300
20
89.73300
30
126.00000
0
VERTEX
8
42_126000
10
-56.17000
20
89.73300
30
126.00000
0
VERTEX
8
42_126000
10
-56.17000
20
88.96900
30
126.00000
0
SEQEND
8
42_126000
0
ENDSEC
0
EOF
