0
SECTION
2
HEADER
9
$ACADVER
1
AC1009
0
ENDSEC
0
SECTION
2
TABLES
0
TABLE
2
LAYER
70
1
0
LAYER
2
37_111000
70
0
62
7
6
CONTINUOUS
0
ENDTAB
0
ENDSEC
0
SECTION
2
BLOCKS
0
ENDSEC
0
SECTION
2
ENTITIES
0
POLYLINE
8
37_111000
62
5
0
VERTEX
8
37_111000
10
-41.83100
20
91.82500
30
111.00000
0
VERTEX
8
37_111000
10
-0.07500
20
91.82500
30
111.00000
0
VERTEX
8
37_111000
10
-0.52400
20
91.90000
30
111.00000
0
VERTEX
8
37_111000
10
-56.17000
20
91.90000
30
111.00000
0
VERTEX
8
37_111000
10
-56.17000
20
91.82500
30
111.00000
0
VERTEX
8
37_111000
10
-41.83100
20
91.82500
30
111.00000
0
SEQEND
8
37_111000
0
POLYLINE
8
37_111000
62
5
0
VERTEX
8
37_111000
10
-42.20600
20
91.78300
30
111.00000
0
VERTEX
8
37_111000
10
0.17700
20
91.78300
30
111.00000
0
VERTEX
8
37_111000
10
-0.04200
20
91.81901
30
111.00000
0
VERTEX
8
37_111000
10
-56.17000
20
91.81901
30
111.00000
0
VERTEX
8
37_111000
10
-56.17000
20
91.78300
30
111.00000
0
VERTEX
8
37_111000
10
-42.20600
20
91.78300
30
111.00000
0
SEQEND
8
37_111000
0
POLYLINE
8
37_111000
62
5
0
VERTEX
8
37_111000
10
-56.17000
20
91.76900
30
111.00000
0
VERTEX
8
37_111000
10
-56.17000
20
91.72301
30
111.00000
0
VERTEX
8
37_111000
10
0.54100
20
91.72301
30
111.00000
0
VERTEX
8
37_111000
10
0.18400
20
91.78300
30
111.00000
0
VERTEX
8
37_111000
10
-56.17000
20
91.78300
30
111.00000
0
VERTEX
8
37_111000
10
-56.17000
20
91.76900
30
111.00000
0
SEQEND
8
37_111000
0
POLYLINE
8
37_111000
62
5
0
VERTEX
8
37_111000
10
-56.17000
20
91.53400
30
111.00000
0
VERTEX
8
37_111000
10
-56.17000
20
91.42600
30
111.00000
0
VERTEX
8
37_111000
10
2.31500
20
91.42600
30
111.00000
0
VERTEX
8
37_111000
10
0.56800
20
91.71700
30
111.00000
0
VERTEX
8
37_111000
10
-56.17000
20
91.71700
30
111.00000
0
VERTEX
8
37_111000
10
-56.17000
20
91.53400
30
111.00000
0
SEQEND
8
37_111000
0
POLYLINE
8
37_111000
62
5
0
VERTEX
8
37_111000
10
-56.17000
20
85.43101
30
111.00000
0
VERTEX
8
37_111000
10
-56.17000
20
-92.11401
30
111.00000
0
VERTEX
8
37_111000
10
29.77700
20
-92.11401
30
111.00000
0
VERTEX
8
37_111000
10
29.46900
20
-91.56300
30
111.00000
0
VERTEX
8
37_111000
10
29.23400
20
-91.10201
30
111.00000
0
VERTEX
8
37_111000
10
28.90600
20
-90.36501
30
111.00000
0
VERTEX
8
37_111000
10
28.48400
20
-89.52300
30
111.00000
0
VERTEX
8
37_111000
10
27.43300
20
-87.20400
30
111.00000
0
VERTEX
8
37_111000
10
27.27900
20
-86.80000
30
111.00000
0
VERTEX
8
37_111000
10
27.17300
20
-86.45000
30
111.00000
0
VERTEX
8
37_111000
10
26.85000
20
-85.60001
30
111.00000
0
VERTEX
8
37_111000
10
26.67300
20
-85.17300
30
111.00000
0
VERTEX
8
37_111000
10
26.47500
20
-84.58601
30
111.00000
0
VERTEX
8
37_111000
10
26.28700
20
-83.95600
30
111.00000
0
VERTEX
8
37_111000
10
26.27800
20
-83.89800
30
111.00000
0
VERTEX
8
37_111000
10
26.26800
20
-83.39700
30
111.00000
0
VERTEX
8
37_111000
10
27.31900
20
-80.10600
30
111.00000
0
VERTEX
8
37_111000
10
27.83400
20
-77.60201
30
111.00000
0
VERTEX
8
37_111000
10
27.85300
20
-77.45500
30
111.00000
0
VERTEX
8
37_111000
10
27.84300
20
-77.14201
30
111.00000
0
VERTEX
8
37_111000
10
27.66700
20
-76.56200
30
111.00000
0
VERTEX
8
37_111000
10
27.66400
20
-76.25900
30
111.00000
0
VERTEX
8
37_111000
10
27.63500
20
-75.39101
30
111.00000
0
VERTEX
8
37_111000
10
27.59200
20
-74.94400
30
111.00000
0
VERTEX
8
37_111000
10
27.42700
20
-74.11401
30
111.00000
0
VERTEX
8
37_111000
10
27.28100
20
-73.70800
30
111.00000
0
VERTEX
8
37_111000
10
27.17800
20
-73.37100
30
111.00000
0
VERTEX
8
37_111000
10
26.99100
20
-72.69500
30
111.00000
0
VERTEX
8
37_111000
10
26.88700
20
-71.64301
30
111.00000
0
VERTEX
8
37_111000
10
26.85000
20
-71.50101
30
111.00000
0
VERTEX
8
37_111000
10
26.83800
20
-71.09400
30
111.00000
0
VERTEX
8
37_111000
10
26.49500
20
-69.94701
30
111.00000
0
VERTEX
8
37_111000
10
26.34000
20
-69.30000
30
111.00000
0
VERTEX
8
37_111000
10
26.27400
20
-69.12400
30
111.00000
0
VERTEX
8
37_111000
10
26.14000
20
-68.83200
30
111.00000
0
VERTEX
8
37_111000
10
25.96900
20
-68.20700
30
111.00000
0
VERTEX
8
37_111000
10
25.89600
20
-67.88400
30
111.00000
0
VERTEX
8
37_111000
10
25.74900
20
-67.56001
30
111.00000
0
VERTEX
8
37_111000
10
25.64500
20
-66.98000
30
111.00000
0
VERTEX
8
37_111000
10
25.61200
20
-66.39101
30
111.00000
0
VERTEX
8
37_111000
10
25.59400
20
-66.19500
30
111.00000
0
VERTEX
8
37_111000
10
25.56600
20
-66.09800
30
111.00000
0
VERTEX
8
37_111000
10
25.48700
20
-65.95900
30
111.00000
0
VERTEX
8
37_111000
10
25.37600
20
-65.07700
30
111.00000
0
VERTEX
8
37_111000
10
25.27200
20
-64.71600
30
111.00000
0
VERTEX
8
37_111000
10
25.25200
20
-64.53300
30
111.00000
0
VERTEX
8
37_111000
10
25.11100
20
-64.12000
30
111.00000
0
VERTEX
8
37_111000
10
25.04600
20
-63.83400
30
111.00000
0
VERTEX
8
37_111000
10
24.92300
20
-63.58600
30
111.00000
0
VERTEX
8
37_111000
10
24.78800
20
-63.28600
30
111.00000
0
VERTEX
8
37_111000
10
24.48900
20
-62.46800
30
111.00000
0
VERTEX
8
37_111000
10
24.16400
20
-61.40300
30
111.00000
0
VERTEX
8
37_111000
10
24.07300
20
-60.96500
30
111.00000
0
VERTEX
8
37_111000
10
24.08700
20
-60.06500
30
111.00000
0
VERTEX
8
37_111000
10
24.07800
20
-59.82700
30
111.00000
0
VERTEX
8
37_111000
10
23.97000
20
-59.13900
30
111.00000
0
VERTEX
8
37_111000
10
23.98800
20
-58.52600
30
111.00000
0
VERTEX
8
37_111000
10
23.95300
20
-58.30100
30
111.00000
0
VERTEX
8
37_111000
10
23.83900
20
-57.72100
30
111.00000
0
VERTEX
8
37_111000
10
23.76700
20
-57.50800
30
111.00000
0
VERTEX
8
37_111000
10
23.54900
20
-56.58900
30
111.00000
0
VERTEX
8
37_111000
10
23.29900
20
-55.66500
30
111.00000
0
VERTEX
8
37_111000
10
23.25800
20
-55.34600
30
111.00000
0
VERTEX
8
37_111000
10
23.22700
20
-54.68000
30
111.00000
0
VERTEX
8
37_111000
10
23.23200
20
-54.62000
30
111.00000
0
VERTEX
8
37_111000
10
23.09200
20
-52.89900
30
111.00000
0
VERTEX
8
37_111000
10
23.09000
20
-52.66600
30
111.00000
0
VERTEX
8
37_111000
10
23.14600
20
-51.63900
30
111.00000
0
VERTEX
8
37_111000
10
23.16900
20
-51.44900
30
111.00000
0
VERTEX
8
37_111000
10
23.27900
20
-51.08900
30
111.00000
0
VERTEX
8
37_111000
10
23.27000
20
-50.95600
30
111.00000
0
VERTEX
8
37_111000
10
23.19500
20
-50.54600
30
111.00000
0
VERTEX
8
37_111000
10
23.23200
20
-49.61200
30
111.00000
0
VERTEX
8
37_111000
10
23.22000
20
-49.55600
30
111.00000
0
VERTEX
8
37_111000
10
23.16600
20
-49.01700
30
111.00000
0
VERTEX
8
37_111000
10
23.11200
20
-48.91500
30
111.00000
0
VERTEX
8
37_111000
10
23.11600
20
-48.02600
30
111.00000
0
VERTEX
8
37_111000
10
23.09200
20
-47.14300
30
111.00000
0
VERTEX
8
37_111000
10
23.09000
20
-45.43600
30
111.00000
0
VERTEX
8
37_111000
10
23.14900
20
-43.93300
30
111.00000
0
VERTEX
8
37_111000
10
23.22000
20
-43.13800
30
111.00000
0
VERTEX
8
37_111000
10
23.35400
20
-41.84800
30
111.00000
0
VERTEX
8
37_111000
10
23.36600
20
-41.58700
30
111.00000
0
VERTEX
8
37_111000
10
23.36500
20
-41.30200
30
111.00000
0
VERTEX
8
37_111000
10
23.39700
20
-40.76200
30
111.00000
0
VERTEX
8
37_111000
10
23.37800
20
-39.68800
30
111.00000
0
VERTEX
8
37_111000
10
23.33300
20
-38.43800
30
111.00000
0
VERTEX
8
37_111000
10
23.34100
20
-38.32000
30
111.00000
0
VERTEX
8
37_111000
10
23.28000
20
-37.68800
30
111.00000
0
VERTEX
8
37_111000
10
23.27800
20
-37.52800
30
111.00000
0
VERTEX
8
37_111000
10
23.25200
20
-37.21200
30
111.00000
0
VERTEX
8
37_111000
10
23.20300
20
-35.04700
30
111.00000
0
VERTEX
8
37_111000
10
23.02500
20
-33.97600
30
111.00000
0
VERTEX
8
37_111000
10
22.97700
20
-33.59200
30
111.00000
0
VERTEX
8
37_111000
10
22.89600
20
-33.14900
30
111.00000
0
VERTEX
8
37_111000
10
22.78900
20
-31.32500
30
111.00000
0
VERTEX
8
37_111000
10
22.71600
20
-30.85200
30
111.00000
0
VERTEX
8
37_111000
10
22.75500
20
-30.38900
30
111.00000
0
VERTEX
8
37_111000
10
22.74000
20
-30.25000
30
111.00000
0
VERTEX
8
37_111000
10
22.81900
20
-29.56300
30
111.00000
0
VERTEX
8
37_111000
10
22.75300
20
-29.21200
30
111.00000
0
VERTEX
8
37_111000
10
22.72200
20
-28.80800
30
111.00000
0
VERTEX
8
37_111000
10
22.66800
20
-28.36400
30
111.00000
0
VERTEX
8
37_111000
10
22.49900
20
-26.66400
30
111.00000
0
VERTEX
8
37_111000
10
22.49700
20
-26.42300
30
111.00000
0
VERTEX
8
37_111000
10
22.54200
20
-25.24600
30
111.00000
0
VERTEX
8
37_111000
10
22.54100
20
-25.10000
30
111.00000
0
VERTEX
8
37_111000
10
22.49900
20
-24.62800
30
111.00000
0
VERTEX
8
37_111000
10
22.48700
20
-24.14000
30
111.00000
0
VERTEX
8
37_111000
10
22.41800
20
-23.05900
30
111.00000
0
VERTEX
8
37_111000
10
22.54200
20
-22.33600
30
111.00000
0
VERTEX
8
37_111000
10
22.69900
20
-21.60600
30
111.00000
0
VERTEX
8
37_111000
10
22.95500
20
-20.50800
30
111.00000
0
VERTEX
8
37_111000
10
23.22600
20
-20.00800
30
111.00000
0
VERTEX
8
37_111000
10
23.38000
20
-19.69000
30
111.00000
0
VERTEX
8
37_111000
10
24.03100
20
-18.53300
30
111.00000
0
VERTEX
8
37_111000
10
24.28100
20
-18.06200
30
111.00000
0
VERTEX
8
37_111000
10
24.43400
20
-17.61400
30
111.00000
0
VERTEX
8
37_111000
10
24.56600
20
-17.29400
30
111.00000
0
VERTEX
8
37_111000
10
24.98200
20
-15.91600
30
111.00000
0
VERTEX
8
37_111000
10
25.02000
20
-15.73600
30
111.00000
0
VERTEX
8
37_111000
10
25.27000
20
-15.08400
30
111.00000
0
VERTEX
8
37_111000
10
25.36200
20
-14.71800
30
111.00000
0
VERTEX
8
37_111000
10
25.44900
20
-14.15200
30
111.00000
0
VERTEX
8
37_111000
10
25.54200
20
-13.37100
30
111.00000
0
VERTEX
8
37_111000
10
25.55400
20
-13.04200
30
111.00000
0
VERTEX
8
37_111000
10
25.62800
20
-12.47200
30
111.00000
0
VERTEX
8
37_111000
10
25.68400
20
-12.12500
30
111.00000
0
VERTEX
8
37_111000
10
25.85200
20
-10.59600
30
111.00000
0
VERTEX
8
37_111000
10
25.90500
20
-10.22500
30
111.00000
0
VERTEX
8
37_111000
10
25.90600
20
-9.58700
30
111.00000
0
VERTEX
8
37_111000
10
25.91700
20
-9.48200
30
111.00000
0
VERTEX
8
37_111000
10
26.08400
20
-8.38200
30
111.00000
0
VERTEX
8
37_111000
10
26.31100
20
-7.25500
30
111.00000
0
VERTEX
8
37_111000
10
26.82900
20
-4.16000
30
111.00000
0
VERTEX
8
37_111000
10
26.94600
20
-3.52200
30
111.00000
0
VERTEX
8
37_111000
10
27.03400
20
-3.12800
30
111.00000
0
VERTEX
8
37_111000
10
27.60200
20
0.33200
30
111.00000
0
VERTEX
8
37_111000
10
27.92200
20
2.12600
30
111.00000
0
VERTEX
8
37_111000
10
28.06600
20
3.17700
30
111.00000
0
VERTEX
8
37_111000
10
28.34400
20
5.66500
30
111.00000
0
VERTEX
8
37_111000
10
28.40600
20
6.44800
30
111.00000
0
VERTEX
8
37_111000
10
28.66600
20
8.83700
30
111.00000
0
VERTEX
8
37_111000
10
28.67800
20
9.10600
30
111.00000
0
VERTEX
8
37_111000
10
28.71300
20
9.47000
30
111.00000
0
VERTEX
8
37_111000
10
28.75700
20
10.51800
30
111.00000
0
VERTEX
8
37_111000
10
28.75200
20
12.25400
30
111.00000
0
VERTEX
8
37_111000
10
28.73100
20
12.96200
30
111.00000
0
VERTEX
8
37_111000
10
28.55800
20
15.02600
30
111.00000
0
VERTEX
8
37_111000
10
28.44300
20
15.86400
30
111.00000
0
VERTEX
8
37_111000
10
28.35100
20
16.66800
30
111.00000
0
VERTEX
8
37_111000
10
27.71900
20
20.04300
30
111.00000
0
VERTEX
8
37_111000
10
27.39100
20
21.56300
30
111.00000
0
VERTEX
8
37_111000
10
27.33400
20
21.77700
30
111.00000
0
VERTEX
8
37_111000
10
27.17000
20
22.48100
30
111.00000
0
VERTEX
8
37_111000
10
26.96500
20
23.15400
30
111.00000
0
VERTEX
8
37_111000
10
26.60200
20
24.45200
30
111.00000
0
VERTEX
8
37_111000
10
26.16500
20
26.33300
30
111.00000
0
VERTEX
8
37_111000
10
25.86100
20
27.52500
30
111.00000
0
VERTEX
8
37_111000
10
25.62500
20
28.64200
30
111.00000
0
VERTEX
8
37_111000
10
25.56100
20
29.08600
30
111.00000
0
VERTEX
8
37_111000
10
25.28100
20
30.54000
30
111.00000
0
VERTEX
8
37_111000
10
24.83900
20
32.73800
30
111.00000
0
VERTEX
8
37_111000
10
24.79700
20
33.38000
30
111.00000
0
VERTEX
8
37_111000
10
24.67300
20
34.31100
30
111.00000
0
VERTEX
8
37_111000
10
24.96000
20
38.82000
30
111.00000
0
VERTEX
8
37_111000
10
25.12900
20
39.61900
30
111.00000
0
VERTEX
8
37_111000
10
25.41600
20
40.83700
30
111.00000
0
VERTEX
8
37_111000
10
25.92400
20
41.81000
30
111.00000
0
VERTEX
8
37_111000
10
26.21800
20
42.32600
30
111.00000
0
VERTEX
8
37_111000
10
26.54800
20
42.94200
30
111.00000
0
VERTEX
8
37_111000
10
26.67500
20
43.21900
30
111.00000
0
VERTEX
8
37_111000
10
27.34100
20
45.75100
30
111.00000
0
VERTEX
8
37_111000
10
27.69600
20
46.97400
30
111.00000
0
VERTEX
8
37_111000
10
27.96600
20
47.95600
30
111.00000
0
VERTEX
8
37_111000
10
27.99500
20
48.08200
30
111.00000
0
VERTEX
8
37_111000
10
28.03000
20
48.35900
30
111.00000
0
VERTEX
8
37_111000
10
28.18000
20
49.67400
30
111.00000
0
VERTEX
8
37_111000
10
28.08900
20
50.47500
30
111.00000
0
VERTEX
8
37_111000
10
28.04600
20
51.04200
30
111.00000
0
VERTEX
8
37_111000
10
28.04000
20
51.26300
30
111.00000
0
VERTEX
8
37_111000
10
28.15000
20
51.90100
30
111.00000
0
VERTEX
8
37_111000
10
28.15100
20
51.96000
30
111.00000
0
VERTEX
8
37_111000
10
28.97900
20
54.17000
30
111.00000
0
VERTEX
8
37_111000
10
29.29800
20
55.48300
30
111.00000
0
VERTEX
8
37_111000
10
29.38800
20
55.90800
30
111.00000
0
VERTEX
8
37_111000
10
29.50700
20
56.20800
30
111.00000
0
VERTEX
8
37_111000
10
29.64900
20
56.47200
30
111.00000
0
VERTEX
8
37_111000
10
29.77100
20
56.64700
30
111.00000
0
VERTEX
8
37_111000
10
30.06500
20
57.16800
30
111.00000
0
VERTEX
8
37_111000
10
30.50700
20
57.79600
30
111.00000
0
VERTEX
8
37_111000
10
31.65800
20
58.90500
30
111.00000
0
VERTEX
8
37_111000
10
31.70400
20
58.95900
30
111.00000
0
VERTEX
8
37_111000
10
31.91100
20
59.42500
30
111.00000
0
VERTEX
8
37_111000
10
31.98000
20
59.83300
30
111.00000
0
VERTEX
8
37_111000
10
32.13200
20
60.27800
30
111.00000
0
VERTEX
8
37_111000
10
32.16500
20
60.47100
30
111.00000
0
VERTEX
8
37_111000
10
32.38300
20
60.94400
30
111.00000
0
VERTEX
8
37_111000
10
32.81100
20
61.83100
30
111.00000
0
VERTEX
8
37_111000
10
32.88000
20
62.05100
30
111.00000
0
VERTEX
8
37_111000
10
33.10400
20
63.29900
30
111.00000
0
VERTEX
8
37_111000
10
33.09700
20
63.99400
30
111.00000
0
VERTEX
8
37_111000
10
33.11300
20
66.58200
30
111.00000
0
VERTEX
8
37_111000
10
33.14800
20
67.96600
30
111.00000
0
VERTEX
8
37_111000
10
33.22600
20
68.54800
30
111.00000
0
VERTEX
8
37_111000
10
33.24500
20
69.71101
30
111.00000
0
VERTEX
8
37_111000
10
33.30800
20
70.24900
30
111.00000
0
VERTEX
8
37_111000
10
33.51800
20
71.30500
30
111.00000
0
VERTEX
8
37_111000
10
33.58500
20
72.27500
30
111.00000
0
VERTEX
8
37_111000
10
33.59300
20
72.76801
30
111.00000
0
VERTEX
8
37_111000
10
33.46000
20
74.81700
30
111.00000
0
VERTEX
8
37_111000
10
33.45800
20
75.03300
30
111.00000
0
VERTEX
8
37_111000
10
33.25500
20
75.92500
30
111.00000
0
VERTEX
8
37_111000
10
33.23700
20
76.26300
30
111.00000
0
VERTEX
8
37_111000
10
33.05300
20
77.29301
30
111.00000
0
VERTEX
8
37_111000
10
32.82800
20
78.08601
30
111.00000
0
VERTEX
8
37_111000
10
31.57700
20
80.93900
30
111.00000
0
VERTEX
8
37_111000
10
31.07700
20
81.96001
30
111.00000
0
VERTEX
8
37_111000
10
30.25500
20
83.96400
30
111.00000
0
VERTEX
8
37_111000
10
29.56700
20
85.48200
30
111.00000
0
VERTEX
8
37_111000
10
29.13500
20
86.53101
30
111.00000
0
VERTEX
8
37_111000
10
29.02100
20
86.77600
30
111.00000
0
VERTEX
8
37_111000
10
28.93800
20
86.98300
30
111.00000
0
VERTEX
8
37_111000
10
21.96900
20
88.14600
30
111.00000
0
VERTEX
8
37_111000
10
-56.17000
20
88.14600
30
111.00000
0
VERTEX
8
37_111000
10
-56.17000
20
85.43101
30
111.00000
0
SEQEND
8
37_111000
0
POLYLINE
8
37_111000
62
5
0
VERTEX
8
37_111000
10
-56.17000
20
90.49001
30
111.00000
0
VERTEX
8
37_111000
10
-56.17000
20
89.92600
30
111.00000
0
VERTEX
8
37_111000
10
11.30400
20
89.92600
30
111.00000
0
VERTEX
8
37_111000
10
2.34100
20
91.42200
30
111.00000
0
VERTEX
8
37_111000
10
-56.17000
20
91.42200
30
111.00000
0
VERTEX
8
37_111000
10
-56.17000
20
90.49001
30
111.00000
0
SEQEND
8
37_111000
0
POLYLINE
8
37_111000
62
5
0
VERTEX
8
37_111000
10
18.11000
20
88.79000
30
111.00000
0
VERTEX
8
37_111000
10
11.35200
20
89.91801
30
111.00000
0
VERTEX
8
37_111000
10
-56.17000
20
89.91801
30
111.00000
0
VERTEX
8
37_111000
10
-56.17000
20
88.14900
30
111.00000
0
VERTEX
8
37_111000
10
21.95300
20
88.14900
30
111.00000
0
VERTEX
8
37_111000
10
18.11000
20
88.79000
30
111.00000
0
SEQEND
8
37_111000
0
ENDSEC
0
EOF
