0
SECTION
2
HEADER
9
$ACADVER
1
AC1009
0
ENDSEC
0
SECTION
2
TABLES
0
TABLE
2
LAYER
70
1
0
LAYER
2
5_15000
70
0
62
7
6
CONTINUOUS
0
ENDTAB
0
ENDSEC
0
SECTION
2
BLOCKS
0
ENDSEC
0
SECTION
2
ENTITIES
0
POLYLINE
8
5_15000
62
5
0
VERTEX
8
5_15000
10
-51.09400
20
91.31800
30
15.00000
0
VERTEX
8
5_15000
10
2.96200
20
91.31800
30
15.00000
0
VERTEX
8
5_15000
10
2.91100
20
91.32700
30
15.00000
0
VERTEX
8
5_15000
10
-56.17000
20
91.32700
30
15.00000
0
VERTEX
8
5_15000
10
-56.17000
20
91.31800
30
15.00000
0
VERTEX
8
5_15000
10
-51.09400
20
91.31800
30
15.00000
0
SEQEND
8
5_15000
0
POLYLINE
8
5_15000
62
5
0
VERTEX
8
5_15000
10
-51.08900
20
91.31800
30
15.00000
0
VERTEX
8
5_15000
10
-56.17000
20
91.31800
30
15.00000
0
VERTEX
8
5_15000
10
-56.17000
20
91.30601
30
15.00000
0
VERTEX
8
5_15000
10
3.03100
20
91.30601
30
15.00000
0
VERTEX
8
5_15000
10
2.96600
20
91.31800
30
15.00000
0
VERTEX
8
5_15000
10
-51.08900
20
91.31800
30
15.00000
0
SEQEND
8
5_15000
0
POLYLINE
8
5_15000
62
5
0
VERTEX
8
5_15000
10
-50.86100
20
91.27300
30
15.00000
0
VERTEX
8
5_15000
10
3.23000
20
91.27300
30
15.00000
0
VERTEX
8
5_15000
10
3.03300
20
91.30601
30
15.00000
0
VERTEX
8
5_15000
10
-56.17000
20
91.30601
30
15.00000
0
VERTEX
8
5_15000
10
-56.17000
20
91.27300
30
15.00000
0
VERTEX
8
5_15000
10
-50.86100
20
91.27300
30
15.00000
0
SEQEND
8
5_15000
0
POLYLINE
8
5_15000
62
5
0
VERTEX
8
5_15000
10
-15.25300
20
90.90501
30
15.00000
0
VERTEX
8
5_15000
10
-56.17000
20
90.90501
30
15.00000
0
VERTEX
8
5_15000
10
-56.17000
20
-92.11401
30
15.00000
0
VERTEX
8
5_15000
10
-5.88200
20
-92.11401
30
15.00000
0
VERTEX
8
5_15000
10
-6.00100
20
-91.83200
30
15.00000
0
VERTEX
8
5_15000
10
-7.02400
20
-89.13400
30
15.00000
0
VERTEX
8
5_15000
10
-7.10100
20
-88.91100
30
15.00000
0
VERTEX
8
5_15000
10
-7.22600
20
-88.61600
30
15.00000
0
VERTEX
8
5_15000
10
-7.62900
20
-87.51300
30
15.00000
0
VERTEX
8
5_15000
10
-7.91000
20
-86.64400
30
15.00000
0
VERTEX
8
5_15000
10
-8.91400
20
-83.67001
30
15.00000
0
VERTEX
8
5_15000
10
-9.20800
20
-82.82201
30
15.00000
0
VERTEX
8
5_15000
10
-9.46800
20
-81.89400
30
15.00000
0
VERTEX
8
5_15000
10
-9.60500
20
-81.48600
30
15.00000
0
VERTEX
8
5_15000
10
-10.14800
20
-79.57800
30
15.00000
0
VERTEX
8
5_15000
10
-10.18600
20
-79.30500
30
15.00000
0
VERTEX
8
5_15000
10
-10.56600
20
-77.89900
30
15.00000
0
VERTEX
8
5_15000
10
-10.78000
20
-77.07401
30
15.00000
0
VERTEX
8
5_15000
10
-10.83300
20
-76.77700
30
15.00000
0
VERTEX
8
5_15000
10
-10.88500
20
-76.20100
30
15.00000
0
VERTEX
8
5_15000
10
-11.15900
20
-74.12701
30
15.00000
0
VERTEX
8
5_15000
10
-11.16600
20
-73.67400
30
15.00000
0
VERTEX
8
5_15000
10
-11.28800
20
-71.63200
30
15.00000
0
VERTEX
8
5_15000
10
-11.28100
20
-71.15300
30
15.00000
0
VERTEX
8
5_15000
10
-11.30600
20
-70.17700
30
15.00000
0
VERTEX
8
5_15000
10
-11.28900
20
-69.37701
30
15.00000
0
VERTEX
8
5_15000
10
-11.29700
20
-68.55500
30
15.00000
0
VERTEX
8
5_15000
10
-11.26200
20
-68.12200
30
15.00000
0
VERTEX
8
5_15000
10
-11.25000
20
-67.70600
30
15.00000
0
VERTEX
8
5_15000
10
-11.21400
20
-67.32500
30
15.00000
0
VERTEX
8
5_15000
10
-11.04400
20
-66.52901
30
15.00000
0
VERTEX
8
5_15000
10
-11.03100
20
-66.47200
30
15.00000
0
VERTEX
8
5_15000
10
-10.65700
20
-65.66300
30
15.00000
0
VERTEX
8
5_15000
10
-10.63900
20
-65.60201
30
15.00000
0
VERTEX
8
5_15000
10
-10.20900
20
-64.81600
30
15.00000
0
VERTEX
8
5_15000
10
-10.14100
20
-64.66200
30
15.00000
0
VERTEX
8
5_15000
10
-9.32300
20
-63.37900
30
15.00000
0
VERTEX
8
5_15000
10
-9.06400
20
-63.04500
30
15.00000
0
VERTEX
8
5_15000
10
-7.45700
20
-60.76500
30
15.00000
0
VERTEX
8
5_15000
10
-7.06000
20
-60.14300
30
15.00000
0
VERTEX
8
5_15000
10
-6.49000
20
-59.42200
30
15.00000
0
VERTEX
8
5_15000
10
-5.93000
20
-58.68500
30
15.00000
0
VERTEX
8
5_15000
10
-5.51900
20
-58.09200
30
15.00000
0
VERTEX
8
5_15000
10
-5.05100
20
-57.49000
30
15.00000
0
VERTEX
8
5_15000
10
-4.25500
20
-56.19600
30
15.00000
0
VERTEX
8
5_15000
10
-3.72500
20
-55.50900
30
15.00000
0
VERTEX
8
5_15000
10
-2.98400
20
-54.52600
30
15.00000
0
VERTEX
8
5_15000
10
-2.71400
20
-54.07300
30
15.00000
0
VERTEX
8
5_15000
10
-2.35800
20
-53.29600
30
15.00000
0
VERTEX
8
5_15000
10
-2.25500
20
-53.11100
30
15.00000
0
VERTEX
8
5_15000
10
-1.95400
20
-52.48100
30
15.00000
0
VERTEX
8
5_15000
10
-1.84300
20
-52.13800
30
15.00000
0
VERTEX
8
5_15000
10
-1.79500
20
-52.02700
30
15.00000
0
VERTEX
8
5_15000
10
-1.76200
20
-51.97800
30
15.00000
0
VERTEX
8
5_15000
10
-1.51500
20
-51.33400
30
15.00000
0
VERTEX
8
5_15000
10
-1.50000
20
-51.22700
30
15.00000
0
VERTEX
8
5_15000
10
-1.45900
20
-51.13000
30
15.00000
0
VERTEX
8
5_15000
10
-1.22500
20
-50.10000
30
15.00000
0
VERTEX
8
5_15000
10
-0.97200
20
-49.67800
30
15.00000
0
VERTEX
8
5_15000
10
-0.62400
20
-48.43300
30
15.00000
0
VERTEX
8
5_15000
10
-0.61600
20
-48.12300
30
15.00000
0
VERTEX
8
5_15000
10
-0.63000
20
-47.90200
30
15.00000
0
VERTEX
8
5_15000
10
-0.60700
20
-47.66400
30
15.00000
0
VERTEX
8
5_15000
10
-0.32200
20
-46.96900
30
15.00000
0
VERTEX
8
5_15000
10
0.43600
20
-45.17700
30
15.00000
0
VERTEX
8
5_15000
10
0.85500
20
-44.53400
30
15.00000
0
VERTEX
8
5_15000
10
1.34700
20
-43.72200
30
15.00000
0
VERTEX
8
5_15000
10
1.99100
20
-42.80300
30
15.00000
0
VERTEX
8
5_15000
10
2.51700
20
-42.14400
30
15.00000
0
VERTEX
8
5_15000
10
2.55700
20
-42.01200
30
15.00000
0
VERTEX
8
5_15000
10
2.53900
20
-41.90600
30
15.00000
0
VERTEX
8
5_15000
10
2.83400
20
-41.52200
30
15.00000
0
VERTEX
8
5_15000
10
2.86500
20
-41.29200
30
15.00000
0
VERTEX
8
5_15000
10
2.99900
20
-41.01600
30
15.00000
0
VERTEX
8
5_15000
10
3.09400
20
-40.85800
30
15.00000
0
VERTEX
8
5_15000
10
3.21500
20
-40.57700
30
15.00000
0
VERTEX
8
5_15000
10
3.98200
20
-39.08600
30
15.00000
0
VERTEX
8
5_15000
10
4.20400
20
-38.43800
30
15.00000
0
VERTEX
8
5_15000
10
4.60600
20
-37.39100
30
15.00000
0
VERTEX
8
5_15000
10
4.76800
20
-36.83200
30
15.00000
0
VERTEX
8
5_15000
10
5.08100
20
-35.67900
30
15.00000
0
VERTEX
8
5_15000
10
5.22400
20
-35.04000
30
15.00000
0
VERTEX
8
5_15000
10
5.29300
20
-34.80000
30
15.00000
0
VERTEX
8
5_15000
10
5.32500
20
-34.59300
30
15.00000
0
VERTEX
8
5_15000
10
5.41000
20
-34.27300
30
15.00000
0
VERTEX
8
5_15000
10
5.64600
20
-33.63800
30
15.00000
0
VERTEX
8
5_15000
10
5.84600
20
-33.18700
30
15.00000
0
VERTEX
8
5_15000
10
6.18200
20
-32.31800
30
15.00000
0
VERTEX
8
5_15000
10
6.32300
20
-31.61800
30
15.00000
0
VERTEX
8
5_15000
10
6.36100
20
-31.51500
30
15.00000
0
VERTEX
8
5_15000
10
6.49100
20
-31.28800
30
15.00000
0
VERTEX
8
5_15000
10
6.65100
20
-30.71500
30
15.00000
0
VERTEX
8
5_15000
10
6.69300
20
-30.41800
30
15.00000
0
VERTEX
8
5_15000
10
7.00500
20
-29.27000
30
15.00000
0
VERTEX
8
5_15000
10
7.41800
20
-28.34200
30
15.00000
0
VERTEX
8
5_15000
10
7.66300
20
-27.81100
30
15.00000
0
VERTEX
8
5_15000
10
7.68500
20
-27.78000
30
15.00000
0
VERTEX
8
5_15000
10
7.75300
20
-27.57100
30
15.00000
0
VERTEX
8
5_15000
10
8.18400
20
-26.39500
30
15.00000
0
VERTEX
8
5_15000
10
8.44000
20
-25.52500
30
15.00000
0
VERTEX
8
5_15000
10
8.84100
20
-24.35700
30
15.00000
0
VERTEX
8
5_15000
10
8.86300
20
-24.27200
30
15.00000
0
VERTEX
8
5_15000
10
9.00700
20
-23.14300
30
15.00000
0
VERTEX
8
5_15000
10
9.00300
20
-23.08300
30
15.00000
0
VERTEX
8
5_15000
10
9.34100
20
-21.19700
30
15.00000
0
VERTEX
8
5_15000
10
9.86000
20
-18.65100
30
15.00000
0
VERTEX
8
5_15000
10
10.44500
20
-16.95100
30
15.00000
0
VERTEX
8
5_15000
10
10.54200
20
-16.63800
30
15.00000
0
VERTEX
8
5_15000
10
10.83200
20
-15.38600
30
15.00000
0
VERTEX
8
5_15000
10
11.04900
20
-14.76200
30
15.00000
0
VERTEX
8
5_15000
10
11.17900
20
-14.28500
30
15.00000
0
VERTEX
8
5_15000
10
12.09200
20
-11.55600
30
15.00000
0
VERTEX
8
5_15000
10
12.23400
20
-10.90800
30
15.00000
0
VERTEX
8
5_15000
10
12.45800
20
-10.09900
30
15.00000
0
VERTEX
8
5_15000
10
12.76500
20
-8.91100
30
15.00000
0
VERTEX
8
5_15000
10
13.47700
20
-6.37800
30
15.00000
0
VERTEX
8
5_15000
10
13.84800
20
-4.52500
30
15.00000
0
VERTEX
8
5_15000
10
14.24600
20
-2.44200
30
15.00000
0
VERTEX
8
5_15000
10
14.35200
20
-1.53500
30
15.00000
0
VERTEX
8
5_15000
10
14.44800
20
-0.97800
30
15.00000
0
VERTEX
8
5_15000
10
14.97000
20
5.07800
30
15.00000
0
VERTEX
8
5_15000
10
15.01100
20
6.19100
30
15.00000
0
VERTEX
8
5_15000
10
14.96600
20
14.15400
30
15.00000
0
VERTEX
8
5_15000
10
15.02300
20
19.32300
30
15.00000
0
VERTEX
8
5_15000
10
15.01500
20
21.56600
30
15.00000
0
VERTEX
8
5_15000
10
15.00700
20
21.97200
30
15.00000
0
VERTEX
8
5_15000
10
14.79200
20
24.60000
30
15.00000
0
VERTEX
8
5_15000
10
14.62600
20
25.50200
30
15.00000
0
VERTEX
8
5_15000
10
14.51600
20
26.53900
30
15.00000
0
VERTEX
8
5_15000
10
14.31900
20
27.51000
30
15.00000
0
VERTEX
8
5_15000
10
14.19300
20
28.27700
30
15.00000
0
VERTEX
8
5_15000
10
13.52900
20
31.36400
30
15.00000
0
VERTEX
8
5_15000
10
13.48700
20
31.53000
30
15.00000
0
VERTEX
8
5_15000
10
12.99300
20
33.92600
30
15.00000
0
VERTEX
8
5_15000
10
12.74900
20
35.30500
30
15.00000
0
VERTEX
8
5_15000
10
12.29400
20
37.70400
30
15.00000
0
VERTEX
8
5_15000
10
12.20400
20
38.14700
30
15.00000
0
VERTEX
8
5_15000
10
12.10300
20
38.59200
30
15.00000
0
VERTEX
8
5_15000
10
12.10500
20
38.75400
30
15.00000
0
VERTEX
8
5_15000
10
12.00600
20
39.75200
30
15.00000
0
VERTEX
8
5_15000
10
11.68700
20
41.23800
30
15.00000
0
VERTEX
8
5_15000
10
11.64700
20
41.87300
30
15.00000
0
VERTEX
8
5_15000
10
11.69000
20
42.19000
30
15.00000
0
VERTEX
8
5_15000
10
11.61900
20
43.08100
30
15.00000
0
VERTEX
8
5_15000
10
11.81000
20
44.11700
30
15.00000
0
VERTEX
8
5_15000
10
11.73000
20
45.38800
30
15.00000
0
VERTEX
8
5_15000
10
11.74000
20
45.44400
30
15.00000
0
VERTEX
8
5_15000
10
11.92100
20
46.09100
30
15.00000
0
VERTEX
8
5_15000
10
11.98100
20
46.24300
30
15.00000
0
VERTEX
8
5_15000
10
12.05800
20
46.95600
30
15.00000
0
VERTEX
8
5_15000
10
12.46600
20
49.80200
30
15.00000
0
VERTEX
8
5_15000
10
12.53200
20
50.18000
30
15.00000
0
VERTEX
8
5_15000
10
12.87300
20
51.41300
30
15.00000
0
VERTEX
8
5_15000
10
13.70500
20
53.84600
30
15.00000
0
VERTEX
8
5_15000
10
14.14400
20
55.19600
30
15.00000
0
VERTEX
8
5_15000
10
14.25200
20
55.56200
30
15.00000
0
VERTEX
8
5_15000
10
14.60000
20
56.91200
30
15.00000
0
VERTEX
8
5_15000
10
14.87900
20
57.53300
30
15.00000
0
VERTEX
8
5_15000
10
15.50100
20
59.16700
30
15.00000
0
VERTEX
8
5_15000
10
15.49800
20
59.20600
30
15.00000
0
VERTEX
8
5_15000
10
15.82100
20
60.57000
30
15.00000
0
VERTEX
8
5_15000
10
16.11800
20
61.34600
30
15.00000
0
VERTEX
8
5_15000
10
16.20300
20
61.82200
30
15.00000
0
VERTEX
8
5_15000
10
16.36200
20
62.53800
30
15.00000
0
VERTEX
8
5_15000
10
16.50100
20
62.96800
30
15.00000
0
VERTEX
8
5_15000
10
16.58700
20
63.41200
30
15.00000
0
VERTEX
8
5_15000
10
16.61300
20
63.61600
30
15.00000
0
VERTEX
8
5_15000
10
17.19900
20
67.22900
30
15.00000
0
VERTEX
8
5_15000
10
17.23200
20
67.72401
30
15.00000
0
VERTEX
8
5_15000
10
17.30900
20
68.26900
30
15.00000
0
VERTEX
8
5_15000
10
17.26900
20
69.23000
30
15.00000
0
VERTEX
8
5_15000
10
17.26400
20
70.10201
30
15.00000
0
VERTEX
8
5_15000
10
17.10400
20
71.18100
30
15.00000
0
VERTEX
8
5_15000
10
17.09700
20
71.27000
30
15.00000
0
VERTEX
8
5_15000
10
17.14500
20
71.69801
30
15.00000
0
VERTEX
8
5_15000
10
17.01800
20
73.38700
30
15.00000
0
VERTEX
8
5_15000
10
16.85400
20
74.76300
30
15.00000
0
VERTEX
8
5_15000
10
16.44600
20
77.31900
30
15.00000
0
VERTEX
8
5_15000
10
16.03900
20
79.48000
30
15.00000
0
VERTEX
8
5_15000
10
15.97000
20
80.07001
30
15.00000
0
VERTEX
8
5_15000
10
15.55100
20
82.09700
30
15.00000
0
VERTEX
8
5_15000
10
15.45200
20
82.76701
30
15.00000
0
VERTEX
8
5_15000
10
15.43400
20
83.09300
30
15.00000
0
VERTEX
8
5_15000
10
15.04100
20
84.86700
30
15.00000
0
VERTEX
8
5_15000
10
14.83700
20
85.83601
30
15.00000
0
VERTEX
8
5_15000
10
14.28900
20
87.84600
30
15.00000
0
VERTEX
8
5_15000
10
14.17400
20
88.31600
30
15.00000
0
VERTEX
8
5_15000
10
13.91800
20
89.48901
30
15.00000
0
VERTEX
8
5_15000
10
5.43800
20
90.90501
30
15.00000
0
VERTEX
8
5_15000
10
-15.25300
20
90.90501
30
15.00000
0
SEQEND
8
5_15000
0
POLYLINE
8
5_15000
62
5
0
VERTEX
8
5_15000
10
-50.45300
20
91.10500
30
15.00000
0
VERTEX
8
5_15000
10
4.24000
20
91.10500
30
15.00000
0
VERTEX
8
5_15000
10
3.23300
20
91.27300
30
15.00000
0
VERTEX
8
5_15000
10
-56.17000
20
91.27300
30
15.00000
0
VERTEX
8
5_15000
10
-56.17000
20
91.10500
30
15.00000
0
VERTEX
8
5_15000
10
-50.45300
20
91.10500
30
15.00000
0
SEQEND
8
5_15000
0
POLYLINE
8
5_15000
62
5
0
VERTEX
8
5_15000
10
4.95800
20
90.98400
30
15.00000
0
VERTEX
8
5_15000
10
4.24500
20
91.10400
30
15.00000
0
VERTEX
8
5_15000
10
-56.17000
20
91.10400
30
15.00000
0
VERTEX
8
5_15000
10
-56.17000
20
90.90501
30
15.00000
0
VERTEX
8
5_15000
10
5.43700
20
90.90501
30
15.00000
0
VERTEX
8
5_15000
10
4.95800
20
90.98400
30
15.00000
0
SEQEND
8
5_15000
0
ENDSEC
0
EOF
