0
SECTION
2
HEADER
9
$ACADVER
1
AC1009
0
ENDSEC
0
SECTION
2
TABLES
0
TABLE
2
LAYER
70
1
0
LAYER
2
1_3000
70
0
62
7
6
CONTINUOUS
0
ENDTAB
0
ENDSEC
0
SECTION
2
BLOCKS
0
ENDSEC
0
SECTION
2
ENTITIES
0
POLYLINE
8
1_3000
62
5
0
VERTEX
8
1_3000
10
-56.17000
20
74.47800
30
3.00000
0
VERTEX
8
1_3000
10
-56.17000
20
-92.11401
30
3.00000
0
VERTEX
8
1_3000
10
-7.89900
20
-92.11401
30
3.00000
0
VERTEX
8
1_3000
10
-8.19100
20
-91.26601
30
3.00000
0
VERTEX
8
1_3000
10
-8.21400
20
-91.18201
30
3.00000
0
VERTEX
8
1_3000
10
-8.73700
20
-89.74800
30
3.00000
0
VERTEX
8
1_3000
10
-9.77700
20
-86.24300
30
3.00000
0
VERTEX
8
1_3000
10
-9.83200
20
-86.03101
30
3.00000
0
VERTEX
8
1_3000
10
-10.78200
20
-81.96101
30
3.00000
0
VERTEX
8
1_3000
10
-10.96600
20
-81.20800
30
3.00000
0
VERTEX
8
1_3000
10
-11.38300
20
-79.21101
30
3.00000
0
VERTEX
8
1_3000
10
-11.47600
20
-78.81600
30
3.00000
0
VERTEX
8
1_3000
10
-11.50500
20
-78.48000
30
3.00000
0
VERTEX
8
1_3000
10
-11.88000
20
-76.19200
30
3.00000
0
VERTEX
8
1_3000
10
-12.06000
20
-74.40501
30
3.00000
0
VERTEX
8
1_3000
10
-12.13300
20
-73.56001
30
3.00000
0
VERTEX
8
1_3000
10
-12.25700
20
-71.59400
30
3.00000
0
VERTEX
8
1_3000
10
-12.30100
20
-70.30701
30
3.00000
0
VERTEX
8
1_3000
10
-12.29300
20
-70.10400
30
3.00000
0
VERTEX
8
1_3000
10
-12.29100
20
-69.35700
30
3.00000
0
VERTEX
8
1_3000
10
-12.29800
20
-68.26300
30
3.00000
0
VERTEX
8
1_3000
10
-12.31300
20
-67.49900
30
3.00000
0
VERTEX
8
1_3000
10
-12.20000
20
-65.55300
30
3.00000
0
VERTEX
8
1_3000
10
-12.07700
20
-63.72300
30
3.00000
0
VERTEX
8
1_3000
10
-12.02200
20
-63.13900
30
3.00000
0
VERTEX
8
1_3000
10
-11.86000
20
-62.04100
30
3.00000
0
VERTEX
8
1_3000
10
-11.72500
20
-61.42000
30
3.00000
0
VERTEX
8
1_3000
10
-11.62500
20
-60.52600
30
3.00000
0
VERTEX
8
1_3000
10
-11.44500
20
-59.63500
30
3.00000
0
VERTEX
8
1_3000
10
-11.18600
20
-58.65400
30
3.00000
0
VERTEX
8
1_3000
10
-11.10000
20
-58.20700
30
3.00000
0
VERTEX
8
1_3000
10
-10.41800
20
-55.32600
30
3.00000
0
VERTEX
8
1_3000
10
-9.93700
20
-53.49400
30
3.00000
0
VERTEX
8
1_3000
10
-9.76700
20
-52.79600
30
3.00000
0
VERTEX
8
1_3000
10
-9.46900
20
-51.76000
30
3.00000
0
VERTEX
8
1_3000
10
-9.06400
20
-50.16500
30
3.00000
0
VERTEX
8
1_3000
10
-8.80700
20
-49.07500
30
3.00000
0
VERTEX
8
1_3000
10
-8.70300
20
-48.68400
30
3.00000
0
VERTEX
8
1_3000
10
-8.42700
20
-47.50400
30
3.00000
0
VERTEX
8
1_3000
10
-8.22900
20
-46.54400
30
3.00000
0
VERTEX
8
1_3000
10
-8.02600
20
-45.89400
30
3.00000
0
VERTEX
8
1_3000
10
-7.90500
20
-45.07900
30
3.00000
0
VERTEX
8
1_3000
10
-7.70800
20
-44.08600
30
3.00000
0
VERTEX
8
1_3000
10
-7.68300
20
-42.98800
30
3.00000
0
VERTEX
8
1_3000
10
-7.65900
20
-42.71700
30
3.00000
0
VERTEX
8
1_3000
10
-7.82800
20
-42.03100
30
3.00000
0
VERTEX
8
1_3000
10
-7.82700
20
-41.31400
30
3.00000
0
VERTEX
8
1_3000
10
-7.77800
20
-41.22000
30
3.00000
0
VERTEX
8
1_3000
10
-7.78400
20
-41.12400
30
3.00000
0
VERTEX
8
1_3000
10
-7.70000
20
-40.53400
30
3.00000
0
VERTEX
8
1_3000
10
-7.69200
20
-40.34000
30
3.00000
0
VERTEX
8
1_3000
10
-7.59100
20
-40.04200
30
3.00000
0
VERTEX
8
1_3000
10
-7.41000
20
-39.79400
30
3.00000
0
VERTEX
8
1_3000
10
-7.37600
20
-39.41200
30
3.00000
0
VERTEX
8
1_3000
10
-7.25200
20
-39.23600
30
3.00000
0
VERTEX
8
1_3000
10
-7.27300
20
-39.05800
30
3.00000
0
VERTEX
8
1_3000
10
-7.21800
20
-38.74800
30
3.00000
0
VERTEX
8
1_3000
10
-7.20200
20
-38.45800
30
3.00000
0
VERTEX
8
1_3000
10
-7.20200
20
-38.07200
30
3.00000
0
VERTEX
8
1_3000
10
-7.12300
20
-37.89000
30
3.00000
0
VERTEX
8
1_3000
10
-6.82800
20
-37.14000
30
3.00000
0
VERTEX
8
1_3000
10
-6.76000
20
-36.70900
30
3.00000
0
VERTEX
8
1_3000
10
-6.63900
20
-36.39400
30
3.00000
0
VERTEX
8
1_3000
10
-6.42200
20
-35.92400
30
3.00000
0
VERTEX
8
1_3000
10
-6.27200
20
-35.64800
30
3.00000
0
VERTEX
8
1_3000
10
-6.20300
20
-35.27900
30
3.00000
0
VERTEX
8
1_3000
10
-5.98200
20
-34.89600
30
3.00000
0
VERTEX
8
1_3000
10
-5.96800
20
-34.84700
30
3.00000
0
VERTEX
8
1_3000
10
-5.56000
20
-33.88600
30
3.00000
0
VERTEX
8
1_3000
10
-5.50900
20
-33.78500
30
3.00000
0
VERTEX
8
1_3000
10
-5.46100
20
-33.73500
30
3.00000
0
VERTEX
8
1_3000
10
-5.36600
20
-33.52900
30
3.00000
0
VERTEX
8
1_3000
10
-5.33000
20
-33.27800
30
3.00000
0
VERTEX
8
1_3000
10
-5.05500
20
-32.53300
30
3.00000
0
VERTEX
8
1_3000
10
-4.90000
20
-32.15700
30
3.00000
0
VERTEX
8
1_3000
10
-4.81900
20
-31.93900
30
3.00000
0
VERTEX
8
1_3000
10
-4.60500
20
-31.48600
30
3.00000
0
VERTEX
8
1_3000
10
-4.44100
20
-31.22000
30
3.00000
0
VERTEX
8
1_3000
10
-3.77900
20
-29.69900
30
3.00000
0
VERTEX
8
1_3000
10
-3.75600
20
-29.36900
30
3.00000
0
VERTEX
8
1_3000
10
-3.72500
20
-29.31100
30
3.00000
0
VERTEX
8
1_3000
10
-3.70200
20
-29.18200
30
3.00000
0
VERTEX
8
1_3000
10
-3.17600
20
-27.65400
30
3.00000
0
VERTEX
8
1_3000
10
-3.00700
20
-27.25700
30
3.00000
0
VERTEX
8
1_3000
10
-2.91700
20
-26.95400
30
3.00000
0
VERTEX
8
1_3000
10
-2.86000
20
-26.87200
30
3.00000
0
VERTEX
8
1_3000
10
-2.68500
20
-26.57700
30
3.00000
0
VERTEX
8
1_3000
10
-2.35200
20
-25.93000
30
3.00000
0
VERTEX
8
1_3000
10
-2.13000
20
-25.40000
30
3.00000
0
VERTEX
8
1_3000
10
-2.12000
20
-25.34500
30
3.00000
0
VERTEX
8
1_3000
10
-1.93400
20
-24.97900
30
3.00000
0
VERTEX
8
1_3000
10
-1.75500
20
-24.58600
30
3.00000
0
VERTEX
8
1_3000
10
-1.74000
20
-24.52600
30
3.00000
0
VERTEX
8
1_3000
10
-1.77800
20
-23.82200
30
3.00000
0
VERTEX
8
1_3000
10
-1.37000
20
-22.65400
30
3.00000
0
VERTEX
8
1_3000
10
-1.29500
20
-22.12100
30
3.00000
0
VERTEX
8
1_3000
10
-1.30700
20
-21.99600
30
3.00000
0
VERTEX
8
1_3000
10
-1.29900
20
-21.92300
30
3.00000
0
VERTEX
8
1_3000
10
-0.94500
20
-20.62900
30
3.00000
0
VERTEX
8
1_3000
10
-0.90300
20
-20.50300
30
3.00000
0
VERTEX
8
1_3000
10
-0.84600
20
-20.21800
30
3.00000
0
VERTEX
8
1_3000
10
-0.74100
20
-19.80600
30
3.00000
0
VERTEX
8
1_3000
10
-0.57700
20
-19.03300
30
3.00000
0
VERTEX
8
1_3000
10
-0.51400
20
-18.77400
30
3.00000
0
VERTEX
8
1_3000
10
-0.41200
20
-18.08300
30
3.00000
0
VERTEX
8
1_3000
10
-0.16000
20
-16.67100
30
3.00000
0
VERTEX
8
1_3000
10
-0.09700
20
-16.39800
30
3.00000
0
VERTEX
8
1_3000
10
0.03500
20
-15.91000
30
3.00000
0
VERTEX
8
1_3000
10
0.22300
20
-14.98400
30
3.00000
0
VERTEX
8
1_3000
10
0.22900
20
-14.94500
30
3.00000
0
VERTEX
8
1_3000
10
0.17400
20
-14.33200
30
3.00000
0
VERTEX
8
1_3000
10
0.10000
20
-14.20500
30
3.00000
0
VERTEX
8
1_3000
10
0.11500
20
-13.83800
30
3.00000
0
VERTEX
8
1_3000
10
0.18200
20
-12.70500
30
3.00000
0
VERTEX
8
1_3000
10
0.49100
20
-11.57000
30
3.00000
0
VERTEX
8
1_3000
10
0.48100
20
-11.45400
30
3.00000
0
VERTEX
8
1_3000
10
0.50500
20
-11.04200
30
3.00000
0
VERTEX
8
1_3000
10
0.54600
20
-10.84400
30
3.00000
0
VERTEX
8
1_3000
10
0.58200
20
-10.54000
30
3.00000
0
VERTEX
8
1_3000
10
0.70900
20
-9.87800
30
3.00000
0
VERTEX
8
1_3000
10
0.70700
20
-9.81500
30
3.00000
0
VERTEX
8
1_3000
10
0.74000
20
-9.62300
30
3.00000
0
VERTEX
8
1_3000
10
0.72400
20
-9.40800
30
3.00000
0
VERTEX
8
1_3000
10
0.80700
20
-8.79600
30
3.00000
0
VERTEX
8
1_3000
10
0.94700
20
-8.37200
30
3.00000
0
VERTEX
8
1_3000
10
1.00400
20
-8.10000
30
3.00000
0
VERTEX
8
1_3000
10
1.05600
20
-7.90800
30
3.00000
0
VERTEX
8
1_3000
10
1.24200
20
-6.99300
30
3.00000
0
VERTEX
8
1_3000
10
1.26700
20
-6.19600
30
3.00000
0
VERTEX
8
1_3000
10
1.36000
20
-5.76800
30
3.00000
0
VERTEX
8
1_3000
10
1.44300
20
-5.30900
30
3.00000
0
VERTEX
8
1_3000
10
1.49600
20
-4.80200
30
3.00000
0
VERTEX
8
1_3000
10
1.50300
20
-4.61100
30
3.00000
0
VERTEX
8
1_3000
10
1.58300
20
-3.97100
30
3.00000
0
VERTEX
8
1_3000
10
1.57500
20
-3.59200
30
3.00000
0
VERTEX
8
1_3000
10
1.59000
20
-3.05100
30
3.00000
0
VERTEX
8
1_3000
10
1.54700
20
-2.52900
30
3.00000
0
VERTEX
8
1_3000
10
1.47800
20
-2.26800
30
3.00000
0
VERTEX
8
1_3000
10
1.47800
20
-2.14600
30
3.00000
0
VERTEX
8
1_3000
10
1.54500
20
-1.76000
30
3.00000
0
VERTEX
8
1_3000
10
1.56300
20
-1.57100
30
3.00000
0
VERTEX
8
1_3000
10
1.55800
20
-1.46300
30
3.00000
0
VERTEX
8
1_3000
10
1.31300
20
-0.65300
30
3.00000
0
VERTEX
8
1_3000
10
1.21200
20
0.87000
30
3.00000
0
VERTEX
8
1_3000
10
1.26800
20
1.36800
30
3.00000
0
VERTEX
8
1_3000
10
1.30900
20
3.01000
30
3.00000
0
VERTEX
8
1_3000
10
1.35100
20
3.66100
30
3.00000
0
VERTEX
8
1_3000
10
1.47300
20
5.17800
30
3.00000
0
VERTEX
8
1_3000
10
1.44900
20
5.76100
30
3.00000
0
VERTEX
8
1_3000
10
1.39800
20
6.34000
30
3.00000
0
VERTEX
8
1_3000
10
1.39300
20
6.70800
30
3.00000
0
VERTEX
8
1_3000
10
1.41700
20
6.94700
30
3.00000
0
VERTEX
8
1_3000
10
1.41900
20
7.07300
30
3.00000
0
VERTEX
8
1_3000
10
1.45000
20
7.45000
30
3.00000
0
VERTEX
8
1_3000
10
1.44100
20
7.75300
30
3.00000
0
VERTEX
8
1_3000
10
1.40500
20
8.18100
30
3.00000
0
VERTEX
8
1_3000
10
1.45200
20
8.85900
30
3.00000
0
VERTEX
8
1_3000
10
1.45400
20
9.35900
30
3.00000
0
VERTEX
8
1_3000
10
1.41900
20
9.84200
30
3.00000
0
VERTEX
8
1_3000
10
1.27100
20
10.29000
30
3.00000
0
VERTEX
8
1_3000
10
1.23400
20
10.48500
30
3.00000
0
VERTEX
8
1_3000
10
1.22900
20
10.85600
30
3.00000
0
VERTEX
8
1_3000
10
1.09700
20
11.99100
30
3.00000
0
VERTEX
8
1_3000
10
1.10100
20
12.09000
30
3.00000
0
VERTEX
8
1_3000
10
1.09000
20
12.28600
30
3.00000
0
VERTEX
8
1_3000
10
1.17100
20
13.24000
30
3.00000
0
VERTEX
8
1_3000
10
1.08900
20
13.80600
30
3.00000
0
VERTEX
8
1_3000
10
1.07600
20
14.09400
30
3.00000
0
VERTEX
8
1_3000
10
1.11800
20
14.85100
30
3.00000
0
VERTEX
8
1_3000
10
1.18200
20
15.79600
30
3.00000
0
VERTEX
8
1_3000
10
1.17400
20
16.17500
30
3.00000
0
VERTEX
8
1_3000
10
1.06400
20
16.76200
30
3.00000
0
VERTEX
8
1_3000
10
1.00600
20
17.31800
30
3.00000
0
VERTEX
8
1_3000
10
0.94100
20
18.40500
30
3.00000
0
VERTEX
8
1_3000
10
0.92300
20
19.16300
30
3.00000
0
VERTEX
8
1_3000
10
0.97200
20
19.43200
30
3.00000
0
VERTEX
8
1_3000
10
0.97500
20
19.61300
30
3.00000
0
VERTEX
8
1_3000
10
0.80800
20
20.98400
30
3.00000
0
VERTEX
8
1_3000
10
0.78300
20
21.71200
30
3.00000
0
VERTEX
8
1_3000
10
0.77000
20
21.82500
30
3.00000
0
VERTEX
8
1_3000
10
0.77400
20
21.88100
30
3.00000
0
VERTEX
8
1_3000
10
0.76500
20
21.99400
30
3.00000
0
VERTEX
8
1_3000
10
0.76500
20
22.60500
30
3.00000
0
VERTEX
8
1_3000
10
0.81000
20
23.01800
30
3.00000
0
VERTEX
8
1_3000
10
0.71700
20
23.34700
30
3.00000
0
VERTEX
8
1_3000
10
0.71600
20
23.40300
30
3.00000
0
VERTEX
8
1_3000
10
0.69300
20
23.45700
30
3.00000
0
VERTEX
8
1_3000
10
0.69000
20
24.21300
30
3.00000
0
VERTEX
8
1_3000
10
0.51300
20
24.55100
30
3.00000
0
VERTEX
8
1_3000
10
0.55600
20
25.01400
30
3.00000
0
VERTEX
8
1_3000
10
0.49300
20
25.46900
30
3.00000
0
VERTEX
8
1_3000
10
0.52200
20
25.91400
30
3.00000
0
VERTEX
8
1_3000
10
0.56700
20
26.17000
30
3.00000
0
VERTEX
8
1_3000
10
0.56200
20
26.52500
30
3.00000
0
VERTEX
8
1_3000
10
0.58400
20
26.89500
30
3.00000
0
VERTEX
8
1_3000
10
0.56400
20
27.20800
30
3.00000
0
VERTEX
8
1_3000
10
0.55900
20
27.65600
30
3.00000
0
VERTEX
8
1_3000
10
0.53800
20
27.81300
30
3.00000
0
VERTEX
8
1_3000
10
0.54900
20
28.12400
30
3.00000
0
VERTEX
8
1_3000
10
0.44600
20
29.11300
30
3.00000
0
VERTEX
8
1_3000
10
0.39200
20
29.31800
30
3.00000
0
VERTEX
8
1_3000
10
0.25900
20
30.26500
30
3.00000
0
VERTEX
8
1_3000
10
-0.02600
20
31.46600
30
3.00000
0
VERTEX
8
1_3000
10
-0.07100
20
32.09600
30
3.00000
0
VERTEX
8
1_3000
10
-0.24300
20
32.58000
30
3.00000
0
VERTEX
8
1_3000
10
-0.46400
20
34.17000
30
3.00000
0
VERTEX
8
1_3000
10
-0.75000
20
35.41200
30
3.00000
0
VERTEX
8
1_3000
10
-0.90300
20
36.24400
30
3.00000
0
VERTEX
8
1_3000
10
-1.12500
20
36.92200
30
3.00000
0
VERTEX
8
1_3000
10
-1.16300
20
37.21900
30
3.00000
0
VERTEX
8
1_3000
10
-1.21200
20
37.35400
30
3.00000
0
VERTEX
8
1_3000
10
-1.25200
20
37.78100
30
3.00000
0
VERTEX
8
1_3000
10
-1.52400
20
38.34900
30
3.00000
0
VERTEX
8
1_3000
10
-1.55200
20
38.43300
30
3.00000
0
VERTEX
8
1_3000
10
-1.58600
20
38.61200
30
3.00000
0
VERTEX
8
1_3000
10
-1.74300
20
39.88500
30
3.00000
0
VERTEX
8
1_3000
10
-1.73900
20
39.95400
30
3.00000
0
VERTEX
8
1_3000
10
-2.19000
20
42.70500
30
3.00000
0
VERTEX
8
1_3000
10
-2.30400
20
43.20100
30
3.00000
0
VERTEX
8
1_3000
10
-2.40400
20
44.54800
30
3.00000
0
VERTEX
8
1_3000
10
-2.49600
20
45.19300
30
3.00000
0
VERTEX
8
1_3000
10
-2.47100
20
45.35200
30
3.00000
0
VERTEX
8
1_3000
10
-2.50200
20
45.72300
30
3.00000
0
VERTEX
8
1_3000
10
-2.63300
20
46.26000
30
3.00000
0
VERTEX
8
1_3000
10
-2.60700
20
46.63100
30
3.00000
0
VERTEX
8
1_3000
10
-2.44800
20
47.43200
30
3.00000
0
VERTEX
8
1_3000
10
-2.38000
20
47.63800
30
3.00000
0
VERTEX
8
1_3000
10
-2.10500
20
48.61200
30
3.00000
0
VERTEX
8
1_3000
10
-1.88100
20
49.29400
30
3.00000
0
VERTEX
8
1_3000
10
-1.85000
20
49.47900
30
3.00000
0
VERTEX
8
1_3000
10
-1.66000
20
50.23400
30
3.00000
0
VERTEX
8
1_3000
10
-1.22700
20
51.43400
30
3.00000
0
VERTEX
8
1_3000
10
-1.14800
20
51.70400
30
3.00000
0
VERTEX
8
1_3000
10
-1.06900
20
51.91000
30
3.00000
0
VERTEX
8
1_3000
10
-0.93200
20
52.25100
30
3.00000
0
VERTEX
8
1_3000
10
-0.64600
20
52.79000
30
3.00000
0
VERTEX
8
1_3000
10
-0.52200
20
53.30300
30
3.00000
0
VERTEX
8
1_3000
10
-0.47800
20
53.49600
30
3.00000
0
VERTEX
8
1_3000
10
-0.48000
20
53.56900
30
3.00000
0
VERTEX
8
1_3000
10
-0.29500
20
54.59700
30
3.00000
0
VERTEX
8
1_3000
10
-0.28400
20
54.76000
30
3.00000
0
VERTEX
8
1_3000
10
-0.14500
20
55.92800
30
3.00000
0
VERTEX
8
1_3000
10
-0.02800
20
56.66000
30
3.00000
0
VERTEX
8
1_3000
10
0.13900
20
57.38700
30
3.00000
0
VERTEX
8
1_3000
10
0.17300
20
57.62200
30
3.00000
0
VERTEX
8
1_3000
10
0.20800
20
57.74600
30
3.00000
0
VERTEX
8
1_3000
10
0.26300
20
58.10700
30
3.00000
0
VERTEX
8
1_3000
10
0.32300
20
58.37700
30
3.00000
0
VERTEX
8
1_3000
10
0.46000
20
59.37800
30
3.00000
0
VERTEX
8
1_3000
10
0.47000
20
59.49900
30
3.00000
0
VERTEX
8
1_3000
10
0.75700
20
60.73700
30
3.00000
0
VERTEX
8
1_3000
10
0.83400
20
60.99600
30
3.00000
0
VERTEX
8
1_3000
10
0.84700
20
61.17700
30
3.00000
0
VERTEX
8
1_3000
10
0.93200
20
61.74900
30
3.00000
0
VERTEX
8
1_3000
10
0.98700
20
61.92400
30
3.00000
0
VERTEX
8
1_3000
10
1.06100
20
62.27000
30
3.00000
0
VERTEX
8
1_3000
10
1.22100
20
62.60800
30
3.00000
0
VERTEX
8
1_3000
10
1.31900
20
62.77100
30
3.00000
0
VERTEX
8
1_3000
10
1.40400
20
62.95800
30
3.00000
0
VERTEX
8
1_3000
10
1.52900
20
63.50100
30
3.00000
0
VERTEX
8
1_3000
10
1.56500
20
63.62100
30
3.00000
0
VERTEX
8
1_3000
10
1.59000
20
63.75900
30
3.00000
0
VERTEX
8
1_3000
10
1.73400
20
64.18201
30
3.00000
0
VERTEX
8
1_3000
10
2.07700
20
65.24400
30
3.00000
0
VERTEX
8
1_3000
10
2.18100
20
66.05801
30
3.00000
0
VERTEX
8
1_3000
10
2.60700
20
67.26400
30
3.00000
0
VERTEX
8
1_3000
10
2.67100
20
67.80300
30
3.00000
0
VERTEX
8
1_3000
10
2.76000
20
68.26601
30
3.00000
0
VERTEX
8
1_3000
10
2.83300
20
68.51200
30
3.00000
0
VERTEX
8
1_3000
10
2.85800
20
68.76501
30
3.00000
0
VERTEX
8
1_3000
10
2.91800
20
69.08801
30
3.00000
0
VERTEX
8
1_3000
10
3.02200
20
69.50700
30
3.00000
0
VERTEX
8
1_3000
10
3.07400
20
69.76601
30
3.00000
0
VERTEX
8
1_3000
10
3.20800
20
70.25201
30
3.00000
0
VERTEX
8
1_3000
10
3.27700
20
70.53500
30
3.00000
0
VERTEX
8
1_3000
10
3.36800
20
71.12000
30
3.00000
0
VERTEX
8
1_3000
10
3.46600
20
71.43201
30
3.00000
0
VERTEX
8
1_3000
10
3.67700
20
72.51601
30
3.00000
0
VERTEX
8
1_3000
10
3.74800
20
72.80100
30
3.00000
0
VERTEX
8
1_3000
10
3.80200
20
73.06700
30
3.00000
0
VERTEX
8
1_3000
10
3.84600
20
73.37701
30
3.00000
0
VERTEX
8
1_3000
10
3.94200
20
74.52100
30
3.00000
0
VERTEX
8
1_3000
10
4.02300
20
74.87601
30
3.00000
0
VERTEX
8
1_3000
10
4.08400
20
75.27500
30
3.00000
0
VERTEX
8
1_3000
10
4.11300
20
75.40501
30
3.00000
0
VERTEX
8
1_3000
10
-26.00700
20
75.04000
30
3.00000
0
VERTEX
8
1_3000
10
-56.17000
20
75.04000
30
3.00000
0
VERTEX
8
1_3000
10
-56.17000
20
74.47800
30
3.00000
0
SEQEND
8
1_3000
0
POLYLINE
8
1_3000
62
5
0
VERTEX
8
1_3000
10
-56.10700
20
91.25500
30
3.00000
0
VERTEX
8
1_3000
10
3.34100
20
91.25500
30
3.00000
0
VERTEX
8
1_3000
10
-56.10700
20
91.25500
30
3.00000
0
SEQEND
8
1_3000
0
POLYLINE
8
1_3000
62
5
0
VERTEX
8
1_3000
10
-56.10700
20
91.25500
30
3.00000
0
VERTEX
8
1_3000
10
3.34200
20
91.25500
30
3.00000
0
VERTEX
8
1_3000
10
-56.10700
20
91.25500
30
3.00000
0
SEQEND
8
1_3000
0
POLYLINE
8
1_3000
62
5
0
VERTEX
8
1_3000
10
-56.10400
20
91.25401
30
3.00000
0
VERTEX
8
1_3000
10
3.34500
20
91.25401
30
3.00000
0
VERTEX
8
1_3000
10
-56.10400
20
91.25401
30
3.00000
0
SEQEND
8
1_3000
0
POLYLINE
8
1_3000
62
5
0
VERTEX
8
1_3000
10
3.11600
20
91.25001
30
3.00000
0
VERTEX
8
1_3000
10
-56.17000
20
91.25001
30
3.00000
0
VERTEX
8
1_3000
10
-56.17000
20
78.99600
30
3.00000
0
VERTEX
8
1_3000
10
-26.09300
20
78.99600
30
3.00000
0
VERTEX
8
1_3000
10
-26.06700
20
78.61501
30
3.00000
0
VERTEX
8
1_3000
10
-26.04500
20
78.42200
30
3.00000
0
VERTEX
8
1_3000
10
-26.04500
20
78.04201
30
3.00000
0
VERTEX
8
1_3000
10
4.10700
20
78.04201
30
3.00000
0
VERTEX
8
1_3000
10
4.09000
20
78.59600
30
3.00000
0
VERTEX
8
1_3000
10
4.02600
20
79.15701
30
3.00000
0
VERTEX
8
1_3000
10
4.00800
20
79.50301
30
3.00000
0
VERTEX
8
1_3000
10
3.97800
20
79.85500
30
3.00000
0
VERTEX
8
1_3000
10
3.84500
20
80.59600
30
3.00000
0
VERTEX
8
1_3000
10
3.79100
20
81.34000
30
3.00000
0
VERTEX
8
1_3000
10
3.77400
20
81.46101
30
3.00000
0
VERTEX
8
1_3000
10
3.72800
20
82.20200
30
3.00000
0
VERTEX
8
1_3000
10
3.56800
20
82.90800
30
3.00000
0
VERTEX
8
1_3000
10
3.52400
20
83.35201
30
3.00000
0
VERTEX
8
1_3000
10
3.55500
20
83.60800
30
3.00000
0
VERTEX
8
1_3000
10
3.54400
20
83.87000
30
3.00000
0
VERTEX
8
1_3000
10
3.55000
20
84.17800
30
3.00000
0
VERTEX
8
1_3000
10
3.53000
20
84.51900
30
3.00000
0
VERTEX
8
1_3000
10
3.53700
20
84.85700
30
3.00000
0
VERTEX
8
1_3000
10
3.54900
20
85.08601
30
3.00000
0
VERTEX
8
1_3000
10
3.57700
20
85.34300
30
3.00000
0
VERTEX
8
1_3000
10
3.60400
20
85.85900
30
3.00000
0
VERTEX
8
1_3000
10
3.59200
20
86.12501
30
3.00000
0
VERTEX
8
1_3000
10
3.59200
20
86.47301
30
3.00000
0
VERTEX
8
1_3000
10
3.60000
20
87.74600
30
3.00000
0
VERTEX
8
1_3000
10
3.60700
20
87.88901
30
3.00000
0
VERTEX
8
1_3000
10
3.58300
20
88.24400
30
3.00000
0
VERTEX
8
1_3000
10
3.59900
20
88.58900
30
3.00000
0
VERTEX
8
1_3000
10
3.59900
20
88.93401
30
3.00000
0
VERTEX
8
1_3000
10
3.58300
20
89.07800
30
3.00000
0
VERTEX
8
1_3000
10
3.57200
20
89.42001
30
3.00000
0
VERTEX
8
1_3000
10
3.51300
20
89.76701
30
3.00000
0
VERTEX
8
1_3000
10
3.43100
20
90.14001
30
3.00000
0
VERTEX
8
1_3000
10
3.42900
20
90.20700
30
3.00000
0
VERTEX
8
1_3000
10
3.45700
20
90.52701
30
3.00000
0
VERTEX
8
1_3000
10
3.44100
20
90.85800
30
3.00000
0
VERTEX
8
1_3000
10
3.39600
20
91.24500
30
3.00000
0
VERTEX
8
1_3000
10
3.11600
20
91.25001
30
3.00000
0
SEQEND
8
1_3000
0
POLYLINE
8
1_3000
62
5
0
VERTEX
8
1_3000
10
-56.09900
20
91.25201
30
3.00000
0
VERTEX
8
1_3000
10
3.35700
20
91.25201
30
3.00000
0
VERTEX
8
1_3000
10
-56.09900
20
91.25201
30
3.00000
0
SEQEND
8
1_3000
0
POLYLINE
8
1_3000
62
5
0
VERTEX
8
1_3000
10
3.36600
20
91.25101
30
3.00000
0
VERTEX
8
1_3000
10
-56.17000
20
91.25201
30
3.00000
0
VERTEX
8
1_3000
10
3.36600
20
91.25101
30
3.00000
0
SEQEND
8
1_3000
0
ENDSEC
0
EOF
