0
SECTION
2
HEADER
9
$ACADVER
1
AC1009
0
ENDSEC
0
SECTION
2
TABLES
0
TABLE
2
LAYER
70
1
0
LAYER
2
11_33000
70
0
62
7
6
CONTINUOUS
0
ENDTAB
0
ENDSEC
0
SECTION
2
BLOCKS
0
ENDSEC
0
SECTION
2
ENTITIES
0
POLYLINE
8
11_33000
62
5
0
VERTEX
8
11_33000
10
-43.57300
20
91.41300
30
33.00000
0
VERTEX
8
11_33000
10
2.39300
20
91.41300
30
33.00000
0
VERTEX
8
11_33000
10
2.26700
20
91.43401
30
33.00000
0
VERTEX
8
11_33000
10
-56.17000
20
91.43401
30
33.00000
0
VERTEX
8
11_33000
10
-56.17000
20
91.41300
30
33.00000
0
VERTEX
8
11_33000
10
-43.57300
20
91.41300
30
33.00000
0
SEQEND
8
11_33000
0
POLYLINE
8
11_33000
62
5
0
VERTEX
8
11_33000
10
-43.56300
20
91.41200
30
33.00000
0
VERTEX
8
11_33000
10
-56.17000
20
91.41200
30
33.00000
0
VERTEX
8
11_33000
10
-56.17000
20
91.38300
30
33.00000
0
VERTEX
8
11_33000
10
2.56400
20
91.38300
30
33.00000
0
VERTEX
8
11_33000
10
2.40200
20
91.41200
30
33.00000
0
VERTEX
8
11_33000
10
-43.56300
20
91.41200
30
33.00000
0
SEQEND
8
11_33000
0
POLYLINE
8
11_33000
62
5
0
VERTEX
8
11_33000
10
-42.99600
20
91.30200
30
33.00000
0
VERTEX
8
11_33000
10
3.05900
20
91.30200
30
33.00000
0
VERTEX
8
11_33000
10
2.57000
20
91.38300
30
33.00000
0
VERTEX
8
11_33000
10
-56.17000
20
91.38300
30
33.00000
0
VERTEX
8
11_33000
10
-56.17000
20
91.30200
30
33.00000
0
VERTEX
8
11_33000
10
-42.99600
20
91.30200
30
33.00000
0
SEQEND
8
11_33000
0
POLYLINE
8
11_33000
62
5
0
VERTEX
8
11_33000
10
-41.79800
20
90.38800
30
33.00000
0
VERTEX
8
11_33000
10
-56.17000
20
90.38800
30
33.00000
0
VERTEX
8
11_33000
10
-56.17000
20
-92.11401
30
33.00000
0
VERTEX
8
11_33000
10
4.00600
20
-92.11401
30
33.00000
0
VERTEX
8
11_33000
10
3.72300
20
-91.32201
30
33.00000
0
VERTEX
8
11_33000
10
3.41300
20
-90.32800
30
33.00000
0
VERTEX
8
11_33000
10
3.15500
20
-89.95700
30
33.00000
0
VERTEX
8
11_33000
10
2.97700
20
-89.31600
30
33.00000
0
VERTEX
8
11_33000
10
2.82100
20
-88.89600
30
33.00000
0
VERTEX
8
11_33000
10
2.71600
20
-88.30801
30
33.00000
0
VERTEX
8
11_33000
10
2.50400
20
-87.71201
30
33.00000
0
VERTEX
8
11_33000
10
2.22900
20
-86.85500
30
33.00000
0
VERTEX
8
11_33000
10
1.91500
20
-85.73701
30
33.00000
0
VERTEX
8
11_33000
10
1.74200
20
-85.07500
30
33.00000
0
VERTEX
8
11_33000
10
1.64400
20
-84.46600
30
33.00000
0
VERTEX
8
11_33000
10
1.48600
20
-83.76200
30
33.00000
0
VERTEX
8
11_33000
10
1.57900
20
-83.47800
30
33.00000
0
VERTEX
8
11_33000
10
1.53600
20
-83.26200
30
33.00000
0
VERTEX
8
11_33000
10
1.82600
20
-82.91000
30
33.00000
0
VERTEX
8
11_33000
10
1.96800
20
-82.64201
30
33.00000
0
VERTEX
8
11_33000
10
2.41100
20
-82.14500
30
33.00000
0
VERTEX
8
11_33000
10
4.68900
20
-79.44100
30
33.00000
0
VERTEX
8
11_33000
10
6.38600
20
-77.45400
30
33.00000
0
VERTEX
8
11_33000
10
7.45300
20
-76.02300
30
33.00000
0
VERTEX
8
11_33000
10
7.58400
20
-75.86201
30
33.00000
0
VERTEX
8
11_33000
10
8.27200
20
-74.91700
30
33.00000
0
VERTEX
8
11_33000
10
8.59900
20
-74.27000
30
33.00000
0
VERTEX
8
11_33000
10
8.80500
20
-73.98600
30
33.00000
0
VERTEX
8
11_33000
10
8.92900
20
-73.70500
30
33.00000
0
VERTEX
8
11_33000
10
9.04300
20
-73.04900
30
33.00000
0
VERTEX
8
11_33000
10
9.56100
20
-71.21400
30
33.00000
0
VERTEX
8
11_33000
10
9.75900
20
-70.69200
30
33.00000
0
VERTEX
8
11_33000
10
9.89200
20
-69.95400
30
33.00000
0
VERTEX
8
11_33000
10
9.94800
20
-68.98901
30
33.00000
0
VERTEX
8
11_33000
10
9.92700
20
-68.43401
30
33.00000
0
VERTEX
8
11_33000
10
9.96200
20
-67.52700
30
33.00000
0
VERTEX
8
11_33000
10
10.01500
20
-67.23600
30
33.00000
0
VERTEX
8
11_33000
10
9.98300
20
-67.03900
30
33.00000
0
VERTEX
8
11_33000
10
10.06000
20
-66.80600
30
33.00000
0
VERTEX
8
11_33000
10
10.01400
20
-65.76701
30
33.00000
0
VERTEX
8
11_33000
10
10.05200
20
-65.62701
30
33.00000
0
VERTEX
8
11_33000
10
10.10800
20
-65.24700
30
33.00000
0
VERTEX
8
11_33000
10
10.58000
20
-62.87400
30
33.00000
0
VERTEX
8
11_33000
10
10.78600
20
-61.98500
30
33.00000
0
VERTEX
8
11_33000
10
11.00300
20
-60.98300
30
33.00000
0
VERTEX
8
11_33000
10
11.27400
20
-60.43000
30
33.00000
0
VERTEX
8
11_33000
10
11.36100
20
-60.12500
30
33.00000
0
VERTEX
8
11_33000
10
11.48600
20
-59.74900
30
33.00000
0
VERTEX
8
11_33000
10
11.67600
20
-59.01600
30
33.00000
0
VERTEX
8
11_33000
10
11.80100
20
-58.62700
30
33.00000
0
VERTEX
8
11_33000
10
11.93300
20
-58.04100
30
33.00000
0
VERTEX
8
11_33000
10
12.47500
20
-56.59900
30
33.00000
0
VERTEX
8
11_33000
10
12.91800
20
-55.38800
30
33.00000
0
VERTEX
8
11_33000
10
13.90300
20
-53.05500
30
33.00000
0
VERTEX
8
11_33000
10
13.96700
20
-52.66700
30
33.00000
0
VERTEX
8
11_33000
10
14.15800
20
-52.27400
30
33.00000
0
VERTEX
8
11_33000
10
14.21800
20
-51.91400
30
33.00000
0
VERTEX
8
11_33000
10
14.66000
20
-50.82200
30
33.00000
0
VERTEX
8
11_33000
10
15.04200
20
-49.28900
30
33.00000
0
VERTEX
8
11_33000
10
15.49300
20
-47.13300
30
33.00000
0
VERTEX
8
11_33000
10
15.60100
20
-46.83300
30
33.00000
0
VERTEX
8
11_33000
10
15.96900
20
-46.06300
30
33.00000
0
VERTEX
8
11_33000
10
16.12700
20
-45.63900
30
33.00000
0
VERTEX
8
11_33000
10
16.16600
20
-45.29300
30
33.00000
0
VERTEX
8
11_33000
10
16.29000
20
-44.97000
30
33.00000
0
VERTEX
8
11_33000
10
16.36300
20
-44.75100
30
33.00000
0
VERTEX
8
11_33000
10
16.47400
20
-44.23000
30
33.00000
0
VERTEX
8
11_33000
10
16.56400
20
-43.48900
30
33.00000
0
VERTEX
8
11_33000
10
16.65400
20
-42.83600
30
33.00000
0
VERTEX
8
11_33000
10
16.68500
20
-42.73800
30
33.00000
0
VERTEX
8
11_33000
10
17.31000
20
-41.16000
30
33.00000
0
VERTEX
8
11_33000
10
17.37400
20
-40.93800
30
33.00000
0
VERTEX
8
11_33000
10
17.67300
20
-40.06700
30
33.00000
0
VERTEX
8
11_33000
10
17.78500
20
-39.76300
30
33.00000
0
VERTEX
8
11_33000
10
18.04200
20
-38.98000
30
33.00000
0
VERTEX
8
11_33000
10
18.08500
20
-38.88400
30
33.00000
0
VERTEX
8
11_33000
10
18.25200
20
-38.25800
30
33.00000
0
VERTEX
8
11_33000
10
18.30900
20
-37.95000
30
33.00000
0
VERTEX
8
11_33000
10
18.45800
20
-37.41300
30
33.00000
0
VERTEX
8
11_33000
10
18.78600
20
-35.81100
30
33.00000
0
VERTEX
8
11_33000
10
18.79800
20
-35.35500
30
33.00000
0
VERTEX
8
11_33000
10
18.78000
20
-35.00000
30
33.00000
0
VERTEX
8
11_33000
10
18.78400
20
-34.93300
30
33.00000
0
VERTEX
8
11_33000
10
18.81600
20
-34.61100
30
33.00000
0
VERTEX
8
11_33000
10
18.87000
20
-33.83300
30
33.00000
0
VERTEX
8
11_33000
10
18.90400
20
-33.66600
30
33.00000
0
VERTEX
8
11_33000
10
18.93100
20
-33.40700
30
33.00000
0
VERTEX
8
11_33000
10
19.37500
20
-31.61100
30
33.00000
0
VERTEX
8
11_33000
10
19.41400
20
-31.52400
30
33.00000
0
VERTEX
8
11_33000
10
19.71700
20
-30.04600
30
33.00000
0
VERTEX
8
11_33000
10
19.96700
20
-28.55200
30
33.00000
0
VERTEX
8
11_33000
10
19.93900
20
-27.57300
30
33.00000
0
VERTEX
8
11_33000
10
20.11800
20
-25.27700
30
33.00000
0
VERTEX
8
11_33000
10
20.28500
20
-23.80500
30
33.00000
0
VERTEX
8
11_33000
10
20.54900
20
-21.64700
30
33.00000
0
VERTEX
8
11_33000
10
20.61900
20
-21.50600
30
33.00000
0
VERTEX
8
11_33000
10
20.92500
20
-19.90600
30
33.00000
0
VERTEX
8
11_33000
10
21.07500
20
-19.19000
30
33.00000
0
VERTEX
8
11_33000
10
21.35000
20
-18.07000
30
33.00000
0
VERTEX
8
11_33000
10
22.20900
20
-15.64800
30
33.00000
0
VERTEX
8
11_33000
10
22.35800
20
-15.12700
30
33.00000
0
VERTEX
8
11_33000
10
23.00400
20
-13.18100
30
33.00000
0
VERTEX
8
11_33000
10
23.27700
20
-12.20400
30
33.00000
0
VERTEX
8
11_33000
10
23.33800
20
-11.92900
30
33.00000
0
VERTEX
8
11_33000
10
23.54900
20
-11.31200
30
33.00000
0
VERTEX
8
11_33000
10
23.63700
20
-10.97300
30
33.00000
0
VERTEX
8
11_33000
10
24.50200
20
-8.03100
30
33.00000
0
VERTEX
8
11_33000
10
24.85800
20
-6.92600
30
33.00000
0
VERTEX
8
11_33000
10
25.03700
20
-6.33900
30
33.00000
0
VERTEX
8
11_33000
10
25.16700
20
-5.95600
30
33.00000
0
VERTEX
8
11_33000
10
27.05900
20
0.45500
30
33.00000
0
VERTEX
8
11_33000
10
27.12900
20
0.71000
30
33.00000
0
VERTEX
8
11_33000
10
27.17900
20
0.94400
30
33.00000
0
VERTEX
8
11_33000
10
27.42400
20
2.33300
30
33.00000
0
VERTEX
8
11_33000
10
27.82900
20
4.28400
30
33.00000
0
VERTEX
8
11_33000
10
28.16700
20
6.69900
30
33.00000
0
VERTEX
8
11_33000
10
28.21200
20
6.93900
30
33.00000
0
VERTEX
8
11_33000
10
28.29200
20
7.60400
30
33.00000
0
VERTEX
8
11_33000
10
28.34200
20
8.43400
30
33.00000
0
VERTEX
8
11_33000
10
28.35200
20
11.58800
30
33.00000
0
VERTEX
8
11_33000
10
28.17100
20
14.62800
30
33.00000
0
VERTEX
8
11_33000
10
27.97100
20
16.01200
30
33.00000
0
VERTEX
8
11_33000
10
27.74300
20
17.15700
30
33.00000
0
VERTEX
8
11_33000
10
27.22100
20
20.17100
30
33.00000
0
VERTEX
8
11_33000
10
26.85600
20
21.90400
30
33.00000
0
VERTEX
8
11_33000
10
26.63800
20
22.99200
30
33.00000
0
VERTEX
8
11_33000
10
26.36000
20
24.87600
30
33.00000
0
VERTEX
8
11_33000
10
26.00400
20
26.84400
30
33.00000
0
VERTEX
8
11_33000
10
25.73700
20
28.37000
30
33.00000
0
VERTEX
8
11_33000
10
25.33700
20
30.46300
30
33.00000
0
VERTEX
8
11_33000
10
25.30900
20
30.94800
30
33.00000
0
VERTEX
8
11_33000
10
25.25600
20
31.40300
30
33.00000
0
VERTEX
8
11_33000
10
25.23200
20
31.86800
30
33.00000
0
VERTEX
8
11_33000
10
25.30800
20
33.21900
30
33.00000
0
VERTEX
8
11_33000
10
25.53600
20
34.85700
30
33.00000
0
VERTEX
8
11_33000
10
25.63200
20
35.24200
30
33.00000
0
VERTEX
8
11_33000
10
25.72200
20
35.54600
30
33.00000
0
VERTEX
8
11_33000
10
25.77500
20
35.79700
30
33.00000
0
VERTEX
8
11_33000
10
26.10400
20
36.38100
30
33.00000
0
VERTEX
8
11_33000
10
26.42600
20
36.89800
30
33.00000
0
VERTEX
8
11_33000
10
26.69900
20
37.44300
30
33.00000
0
VERTEX
8
11_33000
10
26.90500
20
37.89600
30
33.00000
0
VERTEX
8
11_33000
10
27.05300
20
38.29100
30
33.00000
0
VERTEX
8
11_33000
10
27.13400
20
38.54000
30
33.00000
0
VERTEX
8
11_33000
10
27.36500
20
39.48900
30
33.00000
0
VERTEX
8
11_33000
10
27.67100
20
40.86700
30
33.00000
0
VERTEX
8
11_33000
10
27.75000
20
41.38100
30
33.00000
0
VERTEX
8
11_33000
10
27.89000
20
42.42300
30
33.00000
0
VERTEX
8
11_33000
10
28.26900
20
44.77000
30
33.00000
0
VERTEX
8
11_33000
10
28.27400
20
44.83600
30
33.00000
0
VERTEX
8
11_33000
10
28.27600
20
45.01400
30
33.00000
0
VERTEX
8
11_33000
10
28.24900
20
45.54900
30
33.00000
0
VERTEX
8
11_33000
10
28.19000
20
46.06800
30
33.00000
0
VERTEX
8
11_33000
10
28.05200
20
46.99200
30
33.00000
0
VERTEX
8
11_33000
10
28.07400
20
47.10600
30
33.00000
0
VERTEX
8
11_33000
10
28.03500
20
47.50900
30
33.00000
0
VERTEX
8
11_33000
10
28.16900
20
47.91300
30
33.00000
0
VERTEX
8
11_33000
10
28.70800
20
49.09000
30
33.00000
0
VERTEX
8
11_33000
10
29.53500
20
51.05000
30
33.00000
0
VERTEX
8
11_33000
10
29.64800
20
51.28200
30
33.00000
0
VERTEX
8
11_33000
10
30.07200
20
52.29800
30
33.00000
0
VERTEX
8
11_33000
10
30.43900
20
52.82800
30
33.00000
0
VERTEX
8
11_33000
10
30.98200
20
53.33400
30
33.00000
0
VERTEX
8
11_33000
10
31.66500
20
54.08100
30
33.00000
0
VERTEX
8
11_33000
10
31.91300
20
54.43800
30
33.00000
0
VERTEX
8
11_33000
10
32.03300
20
54.84100
30
33.00000
0
VERTEX
8
11_33000
10
32.20400
20
55.69200
30
33.00000
0
VERTEX
8
11_33000
10
32.40700
20
56.17800
30
33.00000
0
VERTEX
8
11_33000
10
32.66900
20
56.65000
30
33.00000
0
VERTEX
8
11_33000
10
33.14200
20
57.91900
30
33.00000
0
VERTEX
8
11_33000
10
33.16700
20
58.02300
30
33.00000
0
VERTEX
8
11_33000
10
33.30000
20
58.83800
30
33.00000
0
VERTEX
8
11_33000
10
33.41000
20
60.56200
30
33.00000
0
VERTEX
8
11_33000
10
33.46200
20
60.91500
30
33.00000
0
VERTEX
8
11_33000
10
33.51200
20
62.53400
30
33.00000
0
VERTEX
8
11_33000
10
33.50300
20
63.03800
30
33.00000
0
VERTEX
8
11_33000
10
33.54200
20
63.85400
30
33.00000
0
VERTEX
8
11_33000
10
33.53800
20
64.70100
30
33.00000
0
VERTEX
8
11_33000
10
33.54900
20
65.11301
30
33.00000
0
VERTEX
8
11_33000
10
33.64300
20
66.30400
30
33.00000
0
VERTEX
8
11_33000
10
33.67400
20
66.57700
30
33.00000
0
VERTEX
8
11_33000
10
33.79200
20
67.89800
30
33.00000
0
VERTEX
8
11_33000
10
33.78000
20
68.26000
30
33.00000
0
VERTEX
8
11_33000
10
33.79600
20
68.40000
30
33.00000
0
VERTEX
8
11_33000
10
33.82900
20
69.19100
30
33.00000
0
VERTEX
8
11_33000
10
33.88800
20
69.98300
30
33.00000
0
VERTEX
8
11_33000
10
33.86600
20
70.46800
30
33.00000
0
VERTEX
8
11_33000
10
33.85100
20
71.71600
30
33.00000
0
VERTEX
8
11_33000
10
33.82400
20
72.42101
30
33.00000
0
VERTEX
8
11_33000
10
33.75800
20
72.78300
30
33.00000
0
VERTEX
8
11_33000
10
33.72700
20
73.08000
30
33.00000
0
VERTEX
8
11_33000
10
33.70700
20
73.49300
30
33.00000
0
VERTEX
8
11_33000
10
33.69600
20
74.13900
30
33.00000
0
VERTEX
8
11_33000
10
33.62400
20
74.65900
30
33.00000
0
VERTEX
8
11_33000
10
33.58800
20
74.80000
30
33.00000
0
VERTEX
8
11_33000
10
33.51900
20
75.01801
30
33.00000
0
VERTEX
8
11_33000
10
33.07600
20
76.29700
30
33.00000
0
VERTEX
8
11_33000
10
32.74400
20
77.03201
30
33.00000
0
VERTEX
8
11_33000
10
32.39700
20
77.84400
30
33.00000
0
VERTEX
8
11_33000
10
30.48500
20
82.87400
30
33.00000
0
VERTEX
8
11_33000
10
28.89900
20
86.98901
30
33.00000
0
VERTEX
8
11_33000
10
8.53800
20
90.38800
30
33.00000
0
VERTEX
8
11_33000
10
-41.79800
20
90.38800
30
33.00000
0
SEQEND
8
11_33000
0
POLYLINE
8
11_33000
62
5
0
VERTEX
8
11_33000
10
-41.98400
20
90.88400
30
33.00000
0
VERTEX
8
11_33000
10
5.56400
20
90.88400
30
33.00000
0
VERTEX
8
11_33000
10
3.06600
20
91.30000
30
33.00000
0
VERTEX
8
11_33000
10
-56.17000
20
91.30000
30
33.00000
0
VERTEX
8
11_33000
10
-56.17000
20
90.88400
30
33.00000
0
VERTEX
8
11_33000
10
-41.98400
20
90.88400
30
33.00000
0
SEQEND
8
11_33000
0
POLYLINE
8
11_33000
62
5
0
VERTEX
8
11_33000
10
7.34600
20
90.58501
30
33.00000
0
VERTEX
8
11_33000
10
5.57700
20
90.88200
30
33.00000
0
VERTEX
8
11_33000
10
-56.17000
20
90.88200
30
33.00000
0
VERTEX
8
11_33000
10
-56.17000
20
90.38800
30
33.00000
0
VERTEX
8
11_33000
10
8.53500
20
90.38800
30
33.00000
0
VERTEX
8
11_33000
10
7.34600
20
90.58501
30
33.00000
0
SEQEND
8
11_33000
0
ENDSEC
0
EOF
