0
SECTION
2
HEADER
9
$ACADVER
1
AC1009
0
ENDSEC
0
SECTION
2
TABLES
0
TABLE
2
LAYER
70
1
0
LAYER
2
24_72000
70
0
62
7
6
CONTINUOUS
0
ENDTAB
0
ENDSEC
0
SECTION
2
BLOCKS
0
ENDSEC
0
SECTION
2
ENTITIES
0
POLYLINE
8
24_72000
62
5
0
VERTEX
8
24_72000
10
-27.28900
20
91.61700
30
72.00000
0
VERTEX
8
24_72000
10
1.15800
20
91.61700
30
72.00000
0
VERTEX
8
24_72000
10
0.87200
20
91.66701
30
72.00000
0
VERTEX
8
24_72000
10
-56.17000
20
91.66701
30
72.00000
0
VERTEX
8
24_72000
10
-56.17000
20
91.61700
30
72.00000
0
VERTEX
8
24_72000
10
-27.28900
20
91.61700
30
72.00000
0
SEQEND
8
24_72000
0
POLYLINE
8
24_72000
62
5
0
VERTEX
8
24_72000
10
-26.83200
20
91.55200
30
72.00000
0
VERTEX
8
24_72000
10
1.55400
20
91.55200
30
72.00000
0
VERTEX
8
24_72000
10
1.17900
20
91.61501
30
72.00000
0
VERTEX
8
24_72000
10
-56.17000
20
91.61501
30
72.00000
0
VERTEX
8
24_72000
10
-56.17000
20
91.55200
30
72.00000
0
VERTEX
8
24_72000
10
-26.83200
20
91.55200
30
72.00000
0
SEQEND
8
24_72000
0
POLYLINE
8
24_72000
62
5
0
VERTEX
8
24_72000
10
-56.17000
20
91.42800
30
72.00000
0
VERTEX
8
24_72000
10
-56.17000
20
91.36600
30
72.00000
0
VERTEX
8
24_72000
10
2.68600
20
91.36600
30
72.00000
0
VERTEX
8
24_72000
10
1.56900
20
91.55000
30
72.00000
0
VERTEX
8
24_72000
10
-56.17000
20
91.55000
30
72.00000
0
VERTEX
8
24_72000
10
-56.17000
20
91.42800
30
72.00000
0
SEQEND
8
24_72000
0
POLYLINE
8
24_72000
62
5
0
VERTEX
8
24_72000
10
-56.17000
20
91.17300
30
72.00000
0
VERTEX
8
24_72000
10
-56.17000
20
90.40601
30
72.00000
0
VERTEX
8
24_72000
10
8.43500
20
90.40601
30
72.00000
0
VERTEX
8
24_72000
10
2.70200
20
91.36201
30
72.00000
0
VERTEX
8
24_72000
10
-56.17000
20
91.36201
30
72.00000
0
VERTEX
8
24_72000
10
-56.17000
20
91.17300
30
72.00000
0
SEQEND
8
24_72000
0
POLYLINE
8
24_72000
62
5
0
VERTEX
8
24_72000
10
-56.17000
20
-10.85700
30
72.00000
0
VERTEX
8
24_72000
10
-56.17000
20
-92.11401
30
72.00000
0
VERTEX
8
24_72000
10
27.51100
20
-92.11401
30
72.00000
0
VERTEX
8
24_72000
10
27.53400
20
-91.86101
30
72.00000
0
VERTEX
8
24_72000
10
27.55900
20
-91.77701
30
72.00000
0
VERTEX
8
24_72000
10
27.56900
20
-91.46600
30
72.00000
0
VERTEX
8
24_72000
10
27.59700
20
-91.13400
30
72.00000
0
VERTEX
8
24_72000
10
27.85000
20
-89.96800
30
72.00000
0
VERTEX
8
24_72000
10
28.15500
20
-89.59801
30
72.00000
0
VERTEX
8
24_72000
10
28.19800
20
-89.53300
30
72.00000
0
VERTEX
8
24_72000
10
28.83300
20
-88.95400
30
72.00000
0
VERTEX
8
24_72000
10
29.50100
20
-88.37300
30
72.00000
0
VERTEX
8
24_72000
10
30.33100
20
-87.37501
30
72.00000
0
VERTEX
8
24_72000
10
30.42800
20
-87.25600
30
72.00000
0
VERTEX
8
24_72000
10
30.80200
20
-86.48200
30
72.00000
0
VERTEX
8
24_72000
10
31.04000
20
-86.06001
30
72.00000
0
VERTEX
8
24_72000
10
31.09800
20
-85.67900
30
72.00000
0
VERTEX
8
24_72000
10
31.16800
20
-85.32600
30
72.00000
0
VERTEX
8
24_72000
10
31.41000
20
-84.57800
30
72.00000
0
VERTEX
8
24_72000
10
31.50500
20
-84.16600
30
72.00000
0
VERTEX
8
24_72000
10
31.76900
20
-83.43301
30
72.00000
0
VERTEX
8
24_72000
10
31.90400
20
-83.10700
30
72.00000
0
VERTEX
8
24_72000
10
32.00300
20
-82.45000
30
72.00000
0
VERTEX
8
24_72000
10
32.06600
20
-82.19901
30
72.00000
0
VERTEX
8
24_72000
10
32.14600
20
-81.79100
30
72.00000
0
VERTEX
8
24_72000
10
32.35300
20
-81.19601
30
72.00000
0
VERTEX
8
24_72000
10
32.50600
20
-80.49200
30
72.00000
0
VERTEX
8
24_72000
10
32.64500
20
-79.97701
30
72.00000
0
VERTEX
8
24_72000
10
32.67500
20
-79.90501
30
72.00000
0
VERTEX
8
24_72000
10
32.87600
20
-79.01900
30
72.00000
0
VERTEX
8
24_72000
10
32.88600
20
-78.94601
30
72.00000
0
VERTEX
8
24_72000
10
33.25000
20
-77.78500
30
72.00000
0
VERTEX
8
24_72000
10
33.41300
20
-77.11401
30
72.00000
0
VERTEX
8
24_72000
10
33.49400
20
-76.94501
30
72.00000
0
VERTEX
8
24_72000
10
33.54000
20
-76.73901
30
72.00000
0
VERTEX
8
24_72000
10
33.76000
20
-76.44300
30
72.00000
0
VERTEX
8
24_72000
10
33.86500
20
-76.22401
30
72.00000
0
VERTEX
8
24_72000
10
34.09100
20
-75.87601
30
72.00000
0
VERTEX
8
24_72000
10
34.44800
20
-75.15601
30
72.00000
0
VERTEX
8
24_72000
10
34.62400
20
-74.45400
30
72.00000
0
VERTEX
8
24_72000
10
34.80900
20
-73.42900
30
72.00000
0
VERTEX
8
24_72000
10
34.83300
20
-73.33300
30
72.00000
0
VERTEX
8
24_72000
10
34.88400
20
-73.19701
30
72.00000
0
VERTEX
8
24_72000
10
35.16700
20
-72.02600
30
72.00000
0
VERTEX
8
24_72000
10
35.20800
20
-71.80300
30
72.00000
0
VERTEX
8
24_72000
10
35.24900
20
-71.37701
30
72.00000
0
VERTEX
8
24_72000
10
35.28900
20
-71.15100
30
72.00000
0
VERTEX
8
24_72000
10
35.59200
20
-70.57000
30
72.00000
0
VERTEX
8
24_72000
10
35.67800
20
-70.37901
30
72.00000
0
VERTEX
8
24_72000
10
35.70800
20
-70.32800
30
72.00000
0
VERTEX
8
24_72000
10
35.88200
20
-69.58400
30
72.00000
0
VERTEX
8
24_72000
10
35.91500
20
-69.29000
30
72.00000
0
VERTEX
8
24_72000
10
36.05100
20
-68.82201
30
72.00000
0
VERTEX
8
24_72000
10
36.16100
20
-68.38500
30
72.00000
0
VERTEX
8
24_72000
10
36.19600
20
-68.17900
30
72.00000
0
VERTEX
8
24_72000
10
36.13000
20
-67.19801
30
72.00000
0
VERTEX
8
24_72000
10
36.07600
20
-66.06200
30
72.00000
0
VERTEX
8
24_72000
10
36.06600
20
-65.46001
30
72.00000
0
VERTEX
8
24_72000
10
36.03300
20
-65.18100
30
72.00000
0
VERTEX
8
24_72000
10
36.04200
20
-65.08400
30
72.00000
0
VERTEX
8
24_72000
10
35.98900
20
-63.72200
30
72.00000
0
VERTEX
8
24_72000
10
35.92800
20
-62.85200
30
72.00000
0
VERTEX
8
24_72000
10
35.84000
20
-61.90000
30
72.00000
0
VERTEX
8
24_72000
10
35.53200
20
-60.30700
30
72.00000
0
VERTEX
8
24_72000
10
35.33100
20
-58.93700
30
72.00000
0
VERTEX
8
24_72000
10
35.23200
20
-58.58600
30
72.00000
0
VERTEX
8
24_72000
10
35.17500
20
-58.12800
30
72.00000
0
VERTEX
8
24_72000
10
34.96800
20
-57.06400
30
72.00000
0
VERTEX
8
24_72000
10
34.90900
20
-56.61100
30
72.00000
0
VERTEX
8
24_72000
10
34.89900
20
-56.47900
30
72.00000
0
VERTEX
8
24_72000
10
34.83000
20
-56.03400
30
72.00000
0
VERTEX
8
24_72000
10
34.79500
20
-55.64300
30
72.00000
0
VERTEX
8
24_72000
10
34.74000
20
-55.43800
30
72.00000
0
VERTEX
8
24_72000
10
34.71900
20
-55.16800
30
72.00000
0
VERTEX
8
24_72000
10
34.78400
20
-54.87200
30
72.00000
0
VERTEX
8
24_72000
10
34.79900
20
-54.76000
30
72.00000
0
VERTEX
8
24_72000
10
34.72900
20
-53.76700
30
72.00000
0
VERTEX
8
24_72000
10
34.77600
20
-53.18900
30
72.00000
0
VERTEX
8
24_72000
10
34.75500
20
-52.71500
30
72.00000
0
VERTEX
8
24_72000
10
34.87700
20
-52.06700
30
72.00000
0
VERTEX
8
24_72000
10
34.89700
20
-51.85700
30
72.00000
0
VERTEX
8
24_72000
10
34.99400
20
-51.61100
30
72.00000
0
VERTEX
8
24_72000
10
35.37200
20
-50.27600
30
72.00000
0
VERTEX
8
24_72000
10
35.47400
20
-49.99100
30
72.00000
0
VERTEX
8
24_72000
10
35.78600
20
-49.16500
30
72.00000
0
VERTEX
8
24_72000
10
35.86300
20
-49.07300
30
72.00000
0
VERTEX
8
24_72000
10
35.91800
20
-48.82300
30
72.00000
0
VERTEX
8
24_72000
10
36.38100
20
-47.96100
30
72.00000
0
VERTEX
8
24_72000
10
36.60000
20
-47.35700
30
72.00000
0
VERTEX
8
24_72000
10
36.73300
20
-47.13600
30
72.00000
0
VERTEX
8
24_72000
10
37.00900
20
-46.55900
30
72.00000
0
VERTEX
8
24_72000
10
37.36500
20
-45.88400
30
72.00000
0
VERTEX
8
24_72000
10
37.66100
20
-45.12500
30
72.00000
0
VERTEX
8
24_72000
10
37.75100
20
-44.79700
30
72.00000
0
VERTEX
8
24_72000
10
37.91000
20
-44.29400
30
72.00000
0
VERTEX
8
24_72000
10
37.89200
20
-44.13300
30
72.00000
0
VERTEX
8
24_72000
10
37.90900
20
-43.86500
30
72.00000
0
VERTEX
8
24_72000
10
37.93500
20
-42.96600
30
72.00000
0
VERTEX
8
24_72000
10
37.97700
20
-42.33100
30
72.00000
0
VERTEX
8
24_72000
10
37.93400
20
-42.20900
30
72.00000
0
VERTEX
8
24_72000
10
37.96500
20
-42.01700
30
72.00000
0
VERTEX
8
24_72000
10
38.04900
20
-40.88400
30
72.00000
0
VERTEX
8
24_72000
10
38.05400
20
-40.51800
30
72.00000
0
VERTEX
8
24_72000
10
38.10200
20
-39.95000
30
72.00000
0
VERTEX
8
24_72000
10
38.11200
20
-39.46600
30
72.00000
0
VERTEX
8
24_72000
10
38.16000
20
-39.24900
30
72.00000
0
VERTEX
8
24_72000
10
38.27100
20
-38.35900
30
72.00000
0
VERTEX
8
24_72000
10
38.52000
20
-37.58900
30
72.00000
0
VERTEX
8
24_72000
10
38.71600
20
-37.06200
30
72.00000
0
VERTEX
8
24_72000
10
39.06700
20
-35.95700
30
72.00000
0
VERTEX
8
24_72000
10
39.12200
20
-35.62500
30
72.00000
0
VERTEX
8
24_72000
10
39.18400
20
-34.09000
30
72.00000
0
VERTEX
8
24_72000
10
39.19600
20
-33.44200
30
72.00000
0
VERTEX
8
24_72000
10
39.16200
20
-32.34300
30
72.00000
0
VERTEX
8
24_72000
10
39.14700
20
-32.10000
30
72.00000
0
VERTEX
8
24_72000
10
38.93600
20
-30.29000
30
72.00000
0
VERTEX
8
24_72000
10
38.33900
20
-28.05100
30
72.00000
0
VERTEX
8
24_72000
10
38.01500
20
-26.99300
30
72.00000
0
VERTEX
8
24_72000
10
37.88300
20
-26.64000
30
72.00000
0
VERTEX
8
24_72000
10
37.76200
20
-26.28200
30
72.00000
0
VERTEX
8
24_72000
10
37.41800
20
-25.56100
30
72.00000
0
VERTEX
8
24_72000
10
37.11800
20
-24.99200
30
72.00000
0
VERTEX
8
24_72000
10
36.62500
20
-24.25800
30
72.00000
0
VERTEX
8
24_72000
10
36.55800
20
-24.06200
30
72.00000
0
VERTEX
8
24_72000
10
36.36000
20
-23.73300
30
72.00000
0
VERTEX
8
24_72000
10
36.35600
20
-23.64500
30
72.00000
0
VERTEX
8
24_72000
10
36.34200
20
-23.58100
30
72.00000
0
VERTEX
8
24_72000
10
36.37600
20
-23.48100
30
72.00000
0
VERTEX
8
24_72000
10
36.39800
20
-23.38000
30
72.00000
0
VERTEX
8
24_72000
10
36.39300
20
-23.22900
30
72.00000
0
VERTEX
8
24_72000
10
36.43300
20
-23.10000
30
72.00000
0
VERTEX
8
24_72000
10
36.76100
20
-22.70000
30
72.00000
0
VERTEX
8
24_72000
10
37.72800
20
-21.62200
30
72.00000
0
VERTEX
8
24_72000
10
37.91700
20
-21.39300
30
72.00000
0
VERTEX
8
24_72000
10
37.95300
20
-21.33200
30
72.00000
0
VERTEX
8
24_72000
10
38.68200
20
-20.31000
30
72.00000
0
VERTEX
8
24_72000
10
39.25000
20
-19.17600
30
72.00000
0
VERTEX
8
24_72000
10
39.31900
20
-18.99000
30
72.00000
0
VERTEX
8
24_72000
10
39.68800
20
-17.83300
30
72.00000
0
VERTEX
8
24_72000
10
40.09900
20
-16.39900
30
72.00000
0
VERTEX
8
24_72000
10
40.28000
20
-15.42600
30
72.00000
0
VERTEX
8
24_72000
10
40.29500
20
-15.15200
30
72.00000
0
VERTEX
8
24_72000
10
40.45800
20
-14.34500
30
72.00000
0
VERTEX
8
24_72000
10
40.65400
20
-13.53700
30
72.00000
0
VERTEX
8
24_72000
10
40.71800
20
-13.04500
30
72.00000
0
VERTEX
8
24_72000
10
40.72200
20
-12.43700
30
72.00000
0
VERTEX
8
24_72000
10
40.70700
20
-11.37400
30
72.00000
0
VERTEX
8
24_72000
10
40.68300
20
-10.81300
30
72.00000
0
VERTEX
8
24_72000
10
40.67400
20
-9.42500
30
72.00000
0
VERTEX
8
24_72000
10
40.60200
20
-8.13600
30
72.00000
0
VERTEX
8
24_72000
10
40.66100
20
-7.38300
30
72.00000
0
VERTEX
8
24_72000
10
40.72700
20
-6.78600
30
72.00000
0
VERTEX
8
24_72000
10
40.74700
20
-6.69300
30
72.00000
0
VERTEX
8
24_72000
10
40.75900
20
-6.55100
30
72.00000
0
VERTEX
8
24_72000
10
40.79000
20
-6.37900
30
72.00000
0
VERTEX
8
24_72000
10
40.86500
20
-5.47200
30
72.00000
0
VERTEX
8
24_72000
10
40.99700
20
-4.74300
30
72.00000
0
VERTEX
8
24_72000
10
41.13500
20
-4.17700
30
72.00000
0
VERTEX
8
24_72000
10
41.29700
20
-3.35200
30
72.00000
0
VERTEX
8
24_72000
10
41.73900
20
-2.32500
30
72.00000
0
VERTEX
8
24_72000
10
41.82800
20
-2.16300
30
72.00000
0
VERTEX
8
24_72000
10
41.92400
20
-2.02100
30
72.00000
0
VERTEX
8
24_72000
10
42.34200
20
-1.31600
30
72.00000
0
VERTEX
8
24_72000
10
42.49100
20
-1.04800
30
72.00000
0
VERTEX
8
24_72000
10
43.36100
20
-0.04600
30
72.00000
0
VERTEX
8
24_72000
10
43.67000
20
0.23000
30
72.00000
0
VERTEX
8
24_72000
10
44.00700
20
0.59400
30
72.00000
0
VERTEX
8
24_72000
10
44.72100
20
1.21000
30
72.00000
0
VERTEX
8
24_72000
10
46.28500
20
2.48000
30
72.00000
0
VERTEX
8
24_72000
10
46.57500
20
2.74100
30
72.00000
0
VERTEX
8
24_72000
10
46.94100
20
3.11700
30
72.00000
0
VERTEX
8
24_72000
10
47.52600
20
3.58400
30
72.00000
0
VERTEX
8
24_72000
10
48.81000
20
4.48700
30
72.00000
0
VERTEX
8
24_72000
10
49.24700
20
4.74300
30
72.00000
0
VERTEX
8
24_72000
10
49.46200
20
4.89100
30
72.00000
0
VERTEX
8
24_72000
10
49.66500
20
5.01700
30
72.00000
0
VERTEX
8
24_72000
10
50.56000
20
5.65500
30
72.00000
0
VERTEX
8
24_72000
10
51.73900
20
6.57200
30
72.00000
0
VERTEX
8
24_72000
10
51.95500
20
6.72300
30
72.00000
0
VERTEX
8
24_72000
10
52.74300
20
7.41900
30
72.00000
0
VERTEX
8
24_72000
10
52.98400
20
7.65400
30
72.00000
0
VERTEX
8
24_72000
10
54.18000
20
9.04600
30
72.00000
0
VERTEX
8
24_72000
10
54.40400
20
9.37400
30
72.00000
0
VERTEX
8
24_72000
10
54.53200
20
9.53500
30
72.00000
0
VERTEX
8
24_72000
10
54.80000
20
9.96400
30
72.00000
0
VERTEX
8
24_72000
10
54.92600
20
10.19300
30
72.00000
0
VERTEX
8
24_72000
10
55.13800
20
10.62200
30
72.00000
0
VERTEX
8
24_72000
10
55.22000
20
10.85100
30
72.00000
0
VERTEX
8
24_72000
10
55.36900
20
11.19500
30
72.00000
0
VERTEX
8
24_72000
10
55.53600
20
11.62200
30
72.00000
0
VERTEX
8
24_72000
10
55.76500
20
12.48100
30
72.00000
0
VERTEX
8
24_72000
10
55.83600
20
12.82500
30
72.00000
0
VERTEX
8
24_72000
10
56.10200
20
14.61800
30
72.00000
0
VERTEX
8
24_72000
10
56.12800
20
14.92200
30
72.00000
0
VERTEX
8
24_72000
10
56.07700
20
16.24500
30
72.00000
0
VERTEX
8
24_72000
10
56.05900
20
16.31600
30
72.00000
0
VERTEX
8
24_72000
10
55.91200
20
17.19100
30
72.00000
0
VERTEX
8
24_72000
10
55.74000
20
18.01800
30
72.00000
0
VERTEX
8
24_72000
10
55.57300
20
18.67900
30
72.00000
0
VERTEX
8
24_72000
10
55.42500
20
19.13700
30
72.00000
0
VERTEX
8
24_72000
10
55.37400
20
19.32400
30
72.00000
0
VERTEX
8
24_72000
10
54.86500
20
20.54600
30
72.00000
0
VERTEX
8
24_72000
10
54.52200
20
21.31300
30
72.00000
0
VERTEX
8
24_72000
10
53.91300
20
22.37900
30
72.00000
0
VERTEX
8
24_72000
10
52.53800
20
24.24500
30
72.00000
0
VERTEX
8
24_72000
10
48.26600
20
29.90600
30
72.00000
0
VERTEX
8
24_72000
10
47.50300
20
31.00600
30
72.00000
0
VERTEX
8
24_72000
10
46.65000
20
32.40900
30
72.00000
0
VERTEX
8
24_72000
10
45.08400
20
35.52200
30
72.00000
0
VERTEX
8
24_72000
10
43.30000
20
39.37200
30
72.00000
0
VERTEX
8
24_72000
10
41.81200
20
43.42900
30
72.00000
0
VERTEX
8
24_72000
10
41.68000
20
43.88100
30
72.00000
0
VERTEX
8
24_72000
10
41.16200
20
45.53100
30
72.00000
0
VERTEX
8
24_72000
10
40.80000
20
46.82300
30
72.00000
0
VERTEX
8
24_72000
10
39.97600
20
49.83500
30
72.00000
0
VERTEX
8
24_72000
10
39.83900
20
50.28000
30
72.00000
0
VERTEX
8
24_72000
10
39.64500
20
51.01600
30
72.00000
0
VERTEX
8
24_72000
10
39.63100
20
51.19500
30
72.00000
0
VERTEX
8
24_72000
10
39.59200
20
51.48400
30
72.00000
0
VERTEX
8
24_72000
10
39.33800
20
53.02300
30
72.00000
0
VERTEX
8
24_72000
10
39.23700
20
55.11100
30
72.00000
0
VERTEX
8
24_72000
10
39.13700
20
56.79100
30
72.00000
0
VERTEX
8
24_72000
10
39.13500
20
56.91500
30
72.00000
0
VERTEX
8
24_72000
10
39.18000
20
57.78900
30
72.00000
0
VERTEX
8
24_72000
10
39.20400
20
58.73100
30
72.00000
0
VERTEX
8
24_72000
10
39.45400
20
61.16500
30
72.00000
0
VERTEX
8
24_72000
10
39.53200
20
61.99500
30
72.00000
0
VERTEX
8
24_72000
10
39.68600
20
63.86900
30
72.00000
0
VERTEX
8
24_72000
10
39.78200
20
64.75800
30
72.00000
0
VERTEX
8
24_72000
10
39.89800
20
66.27300
30
72.00000
0
VERTEX
8
24_72000
10
39.93800
20
66.65900
30
72.00000
0
VERTEX
8
24_72000
10
40.02900
20
68.83900
30
72.00000
0
VERTEX
8
24_72000
10
40.03300
20
70.37701
30
72.00000
0
VERTEX
8
24_72000
10
39.94000
20
72.60400
30
72.00000
0
VERTEX
8
24_72000
10
39.83800
20
73.54900
30
72.00000
0
VERTEX
8
24_72000
10
39.66800
20
75.34700
30
72.00000
0
VERTEX
8
24_72000
10
39.15500
20
77.94801
30
72.00000
0
VERTEX
8
24_72000
10
38.75400
20
79.21301
30
72.00000
0
VERTEX
8
24_72000
10
38.34200
20
80.31800
30
72.00000
0
VERTEX
8
24_72000
10
38.21800
20
80.68800
30
72.00000
0
VERTEX
8
24_72000
10
38.05100
20
81.01900
30
72.00000
0
VERTEX
8
24_72000
10
37.57600
20
82.08100
30
72.00000
0
VERTEX
8
24_72000
10
37.08800
20
83.05500
30
72.00000
0
VERTEX
8
24_72000
10
36.27200
20
84.29900
30
72.00000
0
VERTEX
8
24_72000
10
36.16900
20
84.52300
30
72.00000
0
VERTEX
8
24_72000
10
35.44500
20
85.89600
30
72.00000
0
VERTEX
8
24_72000
10
15.25400
20
89.26801
30
72.00000
0
VERTEX
8
24_72000
10
-56.17000
20
89.26801
30
72.00000
0
VERTEX
8
24_72000
10
-56.17000
20
-10.85700
30
72.00000
0
SEQEND
8
24_72000
0
POLYLINE
8
24_72000
62
5
0
VERTEX
8
24_72000
10
12.51800
20
89.72201
30
72.00000
0
VERTEX
8
24_72000
10
8.46700
20
90.39900
30
72.00000
0
VERTEX
8
24_72000
10
-56.17000
20
90.39900
30
72.00000
0
VERTEX
8
24_72000
10
-56.17000
20
89.26801
30
72.00000
0
VERTEX
8
24_72000
10
15.24600
20
89.26801
30
72.00000
0
VERTEX
8
24_72000
10
12.51800
20
89.72201
30
72.00000
0
SEQEND
8
24_72000
0
ENDSEC
0
EOF
