0
SECTION
2
HEADER
9
$ACADVER
1
AC1009
0
ENDSEC
0
SECTION
2
TABLES
0
TABLE
2
LAYER
70
1
0
LAYER
2
22_66000
70
0
62
7
6
CONTINUOUS
0
ENDTAB
0
ENDSEC
0
SECTION
2
BLOCKS
0
ENDSEC
0
SECTION
2
ENTITIES
0
POLYLINE
8
22_66000
62
5
0
VERTEX
8
22_66000
10
-29.79400
20
91.58601
30
66.00000
0
VERTEX
8
22_66000
10
1.34800
20
91.58601
30
66.00000
0
VERTEX
8
22_66000
10
1.08700
20
91.63100
30
66.00000
0
VERTEX
8
22_66000
10
-56.17000
20
91.63100
30
66.00000
0
VERTEX
8
22_66000
10
-56.17000
20
91.58601
30
66.00000
0
VERTEX
8
22_66000
10
-29.79400
20
91.58601
30
66.00000
0
SEQEND
8
22_66000
0
POLYLINE
8
22_66000
62
5
0
VERTEX
8
22_66000
10
-29.37800
20
91.52600
30
66.00000
0
VERTEX
8
22_66000
10
1.70900
20
91.52600
30
66.00000
0
VERTEX
8
22_66000
10
1.36700
20
91.58401
30
66.00000
0
VERTEX
8
22_66000
10
-56.17000
20
91.58401
30
66.00000
0
VERTEX
8
22_66000
10
-56.17000
20
91.52600
30
66.00000
0
VERTEX
8
22_66000
10
-29.37800
20
91.52600
30
66.00000
0
SEQEND
8
22_66000
0
POLYLINE
8
22_66000
62
5
0
VERTEX
8
22_66000
10
-28.56400
20
91.35600
30
66.00000
0
VERTEX
8
22_66000
10
2.74300
20
91.35600
30
66.00000
0
VERTEX
8
22_66000
10
1.72300
20
91.52400
30
66.00000
0
VERTEX
8
22_66000
10
-56.17000
20
91.52400
30
66.00000
0
VERTEX
8
22_66000
10
-56.17000
20
91.35600
30
66.00000
0
VERTEX
8
22_66000
10
-28.56400
20
91.35600
30
66.00000
0
SEQEND
8
22_66000
0
POLYLINE
8
22_66000
62
5
0
VERTEX
8
22_66000
10
-26.45400
20
90.47900
30
66.00000
0
VERTEX
8
22_66000
10
7.99300
20
90.47900
30
66.00000
0
VERTEX
8
22_66000
10
2.75800
20
91.35201
30
66.00000
0
VERTEX
8
22_66000
10
-56.17000
20
91.35201
30
66.00000
0
VERTEX
8
22_66000
10
-56.17000
20
90.47900
30
66.00000
0
VERTEX
8
22_66000
10
-26.45400
20
90.47900
30
66.00000
0
SEQEND
8
22_66000
0
POLYLINE
8
22_66000
62
5
0
VERTEX
8
22_66000
10
-56.17000
20
-11.93700
30
66.00000
0
VERTEX
8
22_66000
10
-56.17000
20
-92.11401
30
66.00000
0
VERTEX
8
22_66000
10
24.15900
20
-92.11401
30
66.00000
0
VERTEX
8
22_66000
10
24.16700
20
-91.93600
30
66.00000
0
VERTEX
8
22_66000
10
24.20900
20
-91.66601
30
66.00000
0
VERTEX
8
22_66000
10
24.34100
20
-90.60300
30
66.00000
0
VERTEX
8
22_66000
10
24.44800
20
-90.38700
30
66.00000
0
VERTEX
8
22_66000
10
24.69200
20
-90.06400
30
66.00000
0
VERTEX
8
22_66000
10
25.15300
20
-89.65501
30
66.00000
0
VERTEX
8
22_66000
10
25.96500
20
-88.96900
30
66.00000
0
VERTEX
8
22_66000
10
27.58100
20
-87.55200
30
66.00000
0
VERTEX
8
22_66000
10
28.40900
20
-86.74200
30
66.00000
0
VERTEX
8
22_66000
10
28.63500
20
-86.44200
30
66.00000
0
VERTEX
8
22_66000
10
28.78100
20
-86.20400
30
66.00000
0
VERTEX
8
22_66000
10
28.85200
20
-86.12701
30
66.00000
0
VERTEX
8
22_66000
10
29.05700
20
-85.71101
30
66.00000
0
VERTEX
8
22_66000
10
29.30000
20
-85.38100
30
66.00000
0
VERTEX
8
22_66000
10
29.42800
20
-85.22100
30
66.00000
0
VERTEX
8
22_66000
10
29.67500
20
-84.94601
30
66.00000
0
VERTEX
8
22_66000
10
30.32700
20
-83.84000
30
66.00000
0
VERTEX
8
22_66000
10
30.47700
20
-83.57201
30
66.00000
0
VERTEX
8
22_66000
10
30.64400
20
-83.11401
30
66.00000
0
VERTEX
8
22_66000
10
30.83600
20
-82.76601
30
66.00000
0
VERTEX
8
22_66000
10
30.88300
20
-82.56400
30
66.00000
0
VERTEX
8
22_66000
10
31.04700
20
-82.20800
30
66.00000
0
VERTEX
8
22_66000
10
31.28400
20
-81.77300
30
66.00000
0
VERTEX
8
22_66000
10
31.33300
20
-81.57800
30
66.00000
0
VERTEX
8
22_66000
10
31.33500
20
-81.41000
30
66.00000
0
VERTEX
8
22_66000
10
31.31700
20
-81.18301
30
66.00000
0
VERTEX
8
22_66000
10
31.41200
20
-80.85800
30
66.00000
0
VERTEX
8
22_66000
10
31.52900
20
-80.63200
30
66.00000
0
VERTEX
8
22_66000
10
31.68800
20
-80.19801
30
66.00000
0
VERTEX
8
22_66000
10
31.74400
20
-79.74400
30
66.00000
0
VERTEX
8
22_66000
10
31.72900
20
-79.56500
30
66.00000
0
VERTEX
8
22_66000
10
31.84500
20
-79.19801
30
66.00000
0
VERTEX
8
22_66000
10
31.89500
20
-78.96400
30
66.00000
0
VERTEX
8
22_66000
10
31.80100
20
-78.29301
30
66.00000
0
VERTEX
8
22_66000
10
31.83600
20
-78.13300
30
66.00000
0
VERTEX
8
22_66000
10
31.82000
20
-77.98300
30
66.00000
0
VERTEX
8
22_66000
10
31.89600
20
-77.41801
30
66.00000
0
VERTEX
8
22_66000
10
31.97200
20
-77.25600
30
66.00000
0
VERTEX
8
22_66000
10
32.09700
20
-76.82101
30
66.00000
0
VERTEX
8
22_66000
10
32.19200
20
-76.30200
30
66.00000
0
VERTEX
8
22_66000
10
32.43600
20
-75.58200
30
66.00000
0
VERTEX
8
22_66000
10
32.51200
20
-75.24700
30
66.00000
0
VERTEX
8
22_66000
10
32.53000
20
-75.05300
30
66.00000
0
VERTEX
8
22_66000
10
32.53100
20
-74.92300
30
66.00000
0
VERTEX
8
22_66000
10
32.62300
20
-74.23400
30
66.00000
0
VERTEX
8
22_66000
10
32.67400
20
-73.71301
30
66.00000
0
VERTEX
8
22_66000
10
32.65100
20
-73.36700
30
66.00000
0
VERTEX
8
22_66000
10
32.70700
20
-72.92900
30
66.00000
0
VERTEX
8
22_66000
10
32.84800
20
-72.41400
30
66.00000
0
VERTEX
8
22_66000
10
32.86000
20
-72.19801
30
66.00000
0
VERTEX
8
22_66000
10
32.94500
20
-71.70300
30
66.00000
0
VERTEX
8
22_66000
10
33.12000
20
-71.18600
30
66.00000
0
VERTEX
8
22_66000
10
33.49200
20
-70.20400
30
66.00000
0
VERTEX
8
22_66000
10
33.63000
20
-69.75101
30
66.00000
0
VERTEX
8
22_66000
10
33.66900
20
-69.52901
30
66.00000
0
VERTEX
8
22_66000
10
33.67500
20
-69.34800
30
66.00000
0
VERTEX
8
22_66000
10
33.73800
20
-68.81001
30
66.00000
0
VERTEX
8
22_66000
10
33.71400
20
-68.63800
30
66.00000
0
VERTEX
8
22_66000
10
33.82700
20
-67.91600
30
66.00000
0
VERTEX
8
22_66000
10
33.55400
20
-66.64800
30
66.00000
0
VERTEX
8
22_66000
10
33.51300
20
-66.17200
30
66.00000
0
VERTEX
8
22_66000
10
33.48700
20
-66.09800
30
66.00000
0
VERTEX
8
22_66000
10
33.35200
20
-65.55300
30
66.00000
0
VERTEX
8
22_66000
10
33.29400
20
-64.98901
30
66.00000
0
VERTEX
8
22_66000
10
33.28100
20
-64.56400
30
66.00000
0
VERTEX
8
22_66000
10
33.24800
20
-64.34700
30
66.00000
0
VERTEX
8
22_66000
10
33.18100
20
-63.70000
30
66.00000
0
VERTEX
8
22_66000
10
33.00200
20
-62.45100
30
66.00000
0
VERTEX
8
22_66000
10
32.89800
20
-61.46700
30
66.00000
0
VERTEX
8
22_66000
10
32.90200
20
-60.81700
30
66.00000
0
VERTEX
8
22_66000
10
32.86500
20
-60.23000
30
66.00000
0
VERTEX
8
22_66000
10
32.78700
20
-59.54100
30
66.00000
0
VERTEX
8
22_66000
10
32.68500
20
-58.42700
30
66.00000
0
VERTEX
8
22_66000
10
32.68000
20
-58.30600
30
66.00000
0
VERTEX
8
22_66000
10
32.66200
20
-58.19700
30
66.00000
0
VERTEX
8
22_66000
10
32.62100
20
-57.58100
30
66.00000
0
VERTEX
8
22_66000
10
32.47500
20
-55.84600
30
66.00000
0
VERTEX
8
22_66000
10
32.38100
20
-54.17600
30
66.00000
0
VERTEX
8
22_66000
10
32.51300
20
-52.13100
30
66.00000
0
VERTEX
8
22_66000
10
32.53400
20
-51.67700
30
66.00000
0
VERTEX
8
22_66000
10
32.54000
20
-51.61500
30
66.00000
0
VERTEX
8
22_66000
10
32.86700
20
-50.53700
30
66.00000
0
VERTEX
8
22_66000
10
32.92800
20
-50.27600
30
66.00000
0
VERTEX
8
22_66000
10
33.11200
20
-49.82500
30
66.00000
0
VERTEX
8
22_66000
10
33.26200
20
-49.55600
30
66.00000
0
VERTEX
8
22_66000
10
33.56300
20
-48.86900
30
66.00000
0
VERTEX
8
22_66000
10
33.72000
20
-48.53900
30
66.00000
0
VERTEX
8
22_66000
10
34.24800
20
-47.57100
30
66.00000
0
VERTEX
8
22_66000
10
34.33300
20
-47.43200
30
66.00000
0
VERTEX
8
22_66000
10
34.83500
20
-46.51900
30
66.00000
0
VERTEX
8
22_66000
10
35.25200
20
-45.85600
30
66.00000
0
VERTEX
8
22_66000
10
35.65700
20
-44.94000
30
66.00000
0
VERTEX
8
22_66000
10
35.71900
20
-44.82400
30
66.00000
0
VERTEX
8
22_66000
10
36.19400
20
-43.80000
30
66.00000
0
VERTEX
8
22_66000
10
36.40700
20
-43.44300
30
66.00000
0
VERTEX
8
22_66000
10
36.49800
20
-42.93600
30
66.00000
0
VERTEX
8
22_66000
10
36.72200
20
-42.32800
30
66.00000
0
VERTEX
8
22_66000
10
36.83200
20
-41.30800
30
66.00000
0
VERTEX
8
22_66000
10
36.70200
20
-40.29200
30
66.00000
0
VERTEX
8
22_66000
10
36.76600
20
-39.79800
30
66.00000
0
VERTEX
8
22_66000
10
36.66900
20
-39.09100
30
66.00000
0
VERTEX
8
22_66000
10
36.62800
20
-38.87800
30
66.00000
0
VERTEX
8
22_66000
10
36.61100
20
-38.71300
30
66.00000
0
VERTEX
8
22_66000
10
36.61100
20
-38.18400
30
66.00000
0
VERTEX
8
22_66000
10
36.73700
20
-37.07200
30
66.00000
0
VERTEX
8
22_66000
10
36.79400
20
-36.64900
30
66.00000
0
VERTEX
8
22_66000
10
36.96200
20
-35.80700
30
66.00000
0
VERTEX
8
22_66000
10
37.11000
20
-35.00100
30
66.00000
0
VERTEX
8
22_66000
10
37.15800
20
-34.30200
30
66.00000
0
VERTEX
8
22_66000
10
37.12200
20
-32.25000
30
66.00000
0
VERTEX
8
22_66000
10
37.14700
20
-31.68800
30
66.00000
0
VERTEX
8
22_66000
10
36.99300
20
-30.26000
30
66.00000
0
VERTEX
8
22_66000
10
36.84500
20
-29.44400
30
66.00000
0
VERTEX
8
22_66000
10
36.50000
20
-27.74900
30
66.00000
0
VERTEX
8
22_66000
10
36.31000
20
-27.29000
30
66.00000
0
VERTEX
8
22_66000
10
35.64700
20
-25.00500
30
66.00000
0
VERTEX
8
22_66000
10
35.45500
20
-24.27200
30
66.00000
0
VERTEX
8
22_66000
10
35.37900
20
-23.84200
30
66.00000
0
VERTEX
8
22_66000
10
35.23200
20
-23.30500
30
66.00000
0
VERTEX
8
22_66000
10
35.25500
20
-23.25700
30
66.00000
0
VERTEX
8
22_66000
10
35.29700
20
-22.95200
30
66.00000
0
VERTEX
8
22_66000
10
36.34500
20
-21.57800
30
66.00000
0
VERTEX
8
22_66000
10
36.65100
20
-21.20700
30
66.00000
0
VERTEX
8
22_66000
10
36.90000
20
-20.74000
30
66.00000
0
VERTEX
8
22_66000
10
37.20000
20
-20.21700
30
66.00000
0
VERTEX
8
22_66000
10
38.26600
20
-17.56900
30
66.00000
0
VERTEX
8
22_66000
10
38.55500
20
-16.71200
30
66.00000
0
VERTEX
8
22_66000
10
38.76300
20
-16.04600
30
66.00000
0
VERTEX
8
22_66000
10
38.93400
20
-15.20900
30
66.00000
0
VERTEX
8
22_66000
10
39.08600
20
-14.29900
30
66.00000
0
VERTEX
8
22_66000
10
39.08500
20
-13.75800
30
66.00000
0
VERTEX
8
22_66000
10
39.12200
20
-13.58300
30
66.00000
0
VERTEX
8
22_66000
10
39.12700
20
-13.33400
30
66.00000
0
VERTEX
8
22_66000
10
39.23000
20
-12.21100
30
66.00000
0
VERTEX
8
22_66000
10
39.22900
20
-11.97600
30
66.00000
0
VERTEX
8
22_66000
10
39.17800
20
-11.21400
30
66.00000
0
VERTEX
8
22_66000
10
39.27100
20
-10.24600
30
66.00000
0
VERTEX
8
22_66000
10
39.20500
20
-9.47500
30
66.00000
0
VERTEX
8
22_66000
10
39.21900
20
-9.01700
30
66.00000
0
VERTEX
8
22_66000
10
39.18100
20
-8.82600
30
66.00000
0
VERTEX
8
22_66000
10
39.18500
20
-8.35400
30
66.00000
0
VERTEX
8
22_66000
10
39.24800
20
-7.92000
30
66.00000
0
VERTEX
8
22_66000
10
39.39100
20
-6.78500
30
66.00000
0
VERTEX
8
22_66000
10
39.41800
20
-6.67800
30
66.00000
0
VERTEX
8
22_66000
10
39.51400
20
-5.48000
30
66.00000
0
VERTEX
8
22_66000
10
39.60500
20
-5.03300
30
66.00000
0
VERTEX
8
22_66000
10
39.67700
20
-4.58700
30
66.00000
0
VERTEX
8
22_66000
10
39.68100
20
-4.43700
30
66.00000
0
VERTEX
8
22_66000
10
39.66800
20
-4.36200
30
66.00000
0
VERTEX
8
22_66000
10
39.70600
20
-3.56600
30
66.00000
0
VERTEX
8
22_66000
10
39.66400
20
-3.16200
30
66.00000
0
VERTEX
8
22_66000
10
39.70600
20
-2.43900
30
66.00000
0
VERTEX
8
22_66000
10
39.74400
20
-2.23200
30
66.00000
0
VERTEX
8
22_66000
10
40.22100
20
-0.82900
30
66.00000
0
VERTEX
8
22_66000
10
40.36300
20
-0.55500
30
66.00000
0
VERTEX
8
22_66000
10
40.41300
20
-0.43500
30
66.00000
0
VERTEX
8
22_66000
10
41.78600
20
2.41200
30
66.00000
0
VERTEX
8
22_66000
10
42.08300
20
3.17600
30
66.00000
0
VERTEX
8
22_66000
10
42.14500
20
3.31400
30
66.00000
0
VERTEX
8
22_66000
10
42.29300
20
3.69200
30
66.00000
0
VERTEX
8
22_66000
10
42.57800
20
4.51000
30
66.00000
0
VERTEX
8
22_66000
10
42.58800
20
4.66500
30
66.00000
0
VERTEX
8
22_66000
10
42.64300
20
4.94800
30
66.00000
0
VERTEX
8
22_66000
10
42.93800
20
5.42300
30
66.00000
0
VERTEX
8
22_66000
10
43.04800
20
5.54900
30
66.00000
0
VERTEX
8
22_66000
10
43.55900
20
6.08000
30
66.00000
0
VERTEX
8
22_66000
10
43.86400
20
6.31000
30
66.00000
0
VERTEX
8
22_66000
10
44.22900
20
6.53500
30
66.00000
0
VERTEX
8
22_66000
10
44.50300
20
6.71800
30
66.00000
0
VERTEX
8
22_66000
10
45.13700
20
7.22400
30
66.00000
0
VERTEX
8
22_66000
10
46.48800
20
8.25900
30
66.00000
0
VERTEX
8
22_66000
10
48.53300
20
9.64300
30
66.00000
0
VERTEX
8
22_66000
10
49.52500
20
10.38500
30
66.00000
0
VERTEX
8
22_66000
10
50.02600
20
10.86500
30
66.00000
0
VERTEX
8
22_66000
10
50.22800
20
11.01000
30
66.00000
0
VERTEX
8
22_66000
10
51.20300
20
12.22500
30
66.00000
0
VERTEX
8
22_66000
10
51.49200
20
12.52100
30
66.00000
0
VERTEX
8
22_66000
10
51.76300
20
12.93300
30
66.00000
0
VERTEX
8
22_66000
10
52.07600
20
13.62100
30
66.00000
0
VERTEX
8
22_66000
10
52.35900
20
14.27600
30
66.00000
0
VERTEX
8
22_66000
10
52.45200
20
14.58600
30
66.00000
0
VERTEX
8
22_66000
10
52.59400
20
15.20800
30
66.00000
0
VERTEX
8
22_66000
10
52.74200
20
16.55300
30
66.00000
0
VERTEX
8
22_66000
10
52.74400
20
16.59300
30
66.00000
0
VERTEX
8
22_66000
10
52.62000
20
17.58700
30
66.00000
0
VERTEX
8
22_66000
10
52.21900
20
19.27400
30
66.00000
0
VERTEX
8
22_66000
10
51.55400
20
20.64500
30
66.00000
0
VERTEX
8
22_66000
10
50.84300
20
21.73800
30
66.00000
0
VERTEX
8
22_66000
10
48.84700
20
24.76500
30
66.00000
0
VERTEX
8
22_66000
10
46.00800
20
28.58400
30
66.00000
0
VERTEX
8
22_66000
10
44.99400
20
29.88400
30
66.00000
0
VERTEX
8
22_66000
10
44.02800
20
31.24300
30
66.00000
0
VERTEX
8
22_66000
10
42.85800
20
33.12600
30
66.00000
0
VERTEX
8
22_66000
10
42.69800
20
33.48100
30
66.00000
0
VERTEX
8
22_66000
10
42.25300
20
34.40100
30
66.00000
0
VERTEX
8
22_66000
10
41.80500
20
35.24400
30
66.00000
0
VERTEX
8
22_66000
10
40.32300
20
39.02600
30
66.00000
0
VERTEX
8
22_66000
10
40.19800
20
39.30900
30
66.00000
0
VERTEX
8
22_66000
10
40.11100
20
39.56600
30
66.00000
0
VERTEX
8
22_66000
10
39.30100
20
42.06300
30
66.00000
0
VERTEX
8
22_66000
10
38.94800
20
43.30400
30
66.00000
0
VERTEX
8
22_66000
10
38.38100
20
45.13200
30
66.00000
0
VERTEX
8
22_66000
10
38.08900
20
46.23000
30
66.00000
0
VERTEX
8
22_66000
10
37.68200
20
47.93900
30
66.00000
0
VERTEX
8
22_66000
10
37.52800
20
48.53700
30
66.00000
0
VERTEX
8
22_66000
10
37.24300
20
50.40900
30
66.00000
0
VERTEX
8
22_66000
10
37.15800
20
51.42400
30
66.00000
0
VERTEX
8
22_66000
10
37.08700
20
52.74200
30
66.00000
0
VERTEX
8
22_66000
10
37.13100
20
53.19700
30
66.00000
0
VERTEX
8
22_66000
10
37.18700
20
53.58300
30
66.00000
0
VERTEX
8
22_66000
10
37.18600
20
55.08000
30
66.00000
0
VERTEX
8
22_66000
10
37.23600
20
56.06900
30
66.00000
0
VERTEX
8
22_66000
10
37.37400
20
56.92900
30
66.00000
0
VERTEX
8
22_66000
10
37.42000
20
57.80200
30
66.00000
0
VERTEX
8
22_66000
10
37.48500
20
58.21600
30
66.00000
0
VERTEX
8
22_66000
10
37.76800
20
60.23400
30
66.00000
0
VERTEX
8
22_66000
10
37.96800
20
61.37300
30
66.00000
0
VERTEX
8
22_66000
10
38.09300
20
61.95400
30
66.00000
0
VERTEX
8
22_66000
10
38.19200
20
62.67800
30
66.00000
0
VERTEX
8
22_66000
10
38.47600
20
64.13300
30
66.00000
0
VERTEX
8
22_66000
10
38.64000
20
64.83300
30
66.00000
0
VERTEX
8
22_66000
10
38.76900
20
65.59800
30
66.00000
0
VERTEX
8
22_66000
10
39.01000
20
66.76801
30
66.00000
0
VERTEX
8
22_66000
10
39.08900
20
67.23700
30
66.00000
0
VERTEX
8
22_66000
10
39.13800
20
67.70300
30
66.00000
0
VERTEX
8
22_66000
10
39.40900
20
69.46500
30
66.00000
0
VERTEX
8
22_66000
10
39.44700
20
69.95900
30
66.00000
0
VERTEX
8
22_66000
10
39.49300
20
71.31700
30
66.00000
0
VERTEX
8
22_66000
10
39.49100
20
72.12100
30
66.00000
0
VERTEX
8
22_66000
10
39.51400
20
72.62901
30
66.00000
0
VERTEX
8
22_66000
10
39.41400
20
73.78101
30
66.00000
0
VERTEX
8
22_66000
10
39.37800
20
74.44701
30
66.00000
0
VERTEX
8
22_66000
10
39.28900
20
74.97701
30
66.00000
0
VERTEX
8
22_66000
10
39.12800
20
76.37801
30
66.00000
0
VERTEX
8
22_66000
10
38.94800
20
77.21400
30
66.00000
0
VERTEX
8
22_66000
10
38.85400
20
77.56100
30
66.00000
0
VERTEX
8
22_66000
10
38.58100
20
78.37500
30
66.00000
0
VERTEX
8
22_66000
10
38.00100
20
80.25101
30
66.00000
0
VERTEX
8
22_66000
10
37.32200
20
81.80300
30
66.00000
0
VERTEX
8
22_66000
10
36.93800
20
82.71500
30
66.00000
0
VERTEX
8
22_66000
10
36.77900
20
83.00301
30
66.00000
0
VERTEX
8
22_66000
10
36.60600
20
83.27500
30
66.00000
0
VERTEX
8
22_66000
10
36.24100
20
83.95901
30
66.00000
0
VERTEX
8
22_66000
10
35.80400
20
84.67300
30
66.00000
0
VERTEX
8
22_66000
10
35.50800
20
85.04700
30
66.00000
0
VERTEX
8
22_66000
10
34.85100
20
85.99500
30
66.00000
0
VERTEX
8
22_66000
10
14.22100
20
89.44000
30
66.00000
0
VERTEX
8
22_66000
10
-56.17000
20
89.44000
30
66.00000
0
VERTEX
8
22_66000
10
-56.17000
20
-11.93700
30
66.00000
0
SEQEND
8
22_66000
0
POLYLINE
8
22_66000
62
5
0
VERTEX
8
22_66000
10
11.72200
20
89.85500
30
66.00000
0
VERTEX
8
22_66000
10
8.01900
20
90.47301
30
66.00000
0
VERTEX
8
22_66000
10
-56.17000
20
90.47301
30
66.00000
0
VERTEX
8
22_66000
10
-56.17000
20
89.44000
30
66.00000
0
VERTEX
8
22_66000
10
14.21400
20
89.44000
30
66.00000
0
VERTEX
8
22_66000
10
11.72200
20
89.85500
30
66.00000
0
SEQEND
8
22_66000
0
ENDSEC
0
EOF
