0
SECTION
2
HEADER
9
$ACADVER
1
AC1009
0
ENDSEC
0
SECTION
2
TABLES
0
TABLE
2
LAYER
70
1
0
LAYER
2
34_102000
70
0
62
7
6
CONTINUOUS
0
ENDTAB
0
ENDSEC
0
SECTION
2
BLOCKS
0
ENDSEC
0
SECTION
2
ENTITIES
0
POLYLINE
8
34_102000
62
5
0
VERTEX
8
34_102000
10
-56.17000
20
91.77901
30
102.00000
0
VERTEX
8
34_102000
10
0.21000
20
91.77701
30
102.00000
0
VERTEX
8
34_102000
10
-0.20200
20
91.84701
30
102.00000
0
VERTEX
8
34_102000
10
-56.17000
20
91.84701
30
102.00000
0
VERTEX
8
34_102000
10
-56.17000
20
91.77901
30
102.00000
0
SEQEND
8
34_102000
0
POLYLINE
8
34_102000
62
5
0
VERTEX
8
34_102000
10
-45.21600
20
91.73901
30
102.00000
0
VERTEX
8
34_102000
10
0.44000
20
91.73901
30
102.00000
0
VERTEX
8
34_102000
10
0.24000
20
91.77200
30
102.00000
0
VERTEX
8
34_102000
10
-56.17000
20
91.77200
30
102.00000
0
VERTEX
8
34_102000
10
-56.17000
20
91.73901
30
102.00000
0
VERTEX
8
34_102000
10
-45.21600
20
91.73901
30
102.00000
0
SEQEND
8
34_102000
0
POLYLINE
8
34_102000
62
5
0
VERTEX
8
34_102000
10
-56.17000
20
91.72800
30
102.00000
0
VERTEX
8
34_102000
10
-56.17000
20
91.68401
30
102.00000
0
VERTEX
8
34_102000
10
0.77500
20
91.68401
30
102.00000
0
VERTEX
8
34_102000
10
0.44700
20
91.73901
30
102.00000
0
VERTEX
8
34_102000
10
-56.17000
20
91.73901
30
102.00000
0
VERTEX
8
34_102000
10
-56.17000
20
91.72800
30
102.00000
0
SEQEND
8
34_102000
0
POLYLINE
8
34_102000
62
5
0
VERTEX
8
34_102000
10
-56.17000
20
91.51200
30
102.00000
0
VERTEX
8
34_102000
10
-56.17000
20
91.41100
30
102.00000
0
VERTEX
8
34_102000
10
2.40000
20
91.41100
30
102.00000
0
VERTEX
8
34_102000
10
0.79900
20
91.67800
30
102.00000
0
VERTEX
8
34_102000
10
-56.17000
20
91.67800
30
102.00000
0
VERTEX
8
34_102000
10
-56.17000
20
91.51200
30
102.00000
0
SEQEND
8
34_102000
0
POLYLINE
8
34_102000
62
5
0
VERTEX
8
34_102000
10
-56.17000
20
80.83300
30
102.00000
0
VERTEX
8
34_102000
10
-56.17000
20
-92.11401
30
102.00000
0
VERTEX
8
34_102000
10
30.27200
20
-92.11401
30
102.00000
0
VERTEX
8
34_102000
10
30.03100
20
-91.34100
30
102.00000
0
VERTEX
8
34_102000
10
29.98800
20
-91.16500
30
102.00000
0
VERTEX
8
34_102000
10
29.25300
20
-88.51300
30
102.00000
0
VERTEX
8
34_102000
10
29.07400
20
-87.64700
30
102.00000
0
VERTEX
8
34_102000
10
28.96600
20
-86.99400
30
102.00000
0
VERTEX
8
34_102000
10
28.84500
20
-86.08900
30
102.00000
0
VERTEX
8
34_102000
10
28.95800
20
-85.65601
30
102.00000
0
VERTEX
8
34_102000
10
29.13700
20
-85.14400
30
102.00000
0
VERTEX
8
34_102000
10
29.83700
20
-83.60001
30
102.00000
0
VERTEX
8
34_102000
10
29.90700
20
-82.98701
30
102.00000
0
VERTEX
8
34_102000
10
30.08500
20
-82.32001
30
102.00000
0
VERTEX
8
34_102000
10
30.17800
20
-82.00500
30
102.00000
0
VERTEX
8
34_102000
10
30.14200
20
-81.94000
30
102.00000
0
VERTEX
8
34_102000
10
30.08400
20
-81.67300
30
102.00000
0
VERTEX
8
34_102000
10
30.04600
20
-81.30601
30
102.00000
0
VERTEX
8
34_102000
10
30.04200
20
-81.10001
30
102.00000
0
VERTEX
8
34_102000
10
30.11400
20
-80.44501
30
102.00000
0
VERTEX
8
34_102000
10
30.20200
20
-80.06400
30
102.00000
0
VERTEX
8
34_102000
10
30.23900
20
-79.70500
30
102.00000
0
VERTEX
8
34_102000
10
30.33400
20
-79.50800
30
102.00000
0
VERTEX
8
34_102000
10
30.43000
20
-78.76200
30
102.00000
0
VERTEX
8
34_102000
10
30.70200
20
-78.10001
30
102.00000
0
VERTEX
8
34_102000
10
30.83600
20
-77.51701
30
102.00000
0
VERTEX
8
34_102000
10
30.86000
20
-77.27200
30
102.00000
0
VERTEX
8
34_102000
10
30.90400
20
-77.17101
30
102.00000
0
VERTEX
8
34_102000
10
31.10900
20
-76.86900
30
102.00000
0
VERTEX
8
34_102000
10
31.13800
20
-76.48901
30
102.00000
0
VERTEX
8
34_102000
10
31.12000
20
-76.32600
30
102.00000
0
VERTEX
8
34_102000
10
31.23500
20
-75.93800
30
102.00000
0
VERTEX
8
34_102000
10
31.29800
20
-75.82301
30
102.00000
0
VERTEX
8
34_102000
10
31.33000
20
-75.61900
30
102.00000
0
VERTEX
8
34_102000
10
31.58100
20
-75.01400
30
102.00000
0
VERTEX
8
34_102000
10
31.75700
20
-74.62500
30
102.00000
0
VERTEX
8
34_102000
10
31.72700
20
-74.39700
30
102.00000
0
VERTEX
8
34_102000
10
31.75500
20
-74.27400
30
102.00000
0
VERTEX
8
34_102000
10
31.74000
20
-74.15900
30
102.00000
0
VERTEX
8
34_102000
10
31.68700
20
-74.05300
30
102.00000
0
VERTEX
8
34_102000
10
31.59000
20
-73.71900
30
102.00000
0
VERTEX
8
34_102000
10
31.57500
20
-73.52600
30
102.00000
0
VERTEX
8
34_102000
10
31.58200
20
-73.13300
30
102.00000
0
VERTEX
8
34_102000
10
31.61800
20
-72.89001
30
102.00000
0
VERTEX
8
34_102000
10
31.60900
20
-72.83100
30
102.00000
0
VERTEX
8
34_102000
10
31.71900
20
-72.51900
30
102.00000
0
VERTEX
8
34_102000
10
31.73800
20
-72.31900
30
102.00000
0
VERTEX
8
34_102000
10
31.68000
20
-72.23400
30
102.00000
0
VERTEX
8
34_102000
10
31.56700
20
-71.49001
30
102.00000
0
VERTEX
8
34_102000
10
31.55300
20
-71.02200
30
102.00000
0
VERTEX
8
34_102000
10
31.51900
20
-70.73200
30
102.00000
0
VERTEX
8
34_102000
10
31.30600
20
-69.66600
30
102.00000
0
VERTEX
8
34_102000
10
31.08200
20
-68.69200
30
102.00000
0
VERTEX
8
34_102000
10
30.98600
20
-68.32800
30
102.00000
0
VERTEX
8
34_102000
10
30.95200
20
-68.07201
30
102.00000
0
VERTEX
8
34_102000
10
30.91400
20
-67.98700
30
102.00000
0
VERTEX
8
34_102000
10
30.86500
20
-67.55801
30
102.00000
0
VERTEX
8
34_102000
10
30.78200
20
-67.16400
30
102.00000
0
VERTEX
8
34_102000
10
30.72400
20
-66.93201
30
102.00000
0
VERTEX
8
34_102000
10
30.67600
20
-66.78500
30
102.00000
0
VERTEX
8
34_102000
10
30.39600
20
-66.05000
30
102.00000
0
VERTEX
8
34_102000
10
30.38700
20
-65.22000
30
102.00000
0
VERTEX
8
34_102000
10
30.31800
20
-64.97100
30
102.00000
0
VERTEX
8
34_102000
10
30.20300
20
-64.66700
30
102.00000
0
VERTEX
8
34_102000
10
30.15800
20
-64.52700
30
102.00000
0
VERTEX
8
34_102000
10
29.40100
20
-62.07100
30
102.00000
0
VERTEX
8
34_102000
10
29.35900
20
-61.71900
30
102.00000
0
VERTEX
8
34_102000
10
29.32100
20
-61.49600
30
102.00000
0
VERTEX
8
34_102000
10
29.28800
20
-60.92000
30
102.00000
0
VERTEX
8
34_102000
10
29.26800
20
-60.80500
30
102.00000
0
VERTEX
8
34_102000
10
29.16300
20
-59.87700
30
102.00000
0
VERTEX
8
34_102000
10
29.06000
20
-59.45000
30
102.00000
0
VERTEX
8
34_102000
10
29.02500
20
-59.23400
30
102.00000
0
VERTEX
8
34_102000
10
28.89900
20
-58.65000
30
102.00000
0
VERTEX
8
34_102000
10
28.90100
20
-57.87800
30
102.00000
0
VERTEX
8
34_102000
10
28.88500
20
-57.82100
30
102.00000
0
VERTEX
8
34_102000
10
28.82800
20
-57.35600
30
102.00000
0
VERTEX
8
34_102000
10
28.67600
20
-56.38600
30
102.00000
0
VERTEX
8
34_102000
10
28.66300
20
-55.91300
30
102.00000
0
VERTEX
8
34_102000
10
28.69500
20
-54.87500
30
102.00000
0
VERTEX
8
34_102000
10
28.71500
20
-54.46900
30
102.00000
0
VERTEX
8
34_102000
10
28.72300
20
-53.99100
30
102.00000
0
VERTEX
8
34_102000
10
28.69700
20
-53.00900
30
102.00000
0
VERTEX
8
34_102000
10
28.78200
20
-51.32000
30
102.00000
0
VERTEX
8
34_102000
10
28.82500
20
-50.64600
30
102.00000
0
VERTEX
8
34_102000
10
29.01200
20
-48.81700
30
102.00000
0
VERTEX
8
34_102000
10
29.05000
20
-48.58400
30
102.00000
0
VERTEX
8
34_102000
10
29.09700
20
-48.05200
30
102.00000
0
VERTEX
8
34_102000
10
29.42200
20
-46.01600
30
102.00000
0
VERTEX
8
34_102000
10
29.50700
20
-45.72400
30
102.00000
0
VERTEX
8
34_102000
10
29.74100
20
-44.06500
30
102.00000
0
VERTEX
8
34_102000
10
29.97900
20
-42.55600
30
102.00000
0
VERTEX
8
34_102000
10
29.99500
20
-42.30800
30
102.00000
0
VERTEX
8
34_102000
10
30.13700
20
-41.37800
30
102.00000
0
VERTEX
8
34_102000
10
30.24700
20
-40.98500
30
102.00000
0
VERTEX
8
34_102000
10
30.36300
20
-40.09600
30
102.00000
0
VERTEX
8
34_102000
10
30.36800
20
-39.89000
30
102.00000
0
VERTEX
8
34_102000
10
30.36200
20
-39.65100
30
102.00000
0
VERTEX
8
34_102000
10
30.21400
20
-37.62200
30
102.00000
0
VERTEX
8
34_102000
10
30.16100
20
-36.70900
30
102.00000
0
VERTEX
8
34_102000
10
30.17400
20
-35.11800
30
102.00000
0
VERTEX
8
34_102000
10
30.17100
20
-34.57300
30
102.00000
0
VERTEX
8
34_102000
10
29.35800
20
-30.73300
30
102.00000
0
VERTEX
8
34_102000
10
29.12600
20
-29.73500
30
102.00000
0
VERTEX
8
34_102000
10
28.76200
20
-28.27200
30
102.00000
0
VERTEX
8
34_102000
10
28.55000
20
-27.52600
30
102.00000
0
VERTEX
8
34_102000
10
28.02200
20
-26.24800
30
102.00000
0
VERTEX
8
34_102000
10
27.28500
20
-24.75900
30
102.00000
0
VERTEX
8
34_102000
10
26.91300
20
-23.96100
30
102.00000
0
VERTEX
8
34_102000
10
26.77000
20
-23.58700
30
102.00000
0
VERTEX
8
34_102000
10
26.57100
20
-23.20100
30
102.00000
0
VERTEX
8
34_102000
10
26.45300
20
-22.80900
30
102.00000
0
VERTEX
8
34_102000
10
26.02800
20
-21.81500
30
102.00000
0
VERTEX
8
34_102000
10
26.02500
20
-21.73300
30
102.00000
0
VERTEX
8
34_102000
10
25.98500
20
-21.46900
30
102.00000
0
VERTEX
8
34_102000
10
25.98400
20
-21.40900
30
102.00000
0
VERTEX
8
34_102000
10
26.17000
20
-21.04200
30
102.00000
0
VERTEX
8
34_102000
10
26.30500
20
-20.81400
30
102.00000
0
VERTEX
8
34_102000
10
26.77900
20
-20.32300
30
102.00000
0
VERTEX
8
34_102000
10
27.42600
20
-19.78200
30
102.00000
0
VERTEX
8
34_102000
10
28.09700
20
-19.15100
30
102.00000
0
VERTEX
8
34_102000
10
29.39900
20
-17.65000
30
102.00000
0
VERTEX
8
34_102000
10
29.58700
20
-17.28100
30
102.00000
0
VERTEX
8
34_102000
10
29.72800
20
-17.07700
30
102.00000
0
VERTEX
8
34_102000
10
30.25600
20
-16.15000
30
102.00000
0
VERTEX
8
34_102000
10
30.59000
20
-15.59600
30
102.00000
0
VERTEX
8
34_102000
10
30.67600
20
-15.47700
30
102.00000
0
VERTEX
8
34_102000
10
30.74200
20
-15.29200
30
102.00000
0
VERTEX
8
34_102000
10
31.06400
20
-14.57300
30
102.00000
0
VERTEX
8
34_102000
10
31.04800
20
-14.30300
30
102.00000
0
VERTEX
8
34_102000
10
31.27800
20
-12.93000
30
102.00000
0
VERTEX
8
34_102000
10
31.29800
20
-12.84800
30
102.00000
0
VERTEX
8
34_102000
10
31.31000
20
-12.66400
30
102.00000
0
VERTEX
8
34_102000
10
31.33700
20
-12.47900
30
102.00000
0
VERTEX
8
34_102000
10
31.55800
20
-11.32700
30
102.00000
0
VERTEX
8
34_102000
10
31.56700
20
-10.93600
30
102.00000
0
VERTEX
8
34_102000
10
31.56300
20
-10.85600
30
102.00000
0
VERTEX
8
34_102000
10
31.54700
20
-10.76400
30
102.00000
0
VERTEX
8
34_102000
10
31.53900
20
-10.30800
30
102.00000
0
VERTEX
8
34_102000
10
31.41900
20
-9.76900
30
102.00000
0
VERTEX
8
34_102000
10
31.09500
20
-8.83900
30
102.00000
0
VERTEX
8
34_102000
10
30.94100
20
-8.46300
30
102.00000
0
VERTEX
8
34_102000
10
30.92600
20
-8.37300
30
102.00000
0
VERTEX
8
34_102000
10
30.87900
20
-8.25200
30
102.00000
0
VERTEX
8
34_102000
10
30.49800
20
-7.00300
30
102.00000
0
VERTEX
8
34_102000
10
30.40800
20
-6.75600
30
102.00000
0
VERTEX
8
34_102000
10
30.11800
20
-6.02200
30
102.00000
0
VERTEX
8
34_102000
10
30.06000
20
-5.74000
30
102.00000
0
VERTEX
8
34_102000
10
29.97700
20
-5.40900
30
102.00000
0
VERTEX
8
34_102000
10
29.73500
20
-3.68900
30
102.00000
0
VERTEX
8
34_102000
10
29.52700
20
-2.35400
30
102.00000
0
VERTEX
8
34_102000
10
29.44600
20
-1.69000
30
102.00000
0
VERTEX
8
34_102000
10
29.36700
20
0.49900
30
102.00000
0
VERTEX
8
34_102000
10
29.41800
20
2.04600
30
102.00000
0
VERTEX
8
34_102000
10
29.47900
20
2.78900
30
102.00000
0
VERTEX
8
34_102000
10
29.53600
20
3.25000
30
102.00000
0
VERTEX
8
34_102000
10
29.68200
20
4.18700
30
102.00000
0
VERTEX
8
34_102000
10
29.85300
20
5.37400
30
102.00000
0
VERTEX
8
34_102000
10
30.22600
20
7.74900
30
102.00000
0
VERTEX
8
34_102000
10
30.70000
20
10.22900
30
102.00000
0
VERTEX
8
34_102000
10
30.94300
20
12.00100
30
102.00000
0
VERTEX
8
34_102000
10
31.06500
20
13.06200
30
102.00000
0
VERTEX
8
34_102000
10
31.11500
20
16.30600
30
102.00000
0
VERTEX
8
34_102000
10
31.10300
20
16.81700
30
102.00000
0
VERTEX
8
34_102000
10
31.07600
20
17.37700
30
102.00000
0
VERTEX
8
34_102000
10
30.94000
20
18.63400
30
102.00000
0
VERTEX
8
34_102000
10
30.78400
20
20.21600
30
102.00000
0
VERTEX
8
34_102000
10
30.50900
20
21.68600
30
102.00000
0
VERTEX
8
34_102000
10
30.36800
20
22.50700
30
102.00000
0
VERTEX
8
34_102000
10
29.97600
20
24.02900
30
102.00000
0
VERTEX
8
34_102000
10
29.09400
20
27.11100
30
102.00000
0
VERTEX
8
34_102000
10
28.35100
20
29.54700
30
102.00000
0
VERTEX
8
34_102000
10
28.16100
20
30.19500
30
102.00000
0
VERTEX
8
34_102000
10
27.84600
20
31.20300
30
102.00000
0
VERTEX
8
34_102000
10
27.70200
20
31.91600
30
102.00000
0
VERTEX
8
34_102000
10
27.53100
20
32.58700
30
102.00000
0
VERTEX
8
34_102000
10
27.33700
20
33.65400
30
102.00000
0
VERTEX
8
34_102000
10
27.29900
20
34.26000
30
102.00000
0
VERTEX
8
34_102000
10
27.30400
20
35.81000
30
102.00000
0
VERTEX
8
34_102000
10
27.40800
20
36.55700
30
102.00000
0
VERTEX
8
34_102000
10
27.62200
20
38.64200
30
102.00000
0
VERTEX
8
34_102000
10
27.76700
20
39.62500
30
102.00000
0
VERTEX
8
34_102000
10
27.96100
20
41.94400
30
102.00000
0
VERTEX
8
34_102000
10
28.19900
20
42.69800
30
102.00000
0
VERTEX
8
34_102000
10
28.55700
20
43.41000
30
102.00000
0
VERTEX
8
34_102000
10
28.89300
20
44.30200
30
102.00000
0
VERTEX
8
34_102000
10
29.39300
20
46.32200
30
102.00000
0
VERTEX
8
34_102000
10
29.51700
20
46.96600
30
102.00000
0
VERTEX
8
34_102000
10
29.75200
20
48.62500
30
102.00000
0
VERTEX
8
34_102000
10
29.79000
20
48.92900
30
102.00000
0
VERTEX
8
34_102000
10
29.75200
20
49.58000
30
102.00000
0
VERTEX
8
34_102000
10
29.42400
20
51.05500
30
102.00000
0
VERTEX
8
34_102000
10
29.38700
20
51.84900
30
102.00000
0
VERTEX
8
34_102000
10
29.42700
20
52.31700
30
102.00000
0
VERTEX
8
34_102000
10
29.63400
20
52.96200
30
102.00000
0
VERTEX
8
34_102000
10
29.72800
20
53.49200
30
102.00000
0
VERTEX
8
34_102000
10
29.88900
20
54.11400
30
102.00000
0
VERTEX
8
34_102000
10
29.93500
20
54.40700
30
102.00000
0
VERTEX
8
34_102000
10
30.08900
20
54.75500
30
102.00000
0
VERTEX
8
34_102000
10
30.11800
20
54.90600
30
102.00000
0
VERTEX
8
34_102000
10
30.15000
20
54.94000
30
102.00000
0
VERTEX
8
34_102000
10
30.20100
20
55.05100
30
102.00000
0
VERTEX
8
34_102000
10
30.67200
20
56.11500
30
102.00000
0
VERTEX
8
34_102000
10
30.78000
20
56.40800
30
102.00000
0
VERTEX
8
34_102000
10
31.04300
20
57.01600
30
102.00000
0
VERTEX
8
34_102000
10
31.06600
20
57.09800
30
102.00000
0
VERTEX
8
34_102000
10
31.17600
20
57.39300
30
102.00000
0
VERTEX
8
34_102000
10
31.38200
20
57.91600
30
102.00000
0
VERTEX
8
34_102000
10
31.45100
20
58.04800
30
102.00000
0
VERTEX
8
34_102000
10
31.78200
20
58.45600
30
102.00000
0
VERTEX
8
34_102000
10
32.14600
20
58.86700
30
102.00000
0
VERTEX
8
34_102000
10
32.39100
20
59.26200
30
102.00000
0
VERTEX
8
34_102000
10
32.57300
20
59.51200
30
102.00000
0
VERTEX
8
34_102000
10
32.66600
20
59.69000
30
102.00000
0
VERTEX
8
34_102000
10
32.96800
20
60.51900
30
102.00000
0
VERTEX
8
34_102000
10
33.43900
20
61.48500
30
102.00000
0
VERTEX
8
34_102000
10
33.75700
20
61.94800
30
102.00000
0
VERTEX
8
34_102000
10
34.02600
20
62.39000
30
102.00000
0
VERTEX
8
34_102000
10
34.05400
20
62.45500
30
102.00000
0
VERTEX
8
34_102000
10
34.21200
20
62.91600
30
102.00000
0
VERTEX
8
34_102000
10
34.28500
20
63.30100
30
102.00000
0
VERTEX
8
34_102000
10
34.47900
20
64.63000
30
102.00000
0
VERTEX
8
34_102000
10
34.52600
20
65.12500
30
102.00000
0
VERTEX
8
34_102000
10
34.55500
20
65.69901
30
102.00000
0
VERTEX
8
34_102000
10
34.69600
20
66.80500
30
102.00000
0
VERTEX
8
34_102000
10
34.72000
20
67.10001
30
102.00000
0
VERTEX
8
34_102000
10
34.83400
20
67.49200
30
102.00000
0
VERTEX
8
34_102000
10
35.22000
20
68.41000
30
102.00000
0
VERTEX
8
34_102000
10
35.34600
20
68.66400
30
102.00000
0
VERTEX
8
34_102000
10
35.84300
20
69.78700
30
102.00000
0
VERTEX
8
34_102000
10
36.28400
20
71.21700
30
102.00000
0
VERTEX
8
34_102000
10
36.40000
20
71.64700
30
102.00000
0
VERTEX
8
34_102000
10
36.90100
20
73.12100
30
102.00000
0
VERTEX
8
34_102000
10
37.06200
20
73.82600
30
102.00000
0
VERTEX
8
34_102000
10
37.26100
20
74.52200
30
102.00000
0
VERTEX
8
34_102000
10
37.26400
20
74.66901
30
102.00000
0
VERTEX
8
34_102000
10
37.17700
20
75.62200
30
102.00000
0
VERTEX
8
34_102000
10
37.10600
20
75.98701
30
102.00000
0
VERTEX
8
34_102000
10
36.89700
20
76.77800
30
102.00000
0
VERTEX
8
34_102000
10
36.77200
20
77.19801
30
102.00000
0
VERTEX
8
34_102000
10
36.15800
20
79.57800
30
102.00000
0
VERTEX
8
34_102000
10
35.78700
20
80.83000
30
102.00000
0
VERTEX
8
34_102000
10
34.70200
20
84.34600
30
102.00000
0
VERTEX
8
34_102000
10
34.06400
20
85.99700
30
102.00000
0
VERTEX
8
34_102000
10
34.03600
20
86.13100
30
102.00000
0
VERTEX
8
34_102000
10
20.41900
20
88.40501
30
102.00000
0
VERTEX
8
34_102000
10
-56.17000
20
88.40501
30
102.00000
0
VERTEX
8
34_102000
10
-56.17000
20
80.83300
30
102.00000
0
SEQEND
8
34_102000
0
POLYLINE
8
34_102000
62
5
0
VERTEX
8
34_102000
10
-56.17000
20
90.58801
30
102.00000
0
VERTEX
8
34_102000
10
-56.17000
20
90.03700
30
102.00000
0
VERTEX
8
34_102000
10
10.64200
20
90.03700
30
102.00000
0
VERTEX
8
34_102000
10
2.42500
20
91.40800
30
102.00000
0
VERTEX
8
34_102000
10
-56.17000
20
91.40800
30
102.00000
0
VERTEX
8
34_102000
10
-56.17000
20
90.58801
30
102.00000
0
SEQEND
8
34_102000
0
POLYLINE
8
34_102000
62
5
0
VERTEX
8
34_102000
10
16.69900
20
89.02500
30
102.00000
0
VERTEX
8
34_102000
10
10.68600
20
90.02901
30
102.00000
0
VERTEX
8
34_102000
10
-56.17000
20
90.02901
30
102.00000
0
VERTEX
8
34_102000
10
-56.17000
20
88.40701
30
102.00000
0
VERTEX
8
34_102000
10
20.40500
20
88.40701
30
102.00000
0
VERTEX
8
34_102000
10
16.69900
20
89.02500
30
102.00000
0
SEQEND
8
34_102000
0
ENDSEC
0
EOF
