0
SECTION
2
HEADER
9
$ACADVER
1
AC1009
0
ENDSEC
0
SECTION
2
TABLES
0
TABLE
2
LAYER
70
1
0
LAYER
2
17_51000
70
0
62
7
6
CONTINUOUS
0
ENDTAB
0
ENDSEC
0
SECTION
2
BLOCKS
0
ENDSEC
0
SECTION
2
ENTITIES
0
POLYLINE
8
17_51000
62
5
0
VERTEX
8
17_51000
10
-36.05600
20
91.50700
30
51.00000
0
VERTEX
8
17_51000
10
1.82300
20
91.50700
30
51.00000
0
VERTEX
8
17_51000
10
1.62300
20
91.54201
30
51.00000
0
VERTEX
8
17_51000
10
-56.17000
20
91.54201
30
51.00000
0
VERTEX
8
17_51000
10
-56.17000
20
91.50700
30
51.00000
0
VERTEX
8
17_51000
10
-36.05600
20
91.50700
30
51.00000
0
SEQEND
8
17_51000
0
POLYLINE
8
17_51000
62
5
0
VERTEX
8
17_51000
10
-35.74200
20
91.46101
30
51.00000
0
VERTEX
8
17_51000
10
2.09700
20
91.46101
30
51.00000
0
VERTEX
8
17_51000
10
1.83800
20
91.50600
30
51.00000
0
VERTEX
8
17_51000
10
-56.17000
20
91.50600
30
51.00000
0
VERTEX
8
17_51000
10
-56.17000
20
91.46101
30
51.00000
0
VERTEX
8
17_51000
10
-35.74200
20
91.46101
30
51.00000
0
SEQEND
8
17_51000
0
POLYLINE
8
17_51000
62
5
0
VERTEX
8
17_51000
10
-35.12500
20
91.33100
30
51.00000
0
VERTEX
8
17_51000
10
2.88700
20
91.33100
30
51.00000
0
VERTEX
8
17_51000
10
2.10800
20
91.46001
30
51.00000
0
VERTEX
8
17_51000
10
-56.17000
20
91.46001
30
51.00000
0
VERTEX
8
17_51000
10
-56.17000
20
91.33100
30
51.00000
0
VERTEX
8
17_51000
10
-35.12500
20
91.33100
30
51.00000
0
SEQEND
8
17_51000
0
POLYLINE
8
17_51000
62
5
0
VERTEX
8
17_51000
10
-33.51300
20
90.66300
30
51.00000
0
VERTEX
8
17_51000
10
6.88900
20
90.66300
30
51.00000
0
VERTEX
8
17_51000
10
2.89800
20
91.32800
30
51.00000
0
VERTEX
8
17_51000
10
-56.17000
20
91.32800
30
51.00000
0
VERTEX
8
17_51000
10
-56.17000
20
90.66300
30
51.00000
0
VERTEX
8
17_51000
10
-33.51300
20
90.66300
30
51.00000
0
SEQEND
8
17_51000
0
POLYLINE
8
17_51000
62
5
0
VERTEX
8
17_51000
10
-56.17000
20
-14.63600
30
51.00000
0
VERTEX
8
17_51000
10
-56.17000
20
-92.11401
30
51.00000
0
VERTEX
8
17_51000
10
15.37300
20
-92.11401
30
51.00000
0
VERTEX
8
17_51000
10
15.37900
20
-91.96800
30
51.00000
0
VERTEX
8
17_51000
10
15.37300
20
-91.56901
30
51.00000
0
VERTEX
8
17_51000
10
15.39300
20
-91.33200
30
51.00000
0
VERTEX
8
17_51000
10
15.41100
20
-90.61501
30
51.00000
0
VERTEX
8
17_51000
10
15.40800
20
-90.37901
30
51.00000
0
VERTEX
8
17_51000
10
15.50000
20
-90.08100
30
51.00000
0
VERTEX
8
17_51000
10
15.83000
20
-89.65900
30
51.00000
0
VERTEX
8
17_51000
10
18.29900
20
-87.38600
30
51.00000
0
VERTEX
8
17_51000
10
20.05800
20
-85.68201
30
51.00000
0
VERTEX
8
17_51000
10
21.01000
20
-84.81500
30
51.00000
0
VERTEX
8
17_51000
10
21.44200
20
-84.39301
30
51.00000
0
VERTEX
8
17_51000
10
22.31900
20
-83.49700
30
51.00000
0
VERTEX
8
17_51000
10
23.64000
20
-82.03201
30
51.00000
0
VERTEX
8
17_51000
10
23.85200
20
-81.78201
30
51.00000
0
VERTEX
8
17_51000
10
24.14400
20
-81.12100
30
51.00000
0
VERTEX
8
17_51000
10
24.46000
20
-79.98000
30
51.00000
0
VERTEX
8
17_51000
10
24.77200
20
-79.11000
30
51.00000
0
VERTEX
8
17_51000
10
24.93300
20
-78.45100
30
51.00000
0
VERTEX
8
17_51000
10
25.02800
20
-77.74400
30
51.00000
0
VERTEX
8
17_51000
10
25.02900
20
-77.59500
30
51.00000
0
VERTEX
8
17_51000
10
25.11400
20
-76.48500
30
51.00000
0
VERTEX
8
17_51000
10
25.01200
20
-75.95800
30
51.00000
0
VERTEX
8
17_51000
10
24.98200
20
-75.15501
30
51.00000
0
VERTEX
8
17_51000
10
25.01400
20
-74.82201
30
51.00000
0
VERTEX
8
17_51000
10
25.02600
20
-74.49100
30
51.00000
0
VERTEX
8
17_51000
10
24.99000
20
-74.17001
30
51.00000
0
VERTEX
8
17_51000
10
24.90200
20
-73.79800
30
51.00000
0
VERTEX
8
17_51000
10
24.74900
20
-73.49800
30
51.00000
0
VERTEX
8
17_51000
10
24.72800
20
-73.41300
30
51.00000
0
VERTEX
8
17_51000
10
24.69600
20
-72.82000
30
51.00000
0
VERTEX
8
17_51000
10
24.70700
20
-72.69801
30
51.00000
0
VERTEX
8
17_51000
10
24.70700
20
-71.71201
30
51.00000
0
VERTEX
8
17_51000
10
24.68800
20
-71.62601
30
51.00000
0
VERTEX
8
17_51000
10
24.49100
20
-71.36301
30
51.00000
0
VERTEX
8
17_51000
10
24.58400
20
-70.98701
30
51.00000
0
VERTEX
8
17_51000
10
24.60500
20
-70.92800
30
51.00000
0
VERTEX
8
17_51000
10
24.61200
20
-70.32101
30
51.00000
0
VERTEX
8
17_51000
10
24.58400
20
-70.24100
30
51.00000
0
VERTEX
8
17_51000
10
24.57400
20
-70.03300
30
51.00000
0
VERTEX
8
17_51000
10
24.67100
20
-68.82201
30
51.00000
0
VERTEX
8
17_51000
10
24.53600
20
-68.54700
30
51.00000
0
VERTEX
8
17_51000
10
24.51000
20
-68.43201
30
51.00000
0
VERTEX
8
17_51000
10
24.40500
20
-68.15000
30
51.00000
0
VERTEX
8
17_51000
10
24.41200
20
-67.87400
30
51.00000
0
VERTEX
8
17_51000
10
24.45400
20
-67.66000
30
51.00000
0
VERTEX
8
17_51000
10
24.44600
20
-67.36800
30
51.00000
0
VERTEX
8
17_51000
10
24.54300
20
-66.93600
30
51.00000
0
VERTEX
8
17_51000
10
24.92700
20
-65.99700
30
51.00000
0
VERTEX
8
17_51000
10
24.92700
20
-65.41600
30
51.00000
0
VERTEX
8
17_51000
10
24.94300
20
-65.02200
30
51.00000
0
VERTEX
8
17_51000
10
24.84300
20
-64.69500
30
51.00000
0
VERTEX
8
17_51000
10
24.87200
20
-64.13700
30
51.00000
0
VERTEX
8
17_51000
10
24.88200
20
-64.06600
30
51.00000
0
VERTEX
8
17_51000
10
24.87800
20
-63.97700
30
51.00000
0
VERTEX
8
17_51000
10
24.93200
20
-62.85800
30
51.00000
0
VERTEX
8
17_51000
10
24.92100
20
-62.75400
30
51.00000
0
VERTEX
8
17_51000
10
25.09600
20
-61.72600
30
51.00000
0
VERTEX
8
17_51000
10
25.22200
20
-61.19600
30
51.00000
0
VERTEX
8
17_51000
10
25.22000
20
-60.96300
30
51.00000
0
VERTEX
8
17_51000
10
25.31600
20
-60.50000
30
51.00000
0
VERTEX
8
17_51000
10
25.25800
20
-59.79200
30
51.00000
0
VERTEX
8
17_51000
10
25.27500
20
-59.70700
30
51.00000
0
VERTEX
8
17_51000
10
25.52400
20
-59.01000
30
51.00000
0
VERTEX
8
17_51000
10
25.57600
20
-58.83100
30
51.00000
0
VERTEX
8
17_51000
10
25.56700
20
-58.66000
30
51.00000
0
VERTEX
8
17_51000
10
25.73900
20
-58.31700
30
51.00000
0
VERTEX
8
17_51000
10
25.75200
20
-58.23000
30
51.00000
0
VERTEX
8
17_51000
10
25.77200
20
-57.90000
30
51.00000
0
VERTEX
8
17_51000
10
25.56600
20
-57.60300
30
51.00000
0
VERTEX
8
17_51000
10
25.56500
20
-57.54300
30
51.00000
0
VERTEX
8
17_51000
10
25.34500
20
-56.91800
30
51.00000
0
VERTEX
8
17_51000
10
25.30900
20
-56.83900
30
51.00000
0
VERTEX
8
17_51000
10
24.95200
20
-55.18600
30
51.00000
0
VERTEX
8
17_51000
10
24.88500
20
-53.68400
30
51.00000
0
VERTEX
8
17_51000
10
25.01200
20
-52.98200
30
51.00000
0
VERTEX
8
17_51000
10
25.11800
20
-52.23700
30
51.00000
0
VERTEX
8
17_51000
10
25.19200
20
-50.50300
30
51.00000
0
VERTEX
8
17_51000
10
25.41600
20
-49.16800
30
51.00000
0
VERTEX
8
17_51000
10
25.44900
20
-48.77200
30
51.00000
0
VERTEX
8
17_51000
10
25.60700
20
-48.07800
30
51.00000
0
VERTEX
8
17_51000
10
25.71200
20
-47.56600
30
51.00000
0
VERTEX
8
17_51000
10
25.75900
20
-47.18100
30
51.00000
0
VERTEX
8
17_51000
10
25.79000
20
-46.81000
30
51.00000
0
VERTEX
8
17_51000
10
25.86800
20
-46.13000
30
51.00000
0
VERTEX
8
17_51000
10
26.20100
20
-44.25900
30
51.00000
0
VERTEX
8
17_51000
10
26.45500
20
-41.85300
30
51.00000
0
VERTEX
8
17_51000
10
26.47900
20
-41.46100
30
51.00000
0
VERTEX
8
17_51000
10
26.59400
20
-40.19900
30
51.00000
0
VERTEX
8
17_51000
10
26.65900
20
-39.56900
30
51.00000
0
VERTEX
8
17_51000
10
26.69100
20
-38.90900
30
51.00000
0
VERTEX
8
17_51000
10
26.67800
20
-38.34100
30
51.00000
0
VERTEX
8
17_51000
10
26.68400
20
-37.79200
30
51.00000
0
VERTEX
8
17_51000
10
26.62600
20
-37.12300
30
51.00000
0
VERTEX
8
17_51000
10
26.60300
20
-35.34400
30
51.00000
0
VERTEX
8
17_51000
10
26.52300
20
-33.54300
30
51.00000
0
VERTEX
8
17_51000
10
26.55300
20
-32.91100
30
51.00000
0
VERTEX
8
17_51000
10
26.47500
20
-32.01600
30
51.00000
0
VERTEX
8
17_51000
10
26.50100
20
-31.55600
30
51.00000
0
VERTEX
8
17_51000
10
26.24500
20
-29.94600
30
51.00000
0
VERTEX
8
17_51000
10
25.97000
20
-27.84400
30
51.00000
0
VERTEX
8
17_51000
10
25.89900
20
-27.39900
30
51.00000
0
VERTEX
8
17_51000
10
25.69700
20
-26.66200
30
51.00000
0
VERTEX
8
17_51000
10
25.65100
20
-26.58600
30
51.00000
0
VERTEX
8
17_51000
10
25.41600
20
-25.74200
30
51.00000
0
VERTEX
8
17_51000
10
25.08400
20
-24.63800
30
51.00000
0
VERTEX
8
17_51000
10
24.96200
20
-23.97800
30
51.00000
0
VERTEX
8
17_51000
10
24.95900
20
-23.72000
30
51.00000
0
VERTEX
8
17_51000
10
25.03500
20
-23.02900
30
51.00000
0
VERTEX
8
17_51000
10
25.40300
20
-22.52800
30
51.00000
0
VERTEX
8
17_51000
10
25.62000
20
-22.21500
30
51.00000
0
VERTEX
8
17_51000
10
27.82400
20
-20.29200
30
51.00000
0
VERTEX
8
17_51000
10
28.58400
20
-19.45700
30
51.00000
0
VERTEX
8
17_51000
10
28.90600
20
-19.02000
30
51.00000
0
VERTEX
8
17_51000
10
29.80100
20
-17.86600
30
51.00000
0
VERTEX
8
17_51000
10
30.05500
20
-17.39400
30
51.00000
0
VERTEX
8
17_51000
10
30.18800
20
-17.20800
30
51.00000
0
VERTEX
8
17_51000
10
30.46200
20
-16.44100
30
51.00000
0
VERTEX
8
17_51000
10
30.58200
20
-15.89500
30
51.00000
0
VERTEX
8
17_51000
10
30.99300
20
-14.27000
30
51.00000
0
VERTEX
8
17_51000
10
31.05000
20
-14.13400
30
51.00000
0
VERTEX
8
17_51000
10
31.09900
20
-13.95800
30
51.00000
0
VERTEX
8
17_51000
10
31.16700
20
-13.25000
30
51.00000
0
VERTEX
8
17_51000
10
31.15200
20
-12.89600
30
51.00000
0
VERTEX
8
17_51000
10
31.16900
20
-12.71900
30
51.00000
0
VERTEX
8
17_51000
10
31.16000
20
-12.01300
30
51.00000
0
VERTEX
8
17_51000
10
31.12700
20
-11.79400
30
51.00000
0
VERTEX
8
17_51000
10
31.09000
20
-11.33400
30
51.00000
0
VERTEX
8
17_51000
10
30.98900
20
-10.60400
30
51.00000
0
VERTEX
8
17_51000
10
30.93800
20
-10.34200
30
51.00000
0
VERTEX
8
17_51000
10
30.91700
20
-10.03500
30
51.00000
0
VERTEX
8
17_51000
10
30.92300
20
-9.63100
30
51.00000
0
VERTEX
8
17_51000
10
30.46000
20
-7.39700
30
51.00000
0
VERTEX
8
17_51000
10
30.27900
20
-6.42400
30
51.00000
0
VERTEX
8
17_51000
10
30.02600
20
-5.26400
30
51.00000
0
VERTEX
8
17_51000
10
29.92700
20
-4.69000
30
51.00000
0
VERTEX
8
17_51000
10
29.67500
20
-3.45500
30
51.00000
0
VERTEX
8
17_51000
10
29.55600
20
-1.99800
30
51.00000
0
VERTEX
8
17_51000
10
29.52100
20
-0.39200
30
51.00000
0
VERTEX
8
17_51000
10
29.66200
20
1.73600
30
51.00000
0
VERTEX
8
17_51000
10
30.06300
20
3.78300
30
51.00000
0
VERTEX
8
17_51000
10
30.38900
20
5.01100
30
51.00000
0
VERTEX
8
17_51000
10
31.68800
20
9.04800
30
51.00000
0
VERTEX
8
17_51000
10
31.92900
20
9.94600
30
51.00000
0
VERTEX
8
17_51000
10
32.00300
20
10.34800
30
51.00000
0
VERTEX
8
17_51000
10
32.08900
20
10.64000
30
51.00000
0
VERTEX
8
17_51000
10
32.32600
20
11.98300
30
51.00000
0
VERTEX
8
17_51000
10
32.44100
20
12.55700
30
51.00000
0
VERTEX
8
17_51000
10
32.61000
20
13.64700
30
51.00000
0
VERTEX
8
17_51000
10
32.83700
20
15.43900
30
51.00000
0
VERTEX
8
17_51000
10
32.89200
20
16.09900
30
51.00000
0
VERTEX
8
17_51000
10
32.93500
20
17.27100
30
51.00000
0
VERTEX
8
17_51000
10
33.00300
20
17.90400
30
51.00000
0
VERTEX
8
17_51000
10
33.03600
20
18.38700
30
51.00000
0
VERTEX
8
17_51000
10
33.02500
20
18.83200
30
51.00000
0
VERTEX
8
17_51000
10
33.03300
20
20.23400
30
51.00000
0
VERTEX
8
17_51000
10
32.91400
20
21.08300
30
51.00000
0
VERTEX
8
17_51000
10
32.80900
20
22.48300
30
51.00000
0
VERTEX
8
17_51000
10
32.78700
20
22.96500
30
51.00000
0
VERTEX
8
17_51000
10
32.65600
20
23.62800
30
51.00000
0
VERTEX
8
17_51000
10
32.18500
20
25.32800
30
51.00000
0
VERTEX
8
17_51000
10
31.99600
20
26.06900
30
51.00000
0
VERTEX
8
17_51000
10
30.37300
20
31.05100
30
51.00000
0
VERTEX
8
17_51000
10
30.17600
20
31.73600
30
51.00000
0
VERTEX
8
17_51000
10
29.66700
20
33.24600
30
51.00000
0
VERTEX
8
17_51000
10
29.49600
20
33.80300
30
51.00000
0
VERTEX
8
17_51000
10
29.23200
20
34.81800
30
51.00000
0
VERTEX
8
17_51000
10
29.02100
20
35.97600
30
51.00000
0
VERTEX
8
17_51000
10
28.94700
20
36.52200
30
51.00000
0
VERTEX
8
17_51000
10
28.69900
20
38.81000
30
51.00000
0
VERTEX
8
17_51000
10
28.71400
20
39.23800
30
51.00000
0
VERTEX
8
17_51000
10
28.78500
20
40.52400
30
51.00000
0
VERTEX
8
17_51000
10
28.80100
20
40.67600
30
51.00000
0
VERTEX
8
17_51000
10
28.80800
20
40.88800
30
51.00000
0
VERTEX
8
17_51000
10
29.06400
20
42.40600
30
51.00000
0
VERTEX
8
17_51000
10
29.12200
20
42.84100
30
51.00000
0
VERTEX
8
17_51000
10
29.15400
20
43.21400
30
51.00000
0
VERTEX
8
17_51000
10
29.23700
20
43.84400
30
51.00000
0
VERTEX
8
17_51000
10
29.25400
20
44.72700
30
51.00000
0
VERTEX
8
17_51000
10
29.17400
20
45.66800
30
51.00000
0
VERTEX
8
17_51000
10
29.12800
20
45.89300
30
51.00000
0
VERTEX
8
17_51000
10
29.05900
20
46.60800
30
51.00000
0
VERTEX
8
17_51000
10
28.55100
20
48.64400
30
51.00000
0
VERTEX
8
17_51000
10
28.05200
20
49.74300
30
51.00000
0
VERTEX
8
17_51000
10
28.00600
20
50.28000
30
51.00000
0
VERTEX
8
17_51000
10
28.04200
20
50.55000
30
51.00000
0
VERTEX
8
17_51000
10
28.16300
20
51.11200
30
51.00000
0
VERTEX
8
17_51000
10
28.21900
20
51.30600
30
51.00000
0
VERTEX
8
17_51000
10
28.25300
20
51.36000
30
51.00000
0
VERTEX
8
17_51000
10
28.79400
20
52.49500
30
51.00000
0
VERTEX
8
17_51000
10
28.84500
20
52.56200
30
51.00000
0
VERTEX
8
17_51000
10
29.41200
20
53.21100
30
51.00000
0
VERTEX
8
17_51000
10
30.14500
20
54.19500
30
51.00000
0
VERTEX
8
17_51000
10
30.68200
20
55.26900
30
51.00000
0
VERTEX
8
17_51000
10
31.07000
20
56.19400
30
51.00000
0
VERTEX
8
17_51000
10
31.11800
20
56.24300
30
51.00000
0
VERTEX
8
17_51000
10
31.25200
20
56.43400
30
51.00000
0
VERTEX
8
17_51000
10
31.49500
20
56.84100
30
51.00000
0
VERTEX
8
17_51000
10
31.55900
20
56.92700
30
51.00000
0
VERTEX
8
17_51000
10
32.11100
20
57.51300
30
51.00000
0
VERTEX
8
17_51000
10
32.35100
20
57.78300
30
51.00000
0
VERTEX
8
17_51000
10
32.53500
20
58.09500
30
51.00000
0
VERTEX
8
17_51000
10
32.96300
20
58.72300
30
51.00000
0
VERTEX
8
17_51000
10
33.17500
20
59.13400
30
51.00000
0
VERTEX
8
17_51000
10
33.21900
20
59.26400
30
51.00000
0
VERTEX
8
17_51000
10
33.56200
20
60.10100
30
51.00000
0
VERTEX
8
17_51000
10
34.05100
20
61.49200
30
51.00000
0
VERTEX
8
17_51000
10
34.09600
20
61.66800
30
51.00000
0
VERTEX
8
17_51000
10
34.66300
20
62.71200
30
51.00000
0
VERTEX
8
17_51000
10
35.03000
20
63.54500
30
51.00000
0
VERTEX
8
17_51000
10
35.22300
20
63.94200
30
51.00000
0
VERTEX
8
17_51000
10
35.95300
20
65.16700
30
51.00000
0
VERTEX
8
17_51000
10
36.54500
20
66.25201
30
51.00000
0
VERTEX
8
17_51000
10
37.32400
20
67.81100
30
51.00000
0
VERTEX
8
17_51000
10
37.61900
20
68.55100
30
51.00000
0
VERTEX
8
17_51000
10
37.84200
20
69.16801
30
51.00000
0
VERTEX
8
17_51000
10
38.02900
20
69.80801
30
51.00000
0
VERTEX
8
17_51000
10
38.26700
20
70.55500
30
51.00000
0
VERTEX
8
17_51000
10
38.32600
20
70.79700
30
51.00000
0
VERTEX
8
17_51000
10
38.43900
20
71.15501
30
51.00000
0
VERTEX
8
17_51000
10
38.45700
20
71.24200
30
51.00000
0
VERTEX
8
17_51000
10
38.47700
20
71.43600
30
51.00000
0
VERTEX
8
17_51000
10
38.67600
20
72.89400
30
51.00000
0
VERTEX
8
17_51000
10
38.64700
20
73.25600
30
51.00000
0
VERTEX
8
17_51000
10
38.60400
20
74.24200
30
51.00000
0
VERTEX
8
17_51000
10
38.39700
20
75.70500
30
51.00000
0
VERTEX
8
17_51000
10
38.25600
20
76.58601
30
51.00000
0
VERTEX
8
17_51000
10
38.19400
20
77.18401
30
51.00000
0
VERTEX
8
17_51000
10
38.15800
20
77.44501
30
51.00000
0
VERTEX
8
17_51000
10
38.09100
20
77.80701
30
51.00000
0
VERTEX
8
17_51000
10
37.93100
20
78.58200
30
51.00000
0
VERTEX
8
17_51000
10
37.11500
20
81.78600
30
51.00000
0
VERTEX
8
17_51000
10
37.00800
20
82.09500
30
51.00000
0
VERTEX
8
17_51000
10
36.14900
20
84.78300
30
51.00000
0
VERTEX
8
17_51000
10
35.77800
20
85.84100
30
51.00000
0
VERTEX
8
17_51000
10
11.63800
20
89.87100
30
51.00000
0
VERTEX
8
17_51000
10
-56.17000
20
89.87100
30
51.00000
0
VERTEX
8
17_51000
10
-56.17000
20
-14.63600
30
51.00000
0
SEQEND
8
17_51000
0
POLYLINE
8
17_51000
62
5
0
VERTEX
8
17_51000
10
10.01600
20
90.13901
30
51.00000
0
VERTEX
8
17_51000
10
6.90900
20
90.65900
30
51.00000
0
VERTEX
8
17_51000
10
-56.17000
20
90.65900
30
51.00000
0
VERTEX
8
17_51000
10
-56.17000
20
89.87100
30
51.00000
0
VERTEX
8
17_51000
10
11.63300
20
89.87100
30
51.00000
0
VERTEX
8
17_51000
10
10.01600
20
90.13901
30
51.00000
0
SEQEND
8
17_51000
0
ENDSEC
0
EOF
