0
SECTION
2
HEADER
9
$ACADVER
1
AC1009
0
ENDSEC
0
SECTION
2
TABLES
0
TABLE
2
LAYER
70
1
0
LAYER
2
29_87000
70
0
62
7
6
CONTINUOUS
0
ENDTAB
0
ENDSEC
0
SECTION
2
BLOCKS
0
ENDSEC
0
SECTION
2
ENTITIES
0
POLYLINE
8
29_87000
62
5
0
VERTEX
8
29_87000
10
-56.17000
20
91.70400
30
87.00000
0
VERTEX
8
29_87000
10
-56.17000
20
91.69701
30
87.00000
0
VERTEX
8
29_87000
10
0.68400
20
91.69701
30
87.00000
0
VERTEX
8
29_87000
10
0.33600
20
91.75700
30
87.00000
0
VERTEX
8
29_87000
10
-56.17000
20
91.75700
30
87.00000
0
VERTEX
8
29_87000
10
-56.17000
20
91.70400
30
87.00000
0
SEQEND
8
29_87000
0
POLYLINE
8
29_87000
62
5
0
VERTEX
8
29_87000
10
-51.53300
20
91.66601
30
87.00000
0
VERTEX
8
29_87000
10
0.88000
20
91.66601
30
87.00000
0
VERTEX
8
29_87000
10
0.70900
20
91.69401
30
87.00000
0
VERTEX
8
29_87000
10
-56.17000
20
91.69401
30
87.00000
0
VERTEX
8
29_87000
10
-56.17000
20
91.66601
30
87.00000
0
VERTEX
8
29_87000
10
-51.53300
20
91.66601
30
87.00000
0
SEQEND
8
29_87000
0
POLYLINE
8
29_87000
62
5
0
VERTEX
8
29_87000
10
-56.17000
20
91.66100
30
87.00000
0
VERTEX
8
29_87000
10
-56.17000
20
91.61800
30
87.00000
0
VERTEX
8
29_87000
10
1.16400
20
91.61800
30
87.00000
0
VERTEX
8
29_87000
10
0.88500
20
91.66601
30
87.00000
0
VERTEX
8
29_87000
10
-56.17000
20
91.66601
30
87.00000
0
VERTEX
8
29_87000
10
-56.17000
20
91.66100
30
87.00000
0
SEQEND
8
29_87000
0
POLYLINE
8
29_87000
62
5
0
VERTEX
8
29_87000
10
-56.17000
20
91.47301
30
87.00000
0
VERTEX
8
29_87000
10
-56.17000
20
91.38901
30
87.00000
0
VERTEX
8
29_87000
10
2.54300
20
91.38901
30
87.00000
0
VERTEX
8
29_87000
10
1.18400
20
91.61401
30
87.00000
0
VERTEX
8
29_87000
10
-56.17000
20
91.61401
30
87.00000
0
VERTEX
8
29_87000
10
-56.17000
20
91.47301
30
87.00000
0
SEQEND
8
29_87000
0
POLYLINE
8
29_87000
62
5
0
VERTEX
8
29_87000
10
-56.17000
20
70.95000
30
87.00000
0
VERTEX
8
29_87000
10
-56.17000
20
-92.11401
30
87.00000
0
VERTEX
8
29_87000
10
31.23500
20
-92.11401
30
87.00000
0
VERTEX
8
29_87000
10
31.12000
20
-91.15601
30
87.00000
0
VERTEX
8
29_87000
10
31.08600
20
-90.80901
30
87.00000
0
VERTEX
8
29_87000
10
31.10500
20
-89.53900
30
87.00000
0
VERTEX
8
29_87000
10
31.10100
20
-88.98200
30
87.00000
0
VERTEX
8
29_87000
10
31.16700
20
-88.16400
30
87.00000
0
VERTEX
8
29_87000
10
31.56300
20
-87.40100
30
87.00000
0
VERTEX
8
29_87000
10
31.59800
20
-87.31600
30
87.00000
0
VERTEX
8
29_87000
10
31.75500
20
-86.63700
30
87.00000
0
VERTEX
8
29_87000
10
31.79400
20
-86.42200
30
87.00000
0
VERTEX
8
29_87000
10
32.05700
20
-85.40800
30
87.00000
0
VERTEX
8
29_87000
10
32.11200
20
-85.26601
30
87.00000
0
VERTEX
8
29_87000
10
32.14700
20
-85.05100
30
87.00000
0
VERTEX
8
29_87000
10
32.45700
20
-84.43600
30
87.00000
0
VERTEX
8
29_87000
10
32.50500
20
-84.31300
30
87.00000
0
VERTEX
8
29_87000
10
32.50200
20
-83.76300
30
87.00000
0
VERTEX
8
29_87000
10
32.47000
20
-83.63600
30
87.00000
0
VERTEX
8
29_87000
10
32.59800
20
-83.26900
30
87.00000
0
VERTEX
8
29_87000
10
32.69900
20
-82.88200
30
87.00000
0
VERTEX
8
29_87000
10
32.76700
20
-82.56200
30
87.00000
0
VERTEX
8
29_87000
10
32.78800
20
-82.29401
30
87.00000
0
VERTEX
8
29_87000
10
32.91800
20
-81.81400
30
87.00000
0
VERTEX
8
29_87000
10
32.91600
20
-81.78201
30
87.00000
0
VERTEX
8
29_87000
10
33.30800
20
-80.93201
30
87.00000
0
VERTEX
8
29_87000
10
33.50200
20
-79.93401
30
87.00000
0
VERTEX
8
29_87000
10
33.53900
20
-79.56200
30
87.00000
0
VERTEX
8
29_87000
10
33.53600
20
-79.52700
30
87.00000
0
VERTEX
8
29_87000
10
33.90700
20
-78.58501
30
87.00000
0
VERTEX
8
29_87000
10
33.92500
20
-78.30000
30
87.00000
0
VERTEX
8
29_87000
10
33.96800
20
-78.23801
30
87.00000
0
VERTEX
8
29_87000
10
33.95400
20
-77.95400
30
87.00000
0
VERTEX
8
29_87000
10
34.06000
20
-77.69400
30
87.00000
0
VERTEX
8
29_87000
10
34.13900
20
-77.20500
30
87.00000
0
VERTEX
8
29_87000
10
34.32000
20
-76.64001
30
87.00000
0
VERTEX
8
29_87000
10
34.58900
20
-75.30901
30
87.00000
0
VERTEX
8
29_87000
10
34.64700
20
-74.98100
30
87.00000
0
VERTEX
8
29_87000
10
34.84300
20
-74.39700
30
87.00000
0
VERTEX
8
29_87000
10
34.95500
20
-74.13300
30
87.00000
0
VERTEX
8
29_87000
10
35.08300
20
-73.63600
30
87.00000
0
VERTEX
8
29_87000
10
35.29900
20
-72.89600
30
87.00000
0
VERTEX
8
29_87000
10
35.56200
20
-71.90200
30
87.00000
0
VERTEX
8
29_87000
10
35.87700
20
-70.89900
30
87.00000
0
VERTEX
8
29_87000
10
35.98400
20
-70.42800
30
87.00000
0
VERTEX
8
29_87000
10
36.08800
20
-69.87100
30
87.00000
0
VERTEX
8
29_87000
10
36.35100
20
-68.71500
30
87.00000
0
VERTEX
8
29_87000
10
36.46400
20
-68.14700
30
87.00000
0
VERTEX
8
29_87000
10
36.50300
20
-67.87701
30
87.00000
0
VERTEX
8
29_87000
10
36.50000
20
-67.62500
30
87.00000
0
VERTEX
8
29_87000
10
36.50800
20
-67.26000
30
87.00000
0
VERTEX
8
29_87000
10
36.57500
20
-66.74900
30
87.00000
0
VERTEX
8
29_87000
10
36.44900
20
-65.89700
30
87.00000
0
VERTEX
8
29_87000
10
36.48800
20
-65.09100
30
87.00000
0
VERTEX
8
29_87000
10
36.50700
20
-64.96001
30
87.00000
0
VERTEX
8
29_87000
10
36.51700
20
-64.29100
30
87.00000
0
VERTEX
8
29_87000
10
36.69100
20
-63.48000
30
87.00000
0
VERTEX
8
29_87000
10
36.70300
20
-63.10800
30
87.00000
0
VERTEX
8
29_87000
10
36.91400
20
-61.85000
30
87.00000
0
VERTEX
8
29_87000
10
36.90700
20
-61.77700
30
87.00000
0
VERTEX
8
29_87000
10
36.77700
20
-61.64500
30
87.00000
0
VERTEX
8
29_87000
10
36.62700
20
-61.35900
30
87.00000
0
VERTEX
8
29_87000
10
36.49500
20
-60.93100
30
87.00000
0
VERTEX
8
29_87000
10
36.50600
20
-60.80600
30
87.00000
0
VERTEX
8
29_87000
10
36.38800
20
-60.14800
30
87.00000
0
VERTEX
8
29_87000
10
36.36100
20
-59.64200
30
87.00000
0
VERTEX
8
29_87000
10
36.16000
20
-58.53500
30
87.00000
0
VERTEX
8
29_87000
10
36.12400
20
-58.17700
30
87.00000
0
VERTEX
8
29_87000
10
35.83000
20
-56.67300
30
87.00000
0
VERTEX
8
29_87000
10
35.72500
20
-56.26900
30
87.00000
0
VERTEX
8
29_87000
10
35.55800
20
-55.53000
30
87.00000
0
VERTEX
8
29_87000
10
35.42600
20
-54.71600
30
87.00000
0
VERTEX
8
29_87000
10
35.42300
20
-53.84400
30
87.00000
0
VERTEX
8
29_87000
10
35.43700
20
-53.31800
30
87.00000
0
VERTEX
8
29_87000
10
35.51700
20
-52.88300
30
87.00000
0
VERTEX
8
29_87000
10
35.48000
20
-52.68100
30
87.00000
0
VERTEX
8
29_87000
10
35.47200
20
-52.50200
30
87.00000
0
VERTEX
8
29_87000
10
35.52400
20
-52.26800
30
87.00000
0
VERTEX
8
29_87000
10
35.45200
20
-51.56100
30
87.00000
0
VERTEX
8
29_87000
10
35.62700
20
-50.15000
30
87.00000
0
VERTEX
8
29_87000
10
35.82600
20
-49.42700
30
87.00000
0
VERTEX
8
29_87000
10
35.80600
20
-48.60800
30
87.00000
0
VERTEX
8
29_87000
10
35.94700
20
-48.34900
30
87.00000
0
VERTEX
8
29_87000
10
36.14200
20
-47.90800
30
87.00000
0
VERTEX
8
29_87000
10
36.30900
20
-47.47000
30
87.00000
0
VERTEX
8
29_87000
10
36.47300
20
-46.90300
30
87.00000
0
VERTEX
8
29_87000
10
36.74300
20
-46.18800
30
87.00000
0
VERTEX
8
29_87000
10
36.89300
20
-45.13100
30
87.00000
0
VERTEX
8
29_87000
10
36.93400
20
-45.01100
30
87.00000
0
VERTEX
8
29_87000
10
37.07900
20
-44.36000
30
87.00000
0
VERTEX
8
29_87000
10
37.34800
20
-43.69700
30
87.00000
0
VERTEX
8
29_87000
10
37.36600
20
-43.60200
30
87.00000
0
VERTEX
8
29_87000
10
37.45800
20
-42.59400
30
87.00000
0
VERTEX
8
29_87000
10
37.60800
20
-41.86200
30
87.00000
0
VERTEX
8
29_87000
10
37.63200
20
-41.62800
30
87.00000
0
VERTEX
8
29_87000
10
37.74900
20
-40.90400
30
87.00000
0
VERTEX
8
29_87000
10
37.81200
20
-40.26800
30
87.00000
0
VERTEX
8
29_87000
10
37.84800
20
-40.10600
30
87.00000
0
VERTEX
8
29_87000
10
37.92800
20
-39.43600
30
87.00000
0
VERTEX
8
29_87000
10
38.04800
20
-38.78000
30
87.00000
0
VERTEX
8
29_87000
10
38.22800
20
-38.07600
30
87.00000
0
VERTEX
8
29_87000
10
38.22900
20
-37.98500
30
87.00000
0
VERTEX
8
29_87000
10
38.35500
20
-36.96500
30
87.00000
0
VERTEX
8
29_87000
10
38.60800
20
-35.87000
30
87.00000
0
VERTEX
8
29_87000
10
38.73600
20
-34.92900
30
87.00000
0
VERTEX
8
29_87000
10
38.73100
20
-34.05200
30
87.00000
0
VERTEX
8
29_87000
10
38.70200
20
-32.64600
30
87.00000
0
VERTEX
8
29_87000
10
38.64500
20
-31.70900
30
87.00000
0
VERTEX
8
29_87000
10
38.56700
20
-31.05300
30
87.00000
0
VERTEX
8
29_87000
10
38.31200
20
-29.66000
30
87.00000
0
VERTEX
8
29_87000
10
37.50000
20
-27.19300
30
87.00000
0
VERTEX
8
29_87000
10
36.91200
20
-25.68300
30
87.00000
0
VERTEX
8
29_87000
10
36.64400
20
-24.87200
30
87.00000
0
VERTEX
8
29_87000
10
36.09000
20
-23.59700
30
87.00000
0
VERTEX
8
29_87000
10
36.02100
20
-23.40800
30
87.00000
0
VERTEX
8
29_87000
10
35.79000
20
-22.92000
30
87.00000
0
VERTEX
8
29_87000
10
35.78700
20
-22.62900
30
87.00000
0
VERTEX
8
29_87000
10
35.79900
20
-22.57100
30
87.00000
0
VERTEX
8
29_87000
10
35.89700
20
-22.30100
30
87.00000
0
VERTEX
8
29_87000
10
36.25800
20
-21.65700
30
87.00000
0
VERTEX
8
29_87000
10
36.59400
20
-20.98300
30
87.00000
0
VERTEX
8
29_87000
10
36.67900
20
-20.78900
30
87.00000
0
VERTEX
8
29_87000
10
36.94700
20
-20.36600
30
87.00000
0
VERTEX
8
29_87000
10
37.85900
20
-18.20700
30
87.00000
0
VERTEX
8
29_87000
10
38.20400
20
-17.46100
30
87.00000
0
VERTEX
8
29_87000
10
38.45900
20
-17.01400
30
87.00000
0
VERTEX
8
29_87000
10
38.82600
20
-16.28500
30
87.00000
0
VERTEX
8
29_87000
10
39.08500
20
-15.28400
30
87.00000
0
VERTEX
8
29_87000
10
39.12000
20
-15.12300
30
87.00000
0
VERTEX
8
29_87000
10
39.21600
20
-14.28900
30
87.00000
0
VERTEX
8
29_87000
10
39.35100
20
-13.70100
30
87.00000
0
VERTEX
8
29_87000
10
39.40500
20
-12.80300
30
87.00000
0
VERTEX
8
29_87000
10
39.47600
20
-12.16800
30
87.00000
0
VERTEX
8
29_87000
10
39.51200
20
-11.75700
30
87.00000
0
VERTEX
8
29_87000
10
39.44800
20
-10.92000
30
87.00000
0
VERTEX
8
29_87000
10
39.25800
20
-9.04700
30
87.00000
0
VERTEX
8
29_87000
10
39.24600
20
-8.86500
30
87.00000
0
VERTEX
8
29_87000
10
39.19000
20
-8.70500
30
87.00000
0
VERTEX
8
29_87000
10
38.93000
20
-7.48900
30
87.00000
0
VERTEX
8
29_87000
10
38.87900
20
-7.20800
30
87.00000
0
VERTEX
8
29_87000
10
38.74900
20
-5.82600
30
87.00000
0
VERTEX
8
29_87000
10
38.72300
20
-5.74500
30
87.00000
0
VERTEX
8
29_87000
10
38.66400
20
-5.47700
30
87.00000
0
VERTEX
8
29_87000
10
38.33000
20
-4.11400
30
87.00000
0
VERTEX
8
29_87000
10
38.16700
20
-2.98600
30
87.00000
0
VERTEX
8
29_87000
10
37.87700
20
-1.42200
30
87.00000
0
VERTEX
8
29_87000
10
37.83400
20
-1.27200
30
87.00000
0
VERTEX
8
29_87000
10
37.61100
20
-0.70300
30
87.00000
0
VERTEX
8
29_87000
10
37.31400
20
0.14700
30
87.00000
0
VERTEX
8
29_87000
10
37.17900
20
0.58800
30
87.00000
0
VERTEX
8
29_87000
10
37.01700
20
1.63800
30
87.00000
0
VERTEX
8
29_87000
10
37.02600
20
2.73200
30
87.00000
0
VERTEX
8
29_87000
10
37.11900
20
3.59000
30
87.00000
0
VERTEX
8
29_87000
10
37.33800
20
4.79700
30
87.00000
0
VERTEX
8
29_87000
10
37.65500
20
5.33900
30
87.00000
0
VERTEX
8
29_87000
10
37.72300
20
5.48000
30
87.00000
0
VERTEX
8
29_87000
10
37.75500
20
5.67000
30
87.00000
0
VERTEX
8
29_87000
10
37.93100
20
5.91400
30
87.00000
0
VERTEX
8
29_87000
10
38.06100
20
6.16600
30
87.00000
0
VERTEX
8
29_87000
10
38.30300
20
6.49200
30
87.00000
0
VERTEX
8
29_87000
10
38.49400
20
6.78500
30
87.00000
0
VERTEX
8
29_87000
10
39.00700
20
7.35100
30
87.00000
0
VERTEX
8
29_87000
10
39.07300
20
7.45900
30
87.00000
0
VERTEX
8
29_87000
10
39.65200
20
8.00600
30
87.00000
0
VERTEX
8
29_87000
10
39.94800
20
8.25400
30
87.00000
0
VERTEX
8
29_87000
10
40.42000
20
8.59400
30
87.00000
0
VERTEX
8
29_87000
10
41.94900
20
9.84100
30
87.00000
0
VERTEX
8
29_87000
10
42.84000
20
10.85100
30
87.00000
0
VERTEX
8
29_87000
10
43.29400
20
11.44800
30
87.00000
0
VERTEX
8
29_87000
10
43.30500
20
11.48300
30
87.00000
0
VERTEX
8
29_87000
10
43.37400
20
11.57400
30
87.00000
0
VERTEX
8
29_87000
10
43.41800
20
11.65500
30
87.00000
0
VERTEX
8
29_87000
10
43.87400
20
12.70600
30
87.00000
0
VERTEX
8
29_87000
10
44.13400
20
13.68400
30
87.00000
0
VERTEX
8
29_87000
10
44.25800
20
14.22300
30
87.00000
0
VERTEX
8
29_87000
10
44.28000
20
14.85300
30
87.00000
0
VERTEX
8
29_87000
10
44.15300
20
15.86800
30
87.00000
0
VERTEX
8
29_87000
10
44.07900
20
16.72800
30
87.00000
0
VERTEX
8
29_87000
10
43.87200
20
17.38000
30
87.00000
0
VERTEX
8
29_87000
10
43.57500
20
18.20000
30
87.00000
0
VERTEX
8
29_87000
10
43.05500
20
19.40000
30
87.00000
0
VERTEX
8
29_87000
10
41.85500
20
21.67100
30
87.00000
0
VERTEX
8
29_87000
10
40.62500
20
23.56800
30
87.00000
0
VERTEX
8
29_87000
10
40.04300
20
24.48300
30
87.00000
0
VERTEX
8
29_87000
10
39.29500
20
25.49400
30
87.00000
0
VERTEX
8
29_87000
10
38.83700
20
26.33000
30
87.00000
0
VERTEX
8
29_87000
10
38.27300
20
27.65200
30
87.00000
0
VERTEX
8
29_87000
10
37.92800
20
28.34500
30
87.00000
0
VERTEX
8
29_87000
10
37.22200
20
29.68800
30
87.00000
0
VERTEX
8
29_87000
10
36.51200
20
30.85000
30
87.00000
0
VERTEX
8
29_87000
10
35.85900
20
32.23200
30
87.00000
0
VERTEX
8
29_87000
10
35.71800
20
32.48200
30
87.00000
0
VERTEX
8
29_87000
10
35.22300
20
33.48500
30
87.00000
0
VERTEX
8
29_87000
10
33.91000
20
36.40500
30
87.00000
0
VERTEX
8
29_87000
10
33.51600
20
37.25400
30
87.00000
0
VERTEX
8
29_87000
10
32.56900
20
39.39300
30
87.00000
0
VERTEX
8
29_87000
10
31.88100
20
40.68300
30
87.00000
0
VERTEX
8
29_87000
10
31.06700
20
42.31600
30
87.00000
0
VERTEX
8
29_87000
10
30.91200
20
42.71600
30
87.00000
0
VERTEX
8
29_87000
10
30.68700
20
43.26300
30
87.00000
0
VERTEX
8
29_87000
10
30.31800
20
44.36200
30
87.00000
0
VERTEX
8
29_87000
10
30.20300
20
44.98800
30
87.00000
0
VERTEX
8
29_87000
10
30.07300
20
45.61900
30
87.00000
0
VERTEX
8
29_87000
10
29.91700
20
48.14400
30
87.00000
0
VERTEX
8
29_87000
10
29.78200
20
49.39200
30
87.00000
0
VERTEX
8
29_87000
10
29.67800
20
50.60300
30
87.00000
0
VERTEX
8
29_87000
10
29.57400
20
52.00300
30
87.00000
0
VERTEX
8
29_87000
10
29.51400
20
52.38000
30
87.00000
0
VERTEX
8
29_87000
10
29.32400
20
53.94500
30
87.00000
0
VERTEX
8
29_87000
10
29.31500
20
54.35100
30
87.00000
0
VERTEX
8
29_87000
10
29.36700
20
54.64700
30
87.00000
0
VERTEX
8
29_87000
10
29.44700
20
54.94500
30
87.00000
0
VERTEX
8
29_87000
10
29.67600
20
55.40900
30
87.00000
0
VERTEX
8
29_87000
10
30.05100
20
55.95900
30
87.00000
0
VERTEX
8
29_87000
10
30.48400
20
56.54700
30
87.00000
0
VERTEX
8
29_87000
10
31.98900
20
59.18200
30
87.00000
0
VERTEX
8
29_87000
10
32.93400
20
60.74800
30
87.00000
0
VERTEX
8
29_87000
10
33.12600
20
61.00900
30
87.00000
0
VERTEX
8
29_87000
10
35.39800
20
64.29401
30
87.00000
0
VERTEX
8
29_87000
10
36.15100
20
65.50900
30
87.00000
0
VERTEX
8
29_87000
10
36.58700
20
66.27200
30
87.00000
0
VERTEX
8
29_87000
10
37.17700
20
67.40100
30
87.00000
0
VERTEX
8
29_87000
10
37.57100
20
68.22000
30
87.00000
0
VERTEX
8
29_87000
10
38.20900
20
69.80600
30
87.00000
0
VERTEX
8
29_87000
10
38.61500
20
71.15401
30
87.00000
0
VERTEX
8
29_87000
10
38.97900
20
72.63000
30
87.00000
0
VERTEX
8
29_87000
10
39.08500
20
73.25700
30
87.00000
0
VERTEX
8
29_87000
10
39.23800
20
74.52800
30
87.00000
0
VERTEX
8
29_87000
10
39.34700
20
75.71001
30
87.00000
0
VERTEX
8
29_87000
10
39.41900
20
78.78101
30
87.00000
0
VERTEX
8
29_87000
10
39.45900
20
79.79601
30
87.00000
0
VERTEX
8
29_87000
10
39.46400
20
80.41100
30
87.00000
0
VERTEX
8
29_87000
10
39.42800
20
80.89700
30
87.00000
0
VERTEX
8
29_87000
10
39.31900
20
83.09300
30
87.00000
0
VERTEX
8
29_87000
10
39.13100
20
84.66000
30
87.00000
0
VERTEX
8
29_87000
10
39.00100
20
85.30200
30
87.00000
0
VERTEX
8
29_87000
10
17.83600
20
88.83601
30
87.00000
0
VERTEX
8
29_87000
10
-56.17000
20
88.83601
30
87.00000
0
VERTEX
8
29_87000
10
-56.17000
20
70.95000
30
87.00000
0
SEQEND
8
29_87000
0
POLYLINE
8
29_87000
62
5
0
VERTEX
8
29_87000
10
-56.17000
20
90.87100
30
87.00000
0
VERTEX
8
29_87000
10
-56.17000
20
90.22201
30
87.00000
0
VERTEX
8
29_87000
10
9.53800
20
90.22201
30
87.00000
0
VERTEX
8
29_87000
10
2.56300
20
91.38500
30
87.00000
0
VERTEX
8
29_87000
10
-56.17000
20
91.38500
30
87.00000
0
VERTEX
8
29_87000
10
-56.17000
20
90.87100
30
87.00000
0
SEQEND
8
29_87000
0
POLYLINE
8
29_87000
62
5
0
VERTEX
8
29_87000
10
14.50800
20
89.39001
30
87.00000
0
VERTEX
8
29_87000
10
9.57500
20
90.21400
30
87.00000
0
VERTEX
8
29_87000
10
-56.17000
20
90.21400
30
87.00000
0
VERTEX
8
29_87000
10
-56.17000
20
88.83801
30
87.00000
0
VERTEX
8
29_87000
10
17.82500
20
88.83801
30
87.00000
0
VERTEX
8
29_87000
10
14.50800
20
89.39001
30
87.00000
0
SEQEND
8
29_87000
0
ENDSEC
0
EOF
