0
SECTION
2
HEADER
9
$ACADVER
1
AC1009
0
ENDSEC
0
SECTION
2
TABLES
0
TABLE
2
LAYER
70
1
0
LAYER
2
39_117000
70
0
62
7
6
CONTINUOUS
0
ENDTAB
0
ENDSEC
0
SECTION
2
BLOCKS
0
ENDSEC
0
SECTION
2
ENTITIES
0
POLYLINE
8
39_117000
62
5
0
VERTEX
8
39_117000
10
-44.33800
20
91.85700
30
117.00000
0
VERTEX
8
39_117000
10
-0.26500
20
91.85700
30
117.00000
0
VERTEX
8
39_117000
10
-0.73800
20
91.93600
30
117.00000
0
VERTEX
8
39_117000
10
-56.17000
20
91.93600
30
117.00000
0
VERTEX
8
39_117000
10
-56.17000
20
91.85700
30
117.00000
0
VERTEX
8
39_117000
10
-44.33800
20
91.85700
30
117.00000
0
SEQEND
8
39_117000
0
POLYLINE
8
39_117000
62
5
0
VERTEX
8
39_117000
10
-44.73300
20
91.81200
30
117.00000
0
VERTEX
8
39_117000
10
0.00100
20
91.81200
30
117.00000
0
VERTEX
8
39_117000
10
-0.23000
20
91.85101
30
117.00000
0
VERTEX
8
39_117000
10
-56.17000
20
91.85101
30
117.00000
0
VERTEX
8
39_117000
10
-56.17000
20
91.81200
30
117.00000
0
VERTEX
8
39_117000
10
-44.73300
20
91.81200
30
117.00000
0
SEQEND
8
39_117000
0
POLYLINE
8
39_117000
62
5
0
VERTEX
8
39_117000
10
-56.17000
20
91.79601
30
117.00000
0
VERTEX
8
39_117000
10
-56.17000
20
91.74900
30
117.00000
0
VERTEX
8
39_117000
10
0.38500
20
91.74900
30
117.00000
0
VERTEX
8
39_117000
10
0.00900
20
91.81100
30
117.00000
0
VERTEX
8
39_117000
10
-56.17000
20
91.81100
30
117.00000
0
VERTEX
8
39_117000
10
-56.17000
20
91.79601
30
117.00000
0
SEQEND
8
39_117000
0
POLYLINE
8
39_117000
62
5
0
VERTEX
8
39_117000
10
-56.17000
20
91.54800
30
117.00000
0
VERTEX
8
39_117000
10
-56.17000
20
91.43501
30
117.00000
0
VERTEX
8
39_117000
10
2.25700
20
91.43501
30
117.00000
0
VERTEX
8
39_117000
10
0.41300
20
91.74200
30
117.00000
0
VERTEX
8
39_117000
10
-56.17000
20
91.74200
30
117.00000
0
VERTEX
8
39_117000
10
-56.17000
20
91.54800
30
117.00000
0
SEQEND
8
39_117000
0
POLYLINE
8
39_117000
62
5
0
VERTEX
8
39_117000
10
-54.92900
20
87.97401
30
117.00000
0
VERTEX
8
39_117000
10
-56.17000
20
87.97401
30
117.00000
0
VERTEX
8
39_117000
10
-56.17000
20
-92.11401
30
117.00000
0
VERTEX
8
39_117000
10
29.77300
20
-92.11401
30
117.00000
0
VERTEX
8
39_117000
10
28.99700
20
-90.83900
30
117.00000
0
VERTEX
8
39_117000
10
27.83900
20
-89.08301
30
117.00000
0
VERTEX
8
39_117000
10
27.25000
20
-88.03400
30
117.00000
0
VERTEX
8
39_117000
10
26.80600
20
-87.26801
30
117.00000
0
VERTEX
8
39_117000
10
26.25800
20
-86.22201
30
117.00000
0
VERTEX
8
39_117000
10
23.84600
20
-81.42200
30
117.00000
0
VERTEX
8
39_117000
10
23.83800
20
-81.36700
30
117.00000
0
VERTEX
8
39_117000
10
23.79400
20
-81.22000
30
117.00000
0
VERTEX
8
39_117000
10
23.77000
20
-81.06700
30
117.00000
0
VERTEX
8
39_117000
10
23.73400
20
-80.97601
30
117.00000
0
VERTEX
8
39_117000
10
23.74800
20
-80.89500
30
117.00000
0
VERTEX
8
39_117000
10
23.86200
20
-79.10300
30
117.00000
0
VERTEX
8
39_117000
10
24.07400
20
-76.98200
30
117.00000
0
VERTEX
8
39_117000
10
24.15400
20
-76.39700
30
117.00000
0
VERTEX
8
39_117000
10
24.30800
20
-75.10201
30
117.00000
0
VERTEX
8
39_117000
10
24.32900
20
-74.85600
30
117.00000
0
VERTEX
8
39_117000
10
24.40800
20
-74.31600
30
117.00000
0
VERTEX
8
39_117000
10
24.36200
20
-73.80600
30
117.00000
0
VERTEX
8
39_117000
10
24.23300
20
-72.98300
30
117.00000
0
VERTEX
8
39_117000
10
24.18100
20
-72.49600
30
117.00000
0
VERTEX
8
39_117000
10
24.14100
20
-72.20100
30
117.00000
0
VERTEX
8
39_117000
10
23.79600
20
-70.92700
30
117.00000
0
VERTEX
8
39_117000
10
23.80300
20
-70.84800
30
117.00000
0
VERTEX
8
39_117000
10
23.76900
20
-70.62601
30
117.00000
0
VERTEX
8
39_117000
10
23.76100
20
-70.41901
30
117.00000
0
VERTEX
8
39_117000
10
23.48800
20
-69.55100
30
117.00000
0
VERTEX
8
39_117000
10
23.35600
20
-69.17600
30
117.00000
0
VERTEX
8
39_117000
10
23.29100
20
-69.03300
30
117.00000
0
VERTEX
8
39_117000
10
23.16900
20
-68.64001
30
117.00000
0
VERTEX
8
39_117000
10
22.90600
20
-67.86900
30
117.00000
0
VERTEX
8
39_117000
10
22.81900
20
-67.50301
30
117.00000
0
VERTEX
8
39_117000
10
22.52600
20
-65.95300
30
117.00000
0
VERTEX
8
39_117000
10
22.47000
20
-65.38700
30
117.00000
0
VERTEX
8
39_117000
10
22.38300
20
-64.85001
30
117.00000
0
VERTEX
8
39_117000
10
22.20100
20
-64.16500
30
117.00000
0
VERTEX
8
39_117000
10
22.07100
20
-63.21100
30
117.00000
0
VERTEX
8
39_117000
10
21.67100
20
-61.83000
30
117.00000
0
VERTEX
8
39_117000
10
21.54300
20
-61.09700
30
117.00000
0
VERTEX
8
39_117000
10
21.23300
20
-60.09800
30
117.00000
0
VERTEX
8
39_117000
10
21.10300
20
-59.57000
30
117.00000
0
VERTEX
8
39_117000
10
21.02600
20
-59.33100
30
117.00000
0
VERTEX
8
39_117000
10
21.00200
20
-59.15400
30
117.00000
0
VERTEX
8
39_117000
10
20.91800
20
-58.79900
30
117.00000
0
VERTEX
8
39_117000
10
20.82700
20
-58.54000
30
117.00000
0
VERTEX
8
39_117000
10
20.79300
20
-58.28000
30
117.00000
0
VERTEX
8
39_117000
10
20.71500
20
-58.04900
30
117.00000
0
VERTEX
8
39_117000
10
20.55300
20
-57.30600
30
117.00000
0
VERTEX
8
39_117000
10
20.44000
20
-56.93400
30
117.00000
0
VERTEX
8
39_117000
10
20.40800
20
-56.80500
30
117.00000
0
VERTEX
8
39_117000
10
20.39500
20
-56.73300
30
117.00000
0
VERTEX
8
39_117000
10
20.39100
20
-56.64300
30
117.00000
0
VERTEX
8
39_117000
10
20.36200
20
-56.55900
30
117.00000
0
VERTEX
8
39_117000
10
20.23100
20
-55.98100
30
117.00000
0
VERTEX
8
39_117000
10
20.17100
20
-55.33300
30
117.00000
0
VERTEX
8
39_117000
10
19.95600
20
-54.17500
30
117.00000
0
VERTEX
8
39_117000
10
19.90400
20
-53.99200
30
117.00000
0
VERTEX
8
39_117000
10
19.84500
20
-53.70300
30
117.00000
0
VERTEX
8
39_117000
10
19.82700
20
-53.50900
30
117.00000
0
VERTEX
8
39_117000
10
19.83200
20
-53.34100
30
117.00000
0
VERTEX
8
39_117000
10
19.95600
20
-52.71700
30
117.00000
0
VERTEX
8
39_117000
10
19.95300
20
-52.55600
30
117.00000
0
VERTEX
8
39_117000
10
19.89100
20
-52.24500
30
117.00000
0
VERTEX
8
39_117000
10
19.84300
20
-51.72200
30
117.00000
0
VERTEX
8
39_117000
10
19.79100
20
-50.95200
30
117.00000
0
VERTEX
8
39_117000
10
19.78100
20
-50.69900
30
117.00000
0
VERTEX
8
39_117000
10
19.75300
20
-50.45000
30
117.00000
0
VERTEX
8
39_117000
10
19.77800
20
-50.24000
30
117.00000
0
VERTEX
8
39_117000
10
19.95900
20
-49.10800
30
117.00000
0
VERTEX
8
39_117000
10
20.01800
20
-48.96400
30
117.00000
0
VERTEX
8
39_117000
10
20.02100
20
-48.69800
30
117.00000
0
VERTEX
8
39_117000
10
20.01100
20
-48.23900
30
117.00000
0
VERTEX
8
39_117000
10
20.11500
20
-47.92400
30
117.00000
0
VERTEX
8
39_117000
10
20.12800
20
-47.86300
30
117.00000
0
VERTEX
8
39_117000
10
20.05800
20
-47.51000
30
117.00000
0
VERTEX
8
39_117000
10
19.82700
20
-46.71600
30
117.00000
0
VERTEX
8
39_117000
10
19.74200
20
-46.59000
30
117.00000
0
VERTEX
8
39_117000
10
19.48000
20
-45.59700
30
117.00000
0
VERTEX
8
39_117000
10
19.44500
20
-45.50100
30
117.00000
0
VERTEX
8
39_117000
10
19.43600
20
-45.33600
30
117.00000
0
VERTEX
8
39_117000
10
19.42000
20
-44.43500
30
117.00000
0
VERTEX
8
39_117000
10
19.42800
20
-44.24000
30
117.00000
0
VERTEX
8
39_117000
10
19.42500
20
-43.95500
30
117.00000
0
VERTEX
8
39_117000
10
19.38300
20
-42.26200
30
117.00000
0
VERTEX
8
39_117000
10
19.37000
20
-42.14500
30
117.00000
0
VERTEX
8
39_117000
10
19.53100
20
-41.48100
30
117.00000
0
VERTEX
8
39_117000
10
19.69500
20
-40.60100
30
117.00000
0
VERTEX
8
39_117000
10
19.76000
20
-40.05700
30
117.00000
0
VERTEX
8
39_117000
10
19.84900
20
-39.56100
30
117.00000
0
VERTEX
8
39_117000
10
19.88600
20
-38.95900
30
117.00000
0
VERTEX
8
39_117000
10
19.94600
20
-38.62900
30
117.00000
0
VERTEX
8
39_117000
10
20.14400
20
-38.01200
30
117.00000
0
VERTEX
8
39_117000
10
20.58900
20
-36.70300
30
117.00000
0
VERTEX
8
39_117000
10
20.61400
20
-36.60700
30
117.00000
0
VERTEX
8
39_117000
10
20.61300
20
-36.57600
30
117.00000
0
VERTEX
8
39_117000
10
20.67700
20
-36.32900
30
117.00000
0
VERTEX
8
39_117000
10
20.77800
20
-35.58400
30
117.00000
0
VERTEX
8
39_117000
10
20.95500
20
-34.64400
30
117.00000
0
VERTEX
8
39_117000
10
20.95300
20
-34.37200
30
117.00000
0
VERTEX
8
39_117000
10
21.01700
20
-33.91400
30
117.00000
0
VERTEX
8
39_117000
10
21.02400
20
-33.71000
30
117.00000
0
VERTEX
8
39_117000
10
21.01900
20
-33.29100
30
117.00000
0
VERTEX
8
39_117000
10
20.90600
20
-31.84500
30
117.00000
0
VERTEX
8
39_117000
10
20.87700
20
-31.51500
30
117.00000
0
VERTEX
8
39_117000
10
20.86500
20
-31.45600
30
117.00000
0
VERTEX
8
39_117000
10
20.89300
20
-31.12200
30
117.00000
0
VERTEX
8
39_117000
10
20.85700
20
-30.79300
30
117.00000
0
VERTEX
8
39_117000
10
20.90700
20
-30.08800
30
117.00000
0
VERTEX
8
39_117000
10
20.92700
20
-29.94300
30
117.00000
0
VERTEX
8
39_117000
10
20.99600
20
-29.62100
30
117.00000
0
VERTEX
8
39_117000
10
21.38200
20
-28.14800
30
117.00000
0
VERTEX
8
39_117000
10
21.50000
20
-27.41800
30
117.00000
0
VERTEX
8
39_117000
10
21.35300
20
-26.24900
30
117.00000
0
VERTEX
8
39_117000
10
21.00600
20
-24.91600
30
117.00000
0
VERTEX
8
39_117000
10
21.00900
20
-24.60000
30
117.00000
0
VERTEX
8
39_117000
10
20.99200
20
-23.65200
30
117.00000
0
VERTEX
8
39_117000
10
20.99900
20
-22.97300
30
117.00000
0
VERTEX
8
39_117000
10
21.06500
20
-21.88300
30
117.00000
0
VERTEX
8
39_117000
10
21.26000
20
-19.53900
30
117.00000
0
VERTEX
8
39_117000
10
21.36700
20
-18.68400
30
117.00000
0
VERTEX
8
39_117000
10
21.46900
20
-18.22400
30
117.00000
0
VERTEX
8
39_117000
10
21.57100
20
-17.14000
30
117.00000
0
VERTEX
8
39_117000
10
21.66800
20
-16.57000
30
117.00000
0
VERTEX
8
39_117000
10
21.77400
20
-16.05900
30
117.00000
0
VERTEX
8
39_117000
10
22.46700
20
-13.34100
30
117.00000
0
VERTEX
8
39_117000
10
22.72800
20
-12.50200
30
117.00000
0
VERTEX
8
39_117000
10
22.82800
20
-11.99700
30
117.00000
0
VERTEX
8
39_117000
10
23.18400
20
-10.50200
30
117.00000
0
VERTEX
8
39_117000
10
23.70700
20
-8.63500
30
117.00000
0
VERTEX
8
39_117000
10
23.97800
20
-7.52000
30
117.00000
0
VERTEX
8
39_117000
10
24.16100
20
-6.72800
30
117.00000
0
VERTEX
8
39_117000
10
25.14900
20
-2.61800
30
117.00000
0
VERTEX
8
39_117000
10
25.40400
20
-1.35900
30
117.00000
0
VERTEX
8
39_117000
10
25.58700
20
-0.29000
30
117.00000
0
VERTEX
8
39_117000
10
25.72900
20
0.74900
30
117.00000
0
VERTEX
8
39_117000
10
25.97700
20
2.69900
30
117.00000
0
VERTEX
8
39_117000
10
26.23300
20
5.05400
30
117.00000
0
VERTEX
8
39_117000
10
26.34600
20
6.22800
30
117.00000
0
VERTEX
8
39_117000
10
26.41900
20
8.56000
30
117.00000
0
VERTEX
8
39_117000
10
26.43300
20
9.54100
30
117.00000
0
VERTEX
8
39_117000
10
26.40200
20
10.06000
30
117.00000
0
VERTEX
8
39_117000
10
26.27500
20
11.66400
30
117.00000
0
VERTEX
8
39_117000
10
26.16200
20
12.86900
30
117.00000
0
VERTEX
8
39_117000
10
26.01400
20
14.28300
30
117.00000
0
VERTEX
8
39_117000
10
25.96700
20
14.60300
30
117.00000
0
VERTEX
8
39_117000
10
25.82500
20
15.88900
30
117.00000
0
VERTEX
8
39_117000
10
25.51700
20
17.28800
30
117.00000
0
VERTEX
8
39_117000
10
25.48300
20
17.57100
30
117.00000
0
VERTEX
8
39_117000
10
25.27100
20
18.63700
30
117.00000
0
VERTEX
8
39_117000
10
23.98400
20
23.89600
30
117.00000
0
VERTEX
8
39_117000
10
23.76200
20
24.73100
30
117.00000
0
VERTEX
8
39_117000
10
23.66500
20
25.23700
30
117.00000
0
VERTEX
8
39_117000
10
23.51900
20
25.78400
30
117.00000
0
VERTEX
8
39_117000
10
23.27300
20
27.36500
30
117.00000
0
VERTEX
8
39_117000
10
23.15600
20
27.90900
30
117.00000
0
VERTEX
8
39_117000
10
23.13700
20
28.06900
30
117.00000
0
VERTEX
8
39_117000
10
22.78300
20
29.93700
30
117.00000
0
VERTEX
8
39_117000
10
22.44500
20
31.61400
30
117.00000
0
VERTEX
8
39_117000
10
22.18900
20
32.76500
30
117.00000
0
VERTEX
8
39_117000
10
22.05500
20
33.57300
30
117.00000
0
VERTEX
8
39_117000
10
21.81100
20
34.74900
30
117.00000
0
VERTEX
8
39_117000
10
21.78200
20
35.28900
30
117.00000
0
VERTEX
8
39_117000
10
21.74300
20
35.76200
30
117.00000
0
VERTEX
8
39_117000
10
21.76800
20
36.84400
30
117.00000
0
VERTEX
8
39_117000
10
21.81500
20
37.28700
30
117.00000
0
VERTEX
8
39_117000
10
21.94000
20
38.29300
30
117.00000
0
VERTEX
8
39_117000
10
22.07400
20
39.72400
30
117.00000
0
VERTEX
8
39_117000
10
22.33100
20
41.12000
30
117.00000
0
VERTEX
8
39_117000
10
23.39500
20
44.93400
30
117.00000
0
VERTEX
8
39_117000
10
23.68500
20
46.33300
30
117.00000
0
VERTEX
8
39_117000
10
24.04200
20
48.46100
30
117.00000
0
VERTEX
8
39_117000
10
24.19900
20
49.46300
30
117.00000
0
VERTEX
8
39_117000
10
24.25000
20
50.13100
30
117.00000
0
VERTEX
8
39_117000
10
24.27200
20
50.22700
30
117.00000
0
VERTEX
8
39_117000
10
24.32600
20
50.83100
30
117.00000
0
VERTEX
8
39_117000
10
24.35700
20
51.34300
30
117.00000
0
VERTEX
8
39_117000
10
24.28900
20
52.31300
30
117.00000
0
VERTEX
8
39_117000
10
24.29100
20
52.59300
30
117.00000
0
VERTEX
8
39_117000
10
24.20200
20
53.06000
30
117.00000
0
VERTEX
8
39_117000
10
23.98900
20
53.83700
30
117.00000
0
VERTEX
8
39_117000
10
23.98900
20
54.17500
30
117.00000
0
VERTEX
8
39_117000
10
24.03100
20
54.34100
30
117.00000
0
VERTEX
8
39_117000
10
24.15600
20
54.59800
30
117.00000
0
VERTEX
8
39_117000
10
24.23000
20
54.71300
30
117.00000
0
VERTEX
8
39_117000
10
24.98500
20
55.54000
30
117.00000
0
VERTEX
8
39_117000
10
26.31600
20
56.56900
30
117.00000
0
VERTEX
8
39_117000
10
26.58400
20
56.86100
30
117.00000
0
VERTEX
8
39_117000
10
27.44300
20
58.04900
30
117.00000
0
VERTEX
8
39_117000
10
27.51600
20
58.19000
30
117.00000
0
VERTEX
8
39_117000
10
27.77300
20
58.91200
30
117.00000
0
VERTEX
8
39_117000
10
27.98700
20
59.20500
30
117.00000
0
VERTEX
8
39_117000
10
28.13100
20
59.48400
30
117.00000
0
VERTEX
8
39_117000
10
28.99200
20
60.68700
30
117.00000
0
VERTEX
8
39_117000
10
29.22900
20
61.24400
30
117.00000
0
VERTEX
8
39_117000
10
29.38900
20
61.71600
30
117.00000
0
VERTEX
8
39_117000
10
29.50800
20
62.01400
30
117.00000
0
VERTEX
8
39_117000
10
29.63900
20
62.66700
30
117.00000
0
VERTEX
8
39_117000
10
29.68000
20
62.90300
30
117.00000
0
VERTEX
8
39_117000
10
29.78700
20
63.97900
30
117.00000
0
VERTEX
8
39_117000
10
29.97800
20
67.38000
30
117.00000
0
VERTEX
8
39_117000
10
30.09900
20
69.93401
30
117.00000
0
VERTEX
8
39_117000
10
30.12100
20
70.24300
30
117.00000
0
VERTEX
8
39_117000
10
30.23300
20
71.09500
30
117.00000
0
VERTEX
8
39_117000
10
30.30200
20
72.53400
30
117.00000
0
VERTEX
8
39_117000
10
30.40900
20
73.40900
30
117.00000
0
VERTEX
8
39_117000
10
30.43400
20
73.74900
30
117.00000
0
VERTEX
8
39_117000
10
30.34800
20
74.17001
30
117.00000
0
VERTEX
8
39_117000
10
30.29900
20
74.50301
30
117.00000
0
VERTEX
8
39_117000
10
30.16500
20
75.09100
30
117.00000
0
VERTEX
8
39_117000
10
30.11300
20
75.28700
30
117.00000
0
VERTEX
8
39_117000
10
30.03200
20
75.80300
30
117.00000
0
VERTEX
8
39_117000
10
29.77800
20
76.90200
30
117.00000
0
VERTEX
8
39_117000
10
29.68000
20
77.43101
30
117.00000
0
VERTEX
8
39_117000
10
29.64000
20
77.97800
30
117.00000
0
VERTEX
8
39_117000
10
29.39200
20
78.74700
30
117.00000
0
VERTEX
8
39_117000
10
28.32900
20
80.81600
30
117.00000
0
VERTEX
8
39_117000
10
26.39200
20
85.05100
30
117.00000
0
VERTEX
8
39_117000
10
25.13500
20
87.61800
30
117.00000
0
VERTEX
8
39_117000
10
23.00200
20
87.97401
30
117.00000
0
VERTEX
8
39_117000
10
-54.92900
20
87.97401
30
117.00000
0
SEQEND
8
39_117000
0
POLYLINE
8
39_117000
62
5
0
VERTEX
8
39_117000
10
-56.17000
20
90.42500
30
117.00000
0
VERTEX
8
39_117000
10
-56.17000
20
89.85201
30
117.00000
0
VERTEX
8
39_117000
10
11.74600
20
89.85201
30
117.00000
0
VERTEX
8
39_117000
10
2.28600
20
91.43101
30
117.00000
0
VERTEX
8
39_117000
10
-56.17000
20
91.43101
30
117.00000
0
VERTEX
8
39_117000
10
-56.17000
20
90.42500
30
117.00000
0
SEQEND
8
39_117000
0
POLYLINE
8
39_117000
62
5
0
VERTEX
8
39_117000
10
19.05000
20
88.63300
30
117.00000
0
VERTEX
8
39_117000
10
11.79700
20
89.84400
30
117.00000
0
VERTEX
8
39_117000
10
-56.17000
20
89.84400
30
117.00000
0
VERTEX
8
39_117000
10
-56.17000
20
87.97701
30
117.00000
0
VERTEX
8
39_117000
10
22.98500
20
87.97701
30
117.00000
0
VERTEX
8
39_117000
10
19.05000
20
88.63300
30
117.00000
0
SEQEND
8
39_117000
0
ENDSEC
0
EOF
