0
SECTION
2
HEADER
9
$ACADVER
1
AC1009
0
ENDSEC
0
SECTION
2
TABLES
0
TABLE
2
LAYER
70
1
0
LAYER
2
16_48000
70
0
62
7
6
CONTINUOUS
0
ENDTAB
0
ENDSEC
0
SECTION
2
BLOCKS
0
ENDSEC
0
SECTION
2
ENTITIES
0
POLYLINE
8
16_48000
62
5
0
VERTEX
8
16_48000
10
-37.30900
20
91.49200
30
48.00000
0
VERTEX
8
16_48000
10
1.91800
20
91.49200
30
48.00000
0
VERTEX
8
16_48000
10
1.73000
20
91.52400
30
48.00000
0
VERTEX
8
16_48000
10
-56.17000
20
91.52400
30
48.00000
0
VERTEX
8
16_48000
10
-56.17000
20
91.49200
30
48.00000
0
VERTEX
8
16_48000
10
-37.30900
20
91.49200
30
48.00000
0
SEQEND
8
16_48000
0
POLYLINE
8
16_48000
62
5
0
VERTEX
8
16_48000
10
-37.01500
20
91.44801
30
48.00000
0
VERTEX
8
16_48000
10
2.17500
20
91.44801
30
48.00000
0
VERTEX
8
16_48000
10
1.93200
20
91.49001
30
48.00000
0
VERTEX
8
16_48000
10
-56.17000
20
91.49001
30
48.00000
0
VERTEX
8
16_48000
10
-56.17000
20
91.44801
30
48.00000
0
VERTEX
8
16_48000
10
-37.01500
20
91.44801
30
48.00000
0
SEQEND
8
16_48000
0
POLYLINE
8
16_48000
62
5
0
VERTEX
8
16_48000
10
-36.43700
20
91.32600
30
48.00000
0
VERTEX
8
16_48000
10
2.91600
20
91.32600
30
48.00000
0
VERTEX
8
16_48000
10
2.18500
20
91.44701
30
48.00000
0
VERTEX
8
16_48000
10
-56.17000
20
91.44701
30
48.00000
0
VERTEX
8
16_48000
10
-56.17000
20
91.32600
30
48.00000
0
VERTEX
8
16_48000
10
-36.43700
20
91.32600
30
48.00000
0
SEQEND
8
16_48000
0
POLYLINE
8
16_48000
62
5
0
VERTEX
8
16_48000
10
-34.92500
20
90.70000
30
48.00000
0
VERTEX
8
16_48000
10
6.66800
20
90.70000
30
48.00000
0
VERTEX
8
16_48000
10
2.92600
20
91.32401
30
48.00000
0
VERTEX
8
16_48000
10
-56.17000
20
91.32401
30
48.00000
0
VERTEX
8
16_48000
10
-56.17000
20
90.70000
30
48.00000
0
VERTEX
8
16_48000
10
-34.92500
20
90.70000
30
48.00000
0
SEQEND
8
16_48000
0
POLYLINE
8
16_48000
62
5
0
VERTEX
8
16_48000
10
-56.17000
20
-15.17600
30
48.00000
0
VERTEX
8
16_48000
10
-56.17000
20
-92.11401
30
48.00000
0
VERTEX
8
16_48000
10
13.43800
20
-92.11401
30
48.00000
0
VERTEX
8
16_48000
10
13.36800
20
-91.23400
30
48.00000
0
VERTEX
8
16_48000
10
13.37300
20
-91.07001
30
48.00000
0
VERTEX
8
16_48000
10
13.35600
20
-89.96600
30
48.00000
0
VERTEX
8
16_48000
10
13.42500
20
-89.75301
30
48.00000
0
VERTEX
8
16_48000
10
13.42700
20
-89.58200
30
48.00000
0
VERTEX
8
16_48000
10
14.09200
20
-88.76900
30
48.00000
0
VERTEX
8
16_48000
10
15.30800
20
-87.48701
30
48.00000
0
VERTEX
8
16_48000
10
16.07400
20
-86.74001
30
48.00000
0
VERTEX
8
16_48000
10
18.62800
20
-84.19901
30
48.00000
0
VERTEX
8
16_48000
10
19.83000
20
-82.96600
30
48.00000
0
VERTEX
8
16_48000
10
20.36900
20
-82.34801
30
48.00000
0
VERTEX
8
16_48000
10
21.22000
20
-81.24400
30
48.00000
0
VERTEX
8
16_48000
10
21.90100
20
-79.83601
30
48.00000
0
VERTEX
8
16_48000
10
21.93400
20
-79.71400
30
48.00000
0
VERTEX
8
16_48000
10
21.95700
20
-79.34100
30
48.00000
0
VERTEX
8
16_48000
10
22.77000
20
-77.80100
30
48.00000
0
VERTEX
8
16_48000
10
22.73900
20
-77.47401
30
48.00000
0
VERTEX
8
16_48000
10
22.88300
20
-77.08601
30
48.00000
0
VERTEX
8
16_48000
10
22.87600
20
-77.07401
30
48.00000
0
VERTEX
8
16_48000
10
22.87900
20
-77.04501
30
48.00000
0
VERTEX
8
16_48000
10
23.16500
20
-75.97900
30
48.00000
0
VERTEX
8
16_48000
10
23.22500
20
-75.79200
30
48.00000
0
VERTEX
8
16_48000
10
23.39500
20
-75.15800
30
48.00000
0
VERTEX
8
16_48000
10
23.30000
20
-74.72800
30
48.00000
0
VERTEX
8
16_48000
10
23.35100
20
-74.36800
30
48.00000
0
VERTEX
8
16_48000
10
23.32100
20
-73.73600
30
48.00000
0
VERTEX
8
16_48000
10
23.15400
20
-73.06600
30
48.00000
0
VERTEX
8
16_48000
10
23.07200
20
-72.70100
30
48.00000
0
VERTEX
8
16_48000
10
23.15400
20
-70.90200
30
48.00000
0
VERTEX
8
16_48000
10
23.03300
20
-69.48200
30
48.00000
0
VERTEX
8
16_48000
10
23.18200
20
-68.97501
30
48.00000
0
VERTEX
8
16_48000
10
23.19200
20
-68.86700
30
48.00000
0
VERTEX
8
16_48000
10
23.19200
20
-68.61301
30
48.00000
0
VERTEX
8
16_48000
10
23.27300
20
-67.79301
30
48.00000
0
VERTEX
8
16_48000
10
23.26700
20
-66.99300
30
48.00000
0
VERTEX
8
16_48000
10
23.34800
20
-66.20300
30
48.00000
0
VERTEX
8
16_48000
10
23.37100
20
-66.17101
30
48.00000
0
VERTEX
8
16_48000
10
23.29300
20
-65.88400
30
48.00000
0
VERTEX
8
16_48000
10
23.30700
20
-65.82101
30
48.00000
0
VERTEX
8
16_48000
10
23.18900
20
-64.69601
30
48.00000
0
VERTEX
8
16_48000
10
23.24500
20
-64.03400
30
48.00000
0
VERTEX
8
16_48000
10
23.32300
20
-63.72100
30
48.00000
0
VERTEX
8
16_48000
10
23.31700
20
-63.69200
30
48.00000
0
VERTEX
8
16_48000
10
23.38300
20
-63.45500
30
48.00000
0
VERTEX
8
16_48000
10
23.65700
20
-62.66400
30
48.00000
0
VERTEX
8
16_48000
10
23.69000
20
-62.38900
30
48.00000
0
VERTEX
8
16_48000
10
23.63400
20
-61.94800
30
48.00000
0
VERTEX
8
16_48000
10
23.55100
20
-61.53900
30
48.00000
0
VERTEX
8
16_48000
10
23.55000
20
-61.10800
30
48.00000
0
VERTEX
8
16_48000
10
23.63400
20
-60.81700
30
48.00000
0
VERTEX
8
16_48000
10
23.63100
20
-60.75100
30
48.00000
0
VERTEX
8
16_48000
10
23.55100
20
-60.42200
30
48.00000
0
VERTEX
8
16_48000
10
23.54400
20
-60.36800
30
48.00000
0
VERTEX
8
16_48000
10
23.46200
20
-59.39800
30
48.00000
0
VERTEX
8
16_48000
10
23.27000
20
-58.82700
30
48.00000
0
VERTEX
8
16_48000
10
23.20800
20
-58.66400
30
48.00000
0
VERTEX
8
16_48000
10
23.18300
20
-58.33000
30
48.00000
0
VERTEX
8
16_48000
10
23.13400
20
-58.11700
30
48.00000
0
VERTEX
8
16_48000
10
22.97700
20
-56.92500
30
48.00000
0
VERTEX
8
16_48000
10
22.97200
20
-56.89700
30
48.00000
0
VERTEX
8
16_48000
10
22.95600
20
-56.88000
30
48.00000
0
VERTEX
8
16_48000
10
22.86100
20
-56.53300
30
48.00000
0
VERTEX
8
16_48000
10
22.80300
20
-56.20800
30
48.00000
0
VERTEX
8
16_48000
10
22.80500
20
-54.43400
30
48.00000
0
VERTEX
8
16_48000
10
22.96600
20
-52.72900
30
48.00000
0
VERTEX
8
16_48000
10
22.96700
20
-52.41700
30
48.00000
0
VERTEX
8
16_48000
10
23.17200
20
-51.20000
30
48.00000
0
VERTEX
8
16_48000
10
23.19700
20
-51.11600
30
48.00000
0
VERTEX
8
16_48000
10
23.34900
20
-50.40200
30
48.00000
0
VERTEX
8
16_48000
10
23.41300
20
-50.06300
30
48.00000
0
VERTEX
8
16_48000
10
23.56100
20
-49.63900
30
48.00000
0
VERTEX
8
16_48000
10
23.62000
20
-49.23200
30
48.00000
0
VERTEX
8
16_48000
10
23.71100
20
-48.73100
30
48.00000
0
VERTEX
8
16_48000
10
23.81200
20
-47.84200
30
48.00000
0
VERTEX
8
16_48000
10
23.81400
20
-47.71200
30
48.00000
0
VERTEX
8
16_48000
10
23.97000
20
-46.38900
30
48.00000
0
VERTEX
8
16_48000
10
24.24200
20
-45.08500
30
48.00000
0
VERTEX
8
16_48000
10
24.24900
20
-44.42000
30
48.00000
0
VERTEX
8
16_48000
10
24.38200
20
-42.93000
30
48.00000
0
VERTEX
8
16_48000
10
24.38400
20
-42.77500
30
48.00000
0
VERTEX
8
16_48000
10
24.39900
20
-42.63900
30
48.00000
0
VERTEX
8
16_48000
10
24.52200
20
-42.06400
30
48.00000
0
VERTEX
8
16_48000
10
24.68400
20
-41.16800
30
48.00000
0
VERTEX
8
16_48000
10
24.70500
20
-39.08300
30
48.00000
0
VERTEX
8
16_48000
10
24.70900
20
-37.58200
30
48.00000
0
VERTEX
8
16_48000
10
24.72600
20
-37.17200
30
48.00000
0
VERTEX
8
16_48000
10
24.77300
20
-36.53700
30
48.00000
0
VERTEX
8
16_48000
10
24.73900
20
-35.04700
30
48.00000
0
VERTEX
8
16_48000
10
24.68300
20
-34.36400
30
48.00000
0
VERTEX
8
16_48000
10
24.62900
20
-32.96200
30
48.00000
0
VERTEX
8
16_48000
10
24.49400
20
-32.26100
30
48.00000
0
VERTEX
8
16_48000
10
24.23600
20
-30.74700
30
48.00000
0
VERTEX
8
16_48000
10
24.16500
20
-30.19400
30
48.00000
0
VERTEX
8
16_48000
10
24.12800
20
-29.06000
30
48.00000
0
VERTEX
8
16_48000
10
24.07000
20
-28.82500
30
48.00000
0
VERTEX
8
16_48000
10
24.00100
20
-28.15900
30
48.00000
0
VERTEX
8
16_48000
10
23.84700
20
-27.38500
30
48.00000
0
VERTEX
8
16_48000
10
23.39500
20
-25.69000
30
48.00000
0
VERTEX
8
16_48000
10
23.31400
20
-25.30500
30
48.00000
0
VERTEX
8
16_48000
10
23.10400
20
-24.10000
30
48.00000
0
VERTEX
8
16_48000
10
23.11600
20
-23.77000
30
48.00000
0
VERTEX
8
16_48000
10
23.13800
20
-23.57300
30
48.00000
0
VERTEX
8
16_48000
10
23.28800
20
-23.03800
30
48.00000
0
VERTEX
8
16_48000
10
23.51800
20
-22.72100
30
48.00000
0
VERTEX
8
16_48000
10
23.54200
20
-22.67600
30
48.00000
0
VERTEX
8
16_48000
10
23.87600
20
-22.33000
30
48.00000
0
VERTEX
8
16_48000
10
26.11500
20
-20.24000
30
48.00000
0
VERTEX
8
16_48000
10
27.02200
20
-19.22300
30
48.00000
0
VERTEX
8
16_48000
10
27.18000
20
-19.00300
30
48.00000
0
VERTEX
8
16_48000
10
28.07700
20
-17.81900
30
48.00000
0
VERTEX
8
16_48000
10
28.40100
20
-17.31800
30
48.00000
0
VERTEX
8
16_48000
10
28.66500
20
-16.69000
30
48.00000
0
VERTEX
8
16_48000
10
28.80400
20
-16.27200
30
48.00000
0
VERTEX
8
16_48000
10
28.84000
20
-16.12200
30
48.00000
0
VERTEX
8
16_48000
10
28.90100
20
-15.61300
30
48.00000
0
VERTEX
8
16_48000
10
28.84200
20
-15.29400
30
48.00000
0
VERTEX
8
16_48000
10
28.80200
20
-15.00000
30
48.00000
0
VERTEX
8
16_48000
10
28.89000
20
-13.01700
30
48.00000
0
VERTEX
8
16_48000
10
28.90900
20
-12.81700
30
48.00000
0
VERTEX
8
16_48000
10
28.91900
20
-12.42000
30
48.00000
0
VERTEX
8
16_48000
10
28.97100
20
-11.91200
30
48.00000
0
VERTEX
8
16_48000
10
28.97900
20
-10.63000
30
48.00000
0
VERTEX
8
16_48000
10
28.96800
20
-10.16700
30
48.00000
0
VERTEX
8
16_48000
10
28.97400
20
-9.65600
30
48.00000
0
VERTEX
8
16_48000
10
28.72800
20
-7.86300
30
48.00000
0
VERTEX
8
16_48000
10
28.68500
20
-7.41500
30
48.00000
0
VERTEX
8
16_48000
10
28.46900
20
-5.79700
30
48.00000
0
VERTEX
8
16_48000
10
28.41300
20
-5.13800
30
48.00000
0
VERTEX
8
16_48000
10
28.38800
20
-3.89300
30
48.00000
0
VERTEX
8
16_48000
10
28.58300
20
-0.81800
30
48.00000
0
VERTEX
8
16_48000
10
28.75300
20
0.22700
30
48.00000
0
VERTEX
8
16_48000
10
28.84500
20
0.95500
30
48.00000
0
VERTEX
8
16_48000
10
29.10700
20
2.05600
30
48.00000
0
VERTEX
8
16_48000
10
29.23700
20
2.53200
30
48.00000
0
VERTEX
8
16_48000
10
29.30800
20
2.78100
30
48.00000
0
VERTEX
8
16_48000
10
29.61800
20
3.70700
30
48.00000
0
VERTEX
8
16_48000
10
31.14700
20
8.45300
30
48.00000
0
VERTEX
8
16_48000
10
31.45300
20
9.64800
30
48.00000
0
VERTEX
8
16_48000
10
31.69800
20
10.56600
30
48.00000
0
VERTEX
8
16_48000
10
31.86600
20
11.40000
30
48.00000
0
VERTEX
8
16_48000
10
32.04700
20
12.18300
30
48.00000
0
VERTEX
8
16_48000
10
32.20100
20
13.24400
30
48.00000
0
VERTEX
8
16_48000
10
32.25000
20
13.77800
30
48.00000
0
VERTEX
8
16_48000
10
32.40100
20
16.34500
30
48.00000
0
VERTEX
8
16_48000
10
32.40500
20
16.61500
30
48.00000
0
VERTEX
8
16_48000
10
32.37900
20
16.85300
30
48.00000
0
VERTEX
8
16_48000
10
32.28200
20
18.44900
30
48.00000
0
VERTEX
8
16_48000
10
32.25500
20
19.08300
30
48.00000
0
VERTEX
8
16_48000
10
32.22200
20
19.46700
30
48.00000
0
VERTEX
8
16_48000
10
31.90500
20
21.87600
30
48.00000
0
VERTEX
8
16_48000
10
31.74500
20
22.70400
30
48.00000
0
VERTEX
8
16_48000
10
31.64800
20
23.10200
30
48.00000
0
VERTEX
8
16_48000
10
30.82200
20
26.08100
30
48.00000
0
VERTEX
8
16_48000
10
30.64500
20
26.53300
30
48.00000
0
VERTEX
8
16_48000
10
29.43600
20
30.21100
30
48.00000
0
VERTEX
8
16_48000
10
29.19000
20
31.04100
30
48.00000
0
VERTEX
8
16_48000
10
28.84800
20
32.13100
30
48.00000
0
VERTEX
8
16_48000
10
28.57700
20
33.11900
30
48.00000
0
VERTEX
8
16_48000
10
28.54100
20
33.30600
30
48.00000
0
VERTEX
8
16_48000
10
28.47100
20
34.15900
30
48.00000
0
VERTEX
8
16_48000
10
28.43600
20
34.90600
30
48.00000
0
VERTEX
8
16_48000
10
28.49500
20
36.17300
30
48.00000
0
VERTEX
8
16_48000
10
28.42300
20
37.63800
30
48.00000
0
VERTEX
8
16_48000
10
28.41900
20
37.92700
30
48.00000
0
VERTEX
8
16_48000
10
28.47700
20
38.64400
30
48.00000
0
VERTEX
8
16_48000
10
28.48100
20
38.82500
30
48.00000
0
VERTEX
8
16_48000
10
28.74600
20
39.77500
30
48.00000
0
VERTEX
8
16_48000
10
28.92200
20
40.35100
30
48.00000
0
VERTEX
8
16_48000
10
29.04800
20
41.04300
30
48.00000
0
VERTEX
8
16_48000
10
29.18800
20
41.60700
30
48.00000
0
VERTEX
8
16_48000
10
29.39900
20
43.17300
30
48.00000
0
VERTEX
8
16_48000
10
29.44400
20
44.05900
30
48.00000
0
VERTEX
8
16_48000
10
29.52500
20
45.26600
30
48.00000
0
VERTEX
8
16_48000
10
29.44900
20
46.62200
30
48.00000
0
VERTEX
8
16_48000
10
29.43200
20
46.77100
30
48.00000
0
VERTEX
8
16_48000
10
28.96200
20
48.45500
30
48.00000
0
VERTEX
8
16_48000
10
28.90500
20
48.97700
30
48.00000
0
VERTEX
8
16_48000
10
29.23400
20
49.97300
30
48.00000
0
VERTEX
8
16_48000
10
29.30900
20
50.40000
30
48.00000
0
VERTEX
8
16_48000
10
29.41800
20
50.68700
30
48.00000
0
VERTEX
8
16_48000
10
29.53200
20
51.06400
30
48.00000
0
VERTEX
8
16_48000
10
29.97100
20
52.76300
30
48.00000
0
VERTEX
8
16_48000
10
29.99500
20
52.82200
30
48.00000
0
VERTEX
8
16_48000
10
30.42800
20
53.66400
30
48.00000
0
VERTEX
8
16_48000
10
30.45900
20
53.74400
30
48.00000
0
VERTEX
8
16_48000
10
30.55200
20
53.93400
30
48.00000
0
VERTEX
8
16_48000
10
30.62100
20
54.03200
30
48.00000
0
VERTEX
8
16_48000
10
30.70000
20
54.12400
30
48.00000
0
VERTEX
8
16_48000
10
31.27100
20
54.76300
30
48.00000
0
VERTEX
8
16_48000
10
31.63600
20
55.42500
30
48.00000
0
VERTEX
8
16_48000
10
32.27000
20
57.11100
30
48.00000
0
VERTEX
8
16_48000
10
32.70700
20
57.73200
30
48.00000
0
VERTEX
8
16_48000
10
33.08300
20
58.08100
30
48.00000
0
VERTEX
8
16_48000
10
33.46700
20
58.60900
30
48.00000
0
VERTEX
8
16_48000
10
33.58000
20
58.79400
30
48.00000
0
VERTEX
8
16_48000
10
33.81700
20
59.29000
30
48.00000
0
VERTEX
8
16_48000
10
33.87000
20
59.49400
30
48.00000
0
VERTEX
8
16_48000
10
34.12200
20
60.34200
30
48.00000
0
VERTEX
8
16_48000
10
34.16900
20
60.66600
30
48.00000
0
VERTEX
8
16_48000
10
34.25400
20
61.09800
30
48.00000
0
VERTEX
8
16_48000
10
34.52000
20
62.33600
30
48.00000
0
VERTEX
8
16_48000
10
34.70300
20
62.86200
30
48.00000
0
VERTEX
8
16_48000
10
35.14800
20
64.02400
30
48.00000
0
VERTEX
8
16_48000
10
35.42700
20
64.65501
30
48.00000
0
VERTEX
8
16_48000
10
35.91300
20
65.66300
30
48.00000
0
VERTEX
8
16_48000
10
36.88100
20
67.50800
30
48.00000
0
VERTEX
8
16_48000
10
37.03400
20
67.86401
30
48.00000
0
VERTEX
8
16_48000
10
37.31800
20
68.56800
30
48.00000
0
VERTEX
8
16_48000
10
37.66900
20
69.55300
30
48.00000
0
VERTEX
8
16_48000
10
37.77200
20
69.88200
30
48.00000
0
VERTEX
8
16_48000
10
38.24100
20
71.91100
30
48.00000
0
VERTEX
8
16_48000
10
38.27100
20
72.20200
30
48.00000
0
VERTEX
8
16_48000
10
38.40200
20
73.23901
30
48.00000
0
VERTEX
8
16_48000
10
38.37400
20
73.51000
30
48.00000
0
VERTEX
8
16_48000
10
38.25700
20
74.33801
30
48.00000
0
VERTEX
8
16_48000
10
37.67200
20
77.82201
30
48.00000
0
VERTEX
8
16_48000
10
37.63700
20
77.99200
30
48.00000
0
VERTEX
8
16_48000
10
37.31800
20
79.24400
30
48.00000
0
VERTEX
8
16_48000
10
36.94400
20
80.65900
30
48.00000
0
VERTEX
8
16_48000
10
36.75700
20
81.28900
30
48.00000
0
VERTEX
8
16_48000
10
35.81500
20
83.89800
30
48.00000
0
VERTEX
8
16_48000
10
35.04100
20
85.96301
30
48.00000
0
VERTEX
8
16_48000
10
11.12100
20
89.95700
30
48.00000
0
VERTEX
8
16_48000
10
-56.17000
20
89.95700
30
48.00000
0
VERTEX
8
16_48000
10
-56.17000
20
-15.17600
30
48.00000
0
SEQEND
8
16_48000
0
POLYLINE
8
16_48000
62
5
0
VERTEX
8
16_48000
10
9.60000
20
90.20901
30
48.00000
0
VERTEX
8
16_48000
10
6.68700
20
90.69601
30
48.00000
0
VERTEX
8
16_48000
10
-56.17000
20
90.69601
30
48.00000
0
VERTEX
8
16_48000
10
-56.17000
20
89.95700
30
48.00000
0
VERTEX
8
16_48000
10
11.11700
20
89.95700
30
48.00000
0
VERTEX
8
16_48000
10
9.60000
20
90.20901
30
48.00000
0
SEQEND
8
16_48000
0
ENDSEC
0
EOF
