0
SECTION
2
HEADER
9
$ACADVER
1
AC1009
0
ENDSEC
0
SECTION
2
TABLES
0
TABLE
2
LAYER
70
1
0
LAYER
2
21_63000
70
0
62
7
6
CONTINUOUS
0
ENDTAB
0
ENDSEC
0
SECTION
2
BLOCKS
0
ENDSEC
0
SECTION
2
ENTITIES
0
POLYLINE
8
21_63000
62
5
0
VERTEX
8
21_63000
10
-31.04600
20
91.57001
30
63.00000
0
VERTEX
8
21_63000
10
1.44300
20
91.57001
30
63.00000
0
VERTEX
8
21_63000
10
1.19400
20
91.61301
30
63.00000
0
VERTEX
8
21_63000
10
-56.17000
20
91.61301
30
63.00000
0
VERTEX
8
21_63000
10
-56.17000
20
91.57001
30
63.00000
0
VERTEX
8
21_63000
10
-31.04600
20
91.57001
30
63.00000
0
SEQEND
8
21_63000
0
POLYLINE
8
21_63000
62
5
0
VERTEX
8
21_63000
10
-30.65100
20
91.51301
30
63.00000
0
VERTEX
8
21_63000
10
1.78700
20
91.51301
30
63.00000
0
VERTEX
8
21_63000
10
1.46100
20
91.56800
30
63.00000
0
VERTEX
8
21_63000
10
-56.17000
20
91.56800
30
63.00000
0
VERTEX
8
21_63000
10
-56.17000
20
91.51301
30
63.00000
0
VERTEX
8
21_63000
10
-30.65100
20
91.51301
30
63.00000
0
SEQEND
8
21_63000
0
POLYLINE
8
21_63000
62
5
0
VERTEX
8
21_63000
10
-29.87600
20
91.35101
30
63.00000
0
VERTEX
8
21_63000
10
2.77200
20
91.35101
30
63.00000
0
VERTEX
8
21_63000
10
1.80000
20
91.51100
30
63.00000
0
VERTEX
8
21_63000
10
-56.17000
20
91.51100
30
63.00000
0
VERTEX
8
21_63000
10
-56.17000
20
91.35101
30
63.00000
0
VERTEX
8
21_63000
10
-29.87600
20
91.35101
30
63.00000
0
SEQEND
8
21_63000
0
POLYLINE
8
21_63000
62
5
0
VERTEX
8
21_63000
10
-27.86600
20
90.51601
30
63.00000
0
VERTEX
8
21_63000
10
7.77300
20
90.51601
30
63.00000
0
VERTEX
8
21_63000
10
2.78600
20
91.34701
30
63.00000
0
VERTEX
8
21_63000
10
-56.17000
20
91.34701
30
63.00000
0
VERTEX
8
21_63000
10
-56.17000
20
90.51601
30
63.00000
0
VERTEX
8
21_63000
10
-27.86600
20
90.51601
30
63.00000
0
SEQEND
8
21_63000
0
POLYLINE
8
21_63000
62
5
0
VERTEX
8
21_63000
10
-56.17000
20
-12.47700
30
63.00000
0
VERTEX
8
21_63000
10
-56.17000
20
-92.11401
30
63.00000
0
VERTEX
8
21_63000
10
22.36000
20
-92.11401
30
63.00000
0
VERTEX
8
21_63000
10
22.35000
20
-91.73400
30
63.00000
0
VERTEX
8
21_63000
10
22.35900
20
-91.39900
30
63.00000
0
VERTEX
8
21_63000
10
22.45200
20
-90.84100
30
63.00000
0
VERTEX
8
21_63000
10
22.66100
20
-90.43301
30
63.00000
0
VERTEX
8
21_63000
10
23.06800
20
-90.02400
30
63.00000
0
VERTEX
8
21_63000
10
25.16600
20
-88.23000
30
63.00000
0
VERTEX
8
21_63000
10
27.79600
20
-86.06500
30
63.00000
0
VERTEX
8
21_63000
10
28.03400
20
-85.82401
30
63.00000
0
VERTEX
8
21_63000
10
28.34600
20
-85.48801
30
63.00000
0
VERTEX
8
21_63000
10
28.57500
20
-85.21800
30
63.00000
0
VERTEX
8
21_63000
10
28.60100
20
-85.14800
30
63.00000
0
VERTEX
8
21_63000
10
28.55400
20
-84.93700
30
63.00000
0
VERTEX
8
21_63000
10
28.66000
20
-84.81200
30
63.00000
0
VERTEX
8
21_63000
10
28.68100
20
-84.65301
30
63.00000
0
VERTEX
8
21_63000
10
28.91700
20
-84.20801
30
63.00000
0
VERTEX
8
21_63000
10
28.96300
20
-84.03600
30
63.00000
0
VERTEX
8
21_63000
10
29.14300
20
-83.61401
30
63.00000
0
VERTEX
8
21_63000
10
29.26800
20
-83.41801
30
63.00000
0
VERTEX
8
21_63000
10
29.35800
20
-83.24200
30
63.00000
0
VERTEX
8
21_63000
10
29.85400
20
-82.18201
30
63.00000
0
VERTEX
8
21_63000
10
29.92000
20
-82.05901
30
63.00000
0
VERTEX
8
21_63000
10
29.94700
20
-81.95700
30
63.00000
0
VERTEX
8
21_63000
10
30.32800
20
-80.88000
30
63.00000
0
VERTEX
8
21_63000
10
30.56400
20
-80.36301
30
63.00000
0
VERTEX
8
21_63000
10
30.69900
20
-80.19000
30
63.00000
0
VERTEX
8
21_63000
10
30.89700
20
-79.79501
30
63.00000
0
VERTEX
8
21_63000
10
30.96700
20
-79.69100
30
63.00000
0
VERTEX
8
21_63000
10
30.90700
20
-79.05701
30
63.00000
0
VERTEX
8
21_63000
10
30.93100
20
-78.89301
30
63.00000
0
VERTEX
8
21_63000
10
30.91000
20
-78.32101
30
63.00000
0
VERTEX
8
21_63000
10
30.92200
20
-78.19000
30
63.00000
0
VERTEX
8
21_63000
10
31.07100
20
-77.72200
30
63.00000
0
VERTEX
8
21_63000
10
31.10400
20
-77.57600
30
63.00000
0
VERTEX
8
21_63000
10
31.07100
20
-77.44601
30
63.00000
0
VERTEX
8
21_63000
10
31.17100
20
-76.99400
30
63.00000
0
VERTEX
8
21_63000
10
31.21000
20
-76.58200
30
63.00000
0
VERTEX
8
21_63000
10
31.25200
20
-76.48600
30
63.00000
0
VERTEX
8
21_63000
10
31.21800
20
-75.96600
30
63.00000
0
VERTEX
8
21_63000
10
31.18500
20
-75.84200
30
63.00000
0
VERTEX
8
21_63000
10
31.24700
20
-75.52200
30
63.00000
0
VERTEX
8
21_63000
10
31.22800
20
-75.38800
30
63.00000
0
VERTEX
8
21_63000
10
31.28800
20
-74.57900
30
63.00000
0
VERTEX
8
21_63000
10
31.21000
20
-74.46900
30
63.00000
0
VERTEX
8
21_63000
10
31.19900
20
-74.38300
30
63.00000
0
VERTEX
8
21_63000
10
31.36100
20
-73.68900
30
63.00000
0
VERTEX
8
21_63000
10
31.36400
20
-73.46700
30
63.00000
0
VERTEX
8
21_63000
10
31.39500
20
-73.11401
30
63.00000
0
VERTEX
8
21_63000
10
31.41500
20
-72.74800
30
63.00000
0
VERTEX
8
21_63000
10
31.40300
20
-72.66000
30
63.00000
0
VERTEX
8
21_63000
10
31.44200
20
-72.39400
30
63.00000
0
VERTEX
8
21_63000
10
31.44200
20
-72.21800
30
63.00000
0
VERTEX
8
21_63000
10
31.40600
20
-72.13400
30
63.00000
0
VERTEX
8
21_63000
10
31.39700
20
-71.95400
30
63.00000
0
VERTEX
8
21_63000
10
31.36500
20
-71.68000
30
63.00000
0
VERTEX
8
21_63000
10
31.35500
20
-70.60900
30
63.00000
0
VERTEX
8
21_63000
10
31.37200
20
-70.33000
30
63.00000
0
VERTEX
8
21_63000
10
31.38700
20
-69.40601
30
63.00000
0
VERTEX
8
21_63000
10
31.38000
20
-69.10101
30
63.00000
0
VERTEX
8
21_63000
10
31.36200
20
-69.05801
30
63.00000
0
VERTEX
8
21_63000
10
31.42700
20
-67.24100
30
63.00000
0
VERTEX
8
21_63000
10
31.42900
20
-66.79800
30
63.00000
0
VERTEX
8
21_63000
10
31.46200
20
-66.39600
30
63.00000
0
VERTEX
8
21_63000
10
31.50600
20
-66.16600
30
63.00000
0
VERTEX
8
21_63000
10
31.52500
20
-65.82500
30
63.00000
0
VERTEX
8
21_63000
10
31.60300
20
-64.82700
30
63.00000
0
VERTEX
8
21_63000
10
31.57600
20
-64.62500
30
63.00000
0
VERTEX
8
21_63000
10
31.58500
20
-64.27600
30
63.00000
0
VERTEX
8
21_63000
10
31.61000
20
-64.03300
30
63.00000
0
VERTEX
8
21_63000
10
31.79300
20
-62.97100
30
63.00000
0
VERTEX
8
21_63000
10
31.79800
20
-62.48000
30
63.00000
0
VERTEX
8
21_63000
10
31.82700
20
-62.35000
30
63.00000
0
VERTEX
8
21_63000
10
31.58900
20
-61.09500
30
63.00000
0
VERTEX
8
21_63000
10
31.54700
20
-60.91800
30
63.00000
0
VERTEX
8
21_63000
10
31.43400
20
-60.58200
30
63.00000
0
VERTEX
8
21_63000
10
31.34800
20
-59.67600
30
63.00000
0
VERTEX
8
21_63000
10
31.28700
20
-58.64700
30
63.00000
0
VERTEX
8
21_63000
10
31.29100
20
-58.15100
30
63.00000
0
VERTEX
8
21_63000
10
31.22900
20
-57.74500
30
63.00000
0
VERTEX
8
21_63000
10
31.12600
20
-56.28000
30
63.00000
0
VERTEX
8
21_63000
10
31.07500
20
-55.15500
30
63.00000
0
VERTEX
8
21_63000
10
31.05100
20
-53.84400
30
63.00000
0
VERTEX
8
21_63000
10
31.08000
20
-53.29600
30
63.00000
0
VERTEX
8
21_63000
10
31.18100
20
-52.50500
30
63.00000
0
VERTEX
8
21_63000
10
31.34200
20
-51.42600
30
63.00000
0
VERTEX
8
21_63000
10
31.39100
20
-51.21000
30
63.00000
0
VERTEX
8
21_63000
10
31.47300
20
-50.99200
30
63.00000
0
VERTEX
8
21_63000
10
31.74500
20
-49.79300
30
63.00000
0
VERTEX
8
21_63000
10
31.91300
20
-49.35200
30
63.00000
0
VERTEX
8
21_63000
10
32.14600
20
-48.51600
30
63.00000
0
VERTEX
8
21_63000
10
32.74900
20
-47.05500
30
63.00000
0
VERTEX
8
21_63000
10
32.99300
20
-46.20800
30
63.00000
0
VERTEX
8
21_63000
10
33.03100
20
-45.80700
30
63.00000
0
VERTEX
8
21_63000
10
33.12600
20
-45.40700
30
63.00000
0
VERTEX
8
21_63000
10
33.25700
20
-45.02500
30
63.00000
0
VERTEX
8
21_63000
10
33.40300
20
-44.80200
30
63.00000
0
VERTEX
8
21_63000
10
33.77900
20
-43.88600
30
63.00000
0
VERTEX
8
21_63000
10
33.90400
20
-43.42800
30
63.00000
0
VERTEX
8
21_63000
10
34.02300
20
-42.93500
30
63.00000
0
VERTEX
8
21_63000
10
34.38000
20
-42.28300
30
63.00000
0
VERTEX
8
21_63000
10
34.42600
20
-42.21800
30
63.00000
0
VERTEX
8
21_63000
10
34.54000
20
-41.89600
30
63.00000
0
VERTEX
8
21_63000
10
34.65000
20
-41.41500
30
63.00000
0
VERTEX
8
21_63000
10
34.77600
20
-40.62600
30
63.00000
0
VERTEX
8
21_63000
10
34.89900
20
-40.14000
30
63.00000
0
VERTEX
8
21_63000
10
35.14200
20
-38.65400
30
63.00000
0
VERTEX
8
21_63000
10
35.14700
20
-38.59400
30
63.00000
0
VERTEX
8
21_63000
10
35.13200
20
-37.48900
30
63.00000
0
VERTEX
8
21_63000
10
35.34200
20
-35.85000
30
63.00000
0
VERTEX
8
21_63000
10
35.57200
20
-34.37800
30
63.00000
0
VERTEX
8
21_63000
10
35.60000
20
-33.59500
30
63.00000
0
VERTEX
8
21_63000
10
35.53400
20
-32.40600
30
63.00000
0
VERTEX
8
21_63000
10
35.46300
20
-31.44500
30
63.00000
0
VERTEX
8
21_63000
10
35.34400
20
-30.55500
30
63.00000
0
VERTEX
8
21_63000
10
35.23400
20
-29.95500
30
63.00000
0
VERTEX
8
21_63000
10
34.86400
20
-28.24700
30
63.00000
0
VERTEX
8
21_63000
10
33.98100
20
-24.79000
30
63.00000
0
VERTEX
8
21_63000
10
33.92900
20
-24.34500
30
63.00000
0
VERTEX
8
21_63000
10
33.86900
20
-24.09600
30
63.00000
0
VERTEX
8
21_63000
10
33.86400
20
-23.39400
30
63.00000
0
VERTEX
8
21_63000
10
33.89600
20
-23.29200
30
63.00000
0
VERTEX
8
21_63000
10
34.32400
20
-22.72200
30
63.00000
0
VERTEX
8
21_63000
10
34.38900
20
-22.54500
30
63.00000
0
VERTEX
8
21_63000
10
35.36800
20
-21.29200
30
63.00000
0
VERTEX
8
21_63000
10
35.45600
20
-21.15100
30
63.00000
0
VERTEX
8
21_63000
10
35.99100
20
-20.11800
30
63.00000
0
VERTEX
8
21_63000
10
36.05400
20
-19.98300
30
63.00000
0
VERTEX
8
21_63000
10
36.58500
20
-18.63800
30
63.00000
0
VERTEX
8
21_63000
10
36.88800
20
-17.84200
30
63.00000
0
VERTEX
8
21_63000
10
37.06000
20
-17.48700
30
63.00000
0
VERTEX
8
21_63000
10
37.14700
20
-17.27000
30
63.00000
0
VERTEX
8
21_63000
10
37.47500
20
-15.86300
30
63.00000
0
VERTEX
8
21_63000
10
37.59000
20
-12.83900
30
63.00000
0
VERTEX
8
21_63000
10
37.60900
20
-12.63700
30
63.00000
0
VERTEX
8
21_63000
10
37.77000
20
-11.68300
30
63.00000
0
VERTEX
8
21_63000
10
37.89300
20
-11.33500
30
63.00000
0
VERTEX
8
21_63000
10
38.11400
20
-10.05500
30
63.00000
0
VERTEX
8
21_63000
10
38.20600
20
-9.74700
30
63.00000
0
VERTEX
8
21_63000
10
38.49500
20
-8.88500
30
63.00000
0
VERTEX
8
21_63000
10
38.51300
20
-8.46400
30
63.00000
0
VERTEX
8
21_63000
10
38.51200
20
-8.19300
30
63.00000
0
VERTEX
8
21_63000
10
38.48700
20
-8.00600
30
63.00000
0
VERTEX
8
21_63000
10
38.44900
20
-7.53300
30
63.00000
0
VERTEX
8
21_63000
10
38.31600
20
-7.15900
30
63.00000
0
VERTEX
8
21_63000
10
38.37000
20
-6.83100
30
63.00000
0
VERTEX
8
21_63000
10
38.37200
20
-6.75300
30
63.00000
0
VERTEX
8
21_63000
10
38.33000
20
-6.24000
30
63.00000
0
VERTEX
8
21_63000
10
38.05100
20
-4.42700
30
63.00000
0
VERTEX
8
21_63000
10
37.99700
20
-4.18800
30
63.00000
0
VERTEX
8
21_63000
10
38.03300
20
-3.32600
30
63.00000
0
VERTEX
8
21_63000
10
38.13800
20
-2.36000
30
63.00000
0
VERTEX
8
21_63000
10
38.08900
20
-1.73500
30
63.00000
0
VERTEX
8
21_63000
10
38.06600
20
-1.58500
30
63.00000
0
VERTEX
8
21_63000
10
38.06200
20
-1.19100
30
63.00000
0
VERTEX
8
21_63000
10
38.25300
20
-0.18700
30
63.00000
0
VERTEX
8
21_63000
10
39.02500
20
1.93000
30
63.00000
0
VERTEX
8
21_63000
10
39.14300
20
2.28900
30
63.00000
0
VERTEX
8
21_63000
10
39.39700
20
3.39600
30
63.00000
0
VERTEX
8
21_63000
10
39.41300
20
3.58400
30
63.00000
0
VERTEX
8
21_63000
10
39.55100
20
4.73500
30
63.00000
0
VERTEX
8
21_63000
10
39.63500
20
5.30100
30
63.00000
0
VERTEX
8
21_63000
10
39.87300
20
5.84100
30
63.00000
0
VERTEX
8
21_63000
10
39.89100
20
5.90500
30
63.00000
0
VERTEX
8
21_63000
10
39.92200
20
5.97200
30
63.00000
0
VERTEX
8
21_63000
10
40.60400
20
6.68300
30
63.00000
0
VERTEX
8
21_63000
10
42.25800
20
7.79600
30
63.00000
0
VERTEX
8
21_63000
10
43.05500
20
8.24700
30
63.00000
0
VERTEX
8
21_63000
10
43.58500
20
8.66500
30
63.00000
0
VERTEX
8
21_63000
10
44.84400
20
9.49700
30
63.00000
0
VERTEX
8
21_63000
10
45.35000
20
9.84900
30
63.00000
0
VERTEX
8
21_63000
10
45.71900
20
10.23500
30
63.00000
0
VERTEX
8
21_63000
10
46.05500
20
10.50000
30
63.00000
0
VERTEX
8
21_63000
10
46.45300
20
10.98700
30
63.00000
0
VERTEX
8
21_63000
10
47.03900
20
11.54800
30
63.00000
0
VERTEX
8
21_63000
10
47.24900
20
11.89200
30
63.00000
0
VERTEX
8
21_63000
10
47.49700
20
12.20500
30
63.00000
0
VERTEX
8
21_63000
10
47.59700
20
12.41400
30
63.00000
0
VERTEX
8
21_63000
10
47.86200
20
13.03200
30
63.00000
0
VERTEX
8
21_63000
10
48.41700
20
14.17300
30
63.00000
0
VERTEX
8
21_63000
10
48.47200
20
14.56300
30
63.00000
0
VERTEX
8
21_63000
10
48.58200
20
15.73900
30
63.00000
0
VERTEX
8
21_63000
10
48.59600
20
16.39400
30
63.00000
0
VERTEX
8
21_63000
10
48.38100
20
17.74800
30
63.00000
0
VERTEX
8
21_63000
10
48.32900
20
18.00800
30
63.00000
0
VERTEX
8
21_63000
10
48.15100
20
18.77600
30
63.00000
0
VERTEX
8
21_63000
10
47.94700
20
19.26200
30
63.00000
0
VERTEX
8
21_63000
10
47.36200
20
20.96400
30
63.00000
0
VERTEX
8
21_63000
10
46.87600
20
22.01600
30
63.00000
0
VERTEX
8
21_63000
10
46.48100
20
22.72900
30
63.00000
0
VERTEX
8
21_63000
10
45.36700
20
24.65100
30
63.00000
0
VERTEX
8
21_63000
10
44.59400
20
25.88000
30
63.00000
0
VERTEX
8
21_63000
10
43.97500
20
26.78600
30
63.00000
0
VERTEX
8
21_63000
10
42.93200
20
28.07400
30
63.00000
0
VERTEX
8
21_63000
10
41.91500
20
29.36600
30
63.00000
0
VERTEX
8
21_63000
10
40.02700
20
31.82000
30
63.00000
0
VERTEX
8
21_63000
10
39.15000
20
33.34100
30
63.00000
0
VERTEX
8
21_63000
10
38.14900
20
34.94800
30
63.00000
0
VERTEX
8
21_63000
10
37.62600
20
36.11700
30
63.00000
0
VERTEX
8
21_63000
10
37.34300
20
36.58200
30
63.00000
0
VERTEX
8
21_63000
10
37.00900
20
37.32200
30
63.00000
0
VERTEX
8
21_63000
10
36.04500
20
39.83100
30
63.00000
0
VERTEX
8
21_63000
10
34.59900
20
44.52900
30
63.00000
0
VERTEX
8
21_63000
10
34.40600
20
45.37300
30
63.00000
0
VERTEX
8
21_63000
10
34.05600
20
46.77100
30
63.00000
0
VERTEX
8
21_63000
10
33.97000
20
47.19100
30
63.00000
0
VERTEX
8
21_63000
10
33.94000
20
47.52500
30
63.00000
0
VERTEX
8
21_63000
10
33.65700
20
49.10200
30
63.00000
0
VERTEX
8
21_63000
10
33.59700
20
50.78000
30
63.00000
0
VERTEX
8
21_63000
10
33.61900
20
51.22900
30
63.00000
0
VERTEX
8
21_63000
10
33.69700
20
51.60700
30
63.00000
0
VERTEX
8
21_63000
10
33.85700
20
53.06100
30
63.00000
0
VERTEX
8
21_63000
10
34.22400
20
53.95600
30
63.00000
0
VERTEX
8
21_63000
10
34.57400
20
55.14400
30
63.00000
0
VERTEX
8
21_63000
10
34.67800
20
55.36500
30
63.00000
0
VERTEX
8
21_63000
10
34.93800
20
56.09300
30
63.00000
0
VERTEX
8
21_63000
10
35.36500
20
57.64700
30
63.00000
0
VERTEX
8
21_63000
10
35.49500
20
58.18700
30
63.00000
0
VERTEX
8
21_63000
10
35.76700
20
59.09300
30
63.00000
0
VERTEX
8
21_63000
10
36.01500
20
59.69000
30
63.00000
0
VERTEX
8
21_63000
10
36.21800
20
60.41000
30
63.00000
0
VERTEX
8
21_63000
10
36.89900
20
62.28300
30
63.00000
0
VERTEX
8
21_63000
10
37.80000
20
64.64101
30
63.00000
0
VERTEX
8
21_63000
10
38.08000
20
65.40100
30
63.00000
0
VERTEX
8
21_63000
10
38.64600
20
67.27000
30
63.00000
0
VERTEX
8
21_63000
10
38.81500
20
67.93501
30
63.00000
0
VERTEX
8
21_63000
10
39.01300
20
69.07401
30
63.00000
0
VERTEX
8
21_63000
10
39.11500
20
69.93600
30
63.00000
0
VERTEX
8
21_63000
10
39.24300
20
70.76200
30
63.00000
0
VERTEX
8
21_63000
10
39.32000
20
71.68201
30
63.00000
0
VERTEX
8
21_63000
10
39.41000
20
72.57000
30
63.00000
0
VERTEX
8
21_63000
10
39.39600
20
73.32401
30
63.00000
0
VERTEX
8
21_63000
10
39.45100
20
74.50301
30
63.00000
0
VERTEX
8
21_63000
10
39.36200
20
75.48801
30
63.00000
0
VERTEX
8
21_63000
10
39.32700
20
76.27901
30
63.00000
0
VERTEX
8
21_63000
10
39.10500
20
77.57101
30
63.00000
0
VERTEX
8
21_63000
10
38.89700
20
78.63000
30
63.00000
0
VERTEX
8
21_63000
10
38.66700
20
79.31400
30
63.00000
0
VERTEX
8
21_63000
10
38.39300
20
80.17200
30
63.00000
0
VERTEX
8
21_63000
10
37.86300
20
81.39301
30
63.00000
0
VERTEX
8
21_63000
10
36.76900
20
84.14101
30
63.00000
0
VERTEX
8
21_63000
10
36.56000
20
84.52700
30
63.00000
0
VERTEX
8
21_63000
10
36.29100
20
84.95600
30
63.00000
0
VERTEX
8
21_63000
10
35.80500
20
85.83701
30
63.00000
0
VERTEX
8
21_63000
10
13.70400
20
89.52701
30
63.00000
0
VERTEX
8
21_63000
10
-56.17000
20
89.52701
30
63.00000
0
VERTEX
8
21_63000
10
-56.17000
20
-12.47700
30
63.00000
0
SEQEND
8
21_63000
0
POLYLINE
8
21_63000
62
5
0
VERTEX
8
21_63000
10
11.32400
20
89.92101
30
63.00000
0
VERTEX
8
21_63000
10
7.79700
20
90.51000
30
63.00000
0
VERTEX
8
21_63000
10
-56.17000
20
90.51000
30
63.00000
0
VERTEX
8
21_63000
10
-56.17000
20
89.52701
30
63.00000
0
VERTEX
8
21_63000
10
13.69800
20
89.52701
30
63.00000
0
VERTEX
8
21_63000
10
11.32400
20
89.92101
30
63.00000
0
SEQEND
8
21_63000
0
ENDSEC
0
EOF
