0
SECTION
2
HEADER
9
$ACADVER
1
AC1009
0
ENDSEC
0
SECTION
2
TABLES
0
TABLE
2
LAYER
70
1
0
LAYER
2
19_57000
70
0
62
7
6
CONTINUOUS
0
ENDTAB
0
ENDSEC
0
SECTION
2
BLOCKS
0
ENDSEC
0
SECTION
2
ENTITIES
0
POLYLINE
8
19_57000
62
5
0
VERTEX
8
19_57000
10
-33.55100
20
91.53900
30
57.00000
0
VERTEX
8
19_57000
10
1.63300
20
91.53900
30
57.00000
0
VERTEX
8
19_57000
10
1.40800
20
91.57800
30
57.00000
0
VERTEX
8
19_57000
10
-56.17000
20
91.57800
30
57.00000
0
VERTEX
8
19_57000
10
-56.17000
20
91.53900
30
57.00000
0
VERTEX
8
19_57000
10
-33.55100
20
91.53900
30
57.00000
0
SEQEND
8
19_57000
0
POLYLINE
8
19_57000
62
5
0
VERTEX
8
19_57000
10
-33.19600
20
91.48701
30
57.00000
0
VERTEX
8
19_57000
10
1.94200
20
91.48701
30
57.00000
0
VERTEX
8
19_57000
10
1.65000
20
91.53700
30
57.00000
0
VERTEX
8
19_57000
10
-56.17000
20
91.53700
30
57.00000
0
VERTEX
8
19_57000
10
-56.17000
20
91.48701
30
57.00000
0
VERTEX
8
19_57000
10
-33.19600
20
91.48701
30
57.00000
0
SEQEND
8
19_57000
0
POLYLINE
8
19_57000
62
5
0
VERTEX
8
19_57000
10
-32.50000
20
91.34100
30
57.00000
0
VERTEX
8
19_57000
10
2.82900
20
91.34100
30
57.00000
0
VERTEX
8
19_57000
10
1.95400
20
91.48601
30
57.00000
0
VERTEX
8
19_57000
10
-56.17000
20
91.48601
30
57.00000
0
VERTEX
8
19_57000
10
-56.17000
20
91.34100
30
57.00000
0
VERTEX
8
19_57000
10
-32.50000
20
91.34100
30
57.00000
0
SEQEND
8
19_57000
0
POLYLINE
8
19_57000
62
5
0
VERTEX
8
19_57000
10
-30.69000
20
90.59000
30
57.00000
0
VERTEX
8
19_57000
10
7.33100
20
90.59000
30
57.00000
0
VERTEX
8
19_57000
10
2.84200
20
91.33801
30
57.00000
0
VERTEX
8
19_57000
10
-56.17000
20
91.33801
30
57.00000
0
VERTEX
8
19_57000
10
-56.17000
20
90.59000
30
57.00000
0
VERTEX
8
19_57000
10
-30.69000
20
90.59000
30
57.00000
0
SEQEND
8
19_57000
0
POLYLINE
8
19_57000
62
5
0
VERTEX
8
19_57000
10
-56.17000
20
-13.55600
30
57.00000
0
VERTEX
8
19_57000
10
-56.17000
20
-92.11401
30
57.00000
0
VERTEX
8
19_57000
10
18.92000
20
-92.11401
30
57.00000
0
VERTEX
8
19_57000
10
18.97100
20
-91.61000
30
57.00000
0
VERTEX
8
19_57000
10
19.08500
20
-91.05501
30
57.00000
0
VERTEX
8
19_57000
10
19.14800
20
-90.89201
30
57.00000
0
VERTEX
8
19_57000
10
19.16700
20
-90.86401
30
57.00000
0
VERTEX
8
19_57000
10
19.23300
20
-90.79401
30
57.00000
0
VERTEX
8
19_57000
10
19.53400
20
-90.41901
30
57.00000
0
VERTEX
8
19_57000
10
20.65000
20
-89.46600
30
57.00000
0
VERTEX
8
19_57000
10
21.69300
20
-88.65301
30
57.00000
0
VERTEX
8
19_57000
10
22.79800
20
-87.75800
30
57.00000
0
VERTEX
8
19_57000
10
23.33200
20
-87.27700
30
57.00000
0
VERTEX
8
19_57000
10
24.70300
20
-86.12200
30
57.00000
0
VERTEX
8
19_57000
10
25.68100
20
-85.24200
30
57.00000
0
VERTEX
8
19_57000
10
26.13000
20
-84.69801
30
57.00000
0
VERTEX
8
19_57000
10
26.56900
20
-84.19200
30
57.00000
0
VERTEX
8
19_57000
10
26.60200
20
-84.13200
30
57.00000
0
VERTEX
8
19_57000
10
26.78300
20
-83.87000
30
57.00000
0
VERTEX
8
19_57000
10
26.97200
20
-83.39301
30
57.00000
0
VERTEX
8
19_57000
10
27.17300
20
-82.98400
30
57.00000
0
VERTEX
8
19_57000
10
27.61500
20
-81.96800
30
57.00000
0
VERTEX
8
19_57000
10
27.83400
20
-81.57900
30
57.00000
0
VERTEX
8
19_57000
10
28.02200
20
-81.10800
30
57.00000
0
VERTEX
8
19_57000
10
28.21000
20
-80.19701
30
57.00000
0
VERTEX
8
19_57000
10
28.35200
20
-79.63600
30
57.00000
0
VERTEX
8
19_57000
10
28.41900
20
-79.08801
30
57.00000
0
VERTEX
8
19_57000
10
28.46100
20
-78.81200
30
57.00000
0
VERTEX
8
19_57000
10
28.51800
20
-78.61501
30
57.00000
0
VERTEX
8
19_57000
10
28.68900
20
-77.94000
30
57.00000
0
VERTEX
8
19_57000
10
28.82400
20
-77.32001
30
57.00000
0
VERTEX
8
19_57000
10
29.00100
20
-76.40000
30
57.00000
0
VERTEX
8
19_57000
10
29.00900
20
-76.22200
30
57.00000
0
VERTEX
8
19_57000
10
29.17500
20
-75.33801
30
57.00000
0
VERTEX
8
19_57000
10
29.25400
20
-75.11000
30
57.00000
0
VERTEX
8
19_57000
10
29.30400
20
-74.80400
30
57.00000
0
VERTEX
8
19_57000
10
29.29100
20
-74.39201
30
57.00000
0
VERTEX
8
19_57000
10
29.46000
20
-73.50401
30
57.00000
0
VERTEX
8
19_57000
10
29.62600
20
-73.07700
30
57.00000
0
VERTEX
8
19_57000
10
29.59400
20
-72.85800
30
57.00000
0
VERTEX
8
19_57000
10
29.65700
20
-72.55100
30
57.00000
0
VERTEX
8
19_57000
10
29.55600
20
-72.37701
30
57.00000
0
VERTEX
8
19_57000
10
29.50900
20
-72.22501
30
57.00000
0
VERTEX
8
19_57000
10
29.51300
20
-72.02901
30
57.00000
0
VERTEX
8
19_57000
10
29.45500
20
-71.87901
30
57.00000
0
VERTEX
8
19_57000
10
29.45400
20
-71.73200
30
57.00000
0
VERTEX
8
19_57000
10
29.48100
20
-71.10800
30
57.00000
0
VERTEX
8
19_57000
10
29.47400
20
-70.66600
30
57.00000
0
VERTEX
8
19_57000
10
29.42900
20
-70.46900
30
57.00000
0
VERTEX
8
19_57000
10
29.33000
20
-69.85001
30
57.00000
0
VERTEX
8
19_57000
10
29.27900
20
-69.78500
30
57.00000
0
VERTEX
8
19_57000
10
29.30100
20
-69.47200
30
57.00000
0
VERTEX
8
19_57000
10
29.10900
20
-68.27000
30
57.00000
0
VERTEX
8
19_57000
10
29.02600
20
-68.05801
30
57.00000
0
VERTEX
8
19_57000
10
28.92100
20
-67.60300
30
57.00000
0
VERTEX
8
19_57000
10
28.78800
20
-66.56100
30
57.00000
0
VERTEX
8
19_57000
10
28.71500
20
-65.92300
30
57.00000
0
VERTEX
8
19_57000
10
28.64100
20
-65.08100
30
57.00000
0
VERTEX
8
19_57000
10
28.56200
20
-64.63000
30
57.00000
0
VERTEX
8
19_57000
10
28.55200
20
-64.52000
30
57.00000
0
VERTEX
8
19_57000
10
28.29400
20
-63.72000
30
57.00000
0
VERTEX
8
19_57000
10
28.16700
20
-62.90300
30
57.00000
0
VERTEX
8
19_57000
10
28.13600
20
-62.64100
30
57.00000
0
VERTEX
8
19_57000
10
28.04300
20
-62.24300
30
57.00000
0
VERTEX
8
19_57000
10
28.03200
20
-61.90000
30
57.00000
0
VERTEX
8
19_57000
10
28.03900
20
-60.46700
30
57.00000
0
VERTEX
8
19_57000
10
28.21500
20
-59.51300
30
57.00000
0
VERTEX
8
19_57000
10
28.28500
20
-58.94600
30
57.00000
0
VERTEX
8
19_57000
10
28.28300
20
-58.85600
30
57.00000
0
VERTEX
8
19_57000
10
28.29800
20
-58.67700
30
57.00000
0
VERTEX
8
19_57000
10
28.22700
20
-57.94800
30
57.00000
0
VERTEX
8
19_57000
10
28.16800
20
-57.22600
30
57.00000
0
VERTEX
8
19_57000
10
28.14600
20
-55.30900
30
57.00000
0
VERTEX
8
19_57000
10
28.21600
20
-53.65000
30
57.00000
0
VERTEX
8
19_57000
10
28.27300
20
-52.50900
30
57.00000
0
VERTEX
8
19_57000
10
28.27600
20
-52.10800
30
57.00000
0
VERTEX
8
19_57000
10
28.42500
20
-50.82100
30
57.00000
0
VERTEX
8
19_57000
10
28.60600
20
-49.55500
30
57.00000
0
VERTEX
8
19_57000
10
28.72300
20
-48.94100
30
57.00000
0
VERTEX
8
19_57000
10
28.88200
20
-47.91400
30
57.00000
0
VERTEX
8
19_57000
10
29.60200
20
-45.31200
30
57.00000
0
VERTEX
8
19_57000
10
29.81100
20
-44.47800
30
57.00000
0
VERTEX
8
19_57000
10
29.91600
20
-43.30200
30
57.00000
0
VERTEX
8
19_57000
10
30.21500
20
-42.02600
30
57.00000
0
VERTEX
8
19_57000
10
30.26800
20
-41.75600
30
57.00000
0
VERTEX
8
19_57000
10
30.50700
20
-40.82500
30
57.00000
0
VERTEX
8
19_57000
10
30.72700
20
-39.75400
30
57.00000
0
VERTEX
8
19_57000
10
30.87600
20
-38.69500
30
57.00000
0
VERTEX
8
19_57000
10
31.10000
20
-37.76600
30
57.00000
0
VERTEX
8
19_57000
10
31.15700
20
-37.44400
30
57.00000
0
VERTEX
8
19_57000
10
31.25400
20
-36.68400
30
57.00000
0
VERTEX
8
19_57000
10
31.32700
20
-35.67800
30
57.00000
0
VERTEX
8
19_57000
10
31.31600
20
-35.31700
30
57.00000
0
VERTEX
8
19_57000
10
31.32800
20
-35.27600
30
57.00000
0
VERTEX
8
19_57000
10
31.39700
20
-33.87200
30
57.00000
0
VERTEX
8
19_57000
10
31.39800
20
-33.58900
30
57.00000
0
VERTEX
8
19_57000
10
31.42200
20
-33.32200
30
57.00000
0
VERTEX
8
19_57000
10
31.38400
20
-32.02000
30
57.00000
0
VERTEX
8
19_57000
10
31.30200
20
-31.45100
30
57.00000
0
VERTEX
8
19_57000
10
31.01700
20
-29.70000
30
57.00000
0
VERTEX
8
19_57000
10
30.88000
20
-29.15400
30
57.00000
0
VERTEX
8
19_57000
10
30.38200
20
-27.30400
30
57.00000
0
VERTEX
8
19_57000
10
30.17900
20
-26.67100
30
57.00000
0
VERTEX
8
19_57000
10
29.78600
20
-25.07800
30
57.00000
0
VERTEX
8
19_57000
10
29.71300
20
-24.37500
30
57.00000
0
VERTEX
8
19_57000
10
29.66400
20
-23.49200
30
57.00000
0
VERTEX
8
19_57000
10
29.70200
20
-23.31300
30
57.00000
0
VERTEX
8
19_57000
10
29.89800
20
-23.03500
30
57.00000
0
VERTEX
8
19_57000
10
29.94200
20
-22.94400
30
57.00000
0
VERTEX
8
19_57000
10
30.13600
20
-22.74300
30
57.00000
0
VERTEX
8
19_57000
10
31.74400
20
-20.97000
30
57.00000
0
VERTEX
8
19_57000
10
32.48100
20
-20.00000
30
57.00000
0
VERTEX
8
19_57000
10
33.22600
20
-18.85200
30
57.00000
0
VERTEX
8
19_57000
10
34.50000
20
-16.81600
30
57.00000
0
VERTEX
8
19_57000
10
34.79700
20
-16.26000
30
57.00000
0
VERTEX
8
19_57000
10
34.97400
20
-15.83600
30
57.00000
0
VERTEX
8
19_57000
10
35.19100
20
-15.01200
30
57.00000
0
VERTEX
8
19_57000
10
35.27300
20
-14.57100
30
57.00000
0
VERTEX
8
19_57000
10
35.29700
20
-14.49500
30
57.00000
0
VERTEX
8
19_57000
10
35.46000
20
-13.25300
30
57.00000
0
VERTEX
8
19_57000
10
35.45000
20
-12.81600
30
57.00000
0
VERTEX
8
19_57000
10
35.38900
20
-12.46900
30
57.00000
0
VERTEX
8
19_57000
10
35.30100
20
-12.10300
30
57.00000
0
VERTEX
8
19_57000
10
35.25300
20
-11.71300
30
57.00000
0
VERTEX
8
19_57000
10
35.17000
20
-11.37100
30
57.00000
0
VERTEX
8
19_57000
10
35.14800
20
-11.15400
30
57.00000
0
VERTEX
8
19_57000
10
35.02900
20
-10.50300
30
57.00000
0
VERTEX
8
19_57000
10
34.72800
20
-9.03000
30
57.00000
0
VERTEX
8
19_57000
10
34.66000
20
-8.53300
30
57.00000
0
VERTEX
8
19_57000
10
34.67100
20
-7.98000
30
57.00000
0
VERTEX
8
19_57000
10
34.62900
20
-7.60100
30
57.00000
0
VERTEX
8
19_57000
10
34.62800
20
-7.37000
30
57.00000
0
VERTEX
8
19_57000
10
34.30400
20
-6.07900
30
57.00000
0
VERTEX
8
19_57000
10
34.16000
20
-4.64800
30
57.00000
0
VERTEX
8
19_57000
10
34.07900
20
-4.27400
30
57.00000
0
VERTEX
8
19_57000
10
33.95700
20
-3.95100
30
57.00000
0
VERTEX
8
19_57000
10
33.79800
20
-3.45600
30
57.00000
0
VERTEX
8
19_57000
10
33.54900
20
-2.45900
30
57.00000
0
VERTEX
8
19_57000
10
32.93300
20
-0.61800
30
57.00000
0
VERTEX
8
19_57000
10
32.71600
20
0.78400
30
57.00000
0
VERTEX
8
19_57000
10
32.77200
20
2.66100
30
57.00000
0
VERTEX
8
19_57000
10
32.87100
20
3.07000
30
57.00000
0
VERTEX
8
19_57000
10
32.96400
20
3.57000
30
57.00000
0
VERTEX
8
19_57000
10
32.97900
20
3.61600
30
57.00000
0
VERTEX
8
19_57000
10
33.42400
20
4.24500
30
57.00000
0
VERTEX
8
19_57000
10
33.61600
20
4.44900
30
57.00000
0
VERTEX
8
19_57000
10
34.81900
20
5.37300
30
57.00000
0
VERTEX
8
19_57000
10
36.49200
20
6.62100
30
57.00000
0
VERTEX
8
19_57000
10
37.04200
20
7.06600
30
57.00000
0
VERTEX
8
19_57000
10
38.00900
20
8.11700
30
57.00000
0
VERTEX
8
19_57000
10
38.35500
20
8.55300
30
57.00000
0
VERTEX
8
19_57000
10
38.88500
20
9.32400
30
57.00000
0
VERTEX
8
19_57000
10
39.32200
20
10.12300
30
57.00000
0
VERTEX
8
19_57000
10
39.38800
20
10.22400
30
57.00000
0
VERTEX
8
19_57000
10
39.69200
20
10.75000
30
57.00000
0
VERTEX
8
19_57000
10
39.71600
20
10.83600
30
57.00000
0
VERTEX
8
19_57000
10
39.78000
20
11.15100
30
57.00000
0
VERTEX
8
19_57000
10
40.02200
20
13.12100
30
57.00000
0
VERTEX
8
19_57000
10
40.02900
20
13.33100
30
57.00000
0
VERTEX
8
19_57000
10
39.98800
20
13.66700
30
57.00000
0
VERTEX
8
19_57000
10
39.90000
20
14.63700
30
57.00000
0
VERTEX
8
19_57000
10
39.77700
20
15.20400
30
57.00000
0
VERTEX
8
19_57000
10
39.28200
20
17.21000
30
57.00000
0
VERTEX
8
19_57000
10
38.91700
20
18.09800
30
57.00000
0
VERTEX
8
19_57000
10
38.52400
20
18.83200
30
57.00000
0
VERTEX
8
19_57000
10
38.49300
20
18.91400
30
57.00000
0
VERTEX
8
19_57000
10
37.99100
20
19.87900
30
57.00000
0
VERTEX
8
19_57000
10
37.17900
20
21.82300
30
57.00000
0
VERTEX
8
19_57000
10
36.74800
20
23.10400
30
57.00000
0
VERTEX
8
19_57000
10
36.52700
20
23.66800
30
57.00000
0
VERTEX
8
19_57000
10
36.35300
20
24.20600
30
57.00000
0
VERTEX
8
19_57000
10
36.07500
20
25.13700
30
57.00000
0
VERTEX
8
19_57000
10
36.03200
20
25.40200
30
57.00000
0
VERTEX
8
19_57000
10
35.98600
20
25.55800
30
57.00000
0
VERTEX
8
19_57000
10
35.45900
20
27.03100
30
57.00000
0
VERTEX
8
19_57000
10
35.26100
20
27.62000
30
57.00000
0
VERTEX
8
19_57000
10
34.67200
20
29.13000
30
57.00000
0
VERTEX
8
19_57000
10
34.25800
20
30.25300
30
57.00000
0
VERTEX
8
19_57000
10
34.12600
20
30.55700
30
57.00000
0
VERTEX
8
19_57000
10
33.80300
20
31.41200
30
57.00000
0
VERTEX
8
19_57000
10
32.79900
20
34.23200
30
57.00000
0
VERTEX
8
19_57000
10
31.45900
20
37.89400
30
57.00000
0
VERTEX
8
19_57000
10
31.00000
20
38.85600
30
57.00000
0
VERTEX
8
19_57000
10
30.66500
20
39.67900
30
57.00000
0
VERTEX
8
19_57000
10
30.36500
20
40.44200
30
57.00000
0
VERTEX
8
19_57000
10
29.95900
20
42.04300
30
57.00000
0
VERTEX
8
19_57000
10
29.84500
20
42.53100
30
57.00000
0
VERTEX
8
19_57000
10
29.66400
20
43.53700
30
57.00000
0
VERTEX
8
19_57000
10
29.59300
20
44.56000
30
57.00000
0
VERTEX
8
19_57000
10
29.54800
20
46.80000
30
57.00000
0
VERTEX
8
19_57000
10
29.34200
20
47.97800
30
57.00000
0
VERTEX
8
19_57000
10
29.06300
20
48.89100
30
57.00000
0
VERTEX
8
19_57000
10
28.80300
20
50.10600
30
57.00000
0
VERTEX
8
19_57000
10
28.80300
20
50.16500
30
57.00000
0
VERTEX
8
19_57000
10
28.85700
20
50.45300
30
57.00000
0
VERTEX
8
19_57000
10
28.91300
20
50.56500
30
57.00000
0
VERTEX
8
19_57000
10
29.02300
20
50.92100
30
57.00000
0
VERTEX
8
19_57000
10
29.02500
20
51.21200
30
57.00000
0
VERTEX
8
19_57000
10
29.01000
20
51.50000
30
57.00000
0
VERTEX
8
19_57000
10
29.09300
20
51.81600
30
57.00000
0
VERTEX
8
19_57000
10
29.07700
20
52.20300
30
57.00000
0
VERTEX
8
19_57000
10
29.19900
20
53.02900
30
57.00000
0
VERTEX
8
19_57000
10
29.19800
20
53.10000
30
57.00000
0
VERTEX
8
19_57000
10
29.24600
20
53.24500
30
57.00000
0
VERTEX
8
19_57000
10
29.25500
20
53.32100
30
57.00000
0
VERTEX
8
19_57000
10
29.35900
20
53.58500
30
57.00000
0
VERTEX
8
19_57000
10
29.50300
20
53.90100
30
57.00000
0
VERTEX
8
19_57000
10
29.81300
20
54.34500
30
57.00000
0
VERTEX
8
19_57000
10
30.28100
20
54.94000
30
57.00000
0
VERTEX
8
19_57000
10
30.55100
20
55.25600
30
57.00000
0
VERTEX
8
19_57000
10
31.24200
20
56.17800
30
57.00000
0
VERTEX
8
19_57000
10
31.99700
20
57.58600
30
57.00000
0
VERTEX
8
19_57000
10
32.90800
20
59.10200
30
57.00000
0
VERTEX
8
19_57000
10
33.29400
20
59.69200
30
57.00000
0
VERTEX
8
19_57000
10
34.07700
20
60.80600
30
57.00000
0
VERTEX
8
19_57000
10
34.69700
20
61.77100
30
57.00000
0
VERTEX
8
19_57000
10
35.91600
20
63.57800
30
57.00000
0
VERTEX
8
19_57000
10
36.83800
20
65.14400
30
57.00000
0
VERTEX
8
19_57000
10
37.49300
20
66.45600
30
57.00000
0
VERTEX
8
19_57000
10
38.18900
20
68.06900
30
57.00000
0
VERTEX
8
19_57000
10
38.58300
20
69.17001
30
57.00000
0
VERTEX
8
19_57000
10
38.65500
20
69.43201
30
57.00000
0
VERTEX
8
19_57000
10
38.96500
20
70.44500
30
57.00000
0
VERTEX
8
19_57000
10
39.03500
20
71.15401
30
57.00000
0
VERTEX
8
19_57000
10
39.16900
20
73.99300
30
57.00000
0
VERTEX
8
19_57000
10
39.17000
20
74.45700
30
57.00000
0
VERTEX
8
19_57000
10
39.08400
20
75.37300
30
57.00000
0
VERTEX
8
19_57000
10
38.96400
20
76.96201
30
57.00000
0
VERTEX
8
19_57000
10
38.73400
20
78.48000
30
57.00000
0
VERTEX
8
19_57000
10
38.20500
20
81.26701
30
57.00000
0
VERTEX
8
19_57000
10
37.61200
20
83.25500
30
57.00000
0
VERTEX
8
19_57000
10
37.49700
20
83.57500
30
57.00000
0
VERTEX
8
19_57000
10
36.96300
20
85.23000
30
57.00000
0
VERTEX
8
19_57000
10
36.83000
20
85.66400
30
57.00000
0
VERTEX
8
19_57000
10
12.67100
20
89.69901
30
57.00000
0
VERTEX
8
19_57000
10
-56.17000
20
89.69901
30
57.00000
0
VERTEX
8
19_57000
10
-56.17000
20
-13.55600
30
57.00000
0
SEQEND
8
19_57000
0
POLYLINE
8
19_57000
62
5
0
VERTEX
8
19_57000
10
10.84900
20
90.00001
30
57.00000
0
VERTEX
8
19_57000
10
7.35300
20
90.58501
30
57.00000
0
VERTEX
8
19_57000
10
-56.17000
20
90.58501
30
57.00000
0
VERTEX
8
19_57000
10
-56.17000
20
89.69901
30
57.00000
0
VERTEX
8
19_57000
10
12.66500
20
89.69901
30
57.00000
0
VERTEX
8
19_57000
10
10.84900
20
90.00001
30
57.00000
0
SEQEND
8
19_57000
0
ENDSEC
0
EOF
