0
SECTION
2
HEADER
9
$ACADVER
1
AC1009
0
ENDSEC
0
SECTION
2
TABLES
0
TABLE
2
LAYER
70
1
0
LAYER
2
51_153000
70
0
62
7
6
CONTINUOUS
0
ENDTAB
0
ENDSEC
0
SECTION
2
BLOCKS
0
ENDSEC
0
SECTION
2
ENTITIES
0
POLYLINE
8
51_153000
62
5
0
VERTEX
8
51_153000
10
-17.44700
20
22.16700
30
153.00000
0
VERTEX
8
51_153000
10
-17.85000
20
22.53600
30
153.00000
0
VERTEX
8
51_153000
10
-18.28900
20
22.85900
30
153.00000
0
VERTEX
8
51_153000
10
-18.42300
20
23.01200
30
153.00000
0
VERTEX
8
51_153000
10
-18.70800
20
23.24900
30
153.00000
0
VERTEX
8
51_153000
10
-20.68500
20
24.70300
30
153.00000
0
VERTEX
8
51_153000
10
-21.00300
20
24.92000
30
153.00000
0
VERTEX
8
51_153000
10
-21.48800
20
25.38900
30
153.00000
0
VERTEX
8
51_153000
10
-21.66400
20
25.51500
30
153.00000
0
VERTEX
8
51_153000
10
-22.09100
20
25.89500
30
153.00000
0
VERTEX
8
51_153000
10
-23.24100
20
27.28800
30
153.00000
0
VERTEX
8
51_153000
10
-24.27700
20
28.49700
30
153.00000
0
VERTEX
8
51_153000
10
-25.01200
20
29.49300
30
153.00000
0
VERTEX
8
51_153000
10
-26.83000
20
31.92500
30
153.00000
0
VERTEX
8
51_153000
10
-27.18100
20
32.41000
30
153.00000
0
VERTEX
8
51_153000
10
-29.42000
20
35.31700
30
153.00000
0
VERTEX
8
51_153000
10
-30.27800
20
36.49700
30
153.00000
0
VERTEX
8
51_153000
10
-30.77500
20
37.12200
30
153.00000
0
VERTEX
8
51_153000
10
-31.13200
20
37.60200
30
153.00000
0
VERTEX
8
51_153000
10
-31.45000
20
37.98600
30
153.00000
0
VERTEX
8
51_153000
10
-31.78700
20
38.57100
30
153.00000
0
VERTEX
8
51_153000
10
-32.45900
20
39.66700
30
153.00000
0
VERTEX
8
51_153000
10
-32.82700
20
40.43300
30
153.00000
0
VERTEX
8
51_153000
10
-33.08600
20
41.05800
30
153.00000
0
VERTEX
8
51_153000
10
-33.10300
20
41.16500
30
153.00000
0
VERTEX
8
51_153000
10
-33.86700
20
42.48600
30
153.00000
0
VERTEX
8
51_153000
10
-34.25600
20
44.62900
30
153.00000
0
VERTEX
8
51_153000
10
-34.25200
20
44.69600
30
153.00000
0
VERTEX
8
51_153000
10
-34.71200
20
46.05500
30
153.00000
0
VERTEX
8
51_153000
10
-34.78000
20
46.30500
30
153.00000
0
VERTEX
8
51_153000
10
-34.87700
20
46.46400
30
153.00000
0
VERTEX
8
51_153000
10
-35.27000
20
47.41700
30
153.00000
0
VERTEX
8
51_153000
10
-35.56400
20
48.02800
30
153.00000
0
VERTEX
8
51_153000
10
-35.67200
20
48.18500
30
153.00000
0
VERTEX
8
51_153000
10
-36.10800
20
49.01300
30
153.00000
0
VERTEX
8
51_153000
10
-36.33900
20
49.30400
30
153.00000
0
VERTEX
8
51_153000
10
-37.45500
20
50.89900
30
153.00000
0
VERTEX
8
51_153000
10
-37.85700
20
51.50900
30
153.00000
0
VERTEX
8
51_153000
10
-38.60800
20
52.89600
30
153.00000
0
VERTEX
8
51_153000
10
-38.79700
20
53.20600
30
153.00000
0
VERTEX
8
51_153000
10
-39.17000
20
53.91800
30
153.00000
0
VERTEX
8
51_153000
10
-39.28200
20
55.99400
30
153.00000
0
VERTEX
8
51_153000
10
-38.90800
20
56.78600
30
153.00000
0
VERTEX
8
51_153000
10
-38.71500
20
57.39700
30
153.00000
0
VERTEX
8
51_153000
10
-38.02900
20
58.51100
30
153.00000
0
VERTEX
8
51_153000
10
-37.63500
20
58.96800
30
153.00000
0
VERTEX
8
51_153000
10
-37.27100
20
59.54000
30
153.00000
0
VERTEX
8
51_153000
10
-36.36000
20
60.68400
30
153.00000
0
VERTEX
8
51_153000
10
-36.03300
20
60.98700
30
153.00000
0
VERTEX
8
51_153000
10
-35.85600
20
61.23900
30
153.00000
0
VERTEX
8
51_153000
10
-35.68900
20
61.43300
30
153.00000
0
VERTEX
8
51_153000
10
-34.16600
20
62.60000
30
153.00000
0
VERTEX
8
51_153000
10
-32.70200
20
63.59500
30
153.00000
0
VERTEX
8
51_153000
10
-32.39100
20
63.84100
30
153.00000
0
VERTEX
8
51_153000
10
-32.31500
20
63.89300
30
153.00000
0
VERTEX
8
51_153000
10
-30.74900
20
64.81200
30
153.00000
0
VERTEX
8
51_153000
10
-30.28300
20
65.12200
30
153.00000
0
VERTEX
8
51_153000
10
-28.89800
20
65.86800
30
153.00000
0
VERTEX
8
51_153000
10
-27.67200
20
66.62400
30
153.00000
0
VERTEX
8
51_153000
10
-27.32600
20
66.91500
30
153.00000
0
VERTEX
8
51_153000
10
-26.90200
20
67.12400
30
153.00000
0
VERTEX
8
51_153000
10
-26.49800
20
67.21800
30
153.00000
0
VERTEX
8
51_153000
10
-56.17000
20
67.21800
30
153.00000
0
VERTEX
8
51_153000
10
-56.17000
20
21.58100
30
153.00000
0
VERTEX
8
51_153000
10
-16.69000
20
21.58100
30
153.00000
0
VERTEX
8
51_153000
10
-17.44700
20
22.16700
30
153.00000
0
SEQEND
8
51_153000
0
ENDSEC
0
EOF
