0
SECTION
2
HEADER
9
$ACADVER
1
AC1009
0
ENDSEC
0
SECTION
2
TABLES
0
TABLE
2
LAYER
70
1
0
LAYER
2
30_90000
70
0
62
7
6
CONTINUOUS
0
ENDTAB
0
ENDSEC
0
SECTION
2
BLOCKS
0
ENDSEC
0
SECTION
2
ENTITIES
0
POLYLINE
8
30_90000
62
5
0
VERTEX
8
30_90000
10
-56.17000
20
91.71900
30
90.00000
0
VERTEX
8
30_90000
10
-56.17000
20
91.71301
30
90.00000
0
VERTEX
8
30_90000
10
0.58900
20
91.71301
30
90.00000
0
VERTEX
8
30_90000
10
0.22800
20
91.77500
30
90.00000
0
VERTEX
8
30_90000
10
-56.17000
20
91.77500
30
90.00000
0
VERTEX
8
30_90000
10
-56.17000
20
91.71900
30
90.00000
0
SEQEND
8
30_90000
0
POLYLINE
8
30_90000
62
5
0
VERTEX
8
30_90000
10
-50.27000
20
91.68001
30
90.00000
0
VERTEX
8
30_90000
10
0.79200
20
91.68001
30
90.00000
0
VERTEX
8
30_90000
10
0.61500
20
91.71001
30
90.00000
0
VERTEX
8
30_90000
10
-56.17000
20
91.71001
30
90.00000
0
VERTEX
8
30_90000
10
-56.17000
20
91.68001
30
90.00000
0
VERTEX
8
30_90000
10
-50.27000
20
91.68001
30
90.00000
0
SEQEND
8
30_90000
0
POLYLINE
8
30_90000
62
5
0
VERTEX
8
30_90000
10
-56.17000
20
91.67400
30
90.00000
0
VERTEX
8
30_90000
10
-56.17000
20
91.63100
30
90.00000
0
VERTEX
8
30_90000
10
1.08600
20
91.63100
30
90.00000
0
VERTEX
8
30_90000
10
0.79800
20
91.68001
30
90.00000
0
VERTEX
8
30_90000
10
-56.17000
20
91.68001
30
90.00000
0
VERTEX
8
30_90000
10
-56.17000
20
91.67400
30
90.00000
0
SEQEND
8
30_90000
0
POLYLINE
8
30_90000
62
5
0
VERTEX
8
30_90000
10
-56.17000
20
91.48100
30
90.00000
0
VERTEX
8
30_90000
10
-56.17000
20
91.39301
30
90.00000
0
VERTEX
8
30_90000
10
2.51400
20
91.39301
30
90.00000
0
VERTEX
8
30_90000
10
1.10700
20
91.62701
30
90.00000
0
VERTEX
8
30_90000
10
-56.17000
20
91.62701
30
90.00000
0
VERTEX
8
30_90000
10
-56.17000
20
91.48100
30
90.00000
0
SEQEND
8
30_90000
0
POLYLINE
8
30_90000
62
5
0
VERTEX
8
30_90000
10
-56.17000
20
72.92700
30
90.00000
0
VERTEX
8
30_90000
10
-56.17000
20
-92.11401
30
90.00000
0
VERTEX
8
30_90000
10
31.18400
20
-92.11401
30
90.00000
0
VERTEX
8
30_90000
10
31.12000
20
-91.77300
30
90.00000
0
VERTEX
8
30_90000
10
31.02100
20
-91.15501
30
90.00000
0
VERTEX
8
30_90000
10
30.89100
20
-90.03900
30
90.00000
0
VERTEX
8
30_90000
10
30.90000
20
-89.92800
30
90.00000
0
VERTEX
8
30_90000
10
30.89300
20
-88.40100
30
90.00000
0
VERTEX
8
30_90000
10
30.87300
20
-88.27901
30
90.00000
0
VERTEX
8
30_90000
10
30.88500
20
-88.14001
30
90.00000
0
VERTEX
8
30_90000
10
31.22800
20
-87.17500
30
90.00000
0
VERTEX
8
30_90000
10
31.40300
20
-86.62701
30
90.00000
0
VERTEX
8
30_90000
10
31.62400
20
-86.13700
30
90.00000
0
VERTEX
8
30_90000
10
31.76600
20
-85.89900
30
90.00000
0
VERTEX
8
30_90000
10
31.77600
20
-85.75201
30
90.00000
0
VERTEX
8
30_90000
10
32.04400
20
-84.78201
30
90.00000
0
VERTEX
8
30_90000
10
32.06700
20
-84.65000
30
90.00000
0
VERTEX
8
30_90000
10
32.23100
20
-84.16701
30
90.00000
0
VERTEX
8
30_90000
10
32.29100
20
-83.67400
30
90.00000
0
VERTEX
8
30_90000
10
32.53900
20
-82.94901
30
90.00000
0
VERTEX
8
30_90000
10
32.76700
20
-82.39900
30
90.00000
0
VERTEX
8
30_90000
10
32.85100
20
-82.14700
30
90.00000
0
VERTEX
8
30_90000
10
32.86400
20
-82.02100
30
90.00000
0
VERTEX
8
30_90000
10
32.99000
20
-81.76601
30
90.00000
0
VERTEX
8
30_90000
10
33.01600
20
-81.63800
30
90.00000
0
VERTEX
8
30_90000
10
33.01800
20
-81.29100
30
90.00000
0
VERTEX
8
30_90000
10
33.04300
20
-81.16901
30
90.00000
0
VERTEX
8
30_90000
10
33.02300
20
-81.11600
30
90.00000
0
VERTEX
8
30_90000
10
33.02900
20
-80.93700
30
90.00000
0
VERTEX
8
30_90000
10
33.10900
20
-80.68600
30
90.00000
0
VERTEX
8
30_90000
10
33.16400
20
-80.58000
30
90.00000
0
VERTEX
8
30_90000
10
33.37700
20
-80.28101
30
90.00000
0
VERTEX
8
30_90000
10
33.51400
20
-79.99700
30
90.00000
0
VERTEX
8
30_90000
10
33.60100
20
-79.85101
30
90.00000
0
VERTEX
8
30_90000
10
33.60100
20
-79.78700
30
90.00000
0
VERTEX
8
30_90000
10
33.64200
20
-79.52300
30
90.00000
0
VERTEX
8
30_90000
10
33.65200
20
-79.39600
30
90.00000
0
VERTEX
8
30_90000
10
33.60400
20
-78.92600
30
90.00000
0
VERTEX
8
30_90000
10
33.62400
20
-78.85800
30
90.00000
0
VERTEX
8
30_90000
10
33.61800
20
-78.82800
30
90.00000
0
VERTEX
8
30_90000
10
33.96900
20
-78.10101
30
90.00000
0
VERTEX
8
30_90000
10
33.96800
20
-77.58100
30
90.00000
0
VERTEX
8
30_90000
10
34.03000
20
-77.10001
30
90.00000
0
VERTEX
8
30_90000
10
34.14000
20
-76.54401
30
90.00000
0
VERTEX
8
30_90000
10
34.23400
20
-76.32001
30
90.00000
0
VERTEX
8
30_90000
10
34.27100
20
-76.15100
30
90.00000
0
VERTEX
8
30_90000
10
34.48000
20
-75.91500
30
90.00000
0
VERTEX
8
30_90000
10
34.52000
20
-75.84300
30
90.00000
0
VERTEX
8
30_90000
10
34.49600
20
-75.57401
30
90.00000
0
VERTEX
8
30_90000
10
34.61400
20
-75.33701
30
90.00000
0
VERTEX
8
30_90000
10
34.56700
20
-75.13400
30
90.00000
0
VERTEX
8
30_90000
10
34.83100
20
-74.38300
30
90.00000
0
VERTEX
8
30_90000
10
34.81200
20
-74.24500
30
90.00000
0
VERTEX
8
30_90000
10
34.91100
20
-73.79700
30
90.00000
0
VERTEX
8
30_90000
10
35.14600
20
-73.05200
30
90.00000
0
VERTEX
8
30_90000
10
35.16400
20
-72.92200
30
90.00000
0
VERTEX
8
30_90000
10
35.65600
20
-71.38600
30
90.00000
0
VERTEX
8
30_90000
10
35.71200
20
-70.75301
30
90.00000
0
VERTEX
8
30_90000
10
35.77300
20
-70.56001
30
90.00000
0
VERTEX
8
30_90000
10
35.85200
20
-69.95300
30
90.00000
0
VERTEX
8
30_90000
10
35.99600
20
-69.31001
30
90.00000
0
VERTEX
8
30_90000
10
36.00400
20
-69.24500
30
90.00000
0
VERTEX
8
30_90000
10
35.97900
20
-67.98100
30
90.00000
0
VERTEX
8
30_90000
10
35.98500
20
-67.79000
30
90.00000
0
VERTEX
8
30_90000
10
36.20400
20
-66.48300
30
90.00000
0
VERTEX
8
30_90000
10
36.20600
20
-66.41901
30
90.00000
0
VERTEX
8
30_90000
10
36.07300
20
-65.97401
30
90.00000
0
VERTEX
8
30_90000
10
36.04100
20
-65.58501
30
90.00000
0
VERTEX
8
30_90000
10
36.07200
20
-65.42900
30
90.00000
0
VERTEX
8
30_90000
10
36.04400
20
-65.12600
30
90.00000
0
VERTEX
8
30_90000
10
36.01800
20
-64.57700
30
90.00000
0
VERTEX
8
30_90000
10
35.92400
20
-64.11000
30
90.00000
0
VERTEX
8
30_90000
10
35.75600
20
-63.40100
30
90.00000
0
VERTEX
8
30_90000
10
35.56000
20
-63.01900
30
90.00000
0
VERTEX
8
30_90000
10
35.52200
20
-62.80900
30
90.00000
0
VERTEX
8
30_90000
10
35.37400
20
-62.36000
30
90.00000
0
VERTEX
8
30_90000
10
35.31400
20
-61.99100
30
90.00000
0
VERTEX
8
30_90000
10
35.09400
20
-61.08200
30
90.00000
0
VERTEX
8
30_90000
10
34.92100
20
-60.10900
30
90.00000
0
VERTEX
8
30_90000
10
34.87600
20
-59.68900
30
90.00000
0
VERTEX
8
30_90000
10
34.53800
20
-57.99300
30
90.00000
0
VERTEX
8
30_90000
10
34.42300
20
-57.21800
30
90.00000
0
VERTEX
8
30_90000
10
34.07400
20
-55.61100
30
90.00000
0
VERTEX
8
30_90000
10
34.06800
20
-55.40200
30
90.00000
0
VERTEX
8
30_90000
10
34.12600
20
-51.87100
30
90.00000
0
VERTEX
8
30_90000
10
34.21500
20
-50.94600
30
90.00000
0
VERTEX
8
30_90000
10
34.25400
20
-50.08800
30
90.00000
0
VERTEX
8
30_90000
10
34.29100
20
-49.56600
30
90.00000
0
VERTEX
8
30_90000
10
34.26200
20
-48.58000
30
90.00000
0
VERTEX
8
30_90000
10
34.39700
20
-47.89500
30
90.00000
0
VERTEX
8
30_90000
10
34.51200
20
-47.59400
30
90.00000
0
VERTEX
8
30_90000
10
35.23200
20
-45.93100
30
90.00000
0
VERTEX
8
30_90000
10
35.64100
20
-45.06500
30
90.00000
0
VERTEX
8
30_90000
10
35.82400
20
-44.65000
30
90.00000
0
VERTEX
8
30_90000
10
36.02600
20
-44.27300
30
90.00000
0
VERTEX
8
30_90000
10
36.15400
20
-44.00100
30
90.00000
0
VERTEX
8
30_90000
10
36.38800
20
-43.49400
30
90.00000
0
VERTEX
8
30_90000
10
36.73500
20
-42.69400
30
90.00000
0
VERTEX
8
30_90000
10
36.76300
20
-42.59700
30
90.00000
0
VERTEX
8
30_90000
10
36.87200
20
-42.31500
30
90.00000
0
VERTEX
8
30_90000
10
36.96500
20
-41.97200
30
90.00000
0
VERTEX
8
30_90000
10
36.97700
20
-41.80500
30
90.00000
0
VERTEX
8
30_90000
10
37.10000
20
-41.23000
30
90.00000
0
VERTEX
8
30_90000
10
37.48800
20
-40.40300
30
90.00000
0
VERTEX
8
30_90000
10
37.49500
20
-40.28900
30
90.00000
0
VERTEX
8
30_90000
10
37.62600
20
-39.81500
30
90.00000
0
VERTEX
8
30_90000
10
37.56400
20
-39.04100
30
90.00000
0
VERTEX
8
30_90000
10
37.43800
20
-38.44400
30
90.00000
0
VERTEX
8
30_90000
10
37.43000
20
-38.09800
30
90.00000
0
VERTEX
8
30_90000
10
37.41100
20
-37.75400
30
90.00000
0
VERTEX
8
30_90000
10
37.42100
20
-37.53900
30
90.00000
0
VERTEX
8
30_90000
10
37.42300
20
-36.36300
30
90.00000
0
VERTEX
8
30_90000
10
37.56400
20
-35.51500
30
90.00000
0
VERTEX
8
30_90000
10
37.65800
20
-34.81200
30
90.00000
0
VERTEX
8
30_90000
10
37.72900
20
-34.48300
30
90.00000
0
VERTEX
8
30_90000
10
37.74400
20
-33.82700
30
90.00000
0
VERTEX
8
30_90000
10
37.66500
20
-32.40500
30
90.00000
0
VERTEX
8
30_90000
10
37.62200
20
-32.08700
30
90.00000
0
VERTEX
8
30_90000
10
37.47700
20
-30.78500
30
90.00000
0
VERTEX
8
30_90000
10
37.21700
20
-29.89400
30
90.00000
0
VERTEX
8
30_90000
10
37.02300
20
-29.03100
30
90.00000
0
VERTEX
8
30_90000
10
36.95900
20
-28.85400
30
90.00000
0
VERTEX
8
30_90000
10
36.59200
20
-27.91200
30
90.00000
0
VERTEX
8
30_90000
10
35.70000
20
-25.87500
30
90.00000
0
VERTEX
8
30_90000
10
35.34700
20
-25.03500
30
90.00000
0
VERTEX
8
30_90000
10
34.77200
20
-23.75400
30
90.00000
0
VERTEX
8
30_90000
10
34.46900
20
-22.86600
30
90.00000
0
VERTEX
8
30_90000
10
34.35900
20
-22.47400
30
90.00000
0
VERTEX
8
30_90000
10
34.38700
20
-22.19000
30
90.00000
0
VERTEX
8
30_90000
10
34.86400
20
-21.51800
30
90.00000
0
VERTEX
8
30_90000
10
35.23300
20
-20.89000
30
90.00000
0
VERTEX
8
30_90000
10
36.66100
20
-18.57300
30
90.00000
0
VERTEX
8
30_90000
10
37.06400
20
-17.85700
30
90.00000
0
VERTEX
8
30_90000
10
37.14500
20
-17.62800
30
90.00000
0
VERTEX
8
30_90000
10
37.39700
20
-16.73200
30
90.00000
0
VERTEX
8
30_90000
10
37.50100
20
-15.81200
30
90.00000
0
VERTEX
8
30_90000
10
37.72500
20
-12.64200
30
90.00000
0
VERTEX
8
30_90000
10
37.69300
20
-11.13800
30
90.00000
0
VERTEX
8
30_90000
10
37.69700
20
-11.02200
30
90.00000
0
VERTEX
8
30_90000
10
37.68800
20
-10.97900
30
90.00000
0
VERTEX
8
30_90000
10
37.59700
20
-9.60000
30
90.00000
0
VERTEX
8
30_90000
10
37.38400
20
-8.15000
30
90.00000
0
VERTEX
8
30_90000
10
36.93600
20
-6.37600
30
90.00000
0
VERTEX
8
30_90000
10
36.89400
20
-6.13100
30
90.00000
0
VERTEX
8
30_90000
10
36.91100
20
-5.56700
30
90.00000
0
VERTEX
8
30_90000
10
36.79700
20
-4.58300
30
90.00000
0
VERTEX
8
30_90000
10
36.61600
20
-3.97700
30
90.00000
0
VERTEX
8
30_90000
10
35.94600
20
-2.25300
30
90.00000
0
VERTEX
8
30_90000
10
35.79700
20
-1.98900
30
90.00000
0
VERTEX
8
30_90000
10
35.45900
20
-1.03200
30
90.00000
0
VERTEX
8
30_90000
10
35.39800
20
-0.88800
30
90.00000
0
VERTEX
8
30_90000
10
34.89000
20
0.85500
30
90.00000
0
VERTEX
8
30_90000
10
34.80800
20
1.16100
30
90.00000
0
VERTEX
8
30_90000
10
34.62900
20
1.94100
30
90.00000
0
VERTEX
8
30_90000
10
34.46800
20
2.77400
30
90.00000
0
VERTEX
8
30_90000
10
34.23500
20
4.70700
30
90.00000
0
VERTEX
8
30_90000
10
34.30100
20
4.99400
30
90.00000
0
VERTEX
8
30_90000
10
34.36800
20
5.13100
30
90.00000
0
VERTEX
8
30_90000
10
35.34900
20
6.31700
30
90.00000
0
VERTEX
8
30_90000
10
37.53600
20
8.21600
30
90.00000
0
VERTEX
8
30_90000
10
38.67800
20
9.47200
30
90.00000
0
VERTEX
8
30_90000
10
39.03000
20
9.94000
30
90.00000
0
VERTEX
8
30_90000
10
39.75500
20
11.27100
30
90.00000
0
VERTEX
8
30_90000
10
40.03200
20
11.86500
30
90.00000
0
VERTEX
8
30_90000
10
40.10100
20
12.15600
30
90.00000
0
VERTEX
8
30_90000
10
40.22900
20
12.87300
30
90.00000
0
VERTEX
8
30_90000
10
40.28800
20
13.33200
30
90.00000
0
VERTEX
8
30_90000
10
40.30800
20
13.84500
30
90.00000
0
VERTEX
8
30_90000
10
40.11100
20
15.41900
30
90.00000
0
VERTEX
8
30_90000
10
40.07100
20
15.89800
30
90.00000
0
VERTEX
8
30_90000
10
39.75500
20
16.78200
30
90.00000
0
VERTEX
8
30_90000
10
39.54500
20
17.51400
30
90.00000
0
VERTEX
8
30_90000
10
39.09400
20
18.34100
30
90.00000
0
VERTEX
8
30_90000
10
38.99800
20
18.56400
30
90.00000
0
VERTEX
8
30_90000
10
38.88900
20
18.77000
30
90.00000
0
VERTEX
8
30_90000
10
36.82700
20
21.96400
30
90.00000
0
VERTEX
8
30_90000
10
36.50900
20
22.54100
30
90.00000
0
VERTEX
8
30_90000
10
36.44200
20
22.80700
30
90.00000
0
VERTEX
8
30_90000
10
36.23900
20
23.75600
30
90.00000
0
VERTEX
8
30_90000
10
36.22900
20
23.92200
30
90.00000
0
VERTEX
8
30_90000
10
36.00100
20
24.86500
30
90.00000
0
VERTEX
8
30_90000
10
35.89900
20
25.33400
30
90.00000
0
VERTEX
8
30_90000
10
35.79700
20
25.72000
30
90.00000
0
VERTEX
8
30_90000
10
35.08600
20
27.88100
30
90.00000
0
VERTEX
8
30_90000
10
34.94000
20
28.36500
30
90.00000
0
VERTEX
8
30_90000
10
34.88700
20
28.49000
30
90.00000
0
VERTEX
8
30_90000
10
33.20900
20
32.96400
30
90.00000
0
VERTEX
8
30_90000
10
33.15000
20
33.09500
30
90.00000
0
VERTEX
8
30_90000
10
32.96400
20
33.67100
30
90.00000
0
VERTEX
8
30_90000
10
31.27200
20
37.89800
30
90.00000
0
VERTEX
8
30_90000
10
30.12700
20
40.39600
30
90.00000
0
VERTEX
8
30_90000
10
30.04500
20
40.66000
30
90.00000
0
VERTEX
8
30_90000
10
29.81400
20
41.32600
30
90.00000
0
VERTEX
8
30_90000
10
29.59500
20
42.05000
30
90.00000
0
VERTEX
8
30_90000
10
29.39300
20
43.33200
30
90.00000
0
VERTEX
8
30_90000
10
29.33500
20
43.96600
30
90.00000
0
VERTEX
8
30_90000
10
29.28000
20
45.45300
30
90.00000
0
VERTEX
8
30_90000
10
29.28500
20
46.25200
30
90.00000
0
VERTEX
8
30_90000
10
29.26300
20
47.46300
30
90.00000
0
VERTEX
8
30_90000
10
29.27800
20
47.73900
30
90.00000
0
VERTEX
8
30_90000
10
29.22600
20
48.57200
30
90.00000
0
VERTEX
8
30_90000
10
29.03800
20
49.39400
30
90.00000
0
VERTEX
8
30_90000
10
28.78900
20
50.81800
30
90.00000
0
VERTEX
8
30_90000
10
28.27000
20
52.60600
30
90.00000
0
VERTEX
8
30_90000
10
28.23800
20
52.68000
30
90.00000
0
VERTEX
8
30_90000
10
28.27000
20
53.05300
30
90.00000
0
VERTEX
8
30_90000
10
28.35400
20
53.21000
30
90.00000
0
VERTEX
8
30_90000
10
28.74700
20
54.03300
30
90.00000
0
VERTEX
8
30_90000
10
28.88700
20
54.47900
30
90.00000
0
VERTEX
8
30_90000
10
29.04900
20
55.12100
30
90.00000
0
VERTEX
8
30_90000
10
29.20900
20
55.65300
30
90.00000
0
VERTEX
8
30_90000
10
29.42900
20
56.27200
30
90.00000
0
VERTEX
8
30_90000
10
29.66000
20
56.67800
30
90.00000
0
VERTEX
8
30_90000
10
30.73700
20
58.21800
30
90.00000
0
VERTEX
8
30_90000
10
30.83400
20
58.34400
30
90.00000
0
VERTEX
8
30_90000
10
31.10500
20
58.62200
30
90.00000
0
VERTEX
8
30_90000
10
32.11300
20
60.27500
30
90.00000
0
VERTEX
8
30_90000
10
33.13200
20
61.98100
30
90.00000
0
VERTEX
8
30_90000
10
33.81100
20
62.96100
30
90.00000
0
VERTEX
8
30_90000
10
36.13000
20
66.42600
30
90.00000
0
VERTEX
8
30_90000
10
36.47000
20
67.10600
30
90.00000
0
VERTEX
8
30_90000
10
37.62500
20
69.22701
30
90.00000
0
VERTEX
8
30_90000
10
38.16300
20
70.70200
30
90.00000
0
VERTEX
8
30_90000
10
38.47600
20
71.73701
30
90.00000
0
VERTEX
8
30_90000
10
38.74500
20
72.67800
30
90.00000
0
VERTEX
8
30_90000
10
38.78100
20
72.82600
30
90.00000
0
VERTEX
8
30_90000
10
38.99700
20
74.17600
30
90.00000
0
VERTEX
8
30_90000
10
39.12500
20
76.04700
30
90.00000
0
VERTEX
8
30_90000
10
39.14800
20
76.71700
30
90.00000
0
VERTEX
8
30_90000
10
39.15400
20
78.92001
30
90.00000
0
VERTEX
8
30_90000
10
39.07500
20
80.08501
30
90.00000
0
VERTEX
8
30_90000
10
38.99500
20
81.06900
30
90.00000
0
VERTEX
8
30_90000
10
38.55000
20
83.74400
30
90.00000
0
VERTEX
8
30_90000
10
38.13000
20
85.37601
30
90.00000
0
VERTEX
8
30_90000
10
38.10100
20
85.45500
30
90.00000
0
VERTEX
8
30_90000
10
18.35300
20
88.75001
30
90.00000
0
VERTEX
8
30_90000
10
-56.17000
20
88.75001
30
90.00000
0
VERTEX
8
30_90000
10
-56.17000
20
72.92700
30
90.00000
0
SEQEND
8
30_90000
0
POLYLINE
8
30_90000
62
5
0
VERTEX
8
30_90000
10
-56.17000
20
90.81100
30
90.00000
0
VERTEX
8
30_90000
10
-56.17000
20
90.18501
30
90.00000
0
VERTEX
8
30_90000
10
9.75900
20
90.18501
30
90.00000
0
VERTEX
8
30_90000
10
2.53600
20
91.38901
30
90.00000
0
VERTEX
8
30_90000
10
-56.17000
20
91.38901
30
90.00000
0
VERTEX
8
30_90000
10
-56.17000
20
90.81100
30
90.00000
0
SEQEND
8
30_90000
0
POLYLINE
8
30_90000
62
5
0
VERTEX
8
30_90000
10
14.90600
20
89.32401
30
90.00000
0
VERTEX
8
30_90000
10
9.79700
20
90.17700
30
90.00000
0
VERTEX
8
30_90000
10
-56.17000
20
90.17700
30
90.00000
0
VERTEX
8
30_90000
10
-56.17000
20
88.75201
30
90.00000
0
VERTEX
8
30_90000
10
18.34100
20
88.75201
30
90.00000
0
VERTEX
8
30_90000
10
14.90600
20
89.32401
30
90.00000
0
SEQEND
8
30_90000
0
ENDSEC
0
EOF
