0
SECTION
2
HEADER
9
$ACADVER
1
AC1009
0
ENDSEC
0
SECTION
2
TABLES
0
TABLE
2
LAYER
70
1
0
LAYER
2
36_108000
70
0
62
7
6
CONTINUOUS
0
ENDTAB
0
ENDSEC
0
SECTION
2
BLOCKS
0
ENDSEC
0
SECTION
2
ENTITIES
0
POLYLINE
8
36_108000
62
5
0
VERTEX
8
36_108000
10
-56.17000
20
91.80901
30
108.00000
0
VERTEX
8
36_108000
10
0.02000
20
91.80901
30
108.00000
0
VERTEX
8
36_108000
10
-0.41600
20
91.88200
30
108.00000
0
VERTEX
8
36_108000
10
-56.17000
20
91.88200
30
108.00000
0
VERTEX
8
36_108000
10
-56.17000
20
91.80901
30
108.00000
0
SEQEND
8
36_108000
0
POLYLINE
8
36_108000
62
5
0
VERTEX
8
36_108000
10
-42.69000
20
91.76801
30
108.00000
0
VERTEX
8
36_108000
10
0.26500
20
91.76801
30
108.00000
0
VERTEX
8
36_108000
10
0.05200
20
91.80400
30
108.00000
0
VERTEX
8
36_108000
10
-56.17000
20
91.80400
30
108.00000
0
VERTEX
8
36_108000
10
-56.17000
20
91.76801
30
108.00000
0
VERTEX
8
36_108000
10
-42.69000
20
91.76801
30
108.00000
0
SEQEND
8
36_108000
0
POLYLINE
8
36_108000
62
5
0
VERTEX
8
36_108000
10
-56.17000
20
91.75500
30
108.00000
0
VERTEX
8
36_108000
10
-56.17000
20
91.71001
30
108.00000
0
VERTEX
8
36_108000
10
0.61900
20
91.71001
30
108.00000
0
VERTEX
8
36_108000
10
0.27200
20
91.76801
30
108.00000
0
VERTEX
8
36_108000
10
-56.17000
20
91.76801
30
108.00000
0
VERTEX
8
36_108000
10
-56.17000
20
91.75500
30
108.00000
0
SEQEND
8
36_108000
0
POLYLINE
8
36_108000
62
5
0
VERTEX
8
36_108000
10
-56.17000
20
91.52701
30
108.00000
0
VERTEX
8
36_108000
10
-56.17000
20
91.42101
30
108.00000
0
VERTEX
8
36_108000
10
2.34300
20
91.42101
30
108.00000
0
VERTEX
8
36_108000
10
0.64500
20
91.70400
30
108.00000
0
VERTEX
8
36_108000
10
-56.17000
20
91.70400
30
108.00000
0
VERTEX
8
36_108000
10
-56.17000
20
91.52701
30
108.00000
0
SEQEND
8
36_108000
0
POLYLINE
8
36_108000
62
5
0
VERTEX
8
36_108000
10
-56.17000
20
83.52901
30
108.00000
0
VERTEX
8
36_108000
10
-56.17000
20
-92.11401
30
108.00000
0
VERTEX
8
36_108000
10
29.88300
20
-92.11401
30
108.00000
0
VERTEX
8
36_108000
10
29.85800
20
-92.05100
30
108.00000
0
VERTEX
8
36_108000
10
29.64800
20
-91.64101
30
108.00000
0
VERTEX
8
36_108000
10
28.48800
20
-88.90100
30
108.00000
0
VERTEX
8
36_108000
10
28.33600
20
-88.43401
30
108.00000
0
VERTEX
8
36_108000
10
27.96000
20
-87.41300
30
108.00000
0
VERTEX
8
36_108000
10
27.88700
20
-87.17200
30
108.00000
0
VERTEX
8
36_108000
10
27.38000
20
-85.44400
30
108.00000
0
VERTEX
8
36_108000
10
27.26800
20
-84.80500
30
108.00000
0
VERTEX
8
36_108000
10
27.30300
20
-84.68800
30
108.00000
0
VERTEX
8
36_108000
10
27.28100
20
-84.19901
30
108.00000
0
VERTEX
8
36_108000
10
27.65400
20
-83.21400
30
108.00000
0
VERTEX
8
36_108000
10
28.01500
20
-82.20800
30
108.00000
0
VERTEX
8
36_108000
10
28.50600
20
-81.25500
30
108.00000
0
VERTEX
8
36_108000
10
28.89600
20
-80.12000
30
108.00000
0
VERTEX
8
36_108000
10
29.08500
20
-79.63400
30
108.00000
0
VERTEX
8
36_108000
10
29.09300
20
-79.31700
30
108.00000
0
VERTEX
8
36_108000
10
29.15700
20
-79.08100
30
108.00000
0
VERTEX
8
36_108000
10
29.35400
20
-78.02700
30
108.00000
0
VERTEX
8
36_108000
10
29.41100
20
-77.41200
30
108.00000
0
VERTEX
8
36_108000
10
29.40200
20
-76.83401
30
108.00000
0
VERTEX
8
36_108000
10
29.54800
20
-76.24900
30
108.00000
0
VERTEX
8
36_108000
10
29.55500
20
-76.11401
30
108.00000
0
VERTEX
8
36_108000
10
29.47900
20
-75.86201
30
108.00000
0
VERTEX
8
36_108000
10
29.34300
20
-75.67200
30
108.00000
0
VERTEX
8
36_108000
10
29.19800
20
-75.10400
30
108.00000
0
VERTEX
8
36_108000
10
29.05500
20
-74.20700
30
108.00000
0
VERTEX
8
36_108000
10
28.91500
20
-73.25401
30
108.00000
0
VERTEX
8
36_108000
10
28.79600
20
-72.71201
30
108.00000
0
VERTEX
8
36_108000
10
28.68200
20
-72.41000
30
108.00000
0
VERTEX
8
36_108000
10
28.37800
20
-71.71400
30
108.00000
0
VERTEX
8
36_108000
10
28.35000
20
-71.37400
30
108.00000
0
VERTEX
8
36_108000
10
28.20300
20
-70.86800
30
108.00000
0
VERTEX
8
36_108000
10
28.08400
20
-70.08801
30
108.00000
0
VERTEX
8
36_108000
10
27.97300
20
-69.59000
30
108.00000
0
VERTEX
8
36_108000
10
27.85600
20
-69.11600
30
108.00000
0
VERTEX
8
36_108000
10
27.78200
20
-68.94300
30
108.00000
0
VERTEX
8
36_108000
10
27.72100
20
-68.64201
30
108.00000
0
VERTEX
8
36_108000
10
27.61400
20
-68.40800
30
108.00000
0
VERTEX
8
36_108000
10
27.55200
20
-68.17700
30
108.00000
0
VERTEX
8
36_108000
10
27.29000
20
-66.48801
30
108.00000
0
VERTEX
8
36_108000
10
27.23800
20
-66.32000
30
108.00000
0
VERTEX
8
36_108000
10
26.96100
20
-65.58801
30
108.00000
0
VERTEX
8
36_108000
10
26.82600
20
-64.68201
30
108.00000
0
VERTEX
8
36_108000
10
26.74800
20
-64.28300
30
108.00000
0
VERTEX
8
36_108000
10
26.73800
20
-64.08900
30
108.00000
0
VERTEX
8
36_108000
10
26.57300
20
-63.32700
30
108.00000
0
VERTEX
8
36_108000
10
26.18700
20
-61.92200
30
108.00000
0
VERTEX
8
36_108000
10
26.04600
20
-61.53000
30
108.00000
0
VERTEX
8
36_108000
10
25.67000
20
-59.68600
30
108.00000
0
VERTEX
8
36_108000
10
25.54600
20
-58.65000
30
108.00000
0
VERTEX
8
36_108000
10
25.30900
20
-56.89400
30
108.00000
0
VERTEX
8
36_108000
10
25.17300
20
-56.57000
30
108.00000
0
VERTEX
8
36_108000
10
24.91200
20
-55.21100
30
108.00000
0
VERTEX
8
36_108000
10
24.84400
20
-54.76000
30
108.00000
0
VERTEX
8
36_108000
10
24.82900
20
-54.36300
30
108.00000
0
VERTEX
8
36_108000
10
24.83700
20
-53.46100
30
108.00000
0
VERTEX
8
36_108000
10
24.87800
20
-51.61800
30
108.00000
0
VERTEX
8
36_108000
10
24.99300
20
-50.18600
30
108.00000
0
VERTEX
8
36_108000
10
25.08000
20
-49.60200
30
108.00000
0
VERTEX
8
36_108000
10
25.22500
20
-48.51800
30
108.00000
0
VERTEX
8
36_108000
10
25.21000
20
-47.60500
30
108.00000
0
VERTEX
8
36_108000
10
25.38800
20
-45.83200
30
108.00000
0
VERTEX
8
36_108000
10
25.45600
20
-44.01300
30
108.00000
0
VERTEX
8
36_108000
10
25.59600
20
-41.82600
30
108.00000
0
VERTEX
8
36_108000
10
25.58200
20
-41.43800
30
108.00000
0
VERTEX
8
36_108000
10
25.67000
20
-40.13800
30
108.00000
0
VERTEX
8
36_108000
10
25.66200
20
-39.89300
30
108.00000
0
VERTEX
8
36_108000
10
25.49400
20
-37.23700
30
108.00000
0
VERTEX
8
36_108000
10
25.39200
20
-36.01000
30
108.00000
0
VERTEX
8
36_108000
10
25.16000
20
-34.68300
30
108.00000
0
VERTEX
8
36_108000
10
25.08000
20
-34.12700
30
108.00000
0
VERTEX
8
36_108000
10
24.78300
20
-32.76500
30
108.00000
0
VERTEX
8
36_108000
10
24.28400
20
-30.12500
30
108.00000
0
VERTEX
8
36_108000
10
24.25500
20
-29.31400
30
108.00000
0
VERTEX
8
36_108000
10
24.09100
20
-28.49100
30
108.00000
0
VERTEX
8
36_108000
10
23.85900
20
-27.60500
30
108.00000
0
VERTEX
8
36_108000
10
23.87100
20
-27.09200
30
108.00000
0
VERTEX
8
36_108000
10
23.70200
20
-26.35700
30
108.00000
0
VERTEX
8
36_108000
10
23.69500
20
-26.10700
30
108.00000
0
VERTEX
8
36_108000
10
23.67100
20
-26.06100
30
108.00000
0
VERTEX
8
36_108000
10
23.43800
20
-25.36700
30
108.00000
0
VERTEX
8
36_108000
10
23.39700
20
-25.16000
30
108.00000
0
VERTEX
8
36_108000
10
23.31300
20
-24.46000
30
108.00000
0
VERTEX
8
36_108000
10
23.08700
20
-23.02100
30
108.00000
0
VERTEX
8
36_108000
10
23.00500
20
-22.55700
30
108.00000
0
VERTEX
8
36_108000
10
23.07400
20
-21.99200
30
108.00000
0
VERTEX
8
36_108000
10
23.34500
20
-21.20600
30
108.00000
0
VERTEX
8
36_108000
10
23.76900
20
-20.58700
30
108.00000
0
VERTEX
8
36_108000
10
23.89300
20
-20.45500
30
108.00000
0
VERTEX
8
36_108000
10
23.94700
20
-20.33300
30
108.00000
0
VERTEX
8
36_108000
10
24.00600
20
-20.17000
30
108.00000
0
VERTEX
8
36_108000
10
24.12600
20
-19.94800
30
108.00000
0
VERTEX
8
36_108000
10
24.27400
20
-19.55400
30
108.00000
0
VERTEX
8
36_108000
10
24.65500
20
-19.18100
30
108.00000
0
VERTEX
8
36_108000
10
25.32200
20
-18.42800
30
108.00000
0
VERTEX
8
36_108000
10
25.62500
20
-18.03300
30
108.00000
0
VERTEX
8
36_108000
10
25.68700
20
-17.92500
30
108.00000
0
VERTEX
8
36_108000
10
26.00900
20
-17.47600
30
108.00000
0
VERTEX
8
36_108000
10
26.25700
20
-17.20900
30
108.00000
0
VERTEX
8
36_108000
10
26.56000
20
-16.80800
30
108.00000
0
VERTEX
8
36_108000
10
26.96700
20
-15.55900
30
108.00000
0
VERTEX
8
36_108000
10
27.01200
20
-15.10900
30
108.00000
0
VERTEX
8
36_108000
10
27.07400
20
-14.83600
30
108.00000
0
VERTEX
8
36_108000
10
27.18000
20
-13.49800
30
108.00000
0
VERTEX
8
36_108000
10
27.24700
20
-13.34700
30
108.00000
0
VERTEX
8
36_108000
10
27.24700
20
-12.90000
30
108.00000
0
VERTEX
8
36_108000
10
27.27300
20
-12.74100
30
108.00000
0
VERTEX
8
36_108000
10
27.32900
20
-12.18500
30
108.00000
0
VERTEX
8
36_108000
10
27.38600
20
-11.96700
30
108.00000
0
VERTEX
8
36_108000
10
27.40200
20
-11.82500
30
108.00000
0
VERTEX
8
36_108000
10
27.41000
20
-11.46900
30
108.00000
0
VERTEX
8
36_108000
10
27.53500
20
-11.04500
30
108.00000
0
VERTEX
8
36_108000
10
27.60700
20
-10.73100
30
108.00000
0
VERTEX
8
36_108000
10
27.56400
20
-10.27800
30
108.00000
0
VERTEX
8
36_108000
10
27.54000
20
-10.22400
30
108.00000
0
VERTEX
8
36_108000
10
27.44700
20
-9.32200
30
108.00000
0
VERTEX
8
36_108000
10
27.37000
20
-8.67200
30
108.00000
0
VERTEX
8
36_108000
10
27.36300
20
-8.50400
30
108.00000
0
VERTEX
8
36_108000
10
27.48500
20
-7.65900
30
108.00000
0
VERTEX
8
36_108000
10
27.55500
20
-6.62400
30
108.00000
0
VERTEX
8
36_108000
10
27.88700
20
-2.41200
30
108.00000
0
VERTEX
8
36_108000
10
27.91900
20
-2.16000
30
108.00000
0
VERTEX
8
36_108000
10
28.28800
20
0.09600
30
108.00000
0
VERTEX
8
36_108000
10
28.40400
20
1.45600
30
108.00000
0
VERTEX
8
36_108000
10
28.74400
20
3.13900
30
108.00000
0
VERTEX
8
36_108000
10
28.78100
20
3.39200
30
108.00000
0
VERTEX
8
36_108000
10
28.95100
20
4.72700
30
108.00000
0
VERTEX
8
36_108000
10
29.04900
20
6.06800
30
108.00000
0
VERTEX
8
36_108000
10
29.41300
20
8.33600
30
108.00000
0
VERTEX
8
36_108000
10
29.55200
20
9.68800
30
108.00000
0
VERTEX
8
36_108000
10
29.67600
20
11.85700
30
108.00000
0
VERTEX
8
36_108000
10
29.68100
20
12.58000
30
108.00000
0
VERTEX
8
36_108000
10
29.66800
20
13.47000
30
108.00000
0
VERTEX
8
36_108000
10
29.45700
20
16.44700
30
108.00000
0
VERTEX
8
36_108000
10
29.38900
20
16.99300
30
108.00000
0
VERTEX
8
36_108000
10
29.33800
20
17.33000
30
108.00000
0
VERTEX
8
36_108000
10
28.85800
20
19.98800
30
108.00000
0
VERTEX
8
36_108000
10
28.45400
20
21.69000
30
108.00000
0
VERTEX
8
36_108000
10
28.26300
20
22.58100
30
108.00000
0
VERTEX
8
36_108000
10
27.93400
20
23.76500
30
108.00000
0
VERTEX
8
36_108000
10
27.93400
20
23.82100
30
108.00000
0
VERTEX
8
36_108000
10
27.67700
20
24.77100
30
108.00000
0
VERTEX
8
36_108000
10
27.48000
20
25.45400
30
108.00000
0
VERTEX
8
36_108000
10
26.91800
20
27.50300
30
108.00000
0
VERTEX
8
36_108000
10
26.76900
20
27.92500
30
108.00000
0
VERTEX
8
36_108000
10
26.67200
20
28.36900
30
108.00000
0
VERTEX
8
36_108000
10
26.57000
20
28.75300
30
108.00000
0
VERTEX
8
36_108000
10
26.36300
20
29.63700
30
108.00000
0
VERTEX
8
36_108000
10
25.80200
20
32.69800
30
108.00000
0
VERTEX
8
36_108000
10
25.75000
20
33.02100
30
108.00000
0
VERTEX
8
36_108000
10
25.74900
20
33.27300
30
108.00000
0
VERTEX
8
36_108000
10
25.68700
20
34.25500
30
108.00000
0
VERTEX
8
36_108000
10
25.72200
20
34.85500
30
108.00000
0
VERTEX
8
36_108000
10
26.03300
20
38.51100
30
108.00000
0
VERTEX
8
36_108000
10
26.22300
20
40.09900
30
108.00000
0
VERTEX
8
36_108000
10
26.24400
20
40.40400
30
108.00000
0
VERTEX
8
36_108000
10
26.31200
20
40.69500
30
108.00000
0
VERTEX
8
36_108000
10
26.44000
20
41.15300
30
108.00000
0
VERTEX
8
36_108000
10
27.43400
20
42.84300
30
108.00000
0
VERTEX
8
36_108000
10
27.66300
20
43.33900
30
108.00000
0
VERTEX
8
36_108000
10
27.92000
20
43.95300
30
108.00000
0
VERTEX
8
36_108000
10
28.09500
20
44.68400
30
108.00000
0
VERTEX
8
36_108000
10
28.22800
20
45.11800
30
108.00000
0
VERTEX
8
36_108000
10
28.48300
20
46.23100
30
108.00000
0
VERTEX
8
36_108000
10
28.57200
20
46.57000
30
108.00000
0
VERTEX
8
36_108000
10
28.68400
20
47.04500
30
108.00000
0
VERTEX
8
36_108000
10
28.83800
20
47.50600
30
108.00000
0
VERTEX
8
36_108000
10
28.97600
20
48.08900
30
108.00000
0
VERTEX
8
36_108000
10
29.12900
20
48.90600
30
108.00000
0
VERTEX
8
36_108000
10
29.13700
20
49.00200
30
108.00000
0
VERTEX
8
36_108000
10
29.12500
20
49.19600
30
108.00000
0
VERTEX
8
36_108000
10
29.09100
20
49.41300
30
108.00000
0
VERTEX
8
36_108000
10
28.84300
20
50.74000
30
108.00000
0
VERTEX
8
36_108000
10
28.83200
20
50.81200
30
108.00000
0
VERTEX
8
36_108000
10
28.83900
20
50.90300
30
108.00000
0
VERTEX
8
36_108000
10
28.85400
20
50.96000
30
108.00000
0
VERTEX
8
36_108000
10
29.06200
20
52.23300
30
108.00000
0
VERTEX
8
36_108000
10
29.20800
20
52.73100
30
108.00000
0
VERTEX
8
36_108000
10
29.56500
20
54.05300
30
108.00000
0
VERTEX
8
36_108000
10
30.04900
20
55.76400
30
108.00000
0
VERTEX
8
36_108000
10
30.09400
20
55.94600
30
108.00000
0
VERTEX
8
36_108000
10
31.34000
20
58.14400
30
108.00000
0
VERTEX
8
36_108000
10
31.45600
20
58.30000
30
108.00000
0
VERTEX
8
36_108000
10
32.31600
20
59.23100
30
108.00000
0
VERTEX
8
36_108000
10
32.86900
20
60.07100
30
108.00000
0
VERTEX
8
36_108000
10
32.92200
20
60.16400
30
108.00000
0
VERTEX
8
36_108000
10
32.93300
20
60.22400
30
108.00000
0
VERTEX
8
36_108000
10
33.09400
20
60.61700
30
108.00000
0
VERTEX
8
36_108000
10
33.23200
20
60.98900
30
108.00000
0
VERTEX
8
36_108000
10
33.35300
20
61.22500
30
108.00000
0
VERTEX
8
36_108000
10
33.56800
20
61.55900
30
108.00000
0
VERTEX
8
36_108000
10
33.66400
20
61.96500
30
108.00000
0
VERTEX
8
36_108000
10
33.85400
20
62.64000
30
108.00000
0
VERTEX
8
36_108000
10
34.04000
20
64.20700
30
108.00000
0
VERTEX
8
36_108000
10
34.00700
20
65.84700
30
108.00000
0
VERTEX
8
36_108000
10
33.98300
20
66.64800
30
108.00000
0
VERTEX
8
36_108000
10
33.99000
20
67.90401
30
108.00000
0
VERTEX
8
36_108000
10
34.10200
20
68.87601
30
108.00000
0
VERTEX
8
36_108000
10
34.45000
20
70.63200
30
108.00000
0
VERTEX
8
36_108000
10
34.50000
20
71.03800
30
108.00000
0
VERTEX
8
36_108000
10
34.67100
20
71.90401
30
108.00000
0
VERTEX
8
36_108000
10
34.68000
20
72.68100
30
108.00000
0
VERTEX
8
36_108000
10
34.74200
20
73.89201
30
108.00000
0
VERTEX
8
36_108000
10
34.65000
20
75.13800
30
108.00000
0
VERTEX
8
36_108000
10
34.63300
20
75.53600
30
108.00000
0
VERTEX
8
36_108000
10
34.64600
20
75.66000
30
108.00000
0
VERTEX
8
36_108000
10
34.64100
20
75.73701
30
108.00000
0
VERTEX
8
36_108000
10
34.48300
20
76.74700
30
108.00000
0
VERTEX
8
36_108000
10
34.03100
20
78.18900
30
108.00000
0
VERTEX
8
36_108000
10
33.80000
20
78.80400
30
108.00000
0
VERTEX
8
36_108000
10
31.65800
20
84.31300
30
108.00000
0
VERTEX
8
36_108000
10
31.38600
20
84.89900
30
108.00000
0
VERTEX
8
36_108000
10
30.66000
20
86.69501
30
108.00000
0
VERTEX
8
36_108000
10
21.45200
20
88.23300
30
108.00000
0
VERTEX
8
36_108000
10
-56.17000
20
88.23300
30
108.00000
0
VERTEX
8
36_108000
10
-56.17000
20
83.52901
30
108.00000
0
SEQEND
8
36_108000
0
POLYLINE
8
36_108000
62
5
0
VERTEX
8
36_108000
10
-56.17000
20
90.52300
30
108.00000
0
VERTEX
8
36_108000
10
-56.17000
20
89.96301
30
108.00000
0
VERTEX
8
36_108000
10
11.08300
20
89.96301
30
108.00000
0
VERTEX
8
36_108000
10
2.36900
20
91.41701
30
108.00000
0
VERTEX
8
36_108000
10
-56.17000
20
91.41701
30
108.00000
0
VERTEX
8
36_108000
10
-56.17000
20
90.52300
30
108.00000
0
SEQEND
8
36_108000
0
POLYLINE
8
36_108000
62
5
0
VERTEX
8
36_108000
10
17.63900
20
88.86800
30
108.00000
0
VERTEX
8
36_108000
10
11.13000
20
89.95500
30
108.00000
0
VERTEX
8
36_108000
10
-56.17000
20
89.95500
30
108.00000
0
VERTEX
8
36_108000
10
-56.17000
20
88.23500
30
108.00000
0
VERTEX
8
36_108000
10
21.43700
20
88.23500
30
108.00000
0
VERTEX
8
36_108000
10
17.63900
20
88.86800
30
108.00000
0
SEQEND
8
36_108000
0
ENDSEC
0
EOF
