0
SECTION
2
HEADER
9
$ACADVER
1
AC1009
0
ENDSEC
0
SECTION
2
TABLES
0
TABLE
2
LAYER
70
1
0
LAYER
2
8_24000
70
0
62
7
6
CONTINUOUS
0
ENDTAB
0
ENDSEC
0
SECTION
2
BLOCKS
0
ENDSEC
0
SECTION
2
ENTITIES
0
POLYLINE
8
8_24000
62
5
0
VERTEX
8
8_24000
10
-47.33300
20
91.36600
30
24.00000
0
VERTEX
8
8_24000
10
2.67700
20
91.36600
30
24.00000
0
VERTEX
8
8_24000
10
2.58900
20
91.38000
30
24.00000
0
VERTEX
8
8_24000
10
-56.17000
20
91.38000
30
24.00000
0
VERTEX
8
8_24000
10
-56.17000
20
91.36600
30
24.00000
0
VERTEX
8
8_24000
10
-47.33300
20
91.36600
30
24.00000
0
SEQEND
8
8_24000
0
POLYLINE
8
8_24000
62
5
0
VERTEX
8
8_24000
10
-47.32600
20
91.36501
30
24.00000
0
VERTEX
8
8_24000
10
-56.17000
20
91.36501
30
24.00000
0
VERTEX
8
8_24000
10
-56.17000
20
91.34400
30
24.00000
0
VERTEX
8
8_24000
10
2.79700
20
91.34400
30
24.00000
0
VERTEX
8
8_24000
10
2.68400
20
91.36501
30
24.00000
0
VERTEX
8
8_24000
10
-47.32600
20
91.36501
30
24.00000
0
SEQEND
8
8_24000
0
POLYLINE
8
8_24000
62
5
0
VERTEX
8
8_24000
10
-46.92900
20
91.28800
30
24.00000
0
VERTEX
8
8_24000
10
3.14500
20
91.28800
30
24.00000
0
VERTEX
8
8_24000
10
2.80200
20
91.34500
30
24.00000
0
VERTEX
8
8_24000
10
-56.17000
20
91.34500
30
24.00000
0
VERTEX
8
8_24000
10
-56.17000
20
91.28800
30
24.00000
0
VERTEX
8
8_24000
10
-46.92900
20
91.28800
30
24.00000
0
SEQEND
8
8_24000
0
POLYLINE
8
8_24000
62
5
0
VERTEX
8
8_24000
10
-29.03000
20
90.64600
30
24.00000
0
VERTEX
8
8_24000
10
-56.17000
20
90.64700
30
24.00000
0
VERTEX
8
8_24000
10
-56.17000
20
-92.11401
30
24.00000
0
VERTEX
8
8_24000
10
-1.48100
20
-92.11401
30
24.00000
0
VERTEX
8
8_24000
10
-1.64700
20
-91.67001
30
24.00000
0
VERTEX
8
8_24000
10
-1.87100
20
-91.11600
30
24.00000
0
VERTEX
8
8_24000
10
-3.58800
20
-86.94000
30
24.00000
0
VERTEX
8
8_24000
10
-3.79400
20
-86.46101
30
24.00000
0
VERTEX
8
8_24000
10
-4.71700
20
-83.78300
30
24.00000
0
VERTEX
8
8_24000
10
-5.01100
20
-82.87200
30
24.00000
0
VERTEX
8
8_24000
10
-5.95100
20
-79.77801
30
24.00000
0
VERTEX
8
8_24000
10
-6.44800
20
-78.52100
30
24.00000
0
VERTEX
8
8_24000
10
-6.62400
20
-77.78201
30
24.00000
0
VERTEX
8
8_24000
10
-6.62800
20
-77.53900
30
24.00000
0
VERTEX
8
8_24000
10
-6.67300
20
-77.30901
30
24.00000
0
VERTEX
8
8_24000
10
-6.60100
20
-76.79601
30
24.00000
0
VERTEX
8
8_24000
10
-6.54200
20
-76.64800
30
24.00000
0
VERTEX
8
8_24000
10
-5.92200
20
-75.59700
30
24.00000
0
VERTEX
8
8_24000
10
-5.09300
20
-74.39500
30
24.00000
0
VERTEX
8
8_24000
10
-4.83600
20
-74.00900
30
24.00000
0
VERTEX
8
8_24000
10
-4.17500
20
-72.89700
30
24.00000
0
VERTEX
8
8_24000
10
-3.83600
20
-72.41400
30
24.00000
0
VERTEX
8
8_24000
10
-2.33800
20
-70.09600
30
24.00000
0
VERTEX
8
8_24000
10
-1.96800
20
-69.67101
30
24.00000
0
VERTEX
8
8_24000
10
-1.64000
20
-69.23500
30
24.00000
0
VERTEX
8
8_24000
10
-1.40400
20
-68.81400
30
24.00000
0
VERTEX
8
8_24000
10
-1.25400
20
-68.52100
30
24.00000
0
VERTEX
8
8_24000
10
-0.83400
20
-67.95800
30
24.00000
0
VERTEX
8
8_24000
10
-0.58700
20
-67.59600
30
24.00000
0
VERTEX
8
8_24000
10
-0.04500
20
-66.88700
30
24.00000
0
VERTEX
8
8_24000
10
0.30600
20
-66.38100
30
24.00000
0
VERTEX
8
8_24000
10
0.46000
20
-66.23000
30
24.00000
0
VERTEX
8
8_24000
10
0.96800
20
-65.49600
30
24.00000
0
VERTEX
8
8_24000
10
1.00400
20
-65.38400
30
24.00000
0
VERTEX
8
8_24000
10
1.05400
20
-64.82201
30
24.00000
0
VERTEX
8
8_24000
10
1.20500
20
-64.50201
30
24.00000
0
VERTEX
8
8_24000
10
1.37800
20
-64.23500
30
24.00000
0
VERTEX
8
8_24000
10
1.60800
20
-63.77100
30
24.00000
0
VERTEX
8
8_24000
10
1.97600
20
-63.15600
30
24.00000
0
VERTEX
8
8_24000
10
2.07400
20
-62.94300
30
24.00000
0
VERTEX
8
8_24000
10
2.21900
20
-62.50700
30
24.00000
0
VERTEX
8
8_24000
10
2.46700
20
-62.12800
30
24.00000
0
VERTEX
8
8_24000
10
2.47100
20
-62.10200
30
24.00000
0
VERTEX
8
8_24000
10
2.58300
20
-61.92100
30
24.00000
0
VERTEX
8
8_24000
10
2.70900
20
-61.68600
30
24.00000
0
VERTEX
8
8_24000
10
3.01400
20
-60.96300
30
24.00000
0
VERTEX
8
8_24000
10
3.05200
20
-60.84800
30
24.00000
0
VERTEX
8
8_24000
10
3.11400
20
-60.22300
30
24.00000
0
VERTEX
8
8_24000
10
3.26300
20
-59.62000
30
24.00000
0
VERTEX
8
8_24000
10
3.48400
20
-59.18100
30
24.00000
0
VERTEX
8
8_24000
10
3.63800
20
-58.52300
30
24.00000
0
VERTEX
8
8_24000
10
4.06600
20
-57.75500
30
24.00000
0
VERTEX
8
8_24000
10
4.18200
20
-57.48900
30
24.00000
0
VERTEX
8
8_24000
10
4.28100
20
-57.10400
30
24.00000
0
VERTEX
8
8_24000
10
4.35300
20
-56.90700
30
24.00000
0
VERTEX
8
8_24000
10
4.49000
20
-56.70400
30
24.00000
0
VERTEX
8
8_24000
10
4.97300
20
-56.05600
30
24.00000
0
VERTEX
8
8_24000
10
5.64200
20
-54.74300
30
24.00000
0
VERTEX
8
8_24000
10
5.83900
20
-54.33600
30
24.00000
0
VERTEX
8
8_24000
10
6.45700
20
-52.79600
30
24.00000
0
VERTEX
8
8_24000
10
6.80900
20
-51.96300
30
24.00000
0
VERTEX
8
8_24000
10
6.94100
20
-51.59700
30
24.00000
0
VERTEX
8
8_24000
10
7.04700
20
-51.38300
30
24.00000
0
VERTEX
8
8_24000
10
7.10300
20
-51.20600
30
24.00000
0
VERTEX
8
8_24000
10
7.13000
20
-51.08300
30
24.00000
0
VERTEX
8
8_24000
10
7.28200
20
-50.79600
30
24.00000
0
VERTEX
8
8_24000
10
7.84600
20
-49.49900
30
24.00000
0
VERTEX
8
8_24000
10
8.14100
20
-49.04200
30
24.00000
0
VERTEX
8
8_24000
10
8.18600
20
-48.95300
30
24.00000
0
VERTEX
8
8_24000
10
8.22400
20
-48.77600
30
24.00000
0
VERTEX
8
8_24000
10
8.56900
20
-48.08800
30
24.00000
0
VERTEX
8
8_24000
10
8.82800
20
-47.62800
30
24.00000
0
VERTEX
8
8_24000
10
9.02400
20
-47.34200
30
24.00000
0
VERTEX
8
8_24000
10
10.25200
20
-45.02800
30
24.00000
0
VERTEX
8
8_24000
10
10.30200
20
-44.95000
30
24.00000
0
VERTEX
8
8_24000
10
10.83200
20
-43.90000
30
24.00000
0
VERTEX
8
8_24000
10
11.09900
20
-43.41400
30
24.00000
0
VERTEX
8
8_24000
10
11.17400
20
-43.22000
30
24.00000
0
VERTEX
8
8_24000
10
11.50800
20
-42.19100
30
24.00000
0
VERTEX
8
8_24000
10
11.69600
20
-41.49800
30
24.00000
0
VERTEX
8
8_24000
10
11.83600
20
-40.60200
30
24.00000
0
VERTEX
8
8_24000
10
11.89800
20
-40.30400
30
24.00000
0
VERTEX
8
8_24000
10
11.97900
20
-40.02200
30
24.00000
0
VERTEX
8
8_24000
10
12.00500
20
-39.98600
30
24.00000
0
VERTEX
8
8_24000
10
12.01800
20
-39.70000
30
24.00000
0
VERTEX
8
8_24000
10
12.43100
20
-38.46500
30
24.00000
0
VERTEX
8
8_24000
10
12.55200
20
-37.96100
30
24.00000
0
VERTEX
8
8_24000
10
12.76000
20
-37.24000
30
24.00000
0
VERTEX
8
8_24000
10
12.88600
20
-36.63600
30
24.00000
0
VERTEX
8
8_24000
10
12.96700
20
-36.30400
30
24.00000
0
VERTEX
8
8_24000
10
13.25400
20
-34.81200
30
24.00000
0
VERTEX
8
8_24000
10
13.32400
20
-34.31500
30
24.00000
0
VERTEX
8
8_24000
10
13.38600
20
-33.95000
30
24.00000
0
VERTEX
8
8_24000
10
13.52400
20
-33.36200
30
24.00000
0
VERTEX
8
8_24000
10
13.91900
20
-32.33200
30
24.00000
0
VERTEX
8
8_24000
10
14.33200
20
-30.80000
30
24.00000
0
VERTEX
8
8_24000
10
14.45100
20
-30.54900
30
24.00000
0
VERTEX
8
8_24000
10
14.56400
20
-30.18100
30
24.00000
0
VERTEX
8
8_24000
10
14.52500
20
-30.09400
30
24.00000
0
VERTEX
8
8_24000
10
14.47200
20
-29.81100
30
24.00000
0
VERTEX
8
8_24000
10
14.63500
20
-28.69700
30
24.00000
0
VERTEX
8
8_24000
10
14.67200
20
-28.60000
30
24.00000
0
VERTEX
8
8_24000
10
14.71300
20
-28.40600
30
24.00000
0
VERTEX
8
8_24000
10
14.74800
20
-27.87000
30
24.00000
0
VERTEX
8
8_24000
10
15.37600
20
-25.79700
30
24.00000
0
VERTEX
8
8_24000
10
15.58800
20
-24.96100
30
24.00000
0
VERTEX
8
8_24000
10
15.96800
20
-23.58900
30
24.00000
0
VERTEX
8
8_24000
10
16.38200
20
-21.71800
30
24.00000
0
VERTEX
8
8_24000
10
16.98600
20
-20.01400
30
24.00000
0
VERTEX
8
8_24000
10
17.09600
20
-19.67300
30
24.00000
0
VERTEX
8
8_24000
10
17.40800
20
-18.29700
30
24.00000
0
VERTEX
8
8_24000
10
17.62800
20
-17.55800
30
24.00000
0
VERTEX
8
8_24000
10
17.81400
20
-16.74100
30
24.00000
0
VERTEX
8
8_24000
10
17.96000
20
-16.27000
30
24.00000
0
VERTEX
8
8_24000
10
18.14900
20
-15.70100
30
24.00000
0
VERTEX
8
8_24000
10
18.45000
20
-14.49900
30
24.00000
0
VERTEX
8
8_24000
10
18.71500
20
-13.84300
30
24.00000
0
VERTEX
8
8_24000
10
19.77500
20
-10.77600
30
24.00000
0
VERTEX
8
8_24000
10
19.86100
20
-10.41800
30
24.00000
0
VERTEX
8
8_24000
10
20.84900
20
-7.38200
30
24.00000
0
VERTEX
8
8_24000
10
21.46700
20
-5.22400
30
24.00000
0
VERTEX
8
8_24000
10
21.81300
20
-4.10300
30
24.00000
0
VERTEX
8
8_24000
10
21.96400
20
-3.47500
30
24.00000
0
VERTEX
8
8_24000
10
22.06800
20
-3.08900
30
24.00000
0
VERTEX
8
8_24000
10
22.33100
20
-2.20100
30
24.00000
0
VERTEX
8
8_24000
10
22.52000
20
-1.43900
30
24.00000
0
VERTEX
8
8_24000
10
22.65400
20
-1.00900
30
24.00000
0
VERTEX
8
8_24000
10
23.26200
20
2.86900
30
24.00000
0
VERTEX
8
8_24000
10
23.30200
20
3.78400
30
24.00000
0
VERTEX
8
8_24000
10
23.41000
20
4.90600
30
24.00000
0
VERTEX
8
8_24000
10
23.42600
20
5.60300
30
24.00000
0
VERTEX
8
8_24000
10
23.47700
20
6.82600
30
24.00000
0
VERTEX
8
8_24000
10
23.43600
20
10.47700
30
24.00000
0
VERTEX
8
8_24000
10
23.38800
20
11.13500
30
24.00000
0
VERTEX
8
8_24000
10
23.01600
20
15.03500
30
24.00000
0
VERTEX
8
8_24000
10
22.90500
20
16.33900
30
24.00000
0
VERTEX
8
8_24000
10
22.56700
20
19.05700
30
24.00000
0
VERTEX
8
8_24000
10
22.51800
20
19.33800
30
24.00000
0
VERTEX
8
8_24000
10
21.84600
20
25.95600
30
24.00000
0
VERTEX
8
8_24000
10
21.03500
20
29.25700
30
24.00000
0
VERTEX
8
8_24000
10
20.92400
20
29.82900
30
24.00000
0
VERTEX
8
8_24000
10
20.50200
20
31.12400
30
24.00000
0
VERTEX
8
8_24000
10
20.42600
20
31.58600
30
24.00000
0
VERTEX
8
8_24000
10
20.35700
20
32.18100
30
24.00000
0
VERTEX
8
8_24000
10
20.04100
20
33.25300
30
24.00000
0
VERTEX
8
8_24000
10
19.94100
20
33.84000
30
24.00000
0
VERTEX
8
8_24000
10
19.91800
20
34.05800
30
24.00000
0
VERTEX
8
8_24000
10
19.89000
20
34.46100
30
24.00000
0
VERTEX
8
8_24000
10
19.89400
20
34.68100
30
24.00000
0
VERTEX
8
8_24000
10
20.07800
20
35.63900
30
24.00000
0
VERTEX
8
8_24000
10
20.03600
20
36.43700
30
24.00000
0
VERTEX
8
8_24000
10
20.13600
20
36.98300
30
24.00000
0
VERTEX
8
8_24000
10
20.04900
20
37.94700
30
24.00000
0
VERTEX
8
8_24000
10
20.05800
20
38.50400
30
24.00000
0
VERTEX
8
8_24000
10
20.09700
20
39.52000
30
24.00000
0
VERTEX
8
8_24000
10
20.31100
20
42.42900
30
24.00000
0
VERTEX
8
8_24000
10
20.47600
20
43.38000
30
24.00000
0
VERTEX
8
8_24000
10
20.73400
20
45.10600
30
24.00000
0
VERTEX
8
8_24000
10
21.01400
20
46.16600
30
24.00000
0
VERTEX
8
8_24000
10
21.40900
20
47.26400
30
24.00000
0
VERTEX
8
8_24000
10
21.45700
20
47.35200
30
24.00000
0
VERTEX
8
8_24000
10
21.63800
20
47.76900
30
24.00000
0
VERTEX
8
8_24000
10
22.12400
20
48.67200
30
24.00000
0
VERTEX
8
8_24000
10
22.57000
20
49.33900
30
24.00000
0
VERTEX
8
8_24000
10
22.88500
20
49.83700
30
24.00000
0
VERTEX
8
8_24000
10
22.98800
20
50.11600
30
24.00000
0
VERTEX
8
8_24000
10
23.42300
20
50.77700
30
24.00000
0
VERTEX
8
8_24000
10
23.72200
20
51.17600
30
24.00000
0
VERTEX
8
8_24000
10
23.84300
20
51.37600
30
24.00000
0
VERTEX
8
8_24000
10
24.00000
20
51.58300
30
24.00000
0
VERTEX
8
8_24000
10
24.55000
20
52.12600
30
24.00000
0
VERTEX
8
8_24000
10
24.91300
20
52.50100
30
24.00000
0
VERTEX
8
8_24000
10
25.02800
20
52.65000
30
24.00000
0
VERTEX
8
8_24000
10
25.81000
20
53.95900
30
24.00000
0
VERTEX
8
8_24000
10
25.96900
20
54.24600
30
24.00000
0
VERTEX
8
8_24000
10
26.09600
20
54.56200
30
24.00000
0
VERTEX
8
8_24000
10
26.57800
20
55.62300
30
24.00000
0
VERTEX
8
8_24000
10
26.65900
20
55.88800
30
24.00000
0
VERTEX
8
8_24000
10
26.91500
20
56.95600
30
24.00000
0
VERTEX
8
8_24000
10
27.01600
20
57.56000
30
24.00000
0
VERTEX
8
8_24000
10
27.40300
20
60.46500
30
24.00000
0
VERTEX
8
8_24000
10
27.53800
20
62.03500
30
24.00000
0
VERTEX
8
8_24000
10
27.68000
20
64.47200
30
24.00000
0
VERTEX
8
8_24000
10
27.91800
20
65.77000
30
24.00000
0
VERTEX
8
8_24000
10
28.13400
20
66.69701
30
24.00000
0
VERTEX
8
8_24000
10
28.53200
20
69.29800
30
24.00000
0
VERTEX
8
8_24000
10
28.53100
20
69.36000
30
24.00000
0
VERTEX
8
8_24000
10
28.40800
20
70.26801
30
24.00000
0
VERTEX
8
8_24000
10
28.36400
20
71.53101
30
24.00000
0
VERTEX
8
8_24000
10
28.34500
20
72.39600
30
24.00000
0
VERTEX
8
8_24000
10
28.21100
20
73.49400
30
24.00000
0
VERTEX
8
8_24000
10
28.07400
20
74.23701
30
24.00000
0
VERTEX
8
8_24000
10
27.65200
20
75.70400
30
24.00000
0
VERTEX
8
8_24000
10
27.45900
20
76.32900
30
24.00000
0
VERTEX
8
8_24000
10
27.33200
20
76.70500
30
24.00000
0
VERTEX
8
8_24000
10
26.46900
20
78.98701
30
24.00000
0
VERTEX
8
8_24000
10
24.65200
20
84.19300
30
24.00000
0
VERTEX
8
8_24000
10
24.45100
20
84.69801
30
24.00000
0
VERTEX
8
8_24000
10
23.23100
20
87.93600
30
24.00000
0
VERTEX
8
8_24000
10
6.98800
20
90.64700
30
24.00000
0
VERTEX
8
8_24000
10
-29.03000
20
90.64600
30
24.00000
0
SEQEND
8
8_24000
0
POLYLINE
8
8_24000
62
5
0
VERTEX
8
8_24000
10
-46.21800
20
90.99400
30
24.00000
0
VERTEX
8
8_24000
10
4.90200
20
90.99400
30
24.00000
0
VERTEX
8
8_24000
10
3.15000
20
91.28600
30
24.00000
0
VERTEX
8
8_24000
10
-56.17000
20
91.28600
30
24.00000
0
VERTEX
8
8_24000
10
-56.17000
20
90.99400
30
24.00000
0
VERTEX
8
8_24000
10
-46.21800
20
90.99400
30
24.00000
0
SEQEND
8
8_24000
0
POLYLINE
8
8_24000
62
5
0
VERTEX
8
8_24000
10
6.15200
20
90.78400
30
24.00000
0
VERTEX
8
8_24000
10
4.91100
20
90.99300
30
24.00000
0
VERTEX
8
8_24000
10
-56.17000
20
90.99300
30
24.00000
0
VERTEX
8
8_24000
10
-56.17000
20
90.64700
30
24.00000
0
VERTEX
8
8_24000
10
6.98600
20
90.64700
30
24.00000
0
VERTEX
8
8_24000
10
6.15200
20
90.78400
30
24.00000
0
SEQEND
8
8_24000
0
ENDSEC
0
EOF
