0
SECTION
2
HEADER
9
$ACADVER
1
AC1009
0
ENDSEC
0
SECTION
2
TABLES
0
TABLE
2
LAYER
70
1
0
LAYER
2
46_138000
70
0
62
7
6
CONTINUOUS
0
ENDTAB
0
ENDSEC
0
SECTION
2
BLOCKS
0
ENDSEC
0
SECTION
2
ENTITIES
0
POLYLINE
8
46_138000
62
5
0
VERTEX
8
46_138000
10
-53.11200
20
91.96900
30
138.00000
0
VERTEX
8
46_138000
10
-0.92900
20
91.96900
30
138.00000
0
VERTEX
8
46_138000
10
-1.49000
20
92.06200
30
138.00000
0
VERTEX
8
46_138000
10
-56.17000
20
92.06200
30
138.00000
0
VERTEX
8
46_138000
10
-56.17000
20
91.96900
30
138.00000
0
VERTEX
8
46_138000
10
-53.11200
20
91.96900
30
138.00000
0
SEQEND
8
46_138000
0
POLYLINE
8
46_138000
62
5
0
VERTEX
8
46_138000
10
-53.57900
20
91.91601
30
138.00000
0
VERTEX
8
46_138000
10
-0.61600
20
91.91601
30
138.00000
0
VERTEX
8
46_138000
10
-0.88800
20
91.96201
30
138.00000
0
VERTEX
8
46_138000
10
-56.17000
20
91.96201
30
138.00000
0
VERTEX
8
46_138000
10
-56.17000
20
91.91601
30
138.00000
0
VERTEX
8
46_138000
10
-53.57900
20
91.91601
30
138.00000
0
SEQEND
8
46_138000
0
POLYLINE
8
46_138000
62
5
0
VERTEX
8
46_138000
10
-56.17000
20
91.89001
30
138.00000
0
VERTEX
8
46_138000
10
-56.17000
20
91.84000
30
138.00000
0
VERTEX
8
46_138000
10
-0.16000
20
91.84000
30
138.00000
0
VERTEX
8
46_138000
10
-0.60500
20
91.91300
30
138.00000
0
VERTEX
8
46_138000
10
-56.17000
20
91.91300
30
138.00000
0
VERTEX
8
46_138000
10
-56.17000
20
91.89001
30
138.00000
0
SEQEND
8
46_138000
0
POLYLINE
8
46_138000
62
5
0
VERTEX
8
46_138000
10
-56.17000
20
91.59701
30
138.00000
0
VERTEX
8
46_138000
10
-56.17000
20
91.46800
30
138.00000
0
VERTEX
8
46_138000
10
2.05700
20
91.46800
30
138.00000
0
VERTEX
8
46_138000
10
-0.12600
20
91.83200
30
138.00000
0
VERTEX
8
46_138000
10
-56.17000
20
91.83200
30
138.00000
0
VERTEX
8
46_138000
10
-56.17000
20
91.59701
30
138.00000
0
SEQEND
8
46_138000
0
POLYLINE
8
46_138000
62
5
0
VERTEX
8
46_138000
10
-56.17000
20
91.34801
30
138.00000
0
VERTEX
8
46_138000
10
-56.17000
20
-92.11401
30
138.00000
0
VERTEX
8
46_138000
10
30.56700
20
-92.11401
30
138.00000
0
VERTEX
8
46_138000
10
29.52500
20
-90.53101
30
138.00000
0
VERTEX
8
46_138000
10
28.90600
20
-89.62601
30
138.00000
0
VERTEX
8
46_138000
10
28.28300
20
-88.75001
30
138.00000
0
VERTEX
8
46_138000
10
27.51900
20
-87.70200
30
138.00000
0
VERTEX
8
46_138000
10
25.70200
20
-85.07001
30
138.00000
0
VERTEX
8
46_138000
10
24.85800
20
-83.86401
30
138.00000
0
VERTEX
8
46_138000
10
24.65300
20
-83.54900
30
138.00000
0
VERTEX
8
46_138000
10
23.74500
20
-82.28900
30
138.00000
0
VERTEX
8
46_138000
10
23.62500
20
-82.08801
30
138.00000
0
VERTEX
8
46_138000
10
23.09600
20
-81.33501
30
138.00000
0
VERTEX
8
46_138000
10
22.42500
20
-80.44000
30
138.00000
0
VERTEX
8
46_138000
10
20.67200
20
-78.13200
30
138.00000
0
VERTEX
8
46_138000
10
19.67900
20
-76.88900
30
138.00000
0
VERTEX
8
46_138000
10
18.05800
20
-74.69501
30
138.00000
0
VERTEX
8
46_138000
10
17.44600
20
-73.85300
30
138.00000
0
VERTEX
8
46_138000
10
15.31200
20
-71.00500
30
138.00000
0
VERTEX
8
46_138000
10
11.35300
20
-65.57000
30
138.00000
0
VERTEX
8
46_138000
10
10.84500
20
-64.80400
30
138.00000
0
VERTEX
8
46_138000
10
9.24000
20
-62.55100
30
138.00000
0
VERTEX
8
46_138000
10
8.81700
20
-62.00400
30
138.00000
0
VERTEX
8
46_138000
10
8.24200
20
-61.18400
30
138.00000
0
VERTEX
8
46_138000
10
7.92400
20
-60.79000
30
138.00000
0
VERTEX
8
46_138000
10
6.51200
20
-58.64700
30
138.00000
0
VERTEX
8
46_138000
10
6.21100
20
-58.12600
30
138.00000
0
VERTEX
8
46_138000
10
5.76800
20
-57.12700
30
138.00000
0
VERTEX
8
46_138000
10
5.58400
20
-56.67200
30
138.00000
0
VERTEX
8
46_138000
10
5.52300
20
-56.41200
30
138.00000
0
VERTEX
8
46_138000
10
5.48800
20
-56.12900
30
138.00000
0
VERTEX
8
46_138000
10
5.36200
20
-55.53500
30
138.00000
0
VERTEX
8
46_138000
10
5.14300
20
-54.96000
30
138.00000
0
VERTEX
8
46_138000
10
4.89900
20
-54.12900
30
138.00000
0
VERTEX
8
46_138000
10
4.72300
20
-53.26300
30
138.00000
0
VERTEX
8
46_138000
10
4.60400
20
-52.74100
30
138.00000
0
VERTEX
8
46_138000
10
4.10600
20
-51.33500
30
138.00000
0
VERTEX
8
46_138000
10
3.94900
20
-51.03600
30
138.00000
0
VERTEX
8
46_138000
10
3.80200
20
-50.43100
30
138.00000
0
VERTEX
8
46_138000
10
3.54000
20
-49.86800
30
138.00000
0
VERTEX
8
46_138000
10
3.30000
20
-49.39100
30
138.00000
0
VERTEX
8
46_138000
10
3.25000
20
-49.16400
30
138.00000
0
VERTEX
8
46_138000
10
2.55600
20
-46.89700
30
138.00000
0
VERTEX
8
46_138000
10
2.44000
20
-46.43300
30
138.00000
0
VERTEX
8
46_138000
10
2.42600
20
-46.34500
30
138.00000
0
VERTEX
8
46_138000
10
2.36700
20
-46.25900
30
138.00000
0
VERTEX
8
46_138000
10
2.34200
20
-45.88400
30
138.00000
0
VERTEX
8
46_138000
10
2.35700
20
-44.74700
30
138.00000
0
VERTEX
8
46_138000
10
2.37200
20
-44.63300
30
138.00000
0
VERTEX
8
46_138000
10
2.39800
20
-43.60800
30
138.00000
0
VERTEX
8
46_138000
10
2.43600
20
-42.90200
30
138.00000
0
VERTEX
8
46_138000
10
2.56700
20
-41.93300
30
138.00000
0
VERTEX
8
46_138000
10
2.63900
20
-41.13900
30
138.00000
0
VERTEX
8
46_138000
10
2.70100
20
-40.89300
30
138.00000
0
VERTEX
8
46_138000
10
3.04700
20
-39.00700
30
138.00000
0
VERTEX
8
46_138000
10
3.07800
20
-38.48100
30
138.00000
0
VERTEX
8
46_138000
10
3.40100
20
-37.35400
30
138.00000
0
VERTEX
8
46_138000
10
3.82400
20
-35.79200
30
138.00000
0
VERTEX
8
46_138000
10
4.15800
20
-34.00500
30
138.00000
0
VERTEX
8
46_138000
10
4.48800
20
-32.30100
30
138.00000
0
VERTEX
8
46_138000
10
5.00400
20
-30.36100
30
138.00000
0
VERTEX
8
46_138000
10
5.18100
20
-29.80200
30
138.00000
0
VERTEX
8
46_138000
10
5.38400
20
-28.64200
30
138.00000
0
VERTEX
8
46_138000
10
5.43700
20
-27.23900
30
138.00000
0
VERTEX
8
46_138000
10
5.59000
20
-25.88900
30
138.00000
0
VERTEX
8
46_138000
10
5.61300
20
-25.48200
30
138.00000
0
VERTEX
8
46_138000
10
5.65000
20
-25.24000
30
138.00000
0
VERTEX
8
46_138000
10
6.07200
20
-22.59200
30
138.00000
0
VERTEX
8
46_138000
10
6.30100
20
-21.62300
30
138.00000
0
VERTEX
8
46_138000
10
6.38100
20
-20.95200
30
138.00000
0
VERTEX
8
46_138000
10
6.60600
20
-20.29500
30
138.00000
0
VERTEX
8
46_138000
10
6.65200
20
-20.08800
30
138.00000
0
VERTEX
8
46_138000
10
6.69700
20
-19.93400
30
138.00000
0
VERTEX
8
46_138000
10
6.68700
20
-19.54700
30
138.00000
0
VERTEX
8
46_138000
10
6.79100
20
-17.30300
30
138.00000
0
VERTEX
8
46_138000
10
6.77200
20
-16.80700
30
138.00000
0
VERTEX
8
46_138000
10
6.84500
20
-16.13000
30
138.00000
0
VERTEX
8
46_138000
10
6.84300
20
-16.01400
30
138.00000
0
VERTEX
8
46_138000
10
6.87600
20
-15.53800
30
138.00000
0
VERTEX
8
46_138000
10
6.94800
20
-14.98800
30
138.00000
0
VERTEX
8
46_138000
10
7.38600
20
-12.24800
30
138.00000
0
VERTEX
8
46_138000
10
7.47000
20
-11.67200
30
138.00000
0
VERTEX
8
46_138000
10
7.51500
20
-10.65500
30
138.00000
0
VERTEX
8
46_138000
10
7.51900
20
-9.68900
30
138.00000
0
VERTEX
8
46_138000
10
7.57400
20
-9.27900
30
138.00000
0
VERTEX
8
46_138000
10
7.72000
20
-8.46000
30
138.00000
0
VERTEX
8
46_138000
10
7.77100
20
-7.56600
30
138.00000
0
VERTEX
8
46_138000
10
7.83200
20
-6.16200
30
138.00000
0
VERTEX
8
46_138000
10
7.86000
20
-6.05900
30
138.00000
0
VERTEX
8
46_138000
10
7.89400
20
-5.12400
30
138.00000
0
VERTEX
8
46_138000
10
7.92100
20
-4.69300
30
138.00000
0
VERTEX
8
46_138000
10
7.96700
20
-4.25300
30
138.00000
0
VERTEX
8
46_138000
10
7.95400
20
-3.32900
30
138.00000
0
VERTEX
8
46_138000
10
8.04500
20
-1.61200
30
138.00000
0
VERTEX
8
46_138000
10
8.01200
20
-0.40500
30
138.00000
0
VERTEX
8
46_138000
10
7.89200
20
1.52500
30
138.00000
0
VERTEX
8
46_138000
10
7.89300
20
2.20500
30
138.00000
0
VERTEX
8
46_138000
10
7.77300
20
3.66000
30
138.00000
0
VERTEX
8
46_138000
10
7.61700
20
5.38200
30
138.00000
0
VERTEX
8
46_138000
10
7.07300
20
8.60600
30
138.00000
0
VERTEX
8
46_138000
10
6.90900
20
9.84300
30
138.00000
0
VERTEX
8
46_138000
10
6.42800
20
11.77500
30
138.00000
0
VERTEX
8
46_138000
10
6.07000
20
13.08700
30
138.00000
0
VERTEX
8
46_138000
10
5.16800
20
16.74200
30
138.00000
0
VERTEX
8
46_138000
10
4.48400
20
19.04200
30
138.00000
0
VERTEX
8
46_138000
10
3.43800
20
22.26200
30
138.00000
0
VERTEX
8
46_138000
10
2.89500
20
24.16500
30
138.00000
0
VERTEX
8
46_138000
10
2.76900
20
24.66600
30
138.00000
0
VERTEX
8
46_138000
10
1.62000
20
27.92200
30
138.00000
0
VERTEX
8
46_138000
10
0.76800
20
30.58400
30
138.00000
0
VERTEX
8
46_138000
10
0.63900
20
30.96100
30
138.00000
0
VERTEX
8
46_138000
10
0.58900
20
31.13700
30
138.00000
0
VERTEX
8
46_138000
10
0.19900
20
32.29000
30
138.00000
0
VERTEX
8
46_138000
10
-1.03800
20
35.85600
30
138.00000
0
VERTEX
8
46_138000
10
-1.62200
20
37.45100
30
138.00000
0
VERTEX
8
46_138000
10
-2.24000
20
39.38000
30
138.00000
0
VERTEX
8
46_138000
10
-3.33800
20
42.34400
30
138.00000
0
VERTEX
8
46_138000
10
-4.08400
20
44.70300
30
138.00000
0
VERTEX
8
46_138000
10
-4.84400
20
48.62900
30
138.00000
0
VERTEX
8
46_138000
10
-5.27600
20
51.62900
30
138.00000
0
VERTEX
8
46_138000
10
-5.40000
20
53.74600
30
138.00000
0
VERTEX
8
46_138000
10
-5.46100
20
54.13800
30
138.00000
0
VERTEX
8
46_138000
10
-5.45900
20
55.60100
30
138.00000
0
VERTEX
8
46_138000
10
-5.37700
20
57.39700
30
138.00000
0
VERTEX
8
46_138000
10
-4.84700
20
59.36300
30
138.00000
0
VERTEX
8
46_138000
10
-4.84200
20
59.41000
30
138.00000
0
VERTEX
8
46_138000
10
-4.53200
20
60.38000
30
138.00000
0
VERTEX
8
46_138000
10
-3.40100
20
64.05200
30
138.00000
0
VERTEX
8
46_138000
10
-3.26100
20
64.39101
30
138.00000
0
VERTEX
8
46_138000
10
-3.02800
20
65.16300
30
138.00000
0
VERTEX
8
46_138000
10
-2.70900
20
66.01200
30
138.00000
0
VERTEX
8
46_138000
10
-2.06400
20
67.60400
30
138.00000
0
VERTEX
8
46_138000
10
-1.19200
20
69.46301
30
138.00000
0
VERTEX
8
46_138000
10
-1.03800
20
69.74900
30
138.00000
0
VERTEX
8
46_138000
10
-0.25000
20
72.15000
30
138.00000
0
VERTEX
8
46_138000
10
0.01900
20
72.83701
30
138.00000
0
VERTEX
8
46_138000
10
0.63300
20
74.78101
30
138.00000
0
VERTEX
8
46_138000
10
1.17200
20
78.00401
30
138.00000
0
VERTEX
8
46_138000
10
1.41900
20
79.78700
30
138.00000
0
VERTEX
8
46_138000
10
1.65000
20
82.42300
30
138.00000
0
VERTEX
8
46_138000
10
1.79400
20
83.31900
30
138.00000
0
VERTEX
8
46_138000
10
1.82600
20
83.59801
30
138.00000
0
VERTEX
8
46_138000
10
1.84500
20
84.09400
30
138.00000
0
VERTEX
8
46_138000
10
1.98100
20
84.96700
30
138.00000
0
VERTEX
8
46_138000
10
2.06100
20
85.58501
30
138.00000
0
VERTEX
8
46_138000
10
2.09500
20
85.70600
30
138.00000
0
VERTEX
8
46_138000
10
2.15000
20
86.12701
30
138.00000
0
VERTEX
8
46_138000
10
2.28800
20
87.62701
30
138.00000
0
VERTEX
8
46_138000
10
2.43200
20
88.72000
30
138.00000
0
VERTEX
8
46_138000
10
2.47600
20
88.91100
30
138.00000
0
VERTEX
8
46_138000
10
2.50900
20
89.28500
30
138.00000
0
VERTEX
8
46_138000
10
2.74600
20
90.37801
30
138.00000
0
VERTEX
8
46_138000
10
2.80000
20
91.26401
30
138.00000
0
VERTEX
8
46_138000
10
2.79900
20
91.34500
30
138.00000
0
VERTEX
8
46_138000
10
2.09100
20
91.46500
30
138.00000
0
VERTEX
8
46_138000
10
-56.17000
20
91.46500
30
138.00000
0
VERTEX
8
46_138000
10
-56.17000
20
91.34801
30
138.00000
0
SEQEND
8
46_138000
0
ENDSEC
0
EOF
