0
SECTION
2
HEADER
9
$ACADVER
1
AC1009
0
ENDSEC
0
SECTION
2
TABLES
0
TABLE
2
LAYER
70
1
0
LAYER
2
35_105000
70
0
62
7
6
CONTINUOUS
0
ENDTAB
0
ENDSEC
0
SECTION
2
BLOCKS
0
ENDSEC
0
SECTION
2
ENTITIES
0
POLYLINE
8
35_105000
62
5
0
VERTEX
8
35_105000
10
-56.17000
20
91.79401
30
105.00000
0
VERTEX
8
35_105000
10
0.11500
20
91.79301
30
105.00000
0
VERTEX
8
35_105000
10
-0.30900
20
91.86401
30
105.00000
0
VERTEX
8
35_105000
10
-56.17000
20
91.86401
30
105.00000
0
VERTEX
8
35_105000
10
-56.17000
20
91.79401
30
105.00000
0
SEQEND
8
35_105000
0
POLYLINE
8
35_105000
62
5
0
VERTEX
8
35_105000
10
-43.95300
20
91.75301
30
105.00000
0
VERTEX
8
35_105000
10
0.35200
20
91.75301
30
105.00000
0
VERTEX
8
35_105000
10
0.14600
20
91.78800
30
105.00000
0
VERTEX
8
35_105000
10
-56.17000
20
91.78800
30
105.00000
0
VERTEX
8
35_105000
10
-56.17000
20
91.75301
30
105.00000
0
VERTEX
8
35_105000
10
-43.95300
20
91.75301
30
105.00000
0
SEQEND
8
35_105000
0
POLYLINE
8
35_105000
62
5
0
VERTEX
8
35_105000
10
-56.17000
20
91.74100
30
105.00000
0
VERTEX
8
35_105000
10
-56.17000
20
91.69701
30
105.00000
0
VERTEX
8
35_105000
10
0.69700
20
91.69701
30
105.00000
0
VERTEX
8
35_105000
10
0.35900
20
91.75301
30
105.00000
0
VERTEX
8
35_105000
10
-56.17000
20
91.75301
30
105.00000
0
VERTEX
8
35_105000
10
-56.17000
20
91.74100
30
105.00000
0
SEQEND
8
35_105000
0
POLYLINE
8
35_105000
62
5
0
VERTEX
8
35_105000
10
-56.17000
20
91.51900
30
105.00000
0
VERTEX
8
35_105000
10
-56.17000
20
91.41601
30
105.00000
0
VERTEX
8
35_105000
10
2.37200
20
91.41601
30
105.00000
0
VERTEX
8
35_105000
10
0.72200
20
91.69100
30
105.00000
0
VERTEX
8
35_105000
10
-56.17000
20
91.69100
30
105.00000
0
VERTEX
8
35_105000
10
-56.17000
20
91.51900
30
105.00000
0
SEQEND
8
35_105000
0
POLYLINE
8
35_105000
62
5
0
VERTEX
8
35_105000
10
-56.17000
20
82.81001
30
105.00000
0
VERTEX
8
35_105000
10
-56.17000
20
-92.11401
30
105.00000
0
VERTEX
8
35_105000
10
30.03500
20
-92.11401
30
105.00000
0
VERTEX
8
35_105000
10
29.75300
20
-91.31300
30
105.00000
0
VERTEX
8
35_105000
10
29.37800
20
-90.42800
30
105.00000
0
VERTEX
8
35_105000
10
28.70000
20
-88.35201
30
105.00000
0
VERTEX
8
35_105000
10
28.60500
20
-88.09200
30
105.00000
0
VERTEX
8
35_105000
10
28.37800
20
-87.27801
30
105.00000
0
VERTEX
8
35_105000
10
28.09700
20
-86.21900
30
105.00000
0
VERTEX
8
35_105000
10
27.96300
20
-85.66000
30
105.00000
0
VERTEX
8
35_105000
10
27.91700
20
-85.43501
30
105.00000
0
VERTEX
8
35_105000
10
27.95000
20
-85.28300
30
105.00000
0
VERTEX
8
35_105000
10
27.97200
20
-85.02100
30
105.00000
0
VERTEX
8
35_105000
10
28.09600
20
-84.68700
30
105.00000
0
VERTEX
8
35_105000
10
28.72500
20
-83.40900
30
105.00000
0
VERTEX
8
35_105000
10
29.24100
20
-82.53201
30
105.00000
0
VERTEX
8
35_105000
10
29.47900
20
-81.96700
30
105.00000
0
VERTEX
8
35_105000
10
29.53100
20
-81.61700
30
105.00000
0
VERTEX
8
35_105000
10
29.51000
20
-81.46700
30
105.00000
0
VERTEX
8
35_105000
10
29.64200
20
-81.04100
30
105.00000
0
VERTEX
8
35_105000
10
29.79100
20
-80.63901
30
105.00000
0
VERTEX
8
35_105000
10
30.09100
20
-79.57700
30
105.00000
0
VERTEX
8
35_105000
10
30.09000
20
-79.54700
30
105.00000
0
VERTEX
8
35_105000
10
30.10100
20
-79.51401
30
105.00000
0
VERTEX
8
35_105000
10
30.25800
20
-78.42200
30
105.00000
0
VERTEX
8
35_105000
10
30.38900
20
-78.07101
30
105.00000
0
VERTEX
8
35_105000
10
30.50400
20
-77.48000
30
105.00000
0
VERTEX
8
35_105000
10
30.45900
20
-77.21201
30
105.00000
0
VERTEX
8
35_105000
10
30.31900
20
-76.59300
30
105.00000
0
VERTEX
8
35_105000
10
30.32100
20
-76.31700
30
105.00000
0
VERTEX
8
35_105000
10
30.34100
20
-76.25800
30
105.00000
0
VERTEX
8
35_105000
10
30.33800
20
-75.66801
30
105.00000
0
VERTEX
8
35_105000
10
30.28000
20
-75.32301
30
105.00000
0
VERTEX
8
35_105000
10
30.26300
20
-75.26701
30
105.00000
0
VERTEX
8
35_105000
10
30.02100
20
-73.64600
30
105.00000
0
VERTEX
8
35_105000
10
30.00900
20
-73.52700
30
105.00000
0
VERTEX
8
35_105000
10
30.02100
20
-73.42700
30
105.00000
0
VERTEX
8
35_105000
10
30.12400
20
-72.86900
30
105.00000
0
VERTEX
8
35_105000
10
30.11700
20
-72.76100
30
105.00000
0
VERTEX
8
35_105000
10
30.00800
20
-72.48600
30
105.00000
0
VERTEX
8
35_105000
10
30.02700
20
-71.89301
30
105.00000
0
VERTEX
8
35_105000
10
30.04300
20
-71.67300
30
105.00000
0
VERTEX
8
35_105000
10
29.89200
20
-71.10700
30
105.00000
0
VERTEX
8
35_105000
10
29.87400
20
-70.58801
30
105.00000
0
VERTEX
8
35_105000
10
29.82000
20
-70.36800
30
105.00000
0
VERTEX
8
35_105000
10
29.80700
20
-70.01701
30
105.00000
0
VERTEX
8
35_105000
10
29.52700
20
-69.62000
30
105.00000
0
VERTEX
8
35_105000
10
29.45400
20
-69.26801
30
105.00000
0
VERTEX
8
35_105000
10
29.40300
20
-68.81100
30
105.00000
0
VERTEX
8
35_105000
10
29.24300
20
-68.19601
30
105.00000
0
VERTEX
8
35_105000
10
29.14100
20
-67.32800
30
105.00000
0
VERTEX
8
35_105000
10
29.13000
20
-67.15200
30
105.00000
0
VERTEX
8
35_105000
10
28.97100
20
-66.67400
30
105.00000
0
VERTEX
8
35_105000
10
28.93000
20
-66.31700
30
105.00000
0
VERTEX
8
35_105000
10
28.52200
20
-65.30500
30
105.00000
0
VERTEX
8
35_105000
10
28.42100
20
-64.66800
30
105.00000
0
VERTEX
8
35_105000
10
28.31400
20
-64.17300
30
105.00000
0
VERTEX
8
35_105000
10
28.27400
20
-63.83400
30
105.00000
0
VERTEX
8
35_105000
10
27.94800
20
-62.48600
30
105.00000
0
VERTEX
8
35_105000
10
27.79900
20
-61.66700
30
105.00000
0
VERTEX
8
35_105000
10
27.65000
20
-60.24500
30
105.00000
0
VERTEX
8
35_105000
10
27.55500
20
-59.87000
30
105.00000
0
VERTEX
8
35_105000
10
27.48200
20
-59.70400
30
105.00000
0
VERTEX
8
35_105000
10
27.15500
20
-58.57400
30
105.00000
0
VERTEX
8
35_105000
10
27.14600
20
-58.41000
30
105.00000
0
VERTEX
8
35_105000
10
27.01700
20
-57.57500
30
105.00000
0
VERTEX
8
35_105000
10
26.90700
20
-56.36500
30
105.00000
0
VERTEX
8
35_105000
10
26.85100
20
-55.62100
30
105.00000
0
VERTEX
8
35_105000
10
26.77200
20
-54.97100
30
105.00000
0
VERTEX
8
35_105000
10
26.74600
20
-54.36100
30
105.00000
0
VERTEX
8
35_105000
10
26.79400
20
-53.06000
30
105.00000
0
VERTEX
8
35_105000
10
26.87600
20
-52.28100
30
105.00000
0
VERTEX
8
35_105000
10
26.92400
20
-51.46300
30
105.00000
0
VERTEX
8
35_105000
10
26.97800
20
-51.07200
30
105.00000
0
VERTEX
8
35_105000
10
27.18200
20
-49.12000
30
105.00000
0
VERTEX
8
35_105000
10
27.28700
20
-47.57300
30
105.00000
0
VERTEX
8
35_105000
10
27.34100
20
-47.17600
30
105.00000
0
VERTEX
8
35_105000
10
27.42500
20
-46.37300
30
105.00000
0
VERTEX
8
35_105000
10
27.42100
20
-46.23800
30
105.00000
0
VERTEX
8
35_105000
10
27.52300
20
-45.49800
30
105.00000
0
VERTEX
8
35_105000
10
27.72000
20
-42.53800
30
105.00000
0
VERTEX
8
35_105000
10
27.85400
20
-40.38900
30
105.00000
0
VERTEX
8
35_105000
10
27.77000
20
-38.83000
30
105.00000
0
VERTEX
8
35_105000
10
27.72200
20
-38.21200
30
105.00000
0
VERTEX
8
35_105000
10
27.55500
20
-35.68000
30
105.00000
0
VERTEX
8
35_105000
10
27.54600
20
-35.57900
30
105.00000
0
VERTEX
8
35_105000
10
27.48000
20
-35.20100
30
105.00000
0
VERTEX
8
35_105000
10
27.48100
20
-35.04100
30
105.00000
0
VERTEX
8
35_105000
10
27.15900
20
-32.79200
30
105.00000
0
VERTEX
8
35_105000
10
26.82800
20
-31.45500
30
105.00000
0
VERTEX
8
35_105000
10
26.63300
20
-30.62500
30
105.00000
0
VERTEX
8
35_105000
10
26.28400
20
-29.02400
30
105.00000
0
VERTEX
8
35_105000
10
26.07100
20
-27.99500
30
105.00000
0
VERTEX
8
35_105000
10
25.78900
20
-26.86000
30
105.00000
0
VERTEX
8
35_105000
10
25.78200
20
-26.75700
30
105.00000
0
VERTEX
8
35_105000
10
25.37900
20
-25.31400
30
105.00000
0
VERTEX
8
35_105000
10
24.47200
20
-23.07900
30
105.00000
0
VERTEX
8
35_105000
10
24.09200
20
-21.88100
30
105.00000
0
VERTEX
8
35_105000
10
24.10400
20
-21.51000
30
105.00000
0
VERTEX
8
35_105000
10
24.36700
20
-20.80600
30
105.00000
0
VERTEX
8
35_105000
10
24.44000
20
-20.71800
30
105.00000
0
VERTEX
8
35_105000
10
26.75900
20
-18.30300
30
105.00000
0
VERTEX
8
35_105000
10
28.15000
20
-16.97100
30
105.00000
0
VERTEX
8
35_105000
10
28.45500
20
-16.64500
30
105.00000
0
VERTEX
8
35_105000
10
28.66700
20
-16.38800
30
105.00000
0
VERTEX
8
35_105000
10
28.83800
20
-16.07200
30
105.00000
0
VERTEX
8
35_105000
10
29.16300
20
-15.54600
30
105.00000
0
VERTEX
8
35_105000
10
29.53100
20
-14.79600
30
105.00000
0
VERTEX
8
35_105000
10
29.62100
20
-13.78200
30
105.00000
0
VERTEX
8
35_105000
10
29.60300
20
-13.20700
30
105.00000
0
VERTEX
8
35_105000
10
29.65500
20
-13.04500
30
105.00000
0
VERTEX
8
35_105000
10
29.55500
20
-12.26000
30
105.00000
0
VERTEX
8
35_105000
10
29.49800
20
-11.72000
30
105.00000
0
VERTEX
8
35_105000
10
29.49300
20
-11.51900
30
105.00000
0
VERTEX
8
35_105000
10
29.46200
20
-11.04000
30
105.00000
0
VERTEX
8
35_105000
10
29.43900
20
-10.92700
30
105.00000
0
VERTEX
8
35_105000
10
29.49200
20
-10.38900
30
105.00000
0
VERTEX
8
35_105000
10
29.44300
20
-9.86300
30
105.00000
0
VERTEX
8
35_105000
10
29.23500
20
-9.33700
30
105.00000
0
VERTEX
8
35_105000
10
29.07100
20
-8.81000
30
105.00000
0
VERTEX
8
35_105000
10
29.02500
20
-8.45600
30
105.00000
0
VERTEX
8
35_105000
10
28.92700
20
-8.18800
30
105.00000
0
VERTEX
8
35_105000
10
28.78800
20
-7.30900
30
105.00000
0
VERTEX
8
35_105000
10
28.78800
20
-6.62800
30
105.00000
0
VERTEX
8
35_105000
10
28.74300
20
-5.54200
30
105.00000
0
VERTEX
8
35_105000
10
28.69400
20
-5.25100
30
105.00000
0
VERTEX
8
35_105000
10
28.64500
20
-2.40100
30
105.00000
0
VERTEX
8
35_105000
10
28.70800
20
-0.36200
30
105.00000
0
VERTEX
8
35_105000
10
28.75500
20
0.19300
30
105.00000
0
VERTEX
8
35_105000
10
28.78900
20
0.36000
30
105.00000
0
VERTEX
8
35_105000
10
29.14700
20
3.25000
30
105.00000
0
VERTEX
8
35_105000
10
29.33300
20
4.44400
30
105.00000
0
VERTEX
8
35_105000
10
29.53200
20
5.62500
30
105.00000
0
VERTEX
8
35_105000
10
29.73500
20
6.90200
30
105.00000
0
VERTEX
8
35_105000
10
29.94700
20
8.55900
30
105.00000
0
VERTEX
8
35_105000
10
29.97100
20
8.89700
30
105.00000
0
VERTEX
8
35_105000
10
30.15300
20
9.93000
30
105.00000
0
VERTEX
8
35_105000
10
30.33700
20
11.69400
30
105.00000
0
VERTEX
8
35_105000
10
30.43900
20
13.60700
30
105.00000
0
VERTEX
8
35_105000
10
30.44200
20
13.99600
30
105.00000
0
VERTEX
8
35_105000
10
30.42700
20
14.20900
30
105.00000
0
VERTEX
8
35_105000
10
30.37300
20
15.90800
30
105.00000
0
VERTEX
8
35_105000
10
30.35500
20
16.26100
30
105.00000
0
VERTEX
8
35_105000
10
30.20200
20
17.67700
30
105.00000
0
VERTEX
8
35_105000
10
30.06500
20
18.78700
30
105.00000
0
VERTEX
8
35_105000
10
29.92700
20
19.68500
30
105.00000
0
VERTEX
8
35_105000
10
29.65600
20
21.13700
30
105.00000
0
VERTEX
8
35_105000
10
29.42900
20
22.21100
30
105.00000
0
VERTEX
8
35_105000
10
29.33600
20
22.52200
30
105.00000
0
VERTEX
8
35_105000
10
28.86600
20
24.25600
30
105.00000
0
VERTEX
8
35_105000
10
28.21100
20
26.52800
30
105.00000
0
VERTEX
8
35_105000
10
27.96100
20
27.43900
30
105.00000
0
VERTEX
8
35_105000
10
27.59400
20
28.48100
30
105.00000
0
VERTEX
8
35_105000
10
27.33500
20
29.46200
30
105.00000
0
VERTEX
8
35_105000
10
27.15700
20
30.22100
30
105.00000
0
VERTEX
8
35_105000
10
26.94500
20
31.06700
30
105.00000
0
VERTEX
8
35_105000
10
26.79300
20
31.79000
30
105.00000
0
VERTEX
8
35_105000
10
26.54200
20
33.38800
30
105.00000
0
VERTEX
8
35_105000
10
26.51500
20
34.13100
30
105.00000
0
VERTEX
8
35_105000
10
26.50200
20
34.31000
30
105.00000
0
VERTEX
8
35_105000
10
26.51400
20
34.48800
30
105.00000
0
VERTEX
8
35_105000
10
26.76200
20
36.72800
30
105.00000
0
VERTEX
8
35_105000
10
26.83300
20
37.14900
30
105.00000
0
VERTEX
8
35_105000
10
26.91100
20
38.08600
30
105.00000
0
VERTEX
8
35_105000
10
27.06300
20
40.32700
30
105.00000
0
VERTEX
8
35_105000
10
27.10900
20
40.54300
30
105.00000
0
VERTEX
8
35_105000
10
27.26000
20
41.49500
30
105.00000
0
VERTEX
8
35_105000
10
27.54800
20
42.04500
30
105.00000
0
VERTEX
8
35_105000
10
27.56100
20
42.08200
30
105.00000
0
VERTEX
8
35_105000
10
27.90300
20
42.64800
30
105.00000
0
VERTEX
8
35_105000
10
28.02500
20
42.87900
30
105.00000
0
VERTEX
8
35_105000
10
28.14300
20
43.07000
30
105.00000
0
VERTEX
8
35_105000
10
28.43900
20
43.75200
30
105.00000
0
VERTEX
8
35_105000
10
28.70300
20
44.43000
30
105.00000
0
VERTEX
8
35_105000
10
29.10200
20
46.24800
30
105.00000
0
VERTEX
8
35_105000
10
29.29800
20
47.07100
30
105.00000
0
VERTEX
8
35_105000
10
29.31100
20
47.20900
30
105.00000
0
VERTEX
8
35_105000
10
29.55300
20
48.44700
30
105.00000
0
VERTEX
8
35_105000
10
29.56100
20
48.69700
30
105.00000
0
VERTEX
8
35_105000
10
29.53000
20
49.21200
30
105.00000
0
VERTEX
8
35_105000
10
29.26100
20
50.53900
30
105.00000
0
VERTEX
8
35_105000
10
29.22200
20
50.98600
30
105.00000
0
VERTEX
8
35_105000
10
29.26500
20
51.48400
30
105.00000
0
VERTEX
8
35_105000
10
29.56000
20
52.87500
30
105.00000
0
VERTEX
8
35_105000
10
30.01100
20
54.14900
30
105.00000
0
VERTEX
8
35_105000
10
30.20400
20
54.41200
30
105.00000
0
VERTEX
8
35_105000
10
30.30200
20
54.67000
30
105.00000
0
VERTEX
8
35_105000
10
30.46300
20
54.93000
30
105.00000
0
VERTEX
8
35_105000
10
30.52900
20
55.20500
30
105.00000
0
VERTEX
8
35_105000
10
30.58200
20
55.67100
30
105.00000
0
VERTEX
8
35_105000
10
30.64000
20
55.98800
30
105.00000
0
VERTEX
8
35_105000
10
30.64500
20
56.44900
30
105.00000
0
VERTEX
8
35_105000
10
30.69900
20
56.95000
30
105.00000
0
VERTEX
8
35_105000
10
30.89200
20
57.32700
30
105.00000
0
VERTEX
8
35_105000
10
31.02000
20
57.46100
30
105.00000
0
VERTEX
8
35_105000
10
31.15700
20
57.71100
30
105.00000
0
VERTEX
8
35_105000
10
31.36000
20
58.04800
30
105.00000
0
VERTEX
8
35_105000
10
31.57600
20
58.34800
30
105.00000
0
VERTEX
8
35_105000
10
31.95400
20
58.75900
30
105.00000
0
VERTEX
8
35_105000
10
32.43000
20
59.25600
30
105.00000
0
VERTEX
8
35_105000
10
32.59100
20
59.45800
30
105.00000
0
VERTEX
8
35_105000
10
32.88500
20
59.78500
30
105.00000
0
VERTEX
8
35_105000
10
33.05700
20
60.01100
30
105.00000
0
VERTEX
8
35_105000
10
33.26200
20
60.47800
30
105.00000
0
VERTEX
8
35_105000
10
33.37500
20
60.70000
30
105.00000
0
VERTEX
8
35_105000
10
33.60800
20
61.22200
30
105.00000
0
VERTEX
8
35_105000
10
33.66000
20
61.35900
30
105.00000
0
VERTEX
8
35_105000
10
34.00400
20
62.00400
30
105.00000
0
VERTEX
8
35_105000
10
34.11200
20
62.14100
30
105.00000
0
VERTEX
8
35_105000
10
34.22700
20
62.47500
30
105.00000
0
VERTEX
8
35_105000
10
34.29700
20
62.82000
30
105.00000
0
VERTEX
8
35_105000
10
34.39700
20
63.95400
30
105.00000
0
VERTEX
8
35_105000
10
34.45900
20
66.17300
30
105.00000
0
VERTEX
8
35_105000
10
34.45100
20
66.77700
30
105.00000
0
VERTEX
8
35_105000
10
34.45700
20
67.13100
30
105.00000
0
VERTEX
8
35_105000
10
34.64500
20
68.34800
30
105.00000
0
VERTEX
8
35_105000
10
34.68100
20
68.52800
30
105.00000
0
VERTEX
8
35_105000
10
34.79700
20
68.86900
30
105.00000
0
VERTEX
8
35_105000
10
35.01300
20
69.58900
30
105.00000
0
VERTEX
8
35_105000
10
35.23700
20
70.18800
30
105.00000
0
VERTEX
8
35_105000
10
35.31300
20
70.52901
30
105.00000
0
VERTEX
8
35_105000
10
35.62500
20
71.64600
30
105.00000
0
VERTEX
8
35_105000
10
35.74600
20
72.90100
30
105.00000
0
VERTEX
8
35_105000
10
35.95300
20
74.35400
30
105.00000
0
VERTEX
8
35_105000
10
36.05900
20
75.40100
30
105.00000
0
VERTEX
8
35_105000
10
36.02300
20
76.02700
30
105.00000
0
VERTEX
8
35_105000
10
36.00400
20
76.14900
30
105.00000
0
VERTEX
8
35_105000
10
35.85900
20
76.79000
30
105.00000
0
VERTEX
8
35_105000
10
35.80400
20
76.96700
30
105.00000
0
VERTEX
8
35_105000
10
34.93000
20
79.50201
30
105.00000
0
VERTEX
8
35_105000
10
33.20300
20
84.26501
30
105.00000
0
VERTEX
8
35_105000
10
32.55700
20
85.88500
30
105.00000
0
VERTEX
8
35_105000
10
32.36200
20
86.41100
30
105.00000
0
VERTEX
8
35_105000
10
20.93600
20
88.31901
30
105.00000
0
VERTEX
8
35_105000
10
-56.17000
20
88.31901
30
105.00000
0
VERTEX
8
35_105000
10
-56.17000
20
82.81001
30
105.00000
0
SEQEND
8
35_105000
0
POLYLINE
8
35_105000
62
5
0
VERTEX
8
35_105000
10
-56.17000
20
90.55501
30
105.00000
0
VERTEX
8
35_105000
10
-56.17000
20
90.00001
30
105.00000
0
VERTEX
8
35_105000
10
10.86300
20
90.00001
30
105.00000
0
VERTEX
8
35_105000
10
2.39900
20
91.41200
30
105.00000
0
VERTEX
8
35_105000
10
-56.17000
20
91.41200
30
105.00000
0
VERTEX
8
35_105000
10
-56.17000
20
90.55501
30
105.00000
0
SEQEND
8
35_105000
0
POLYLINE
8
35_105000
62
5
0
VERTEX
8
35_105000
10
17.16900
20
88.94601
30
105.00000
0
VERTEX
8
35_105000
10
10.90800
20
89.99200
30
105.00000
0
VERTEX
8
35_105000
10
-56.17000
20
89.99200
30
105.00000
0
VERTEX
8
35_105000
10
-56.17000
20
88.32101
30
105.00000
0
VERTEX
8
35_105000
10
20.92100
20
88.32101
30
105.00000
0
VERTEX
8
35_105000
10
17.16900
20
88.94601
30
105.00000
0
SEQEND
8
35_105000
0
ENDSEC
0
EOF
