0
SECTION
2
HEADER
9
$ACADVER
1
AC1009
0
ENDSEC
0
SECTION
2
TABLES
0
TABLE
2
LAYER
70
1
0
LAYER
2
3_9000
70
0
62
7
6
CONTINUOUS
0
ENDTAB
0
ENDSEC
0
SECTION
2
BLOCKS
0
ENDSEC
0
SECTION
2
ENTITIES
0
POLYLINE
8
3_9000
62
5
0
VERTEX
8
3_9000
10
-53.60100
20
91.28600
30
9.00000
0
VERTEX
8
3_9000
10
3.15200
20
91.28600
30
9.00000
0
VERTEX
8
3_9000
10
3.12600
20
91.29101
30
9.00000
0
VERTEX
8
3_9000
10
-56.17000
20
91.29101
30
9.00000
0
VERTEX
8
3_9000
10
-53.60100
20
91.28600
30
9.00000
0
SEQEND
8
3_9000
0
POLYLINE
8
3_9000
62
5
0
VERTEX
8
3_9000
10
-53.59800
20
91.28600
30
9.00000
0
VERTEX
8
3_9000
10
-56.17000
20
91.28600
30
9.00000
0
VERTEX
8
3_9000
10
-56.17000
20
91.28001
30
9.00000
0
VERTEX
8
3_9000
10
3.18600
20
91.28001
30
9.00000
0
VERTEX
8
3_9000
10
3.15300
20
91.28600
30
9.00000
0
VERTEX
8
3_9000
10
-53.59800
20
91.28600
30
9.00000
0
SEQEND
8
3_9000
0
POLYLINE
8
3_9000
62
5
0
VERTEX
8
3_9000
10
-53.48300
20
91.26401
30
9.00000
0
VERTEX
8
3_9000
10
3.28700
20
91.26401
30
9.00000
0
VERTEX
8
3_9000
10
3.18800
20
91.28001
30
9.00000
0
VERTEX
8
3_9000
10
-56.17000
20
91.28001
30
9.00000
0
VERTEX
8
3_9000
10
-56.17000
20
91.26401
30
9.00000
0
VERTEX
8
3_9000
10
-53.48300
20
91.26401
30
9.00000
0
SEQEND
8
3_9000
0
POLYLINE
8
3_9000
62
5
0
VERTEX
8
3_9000
10
-6.06800
20
91.07700
30
9.00000
0
VERTEX
8
3_9000
10
-56.17000
20
91.07700
30
9.00000
0
VERTEX
8
3_9000
10
-56.17000
20
-92.11401
30
9.00000
0
VERTEX
8
3_9000
10
-7.37700
20
-92.11401
30
9.00000
0
VERTEX
8
3_9000
10
-7.71400
20
-91.22701
30
9.00000
0
VERTEX
8
3_9000
10
-8.21700
20
-89.69601
30
9.00000
0
VERTEX
8
3_9000
10
-8.34600
20
-89.24300
30
9.00000
0
VERTEX
8
3_9000
10
-8.68300
20
-88.26300
30
9.00000
0
VERTEX
8
3_9000
10
-8.89000
20
-87.75001
30
9.00000
0
VERTEX
8
3_9000
10
-8.92100
20
-87.60700
30
9.00000
0
VERTEX
8
3_9000
10
-9.40900
20
-86.12701
30
9.00000
0
VERTEX
8
3_9000
10
-10.02000
20
-84.06900
30
9.00000
0
VERTEX
8
3_9000
10
-10.10300
20
-83.75301
30
9.00000
0
VERTEX
8
3_9000
10
-10.38000
20
-82.67001
30
9.00000
0
VERTEX
8
3_9000
10
-10.62700
20
-81.64301
30
9.00000
0
VERTEX
8
3_9000
10
-10.67700
20
-81.38500
30
9.00000
0
VERTEX
8
3_9000
10
-10.90600
20
-80.53600
30
9.00000
0
VERTEX
8
3_9000
10
-11.13400
20
-79.54201
30
9.00000
0
VERTEX
8
3_9000
10
-11.31600
20
-78.34200
30
9.00000
0
VERTEX
8
3_9000
10
-11.68300
20
-76.43201
30
9.00000
0
VERTEX
8
3_9000
10
-11.91700
20
-74.84400
30
9.00000
0
VERTEX
8
3_9000
10
-12.01800
20
-73.97000
30
9.00000
0
VERTEX
8
3_9000
10
-12.08700
20
-73.45800
30
9.00000
0
VERTEX
8
3_9000
10
-12.22700
20
-71.75800
30
9.00000
0
VERTEX
8
3_9000
10
-12.24600
20
-71.17400
30
9.00000
0
VERTEX
8
3_9000
10
-12.23800
20
-70.73400
30
9.00000
0
VERTEX
8
3_9000
10
-12.04200
20
-66.92700
30
9.00000
0
VERTEX
8
3_9000
10
-11.81000
20
-65.27600
30
9.00000
0
VERTEX
8
3_9000
10
-11.66800
20
-64.19100
30
9.00000
0
VERTEX
8
3_9000
10
-11.46300
20
-62.85200
30
9.00000
0
VERTEX
8
3_9000
10
-11.38000
20
-62.52700
30
9.00000
0
VERTEX
8
3_9000
10
-11.07400
20
-61.00800
30
9.00000
0
VERTEX
8
3_9000
10
-10.71300
20
-59.58400
30
9.00000
0
VERTEX
8
3_9000
10
-10.44000
20
-58.70100
30
9.00000
0
VERTEX
8
3_9000
10
-10.36000
20
-58.36000
30
9.00000
0
VERTEX
8
3_9000
10
-10.10400
20
-57.60200
30
9.00000
0
VERTEX
8
3_9000
10
-10.01700
20
-57.30200
30
9.00000
0
VERTEX
8
3_9000
10
-9.89000
20
-56.98900
30
9.00000
0
VERTEX
8
3_9000
10
-9.74600
20
-56.50300
30
9.00000
0
VERTEX
8
3_9000
10
-9.65700
20
-56.30100
30
9.00000
0
VERTEX
8
3_9000
10
-9.20200
20
-55.08500
30
9.00000
0
VERTEX
8
3_9000
10
-8.76200
20
-54.06700
30
9.00000
0
VERTEX
8
3_9000
10
-8.52400
20
-53.47900
30
9.00000
0
VERTEX
8
3_9000
10
-8.14400
20
-52.49200
30
9.00000
0
VERTEX
8
3_9000
10
-8.03400
20
-52.24600
30
9.00000
0
VERTEX
8
3_9000
10
-7.66300
20
-51.52700
30
9.00000
0
VERTEX
8
3_9000
10
-7.39200
20
-51.03100
30
9.00000
0
VERTEX
8
3_9000
10
-7.07200
20
-50.13500
30
9.00000
0
VERTEX
8
3_9000
10
-6.75700
20
-49.44900
30
9.00000
0
VERTEX
8
3_9000
10
-6.19400
20
-48.56900
30
9.00000
0
VERTEX
8
3_9000
10
-6.01700
20
-48.39600
30
9.00000
0
VERTEX
8
3_9000
10
-5.96700
20
-48.25900
30
9.00000
0
VERTEX
8
3_9000
10
-5.63300
20
-47.94000
30
9.00000
0
VERTEX
8
3_9000
10
-5.36500
20
-47.39100
30
9.00000
0
VERTEX
8
3_9000
10
-5.28900
20
-47.14400
30
9.00000
0
VERTEX
8
3_9000
10
-4.83000
20
-45.32100
30
9.00000
0
VERTEX
8
3_9000
10
-4.56200
20
-44.88400
30
9.00000
0
VERTEX
8
3_9000
10
-4.06800
20
-43.92200
30
9.00000
0
VERTEX
8
3_9000
10
-4.06100
20
-43.87300
30
9.00000
0
VERTEX
8
3_9000
10
-3.96500
20
-43.52800
30
9.00000
0
VERTEX
8
3_9000
10
-3.82600
20
-43.07100
30
9.00000
0
VERTEX
8
3_9000
10
-3.64400
20
-42.34300
30
9.00000
0
VERTEX
8
3_9000
10
-3.63000
20
-41.92800
30
9.00000
0
VERTEX
8
3_9000
10
-3.47200
20
-41.24000
30
9.00000
0
VERTEX
8
3_9000
10
-3.35800
20
-40.62800
30
9.00000
0
VERTEX
8
3_9000
10
-3.32200
20
-40.39400
30
9.00000
0
VERTEX
8
3_9000
10
-2.91800
20
-39.20600
30
9.00000
0
VERTEX
8
3_9000
10
-2.42400
20
-37.85800
30
9.00000
0
VERTEX
8
3_9000
10
-2.25500
20
-37.34700
30
9.00000
0
VERTEX
8
3_9000
10
-1.82400
20
-36.45500
30
9.00000
0
VERTEX
8
3_9000
10
-1.76900
20
-36.36200
30
9.00000
0
VERTEX
8
3_9000
10
-1.51900
20
-36.04100
30
9.00000
0
VERTEX
8
3_9000
10
-1.29100
20
-35.39500
30
9.00000
0
VERTEX
8
3_9000
10
-1.18000
20
-35.13600
30
9.00000
0
VERTEX
8
3_9000
10
-0.61600
20
-34.03200
30
9.00000
0
VERTEX
8
3_9000
10
0.08900
20
-32.77400
30
9.00000
0
VERTEX
8
3_9000
10
0.39400
20
-32.26400
30
9.00000
0
VERTEX
8
3_9000
10
0.85400
20
-31.25200
30
9.00000
0
VERTEX
8
3_9000
10
1.08500
20
-30.82800
30
9.00000
0
VERTEX
8
3_9000
10
1.52000
20
-29.44800
30
9.00000
0
VERTEX
8
3_9000
10
1.58500
20
-29.30000
30
9.00000
0
VERTEX
8
3_9000
10
1.67700
20
-29.00900
30
9.00000
0
VERTEX
8
3_9000
10
2.07100
20
-27.37200
30
9.00000
0
VERTEX
8
3_9000
10
3.17600
20
-24.44200
30
9.00000
0
VERTEX
8
3_9000
10
3.23200
20
-24.27000
30
9.00000
0
VERTEX
8
3_9000
10
3.73300
20
-23.21600
30
9.00000
0
VERTEX
8
3_9000
10
3.78800
20
-23.06700
30
9.00000
0
VERTEX
8
3_9000
10
3.92400
20
-22.74900
30
9.00000
0
VERTEX
8
3_9000
10
4.15000
20
-21.93500
30
9.00000
0
VERTEX
8
3_9000
10
4.33000
20
-21.23200
30
9.00000
0
VERTEX
8
3_9000
10
4.68900
20
-20.10600
30
9.00000
0
VERTEX
8
3_9000
10
4.78900
20
-19.66200
30
9.00000
0
VERTEX
8
3_9000
10
4.83600
20
-19.55400
30
9.00000
0
VERTEX
8
3_9000
10
4.98100
20
-18.99300
30
9.00000
0
VERTEX
8
3_9000
10
5.02600
20
-18.54400
30
9.00000
0
VERTEX
8
3_9000
10
5.30900
20
-17.00300
30
9.00000
0
VERTEX
8
3_9000
10
5.30400
20
-16.83700
30
9.00000
0
VERTEX
8
3_9000
10
5.38900
20
-15.26800
30
9.00000
0
VERTEX
8
3_9000
10
5.54500
20
-13.84800
30
9.00000
0
VERTEX
8
3_9000
10
5.59200
20
-13.16300
30
9.00000
0
VERTEX
8
3_9000
10
5.65200
20
-12.75000
30
9.00000
0
VERTEX
8
3_9000
10
5.70400
20
-12.51200
30
9.00000
0
VERTEX
8
3_9000
10
5.76900
20
-11.99000
30
9.00000
0
VERTEX
8
3_9000
10
5.86200
20
-11.48600
30
9.00000
0
VERTEX
8
3_9000
10
5.85900
20
-11.21800
30
9.00000
0
VERTEX
8
3_9000
10
5.98500
20
-10.55200
30
9.00000
0
VERTEX
8
3_9000
10
6.06700
20
-10.22100
30
9.00000
0
VERTEX
8
3_9000
10
6.07300
20
-10.15800
30
9.00000
0
VERTEX
8
3_9000
10
6.26300
20
-9.61000
30
9.00000
0
VERTEX
8
3_9000
10
6.47700
20
-8.66400
30
9.00000
0
VERTEX
8
3_9000
10
6.48700
20
-8.45900
30
9.00000
0
VERTEX
8
3_9000
10
6.57800
20
-8.08800
30
9.00000
0
VERTEX
8
3_9000
10
6.55400
20
-7.97300
30
9.00000
0
VERTEX
8
3_9000
10
6.69700
20
-7.09500
30
9.00000
0
VERTEX
8
3_9000
10
6.86300
20
-5.33000
30
9.00000
0
VERTEX
8
3_9000
10
6.90000
20
-5.16400
30
9.00000
0
VERTEX
8
3_9000
10
6.98400
20
-3.99900
30
9.00000
0
VERTEX
8
3_9000
10
7.10500
20
-3.06800
30
9.00000
0
VERTEX
8
3_9000
10
7.21300
20
-1.86700
30
9.00000
0
VERTEX
8
3_9000
10
7.31800
20
-0.92400
30
9.00000
0
VERTEX
8
3_9000
10
7.50800
20
0.33800
30
9.00000
0
VERTEX
8
3_9000
10
7.86200
20
4.00200
30
9.00000
0
VERTEX
8
3_9000
10
7.91900
20
5.56700
30
9.00000
0
VERTEX
8
3_9000
10
7.87900
20
9.42600
30
9.00000
0
VERTEX
8
3_9000
10
7.90900
20
12.94200
30
9.00000
0
VERTEX
8
3_9000
10
7.90400
20
13.67500
30
9.00000
0
VERTEX
8
3_9000
10
7.90900
20
13.75700
30
9.00000
0
VERTEX
8
3_9000
10
7.90000
20
13.92700
30
9.00000
0
VERTEX
8
3_9000
10
7.90100
20
14.20900
30
9.00000
0
VERTEX
8
3_9000
10
8.09200
20
23.13300
30
9.00000
0
VERTEX
8
3_9000
10
8.03300
20
25.24900
30
9.00000
0
VERTEX
8
3_9000
10
7.99500
20
27.00400
30
9.00000
0
VERTEX
8
3_9000
10
7.84300
20
28.45100
30
9.00000
0
VERTEX
8
3_9000
10
7.80900
20
28.94600
30
9.00000
0
VERTEX
8
3_9000
10
7.24500
20
31.91300
30
9.00000
0
VERTEX
8
3_9000
10
7.15300
20
32.44800
30
9.00000
0
VERTEX
8
3_9000
10
7.00300
20
33.23700
30
9.00000
0
VERTEX
8
3_9000
10
6.57300
20
35.36600
30
9.00000
0
VERTEX
8
3_9000
10
6.36100
20
36.09700
30
9.00000
0
VERTEX
8
3_9000
10
6.21500
20
36.84700
30
9.00000
0
VERTEX
8
3_9000
10
5.75300
20
38.63200
30
9.00000
0
VERTEX
8
3_9000
10
5.44400
20
40.42000
30
9.00000
0
VERTEX
8
3_9000
10
5.18000
20
41.68700
30
9.00000
0
VERTEX
8
3_9000
10
4.87600
20
45.20800
30
9.00000
0
VERTEX
8
3_9000
10
4.88500
20
45.49400
30
9.00000
0
VERTEX
8
3_9000
10
5.26300
20
49.70600
30
9.00000
0
VERTEX
8
3_9000
10
5.28700
20
50.33600
30
9.00000
0
VERTEX
8
3_9000
10
5.52800
20
51.93800
30
9.00000
0
VERTEX
8
3_9000
10
5.54500
20
52.13600
30
9.00000
0
VERTEX
8
3_9000
10
6.07700
20
56.32400
30
9.00000
0
VERTEX
8
3_9000
10
6.41700
20
57.85600
30
9.00000
0
VERTEX
8
3_9000
10
6.88400
20
60.43200
30
9.00000
0
VERTEX
8
3_9000
10
7.12700
20
61.62500
30
9.00000
0
VERTEX
8
3_9000
10
7.24000
20
62.35000
30
9.00000
0
VERTEX
8
3_9000
10
7.35600
20
62.88400
30
9.00000
0
VERTEX
8
3_9000
10
7.39100
20
63.27500
30
9.00000
0
VERTEX
8
3_9000
10
7.73900
20
65.94200
30
9.00000
0
VERTEX
8
3_9000
10
7.80800
20
66.37801
30
9.00000
0
VERTEX
8
3_9000
10
7.98300
20
67.96700
30
9.00000
0
VERTEX
8
3_9000
10
8.01000
20
68.48500
30
9.00000
0
VERTEX
8
3_9000
10
8.19000
20
70.78300
30
9.00000
0
VERTEX
8
3_9000
10
8.27700
20
72.64500
30
9.00000
0
VERTEX
8
3_9000
10
8.38600
20
73.17900
30
9.00000
0
VERTEX
8
3_9000
10
8.42700
20
73.88600
30
9.00000
0
VERTEX
8
3_9000
10
8.42300
20
75.10600
30
9.00000
0
VERTEX
8
3_9000
10
8.44300
20
76.03500
30
9.00000
0
VERTEX
8
3_9000
10
8.35900
20
76.68600
30
9.00000
0
VERTEX
8
3_9000
10
8.25300
20
77.68501
30
9.00000
0
VERTEX
8
3_9000
10
8.22900
20
78.33000
30
9.00000
0
VERTEX
8
3_9000
10
8.13700
20
79.01601
30
9.00000
0
VERTEX
8
3_9000
10
8.13700
20
79.19901
30
9.00000
0
VERTEX
8
3_9000
10
7.97100
20
80.96301
30
9.00000
0
VERTEX
8
3_9000
10
7.92200
20
81.86900
30
9.00000
0
VERTEX
8
3_9000
10
7.74100
20
83.84600
30
9.00000
0
VERTEX
8
3_9000
10
7.66900
20
84.43000
30
9.00000
0
VERTEX
8
3_9000
10
7.66300
20
84.98500
30
9.00000
0
VERTEX
8
3_9000
10
7.50600
20
86.12000
30
9.00000
0
VERTEX
8
3_9000
10
7.46300
20
86.65900
30
9.00000
0
VERTEX
8
3_9000
10
7.47200
20
86.92600
30
9.00000
0
VERTEX
8
3_9000
10
7.38800
20
87.34500
30
9.00000
0
VERTEX
8
3_9000
10
7.37400
20
87.47601
30
9.00000
0
VERTEX
8
3_9000
10
7.16000
20
89.92300
30
9.00000
0
VERTEX
8
3_9000
10
7.00600
20
90.64201
30
9.00000
0
VERTEX
8
3_9000
10
4.40500
20
91.07700
30
9.00000
0
VERTEX
8
3_9000
10
-6.06800
20
91.07700
30
9.00000
0
SEQEND
8
3_9000
0
POLYLINE
8
3_9000
62
5
0
VERTEX
8
3_9000
10
-53.27600
20
91.17900
30
9.00000
0
VERTEX
8
3_9000
10
3.79800
20
91.17900
30
9.00000
0
VERTEX
8
3_9000
10
3.28900
20
91.26301
30
9.00000
0
VERTEX
8
3_9000
10
-56.17000
20
91.26301
30
9.00000
0
VERTEX
8
3_9000
10
-56.17000
20
91.17900
30
9.00000
0
VERTEX
8
3_9000
10
-53.27600
20
91.17900
30
9.00000
0
SEQEND
8
3_9000
0
POLYLINE
8
3_9000
62
5
0
VERTEX
8
3_9000
10
4.16200
20
91.11700
30
9.00000
0
VERTEX
8
3_9000
10
3.80300
20
91.17800
30
9.00000
0
VERTEX
8
3_9000
10
-56.17000
20
91.17800
30
9.00000
0
VERTEX
8
3_9000
10
-56.17000
20
91.07700
30
9.00000
0
VERTEX
8
3_9000
10
4.40400
20
91.07700
30
9.00000
0
VERTEX
8
3_9000
10
4.16200
20
91.11700
30
9.00000
0
SEQEND
8
3_9000
0
ENDSEC
0
EOF
