0
SECTION
2
HEADER
9
$ACADVER
1
AC1009
0
ENDSEC
0
SECTION
2
TABLES
0
TABLE
2
LAYER
70
1
0
LAYER
2
15_45000
70
0
62
7
6
CONTINUOUS
0
ENDTAB
0
ENDSEC
0
SECTION
2
BLOCKS
0
ENDSEC
0
SECTION
2
ENTITIES
0
POLYLINE
8
15_45000
62
5
0
VERTEX
8
15_45000
10
-38.56100
20
91.47601
30
45.00000
0
VERTEX
8
15_45000
10
2.01300
20
91.47601
30
45.00000
0
VERTEX
8
15_45000
10
1.83700
20
91.50600
30
45.00000
0
VERTEX
8
15_45000
10
-56.17000
20
91.50600
30
45.00000
0
VERTEX
8
15_45000
10
-56.17000
20
91.47601
30
45.00000
0
VERTEX
8
15_45000
10
-38.56100
20
91.47601
30
45.00000
0
SEQEND
8
15_45000
0
POLYLINE
8
15_45000
62
5
0
VERTEX
8
15_45000
10
-38.28800
20
91.43501
30
45.00000
0
VERTEX
8
15_45000
10
2.25300
20
91.43501
30
45.00000
0
VERTEX
8
15_45000
10
2.02600
20
91.47401
30
45.00000
0
VERTEX
8
15_45000
10
-56.17000
20
91.47401
30
45.00000
0
VERTEX
8
15_45000
10
-56.17000
20
91.43501
30
45.00000
0
VERTEX
8
15_45000
10
-38.28800
20
91.43501
30
45.00000
0
SEQEND
8
15_45000
0
POLYLINE
8
15_45000
62
5
0
VERTEX
8
15_45000
10
-37.74900
20
91.32101
30
45.00000
0
VERTEX
8
15_45000
10
2.94400
20
91.32101
30
45.00000
0
VERTEX
8
15_45000
10
2.26200
20
91.43401
30
45.00000
0
VERTEX
8
15_45000
10
-56.17000
20
91.43401
30
45.00000
0
VERTEX
8
15_45000
10
-56.17000
20
91.32101
30
45.00000
0
VERTEX
8
15_45000
10
-37.74900
20
91.32101
30
45.00000
0
SEQEND
8
15_45000
0
POLYLINE
8
15_45000
62
5
0
VERTEX
8
15_45000
10
-47.92700
20
90.04301
30
45.00000
0
VERTEX
8
15_45000
10
-56.17000
20
90.04401
30
45.00000
0
VERTEX
8
15_45000
10
-56.17000
20
-92.11401
30
45.00000
0
VERTEX
8
15_45000
10
11.50900
20
-92.11401
30
45.00000
0
VERTEX
8
15_45000
10
11.45500
20
-91.70000
30
45.00000
0
VERTEX
8
15_45000
10
11.24700
20
-90.28101
30
45.00000
0
VERTEX
8
15_45000
10
11.23300
20
-89.92001
30
45.00000
0
VERTEX
8
15_45000
10
11.24000
20
-88.67400
30
45.00000
0
VERTEX
8
15_45000
10
11.25400
20
-88.60201
30
45.00000
0
VERTEX
8
15_45000
10
11.61700
20
-88.15000
30
45.00000
0
VERTEX
8
15_45000
10
13.68300
20
-85.97401
30
45.00000
0
VERTEX
8
15_45000
10
15.09300
20
-84.47201
30
45.00000
0
VERTEX
8
15_45000
10
15.51300
20
-83.99200
30
45.00000
0
VERTEX
8
15_45000
10
17.30600
20
-82.15701
30
45.00000
0
VERTEX
8
15_45000
10
17.46800
20
-81.95500
30
45.00000
0
VERTEX
8
15_45000
10
18.49900
20
-80.87901
30
45.00000
0
VERTEX
8
15_45000
10
18.54200
20
-80.81500
30
45.00000
0
VERTEX
8
15_45000
10
18.76400
20
-80.40701
30
45.00000
0
VERTEX
8
15_45000
10
19.17500
20
-79.40701
30
45.00000
0
VERTEX
8
15_45000
10
19.27500
20
-79.05100
30
45.00000
0
VERTEX
8
15_45000
10
19.65800
20
-78.04700
30
45.00000
0
VERTEX
8
15_45000
10
19.63800
20
-77.95800
30
45.00000
0
VERTEX
8
15_45000
10
19.80000
20
-77.39201
30
45.00000
0
VERTEX
8
15_45000
10
19.74600
20
-77.30500
30
45.00000
0
VERTEX
8
15_45000
10
19.77900
20
-77.19501
30
45.00000
0
VERTEX
8
15_45000
10
19.93500
20
-76.54301
30
45.00000
0
VERTEX
8
15_45000
10
20.29100
20
-75.25301
30
45.00000
0
VERTEX
8
15_45000
10
20.36700
20
-75.00201
30
45.00000
0
VERTEX
8
15_45000
10
20.37200
20
-74.51300
30
45.00000
0
VERTEX
8
15_45000
10
20.42600
20
-74.27600
30
45.00000
0
VERTEX
8
15_45000
10
20.56400
20
-72.88500
30
45.00000
0
VERTEX
8
15_45000
10
20.64800
20
-72.42200
30
45.00000
0
VERTEX
8
15_45000
10
20.60700
20
-70.56500
30
45.00000
0
VERTEX
8
15_45000
10
20.53300
20
-68.85001
30
45.00000
0
VERTEX
8
15_45000
10
20.54500
20
-68.65300
30
45.00000
0
VERTEX
8
15_45000
10
20.74200
20
-66.72501
30
45.00000
0
VERTEX
8
15_45000
10
20.74000
20
-66.61401
30
45.00000
0
VERTEX
8
15_45000
10
20.77200
20
-65.86401
30
45.00000
0
VERTEX
8
15_45000
10
20.79700
20
-64.80400
30
45.00000
0
VERTEX
8
15_45000
10
20.72100
20
-64.46301
30
45.00000
0
VERTEX
8
15_45000
10
20.72200
20
-64.41500
30
45.00000
0
VERTEX
8
15_45000
10
20.81100
20
-63.01100
30
45.00000
0
VERTEX
8
15_45000
10
20.82000
20
-62.98100
30
45.00000
0
VERTEX
8
15_45000
10
20.82800
20
-62.25500
30
45.00000
0
VERTEX
8
15_45000
10
20.87900
20
-61.10400
30
45.00000
0
VERTEX
8
15_45000
10
21.01400
20
-60.35700
30
45.00000
0
VERTEX
8
15_45000
10
20.98700
20
-59.96200
30
45.00000
0
VERTEX
8
15_45000
10
20.96300
20
-58.91000
30
45.00000
0
VERTEX
8
15_45000
10
20.95000
20
-58.71900
30
45.00000
0
VERTEX
8
15_45000
10
20.97600
20
-58.32100
30
45.00000
0
VERTEX
8
15_45000
10
21.09400
20
-57.69200
30
45.00000
0
VERTEX
8
15_45000
10
21.17400
20
-57.36800
30
45.00000
0
VERTEX
8
15_45000
10
21.32400
20
-56.89100
30
45.00000
0
VERTEX
8
15_45000
10
21.37700
20
-56.74700
30
45.00000
0
VERTEX
8
15_45000
10
21.36000
20
-56.61400
30
45.00000
0
VERTEX
8
15_45000
10
21.47900
20
-56.23200
30
45.00000
0
VERTEX
8
15_45000
10
21.53800
20
-55.96200
30
45.00000
0
VERTEX
8
15_45000
10
21.58900
20
-55.63200
30
45.00000
0
VERTEX
8
15_45000
10
21.59700
20
-55.15900
30
45.00000
0
VERTEX
8
15_45000
10
21.63500
20
-54.78200
30
45.00000
0
VERTEX
8
15_45000
10
21.64200
20
-54.29900
30
45.00000
0
VERTEX
8
15_45000
10
21.77300
20
-53.76900
30
45.00000
0
VERTEX
8
15_45000
10
21.83700
20
-53.57400
30
45.00000
0
VERTEX
8
15_45000
10
21.87500
20
-53.42400
30
45.00000
0
VERTEX
8
15_45000
10
21.90700
20
-52.33800
30
45.00000
0
VERTEX
8
15_45000
10
21.95300
20
-51.95100
30
45.00000
0
VERTEX
8
15_45000
10
22.04400
20
-51.34300
30
45.00000
0
VERTEX
8
15_45000
10
22.04900
20
-51.09700
30
45.00000
0
VERTEX
8
15_45000
10
22.10700
20
-50.80900
30
45.00000
0
VERTEX
8
15_45000
10
22.15200
20
-50.34500
30
45.00000
0
VERTEX
8
15_45000
10
22.20600
20
-49.50200
30
45.00000
0
VERTEX
8
15_45000
10
22.16700
20
-49.08300
30
45.00000
0
VERTEX
8
15_45000
10
22.14700
20
-48.56000
30
45.00000
0
VERTEX
8
15_45000
10
22.19600
20
-47.91400
30
45.00000
0
VERTEX
8
15_45000
10
22.21900
20
-47.18700
30
45.00000
0
VERTEX
8
15_45000
10
22.24800
20
-46.79100
30
45.00000
0
VERTEX
8
15_45000
10
22.37700
20
-45.42300
30
45.00000
0
VERTEX
8
15_45000
10
22.37300
20
-45.24400
30
45.00000
0
VERTEX
8
15_45000
10
22.42200
20
-45.05900
30
45.00000
0
VERTEX
8
15_45000
10
22.43300
20
-44.78700
30
45.00000
0
VERTEX
8
15_45000
10
22.39000
20
-44.52000
30
45.00000
0
VERTEX
8
15_45000
10
22.41300
20
-44.16500
30
45.00000
0
VERTEX
8
15_45000
10
22.49200
20
-43.88800
30
45.00000
0
VERTEX
8
15_45000
10
22.70700
20
-42.82200
30
45.00000
0
VERTEX
8
15_45000
10
22.89400
20
-40.93100
30
45.00000
0
VERTEX
8
15_45000
10
22.93800
20
-40.08600
30
45.00000
0
VERTEX
8
15_45000
10
23.01500
20
-39.26300
30
45.00000
0
VERTEX
8
15_45000
10
23.11400
20
-37.83100
30
45.00000
0
VERTEX
8
15_45000
10
23.14600
20
-37.17700
30
45.00000
0
VERTEX
8
15_45000
10
23.21800
20
-36.58500
30
45.00000
0
VERTEX
8
15_45000
10
23.35200
20
-35.95400
30
45.00000
0
VERTEX
8
15_45000
10
23.41400
20
-35.36400
30
45.00000
0
VERTEX
8
15_45000
10
23.39800
20
-35.06900
30
45.00000
0
VERTEX
8
15_45000
10
23.30800
20
-34.70000
30
45.00000
0
VERTEX
8
15_45000
10
23.16200
20
-33.86600
30
45.00000
0
VERTEX
8
15_45000
10
23.11900
20
-33.53900
30
45.00000
0
VERTEX
8
15_45000
10
23.07500
20
-33.40100
30
45.00000
0
VERTEX
8
15_45000
10
22.96200
20
-32.27200
30
45.00000
0
VERTEX
8
15_45000
10
22.91800
20
-30.78500
30
45.00000
0
VERTEX
8
15_45000
10
23.01600
20
-29.82700
30
45.00000
0
VERTEX
8
15_45000
10
23.03800
20
-29.74600
30
45.00000
0
VERTEX
8
15_45000
10
23.03900
20
-29.40900
30
45.00000
0
VERTEX
8
15_45000
10
22.83400
20
-28.38100
30
45.00000
0
VERTEX
8
15_45000
10
22.80500
20
-28.18800
30
45.00000
0
VERTEX
8
15_45000
10
22.72600
20
-27.46800
30
45.00000
0
VERTEX
8
15_45000
10
22.58900
20
-26.67700
30
45.00000
0
VERTEX
8
15_45000
10
22.62700
20
-26.21500
30
45.00000
0
VERTEX
8
15_45000
10
22.57200
20
-25.79900
30
45.00000
0
VERTEX
8
15_45000
10
22.52800
20
-25.28500
30
45.00000
0
VERTEX
8
15_45000
10
22.60700
20
-24.41300
30
45.00000
0
VERTEX
8
15_45000
10
22.61500
20
-24.23700
30
45.00000
0
VERTEX
8
15_45000
10
22.60700
20
-24.09700
30
45.00000
0
VERTEX
8
15_45000
10
22.68300
20
-23.48900
30
45.00000
0
VERTEX
8
15_45000
10
22.75900
20
-23.20700
30
45.00000
0
VERTEX
8
15_45000
10
22.85900
20
-22.95400
30
45.00000
0
VERTEX
8
15_45000
10
22.99900
20
-22.66700
30
45.00000
0
VERTEX
8
15_45000
10
23.10700
20
-22.41800
30
45.00000
0
VERTEX
8
15_45000
10
23.31200
20
-22.17200
30
45.00000
0
VERTEX
8
15_45000
10
23.57800
20
-21.87600
30
45.00000
0
VERTEX
8
15_45000
10
24.37400
20
-21.04300
30
45.00000
0
VERTEX
8
15_45000
10
24.70200
20
-20.72500
30
45.00000
0
VERTEX
8
15_45000
10
25.15400
20
-20.12800
30
45.00000
0
VERTEX
8
15_45000
10
25.66800
20
-19.46900
30
45.00000
0
VERTEX
8
15_45000
10
25.77000
20
-19.32700
30
45.00000
0
VERTEX
8
15_45000
10
25.84700
20
-19.14800
30
45.00000
0
VERTEX
8
15_45000
10
26.38600
20
-17.99800
30
45.00000
0
VERTEX
8
15_45000
10
26.82400
20
-16.72400
30
45.00000
0
VERTEX
8
15_45000
10
26.88200
20
-16.48300
30
45.00000
0
VERTEX
8
15_45000
10
27.10900
20
-15.38000
30
45.00000
0
VERTEX
8
15_45000
10
27.38800
20
-13.93500
30
45.00000
0
VERTEX
8
15_45000
10
27.40100
20
-13.80300
30
45.00000
0
VERTEX
8
15_45000
10
27.40600
20
-13.43400
30
45.00000
0
VERTEX
8
15_45000
10
27.45800
20
-12.34700
30
45.00000
0
VERTEX
8
15_45000
10
27.45000
20
-12.12700
30
45.00000
0
VERTEX
8
15_45000
10
27.59300
20
-10.63300
30
45.00000
0
VERTEX
8
15_45000
10
27.47700
20
-8.61400
30
45.00000
0
VERTEX
8
15_45000
10
27.45900
20
-8.13200
30
45.00000
0
VERTEX
8
15_45000
10
27.41500
20
-7.71800
30
45.00000
0
VERTEX
8
15_45000
10
27.35200
20
-7.28700
30
45.00000
0
VERTEX
8
15_45000
10
27.36800
20
-6.28400
30
45.00000
0
VERTEX
8
15_45000
10
27.77300
20
-3.20800
30
45.00000
0
VERTEX
8
15_45000
10
27.90800
20
-2.60500
30
45.00000
0
VERTEX
8
15_45000
10
27.98800
20
-2.06700
30
45.00000
0
VERTEX
8
15_45000
10
28.46400
20
-0.06600
30
45.00000
0
VERTEX
8
15_45000
10
29.17700
20
2.20600
30
45.00000
0
VERTEX
8
15_45000
10
30.28600
20
6.00300
30
45.00000
0
VERTEX
8
15_45000
10
30.63900
20
7.13600
30
45.00000
0
VERTEX
8
15_45000
10
30.85200
20
8.09600
30
45.00000
0
VERTEX
8
15_45000
10
31.21700
20
9.48000
30
45.00000
0
VERTEX
8
15_45000
10
31.35900
20
10.14100
30
45.00000
0
VERTEX
8
15_45000
10
31.49800
20
11.04300
30
45.00000
0
VERTEX
8
15_45000
10
31.62300
20
11.75200
30
45.00000
0
VERTEX
8
15_45000
10
31.79900
20
13.56100
30
45.00000
0
VERTEX
8
15_45000
10
31.84000
20
13.89300
30
45.00000
0
VERTEX
8
15_45000
10
31.88700
20
15.24400
30
45.00000
0
VERTEX
8
15_45000
10
31.73100
20
17.57800
30
45.00000
0
VERTEX
8
15_45000
10
31.70300
20
17.84700
30
45.00000
0
VERTEX
8
15_45000
10
31.44500
20
19.86200
30
45.00000
0
VERTEX
8
15_45000
10
31.13800
20
21.43800
30
45.00000
0
VERTEX
8
15_45000
10
31.06800
20
21.73800
30
45.00000
0
VERTEX
8
15_45000
10
30.76700
20
22.61700
30
45.00000
0
VERTEX
8
15_45000
10
30.20100
20
24.73900
30
45.00000
0
VERTEX
8
15_45000
10
29.26800
20
27.64200
30
45.00000
0
VERTEX
8
15_45000
10
28.82900
20
28.86600
30
45.00000
0
VERTEX
8
15_45000
10
28.36500
20
30.27700
30
45.00000
0
VERTEX
8
15_45000
10
28.03400
20
31.86400
30
45.00000
0
VERTEX
8
15_45000
10
28.01100
20
32.13600
30
45.00000
0
VERTEX
8
15_45000
10
28.00900
20
32.53800
30
45.00000
0
VERTEX
8
15_45000
10
27.95100
20
33.52800
30
45.00000
0
VERTEX
8
15_45000
10
28.04500
20
35.69100
30
45.00000
0
VERTEX
8
15_45000
10
28.08900
20
36.45400
30
45.00000
0
VERTEX
8
15_45000
10
28.10700
20
36.92000
30
45.00000
0
VERTEX
8
15_45000
10
28.28200
20
37.72800
30
45.00000
0
VERTEX
8
15_45000
10
28.56200
20
38.75400
30
45.00000
0
VERTEX
8
15_45000
10
28.77500
20
39.29500
30
45.00000
0
VERTEX
8
15_45000
10
29.34300
20
41.18100
30
45.00000
0
VERTEX
8
15_45000
10
29.44000
20
41.85800
30
45.00000
0
VERTEX
8
15_45000
10
29.76100
20
43.94500
30
45.00000
0
VERTEX
8
15_45000
10
29.81100
20
44.60100
30
45.00000
0
VERTEX
8
15_45000
10
29.79900
20
45.49600
30
45.00000
0
VERTEX
8
15_45000
10
29.67400
20
46.10800
30
45.00000
0
VERTEX
8
15_45000
10
29.32200
20
47.57200
30
45.00000
0
VERTEX
8
15_45000
10
29.37600
20
47.91200
30
45.00000
0
VERTEX
8
15_45000
10
29.72800
20
49.34900
30
45.00000
0
VERTEX
8
15_45000
10
29.91700
20
49.99500
30
45.00000
0
VERTEX
8
15_45000
10
30.08000
20
50.51100
30
45.00000
0
VERTEX
8
15_45000
10
30.19000
20
51.20400
30
45.00000
0
VERTEX
8
15_45000
10
30.26300
20
51.54300
30
45.00000
0
VERTEX
8
15_45000
10
30.36800
20
51.91600
30
45.00000
0
VERTEX
8
15_45000
10
30.47800
20
52.38400
30
45.00000
0
VERTEX
8
15_45000
10
30.60700
20
52.66300
30
45.00000
0
VERTEX
8
15_45000
10
30.73500
20
53.06000
30
45.00000
0
VERTEX
8
15_45000
10
31.63400
20
54.48800
30
45.00000
0
VERTEX
8
15_45000
10
31.74400
20
54.67800
30
45.00000
0
VERTEX
8
15_45000
10
32.15000
20
55.11600
30
45.00000
0
VERTEX
8
15_45000
10
32.53700
20
55.59000
30
45.00000
0
VERTEX
8
15_45000
10
32.61800
20
55.67200
30
45.00000
0
VERTEX
8
15_45000
10
32.96800
20
56.49200
30
45.00000
0
VERTEX
8
15_45000
10
33.12200
20
56.99900
30
45.00000
0
VERTEX
8
15_45000
10
33.35000
20
57.59500
30
45.00000
0
VERTEX
8
15_45000
10
33.38200
20
57.64100
30
45.00000
0
VERTEX
8
15_45000
10
33.96400
20
58.27800
30
45.00000
0
VERTEX
8
15_45000
10
34.12500
20
58.54400
30
45.00000
0
VERTEX
8
15_45000
10
34.29700
20
58.91500
30
45.00000
0
VERTEX
8
15_45000
10
34.43700
20
59.34700
30
45.00000
0
VERTEX
8
15_45000
10
34.48200
20
59.63800
30
45.00000
0
VERTEX
8
15_45000
10
34.58600
20
60.08000
30
45.00000
0
VERTEX
8
15_45000
10
34.78000
20
61.40900
30
45.00000
0
VERTEX
8
15_45000
10
34.82900
20
62.15800
30
45.00000
0
VERTEX
8
15_45000
10
34.86200
20
62.43000
30
45.00000
0
VERTEX
8
15_45000
10
35.15400
20
64.00600
30
45.00000
0
VERTEX
8
15_45000
10
35.65900
20
65.46500
30
45.00000
0
VERTEX
8
15_45000
10
35.76800
20
65.68501
30
45.00000
0
VERTEX
8
15_45000
10
36.37500
20
67.11200
30
45.00000
0
VERTEX
8
15_45000
10
36.88000
20
68.55400
30
45.00000
0
VERTEX
8
15_45000
10
36.95900
20
68.81700
30
45.00000
0
VERTEX
8
15_45000
10
37.22300
20
69.53101
30
45.00000
0
VERTEX
8
15_45000
10
37.29300
20
69.79401
30
45.00000
0
VERTEX
8
15_45000
10
37.66000
20
70.75201
30
45.00000
0
VERTEX
8
15_45000
10
37.73400
20
70.99001
30
45.00000
0
VERTEX
8
15_45000
10
37.84000
20
71.50301
30
45.00000
0
VERTEX
8
15_45000
10
38.00100
20
72.18100
30
45.00000
0
VERTEX
8
15_45000
10
38.04700
20
73.07700
30
45.00000
0
VERTEX
8
15_45000
10
38.04900
20
73.30300
30
45.00000
0
VERTEX
8
15_45000
10
37.92400
20
73.98600
30
45.00000
0
VERTEX
8
15_45000
10
37.58400
20
75.66600
30
45.00000
0
VERTEX
8
15_45000
10
37.51200
20
75.96101
30
45.00000
0
VERTEX
8
15_45000
10
37.10600
20
77.88800
30
45.00000
0
VERTEX
8
15_45000
10
37.04200
20
78.12601
30
45.00000
0
VERTEX
8
15_45000
10
36.31600
20
80.57800
30
45.00000
0
VERTEX
8
15_45000
10
34.63000
20
85.07301
30
45.00000
0
VERTEX
8
15_45000
10
34.21300
20
86.10101
30
45.00000
0
VERTEX
8
15_45000
10
10.60500
20
90.04401
30
45.00000
0
VERTEX
8
15_45000
10
-47.92700
20
90.04301
30
45.00000
0
SEQEND
8
15_45000
0
POLYLINE
8
15_45000
62
5
0
VERTEX
8
15_45000
10
-36.33700
20
90.73701
30
45.00000
0
VERTEX
8
15_45000
10
6.44700
20
90.73701
30
45.00000
0
VERTEX
8
15_45000
10
2.95400
20
91.31901
30
45.00000
0
VERTEX
8
15_45000
10
-56.17000
20
91.31901
30
45.00000
0
VERTEX
8
15_45000
10
-56.17000
20
90.73701
30
45.00000
0
VERTEX
8
15_45000
10
-36.33700
20
90.73701
30
45.00000
0
SEQEND
8
15_45000
0
POLYLINE
8
15_45000
62
5
0
VERTEX
8
15_45000
10
9.18300
20
90.27801
30
45.00000
0
VERTEX
8
15_45000
10
6.47100
20
90.73300
30
45.00000
0
VERTEX
8
15_45000
10
-56.17000
20
90.73300
30
45.00000
0
VERTEX
8
15_45000
10
-56.17000
20
90.04401
30
45.00000
0
VERTEX
8
15_45000
10
10.60000
20
90.04401
30
45.00000
0
VERTEX
8
15_45000
10
9.18300
20
90.27801
30
45.00000
0
SEQEND
8
15_45000
0
ENDSEC
0
EOF
