0
SECTION
2
HEADER
9
$ACADVER
1
AC1009
0
ENDSEC
0
SECTION
2
TABLES
0
TABLE
2
LAYER
70
1
0
LAYER
2
41_123000
70
0
62
7
6
CONTINUOUS
0
ENDTAB
0
ENDSEC
0
SECTION
2
BLOCKS
0
ENDSEC
0
SECTION
2
ENTITIES
0
POLYLINE
8
41_123000
62
5
0
VERTEX
8
41_123000
10
-46.84500
20
91.88901
30
123.00000
0
VERTEX
8
41_123000
10
-0.45400
20
91.88901
30
123.00000
0
VERTEX
8
41_123000
10
-0.95300
20
91.97201
30
123.00000
0
VERTEX
8
41_123000
10
-56.17000
20
91.97201
30
123.00000
0
VERTEX
8
41_123000
10
-56.17000
20
91.88901
30
123.00000
0
VERTEX
8
41_123000
10
-46.84500
20
91.88901
30
123.00000
0
SEQEND
8
41_123000
0
POLYLINE
8
41_123000
62
5
0
VERTEX
8
41_123000
10
-47.26100
20
91.84200
30
123.00000
0
VERTEX
8
41_123000
10
-0.17500
20
91.84200
30
123.00000
0
VERTEX
8
41_123000
10
-0.41800
20
91.88300
30
123.00000
0
VERTEX
8
41_123000
10
-56.17000
20
91.88300
30
123.00000
0
VERTEX
8
41_123000
10
-56.17000
20
91.84200
30
123.00000
0
VERTEX
8
41_123000
10
-47.26100
20
91.84200
30
123.00000
0
SEQEND
8
41_123000
0
POLYLINE
8
41_123000
62
5
0
VERTEX
8
41_123000
10
-56.17000
20
91.82301
30
123.00000
0
VERTEX
8
41_123000
10
-56.17000
20
91.77500
30
123.00000
0
VERTEX
8
41_123000
10
0.23000
20
91.77500
30
123.00000
0
VERTEX
8
41_123000
10
-0.16700
20
91.84000
30
123.00000
0
VERTEX
8
41_123000
10
-56.17000
20
91.84000
30
123.00000
0
VERTEX
8
41_123000
10
-56.17000
20
91.82301
30
123.00000
0
SEQEND
8
41_123000
0
POLYLINE
8
41_123000
62
5
0
VERTEX
8
41_123000
10
-56.17000
20
91.56200
30
123.00000
0
VERTEX
8
41_123000
10
-56.17000
20
91.44501
30
123.00000
0
VERTEX
8
41_123000
10
2.20000
20
91.44501
30
123.00000
0
VERTEX
8
41_123000
10
0.25900
20
91.76801
30
123.00000
0
VERTEX
8
41_123000
10
-56.17000
20
91.76801
30
123.00000
0
VERTEX
8
41_123000
10
-56.17000
20
91.56200
30
123.00000
0
SEQEND
8
41_123000
0
POLYLINE
8
41_123000
62
5
0
VERTEX
8
41_123000
10
-56.17000
20
90.36101
30
123.00000
0
VERTEX
8
41_123000
10
-56.17000
20
89.77801
30
123.00000
0
VERTEX
8
41_123000
10
12.18800
20
89.77801
30
123.00000
0
VERTEX
8
41_123000
10
2.23000
20
91.44100
30
123.00000
0
VERTEX
8
41_123000
10
-56.17000
20
91.44100
30
123.00000
0
VERTEX
8
41_123000
10
-56.17000
20
90.36101
30
123.00000
0
SEQEND
8
41_123000
0
POLYLINE
8
41_123000
62
5
0
VERTEX
8
41_123000
10
19.99100
20
88.47601
30
123.00000
0
VERTEX
8
41_123000
10
12.24100
20
89.77000
30
123.00000
0
VERTEX
8
41_123000
10
-56.17000
20
89.77000
30
123.00000
0
VERTEX
8
41_123000
10
-56.17000
20
-92.11401
30
123.00000
0
VERTEX
8
41_123000
10
29.79300
20
-92.11401
30
123.00000
0
VERTEX
8
41_123000
10
29.63800
20
-91.91801
30
123.00000
0
VERTEX
8
41_123000
10
29.28000
20
-91.39001
30
123.00000
0
VERTEX
8
41_123000
10
29.02000
20
-91.03500
30
123.00000
0
VERTEX
8
41_123000
10
28.11600
20
-89.72601
30
123.00000
0
VERTEX
8
41_123000
10
27.74200
20
-89.20801
30
123.00000
0
VERTEX
8
41_123000
10
26.98500
20
-87.94501
30
123.00000
0
VERTEX
8
41_123000
10
26.47900
20
-87.14101
30
123.00000
0
VERTEX
8
41_123000
10
25.49000
20
-85.51100
30
123.00000
0
VERTEX
8
41_123000
10
24.26000
20
-83.58501
30
123.00000
0
VERTEX
8
41_123000
10
23.20400
20
-81.99600
30
123.00000
0
VERTEX
8
41_123000
10
22.91700
20
-81.50101
30
123.00000
0
VERTEX
8
41_123000
10
22.38900
20
-80.71201
30
123.00000
0
VERTEX
8
41_123000
10
21.01200
20
-78.58801
30
123.00000
0
VERTEX
8
41_123000
10
20.63300
20
-77.96101
30
123.00000
0
VERTEX
8
41_123000
10
20.47800
20
-77.54800
30
123.00000
0
VERTEX
8
41_123000
10
20.46100
20
-77.13900
30
123.00000
0
VERTEX
8
41_123000
10
20.41800
20
-76.55100
30
123.00000
0
VERTEX
8
41_123000
10
20.39700
20
-75.85201
30
123.00000
0
VERTEX
8
41_123000
10
20.35500
20
-75.37100
30
123.00000
0
VERTEX
8
41_123000
10
20.39800
20
-73.25600
30
123.00000
0
VERTEX
8
41_123000
10
20.43900
20
-72.52400
30
123.00000
0
VERTEX
8
41_123000
10
20.42800
20
-72.27300
30
123.00000
0
VERTEX
8
41_123000
10
20.42200
20
-70.52500
30
123.00000
0
VERTEX
8
41_123000
10
20.41000
20
-70.25301
30
123.00000
0
VERTEX
8
41_123000
10
20.39600
20
-70.22300
30
123.00000
0
VERTEX
8
41_123000
10
20.39000
20
-70.17700
30
123.00000
0
VERTEX
8
41_123000
10
20.38400
20
-69.84500
30
123.00000
0
VERTEX
8
41_123000
10
20.36700
20
-69.57500
30
123.00000
0
VERTEX
8
41_123000
10
20.25200
20
-68.64400
30
123.00000
0
VERTEX
8
41_123000
10
20.20600
20
-68.43301
30
123.00000
0
VERTEX
8
41_123000
10
19.73500
20
-67.02500
30
123.00000
0
VERTEX
8
41_123000
10
19.47200
20
-66.29100
30
123.00000
0
VERTEX
8
41_123000
10
19.42400
20
-66.14000
30
123.00000
0
VERTEX
8
41_123000
10
19.41100
20
-66.05100
30
123.00000
0
VERTEX
8
41_123000
10
19.36000
20
-65.94601
30
123.00000
0
VERTEX
8
41_123000
10
19.18500
20
-65.47000
30
123.00000
0
VERTEX
8
41_123000
10
19.00000
20
-65.03101
30
123.00000
0
VERTEX
8
41_123000
10
18.85800
20
-64.51900
30
123.00000
0
VERTEX
8
41_123000
10
18.83700
20
-64.30200
30
123.00000
0
VERTEX
8
41_123000
10
18.78300
20
-64.05200
30
123.00000
0
VERTEX
8
41_123000
10
18.63100
20
-63.45900
30
123.00000
0
VERTEX
8
41_123000
10
18.44200
20
-62.95000
30
123.00000
0
VERTEX
8
41_123000
10
18.23800
20
-61.93500
30
123.00000
0
VERTEX
8
41_123000
10
17.78500
20
-60.43500
30
123.00000
0
VERTEX
8
41_123000
10
17.67400
20
-60.11500
30
123.00000
0
VERTEX
8
41_123000
10
17.31600
20
-58.82500
30
123.00000
0
VERTEX
8
41_123000
10
17.28000
20
-58.61900
30
123.00000
0
VERTEX
8
41_123000
10
17.03000
20
-56.45500
30
123.00000
0
VERTEX
8
41_123000
10
16.93700
20
-56.04900
30
123.00000
0
VERTEX
8
41_123000
10
16.72600
20
-55.47900
30
123.00000
0
VERTEX
8
41_123000
10
16.66800
20
-55.38200
30
123.00000
0
VERTEX
8
41_123000
10
16.59500
20
-55.08600
30
123.00000
0
VERTEX
8
41_123000
10
16.39000
20
-54.54700
30
123.00000
0
VERTEX
8
41_123000
10
16.31200
20
-54.12800
30
123.00000
0
VERTEX
8
41_123000
10
16.26700
20
-53.98200
30
123.00000
0
VERTEX
8
41_123000
10
16.25900
20
-53.77700
30
123.00000
0
VERTEX
8
41_123000
10
16.21300
20
-53.52500
30
123.00000
0
VERTEX
8
41_123000
10
16.00100
20
-52.93200
30
123.00000
0
VERTEX
8
41_123000
10
15.85500
20
-52.49100
30
123.00000
0
VERTEX
8
41_123000
10
15.23100
20
-50.35500
30
123.00000
0
VERTEX
8
41_123000
10
15.18300
20
-50.07600
30
123.00000
0
VERTEX
8
41_123000
10
15.14300
20
-49.94100
30
123.00000
0
VERTEX
8
41_123000
10
15.14300
20
-49.63200
30
123.00000
0
VERTEX
8
41_123000
10
15.25300
20
-49.03300
30
123.00000
0
VERTEX
8
41_123000
10
15.52400
20
-47.69400
30
123.00000
0
VERTEX
8
41_123000
10
15.80100
20
-47.08400
30
123.00000
0
VERTEX
8
41_123000
10
16.08000
20
-46.18600
30
123.00000
0
VERTEX
8
41_123000
10
16.43000
20
-44.74600
30
123.00000
0
VERTEX
8
41_123000
10
16.72200
20
-42.99400
30
123.00000
0
VERTEX
8
41_123000
10
16.72300
20
-42.90900
30
123.00000
0
VERTEX
8
41_123000
10
16.73600
20
-42.83300
30
123.00000
0
VERTEX
8
41_123000
10
16.77000
20
-42.74300
30
123.00000
0
VERTEX
8
41_123000
10
16.82200
20
-42.50500
30
123.00000
0
VERTEX
8
41_123000
10
16.88900
20
-41.87600
30
123.00000
0
VERTEX
8
41_123000
10
16.90800
20
-41.81200
30
123.00000
0
VERTEX
8
41_123000
10
17.03500
20
-41.14200
30
123.00000
0
VERTEX
8
41_123000
10
16.98300
20
-40.63600
30
123.00000
0
VERTEX
8
41_123000
10
17.01200
20
-40.50100
30
123.00000
0
VERTEX
8
41_123000
10
17.18000
20
-38.99300
30
123.00000
0
VERTEX
8
41_123000
10
17.19600
20
-38.68500
30
123.00000
0
VERTEX
8
41_123000
10
17.19600
20
-38.36400
30
123.00000
0
VERTEX
8
41_123000
10
17.31700
20
-37.70800
30
123.00000
0
VERTEX
8
41_123000
10
17.26000
20
-36.59800
30
123.00000
0
VERTEX
8
41_123000
10
17.37800
20
-35.67600
30
123.00000
0
VERTEX
8
41_123000
10
17.41000
20
-34.83800
30
123.00000
0
VERTEX
8
41_123000
10
17.50800
20
-34.38800
30
123.00000
0
VERTEX
8
41_123000
10
17.78900
20
-32.95000
30
123.00000
0
VERTEX
8
41_123000
10
18.10600
20
-31.60200
30
123.00000
0
VERTEX
8
41_123000
10
18.43600
20
-30.65100
30
123.00000
0
VERTEX
8
41_123000
10
18.44500
20
-30.56600
30
123.00000
0
VERTEX
8
41_123000
10
18.53200
20
-30.21000
30
123.00000
0
VERTEX
8
41_123000
10
18.53100
20
-30.18200
30
123.00000
0
VERTEX
8
41_123000
10
18.37200
20
-29.49400
30
123.00000
0
VERTEX
8
41_123000
10
18.30400
20
-29.14900
30
123.00000
0
VERTEX
8
41_123000
10
18.35300
20
-28.57700
30
123.00000
0
VERTEX
8
41_123000
10
18.48900
20
-27.39600
30
123.00000
0
VERTEX
8
41_123000
10
18.55600
20
-27.00300
30
123.00000
0
VERTEX
8
41_123000
10
18.54700
20
-26.94800
30
123.00000
0
VERTEX
8
41_123000
10
18.32900
20
-26.24400
30
123.00000
0
VERTEX
8
41_123000
10
18.29300
20
-25.87200
30
123.00000
0
VERTEX
8
41_123000
10
18.15000
20
-25.61000
30
123.00000
0
VERTEX
8
41_123000
10
18.18200
20
-25.13700
30
123.00000
0
VERTEX
8
41_123000
10
18.22300
20
-24.05400
30
123.00000
0
VERTEX
8
41_123000
10
18.24500
20
-23.80800
30
123.00000
0
VERTEX
8
41_123000
10
18.35900
20
-22.89300
30
123.00000
0
VERTEX
8
41_123000
10
18.53300
20
-21.09600
30
123.00000
0
VERTEX
8
41_123000
10
18.64700
20
-19.77800
30
123.00000
0
VERTEX
8
41_123000
10
18.80200
20
-18.80400
30
123.00000
0
VERTEX
8
41_123000
10
18.98400
20
-17.37400
30
123.00000
0
VERTEX
8
41_123000
10
19.06400
20
-16.68200
30
123.00000
0
VERTEX
8
41_123000
10
19.23100
20
-15.66200
30
123.00000
0
VERTEX
8
41_123000
10
19.51600
20
-14.45900
30
123.00000
0
VERTEX
8
41_123000
10
19.85900
20
-13.06800
30
123.00000
0
VERTEX
8
41_123000
10
19.91800
20
-12.73900
30
123.00000
0
VERTEX
8
41_123000
10
19.96300
20
-12.55300
30
123.00000
0
VERTEX
8
41_123000
10
21.01600
20
-8.71100
30
123.00000
0
VERTEX
8
41_123000
10
21.20200
20
-8.14200
30
123.00000
0
VERTEX
8
41_123000
10
21.46600
20
-7.22100
30
123.00000
0
VERTEX
8
41_123000
10
21.59300
20
-6.67100
30
123.00000
0
VERTEX
8
41_123000
10
22.36900
20
-2.81700
30
123.00000
0
VERTEX
8
41_123000
10
22.91000
20
1.25900
30
123.00000
0
VERTEX
8
41_123000
10
23.05600
20
6.33000
30
123.00000
0
VERTEX
8
41_123000
10
22.92300
20
8.19600
30
123.00000
0
VERTEX
8
41_123000
10
22.69700
20
10.76800
30
123.00000
0
VERTEX
8
41_123000
10
22.58300
20
11.46300
30
123.00000
0
VERTEX
8
41_123000
10
22.29700
20
13.54800
30
123.00000
0
VERTEX
8
41_123000
10
22.11600
20
14.70600
30
123.00000
0
VERTEX
8
41_123000
10
21.50100
20
17.29800
30
123.00000
0
VERTEX
8
41_123000
10
20.60100
20
20.80100
30
123.00000
0
VERTEX
8
41_123000
10
19.81300
20
23.75700
30
123.00000
0
VERTEX
8
41_123000
10
19.66900
20
24.48400
30
123.00000
0
VERTEX
8
41_123000
10
19.58500
20
24.80200
30
123.00000
0
VERTEX
8
41_123000
10
18.96800
20
28.23900
30
123.00000
0
VERTEX
8
41_123000
10
18.87800
20
28.70800
30
123.00000
0
VERTEX
8
41_123000
10
17.87800
20
33.17400
30
123.00000
0
VERTEX
8
41_123000
10
17.66000
20
34.07700
30
123.00000
0
VERTEX
8
41_123000
10
17.49300
20
34.52800
30
123.00000
0
VERTEX
8
41_123000
10
17.22200
20
36.14600
30
123.00000
0
VERTEX
8
41_123000
10
17.22200
20
36.19400
30
123.00000
0
VERTEX
8
41_123000
10
17.08300
20
37.25500
30
123.00000
0
VERTEX
8
41_123000
10
16.77900
20
38.81700
30
123.00000
0
VERTEX
8
41_123000
10
16.61800
20
41.53400
30
123.00000
0
VERTEX
8
41_123000
10
16.63200
20
41.73800
30
123.00000
0
VERTEX
8
41_123000
10
16.53100
20
42.76600
30
123.00000
0
VERTEX
8
41_123000
10
16.60300
20
44.98700
30
123.00000
0
VERTEX
8
41_123000
10
16.55400
20
46.41900
30
123.00000
0
VERTEX
8
41_123000
10
16.53600
20
47.51800
30
123.00000
0
VERTEX
8
41_123000
10
16.54300
20
47.84200
30
123.00000
0
VERTEX
8
41_123000
10
16.91200
20
50.46300
30
123.00000
0
VERTEX
8
41_123000
10
16.96300
20
50.78300
30
123.00000
0
VERTEX
8
41_123000
10
17.05300
20
51.05300
30
123.00000
0
VERTEX
8
41_123000
10
17.51500
20
52.18300
30
123.00000
0
VERTEX
8
41_123000
10
17.59700
20
52.32700
30
123.00000
0
VERTEX
8
41_123000
10
19.13800
20
54.59900
30
123.00000
0
VERTEX
8
41_123000
10
19.34100
20
54.91900
30
123.00000
0
VERTEX
8
41_123000
10
20.16400
20
56.04500
30
123.00000
0
VERTEX
8
41_123000
10
20.57700
20
56.44600
30
123.00000
0
VERTEX
8
41_123000
10
20.98600
20
56.94900
30
123.00000
0
VERTEX
8
41_123000
10
21.40200
20
57.38300
30
123.00000
0
VERTEX
8
41_123000
10
22.08700
20
58.20900
30
123.00000
0
VERTEX
8
41_123000
10
22.49800
20
58.84500
30
123.00000
0
VERTEX
8
41_123000
10
22.69600
20
59.22200
30
123.00000
0
VERTEX
8
41_123000
10
23.12300
20
60.32700
30
123.00000
0
VERTEX
8
41_123000
10
23.46100
20
61.46400
30
123.00000
0
VERTEX
8
41_123000
10
23.46500
20
61.51900
30
123.00000
0
VERTEX
8
41_123000
10
23.52800
20
61.74900
30
123.00000
0
VERTEX
8
41_123000
10
23.64200
20
62.66800
30
123.00000
0
VERTEX
8
41_123000
10
23.80900
20
63.32300
30
123.00000
0
VERTEX
8
41_123000
10
23.97300
20
64.74900
30
123.00000
0
VERTEX
8
41_123000
10
24.11600
20
67.57201
30
123.00000
0
VERTEX
8
41_123000
10
24.22200
20
68.85900
30
123.00000
0
VERTEX
8
41_123000
10
24.27800
20
69.97300
30
123.00000
0
VERTEX
8
41_123000
10
24.34000
20
70.71500
30
123.00000
0
VERTEX
8
41_123000
10
24.45700
20
71.34700
30
123.00000
0
VERTEX
8
41_123000
10
24.57500
20
72.64101
30
123.00000
0
VERTEX
8
41_123000
10
24.73900
20
74.09600
30
123.00000
0
VERTEX
8
41_123000
10
24.76300
20
75.10500
30
123.00000
0
VERTEX
8
41_123000
10
24.67400
20
76.04800
30
123.00000
0
VERTEX
8
41_123000
10
24.69200
20
76.32301
30
123.00000
0
VERTEX
8
41_123000
10
24.59900
20
77.37801
30
123.00000
0
VERTEX
8
41_123000
10
24.53200
20
78.24500
30
123.00000
0
VERTEX
8
41_123000
10
23.40200
20
81.13600
30
123.00000
0
VERTEX
8
41_123000
10
23.03300
20
82.19000
30
123.00000
0
VERTEX
8
41_123000
10
22.41500
20
83.52600
30
123.00000
0
VERTEX
8
41_123000
10
21.02300
20
87.01601
30
123.00000
0
VERTEX
8
41_123000
10
20.42100
20
88.37400
30
123.00000
0
VERTEX
8
41_123000
10
20.40700
20
88.40501
30
123.00000
0
VERTEX
8
41_123000
10
19.99100
20
88.47601
30
123.00000
0
SEQEND
8
41_123000
0
ENDSEC
0
EOF
