0
SECTION
2
HEADER
9
$ACADVER
1
AC1009
0
ENDSEC
0
SECTION
2
TABLES
0
TABLE
2
LAYER
70
1
0
LAYER
2
44_132000
70
0
62
7
6
CONTINUOUS
0
ENDTAB
0
ENDSEC
0
SECTION
2
BLOCKS
0
ENDSEC
0
SECTION
2
ENTITIES
0
POLYLINE
8
44_132000
62
5
0
VERTEX
8
44_132000
10
-50.60500
20
91.93700
30
132.00000
0
VERTEX
8
44_132000
10
-0.73900
20
91.93700
30
132.00000
0
VERTEX
8
44_132000
10
-1.27600
20
92.02600
30
132.00000
0
VERTEX
8
44_132000
10
-56.17000
20
92.02600
30
132.00000
0
VERTEX
8
44_132000
10
-56.17000
20
91.93700
30
132.00000
0
VERTEX
8
44_132000
10
-50.60500
20
91.93700
30
132.00000
0
SEQEND
8
44_132000
0
POLYLINE
8
44_132000
62
5
0
VERTEX
8
44_132000
10
-51.05200
20
91.88600
30
132.00000
0
VERTEX
8
44_132000
10
-0.43900
20
91.88600
30
132.00000
0
VERTEX
8
44_132000
10
-0.70000
20
91.93001
30
132.00000
0
VERTEX
8
44_132000
10
-56.17000
20
91.93001
30
132.00000
0
VERTEX
8
44_132000
10
-56.17000
20
91.88600
30
132.00000
0
VERTEX
8
44_132000
10
-51.05200
20
91.88600
30
132.00000
0
SEQEND
8
44_132000
0
POLYLINE
8
44_132000
62
5
0
VERTEX
8
44_132000
10
-56.17000
20
91.86301
30
132.00000
0
VERTEX
8
44_132000
10
-56.17000
20
91.81400
30
132.00000
0
VERTEX
8
44_132000
10
-0.00400
20
91.81400
30
132.00000
0
VERTEX
8
44_132000
10
-0.43000
20
91.88400
30
132.00000
0
VERTEX
8
44_132000
10
-56.17000
20
91.88400
30
132.00000
0
VERTEX
8
44_132000
10
-56.17000
20
91.86301
30
132.00000
0
SEQEND
8
44_132000
0
POLYLINE
8
44_132000
62
5
0
VERTEX
8
44_132000
10
-56.17000
20
91.58301
30
132.00000
0
VERTEX
8
44_132000
10
-56.17000
20
91.45901
30
132.00000
0
VERTEX
8
44_132000
10
2.11500
20
91.45901
30
132.00000
0
VERTEX
8
44_132000
10
0.02800
20
91.80701
30
132.00000
0
VERTEX
8
44_132000
10
-56.17000
20
91.80701
30
132.00000
0
VERTEX
8
44_132000
10
-56.17000
20
91.58301
30
132.00000
0
SEQEND
8
44_132000
0
POLYLINE
8
44_132000
62
5
0
VERTEX
8
44_132000
10
-56.17000
20
90.27701
30
132.00000
0
VERTEX
8
44_132000
10
-56.17000
20
-92.11401
30
132.00000
0
VERTEX
8
44_132000
10
29.71100
20
-92.11401
30
132.00000
0
VERTEX
8
44_132000
10
29.21300
20
-91.34300
30
132.00000
0
VERTEX
8
44_132000
10
27.39900
20
-88.32900
30
132.00000
0
VERTEX
8
44_132000
10
26.00700
20
-86.14700
30
132.00000
0
VERTEX
8
44_132000
10
25.08000
20
-84.77600
30
132.00000
0
VERTEX
8
44_132000
10
23.33400
20
-82.30300
30
132.00000
0
VERTEX
8
44_132000
10
20.52000
20
-78.35101
30
132.00000
0
VERTEX
8
44_132000
10
18.72500
20
-75.95000
30
132.00000
0
VERTEX
8
44_132000
10
15.80700
20
-71.80901
30
132.00000
0
VERTEX
8
44_132000
10
13.63000
20
-68.27400
30
132.00000
0
VERTEX
8
44_132000
10
13.23100
20
-67.30500
30
132.00000
0
VERTEX
8
44_132000
10
13.08800
20
-66.42500
30
132.00000
0
VERTEX
8
44_132000
10
13.02800
20
-65.20100
30
132.00000
0
VERTEX
8
44_132000
10
13.01700
20
-64.71600
30
132.00000
0
VERTEX
8
44_132000
10
12.73600
20
-62.96300
30
132.00000
0
VERTEX
8
44_132000
10
12.62600
20
-62.62100
30
132.00000
0
VERTEX
8
44_132000
10
11.86800
20
-60.98500
30
132.00000
0
VERTEX
8
44_132000
10
11.61400
20
-60.37200
30
132.00000
0
VERTEX
8
44_132000
10
11.36100
20
-59.92000
30
132.00000
0
VERTEX
8
44_132000
10
10.82000
20
-58.65500
30
132.00000
0
VERTEX
8
44_132000
10
10.57600
20
-58.30800
30
132.00000
0
VERTEX
8
44_132000
10
10.32400
20
-57.76100
30
132.00000
0
VERTEX
8
44_132000
10
9.80400
20
-56.41200
30
132.00000
0
VERTEX
8
44_132000
10
9.73900
20
-56.25500
30
132.00000
0
VERTEX
8
44_132000
10
9.67900
20
-56.15000
30
132.00000
0
VERTEX
8
44_132000
10
9.52300
20
-55.49100
30
132.00000
0
VERTEX
8
44_132000
10
9.03100
20
-54.31700
30
132.00000
0
VERTEX
8
44_132000
10
8.77500
20
-53.39400
30
132.00000
0
VERTEX
8
44_132000
10
8.71200
20
-52.98900
30
132.00000
0
VERTEX
8
44_132000
10
8.67100
20
-52.83100
30
132.00000
0
VERTEX
8
44_132000
10
8.60700
20
-51.98200
30
132.00000
0
VERTEX
8
44_132000
10
8.59700
20
-51.47700
30
132.00000
0
VERTEX
8
44_132000
10
8.64000
20
-51.05100
30
132.00000
0
VERTEX
8
44_132000
10
8.58800
20
-50.76800
30
132.00000
0
VERTEX
8
44_132000
10
8.63500
20
-50.46200
30
132.00000
0
VERTEX
8
44_132000
10
8.76300
20
-49.79500
30
132.00000
0
VERTEX
8
44_132000
10
8.88600
20
-48.75300
30
132.00000
0
VERTEX
8
44_132000
10
9.06000
20
-47.73000
30
132.00000
0
VERTEX
8
44_132000
10
9.05600
20
-47.65500
30
132.00000
0
VERTEX
8
44_132000
10
9.13100
20
-46.97700
30
132.00000
0
VERTEX
8
44_132000
10
9.28200
20
-46.17400
30
132.00000
0
VERTEX
8
44_132000
10
9.36700
20
-45.83500
30
132.00000
0
VERTEX
8
44_132000
10
9.46700
20
-44.51900
30
132.00000
0
VERTEX
8
44_132000
10
9.58900
20
-44.09200
30
132.00000
0
VERTEX
8
44_132000
10
9.61200
20
-43.91800
30
132.00000
0
VERTEX
8
44_132000
10
9.70300
20
-43.51200
30
132.00000
0
VERTEX
8
44_132000
10
9.80900
20
-42.96000
30
132.00000
0
VERTEX
8
44_132000
10
9.89300
20
-42.40400
30
132.00000
0
VERTEX
8
44_132000
10
9.91300
20
-42.17000
30
132.00000
0
VERTEX
8
44_132000
10
9.97100
20
-41.93000
30
132.00000
0
VERTEX
8
44_132000
10
9.94700
20
-41.43000
30
132.00000
0
VERTEX
8
44_132000
10
10.04000
20
-40.91700
30
132.00000
0
VERTEX
8
44_132000
10
10.15300
20
-40.42200
30
132.00000
0
VERTEX
8
44_132000
10
10.61700
20
-38.50300
30
132.00000
0
VERTEX
8
44_132000
10
10.65800
20
-38.21600
30
132.00000
0
VERTEX
8
44_132000
10
10.68800
20
-37.69700
30
132.00000
0
VERTEX
8
44_132000
10
10.75700
20
-37.04600
30
132.00000
0
VERTEX
8
44_132000
10
10.76400
20
-36.77500
30
132.00000
0
VERTEX
8
44_132000
10
10.82000
20
-36.53400
30
132.00000
0
VERTEX
8
44_132000
10
10.83200
20
-35.97800
30
132.00000
0
VERTEX
8
44_132000
10
10.98200
20
-35.08500
30
132.00000
0
VERTEX
8
44_132000
10
10.90300
20
-34.32700
30
132.00000
0
VERTEX
8
44_132000
10
10.90300
20
-34.17400
30
132.00000
0
VERTEX
8
44_132000
10
10.82300
20
-33.24600
30
132.00000
0
VERTEX
8
44_132000
10
10.77000
20
-32.94200
30
132.00000
0
VERTEX
8
44_132000
10
10.76700
20
-31.53200
30
132.00000
0
VERTEX
8
44_132000
10
10.81200
20
-30.77900
30
132.00000
0
VERTEX
8
44_132000
10
10.84100
20
-30.48400
30
132.00000
0
VERTEX
8
44_132000
10
10.79500
20
-29.80700
30
132.00000
0
VERTEX
8
44_132000
10
10.80200
20
-29.67500
30
132.00000
0
VERTEX
8
44_132000
10
10.95800
20
-28.96200
30
132.00000
0
VERTEX
8
44_132000
10
10.93700
20
-28.72300
30
132.00000
0
VERTEX
8
44_132000
10
11.15500
20
-27.09400
30
132.00000
0
VERTEX
8
44_132000
10
11.61400
20
-25.44400
30
132.00000
0
VERTEX
8
44_132000
10
11.61300
20
-25.37200
30
132.00000
0
VERTEX
8
44_132000
10
11.74700
20
-24.75800
30
132.00000
0
VERTEX
8
44_132000
10
11.88500
20
-24.25500
30
132.00000
0
VERTEX
8
44_132000
10
12.00300
20
-23.62500
30
132.00000
0
VERTEX
8
44_132000
10
12.09800
20
-22.82800
30
132.00000
0
VERTEX
8
44_132000
10
12.22000
20
-22.07700
30
132.00000
0
VERTEX
8
44_132000
10
12.47900
20
-20.99600
30
132.00000
0
VERTEX
8
44_132000
10
12.71500
20
-19.64200
30
132.00000
0
VERTEX
8
44_132000
10
12.89700
20
-18.25300
30
132.00000
0
VERTEX
8
44_132000
10
13.18700
20
-16.71800
30
132.00000
0
VERTEX
8
44_132000
10
13.35300
20
-15.72500
30
132.00000
0
VERTEX
8
44_132000
10
13.70500
20
-13.72300
30
132.00000
0
VERTEX
8
44_132000
10
14.01100
20
-11.81700
30
132.00000
0
VERTEX
8
44_132000
10
14.10200
20
-11.16900
30
132.00000
0
VERTEX
8
44_132000
10
14.29600
20
-9.48000
30
132.00000
0
VERTEX
8
44_132000
10
14.32800
20
-9.04900
30
132.00000
0
VERTEX
8
44_132000
10
14.50500
20
-6.07000
30
132.00000
0
VERTEX
8
44_132000
10
14.76900
20
-3.77600
30
132.00000
0
VERTEX
8
44_132000
10
14.91500
20
-2.61300
30
132.00000
0
VERTEX
8
44_132000
10
14.98500
20
-1.61200
30
132.00000
0
VERTEX
8
44_132000
10
15.07300
20
-0.67200
30
132.00000
0
VERTEX
8
44_132000
10
15.10200
20
-0.18200
30
132.00000
0
VERTEX
8
44_132000
10
15.19500
20
2.38100
30
132.00000
0
VERTEX
8
44_132000
10
15.15300
20
4.14900
30
132.00000
0
VERTEX
8
44_132000
10
15.10700
20
5.32400
30
132.00000
0
VERTEX
8
44_132000
10
15.03800
20
5.96100
30
132.00000
0
VERTEX
8
44_132000
10
14.70200
20
8.56600
30
132.00000
0
VERTEX
8
44_132000
10
14.55000
20
9.42400
30
132.00000
0
VERTEX
8
44_132000
10
13.32500
20
15.59400
30
132.00000
0
VERTEX
8
44_132000
10
13.12000
20
16.46600
30
132.00000
0
VERTEX
8
44_132000
10
12.67000
20
18.21300
30
132.00000
0
VERTEX
8
44_132000
10
12.48700
20
19.12000
30
132.00000
0
VERTEX
8
44_132000
10
11.33200
20
24.18600
30
132.00000
0
VERTEX
8
44_132000
10
11.12400
20
25.12800
30
132.00000
0
VERTEX
8
44_132000
10
10.45100
20
27.68800
30
132.00000
0
VERTEX
8
44_132000
10
8.81100
20
33.66200
30
132.00000
0
VERTEX
8
44_132000
10
8.53900
20
34.42800
30
132.00000
0
VERTEX
8
44_132000
10
8.03300
20
36.35100
30
132.00000
0
VERTEX
8
44_132000
10
7.98600
20
36.50500
30
132.00000
0
VERTEX
8
44_132000
10
6.98900
20
39.23300
30
132.00000
0
VERTEX
8
44_132000
10
6.67700
20
40.40800
30
132.00000
0
VERTEX
8
44_132000
10
6.13200
20
42.52200
30
132.00000
0
VERTEX
8
44_132000
10
6.11700
20
42.65900
30
132.00000
0
VERTEX
8
44_132000
10
5.94900
20
43.56600
30
132.00000
0
VERTEX
8
44_132000
10
5.32100
20
46.88200
30
132.00000
0
VERTEX
8
44_132000
10
5.07800
20
50.00300
30
132.00000
0
VERTEX
8
44_132000
10
5.10000
20
50.81400
30
132.00000
0
VERTEX
8
44_132000
10
5.17600
20
51.12600
30
132.00000
0
VERTEX
8
44_132000
10
5.46900
20
52.70800
30
132.00000
0
VERTEX
8
44_132000
10
5.53200
20
53.00700
30
132.00000
0
VERTEX
8
44_132000
10
5.71800
20
54.39800
30
132.00000
0
VERTEX
8
44_132000
10
6.08900
20
56.44100
30
132.00000
0
VERTEX
8
44_132000
10
6.79300
20
58.70900
30
132.00000
0
VERTEX
8
44_132000
10
7.93900
20
61.65100
30
132.00000
0
VERTEX
8
44_132000
10
8.26300
20
62.66400
30
132.00000
0
VERTEX
8
44_132000
10
8.88500
20
64.34700
30
132.00000
0
VERTEX
8
44_132000
10
9.05400
20
64.76801
30
132.00000
0
VERTEX
8
44_132000
10
9.46600
20
66.02700
30
132.00000
0
VERTEX
8
44_132000
10
9.92700
20
67.25201
30
132.00000
0
VERTEX
8
44_132000
10
10.23400
20
68.24400
30
132.00000
0
VERTEX
8
44_132000
10
10.49300
20
69.02200
30
132.00000
0
VERTEX
8
44_132000
10
10.63200
20
69.65200
30
132.00000
0
VERTEX
8
44_132000
10
10.75500
20
70.28900
30
132.00000
0
VERTEX
8
44_132000
10
10.93600
20
70.91000
30
132.00000
0
VERTEX
8
44_132000
10
11.36900
20
73.03201
30
132.00000
0
VERTEX
8
44_132000
10
11.54900
20
73.64001
30
132.00000
0
VERTEX
8
44_132000
10
11.70400
20
75.85300
30
132.00000
0
VERTEX
8
44_132000
10
11.68000
20
76.03001
30
132.00000
0
VERTEX
8
44_132000
10
11.55400
20
77.55701
30
132.00000
0
VERTEX
8
44_132000
10
11.48600
20
78.23100
30
132.00000
0
VERTEX
8
44_132000
10
11.19500
20
80.29501
30
132.00000
0
VERTEX
8
44_132000
10
10.85400
20
81.87801
30
132.00000
0
VERTEX
8
44_132000
10
10.65200
20
83.02300
30
132.00000
0
VERTEX
8
44_132000
10
10.28100
20
84.70000
30
132.00000
0
VERTEX
8
44_132000
10
10.18700
20
85.33200
30
132.00000
0
VERTEX
8
44_132000
10
10.11300
20
85.65601
30
132.00000
0
VERTEX
8
44_132000
10
9.72300
20
87.51501
30
132.00000
0
VERTEX
8
44_132000
10
9.46600
20
88.48000
30
132.00000
0
VERTEX
8
44_132000
10
9.19200
20
90.27701
30
132.00000
0
VERTEX
8
44_132000
10
2.14600
20
91.45500
30
132.00000
0
VERTEX
8
44_132000
10
-56.17000
20
91.45500
30
132.00000
0
VERTEX
8
44_132000
10
-56.17000
20
90.27701
30
132.00000
0
SEQEND
8
44_132000
0
ENDSEC
0
EOF
