0
SECTION
2
HEADER
9
$ACADVER
1
AC1009
0
ENDSEC
0
SECTION
2
TABLES
0
TABLE
2
LAYER
70
1
0
LAYER
2
4_12000
70
0
62
7
6
CONTINUOUS
0
ENDTAB
0
ENDSEC
0
SECTION
2
BLOCKS
0
ENDSEC
0
SECTION
2
ENTITIES
0
POLYLINE
8
4_12000
62
5
0
VERTEX
8
4_12000
10
-52.34700
20
91.30200
30
12.00000
0
VERTEX
8
4_12000
10
3.05700
20
91.30200
30
12.00000
0
VERTEX
8
4_12000
10
3.01800
20
91.30901
30
12.00000
0
VERTEX
8
4_12000
10
-56.17000
20
91.30901
30
12.00000
0
VERTEX
8
4_12000
10
-56.17000
20
91.30200
30
12.00000
0
VERTEX
8
4_12000
10
-52.34700
20
91.30200
30
12.00000
0
SEQEND
8
4_12000
0
POLYLINE
8
4_12000
62
5
0
VERTEX
8
4_12000
10
-52.34400
20
91.30200
30
12.00000
0
VERTEX
8
4_12000
10
-56.17000
20
91.30200
30
12.00000
0
VERTEX
8
4_12000
10
-56.17000
20
91.29301
30
12.00000
0
VERTEX
8
4_12000
10
3.10900
20
91.29301
30
12.00000
0
VERTEX
8
4_12000
10
3.06000
20
91.30200
30
12.00000
0
VERTEX
8
4_12000
10
-52.34400
20
91.30200
30
12.00000
0
SEQEND
8
4_12000
0
POLYLINE
8
4_12000
62
5
0
VERTEX
8
4_12000
10
-52.17200
20
91.26900
30
12.00000
0
VERTEX
8
4_12000
10
3.25900
20
91.26900
30
12.00000
0
VERTEX
8
4_12000
10
3.11000
20
91.29301
30
12.00000
0
VERTEX
8
4_12000
10
-56.17000
20
91.29301
30
12.00000
0
VERTEX
8
4_12000
10
-56.17000
20
91.26900
30
12.00000
0
VERTEX
8
4_12000
10
-52.17200
20
91.26900
30
12.00000
0
SEQEND
8
4_12000
0
POLYLINE
8
4_12000
62
5
0
VERTEX
8
4_12000
10
-10.66100
20
90.99100
30
12.00000
0
VERTEX
8
4_12000
10
-56.17000
20
90.99100
30
12.00000
0
VERTEX
8
4_12000
10
-56.17000
20
-92.11401
30
12.00000
0
VERTEX
8
4_12000
10
-6.74700
20
-92.11401
30
12.00000
0
VERTEX
8
4_12000
10
-6.80600
20
-91.98901
30
12.00000
0
VERTEX
8
4_12000
10
-7.57300
20
-90.05300
30
12.00000
0
VERTEX
8
4_12000
10
-7.64100
20
-89.86600
30
12.00000
0
VERTEX
8
4_12000
10
-7.75700
20
-89.42200
30
12.00000
0
VERTEX
8
4_12000
10
-8.37900
20
-87.80601
30
12.00000
0
VERTEX
8
4_12000
10
-8.61300
20
-86.89800
30
12.00000
0
VERTEX
8
4_12000
10
-9.07700
20
-85.57201
30
12.00000
0
VERTEX
8
4_12000
10
-9.34800
20
-84.64301
30
12.00000
0
VERTEX
8
4_12000
10
-9.81700
20
-83.19000
30
12.00000
0
VERTEX
8
4_12000
10
-10.09300
20
-82.17600
30
12.00000
0
VERTEX
8
4_12000
10
-10.35000
20
-81.19000
30
12.00000
0
VERTEX
8
4_12000
10
-10.44400
20
-80.90301
30
12.00000
0
VERTEX
8
4_12000
10
-10.60000
20
-80.23801
30
12.00000
0
VERTEX
8
4_12000
10
-10.85300
20
-79.29501
30
12.00000
0
VERTEX
8
4_12000
10
-11.27700
20
-77.50500
30
12.00000
0
VERTEX
8
4_12000
10
-11.55300
20
-76.11301
30
12.00000
0
VERTEX
8
4_12000
10
-11.62800
20
-75.59100
30
12.00000
0
VERTEX
8
4_12000
10
-11.82800
20
-74.06200
30
12.00000
0
VERTEX
8
4_12000
10
-11.87400
20
-73.25800
30
12.00000
0
VERTEX
8
4_12000
10
-11.89900
20
-70.78400
30
12.00000
0
VERTEX
8
4_12000
10
-11.78700
20
-67.43800
30
12.00000
0
VERTEX
8
4_12000
10
-11.77600
20
-67.30200
30
12.00000
0
VERTEX
8
4_12000
10
-11.50400
20
-65.38700
30
12.00000
0
VERTEX
8
4_12000
10
-11.20700
20
-63.62000
30
12.00000
0
VERTEX
8
4_12000
10
-10.81200
20
-61.56500
30
12.00000
0
VERTEX
8
4_12000
10
-10.77900
20
-61.39500
30
12.00000
0
VERTEX
8
4_12000
10
-10.46700
20
-60.24700
30
12.00000
0
VERTEX
8
4_12000
10
-10.34000
20
-59.84600
30
12.00000
0
VERTEX
8
4_12000
10
-10.04600
20
-59.19400
30
12.00000
0
VERTEX
8
4_12000
10
-9.90800
20
-58.93500
30
12.00000
0
VERTEX
8
4_12000
10
-9.67200
20
-58.32600
30
12.00000
0
VERTEX
8
4_12000
10
-9.14900
20
-57.58100
30
12.00000
0
VERTEX
8
4_12000
10
-8.68200
20
-56.97200
30
12.00000
0
VERTEX
8
4_12000
10
-8.57800
20
-56.79000
30
12.00000
0
VERTEX
8
4_12000
10
-8.25900
20
-56.38200
30
12.00000
0
VERTEX
8
4_12000
10
-7.67600
20
-55.55000
30
12.00000
0
VERTEX
8
4_12000
10
-7.13700
20
-54.62000
30
12.00000
0
VERTEX
8
4_12000
10
-6.96400
20
-54.34200
30
12.00000
0
VERTEX
8
4_12000
10
-6.76000
20
-54.04600
30
12.00000
0
VERTEX
8
4_12000
10
-6.43600
20
-53.75400
30
12.00000
0
VERTEX
8
4_12000
10
-6.37000
20
-53.67700
30
12.00000
0
VERTEX
8
4_12000
10
-5.94800
20
-53.10900
30
12.00000
0
VERTEX
8
4_12000
10
-5.77500
20
-52.79500
30
12.00000
0
VERTEX
8
4_12000
10
-5.63100
20
-52.56200
30
12.00000
0
VERTEX
8
4_12000
10
-5.40500
20
-52.24800
30
12.00000
0
VERTEX
8
4_12000
10
-5.14200
20
-51.78800
30
12.00000
0
VERTEX
8
4_12000
10
-4.84100
20
-51.31100
30
12.00000
0
VERTEX
8
4_12000
10
-4.73500
20
-50.96700
30
12.00000
0
VERTEX
8
4_12000
10
-4.69100
20
-50.90600
30
12.00000
0
VERTEX
8
4_12000
10
-4.54500
20
-50.63500
30
12.00000
0
VERTEX
8
4_12000
10
-4.04800
20
-49.88000
30
12.00000
0
VERTEX
8
4_12000
10
-3.95600
20
-49.69100
30
12.00000
0
VERTEX
8
4_12000
10
-3.92800
20
-49.57200
30
12.00000
0
VERTEX
8
4_12000
10
-3.79900
20
-49.39100
30
12.00000
0
VERTEX
8
4_12000
10
-3.73400
20
-49.26700
30
12.00000
0
VERTEX
8
4_12000
10
-3.68500
20
-48.89000
30
12.00000
0
VERTEX
8
4_12000
10
-3.65600
20
-48.86300
30
12.00000
0
VERTEX
8
4_12000
10
-3.65200
20
-48.83600
30
12.00000
0
VERTEX
8
4_12000
10
-3.37200
20
-48.08800
30
12.00000
0
VERTEX
8
4_12000
10
-3.33200
20
-47.93900
30
12.00000
0
VERTEX
8
4_12000
10
-3.00900
20
-47.25500
30
12.00000
0
VERTEX
8
4_12000
10
-2.87600
20
-46.99300
30
12.00000
0
VERTEX
8
4_12000
10
-2.75900
20
-46.69100
30
12.00000
0
VERTEX
8
4_12000
10
-2.62600
20
-46.12400
30
12.00000
0
VERTEX
8
4_12000
10
-2.41100
20
-45.47000
30
12.00000
0
VERTEX
8
4_12000
10
-1.77200
20
-44.50000
30
12.00000
0
VERTEX
8
4_12000
10
-1.72300
20
-44.38100
30
12.00000
0
VERTEX
8
4_12000
10
-1.69900
20
-44.28800
30
12.00000
0
VERTEX
8
4_12000
10
-1.54100
20
-43.90500
30
12.00000
0
VERTEX
8
4_12000
10
-1.45500
20
-43.65400
30
12.00000
0
VERTEX
8
4_12000
10
-1.44200
20
-43.58900
30
12.00000
0
VERTEX
8
4_12000
10
-1.43200
20
-42.88500
30
12.00000
0
VERTEX
8
4_12000
10
-1.17900
20
-42.05900
30
12.00000
0
VERTEX
8
4_12000
10
-0.98300
20
-41.56900
30
12.00000
0
VERTEX
8
4_12000
10
-0.57000
20
-40.63600
30
12.00000
0
VERTEX
8
4_12000
10
-0.40700
20
-40.24000
30
12.00000
0
VERTEX
8
4_12000
10
0.15500
20
-39.02800
30
12.00000
0
VERTEX
8
4_12000
10
0.43100
20
-38.59100
30
12.00000
0
VERTEX
8
4_12000
10
0.49800
20
-38.42600
30
12.00000
0
VERTEX
8
4_12000
10
0.46800
20
-38.27400
30
12.00000
0
VERTEX
8
4_12000
10
0.91500
20
-37.37500
30
12.00000
0
VERTEX
8
4_12000
10
0.96400
20
-37.31400
30
12.00000
0
VERTEX
8
4_12000
10
1.33300
20
-36.61700
30
12.00000
0
VERTEX
8
4_12000
10
1.37200
20
-36.51800
30
12.00000
0
VERTEX
8
4_12000
10
1.38600
20
-36.45800
30
12.00000
0
VERTEX
8
4_12000
10
1.84700
20
-35.40200
30
12.00000
0
VERTEX
8
4_12000
10
2.02600
20
-35.12000
30
12.00000
0
VERTEX
8
4_12000
10
2.15400
20
-34.73400
30
12.00000
0
VERTEX
8
4_12000
10
2.24300
20
-34.56700
30
12.00000
0
VERTEX
8
4_12000
10
2.54100
20
-33.66300
30
12.00000
0
VERTEX
8
4_12000
10
2.89000
20
-32.98100
30
12.00000
0
VERTEX
8
4_12000
10
3.15700
20
-32.26200
30
12.00000
0
VERTEX
8
4_12000
10
3.20500
20
-32.15600
30
12.00000
0
VERTEX
8
4_12000
10
3.41800
20
-31.83100
30
12.00000
0
VERTEX
8
4_12000
10
3.55800
20
-31.13600
30
12.00000
0
VERTEX
8
4_12000
10
3.86100
20
-30.48100
30
12.00000
0
VERTEX
8
4_12000
10
4.04800
20
-29.75000
30
12.00000
0
VERTEX
8
4_12000
10
4.08000
20
-29.49100
30
12.00000
0
VERTEX
8
4_12000
10
4.20600
20
-29.18100
30
12.00000
0
VERTEX
8
4_12000
10
4.55200
20
-27.81500
30
12.00000
0
VERTEX
8
4_12000
10
4.70200
20
-27.41200
30
12.00000
0
VERTEX
8
4_12000
10
4.70500
20
-27.18800
30
12.00000
0
VERTEX
8
4_12000
10
5.24900
20
-26.02100
30
12.00000
0
VERTEX
8
4_12000
10
5.47500
20
-25.27800
30
12.00000
0
VERTEX
8
4_12000
10
5.50800
20
-25.19600
30
12.00000
0
VERTEX
8
4_12000
10
5.73400
20
-24.49000
30
12.00000
0
VERTEX
8
4_12000
10
5.84900
20
-24.16100
30
12.00000
0
VERTEX
8
4_12000
10
6.06300
20
-22.78100
30
12.00000
0
VERTEX
8
4_12000
10
6.28100
20
-21.58700
30
12.00000
0
VERTEX
8
4_12000
10
6.52700
20
-20.31800
30
12.00000
0
VERTEX
8
4_12000
10
6.58200
20
-19.69600
30
12.00000
0
VERTEX
8
4_12000
10
6.61800
20
-19.56300
30
12.00000
0
VERTEX
8
4_12000
10
6.62800
20
-19.47000
30
12.00000
0
VERTEX
8
4_12000
10
6.87700
20
-18.87400
30
12.00000
0
VERTEX
8
4_12000
10
6.94500
20
-18.73200
30
12.00000
0
VERTEX
8
4_12000
10
7.70500
20
-16.39000
30
12.00000
0
VERTEX
8
4_12000
10
7.82700
20
-15.95400
30
12.00000
0
VERTEX
8
4_12000
10
8.09500
20
-15.09200
30
12.00000
0
VERTEX
8
4_12000
10
8.29100
20
-14.13800
30
12.00000
0
VERTEX
8
4_12000
10
8.36800
20
-13.71400
30
12.00000
0
VERTEX
8
4_12000
10
8.83500
20
-11.80100
30
12.00000
0
VERTEX
8
4_12000
10
9.23900
20
-9.82000
30
12.00000
0
VERTEX
8
4_12000
10
9.51500
20
-8.63700
30
12.00000
0
VERTEX
8
4_12000
10
9.78400
20
-7.61200
30
12.00000
0
VERTEX
8
4_12000
10
10.08400
20
-6.14800
30
12.00000
0
VERTEX
8
4_12000
10
10.30400
20
-5.47600
30
12.00000
0
VERTEX
8
4_12000
10
10.34700
20
-5.04600
30
12.00000
0
VERTEX
8
4_12000
10
10.59900
20
-4.08700
30
12.00000
0
VERTEX
8
4_12000
10
10.92500
20
-2.57300
30
12.00000
0
VERTEX
8
4_12000
10
10.96200
20
-2.32900
30
12.00000
0
VERTEX
8
4_12000
10
11.03900
20
-1.96900
30
12.00000
0
VERTEX
8
4_12000
10
11.12000
20
-1.41500
30
12.00000
0
VERTEX
8
4_12000
10
11.33600
20
0.88100
30
12.00000
0
VERTEX
8
4_12000
10
11.44100
20
2.34800
30
12.00000
0
VERTEX
8
4_12000
10
11.53700
20
6.54200
30
12.00000
0
VERTEX
8
4_12000
10
11.53400
20
7.31500
30
12.00000
0
VERTEX
8
4_12000
10
11.49500
20
7.82800
30
12.00000
0
VERTEX
8
4_12000
10
11.57600
20
11.17700
30
12.00000
0
VERTEX
8
4_12000
10
11.63800
20
14.54800
30
12.00000
0
VERTEX
8
4_12000
10
11.72200
20
15.70800
30
12.00000
0
VERTEX
8
4_12000
10
11.72800
20
16.98700
30
12.00000
0
VERTEX
8
4_12000
10
11.94400
20
20.96700
30
12.00000
0
VERTEX
8
4_12000
10
11.96800
20
21.59100
30
12.00000
0
VERTEX
8
4_12000
10
11.95900
20
21.99500
30
12.00000
0
VERTEX
8
4_12000
10
11.55800
20
26.99300
30
12.00000
0
VERTEX
8
4_12000
10
11.36000
20
28.44900
30
12.00000
0
VERTEX
8
4_12000
10
11.24400
20
29.08200
30
12.00000
0
VERTEX
8
4_12000
10
11.10800
20
29.76500
30
12.00000
0
VERTEX
8
4_12000
10
11.02100
20
30.28000
30
12.00000
0
VERTEX
8
4_12000
10
10.54800
20
32.67400
30
12.00000
0
VERTEX
8
4_12000
10
9.66900
20
36.77000
30
12.00000
0
VERTEX
8
4_12000
10
9.24900
20
38.78900
30
12.00000
0
VERTEX
8
4_12000
10
9.06200
20
39.59200
30
12.00000
0
VERTEX
8
4_12000
10
8.70400
20
41.57400
30
12.00000
0
VERTEX
8
4_12000
10
8.51800
20
44.42400
30
12.00000
0
VERTEX
8
4_12000
10
8.55900
20
45.76600
30
12.00000
0
VERTEX
8
4_12000
10
8.57900
20
45.83600
30
12.00000
0
VERTEX
8
4_12000
10
8.66200
20
46.50000
30
12.00000
0
VERTEX
8
4_12000
10
8.73600
20
47.21900
30
12.00000
0
VERTEX
8
4_12000
10
8.81200
20
49.29000
30
12.00000
0
VERTEX
8
4_12000
10
9.12100
20
51.32500
30
12.00000
0
VERTEX
8
4_12000
10
9.34200
20
52.22600
30
12.00000
0
VERTEX
8
4_12000
10
9.63300
20
53.80900
30
12.00000
0
VERTEX
8
4_12000
10
9.89200
20
54.55800
30
12.00000
0
VERTEX
8
4_12000
10
10.49800
20
57.06900
30
12.00000
0
VERTEX
8
4_12000
10
10.59100
20
57.48900
30
12.00000
0
VERTEX
8
4_12000
10
11.09100
20
58.89400
30
12.00000
0
VERTEX
8
4_12000
10
11.35000
20
60.15800
30
12.00000
0
VERTEX
8
4_12000
10
11.56000
20
61.06600
30
12.00000
0
VERTEX
8
4_12000
10
11.68100
20
61.72900
30
12.00000
0
VERTEX
8
4_12000
10
11.75000
20
62.04300
30
12.00000
0
VERTEX
8
4_12000
10
12.32600
20
65.17600
30
12.00000
0
VERTEX
8
4_12000
10
12.35000
20
65.44601
30
12.00000
0
VERTEX
8
4_12000
10
12.45200
20
66.22800
30
12.00000
0
VERTEX
8
4_12000
10
12.49300
20
66.61401
30
12.00000
0
VERTEX
8
4_12000
10
12.67900
20
67.93201
30
12.00000
0
VERTEX
8
4_12000
10
12.73200
20
69.59500
30
12.00000
0
VERTEX
8
4_12000
10
12.73200
20
69.88600
30
12.00000
0
VERTEX
8
4_12000
10
12.70100
20
70.82101
30
12.00000
0
VERTEX
8
4_12000
10
12.73500
20
72.26801
30
12.00000
0
VERTEX
8
4_12000
10
12.53100
20
74.53400
30
12.00000
0
VERTEX
8
4_12000
10
12.09700
20
78.58900
30
12.00000
0
VERTEX
8
4_12000
10
11.89900
20
80.28400
30
12.00000
0
VERTEX
8
4_12000
10
11.83500
20
80.59300
30
12.00000
0
VERTEX
8
4_12000
10
11.43100
20
83.23701
30
12.00000
0
VERTEX
8
4_12000
10
11.10800
20
85.51501
30
12.00000
0
VERTEX
8
4_12000
10
10.85600
20
86.69401
30
12.00000
0
VERTEX
8
4_12000
10
10.42300
20
89.10900
30
12.00000
0
VERTEX
8
4_12000
10
10.38900
20
89.35201
30
12.00000
0
VERTEX
8
4_12000
10
10.23000
20
90.10600
30
12.00000
0
VERTEX
8
4_12000
10
4.92200
20
90.99100
30
12.00000
0
VERTEX
8
4_12000
10
-10.66100
20
90.99100
30
12.00000
0
SEQEND
8
4_12000
0
POLYLINE
8
4_12000
62
5
0
VERTEX
8
4_12000
10
-51.86500
20
91.14201
30
12.00000
0
VERTEX
8
4_12000
10
4.01900
20
91.14201
30
12.00000
0
VERTEX
8
4_12000
10
3.26100
20
91.26801
30
12.00000
0
VERTEX
8
4_12000
10
-56.17000
20
91.26801
30
12.00000
0
VERTEX
8
4_12000
10
-56.17000
20
91.14201
30
12.00000
0
VERTEX
8
4_12000
10
-51.86500
20
91.14201
30
12.00000
0
SEQEND
8
4_12000
0
POLYLINE
8
4_12000
62
5
0
VERTEX
8
4_12000
10
4.56000
20
91.05100
30
12.00000
0
VERTEX
8
4_12000
10
4.02500
20
91.14101
30
12.00000
0
VERTEX
8
4_12000
10
-56.17000
20
91.14101
30
12.00000
0
VERTEX
8
4_12000
10
-56.17000
20
90.99100
30
12.00000
0
VERTEX
8
4_12000
10
4.92100
20
90.99100
30
12.00000
0
VERTEX
8
4_12000
10
4.56000
20
91.05100
30
12.00000
0
SEQEND
8
4_12000
0
ENDSEC
0
EOF
