  0
SECTION
  2
BLOCKS
  0
ENDSEC
  0
SECTION
  2
ENTITIES
  0
LINE
  8
0
 10
1.91589
 20
-5.89655
 11
3.64426
 21
-5.0159
  0
LINE
  8
0
 10
3.64426
 20
-5.0159
 11
5.0159
 21
-3.64426
  0
LINE
  8
0
 10
5.0159
 20
-3.64426
 11
5.89655
 21
-1.91589
  0
LINE
  8
0
 10
5.89655
 20
-1.91589
 11
6.2
 21
0
  0
LINE
  8
0
 10
6.2
 20
0
 11
5.89655
 21
1.91589
  0
LINE
  8
0
 10
5.89655
 20
1.91589
 11
5.0159
 21
3.64426
  0
LINE
  8
0
 10
5.0159
 20
3.64426
 11
3.64426
 21
5.0159
  0
LINE
  8
0
 10
3.64426
 20
5.0159
 11
1.91589
 21
5.89655
  0
LINE
  8
0
 10
1.91589
 20
5.89655
 11
0
 21
6.2
  0
LINE
  8
0
 10
0
 20
6.2
 11
-1.91589
 21
5.89655
  0
LINE
  8
0
 10
-1.91589
 20
5.89655
 11
-3.64426
 21
5.0159
  0
LINE
  8
0
 10
-3.64426
 20
5.0159
 11
-5.0159
 21
3.64426
  0
LINE
  8
0
 10
-5.0159
 20
3.64426
 11
-5.89655
 21
1.91589
  0
LINE
  8
0
 10
-5.89655
 20
1.91589
 11
-6.2
 21
0
  0
LINE
  8
0
 10
-6.2
 20
0
 11
-5.89655
 21
-1.91589
  0
LINE
  8
0
 10
-5.89655
 20
-1.91589
 11
-5.0159
 21
-3.64426
  0
LINE
  8
0
 10
-5.0159
 20
-3.64426
 11
-3.64426
 21
-5.0159
  0
LINE
  8
0
 10
-3.64426
 20
-5.0159
 11
-1.91589
 21
-5.89655
  0
LINE
  8
0
 10
-1.91589
 20
-5.89655
 11
0
 21
-6.2
  0
LINE
  8
0
 10
0
 20
-6.2
 11
1.91589
 21
-5.89655
  0
LINE
  8
0
 10
-1.43135
 20
-4.29999
 11
-1.52101
 21
-4.22525
  0
LINE
  8
0
 10
-1.52101
 20
-4.22525
 11
-1.57445
 21
-4.17662
  0
LINE
  8
0
 10
-1.57445
 20
-4.17662
 11
-1.62634
 21
-4.12634
  0
LINE
  8
0
 10
-1.62634
 20
-4.12634
 11
-1.67662
 21
-4.07445
  0
LINE
  8
0
 10
-1.67662
 20
-4.07445
 11
-1.72525
 21
-4.02101
  0
LINE
  8
0
 10
-1.72525
 20
-4.02101
 11
-1.77217
 21
-3.96606
  0
LINE
  8
0
 10
-1.77217
 20
-3.96606
 11
-1.81735
 21
-3.90968
  0
LINE
  8
0
 10
-1.81735
 20
-3.90968
 11
-1.86073
 21
-3.8519
  0
LINE
  8
0
 10
-1.86073
 20
-3.8519
 11
-1.90228
 21
-3.79279
  0
LINE
  8
0
 10
-1.90228
 20
-3.79279
 11
-1.94194
 21
-3.73239
  0
LINE
  8
0
 10
-1.94194
 20
-3.73239
 11
-1.97971
 21
-3.67079
  0
LINE
  8
0
 10
-1.97971
 20
-3.67079
 11
-2.0155
 21
-3.60803
  0
LINE
  8
0
 10
-2.0155
 20
-3.60803
 11
-2.0493
 21
-3.54417
  0
LINE
  8
0
 10
-2.0493
 20
-3.54417
 11
-2.0811
 21
-3.47928
  0
LINE
  8
0
 10
-2.0811
 20
-3.47928
 11
-2.11082
 21
-3.41344
  0
LINE
  8
0
 10
-2.11082
 20
-3.41344
 11
-2.13847
 21
-3.34668
  0
LINE
  8
0
 10
-2.13847
 20
-3.34668
 11
-2.16402
 21
-3.27908
  0
LINE
  8
0
 10
-2.16402
 20
-3.27908
 11
-2.18742
 21
-3.21072
  0
LINE
  8
0
 10
-2.18742
 20
-3.21072
 11
-2.20866
 21
-3.14168
  0
LINE
  8
0
 10
-2.20866
 20
-3.14168
 11
-2.22774
 21
-3.07198
  0
LINE
  8
0
 10
-2.22774
 20
-3.07198
 11
-2.2446
 21
-3.00172
  0
LINE
  8
0
 10
-2.2446
 20
-3.00172
 11
-2.25925
 21
-2.93097
  0
LINE
  8
0
 10
-2.25925
 20
-2.93097
 11
-2.27168
 21
-2.85979
  0
LINE
  8
0
 10
-2.27168
 20
-2.85979
 11
-2.28186
 21
-2.78825
  0
LINE
  8
0
 10
-2.28186
 20
-2.78825
 11
-2.28978
 21
-2.71645
  0
LINE
  8
0
 10
-2.28978
 20
-2.71645
 11
-2.29546
 21
-2.64441
  0
LINE
  8
0
 10
-2.29546
 20
-2.64441
 11
-2.29886
 21
-2.57224
  0
LINE
  8
0
 10
-2.29886
 20
-2.57224
 11
-2.29999
 21
-2.5
  0
LINE
  8
0
 10
-2.29999
 20
-2.5
 11
-2.29886
 21
-2.42775
  0
LINE
  8
0
 10
-2.29886
 20
-2.42775
 11
-2.29546
 21
-2.35558
  0
LINE
  8
0
 10
-2.29546
 20
-2.35558
 11
-2.28978
 21
-2.28354
  0
LINE
  8
0
 10
-2.28978
 20
-2.28354
 11
-2.28186
 21
-2.21173
  0
LINE
  8
0
 10
-2.28186
 20
-2.21173
 11
-2.27168
 21
-2.1402
  0
LINE
  8
0
 10
-2.27168
 20
-2.1402
 11
-2.25925
 21
-2.06902
  0
LINE
  8
0
 10
-2.25925
 20
-2.06902
 11
-2.2446
 21
-1.99826
  0
LINE
  8
0
 10
-2.2446
 20
-1.99826
 11
-2.22774
 21
-1.92801
  0
LINE
  8
0
 10
-2.22774
 20
-1.92801
 11
-2.20866
 21
-1.85831
  0
LINE
  8
0
 10
-2.20866
 20
-1.85831
 11
-2.18742
 21
-1.78926
  0
LINE
  8
0
 10
-2.18742
 20
-1.78926
 11
-2.16402
 21
-1.7209
  0
LINE
  8
0
 10
-2.16402
 20
-1.7209
 11
-2.13847
 21
-1.65331
  0
LINE
  8
0
 10
-2.13847
 20
-1.65331
 11
-2.11082
 21
-1.58655
  0
LINE
  8
0
 10
-2.11082
 20
-1.58655
 11
-2.0811
 21
-1.52071
  0
LINE
  8
0
 10
-2.0811
 20
-1.52071
 11
-2.0493
 21
-1.45581
  0
LINE
  8
0
 10
-2.0493
 20
-1.45581
 11
-2.0155
 21
-1.39195
  0
LINE
  8
0
 10
-2.0155
 20
-1.39195
 11
-1.97971
 21
-1.32919
  0
LINE
  8
0
 10
-1.97971
 20
-1.32919
 11
-1.94194
 21
-1.26759
  0
LINE
  8
0
 10
-1.94194
 20
-1.26759
 11
-1.90228
 21
-1.2072
  0
LINE
  8
0
 10
-1.90228
 20
-1.2072
 11
-1.86073
 21
-1.14809
  0
LINE
  8
0
 10
-1.86073
 20
-1.14809
 11
-1.81735
 21
-1.0903
  0
LINE
  8
0
 10
-1.81735
 20
-1.0903
 11
-1.77217
 21
-1.03392
  0
LINE
  8
0
 10
-1.77217
 20
-1.03392
 11
-1.72525
 21
-0.978973
  0
LINE
  8
0
 10
-1.72525
 20
-0.978973
 11
-1.67662
 21
-0.925537
  0
LINE
  8
0
 10
-1.67662
 20
-0.925537
 11
-1.62634
 21
-0.873642
  0
LINE
  8
0
 10
-1.62634
 20
-0.873642
 11
-1.57445
 21
-0.823364
  0
LINE
  8
0
 10
-1.57445
 20
-0.823364
 11
-1.52101
 21
-0.774734
  0
LINE
  8
0
 10
-1.52101
 20
-0.774734
 11
-1.46606
 21
-0.727814
  0
LINE
  8
0
 10
-1.46606
 20
-0.727814
 11
-1.40968
 21
-0.682632
  0
LINE
  8
0
 10
-1.40968
 20
-0.682632
 11
-1.3519
 21
-0.639252
  0
LINE
  8
0
 10
-1.3519
 20
-0.639252
 11
-1.29279
 21
-0.597702
  0
LINE
  8
0
 10
-1.29279
 20
-0.597702
 11
-1.23239
 21
-0.558044
  0
LINE
  8
0
 10
-1.23239
 20
-0.558044
 11
-1.17079
 21
-0.520294
  0
LINE
  8
0
 10
-1.17079
 20
-0.520294
 11
-1.10803
 21
-0.484482
  0
LINE
  8
0
 10
-1.10803
 20
-0.484482
 11
-1.04417
 21
-0.450684
  0
LINE
  8
0
 10
-1.04417
 20
-0.450684
 11
-0.979279
 21
-0.418884
  0
LINE
  8
0
 10
-0.979279
 20
-0.418884
 11
-0.913437
 21
-0.38916
  0
LINE
  8
0
 10
-0.913437
 20
-0.38916
 11
-0.84668
 21
-0.361511
  0
LINE
  8
0
 10
-0.84668
 20
-0.361511
 11
-0.779083
 21
-0.335968
  0
LINE
  8
0
 10
-0.779083
 20
-0.335968
 11
-0.710724
 21
-0.312561
  0
LINE
  8
0
 10
-0.710724
 20
-0.312561
 11
-0.641678
 21
-0.291321
  0
LINE
  8
0
 10
-0.641678
 20
-0.291321
 11
-0.571976
 21
-0.272247
  0
LINE
  8
0
 10
-0.571976
 20
-0.272247
 11
-0.501724
 21
-0.255386
  0
LINE
  8
0
 10
-0.501724
 20
-0.255386
 11
-0.430969
 21
-0.240738
  0
LINE
  8
0
 10
-0.430969
 20
-0.240738
 11
-0.359787
 21
-0.228317
  0
LINE
  8
0
 10
-0.359787
 20
-0.228317
 11
-0.288254
 21
-0.218124
  0
LINE
  8
0
 10
-0.288254
 20
-0.218124
 11
-0.216446
 21
-0.210205
  0
LINE
  8
0
 10
-0.216446
 20
-0.210205
 11
-0.144409
 21
-0.204529
  0
LINE
  8
0
 10
-0.144409
 20
-0.204529
 11
-0.0722351
 21
-0.201126
  0
LINE
  8
0
 10
-0.0722351
 20
-0.201126
 11
0
 21
-0.199997
  0
LINE
  8
0
 10
0
 20
-0.199997
 11
0.0722351
 21
-0.201126
  0
LINE
  8
0
 10
0.0722351
 20
-0.201126
 11
0.144409
 21
-0.204529
  0
LINE
  8
0
 10
0.144409
 20
-0.204529
 11
0.216446
 21
-0.210205
  0
LINE
  8
0
 10
0.216446
 20
-0.210205
 11
0.288254
 21
-0.218124
  0
LINE
  8
0
 10
0.288254
 20
-0.218124
 11
0.359787
 21
-0.228317
  0
LINE
  8
0
 10
0.359787
 20
-0.228317
 11
0.430969
 21
-0.240738
  0
LINE
  8
0
 10
0.430969
 20
-0.240738
 11
0.501724
 21
-0.255386
  0
LINE
  8
0
 10
0.501724
 20
-0.255386
 11
0.571976
 21
-0.272247
  0
LINE
  8
0
 10
0.571976
 20
-0.272247
 11
0.641678
 21
-0.291321
  0
LINE
  8
0
 10
0.641678
 20
-0.291321
 11
0.710724
 21
-0.312561
  0
LINE
  8
0
 10
0.710724
 20
-0.312561
 11
0.779083
 21
-0.335968
  0
LINE
  8
0
 10
0.779083
 20
-0.335968
 11
0.84668
 21
-0.361511
  0
LINE
  8
0
 10
0.84668
 20
-0.361511
 11
0.913437
 21
-0.38916
  0
LINE
  8
0
 10
0.913437
 20
-0.38916
 11
0.979279
 21
-0.418884
  0
LINE
  8
0
 10
0.979279
 20
-0.418884
 11
1.04417
 21
-0.450684
  0
LINE
  8
0
 10
1.04417
 20
-0.450684
 11
1.10803
 21
-0.484482
  0
LINE
  8
0
 10
1.10803
 20
-0.484482
 11
1.17079
 21
-0.520294
  0
LINE
  8
0
 10
1.17079
 20
-0.520294
 11
1.23239
 21
-0.558044
  0
LINE
  8
0
 10
1.23239
 20
-0.558044
 11
1.29279
 21
-0.597702
  0
LINE
  8
0
 10
1.29279
 20
-0.597702
 11
1.3519
 21
-0.639252
  0
LINE
  8
0
 10
1.3519
 20
-0.639252
 11
1.40968
 21
-0.682632
  0
LINE
  8
0
 10
1.40968
 20
-0.682632
 11
1.46606
 21
-0.727814
  0
LINE
  8
0
 10
1.46606
 20
-0.727814
 11
1.52101
 21
-0.774734
  0
LINE
  8
0
 10
1.52101
 20
-0.774734
 11
1.57445
 21
-0.823364
  0
LINE
  8
0
 10
1.57445
 20
-0.823364
 11
1.62634
 21
-0.873642
  0
LINE
  8
0
 10
1.62634
 20
-0.873642
 11
1.67662
 21
-0.925537
  0
LINE
  8
0
 10
1.67662
 20
-0.925537
 11
1.72525
 21
-0.978973
  0
LINE
  8
0
 10
1.72525
 20
-0.978973
 11
1.77217
 21
-1.03392
  0
LINE
  8
0
 10
1.77217
 20
-1.03392
 11
1.81735
 21
-1.0903
  0
LINE
  8
0
 10
1.81735
 20
-1.0903
 11
1.86073
 21
-1.14809
  0
LINE
  8
0
 10
1.86073
 20
-1.14809
 11
1.90228
 21
-1.2072
  0
LINE
  8
0
 10
1.90228
 20
-1.2072
 11
1.94194
 21
-1.26759
  0
LINE
  8
0
 10
1.94194
 20
-1.26759
 11
1.97971
 21
-1.32919
  0
LINE
  8
0
 10
1.97971
 20
-1.32919
 11
2.0155
 21
-1.39195
  0
LINE
  8
0
 10
2.0155
 20
-1.39195
 11
2.0493
 21
-1.45581
  0
LINE
  8
0
 10
2.0493
 20
-1.45581
 11
2.0811
 21
-1.52071
  0
LINE
  8
0
 10
2.0811
 20
-1.52071
 11
2.11082
 21
-1.58655
  0
LINE
  8
0
 10
2.11082
 20
-1.58655
 11
2.13847
 21
-1.65331
  0
LINE
  8
0
 10
2.13847
 20
-1.65331
 11
2.16402
 21
-1.7209
  0
LINE
  8
0
 10
2.16402
 20
-1.7209
 11
2.18742
 21
-1.78926
  0
LINE
  8
0
 10
2.18742
 20
-1.78926
 11
2.20866
 21
-1.85831
  0
LINE
  8
0
 10
2.20866
 20
-1.85831
 11
2.22774
 21
-1.92801
  0
LINE
  8
0
 10
2.22774
 20
-1.92801
 11
2.2446
 21
-1.99826
  0
LINE
  8
0
 10
2.2446
 20
-1.99826
 11
2.25925
 21
-2.06902
  0
LINE
  8
0
 10
2.25925
 20
-2.06902
 11
2.27168
 21
-2.1402
  0
LINE
  8
0
 10
2.27168
 20
-2.1402
 11
2.28186
 21
-2.21173
  0
LINE
  8
0
 10
2.28186
 20
-2.21173
 11
2.28978
 21
-2.28354
  0
LINE
  8
0
 10
2.28978
 20
-2.28354
 11
2.29546
 21
-2.35558
  0
LINE
  8
0
 10
2.29546
 20
-2.35558
 11
2.29886
 21
-2.42775
  0
LINE
  8
0
 10
2.29886
 20
-2.42775
 11
2.29999
 21
-2.5
  0
LINE
  8
0
 10
2.29999
 20
-2.5
 11
2.29886
 21
-2.57224
  0
LINE
  8
0
 10
2.29886
 20
-2.57224
 11
2.29546
 21
-2.64441
  0
LINE
  8
0
 10
2.29546
 20
-2.64441
 11
2.28978
 21
-2.71645
  0
LINE
  8
0
 10
2.28978
 20
-2.71645
 11
2.28186
 21
-2.78825
  0
LINE
  8
0
 10
2.28186
 20
-2.78825
 11
2.27168
 21
-2.85979
  0
LINE
  8
0
 10
2.27168
 20
-2.85979
 11
2.25925
 21
-2.93097
  0
LINE
  8
0
 10
2.25925
 20
-2.93097
 11
2.2446
 21
-3.00172
  0
LINE
  8
0
 10
2.2446
 20
-3.00172
 11
2.22774
 21
-3.07198
  0
LINE
  8
0
 10
2.22774
 20
-3.07198
 11
2.20866
 21
-3.14168
  0
LINE
  8
0
 10
2.20866
 20
-3.14168
 11
2.18742
 21
-3.21072
  0
LINE
  8
0
 10
2.18742
 20
-3.21072
 11
2.16402
 21
-3.27908
  0
LINE
  8
0
 10
2.16402
 20
-3.27908
 11
2.13847
 21
-3.34668
  0
LINE
  8
0
 10
2.13847
 20
-3.34668
 11
2.11082
 21
-3.41344
  0
LINE
  8
0
 10
2.11082
 20
-3.41344
 11
2.0811
 21
-3.47928
  0
LINE
  8
0
 10
2.0811
 20
-3.47928
 11
2.0493
 21
-3.54417
  0
LINE
  8
0
 10
2.0493
 20
-3.54417
 11
2.0155
 21
-3.60803
  0
LINE
  8
0
 10
2.0155
 20
-3.60803
 11
1.97971
 21
-3.67079
  0
LINE
  8
0
 10
1.97971
 20
-3.67079
 11
1.94194
 21
-3.73239
  0
LINE
  8
0
 10
1.94194
 20
-3.73239
 11
1.90228
 21
-3.79279
  0
LINE
  8
0
 10
1.90228
 20
-3.79279
 11
1.86073
 21
-3.8519
  0
LINE
  8
0
 10
1.86073
 20
-3.8519
 11
1.81735
 21
-3.90968
  0
LINE
  8
0
 10
1.81735
 20
-3.90968
 11
1.77217
 21
-3.96606
  0
LINE
  8
0
 10
1.77217
 20
-3.96606
 11
1.72525
 21
-4.02101
  0
LINE
  8
0
 10
1.72525
 20
-4.02101
 11
1.67662
 21
-4.07445
  0
LINE
  8
0
 10
1.67662
 20
-4.07445
 11
1.62634
 21
-4.12634
  0
LINE
  8
0
 10
1.62634
 20
-4.12634
 11
1.57445
 21
-4.17662
  0
LINE
  8
0
 10
1.57445
 20
-4.17662
 11
1.52101
 21
-4.22525
  0
LINE
  8
0
 10
1.52101
 20
-4.22525
 11
1.43135
 21
-4.29999
  0
LINE
  8
0
 10
1.43135
 20
-4.29999
 11
-1.43135
 21
-4.29999
  0
ENDSEC
  0
SECTION
  2
OBJECTS
  0
DICTIONARY
  0
ENDSEC
  0
EOF
