  0
SECTION
  2
BLOCKS
  0
ENDSEC
  0
SECTION
  2
ENTITIES
  0
LINE
  8
0
 10
29.3566
 20
-90.3504
 11
47.5
 21
-82.2724
  0
LINE
  8
0
 10
47.5
 20
-82.2724
 11
63.5674
 21
-70.5988
  0
LINE
  8
0
 10
63.5674
 20
-70.5988
 11
76.8566
 21
-55.8396
  0
LINE
  8
0
 10
76.8566
 20
-55.8396
 11
86.7868
 21
-38.64
  0
LINE
  8
0
 10
86.7868
 20
-38.64
 11
87.1572
 21
-37.5
  0
LINE
  8
0
 10
87.1572
 20
-37.5
 11
65
 21
-37.5
  0
LINE
  8
0
 10
65
 20
-37.5
 11
65
 21
37.5
  0
LINE
  8
0
 10
65
 20
37.5
 11
87.1572
 21
37.5
  0
LINE
  8
0
 10
87.1572
 20
37.5
 11
86.7868
 21
38.64
  0
LINE
  8
0
 10
86.7868
 20
38.64
 11
76.8566
 21
55.8396
  0
LINE
  8
0
 10
76.8566
 20
55.8396
 11
63.5674
 21
70.5988
  0
LINE
  8
0
 10
63.5674
 20
70.5988
 11
47.5
 21
82.2724
  0
LINE
  8
0
 10
47.5
 20
82.2724
 11
29.3566
 21
90.3504
  0
LINE
  8
0
 10
29.3566
 20
90.3504
 11
9.93019
 21
94.4796
  0
LINE
  8
0
 10
9.93019
 20
94.4796
 11
-9.93019
 21
94.4796
  0
LINE
  8
0
 10
-9.93019
 20
94.4796
 11
-29.3566
 21
90.3504
  0
LINE
  8
0
 10
-29.3566
 20
90.3504
 11
-47.5
 21
82.2724
  0
LINE
  8
0
 10
-47.5
 20
82.2724
 11
-63.5674
 21
70.5988
  0
LINE
  8
0
 10
-63.5674
 20
70.5988
 11
-76.8566
 21
55.8396
  0
LINE
  8
0
 10
-76.8566
 20
55.8396
 11
-86.7868
 21
38.64
  0
LINE
  8
0
 10
-86.7868
 20
38.64
 11
-87.1572
 21
37.5
  0
LINE
  8
0
 10
-87.1572
 20
37.5
 11
-65
 21
37.5
  0
LINE
  8
0
 10
-65
 20
37.5
 11
-65
 21
-37.5
  0
LINE
  8
0
 10
-65
 20
-37.5
 11
-87.1572
 21
-37.5
  0
LINE
  8
0
 10
-87.1572
 20
-37.5
 11
-86.7868
 21
-38.64
  0
LINE
  8
0
 10
-86.7868
 20
-38.64
 11
-76.8566
 21
-55.8396
  0
LINE
  8
0
 10
-76.8566
 20
-55.8396
 11
-63.5674
 21
-70.5988
  0
LINE
  8
0
 10
-63.5674
 20
-70.5988
 11
-47.5
 21
-82.2724
  0
LINE
  8
0
 10
-47.5
 20
-82.2724
 11
-29.3566
 21
-90.3504
  0
LINE
  8
0
 10
-29.3566
 20
-90.3504
 11
-9.93019
 21
-94.4796
  0
LINE
  8
0
 10
-9.93019
 20
-94.4796
 11
9.93019
 21
-94.4796
  0
LINE
  8
0
 10
9.93019
 20
-94.4796
 11
29.3566
 21
-90.3504
  0
LINE
  8
0
 10
14
 20
70
 11
14
 21
74
  0
LINE
  8
0
 10
14
 20
74
 11
18
 21
74
  0
LINE
  8
0
 10
18
 20
74
 11
18
 21
70
  0
LINE
  8
0
 10
18
 20
70
 11
14
 21
70
  0
LINE
  8
0
 10
22
 20
70
 11
22
 21
74
  0
LINE
  8
0
 10
22
 20
74
 11
26
 21
74
  0
LINE
  8
0
 10
26
 20
74
 11
26
 21
70
  0
LINE
  8
0
 10
26
 20
70
 11
22
 21
70
  0
LINE
  8
0
 10
-34
 20
70
 11
-34
 21
74
  0
LINE
  8
0
 10
-34
 20
74
 11
-30
 21
74
  0
LINE
  8
0
 10
-30
 20
74
 11
-30
 21
70
  0
LINE
  8
0
 10
-30
 20
70
 11
-34
 21
70
  0
LINE
  8
0
 10
38
 20
70
 11
38
 21
74
  0
LINE
  8
0
 10
38
 20
74
 11
42
 21
74
  0
LINE
  8
0
 10
42
 20
74
 11
42
 21
70
  0
LINE
  8
0
 10
42
 20
70
 11
38
 21
70
  0
LINE
  8
0
 10
-18
 20
70
 11
-18
 21
74
  0
LINE
  8
0
 10
-18
 20
74
 11
-14
 21
74
  0
LINE
  8
0
 10
-14
 20
74
 11
-14
 21
70
  0
LINE
  8
0
 10
-14
 20
70
 11
-18
 21
70
  0
LINE
  8
0
 10
-10
 20
70
 11
-10
 21
74
  0
LINE
  8
0
 10
-10
 20
74
 11
-6
 21
74
  0
LINE
  8
0
 10
-6
 20
74
 11
-6
 21
70
  0
LINE
  8
0
 10
-6
 20
70
 11
-10
 21
70
  0
LINE
  8
0
 10
-26
 20
70
 11
-26
 21
74
  0
LINE
  8
0
 10
-26
 20
74
 11
-22
 21
74
  0
LINE
  8
0
 10
-22
 20
74
 11
-22
 21
70
  0
LINE
  8
0
 10
-22
 20
70
 11
-26
 21
70
  0
LINE
  8
0
 10
30
 20
70
 11
30
 21
74
  0
LINE
  8
0
 10
30
 20
74
 11
34
 21
74
  0
LINE
  8
0
 10
34
 20
74
 11
34
 21
70
  0
LINE
  8
0
 10
34
 20
70
 11
30
 21
70
  0
LINE
  8
0
 10
6
 20
70
 11
6
 21
74
  0
LINE
  8
0
 10
6
 20
74
 11
10
 21
74
  0
LINE
  8
0
 10
10
 20
74
 11
10
 21
70
  0
LINE
  8
0
 10
10
 20
70
 11
6
 21
70
  0
LINE
  8
0
 10
-2
 20
70
 11
-2
 21
74
  0
LINE
  8
0
 10
-2
 20
74
 11
2
 21
74
  0
LINE
  8
0
 10
2
 20
74
 11
2
 21
70
  0
LINE
  8
0
 10
2
 20
70
 11
-2
 21
70
  0
LINE
  8
0
 10
-42
 20
70
 11
-42
 21
74
  0
LINE
  8
0
 10
-42
 20
74
 11
-38
 21
74
  0
LINE
  8
0
 10
-38
 20
74
 11
-38
 21
70
  0
LINE
  8
0
 10
-38
 20
70
 11
-42
 21
70
  0
LINE
  8
0
 10
46
 20
58
 11
46
 21
70
  0
LINE
  8
0
 10
46
 20
70
 11
53
 21
70
  0
LINE
  8
0
 10
53
 20
70
 11
53
 21
58
  0
LINE
  8
0
 10
53
 20
58
 11
46
 21
58
  0
LINE
  8
0
 10
-53
 20
58
 11
-53
 21
70
  0
LINE
  8
0
 10
-53
 20
70
 11
-46
 21
70
  0
LINE
  8
0
 10
-46
 20
70
 11
-46
 21
58
  0
LINE
  8
0
 10
-46
 20
58
 11
-53
 21
58
  0
LINE
  8
0
 10
6
 20
62
 11
6
 21
66
  0
LINE
  8
0
 10
6
 20
66
 11
10
 21
66
  0
LINE
  8
0
 10
10
 20
66
 11
10
 21
62
  0
LINE
  8
0
 10
10
 20
62
 11
6
 21
62
  0
LINE
  8
0
 10
38
 20
62
 11
38
 21
66
  0
LINE
  8
0
 10
38
 20
66
 11
42
 21
66
  0
LINE
  8
0
 10
42
 20
66
 11
42
 21
62
  0
LINE
  8
0
 10
42
 20
62
 11
38
 21
62
  0
LINE
  8
0
 10
-34
 20
62
 11
-34
 21
66
  0
LINE
  8
0
 10
-34
 20
66
 11
-30
 21
66
  0
LINE
  8
0
 10
-30
 20
66
 11
-30
 21
62
  0
LINE
  8
0
 10
-30
 20
62
 11
-34
 21
62
  0
LINE
  8
0
 10
-2
 20
62
 11
-2
 21
66
  0
LINE
  8
0
 10
-2
 20
66
 11
2
 21
66
  0
LINE
  8
0
 10
2
 20
66
 11
2
 21
62
  0
LINE
  8
0
 10
2
 20
62
 11
-2
 21
62
  0
LINE
  8
0
 10
-10
 20
62
 11
-10
 21
66
  0
LINE
  8
0
 10
-10
 20
66
 11
-6
 21
66
  0
LINE
  8
0
 10
-6
 20
66
 11
-6
 21
62
  0
LINE
  8
0
 10
-6
 20
62
 11
-10
 21
62
  0
LINE
  8
0
 10
-18
 20
62
 11
-18
 21
66
  0
LINE
  8
0
 10
-18
 20
66
 11
-14
 21
66
  0
LINE
  8
0
 10
-14
 20
66
 11
-14
 21
62
  0
LINE
  8
0
 10
-14
 20
62
 11
-18
 21
62
  0
LINE
  8
0
 10
30
 20
62
 11
30
 21
66
  0
LINE
  8
0
 10
30
 20
66
 11
34
 21
66
  0
LINE
  8
0
 10
34
 20
66
 11
34
 21
62
  0
LINE
  8
0
 10
34
 20
62
 11
30
 21
62
  0
LINE
  8
0
 10
22
 20
62
 11
22
 21
66
  0
LINE
  8
0
 10
22
 20
66
 11
26
 21
66
  0
LINE
  8
0
 10
26
 20
66
 11
26
 21
62
  0
LINE
  8
0
 10
26
 20
62
 11
22
 21
62
  0
LINE
  8
0
 10
-26
 20
62
 11
-26
 21
66
  0
LINE
  8
0
 10
-26
 20
66
 11
-22
 21
66
  0
LINE
  8
0
 10
-22
 20
66
 11
-22
 21
62
  0
LINE
  8
0
 10
-22
 20
62
 11
-26
 21
62
  0
LINE
  8
0
 10
-42
 20
62
 11
-42
 21
66
  0
LINE
  8
0
 10
-42
 20
66
 11
-38
 21
66
  0
LINE
  8
0
 10
-38
 20
66
 11
-38
 21
62
  0
LINE
  8
0
 10
-38
 20
62
 11
-42
 21
62
  0
LINE
  8
0
 10
14
 20
62
 11
14
 21
66
  0
LINE
  8
0
 10
14
 20
66
 11
18
 21
66
  0
LINE
  8
0
 10
18
 20
66
 11
18
 21
62
  0
LINE
  8
0
 10
18
 20
62
 11
14
 21
62
  0
LINE
  8
0
 10
-2
 20
54
 11
-2
 21
58
  0
LINE
  8
0
 10
-2
 20
58
 11
2
 21
58
  0
LINE
  8
0
 10
2
 20
58
 11
2
 21
54
  0
LINE
  8
0
 10
2
 20
54
 11
-2
 21
54
  0
LINE
  8
0
 10
14
 20
54
 11
14
 21
58
  0
LINE
  8
0
 10
14
 20
58
 11
18
 21
58
  0
LINE
  8
0
 10
18
 20
58
 11
18
 21
54
  0
LINE
  8
0
 10
18
 20
54
 11
14
 21
54
  0
LINE
  8
0
 10
30
 20
54
 11
30
 21
58
  0
LINE
  8
0
 10
30
 20
58
 11
34
 21
58
  0
LINE
  8
0
 10
34
 20
58
 11
34
 21
54
  0
LINE
  8
0
 10
34
 20
54
 11
30
 21
54
  0
LINE
  8
0
 10
-10
 20
54
 11
-10
 21
58
  0
LINE
  8
0
 10
-10
 20
58
 11
-6
 21
58
  0
LINE
  8
0
 10
-6
 20
58
 11
-6
 21
54
  0
LINE
  8
0
 10
-6
 20
54
 11
-10
 21
54
  0
LINE
  8
0
 10
-18
 20
54
 11
-18
 21
58
  0
LINE
  8
0
 10
-18
 20
58
 11
-14
 21
58
  0
LINE
  8
0
 10
-14
 20
58
 11
-14
 21
54
  0
LINE
  8
0
 10
-14
 20
54
 11
-18
 21
54
  0
LINE
  8
0
 10
38
 20
54
 11
38
 21
58
  0
LINE
  8
0
 10
38
 20
58
 11
42
 21
58
  0
LINE
  8
0
 10
42
 20
58
 11
42
 21
54
  0
LINE
  8
0
 10
42
 20
54
 11
38
 21
54
  0
LINE
  8
0
 10
-42
 20
54
 11
-42
 21
58
  0
LINE
  8
0
 10
-42
 20
58
 11
-38
 21
58
  0
LINE
  8
0
 10
-38
 20
58
 11
-38
 21
54
  0
LINE
  8
0
 10
-38
 20
54
 11
-42
 21
54
  0
LINE
  8
0
 10
6
 20
54
 11
6
 21
58
  0
LINE
  8
0
 10
6
 20
58
 11
10
 21
58
  0
LINE
  8
0
 10
10
 20
58
 11
10
 21
54
  0
LINE
  8
0
 10
10
 20
54
 11
6
 21
54
  0
LINE
  8
0
 10
-34
 20
54
 11
-34
 21
58
  0
LINE
  8
0
 10
-34
 20
58
 11
-30
 21
58
  0
LINE
  8
0
 10
-30
 20
58
 11
-30
 21
54
  0
LINE
  8
0
 10
-30
 20
54
 11
-34
 21
54
  0
LINE
  8
0
 10
22
 20
54
 11
22
 21
58
  0
LINE
  8
0
 10
22
 20
58
 11
26
 21
58
  0
LINE
  8
0
 10
26
 20
58
 11
26
 21
54
  0
LINE
  8
0
 10
26
 20
54
 11
22
 21
54
  0
LINE
  8
0
 10
-26
 20
54
 11
-26
 21
58
  0
LINE
  8
0
 10
-26
 20
58
 11
-22
 21
58
  0
LINE
  8
0
 10
-22
 20
58
 11
-22
 21
54
  0
LINE
  8
0
 10
-22
 20
54
 11
-26
 21
54
  0
LINE
  8
0
 10
-42
 20
46
 11
-42
 21
50
  0
LINE
  8
0
 10
-42
 20
50
 11
-38
 21
50
  0
LINE
  8
0
 10
-38
 20
50
 11
-38
 21
46
  0
LINE
  8
0
 10
-38
 20
46
 11
-42
 21
46
  0
LINE
  8
0
 10
30
 20
46
 11
30
 21
50
  0
LINE
  8
0
 10
30
 20
50
 11
34
 21
50
  0
LINE
  8
0
 10
34
 20
50
 11
34
 21
46
  0
LINE
  8
0
 10
34
 20
46
 11
30
 21
46
  0
LINE
  8
0
 10
-10
 20
46
 11
-10
 21
50
  0
LINE
  8
0
 10
-10
 20
50
 11
-6
 21
50
  0
LINE
  8
0
 10
-6
 20
50
 11
-6
 21
46
  0
LINE
  8
0
 10
-6
 20
46
 11
-10
 21
46
  0
LINE
  8
0
 10
-34
 20
46
 11
-34
 21
50
  0
LINE
  8
0
 10
-34
 20
50
 11
-30
 21
50
  0
LINE
  8
0
 10
-30
 20
50
 11
-30
 21
46
  0
LINE
  8
0
 10
-30
 20
46
 11
-34
 21
46
  0
LINE
  8
0
 10
-26
 20
46
 11
-26
 21
50
  0
LINE
  8
0
 10
-26
 20
50
 11
-22
 21
50
  0
LINE
  8
0
 10
-22
 20
50
 11
-22
 21
46
  0
LINE
  8
0
 10
-22
 20
46
 11
-26
 21
46
  0
LINE
  8
0
 10
6
 20
46
 11
6
 21
50
  0
LINE
  8
0
 10
6
 20
50
 11
10
 21
50
  0
LINE
  8
0
 10
10
 20
50
 11
10
 21
46
  0
LINE
  8
0
 10
10
 20
46
 11
6
 21
46
  0
LINE
  8
0
 10
22
 20
46
 11
22
 21
50
  0
LINE
  8
0
 10
22
 20
50
 11
26
 21
50
  0
LINE
  8
0
 10
26
 20
50
 11
26
 21
46
  0
LINE
  8
0
 10
26
 20
46
 11
22
 21
46
  0
LINE
  8
0
 10
14
 20
46
 11
14
 21
50
  0
LINE
  8
0
 10
14
 20
50
 11
18
 21
50
  0
LINE
  8
0
 10
18
 20
50
 11
18
 21
46
  0
LINE
  8
0
 10
18
 20
46
 11
14
 21
46
  0
LINE
  8
0
 10
-18
 20
46
 11
-18
 21
50
  0
LINE
  8
0
 10
-18
 20
50
 11
-14
 21
50
  0
LINE
  8
0
 10
-14
 20
50
 11
-14
 21
46
  0
LINE
  8
0
 10
-14
 20
46
 11
-18
 21
46
  0
LINE
  8
0
 10
-2
 20
46
 11
-2
 21
50
  0
LINE
  8
0
 10
-2
 20
50
 11
2
 21
50
  0
LINE
  8
0
 10
2
 20
50
 11
2
 21
46
  0
LINE
  8
0
 10
2
 20
46
 11
-2
 21
46
  0
LINE
  8
0
 10
38
 20
46
 11
38
 21
50
  0
LINE
  8
0
 10
38
 20
50
 11
42
 21
50
  0
LINE
  8
0
 10
42
 20
50
 11
42
 21
46
  0
LINE
  8
0
 10
42
 20
46
 11
38
 21
46
  0
LINE
  8
0
 10
38
 20
38
 11
38
 21
42
  0
LINE
  8
0
 10
38
 20
42
 11
42
 21
42
  0
LINE
  8
0
 10
42
 20
42
 11
42
 21
38
  0
LINE
  8
0
 10
42
 20
38
 11
38
 21
38
  0
LINE
  8
0
 10
-10
 20
38
 11
-10
 21
42
  0
LINE
  8
0
 10
-10
 20
42
 11
-6
 21
42
  0
LINE
  8
0
 10
-6
 20
42
 11
-6
 21
38
  0
LINE
  8
0
 10
-6
 20
38
 11
-10
 21
38
  0
LINE
  8
0
 10
6
 20
38
 11
6
 21
42
  0
LINE
  8
0
 10
6
 20
42
 11
10
 21
42
  0
LINE
  8
0
 10
10
 20
42
 11
10
 21
38
  0
LINE
  8
0
 10
10
 20
38
 11
6
 21
38
  0
LINE
  8
0
 10
30
 20
38
 11
30
 21
42
  0
LINE
  8
0
 10
30
 20
42
 11
34
 21
42
  0
LINE
  8
0
 10
34
 20
42
 11
34
 21
38
  0
LINE
  8
0
 10
34
 20
38
 11
30
 21
38
  0
LINE
  8
0
 10
14
 20
38
 11
14
 21
42
  0
LINE
  8
0
 10
14
 20
42
 11
18
 21
42
  0
LINE
  8
0
 10
18
 20
42
 11
18
 21
38
  0
LINE
  8
0
 10
18
 20
38
 11
14
 21
38
  0
LINE
  8
0
 10
-42
 20
38
 11
-42
 21
42
  0
LINE
  8
0
 10
-42
 20
42
 11
-38
 21
42
  0
LINE
  8
0
 10
-38
 20
42
 11
-38
 21
38
  0
LINE
  8
0
 10
-38
 20
38
 11
-42
 21
38
  0
LINE
  8
0
 10
-18
 20
38
 11
-18
 21
42
  0
LINE
  8
0
 10
-18
 20
42
 11
-14
 21
42
  0
LINE
  8
0
 10
-14
 20
42
 11
-14
 21
38
  0
LINE
  8
0
 10
-14
 20
38
 11
-18
 21
38
  0
LINE
  8
0
 10
22
 20
38
 11
22
 21
42
  0
LINE
  8
0
 10
22
 20
42
 11
26
 21
42
  0
LINE
  8
0
 10
26
 20
42
 11
26
 21
38
  0
LINE
  8
0
 10
26
 20
38
 11
22
 21
38
  0
LINE
  8
0
 10
-26
 20
38
 11
-26
 21
42
  0
LINE
  8
0
 10
-26
 20
42
 11
-22
 21
42
  0
LINE
  8
0
 10
-22
 20
42
 11
-22
 21
38
  0
LINE
  8
0
 10
-22
 20
38
 11
-26
 21
38
  0
LINE
  8
0
 10
-34
 20
38
 11
-34
 21
42
  0
LINE
  8
0
 10
-34
 20
42
 11
-30
 21
42
  0
LINE
  8
0
 10
-30
 20
42
 11
-30
 21
38
  0
LINE
  8
0
 10
-30
 20
38
 11
-34
 21
38
  0
LINE
  8
0
 10
-2
 20
38
 11
-2
 21
42
  0
LINE
  8
0
 10
-2
 20
42
 11
2
 21
42
  0
LINE
  8
0
 10
2
 20
42
 11
2
 21
38
  0
LINE
  8
0
 10
2
 20
38
 11
-2
 21
38
  0
LINE
  8
0
 10
14
 20
30
 11
14
 21
34
  0
LINE
  8
0
 10
14
 20
34
 11
18
 21
34
  0
LINE
  8
0
 10
18
 20
34
 11
18
 21
30
  0
LINE
  8
0
 10
18
 20
30
 11
14
 21
30
  0
LINE
  8
0
 10
6
 20
30
 11
6
 21
34
  0
LINE
  8
0
 10
6
 20
34
 11
10
 21
34
  0
LINE
  8
0
 10
10
 20
34
 11
10
 21
30
  0
LINE
  8
0
 10
10
 20
30
 11
6
 21
30
  0
LINE
  8
0
 10
-10
 20
30
 11
-10
 21
34
  0
LINE
  8
0
 10
-10
 20
34
 11
-6
 21
34
  0
LINE
  8
0
 10
-6
 20
34
 11
-6
 21
30
  0
LINE
  8
0
 10
-6
 20
30
 11
-10
 21
30
  0
LINE
  8
0
 10
38
 20
30
 11
38
 21
34
  0
LINE
  8
0
 10
38
 20
34
 11
42
 21
34
  0
LINE
  8
0
 10
42
 20
34
 11
42
 21
30
  0
LINE
  8
0
 10
42
 20
30
 11
38
 21
30
  0
LINE
  8
0
 10
30
 20
30
 11
30
 21
34
  0
LINE
  8
0
 10
30
 20
34
 11
34
 21
34
  0
LINE
  8
0
 10
34
 20
34
 11
34
 21
30
  0
LINE
  8
0
 10
34
 20
30
 11
30
 21
30
  0
LINE
  8
0
 10
-18
 20
30
 11
-18
 21
34
  0
LINE
  8
0
 10
-18
 20
34
 11
-14
 21
34
  0
LINE
  8
0
 10
-14
 20
34
 11
-14
 21
30
  0
LINE
  8
0
 10
-14
 20
30
 11
-18
 21
30
  0
LINE
  8
0
 10
22
 20
30
 11
22
 21
34
  0
LINE
  8
0
 10
22
 20
34
 11
26
 21
34
  0
LINE
  8
0
 10
26
 20
34
 11
26
 21
30
  0
LINE
  8
0
 10
26
 20
30
 11
22
 21
30
  0
LINE
  8
0
 10
-26
 20
30
 11
-26
 21
34
  0
LINE
  8
0
 10
-26
 20
34
 11
-22
 21
34
  0
LINE
  8
0
 10
-22
 20
34
 11
-22
 21
30
  0
LINE
  8
0
 10
-22
 20
30
 11
-26
 21
30
  0
LINE
  8
0
 10
-34
 20
30
 11
-34
 21
34
  0
LINE
  8
0
 10
-34
 20
34
 11
-30
 21
34
  0
LINE
  8
0
 10
-30
 20
34
 11
-30
 21
30
  0
LINE
  8
0
 10
-30
 20
30
 11
-34
 21
30
  0
LINE
  8
0
 10
-2
 20
30
 11
-2
 21
34
  0
LINE
  8
0
 10
-2
 20
34
 11
2
 21
34
  0
LINE
  8
0
 10
2
 20
34
 11
2
 21
30
  0
LINE
  8
0
 10
2
 20
30
 11
-2
 21
30
  0
LINE
  8
0
 10
-42
 20
30
 11
-42
 21
34
  0
LINE
  8
0
 10
-42
 20
34
 11
-38
 21
34
  0
LINE
  8
0
 10
-38
 20
34
 11
-38
 21
30
  0
LINE
  8
0
 10
-38
 20
30
 11
-42
 21
30
  0
LINE
  8
0
 10
-10
 20
22
 11
-10
 21
26
  0
LINE
  8
0
 10
-10
 20
26
 11
-6
 21
26
  0
LINE
  8
0
 10
-6
 20
26
 11
-6
 21
22
  0
LINE
  8
0
 10
-6
 20
22
 11
-10
 21
22
  0
LINE
  8
0
 10
-34
 20
22
 11
-34
 21
26
  0
LINE
  8
0
 10
-34
 20
26
 11
-30
 21
26
  0
LINE
  8
0
 10
-30
 20
26
 11
-30
 21
22
  0
LINE
  8
0
 10
-30
 20
22
 11
-34
 21
22
  0
LINE
  8
0
 10
-18
 20
22
 11
-18
 21
26
  0
LINE
  8
0
 10
-18
 20
26
 11
-14
 21
26
  0
LINE
  8
0
 10
-14
 20
26
 11
-14
 21
22
  0
LINE
  8
0
 10
-14
 20
22
 11
-18
 21
22
  0
LINE
  8
0
 10
-42
 20
22
 11
-42
 21
26
  0
LINE
  8
0
 10
-42
 20
26
 11
-38
 21
26
  0
LINE
  8
0
 10
-38
 20
26
 11
-38
 21
22
  0
LINE
  8
0
 10
-38
 20
22
 11
-42
 21
22
  0
LINE
  8
0
 10
-26
 20
22
 11
-26
 21
26
  0
LINE
  8
0
 10
-26
 20
26
 11
-22
 21
26
  0
LINE
  8
0
 10
-22
 20
26
 11
-22
 21
22
  0
LINE
  8
0
 10
-22
 20
22
 11
-26
 21
22
  0
LINE
  8
0
 10
30
 20
22
 11
30
 21
26
  0
LINE
  8
0
 10
30
 20
26
 11
34
 21
26
  0
LINE
  8
0
 10
34
 20
26
 11
34
 21
22
  0
LINE
  8
0
 10
34
 20
22
 11
30
 21
22
  0
LINE
  8
0
 10
22
 20
22
 11
22
 21
26
  0
LINE
  8
0
 10
22
 20
26
 11
26
 21
26
  0
LINE
  8
0
 10
26
 20
26
 11
26
 21
22
  0
LINE
  8
0
 10
26
 20
22
 11
22
 21
22
  0
LINE
  8
0
 10
14
 20
22
 11
14
 21
26
  0
LINE
  8
0
 10
14
 20
26
 11
18
 21
26
  0
LINE
  8
0
 10
18
 20
26
 11
18
 21
22
  0
LINE
  8
0
 10
18
 20
22
 11
14
 21
22
  0
LINE
  8
0
 10
-2
 20
22
 11
-2
 21
26
  0
LINE
  8
0
 10
-2
 20
26
 11
2
 21
26
  0
LINE
  8
0
 10
2
 20
26
 11
2
 21
22
  0
LINE
  8
0
 10
2
 20
22
 11
-2
 21
22
  0
LINE
  8
0
 10
6
 20
22
 11
6
 21
26
  0
LINE
  8
0
 10
6
 20
26
 11
10
 21
26
  0
LINE
  8
0
 10
10
 20
26
 11
10
 21
22
  0
LINE
  8
0
 10
10
 20
22
 11
6
 21
22
  0
LINE
  8
0
 10
38
 20
22
 11
38
 21
26
  0
LINE
  8
0
 10
38
 20
26
 11
42
 21
26
  0
LINE
  8
0
 10
42
 20
26
 11
42
 21
22
  0
LINE
  8
0
 10
42
 20
22
 11
38
 21
22
  0
LINE
  8
0
 10
-34
 20
14
 11
-34
 21
18
  0
LINE
  8
0
 10
-34
 20
18
 11
-30
 21
18
  0
LINE
  8
0
 10
-30
 20
18
 11
-30
 21
14
  0
LINE
  8
0
 10
-30
 20
14
 11
-34
 21
14
  0
LINE
  8
0
 10
-10
 20
14
 11
-10
 21
18
  0
LINE
  8
0
 10
-10
 20
18
 11
-6
 21
18
  0
LINE
  8
0
 10
-6
 20
18
 11
-6
 21
14
  0
LINE
  8
0
 10
-6
 20
14
 11
-10
 21
14
  0
LINE
  8
0
 10
-42
 20
14
 11
-42
 21
18
  0
LINE
  8
0
 10
-42
 20
18
 11
-38
 21
18
  0
LINE
  8
0
 10
-38
 20
18
 11
-38
 21
14
  0
LINE
  8
0
 10
-38
 20
14
 11
-42
 21
14
  0
LINE
  8
0
 10
38
 20
14
 11
38
 21
18
  0
LINE
  8
0
 10
38
 20
18
 11
42
 21
18
  0
LINE
  8
0
 10
42
 20
18
 11
42
 21
14
  0
LINE
  8
0
 10
42
 20
14
 11
38
 21
14
  0
LINE
  8
0
 10
6
 20
14
 11
6
 21
18
  0
LINE
  8
0
 10
6
 20
18
 11
10
 21
18
  0
LINE
  8
0
 10
10
 20
18
 11
10
 21
14
  0
LINE
  8
0
 10
10
 20
14
 11
6
 21
14
  0
LINE
  8
0
 10
-18
 20
14
 11
-18
 21
18
  0
LINE
  8
0
 10
-18
 20
18
 11
-14
 21
18
  0
LINE
  8
0
 10
-14
 20
18
 11
-14
 21
14
  0
LINE
  8
0
 10
-14
 20
14
 11
-18
 21
14
  0
LINE
  8
0
 10
14
 20
14
 11
14
 21
18
  0
LINE
  8
0
 10
14
 20
18
 11
18
 21
18
  0
LINE
  8
0
 10
18
 20
18
 11
18
 21
14
  0
LINE
  8
0
 10
18
 20
14
 11
14
 21
14
  0
LINE
  8
0
 10
22
 20
14
 11
22
 21
18
  0
LINE
  8
0
 10
22
 20
18
 11
26
 21
18
  0
LINE
  8
0
 10
26
 20
18
 11
26
 21
14
  0
LINE
  8
0
 10
26
 20
14
 11
22
 21
14
  0
LINE
  8
0
 10
-26
 20
14
 11
-26
 21
18
  0
LINE
  8
0
 10
-26
 20
18
 11
-22
 21
18
  0
LINE
  8
0
 10
-22
 20
18
 11
-22
 21
14
  0
LINE
  8
0
 10
-22
 20
14
 11
-26
 21
14
  0
LINE
  8
0
 10
-2
 20
14
 11
-2
 21
18
  0
LINE
  8
0
 10
-2
 20
18
 11
2
 21
18
  0
LINE
  8
0
 10
2
 20
18
 11
2
 21
14
  0
LINE
  8
0
 10
2
 20
14
 11
-2
 21
14
  0
LINE
  8
0
 10
30
 20
14
 11
30
 21
18
  0
LINE
  8
0
 10
30
 20
18
 11
34
 21
18
  0
LINE
  8
0
 10
34
 20
18
 11
34
 21
14
  0
LINE
  8
0
 10
34
 20
14
 11
30
 21
14
  0
LINE
  8
0
 10
-34
 20
6
 11
-34
 21
10
  0
LINE
  8
0
 10
-34
 20
10
 11
-30
 21
10
  0
LINE
  8
0
 10
-30
 20
10
 11
-30
 21
6
  0
LINE
  8
0
 10
-30
 20
6
 11
-34
 21
6
  0
LINE
  8
0
 10
6
 20
6
 11
6
 21
10
  0
LINE
  8
0
 10
6
 20
10
 11
10
 21
10
  0
LINE
  8
0
 10
10
 20
10
 11
10
 21
6
  0
LINE
  8
0
 10
10
 20
6
 11
6
 21
6
  0
LINE
  8
0
 10
30
 20
6
 11
30
 21
10
  0
LINE
  8
0
 10
30
 20
10
 11
34
 21
10
  0
LINE
  8
0
 10
34
 20
10
 11
34
 21
6
  0
LINE
  8
0
 10
34
 20
6
 11
30
 21
6
  0
LINE
  8
0
 10
-10
 20
6
 11
-10
 21
10
  0
LINE
  8
0
 10
-10
 20
10
 11
-6
 21
10
  0
LINE
  8
0
 10
-6
 20
10
 11
-6
 21
6
  0
LINE
  8
0
 10
-6
 20
6
 11
-10
 21
6
  0
LINE
  8
0
 10
22
 20
6
 11
22
 21
10
  0
LINE
  8
0
 10
22
 20
10
 11
26
 21
10
  0
LINE
  8
0
 10
26
 20
10
 11
26
 21
6
  0
LINE
  8
0
 10
26
 20
6
 11
22
 21
6
  0
LINE
  8
0
 10
-42
 20
6
 11
-42
 21
10
  0
LINE
  8
0
 10
-42
 20
10
 11
-38
 21
10
  0
LINE
  8
0
 10
-38
 20
10
 11
-38
 21
6
  0
LINE
  8
0
 10
-38
 20
6
 11
-42
 21
6
  0
LINE
  8
0
 10
14
 20
6
 11
14
 21
10
  0
LINE
  8
0
 10
14
 20
10
 11
18
 21
10
  0
LINE
  8
0
 10
18
 20
10
 11
18
 21
6
  0
LINE
  8
0
 10
18
 20
6
 11
14
 21
6
  0
LINE
  8
0
 10
38
 20
6
 11
38
 21
10
  0
LINE
  8
0
 10
38
 20
10
 11
42
 21
10
  0
LINE
  8
0
 10
42
 20
10
 11
42
 21
6
  0
LINE
  8
0
 10
42
 20
6
 11
38
 21
6
  0
LINE
  8
0
 10
-18
 20
6
 11
-18
 21
10
  0
LINE
  8
0
 10
-18
 20
10
 11
-14
 21
10
  0
LINE
  8
0
 10
-14
 20
10
 11
-14
 21
6
  0
LINE
  8
0
 10
-14
 20
6
 11
-18
 21
6
  0
LINE
  8
0
 10
-2
 20
6
 11
-2
 21
10
  0
LINE
  8
0
 10
-2
 20
10
 11
2
 21
10
  0
LINE
  8
0
 10
2
 20
10
 11
2
 21
6
  0
LINE
  8
0
 10
2
 20
6
 11
-2
 21
6
  0
LINE
  8
0
 10
-26
 20
6
 11
-26
 21
10
  0
LINE
  8
0
 10
-26
 20
10
 11
-22
 21
10
  0
LINE
  8
0
 10
-22
 20
10
 11
-22
 21
6
  0
LINE
  8
0
 10
-22
 20
6
 11
-26
 21
6
  0
LINE
  8
0
 10
38
 20
-2
 11
38
 21
2
  0
LINE
  8
0
 10
38
 20
2
 11
42
 21
2
  0
LINE
  8
0
 10
42
 20
2
 11
42
 21
-2
  0
LINE
  8
0
 10
42
 20
-2
 11
38
 21
-2
  0
LINE
  8
0
 10
6
 20
-2
 11
6
 21
2
  0
LINE
  8
0
 10
6
 20
2
 11
10
 21
2
  0
LINE
  8
0
 10
10
 20
2
 11
10
 21
-2
  0
LINE
  8
0
 10
10
 20
-2
 11
6
 21
-2
  0
LINE
  8
0
 10
-10
 20
-2
 11
-10
 21
2
  0
LINE
  8
0
 10
-10
 20
2
 11
-6
 21
2
  0
LINE
  8
0
 10
-6
 20
2
 11
-6
 21
-2
  0
LINE
  8
0
 10
-6
 20
-2
 11
-10
 21
-2
  0
LINE
  8
0
 10
-18
 20
-2
 11
-18
 21
2
  0
LINE
  8
0
 10
-18
 20
2
 11
-14
 21
2
  0
LINE
  8
0
 10
-14
 20
2
 11
-14
 21
-2
  0
LINE
  8
0
 10
-14
 20
-2
 11
-18
 21
-2
  0
LINE
  8
0
 10
14
 20
-2
 11
14
 21
2
  0
LINE
  8
0
 10
14
 20
2
 11
18
 21
2
  0
LINE
  8
0
 10
18
 20
2
 11
18
 21
-2
  0
LINE
  8
0
 10
18
 20
-2
 11
14
 21
-2
  0
LINE
  8
0
 10
-2
 20
-2
 11
-2
 21
2
  0
LINE
  8
0
 10
-2
 20
2
 11
2
 21
2
  0
LINE
  8
0
 10
2
 20
2
 11
2
 21
-2
  0
LINE
  8
0
 10
2
 20
-2
 11
-2
 21
-2
  0
LINE
  8
0
 10
-26
 20
-2
 11
-26
 21
2
  0
LINE
  8
0
 10
-26
 20
2
 11
-22
 21
2
  0
LINE
  8
0
 10
-22
 20
2
 11
-22
 21
-2
  0
LINE
  8
0
 10
-22
 20
-2
 11
-26
 21
-2
  0
LINE
  8
0
 10
30
 20
-2
 11
30
 21
2
  0
LINE
  8
0
 10
30
 20
2
 11
34
 21
2
  0
LINE
  8
0
 10
34
 20
2
 11
34
 21
-2
  0
LINE
  8
0
 10
34
 20
-2
 11
30
 21
-2
  0
LINE
  8
0
 10
-34
 20
-2
 11
-34
 21
2
  0
LINE
  8
0
 10
-34
 20
2
 11
-30
 21
2
  0
LINE
  8
0
 10
-30
 20
2
 11
-30
 21
-2
  0
LINE
  8
0
 10
-30
 20
-2
 11
-34
 21
-2
  0
LINE
  8
0
 10
-42
 20
-2
 11
-42
 21
2
  0
LINE
  8
0
 10
-42
 20
2
 11
-38
 21
2
  0
LINE
  8
0
 10
-38
 20
2
 11
-38
 21
-2
  0
LINE
  8
0
 10
-38
 20
-2
 11
-42
 21
-2
  0
LINE
  8
0
 10
22
 20
-2
 11
22
 21
2
  0
LINE
  8
0
 10
22
 20
2
 11
26
 21
2
  0
LINE
  8
0
 10
26
 20
2
 11
26
 21
-2
  0
LINE
  8
0
 10
26
 20
-2
 11
22
 21
-2
  0
LINE
  8
0
 10
-34
 20
-10
 11
-34
 21
-6
  0
LINE
  8
0
 10
-34
 20
-6
 11
-30
 21
-6
  0
LINE
  8
0
 10
-30
 20
-6
 11
-30
 21
-10
  0
LINE
  8
0
 10
-30
 20
-10
 11
-34
 21
-10
  0
LINE
  8
0
 10
14
 20
-10
 11
14
 21
-6
  0
LINE
  8
0
 10
14
 20
-6
 11
18
 21
-6
  0
LINE
  8
0
 10
18
 20
-6
 11
18
 21
-10
  0
LINE
  8
0
 10
18
 20
-10
 11
14
 21
-10
  0
LINE
  8
0
 10
-18
 20
-10
 11
-18
 21
-6
  0
LINE
  8
0
 10
-18
 20
-6
 11
-14
 21
-6
  0
LINE
  8
0
 10
-14
 20
-6
 11
-14
 21
-10
  0
LINE
  8
0
 10
-14
 20
-10
 11
-18
 21
-10
  0
LINE
  8
0
 10
22
 20
-10
 11
22
 21
-6
  0
LINE
  8
0
 10
22
 20
-6
 11
26
 21
-6
  0
LINE
  8
0
 10
26
 20
-6
 11
26
 21
-10
  0
LINE
  8
0
 10
26
 20
-10
 11
22
 21
-10
  0
LINE
  8
0
 10
-26
 20
-10
 11
-26
 21
-6
  0
LINE
  8
0
 10
-26
 20
-6
 11
-22
 21
-6
  0
LINE
  8
0
 10
-22
 20
-6
 11
-22
 21
-10
  0
LINE
  8
0
 10
-22
 20
-10
 11
-26
 21
-10
  0
LINE
  8
0
 10
30
 20
-10
 11
30
 21
-6
  0
LINE
  8
0
 10
30
 20
-6
 11
34
 21
-6
  0
LINE
  8
0
 10
34
 20
-6
 11
34
 21
-10
  0
LINE
  8
0
 10
34
 20
-10
 11
30
 21
-10
  0
LINE
  8
0
 10
-42
 20
-10
 11
-42
 21
-6
  0
LINE
  8
0
 10
-42
 20
-6
 11
-38
 21
-6
  0
LINE
  8
0
 10
-38
 20
-6
 11
-38
 21
-10
  0
LINE
  8
0
 10
-38
 20
-10
 11
-42
 21
-10
  0
LINE
  8
0
 10
-10
 20
-10
 11
-10
 21
-6
  0
LINE
  8
0
 10
-10
 20
-6
 11
-6
 21
-6
  0
LINE
  8
0
 10
-6
 20
-6
 11
-6
 21
-10
  0
LINE
  8
0
 10
-6
 20
-10
 11
-10
 21
-10
  0
LINE
  8
0
 10
-2
 20
-10
 11
-2
 21
-6
  0
LINE
  8
0
 10
-2
 20
-6
 11
2
 21
-6
  0
LINE
  8
0
 10
2
 20
-6
 11
2
 21
-10
  0
LINE
  8
0
 10
2
 20
-10
 11
-2
 21
-10
  0
LINE
  8
0
 10
38
 20
-10
 11
38
 21
-6
  0
LINE
  8
0
 10
38
 20
-6
 11
42
 21
-6
  0
LINE
  8
0
 10
42
 20
-6
 11
42
 21
-10
  0
LINE
  8
0
 10
42
 20
-10
 11
38
 21
-10
  0
LINE
  8
0
 10
6
 20
-10
 11
6
 21
-6
  0
LINE
  8
0
 10
6
 20
-6
 11
10
 21
-6
  0
LINE
  8
0
 10
10
 20
-6
 11
10
 21
-10
  0
LINE
  8
0
 10
10
 20
-10
 11
6
 21
-10
  0
LINE
  8
0
 10
6
 20
-18
 11
6
 21
-14
  0
LINE
  8
0
 10
6
 20
-14
 11
10
 21
-14
  0
LINE
  8
0
 10
10
 20
-14
 11
10
 21
-18
  0
LINE
  8
0
 10
10
 20
-18
 11
6
 21
-18
  0
LINE
  8
0
 10
-18
 20
-18
 11
-18
 21
-14
  0
LINE
  8
0
 10
-18
 20
-14
 11
-14
 21
-14
  0
LINE
  8
0
 10
-14
 20
-14
 11
-14
 21
-18
  0
LINE
  8
0
 10
-14
 20
-18
 11
-18
 21
-18
  0
LINE
  8
0
 10
38
 20
-18
 11
38
 21
-14
  0
LINE
  8
0
 10
38
 20
-14
 11
42
 21
-14
  0
LINE
  8
0
 10
42
 20
-14
 11
42
 21
-18
  0
LINE
  8
0
 10
42
 20
-18
 11
38
 21
-18
  0
LINE
  8
0
 10
-26
 20
-18
 11
-26
 21
-14
  0
LINE
  8
0
 10
-26
 20
-14
 11
-22
 21
-14
  0
LINE
  8
0
 10
-22
 20
-14
 11
-22
 21
-18
  0
LINE
  8
0
 10
-22
 20
-18
 11
-26
 21
-18
  0
LINE
  8
0
 10
22
 20
-18
 11
22
 21
-14
  0
LINE
  8
0
 10
22
 20
-14
 11
26
 21
-14
  0
LINE
  8
0
 10
26
 20
-14
 11
26
 21
-18
  0
LINE
  8
0
 10
26
 20
-18
 11
22
 21
-18
  0
LINE
  8
0
 10
30
 20
-18
 11
30
 21
-14
  0
LINE
  8
0
 10
30
 20
-14
 11
34
 21
-14
  0
LINE
  8
0
 10
34
 20
-14
 11
34
 21
-18
  0
LINE
  8
0
 10
34
 20
-18
 11
30
 21
-18
  0
LINE
  8
0
 10
-34
 20
-18
 11
-34
 21
-14
  0
LINE
  8
0
 10
-34
 20
-14
 11
-30
 21
-14
  0
LINE
  8
0
 10
-30
 20
-14
 11
-30
 21
-18
  0
LINE
  8
0
 10
-30
 20
-18
 11
-34
 21
-18
  0
LINE
  8
0
 10
-42
 20
-18
 11
-42
 21
-14
  0
LINE
  8
0
 10
-42
 20
-14
 11
-38
 21
-14
  0
LINE
  8
0
 10
-38
 20
-14
 11
-38
 21
-18
  0
LINE
  8
0
 10
-38
 20
-18
 11
-42
 21
-18
  0
LINE
  8
0
 10
14
 20
-18
 11
14
 21
-14
  0
LINE
  8
0
 10
14
 20
-14
 11
18
 21
-14
  0
LINE
  8
0
 10
18
 20
-14
 11
18
 21
-18
  0
LINE
  8
0
 10
18
 20
-18
 11
14
 21
-18
  0
LINE
  8
0
 10
-10
 20
-18
 11
-10
 21
-14
  0
LINE
  8
0
 10
-10
 20
-14
 11
-6
 21
-14
  0
LINE
  8
0
 10
-6
 20
-14
 11
-6
 21
-18
  0
LINE
  8
0
 10
-6
 20
-18
 11
-10
 21
-18
  0
LINE
  8
0
 10
-2
 20
-18
 11
-2
 21
-14
  0
LINE
  8
0
 10
-2
 20
-14
 11
2
 21
-14
  0
LINE
  8
0
 10
2
 20
-14
 11
2
 21
-18
  0
LINE
  8
0
 10
2
 20
-18
 11
-2
 21
-18
  0
LINE
  8
0
 10
-26
 20
-26
 11
-26
 21
-22
  0
LINE
  8
0
 10
-26
 20
-22
 11
-22
 21
-22
  0
LINE
  8
0
 10
-22
 20
-22
 11
-22
 21
-26
  0
LINE
  8
0
 10
-22
 20
-26
 11
-26
 21
-26
  0
LINE
  8
0
 10
-34
 20
-26
 11
-34
 21
-22
  0
LINE
  8
0
 10
-34
 20
-22
 11
-30
 21
-22
  0
LINE
  8
0
 10
-30
 20
-22
 11
-30
 21
-26
  0
LINE
  8
0
 10
-30
 20
-26
 11
-34
 21
-26
  0
LINE
  8
0
 10
-18
 20
-26
 11
-18
 21
-22
  0
LINE
  8
0
 10
-18
 20
-22
 11
-14
 21
-22
  0
LINE
  8
0
 10
-14
 20
-22
 11
-14
 21
-26
  0
LINE
  8
0
 10
-14
 20
-26
 11
-18
 21
-26
  0
LINE
  8
0
 10
6
 20
-26
 11
6
 21
-22
  0
LINE
  8
0
 10
6
 20
-22
 11
10
 21
-22
  0
LINE
  8
0
 10
10
 20
-22
 11
10
 21
-26
  0
LINE
  8
0
 10
10
 20
-26
 11
6
 21
-26
  0
LINE
  8
0
 10
22
 20
-26
 11
22
 21
-22
  0
LINE
  8
0
 10
22
 20
-22
 11
26
 21
-22
  0
LINE
  8
0
 10
26
 20
-22
 11
26
 21
-26
  0
LINE
  8
0
 10
26
 20
-26
 11
22
 21
-26
  0
LINE
  8
0
 10
30
 20
-26
 11
30
 21
-22
  0
LINE
  8
0
 10
30
 20
-22
 11
34
 21
-22
  0
LINE
  8
0
 10
34
 20
-22
 11
34
 21
-26
  0
LINE
  8
0
 10
34
 20
-26
 11
30
 21
-26
  0
LINE
  8
0
 10
-10
 20
-26
 11
-10
 21
-22
  0
LINE
  8
0
 10
-10
 20
-22
 11
-6
 21
-22
  0
LINE
  8
0
 10
-6
 20
-22
 11
-6
 21
-26
  0
LINE
  8
0
 10
-6
 20
-26
 11
-10
 21
-26
  0
LINE
  8
0
 10
-2
 20
-26
 11
-2
 21
-22
  0
LINE
  8
0
 10
-2
 20
-22
 11
2
 21
-22
  0
LINE
  8
0
 10
2
 20
-22
 11
2
 21
-26
  0
LINE
  8
0
 10
2
 20
-26
 11
-2
 21
-26
  0
LINE
  8
0
 10
-42
 20
-26
 11
-42
 21
-22
  0
LINE
  8
0
 10
-42
 20
-22
 11
-38
 21
-22
  0
LINE
  8
0
 10
-38
 20
-22
 11
-38
 21
-26
  0
LINE
  8
0
 10
-38
 20
-26
 11
-42
 21
-26
  0
LINE
  8
0
 10
38
 20
-26
 11
38
 21
-22
  0
LINE
  8
0
 10
38
 20
-22
 11
42
 21
-22
  0
LINE
  8
0
 10
42
 20
-22
 11
42
 21
-26
  0
LINE
  8
0
 10
42
 20
-26
 11
38
 21
-26
  0
LINE
  8
0
 10
14
 20
-26
 11
14
 21
-22
  0
LINE
  8
0
 10
14
 20
-22
 11
18
 21
-22
  0
LINE
  8
0
 10
18
 20
-22
 11
18
 21
-26
  0
LINE
  8
0
 10
18
 20
-26
 11
14
 21
-26
  0
LINE
  8
0
 10
46
 20
-70
 11
46
 21
-58
  0
LINE
  8
0
 10
46
 20
-58
 11
53
 21
-58
  0
LINE
  8
0
 10
53
 20
-58
 11
53
 21
-70
  0
LINE
  8
0
 10
53
 20
-70
 11
46
 21
-70
  0
LINE
  8
0
 10
-53
 20
-70
 11
-53
 21
-58
  0
LINE
  8
0
 10
-53
 20
-58
 11
-46
 21
-58
  0
LINE
  8
0
 10
-46
 20
-58
 11
-46
 21
-70
  0
LINE
  8
0
 10
-46
 20
-70
 11
-53
 21
-70
  0
ENDSEC
  0
SECTION
  2
OBJECTS
  0
DICTIONARY
  0
ENDSEC
  0
EOF
